<svg width="895" height="301" viewBox="0 0 895 301" fill="none" xmlns="http://www.w3.org/2000/svg">
<circle cx="586.5" cy="150.5" r="148.5" stroke="url(#paint0_radial)" stroke-width="4"/>
<g filter="url(#filter0_bi)">
<circle r="135" transform="matrix(-1 0 0 1 760 151)" fill="#EDF2E2" fill-opacity="0.2"/>
</g>
<circle r="148.5" transform="matrix(-1 0 0 1 285.5 150.5)" stroke="url(#paint1_radial)" stroke-width="4"/>
<circle r="66" transform="matrix(-1 0 0 1 436 146)" fill="white"/>
<path d="M400 146C400 165.942 416.236 182 436 182C438.824 182 441.648 181.646 444.294 180.941V160.824C441.824 162.236 439 162.941 436 162.941C426.647 162.941 419.06 155.354 419.06 146C419.06 136.647 426.647 129.059 436 129.059C439.002 129.059 441.824 129.942 444.294 131.177V111.059C441.591 110.339 438.802 109.983 436.002 110.001C416.236 110.001 400 126.236 400 146ZM452.942 114.236V177.765C464.236 171.766 472 159.765 472 146C472 132.236 464.409 120.235 452.94 114.236H452.942Z" fill="#86EC16"/>
<g filter="url(#filter1_bi)">
<circle r="135" transform="matrix(-1 0 0 1 135 151)" fill="#EDF2E2" fill-opacity="0.2"/>
</g>
<defs>
<filter id="filter0_bi" x="525" y="-84" width="470" height="470" filterUnits="userSpaceOnUse" color-interpolation-filters="sRGB">
<feFlood flood-opacity="0" result="BackgroundImageFix"/>
<feGaussianBlur in="BackgroundImage" stdDeviation="50"/>
<feComposite in2="SourceAlpha" operator="in" result="effect1_backgroundBlur"/>
<feBlend mode="normal" in="SourceGraphic" in2="effect1_backgroundBlur" result="shape"/>
<feColorMatrix in="SourceAlpha" type="matrix" values="0 0 0 0 0 0 0 0 0 0 0 0 0 0 0 0 0 0 127 0" result="hardAlpha"/>
<feOffset dx="10" dy="10"/>
<feGaussianBlur stdDeviation="10"/>
<feComposite in2="hardAlpha" operator="arithmetic" k2="-1" k3="1"/>
<feColorMatrix type="matrix" values="0 0 0 0 0.52549 0 0 0 0 0.92549 0 0 0 0 0.0862745 0 0 0 0.05 0"/>
<feBlend mode="normal" in2="shape" result="effect2_innerShadow"/>
</filter>
<filter id="filter1_bi" x="-100" y="-84" width="470" height="470" filterUnits="userSpaceOnUse" color-interpolation-filters="sRGB">
<feFlood flood-opacity="0" result="BackgroundImageFix"/>
<feGaussianBlur in="BackgroundImage" stdDeviation="50"/>
<feComposite in2="SourceAlpha" operator="in" result="effect1_backgroundBlur"/>
<feBlend mode="normal" in="SourceGraphic" in2="effect1_backgroundBlur" result="shape"/>
<feColorMatrix in="SourceAlpha" type="matrix" values="0 0 0 0 0 0 0 0 0 0 0 0 0 0 0 0 0 0 127 0" result="hardAlpha"/>
<feOffset dx="10" dy="10"/>
<feGaussianBlur stdDeviation="10"/>
<feComposite in2="hardAlpha" operator="arithmetic" k2="-1" k3="1"/>
<feColorMatrix type="matrix" values="0 0 0 0 0.52549 0 0 0 0 0.92549 0 0 0 0 0.0862745 0 0 0 0.05 0"/>
<feBlend mode="normal" in2="shape" result="effect2_innerShadow"/>
</filter>
<radialGradient id="paint0_radial" cx="0" cy="0" r="1" gradientUnits="userSpaceOnUse" gradientTransform="translate(436 151) scale(301)">
<stop stop-color="#86EC16"/>
<stop offset="1" stop-color="#39413A"/>
</radialGradient>
<radialGradient id="paint1_radial" cx="0" cy="0" r="1" gradientUnits="userSpaceOnUse" gradientTransform="translate(2.94491e-06 151) scale(301)">
<stop stop-color="#86EC16"/>
<stop offset="1" stop-color="#373E37"/>
</radialGradient>
</defs>
</svg>
