<svg xmlns="http://www.w3.org/2000/svg" width="2304" height="2489" fill="none" viewBox="0 0 2304 2489">
    <path stroke="#2DE9CD" stroke-miterlimit="10" stroke-width="8" d="M1258.45 1085.14c-117.03-151.137-377.593-115.398-498.995 69.62-112.747 171.82-476.75 59.42-659.756 290.42-283.545 419.25 112.549 792.71 541.047 642.18 253.864-89.19 231.457-338.11 441.524-510.06 136.72-112.04 315.4-312.39 176.18-492.16z"/>
    <path stroke="#2DE9CD" stroke-width="8" d="M1389.29 1041.88c-162.82-202.908 282.54-320.722 402.63-785.493 133.74-517.615 724.62-156.683 423.56 343.461-197.99 328.914-675.34 630.022-826.19 442.032zM1772.25 1333.02c-213.54-50.65-191.03 333.55-526.58 569.59-521.029 366.5-40.9 871.37 429.57 375.56 264.25-278.49 331.53-889.53 97.01-945.15z"/>
</svg>
