<svg width="830" height="370" viewBox="0 0 830 370" fill="none" xmlns="http://www.w3.org/2000/svg">
<g clip-path="url(#clip0_212_4)">
<g opacity="0.5">
<circle cx="745" cy="119" r="14" fill="#D9BE91"/>
<circle cx="738" cy="108" r="2" fill="#84563C"/>
<circle cx="735.5" cy="113.5" r="1.5" fill="#84563C"/>
<circle cx="742" cy="124" r="3" fill="#84563C"/>
<circle cx="753" cy="129" r="2" fill="#84563C"/>
<circle cx="755" cy="110" r="1" fill="#84563C"/>
<circle cx="750" cy="118" r="2" fill="#84563C"/>
<circle cx="735" cy="128" r="1" fill="#84563C"/>
</g>
<g opacity="0.5">
<circle cx="685.5" cy="206.5" r="21.5" fill="#D9BE91"/>
<circle cx="674.75" cy="189.607" r="3.07143" fill="#84563C"/>
<circle cx="670.911" cy="198.054" r="2.30357" fill="#84563C"/>
<circle cx="680.893" cy="214.179" r="4.60714" fill="#84563C"/>
<circle cx="697.786" cy="221.857" r="3.07143" fill="#84563C"/>
<circle cx="700.857" cy="192.679" r="1.53571" fill="#84563C"/>
<circle cx="693.179" cy="204.964" r="3.07143" fill="#84563C"/>
<circle cx="670.143" cy="220.321" r="1.53571" fill="#84563C"/>
</g>
<g opacity="0.5">
<circle cx="823.5" cy="204.5" r="18.5" fill="#D9BE91"/>
<circle cx="814.25" cy="189.964" r="2.64286" fill="#84563C"/>
<circle cx="810.946" cy="197.232" r="1.98214" fill="#84563C"/>
<circle cx="819.536" cy="211.107" r="3.96429" fill="#84563C"/>
<circle cx="830.107" cy="203.179" r="2.64286" fill="#84563C"/>
<circle cx="810.286" cy="216.393" r="1.32143" fill="#84563C"/>
</g>
<g opacity="0.5">
<circle cx="735.5" cy="341.5" r="38.5" fill="#D9BE91"/>
<circle cx="716.25" cy="311.25" r="5.5" fill="#84563C"/>
<circle cx="709.375" cy="326.375" r="4.125" fill="#84563C"/>
<circle cx="727.25" cy="355.25" r="8.25" fill="#84563C"/>
<circle cx="757.5" cy="369" r="5.5" fill="#84563C"/>
<circle cx="763" cy="316.75" r="2.75" fill="#84563C"/>
<circle cx="749.25" cy="338.75" r="5.5" fill="#84563C"/>
<circle cx="708" cy="366.25" r="2.75" fill="#84563C"/>
</g>
<g opacity="0.5">
<circle cx="611" cy="366" r="16" fill="#D9BE91"/>
<circle cx="603" cy="353.429" r="2.28571" fill="#84563C"/>
<circle cx="600.143" cy="359.714" r="1.71429" fill="#84563C"/>
<circle cx="607.571" cy="371.714" r="3.42857" fill="#84563C"/>
<circle cx="622.429" cy="355.714" r="1.14286" fill="#84563C"/>
<circle cx="616.714" cy="364.857" r="2.28571" fill="#84563C"/>
</g>
<g opacity="0.5">
<circle cx="813" cy="37" r="28" fill="#D9BE91"/>
<circle cx="799" cy="15" r="4" fill="#84563C"/>
<circle cx="794" cy="26" r="3" fill="#84563C"/>
<circle cx="807" cy="47" r="6" fill="#84563C"/>
<circle cx="829" cy="57" r="4" fill="#84563C"/>
<circle cx="823" cy="35" r="4" fill="#84563C"/>
<circle cx="793" cy="55" r="2" fill="#84563C"/>
</g>
<g opacity="0.5">
<circle cx="473.5" cy="309.5" r="24.5" fill="#D9BE91"/>
<circle cx="461.25" cy="290.25" r="3.5" fill="#84563C"/>
<circle cx="456.875" cy="299.875" r="2.625" fill="#84563C"/>
<circle cx="468.25" cy="318.25" r="5.25" fill="#84563C"/>
<circle cx="487.5" cy="327" r="3.5" fill="#84563C"/>
<circle cx="491" cy="293.75" r="1.75" fill="#84563C"/>
<circle cx="482.25" cy="307.75" r="3.5" fill="#84563C"/>
<circle cx="456" cy="325.25" r="1.75" fill="#84563C"/>
</g>
<g opacity="0.5">
<circle cx="301" cy="273" r="17" fill="#D9BE91"/>
<circle cx="292.5" cy="259.643" r="2.42857" fill="#84563C"/>
<circle cx="289.465" cy="266.321" r="1.82143" fill="#84563C"/>
<circle cx="297.357" cy="279.071" r="3.64286" fill="#84563C"/>
<circle cx="310.714" cy="285.143" r="2.42857" fill="#84563C"/>
<circle cx="313.143" cy="262.071" r="1.21429" fill="#84563C"/>
<circle cx="307.072" cy="271.786" r="2.42857" fill="#84563C"/>
<circle cx="288.857" cy="283.929" r="1.21429" fill="#84563C"/>
</g>
<g opacity="0.5">
<circle cx="131" cy="327" r="28" fill="#D9BE91"/>
<circle cx="117" cy="305" r="4" fill="#84563C"/>
<circle cx="112" cy="316" r="3" fill="#84563C"/>
<circle cx="125" cy="337" r="6" fill="#84563C"/>
<circle cx="147" cy="347" r="4" fill="#84563C"/>
<circle cx="151" cy="309" r="2" fill="#84563C"/>
<circle cx="141" cy="325" r="4" fill="#84563C"/>
<circle cx="111" cy="345" r="2" fill="#84563C"/>
</g>
<g opacity="0.5">
<circle cx="6.5" cy="347.5" r="12.5" fill="#D9BE91"/>
<circle cx="0.249948" cy="337.679" r="1.78571" fill="#84563C"/>
<circle cx="3.82139" cy="351.964" r="2.67857" fill="#84563C"/>
<circle cx="13.6429" cy="356.429" r="1.78571" fill="#84563C"/>
<circle cx="15.4286" cy="339.464" r="0.892857" fill="#84563C"/>
<circle cx="10.9644" cy="346.607" r="1.78571" fill="#84563C"/>
</g>
</g>
<defs>
<clipPath id="clip0_212_4">
<rect width="830" height="370" fill="white"/>
</clipPath>
</defs>
</svg>
