<?xml version="1.0" encoding="utf-8"?>
<!-- Generator: Adobe Illustrator 23.0.3, SVG Export Plug-In . SVG Version: 6.00 Build 0)  -->
<svg version="1.1" xmlns="http://www.w3.org/2000/svg" xmlns:xlink="http://www.w3.org/1999/xlink" x="0px" y="0px" width="1280px"
	 height="6000px" viewBox="0 0 1280 6000" style="enable-background:new 0 0 1280 6000;" xml:space="preserve">
<style type="text/css">
	.st0{display:none;}
	.st1{fill:#6100FE;}
	.st2{fill:#86ED18;}
	.st3{display:none;fill:none;stroke:#6100FE;stroke-width:8;stroke-miterlimit:10;}
</style>
<g id="Ebene_3">
</g>
<g id="Ebene_1" class="st0">
	
		<image style="display:inline;overflow:visible;" width="1280" height="6000" xlink:href="../backgrounds_png/pattern-purple-kundenservice.png" >
	</image>
</g>
<g id="Ebene_7">
	<path class="st1" d="M1273.5,5387.9c-19.1,0-37.7-0.8-55.7-2.3c-93.1-8-168-36.4-216.6-82c-48.2-45.2-66.3-104.2-50.9-166.1
		c14.6-58.9,58.5-117.2,127-168.6c76.8-57.7,180.4-104.6,308-139.5c363.5-99.3,460.2-256.9,518-351c38.6-62.9,64.1-104.4,139.7-86.6
		c35.9,8.5,66.3,33.7,88,73c21,38,33.2,88.1,35.3,144.7c4.9,129.7-41.7,274.9-127.8,398.4c-49.9,71.6-112.2,135-185,188.6
		c-81,59.5-175,106.5-279.3,139.7c-67.4,21.4-132.7,36.4-194.3,44.5C1343,5385.4,1307.4,5387.9,1273.5,5387.9z M2010.5,4395.5
		c-18.1,0-33,5.1-46.4,15.5c-19.3,15-34.6,39.9-54,71.5c-30.8,50.1-69.1,112.5-146.6,176.5c-42.1,34.8-92.1,66.5-148.5,94.3
		c-65.4,32.2-141.9,60.4-227.6,83.8c-126.6,34.6-229.3,81.1-305.3,138.2c-67,50.3-109.9,107.1-124,164.2
		c-14.6,59,2.6,115.2,48.6,158.3c47.3,44.4,120.6,72,211.8,79.9c102.1,8.8,224.3-8.2,353.3-49.2c196.2-62.3,355.3-174.7,460.2-325.2
		c85.1-122.1,131.2-265.5,126.4-393.5c-4.3-113.6-49.2-194.2-117.2-210.3C2029.9,4396.9,2019.8,4395.5,2010.5,4395.5z"/>
</g>
<g id="Ebene_8">
	<path class="st1" d="M879.8,3032.1c-29.1,0-57.7-3.7-85.2-11.2c-47.7-13-90-36.8-122.2-68.9c-32.5-32.4-53.3-71.8-60.2-114
		c-7.4-45.3,1.7-93,26.2-138.1c27.4-50.3,73.1-97.1,135.9-139.1c187.1-125.1,273.8-291.6,343.5-425.5
		c36-69.2,67.1-128.9,104.4-165.5c41-40.1,87.1-49.3,145.1-28.8c26.1,9.2,48.3,25.1,66.1,47c16.8,20.8,29.7,47.2,38.3,78.7
		c13.2,47.7,16.7,106.1,10.4,173.4c-6,64.5-20.6,134-43.4,206.5c-22.7,72.4-52.1,143.3-87.5,210.9
		c-36.7,70.2-77.8,132.9-122.1,186.4c-34.2,41.3-71.3,76.5-110.3,104.7c-36.3,26.3-74.4,46.7-113.4,60.7
		C963.6,3024.6,921.2,3032.1,879.8,3032.1z M1311.1,1938.4c-31,0-57.9,12.2-83.4,37.2c-36.4,35.6-67.2,94.9-102.9,163.4
		c-34.5,66.3-73.6,141.4-127.9,216.2c-63,86.7-134.3,156.2-218.2,212.2c-117.8,78.8-174.1,174.4-158.6,269.2
		c13.6,82.9,81.2,150.6,176.6,176.5c143.9,39.1,303.3-26,426.2-174.1l3.1,2.6l-3.1-2.6c181.3-218.5,293.9-578.4,241-770.1
		c-17.3-62.6-50.7-103.1-99.3-120.3C1345.3,1941.9,1327.6,1938.4,1311.1,1938.4z"/>
</g>
<g id="Ebene_4">
	<path class="st2" d="M282.9,771.9c-8.9,0-17.6-0.4-26.1-1.2c-75.9-7.5-127.8-47.3-150.3-115.1c-29.3-80.8-3.6-149,23.2-191.9
		c46-73.8,132.3-131.2,209.8-139.6v0c100.8-10.9,137.8,11.4,188.9,42.3c2.9,1.8,5.9,3.6,8.9,5.4l0.4,0.3
		c32.4,25.9,58.2,65.1,70.7,107.6c10.2,34.7,16.1,87.1-14,140.2c-22.1,39-73.6,80.2-137.9,110.1
		C398.4,757.1,336.6,771.9,282.9,771.9z M340.4,332c-75.3,8.1-159.1,64-203.9,135.9c-25.8,41.4-50.7,107.2-22.4,185l0,0.1
		c27,81.7,92.9,104.8,143.5,109.7c125.9,12.4,286.7-70.4,330-146.9c52.1-91.9-0.5-194.1-54.6-237.4c-3-1.8-5.9-3.5-8.7-5.2
		C474.5,343.1,438.5,321.4,340.4,332L340.4,332z"/>
</g>
<g id="Ebene_5">
	<path class="st3" d="M830.4,1829.9c-84.2-129.5-296.5-118.1-406.5,22.9c-102.2,130.9-387.9,16.2-550.7,190
		c-256.2,318.8,40.8,659.2,396,566.5c245.7-64.2,206-270.2,386.7-394.8C773.4,2133.5,930.6,1984,830.4,1829.9L830.4,1829.9z"/>
	<path class="st1" d="M1089.4,1733.2c-25.8,0-49.4-3.7-70.2-11.1c-27.5-9.8-50.4-26-68.3-48.3v0c-39.8-49.5-46.6-97.4-21.5-151
		c22.8-48.8,70.4-99.5,125.5-158.2c106.6-113.6,239.3-255,297.2-480c19.4-75.5,49.4-136,89-179.8c35.5-39.3,78.9-64.4,125.5-72.6
		c43.4-7.7,88.9-0.9,131.6,19.7c42.3,20.4,79.9,53.4,108.8,95.4c40.4,58.8,61.5,131.1,60.9,209.1c-0.3,42.7-7.2,86.8-20.4,131.2
		c-14.2,47.6-35.8,95.7-64.3,143.2c-36.9,61.5-84,122.9-139.8,182.6c-53.8,57.5-112.9,110.4-175.6,157.2
		c-62.9,47-125.6,84.9-186.4,112.8c-63.5,29.1-121.5,45.7-172.5,49.1C1102.3,1733,1095.8,1733.2,1089.4,1733.2z M957.1,1668.8
		c33.4,41.5,84.3,60.3,151.2,55.7c204.8-13.9,517-246.6,668-497.9c102.4-170.4,111.4-347.9,24.1-474.8
		c-57.8-84.1-146.9-126.9-232.4-111.8c-97.8,17.3-171.7,104.9-208.2,246.6c-26,100.8-69.2,194.1-132.2,285
		c-54.3,78.5-114.2,142.2-166.9,198.4c-54.6,58.2-101.8,108.5-124.1,156.1C912.6,1577.4,919,1621.3,957.1,1668.8z"/>
</g>
<g id="Ebene_6">
	<path class="st1" d="M161.9,5977.8c-13.2,0-26-0.6-38.5-1.8C13.9,5965.2-61,5907.8-93.4,5810c-17.5-48.1-22.7-97.5-15.6-146.7
		c6.5-44.7,23-88.6,49.1-130.5c66.5-106.7,191.2-189.7,303.3-201.8c145.7-15.8,199.2,16.5,273.2,61.2c4.2,2.6,8.6,5.2,13,7.8
		l0.4,0.3c22.2,17.7,43.1,40.9,60.5,66.9c18.4,27.6,32.4,57.3,41.6,88.4c14.7,50,23.2,125.6-20.1,202.1
		c-31.9,56.3-106.4,115.8-199.4,159.2c-46.5,21.7-96.2,38.6-143.8,48.8C231.4,5973.8,195.6,5977.8,161.9,5977.8z M243.9,5335l0.4,4
		c-109.8,11.9-232.1,93.3-297.4,198.1c-37.7,60.5-74,156.5-32.7,270.2l0,0.1c39.5,119.5,136,153.3,209.9,160.6
		c12.4,1.2,25,1.8,37.8,1.8c176.5,0,384.2-112,443.2-215.9c76.2-134.4-0.7-283.8-79.8-347.1c-4.3-2.6-8.6-5.2-12.8-7.7
		c-72.7-43.9-125.1-75.6-268.2-60.1L243.9,5335z"/>
</g>
<g id="Ebene_2">
	<path class="st1" d="M76.9,2684.6c-41.4,0-82.1-5.1-121.5-15.3c-45.4-11.8-87.6-30.1-125.4-54.4c-37.7-24.2-70.1-53.7-96.4-87.8
		c-47.8-62-72.9-136.3-72.6-215.1c0.2-41.8,7.5-84.7,21.7-127.6c15-45.2,37.9-90.6,68-135.1l0.2-0.2
		c41.1-51.8,95.5-89.8,166.3-116.1c62.1-23.1,127.8-34.3,191.4-45.2c106.9-18.3,207.8-35.5,255.8-108.6
		c30.3-46.2,71.8-84.9,119.9-111.9c45.8-25.6,96.4-40.2,146.5-42.2c40.5-1.6,78.6,5,113.3,19.5c36.5,15.3,67.1,38.7,91,69.5
		c58.4,75.4,63.4,161.8,14.7,256.8c-43.6,85-121.5,159.2-179.2,206.5c-81.4,66.6-118.9,143.6-155.3,218.1
		c-50.6,103.6-98.3,201.5-256.6,257.1C198.3,2673.9,136.9,2684.6,76.9,2684.6z M-242.7,2054c-110.7,163.8-117.2,338.8-17.3,468.3
		c110.4,143.2,317.8,192.6,516,122.9c155.2-54.5,202.3-150.9,252.1-253c36.7-75.2,74.7-153,157.4-220.7
		c57.1-46.8,134.2-120.2,177.2-204c47.1-92,42.4-175.5-13.9-248.2v0c-44.8-57.8-116.8-89.1-197.6-86c-102.1,4-201.8,61.7-260,150.5
		c-22.8,34.8-57.3,59.5-108.4,77.6c-45.1,16-97.4,25-152.7,34.4C-13.2,1916.8-152.8,1940.6-242.7,2054z"/>
</g>
</svg>
