<svg version="1.1" xmlns="http://www.w3.org/2000/svg" xmlns:xlink="http://www.w3.org/1999/xlink" x="0px" y="0px" width="960px"
	 height="4500px" viewBox="0 0 960 4500" style="enable-background:new 0 0 960 4500;" xml:space="preserve">
<style type="text/css">
	.st0{display:none;}
	.st1{fill:#6100FE;}
	.st2{fill:#86ED18;}
</style>
<g id="Ebene_1" class="st0">
	
		<image style="display:inline;overflow:visible;" width="1280" height="6000" xlink:href="../backgrounds_png/pattern-allcolors-landingpages.png"  transform="matrix(0.75 0 0 0.75 0 0)">
	</image>
</g>
<g id="Ebene_5">
	<path class="st1" d="M492,2117.5c-65.1,0-118.9-15.2-155.5-44c-36.4-28.7-52.6-68.8-45.6-113c6.6-41.9,33.7-85.1,78.1-125
		c49.8-44.6,118.8-83.3,205.1-115.1c245-90.2,302.4-204.7,336.7-273.2c23.2-46.3,38.5-76.9,92.7-68.9c51.2,7.5,89.2,62.8,99.4,144.3
		c11.2,89.7-12.4,193.2-64.8,284c-30.3,52.6-69.7,100.3-117,141.8c-52.6,46.1-114.9,84.3-185.2,113.5
		C648.5,2098.3,564.1,2117.5,492,2117.5z M987.5,1385.1c-36.5,0-48.9,24.7-69.4,65.8c-17.4,34.7-41.2,82.2-91.1,131.2
		c-59,58-140.8,105.7-250,145.9c-160.3,59-264.3,146.4-278.1,233.8c-6.5,41.2,8.6,78.7,42.6,105.5c35.2,27.7,87.2,42.3,150.5,42.3
		c71,0,154.3-19,241-55c131.7-54.7,234.9-141.8,298.3-251.9c51.5-89.3,74.7-191,63.7-279c-9.7-77.8-45.2-130.4-92.6-137.4
		C997,1385.5,992.1,1385.1,987.5,1385.1z"/>
</g>
<g id="Ebene_6">
	<path class="st2" d="M842.1,808.1c-3.8,0-7.5-0.1-11.1-0.3c-47.7-2.4-82.3-20.1-102.7-52.7l0,0c-49.9-79.7,10.8-130.8,94.9-201.5
		c80.7-67.9,181.1-152.3,237.9-298.8c19.2-49.5,44.3-88,74.6-114.4c27.2-23.8,58.7-37.3,91-39.2c30.1-1.7,60.4,6.6,87.7,24
		c27,17.2,49.8,42.6,66.1,73.4c22.7,43,31.1,93.6,24.5,146.4c-7.6,60.5-34.2,120.5-79.1,178.5c-58.3,75.3-145.7,149.7-239.7,203.9
		c-46.2,26.6-91.5,47.2-134.7,61.2C911,801.5,874.3,808.1,842.1,808.1z M735.1,750.9c18.9,30.2,51.3,46.7,96.3,49
		c138.6,6.9,366.7-124.6,488.1-281.4c82.2-106.1,102.3-224.3,53.9-316.2c-32-60.8-88.1-96.4-146.3-93.1
		c-66.6,3.8-123,56.6-158.6,148.6c-25.6,65.9-62.2,125.4-111.9,181.7c-42.9,48.6-88.3,86.7-128.3,120.4
		C744.3,630.4,688.9,677,735.1,750.9z"/>
</g>
<g id="Ebene_2">
	<path class="st2" d="M457.9,519.8c-32.3,0-70.3-10.4-105.3-29.1c-35.5-18.9-63.5-43.8-74.9-66.7c-15.6-31.2-10.7-61-3.8-80.5
		c8.4-23.8,24.3-45.3,43.5-59.1l0.5-0.3c1.8-0.9,3.5-1.8,5.2-2.8c29.9-16,51.6-27.5,108.4-18.3v0c43.8,7.1,91,42.2,114.9,85.4
		c13.9,25.2,26.5,64.8,7.4,109.9c-14.9,38.1-45.8,59.3-89.3,61.3C462.3,519.7,460.1,519.8,457.9,519.8z M321.8,291
		c-31.1,22.4-63,77.2-37,129.4c21.8,43.7,108.8,94.4,179.2,91.2c28-1.3,65-12.1,82.2-56.2l0-0.1c17.9-42.2,6-79.3-7-103
		c-22.8-41.2-67.7-74.7-109.2-81.4l0,0c-54.2-8.8-73.7,1.7-103.3,17.5C325.2,289.3,323.5,290.2,321.8,291z"/>
</g>
<g id="Ebene_3">
	<path class="st2" d="M111.3,1361.7c-49.9,0-97.6-10.7-140-31.5c-52.8-25.9-95-67.1-118.9-115.9c-21.7-44.3-27.7-93.5-17.6-142.1
		c11.2-53.5,41-104.2,88.6-150.7l0.2-0.2C-5,861.5,85,864.5,164.4,867.2c70.5,2.4,131.3,4.4,169.5-34c24.6-24.7,55.1-43.4,88.3-53.9
		c31.5-10,64.7-12.6,95.9-7.5c52.1,8.6,94.1,38.2,115.2,81.2c26.6,54.2,18.7,108.4-23.5,161c-37.6,46.9-95,82.7-136.5,104.5
		c-58,30.5-90.7,72.8-122.3,113.8c-44.3,57.4-86.1,111.7-190.8,126C143.8,1360.6,127.4,1361.7,111.3,1361.7z M-71.1,927.4
		c-88,86.1-113.9,192-69.3,283.4C-91,1312,29.4,1368.1,159.2,1350.4c101.5-13.8,142.3-66.8,185.6-122.9
		c32.1-41.7,65.3-84.7,124.9-116c40.8-21.5,97.2-56.6,133.9-102.5c40.1-50,47.7-101.3,22.6-152.5c-20-40.7-59.8-68.7-109.3-76.8
		c-62.7-10.3-130.6,12.3-177.2,59.1c-40.6,40.8-106.1,38.6-175.4,36.3C86.2,872.5-2.1,869.6-71.1,927.4z"/>
	<path class="st2" d="M261.5,3584.9c-31.4,0-62.2-4-91.9-12c-65.6-17.7-122.5-55-160.3-105c-34.3-45.5-52.1-99.8-51.3-157.1
		c0.9-63.2,23.5-127.2,67.1-190.4l0.2-0.2c67.6-83.6,170.4-100.1,261.1-114.7c80.7-13,150.4-24.1,185.4-76.4
		c22.4-33.4,52.9-61.3,88.1-80.6c33.5-18.3,70.5-28.6,107-29.7c29.5-0.9,57.3,4.2,82.4,15.1c26.5,11.4,48.7,28.7,65.9,51.4h0
		c42.1,55.5,45.1,118.5,8.9,187.4c-32.3,61.5-89.4,114.8-131.7,148.7c-59.3,47.5-87,103-113.8,156.5
		c-37.5,74.9-72.9,145.7-188.5,185C347.3,3577.6,303.9,3584.9,261.5,3584.9z M31.6,3125.1c-81.1,117.5-87.1,243.8-16,337.9
		c78.7,104.2,228.2,141.3,371.9,92.4c112.4-38.2,147.2-107.6,183.9-181c27.2-54.4,55.3-110.6,116-159.2c41.7-33.4,98-86,129.6-146.2
		c34.6-65.9,31.9-126.1-8.2-178.8c-31.8-41.9-83.4-65-141.7-63.3c-73.7,2.1-146,43-188.7,106.7c-37,55.1-111.7,67.1-190.8,79.8
		C198.5,3027.7,97.3,3043.9,31.6,3125.1z"/>
</g>
<g id="Ebene_4">
	<path class="st1" d="M651,4168.7c-6.6,0-13.1-0.3-19.6-1c-50.4-5.3-92.2-31.4-114.8-71.4c-28.5-50.5-23.9-102.8,13.6-155.5
		c33.4-47,86.3-84.4,124.8-107.6c53.8-32.3,82.7-74.7,110.6-115.6c39.2-57.4,76.2-111.7,175.7-131.1c64.1-12.5,127.2-6.8,182.5,16.5
		c52,21.9,94.7,59,120.2,104.4c23.2,41.3,31.7,88,24.7,135.1c-7.8,51.9-33.5,102-76.5,149.1l-0.2,0.2
		c-65,61.3-151.3,63.4-227.5,65.2c-67.5,1.6-125.8,3.1-160.2,41.8c-22.2,25-50.4,44.6-81.6,56.5C699.5,4164.1,675,4168.7,651,4168.7
		z M523.6,4092.3c21.3,37.8,60.9,62.3,108.7,67.4c60.5,6.4,124.2-19,166.1-66.3c36.7-41.3,99.5-42.9,166-44.5
		c74.7-1.8,159.3-3.9,222.1-62.9c79.4-87.1,98.4-189.8,50.6-274.7c-52.8-94-171.1-141-294.2-117c-96.3,18.8-132.4,71.7-170.6,127.8
		c-28.4,41.6-57.8,84.7-113.1,117.9c-37.9,22.8-89.8,59.5-122.4,105.4C501.2,3995.3,496.7,4044.8,523.6,4092.3L523.6,4092.3z"/>
	<path class="st1" d="M-103.6,4343c-33.5,0-63.2-4.5-86.4-13.6c-65.1-25.5-97.8-76.4-113.8-114.6c-19.6-46.9-25-100.4-14.9-147
		l0.1-0.5c1.4-3.8,2.7-7.6,4.1-11.3c23.2-64.6,40-111.2,137.7-174.5l0,0c75.1-48.6,193.5-60,287.9-27.5
		c54.9,18.9,127.1,60.9,159.5,154.1c29.1,76.6,11.6,149.6-50.5,211.1c-48.4,48-124.1,87.5-207.6,108.4
		C-28.1,4337.9-68,4343-103.6,4343z M-310.9,4069.8c-16.9,78.1,10.4,207.8,123.8,252.2c94.3,36.9,298.1-5.9,401.6-108.4
		c41.6-41.2,83.9-109.8,48.6-202.6l0-0.1c-31.3-90.2-101.3-130.9-154.6-149.2c-92.2-31.7-207.8-20.7-281,26.7
		c-95.4,61.8-111.8,107.4-134.5,170.5C-308.2,4062.4-309.5,4066.1-310.9,4069.8z"/>
</g>
</svg>
