<svg version="1.1" xmlns="http://www.w3.org/2000/svg" xmlns:xlink="http://www.w3.org/1999/xlink" x="0px" y="0px" width="960px"
	 height="4500px" viewBox="0 0 960 4500" style="enable-background:new 0 0 960 4500;" xml:space="preserve">
<style type="text/css">
	.st0{display:none;}
	.st1{fill:#2DE9CD;}
	.st2{fill:#86ED18;}
</style>
<g id="Ebene_1" class="st0">
	
		<image style="display:inline;overflow:visible;" width="1280" height="6000" xlink:href="../backgrounds_png/pattern-blue-sales.png"  transform="matrix(0.75 0 0 0.75 0 0)">
	</image>
</g>
<g id="Ebene_3">
	<path class="st1" d="M202.7,1743c-38.2,0-75.7-5.7-111.4-17.2c-67.5-21.6-125.6-63.5-163.7-117.8c-35-50-52.3-108.5-49.8-169.3
		c2.7-67.1,28.4-133.8,76.4-198.3l0.2-0.2c73.4-84.4,180.8-97.8,275.6-109.6c84.4-10.5,157.3-19.6,195.7-72.6
		c24.5-33.9,57.2-61.8,94.5-80.5c35.5-17.8,74.3-27.1,112.2-26.9c30.7,0.2,59.4,6.5,85.1,18.7c27.1,12.9,49.5,31.6,66.5,55.8l0,0
		c22.7,32.3,24,90.9,3.4,152.9c-24.2,72.8-75.1,140.9-143.4,191.9c-63.6,47.4-93.4,106.3-122.1,163.3
		c-40.2,79.7-78.2,155-201.9,192.2C281,1737.1,241.5,1743,202.7,1743z M-39.5,1245.3c-89.5,120.2-99.3,254.1-26.4,358.1
		c59.2,84.4,159.6,131.4,268.9,131.4c37.7,0,76.4-5.6,114.9-17.2c120.4-36.2,157.6-110,197-188.1c29.2-57.8,59.3-117.5,124.4-166.1
		c67-50,117-116.8,140.6-188c19.5-58.8,18.6-116-2.4-145.8l0,0c-31.6-44.8-84.5-70.7-145.1-71.1c-0.5,0-0.9,0-1.4,0
		c-76.3,0-152.4,39.8-198.9,104.1c-40.4,55.9-118.5,65.6-201.2,75.9C137.6,1150.1,31.8,1163.3-39.5,1245.3z"/>
	<path class="st1" d="M616.9,3726.1c-37.6,0-74.6-5.3-110-15.8c-72.2-21.4-135-64.6-176.7-121.4c-38.4-52.3-58.1-114.1-56.9-178.8
		c0.6-34.4,7.1-69.4,19.3-104.1c12.9-36.6,32.1-73.1,57.3-108.5l0.2-0.2c76-91.5,190-108.2,290.6-122.9
		c89.6-13.2,167.1-24.5,206.7-82c25.3-36.6,59.4-67,98.6-87.8c37.3-19.8,78.4-30.6,118.7-31.2c32.7-0.5,63.2,5.5,90.9,17.9
		c29.1,13,53.3,32.5,72,57.8l0,0c24.9,33.7,27.6,96,7.2,162.4c-24,77.9-76.6,151.6-148,207.4c-66.7,52-96.9,115.4-126.2,176.6
		c-20.6,43.2-40.1,84-71.2,120.3c-35.3,41.2-79.4,69.4-138.9,88.7C706,3718.9,661,3726.1,616.9,3726.1z M356.3,3202.2
		c-92.5,130.1-99.8,272.9-19.7,381.9c63.3,86.2,167.6,133.7,280.5,133.7c42.9,0,87.1-6.9,130.7-21.1
		c127.3-41.4,165.3-120.8,205.4-204.9c29.7-62.1,60.3-126.3,128.5-179.5c70.2-54.8,121.8-127,145.3-203.4
		c19.4-63.1,17.1-124-6-155.3h0c-34.7-47-91.6-73.4-156.3-72.4c-81.8,1.3-162.5,45.5-210.8,115.5c-19.1,27.6-47.3,46.9-88.8,60.6
		c-36.6,12-78.7,18.2-123.3,24.8C542.7,3096.8,430.4,3113.2,356.3,3202.2z"/>
	<path class="st1" d="M952.2,1033.5c-42.5,0-75.5-14.1-98.4-42.1c-62.8-76.7-6-138.2,72.5-223.4c75.5-81.9,169.4-183.8,209.3-344.9
		c13.5-54.3,34.6-98,62.8-129.7c25.3-28.5,56.5-46.9,90-53.1c31.3-5.8,64.1-1.2,95,13.4c30.5,14.4,57.8,37.9,78.9,68
		c29.4,42,45,93.8,45.1,149.9c0.1,64.3-19.8,130.7-59,197.4c-51,86.7-132.6,176.2-223.8,245.5c-44.8,34.1-89.5,61.7-132.8,82
		c-45.4,21.3-86.9,33.5-123.5,36.4C962.7,1033.3,957.3,1033.5,952.2,1033.5z M859.9,986.3c23.9,29.2,60.1,42.2,107.6,38.5
		c146.2-11.3,367.6-179.5,473.9-360c71.9-122.2,77.3-248.8,14.3-338.7c-41.7-59.4-105.2-89.4-165.8-78.1
		c-69.4,12.9-121.4,75.8-146.5,176.9c-18,72.4-48.4,139.6-92.9,205.2c-38.4,56.6-80.9,102.6-118.3,143.2
		C853.5,858.7,801.6,915,859.9,986.3z"/>
</g>
<g id="Ebene_4">
	<path class="st1" d="M798.3,1984.4c-21,0-41.6-2.5-61.6-7.6c-37.1-9.4-70-27.3-95.3-51.7c-25.6-24.7-42.2-54.9-48.1-87.5
		c-6.3-35,0.1-72,18.5-107.2c20.5-39.2,55.2-75.9,103.1-109.1c142.2-98.6,206.8-227.8,258.6-331.6
		c53.9-107.9,92.9-185.9,190.7-153.2c40,13.4,67.8,45.7,82.6,96c10.8,36.7,14.2,81.7,10.2,133.7c-3.8,49.8-14.2,103.5-30.8,159.7
		c-33.8,114.5-90.8,227.1-156.4,308.9l-3.1-2.5l3.1,2.5c-50.4,62.9-107.8,106.8-170.4,130.5C865.8,1978.1,831.7,1984.4,798.3,1984.4
		z M1122.4,1137c-63.6,0-96.2,65.1-141.7,156.3c-25.7,51.5-54.9,109.8-95.8,168.2c-47.4,67.7-101.6,122.1-165.5,166.4
		c-89.4,61.9-131.4,135.9-118.3,208.4c11.4,63.3,64.1,114.2,137.5,132.8c19.9,5,40,7.5,60.3,7.5c93.2,0,188.6-52,264.5-146.7v0
		c136.6-170.4,218.6-448.4,175.5-595.1c-14-47.7-40.1-78.2-77.4-90.7C1147.3,1139.3,1134.3,1137,1122.4,1137z"/>
	<path class="st1" d="M-864.6,5015.7c-5.4,0-10.8-0.3-16.2-0.9c-32.3-3.6-63.9-18.1-96.6-44.1c-28-22.3-48.5-51-61-85.4
		c-11.8-32.5-16.4-70.4-13.7-112.6c4-64.1,24.5-137.3,60.7-217.4c34.7-76.7,82.1-156,140.9-235.6c58.6-79.4,124.9-154.2,197-222.3
		c74.9-70.8,152-130.4,229.2-177.4c59.5-36.2,120.1-63.8,179.9-81.9c55.7-16.9,111.2-25.9,164.9-26.5
		c98.2-1.2,189.3,24.8,263.5,75.3c53,36.1,94.8,83.2,120.7,136.1c26.1,53.4,35,110.5,25.6,165.1c-10.1,58.6-41.3,113.3-90.5,158.2
		c-54.9,50.1-130.8,88.2-225.7,113.2c-283.6,74.6-461.1,242.9-603.7,378.1c-73.6,69.8-137.2,130.1-198.4,159.1
		C-814.8,5009.5-840,5015.7-864.6,5015.7z M-422.3,3923.5l2.1,3.4c-316.1,192.2-607.7,587.7-624,846.3
		c-5.3,84.8,18.8,149.1,71.7,191.2c60.4,48.1,116.3,55.8,181,25.1c60.1-28.5,123.2-88.4,196.3-157.7
		c70.5-66.9,150.5-142.7,249-211.7c114.2-79.9,231.4-135,358.2-168.4c178.9-47.1,289.1-141.2,310.3-265
		c18.6-108.3-36.2-220.7-143-293.3c-161-109.5-385.1-97-599.6,33.4L-422.3,3923.5z"/>
	<path class="st1" d="M1142.4,4529.8c-31.6,0-63.8-9.3-94.1-27.4c-40.7-24.3-77.9-63.6-110.6-116.9
		c-97.1-158.3-231.6-235.2-339.7-297c-112.2-64.1-193.3-110.5-152.5-213c16.7-41.9,52.9-69.7,107.6-82.5c39.9-9.3,88.2-10.3,143.7-3
		c53.1,7.1,110,21.4,169.2,42.5c120.6,43.1,237.7,110.9,321.3,186c64.3,57.7,107.9,121.7,129.5,190.2
		c18.8,59.7,19.7,120.1,2.5,174.7c-12.3,39.1-33.4,73.3-61,98.9c-27.9,25.9-61.2,41.8-96.4,46.2
		C1155.4,4529.4,1148.9,4529.8,1142.4,4529.8z M627.8,3793.2c-26.4,0-50.9,2.5-72.9,7.6c-52,12.2-86.3,38.3-102,77.7
		c-17.9,44.9-12.4,79.8,17.7,113c28.2,31.1,76,58.4,131.4,90.1c53.6,30.6,114.3,65.3,174.4,112.6c69.6,54.8,124.6,116,168.2,187.1
		c61,99.5,137.9,149,216.3,139.3c68.6-8.5,126.4-61.9,150.8-139.5c36.8-117.3-11.6-250.6-129.7-356.6
		C1031.6,3889.5,793.1,3793.2,627.8,3793.2z"/>
</g>
<g id="Ebene_5">
</g>
<g id="Ebene_2">
	<path class="st2" d="M362,595.2c-9.9,0-20.9-0.6-33.2-2l0,0c-54.1-5.9-114.4-45.9-146.5-97.4c-18.7-30-36.7-77.7-16.2-134.2
		c15.7-47.6,52.2-75.5,105.3-80.7c41.2-4.1,92,6.3,139.3,28.4c44.8,20.9,80.8,49.7,96.2,76.9c21.1,37.2,17,73.9,9.8,98.2
		c-8.8,29.7-26.8,57.1-49.5,75.3l-0.4,0.3c-2.1,1.3-4.2,2.5-6.2,3.7C431.2,581.5,408.5,595.2,362,595.2z M329.7,585.3
		c67.6,7.3,91.2-6.9,126.8-28.4c2-1.2,3.9-2.4,6-3.6c37.1-29.8,73.2-100,37.5-163.1C470.1,337.5,359.1,280.4,272.2,289
		c-34.7,3.4-80,19.3-98.5,75.3l0,0.1c-19.4,53.5-2.3,98.8,15.4,127.3C220,541.2,277.8,579.7,329.7,585.3z"/>
</g>
</svg>
