<svg version="1.1" xmlns="http://www.w3.org/2000/svg" xmlns:xlink="http://www.w3.org/1999/xlink" x="0px" y="0px" width="960px"
	 height="4520.9px" viewBox="0 0 960 4520.9" style="enable-background:new 0 0 960 4520.9;" xml:space="preserve">
<style type="text/css">
	.st0{display:none;}
	.st1{fill:none;stroke:#86ED18;stroke-width:8;stroke-miterlimit:10;}
	.st2{fill:none;stroke:#2DE9CD;stroke-width:8;stroke-miterlimit:10;}
	.st3{fill:none;stroke:#2DE9CD;stroke-width:8;}
</style>
<g id="Ebene_1" class="st0">
	
		<image style="display:inline;overflow:visible;" width="1280" height="6000" xlink:href="../backgrounds_png/pattern-blue-preisanfrage.png"  transform="matrix(0.75 0 0 0.75 0 0)">
	</image>
</g>
<g id="Ebene_2">
	<path class="st1" d="M757.1,329.6C840.8,338.6,952.5,438,912,549.6c-47.5,143.7-278.7,56-324.3-24.5
		c-34.3-60.6-2.7-131.5,37.6-163.7C663,338.8,686.1,321.9,757.1,329.6L757.1,329.6z"/>
	<path class="st2" d="M842.3,2174.1c95.9-10.4,127.2,12.5,178.1,43c54.5,43.6,97.2,139.4,50.8,221.2
		c-61.7,108.8-374,227.4-438.2,33.2C578.2,2320.7,729.1,2186.3,842.3,2174.1L842.3,2174.1z"/>
	<path class="st2" d="M152.2,2701.4c90.5-9.8,120.1,11.8,168.2,40.6c51.5,41.2,91.8,131.6,48,208.9
		c-58.2,102.8-353.2,214.8-413.9,31.3C-97.2,2839.9,45.3,2713,152.2,2701.4L152.2,2701.4z"/>
	<path class="st2" d="M-181.6,3510.6c127.4-83.4,397.3-72.7,468.7,129.6c98.5,255.2-324.9,397.8-481,337.7
		c-117.4-45.2-154.6-180.4-135.2-271.7C-302.4,3631.4-289.5,3581.3-181.6,3510.6L-181.6,3510.6z"/>
</g>
<g id="Ebene_3">
	<path class="st2" d="M1139.1,678.3c-52.9-68.3-170.7-52.2-225.6,31.5c-51,77.7-215.5,26.9-298.2,131.3
		c-128.2,189.5,50.9,358.3,244.6,290.3c131.3-46.1,104.6-152.8,199.6-230.6C1121.3,850.2,1202,759.6,1139.1,678.3L1139.1,678.3z"/>
	<path class="st2" d="M556.9,3734.6c58.9,98.3,216.5,95.5,301.9-6c79.3-94.3,288-1.5,413.3-126c198.5-229.4-10.7-479.8-276.4-420.6
		c-180.1,40.1-161.8,184.8-299,272.2C607.4,3511.2,486.9,3617.7,556.9,3734.6L556.9,3734.6z"/>
</g>
<g id="Ebene_4">
	<path class="st3" d="M-195.3,675.1C211.1,843.9,367.2,534.6-54.6,379.3C-414.6,246.7-317.6,59.6-433,76.6
		C-569.8,96.7-583.6,513.8-195.3,675.1z"/>
</g>
</svg>
