<?xml version="1.0" encoding="utf-8"?>
<!-- Generator: Adobe Illustrator 23.0.3, SVG Export Plug-In . SVG Version: 6.00 Build 0)  -->
<svg version="1.1" xmlns="http://www.w3.org/2000/svg" xmlns:xlink="http://www.w3.org/1999/xlink" x="0px" y="0px" width="960px"
	 height="4500px" viewBox="0 0 960 4500" style="enable-background:new 0 0 960 4500;" xml:space="preserve">
<style type="text/css">
	.st0{display:none;}
	.st1{fill:#6100FE;}
	.st2{fill:#86ED18;}
</style>
<g id="Ebene_1" class="st0">
	
		<image style="display:inline;overflow:visible;" width="1280" height="6000" xlink:href="../backgrounds_png/pattern-purple-businesstelefonie.png"  transform="matrix(0.75 0 0 0.75 0 0)">
	</image>
</g>
<g id="Ebene_4">
	<path class="st1" d="M780,1456.2c-3.4,0-6.8-0.1-10.1-0.3c-42-2.2-72.4-17.8-90.3-46.5l0,0c-43.8-70.3,9.6-115,83.5-177
		c70.7-59.3,158.7-133.1,208.6-261.2c16.9-43.4,39-77.1,65.6-100.3c24-20.9,51.7-32.7,80.1-34.3c26.5-1.5,53.1,5.8,77.1,21.2
		c23.7,15.2,43.7,37.5,57.9,64.6c19.8,37.8,27.2,82.2,21.3,128.5c-6.8,53-30.2,105.7-69.7,156.5c-51.2,66-127.9,131-210.4,178.4
		c-40.5,23.3-80.3,41.3-118.1,53.4C840.2,1450.5,808.1,1456.2,780,1456.2z M686.4,1405.2c16.4,26.4,44.7,40.8,83.9,42.8
		c121.3,6.2,321-108.5,427.5-245.6c72-92.7,89.8-196,47.6-276.4c-27.8-53.1-76.7-84.3-127.5-81.5c-58.2,3.2-107.4,49.3-138.7,129.6
		c-22.5,57.8-54.7,109.8-98.4,159.1c-37.7,42.5-77.5,75.9-112.6,105.3C694.8,1300.2,646.3,1340.8,686.4,1405.2L686.4,1405.2z"/>
	<path class="st1" d="M-505.8,4806c-25,0-50.9-8.5-78.9-27.8c-21-14.5-36.6-33.6-46.6-56.7c-9.4-21.8-13.8-47.5-13-76.2
		c1.2-43.1,13.7-92.5,37.3-146.9c22.6-52,54.1-105.9,93.6-160.2c39.4-54.2,84.4-105.5,133.7-152.4c51.2-48.8,104.3-90.2,157.9-123.2
		c43.2-26.6,87.5-46.9,131.5-60.4c40.9-12.5,81.7-19.2,121.5-19.8c72.6-1.2,139.7,17.3,194,53.6c72.9,48.7,111.2,123.1,99.9,194.2
		c-6.2,39-27.4,75.8-61.2,106.5c-37.6,34.1-90.3,60.7-156.4,79.2c-199.6,55.8-321,171.8-418.5,265
		C-383.5,4750.4-441.7,4806-505.8,4806z M-580.1,4771.6c44.2,30.6,83.9,34.5,128.7,12.8c41.8-20.2,84.9-61.5,134.9-109.2
		c48.3-46.2,103-98.5,171.3-146.7c79.1-55.9,161-95.2,250.6-120.2c123.7-34.6,198.9-98.2,211.9-179.2c10.8-68-26.1-139.4-96.4-186.3
		c-91.5-61.1-254.7-86.1-438.4,26.8c-218.4,134.3-414.1,403.5-418.7,576.1C-637.8,4702.3-618.9,4744.7-580.1,4771.6L-580.1,4771.6z"
		/>
	<path class="st1" d="M671.5,4288.7c-8.3,0-16.6-0.5-24.8-1.7c-49.2-6.7-89.5-33.2-110.6-72.8h0c-26.6-49.9-20.7-100.6,17.5-150.8
		c34-44.6,86.8-79.4,125.1-100.8c53.5-29.8,83-70,111.4-108.9c39.9-54.6,77.7-106.2,175.6-122.1c63.4-10.3,125.3-2.8,179,21.8
		c50.5,23.1,91.3,60.8,114.8,106c21.2,40.7,27.9,86.1,19.6,131.4c-9.2,49.9-35.7,97.5-78.7,141.7l-0.2,0.2
		c-65.3,57.6-149.9,57.1-224.5,56.6c-66.1-0.4-123.2-0.8-157.9,35.8c-22.4,23.6-50.5,41.8-81.4,52.4
		C715.4,4284.9,693.3,4288.7,671.5,4288.7z M543.2,4210.5c19.9,37.3,58,62.3,104.6,68.6c59,8,122-14.8,164.3-59.4
		c37-39.1,98.6-38.7,163.7-38.3c73.2,0.5,156.1,1,219.1-54.5c79.5-81.7,101.1-180.3,57.7-263.7c-48.8-93.8-163.5-143.4-285.5-123.6
		c-94.7,15.4-131.5,65.7-170.5,119c-29,39.6-58.9,80.6-114,111.2c-37.7,21-89.5,55.1-122.7,98.7
		C523.9,4115.8,518.3,4163.6,543.2,4210.5z"/>
</g>
<g id="Ebene_3">
	<path class="st1" d="M126.1,1955.9c-46.2,0-90.2-10-129.3-29.6c-47.8-23.9-85.8-61.6-107.1-106c-19.4-40.4-24.5-85.1-14.9-129.1
		c10.6-48.5,38-94.3,81.4-136.1l0.2-0.2c65.2-53.9,146.9-50.5,218.9-47.6c63.8,2.6,118.8,4.9,153.6-29.5
		c22.5-22.3,50.4-39,80.6-48.3c28.7-8.9,58.8-11,87.1-6.1c47.3,8.2,85.2,35.4,104.1,74.6c23.8,49.5,16.3,98.6-22.5,146.2
		c-34.5,42.3-86.7,74.4-124.5,93.9c-52.7,27.2-82.6,65.3-111.5,102.2c-40.6,51.8-78.9,100.8-174.1,113
		C153.9,1955,139.9,1955.9,126.1,1955.9z M-38.5,1560.9c-80.3,77.3-104.5,172.9-64.7,255.9c44,91.9,152.6,143.5,270.2,128.4
		c91.9-11.8,129.3-59.5,168.8-110c29.4-37.6,59.8-76.4,114.1-104.4c37.1-19.1,88.4-50.6,122-91.8c36.6-44.9,43.8-91.2,21.5-137.7
		c-17.8-36.9-53.6-62.5-98.3-70.2c-56.6-9.8-118.2,10.2-160.7,52.3c-37.2,36.8-96.6,34.4-159.6,31.8
		C104.3,1512.4,24.4,1509.1-38.5,1560.9z"/>
	<path class="st1" d="M144.8,3793.3c-27.1,0-53.8-3.5-79.4-10.5c-55.6-15.3-103.7-47.1-135.3-89.5c-28.4-38.1-42.9-83.6-41.9-131.3
		c1.1-52.6,20.3-105.9,57.1-158.3l0.2-0.2c57.3-69.9,144.1-83.4,220.7-95.4c67.9-10.6,126.5-19.7,156-63
		c19-27.9,44.8-51.2,74.6-67.3c28.4-15.3,59.6-23.8,90.4-24.6c51.5-1.4,97.2,19.1,125.4,56.1l0,0c35.5,46.7,37.9,99.6,7.1,157.3
		c-27.4,51.4-75.7,95.8-111.5,124.1c-49.9,39.5-73.4,85.6-96.1,130.3c-31.8,62.6-61.9,121.8-159.6,154.4
		C216.6,3787.3,180.3,3793.3,144.8,3793.3z M-48.2,3408.3c-68,97-73.7,201.7-15.2,280.2c65.7,88.1,191.6,119.9,313.4,79.2
		c94.6-31.6,123.9-89.3,155-150.4c23.1-45.4,47-92.4,98.3-132.9c35.1-27.8,82.6-71.4,109.4-121.6c29.2-54.7,27-104.7-6.4-148.7
		c-26.6-35-69.9-54.3-118.8-53c-61.9,1.6-122.7,35.5-158.7,88.4c-31.4,46.2-94.6,56-161.4,66.4C92.3,3327.6,7.2,3340.9-48.2,3408.3z
		"/>
</g>
<g id="Ebene_2">
	<path class="st2" d="M562.8,604.3c-12.3,0-23.4-1.3-33.2-3.8c-44-11.7-69-42.2-82.1-65.8c-16.1-28.8-23.5-63-20.4-93.8l0.1-0.5
		c0.6-2.5,1.2-5,1.8-7.5c10.2-43.3,17.6-74.6,75.9-122.5v0c44.9-36.9,120.3-52.9,183.5-39c36.8,8.1,86.6,30,114.3,87.8
		c24.5,47.4,18.6,96-17.1,140.4c-27.7,34.4-73.4,65.4-125.6,85C625.5,597.5,591.3,604.3,562.8,604.3z M435,442
		c-5,50.7,21.6,130.9,96.7,150.8c62.6,16.6,189.3-25.5,247.7-98.3c23.4-29.1,45.2-75.6,16.2-131.7l-0.1-0.1
		c-26.4-54.9-73.8-75.7-108.9-83.5c-61-13.5-133.6,1.9-176.7,37.3l0,0c-56.2,46.2-62.9,74.9-73.2,118.2
		C436.2,437.1,435.6,439.5,435,442z"/>
</g>
</svg>
