<?xml version="1.0" encoding="utf-8"?>
<!-- Generator: Adobe Illustrator 23.0.3, SVG Export Plug-In . SVG Version: 6.00 Build 0)  -->
<svg version="1.1" xmlns="http://www.w3.org/2000/svg" xmlns:xlink="http://www.w3.org/1999/xlink" x="0px" y="0px" width="960px"
	 height="4500px" viewBox="0 0 960 4500" style="enable-background:new 0 0 960 4500;" xml:space="preserve">
<style type="text/css">
	.st0{display:none;}
	.st1{fill:#86ED18;}
</style>
<g id="Ebene_1" class="st0">
	
		<image style="display:inline;overflow:visible;" width="1280" height="6000" xlink:href="../backgrounds_png/pattern-green-karriere.png"  transform="matrix(0.75 0 0 0.75 0 0)">
	</image>
</g>
<g id="Ebene_3">
	<path class="st1" d="M-24.8,1473.4c-21.8,0-43.2-2.7-63.9-8c-47.6-12.4-89-38.9-116.7-74.8c-25.2-32.6-38.4-71.8-38.2-113.3
		c0.2-45.7,16.1-92.2,47.2-138.2l0.1-0.2c48.3-61,122.5-73.7,188-84.8c58.2-9.9,108.5-18.5,133.4-56.5c16-24.4,37.8-44.7,63.2-58.9
		c24.1-13.5,50.8-21.2,77.2-22.2c44-1.7,83.3,15.4,107.8,47c30.8,39.8,33.5,85.4,7.8,135.5c-22.9,44.7-63.8,83.7-94.1,108.5
		c-42.5,34.8-62.1,75-81.1,114c-26.6,54.5-51.7,105.9-135,135.2C39,1467.8,6.7,1473.4-24.8,1473.4z M-191.6,1142.6
		c-57.8,85.5-61.2,176.8-9.1,244.3c57.6,74.7,165.9,100.5,269.4,64.1c81-28.4,105.6-78.8,131.6-132.1c19.3-39.5,39.2-80.4,82.7-116
		c29.9-24.5,70.2-62.8,92.6-106.6c24.5-47.8,22.1-91.3-7.2-129.1c-23.3-30.1-60.7-46.3-102.8-44.7c-53.2,2.1-105.2,32.1-135.5,78.4
		c-26.3,40.1-80.3,49.4-137.4,59.1C-71.7,1071-144.7,1083.5-191.6,1142.6z"/>
	<path class="st1" d="M-23.2,3541.1c-26.3,0-52.2-3-77.3-9.2c-61.5-15-115.4-48.4-151.8-94.1c-33-41.5-50.8-91.7-51.4-145.1
		c-0.7-58.9,18.9-119.1,58.1-179l0.1-0.2c61-79.5,156.5-97.3,240.7-113c75.2-14,140.2-26.1,171.9-76c20.1-31.7,47.8-58.3,80.2-77.1
		c30.8-17.9,65-28.3,98.9-30.1c56.6-3.1,107.4,18.2,139.5,58.3l0,0c40.4,50.6,44.6,109.1,12.6,174
		c-28.7,58.1-80.7,109.1-119.3,141.8c-54.4,45.9-79,98.4-102.8,149.1c-33.2,70.7-64.6,137.5-171.3,176.8
		C62.4,3533.2,19.1,3541.1-23.2,3541.1z M-240.6,3117.2c-73.2,111.9-75.8,230.4-7,316.9c76.2,95.7,216.9,127,350.3,77.8
		c104.4-38.5,135.3-104.2,167.9-173.8c24.1-51.3,49-104.4,104.4-151.2c38.2-32.3,89.6-82.7,117.8-139.8
		c30.9-62.6,26.9-119-11.9-167.6c-30.8-38.6-79.8-59-134.4-56.1c-69,3.7-135.8,43.8-174.3,104.4c-33.1,52.1-102.4,65-175.8,78.7
		C-86.8,3022-181,3039.6-240.6,3117.2z"/>
</g>
<g id="Ebene_2">
	<path class="st1" d="M406.4,546.6c-2.8,0-5.6-0.1-8.4-0.2c-47.6-2.5-81.3-25.9-97.2-67.8c-20.6-49.6-6.4-92.9,9.1-120.5
		c26.6-47.3,78.8-85.6,127-93v0c62.6-9.7,86.3,3.2,119.1,21.1c1.9,1,3.8,2,5.7,3.1l0.3,0.2c21,15.3,38.2,39,47.2,65.2
		c7.4,21.4,12.5,54-4.8,88c-12.7,25-43.7,52.1-82.9,72.6C483.1,535.4,441.7,546.6,406.4,546.6z M474.9,267.9
		c-10.7,0-22.9,1-37.2,3.2c-46.5,7.2-96.9,44.2-122.7,90c-14.8,26.4-28.4,67.9-8.7,115.3c19,49.9,60.5,62.3,92,64
		c2.8,0.1,5.6,0.2,8.4,0.2c76.9,0,168.5-53.7,192.3-100.6c29.7-58.4-5.8-120.2-40.5-145.5c-1.9-1-3.7-2-5.5-3
		C528.7,278.3,509.6,267.9,474.9,267.9z"/>
	<path class="st1" d="M826.2,1087.4c-3.3,0-6.5-0.1-9.6-0.2c-54.7-2.9-93.2-29.8-111.5-77.7c-23.6-56.9-7.4-106.7,10.4-138.3
		c30.6-54.4,90.6-98.3,145.9-106.9l0,0c71.9-11.1,99.1,3.7,136.8,24.2c2.2,1.2,4.3,2.4,6.6,3.6l0.3,0.2
		c24.1,17.5,43.9,44.8,54.2,74.9c8.5,24.5,14.4,61.9-5.5,101c-14.6,28.7-50.2,59.9-95.3,83.4
		C914.4,1074.5,866.8,1087.4,826.2,1087.4z M861.8,767.2l0.5,3c-53.6,8.3-111.8,51-141.6,103.9c-17.1,30.5-32.8,78.4-10.1,133.2
		c22,57.7,69.9,72,106.3,74c3.2,0.2,6.4,0.3,9.6,0.3c88.7,0,194.3-61.9,221.9-116.1c34.3-67.4-6.7-138.9-46.8-168.2
		c-2.2-1.2-4.3-2.3-6.4-3.5c-36.7-19.9-63.1-34.3-133-23.5L861.8,767.2z"/>
</g>
</svg>
