<?xml version="1.0" encoding="utf-8"?>
<!-- Generator: Adobe Illustrator 23.0.3, SVG Export Plug-In . SVG Version: 6.00 Build 0)  -->
<svg version="1.1" xmlns="http://www.w3.org/2000/svg" xmlns:xlink="http://www.w3.org/1999/xlink" x="0px" y="0px" width="960px"
	 height="4500px" viewBox="0 0 960 4500" style="enable-background:new 0 0 960 4500;" xml:space="preserve">
<style type="text/css">
	.st0{display:none;}
	.st1{fill:none;stroke:#6100FE;stroke-width:6;stroke-miterlimit:10;}
	.st2{fill:none;stroke:#6100FE;stroke-width:6;}
</style>
<g id="Ebene_1" class="st0">
	
		<image style="display:inline;overflow:visible;" width="1280" height="6000" xlink:href="../backgrounds_png/pattern-purple-testen.png"  transform="matrix(0.75 0 0 0.75 0 0)">
	</image>
</g>
<g id="Ebene_2">
	<path class="st1" d="M558.2,1510.1c48.8,86.4,185.3,87.5,261.4,1.5c70.7-79.8,249.2,5.1,360.5-99.8
		c176.9-194.1,1.5-415.5-229.8-370.2c-156.8,30.7-144.1,156.3-264.8,228.9C606.9,1317.8,500.2,1407.4,558.2,1510.1L558.2,1510.1z"/>
	<path class="st1" d="M141.2,30.3c84.4-9.1,112,11,156.9,37.9c48,38.4,85.6,122.8,44.8,194.9c-54.3,95.9-329.5,200.3-386,29.2
		C-91.4,159.4,41.5,41.1,141.2,30.3L141.2,30.3z"/>
	<path class="st1" d="M65,1287.4c106.3-11.5,141,13.8,197.4,47.6c60.5,48.3,107.8,154.5,56.4,245.3
		c-68.4,120.7-414.7,252.1-485.9,36.8C-227.8,1449.9-60.5,1301,65,1287.4L65,1287.4z"/>
	<path class="st1" d="M162.9,2145.8c94.4-10.2,125.2,12.3,175.3,42.3c53.7,42.9,95.7,137.2,50,217.8
		C327.5,2513,20,2629.7-43.2,2438.5C-97.1,2290,51.4,2157.8,162.9,2145.8L162.9,2145.8z"/>
</g>
<g id="Ebene_3">
	<path class="st2" d="M1034,2628.5c-135.8-18-18.8,200.1-439.4,361.8c-492.6,189.4-304.3,550,170.2,345
		C1218.1,3139.4,1195,2649.8,1034,2628.5z"/>
</g>
</svg>
