<?xml version="1.0" encoding="utf-8"?>
<!-- Generator: Adobe Illustrator 23.0.3, SVG Export Plug-In . SVG Version: 6.00 Build 0)  -->
<svg version="1.1" xmlns="http://www.w3.org/2000/svg" xmlns:xlink="http://www.w3.org/1999/xlink" x="0px" y="0px" width="960px"
	 height="4500px" viewBox="0 0 960 4500" style="enable-background:new 0 0 960 4500;" xml:space="preserve">
<style type="text/css">
	.st0{display:none;}
	.st1{fill:#86ED18;}
</style>
<g id="Ebene_1" class="st0">
	
		<image style="display:inline;overflow:visible;" width="1280" height="6000" xlink:href="../backgrounds_png/pattern-green-ueberuns.png"  transform="matrix(0.75 0 0 0.75 0 0)">
	</image>
</g>
<g id="Ebene_4">
	<path class="st1" d="M874.9,1124.4c-0.3,0-0.6,0-0.8,0c-49.1-0.2-85.4-16.7-107.8-49.2c-54.9-79.3,5.2-134.8,88.4-211.6
		c80.4-74.2,180.4-166.5,232.3-321.1c17.4-51.9,41.5-92.8,71.5-121.5c26.9-25.7,58.6-41.2,91.7-44.6c30.8-3.2,62.4,3.9,91.3,20.5
		c28.6,16.4,53.3,41.5,71.4,72.4c25.4,43.2,36.5,95,32.1,149.6c-5,62.7-29.6,126-73.2,187.9c-56.7,80.6-143.5,161.6-238.1,222.2
		c-46.4,29.7-92.3,53.2-136.2,69.6C951.8,1115.7,910.6,1124.4,874.9,1124.4z M771.2,1071.8c21.3,30.7,55.9,46.4,102.9,46.6
		c0.3,0,0.5,0,0.8,0c144.1,0,373.7-146.9,491.9-315c80.2-114.1,95.5-237.9,40.8-331.1c-36.2-61.7-96.4-96.2-156.9-89.9
		c-69.3,7.2-125.4,64.7-158.1,162.1c-23.3,69.3-58.3,132.5-107,193c-42,52.2-87.1,93.9-126.9,130.6c-41.2,38-76.7,70.8-94.7,103
		C744.7,1005.7,746.9,1036.7,771.2,1071.8z"/>
	<path class="st1" d="M791.8,2324.4c-21.3,0-42.3-2.6-62.5-7.8c-37-9.5-69.9-27.5-95.1-52c-25.4-24.7-41.9-55-47.7-87.5
		c-6.2-34.9,0.3-71.9,18.8-107c20.6-39.1,55.5-75.7,103.6-108.8c143.4-98.6,208.7-228.2,261.3-332.4
		c54.3-107.7,93.5-185.5,190.8-152.6c39.8,13.5,67.3,45.8,81.9,96.1c10.7,36.7,13.9,81.8,9.8,133.9c-4,49.9-14.6,103.7-31.5,160.1
		c-34.4,114.7-92,227.4-158,309.2c-50.8,62.8-108.4,106.6-171.2,130.1C858.8,2318.1,824.9,2324.4,791.8,2324.4z M1118.9,1474.6
		c-24.5,0-45.5,9.7-65.3,29.6c-27.8,27.9-51,74-77.9,127.4c-26,51.6-55.5,110-96.7,168.4c-47.8,67.7-102.3,122.1-166.5,166.2
		c-90.3,62.1-132.9,136.6-120,209.8c11.3,64,64.3,115.6,138.3,134.7c111.7,28.8,234.2-23.1,327.8-138.9
		c138-170.8,221.4-450.1,178.6-597.8c-14-48.3-40.3-79.2-78.1-92C1144.6,1477.1,1131.3,1474.6,1118.9,1474.6z"/>
	<path class="st1" d="M-320.7,3595.3c-16.9,0-34.3-6.3-52.9-20.7c-26.4-20.5-38.7-51.9-36.6-93.3c6.2-122.7,141.8-311.6,290.1-404.1
		c54.2-33.8,108.6-51.7,161.6-53c46.2-1.1,89.3,10.6,124.6,34c25.2,16.7,45.2,38.7,57.7,63.6c12.7,25.1,17.2,52.1,13.1,77.9
		c-4.4,27.8-18.9,53.8-41.9,75.3c-25.6,23.9-61.1,42.3-105.7,54.6C-42.9,3366.1-125,3445.9-191,3510
		C-239.8,3557.3-278.9,3595.3-320.7,3595.3z M-369.9,3569.9c60.4,46.8,105.8,2.7,174.7-64.2c32.7-31.8,69.8-67.8,115.7-100.7
		c53.2-38.2,107.9-64.7,167.3-81.1c83.1-22.9,134-67.3,143.2-125c8-50.4-18.1-102.4-68.2-135.6c-75.7-50.2-180.3-43-279.7,19.1
		c-146.9,91.7-281.1,278.3-287.2,399.4C-406.2,3521-394.6,3550.7-369.9,3569.9z"/>
</g>
<g id="Ebene_3">
	<path class="st1" d="M217,2066.5c-29.1,0-57.8-3.6-85.5-10.8c-63.6-16.5-119-52-156.1-100c-33.6-43.6-51.3-95.9-51.1-151.3
		c0.2-61.1,21.5-123.3,63.1-184.8l0.1-0.2c64.6-81.5,164-98.5,251.6-113.5c75.1-12.8,146-24.9,179.7-76.3
		c21.3-32.5,50.5-59.8,84.4-78.7c32.2-18,67.9-28.3,103.1-29.7c28.5-1.1,55.4,3.5,79.7,13.7c25.7,10.8,47.2,27.3,64,49
		c41.1,53.1,44.6,113.9,10.4,180.8c-30.7,59.8-85.5,112-126.1,145.3c-57.2,46.8-83.6,100.9-109.1,153.3
		c-35.6,72.9-69.2,141.7-180.5,180.8C302.4,2059,259.2,2066.5,217,2066.5z M-7.6,1623c-77.8,115.1-82.4,238.1-12.2,329.1
		c77.6,100.6,223.3,135.3,362.7,86.4c109.1-38.3,142.1-106.1,177.1-177.8c25.8-52.9,52.5-107.6,110.7-155.3
		c40.1-32.9,94.3-84.5,124.5-143.4c33.1-64.6,29.8-123.3-9.8-174.4c-31.4-40.6-82-62.6-138.8-60.4C535,1330,465,1370.6,424,1433
		c-35.1,53.5-107.3,65.8-183.7,78.9C153.7,1526.6,55.6,1543.4-7.6,1623z"/>
	<path class="st1" d="M661.3,3963.5c-8,0-16-0.5-23.9-1.5c-49.8-6.5-90.7-33.3-112.1-73.5c-27-50.7-21.2-102.4,17.2-153.8
		c34.4-45.9,87.9-82,126.8-104.1c54.6-31.1,84.5-72.7,113.5-113c40.4-56.2,78.5-109.3,177.8-126.2c64-10.9,126.6-3.8,181.1,20.7
		c51.2,23,92.7,60.9,117,106.5c22.1,41.5,29.4,88.1,21.3,134.7c-9,51.4-35.7,100.6-79.6,146.4l-0.2,0.2
		c-66,59.3-152,59.4-227.9,59.4c-67.6,0-126,0.1-161.5,38.2c-22.6,24.3-51.1,43.1-82.3,54.2C706.6,3959.6,683.8,3963.5,661.3,3963.5
		z M530.6,3885.7c20.5,38.5,59.7,64.1,107.6,70.3c60.5,7.9,125-16.1,168.2-62.5c37.3-40,99.8-40.1,165.9-40.1
		c74.8,0,159.5-0.1,223.8-57.8c81.7-85.4,103.1-187.8,57.2-274.1c-50.7-95.4-167.9-145.3-291.8-124.2
		c-96.9,16.5-134.3,68.7-173.9,123.8c-29.3,40.8-59.6,83-115.4,114.7c-38.4,21.9-91.2,57.4-125,102.5
		C510.4,3787.7,504.8,3837.3,530.6,3885.7L530.6,3885.7z"/>
</g>
<g id="Ebene_2">
	<path class="st1" d="M394.4,623.5c-35.5,0-57.2-10.6-84.2-23.7c-2.2-1.1-4.4-2.1-6.6-3.2l-0.4-0.2c-24.6-16.2-45.3-42.3-56.9-71.5
		c-9.5-23.8-17-60.6,0.9-100c13.1-29,46.9-61.4,90.4-86.7c46-26.8,96.5-41.9,138.6-41.6c54.1,0.4,93.4,25.2,113.7,71.8
		c25.9,55.2,12.1,105-4.1,137.1c-27.8,55.1-85.1,101.2-139.3,112.1v0C425.8,621.7,408.9,623.5,394.4,623.5z M306.3,591.3
		c2.2,1.1,4.4,2.1,6.5,3.1c37.1,18,63.9,31.1,132.4,17.3l0,0c52.6-10.6,108.2-55.3,135.2-108.9c15.6-30.9,28.9-78.9,4-132
		c-24.3-55.9-72.3-68-108.2-68.3c-89.6-0.7-197.8,68-223.5,124.7C221.8,495.4,265.4,564.1,306.3,591.3z"/>
	<path class="st1" d="M-67.1,4135.3c-4.3,0-8.5-0.1-12.7-0.3c-82.2-3.8-140.4-43.8-168.3-115.7c-36.1-85.5-12.2-160.5,14.3-208.3
		c45.6-82.3,135.6-149.1,218.8-162.5v0c108.3-17.4,149.5,4.6,206.5,35.2c3.3,1.8,6.6,3.5,10,5.3l0.3,0.2
		c35.9,25.8,66.6,67.7,82.3,112.1c12.9,36.8,22.2,93-7.2,151.8c-21.7,43.3-75.1,90.6-142.9,126.6C67,4115.4-5.5,4135.3-67.1,4135.3z
		 M53.1,3648.4c-19.3,0-41.3,1.9-67.2,6c-81.6,13.1-169.8,78.7-214.5,159.5c-25.8,46.7-49.3,119.8-14,203.2
		c34.2,87.9,107.5,109.4,163.1,111.9c4.2,0.2,8.5,0.3,12.8,0.3c135.3,0,296.6-95.8,338.2-178.8c51.7-103.4-11.5-212-73-256.3
		c-3.3-1.8-6.6-3.5-9.8-5.2C146.3,3666.3,112.9,3648.4,53.1,3648.4z"/>
</g>
</svg>
