<?xml version="1.0" encoding="utf-8"?>
<!-- Generator: Adobe Illustrator 23.0.3, SVG Export Plug-In . SVG Version: 6.00 Build 0)  -->
<svg version="1.1" xmlns="http://www.w3.org/2000/svg" xmlns:xlink="http://www.w3.org/1999/xlink" x="0px" y="0px" width="964.1px"
	 height="4500px" viewBox="0 0 964.1 4500" style="enable-background:new 0 0 964.1 4500;" xml:space="preserve">
<style type="text/css">
	.st0{fill:#86ED18;}
</style>
<g id="Ebene_1">
	
		<image style="overflow:visible;" width="1280" height="6000" xlink:href="../backgrounds_png/pattern-green-casestudy.png"  transform="matrix(0.75 0 0 0.75 0 0)">
	</image>
</g>
<g id="Ebene_3">
	<path class="st0" d="M-85,4141.3c-10,0-19.7-0.5-29.1-1.4c-84.4-8.3-142.3-52.6-167.2-128.1c-32.7-90-4-166,25.9-213.9
		c51.3-82.4,147.6-146.4,234.1-155.8l0.3,3l-0.3-3c112.5-12.2,153.8,12.7,210.9,47.2c3.3,2,6.6,4,10,6l0.3,0.2
		c35.6,28.4,65,73.3,78.8,119.9c11.4,38.6,17.9,97-15.5,156c-24.6,43.4-82.2,89.4-153.9,122.9C44.1,4124.7-25.1,4141.3-85,4141.3z
		 M31.4,3645c-15.5,0-32.8,1-52.2,3.1c-84.8,9.2-179.2,72.1-229.7,153c-29.1,46.7-57.2,120.9-25.3,208.7
		c30.6,92.4,105.1,118.5,162.2,124.1c9.6,0.9,19.3,1.4,29.2,1.4c136.3,0,296.7-86.5,342.2-166.8c58.8-103.8-0.6-219.2-61.6-268.1
		c-3.3-2-6.6-4-9.9-5.9C140.1,3666.6,104.4,3645,31.4,3645z"/>
	<path class="st0" d="M27.6,2327.2c-46.3,0-90.4-10.2-129.3-30.1c-46.7-23.9-83.7-61.1-104.2-104.9c-18.7-39.8-23.4-83.6-13.6-126.7
		c10.8-47.5,38-92.2,81.1-132.9l0.2-0.1c64.4-52.3,144.6-48.3,215.4-44.8c63,3.1,117.4,5.8,152.2-28c22.3-21.7,49.7-37.8,79.4-46.7
		c28.2-8.5,57.8-10.3,85.4-5.3c46.2,8.4,83.1,35.3,101.3,73.8l0,0c22.9,48.6,15.1,96.6-23.2,142.8c-34.2,41.2-85.8,72.4-123.1,91.2
		c-52.4,26.4-82.2,63.8-111,100c-40.3,50.6-78.3,98.3-171.8,109.5C53.3,2326.4,40.4,2327.2,27.6,2327.2z M-134.4,1937
		c-80,75.7-104.7,170.2-66.1,252.7c42.8,91.3,149.7,143.2,266.1,129.3c91-10.9,128.3-57.7,167.8-107.3
		c29.2-36.7,59.4-74.6,113-101.6c36.8-18.6,87.7-49.2,121.2-89.7c36.7-44.2,44.2-90.1,22.4-136.4c-17.3-36.8-52.6-62.4-96.9-70.5
		c-56-10.2-117.1,9.2-159.5,50.4c-36.7,35.7-95,32.8-156.7,29.7C7.1,1890.1-71.8,1886.2-134.4,1937z"/>
	<path class="st0" d="M807,1674.9c-60.6,0-110.5-14.1-144.5-40.9c-33.7-26.6-48.7-63.7-42.2-104.7c6.2-38.9,31.3-79,72.6-116.1
		c46.4-41.5,110.6-77.6,191-107.2c228.7-84.2,282.3-191.2,314.3-255.1c21.5-42.9,35.7-71.2,85.7-63.9c47.4,7,82.6,58.3,92.1,133.9
		c10.4,83.4-11.6,179.8-60.3,264.3c-28.2,49-64.9,93.4-108.9,132c-49,42.9-107,78.5-172.5,105.7C952.6,1656.9,874,1674.9,807,1674.9
		z M1268.8,991.9c-34.4,0-46,23.2-65.3,61.7c-16.2,32.3-38.3,76.5-84.8,122.1c-55,54-131.1,98.4-232.8,135.9
		c-149.7,55.1-246.9,136.9-259.8,218.6c-6.1,38.7,8.1,73.9,40,99c32.9,25.9,81.6,39.6,140.8,39.6c66.3,0,144.1-17.8,225-51.4
		c123-51.1,219.3-132.4,278.5-235.2c48.1-83.4,69.8-178.4,59.5-260.6c-9.1-72.8-42.4-122.2-87-128.7
		C1277.9,992.3,1273.2,991.9,1268.8,991.9z"/>
	<path class="st0" d="M486.4,3328.9c-60.6,0-110.5-14.1-144.5-40.9c-33.7-26.6-48.7-63.7-42.2-104.7c6.2-38.9,31.3-79,72.6-116.1
		c46.4-41.5,110.6-77.6,191-107.2c228.7-84.2,282.3-191.2,314.3-255.1c21.5-42.9,35.7-71.2,85.7-63.8c47.4,7,82.6,58.3,92.1,133.9
		c10.4,83.4-11.6,179.8-60.3,264.3c-28.2,49-64.9,93.4-108.9,132c-49,42.9-107,78.5-172.5,105.7C632,3311,553.5,3328.9,486.4,3328.9
		z M948.2,2646c-34.4,0-46,23.2-65.3,61.7c-16.2,32.3-38.3,76.5-84.8,122.1c-55,54-131.1,98.4-232.8,135.9
		c-149.7,55.1-246.9,136.9-259.8,218.6c-6.1,38.7,8.1,73.9,40,99c32.9,25.9,81.6,39.6,140.8,39.6c66.3,0,144.1-17.8,225-51.4
		c123-51.1,219.3-132.4,278.5-235.2c48.1-83.4,69.8-178.4,59.5-260.6c-9.1-72.8-42.4-122.2-87-128.7
		C957.3,2646.3,952.6,2646,948.2,2646z"/>
	<path class="st0" d="M656.2,3965.8c-7.1,0-14.1-0.4-21-1.2c-50.1-5.7-91.6-32-113.8-72l0,0c-28-50.5-23-102.5,14.9-154.8
		c33.8-46.7,87-83.7,125.8-106.6c54.4-32.1,83.8-74.4,112.2-115.3c39.7-57.1,77.1-111,176.6-129.6c64.1-12,127.2-5.8,182.3,18
		c51.8,22.3,94.1,59.7,119.2,105.2c22.8,41.4,30.9,88,23.5,135c-8.2,51.7-34.3,101.7-77.6,148.4l-0.2,0.2
		c-65.4,60.7-151.8,62.1-228,63.3c-68,1.1-126.6,2-161.7,40.9c-22.4,24.8-50.7,44.1-81.9,55.7
		C703.6,3961.4,679.7,3965.8,656.2,3965.8z M526.6,3889.7c21.2,38.3,61,63.5,109.2,69c60.9,7,125.3-18.1,168-65.5
		c36.8-40.8,99.6-41.8,166.1-42.9c75.1-1.2,160.2-2.6,224-61.6c80.7-87.1,100.6-190.4,53.2-276.3c-52.4-95.1-171-143.4-295.1-120.2
		c-97.1,18.1-133.9,71.1-172.8,127.2c-28.8,41.4-58.5,84.3-114.1,117.1c-38.2,22.6-90.8,59.1-123.9,104.9
		C504.7,3791.5,499.8,3841.4,526.6,3889.7L526.6,3889.7z"/>
</g>
<g id="Ebene_2">
	<path class="st0" d="M99.7,1268.3c-24.2,0-47.9-3-70.9-8.9c-52.8-13.7-98.8-43.2-129.5-83c-27.9-36.2-42.6-79.6-42.4-125.6
		c0.2-50.7,17.8-102.3,52.3-153.3l0.1-0.2C-37,829.5,45.3,815.5,118,803c64.8-11.1,120.7-20.6,148.5-62.9c17.7-27,42-49.6,70.1-65.4
		c26.7-15,56.3-23.5,85.6-24.7c48.8-1.9,92.4,17.1,119.5,52.1l0,0c34.2,44.1,37.1,94.7,8.6,150.2c-25.4,49.6-70.9,92.9-104.5,120.5
		c-47.3,38.7-69.1,83.5-90.2,126.7c-29.5,60.4-57.4,117.5-149.8,150C170.5,1262.1,134.7,1268.3,99.7,1268.3z M-85.9,900.8
		c-64.3,95.1-68.1,196.7-10.1,271.8c64.1,83.1,184.6,111.8,299.7,71.3c90.1-31.7,117.4-87.7,146.4-147
		c21.4-43.9,43.5-89.2,91.8-128.7c33.2-27.2,78-69.9,103-118.6c27.3-53.3,24.6-101.7-8-143.8l0,0c-25.9-33.5-67.7-51.6-114.5-49.8
		c-59.2,2.3-117.1,35.8-150.9,87.3c-29.2,44.5-89.1,54.7-152.5,65.5C47.4,821.2-33.7,835-85.9,900.8z"/>
</g>
</svg>
