<svg version="1.1" xmlns="http://www.w3.org/2000/svg" xmlns:xlink="http://www.w3.org/1999/xlink" x="0px" y="0px" width="1280"
	 height="6000" viewBox="0 0 1280 6000" style="enable-background:new 0 0 1280 6000;" xml:space="preserve">
<style type="text/css">
	.st0{fill:#2DE9CD;}
	.st1{fill:#86ED18;}
	.st2{fill:#6100FE;}
</style>
<g id="Ebene_1">
	
		<image style="display:none;overflow:visible;" width="1280" height="6000" xlink:href="../backgrounds_png/pattern-allcolors-index.png"  transform="matrix(1 0 0 1 1 1)">
	</image>
</g>
<g id="Ebene_3">
	<path class="st0" d="M328.4,1987.9c-44.6,0-88.5-6.2-130.6-18.7c-43.2-12.8-83.3-31.8-119.2-56.5c-35.7-24.6-66.4-54.1-91.3-87.8
		c-45.7-62.2-69.2-135.7-67.9-212.7c0.7-40.9,8.4-82.6,22.9-123.9c15.3-43.6,38.2-87.1,68.1-129.2l0.2-0.2
		c90.4-108.9,226.1-128.9,345.9-146.6c102.6-15.1,199.5-29.4,246.9-98.2c30-43.6,70.6-79.7,117.2-104.5
		c44.4-23.6,93.2-36.4,141.1-37.2c38.8-0.6,75.2,6.5,108,21.1c34.6,15.5,63.4,38.5,85.6,68.6v0c54.3,73.5,57.2,156.3,8.5,246.2
		c-43.6,80.4-119.7,149.8-176,193.8c-79.6,62.2-115.6,137.8-150.5,211c-24.5,51.5-47.7,100.1-84.7,143.4
		c-41.9,49-94.4,82.6-165.2,105.7C434.6,1979.2,381,1987.9,328.4,1987.9z M17,1363.8c-110.3,155.5-119,326.1-23.2,456.4
		c75.7,102.8,200.1,159.5,334.8,159.5c51.4,0,104.2-8.2,156.5-25.3c152.1-49.6,197.3-144.5,245.2-244.9
		c35.3-74,71.7-150.5,152.8-213.9c55.7-43.5,131-112,173.9-191.3c47-86.9,44.4-166.8-7.9-237.6v0c-41.5-56.2-109.7-87.7-187.1-86.5
		c-97.7,1.6-194.3,54.6-251.9,138.2c-22.6,32.8-56.1,55.7-105.5,72c-43.5,14.4-93.7,21.8-146.9,29.6
		C239.4,1237.5,105.4,1257.3,17,1363.8z"/>
	<path class="st0" d="M1291,1083.7c-49.1,0-88.5-16.1-117.4-48c-39.7-43.8-48.7-88-28.4-139.1c18.5-46.6,59.8-96.2,107.7-153.7
		c92.5-111.2,207.7-249.6,248.9-461.4c13.9-71.1,38.3-128.9,72.6-171.8c30.8-38.4,69.7-64.2,112.5-74.4c39.9-9.5,82.5-5.7,123.2,11
		c40.4,16.6,77.1,45.1,106.3,82.6c40.8,52.3,64.3,118.3,68.1,190.7c4.3,83.1-17,170.3-63.4,259.2c-30.9,59.1-71.1,118.7-119.6,177.1
		c-46.7,56.3-98.6,108.6-154.1,155.6c-55.8,47.1-111.8,85.7-166.6,114.9c-57.3,30.5-110.2,49.1-157.3,55.1
		C1312.3,1083,1301.5,1083.7,1291,1083.7z M1179.5,1030.4c33.2,36.6,81.3,51.1,143.1,43.2c189.1-24.3,465.5-257.2,591.5-498.5
		c85.4-163.5,84-328.5-3.9-441.3c-58.2-74.7-143-109.4-221.4-90.7c-89.6,21.4-153.2,106.7-179.2,240
		c-18.5,95-53.4,183.8-106.8,271.7c-46,75.8-98,138.2-143.8,193.3c-47.4,57-88.3,106.2-106.4,151.6
		C1133.3,948.3,1141.6,988.6,1179.5,1030.4L1179.5,1030.4z"/>
</g>
<g id="Ebene_4">
	<path class="st0" d="M1089.8,2323.6c-26.1,0-51.9-3-76.9-9.1c-48.6-11.8-91.9-34.6-125.3-66.2c-33.7-31.8-55.9-71.1-64-113.5
		c-8.7-45.5-0.9-94,22.6-140.3c26.2-51.6,71.1-100.1,133.4-144.3c185.6-131.6,268.5-302.3,335.2-439.5
		c34.5-70.9,64.2-132.1,100.9-170.1c40.3-41.7,86.6-52.2,145.7-33.1c26.6,8.6,49.5,24,68,45.7c17.5,20.5,31.3,46.9,40.9,78.4
		c14.6,47.8,19.8,106.7,15.3,174.9c-4.3,65.3-17.1,135.9-38,209.9c-20.9,73.8-48.7,146.3-82.5,215.6
		c-35.1,71.9-74.9,136.5-118.2,191.7c-33.4,42.6-69.9,79.3-108.5,108.9c-35.9,27.6-73.9,49.3-112.9,64.5
		C1180.5,2314.7,1134.6,2323.6,1089.8,2323.6z M1507.9,1206.3c-32.8,0-60.6,13.1-86.6,40c-35.8,37-65.3,97.7-99.4,168
		c-33,67.9-70.4,144.9-123.2,222c-61.2,89.4-131.4,161.5-214.5,220.5c-116.8,82.9-171.1,181.1-152.8,276.5
		c16,83.4,86.3,149.9,183.4,173.4c146.6,35.5,305.7-34.8,425.8-187.9l3.1,2.5l-3.1-2.5c177.1-225.9,280.8-592.7,222-784.9
		c-19.2-62.8-54.1-102.8-103.8-118.8C1540.4,1209.3,1523.6,1206.3,1507.9,1206.3z"/>
</g>
<g id="Ebene_2">
	<path class="st1" d="M590.4,590.9c-53.1,0-108.2-18.7-142.5-50.1l0,0c-54.4-49.7-60-80.6-67.8-123.3c-0.4-2.4-0.9-4.9-1.4-7.4
		l-0.1-0.5c-1.5-30.2,7.5-63.2,24.7-90.5c14-22.3,39.9-50.8,83.4-60c31.9-6.7,79.2,1.6,126.4,22.1c49.9,21.7,93,54.3,118.2,89.3
		c32.5,45.1,35.8,92.7,9.6,137.8c-30,55-79.6,73.8-116,79.8C613.7,590,602.1,590.9,590.4,590.9z M386.6,408.9
		c0.4,2.4,0.9,4.8,1.3,7.2c7.8,42.7,12.9,71,65.3,118.9c40.2,36.7,110.3,55.3,170.3,45.3c34.6-5.8,81.8-23.6,110.3-75.8l0.1-0.1
		c31.1-53.2,12.2-99.6-9.1-129.1c-53.3-73.9-174.6-121.3-236.5-108.3C414.3,282.5,384.3,359.2,386.6,408.9z"/>
</g>
<g id="Ebene_5">
	<path class="st1" d="M273.9,3447.8c-16.2,0-32.1-0.8-47.5-2.3C91.9,3432.3-0.2,3361.7-40,3241.5c-21.5-59.2-28-119.9-19.2-180.4
		c8-55,28.3-109,60.4-160.6c41.2-66.1,99.8-125,169.6-170.5c66.4-43.3,138.8-71,203.8-78v0c179.4-19.4,245.3,20.3,336.4,75.3
		c5.2,3.2,10.6,6.4,16,9.6l0.4,0.3c27.3,21.8,53,50.3,74.4,82.3c22.7,34,39.9,70.6,51.2,108.8c18.1,61.5,28.6,154.5-24.8,248.6
		c-39.2,69.2-131,142.5-245.5,195.9c-57.3,26.7-118.5,47.5-177.1,60.1C359.5,3442.8,315.4,3447.8,273.9,3447.8z M458.9,2655
		c-24.9,0-52.4,1.6-83.4,4.9C239.8,2674.6,88.7,2775.2,8,2904.7c-46.6,74.8-91.5,193.5-40.5,334.1l0,0.1
		c48.9,147.9,168.2,189.7,259.7,198.7c15.3,1.5,30.9,2.2,46.6,2.2c218,0,474.6-138.4,547.4-266.8c94.2-166.3-0.9-351.1-98.7-429.4
		c-5.4-3.2-10.6-6.4-15.8-9.5C632.8,2689.5,575.7,2655,458.9,2655z"/>
</g>
<g id="Ebene_6">
	<path class="st2" d="M660.8,4710.5c-79.6,0-145.6-18.4-191.3-53.3c-46.7-35.7-67.9-86.3-59.8-142.4c7.7-53.4,41.3-108.8,97.2-160.3
		c62.7-57.8,150-108.4,259.5-150.5c311.7-119.8,383-267.3,425.6-355.5c28.6-59.1,47.5-98.1,116-89c32.6,4.3,61.8,24,84.5,56.8
		c21.9,31.7,37.2,74.9,44.1,124.8c15.8,114.1-12.4,246.4-77.5,363.1c-37.7,67.7-87,129.2-146.6,182.9
		c-66.3,59.8-145,109.6-234.2,148.1c-57.6,24.9-113.9,43.9-167.5,56.5c-50.2,11.9-98.2,18.2-142.7,18.8
		C665.7,4710.5,663.2,4710.5,660.8,4710.5z M1289.3,3766.2c-20.5,0-35.9,5.8-48.9,18.1c-15.6,14.9-26.9,38.2-41.2,67.8
		c-21.5,44.5-51,105.5-113.8,168.9c-34.1,34.4-75.4,66.9-122.8,96.4c-54.8,34.2-119.9,65.9-193.4,94.1
		c-108.6,41.7-195,91.8-257,148.9c-54.5,50.3-87.3,104.1-94.7,155.6c-7.7,53.2,12.5,101.1,56.8,134.9
		c45.6,34.9,112.6,52.7,193.7,51.6c90.8-1.3,197-27.1,307.2-74.7c167.5-72.3,297.8-185.6,376.9-327.5
		c64.2-115.2,92.1-245.7,76.5-358.1c-13.8-99.7-60.5-166.6-121.7-174.7C1300.7,3766.6,1294.8,3766.2,1289.3,3766.2z"/>
	<path class="st2" d="M889.3,5520.1c-12.4,0-24.6-0.9-36.7-2.6c-33.7-4.8-64.2-16-90.7-33.3c-27.9-18.2-49.6-42.2-64.7-71.3
		c-36.9-71.2-27.9-143.4,26.7-214.5c48.8-63.6,124.3-113,179.1-143.3c77.3-42.7,118.9-103.1,159.1-161.5
		c28.3-41.1,55.1-80,93.1-112.4c43.1-36.6,93.2-58.5,157.7-68.6c89.1-14.1,176.1-2.4,251.8,33.8c35.6,17,67.7,39,95.4,65.4
		c27.5,26.2,50,56.1,66.9,88.7c31,60.2,41.1,127.1,29.3,193.6c-6.3,35.3-18.7,70.3-37,104.1c-19.2,35.6-45.1,70.1-76.8,102.4
		l-0.2,0.2c-93.3,81.8-213.5,80.4-319.6,79.1c-94.6-1.1-176.3-2.1-226.7,50.7c-32.1,33.6-72.2,59.3-116,74.3
		C950.4,5515,919.6,5520.1,889.3,5520.1z M1384.8,4715c-23.2,0-46.8,1.8-70.5,5.6c-138.1,21.8-190.3,97.5-245.5,177.6
		c-40.8,59.2-82.9,120.3-161.8,163.9c-54.1,29.9-128.6,78.7-176.6,141.2c-52.6,68.5-61.3,137.8-26,206l0,0
		c28.1,54.2,82.5,90.8,149.4,100.3c11.7,1.7,23.6,2.5,35.4,2.5c73.7,0,148.2-31.7,201-87.1c24.2-25.3,56.4-40.5,101.4-47.8
		c39.6-6.4,84.1-5.9,131.2-5.3c104.6,1.3,223.1,2.7,314.1-77c116.7-119,147.7-265.1,83-390.8C1659.1,4786.1,1529.6,4715,1384.8,4715
		z"/>
	<path class="st2" d="M-119.2,5752.4c-13.8,0-27.2-0.6-40.3-1.9c-114.2-11.2-192.4-71.1-226.2-173.2
		c-18.2-50.3-23.7-101.8-16.3-153.1c6.8-46.7,24-92.5,51.3-136.2c69.5-111.4,199.7-198.1,316.7-210.7v0
		c152.2-16.5,208,17.2,285.3,63.9c4.4,2.7,8.9,5.4,13.5,8.2l0.4,0.3c23.2,18.5,45,42.7,63.2,69.9c19.2,28.8,33.8,59.9,43.4,92.3
		c15.4,52.2,24.2,131.1-21,211c-33.3,58.8-111.1,120.9-208.2,166.2c-48.5,22.6-100.4,40.3-150.1,50.9
		C-46.6,5748.2-84,5752.4-119.2,5752.4z M-33.2,5085.1c-114.7,12.4-242.5,97.5-310.8,207c-39.4,63.2-77.4,163.6-34.2,282.4l0,0.1
		c41.3,124.9,142.1,160.2,219.4,167.8c191.6,18.9,436.5-107.3,502.5-223.8c79.6-140.5-0.8-296.6-83.4-362.8c-4.5-2.7-9-5.4-13.3-8
		C171.2,5102.1,116.3,5068.9-33.2,5085.1L-33.2,5085.1z"/>
</g>
</svg>
