<?xml version="1.0" encoding="utf-8"?>
<!-- Generator: Adobe Illustrator 23.0.6, SVG Export Plug-In . SVG Version: 6.00 Build 0)  -->
<!DOCTYPE svg PUBLIC "-//W3C//DTD SVG 1.1//EN" "http://www.w3.org/Graphics/SVG/1.1/DTD/svg11.dtd" [
	<!ENTITY ns_extend "http://ns.adobe.com/Extensibility/1.0/">
	<!ENTITY ns_ai "http://ns.adobe.com/AdobeIllustrator/10.0/">
	<!ENTITY ns_graphs "http://ns.adobe.com/Graphs/1.0/">
	<!ENTITY ns_vars "http://ns.adobe.com/Variables/1.0/">
	<!ENTITY ns_imrep "http://ns.adobe.com/ImageReplacement/1.0/">
	<!ENTITY ns_sfw "http://ns.adobe.com/SaveForWeb/1.0/">
	<!ENTITY ns_custom "http://ns.adobe.com/GenericCustomNamespace/1.0/">
	<!ENTITY ns_adobe_xpath "http://ns.adobe.com/XPath/1.0/">
]>
<svg version="1.1" id="Ebene_1" xmlns:x="&ns_extend;" xmlns:i="&ns_ai;" xmlns:graph="&ns_graphs;"
	 xmlns="http://www.w3.org/2000/svg" xmlns:xlink="http://www.w3.org/1999/xlink" x="0px" y="0px" viewBox="0 0 4000 13018.3"
	 style="enable-background:new 0 0 4000 13018.3;" xml:space="preserve">
<style type="text/css">
	.st0{display:none;}
	.st1{fill:#86ED18;}
</style>
<metadata>
	<sfw  xmlns="&ns_sfw;">
		<slices></slices>
		<sliceSourceBounds  bottomLeftOrigin="true" height="11138" width="4656.2" x="-413.6" y="-3367.3"></sliceSourceBounds>
	</sfw>
</metadata>
<g class="st0">
	
		<image style="display:inline;overflow:visible;enable-background:new    ;" width="1280" height="6000" xlink:href="../backgrounds_png/pattern-green-karriere.png"  transform="matrix(0.75 0 0 0.75 0 3551.3884)">
	</image>
</g>
<g id="Ebene_3">
	<path class="st1" d="M533.7,4395.9c-74,0-146.7-9.2-217-27.2C155,4326.6,14.4,4236.6-79.7,4114.7
		c-85.6-110.7-130.4-243.9-129.7-384.8c0.7-155.2,54.7-313.2,160.3-469.4l0.3-0.7c164-207.2,416.1-250.3,638.5-288
		c197.7-33.6,368.5-62.8,453.1-191.9c54.3-82.9,128.4-151.8,214.7-200.1c81.9-45.9,172.5-72,262.2-75.4
		c149.4-5.8,282.9,52.3,366.1,159.6c104.6,135.2,113.8,290.1,26.5,460.2c-77.8,151.8-216.7,284.3-319.6,368.5
		c-144.3,118.2-210.9,254.7-275.5,387.2c-90.3,185.1-175.6,359.7-458.5,459.2C750.4,4376.9,640.7,4395.9,533.7,4395.9z
		 M-32.8,3272.4c-196.3,290.4-207.9,600.5-30.9,829.8c195.6,253.7,563.5,341.3,915,217.7c275.1-96.5,358.7-267.6,447-448.7
		c65.6-134.2,133.1-273.1,280.9-394c101.6-83.2,238.4-213.3,314.5-362.1c83.2-162.4,75.1-310.1-24.5-438.5
		c-79.1-102.2-206.2-157.3-349.2-151.8c-180.7,7.1-357.3,109-460.2,266.3c-89.3,136.2-272.7,167.8-466.7,200.7
		C374.4,3029.2,126.5,3071.6-32.8,3272.4z"/>
	<path class="st1" d="M539.2,11418.7c-89.3,0-177.3-10.2-262.5-31.2c-208.9-50.9-391.9-164.4-515.6-319.6
		c-112.1-141-172.5-311.5-174.6-492.8c-2.4-200,64.2-404.5,197.3-608l0.3-0.7c207.2-270,531.5-330.5,817.5-383.8
		c255.4-47.5,476.2-88.6,583.8-258.1c68.3-107.7,162.3-198,272.4-261.9c104.6-60.8,220.8-96.1,335.9-102.2
		c192.2-10.5,364.8,61.8,473.8,198l0,0c137.2,171.9,151.5,370.6,42.8,591c-97.5,197.3-274.1,370.6-405.2,481.6
		c-184.8,155.9-268.3,334.2-349.2,506.4c-112.8,240.1-219.4,467-581.8,600.5C829.9,11391.9,682.8,11418.7,539.2,11418.7z
		 M-199.2,9979c-248.6,380.1-257.5,782.5-23.8,1076.3c258.8,325,736.7,431.3,1189.8,264.2c354.6-130.8,459.5-353.9,570.3-590.3
		c81.9-174.2,166.4-354.6,354.6-513.5c129.7-109.7,304.3-280.9,400.1-474.8c105-212.6,91.4-404.2-40.4-569.2
		c-104.6-131.1-271-200.4-456.5-190.5c-234.4,12.6-461.2,148.8-592,354.6c-112.4,177-347.8,220.8-597.1,267.3
		C323.1,9655.6,3.2,9715.4-199.2,9979z"/>
</g>
<g>
	<path class="st1" d="M1998.3,1248.1c-9.5,0-19-0.3-28.5-0.7c-161.7-8.5-276.1-88-330.1-230.3c-70-168.5-21.7-315.5,30.9-409.3
		c90.3-160.7,267.6-290.7,431.3-315.9l0,0c212.6-32.9,293.1,10.9,404.5,71.7c6.5,3.4,12.9,6.8,19.4,10.5l1,0.7
		c71.3,52,129.7,132.5,160.3,221.4c25.1,72.7,42.5,183.4-16.3,298.9c-43.1,84.9-148.4,177-281.6,246.6
		C2258.8,1210,2118.2,1248.1,1998.3,1248.1z M2230.9,301.5c-36.3,0-77.8,3.4-126.3,10.9c-157.9,24.5-329.1,150.1-416.7,305.7
		c-50.3,89.7-96.5,230.6-29.5,391.6c64.5,169.5,205.5,211.6,312.5,217.4c9.5,0.3,19,0.7,28.5,0.7c261.2,0,572.3-182.4,653.1-341.7
		c100.9-198.4-19.7-408.3-137.6-494.2c-6.5-3.4-12.6-6.8-18.7-10.2C2413.7,336.8,2348.8,301.5,2230.9,301.5z"/>
	<path class="st1" d="M3424.1,3084.9c-11.2,0-22.1-0.3-32.6-0.7c-185.8-9.8-316.5-101.2-378.7-263.9
		c-80.2-193.3-25.1-362.4,35.3-469.7c103.9-184.8,307.7-333.9,495.5-363.1l0,0c244.2-37.7,336.6,12.6,464.6,82.2
		c7.5,4.1,14.6,8.2,22.4,12.2l1,0.7c81.9,59.4,149.1,152.2,184.1,254.4c28.9,83.2,48.9,210.2-18.7,343
		c-49.6,97.5-170.5,203.4-323.7,283.3C3723.7,3041.1,3562,3084.9,3424.1,3084.9z M3545,1997.3l1.7,10.2
		c-182,28.2-379.7,173.2-480.9,352.9c-58.1,103.6-111.4,266.3-34.3,452.4c74.7,196,237.4,244.5,361,251.3c10.9,0.7,21.7,1,32.6,1
		c301.3,0,659.9-210.2,753.7-394.3c116.5-228.9-22.8-471.8-159-571.3c-7.5-4.1-14.6-7.8-21.7-11.9
		c-124.6-67.6-214.3-116.5-451.7-79.8L3545,1997.3z"/>
</g>
</svg>
