<svg width="770" height="227" viewBox="0 0 770 227" fill="none" xmlns="http://www.w3.org/2000/svg">
<circle cx="385" cy="386" r="385" fill="#86EC16"/>
<path d="M257.087 216.293C276.086 239.034 310.942 241.129 310.942 241.129C310.942 241.129 315.131 206.419 296.281 183.678C277.432 160.936 242.426 158.842 242.426 158.842C242.426 158.842 238.088 193.552 257.087 216.293Z" fill="white" stroke="black" stroke-width="2" stroke-miterlimit="10" stroke-linecap="round" stroke-linejoin="round"/>
<path d="M311.241 40.6475L311.241 314.14" stroke="black" stroke-width="2" stroke-miterlimit="10" stroke-linecap="round" stroke-linejoin="round"/>
<path d="M322.61 128.77C309.146 143.881 311.39 167.819 311.39 167.819C311.39 167.819 335.326 167.071 348.64 151.96C362.104 136.849 359.86 112.911 359.86 112.911C359.86 112.911 336.074 113.509 322.61 128.77Z" fill="white" stroke="black" stroke-width="2" stroke-miterlimit="10" stroke-linecap="round" stroke-linejoin="round"/>
<path d="M290.297 28.3792C295.533 40.9467 310.643 46.632 310.643 46.632C310.643 46.632 317.225 31.8203 311.989 19.2528C306.753 6.68531 291.644 0.999997 291.644 0.999997C291.644 0.999997 285.062 15.8117 290.297 28.3792Z" fill="white" stroke="black" stroke-width="2" stroke-miterlimit="10" stroke-linecap="round" stroke-linejoin="round"/>
<path d="M326.499 40.4979C331.436 33.6157 329.491 23.7412 329.491 23.7412C329.491 23.7412 319.618 25.0877 314.681 31.9699C309.745 38.8521 311.689 48.7266 311.689 48.7266C311.689 48.7266 321.563 47.3801 326.499 40.4979Z" fill="white" stroke="black" stroke-width="2" stroke-miterlimit="10" stroke-linecap="round" stroke-linejoin="round"/>
<path d="M310.941 240.98L278.329 198.789" stroke="black" stroke-width="2" stroke-miterlimit="10" stroke-linecap="round" stroke-linejoin="round"/>
<path d="M332.633 140.29L311.39 167.669" stroke="black" stroke-width="2" stroke-miterlimit="10" stroke-linecap="round" stroke-linejoin="round"/>
<path d="M320.665 36.3086L311.689 48.7265" stroke="black" stroke-width="2" stroke-miterlimit="10" stroke-linecap="round" stroke-linejoin="round"/>
<path d="M298.525 19.2529L310.792 46.6321" stroke="black" stroke-width="2" stroke-miterlimit="10" stroke-linecap="round" stroke-linejoin="round"/>
<path d="M144.108 225.008C162.065 207.614 161.5 177.909 161.5 177.909C161.5 177.909 131.911 176.554 113.954 194.061C95.9975 211.568 96.5622 241.16 96.5622 241.16C96.5622 241.16 126.151 242.402 144.108 225.008Z" fill="white" stroke="black" stroke-width="2" stroke-miterlimit="10" stroke-linecap="round" stroke-linejoin="round"/>
<path d="M96.5621 249.406V102.234" stroke="black" stroke-width="2" stroke-miterlimit="10" stroke-linecap="round" stroke-linejoin="round"/>
<path d="M61.6653 204.565C75.1046 216.877 96.4495 215.182 96.4495 215.182C96.4495 215.182 96.2236 193.722 82.7842 181.411C69.3449 169.1 48.0001 170.794 48.0001 170.794C48.0001 170.794 48.3389 192.254 61.6653 204.565Z" fill="white" stroke="black" stroke-width="2" stroke-miterlimit="10" stroke-linecap="round" stroke-linejoin="round"/>
<path d="M79.622 102.234C84.5911 111.609 96.6753 114.884 96.6753 114.884C96.6753 114.884 100.741 103.025 95.7718 93.6502C90.8026 84.2755 78.7185 81 78.7185 81C78.7185 81 74.7657 92.8595 79.622 102.234Z" fill="white" stroke="black" stroke-width="2" stroke-miterlimit="10" stroke-linecap="round" stroke-linejoin="round"/>
<path d="M96.5621 215.182L65.3919 186.606" stroke="black" stroke-width="2" stroke-miterlimit="10" stroke-linecap="round" stroke-linejoin="round"/>
<path d="M119.375 216.876L96.5623 241.16" stroke="black" stroke-width="2" stroke-miterlimit="10" stroke-linecap="round" stroke-linejoin="round"/>
<path d="M88.9958 96.5869L96.6754 114.884" stroke="black" stroke-width="2" stroke-miterlimit="10" stroke-linecap="round" stroke-linejoin="round"/>
<path d="M449.549 106.8C425.238 83.2503 426.003 43.033 426.003 43.033C426.003 43.033 466.063 41.198 490.374 64.9002C514.685 88.6024 513.921 128.667 513.921 128.667C513.921 128.667 473.861 130.349 449.549 106.8Z" fill="white" stroke="black" stroke-width="2" stroke-miterlimit="10" stroke-linecap="round" stroke-linejoin="round"/>
<path d="M513.921 247V47.7485" stroke="black" stroke-width="2" stroke-miterlimit="10" stroke-linecap="round" stroke-linejoin="round"/>
<path d="M561.167 200.829C542.972 217.497 514.073 215.203 514.073 215.203C514.073 215.203 514.379 186.149 532.574 169.481C550.77 152.813 579.668 155.107 579.668 155.107C579.668 155.107 579.209 184.161 561.167 200.829Z" fill="white" stroke="black" stroke-width="2" stroke-miterlimit="10" stroke-linecap="round" stroke-linejoin="round"/>
<path d="M536.856 47.7485C530.128 60.4406 513.768 64.8752 513.768 64.8752C513.768 64.8752 508.263 48.8189 514.991 36.1267C521.718 23.4346 538.079 19 538.079 19C538.079 19 543.43 35.0563 536.856 47.7485Z" fill="white" stroke="black" stroke-width="2" stroke-miterlimit="10" stroke-linecap="round" stroke-linejoin="round"/>
<path d="M513.921 215.203L556.121 176.515" stroke="black" stroke-width="2" stroke-miterlimit="10" stroke-linecap="round" stroke-linejoin="round"/>
<path d="M483.035 95.7896L513.921 128.667" stroke="black" stroke-width="2" stroke-miterlimit="10" stroke-linecap="round" stroke-linejoin="round"/>
<path d="M524.165 40.1025L513.767 64.8752" stroke="black" stroke-width="2" stroke-miterlimit="10" stroke-linecap="round" stroke-linejoin="round"/>
<path d="M675.765 96.4517V410.654" stroke="black" stroke-width="2" stroke-miterlimit="10" stroke-linecap="round" stroke-linejoin="round"/>
<path d="M678.075 88.8444C682.421 100.119 676.037 113.024 676.037 113.024C676.037 113.024 662.862 107.591 658.516 96.1798C654.169 84.905 660.553 72 660.553 72C660.553 72 673.728 77.5695 678.075 88.8444Z" fill="white" stroke="black" stroke-width="2" stroke-miterlimit="10" stroke-linecap="round" stroke-linejoin="round"/>
<path d="M717.872 195.073C701.844 209.744 676.309 207.706 676.309 207.706C676.309 207.706 676.581 182.032 692.608 167.497C708.636 152.962 734.171 154.864 734.171 154.864C734.171 154.864 733.9 180.538 717.872 195.073Z" fill="white" stroke="black" stroke-width="2" stroke-miterlimit="10" stroke-linecap="round" stroke-linejoin="round"/>
<path d="M676.037 113.024L668.295 92.5122" stroke="black" stroke-width="2" stroke-miterlimit="10" stroke-linecap="round" stroke-linejoin="round"/>
<path d="M676.444 207.842L711.216 174.289" stroke="black" stroke-width="2" stroke-miterlimit="10" stroke-linecap="round" stroke-linejoin="round"/>
</svg>
