<svg width="754" height="588" viewBox="0 0 754 588" fill="none" xmlns="http://www.w3.org/2000/svg">
<ellipse opacity="0.33" cx="377" cy="411.5" rx="242" ry="241.5" fill="url(#paint0_linear)"/>
<path opacity="0.33" d="M752 411.5C752 618.328 584.109 786 377 786C169.891 786 2 618.328 2 411.5C2 204.672 169.891 37 377 37C584.109 37 752 204.672 752 411.5Z" stroke="url(#paint1_linear)" stroke-width="4"/>
<circle cx="271.313" cy="52" r="34" fill="white" stroke="black" stroke-width="2"/>
<path d="M276.366 69.1059C277.021 69.8616 277.021 69.8615 277.021 69.8615L277.021 69.8612L277.022 69.8601L277.028 69.8557L277.048 69.8381L277.128 69.7689L277.433 69.505C277.697 69.2771 278.076 68.9502 278.537 68.5549C279.457 67.7642 280.701 66.7002 281.997 65.6063C283.294 64.5116 284.638 63.39 285.76 62.483C286.912 61.5514 287.755 60.9076 288.091 60.7107C289.571 59.8433 290.997 59.6953 292.144 60.4747C292.213 60.527 292.272 60.5946 292.314 60.6736C292.358 60.7559 292.384 60.848 292.388 60.9428C292.393 61.0377 292.376 61.1321 292.34 61.2187C292.303 61.3052 292.249 61.3812 292.18 61.4415L292.133 61.483L292.092 61.53L279.631 75.6846C278.448 76.7309 276.933 77.3074 275.365 77.3094H256.904H256.486L256.192 77.6067L253.111 80.7264C249.158 78.1807 246.087 75.0737 243.561 71.0998L252.846 61.8364L252.846 61.8364L252.852 61.8307C253.748 60.9217 254.814 60.2037 255.986 59.718C257.159 59.2322 258.414 58.9884 259.68 59.0004L259.687 59.0005L259.695 59.0005C261.244 58.993 262.774 59.3592 264.158 60.0694C265.498 60.7903 267.15 60.8605 268.538 60.8605H272.713C273.545 60.8605 274.393 61.1058 275.006 61.563C275.59 61.9975 275.984 62.6323 275.984 63.5511C275.984 64.3752 275.602 65.0209 274.994 65.4887C274.366 65.9716 273.517 66.2417 272.713 66.2417H266.958H266.947L266.936 66.242C266.434 66.2531 265.958 66.46 265.607 66.8155C265.257 67.1707 265.057 67.6467 265.046 68.1437L265.045 68.1995L265.05 68.2551C265.092 68.7209 265.292 69.1598 265.618 69.4967L266.336 68.8005L265.618 69.4967C265.945 69.8338 266.379 70.0479 266.848 70.0998L266.903 70.1059H266.958H276.366H276.739L277.021 69.8616L276.366 69.1059Z" stroke="black" stroke-width="2"/>
<path d="M283.112 56.6504C275.959 60.5355 271.365 56.1108 269.963 53.4128C266.176 47.8012 269.787 43.1606 272.067 41.5418C282.165 34.6349 293.606 35.7804 297.813 36.6797C292.813 37.6797 292.054 51.7941 283.112 56.6504Z" fill="#86EC16"/>
<path d="M267.813 39.5C268.242 43.7868 266.98 45.8333 265.313 46.5C263.313 47.3 261.913 46.8 260.313 46C257.313 44.5 255.313 40.5 256.313 36C257.113 32.4 255.48 29.5 255.313 28C264.313 31 267.313 34.5 267.813 39.5Z" fill="#86EC16"/>
<path fill-rule="evenodd" clip-rule="evenodd" d="M263.156 39.9611C262.858 39.4959 262.24 39.3601 261.774 39.6579C261.309 39.9556 261.174 40.574 261.471 41.0392C263.265 43.8416 266.332 50.5688 267.881 59.6218C267.87 59.6603 267.859 59.6987 267.849 59.737C267.825 59.8249 267.813 59.9133 267.813 60.0002H269.971C269.958 59.921 269.945 59.842 269.932 59.7631C270.573 57.8913 271.978 55.7727 273.599 53.7968C275.347 51.6661 277.256 49.8062 278.468 48.7558C278.886 48.3941 278.931 47.7625 278.569 47.3452C278.208 46.9278 277.576 46.8827 277.159 47.2444C275.871 48.3607 273.88 50.3008 272.053 52.5284C271.058 53.741 270.085 55.0712 269.301 56.4242C267.605 48.5376 264.887 42.6653 263.156 39.9611ZM268.83 70.0002C268.818 68.9832 268.782 67.9827 268.725 67.0002H270.728C270.783 67.9836 270.818 68.984 270.83 70.0002H268.83Z" fill="black"/>
<circle cx="371.446" cy="35" r="34" fill="white" stroke="black" stroke-width="2"/>
<mask id="mask0" style="mask-type:alpha" maskUnits="userSpaceOnUse" x="337" y="1" width="69" height="68">
<circle cx="371.446" cy="35" r="34" fill="white"/>
</mask>
<g mask="url(#mask0)">
<circle cx="396.446" cy="11" r="7" stroke="black" stroke-width="2"/>
<circle cx="346.446" cy="11" r="7" stroke="black" stroke-width="2"/>
<circle cx="406.446" cy="35" r="7" stroke="black" stroke-width="2"/>
<circle cx="336.446" cy="35" r="7" stroke="black" stroke-width="2"/>
<circle cx="396.446" cy="59" r="7" stroke="black" stroke-width="2"/>
<circle cx="346.446" cy="59" r="7" stroke="black" stroke-width="2"/>
<circle cx="371.446" cy="68" r="7" stroke="black" stroke-width="2"/>
<circle cx="371.446" cy="1" r="7" stroke="black" stroke-width="2"/>
<path d="M371.446 61V49" stroke="black" stroke-width="2"/>
<path d="M351.446 55L361.446 45" stroke="black" stroke-width="2"/>
<path d="M343.446 35L357.446 35" stroke="black" stroke-width="2"/>
<path d="M385.446 35L399.446 35" stroke="black" stroke-width="2"/>
<path d="M381.446 45L391.446 55" stroke="black" stroke-width="2"/>
<path d="M351.446 15L361.446 25" stroke="black" stroke-width="2"/>
<path d="M371.446 8L371.446 21" stroke="black" stroke-width="2"/>
<path d="M390.446 16L381.446 25" stroke="black" stroke-width="2"/>
<path fill-rule="evenodd" clip-rule="evenodd" d="M359.443 28.0098L356.988 25.5572C356.565 25.1347 356.565 24.4398 356.988 24.0174L360.507 20.5019C360.929 20.0795 361.625 20.0795 362.048 20.5019L364.503 22.9546C365.035 22.6412 365.594 22.3687 366.167 22.137C366.74 21.9054 367.312 21.701 367.912 21.5511V18.0901C367.912 17.4905 368.403 17 369.004 17H373.982C374.582 17 375.073 17.4905 375.073 18.0901V21.5511C375.673 21.7146 376.26 21.9054 376.819 22.137C377.392 22.3687 377.951 22.6548 378.483 22.9546L380.938 20.5019C381.36 20.0795 382.056 20.0795 382.479 20.5019L385.998 24.0174C386.421 24.4398 386.421 25.1347 385.998 25.5572L383.543 28.0098C383.856 28.5413 384.129 29.0999 384.361 29.6722C384.593 30.2445 384.798 30.8168 384.961 31.4164H388.425C389.026 31.4164 389.517 31.9069 389.517 32.5064V37.4799C389.517 38.0795 389.026 38.57 388.425 38.57H384.961C384.798 39.1696 384.607 39.7555 384.361 40.3278C384.129 40.9001 383.843 41.4587 383.543 41.9902L385.998 44.4428C386.421 44.8653 386.421 45.5602 385.998 45.9826L382.479 49.4981C382.056 49.9205 381.36 49.9205 380.938 49.4981L378.483 47.0454C377.951 47.3588 377.392 47.6313 376.819 47.863C376.246 48.0946 375.673 48.299 375.073 48.4489V51.9099C375.073 52.5095 374.582 53 373.982 53H369.004C368.403 53 367.912 52.5095 367.912 51.9099V48.4489C367.312 48.2854 366.726 48.0946 366.153 47.8494C365.58 47.6177 365.021 47.3316 364.489 47.0318L362.034 49.4845C361.611 49.9069 360.916 49.9069 360.493 49.4845L356.974 45.969C356.551 45.5466 356.551 44.8516 356.974 44.4292L359.429 41.9765C359.115 41.4451 358.843 40.8864 358.611 40.3142C358.379 39.7419 358.174 39.1696 358.024 38.57H354.56C353.96 38.57 353.469 38.0795 353.469 37.4799V32.5064C353.469 31.9069 353.96 31.4164 354.56 31.4164H358.024C358.188 30.8168 358.379 30.2309 358.624 29.6586C358.856 29.0863 359.143 28.5276 359.443 27.9962V28.0098ZM371.5 29.1544C369.89 29.1544 368.431 29.8085 367.367 30.8577C366.303 31.9205 365.662 33.3785 365.662 34.9864C365.662 36.5942 366.317 38.0522 367.367 39.1151C368.431 40.1779 369.89 40.8183 371.5 40.8183C373.109 40.8183 374.568 40.1643 375.632 39.1151C376.696 38.0522 377.337 36.5942 377.337 34.9864C377.337 33.3785 376.682 31.9205 375.632 30.8577C374.568 29.7949 373.109 29.1544 371.5 29.1544Z" fill="#86EC16"/>
</g>
<circle cx="471.579" cy="52" r="34" fill="white" stroke="black" stroke-width="2"/>
<path fill-rule="evenodd" clip-rule="evenodd" d="M452.579 37C452.579 30.9249 457.504 26 463.579 26H479.579C485.654 26 490.579 30.9249 490.579 37C490.579 43.0751 485.654 48 479.579 48H463.579C457.504 48 452.579 43.0751 452.579 37ZM467.165 37L462.872 32.7071L464.286 31.2929L469.286 36.2929L469.993 37L469.286 37.7071L464.286 42.7071L462.872 41.2929L467.165 37ZM472.579 42H481.079V40H472.579V42Z" fill="#86EC16"/>
<path d="M465.67 86V82.3191C465.67 80.0682 464.323 78.0875 462.684 76.5448C460.157 74.1664 458.579 70.7866 458.579 67.037C458.579 59.8369 464.399 54 471.579 54C478.759 54 484.579 59.8369 484.579 67.037C484.579 70.7866 483.001 74.1664 480.474 76.5448C478.835 78.0875 477.488 80.0682 477.488 82.3191V86" stroke="black" stroke-width="2"/>
<path d="M467.079 70C465.698 70 464.579 68.8807 464.579 67.5C464.579 66.1193 465.698 65 467.079 65C468.46 65 469.579 66.1193 469.579 67.5V85.5" stroke="black" stroke-width="2"/>
<path d="M473.579 85.5V67.5C473.579 66.1193 474.698 65 476.079 65C477.46 65 478.579 66.1193 478.579 67.5C478.579 68.8807 477.46 70 476.079 70H467.079" stroke="black" stroke-width="2"/>
<defs>
<linearGradient id="paint0_linear" x1="377" y1="170" x2="377" y2="653" gradientUnits="userSpaceOnUse">
<stop stop-color="#AAEA39"/>
<stop offset="1" stop-color="#86EC16"/>
</linearGradient>
<linearGradient id="paint1_linear" x1="377" y1="35" x2="377" y2="232" gradientUnits="userSpaceOnUse">
<stop stop-color="#86EC16"/>
<stop offset="1" stop-color="#86EC16" stop-opacity="0"/>
</linearGradient>
</defs>
</svg>
