<?xml version="1.0" encoding="UTF-8"?>
<svg id="Ebene_1" data-name="Ebene 1" xmlns="http://www.w3.org/2000/svg" viewBox="0 0 688.89 688.89">
  <path d="m319.78,510.02c-14,7.31-31.13,4.68-42.3-6.49l-46.07-46.07-46.07-46.07c-11.17-11.17-13.8-28.29-6.49-42.29l62.03-128.22L99.72,99.71c-133.49,135.31-132.97,353.19,1.65,487.8,101.38,101.38,250.01,126.73,375.02,76.04,40.97-16.61,79.38-41.44,112.78-74.39l-141.17-141.17-128.21,62.04Z"/>
  <path d="m261.14,206.44l.02.03h185.09c19.97,0,36.16,16.19,36.16,36.16v185.09s.02.01.02.01h0s196.77,0,196.77,0c27.38-113.36-3.17-237.86-91.67-326.37C499.01,12.85,374.51-17.68,261.15,9.72v196.73s0,0,0,0Z"/>
</svg>