<?xml version="1.0" standalone="no"?>
<!DOCTYPE svg PUBLIC "-//W3C//DTD SVG 20010904//EN"
 "http://www.w3.org/TR/2001/REC-SVG-20010904/DTD/svg10.dtd">
<svg version="1.0" xmlns="http://www.w3.org/2000/svg"
 width="700.000000pt" height="700.000000pt" viewBox="0 0 700.000000 700.000000"
 preserveAspectRatio="xMidYMid meet">
<metadata>
Created by potrace 1.14, written by Peter Selinger 2001-2017
</metadata>
<g transform="translate(0.000000,700.000000) scale(0.100000,-0.100000)"
fill="#000000" stroke="none">
<path d="M3278 6995 c-1 -1 -38 -5 -81 -9 -149 -12 -387 -52 -537 -90 -619
-158 -1167 -471 -1626 -930 -317 -317 -553 -660 -735 -1063 -32 -73 -59 -139
-59 -146 0 -7 -4 -17 -9 -22 -10 -11 -42 -105 -90 -260 -58 -192 -109 -456
-129 -680 -14 -160 -6 -602 12 -702 2 -10 7 -43 10 -73 7 -62 12 -94 26 -165
6 -27 12 -59 14 -70 15 -76 53 -220 87 -330 282 -901 931 -1660 1785 -2088
194 -97 446 -192 664 -251 102 -27 317 -72 390 -80 25 -3 63 -8 85 -11 22 -2
60 -7 85 -10 83 -11 464 -14 560 -5 151 14 205 20 231 25 13 3 51 10 84 15
151 26 265 54 265 64 5 109 3 1936 -1 1936 -4 0 -49 -20 -100 -44 -133 -63
-274 -109 -374 -122 -27 -3 -52 -8 -56 -9 -15 -9 -169 -19 -289 -19 -160 1
-229 9 -380 45 -98 23 -147 39 -249 81 -80 34 -226 111 -252 134 -8 8 -19 14
-22 14 -15 0 -157 115 -234 190 -140 136 -254 296 -337 471 -51 106 -111 282
-121 349 -4 24 -9 48 -11 52 -12 19 -29 215 -28 313 3 164 15 270 49 398 48
186 121 352 223 507 31 47 58 87 61 90 3 3 31 34 61 70 166 195 369 344 614
449 97 41 275 93 366 106 25 3 59 9 75 12 64 11 296 9 394 -3 177 -23 394 -88
564 -169 l47 -23 1 36 c0 21 0 460 1 977 l0 940 -48 12 c-26 7 -63 15 -82 18
-19 3 -44 7 -56 10 -56 13 -208 36 -334 51 -44 6 -509 14 -514 9z"/>
<path d="M5147 6573 c-3 -7 -1 -6135 2 -6155 0 -4 35 13 77 37 42 25 78 45 80
45 10 0 302 201 364 250 360 289 657 635 875 1020 153 271 273 570 346 862 34
137 32 130 59 283 37 219 45 317 44 595 0 214 -4 301 -20 415 -3 22 -7 51 -9
65 -10 84 -18 129 -25 160 -5 19 -12 51 -15 70 -11 66 -64 265 -98 370 -93
286 -229 570 -395 825 -51 78 -160 231 -195 272 -309 368 -584 607 -937 815
-140 82 -146 85 -153 71z"/>
</g>
</svg>
