<?xml version="1.0" encoding="utf-8"?>
<!-- Generator: Adobe Illustrator 23.0.3, SVG Export Plug-In . SVG Version: 6.00 Build 0)  -->
<svg version="1.1" xmlns="http://www.w3.org/2000/svg" xmlns:xlink="http://www.w3.org/1999/xlink" x="0px" y="0px"
	 viewBox="0 0 198.8 137.4" style="enable-background:new 0 0 198.8 137.4;" xml:space="preserve">
<style type="text/css">
	.st0{display:none;}
	.st1{display:inline;}
	.st2{fill:#FFFFFF;}
	.st3{fill:#86ED18;}
	.st4{font-family:'ApercuPro-Light';}
	.st5{font-size:48px;}
	.st6{fill-rule:evenodd;clip-rule:evenodd;fill:#FFFFFF;}
</style>
<g id="Ebene_2" class="st0">
	<rect class="st1" width="198.8" height="137.4"/>
</g>
<g id="Ebene_1">
	<path class="st2" d="M99.8,19.3c-1.1-1.1-2.6-1.7-4.4-1.7c-3.9,0-7,3.3-7,7.6s3,7.6,7,7.6c1.6,0,3.2-0.7,4.4-1.8v1.4h3.8V18h-3.8
		L99.8,19.3L99.8,19.3z M96.1,29.1c-2.1,0-3.8-1.8-3.8-4s1.6-4,3.8-4s3.8,1.8,3.8,4S98.2,29.1,96.1,29.1z M110.3,12h-3.9v20.4h3.9
		V12z M116.9,12H113v20.4h3.9L116.9,12L116.9,12z"/>
	<path class="st2" d="M130,11.6c-5.8,0-10.5,4.8-10.5,10.6s4.7,10.5,10.5,10.5c5.8,0,10.5-4.8,10.5-10.5
		C140.4,16.4,135.7,11.6,130,11.6L130,11.6z M130,28.8c-3.6,0-6.4-2.9-6.4-6.7s2.8-6.7,6.4-6.7c3.6,0,6.4,2.9,6.4,6.7
		S133.6,28.8,130,28.8z M150.8,17.6c-1.6,0-2.9,0.6-3.9,1.6v-1.3h-3.9v14.5h3.9v-7.6c0-2.2,1.2-3.6,2.9-3.6s2.7,1.1,2.7,3.2v8h3.9
		v-8.7C156.4,20,154.3,17.6,150.8,17.6z M166,17.6c-4.1,0-7.2,3.3-7.2,7.6c0,4.4,3,7.6,7.4,7.6c2.8,0,5.2-1.3,6.4-3.8
		c0.3-0.8,0.4-1.4,0.4-1.4h-3.7c-0.7,1.1-1.6,1.8-3.1,1.8c-1.8,0-3.3-1.3-3.6-2.9H173V26v-0.8C173.1,20.8,170.1,17.6,166,17.6
		L166,17.6z M165.9,20.9c1.6,0,3,1.1,3.3,2.6h-6.6C163.1,22.2,164.4,20.9,165.9,20.9L165.9,20.9z"/>
	<path class="st2" d="M77.8,11.6c-5.8,0-10.5,4.8-10.5,10.6c0,5.8,4.7,10.5,10.5,10.5c3.9,0,7.4-2.1,9.2-5.5l0.2-0.5h-4.8l-0.1,0.1
		c-1.2,1.3-2.8,2-4.6,2c-3.6,0-6.4-2.9-6.4-6.7s2.8-6.7,6.4-6.7c2.3,0,4.4,1.3,5.5,3.3l0.1,0.2h4.4l-0.2-0.4
		C86.1,14.4,82.2,11.6,77.8,11.6L77.8,11.6z"/>
	<path class="st2" d="M27,22.2c0,9.4,7.6,17,16.8,17c1.3,0,2.6-0.2,3.9-0.5v-9.5c-1.2,0.7-2.5,1-3.9,1c-4.4,0-7.9-3.6-7.9-8
		s3.5-8,7.9-8c1.4,0,2.7,0.4,3.9,1V5.7c-1.3-0.3-2.6-0.5-3.9-0.5C34.6,5.2,27,12.9,27,22.2z M51.7,7.2v30c5.3-2.8,8.9-8.5,8.9-15
		S57.1,10.1,51.7,7.2L51.7,7.2z"/>
</g>
<g id="Ebene_3">
	<text transform="matrix(1 0 0 1 86.8195 85.8413)" class="st3 st4 st5">+</text>
</g>
<g id="Ebene_4">
	<polygon class="st2" points="28.8,109 23.2,109 23.2,102.9 21,102.9 21,109 15.3,109 15.3,111.2 21,111.2 21,117.3 23.2,117.3 
		23.2,111.2 28.8,111.2 	"/>
	<polygon class="st2" points="17.5,119 12.4,119 12.4,113.6 10.5,113.6 10.5,119 5.4,119 5.4,120.7 10.5,120.7 10.5,126.2 
		12.4,126.2 12.4,120.7 17.5,120.7 	"/>
	<polygon class="st2" points="38.7,99.4 33.6,99.4 33.6,93.9 31.7,93.9 31.7,99.4 26.7,99.4 26.7,101.1 31.7,101.1 31.7,106.5 
		33.6,106.5 33.6,101.1 38.7,101.1 	"/>
	<polygon class="st2" points="26.4,125.1 22.9,125.1 22.9,121.3 21.3,121.3 21.3,125.1 17.8,125.1 17.8,126.6 21.3,126.6 
		21.3,130.5 22.9,130.5 22.9,126.6 26.4,126.6 	"/>
	<polygon class="st2" points="17.5,99.4 12.4,99.4 12.4,93.9 10.6,93.9 10.6,99.4 5.4,99.4 5.4,101 10.6,101 10.6,106.5 12.4,106.5 
		12.4,101 17.5,101 	"/>
	<polygon class="st2" points="42.6,109.4 39.2,109.4 39.2,105.6 37.5,105.6 37.5,109.4 34.1,109.4 34.1,110.9 37.5,110.9 
		37.5,114.7 39.2,114.7 39.2,110.9 42.6,110.9 	"/>
	<polygon class="st6" points="38.7,119 33.6,119 33.6,113.6 31.7,113.6 31.7,119 26.7,119 26.7,120.7 31.7,120.7 31.7,126.2 
		33.6,126.2 33.6,120.7 38.7,120.7 	"/>
	<polygon class="st2" points="21.5,90 21.5,93.7 18.1,93.7 18.1,94.9 21.5,94.9 21.5,98.6 22.7,98.6 22.7,94.9 26.1,94.9 26.1,93.7 
		22.7,93.7 22.7,90 	"/>
	<polygon class="st2" points="4.9,105.8 4.9,109.5 1.5,109.5 1.5,110.7 4.9,110.7 4.9,114.4 6.1,114.4 6.1,110.7 9.5,110.7 
		9.5,109.5 6.1,109.5 6.1,105.8 	"/>
	<g>
		<path class="st6" d="M105.1,107.1c1.2-0.5,2.3-0.6,3-0.6c3.5,0,5.9,2.5,5.9,6.3c0,4-2.5,6.3-6.9,6.3c-1.5,0-3-0.3-4.6-0.8
			l-0.1-17.7h2.6C105.1,100.6,105.1,107.1,105.1,107.1z M107.4,116.7c2.4,0,3.9-1.4,3.9-3.9c0-2.5-1.4-3.9-3.6-3.9
			c-1,0-1.9,0.3-2.5,0.6v6.8C105.9,116.5,106.6,116.7,107.4,116.7"/>
		<rect x="124" y="98.1" class="st6" width="2.6" height="23.2"/>
		<path class="st6" d="M140.1,111.4h5.9c-0.1-1.6-0.9-2.4-2.4-2.5C142.1,108.8,140.6,109.8,140.1,111.4 M143,119.1
			c-4-0.4-5.9-3.2-5.8-6.5c0.1-3.6,2.4-6.1,6-6.1c3.7,0,5.9,2.8,5.7,6.8h-9c0.2,2.3,1.6,3.3,3.4,3.5c1.5,0.1,3.7-0.2,4.9-1v2.5
			C146.7,119,145.1,119.3,143,119.1"/>
		<path class="st6" d="M186.1,117.1c1.7,0,2.8-0.8,2.8-2.7v-7.7h2.6v8c0,2.7-2.1,4.3-5.4,4.3c-3.3,0-5.4-1.6-5.4-4.3v-8h2.6v7.7
			C183.3,116.3,184.4,117.1,186.1,117.1"/>
		<path class="st6" d="M85.2,119.1c-4.4,0-6.9-2.3-6.9-6.3c0-3.9,2.4-6.3,5.9-6.3c1.2,0,2.2,0.3,3,0.8v-0.9h2.6l-0.1,11.9
			C88.7,118.8,86.9,119.1,85.2,119.1 M84.9,116.7c0.6,0,1.3,0,2.2-0.3l0-6.7c-0.8-0.6-1.7-0.8-2.5-0.8c-2.2,0-3.6,1.5-3.6,3.9
			C81.1,115.3,82.5,116.7,84.9,116.7"/>
		<path class="st6" d="M165.9,119.1c-4.4,0-6.9-2.3-6.9-6.3c0-3.9,2.4-6.3,5.9-6.3c1.2,0,2.2,0.3,3,0.8v-0.9h2.6l-0.1,11.9
			C169.3,118.8,167.5,119.1,165.9,119.1 M165.6,116.7c0.5,0,1.3,0,2.2-0.3l0-6.7c-0.8-0.6-1.7-0.8-2.5-0.8c-2.2,0-3.6,1.5-3.6,3.9
			C161.8,115.3,163.2,116.7,165.6,116.7"/>
		<polygon class="st2" points="59.3,101.4 61.9,101.4 61.9,108.8 68.9,108.8 68.9,111.2 61.9,111.2 61.9,119.2 59.3,119.2 
			59.3,111.2 52.3,111.2 52.3,108.8 59.3,108.8 		"/>
		<path class="st2" d="M195.8,106.6c0.8,0,1.5,0.7,1.5,1.6c0,0.9-0.7,1.6-1.5,1.6c-0.8,0-1.5-0.7-1.5-1.6
			C194.2,107.3,194.9,106.6,195.8,106.6L195.8,106.6z M195.8,106.8c-0.7,0-1.2,0.6-1.2,1.3c0,0.7,0.6,1.3,1.2,1.3
			c0.7,0,1.2-0.6,1.2-1.3S196.5,106.8,195.8,106.8L195.8,106.8z M195.5,109.1h-0.3v-1.7c0.1,0,0.3,0,0.5,0c0.3,0,0.4,0.1,0.5,0.1
			c0.1,0.1,0.2,0.2,0.2,0.4c0,0.2-0.1,0.4-0.3,0.4v0c0.1,0,0.3,0.2,0.3,0.4c0,0.3,0.1,0.4,0.1,0.4h-0.3c0-0.1-0.1-0.2-0.1-0.4
			c0-0.2-0.2-0.3-0.4-0.3h-0.2V109.1z M195.5,108.1h0.2c0.2,0,0.4-0.1,0.4-0.3c0-0.1-0.1-0.3-0.4-0.3c-0.1,0-0.1,0-0.2,0V108.1z"/>
	</g>
</g>
</svg>
