<?xml version="1.0" encoding="utf-8"?>
<!-- Generator: Adobe Illustrator 23.0.3, SVG Export Plug-In . SVG Version: 6.00 Build 0)  -->
<svg version="1.1" xmlns="http://www.w3.org/2000/svg" xmlns:xlink="http://www.w3.org/1999/xlink" x="0px" y="0px"
	 viewBox="0 0 410.4 41.2" style="enable-background:new 0 0 410.4 41.2;" xml:space="preserve">
<style type="text/css">
	.st0{display:none;}
	.st1{display:inline;}
	.st2{fill:#FFFFFF;}
	.st3{fill:#86ED18;}
	.st4{font-family:'ApercuPro-Light';}
	.st5{font-size:48px;}
	.st6{fill-rule:evenodd;clip-rule:evenodd;fill:#FFFFFF;}
</style>
<g id="Ebene_2" class="st0">
	<rect class="st1" width="410.6" height="41.2"/>
</g>
<g id="Ebene_1">
	<path class="st2" d="M76.4,17.5c-1.1-1.1-2.6-1.7-4.4-1.7c-3.9,0-7,3.3-7,7.6s3,7.6,7,7.6c1.6,0,3.2-0.7,4.4-1.8v1.4h3.8V16.2h-3.8
		L76.4,17.5L76.4,17.5z M72.7,27.4c-2.1,0-3.8-1.8-3.8-4s1.6-4,3.8-4s3.8,1.8,3.8,4S74.9,27.4,72.7,27.4z M87,10.2h-3.9v20.4H87
		V10.2z M93.5,10.2h-3.9v20.4h3.9L93.5,10.2L93.5,10.2z"/>
	<path class="st2" d="M106.6,9.9c-5.8,0-10.5,4.8-10.5,10.6S100.9,31,106.6,31s10.5-4.8,10.5-10.5C117.1,14.6,112.4,9.9,106.6,9.9
		L106.6,9.9z M106.6,27c-3.6,0-6.4-2.9-6.4-6.7s2.8-6.7,6.4-6.7c3.6,0,6.4,2.9,6.4,6.7S110.2,27,106.6,27z M127.4,15.8
		c-1.6,0-2.9,0.6-3.9,1.6v-1.3h-3.9v14.5h3.9V23c0-2.2,1.2-3.6,2.9-3.6s2.7,1.1,2.7,3.2v8h3.9V22C133,18.2,130.9,15.8,127.4,15.8z
		 M142.7,15.8c-4.1,0-7.2,3.3-7.2,7.6c0,4.4,3,7.6,7.4,7.6c2.8,0,5.2-1.3,6.4-3.8c0.3-0.8,0.4-1.4,0.4-1.4H146
		c-0.7,1.1-1.6,1.8-3.1,1.8c-1.8,0-3.3-1.3-3.6-2.9h10.5v-0.4v-0.8C149.7,19,146.8,15.8,142.7,15.8L142.7,15.8z M142.6,19.1
		c1.6,0,3,1.1,3.3,2.6h-6.6C139.7,20.5,141,19.1,142.6,19.1L142.6,19.1z"/>
	<path class="st2" d="M54.4,9.8C48.7,9.8,44,14.5,44,20.4c0,5.8,4.7,10.5,10.5,10.5c3.9,0,7.4-2.1,9.2-5.5l0.2-0.5h-4.8L59.1,25
		c-1.2,1.3-2.8,2-4.6,2C50.8,27,48,24,48,20.3s2.8-6.7,6.4-6.7c2.3,0,4.4,1.3,5.5,3.3L60,17h4.4l-0.2-0.4
		C62.8,12.6,58.8,9.8,54.4,9.8L54.4,9.8z"/>
	<path class="st2" d="M3.7,20.5c0,9.4,7.6,17,16.8,17c1.3,0,2.6-0.2,3.9-0.5v-9.5c-1.2,0.7-2.5,1-3.9,1c-4.4,0-7.9-3.6-7.9-8
		s3.5-8,7.9-8c1.4,0,2.7,0.4,3.9,1V4c-1.3-0.3-2.6-0.5-3.9-0.5C11.2,3.5,3.7,11.1,3.7,20.5z M28.4,5.5v30c5.3-2.8,8.9-8.5,8.9-15
		S33.7,8.3,28.4,5.5L28.4,5.5z"/>
</g>
<g id="Ebene_3">
	<text transform="matrix(1 0 0 1 167.8373 37.4557)" class="st3 st4 st5">+</text>
</g>
<g id="Ebene_4">
	<polygon class="st2" points="238.3,19.1 232.6,19.1 232.6,12.9 230.4,12.9 230.4,19.1 224.8,19.1 224.8,21.2 230.4,21.2 
		230.4,27.4 232.6,27.4 232.6,21.2 238.3,21.2 	"/>
	<polygon class="st2" points="226.9,29.1 221.9,29.1 221.9,23.6 220,23.6 220,29.1 214.9,29.1 214.9,30.8 220,30.8 220,36.3 
		221.9,36.3 221.9,30.8 226.9,30.8 	"/>
	<polygon class="st2" points="248.2,9.4 243.1,9.4 243.1,3.9 241.2,3.9 241.2,9.4 236.1,9.4 236.1,11.1 241.2,11.1 241.2,16.6 
		243.1,16.6 243.1,11.1 248.2,11.1 	"/>
	<polygon class="st2" points="235.8,35.2 232.4,35.2 232.4,31.4 230.7,31.4 230.7,35.2 227.3,35.2 227.3,36.7 230.7,36.7 
		230.7,40.5 232.4,40.5 232.4,36.7 235.8,36.7 	"/>
	<polygon class="st2" points="226.9,9.4 221.8,9.4 221.8,3.9 220,3.9 220,9.4 214.9,9.4 214.9,11.1 220,11.1 220,16.6 221.8,16.6 
		221.8,11.1 226.9,11.1 	"/>
	<polygon class="st2" points="252,19.4 248.6,19.4 248.6,15.6 247,15.6 247,19.4 243.5,19.4 243.5,20.9 247,20.9 247,24.7 
		248.6,24.7 248.6,20.9 252,20.9 	"/>
	<polygon class="st6" points="248.2,29.1 243.1,29.1 243.1,23.6 241.2,23.6 241.2,29.1 236.1,29.1 236.1,30.8 241.2,30.8 
		241.2,36.3 243.1,36.3 243.1,30.8 248.2,30.8 	"/>
	<polygon class="st2" points="231,0 231,3.8 227.6,3.8 227.6,4.9 231,4.9 231,8.7 232.2,8.7 232.2,4.9 235.6,4.9 235.6,3.8 
		232.2,3.8 232.2,0 	"/>
	<polygon class="st2" points="214.4,15.9 214.4,19.6 211,19.6 211,20.7 214.4,20.7 214.4,24.4 215.6,24.4 215.6,20.7 219,20.7 
		219,19.6 215.6,19.6 215.6,15.9 	"/>
	<g>
		<path class="st6" d="M314.6,17.1c1.2-0.5,2.3-0.6,3-0.6c3.5,0,5.9,2.5,5.9,6.3c0,4-2.5,6.3-6.9,6.3c-1.5,0-3-0.3-4.6-0.8
			l-0.1-17.7h2.6C314.6,10.6,314.6,17.1,314.6,17.1z M316.8,26.7c2.4,0,3.9-1.4,3.9-3.9c0-2.5-1.4-3.9-3.6-3.9c-1,0-1.9,0.3-2.5,0.6
			v6.8C315.4,26.6,316.1,26.7,316.8,26.7"/>
		<rect x="333.5" y="8.1" class="st6" width="2.6" height="23.2"/>
		<path class="st6" d="M349.6,21.4h5.9c-0.1-1.6-0.9-2.4-2.4-2.5C351.5,18.8,350.1,19.8,349.6,21.4 M352.5,29.2
			c-4-0.4-5.9-3.2-5.8-6.5c0.1-3.6,2.4-6.1,6-6.1c3.7,0,5.9,2.8,5.7,6.8h-9c0.2,2.3,1.6,3.3,3.4,3.5c1.5,0.1,3.7-0.2,4.9-1v2.5
			C356.1,29,354.5,29.4,352.5,29.2"/>
		<path class="st6" d="M395.5,27.1c1.7,0,2.8-0.8,2.8-2.7v-7.7h2.6v8c0,2.7-2.1,4.3-5.4,4.3c-3.3,0-5.4-1.6-5.4-4.3v-8h2.6v7.7
			C392.8,26.3,393.9,27.1,395.5,27.1"/>
		<path class="st6" d="M294.7,29.1c-4.4,0-6.9-2.3-6.9-6.3c0-3.9,2.4-6.3,5.9-6.3c1.2,0,2.2,0.3,3,0.8v-0.9h2.6l-0.1,11.9
			C298.1,28.8,296.3,29.1,294.7,29.1 M294.4,26.7c0.6,0,1.3,0,2.2-0.3l0-6.7c-0.8-0.6-1.7-0.8-2.5-0.8c-2.2,0-3.6,1.5-3.6,3.9
			C290.6,25.3,292,26.8,294.4,26.7"/>
		<path class="st6" d="M375.3,29.1c-4.4,0-6.9-2.3-6.9-6.3c0-3.9,2.4-6.3,5.9-6.3c1.2,0,2.2,0.3,3,0.8v-0.9h2.6l-0.1,11.9
			C378.8,28.8,377,29.1,375.3,29.1 M375.1,26.7c0.5,0,1.3,0,2.2-0.3l0-6.7c-0.8-0.6-1.7-0.8-2.5-0.8c-2.2,0-3.6,1.5-3.6,3.9
			C371.2,25.3,372.6,26.7,375.1,26.7"/>
		<polygon class="st2" points="268.7,11.5 271.3,11.5 271.3,18.8 278.3,18.8 278.3,21.2 271.3,21.2 271.3,29.2 268.7,29.2 
			268.7,21.2 261.7,21.2 261.7,18.8 268.7,18.8 		"/>
		<path class="st2" d="M405.2,16.6c0.8,0,1.5,0.7,1.5,1.6c0,0.9-0.7,1.6-1.5,1.6c-0.8,0-1.5-0.7-1.5-1.6
			C403.7,17.3,404.4,16.6,405.2,16.6L405.2,16.6z M405.2,16.9c-0.7,0-1.2,0.6-1.2,1.3c0,0.7,0.6,1.3,1.2,1.3c0.7,0,1.2-0.6,1.2-1.3
			S405.9,16.9,405.2,16.9L405.2,16.9z M404.9,19.1h-0.3v-1.7c0.1,0,0.3,0,0.5,0c0.3,0,0.4,0.1,0.5,0.1c0.1,0.1,0.2,0.2,0.2,0.4
			c0,0.2-0.1,0.4-0.3,0.4v0c0.1,0,0.3,0.2,0.3,0.4c0,0.3,0.1,0.4,0.1,0.4h-0.3c0-0.1-0.1-0.2-0.1-0.4c0-0.2-0.2-0.3-0.4-0.3h-0.2
			V19.1z M404.9,18.1h0.2c0.2,0,0.4-0.1,0.4-0.3c0-0.1-0.1-0.3-0.4-0.3c-0.1,0-0.1,0-0.2,0V18.1z"/>
	</g>
</g>
</svg>
