<?xml version="1.0" encoding="utf-8"?>
<!-- Generator: Adobe Illustrator 23.0.1, SVG Export Plug-In . SVG Version: 6.00 Build 0)  -->
<svg version="1.1" id="Ebene_1" xmlns="http://www.w3.org/2000/svg" xmlns:xlink="http://www.w3.org/1999/xlink" x="0px" y="0px"
	 viewBox="0 0 118.08 35.1" style="enable-background:new 0 0 118.08 35.1;" xml:space="preserve">
<style type="text/css">
	.st0{fill:#4D4D4D;}
	.st1{fill:#25C16F;}
</style>
<g transform="translate(-.190348)">
	<path class="st0" d="M116.26,23.62l-3.51-4.54l3.19-2.56c0.2-0.15,0.32-0.38,0.32-0.63c0.01-0.4-0.3-0.74-0.71-0.76
		c-0.02,0-0.03,0-0.05,0c-0.2-0.01-0.4,0.07-0.54,0.22l-4.58,3.73v-8.19c-0.01-0.43-0.37-0.77-0.8-0.76c0,0,0,0,0,0
		c-0.4-0.01-0.74,0.3-0.76,0.71c0,0.02,0,0.03,0,0.05v13.22c0.01,0.43,0.37,0.77,0.8,0.76c0,0,0,0,0,0c0.4,0.01,0.74-0.3,0.76-0.71
		c0-0.02,0-0.03,0-0.05v-3.19l1.07-0.85l3.54,4.46c0.15,0.21,0.38,0.34,0.63,0.37c0.4,0.01,0.74-0.3,0.76-0.71c0-0.02,0-0.03,0-0.05
		C116.42,23.95,116.37,23.76,116.26,23.62L116.26,23.62z M103.8,19.2c-1.17-0.41-2.12-0.76-2.12-1.61s1.07-1.07,1.66-1.07
		c0.79-0.04,1.56,0.25,2.12,0.8c0.14,0.15,0.33,0.23,0.54,0.22c0.37-0.01,0.67-0.31,0.68-0.68c-0.01-0.18-0.06-0.35-0.17-0.49
		c-0.78-0.92-1.94-1.42-3.15-1.34c-1.97,0-3.19,1.02-3.19,2.56c0,1.93,1.71,2.51,3.19,3.05c1.12,0.37,2.12,0.68,2.12,1.54
		c0,0.85-1.27,1.34-2.02,1.34c-0.92,0.05-1.81-0.3-2.46-0.95c-0.15-0.14-0.33-0.23-0.54-0.27c-0.37,0.01-0.67,0.31-0.68,0.68
		c0.01,0.18,0.06,0.35,0.17,0.49c0.9,1.01,2.21,1.55,3.56,1.49c2.24,0,3.56-1.07,3.56-2.78S105.29,19.72,103.8,19.2z M94.58,16.43
		c1.61,0,2.39,0.9,2.46,2.66h-5.19C92.02,17.38,92.97,16.43,94.58,16.43z M98.58,19.08c0-0.91-0.27-1.8-0.76-2.56
		c-0.75-1.02-1.98-1.58-3.24-1.49c-2.71,0-4.27,1.8-4.27,4.95s1.54,5,4.49,5c1.19,0.04,2.35-0.38,3.24-1.17
		c0.17-0.13,0.27-0.32,0.27-0.54c-0.01-0.37-0.31-0.67-0.68-0.68c-0.15,0-0.3,0.06-0.41,0.17c-0.66,0.54-1.49,0.85-2.34,0.85
		c-1.76,0-2.88-1.17-2.93-3.05h5.73C98.58,20.47,98.58,19.62,98.58,19.08z M84.46,23.57c-1.8,0-2.71-1.17-2.71-3.56
		c0-2.39,0.9-3.56,2.71-3.56c1.09,0.06,2.06,0.69,2.56,1.66v2.78c-0.02,1.66-0.98,2.68-2.58,2.68H84.46z M87.78,10.09
		c-0.4-0.01-0.74,0.3-0.76,0.71c0,0.02,0,0.03,0,0.05v5.22c-0.69-0.69-1.63-1.07-2.61-1.07c-2.76,0-4.14,1.65-4.14,4.95
		c0,3.32,1.49,5,4.27,5s4.1-1.54,4.1-4.1v-9.95c-0.05-0.45-0.42-0.8-0.88-0.8H87.78z M74.83,14.99c-0.98-0.04-1.93,0.37-2.56,1.12
		v-5.22c0.01-0.43-0.32-0.79-0.76-0.8c-0.02,0-0.03,0-0.05,0c-0.4-0.02-0.74,0.3-0.76,0.7c0,0.03,0,0.07,0,0.1v13.22
		c-0.01,0.43,0.32,0.79,0.76,0.8c0,0,0,0,0,0c0.43,0.01,0.79-0.32,0.8-0.76c0-0.02,0-0.03,0-0.05v-4.97c0-1.8,0.85-2.71,2.56-2.71
		c1.71,0,2.29,0.76,2.29,2.56v5.12c-0.01,0.43,0.32,0.79,0.76,0.8c0.02,0,0.03,0,0.05,0c0.4,0.02,0.74-0.3,0.76-0.7
		c0-0.03,0-0.07,0-0.1v-5.39c-0.05-2.46-1.32-3.73-3.88-3.73L74.83,14.99z M65.62,19.2c-1.17-0.41-2.12-0.76-2.12-1.61
		s1.07-1.07,1.66-1.07c0.79-0.04,1.56,0.25,2.12,0.8c0.28,0.28,0.74,0.28,1.02,0c0.15-0.14,0.23-0.33,0.22-0.54
		c-0.01-0.18-0.06-0.35-0.17-0.49c-0.78-0.92-1.94-1.42-3.15-1.34c-1.97,0-3.19,1.02-3.19,2.56c0,1.93,1.71,2.51,3.19,3.05
		c1.12,0.37,2.12,0.68,2.12,1.54c0,0.85-1.27,1.34-2.02,1.34c-0.92,0.05-1.81-0.3-2.46-0.95c-0.15-0.14-0.33-0.23-0.54-0.27
		c-0.37,0.01-0.67,0.31-0.68,0.68c0.01,0.18,0.06,0.35,0.17,0.49c0.87,1.03,2.16,1.62,3.51,1.61c2.24,0,3.56-1.07,3.56-2.78
		s-1.78-2.51-3.27-3.02H65.62z M56.45,16.43c1.61,0,2.39,0.9,2.46,2.66h-5.22c0.17-1.71,1.12-2.66,2.73-2.66H56.45z M60.37,19.08
		c0-0.91-0.27-1.8-0.76-2.56c-0.75-1.02-1.98-1.58-3.24-1.49c-2.71,0-4.27,1.8-4.27,4.95s1.54,5.02,4.46,5.02
		c1.19,0.04,2.35-0.38,3.24-1.17c0.17-0.13,0.27-0.32,0.27-0.54c-0.01-0.37-0.31-0.67-0.68-0.68c-0.15,0-0.3,0.06-0.41,0.17
		c-0.66,0.54-1.49,0.85-2.34,0.85c-1.76,0-2.88-1.17-2.93-3.05h5.75C60.37,20.47,60.37,19.62,60.37,19.08z M50.94,15.04
		c-1.04-0.05-2.04,0.42-2.66,1.27v-0.41c0-0.44-0.36-0.8-0.8-0.8c-0.44,0-0.8,0.36-0.8,0.8l0,0v8.22c-0.01,0.43,0.32,0.79,0.76,0.8
		c0.02,0,0.03,0,0.05,0c0.42,0.03,0.78-0.29,0.8-0.7c0-0.03,0-0.07,0-0.1v-4.54c0-1.93,1.02-3.05,2.66-3.05
		c0.4,0.01,0.74-0.3,0.76-0.71c0-0.02,0-0.03,0-0.05C51.68,15.36,51.35,15.04,50.94,15.04z M44.84,10.62
		c-2.66,0-3.63,1.88-3.63,3.63v1.07H40.7c-0.41-0.07-0.8,0.2-0.88,0.61c-0.07,0.41,0.2,0.8,0.61,0.88c0.09,0.02,0.18,0.02,0.27,0
		h0.54v7.36c-0.01,0.43,0.32,0.79,0.76,0.8c0.02,0,0.03,0,0.05,0c0.42,0.03,0.78-0.29,0.8-0.7c0-0.03,0-0.07,0-0.1v-7.44h1.71
		c0.41-0.07,0.68-0.47,0.61-0.88c-0.06-0.31-0.3-0.55-0.61-0.61h-1.73v-1.07c0-0.95,0.37-2.12,2.07-2.12
		c0.39,0.03,0.73-0.27,0.75-0.66c0-0.01,0-0.02,0-0.03C45.62,10.95,45.27,10.62,44.84,10.62z"/>
	<path class="st1" d="M30.43,1.32H18.24C9.29,1.41,2.06,8.64,2.06,17.6c0,0.01,0,0.01,0,0.02c0.01,8.93,7.26,16.17,16.19,16.16h0.09
		c8.93,0,16.18-7.24,16.18-16.18V5.41c0-0.02,0-0.05,0-0.07C34.51,3.1,32.67,1.3,30.43,1.32z M25.67,21.02
		c0.01,1.15-0.78,2.15-1.9,2.4v0.18c-0.01,1.63-1.33,2.94-2.95,2.95h-2.29c-0.21-0.01-0.38-0.18-0.39-0.39
		c0-0.18,0.2-0.28,0.39-0.28h2.27c1.25-0.02,2.27-1.03,2.29-2.29v-0.09h-1.9V17.7h2.88v-1.62c-0.17-2.93-2.51-5.27-5.44-5.44
		c-3.18-0.18-5.91,2.25-6.09,5.44v1.62h2.84v5.81h-2.1c-1.35-0.03-2.44-1.12-2.47-2.47v-5.05c0-4.11,3.33-7.43,7.43-7.43
		c4.21,0,7.53,3.34,7.43,7.53V21.02z"/>
</g>
</svg>
