<?xml version="1.0" encoding="utf-8"?>
<!-- Generator: Adobe Illustrator 23.0.1, SVG Export Plug-In . SVG Version: 6.00 Build 0)  -->
<svg version="1.1" id="Ebene_1" xmlns="http://www.w3.org/2000/svg" xmlns:xlink="http://www.w3.org/1999/xlink" x="0px" y="0px"
	 viewBox="0 0 692 178" style="enable-background:new 0 0 692 178;" xml:space="preserve">
<style type="text/css">
	.st0{fill-rule:evenodd;clip-rule:evenodd;fill:#FFFFFF;fill-opacity:0;}
	.st1{fill-rule:evenodd;clip-rule:evenodd;fill:#26292C;}
</style>
<title>dark_logo</title>
<g>
	<path class="st0" d="M-64-63h820v305.26H-64V-63z"/>
	<g>
		<path class="st1" d="M45.3,89.36c0-18.05,9.78-24.48,18.93-24.48C75.46,64.88,83,74.65,83,89.19c0,16.59-9.6,24-19.09,24
			C51.12,113.2,45.3,100.83,45.3,89.36z M68.74,43.64c-13.35,0-21.08,6.06-24.81,10.23c-0.45-3.6-2.8-8.28-11.98-8.28H12v21.07h8.18
			c1.39,0,1.83,0.44,1.83,1.84v96.22h23.77v-36.11c0-0.97-0.02-1.89-0.04-2.7c3.71,3.43,10.81,8.18,21.89,8.18
			c23.24,0,39.49-18.59,39.49-45.22C107.12,61.82,91.69,43.64,68.74,43.64"/>
		<path class="st1" d="M139.05,109.4V58.41c0-8.61-4.11-12.81-12.54-12.81h-21.25v21.07h8.18c1.38,0,1.82,0.45,1.82,1.84v50.81
			c0,8.75,3.98,12.81,12.52,12.81h21.27v-20.88h-8.18C139.56,111.25,139.05,110.72,139.05,109.4"/>
		<path class="st1" d="M196.31,113.2c-12.76,0-18.61-12.37-18.61-23.83c0-18.05,9.78-24.48,18.94-24.48
			c11.23,0,18.77,9.77,18.77,24.31C215.41,105.78,205.82,113.2,196.31,113.2 M201.16,43.64c-13.37,0-21.08,6.06-24.82,10.23
			c-0.44-3.6-2.78-8.28-11.97-8.28h-19.96v21.07h8.18c1.38,0,1.82,0.44,1.82,1.84v96.22h23.79v-36.11c0-0.97-0.03-1.89-0.05-2.7
			c3.69,3.43,10.82,8.18,21.89,8.18c23.25,0,39.49-18.59,39.49-45.22C239.52,61.82,224.1,43.64,201.16,43.64 M266.33,76.39
			c2.58-8.49,9.03-13.31,17.94-13.31c7.16,0,12.67,5.5,13.64,13.31H266.33L266.33,76.39z M284.27,43.65
			c-25.62,0-43.53,18.6-43.53,45.23c0,26.2,19.33,45.22,45.96,45.22c20.95,0,33.75-12.52,34.29-13.05l0.96-0.96l-10.36-17.34
			l-1.54,1.47c-0.11,0.08-9.5,8.82-21.91,8.82c-11.91,0-20.63-7.34-22.69-18.85h56.38l0.13-1.58c0.04-0.21,0.51-5.32,0.51-7.82
			C322.46,60.18,307.11,43.65,284.27,43.65L284.27,43.65z M366.54,113.2c-11.31,0-18.62-9.55-18.62-24.32
			c0-14.36,7.61-23.99,18.95-23.99c12.85,0,18.61,11.96,18.61,23.83C385.48,106.78,375.69,113.2,366.54,113.2 M408.93,109.4V25.83
			c0-8.61-4.17-12.81-12.71-12.81h-21.25V34.1h8.18c1.38,0,1.82,0.44,1.82,1.84v15.1c-3.51-3.2-10.36-7.4-22.16-7.4
			c-23.07,0-39.17,18.6-39.17,45.23c0,27.06,15.42,45.22,38.37,45.22c13.11,0,20.68-6.14,24.37-10.43
			c0.48,3.74,2.88,8.46,11.77,8.46h20.6v-20.88h-8.01C409.44,111.25,408.93,110.72,408.93,109.4 M471.67,44.46
			c-9.9,0-19,5.76-24.4,14.94v-1.97c0-7.84-4.29-11.83-12.71-11.83h-20.44v21.07h8.18c1.38,0,1.83,0.44,1.83,1.84v63.62h23.77V97.51
			c0-4.56,0.58-8.95,1.7-13.01c3.58-11.94,13.09-16.19,20.78-16.19c2.73,0,4.71,0.29,4.75,0.3l1.98,0.3V45.05l-1.45-0.25
			C475.59,44.78,473.58,44.46,471.67,44.46 M510.95,109.4V58.41c0-8.61-4.1-12.81-12.53-12.81H479.2v21.07h6.14
			c1.39,0,1.83,0.45,1.83,1.84v50.81c0,8.75,3.99,12.81,12.54,12.81h21.26v-20.88h-8.19C511.46,111.25,510.95,110.72,510.95,109.4"
			/>
		<path class="st1" d="M600.71,45.6h-12.68c-7.41,0-11.39,2.59-13.74,8.96l-15.5,43.69c-0.54,1.62-1.04,3.44-1.47,5.18
			c-0.45-1.74-0.98-3.59-1.57-5.21l-15.5-43.67c-2.38-6.44-6.22-8.95-13.73-8.95h-13.49v21.07h3.5c1.86,0,2.46,0.64,2.9,1.81
			l23.99,63.65h26.74l23.99-63.65c0.44-1.17,1.05-1.81,2.91-1.81h3.65V45.6L600.71,45.6z M623.71,76.39
			c2.61-8.49,9.03-13.31,17.93-13.31c7.18,0,12.68,5.5,13.65,13.31H623.71z M641.64,43.65c-25.61,0-43.51,18.6-43.51,45.23
			c0,26.2,19.31,45.22,45.94,45.22c20.96,0,33.77-12.52,34.3-13.05l0.97-0.96L669,102.75l-1.58,1.47c-0.08,0.08-9.53,8.82-21.9,8.82
			c-11.92,0-20.64-7.34-22.7-18.85h56.4l0.13-1.58c0.03-0.21,0.51-5.32,0.51-7.82C679.86,60.18,664.5,43.65,641.64,43.65z
			 M137.42,13.03h-21.19v22.53h21.2L137.42,13.03z M509.34,13.03h-21.2v22.53h21.2V13.03z"/>
	</g>
</g>
</svg>
