<?xml version="1.0" encoding="utf-8"?>
<!-- Generator: Adobe Illustrator 23.0.6, SVG Export Plug-In . SVG Version: 6.00 Build 0)  -->
<!DOCTYPE svg PUBLIC "-//W3C//DTD SVG 1.1//EN" "http://www.w3.org/Graphics/SVG/1.1/DTD/svg11.dtd" [
	<!ENTITY ns_extend "http://ns.adobe.com/Extensibility/1.0/">
	<!ENTITY ns_ai "http://ns.adobe.com/AdobeIllustrator/10.0/">
	<!ENTITY ns_graphs "http://ns.adobe.com/Graphs/1.0/">
	<!ENTITY ns_vars "http://ns.adobe.com/Variables/1.0/">
	<!ENTITY ns_imrep "http://ns.adobe.com/ImageReplacement/1.0/">
	<!ENTITY ns_sfw "http://ns.adobe.com/SaveForWeb/1.0/">
	<!ENTITY ns_custom "http://ns.adobe.com/GenericCustomNamespace/1.0/">
	<!ENTITY ns_adobe_xpath "http://ns.adobe.com/XPath/1.0/">
]>
<svg version="1.1" id="Ebene_1" xmlns:x="&ns_extend;" xmlns:i="&ns_ai;" xmlns:graph="&ns_graphs;"
	 xmlns="http://www.w3.org/2000/svg" xmlns:xlink="http://www.w3.org/1999/xlink" x="0px" y="0px" viewBox="0 0 610 290"
	 style="enable-background:new 0 0 610 290;" xml:space="preserve">
<style type="text/css">
	.st0{fill-rule:evenodd;clip-rule:evenodd;fill:#3DA784;}
</style>
<metadata>
	<sfw  xmlns="&ns_sfw;">
		<slices></slices>
		<sliceSourceBounds  bottomLeftOrigin="true" height="109" width="518" x="380" y="457"></sliceSourceBounds>
	</sfw>
</metadata>
<g>
	<g>
		<path class="st0" d="M70.1,96.3H45l38.3,58l-2.1,41.6h23.3l2.4-41.9l-0.1-0.1l42.6-58.1h-25.1l-28.4,40.3l-0.1-0.2L70.1,96.3
			L70.1,96.3z M427.7,120.3H404l-4.1,74.8h23.8l3-52.9c27.9-13.6,26.9,6.2,26.9,6.2l-2.2,46.7h23.5l3.3-49.1c0,0,2.6-25.4-19-27.5
			s-31.8,10.3-31.8,10.3L427.7,120.3L427.7,120.3z M362.2,91h24.2l-1,18.5h-24.1L362.2,91L362.2,91z M384.8,120.2l-4.2,75.1h-24
			l4.1-75.1H384.8L384.8,120.2z M492.1,93h20.7l-2.6,53l30.4-29.6H563L531,148l24.1,46.7h-21.5l-16.6-35.3l-7.9,8.6l-1.3,26.8h-20.6
			L492.1,93L492.1,93z M319.1,91h24.2l-5.8,104.4h-24L319.1,91L319.1,91z M287.1,119.5l-0.6,9.2c-4.8-6.6-14-13.4-31-10.9
			c-30.5,4.6-41,37.5-34.6,56.5c6.4,19,24.2,26.1,37.5,25.1c12.9-1,19.3-4.2,24-11.4l-0.5,7.8h17.7l5.7-76.3L287.1,119.5
			L287.1,119.5z M261.1,135.7c12.3,0,21.7,10.2,20.9,22.9c-0.7,12.6-11.3,22.9-23.6,22.9s-21.7-10.2-20.9-22.9
			C238.2,146,248.8,135.7,261.1,135.7L261.1,135.7z M169.2,113.6c23.8,0,43.2,19.3,43.2,43.2c0,3-0.3,5.9-0.9,8.8H194l0.1-0.2h-49.5
			c3.4,10.5,13.2,18,24.7,18c6.7,0,12.7-2.5,17.3-6.6h20.8c-7.2,13.8-21.6,23.2-38.3,23.2c-23.8,0-43.2-19.3-43.2-43.2
			S145.3,113.6,169.2,113.6L169.2,113.6z M143.9,152.1h50.9c-2.4-11.8-12.9-20.7-25.5-20.7S146.3,140.3,143.9,152.1L143.9,152.1z"/>
	</g>
</g>
</svg>
