<?xml version="1.0" encoding="utf-8"?>
<!-- Generator: Adobe Illustrator 23.0.2, SVG Export Plug-In . SVG Version: 6.00 Build 0)  -->
<svg version="1.1" id="Ebene_1" xmlns="http://www.w3.org/2000/svg" xmlns:xlink="http://www.w3.org/1999/xlink" x="0px" y="0px"
	 viewBox="0 0 499.4 189.7" style="enable-background:new 0 0 499.4 189.7;" xml:space="preserve">
<style type="text/css">
	.st0{fill:#231F20;}
	.st1{fill:#FFFFFF;}
	.st2{fill:#ED1C24;}
	.st3{fill:#ED1C24;stroke:#000000;stroke-miterlimit:10;}
</style>
<g transform="matrix(.1 0 0 -.1 -175.7435 435.1935)">
	<g>
		<path class="st0" d="M4326.6,2556.4c-209.5,0-311.4,98-311.4,299.6v647h-172.8v218.1h172.8v287.1l277.3,38.6v-325.7h295.3
			l-18-218.1h-277.3v-609.2c0-71.3,37-107.5,109.9-107.5c38.6,0,88,7.8,139.6,22.1l31.5-209.2
			C4509.6,2573.6,4395.5,2556.4,4326.6,2556.4"/>
		<path class="st0" d="M5072.6,3261.3c114.2,0,146.3,32.1,146.3,110.7v73.2c0,74.9-32.1,91-144.6,91c-78.5,0-157-8.9-246.3-25
			l-26.8,201.7c101.7,21.4,191,32.1,296.3,32.1c298.1,0,378.4-89.3,378.4-267.7v-83.9c0-105.3-35.7-185.6-119.6-237.4
			c99.9-44.6,141-107.1,141-219.6v-91c0-174.9-82.1-289.1-406.9-289.1c-108.9,0-199.9,8.9-292.7,39.3l26.8,198.1
			c87.5-16.1,153.5-23.2,257-23.2c125,0,158.9,25,158.9,94.6v82.1c0,66-41,94.6-130.3,94.6h-235.6v219.5L5072.6,3261.3"/>
		<path class="st0" d="M6660.2,2577.9h-277.3v798.9c0,66.9-31.1,98-98.1,98c-68.5,0-193.1-40.2-303.2-97.7l-3.1-1.6v-797.6h-277.3
			v1141h210.1l27.2-92.9l1.9-6.5l6.1,3c148.4,73,328.5,120.1,458.9,120.1c171.3,0,254.6-109.6,254.6-335.1L6660.2,2577.9"/>
	</g>
	<g>
		<path class="st1" d="M3642.5,2466.3H2339.4c-320.9,0-581.9,261.2-581.9,582.3v721c0,321.1,261.1,582.3,581.9,582.3H3060
			c320.9,0,582-261.2,582-582.3l0.5-1189.9L3642.5,2466.3"/>
		<g>
			<path class="st2" d="M1868.9,3771.5c0,259.3,210.2,469.5,469.5,469.5h722.1c35.5,0,70.1-3.9,103.4-11.4
				c-16.4-367.3-278.1-566.7-396-607.9c-274.5,122.3-615.8,171.4-899.1,129.7V3771.5"/>
			<path class="st3" d="M2703.6,2579.9h-365.2c-259.3,0-469.5,210.2-469.5,469.6v503c243.6-33,487.1-140.9,625.5-276.5
				C2477.9,3040.3,2511.7,2857,2703.6,2579.9"/>
			<path class="st2" d="M3329.8,4156.2c121.1-84.9,200.2-225.6,200.2-384.7l0.5-1191.6h-565.2c-95.6,269.5-77.5,476.1-60.8,616
				c26.1,8.6,50.1,20.8,73.5,38.6C3239.3,3418.2,3337.6,3794.2,3329.8,4156.2"/>
		</g>
	</g>
</g>
</svg>
