<?xml version="1.0" encoding="utf-8"?>
<!-- Generator: Adobe Illustrator 23.0.1, SVG Export Plug-In . SVG Version: 6.00 Build 0)  -->
<svg version="1.1" id="Layer_1" xmlns="http://www.w3.org/2000/svg" xmlns:xlink="http://www.w3.org/1999/xlink" x="0px" y="0px"
	 viewBox="0 0 648.37 170.77" style="enable-background:new 0 0 648.37 170.77;" xml:space="preserve">
<style type="text/css">
	.st0{fill:#77787A;}
	.st1{fill:#FFFFFF;}
	.st2{fill-opacity:0.1;}
	.st3{fill:url(#circle53_2_);}
	.st4{fill:url(#path55_2_);}
	.st5{fill:url(#path57_2_);}
	.st6{fill:url(#path59_2_);}
	.st7{fill:url(#path61_2_);}
	.st8{fill:url(#path63_2_);}
	.st9{fill:url(#path65_2_);}
</style>
<g>
	<g>
		<path class="st0" d="M247.19,120c-3.31,1.58-10.66,4.03-20.02,4.03c-21.02,0-34.7-14.26-34.7-35.57
			c0-21.46,14.69-37.15,37.44-37.15c7.49,0,14.11,1.87,17.57,3.74l-2.88,9.65c-3.02-1.58-7.77-3.31-14.69-3.31
			c-15.98,0-24.62,11.95-24.62,26.35c0,16.13,10.37,26.06,24.19,26.06c7.2,0,11.95-1.73,15.55-3.31L247.19,120z"/>
		<path class="st0" d="M262.02,20.21h12.67v43.63h0.29c2.02-3.6,5.18-6.91,9.07-9.07c3.74-2.16,8.21-3.46,12.96-3.46
			c9.36,0,24.34,5.76,24.34,29.66v41.47h-12.67V82.42c0-11.23-4.18-20.59-16.13-20.59c-8.21,0-14.54,5.76-16.99,12.53
			c-0.72,1.87-0.86,3.74-0.86,6.05v42.05h-12.67L262.02,20.21L262.02,20.21z"/>
		<path class="st0" d="M341.94,74.5c0-8.21-0.14-15.26-0.58-21.74h11.09l0.58,13.82h0.43c3.17-9.36,10.94-15.26,19.44-15.26
			c1.3,0,2.3,0.15,3.45,0.29v11.95c-1.3-0.29-2.59-0.29-4.32-0.29c-8.93,0-15.27,6.62-16.99,16.13c-0.29,1.73-0.43,3.89-0.43,5.9
			v37.15h-12.67V74.5z"/>
		<path class="st0" d="M450.66,87.02c0,25.78-18,37.01-34.7,37.01c-18.72,0-33.41-13.82-33.41-35.85
			c0-23.18,15.41-36.86,34.56-36.86C437.12,51.31,450.66,65.86,450.66,87.02z M395.51,87.74c0,15.26,8.64,26.78,21.02,26.78
			c12.1,0,21.17-11.38,21.17-27.07c0-11.81-5.9-26.64-20.88-26.64C401.99,60.81,395.51,74.64,395.51,87.74z"/>
		<path class="st0" d="M466.64,71.61c0-7.35-0.29-13.1-0.58-18.86h11.09l0.58,11.38h0.43c3.89-6.62,10.37-12.82,22.03-12.82
			c9.36,0,16.56,5.76,19.58,13.97h0.29c2.16-4.03,5.04-6.91,7.92-9.07c4.18-3.17,8.64-4.9,15.26-4.9c9.36,0,23.04,6.05,23.04,30.24
			v40.9h-12.38V83.14c0-13.54-5.04-21.46-15.12-21.46c-7.34,0-12.82,5.33-15.12,11.38c-0.58,1.87-1.01,4.03-1.01,6.34v43.06h-12.38
			V80.69c0-11.09-4.9-19.01-14.54-19.01c-7.78,0-13.68,6.34-15.7,12.67c-0.72,1.73-1.01,4.03-1.01,6.19v41.9h-12.39V71.61z"/>
		<path class="st0" d="M593.8,89.9c0.29,17.14,11.09,24.19,23.9,24.19c9.07,0,14.69-1.58,19.3-3.6l2.3,9.07
			c-4.46,2.02-12.24,4.46-23.33,4.46c-21.46,0-34.27-14.26-34.27-35.28c0-21.02,12.38-37.44,32.69-37.44
			c22.9,0,28.8,19.87,28.8,32.69c0,2.59-0.15,4.46-0.43,5.9L593.8,89.9L593.8,89.9z M630.95,80.83c0.15-7.92-3.31-20.45-17.57-20.45
			c-12.96,0-18.43,11.66-19.44,20.45H630.95z"/>
	</g>
</g>
<circle id="circle47_1_" class="st1" cx="85.31" cy="85.71" r="83.81"/>
<path id="path49_1_" class="st2" d="M138.64,100.95c0-29.45-23.88-53.33-53.33-53.33c-29.45,0-53.33,23.88-53.33,53.33h15.24
	c0-21.04,17.06-38.09,38.09-38.09s38.09,17.06,38.09,38.09"/>
<circle id="circle51_1_" class="st2" cx="89.12" cy="96.38" r="28.95"/>
<linearGradient id="circle53_2_" gradientUnits="userSpaceOnUse" x1="-486.8251" y1="20.9973" x2="-486.8251" y2="21.7591" gradientTransform="matrix(82 0 0 82 40004.9688 -1667.3008)">
	<stop  offset="0" style="stop-color:#81B4E0"/>
	<stop  offset="1" style="stop-color:#0C5A94"/>
</linearGradient>
<circle id="circle53_1_" class="st3" cx="85.31" cy="85.71" r="31.24"/>
<linearGradient id="path55_2_" gradientUnits="userSpaceOnUse" x1="-114.5195" y1="773.6082" x2="-114.5195" y2="842.9379" gradientTransform="matrix(1 0 0 1 202.5 -773.2241)">
	<stop  offset="0" style="stop-color:#F06B59"/>
	<stop  offset="1" style="stop-color:#DF2227"/>
</linearGradient>
<path id="path55_1_" class="st4" d="M161.5,47.62C140.52,5.42,89.31-11.79,47.11,9.19c-13.16,6.54-24.41,16.37-32.65,28.53
	l34.28,59.42c-6.31-20.07,4.84-41.46,24.91-47.77c3.53-1.11,7.2-1.7,10.9-1.75"/>
<linearGradient id="path57_2_" gradientUnits="userSpaceOnUse" x1="-181.7386" y1="919.5891" x2="-146.6936" y2="861.6887" gradientTransform="matrix(1 0 0 1 202.5 -773.2241)">
	<stop  offset="0" style="stop-color:#388B41"/>
	<stop  offset="1" style="stop-color:#4CB749"/>
</linearGradient>
<path id="path57_1_" class="st5" d="M14.46,37.72C-11.78,76.86-1.32,129.86,37.82,156.1c12.11,8.12,26.1,13,40.63,14.18l35.81-60.95
	c-13.39,16.23-37.4,18.53-53.63,5.14c-5.51-4.55-9.63-10.55-11.9-17.33"/>
<linearGradient id="path59_2_" gradientUnits="userSpaceOnUse" x1="-64.3377" y1="925.7479" x2="-101.6686" y2="835.8491" gradientTransform="matrix(1 0 0 1 202.5 -773.2241)">
	<stop  offset="0" style="stop-color:#E4B022"/>
	<stop  offset="0.3" style="stop-color:#FCD209"/>
</linearGradient>
<path id="path59_1_" class="st6" d="M78.46,170.28c46.99,3.55,87.96-31.66,91.52-78.65c1.15-15.16-1.78-30.35-8.48-44.01H84.55
	c21.04,0.1,38.01,17.23,37.92,38.27c-0.04,8.51-2.93,16.77-8.21,23.44"/>
<linearGradient id="path61_2_" gradientUnits="userSpaceOnUse" x1="-170.1355" y1="868.0798" x2="-170.1355" y2="807.1317" gradientTransform="matrix(1 0 0 1 202.5 -773.2241)">
	<stop  offset="0" style="stop-color:#000000;stop-opacity:0.15"/>
	<stop  offset="0.3" style="stop-color:#000000;stop-opacity:0.06"/>
	<stop  offset="1" style="stop-color:#000000;stop-opacity:0.03"/>
</linearGradient>
<path id="path61_1_" class="st7" d="M14.46,37.72l34.28,59.42c-2.54-8.55-2-17.71,1.52-25.9L15.98,35.43"/>
<linearGradient id="path63_2_" gradientUnits="userSpaceOnUse" x1="-86.009" y1="887.7618" x2="-127.9107" y2="930.4254" gradientTransform="matrix(1 0 0 1 202.5 -773.2241)">
	<stop  offset="0" style="stop-color:#000000;stop-opacity:0.15"/>
	<stop  offset="0.3" style="stop-color:#000000;stop-opacity:0.06"/>
	<stop  offset="1" style="stop-color:#000000;stop-opacity:0.03"/>
</linearGradient>
<path id="path63_1_" class="st8" d="M78.46,170.28l35.81-60.95c-5.65,6.74-13.46,11.31-22.09,12.95l-15.24,48"/>
<linearGradient id="path65_2_" gradientUnits="userSpaceOnUse" x1="-86.6163" y1="900.0358" x2="-80.5217" y2="839.8517" gradientTransform="matrix(1 0 0 1 202.5 -773.2241)">
	<stop  offset="0" style="stop-color:#000000;stop-opacity:0.15"/>
	<stop  offset="0.3" style="stop-color:#000000;stop-opacity:0.06"/>
	<stop  offset="1" style="stop-color:#000000;stop-opacity:0.03"/>
</linearGradient>
<path id="path65_1_" class="st9" d="M161.5,47.62H84.55c11.59,0.05,22.53,5.38,29.71,14.48l48.76-12.19"/>
</svg>
