<?xml version="1.0" encoding="utf-8"?>
<!-- Generator: Adobe Illustrator 23.0.1, SVG Export Plug-In . SVG Version: 6.00 Build 0)  -->
<svg version="1.1" id="Layer_1" xmlns="http://www.w3.org/2000/svg" xmlns:xlink="http://www.w3.org/1999/xlink" x="0px" y="0px"
	 viewBox="0 0 348.5 58.2" style="enable-background:new 0 0 348.5 58.2;" xml:space="preserve">
<style type="text/css">
	.st0{fill:#8DC63F;}
	.st1{fill:#3D4351;}
</style>
<g>
	<path class="st0" d="M0,0v58.2h58.1V0H0z M42.8,42c0,0.2-0.2,0.6-0.3,0.7c0,0-4.4,2.9-10.7,2.9c-8.6,0-15.6-6.9-15.6-15.5
		c-0.1-8.7,6.9-15.6,15.5-15.6c4.4,0,7.5,1.5,10.5,4c0.3,0.3,0.4,0.9,0,1.2c-0.4,0.4-0.9,0.8-1.2,1.2c-0.4,0.4-0.6,0.4-1.1,0
		c-2.2-1.9-5.3-3.4-8.2-3.4c-6.8,0-12,5.7-12,12.4s5.2,12.5,12,12.5c4.8,0,7.8-1.8,7.8-1.8v-6.1h-5c-0.5,0-0.8-0.3-0.8-0.8v-1.6
		c0-0.5,0.3-0.8,0.8-0.8H42c0.4,0,0.8,0.4,0.8,0.8V42z"/>
	<path class="st1" d="M96.9,19.1c2.9,0,5.3,1.1,7.4,2.8c0.2,0.2,0.3,0.6,0,0.9l-1.4,1.4c-0.2,0.3-0.5,0.2-0.8,0
		c-1.4-1.2-3.3-2.1-5.2-2.1c-4.3,0-7.6,3.6-7.6,7.9c0,4.2,3.3,7.9,7.6,7.9c2.5,0,4.3-0.9,4.6-1v-3.4h-3c-0.3,0-0.6-0.2-0.6-0.5v-1.8
		c0-0.3,0.2-0.6,0.6-0.6h5.5c0.3,0,0.5,0.3,0.5,0.6v7.4c0,0.2-0.1,0.4-0.2,0.5c0,0-3.1,2-7.5,2c-6.1,0-11-4.8-11-10.9
		S90.9,19.1,96.9,19.1L96.9,19.1z M115.6,20c0-0.3,0.2-0.6,0.6-0.6h12.2c0.3,0,0.6,0.3,0.6,0.6v1.7c0,0.3-0.2,0.6-0.6,0.6h-9.6v6.2
		h8.1c0.3,0,0.6,0.3,0.6,0.6v1.7c0,0.3-0.3,0.6-0.6,0.6h-8.1v6.5h9.6c0.3,0,0.6,0.3,0.6,0.6v1.7c0,0.3-0.2,0.6-0.6,0.6h-12.2
		c-0.3,0-0.6-0.3-0.6-0.6V20z M148.9,19.1c3.1,0,5.3,1,7.4,2.8c0.3,0.2,0.3,0.6,0,0.9l-1.3,1.4c-0.2,0.3-0.5,0.3-0.8,0
		c-1.4-1.2-3.4-2-5.3-2c-4.3,0-7.6,3.6-7.6,7.9s3.3,7.9,7.7,7.9c2.2,0,3.8-0.9,5.2-2c0.3-0.2,0.5-0.2,0.7,0l1.4,1.4
		c0.2,0.2,0.2,0.6,0,0.8c-2.1,2-4.7,3-7.4,3c-6.1,0-11-4.8-11-10.9S142.8,19.1,148.9,19.1L148.9,19.1z M166.7,20.1
		c0-0.4,0.3-0.7,0.7-0.7h1.8c0.4,0,0.7,0.3,0.7,0.7v8.4l8.6-8.9c0.1-0.2,0.3-0.3,0.6-0.3h2.3c0.5,0,0.9,0.6,0.4,1.1l-8.8,8.9
		l9.3,10.3c0.2,0.3,0.1,1-0.5,1h-2.4c-0.3,0-0.5-0.1-0.5-0.2l-8.9-10V40c0,0.4-0.3,0.7-0.7,0.7h-1.8c-0.4,0-0.7-0.3-0.7-0.7
		L166.7,20.1L166.7,20.1z M200.7,19.1c6.1,0,11,4.9,11,11s-4.9,10.9-11,10.9s-10.9-4.8-10.9-10.9S194.6,19.1,200.7,19.1z
		 M200.7,37.9c4.3,0,7.9-3.5,7.9-7.9c0-4.3-3.6-7.9-7.9-7.9c-4.3,0-7.9,3.6-7.9,7.9C192.8,34.4,196.4,37.9,200.7,37.9z M222.1,20
		c0-0.3,0.2-0.6,0.6-0.6h6.8c3.7,0,6.3,2.4,6.3,5.6c0,2.3-1.7,4-3.2,4.8c1.6,0.7,3.8,2.2,3.8,5c0,3.4-2.8,5.9-6.6,5.9h-7.1
		c-0.3,0-0.6-0.3-0.6-0.6V20L222.1,20z M229.8,37.9c1.9,0,3.3-1.4,3.3-3.3c0-1.9-1.8-3.2-3.7-3.2h-4.2v6.5H229.8L229.8,37.9z
		 M229.3,28.6c1.9,0,3.1-1.4,3.1-3.3s-1.2-3.1-3.1-3.1h-4.1v6.4H229.3z M256.5,19.1c6.1,0,11,4.9,11,11s-4.9,10.9-11,10.9
		s-10.9-4.8-10.9-10.9S250.4,19.1,256.5,19.1z M256.5,37.9c4.3,0,7.9-3.5,7.9-7.9c0-4.3-3.6-7.9-7.9-7.9s-7.9,3.6-7.9,7.9
		C248.6,34.4,252.1,37.9,256.5,37.9z M274.9,39.9l9.3-20.5c0.1-0.2,0.4-0.3,0.5-0.3h0.3c0.2,0,0.4,0.2,0.5,0.3l9.3,20.5
		c0.2,0.4-0.1,0.8-0.5,0.8h-1.9c-0.4,0-0.6-0.2-0.7-0.5l-1.9-4.2h-9.9l-1.9,4.2c-0.1,0.2-0.3,0.5-0.7,0.5h-1.9
		C274.9,40.7,274.7,40.3,274.9,39.9L274.9,39.9z M288.6,33.4l-3.7-8.3h-0.2l-3.7,8.3H288.6z M303.9,20c0-0.3,0.2-0.6,0.6-0.6h8.3
		c3.6,0,6.6,2.9,6.6,6.5c0,2.8-1.9,5.1-4.5,6.2l4.2,7.7c0.2,0.4,0,0.9-0.5,0.9h-2.4c-0.2,0-0.4-0.2-0.5-0.3l-4-8.1h-4.6v7.8
		c0,0.3-0.3,0.6-0.6,0.6h-2c-0.3,0-0.6-0.3-0.6-0.6C303.9,40.1,303.9,20,303.9,20L303.9,20z M312.6,29.7c2,0,3.7-1.7,3.7-3.8
		c0-2-1.7-3.6-3.7-3.6h-5.4v7.4H312.6z M330.3,20c0-0.3,0.2-0.6,0.5-0.6h7c5.9,0,10.7,4.8,10.7,10.6c0,5.9-4.8,10.7-10.7,10.7h-7
		c-0.3,0-0.5-0.3-0.5-0.6V20z M337.4,37.8c4.5,0,7.7-3.3,7.7-7.8s-3.3-7.7-7.7-7.7h-4v15.5H337.4z"/>
</g>
</svg>
