<?xml version="1.0" encoding="utf-8"?>
<!-- Generator: Adobe Illustrator 23.0.1, SVG Export Plug-In . SVG Version: 6.00 Build 0)  -->
<svg version="1.1" id="Layer_1" xmlns="http://www.w3.org/2000/svg" xmlns:xlink="http://www.w3.org/1999/xlink" x="0px" y="0px"
	 viewBox="0 0 580.76 208.2" style="enable-background:new 0 0 580.76 208.2;" xml:space="preserve">
<style type="text/css">
	.st0{fill:#DC7E28;}
	.st1{fill:#FDD600;}
	.st2{fill:#90C7EA;}
	.st3{fill:#0B98D5;}
	.st4{fill:#95CEA0;}
	.st5{fill:#69BF6D;}
	.st6{fill:#761216;}
	.st7{fill:url(#SVGID_1_);}
	.st8{fill:#FFFFFF;}
	.st9{fill:url(#SVGID_2_);}
	.st10{fill:url(#SVGID_3_);}
	.st11{fill:url(#SVGID_4_);}
	.st12{fill:url(#SVGID_5_);}
	.st13{fill:url(#SVGID_6_);}
	.st14{fill:#EC473F;}
</style>
<g>
	<g>
		<polygon class="st0" points="571.55,47.23 571.55,180.6 553.43,198.74 553.43,68.14 		"/>
		<polygon class="st1" points="450.57,47.31 431.47,68.14 553.43,68.14 571.55,47.23 		"/>
	</g>
	<polygon class="st2" points="299.53,53.03 419.49,36.36 409.45,65.12 291.13,81.27 	"/>
	<polyline class="st3" points="409.45,65.12 426.07,182.11 435.14,156.86 419.58,37.06 419.49,36.36 	"/>
	<polygon class="st4" points="187.18,5.82 198.2,43.06 304.4,90.98 295.48,55.4 	"/>
	<polygon class="st5" points="187.18,5.82 144.43,107.27 150.28,151.85 198.2,43.06 	"/>
	<polygon class="st6" points="135.96,23.03 153.34,139.27 145.43,180.08 127.93,64.95 	"/>
	<g>
		<linearGradient id="SVGID_1_" gradientUnits="userSpaceOnUse" x1="295.377" y1="81.1452" x2="420.1374" y2="181.3315">
			<stop  offset="5.618000e-03" style="stop-color:#1E8ACA"/>
			<stop  offset="1" style="stop-color:#01659E"/>
		</linearGradient>
		<path class="st7" d="M409.45,65.12L291.13,81.27l16.65,117.47l118.29-16.62L409.45,65.12z M399.7,175.61
			c-1.4,2.33-3.74,3.73-6.8,4.18c-0.62,0.09-1.23,0.14-1.82,0.14c-2.3,0-4.32-0.72-5.96-2.16c-2.06-1.81-3.32-4.56-3.85-8.15
			l-4.76-31.28l-34.01,5l4.75,31.28c0.15,1.01,0.22,1.97,0.22,2.89c0,2.29-0.48,4.29-1.45,5.96c-1.36,2.35-3.63,3.76-6.55,4.19
			c-0.69,0.1-1.35,0.15-1.99,0.15c-2.34,0-4.39-0.7-6.02-2.09c-2.09-1.79-3.37-4.55-3.9-8.19l-11.64-79.17
			c-0.15-1.02-0.23-1.99-0.23-2.91c0-2.39,0.52-4.45,1.59-6.11c1.48-2.31,3.92-3.71,7.12-4.17c0.56-0.08,1.1-0.12,1.64-0.12
			c2.25-0.01,4.25,0.77,5.85,2.28c1.98,1.87,3.21,4.61,3.73,8.15l4.31,30.45l34.01-5.01l-4.32-30.44c-0.15-1-0.22-1.95-0.22-2.85
			c0-2.35,0.51-4.4,1.56-6.1c1.44-2.35,3.79-3.77,6.86-4.21c0.63-0.09,1.23-0.14,1.81-0.14c2.29,0,4.3,0.73,5.9,2.18
			c2.01,1.82,3.25,4.59,3.79,8.22l11.64,79.17c0.15,1.02,0.22,1.98,0.22,2.9C401.19,171.93,400.71,173.95,399.7,175.61z"/>
		<polygon class="st8" points="87.79,131.69 87.79,131.69 87.79,131.7 		"/>
		<linearGradient id="SVGID_2_" gradientUnits="userSpaceOnUse" x1="68.7494" y1="75.8841" x2="87.5505" y2="189.3881">
			<stop  offset="0" style="stop-color:#D81F32"/>
			<stop  offset="1" style="stop-color:#BB2637"/>
		</linearGradient>
		<path class="st9" d="M127.93,64.95L9.21,83.13l18.85,115.35l117.37-18.4L127.93,64.95z M114.48,173.85
			c-2.32,1.91-6.33,3.28-12.08,4.27l-32.48,5.55c-5.11,0.87-9.15,1.31-12.15,1.31c-2.36-0.01-4.08-0.26-5.25-0.89
			c-1.25-0.69-2.27-1.86-3.07-3.41c-0.8-1.57-1.39-3.54-1.8-5.94c-0.29-1.67-0.43-3.4-0.43-5.18c0-2.49,0.28-5.08,0.83-7.79
			c0.95-4.63,2.67-9.34,5.16-14.12l0,0c0,0,0,0,0-0.01c3.5-6.94,9.29-15.29,17.37-25.08c2.07-2.6,3.61-4.51,4.61-5.75
			c3.54-4.51,5.76-8.05,6.65-10.53c0.65-1.8,0.97-3.63,0.97-5.5c0-0.52-0.04-1.05-0.09-1.58l-29.96,5.05
			c-1.74,0.3-3.33,0.45-4.78,0.45c-2.13,0-3.95-0.33-5.46-1.01c-2.56-1.13-4.14-3.36-4.64-6.41c-0.11-0.63-0.16-1.24-0.16-1.84
			c-0.01-2.26,0.83-4.24,2.45-5.76c2.04-1.92,5.24-3.2,9.58-3.94l35.8-6.13c2.69-0.46,4.99-0.69,6.91-0.69c2.32,0,4.1,0.33,5.36,1.1
			c1.12,0.69,2.03,1.79,2.74,3.23c0.71,1.44,1.25,3.24,1.62,5.41c0.41,2.37,0.61,4.79,0.61,7.24c0,0.92-0.03,1.85-0.08,2.79
			c-0.21,3.42-0.8,6.81-1.76,10.18c-1.68,5.94-6.07,13.51-13.15,22.8l0,0l0,0h0c-1.07,1.42-1.89,2.5-2.48,3.24
			c-0.82,1.1-2.02,2.69-3.58,4.78l0,0c-4.55,5.99-7.99,11.13-10.32,15.42c-2.09,3.82-3.28,6.96-3.6,9.35l30.98-5.29
			c2.7-0.46,5.09-0.7,7.19-0.7c2.22,0,4.11,0.26,5.67,0.81c1.52,0.53,2.76,1.35,3.69,2.45c0.93,1.1,1.52,2.48,1.79,4.08
			c0.12,0.67,0.17,1.32,0.17,1.94C117.3,170.23,116.33,172.33,114.48,173.85z"/>
		<g>
			<linearGradient id="SVGID_3_" gradientUnits="userSpaceOnUse" x1="227.2238" y1="106.5155" x2="227.2238" y2="152.0638">
				<stop  offset="0" style="stop-color:#269F49"/>
				<stop  offset="1" style="stop-color:#008A54"/>
			</linearGradient>
			<path class="st10" d="M240.23,90.6c-3.49-1.48-6.86-2.21-10.12-2.21c-3.73,0-7.32,0.96-10.81,2.88
				c-6.54,3.6-11.88,10.19-15.98,19.84c-2.67,6.29-3.99,12.08-3.99,17.35c0,2.66,0.34,5.2,1.01,7.61c2,7.18,6.63,12.27,14.07,15.44
				c3.43,1.45,6.76,2.17,9.99,2.17c3.71,0,7.3-0.95,10.81-2.87c6.54-3.58,11.82-10.05,15.82-19.47c2.75-6.49,4.11-12.43,4.11-17.82
				c0-2.61-0.32-5.1-0.96-7.46C252.19,98.84,247.61,93.74,240.23,90.6z"/>
			<linearGradient id="SVGID_4_" gradientUnits="userSpaceOnUse" x1="227.3422" y1="86.5786" x2="227.3422" y2="195.9038">
				<stop  offset="0" style="stop-color:#269F49"/>
				<stop  offset="1" style="stop-color:#008A54"/>
			</linearGradient>
			<path class="st11" d="M198.2,43.06l-47.92,108.79l106.2,47.92L304.4,90.98L198.2,43.06z M270.76,139.68
				c-2.88,6.78-6.64,12.61-11.3,17.48c-4.66,4.86-10.12,8.7-16.38,11.5l0,0l-0.01,0c-5.95,2.56-11.97,3.86-18.05,3.89h-0.15
				c-6.02,0-11.96-1.24-17.82-3.73v0c-6.12-2.59-11.29-6.08-15.49-10.47c-4.21-4.39-7.4-9.59-9.56-15.6
				c-2.04-5.7-3.06-11.52-3.06-17.47c0-0.76,0.02-1.52,0.05-2.29c0.29-6.74,1.88-13.48,4.73-20.22c2.89-6.82,6.64-12.67,11.24-17.54
				c4.6-4.87,10.03-8.66,16.25-11.37v0c5.95-2.67,11.98-4.03,18.08-4.07l0.28,0c6.01,0,11.98,1.25,17.88,3.76
				c5.94,2.52,11.01,5.98,15.19,10.38c4.17,4.4,7.39,9.68,9.65,15.83c2.13,5.79,3.2,11.7,3.2,17.74c0,0.64-0.01,1.29-0.04,1.94
				C275.2,126.15,273.63,132.9,270.76,139.68z"/>
		</g>
		<g>
			<linearGradient id="SVGID_5_" gradientUnits="userSpaceOnUse" x1="430.222" y1="64.8859" x2="551.1965" y2="198.1629">
				<stop  offset="5.998609e-03" style="stop-color:#F8C51B"/>
				<stop  offset="1" style="stop-color:#E78F24"/>
			</linearGradient>
			<path class="st12" d="M431.47,68.14v130.59h121.96V68.14H431.47z M534.81,154.7c-2.41,6.09-5.99,11.56-10.71,16.4
				c-4.52,4.53-9.62,7.95-15.26,10.26c-5.63,2.31-11.7,3.47-18.17,3.47c-6.71,0-12.9-1.16-18.54-3.47
				c-5.63-2.31-10.66-5.74-15.04-10.27c-4.68-4.84-8.22-10.33-10.6-16.43c-2.4-6.11-3.58-12.7-3.58-19.77
				c0-7.16,1.18-13.78,3.54-19.84c2.36-6.06,5.92-11.48,10.64-16.23c4.48-4.61,9.56-8.09,15.22-10.43c5.66-2.34,11.79-3.5,18.36-3.5
				c6.52,0,12.6,1.16,18.22,3.5c5.61,2.34,10.69,5.82,15.22,10.43c4.72,4.8,8.3,10.23,10.71,16.3c2.42,6.07,3.62,12.66,3.62,19.78
				C538.44,142.01,537.23,148.62,534.81,154.7z"/>
			<linearGradient id="SVGID_6_" gradientUnits="userSpaceOnUse" x1="469.3608" y1="111.3299" x2="510.6388" y2="156.8057">
				<stop  offset="5.998609e-03" style="stop-color:#F8C51B"/>
				<stop  offset="1" style="stop-color:#E78F24"/>
			</linearGradient>
			<path class="st13" d="M490.66,102.81c-8.22,0.01-14.56,2.82-19.23,8.49c-4.66,5.67-7.02,13.51-7.02,23.62
				c0,9.92,2.37,17.65,7.06,23.28c4.7,5.62,11.02,8.41,19.19,8.42c8.12-0.01,14.41-2.81,19.09-8.46c4.67-5.64,7.03-13.36,7.03-23.24
				c0-10.11-2.37-17.96-7.03-23.62C505.07,105.63,498.78,102.82,490.66,102.81z"/>
		</g>
	</g>
	<polygon class="st14" points="9.21,83.13 11.54,71.55 17.46,42.02 135.96,23.03 127.93,64.95 	"/>
</g>
</svg>
