<?xml version="1.0" encoding="utf-8"?>
<!-- Generator: Adobe Illustrator 23.0.1, SVG Export Plug-In . SVG Version: 6.00 Build 0)  -->
<svg version="1.1" id="图层_1" xmlns="http://www.w3.org/2000/svg" xmlns:xlink="http://www.w3.org/1999/xlink" x="0px" y="0px"
	 viewBox="0 0 125.15 27.54" style="enable-background:new 0 0 125.15 27.54;" xml:space="preserve">
<style type="text/css">
	.st0{fill:#E66F1C;}
	.st1{fill:#C61629;}
	.st2{fill:#618CA2;}
	.st3{fill:#5A5F8E;}
	.st4{fill:#EB9118;}
	.st5{fill-rule:evenodd;clip-rule:evenodd;fill:#223A76;}
	.st6{fill:#749BA9;}
	.st7{fill:#223A76;}
</style>
<polygon class="st0" points="19.68,13.14 16.19,13.14 16.19,9.35 14.82,9.35 14.82,13.14 11.34,13.14 11.34,14.48 14.82,14.48 
	14.82,18.27 16.19,18.27 16.19,14.48 19.68,14.48 "/>
<polygon class="st1" points="12.67,19.32 9.55,19.32 9.55,15.93 8.37,15.93 8.37,19.32 5.25,19.32 5.25,20.35 8.37,20.35 
	8.37,23.75 9.55,23.75 9.55,20.35 12.67,20.35 "/>
<polygon class="st2" points="25.77,7.19 22.65,7.19 22.65,3.78 21.47,3.78 21.47,7.19 18.34,7.19 18.34,8.22 21.47,8.22 21.47,11.6 
	22.65,11.6 22.65,8.22 25.77,8.22 "/>
<polygon class="st3" points="18.15,23.08 16.03,23.08 16.03,20.72 15.02,20.72 15.02,23.08 12.9,23.08 12.9,24 15.02,24 
	15.02,26.36 16.03,26.36 16.03,24 18.15,24 "/>
<polygon class="st4" points="12.67,7.19 9.51,7.19 9.51,3.78 8.41,3.78 8.41,7.19 5.25,7.19 5.25,8.19 8.41,8.19 8.41,11.6 
	9.51,11.6 9.51,8.19 12.67,8.19 "/>
<polygon class="st3" points="28.16,13.35 26.05,13.35 26.05,10.99 25.04,10.99 25.04,13.35 22.92,13.35 22.92,14.27 25.04,14.27 
	25.04,16.63 26.05,16.63 26.05,14.27 28.16,14.27 "/>
<polygon class="st5" points="25.77,19.32 22.65,19.32 22.65,15.93 21.47,15.93 21.47,19.32 18.34,19.32 18.34,20.35 21.47,20.35 
	21.47,23.75 22.65,23.75 22.65,20.35 25.77,20.35 "/>
<polygon class="st6" points="15.15,1.37 15.15,3.69 13.06,3.69 13.06,4.39 15.15,4.39 15.15,6.71 15.9,6.71 15.9,4.39 18,4.39 
	18,3.69 15.9,3.69 15.9,1.37 "/>
<polygon class="st6" points="4.93,11.17 4.93,13.44 2.83,13.44 2.83,14.17 4.93,14.16 4.93,16.45 5.66,16.45 5.66,14.16 7.77,14.15 
	7.77,13.44 5.66,13.44 5.66,11.17 "/>
<g>
	<path class="st5" d="M66.74,11.93c0.76-0.3,1.44-0.39,1.87-0.39c2.16,0,3.62,1.52,3.62,3.9c0,2.47-1.53,3.91-4.24,3.91
		c-0.94,0-1.86-0.18-2.82-0.51L65.12,7.92h1.62V11.93z M68.15,17.86c1.51,0,2.38-0.86,2.38-2.41c0-1.52-0.87-2.43-2.23-2.43
		c-0.59,0-1.15,0.2-1.56,0.39v4.17C67.24,17.77,67.7,17.86,68.15,17.86"/>
	<rect x="78.43" y="6.39" class="st5" width="1.6" height="14.33"/>
	<path class="st5" d="M88.34,14.59h3.67c-0.04-0.98-0.57-1.49-1.5-1.54C89.57,12.98,88.65,13.59,88.34,14.59 M90.15,19.38
		c-2.46-0.24-3.67-1.97-3.6-4.03c0.07-2.22,1.51-3.79,3.7-3.79c2.3,0,3.63,1.7,3.52,4.21h-5.53c0.13,1.39,0.96,2.05,2.1,2.13
		c0.95,0.08,2.29-0.14,3.02-0.6v1.53C92.4,19.29,91.41,19.5,90.15,19.38"/>
	<path class="st5" d="M116.71,18.12c1.02,0,1.7-0.52,1.7-1.68V11.7h1.62v4.94c0,1.65-1.28,2.66-3.32,2.66
		c-2.04,0-3.32-1.01-3.32-2.66V11.7h1.62v4.74C115.01,17.6,115.7,18.12,116.71,18.12"/>
	<path class="st5" d="M54.47,19.35c-2.71,0.01-4.24-1.44-4.24-3.91c0-2.38,1.46-3.9,3.62-3.9c0.73,0,1.33,0.16,1.87,0.51V11.5h1.62
		l-0.04,7.34C56.61,19.14,55.5,19.35,54.47,19.35 M54.31,17.86c0.37,0,0.82-0.03,1.38-0.18l0.03-4.13
		c-0.52-0.35-1.02-0.52-1.56-0.52c-1.36,0-2.23,0.91-2.23,2.43C51.93,17,52.8,17.88,54.31,17.86"/>
	<path class="st5" d="M104.25,19.35c-2.71,0.01-4.23-1.44-4.23-3.91c0-2.38,1.46-3.9,3.62-3.9c0.73,0,1.33,0.16,1.87,0.51V11.5h1.62
		l-0.05,7.34C106.39,19.14,105.28,19.35,104.25,19.35 M104.09,17.86c0.32,0,0.81-0.03,1.38-0.18l0.03-4.13
		c-0.52-0.35-1.02-0.52-1.56-0.52c-1.36,0-2.23,0.91-2.23,2.43C101.71,17,102.58,17.86,104.09,17.86"/>
	<polygon class="st7" points="38.47,8.44 40.06,8.44 40.06,12.98 44.39,12.98 44.39,14.48 40.06,14.48 40.06,19.4 38.47,19.4 
		38.47,14.48 34.14,14.48 34.14,12.98 38.47,12.98 	"/>
	<path class="st7" d="M122.69,11.64c0.52,0,0.94,0.43,0.94,0.96c0,0.54-0.42,0.96-0.95,0.96c-0.52,0-0.95-0.42-0.95-0.96
		C121.73,12.06,122.16,11.64,122.69,11.64L122.69,11.64z M122.69,11.79c-0.42,0-0.77,0.36-0.77,0.81c0,0.46,0.35,0.81,0.77,0.81
		c0.43,0,0.77-0.36,0.77-0.81C123.46,12.15,123.12,11.79,122.69,11.79L122.69,11.79z M122.51,13.16h-0.17v-1.07
		c0.09-0.01,0.18-0.03,0.3-0.03c0.16,0,0.27,0.04,0.33,0.08c0.07,0.05,0.1,0.12,0.1,0.22c0,0.14-0.09,0.22-0.21,0.26v0.01
		c0.09,0.02,0.16,0.1,0.18,0.26c0.03,0.17,0.05,0.23,0.07,0.27h-0.18c-0.02-0.04-0.05-0.13-0.07-0.27c-0.03-0.14-0.1-0.19-0.23-0.19
		h-0.12V13.16z M122.51,12.56h0.12c0.14,0,0.26-0.05,0.26-0.18c0-0.09-0.07-0.19-0.26-0.19c-0.05,0-0.09,0-0.12,0.01V12.56z"/>
</g>
</svg>
