<?xml version="1.0" encoding="utf-8"?>
<!-- Generator: Adobe Illustrator 23.0.2, SVG Export Plug-In . SVG Version: 6.00 Build 0)  -->
<svg version="1.1" id="Ebene_1" xmlns="http://www.w3.org/2000/svg" xmlns:xlink="http://www.w3.org/1999/xlink" x="0px" y="0px"
	 viewBox="0 0 646.3 85" style="enable-background:new 0 0 646.3 85;" xml:space="preserve">
<style type="text/css">
	.Grün_x0020_bogenförmig{fill:url(#SVGID_1_);stroke:#FFFFFF;stroke-width:0.25;stroke-miterlimit:1;}
	.st0{fill:#25455E;}
</style>
<linearGradient id="SVGID_1_" gradientUnits="userSpaceOnUse" x1="-97.7197" y1="340.2813" x2="-97.0126" y2="339.5742">
	<stop  offset="0" style="stop-color:#1DA238"/>
	<stop  offset="0.9831" style="stop-color:#24391D"/>
</linearGradient>
<g>
	<g>
		<polygon class="st0" points="111.5,5.1 95.6,80.2 85.4,80.2 101.3,5.1 		"/>
		<polygon class="st0" points="126.8,5.1 110.9,80.2 100.7,80.2 116.6,5.1 		"/>
		<polygon class="st0" points="5.3,5.1 5.2,80.2 80.3,80.2 96.2,5.1 		"/>
	</g>
	<path class="st0" d="M237.3,66.3c-3.2,0-5.9-0.4-8.2-1.3c-2.3-0.9-4.2-2.1-5.7-3.7c-1.5-1.6-2.6-3.5-3.3-5.7
		c-0.7-2.2-1.1-4.6-1.1-7.3V20.2h10.2v27.2c0,1.8,0.2,3.4,0.6,4.7c0.4,1.3,1,2.3,1.7,3.1c0.7,0.8,1.6,1.4,2.6,1.7
		c1,0.3,2.1,0.5,3.4,0.5c2.5,0,4.5-0.8,6-2.3c1.5-1.5,2.3-4.1,2.3-7.7V33.7h10.2v14.6c0,2.6-0.4,5.1-1.1,7.3
		c-0.7,2.2-1.9,4.1-3.4,5.7c-1.5,1.6-3.5,2.8-5.8,3.7C243.3,65.8,240.5,66.3,237.3,66.3z"/>
	<rect x="245.7" y="20.2" class="st0" width="10" height="10"/>
	<rect x="232.4" y="20.2" class="st0" width="10" height="10"/>
	<path class="st0" d="M151.6,38.2v10h8.6v9c-0.6,0.1-1.3,0.2-2.1,0.3c-0.8,0-1.8,0.1-2.9,0.1c-2.1,0-3.9-0.4-5.5-1.1
		c-1.6-0.7-2.9-1.7-3.9-3c-1-1.3-1.8-2.9-2.3-4.7c-0.5-1.8-0.8-3.8-0.8-6c0-4.6,1.1-8.1,3.2-10.8c2.1-2.6,5.5-3.9,10.3-3.9
		c2.1,0,4.1,0.3,5.9,0.8c1.8,0.5,3.4,1.2,4.8,1.9l2.9-8.1c-0.3-0.2-0.9-0.5-1.7-0.9c-0.8-0.4-1.8-0.8-3.1-1.1
		c-1.2-0.4-2.7-0.7-4.4-1c-1.7-0.3-3.6-0.4-5.8-0.4c-3.1,0-6.1,0.5-8.8,1.6c-2.8,1-5.2,2.6-7.2,4.6c-2,2-3.6,4.5-4.8,7.4
		c-1.2,2.9-1.8,6.2-1.8,10c0,3.7,0.5,7.1,1.6,10c1.1,2.9,2.6,5.4,4.5,7.4c2,2,4.3,3.5,7.1,4.6c2.8,1,5.8,1.6,9.2,1.6
		c3.9,0,7.3-0.3,10-0.8c2.7-0.5,4.6-1.1,5.9-1.5V38.2H151.6z"/>
	<path class="st0" d="M191.2,19.5c6.8,0,12,1.2,15.6,3.6c3.6,2.4,5.4,6.2,5.4,11.3c0,3.2-0.7,5.8-2.2,7.7c-1.5,2-3.6,3.5-6.3,4.7
		c0.9,1.1,1.9,2.4,2.9,3.9c1,1.5,2,3,3,4.6c1,1.6,1.9,3.2,2.8,5c0.9,1.7,1.8,3.4,2.6,5.1h-11.4c-0.8-1.5-1.7-3-2.5-4.5
		c-0.9-1.5-1.7-3-2.6-4.4c-0.9-1.4-1.8-2.8-2.7-4.1s-1.8-2.5-2.6-3.5h-5v16.5H178V20.7c2.2-0.4,4.5-0.7,6.9-0.9
		C187.2,19.6,189.4,19.5,191.2,19.5z M191.8,28.2c-0.7,0-1.4,0-2,0.1c-0.6,0-1.1,0.1-1.7,0.1v12.3h2.9c3.8,0,6.6-0.5,8.2-1.4
		c1.7-1,2.5-2.6,2.5-4.9c0-2.2-0.8-3.8-2.5-4.7C197.6,28.7,195.1,28.2,191.8,28.2z"/>
	<path class="st0" d="M294.7,65.4c-2.9-5.2-6.1-10.3-9.5-15.4c-3.4-5.1-7-9.8-10.9-14.3v29.7h-10.1V20h8.3c1.4,1.4,3,3.2,4.8,5.3
		c1.7,2.1,3.5,4.3,5.3,6.7c1.8,2.4,3.6,4.8,5.4,7.4c1.8,2.5,3.5,5,5,7.4V20h10.1v45.3H294.7z"/>
	<path class="st0" d="M352.4,42.7c0,3.9-0.6,7.3-1.8,10.3c-1.2,2.9-3,5.3-5.2,7.3c-2.2,1.9-5,3.4-8.2,4.3c-3.2,1-6.8,1.4-10.9,1.4
		c-1.8,0-4-0.1-6.4-0.2c-2.4-0.2-4.8-0.5-7.2-0.9V20.6c2.4-0.4,4.8-0.7,7.4-0.9c2.5-0.2,4.7-0.2,6.6-0.2c3.9,0,7.4,0.4,10.6,1.3
		c3.2,0.9,5.9,2.2,8.1,4.1c2.3,1.9,4,4.3,5.2,7.2S352.4,38.6,352.4,42.7z M322.9,57.1c0.5,0,1,0.1,1.7,0.1c0.6,0,1.4,0,2.3,0
		c5.1,0,8.9-1.3,11.3-3.9c2.5-2.6,3.7-6.1,3.7-10.7c0-4.8-1.2-8.3-3.5-10.8c-2.4-2.4-6.1-3.7-11.2-3.7c-0.7,0-1.4,0-2.2,0
		c-0.7,0-1.4,0.1-2.1,0.2V57.1z"/>
	<path class="st0" d="M359.9,65.4V20h30.6v8.6h-20.4v8.9h18.1v8.4h-18.1v10.9H392v8.6H359.9z"/>
	<path class="st0" d="M412.8,19.5c6.8,0,12,1.2,15.6,3.6c3.6,2.4,5.4,6.2,5.4,11.3c0,3.2-0.7,5.8-2.2,7.7c-1.5,2-3.6,3.5-6.3,4.7
		c0.9,1.1,1.9,2.4,2.9,3.9c1,1.5,2,3,3,4.6c1,1.6,1.9,3.2,2.8,5c0.9,1.7,1.8,3.4,2.6,5.1h-11.4c-0.8-1.5-1.7-3-2.5-4.5
		c-0.9-1.5-1.7-3-2.6-4.4c-0.9-1.4-1.8-2.8-2.7-4.1s-1.8-2.5-2.6-3.5h-5v16.5h-10.2V20.7c2.2-0.4,4.5-0.7,6.9-0.9
		C408.8,19.6,410.9,19.5,412.8,19.5z M413.4,28.2c-0.7,0-1.4,0-2,0.1c-0.6,0-1.1,0.1-1.7,0.1v12.3h2.9c3.8,0,6.6-0.5,8.2-1.4
		c1.7-1,2.5-2.6,2.5-4.9c0-2.2-0.8-3.8-2.5-4.7C419.1,28.7,416.7,28.2,413.4,28.2z"/>
	<path class="st0" d="M455.5,57.6c1.4,0,2.6-0.1,3.6-0.4s1.7-0.6,2.3-1c0.6-0.4,1-0.9,1.2-1.5c0.2-0.6,0.3-1.2,0.3-1.9
		c0-1.5-0.7-2.7-2.1-3.7c-1.4-1-3.8-2-7.2-3.2c-1.5-0.5-3-1.1-4.4-1.8c-1.5-0.7-2.8-1.5-4-2.6c-1.2-1-2.1-2.3-2.9-3.7
		c-0.7-1.5-1.1-3.2-1.1-5.3c0-2.1,0.4-4,1.2-5.7c0.8-1.7,1.9-3.1,3.3-4.3c1.4-1.2,3.2-2.1,5.2-2.7c2-0.6,4.4-0.9,6.9-0.9
		c3.1,0,5.7,0.3,7.9,1c2.2,0.7,4.1,1.4,5.5,2.2l-2.9,8c-1.3-0.7-2.7-1.2-4.2-1.7c-1.5-0.5-3.4-0.8-5.6-0.8c-2.4,0-4.2,0.3-5.3,1
		c-1.1,0.7-1.6,1.7-1.6,3.1c0,0.8,0.2,1.5,0.6,2.1c0.4,0.6,0.9,1.1,1.7,1.5c0.7,0.5,1.5,0.9,2.5,1.2c0.9,0.4,2,0.8,3.1,1.1
		c2.4,0.9,4.4,1.7,6.1,2.6c1.7,0.8,3.2,1.8,4.3,3c1.2,1.1,2,2.5,2.6,4c0.6,1.5,0.8,3.4,0.8,5.6c0,4.2-1.5,7.5-4.4,9.8
		c-3,2.3-7.4,3.5-13.4,3.5c-2,0-3.8-0.1-5.4-0.4c-1.6-0.2-3-0.5-4.3-0.9c-1.2-0.3-2.3-0.7-3.2-1.1c-0.9-0.4-1.6-0.8-2.3-1.1l2.9-8.1
		c1.4,0.7,3,1.4,5,2C450.2,57.3,452.6,57.6,455.5,57.6z"/>
	<path class="st0" d="M513.2,27.1c-1.4,1.4-3.1,3.3-5,5.6c-1.9,2.3-3.9,4.8-6,7.5c-2,2.7-4.1,5.5-6.1,8.4c-2,2.9-3.8,5.6-5.4,8.2
		h23.1v8.6h-35.6v-6.1c1.2-2.2,2.7-4.7,4.5-7.4c1.8-2.7,3.6-5.5,5.5-8.2c1.9-2.8,3.9-5.4,5.9-8c2-2.6,3.8-4.9,5.5-7h-20.3V20h33.9
		V27.1z"/>
	<path class="st0" d="M521.1,65.4V20h30.6v8.6h-20.4v8.9h18.1v8.4h-18.1v10.9h21.9v8.6H521.1z"/>
	<path class="st0" d="M591.1,65.4c-2.9-5.2-6.1-10.3-9.5-15.4c-3.4-5.1-7-9.8-10.9-14.3v29.7h-10.1V20h8.3c1.4,1.4,3,3.2,4.8,5.3
		c1.7,2.1,3.5,4.3,5.3,6.7c1.8,2.4,3.6,4.8,5.4,7.4c1.8,2.5,3.5,5,5,7.4V20h10.1v45.3H591.1z"/>
	<path class="st0" d="M609.1,65.4V20h30.6v8.6h-20.4v8.9h18.1v8.4h-18.1v10.9h21.9v8.6H609.1z"/>
</g>
</svg>
