<?xml version="1.0" encoding="utf-8"?>
<!-- Generator: Adobe Illustrator 23.0.6, SVG Export Plug-In . SVG Version: 6.00 Build 0)  -->
<!DOCTYPE svg PUBLIC "-//W3C//DTD SVG 1.1//EN" "http://www.w3.org/Graphics/SVG/1.1/DTD/svg11.dtd" [
	<!ENTITY ns_extend "http://ns.adobe.com/Extensibility/1.0/">
	<!ENTITY ns_ai "http://ns.adobe.com/AdobeIllustrator/10.0/">
	<!ENTITY ns_graphs "http://ns.adobe.com/Graphs/1.0/">
	<!ENTITY ns_vars "http://ns.adobe.com/Variables/1.0/">
	<!ENTITY ns_imrep "http://ns.adobe.com/ImageReplacement/1.0/">
	<!ENTITY ns_sfw "http://ns.adobe.com/SaveForWeb/1.0/">
	<!ENTITY ns_custom "http://ns.adobe.com/GenericCustomNamespace/1.0/">
	<!ENTITY ns_adobe_xpath "http://ns.adobe.com/XPath/1.0/">
]>
<svg version="1.1"
	 id="svg1936" xmlns:x="&ns_extend;" xmlns:i="&ns_ai;" xmlns:graph="&ns_graphs;" xmlns:cc="http://creativecommons.org/ns#" xmlns:dc="http://purl.org/dc/elements/1.1/" xmlns:inkscape="http://www.inkscape.org/namespaces/inkscape" xmlns:rdf="http://www.w3.org/1999/02/22-rdf-syntax-ns#" xmlns:sodipodi="http://sodipodi.sourceforge.net/DTD/sodipodi-0.dtd" xmlns:svg="http://www.w3.org/2000/svg"
	 xmlns="http://www.w3.org/2000/svg" xmlns:xlink="http://www.w3.org/1999/xlink" x="0px" y="0px" viewBox="0 0 648.7 195.5"
	 style="enable-background:new 0 0 648.7 195.5;" xml:space="preserve">
<style type="text/css">
	.st0{fill-rule:evenodd;clip-rule:evenodd;fill:#FF9900;}
	.st1{fill-rule:evenodd;clip-rule:evenodd;}
</style>
<metadata  id="metadata21">
	<rdf:RDF>
		<cc:Work  rdf:about="">
			<dc:format>image/svg+xml</dc:format>
			<dc:type  rdf:resource="http://purl.org/dc/dcmitype/StillImage"></dc:type>
			<dc:title></dc:title>
		</cc:Work>
	</rdf:RDF>
	<sfw  xmlns="&ns_sfw;">
		<slices></slices>
		<sliceSourceBounds  bottomLeftOrigin="true" height="195.5" width="648.7" x="0" y="0"></sliceSourceBounds>
	</sfw>
</metadata>
<sodipodi:namedview  bordercolor="#666666" borderopacity="1" gridtolerance="10" guidetolerance="10" id="namedview19" inkscape:current-layer="svg1936" inkscape:cx="426.12453" inkscape:cy="39.449727" inkscape:pageopacity="0" inkscape:pageshadow="2" inkscape:window-height="705" inkscape:window-maximized="1" inkscape:window-width="1366" inkscape:window-x="-8" inkscape:window-y="-8" inkscape:zoom="0.72245926" objecttolerance="10" pagecolor="#ffffff" showgrid="false">
	</sodipodi:namedview>
<path id="path8" inkscape:connector-curvature="0" class="st0" d="M402.5,152.9c-37.7,27.8-92.3,42.6-139.4,42.6
	c-66,0-125.4-24.4-170.3-65c-3.5-3.2-0.4-7.5,3.9-5.1c48.5,28.2,108.4,45.2,170.4,45.2c41.8,0,87.7-8.6,130-26.6
	C403.4,141.4,408.7,148.3,402.5,152.9"/>
<path id="path10" inkscape:connector-curvature="0" class="st0" d="M418.1,135c-4.8-6.2-31.9-2.9-44-1.5c-3.7,0.5-4.3-2.8-0.9-5.1
	c21.5-15.2,56.9-10.8,61-5.7c4.1,5.1-1.1,40.6-21.3,57.5c-3.1,2.6-6.1,1.2-4.7-2.2C412.8,166.6,423,141.1,418.1,135"/>
<path id="path12" inkscape:connector-curvature="0" class="st1" d="M375,21.3V6.6c0-2.2,1.7-3.7,3.7-3.7h66c2.1,0,3.8,1.5,3.8,3.7
	v12.6c0,2.1-1.8,4.9-5,9.3l-34.2,48.8c12.7-0.3,26.1,1.6,37.6,8.1c2.6,1.5,3.3,3.6,3.5,5.7v15.7c0,2.1-2.4,4.7-4.9,3.4
	c-20.3-10.6-47.3-11.8-69.7,0.1c-2.3,1.2-4.7-1.2-4.7-3.4V92c0-2.4,0-6.5,2.4-10.1L413.3,25h-34.5C376.7,25,375,23.6,375,21.3"/>
<path id="path14" inkscape:connector-curvature="0" class="st1" d="M134.2,113.3h-20.1c-1.9-0.1-3.4-1.6-3.6-3.4V6.9
	c0-2.1,1.7-3.7,3.9-3.7h18.7c1.9,0.1,3.5,1.6,3.6,3.4v13.5h0.4C142.1,7.1,151.2,1,163.6,1c12.6,0,20.4,6.1,26.1,19.1
	C194.5,7.1,205.6,1,217.4,1c8.4,0,17.6,3.5,23.2,11.3c6.4,8.7,5.1,21.3,5.1,32.3l0,65c0,2.1-1.7,3.7-3.9,3.7h-20
	c-2-0.1-3.6-1.8-3.6-3.7V55c0-4.3,0.4-15.2-0.6-19.3c-1.5-6.9-6-8.9-11.8-8.9c-4.9,0-9.9,3.2-12,8.4c-2.1,5.2-1.9,13.9-1.9,19.7
	v54.6c0,2.1-1.7,3.7-3.9,3.7h-20c-2-0.1-3.6-1.8-3.6-3.7l0-54.6c0-11.5,1.9-28.4-12.4-28.4c-14.4,0-13.9,16.5-13.9,28.4v54.6
	C138.1,111.7,136.4,113.3,134.2,113.3"/>
<path id="path16" inkscape:connector-curvature="0" class="st1" d="M505.3,1c29.8,0,45.9,25.6,45.9,58.1c0,31.4-17.8,56.4-45.9,56.4
	c-29.3,0-45.2-25.6-45.2-57.5C460.2,25.9,476.3,1,505.3,1 M505.5,22c-14.8,0-15.7,20.2-15.7,32.7c0,12.6-0.2,39.5,15.6,39.5
	c15.6,0,16.3-21.7,16.3-34.9c0-8.7-0.4-19.1-3-27.3C516.4,24.8,511.9,22,505.5,22"/>
<path id="path18" inkscape:connector-curvature="0" class="st1" d="M589.9,113.3h-20c-2-0.1-3.6-1.8-3.6-3.7l0-103.1
	c0.2-1.9,1.8-3.4,3.9-3.4h18.6c1.8,0.1,3.2,1.3,3.6,2.9v15.8h0.4C598.3,7.7,606.2,1,620,1c9,0,17.8,3.2,23.4,12.1
	c5.3,8.2,5.3,22.1,5.3,32.1v64.9c-0.2,1.8-1.9,3.2-3.9,3.2h-20.1c-1.8-0.1-3.4-1.5-3.6-3.2v-56c0-11.3,1.3-27.8-12.6-27.8
	c-4.9,0-9.4,3.3-11.6,8.2c-2.8,6.3-3.2,12.6-3.2,19.5v55.5C593.8,111.7,592,113.3,589.9,113.3"/>
<path id="path28" inkscape:connector-curvature="0" class="st1" d="M322.4,64.1c0,7.8,0.2,14.3-3.8,21.3c-3.2,5.6-8.3,9.1-13.9,9.1
	c-7.7,0-12.2-5.9-12.2-14.5c0-17.1,15.3-20.2,29.9-20.2L322.4,64.1 M342.6,113c-1.3,1.2-3.2,1.3-4.7,0.5c-6.7-5.5-7.9-8.1-11.5-13.4
	c-11,11.2-18.8,14.6-33.1,14.6c-16.9,0-30-10.4-30-31.3c0-16.3,8.8-27.4,21.4-32.8c10.9-4.8,26.1-5.6,37.8-7v-2.6
	c0-4.8,0.4-10.4-2.5-14.5c-2.4-3.7-7.1-5.2-11.3-5.2c-7.7,0-14.5,3.9-16.1,12.1c-0.3,1.8-1.7,3.6-3.5,3.7l-19.5-2.1
	c-1.6-0.4-3.5-1.7-3-4.2C271,7.1,292.4,0,311.5,0c9.8,0,22.5,2.6,30.2,10c9.8,9.1,8.8,21.3,8.8,34.5v31.3c0,9.4,3.9,13.5,7.6,18.6
	c1.3,1.8,1.6,4-0.1,5.3C353.9,103.2,346.7,109.5,342.6,113L342.6,113"/>
<path id="path30" inkscape:connector-curvature="0" class="st1" d="M59.2,64.1c0,7.8,0.2,14.3-3.8,21.3c-3.2,5.6-8.2,9.1-13.9,9.1
	c-7.7,0-12.2-5.9-12.2-14.5c0-17.1,15.3-20.2,29.8-20.2L59.2,64.1 M79.4,113c-1.3,1.2-3.2,1.3-4.7,0.5c-6.7-5.5-7.9-8.1-11.5-13.4
	c-11,11.2-18.8,14.6-33.1,14.6c-16.9,0-30-10.4-30-31.3c0-16.3,8.8-27.4,21.4-32.8c10.9-4.8,26.1-5.6,37.8-7v-2.6
	c0-4.8,0.4-10.4-2.4-14.5c-2.5-3.7-7.1-5.2-11.3-5.2c-7.7,0-14.5,3.9-16.2,12.1c-0.3,1.8-1.7,3.6-3.5,3.7L6.4,34.9
	c-1.6-0.4-3.4-1.7-3-4.2C7.9,7.1,29.2,0,48.3,0C58,0,70.8,2.6,78.5,10c9.8,9.1,8.8,21.3,8.8,34.5v31.3c0,9.4,3.9,13.5,7.6,18.6
	c1.3,1.8,1.6,4-0.1,5.3C90.8,103.2,83.5,109.5,79.4,113L79.4,113"/>
</svg>
