<svg xmlns="http://www.w3.org/2000/svg" width="173" height="193" fill="none" viewBox="0 0 173 193">
    <path stroke="#000" stroke-miterlimit="10" stroke-width="3" d="M46.112 146.371C20.049 133.185 1.504 108.185 1.504 79.065c0-42.855 37.992-77.561 84.906-77.561 46.913 0 84.906 34.706 84.906 77.561 0 28.296-16.541 53.021-41.301 66.573"/>
    <path stroke="#000" stroke-miterlimit="10" stroke-width="3" d="M77.588 115.603C59.143 111.94 45.41 96.923 45.41 79.066c0-20.696 18.345-37.453 41-37.453 22.654 0 40.999 16.757 40.999 37.453 0 17.032-12.43 31.409-29.572 35.988"/>
    <path fill="#fff" stroke="#000" stroke-miterlimit="10" stroke-width="3" d="M72.626 53.09c1.03-.187 3.09-1.213 2.781-3.64-.309-2.52-1.339-6.065 10.3-6.065 11.64 0 10.61 3.546 10.301 6.065-.309 2.52 1.752 3.453 2.782 3.733 1.03.187 7.931 1.493 9.064 1.68 1.133.187 2.987.653 4.223-.933.927-1.12 2.884-6.906-1.854-11.105-4.738-4.2-14.318-6.066-24.515-6.066-10.198 0-19.777 1.867-24.515 6.066-4.738 4.2-2.781 9.985-1.854 11.105 1.236 1.493 2.987 1.12 4.223.933 1.133-.28 7.931-1.587 9.064-1.773z"/>
    <path stroke="#86ED18" stroke-miterlimit="10" stroke-width="3" d="M89.216 61.483v1.374c0 .763-.78 1.373-1.754 1.373h-3.508c-.975 0-1.755-.61-1.755-1.373v-1.374M75.182 61.483v1.374c0 .763-.89 1.373-2.005 1.373h-4.01c-1.113 0-2.004-.61-2.004-1.373v-1.374M103.25 61.483v1.374c0 .763-.779 1.373-1.754 1.373h-3.508c-.975 0-1.755-.61-1.755-1.373v-1.374M89.216 71.556v1.374c0 .763-.78 1.373-1.754 1.373h-3.508c-.975 0-1.755-.61-1.755-1.373v-1.374M75.182 71.556v1.374c0 .763-.89 1.373-2.005 1.373h-4.01c-1.113 0-2.004-.61-2.004-1.373v-1.374M103.25 71.556v1.374c0 .763-.779 1.373-1.754 1.373h-3.508c-.975 0-1.755-.61-1.755-1.373v-1.374M89.216 80.713v1.832c0 1.017-.78 1.831-1.754 1.831h-3.508c-.975 0-1.755-.814-1.755-1.831v-1.832M75.182 80.713v1.832c0 1.017-.89 1.831-2.005 1.831h-4.01c-1.113 0-2.004-.814-2.004-1.831v-1.832M103.25 80.713v1.832c0 1.017-.779 1.831-1.754 1.831h-3.508c-.975 0-1.755-.814-1.755-1.831v-1.832"/>
    <path fill="#fff" stroke="#000" stroke-miterlimit="10" stroke-width="3" d="M83.302 103.515c-2.405-2.198-6.415-2.289-8.921-.092-2.406 2.198-2.506 5.77-.1 7.967.1 0 47.214 42.948 47.214 42.948l8.721-7.967-33.782-30.86-13.132-11.996z"/>
    <path fill="#fff" d="M88.013 124.119l11.729-10.714c2.406-2.198 2.406-5.586-.1-7.783-2.406-2.198-6.416-2.015-8.922.183l-45.61 41.482 44.908 41.024c2.406 2.198 6.215 2.198 8.521 0 2.406-2.197 2.406-5.677 0-7.783l-2.807-2.564 19.748-12.912c2.406 2.198 6.215 2.198 8.521 0 2.406-2.198 2.406-5.678 0-7.784.2-.274-22.455-20.878-35.988-33.149z"/>
    <path stroke="#000" stroke-miterlimit="10" stroke-width="3" d="M95.832 177.964l2.807 2.564c2.406 2.197 2.406 5.677 0 7.783-2.405 2.198-6.215 2.198-8.52 0l-45.01-41.024 45.711-41.483c2.406-2.197 6.416-2.472 8.922-.183 2.406 2.198 2.506 5.586.1 7.784l-11.728 10.714c13.533 12.362 36.188 32.966 36.188 33.149 2.405 2.198 2.405 5.678 0 7.784-2.406 2.198-6.216 2.198-8.521 0"/>
    <path fill="#fff" d="M112.974 162.396l-5.814 10.347c2.406 2.198 6.215 2.198 8.521 0 2.406-2.197 2.406-5.677 0-7.783l-2.707-2.564z"/>
    <path stroke="#000" stroke-miterlimit="10" stroke-width="3" d="M107.16 172.743c2.406 2.198 6.215 2.198 8.521 0 2.406-2.197 2.406-5.677 0-7.783l-2.807-2.564"/>
    <path fill="#fff" d="M104.453 170.18l-13.232 3.48 7.519 6.868c2.405 2.198 6.215 2.198 8.52 0 2.406-2.198 2.406-5.677 0-7.784l-2.807-2.564z"/>
    <path stroke="#000" stroke-miterlimit="10" stroke-width="3" d="M104.453 170.18l2.807 2.564c2.406 2.198 2.406 5.678 0 7.784-2.406 2.198-6.215 2.198-8.52 0l-7.519-6.868"/>
    <path fill="#fff" stroke="#000" stroke-miterlimit="10" stroke-width="3" d="M87.612 171.095L74.18 183.183l8.52 7.784 13.333-12.088c2.406-2.198 2.406-5.677 0-7.784-2.306-2.197-6.115-2.197-8.42 0zM62.352 148.019l-13.333 12.088 8.521 7.783 13.332-12.087c2.406-2.198 2.406-5.678 0-7.784-2.406-2.198-6.215-2.198-8.52 0z"/>
    <path fill="#fff" stroke="#000" stroke-miterlimit="10" stroke-width="3" d="M70.57 155.528L57.24 167.616l8.52 7.784 13.332-12.088c2.406-2.198 2.406-5.677 0-7.784-2.405-2.197-6.215-2.197-8.52 0z"/>
    <path fill="#fff" stroke="#000" stroke-miterlimit="10" stroke-width="3" d="M79.091 163.22L65.76 175.307l8.52 7.784 13.333-12.088c2.406-2.197 2.406-5.677 0-7.783-2.305-2.106-6.115-2.106-8.52 0z"/>
</svg>
