<svg xmlns="http://www.w3.org/2000/svg" width="160" height="148" fill="none" viewBox="0 0 160 148">
    <path stroke="#86ED18" stroke-dasharray="5.74 5.74" stroke-miterlimit="10" stroke-width="3" d="M92.347 119.599v10.548c0 8.981 7.26 16.273 16.222 16.273 8.952 0 16.222-7.283 16.222-16.273V19.942"/>
    <path fill="#fff" stroke="#86ED18" stroke-miterlimit="10" stroke-width="3" d="M131.385 64.807c-.999 1.522-2.053 5.233 1.535 8.146 3.598 2.913 9.499 6.401-4.263 20.215s-17.249 7.886-20.153 4.286c-2.904-3.609-6.604-2.551-8.12-1.54-1.517 1.002-11.367 7.459-13.004 8.591-1.646 1.131-4.31 2.672-3.829 6.178.352 2.598 5.55 12.497 16.74 12.423 11.182-.075 24.971-9.018 37.096-21.171 12.125-12.163 21.041-25.986 21.106-37.211.074-11.226-9.795-16.44-12.384-16.792-3.496-.483-5.022 2.19-6.16 3.84-1.137 1.633-7.565 11.514-8.564 13.035z"/>
    <path stroke="#000" stroke-miterlimit="10" stroke-width="3" d="M1.507 101.434l.222-81.492 124.412.344M1.69 1.511l-.036 13.266 123.006.343.037-13.267L1.691 1.511z"/>
    <path fill="#000" d="M8.711 9.664a1.77 1.77 0 0 0 1.767-1.772A1.77 1.77 0 0 0 8.711 6.12a1.77 1.77 0 0 0-1.766 1.772c0 .978.79 1.772 1.766 1.772zM15.241 9.664a1.77 1.77 0 0 0 1.767-1.772A1.77 1.77 0 0 0 15.24 6.12a1.77 1.77 0 0 0-1.766 1.772c0 .978.79 1.772 1.766 1.772zM21.77 9.664a1.77 1.77 0 0 0 1.767-1.772 1.77 1.77 0 0 0-1.766-1.772 1.77 1.77 0 0 0-1.767 1.772c0 .978.791 1.772 1.767 1.772z"/>
    <path fill="#fff" d="M55.333 43.973l9.56 1.92-.9 9.579"/>
    <path stroke="#000" stroke-miterlimit="10" stroke-width="3" d="M55.333 43.973l9.56 1.92-.9 9.579"/>
    <path fill="#fff" d="M61.065 101.5V65.062h7.657V101.5"/>
    <path stroke="#000" stroke-miterlimit="10" stroke-width="3" d="M61.065 101.5V65.062h7.657V101.5"/>
    <path fill="#fff" d="M45.774 101.5V74.662h7.645V101.5"/>
    <path stroke="#000" stroke-miterlimit="10" stroke-width="3" d="M45.774 101.5V74.662h7.645V101.5"/>
    <path fill="#fff" d="M30.482 101.499V84.251h7.646V101.5"/>
    <path stroke="#000" stroke-miterlimit="10" stroke-width="3" d="M30.482 101.499V84.251h7.646V101.5"/>
    <path fill="#fff" d="M15.19 101.499v-7.657h7.646v7.657"/>
    <path stroke="#000" stroke-miterlimit="10" stroke-width="3" d="M15.19 101.499v-7.657h7.646v7.657M64.893 45.894L19.008 82.32"/>
</svg>
