<svg xmlns="http://www.w3.org/2000/svg" width="160" height="163" fill="none" viewBox="0 0 160 163">
    <path fill="#202020" d="M144.667 119.975l-2.383 2.313 12.601 10.587-12.601 10.587 2.383 2.313 15.333-12.9-15.333-12.9zM28.526 13.867l-2.557 2.155L14.263 4.626 2.557 16.022 0 13.867 14.263 0l14.263 13.867z"/>
    <path stroke="#86ED18" stroke-miterlimit="10" stroke-width="3" d="M14.264 116.929l32.676-26.2 7.44 3.732L82.87 68.23l11.846 6.466 39.604-33.643"/>
    <path stroke="#202020" stroke-miterlimit="10" stroke-width="3" d="M156.221 132.875H14.264V4.198"/>
    <path fill="#fff" d="M51.184 120.589c-2.894.358-5.73 1.062-8.241 2.271-9.172 4.426-10.672 11.597-10.672 17.137 0 5.551 2.627 13.741 12.508 21.027h8.44v-4.205s8.532.525 10.287.525c.872 1.662 2.79 3.68 2.79 3.68h7.847v-6.308s5.219-3.385 6.974-5.257c3.348.284 6.859-2.102 8.137-9.167 0-1.041-.523-1.346-1.162-1.346-.64 0-3.01-.547-3.487-1.052-.477-.504-1.837-4.951-4.383-8.41 1.43-3.533 4.813-5.509 4.813-5.509-3.267-1.514-6.591-2.566-13.217-1.851-1.744-.347-4.662-.978-7.452-1.325"/>
    <path stroke="#000" stroke-miterlimit="10" stroke-width="3" d="M51.184 120.589c-2.894.358-5.73 1.062-8.241 2.271-9.172 4.426-10.672 11.597-10.672 17.137 0 5.551 2.627 13.741 12.508 21.027h8.44v-4.205s8.532.525 10.287.525c.872 1.662 2.79 3.68 2.79 3.68h7.847v-6.308s5.219-3.385 6.974-5.257c3.348.284 6.859-2.102 8.137-9.167 0-1.041-.523-1.346-1.162-1.346-.64 0-3.01-.547-3.487-1.052-.477-.504-1.837-4.951-4.383-8.41 1.43-3.533 4.813-5.509 4.813-5.509-3.267-1.514-6.591-2.566-13.217-1.851-1.744-.347-4.662-.978-7.452-1.325"/>
    <path stroke="#000" stroke-miterlimit="10" stroke-width="3" d="M48.566 114.775c0 4.647 4.162 8.411 9.3 8.411 5.138 0 9.3-3.764 9.3-8.411s-4.162-8.411-9.3-8.411c-5.138 0-9.3 3.764-9.3 8.411zM32.269 140.007c-3.348-.294-11.601-1.503-11.601 2.103 0 2.723 2.162 3.564 4.44 2.754 2.14-.757 5.022-5.824-4.464-9.073M50.531 126.403a25.503 25.503 0 0 1 7.51-1.125c2.522 0 4.94.357 7.218 1.03M74.164 136.853c.642 0 1.162-.471 1.162-1.052 0-.58-.52-1.051-1.162-1.051-.642 0-1.163.471-1.163 1.051 0 .581.521 1.052 1.163 1.052z"/>
</svg>
