<svg xmlns="http://www.w3.org/2000/svg" width="162" height="161" fill="none" viewBox="0 0 162 161">
    <path fill="#000" d="M104.999 155.575c-6.396-26.746-7.612-47.86-7.612-48.244-1.471-12.67-12.921-21.69-25.587-20.22-12.665 1.472-23.603 34.296-22.132 46.965.384 3.327 58.657 35.383 55.331 21.499z"/>
    <path fill="#fff" d="M33.293 159.477l-2.815-41.525c-3.134-16.956 8.06-33.272 25.011-36.471 10.619-1.984 18.358.384 25.65 7.23 15.737 14.716 18.487 42.933 15.353 69.743"/>
    <path stroke="#000" stroke-miterlimit="10" stroke-width="3" d="M33.293 159.477l-2.815-41.525c-3.134-16.956 8.06-33.272 25.011-36.471 10.619-1.984 18.358.384 25.65 7.23 15.737 14.716 18.487 42.933 15.353 69.743"/>
    <path fill="#fff" stroke="#000" stroke-miterlimit="10" stroke-width="3" d="M46.854 59.087c0-5.183-4.222-9.406-9.403-9.406-5.182 0-9.403 4.223-9.403 9.406 0 5.182 4.221 9.405 9.403 9.405 5.181 0 9.403-4.223 9.403-9.405z"/>
    <path stroke="#000" stroke-miterlimit="10" stroke-width="3" d="M41.8 62.03c-.127 1.471-.127 2.943-.063 4.478"/>
    <path fill="#fff" stroke="#000" stroke-miterlimit="10" stroke-width="3" d="M102.824 65.357c3.519-17.852-8.123-35.191-25.97-38.71-17.91-3.52-35.245 8.062-38.764 25.913-3.518 17.852 8.124 35.191 25.97 38.71 17.847 3.52 35.246-8.061 38.764-25.913z"/>
    <path fill="#000" d="M68.282 53.648c.256-1.343-.575-2.623-1.918-2.879-1.344-.256-2.623.576-2.879 1.92-.256 1.343.576 2.623 1.919 2.879 1.28.256 2.559-.576 2.879-1.92zM88.048 53.648c.256-1.343-.575-2.623-1.919-2.879-1.343-.256-2.622.576-2.878 1.92-.256 1.343.575 2.623 1.919 2.879 1.343.256 2.622-.576 2.878-1.92zM27.792 151.288c-8.06-6.591-2.367-3.775-3.71-3.967-14.52-2.176-10.107-6.335-7.932-20.859l3.198-21.115c2.175-14.524 15.736-24.57 30.256-22.394 14.52 2.175 24.564 15.74 22.389 30.264l-7.356 44.661s-23.86-6.59-36.845-6.59z"/>
    <path fill="#fff" d="M69.562 63.886c0 3.263 2.686 5.886 5.948 5.886 3.263 0 5.95-2.559 5.95-5.886"/>
    <path stroke="#000" stroke-miterlimit="10" stroke-width="3" d="M69.562 63.886c0 3.263 2.686 5.886 5.948 5.886 3.263 0 5.95-2.559 5.95-5.886M2.528 64.346l36.577-34.105c6.159-6.115 14.664-9.937 24.107-9.937 6.57 0 12.728 1.823 17.89 5.057l-.645 2.587C76.879 43.236 61.57 52.761 46.26 49.175c-2.992-.706-4.634-1.107-7.156-2.636"/>
    <path fill="#fff" d="M.542.285v159.96h159.916V.285H.542zM80.5 159.478c-43.689 0-79.19-35.448-79.19-79.213C1.31 36.5 36.747 1.117 80.5 1.117s79.127 35.447 79.127 79.148c0 43.701-35.438 79.213-79.127 79.213z"/>
    <path stroke="#86ED18" stroke-miterlimit="10" stroke-width="3" d="M105.127 155.575c-7.74 2.559-16.055 3.903-24.627 3.903-43.625 0-78.999-35.383-78.999-79.02C1.501 36.82 36.875 1.5 80.5 1.5c43.625 0 78.999 35.384 78.999 79.02 0 7.23-.96 14.205-2.815 20.859"/>
    <path stroke="#86ED18" stroke-linejoin="round" stroke-miterlimit="10" stroke-width="3" d="M109.668 93.382v-3.967c0-10.878 7.804-19.707 18.679-19.707h1.983c10.874 0 18.678 8.83 18.678 19.707v3.967M137.238 124.862c0-2.175-1.791-3.967-3.966-3.967h-3.966c-2.175 0-3.966 1.792-3.966 3.967s1.791 3.967 3.966 3.967h3.966c2.175 0 3.966-1.792 3.966-3.967zM137.238 124.862s11.834 0 11.834-13.757"/>
    <path stroke="#86ED18" stroke-linejoin="round" stroke-miterlimit="10" stroke-width="3" d="M113.635 111.105h-8.252a3.508 3.508 0 0 1-3.518-3.519V96.901a3.508 3.508 0 0 1 3.518-3.52h8.252v17.724z"/>
    <path fill="#fff" stroke="#86ED18" stroke-linejoin="round" stroke-miterlimit="10" stroke-width="3" d="M145.106 111.105h8.252a3.508 3.508 0 0 0 3.518-3.519V96.901a3.508 3.508 0 0 0-3.518-3.52h-8.252v17.724z"/>
</svg>
