<svg xmlns="http://www.w3.org/2000/svg" width="100" height="81" fill="none" viewBox="0 0 100 81">
    <path stroke="#202020" stroke-miterlimit="10" stroke-width="3" d="M0 12.795h32.09M8.022 22.587h20.056M16.044 31.572h8.023"/>
    <path stroke="#202020" stroke-linecap="round" stroke-linejoin="round" stroke-miterlimit="10" stroke-width="3" d="M91.34 63.597c.114.46.114 1.037.114 1.497 0 4.148-3.323 7.604-7.564 7.604-.458 0-.802 0-1.146-.116M98.101 63.943v1.152c0 7.948-6.417 14.4-14.325 14.4h-.802"/>
    <path stroke="#202020" stroke-linecap="round" stroke-miterlimit="10" stroke-width="3" d="M89.506 16.136l-6.647-6.682a1.118 1.118 0 0 1 0-1.613l2.521-2.534a1.104 1.104 0 0 1 1.605 0l6.647 6.681c.458.461.458 1.152 0 1.613l-2.522 2.535c-.458.46-1.145.46-1.604 0zM81.254 17.748l4.928-4.953M60.74 69.473c16.457 0 29.797-13.41 29.797-29.952 0-16.541-13.34-29.951-29.797-29.951-16.456 0-29.797 13.41-29.797 29.951 0 16.542 13.34 29.952 29.797 29.952z"/>
    <path stroke="#202020" stroke-linecap="round" stroke-miterlimit="10" stroke-width="3" d="M57.302 9.8V2.657c0-.576.573-1.152 1.146-1.152h4.584c.688 0 1.147.576 1.147 1.152V9.8"/>
    <path stroke="#86ED18" stroke-linecap="round" stroke-miterlimit="10" stroke-width="3" d="M60.74 16.482v19.584M60.74 42.977a3.447 3.447 0 0 0 3.438-3.456 3.447 3.447 0 0 0-3.438-3.456 3.447 3.447 0 0 0-3.438 3.456 3.447 3.447 0 0 0 3.438 3.456zM60.626 42.977v6.912"/>
</svg>
