<svg xmlns="http://www.w3.org/2000/svg" width="81" height="79" fill="none" viewBox="0 0 81 79">
    <path stroke="#86ED18" stroke-miterlimit="10" stroke-width="3" d="M51.085 15.817c4.475 2.695 7.459 7.55 7.459 13.094s-2.984 10.398-7.46 13.094M58.556 8.458c6.304 4.663 10.377 12.085 10.377 20.44 0 8.354-4.073 15.776-10.378 20.439"/>
    <path stroke="#86ED18" stroke-miterlimit="10" stroke-width="3" d="M65.95 1.176c8.159 6.553 13.36 16.543 13.36 27.721 0 11.114-5.136 21.04-13.218 27.606"/>
    <path stroke="#202020" stroke-miterlimit="10" stroke-width="3" d="M43.017 74.938c0 1.405-1.155 2.555-2.595 2.555H4.102c-1.44 0-2.595-1.15-2.595-2.555v-61.32c0-1.418 1.155-2.554 2.595-2.554h36.32c1.44 0 2.595 1.136 2.595 2.554v61.32z"/>
    <path stroke="#202020" stroke-miterlimit="10" stroke-width="3" d="M22.262 67.273c5.732 0 10.378-4.576 10.378-10.22 0-5.644-4.646-10.22-10.378-10.22-5.73 0-10.377 4.576-10.377 10.22 0 5.644 4.646 10.22 10.377 10.22zM1.507 36.613h41.51"/>
</svg>
