<svg xmlns="http://www.w3.org/2000/svg" width="80" height="75" fill="none" viewBox="0 0 80 75">
    <g stroke-miterlimit="10" stroke-width="3" clip-path="url(#a)">
        <path stroke="#000" d="M9.032 19.252L52.903 1.188M78.71 69.575a3.866 3.866 0 0 1-3.871 3.87H5.16a3.866 3.866 0 0 1-3.87-3.87V23.123a3.866 3.866 0 0 1 3.87-3.871H74.84a3.866 3.866 0 0 1 3.87 3.87v46.453z"/>
        <path stroke="#86ED18" d="M61.935 63.123a6.452 6.452 0 1 0 0-12.903 6.452 6.452 0 0 0 0 12.903zM18.064 63.123a6.452 6.452 0 1 0 0-12.903 6.452 6.452 0 0 0 0 12.903z"/>
        <path stroke="#000" d="M1.29 29.574h77.42M1.29 39.897h77.42"/>
        <path stroke="#86ED18" d="M34.839 51.51H45.16M34.839 61.832H45.16"/>
    </g>
    <defs>
        <clipPath id="a">
            <path fill="#fff" d="M0 0h80v74.736H0z"/>
        </clipPath>
    </defs>
</svg>
