<svg xmlns="http://www.w3.org/2000/svg" width="83" height="80" fill="none" viewBox="0 0 83 80">
    <path stroke="#86ED18" stroke-linecap="round" stroke-miterlimit="10" stroke-width="3" d="M1.5 17.257V1.5h16M1.5 1.5l16 15.757M81.5 17.257V1.5h-16M81.487 1.5L65.5 17.257M1.5 61.902V77.66h16M1.5 77.66l16-15.758M81.5 61.902V77.66h-16M81.487 77.66L65.5 61.902"/>
    <path stroke="#000" stroke-linecap="round" stroke-miterlimit="10" stroke-width="3" d="M62.5 28.038a23.726 23.726 0 0 1 3.52 12.474c0 13.341-10.987 24.161-24.533 24.161-13.547 0-24.534-10.82-24.534-24.16 0-13.342 10.987-24.161 24.534-24.161 3.306 0 6.466.643 9.36 1.825"/>
    <path stroke="#000" stroke-linecap="round" stroke-miterlimit="10" stroke-width="3" d="M41.498 24.414c0 3.348 4.907 1.352 4.907 4.832 0 4.622-3.76 5.87-6.547 4.044-2.773-1.825-6.493-2.784-9.773 1.72-3.267 4.491-1.093 9.678 1.253 9.612 2.347-.065 4.48-2.245 5.494.486.84 2.259 1.266 2.758 2.306 3.362 1.054.604 1.08 1.799.72 3.322-.373 1.523 1.667 6.447 3.267 6.447 1.6 0 3.08-.67 3.267-3.217.186-2.547 2.16-2.692 3.093-3.427.933-.735-.707-3.453 1.08-5.213 1.773-1.76 5.4-5.042 2.307-5.857-3.08-.814-2.84-1.43-3.267-2.705-.427-1.273-1.667-2.613.8-2.678 2.467-.066 5.053-.788 7.093-2.915 2.04-2.128 3.147-4.176 5-4.176-2.693-4.399-6.786-7.879-11.653-9.861-5.507 2.626-9.347 2.888-9.347 6.224z"/>
</svg>
