<svg xmlns="http://www.w3.org/2000/svg" width="82" height="70" fill="none" viewBox="0 0 82 70">
    <path stroke="#202020" stroke-linecap="round" stroke-linejoin="round" stroke-miterlimit="10" stroke-width="3" d="M69.092 1.51H1.511v15.36h67.581V1.51zM1.51 16.869v40.958H40.5M69.091 29.669v-12.8"/>
    <path stroke="#202020" stroke-linecap="round" stroke-linejoin="round" stroke-miterlimit="10" stroke-width="3" d="M9.308 10.47c.718 0 1.3-.573 1.3-1.28a1.29 1.29 0 0 0-1.3-1.28c-.718 0-1.3.573-1.3 1.28 0 .707.582 1.28 1.3 1.28zM18.405 10.47c.717 0 1.3-.573 1.3-1.28a1.29 1.29 0 0 0-1.3-1.28c-.718 0-1.3.573-1.3 1.28 0 .707.582 1.28 1.3 1.28zM27.503 10.47c.718 0 1.3-.573 1.3-1.28a1.29 1.29 0 0 0-1.3-1.28c-.718 0-1.3.573-1.3 1.28 0 .707.582 1.28 1.3 1.28z"/>
    <path stroke="#86ED18" stroke-linecap="round" stroke-linejoin="round" stroke-miterlimit="10" stroke-width="3" d="M58.695 68.066c11.484 0 20.794-9.169 20.794-20.479 0-11.31-9.31-20.479-20.794-20.479S37.9 36.277 37.9 47.588c0 11.31 9.31 20.478 20.794 20.478z"/>
    <path stroke="#86ED18" stroke-linecap="round" stroke-linejoin="round" stroke-miterlimit="10" stroke-width="3" d="M69.95 53.257c.545.358 1.416.858 1.247 1.997-.13.844-1.859 4.07-5.563 4.07-3.69 0-8.226-2.867-12.203-6.784-3.977-3.916-6.888-8.383-6.888-12.018 0-3.636 3.275-5.35 4.133-5.479 1.156-.166 1.65.704 2.027 1.23.364.537 2.47 3.724 2.807 4.21.325.486.663 1.69-.52 2.65-1.195.947-2.495 1.459 2.015 5.9 4.523 4.454 5.03 3.162 5.991 1.984.962-1.178 2.184-.845 2.69-.512.481.307 3.73 2.38 4.263 2.752z"/>
</svg>
