<svg xmlns="http://www.w3.org/2000/svg" width="92" height="68" fill="none" viewBox="0 0 92 68">
    <path fill="#202020" d="M46.411 42.77h-2.18l-.872-2.696h-4.504l-.872 2.696h-1.89l3.924-11.35h2.616l3.778 11.35zm-3.633-4.398l-1.744-5.107-1.743 5.107h3.487zM47.443 42.77V31.42h5.023c1.066 0 1.827.143 2.588.568 1.218.71 1.674 1.703 1.674 2.837 0 2.27-1.826 3.547-3.957 3.547h-3.045v4.398h-2.283zm2.283-6.242h2.588c1.522 0 2.131-.851 2.131-1.703 0-.425-.152-.85-.304-.992-.305-.426-.914-.71-1.98-.71h-2.435v3.405zM58.792 42.77V31.42h2.063v11.35h-2.063z"/>
    <path stroke="#86ED18" stroke-miterlimit="10" stroke-width="3" d="M17.546 22.817a5.5 5.5 0 1 0 0-11 5.5 5.5 0 0 0 0 11z"/>
    <path stroke="#86ED18" stroke-miterlimit="10" stroke-width="3" d="M32.998 21.09l-3.496-1.959c.13-.653.13-1.437.13-2.09 0-.783-.13-1.567-.26-2.35l3.108-1.829-4.144-7.183L25.1 7.508c-1.166-.915-2.461-1.698-3.756-2.22V1.5h-8.16v3.787a11.954 11.954 0 0 0-3.755 2.22L6.45 5.68l-4.144 7.183 3.108 1.698c-.13.784-.259 1.567-.259 2.35 0 .784.13 1.437.26 2.221L2.045 21.09l4.144 7.183 3.238-1.959a11.938 11.938 0 0 0 3.885 2.35v3.788h8.16v-3.787c1.424-.523 2.848-1.306 4.014-2.35l3.367 1.958 4.144-7.183z"/>
    <path stroke="#202020" stroke-linecap="round" stroke-linejoin="round" stroke-miterlimit="10" stroke-width="3" d="M17.522 56.182l-5.158 7.738v2.58h77.38v-2.58l-5.159-7.738"/>
    <path stroke="#202020" stroke-linecap="round" stroke-linejoin="round" stroke-miterlimit="10" stroke-width="3" d="M37.443 12.85h47.142v43.333H16.49V37.065"/>
</svg>
