<svg xmlns="http://www.w3.org/2000/svg" width="81" height="90" fill="none" viewBox="0 0 81 90">
    <path stroke="#86ED18" stroke-linecap="round" stroke-linejoin="round" stroke-miterlimit="10" stroke-width="3" d="M79.184 48.804c-7.908 0-14.285-3.17-19.132-7.989-4.72 4.819-11.097 7.99-19.133 7.99 0 0-1.785 28.53 19.133 39.688C80.97 77.335 79.184 48.804 79.184 48.804z"/>
    <path stroke="#86ED18" stroke-linecap="round" stroke-linejoin="round" stroke-miterlimit="10" stroke-width="3" d="M70.51 58.314L59.287 69.472l-5.484-5.706"/>
    <path stroke="#202020" stroke-linecap="round" stroke-linejoin="round" stroke-miterlimit="10" stroke-width="3" d="M37.858 62.372h-33.8a2.551 2.551 0 0 1-2.551-2.536V4.043a2.551 2.551 0 0 1 2.55-2.536h61.224a2.551 2.551 0 0 1 2.551 2.536v35.631M57.628 31.94H37.221M57.628 11.65H37.221"/>
    <path stroke="#202020" stroke-linecap="round" stroke-linejoin="round" stroke-miterlimit="10" stroke-width="3" d="M12.986 12.919c.704 0 1.275-.568 1.275-1.268 0-.7-.57-1.268-1.275-1.268-.704 0-1.275.568-1.275 1.268 0 .7.57 1.268 1.275 1.268zM12.986 33.207c.704 0 1.275-.568 1.275-1.268 0-.7-.57-1.268-1.275-1.268-.704 0-1.275.568-1.275 1.268 0 .7.57 1.268 1.275 1.268zM12.986 53.495c.704 0 1.275-.568 1.275-1.268 0-.7-.57-1.268-1.275-1.268-.704 0-1.275.568-1.275 1.268 0 .7.57 1.268 1.275 1.268zM67.832 21.795H1.507M44.108 42.083H1.507"/>
</svg>
