<svg xmlns="http://www.w3.org/2000/svg" width="2786" height="1339" fill="none" viewBox="0 0 2786 1339">
    <path stroke="#6100FE" stroke-miterlimit="10" stroke-width="8" d="M484.464 462.511c208.479-22.55 276.568 27.1 387.284 93.464 118.575 94.767 211.402 303.136 110.543 481.095-134.128 236.67-813.39 494.56-953.084 72.15-119.07-327.952 209.054-620.078 455.257-646.709zM1448.84 895.722c91.07 168.088 354 174.948 503.73 11.975 139.06-151.334 480.13 18.453 698.1-179.939C2998.3 359.836 2586.3-30.914 2220.53 6.491c-310.66 31.769-283.1 296.262-518.22 431.997-153.06 88.46-361.79 257.3-253.47 457.234z"/>
</svg>
