<?xml version="1.0" standalone="no"?>
<!DOCTYPE svg PUBLIC "-//W3C//DTD SVG 1.1//EN" "http://www.w3.org/Graphics/SVG/1.1/DTD/svg11.dtd" >
<svg xmlns="http://www.w3.org/2000/svg" xmlns:xlink="http://www.w3.org/1999/xlink" version="1.1" viewBox="0 -32 512 512">
  <g transform="matrix(1 0 0 -1 0 480)">
   <path fill="#005ea8"
d="M366 167q-16 16 -37 16q-22 0 -38 -16l-8 -8q-71 60 -124 124l8 8q16 16 16 37.5t-16 37.5l-45 46q-15 15 -38 15q-22 0 -37 -15l-25 -25q-19 -19 -21.5 -45.5t11.5 -48.5q111 -170 281 -281q18 -12 41 -12q31 0 53 22l25 25q15 15 15 37q0 23 -15 38zM396 62l-24 -25
q-16 -16 -38 -16q-17 0 -29 9q-167 111 -275 275q-10 16 -8.5 34.5t15.5 32.5l25 24q10 10 22 10q13 0 23 -10l45 -45q10 -9 10 -22.5t-10 -22.5l-15 -15q-7 -7 0 -14q61 -76 140 -141q7 -6 14 1l15 15q9 9 22.5 9t22.5 -9l45 -45q10 -9 10 -23q0 -13 -10 -22zM509 509
q-7 7 -15 0l-195 -195v113q0 10 -11 10t-11 -10v-139q0 -4 3 -8l2 -1q1 -1 2 -1h2l2 -1h139q10 0 10 11t-10 11h-113l195 195q7 8 0 15z" />
  </g>

</svg>
