<?xml version="1.0" encoding="utf-8"?>
<!-- Generator: Adobe Illustrator 19.1.0, SVG Export Plug-In . SVG Version: 6.00 Build 0)  -->
<svg version="1.1" id="Ebene_1" xmlns="http://www.w3.org/2000/svg" xmlns:xlink="http://www.w3.org/1999/xlink" x="0px" y="0px"
	 width="103.4px" height="100px" viewBox="0 0 103.4 100" style="enable-background:new 0 0 103.4 100;" xml:space="preserve">
<style type="text/css">
	.st0{fill:#005EA8;}
</style>
<g>
	<path fill="#005EA8" class="st0" d="M45.8,59.6c-0.5-0.2-1.1-0.3-1.7-0.4c-0.5,0-1.2,0-2.2,0H41v6.3h1.5c0.9,0,1.7-0.1,2.3-0.2
		c0.6-0.1,1.1-0.3,1.5-0.7c0.3-0.3,0.6-0.6,0.7-1c0.2-0.4,0.2-0.9,0.2-1.5c0-0.6-0.2-1.1-0.5-1.5C46.6,60,46.2,59.7,45.8,59.6z"/>
	<path fill="#005EA8" class="st0" d="M68,59.9c-0.5-0.3-1.1-0.4-1.8-0.5c-0.6-0.1-1.4-0.1-2.6-0.1h-1.3v13.2h1.3c1.3,0,2.3-0.1,2.9-0.2
		c0.6-0.1,1.2-0.3,1.8-0.6c1-0.5,1.8-1.3,2.2-2.3c0.4-0.9,0.7-2.2,0.7-3.5c0-1.3-0.2-2.6-0.7-3.6C69.9,61.3,69.1,60.4,68,59.9z"/>
	<path fill="#005EA8" class="st0" d="M103.4,48.9H77.9V30.3L47.6,0H0v100h77.9V82.6h25.5V48.9z M72,56.9c1.4,0.9,2.6,2.1,3.4,3.6
		c0.8,1.5,1.2,3.3,1.2,5.4c0.2,1.9-0.3,3.6-1.1,5.2c-0.9,1.5-2.1,2.8-3.4,3.6c-1,0.6-2.2,1-3.4,1.3c-1.2,0.2-2.7,0.4-4.3,0.4h-7.5
		V55.3h7.6c1.8,0,3.2,0.1,4.4,0.4C70.1,56,71.2,56.4,72,56.9z M49.7,11.9l16.4,16.3H49.7V11.9z M71,82.8V93h-64V6.9h35.8v28.2H71
		v13.7H28.3v33.8L71,82.8z M53.1,61.9c-0.1,0.9-0.2,1.9-0.6,2.8c-0.3,0.9-0.8,1.7-1.4,2.3c-0.8,0.8-1.8,1.4-2.8,1.9
		c-1,0.4-2.3,0.6-3.8,0.6H41v6.9h-5.5V55.3h9c1.3,0,2.5,0.1,3.4,0.3c0.9,0.2,1.8,0.6,2.5,1c0.8,0.5,1.5,1.2,2,2.2
		C52.8,59.6,53.1,60.7,53.1,61.9z M96.1,59.3h-9.7v3.9h9v4.1h-9v9H81V55.3h15.1V59.3z"/>
</g>
</svg>
