<?xml version="1.0" encoding="utf-8"?>
<!-- Generator: Adobe Illustrator 22.1.0, SVG Export Plug-In . SVG Version: 6.00 Build 0)  -->
<svg version="1.1" id="Ebene_1" xmlns="http://www.w3.org/2000/svg" xmlns:xlink="http://www.w3.org/1999/xlink" x="0px" y="0px"
	 width="100px" height="100px" viewBox="0 0 100 100" style="enable-background:new 0 0 100 100;" xml:space="preserve">
<style type="text/css">
	.st0{fill:#B4B4B4;}
</style>
<g>
	<path class="st0" d="M50,0C22.4,0,0,22.4,0,50s22.4,50,50,50s50-22.4,50-50S77.6,0,50,0z M50,92.9C26.4,92.9,7.1,73.6,7.1,50
		S26.4,7.1,50,7.1S92.9,26.4,92.9,50S73.6,92.9,50,92.9z"/>
</g>
<g>
	<rect x="39.5" y="62" class="st0" width="40" height="8"/>
	<circle class="st0" cx="26.5" cy="66" r="6"/>
	<rect x="39.5" y="46" class="st0" width="40" height="8"/>
	<circle class="st0" cx="26.5" cy="50" r="6"/>
	<rect x="39.5" y="30" class="st0" width="40" height="8"/>
	<circle class="st0" cx="26.5" cy="34" r="6"/>
</g>
</svg>
