<svg xmlns="http://www.w3.org/2000/svg" width="160" height="164" viewBox="0 0 160 164"><path fill="#005EA8" d="M0 0v127l73 37 73-37V0z"/><path fill="#FFF" d="M5 52v71l68 35 68-35V52z"/><path d="M28.373 73.611h-3.454l-5.9-9.541v9.541h-3.286v-13.9h4.285l5.069 7.963v-7.963h3.286v13.9zm6.824-11.977H31.64v-2.548h3.557v2.548zm-.093 11.977h-3.37V63.128h3.37v10.483zm10.764-7.281h-.298c-.143-.049-.373-.087-.689-.112a10.36 10.36 0 0 0-.792-.037c-.478 0-.9.031-1.267.093s-.761.168-1.183.317v7.02h-3.37V63.127h3.37v1.541c.739-.635 1.381-1.056 1.928-1.265s1.049-.313 1.509-.313a8.588 8.588 0 0 1 .792.038v3.202zm12.098 6.078c0 .983-.14 1.811-.42 2.483-.28.672-.672 1.198-1.177 1.577-.504.386-1.112.664-1.825.836-.713.171-1.517.257-2.413.257a17.6 17.6 0 0 1-2.152-.131 16.724 16.724 0 0 1-1.835-.317V74.49h.41c.41.162.911.31 1.501.444.59.134 1.118.201 1.584.201.621 0 1.126-.057 1.514-.173.389-.116.685-.279.891-.49a1.75 1.75 0 0 0 .419-.766c.087-.311.131-.684.131-1.12v-.196a5 5 0 0 1-1.343.784 4.455 4.455 0 0 1-1.641.289c-1.467 0-2.598-.442-3.394-1.326s-1.193-2.228-1.193-4.032c0-.865.121-1.612.364-2.24s.584-1.177 1.026-1.643c.41-.436.915-.775 1.515-1.017a4.88 4.88 0 0 1 1.842-.364c.566 0 1.08.067 1.543.201a5.01 5.01 0 0 1 1.263.555l.124-.467h3.267l-.001 9.278zm-3.37-2.101v-4.752a3.182 3.182 0 0 0-.708-.191 4.706 4.706 0 0 0-.754-.07c-.882 0-1.544.253-1.984.761s-.661 1.215-.661 2.124c0 1.009.188 1.711.564 2.109.375.398.933.597 1.672.597.335 0 .664-.053.987-.159.322-.105.616-.245.884-.419zm16.868-1.316h-7.692c.049.821.362 1.45.938 1.886.576.436 1.424.653 2.544.653a5.72 5.72 0 0 0 2.063-.382c.666-.255 1.192-.529 1.577-.821h.374v2.698c-.759.305-1.475.526-2.147.663-.672.137-1.416.206-2.231.206-2.104 0-3.715-.473-4.835-1.419s-1.68-2.293-1.68-4.042c0-1.73.531-3.101 1.592-4.112 1.061-1.011 2.516-1.517 4.365-1.517 1.706 0 2.987.431 3.846 1.293.859.862 1.288 2.102 1.288 3.72l-.002 1.174zm-3.342-1.97c-.018-.703-.193-1.232-.523-1.587-.33-.354-.844-.532-1.541-.532-.647 0-1.179.168-1.596.504-.417.336-.65.875-.7 1.615h4.36zm16.243 6.59h-3.37v-5.199c0-.423-.022-.845-.065-1.265-.044-.42-.118-.73-.224-.929a1.12 1.12 0 0 0-.546-.504c-.24-.106-.574-.159-1.004-.159-.305 0-.614.049-.929.15a4.98 4.98 0 0 0-1.022.476v7.431h-3.37V63.129h3.37v1.157c.597-.467 1.17-.824 1.72-1.074a4.393 4.393 0 0 1 1.832-.374c1.131 0 2.015.33 2.653.989.637.66.955 1.646.955 2.959v6.825zm13.284 0h-3.37v-1.092c-.578.473-1.118.821-1.622 1.045-.504.224-1.085.336-1.744.336-1.275 0-2.293-.492-3.058-1.475-.765-.984-1.146-2.309-1.146-3.977 0-.89.129-1.678.386-2.367a5.437 5.437 0 0 1 1.059-1.769 4.348 4.348 0 0 1 1.538-1.087 4.567 4.567 0 0 1 1.809-.387c.628 0 1.142.067 1.543.201s.813.304 1.236.509v-4.463h3.37l-.001 14.526zm-3.369-2.885v-5.152a3.306 3.306 0 0 0-.746-.216 4.312 4.312 0 0 0-.716-.065c-.882 0-1.544.276-1.984.828s-.661 1.316-.661 2.295c0 1.028.178 1.776.531 2.24.353.464.922.696 1.705.696.304 0 .627-.057.969-.173.341-.115.641-.266.902-.453zm23.263-7.598l-3.249 10.483h-3.567l-2.137-7.067-2.109 7.067h-3.603l-3.221-10.483h3.526l1.8 7.225 2.237-7.225h2.978l2.127 7.225 1.77-7.225h3.448zm12.724 5.246c0 1.724-.503 3.082-1.508 4.075s-2.416 1.489-4.233 1.489-3.229-.496-4.233-1.489c-1.005-.993-1.508-2.351-1.508-4.075 0-1.737.506-3.1 1.517-4.089 1.011-.989 2.419-1.484 4.224-1.484 1.83 0 3.244.498 4.243 1.494.998.996 1.498 2.356 1.498 4.079zm-4.136 2.549c.217-.268.382-.589.49-.966.108-.377.163-.898.163-1.564 0-.616-.056-1.133-.168-1.549-.112-.417-.268-.75-.467-.999a1.642 1.642 0 0 0-.719-.542c-.28-.106-.582-.159-.906-.159s-.612.044-.864.131-.493.261-.723.523c-.206.243-.369.576-.49.999-.121.423-.182.955-.182 1.596 0 .573.053 1.069.159 1.489.106.42.261.758.467 1.012.199.243.437.42.714.532.276.112.593.168.947.168.305 0 .596-.051.873-.154s.514-.274.706-.517zM34.142 98.31c-.622.243-1.447.484-2.473.723a13.45 13.45 0 0 1-3.071.359c-2.365 0-4.216-.643-5.555-1.928-1.338-1.285-2.007-3.061-2.007-5.326 0-2.16.676-3.9 2.026-5.223 1.35-1.323 3.233-1.984 5.648-1.984.915 0 1.786.083 2.614.248.828.165 1.749.493 2.763.985v3.258h-.401c-.174-.131-.429-.315-.766-.555s-.66-.444-.971-.612c-.361-.199-.782-.37-1.265-.514s-.994-.215-1.536-.215c-.635 0-1.211.093-1.727.28s-.98.473-1.391.859c-.392.374-.702.848-.929 1.424-.227.576-.341 1.24-.341 1.993 0 1.537.408 2.713 1.223 3.529.815.816 2.019 1.223 3.613 1.223a10.624 10.624 0 0 0 .904-.038V94.07h-2.772v-2.623h6.413l.001 6.863zm13.471.794h-3.37v-1.157c-.621.473-1.19.832-1.706 1.079-.516.246-1.131.369-1.846.369-1.156 0-2.046-.333-2.671-.999-.625-.666-.937-1.649-.937-2.95v-6.824h3.37v5.199c0 .529.017.969.051 1.321.034.351.114.643.238.873.118.23.297.398.537.504.24.106.574.159 1.004.159.286 0 .604-.053.952-.159s.684-.261 1.009-.467v-7.431h3.37l-.001 10.483zm-6.386-11.977h-2.772v-2.548h2.772v2.548zm5.013 0h-2.772v-2.548h2.772v2.548zm15.077 11.977h-3.37v-5.199c0-.423-.022-.845-.065-1.265s-.118-.73-.224-.929a1.12 1.12 0 0 0-.546-.504c-.24-.106-.574-.159-1.004-.159-.305 0-.614.049-.929.15a4.98 4.98 0 0 0-1.022.476v7.431h-3.37V88.621h3.37v1.157c.597-.467 1.17-.824 1.72-1.074s1.161-.374 1.832-.374c1.131 0 2.015.33 2.653.989.637.66.956 1.646.956 2.959l-.001 6.826zm12.201-3.324c0 1.083-.485 1.956-1.456 2.618-.971.663-2.3.994-3.986.994-.934 0-1.78-.087-2.54-.261-.76-.174-1.369-.367-1.83-.579v-2.763h.308c.168.118.362.248.583.387s.534.291.938.452c.349.143.744.266 1.185.369s.915.154 1.419.154c.66 0 1.148-.073 1.466-.219.318-.146.476-.362.476-.648 0-.255-.093-.441-.28-.555-.187-.115-.542-.225-1.064-.331a16.135 16.135 0 0 0-1.012-.182 11.178 11.178 0 0 1-1.162-.238c-.952-.249-1.659-.636-2.119-1.162-.46-.526-.691-1.181-.691-1.965 0-1.009.478-1.847 1.433-2.516.955-.669 2.261-1.004 3.916-1.004.784 0 1.536.08 2.254.238.719.159 1.28.328 1.685.509v2.651h-.289a6.829 6.829 0 0 0-1.704-.836 6.026 6.026 0 0 0-1.937-.322c-.542 0-.997.075-1.368.224-.37.149-.555.361-.555.635 0 .249.084.439.252.57s.563.261 1.185.392c.343.069.711.135 1.106.201s.792.148 1.19.248c.883.23 1.537.593 1.96 1.087.424.493.637 1.111.637 1.852zm8.934 3.231c-.361.093-.744.166-1.148.218s-.899.08-1.484.08c-1.307 0-2.279-.264-2.917-.793-.638-.529-.957-1.435-.957-2.716v-4.901h-1.381v-2.278h1.381v-2.997h3.37v2.997h3.137v2.278h-3.137v3.721c0 .368.003.689.01.963.006.275.056.52.15.739.086.217.241.39.46.519.22.127.542.191.963.191.174 0 .401-.037.683-.112.282-.075.48-.143.591-.206h.28l-.001 2.297zm5.47-11.884h-3.557v-2.548h3.557v2.548zm-.093 11.977h-3.37V88.62h3.37v10.484zm13.358-1.205c0 .983-.14 1.811-.42 2.483-.28.672-.672 1.198-1.177 1.577-.504.386-1.112.664-1.825.836-.713.171-1.517.257-2.413.257-.728 0-1.445-.044-2.152-.131s-1.318-.193-1.835-.317v-2.623h.41c.411.162.911.31 1.502.444a7.227 7.227 0 0 0 1.584.201c.621 0 1.126-.057 1.514-.173.388-.116.685-.279.89-.49a1.74 1.74 0 0 0 .419-.766c.087-.311.131-.684.131-1.12v-.196a5 5 0 0 1-1.343.784 4.455 4.455 0 0 1-1.641.289c-1.467 0-2.599-.442-3.394-1.326-.795-.883-1.193-2.228-1.193-4.032 0-.865.121-1.612.364-2.24a4.947 4.947 0 0 1 1.025-1.643c.41-.436.915-.775 1.515-1.017s1.213-.364 1.842-.364c.566 0 1.079.067 1.543.201.464.134.884.319 1.263.555l.122-.467h3.267l.002 9.278zm-3.369-2.101v-4.752a3.167 3.167 0 0 0-.708-.191 4.706 4.706 0 0 0-.754-.07c-.882 0-1.544.253-1.984.761-.441.507-.661 1.215-.661 2.124 0 1.009.188 1.711.564 2.109.375.398.933.597 1.672.597.335 0 .664-.053.987-.159a3.69 3.69 0 0 0 .884-.419zm16.869-1.316h-7.692c.049.821.362 1.45.938 1.886.576.436 1.424.653 2.544.653a5.72 5.72 0 0 0 2.063-.382c.666-.255 1.192-.529 1.577-.821h.374v2.698c-.759.305-1.475.526-2.147.663-.672.137-1.416.206-2.231.206-2.104 0-3.715-.473-4.835-1.419-1.12-.946-1.68-2.293-1.68-4.042 0-1.73.531-3.101 1.592-4.112 1.061-1.011 2.516-1.517 4.365-1.517 1.706 0 2.987.431 3.846 1.293.859.862 1.288 2.102 1.288 3.72l-.002 1.174zm-3.343-1.97c-.018-.703-.193-1.232-.523-1.587-.33-.354-.844-.532-1.541-.532-.647 0-1.179.168-1.596.504-.417.336-.65.875-.7 1.615h4.36zm13.312-.69h-.298c-.143-.049-.373-.087-.689-.112s-.581-.037-.792-.037c-.478 0-.9.031-1.267.093a7.187 7.187 0 0 0-1.183.317v7.02h-3.37V88.619h3.37v1.541c.739-.635 1.381-1.056 1.929-1.265.546-.209 1.049-.313 1.509-.313a8.588 8.588 0 0 1 .792.038l-.001 3.202zm-83.732 31.183c-.622.243-1.447.484-2.473.723a13.45 13.45 0 0 1-3.071.359c-2.365 0-4.216-.643-5.555-1.928-1.338-1.285-2.007-3.061-2.007-5.326 0-2.16.676-3.9 2.026-5.223s3.233-1.984 5.648-1.984c.915 0 1.786.083 2.614.248.828.165 1.749.493 2.763.985v3.258h-.401a39.497 39.497 0 0 0-.766-.555 9.224 9.224 0 0 0-.971-.612c-.361-.199-.782-.37-1.265-.514s-.994-.215-1.536-.215c-.635 0-1.211.093-1.727.28s-.98.473-1.391.859c-.392.374-.702.848-.929 1.424-.227.576-.341 1.24-.341 1.993 0 1.537.408 2.713 1.223 3.529.815.816 2.019 1.223 3.613 1.223a10.624 10.624 0 0 0 .904-.038v-2.726H34.51v-2.623h6.413l.001 6.863zm9.373-.318c-.181.137-.405.302-.672.495a4.799 4.799 0 0 1-.756.457 4.7 4.7 0 0 1-1.027.331 5.871 5.871 0 0 1-1.167.108c-.996 0-1.83-.308-2.502-.924-.672-.616-1.009-1.404-1.009-2.362 0-.766.171-1.391.514-1.876.343-.485.828-.868 1.456-1.148.622-.28 1.394-.48 2.315-.597a40.013 40.013 0 0 1 2.866-.261v-.056c0-.579-.237-.979-.71-1.2-.473-.221-1.17-.331-2.091-.331-.554 0-1.146.098-1.774.294s-1.079.347-1.353.452h-.307v-2.53c.354-.093.932-.204 1.732-.331.8-.127 1.601-.191 2.404-.191 1.91 0 3.291.294 4.14.882s1.275 1.51 1.275 2.768v7.132h-3.333v-1.112zm0-1.63v-2.177c-.454.037-.946.088-1.475.153-.529.065-.93.142-1.204.228-.336.106-.593.26-.77.461-.178.202-.266.467-.266.795 0 .217.018.394.056.531.037.137.131.267.28.391.143.123.315.216.514.274.199.059.511.088.934.088.336 0 .677-.069 1.022-.205.344-.137.647-.316.909-.539zm14.021-4.54h-.298c-.143-.049-.373-.087-.689-.112a10.36 10.36 0 0 0-.792-.037c-.478 0-.9.031-1.267.093a7.187 7.187 0 0 0-1.183.317v7.02h-3.37v-10.483h3.37v1.541c.739-.635 1.381-1.056 1.928-1.265.546-.209 1.049-.313 1.509-.313a8.588 8.588 0 0 1 .792.038v3.201zm8.253 6.17c-.181.137-.405.302-.672.495a4.799 4.799 0 0 1-.756.457 4.7 4.7 0 0 1-1.027.331 5.871 5.871 0 0 1-1.167.108c-.996 0-1.83-.308-2.502-.924s-1.009-1.404-1.009-2.362c0-.766.171-1.391.514-1.876.343-.485.828-.868 1.456-1.148.622-.28 1.394-.48 2.315-.597a40.013 40.013 0 0 1 2.866-.261v-.056c0-.579-.237-.979-.71-1.2-.473-.221-1.17-.331-2.091-.331-.554 0-1.146.098-1.774.294s-1.079.347-1.353.452h-.308v-2.53c.354-.093.932-.204 1.732-.331.8-.127 1.601-.191 2.404-.191 1.91 0 3.291.294 4.14.882.849.588 1.275 1.51 1.275 2.768v7.132H72.57l.001-1.112zm0-1.63v-2.177c-.454.037-.946.088-1.475.153-.529.065-.93.142-1.204.228-.336.106-.593.26-.77.461-.178.202-.266.467-.266.795 0 .217.018.394.056.531.037.137.131.267.28.391.143.123.315.216.514.274.199.059.511.088.934.088.336 0 .677-.069 1.022-.205.344-.137.647-.316.909-.539zm16.952 2.741h-3.37v-5.199c0-.423-.022-.845-.065-1.265-.044-.42-.118-.73-.224-.929a1.12 1.12 0 0 0-.546-.504c-.24-.106-.574-.159-1.004-.159-.305 0-.614.049-.929.15s-.655.258-1.022.476v7.431h-3.37v-10.483h3.37v1.157c.597-.467 1.17-.824 1.72-1.074a4.393 4.393 0 0 1 1.832-.374c1.131 0 2.015.33 2.653.989.637.66.955 1.646.955 2.959v6.825zm9.792-.092a9.427 9.427 0 0 1-1.148.218c-.404.053-.899.08-1.484.08-1.307 0-2.279-.264-2.917-.793-.638-.529-.957-1.435-.957-2.716v-4.901h-1.381v-2.277h1.381v-2.997h3.37v2.997h3.137v2.277h-3.137v3.721c0 .368.003.689.01.963.006.275.056.52.15.739.086.217.241.39.46.519.22.127.542.191.963.191.174 0 .401-.037.683-.112.282-.075.48-.143.591-.206h.28l-.001 2.297zm5.471-11.885h-3.557v-2.548h3.557v2.548zm-.094 11.977h-3.37v-10.483h3.37v10.483zm13.49-4.621h-7.692c.049.821.362 1.45.938 1.886.576.436 1.424.653 2.544.653a5.72 5.72 0 0 0 2.063-.382c.666-.255 1.192-.529 1.577-.821h.374v2.698c-.759.305-1.475.526-2.147.663-.672.137-1.416.206-2.231.206-2.104 0-3.715-.473-4.835-1.419-1.12-.946-1.68-2.293-1.68-4.042 0-1.73.531-3.101 1.592-4.112 1.061-1.011 2.516-1.517 4.365-1.517 1.706 0 2.987.431 3.846 1.293.859.862 1.288 2.102 1.288 3.72l-.002 1.174zm-3.342-1.97c-.018-.703-.193-1.232-.523-1.587-.33-.354-.844-.532-1.541-.532-.647 0-1.179.168-1.596.504-.417.336-.65.875-.7 1.615h4.36z" fill="#005EA8"/><path fill="#FFF" d="M16.933 31.016h-.007c-2.099 0-4.268-.051-5.697-.661-.739-.314-1.252-.735-1.616-1.326-.399-.651-.593-1.49-.593-2.567 0-.821.117-1.785.348-2.87.053-.246 1.291-6.03 1.374-6.337.327-1.205.74-2.197 1.264-3.03.905-1.434 2.109-2.358 3.789-2.908 1.4-.456 3.18-.659 5.773-.659h.022c1.361 0 2.481.096 3.422.294 1.11.233 1.957.613 2.519 1.132.419.386.691.86.807 1.405.059.275.088.582.088.915 0 .77-.157 1.573-.283 2.218-.018.095-.037.186-.053.275l-.005.026H23.07l.004-.036.022-.219c0-.003.022-.207.022-.499 0-.435-.204-.777-.623-1.044-.331-.188-.754-.253-1.16-.302a11.93 11.93 0 0 0-1.377-.059c-.844.001-1.481.067-2.004.21a3.027 3.027 0 0 0-1.059.503c-.416.315-.738.769-.988 1.385-.233.574-.401 1.257-.582 2.105l-.687 3.234c-.221 1.042-.377 1.832-.378 2.511 0 .392.053.703.168.977.178.437.558.778 1.071.96.494.179 1.118.26 2.027.261.607 0 1.104-.011 1.556-.066.785-.094 1.346-.33 1.768-.74.457-.445.766-1.103.972-2.07l.07-.33h4.96l-.002.033a36.35 36.35 0 0 1-.425 1.862 9.481 9.481 0 0 1-.503 1.417c-.482 1.051-1.153 1.859-2.114 2.544-.929.65-1.918 1.051-3.114 1.26-1.029.18-2.08.194-3.249.194h-.015c-.025.002-.438.002-.497.002zm55.563 0h-.007c-2.099 0-4.268-.051-5.697-.661-.739-.314-1.252-.735-1.616-1.326-.399-.651-.593-1.49-.593-2.567 0-.821.117-1.785.348-2.87.053-.246 1.291-6.03 1.374-6.337.327-1.205.74-2.197 1.264-3.03.905-1.434 2.109-2.358 3.789-2.908 1.4-.456 3.18-.659 5.773-.659h.022c1.361 0 2.481.096 3.422.294 1.11.233 1.957.613 2.519 1.132.419.386.691.86.807 1.405.059.274.088.582.088.915 0 .77-.157 1.573-.283 2.219-.018.094-.037.186-.053.274l-.005.026h-5.015l.004-.036.022-.219c0-.003.022-.207.022-.499 0-.435-.204-.777-.623-1.044-.331-.188-.754-.253-1.16-.302a11.93 11.93 0 0 0-1.377-.059c-.844.001-1.481.067-2.004.21a3.027 3.027 0 0 0-1.059.503c-.415.315-.738.769-.988 1.385-.233.574-.401 1.257-.582 2.105l-.688 3.235c-.221 1.042-.377 1.832-.378 2.511 0 .392.054.703.168.977.178.437.558.778 1.071.96.494.179 1.118.26 2.027.261.607 0 1.104-.011 1.556-.066.785-.094 1.346-.33 1.768-.74.457-.445.766-1.103.972-2.07l.07-.33h4.96l-.002.034a36.35 36.35 0 0 1-.425 1.862 9.426 9.426 0 0 1-.503 1.416c-.482 1.051-1.153 1.859-2.114 2.544-.929.65-1.918 1.051-3.114 1.26-1.029.18-2.08.194-3.249.194h-.014l-.497.001zm-10.761-.167H47.307l.008-.039 4.035-18.986c.07-.35.202-.589.412-.754.215-.166.511-.248.906-.249h12.173c.3.001.519.069.648.202.098.1.151.249.151.429v.016c-.001.073-.01.148-.028.224l-.629 2.963h-9.425l-.817 3.926h8.845l-.805 3.702h-8.845l-1.008 4.739h9.618l-.811 3.827zm25.871.001h-4.81l.008-.039 4.022-18.92c.096-.411.251-.694.473-.865.178-.135.405-.202.697-.202h2.847c.307.001.536.072.68.212.114.11.174.268.175.459a.927.927 0 0 1-.018.178L87.606 30.85zm13.242-.001h-6.061l-.009-.02-4.488-10.386.014-.015 7.763-8.43c.479-.525.763-.79 1.014-.946.272-.166.507-.227.898-.229h3.912a.572.572 0 0 1 .362.112.321.321 0 0 1 .082.097.24.24 0 0 1 .024.081h.008l-.007.063c-.007.082-.05.216-.211.396l-8.379 9.009 5.078 10.268zm-60.822.001h-.04l.008-.039 1.714-8.087h-7.93l-1.727 8.126h-4.809l.008-.039c.163-.768 3.985-18.804 4.009-18.904.141-.594.377-.797.566-.909.205-.119.49-.174.899-.174h2.601c.134.002.354.058.522.178.09.063.16.138.208.222a.66.66 0 0 1 .082.331c0 .054-.006.113-.016.175-.02.116-1.341 6.278-1.471 6.887h7.93l1.424-6.711c.141-.594.377-.797.566-.909.205-.119.49-.174.899-.174h2.601c.134.002.354.058.522.178.09.063.16.138.208.222a.66.66 0 0 1 .082.331c0 .054-.006.113-.016.175-.021.119-3.899 18.319-4.063 19.093l-.006.025-4.771.003zm75.008-16.111c.37.095.665.28.823.588.105.203.149.445.149.727 0 .292-.046.63-.132 1.034-.112.524-.221.955-.388 1.326a2.394 2.394 0 0 1-.723.94c-.66.516-1.688.834-3.507 1.242-2.409.535-4.071.981-5.242 1.562-1.17.584-1.853 1.283-2.366 2.384-.34.735-.598 1.652-.846 2.818l-.68 3.458h15.601l.728-3.504h-10.856s.168-.841.306-1.15c.178-.399.409-.699.712-.921.303-.223.668-.369 1.113-.493.891-.247 2.121-.415 3.932-.877 2.233-.578 3.739-1.208 4.801-2.232 1.062-1.023 1.711-2.461 2.19-4.714.177-.834.276-1.654.276-2.274 0-.893-.172-1.576-.479-2.101-.308-.526-.753-.903-1.333-1.182-1.158-.558-2.857-.687-4.874-.685-2.567-.001-4.587.266-6.089 1.187-1.501.92-2.546 2.596-3.128 5.322l-.164.77h4.744l.181-.852c.185-.817.358-1.373.665-1.768.31-.398.754-.587 1.363-.664.409-.053.901-.065 1.516-.065.096-.002.19-.002.28-.002.588.003 1.054.029 1.427.126zm13.086-1.928c-.551.573-5.181 5.417-7.076 7.403-.378.405-.784.856-.964 1.224-.144.27-.335 1.023-.433 1.558-.202 1.118-.353 2.138-.446 2.557a1.383 1.383 0 0 0-.035.299.93.93 0 0 0 .338.738c.191.163.447.237.705.237h9.19l-.846 3.995 4.838-.456.752-3.539h1.728l.752-3.537h-1.729s1.726-8.074 1.781-8.374c.594-3.268-.762-4.224-3.817-4.224-.78.002-2.545-.159-4.738 2.119zm2.031 10.481h-6.943l8.26-8.56h.503l-1.82 8.56zm-12.859 18.705c-3.123 0-6.122-.833-8.673-2.41-2.505-1.548-3.968-3.373-4.659-4.404l-.913 2.352a.503.503 0 0 1-.968-.174l-.049-4.607v-.004a.503.503 0 0 1 .5-.489l4.688-.002h.004a.502.502 0 0 1 .485.496.5.5 0 0 1-.319.463l-2.288.887c2.006 1.786 6.138 4.662 11.941 4.662.495 0 1-.022 1.498-.064a24.027 24.027 0 0 0 7.142-1.739c1.949-.814 3.669-1.854 4.984-3.01l-2.361-.697a.498.498 0 0 1-.359-.476l.002-.049a.497.497 0 0 1 .453-.446l4.579-.417c.021-.002.037-.002.051-.002.117.001.23.041.319.115a.49.49 0 0 1 .178.342c.381 4.5.381 4.502.381 4.518a.497.497 0 0 1-.497.497.504.504 0 0 1-.452-.277l-1.105-2.118c-.888 1.198-2.434 2.893-4.851 4.362-2.454 1.492-5.195 2.375-8.145 2.626l-.295.025v-.002c-.425.027-.852.042-1.271.042z"/><circle fill="#FFF" cx="142.362" cy="125.644" r="14.667"/><path fill="#005EA8" d="M142.5 107.5c-9.66 0-17.5 7.84-17.5 17.5s7.84 17.5 17.5 17.5S160 134.66 160 125s-7.84-17.5-17.5-17.5zm3.15 30.1h-6.3v-17.5h6.3v17.5zm-3.15-19.25h-.035c-1.995 0-3.255-1.33-3.255-3.01 0-1.785 1.295-3.045 3.29-3.045s3.255 1.26 3.29 3.045c0 1.645-1.295 3.01-3.29 3.01z"/></svg>