<svg id="Ebene_1" xmlns="http://www.w3.org/2000/svg" xmlns:xlink="http://www.w3.org/1999/xlink" viewBox="0 0 425.2 223.9"><style>.st0{fill:#d2dbe5}.st1{fill:#243983}.st2{fill:#24438f}.st3{fill:#fff}.st4{fill:#3b368b}.st5,.st6{clip-path:url(#SVGID_2_);fill:#fff}.st6{fill:#3b368b}.st7{clip-path:url(#SVGID_4_);fill:#f08224}</style><path class="st0" d="M0 0h425.2v223.3H0z"/><path class="st1" d="M165.1 65.1c-.7 0-1.4 0-2.2-.1l-2.4-.3c-.8-.1-1.6-.3-2.3-.5-.7-.2-1.4-.4-2-.6l.3-3c.4.2 1 .4 1.7.6.7.2 1.4.3 2.1.5.7.1 1.5.3 2.3.3.8.1 1.5.1 2.1.1 2.2 0 3.8-.5 5-1.6 1.2-1.1 1.8-2.6 1.8-4.6 0-1.7-.6-3.1-1.7-4.2s-2.9-2.1-5.3-3c-1.3-.6-2.5-1.1-3.4-1.7-1-.6-1.8-1.2-2.4-1.9-.6-.7-1.1-1.6-1.4-2.5-.3-.9-.5-2.1-.5-3.3 0-1.4.2-2.7.7-3.8.5-1.1 1.1-2.1 2-2.9.9-.8 1.9-1.4 3.1-1.9 1.2-.4 2.6-.7 4.1-.7 1.1 0 2.2.1 3.4.2 1.1.2 2.4.4 3.7.7l-.2 2.9c-1.4-.3-2.6-.6-3.7-.7-1.1-.1-2.1-.2-3-.2-2 0-3.6.6-4.8 1.7-1.2 1.1-1.8 2.7-1.8 4.6 0 .8.1 1.5.4 2.2.3.6.7 1.2 1.2 1.7.6.5 1.2 1 2.1 1.4.8.5 1.8.9 3 1.4 1.4.6 2.6 1.2 3.6 1.8 1 .6 1.8 1.3 2.5 2.1s1.1 1.6 1.4 2.6c.3 1 .5 2.1.5 3.4 0 2.9-.9 5.2-2.6 6.8-1.9 1.6-4.3 2.5-7.3 2.5zm15-34.6h17.7v3h-14.4v12.2h12.8v3h-12.8v12.7h14.8v3h-18.1V30.5zm23.6 0h3.3v15.1h15.1V30.5h3.4v33.9h-3.4V48.7H207v15.8h-3.3v-34zm39.2 21.3c-.5.1-1 .1-1.6.1h-3.5c-.7 0-1.3-.1-1.8-.1v12.7h-3.3V30.8l3.6-.6c1.2-.1 2.3-.2 3.5-.2 4.3 0 7.4.9 9.4 2.6 2 1.7 2.9 4.5 2.9 8.4 0 2.7-.5 4.8-1.5 6.5-1 1.6-2.5 2.8-4.6 3.5l6.5 13.4H249l-6.1-12.6zm-2.9-2.7c3.1 0 5.3-.6 6.6-1.9 1.4-1.3 2-3.3 2-6.2 0-2.8-.7-4.9-2-6.1-1.3-1.3-3.4-1.9-6.4-1.9-.5 0-1.1 0-1.9.1-.7.1-1.5.2-2.4.3v15.5c1.6.1 2.9.2 4.1.2zm39.8 15.8c-2.4 0-4.5-.4-6.3-1.1-1.8-.7-3.2-1.7-4.4-3.1-1.1-1.4-2-3.2-2.5-5.4s-.8-4.8-.8-7.8c0-3.1.3-5.7.8-7.9.6-2.2 1.4-4 2.6-5.4 1.2-1.4 2.7-2.4 4.5-3.1 1.8-.7 4-1 6.6-1 .8 0 1.8.1 3 .2s2.4.3 3.5.6v2.9c-2.3-.5-4.3-.7-6.1-.7-2.1 0-3.8.3-5.3.8-1.4.5-2.6 1.3-3.5 2.5-.9 1.1-1.6 2.6-1.9 4.5-.4 1.8-.6 4.1-.6 6.7 0 2.6.2 4.8.6 6.6.4 1.8 1 3.3 1.9 4.4.9 1.2 2 2 3.3 2.5 1.3.5 3 .8 4.9.8.4 0 1 0 1.6-.1.6 0 1.3-.1 2-.2V47.2h3.2v17.1c-1.5.2-2.8.4-3.8.5-1.2.1-2.2.1-3.3.1zm24.4 0c-2 0-3.8-.3-5.2-.8-1.4-.5-2.6-1.4-3.5-2.5-.9-1.1-1.6-2.6-2-4.3-.4-1.7-.6-3.8-.6-6.2V30.5h3.3V51c0 3.8.6 6.5 1.9 8.3 1.3 1.7 3.3 2.6 6.1 2.6s4.9-.8 6.1-2.5c1.2-1.7 1.9-4.5 1.9-8.3V30.5h3.4v20.6c0 2.4-.2 4.4-.6 6.2-.4 1.7-1.1 3.2-2 4.3-.9 1.1-2.1 2-3.5 2.5-1.5.6-3.2.8-5.3.8zm23.7-31.3h-8.5v-3.1h20.5v3.1h-8.6v30.9h-3.4V33.6z"/><path class="st2" d="M157.8 83.4h1.7v5.7h1.4l3.6-5.7h1.9l-3.7 6-.6.5v.1l.7.4 4.1 6.2H165l-3.9-6h-1.5v6h-1.7V83.4zm12.4 13.4c-1.5 0-2.3-.8-2.3-2.5V87h1.7v6.8c0 .6.1 1 .3 1.2.2.2.5.3.9.3s.7-.1 1-.2c.3-.1.7-.4 1.2-.7V87h1.7v9.6h-1.4l-.1-1h-.2c-.6.4-1.2.7-1.6.9-.3.2-.8.3-1.2.3zm6.7-9.8h1.4l.1 1h.1c.6-.4 1.2-.7 1.7-.9.5-.2.9-.3 1.4-.3.7 0 1.2.2 1.6.6.3.4.5 1 .5 1.9v7.3H182v-6.8c0-.6-.1-1-.3-1.2-.2-.2-.5-.3-.8-.3-.3 0-.7.1-1.1.2l-1.2.6v7.4h-1.7V87zm11.7 9.7c-2.1 0-3.1-1.6-3.1-4.8 0-1.7.4-2.9 1.1-3.8.7-.9 1.7-1.3 3.1-1.3h.6c.2 0 .4.1.8.1v-4.7h1.6v14.4h-1.5l-.1-1h-.1c-.6.8-1.4 1.1-2.4 1.1zm.5-1.2c.3 0 .5 0 .7-.1.2-.1.4-.2.6-.4.2-.2.3-.4.4-.7.1-.3.2-.6.2-1v-5c-.3-.1-.5-.1-.7-.2h-.7c-.8 0-1.4.3-1.8.9-.4.6-.6 1.5-.6 2.9 0 1.3.2 2.2.5 2.8.2.5.7.8 1.4.8zm9.3 1.2c-1.3 0-2.2-.4-2.9-1.2-.7-.8-1-2-1-3.6 0-1.7.3-3 1-3.8.6-.9 1.6-1.3 2.9-1.3 2.1 0 3.1 1.4 3.1 4.2v.8c0 .2 0 .4-.1.6h-5.2c.1 1.1.3 1.8.6 2.3.4.5.9.7 1.7.7.4 0 .7 0 1.2-.1.4-.1.9-.2 1.4-.4l.1 1.3c-.4.2-.8.3-1.3.4-.6.1-1.1.1-1.5.1zm-.1-8.6c-1.3 0-2 1-2.1 3.1h3.7c0-1.1-.2-1.9-.4-2.4-.3-.5-.7-.7-1.2-.7zm4.9-1.1h1.4l.1 1h.1c.6-.4 1.2-.7 1.7-.9.5-.2.9-.3 1.4-.3.7 0 1.2.2 1.6.6.3.4.5 1 .5 1.9v7.3h-1.6v-6.8c0-.6-.1-1-.3-1.2-.2-.2-.5-.3-.8-.3-.3 0-.7.1-1.1.2l-1.2.6v7.4h-1.7V87zm11.2 9.8c-1.5 0-2.3-.8-2.3-2.5V87h1.7v6.8c0 .6.1 1 .3 1.2.2.2.5.3.9.3s.7-.1 1-.2c.3-.1.7-.4 1.2-.7V87h1.7v9.6h-1.4l-.1-1h-.1c-.6.4-1.2.7-1.6.9-.5.2-.9.3-1.3.3zm6.7-9.8h1.4l.1 1.2h.1c.1-.1.2-.2.4-.3.2-.1.4-.3.6-.4.2-.1.5-.3.8-.4.3-.1.5-.2.8-.3h.4v1.7h-.7c-.5.1-.9.2-1.3.3-.4.2-.7.3-1 .5v7.2H221V87zm9.4 9.7c-1.7 0-2.6-.9-2.6-2.6v-5.7h-1.6V87h1.7l.2-2.5 1.3-.2V87h2.3v1.4h-2.3v5.3c0 .6.1 1 .3 1.2.2.3.6.4 1 .4h.4c.2 0 .3-.1.5-.1v1.3c-.4.1-.8.2-1.2.2zm6.3 0c-1.3 0-2.2-.4-2.9-1.2-.7-.8-1-2-1-3.6 0-1.7.3-3 1-3.8.6-.9 1.6-1.3 2.8-1.3 2.1 0 3.1 1.4 3.1 4.2v.8c0 .2 0 .4-.1.6h-5.2c.1 1.1.3 1.8.6 2.3.4.5.9.7 1.7.7.4 0 .7 0 1.2-.1.4-.1.9-.2 1.4-.4l.1 1.3c-.4.2-.8.3-1.3.4-.5.1-1 .1-1.4.1zm-.1-8.6c-1.3 0-2 1-2.1 3.1h3.7c0-1.1-.2-1.9-.4-2.4s-.6-.7-1.2-.7zm5.8-3.1c-.7 0-1-.3-1-1s.3-1 1-1 1 .3 1 1-.3 1-1 1zm-.8 2h1.6v9.6h-1.6V87zm3.9-4.8h1.7v14.4h-1.7V82.2zm9.1 9.3c-.4 0-.8-.1-1.1-.3-.3-.2-.4-.6-.4-1.1 0-.5.1-.9.4-1.1.3-.2.6-.3 1.1-.3.4 0 .8.1 1.1.3.3.2.4.6.4 1.1 0 .5-.1.9-.4 1.1-.3.1-.7.3-1.1.3zm11.9 5.3c-3.2 0-4.8-2.3-4.8-6.8 0-2.3.4-4 1.2-5.1.8-1.1 2-1.7 3.7-1.7 1.6 0 2.9.6 3.7 1.7.8 1.1 1.2 2.8 1.2 5.1-.1 4.5-1.7 6.8-5 6.8zm0-1.5c.6 0 1-.1 1.4-.3.4-.2.7-.5 1-.9.2-.4.4-1 .6-1.6.1-.7.2-1.5.2-2.4 0-1.9-.2-3.2-.7-4.1-.5-.8-1.3-1.3-2.4-1.3-1.1 0-1.9.4-2.4 1.3-.5.8-.7 2.2-.7 4.1 0 .9.1 1.7.2 2.4s.3 1.2.6 1.6c.2.4.6.7 1 .9.2.2.7.3 1.2.3zm6.8-8.3h1.4l.1 1h.1c.6-.4 1.2-.7 1.7-.9.5-.2.9-.3 1.4-.3.7 0 1.2.2 1.6.6.3.4.5 1 .5 1.9v7.3h-1.6v-6.8c0-.6-.1-1-.3-1.2-.2-.2-.5-.3-.8-.3-.3 0-.7.1-1.1.2s-.8.4-1.2.6v7.4h-1.7V87zm9-4.8h1.7v14.4h-1.7V82.2zm4.8 2.8c-.7 0-1-.3-1-1s.3-1 1-1 1 .3 1 1-.3 1-1 1zm-.8 2h1.6v9.6h-1.6V87zm3.9 0h1.4l.1 1h.1c.6-.4 1.2-.7 1.7-.9.5-.2.9-.3 1.4-.3.7 0 1.2.2 1.6.6.3.4.5 1 .5 1.9v7.3h-1.6v-6.8c0-.6-.1-1-.3-1.2-.2-.2-.5-.3-.8-.3-.3 0-.7.1-1.1.2s-.8.4-1.2.6v7.4h-1.7V87zm12.4 9.7c-1.3 0-2.2-.4-2.9-1.2-.7-.8-1-2-1-3.6 0-1.7.3-3 1-3.8.6-.9 1.6-1.3 2.8-1.3 2.1 0 3.1 1.4 3.1 4.2v.8c0 .2 0 .4-.1.6h-5.2c.1 1.1.3 1.8.6 2.3.4.5.9.7 1.7.7.4 0 .7 0 1.2-.1.4-.1.9-.2 1.4-.4l.1 1.3c-.4.2-.8.3-1.3.4-.4.1-.9.1-1.4.1zm0-8.6c-1.3 0-2 1-2.1 3.1h3.7c0-1.1-.2-1.9-.4-2.4-.3-.5-.7-.7-1.2-.7zm8.6-4.6c.5-.1 1-.2 1.5-.2s1-.1 1.4-.1c1.7 0 3 .4 3.8 1.1.8.7 1.2 1.9 1.2 3.5s-.4 2.7-1.2 3.5c-.8.7-2.1 1.1-3.9 1.1h-1.2v4.3h-1.7V83.5zm3.1 7.4c1.1 0 1.9-.2 2.4-.7.5-.5.7-1.3.7-2.4 0-1.1-.2-1.9-.7-2.4-.5-.5-1.2-.7-2.3-.7h-.7c-.3 0-.5.1-.8.1v6c.2 0 .5 0 .7.1h.7zm9.8 5.8c-1.2 0-2.2-.4-2.8-1.3-.6-.8-1-2.1-1-3.7s.3-2.9 1-3.7c.6-.8 1.6-1.3 2.8-1.3 1.2 0 2.2.4 2.8 1.3.6.8 1 2.1 1 3.7s-.3 2.9-1 3.7c-.6.9-1.5 1.3-2.8 1.3zm0-1.3c.7 0 1.3-.3 1.6-.8.3-.6.5-1.5.5-2.8 0-1.3-.2-2.2-.5-2.8-.3-.6-.9-.8-1.6-.8-.7 0-1.3.3-1.6.8-.3.6-.5 1.5-.5 2.8 0 1.3.2 2.2.5 2.8.3.5.9.8 1.6.8zm5.7-8.4h1.4l.1 1.2h.1c.1-.1.2-.2.4-.3.2-.1.4-.3.6-.4.2-.1.5-.3.8-.4.3-.1.5-.2.8-.3h.4v1.7h-.7c-.5.1-.9.2-1.3.3-.4.2-.7.3-1 .5v7.2h-1.7V87zm9.4 9.7c-1.7 0-2.6-.9-2.6-2.6v-5.7h-1.6V87h1.7l.2-2.5 1.3-.2V87h2.3v1.4h-2.3v5.3c0 .6.1 1 .3 1.2.2.3.6.4 1 .4h.4c.2 0 .3-.1.5-.1v1.3c-.4.1-.8.2-1.2.2zm4.6 0c-.7 0-1.3-.2-1.7-.7-.4-.5-.6-1.1-.6-1.9 0-1.8 1.1-2.8 3.4-2.9l1.7-.1v-.8c0-.8-.1-1.3-.4-1.6-.3-.3-.8-.5-1.5-.5h-.5c-.2 0-.4 0-.6.1-.2 0-.4.1-.6.1-.2 0-.4.1-.6.1l-.1-1.3c.5-.1.9-.2 1.4-.2.5-.1.9-.1 1.3-.1 1.1 0 1.9.2 2.5.7.5.5.8 1.2.8 2.3v6.8H347l-.2-1.2h-.1l-1.2.9c-.6.1-1.1.3-1.6.3zm.6-1.3c.2 0 .4 0 .6-.1l.6-.3c.2-.1.4-.2.5-.3.2-.1.3-.2.5-.3v-2.3l-1.4.1c-.7.1-1.3.2-1.6.5-.3.3-.5.6-.5 1.2 0 .5.1.8.3 1.1.3.3.6.4 1 .4zm6-13.2h1.7v14.4h-1.7V82.2z"/><path class="st3" d="M150.3 108.3h265.9v31.4H150.3z"/><path class="st2" d="M159.6 119.4l-2.2 1.4h-.2l-.4-.8.1-.2 3.3-2.3h1.2v13.2h-1.7v-11.3zm8.2 11.4c-1.4 0-2.4-.6-3.1-1.7-.7-1.1-1.1-2.8-1.1-5s.4-3.9 1.1-5.1c.7-1.1 1.8-1.7 3.1-1.7 1.4 0 2.4.6 3.1 1.7.7 1.1 1.1 2.8 1.1 5.1 0 2.2-.4 3.9-1.1 5-.7 1.1-1.7 1.7-3.1 1.7zm0-1.5c.9 0 1.5-.4 1.9-1.3.4-.9.6-2.2.6-4 0-1.8-.2-3.2-.6-4-.4-.9-1-1.3-1.9-1.3-.8 0-1.5.4-1.9 1.3-.4.9-.6 2.2-.6 4 0 1.8.2 3.2.6 4 .4.9 1 1.3 1.9 1.3zm8.5-11.9h1.5l-2.9 15.3h-1.5l2.9-15.3zm2.7 11.3c0-.5.1-1 .2-1.5.1-.4.3-.9.5-1.3s.5-.8.9-1.1c.4-.4.8-.7 1.3-1.1.4-.3.7-.5 1-.8.3-.2.5-.5.6-.7.2-.2.3-.5.3-.7.1-.3.1-.5.1-.8 0-1.3-.7-2-2.2-2-.3 0-.6 0-1 .1l-1.2.3-.2-1.4c.5-.2 1.1-.3 1.5-.4.5-.1.9-.1 1.4-.1 2.3 0 3.4 1.1 3.4 3.3 0 .4 0 .8-.1 1.2-.1.4-.2.7-.5 1.1-.2.3-.5.7-.8 1-.3.3-.7.7-1.2 1-.5.4-.8.7-1.1 1-.3.3-.5.6-.7.9-.2.3-.3.6-.4.9-.1.3-.1.6-.1 1v.7h4.9v1.5H179v-2.1zm12.5 2.1c-1.4 0-2.4-.6-3.1-1.7-.7-1.1-1.1-2.8-1.1-5s.4-3.9 1.1-5.1c.7-1.1 1.8-1.7 3.1-1.7 1.4 0 2.4.6 3.1 1.7.7 1.1 1.1 2.8 1.1 5.1 0 2.2-.4 3.9-1.1 5-.7 1.1-1.7 1.7-3.1 1.7zm0-1.5c.9 0 1.5-.4 1.9-1.3.4-.9.6-2.2.6-4 0-1.8-.2-3.2-.6-4-.4-.9-1-1.3-1.9-1.3-.8 0-1.5.4-1.9 1.3-.4.9-.6 2.2-.6 4 0 1.8.2 3.2.6 4 .4.9 1 1.3 1.9 1.3zm8.2-9.9l-2.2 1.4h-.2l-.4-.8.1-.2 3.3-2.3h1.2v13.2h-1.7v-11.3zm7.8 11.2c-.6 0-1.1-.1-1.6-.2-.5-.2-.9-.4-1.2-.7-.3-.3-.6-.6-.8-1-.2-.4-.3-.9-.3-1.4 0-.8.2-1.5.5-2.1.3-.6.8-1 1.5-1.4-.5-.3-1-.7-1.2-1.2-.3-.5-.4-1.2-.4-2 0-1 .3-1.9.9-2.5.6-.6 1.5-.9 2.5-.9 1.1 0 1.9.3 2.5.9.6.6.9 1.4.9 2.5 0 .8-.1 1.4-.4 1.9-.3.5-.7.9-1.3 1.3.6.3 1.1.7 1.5 1.2.4.5.5 1.2.5 2.1 0 1.1-.3 2-1 2.6-.5.6-1.5.9-2.6.9zm-.5-6.2c-.6.3-1 .7-1.3 1.1-.3.4-.4 1-.4 1.7s.2 1.3.6 1.7c.4.4.9.6 1.6.6.7 0 1.2-.2 1.6-.6.4-.4.6-.9.6-1.6 0-.4-.1-.8-.2-1-.1-.3-.3-.5-.5-.8-.2-.2-.5-.4-.8-.6-.3-.2-.7-.3-1.1-.4l-.1-.1zm-1.5-3.7c0 .7.2 1.2.6 1.6.4.4 1 .7 1.8.9.5-.3.9-.6 1.2-1 .2-.4.4-1 .4-1.6 0-.7-.2-1.2-.5-1.6-.3-.4-.8-.6-1.4-.6-.6 0-1.1.2-1.4.6-.5.4-.7 1-.7 1.7zm21.4 10c-1.7 0-2.6-.9-2.6-2.6v-5.7h-1.6V121h1.7l.2-2.5 1.3-.2v2.7h2.3v1.4H226v5.3c0 .6.1 1 .3 1.2.2.3.6.4 1 .4h.4c.2 0 .3-.1.5-.1v1.3c-.4.1-.9.2-1.3.2zm5.1.1c-1.5 0-2.3-.8-2.3-2.5V121h1.7v6.8c0 .6.1 1 .3 1.2.2.2.5.3.9.3s.7-.1 1-.2c.3-.1.7-.4 1.2-.7V121h1.7v9.6H235l-.1-1h-.1c-.6.4-1.2.7-1.6.9-.4.2-.8.3-1.2.3zm10.2-.1c-1.3 0-2.2-.4-2.9-1.2-.7-.8-1-2-1-3.6 0-1.7.3-3 1-3.8.6-.9 1.6-1.3 2.8-1.3 2.1 0 3.1 1.4 3.1 4.2v.8c0 .2 0 .4-.1.6H240c.1 1.1.3 1.8.6 2.3.4.5.9.7 1.7.7.4 0 .7 0 1.2-.1.4-.1.9-.2 1.4-.4l.1 1.3c-.4.2-.8.3-1.3.4-.6.1-1.1.1-1.5.1zm-.1-8.6c-1.3 0-2 1-2.1 3.1h3.7c0-1.1-.2-1.9-.4-2.4-.3-.5-.7-.7-1.2-.7zm3.9-1v-.1h1.7l2 7.1.2 1h.1l.2-1 2-7.1h1.7v.1l-3 9.5h-2l-2.9-9.5zm9.3 3.8h4.3v1.3h-4.3v-1.3zm8.6 5.9c-.4 0-.8 0-1.2-.1-.4-.1-.9-.2-1.4-.3v-1.3l1.2.3c.4.1.9.1 1.3.1.5 0 .9-.1 1.2-.4.3-.3.4-.6.4-1.1 0-.4-.1-.8-.3-1-.2-.2-.6-.4-1.1-.6-.3-.1-.6-.1-.9-.2s-.6-.2-.8-.4c-.2-.2-.5-.5-.6-.8-.2-.3-.2-.8-.2-1.4 0-.9.3-1.6.8-2.1s1.2-.7 2.2-.7c.3 0 .7 0 1 .1.4.1.8.1 1.2.2v1.3c-.5-.1-.9-.2-1.1-.2-.3 0-.5-.1-.8-.1-.5 0-1 .1-1.2.4-.3.3-.4.6-.4 1.1 0 .3 0 .5.1.7.1.2.2.3.3.4.1.1.3.2.5.3.2.1.4.1.6.2.4.1.7.2 1 .3.3.1.6.3.8.5.2.2.4.5.5.8.1.3.2.7.2 1.2 0 .9-.3 1.6-.8 2.1-.8.4-1.6.7-2.5.7zm6.6-.1c-.7 0-1.3-.2-1.7-.7-.4-.5-.6-1.1-.6-1.9 0-1.8 1.1-2.8 3.4-2.9l1.7-.1v-.8c0-.8-.1-1.3-.4-1.6-.3-.3-.8-.5-1.5-.5h-.5c-.2 0-.4 0-.6.1-.2 0-.4.1-.6.1-.2 0-.4.1-.6.1l-.1-1.3c.5-.1.9-.2 1.4-.2.5-.1.9-.1 1.3-.1 1.1 0 1.9.2 2.5.7.5.5.8 1.2.8 2.3v6.8h-1.4l-.2-1.2h-.1l-1.2.9c-.5.1-1 .3-1.6.3zm.6-1.3c.2 0 .4 0 .6-.1l.6-.3c.2-.1.4-.2.5-.3.2-.1.3-.2.5-.3v-2.3l-1.4.1c-.7.1-1.3.2-1.6.5-.3.3-.5.7-.5 1.2s.1.8.3 1.1c.3.2.6.4 1 .4zm7.8 1.3c-.7 0-1.3-.2-1.7-.7-.4-.5-.6-1.1-.6-1.9 0-1.8 1.1-2.8 3.4-2.9l1.7-.1v-.8c0-.8-.1-1.3-.4-1.6-.3-.3-.8-.5-1.5-.5h-.5c-.2 0-.4 0-.6.1-.2 0-.4.1-.6.1-.2 0-.4.1-.6.1l-.1-1.3c.5-.1.9-.2 1.4-.2.5-.1.9-.1 1.3-.1 1.1 0 1.9.2 2.5.7.5.5.8 1.2.8 2.3v6.8H282l-.2-1.2h-.1l-1.2.9c-.6.1-1.1.3-1.6.3zm.6-1.3c.2 0 .4 0 .6-.1l.6-.3c.2-.1.4-.2.5-.3.2-.1.3-.2.5-.3v-2.3l-1.4.1c-.7.1-1.3.2-1.6.5-.3.3-.5.7-.5 1.2s.1.8.3 1.1c.2.2.5.4 1 .4zm5.9-8.4h1.4l.1 1.2h.1c.1-.1.2-.2.4-.3.2-.1.4-.3.6-.4.2-.1.5-.3.8-.4.3-.1.5-.2.8-.3h.4v1.7h-.7c-.5.1-.9.2-1.3.3-.4.2-.7.3-1 .5v7.2h-1.7V121zm6.1 9.6c-.7 0-1-.3-1-1s.3-1 1-1 1.1.3 1.1 1-.4 1-1.1 1zm5.8.1c-2.1 0-3.1-1.6-3.1-4.8 0-1.7.4-2.9 1.1-3.8.7-.9 1.7-1.3 3.1-1.3h.6c.2 0 .4.1.8.1v-4.7h1.6v14.4h-1.5l-.1-1h-.1c-.6.8-1.4 1.1-2.4 1.1zm.5-1.2c.3 0 .5 0 .7-.1.2-.1.4-.2.6-.4.2-.2.3-.4.4-.7.1-.3.2-.6.2-1v-5c-.3-.1-.5-.1-.7-.2h-.7c-.8 0-1.4.3-1.8.9-.4.6-.6 1.5-.6 2.9 0 1.3.2 2.2.5 2.8.3.5.7.8 1.4.8zm9.3 1.2c-1.3 0-2.2-.4-2.9-1.2-.7-.8-1-2-1-3.6 0-1.7.3-3 1-3.8.6-.9 1.6-1.3 2.8-1.3 2.1 0 3.1 1.4 3.1 4.2v.8c0 .2 0 .4-.1.6h-5.2c.1 1.1.3 1.8.6 2.3.4.5.9.7 1.7.7.4 0 .7 0 1.2-.1.4-.1.9-.2 1.4-.4l.1 1.3c-.4.2-.8.3-1.3.4-.5.1-1 .1-1.4.1zm-.1-8.6c-1.3 0-2 1-2.1 3.1h3.7c0-1.1-.2-1.9-.4-2.4s-.6-.7-1.2-.7zm7.2-4.7h1.5l-2.8 15.3h-1.5l2.8-15.3zm6.3 13.4c-.5 0-1.1-.1-1.8-.2-.6-.1-1.2-.3-1.8-.5l.1-1.4c.2.1.4.2.7.2.3.1.5.1.8.2.3.1.6.1.9.1.3 0 .6.1.8.1.8 0 1.4-.2 1.8-.6.4-.4.6-.9.6-1.6 0-.3-.1-.6-.2-.8-.1-.2-.3-.5-.5-.7-.2-.2-.5-.4-.8-.6-.3-.2-.7-.3-1.1-.5-.5-.2-.9-.4-1.3-.6-.4-.2-.7-.5-.9-.7-.3-.3-.5-.6-.6-1-.1-.4-.2-.9-.2-1.4 0-.6.1-1.1.3-1.5.2-.5.4-.8.8-1.1.3-.3.8-.6 1.2-.7.5-.2 1-.3 1.6-.3.5 0 .9 0 1.4.1l1.5.3-.1 1.4-1.5-.3c-.5-.1-.9-.1-1.2-.1-.7 0-1.3.2-1.7.6-.4.4-.6.9-.6 1.6 0 .3.1.6.2.8.1.2.3.4.5.6.2.2.5.4.8.5.3.2.7.3 1.1.5.5.2.9.4 1.3.7.4.2.7.5 1 .8.3.3.4.6.6 1 .1.4.2.8.2 1.4 0 .6-.1 1.1-.3 1.5-.2.5-.4.8-.8 1.2-.3.3-.7.6-1.2.7-.5.2-1 .3-1.6.3zm10.7 0c-.9 0-1.7-.2-2.4-.4-.7-.3-1.2-.7-1.7-1.2-.4-.5-.8-1.2-1-2.1-.2-.8-.3-1.9-.3-3 0-1.2.1-2.2.3-3.1.2-.9.5-1.6 1-2.1.4-.5 1-.9 1.7-1.2.7-.3 1.5-.4 2.4-.4h1c.3 0 .7.1 1.1.2v1.4c-.3-.1-.6-.1-.9-.1h-1c-.7 0-1.3.1-1.8.3-.5.2-.9.5-1.2.9-.3.4-.5 1-.7 1.6-.1.7-.2 1.5-.2 2.5s.1 1.8.2 2.5.4 1.2.7 1.6c.3.4.7.7 1.2.9.5.2 1.1.3 1.7.3h.9c.4 0 .7-.1 1-.1v1.4c-.3.1-.6.1-.9.2-.2-.2-.6-.1-1.1-.1zm3.1-4.3l4.3-9.3h.1l1.5.2.1.1-4.2 8.6v.1h3.5l.5-4.5h1.2v4.5h1.3v1.3h-1.3v3.1h-1.7v-3.1h-5l-.3-1zm11.5 4.2c-.3 0-.7 0-1-.1-.3 0-.7-.1-1-.2v-1.3h.1c.2.1.5.1.8.2.3 0 .6.1.9.1 1.7 0 2.6-.8 2.6-2.4 0-.9-.2-1.5-.7-2-.5-.4-1.2-.6-2.3-.6h-.4v-1.3h.4c1.8 0 2.7-.8 2.7-2.4 0-1.5-.7-2.2-2.2-2.2-.2 0-.5 0-.8.1-.3 0-.6.1-1 .2h-.2l-.1-1.3c.7-.2 1.4-.3 2.1-.3 1.2 0 2.1.3 2.8.8.6.6.9 1.4.9 2.5 0 .9-.2 1.6-.6 2.1-.4.5-.9.9-1.6 1.1v.1c.8.2 1.4.6 1.9 1.1.4.6.6 1.3.6 2.3 0 1.1-.4 2-1.1 2.6-.4.6-1.5.9-2.8.9zm7.9-11.3l-2.2 1.4h-.2l-.4-.8.1-.2 3.3-2.3h1.2v13.2h-1.7v-11.3zm5.7 11.4l-1.4-.2v-.3l3.8-11.5h-4.6l-.1-1.3.2-.2h5.8l.2.9v.5l-3.7 11.8-.2.3zm8.8-.2c-.6 0-1.1-.1-1.6-.2-.5-.2-.9-.4-1.2-.7-.3-.3-.6-.6-.8-1-.2-.4-.3-.9-.3-1.4 0-.8.2-1.5.5-2.1.3-.6.8-1 1.5-1.4-.5-.3-1-.7-1.2-1.2-.3-.5-.4-1.2-.4-2 0-1 .3-1.9.9-2.5.6-.6 1.5-.9 2.5-.9 1.1 0 1.9.3 2.5.9.6.6.9 1.4.9 2.5 0 .8-.1 1.4-.4 1.9-.3.5-.7.9-1.3 1.3.6.3 1.1.7 1.5 1.2.4.5.5 1.2.5 2.1 0 1.1-.3 2-1 2.6-.5.6-1.4.9-2.6.9zm-.5-6.2c-.6.3-1 .7-1.3 1.1-.3.4-.4 1-.4 1.7s.2 1.3.6 1.7c.4.4.9.6 1.6.6.7 0 1.2-.2 1.6-.6.4-.4.6-.9.6-1.6 0-.4-.1-.8-.2-1-.1-.3-.3-.5-.5-.8-.2-.2-.5-.4-.8-.6-.3-.2-.7-.3-1.1-.4l-.1-.1zm-1.4-3.7c0 .7.2 1.2.6 1.6.4.4 1 .7 1.8.9.5-.3.9-.6 1.2-1 .2-.4.4-1 .4-1.6 0-.7-.2-1.2-.5-1.6-.3-.4-.8-.6-1.4-.6-.6 0-1.1.2-1.4.6-.5.4-.7 1-.7 1.7z"/><path class="st4" d="M8.9 7.2h132.5v132.5H8.9z"/><path class="st3" d="M114.4 92.9l16.8-69h-12.8l-9.5 42.8-4.1-17H91.7L103 92.9zm-81.4.3h13.6V47.1h7.9V32.8H24.2v14.4H33zm24.4-60.4h13.4v14.3H57.4zm18.8 0h13.4v14.3H76.2z"/><defs><path id="SVGID_1_" d="M0 0h425.2v223.9H0z"/></defs><clipPath id="SVGID_2_"><use xlink:href="#SVGID_1_" overflow="visible"/></clipPath><path class="st5" d="M69.5 93.2h20.1V49.7H76.1V80h-2.5c-2.3 0-2.8-1.2-2.8-2.8V49.7H57.3v30.1c0 10 4.8 13.4 12.2 13.4m-28.7 6.9L37.1 120h3.3l.6-4.4h3.8l.6 4.4h3.3L45 100.1h-4.2zm.7 12.6l1.4-8.6h.1l1.4 8.6h-2.9zm49.4-12.6L87.2 120h3.3l.6-4.4h3.8l.6 4.4h3.3l-3.7-19.9h-4.2zm.7 12.6l1.4-8.6 1.4 8.6h-2.8zm-11.2-12.6H77V120h8.8v-2.9h-5.4zm38.7 0H114V120h5.1c3.5 0 5.4-1.9 5.4-6v-7.9c0-4-1.9-6-5.4-6m1.9 14.3c0 2.1-.6 2.8-2.5 2.8h-1.2v-14.3h1.2c1.8 0 2.5.7 2.5 2.8v8.7zm-92.1-9.6c0-1.2.6-2 1.7-2 .8 0 1.7.5 1.8 2.2l3.3-.4c-.3-2.8-2-4.8-4.7-4.8-3.4 0-5.3 1.8-5.3 5 0 5.7 7 6.8 7 10.7 0 1.2-.8 1.8-2 1.8-1.1 0-1.9-1-2-3l-3.3.5c.1 3 2 5.5 5.1 5.5 3.2 0 5.4-1.8 5.4-5.1-.1-5.4-7-7-7-10.4m45.4 1.2c0-4.2-2-5.9-5.8-5.9h-4.8V120h3.4v-8.2c.6 0 1.3 0 1.8-.1l2.4 8.3h3.5l-2.9-9c1.1-.5 2.4-1.8 2.4-5m-6 3.1h-1.2V103h1.2c1.9 0 2.5.7 2.5 3.1 0 2.3-.7 3-2.5 3m-14.6-9L50.1 120h3.3l.6-4.4h3.8l.6 4.4h3.3L58 100.1h-4.3zm.8 12.6l1.4-8.6h.1l1.4 8.6h-2.9zm53.7-1.2h-.1l-4.1-11.4h-3.2V120h3.1v-12.4l4.4 12.4h3v-19.9h-3.1z"/><path class="st6" d="M8.9 148.7h407.4v65.7H8.9z"/><path class="st3" d="M91.9 196.7c-.7 0-1.4 0-2.2-.1l-2.4-.3c-.8-.1-1.6-.2-2.4-.4-.8-.2-1.6-.3-2.3-.5l.1-3.1c.7.2 1.4.4 2.2.5.8.2 1.6.3 2.3.4.8.1 1.5.2 2.3.3.7.1 1.4.1 2.1.1 2.3 0 4-.5 5.2-1.4 1.2-.9 1.8-2.2 1.8-4 0-.9-.2-1.7-.5-2.3-.3-.6-.8-1.2-1.4-1.7-.6-.5-1.3-.9-2.2-1.3-.9-.4-1.8-.7-2.8-1-1.5-.4-2.8-.9-3.8-1.5-1.1-.5-2-1.1-2.7-1.8-.7-.7-1.2-1.5-1.6-2.4-.3-.9-.5-2-.5-3.2 0-1.3.2-2.4.7-3.5.5-1 1.2-1.9 2-2.7.9-.7 2-1.3 3.2-1.7 1.2-.4 2.6-.6 4.2-.6 1.1 0 2.3.1 3.5.2 1.2.2 2.6.4 4.1.8l-.1 3c-1.3-.3-2.6-.6-3.9-.7-1.3-.2-2.4-.3-3.4-.3-2.1 0-3.7.5-4.9 1.5-1.2 1-1.8 2.3-1.8 4 0 .8.1 1.4.4 2 .3.6.6 1.1 1.2 1.6.5.5 1.2.9 2.1 1.3.8.4 1.9.8 3.1 1.1 1.3.4 2.5.9 3.6 1.4 1.1.5 2 1.1 2.7 1.8.8.7 1.3 1.5 1.7 2.5.4.9.6 2.1.6 3.4 0 2.7-.9 4.8-2.7 6.3-1.7 1.5-4.2 2.3-7.5 2.3zm24.1-.2c-3.3 0-5.7-1-7.4-2.9-1.7-1.9-2.5-4.7-2.5-8.4 0-3.9.8-6.9 2.5-8.9 1.6-2 4-3.1 7.2-3.1 5.4 0 8.1 3.3 8.1 10 0 .6 0 1.2-.1 1.7 0 .5-.1.9-.1 1.3h-14c.1 2.6.7 4.5 1.8 5.7 1.1 1.2 2.7 1.8 4.9 1.8 1 0 2.1-.1 3.2-.3 1.1-.2 2.2-.5 3.3-.9l.2 2.8c-1 .4-2.1.7-3.4 1-1.4.1-2.6.2-3.7.2zm-.4-20.5c-3.8 0-5.8 2.6-6.1 7.7h11c-.1-2.7-.5-4.7-1.3-5.9-.6-1.2-1.9-1.8-3.6-1.8zm13.3-2.4h2.9l.3 3h.2c1.2-.7 2.5-1.4 3.7-2 1.3-.6 2.5-1.1 3.7-1.3h1v3.4h-1.3c-1.2.2-2.4.5-3.7.9-1.2.4-2.3 1-3.4 1.6v17h-3.5v-22.6zm42.3-4.8c-1.5 0-2.2-.7-2.2-2.2 0-1.4.7-2.1 2.2-2.1 1.5 0 2.2.7 2.2 2.1 0 1.4-.7 2.2-2.2 2.2zm-1.7 4.8h3.5v22.6h-3.5v-22.6zm19 23c-6.8 0-10.2-3.9-10.2-11.7 0-7.8 3.4-11.7 10.2-11.7.7 0 1.5 0 2.3.1.8.1 1.7.2 2.5.4v3c-1.6-.3-3.1-.5-4.5-.5-2.4 0-4.2.7-5.3 2.1-1.1 1.4-1.7 3.6-1.7 6.6 0 3 .6 5.2 1.7 6.6 1.1 1.4 2.9 2.1 5.3 2.1.8 0 1.5 0 2.2-.1.7-.1 1.5-.2 2.3-.4v2.9c-.6.2-1.4.3-2.3.5-.9 0-1.7.1-2.5.1zm18.2-.1c-3.3 0-5.7-1-7.4-2.9-1.7-1.9-2.5-4.7-2.5-8.4 0-3.9.8-6.9 2.5-8.9 1.6-2 4-3.1 7.2-3.1 5.4 0 8.1 3.3 8.1 10 0 .6 0 1.2-.1 1.7 0 .5-.1.9-.1 1.3h-14c.1 2.6.7 4.5 1.8 5.7 1.1 1.2 2.7 1.8 4.9 1.8 1 0 2.1-.1 3.2-.3 1.1-.2 2.2-.5 3.3-.9l.2 2.8c-1 .4-2.1.7-3.4 1-1.3.1-2.5.2-3.7.2zm-.4-20.5c-3.8 0-5.8 2.6-6.1 7.7h11c-.1-2.7-.5-4.7-1.3-5.9-.6-1.2-1.9-1.8-3.6-1.8zm30.6 20.5c-4.2 0-6.2-2.1-6.2-6.2v-13.5h-4.5v-3.1h4.6l.5-5.6 2.8-.4v6.1h6.4v3.1h-6.4v12.8c0 2.7 1.2 4.1 3.7 4.1.4 0 .8 0 1.3-.1s.9-.2 1.4-.3v2.8c-1.2.1-2.5.3-3.6.3zm16.6 0c-3.3 0-5.7-1-7.4-2.9-1.7-1.9-2.5-4.7-2.5-8.4 0-3.9.8-6.9 2.5-8.9 1.6-2 4-3.1 7.2-3.1 5.4 0 8.1 3.3 8.1 10 0 .6 0 1.2-.1 1.7 0 .5-.1.9-.1 1.3h-14c.1 2.6.7 4.5 1.8 5.7 1.1 1.2 2.7 1.8 4.9 1.8 1 0 2.1-.1 3.2-.3 1.1-.2 2.2-.5 3.3-.9l.2 2.8c-1 .4-2.1.7-3.4 1-1.3.1-2.6.2-3.7.2zm-.4-20.5c-3.8 0-5.8 2.6-6.1 7.7h11c-.1-2.7-.5-4.7-1.3-5.9s-1.9-1.8-3.6-1.8zm19.2 20.6c-.9 0-2-.1-3-.2-1.1-.2-2.4-.4-4-.7v-2.8c1.2.3 2.4.6 3.5.8 1.2.2 2.2.3 3.3.3 1.5 0 2.7-.3 3.5-1 .8-.7 1.2-1.6 1.2-2.7 0-1.3-.4-2.2-1.1-2.7s-1.8-1-3.2-1.3l-2.4-.6c-.8-.2-1.6-.5-2.3-1-.7-.4-1.2-1.1-1.7-1.9-.4-.8-.6-1.9-.6-3.2 0-2 .7-3.6 2.1-4.7 1.4-1.2 3.3-1.7 5.7-1.7h1.3c.4 0 .9.1 1.3.1.5.1 1 .2 1.6.3.6.1 1.2.2 1.9.4l-.1 2.9c-1.3-.3-2.4-.5-3.3-.6-.9-.1-1.7-.2-2.4-.2-1.5 0-2.7.3-3.5.9-.8.6-1.2 1.5-1.2 2.6 0 .7.1 1.2.4 1.7.3.4.6.8 1 1.1.4.3.9.5 1.5.7.6.2 1.2.3 1.9.5.9.2 1.8.5 2.6.8.8.3 1.5.7 2.1 1.2.6.5 1 1.1 1.4 1.9.3.8.5 1.7.5 2.8 0 2.1-.7 3.7-2.1 4.9-1.5.8-3.4 1.4-5.9 1.4zm21.3-.1c-4.2 0-6.2-2.1-6.2-6.2v-13.5h-4.5v-3.1h4.6l.5-5.6 2.8-.4v6.1h6.4v3.1h-6.4v12.8c0 2.7 1.2 4.1 3.7 4.1.4 0 .8 0 1.3-.1s.9-.2 1.4-.3v2.8c-1.2.1-2.5.3-3.6.3zm16.6 0c-3.3 0-5.7-1-7.4-2.9-1.7-1.9-2.5-4.7-2.5-8.4 0-3.9.8-6.9 2.5-8.9 1.6-2 4-3.1 7.2-3.1 5.4 0 8.1 3.3 8.1 10 0 .6 0 1.2-.1 1.7 0 .5-.1.9-.1 1.3h-14c.1 2.6.7 4.5 1.8 5.7 1.1 1.2 2.7 1.8 4.9 1.8 1 0 2.1-.1 3.2-.3 1.1-.2 2.2-.5 3.3-.9l.2 2.8c-1 .4-2.1.7-3.4 1-1.4.1-2.6.2-3.7.2zm-.4-20.5c-3.8 0-5.8 2.6-6.1 7.7h11c-.1-2.7-.5-4.7-1.3-5.9s-1.9-1.8-3.6-1.8zm20.9 20.6c-2.9 0-5-.9-6.5-2.8s-2.2-4.8-2.2-8.7c0-4 1-6.9 2.9-8.9s4.5-3 7.8-3c.8 0 1.6 0 2.4.1.8.1 1.5.2 2.3.3v-11.2h3.5v33.8h-3.1l-.3-2.6h-.2c-1.5 2-3.7 3-6.6 3zm.9-2.8c.8 0 1.5-.1 2.2-.3.7-.2 1.3-.6 1.8-1s1-1 1.3-1.6c.3-.6.5-1.3.5-2.1v-12.4c-1.5-.3-3.1-.5-4.8-.5-2.3 0-4 .7-5.2 2.1-1.2 1.4-1.7 3.7-1.7 6.9 0 3.1.5 5.4 1.5 6.8.9 1.4 2.4 2.1 4.4 2.1z"/><defs><path id="SVGID_3_" d="M0 0h425.2v223.9H0z"/></defs><clipPath id="SVGID_4_"><use xlink:href="#SVGID_3_" overflow="visible"/></clipPath><path class="st7" d="M143.9 176.9v-.3h4.2l4.7 13.6.2 1.5h.4l.3-1.5 9-25.8h4.1v.4l-11.3 31.4h-4.6z"/><path class="st7" d="M143.9 176.9v-.3h4.2l4.7 13.6.2 1.5h.4l.3-1.5 9-25.8h4.1v.4l-11.3 31.4h-4.6z"/></svg>