<?xml version="1.0" standalone="no"?>
<!DOCTYPE svg PUBLIC "-//W3C//DTD SVG 1.1//EN" "http://www.w3.org/Graphics/SVG/1.1/DTD/svg11.dtd" >
<svg xmlns="http://www.w3.org/2000/svg" xmlns:xlink="http://www.w3.org/1999/xlink" version="1.1">
<metadata>
Created by FontForge 20170731 at Tue Nov 10 15:06:48 2020
 By Aleksey,,,
Bulgarian alternates
</metadata>
<defs>
<font id="." horiz-adv-x="600" >
  <font-face 
    font-family="."
    font-weight="700"
    font-stretch="normal"
    units-per-em="1000"
    panose-1="2 11 8 4 1 1 1 1 1 4"
    ascent="800"
    descent="-200"
    x-height="510"
    cap-height="680"
    bbox="-237 -255 1237 1044"
    underline-thickness="50"
    underline-position="-150"
    unicode-range="U+000D-FEFF"
  />
<missing-glyph horiz-adv-x="644" 
d="M50 289l309 309q16 -9 26 -23l-335 -335v49zM50 191l347 347v-15q0 -17 -9.5 -31t-23.5 -27t-30 -25t-29 -25q-23 -22 -36 -54l-219 -219v49zM55 0l261 261h49l-93 -93h-23v-23l-145 -145h-49zM594 441v-49l-224 -224h-49zM50 387l148 148l39 -2q0 27 19.5 51t55.5 24h8
l-270 -270v49zM349 0l33 33h2v2l210 210v-49l-196 -196h-49zM594 343v-49l-210 -210v49zM50 93l206 206v-38h11l-217 -217v49zM246 779h49l-44 -44q-54 -14 -93 -53.5t-54 -93.5l-54 -54v49zM594 539v-49l-216 -216v7q0 16 5 26.5t14 19.5t22 18t29 21q8 6 20.5 15.5t26 23
t25 32.5t17.5 45zM148 779h49l-147 -147v49zM447 0l147 147v-49l-98 -98h-49zM540 779h49l-104 -104q-13 12 -26 23zM50 485l56 56l46 -3l-102 -102v49zM594 735v-49l-70 -70q-7 15 -18 31zM153 0l96 96v-49l-47 -47h-49zM442 779h49l-62 -62q-17 9 -34 15zM594 637v-49
l-52 -52q0 11 -2 21.5t-4 21.5zM344 779h49l-38 -38q-7 1 -14 1.5t-14 0.5h-10t-10 -1zM251 0l33 33h49l-33 -33h-49zM594 0h-49l49 49v-49zM99 779l-49 -49v49h49z" />
    <glyph glyph-name="f_f" unicode="ff" horiz-adv-x="730" 
d="M253 510h206v170h252v-97h-127v-73h117v-97h-117v-413h-125v413h-206v-413h-125v413h-100v97h100v170h252v-97h-127v-73z" />
    <glyph glyph-name="f_f_i" unicode="ffi" horiz-adv-x="991" 
d="M253 510h206v170h252v-97h-127v-73h331v-510h-125v413h-206v-413h-125v413h-206v-413h-125v413h-100v97h100v170h252v-97h-127v-73zM917 569h-129v111h129v-111z" />
    <glyph glyph-name="f_f_l" unicode="ffl" horiz-adv-x="991" 
d="M253 510h206v170h456v-680h-125v583h-206v-73h117v-97h-117v-413h-125v413h-206v-413h-125v413h-100v97h100v170h252v-97h-127v-73z" />
    <glyph glyph-name="f_i" unicode="fi" horiz-adv-x="660" 
d="M459 0v413h-206v-413h-125v413h-100v97h100v170h252v-97h-127v-73h331v-510h-125zM586 569h-129v111h129v-111z" />
    <glyph glyph-name="f_l" unicode="fl" horiz-adv-x="660" 
d="M253 510h117v-97h-117v-413h-125v413h-100v97h100v170h456v-680h-125v583h-206v-73z" />
    <glyph glyph-name=".notdef" horiz-adv-x="644" 
d="M50 289l309 309q16 -9 26 -23l-335 -335v49zM50 191l347 347v-15q0 -17 -9.5 -31t-23.5 -27t-30 -25t-29 -25q-23 -22 -36 -54l-219 -219v49zM55 0l261 261h49l-93 -93h-23v-23l-145 -145h-49zM594 441v-49l-224 -224h-49zM50 387l148 148l39 -2q0 27 19.5 51t55.5 24h8
l-270 -270v49zM349 0l33 33h2v2l210 210v-49l-196 -196h-49zM594 343v-49l-210 -210v49zM50 93l206 206v-38h11l-217 -217v49zM246 779h49l-44 -44q-54 -14 -93 -53.5t-54 -93.5l-54 -54v49zM594 539v-49l-216 -216v7q0 16 5 26.5t14 19.5t22 18t29 21q8 6 20.5 15.5t26 23
t25 32.5t17.5 45zM148 779h49l-147 -147v49zM447 0l147 147v-49l-98 -98h-49zM540 779h49l-104 -104q-13 12 -26 23zM50 485l56 56l46 -3l-102 -102v49zM594 735v-49l-70 -70q-7 15 -18 31zM153 0l96 96v-49l-47 -47h-49zM442 779h49l-62 -62q-17 9 -34 15zM594 637v-49
l-52 -52q0 11 -2 21.5t-4 21.5zM344 779h49l-38 -38q-7 1 -14 1.5t-14 0.5h-10t-10 -1zM251 0l33 33h49l-33 -33h-49zM594 0h-49l49 49v-49zM99 779l-49 -49v49h49z" />
    <glyph glyph-name=".null" horiz-adv-x="0" 
 />
    <glyph glyph-name=".null" horiz-adv-x="0" 
 />
    <glyph glyph-name="nonmarkingreturn" unicode="&#xd;" horiz-adv-x="240" 
 />
    <glyph glyph-name="space" unicode=" " horiz-adv-x="240" 
 />
    <glyph glyph-name="exclam" unicode="!" horiz-adv-x="291" 
d="M103 198l-20 149v333h125v-333l-20 -149h-85zM218 0h-145v144h145v-144z" />
    <glyph glyph-name="quotedbl" unicode="&#x22;" horiz-adv-x="438" 
d="M181 418h-111v262h111v-262zM368 418h-111v262h111v-262z" />
    <glyph glyph-name="numbersign" unicode="#" 
d="M554 168h-124l-24 -168h-100l24 168h-115l-24 -168h-100l24 168h-93v97h108l21 149h-107v96h121l25 170h100l-25 -170h115l25 170h100l-25 -170h98v-96h-112l-21 -149h109v-97zM231 265h115l19 149h-115z" />
    <glyph glyph-name="dollar" unicode="$" horiz-adv-x="601" 
d="M255 -12q-42 5 -78.5 20.5t-64.5 42t-45 64.5t-21 88h125q4 -45 26.5 -71t57.5 -36v202l-27 7q-83 20 -124 71.5t-41 126.5q0 38 14.5 70t40 57t61 41t76.5 21v83h84v-83q39 -5 72.5 -19.5t58.5 -39t40.5 -59t18.5 -79.5h-125q-3 40 -21 60t-44 28v-187l42 -10
q81 -20 127 -70t46 -131q0 -44 -16 -79t-45 -60t-68.5 -40t-85.5 -19v-82h-84v83zM427 183q0 32 -17.5 55t-59.5 36q-3 1 -11 3v-183q39 7 63.5 29t24.5 60zM188 507q0 -32 15 -54t52 -35v166q-29 -8 -48 -27t-19 -50z" />
    <glyph glyph-name="percent" unicode="%" horiz-adv-x="802" 
d="M329 505q0 -39 -8 -72.5t-26 -58t-46 -38.5t-67 -14t-67 14t-46 38.5t-26 58t-8 72.5t8 72.5t26 58t46 38.5t67 14t67 -14t46 -38.5t26 -58t8 -72.5zM182 392q55 0 55 50v125q0 51 -55 51t-55 -51v-125q0 -50 55 -50zM767 175q0 -39 -8 -72.5t-26 -58t-46 -38.5t-67 -14
t-67 14t-46 38.5t-26 58t-8 72.5t8 72.5t26 58t46 38.5t67 14t67 -14t46 -38.5t26 -58t8 -72.5zM620 62q55 0 55 50v125q0 51 -55 51t-55 -51v-125q0 -50 55 -50zM563 680h100l-426 -680h-100z" />
    <glyph glyph-name="ampersand" unicode="&#x26;" horiz-adv-x="623" 
d="M520 131l104 -131h-145l-38 49q-41 -34 -83.5 -47.5t-102.5 -13.5q-46 0 -84 11t-65 33t-42 56t-15 80q0 59 24.5 98.5t66.5 72.5l46 36q-43 52 -66.5 89t-23.5 78q0 36 16 64.5t42.5 48t61 30t71.5 10.5q39 0 72 -9.5t58 -28t39 -46.5t14 -65q0 -51 -35.5 -96t-92.5 -88
l68 -93h5v94h105v-232zM179 145q0 -26 25 -43t63 -17q35 0 60.5 11.5t47.5 34.5l-123 159l-56 -44q-11 -9 -14 -20.5t-3 -26.5v-54zM278 446q32 29 49 51.5t17 52.5q0 23 -17 35.5t-43 12.5t-44 -14t-18 -37q0 -22 13.5 -44.5t42.5 -56.5z" />
    <glyph glyph-name="quotesingle" unicode="'" horiz-adv-x="251" 
d="M181 418h-111v262h111v-262z" />
    <glyph glyph-name="parenleft" unicode="(" horiz-adv-x="329" 
d="M177 168q0 -83 37.5 -168t101.5 -170h-115q-34 44 -61.5 91t-47 100.5t-30 115.5t-10.5 136t10.5 136t30 115.5t47 100.5t61.5 91h115q-68 -92 -103.5 -173.5t-35.5 -164.5v-210z" />
    <glyph glyph-name="parenright" unicode=")" horiz-adv-x="329" 
d="M152 388q0 75 -35.5 155.5t-103.5 172.5h115q34 -44 61.5 -91t47 -100.5t30 -115.5t10.5 -136t-10.5 -136t-30 -115.5t-47 -100.5t-61.5 -91h-115q64 85 101.5 169t37.5 159v230z" />
    <glyph glyph-name="asterisk" unicode="*" horiz-adv-x="438" 
d="M254 450v-110h-70v110l-95 -55l-35 60l95 55l-95 55l35 60l95 -55v110h70v-110l95 55l35 -60l-96 -55l96 -55l-35 -60z" />
    <glyph glyph-name="plus" unicode="+" 
d="M40 292v96h210v207h100v-207h210v-96h-210v-207h-100v207h-210z" />
    <glyph glyph-name="comma" unicode="," horiz-adv-x="282" 
d="M213 0l-75 -132h-66l72 132h-75v144h144v-144z" />
    <glyph glyph-name="hyphen" unicode="-" horiz-adv-x="418" 
d="M69 322h280v-102h-280v102z" />
    <glyph glyph-name="period" unicode="." horiz-adv-x="282" 
d="M213 0h-144v144h144v-144z" />
    <glyph glyph-name="slash" unicode="/" horiz-adv-x="486" 
d="M152 0h-130l312 680h130z" />
    <glyph glyph-name="zero" unicode="0" horiz-adv-x="618" 
d="M560 340q0 -75 -11 -140t-39.5 -112.5t-77 -75t-123.5 -27.5t-123.5 27.5t-77 75t-39.5 112.5t-11 140t11 140t39.5 112.5t77 75t123.5 27.5t123.5 -27.5t77 -75t39.5 -112.5t11 -140zM309 90q116 0 116 118v264q0 118 -116 118t-116 -118v-264q0 -118 116 -118z" />
    <glyph glyph-name="one" unicode="1" horiz-adv-x="421" 
d="M212 471h-185v105h185v104h125v-680h-125v471z" />
    <glyph glyph-name="two" unicode="2" horiz-adv-x="580" 
d="M212 105h316v-105h-476v106l274 267q31 29 48.5 58.5t17.5 63.5q0 45 -28 70t-72 25q-52 0 -81 -28.5t-29 -81.5h-127q0 49 18 88.5t50.5 67.5t76.5 43.5t96 15.5t93.5 -14.5t70 -40.5t43.5 -63t15 -82q0 -30 -8.5 -57.5t-22 -52t-31.5 -45.5t-37 -39l-207 -194v-2z" />
    <glyph glyph-name="three" unicode="3" horiz-adv-x="598" 
d="M203 297v104h134q33 0 46 16t13 42v54q0 39 -28.5 58t-70.5 19q-47 0 -76.5 -21t-32.5 -68h-127q0 45 17 81t48 61t74.5 38.5t96.5 13.5q52 0 95 -13t73.5 -37t47 -58t16.5 -75q0 -60 -24.5 -99.5t-74.5 -62.5q55 -23 83 -61t28 -104q0 -47 -18 -84.5t-51 -63t-78.5 -39
t-99.5 -13.5q-53 0 -98 13t-79 39.5t-53 66.5t-19 94h127q2 -57 36 -82.5t85 -25.5q52 0 83.5 25t31.5 61v61q0 60 -64 60h-141z" />
    <glyph glyph-name="four" unicode="4" horiz-adv-x="587" 
d="M330 0v160h-300v104l286 416h139v-416h98v-104h-98v-160h-125zM149 264h181v263z" />
    <glyph glyph-name="five" unicode="5" horiz-adv-x="590" 
d="M63 288l27 392h413v-104h-300l-12 -183q24 30 58.5 47.5t79.5 17.5q49 0 88.5 -17t67.5 -47.5t43.5 -73t15.5 -93.5q0 -56 -17 -101t-49 -76.5t-77.5 -48t-101.5 -16.5q-116 0 -177.5 53t-69.5 150h127q6 -56 37 -77.5t81 -21.5t81 24.5t31 66.5v90q0 45 -33 64.5
t-78 19.5q-34 0 -63.5 -17t-44.5 -49h-127z" />
    <glyph glyph-name="six" unicode="6" horiz-adv-x="611" 
d="M311 -15q-133 0 -193.5 84t-60.5 257q0 80 13.5 148t44 117t79.5 76.5t120 27.5q103 0 163 -48t68 -136h-127q-5 42 -32.5 61t-72.5 19q-57 0 -89 -37.5t-32 -97.5v-74q25 32 60.5 48.5t87.5 16.5q50 0 91 -16t70 -45t45 -70t16 -91q0 -47 -15.5 -90.5t-46.5 -76.5
t-78 -53t-111 -20zM311 89q57 0 86.5 28.5t29.5 75.5v57q0 47 -29.5 70t-86.5 23t-88 -23t-31 -70v-57q0 -47 31 -75.5t88 -28.5z" />
    <glyph glyph-name="seven" unicode="7" horiz-adv-x="531" 
d="M250 0h-138l263 576h-352v104h485v-100z" />
    <glyph glyph-name="eight" unicode="8" horiz-adv-x="618" 
d="M309 -15q-51 0 -97 12t-81 36t-56 61t-21 88q0 63 33 107t91 65q-104 45 -104 157q0 43 19 77t51.5 58t75 36.5t89.5 12.5t89.5 -12.5t75 -36.5t51.5 -58t19 -77q0 -112 -104 -157q58 -21 91 -65t33 -107q0 -51 -21 -88t-56 -61t-81 -36t-97 -12zM411 519q0 19 -9 32.5
t-23.5 22t-32.5 12.5t-37 4t-37 -4t-32.5 -12.5t-23.5 -22t-9 -32.5v-44q0 -19 9 -32.5t23.5 -22.5t32.5 -13t37 -4t37 4t32.5 13t23.5 22.5t9 32.5v44zM189 167q0 -19 9.5 -33.5t25.5 -24t38 -14.5t47 -5t47 5t38 14.5t25.5 24t9.5 33.5v53q0 37 -35 57.5t-85 20.5
t-85 -20.5t-35 -57.5v-53z" />
    <glyph glyph-name="nine" unicode="9" horiz-adv-x="611" 
d="M300 695q133 0 193.5 -84.5t60.5 -256.5q0 -80 -13.5 -148t-44 -117t-79.5 -76.5t-120 -27.5q-103 0 -163 48t-68 136h127q5 -42 32.5 -61t72.5 -19q57 0 89 37.5t32 97.5v74q-25 -32 -60.5 -48.5t-87.5 -16.5q-50 0 -91 16t-70 45t-45 70t-16 91q0 47 15.5 90.5
t46.5 76.5t78 53t111 20zM300 591q-57 0 -86.5 -28.5t-29.5 -75.5v-57q0 -47 29.5 -70t86.5 -23t88 23t31 70v57q0 47 -31 75.5t-88 28.5z" />
    <glyph glyph-name="colon" unicode=":" horiz-adv-x="282" 
d="M213 0h-144v144h144v-144zM213 366h-144v144h144v-144z" />
    <glyph glyph-name="semicolon" unicode=";" horiz-adv-x="282" 
d="M213 0l-75 -132h-66l72 132h-75v144h144v-144zM213 366h-144v144h144v-144z" />
    <glyph glyph-name="less" unicode="&#x3c;" 
d="M545 492l-381 -152l381 -152v-103l-520 209v92l520 209v-103z" />
    <glyph glyph-name="equal" unicode="=" 
d="M40 388v96h520v-96h-520zM40 196v96h520v-96h-520z" />
    <glyph glyph-name="greater" unicode="&#x3e;" 
d="M55 595l520 -209v-92l-520 -209v103l381 152l-381 152v103z" />
    <glyph glyph-name="question" unicode="?" horiz-adv-x="513" 
d="M350 506q0 40 -22.5 63.5t-72.5 23.5q-51 0 -75 -25t-27 -67h-125q7 91 69.5 142.5t163.5 51.5q49 0 88.5 -14t67.5 -39t43 -60.5t15 -78.5q0 -59 -23 -96.5t-61 -71.5q-20 -18 -37 -32t-29.5 -28.5t-19.5 -30t-7 -36.5v-10h-125v10q0 27 5 49t16.5 41.5t29 37.5t41.5 38
q42 34 63.5 64t21.5 68zM308 0h-144v144h144v-144z" />
    <glyph glyph-name="at" unicode="@" horiz-adv-x="901" 
d="M322 118v274h274v-177h115v283h-504v-486h389v-97h-514v680h754v-477h-514z" />
    <glyph glyph-name="A" unicode="A" horiz-adv-x="641" 
d="M436 145h-232l-44 -145h-140l232 680h138l231 -680h-140zM324 523h-4l-82 -268h165z" />
    <glyph glyph-name="B" unicode="B" horiz-adv-x="653" 
d="M214 570v-164h177q32 0 44 15t12 45v52q0 52 -56 52h-177zM479 354q54 -15 86 -54.5t32 -101.5q0 -54 -15.5 -92t-44.5 -61q-29 -24 -68.5 -34.5t-89.5 -10.5h-295v680h290q47 0 85 -9.5t65 -29.5q28 -21 43 -53.5t15 -79.5q0 -58 -27.5 -97t-75.5 -57zM462 238
q0 58 -60 58h-188v-186h184q32 0 48 14.5t16 46.5v67z" />
    <glyph glyph-name="C" unicode="C" horiz-adv-x="645" 
d="M340 -15q-74 0 -127.5 26.5t-88.5 73.5t-52 111.5t-17 141.5q0 81 18 147t54 112.5t91 72t129 25.5q52 0 97 -15t78 -43.5t53 -69t23 -90.5h-130q-5 54 -38.5 81t-91.5 27q-31 0 -57.5 -10t-45.5 -28t-29.5 -44t-10.5 -58v-208q0 -31 11.5 -57t31.5 -45t46.5 -29.5
t57.5 -10.5q61 0 94 26.5t43 86.5h130q-8 -59 -31 -101t-58 -69t-81 -40t-99 -13z" />
    <glyph glyph-name="D" unicode="D" horiz-adv-x="672" 
d="M314 680q161 0 231.5 -84.5t70.5 -255.5t-70.5 -255.5t-231.5 -84.5h-230v680h230zM214 570v-460h100q81 0 124 32t43 100v196q0 68 -43 100t-124 32h-100z" />
    <glyph glyph-name="E" unicode="E" horiz-adv-x="610" 
d="M84 680h468v-110h-338v-167h292v-110h-292v-183h338v-110h-468v680z" />
    <glyph glyph-name="F" unicode="F" horiz-adv-x="560" 
d="M84 680h434v-110h-304v-167h280v-110h-280v-293h-130v680z" />
    <glyph glyph-name="G" unicode="G" horiz-adv-x="691" 
d="M332 -15q-69 0 -121 26.5t-86.5 73.5t-52 111.5t-17.5 141.5q0 81 18 147t54.5 112.5t92.5 72t132 25.5q54 0 99.5 -15t79 -43.5t54 -69t23.5 -90.5h-130q-11 108 -135 108q-66 0 -107 -38t-41 -102v-208q0 -31 11.5 -57t31.5 -45t47 -29.5t59 -10.5q66 0 105.5 33
t39.5 104v29h-140v110h270v-371h-121l-3 62q-52 -77 -163 -77z" />
    <glyph glyph-name="H" unicode="H" horiz-adv-x="699" 
d="M485 291h-271v-291h-130v680h130v-279h271v279h130v-680h-130v291z" />
    <glyph glyph-name="I" unicode="I" horiz-adv-x="298" 
d="M84 680h130v-680h-130v680z" />
    <glyph glyph-name="J" unicode="J" horiz-adv-x="443" 
d="M359 0h-339v110h209v570h130v-680z" />
    <glyph glyph-name="K" unicode="K" horiz-adv-x="636" 
d="M216 363l245 317h153l-255 -317l269 -363h-150zM214 0h-130v680h130v-680z" />
    <glyph glyph-name="L" unicode="L" horiz-adv-x="522" 
d="M84 680h130v-570h288v-110h-418v680z" />
    <glyph glyph-name="M" unicode="M" horiz-adv-x="859" 
d="M84 0v680h212l132 -534h4l130 534h213v-680h-125v539h-4l-139 -539h-155l-139 539h-4v-539h-125z" />
    <glyph glyph-name="N" unicode="N" horiz-adv-x="699" 
d="M486 162v518h129v-680h-195l-203 519h-4v-519h-129v680h195l203 -518h4z" />
    <glyph glyph-name="O" unicode="O" horiz-adv-x="716" 
d="M661 340q0 -175 -79 -265t-224 -90t-224 90t-79 265t79 265t224 90t224 -90t79 -265zM358 95q34 0 63.5 9t51.5 27t35 44t13 60v210q0 34 -13 60t-35 44t-51.5 27t-63.5 9t-63.5 -9t-51.5 -27t-35 -44t-13 -60v-210q0 -34 13 -60t35 -44t51.5 -27t63.5 -9z" />
    <glyph glyph-name="P" unicode="P" horiz-adv-x="611" 
d="M214 244v-244h-130v680h277q108 0 161 -53q52 -52 52 -165q0 -54 -15 -94.5t-43 -68.5q-57 -55 -154 -55h-148zM375 354q34 0 49 17t15 51v84q0 34 -14 49t-50 15h-161v-216h161z" />
    <glyph glyph-name="Q" unicode="Q" horiz-adv-x="720" 
d="M509 18q-32 -16 -69.5 -24.5t-81.5 -8.5q-145 0 -224 90t-79 265t79 265t224 90t224 -90t79 -265q0 -154 -64 -244l99 -96l-83 -83zM358 95q34 0 63.5 9t51.5 27t35 44t13 60v210q0 34 -13 60t-35 44t-51.5 27t-63.5 9t-63.5 -9t-51.5 -27t-35 -44t-13 -60v-210
q0 -34 13 -60t35 -44t51.5 -27t63.5 -9z" />
    <glyph glyph-name="R" unicode="R" horiz-adv-x="632" 
d="M214 261v-261h-130v680h277q108 0 161 -52q52 -51 52 -158q0 -79 -39 -130q-36 -48 -107 -68l156 -272h-144l-143 261h-83zM378 368q61 0 61 68v70q0 34 -13.5 49t-47.5 15h-164v-202h164z" />
    <glyph glyph-name="S" unicode="S" horiz-adv-x="625" 
d="M307 588q-54 0 -85 -21.5t-31 -58.5q0 -39 24 -59.5t73 -33.5l116 -30q87 -23 131.5 -69.5t44.5 -130.5q0 -47 -19 -84t-54 -63t-83.5 -39.5t-106.5 -13.5q-57 0 -105.5 12t-85 38t-59 67.5t-26.5 100.5h130q8 -60 46 -85.5t98 -25.5q57 0 96 23.5t39 68.5
q0 36 -22.5 57.5t-68.5 33.5l-133 35q-84 22 -124.5 72t-40.5 125q0 41 17.5 75.5t49.5 59.5t78 39t103 14q52 0 96.5 -12t77.5 -37t54 -64t26 -92h-130q-3 28 -14.5 47t-28.5 30.5t-38.5 16t-44.5 4.5z" />
    <glyph glyph-name="T" unicode="T" horiz-adv-x="566" 
d="M20 680h526v-110h-198v-570h-130v570h-198v110z" />
    <glyph glyph-name="U" unicode="U" horiz-adv-x="688" 
d="M481 680h129v-438q0 -59 -18.5 -106.5t-53 -81t-83.5 -51.5t-111 -18t-111 18t-83.5 51t-53 80.5t-18.5 107.5v438h130v-443q0 -66 34 -104t102 -38q69 0 103 37.5t34 104.5v443z" />
    <glyph glyph-name="V" unicode="V" horiz-adv-x="632" 
d="M29 680h141l145 -531h4l142 531h143l-216 -680h-144z" />
    <glyph glyph-name="W" unicode="W" horiz-adv-x="949" 
d="M30 680h145l105 -540h4l102 540h177l102 -540h4l107 540h142l-164 -680h-177l-101 533h-4l-102 -533h-175z" />
    <glyph glyph-name="X" unicode="X" horiz-adv-x="615" 
d="M230 347l-201 333h153l127 -224l127 224h150l-199 -333l209 -347h-151l-137 237l-136 -237h-153z" />
    <glyph glyph-name="Y" unicode="Y" horiz-adv-x="636" 
d="M26 680h147l146 -282l146 282h145l-227 -414v-266h-130v266z" />
    <glyph glyph-name="Z" unicode="Z" horiz-adv-x="606" 
d="M555 572l-350 -462h348v-110h-507v108l348 462h-332v110h493v-108z" />
    <glyph glyph-name="bracketleft" unicode="[" horiz-adv-x="365" 
d="M328 716v-94h-125v-698h125v-94h-245v886h245z" />
    <glyph glyph-name="backslash" unicode="\" horiz-adv-x="486" 
d="M22 680h130l312 -680h-130z" />
    <glyph glyph-name="bracketright" unicode="]" horiz-adv-x="365" 
d="M282 716v-886h-245v94h125v698h-125v94h245z" />
    <glyph glyph-name="asciicircum" unicode="^" horiz-adv-x="580" 
d="M242 680h96l207 -388h-104l-152 284l-149 -284h-105z" />
    <glyph glyph-name="underscore" unicode="_" horiz-adv-x="560" 
d="M45 -55h470v-80h-470v80z" />
    <glyph glyph-name="grave" unicode="`" horiz-adv-x="0" 
d="M52 573h-103l-111 122h140z" />
    <glyph glyph-name="a" unicode="a" horiz-adv-x="568" 
d="M207 -12q-35 0 -64 11.5t-51 32.5t-34 49.5t-12 63.5q0 62 43 107t124 52l141 12v33q0 40 -21.5 58t-58.5 18q-38 0 -62 -18.5t-24 -53.5h-125q1 42 18 73.5t45.5 52.5t67.5 32t85 11q92 0 145 -44.5t53 -130.5v-250h86v-97h-198v79h-4q-22 -42 -58.5 -66.5t-95.5 -24.5z
M251 85q48 0 75.5 34t27.5 82v20l-150 -13q-28 -3 -28 -33v-44q0 -23 21 -34.5t54 -11.5z" />
    <glyph glyph-name="b" unicode="b" horiz-adv-x="602" 
d="M76 680h125v-239q24 38 61 59.5t88 21.5t89 -21t63 -57t37 -85t12 -104q0 -56 -12 -104.5t-37 -84.5t-63 -57t-89 -21t-88 21.5t-61 59.5v-69h-125v680zM201 217q0 -60 27.5 -96t87.5 -36q49 0 77 26.5t28 71.5v144q0 45 -28 71.5t-77 26.5q-60 0 -87.5 -36t-27.5 -96
v-76z" />
    <glyph glyph-name="c" unicode="c" horiz-adv-x="540" 
d="M51 252q0 63 16 113t46 85t72 53.5t95 18.5q40 0 76.5 -10.5t66 -33t48 -57.5t22.5 -83h-125q-5 49 -30 68t-63 19t-66 -24.5t-28 -75.5v-140q0 -47 26.5 -73.5t68.5 -26.5t66 20t30 71h125q-5 -48 -23 -83t-47 -58.5t-66 -35t-79 -11.5q-57 0 -100 19.5t-72.5 54t-44 83
t-14.5 107.5z" />
    <glyph glyph-name="d" unicode="d" horiz-adv-x="602" 
d="M401 0v69q-24 -38 -60 -59.5t-87 -21.5t-89 21t-63.5 57t-38 84.5t-12.5 104.5q0 55 12 104t37 85t63 57t89 21t88 -21.5t61 -59.5v239h125v-680h-125zM401 293q0 60 -27.5 96t-87.5 36q-49 0 -77 -27.5t-28 -70.5v-144q0 -43 28.5 -70.5t76.5 -27.5q60 0 87.5 36
t27.5 96v76z" />
    <glyph glyph-name="e" unicode="e" horiz-adv-x="560" 
d="M380 330q0 42 -28.5 68.5t-71.5 26.5t-71.5 -26.5t-28.5 -68.5v-18h200v18zM280 -12q-54 0 -97 19.5t-72.5 54.5t-45 84.5t-15.5 109.5t16.5 109t46.5 84t72.5 54t94.5 19t94 -18.5t72 -51t46 -77.5t16 -97v-63h-328v-34q0 -46 30 -71t71 -25t67 21.5t31 60.5h125
q-12 -85 -71.5 -132t-152.5 -47z" />
    <glyph glyph-name="f" unicode="f" horiz-adv-x="399" 
d="M128 0v413h-100v97h100v170h252v-97h-127v-73h117v-97h-117v-413h-125z" />
    <glyph glyph-name="g" unicode="g" horiz-adv-x="602" 
d="M296 -195q-45 0 -84 8.5t-69 27.5t-49 49.5t-25 74.5h125q6 -30 27 -46.5t65 -16.5q22 0 43 4.5t37 17t25.5 34.5t9.5 56v55q-24 -38 -60 -59.5t-87 -21.5t-89 21t-63.5 57t-38 84.5t-12.5 104.5q0 55 12 104t37 85t63 57t89 21t88 -21.5t61 -59.5v69h125v-502
q0 -52 -19 -90t-51 -63t-73.5 -37.5t-86.5 -12.5zM401 293q0 60 -27.5 96t-87.5 36q-49 0 -77 -27.5t-28 -70.5v-144q0 -43 28.5 -70.5t76.5 -27.5q60 0 87.5 36t27.5 96v76z" />
    <glyph glyph-name="h" unicode="h" horiz-adv-x="591" 
d="M76 0v680h125v-244q23 41 60 63.5t91 22.5q86 0 126.5 -50t40.5 -138v-334h-125v325q0 45 -19 70t-64 25q-52 0 -81 -34.5t-29 -90.5v-295h-125z" />
    <glyph glyph-name="i" unicode="i" horiz-adv-x="277" 
d="M76 0v510h125v-510h-125zM203 569h-129v111h129v-111z" />
    <glyph glyph-name="j" unicode="j" horiz-adv-x="289" 
d="M88 510h125v-680h-263v97h138v583zM215 569h-129v111h129v-111z" />
    <glyph glyph-name="k" unicode="k" horiz-adv-x="546" 
d="M203 280l171 230h148l-182 -230l198 -280h-139zM201 0h-125v680h125v-680z" />
    <glyph glyph-name="l" unicode="l" horiz-adv-x="277" 
d="M76 0v680h125v-680h-125z" />
    <glyph glyph-name="m" unicode="m" horiz-adv-x="869" 
d="M76 510h125v-74q22 41 56 63.5t85 22.5q55 0 90.5 -24.5t52.5 -70.5q50 95 155 95q78 0 117.5 -50t39.5 -138v-334h-125v325q0 95 -73 95q-45 0 -72.5 -34.5t-27.5 -90.5v-295h-125v325q0 95 -73 95q-45 0 -72.5 -34.5t-27.5 -90.5v-295h-125v510z" />
    <glyph glyph-name="n" unicode="n" horiz-adv-x="591" 
d="M394 325q0 45 -19 70t-64 25q-52 0 -81 -34.5t-29 -90.5v-295h-125v510h125v-74q23 41 60 63.5t91 22.5q86 0 126.5 -50t40.5 -138v-334h-125v325z" />
    <glyph glyph-name="o" unicode="o" horiz-adv-x="578" 
d="M398 329q0 47 -31 71.5t-78 24.5t-78 -25t-31 -71v-148q0 -46 31 -71t78 -25t78 24.5t31 71.5v148zM289 -12q-57 0 -101.5 19t-75 54.5t-46.5 84.5t-16 109t16 109t46.5 84.5t75 54.5t101.5 19t101.5 -19t75 -54.5t46.5 -84.5t16 -109t-16 -109t-46.5 -84.5t-75 -54.5
t-101.5 -19z" />
    <glyph glyph-name="p" unicode="p" horiz-adv-x="602" 
d="M76 -170v680h125v-69q24 38 61 59.5t88 21.5t89 -21t63 -57t37 -85t12 -104q0 -56 -12.5 -104.5t-38 -84.5t-63.5 -57t-89 -21t-87 21.5t-60 59.5v-239h-125zM201 217q0 -60 27.5 -96t87.5 -36q48 0 76.5 27.5t28.5 70.5v144q0 43 -28 70.5t-77 27.5q-60 0 -87.5 -36
t-27.5 -96v-76z" />
    <glyph glyph-name="q" unicode="q" horiz-adv-x="602" 
d="M401 -170v239q-24 -38 -60 -59.5t-87 -21.5t-89 21t-63.5 57t-38 84.5t-12.5 104.5q0 55 12 104t37 85t63 57t89 21t88 -21.5t61 -59.5v69h125v-680h-125zM401 293q0 60 -27.5 96t-87.5 36q-49 0 -77 -27.5t-28 -70.5v-144q0 -43 28.5 -70.5t76.5 -27.5q60 0 87.5 36
t27.5 96v76z" />
    <glyph glyph-name="r" unicode="r" horiz-adv-x="386" 
d="M76 510h285v-98h-160v-412h-125v510z" />
    <glyph glyph-name="s" unicode="s" horiz-adv-x="514" 
d="M260 -12q-102 0 -157.5 45t-59.5 129h125q8 -77 92 -77q36 0 61.5 13.5t25.5 42.5q0 28 -21 40.5t-55 19.5l-88 19q-128 28 -128 146q0 33 13.5 61.5t39 49.5t62 33t83.5 12q87 0 142.5 -42t59.5 -127h-125q-2 36 -23 54t-54 18q-32 0 -52.5 -14t-20.5 -39t15.5 -37
t40.5 -17l101 -22q28 -6 53 -17.5t43 -29.5t28.5 -43t10.5 -59q0 -33 -14 -62t-41 -50.5t-66.5 -34t-90.5 -12.5z" />
    <glyph glyph-name="t" unicode="t" horiz-adv-x="422" 
d="M129 413h-101v97h101v170h125v-170h127v-97h-127v-316h127v-97h-252v413z" />
    <glyph glyph-name="u" unicode="u" horiz-adv-x="587" 
d="M386 74q-23 -42 -59.5 -64t-90.5 -22q-82 0 -123 49.5t-41 138.5v334h125v-325q0 -45 17.5 -70t62.5 -25q51 0 80 34.5t29 90.5v295h125v-510h-125v74z" />
    <glyph glyph-name="v" unicode="v" horiz-adv-x="537" 
d="M200 0l-179 510h134l111 -370h4l114 370h132l-179 -510h-137z" />
    <glyph glyph-name="w" unicode="w" horiz-adv-x="790" 
d="M397 370h-4l-77 -370h-151l-142 510h140l74 -370h4l75 370h156l77 -370h4l76 370h138l-142 -510h-151z" />
    <glyph glyph-name="x" unicode="x" horiz-adv-x="523" 
d="M192 268l-162 242h138l94 -150l94 150h135l-160 -242l178 -268h-136l-111 174l-109 -174h-137z" />
    <glyph glyph-name="y" unicode="y" horiz-adv-x="537" 
d="M53 -170v97h128l25 73l-184 510h134l111 -364h4l114 364h132l-246 -680h-218z" />
    <glyph glyph-name="z" unicode="z" horiz-adv-x="512" 
d="M44 0v97l261 316h-243v97h396v-97l-264 -316h271v-97h-421z" />
    <glyph glyph-name="braceleft" unicode="{" horiz-adv-x="402" 
d="M120 226h-95v94h95v-94h120v-302h125v-94h-245v396zM120 320v396h245v-94h-125v-302h-120z" />
    <glyph glyph-name="bar" unicode="|" horiz-adv-x="286" 
d="M83 765h120v-1020h-120v1020z" />
    <glyph glyph-name="braceright" unicode="}" horiz-adv-x="402" 
d="M282 320h95v-94h-95v94h-120v302h-125v94h245v-396zM282 226v-396h-245v94h125v302h120z" />
    <glyph glyph-name="asciitilde" unicode="~" 
d="M566 310q0 -32 -10.5 -58.5t-29.5 -46t-45 -30t-57 -10.5q-18 0 -33.5 3t-32 9t-36 15.5t-44.5 22.5q-38 19 -58.5 30t-42.5 11q-24 0 -35.5 -15t-11.5 -42h-95q0 32 10.5 58.5t29.5 46t45 30t57 10.5q18 0 34 -3t32.5 -9.5t35.5 -15.5t42 -21q21 -11 35 -19t25.5 -13
t21 -7.5t21.5 -2.5q24 0 35.5 15.5t11.5 41.5h95z" />
    <glyph glyph-name="uni00A0" unicode="&#xa0;" horiz-adv-x="240" 
 />
    <glyph glyph-name="exclamdown" unicode="&#xa1;" horiz-adv-x="281" 
d="M183 312l20 -149v-333h-125v333l20 149h85zM213 366h-145v144h145v-144z" />
    <glyph glyph-name="cent" unicode="&#xa2;" horiz-adv-x="555" 
d="M243 -8q-46 7 -80.5 29t-58 55.5t-35 78t-11.5 97.5q0 112 49 182t136 84v84h84v-83q33 -5 63 -18t53.5 -35t38.5 -54t18 -74h-125q-4 32 -16 51t-32 28v-326q22 8 34.5 28.5t17.5 56.5h125q-4 -42 -19 -74.5t-38.5 -55.5t-54 -37t-65.5 -18v-83h-84v84zM188 185
q0 -35 14.5 -58.5t40.5 -34.5v326q-24 -10 -39.5 -33t-15.5 -60v-140z" />
    <glyph glyph-name="sterling" unicode="&#xa3;" horiz-adv-x="611" 
d="M52 102h90v199h-90v99h90v103q0 40 13 75t39 61t66 41t93 15q54 0 93.5 -15t65.5 -41.5t39 -62t13 -76.5h-125q0 49 -20.5 70t-65.5 21t-65.5 -21.5t-20.5 -69.5v-100h148v-99h-148v-199h284v-102h-499v102z" />
    <glyph glyph-name="currency" unicode="&#xa4;" horiz-adv-x="611" 
d="M428 97q-27 -17 -58 -26t-65 -9t-65.5 9t-57.5 26l-56 -56l-72 73l56 56q-17 26 -26 57t-9 65t9 65t26 57l-56 57l73 73l56 -57q27 17 57.5 26t64.5 9t64.5 -9t57.5 -26l57 57l73 -72l-58 -57q36 -56 36 -123q0 -34 -9 -64.5t-26 -57.5l57 -56l-73 -73zM175 292
q0 -27 10 -50.5t28 -41.5t41.5 -28t50.5 -10t50.5 10t41.5 28t28 41.5t10 50.5t-10 50.5t-28 41.5t-41.5 28t-50.5 10t-50.5 -10t-41.5 -28t-28 -41.5t-10 -50.5z" />
    <glyph glyph-name="yen" unicode="&#xa5;" horiz-adv-x="613" 
d="M74 212h170v59h-170v79h120l-164 330h132l144 -296l146 296h131l-166 -330h120v-79h-169v-59h169v-79h-169v-133h-124v133h-170v79z" />
    <glyph glyph-name="brokenbar" unicode="&#xa6;" horiz-adv-x="286" 
d="M83 162h120v-417h-120v417zM83 765h120v-417h-120v417z" />
    <glyph glyph-name="section" unicode="&#xa7;" horiz-adv-x="603" 
d="M84 60v620h444v-98h-319v-131h320v-621h-446v98h321v132h-320zM209 158h195v195h-195v-195z" />
    <glyph glyph-name="dieresis" unicode="&#xa8;" horiz-adv-x="0" 
d="M-44 587h-118v108h118v-108zM162 587h-118v108h118v-108z" />
    <glyph glyph-name="copyright" unicode="&#xa9;" horiz-adv-x="820" 
d="M470 393q-3 35 -19.5 48t-42.5 13t-44.5 -16t-18.5 -51v-96q0 -32 17 -49.5t46 -17.5t44.5 12.5t20.5 48.5h86q-8 -66 -48.5 -97t-98.5 -31q-39 0 -68 13t-49 37t-30 57t-10 73q0 86 42 135t114 49q27 0 52 -7.5t45 -23t33 -40t15 -57.5h-86zM140 339q0 -56 21 -105.5
t57.5 -86t86 -57.5t105.5 -21t105.5 21t86 57.5t57.5 86t21 105.5t-21 105.5t-57.5 86t-86 57.5t-105.5 21t-105.5 -21t-86 -57.5t-57.5 -86t-21 -105.5zM55 339q0 73 28 138t76 113t112.5 76t138.5 28q73 0 138 -28t113 -76t76 -113t28 -138q0 -74 -28 -138.5t-76 -112.5
t-113 -76t-138 -28q-74 0 -138.5 28t-112.5 76t-76 112.5t-28 138.5z" />
    <glyph glyph-name="ordfeminine" unicode="&#xaa;" horiz-adv-x="394" 
d="M183 694q53 0 83 -23t30 -68v-109h45v-70h-126v39h-4q-25 -45 -75 -45q-37 0 -61 22q-11 11 -17 26t-6 32q0 35 21.5 57t64.5 26l72 7v18q0 13 -8 19t-22 6t-23.5 -6.5t-9.5 -20.5h-86q2 45 36.5 67.5t85.5 22.5zM167 484q20 0 31.5 12t11.5 31v6l-54 -5q-14 -1 -14 -17
v-11q0 -16 25 -16z" />
    <glyph glyph-name="guillemotleft" unicode="&#xab;" horiz-adv-x="560" 
d="M154 71l-107 186l107 186h115l-97 -186l97 -186h-115zM386 71l-107 186l107 186h115l-97 -186l97 -186h-115z" />
    <glyph glyph-name="logicalnot" unicode="&#xac;" 
d="M441 387h-409v96h510v-278h-101v182z" />
    <glyph glyph-name="uni00AD" unicode="&#xad;" horiz-adv-x="418" 
d="M69 322h280v-102h-280v102z" />
    <glyph glyph-name="registered" unicode="&#xae;" horiz-adv-x="820" 
d="M464 169l-65 115h-35v-115h-85v340h161q52 0 81.5 -28.5t29.5 -84.5q0 -47 -19 -71.5t-48 -35.5l70 -120h-90zM439 350q15 0 21 8.5t6 20.5v36q0 27 -27 27h-75v-92h75zM140 339q0 -56 21 -105.5t57.5 -86t86 -57.5t105.5 -21t105.5 21t86 57.5t57.5 86t21 105.5
t-21 105.5t-57.5 86t-86 57.5t-105.5 21t-105.5 -21t-86 -57.5t-57.5 -86t-21 -105.5zM55 339q0 73 28 138t76 113t112.5 76t138.5 28q73 0 138 -28t113 -76t76 -113t28 -138q0 -74 -28 -138.5t-76 -112.5t-113 -76t-138 -28q-74 0 -138.5 28t-112.5 76t-76 112.5t-28 138.5
z" />
    <glyph glyph-name="macron" unicode="&#xaf;" horiz-adv-x="0" 
d="M-159 680h319v-79h-319v79z" />
    <glyph glyph-name="degree" unicode="&#xb0;" horiz-adv-x="372" 
d="M46 555q0 30 10.5 55.5t29.5 44.5t44.5 29.5t55.5 10.5t55.5 -10.5t44.5 -29.5t29.5 -44.5t10.5 -55.5t-10.5 -55.5t-29.5 -44.5t-44.5 -29.5t-55.5 -10.5t-55.5 10.5t-44.5 29.5t-29.5 44.5t-10.5 55.5zM116 555q0 -32 19 -52t51 -20q31 0 50.5 20t19.5 52t-19.5 52
t-50.5 20q-32 0 -51 -20t-19 -52z" />
    <glyph glyph-name="plusminus" unicode="&#xb1;" 
d="M40 352v96h205v147h100v-147h215v-96h-215v-137h-100v137h-205zM560 85h-520v96h520v-96z" />
    <glyph glyph-name="twosuperior" unicode="&#xb2;" horiz-adv-x="353" 
d="M43 416v68l136 123q16 14 29 29t13 32t-11.5 27t-31.5 10q-51 0 -51 -52h-86q0 60 40 90.5t100 30.5t93 -29t33 -74q0 -21 -5.5 -37t-14 -29t-19 -23.5t-20.5 -19.5l-86 -73v-3h151v-70h-270z" />
    <glyph glyph-name="threesuperior" unicode="&#xb3;" horiz-adv-x="357" 
d="M131 562v66h67q25 0 25 23v23q0 14 -12.5 22.5t-31.5 8.5q-21 0 -35 -9.5t-14 -30.5h-86q2 49 36.5 79t100.5 30q63 0 95.5 -30t32.5 -71q0 -30 -15 -49.5t-41 -28.5q64 -18 64 -79q0 -47 -36.5 -77.5t-99.5 -30.5t-103.5 29.5t-42.5 89.5h86q2 -29 17 -39.5t41 -10.5
q28 0 40 9.5t12 24.5v27q0 24 -28 24h-72z" />
    <glyph glyph-name="acute" unicode="&#xb4;" horiz-adv-x="0" 
d="M23 695h140l-111 -122h-103z" />
    <glyph glyph-name="mu" unicode="&#xb5;" horiz-adv-x="639" 
d="M79 510h125v-330q0 -45 17.5 -70t62.5 -25q51 0 80 34.5t29 90.5v300h125v-413h86v-97h-211v74q-48 -86 -142 -86q-28 0 -47 12v-170h-125v680z" />
    <glyph glyph-name="paragraph" unicode="&#xb6;" horiz-adv-x="668" 
d="M584 680v-770h-120v666h-127v-666h-120v410h-170v360h537z" />
    <glyph glyph-name="periodcentered" unicode="&#xb7;" horiz-adv-x="282" 
d="M213 201h-144v144h144v-144z" />
    <glyph glyph-name="cedilla" unicode="&#xb8;" horiz-adv-x="0" 
d="M-118 -95h76v62h85v-137h-161v75z" />
    <glyph glyph-name="onesuperior" unicode="&#xb9;" horiz-adv-x="294" 
d="M230 416h-86v220h-111v70h111v60h86v-350z" />
    <glyph glyph-name="ordmasculine" unicode="&#xba;" horiz-adv-x="365" 
d="M226 588q0 19 -12.5 28.5t-31.5 9.5t-31.5 -9.5t-12.5 -28.5v-64q0 -19 12.5 -28.5t31.5 -9.5t31.5 9.5t12.5 28.5v64zM317 556q0 -63 -36 -100.5t-99 -37.5t-98.5 37.5t-35.5 100.5t35.5 100.5t98.5 37.5t99 -37.5t36 -100.5z" />
    <glyph glyph-name="guillemotright" unicode="&#xbb;" horiz-adv-x="560" 
d="M59 71l97 186l-97 186h115l107 -186l-107 -186h-115zM291 71l97 186l-97 186h115l107 -186l-107 -186h-115z" />
    <glyph glyph-name="onequarter" unicode="&#xbc;" horiz-adv-x="762" 
d="M227 330h-86v220h-111v70h111v60h86v-350zM550 680h100l-426 -680h-100zM584 0v70h-162v70l152 210h94v-210h63v-70h-63v-70h-84zM586 255h-4l-80 -115h84v115z" />
    <glyph glyph-name="onehalf" unicode="&#xbd;" horiz-adv-x="764" 
d="M227 330h-86v220h-111v70h111v60h86v-350zM530 680h100l-426 -680h-100zM454 0v68l136 123q16 14 29 29t13 32t-11.5 27t-31.5 10q-51 0 -51 -52h-86q0 60 40 90.5t100 30.5t93 -29t33 -74q0 -21 -5.5 -37t-14 -29t-19 -23.5t-20.5 -19.5l-86 -73v-3h151v-70h-270z" />
    <glyph glyph-name="threequarters" unicode="&#xbe;" horiz-adv-x="787" 
d="M131 476v66h67q25 0 25 23v23q0 14 -12.5 22.5t-31.5 8.5q-21 0 -35 -9.5t-14 -30.5h-86q2 49 36.5 79t100.5 30q63 0 95.5 -30t32.5 -71q0 -30 -15 -49.5t-41 -28.5q64 -18 64 -79q0 -47 -36.5 -77.5t-99.5 -30.5t-103.5 29.5t-42.5 89.5h86q2 -29 17 -39.5t41 -10.5
q28 0 40 9.5t12 24.5v27q0 24 -28 24h-72zM587 680h100l-426 -680h-100zM609 0v70h-162v70l152 210h94v-210h63v-70h-63v-70h-84zM611 255h-4l-80 -115h84v115z" />
    <glyph glyph-name="questiondown" unicode="&#xbf;" horiz-adv-x="509" 
d="M161 4q0 -40 22.5 -63.5t72.5 -23.5q51 0 75 25t27 67h125q-7 -91 -69.5 -142.5t-163.5 -51.5q-49 0 -88.5 14t-67.5 39t-43 60.5t-15 78.5q0 59 23 96.5t61 71.5q20 18 37 32t29.5 28.5t19.5 30t7 36.5v10h125v-10q0 -27 -5 -49t-16.5 -41.5t-29 -38t-41.5 -37.5
q-42 -34 -63.5 -64t-21.5 -68zM203 510h144v-144h-144v144z" />
    <glyph glyph-name="Agrave" unicode="&#xc0;" horiz-adv-x="641" 
d="M436 145h-232l-44 -145h-140l232 680h138l231 -680h-140zM324 523h-4l-82 -268h165zM377 747h-103l-111 122h140z" />
    <glyph glyph-name="Aacute" unicode="&#xc1;" horiz-adv-x="641" 
d="M436 145h-232l-44 -145h-140l232 680h138l231 -680h-140zM324 523h-4l-82 -268h165zM333 869h140l-111 -122h-103z" />
    <glyph glyph-name="Acircumflex" unicode="&#xc2;" horiz-adv-x="641" 
d="M436 145h-232l-44 -145h-140l232 680h138l231 -680h-140zM324 523h-4l-82 -268h165zM273 747h-101l79 122h139l80 -122h-103l-47 58z" />
    <glyph glyph-name="Atilde" unicode="&#xc3;" horiz-adv-x="641" 
d="M436 145h-232l-44 -145h-140l232 680h138l231 -680h-140zM324 523h-4l-82 -268h165zM487 861q0 -49 -24.5 -81t-74.5 -32q-19 0 -37.5 7t-35 15t-31.5 15t-26 7q-32 0 -32 -36h-70q0 49 24.5 81t74.5 32q19 0 37.5 -7t35 -15t31.5 -15t26 -7q32 0 32 36h70z" />
    <glyph glyph-name="Adieresis" unicode="&#xc4;" horiz-adv-x="641" 
d="M436 145h-232l-44 -145h-140l232 680h138l231 -680h-140zM324 523h-4l-82 -268h165zM277 761h-118v108h118v-108zM483 761h-118v108h118v-108z" />
    <glyph glyph-name="Aring" unicode="&#xc5;" horiz-adv-x="641" 
d="M436 145h-232l-44 -145h-140l232 680h138l231 -680h-140zM324 523h-4l-82 -268h165zM421 833q0 -42 -29 -70.5t-71 -28.5q-21 0 -39 7.5t-32 21t-22 31.5t-8 39q0 42 29.5 70t71.5 28t71 -28t29 -70zM361 833q0 17 -11.5 28.5t-28.5 11.5t-29 -11.5t-12 -28.5t12 -29
t29 -12t28.5 12t11.5 29z" />
    <glyph glyph-name="AE" unicode="&#xc6;" horiz-adv-x="961" 
d="M903 680v-110h-311v-167h265v-110h-265v-183h311v-110h-441v145h-257l-70 -145h-141l335 680h574zM259 255h203v315h-50z" />
    <glyph glyph-name="Ccedilla" unicode="&#xc7;" horiz-adv-x="645" 
d="M340 -15q-74 0 -127.5 26.5t-88.5 73.5t-52 111.5t-17 141.5q0 81 18 147t54 112.5t91 72t129 25.5q52 0 97 -15t78 -43.5t53 -69t23 -90.5h-130q-5 54 -38.5 81t-91.5 27q-31 0 -57.5 -10t-45.5 -28t-29.5 -44t-10.5 -58v-208q0 -31 11.5 -57t31.5 -45t46.5 -29.5
t57.5 -10.5q61 0 94 26.5t43 86.5h130q-8 -59 -31 -101t-58 -69t-81 -40t-99 -13zM222 -95h76v62h85v-137h-161v75z" />
    <glyph glyph-name="Egrave" unicode="&#xc8;" horiz-adv-x="610" 
d="M84 680h468v-110h-338v-167h292v-110h-292v-183h338v-110h-468v680zM401 747h-103l-111 122h140z" />
    <glyph glyph-name="Eacute" unicode="&#xc9;" horiz-adv-x="610" 
d="M84 680h468v-110h-338v-167h292v-110h-292v-183h338v-110h-468v680zM309 869h140l-111 -122h-103z" />
    <glyph glyph-name="Ecircumflex" unicode="&#xca;" horiz-adv-x="610" 
d="M84 680h468v-110h-338v-167h292v-110h-292v-183h338v-110h-468v680zM270 747h-101l79 122h139l80 -122h-103l-47 58z" />
    <glyph glyph-name="Edieresis" unicode="&#xcb;" horiz-adv-x="610" 
d="M84 680h468v-110h-338v-167h292v-110h-292v-183h338v-110h-468v680zM274 761h-118v108h118v-108zM480 761h-118v108h118v-108z" />
    <glyph glyph-name="Igrave" unicode="&#xcc;" horiz-adv-x="298" 
d="M84 680h130v-680h-130v680zM209 747h-103l-111 122h140z" />
    <glyph glyph-name="Iacute" unicode="&#xcd;" horiz-adv-x="298" 
d="M84 680h130v-680h-130v680zM159 869h140l-111 -122h-103z" />
    <glyph glyph-name="Icircumflex" unicode="&#xce;" horiz-adv-x="298" 
d="M84 680h130v-680h-130v680zM101 747h-101l79 122h139l80 -122h-103l-47 58z" />
    <glyph glyph-name="Idieresis" unicode="&#xcf;" horiz-adv-x="298" 
d="M84 680h130v-680h-130v680zM105 761h-118v108h118v-108zM311 761h-118v108h118v-108z" />
    <glyph glyph-name="Eth" unicode="&#xd0;" horiz-adv-x="691" 
d="M333 110q81 0 121.5 32t40.5 100v196q0 68 -40.5 100t-121.5 32h-100v-182h146v-96h-146v-182h100zM103 292h-72v96h72v292h230q161 0 231.5 -84.5t70.5 -255.5t-70.5 -255.5t-231.5 -84.5h-230v292z" />
    <glyph glyph-name="Ntilde" unicode="&#xd1;" horiz-adv-x="699" 
d="M486 162v518h129v-680h-195l-203 519h-4v-519h-129v680h195l203 -518h4zM515 861q0 -49 -24.5 -81t-74.5 -32q-19 0 -37.5 7t-35 15t-31.5 15t-26 7q-32 0 -32 -36h-70q0 49 24.5 81t74.5 32q19 0 37.5 -7t35 -15t31.5 -15t26 -7q32 0 32 36h70z" />
    <glyph glyph-name="Ograve" unicode="&#xd2;" horiz-adv-x="716" 
d="M661 340q0 -175 -79 -265t-224 -90t-224 90t-79 265t79 265t224 90t224 -90t79 -265zM358 95q34 0 63.5 9t51.5 27t35 44t13 60v210q0 34 -13 60t-35 44t-51.5 27t-63.5 9t-63.5 -9t-51.5 -27t-35 -44t-13 -60v-210q0 -34 13 -60t35 -44t51.5 -27t63.5 -9zM437 747h-103
l-111 122h140z" />
    <glyph glyph-name="Oacute" unicode="&#xd3;" horiz-adv-x="716" 
d="M661 340q0 -175 -79 -265t-224 -90t-224 90t-79 265t79 265t224 90t224 -90t79 -265zM358 95q34 0 63.5 9t51.5 27t35 44t13 60v210q0 34 -13 60t-35 44t-51.5 27t-63.5 9t-63.5 -9t-51.5 -27t-35 -44t-13 -60v-210q0 -34 13 -60t35 -44t51.5 -27t63.5 -9zM355 869h140
l-111 -122h-103z" />
    <glyph glyph-name="Ocircumflex" unicode="&#xd4;" horiz-adv-x="716" 
d="M661 340q0 -175 -79 -265t-224 -90t-224 90t-79 265t79 265t224 90t224 -90t79 -265zM358 95q34 0 63.5 9t51.5 27t35 44t13 60v210q0 34 -13 60t-35 44t-51.5 27t-63.5 9t-63.5 -9t-51.5 -27t-35 -44t-13 -60v-210q0 -34 13 -60t35 -44t51.5 -27t63.5 -9zM310 747h-101
l79 122h139l80 -122h-103l-47 58z" />
    <glyph glyph-name="Otilde" unicode="&#xd5;" horiz-adv-x="716" 
d="M661 340q0 -175 -79 -265t-224 -90t-224 90t-79 265t79 265t224 90t224 -90t79 -265zM358 95q34 0 63.5 9t51.5 27t35 44t13 60v210q0 34 -13 60t-35 44t-51.5 27t-63.5 9t-63.5 -9t-51.5 -27t-35 -44t-13 -60v-210q0 -34 13 -60t35 -44t51.5 -27t63.5 -9zM524 861
q0 -49 -24.5 -81t-74.5 -32q-19 0 -37.5 7t-35 15t-31.5 15t-26 7q-32 0 -32 -36h-70q0 49 24.5 81t74.5 32q19 0 37.5 -7t35 -15t31.5 -15t26 -7q32 0 32 36h70z" />
    <glyph glyph-name="Odieresis" unicode="&#xd6;" horiz-adv-x="716" 
d="M661 340q0 -175 -79 -265t-224 -90t-224 90t-79 265t79 265t224 90t224 -90t79 -265zM358 95q34 0 63.5 9t51.5 27t35 44t13 60v210q0 34 -13 60t-35 44t-51.5 27t-63.5 9t-63.5 -9t-51.5 -27t-35 -44t-13 -60v-210q0 -34 13 -60t35 -44t51.5 -27t63.5 -9zM314 761h-118
v108h118v-108zM520 761h-118v108h118v-108z" />
    <glyph glyph-name="multiply" unicode="&#xd7;" 
d="M556 153l-69 -69l-187 187l-186 -187l-69 69l187 186l-187 187l69 69l186 -187l187 187l68 -68l-187 -187z" />
    <glyph glyph-name="Oslash" unicode="&#xd8;" horiz-adv-x="716" 
d="M661 340q0 -175 -79 -265t-224 -90q-66 0 -117 18l-38 -76l-75 36l40 80q-55 44 -84 118t-29 179q0 175 79 265t224 90q35 0 66 -5.5t58 -16.5l40 80l75 -36l-43 -86q52 -44 79.5 -116.5t27.5 -174.5zM195 235q0 -48 27 -83l210 420q-17 7 -35.5 10t-38.5 3
q-34 0 -63.5 -9t-51.5 -27t-35 -44t-13 -60v-210zM358 95q34 0 63.5 9t51.5 27t35 44t13 60v210q0 43 -22 76l-208 -416q30 -10 67 -10z" />
    <glyph glyph-name="Ugrave" unicode="&#xd9;" horiz-adv-x="688" 
d="M481 680h129v-438q0 -59 -18.5 -106.5t-53 -81t-83.5 -51.5t-111 -18t-111 18t-83.5 51t-53 80.5t-18.5 107.5v438h130v-443q0 -66 34 -104t102 -38q69 0 103 37.5t34 104.5v443zM433 747h-103l-111 122h140z" />
    <glyph glyph-name="Uacute" unicode="&#xda;" horiz-adv-x="688" 
d="M481 680h129v-438q0 -59 -18.5 -106.5t-53 -81t-83.5 -51.5t-111 -18t-111 18t-83.5 51t-53 80.5t-18.5 107.5v438h130v-443q0 -66 34 -104t102 -38q69 0 103 37.5t34 104.5v443zM345 869h140l-111 -122h-103z" />
    <glyph glyph-name="Ucircumflex" unicode="&#xdb;" horiz-adv-x="688" 
d="M481 680h129v-438q0 -59 -18.5 -106.5t-53 -81t-83.5 -51.5t-111 -18t-111 18t-83.5 51t-53 80.5t-18.5 107.5v438h130v-443q0 -66 34 -104t102 -38q69 0 103 37.5t34 104.5v443zM296 747h-101l79 122h139l80 -122h-103l-47 58z" />
    <glyph glyph-name="Udieresis" unicode="&#xdc;" horiz-adv-x="688" 
d="M481 680h129v-438q0 -59 -18.5 -106.5t-53 -81t-83.5 -51.5t-111 -18t-111 18t-83.5 51t-53 80.5t-18.5 107.5v438h130v-443q0 -66 34 -104t102 -38q69 0 103 37.5t34 104.5v443zM300 761h-118v108h118v-108zM506 761h-118v108h118v-108z" />
    <glyph glyph-name="Yacute" unicode="&#xdd;" horiz-adv-x="636" 
d="M26 680h147l146 -282l146 282h145l-227 -414v-266h-130v266zM333 869h140l-111 -122h-103z" />
    <glyph glyph-name="Thorn" unicode="&#xde;" horiz-adv-x="623" 
d="M84 680h130v-117h147q108 0 161 -53q52 -52 52 -165q0 -54 -15 -94.5t-43 -68.5q-57 -55 -154 -55h-148v-127h-130v680zM375 237q34 0 49 17t15 51v84q0 34 -14 49t-50 15h-161v-216h161z" />
    <glyph glyph-name="germandbls" unicode="&#xdf;" horiz-adv-x="575" 
d="M261 88h7q63 0 94.5 19t31.5 65v72q0 31 -13.5 47.5t-50.5 16.5h-69v101h59q37 0 50.5 16t13.5 47v56q0 32 -23.5 48.5t-63.5 16.5q-48 0 -72 -23.5t-24 -64.5v-505h-125v505q0 39 15.5 73.5t44 60.5t69.5 41t92 15t91 -14.5t68 -38.5t42.5 -55.5t14.5 -65.5
q0 -68 -24.5 -104t-74.5 -59q50 -15 79.5 -54.5t29.5 -113.5q0 -99 -65.5 -152t-186.5 -53h-10v103z" />
    <glyph glyph-name="agrave" unicode="&#xe0;" horiz-adv-x="568" 
d="M207 -12q-35 0 -64 11.5t-51 32.5t-34 49.5t-12 63.5q0 62 43 107t124 52l141 12v33q0 40 -21.5 58t-58.5 18q-38 0 -62 -18.5t-24 -53.5h-125q1 42 18 73.5t45.5 52.5t67.5 32t85 11q92 0 145 -44.5t53 -130.5v-250h86v-97h-198v79h-4q-22 -42 -58.5 -66.5t-95.5 -24.5z
M251 85q48 0 75.5 34t27.5 82v20l-150 -13q-28 -3 -28 -33v-44q0 -23 21 -34.5t54 -11.5zM351 573h-103l-111 122h140z" />
    <glyph glyph-name="aacute" unicode="&#xe1;" horiz-adv-x="568" 
d="M207 -12q-35 0 -64 11.5t-51 32.5t-34 49.5t-12 63.5q0 62 43 107t124 52l141 12v33q0 40 -21.5 58t-58.5 18q-38 0 -62 -18.5t-24 -53.5h-125q1 42 18 73.5t45.5 52.5t67.5 32t85 11q92 0 145 -44.5t53 -130.5v-250h86v-97h-198v79h-4q-22 -42 -58.5 -66.5t-95.5 -24.5z
M251 85q48 0 75.5 34t27.5 82v20l-150 -13q-28 -3 -28 -33v-44q0 -23 21 -34.5t54 -11.5zM282 695h140l-111 -122h-103z" />
    <glyph glyph-name="acircumflex" unicode="&#xe2;" horiz-adv-x="568" 
d="M207 -12q-35 0 -64 11.5t-51 32.5t-34 49.5t-12 63.5q0 62 43 107t124 52l141 12v33q0 40 -21.5 58t-58.5 18q-38 0 -62 -18.5t-24 -53.5h-125q1 42 18 73.5t45.5 52.5t67.5 32t85 11q92 0 145 -44.5t53 -130.5v-250h86v-97h-198v79h-4q-22 -42 -58.5 -66.5t-95.5 -24.5z
M251 85q48 0 75.5 34t27.5 82v20l-150 -13q-28 -3 -28 -33v-44q0 -23 21 -34.5t54 -11.5zM231 573h-101l79 122h139l80 -122h-103l-47 58z" />
    <glyph glyph-name="atilde" unicode="&#xe3;" horiz-adv-x="568" 
d="M207 -12q-35 0 -64 11.5t-51 32.5t-34 49.5t-12 63.5q0 62 43 107t124 52l141 12v33q0 40 -21.5 58t-58.5 18q-38 0 -62 -18.5t-24 -53.5h-125q1 42 18 73.5t45.5 52.5t67.5 32t85 11q92 0 145 -44.5t53 -130.5v-250h86v-97h-198v79h-4q-22 -42 -58.5 -66.5t-95.5 -24.5z
M251 85q48 0 75.5 34t27.5 82v20l-150 -13q-28 -3 -28 -33v-44q0 -23 21 -34.5t54 -11.5zM445 687q0 -49 -24.5 -81t-74.5 -32q-19 0 -37.5 7t-35 15t-31.5 15t-26 7q-32 0 -32 -36h-70q0 49 24.5 81t74.5 32q19 0 37.5 -7t35 -15t31.5 -15t26 -7q32 0 32 36h70z" />
    <glyph glyph-name="adieresis" unicode="&#xe4;" horiz-adv-x="568" 
d="M207 -12q-35 0 -64 11.5t-51 32.5t-34 49.5t-12 63.5q0 62 43 107t124 52l141 12v33q0 40 -21.5 58t-58.5 18q-38 0 -62 -18.5t-24 -53.5h-125q1 42 18 73.5t45.5 52.5t67.5 32t85 11q92 0 145 -44.5t53 -130.5v-250h86v-97h-198v79h-4q-22 -42 -58.5 -66.5t-95.5 -24.5z
M251 85q48 0 75.5 34t27.5 82v20l-150 -13q-28 -3 -28 -33v-44q0 -23 21 -34.5t54 -11.5zM235 587h-118v108h118v-108zM441 587h-118v108h118v-108z" />
    <glyph glyph-name="aring" unicode="&#xe5;" horiz-adv-x="568" 
d="M207 -12q-35 0 -64 11.5t-51 32.5t-34 49.5t-12 63.5q0 62 43 107t124 52l141 12v33q0 40 -21.5 58t-58.5 18q-38 0 -62 -18.5t-24 -53.5h-125q1 42 18 73.5t45.5 52.5t67.5 32t85 11q92 0 145 -44.5t53 -130.5v-250h86v-97h-198v79h-4q-22 -42 -58.5 -66.5t-95.5 -24.5z
M251 85q48 0 75.5 34t27.5 82v20l-150 -13q-28 -3 -28 -33v-44q0 -23 21 -34.5t54 -11.5zM319 659q0 17 -11.5 28.5t-28.5 11.5t-29 -11.5t-12 -28.5t12 -29t29 -12t28.5 12t11.5 29zM379 659q0 -42 -29 -70.5t-71 -28.5q-21 0 -39 7.5t-32 21t-22 31.5t-8 39q0 42 29.5 70
t71.5 28t71 -28t29 -70z" />
    <glyph glyph-name="ae" unicode="&#xe6;" horiz-adv-x="852" 
d="M575 -12q-54 0 -92.5 18t-67.5 53h-2q-33 -35 -75 -53t-104 -18q-83 0 -134 45q-25 22 -38.5 53t-13.5 69q0 34 11.5 63t32.5 50t49.5 32.5t63.5 11.5h151v37q0 40 -21.5 58t-58.5 18q-38 0 -62 -18.5t-24 -53.5h-125q1 42 18 73.5t45.5 52.5t67.5 32t85 11q50 0 89 -15
t64 -43q26 29 62.5 43.5t78.5 14.5q51 0 92.5 -18.5t70.5 -51t45 -77.5t16 -97v-63h-320v-34q0 -46 29 -71t68 -25t64 21.5t30 60.5h125q-12 -85 -70.5 -132t-149.5 -47zM253 85q48 0 75.5 34t27.5 82v15h-148q-15 0 -22.5 -9t-7.5 -24v-52q0 -23 21 -34.5t54 -11.5z
M575 425q-42 0 -69 -26.5t-27 -68.5v-18h192v18q0 42 -27 68.5t-69 26.5z" />
    <glyph glyph-name="ccedilla" unicode="&#xe7;" horiz-adv-x="540" 
d="M51 252q0 63 16 113t46 85t72 53.5t95 18.5q40 0 76.5 -10.5t66 -33t48 -57.5t22.5 -83h-125q-5 49 -30 68t-63 19t-66 -24.5t-28 -75.5v-140q0 -47 26.5 -73.5t68.5 -26.5t66 20t30 71h125q-5 -48 -23 -83t-47 -58.5t-66 -35t-79 -11.5q-57 0 -100 19.5t-72.5 54t-44 83
t-14.5 107.5zM164 -95h76v62h85v-137h-161v75z" />
    <glyph glyph-name="egrave" unicode="&#xe8;" horiz-adv-x="560" 
d="M380 330q0 42 -28.5 68.5t-71.5 26.5t-71.5 -26.5t-28.5 -68.5v-18h200v18zM280 -12q-54 0 -97 19.5t-72.5 54.5t-45 84.5t-15.5 109.5t16.5 109t46.5 84t72.5 54t94.5 19t94 -18.5t72 -51t46 -77.5t16 -97v-63h-328v-34q0 -46 30 -71t71 -25t67 21.5t31 60.5h125
q-12 -85 -71.5 -132t-152.5 -47zM352 573h-103l-111 122h140z" />
    <glyph glyph-name="eacute" unicode="&#xe9;" horiz-adv-x="560" 
d="M380 330q0 42 -28.5 68.5t-71.5 26.5t-71.5 -26.5t-28.5 -68.5v-18h200v18zM280 -12q-54 0 -97 19.5t-72.5 54.5t-45 84.5t-15.5 109.5t16.5 109t46.5 84t72.5 54t94.5 19t94 -18.5t72 -51t46 -77.5t16 -97v-63h-328v-34q0 -46 30 -71t71 -25t67 21.5t31 60.5h125
q-12 -85 -71.5 -132t-152.5 -47zM282 695h140l-111 -122h-103z" />
    <glyph glyph-name="ecircumflex" unicode="&#xea;" horiz-adv-x="560" 
d="M380 330q0 42 -28.5 68.5t-71.5 26.5t-71.5 -26.5t-28.5 -68.5v-18h200v18zM280 -12q-54 0 -97 19.5t-72.5 54.5t-45 84.5t-15.5 109.5t16.5 109t46.5 84t72.5 54t94.5 19t94 -18.5t72 -51t46 -77.5t16 -97v-63h-328v-34q0 -46 30 -71t71 -25t67 21.5t31 60.5h125
q-12 -85 -71.5 -132t-152.5 -47zM232 573h-101l79 122h139l80 -122h-103l-47 58z" />
    <glyph glyph-name="edieresis" unicode="&#xeb;" horiz-adv-x="560" 
d="M380 330q0 42 -28.5 68.5t-71.5 26.5t-71.5 -26.5t-28.5 -68.5v-18h200v18zM280 -12q-54 0 -97 19.5t-72.5 54.5t-45 84.5t-15.5 109.5t16.5 109t46.5 84t72.5 54t94.5 19t94 -18.5t72 -51t46 -77.5t16 -97v-63h-328v-34q0 -46 30 -71t71 -25t67 21.5t31 60.5h125
q-12 -85 -71.5 -132t-152.5 -47zM236 587h-118v108h118v-108zM442 587h-118v108h118v-108z" />
    <glyph glyph-name="igrave" unicode="&#xec;" horiz-adv-x="277" 
d="M76 0v510h125v-510h-125zM210 573h-103l-111 122h140z" />
    <glyph glyph-name="iacute" unicode="&#xed;" horiz-adv-x="277" 
d="M76 0v510h125v-510h-125zM141 695h140l-111 -122h-103z" />
    <glyph glyph-name="icircumflex" unicode="&#xee;" horiz-adv-x="277" 
d="M76 0v510h125v-510h-125zM90 573h-101l79 122h139l80 -122h-103l-47 58z" />
    <glyph glyph-name="idieresis" unicode="&#xef;" horiz-adv-x="277" 
d="M76 0v510h125v-510h-125zM94 587h-118v108h118v-108zM300 587h-118v108h118v-108z" />
    <glyph glyph-name="eth" unicode="&#xf0;" horiz-adv-x="577" 
d="M397 289q0 47 -32 71.5t-77 24.5q-47 0 -78 -24.5t-31 -71.5v-108q0 -47 31 -71.5t78 -24.5t78 24.5t31 71.5v108zM270 533h-131v80h80l-44 67h131l43 -67h135v-80h-81l46 -70q10 -15 23.5 -37t25.5 -50t20.5 -63.5t8.5 -77.5q0 -56 -17 -102t-48 -78t-75.5 -49.5
t-98.5 -17.5t-98.5 17.5t-75.5 49.5t-48 78t-17 102t17 101.5t47 78t72 50t93 17.5h12.5t12.5 -1z" />
    <glyph glyph-name="ntilde" unicode="&#xf1;" horiz-adv-x="591" 
d="M394 325q0 45 -19 70t-64 25q-52 0 -81 -34.5t-29 -90.5v-295h-125v510h125v-74q23 41 60 63.5t91 22.5q86 0 126.5 -50t40.5 -138v-334h-125v325zM463 687q0 -49 -24.5 -81t-74.5 -32q-19 0 -37.5 7t-35 15t-31.5 15t-26 7q-32 0 -32 -36h-70q0 49 24.5 81t74.5 32
q19 0 37.5 -7t35 -15t31.5 -15t26 -7q32 0 32 36h70z" />
    <glyph glyph-name="ograve" unicode="&#xf2;" horiz-adv-x="578" 
d="M398 329q0 47 -31 71.5t-78 24.5t-78 -25t-31 -71v-148q0 -46 31 -71t78 -25t78 24.5t31 71.5v148zM289 -12q-57 0 -101.5 19t-75 54.5t-46.5 84.5t-16 109t16 109t46.5 84.5t75 54.5t101.5 19t101.5 -19t75 -54.5t46.5 -84.5t16 -109t-16 -109t-46.5 -84.5t-75 -54.5
t-101.5 -19zM361 573h-103l-111 122h140z" />
    <glyph glyph-name="oacute" unicode="&#xf3;" horiz-adv-x="578" 
d="M398 329q0 47 -31 71.5t-78 24.5t-78 -25t-31 -71v-148q0 -46 31 -71t78 -25t78 24.5t31 71.5v148zM289 -12q-57 0 -101.5 19t-75 54.5t-46.5 84.5t-16 109t16 109t46.5 84.5t75 54.5t101.5 19t101.5 -19t75 -54.5t46.5 -84.5t16 -109t-16 -109t-46.5 -84.5t-75 -54.5
t-101.5 -19zM292 695h140l-111 -122h-103z" />
    <glyph glyph-name="ocircumflex" unicode="&#xf4;" horiz-adv-x="578" 
d="M398 329q0 47 -31 71.5t-78 24.5t-78 -25t-31 -71v-148q0 -46 31 -71t78 -25t78 24.5t31 71.5v148zM289 -12q-57 0 -101.5 19t-75 54.5t-46.5 84.5t-16 109t16 109t46.5 84.5t75 54.5t101.5 19t101.5 -19t75 -54.5t46.5 -84.5t16 -109t-16 -109t-46.5 -84.5t-75 -54.5
t-101.5 -19zM241 573h-101l79 122h139l80 -122h-103l-47 58z" />
    <glyph glyph-name="otilde" unicode="&#xf5;" horiz-adv-x="578" 
d="M398 329q0 47 -31 71.5t-78 24.5t-78 -25t-31 -71v-148q0 -46 31 -71t78 -25t78 24.5t31 71.5v148zM289 -12q-57 0 -101.5 19t-75 54.5t-46.5 84.5t-16 109t16 109t46.5 84.5t75 54.5t101.5 19t101.5 -19t75 -54.5t46.5 -84.5t16 -109t-16 -109t-46.5 -84.5t-75 -54.5
t-101.5 -19zM455 687q0 -49 -24.5 -81t-74.5 -32q-19 0 -37.5 7t-35 15t-31.5 15t-26 7q-32 0 -32 -36h-70q0 49 24.5 81t74.5 32q19 0 37.5 -7t35 -15t31.5 -15t26 -7q32 0 32 36h70z" />
    <glyph glyph-name="odieresis" unicode="&#xf6;" horiz-adv-x="578" 
d="M398 329q0 47 -31 71.5t-78 24.5t-78 -25t-31 -71v-148q0 -46 31 -71t78 -25t78 24.5t31 71.5v148zM289 -12q-57 0 -101.5 19t-75 54.5t-46.5 84.5t-16 109t16 109t46.5 84.5t75 54.5t101.5 19t101.5 -19t75 -54.5t46.5 -84.5t16 -109t-16 -109t-46.5 -84.5t-75 -54.5
t-101.5 -19zM245 587h-118v108h118v-108zM451 587h-118v108h118v-108z" />
    <glyph glyph-name="divide" unicode="&#xf7;" 
d="M363 85h-126v127h126v-127zM560 292h-520v96h520v-96zM363 468h-126v127h126v-127z" />
    <glyph glyph-name="oslash" unicode="&#xf8;" horiz-adv-x="578" 
d="M434 478q46 -35 70 -91.5t24 -131.5q0 -60 -16 -109t-46.5 -84.5t-75 -54.5t-101.5 -19q-24 0 -45.5 3.5t-41.5 9.5l-38 -79l-77 34l42 87q-39 35 -59 89t-20 123q0 60 16 109t46.5 84.5t75 54.5t101.5 19q37 0 69 -9l35 72l77 -34zM314 423q-6 1 -12 1.5t-13 0.5
q-47 0 -78 -25t-31 -71v-148q0 -15 3 -27zM246 91q19 -6 43 -6q47 0 78 24.5t31 71.5v148q0 26 -13 49z" />
    <glyph glyph-name="ugrave" unicode="&#xf9;" horiz-adv-x="587" 
d="M386 74q-23 -42 -59.5 -64t-90.5 -22q-82 0 -123 49.5t-41 138.5v334h125v-325q0 -45 17.5 -70t62.5 -25q51 0 80 34.5t29 90.5v295h125v-510h-125v74zM353 573h-103l-111 122h140z" />
    <glyph glyph-name="uacute" unicode="&#xfa;" horiz-adv-x="587" 
d="M386 74q-23 -42 -59.5 -64t-90.5 -22q-82 0 -123 49.5t-41 138.5v334h125v-325q0 -45 17.5 -70t62.5 -25q51 0 80 34.5t29 90.5v295h125v-510h-125v74zM294 695h140l-111 -122h-103z" />
    <glyph glyph-name="ucircumflex" unicode="&#xfb;" horiz-adv-x="587" 
d="M386 74q-23 -42 -59.5 -64t-90.5 -22q-82 0 -123 49.5t-41 138.5v334h125v-325q0 -45 17.5 -70t62.5 -25q51 0 80 34.5t29 90.5v295h125v-510h-125v74zM243 573h-101l79 122h139l80 -122h-103l-47 58z" />
    <glyph glyph-name="udieresis" unicode="&#xfc;" horiz-adv-x="587" 
d="M386 74q-23 -42 -59.5 -64t-90.5 -22q-82 0 -123 49.5t-41 138.5v334h125v-325q0 -45 17.5 -70t62.5 -25q51 0 80 34.5t29 90.5v295h125v-510h-125v74zM247 587h-118v108h118v-108zM453 587h-118v108h118v-108z" />
    <glyph glyph-name="yacute" unicode="&#xfd;" horiz-adv-x="537" 
d="M53 -170v97h128l25 73l-184 510h134l111 -364h4l114 364h132l-246 -680h-218zM272 695h140l-111 -122h-103z" />
    <glyph glyph-name="thorn" unicode="&#xfe;" horiz-adv-x="602" 
d="M76 -170v850h125v-239q24 38 61 59.5t88 21.5t89 -21t63 -57t37 -85t12 -104q0 -56 -12 -104.5t-37 -84.5t-63 -57t-89 -21t-88 21.5t-61 59.5v-239h-125zM201 217q0 -60 27.5 -96t87.5 -36q49 0 77 26.5t28 71.5v144q0 45 -28 71.5t-77 26.5q-60 0 -87.5 -36t-27.5 -96
v-76z" />
    <glyph glyph-name="ydieresis" unicode="&#xff;" horiz-adv-x="537" 
d="M53 -170v97h128l25 73l-184 510h134l111 -364h4l114 364h132l-246 -680h-218zM225 587h-118v108h118v-108zM431 587h-118v108h118v-108z" />
    <glyph glyph-name="Amacron" unicode="&#x100;" horiz-adv-x="641" 
d="M436 145h-232l-44 -145h-140l232 680h138l231 -680h-140zM324 523h-4l-82 -268h165zM162 854h319v-79h-319v79z" />
    <glyph glyph-name="amacron" unicode="&#x101;" horiz-adv-x="568" 
d="M207 -12q-35 0 -64 11.5t-51 32.5t-34 49.5t-12 63.5q0 62 43 107t124 52l141 12v33q0 40 -21.5 58t-58.5 18q-38 0 -62 -18.5t-24 -53.5h-125q1 42 18 73.5t45.5 52.5t67.5 32t85 11q92 0 145 -44.5t53 -130.5v-250h86v-97h-198v79h-4q-22 -42 -58.5 -66.5t-95.5 -24.5z
M251 85q48 0 75.5 34t27.5 82v20l-150 -13q-28 -3 -28 -33v-44q0 -23 21 -34.5t54 -11.5zM120 680h319v-79h-319v79z" />
    <glyph glyph-name="Abreve" unicode="&#x102;" horiz-adv-x="641" 
d="M436 145h-232l-44 -145h-140l232 680h138l231 -680h-140zM324 523h-4l-82 -268h165zM256 869q0 -26 18 -42.5t47 -16.5t47 16.5t18 42.5h80q0 -30 -10.5 -55t-30 -42.5t-46 -27.5t-58.5 -10t-58.5 10t-46 27.5t-30 42.5t-10.5 55h80z" />
    <glyph glyph-name="abreve" unicode="&#x103;" horiz-adv-x="568" 
d="M207 -12q-35 0 -64 11.5t-51 32.5t-34 49.5t-12 63.5q0 62 43 107t124 52l141 12v33q0 40 -21.5 58t-58.5 18q-38 0 -62 -18.5t-24 -53.5h-125q1 42 18 73.5t45.5 52.5t67.5 32t85 11q92 0 145 -44.5t53 -130.5v-250h86v-97h-198v79h-4q-22 -42 -58.5 -66.5t-95.5 -24.5z
M251 85q48 0 75.5 34t27.5 82v20l-150 -13q-28 -3 -28 -33v-44q0 -23 21 -34.5t54 -11.5zM214 695q0 -26 18 -42.5t47 -16.5t47 16.5t18 42.5h80q0 -30 -10.5 -55t-30 -42.5t-46 -27.5t-58.5 -10t-58.5 10t-46 27.5t-30 42.5t-10.5 55h80z" />
    <glyph glyph-name="Aogonek" unicode="&#x104;" horiz-adv-x="641" 
d="M436 145h-232l-44 -145h-140l232 680h138l231 -680h-140zM324 523h-4l-82 -268h165zM621 -170h-164v75l74 65h79l-69 -65h80v-75z" />
    <glyph glyph-name="aogonek" unicode="&#x105;" horiz-adv-x="568" 
d="M207 -12q-35 0 -64 11.5t-51 32.5t-34 49.5t-12 63.5q0 62 43 107t124 52l141 12v33q0 40 -21.5 58t-58.5 18q-38 0 -62 -18.5t-24 -53.5h-125q1 42 18 73.5t45.5 52.5t67.5 32t85 11q92 0 145 -44.5t53 -130.5v-250h86v-97h-198v79h-4q-22 -42 -58.5 -66.5t-95.5 -24.5z
M251 85q48 0 75.5 34t27.5 82v20l-150 -13q-28 -3 -28 -33v-44q0 -23 21 -34.5t54 -11.5zM563 -170h-164v75l74 65h79l-69 -65h80v-75z" />
    <glyph glyph-name="Cacute" unicode="&#x106;" horiz-adv-x="645" 
d="M340 -15q-74 0 -127.5 26.5t-88.5 73.5t-52 111.5t-17 141.5q0 81 18 147t54 112.5t91 72t129 25.5q52 0 97 -15t78 -43.5t53 -69t23 -90.5h-130q-5 54 -38.5 81t-91.5 27q-31 0 -57.5 -10t-45.5 -28t-29.5 -44t-10.5 -58v-208q0 -31 11.5 -57t31.5 -45t46.5 -29.5
t57.5 -10.5q61 0 94 26.5t43 86.5h130q-8 -59 -31 -101t-58 -69t-81 -40t-99 -13zM346 869h140l-111 -122h-103z" />
    <glyph glyph-name="cacute" unicode="&#x107;" horiz-adv-x="540" 
d="M51 252q0 63 16 113t46 85t72 53.5t95 18.5q40 0 76.5 -10.5t66 -33t48 -57.5t22.5 -83h-125q-5 49 -30 68t-63 19t-66 -24.5t-28 -75.5v-140q0 -47 26.5 -73.5t68.5 -26.5t66 20t30 71h125q-5 -48 -23 -83t-47 -58.5t-66 -35t-79 -11.5q-57 0 -100 19.5t-72.5 54t-44 83
t-14.5 107.5zM283 695h140l-111 -122h-103z" />
    <glyph glyph-name="Ccircumflex" unicode="&#x108;" horiz-adv-x="645" 
d="M340 -15q-74 0 -127.5 26.5t-88.5 73.5t-52 111.5t-17 141.5q0 81 18 147t54 112.5t91 72t129 25.5q52 0 97 -15t78 -43.5t53 -69t23 -90.5h-130q-5 54 -38.5 81t-91.5 27q-31 0 -57.5 -10t-45.5 -28t-29.5 -44t-10.5 -58v-208q0 -31 11.5 -57t31.5 -45t46.5 -29.5
t57.5 -10.5q61 0 94 26.5t43 86.5h130q-8 -59 -31 -101t-58 -69t-81 -40t-99 -13zM299 747h-101l79 122h139l80 -122h-103l-47 58z" />
    <glyph glyph-name="ccircumflex" unicode="&#x109;" horiz-adv-x="540" 
d="M51 252q0 63 16 113t46 85t72 53.5t95 18.5q40 0 76.5 -10.5t66 -33t48 -57.5t22.5 -83h-125q-5 49 -30 68t-63 19t-66 -24.5t-28 -75.5v-140q0 -47 26.5 -73.5t68.5 -26.5t66 20t30 71h125q-5 -48 -23 -83t-47 -58.5t-66 -35t-79 -11.5q-57 0 -100 19.5t-72.5 54t-44 83
t-14.5 107.5zM232 573h-101l79 122h139l80 -122h-103l-47 58z" />
    <glyph glyph-name="Cdotaccent" unicode="&#x10a;" horiz-adv-x="645" 
d="M340 -15q-74 0 -127.5 26.5t-88.5 73.5t-52 111.5t-17 141.5q0 81 18 147t54 112.5t91 72t129 25.5q52 0 97 -15t78 -43.5t53 -69t23 -90.5h-130q-5 54 -38.5 81t-91.5 27q-31 0 -57.5 -10t-45.5 -28t-29.5 -44t-10.5 -58v-208q0 -31 11.5 -57t31.5 -45t46.5 -29.5
t57.5 -10.5q61 0 94 26.5t43 86.5h130q-8 -59 -31 -101t-58 -69t-81 -40t-99 -13zM406 761h-118v108h118v-108z" />
    <glyph glyph-name="cdotaccent" unicode="&#x10b;" horiz-adv-x="540" 
d="M51 252q0 63 16 113t46 85t72 53.5t95 18.5q40 0 76.5 -10.5t66 -33t48 -57.5t22.5 -83h-125q-5 49 -30 68t-63 19t-66 -24.5t-28 -75.5v-140q0 -47 26.5 -73.5t68.5 -26.5t66 20t30 71h125q-5 -48 -23 -83t-47 -58.5t-66 -35t-79 -11.5q-57 0 -100 19.5t-72.5 54t-44 83
t-14.5 107.5zM339 587h-118v108h118v-108z" />
    <glyph glyph-name="Ccaron" unicode="&#x10c;" horiz-adv-x="645" 
d="M340 -15q-74 0 -127.5 26.5t-88.5 73.5t-52 111.5t-17 141.5q0 81 18 147t54 112.5t91 72t129 25.5q52 0 97 -15t78 -43.5t53 -69t23 -90.5h-130q-5 54 -38.5 81t-91.5 27q-31 0 -57.5 -10t-45.5 -28t-29.5 -44t-10.5 -58v-208q0 -31 11.5 -57t31.5 -45t46.5 -29.5
t57.5 -10.5q61 0 94 26.5t43 86.5h130q-8 -59 -31 -101t-58 -69t-81 -40t-99 -13zM346 811l47 58h103l-80 -122h-139l-79 122h101z" />
    <glyph glyph-name="ccaron" unicode="&#x10d;" horiz-adv-x="540" 
d="M51 252q0 63 16 113t46 85t72 53.5t95 18.5q40 0 76.5 -10.5t66 -33t48 -57.5t22.5 -83h-125q-5 49 -30 68t-63 19t-66 -24.5t-28 -75.5v-140q0 -47 26.5 -73.5t68.5 -26.5t66 20t30 71h125q-5 -48 -23 -83t-47 -58.5t-66 -35t-79 -11.5q-57 0 -100 19.5t-72.5 54t-44 83
t-14.5 107.5zM279 637l47 58h103l-80 -122h-139l-79 122h101z" />
    <glyph glyph-name="Dcaron" unicode="&#x10e;" horiz-adv-x="672" 
d="M314 680q161 0 231.5 -84.5t70.5 -255.5t-70.5 -255.5t-231.5 -84.5h-230v680h230zM214 570v-460h100q81 0 124 32t43 100v196q0 68 -43 100t-124 32h-100zM313 811l47 58h103l-80 -122h-139l-79 122h101z" />
    <glyph glyph-name="dcaron" unicode="&#x10f;" horiz-adv-x="602" 
d="M401 0v69q-24 -38 -60 -59.5t-87 -21.5t-89 21t-63.5 57t-38 84.5t-12.5 104.5q0 55 12 104t37 85t63 57t89 21t88 -21.5t61 -59.5v239h125v-680h-125zM401 293q0 60 -27.5 96t-87.5 36q-49 0 -77 -27.5t-28 -70.5v-144q0 -43 28.5 -70.5t76.5 -27.5q60 0 87.5 36
t27.5 96v76zM603 680h117l-66 -152h-80z" />
    <glyph glyph-name="Dcroat" unicode="&#x110;" horiz-adv-x="691" 
d="M333 110q81 0 121.5 32t40.5 100v196q0 68 -40.5 100t-121.5 32h-100v-182h146v-96h-146v-182h100zM103 292h-72v96h72v292h230q161 0 231.5 -84.5t70.5 -255.5t-70.5 -255.5t-231.5 -84.5h-230v292z" />
    <glyph glyph-name="dcroat" unicode="&#x111;" horiz-adv-x="602" 
d="M401 0v69q-24 -38 -60 -59.5t-87 -21.5t-89 21t-63.5 57t-38 84.5t-12.5 104.5q0 55 12 104t37 85t63 57t89 21t88 -21.5t61 -59.5v112h-140v83h140v44h125v-44h103v-83h-103v-553h-125zM401 293q0 60 -27.5 96t-87.5 36q-49 0 -77 -27.5t-28 -70.5v-144
q0 -43 28.5 -70.5t76.5 -27.5q60 0 87.5 36t27.5 96v76z" />
    <glyph glyph-name="Emacron" unicode="&#x112;" horiz-adv-x="610" 
d="M84 680h468v-110h-338v-167h292v-110h-292v-183h338v-110h-468v680zM159 854h319v-79h-319v79z" />
    <glyph glyph-name="emacron" unicode="&#x113;" horiz-adv-x="560" 
d="M380 330q0 42 -28.5 68.5t-71.5 26.5t-71.5 -26.5t-28.5 -68.5v-18h200v18zM280 -12q-54 0 -97 19.5t-72.5 54.5t-45 84.5t-15.5 109.5t16.5 109t46.5 84t72.5 54t94.5 19t94 -18.5t72 -51t46 -77.5t16 -97v-63h-328v-34q0 -46 30 -71t71 -25t67 21.5t31 60.5h125
q-12 -85 -71.5 -132t-152.5 -47zM121 680h319v-79h-319v79z" />
    <glyph glyph-name="Ebreve" unicode="&#x114;" horiz-adv-x="610" 
d="M84 680h468v-110h-338v-167h292v-110h-292v-183h338v-110h-468v680zM253 869q0 -26 18 -42.5t47 -16.5t47 16.5t18 42.5h80q0 -30 -10.5 -55t-30 -42.5t-46 -27.5t-58.5 -10t-58.5 10t-46 27.5t-30 42.5t-10.5 55h80z" />
    <glyph glyph-name="ebreve" unicode="&#x115;" horiz-adv-x="560" 
d="M380 330q0 42 -28.5 68.5t-71.5 26.5t-71.5 -26.5t-28.5 -68.5v-18h200v18zM280 -12q-54 0 -97 19.5t-72.5 54.5t-45 84.5t-15.5 109.5t16.5 109t46.5 84t72.5 54t94.5 19t94 -18.5t72 -51t46 -77.5t16 -97v-63h-328v-34q0 -46 30 -71t71 -25t67 21.5t31 60.5h125
q-12 -85 -71.5 -132t-152.5 -47zM215 695q0 -26 18 -42.5t47 -16.5t47 16.5t18 42.5h80q0 -30 -10.5 -55t-30 -42.5t-46 -27.5t-58.5 -10t-58.5 10t-46 27.5t-30 42.5t-10.5 55h80z" />
    <glyph glyph-name="Edotaccent" unicode="&#x116;" horiz-adv-x="610" 
d="M84 680h468v-110h-338v-167h292v-110h-292v-183h338v-110h-468v680zM377 761h-118v108h118v-108z" />
    <glyph glyph-name="edotaccent" unicode="&#x117;" horiz-adv-x="560" 
d="M380 330q0 42 -28.5 68.5t-71.5 26.5t-71.5 -26.5t-28.5 -68.5v-18h200v18zM280 -12q-54 0 -97 19.5t-72.5 54.5t-45 84.5t-15.5 109.5t16.5 109t46.5 84t72.5 54t94.5 19t94 -18.5t72 -51t46 -77.5t16 -97v-63h-328v-34q0 -46 30 -71t71 -25t67 21.5t31 60.5h125
q-12 -85 -71.5 -132t-152.5 -47zM339 587h-118v108h118v-108z" />
    <glyph glyph-name="Eogonek" unicode="&#x118;" horiz-adv-x="610" 
d="M84 680h468v-110h-338v-167h292v-110h-292v-183h338v-110h-468v680zM552 -170h-164v75l74 65h79l-69 -65h80v-75z" />
    <glyph glyph-name="eogonek" unicode="&#x119;" horiz-adv-x="560" 
d="M380 330q0 42 -28.5 68.5t-71.5 26.5t-71.5 -26.5t-28.5 -68.5v-18h200v18zM280 -12q-54 0 -97 19.5t-72.5 54.5t-45 84.5t-15.5 109.5t16.5 109t46.5 84t72.5 54t94.5 19t94 -18.5t72 -51t46 -77.5t16 -97v-63h-328v-34q0 -46 30 -71t71 -25t67 21.5t31 60.5h125
q-12 -85 -71.5 -132t-152.5 -47zM381 -170h-164v75l74 65h79l-69 -65h80v-75z" />
    <glyph glyph-name="Ecaron" unicode="&#x11a;" horiz-adv-x="610" 
d="M84 680h468v-110h-338v-167h292v-110h-292v-183h338v-110h-468v680zM317 811l47 58h103l-80 -122h-139l-79 122h101z" />
    <glyph glyph-name="ecaron" unicode="&#x11b;" horiz-adv-x="560" 
d="M380 330q0 42 -28.5 68.5t-71.5 26.5t-71.5 -26.5t-28.5 -68.5v-18h200v18zM280 -12q-54 0 -97 19.5t-72.5 54.5t-45 84.5t-15.5 109.5t16.5 109t46.5 84t72.5 54t94.5 19t94 -18.5t72 -51t46 -77.5t16 -97v-63h-328v-34q0 -46 30 -71t71 -25t67 21.5t31 60.5h125
q-12 -85 -71.5 -132t-152.5 -47zM279 637l47 58h103l-80 -122h-139l-79 122h101z" />
    <glyph glyph-name="Gcircumflex" unicode="&#x11c;" horiz-adv-x="691" 
d="M332 -15q-69 0 -121 26.5t-86.5 73.5t-52 111.5t-17.5 141.5q0 81 18 147t54.5 112.5t92.5 72t132 25.5q54 0 99.5 -15t79 -43.5t54 -69t23.5 -90.5h-130q-11 108 -135 108q-66 0 -107 -38t-41 -102v-208q0 -31 11.5 -57t31.5 -45t47 -29.5t59 -10.5q66 0 105.5 33
t39.5 104v29h-140v110h270v-371h-121l-3 62q-52 -77 -163 -77zM304 747h-101l79 122h139l80 -122h-103l-47 58z" />
    <glyph glyph-name="gcircumflex" unicode="&#x11d;" horiz-adv-x="602" 
d="M296 -195q-45 0 -84 8.5t-69 27.5t-49 49.5t-25 74.5h125q6 -30 27 -46.5t65 -16.5q22 0 43 4.5t37 17t25.5 34.5t9.5 56v55q-24 -38 -60 -59.5t-87 -21.5t-89 21t-63.5 57t-38 84.5t-12.5 104.5q0 55 12 104t37 85t63 57t89 21t88 -21.5t61 -59.5v69h125v-502
q0 -52 -19 -90t-51 -63t-73.5 -37.5t-86.5 -12.5zM401 293q0 60 -27.5 96t-87.5 36q-49 0 -77 -27.5t-28 -70.5v-144q0 -43 28.5 -70.5t76.5 -27.5q60 0 87.5 36t27.5 96v76zM240 573h-101l79 122h139l80 -122h-103l-47 58z" />
    <glyph glyph-name="Gbreve" unicode="&#x11e;" horiz-adv-x="691" 
d="M332 -15q-69 0 -121 26.5t-86.5 73.5t-52 111.5t-17.5 141.5q0 81 18 147t54.5 112.5t92.5 72t132 25.5q54 0 99.5 -15t79 -43.5t54 -69t23.5 -90.5h-130q-11 108 -135 108q-66 0 -107 -38t-41 -102v-208q0 -31 11.5 -57t31.5 -45t47 -29.5t59 -10.5q66 0 105.5 33
t39.5 104v29h-140v110h270v-371h-121l-3 62q-52 -77 -163 -77zM287 869q0 -26 18 -42.5t47 -16.5t47 16.5t18 42.5h80q0 -30 -10.5 -55t-30 -42.5t-46 -27.5t-58.5 -10t-58.5 10t-46 27.5t-30 42.5t-10.5 55h80z" />
    <glyph glyph-name="gbreve" unicode="&#x11f;" horiz-adv-x="602" 
d="M296 -195q-45 0 -84 8.5t-69 27.5t-49 49.5t-25 74.5h125q6 -30 27 -46.5t65 -16.5q22 0 43 4.5t37 17t25.5 34.5t9.5 56v55q-24 -38 -60 -59.5t-87 -21.5t-89 21t-63.5 57t-38 84.5t-12.5 104.5q0 55 12 104t37 85t63 57t89 21t88 -21.5t61 -59.5v69h125v-502
q0 -52 -19 -90t-51 -63t-73.5 -37.5t-86.5 -12.5zM401 293q0 60 -27.5 96t-87.5 36q-49 0 -77 -27.5t-28 -70.5v-144q0 -43 28.5 -70.5t76.5 -27.5q60 0 87.5 36t27.5 96v76zM223 695q0 -26 18 -42.5t47 -16.5t47 16.5t18 42.5h80q0 -30 -10.5 -55t-30 -42.5t-46 -27.5
t-58.5 -10t-58.5 10t-46 27.5t-30 42.5t-10.5 55h80z" />
    <glyph glyph-name="Gdotaccent" unicode="&#x120;" horiz-adv-x="691" 
d="M332 -15q-69 0 -121 26.5t-86.5 73.5t-52 111.5t-17.5 141.5q0 81 18 147t54.5 112.5t92.5 72t132 25.5q54 0 99.5 -15t79 -43.5t54 -69t23.5 -90.5h-130q-11 108 -135 108q-66 0 -107 -38t-41 -102v-208q0 -31 11.5 -57t31.5 -45t47 -29.5t59 -10.5q66 0 105.5 33
t39.5 104v29h-140v110h270v-371h-121l-3 62q-52 -77 -163 -77zM411 761h-118v108h118v-108z" />
    <glyph glyph-name="gdotaccent" unicode="&#x121;" horiz-adv-x="602" 
d="M296 -195q-45 0 -84 8.5t-69 27.5t-49 49.5t-25 74.5h125q6 -30 27 -46.5t65 -16.5q22 0 43 4.5t37 17t25.5 34.5t9.5 56v55q-24 -38 -60 -59.5t-87 -21.5t-89 21t-63.5 57t-38 84.5t-12.5 104.5q0 55 12 104t37 85t63 57t89 21t88 -21.5t61 -59.5v69h125v-502
q0 -52 -19 -90t-51 -63t-73.5 -37.5t-86.5 -12.5zM401 293q0 60 -27.5 96t-87.5 36q-49 0 -77 -27.5t-28 -70.5v-144q0 -43 28.5 -70.5t76.5 -27.5q60 0 87.5 36t27.5 96v76zM347 587h-118v108h118v-108z" />
    <glyph glyph-name="uni0122" unicode="&#x122;" horiz-adv-x="691" 
d="M332 -15q-69 0 -121 26.5t-86.5 73.5t-52 111.5t-17.5 141.5q0 81 18 147t54.5 112.5t92.5 72t132 25.5q54 0 99.5 -15t79 -43.5t54 -69t23.5 -90.5h-130q-11 108 -135 108q-66 0 -107 -38t-41 -102v-208q0 -31 11.5 -57t31.5 -45t47 -29.5t59 -10.5q66 0 105.5 33
t39.5 104v29h-140v110h270v-371h-121l-3 62q-52 -77 -163 -77zM386 -157l-53 -94h-47l50 94h-63v112h113v-112z" />
    <glyph glyph-name="uni0123" unicode="&#x123;" horiz-adv-x="602" 
d="M296 -195q-45 0 -84 8.5t-69 27.5t-49 49.5t-25 74.5h125q6 -30 27 -46.5t65 -16.5q22 0 43 4.5t37 17t25.5 34.5t9.5 56v55q-24 -38 -60 -59.5t-87 -21.5t-89 21t-63.5 57t-38 84.5t-12.5 104.5q0 55 12 104t37 85t63 57t89 21t88 -21.5t61 -59.5v69h125v-502
q0 -52 -19 -90t-51 -63t-73.5 -37.5t-86.5 -12.5zM401 293q0 60 -27.5 96t-87.5 36q-49 0 -77 -27.5t-28 -70.5v-144q0 -43 28.5 -70.5t76.5 -27.5q60 0 87.5 36t27.5 96v76zM230 701l54 96h48l-51 -96h64v-114h-115v114z" />
    <glyph glyph-name="Hcircumflex" unicode="&#x124;" horiz-adv-x="699" 
d="M485 291h-271v-291h-130v680h130v-279h271v279h130v-680h-130v291zM301 747h-101l79 122h139l80 -122h-103l-47 58z" />
    <glyph glyph-name="hcircumflex" unicode="&#x125;" horiz-adv-x="591" 
d="M76 0v680h125v-244q23 41 60 63.5t91 22.5q86 0 126.5 -50t40.5 -138v-334h-125v325q0 45 -19 70t-64 25q-52 0 -81 -34.5t-29 -90.5v-295h-125zM249 747h-101l79 122h139l80 -122h-103l-47 58z" />
    <glyph glyph-name="Hbar" unicode="&#x126;" horiz-adv-x="746" 
d="M35 573h72v107h130v-107h271v107h130v-107h73v-96h-73v-477h-130v291h-271v-291h-130v477h-72v96zM508 401v76h-271v-76h271z" />
    <glyph glyph-name="hbar" unicode="&#x127;" horiz-adv-x="591" 
d="M76 553h-103v83h103v44h125v-44h140v-83h-140v-117q23 41 60 63.5t91 22.5q86 0 126.5 -50t40.5 -138v-334h-125v325q0 45 -19 70t-64 25q-52 0 -81 -34.5t-29 -90.5v-295h-125v553z" />
    <glyph glyph-name="Itilde" unicode="&#x128;" horiz-adv-x="298" 
d="M84 680h130v-680h-130v680zM315 861q0 -49 -24.5 -81t-74.5 -32q-19 0 -37.5 7t-35 15t-31.5 15t-26 7q-32 0 -32 -36h-70q0 49 24.5 81t74.5 32q19 0 37.5 -7t35 -15t31.5 -15t26 -7q32 0 32 36h70z" />
    <glyph glyph-name="itilde" unicode="&#x129;" horiz-adv-x="277" 
d="M76 0v510h125v-510h-125zM304 687q0 -49 -24.5 -81t-74.5 -32q-19 0 -37.5 7t-35 15t-31.5 15t-26 7q-32 0 -32 -36h-70q0 49 24.5 81t74.5 32q19 0 37.5 -7t35 -15t31.5 -15t26 -7q32 0 32 36h70z" />
    <glyph glyph-name="Imacron" unicode="&#x12a;" horiz-adv-x="298" 
d="M84 680h130v-680h-130v680zM-10 854h319v-79h-319v79z" />
    <glyph glyph-name="imacron" unicode="&#x12b;" horiz-adv-x="277" 
d="M76 0v510h125v-510h-125zM-21 680h319v-79h-319v79z" />
    <glyph glyph-name="Ibreve" unicode="&#x12c;" horiz-adv-x="298" 
d="M84 680h130v-680h-130v680zM84 869q0 -26 18 -42.5t47 -16.5t47 16.5t18 42.5h80q0 -30 -10.5 -55t-30 -42.5t-46 -27.5t-58.5 -10t-58.5 10t-46 27.5t-30 42.5t-10.5 55h80z" />
    <glyph glyph-name="ibreve" unicode="&#x12d;" horiz-adv-x="277" 
d="M76 0v510h125v-510h-125zM73 695q0 -26 18 -42.5t47 -16.5t47 16.5t18 42.5h80q0 -30 -10.5 -55t-30 -42.5t-46 -27.5t-58.5 -10t-58.5 10t-46 27.5t-30 42.5t-10.5 55h80z" />
    <glyph glyph-name="Iogonek" unicode="&#x12e;" horiz-adv-x="298" 
d="M84 680h130v-680h-130v680zM225 -170h-164v75l74 65h79l-69 -65h80v-75z" />
    <glyph glyph-name="iogonek" unicode="&#x12f;" horiz-adv-x="277" 
d="M76 0v510h125v-510h-125zM203 569h-129v111h129v-111zM211 -170h-164v75l74 65h79l-69 -65h80v-75z" />
    <glyph glyph-name="Idotaccent" unicode="&#x130;" horiz-adv-x="298" 
d="M84 680h130v-680h-130v680zM208 761h-118v108h118v-108z" />
    <glyph glyph-name="dotlessi" unicode="&#x131;" horiz-adv-x="277" 
d="M76 0v510h125v-510h-125z" />
    <glyph glyph-name="IJ" unicode="&#x132;" horiz-adv-x="720" 
d="M84 680h130v-680h-130v680zM636 0h-339v110h209v570h130v-680z" />
    <glyph glyph-name="ij" unicode="&#x133;" horiz-adv-x="568" 
d="M76 0v510h125v-510h-125zM203 569h-129v111h129v-111zM367 510h125v-680h-263v97h138v583zM494 569h-129v111h129v-111z" />
    <glyph glyph-name="Jcircumflex" unicode="&#x134;" horiz-adv-x="443" 
d="M359 0h-339v110h209v570h130v-680zM246 747h-101l79 122h139l80 -122h-103l-47 58z" />
    <glyph glyph-name="jcircumflex" unicode="&#x135;" horiz-adv-x="289" 
d="M88 510h125v-680h-263v97h138v583zM102 573h-101l79 122h139l80 -122h-103l-47 58z" />
    <glyph glyph-name="uni0136" unicode="&#x136;" horiz-adv-x="636" 
d="M216 363l245 317h153l-255 -317l269 -363h-150zM214 0h-130v680h130v-680zM400 -157l-53 -94h-47l50 94h-63v112h113v-112z" />
    <glyph glyph-name="uni0137" unicode="&#x137;" horiz-adv-x="546" 
d="M203 280l171 230h148l-182 -230l198 -280h-139zM201 0h-125v680h125v-680zM361 -157l-53 -94h-47l50 94h-63v112h113v-112z" />
    <glyph glyph-name="kgreenlandic" unicode="&#x138;" horiz-adv-x="546" 
d="M203 280l171 230h148l-182 -230l198 -280h-139zM201 0h-125v510h125v-510z" />
    <glyph glyph-name="Lacute" unicode="&#x139;" horiz-adv-x="522" 
d="M84 680h130v-570h288v-110h-418v680zM161 869h140l-111 -122h-103z" />
    <glyph glyph-name="lacute" unicode="&#x13a;" horiz-adv-x="277" 
d="M76 0v680h125v-680h-125zM150 869h140l-111 -122h-103z" />
    <glyph glyph-name="uni013B" unicode="&#x13b;" horiz-adv-x="522" 
d="M84 680h130v-570h288v-110h-418v680zM347 -157l-53 -94h-47l50 94h-63v112h113v-112z" />
    <glyph glyph-name="uni013C" unicode="&#x13c;" horiz-adv-x="277" 
d="M76 0v680h125v-680h-125zM195 -157l-53 -94h-47l50 94h-63v112h113v-112z" />
    <glyph glyph-name="Lcaron" unicode="&#x13d;" horiz-adv-x="526" 
d="M84 680h130v-570h288v-110h-418v680zM338 680h117l-66 -152h-80z" />
    <glyph glyph-name="lcaron" unicode="&#x13e;" horiz-adv-x="277" 
d="M76 0v680h125v-680h-125zM287 680h117l-66 -152h-80z" />
    <glyph glyph-name="Ldot" unicode="&#x13f;" horiz-adv-x="528" 
d="M84 680h130v-570h288v-110h-418v680zM451 332h-118v108h118v-108z" />
    <glyph glyph-name="ldot" unicode="&#x140;" horiz-adv-x="331" 
d="M76 0v680h125v-680h-125zM363 317h-118v108h118v-108z" />
    <glyph glyph-name="Lslash" unicode="&#x141;" horiz-adv-x="580" 
d="M141 233l-106 -62v107l106 62v340h130v-265l162 95v-107l-162 -95v-198h288v-110h-418v233z" />
    <glyph glyph-name="lslash" unicode="&#x142;" horiz-adv-x="378" 
d="M257 335v-335h-125v282l-86 -50v103l86 50v295h125v-242l86 50v-103z" />
    <glyph glyph-name="Nacute" unicode="&#x143;" horiz-adv-x="699" 
d="M486 162v518h129v-680h-195l-203 519h-4v-519h-129v680h195l203 -518h4zM335 869h140l-111 -122h-103z" />
    <glyph glyph-name="nacute" unicode="&#x144;" horiz-adv-x="591" 
d="M394 325q0 45 -19 70t-64 25q-52 0 -81 -34.5t-29 -90.5v-295h-125v510h125v-74q23 41 60 63.5t91 22.5q86 0 126.5 -50t40.5 -138v-334h-125v325zM300 695h140l-111 -122h-103z" />
    <glyph glyph-name="uni0145" unicode="&#x145;" horiz-adv-x="699" 
d="M486 162v518h129v-680h-195l-203 519h-4v-519h-129v680h195l203 -518h4zM403 -157l-53 -94h-47l50 94h-63v112h113v-112z" />
    <glyph glyph-name="uni0146" unicode="&#x146;" horiz-adv-x="591" 
d="M394 325q0 45 -19 70t-64 25q-52 0 -81 -34.5t-29 -90.5v-295h-125v510h125v-74q23 41 60 63.5t91 22.5q86 0 126.5 -50t40.5 -138v-334h-125v325zM351 -157l-53 -94h-47l50 94h-63v112h113v-112z" />
    <glyph glyph-name="Ncaron" unicode="&#x147;" horiz-adv-x="699" 
d="M486 162v518h129v-680h-195l-203 519h-4v-519h-129v680h195l203 -518h4zM348 811l47 58h103l-80 -122h-139l-79 122h101z" />
    <glyph glyph-name="ncaron" unicode="&#x148;" horiz-adv-x="591" 
d="M394 325q0 45 -19 70t-64 25q-52 0 -81 -34.5t-29 -90.5v-295h-125v510h125v-74q23 41 60 63.5t91 22.5q86 0 126.5 -50t40.5 -138v-334h-125v325zM296 637l47 58h103l-80 -122h-139l-79 122h101z" />
    <glyph glyph-name="napostrophe" unicode="&#x149;" horiz-adv-x="636" 
d="M439 325q0 45 -19 70t-64 25q-52 0 -81 -34.5t-29 -90.5v-295h-125v510h125v-74q23 41 60 63.5t91 22.5q86 0 126.5 -50t40.5 -138v-334h-125v325zM114 573l-53 -94h-47l50 94h-63v112h113v-112z" />
    <glyph glyph-name="Eng" unicode="&#x14a;" horiz-adv-x="699" 
d="M84 680h130l268 -445h4v445h129v-850h-289v110h159v60l-268 446h-4v-446h-129v680z" />
    <glyph glyph-name="eng" unicode="&#x14b;" horiz-adv-x="591" 
d="M519 -170h-263v97h138v398q0 45 -19 70t-64 25q-52 0 -81 -34.5t-29 -90.5v-295h-125v510h125v-74q23 41 60 63.5t91 22.5q86 0 126.5 -50t40.5 -138v-504z" />
    <glyph glyph-name="Omacron" unicode="&#x14c;" horiz-adv-x="716" 
d="M661 340q0 -175 -79 -265t-224 -90t-224 90t-79 265t79 265t224 90t224 -90t79 -265zM358 95q34 0 63.5 9t51.5 27t35 44t13 60v210q0 34 -13 60t-35 44t-51.5 27t-63.5 9t-63.5 -9t-51.5 -27t-35 -44t-13 -60v-210q0 -34 13 -60t35 -44t51.5 -27t63.5 -9zM200 854h319
v-79h-319v79z" />
    <glyph glyph-name="omacron" unicode="&#x14d;" horiz-adv-x="578" 
d="M398 329q0 47 -31 71.5t-78 24.5t-78 -25t-31 -71v-148q0 -46 31 -71t78 -25t78 24.5t31 71.5v148zM289 -12q-57 0 -101.5 19t-75 54.5t-46.5 84.5t-16 109t16 109t46.5 84.5t75 54.5t101.5 19t101.5 -19t75 -54.5t46.5 -84.5t16 -109t-16 -109t-46.5 -84.5t-75 -54.5
t-101.5 -19zM130 680h319v-79h-319v79z" />
    <glyph glyph-name="Obreve" unicode="&#x14e;" horiz-adv-x="716" 
d="M661 340q0 -175 -79 -265t-224 -90t-224 90t-79 265t79 265t224 90t224 -90t79 -265zM358 95q34 0 63.5 9t51.5 27t35 44t13 60v210q0 34 -13 60t-35 44t-51.5 27t-63.5 9t-63.5 -9t-51.5 -27t-35 -44t-13 -60v-210q0 -34 13 -60t35 -44t51.5 -27t63.5 -9zM290 869
q0 -26 18 -42.5t47 -16.5t47 16.5t18 42.5h80q0 -30 -10.5 -55t-30 -42.5t-46 -27.5t-58.5 -10t-58.5 10t-46 27.5t-30 42.5t-10.5 55h80z" />
    <glyph glyph-name="obreve" unicode="&#x14f;" horiz-adv-x="578" 
d="M398 329q0 47 -31 71.5t-78 24.5t-78 -25t-31 -71v-148q0 -46 31 -71t78 -25t78 24.5t31 71.5v148zM289 -12q-57 0 -101.5 19t-75 54.5t-46.5 84.5t-16 109t16 109t46.5 84.5t75 54.5t101.5 19t101.5 -19t75 -54.5t46.5 -84.5t16 -109t-16 -109t-46.5 -84.5t-75 -54.5
t-101.5 -19zM224 695q0 -26 18 -42.5t47 -16.5t47 16.5t18 42.5h80q0 -30 -10.5 -55t-30 -42.5t-46 -27.5t-58.5 -10t-58.5 10t-46 27.5t-30 42.5t-10.5 55h80z" />
    <glyph glyph-name="Ohungarumlaut" unicode="&#x150;" horiz-adv-x="716" 
d="M661 340q0 -175 -79 -265t-224 -90t-224 90t-79 265t79 265t224 90t224 -90t79 -265zM358 95q34 0 63.5 9t51.5 27t35 44t13 60v210q0 34 -13 60t-35 44t-51.5 27t-63.5 9t-63.5 -9t-51.5 -27t-35 -44t-13 -60v-210q0 -34 13 -60t35 -44t51.5 -27t63.5 -9zM285 869h140
l-106 -122h-103zM478 869h140l-106 -122h-103z" />
    <glyph glyph-name="ohungarumlaut" unicode="&#x151;" horiz-adv-x="578" 
d="M398 329q0 47 -31 71.5t-78 24.5t-78 -25t-31 -71v-148q0 -46 31 -71t78 -25t78 24.5t31 71.5v148zM289 -12q-57 0 -101.5 19t-75 54.5t-46.5 84.5t-16 109t16 109t46.5 84.5t75 54.5t101.5 19t101.5 -19t75 -54.5t46.5 -84.5t16 -109t-16 -109t-46.5 -84.5t-75 -54.5
t-101.5 -19zM210 695h140l-106 -122h-103zM403 695h140l-106 -122h-103z" />
    <glyph glyph-name="OE" unicode="&#x152;" horiz-adv-x="1047" 
d="M358 -15q-145 0 -224 90t-79 265t79 265t224 90q95 0 163 -43v28h468v-110h-338v-167h292v-110h-292v-183h338v-110h-468v28q-68 -43 -163 -43zM358 95q34 0 63.5 9t51.5 27t35 44t13 60v210q0 34 -13 60t-35 44t-51.5 27t-63.5 9t-63.5 -9t-51.5 -27t-35 -44t-13 -60
v-210q0 -34 13 -60t35 -44t51.5 -27t63.5 -9z" />
    <glyph glyph-name="oe" unicode="&#x153;" horiz-adv-x="918" 
d="M638 -12q-55 0 -98 20t-73 57q-30 -37 -75 -57t-103 -20q-57 0 -101.5 19t-75 54.5t-46.5 84.5t-16 109t16 109t46.5 84.5t75 54.5t101.5 19q59 0 104.5 -20t75.5 -58q31 38 73 58t96 20q52 0 94 -18.5t72 -51t46 -77.5t16 -97v-63h-328v-34q0 -46 30 -71t71 -25t67 21.5
t31 60.5h125q-12 -85 -71.5 -132t-152.5 -47zM398 329q0 47 -31 71.5t-78 24.5t-78 -25t-31 -71v-148q0 -46 31 -71t78 -25t78 24.5t31 71.5v148zM638 425q-43 0 -71.5 -26.5t-28.5 -68.5v-18h200v18q0 42 -28.5 68.5t-71.5 26.5z" />
    <glyph glyph-name="Racute" unicode="&#x154;" horiz-adv-x="632" 
d="M214 261v-261h-130v680h277q108 0 161 -52q52 -51 52 -158q0 -79 -39 -130q-36 -48 -107 -68l156 -272h-144l-143 261h-83zM378 368q61 0 61 68v70q0 34 -13.5 49t-47.5 15h-164v-202h164zM326 870h140l-111 -122h-103z" />
    <glyph glyph-name="racute" unicode="&#x155;" horiz-adv-x="386" 
d="M76 510h285v-98h-160v-412h-125v510zM221 695h140l-111 -122h-103z" />
    <glyph glyph-name="uni0156" unicode="&#x156;" horiz-adv-x="632" 
d="M214 261v-261h-130v680h277q108 0 161 -52q52 -51 52 -158q0 -79 -39 -130q-36 -48 -107 -68l156 -272h-144l-143 261h-83zM378 368q61 0 61 68v70q0 34 -13.5 49t-47.5 15h-164v-202h164zM380 -157l-53 -94h-47l50 94h-63v112h113v-112z" />
    <glyph glyph-name="uni0157" unicode="&#x157;" horiz-adv-x="386" 
d="M76 510h285v-98h-160v-412h-125v510zM195 -157l-53 -94h-47l50 94h-63v112h113v-112z" />
    <glyph glyph-name="Rcaron" unicode="&#x158;" horiz-adv-x="632" 
d="M214 261v-261h-130v680h277q108 0 161 -52q52 -51 52 -158q0 -79 -39 -130q-36 -48 -107 -68l156 -272h-144l-143 261h-83zM378 368q61 0 61 68v70q0 34 -13.5 49t-47.5 15h-164v-202h164zM303 812l47 58h103l-80 -122h-139l-79 122h101z" />
    <glyph glyph-name="rcaron" unicode="&#x159;" horiz-adv-x="386" 
d="M76 510h285v-98h-160v-412h-125v510zM217 637l47 58h103l-80 -122h-139l-79 122h101z" />
    <glyph glyph-name="Sacute" unicode="&#x15a;" horiz-adv-x="625" 
d="M307 588q-54 0 -85 -21.5t-31 -58.5q0 -39 24 -59.5t73 -33.5l116 -30q87 -23 131.5 -69.5t44.5 -130.5q0 -47 -19 -84t-54 -63t-83.5 -39.5t-106.5 -13.5q-57 0 -105.5 12t-85 38t-59 67.5t-26.5 100.5h130q8 -60 46 -85.5t98 -25.5q57 0 96 23.5t39 68.5
q0 36 -22.5 57.5t-68.5 33.5l-133 35q-84 22 -124.5 72t-40.5 125q0 41 17.5 75.5t49.5 59.5t78 39t103 14q52 0 96.5 -12t77.5 -37t54 -64t26 -92h-130q-3 28 -14.5 47t-28.5 30.5t-38.5 16t-44.5 4.5zM311 869h140l-111 -122h-103z" />
    <glyph glyph-name="sacute" unicode="&#x15b;" horiz-adv-x="514" 
d="M260 -12q-102 0 -157.5 45t-59.5 129h125q8 -77 92 -77q36 0 61.5 13.5t25.5 42.5q0 28 -21 40.5t-55 19.5l-88 19q-128 28 -128 146q0 33 13.5 61.5t39 49.5t62 33t83.5 12q87 0 142.5 -42t59.5 -127h-125q-2 36 -23 54t-54 18q-32 0 -52.5 -14t-20.5 -39t15.5 -37
t40.5 -17l101 -22q28 -6 53 -17.5t43 -29.5t28.5 -43t10.5 -59q0 -33 -14 -62t-41 -50.5t-66.5 -34t-90.5 -12.5zM252 695h140l-111 -122h-103z" />
    <glyph glyph-name="Scircumflex" unicode="&#x15c;" horiz-adv-x="625" 
d="M307 588q-54 0 -85 -21.5t-31 -58.5q0 -39 24 -59.5t73 -33.5l116 -30q87 -23 131.5 -69.5t44.5 -130.5q0 -47 -19 -84t-54 -63t-83.5 -39.5t-106.5 -13.5q-57 0 -105.5 12t-85 38t-59 67.5t-26.5 100.5h130q8 -60 46 -85.5t98 -25.5q57 0 96 23.5t39 68.5
q0 36 -22.5 57.5t-68.5 33.5l-133 35q-84 22 -124.5 72t-40.5 125q0 41 17.5 75.5t49.5 59.5t78 39t103 14q52 0 96.5 -12t77.5 -37t54 -64t26 -92h-130q-3 28 -14.5 47t-28.5 30.5t-38.5 16t-44.5 4.5zM263 747h-101l79 122h139l80 -122h-103l-47 58z" />
    <glyph glyph-name="scircumflex" unicode="&#x15d;" horiz-adv-x="514" 
d="M260 -12q-102 0 -157.5 45t-59.5 129h125q8 -77 92 -77q36 0 61.5 13.5t25.5 42.5q0 28 -21 40.5t-55 19.5l-88 19q-128 28 -128 146q0 33 13.5 61.5t39 49.5t62 33t83.5 12q87 0 142.5 -42t59.5 -127h-125q-2 36 -23 54t-54 18q-32 0 -52.5 -14t-20.5 -39t15.5 -37
t40.5 -17l101 -22q28 -6 53 -17.5t43 -29.5t28.5 -43t10.5 -59q0 -33 -14 -62t-41 -50.5t-66.5 -34t-90.5 -12.5zM205 573h-101l79 122h139l80 -122h-103l-47 58z" />
    <glyph glyph-name="Scedilla" unicode="&#x15e;" horiz-adv-x="625" 
d="M307 588q-54 0 -85 -21.5t-31 -58.5q0 -39 24 -59.5t73 -33.5l116 -30q87 -23 131.5 -69.5t44.5 -130.5q0 -47 -19 -84t-54 -63t-83.5 -39.5t-106.5 -13.5q-57 0 -105.5 12t-85 38t-59 67.5t-26.5 100.5h130q8 -60 46 -85.5t98 -25.5q57 0 96 23.5t39 68.5
q0 36 -22.5 57.5t-68.5 33.5l-133 35q-84 22 -124.5 72t-40.5 125q0 41 17.5 75.5t49.5 59.5t78 39t103 14q52 0 96.5 -12t77.5 -37t54 -64t26 -92h-130q-3 28 -14.5 47t-28.5 30.5t-38.5 16t-44.5 4.5zM199 -94h76v62h85v-137h-161v75z" />
    <glyph glyph-name="scedilla" unicode="&#x15f;" horiz-adv-x="514" 
d="M260 -12q-102 0 -157.5 45t-59.5 129h125q8 -77 92 -77q36 0 61.5 13.5t25.5 42.5q0 28 -21 40.5t-55 19.5l-88 19q-128 28 -128 146q0 33 13.5 61.5t39 49.5t62 33t83.5 12q87 0 142.5 -42t59.5 -127h-125q-2 36 -23 54t-54 18q-32 0 -52.5 -14t-20.5 -39t15.5 -37
t40.5 -17l101 -22q28 -6 53 -17.5t43 -29.5t28.5 -43t10.5 -59q0 -33 -14 -62t-41 -50.5t-66.5 -34t-90.5 -12.5zM142 -95h76v62h85v-137h-161v75z" />
    <glyph glyph-name="Scaron" unicode="&#x160;" horiz-adv-x="625" 
d="M307 588q-54 0 -85 -21.5t-31 -58.5q0 -39 24 -59.5t73 -33.5l116 -30q87 -23 131.5 -69.5t44.5 -130.5q0 -47 -19 -84t-54 -63t-83.5 -39.5t-106.5 -13.5q-57 0 -105.5 12t-85 38t-59 67.5t-26.5 100.5h130q8 -60 46 -85.5t98 -25.5q57 0 96 23.5t39 68.5
q0 36 -22.5 57.5t-68.5 33.5l-133 35q-84 22 -124.5 72t-40.5 125q0 41 17.5 75.5t49.5 59.5t78 39t103 14q52 0 96.5 -12t77.5 -37t54 -64t26 -92h-130q-3 28 -14.5 47t-28.5 30.5t-38.5 16t-44.5 4.5zM310 811l47 58h103l-80 -122h-139l-79 122h101z" />
    <glyph glyph-name="scaron" unicode="&#x161;" horiz-adv-x="514" 
d="M260 -12q-102 0 -157.5 45t-59.5 129h125q8 -77 92 -77q36 0 61.5 13.5t25.5 42.5q0 28 -21 40.5t-55 19.5l-88 19q-128 28 -128 146q0 33 13.5 61.5t39 49.5t62 33t83.5 12q87 0 142.5 -42t59.5 -127h-125q-2 36 -23 54t-54 18q-32 0 -52.5 -14t-20.5 -39t15.5 -37
t40.5 -17l101 -22q28 -6 53 -17.5t43 -29.5t28.5 -43t10.5 -59q0 -33 -14 -62t-41 -50.5t-66.5 -34t-90.5 -12.5zM252 637l47 58h103l-80 -122h-139l-79 122h101z" />
    <glyph glyph-name="uni0162" unicode="&#x162;" horiz-adv-x="566" 
d="M20 680h526v-110h-198v-570h-130v570h-198v110zM164 -94h76v62h85v-137h-161v75z" />
    <glyph glyph-name="uni0163" unicode="&#x163;" horiz-adv-x="422" 
d="M129 413h-101v97h101v170h125v-170h127v-97h-127v-316h127v-97h-252v413zM137 -95h76v62h85v-137h-161v75z" />
    <glyph glyph-name="Tcaron" unicode="&#x164;" horiz-adv-x="566" 
d="M20 680h526v-110h-198v-570h-130v570h-198v110zM282 811l47 58h103l-80 -122h-139l-79 122h101z" />
    <glyph glyph-name="tcaron" unicode="&#x165;" horiz-adv-x="422" 
d="M129 413h-101v97h101v170h125v-170h127v-97h-127v-316h127v-97h-252v413zM349 730h117l-66 -152h-80z" />
    <glyph glyph-name="Tbar" unicode="&#x166;" horiz-adv-x="596" 
d="M84 376h149v194h-198v110h526v-110h-198v-194h148v-96h-148v-280h-130v280h-149v96z" />
    <glyph glyph-name="tbar" unicode="&#x167;" horiz-adv-x="436" 
d="M139 216h-101v79h101v118h-101v97h101v170h125v-170h127v-97h-127v-118h127v-79h-127v-119h127v-97h-252v216z" />
    <glyph glyph-name="Utilde" unicode="&#x168;" horiz-adv-x="688" 
d="M481 680h129v-438q0 -59 -18.5 -106.5t-53 -81t-83.5 -51.5t-111 -18t-111 18t-83.5 51t-53 80.5t-18.5 107.5v438h130v-443q0 -66 34 -104t102 -38q69 0 103 37.5t34 104.5v443zM510 861q0 -49 -24.5 -81t-74.5 -32q-19 0 -37.5 7t-35 15t-31.5 15t-26 7q-32 0 -32 -36
h-70q0 49 24.5 81t74.5 32q19 0 37.5 -7t35 -15t31.5 -15t26 -7q32 0 32 36h70z" />
    <glyph glyph-name="utilde" unicode="&#x169;" horiz-adv-x="587" 
d="M386 74q-23 -42 -59.5 -64t-90.5 -22q-82 0 -123 49.5t-41 138.5v334h125v-325q0 -45 17.5 -70t62.5 -25q51 0 80 34.5t29 90.5v295h125v-510h-125v74zM457 687q0 -49 -24.5 -81t-74.5 -32q-19 0 -37.5 7t-35 15t-31.5 15t-26 7q-32 0 -32 -36h-70q0 49 24.5 81t74.5 32
q19 0 37.5 -7t35 -15t31.5 -15t26 -7q32 0 32 36h70z" />
    <glyph glyph-name="Umacron" unicode="&#x16a;" horiz-adv-x="688" 
d="M481 680h129v-438q0 -59 -18.5 -106.5t-53 -81t-83.5 -51.5t-111 -18t-111 18t-83.5 51t-53 80.5t-18.5 107.5v438h130v-443q0 -66 34 -104t102 -38q69 0 103 37.5t34 104.5v443zM185 854h319v-79h-319v79z" />
    <glyph glyph-name="umacron" unicode="&#x16b;" horiz-adv-x="587" 
d="M386 74q-23 -42 -59.5 -64t-90.5 -22q-82 0 -123 49.5t-41 138.5v334h125v-325q0 -45 17.5 -70t62.5 -25q51 0 80 34.5t29 90.5v295h125v-510h-125v74zM132 680h319v-79h-319v79z" />
    <glyph glyph-name="Ubreve" unicode="&#x16c;" horiz-adv-x="688" 
d="M481 680h129v-438q0 -59 -18.5 -106.5t-53 -81t-83.5 -51.5t-111 -18t-111 18t-83.5 51t-53 80.5t-18.5 107.5v438h130v-443q0 -66 34 -104t102 -38q69 0 103 37.5t34 104.5v443zM279 869q0 -26 18 -42.5t47 -16.5t47 16.5t18 42.5h80q0 -30 -10.5 -55t-30 -42.5
t-46 -27.5t-58.5 -10t-58.5 10t-46 27.5t-30 42.5t-10.5 55h80z" />
    <glyph glyph-name="ubreve" unicode="&#x16d;" horiz-adv-x="587" 
d="M386 74q-23 -42 -59.5 -64t-90.5 -22q-82 0 -123 49.5t-41 138.5v334h125v-325q0 -45 17.5 -70t62.5 -25q51 0 80 34.5t29 90.5v295h125v-510h-125v74zM226 695q0 -26 18 -42.5t47 -16.5t47 16.5t18 42.5h80q0 -30 -10.5 -55t-30 -42.5t-46 -27.5t-58.5 -10t-58.5 10
t-46 27.5t-30 42.5t-10.5 55h80z" />
    <glyph glyph-name="Uring" unicode="&#x16e;" horiz-adv-x="688" 
d="M481 680h129v-438q0 -59 -18.5 -106.5t-53 -81t-83.5 -51.5t-111 -18t-111 18t-83.5 51t-53 80.5t-18.5 107.5v438h130v-443q0 -66 34 -104t102 -38q69 0 103 37.5t34 104.5v443zM444 833q0 -42 -29 -70.5t-71 -28.5q-21 0 -39 7.5t-32 21t-22 31.5t-8 39q0 42 29.5 70
t71.5 28t71 -28t29 -70zM384 833q0 17 -11.5 28.5t-28.5 11.5t-29 -11.5t-12 -28.5t12 -29t29 -12t28.5 12t11.5 29z" />
    <glyph glyph-name="uring" unicode="&#x16f;" horiz-adv-x="587" 
d="M386 74q-23 -42 -59.5 -64t-90.5 -22q-82 0 -123 49.5t-41 138.5v334h125v-325q0 -45 17.5 -70t62.5 -25q51 0 80 34.5t29 90.5v295h125v-510h-125v74zM331 659q0 17 -11.5 28.5t-28.5 11.5t-29 -11.5t-12 -28.5t12 -29t29 -12t28.5 12t11.5 29zM391 659q0 -42 -29 -70.5
t-71 -28.5q-21 0 -39 7.5t-32 21t-22 31.5t-8 39q0 42 29.5 70t71.5 28t71 -28t29 -70z" />
    <glyph glyph-name="Uhungarumlaut" unicode="&#x170;" horiz-adv-x="688" 
d="M481 680h129v-438q0 -59 -18.5 -106.5t-53 -81t-83.5 -51.5t-111 -18t-111 18t-83.5 51t-53 80.5t-18.5 107.5v438h130v-443q0 -66 34 -104t102 -38q69 0 103 37.5t34 104.5v443zM245 869h140l-106 -122h-103zM438 869h140l-106 -122h-103z" />
    <glyph glyph-name="uhungarumlaut" unicode="&#x171;" horiz-adv-x="587" 
d="M386 74q-23 -42 -59.5 -64t-90.5 -22q-82 0 -123 49.5t-41 138.5v334h125v-325q0 -45 17.5 -70t62.5 -25q51 0 80 34.5t29 90.5v295h125v-510h-125v74zM212 695h140l-106 -122h-103zM405 695h140l-106 -122h-103z" />
    <glyph glyph-name="Uogonek" unicode="&#x172;" horiz-adv-x="688" 
d="M481 680h129v-438q0 -59 -18.5 -106.5t-53 -81t-83.5 -51.5t-111 -18t-111 18t-83.5 51t-53 80.5t-18.5 107.5v438h130v-443q0 -66 34 -104t102 -38q69 0 103 37.5t34 104.5v443zM445 -169h-164v75l74 65h79l-69 -65h80v-75z" />
    <glyph glyph-name="uogonek" unicode="&#x173;" horiz-adv-x="587" 
d="M386 74q-23 -42 -59.5 -64t-90.5 -22q-82 0 -123 49.5t-41 138.5v334h125v-325q0 -45 17.5 -70t62.5 -25q51 0 80 34.5t29 90.5v295h125v-510h-125v74zM509 -170h-164v75l74 65h79l-69 -65h80v-75z" />
    <glyph glyph-name="Wcircumflex" unicode="&#x174;" horiz-adv-x="949" 
d="M30 680h145l105 -540h4l102 540h177l102 -540h4l107 540h142l-164 -680h-177l-101 533h-4l-102 -533h-175zM426 747h-101l79 122h139l80 -122h-103l-47 58z" />
    <glyph glyph-name="wcircumflex" unicode="&#x175;" horiz-adv-x="790" 
d="M397 370h-4l-77 -370h-151l-142 510h140l74 -370h4l75 370h156l77 -370h4l76 370h138l-142 -510h-151zM347 573h-101l79 122h139l80 -122h-103l-47 58z" />
    <glyph glyph-name="Ycircumflex" unicode="&#x176;" horiz-adv-x="636" 
d="M26 680h147l146 -282l146 282h145l-227 -414v-266h-130v266zM270 747h-101l79 122h139l80 -122h-103l-47 58z" />
    <glyph glyph-name="ycircumflex" unicode="&#x177;" horiz-adv-x="537" 
d="M53 -170v97h128l25 73l-184 510h134l111 -364h4l114 364h132l-246 -680h-218zM221 573h-101l79 122h139l80 -122h-103l-47 58z" />
    <glyph glyph-name="Ydieresis" unicode="&#x178;" horiz-adv-x="636" 
d="M26 680h147l146 -282l146 282h145l-227 -414v-266h-130v266zM274 761h-118v108h118v-108zM480 761h-118v108h118v-108z" />
    <glyph glyph-name="Zacute" unicode="&#x179;" horiz-adv-x="606" 
d="M555 572l-350 -462h348v-110h-507v108l348 462h-332v110h493v-108zM309 869h140l-111 -122h-103z" />
    <glyph glyph-name="zacute" unicode="&#x17a;" horiz-adv-x="512" 
d="M44 0v97l261 316h-243v97h396v-97l-264 -316h271v-97h-421zM263 695h140l-111 -122h-103z" />
    <glyph glyph-name="Zdotaccent" unicode="&#x17b;" horiz-adv-x="606" 
d="M555 572l-350 -462h348v-110h-507v108l348 462h-332v110h493v-108zM367 761h-118v108h118v-108z" />
    <glyph glyph-name="zdotaccent" unicode="&#x17c;" horiz-adv-x="512" 
d="M44 0v97l261 316h-243v97h396v-97l-264 -316h271v-97h-421zM319 587h-118v108h118v-108z" />
    <glyph glyph-name="Zcaron" unicode="&#x17d;" horiz-adv-x="606" 
d="M555 572l-350 -462h348v-110h-507v108l348 462h-332v110h493v-108zM302 811l47 58h103l-80 -122h-139l-79 122h101z" />
    <glyph glyph-name="zcaron" unicode="&#x17e;" horiz-adv-x="512" 
d="M44 0v97l261 316h-243v97h396v-97l-264 -316h271v-97h-421zM259 637l47 58h103l-80 -122h-139l-79 122h101z" />
    <glyph glyph-name="uni018F" unicode="&#x18f;" horiz-adv-x="716" 
d="M358 -15q-145 0 -224.5 90t-79.5 265v57h467v48q0 34 -13 60t-35 44t-51.5 27t-63.5 9q-60 0 -103.5 -27.5t-54.5 -80.5h-131q6 50 31 90t63.5 68.5t88.5 44t106 15.5q145 0 224 -90t79 -265t-79 -265t-224 -90zM195 235q0 -34 13 -60t35 -44t51.5 -27t63.5 -9t63.5 9
t51.5 27t35 44t13 60v51h-326v-51z" />
    <glyph glyph-name="florin" unicode="&#x192;" 
d="M156 433h115l50 247h244v-104h-144l-29 -143h142v-104h-163l-100 -499h-243v104h144l78 395h-94v104z" />
    <glyph glyph-name="Aringacute" unicode="&#x1fa;" horiz-adv-x="641" 
d="M436 145h-232l-44 -145h-140l232 680h138l231 -680h-140zM324 523h-4l-82 -268h165zM421 803q0 -42 -29 -70.5t-71 -28.5q-21 0 -39 7.5t-32 21t-22 31.5t-8 39q0 42 29.5 70t71.5 28t71 -28t29 -70zM361 803q0 17 -11.5 28.5t-28.5 11.5t-29 -11.5t-12 -28.5t12 -29
t29 -12t28.5 12t11.5 29zM339 1044h140l-111 -122h-103z" />
    <glyph glyph-name="aringacute" unicode="&#x1fb;" horiz-adv-x="568" 
d="M207 -12q-35 0 -64 11.5t-51 32.5t-34 49.5t-12 63.5q0 62 43 107t124 52l141 12v33q0 40 -21.5 58t-58.5 18q-38 0 -62 -18.5t-24 -53.5h-125q1 42 18 73.5t45.5 52.5t67.5 32t85 11q92 0 145 -44.5t53 -130.5v-250h86v-97h-198v79h-4q-22 -42 -58.5 -66.5t-95.5 -24.5z
M251 85q48 0 75.5 34t27.5 82v20l-150 -13q-28 -3 -28 -33v-44q0 -23 21 -34.5t54 -11.5zM319 635q0 17 -11.5 28.5t-28.5 11.5t-29 -11.5t-12 -28.5t12 -29t29 -12t28.5 12t11.5 29zM379 635q0 -42 -29 -70.5t-71 -28.5q-21 0 -39 7.5t-32 21t-22 31.5t-8 39q0 42 29.5 70
t71.5 28t71 -28t29 -70zM297 876h140l-111 -122h-103z" />
    <glyph glyph-name="AEacute" unicode="&#x1fc;" horiz-adv-x="961" 
d="M903 680v-110h-311v-167h265v-110h-265v-183h311v-110h-441v145h-257l-70 -145h-141l335 680h574zM259 255h203v315h-50zM604 869h140l-111 -122h-103z" />
    <glyph glyph-name="aeacute" unicode="&#x1fd;" horiz-adv-x="852" 
d="M575 -12q-54 0 -92.5 18t-67.5 53h-2q-33 -35 -75 -53t-104 -18q-83 0 -134 45q-25 22 -38.5 53t-13.5 69q0 34 11.5 63t32.5 50t49.5 32.5t63.5 11.5h151v37q0 40 -21.5 58t-58.5 18q-38 0 -62 -18.5t-24 -53.5h-125q1 42 18 73.5t45.5 52.5t67.5 32t85 11q50 0 89 -15
t64 -43q26 29 62.5 43.5t78.5 14.5q51 0 92.5 -18.5t70.5 -51t45 -77.5t16 -97v-63h-320v-34q0 -46 29 -71t68 -25t64 21.5t30 60.5h125q-12 -85 -70.5 -132t-149.5 -47zM253 85q48 0 75.5 34t27.5 82v15h-148q-15 0 -22.5 -9t-7.5 -24v-52q0 -23 21 -34.5t54 -11.5z
M575 425q-42 0 -69 -26.5t-27 -68.5v-18h192v18q0 42 -27 68.5t-69 26.5zM446 695h140l-111 -122h-103z" />
    <glyph glyph-name="Oslashacute" unicode="&#x1fe;" horiz-adv-x="716" 
d="M661 340q0 -175 -79 -265t-224 -90q-66 0 -117 18l-38 -76l-75 36l40 80q-55 44 -84 118t-29 179q0 175 79 265t224 90q35 0 66 -5.5t58 -16.5l40 80l75 -36l-43 -86q52 -44 79.5 -116.5t27.5 -174.5zM195 235q0 -48 27 -83l210 420q-17 7 -35.5 10t-38.5 3
q-34 0 -63.5 -9t-51.5 -27t-35 -44t-13 -60v-210zM358 95q34 0 63.5 9t51.5 27t35 44t13 60v210q0 43 -22 76l-208 -416q30 -10 67 -10zM381 869h140l-111 -122h-103z" />
    <glyph glyph-name="oslashacute" unicode="&#x1ff;" horiz-adv-x="578" 
d="M434 478q46 -35 70 -91.5t24 -131.5q0 -60 -16 -109t-46.5 -84.5t-75 -54.5t-101.5 -19q-24 0 -45.5 3.5t-41.5 9.5l-38 -79l-77 34l42 87q-39 35 -59 89t-20 123q0 60 16 109t46.5 84.5t75 54.5t101.5 19q37 0 69 -9l35 72l77 -34zM314 423q-6 1 -12 1.5t-13 0.5
q-47 0 -78 -25t-31 -71v-148q0 -15 3 -27zM246 91q19 -6 43 -6q47 0 78 24.5t31 71.5v148q0 26 -13 49zM292 695h140l-111 -122h-103z" />
    <glyph glyph-name="uni0218" unicode="&#x218;" horiz-adv-x="625" 
d="M307 588q-54 0 -85 -21.5t-31 -58.5q0 -39 24 -59.5t73 -33.5l116 -30q87 -23 131.5 -69.5t44.5 -130.5q0 -47 -19 -84t-54 -63t-83.5 -39.5t-106.5 -13.5q-57 0 -105.5 12t-85 38t-59 67.5t-26.5 100.5h130q8 -60 46 -85.5t98 -25.5q57 0 96 23.5t39 68.5
q0 36 -22.5 57.5t-68.5 33.5l-133 35q-84 22 -124.5 72t-40.5 125q0 41 17.5 75.5t49.5 59.5t78 39t103 14q52 0 96.5 -12t77.5 -37t54 -64t26 -92h-130q-3 28 -14.5 47t-28.5 30.5t-38.5 16t-44.5 4.5zM371 -157l-53 -94h-47l50 94h-63v112h113v-112z" />
    <glyph glyph-name="uni0219" unicode="&#x219;" horiz-adv-x="514" 
d="M260 -12q-102 0 -157.5 45t-59.5 129h125q8 -77 92 -77q36 0 61.5 13.5t25.5 42.5q0 28 -21 40.5t-55 19.5l-88 19q-128 28 -128 146q0 33 13.5 61.5t39 49.5t62 33t83.5 12q87 0 142.5 -42t59.5 -127h-125q-2 36 -23 54t-54 18q-32 0 -52.5 -14t-20.5 -39t15.5 -37
t40.5 -17l101 -22q28 -6 53 -17.5t43 -29.5t28.5 -43t10.5 -59q0 -33 -14 -62t-41 -50.5t-66.5 -34t-90.5 -12.5zM314 -157l-53 -94h-47l50 94h-63v112h113v-112z" />
    <glyph glyph-name="uni021A" unicode="&#x21a;" horiz-adv-x="566" 
d="M20 680h526v-110h-198v-570h-130v570h-198v110zM337 -157l-53 -94h-47l50 94h-63v112h113v-112z" />
    <glyph glyph-name="uni021B" unicode="&#x21b;" horiz-adv-x="422" 
d="M129 413h-101v97h101v170h125v-170h127v-97h-127v-316h127v-97h-252v413zM309 -157l-53 -94h-47l50 94h-63v112h113v-112z" />
    <glyph glyph-name="uni0237" unicode="&#x237;" horiz-adv-x="289" 
d="M88 510h125v-680h-263v97h138v583z" />
    <glyph glyph-name="uni0259" unicode="&#x259;" horiz-adv-x="560" 
d="M180 180q0 -42 28.5 -68.5t71.5 -26.5t71.5 26.5t28.5 68.5v18h-200v-18zM280 522q54 0 97 -19.5t72.5 -54.5t45 -84.5t15.5 -109.5t-16.5 -109t-46.5 -84t-72.5 -54t-94.5 -19t-94 18.5t-72 51t-46 77t-16 97.5v63h328v34q0 46 -30 71t-71 25t-67 -21.5t-31 -60.5h-125
q12 85 71.5 132t152.5 47z" />
    <glyph glyph-name="circumflex" unicode="&#x2c6;" horiz-adv-x="0" 
d="M-48 573h-101l79 122h139l80 -122h-103l-47 58z" />
    <glyph glyph-name="caron" unicode="&#x2c7;" horiz-adv-x="0" 
d="M-1 637l47 58h103l-80 -122h-139l-79 122h101z" />
    <glyph glyph-name="breve" unicode="&#x2d8;" horiz-adv-x="0" 
d="M-65 695q0 -26 18 -42.5t47 -16.5t47 16.5t18 42.5h80q0 -30 -10.5 -55t-30 -42.5t-46 -27.5t-58.5 -10t-58.5 10t-46 27.5t-30 42.5t-10.5 55h80z" />
    <glyph glyph-name="dotaccent" unicode="&#x2d9;" horiz-adv-x="0" 
d="M59 587h-118v108h118v-108z" />
    <glyph glyph-name="ring" unicode="&#x2da;" horiz-adv-x="0" 
d="M40 659q0 17 -11.5 28.5t-28.5 11.5t-29 -11.5t-12 -28.5t12 -29t29 -12t28.5 12t11.5 29zM100 659q0 -42 -29 -70.5t-71 -28.5q-21 0 -39 7.5t-32 21t-22 31.5t-8 39q0 42 29.5 70t71.5 28t71 -28t29 -70z" />
    <glyph glyph-name="ogonek" unicode="&#x2db;" horiz-adv-x="0" 
d="M61 -170h-164v75l74 65h79l-69 -65h80v-75z" />
    <glyph glyph-name="tilde" unicode="&#x2dc;" horiz-adv-x="0" 
d="M166 687q0 -49 -24.5 -81t-74.5 -32q-19 0 -37.5 7t-35 15t-31.5 15t-26 7q-32 0 -32 -36h-70q0 49 24.5 81t74.5 32q19 0 37.5 -7t35 -15t31.5 -15t26 -7q32 0 32 36h70z" />
    <glyph glyph-name="hungarumlaut" unicode="&#x2dd;" horiz-adv-x="0" 
d="M-79 695h140l-106 -122h-103zM114 695h140l-106 -122h-103z" />
    <glyph glyph-name="uni0312" unicode="&#x312;" horiz-adv-x="0" 
d="M-58 701l54 96h48l-51 -96h64v-114h-115v114z" />
    <glyph glyph-name="uni0313" unicode="&#x313;" horiz-adv-x="0" 
d="M29 680h117l-66 -152h-80z" />
    <glyph glyph-name="uni0326" unicode="&#x326;" horiz-adv-x="0" 
d="M54 -157l-53 -94h-47l50 94h-63v112h113v-112z" />
    <glyph glyph-name="uni037E" unicode="&#x37e;" horiz-adv-x="284" 
d="M214 0l-75 -132h-66l72 132h-75v144h144v-144zM214 366h-144v144h144v-144z" />
    <glyph glyph-name="dieresistonos" unicode="&#x385;" horiz-adv-x="0" 
d="M-42 695h140l-91 -122h-103zM-119 587h-118v108h118v-108zM237 587h-118v108h118v-108z" />
    <glyph glyph-name="anoteleia" unicode="&#x387;" horiz-adv-x="280" 
d="M213 366h-144v144h144v-144z" />
    <glyph glyph-name="Pi" unicode="&#x3a0;" horiz-adv-x="685" 
d="M471 570h-257v-570h-130v680h517v-680h-130v570z" />
    <glyph glyph-name="Sigma" unicode="&#x3a3;" horiz-adv-x="587" 
d="M44 67l203 271l-202 273v69h490v-110h-321l175 -231l-175 -229h321v-110h-491v67z" />
    <glyph glyph-name="uni03A9" unicode="&#x3a9;" horiz-adv-x="670" 
d="M369 240q51 6 83 31.5t32 70.5v148q0 26 -12 46t-32 33.5t-47 20t-58 6.5t-58 -6.5t-47.5 -20t-32 -33.5t-11.5 -46v-148q0 -45 31 -70.5t82 -31.5v-240h-220v104h110v66q-65 30 -99 90.5t-34 155.5q0 133 73.5 206t205.5 73t205.5 -73t73.5 -206q0 -95 -34.5 -156
t-100.5 -91v-65h110v-104h-220v240z" />
    <glyph glyph-name="pi" unicode="&#x3c0;" horiz-adv-x="691" 
d="M413 406h-158v-406h-125v406h-100v104h608v-104h-100v-304h100v-102h-225v406z" />
    <glyph glyph-name="Wgrave" unicode="&#x1e80;" horiz-adv-x="949" 
d="M30 680h145l105 -540h4l102 540h177l102 -540h4l107 540h142l-164 -680h-177l-101 533h-4l-102 -533h-175zM544 747h-103l-111 122h140z" />
    <glyph glyph-name="wgrave" unicode="&#x1e81;" horiz-adv-x="790" 
d="M397 370h-4l-77 -370h-151l-142 510h140l74 -370h4l75 370h156l77 -370h4l76 370h138l-142 -510h-151zM467 573h-103l-111 122h140z" />
    <glyph glyph-name="Wacute" unicode="&#x1e82;" horiz-adv-x="949" 
d="M30 680h145l105 -540h4l102 540h177l102 -540h4l107 540h142l-164 -680h-177l-101 533h-4l-102 -533h-175zM479 869h140l-111 -122h-103z" />
    <glyph glyph-name="wacute" unicode="&#x1e83;" horiz-adv-x="790" 
d="M397 370h-4l-77 -370h-151l-142 510h140l74 -370h4l75 370h156l77 -370h4l76 370h138l-142 -510h-151zM398 695h140l-111 -122h-103z" />
    <glyph glyph-name="Wdieresis" unicode="&#x1e84;" horiz-adv-x="949" 
d="M30 680h145l105 -540h4l102 540h177l102 -540h4l107 540h142l-164 -680h-177l-101 533h-4l-102 -533h-175zM430 761h-118v108h118v-108zM636 761h-118v108h118v-108z" />
    <glyph glyph-name="wdieresis" unicode="&#x1e85;" horiz-adv-x="790" 
d="M397 370h-4l-77 -370h-151l-142 510h140l74 -370h4l75 370h156l77 -370h4l76 370h138l-142 -510h-151zM351 587h-118v108h118v-108zM557 587h-118v108h118v-108z" />
    <glyph glyph-name="uni1E9E" unicode="&#x1e9e;" horiz-adv-x="647" 
d="M285 110h93q41 0 60 16.5t19 53.5v45q0 38 -19 54.5t-61 16.5h-92v95l136 179h-207v-570h-130v680h483v-90l-148 -193h19q39 0 68 -15.5t48 -41.5t28.5 -59.5t9.5 -69.5q0 -68 -16 -108t-45 -63q-26 -22 -62 -31t-78 -9h-106v110z" />
    <glyph glyph-name="Ygrave" unicode="&#x1ef2;" horiz-adv-x="636" 
d="M26 680h147l146 -282l146 282h145l-227 -414v-266h-130v266zM379 747h-103l-111 122h140z" />
    <glyph glyph-name="ygrave" unicode="&#x1ef3;" horiz-adv-x="537" 
d="M53 -170v97h128l25 73l-184 510h134l111 -364h4l114 364h132l-246 -680h-218zM341 573h-103l-111 122h140z" />
    <glyph glyph-name="uni2000" unicode="&#x2000;" horiz-adv-x="500" 
 />
    <glyph glyph-name="uni2001" unicode="&#x2001;" horiz-adv-x="1000" 
 />
    <glyph glyph-name="uni2002" unicode="&#x2002;" horiz-adv-x="500" 
 />
    <glyph glyph-name="uni2003" unicode="&#x2003;" horiz-adv-x="1000" 
 />
    <glyph glyph-name="uni2004" unicode="&#x2004;" horiz-adv-x="333" 
 />
    <glyph glyph-name="uni2005" unicode="&#x2005;" horiz-adv-x="250" 
 />
    <glyph glyph-name="uni2006" unicode="&#x2006;" horiz-adv-x="167" 
 />
    <glyph glyph-name="uni2007" unicode="&#x2007;" 
 />
    <glyph glyph-name="uni2008" unicode="&#x2008;" horiz-adv-x="282" 
 />
    <glyph glyph-name="uni2009" unicode="&#x2009;" horiz-adv-x="125" 
 />
    <glyph glyph-name="uni200A" unicode="&#x200a;" horiz-adv-x="42" 
 />
    <glyph glyph-name="uni200B" unicode="&#x200b;" horiz-adv-x="0" 
 />
    <glyph glyph-name="endash" unicode="&#x2013;" horiz-adv-x="608" 
d="M69 322h470v-102h-470v102z" />
    <glyph glyph-name="emdash" unicode="&#x2014;" horiz-adv-x="1078" 
d="M69 322h940v-102h-940v102z" />
    <glyph glyph-name="uni2015" unicode="&#x2015;" horiz-adv-x="1078" 
d="M69 322h940v-102h-940v102z" />
    <glyph glyph-name="quoteleft" unicode="&#x2018;" horiz-adv-x="272" 
d="M62 548l75 132h66l-72 -132h75v-144h-144v144z" />
    <glyph glyph-name="quoteright" unicode="&#x2019;" horiz-adv-x="263" 
d="M211 536l-75 -132h-66l72 132h-75v144h144v-144z" />
    <glyph glyph-name="quotesinglbase" unicode="&#x201a;" horiz-adv-x="282" 
d="M213 0l-75 -132h-66l72 132h-75v144h144v-144z" />
    <glyph glyph-name="quotedblleft" unicode="&#x201c;" horiz-adv-x="520" 
d="M62 548l75 132h66l-72 -132h75v-144h-144v144zM310 548l75 132h66l-72 -132h75v-144h-144v144z" />
    <glyph glyph-name="quotedblright" unicode="&#x201d;" horiz-adv-x="511" 
d="M211 536l-75 -132h-66l72 132h-75v144h144v-144zM459 536l-75 -132h-66l72 132h-75v144h144v-144z" />
    <glyph glyph-name="quotedblbase" unicode="&#x201e;" horiz-adv-x="530" 
d="M213 0l-75 -132h-66l72 132h-75v144h144v-144zM461 0l-75 -132h-66l72 132h-75v144h144v-144z" />
    <glyph glyph-name="dagger" unicode="&#x2020;" horiz-adv-x="522" 
d="M31 510h170v170h120v-170h170v-104h-170v-496h-120v496h-170v104z" />
    <glyph glyph-name="daggerdbl" unicode="&#x2021;" horiz-adv-x="588" 
d="M64 184h170v222h-170v104h170v170h120v-170h170v-104h-170v-222h170v-104h-170v-170h-120v170h-170v104z" />
    <glyph glyph-name="bullet" unicode="&#x2022;" horiz-adv-x="486" 
d="M74 340q0 35 13 66t36 54t54 36.5t66 13.5t66 -13.5t54 -36.5t36.5 -54t13.5 -66t-13.5 -66t-36.5 -54t-54 -36t-66 -13t-66 13t-54 36t-36 54t-13 66z" />
    <glyph glyph-name="ellipsis" unicode="&#x2026;" horiz-adv-x="942" 
d="M213 0h-144v144h144v-144zM543 0h-144v144h144v-144zM873 0h-144v144h144v-144z" />
    <glyph glyph-name="perthousand" unicode="&#x2030;" horiz-adv-x="1139" 
d="M563 680h100l-426 -680h-100zM330 505q0 -39 -8 -72.5t-26 -58t-46 -38.5t-67 -14t-67 14t-46 38.5t-26 58t-8 72.5t8 72.5t26 58t46 38.5t67 14t67 -14t46 -38.5t26 -58t8 -72.5zM183 392q55 0 55 50v125q0 51 -55 51t-55 -51v-125q0 -50 55 -50zM767 175
q0 -39 -8 -72.5t-26 -58t-46 -38.5t-67 -14t-67 14t-46 38.5t-26 58t-8 72.5t8 72.5t26 58t46 38.5t67 14t67 -14t46 -38.5t26 -58t8 -72.5zM620 62q55 0 55 50v125q0 51 -55 51t-55 -51v-125q0 -50 55 -50zM1108 175q0 -39 -8 -72.5t-26 -58t-46 -38.5t-67 -14t-67 14
t-46 38.5t-26 58t-8 72.5t8 72.5t26 58t46 38.5t67 14t67 -14t46 -38.5t26 -58t8 -72.5zM961 62q55 0 55 50v125q0 51 -55 51t-55 -51v-125q0 -50 55 -50z" />
    <glyph glyph-name="guilsinglleft" unicode="&#x2039;" horiz-adv-x="328" 
d="M154 71l-107 186l107 186h115l-97 -186l97 -186h-115z" />
    <glyph glyph-name="guilsinglright" unicode="&#x203a;" horiz-adv-x="328" 
d="M59 71l97 186l-97 186h115l107 -186l-107 -186h-115z" />
    <glyph glyph-name="fraction" unicode="&#x2044;" horiz-adv-x="160" 
d="M243 680h100l-426 -680h-100z" />
    <glyph glyph-name="uni2070" unicode="&#x2070;" horiz-adv-x="374" 
d="M334 591q0 -39 -8 -72.5t-26 -58t-46 -38.5t-67 -14t-67 14t-46 38.5t-26 58t-8 72.5t8 72.5t26 58t46 38.5t67 14t67 -14t46 -38.5t26 -58t8 -72.5zM187 478q55 0 55 50v125q0 51 -55 51t-55 -51v-125q0 -50 55 -50z" />
    <glyph glyph-name="uni2071" unicode="&#x2071;" horiz-adv-x="197" 
d="M55 416v264h87v-264h-87zM142 696h-87v70h87v-70z" />
    <glyph glyph-name="uni2074" unicode="&#x2074;" horiz-adv-x="369" 
d="M191 416v70h-162v70l152 210h94v-210h63v-70h-63v-70h-84zM193 671h-4l-80 -115h84v115z" />
    <glyph glyph-name="uni2075" unicode="&#x2075;" horiz-adv-x="354" 
d="M43 560l16 206h234v-70h-161l-6 -73q16 17 34 25t44 8q50 0 81 -34t31 -87q0 -55 -36 -91t-99 -36t-100 28t-43 84h86q5 -43 56 -43q23 0 36.5 10t13.5 29v34q0 19 -13.5 28t-35.5 9q-33 0 -54 -27h-84z" />
    <glyph glyph-name="uni2076" unicode="&#x2076;" horiz-adv-x="367" 
d="M187 408q-78 0 -112.5 48.5t-34.5 127.5q0 40 8.5 75t27 60.5t47 40t67.5 14.5q60 0 92.5 -28.5t37.5 -75.5h-86q-5 35 -48 35q-26 0 -41 -14.5t-15 -40.5v-37q27 36 80 36t85.5 -33t32.5 -83q0 -24 -9 -46.5t-27 -40t-44.5 -28t-60.5 -10.5zM186 477q24 0 40 11t16 32
v20q0 21 -16 31.5t-40 10.5t-40.5 -10.5t-16.5 -31.5v-20q0 -21 16.5 -32t40.5 -11z" />
    <glyph glyph-name="uni2077" unicode="&#x2077;" horiz-adv-x="317" 
d="M148 416h-94l144 280h-169v70h262v-56z" />
    <glyph glyph-name="uni2078" unicode="&#x2078;" horiz-adv-x="370" 
d="M185 408q-30 0 -56.5 6t-46.5 19t-31.5 32t-11.5 45q0 32 17.5 54.5t47.5 33.5q-54 23 -54 81q0 22 10.5 40t29 30t43 18.5t52.5 6.5t52.5 -6.5t43 -18.5t29 -30t10.5 -40q0 -58 -54 -81q30 -11 47.5 -33.5t17.5 -54.5q0 -26 -11.5 -45t-31.5 -32t-46.5 -19t-56.5 -6z
M234 674q0 17 -15 24t-34 7t-34 -7t-15 -24v-13q0 -16 15 -23t34 -7t34 7t15 23v13zM125 512q0 -18 17.5 -26.5t42.5 -8.5t42.5 8.5t17.5 26.5v20q0 17 -17.5 25t-42.5 8t-42.5 -8t-17.5 -25v-20z" />
    <glyph glyph-name="uni2079" unicode="&#x2079;" horiz-adv-x="367" 
d="M181 774q78 0 112 -47.5t34 -126.5q0 -41 -8 -76t-25.5 -61t-45.5 -40.5t-67 -14.5q-63 0 -96 28.5t-38 75.5h86q5 -35 48 -35q26 0 41 14.5t15 40.5v37q-27 -36 -80 -36t-85.5 33.5t-32.5 83.5q0 24 9 46.5t27 39.5t44.5 27.5t61.5 10.5zM181 705q-24 0 -40 -11t-16 -32
v-20q0 -21 16 -31.5t40 -10.5t40.5 10.5t16.5 31.5v20q0 21 -16.5 32t-40.5 11z" />
    <glyph glyph-name="uni207A" unicode="&#x207a;" horiz-adv-x="338" 
d="M37 559v64h99v100h67v-100h98v-64h-98v-100h-67v100h-99z" />
    <glyph glyph-name="uni207B" unicode="&#x207b;" horiz-adv-x="362" 
d="M313 560h-264v64h264v-64z" />
    <glyph glyph-name="uni207C" unicode="&#x207c;" horiz-adv-x="362" 
d="M49 620v66h264v-66h-264zM49 496v66h264v-66h-264z" />
    <glyph glyph-name="uni207D" unicode="&#x207d;" horiz-adv-x="230" 
d="M132 537q0 -42 20.5 -86t52.5 -87h-83q-35 45 -57 98t-22 130q0 76 22 129t57 98h83q-35 -47 -54 -89t-19 -84v-109z" />
    <glyph glyph-name="uni207E" unicode="&#x207e;" horiz-adv-x="230" 
d="M98 646q0 42 -19 84t-54 89h83q17 -23 31.5 -46.5t25 -51t16.5 -59.5t6 -70q0 -77 -22 -130t-57 -98h-83q32 43 52.5 87t20.5 86v109z" />
    <glyph glyph-name="uni207F" unicode="&#x207f;" horiz-adv-x="357" 
d="M218 416v161q0 18 -7 28.5t-26 10.5q-21 0 -32 -14t-11 -37v-149h-87v264h87v-39q12 21 31 33t47 12q40 0 62.5 -24t22.5 -73v-173h-87z" />
    <glyph glyph-name="uni2080" unicode="&#x2080;" horiz-adv-x="374" 
d="M334 70q0 -39 -8 -72.5t-26 -58t-46 -38.5t-67 -14t-67 14t-46 38.5t-26 58t-8 72.5t8 72.5t26 58t46 38.5t67 14t67 -14t46 -38.5t26 -58t8 -72.5zM187 -43q55 0 55 50v125q0 51 -55 51t-55 -51v-125q0 -50 55 -50z" />
    <glyph glyph-name="uni2081" unicode="&#x2081;" horiz-adv-x="294" 
d="M229 -105h-86v220h-111v70h111v60h86v-350z" />
    <glyph glyph-name="uni2082" unicode="&#x2082;" horiz-adv-x="352" 
d="M42 -105v68l136 123q16 14 29 29t13 32t-11.5 27t-31.5 10q-51 0 -51 -52h-86q0 60 40 90.5t100 30.5t93 -29t33 -74q0 -21 -5.5 -37t-14 -29t-19 -23.5t-20.5 -19.5l-86 -73v-3h151v-70h-270z" />
    <glyph glyph-name="uni2083" unicode="&#x2083;" horiz-adv-x="357" 
d="M131 41v66h67q25 0 25 23v23q0 14 -12.5 22.5t-31.5 8.5q-21 0 -35 -9.5t-14 -30.5h-86q2 49 36.5 79t100.5 30q63 0 95.5 -30t32.5 -71q0 -30 -15 -49.5t-41 -28.5q64 -18 64 -79q0 -47 -36.5 -77.5t-99.5 -30.5t-103.5 29.5t-42.5 89.5h86q2 -29 17 -39.5t41 -10.5
q28 0 40 9.5t12 24.5v27q0 24 -28 24h-72z" />
    <glyph glyph-name="uni2084" unicode="&#x2084;" horiz-adv-x="368" 
d="M191 -105v70h-162v70l152 210h94v-210h63v-70h-63v-70h-84zM193 150h-4l-80 -115h84v115z" />
    <glyph glyph-name="uni2085" unicode="&#x2085;" horiz-adv-x="354" 
d="M44 39l16 206h234v-70h-161l-6 -73q16 17 34 25t44 8q50 0 81 -34t31 -87q0 -55 -36 -91t-99 -36t-100 28t-43 84h86q5 -43 56 -43q23 0 36.5 10t13.5 29v34q0 19 -13.5 28t-35.5 9q-33 0 -54 -27h-84z" />
    <glyph glyph-name="uni2086" unicode="&#x2086;" horiz-adv-x="367" 
d="M187 -113q-78 0 -112.5 48.5t-34.5 127.5q0 40 8.5 75t27 60.5t47 40t67.5 14.5q60 0 92.5 -28.5t37.5 -75.5h-86q-5 35 -48 35q-26 0 -41 -14.5t-15 -40.5v-37q27 36 80 36t85.5 -33t32.5 -83q0 -24 -9 -46.5t-27 -40t-44.5 -28t-60.5 -10.5zM186 -44q24 0 40 11t16 32
v20q0 21 -16 31.5t-40 10.5t-40.5 -10.5t-16.5 -31.5v-20q0 -21 16.5 -32t40.5 -11z" />
    <glyph glyph-name="uni2087" unicode="&#x2087;" horiz-adv-x="318" 
d="M149 -105h-94l144 280h-169v70h262v-56z" />
    <glyph glyph-name="uni2088" unicode="&#x2088;" horiz-adv-x="370" 
d="M185 -113q-30 0 -56.5 6t-46.5 19t-31.5 32t-11.5 45q0 32 17.5 54.5t47.5 33.5q-54 23 -54 81q0 22 10.5 40t29 30t43 18.5t52.5 6.5t52.5 -6.5t43 -18.5t29 -30t10.5 -40q0 -58 -54 -81q30 -11 47.5 -33.5t17.5 -54.5q0 -26 -11.5 -45t-31.5 -32t-46.5 -19t-56.5 -6z
M234 153q0 17 -15 24t-34 7t-34 -7t-15 -24v-13q0 -16 15 -23t34 -7t34 7t15 23v13zM125 -9q0 -18 17.5 -26.5t42.5 -8.5t42.5 8.5t17.5 26.5v20q0 17 -17.5 25t-42.5 8t-42.5 -8t-17.5 -25v-20z" />
    <glyph glyph-name="uni2089" unicode="&#x2089;" horiz-adv-x="367" 
d="M181 253q78 0 112 -47.5t34 -126.5q0 -41 -8 -76t-25.5 -61t-45.5 -40.5t-67 -14.5q-63 0 -96 28.5t-38 75.5h86q5 -35 48 -35q26 0 41 14.5t15 40.5v37q-27 -36 -80 -36t-85.5 33.5t-32.5 83.5q0 24 9 46.5t27 39.5t44.5 27.5t61.5 10.5zM181 184q-24 0 -40 -11t-16 -32
v-20q0 -21 16 -31.5t40 -10.5t40.5 10.5t16.5 31.5v20q0 21 -16.5 32t-40.5 11z" />
    <glyph glyph-name="uni208A" unicode="&#x208a;" horiz-adv-x="338" 
d="M37 37v64h99v100h67v-100h98v-64h-98v-100h-67v100h-99z" />
    <glyph glyph-name="uni208B" unicode="&#x208b;" horiz-adv-x="360" 
d="M312 38h-264v64h264v-64z" />
    <glyph glyph-name="uni208C" unicode="&#x208c;" horiz-adv-x="362" 
d="M49 98v66h264v-66h-264zM49 -26v66h264v-66h-264z" />
    <glyph glyph-name="uni208D" unicode="&#x208d;" horiz-adv-x="229" 
d="M132 15q0 -42 20.5 -86t52.5 -87h-83q-35 45 -57 98t-22 130q0 76 22 129t57 98h83q-35 -47 -54 -89t-19 -84v-109z" />
    <glyph glyph-name="uni208E" unicode="&#x208e;" horiz-adv-x="229" 
d="M97 124q0 42 -19 84t-54 89h83q17 -23 31.5 -46.5t25 -51t16.5 -59.5t6 -70q0 -77 -22 -130t-57 -98h-83q32 43 52.5 87t20.5 86v109z" />
    <glyph glyph-name="Euro" unicode="&#x20ac;" horiz-adv-x="679" 
d="M80 451h52q8 55 27 100t50.5 77t76.5 49.5t107 17.5q53 0 93.5 -14.5t69 -40t45 -61t19.5 -78.5h-125q-7 47 -32 68.5t-77 21.5q-60 0 -88 -33t-33 -88q-1 -5 -1 -9.5v-9.5h216l-27 -79h-189v-61h169l-28 -79h-141v-11.5t1 -10.5q8 -57 38 -89t83 -32q54 0 78.5 22.5
t31.5 76.5h125q-7 -95 -65.5 -149t-167.5 -54q-59 0 -103 17.5t-75.5 49.5t-50.5 77.5t-28 102.5h-86l28 79h51v61h-71z" />
    <glyph glyph-name="uni20B4" unicode="&#x20b4;" horiz-adv-x="673" 
d="M342 588q-23 0 -44.5 -4.5t-38.5 -16t-28.5 -30.5t-14.5 -47h-130q5 53 26 92t54 64t77 37t97 12q57 0 103 -14t78 -39t49.5 -59.5t17.5 -75.5q0 -33 -7 -57h43v-69h-78q-29 -34 -74 -54h152v-68h-378q-47 -26 -47 -75q0 -45 39 -68.5t96 -23.5q60 0 98 25.5t46 85.5h130
q-5 -59 -27 -100.5t-58.5 -67.5t-85 -38t-105.5 -12q-59 0 -107 13.5t-83 39.5t-54 63t-19 84q0 21 2.5 39t8.5 35h-29v68h74q39 34 105 54h-179v69h384q23 21 23 58t-31 58.5t-85 21.5z" />
    <glyph glyph-name="uni20BD" unicode="&#x20bd;" horiz-adv-x="675" 
d="M62 353h75v327h278q107 0 160 -53q52 -52 52 -166q0 -107 -58 -162q-57 -55 -154 -55h-148v-44h165v-99h-165v-101h-130v101h-75v99h75v47h-75v106zM428 354q35 0 49.5 17t14.5 51v83q0 34 -14 49.5t-50 15.5h-161v-216h161z" />
    <glyph glyph-name="uni20DD" unicode="&#x20dd;" horiz-adv-x="866" 
d="M177 256h128v-128h256v-128h-256v128h-128v128h-128v256h128v-256zM689 512h-128v128h-256v128h256v-128h128v-128h128v-256h-128v256zM305 512h-128v128h128v-128zM561 256h128v-128h-128v128z" />
    <glyph glyph-name="uni20DE" unicode="&#x20de;" horiz-adv-x="934" 
d="M851 768v-768h-768v768h768zM211 128h512v512h-512v-512z" />
    <glyph glyph-name="uni2113" unicode="&#x2113;" horiz-adv-x="277" 
d="M76 0v680h125v-680h-125z" />
    <glyph glyph-name="uni2116" unicode="&#x2116;" horiz-adv-x="1010" 
d="M701 376h258v-75h-258v75zM486 162v518h129v-680h-195l-203 519h-4v-519h-129v680h195l203 -518h4zM874 588q0 19 -12.5 28.5t-31.5 9.5t-31.5 -9.5t-12.5 -28.5v-64q0 -19 12.5 -28.5t31.5 -9.5t31.5 9.5t12.5 28.5v64zM965 556q0 -63 -36 -100.5t-99 -37.5t-98.5 37.5
t-35.5 100.5t35.5 100.5t98.5 37.5t99 -37.5t36 -100.5z" />
    <glyph glyph-name="uni2117" unicode="&#x2117;" horiz-adv-x="820" 
d="M447 261h-83v-92h-85v340h168q52 0 81.5 -30t29.5 -89q0 -65 -28.5 -97t-82.5 -32zM446 332q15 0 21 8.5t6 21.5v48q0 29 -27 29h-82v-107h82zM140 339q0 -56 21 -105.5t57.5 -86t86 -57.5t105.5 -21t105.5 21t86 57.5t57.5 86t21 105.5t-21 105.5t-57.5 86t-86 57.5
t-105.5 21t-105.5 -21t-86 -57.5t-57.5 -86t-21 -105.5zM55 339q0 73 28 138t76 113t112.5 76t138.5 28q73 0 138 -28t113 -76t76 -113t28 -138q0 -74 -28 -138.5t-76 -112.5t-113 -76t-138 -28q-74 0 -138.5 28t-112.5 76t-76 112.5t-28 138.5z" />
    <glyph glyph-name="trademark" unicode="&#x2122;" horiz-adv-x="845" 
d="M36 680h290v-75h-102v-265h-86v265h-102v75zM647 680h122v-340h-86v206l-70 -206h-81l-69 206v-206h-86v340h124l73 -218z" />
    <glyph glyph-name="Omega" unicode="&#x2126;" horiz-adv-x="666" 
d="M367 240q51 6 83 31.5t32 70.5v148q0 26 -12 46t-32 33.5t-47 20t-58 6.5t-58 -6.5t-47.5 -20t-32 -33.5t-11.5 -46v-148q0 -45 31 -70.5t82 -31.5v-240h-220v104h110v66q-65 30 -99 90.5t-34 155.5q0 133 73.5 206t205.5 73t205.5 -73t73.5 -206q0 -95 -34.5 -156
t-100.5 -91v-65h110v-104h-220v240z" />
    <glyph glyph-name="estimated" unicode="&#x212e;" horiz-adv-x="573" 
d="M192 301h196v86q0 37 -26 57.5t-72 20.5q-45 0 -71.5 -20.5t-26.5 -57.5v-86zM55 255q0 58 15 107.5t44.5 84.5t73.5 55t102 20q59 0 103 -19.5t73 -53t43 -78t14 -95.5v-40h-331v-98q0 -20 9 -35t24 -25t34.5 -15.5t41.5 -5.5q60 0 91 28.5t38 85.5h88
q-11 -82 -66.5 -132.5t-151.5 -50.5q-64 0 -110 20t-76 55t-44.5 84t-14.5 108z" />
    <glyph glyph-name="onethird" unicode="&#x2153;" horiz-adv-x="768" 
d="M228 330h-86v220h-111v70h111v60h86v-350zM531 680h100l-426 -680h-100zM544 146v66h67q25 0 25 23v23q0 14 -12.5 22.5t-31.5 8.5q-21 0 -35 -9.5t-14 -30.5h-86q2 49 36.5 79t100.5 30q63 0 95.5 -30t32.5 -71q0 -30 -15 -49.5t-41 -28.5q64 -18 64 -79
q0 -47 -36.5 -77.5t-99.5 -30.5t-103.5 29.5t-42.5 89.5h86q2 -29 17 -39.5t41 -10.5q28 0 40 9.5t12 24.5v27q0 24 -28 24h-72z" />
    <glyph glyph-name="twothirds" unicode="&#x2154;" horiz-adv-x="810" 
d="M46 330v68l136 123q16 14 29 29t13 32t-11.5 27t-31.5 10q-51 0 -51 -52h-86q0 60 40 90.5t100 30.5t93 -29t33 -74q0 -21 -5.5 -37t-14 -29t-19 -23.5t-20.5 -19.5l-86 -73v-3h151v-70h-270zM587 680h100l-426 -680h-100zM585 146v66h67q25 0 25 23v23q0 14 -12.5 22.5
t-31.5 8.5q-21 0 -35 -9.5t-14 -30.5h-86q2 49 36.5 79t100.5 30q63 0 95.5 -30t32.5 -71q0 -30 -15 -49.5t-41 -28.5q64 -18 64 -79q0 -47 -36.5 -77.5t-99.5 -30.5t-103.5 29.5t-42.5 89.5h86q2 -29 17 -39.5t41 -10.5q28 0 40 9.5t12 24.5v27q0 24 -28 24h-72z" />
    <glyph glyph-name="oneeighth" unicode="&#x215b;" horiz-adv-x="777" 
d="M228 330h-86v220h-111v70h111v60h86v-350zM531 680h100l-426 -680h-100zM594 -8q-30 0 -56.5 6t-46.5 19t-31.5 32t-11.5 45q0 32 17.5 54.5t47.5 33.5q-54 23 -54 81q0 22 10.5 40t29 30t43 18.5t52.5 6.5t52.5 -6.5t43 -18.5t29 -30t10.5 -40q0 -58 -54 -81
q30 -11 47.5 -33.5t17.5 -54.5q0 -26 -11.5 -45t-31.5 -32t-46.5 -19t-56.5 -6zM643 258q0 17 -15 24t-34 7t-34 -7t-15 -24v-13q0 -16 15 -23t34 -7t34 7t15 23v13zM534 96q0 -18 17.5 -26.5t42.5 -8.5t42.5 8.5t17.5 26.5v20q0 17 -17.5 25t-42.5 8t-42.5 -8t-17.5 -25
v-20z" />
    <glyph glyph-name="threeeighths" unicode="&#x215c;" horiz-adv-x="810" 
d="M131 476v66h67q25 0 25 23v23q0 14 -12.5 22.5t-31.5 8.5q-21 0 -35 -9.5t-14 -30.5h-86q2 49 36.5 79t100.5 30q63 0 95.5 -30t32.5 -71q0 -30 -15 -49.5t-41 -28.5q64 -18 64 -79q0 -47 -36.5 -77.5t-99.5 -30.5t-103.5 29.5t-42.5 89.5h86q2 -29 17 -39.5t41 -10.5
q28 0 40 9.5t12 24.5v27q0 24 -28 24h-72zM564 680h100l-426 -680h-100zM628 -8q-30 0 -56.5 6t-46.5 19t-31.5 32t-11.5 45q0 32 17.5 54.5t47.5 33.5q-54 23 -54 81q0 22 10.5 40t29 30t43 18.5t52.5 6.5t52.5 -6.5t43 -18.5t29 -30t10.5 -40q0 -58 -54 -81
q30 -11 47.5 -33.5t17.5 -54.5q0 -26 -11.5 -45t-31.5 -32t-46.5 -19t-56.5 -6zM677 258q0 17 -15 24t-34 7t-34 -7t-15 -24v-13q0 -16 15 -23t34 -7t34 7t15 23v13zM568 96q0 -18 17.5 -26.5t42.5 -8.5t42.5 8.5t17.5 26.5v20q0 17 -17.5 25t-42.5 8t-42.5 -8t-17.5 -25
v-20z" />
    <glyph glyph-name="fiveeighths" unicode="&#x215d;" horiz-adv-x="804" 
d="M43 474l16 206h234v-70h-161l-6 -73q16 17 34 25t44 8q50 0 81 -34t31 -87q0 -55 -36 -91t-99 -36t-100 28t-43 84h86q5 -43 56 -43q23 0 36.5 10t13.5 29v34q0 19 -13.5 28t-35.5 9q-33 0 -54 -27h-84zM559 680h100l-426 -680h-100zM622 -8q-30 0 -56.5 6t-46.5 19
t-31.5 32t-11.5 45q0 32 17.5 54.5t47.5 33.5q-54 23 -54 81q0 22 10.5 40t29 30t43 18.5t52.5 6.5t52.5 -6.5t43 -18.5t29 -30t10.5 -40q0 -58 -54 -81q30 -11 47.5 -33.5t17.5 -54.5q0 -26 -11.5 -45t-31.5 -32t-46.5 -19t-56.5 -6zM671 258q0 17 -15 24t-34 7t-34 -7
t-15 -24v-13q0 -16 15 -23t34 -7t34 7t15 23v13zM562 96q0 -18 17.5 -26.5t42.5 -8.5t42.5 8.5t17.5 26.5v20q0 17 -17.5 25t-42.5 8t-42.5 -8t-17.5 -25v-20z" />
    <glyph glyph-name="seveneighths" unicode="&#x215e;" horiz-adv-x="745" 
d="M158 330h-94l144 280h-169v70h262v-56zM500 680h100l-426 -680h-100zM563 -8q-30 0 -56.5 6t-46.5 19t-31.5 32t-11.5 45q0 32 17.5 54.5t47.5 33.5q-54 23 -54 81q0 22 10.5 40t29 30t43 18.5t52.5 6.5t52.5 -6.5t43 -18.5t29 -30t10.5 -40q0 -58 -54 -81
q30 -11 47.5 -33.5t17.5 -54.5q0 -26 -11.5 -45t-31.5 -32t-46.5 -19t-56.5 -6zM612 258q0 17 -15 24t-34 7t-34 -7t-15 -24v-13q0 -16 15 -23t34 -7t34 7t15 23v13zM503 96q0 -18 17.5 -26.5t42.5 -8.5t42.5 8.5t17.5 26.5v20q0 17 -17.5 25t-42.5 8t-42.5 -8t-17.5 -25
v-20z" />
    <glyph glyph-name="arrowleft" unicode="&#x2190;" horiz-adv-x="777" 
d="M406 510l-203 -204h525v-102h-525l203 -204h-140l-218 219v72l218 219h140z" />
    <glyph glyph-name="arrowup" unicode="&#x2191;" horiz-adv-x="604" 
d="M47 462l219 218h72l219 -218v-140l-204 203v-525h-102v525l-204 -203v140z" />
    <glyph glyph-name="arrowright" unicode="&#x2192;" horiz-adv-x="777" 
d="M511 510l218 -219v-72l-218 -219h-140l203 204h-525v102h525l-203 204h140z" />
    <glyph glyph-name="arrowdown" unicode="&#x2193;" horiz-adv-x="604" 
d="M47 358l204 -203v525h102v-525l204 203v-140l-219 -218h-72l-219 218v140z" />
    <glyph glyph-name="uni2196" unicode="&#x2196;" horiz-adv-x="644" 
d="M63 150v309l51 51h309l99 -99h-288l371 -371l-72 -72l-371 371v-288z" />
    <glyph glyph-name="uni2197" unicode="&#x2197;" horiz-adv-x="644" 
d="M482 51v288l-371 -371l-72 72l371 371h-288l99 99h309l51 -51v-309z" />
    <glyph glyph-name="uni2198" unicode="&#x2198;" horiz-adv-x="642" 
d="M120 99h288l-371 371l72 72l371 -371v288l99 -99v-309l-51 -51h-309z" />
    <glyph glyph-name="uni2199" unicode="&#x2199;" horiz-adv-x="642" 
d="M423 0h-309l-51 51v309l99 99v-288l371 371l72 -72l-371 -371h288z" />
    <glyph glyph-name="partialdiff" unicode="&#x2202;" 
d="M84 622q35 32 80.5 52.5t108.5 20.5q70 0 121.5 -26t85 -74t49.5 -116t16 -152q0 -72 -15.5 -134t-48.5 -107.5t-84.5 -71.5t-122.5 -26q-57 0 -100.5 19.5t-72.5 51.5t-43.5 73.5t-14.5 85.5q0 53 16 94.5t45.5 70t70 43t88.5 14.5q100 0 152 -77q0 119 -36.5 174
t-108.5 55q-43 0 -73 -15t-58 -44zM273 90q71 0 106.5 49.5t35.5 129.5q-20 41 -50 57.5t-71 16.5q-57 0 -86.5 -22t-29.5 -68v-79q0 -46 26.5 -65t68.5 -19z" />
    <glyph glyph-name="Delta" unicode="&#x2206;" horiz-adv-x="708" 
d="M290 680h128l267 -680h-662zM515 104l-164 417l-162 -417h326z" />
    <glyph glyph-name="product" unicode="&#x220f;" horiz-adv-x="738" 
d="M528 746h-318v-916h-125v1020h568v-1020h-125v916z" />
    <glyph glyph-name="summation" unicode="&#x2211;" 
d="M180 746l292 -403l-292 -409h383v-104h-528v104l292 409l-292 403v104h528v-104h-383z" />
    <glyph glyph-name="minus" unicode="&#x2212;" 
d="M562 292h-524v96h524v-96z" />
    <glyph glyph-name="radical" unicode="&#x221a;" 
d="M196 255l77 -250l210 675h127l-266 -850h-142l-100 321h-95v104h189z" />
    <glyph glyph-name="infinity" unicode="&#x221e;" horiz-adv-x="750" 
d="M375 274q-32 -37 -70 -62.5t-94 -25.5q-35 0 -64 12.5t-49.5 34t-32 50.5t-11.5 62q0 34 12 63t33 50.5t49.5 33.5t62.5 12q27 0 51 -8t44 -21.5t37.5 -30t31.5 -34.5q14 18 31.5 34.5t37.5 30t44 21.5t51 8q34 0 62.5 -12t49.5 -33.5t33 -50.5t12 -63q0 -33 -11.5 -62
t-32 -50.5t-49.5 -34t-64 -12.5q-56 0 -94.5 25.5t-69.5 62.5zM150 343q0 -29 17 -47t47 -18t53.5 18t46.5 47q-23 30 -45.5 49t-52.5 19q-32 0 -49 -19t-17 -49zM600 343q0 30 -17 49t-49 19q-30 0 -52.5 -19t-45.5 -49q23 -29 46.5 -47t53.5 -18t47 18t17 47z" />
    <glyph glyph-name="integral" unicode="&#x222b;" 
d="M100 -66h138v916h263v-104h-138v-916h-263v104z" />
    <glyph glyph-name="approxequal" unicode="&#x2248;" 
d="M571 488q0 -66 -39 -107.5t-105 -41.5q-18 0 -33.5 3t-32 9t-35 15t-43.5 21l-40 20t-27 13t-18.5 7t-15.5 2q-24 0 -35.5 -15t-11.5 -41h-99q0 66 39 107.5t105 41.5q18 0 33.5 -3t32 -9t35 -15t43.5 -21l40 -20t27 -13t18.5 -7t15.5 -2q24 0 35.5 15t11.5 41h99z
M571 298q0 -66 -39 -107.5t-105 -41.5q-18 0 -33.5 3t-32 9t-35 15t-43.5 21l-40 20t-27 13t-18.5 7t-15.5 2q-24 0 -35.5 -15t-11.5 -41h-99q0 66 39 107.5t105 41.5q18 0 33.5 -3t32 -9t35 -15t43.5 -21l40 -20t27 -13t18.5 -7t15.5 -2q24 0 35.5 15t11.5 41h99z" />
    <glyph glyph-name="notequal" unicode="&#x2260;" 
d="M200 85l-77 45l38 66h-121v96h176l56 96h-232v96h287l64 111l77 -44l-39 -67h131v-96h-186l-55 -96h241v-96h-296z" />
    <glyph glyph-name="lessequal" unicode="&#x2264;" 
d="M555 497l-342 -97l342 -97v-98l-520 149v92l520 149v-98zM555 85h-520v96h520v-96z" />
    <glyph glyph-name="greaterequal" unicode="&#x2265;" 
d="M45 595l520 -149v-92l-520 -149v98l342 97l-342 97v98zM45 181h520v-96h-520v96z" />
    <glyph glyph-name="uni230C" unicode="&#x230c;" horiz-adv-x="586" 
d="M178 916h384v-128h-256v-256h-128v384zM178 148h128v-256h256v-128h-384v384z" />
    <glyph glyph-name="uni230D" unicode="&#x230d;" horiz-adv-x="586" 
d="M408 532h-128v256h-256v128h384v-384zM24 -236v128h256v256h128v-384h-384z" />
    <glyph glyph-name="uni230E" unicode="&#x230e;" horiz-adv-x="538" 
d="M460 148v-128h-256v-256h-128v384h384zM76 916h128v-256h256v-128h-384v384z" />
    <glyph glyph-name="uni230F" unicode="&#x230f;" horiz-adv-x="538" 
d="M462 148v-384h-128v256h-256v128h384zM78 532v128h256v256h128v-384h-384z" />
    <glyph glyph-name="uni2347" unicode="&#x2347;" horiz-adv-x="1066" 
d="M85 787h896v-896h-896v896zM469 275h384v128h-384v128h-128v-128h-128v-128h128v-128h128v128zM469 531h128v128h-128v-128zM469 19h128v128h-128v-128z" />
    <glyph glyph-name="uni2348" unicode="&#x2348;" horiz-adv-x="1066" 
d="M981 -108h-896v896h896v-896zM725 532h-128v128h-128v-128h128v-128h-384v-128h384v-128h128v128h128v128h-128v128zM597 148h-128v-128h128v128z" />
    <glyph glyph-name="uni2350" unicode="&#x2350;" horiz-adv-x="1066" 
d="M981 788v-896h-896v896h896zM597 532v128h-128v-128h-128v-128h128v-384h128v384h128v-128h128v128h-128v128h-128zM213 404v-128h128v128h-128z" />
    <glyph glyph-name="uni2357" unicode="&#x2357;" horiz-adv-x="1066" 
d="M85 -109v896h896v-896h-896zM725 147v128h-128v384h-128v-384h-128v128h-128v-128h128v-128h128v-128h128v128h128zM853 275v128h-128v-128h128z" />
    <glyph glyph-name="uni23E5" unicode="&#x23e5;" horiz-adv-x="808" 
d="M84 768h384v-128h256v-640h-640v768zM596 512h-256v128h-128v-512h384v384z" />
    <glyph glyph-name="uni2595" unicode="&#x2595;" horiz-adv-x="1042" 
d="M585 148h-128v128h-128v128h-128v128h-128v128h128v-128h128v-128h128v-128h128v-128h128v-128h128v-128h-128v128h-128v128zM585 404h-128v128h-128v128h-128v128h128v-128h128v-128h128v-128h128v-128h128v-128h128v-128h-128v128h-128v128h-128v128zM585 660h-128v128
h128v-128h128v-128h128v-128h128v-128h-128v128h-128v128h-128v128zM329 148h-128v128h-128v128h128v-128h128v-128h128v-128h128v-128h-128v128h-128v128zM201 20h-128v128h128v-128h128v-128h-128v128zM841 660h-128v128h128v-128h128v-128h-128v128z" />
    <glyph glyph-name="uni25A4" unicode="&#x25a4;" horiz-adv-x="1048" 
d="M76 788h896v-128h-896v128zM76 532h896v-128h-896v128zM76 276h896v-128h-896v128zM76 20h896v-128h-896v128z" />
    <glyph glyph-name="uni25A5" unicode="&#x25a5;" horiz-adv-x="1066" 
d="M85 -108v896h128v-896h-128zM341 -108v896h128v-896h-128zM597 -108v896h128v-896h-128zM853 -108v896h128v-896h-128z" />
    <glyph glyph-name="uni25A6" unicode="&#x25a6;" horiz-adv-x="1322" 
d="M725 276h-128v128h-128v128h-128v128h128v-128h128v-128h128v-128h128v-128h128v-128h-128v128h-128v128zM725 532h-128v128h128v-128h128v-128h128v-128h-128v128h-128v128zM469 276h128v-128h128v-128h-128v128h-128v128h-128v128h128v-128zM469 20h-128v128h128v-128z
M853 660h128v-128h-128v128zM85 916h1152v-1152h-1152v1152zM213 -108h896v896h-896v-896z" />
    <glyph glyph-name="uni25A7" unicode="&#x25a7;" horiz-adv-x="1015" 
d="M576 148h128v-128h128v-128h-128v128h-128v128h-128v128h-128v128h-128v128h-128v128h128v-128h128v-128h128v-128h128v-128zM832 276h128v-128h-128v128h-128v128h-128v128h-128v128h-128v128h128v-128h128v-128h128v-128h128v-128zM320 20h128v-128h-128v128h-128v128
h-128v128h128v-128h128v-128zM960 532h-128v128h-128v128h128v-128h128v-128z" />
    <glyph glyph-name="uni25A8" unicode="&#x25a8;" horiz-adv-x="1015" 
d="M55 276h128v-128h-128v128zM183 404h128v-128h-128v128zM311 532h128v-128h-128v128zM183 788h128v-128h-128v128zM311 148h128v-128h-128v128zM439 276h128v-128h-128v128zM439 660h128v-128h-128v128zM567 788h128v-128h-128v128zM183 20h128v-128h-128v128zM567 404
h128v-128h-128v128zM567 20h128v-128h-128v128zM695 148h128v-128h-128v128zM695 532h128v-128h-128v128zM55 660h128v-128h-128v128zM823 660h128v-128h-128v128zM823 276h128v-128h-128v128z" />
    <glyph glyph-name="uni25B3" unicode="&#x25b3;" horiz-adv-x="712" 
d="M420 512h-128v256h128v-256h128v-256h128v-256h-640v256h128v-128h384v128h-128v256zM292 256h-128v256h128v-256z" />
    <glyph glyph-name="uni25B7" unicode="&#x25b7;" horiz-adv-x="906" 
d="M346 404v128h-128v-384h128v-128h-256v640h256v-128h256v-128h-256zM602 276v-128h-256v128h256zM858 404v-128h-256v128h256z" />
    <glyph glyph-name="uni25BD" unicode="&#x25bd;" horiz-adv-x="712" 
d="M292 256h128v-256h-128v256h-128v256h-128v256h640v-256h-128v128h-384v-128h128v-256zM420 512h128v-256h-128v256z" />
    <glyph glyph-name="uni25C1" unicode="&#x25c1;" horiz-adv-x="906" 
d="M560 276v-128h128v384h-128v128h256v-640h-256v128h-256v128h256zM304 404v128h256v-128h-256zM48 276v128h256v-128h-256z" />
    <glyph glyph-name="lozenge" unicode="&#x25ca;" 
d="M485 343l-185 328l-185 -328l185 -328zM617 343l-245 -430h-144l-245 430l245 430h144z" />
    <glyph glyph-name="H18533" unicode="&#x25cf;" horiz-adv-x="446" 
d="M55 340q0 35 13 66t36 54t54 36.5t66 13.5t66 -13.5t54 -36.5t36.5 -54t13.5 -66t-13.5 -66t-36.5 -54t-54 -36t-66 -13t-66 13t-54 36t-36 54t-13 66z" />
    <glyph glyph-name="uni26DD" unicode="&#x26dd;" horiz-adv-x="1320" 
d="M1108 660h128v-640h-128v640h-128v128h-640v128h640v-128h128v-128zM468 532h128v-128h128v-128h128v-128h128v-128h128v-128h128v-128h-128v128h-128v128h-128v128h-128v128h-128v128h-128v128h-128v128h-128v128h-128v128h128v-128h128v-128h128v-128zM212 -108v128
h-128v640h128v-640h128v-128h-128zM980 -108v-128h-640v128h640zM852 660h128v-128h-128v128zM468 20h-128v128h128v-128zM1236 788h-128v128h128v-128zM596 148h-128v128h128v-128zM212 -236h-128v128h128v-128zM724 532h128v-128h-128v128z" />
    <glyph glyph-name="uni2717" unicode="&#x2717;" horiz-adv-x="762" 
d="M189 532h128v-128h128v-128h128v-128h128v-128h-128v128h-128v128h-128v128h-128v128h-128v128h128v-128zM573 660h128v-128h-128v128zM445 532h128v-128h-128v128zM189 20h-128v128h128v-128zM317 148h-128v128h128v-128z" />
    <glyph glyph-name="uni274E" unicode="&#x274e;" horiz-adv-x="1066" 
d="M85 788h896v-896h-896v896zM341 404h128v-128h128v128h-128v128h-128v128h-128v-128h128v-128zM597 148h128v-128h128v128h-128v128h-128v-128zM341 148h-128v-128h128v128zM597 404h128v128h-128v-128zM725 532h128v128h-128v-128zM469 276h-128v-128h128v128z" />
    <glyph glyph-name="uni29C8" unicode="&#x29c8;" horiz-adv-x="1322" 
d="M469 148h384v384h-384v-384zM341 660h640v-640h-640v640zM85 916h1152v-1152h-1152v1152zM213 -108h896v896h-896v-896z" />
    <glyph glyph-name="uni2B1B" unicode="&#x2b1b;" horiz-adv-x="864" 
d="M92 680h680v-680h-680v680z" />
    <glyph glyph-name="uni2BBD" unicode="&#x2bbd;" horiz-adv-x="1322" 
d="M85 916h1152v-1152h-1152v1152zM213 -108h896v896h-896v-896zM469 532h128v-128h128v-128h128v-128h128v-128h-128v128h-128v128h-128v128h-128v128h-128v128h128v-128zM853 660h128v-128h-128v128zM725 532h128v-128h-128v128zM469 20h-128v128h128v-128zM597 148h-128
v128h128v-128z" />
    <glyph glyph-name="uniFB00" unicode="&#xfb00;" horiz-adv-x="730" 
d="M253 510h206v170h252v-97h-127v-73h117v-97h-117v-413h-125v413h-206v-413h-125v413h-100v97h100v170h252v-97h-127v-73z" />
    <glyph glyph-name="fi" unicode="&#xfb01;" horiz-adv-x="660" 
d="M459 0v413h-206v-413h-125v413h-100v97h100v170h252v-97h-127v-73h331v-510h-125zM586 569h-129v111h129v-111z" />
    <glyph glyph-name="fl" unicode="&#xfb02;" horiz-adv-x="660" 
d="M253 510h117v-97h-117v-413h-125v413h-100v97h100v170h456v-680h-125v583h-206v-73z" />
    <glyph glyph-name="uniFB03" unicode="&#xfb03;" horiz-adv-x="991" 
d="M253 510h206v170h252v-97h-127v-73h331v-510h-125v413h-206v-413h-125v413h-206v-413h-125v413h-100v97h100v170h252v-97h-127v-73zM917 569h-129v111h129v-111z" />
    <glyph glyph-name="uniFB04" unicode="&#xfb04;" horiz-adv-x="991" 
d="M253 510h206v170h456v-680h-125v583h-206v-73h117v-97h-117v-413h-125v413h-206v-413h-125v413h-100v97h100v170h252v-97h-127v-73z" />
    <glyph glyph-name="uniFEFF" unicode="&#xfeff;" horiz-adv-x="0" 
 />
    <glyph glyph-name="i.latn_TRK" horiz-adv-x="277" 
d="M76 0v510h125v-510h-125zM203 569h-129v111h129v-111z" />
    <glyph glyph-name="Ldot.latn_CAT" horiz-adv-x="528" 
d="M84 680h130v-570h288v-110h-418v680zM451 332h-118v108h118v-108z" />
    <glyph glyph-name="ldot.latn_CAT" horiz-adv-x="331" 
d="M76 0v680h125v-680h-125zM363 317h-118v108h118v-108z" />
    <glyph glyph-name="breve.cyrl_dflt" horiz-adv-x="0" 
d="M-75 695q0 -26 19.5 -42.5t55.5 -16.5t55.5 16.5t19.5 42.5h90q0 -60 -43 -97.5t-122 -37.5t-122 37.5t-43 97.5h90z" />
    <glyph glyph-name="comma.subs" horiz-adv-x="193" 
d="M145 -106l-44 -83h-51l43 83h-45v94h97v-94z" />
    <glyph glyph-name="period.subs" horiz-adv-x="193" 
d="M145 -106h-97v94h97v-94z" />
    <glyph glyph-name="bracketleft.subs" horiz-adv-x="251" 
d="M216 297v-65h-65v-325h65v-65h-151v455h151z" />
    <glyph glyph-name="bracketright.subs" horiz-adv-x="251" 
d="M186 -158h-151v65h65v325h-65v65h151v-455z" />
    <glyph glyph-name="a.subs" horiz-adv-x="339" 
d="M167 165q53 0 83 -23t30 -68v-109h45v-70h-126v39h-4q-25 -45 -75 -45q-37 0 -61 22q-11 11 -17 26t-6 32q0 35 21.5 57t64.5 26l72 7v18q0 13 -8 19t-22 6t-23.5 -6.5t-9.5 -20.5h-86q2 45 36.5 67.5t85.5 22.5zM151 -45q20 0 31.5 12t11.5 31v6l-54 -5q-14 -1 -14 -17
v-11q0 -16 25 -16z" />
    <glyph glyph-name="b.subs" horiz-adv-x="357" 
d="M141 8q0 -51 46 -51q20 0 31 9.5t11 29.5v63q0 20 -11 29.5t-31 9.5q-46 0 -46 -52v-38zM55 -105v350h86v-123q12 20 30.5 31.5t47.5 11.5q27 0 46.5 -11t32 -29.5t18.5 -43.5t6 -53t-6.5 -53.5t-19 -44.5t-32.5 -30t-47 -11q-26 0 -45 12t-31 32v-38h-86z" />
    <glyph glyph-name="c.subs" horiz-adv-x="320" 
d="M36 26q0 67 34.5 103t94.5 36q45 0 79.5 -22.5t39.5 -75.5h-86q-2 19 -11.5 26.5t-23.5 7.5q-15 0 -26 -9.5t-11 -28.5v-70q0 -18 11 -28t28 -10q14 0 24 7.5t12 24.5h85q-6 -53 -41 -75.5t-80 -22.5q-62 0 -95.5 37.5t-33.5 99.5z" />
    <glyph glyph-name="d.subs" horiz-adv-x="357" 
d="M218 46q0 52 -46 52q-20 0 -31 -9.5t-11 -29.5v-63q0 -20 11 -29.5t31 -9.5q46 0 46 51v38zM218 -105v38q-12 -20 -30.5 -32t-47.5 -12q-26 0 -45.5 11t-32.5 30t-19 44.5t-6 53.5t6 53t19 43.5t33 29.5t47 11q26 0 45 -11.5t31 -31.5v123h86v-350h-86z" />
    <glyph glyph-name="e.subs" horiz-adv-x="328" 
d="M124 55h79v8q0 18 -11 28t-28 10q-18 0 -29 -10t-11 -28v-8zM36 28q0 63 35 100t93 37q29 0 52.5 -9.5t40 -26.5t25.5 -39.5t9 -49.5v-40h-167v-8q0 -16 12 -26.5t29 -10.5q30 0 38 24h86q-8 -41 -41 -65.5t-84 -24.5q-61 0 -94.5 38.5t-33.5 100.5z" />
    <glyph glyph-name="f.subs" horiz-adv-x="256" 
d="M167 159h65v-65h-65v-199h-86v199h-53v65h53v86h157v-65h-71v-21z" />
    <glyph glyph-name="g.subs" horiz-adv-x="358" 
d="M304 -84q0 -29 -10.5 -50t-28.5 -35t-41 -21t-48 -7q-51 0 -85.5 18.5t-43.5 67.5h83q2 -11 13.5 -15.5t29.5 -4.5t31.5 9.5t13.5 35.5v35q-12 -20 -30.5 -32t-47.5 -12q-26 0 -45.5 10.5t-32.5 28.5t-19 41.5t-6 50.5t6 50.5t19 41t33 27.5t47 10q26 0 45 -11.5
t31 -31.5v37h86v-243zM218 46q0 52 -46 52q-20 0 -31 -9.5t-11 -29.5v-47q0 -20 11 -29.5t31 -9.5q46 0 46 51v22z" />
    <glyph glyph-name="h.subs" horiz-adv-x="355" 
d="M142 120q12 21 31 33t47 12q40 0 62.5 -24t22.5 -73v-173h-87v161q0 18 -7 28.5t-26 10.5q-21 0 -32 -14t-11 -37v-149h-87v350h87v-125z" />
    <glyph glyph-name="i.subs" horiz-adv-x="195" 
d="M55 -105v264h87v-264h-87zM142 175h-87v70h87v-70z" />
    <glyph glyph-name="j.subs" horiz-adv-x="205" 
d="M64 159h87v-350h-166v70h79v280zM151 175h-87v70h87v-70z" />
    <glyph glyph-name="k.subs" horiz-adv-x="343" 
d="M143 39l75 120h99l-85 -120l88 -144h-99zM142 -105h-87v350h87v-350z" />
    <glyph glyph-name="l.subs" horiz-adv-x="195" 
d="M55 -105v350h87v-350h-87z" />
    <glyph glyph-name="m.subs" horiz-adv-x="496" 
d="M359 -105v166q0 15 -6.5 24.5t-21.5 9.5q-16 0 -26.5 -11.5t-10.5 -35.5v-153h-87v166q0 15 -6.5 24.5t-21.5 9.5q-16 0 -26.5 -11.5t-10.5 -35.5v-153h-87v264h87v-39q10 22 30 33.5t43 11.5q27 0 46 -12t28 -38q13 26 33 38t45 12q35 0 57 -24t22 -78v-168h-87z" />
    <glyph glyph-name="n.subs" horiz-adv-x="355" 
d="M218 -105v161q0 18 -7 28.5t-26 10.5q-21 0 -32 -14t-11 -37v-149h-87v264h87v-39q12 21 31 33t47 12q40 0 62.5 -24t22.5 -73v-173h-87z" />
    <glyph glyph-name="o.subs" horiz-adv-x="339" 
d="M214 59q0 19 -12.5 28.5t-31.5 9.5t-31.5 -9.5t-12.5 -28.5v-64q0 -19 12.5 -28.5t31.5 -9.5t31.5 9.5t12.5 28.5v64zM305 27q0 -63 -36 -100.5t-99 -37.5t-98.5 37.5t-35.5 100.5t35.5 100.5t98.5 37.5t99 -37.5t36 -100.5z" />
    <glyph glyph-name="p.subs" horiz-adv-x="357" 
d="M141 8q0 -51 46 -51q20 0 31 9.5t11 29.5v63q0 20 -11 29.5t-31 9.5q-46 0 -46 -52v-38zM55 -191v350h86v-37q12 20 30.5 31.5t47.5 11.5q27 0 46.5 -11t32 -29.5t18.5 -43.5t6 -53t-6.5 -53.5t-19 -44.5t-32.5 -30t-47 -11q-26 0 -45 12t-31 32v-124h-86z" />
    <glyph glyph-name="q.subs" horiz-adv-x="357" 
d="M218 -191v124q-12 -20 -30.5 -32t-47.5 -12q-26 0 -45.5 11t-32.5 30t-19 44.5t-6 53.5t6 53t19 43.5t33 29.5t47 11q26 0 45 -11.5t31 -31.5v37h86v-350h-86zM218 46q0 52 -46 52q-20 0 -31 -9.5t-11 -29.5v-63q0 -20 11 -29.5t31 -9.5q46 0 46 51v38z" />
    <glyph glyph-name="r.subs" horiz-adv-x="250" 
d="M55 159h171v-71h-85v-193h-86v264z" />
    <glyph glyph-name="s.subs" horiz-adv-x="311" 
d="M158 -111q-56 0 -88.5 23t-34.5 66h87q1 -26 36 -26q14 0 23 5.5t9 14.5q0 12 -9.5 16t-26.5 7l-37 7q-35 7 -55.5 26t-20.5 54q0 39 32 61t81 22q50 0 80.5 -21t32.5 -65h-86q-1 26 -28 26t-27 -19q0 -11 7.5 -15t20.5 -7l48 -10q33 -7 53.5 -26.5t20.5 -54.5
t-30.5 -59.5t-87.5 -24.5z" />
    <glyph glyph-name="t.subs" horiz-adv-x="278" 
d="M169 -35h65v-70h-152v194h-51v70h51v86h87v-86h65v-70h-65v-124z" />
    <glyph glyph-name="u.subs" horiz-adv-x="353" 
d="M212 -66q-12 -21 -31 -33t-46 -12q-39 0 -61.5 24t-22.5 73v173h87v-161q0 -18 7 -28.5t25 -10.5q20 0 31 14t11 37v149h87v-264h-87v39z" />
    <glyph glyph-name="v.subs" horiz-adv-x="326" 
d="M114 -105l-94 264h96l45 -160h4l47 160h93l-93 -264h-98z" />
    <glyph glyph-name="w.subs" horiz-adv-x="461" 
d="M261 -105l-28 151h-6l-25 -151h-98l-77 264h96l29 -145h4l23 145h102l27 -145h4l31 145h94l-79 -264h-97z" />
    <glyph glyph-name="x.subs" horiz-adv-x="341" 
d="M112 32l-81 127h104l36 -67h4l36 67h100l-79 -123l88 -141h-102l-42 79h-4l-44 -79h-105z" />
    <glyph glyph-name="y.subs" horiz-adv-x="324" 
d="M165 0l47 159h93l-127 -350h-139v70h70l6 17l-96 263h96l46 -159h4z" />
    <glyph glyph-name="z.subs" horiz-adv-x="307" 
d="M38 -105v70l111 122v2h-101v70h215v-69l-113 -123v-2h117v-70h-229z" />
    <glyph glyph-name="egrave.subs" horiz-adv-x="328" 
d="M36 28q0 63 35 100t93 37q29 0 52.5 -9.5t40 -26.5t25.5 -39.5t9 -49.5v-40h-167v-8q0 -16 12 -26.5t29 -10.5q30 0 38 24h86q-8 -41 -41 -65.5t-84 -24.5q-61 0 -94.5 38.5t-33.5 100.5zM124 55h79v8q0 18 -11 28t-28 10q-18 0 -29 -10t-11 -28v-8zM205 192h-66l-67 67
h86z" />
    <glyph glyph-name="eacute.subs" horiz-adv-x="328" 
d="M166 259h86l-67 -67h-66zM124 55h79v8q0 18 -11 28t-28 10q-18 0 -29 -10t-11 -28v-8zM36 28q0 63 35 100t93 37q29 0 52.5 -9.5t40 -26.5t25.5 -39.5t9 -49.5v-40h-167v-8q0 -16 12 -26.5t29 -10.5q30 0 38 24h86q-8 -41 -41 -65.5t-84 -24.5q-61 0 -94.5 38.5
t-33.5 100.5z" />
    <glyph glyph-name="comma.sups" horiz-adv-x="195" 
d="M146 416l-44 -83h-51l43 83h-45v94h97v-94z" />
    <glyph glyph-name="period.sups" horiz-adv-x="193" 
d="M145 416h-97v94h97v-94z" />
    <glyph glyph-name="bracketleft.sups" horiz-adv-x="251" 
d="M216 819v-65h-65v-325h65v-65h-151v455h151z" />
    <glyph glyph-name="bracketright.sups" horiz-adv-x="251" 
d="M186 364h-151v65h65v325h-65v65h151v-455z" />
    <glyph glyph-name="a.sups" horiz-adv-x="341" 
d="M167 686q53 0 83 -23t30 -68v-109h45v-70h-126v39h-4q-25 -45 -75 -45q-37 0 -61 22q-11 11 -17 26t-6 32q0 35 21.5 57t64.5 26l72 7v18q0 13 -8 19t-22 6t-23.5 -6.5t-9.5 -20.5h-86q2 45 36.5 67.5t85.5 22.5zM151 476q20 0 31.5 12t11.5 31v6l-54 -5q-14 -1 -14 -17
v-11q0 -16 25 -16z" />
    <glyph glyph-name="b.sups" horiz-adv-x="359" 
d="M141 529q0 -51 46 -51q20 0 31 9.5t11 29.5v63q0 20 -11 29.5t-31 9.5q-46 0 -46 -52v-38zM55 416v350h86v-123q12 20 30.5 31.5t47.5 11.5q27 0 46.5 -11t32 -29.5t18.5 -43.5t6 -53t-6.5 -53.5t-19 -44.5t-32.5 -30t-47 -11q-26 0 -45 12t-31 32v-38h-86z" />
    <glyph glyph-name="c.sups" horiz-adv-x="320" 
d="M36 547q0 67 34.5 103t94.5 36q45 0 79.5 -22.5t39.5 -75.5h-86q-2 19 -11.5 26.5t-23.5 7.5q-15 0 -26 -9.5t-11 -28.5v-70q0 -18 11 -28t28 -10q14 0 24 7.5t12 24.5h85q-6 -53 -41 -75.5t-80 -22.5q-62 0 -95.5 37.5t-33.5 99.5z" />
    <glyph glyph-name="d.sups" horiz-adv-x="359" 
d="M218 567q0 52 -46 52q-20 0 -31 -9.5t-11 -29.5v-63q0 -20 11 -29.5t31 -9.5q46 0 46 51v38zM218 416v38q-12 -20 -30.5 -32t-47.5 -12q-26 0 -45.5 11t-32.5 30t-19 44.5t-6 53.5t6 53t19 43.5t33 29.5t47 11q26 0 45 -11.5t31 -31.5v123h86v-350h-86z" />
    <glyph glyph-name="e.sups" horiz-adv-x="328" 
d="M124 576h79v8q0 18 -11 28t-28 10q-18 0 -29 -10t-11 -28v-8zM36 549q0 63 35 100t93 37q29 0 52.5 -9.5t40 -26.5t25.5 -39.5t9 -49.5v-40h-167v-8q0 -16 12 -26.5t29 -10.5q30 0 38 24h86q-8 -41 -41 -65.5t-84 -24.5q-61 0 -94.5 38.5t-33.5 100.5z" />
    <glyph glyph-name="f.sups" horiz-adv-x="257" 
d="M167 680h65v-65h-65v-199h-86v199h-53v65h53v86h157v-65h-71v-21z" />
    <glyph glyph-name="g.sups" horiz-adv-x="359" 
d="M304 437q0 -29 -10.5 -50t-28.5 -35t-41 -21t-48 -7q-51 0 -85.5 18.5t-43.5 67.5h83q2 -11 13.5 -15.5t29.5 -4.5t31.5 9.5t13.5 35.5v35q-12 -20 -30.5 -32t-47.5 -12q-26 0 -45.5 10.5t-32.5 28.5t-19 41.5t-6 50.5t6 50.5t19 41t33 27.5t47 10q26 0 45 -11.5
t31 -31.5v37h86v-243zM218 567q0 52 -46 52q-20 0 -31 -9.5t-11 -29.5v-47q0 -20 11 -29.5t31 -9.5q46 0 46 51v22z" />
    <glyph glyph-name="h.sups" horiz-adv-x="357" 
d="M142 641q12 21 31 33t47 12q40 0 62.5 -24t22.5 -73v-173h-87v161q0 18 -7 28.5t-26 10.5q-21 0 -32 -14t-11 -37v-149h-87v350h87v-125z" />
    <glyph glyph-name="j.sups" horiz-adv-x="206" 
d="M64 680h87v-350h-166v70h79v280zM151 696h-87v70h87v-70z" />
    <glyph glyph-name="k.sups" horiz-adv-x="345" 
d="M143 560l75 120h99l-85 -120l88 -144h-99zM142 416h-87v350h87v-350z" />
    <glyph glyph-name="l.sups" horiz-adv-x="197" 
d="M55 416v350h87v-350h-87z" />
    <glyph glyph-name="m.sups" horiz-adv-x="498" 
d="M359 416v166q0 15 -6.5 24.5t-21.5 9.5q-16 0 -26.5 -11.5t-10.5 -35.5v-153h-87v166q0 15 -6.5 24.5t-21.5 9.5q-16 0 -26.5 -11.5t-10.5 -35.5v-153h-87v264h87v-39q10 22 30 33.5t43 11.5q27 0 46 -12t28 -38q13 26 33 38t45 12q35 0 57 -24t22 -78v-168h-87z" />
    <glyph glyph-name="o.sups" horiz-adv-x="341" 
d="M214 580q0 19 -12.5 28.5t-31.5 9.5t-31.5 -9.5t-12.5 -28.5v-64q0 -19 12.5 -28.5t31.5 -9.5t31.5 9.5t12.5 28.5v64zM305 548q0 -63 -36 -100.5t-99 -37.5t-98.5 37.5t-35.5 100.5t35.5 100.5t98.5 37.5t99 -37.5t36 -100.5z" />
    <glyph glyph-name="p.sups" horiz-adv-x="359" 
d="M141 529q0 -51 46 -51q20 0 31 9.5t11 29.5v63q0 20 -11 29.5t-31 9.5q-46 0 -46 -52v-38zM55 330v350h86v-37q12 20 30.5 31.5t47.5 11.5q27 0 46.5 -11t32 -29.5t18.5 -43.5t6 -53t-6.5 -53.5t-19 -44.5t-32.5 -30t-47 -11q-26 0 -45 12t-31 32v-124h-86z" />
    <glyph glyph-name="q.sups" horiz-adv-x="359" 
d="M218 330v124q-12 -20 -30.5 -32t-47.5 -12q-26 0 -45.5 11t-32.5 30t-19 44.5t-6 53.5t6 53t19 43.5t33 29.5t47 11q26 0 45 -11.5t31 -31.5v37h86v-350h-86zM218 567q0 52 -46 52q-20 0 -31 -9.5t-11 -29.5v-63q0 -20 11 -29.5t31 -9.5q46 0 46 51v38z" />
    <glyph glyph-name="r.sups" horiz-adv-x="250" 
d="M55 680h171v-71h-85v-193h-86v264z" />
    <glyph glyph-name="s.sups" horiz-adv-x="312" 
d="M158 410q-56 0 -88.5 23t-34.5 66h87q1 -26 36 -26q14 0 23 5.5t9 14.5q0 12 -9.5 16t-26.5 7l-37 7q-35 7 -55.5 26t-20.5 54q0 39 32 61t81 22q50 0 80.5 -21t32.5 -65h-86q-1 26 -28 26t-27 -19q0 -11 7.5 -15t20.5 -7l48 -10q33 -7 53.5 -26.5t20.5 -54.5
t-30.5 -59.5t-87.5 -24.5z" />
    <glyph glyph-name="t.sups" horiz-adv-x="278" 
d="M169 486h65v-70h-152v194h-51v70h51v86h87v-86h65v-70h-65v-124z" />
    <glyph glyph-name="u.sups" horiz-adv-x="354" 
d="M212 455q-12 -21 -31 -33t-46 -12q-39 0 -61.5 24t-22.5 73v173h87v-161q0 -18 7 -28.5t25 -10.5q20 0 31 14t11 37v149h87v-264h-87v39z" />
    <glyph glyph-name="v.sups" horiz-adv-x="326" 
d="M114 416l-94 264h96l45 -160h4l47 160h93l-93 -264h-98z" />
    <glyph glyph-name="w.sups" horiz-adv-x="463" 
d="M261 416l-28 151h-6l-25 -151h-98l-77 264h96l29 -145h4l23 145h102l27 -145h4l31 145h94l-79 -264h-97z" />
    <glyph glyph-name="x.sups" horiz-adv-x="343" 
d="M112 553l-81 127h104l36 -67h4l36 67h100l-79 -123l88 -141h-102l-42 79h-4l-44 -79h-105z" />
    <glyph glyph-name="y.sups" horiz-adv-x="324" 
d="M165 521l47 159h93l-127 -350h-139v70h70l6 17l-96 263h96l46 -159h4z" />
    <glyph glyph-name="z.sups" horiz-adv-x="307" 
d="M38 416v70l111 122v2h-101v70h215v-69l-113 -123v-2h117v-70h-229z" />
    <glyph glyph-name="egrave.sups" horiz-adv-x="328" 
d="M36 549q0 63 35 100t93 37q29 0 52.5 -9.5t40 -26.5t25.5 -39.5t9 -49.5v-40h-167v-8q0 -16 12 -26.5t29 -10.5q30 0 38 24h86q-8 -41 -41 -65.5t-84 -24.5q-61 0 -94.5 38.5t-33.5 100.5zM124 576h79v8q0 18 -11 28t-28 10q-18 0 -29 -10t-11 -28v-8zM205 713h-66
l-67 67h86z" />
    <glyph glyph-name="eacute.sups" horiz-adv-x="328" 
d="M166 780h86l-67 -67h-66zM124 576h79v8q0 18 -11 28t-28 10q-18 0 -29 -10t-11 -28v-8zM36 549q0 63 35 100t93 37q29 0 52.5 -9.5t40 -26.5t25.5 -39.5t9 -49.5v-40h-167v-8q0 -16 12 -26.5t29 -10.5q30 0 38 24h86q-8 -41 -41 -65.5t-84 -24.5q-61 0 -94.5 38.5
t-33.5 100.5z" />
    <glyph glyph-name="parenleft.numr" horiz-adv-x="229" 
d="M132 451q0 -42 20.5 -86t52.5 -87h-83q-35 45 -57 98t-22 130q0 76 22 129t57 98h83q-35 -47 -54 -89t-19 -84v-109z" />
    <glyph glyph-name="parenright.numr" horiz-adv-x="229" 
d="M97 560q0 42 -19 84t-54 89h83q17 -23 31.5 -46.5t25 -51t16.5 -59.5t6 -70q0 -77 -22 -130t-57 -98h-83q32 43 52.5 87t20.5 86v109z" />
    <glyph glyph-name="comma.numr" horiz-adv-x="193" 
d="M145 330l-44 -83h-51l43 83h-45v94h97v-94z" />
    <glyph glyph-name="period.numr" horiz-adv-x="193" 
d="M145 330h-97v94h97v-94z" />
    <glyph glyph-name="zero.numr" horiz-adv-x="374" 
d="M334 505q0 -39 -8 -72.5t-26 -58t-46 -38.5t-67 -14t-67 14t-46 38.5t-26 58t-8 72.5t8 72.5t26 58t46 38.5t67 14t67 -14t46 -38.5t26 -58t8 -72.5zM187 392q55 0 55 50v125q0 51 -55 51t-55 -51v-125q0 -50 55 -50z" />
    <glyph glyph-name="one.numr" horiz-adv-x="295" 
d="M230 330h-86v220h-111v70h111v60h86v-350z" />
    <glyph glyph-name="two.numr" horiz-adv-x="353" 
d="M43 330v68l136 123q16 14 29 29t13 32t-11.5 27t-31.5 10q-51 0 -51 -52h-86q0 60 40 90.5t100 30.5t93 -29t33 -74q0 -21 -5.5 -37t-14 -29t-19 -23.5t-20.5 -19.5l-86 -73v-3h151v-70h-270z" />
    <glyph glyph-name="three.numr" horiz-adv-x="357" 
d="M131 476v66h67q25 0 25 23v23q0 14 -12.5 22.5t-31.5 8.5q-21 0 -35 -9.5t-14 -30.5h-86q2 49 36.5 79t100.5 30q63 0 95.5 -30t32.5 -71q0 -30 -15 -49.5t-41 -28.5q64 -18 64 -79q0 -47 -36.5 -77.5t-99.5 -30.5t-103.5 29.5t-42.5 89.5h86q2 -29 17 -39.5t41 -10.5
q28 0 40 9.5t12 24.5v27q0 24 -28 24h-72z" />
    <glyph glyph-name="four.numr" horiz-adv-x="369" 
d="M191 330v70h-162v70l152 210h94v-210h63v-70h-63v-70h-84zM193 585h-4l-80 -115h84v115z" />
    <glyph glyph-name="five.numr" horiz-adv-x="353" 
d="M43 474l16 206h234v-70h-161l-6 -73q16 17 34 25t44 8q50 0 81 -34t31 -87q0 -55 -36 -91t-99 -36t-100 28t-43 84h86q5 -43 56 -43q23 0 36.5 10t13.5 29v34q0 19 -13.5 28t-35.5 9q-33 0 -54 -27h-84z" />
    <glyph glyph-name="six.numr" horiz-adv-x="367" 
d="M187 322q-78 0 -112.5 48.5t-34.5 127.5q0 40 8.5 75t27 60.5t47 40t67.5 14.5q60 0 92.5 -28.5t37.5 -75.5h-86q-5 35 -48 35q-26 0 -41 -14.5t-15 -40.5v-37q27 36 80 36t85.5 -33t32.5 -83q0 -24 -9 -46.5t-27 -40t-44.5 -28t-60.5 -10.5zM186 391q24 0 40 11t16 32
v20q0 21 -16 31.5t-40 10.5t-40.5 -10.5t-16.5 -31.5v-20q0 -21 16.5 -32t40.5 -11z" />
    <glyph glyph-name="seven.numr" horiz-adv-x="317" 
d="M148 330h-94l144 280h-169v70h262v-56z" />
    <glyph glyph-name="eight.numr" horiz-adv-x="370" 
d="M185 322q-30 0 -56.5 6t-46.5 19t-31.5 32t-11.5 45q0 32 17.5 54.5t47.5 33.5q-54 23 -54 81q0 22 10.5 40t29 30t43 18.5t52.5 6.5t52.5 -6.5t43 -18.5t29 -30t10.5 -40q0 -58 -54 -81q30 -11 47.5 -33.5t17.5 -54.5q0 -26 -11.5 -45t-31.5 -32t-46.5 -19t-56.5 -6z
M234 588q0 17 -15 24t-34 7t-34 -7t-15 -24v-13q0 -16 15 -23t34 -7t34 7t15 23v13zM125 426q0 -18 17.5 -26.5t42.5 -8.5t42.5 8.5t17.5 26.5v20q0 17 -17.5 25t-42.5 8t-42.5 -8t-17.5 -25v-20z" />
    <glyph glyph-name="nine.numr" horiz-adv-x="367" 
d="M181 688q78 0 112 -47.5t34 -126.5q0 -41 -8 -76t-25.5 -61t-45.5 -40.5t-67 -14.5q-63 0 -96 28.5t-38 75.5h86q5 -35 48 -35q26 0 41 14.5t15 40.5v37q-27 -36 -80 -36t-85.5 33.5t-32.5 83.5q0 24 9 46.5t27 39.5t44.5 27.5t61.5 10.5zM181 619q-24 0 -40 -11t-16 -32
v-20q0 -21 16 -31.5t40 -10.5t40.5 10.5t16.5 31.5v20q0 21 -16.5 32t-40.5 11z" />
    <glyph glyph-name="bracketleft.numr" horiz-adv-x="251" 
d="M216 722v-65h-65v-325h65v-65h-151v455h151z" />
    <glyph glyph-name="bracketright.numr" horiz-adv-x="251" 
d="M186 268h-151v65h65v325h-65v65h151v-455z" />
    <glyph glyph-name="a.numr" horiz-adv-x="338" 
d="M167 601q53 0 83 -23t30 -68v-109h45v-70h-126v39h-4q-25 -45 -75 -45q-37 0 -61 22q-11 11 -17 26t-6 32q0 35 21.5 57t64.5 26l72 7v18q0 13 -8 19t-22 6t-23.5 -6.5t-9.5 -20.5h-86q2 45 36.5 67.5t85.5 22.5zM151 391q20 0 31.5 12t11.5 31v6l-54 -5q-14 -1 -14 -17
v-11q0 -16 25 -16z" />
    <glyph glyph-name="b.numr" horiz-adv-x="357" 
d="M141 444q0 -51 46 -51q20 0 31 9.5t11 29.5v63q0 20 -11 29.5t-31 9.5q-46 0 -46 -52v-38zM55 331v350h86v-123q12 20 30.5 31.5t47.5 11.5q27 0 46.5 -11t32 -29.5t18.5 -43.5t6 -53t-6.5 -53.5t-19 -44.5t-32.5 -30t-47 -11q-26 0 -45 12t-31 32v-38h-86z" />
    <glyph glyph-name="c.numr" horiz-adv-x="320" 
d="M36 462q0 67 34.5 103t94.5 36q45 0 79.5 -22.5t39.5 -75.5h-86q-2 19 -11.5 26.5t-23.5 7.5q-15 0 -26 -9.5t-11 -28.5v-70q0 -18 11 -28t28 -10q14 0 24 7.5t12 24.5h85q-6 -53 -41 -75.5t-80 -22.5q-62 0 -95.5 37.5t-33.5 99.5z" />
    <glyph glyph-name="d.numr" horiz-adv-x="357" 
d="M218 482q0 52 -46 52q-20 0 -31 -9.5t-11 -29.5v-63q0 -20 11 -29.5t31 -9.5q46 0 46 51v38zM218 331v38q-12 -20 -30.5 -32t-47.5 -12q-26 0 -45.5 11t-32.5 30t-19 44.5t-6 53.5t6 53t19 43.5t33 29.5t47 11q26 0 45 -11.5t31 -31.5v123h86v-350h-86z" />
    <glyph glyph-name="e.numr" horiz-adv-x="327" 
d="M124 491h79v8q0 18 -11 28t-28 10q-18 0 -29 -10t-11 -28v-8zM36 464q0 63 35 100t93 37q29 0 52.5 -9.5t40 -26.5t25.5 -39.5t9 -49.5v-40h-167v-8q0 -16 12 -26.5t29 -10.5q30 0 38 24h86q-8 -41 -41 -65.5t-84 -24.5q-61 0 -94.5 38.5t-33.5 100.5z" />
    <glyph glyph-name="f.numr" horiz-adv-x="256" 
d="M167 595h65v-65h-65v-199h-86v199h-53v65h53v86h157v-65h-71v-21z" />
    <glyph glyph-name="g.numr" horiz-adv-x="358" 
d="M304 352q0 -29 -10.5 -50t-28.5 -35t-41 -21t-48 -7q-51 0 -85.5 18.5t-43.5 67.5h83q2 -11 13.5 -15.5t29.5 -4.5t31.5 9.5t13.5 35.5v35q-12 -20 -30.5 -32t-47.5 -12q-26 0 -45.5 10.5t-32.5 28.5t-19 41.5t-6 50.5t6 50.5t19 41t33 27.5t47 10q26 0 45 -11.5
t31 -31.5v37h86v-243zM218 482q0 52 -46 52q-20 0 -31 -9.5t-11 -29.5v-47q0 -20 11 -29.5t31 -9.5q46 0 46 51v22z" />
    <glyph glyph-name="h.numr" horiz-adv-x="356" 
d="M142 556q12 21 31 33t47 12q40 0 62.5 -24t22.5 -73v-173h-87v161q0 18 -7 28.5t-26 10.5q-21 0 -32 -14t-11 -37v-149h-87v350h87v-125z" />
    <glyph glyph-name="i.numr" horiz-adv-x="195" 
d="M55 331v264h87v-264h-87zM142 611h-87v70h87v-70z" />
    <glyph glyph-name="j.numr" horiz-adv-x="205" 
d="M64 595h87v-350h-166v70h79v280zM151 611h-87v70h87v-70z" />
    <glyph glyph-name="k.numr" horiz-adv-x="343" 
d="M143 475l75 120h99l-85 -120l88 -144h-99zM142 331h-87v350h87v-350z" />
    <glyph glyph-name="l.numr" horiz-adv-x="195" 
d="M55 331v350h87v-350h-87z" />
    <glyph glyph-name="m.numr" horiz-adv-x="497" 
d="M359 331v166q0 15 -6.5 24.5t-21.5 9.5q-16 0 -26.5 -11.5t-10.5 -35.5v-153h-87v166q0 15 -6.5 24.5t-21.5 9.5q-16 0 -26.5 -11.5t-10.5 -35.5v-153h-87v264h87v-39q10 22 30 33.5t43 11.5q27 0 46 -12t28 -38q13 26 33 38t45 12q35 0 57 -24t22 -78v-168h-87z" />
    <glyph glyph-name="n.numr" horiz-adv-x="356" 
d="M218 331v161q0 18 -7 28.5t-26 10.5q-21 0 -32 -14t-11 -37v-149h-87v264h87v-39q12 21 31 33t47 12q40 0 62.5 -24t22.5 -73v-173h-87z" />
    <glyph glyph-name="o.numr" horiz-adv-x="339" 
d="M214 495q0 19 -12.5 28.5t-31.5 9.5t-31.5 -9.5t-12.5 -28.5v-64q0 -19 12.5 -28.5t31.5 -9.5t31.5 9.5t12.5 28.5v64zM305 463q0 -63 -36 -100.5t-99 -37.5t-98.5 37.5t-35.5 100.5t35.5 100.5t98.5 37.5t99 -37.5t36 -100.5z" />
    <glyph glyph-name="p.numr" horiz-adv-x="357" 
d="M141 444q0 -51 46 -51q20 0 31 9.5t11 29.5v63q0 20 -11 29.5t-31 9.5q-46 0 -46 -52v-38zM55 245v350h86v-37q12 20 30.5 31.5t47.5 11.5q27 0 46.5 -11t32 -29.5t18.5 -43.5t6 -53t-6.5 -53.5t-19 -44.5t-32.5 -30t-47 -11q-26 0 -45 12t-31 32v-124h-86z" />
    <glyph glyph-name="q.numr" horiz-adv-x="357" 
d="M218 245v124q-12 -20 -30.5 -32t-47.5 -12q-26 0 -45.5 11t-32.5 30t-19 44.5t-6 53.5t6 53t19 43.5t33 29.5t47 11q26 0 45 -11.5t31 -31.5v37h86v-350h-86zM218 482q0 52 -46 52q-20 0 -31 -9.5t-11 -29.5v-63q0 -20 11 -29.5t31 -9.5q46 0 46 51v38z" />
    <glyph glyph-name="r.numr" horiz-adv-x="250" 
d="M55 595h171v-71h-85v-193h-86v264z" />
    <glyph glyph-name="s.numr" horiz-adv-x="311" 
d="M158 325q-56 0 -88.5 23t-34.5 66h87q1 -26 36 -26q14 0 23 5.5t9 14.5q0 12 -9.5 16t-26.5 7l-37 7q-35 7 -55.5 26t-20.5 54q0 39 32 61t81 22q50 0 80.5 -21t32.5 -65h-86q-1 26 -28 26t-27 -19q0 -11 7.5 -15t20.5 -7l48 -10q33 -7 53.5 -26.5t20.5 -54.5
t-30.5 -59.5t-87.5 -24.5z" />
    <glyph glyph-name="t.numr" horiz-adv-x="278" 
d="M169 401h65v-70h-152v194h-51v70h51v86h87v-86h65v-70h-65v-124z" />
    <glyph glyph-name="u.numr" horiz-adv-x="353" 
d="M212 370q-12 -21 -31 -33t-46 -12q-39 0 -61.5 24t-22.5 73v173h87v-161q0 -18 7 -28.5t25 -10.5q20 0 31 14t11 37v149h87v-264h-87v39z" />
    <glyph glyph-name="v.numr" horiz-adv-x="326" 
d="M114 331l-94 264h96l45 -160h4l47 160h93l-93 -264h-98z" />
    <glyph glyph-name="w.numr" horiz-adv-x="461" 
d="M261 331l-28 151h-6l-25 -151h-98l-77 264h96l29 -145h4l23 145h102l27 -145h4l31 145h94l-79 -264h-97z" />
    <glyph glyph-name="x.numr" horiz-adv-x="341" 
d="M112 468l-81 127h104l36 -67h4l36 67h100l-79 -123l88 -141h-102l-42 79h-4l-44 -79h-105z" />
    <glyph glyph-name="y.numr" horiz-adv-x="324" 
d="M165 436l47 159h93l-127 -350h-139v70h70l6 17l-96 263h96l46 -159h4z" />
    <glyph glyph-name="z.numr" horiz-adv-x="307" 
d="M38 331v70l111 122v2h-101v70h215v-69l-113 -123v-2h117v-70h-229z" />
    <glyph glyph-name="egrave.numr" horiz-adv-x="327" 
d="M36 454q0 63 35 100t93 37q29 0 52.5 -9.5t40 -26.5t25.5 -39.5t9 -49.5v-40h-167v-8q0 -16 12 -26.5t29 -10.5q30 0 38 24h86q-8 -41 -41 -65.5t-84 -24.5q-61 0 -94.5 38.5t-33.5 100.5zM124 481h79v8q0 18 -11 28t-28 10q-18 0 -29 -10t-11 -28v-8zM205 618h-66
l-67 67h86z" />
    <glyph glyph-name="eacute.numr" horiz-adv-x="327" 
d="M166 685h86l-67 -67h-66zM124 481h79v8q0 18 -11 28t-28 10q-18 0 -29 -10t-11 -28v-8zM36 454q0 63 35 100t93 37q29 0 52.5 -9.5t40 -26.5t25.5 -39.5t9 -49.5v-40h-167v-8q0 -16 12 -26.5t29 -10.5q30 0 38 24h86q-8 -41 -41 -65.5t-84 -24.5q-61 0 -94.5 38.5
t-33.5 100.5z" />
    <glyph glyph-name="parenleft.dnom" horiz-adv-x="230" 
d="M132 121q0 -42 20.5 -86t52.5 -87h-83q-35 45 -57 98t-22 130q0 76 22 129t57 98h83q-35 -47 -54 -89t-19 -84v-109z" />
    <glyph glyph-name="parenright.dnom" horiz-adv-x="230" 
d="M98 230q0 42 -19 84t-54 89h83q17 -23 31.5 -46.5t25 -51t16.5 -59.5t6 -70q0 -77 -22 -130t-57 -98h-83q32 43 52.5 87t20.5 86v109z" />
    <glyph glyph-name="comma.dnom" horiz-adv-x="195" 
d="M146 0l-44 -83h-51l43 83h-45v94h97v-94z" />
    <glyph glyph-name="period.dnom" horiz-adv-x="193" 
d="M145 0h-97v94h97v-94z" />
    <glyph glyph-name="zero.dnom" horiz-adv-x="374" 
d="M334 175q0 -39 -8 -72.5t-26 -58t-46 -38.5t-67 -14t-67 14t-46 38.5t-26 58t-8 72.5t8 72.5t26 58t46 38.5t67 14t67 -14t46 -38.5t26 -58t8 -72.5zM187 62q55 0 55 50v125q0 51 -55 51t-55 -51v-125q0 -50 55 -50z" />
    <glyph glyph-name="one.dnom" horiz-adv-x="294" 
d="M229 0h-86v220h-111v70h111v60h86v-350z" />
    <glyph glyph-name="two.dnom" horiz-adv-x="353" 
d="M42 0v68l136 123q16 14 29 29t13 32t-11.5 27t-31.5 10q-51 0 -51 -52h-86q0 60 40 90.5t100 30.5t93 -29t33 -74q0 -21 -5.5 -37t-14 -29t-19 -23.5t-20.5 -19.5l-86 -73v-3h151v-70h-270z" />
    <glyph glyph-name="three.dnom" horiz-adv-x="357" 
d="M131 146v66h67q25 0 25 23v23q0 14 -12.5 22.5t-31.5 8.5q-21 0 -35 -9.5t-14 -30.5h-86q2 49 36.5 79t100.5 30q63 0 95.5 -30t32.5 -71q0 -30 -15 -49.5t-41 -28.5q64 -18 64 -79q0 -47 -36.5 -77.5t-99.5 -30.5t-103.5 29.5t-42.5 89.5h86q2 -29 17 -39.5t41 -10.5
q28 0 40 9.5t12 24.5v27q0 24 -28 24h-72z" />
    <glyph glyph-name="four.dnom" horiz-adv-x="369" 
d="M191 0v70h-162v70l152 210h94v-210h63v-70h-63v-70h-84zM193 255h-4l-80 -115h84v115z" />
    <glyph glyph-name="five.dnom" horiz-adv-x="354" 
d="M44 144l16 206h234v-70h-161l-6 -73q16 17 34 25t44 8q50 0 81 -34t31 -87q0 -55 -36 -91t-99 -36t-100 28t-43 84h86q5 -43 56 -43q23 0 36.5 10t13.5 29v34q0 19 -13.5 28t-35.5 9q-33 0 -54 -27h-84z" />
    <glyph glyph-name="six.dnom" horiz-adv-x="367" 
d="M187 -8q-78 0 -112.5 48.5t-34.5 127.5q0 40 8.5 75t27 60.5t47 40t67.5 14.5q60 0 92.5 -28.5t37.5 -75.5h-86q-5 35 -48 35q-26 0 -41 -14.5t-15 -40.5v-37q27 36 80 36t85.5 -33t32.5 -83q0 -24 -9 -46.5t-27 -40t-44.5 -28t-60.5 -10.5zM186 61q24 0 40 11t16 32v20
q0 21 -16 31.5t-40 10.5t-40.5 -10.5t-16.5 -31.5v-20q0 -21 16.5 -32t40.5 -11z" />
    <glyph glyph-name="seven.dnom" horiz-adv-x="317" 
d="M149 0h-94l144 280h-169v70h262v-56z" />
    <glyph glyph-name="eight.dnom" horiz-adv-x="370" 
d="M185 -8q-30 0 -56.5 6t-46.5 19t-31.5 32t-11.5 45q0 32 17.5 54.5t47.5 33.5q-54 23 -54 81q0 22 10.5 40t29 30t43 18.5t52.5 6.5t52.5 -6.5t43 -18.5t29 -30t10.5 -40q0 -58 -54 -81q30 -11 47.5 -33.5t17.5 -54.5q0 -26 -11.5 -45t-31.5 -32t-46.5 -19t-56.5 -6z
M234 258q0 17 -15 24t-34 7t-34 -7t-15 -24v-13q0 -16 15 -23t34 -7t34 7t15 23v13zM125 96q0 -18 17.5 -26.5t42.5 -8.5t42.5 8.5t17.5 26.5v20q0 17 -17.5 25t-42.5 8t-42.5 -8t-17.5 -25v-20z" />
    <glyph glyph-name="nine.dnom" horiz-adv-x="367" 
d="M181 358q78 0 112 -47.5t34 -126.5q0 -41 -8 -76t-25.5 -61t-45.5 -40.5t-67 -14.5q-63 0 -96 28.5t-38 75.5h86q5 -35 48 -35q26 0 41 14.5t15 40.5v37q-27 -36 -80 -36t-85.5 33.5t-32.5 83.5q0 24 9 46.5t27 39.5t44.5 27.5t61.5 10.5zM181 289q-24 0 -40 -11t-16 -32
v-20q0 -21 16 -31.5t40 -10.5t40.5 10.5t16.5 31.5v20q0 21 -16.5 32t-40.5 11z" />
    <glyph glyph-name="bracketleft.dnom" horiz-adv-x="251" 
d="M216 403v-65h-65v-325h65v-65h-151v455h151z" />
    <glyph glyph-name="bracketright.dnom" horiz-adv-x="251" 
d="M186 -52h-151v65h65v325h-65v65h151v-455z" />
    <glyph glyph-name="a.dnom" horiz-adv-x="341" 
d="M167 271q53 0 83 -23t30 -68v-109h45v-70h-126v39h-4q-25 -45 -75 -45q-37 0 -61 22q-11 11 -17 26t-6 32q0 35 21.5 57t64.5 26l72 7v18q0 13 -8 19t-22 6t-23.5 -6.5t-9.5 -20.5h-86q2 45 36.5 67.5t85.5 22.5zM151 61q20 0 31.5 12t11.5 31v6l-54 -5q-14 -1 -14 -17
v-11q0 -16 25 -16z" />
    <glyph glyph-name="b.dnom" horiz-adv-x="359" 
d="M141 114q0 -51 46 -51q20 0 31 9.5t11 29.5v63q0 20 -11 29.5t-31 9.5q-46 0 -46 -52v-38zM55 1v350h86v-123q12 20 30.5 31.5t47.5 11.5q27 0 46.5 -11t32 -29.5t18.5 -43.5t6 -53t-6.5 -53.5t-19 -44.5t-32.5 -30t-47 -11q-26 0 -45 12t-31 32v-38h-86z" />
    <glyph glyph-name="c.dnom" horiz-adv-x="320" 
d="M36 132q0 67 34.5 103t94.5 36q45 0 79.5 -22.5t39.5 -75.5h-86q-2 19 -11.5 26.5t-23.5 7.5q-15 0 -26 -9.5t-11 -28.5v-70q0 -18 11 -28t28 -10q14 0 24 7.5t12 24.5h85q-6 -53 -41 -75.5t-80 -22.5q-62 0 -95.5 37.5t-33.5 99.5z" />
    <glyph glyph-name="d.dnom" horiz-adv-x="359" 
d="M218 152q0 52 -46 52q-20 0 -31 -9.5t-11 -29.5v-63q0 -20 11 -29.5t31 -9.5q46 0 46 51v38zM218 1v38q-12 -20 -30.5 -32t-47.5 -12q-26 0 -45.5 11t-32.5 30t-19 44.5t-6 53.5t6 53t19 43.5t33 29.5t47 11q26 0 45 -11.5t31 -31.5v123h86v-350h-86z" />
    <glyph glyph-name="e.dnom" horiz-adv-x="328" 
d="M124 161h79v8q0 18 -11 28t-28 10q-18 0 -29 -10t-11 -28v-8zM36 134q0 63 35 100t93 37q29 0 52.5 -9.5t40 -26.5t25.5 -39.5t9 -49.5v-40h-167v-8q0 -16 12 -26.5t29 -10.5q30 0 38 24h86q-8 -41 -41 -65.5t-84 -24.5q-61 0 -94.5 38.5t-33.5 100.5z" />
    <glyph glyph-name="f.dnom" horiz-adv-x="257" 
d="M167 265h65v-65h-65v-199h-86v199h-53v65h53v86h157v-65h-71v-21z" />
    <glyph glyph-name="g.dnom" horiz-adv-x="359" 
d="M304 22q0 -29 -10.5 -50t-28.5 -35t-41 -21t-48 -7q-51 0 -85.5 18.5t-43.5 67.5h83q2 -11 13.5 -15.5t29.5 -4.5t31.5 9.5t13.5 35.5v35q-12 -20 -30.5 -32t-47.5 -12q-26 0 -45.5 10.5t-32.5 28.5t-19 41.5t-6 50.5t6 50.5t19 41t33 27.5t47 10q26 0 45 -11.5t31 -31.5
v37h86v-243zM218 152q0 52 -46 52q-20 0 -31 -9.5t-11 -29.5v-47q0 -20 11 -29.5t31 -9.5q46 0 46 51v22z" />
    <glyph glyph-name="h.dnom" horiz-adv-x="357" 
d="M142 226q12 21 31 33t47 12q40 0 62.5 -24t22.5 -73v-173h-87v161q0 18 -7 28.5t-26 10.5q-21 0 -32 -14t-11 -37v-149h-87v350h87v-125z" />
    <glyph glyph-name="i.dnom" horiz-adv-x="197" 
d="M55 1v264h87v-264h-87zM142 281h-87v70h87v-70z" />
    <glyph glyph-name="j.dnom" horiz-adv-x="206" 
d="M64 265h87v-350h-166v70h79v280zM151 281h-87v70h87v-70z" />
    <glyph glyph-name="k.dnom" horiz-adv-x="345" 
d="M143 145l75 120h99l-85 -120l88 -144h-99zM142 1h-87v350h87v-350z" />
    <glyph glyph-name="l.dnom" horiz-adv-x="197" 
d="M55 1v350h87v-350h-87z" />
    <glyph glyph-name="m.dnom" horiz-adv-x="498" 
d="M359 1v166q0 15 -6.5 24.5t-21.5 9.5q-16 0 -26.5 -11.5t-10.5 -35.5v-153h-87v166q0 15 -6.5 24.5t-21.5 9.5q-16 0 -26.5 -11.5t-10.5 -35.5v-153h-87v264h87v-39q10 22 30 33.5t43 11.5q27 0 46 -12t28 -38q13 26 33 38t45 12q35 0 57 -24t22 -78v-168h-87z" />
    <glyph glyph-name="n.dnom" horiz-adv-x="357" 
d="M218 1v161q0 18 -7 28.5t-26 10.5q-21 0 -32 -14t-11 -37v-149h-87v264h87v-39q12 21 31 33t47 12q40 0 62.5 -24t22.5 -73v-173h-87z" />
    <glyph glyph-name="o.dnom" horiz-adv-x="341" 
d="M214 165q0 19 -12.5 28.5t-31.5 9.5t-31.5 -9.5t-12.5 -28.5v-64q0 -19 12.5 -28.5t31.5 -9.5t31.5 9.5t12.5 28.5v64zM305 133q0 -63 -36 -100.5t-99 -37.5t-98.5 37.5t-35.5 100.5t35.5 100.5t98.5 37.5t99 -37.5t36 -100.5z" />
    <glyph glyph-name="p.dnom" horiz-adv-x="359" 
d="M141 114q0 -51 46 -51q20 0 31 9.5t11 29.5v63q0 20 -11 29.5t-31 9.5q-46 0 -46 -52v-38zM55 -85v350h86v-37q12 20 30.5 31.5t47.5 11.5q27 0 46.5 -11t32 -29.5t18.5 -43.5t6 -53t-6.5 -53.5t-19 -44.5t-32.5 -30t-47 -11q-26 0 -45 12t-31 32v-124h-86z" />
    <glyph glyph-name="q.dnom" horiz-adv-x="359" 
d="M218 -85v124q-12 -20 -30.5 -32t-47.5 -12q-26 0 -45.5 11t-32.5 30t-19 44.5t-6 53.5t6 53t19 43.5t33 29.5t47 11q26 0 45 -11.5t31 -31.5v37h86v-350h-86zM218 152q0 52 -46 52q-20 0 -31 -9.5t-11 -29.5v-63q0 -20 11 -29.5t31 -9.5q46 0 46 51v38z" />
    <glyph glyph-name="r.dnom" horiz-adv-x="250" 
d="M55 265h171v-71h-85v-193h-86v264z" />
    <glyph glyph-name="s.dnom" horiz-adv-x="312" 
d="M158 -5q-56 0 -88.5 23t-34.5 66h87q1 -26 36 -26q14 0 23 5.5t9 14.5q0 12 -9.5 16t-26.5 7l-37 7q-35 7 -55.5 26t-20.5 54q0 39 32 61t81 22q50 0 80.5 -21t32.5 -65h-86q-1 26 -28 26t-27 -19q0 -11 7.5 -15t20.5 -7l48 -10q33 -7 53.5 -26.5t20.5 -54.5t-30.5 -59.5
t-87.5 -24.5z" />
    <glyph glyph-name="t.dnom" horiz-adv-x="278" 
d="M169 71h65v-70h-152v194h-51v70h51v86h87v-86h65v-70h-65v-124z" />
    <glyph glyph-name="u.dnom" horiz-adv-x="354" 
d="M212 40q-12 -21 -31 -33t-46 -12q-39 0 -61.5 24t-22.5 73v173h87v-161q0 -18 7 -28.5t25 -10.5q20 0 31 14t11 37v149h87v-264h-87v39z" />
    <glyph glyph-name="v.dnom" horiz-adv-x="326" 
d="M114 1l-94 264h96l45 -160h4l47 160h93l-93 -264h-98z" />
    <glyph glyph-name="w.dnom" horiz-adv-x="463" 
d="M261 1l-28 151h-6l-25 -151h-98l-77 264h96l29 -145h4l23 145h102l27 -145h4l31 145h94l-79 -264h-97z" />
    <glyph glyph-name="x.dnom" horiz-adv-x="343" 
d="M112 138l-81 127h104l36 -67h4l36 67h100l-79 -123l88 -141h-102l-42 79h-4l-44 -79h-105z" />
    <glyph glyph-name="y.dnom" horiz-adv-x="324" 
d="M165 106l47 159h93l-127 -350h-139v70h70l6 17l-96 263h96l46 -159h4z" />
    <glyph glyph-name="z.dnom" horiz-adv-x="307" 
d="M38 1v70l111 122v2h-101v70h215v-69l-113 -123v-2h117v-70h-229z" />
    <glyph glyph-name="egrave.dnom" horiz-adv-x="328" 
d="M36 134q0 63 35 100t93 37q29 0 52.5 -9.5t40 -26.5t25.5 -39.5t9 -49.5v-40h-167v-8q0 -16 12 -26.5t29 -10.5q30 0 38 24h86q-8 -41 -41 -65.5t-84 -24.5q-61 0 -94.5 38.5t-33.5 100.5zM124 161h79v8q0 18 -11 28t-28 10q-18 0 -29 -10t-11 -28v-8zM205 298h-66
l-67 67h86z" />
    <glyph glyph-name="eacute.dnom" horiz-adv-x="328" 
d="M166 365h86l-67 -67h-66zM124 161h79v8q0 18 -11 28t-28 10q-18 0 -29 -10t-11 -28v-8zM36 134q0 63 35 100t93 37q29 0 52.5 -9.5t40 -26.5t25.5 -39.5t9 -49.5v-40h-167v-8q0 -16 12 -26.5t29 -10.5q30 0 38 24h86q-8 -41 -41 -65.5t-84 -24.5q-61 0 -94.5 38.5
t-33.5 100.5z" />
    <glyph glyph-name="space.frac" horiz-adv-x="51" 
 />
    <glyph glyph-name="zero.tf" 
d="M552 340q0 -75 -11 -140t-39.5 -112.5t-77 -75t-123.5 -27.5t-123.5 27.5t-77 75t-39.5 112.5t-11 140t11 140t39.5 112.5t77 75t123.5 27.5t123.5 -27.5t77 -75t39.5 -112.5t11 -140zM301 90q116 0 116 118v264q0 118 -116 118t-116 -118v-264q0 -118 116 -118z" />
    <glyph glyph-name="one.tf" 
d="M78 105h185v366h-185v105h185v104h125v-575h170v-105h-480v105z" />
    <glyph glyph-name="two.tf" 
d="M222 105h316v-105h-476v106l274 267q31 29 48.5 58.5t17.5 63.5q0 45 -28 70t-72 25q-52 0 -81 -28.5t-29 -81.5h-127q0 49 18 88.5t50.5 67.5t76.5 43.5t96 15.5t93.5 -14.5t70 -40.5t43.5 -63t15 -82q0 -30 -8.5 -57.5t-22 -52t-31.5 -45.5t-37 -39l-207 -194v-2z" />
    <glyph glyph-name="three.tf" 
d="M204 297v104h134q33 0 46 16t13 42v54q0 39 -28.5 58t-70.5 19q-47 0 -76.5 -21t-32.5 -68h-127q0 45 17 81t48 61t74.5 38.5t96.5 13.5q52 0 95 -13t73.5 -37t47 -58t16.5 -75q0 -60 -24.5 -99.5t-74.5 -62.5q55 -23 83 -61t28 -104q0 -47 -18 -84.5t-51 -63t-78.5 -39
t-99.5 -13.5q-53 0 -98 13t-79 39.5t-53 66.5t-19 94h127q2 -57 36 -82.5t85 -25.5q52 0 83.5 25t31.5 61v61q0 60 -64 60h-141z" />
    <glyph glyph-name="four.tf" 
d="M337 0v160h-300v104l286 416h139v-416h98v-104h-98v-160h-125zM156 264h181v263z" />
    <glyph glyph-name="five.tf" 
d="M68 288l27 392h413v-104h-300l-12 -183q24 30 58.5 47.5t79.5 17.5q49 0 88.5 -17t67.5 -47.5t43.5 -73t15.5 -93.5q0 -56 -17 -101t-49 -76.5t-77.5 -48t-101.5 -16.5q-116 0 -177.5 53t-69.5 150h127q6 -56 37 -77.5t81 -21.5t81 24.5t31 66.5v90q0 45 -33 64.5
t-78 19.5q-34 0 -63.5 -17t-44.5 -49h-127z" />
    <glyph glyph-name="six.tf" 
d="M307 -15q-133 0 -193.5 84t-60.5 257q0 80 13.5 148t44 117t79.5 76.5t120 27.5q103 0 163 -48t68 -136h-127q-5 42 -32.5 61t-72.5 19q-57 0 -89 -37.5t-32 -97.5v-74q25 32 60.5 48.5t87.5 16.5q50 0 91 -16t70 -45t45 -70t16 -91q0 -47 -15.5 -90.5t-46.5 -76.5
t-78 -53t-111 -20zM307 89q57 0 86.5 28.5t29.5 75.5v57q0 47 -29.5 70t-86.5 23t-88 -23t-31 -70v-57q0 -47 31 -75.5t88 -28.5z" />
    <glyph glyph-name="seven.tf" 
d="M284 0h-138l263 576h-352v104h485v-100z" />
    <glyph glyph-name="eight.tf" 
d="M301 -15q-51 0 -97 12t-81 36t-56 61t-21 88q0 63 33 107t91 65q-104 45 -104 157q0 43 19 77t51.5 58t75 36.5t89.5 12.5t89.5 -12.5t75 -36.5t51.5 -58t19 -77q0 -112 -104 -157q58 -21 91 -65t33 -107q0 -51 -21 -88t-56 -61t-81 -36t-97 -12zM403 519q0 19 -9 32.5
t-23.5 22t-32.5 12.5t-37 4t-37 -4t-32.5 -12.5t-23.5 -22t-9 -32.5v-44q0 -19 9 -32.5t23.5 -22.5t32.5 -13t37 -4t37 4t32.5 13t23.5 22.5t9 32.5v44zM181 167q0 -19 9.5 -33.5t25.5 -24t38 -14.5t47 -5t47 5t38 14.5t25.5 24t9.5 33.5v53q0 37 -35 57.5t-85 20.5
t-85 -20.5t-35 -57.5v-53z" />
    <glyph glyph-name="nine.tf" 
d="M295 695q133 0 193.5 -84.5t60.5 -256.5q0 -80 -13.5 -148t-44 -117t-79.5 -76.5t-120 -27.5q-103 0 -163 48t-68 136h127q5 -42 32.5 -61t72.5 -19q57 0 89 37.5t32 97.5v74q-25 -32 -60.5 -48.5t-87.5 -16.5q-50 0 -91 16t-70 45t-45 70t-16 91q0 47 15.5 90.5
t46.5 76.5t78 53t111 20zM295 591q-57 0 -86.5 -28.5t-29.5 -75.5v-57q0 -47 29.5 -70t86.5 -23t88 23t31 70v57q0 47 -31 75.5t-88 28.5z" />
    <glyph glyph-name="uni2007.tf" 
 />
    <glyph glyph-name="hyphen_greater.case" horiz-adv-x="764" 
d="M504 605l218 -219v-72l-218 -219h-140l203 204h-525v102h525l-203 204h140z" />
    <glyph glyph-name="less_hyphen.case" horiz-adv-x="783" 
d="M410 605l-203 -204h525v-102h-525l203 -204h-140l-218 219v72l218 219h140z" />
    <glyph glyph-name="parenleft.case" horiz-adv-x="332" 
d="M179 235q0 -83 37.5 -168t101.5 -170h-115q-34 44 -61.5 91t-47 100.5t-30 115.5t-10.5 136t10.5 136t30 115.5t47 100.5t61.5 91h115q-68 -92 -103.5 -173.5t-35.5 -164.5v-210z" />
    <glyph glyph-name="parenright.case" horiz-adv-x="332" 
d="M153 455q0 75 -35.5 155.5t-103.5 172.5h115q34 -44 61.5 -91t47 -100.5t30 -115.5t10.5 -136t-10.5 -136t-30 -115.5t-47 -100.5t-61.5 -91h-115q64 85 101.5 169t37.5 159v230z" />
    <glyph glyph-name="hyphen.case" horiz-adv-x="424" 
d="M72 401h280v-102h-280v102z" />
    <glyph glyph-name="at.case" horiz-adv-x="902" 
d="M324 203v274h274v-177h115v283h-504v-486h389v-97h-514v680h754v-477h-514z" />
    <glyph glyph-name="bracketleft.case" horiz-adv-x="368" 
d="M330 783v-94h-125v-698h125v-94h-245v886h245z" />
    <glyph glyph-name="bracketright.case" horiz-adv-x="368" 
d="M283 783v-886h-245v94h125v698h-125v94h245z" />
    <glyph glyph-name="grave.case" horiz-adv-x="0" 
d="M53 747h-103l-111 122h140z" />
    <glyph glyph-name="braceleft.case" horiz-adv-x="406" 
d="M123 293h-95v94h95v-94h120v-302h125v-94h-245v396zM123 387v396h245v-94h-125v-302h-120z" />
    <glyph glyph-name="bar.case" horiz-adv-x="290" 
d="M85 849h120v-1020h-120v1020z" />
    <glyph glyph-name="braceright.case" horiz-adv-x="406" 
d="M283 387h95v-94h-95v94h-120v302h-125v94h245v-396zM283 293v-396h-245v94h125v302h120z" />
    <glyph glyph-name="exclamdown.case" horiz-adv-x="295" 
d="M190 482l20 -149v-333h-125v333l20 149h85zM220 536h-145v144h145v-144z" />
    <glyph glyph-name="brokenbar.case" horiz-adv-x="290" 
d="M85 247h120v-417h-120v417zM85 850h120v-417h-120v417z" />
    <glyph glyph-name="dieresis.case" horiz-adv-x="0" 
d="M-44 761h-118v108h118v-108zM162 761h-118v108h118v-108z" />
    <glyph glyph-name="guillemotleft.case" horiz-adv-x="565" 
d="M157 144l-107 186l107 186h115l-97 -186l97 -186h-115zM389 144l-107 186l107 186h115l-97 -186l97 -186h-115z" />
    <glyph glyph-name="uni00AD.case" horiz-adv-x="424" 
d="M72 401h280v-102h-280v102z" />
    <glyph glyph-name="macron.case" horiz-adv-x="0" 
d="M-159 854h319v-79h-319v79z" />
    <glyph glyph-name="acute.case" horiz-adv-x="0" 
d="M23 869h140l-111 -122h-103z" />
    <glyph glyph-name="periodcentered.case" horiz-adv-x="286" 
d="M215 278h-144v144h144v-144z" />
    <glyph glyph-name="guillemotright.case" horiz-adv-x="565" 
d="M61 144l97 186l-97 186h115l107 -186l-107 -186h-115zM293 144l97 186l-97 186h115l107 -186l-107 -186h-115z" />
    <glyph glyph-name="questiondown.case" horiz-adv-x="513" 
d="M163 174q0 -40 22.5 -63.5t72.5 -23.5q51 0 75 25t27 67h125q-7 -91 -69.5 -142.5t-163.5 -51.5q-49 0 -88.5 14t-67.5 39t-43 60.5t-15 78.5q0 59 23 96.5t61 71.5q20 18 37 32t29.5 28.5t19.5 30t7 36.5v10h125v-10q0 -27 -5 -49t-16.5 -41.5t-29 -38t-41.5 -37.5
q-42 -34 -63.5 -64t-21.5 -68zM205 680h144v-144h-144v144z" />
    <glyph glyph-name="circumflex.case" horiz-adv-x="0" 
d="M-48 747h-101l79 122h139l80 -122h-103l-47 58z" />
    <glyph glyph-name="caron.case" horiz-adv-x="0" 
d="M-1 811l47 58h103l-80 -122h-139l-79 122h101z" />
    <glyph glyph-name="breve.case" horiz-adv-x="0" 
d="M-65 869q0 -26 18 -42.5t47 -16.5t47 16.5t18 42.5h80q0 -30 -10.5 -55t-30 -42.5t-46 -27.5t-58.5 -10t-58.5 10t-46 27.5t-30 42.5t-10.5 55h80z" />
    <glyph glyph-name="dotaccent.case" horiz-adv-x="0" 
d="M59 761h-118v108h118v-108z" />
    <glyph glyph-name="ring.case" horiz-adv-x="0" 
d="M100 833q0 -42 -29 -70.5t-71 -28.5q-21 0 -39 7.5t-32 21t-22 31.5t-8 39q0 42 29.5 70t71.5 28t71 -28t29 -70zM40 833q0 17 -11.5 28.5t-28.5 11.5t-29 -11.5t-12 -28.5t12 -29t29 -12t28.5 12t11.5 29z" />
    <glyph glyph-name="tilde.case" horiz-adv-x="0" 
d="M166 861q0 -49 -24.5 -81t-74.5 -32q-19 0 -37.5 7t-35 15t-31.5 15t-26 7q-32 0 -32 -36h-70q0 49 24.5 81t74.5 32q19 0 37.5 -7t35 -15t31.5 -15t26 -7q32 0 32 36h70z" />
    <glyph glyph-name="hungarumlaut.case" horiz-adv-x="0" 
d="M-79 869h140l-106 -122h-103zM114 869h140l-106 -122h-103z" />
    <glyph glyph-name="endash.case" horiz-adv-x="614" 
d="M72 401h470v-102h-470v102z" />
    <glyph glyph-name="emdash.case" horiz-adv-x="1084" 
d="M72 401h940v-102h-940v102z" />
    <glyph glyph-name="guilsinglleft.case" horiz-adv-x="333" 
d="M157 144l-107 186l107 186h115l-97 -186l97 -186h-115z" />
    <glyph glyph-name="guilsinglright.case" horiz-adv-x="333" 
d="M61 144l97 186l-97 186h115l107 -186l-107 -186h-115z" />
    <glyph glyph-name="breve.cyrl_dflt.case" horiz-adv-x="0" 
d="M-85 869q0 -26 17 -42.5t68 -16.5t68 16.5t17 42.5h80q0 -60 -39 -97.5t-126 -37.5t-126 37.5t-39 97.5h80z" />
    <glyph glyph-name="percent.zero" horiz-adv-x="802" 
d="M207 615q-9 4 -25 4q-55 0 -55 -51v-136zM156 394q10 -3 26 -3q55 0 55 50v138zM329 505q0 -39 -8.5 -72.5t-26 -58t-45.5 -38.5t-67 -14t-67 14t-45.5 38.5t-26 58t-8.5 72.5t8.5 72.5t26 58t45.5 38.5t67 14t67 -14t45.5 -38.5t26 -58t8.5 -72.5zM645 285q-9 4 -25 4
q-55 0 -55 -51v-136zM594 64q10 -3 26 -3q55 0 55 50v138zM767 175q0 -39 -8.5 -72.5t-26 -58t-45.5 -38.5t-67 -14t-67 14t-45.5 38.5t-26 58t-8.5 72.5t8.5 72.5t26 58t45.5 38.5t67 14t67 -14t45.5 -38.5t26 -58t8.5 -72.5zM563 680h100l-426 -680h-100z" />
    <glyph glyph-name="zero.zero" horiz-adv-x="618" 
d="M309 590q-116 0 -116 -118v-264v-13t1 -11l172 396q-23 10 -57 10zM560 340q0 -75 -11 -140t-39.5 -112.5t-77 -75t-123.5 -27.5t-123.5 27.5t-77 75t-39.5 112.5t-11 140t11 140t39.5 112.5t77 75t123.5 27.5t123.5 -27.5t77 -75t39.5 -112.5t11 -140zM309 90
q116 0 116 118v264v11.5t-1 10.5l-173 -395q24 -9 58 -9z" />
    <glyph glyph-name="perthousand.zero" horiz-adv-x="1139" 
d="M986 285q-9 4 -25 4q-55 0 -55 -51v-136zM935 64q10 -3 26 -3q55 0 55 50v138zM1108 175q0 -39 -8.5 -72.5t-26 -58t-45.5 -38.5t-67 -14t-67 14t-45.5 38.5t-26 58t-8.5 72.5t8.5 72.5t26 58t45.5 38.5t67 14t67 -14t45.5 -38.5t26 -58t8.5 -72.5zM207 615q-9 4 -25 4
q-55 0 -55 -51v-136zM156 394q10 -3 26 -3q55 0 55 50v138zM329 505q0 -39 -8.5 -72.5t-26 -58t-45.5 -38.5t-67 -14t-67 14t-45.5 38.5t-26 58t-8.5 72.5t8.5 72.5t26 58t45.5 38.5t67 14t67 -14t45.5 -38.5t26 -58t8.5 -72.5zM645 285q-9 4 -25 4q-55 0 -55 -51v-136z
M594 64q10 -3 26 -3q55 0 55 50v138zM767 175q0 -39 -8.5 -72.5t-26 -58t-45.5 -38.5t-67 -14t-67 14t-45.5 38.5t-26 58t-8.5 72.5t8.5 72.5t26 58t45.5 38.5t67 14t67 -14t45.5 -38.5t26 -58t8.5 -72.5zM563 680h100l-426 -680h-100z" />
    <glyph glyph-name="uni2070.zero" horiz-adv-x="374" 
d="M212 701q-9 4 -25 4q-55 0 -55 -51v-136zM161 480q10 -3 26 -3q55 0 55 50v138zM334 591q0 -39 -8.5 -72.5t-26 -58t-45.5 -38.5t-67 -14t-67 14t-45.5 38.5t-26 58t-8.5 72.5t8.5 72.5t26 58t45.5 38.5t67 14t67 -14t45.5 -38.5t26 -58t8.5 -72.5z" />
    <glyph glyph-name="uni2080.zero" horiz-adv-x="374" 
d="M212 180q-9 4 -25 4q-55 0 -55 -51v-136zM161 -41q10 -3 26 -3q55 0 55 50v138zM334 70q0 -39 -8.5 -72.5t-26 -58t-45.5 -38.5t-67 -14t-67 14t-45.5 38.5t-26 58t-8.5 72.5t8.5 72.5t26 58t45.5 38.5t67 14t67 -14t45.5 -38.5t26 -58t8.5 -72.5z" />
    <glyph glyph-name="zero.numr.zero" horiz-adv-x="374" 
d="M212 615q-9 4 -25 4q-55 0 -55 -51v-136zM161 394q10 -3 26 -3q55 0 55 50v138zM334 505q0 -39 -8.5 -72.5t-26 -58t-45.5 -38.5t-67 -14t-67 14t-45.5 38.5t-26 58t-8.5 72.5t8.5 72.5t26 58t45.5 38.5t67 14t67 -14t45.5 -38.5t26 -58t8.5 -72.5z" />
    <glyph glyph-name="zero.dnom.zero" horiz-adv-x="374" 
d="M212 285q-9 4 -25 4q-55 0 -55 -51v-136zM161 64q10 -3 26 -3q55 0 55 50v138zM334 175q0 -39 -8.5 -72.5t-26 -58t-45.5 -38.5t-67 -14t-67 14t-45.5 38.5t-26 58t-8.5 72.5t8.5 72.5t26 58t45.5 38.5t67 14t67 -14t45.5 -38.5t26 -58t8.5 -72.5z" />
    <glyph glyph-name="zero.tf.zero" 
d="M301 590q-116 0 -116 -118v-264v-13t1 -11l172 396q-23 10 -57 10zM552 340q0 -75 -11 -140t-39.5 -112.5t-77 -75t-123.5 -27.5t-123.5 27.5t-77 75t-39.5 112.5t-11 140t11 140t39.5 112.5t77 75t123.5 27.5t123.5 -27.5t77 -75t39.5 -112.5t11 -140zM301 90
q116 0 116 118v264v11.5t-1 10.5l-173 -395q24 -9 58 -9z" />
    <glyph glyph-name="at.ss01" horiz-adv-x="828" 
d="M475 271q2 8 3 16.5t1 16.5q0 30 -17 46.5t-47 16.5q-28 0 -46.5 -17t-24.5 -45l-19 -86q-3 -12 -3 -23q0 -20 12.5 -36.5t43.5 -16.5q34 0 56 21t30 59zM737 37q-19 -27 -46.5 -51.5t-65.5 -42.5t-87.5 -28.5t-111.5 -10.5q-88 0 -157.5 24.5t-118 69t-74.5 107.5
t-26 140q0 82 28.5 148.5t79.5 113.5t120.5 72.5t151.5 25.5t148.5 -22.5t113.5 -63t72.5 -96.5t25.5 -124q0 -45 -12 -86.5t-35.5 -72.5t-58 -49.5t-78.5 -18.5q-40 0 -68 15.5t-42 53.5q-27 -40 -60 -56.5t-76 -16.5q-63 0 -97.5 35t-34.5 98q0 39 10 82t30.5 78.5
t53 58.5t77.5 23q33 0 60 -14.5t41 -44.5l10 51h97l-46 -213q-2 -11 -2.5 -16.5t-0.5 -9.5q0 -50 49 -50q16 0 32.5 10.5t30 30.5t21.5 48.5t8 63.5q0 48 -19.5 89.5t-54.5 72t-84.5 48t-110.5 17.5t-113.5 -20.5t-91.5 -57.5t-61.5 -89t-22.5 -114q0 -55 19.5 -103t56 -83
t89.5 -55.5t119 -20.5q131 0 185 54h127z" />
    <glyph glyph-name="at.case.ss01" horiz-adv-x="831" 
d="M476 356q2 8 3 16.5t1 16.5q0 30 -17 46.5t-47 16.5q-28 0 -46.5 -17t-24.5 -45l-19 -86q-3 -12 -3 -23q0 -20 12.5 -36.5t43.5 -16.5q34 0 56 21t30 59zM738 122q-19 -27 -46.5 -51.5t-65.5 -42.5t-87.5 -28.5t-111.5 -10.5q-88 0 -157.5 24.5t-118 69t-74.5 107.5
t-26 140q0 82 28.5 148.5t79.5 113.5t120.5 72.5t151.5 25.5t148.5 -22.5t113.5 -63t72.5 -96.5t25.5 -124q0 -45 -12 -86.5t-35.5 -72.5t-58 -49.5t-78.5 -18.5q-40 0 -68 15.5t-42 53.5q-27 -40 -60 -56.5t-76 -16.5q-63 0 -97.5 35t-34.5 98q0 39 10 82t30.5 78.5
t53 58.5t77.5 23q33 0 60 -14.5t41 -44.5l10 51h97l-46 -213q-2 -11 -2.5 -16.5t-0.5 -9.5q0 -50 49 -50q16 0 32.5 10.5t30 30.5t21.5 48.5t8 63.5q0 48 -19.5 89.5t-54.5 72t-84.5 48t-110.5 17.5t-113.5 -20.5t-91.5 -57.5t-61.5 -89t-22.5 -114q0 -55 19.5 -103t56 -83
t89.5 -55.5t119 -20.5q131 0 185 54h127z" />
    <glyph glyph-name="arrowleft.ss02" horiz-adv-x="863" 
d="M303 154h-128v128h-128v128h128v128h128v-128h512v-128h-512v-128h128v-128h-128v128zM303 666h128v-128h-128v128z" />
    <glyph glyph-name="arrowup.ss02" horiz-adv-x="706" 
d="M417 532v-512h-128v512h-128v128h128v128h128v-128h128v-128h-128zM161 532v-128h-128v128h128zM673 532v-128h-128v128h128z" />
    <glyph glyph-name="arrowright.ss02" horiz-adv-x="864" 
d="M688 532v-128h128v-128h-128v-128h-128v128h-512v128h512v128h-128v128h128v-128h128zM432 20v128h128v-128h-128z" />
    <glyph glyph-name="arrowdown.ss02" horiz-adv-x="726" 
d="M299 276v512h128v-512h128v-128h-128v-128h-128v128h-128v128h128zM555 276v128h128v-128h-128zM43 276v128h128v-128h-128z" />
    <glyph glyph-name="uni2196.ss02" horiz-adv-x="740" 
d="M444 276h-128v128h-128v-256h-128v512h512v-128h-256v-128h128v-128h128v-128h128v-128h-128v128h-128v128z" />
    <glyph glyph-name="uni2197.ss02" horiz-adv-x="740" 
d="M424 276h-128v128h128v-128zM296 148h-128v128h128v-128zM168 20h-128v128h128v-128zM680 148h-128v256h-128v128h-256v128h512v-512z" />
    <glyph glyph-name="uni2198.ss02" horiz-adv-x="740" 
d="M296 404h128v-128h128v256h128v-512h-512v128h256v128h-128v128h-128v128h-128v128h128v-128h128v-128z" />
    <glyph glyph-name="uni2199.ss02" horiz-adv-x="740" 
d="M316 404h128v-128h-128v128zM444 532h128v-128h-128v128zM572 660h128v-128h-128v128zM60 532h128v-256h128v-128h256v-128h-512v512z" />
    <glyph glyph-name="plus.ss06" 
d="M40 209v96h210v207h100v-207h210v-96h-210v-207h-100v207h-210z" />
    <glyph glyph-name="equal.ss06" 
d="M40 305v96h520v-96h-520zM40 113v96h520v-96h-520z" />
    <glyph glyph-name="logicalnot.ss06" 
d="M445 305h-409v96h510v-278h-101v182z" />
    <glyph glyph-name="plusminus.ss06" 
d="M40 268v96h205v147h100v-147h215v-96h-215v-137h-100v137h-205zM560 1h-520v96h520v-96z" />
    <glyph glyph-name="multiply.ss06" 
d="M556 70l-69 -69l-187 187l-186 -187l-69 69l187 186l-187 187l69 69l186 -187l187 187l68 -68l-187 -187z" />
    <glyph glyph-name="divide.ss06" 
d="M363 1h-126v127h126v-127zM560 208h-520v96h520v-96zM363 384h-126v127h126v-127z" />
    <glyph glyph-name="minus.ss06" 
d="M562 209h-524v96h524v-96z" />
    <glyph glyph-name="infinity.ss06" horiz-adv-x="742" 
d="M372 191q-32 -37 -70 -62.5t-94 -25.5q-35 0 -64 12.5t-49.5 34t-32 50.5t-11.5 62q0 34 12 63t33 50.5t49.5 33.5t62.5 12q27 0 51 -8t44 -21.5t37.5 -30t31.5 -34.5q14 18 31.5 34.5t37.5 30t44 21.5t51 8q34 0 62.5 -12t49.5 -33.5t33 -50.5t12 -63q0 -33 -11.5 -62
t-32 -50.5t-49.5 -34t-64 -12.5q-56 0 -94.5 25.5t-69.5 62.5zM147 260q0 -29 17 -47t47 -18t53.5 18t46.5 47q-23 30 -45.5 49t-52.5 19q-32 0 -49 -19t-17 -49zM597 260q0 30 -17 49t-49 19q-30 0 -52.5 -19t-45.5 -49q23 -29 46.5 -47t53.5 -18t47 18t17 47z" />
    <glyph glyph-name="approxequal.ss06" 
d="M568 404q0 -66 -39 -107.5t-105 -41.5q-18 0 -33.5 3t-32 9t-35 15t-43.5 21l-40 20t-27 13t-18.5 7t-15.5 2q-24 0 -35.5 -15t-11.5 -41h-99q0 66 39 107.5t105 41.5q18 0 33.5 -3t32 -9t35 -15t43.5 -21l40 -20t27 -13t18.5 -7t15.5 -2q24 0 35.5 15t11.5 41h99z
M568 214q0 -66 -39 -107.5t-105 -41.5q-18 0 -33.5 3t-32 9t-35 15t-43.5 21l-40 20t-27 13t-18.5 7t-15.5 2q-24 0 -35.5 -15t-11.5 -41h-99q0 66 39 107.5t105 41.5q18 0 33.5 -3t32 -9t35 -15t43.5 -21l40 -20t27 -13t18.5 -7t15.5 -2q24 0 35.5 15t11.5 41h99z" />
    <glyph glyph-name="notequal.ss06" 
d="M200 1l-77 45l38 66h-121v96h176l56 96h-232v96h287l64 111l77 -44l-39 -67h131v-96h-186l-55 -96h241v-96h-296z" />
    <glyph glyph-name="x.ss20" horiz-adv-x="617" 
d="M564 153l-69 -69l-187 187l-186 -187l-69 69l187 186l-187 187l69 69l186 -187l187 187l68 -68l-187 -187z" />
    <glyph glyph-name="hyphen_greater" horiz-adv-x="777" 
d="M511 510l218 -219v-72l-218 -219h-140l203 204h-525v102h525l-203 204h140z" />
    <glyph glyph-name="less_hyphen" horiz-adv-x="777" 
d="M406 510l-203 -204h525v-102h-525l203 -204h-140l-218 219v72l218 219h140z" />
    </font>
</defs>
</svg>
