<svg id="eu5l3nver961" xmlns="http://www.w3.org/2000/svg" xmlns:xlink="http://www.w3.org/1999/xlink" viewBox="0 0 64 64" shape-rendering="geometricPrecision" text-rendering="geometricPrecision"><style><![CDATA[#eu5l3nver962_to {animation: eu5l3nver962_to__to 3000ms linear 1 normal forwards}@keyframes eu5l3nver962_to__to { 0% {transform: translate(32.316929px,-62.402172px)} 26.666667% {transform: translate(32.794623px,-41.333811px);animation-timing-function: cubic-bezier(0.895000,0.030000,0.685000,0.220000)} 50% {transform: translate(32px,11.870693px)} 56.666667% {transform: translate(32.002916px,9.870693px)} 100% {transform: translate(32.002916px,9.870693px)} }#eu5l3nver962_tr {animation: eu5l3nver962_tr__tr 3000ms linear 1 normal forwards}@keyframes eu5l3nver962_tr__tr { 0% {transform: rotate(0deg)} 56.666667% {transform: rotate(0deg)} 60% {transform: rotate(-5deg)} 63.333333% {transform: rotate(5deg)} 66.666667% {transform: rotate(-5deg)} 70% {transform: rotate(0deg)} 100% {transform: rotate(0deg)} }#eu5l3nver966_to {animation: eu5l3nver966_to__to 3000ms linear 1 normal forwards}@keyframes eu5l3nver966_to__to { 0% {transform: translate(32.316929px,-29.310058px);animation-timing-function: cubic-bezier(0.895000,0.030000,0.685000,0.220000)} 30% {transform: translate(32.316929px,37.063025px);animation-timing-function: cubic-bezier(0.895000,0.030000,0.685000,0.220000)} 40% {transform: translate(32px,40.369202px)} 100% {transform: translate(32px,40.369202px)} }#eu5l3nver966_tr {animation: eu5l3nver966_tr__tr 3000ms linear 1 normal forwards}@keyframes eu5l3nver966_tr__tr { 0% {transform: rotate(0deg);animation-timing-function: cubic-bezier(0.175000,0.885000,0.320000,1.275000)} 26.666667% {transform: rotate(0deg);animation-timing-function: cubic-bezier(0.175000,0.885000,0.320000,1.275000)} 40% {transform: rotate(-11deg)} 100% {transform: rotate(-11deg)} }]]></style><g id="eu5l3nver962_to" transform="translate(32.316929,-62.402172)"><g id="eu5l3nver962_tr" transform="rotate(0)"><g id="eu5l3nver962" transform="translate(-32,64.747044)"><path id="eu5l3nver963" d="M31.593800,8.903190C45.243800,8.903190,54.885400,12.313900,58,14.019300L58,11.254900C58,8.875220,56.527900,6.720070,54.172600,6.044270C49.221600,4.623710,41.101000,3,31.593800,3C22.529100,3,15.002000,4.073500,10.260600,5.068910C7.688290,5.608960,6,7.868200,6,10.417900L6,14.019300C8.843750,12.313900,17.943800,8.903190,31.593800,8.903190Z" transform="matrix(1 0 0 1 0 -76.24705499999993)" fill="rgb(134,236,22)" stroke="none" stroke-width="1"/><path id="eu5l3nver964" d="M58,16.062600C58,18.622900,55.516200,20.501500,52.952200,19.880600L43.202200,17.519300C41.393700,17.081300,40.125000,15.507200,40.125000,13.701300L40.125000,8.827490C40.125000,6.267180,42.608800,4.388560,45.172800,5.009530L54.922800,7.370830C56.731300,7.808820,58,9.382930,58,11.188800L58,16.062600Z" transform="matrix(1 0 0 1 0 -76.24705499999993)" fill="rgb(134,236,22)" stroke="none" stroke-width="1"/><path id="eu5l3nver965" d="M6,16.062600C6,18.622900,8.483770,20.501500,11.047800,19.880600L20.797800,17.519300C22.606300,17.081300,23.875000,15.507200,23.875000,13.701300L23.875000,8.827490C23.875000,6.267180,21.391200,4.388560,18.827200,5.009530L9.077180,7.370830C7.268700,7.808820,6,9.382930,6,11.188800L6,16.062600Z" transform="matrix(1 0 0 1 0 -76.24705499999993)" fill="rgb(134,236,22)" stroke="none" stroke-width="1"/></g></g></g><g id="eu5l3nver966_to" transform="translate(32.316929,-29.310058)"><g id="eu5l3nver966_tr" transform="rotate(0)"><g id="eu5l3nver966" transform="translate(-31.999999,35.245558)"><path id="eu5l3nver967" d="M23.906700,21.003000C21.151900,21.003000,18.751100,22.878900,18.084900,25.551900L17.225400,29L8,29L6,29L6,31L6,59L6,61L8,61L56,61L58,61L58,59L58,31L58,29L56,29L48.774600,29L47.915100,25.551900C47.248900,22.878900,44.848100,21.003000,42.093300,21.003000L23.906700,21.003000ZM46.713400,29L45.974500,26.035600C45.530400,24.253600,43.929800,23.003000,42.093300,23.003000L23.906700,23.003000C22.070200,23.003000,20.469600,24.253600,20.025500,26.035600L19.286600,29L46.713400,29ZM8,31L56,31L56,59L8,59L8,31Z" transform="matrix(0.98162718344766 0.19080899537654 -0.19080899537654 0.98162718344766 8.41138515360614 -81.59962981417877)" clip-rule="evenodd" fill="rgb(222,222,222)" fill-rule="evenodd" stroke="none" stroke-width="1"/><path id="eu5l3nver968" d="M18.084900,25.551900L16.144200,25.068200L16.144200,25.068200L18.084900,25.551900ZM17.225400,29L17.225400,31L18.788100,31L19.166100,29.483700L17.225400,29ZM6,29L6,27L4,27L4,29L6,29ZM6,61L4,61L4,63L6,63L6,61ZM58,61L58,63L60,63L60,61L58,61ZM58,29L60,29L60,27L58,27L58,29ZM48.774600,29L46.833900,29.483700L47.211900,31L48.774600,31L48.774600,29ZM47.915100,25.551900L45.974500,26.035600L45.974500,26.035600L47.915100,25.551900ZM46.713400,29L46.713400,31L49.273000,31L48.654000,28.516300L46.713400,29ZM45.974500,26.035600L47.915100,25.551900L47.915100,25.551900L45.974500,26.035600ZM20.025500,26.035600L21.966100,26.519300L21.966100,26.519300L20.025500,26.035600ZM19.286600,29L17.346000,28.516300L16.726900,31L19.286600,31L19.286600,29ZM56,31L58,31L58,29L56,29L56,31ZM8,31L8,29L6,29L6,31L8,31ZM56,59L56,61L58,61L58,59L56,59ZM8,59L6,59L6,61L8,61L8,59ZM20.025500,26.035600C20.469600,24.253600,22.070200,23.003000,23.906700,23.003000L23.906700,19.003000C20.233700,19.003000,17.032500,21.504200,16.144200,25.068200L20.025500,26.035600ZM19.166100,29.483700L20.025500,26.035600L16.144200,25.068200L15.284800,28.516300L19.166100,29.483700ZM17.225400,27L8,27L8,31L17.225400,31L17.225400,27ZM8,27L6,27L6,31L8,31L8,27ZM4,29L4,31L8,31L8,29L4,29ZM4,31L4,59L8,59L8,31L4,31ZM4,59L4,61L8,61L8,59L4,59ZM6,63L8,63L8,59L6,59L6,63ZM8,63L56,63L56,59L8,59L8,63ZM56,63L58,63L58,59L56,59L56,63ZM60,61L60,59L56,59L56,61L60,61ZM60,59L60,31L56,31L56,59L60,59ZM60,31L60,29L56,29L56,31L60,31ZM58,27L56,27L56,31L58,31L58,27ZM56,27L48.774600,27L48.774600,31L56,31L56,27ZM45.974500,26.035600L46.833900,29.483700L50.715200,28.516300L49.855800,25.068200L45.974500,26.035600ZM42.093300,23.003000C43.929800,23.003000,45.530400,24.253600,45.974500,26.035600L49.855800,25.068200C48.967500,21.504200,45.766300,19.003000,42.093300,19.003000L42.093300,23.003000ZM23.906700,23.003000L42.093300,23.003000L42.093300,19.003000L23.906700,19.003000L23.906700,23.003000ZM48.654000,28.516300L47.915100,25.551900L44.033900,26.519300L44.772700,29.483700L48.654000,28.516300ZM47.915100,25.551900C47.248900,22.878900,44.848100,21.003000,42.093300,21.003000L42.093300,25.003000C43.011500,25.003000,43.811800,25.628300,44.033900,26.519300L47.915100,25.551900ZM42.093300,21.003000L23.906700,21.003000L23.906700,25.003000L42.093300,25.003000L42.093300,21.003000ZM23.906700,21.003000C21.151900,21.003000,18.751100,22.878900,18.084900,25.551900L21.966100,26.519300C22.188200,25.628300,22.988500,25.003000,23.906700,25.003000L23.906700,21.003000ZM18.084900,25.551900L17.346000,28.516300L21.227300,29.483700L21.966100,26.519300L18.084900,25.551900ZM46.713400,27L19.286600,27L19.286600,31L46.713400,31L46.713400,27ZM56,29L8,29L8,33L56,33L56,29ZM58,59L58,31L54,31L54,59L58,59ZM8,61L56,61L56,57L8,57L8,61ZM6,31L6,59L10,59L10,31L6,31Z" transform="matrix(0.98162718344766 0.19080899537654 -0.19080899537654 0.98162718344766 8.41138515360614 -81.59962981417877)" fill="rgb(0,0,0)" stroke="none" stroke-width="1"/><path id="eu5l3nver969" d="M8.278910,29L6,29L7.092440,31L12.441900,40.793700C14.195100,44.003400,17.560700,46,21.218100,46L28,46L28,49.972800L28,51.972800L30,51.972800L36,51.972800L38,51.972800L38,49.972800L38,46L42.781900,46C46.439300,46,49.804900,44.003400,51.558100,40.793700L56.907600,31L58,29L55.721100,29L8.278910,29ZM38,44L42.781900,44C45.707800,44,48.400300,42.402700,49.802800,39.835000L54.628700,31L9.371340,31L14.197200,39.834900C15.599700,42.402700,18.292200,44,21.218100,44L28,44L28,41.936400L28,39.936400L30,39.936400L36,39.936400L38,39.936400L38,41.936400L38,44ZM30,46L30,49.972800L36,49.972800L36,46L36,44L36,41.936400L30,41.936400L30,44L30,46Z" transform="matrix(0.98162718344766 0.19080899537654 -0.19080899537654 0.98162718344766 8.31309944008771 -81.07871629198486)" clip-rule="evenodd" fill="rgb(0,0,0)" fill-rule="evenodd" stroke="none" stroke-width="1"/></g></g></g></svg>