<svg width="64" height="64" viewBox="0 0 64 64" fill="none" xmlns="http://www.w3.org/2000/svg">
<path fill-rule="evenodd" clip-rule="evenodd" d="M62.0004 64H64.0009C63.6705 51.7146 60.4576 40.9236 49.4154 36.1236L48.6181 37.9578C58.5287 42.2659 61.6701 51.9603 62.0004 64ZM2.00056 64H0C0.336192 51.7427 3.59221 40.9452 14.5819 36.1249L15.3853 37.9565C5.51791 42.2845 2.33648 51.995 2.00056 64Z" fill="black"/>
<path d="M28.9985 22C28.9985 24.2082 27.2064 26 24.9936 26C22.7809 26 20.9888 24.2082 20.9888 22C20.9888 19.7918 22.7809 18 24.9936 18C27.2064 18 28.9985 19.7918 28.9985 22Z" stroke="black" stroke-width="2"/>
<path d="M43.0122 22C43.0122 24.2082 41.2201 26 39.0073 26C36.7946 26 35.0024 24.2082 35.0024 22C35.0024 19.7918 36.7946 18 39.0073 18C41.2201 18 43.0122 19.7918 43.0122 22Z" stroke="black" stroke-width="2"/>
<path d="M63.0308 26C63.0308 31.5229 56.5473 36 51.0191 36L52.449 26L51.0191 16C56.5473 16 63.0308 20.4772 63.0308 26Z" fill="#C4C4C4"/>
<path d="M0.969727 26C0.969727 31.5229 7.45319 36 12.9814 36L11.5514 26L12.9814 16C7.45319 16 0.969727 20.4772 0.969727 26Z" fill="#C4C4C4"/>
<path d="M53.0209 21V20C53.0209 10.0589 44.962 2 35.0209 2H28.98C19.0389 2 10.98 10.0589 10.98 20V21" stroke="#C4C4C4" stroke-width="4"/>
<path d="M52.0209 26C52.0209 37.0448 43.0583 46 32.0004 46C20.9425 46 11.98 37.0448 11.98 26C11.98 14.9552 20.9425 6 32.0004 6C43.0583 6 52.0209 14.9552 52.0209 26Z" stroke="black" stroke-width="2"/>
<path d="M39.5078 35C44.5127 35.1667 54.5224 34 54.5224 28" stroke="#C4C4C4" stroke-width="2"/>
<rect x="29.9985" y="32" width="12.0117" height="6" rx="3" fill="#C4C4C4"/>
</svg>
