<svg version="1.1" xmlns="http://www.w3.org/2000/svg" xmlns:xlink="http://www.w3.org/1999/xlink" x="0px" y="0px" viewBox="0 0 144 87" enable-background="new 0 0 144 87" xml:space="preserve" id="el_NgTGwYUK8"><style>@-webkit-keyframes kf_el_JyTjsw30j4a_an_lY_wC8piB{14.58%{-webkit-transform: translate(101.9000015258789px, 12.25px) rotate(0deg) translate(-101.9000015258789px, -12.25px);transform: translate(101.9000015258789px, 12.25px) rotate(0deg) translate(-101.9000015258789px, -12.25px);}93.75%{-webkit-transform: translate(101.9000015258789px, 12.25px) rotate(360deg) translate(-101.9000015258789px, -12.25px);transform: translate(101.9000015258789px, 12.25px) rotate(360deg) translate(-101.9000015258789px, -12.25px);}0%{-webkit-transform: translate(101.9000015258789px, 12.25px) rotate(0deg) translate(-101.9000015258789px, -12.25px);transform: translate(101.9000015258789px, 12.25px) rotate(0deg) translate(-101.9000015258789px, -12.25px);}100%{-webkit-transform: translate(101.9000015258789px, 12.25px) rotate(360deg) translate(-101.9000015258789px, -12.25px);transform: translate(101.9000015258789px, 12.25px) rotate(360deg) translate(-101.9000015258789px, -12.25px);}}@keyframes kf_el_JyTjsw30j4a_an_lY_wC8piB{14.58%{-webkit-transform: translate(101.9000015258789px, 12.25px) rotate(0deg) translate(-101.9000015258789px, -12.25px);transform: translate(101.9000015258789px, 12.25px) rotate(0deg) translate(-101.9000015258789px, -12.25px);}93.75%{-webkit-transform: translate(101.9000015258789px, 12.25px) rotate(360deg) translate(-101.9000015258789px, -12.25px);transform: translate(101.9000015258789px, 12.25px) rotate(360deg) translate(-101.9000015258789px, -12.25px);}0%{-webkit-transform: translate(101.9000015258789px, 12.25px) rotate(0deg) translate(-101.9000015258789px, -12.25px);transform: translate(101.9000015258789px, 12.25px) rotate(0deg) translate(-101.9000015258789px, -12.25px);}100%{-webkit-transform: translate(101.9000015258789px, 12.25px) rotate(360deg) translate(-101.9000015258789px, -12.25px);transform: translate(101.9000015258789px, 12.25px) rotate(360deg) translate(-101.9000015258789px, -12.25px);}}@-webkit-keyframes kf_el_gFvr9isfBF8_an_LHyMNcX3U{12.50%{-webkit-transform: translate(122.75000381469727px, 32.250003814697266px) rotate(0deg) translate(-122.75000381469727px, -32.250003814697266px);transform: translate(122.75000381469727px, 32.250003814697266px) rotate(0deg) translate(-122.75000381469727px, -32.250003814697266px);}93.75%{-webkit-transform: translate(122.75000381469727px, 32.250003814697266px) rotate(-360deg) translate(-122.75000381469727px, -32.250003814697266px);transform: translate(122.75000381469727px, 32.250003814697266px) rotate(-360deg) translate(-122.75000381469727px, -32.250003814697266px);}0%{-webkit-transform: translate(122.75000381469727px, 32.250003814697266px) rotate(0deg) translate(-122.75000381469727px, -32.250003814697266px);transform: translate(122.75000381469727px, 32.250003814697266px) rotate(0deg) translate(-122.75000381469727px, -32.250003814697266px);}100%{-webkit-transform: translate(122.75000381469727px, 32.250003814697266px) rotate(-360deg) translate(-122.75000381469727px, -32.250003814697266px);transform: translate(122.75000381469727px, 32.250003814697266px) rotate(-360deg) translate(-122.75000381469727px, -32.250003814697266px);}}@keyframes kf_el_gFvr9isfBF8_an_LHyMNcX3U{12.50%{-webkit-transform: translate(122.75000381469727px, 32.250003814697266px) rotate(0deg) translate(-122.75000381469727px, -32.250003814697266px);transform: translate(122.75000381469727px, 32.250003814697266px) rotate(0deg) translate(-122.75000381469727px, -32.250003814697266px);}93.75%{-webkit-transform: translate(122.75000381469727px, 32.250003814697266px) rotate(-360deg) translate(-122.75000381469727px, -32.250003814697266px);transform: translate(122.75000381469727px, 32.250003814697266px) rotate(-360deg) translate(-122.75000381469727px, -32.250003814697266px);}0%{-webkit-transform: translate(122.75000381469727px, 32.250003814697266px) rotate(0deg) translate(-122.75000381469727px, -32.250003814697266px);transform: translate(122.75000381469727px, 32.250003814697266px) rotate(0deg) translate(-122.75000381469727px, -32.250003814697266px);}100%{-webkit-transform: translate(122.75000381469727px, 32.250003814697266px) rotate(-360deg) translate(-122.75000381469727px, -32.250003814697266px);transform: translate(122.75000381469727px, 32.250003814697266px) rotate(-360deg) translate(-122.75000381469727px, -32.250003814697266px);}}#el_NgTGwYUK8 *{-webkit-animation-duration: 1.6s;animation-duration: 1.6s;-webkit-animation-iteration-count: 1;animation-iteration-count: 1;-webkit-animation-timing-function: cubic-bezier(0, 0, 1, 1);animation-timing-function: cubic-bezier(0, 0, 1, 1);}#el_zt8L6K5Wq8{fill: none;stroke: #86ED18;stroke-width: 8;}#el_C_tboZZdKL{fill: #FFFFFF;stroke: #000000;stroke-width: 3;}#el_uODPLkxYzR{fill: #FFFFFF;}#el_upwZ-f5E8d{fill: none;stroke: #000000;stroke-width: 3;}#el_y2YJiOVGvP{fill: #FFFFFF;}#el_sO_AS7ilWJ{fill: none;stroke: #000000;stroke-width: 3;}#el_78VZ4p378Z{fill: #FFFFFF;stroke: #000000;stroke-width: 3;}#el_unulaGdLrU{fill: #FFFFFF;}#el_9HK61lHGZP{fill: none;stroke: #000000;stroke-width: 3;}#el_5AbiOF_Uil{fill: none;stroke: #000000;stroke-width: 3;}#el_w_dJUhyIyf{fill: none;stroke: #000000;stroke-width: 3;}#el_2nh1Dri6j4q{fill: #FFFFFF;stroke: #000000;stroke-width: 3;}#el_ALUYg8ZqXM3{fill: none;stroke: #000000;stroke-width: 3;}#el_0JwBPANYf_S{stroke: #000000;stroke-width: 1.5;}#el_8fvZr0ae5wz{stroke: #000000;stroke-width: 1.5;}#el_j-hXAoue6l0{stroke: #000000;stroke-width: 1.5;}#el_J2B23Hzyjty{stroke: #000000;stroke-width: 1.5;}#el_FU-Q5AvEK-c{stroke: #000000;stroke-width: 1.5;}#el_Ev_-dW9WDmH{fill: #FFFFFF;}#el_CaZjlzXHr_f{fill: none;stroke: #000000;stroke-width: 3;}#el_LhZoRYnoYIR{fill: #FFFFFF;}#el_LPtncFn0W3g{fill: none;stroke: #000000;stroke-width: 3;}#el_mCV04n6Af8_{fill: #FFFFFF;}#el_xscOyt-HB_d{fill: none;stroke: #000000;stroke-width: 3;}#el_zLhOejatFOE{fill: #FFFFFF;}#el_xQ0AX_ang8O{fill: none;stroke: #000000;stroke-width: 3;}#el_7GFuNm9tT2y{fill: #FFFFFF;stroke: #000000;stroke-width: 3;}#el_DCb4fctDTZD{fill: #FFFFFF;stroke: #000000;stroke-width: 3;}#el_YZ5We_2mMwQ{fill: #FFFFFF;stroke: #000000;stroke-width: 3;}#el_3GBzEJVGEzw{fill: #FFFFFF;stroke: #000000;stroke-width: 3;}#el_eSZnPjvog9v{fill: #86ED18;}#el_6XIsNpxB-KP{fill: none;stroke: #000000;stroke-width: 3;}#el_QFD3coF7pun{fill: #FFFFFF;stroke: #000000;stroke-width: 3;}#el_0YYIaZ2rWbk{fill: #86ED18;}#el_txxbyurcV_N{fill: none;stroke: #000000;stroke-width: 3;}#el_LX2gQGDkq8o{fill: #FFFFFF;stroke: #000000;stroke-width: 3;}#el_oV5dr6LqNV9{fill: none;stroke: #000000;stroke-width: 3;}#el_0VO6tOq-wlg{fill: #FFFFFF;stroke: #000000;stroke-width: 3;}#el_wr1QByds08P{fill: #FFFFFF;}#el_iFFvZP3-UAV{fill: none;stroke: #000000;stroke-width: 3;}#el_GgvnX6yAtBy{fill: #FFFFFF;stroke: #000000;stroke-width: 3;}#el_goPw1xPi5jz{fill: #FFFFFF;stroke: #000000;stroke-width: 3;}#el_coPn7VRxRSW{fill: none;stroke: #000000;stroke-width: 3;}#el_0HdxwpUAE9W{fill: #FFFFFF;}#el_-HOIeWIxBNA{fill: none;stroke: #000000;stroke-width: 3;}#el_dKAznewGbE-{fill: #FFFFFF;}#el_KVo18KOTGOa{fill: none;stroke: #000000;stroke-width: 3;}#el_0EoXabU_Rhz{fill: #FFFFFF;}#el_VqaNgtZQr4H{fill: none;stroke: #000000;stroke-width: 3;}#el_n0-AxrqSU3W{fill: #FFFFFF;stroke: #000000;stroke-width: 3;}#el_F0v5RCIPZl6{fill: none;stroke: #86ED18;stroke-width: 3;}#el_gFvr9isfBF8{fill: none;stroke: #86ED18;stroke-width: 3;}#el_GaJBxwqCXwF{fill: none;stroke: #86ED18;stroke-width: 2;}#el_JyTjsw30j4a{fill: none;stroke: #86ED18;stroke-width: 2;}#el_EeeVIX6glYC{fill: #FFFFFF;stroke: #000000;stroke-width: 2;}#el_x44zjBgLdyb{fill: none;stroke: #000000;stroke-width: 2;}#el_oAd5zxDbohM{fill: none;stroke: #000000;stroke-width: 3;}#el_UIxEcs2oAf-{fill: none;stroke: #000000;stroke-width: 3;}#el_E53OaHSSb2v{fill: none;stroke: #000000;stroke-width: 2;}#el_F6LEq9C04IT{fill: none;stroke: #000000;stroke-width: 2;}#el_8wAOiIHEmxa{fill: none;stroke: #000000;stroke-width: 2;}#el_L1YwkyCdIT2{-webkit-transform: translate(-0.190348px, NaNpx);transform: translate(-0.190348px, NaNpx);}#el_cD3UmFu2x5R{fill: #4D4D4D;}#el_tikp-YpbbOs{fill: #25C16F;}#el_5GML8IY3jvL{fill: #FFFFFF;}#el_cWgmFIh0E2x{fill: none;stroke: #000000;stroke-width: 0.5;}#el_X0rwGg3qIV-{stroke: #000000;stroke-width: 0.5;}#el_v-A3mg3zMs4{stroke: #000000;stroke-width: 0.5;}#el_i9w0h8Z09Cc{stroke: #000000;stroke-width: 0.5;}#el_n531euzsABm{stroke: #000000;stroke-width: 0.5;}#el_KoMZHPg00jN{stroke: #000000;stroke-width: 0.5;}#el_wQYau3bFfP4{stroke: #000000;stroke-width: 0.5;}#el_31gb2dl0qAX{stroke: #000000;stroke-width: 0.5;}#el__i5RFCw8HAj{stroke: #000000;stroke-width: 0.5;}#el_4jCVrRtpCSi{stroke: #000000;stroke-width: 0.5;}#el_qRsaGHTb6lF{stroke: #000000;stroke-width: 0.5;}#el_uh-yC1VlWdf{stroke: #000000;stroke-width: 0.5;}#el_m3VvSvtJjXE{stroke: #000000;stroke-width: 0.5;}#el_CxHQe33Djwa{stroke: #000000;stroke-width: 0.5;}#el_fPTZveIMktK{stroke: #000000;stroke-width: 0.5;}#el_Wit6GSMdiFq{stroke: #000000;stroke-width: 0.5;}#el_grLDBmUYftE{stroke: #000000;stroke-width: 0.5;}#el_skpFjPSinf0{stroke: #000000;stroke-width: 0.5;}#el_GTFACjjm91z{stroke: #000000;stroke-width: 0.5;}#el_r6orLS_QLHB{stroke: #000000;stroke-width: 0.5;}#el_GEkwEHYoPMC{stroke: #000000;stroke-width: 0.5;}#el_XKcLX6NYnF4{stroke: #000000;stroke-width: 0.5;}#el_3r9sNZV_w59{stroke: #000000;stroke-width: 0.5;}#el_kv3OgmuTTY2{stroke: #000000;stroke-width: 0.5;}#el_TvmeWLAcoot{stroke: #000000;stroke-width: 0.5;}#el_K0wUYpEI3ex{stroke: #000000;stroke-width: 0.5;}#el_AYUsodJoZ4h{stroke: #000000;stroke-width: 0.5;}#el_5gKimuvNCkU{stroke: #000000;stroke-width: 0.5;}#el_NZAO50t8WGO{stroke: #000000;stroke-width: 0.5;}#el_q1dG5WFWhHa{stroke: #000000;stroke-width: 0.5;}#el_GOfBCLnVs4J{stroke: #000000;stroke-width: 0.5;}#el_4gsqwT4vocj{stroke: #000000;stroke-width: 0.5;}#el_-q8hrw-SlOF{stroke: #000000;stroke-width: 0.5;}#el_gFvr9isfBF8_an_LHyMNcX3U{-webkit-animation-fill-mode: forwards;animation-fill-mode: forwards;-webkit-transform: translate(122.75000381469727px, 32.250003814697266px) rotate(0deg) translate(-122.75000381469727px, -32.250003814697266px);transform: translate(122.75000381469727px, 32.250003814697266px) rotate(0deg) translate(-122.75000381469727px, -32.250003814697266px);-webkit-animation-name: kf_el_gFvr9isfBF8_an_LHyMNcX3U;animation-name: kf_el_gFvr9isfBF8_an_LHyMNcX3U;-webkit-animation-timing-function: cubic-bezier(0.42, 0, 0.58, 1);animation-timing-function: cubic-bezier(0.42, 0, 0.58, 1);}#el_JyTjsw30j4a_an_lY_wC8piB{-webkit-animation-fill-mode: forwards;animation-fill-mode: forwards;-webkit-transform: translate(101.9000015258789px, 12.25px) rotate(0deg) translate(-101.9000015258789px, -12.25px);transform: translate(101.9000015258789px, 12.25px) rotate(0deg) translate(-101.9000015258789px, -12.25px);-webkit-animation-name: kf_el_JyTjsw30j4a_an_lY_wC8piB;animation-name: kf_el_JyTjsw30j4a_an_lY_wC8piB;-webkit-animation-timing-function: cubic-bezier(0.42, 0, 0.58, 1);animation-timing-function: cubic-bezier(0.42, 0, 0.58, 1);}</style>
<g id="el_6wg_rbXOQz" display="none">
	<circle display="inline" cx="28.9" cy="52.6" r="64.1" id="el_zt8L6K5Wq8"/>
	<path display="inline" d="M127.9,241.9c-39.4,0-71.6-32-71.6-71.4v-22c0-11,9-20,20-20s20,9,20,20v22c0,17.3,14.2,31.4,31.5,31.4&#10;&#9;&#9;c11,0,20,9,20,20C147.9,232.9,139,241.9,127.9,241.9z" id="el_yfnGG71bcX"/>
	<path display="inline" stroke-miterlimit="10" d="M-239.2,130.5c3.8,0,7-3.1,7-7&#10;&#9;&#9;c0-3.8-3.1-7-7-7c-3.8,0-7,3.1-7,7C-246.1,127.4-243,130.5-239.2,130.5z" id="el_C_tboZZdKL"/>
	<path display="inline" d="M170.5,363l65.5,65.8L161.2,525c0,0-9.3-11.8-9.1-21.7c0.2-9.9,15.1-27.1,7.6-40.6" id="el_uODPLkxYzR"/>
	<path display="inline" stroke-miterlimit="10" d="M170.5,363l65.5,65.8L161.2,525&#10;&#9;&#9;c0,0-9.3-11.8-9.1-21.7c0.2-9.9,15.1-27.1,7.6-40.6" id="el_upwZ-f5E8d"/>
	<path display="inline" d="M142.4,301.9c0,0-35,60.7-37.7,71.7c-2.7,11,9.5,26.8,9.5,26.8" id="el_y2YJiOVGvP"/>
	<path display="inline" stroke-miterlimit="10" d="M142.4,301.9&#10;&#9;&#9;c0,0-35,60.7-37.7,71.7c-2.7,11,9.5,26.8,9.5,26.8" id="el_sO_AS7ilWJ"/>
	<path display="inline" stroke-miterlimit="10" d="M188.1,319.1l-27.5,206.4H38.3&#10;&#9;&#9;c0,0,3.6-14.6,11.6-20.5s31.1-4.9,37.3-19.1c2.9-6.7,51.5-166.2,51.5-166.2c3.9-13-0.7-19.5-3.6-25.6&#10;&#9;&#9;c-5.9-12.6-24.2-50.2-24.1-58.2c0.4-15.8,12.8-28.6,28.7-28.6c15.9,0,21.7,7.1,28.7,28.6l19.5,73.5&#10;&#9;&#9;C188.5,312.7,188.5,315.9,188.1,319.1z" id="el_78VZ4p378Z"/>
	<path display="inline" d="M96.6,325.6H78.2c-11,0-20-9-20-20s9-20,20-20h18.5c7.2,0,13.9-2.8,18.9-7.8c5-5,7.8-11.8,7.8-18.9&#10;&#9;&#9;l-0.1-33.5c0-11,8.9-20,19.9-20.1h0.1c11,0,19.9,8.9,20,19.9l0.1,33.5c0.1,17.8-6.8,34.6-19.4,47.3&#10;&#9;&#9;C131.3,318.6,114.5,325.6,96.6,325.6z" id="el_7PqPnDQunp"/>
	<path display="inline" d="M-144.7,231.5c-34.3,0-62.1-27.8-62.1-62c0-11,9-20,20-20s20,9,20,20c0,12.1,9.9,22,22.1,22&#10;&#9;&#9;c12.2,0,22.1-9.9,22.1-22v-7.2c0-11,9-20,20-20c11,0,20,9,20,20v7.2C-82.5,203.8-110.4,231.5-144.7,231.5z" id="el_k1g3LLQ2tf"/>
	<path display="inline" d="M-130.9,307.4c11.9,12.9,43,48.3,47.1,50.6c13,7.3,33.4,3.1,42.5,4.9&#10;&#9;&#9;c9.1,1.7,18.9,12.9,18.9,12.9l-95.5,52.4l-85-154.7c-20.2,0-36.5-16.3-36.5-36.4v-66l2.9-5c0-17.1,13.9-30.9,30.9-30.9&#10;&#9;&#9;c14.5,0,26.5,10,30,23.4c1.9,6.9,0,40.7,1.6,44.2c3,6.4,41.5-22.6,75,8.9c28.4,26.8-10.2,72.2-26.8,89.2c-7,7.2-11,16.6-11.3,26.6&#10;&#9;&#9;c-0.3,8.9,0.6,17.5-0.4,22.6c-1.7,9.1-12.9,18.9-12.9,18.9l-52.5-95.4l46.2-25.3" id="el_unulaGdLrU"/>
	<path display="inline" stroke-miterlimit="10" d="M-130.9,307.4&#10;&#9;&#9;c11.9,12.9,43,48.3,47.1,50.6c13,7.3,33.4,3.1,42.5,4.9c9.1,1.7,18.9,12.9,18.9,12.9l-95.5,52.4l-85-154.7&#10;&#9;&#9;c-20.2,0-36.5-16.3-36.5-36.4v-66l2.9-5c0-17.1,13.9-30.9,30.9-30.9c14.5,0,26.5,10,30,23.4c1.9,6.9,0,40.7,1.6,44.2&#10;&#9;&#9;c3,6.4,41.5-22.6,75,8.9c28.4,26.8-10.2,72.2-26.8,89.2c-7,7.2-11,16.6-11.3,26.6c-0.3,8.9,0.6,17.5-0.4,22.6&#10;&#9;&#9;c-1.7,9.1-12.9,18.9-12.9,18.9l-52.5-95.4l46.2-25.3" id="el_9HK61lHGZP"/>
	<path display="inline" stroke-miterlimit="10" d="M-110.6,152.4l6.6,0.1" id="el_5AbiOF_Uil"/>
	<path display="inline" stroke-miterlimit="10" d="M-236.6,122.5&#10;&#9;&#9;c-0.1-1.1-0.1-2.2,0.1-3.3" id="el_w_dJUhyIyf"/>
	<path display="inline" stroke-miterlimit="10" d="M-214.1,141.9&#10;&#9;&#9;c13.5,0,24.4-10.9,24.4-24.3c0-13.4-10.9-24.3-24.4-24.3c-13.5,0-24.4,10.9-24.4,24.3C-238.5,131-227.5,141.9-214.1,141.9z" id="el_2nh1Dri6j4q"/>
	<path display="inline" stroke-miterlimit="10" d="M-205.7,91.4&#10;&#9;&#9;c2.1,2.1,5.6,2.4,8,0.5c2.3-1.7,3.1-5,1.8-7.6c-1.1-2.2-3.3-3.4-5.5-3.4c-0.2,0-0.3-0.2-0.1-0.4c0.7-0.5,1.5-1,2.1-1.9&#10;&#9;&#9;c1.2-1.8,1.4-4,0.6-5.9c-1.6-3.5-5.8-4.7-8.9-2.7c-1.9,1.2-2.9,3.3-2.8,5.4c0,0.2-0.2,0.3-0.4,0.1c-0.6-1.1-1.4-2.2-2.6-3&#10;&#9;&#9;c-2.9-2.2-6.8-2.6-10.1-1c-4.6,2.3-6.4,7.6-4.6,12c-5.9,5.2-7.3,12.5-4.9,18.2" id="el_ALUYg8ZqXM3"/>
	<path display="inline" stroke-miterlimit="10" d="M-223.6,120.4c0.2,0,0.4-0.2,0.4-0.4&#10;&#9;&#9;c0-0.2-0.2-0.4-0.4-0.4c-0.2,0-0.4,0.2-0.4,0.4C-224.1,120.2-223.9,120.4-223.6,120.4z" id="el_0JwBPANYf_S"/>
	<path display="inline" stroke-miterlimit="10" d="M-221.5,122.6c0.2,0,0.4-0.2,0.4-0.4&#10;&#9;&#9;c0-0.2-0.2-0.4-0.4-0.4c-0.2,0-0.4,0.2-0.4,0.4C-221.9,122.4-221.7,122.6-221.5,122.6z" id="el_8fvZr0ae5wz"/>
	<path display="inline" stroke-miterlimit="10" d="M-228,120.3c0.2,0,0.4-0.2,0.4-0.4&#10;&#9;&#9;c0-0.2-0.2-0.4-0.4-0.4c-0.2,0-0.4,0.2-0.4,0.4C-228.4,120.1-228.2,120.3-228,120.3z" id="el_j-hXAoue6l0"/>
	<path display="inline" stroke-miterlimit="10" d="M-223.6,124.8c0.2,0,0.4-0.2,0.4-0.4&#10;&#9;&#9;c0-0.2-0.2-0.4-0.4-0.4c-0.2,0-0.4,0.2-0.4,0.4C-224.1,124.6-223.9,124.8-223.6,124.8z" id="el_J2B23Hzyjty"/>
	<path display="inline" stroke-miterlimit="10" d="M-225.8,122.5c0.2,0,0.4-0.2,0.4-0.4&#10;&#9;&#9;c0-0.2-0.2-0.4-0.4-0.4c-0.2,0-0.4,0.2-0.4,0.4C-226.3,122.3-226.1,122.5-225.8,122.5z" id="el_FU-Q5AvEK-c"/>
	<path display="inline" d="M-198.3,120.3c0.8,3.3-0.9,6.5-3.8,7.2c-2.9,0.7-5.9-1.3-6.7-4.6l-0.7-2.7l10.6-2.7L-198.3,120.3z" id="el_uKeIYEj0qIQ"/>
	<path display="inline" d="M-205.7,128.7c2.1,0,3.8-1.7,3.8-3.8s-1.7-3.8-3.8-3.8c-2.1,0-3.8,1.7-3.8,3.8&#10;&#9;&#9;S-207.8,128.7-205.7,128.7z" id="el_Ev_-dW9WDmH"/>
	<path display="inline" stroke-miterlimit="10" d="M-197.9,120.8&#10;&#9;&#9;c0.7,2.9-1,5.8-3.9,6.6c-2.9,0.7-5.9-1-6.6-3.9l-1-3.3l10.6-2.7L-197.9,120.8z" id="el_CaZjlzXHr_f"/>
	<path display="inline" d="M-207.5,245.2c-24.5,0-44.4-19.9-44.4-44.3v-48.8c0-11,9-20,20-20c11,0,20,9,20,20v48.8&#10;&#9;&#9;c0,2.4,2,4.4,4.4,4.4c2.4,0,4.4-2,4.4-4.4v-27.4c0-11,9-20,20-20c11,0,20,9,20,20v27.4C-163.1,225.3-183.1,245.2-207.5,245.2z" id="el_xAzwg3bPZAJ"/>
	<path display="inline" d="M-173.7,156l0.1-25.8c0-2.6-2.1-4.7-4.7-4.7c-2.6,0-4.7,2.1-4.7,4.7l-0.1,25.9l0.1-25.8&#10;&#9;&#9;c0-2.6-2.1-4.7-4.7-4.7s-4.7,2.1-4.7,4.7l-0.1,25.9l0.1-25.8c0-2.6-2.1-4.7-4.7-4.7c-2.6,0-4.7,2.1-4.7,4.7l-0.1,25.5l-10.5-0.1&#10;&#9;&#9;c-2.6,0-4.7,2.1-4.7,4.7c0,2.7,2.1,4.7,4.7,4.7l10.5,0.1v8.2l38,0.3l0.1-33.5c0-2.6-2.1-4.7-4.7-4.7c-2.6,0-4.7,2.1-4.7,4.7" id="el_LhZoRYnoYIR"/>
	<path display="inline" stroke-miterlimit="10" d="M-173.7,156l0.1-25.8&#10;&#9;&#9;c0-2.6-2.1-4.7-4.7-4.7c-2.6,0-4.7,2.1-4.7,4.7l-0.1,25.9l0.1-25.8c0-2.6-2.1-4.7-4.7-4.7s-4.7,2.1-4.7,4.7l-0.1,25.9l0.1-25.8&#10;&#9;&#9;c0-2.6-2.1-4.7-4.7-4.7c-2.6,0-4.7,2.1-4.7,4.7l-0.1,25.5l-10.5-0.1c-2.6,0-4.7,2.1-4.7,4.7c0,2.7,2.1,4.7,4.7,4.7l10.5,0.1v8.2&#10;&#9;&#9;l38,0.3l0.1-33.5c0-2.6-2.1-4.7-4.7-4.7c-2.6,0-4.7,2.1-4.7,4.7" id="el_LPtncFn0W3g"/>
	<path display="inline" d="M-124.5,158.1h2.7l0.1-4.9" id="el_mCV04n6Af8_"/>
	<path display="inline" stroke-miterlimit="10" d="M-124.5,158.1h2.7l0.1-4.9" id="el_xscOyt-HB_d"/>
	<path display="inline" d="M-83.7,144.1v27.3h-38l0.1-4.3h-0.9c-4.8,0-8.7-3.9-8.7-8.7l0.1-7.7c0-2.7,2.4-5,5.3-4.7&#10;&#9;&#9;c2.4,0.2,4.3,2.4,4.2,5" id="el_zLhOejatFOE"/>
	<path display="inline" stroke-miterlimit="10" d="M-83.7,144.1v27.3h-38l0.1-4.3&#10;&#9;&#9;h-0.9c-4.8,0-8.7-3.9-8.7-8.7l0.1-7.7c0-2.7,2.4-5,5.3-4.7c2.4,0.2,4.3,2.4,4.2,5" id="el_xQ0AX_ang8O"/>
	<path display="inline" stroke-miterlimit="10" d="M-121.6,138.5l-0.1,14.8&#10;&#9;&#9;c0,2.6,2.1,4.7,4.7,4.7c2.6,0,4.7-2.1,4.7-4.7l0.1-14.8H-121.6z" id="el_7GFuNm9tT2y"/>
	<path display="inline" stroke-miterlimit="10" d="M-112.2,138.5l-0.1,14.8&#10;&#9;&#9;c0,2.6,2.1,4.7,4.7,4.7c2.6,0,4.7-2.1,4.7-4.7l0.1-14.8H-112.2z" id="el_DCb4fctDTZD"/>
	<path display="inline" stroke-miterlimit="10" d="M-102.7,138.5l-0.1,14.8&#10;&#9;&#9;c0,2.6,2.1,4.7,4.7,4.7c2.7,0,4.7-2.1,4.7-4.7l0.1-14.8H-102.7z" id="el_YZ5We_2mMwQ"/>
	<path display="inline" stroke-miterlimit="10" d="M-93.2,138.5l-0.1,14.8&#10;&#9;&#9;c0,2.6,2.1,4.7,4.7,4.7c2.6,0,4.7-2.1,4.7-4.7l0.1-14.8H-93.2z" id="el_3GBzEJVGEzw"/>
	<path display="inline" d="M-134.9,136.1v16.4l-25,3.9v-24L-134.9,136.1z" id="el_eSZnPjvog9v"/>
	<path display="inline" stroke-miterlimit="10" d="M-131.2,140.5l-0.1,16.4l-25,3.8&#10;&#9;&#9;l0.1-24L-131.2,140.5z" id="el_6XIsNpxB-KP"/>
	<path display="inline" stroke-miterlimit="10" d="M-131.2,143.8l0,9.8l9.5,0&#10;&#9;&#9;l0-9.8L-131.2,143.8z" id="el_QFD3coF7pun"/>
	<path display="inline" d="M67.6,267.6H51.1l-3.9-24.9h24.1L67.6,267.6z" id="el_0YYIaZ2rWbk"/>
	<path display="inline" stroke-miterlimit="10" d="M72.3,271.3l-16.5-0.1l-3.8-24.9&#10;&#9;&#9;l24.1,0.1L72.3,271.3z" id="el_txxbyurcV_N"/>
	<path display="inline" stroke-miterlimit="10" d="M69,271.3l-9.8,0l0,7.2l9.8,0&#10;&#9;&#9;L69,271.3z" id="el_LX2gQGDkq8o"/>
	<path display="inline" stroke-miterlimit="10" d="M-83.5,147.3H25.8&#10;&#9;&#9;c51.1,0,92.5-41.4,92.5-92.3c0-51-41.5-92.3-92.5-92.3h-6.2c-51.1,0-92.5,41.4-92.5,92.3v228.3V372c0,37.7,30.6,68.3,68.4,68.3&#10;&#9;&#9;S64,409.7,64,372l0.1-93.5" id="el_oV5dr6LqNV9"/>
	<path display="inline" stroke-miterlimit="10" d="M-202.8,273.6h-45.3v251.9&#10;&#9;&#9;h183.7L-202.8,273.6z" id="el_0VO6tOq-wlg"/>
	<path display="inline" d="M61.7,315l-8.5,0.1c-2.6,0-4.7-2.1-4.7-4.7c0-2.6,2.1-4.7,4.7-4.7l8.5-0.1l-8.5,0.1&#10;&#9;&#9;c-2.6,0-4.7-2.1-4.7-4.7c0-2.6,2.1-4.7,4.7-4.7l8.5-0.1l-8.5,0.1c-2.6,0-4.7-2.1-4.7-4.7s2.1-4.7,4.7-4.7l15.6-0.1l-0.1-10.4&#10;&#9;&#9;c0-2.6,2.1-4.7,4.7-4.7s4.7,2.1,4.7,4.7l0.1,10.4h8.2l0.3,37.8L53,324.6c-2.6,0-4.7-2.1-4.7-4.7c0-2.6,2.1-4.7,4.7-4.7" id="el_wr1QByds08P"/>
	<path display="inline" stroke-miterlimit="10" d="M61.7,315l-8.5,0.1&#10;&#9;&#9;c-2.6,0-4.7-2.1-4.7-4.7c0-2.6,2.1-4.7,4.7-4.7l8.5-0.1l-8.5,0.1c-2.6,0-4.7-2.1-4.7-4.7c0-2.6,2.1-4.7,4.7-4.7l8.5-0.1l-8.5,0.1&#10;&#9;&#9;c-2.6,0-4.7-2.1-4.7-4.7s2.1-4.7,4.7-4.7l15.6-0.1l-0.1-10.4c0-2.6,2.1-4.7,4.7-4.7s4.7,2.1,4.7,4.7l0.1,10.4h8.2l0.3,37.8&#10;&#9;&#9;L53,324.6c-2.6,0-4.7-2.1-4.7-4.7c0-2.6,2.1-4.7,4.7-4.7" id="el_iFFvZP3-UAV"/>
	<path display="inline" stroke-miterlimit="10" d="M157,201.9&#10;&#9;&#9;c3.8,0,6.8-3,6.8-6.8c0-3.8-3.1-6.8-6.8-6.8s-6.8,3-6.8,6.8C150.2,198.9,153.2,201.9,157,201.9z" id="el_GgvnX6yAtBy"/>
	<path display="inline" stroke-miterlimit="10" d="M134.6,211&#10;&#9;&#9;c13.3,0,24-10.7,24-24c0-13.2-10.8-24-24-24c-13.3,0-24,10.7-24,24C110.6,200.2,121.3,211,134.6,211z" id="el_goPw1xPi5jz"/>
	<path display="inline" d="M133.9,179.2c1.1,0,2-0.9,2-2s-0.9-2-2-2s-2,0.9-2,2S132.8,179.2,133.9,179.2z" id="el_Ly4eAUD5nBD"/>
	<path display="inline" d="M123.9,175.3c1.1,0,2-0.9,2-2c0-1.1-0.9-2-2-2c-1.1,0-2,0.9-2,2C121.9,174.4,122.8,175.3,123.9,175.3z" id="el_hQRZQB2RZiI"/>
	<path display="inline" d="M-213.3,113.6c1.1,0,2-0.9,2-2c0-1.1-0.9-2-2-2s-2,0.9-2,2C-215.3,112.7-214.4,113.6-213.3,113.6z" id="el_KWS4Ggj6hfB"/>
	<path display="inline" d="M-202.4,110.6c1.1,0,2-0.9,2-2c0-1.1-0.9-2-2-2s-2,0.9-2,2C-204.4,109.7-203.5,110.6-202.4,110.6z" id="el_ardvzFvnrwR"/>
	<path display="inline" stroke-miterlimit="10" d="M159.4,188.8&#10;&#9;&#9;c-24.6-5.6-17.5-24.6-17.5-24.6l1.3-3.3l10.6,0.1c6.5,0,36.8,7.9,38.3,38.8c0.5,10.1,6.2,14.1,12.5,14.5h1&#10;&#9;&#9;c45.1,0.1,81.5,36.7,81.3,81.7s-36.8,81.3-81.9,81.2h-20.8" id="el_coPn7VRxRSW"/>
	<path display="inline" d="M120.2,183.3c-1,2.7-0.4,7.3,2.3,8.3c2.7,1,6.7-1.8,7.7-4.5l0.9-2.3l-10-3.8L120.2,183.3z" id="el_gHK-bSs4xsz"/>
	<path display="inline" d="M129,188.9c2,0,3.7-1.7,3.7-3.7c0-2-1.7-3.7-3.7-3.7c-2,0-3.7,1.7-3.7,3.7&#10;&#9;&#9;C125.3,187.3,127,188.9,129,188.9z" id="el_0HdxwpUAE9W"/>
	<path display="inline" stroke-miterlimit="10" d="M119.4,184.7&#10;&#9;&#9;c-1,2.7,0.4,5.8,3.1,6.9c2.7,1,5.9-0.4,6.9-3.1l1.7-3.7l-10-3.8L119.4,184.7z" id="el_-HOIeWIxBNA"/>
	<path display="inline" d="M85.9,125.1l-0.1-24.3c0-2.6,2.1-4.7,4.7-4.7c2.6,0,4.7,2.1,4.7,4.7l0.1,28.6l10.4-0.1&#10;&#9;&#9;c2.6,0,4.7,2.1,4.7,4.7c0,2.6-2.1,4.7-4.7,4.7l-10.5,0.1v8.2l-37.8,0.3v-33.4" id="el_dKAznewGbE-"/>
	<path display="inline" stroke-miterlimit="10" d="M85.9,125.1l-0.1-24.3&#10;&#9;&#9;c0-2.6,2.1-4.7,4.7-4.7c2.6,0,4.7,2.1,4.7,4.7l0.1,28.6l10.4-0.1c2.6,0,4.7,2.1,4.7,4.7c0,2.6-2.1,4.7-4.7,4.7l-10.5,0.1v8.2&#10;&#9;&#9;l-37.8,0.3v-33.4" id="el_KVo18KOTGOa"/>
	<path display="inline" d="M76.4,113.9l0.1,11.5c0,2.6-2.1,4.7-4.7,4.7s-4.7-2.1-4.7-4.7L67,114l0.1,11.5&#10;&#9;&#9;c0,2.6-2.1,4.7-4.7,4.7c-2.6,0-4.7-2.1-4.7-4.7L57.6,114l28.3-0.1v11.5c0,2.6-2.1,4.7-4.7,4.7s-4.7-2.1-4.7-4.7" id="el_0EoXabU_Rhz"/>
	<path display="inline" stroke-miterlimit="10" d="M76.4,113.9l0.1,11.5&#10;&#9;&#9;c0,2.6-2.1,4.7-4.7,4.7s-4.7-2.1-4.7-4.7L67,114l0.1,11.5c0,2.6-2.1,4.7-4.7,4.7c-2.6,0-4.7-2.1-4.7-4.7L57.6,114l28.3-0.1v11.5&#10;&#9;&#9;c0,2.6-2.1,4.7-4.7,4.7s-4.7-2.1-4.7-4.7" id="el_VqaNgtZQr4H"/>
</g>
<g id="el_srVfCdBteJ-" display="none">
	<path display="inline" stroke-miterlimit="10" d="M-21.3,72&#10;&#9;&#9;c8.4,0.8,14-3.3,14.9-5.1c1.2-2.4-0.3-4.2-1.2-5.4c-0.9-1.2-6.4-8.3-7.2-9.3c-0.8-1.1-3.2-2.7-6.1-0.8c-2.9,1.9-13.4,8.9-19-4&#10;&#9;&#9;c-5.6-12.9,5-16.9,8.3-18.2c3.3-1.3,3.4-4.2,3-5.6c-0.3-1.3-2.6-10.1-3-11.5c-0.4-1.5-0.9-3.8-3.5-4.3c-1.9-0.4-8.3,2-12.8,9.3&#10;&#9;&#9;c-4.5,7.3-8.4,17.6-0.3,34.5C-40.2,68.3-26.4,71.5-21.3,72z" id="el_n0-AxrqSU3W"/>
</g>
<g id="el_5UNfKGstWv9">
	<g id="el_16Fau5FPl7Z">
		<path stroke-miterlimit="10" d="M122.9,38.1c3,0,5.5-2.5,5.5-5.5&#10;&#9;&#9;&#9;c0-3-2.5-5.5-5.5-5.5c-3,0-5.5,2.5-5.5,5.5C117.4,35.6,119.8,38.1,122.9,38.1z" id="el_F0v5RCIPZl6"/>
		<g id="el_gFvr9isfBF8_an_LHyMNcX3U" data-animator-group="true" data-animator-type="1"><path stroke-miterlimit="10" d="M138.3,36.4l-3.5-2c0.1-0.7,0.1-1.4,0.1-2.1&#10;&#9;&#9;&#9;c0-0.8-0.1-1.6-0.3-2.3l3.1-1.8l-4.1-7.2l-3.2,1.8c-1.2-0.9-2.5-1.7-3.8-2.2v-3.8h-8.2v3.8c-1.4,0.5-2.7,1.3-3.8,2.2l-3-1.8&#10;&#9;&#9;&#9;l-4.1,7.2l3.1,1.7c-0.1,0.8-0.3,1.6-0.3,2.3c0,0.8,0.1,1.4,0.3,2.2l-3.4,2l4.1,7.2l3.2-2c1.1,1,2.5,1.8,3.9,2.3v3.8h8.2v-3.8&#10;&#9;&#9;&#9;c1.4-0.5,2.8-1.3,4-2.4l3.4,2L138.3,36.4z" id="el_gFvr9isfBF8"/></g>
		<path stroke-miterlimit="10" d="M101.9,15.9c1.9,0,3.5-1.6,3.5-3.5&#10;&#9;&#9;&#9;S103.8,9,101.9,9c-1.9,0-3.5,1.6-3.5,3.5S99.9,15.9,101.9,15.9z" id="el_GaJBxwqCXwF"/>
		<g id="el_JyTjsw30j4a_an_lY_wC8piB" data-animator-group="true" data-animator-type="1"><path stroke-miterlimit="10" d="M111.6,14.8l-2.2-1.2c0.1-0.4,0.1-0.9,0.1-1.3&#10;&#9;&#9;&#9;c0-0.5-0.1-1-0.2-1.5l2-1.2l-2.6-4.5l-2,1.2c-0.7-0.6-1.5-1.1-2.4-1.4V2.5h-5.1v2.4c-0.9,0.3-1.7,0.8-2.4,1.4l-1.9-1.2l-2.6,4.5&#10;&#9;&#9;&#9;l2,1.1c-0.1,0.5-0.2,1-0.2,1.5c0,0.5,0.1,0.9,0.2,1.4l-2.1,1.2l2.6,4.5l2-1.2c0.7,0.6,1.5,1.1,2.4,1.5V22h5.1v-2.4&#10;&#9;&#9;&#9;c0.9-0.3,1.8-0.8,2.5-1.5l2.1,1.2L111.6,14.8z" id="el_JyTjsw30j4a"/></g>
	</g>
	<path stroke-miterlimit="10" d="M116.3,17.7L3.7,17.9l0.2,66.8l112.6-0.1&#10;&#9;&#9;L116.3,17.7z" id="el_EeeVIX6glYC"/>
	<path stroke-miterlimit="10" d="M3.8,25.8l112.6-0.2" id="el_x44zjBgLdyb"/>
	<path d="M7.1,23.3c0.8,0.5,1.8,0.2,2.2-0.6C9.8,22,9.5,21,8.7,20.5C8,20,7,20.3,6.5,21.1C6.1,21.9,6.3,22.9,7.1,23.3z" id="el_Fn4HL9uZ2I0"/>
	<path d="M13.2,23.3c0.8,0.5,1.8,0.2,2.2-0.6c0.5-0.8,0.2-1.8-0.6-2.2c-0.8-0.5-1.8-0.2-2.2,0.6C12.2,21.8,12.4,22.8,13.2,23.3z" id="el_KbEGYYYOjg9"/>
	<path d="M19.3,23.3c0.8,0.5,1.8,0.2,2.2-0.6c0.5-0.8,0.2-1.8-0.6-2.2c-0.8-0.5-1.8-0.2-2.2,0.6C18.3,21.8,18.5,22.8,19.3,23.3z" id="el_ZOLogX2AJ3k"/>
	<path display="none" stroke-miterlimit="10" d="M34.4,44.5c2.5,1.3,5.7,0.3,7-2.2&#10;&#9;&#9;c1.3-2.5,0.3-5.7-2.2-7c-2.5-1.3-5.7-0.3-7,2.2C30.8,40.1,31.8,43.2,34.4,44.5z" id="el_oAd5zxDbohM"/>
	<path display="none" stroke-miterlimit="10" d="M50.7,59.9&#10;&#9;&#9;c-0.4-7-6.4-12.5-13.4-12.1c-7,0.4-12.5,6.4-12.1,13.4l0.3,6.2L51,66L50.7,59.9z" id="el_UIxEcs2oAf-"/>
	<path stroke-miterlimit="10" d="M46.7,61.4l48.7,0" id="el_E53OaHSSb2v"/>
	<path stroke-miterlimit="10" d="M46.7,67l48.7-0.1" id="el_F6LEq9C04IT"/>
	<path stroke-miterlimit="10" d="M46.8,72.5l24.3,0" id="el_8wAOiIHEmxa"/>
</g>
<g id="el_8bQfNtwztz_">
	<g id="el_L1YwkyCdIT2">
		<path d="M100.2,48.7l-2.5-3.2l2.3-1.8c0.1-0.1,0.2-0.3,0.2-0.4c0-0.3-0.2-0.5-0.5-0.5c0,0,0,0,0,0&#10;&#9;&#9;&#9;c-0.1,0-0.3,0-0.4,0.2l-3.3,2.7l0-5.8c0-0.3-0.3-0.5-0.6-0.5l0,0c-0.3,0-0.5,0.2-0.5,0.5c0,0,0,0,0,0l0,9.4c0,0.3,0.3,0.5,0.6,0.5&#10;&#9;&#9;&#9;l0,0c0.3,0,0.5-0.2,0.5-0.5c0,0,0,0,0,0l0-2.3l0.8-0.6l2.5,3.2c0.1,0.1,0.3,0.2,0.4,0.3c0.3,0,0.5-0.2,0.5-0.5c0,0,0,0,0,0&#10;&#9;&#9;&#9;C100.3,48.9,100.3,48.8,100.2,48.7L100.2,48.7z M91.4,45.5c-0.8-0.3-1.5-0.5-1.5-1.1c0-0.6,0.8-0.8,1.2-0.8c0.6,0,1.1,0.2,1.5,0.6&#10;&#9;&#9;&#9;c0.1,0.1,0.2,0.2,0.4,0.2c0.3,0,0.5-0.2,0.5-0.5c0-0.1,0-0.2-0.1-0.3c-0.6-0.7-1.4-1-2.2-1c-1.4,0-2.3,0.7-2.3,1.8&#10;&#9;&#9;&#9;c0,1.4,1.2,1.8,2.3,2.2c0.8,0.3,1.5,0.5,1.5,1.1c0,0.6-0.9,1-1.4,1c-0.7,0-1.3-0.2-1.8-0.7c-0.1-0.1-0.2-0.2-0.4-0.2&#10;&#9;&#9;&#9;c-0.3,0-0.5,0.2-0.5,0.5c0,0.1,0,0.2,0.1,0.3c0.6,0.7,1.6,1.1,2.5,1.1c1.6,0,2.5-0.8,2.5-2C93.7,46.4,92.4,45.9,91.4,45.5z&#10;&#9;&#9;&#9; M84.8,43.5c1.1,0,1.7,0.6,1.7,1.9l-3.7,0C83,44.2,83.7,43.5,84.8,43.5z M87.7,45.4c0-0.6-0.2-1.3-0.5-1.8&#10;&#9;&#9;&#9;c-0.5-0.7-1.4-1.1-2.3-1.1c-1.9,0-3,1.3-3,3.5s1.1,3.6,3.2,3.6c0.8,0,1.7-0.3,2.3-0.8c0.1-0.1,0.2-0.2,0.2-0.4&#10;&#9;&#9;&#9;c0-0.3-0.2-0.5-0.5-0.5c-0.1,0-0.2,0-0.3,0.1c-0.5,0.4-1.1,0.6-1.7,0.6c-1.3,0-2-0.8-2.1-2.2l4.1,0C87.7,46.4,87.7,45.8,87.7,45.4&#10;&#9;&#9;&#9;z M77.6,48.6c-1.3,0-1.9-0.8-1.9-2.5s0.6-2.5,1.9-2.5c0.8,0,1.5,0.5,1.8,1.2l0,2C79.4,47.9,78.7,48.6,77.6,48.6L77.6,48.6z M80,39&#10;&#9;&#9;&#9;c-0.3,0-0.5,0.2-0.5,0.5c0,0,0,0,0,0l0,3.7c-0.5-0.5-1.2-0.8-1.9-0.8c-2,0-2.9,1.2-2.9,3.5c0,2.4,1.1,3.6,3,3.6&#10;&#9;&#9;&#9;c2,0,2.9-1.1,2.9-2.9l0-7.1C80.6,39.3,80.3,39,80,39L80,39L80,39z M70.8,42.5c-0.7,0-1.4,0.3-1.8,0.8l0-3.7c0-0.3-0.2-0.6-0.5-0.6&#10;&#9;&#9;&#9;c0,0,0,0,0,0c-0.3,0-0.5,0.2-0.5,0.5c0,0,0,0,0,0.1l0,9.4c0,0.3,0.2,0.6,0.5,0.6l0,0c0.3,0,0.6-0.2,0.6-0.5c0,0,0,0,0,0l0-3.5&#10;&#9;&#9;&#9;c0-1.3,0.6-1.9,1.8-1.9s1.6,0.5,1.6,1.8l0,3.6c0,0.3,0.2,0.6,0.5,0.6c0,0,0,0,0,0c0.3,0,0.5-0.2,0.5-0.5c0,0,0,0,0-0.1l0-3.8&#10;&#9;&#9;&#9;C73.5,43.4,72.6,42.5,70.8,42.5L70.8,42.5z M64.2,45.5c-0.8-0.3-1.5-0.5-1.5-1.1s0.8-0.8,1.2-0.8c0.6,0,1.1,0.2,1.5,0.6&#10;&#9;&#9;&#9;c0.2,0.2,0.5,0.2,0.7,0c0.1-0.1,0.2-0.2,0.2-0.4c0-0.1,0-0.2-0.1-0.3c-0.6-0.7-1.4-1-2.2-1c-1.4,0-2.3,0.7-2.3,1.8&#10;&#9;&#9;&#9;c0,1.4,1.2,1.8,2.3,2.2c0.8,0.3,1.5,0.5,1.5,1.1c0,0.6-0.9,1-1.4,1c-0.7,0-1.3-0.2-1.8-0.7c-0.1-0.1-0.2-0.2-0.4-0.2&#10;&#9;&#9;&#9;c-0.3,0-0.5,0.2-0.5,0.5c0,0.1,0,0.2,0.1,0.3c0.6,0.7,1.5,1.2,2.5,1.1c1.6,0,2.5-0.8,2.5-2C66.5,46.4,65.2,45.8,64.2,45.5&#10;&#9;&#9;&#9;L64.2,45.5z M57.7,43.5c1.1,0,1.7,0.6,1.7,1.9l-3.7,0C55.8,44.2,56.5,43.5,57.7,43.5L57.7,43.5z M60.5,45.4c0-0.6-0.2-1.3-0.5-1.8&#10;&#9;&#9;&#9;c-0.5-0.7-1.4-1.1-2.3-1.1c-1.9,0-3,1.3-3,3.5c0,2.2,1.1,3.6,3.2,3.6c0.8,0,1.7-0.3,2.3-0.8c0.1-0.1,0.2-0.2,0.2-0.4&#10;&#9;&#9;&#9;c0-0.3-0.2-0.5-0.5-0.5c-0.1,0-0.2,0-0.3,0.1c-0.5,0.4-1.1,0.6-1.7,0.6c-1.3,0-2-0.8-2.1-2.2l4.1,0C60.5,46.4,60.5,45.8,60.5,45.4&#10;&#9;&#9;&#9;z M53.8,42.5c-0.7,0-1.5,0.3-1.9,0.9l0-0.3c0-0.3-0.3-0.6-0.6-0.6c-0.3,0-0.6,0.3-0.6,0.6l0,0l0,5.8c0,0.3,0.2,0.6,0.5,0.6&#10;&#9;&#9;&#9;c0,0,0,0,0,0c0.3,0,0.6-0.2,0.6-0.5c0,0,0,0,0-0.1l0-3.2c0-1.4,0.7-2.2,1.9-2.2c0.3,0,0.5-0.2,0.5-0.5c0,0,0,0,0,0&#10;&#9;&#9;&#9;C54.3,42.7,54,42.5,53.8,42.5z M49.4,39.4c-1.9,0-2.6,1.3-2.6,2.6l0,0.8l-0.4,0c-0.3-0.1-0.6,0.1-0.6,0.4&#10;&#9;&#9;&#9;c-0.1,0.3,0.1,0.6,0.4,0.6c0.1,0,0.1,0,0.2,0l0.4,0l0,5.2c0,0.3,0.2,0.6,0.5,0.6c0,0,0,0,0,0c0.3,0,0.6-0.2,0.6-0.5c0,0,0,0,0-0.1&#10;&#9;&#9;&#9;l0-5.3l1.2,0c0.3,0,0.5-0.3,0.4-0.6c0-0.2-0.2-0.4-0.4-0.4l-1.2,0l0-0.8c0-0.7,0.3-1.5,1.5-1.5c0.3,0,0.5-0.2,0.5-0.5c0,0,0,0,0,0&#10;&#9;&#9;&#9;C50,39.6,49.7,39.4,49.4,39.4z" id="el_cD3UmFu2x5R"/>
		<path d="M39.2,32.7l-8.7,0C24.1,32.8,19,37.9,19,44.3c0,0,0,0,0,0c0,6.4,5.2,11.5,11.5,11.5l0.1,0&#10;&#9;&#9;&#9;c6.4,0,11.5-5.1,11.5-11.5l0-8.7c0,0,0,0,0,0C42.1,34,40.8,32.7,39.2,32.7z M35.8,46.7c0,0.8-0.6,1.5-1.4,1.7l0,0.1&#10;&#9;&#9;&#9;c0,1.2-0.9,2.1-2.1,2.1l-1.6,0c-0.1,0-0.3-0.1-0.3-0.3c0-0.1,0.1-0.2,0.3-0.2l1.6,0c0.9,0,1.6-0.7,1.6-1.6l0-0.1l-1.4,0l0-4.1l2,0&#10;&#9;&#9;&#9;l0-1.2c-0.1-2.1-1.8-3.8-3.9-3.9c-2.3-0.1-4.2,1.6-4.3,3.9l0,1.2l2,0l0,4.1l-1.5,0c-1,0-1.7-0.8-1.8-1.8l0-3.6&#10;&#9;&#9;&#9;c0-2.9,2.4-5.3,5.3-5.3c3,0,5.4,2.4,5.3,5.4C35.8,43.2,35.8,46.7,35.8,46.7z" id="el_tikp-YpbbOs"/>
	</g>
</g>
<g id="el_Fy9ph2hEY6N" display="none">
	<path display="inline" d="M103.4,47.2c0.8,1.3,16.9,30.7,16.9,30.7l2.7-3.5l1.6-6.8l1-0.3l10,6l2-1.6l0.7-1.9&#10;&#9;&#9;l-1.6-2.8l-1.3-0.4l-4.7-3.1c0,0-1.7-2-1.6-2c0.1-0.1,8-4.2,8-4.2l-1.3-1.4l-32.7-9.1" id="el_5GML8IY3jvL"/>
	<path display="inline" stroke-miterlimit="10" d="M103.4,47.2&#10;&#9;&#9;c0.8,1.3,16.9,30.7,16.9,30.7l2.7-3.5l1.6-6.8l1-0.3l10,6l2-1.6l0.7-1.9l-1.6-2.8l-1.3-0.4l-4.7-3.1c0,0-1.7-2-1.6-2&#10;&#9;&#9;c0.1-0.1,8-4.2,8-4.2l-1.3-1.4l-32.7-9.1" id="el_cWgmFIh0E2x"/>
	<path display="inline" stroke-miterlimit="10" d="M122.7,74.5L122.7,74.5L122.7,74.5z" id="el_X0rwGg3qIV-"/>
	<path display="inline" stroke-miterlimit="10" d="M105.5,49.2l1.8-1.1&#10;&#9;&#9;c-0.4-0.6-0.7-1.3-1.1-1.9c-0.6,0.4-1.3,0.7-1.9,1.1c-0.4-0.6-0.7-1.3-1.1-1.8c-0.6,0.3-1.2,0.6-1.8,1c6.2,10.7,12.5,21.3,18.7,32&#10;&#9;&#9;c1.3-0.7,2.5-1.5,3.7-2.2c-0.4-0.6-0.7-1.3-1.1-1.8c-0.6,0.4-1.2,0.7-1.8,1.1C115.7,66.8,110.6,58,105.5,49.2z" id="el_v-A3mg3zMs4"/>
	<path display="inline" stroke-miterlimit="10" d="M134.2,55.2&#10;&#9;&#9;C134.2,55.2,134.2,55.2,134.2,55.2L134.2,55.2z" id="el_i9w0h8Z09Cc"/>
	<path display="inline" stroke-miterlimit="10" d="M138.3,57.9c-0.7-1.3-1.5-2.5-2.2-3.7&#10;&#9;&#9;c-0.6,0.4-1.3,0.7-1.8,1.1c0.4,0.6,0.7,1.2,1.1,1.8c-2.5,1.5-5,2.9-7.5,4.4c0.7,1.3,1.5,2.5,2.2,3.7c0.6-0.4,1.2-0.7,1.8-1.1&#10;&#9;&#9;c-0.4-0.6-0.7-1.3-1.1-1.9C133.2,60.8,135.8,59.3,138.3,57.9z" id="el_n531euzsABm"/>
	<path display="inline" stroke-miterlimit="10" d="M135.4,74.6c1.3-0.7,2.5-1.5,3.7-2.2&#10;&#9;&#9;c-0.4-0.6-0.7-1.3-1.1-1.8c-1.3,0.7-2.5,1.5-3.7,2.2C134.7,73.4,135.1,74,135.4,74.6z" id="el_KoMZHPg00jN"/>
	<path display="inline" stroke-miterlimit="10" d="M135.9,66.8L135.9,66.8L135.9,66.8z" id="el_wQYau3bFfP4"/>
	<path display="inline" stroke-miterlimit="10" d="M140,69.4c-0.7-1.3-1.5-2.5-2.2-3.7&#10;&#9;&#9;c-0.6,0.4-1.3,0.7-1.8,1.1c0.7,1.3,1.5,2.5,2.2,3.7C138.7,70.2,139.4,69.8,140,69.4z" id="el_31gb2dl0qAX"/>
	<path display="inline" stroke-miterlimit="10" d="M130.3,70.1c0.7,1.3,1.5,2.5,2.2,3.7&#10;&#9;&#9;c0.6-0.4,1.3-0.7,1.9-1.1c-0.7-1.3-1.5-2.5-2.2-3.7C131.5,69.4,130.9,69.7,130.3,70.1z" id="el__i5RFCw8HAj"/>
	<path display="inline" stroke-miterlimit="10" d="M135.9,66.8L135.9,66.8L135.9,66.8z" id="el_4jCVrRtpCSi"/>
	<path display="inline" stroke-miterlimit="10" d="M135.9,66.8c-0.7-1.3-1.5-2.5-2.2-3.7&#10;&#9;&#9;c-0.6,0.4-1.3,0.7-1.9,1.1c0.7,1.3,1.5,2.5,2.2,3.7C134.7,67.5,135.3,67.2,135.9,66.8z" id="el_qRsaGHTb6lF"/>
	<path display="inline" stroke-miterlimit="10" d="M126.2,67.5L126.2,67.5L126.2,67.5z" id="el_uh-yC1VlWdf"/>
	<path display="inline" stroke-miterlimit="10" d="M126.2,67.5c0.7,1.3,1.5,2.5,2.2,3.7&#10;&#9;&#9;c0.6-0.4,1.3-0.7,1.9-1.1c-0.7-1.3-1.5-2.5-2.2-3.7C127.4,66.7,126.8,67,126.2,67.5z" id="el_m3VvSvtJjXE"/>
	<path display="inline" stroke-miterlimit="10" d="M131.2,54.4c-0.4-0.6-0.7-1.3-1.1-1.9&#10;&#9;&#9;c-0.6,0.4-1.3,0.7-1.9,1.1c0.4,0.6,0.7,1.2,1.1,1.9C130,55.1,130.6,54.7,131.2,54.4z" id="el_CxHQe33Djwa"/>
	<path display="inline" stroke-miterlimit="10" d="M134.2,55.2c-0.4-0.6-0.7-1.3-1.1-1.9&#10;&#9;&#9;c-0.6,0.4-1.3,0.7-1.9,1.1c0.4,0.6,0.7,1.2,1.1,1.9C133,55.9,133.6,55.5,134.2,55.2z" id="el_fPTZveIMktK"/>
	<path display="inline" stroke-miterlimit="10" d="M128.2,53.6c-0.4-0.6-0.7-1.3-1.1-1.9&#10;&#9;&#9;c-0.6,0.4-1.3,0.7-1.9,1.1c0.4,0.6,0.7,1.2,1.1,1.9C127,54.3,127.6,54,128.2,53.6z" id="el_Wit6GSMdiFq"/>
	<path display="inline" stroke-miterlimit="10" d="M126.2,67.4L126.2,67.4L126.2,67.4z" id="el_grLDBmUYftE"/>
	<path display="inline" stroke-miterlimit="10" d="M123.2,66.7c0.4,0.6,0.7,1.3,1.1,1.8&#10;&#9;&#9;c0.3-0.1,0.6-0.4,0.8-0.5c0.4-0.2,0.7-0.4,1-0.6c-0.4-0.6-0.7-1.2-1.1-1.8C124.5,65.9,123.8,66.3,123.2,66.7z" id="el_skpFjPSinf0"/>
	<path display="inline" stroke-miterlimit="10" d="M123.6,71.5c0.6-0.4,1.3-0.7,1.9-1.1&#10;&#9;&#9;c-0.4-0.6-0.7-1.3-1.1-1.9c-0.6,0.4-1.2,0.7-1.9,1.1C122.8,70.3,123.1,70.9,123.6,71.5z" id="el_GTFACjjm91z"/>
	<path display="inline" stroke-miterlimit="10" d="M122.3,52.1L122.3,52.1L122.3,52.1z" id="el_r6orLS_QLHB"/>
	<path display="inline" stroke-miterlimit="10" d="M125.3,52.8c-0.4-0.6-0.7-1.3-1.1-1.9&#10;&#9;&#9;c-0.6,0.4-1.3,0.7-1.9,1.1c0.4,0.6,0.7,1.2,1.1,1.9C124,53.5,124.6,53.2,125.3,52.8z" id="el_GEkwEHYoPMC"/>
	<path display="inline" stroke-miterlimit="10" d="M122.2,52.1c-0.4-0.6-0.7-1.3-1.1-1.9&#10;&#9;&#9;c-0.6,0.4-1.3,0.7-1.9,1.1c0.4,0.6,0.7,1.2,1.1,1.9C121,52.8,121.7,52.4,122.2,52.1z" id="el_XKcLX6NYnF4"/>
	<path display="inline" stroke-miterlimit="10" d="M119.3,51.3c-0.4-0.6-0.7-1.3-1.1-1.9&#10;&#9;&#9;c-0.6,0.4-1.3,0.7-1.9,1.1c0.4,0.6,0.7,1.2,1.1,1.9C118.1,52,118.6,51.6,119.3,51.3z" id="el_3r9sNZV_w59"/>
	<path display="inline" stroke-miterlimit="10" d="M122.8,74.5L122.8,74.5L122.8,74.5z" id="el_kv3OgmuTTY2"/>
	<path display="inline" stroke-miterlimit="10" d="M122.8,74.5c0.6-0.4,1.3-0.7,1.9-1.1&#10;&#9;&#9;c-0.4-0.6-0.7-1.3-1.1-1.9c-0.6,0.4-1.3,0.7-1.9,1.1C122,73.3,122.4,73.9,122.8,74.5z" id="el_TvmeWLAcoot"/>
	<path display="inline" stroke-miterlimit="10" d="M113.3,49.7L113.3,49.7L113.3,49.7z" id="el_K0wUYpEI3ex"/>
	<path display="inline" stroke-miterlimit="10" d="M116.3,50.4&#10;&#9;&#9;C116.3,50.5,116.3,50.5,116.3,50.4C116.3,50.5,116.3,50.5,116.3,50.4z" id="el_AYUsodJoZ4h"/>
	<path display="inline" stroke-miterlimit="10" d="M116.3,50.5c-0.4-0.6-0.7-1.3-1.1-1.9&#10;&#9;&#9;c-0.6,0.4-1.3,0.7-1.9,1.1c0.4,0.6,0.7,1.2,1.1,1.9C115,51.2,115.7,50.9,116.3,50.5z" id="el_5gKimuvNCkU"/>
	<path display="inline" stroke-miterlimit="10" d="M110.4,48.9C110.4,49,110.4,49,110.4,48.9&#10;&#9;&#9;L110.4,48.9z" id="el_NZAO50t8WGO"/>
	<path display="inline" stroke-miterlimit="10" d="M113.3,49.7L113.3,49.7L113.3,49.7z" id="el_q1dG5WFWhHa"/>
	<path display="inline" stroke-miterlimit="10" d="M113.3,49.7c-0.4-0.6-0.7-1.3-1.1-1.9&#10;&#9;&#9;c-0.6,0.4-1.3,0.7-1.9,1.1c0.4,0.6,0.7,1.2,1.1,1.9C112.1,50.4,112.7,50.1,113.3,49.7z" id="el_GOfBCLnVs4J"/>
	<path display="inline" stroke-miterlimit="10" d="M110.4,48.9&#10;&#9;&#9;C110.3,48.9,110.3,48.9,110.4,48.9C110.3,48.9,110.3,48.9,110.4,48.9z" id="el_4gsqwT4vocj"/>
	<path display="inline" stroke-miterlimit="10" d="M110.3,48.9c-0.4-0.6-0.7-1.3-1.1-1.9&#10;&#9;&#9;c-0.6,0.4-1.3,0.7-1.9,1.1c0.4,0.6,0.7,1.2,1.1,1.9C109.1,49.7,109.7,49.3,110.3,48.9z" id="el_-q8hrw-SlOF"/>
</g>
</svg>