<svg id="e02h8atbbi6lu1" xmlns="http://www.w3.org/2000/svg" xmlns:xlink="http://www.w3.org/1999/xlink" viewBox="0 0 64 64" shape-rendering="geometricPrecision" text-rendering="geometricPrecision"><style><![CDATA[#e02h8atbbi6lu2_to {animation: e02h8atbbi6lu2_to__to 3000ms linear 1 normal forwards}@keyframes e02h8atbbi6lu2_to__to { 0% {transform: translate(0px,62.454114px);animation-timing-function: cubic-bezier(0.420000,0,0.580000,1)} 6.666667% {transform: translate(0px,62.454114px);animation-timing-function: cubic-bezier(0.420000,0,0.580000,1)} 36.666667% {transform: translate(0px,0.454114px)} 100% {transform: translate(0px,0.454114px)} }#e02h8atbbi6lu6_to {animation: e02h8atbbi6lu6_to__to 3000ms linear 1 normal forwards}@keyframes e02h8atbbi6lu6_to__to { 0% {transform: translate(0px,-40px);animation-timing-function: cubic-bezier(0.680000,-0.550000,0.265000,1.550000)} 33.333333% {transform: translate(0px,-40px);animation-timing-function: cubic-bezier(0.680000,-0.550000,0.265000,1.550000)} 60% {transform: translate(0px,0px)} 100% {transform: translate(0px,0px)} }#e02h8atbbi6lu12_to {animation: e02h8atbbi6lu12_to__to 3000ms linear 1 normal forwards}@keyframes e02h8atbbi6lu12_to__to { 0% {transform: translate(0px,62.454114px);animation-timing-function: cubic-bezier(0.420000,0,0.580000,1)} 6.666667% {transform: translate(0px,62.454114px);animation-timing-function: cubic-bezier(0.420000,0,0.580000,1)} 36.666667% {transform: translate(0px,0.454114px)} 100% {transform: translate(0px,0.454114px)} }]]></style><g id="e02h8atbbi6lu2_to" transform="translate(0,62.454114)"><g id="e02h8atbbi6lu2" transform="translate(0,0)"><path id="e02h8atbbi6lu3" d="M62.000400,64L64.000900,64C63.670500,51.714600,60.457600,40.923600,49.415400,36.123600L48.618100,37.957800C58.528700,42.265900,61.670100,51.960300,62.000400,64ZM2.000560,64L0,64C0.336192,51.742700,3.592210,40.945200,14.581900,36.124900L15.385300,37.956500C5.517910,42.284500,2.336480,51.995000,2.000560,64Z" clip-rule="evenodd" fill="rgb(0,0,0)" fill-rule="evenodd" stroke="none" stroke-width="1"/><path id="e02h8atbbi6lu4" d="M28.998600,22C28.998600,24.208200,27.206500,26,24.993800,26C22.781000,26,20.988900,24.208200,20.988900,22C20.988900,19.791800,22.781000,18,24.993800,18C27.206500,18,28.998600,19.791800,28.998600,22Z" fill="none" stroke="rgb(0,0,0)" stroke-width="2"/><path id="e02h8atbbi6lu5" d="M43.012300,22C43.012300,24.208200,41.220200,26,39.007400,26C36.794700,26,35.002600,24.208200,35.002600,22C35.002600,19.791800,36.794700,18,39.007400,18C41.220200,18,43.012300,19.791800,43.012300,22Z" fill="none" stroke="rgb(0,0,0)" stroke-width="2"/></g></g><g id="e02h8atbbi6lu6_to" transform="translate(0,-40)"><g id="e02h8atbbi6lu6" transform="translate(0,0)"><rect id="e02h8atbbi6lu7" width="12.011700" height="6" rx="3" ry="0" transform="matrix(1 0 0 1 29.99850000000000 32)" fill="rgb(134,236,22)" stroke="none" stroke-width="1"/><path id="e02h8atbbi6lu8" d="M39.507900,35C44.512800,35.166700,54.522500,34,54.522500,28" fill="none" stroke="rgb(134,236,22)" stroke-width="2"/><path id="e02h8atbbi6lu9" d="M63.030800,26C63.030800,31.522900,56.547300,36,51.019100,36L52.449000,26L51.019100,16C56.547300,16,63.030800,20.477200,63.030800,26Z" fill="rgb(134,236,22)" stroke="none" stroke-width="1"/><path id="e02h8atbbi6lu10" d="M53.021000,21L53.021000,20C53.021000,10.058900,44.962100,2,35.021000,2L28.980100,2C19.039000,2,10.980100,10.058900,10.980100,20L10.980100,21" fill="none" stroke="rgb(134,236,22)" stroke-width="4"/><path id="e02h8atbbi6lu11" d="M0.969971,26C0.969971,31.522900,7.453430,36,12.981700,36L11.551700,26L12.981700,16C7.453430,16,0.969971,20.477200,0.969971,26Z" transform="matrix(1 0 0 1 -0.96997100000000 0)" fill="rgb(134,236,22)" stroke="none" stroke-width="1"/></g></g><g id="e02h8atbbi6lu12_to" transform="translate(0,62.454114)"><path id="e02h8atbbi6lu12" d="M52.021000,26C52.021000,37.044800,43.058500,46,32.000600,46C20.942600,46,11.980100,37.044800,11.980100,26C11.980100,14.955200,20.942600,6,32.000600,6C43.058500,6,52.021000,14.955200,52.021000,26Z" transform="translate(0,0)" fill="none" stroke="rgb(0,0,0)" stroke-width="2"/></g></svg>