<svg version="1.1" xmlns="http://www.w3.org/2000/svg" xmlns:xlink="http://www.w3.org/1999/xlink" x="0px" y="0px" viewBox="0 0 254 318" enable-background="new 0 0 254 318" xml:space="preserve" id="el_Jvq7zQIET"><style>@-webkit-keyframes kf_el__w98pxOolZE_an_lHi3KjbZP{57.25%{-webkit-transform: translate(212.28912353515625px, 267.7094421386719px) translate(-212.28912353515625px, -267.7094421386719px) translate(0px, 0px);transform: translate(212.28912353515625px, 267.7094421386719px) translate(-212.28912353515625px, -267.7094421386719px) translate(0px, 0px);}0%{-webkit-transform: translate(212.28912353515625px, 267.7094421386719px) translate(-212.28912353515625px, -267.7094421386719px) translate(0px, 0px);transform: translate(212.28912353515625px, 267.7094421386719px) translate(-212.28912353515625px, -267.7094421386719px) translate(0px, 0px);}100%{-webkit-transform: translate(212.28912353515625px, 267.7094421386719px) translate(-212.28912353515625px, -267.7094421386719px) translate(0px, 0px);transform: translate(212.28912353515625px, 267.7094421386719px) translate(-212.28912353515625px, -267.7094421386719px) translate(0px, 0px);}}@keyframes kf_el__w98pxOolZE_an_lHi3KjbZP{57.25%{-webkit-transform: translate(212.28912353515625px, 267.7094421386719px) translate(-212.28912353515625px, -267.7094421386719px) translate(0px, 0px);transform: translate(212.28912353515625px, 267.7094421386719px) translate(-212.28912353515625px, -267.7094421386719px) translate(0px, 0px);}0%{-webkit-transform: translate(212.28912353515625px, 267.7094421386719px) translate(-212.28912353515625px, -267.7094421386719px) translate(0px, 0px);transform: translate(212.28912353515625px, 267.7094421386719px) translate(-212.28912353515625px, -267.7094421386719px) translate(0px, 0px);}100%{-webkit-transform: translate(212.28912353515625px, 267.7094421386719px) translate(-212.28912353515625px, -267.7094421386719px) translate(0px, 0px);transform: translate(212.28912353515625px, 267.7094421386719px) translate(-212.28912353515625px, -267.7094421386719px) translate(0px, 0px);}}@-webkit-keyframes kf_el__w98pxOolZE_an_TxvSNu4Qy{7.25%{-webkit-transform: translate(212.28912353515625px, 267.7094421386719px) rotate(20deg) translate(-212.28912353515625px, -267.7094421386719px);transform: translate(212.28912353515625px, 267.7094421386719px) rotate(20deg) translate(-212.28912353515625px, -267.7094421386719px);}18.12%{-webkit-transform: translate(212.28912353515625px, 267.7094421386719px) rotate(0deg) translate(-212.28912353515625px, -267.7094421386719px);transform: translate(212.28912353515625px, 267.7094421386719px) rotate(0deg) translate(-212.28912353515625px, -267.7094421386719px);}57.25%{-webkit-transform: translate(212.28912353515625px, 267.7094421386719px) rotate(0deg) translate(-212.28912353515625px, -267.7094421386719px);transform: translate(212.28912353515625px, 267.7094421386719px) rotate(0deg) translate(-212.28912353515625px, -267.7094421386719px);}68.84%{-webkit-transform: translate(212.28912353515625px, 267.7094421386719px) rotate(20deg) translate(-212.28912353515625px, -267.7094421386719px);transform: translate(212.28912353515625px, 267.7094421386719px) rotate(20deg) translate(-212.28912353515625px, -267.7094421386719px);}0%{-webkit-transform: translate(212.28912353515625px, 267.7094421386719px) rotate(20deg) translate(-212.28912353515625px, -267.7094421386719px);transform: translate(212.28912353515625px, 267.7094421386719px) rotate(20deg) translate(-212.28912353515625px, -267.7094421386719px);}100%{-webkit-transform: translate(212.28912353515625px, 267.7094421386719px) rotate(20deg) translate(-212.28912353515625px, -267.7094421386719px);transform: translate(212.28912353515625px, 267.7094421386719px) rotate(20deg) translate(-212.28912353515625px, -267.7094421386719px);}}@keyframes kf_el__w98pxOolZE_an_TxvSNu4Qy{7.25%{-webkit-transform: translate(212.28912353515625px, 267.7094421386719px) rotate(20deg) translate(-212.28912353515625px, -267.7094421386719px);transform: translate(212.28912353515625px, 267.7094421386719px) rotate(20deg) translate(-212.28912353515625px, -267.7094421386719px);}18.12%{-webkit-transform: translate(212.28912353515625px, 267.7094421386719px) rotate(0deg) translate(-212.28912353515625px, -267.7094421386719px);transform: translate(212.28912353515625px, 267.7094421386719px) rotate(0deg) translate(-212.28912353515625px, -267.7094421386719px);}57.25%{-webkit-transform: translate(212.28912353515625px, 267.7094421386719px) rotate(0deg) translate(-212.28912353515625px, -267.7094421386719px);transform: translate(212.28912353515625px, 267.7094421386719px) rotate(0deg) translate(-212.28912353515625px, -267.7094421386719px);}68.84%{-webkit-transform: translate(212.28912353515625px, 267.7094421386719px) rotate(20deg) translate(-212.28912353515625px, -267.7094421386719px);transform: translate(212.28912353515625px, 267.7094421386719px) rotate(20deg) translate(-212.28912353515625px, -267.7094421386719px);}0%{-webkit-transform: translate(212.28912353515625px, 267.7094421386719px) rotate(20deg) translate(-212.28912353515625px, -267.7094421386719px);transform: translate(212.28912353515625px, 267.7094421386719px) rotate(20deg) translate(-212.28912353515625px, -267.7094421386719px);}100%{-webkit-transform: translate(212.28912353515625px, 267.7094421386719px) rotate(20deg) translate(-212.28912353515625px, -267.7094421386719px);transform: translate(212.28912353515625px, 267.7094421386719px) rotate(20deg) translate(-212.28912353515625px, -267.7094421386719px);}}@-webkit-keyframes kf_el_1gx7lsl_Ep_an_P64UB-uoi{7.25%{-webkit-transform: translate(117.80000305175781px, 158.61549377441406px) translate(-117.80000305175781px, -158.61549377441406px) translate(50px, -30px);transform: translate(117.80000305175781px, 158.61549377441406px) translate(-117.80000305175781px, -158.61549377441406px) translate(50px, -30px);}18.12%{-webkit-transform: translate(117.80000305175781px, 158.61549377441406px) translate(-117.80000305175781px, -158.61549377441406px) translate(3px, -2px);transform: translate(117.80000305175781px, 158.61549377441406px) translate(-117.80000305175781px, -158.61549377441406px) translate(3px, -2px);}57.25%{-webkit-transform: translate(117.80000305175781px, 158.61549377441406px) translate(-117.80000305175781px, -158.61549377441406px) translate(3px, -2px);transform: translate(117.80000305175781px, 158.61549377441406px) translate(-117.80000305175781px, -158.61549377441406px) translate(3px, -2px);}68.84%{-webkit-transform: translate(117.80000305175781px, 158.61549377441406px) translate(-117.80000305175781px, -158.61549377441406px) translate(50px, -30px);transform: translate(117.80000305175781px, 158.61549377441406px) translate(-117.80000305175781px, -158.61549377441406px) translate(50px, -30px);}0%{-webkit-transform: translate(117.80000305175781px, 158.61549377441406px) translate(-117.80000305175781px, -158.61549377441406px) translate(50px, -30px);transform: translate(117.80000305175781px, 158.61549377441406px) translate(-117.80000305175781px, -158.61549377441406px) translate(50px, -30px);}100%{-webkit-transform: translate(117.80000305175781px, 158.61549377441406px) translate(-117.80000305175781px, -158.61549377441406px) translate(50px, -30px);transform: translate(117.80000305175781px, 158.61549377441406px) translate(-117.80000305175781px, -158.61549377441406px) translate(50px, -30px);}}@keyframes kf_el_1gx7lsl_Ep_an_P64UB-uoi{7.25%{-webkit-transform: translate(117.80000305175781px, 158.61549377441406px) translate(-117.80000305175781px, -158.61549377441406px) translate(50px, -30px);transform: translate(117.80000305175781px, 158.61549377441406px) translate(-117.80000305175781px, -158.61549377441406px) translate(50px, -30px);}18.12%{-webkit-transform: translate(117.80000305175781px, 158.61549377441406px) translate(-117.80000305175781px, -158.61549377441406px) translate(3px, -2px);transform: translate(117.80000305175781px, 158.61549377441406px) translate(-117.80000305175781px, -158.61549377441406px) translate(3px, -2px);}57.25%{-webkit-transform: translate(117.80000305175781px, 158.61549377441406px) translate(-117.80000305175781px, -158.61549377441406px) translate(3px, -2px);transform: translate(117.80000305175781px, 158.61549377441406px) translate(-117.80000305175781px, -158.61549377441406px) translate(3px, -2px);}68.84%{-webkit-transform: translate(117.80000305175781px, 158.61549377441406px) translate(-117.80000305175781px, -158.61549377441406px) translate(50px, -30px);transform: translate(117.80000305175781px, 158.61549377441406px) translate(-117.80000305175781px, -158.61549377441406px) translate(50px, -30px);}0%{-webkit-transform: translate(117.80000305175781px, 158.61549377441406px) translate(-117.80000305175781px, -158.61549377441406px) translate(50px, -30px);transform: translate(117.80000305175781px, 158.61549377441406px) translate(-117.80000305175781px, -158.61549377441406px) translate(50px, -30px);}100%{-webkit-transform: translate(117.80000305175781px, 158.61549377441406px) translate(-117.80000305175781px, -158.61549377441406px) translate(50px, -30px);transform: translate(117.80000305175781px, 158.61549377441406px) translate(-117.80000305175781px, -158.61549377441406px) translate(50px, -30px);}}@-webkit-keyframes kf_el_1gx7lsl_Ep_an_hZJwtDT8T{7.25%{-webkit-transform: translate(117.80000305175781px, 158.61549377441406px) rotate(-120deg) translate(-117.80000305175781px, -158.61549377441406px);transform: translate(117.80000305175781px, 158.61549377441406px) rotate(-120deg) translate(-117.80000305175781px, -158.61549377441406px);}18.12%{-webkit-transform: translate(117.80000305175781px, 158.61549377441406px) rotate(0deg) translate(-117.80000305175781px, -158.61549377441406px);transform: translate(117.80000305175781px, 158.61549377441406px) rotate(0deg) translate(-117.80000305175781px, -158.61549377441406px);}23.19%{-webkit-transform: translate(117.80000305175781px, 158.61549377441406px) rotate(0deg) translate(-117.80000305175781px, -158.61549377441406px);transform: translate(117.80000305175781px, 158.61549377441406px) rotate(0deg) translate(-117.80000305175781px, -158.61549377441406px);}32.61%{-webkit-transform: translate(117.80000305175781px, 158.61549377441406px) rotate(14deg) translate(-117.80000305175781px, -158.61549377441406px);transform: translate(117.80000305175781px, 158.61549377441406px) rotate(14deg) translate(-117.80000305175781px, -158.61549377441406px);}40.58%{-webkit-transform: translate(117.80000305175781px, 158.61549377441406px) rotate(-14deg) translate(-117.80000305175781px, -158.61549377441406px);transform: translate(117.80000305175781px, 158.61549377441406px) rotate(-14deg) translate(-117.80000305175781px, -158.61549377441406px);}48.55%{-webkit-transform: translate(117.80000305175781px, 158.61549377441406px) rotate(12deg) translate(-117.80000305175781px, -158.61549377441406px);transform: translate(117.80000305175781px, 158.61549377441406px) rotate(12deg) translate(-117.80000305175781px, -158.61549377441406px);}57.25%{-webkit-transform: translate(117.80000305175781px, 158.61549377441406px) rotate(0deg) translate(-117.80000305175781px, -158.61549377441406px);transform: translate(117.80000305175781px, 158.61549377441406px) rotate(0deg) translate(-117.80000305175781px, -158.61549377441406px);}68.84%{-webkit-transform: translate(117.80000305175781px, 158.61549377441406px) rotate(-120deg) translate(-117.80000305175781px, -158.61549377441406px);transform: translate(117.80000305175781px, 158.61549377441406px) rotate(-120deg) translate(-117.80000305175781px, -158.61549377441406px);}0%{-webkit-transform: translate(117.80000305175781px, 158.61549377441406px) rotate(-120deg) translate(-117.80000305175781px, -158.61549377441406px);transform: translate(117.80000305175781px, 158.61549377441406px) rotate(-120deg) translate(-117.80000305175781px, -158.61549377441406px);}100%{-webkit-transform: translate(117.80000305175781px, 158.61549377441406px) rotate(-120deg) translate(-117.80000305175781px, -158.61549377441406px);transform: translate(117.80000305175781px, 158.61549377441406px) rotate(-120deg) translate(-117.80000305175781px, -158.61549377441406px);}}@keyframes kf_el_1gx7lsl_Ep_an_hZJwtDT8T{7.25%{-webkit-transform: translate(117.80000305175781px, 158.61549377441406px) rotate(-120deg) translate(-117.80000305175781px, -158.61549377441406px);transform: translate(117.80000305175781px, 158.61549377441406px) rotate(-120deg) translate(-117.80000305175781px, -158.61549377441406px);}18.12%{-webkit-transform: translate(117.80000305175781px, 158.61549377441406px) rotate(0deg) translate(-117.80000305175781px, -158.61549377441406px);transform: translate(117.80000305175781px, 158.61549377441406px) rotate(0deg) translate(-117.80000305175781px, -158.61549377441406px);}23.19%{-webkit-transform: translate(117.80000305175781px, 158.61549377441406px) rotate(0deg) translate(-117.80000305175781px, -158.61549377441406px);transform: translate(117.80000305175781px, 158.61549377441406px) rotate(0deg) translate(-117.80000305175781px, -158.61549377441406px);}32.61%{-webkit-transform: translate(117.80000305175781px, 158.61549377441406px) rotate(14deg) translate(-117.80000305175781px, -158.61549377441406px);transform: translate(117.80000305175781px, 158.61549377441406px) rotate(14deg) translate(-117.80000305175781px, -158.61549377441406px);}40.58%{-webkit-transform: translate(117.80000305175781px, 158.61549377441406px) rotate(-14deg) translate(-117.80000305175781px, -158.61549377441406px);transform: translate(117.80000305175781px, 158.61549377441406px) rotate(-14deg) translate(-117.80000305175781px, -158.61549377441406px);}48.55%{-webkit-transform: translate(117.80000305175781px, 158.61549377441406px) rotate(12deg) translate(-117.80000305175781px, -158.61549377441406px);transform: translate(117.80000305175781px, 158.61549377441406px) rotate(12deg) translate(-117.80000305175781px, -158.61549377441406px);}57.25%{-webkit-transform: translate(117.80000305175781px, 158.61549377441406px) rotate(0deg) translate(-117.80000305175781px, -158.61549377441406px);transform: translate(117.80000305175781px, 158.61549377441406px) rotate(0deg) translate(-117.80000305175781px, -158.61549377441406px);}68.84%{-webkit-transform: translate(117.80000305175781px, 158.61549377441406px) rotate(-120deg) translate(-117.80000305175781px, -158.61549377441406px);transform: translate(117.80000305175781px, 158.61549377441406px) rotate(-120deg) translate(-117.80000305175781px, -158.61549377441406px);}0%{-webkit-transform: translate(117.80000305175781px, 158.61549377441406px) rotate(-120deg) translate(-117.80000305175781px, -158.61549377441406px);transform: translate(117.80000305175781px, 158.61549377441406px) rotate(-120deg) translate(-117.80000305175781px, -158.61549377441406px);}100%{-webkit-transform: translate(117.80000305175781px, 158.61549377441406px) rotate(-120deg) translate(-117.80000305175781px, -158.61549377441406px);transform: translate(117.80000305175781px, 158.61549377441406px) rotate(-120deg) translate(-117.80000305175781px, -158.61549377441406px);}}#el_Jvq7zQIET *{-webkit-animation-duration: 4.6s;animation-duration: 4.6s;-webkit-animation-iteration-count: infinite;animation-iteration-count: infinite;-webkit-animation-timing-function: cubic-bezier(0, 0, 1, 1);animation-timing-function: cubic-bezier(0, 0, 1, 1);}#el_PvrZC-xeRs{stroke: #000000;}#el_e0mfHp48No{fill: #FFFFFF;stroke: #000000;}#el_a3reUBcXdm{fill: #FFFFFF;stroke: #000000;}#el_jLPt-rpubq{fill: #FFFFFF;stroke: #000000;stroke-width: 0.75;}#el_kvrqD7a972X{fill: #FFFFFF;stroke: #000000;}#el_3TMaTV3b4qS{fill: #FFFFFF;stroke: #000000;}#el_wukq2sIOU6O{fill: #FFFFFF;stroke: #000000;}#el_TiPKxQQaI2v{-webkit-transform: matrix(0.9413, -0.3376, 0.3376, 0.9413, -18.3459, 42.9014);transform: matrix(0.9413, -0.3376, 0.3376, 0.9413, -18.3459, 42.9014);fill: #FFFFFF;stroke: #000000;}#el_BJoGjr1uc_k{-webkit-transform: matrix(0.9413, -0.3376, 0.3376, 0.9413, -30.5708, 37.6911);transform: matrix(0.9413, -0.3376, 0.3376, 0.9413, -30.5708, 37.6911);fill: #FFFFFF;stroke: #000000;}#el_maVfLzgZMrS{-webkit-transform: matrix(0.9413, -0.3376, 0.3376, 0.9413, -19.9599, 56.3713);transform: matrix(0.9413, -0.3376, 0.3376, 0.9413, -19.9599, 56.3713);fill: #FFFFFF;stroke: #000000;}#el_SI4dg81B6Eg{fill: #FFFFFF;stroke: #000000;}#el_X2KeeNwSnFM{fill: #FFFFFF;stroke: #000000;}#el_ZbTL86rHr76{stroke: #000000;}#el_cDybAkbfEfi{stroke: #000000;}#el_2Ctr5xhRsyJ{stroke: #000000;}#el_9hxsmLelm20{stroke: #000000;}#el_usZWadVsjjI{stroke: #000000;}#el_kshHzMPqjgc{stroke: #000000;}#el_KpqylB_Gv2E{stroke: #000000;}#el_cxH72Rmn6xO{stroke: #000000;}#el_9dPBKxIp4Yc{stroke: #000000;}#el__kghDjNzVml{stroke: #000000;}#el_DiGOSidGY0F{stroke: #000000;}#el_Y760hvfICez{stroke: #000000;}#el_SYWUIo1TzcD{stroke: #000000;}#el_gzGse7DIoTm{stroke: #000000;}#el_riicbk7AoNR{fill: none;stroke: #86ED18;}#el_zXhRUi_yKp8{fill: none;stroke: #000000;stroke-width: 1.5;}#el_ZT2VXyueL3y{fill: none;stroke: #000000;stroke-width: 1.5;}#el_pQW7g1gsCUq{-webkit-transform: matrix(0.9413, -0.3376, 0.3376, 0.9413, -33.895, 51.8335);transform: matrix(0.9413, -0.3376, 0.3376, 0.9413, -33.895, 51.8335);fill: #FFFFFF;stroke: #000000;}#el_t3u__rdMmPG{stroke: #000000;}#el_VHgAQvj-i7e{fill: #FFFFFF;stroke: #000000;}#el_lrROCOfu0HN{fill: #FFFFFF;stroke: #000000;}#el_S0t20-tPTtk{fill: #FFFFFF;stroke: #000000;}#el_F7zn8Cw3fgQ{fill: #FFFFFF;stroke: #000000;}#el_dLIRVWsQzdd{fill: #FFFFFF;stroke: #000000;}#el_8pdgXrW6NRC{-webkit-transform: matrix(0.9413, -0.3376, 0.3376, 0.9413, -74.2587, 66.8908);transform: matrix(0.9413, -0.3376, 0.3376, 0.9413, -74.2587, 66.8908);fill: #FFFFFF;stroke: #000000;}#el_6uPrg9Yj4jV{-webkit-transform: matrix(0.9413, -0.3376, 0.3376, 0.9413, -67.4985, 78.7919);transform: matrix(0.9413, -0.3376, 0.3376, 0.9413, -67.4985, 78.7919);fill: #FFFFFF;stroke: #000000;}#el_Xwfy5FPZuk_{fill: #FFFFFF;stroke: #000000;}#el_MH8TxXpzC5x{fill: #FFFFFF;stroke: #000000;}#el_IYNKbpu2yzy{fill: #FFFFFF;stroke: #000000;}#el_WP1kAqBIswk{fill: #FFFFFF;stroke: #000000;}#el_ejQJxk3xyqR{fill: #FFFFFF;stroke: #000000;}#el_wBnFmtjHYdh{fill: #FFFFFF;stroke: #000000;}#el_7Qf8ybpHIaL{fill: #FFFFFF;stroke: #000000;}#el_ScMgMydjzlv{fill: #FFFFFF;stroke: #000000;}#el_5wy0E23bboz{stroke: #FFFFFF;}#el_iAYpisPnhUQ{fill: #FFFFFF;}#el_1gx7lsl_Ep_an_hZJwtDT8T{-webkit-animation-fill-mode: backwards;animation-fill-mode: backwards;-webkit-transform: translate(117.80000305175781px, 158.61549377441406px) rotate(-120deg) translate(-117.80000305175781px, -158.61549377441406px);transform: translate(117.80000305175781px, 158.61549377441406px) rotate(-120deg) translate(-117.80000305175781px, -158.61549377441406px);-webkit-animation-name: kf_el_1gx7lsl_Ep_an_hZJwtDT8T;animation-name: kf_el_1gx7lsl_Ep_an_hZJwtDT8T;-webkit-animation-timing-function: cubic-bezier(0.42, 0, 0.58, 1);animation-timing-function: cubic-bezier(0.42, 0, 0.58, 1);}#el_1gx7lsl_Ep_an_P64UB-uoi{-webkit-animation-fill-mode: backwards;animation-fill-mode: backwards;-webkit-transform: translate(117.80000305175781px, 158.61549377441406px) translate(-117.80000305175781px, -158.61549377441406px) translate(50px, -30px);transform: translate(117.80000305175781px, 158.61549377441406px) translate(-117.80000305175781px, -158.61549377441406px) translate(50px, -30px);-webkit-animation-name: kf_el_1gx7lsl_Ep_an_P64UB-uoi;animation-name: kf_el_1gx7lsl_Ep_an_P64UB-uoi;-webkit-animation-timing-function: cubic-bezier(0.42, 0, 0.58, 1);animation-timing-function: cubic-bezier(0.42, 0, 0.58, 1);}#el__w98pxOolZE_an_TxvSNu4Qy{-webkit-animation-fill-mode: backwards;animation-fill-mode: backwards;-webkit-transform: translate(212.28912353515625px, 267.7094421386719px) rotate(20deg) translate(-212.28912353515625px, -267.7094421386719px);transform: translate(212.28912353515625px, 267.7094421386719px) rotate(20deg) translate(-212.28912353515625px, -267.7094421386719px);-webkit-animation-name: kf_el__w98pxOolZE_an_TxvSNu4Qy;animation-name: kf_el__w98pxOolZE_an_TxvSNu4Qy;-webkit-animation-timing-function: cubic-bezier(0.42, 0, 0.58, 1);animation-timing-function: cubic-bezier(0.42, 0, 0.58, 1);}#el__w98pxOolZE_an_lHi3KjbZP{-webkit-animation-fill-mode: backwards;animation-fill-mode: backwards;-webkit-transform: translate(212.28912353515625px, 267.7094421386719px) translate(-212.28912353515625px, -267.7094421386719px) translate(0px, 0px);transform: translate(212.28912353515625px, 267.7094421386719px) translate(-212.28912353515625px, -267.7094421386719px) translate(0px, 0px);-webkit-animation-name: kf_el__w98pxOolZE_an_lHi3KjbZP;animation-name: kf_el__w98pxOolZE_an_lHi3KjbZP;-webkit-animation-timing-function: cubic-bezier(0, 0, 1, 1);animation-timing-function: cubic-bezier(0, 0, 1, 1);}</style>
<g id="el_1gx7lsl_Ep_an_P64UB-uoi" data-animator-group="true" data-animator-type="0"><g id="el_1gx7lsl_Ep_an_hZJwtDT8T" data-animator-group="true" data-animator-type="1"><g id="el_1gx7lsl_Ep">
	<path stroke-miterlimit="10" d="M117.8,151.2c0,0-18.7,14.2-40.2,3.3l3.8-7.5c0,0,13.5,6.8,27.2-0.4L117.8,151.2z&#10;&#9;&#9;" id="el_PvrZC-xeRs"/>
	<path stroke-miterlimit="10" d="M65.6,142.9l-0.7,1.5c-1.2,2.5-0.2,5.5,2.2,6.7l7.8,3.9&#10;&#9;&#9;c2.5,1.2,5.5,0.2,6.7-2.2l0.7-1.5c1.2-2.5,0.2-5.5-2.2-6.7l-7.8-3.9C69.9,139.4,66.8,140.4,65.6,142.9z" id="el_e0mfHp48No"/>
	<path stroke-miterlimit="10" d="M71.7,146.6c-3,5.9-10.1,8.2-16,5.2c-5.3-2.7-7.7-8.8-5.9-14.3&#10;&#9;&#9;l5.1,2.6c-0.4,2.4,0.8,4.9,3.1,6.1c2.9,1.4,6.4,0.3,7.8-2.6c1.4-2.9,0.3-6.4-2.6-7.8c-2.3-1.2-5-0.6-6.8,1.1l-5.1-2.6&#10;&#9;&#9;c3.3-4.7,9.7-6.4,15-3.7C72.3,133.6,74.6,140.7,71.7,146.6z" id="el_a3reUBcXdm"/>
	
		<path stroke-linecap="round" stroke-linejoin="round" stroke-miterlimit="10" d="&#10;&#9;&#9;M67.8,133.7c0,7.6-6.2,13.8-13.8,13.8s-13.8-6.2-13.8-13.8S46.5,120,54.1,120c0.8,0,1.7,0.1,2.5,0.2C56,121,56,122.9,58,122&#10;&#9;&#9;c0,2,1,2.9,2.9,2c0,1,2,2,3.3,0.5C66.4,126.9,67.8,130.2,67.8,133.7z" id="el_jLPt-rpubq"/>
	<circle cx="50.1" cy="125.4" r="2" id="el_BFtIvGPAn4"/>
	<circle cx="61.4" cy="128.3" r="2" id="el_RBL4BQCMRn"/>
	<circle cx="61.4" cy="139.2" r="2" id="el__BJqG-CVRJ"/>
	<circle cx="52.6" cy="142.1" r="2" id="el_vu-GbqNHnA"/>
	<circle cx="45.2" cy="134.2" r="2" id="el_OwtExzB9uB"/>
	<circle cx="54.5" cy="133.3" r="2" id="el_NRIH2y63k4"/>
	<circle cx="55" cy="124.9" r="0.5" id="el_GWkcMlyqm0"/>
	<circle cx="47.2" cy="138.7" r="0.5" id="el_Drr3mF5cRd"/>
	<circle cx="47.2" cy="140.6" r="0.5" id="el_4bYkHWdzd3"/>
	<circle cx="45.2" cy="139.6" r="0.5" id="el_QPX5i5GfTc"/>
	<circle cx="55" cy="138.7" r="0.5" id="el_8bcype9ziSA"/>
	<path d="M57.5,139.6c0,0.3-0.2,0.5-0.5,0.5c-0.3,0-0.5-0.2-0.5-0.5s0.2-0.5,0.5-0.5C57.3,139.2,57.5,139.4,57.5,139.6z" id="el_HutzPX0Atvu"/>
	<path d="M57.5,137.7c0,0.3-0.2,0.5-0.5,0.5c-0.3,0-0.5-0.2-0.5-0.5s0.2-0.5,0.5-0.5C57.3,137.2,57.5,137.4,57.5,137.7z" id="el_-DeIWHBb3R3"/>
	<circle cx="62.9" cy="131.8" r="0.5" id="el_YZA_AiypD_i"/>
	<circle cx="59.9" cy="131.8" r="0.5" id="el_IhKVt_LimTF"/>
	<circle cx="53.1" cy="128.8" r="0.5" id="el_ewEg3sZ8L-s"/>
	<circle cx="56" cy="126.9" r="0.5" id="el_f41VG7u4Rcr"/>
	<path stroke-miterlimit="10" d="M71.7,146.6c-3,5.9-10.1,8.2-16,5.2c-5.3-2.7-7.7-8.8-5.9-14.3&#10;&#9;&#9;l5.1,2.6c-0.4,2.4,0.8,4.9,3.1,6.1c2.9,1.4,6.4,0.3,7.8-2.6C67.2,140.8,74.6,140.7,71.7,146.6z" id="el_kvrqD7a972X"/>
	<circle stroke-miterlimit="10" cx="70.2" cy="146.1" r="7.1" id="el_3TMaTV3b4qS"/>
	<polygon points="73.2,147.7 70.4,149.6 67.3,148 67.1,144.6 70,142.7 73.1,144.3 &#9;" id="el_66c6BoxLxcw"/>
</g></g></g>
<g id="el__w98pxOolZE_an_lHi3KjbZP" data-animator-group="true" data-animator-type="0"><g id="el__w98pxOolZE_an_TxvSNu4Qy" data-animator-group="true" data-animator-type="1"><g id="el__w98pxOolZE">
	<polygon stroke-miterlimit="10" points="110,58.2 107.7,59.1 110.9,69.7 114.4,68.5 &#9;" id="el_wukq2sIOU6O"/>
	
		<ellipse stroke-miterlimit="10" cx="114.2" cy="74.2" rx="9.4" ry="5.8" id="el_TiPKxQQaI2v"/>
	
		<ellipse stroke-miterlimit="10" cx="93.1" cy="106.7" rx="4.8" ry="10.1" id="el_BJoGjr1uc_k"/>
	
		<ellipse stroke-miterlimit="10" cx="152.1" cy="85.6" rx="4.8" ry="10.1" id="el_maVfLzgZMrS"/>
	<circle stroke-miterlimit="10" cx="107.7" cy="55.3" r="4.3" id="el_SI4dg81B6Eg"/>
	<path stroke-miterlimit="10" d="M149.4,113.4l-36.8,13.2c-6.2,2.2-13.1-1-15.3-7.2l-9.1-25.5&#10;&#9;&#9;c-2.2-6.2,1-13.1,7.2-15.3l36.8-13.2c6.2-2.2,13.1,1,15.3,7.2l9.1,25.5C158.9,104.2,155.6,111.2,149.4,113.4z" id="el_X2KeeNwSnFM"/>
	<path stroke-miterlimit="10" d="M137.3,91.6c0.3-0.1,0.4-0.4,0.3-0.7c-0.1-0.3-0.4-0.4-0.7-0.3s-0.4,0.4-0.3,0.7&#10;&#9;&#9;C136.7,91.6,137,91.7,137.3,91.6z" id="el_ZbTL86rHr76"/>
	<path stroke-miterlimit="10" d="M135.7,94.9c0.3-0.1,0.4-0.4,0.3-0.7c-0.1-0.3-0.4-0.4-0.7-0.3s-0.4,0.4-0.3,0.7&#10;&#9;&#9;C135.1,94.8,135.4,95,135.7,94.9z" id="el_cDybAkbfEfi"/>
	<path stroke-miterlimit="10" d="M142.2,89.8c0.3-0.1,0.4-0.4,0.3-0.7c-0.1-0.3-0.4-0.4-0.7-0.3s-0.4,0.4-0.3,0.7&#10;&#9;&#9;C141.6,89.8,141.9,89.9,142.2,89.8z" id="el_2Ctr5xhRsyJ"/>
	<path stroke-miterlimit="10" d="M139.1,96.6c0.3-0.1,0.4-0.4,0.3-0.7s-0.4-0.4-0.7-0.3s-0.4,0.4-0.3,0.7&#10;&#9;&#9;C138.5,96.5,138.8,96.7,139.1,96.6z" id="el_9hxsmLelm20"/>
	<path stroke-miterlimit="10" d="M144,94.8c0.3-0.1,0.4-0.4,0.3-0.7c-0.1-0.3-0.4-0.4-0.7-0.3&#10;&#9;&#9;c-0.3,0.1-0.4,0.4-0.3,0.7C143.4,94.8,143.7,94.9,144,94.8z" id="el_usZWadVsjjI"/>
	<path stroke-miterlimit="10" d="M140.7,93.1c0.3-0.1,0.4-0.4,0.3-0.7c-0.1-0.3-0.4-0.4-0.7-0.3&#10;&#9;&#9;c-0.3,0.1-0.4,0.4-0.3,0.7C140.1,93.1,140.4,93.2,140.7,93.1z" id="el_kshHzMPqjgc"/>
	<path stroke-miterlimit="10" d="M145.7,91.3c0.3-0.1,0.4-0.4,0.3-0.7c-0.1-0.3-0.4-0.4-0.7-0.3&#10;&#9;&#9;c-0.3,0.1-0.4,0.4-0.3,0.7C145.1,91.2,145.4,91.4,145.7,91.3z" id="el_KpqylB_Gv2E"/>
	<path stroke-miterlimit="10" d="M102.6,104.1c0.3-0.1,0.4-0.4,0.3-0.7c-0.1-0.3-0.4-0.4-0.7-0.3&#10;&#9;&#9;c-0.3,0.1-0.4,0.4-0.3,0.7S102.3,104.2,102.6,104.1z" id="el_cxH72Rmn6xO"/>
	<path stroke-miterlimit="10" d="M101,107.3c0.3-0.1,0.4-0.4,0.3-0.7c-0.1-0.3-0.4-0.4-0.7-0.3&#10;&#9;&#9;c-0.3,0.1-0.4,0.4-0.3,0.7C100.4,107.3,100.7,107.4,101,107.3z" id="el_9dPBKxIp4Yc"/>
	<path stroke-miterlimit="10" d="M107.4,102.3c0.3-0.1,0.4-0.4,0.3-0.7c-0.1-0.3-0.4-0.4-0.7-0.3&#10;&#9;&#9;c-0.3,0.1-0.4,0.4-0.3,0.7S107.1,102.4,107.4,102.3z" id="el__kghDjNzVml"/>
	<path stroke-miterlimit="10" d="M104.3,109c0.3-0.1,0.4-0.4,0.3-0.7c-0.1-0.3-0.4-0.4-0.7-0.3&#10;&#9;&#9;c-0.3,0.1-0.4,0.4-0.3,0.7C103.7,109,104,109.1,104.3,109z" id="el_DiGOSidGY0F"/>
	<path stroke-miterlimit="10" d="M109.2,107.3c0.3-0.1,0.4-0.4,0.3-0.7c-0.1-0.3-0.4-0.4-0.7-0.3&#10;&#9;&#9;c-0.3,0.1-0.4,0.4-0.3,0.7C108.6,107.2,108.9,107.4,109.2,107.3z" id="el_Y760hvfICez"/>
	<path stroke-miterlimit="10" d="M105.9,105.6c0.3-0.1,0.4-0.4,0.3-0.7c-0.1-0.3-0.4-0.4-0.7-0.3&#10;&#9;&#9;c-0.3,0.1-0.4,0.4-0.3,0.7C105.3,105.5,105.6,105.7,105.9,105.6z" id="el_SYWUIo1TzcD"/>
	<path stroke-miterlimit="10" d="M111,103.8c0.3-0.1,0.4-0.4,0.3-0.7c-0.1-0.3-0.4-0.4-0.7-0.3&#10;&#9;&#9;c-0.3,0.1-0.4,0.4-0.3,0.7C110.4,103.7,110.7,103.9,111,103.8z" id="el_gzGse7DIoTm"/>
	<path stroke-linejoin="round" stroke-miterlimit="10" d="M116.8,101.5c1.5,4.1,5.9,6.1,9.9,4.6&#10;&#9;&#9;c4-1.4,6.1-5.9,4.7-9.9" id="el_riicbk7AoNR"/>
	<path stroke-miterlimit="10" d="M129.7,87.1c1.1-0.4,1.7-1.6,1.3-2.8&#10;&#9;&#9;s-1.6-1.7-2.8-1.3c-1.1,0.4-1.7,1.6-1.3,2.8S128.6,87.5,129.7,87.1z" id="el_zXhRUi_yKp8"/>
	<path stroke-miterlimit="10" d="M112.4,93.4c1.1-0.4,1.7-1.6,1.3-2.8&#10;&#9;&#9;s-1.6-1.7-2.8-1.3c-1.1,0.4-1.7,1.6-1.3,2.8C110,93.2,111.2,93.8,112.4,93.4z" id="el_ZT2VXyueL3y"/>
	
		<rect id="el_pQW7g1gsCUq" x="123.7" y="120.1" stroke-miterlimit="10" width="16.7" height="6.6"/>
	<path stroke-miterlimit="10" d="M166.1,123.8c0,0,23.3,2.5,31.5,25.2l-7.9,2.9c0,0-5.1-14.2-20.1-18.4&#10;&#9;&#9;L166.1,123.8z" id="el_t3u__rdMmPG"/>
	<path stroke-miterlimit="10" d="M198.2,165.7l1.5-0.5c2.6-0.9,3.9-3.8,3-6.4l-2.9-8.2&#10;&#9;&#9;c-0.9-2.6-3.8-3.9-6.4-3l-1.5,0.5c-2.6,0.9-3.9,3.8-3,6.4l2.9,8.2C192.8,165.3,195.6,166.6,198.2,165.7z" id="el_VHgAQvj-i7e"/>
	<path stroke-miterlimit="10" d="M196.4,158.8c6.2-2.2,13,1,15.2,7.2c2,5.6-0.5,11.7-5.6,14.5&#10;&#9;&#9;l-1.9-5.4c2-1.5,2.8-4.1,1.9-6.6c-1.1-3-4.4-4.6-7.4-3.5s-4.6,4.4-3.5,7.4c0.9,2.4,3.2,3.9,5.7,3.8l1.9,5.4&#10;&#9;&#9;c-5.7,1.1-11.5-2-13.5-7.6C187,167.9,190.2,161.1,196.4,158.8z" id="el_lrROCOfu0HN"/>
	<circle stroke-miterlimit="10" cx="197.1" cy="160.2" r="7.1" id="el_S0t20-tPTtk"/>
	<polygon points="196,157 199.3,157.6 200.5,160.8 198.3,163.4 194.9,162.8 193.7,159.6 &#9;" id="el_3r2fnU1sgx-"/>
	<polygon stroke-miterlimit="10" points="136.3,197.6 139,210.8 149,207.3 146.8,193.8 &#9;" id="el_F7zn8Cw3fgQ"/>
	<polygon stroke-miterlimit="10" points="176,183.3 182.3,195.3 172.3,198.9 165.4,187.1 &#9;" id="el_dLIRVWsQzdd"/>
	
		<rect x="149.6" y="238.8" stroke-miterlimit="10" width="11.1" height="16.2" id="el_8pdgXrW6NRC"/>
	
		<rect x="187.2" y="225.4" stroke-miterlimit="10" width="11.1" height="16.2" id="el_6uPrg9Yj4jV"/>
	<path stroke-miterlimit="10" d="M167.9,262.8l-12.8,4.6c-2.9,1-6.1-0.5-7.1-3.4l0,0&#10;&#9;&#9;c-1-2.9,0.5-6.1,3.4-7.1l12.8-4.6c2.9-1,6.1,0.5,7.1,3.4v0C172.2,258.6,170.7,261.8,167.9,262.8z" id="el_Xwfy5FPZuk_"/>
	<path stroke-miterlimit="10" d="M205.9,249.1l-12.8,4.6c-2.9,1-6.1-0.5-7.1-3.4l0,0&#10;&#9;&#9;c-1-2.9,0.5-6.1,3.4-7.1l12.8-4.6c2.9-1,6.1,0.5,7.1,3.4l0,0C210.3,244.9,208.8,248.1,205.9,249.1z" id="el_MH8TxXpzC5x"/>
	<path stroke-miterlimit="10" d="M151.8,241.3L151.8,241.3c-4.7,1.2-9.6-1.7-10.8-6.4l-4.2-16.6&#10;&#9;&#9;c-1.2-4.7,1.7-9.6,6.4-10.8l0,0c4.7-1.2,9.6,1.7,10.8,6.4l4.2,16.6C159.5,235.3,156.6,240.1,151.8,241.3z" id="el_IYNKbpu2yzy"/>
	<path stroke-miterlimit="10" d="M191.7,227L191.7,227c4.4-2.1,6.3-7.4,4.2-11.8l-7.3-15.5&#10;&#9;&#9;c-2.1-4.4-7.4-6.3-11.8-4.2h0c-4.4,2.1-6.3,7.4-4.2,11.8l7.3,15.5C182,227.2,187.3,229.1,191.7,227z" id="el_WP1kAqBIswk"/>
	<circle stroke-miterlimit="10" cx="147.7" cy="226" r="10.4" id="el_ejQJxk3xyqR"/>
	<circle stroke-miterlimit="10" cx="185.3" cy="212.5" r="10.4" id="el_wBnFmtjHYdh"/>
	<path stroke-miterlimit="10" d="M174.8,183.8L137,197.3c-6.2,2.2-13.1-1-15.3-7.2l-14.9-41.7&#10;&#9;&#9;c-2.2-6.2,1-13.1,7.2-15.3l37.8-13.6c6.2-2.2,13.1,1,15.3,7.2l14.9,41.7C184.3,174.6,181,181.5,174.8,183.8z" id="el_7Qf8ybpHIaL"/>
	<path stroke-miterlimit="10" d="M163.1,180.1l-18.4,6.6c-6.7,2.4-14.2-1.1-16.6-7.8l-7.6-21.1&#10;&#9;&#9;c-2.4-6.7,1.1-14.2,7.8-16.6l18.4-6.6c6.7-2.4,14.2,1.1,16.6,7.8l7.6,21.1C173.3,170.2,169.8,177.7,163.1,180.1z" id="el_ScMgMydjzlv"/>
	<circle cx="120.3" cy="139.9" r="1" id="el_rpeXPFTuM7z"/>
	<circle cx="123.6" cy="138.7" r="1" id="el_ThJWQhd8HlL"/>
	<circle cx="127" cy="137.6" r="1" id="el_Pu0GoI27prS"/>
	<path stroke-miterlimit="10" d="M163.6,178.1l-20.7,7.4c-5.2,1.9-10.9-0.9-12.8-6l-8.4-23.5&#10;&#9;&#9;c-1.9-5.2,0.9-10.9,6-12.8l20.7-7.4c5.2-1.9,10.9,0.9,12.8,6l8.4,23.5C171.5,170.5,168.8,176.2,163.6,178.1z" id="el_5wy0E23bboz"/>
	<path d="M133.9,165.1c2.4,6.7,9.8,10.2,16.4,7.8c0.9-0.3,1.8-0.8,2.6-1.3l-2.4-6.8c-0.7,0.8-1.5,1.3-2.5,1.7&#10;&#9;&#9;c-3.1,1.1-6.6-0.5-7.7-3.7c-1.1-3.2,0.5-6.6,3.6-7.7c1-0.4,2-0.4,3-0.3l-2.4-6.8c-1,0.1-2,0.3-2.9,0.6&#10;&#9;&#9;C135,151,131.5,158.5,133.9,165.1z M147.7,148.1l7.7,21.4c3-3.4,4.2-8.4,2.5-13C156.3,151.9,152.3,148.7,147.7,148.1L147.7,148.1z" id="el_iAYpisPnhUQ"/>
</g></g></g>
</svg>