<svg id="e6ls0m6ql6c91" xmlns="http://www.w3.org/2000/svg" xmlns:xlink="http://www.w3.org/1999/xlink" viewBox="0 0 65 64" shape-rendering="geometricPrecision" text-rendering="geometricPrecision"><style><![CDATA[#e6ls0m6ql6c92 {animation: e6ls0m6ql6c92_c_o 4000ms linear 1 normal forwards}@keyframes e6ls0m6ql6c92_c_o { 0% {opacity: 0} 47.500000% {opacity: 0} 48.250000% {opacity: 0} 60% {opacity: 1} 100% {opacity: 1} }#e6ls0m6ql6c93_to {animation: e6ls0m6ql6c93_to__to 4000ms linear 1 normal forwards}@keyframes e6ls0m6ql6c93_to__to { 0% {transform: translate(32.500000px,23.943250px);animation-timing-function: cubic-bezier(0.420000,0,0.580000,1)} 50% {transform: translate(22.042842px,36.139714px)} 100% {transform: translate(22.042842px,36.139714px)} }#e6ls0m6ql6c93_tr {animation: e6ls0m6ql6c93_tr__tr 4000ms linear 1 normal forwards}@keyframes e6ls0m6ql6c93_tr__tr { 0% {transform: rotate(136deg);animation-timing-function: cubic-bezier(0.420000,0,0.580000,1)} 50% {transform: rotate(0deg)} 100% {transform: rotate(0deg)} }]]></style><path id="e6ls0m6ql6c92" d="M60.853635,12.919009L60.853635,12.075342L59.917944,12.075342L44.212191,12.075342L44.212191,13.762677L57.598099,13.762677L39.770262,29.263256L34.648040,25.179768L34.015898,24.675798L33.413956,25.210907L15.140600,41.455732L16.411788,42.697000L34.083108,26.987284L39.198333,31.065196L39.823477,31.563591L40.425052,31.040577L58.982346,14.905724L58.982346,27.081129L60.853635,27.081129L60.853635,12.919009Z" opacity="0" clip-rule="evenodd" fill="rgb(0,0,0)" fill-rule="evenodd" stroke="none" stroke-width="1"/><g id="e6ls0m6ql6c93_to" transform="translate(32.500000,23.943250)"><g id="e6ls0m6ql6c93_tr" transform="rotate(136)"><g id="e6ls0m6ql6c93" transform="translate(-22.042842,-36.139714)"><path id="e6ls0m6ql6c94" d="M5.931440,16.401200C7.771510,14.620400,10.850900,14.987300,12.189800,17.146800L17.280800,25.358700C18.225200,26.881900,17.977100,28.831600,16.679300,30.087600L13.176500,33.477600C11.336500,35.258400,8.257050,34.891500,6.918210,32.731900L1.827130,24.520100C0.882808,22.996900,1.130820,21.047200,2.428670,19.791100L5.931440,16.401200Z" fill="rgb(134,236,22)" stroke="none" stroke-width="1"/><path id="e6ls0m6ql6c95" d="M19.170500,39.173200C9.667170,29.975900,5.405730,21.107100,4.462940,17.822400L2.476180,19.745200C0.765931,21.400300,0.241913,23.891200,1.396060,25.948300C3.822110,30.272300,8.308870,36.873200,14.928000,43.279100C21.238900,49.386800,27.251000,53.711900,31.267400,56.214200C33.446400,57.571800,36.245500,57.138000,38.078000,55.364500L40.666300,52.859600C37.460800,52.129700,28.673900,48.370500,19.170500,39.173200Z" fill="rgb(134,236,22)" stroke="none" stroke-width="1"/><path id="e6ls0m6ql6c96" d="M42.134800,51.438400C43.974800,49.657600,43.595700,46.677400,41.364300,45.381700L32.879200,40.454600C31.305300,39.540700,29.290700,39.780700,27.992800,41.036800L24.490100,44.426700C22.650000,46.207500,23.029100,49.187700,25.260500,50.483400L33.745700,55.410500C35.319600,56.324400,37.334100,56.084400,38.632000,54.828400L42.134800,51.438400Z" fill="rgb(134,236,22)" stroke="none" stroke-width="1"/></g></g></g></svg>