<svg version="1.1" xmlns="http://www.w3.org/2000/svg" xmlns:xlink="http://www.w3.org/1999/xlink" x="0px" y="0px" viewBox="0 0 234 226" style="enable-background:new 0 0 234 226;" xml:space="preserve" id="el_Z3-hJYEXU"><style>@-webkit-keyframes kf_el_9FYaoq5tPtY_an_KUVK5inkG{13.89%{-webkit-transform: translate(101.39199829101562px, 116.8087387084961px) scale(1, 1) translate(-101.39199829101562px, -116.8087387084961px);transform: translate(101.39199829101562px, 116.8087387084961px) scale(1, 1) translate(-101.39199829101562px, -116.8087387084961px);}55.56%{-webkit-transform: translate(101.39199829101562px, 116.8087387084961px) scale(0.65, 0.65) translate(-101.39199829101562px, -116.8087387084961px);transform: translate(101.39199829101562px, 116.8087387084961px) scale(0.65, 0.65) translate(-101.39199829101562px, -116.8087387084961px);}69.44%{-webkit-transform: translate(101.39199829101562px, 116.8087387084961px) scale(0.65, 0.65) translate(-101.39199829101562px, -116.8087387084961px);transform: translate(101.39199829101562px, 116.8087387084961px) scale(0.65, 0.65) translate(-101.39199829101562px, -116.8087387084961px);}97.22%{-webkit-transform: translate(101.39199829101562px, 116.8087387084961px) scale(0.8, 0.8) translate(-101.39199829101562px, -116.8087387084961px);transform: translate(101.39199829101562px, 116.8087387084961px) scale(0.8, 0.8) translate(-101.39199829101562px, -116.8087387084961px);}0%{-webkit-transform: translate(101.39199829101562px, 116.8087387084961px) scale(1, 1) translate(-101.39199829101562px, -116.8087387084961px);transform: translate(101.39199829101562px, 116.8087387084961px) scale(1, 1) translate(-101.39199829101562px, -116.8087387084961px);}100%{-webkit-transform: translate(101.39199829101562px, 116.8087387084961px) scale(0.8, 0.8) translate(-101.39199829101562px, -116.8087387084961px);transform: translate(101.39199829101562px, 116.8087387084961px) scale(0.8, 0.8) translate(-101.39199829101562px, -116.8087387084961px);}}@keyframes kf_el_9FYaoq5tPtY_an_KUVK5inkG{13.89%{-webkit-transform: translate(101.39199829101562px, 116.8087387084961px) scale(1, 1) translate(-101.39199829101562px, -116.8087387084961px);transform: translate(101.39199829101562px, 116.8087387084961px) scale(1, 1) translate(-101.39199829101562px, -116.8087387084961px);}55.56%{-webkit-transform: translate(101.39199829101562px, 116.8087387084961px) scale(0.65, 0.65) translate(-101.39199829101562px, -116.8087387084961px);transform: translate(101.39199829101562px, 116.8087387084961px) scale(0.65, 0.65) translate(-101.39199829101562px, -116.8087387084961px);}69.44%{-webkit-transform: translate(101.39199829101562px, 116.8087387084961px) scale(0.65, 0.65) translate(-101.39199829101562px, -116.8087387084961px);transform: translate(101.39199829101562px, 116.8087387084961px) scale(0.65, 0.65) translate(-101.39199829101562px, -116.8087387084961px);}97.22%{-webkit-transform: translate(101.39199829101562px, 116.8087387084961px) scale(0.8, 0.8) translate(-101.39199829101562px, -116.8087387084961px);transform: translate(101.39199829101562px, 116.8087387084961px) scale(0.8, 0.8) translate(-101.39199829101562px, -116.8087387084961px);}0%{-webkit-transform: translate(101.39199829101562px, 116.8087387084961px) scale(1, 1) translate(-101.39199829101562px, -116.8087387084961px);transform: translate(101.39199829101562px, 116.8087387084961px) scale(1, 1) translate(-101.39199829101562px, -116.8087387084961px);}100%{-webkit-transform: translate(101.39199829101562px, 116.8087387084961px) scale(0.8, 0.8) translate(-101.39199829101562px, -116.8087387084961px);transform: translate(101.39199829101562px, 116.8087387084961px) scale(0.8, 0.8) translate(-101.39199829101562px, -116.8087387084961px);}}@-webkit-keyframes kf_el_9FYaoq5tPtY_an_huBPI8RjS{13.89%{-webkit-transform: translate(101.39199829101562px, 116.8087387084961px) translate(-101.39199829101562px, -116.8087387084961px) translate(0px, 0px);transform: translate(101.39199829101562px, 116.8087387084961px) translate(-101.39199829101562px, -116.8087387084961px) translate(0px, 0px);}55.56%{-webkit-transform: translate(101.39199829101562px, 116.8087387084961px) translate(-101.39199829101562px, -116.8087387084961px) translate(0px, 0px);transform: translate(101.39199829101562px, 116.8087387084961px) translate(-101.39199829101562px, -116.8087387084961px) translate(0px, 0px);}0%{-webkit-transform: translate(101.39199829101562px, 116.8087387084961px) translate(-101.39199829101562px, -116.8087387084961px) translate(0px, 0px);transform: translate(101.39199829101562px, 116.8087387084961px) translate(-101.39199829101562px, -116.8087387084961px) translate(0px, 0px);}100%{-webkit-transform: translate(101.39199829101562px, 116.8087387084961px) translate(-101.39199829101562px, -116.8087387084961px) translate(0px, 0px);transform: translate(101.39199829101562px, 116.8087387084961px) translate(-101.39199829101562px, -116.8087387084961px) translate(0px, 0px);}}@keyframes kf_el_9FYaoq5tPtY_an_huBPI8RjS{13.89%{-webkit-transform: translate(101.39199829101562px, 116.8087387084961px) translate(-101.39199829101562px, -116.8087387084961px) translate(0px, 0px);transform: translate(101.39199829101562px, 116.8087387084961px) translate(-101.39199829101562px, -116.8087387084961px) translate(0px, 0px);}55.56%{-webkit-transform: translate(101.39199829101562px, 116.8087387084961px) translate(-101.39199829101562px, -116.8087387084961px) translate(0px, 0px);transform: translate(101.39199829101562px, 116.8087387084961px) translate(-101.39199829101562px, -116.8087387084961px) translate(0px, 0px);}0%{-webkit-transform: translate(101.39199829101562px, 116.8087387084961px) translate(-101.39199829101562px, -116.8087387084961px) translate(0px, 0px);transform: translate(101.39199829101562px, 116.8087387084961px) translate(-101.39199829101562px, -116.8087387084961px) translate(0px, 0px);}100%{-webkit-transform: translate(101.39199829101562px, 116.8087387084961px) translate(-101.39199829101562px, -116.8087387084961px) translate(0px, 0px);transform: translate(101.39199829101562px, 116.8087387084961px) translate(-101.39199829101562px, -116.8087387084961px) translate(0px, 0px);}}@-webkit-keyframes kf_el_mhnd394XZ9_an_szevHqMrD{13.89%{-webkit-transform: translate(77.5999984741211px, 71.5px) scale(1, 1) translate(-77.5999984741211px, -71.5px);transform: translate(77.5999984741211px, 71.5px) scale(1, 1) translate(-77.5999984741211px, -71.5px);}55.56%{-webkit-transform: translate(77.5999984741211px, 71.5px) scale(1.2, 1.2) translate(-77.5999984741211px, -71.5px);transform: translate(77.5999984741211px, 71.5px) scale(1.2, 1.2) translate(-77.5999984741211px, -71.5px);}69.44%{-webkit-transform: translate(77.5999984741211px, 71.5px) scale(1.2, 1.2) translate(-77.5999984741211px, -71.5px);transform: translate(77.5999984741211px, 71.5px) scale(1.2, 1.2) translate(-77.5999984741211px, -71.5px);}97.22%{-webkit-transform: translate(77.5999984741211px, 71.5px) scale(1.5, 1.5) translate(-77.5999984741211px, -71.5px);transform: translate(77.5999984741211px, 71.5px) scale(1.5, 1.5) translate(-77.5999984741211px, -71.5px);}0%{-webkit-transform: translate(77.5999984741211px, 71.5px) scale(1, 1) translate(-77.5999984741211px, -71.5px);transform: translate(77.5999984741211px, 71.5px) scale(1, 1) translate(-77.5999984741211px, -71.5px);}100%{-webkit-transform: translate(77.5999984741211px, 71.5px) scale(1.5, 1.5) translate(-77.5999984741211px, -71.5px);transform: translate(77.5999984741211px, 71.5px) scale(1.5, 1.5) translate(-77.5999984741211px, -71.5px);}}@keyframes kf_el_mhnd394XZ9_an_szevHqMrD{13.89%{-webkit-transform: translate(77.5999984741211px, 71.5px) scale(1, 1) translate(-77.5999984741211px, -71.5px);transform: translate(77.5999984741211px, 71.5px) scale(1, 1) translate(-77.5999984741211px, -71.5px);}55.56%{-webkit-transform: translate(77.5999984741211px, 71.5px) scale(1.2, 1.2) translate(-77.5999984741211px, -71.5px);transform: translate(77.5999984741211px, 71.5px) scale(1.2, 1.2) translate(-77.5999984741211px, -71.5px);}69.44%{-webkit-transform: translate(77.5999984741211px, 71.5px) scale(1.2, 1.2) translate(-77.5999984741211px, -71.5px);transform: translate(77.5999984741211px, 71.5px) scale(1.2, 1.2) translate(-77.5999984741211px, -71.5px);}97.22%{-webkit-transform: translate(77.5999984741211px, 71.5px) scale(1.5, 1.5) translate(-77.5999984741211px, -71.5px);transform: translate(77.5999984741211px, 71.5px) scale(1.5, 1.5) translate(-77.5999984741211px, -71.5px);}0%{-webkit-transform: translate(77.5999984741211px, 71.5px) scale(1, 1) translate(-77.5999984741211px, -71.5px);transform: translate(77.5999984741211px, 71.5px) scale(1, 1) translate(-77.5999984741211px, -71.5px);}100%{-webkit-transform: translate(77.5999984741211px, 71.5px) scale(1.5, 1.5) translate(-77.5999984741211px, -71.5px);transform: translate(77.5999984741211px, 71.5px) scale(1.5, 1.5) translate(-77.5999984741211px, -71.5px);}}@-webkit-keyframes kf_el_mhnd394XZ9_an_ZZqdOQami{13.89%{-webkit-transform: translate(77.5999984741211px, 71.5px) translate(-77.5999984741211px, -71.5px) translate(0px, 0px);transform: translate(77.5999984741211px, 71.5px) translate(-77.5999984741211px, -71.5px) translate(0px, 0px);}55.56%{-webkit-transform: translate(77.5999984741211px, 71.5px) translate(-77.5999984741211px, -71.5px) translate(35px, 30px);transform: translate(77.5999984741211px, 71.5px) translate(-77.5999984741211px, -71.5px) translate(35px, 30px);}0%{-webkit-transform: translate(77.5999984741211px, 71.5px) translate(-77.5999984741211px, -71.5px) translate(0px, 0px);transform: translate(77.5999984741211px, 71.5px) translate(-77.5999984741211px, -71.5px) translate(0px, 0px);}100%{-webkit-transform: translate(77.5999984741211px, 71.5px) translate(-77.5999984741211px, -71.5px) translate(35px, 30px);transform: translate(77.5999984741211px, 71.5px) translate(-77.5999984741211px, -71.5px) translate(35px, 30px);}}@keyframes kf_el_mhnd394XZ9_an_ZZqdOQami{13.89%{-webkit-transform: translate(77.5999984741211px, 71.5px) translate(-77.5999984741211px, -71.5px) translate(0px, 0px);transform: translate(77.5999984741211px, 71.5px) translate(-77.5999984741211px, -71.5px) translate(0px, 0px);}55.56%{-webkit-transform: translate(77.5999984741211px, 71.5px) translate(-77.5999984741211px, -71.5px) translate(35px, 30px);transform: translate(77.5999984741211px, 71.5px) translate(-77.5999984741211px, -71.5px) translate(35px, 30px);}0%{-webkit-transform: translate(77.5999984741211px, 71.5px) translate(-77.5999984741211px, -71.5px) translate(0px, 0px);transform: translate(77.5999984741211px, 71.5px) translate(-77.5999984741211px, -71.5px) translate(0px, 0px);}100%{-webkit-transform: translate(77.5999984741211px, 71.5px) translate(-77.5999984741211px, -71.5px) translate(35px, 30px);transform: translate(77.5999984741211px, 71.5px) translate(-77.5999984741211px, -71.5px) translate(35px, 30px);}}@-webkit-keyframes kf_el_rVOr_WrU8w_an_BydAudw4l{69.44%{-webkit-transform: translate(149.6500015258789px, 145.6500015258789px) scale(1, 1) translate(-149.6500015258789px, -145.6500015258789px);transform: translate(149.6500015258789px, 145.6500015258789px) scale(1, 1) translate(-149.6500015258789px, -145.6500015258789px);}97.22%{-webkit-transform: translate(149.6500015258789px, 145.6500015258789px) scale(1.3, 1.3) translate(-149.6500015258789px, -145.6500015258789px);transform: translate(149.6500015258789px, 145.6500015258789px) scale(1.3, 1.3) translate(-149.6500015258789px, -145.6500015258789px);}0%{-webkit-transform: translate(149.6500015258789px, 145.6500015258789px) scale(1, 1) translate(-149.6500015258789px, -145.6500015258789px);transform: translate(149.6500015258789px, 145.6500015258789px) scale(1, 1) translate(-149.6500015258789px, -145.6500015258789px);}100%{-webkit-transform: translate(149.6500015258789px, 145.6500015258789px) scale(1.3, 1.3) translate(-149.6500015258789px, -145.6500015258789px);transform: translate(149.6500015258789px, 145.6500015258789px) scale(1.3, 1.3) translate(-149.6500015258789px, -145.6500015258789px);}}@keyframes kf_el_rVOr_WrU8w_an_BydAudw4l{69.44%{-webkit-transform: translate(149.6500015258789px, 145.6500015258789px) scale(1, 1) translate(-149.6500015258789px, -145.6500015258789px);transform: translate(149.6500015258789px, 145.6500015258789px) scale(1, 1) translate(-149.6500015258789px, -145.6500015258789px);}97.22%{-webkit-transform: translate(149.6500015258789px, 145.6500015258789px) scale(1.3, 1.3) translate(-149.6500015258789px, -145.6500015258789px);transform: translate(149.6500015258789px, 145.6500015258789px) scale(1.3, 1.3) translate(-149.6500015258789px, -145.6500015258789px);}0%{-webkit-transform: translate(149.6500015258789px, 145.6500015258789px) scale(1, 1) translate(-149.6500015258789px, -145.6500015258789px);transform: translate(149.6500015258789px, 145.6500015258789px) scale(1, 1) translate(-149.6500015258789px, -145.6500015258789px);}100%{-webkit-transform: translate(149.6500015258789px, 145.6500015258789px) scale(1.3, 1.3) translate(-149.6500015258789px, -145.6500015258789px);transform: translate(149.6500015258789px, 145.6500015258789px) scale(1.3, 1.3) translate(-149.6500015258789px, -145.6500015258789px);}}@-webkit-keyframes kf_el_rVOr_WrU8w_an_FLgOsQWpZ{13.89%{-webkit-transform: translate(149.6500015258789px, 145.6500015258789px) translate(-149.6500015258789px, -145.6500015258789px) translate(0px, 0px);transform: translate(149.6500015258789px, 145.6500015258789px) translate(-149.6500015258789px, -145.6500015258789px) translate(0px, 0px);}55.56%{-webkit-transform: translate(149.6500015258789px, 145.6500015258789px) translate(-149.6500015258789px, -145.6500015258789px) translate(-30px, -30px);transform: translate(149.6500015258789px, 145.6500015258789px) translate(-149.6500015258789px, -145.6500015258789px) translate(-30px, -30px);}0%{-webkit-transform: translate(149.6500015258789px, 145.6500015258789px) translate(-149.6500015258789px, -145.6500015258789px) translate(0px, 0px);transform: translate(149.6500015258789px, 145.6500015258789px) translate(-149.6500015258789px, -145.6500015258789px) translate(0px, 0px);}100%{-webkit-transform: translate(149.6500015258789px, 145.6500015258789px) translate(-149.6500015258789px, -145.6500015258789px) translate(-30px, -30px);transform: translate(149.6500015258789px, 145.6500015258789px) translate(-149.6500015258789px, -145.6500015258789px) translate(-30px, -30px);}}@keyframes kf_el_rVOr_WrU8w_an_FLgOsQWpZ{13.89%{-webkit-transform: translate(149.6500015258789px, 145.6500015258789px) translate(-149.6500015258789px, -145.6500015258789px) translate(0px, 0px);transform: translate(149.6500015258789px, 145.6500015258789px) translate(-149.6500015258789px, -145.6500015258789px) translate(0px, 0px);}55.56%{-webkit-transform: translate(149.6500015258789px, 145.6500015258789px) translate(-149.6500015258789px, -145.6500015258789px) translate(-30px, -30px);transform: translate(149.6500015258789px, 145.6500015258789px) translate(-149.6500015258789px, -145.6500015258789px) translate(-30px, -30px);}0%{-webkit-transform: translate(149.6500015258789px, 145.6500015258789px) translate(-149.6500015258789px, -145.6500015258789px) translate(0px, 0px);transform: translate(149.6500015258789px, 145.6500015258789px) translate(-149.6500015258789px, -145.6500015258789px) translate(0px, 0px);}100%{-webkit-transform: translate(149.6500015258789px, 145.6500015258789px) translate(-149.6500015258789px, -145.6500015258789px) translate(-30px, -30px);transform: translate(149.6500015258789px, 145.6500015258789px) translate(-149.6500015258789px, -145.6500015258789px) translate(-30px, -30px);}}@-webkit-keyframes kf_el_XOvfTcpap5_an_CpNH749Sa{8.33%{opacity: 1;}13.89%{opacity: 0;}0%{opacity: 1;}100%{opacity: 0;}}@keyframes kf_el_XOvfTcpap5_an_CpNH749Sa{8.33%{opacity: 1;}13.89%{opacity: 0;}0%{opacity: 1;}100%{opacity: 0;}}@-webkit-keyframes kf_el_9L2Pd1Rk7Q_an_mgRDAXubi{69.44%{-webkit-transform: translate(83.3499984741211px, 79.3499984741211px) scale(1, 1) translate(-83.3499984741211px, -79.3499984741211px);transform: translate(83.3499984741211px, 79.3499984741211px) scale(1, 1) translate(-83.3499984741211px, -79.3499984741211px);}97.22%{-webkit-transform: translate(83.3499984741211px, 79.3499984741211px) scale(1.3, 1.3) translate(-83.3499984741211px, -79.3499984741211px);transform: translate(83.3499984741211px, 79.3499984741211px) scale(1.3, 1.3) translate(-83.3499984741211px, -79.3499984741211px);}0%{-webkit-transform: translate(83.3499984741211px, 79.3499984741211px) scale(1, 1) translate(-83.3499984741211px, -79.3499984741211px);transform: translate(83.3499984741211px, 79.3499984741211px) scale(1, 1) translate(-83.3499984741211px, -79.3499984741211px);}100%{-webkit-transform: translate(83.3499984741211px, 79.3499984741211px) scale(1.3, 1.3) translate(-83.3499984741211px, -79.3499984741211px);transform: translate(83.3499984741211px, 79.3499984741211px) scale(1.3, 1.3) translate(-83.3499984741211px, -79.3499984741211px);}}@keyframes kf_el_9L2Pd1Rk7Q_an_mgRDAXubi{69.44%{-webkit-transform: translate(83.3499984741211px, 79.3499984741211px) scale(1, 1) translate(-83.3499984741211px, -79.3499984741211px);transform: translate(83.3499984741211px, 79.3499984741211px) scale(1, 1) translate(-83.3499984741211px, -79.3499984741211px);}97.22%{-webkit-transform: translate(83.3499984741211px, 79.3499984741211px) scale(1.3, 1.3) translate(-83.3499984741211px, -79.3499984741211px);transform: translate(83.3499984741211px, 79.3499984741211px) scale(1.3, 1.3) translate(-83.3499984741211px, -79.3499984741211px);}0%{-webkit-transform: translate(83.3499984741211px, 79.3499984741211px) scale(1, 1) translate(-83.3499984741211px, -79.3499984741211px);transform: translate(83.3499984741211px, 79.3499984741211px) scale(1, 1) translate(-83.3499984741211px, -79.3499984741211px);}100%{-webkit-transform: translate(83.3499984741211px, 79.3499984741211px) scale(1.3, 1.3) translate(-83.3499984741211px, -79.3499984741211px);transform: translate(83.3499984741211px, 79.3499984741211px) scale(1.3, 1.3) translate(-83.3499984741211px, -79.3499984741211px);}}@-webkit-keyframes kf_el_9L2Pd1Rk7Q_an_w06kgb40X{13.89%{-webkit-transform: translate(83.3499984741211px, 79.3499984741211px) translate(-83.3499984741211px, -79.3499984741211px) translate(0px, 0px);transform: translate(83.3499984741211px, 79.3499984741211px) translate(-83.3499984741211px, -79.3499984741211px) translate(0px, 0px);}55.56%{-webkit-transform: translate(83.3499984741211px, 79.3499984741211px) translate(-83.3499984741211px, -79.3499984741211px) translate(36px, 36px);transform: translate(83.3499984741211px, 79.3499984741211px) translate(-83.3499984741211px, -79.3499984741211px) translate(36px, 36px);}0%{-webkit-transform: translate(83.3499984741211px, 79.3499984741211px) translate(-83.3499984741211px, -79.3499984741211px) translate(0px, 0px);transform: translate(83.3499984741211px, 79.3499984741211px) translate(-83.3499984741211px, -79.3499984741211px) translate(0px, 0px);}100%{-webkit-transform: translate(83.3499984741211px, 79.3499984741211px) translate(-83.3499984741211px, -79.3499984741211px) translate(36px, 36px);transform: translate(83.3499984741211px, 79.3499984741211px) translate(-83.3499984741211px, -79.3499984741211px) translate(36px, 36px);}}@keyframes kf_el_9L2Pd1Rk7Q_an_w06kgb40X{13.89%{-webkit-transform: translate(83.3499984741211px, 79.3499984741211px) translate(-83.3499984741211px, -79.3499984741211px) translate(0px, 0px);transform: translate(83.3499984741211px, 79.3499984741211px) translate(-83.3499984741211px, -79.3499984741211px) translate(0px, 0px);}55.56%{-webkit-transform: translate(83.3499984741211px, 79.3499984741211px) translate(-83.3499984741211px, -79.3499984741211px) translate(36px, 36px);transform: translate(83.3499984741211px, 79.3499984741211px) translate(-83.3499984741211px, -79.3499984741211px) translate(36px, 36px);}0%{-webkit-transform: translate(83.3499984741211px, 79.3499984741211px) translate(-83.3499984741211px, -79.3499984741211px) translate(0px, 0px);transform: translate(83.3499984741211px, 79.3499984741211px) translate(-83.3499984741211px, -79.3499984741211px) translate(0px, 0px);}100%{-webkit-transform: translate(83.3499984741211px, 79.3499984741211px) translate(-83.3499984741211px, -79.3499984741211px) translate(36px, 36px);transform: translate(83.3499984741211px, 79.3499984741211px) translate(-83.3499984741211px, -79.3499984741211px) translate(36px, 36px);}}#el_Z3-hJYEXU *{-webkit-animation-duration: 1.2s;animation-duration: 1.2s;-webkit-animation-iteration-count: 1;animation-iteration-count: 1;-webkit-animation-timing-function: cubic-bezier(0, 0, 1, 1);animation-timing-function: cubic-bezier(0, 0, 1, 1);}#el_zRoyXqZid1{display: none;fill: #86ED18;stroke: #000000;stroke-miterlimit: 10;}#el_9L2Pd1Rk7Q{fill: #FFFFFF;stroke: #000000;stroke-width: 3;stroke-miterlimit: 10;}#el_XOvfTcpap5{fill: #FFFFFF;stroke: #86ed18;stroke-width: 2;stroke-miterlimit: 10;stroke-dasharray: 10;-webkit-animation-fill-mode: forwards;animation-fill-mode: forwards;-webkit-animation-name: kf_el_XOvfTcpap5_an_CpNH749Sa;animation-name: kf_el_XOvfTcpap5_an_CpNH749Sa;-webkit-animation-timing-function: cubic-bezier(0, 0, 1, 1);animation-timing-function: cubic-bezier(0, 0, 1, 1);}#el_rVOr_WrU8w{fill: none;stroke: #000000;stroke-width: 3;stroke-miterlimit: 10;}#el_00NwEBXg6F{fill: none;stroke: #000000;stroke-width: 3;stroke-miterlimit: 10;}#el_RqczzWMQxZ{fill: #FFFFFF;stroke: #000000;stroke-width: 3;stroke-miterlimit: 10;}#el_eKjt9m2HNy{display: none;}#el_pdOIetfZvK{display: inline;fill: #FFFFFF;stroke: #000000;stroke-width: 2;stroke-miterlimit: 10;}#el_mS0d20yNtI{display: inline;fill: #FFFFFF;stroke: #000000;stroke-width: 2;stroke-miterlimit: 10;}#el_LFXckJqgbE{display: inline;fill: #FFFFFF;stroke: #000000;stroke-width: 2;stroke-miterlimit: 10;}#el_YpcKZkeC2-{display: inline;fill: none;stroke: #000000;stroke-miterlimit: 10;}#el_4wK8sm-wg7{display: inline;fill: none;stroke: #000000;stroke-miterlimit: 10;}#el_5JSNadFdqZ{display: inline;}#el_-njvaGDdR3i{display: inline;}#el__sGyJZbU00A{display: inline;}#el_2_frEZ2QUYK{display: inline;}#el_G01V8JC2iX5{display: inline;}#el_WzTMiXAZy0V{display: inline;}#el_aeSD5E-Pek1{display: inline;}#el_4fjv1cgrmy9{display: inline;}#el_0B9wCFattUP{display: inline;}#el_vAlfxvkbvxz{fill: #FFFFFF;stroke: #000000;stroke-width: 3;stroke-miterlimit: 10;}#el_ndHlBPDrl1z{fill: none;stroke: #FFFFFF;stroke-width: 3;stroke-miterlimit: 10;}#el_7TekrV6b1iE{fill: #86ed18;stroke: #000000;stroke-width: 3;stroke-miterlimit: 10;}#el_12hqa1ZydQ3{fill: none;stroke: #000000;stroke-width: 2;stroke-linecap: square;stroke-miterlimit: 10;stroke-dasharray: 6;}#el_Gq175D7OpjD{fill: rgb(0, 0, 0);}#el_B7-LR9yGtWM{fill: rgb(0, 0, 0);}#el_uG8k2-LMwBU{fill: rgb(0, 0, 0);}#el_ia0wKkUH-5d{fill: rgb(0, 0, 0);}#el_lc7aM4G0jh0{fill: rgb(0, 0, 0);}#el_ZMfWeP4gvvc{fill: rgb(0, 0, 0);}#el_9L2Pd1Rk7Q_an_w06kgb40X{-webkit-animation-fill-mode: forwards;animation-fill-mode: forwards;-webkit-animation-name: kf_el_9L2Pd1Rk7Q_an_w06kgb40X;animation-name: kf_el_9L2Pd1Rk7Q_an_w06kgb40X;-webkit-animation-timing-function: cubic-bezier(0, 0, 1, 1);animation-timing-function: cubic-bezier(0, 0, 1, 1);}#el_9L2Pd1Rk7Q_an_mgRDAXubi{-webkit-animation-fill-mode: forwards;animation-fill-mode: forwards;-webkit-animation-name: kf_el_9L2Pd1Rk7Q_an_mgRDAXubi;animation-name: kf_el_9L2Pd1Rk7Q_an_mgRDAXubi;-webkit-animation-timing-function: cubic-bezier(0, 0, 1, 1);animation-timing-function: cubic-bezier(0, 0, 1, 1);}#el_rVOr_WrU8w_an_FLgOsQWpZ{-webkit-animation-fill-mode: forwards;animation-fill-mode: forwards;-webkit-animation-name: kf_el_rVOr_WrU8w_an_FLgOsQWpZ;animation-name: kf_el_rVOr_WrU8w_an_FLgOsQWpZ;-webkit-animation-timing-function: cubic-bezier(0, 0, 1, 1);animation-timing-function: cubic-bezier(0, 0, 1, 1);}#el_rVOr_WrU8w_an_BydAudw4l{-webkit-animation-fill-mode: forwards;animation-fill-mode: forwards;-webkit-animation-name: kf_el_rVOr_WrU8w_an_BydAudw4l;animation-name: kf_el_rVOr_WrU8w_an_BydAudw4l;-webkit-animation-timing-function: cubic-bezier(0, 0, 1, 1);animation-timing-function: cubic-bezier(0, 0, 1, 1);}#el_mhnd394XZ9_an_ZZqdOQami{-webkit-animation-fill-mode: forwards;animation-fill-mode: forwards;-webkit-animation-name: kf_el_mhnd394XZ9_an_ZZqdOQami;animation-name: kf_el_mhnd394XZ9_an_ZZqdOQami;-webkit-animation-timing-function: cubic-bezier(0, 0, 1, 1);animation-timing-function: cubic-bezier(0, 0, 1, 1);}#el_mhnd394XZ9_an_szevHqMrD{-webkit-animation-fill-mode: forwards;animation-fill-mode: forwards;-webkit-animation-name: kf_el_mhnd394XZ9_an_szevHqMrD;animation-name: kf_el_mhnd394XZ9_an_szevHqMrD;-webkit-animation-timing-function: cubic-bezier(0, 0, 1, 1);animation-timing-function: cubic-bezier(0, 0, 1, 1);}#el_9FYaoq5tPtY_an_huBPI8RjS{-webkit-animation-fill-mode: forwards;animation-fill-mode: forwards;-webkit-animation-name: kf_el_9FYaoq5tPtY_an_huBPI8RjS;animation-name: kf_el_9FYaoq5tPtY_an_huBPI8RjS;-webkit-animation-timing-function: cubic-bezier(0, 0, 1, 1);animation-timing-function: cubic-bezier(0, 0, 1, 1);}#el_9FYaoq5tPtY_an_KUVK5inkG{-webkit-animation-fill-mode: forwards;animation-fill-mode: forwards;-webkit-animation-name: kf_el_9FYaoq5tPtY_an_KUVK5inkG;animation-name: kf_el_9FYaoq5tPtY_an_KUVK5inkG;-webkit-animation-timing-function: cubic-bezier(0, 0, 1, 1);animation-timing-function: cubic-bezier(0, 0, 1, 1);}</style>

<g id="el_jUXATTF5dB">
	<circle cx="117" cy="113" r="177.5" id="el_zRoyXqZid1"/>
	<g id="el_9L2Pd1Rk7Q_an_w06kgb40X" data-animator-group="true" data-animator-type="0"><g id="el_9L2Pd1Rk7Q_an_mgRDAXubi" data-animator-group="true" data-animator-type="2"><rect x="17" y="13" width="132.7" height="132.7" id="el_9L2Pd1Rk7Q"/></g></g>
	<polygon points="216,212 83.3,212 83.3,145.3 149.3,79.3 216,79.3 &#9;" id="el_XOvfTcpap5"/>
	<g id="el_rVOr_WrU8w_an_FLgOsQWpZ" data-animator-group="true" data-animator-type="0"><g id="el_rVOr_WrU8w_an_BydAudw4l" data-animator-group="true" data-animator-type="2"><polyline points="149.7,79.3 216,79.3 216,212 83.3,212 83.3,145.7 &#9;" id="el_rVOr_WrU8w"/></g></g>
</g>
<g id="el_mhnd394XZ9_an_ZZqdOQami" data-animator-group="true" data-animator-type="0"><g id="el_mhnd394XZ9_an_szevHqMrD" data-animator-group="true" data-animator-type="2"><g id="el_mhnd394XZ9">
	<path d="M77.6,103.5c-17.7,0-32.1-14.3-32.1-32c0-17.7,14.4-32,32.1-32c17.7,0,32.1,14.3,32.1,32c0,3-0.4,5.8-1.2,8.5&#10;&#9;&#9; M77.6,103.5c16.6,0,24.4-9.9,17.9-16.4" id="el_00NwEBXg6F"/>
	<path d="M95.9,80.1c0.8,0.6,2.2,1.4,1.9,3.1c-0.2,1.3-2.9,6.4-8.7,6.4s-12.8-4.5-19-10.7c-6.2-6.2-10.8-13.2-10.8-19&#10;&#9;&#9;c0-5.8,5.1-8.5,6.4-8.6c1.8-0.3,2.6,1.1,3.2,1.9c0.6,0.8,3.9,5.9,4.4,6.7c0.5,0.8,1,2.7-0.8,4.2c-1.9,1.5-3.9,2.3,3.2,9.3&#10;&#9;&#9;c7,7,7.8,5,9.3,3.1c1.5-1.9,3.4-1.3,4.2-0.8C90,76.2,95.1,79.5,95.9,80.1L95.9,80.1z" id="el_RqczzWMQxZ"/>
</g></g></g>
<g id="el_eKjt9m2HNy">
	<path d="M189.3,142.7h-60.7c-1.7,0-3-1.4-3-3V127c0-1.7,1.4-3,3-3h60.7c1.7,0,3,1.4,3,3v12.7&#10;&#9;&#9;C192.3,141.4,190.9,142.7,189.3,142.7z" id="el_pdOIetfZvK"/>
	<path d="M189.7,167.6h-60.7c-1.7,0-3-1.4-3-3v-12.7c0-1.7,1.4-3,3-3h60.7c1.7,0,3,1.4,3,3v12.7&#10;&#9;&#9;C192.7,166.2,191.3,167.6,189.7,167.6z" id="el_mS0d20yNtI"/>
	<path d="M189.7,192h-60.7c-1.7,0-3-1.4-3-3v-12.7c0-1.7,1.4-3,3-3h60.7c1.7,0,3,1.4,3,3V189&#10;&#9;&#9;C192.7,190.6,191.3,192,189.7,192z" id="el_LFXckJqgbE"/>
	<line x1="159.5" y1="142.7" x2="159.5" y2="148.6" id="el_YpcKZkeC2-"/>
	<line x1="159.5" y1="167.4" x2="159.5" y2="173.3" id="el_4wK8sm-wg7"/>
	<circle cx="135.8" cy="133.9" r="5.9" id="el_5JSNadFdqZ"/>
	<circle cx="135.8" cy="158.5" r="5.9" id="el_-njvaGDdR3i"/>
	<circle cx="135.8" cy="183.1" r="5.9" id="el__sGyJZbU00A"/>
	<rect x="149.6" y="128.9" width="35.5" height="3.9" id="el_2_frEZ2QUYK"/>
	<rect x="149.6" y="134.8" width="17.7" height="3.9" id="el_G01V8JC2iX5"/>
	<rect x="149.6" y="153.6" width="35.5" height="3.9" id="el_WzTMiXAZy0V"/>
	<rect x="149.6" y="159.5" width="28.6" height="3.9" id="el_aeSD5E-Pek1"/>
	<rect x="149.6" y="178.2" width="35.5" height="3.9" id="el_4fjv1cgrmy9"/>
	<rect x="149.6" y="184.1" width="22.7" height="3.9" id="el_0B9wCFattUP"/>
</g>
<g id="el_9FYaoq5tPtY_an_huBPI8RjS" data-animator-group="true" data-animator-type="0"><g id="el_9FYaoq5tPtY_an_KUVK5inkG" data-animator-group="true" data-animator-type="2"><g id="el_9FYaoq5tPtY">
	<path d="M117,153.1l74-19.1c0,0,2.2-1.1,3,1.6c0.8,2.8,8.9,33.3,8.9,33.3s0.8,2.8-1.9,3.6&#10;&#9;&#9;c-2.8,0.8-71.2,19.2-71.2,19.2s-1.2,0.9-1.8-1c-0.5-1.8-0.8-2.8-0.8-2.8l-0.3-0.9c0,0,4.9-0.4,3.8-4.1c-1.1-3.7-5.4-1.4-5.4-1.4&#10;&#9;&#9;l-1.6-5.5c0,0,4.1-1.2,3.2-4.4c-1-3.2-5.1-2-5.1-2l-1.4-4.6c0,0,4-1.7,3.2-4.4c-0.8-2.8-5.1-2-5.1-2s-1.5-5-1.6-5.3&#10;&#9;&#9;C116.7,153.2,117,153.1,117,153.1z" id="el_vAlfxvkbvxz"/>
	<path d="M101.5,161l67.3-43.5c0,0,1.8-1.9,3.5,0.6c1.7,2.5,20,30.2,20,30.2s1.7,2.5-0.7,4.2&#10;&#9;&#9;c-2.5,1.7-64.5,42.8-64.5,42.8s-0.9,1.3-2.1-0.4c-1.2-1.6-1.7-2.5-1.7-2.5l-0.6-0.8c0,0,4.7-2.1,2.4-5.4c-2.3-3.3-5.8,0.4-5.8,0.4&#10;&#9;&#9;l-3.5-4.9c0,0,3.7-2.6,1.7-5.5c-2-2.9-5.7-0.3-5.7-0.3l-2.9-4.1c0,0,3.4-3,1.7-5.5c-1.7-2.5-5.7-0.3-5.7-0.3s-3.2-4.5-3.3-4.7&#10;&#9;&#9;C101.2,161.1,101.5,161,101.5,161z" id="el_ndHlBPDrl1z"/>
	<path d="M103.6,160.8l64.2-41.5c0,0,1.7-1.8,3.3,0.6s19,28.8,19,28.8s1.6,2.4-0.7,4c-2.4,1.6-61.5,40.8-61.5,40.8&#10;&#9;&#9;s-0.9,1.2-2-0.4c-1.1-1.6-1.6-2.4-1.6-2.4s3.2-2.7,1.3-5.5c-1.9-2.8-5.2,0-5.2,0l-3.3-4.7c0,0,3.5-2.5,1.6-5.2&#10;&#9;&#9;c-1.9-2.7-5.5-0.3-5.5-0.3l-2.7-3.9c0,0,3-2.6,1.2-5.3c-1.6-2.4-5-0.1-5-0.1s-3-4.3-3.2-4.5C103.4,160.9,103.6,160.8,103.6,160.8z" id="el_7TekrV6b1iE"/>
	<line x1="115.9" y1="152.3" x2="139" y2="185.7" id="el_12hqa1ZydQ3"/>
	<g id="el_nCWb7VqJUcF">
		<path d="M133.6,162.1l-0.8-1.2l5.7-3.8l0.8,1.2l-2.1,1.4l4.1,6.2l-1.4,0.9l-4.1-6.2L133.6,162.1z" id="el_ZMfWeP4gvvc"/>
		<path d="M145,163.4l-4.9-7.4l1.4-0.9l4.9,7.4L145,163.4z" id="el_lc7aM4G0jh0"/>
		<path d="M146,157.5c-0.4-0.6-0.7-1.2-0.9-1.7c-0.2-0.6-0.3-1.1-0.2-1.6c0-0.5,0.2-1,0.5-1.4c0.3-0.4,0.7-0.8,1.2-1.2&#10;&#9;&#9;&#9;c0.4-0.2,0.8-0.4,1.2-0.5c0.4-0.1,0.8-0.1,1.2-0.1c0.4,0,0.7,0.2,1.1,0.4c0.3,0.2,0.6,0.5,0.9,0.8l-1.4,0.9&#10;&#9;&#9;&#9;c-0.3-0.4-0.6-0.6-1-0.6c-0.4,0-0.8,0.1-1.2,0.4c-0.2,0.1-0.4,0.3-0.5,0.5c-0.1,0.2-0.2,0.4-0.3,0.6c-0.1,0.2-0.1,0.5,0,0.7&#10;&#9;&#9;&#9;c0,0.2,0.1,0.5,0.3,0.7l1.5,2.3c0.1,0.2,0.3,0.4,0.5,0.5c0.2,0.1,0.4,0.2,0.7,0.3c0.2,0,0.5,0,0.7,0c0.2-0.1,0.5-0.2,0.7-0.3&#10;&#9;&#9;&#9;c0.4-0.3,0.7-0.6,0.8-1c0.1-0.3,0.1-0.8-0.2-1.2l1.4-0.9c0.2,0.5,0.4,0.9,0.4,1.3c0,0.4,0,0.8-0.1,1.2c-0.1,0.4-0.3,0.7-0.6,1&#10;&#9;&#9;&#9;c-0.3,0.3-0.6,0.6-1,0.9c-0.5,0.4-1.1,0.6-1.6,0.6c-0.5,0.1-1,0-1.5-0.2c-0.5-0.2-0.9-0.4-1.4-0.8&#10;&#9;&#9;&#9;C146.8,158.5,146.4,158.1,146,157.5z" id="el_ia0wKkUH-5d"/>
		<path d="M156.4,155.9l-4.9-7.4l1.4-0.9l4.9,7.4L156.4,155.9z M155.2,151.1l0.4-5.2l1.7-1.1l-0.5,5.3l5.5,2l-1.6,1.1L155.2,151.1z" id="el_uG8k2-LMwBU"/>
		<path d="M163.9,151l-4.9-7.4l5.1-3.4l0.8,1.2l-3.7,2.4l1.2,1.8l3.2-2.1l0.8,1.2l-3.2,2.1l1.3,2l3.7-2.4l0.8,1.2L163.9,151z" id="el_B7-LR9yGtWM"/>
		<path d="M166.2,140.5l-0.8-1.2l5.7-3.8l0.8,1.2l-2.1,1.4l4.1,6.2l-1.4,0.9l-4.1-6.2L166.2,140.5z" id="el_Gq175D7OpjD"/>
	</g>
</g></g></g>
</svg>