<svg xmlns="http://www.w3.org/2000/svg" fill="none" viewBox="0 0 75 74" width="75" height="74" id="el_OkGEZp7oa"><style>@-webkit-keyframes kf_el_enqBtc9I_m_an_WcsJVZjNh{37.88%{-webkit-transform: translate(14.57800006866455px, 59.803001403808594px) scale(0, 0) translate(-14.57800006866455px, -59.803001403808594px);transform: translate(14.57800006866455px, 59.803001403808594px) scale(0, 0) translate(-14.57800006866455px, -59.803001403808594px);}63.64%{-webkit-transform: translate(14.57800006866455px, 59.803001403808594px) scale(1, 1) translate(-14.57800006866455px, -59.803001403808594px);transform: translate(14.57800006866455px, 59.803001403808594px) scale(1, 1) translate(-14.57800006866455px, -59.803001403808594px);}0%{-webkit-transform: translate(14.57800006866455px, 59.803001403808594px) scale(0, 0) translate(-14.57800006866455px, -59.803001403808594px);transform: translate(14.57800006866455px, 59.803001403808594px) scale(0, 0) translate(-14.57800006866455px, -59.803001403808594px);}100%{-webkit-transform: translate(14.57800006866455px, 59.803001403808594px) scale(1, 1) translate(-14.57800006866455px, -59.803001403808594px);transform: translate(14.57800006866455px, 59.803001403808594px) scale(1, 1) translate(-14.57800006866455px, -59.803001403808594px);}}@keyframes kf_el_enqBtc9I_m_an_WcsJVZjNh{37.88%{-webkit-transform: translate(14.57800006866455px, 59.803001403808594px) scale(0, 0) translate(-14.57800006866455px, -59.803001403808594px);transform: translate(14.57800006866455px, 59.803001403808594px) scale(0, 0) translate(-14.57800006866455px, -59.803001403808594px);}63.64%{-webkit-transform: translate(14.57800006866455px, 59.803001403808594px) scale(1, 1) translate(-14.57800006866455px, -59.803001403808594px);transform: translate(14.57800006866455px, 59.803001403808594px) scale(1, 1) translate(-14.57800006866455px, -59.803001403808594px);}0%{-webkit-transform: translate(14.57800006866455px, 59.803001403808594px) scale(0, 0) translate(-14.57800006866455px, -59.803001403808594px);transform: translate(14.57800006866455px, 59.803001403808594px) scale(0, 0) translate(-14.57800006866455px, -59.803001403808594px);}100%{-webkit-transform: translate(14.57800006866455px, 59.803001403808594px) scale(1, 1) translate(-14.57800006866455px, -59.803001403808594px);transform: translate(14.57800006866455px, 59.803001403808594px) scale(1, 1) translate(-14.57800006866455px, -59.803001403808594px);}}@-webkit-keyframes kf_el_enqBtc9I_m_an_q0SvyHPnL{37.88%{opacity: 0;}60.61%{opacity: 1;}0%{opacity: 0;}100%{opacity: 1;}}@keyframes kf_el_enqBtc9I_m_an_q0SvyHPnL{37.88%{opacity: 0;}60.61%{opacity: 1;}0%{opacity: 0;}100%{opacity: 1;}}@-webkit-keyframes kf_el_75T4Je0EhH_an_fStG8oKud{68.18%{opacity: 0;}95.45%{opacity: 1;}0%{opacity: 0;}100%{opacity: 1;}}@keyframes kf_el_75T4Je0EhH_an_fStG8oKud{68.18%{opacity: 0;}95.45%{opacity: 1;}0%{opacity: 0;}100%{opacity: 1;}}@-webkit-keyframes kf_el_75T4Je0EhH_an_l5F7gCvSW{68.18%{-webkit-transform: translate(35.47700119018555px, 39.51200199127197px) scale(0, 0) translate(-35.47700119018555px, -39.51200199127197px);transform: translate(35.47700119018555px, 39.51200199127197px) scale(0, 0) translate(-35.47700119018555px, -39.51200199127197px);}98.48%{-webkit-transform: translate(35.47700119018555px, 39.51200199127197px) scale(1, 1) translate(-35.47700119018555px, -39.51200199127197px);transform: translate(35.47700119018555px, 39.51200199127197px) scale(1, 1) translate(-35.47700119018555px, -39.51200199127197px);}0%{-webkit-transform: translate(35.47700119018555px, 39.51200199127197px) scale(0, 0) translate(-35.47700119018555px, -39.51200199127197px);transform: translate(35.47700119018555px, 39.51200199127197px) scale(0, 0) translate(-35.47700119018555px, -39.51200199127197px);}100%{-webkit-transform: translate(35.47700119018555px, 39.51200199127197px) scale(1, 1) translate(-35.47700119018555px, -39.51200199127197px);transform: translate(35.47700119018555px, 39.51200199127197px) scale(1, 1) translate(-35.47700119018555px, -39.51200199127197px);}}@keyframes kf_el_75T4Je0EhH_an_l5F7gCvSW{68.18%{-webkit-transform: translate(35.47700119018555px, 39.51200199127197px) scale(0, 0) translate(-35.47700119018555px, -39.51200199127197px);transform: translate(35.47700119018555px, 39.51200199127197px) scale(0, 0) translate(-35.47700119018555px, -39.51200199127197px);}98.48%{-webkit-transform: translate(35.47700119018555px, 39.51200199127197px) scale(1, 1) translate(-35.47700119018555px, -39.51200199127197px);transform: translate(35.47700119018555px, 39.51200199127197px) scale(1, 1) translate(-35.47700119018555px, -39.51200199127197px);}0%{-webkit-transform: translate(35.47700119018555px, 39.51200199127197px) scale(0, 0) translate(-35.47700119018555px, -39.51200199127197px);transform: translate(35.47700119018555px, 39.51200199127197px) scale(0, 0) translate(-35.47700119018555px, -39.51200199127197px);}100%{-webkit-transform: translate(35.47700119018555px, 39.51200199127197px) scale(1, 1) translate(-35.47700119018555px, -39.51200199127197px);transform: translate(35.47700119018555px, 39.51200199127197px) scale(1, 1) translate(-35.47700119018555px, -39.51200199127197px);}}@-webkit-keyframes kf_el_dSpQMxWwNf_an_E4FubRPwh{9.09%{opacity: 0;}74.24%{opacity: 0;}95.45%{opacity: 1;}0%{opacity: 0;}100%{opacity: 1;}}@keyframes kf_el_dSpQMxWwNf_an_E4FubRPwh{9.09%{opacity: 0;}74.24%{opacity: 0;}95.45%{opacity: 1;}0%{opacity: 0;}100%{opacity: 1;}}@-webkit-keyframes kf_el_dSpQMxWwNf_an_ODqJDioyt{9.09%{-webkit-transform: translate(1.5069998502731323px, 72.49301481246948px) scale(0.65, 0.65) translate(-1.5069998502731323px, -72.49301481246948px);transform: translate(1.5069998502731323px, 72.49301481246948px) scale(0.65, 0.65) translate(-1.5069998502731323px, -72.49301481246948px);}74.24%{-webkit-transform: translate(1.5069998502731323px, 72.49301481246948px) scale(0.65, 0.65) translate(-1.5069998502731323px, -72.49301481246948px);transform: translate(1.5069998502731323px, 72.49301481246948px) scale(0.65, 0.65) translate(-1.5069998502731323px, -72.49301481246948px);}98.48%{-webkit-transform: translate(1.5069998502731323px, 72.49301481246948px) scale(1, 1) translate(-1.5069998502731323px, -72.49301481246948px);transform: translate(1.5069998502731323px, 72.49301481246948px) scale(1, 1) translate(-1.5069998502731323px, -72.49301481246948px);}0%{-webkit-transform: translate(1.5069998502731323px, 72.49301481246948px) scale(0.65, 0.65) translate(-1.5069998502731323px, -72.49301481246948px);transform: translate(1.5069998502731323px, 72.49301481246948px) scale(0.65, 0.65) translate(-1.5069998502731323px, -72.49301481246948px);}100%{-webkit-transform: translate(1.5069998502731323px, 72.49301481246948px) scale(1, 1) translate(-1.5069998502731323px, -72.49301481246948px);transform: translate(1.5069998502731323px, 72.49301481246948px) scale(1, 1) translate(-1.5069998502731323px, -72.49301481246948px);}}@keyframes kf_el_dSpQMxWwNf_an_ODqJDioyt{9.09%{-webkit-transform: translate(1.5069998502731323px, 72.49301481246948px) scale(0.65, 0.65) translate(-1.5069998502731323px, -72.49301481246948px);transform: translate(1.5069998502731323px, 72.49301481246948px) scale(0.65, 0.65) translate(-1.5069998502731323px, -72.49301481246948px);}74.24%{-webkit-transform: translate(1.5069998502731323px, 72.49301481246948px) scale(0.65, 0.65) translate(-1.5069998502731323px, -72.49301481246948px);transform: translate(1.5069998502731323px, 72.49301481246948px) scale(0.65, 0.65) translate(-1.5069998502731323px, -72.49301481246948px);}98.48%{-webkit-transform: translate(1.5069998502731323px, 72.49301481246948px) scale(1, 1) translate(-1.5069998502731323px, -72.49301481246948px);transform: translate(1.5069998502731323px, 72.49301481246948px) scale(1, 1) translate(-1.5069998502731323px, -72.49301481246948px);}0%{-webkit-transform: translate(1.5069998502731323px, 72.49301481246948px) scale(0.65, 0.65) translate(-1.5069998502731323px, -72.49301481246948px);transform: translate(1.5069998502731323px, 72.49301481246948px) scale(0.65, 0.65) translate(-1.5069998502731323px, -72.49301481246948px);}100%{-webkit-transform: translate(1.5069998502731323px, 72.49301481246948px) scale(1, 1) translate(-1.5069998502731323px, -72.49301481246948px);transform: translate(1.5069998502731323px, 72.49301481246948px) scale(1, 1) translate(-1.5069998502731323px, -72.49301481246948px);}}@-webkit-keyframes kf_el_BcO14-rUfx_an_P0zVybOUH{13.64%{opacity: 0;}34.85%{opacity: 1;}0%{opacity: 0;}100%{opacity: 1;}}@keyframes kf_el_BcO14-rUfx_an_P0zVybOUH{13.64%{opacity: 0;}34.85%{opacity: 1;}0%{opacity: 0;}100%{opacity: 1;}}@-webkit-keyframes kf_el_BcO14-rUfx_an_THvYkctrf{12.12%{-webkit-transform: translate(14.69950008392334px, 59.47800254821777px) rotate(0deg) translate(-14.69950008392334px, -59.47800254821777px);transform: translate(14.69950008392334px, 59.47800254821777px) rotate(0deg) translate(-14.69950008392334px, -59.47800254821777px);}37.88%{-webkit-transform: translate(14.69950008392334px, 59.47800254821777px) rotate(180deg) translate(-14.69950008392334px, -59.47800254821777px);transform: translate(14.69950008392334px, 59.47800254821777px) rotate(180deg) translate(-14.69950008392334px, -59.47800254821777px);}0%{-webkit-transform: translate(14.69950008392334px, 59.47800254821777px) rotate(0deg) translate(-14.69950008392334px, -59.47800254821777px);transform: translate(14.69950008392334px, 59.47800254821777px) rotate(0deg) translate(-14.69950008392334px, -59.47800254821777px);}100%{-webkit-transform: translate(14.69950008392334px, 59.47800254821777px) rotate(180deg) translate(-14.69950008392334px, -59.47800254821777px);transform: translate(14.69950008392334px, 59.47800254821777px) rotate(180deg) translate(-14.69950008392334px, -59.47800254821777px);}}@keyframes kf_el_BcO14-rUfx_an_THvYkctrf{12.12%{-webkit-transform: translate(14.69950008392334px, 59.47800254821777px) rotate(0deg) translate(-14.69950008392334px, -59.47800254821777px);transform: translate(14.69950008392334px, 59.47800254821777px) rotate(0deg) translate(-14.69950008392334px, -59.47800254821777px);}37.88%{-webkit-transform: translate(14.69950008392334px, 59.47800254821777px) rotate(180deg) translate(-14.69950008392334px, -59.47800254821777px);transform: translate(14.69950008392334px, 59.47800254821777px) rotate(180deg) translate(-14.69950008392334px, -59.47800254821777px);}0%{-webkit-transform: translate(14.69950008392334px, 59.47800254821777px) rotate(0deg) translate(-14.69950008392334px, -59.47800254821777px);transform: translate(14.69950008392334px, 59.47800254821777px) rotate(0deg) translate(-14.69950008392334px, -59.47800254821777px);}100%{-webkit-transform: translate(14.69950008392334px, 59.47800254821777px) rotate(180deg) translate(-14.69950008392334px, -59.47800254821777px);transform: translate(14.69950008392334px, 59.47800254821777px) rotate(180deg) translate(-14.69950008392334px, -59.47800254821777px);}}@-webkit-keyframes kf_el_BcO14-rUfx_an_omNgFk-5j{12.12%{-webkit-transform: translate(14.69950008392334px, 59.47800254821777px) translate(-14.69950008392334px, -59.47800254821777px) translate(40px, -74px);transform: translate(14.69950008392334px, 59.47800254821777px) translate(-14.69950008392334px, -59.47800254821777px) translate(40px, -74px);}37.88%{-webkit-transform: translate(14.69950008392334px, 59.47800254821777px) translate(-14.69950008392334px, -59.47800254821777px) translate(0px, 0px);transform: translate(14.69950008392334px, 59.47800254821777px) translate(-14.69950008392334px, -59.47800254821777px) translate(0px, 0px);}0%{-webkit-transform: translate(14.69950008392334px, 59.47800254821777px) translate(-14.69950008392334px, -59.47800254821777px) translate(40px, -74px);transform: translate(14.69950008392334px, 59.47800254821777px) translate(-14.69950008392334px, -59.47800254821777px) translate(40px, -74px);}100%{-webkit-transform: translate(14.69950008392334px, 59.47800254821777px) translate(-14.69950008392334px, -59.47800254821777px) translate(0px, 0px);transform: translate(14.69950008392334px, 59.47800254821777px) translate(-14.69950008392334px, -59.47800254821777px) translate(0px, 0px);}}@keyframes kf_el_BcO14-rUfx_an_omNgFk-5j{12.12%{-webkit-transform: translate(14.69950008392334px, 59.47800254821777px) translate(-14.69950008392334px, -59.47800254821777px) translate(40px, -74px);transform: translate(14.69950008392334px, 59.47800254821777px) translate(-14.69950008392334px, -59.47800254821777px) translate(40px, -74px);}37.88%{-webkit-transform: translate(14.69950008392334px, 59.47800254821777px) translate(-14.69950008392334px, -59.47800254821777px) translate(0px, 0px);transform: translate(14.69950008392334px, 59.47800254821777px) translate(-14.69950008392334px, -59.47800254821777px) translate(0px, 0px);}0%{-webkit-transform: translate(14.69950008392334px, 59.47800254821777px) translate(-14.69950008392334px, -59.47800254821777px) translate(40px, -74px);transform: translate(14.69950008392334px, 59.47800254821777px) translate(-14.69950008392334px, -59.47800254821777px) translate(40px, -74px);}100%{-webkit-transform: translate(14.69950008392334px, 59.47800254821777px) translate(-14.69950008392334px, -59.47800254821777px) translate(0px, 0px);transform: translate(14.69950008392334px, 59.47800254821777px) translate(-14.69950008392334px, -59.47800254821777px) translate(0px, 0px);}}#el_OkGEZp7oa *{-webkit-animation-duration: 2.2s;animation-duration: 2.2s;-webkit-animation-iteration-count: 1;animation-iteration-count: 1;-webkit-animation-timing-function: cubic-bezier(0, 0, 1, 1);animation-timing-function: cubic-bezier(0, 0, 1, 1);}#el_BcO14-rUfx{stroke: #86ED18;stroke-width: 2;-webkit-animation-fill-mode: forwards;animation-fill-mode: forwards;-webkit-animation-name: kf_el_BcO14-rUfx_an_P0zVybOUH;animation-name: kf_el_BcO14-rUfx_an_P0zVybOUH;-webkit-animation-timing-function: cubic-bezier(0, 0, 1, 1);animation-timing-function: cubic-bezier(0, 0, 1, 1);}#el_dSpQMxWwNf{stroke: #000;stroke-width: 2;-webkit-animation-fill-mode: forwards;animation-fill-mode: forwards;-webkit-animation-name: kf_el_dSpQMxWwNf_an_E4FubRPwh;animation-name: kf_el_dSpQMxWwNf_an_E4FubRPwh;-webkit-animation-timing-function: cubic-bezier(0, 0, 1, 1);animation-timing-function: cubic-bezier(0, 0, 1, 1);}#el_75T4Je0EhH{stroke: #86ED18;stroke-width: 2;-webkit-animation-fill-mode: forwards;animation-fill-mode: forwards;-webkit-animation-name: kf_el_75T4Je0EhH_an_fStG8oKud;animation-name: kf_el_75T4Je0EhH_an_fStG8oKud;-webkit-animation-timing-function: cubic-bezier(0, 0, 1, 1);animation-timing-function: cubic-bezier(0, 0, 1, 1);}#el_enqBtc9I_m{fill: #000;stroke: #000;stroke-width: .75;-webkit-animation-fill-mode: forwards;animation-fill-mode: forwards;-webkit-animation-name: kf_el_enqBtc9I_m_an_q0SvyHPnL;animation-name: kf_el_enqBtc9I_m_an_q0SvyHPnL;-webkit-animation-timing-function: cubic-bezier(0, 0, 1, 1);animation-timing-function: cubic-bezier(0, 0, 1, 1);}#el_BcO14-rUfx_an_omNgFk-5j{-webkit-animation-fill-mode: forwards;animation-fill-mode: forwards;-webkit-animation-name: kf_el_BcO14-rUfx_an_omNgFk-5j;animation-name: kf_el_BcO14-rUfx_an_omNgFk-5j;-webkit-animation-timing-function: cubic-bezier(0, 0, 1, 1);animation-timing-function: cubic-bezier(0, 0, 1, 1);}#el_BcO14-rUfx_an_THvYkctrf{-webkit-animation-fill-mode: forwards;animation-fill-mode: forwards;-webkit-animation-name: kf_el_BcO14-rUfx_an_THvYkctrf;animation-name: kf_el_BcO14-rUfx_an_THvYkctrf;-webkit-animation-timing-function: cubic-bezier(0, 0, 0.58, 1);animation-timing-function: cubic-bezier(0, 0, 0.58, 1);}#el_dSpQMxWwNf_an_ODqJDioyt{-webkit-animation-fill-mode: forwards;animation-fill-mode: forwards;-webkit-animation-name: kf_el_dSpQMxWwNf_an_ODqJDioyt;animation-name: kf_el_dSpQMxWwNf_an_ODqJDioyt;-webkit-animation-timing-function: cubic-bezier(0.42, 0, 0.58, 1);animation-timing-function: cubic-bezier(0.42, 0, 0.58, 1);}#el_75T4Je0EhH_an_l5F7gCvSW{-webkit-animation-fill-mode: forwards;animation-fill-mode: forwards;-webkit-animation-name: kf_el_75T4Je0EhH_an_l5F7gCvSW;animation-name: kf_el_75T4Je0EhH_an_l5F7gCvSW;-webkit-animation-timing-function: cubic-bezier(0.42, 0, 0.58, 1);animation-timing-function: cubic-bezier(0.42, 0, 0.58, 1);}#el_enqBtc9I_m_an_WcsJVZjNh{-webkit-animation-fill-mode: forwards;animation-fill-mode: forwards;-webkit-animation-name: kf_el_enqBtc9I_m_an_WcsJVZjNh;animation-name: kf_el_enqBtc9I_m_an_WcsJVZjNh;-webkit-animation-timing-function: cubic-bezier(0.42, 0, 0.58, 1);animation-timing-function: cubic-bezier(0.42, 0, 0.58, 1);}</style>
    <g id="el_BcO14-rUfx_an_omNgFk-5j" data-animator-group="true" data-animator-type="0"><g id="el_BcO14-rUfx_an_THvYkctrf" data-animator-group="true" data-animator-type="1"><path stroke-linecap="round" stroke-miterlimit="10" d="M27.892 46.464H1.507v26.028h26.385V46.464z" id="el_BcO14-rUfx"/></g></g>
    <g id="el_dSpQMxWwNf_an_ODqJDioyt" data-animator-group="true" data-animator-type="2"><path stroke-linecap="round" stroke-miterlimit="10" d="M1.507 32.268V4.522a3.014 3.014 0 0 1 3.015-3.015H70.45a3.014 3.014 0 0 1 3.014 3.015v64.956a3.014 3.014 0 0 1-3.014 3.015H42.283" id="el_dSpQMxWwNf"/></g>
    <g id="el_75T4Je0EhH_an_l5F7gCvSW" data-animator-group="true" data-animator-type="2"><path stroke-linecap="round" stroke-miterlimit="10" d="M35.477 39.512l25.12-24.116M42.284 14.342h19.188v18.93" id="el_75T4Je0EhH"/></g>
    <g id="el_enqBtc9I_m_an_WcsJVZjNh" data-animator-group="true" data-animator-type="2"><path stroke-miterlimit="10" d="M7.042 52.963a.7.7 0 0 0 .705-.697.7.7 0 0 0-.705-.696.7.7 0 0 0-.705.696.7.7 0 0 0 .705.697zM12.066 52.963a.7.7 0 0 0 .705-.697.7.7 0 0 0-.705-.696.7.7 0 0 0-.705.696.7.7 0 0 0 .705.697zM17.09 52.963a.7.7 0 0 0 .705-.697.7.7 0 0 0-.705-.696.7.7 0 0 0-.705.696.7.7 0 0 0 .705.697zM22.114 52.963a.7.7 0 0 0 .705-.697.7.7 0 0 0-.705-.696.7.7 0 0 0-.705.696.7.7 0 0 0 .705.697zM7.042 57.987a.7.7 0 0 0 .705-.697.7.7 0 0 0-.705-.696.7.7 0 0 0-.705.697.7.7 0 0 0 .705.696zM12.066 57.987a.7.7 0 0 0 .705-.697.7.7 0 0 0-.705-.696.7.7 0 0 0-.705.697.7.7 0 0 0 .705.696zM17.09 57.987a.7.7 0 0 0 .705-.697.7.7 0 0 0-.705-.696.7.7 0 0 0-.705.697.7.7 0 0 0 .705.696zM22.114 57.987a.7.7 0 0 0 .705-.697.7.7 0 0 0-.705-.696.7.7 0 0 0-.705.697.7.7 0 0 0 .705.696zM7.042 63.011a.7.7 0 0 0 .705-.696.7.7 0 0 0-.705-.697.7.7 0 0 0-.705.697.7.7 0 0 0 .705.697zM12.066 63.011a.7.7 0 0 0 .705-.696.7.7 0 0 0-.705-.697.7.7 0 0 0-.705.697.7.7 0 0 0 .705.697zM17.09 63.011a.7.7 0 0 0 .705-.696.7.7 0 0 0-.705-.697.7.7 0 0 0-.705.697.7.7 0 0 0 .705.697zM22.114 63.011a.7.7 0 0 0 .705-.696.7.7 0 0 0-.705-.697.7.7 0 0 0-.705.697.7.7 0 0 0 .705.697zM7.042 68.036a.7.7 0 0 0 .705-.697.7.7 0 0 0-.705-.697.7.7 0 0 0-.705.697.7.7 0 0 0 .705.697zM12.066 68.036a.7.7 0 0 0 .705-.697.7.7 0 0 0-.705-.697.7.7 0 0 0-.705.697.7.7 0 0 0 .705.697zM17.09 68.036a.7.7 0 0 0 .705-.697.7.7 0 0 0-.705-.697.7.7 0 0 0-.705.697.7.7 0 0 0 .705.697zM22.114 68.036a.7.7 0 0 0 .705-.697.7.7 0 0 0-.705-.697.7.7 0 0 0-.705.697.7.7 0 0 0 .705.697z" id="el_enqBtc9I_m"/></g>
</svg>