<svg xmlns="http://www.w3.org/2000/svg" fill="none" viewBox="0 0 115 84" id="el_iQzUyNonr"><style>@-webkit-keyframes kf_el_1MAh_nvrct_an_1tX-IndLX{29.17%{-webkit-transform: translate(84.69246292114258px, 37.69500184059143px) translate(-84.69246292114258px, -37.69500184059143px) translate(0px, 12px);transform: translate(84.69246292114258px, 37.69500184059143px) translate(-84.69246292114258px, -37.69500184059143px) translate(0px, 12px);}75%{-webkit-transform: translate(84.69246292114258px, 37.69500184059143px) translate(-84.69246292114258px, -37.69500184059143px) translate(0px, 0px);transform: translate(84.69246292114258px, 37.69500184059143px) translate(-84.69246292114258px, -37.69500184059143px) translate(0px, 0px);}0%{-webkit-transform: translate(84.69246292114258px, 37.69500184059143px) translate(-84.69246292114258px, -37.69500184059143px) translate(0px, 12px);transform: translate(84.69246292114258px, 37.69500184059143px) translate(-84.69246292114258px, -37.69500184059143px) translate(0px, 12px);}100%{-webkit-transform: translate(84.69246292114258px, 37.69500184059143px) translate(-84.69246292114258px, -37.69500184059143px) translate(0px, 0px);transform: translate(84.69246292114258px, 37.69500184059143px) translate(-84.69246292114258px, -37.69500184059143px) translate(0px, 0px);}}@keyframes kf_el_1MAh_nvrct_an_1tX-IndLX{29.17%{-webkit-transform: translate(84.69246292114258px, 37.69500184059143px) translate(-84.69246292114258px, -37.69500184059143px) translate(0px, 12px);transform: translate(84.69246292114258px, 37.69500184059143px) translate(-84.69246292114258px, -37.69500184059143px) translate(0px, 12px);}75%{-webkit-transform: translate(84.69246292114258px, 37.69500184059143px) translate(-84.69246292114258px, -37.69500184059143px) translate(0px, 0px);transform: translate(84.69246292114258px, 37.69500184059143px) translate(-84.69246292114258px, -37.69500184059143px) translate(0px, 0px);}0%{-webkit-transform: translate(84.69246292114258px, 37.69500184059143px) translate(-84.69246292114258px, -37.69500184059143px) translate(0px, 12px);transform: translate(84.69246292114258px, 37.69500184059143px) translate(-84.69246292114258px, -37.69500184059143px) translate(0px, 12px);}100%{-webkit-transform: translate(84.69246292114258px, 37.69500184059143px) translate(-84.69246292114258px, -37.69500184059143px) translate(0px, 0px);transform: translate(84.69246292114258px, 37.69500184059143px) translate(-84.69246292114258px, -37.69500184059143px) translate(0px, 0px);}}@-webkit-keyframes kf_el_1MAh_nvrct_an_l0T5HFvkL{29.17%{opacity: 0;}83.33%{opacity: 1;}0%{opacity: 0;}100%{opacity: 1;}}@keyframes kf_el_1MAh_nvrct_an_l0T5HFvkL{29.17%{opacity: 0;}83.33%{opacity: 1;}0%{opacity: 0;}100%{opacity: 1;}}@-webkit-keyframes kf_el_9W3SwvWzC0_an_roPELHKSG{66.67%{opacity: 0;}91.67%{opacity: 1;}0%{opacity: 0;}100%{opacity: 1;}}@keyframes kf_el_9W3SwvWzC0_an_roPELHKSG{66.67%{opacity: 0;}91.67%{opacity: 1;}0%{opacity: 0;}100%{opacity: 1;}}@-webkit-keyframes kf_el_9W3SwvWzC0_an_i1UaP5mN4{66.67%{-webkit-transform: translate(84.72899627685547px, 31.47999858856201px) translate(-84.72899627685547px, -31.47999858856201px) translate(0px, 4px);transform: translate(84.72899627685547px, 31.47999858856201px) translate(-84.72899627685547px, -31.47999858856201px) translate(0px, 4px);}91.67%{-webkit-transform: translate(84.72899627685547px, 31.47999858856201px) translate(-84.72899627685547px, -31.47999858856201px) translate(0px, 0px);transform: translate(84.72899627685547px, 31.47999858856201px) translate(-84.72899627685547px, -31.47999858856201px) translate(0px, 0px);}0%{-webkit-transform: translate(84.72899627685547px, 31.47999858856201px) translate(-84.72899627685547px, -31.47999858856201px) translate(0px, 4px);transform: translate(84.72899627685547px, 31.47999858856201px) translate(-84.72899627685547px, -31.47999858856201px) translate(0px, 4px);}100%{-webkit-transform: translate(84.72899627685547px, 31.47999858856201px) translate(-84.72899627685547px, -31.47999858856201px) translate(0px, 0px);transform: translate(84.72899627685547px, 31.47999858856201px) translate(-84.72899627685547px, -31.47999858856201px) translate(0px, 0px);}}@keyframes kf_el_9W3SwvWzC0_an_i1UaP5mN4{66.67%{-webkit-transform: translate(84.72899627685547px, 31.47999858856201px) translate(-84.72899627685547px, -31.47999858856201px) translate(0px, 4px);transform: translate(84.72899627685547px, 31.47999858856201px) translate(-84.72899627685547px, -31.47999858856201px) translate(0px, 4px);}91.67%{-webkit-transform: translate(84.72899627685547px, 31.47999858856201px) translate(-84.72899627685547px, -31.47999858856201px) translate(0px, 0px);transform: translate(84.72899627685547px, 31.47999858856201px) translate(-84.72899627685547px, -31.47999858856201px) translate(0px, 0px);}0%{-webkit-transform: translate(84.72899627685547px, 31.47999858856201px) translate(-84.72899627685547px, -31.47999858856201px) translate(0px, 4px);transform: translate(84.72899627685547px, 31.47999858856201px) translate(-84.72899627685547px, -31.47999858856201px) translate(0px, 4px);}100%{-webkit-transform: translate(84.72899627685547px, 31.47999858856201px) translate(-84.72899627685547px, -31.47999858856201px) translate(0px, 0px);transform: translate(84.72899627685547px, 31.47999858856201px) translate(-84.72899627685547px, -31.47999858856201px) translate(0px, 0px);}}#el_iQzUyNonr *{-webkit-animation-duration: 0.8s;animation-duration: 0.8s;-webkit-animation-iteration-count: 1;animation-iteration-count: 1;-webkit-animation-timing-function: cubic-bezier(0, 0, 1, 1);animation-timing-function: cubic-bezier(0, 0, 1, 1);}#el_9W3SwvWzC0{stroke: #86ED18;stroke-width: 3;-webkit-animation-fill-mode: forwards;animation-fill-mode: forwards;-webkit-animation-name: kf_el_9W3SwvWzC0_an_roPELHKSG;animation-name: kf_el_9W3SwvWzC0_an_roPELHKSG;-webkit-animation-timing-function: cubic-bezier(0.42, 0, 1, 1);animation-timing-function: cubic-bezier(0.42, 0, 1, 1);}#el_N0MzWAG6yO{stroke: #202020;stroke-width: 3;}#el_7J6UdYzumt{stroke: #202020;stroke-width: 3;}#el_1MAh_nvrct{stroke: #86ED18;stroke-width: 3;-webkit-animation-fill-mode: forwards;animation-fill-mode: forwards;-webkit-animation-name: kf_el_1MAh_nvrct_an_l0T5HFvkL;animation-name: kf_el_1MAh_nvrct_an_l0T5HFvkL;-webkit-animation-timing-function: cubic-bezier(0.42, 0, 1, 1);animation-timing-function: cubic-bezier(0.42, 0, 1, 1);fill: rgba(255, 255, 255, 0);}#el_9W3SwvWzC0_an_i1UaP5mN4{-webkit-animation-fill-mode: forwards;animation-fill-mode: forwards;-webkit-animation-name: kf_el_9W3SwvWzC0_an_i1UaP5mN4;animation-name: kf_el_9W3SwvWzC0_an_i1UaP5mN4;-webkit-animation-timing-function: cubic-bezier(0.42, 0, 1, 1);animation-timing-function: cubic-bezier(0.42, 0, 1, 1);}#el_1MAh_nvrct_an_1tX-IndLX{-webkit-animation-fill-mode: forwards;animation-fill-mode: forwards;-webkit-animation-name: kf_el_1MAh_nvrct_an_1tX-IndLX;animation-name: kf_el_1MAh_nvrct_an_1tX-IndLX;-webkit-animation-timing-function: cubic-bezier(0.42, 0, 1, 1);animation-timing-function: cubic-bezier(0.42, 0, 1, 1);}</style>
    <g id="el_9W3SwvWzC0_an_i1UaP5mN4" data-animator-group="true" data-animator-type="0"><path stroke-linecap="round" stroke-miterlimit="10" d="M84.728 31.48V13.569M77.753 20.636l6.976-7.068 6.976 7.068" id="el_9W3SwvWzC0"/></g>
    <path stroke-linecap="round" stroke-miterlimit="10" d="M74.326 44.032c.367 4.021 0 8.164-1.47 12.064a26.635 26.635 0 0 1-4.038 7.31M38.22 82.294c-20.316 0-36.716-16.328-36.716-36.556 0-20.228 16.4-36.557 36.717-36.557 5.752 0 11.26 1.34 16.033 3.656" id="el_N0MzWAG6yO"/>
    <path stroke-miterlimit="10" d="M38.22 82.294c18.971 0 27.906-11.332 20.44-18.765M59.15 55.486c.979.61 2.57 1.584 2.203 3.656-.245 1.462-3.305 7.311-9.914 7.311s-14.687-5.118-21.785-12.307c-7.099-7.068-12.24-15.11-12.24-21.69 0-6.58 5.875-9.627 7.344-9.87 2.08-.244 2.938 1.218 3.672 2.193.612.975 4.406 6.702 5.018 7.555.612.853 1.224 3.046-.98 4.752-2.08 1.706-4.405 2.681 3.55 10.602 8.078 8.042 8.934 5.727 10.648 3.533 1.713-2.071 3.916-1.462 4.773-.975.98.853 6.854 4.63 7.71 5.24z" id="el_7J6UdYzumt"/>
    <g id="el_1MAh_nvrct_an_1tX-IndLX" data-animator-group="true" data-animator-type="0"><path stroke-miterlimit="10" d="M87.666 1.504c-.123 0-.49.122-.98.122-4.283.731-8.322 3.412-10.77 7.311-.367.488-.49.731-.611.731 0 0-.245-.122-.613-.243a7.317 7.317 0 0 0-3.671-.61c-1.469 0-2.693.488-4.039 1.34-1.836 1.22-3.304 3.169-4.039 5.362v.61l-.49.243c-1.835.853-3.549 2.316-4.773 4.143-2.08 3.169-2.325 7.19-.856 10.602 1.346 3.046 4.161 5.361 7.343 6.214 1.469.366 0 .366 21.296.366H104.8l.612-.122c1.591-.365 2.815-.853 4.039-1.828.612-.365 1.469-1.218 1.836-1.828 2.325-2.924 2.815-6.702 1.468-10.114-1.346-3.046-4.161-5.361-7.343-5.97-.245 0-.612-.122-.612-.122-.122 0-.122-.122-.122-1.219 0-1.95-.367-3.534-.979-5.24-.735-1.95-1.959-3.655-3.427-5.24-2.326-2.315-5.018-3.777-8.445-4.264-.857-.244-1.346-.244-2.448-.244h-1.713z" id="el_1MAh_nvrct"/></g>
</svg>