<svg xmlns="http://www.w3.org/2000/svg" width="200" height="40" fill="none" viewBox="0 0 200 40">
    <path fill="#fff" stroke="#86ED18" stroke-width="2" d="M1 1h198v38H1z"/>
    <path fill="#000" d="M32.684 24l3.247-9.523h1.935L41.099 24h-1.962l-.629-2.03h-3.247L34.646 24h-1.962zm3.049-3.568h2.31l-1.1-3.753h-.062l-1.148 3.753zM42.562 24v-9.523h2.727l2.844 7.253h.055v-7.253h1.811V24h-2.734l-2.844-7.267h-.054V24h-1.805zm9.386-4.73c0-.757.082-1.443.246-2.058.168-.615.424-1.14.765-1.572a3.406 3.406 0 0 1 1.292-1.012c.525-.237 1.142-.355 1.853-.355.506 0 .97.07 1.394.211.424.137.791.34 1.101.609.315.264.567.585.759.964.191.378.3.8.328 1.264h-1.818c-.105-1.007-.736-1.51-1.894-1.51-.615 0-1.114.177-1.497.533-.383.355-.574.831-.574 1.428v2.913c0 .287.052.553.157.8.11.24.258.45.444.628.187.174.406.31.657.41.255.096.533.144.834.144.615 0 1.105-.153 1.47-.458.368-.31.553-.795.553-1.456v-.41h-1.955v-1.538h3.78V24h-1.695l-.041-.868c-.488.72-1.249 1.08-2.283 1.08-.643 0-1.208-.123-1.696-.37a3.479 3.479 0 0 1-1.21-1.031 4.65 4.65 0 0 1-.731-1.559 7.776 7.776 0 0 1-.24-1.982zM61.92 24v-9.523h6.55v1.546H63.74v2.337h4.087v1.538H63.74v2.564h4.73V24h-6.549zm8.518 0v-9.523h4.06c.429 0 .823.046 1.183.137.36.087.668.226.923.417.255.192.453.442.595.752.14.306.212.675.212 1.108 0 .542-.13.995-.39 1.36a2.21 2.21 0 0 1-1.053.793c.506.141.907.396 1.203.766.301.369.451.84.451 1.415 0 .505-.073.936-.218 1.292a2.124 2.124 0 0 1-.622.86 2.487 2.487 0 0 1-.964.48c-.374.095-.79.143-1.251.143h-4.13zm1.818-1.538h2.577c.301 0 .525-.068.67-.205.15-.137.226-.353.226-.65v-.936c0-.542-.28-.814-.84-.814h-2.633v2.605zm0-4.143h2.482c.3 0 .505-.07.615-.212.11-.14.164-.35.164-.628v-.732c0-.483-.26-.724-.78-.724h-2.48v2.296zm6.939.923c0-1.631.367-2.866 1.1-3.705.739-.843 1.784-1.264 3.138-1.264 1.353 0 2.4.421 3.138 1.264.738.839 1.107 2.074 1.107 3.705 0 1.632-.369 2.869-1.107 3.712-.739.839-1.785 1.258-3.138 1.258s-2.4-.42-3.138-1.258c-.733-.843-1.1-2.08-1.1-3.712zm1.955 1.47c0 .319.061.6.184.84.123.242.288.447.493.616.205.169.444.294.717.376.274.082.57.123.889.123.319 0 .615-.041.889-.123a2.03 2.03 0 0 0 .724-.376 1.832 1.832 0 0 0 .67-1.456v-2.94a1.828 1.828 0 0 0-.67-1.456 2.033 2.033 0 0 0-.724-.376 2.93 2.93 0 0 0-.889-.13 2.93 2.93 0 0 0-.889.13 2.04 2.04 0 0 0-.718.376c-.204.169-.369.374-.492.616a1.828 1.828 0 0 0-.184.84v2.94zm7.56-4.69v-1.544h7.363v1.545h-2.769V24H91.48v-7.977H88.71zM100.968 24v-9.523h6.549v1.546h-4.73v2.337h4.087v1.538h-4.087v2.564h4.73V24h-6.549zm8.518 0v-9.523h1.818V24h-1.818zm4.17 0v-9.523h2.727l2.844 7.253h.055v-7.253h1.811V24h-2.734l-2.844-7.267h-.055V24h-1.804zm9.789 0v-9.523h1.818v3.91h3.794v-3.91h1.825V24h-1.825v-4.074h-3.794V24h-1.818zm9.385-4.758c0-1.631.367-2.866 1.101-3.705.738-.843 1.784-1.264 3.138-1.264 1.353 0 2.399.421 3.137 1.264.739.839 1.108 2.074 1.108 3.705 0 1.632-.369 2.869-1.108 3.712-.738.839-1.784 1.258-3.137 1.258-1.354 0-2.4-.42-3.138-1.258-.734-.843-1.101-2.08-1.101-3.712zm1.956 1.47c0 .319.061.6.184.84.123.242.287.447.492.616.205.169.445.294.718.376.274.082.57.123.889.123.319 0 .615-.041.888-.123.278-.082.52-.207.725-.376.205-.169.367-.374.485-.615.123-.246.185-.527.185-.841v-2.94a1.83 1.83 0 0 0-.67-1.456 2.034 2.034 0 0 0-.725-.376 2.922 2.922 0 0 0-.888-.13c-.319 0-.615.044-.889.13a2.044 2.044 0 0 0-.718.376 1.908 1.908 0 0 0-.492.616 1.83 1.83 0 0 0-.184.84v2.94zM143.255 24v-9.523h1.819v7.985h4.033V24h-5.852zm7.26 0v-9.523h6.549v1.546h-4.731v2.337h4.088v1.538h-4.088v2.564h4.731V24h-6.549zm8.518 0v-9.523h2.727l2.844 7.253h.055v-7.253h1.811V24h-2.734l-2.844-7.267h-.055V24h-1.804z"/>
</svg>
