<svg width="214" height="50" viewBox="0 0 214 50" fill="none" xmlns="http://www.w3.org/2000/svg">
<path d="M2.436 24.4H5.32L10.752 38.344L16.184 24.4H19.04V44H16.632V29.244L11.564 42.208H9.912L4.872 29.244V44H2.436V24.4ZM23.5648 29.888H25.8888V44H23.5648V29.888ZM24.7128 27.508C24.2462 27.508 23.8448 27.3493 23.5088 27.032C23.1915 26.696 23.0328 26.2947 23.0328 25.828C23.0328 25.3427 23.1915 24.9413 23.5088 24.624C23.8448 24.3067 24.2462 24.148 24.7128 24.148C25.1982 24.148 25.5995 24.3067 25.9168 24.624C26.2528 24.9413 26.4208 25.3427 26.4208 25.828C26.4208 26.3133 26.2528 26.7147 25.9168 27.032C25.5995 27.3493 25.1982 27.508 24.7128 27.508ZM35.7287 44.224C34.3473 44.224 33.1713 43.888 32.2007 43.216C31.23 42.544 30.4927 41.6573 29.9887 40.556C29.5033 39.4547 29.2607 38.2507 29.2607 36.944C29.2607 35.6373 29.5033 34.4333 29.9887 33.332C30.4927 32.2307 31.23 31.344 32.2007 30.672C33.1713 30 34.3473 29.664 35.7287 29.664C38.678 29.664 40.6473 30.98 41.6367 33.612L39.5647 34.424C38.8367 32.632 37.558 31.736 35.7287 31.736C34.4033 31.736 33.3953 32.2213 32.7047 33.192C32.014 34.1627 31.6687 35.4133 31.6687 36.944C31.6687 38.456 32.014 39.7067 32.7047 40.696C33.3953 41.6667 34.4033 42.152 35.7287 42.152C36.662 42.152 37.4367 41.928 38.0527 41.48C38.6687 41.032 39.1727 40.36 39.5647 39.464L41.6367 40.276C41.1327 41.5827 40.3767 42.572 39.3687 43.244C38.3793 43.8973 37.166 44.224 35.7287 44.224ZM44.8656 29.888H47.1896V32.324C47.6376 31.4653 48.2163 30.812 48.9256 30.364C49.635 29.8973 50.4376 29.664 51.3336 29.664C51.9496 29.664 52.6123 29.804 53.3216 30.084L52.8456 32.24C52.267 31.9227 51.6603 31.764 51.0256 31.764C49.9056 31.764 48.9816 32.352 48.2536 33.528C47.5443 34.704 47.1896 36.4213 47.1896 38.68V44H44.8656V29.888ZM61.0568 44.224C59.6942 44.224 58.4902 43.8973 57.4448 43.244C56.4182 42.572 55.6248 41.676 55.0648 40.556C54.5235 39.436 54.2528 38.232 54.2528 36.944C54.2528 35.656 54.5235 34.452 55.0648 33.332C55.6248 32.212 56.4182 31.3253 57.4448 30.672C58.4902 30 59.6942 29.664 61.0568 29.664C62.4195 29.664 63.6142 30 64.6408 30.672C65.6675 31.3253 66.4515 32.212 66.9928 33.332C67.5528 34.452 67.8328 35.656 67.8328 36.944C67.8328 38.232 67.5528 39.436 66.9928 40.556C66.4515 41.676 65.6675 42.572 64.6408 43.244C63.6142 43.8973 62.4195 44.224 61.0568 44.224ZM61.0568 42.152C61.9715 42.152 62.7555 41.9093 63.4088 41.424C64.0808 40.9387 64.5848 40.304 64.9208 39.52C65.2568 38.7173 65.4248 37.8587 65.4248 36.944C65.4248 36.0293 65.2568 35.18 64.9208 34.396C64.5848 33.5933 64.0808 32.9493 63.4088 32.464C62.7555 31.9787 61.9715 31.736 61.0568 31.736C60.1422 31.736 59.3488 31.9787 58.6768 32.464C58.0235 32.9493 57.5195 33.5933 57.1648 34.396C56.8288 35.18 56.6608 36.0293 56.6608 36.944C56.6608 37.8587 56.8288 38.7173 57.1648 39.52C57.5195 40.304 58.0235 40.9387 58.6768 41.424C59.3488 41.9093 60.1422 42.152 61.0568 42.152ZM75.2369 44.224C73.7995 44.224 72.6329 43.8507 71.7369 43.104C70.8409 42.3573 70.2529 41.452 69.9729 40.388L71.9049 39.352C72.1849 40.248 72.5862 40.9387 73.1089 41.424C73.6502 41.9093 74.3595 42.152 75.2369 42.152C75.9275 42.152 76.4689 41.9653 76.8609 41.592C77.2715 41.2187 77.4769 40.696 77.4769 40.024C77.4769 39.4267 77.2155 38.9413 76.6929 38.568C76.1889 38.1947 75.4329 37.8213 74.4249 37.448C73.3049 37.0373 72.4369 36.524 71.8209 35.908C71.2235 35.292 70.9249 34.4707 70.9249 33.444C70.9249 32.324 71.3075 31.4187 72.0729 30.728C72.8569 30.0187 73.8462 29.664 75.0409 29.664C76.8515 29.664 78.2142 30.4013 79.1289 31.876L77.6169 33.22C76.9822 32.2307 76.1142 31.736 75.0129 31.736C74.4902 31.736 74.0515 31.8947 73.6969 32.212C73.3422 32.5107 73.1649 32.9213 73.1649 33.444C73.1649 33.9667 73.3889 34.4053 73.8369 34.76C74.3035 35.096 75.1249 35.4787 76.3009 35.908C78.5969 36.748 79.7449 38.092 79.7449 39.94C79.7449 41.2653 79.3342 42.3107 78.5129 43.076C77.6915 43.8413 76.5995 44.224 75.2369 44.224ZM88.7014 44.224C87.3387 44.224 86.1347 43.8973 85.0894 43.244C84.0627 42.572 83.2694 41.676 82.7094 40.556C82.168 39.436 81.8974 38.232 81.8974 36.944C81.8974 35.656 82.168 34.452 82.7094 33.332C83.2694 32.212 84.0627 31.3253 85.0894 30.672C86.1347 30 87.3387 29.664 88.7014 29.664C90.064 29.664 91.2587 30 92.2854 30.672C93.312 31.3253 94.096 32.212 94.6374 33.332C95.1974 34.452 95.4774 35.656 95.4774 36.944C95.4774 38.232 95.1974 39.436 94.6374 40.556C94.096 41.676 93.312 42.572 92.2854 43.244C91.2587 43.8973 90.064 44.224 88.7014 44.224ZM88.7014 42.152C89.616 42.152 90.4 41.9093 91.0534 41.424C91.7254 40.9387 92.2294 40.304 92.5654 39.52C92.9014 38.7173 93.0694 37.8587 93.0694 36.944C93.0694 36.0293 92.9014 35.18 92.5654 34.396C92.2294 33.5933 91.7254 32.9493 91.0534 32.464C90.4 31.9787 89.616 31.736 88.7014 31.736C87.7867 31.736 86.9934 31.9787 86.3214 32.464C85.668 32.9493 85.164 33.5933 84.8094 34.396C84.4734 35.18 84.3054 36.0293 84.3054 36.944C84.3054 37.8587 84.4734 38.7173 84.8094 39.52C85.164 40.304 85.668 40.9387 86.3214 41.424C86.9934 41.9093 87.7867 42.152 88.7014 42.152ZM99.1775 31.96H97.0775V29.888H99.1775V29.048C99.1775 27.4053 99.5695 26.1827 100.354 25.38C101.156 24.5773 102.276 24.176 103.714 24.176C104.479 24.176 105.142 24.316 105.702 24.596L105.198 26.584C104.712 26.36 104.208 26.248 103.686 26.248C102.976 26.248 102.426 26.4627 102.034 26.892C101.66 27.3027 101.474 27.928 101.474 28.768V29.888H104.75V31.96H101.474V44H99.1775V31.96ZM113.061 44.224C111.792 44.224 110.793 43.8507 110.065 43.104C109.337 42.3387 108.973 41.2 108.973 39.688V31.96H106.593V29.888H108.973V25.66L111.297 24.176V29.888H115.077V31.96H111.297V39.856C111.297 41.3867 111.95 42.152 113.257 42.152C113.892 42.152 114.433 42.0213 114.881 41.76L115.469 43.72C114.797 44.056 113.994 44.224 113.061 44.224ZM129.68 26.668H123.94V24.4H137.828V26.668H132.088V44H129.68V26.668ZM149.544 37.308H139.156C139.212 38.7453 139.604 39.912 140.332 40.808C141.06 41.704 142.049 42.152 143.3 42.152C144.27 42.152 145.064 41.9373 145.68 41.508C146.296 41.0787 146.846 40.3787 147.332 39.408L149.292 40.248C148.62 41.6293 147.798 42.6373 146.828 43.272C145.876 43.9067 144.681 44.224 143.244 44.224C141.918 44.224 140.77 43.8973 139.8 43.244C138.829 42.572 138.082 41.6853 137.56 40.584C137.056 39.464 136.804 38.2507 136.804 36.944C136.804 35.6187 137.056 34.4053 137.56 33.304C138.082 32.184 138.829 31.2973 139.8 30.644C140.77 29.9907 141.918 29.664 143.244 29.664C144.532 29.664 145.652 29.9627 146.604 30.56C147.556 31.1573 148.284 31.96 148.788 32.968C149.292 33.976 149.544 35.096 149.544 36.328V37.308ZM147.192 35.32C147.024 34.2187 146.604 33.3507 145.932 32.716C145.26 32.0627 144.364 31.736 143.244 31.736C142.273 31.736 141.433 32.044 140.724 32.66C140.014 33.276 139.538 34.1627 139.296 35.32H147.192ZM156.458 44.224C155.189 44.224 154.143 43.8693 153.322 43.16C152.501 42.432 152.09 41.3587 152.09 39.94C152.09 38.4467 152.641 37.308 153.742 36.524C154.862 35.7213 156.393 35.32 158.334 35.32H160.798V34.704C160.798 33.6773 160.518 32.9307 159.958 32.464C159.417 31.9787 158.698 31.736 157.802 31.736C156.253 31.736 155.226 32.5013 154.722 34.032L152.65 33.556C152.837 32.38 153.406 31.4373 154.358 30.728C155.329 30.0187 156.477 29.664 157.802 29.664C159.389 29.664 160.667 30.1307 161.638 31.064C162.609 31.9787 163.094 33.276 163.094 34.956V44H161.274L160.854 41.956C159.883 43.468 158.418 44.224 156.458 44.224ZM156.878 42.152C157.513 42.152 158.129 42.0027 158.726 41.704C159.323 41.3867 159.818 40.9013 160.21 40.248C160.602 39.576 160.798 38.7453 160.798 37.756V37.308H158.418C157.111 37.308 156.131 37.532 155.478 37.98C154.825 38.428 154.498 39.072 154.498 39.912C154.498 40.6213 154.703 41.172 155.114 41.564C155.543 41.956 156.131 42.152 156.878 42.152ZM166.955 29.888H169.279V32.604C169.765 31.6893 170.371 30.9707 171.099 30.448C171.827 29.9253 172.667 29.664 173.619 29.664C174.627 29.664 175.458 29.9253 176.111 30.448C176.783 30.952 177.241 31.708 177.483 32.716C177.969 31.8013 178.613 31.064 179.415 30.504C180.218 29.944 181.077 29.664 181.991 29.664C184.698 29.664 186.051 31.176 186.051 34.2V44H183.755V34.564C183.755 33.5933 183.578 32.884 183.223 32.436C182.869 31.9693 182.29 31.736 181.487 31.736C180.778 31.736 180.134 31.988 179.555 32.492C178.977 32.996 178.51 33.724 178.155 34.676C177.819 35.628 177.651 36.748 177.651 38.036V44H175.355V34.564C175.355 33.5933 175.178 32.884 174.823 32.436C174.487 31.9693 173.909 31.736 173.087 31.736C172.378 31.736 171.734 31.988 171.155 32.492C170.577 32.996 170.119 33.7333 169.783 34.704C169.447 35.6747 169.279 36.8227 169.279 38.148V44H166.955V29.888ZM194.401 44.224C192.964 44.224 191.797 43.8507 190.901 43.104C190.005 42.3573 189.417 41.452 189.137 40.388L191.069 39.352C191.349 40.248 191.75 40.9387 192.273 41.424C192.814 41.9093 193.524 42.152 194.401 42.152C195.092 42.152 195.633 41.9653 196.025 41.592C196.436 41.2187 196.641 40.696 196.641 40.024C196.641 39.4267 196.38 38.9413 195.857 38.568C195.353 38.1947 194.597 37.8213 193.589 37.448C192.469 37.0373 191.601 36.524 190.985 35.908C190.388 35.292 190.089 34.4707 190.089 33.444C190.089 32.324 190.472 31.4187 191.237 30.728C192.021 30.0187 193.01 29.664 194.205 29.664C196.016 29.664 197.378 30.4013 198.293 31.876L196.781 33.22C196.146 32.2307 195.278 31.736 194.177 31.736C193.654 31.736 193.216 31.8947 192.861 32.212C192.506 32.5107 192.329 32.9213 192.329 33.444C192.329 33.9667 192.553 34.4053 193.001 34.76C193.468 35.096 194.289 35.4787 195.465 35.908C197.761 36.748 198.909 38.092 198.909 39.94C198.909 41.2653 198.498 42.3107 197.677 43.076C196.856 43.8413 195.764 44.224 194.401 44.224ZM203.014 32.94L205.254 29.916L201.642 28.684L202.286 26.78L205.898 27.956V24.176H207.886V27.956L211.498 26.78L212.142 28.684L208.53 29.916L210.77 32.94L209.118 34.144L206.878 31.092L204.666 34.144L203.014 32.94Z" fill="black"/>
<path d="M0.266602 5.02246V3.47754H7.62891V5.02246H4.86035V13H3.03516V5.02246H0.266602ZM8.61328 9.41797C8.61328 8.85742 8.69076 8.34928 8.8457 7.89355C9.00065 7.43327 9.21712 7.04134 9.49512 6.71777C9.77767 6.38965 10.1172 6.13672 10.5137 5.95898C10.9102 5.78125 11.3499 5.69238 11.833 5.69238C12.3161 5.69238 12.7536 5.77897 13.1455 5.95215C13.542 6.12533 13.8792 6.36458 14.1572 6.66992C14.4398 6.9707 14.654 7.33073 14.7998 7.75C14.9502 8.16927 15.0254 8.62272 15.0254 9.11035V9.99219H10.4385V10.4639C10.4385 10.8923 10.5775 11.2249 10.8555 11.4619C11.138 11.6943 11.4707 11.8105 11.8535 11.8105C12.2363 11.8105 12.5485 11.7103 12.79 11.5098C13.0316 11.3092 13.1751 11.0267 13.2207 10.6621H14.9707C14.8568 11.4551 14.5218 12.0726 13.9658 12.5146C13.4144 12.9521 12.7035 13.1709 11.833 13.1709C11.3271 13.1709 10.8737 13.0798 10.4727 12.8975C10.0762 12.7152 9.73893 12.46 9.46094 12.1318C9.1875 11.8037 8.97786 11.4095 8.83203 10.9492C8.6862 10.4889 8.61328 9.97852 8.61328 9.41797ZM10.4385 8.63184H13.2344V8.37891C13.2344 7.98698 13.1022 7.66797 12.8379 7.42188C12.5736 7.17578 12.2386 7.05273 11.833 7.05273C11.432 7.05273 11.0993 7.17578 10.835 7.42188C10.5706 7.66797 10.4385 7.98698 10.4385 8.37891V8.63184ZM16.7754 13V3.47754H18.5254V13H16.7754ZM20.3164 9.41797C20.3164 8.85742 20.3939 8.34928 20.5488 7.89355C20.7038 7.43327 20.9202 7.04134 21.1982 6.71777C21.4808 6.38965 21.8203 6.13672 22.2168 5.95898C22.6133 5.78125 23.0531 5.69238 23.5361 5.69238C24.0192 5.69238 24.4567 5.77897 24.8486 5.95215C25.2451 6.12533 25.5824 6.36458 25.8604 6.66992C26.1429 6.9707 26.3571 7.33073 26.5029 7.75C26.6533 8.16927 26.7285 8.62272 26.7285 9.11035V9.99219H22.1416V10.4639C22.1416 10.8923 22.2806 11.2249 22.5586 11.4619C22.8411 11.6943 23.1738 11.8105 23.5566 11.8105C23.9395 11.8105 24.2516 11.7103 24.4932 11.5098C24.7347 11.3092 24.8783 11.0267 24.9238 10.6621H26.6738C26.5599 11.4551 26.2249 12.0726 25.6689 12.5146C25.1175 12.9521 24.4066 13.1709 23.5361 13.1709C23.0303 13.1709 22.5768 13.0798 22.1758 12.8975C21.7793 12.7152 21.4421 12.46 21.1641 12.1318C20.8906 11.8037 20.681 11.4095 20.5352 10.9492C20.3893 10.4889 20.3164 9.97852 20.3164 9.41797ZM22.1416 8.63184H24.9375V8.37891C24.9375 7.98698 24.8053 7.66797 24.541 7.42188C24.2767 7.17578 23.9417 7.05273 23.5361 7.05273C23.1351 7.05273 22.8024 7.17578 22.5381 7.42188C22.2738 7.66797 22.1416 7.98698 22.1416 8.37891V8.63184ZM27.8018 7.2168V5.86328H29.2031V3.47754H32.7305V4.83789H30.9531V5.86328H32.5938V7.2168H30.9531V13H29.2031V7.2168H27.8018ZM33.7012 9.43164C33.7012 8.87109 33.7764 8.36296 33.9268 7.90723C34.0771 7.44694 34.2936 7.05273 34.5762 6.72461C34.8633 6.39193 35.2142 6.13672 35.6289 5.95898C36.0436 5.78125 36.5176 5.69238 37.0508 5.69238C37.584 5.69238 38.0579 5.78125 38.4727 5.95898C38.8874 6.13672 39.236 6.39193 39.5186 6.72461C39.8057 7.05273 40.0221 7.44694 40.168 7.90723C40.3184 8.36296 40.3936 8.87109 40.3936 9.43164C40.3936 9.99219 40.3184 10.5003 40.168 10.9561C40.0221 11.4118 39.8057 11.806 39.5186 12.1387C39.236 12.4714 38.8874 12.7266 38.4727 12.9043C38.0579 13.082 37.584 13.1709 37.0508 13.1709C36.5176 13.1709 36.0436 13.082 35.6289 12.9043C35.2142 12.7266 34.8633 12.4714 34.5762 12.1387C34.2936 11.806 34.0771 11.4118 33.9268 10.9561C33.7764 10.5003 33.7012 9.99219 33.7012 9.43164ZM35.5264 10.4639C35.5264 10.8923 35.6699 11.2249 35.957 11.4619C36.2487 11.6943 36.6133 11.8105 37.0508 11.8105C37.4883 11.8105 37.8506 11.6966 38.1377 11.4688C38.4294 11.2409 38.5752 10.9059 38.5752 10.4639V8.39258C38.5752 7.95508 38.4294 7.6224 38.1377 7.39453C37.8506 7.16667 37.4883 7.05273 37.0508 7.05273C36.6133 7.05273 36.2487 7.16895 35.957 7.40137C35.6699 7.63379 35.5264 7.96419 35.5264 8.39258V10.4639ZM42.1914 13V5.86328H43.9414V6.89551C44.1556 6.5127 44.4336 6.21647 44.7754 6.00684C45.1217 5.7972 45.5479 5.69238 46.0537 5.69238C46.8558 5.69238 47.446 5.92708 47.8242 6.39648C48.2025 6.86133 48.3916 7.50391 48.3916 8.32422V13H46.6416V8.44727C46.6416 8.02799 46.5527 7.70215 46.375 7.46973C46.1973 7.2373 45.8988 7.12109 45.4795 7.12109C44.9964 7.12109 44.6182 7.28288 44.3447 7.60645C44.0758 7.92546 43.9414 8.34701 43.9414 8.87109V13H42.1914ZM50.4629 5.03613V3.47754H52.2676V5.03613H50.4629ZM50.4902 13V5.86328H52.2402V13H50.4902ZM54.0312 9.41797C54.0312 8.85742 54.1087 8.34928 54.2637 7.89355C54.4186 7.43327 54.6351 7.04134 54.9131 6.71777C55.1956 6.38965 55.5352 6.13672 55.9316 5.95898C56.3281 5.78125 56.7679 5.69238 57.251 5.69238C57.734 5.69238 58.1715 5.77897 58.5635 5.95215C58.96 6.12533 59.2972 6.36458 59.5752 6.66992C59.8577 6.9707 60.0719 7.33073 60.2178 7.75C60.3682 8.16927 60.4434 8.62272 60.4434 9.11035V9.99219H55.8564V10.4639C55.8564 10.8923 55.9954 11.2249 56.2734 11.4619C56.556 11.6943 56.8887 11.8105 57.2715 11.8105C57.6543 11.8105 57.9665 11.7103 58.208 11.5098C58.4495 11.3092 58.5931 11.0267 58.6387 10.6621H60.3887C60.2747 11.4551 59.9398 12.0726 59.3838 12.5146C58.8324 12.9521 58.1214 13.1709 57.251 13.1709C56.7451 13.1709 56.2917 13.0798 55.8906 12.8975C55.4941 12.7152 55.1569 12.46 54.8789 12.1318C54.6055 11.8037 54.3958 11.4095 54.25 10.9492C54.1042 10.4889 54.0312 9.97852 54.0312 9.41797ZM55.8564 8.63184H58.6523V8.37891C58.6523 7.98698 58.5202 7.66797 58.2559 7.42188C57.9915 7.17578 57.6566 7.05273 57.251 7.05273C56.8499 7.05273 56.5173 7.17578 56.2529 7.42188C55.9886 7.66797 55.8564 7.98698 55.8564 8.37891V8.63184ZM65.6387 13V5.86328H67.3887V6.89551C67.5938 6.5127 67.8535 6.21647 68.168 6.00684C68.487 5.7972 68.8835 5.69238 69.3574 5.69238C69.8724 5.69238 70.2939 5.80859 70.6221 6.04102C70.9548 6.26888 71.2008 6.59701 71.3604 7.02539C71.8252 6.13672 72.5498 5.69238 73.5342 5.69238C74.2633 5.69238 74.8102 5.92708 75.1748 6.39648C75.5439 6.86133 75.7285 7.50391 75.7285 8.32422V13H73.9785V8.44727C73.9785 7.56315 73.6436 7.12109 72.9736 7.12109C72.9691 7.12109 72.9645 7.12109 72.96 7.12109C72.5407 7.12109 72.2012 7.28288 71.9414 7.60645C71.6862 7.92546 71.5586 8.34701 71.5586 8.87109V13H69.8086V8.44727C69.8086 7.56315 69.4714 7.12109 68.7969 7.12109C68.7923 7.12109 68.7878 7.12109 68.7832 7.12109C68.3639 7.12109 68.0267 7.28288 67.7715 7.60645C67.5163 7.92546 67.3887 8.34701 67.3887 8.87109V13H65.6387ZM77.8066 5.03613V3.47754H79.6113V5.03613H77.8066ZM77.834 13V5.86328H79.584V13H77.834ZM81.0674 7.2168V5.86328H82.4824V3.47754H84.2324V5.86328H86.0098V7.2168H84.2324V11.6396H86.0098V13H82.4824V7.2168H81.0674Z" fill="black"/>
</svg>
