<svg width="200" height="51" viewBox="0 0 200 51" fill="none" xmlns="http://www.w3.org/2000/svg">
<path fill-rule="evenodd" clip-rule="evenodd" d="M25 50C11.2752 50 0 38.8486 0 25.0002C0 11.2753 11.2752 0.000448791 25.0015 0.000448791C26.9457 -0.0120185 28.8827 0.23532 30.7597 0.735736V14.7062C29.0443 13.8489 27.0847 13.2356 25 13.2356C18.5047 13.2356 13.2363 18.5047 13.2363 25.0002C13.2363 30.4571 16.9545 35.0484 21.9947 36.3772C21.8915 36.4835 21.7898 36.5943 21.69 36.7098C19.687 39.0264 19.7482 41.8183 20.4421 43.7633C21.0965 45.5975 22.4268 47.1768 24.0732 48.1347L24.2752 48.2523L27.71 49.8424C26.8148 49.9474 25.9074 50 25 50ZM49.6597 29.1275C49.8834 27.7844 50 26.4056 50 25.0002C50 15.4421 44.7294 7.10878 36.7651 2.94238V2.9416H36.7637L36.7651 2.94238V26.0835C37.5323 25.7502 38.3798 25.4478 39.2826 25.2425C41.0943 24.8306 43.3273 24.7686 45.5931 25.7889C47.2365 26.529 48.5762 27.694 49.6597 29.1275Z" fill="#86EC16"/>
<path d="M27.3662 25.3552C25.1887 26.6537 26.6554 29.2779 27.0745 30.0276L33.3605 41.2735L29.6812 39.719C28.1446 39.1359 26.5426 38.7418 25.472 39.98C24.4015 41.2182 25.315 43.0725 26.5876 43.8131L36.4962 48.4003C38.2875 49.0966 39.4336 51.1469 42.7887 49.1462L47.1953 46.5183C51.602 43.8904 49.8595 39.6814 48.3812 36.8143L46.3947 33.2604C42.9357 27.072 37.7844 31.1381 34.5726 33.0534L31.4296 27.4305C31.0105 26.6808 29.5437 24.0566 27.3662 25.3552Z" fill="url(#paint0_linear)"/>
<path d="M78.42 45.224C77.3373 45.224 76.3387 44.9907 75.424 44.524C74.528 44.0387 73.7907 43.3853 73.212 42.564C72.6333 41.7427 72.26 40.8467 72.092 39.876L74.108 38.616C74.7987 41.5093 76.2453 42.956 78.448 42.956C79.4 42.956 80.1747 42.676 80.772 42.116C81.3693 41.5373 81.668 40.7067 81.668 39.624C81.668 38.9147 81.4813 38.308 81.108 37.804C80.7347 37.3 80.268 36.88 79.708 36.544C79.148 36.208 78.3547 35.7973 77.328 35.312C76.0587 34.696 75.0507 33.9773 74.304 33.156C73.576 32.316 73.212 31.252 73.212 29.964C73.212 29.0493 73.4267 28.228 73.856 27.5C74.2853 26.772 74.8733 26.2027 75.62 25.792C76.3667 25.3813 77.2067 25.176 78.14 25.176C79.428 25.176 80.4733 25.456 81.276 26.016C82.0787 26.5573 82.704 27.3413 83.152 28.368L81.164 29.628C80.5667 28.172 79.5587 27.444 78.14 27.444C77.3747 27.444 76.7587 27.6773 76.292 28.144C75.8253 28.6107 75.592 29.1707 75.592 29.824C75.592 30.4773 75.7693 31.0373 76.124 31.504C76.4787 31.9707 76.9173 32.3627 77.44 32.68C77.9813 32.9973 78.7093 33.3613 79.624 33.772C81.0613 34.4253 82.172 35.1907 82.956 36.068C83.74 36.9267 84.132 38.0747 84.132 39.512C84.132 40.6507 83.88 41.6493 83.376 42.508C82.8907 43.3667 82.2093 44.0387 81.332 44.524C80.4733 44.9907 79.5027 45.224 78.42 45.224ZM93.4748 45.224C92.1121 45.224 90.9081 44.8973 89.8628 44.244C88.8361 43.572 88.0428 42.676 87.4828 41.556C86.9415 40.436 86.6708 39.232 86.6708 37.944C86.6708 36.656 86.9415 35.452 87.4828 34.332C88.0428 33.212 88.8361 32.3253 89.8628 31.672C90.9081 31 92.1121 30.664 93.4748 30.664C94.8375 30.664 96.0321 31 97.0588 31.672C98.0855 32.3253 98.8695 33.212 99.4108 34.332C99.9708 35.452 100.251 36.656 100.251 37.944C100.251 39.232 99.9708 40.436 99.4108 41.556C98.8695 42.676 98.0855 43.572 97.0588 44.244C96.0321 44.8973 94.8375 45.224 93.4748 45.224ZM93.4748 43.152C94.3895 43.152 95.1735 42.9093 95.8268 42.424C96.4988 41.9387 97.0028 41.304 97.3388 40.52C97.6748 39.7173 97.8428 38.8587 97.8428 37.944C97.8428 37.0293 97.6748 36.18 97.3388 35.396C97.0028 34.5933 96.4988 33.9493 95.8268 33.464C95.1735 32.9787 94.3895 32.736 93.4748 32.736C92.5601 32.736 91.7668 32.9787 91.0948 33.464C90.4415 33.9493 89.9375 34.5933 89.5828 35.396C89.2468 36.18 89.0788 37.0293 89.0788 37.944C89.0788 38.8587 89.2468 39.7173 89.5828 40.52C89.9375 41.304 90.4415 41.9387 91.0948 42.424C91.7668 42.9093 92.5601 43.152 93.4748 43.152ZM103.951 32.96H101.851V30.888H103.951V30.048C103.951 28.4053 104.343 27.1827 105.127 26.38C105.93 25.5773 107.05 25.176 108.487 25.176C109.252 25.176 109.915 25.316 110.475 25.596L109.971 27.584C109.486 27.36 108.982 27.248 108.459 27.248C107.75 27.248 107.199 27.4627 106.807 27.892C106.434 28.3027 106.247 28.928 106.247 29.768V30.888H109.523V32.96H106.247V45H103.951V32.96ZM117.835 45.224C116.565 45.224 115.567 44.8507 114.839 44.104C114.111 43.3387 113.747 42.2 113.747 40.688V32.96H111.367V30.888H113.747V26.66L116.071 25.176V30.888H119.851V32.96H116.071V40.856C116.071 42.3867 116.724 43.152 118.031 43.152C118.665 43.152 119.207 43.0213 119.655 42.76L120.243 44.72C119.571 45.056 118.768 45.224 117.835 45.224ZM123.002 30.888H125.326V31.868V32.708C125.662 32.1667 126.204 31.6907 126.95 31.28C127.716 30.8693 128.546 30.664 129.442 30.664C130.786 30.664 131.934 30.9813 132.886 31.616C133.838 32.232 134.557 33.0907 135.042 34.192C135.528 35.2933 135.77 36.544 135.77 37.944C135.77 39.344 135.528 40.5947 135.042 41.696C134.557 42.7973 133.838 43.6653 132.886 44.3C131.934 44.916 130.786 45.224 129.442 45.224C128.64 45.224 127.856 45.0467 127.09 44.692C126.325 44.3187 125.737 43.8333 125.326 43.236V44.076V50.712H123.002V30.888ZM129.218 43.152C130.506 43.152 131.514 42.676 132.242 41.724C132.989 40.7533 133.362 39.4933 133.362 37.944C133.362 36.3947 132.989 35.144 132.242 34.192C131.514 33.2213 130.506 32.736 129.218 32.736C127.93 32.736 126.922 33.2213 126.194 34.192C125.466 35.144 125.102 36.3947 125.102 37.944C125.102 39.4933 125.466 40.7533 126.194 41.724C126.941 42.676 127.949 43.152 129.218 43.152ZM139.163 25.176H141.487V33.716C141.953 32.7453 142.625 31.9987 143.503 31.476C144.38 30.9347 145.323 30.664 146.331 30.664C147.712 30.664 148.785 31.056 149.551 31.84C150.335 32.6053 150.727 33.716 150.727 35.172V45H148.431V35.732C148.431 34.7613 148.207 34.024 147.759 33.52C147.311 32.9973 146.648 32.736 145.771 32.736C145.005 32.736 144.296 32.988 143.643 33.492C142.989 33.9773 142.467 34.696 142.075 35.648C141.683 36.6 141.487 37.72 141.487 39.008V45H139.163V25.176ZM160.932 45.224C159.569 45.224 158.365 44.8973 157.32 44.244C156.293 43.572 155.5 42.676 154.94 41.556C154.399 40.436 154.128 39.232 154.128 37.944C154.128 36.656 154.399 35.452 154.94 34.332C155.5 33.212 156.293 32.3253 157.32 31.672C158.365 31 159.569 30.664 160.932 30.664C162.295 30.664 163.489 31 164.516 31.672C165.543 32.3253 166.327 33.212 166.868 34.332C167.428 35.452 167.708 36.656 167.708 37.944C167.708 39.232 167.428 40.436 166.868 41.556C166.327 42.676 165.543 43.572 164.516 44.244C163.489 44.8973 162.295 45.224 160.932 45.224ZM160.932 43.152C161.847 43.152 162.631 42.9093 163.284 42.424C163.956 41.9387 164.46 41.304 164.796 40.52C165.132 39.7173 165.3 38.8587 165.3 37.944C165.3 37.0293 165.132 36.18 164.796 35.396C164.46 34.5933 163.956 33.9493 163.284 33.464C162.631 32.9787 161.847 32.736 160.932 32.736C160.017 32.736 159.224 32.9787 158.552 33.464C157.899 33.9493 157.395 34.5933 157.04 35.396C156.704 36.18 156.536 37.0293 156.536 37.944C156.536 38.8587 156.704 39.7173 157.04 40.52C157.395 41.304 157.899 41.9387 158.552 42.424C159.224 42.9093 160.017 43.152 160.932 43.152ZM171.1 30.888H173.424V33.604C173.928 32.708 174.591 31.9987 175.412 31.476C176.252 30.9347 177.148 30.664 178.1 30.664C179.425 30.664 180.48 31.056 181.264 31.84C182.048 32.624 182.44 33.7347 182.44 35.172V45H180.144V35.676C180.144 34.7053 179.92 33.9773 179.472 33.492C179.043 32.988 178.399 32.736 177.54 32.736C176.775 32.736 176.075 32.988 175.44 33.492C174.824 33.996 174.329 34.724 173.956 35.676C173.601 36.6093 173.424 37.7107 173.424 38.98V45H171.1V30.888ZM198.559 38.308H188.171C188.227 39.7453 188.619 40.912 189.347 41.808C190.075 42.704 191.065 43.152 192.315 43.152C193.286 43.152 194.079 42.9373 194.695 42.508C195.311 42.0787 195.862 41.3787 196.347 40.408L198.307 41.248C197.635 42.6293 196.814 43.6373 195.843 44.272C194.891 44.9067 193.697 45.224 192.259 45.224C190.934 45.224 189.786 44.8973 188.815 44.244C187.845 43.572 187.098 42.6853 186.575 41.584C186.071 40.464 185.819 39.2507 185.819 37.944C185.819 36.6187 186.071 35.4053 186.575 34.304C187.098 33.184 187.845 32.2973 188.815 31.644C189.786 30.9907 190.934 30.664 192.259 30.664C193.547 30.664 194.667 30.9627 195.619 31.56C196.571 32.1573 197.299 32.96 197.803 33.968C198.307 34.976 198.559 36.096 198.559 37.328V38.308ZM196.207 36.32C196.039 35.2187 195.619 34.3507 194.947 33.716C194.275 33.0627 193.379 32.736 192.259 32.736C191.289 32.736 190.449 33.044 189.739 33.66C189.03 34.276 188.554 35.1627 188.311 36.32H196.207Z" fill="black"/>
<path d="M71.7725 9.26953C71.7725 8.51302 71.8545 7.82715 72.0186 7.21191C72.1872 6.59668 72.4401 6.07259 72.7773 5.63965C73.1146 5.20215 73.5384 4.86491 74.0488 4.62793C74.5638 4.39095 75.1676 4.27246 75.8604 4.27246C76.3434 4.27246 76.7946 4.3431 77.2139 4.48438C77.6331 4.62109 77.9977 4.82389 78.3076 5.09277C78.6175 5.3571 78.8659 5.67839 79.0527 6.05664C79.2396 6.4349 79.3467 6.85645 79.374 7.32129H77.5488C77.5033 6.81543 77.3232 6.43717 77.0088 6.18652C76.6989 5.93587 76.2728 5.81055 75.7305 5.81055C75.4434 5.81055 75.1745 5.8584 74.9238 5.9541C74.6777 6.04525 74.4658 6.17513 74.2881 6.34375C74.1104 6.51237 73.9714 6.71745 73.8711 6.95898C73.7754 7.20052 73.7275 7.47168 73.7275 7.77246V10.6846C73.7275 10.9717 73.7799 11.2383 73.8848 11.4844C73.9941 11.7259 74.1423 11.9355 74.3291 12.1133C74.516 12.2865 74.7324 12.4232 74.9785 12.5234C75.2292 12.6191 75.498 12.667 75.7852 12.667C76.3548 12.667 76.7946 12.5439 77.1045 12.2979C77.4144 12.0518 77.6149 11.6484 77.7061 11.0879H79.5244C79.4515 11.6393 79.3079 12.111 79.0938 12.5029C78.8796 12.8949 78.6084 13.2161 78.2803 13.4668C77.9521 13.7174 77.5739 13.9043 77.1455 14.0273C76.7171 14.1504 76.2546 14.2119 75.7578 14.2119C75.0651 14.2119 74.4704 14.0889 73.9736 13.8428C73.4769 13.5921 73.0645 13.248 72.7363 12.8105C72.4082 12.373 72.1644 11.8535 72.0049 11.252C71.8499 10.6458 71.7725 9.98503 71.7725 9.26953ZM80.7754 11.9697C80.7754 11.391 80.9759 10.8919 81.377 10.4727C81.778 10.0534 82.3568 9.80957 83.1133 9.74121L85.0889 9.57715V9.1123C85.0889 8.73861 84.9886 8.46973 84.7881 8.30566C84.5876 8.13704 84.3141 8.05273 83.9678 8.05273C83.6123 8.05273 83.3229 8.13932 83.0996 8.3125C82.8763 8.48112 82.7646 8.72949 82.7646 9.05762H81.0146C81.0238 8.66569 81.1081 8.32389 81.2676 8.03223C81.4271 7.736 81.639 7.48991 81.9033 7.29395C82.1676 7.09798 82.4821 6.94987 82.8467 6.84961C83.2113 6.74479 83.6077 6.69238 84.0361 6.69238C84.8929 6.69238 85.5697 6.89974 86.0664 7.31445C86.5632 7.72917 86.8115 8.33757 86.8115 9.13965V12.6396H88.0146V14H85.2598L85.2461 12.8926H85.1846C84.9795 13.2845 84.7061 13.5967 84.3643 13.8291C84.027 14.057 83.5827 14.1709 83.0312 14.1709C82.7031 14.1709 82.4023 14.1162 82.1289 14.0068C81.86 13.8975 81.623 13.7448 81.418 13.5488C81.2129 13.3529 81.0534 13.1227 80.9395 12.8584C80.8301 12.5941 80.7754 12.2979 80.7754 11.9697ZM82.5938 12.168C82.5938 12.3822 82.6917 12.5439 82.8877 12.6533C83.0837 12.7581 83.3366 12.8105 83.6465 12.8105C84.0931 12.8105 84.444 12.6533 84.6992 12.3389C84.959 12.0199 85.0889 11.6348 85.0889 11.1836V10.9033L82.9902 11.0879C82.7305 11.1152 82.5983 11.2702 82.5938 11.5527V12.168ZM89.2383 14V4.47754H90.9883V14H89.2383ZM93.1484 14V4.47754H94.8984V14H93.1484ZM96.751 9.24219C96.751 7.61068 97.1178 6.37565 97.8516 5.53711C98.5898 4.69401 99.6357 4.27246 100.989 4.27246C102.343 4.27246 103.389 4.69401 104.127 5.53711C104.865 6.37565 105.234 7.61068 105.234 9.24219C105.234 10.8737 104.865 12.111 104.127 12.9541C103.389 13.7926 102.343 14.2119 100.989 14.2119C99.6357 14.2119 98.5898 13.7926 97.8516 12.9541C97.1178 12.111 96.751 10.8737 96.751 9.24219ZM98.7061 10.7119C98.7061 11.0309 98.7676 11.3112 98.8906 11.5527C99.0137 11.7943 99.1777 11.9993 99.3828 12.168C99.5879 12.3366 99.8271 12.4619 100.101 12.5439C100.374 12.626 100.67 12.667 100.989 12.667C101.308 12.667 101.604 12.626 101.878 12.5439C102.156 12.4619 102.397 12.3366 102.603 12.168C102.808 11.9993 102.969 11.7943 103.088 11.5527C103.211 11.3066 103.272 11.0264 103.272 10.7119V7.77246C103.272 7.45345 103.211 7.17318 103.088 6.93164C102.969 6.6901 102.808 6.48503 102.603 6.31641C102.397 6.14779 102.156 6.02246 101.878 5.94043C101.604 5.85384 101.308 5.81055 100.989 5.81055C100.67 5.81055 100.374 5.85384 100.101 5.94043C99.8271 6.02246 99.5879 6.14779 99.3828 6.31641C99.1777 6.48503 99.0137 6.6901 98.8906 6.93164C98.7676 7.17318 98.7061 7.45345 98.7061 7.77246V10.7119ZM107.08 14V6.86328H108.83V7.89551C109.044 7.5127 109.322 7.21647 109.664 7.00684C110.01 6.7972 110.437 6.69238 110.942 6.69238C111.744 6.69238 112.335 6.92708 112.713 7.39648C113.091 7.86133 113.28 8.50391 113.28 9.32422V14H111.53V9.44727C111.53 9.02799 111.441 8.70215 111.264 8.46973C111.086 8.2373 110.787 8.12109 110.368 8.12109C109.885 8.12109 109.507 8.28288 109.233 8.60645C108.965 8.92546 108.83 9.34701 108.83 9.87109V14H107.08ZM115.01 10.418C115.01 9.85742 115.087 9.34928 115.242 8.89355C115.397 8.43327 115.614 8.04134 115.892 7.71777C116.174 7.38965 116.514 7.13672 116.91 6.95898C117.307 6.78125 117.746 6.69238 118.229 6.69238C118.713 6.69238 119.15 6.77897 119.542 6.95215C119.938 7.12533 120.276 7.36458 120.554 7.66992C120.836 7.9707 121.05 8.33073 121.196 8.75C121.347 9.16927 121.422 9.62272 121.422 10.1104V10.9922H116.835V11.4639C116.835 11.8923 116.974 12.2249 117.252 12.4619C117.535 12.6943 117.867 12.8105 118.25 12.8105C118.633 12.8105 118.945 12.7103 119.187 12.5098C119.428 12.3092 119.572 12.0267 119.617 11.6621H121.367C121.253 12.4551 120.918 13.0726 120.362 13.5146C119.811 13.9521 119.1 14.1709 118.229 14.1709C117.724 14.1709 117.27 14.0798 116.869 13.8975C116.473 13.7152 116.135 13.46 115.857 13.1318C115.584 12.8037 115.374 12.4095 115.229 11.9492C115.083 11.4889 115.01 10.9785 115.01 10.418ZM116.835 9.63184H119.631V9.37891C119.631 8.98698 119.499 8.66797 119.234 8.42188C118.97 8.17578 118.635 8.05273 118.229 8.05273C117.828 8.05273 117.496 8.17578 117.231 8.42188C116.967 8.66797 116.835 8.98698 116.835 9.37891V9.63184Z" fill="black"/>
<defs>
<linearGradient id="paint0_linear" x1="37.5" y1="25" x2="37.5" y2="50" gradientUnits="userSpaceOnUse">
<stop stop-color="#9BA3A2"/>
<stop offset="1" stop-color="#626A69"/>
</linearGradient>
</defs>
</svg>
