<svg width="299" height="124" viewBox="0 0 299 124" fill="none" xmlns="http://www.w3.org/2000/svg">
<path fill-rule="evenodd" clip-rule="evenodd" d="M262 55.4761C261.448 55.4761 261 55.9238 261 56.4761V66.8567C261 67.409 261.448 67.8567 262 67.8567H297.142C297.694 67.8567 298.142 67.409 298.142 66.8567V56.4761C298.142 55.9238 297.694 55.4761 297.142 55.4761H262ZM291.957 64.7618C293.666 64.7618 295.052 63.376 295.052 61.6666C295.052 59.9572 293.666 58.5714 291.957 58.5714C290.247 58.5714 288.862 59.9572 288.862 61.6666C288.862 63.376 290.247 64.7618 291.957 64.7618ZM264.097 58.5714H267.192V64.7618H264.097V58.5714ZM273.382 58.5714H270.287V64.7618H273.382V58.5714Z" fill="white"/>
<path fill-rule="evenodd" clip-rule="evenodd" d="M262 40C261.448 40 261 40.4477 261 41V51.3806C261 51.9329 261.448 52.3806 262 52.3806H297.142C297.694 52.3806 298.142 51.9329 298.142 51.3806V41C298.142 40.4477 297.694 40 297.142 40H262ZM291.957 49.2856C293.666 49.2856 295.052 47.8998 295.052 46.1904C295.052 44.481 293.666 43.0953 291.957 43.0953C290.247 43.0953 288.862 44.481 288.862 46.1904C288.862 47.8998 290.247 49.2856 291.957 49.2856ZM264.097 43.0953H267.192V49.2856H264.097V43.0953ZM273.382 43.0953H270.287V49.2856H273.382V43.0953Z" fill="white"/>
<path fill-rule="evenodd" clip-rule="evenodd" d="M262 70.9519C261.448 70.9519 261 71.3996 261 71.9519V82.3325C261 82.8848 261.448 83.3325 262 83.3325H297.142C297.694 83.3325 298.142 82.8848 298.142 82.3325V71.9519C298.142 71.3996 297.694 70.9519 297.142 70.9519H262ZM291.957 80.2373C293.666 80.2373 295.052 78.8515 295.052 77.1421C295.052 75.4327 293.666 74.047 291.957 74.047C290.247 74.047 288.862 75.4327 288.862 77.1421C288.862 78.8515 290.247 80.2373 291.957 80.2373ZM264.097 74.047H267.192V80.2373H264.097V74.047ZM273.382 74.047H270.287V80.2373H273.382V74.047Z" fill="white"/>
<path d="M111.458 51.5312H114.315C114.43 52.4121 114.767 53.0423 115.325 53.4219C115.884 53.7943 116.604 53.9805 117.484 53.9805C118.322 53.9805 119.028 53.8086 119.601 53.4648C120.174 53.1139 120.46 52.609 120.46 51.9502C120.46 51.4202 120.295 50.9977 119.966 50.6826C119.636 50.3675 119.132 50.124 118.451 49.9521L115.529 49.1787C114.298 48.8564 113.384 48.3301 112.79 47.5996C112.196 46.862 111.898 45.9453 111.898 44.8496C111.898 44.248 112.027 43.693 112.285 43.1846C112.543 42.6761 112.905 42.2393 113.37 41.874C113.843 41.5088 114.416 41.2259 115.089 41.0254C115.762 40.8177 116.518 40.7139 117.355 40.7139C118.115 40.7139 118.82 40.8034 119.472 40.9824C120.131 41.1543 120.7 41.4229 121.18 41.7881C121.667 42.1533 122.064 42.6224 122.372 43.1953C122.68 43.7682 122.87 44.4414 122.941 45.2148H120.084C120.041 44.8066 119.934 44.4629 119.762 44.1836C119.597 43.9043 119.389 43.6823 119.139 43.5176C118.888 43.3457 118.605 43.2275 118.29 43.1631C117.975 43.0986 117.649 43.0664 117.312 43.0664C116.518 43.0664 115.891 43.224 115.433 43.5391C114.981 43.8542 114.756 44.2839 114.756 44.8281C114.756 45.401 114.931 45.8379 115.282 46.1387C115.64 46.4323 116.177 46.6758 116.894 46.8691L119.439 47.5352C120.714 47.8717 121.677 48.3802 122.329 49.0605C122.988 49.7409 123.317 50.6969 123.317 51.9287C123.317 52.6162 123.178 53.2321 122.898 53.7764C122.619 54.3206 122.222 54.7826 121.706 55.1621C121.198 55.5417 120.585 55.8317 119.869 56.0322C119.16 56.2327 118.38 56.333 117.527 56.333C116.689 56.333 115.916 56.2435 115.207 56.0645C114.498 55.8926 113.875 55.6169 113.338 55.2373C112.801 54.8506 112.368 54.3529 112.038 53.7441C111.709 53.1354 111.515 52.3978 111.458 51.5312ZM126.175 56V41.0361H129.032V56H126.175ZM132.728 56V41.0361H138.818C140.415 41.0361 141.597 41.4229 142.363 42.1963C143.13 42.9626 143.513 44.1764 143.513 45.8379C143.513 47.4206 143.087 48.6165 142.234 49.4258C141.382 50.2279 140.251 50.6289 138.84 50.6289H135.585V56H132.728ZM135.585 48.2119H139.13C139.631 48.2119 139.989 48.0866 140.204 47.8359C140.426 47.5853 140.537 47.2129 140.537 46.7188V44.8711C140.537 44.3698 140.433 44.0117 140.226 43.7969C140.025 43.5749 139.66 43.4639 139.13 43.4639H135.585V48.2119ZM145.887 51.1553V48.9209H152.053V51.1553H145.887ZM154.824 48.5664C154.824 47.3776 154.953 46.2998 155.211 45.333C155.476 44.3662 155.873 43.5426 156.403 42.8623C156.933 42.1748 157.599 41.6449 158.401 41.2725C159.211 40.9001 160.16 40.7139 161.248 40.7139C162.007 40.7139 162.716 40.8249 163.375 41.0469C164.034 41.2617 164.607 41.5804 165.094 42.0029C165.581 42.4183 165.971 42.9232 166.265 43.5176C166.558 44.112 166.727 44.7744 166.77 45.5049H163.901C163.83 44.71 163.547 44.1156 163.053 43.7217C162.566 43.3278 161.896 43.1309 161.044 43.1309C160.593 43.1309 160.17 43.2061 159.776 43.3564C159.39 43.4997 159.057 43.7038 158.777 43.9688C158.498 44.2337 158.28 44.556 158.122 44.9355C157.972 45.3151 157.896 45.7412 157.896 46.2139V50.79C157.896 51.2412 157.979 51.6602 158.144 52.0469C158.315 52.4264 158.548 52.7559 158.842 53.0352C159.135 53.3073 159.476 53.5221 159.862 53.6797C160.256 53.8301 160.679 53.9053 161.13 53.9053C162.025 53.9053 162.716 53.7119 163.203 53.3252C163.69 52.9385 164.005 52.3047 164.148 51.4238H167.006C166.891 52.2904 166.666 53.0316 166.329 53.6475C165.993 54.2633 165.566 54.7682 165.051 55.1621C164.535 55.556 163.941 55.8496 163.268 56.043C162.594 56.2363 161.868 56.333 161.087 56.333C159.998 56.333 159.064 56.1396 158.283 55.7529C157.503 55.359 156.854 54.8184 156.339 54.1309C155.823 53.4434 155.44 52.627 155.189 51.6816C154.946 50.7292 154.824 49.6908 154.824 48.5664ZM168.972 52.8096C168.972 51.9001 169.287 51.1159 169.917 50.457C170.547 49.7982 171.457 49.415 172.646 49.3076L175.75 49.0498V48.3193C175.75 47.7321 175.592 47.3096 175.277 47.0518C174.962 46.7868 174.533 46.6543 173.988 46.6543C173.43 46.6543 172.975 46.7904 172.624 47.0625C172.273 47.3275 172.098 47.7178 172.098 48.2334H169.348C169.362 47.6175 169.494 47.0804 169.745 46.6221C169.996 46.1566 170.329 45.7699 170.744 45.4619C171.16 45.154 171.654 44.9212 172.227 44.7637C172.799 44.599 173.423 44.5166 174.096 44.5166C175.442 44.5166 176.506 44.8424 177.286 45.4941C178.067 46.1458 178.457 47.1019 178.457 48.3623V53.8623H180.348V56H176.019L175.997 54.2598H175.9C175.578 54.8757 175.148 55.3662 174.611 55.7314C174.081 56.0895 173.383 56.2686 172.517 56.2686C172.001 56.2686 171.528 56.1826 171.099 56.0107C170.676 55.8389 170.304 55.599 169.981 55.291C169.659 54.9831 169.409 54.6214 169.229 54.2061C169.058 53.7907 168.972 53.3252 168.972 52.8096ZM171.829 53.1211C171.829 53.4577 171.983 53.7119 172.291 53.8838C172.599 54.0485 172.996 54.1309 173.483 54.1309C174.185 54.1309 174.737 53.8838 175.138 53.3896C175.546 52.8883 175.75 52.2832 175.75 51.5742V51.1338L172.452 51.4238C172.044 51.4668 171.836 51.7103 171.829 52.1543V53.1211ZM182.271 56V44.7852H188.533V46.9336H185.021V56H182.271ZM190.778 56V44.7852H197.041V46.9336H193.528V56H190.778ZM199.243 43.4854V41.0361H202.079V43.4854H199.243ZM199.286 56V44.7852H202.036V56H199.286ZM204.851 50.3711C204.851 49.4902 204.972 48.6917 205.216 47.9756C205.459 47.2523 205.799 46.6364 206.236 46.1279C206.68 45.6123 207.214 45.2148 207.837 44.9355C208.46 44.6562 209.151 44.5166 209.91 44.5166C210.669 44.5166 211.357 44.6527 211.973 44.9248C212.596 45.1969 213.126 45.5729 213.562 46.0527C214.007 46.5254 214.343 47.0911 214.572 47.75C214.809 48.4089 214.927 49.1214 214.927 49.8877V51.2734H207.719V52.0146C207.719 52.6878 207.937 53.2106 208.374 53.583C208.818 53.9482 209.341 54.1309 209.942 54.1309C210.544 54.1309 211.035 53.9733 211.414 53.6582C211.794 53.3431 212.019 52.8991 212.091 52.3262H214.841C214.662 53.5723 214.135 54.5426 213.262 55.2373C212.395 55.9248 211.278 56.2686 209.91 56.2686C209.115 56.2686 208.403 56.1253 207.772 55.8389C207.149 55.5524 206.619 55.1514 206.183 54.6357C205.753 54.1201 205.424 53.5007 205.194 52.7773C204.965 52.054 204.851 51.252 204.851 50.3711ZM207.719 49.1357H212.112V48.7383C212.112 48.1224 211.905 47.6211 211.489 47.2344C211.074 46.8477 210.548 46.6543 209.91 46.6543C209.28 46.6543 208.757 46.8477 208.342 47.2344C207.926 47.6211 207.719 48.1224 207.719 48.7383V49.1357ZM217.677 56V44.7852H223.939V46.9336H220.427V56H217.677ZM115.787 82V67.0361H118.645V82H115.787ZM122.189 82V67.0361H124.939V72.4072C125.276 71.8057 125.713 71.3402 126.25 71.0107C126.794 70.6813 127.464 70.5166 128.259 70.5166C129.519 70.5166 130.447 70.8854 131.041 71.623C131.635 72.3535 131.933 73.3633 131.933 74.6523V82H129.183V74.8457C129.183 74.1868 129.043 73.6748 128.764 73.3096C128.484 72.9443 128.015 72.7617 127.356 72.7617C126.597 72.7617 126.003 73.016 125.573 73.5244C125.151 74.0257 124.939 74.6882 124.939 75.5117V82H122.189ZM135.23 82V70.7852H141.493V72.9336H137.98V82H135.23ZM143.158 76.3711C143.158 75.4902 143.28 74.6917 143.523 73.9756C143.767 73.2523 144.107 72.6364 144.544 72.1279C144.988 71.6123 145.521 71.2148 146.145 70.9355C146.768 70.6562 147.459 70.5166 148.218 70.5166C148.977 70.5166 149.664 70.6527 150.28 70.9248C150.903 71.1969 151.433 71.5729 151.87 72.0527C152.314 72.5254 152.651 73.0911 152.88 73.75C153.116 74.4089 153.234 75.1214 153.234 75.8877V77.2734H146.026V78.0146C146.026 78.6878 146.245 79.2106 146.682 79.583C147.126 79.9482 147.648 80.1309 148.25 80.1309C148.852 80.1309 149.342 79.9733 149.722 79.6582C150.101 79.3431 150.327 78.8991 150.398 78.3262H153.148C152.969 79.5723 152.443 80.5426 151.569 81.2373C150.703 81.9248 149.586 82.2686 148.218 82.2686C147.423 82.2686 146.71 82.1253 146.08 81.8389C145.457 81.5524 144.927 81.1514 144.49 80.6357C144.061 80.1201 143.731 79.5007 143.502 78.7773C143.273 78.054 143.158 77.252 143.158 76.3711ZM146.026 75.1357H150.42V74.7383C150.42 74.1224 150.212 73.6211 149.797 73.2344C149.382 72.8477 148.855 72.6543 148.218 72.6543C147.588 72.6543 147.065 72.8477 146.649 73.2344C146.234 73.6211 146.026 74.1224 146.026 74.7383V75.1357ZM155.984 82V70.7852H162.247V72.9336H158.734V82H155.984ZM168.961 67.0361H172.151L174.461 78.917H174.547L176.792 67.0361H180.681L182.926 78.917H183.012L185.364 67.0361H188.49L184.881 82H180.992L178.769 70.2695H178.683L176.438 82H172.592L168.961 67.0361ZM190.273 78.8096C190.273 77.9001 190.589 77.1159 191.219 76.457C191.849 75.7982 192.758 75.415 193.947 75.3076L197.052 75.0498V74.3193C197.052 73.7321 196.894 73.3096 196.579 73.0518C196.264 72.7868 195.834 72.6543 195.29 72.6543C194.731 72.6543 194.277 72.7904 193.926 73.0625C193.575 73.3275 193.399 73.7178 193.399 74.2334H190.649C190.664 73.6175 190.796 73.0804 191.047 72.6221C191.298 72.1566 191.631 71.7699 192.046 71.4619C192.461 71.154 192.955 70.9212 193.528 70.7637C194.101 70.599 194.724 70.5166 195.397 70.5166C196.744 70.5166 197.807 70.8424 198.588 71.4941C199.368 72.1458 199.759 73.1019 199.759 74.3623V79.8623H201.649V82H197.32L197.299 80.2598H197.202C196.88 80.8757 196.45 81.3662 195.913 81.7314C195.383 82.0895 194.685 82.2686 193.818 82.2686C193.303 82.2686 192.83 82.1826 192.4 82.0107C191.978 81.8389 191.605 81.599 191.283 81.291C190.961 80.9831 190.71 80.6214 190.531 80.2061C190.359 79.7907 190.273 79.3252 190.273 78.8096ZM193.131 79.1211C193.131 79.4577 193.285 79.7119 193.593 79.8838C193.901 80.0485 194.298 80.1309 194.785 80.1309C195.487 80.1309 196.038 79.8838 196.439 79.3896C196.848 78.8883 197.052 78.2832 197.052 77.5742V77.1338L193.754 77.4238C193.346 77.4668 193.138 77.7103 193.131 78.1543V79.1211ZM203.572 82V67.0361H206.322V72.4072C206.659 71.8057 207.096 71.3402 207.633 71.0107C208.177 70.6813 208.847 70.5166 209.642 70.5166C210.902 70.5166 211.829 70.8854 212.424 71.623C213.018 72.3535 213.315 73.3633 213.315 74.6523V82H210.565V74.8457C210.565 74.1868 210.426 73.6748 210.146 73.3096C209.867 72.9443 209.398 72.7617 208.739 72.7617C207.98 72.7617 207.386 73.016 206.956 73.5244C206.534 74.0257 206.322 74.6882 206.322 75.5117V82H203.572ZM216.613 82V67.0361H219.363V82H216.613Z" fill="white"/>
<g filter="url(#filter0_dd)">
<circle cx="53" cy="61" r="33" fill="white"/>
</g>
<path fill-rule="evenodd" clip-rule="evenodd" d="M53 81.625C41.6771 81.625 32.375 72.4251 32.375 61.0002C32.375 49.6772 41.6771 40.3754 53.0012 40.3754C54.6052 40.3651 56.2032 40.5691 57.7518 40.982V52.5076C56.3366 51.8003 54.7199 51.2944 53 51.2944C47.6414 51.2944 43.295 55.6414 43.295 61.0002C43.295 65.5021 46.3624 69.2899 50.5206 70.3861C50.4353 70.4739 50.3514 70.5655 50.2689 70.6608C48.6165 72.572 48.6669 74.8754 49.2394 76.48C49.7793 77.9932 50.8768 79.2961 52.2351 80.0864L52.4017 80.1834L55.235 81.4951C54.4967 81.5816 53.7484 81.625 53 81.625ZM73.3442 64.4057C73.5288 63.2975 73.625 62.1598 73.625 61.0002C73.625 53.1147 69.2767 46.2397 62.7062 42.8025V42.8018H62.705L62.7062 42.8025V61.894C63.3391 61.619 64.0381 61.3696 64.7828 61.2003C66.2774 60.8605 68.1197 60.8094 69.989 61.6511C71.3449 62.2617 72.4502 63.2229 73.3442 64.4057Z" fill="#86EC16"/>
<path d="M54.9521 61.293C53.1557 62.3643 54.3657 64.5293 54.7115 65.1478L59.8974 74.4257L56.862 73.1432C55.5943 72.6621 54.2726 72.337 53.3894 73.3585C52.5062 74.38 53.2598 75.9098 54.3098 76.5208L62.4843 80.3052C63.9622 80.8797 64.9077 82.5712 67.6756 80.9206L71.3111 78.7526C74.9467 76.5845 73.5091 73.1121 72.2895 70.7468L70.6506 67.8148C67.7969 62.7094 63.5471 66.0639 60.8974 67.6441L58.3044 63.0052C57.9587 62.3866 56.7486 60.2217 54.9521 61.293Z" fill="#C4C4C4"/>
<path fill-rule="evenodd" clip-rule="evenodd" d="M64 4C63.3085 4 62.6376 4.07762 61.9945 4.22381C60.9175 4.46868 59.8458 3.79404 59.6009 2.71695C59.3561 1.63987 60.0307 0.56821 61.1078 0.323339C62.0398 0.111456 63.0081 0 64 0H65.9619C67.0665 0 67.9619 0.89543 67.9619 2C67.9619 3.10457 67.0665 4 65.9619 4H64ZM73.7714 2C73.7714 0.89543 74.6669 0 75.7714 0H79.6952C80.7998 0 81.6952 0.89543 81.6952 2C81.6952 3.10457 80.7998 4 79.6952 4H75.7714C74.6669 4 73.7714 3.10457 73.7714 2ZM87.5048 2C87.5048 0.89543 88.4002 0 89.5048 0H93.4286C94.5331 0 95.4286 0.89543 95.4286 2C95.4286 3.10457 94.5331 4 93.4286 4H89.5048C88.4002 4 87.5048 3.10457 87.5048 2ZM101.238 2C101.238 0.89543 102.134 0 103.238 0H107.162C108.266 0 109.162 0.89543 109.162 2C109.162 3.10457 108.266 4 107.162 4H103.238C102.134 4 101.238 3.10457 101.238 2ZM114.971 2C114.971 0.89543 115.867 0 116.971 0H120.895C122 0 122.895 0.89543 122.895 2C122.895 3.10457 122 4 120.895 4H116.971C115.867 4 114.971 3.10457 114.971 2ZM128.705 2C128.705 0.89543 129.6 0 130.705 0H134.629C135.733 0 136.629 0.89543 136.629 2C136.629 3.10457 135.733 4 134.629 4H130.705C129.6 4 128.705 3.10457 128.705 2ZM142.438 2C142.438 0.89543 143.334 0 144.438 0H148.362C149.466 0 150.362 0.89543 150.362 2C150.362 3.10457 149.466 4 148.362 4H144.438C143.334 4 142.438 3.10457 142.438 2ZM156.171 2C156.171 0.89543 157.067 0 158.171 0H162.095C163.2 0 164.095 0.89543 164.095 2C164.095 3.10457 163.2 4 162.095 4H158.171C157.067 4 156.171 3.10457 156.171 2ZM169.905 2C169.905 0.89543 170.8 0 171.905 0H175.829C176.933 0 177.829 0.89543 177.829 2C177.829 3.10457 176.933 4 175.829 4H171.905C170.8 4 169.905 3.10457 169.905 2ZM183.638 2C183.638 0.89543 184.534 0 185.638 0H189.562C190.666 0 191.562 0.89543 191.562 2C191.562 3.10457 190.666 4 189.562 4H185.638C184.534 4 183.638 3.10457 183.638 2ZM197.371 2C197.371 0.89543 198.267 0 199.371 0H203.295C204.4 0 205.295 0.89543 205.295 2C205.295 3.10457 204.4 4 203.295 4H199.371C198.267 4 197.371 3.10457 197.371 2ZM211.105 2C211.105 0.89543 212 0 213.105 0H217.029C218.133 0 219.029 0.89543 219.029 2C219.029 3.10457 218.133 4 217.029 4H213.105C212 4 211.105 3.10457 211.105 2ZM224.838 2C224.838 0.89543 225.734 0 226.838 0H230.762C231.867 0 232.762 0.89543 232.762 2C232.762 3.10457 231.867 4 230.762 4H226.838C225.734 4 224.838 3.10457 224.838 2ZM238.571 2C238.571 0.89543 239.467 0 240.571 0H244.495C245.6 0 246.495 0.89543 246.495 2C246.495 3.10457 245.6 4 244.495 4H240.571C239.467 4 238.571 3.10457 238.571 2ZM252.305 2C252.305 0.89543 253.2 0 254.305 0H258.229C259.333 0 260.229 0.89543 260.229 2C260.229 3.10457 259.333 4 258.229 4H254.305C253.2 4 252.305 3.10457 252.305 2ZM266.038 2C266.038 0.89543 266.934 0 268.038 0H270C270.992 0 271.96 0.111456 272.892 0.32334C273.969 0.568211 274.644 1.63987 274.399 2.71695C274.154 3.79404 273.083 4.46868 272.005 4.22381C271.362 4.07762 270.692 4 270 4H268.038C266.934 4 266.038 3.10457 266.038 2ZM53.717 8.60092C54.794 8.84579 55.4687 9.91745 55.2238 10.9945C55.0776 11.6376 55 12.3085 55 13V15C55 16.1046 54.1046 17 53 17C51.8954 17 51 16.1046 51 15V13C51 12.0081 51.1115 11.0398 51.3233 10.1078C51.5682 9.03069 52.6399 8.35605 53.717 8.60092ZM280.283 8.60092C281.36 8.35605 282.432 9.03069 282.677 10.1078C282.889 11.0398 283 12.0081 283 13V15C283 16.1046 282.105 17 281 17C279.895 17 279 16.1046 279 15V13C279 12.3085 278.922 11.6376 278.776 10.9945C278.531 9.91745 279.206 8.84579 280.283 8.60092ZM281 23C282.105 23 283 23.8954 283 25V29C283 30.1046 282.105 31 281 31C279.895 31 279 30.1046 279 29V25C279 23.8954 279.895 23 281 23ZM281 93C282.105 93 283 93.8954 283 95V99C283 100.105 282.105 101 281 101C279.895 101 279 100.105 279 99V95C279 93.8954 279.895 93 281 93ZM53 107C54.1046 107 55 107.895 55 109V111C55 111.692 55.0776 112.362 55.2238 113.005C55.4687 114.083 54.794 115.154 53.717 115.399C52.6399 115.644 51.5682 114.969 51.3233 113.892C51.1115 112.96 51 111.992 51 111V109C51 107.895 51.8954 107 53 107ZM281 107C282.105 107 283 107.895 283 109V111C283 111.992 282.889 112.96 282.677 113.892C282.432 114.969 281.36 115.644 280.283 115.399C279.206 115.154 278.531 114.083 278.776 113.005C278.922 112.362 279 111.692 279 111V109C279 107.895 279.895 107 281 107ZM59.6009 121.283C59.8458 120.206 60.9174 119.531 61.9945 119.776C62.6376 119.922 63.3085 120 64 120H65.9619C67.0664 120 67.9619 120.895 67.9619 122C67.9619 123.105 67.0664 124 65.9619 124H64C63.0081 124 62.0398 123.889 61.1078 123.677C60.0307 123.432 59.356 122.36 59.6009 121.283ZM274.399 121.283C274.644 122.36 273.969 123.432 272.892 123.677C271.96 123.889 270.992 124 270 124H268.038C266.934 124 266.038 123.105 266.038 122C266.038 120.895 266.934 120 268.038 120H270C270.691 120 271.362 119.922 272.005 119.776C273.083 119.531 274.154 120.206 274.399 121.283ZM73.7714 122C73.7714 120.895 74.6668 120 75.7714 120H79.6952C80.7998 120 81.6952 120.895 81.6952 122C81.6952 123.105 80.7998 124 79.6952 124H75.7714C74.6668 124 73.7714 123.105 73.7714 122ZM87.5047 122C87.5047 120.895 88.4002 120 89.5047 120H93.4285C94.5331 120 95.4285 120.895 95.4285 122C95.4285 123.105 94.5331 124 93.4285 124H89.5047C88.4002 124 87.5047 123.105 87.5047 122ZM101.238 122C101.238 120.895 102.133 120 103.238 120H107.162C108.266 120 109.162 120.895 109.162 122C109.162 123.105 108.266 124 107.162 124H103.238C102.133 124 101.238 123.105 101.238 122ZM114.971 122C114.971 120.895 115.867 120 116.971 120H120.895C122 120 122.895 120.895 122.895 122C122.895 123.105 122 124 120.895 124H116.971C115.867 124 114.971 123.105 114.971 122ZM128.705 122C128.705 120.895 129.6 120 130.705 120H134.629C135.733 120 136.629 120.895 136.629 122C136.629 123.105 135.733 124 134.629 124H130.705C129.6 124 128.705 123.105 128.705 122ZM142.438 122C142.438 120.895 143.334 120 144.438 120H148.362C149.466 120 150.362 120.895 150.362 122C150.362 123.105 149.466 124 148.362 124H144.438C143.334 124 142.438 123.105 142.438 122ZM156.171 122C156.171 120.895 157.067 120 158.171 120H162.095C163.2 120 164.095 120.895 164.095 122C164.095 123.105 163.2 124 162.095 124H158.171C157.067 124 156.171 123.105 156.171 122ZM169.905 122C169.905 120.895 170.8 120 171.905 120H175.829C176.933 120 177.829 120.895 177.829 122C177.829 123.105 176.933 124 175.829 124H171.905C170.8 124 169.905 123.105 169.905 122ZM183.638 122C183.638 120.895 184.534 120 185.638 120H189.562C190.666 120 191.562 120.895 191.562 122C191.562 123.105 190.666 124 189.562 124H185.638C184.534 124 183.638 123.105 183.638 122ZM197.371 122C197.371 120.895 198.267 120 199.371 120H203.295C204.4 120 205.295 120.895 205.295 122C205.295 123.105 204.4 124 203.295 124H199.371C198.267 124 197.371 123.105 197.371 122ZM211.105 122C211.105 120.895 212 120 213.105 120H217.029C218.133 120 219.029 120.895 219.029 122C219.029 123.105 218.133 124 217.029 124H213.105C212 124 211.105 123.105 211.105 122ZM224.838 122C224.838 120.895 225.734 120 226.838 120H230.762C231.866 120 232.762 120.895 232.762 122C232.762 123.105 231.866 124 230.762 124H226.838C225.734 124 224.838 123.105 224.838 122ZM238.571 122C238.571 120.895 239.467 120 240.571 120H244.495C245.6 120 246.495 120.895 246.495 122C246.495 123.105 245.6 124 244.495 124H240.571C239.467 124 238.571 123.105 238.571 122ZM252.305 122C252.305 120.895 253.2 120 254.305 120H258.229C259.333 120 260.229 120.895 260.229 122C260.229 123.105 259.333 124 258.229 124H254.305C253.2 124 252.305 123.105 252.305 122Z" fill="#86EC16"/>
<defs>
<filter id="filter0_dd" x="0" y="12" width="106" height="106" filterUnits="userSpaceOnUse" color-interpolation-filters="sRGB">
<feFlood flood-opacity="0" result="BackgroundImageFix"/>
<feColorMatrix in="SourceAlpha" type="matrix" values="0 0 0 0 0 0 0 0 0 0 0 0 0 0 0 0 0 0 127 0"/>
<feOffset dy="4"/>
<feGaussianBlur stdDeviation="10"/>
<feColorMatrix type="matrix" values="0 0 0 0 0 0 0 0 0 0 0 0 0 0 0 0 0 0 0.05 0"/>
<feBlend mode="normal" in2="BackgroundImageFix" result="effect1_dropShadow"/>
<feColorMatrix in="SourceAlpha" type="matrix" values="0 0 0 0 0 0 0 0 0 0 0 0 0 0 0 0 0 0 127 0"/>
<feOffset dy="2"/>
<feGaussianBlur stdDeviation="4"/>
<feColorMatrix type="matrix" values="0 0 0 0 0 0 0 0 0 0 0 0 0 0 0 0 0 0 0.15 0"/>
<feBlend mode="normal" in2="effect1_dropShadow" result="effect2_dropShadow"/>
<feBlend mode="normal" in="SourceGraphic" in2="effect2_dropShadow" result="shape"/>
</filter>
</defs>
</svg>
