<svg width="330" height="52" viewBox="0 0 330 52" fill="none" xmlns="http://www.w3.org/2000/svg">
<g clip-path="url(#clip0)">
<path d="M85.5898 22.5684C84.331 21.2943 82.4922 20.6072 80.4593 20.6072C75.8123 20.6072 72.2288 24.5295 72.2288 29.5295C72.2288 34.5295 75.8111 38.4506 80.4593 38.4506C82.3957 38.4506 84.2357 37.6671 85.5898 36.2941V37.96H90.0439V21.0002H85.591V22.5684H85.5898ZM81.2334 34.1365C78.7158 34.1365 76.7793 32.0777 76.7793 29.4307C76.7793 26.7836 78.7158 24.7248 81.2334 24.7248C83.751 24.7248 85.6875 26.7836 85.6875 29.4307C85.6875 32.0777 83.751 34.1365 81.2334 34.1365ZM97.9838 13.9414H93.4333V37.9612H97.9838V13.9414ZM105.728 13.9414H101.179V37.9612H105.73V13.9414H105.728Z" fill="white"/>
<path d="M121.124 13.5495C114.347 13.5495 108.827 19.1377 108.827 26C108.827 32.8623 114.346 38.3528 121.124 38.3528C127.901 38.3528 133.42 32.7646 133.42 26C133.42 19.1365 127.901 13.5483 121.124 13.5483V13.5495ZM121.124 33.7446C116.865 33.7446 113.572 30.3141 113.572 25.9023C113.572 21.4906 116.864 18.0589 121.124 18.0589C125.385 18.0589 128.677 21.4894 128.677 25.9012C128.677 30.3129 125.385 33.7446 121.124 33.7446ZM145.621 20.5106C143.781 20.5106 142.232 21.1965 141.071 22.373V20.9024H136.519V37.9611H141.071V29.0388C141.071 26.4906 142.426 24.8235 144.459 24.8235C146.492 24.8235 147.654 26.0988 147.654 28.5494V37.9611H152.205V27.7647C152.205 23.353 149.687 20.5106 145.621 20.5106ZM163.532 20.5106C158.69 20.5106 155.01 24.3341 155.01 29.4317C155.01 34.627 158.593 38.3528 163.724 38.3528C167.016 38.3528 169.824 36.7846 171.276 33.9411C171.664 33.0587 171.761 32.2752 171.761 32.2752H167.404C166.533 33.5493 165.564 34.334 163.724 34.334C161.595 34.334 159.852 32.8635 159.464 30.9023H171.761V30.4117V29.4317C171.857 24.3329 168.373 20.5095 163.532 20.5095V20.5106ZM163.434 24.4318C165.37 24.4318 166.92 25.7059 167.307 27.4706H159.561C160.046 26 161.595 24.4318 163.434 24.4318Z" fill="white"/>
<path d="M59.7406 13.4509C52.9619 13.4509 47.4431 19.0391 47.4431 25.9026C47.4431 32.7649 52.9619 38.2554 59.7395 38.2554C64.29 38.2554 68.4535 35.8037 70.5841 31.7849L70.8735 31.1967H65.2582L65.1618 31.2943C63.7088 32.7649 61.87 33.6472 59.7395 33.6472C55.4795 33.6472 52.1866 30.2167 52.1866 25.8049C52.1866 21.3932 55.4795 17.9615 59.7395 17.9615C62.45 17.9615 64.8712 19.4321 66.2265 21.785L66.3241 21.9814H71.4547L71.2617 21.4909C69.5182 16.785 64.8712 13.4521 59.7395 13.4521L59.7406 13.4509Z" fill="white"/>
<path d="M0 26.0002C0 37.0789 8.90815 46 19.7516 46C21.301 46 22.8504 45.8035 24.3021 45.4118V34.2354C22.9469 35.0201 21.3975 35.4119 19.7516 35.4119C14.6199 35.4119 10.4576 31.1966 10.4576 26.0002C10.4576 20.8038 14.6199 16.5885 19.7516 16.5885C21.3986 16.5885 22.9469 17.0791 24.3021 17.765V6.58859C22.8191 6.18826 21.2888 5.99039 19.7528 6.00036C8.90816 6.00036 0 15.0203 0 26.0002ZM29.0468 8.35328V43.6471C35.2432 40.3142 39.5032 33.6472 39.5032 26.0002C39.5032 18.3532 35.3385 11.6862 29.0456 8.35328H29.0468Z" fill="white"/>
</g>
<line x1="214.976" y1="19.0711" x2="200.834" y2="33.2133" stroke="white" stroke-width="2"/>
<line x1="200.834" y1="19.071" x2="214.976" y2="33.2131" stroke="white" stroke-width="2"/>
<g clip-path="url(#clip1)">
<path d="M246.422 0.528816C245.865 0.793224 245.132 1.41017 244.81 1.85085C244.194 2.67345 244.194 3.02599 244.106 18.6847C244.047 33.8441 244.077 34.7548 244.575 35.9593C245.66 38.3684 243.11 38.1921 279.191 38.1921H311.168L311.227 44.861L311.315 51.5593L316.444 44.8904L321.573 38.1921H323.537C325.882 38.1921 327.641 37.5751 328.373 36.4881C328.872 35.7537 328.901 34.6373 328.901 19.1842C328.901 2.96724 328.901 2.67345 328.285 1.85085C327.963 1.41017 327.23 0.793224 326.673 0.528816C325.735 0.0293808 323.215 3.8147e-06 286.547 3.8147e-06C249.88 3.8147e-06 247.36 0.0293808 246.422 0.528816ZM267.291 8.57853C269.313 9.51865 271.804 11.9571 272.713 13.8667C275.41 19.4486 273.123 26.0881 267.554 28.8497C265.737 29.7605 265.415 29.8192 262.513 29.8192C259.787 29.8192 259.26 29.7311 257.735 29.026C255.713 28.0859 253.222 25.6475 252.313 23.7672C249.382 17.6859 252.401 10.4588 258.791 8.16724C261.106 7.34464 265.034 7.55029 267.291 8.57853ZM321.397 8.13786C321.163 8.40226 318.965 10.8113 316.532 13.4847C314.07 16.1582 312.047 18.4203 312.047 18.5379C312.047 18.626 314.216 21.1232 316.884 24.1198C319.522 27.087 321.691 29.6136 321.72 29.7311C321.72 29.878 320.313 29.9661 318.584 29.9661H315.418L312.604 26.7932C311.08 25.0599 308.765 22.4746 307.504 21.0644L305.218 18.4791L308.266 15.3944L311.315 12.339H306.83H302.375V9.9887V7.63842H312.077C321.104 7.63842 321.749 7.6678 321.397 8.13786ZM282.766 14.7774C285.697 18.3616 288.189 21.3288 288.306 21.3876C288.423 21.417 290.973 18.4203 294.022 14.6893C297.041 10.9876 299.561 7.93221 299.62 7.93221C299.679 7.93221 299.737 12.8972 299.737 18.9492V29.9661H297.392H295.077L294.989 25.4124L294.901 20.8294L291.706 25.1186C289.977 27.4689 288.453 29.3785 288.335 29.3492C288.247 29.3492 286.782 27.4983 285.082 25.2362L282.004 21.1232L281.858 25.4712L281.711 29.8192L279.308 29.9073L276.875 29.9955V18.9492C276.875 11.8983 276.992 7.96159 277.168 8.0791C277.315 8.16724 279.835 11.1932 282.766 14.7774Z" fill="white"/>
<path d="M260.578 12.4564C258.908 12.9852 257.589 14.0428 256.71 15.5705C255.566 17.4801 255.596 20.1535 256.739 22.1219C259.435 26.7049 266.118 26.4699 268.492 21.7106C269.489 19.6835 269.489 17.9501 268.492 15.923C267.613 14.1309 266.323 13.0439 264.389 12.4564C262.747 11.9569 262.161 11.9569 260.578 12.4564Z" fill="white"/>
</g>
<defs>
<clipPath id="clip0">
<rect width="171.763" height="40" fill="white" transform="translate(0 6)"/>
</clipPath>
<clipPath id="clip1">
<rect width="85" height="52" fill="white" transform="translate(244.047)"/>
</clipPath>
</defs>
</svg>
