<?xml version="1.0" encoding="utf-8"?>
<!-- Generator: Adobe Illustrator 27.2.0, SVG Export Plug-In . SVG Version: 6.00 Build 0)  -->
<svg version="1.1" id="ehk3zt8bvtng1" xmlns:svg="http://www.w3.org/2000/svg"
	 xmlns="http://www.w3.org/2000/svg" xmlns:xlink="http://www.w3.org/1999/xlink" x="0px" y="0px" viewBox="0 0 38.4 38"
	 style="enable-background:new 0 0 38.4 38;" xml:space="preserve">
<style type="text/css">
	.st0{fill:#FFFFFF;}
</style>
<path id="ehk3zt8bvtng17" class="st0" d="M2.5,19c0,9.4,7.6,17,16.8,17c1.3,0,2.6-0.2,3.9-0.5V26c-1.2,0.7-2.5,1-3.9,1
	c-4.4,0-7.9-3.6-7.9-8s3.5-8,7.9-8c1.4,0,2.7,0.4,3.9,1V2.5C21.9,2.2,20.6,2,19.3,2C10,2,2.5,9.7,2.5,19z M27.1,4v30
	c5.3-2.8,8.9-8.5,8.9-15S32.5,6.8,27.1,4z"/>
</svg>
