<?xml version="1.0" encoding="utf-8"?>
<!-- Generator: Adobe Illustrator 27.2.0, SVG Export Plug-In . SVG Version: 6.00 Build 0)  -->
<svg version="1.1" id="ehk3zt8bvtng1" xmlns:svg="http://www.w3.org/2000/svg"
	 xmlns="http://www.w3.org/2000/svg" xmlns:xlink="http://www.w3.org/1999/xlink" x="0px" y="0px" viewBox="0 0 150.9 38"
	 style="enable-background:new 0 0 150.9 38;" xml:space="preserve">
<style type="text/css">
	.st0{fill:#FFFFFF;}
</style>
<path id="ehk3zt8bvtng14" class="st0" d="M75.1,16.1c-1.1-1.1-2.6-1.7-4.4-1.7c-3.9,0-7,3.3-7,7.6s3,7.6,7,7.6
	c1.6,0,3.2-0.7,4.4-1.8v1.4h3.8V14.7h-3.8V16.1z M71.4,25.9c-2.1,0-3.8-1.8-3.8-4s1.6-4,3.8-4c2.2,0,3.8,1.8,3.8,4
	S73.5,25.9,71.4,25.9z M85.6,8.7h-3.9v20.4h3.9V8.7z M92.2,8.7h-3.9v20.4h3.9V8.7z"/>
<path id="ehk3zt8bvtng15" class="st0" d="M105.3,8.4c-5.8,0-10.5,4.8-10.5,10.6s4.7,10.5,10.5,10.5s10.5-4.8,10.5-10.5
	C115.8,13.2,111.1,8.4,105.3,8.4z M105.3,25.6c-3.6,0-6.4-2.9-6.4-6.7s2.8-6.7,6.4-6.7c3.6,0,6.4,2.9,6.4,6.7S108.9,25.6,105.3,25.6
	z M126.1,14.3c-1.6,0-2.9,0.6-3.9,1.6v-1.3h-3.9v14.5h3.9v-7.6c0-2.2,1.2-3.6,2.9-3.6s2.7,1.1,2.7,3.2v8h3.9v-8.7
	C131.7,16.7,129.6,14.3,126.1,14.3L126.1,14.3z M141.4,14.3c-4.1,0-7.2,3.3-7.2,7.6c0,4.4,3,7.6,7.4,7.6c2.8,0,5.2-1.3,6.4-3.8
	c0.3-0.8,0.4-1.4,0.4-1.4h-3.7c-0.7,1.1-1.6,1.8-3.1,1.8c-1.8,0-3.3-1.3-3.6-2.9h10.5v-0.4V22C148.4,17.6,145.5,14.3,141.4,14.3
	L141.4,14.3z M141.3,17.7c1.6,0,3,1.1,3.3,2.6H138C138.4,19,139.7,17.7,141.3,17.7z"/>
<path id="ehk3zt8bvtng16" class="st0" d="M53.1,8.3c-5.8,0-10.5,4.8-10.5,10.6s4.7,10.5,10.5,10.5c3.9,0,7.4-2.1,9.2-5.5l0.2-0.5
	h-4.8l-0.1,0.1c-1.2,1.3-2.8,2-4.6,2c-3.6,0-6.4-2.9-6.4-6.7s2.8-6.7,6.4-6.7c2.3,0,4.4,1.3,5.5,3.3l0.1,0.2h4.5l-0.2-0.4
	C61.4,11.2,57.5,8.3,53.1,8.3z"/>
<path id="ehk3zt8bvtng17" class="st0" d="M2.4,19c0,9.4,7.6,17,16.8,17c1.3,0,2.6-0.2,3.9-0.5V26c-1.2,0.7-2.5,1-3.9,1
	c-4.4,0-7.9-3.6-7.9-8s3.5-8,7.9-8c1.4,0,2.7,0.4,3.9,1V2.5C21.8,2.2,20.5,2,19.2,2C9.9,2,2.4,9.7,2.4,19z M27,4v30
	c5.3-2.8,8.9-8.5,8.9-15S32.4,6.8,27,4z"/>
</svg>
