<?xml version="1.0" encoding="UTF-8" standalone="no"?>
<svg
   class="logo-svg"
   id="ehk3zt8bvtng1"
   viewBox="0 0 173 83"
   shape-rendering="geometricPrecision"
   text-rendering="geometricPrecision"
   version="1.1"
   width="173"
   height="83"
   sodipodi:docname="Logo-Equal.svg"
   inkscape:version="1.1 (c68e22c387, 2021-05-23)"
   xmlns:inkscape="http://www.inkscape.org/namespaces/inkscape"
   xmlns:sodipodi="http://sodipodi.sourceforge.net/DTD/sodipodi-0.dtd"
   xmlns="http://www.w3.org/2000/svg"
   xmlns:svg="http://www.w3.org/2000/svg">
  <sodipodi:namedview
     id="namedview33"
     pagecolor="#ffffff"
     bordercolor="#666666"
     borderopacity="1.0"
     inkscape:pageshadow="2"
     inkscape:pageopacity="0.0"
     inkscape:pagecheckerboard="0"
     showgrid="false"
     inkscape:zoom="6.5260116"
     inkscape:cx="86.5"
     inkscape:cy="41.449513"
     inkscape:window-width="1920"
     inkscape:window-height="1017"
     inkscape:window-x="-8"
     inkscape:window-y="-8"
     inkscape:window-maximized="1"
     inkscape:current-layer="ehk3zt8bvtng1" />
  <defs
     id="defs35" />
  <g
     id="ehk3zt8bvtng13"
     class="logo-text"
     transform="translate(-6)">
    <path
       id="ehk3zt8bvtng14"
       d="m 105,38.8 c -1.1,-1.1 -2.6,-1.7 -4.4,-1.7 -3.9,0 -7,3.3 -7,7.6 0,4.3 3,7.6 7,7.6 1.6,0 3.2,-0.7 4.4,-1.8 v 1.4 h 3.8 V 37.4 H 105 Z m -3.7,9.8 c -2.1,0 -3.8,-1.8 -3.8,-4 0,-2.2 1.6,-4 3.8,-4 2.2,0 3.8,1.8 3.8,4 0,2.2 -1.7,4 -3.8,4 z m 14.2,-17.2 h -3.9 v 20.4 h 3.9 z m 6.6,0 h -3.9 v 20.4 h 3.9 z"
       fill="#949faf"
       stroke="none"
       stroke-width="1" />
    <path
       id="ehk3zt8bvtng15"
       d="m 135.2,31.1 c -5.8,0 -10.5,4.8 -10.5,10.6 0,5.8 4.7,10.5 10.5,10.5 5.8,0 10.5,-4.8 10.5,-10.5 0,-5.8 -4.7,-10.6 -10.5,-10.6 z m 0,17.2 c -3.6,0 -6.4,-2.9 -6.4,-6.7 0,-3.8 2.8,-6.7 6.4,-6.7 3.6,0 6.4,2.9 6.4,6.7 0,3.8 -2.8,6.7 -6.4,6.7 z M 156,37 c -1.6,0 -2.9,0.6 -3.9,1.6 v -1.3 h -3.9 v 14.5 h 3.9 v -7.6 c 0,-2.2 1.2,-3.6 2.9,-3.6 1.7,0 2.7,1.1 2.7,3.2 v 8 h 3.9 v -8.7 c 0,-3.7 -2.1,-6.1 -5.6,-6.1 z m 15.3,0 c -4.1,0 -7.2,3.3 -7.2,7.6 0,4.4 3,7.6 7.4,7.6 2.8,0 5.2,-1.3 6.4,-3.8 0.3,-0.8 0.4,-1.4 0.4,-1.4 h -3.7 c -0.7,1.1 -1.6,1.8 -3.1,1.8 -1.8,0 -3.3,-1.3 -3.6,-2.9 h 10.5 v -0.4 -0.8 c -0.1,-4.4 -3,-7.7 -7.1,-7.7 z m -0.1,3.4 c 1.6,0 3,1.1 3.3,2.6 h -6.6 c 0.4,-1.3 1.7,-2.6 3.3,-2.6 z"
       fill="#86ed18"
       stroke="none"
       stroke-width="1" />
    <path
       id="ehk3zt8bvtng16"
       d="m 83,31 c -5.8,0 -10.5,4.8 -10.5,10.6 0,5.8 4.7,10.5 10.5,10.5 3.9,0 7.4,-2.1 9.2,-5.5 l 0.2,-0.5 h -4.8 l -0.1,0.1 c -1.2,1.3 -2.8,2 -4.6,2 -3.6,0 -6.4,-2.9 -6.4,-6.7 0,-3.8 2.8,-6.7 6.4,-6.7 2.3,0 4.4,1.3 5.5,3.3 l 0.1,0.2 H 93 L 92.8,37.9 C 91.3,33.9 87.4,31 83,31 Z"
       fill="#949faf"
       stroke="none"
       stroke-width="1" />
    <path
       id="ehk3zt8bvtng17"
       d="m 32.3,41.7 c 0,9.4 7.6,17 16.8,17 1.3,0 2.6,-0.2 3.9,-0.5 v -9.5 c -1.2,0.7 -2.5,1 -3.9,1 -4.4,0 -7.9,-3.6 -7.9,-8 0,-4.4 3.5,-8 7.9,-8 1.4,0 2.7,0.4 3.9,1 v -9.5 c -1.3,-0.3 -2.6,-0.5 -3.9,-0.5 -9.3,0 -16.8,7.7 -16.8,17 z m 24.6,-15 v 30 c 5.3,-2.8 8.9,-8.5 8.9,-15 0,-6.5 -3.5,-12.2 -8.9,-15 z"
       fill="#86ed18"
       stroke="none"
       stroke-width="1" />
  </g>
</svg>
