<?xml version="1.0" encoding="utf-8"?>
<!-- Generator: Adobe Illustrator 23.0.3, SVG Export Plug-In . SVG Version: 6.00 Build 0)  -->
<svg version="1.1" id="Ebene_1" xmlns="http://www.w3.org/2000/svg" xmlns:xlink="http://www.w3.org/1999/xlink" x="0px" y="0px"
	 viewBox="0 0 146 34" style="enable-background:new 0 0 146 34;" xml:space="preserve">
<style type="text/css">
	.st0{fill:#FFFFFF;}
	.st1{fill:#AAEA39;}
</style>
<path class="st0" d="M72.8,14.1c-1.1-1.1-2.6-1.7-4.4-1.7c-3.9,0-7,3.3-7,7.6s3,7.6,7,7.6c1.6,0,3.2-0.7,4.4-1.8v1.4h3.8V12.8h-3.8
	L72.8,14.1L72.8,14.1z M69,23.9c-2.1,0-3.8-1.8-3.8-4s1.6-4,3.8-4s3.8,1.8,3.8,4S71.2,23.9,69,23.9z M83.3,6.8h-3.9v20.4h3.9V6.8z
	 M89.9,6.8H86v20.4h3.9L89.9,6.8L89.9,6.8z"/>
<path class="st1" d="M103,6.4c-5.8,0-10.5,4.8-10.5,10.6s4.7,10.5,10.5,10.5s10.5-4.8,10.5-10.5C113.4,11.2,108.7,6.4,103,6.4
	L103,6.4z M103,23.6c-3.6,0-6.4-2.9-6.4-6.7s2.8-6.7,6.4-6.7c3.6,0,6.4,2.9,6.4,6.7S106.6,23.6,103,23.6z M123.8,12.3
	c-1.6,0-2.9,0.6-3.9,1.6v-1.3H116v14.5h3.9v-7.6c0-2.2,1.2-3.6,2.9-3.6s2.7,1.1,2.7,3.2v8h3.9v-8.7
	C129.4,14.8,127.2,12.3,123.8,12.3z M139,12.3c-4.1,0-7.2,3.3-7.2,7.6c0,4.4,3,7.6,7.4,7.6c2.8,0,5.2-1.3,6.4-3.8
	c0.3-0.8,0.4-1.4,0.4-1.4h-3.7c-0.7,1.1-1.6,1.8-3.1,1.8c-1.8,0-3.3-1.3-3.6-2.9H146v-0.4v-0.8C146.1,15.6,143.1,12.3,139,12.3
	L139,12.3z M138.9,15.7c1.6,0,3,1.1,3.3,2.6h-6.6C136,17,137.4,15.7,138.9,15.7L138.9,15.7z"/>
<path class="st0" d="M50.8,6.3c-5.8,0-10.5,4.8-10.5,10.6c0,5.8,4.7,10.5,10.5,10.5c3.9,0,7.4-2.1,9.2-5.5l0.2-0.5h-4.8l-0.1,0.1
	c-1.2,1.3-2.8,2-4.6,2c-3.6,0-6.4-2.9-6.4-6.7s2.8-6.7,6.4-6.7c2.3,0,4.4,1.3,5.5,3.3l0.1,0.2h4.4l-0.2-0.4
	C59.1,9.2,55.1,6.3,50.8,6.3L50.8,6.3z"/>
<path class="st1" d="M0,17c0,9.4,7.6,17,16.8,17c1.3,0,2.6-0.2,3.9-0.5V24c-1.2,0.7-2.5,1-3.9,1c-4.4,0-7.9-3.6-7.9-8s3.5-8,7.9-8
	c1.4,0,2.7,0.4,3.9,1V0.5C19.4,0.2,18.1,0,16.8,0C7.6,0,0,7.7,0,17z M24.7,2v30c5.3-2.8,8.9-8.5,8.9-15S30,4.8,24.7,2L24.7,2z"/>
</svg>
