<svg width="132" height="132" viewBox="0 0 132 132" fill="none" xmlns="http://www.w3.org/2000/svg">
<circle r="66" transform="matrix(-1 0 0 1 66 66)" fill="white"/>
<path d="M30 66.0003C30 85.942 46.2363 102 66 102C68.824 102 71.648 101.646 74.294 100.941V80.8237C71.8238 82.2362 68.9998 82.9413 66 82.9413C56.6467 82.9413 49.0603 75.3539 49.0603 66.0003C49.0603 56.6468 56.6467 49.0593 66 49.0593C69.002 49.0593 71.8238 49.9424 74.294 51.1769V31.0595C71.591 30.3389 68.8018 29.9827 66.0021 30.0006C46.2363 30.0006 30 46.2365 30 66.0003ZM82.9418 34.2359V97.7647C94.2356 91.7655 102 79.7649 102 66.0003C102 52.2357 94.4093 40.2351 82.9397 34.2359H82.9418Z" fill="#86EC16"/>
</svg>
