<?xml version="1.0" encoding="utf-8"?>
<!-- Generator: Adobe Illustrator 27.8.1, SVG Export Plug-In . SVG Version: 6.00 Build 0)  -->
<svg version="1.1" id="ehk3zt8bvtng1" xmlns:svg="http://www.w3.org/2000/svg"
	 xmlns="http://www.w3.org/2000/svg" xmlns:xlink="http://www.w3.org/1999/xlink" x="0px" y="0px" viewBox="0 0 173 83"
	 style="enable-background:new 0 0 173 83;" xml:space="preserve">
<style type="text/css">
	.st0{fill:#6EDC14;}
</style>
<g>
	<g>
		<path class="st0" d="M42.3,49.7c-0.7,0.4-1.5,0.2-2.1-0.3l-2.3-2.3l-2.3-2.3c-0.6-0.6-0.7-1.4-0.3-2.1l3.1-6.4l-7-7
			c-6.6,6.7-6.6,17.5,0.1,24.2c5,5,12.4,6.3,18.6,3.8c2-0.8,3.9-2.1,5.6-3.7l-7-7L42.3,49.7L42.3,49.7z"/>
		<path class="st0" d="M39.4,34.7L39.4,34.7h9.2c1,0,1.8,0.8,1.8,1.8v9.2l0,0l0,0h9.8c1.4-5.6-0.2-11.8-4.5-16.2S45,23.5,39.4,24.9
			V34.7L39.4,34.7L39.4,34.7z"/>
	</g>
	<g>
		<path class="st0" d="M70.1,41.5c0-6,4.6-10.7,10.6-10.7c4.1,0,7.5,2.2,9.3,5.6L86.9,38c-1.2-2.4-3.4-3.8-6.2-3.8
			c-4.1,0-7.1,3.2-7.1,7.4s3,7.4,7.1,7.4c2.8,0,5-1.5,6.2-3.8l3.1,1.5c-1.7,3.5-5.2,5.6-9.3,5.6C74.7,52.2,70.1,47.5,70.1,41.5
			L70.1,41.5z"/>
		<path class="st0" d="M90.4,44.4c0-4.4,3.2-7.7,7.5-7.7c2.1,0,3.9,0.8,5,2.3v-2h3.2v14.9h-3.2v-2c-1.1,1.4-2.9,2.3-5,2.3
			C93.6,52.2,90.4,48.8,90.4,44.4z M102.8,44.4c0-2.7-1.9-4.6-4.5-4.6c-2.6,0-4.5,2-4.5,4.6s1.9,4.6,4.5,4.6
			C100.9,49,102.8,47.1,102.8,44.4z"/>
		<path class="st0" d="M108.4,51.9V31.1h3.3v20.7H108.4z"/>
		<path class="st0" d="M114.1,51.9V31.1h3.3v20.7H114.1z"/>
		<path class="st0" d="M119,41.5c0-6,4.6-10.7,10.7-10.7s10.7,4.6,10.7,10.7s-4.7,10.7-10.7,10.7C123.7,52.2,119,47.6,119,41.5z
			 M136.9,41.5c0-4.2-3.1-7.4-7.2-7.4c-4.1,0-7.2,3.1-7.2,7.4s3.1,7.4,7.2,7.4C133.8,48.9,136.9,45.8,136.9,41.5z"/>
		<path class="st0" d="M142,51.9V37h3.2v1.5c1-1.1,2.5-1.8,4.4-1.8c3.7,0,6.3,2.6,6.3,6.7v8.5h-3.3v-8.2c0-2.4-1.3-3.9-3.5-3.9
			s-3.7,1.5-3.7,3.9v8.2L142,51.9L142,51.9z"/>
		<path class="st0" d="M157,44.4c0-4.4,3.3-7.7,7.6-7.7s7.4,3.2,7.4,7.7c0,0.4,0,0.7-0.1,1.1h-11.7c0.4,2.4,2.1,3.8,4.4,3.8
			c1.8,0,3.2-0.9,4-2.3l2.8,1.6c-1.5,2.3-3.8,3.6-6.7,3.6C160.3,52.2,157,48.8,157,44.4L157,44.4z M160.4,43h8.3
			c-0.3-2-1.9-3.5-4.1-3.5C162.5,39.6,160.9,40.9,160.4,43L160.4,43z"/>
	</g>
</g>
</svg>
