<?xml version="1.0" encoding="utf-8"?>
<!-- Generator: Adobe Illustrator 24.0.2, SVG Export Plug-In . SVG Version: 6.00 Build 0)  -->
<svg version="1.1" id="Ebene_1" xmlns="http://www.w3.org/2000/svg" xmlns:xlink="http://www.w3.org/1999/xlink" x="0px" y="0px"
	 viewBox="0 0 33.6 34" style="enable-background:new 0 0 33.6 34;" xml:space="preserve">
<path fill="#86ed18" d="M0,17c0,9.4,7.6,17,16.8,17c1.3,0,2.6-0.2,3.9-0.5V24c-1.2,0.7-2.5,1-3.9,1c-4.4,0-7.9-3.6-7.9-8s3.5-8,7.9-8
	c1.4,0,2.7,0.4,3.9,1V0.5C19.4,0.2,18.1,0,16.8,0C7.6,0,0,7.7,0,17z M24.7,2v30c5.3-2.8,8.9-8.5,8.9-15S30,4.8,24.7,2L24.7,2z"/>
</svg>
