<svg
   class="logo-svg"
   id="ehk3zt8bvtng1"
   viewBox="0 0 173 83"
   shape-rendering="geometricPrecision"
   text-rendering="geometricPrecision"
   version="1.1"
   sodipodi:docname="Logo-Christmas-Equal.svg"
   width="173"
   height="83"
   inkscape:version="1.1 (c68e22c387, 2021-05-23)"
   xmlns:inkscape="http://www.inkscape.org/namespaces/inkscape"
   xmlns:sodipodi="http://sodipodi.sourceforge.net/DTD/sodipodi-0.dtd"
   xmlns="http://www.w3.org/2000/svg"
   xmlns:svg="http://www.w3.org/2000/svg">
  <defs
     id="defs35" />
  <sodipodi:namedview
     id="namedview33"
     pagecolor="#ffffff"
     bordercolor="#666666"
     borderopacity="1.0"
     inkscape:pageshadow="2"
     inkscape:pageopacity="0.0"
     inkscape:pagecheckerboard="0"
     showgrid="false"
     inkscape:zoom="4.2920621"
     inkscape:cx="73.274801"
     inkscape:cy="40.889436"
     inkscape:window-width="1920"
     inkscape:window-height="1017"
     inkscape:window-x="-8"
     inkscape:window-y="-8"
     inkscape:window-maximized="1"
     inkscape:current-layer="ehk3zt8bvtng1" />
  <g
     id="ehk3zt8bvtng2"
     class="logo-snow">
    <path
       id="ehk3zt8bvtng3"
       d="m 76.1,1 c -0.2,0.1 -0.3,0.3 -0.3,0.5 l 0.1,0.4 -0.6,-0.2 c 0,0 -0.1,0 -0.1,0 -0.1,0 -0.3,0.1 -0.3,0.2 -0.1,0.2 0,0.4 0.2,0.5 L 76.2,2.9 76.4,3.6 75,2.9 c 0,0 -0.1,0 -0.1,0 -0.1,0 -0.3,0.1 -0.3,0.2 -0.1,0.2 0,0.4 0.2,0.5 l 1.8,0.8 0.1,0.6 -2,-0.9 c 0,0 -0.1,0 -0.1,0 -0.1,0 -0.3,0.1 -0.3,0.2 -0.1,0.2 0,0.4 0.2,0.5 L 77,5.9 77.2,7 76.3,6.6 c 0,0 -0.1,0 -0.1,0 -0.1,0 -0.3,0.1 -0.3,0.2 -0.1,0.2 0,0.4 0.2,0.5 L 77.5,7.9 77.7,8.8 76.3,10 75.4,9.7 74.8,8.2 C 74.8,8.1 74.7,8 74.5,8 c 0,0 -0.1,0 -0.1,0 -0.2,0.1 -0.3,0.3 -0.2,0.5 l 0.4,1 -1.1,-0.3 -1,-2.5 C 72.4,6.6 72.3,6.5 72.2,6.5 c 0,0 -0.1,0 -0.1,0 C 71.9,6.6 71.8,6.8 71.9,7 L 72.7,9 72,8.8 71.3,6.9 C 71.2,6.8 71.1,6.7 71,6.7 c 0,0 -0.1,0 -0.1,0 C 70.7,6.8 70.6,7 70.7,7.2 L 71.2,8.5 70.5,8.3 70.1,7.2 C 70,7.1 69.9,7 69.8,7 c 0,0 -0.1,0 -0.1,0 -0.2,0.1 -0.3,0.3 -0.2,0.5 V 8 L 69.1,7.9 c 0,0 -0.1,0 -0.1,0 -0.2,0 -0.3,0.1 -0.4,0.3 -0.1,0.2 0.1,0.4 0.3,0.5 l 0.4,0.1 -0.5,0.4 c -0.2,0.1 -0.2,0.3 -0.1,0.5 0.1,0.1 0.2,0.1 0.3,0.1 0.1,0 0.1,0 0.2,-0.1 L 70.1,9 70.8,9.2 69.7,10 c -0.2,0.1 -0.2,0.3 -0.1,0.5 0.1,0.1 0.2,0.1 0.3,0.1 0.1,0 0.1,0 0.2,-0.1 l 1.6,-1.2 0.7,0.2 -1.8,1.5 c -0.2,0.1 -0.2,0.3 -0.1,0.5 0.1,0.1 0.2,0.1 0.3,0.1 0.1,0 0.1,0 0.2,-0.1 l 2.2,-1.6 1.1,0.3 -0.8,0.6 c -0.2,0.1 -0.2,0.3 -0.1,0.5 0.1,0.1 0.2,0.1 0.3,0.1 0.1,0 0.1,0 0.2,-0.1 l 1.3,-0.9 0.9,0.3 0.4,1.7 -0.7,0.6 -1.6,-0.3 c 0,0 0,0 -0.1,0 -0.2,0 -0.3,0.1 -0.4,0.3 0,0.2 0.1,0.4 0.3,0.4 l 1,0.2 -0.8,0.8 -2.7,-0.4 c 0,0 0,0 -0.1,0 -0.2,0 -0.3,0.1 -0.4,0.3 0,0.2 0.1,0.4 0.3,0.4 l 2.1,0.4 -0.5,0.5 -2,-0.3 c 0,0 0,0 -0.1,0 -0.2,0 -0.3,0.1 -0.4,0.3 0,0.2 0.1,0.4 0.3,0.4 l 1.4,0.2 -0.1,0.6 -1.2,-0.2 c 0,0 0,0 -0.1,0 -0.2,0 -0.3,0.1 -0.4,0.3 0,0.2 0.1,0.4 0.3,0.4 l 0.6,0.1 -0.3,0.3 c -0.2,0.2 -0.2,0.4 0,0.6 0.1,0.1 0.2,0.1 0.3,0.1 0.1,0 0.2,0 0.3,-0.1 l 0.3,-0.3 0.1,0.6 c 0,0.2 0.2,0.3 0.4,0.3 0,0 0,0 0,0 0.2,0 0.3,-0.2 0.3,-0.4 l -0.1,-1.1 0.5,-0.5 0.2,1.4 c 0,0.2 0.2,0.3 0.4,0.3 0,0 0,0 0,0 0.2,0 0.3,-0.2 0.3,-0.4 l -0.2,-2 0.5,-0.5 0.2,2.1 c 0,0.2 0.2,0.3 0.4,0.3 0,0 0,0 0,0 0.2,0 0.3,-0.2 0.3,-0.4 l -0.3,-2.7 0.8,-0.8 0.1,1 c 0,0.2 0.2,0.3 0.4,0.3 0,0 0,0 0,0 0.2,0 0.3,-0.2 0.3,-0.4 l -0.2,-1.5 0.7,-0.6 1.7,0.5 0.2,0.9 -1,1.2 c -0.1,0.2 -0.1,0.4 0,0.5 0.1,0.1 0.1,0.1 0.2,0.1 0.1,0 0.2,0 0.3,-0.1 l 0.7,-0.8 0.3,1.1 -1.7,2.1 c -0.1,0.2 -0.1,0.4 0,0.5 0.1,0.1 0.1,0.1 0.2,0.1 0.1,0 0.2,0 0.3,-0.1 l 1.4,-1.7 0.2,0.7 -1.3,1.5 c -0.1,0.2 -0.1,0.4 0,0.5 0.1,0.1 0.1,0.1 0.2,0.1 0.1,0 0.2,0 0.3,-0.1 l 0.9,-1.1 0.2,0.7 -0.7,0.9 c -0.1,0.2 -0.1,0.4 0,0.5 0.1,0.1 0.1,0.1 0.2,0.1 0.1,0 0.2,0 0.3,-0.1 l 0.4,-0.5 0.1,0.4 c 0,0.2 0.2,0.3 0.4,0.3 0,0 0.1,0 0.1,0 0.2,-0.1 0.3,-0.3 0.3,-0.5 l -0.1,-0.4 0.6,0.2 c 0,0 0.1,0 0.1,0 0.1,0 0.3,-0.1 0.3,-0.2 0.1,-0.2 0,-0.4 -0.2,-0.5 l -0.8,-0.4 -0.2,-0.7 1.3,0.6 c 0,0 0.1,0 0.1,0 0.1,0 0.3,-0.1 0.3,-0.2 0.1,-0.2 0,-0.4 -0.2,-0.5 l -1.8,-0.8 -0.2,-0.7 2,0.9 c 0,0 0.1,0 0.1,0 0.1,0 0.3,-0.1 0.3,-0.2 0.1,-0.2 0,-0.4 -0.2,-0.5 L 80,16.2 v -1 l 0.9,0.4 c 0,0 0.1,0 0.1,0 0.1,0 0.3,-0.1 0.3,-0.2 0.1,-0.2 0,-0.4 -0.2,-0.5 l -1.4,-0.6 -0.2,-0.9 1.3,-1.2 0.9,0.3 0.6,1.5 c 0.1,0.1 0.2,0.2 0.3,0.2 0,0 0.1,0 0.1,0 0.2,-0.1 0.3,-0.3 0.2,-0.5 l -0.4,-1 1.1,0.3 1,2.5 c 0.1,0.1 0.2,0.2 0.3,0.2 0,0 0.1,0 0.1,0 0.2,-0.1 0.3,-0.3 0.2,-0.5 l -0.8,-2 0.7,0.2 0.7,1.9 c 0.1,0.1 0.2,0.2 0.3,0.2 0,0 0.1,0 0.1,0 0.2,-0.1 0.3,-0.3 0.2,-0.5 l -0.5,-1.3 0.7,0.2 0.4,1.1 c 0.1,0.1 0.2,0.2 0.3,0.2 0,0 0.1,0 0.1,0 0.2,-0.1 0.3,-0.3 0.2,-0.5 l -0.2,-0.6 0.4,0.1 c 0,0 0.1,0 0.1,0 0.2,0 0.3,-0.1 0.4,-0.3 0.1,-0.2 -0.1,-0.4 -0.3,-0.5 l -0.4,-0.1 0.5,-0.4 c 0.2,-0.1 0.2,-0.3 0.1,-0.5 -0.1,-0.1 -0.2,-0.1 -0.3,-0.1 -0.1,0 -0.1,0 -0.2,0.1 L 87,13.2 86.3,13 87.4,12.2 c 0.2,-0.1 0.2,-0.3 0.1,-0.5 -0.1,-0.1 -0.2,-0.1 -0.3,-0.1 -0.1,0 -0.1,0 -0.2,0.1 l -1.6,1.2 -0.7,-0.2 1.7,-1.3 c 0.2,-0.1 0.2,-0.3 0.1,-0.5 -0.1,-0.1 -0.2,-0.1 -0.3,-0.1 -0.1,0 -0.1,0 -0.2,0.1 l -2.2,1.6 -1.1,-0.3 0.8,-0.6 c 0.2,-0.1 0.2,-0.3 0.1,-0.5 C 83.5,11 83.4,11 83.3,11 c -0.1,0 -0.1,0 -0.2,0.1 L 81.8,12 81,11.4 80.6,9.7 81.3,9 82.9,9.3 c 0,0 0,0 0.1,0 0.2,0 0.3,-0.1 0.4,-0.3 0,-0.2 -0.1,-0.4 -0.3,-0.4 l -1,-0.2 0.8,-0.8 2.7,0.4 c 0,0 0,0 0.1,0 C 85.9,8 86,7.9 86.1,7.7 86.1,7.5 86,7.3 85.8,7.3 L 83.4,7 l 0.5,-0.5 2,0.3 c 0,0 0,0 0.1,0 0.2,0 0.3,-0.1 0.4,-0.3 0,-0.2 -0.1,-0.4 -0.3,-0.4 l -1.4,-0.2 0.5,-0.5 1.2,0.2 c 0,0 0,0 0.1,0 0.2,0 0.3,-0.1 0.4,-0.3 0,-0.2 -0.1,-0.4 -0.3,-0.4 L 86,4.8 86.3,4.5 C 86.5,4.3 86.5,4.1 86.3,3.9 86.2,3.8 86.1,3.8 86,3.8 c -0.1,0 -0.2,0 -0.3,0.1 L 85.4,4.2 85.3,3.6 c 0,-0.2 -0.2,-0.3 -0.4,-0.3 0,0 0,0 0,0 -0.2,0 -0.3,0.2 -0.3,0.4 L 84.7,4.8 84,5.3 83.8,3.9 c 0,-0.2 -0.2,-0.3 -0.4,-0.3 0,0 0,0 0,0 -0.2,0 -0.3,0.2 -0.3,0.4 l 0.2,2 -0.5,0.5 -0.2,-2.1 c 0,-0.2 -0.2,-0.3 -0.4,-0.3 0,0 0,0 0,0 -0.2,0 -0.3,0.2 -0.3,0.4 L 82.2,7.2 81.4,8 81.3,7 c 0,-0.2 -0.2,-0.3 -0.4,-0.3 0,0 0,0 0,0 -0.2,0 -0.3,0.2 -0.3,0.4 l 0.2,1.5 -0.7,0.6 -1.7,-0.5 -0.2,-0.9 1,-1.2 C 79.3,6.4 79.3,6.2 79.2,6.1 79,5.9 79,5.9 78.9,5.9 78.8,5.9 78.7,5.9 78.6,6 L 77.9,6.8 77.6,5.7 79.3,3.6 C 79.4,3.4 79.4,3.2 79.3,3.1 79.3,3.1 79.2,3 79.1,3 79,3 78.9,3 78.8,3.1 L 77.4,4.8 77.2,4.1 78.5,2.6 C 78.6,2.4 78.6,2.2 78.5,2.1 78.4,2.1 78.4,2 78.3,2 78.2,2 78.1,2 78,2.1 L 77.1,3.2 76.9,2.5 77.6,1.6 C 77.7,1.4 77.7,1.2 77.6,1.1 77.5,1 77.5,1 77.4,1 77.3,1 77.2,1 77.1,1.1 L 76.7,1.6 76.6,1.2 C 76.6,1.1 76.4,1 76.1,1 v 0 c 0.1,0 0.1,0 0,0 z M 78,9.1 c 0,0 0,0 0,0 0.1,0 0.1,0 0,0 0.1,0 0.1,0 0.1,0 L 80,9.6 c 0,0 0,0 0,0.1 0,0 0,0 0.1,0 l 0.4,1.9 c 0,0 0,0 0,0.1 0,0 0,0 0,0.1 l -1.4,1.3 c 0,0 0,0 0,0 0,0 0,0 0,0 0,0 0,0 0,0 0,0 0,0 -0.1,0 l -1.9,-0.6 c 0,0 0,0 0,-0.1 0,0 0,0 -0.1,0 l -0.4,-1.9 c 0,0 0,0 0,-0.1 0,0 0,0 0,-0.1 z"
       transform="translate(-2.7734014,-21.2)"
       opacity="0"
       fill="#a4f6ff"
       stroke="none"
       stroke-width="1" />
    <path
       id="ehk3zt8bvtng4"
       d="m 76.1,1 c -0.2,0.1 -0.3,0.3 -0.3,0.5 l 0.1,0.4 -0.6,-0.2 c 0,0 -0.1,0 -0.1,0 -0.1,0 -0.3,0.1 -0.3,0.2 -0.1,0.2 0,0.4 0.2,0.5 L 76.2,2.9 76.4,3.6 75,2.9 c 0,0 -0.1,0 -0.1,0 -0.1,0 -0.3,0.1 -0.3,0.2 -0.1,0.2 0,0.4 0.2,0.5 l 1.8,0.8 0.1,0.6 -2,-0.9 c 0,0 -0.1,0 -0.1,0 -0.1,0 -0.3,0.1 -0.3,0.2 -0.1,0.2 0,0.4 0.2,0.5 L 77,5.9 77.2,7 76.3,6.6 c 0,0 -0.1,0 -0.1,0 -0.1,0 -0.3,0.1 -0.3,0.2 -0.1,0.2 0,0.4 0.2,0.5 L 77.5,7.9 77.7,8.8 76.3,10 75.4,9.7 74.8,8.2 C 74.8,8.1 74.7,8 74.5,8 c 0,0 -0.1,0 -0.1,0 -0.2,0.1 -0.3,0.3 -0.2,0.5 l 0.4,1 -1.1,-0.3 -1,-2.5 C 72.4,6.6 72.3,6.5 72.2,6.5 c 0,0 -0.1,0 -0.1,0 C 71.9,6.6 71.8,6.8 71.9,7 L 72.7,9 72,8.8 71.3,6.9 C 71.2,6.8 71.1,6.7 71,6.7 c 0,0 -0.1,0 -0.1,0 C 70.7,6.8 70.6,7 70.7,7.2 L 71.2,8.5 70.5,8.3 70.1,7.2 C 70,7.1 69.9,7 69.8,7 c 0,0 -0.1,0 -0.1,0 -0.2,0.1 -0.3,0.3 -0.2,0.5 V 8 L 69.1,7.9 c 0,0 -0.1,0 -0.1,0 -0.2,0 -0.3,0.1 -0.4,0.3 -0.1,0.2 0.1,0.4 0.3,0.5 l 0.4,0.1 -0.5,0.4 c -0.2,0.1 -0.2,0.3 -0.1,0.5 0.1,0.1 0.2,0.1 0.3,0.1 0.1,0 0.1,0 0.2,-0.1 L 70.1,9 70.8,9.2 69.7,10 c -0.2,0.1 -0.2,0.3 -0.1,0.5 0.1,0.1 0.2,0.1 0.3,0.1 0.1,0 0.1,0 0.2,-0.1 l 1.6,-1.2 0.7,0.2 -1.8,1.5 c -0.2,0.1 -0.2,0.3 -0.1,0.5 0.1,0.1 0.2,0.1 0.3,0.1 0.1,0 0.1,0 0.2,-0.1 l 2.2,-1.6 1.1,0.3 -0.8,0.6 c -0.2,0.1 -0.2,0.3 -0.1,0.5 0.1,0.1 0.2,0.1 0.3,0.1 0.1,0 0.1,0 0.2,-0.1 l 1.3,-0.9 0.9,0.3 0.4,1.7 -0.7,0.6 -1.6,-0.3 c 0,0 0,0 -0.1,0 -0.2,0 -0.3,0.1 -0.4,0.3 0,0.2 0.1,0.4 0.3,0.4 l 1,0.2 -0.8,0.8 -2.7,-0.4 c 0,0 0,0 -0.1,0 -0.2,0 -0.3,0.1 -0.4,0.3 0,0.2 0.1,0.4 0.3,0.4 l 2.1,0.4 -0.5,0.5 -2,-0.3 c 0,0 0,0 -0.1,0 -0.2,0 -0.3,0.1 -0.4,0.3 0,0.2 0.1,0.4 0.3,0.4 l 1.4,0.2 -0.1,0.6 -1.2,-0.2 c 0,0 0,0 -0.1,0 -0.2,0 -0.3,0.1 -0.4,0.3 0,0.2 0.1,0.4 0.3,0.4 l 0.6,0.1 -0.3,0.3 c -0.2,0.2 -0.2,0.4 0,0.6 0.1,0.1 0.2,0.1 0.3,0.1 0.1,0 0.2,0 0.3,-0.1 l 0.3,-0.3 0.1,0.6 c 0,0.2 0.2,0.3 0.4,0.3 0,0 0,0 0,0 0.2,0 0.3,-0.2 0.3,-0.4 l -0.1,-1.1 0.5,-0.5 0.2,1.4 c 0,0.2 0.2,0.3 0.4,0.3 0,0 0,0 0,0 0.2,0 0.3,-0.2 0.3,-0.4 l -0.2,-2 0.5,-0.5 0.2,2.1 c 0,0.2 0.2,0.3 0.4,0.3 0,0 0,0 0,0 0.2,0 0.3,-0.2 0.3,-0.4 l -0.3,-2.7 0.8,-0.8 0.1,1 c 0,0.2 0.2,0.3 0.4,0.3 0,0 0,0 0,0 0.2,0 0.3,-0.2 0.3,-0.4 l -0.2,-1.5 0.7,-0.6 1.7,0.5 0.2,0.9 -1,1.2 c -0.1,0.2 -0.1,0.4 0,0.5 0.1,0.1 0.1,0.1 0.2,0.1 0.1,0 0.2,0 0.3,-0.1 l 0.7,-0.8 0.3,1.1 -1.7,2.1 c -0.1,0.2 -0.1,0.4 0,0.5 0.1,0.1 0.1,0.1 0.2,0.1 0.1,0 0.2,0 0.3,-0.1 l 1.4,-1.7 0.2,0.7 -1.3,1.5 c -0.1,0.2 -0.1,0.4 0,0.5 0.1,0.1 0.1,0.1 0.2,0.1 0.1,0 0.2,0 0.3,-0.1 l 0.9,-1.1 0.2,0.7 -0.7,0.9 c -0.1,0.2 -0.1,0.4 0,0.5 0.1,0.1 0.1,0.1 0.2,0.1 0.1,0 0.2,0 0.3,-0.1 l 0.4,-0.5 0.1,0.4 c 0,0.2 0.2,0.3 0.4,0.3 0,0 0.1,0 0.1,0 0.2,-0.1 0.3,-0.3 0.3,-0.5 l -0.1,-0.4 0.6,0.2 c 0,0 0.1,0 0.1,0 0.1,0 0.3,-0.1 0.3,-0.2 0.1,-0.2 0,-0.4 -0.2,-0.5 l -0.8,-0.4 -0.2,-0.7 1.3,0.6 c 0,0 0.1,0 0.1,0 0.1,0 0.3,-0.1 0.3,-0.2 0.1,-0.2 0,-0.4 -0.2,-0.5 l -1.8,-0.8 -0.2,-0.7 2,0.9 c 0,0 0.1,0 0.1,0 0.1,0 0.3,-0.1 0.3,-0.2 0.1,-0.2 0,-0.4 -0.2,-0.5 L 80,16.2 v -1 l 0.9,0.4 c 0,0 0.1,0 0.1,0 0.1,0 0.3,-0.1 0.3,-0.2 0.1,-0.2 0,-0.4 -0.2,-0.5 l -1.4,-0.6 -0.2,-0.9 1.3,-1.2 0.9,0.3 0.6,1.5 c 0.1,0.1 0.2,0.2 0.3,0.2 0,0 0.1,0 0.1,0 0.2,-0.1 0.3,-0.3 0.2,-0.5 l -0.4,-1 1.1,0.3 1,2.5 c 0.1,0.1 0.2,0.2 0.3,0.2 0,0 0.1,0 0.1,0 0.2,-0.1 0.3,-0.3 0.2,-0.5 l -0.8,-2 0.7,0.2 0.7,1.9 c 0.1,0.1 0.2,0.2 0.3,0.2 0,0 0.1,0 0.1,0 0.2,-0.1 0.3,-0.3 0.2,-0.5 l -0.5,-1.3 0.7,0.2 0.4,1.1 c 0.1,0.1 0.2,0.2 0.3,0.2 0,0 0.1,0 0.1,0 0.2,-0.1 0.3,-0.3 0.2,-0.5 l -0.2,-0.6 0.4,0.1 c 0,0 0.1,0 0.1,0 0.2,0 0.3,-0.1 0.4,-0.3 0.1,-0.2 -0.1,-0.4 -0.3,-0.5 l -0.4,-0.1 0.5,-0.4 c 0.2,-0.1 0.2,-0.3 0.1,-0.5 -0.1,-0.1 -0.2,-0.1 -0.3,-0.1 -0.1,0 -0.1,0 -0.2,0.1 L 87,13.2 86.3,13 87.4,12.2 c 0.2,-0.1 0.2,-0.3 0.1,-0.5 -0.1,-0.1 -0.2,-0.1 -0.3,-0.1 -0.1,0 -0.1,0 -0.2,0.1 l -1.6,1.2 -0.7,-0.2 1.7,-1.3 c 0.2,-0.1 0.2,-0.3 0.1,-0.5 -0.1,-0.1 -0.2,-0.1 -0.3,-0.1 -0.1,0 -0.1,0 -0.2,0.1 l -2.2,1.6 -1.1,-0.3 0.8,-0.6 c 0.2,-0.1 0.2,-0.3 0.1,-0.5 C 83.5,11 83.4,11 83.3,11 c -0.1,0 -0.1,0 -0.2,0.1 L 81.8,12 81,11.4 80.6,9.7 81.3,9 82.9,9.3 c 0,0 0,0 0.1,0 0.2,0 0.3,-0.1 0.4,-0.3 0,-0.2 -0.1,-0.4 -0.3,-0.4 l -1,-0.2 0.8,-0.8 2.7,0.4 c 0,0 0,0 0.1,0 C 85.9,8 86,7.9 86.1,7.7 86.1,7.5 86,7.3 85.8,7.3 L 83.4,7 l 0.5,-0.5 2,0.3 c 0,0 0,0 0.1,0 0.2,0 0.3,-0.1 0.4,-0.3 0,-0.2 -0.1,-0.4 -0.3,-0.4 l -1.4,-0.2 0.5,-0.5 1.2,0.2 c 0,0 0,0 0.1,0 0.2,0 0.3,-0.1 0.4,-0.3 0,-0.2 -0.1,-0.4 -0.3,-0.4 L 86,4.8 86.3,4.5 C 86.5,4.3 86.5,4.1 86.3,3.9 86.2,3.8 86.1,3.8 86,3.8 c -0.1,0 -0.2,0 -0.3,0.1 L 85.4,4.2 85.3,3.6 c 0,-0.2 -0.2,-0.3 -0.4,-0.3 0,0 0,0 0,0 -0.2,0 -0.3,0.2 -0.3,0.4 L 84.7,4.8 84,5.3 83.8,3.9 c 0,-0.2 -0.2,-0.3 -0.4,-0.3 0,0 0,0 0,0 -0.2,0 -0.3,0.2 -0.3,0.4 l 0.2,2 -0.5,0.5 -0.2,-2.1 c 0,-0.2 -0.2,-0.3 -0.4,-0.3 0,0 0,0 0,0 -0.2,0 -0.3,0.2 -0.3,0.4 L 82.2,7.2 81.4,8 81.3,7 c 0,-0.2 -0.2,-0.3 -0.4,-0.3 0,0 0,0 0,0 -0.2,0 -0.3,0.2 -0.3,0.4 l 0.2,1.5 -0.7,0.6 -1.7,-0.5 -0.2,-0.9 1,-1.2 C 79.3,6.4 79.3,6.2 79.2,6.1 79,5.9 79,5.9 78.9,5.9 78.8,5.9 78.7,5.9 78.6,6 L 77.9,6.8 77.6,5.7 79.3,3.6 C 79.4,3.4 79.4,3.2 79.3,3.1 79.3,3.1 79.2,3 79.1,3 79,3 78.9,3 78.8,3.1 L 77.4,4.8 77.2,4.1 78.5,2.6 C 78.6,2.4 78.6,2.2 78.5,2.1 78.4,2.1 78.4,2 78.3,2 78.2,2 78.1,2 78,2.1 L 77.1,3.2 76.9,2.5 77.6,1.6 C 77.7,1.4 77.7,1.2 77.6,1.1 77.5,1 77.5,1 77.4,1 77.3,1 77.2,1 77.1,1.1 L 76.7,1.6 76.6,1.2 C 76.6,1.1 76.4,1 76.1,1 v 0 c 0.1,0 0.1,0 0,0 z M 78,9.1 c 0,0 0,0 0,0 0.1,0 0.1,0 0,0 0.1,0 0.1,0 0.1,0 L 80,9.6 c 0,0 0,0 0,0.1 0,0 0,0 0.1,0 l 0.4,1.9 c 0,0 0,0 0,0.1 0,0 0,0 0,0.1 l -1.4,1.3 c 0,0 0,0 0,0 0,0 0,0 0,0 0,0 0,0 0,0 0,0 0,0 -0.1,0 l -1.9,-0.6 c 0,0 0,0 0,-0.1 0,0 0,0 -0.1,0 l -0.4,-1.9 c 0,0 0,0 0,-0.1 0,0 0,0 0,-0.1 z"
       transform="translate(75.973401,-21.2)"
       opacity="0"
       fill="#a4f6ff"
       stroke="none"
       stroke-width="1" />
    <path
       id="ehk3zt8bvtng5"
       d="m 76.1,1 c -0.2,0.1 -0.3,0.3 -0.3,0.5 l 0.1,0.4 -0.6,-0.2 c 0,0 -0.1,0 -0.1,0 -0.1,0 -0.3,0.1 -0.3,0.2 -0.1,0.2 0,0.4 0.2,0.5 L 76.2,2.9 76.4,3.6 75,2.9 c 0,0 -0.1,0 -0.1,0 -0.1,0 -0.3,0.1 -0.3,0.2 -0.1,0.2 0,0.4 0.2,0.5 l 1.8,0.8 0.1,0.6 -2,-0.9 c 0,0 -0.1,0 -0.1,0 -0.1,0 -0.3,0.1 -0.3,0.2 -0.1,0.2 0,0.4 0.2,0.5 L 77,5.9 77.2,7 76.3,6.6 c 0,0 -0.1,0 -0.1,0 -0.1,0 -0.3,0.1 -0.3,0.2 -0.1,0.2 0,0.4 0.2,0.5 L 77.5,7.9 77.7,8.8 76.3,10 75.4,9.7 74.8,8.2 C 74.8,8.1 74.7,8 74.5,8 c 0,0 -0.1,0 -0.1,0 -0.2,0.1 -0.3,0.3 -0.2,0.5 l 0.4,1 -1.1,-0.3 -1,-2.5 C 72.4,6.6 72.3,6.5 72.2,6.5 c 0,0 -0.1,0 -0.1,0 C 71.9,6.6 71.8,6.8 71.9,7 L 72.7,9 72,8.8 71.3,6.9 C 71.2,6.8 71.1,6.7 71,6.7 c 0,0 -0.1,0 -0.1,0 C 70.7,6.8 70.6,7 70.7,7.2 L 71.2,8.5 70.5,8.3 70.1,7.2 C 70,7.1 69.9,7 69.8,7 c 0,0 -0.1,0 -0.1,0 -0.2,0.1 -0.3,0.3 -0.2,0.5 V 8 L 69.1,7.9 c 0,0 -0.1,0 -0.1,0 -0.2,0 -0.3,0.1 -0.4,0.3 -0.1,0.2 0.1,0.4 0.3,0.5 l 0.4,0.1 -0.5,0.4 c -0.2,0.1 -0.2,0.3 -0.1,0.5 0.1,0.1 0.2,0.1 0.3,0.1 0.1,0 0.1,0 0.2,-0.1 L 70.1,9 70.8,9.2 69.7,10 c -0.2,0.1 -0.2,0.3 -0.1,0.5 0.1,0.1 0.2,0.1 0.3,0.1 0.1,0 0.1,0 0.2,-0.1 l 1.6,-1.2 0.7,0.2 -1.8,1.5 c -0.2,0.1 -0.2,0.3 -0.1,0.5 0.1,0.1 0.2,0.1 0.3,0.1 0.1,0 0.1,0 0.2,-0.1 l 2.2,-1.6 1.1,0.3 -0.8,0.6 c -0.2,0.1 -0.2,0.3 -0.1,0.5 0.1,0.1 0.2,0.1 0.3,0.1 0.1,0 0.1,0 0.2,-0.1 l 1.3,-0.9 0.9,0.3 0.4,1.7 -0.7,0.6 -1.6,-0.3 c 0,0 0,0 -0.1,0 -0.2,0 -0.3,0.1 -0.4,0.3 0,0.2 0.1,0.4 0.3,0.4 l 1,0.2 -0.8,0.8 -2.7,-0.4 c 0,0 0,0 -0.1,0 -0.2,0 -0.3,0.1 -0.4,0.3 0,0.2 0.1,0.4 0.3,0.4 l 2.1,0.4 -0.5,0.5 -2,-0.3 c 0,0 0,0 -0.1,0 -0.2,0 -0.3,0.1 -0.4,0.3 0,0.2 0.1,0.4 0.3,0.4 l 1.4,0.2 -0.1,0.6 -1.2,-0.2 c 0,0 0,0 -0.1,0 -0.2,0 -0.3,0.1 -0.4,0.3 0,0.2 0.1,0.4 0.3,0.4 l 0.6,0.1 -0.3,0.3 c -0.2,0.2 -0.2,0.4 0,0.6 0.1,0.1 0.2,0.1 0.3,0.1 0.1,0 0.2,0 0.3,-0.1 l 0.3,-0.3 0.1,0.6 c 0,0.2 0.2,0.3 0.4,0.3 0,0 0,0 0,0 0.2,0 0.3,-0.2 0.3,-0.4 l -0.1,-1.1 0.5,-0.5 0.2,1.4 c 0,0.2 0.2,0.3 0.4,0.3 0,0 0,0 0,0 0.2,0 0.3,-0.2 0.3,-0.4 l -0.2,-2 0.5,-0.5 0.2,2.1 c 0,0.2 0.2,0.3 0.4,0.3 0,0 0,0 0,0 0.2,0 0.3,-0.2 0.3,-0.4 l -0.3,-2.7 0.8,-0.8 0.1,1 c 0,0.2 0.2,0.3 0.4,0.3 0,0 0,0 0,0 0.2,0 0.3,-0.2 0.3,-0.4 l -0.2,-1.5 0.7,-0.6 1.7,0.5 0.2,0.9 -1,1.2 c -0.1,0.2 -0.1,0.4 0,0.5 0.1,0.1 0.1,0.1 0.2,0.1 0.1,0 0.2,0 0.3,-0.1 l 0.7,-0.8 0.3,1.1 -1.7,2.1 c -0.1,0.2 -0.1,0.4 0,0.5 0.1,0.1 0.1,0.1 0.2,0.1 0.1,0 0.2,0 0.3,-0.1 l 1.4,-1.7 0.2,0.7 -1.3,1.5 c -0.1,0.2 -0.1,0.4 0,0.5 0.1,0.1 0.1,0.1 0.2,0.1 0.1,0 0.2,0 0.3,-0.1 l 0.9,-1.1 0.2,0.7 -0.7,0.9 c -0.1,0.2 -0.1,0.4 0,0.5 0.1,0.1 0.1,0.1 0.2,0.1 0.1,0 0.2,0 0.3,-0.1 l 0.4,-0.5 0.1,0.4 c 0,0.2 0.2,0.3 0.4,0.3 0,0 0.1,0 0.1,0 0.2,-0.1 0.3,-0.3 0.3,-0.5 l -0.1,-0.4 0.6,0.2 c 0,0 0.1,0 0.1,0 0.1,0 0.3,-0.1 0.3,-0.2 0.1,-0.2 0,-0.4 -0.2,-0.5 l -0.8,-0.4 -0.2,-0.7 1.3,0.6 c 0,0 0.1,0 0.1,0 0.1,0 0.3,-0.1 0.3,-0.2 0.1,-0.2 0,-0.4 -0.2,-0.5 l -1.8,-0.8 -0.2,-0.7 2,0.9 c 0,0 0.1,0 0.1,0 0.1,0 0.3,-0.1 0.3,-0.2 0.1,-0.2 0,-0.4 -0.2,-0.5 L 80,16.2 v -1 l 0.9,0.4 c 0,0 0.1,0 0.1,0 0.1,0 0.3,-0.1 0.3,-0.2 0.1,-0.2 0,-0.4 -0.2,-0.5 l -1.4,-0.6 -0.2,-0.9 1.3,-1.2 0.9,0.3 0.6,1.5 c 0.1,0.1 0.2,0.2 0.3,0.2 0,0 0.1,0 0.1,0 0.2,-0.1 0.3,-0.3 0.2,-0.5 l -0.4,-1 1.1,0.3 1,2.5 c 0.1,0.1 0.2,0.2 0.3,0.2 0,0 0.1,0 0.1,0 0.2,-0.1 0.3,-0.3 0.2,-0.5 l -0.8,-2 0.7,0.2 0.7,1.9 c 0.1,0.1 0.2,0.2 0.3,0.2 0,0 0.1,0 0.1,0 0.2,-0.1 0.3,-0.3 0.2,-0.5 l -0.5,-1.3 0.7,0.2 0.4,1.1 c 0.1,0.1 0.2,0.2 0.3,0.2 0,0 0.1,0 0.1,0 0.2,-0.1 0.3,-0.3 0.2,-0.5 l -0.2,-0.6 0.4,0.1 c 0,0 0.1,0 0.1,0 0.2,0 0.3,-0.1 0.4,-0.3 0.1,-0.2 -0.1,-0.4 -0.3,-0.5 l -0.4,-0.1 0.5,-0.4 c 0.2,-0.1 0.2,-0.3 0.1,-0.5 -0.1,-0.1 -0.2,-0.1 -0.3,-0.1 -0.1,0 -0.1,0 -0.2,0.1 L 87,13.2 86.3,13 87.4,12.2 c 0.2,-0.1 0.2,-0.3 0.1,-0.5 -0.1,-0.1 -0.2,-0.1 -0.3,-0.1 -0.1,0 -0.1,0 -0.2,0.1 l -1.6,1.2 -0.7,-0.2 1.7,-1.3 c 0.2,-0.1 0.2,-0.3 0.1,-0.5 -0.1,-0.1 -0.2,-0.1 -0.3,-0.1 -0.1,0 -0.1,0 -0.2,0.1 l -2.2,1.6 -1.1,-0.3 0.8,-0.6 c 0.2,-0.1 0.2,-0.3 0.1,-0.5 C 83.5,11 83.4,11 83.3,11 c -0.1,0 -0.1,0 -0.2,0.1 L 81.8,12 81,11.4 80.6,9.7 81.3,9 82.9,9.3 c 0,0 0,0 0.1,0 0.2,0 0.3,-0.1 0.4,-0.3 0,-0.2 -0.1,-0.4 -0.3,-0.4 l -1,-0.2 0.8,-0.8 2.7,0.4 c 0,0 0,0 0.1,0 C 85.9,8 86,7.9 86.1,7.7 86.1,7.5 86,7.3 85.8,7.3 L 83.4,7 l 0.5,-0.5 2,0.3 c 0,0 0,0 0.1,0 0.2,0 0.3,-0.1 0.4,-0.3 0,-0.2 -0.1,-0.4 -0.3,-0.4 l -1.4,-0.2 0.5,-0.5 1.2,0.2 c 0,0 0,0 0.1,0 0.2,0 0.3,-0.1 0.4,-0.3 0,-0.2 -0.1,-0.4 -0.3,-0.4 L 86,4.8 86.3,4.5 C 86.5,4.3 86.5,4.1 86.3,3.9 86.2,3.8 86.1,3.8 86,3.8 c -0.1,0 -0.2,0 -0.3,0.1 L 85.4,4.2 85.3,3.6 c 0,-0.2 -0.2,-0.3 -0.4,-0.3 0,0 0,0 0,0 -0.2,0 -0.3,0.2 -0.3,0.4 L 84.7,4.8 84,5.3 83.8,3.9 c 0,-0.2 -0.2,-0.3 -0.4,-0.3 0,0 0,0 0,0 -0.2,0 -0.3,0.2 -0.3,0.4 l 0.2,2 -0.5,0.5 -0.2,-2.1 c 0,-0.2 -0.2,-0.3 -0.4,-0.3 0,0 0,0 0,0 -0.2,0 -0.3,0.2 -0.3,0.4 L 82.2,7.2 81.4,8 81.3,7 c 0,-0.2 -0.2,-0.3 -0.4,-0.3 0,0 0,0 0,0 -0.2,0 -0.3,0.2 -0.3,0.4 l 0.2,1.5 -0.7,0.6 -1.7,-0.5 -0.2,-0.9 1,-1.2 C 79.3,6.4 79.3,6.2 79.2,6.1 79,5.9 79,5.9 78.9,5.9 78.8,5.9 78.7,5.9 78.6,6 L 77.9,6.8 77.6,5.7 79.3,3.6 C 79.4,3.4 79.4,3.2 79.3,3.1 79.3,3.1 79.2,3 79.1,3 79,3 78.9,3 78.8,3.1 L 77.4,4.8 77.2,4.1 78.5,2.6 C 78.6,2.4 78.6,2.2 78.5,2.1 78.4,2.1 78.4,2 78.3,2 78.2,2 78.1,2 78,2.1 L 77.1,3.2 76.9,2.5 77.6,1.6 C 77.7,1.4 77.7,1.2 77.6,1.1 77.5,1 77.5,1 77.4,1 77.3,1 77.2,1 77.1,1.1 L 76.7,1.6 76.6,1.2 C 76.6,1.1 76.4,1 76.1,1 v 0 c 0.1,0 0.1,0 0,0 z M 78,9.1 c 0,0 0,0 0,0 0.1,0 0.1,0 0,0 0.1,0 0.1,0 0.1,0 L 80,9.6 c 0,0 0,0 0,0.1 0,0 0,0 0.1,0 l 0.4,1.9 c 0,0 0,0 0,0.1 0,0 0,0 0,0.1 l -1.4,1.3 c 0,0 0,0 0,0 0,0 0,0 0,0 0,0 0,0 0,0 0,0 0,0 -0.1,0 l -1.9,-0.6 c 0,0 0,0 0,-0.1 0,0 0,0 -0.1,0 l -0.4,-1.9 c 0,0 0,0 0,-0.1 0,0 0,0 0,-0.1 z"
       transform="translate(24.426599,-21.468412)"
       opacity="0"
       fill="#a4f6ff"
       stroke="none"
       stroke-width="1" />
    <path
       id="ehk3zt8bvtng6"
       d="m 76.1,1 c -0.2,0.1 -0.3,0.3 -0.3,0.5 l 0.1,0.4 -0.6,-0.2 c 0,0 -0.1,0 -0.1,0 -0.1,0 -0.3,0.1 -0.3,0.2 -0.1,0.2 0,0.4 0.2,0.5 L 76.2,2.9 76.4,3.6 75,2.9 c 0,0 -0.1,0 -0.1,0 -0.1,0 -0.3,0.1 -0.3,0.2 -0.1,0.2 0,0.4 0.2,0.5 l 1.8,0.8 0.1,0.6 -2,-0.9 c 0,0 -0.1,0 -0.1,0 -0.1,0 -0.3,0.1 -0.3,0.2 -0.1,0.2 0,0.4 0.2,0.5 L 77,5.9 77.2,7 76.3,6.6 c 0,0 -0.1,0 -0.1,0 -0.1,0 -0.3,0.1 -0.3,0.2 -0.1,0.2 0,0.4 0.2,0.5 L 77.5,7.9 77.7,8.8 76.3,10 75.4,9.7 74.8,8.2 C 74.8,8.1 74.7,8 74.5,8 c 0,0 -0.1,0 -0.1,0 -0.2,0.1 -0.3,0.3 -0.2,0.5 l 0.4,1 -1.1,-0.3 -1,-2.5 C 72.4,6.6 72.3,6.5 72.2,6.5 c 0,0 -0.1,0 -0.1,0 C 71.9,6.6 71.8,6.8 71.9,7 L 72.7,9 72,8.8 71.3,6.9 C 71.2,6.8 71.1,6.7 71,6.7 c 0,0 -0.1,0 -0.1,0 C 70.7,6.8 70.6,7 70.7,7.2 L 71.2,8.5 70.5,8.3 70.1,7.2 C 70,7.1 69.9,7 69.8,7 c 0,0 -0.1,0 -0.1,0 -0.2,0.1 -0.3,0.3 -0.2,0.5 V 8 L 69.1,7.9 c 0,0 -0.1,0 -0.1,0 -0.2,0 -0.3,0.1 -0.4,0.3 -0.1,0.2 0.1,0.4 0.3,0.5 l 0.4,0.1 -0.5,0.4 c -0.2,0.1 -0.2,0.3 -0.1,0.5 0.1,0.1 0.2,0.1 0.3,0.1 0.1,0 0.1,0 0.2,-0.1 L 70.1,9 70.8,9.2 69.7,10 c -0.2,0.1 -0.2,0.3 -0.1,0.5 0.1,0.1 0.2,0.1 0.3,0.1 0.1,0 0.1,0 0.2,-0.1 l 1.6,-1.2 0.7,0.2 -1.8,1.5 c -0.2,0.1 -0.2,0.3 -0.1,0.5 0.1,0.1 0.2,0.1 0.3,0.1 0.1,0 0.1,0 0.2,-0.1 l 2.2,-1.6 1.1,0.3 -0.8,0.6 c -0.2,0.1 -0.2,0.3 -0.1,0.5 0.1,0.1 0.2,0.1 0.3,0.1 0.1,0 0.1,0 0.2,-0.1 l 1.3,-0.9 0.9,0.3 0.4,1.7 -0.7,0.6 -1.6,-0.3 c 0,0 0,0 -0.1,0 -0.2,0 -0.3,0.1 -0.4,0.3 0,0.2 0.1,0.4 0.3,0.4 l 1,0.2 -0.8,0.8 -2.7,-0.4 c 0,0 0,0 -0.1,0 -0.2,0 -0.3,0.1 -0.4,0.3 0,0.2 0.1,0.4 0.3,0.4 l 2.1,0.4 -0.5,0.5 -2,-0.3 c 0,0 0,0 -0.1,0 -0.2,0 -0.3,0.1 -0.4,0.3 0,0.2 0.1,0.4 0.3,0.4 l 1.4,0.2 -0.1,0.6 -1.2,-0.2 c 0,0 0,0 -0.1,0 -0.2,0 -0.3,0.1 -0.4,0.3 0,0.2 0.1,0.4 0.3,0.4 l 0.6,0.1 -0.3,0.3 c -0.2,0.2 -0.2,0.4 0,0.6 0.1,0.1 0.2,0.1 0.3,0.1 0.1,0 0.2,0 0.3,-0.1 l 0.3,-0.3 0.1,0.6 c 0,0.2 0.2,0.3 0.4,0.3 0,0 0,0 0,0 0.2,0 0.3,-0.2 0.3,-0.4 l -0.1,-1.1 0.5,-0.5 0.2,1.4 c 0,0.2 0.2,0.3 0.4,0.3 0,0 0,0 0,0 0.2,0 0.3,-0.2 0.3,-0.4 l -0.2,-2 0.5,-0.5 0.2,2.1 c 0,0.2 0.2,0.3 0.4,0.3 0,0 0,0 0,0 0.2,0 0.3,-0.2 0.3,-0.4 l -0.3,-2.7 0.8,-0.8 0.1,1 c 0,0.2 0.2,0.3 0.4,0.3 0,0 0,0 0,0 0.2,0 0.3,-0.2 0.3,-0.4 l -0.2,-1.5 0.7,-0.6 1.7,0.5 0.2,0.9 -1,1.2 c -0.1,0.2 -0.1,0.4 0,0.5 0.1,0.1 0.1,0.1 0.2,0.1 0.1,0 0.2,0 0.3,-0.1 l 0.7,-0.8 0.3,1.1 -1.7,2.1 c -0.1,0.2 -0.1,0.4 0,0.5 0.1,0.1 0.1,0.1 0.2,0.1 0.1,0 0.2,0 0.3,-0.1 l 1.4,-1.7 0.2,0.7 -1.3,1.5 c -0.1,0.2 -0.1,0.4 0,0.5 0.1,0.1 0.1,0.1 0.2,0.1 0.1,0 0.2,0 0.3,-0.1 l 0.9,-1.1 0.2,0.7 -0.7,0.9 c -0.1,0.2 -0.1,0.4 0,0.5 0.1,0.1 0.1,0.1 0.2,0.1 0.1,0 0.2,0 0.3,-0.1 l 0.4,-0.5 0.1,0.4 c 0,0.2 0.2,0.3 0.4,0.3 0,0 0.1,0 0.1,0 0.2,-0.1 0.3,-0.3 0.3,-0.5 l -0.1,-0.4 0.6,0.2 c 0,0 0.1,0 0.1,0 0.1,0 0.3,-0.1 0.3,-0.2 0.1,-0.2 0,-0.4 -0.2,-0.5 l -0.8,-0.4 -0.2,-0.7 1.3,0.6 c 0,0 0.1,0 0.1,0 0.1,0 0.3,-0.1 0.3,-0.2 0.1,-0.2 0,-0.4 -0.2,-0.5 l -1.8,-0.8 -0.2,-0.7 2,0.9 c 0,0 0.1,0 0.1,0 0.1,0 0.3,-0.1 0.3,-0.2 0.1,-0.2 0,-0.4 -0.2,-0.5 L 80,16.2 v -1 l 0.9,0.4 c 0,0 0.1,0 0.1,0 0.1,0 0.3,-0.1 0.3,-0.2 0.1,-0.2 0,-0.4 -0.2,-0.5 l -1.4,-0.6 -0.2,-0.9 1.3,-1.2 0.9,0.3 0.6,1.5 c 0.1,0.1 0.2,0.2 0.3,0.2 0,0 0.1,0 0.1,0 0.2,-0.1 0.3,-0.3 0.2,-0.5 l -0.4,-1 1.1,0.3 1,2.5 c 0.1,0.1 0.2,0.2 0.3,0.2 0,0 0.1,0 0.1,0 0.2,-0.1 0.3,-0.3 0.2,-0.5 l -0.8,-2 0.7,0.2 0.7,1.9 c 0.1,0.1 0.2,0.2 0.3,0.2 0,0 0.1,0 0.1,0 0.2,-0.1 0.3,-0.3 0.2,-0.5 l -0.5,-1.3 0.7,0.2 0.4,1.1 c 0.1,0.1 0.2,0.2 0.3,0.2 0,0 0.1,0 0.1,0 0.2,-0.1 0.3,-0.3 0.2,-0.5 l -0.2,-0.6 0.4,0.1 c 0,0 0.1,0 0.1,0 0.2,0 0.3,-0.1 0.4,-0.3 0.1,-0.2 -0.1,-0.4 -0.3,-0.5 l -0.4,-0.1 0.5,-0.4 c 0.2,-0.1 0.2,-0.3 0.1,-0.5 -0.1,-0.1 -0.2,-0.1 -0.3,-0.1 -0.1,0 -0.1,0 -0.2,0.1 L 87,13.2 86.3,13 87.4,12.2 c 0.2,-0.1 0.2,-0.3 0.1,-0.5 -0.1,-0.1 -0.2,-0.1 -0.3,-0.1 -0.1,0 -0.1,0 -0.2,0.1 l -1.6,1.2 -0.7,-0.2 1.7,-1.3 c 0.2,-0.1 0.2,-0.3 0.1,-0.5 -0.1,-0.1 -0.2,-0.1 -0.3,-0.1 -0.1,0 -0.1,0 -0.2,0.1 l -2.2,1.6 -1.1,-0.3 0.8,-0.6 c 0.2,-0.1 0.2,-0.3 0.1,-0.5 C 83.5,11 83.4,11 83.3,11 c -0.1,0 -0.1,0 -0.2,0.1 L 81.8,12 81,11.4 80.6,9.7 81.3,9 82.9,9.3 c 0,0 0,0 0.1,0 0.2,0 0.3,-0.1 0.4,-0.3 0,-0.2 -0.1,-0.4 -0.3,-0.4 l -1,-0.2 0.8,-0.8 2.7,0.4 c 0,0 0,0 0.1,0 C 85.9,8 86,7.9 86.1,7.7 86.1,7.5 86,7.3 85.8,7.3 L 83.4,7 l 0.5,-0.5 2,0.3 c 0,0 0,0 0.1,0 0.2,0 0.3,-0.1 0.4,-0.3 0,-0.2 -0.1,-0.4 -0.3,-0.4 l -1.4,-0.2 0.5,-0.5 1.2,0.2 c 0,0 0,0 0.1,0 0.2,0 0.3,-0.1 0.4,-0.3 0,-0.2 -0.1,-0.4 -0.3,-0.4 L 86,4.8 86.3,4.5 C 86.5,4.3 86.5,4.1 86.3,3.9 86.2,3.8 86.1,3.8 86,3.8 c -0.1,0 -0.2,0 -0.3,0.1 L 85.4,4.2 85.3,3.6 c 0,-0.2 -0.2,-0.3 -0.4,-0.3 0,0 0,0 0,0 -0.2,0 -0.3,0.2 -0.3,0.4 L 84.7,4.8 84,5.3 83.8,3.9 c 0,-0.2 -0.2,-0.3 -0.4,-0.3 0,0 0,0 0,0 -0.2,0 -0.3,0.2 -0.3,0.4 l 0.2,2 -0.5,0.5 -0.2,-2.1 c 0,-0.2 -0.2,-0.3 -0.4,-0.3 0,0 0,0 0,0 -0.2,0 -0.3,0.2 -0.3,0.4 L 82.2,7.2 81.4,8 81.3,7 c 0,-0.2 -0.2,-0.3 -0.4,-0.3 0,0 0,0 0,0 -0.2,0 -0.3,0.2 -0.3,0.4 l 0.2,1.5 -0.7,0.6 -1.7,-0.5 -0.2,-0.9 1,-1.2 C 79.3,6.4 79.3,6.2 79.2,6.1 79,5.9 79,5.9 78.9,5.9 78.8,5.9 78.7,5.9 78.6,6 L 77.9,6.8 77.6,5.7 79.3,3.6 C 79.4,3.4 79.4,3.2 79.3,3.1 79.3,3.1 79.2,3 79.1,3 79,3 78.9,3 78.8,3.1 L 77.4,4.8 77.2,4.1 78.5,2.6 C 78.6,2.4 78.6,2.2 78.5,2.1 78.4,2.1 78.4,2 78.3,2 78.2,2 78.1,2 78,2.1 L 77.1,3.2 76.9,2.5 77.6,1.6 C 77.7,1.4 77.7,1.2 77.6,1.1 77.5,1 77.5,1 77.4,1 77.3,1 77.2,1 77.1,1.1 L 76.7,1.6 76.6,1.2 C 76.6,1.1 76.4,1 76.1,1 v 0 c 0.1,0 0.1,0 0,0 z M 78,9.1 c 0,0 0,0 0,0 0.1,0 0.1,0 0,0 0.1,0 0.1,0 0.1,0 L 80,9.6 c 0,0 0,0 0,0.1 0,0 0,0 0.1,0 l 0.4,1.9 c 0,0 0,0 0,0.1 0,0 0,0 0,0.1 l -1.4,1.3 c 0,0 0,0 0,0 0,0 0,0 0,0 0,0 0,0 0,0 0,0 0,0 -0.1,0 l -1.9,-0.6 c 0,0 0,0 0,-0.1 0,0 0,0 -0.1,0 l -0.4,-1.9 c 0,0 0,0 0,-0.1 0,0 0,0 0,-0.1 z"
       transform="translate(-66.455907,-21.2)"
       opacity="0"
       fill="#a4f6ff"
       stroke="none"
       stroke-width="1" />
    <path
       id="ehk3zt8bvtng7"
       d="m 76.1,1 c -0.2,0.1 -0.3,0.3 -0.3,0.5 l 0.1,0.4 -0.6,-0.2 c 0,0 -0.1,0 -0.1,0 -0.1,0 -0.3,0.1 -0.3,0.2 -0.1,0.2 0,0.4 0.2,0.5 L 76.2,2.9 76.4,3.6 75,2.9 c 0,0 -0.1,0 -0.1,0 -0.1,0 -0.3,0.1 -0.3,0.2 -0.1,0.2 0,0.4 0.2,0.5 l 1.8,0.8 0.1,0.6 -2,-0.9 c 0,0 -0.1,0 -0.1,0 -0.1,0 -0.3,0.1 -0.3,0.2 -0.1,0.2 0,0.4 0.2,0.5 L 77,5.9 77.2,7 76.3,6.6 c 0,0 -0.1,0 -0.1,0 -0.1,0 -0.3,0.1 -0.3,0.2 -0.1,0.2 0,0.4 0.2,0.5 L 77.5,7.9 77.7,8.8 76.3,10 75.4,9.7 74.8,8.2 C 74.8,8.1 74.7,8 74.5,8 c 0,0 -0.1,0 -0.1,0 -0.2,0.1 -0.3,0.3 -0.2,0.5 l 0.4,1 -1.1,-0.3 -1,-2.5 C 72.4,6.6 72.3,6.5 72.2,6.5 c 0,0 -0.1,0 -0.1,0 C 71.9,6.6 71.8,6.8 71.9,7 L 72.7,9 72,8.8 71.3,6.9 C 71.2,6.8 71.1,6.7 71,6.7 c 0,0 -0.1,0 -0.1,0 C 70.7,6.8 70.6,7 70.7,7.2 L 71.2,8.5 70.5,8.3 70.1,7.2 C 70,7.1 69.9,7 69.8,7 c 0,0 -0.1,0 -0.1,0 -0.2,0.1 -0.3,0.3 -0.2,0.5 V 8 L 69.1,7.9 c 0,0 -0.1,0 -0.1,0 -0.2,0 -0.3,0.1 -0.4,0.3 -0.1,0.2 0.1,0.4 0.3,0.5 l 0.4,0.1 -0.5,0.4 c -0.2,0.1 -0.2,0.3 -0.1,0.5 0.1,0.1 0.2,0.1 0.3,0.1 0.1,0 0.1,0 0.2,-0.1 L 70.1,9 70.8,9.2 69.7,10 c -0.2,0.1 -0.2,0.3 -0.1,0.5 0.1,0.1 0.2,0.1 0.3,0.1 0.1,0 0.1,0 0.2,-0.1 l 1.6,-1.2 0.7,0.2 -1.8,1.5 c -0.2,0.1 -0.2,0.3 -0.1,0.5 0.1,0.1 0.2,0.1 0.3,0.1 0.1,0 0.1,0 0.2,-0.1 l 2.2,-1.6 1.1,0.3 -0.8,0.6 c -0.2,0.1 -0.2,0.3 -0.1,0.5 0.1,0.1 0.2,0.1 0.3,0.1 0.1,0 0.1,0 0.2,-0.1 l 1.3,-0.9 0.9,0.3 0.4,1.7 -0.7,0.6 -1.6,-0.3 c 0,0 0,0 -0.1,0 -0.2,0 -0.3,0.1 -0.4,0.3 0,0.2 0.1,0.4 0.3,0.4 l 1,0.2 -0.8,0.8 -2.7,-0.4 c 0,0 0,0 -0.1,0 -0.2,0 -0.3,0.1 -0.4,0.3 0,0.2 0.1,0.4 0.3,0.4 l 2.1,0.4 -0.5,0.5 -2,-0.3 c 0,0 0,0 -0.1,0 -0.2,0 -0.3,0.1 -0.4,0.3 0,0.2 0.1,0.4 0.3,0.4 l 1.4,0.2 -0.1,0.6 -1.2,-0.2 c 0,0 0,0 -0.1,0 -0.2,0 -0.3,0.1 -0.4,0.3 0,0.2 0.1,0.4 0.3,0.4 l 0.6,0.1 -0.3,0.3 c -0.2,0.2 -0.2,0.4 0,0.6 0.1,0.1 0.2,0.1 0.3,0.1 0.1,0 0.2,0 0.3,-0.1 l 0.3,-0.3 0.1,0.6 c 0,0.2 0.2,0.3 0.4,0.3 0,0 0,0 0,0 0.2,0 0.3,-0.2 0.3,-0.4 l -0.1,-1.1 0.5,-0.5 0.2,1.4 c 0,0.2 0.2,0.3 0.4,0.3 0,0 0,0 0,0 0.2,0 0.3,-0.2 0.3,-0.4 l -0.2,-2 0.5,-0.5 0.2,2.1 c 0,0.2 0.2,0.3 0.4,0.3 0,0 0,0 0,0 0.2,0 0.3,-0.2 0.3,-0.4 l -0.3,-2.7 0.8,-0.8 0.1,1 c 0,0.2 0.2,0.3 0.4,0.3 0,0 0,0 0,0 0.2,0 0.3,-0.2 0.3,-0.4 l -0.2,-1.5 0.7,-0.6 1.7,0.5 0.2,0.9 -1,1.2 c -0.1,0.2 -0.1,0.4 0,0.5 0.1,0.1 0.1,0.1 0.2,0.1 0.1,0 0.2,0 0.3,-0.1 l 0.7,-0.8 0.3,1.1 -1.7,2.1 c -0.1,0.2 -0.1,0.4 0,0.5 0.1,0.1 0.1,0.1 0.2,0.1 0.1,0 0.2,0 0.3,-0.1 l 1.4,-1.7 0.2,0.7 -1.3,1.5 c -0.1,0.2 -0.1,0.4 0,0.5 0.1,0.1 0.1,0.1 0.2,0.1 0.1,0 0.2,0 0.3,-0.1 l 0.9,-1.1 0.2,0.7 -0.7,0.9 c -0.1,0.2 -0.1,0.4 0,0.5 0.1,0.1 0.1,0.1 0.2,0.1 0.1,0 0.2,0 0.3,-0.1 l 0.4,-0.5 0.1,0.4 c 0,0.2 0.2,0.3 0.4,0.3 0,0 0.1,0 0.1,0 0.2,-0.1 0.3,-0.3 0.3,-0.5 l -0.1,-0.4 0.6,0.2 c 0,0 0.1,0 0.1,0 0.1,0 0.3,-0.1 0.3,-0.2 0.1,-0.2 0,-0.4 -0.2,-0.5 l -0.8,-0.4 -0.2,-0.7 1.3,0.6 c 0,0 0.1,0 0.1,0 0.1,0 0.3,-0.1 0.3,-0.2 0.1,-0.2 0,-0.4 -0.2,-0.5 l -1.8,-0.8 -0.2,-0.7 2,0.9 c 0,0 0.1,0 0.1,0 0.1,0 0.3,-0.1 0.3,-0.2 0.1,-0.2 0,-0.4 -0.2,-0.5 L 80,16.2 v -1 l 0.9,0.4 c 0,0 0.1,0 0.1,0 0.1,0 0.3,-0.1 0.3,-0.2 0.1,-0.2 0,-0.4 -0.2,-0.5 l -1.4,-0.6 -0.2,-0.9 1.3,-1.2 0.9,0.3 0.6,1.5 c 0.1,0.1 0.2,0.2 0.3,0.2 0,0 0.1,0 0.1,0 0.2,-0.1 0.3,-0.3 0.2,-0.5 l -0.4,-1 1.1,0.3 1,2.5 c 0.1,0.1 0.2,0.2 0.3,0.2 0,0 0.1,0 0.1,0 0.2,-0.1 0.3,-0.3 0.2,-0.5 l -0.8,-2 0.7,0.2 0.7,1.9 c 0.1,0.1 0.2,0.2 0.3,0.2 0,0 0.1,0 0.1,0 0.2,-0.1 0.3,-0.3 0.2,-0.5 l -0.5,-1.3 0.7,0.2 0.4,1.1 c 0.1,0.1 0.2,0.2 0.3,0.2 0,0 0.1,0 0.1,0 0.2,-0.1 0.3,-0.3 0.2,-0.5 l -0.2,-0.6 0.4,0.1 c 0,0 0.1,0 0.1,0 0.2,0 0.3,-0.1 0.4,-0.3 0.1,-0.2 -0.1,-0.4 -0.3,-0.5 l -0.4,-0.1 0.5,-0.4 c 0.2,-0.1 0.2,-0.3 0.1,-0.5 -0.1,-0.1 -0.2,-0.1 -0.3,-0.1 -0.1,0 -0.1,0 -0.2,0.1 L 87,13.2 86.3,13 87.4,12.2 c 0.2,-0.1 0.2,-0.3 0.1,-0.5 -0.1,-0.1 -0.2,-0.1 -0.3,-0.1 -0.1,0 -0.1,0 -0.2,0.1 l -1.6,1.2 -0.7,-0.2 1.7,-1.3 c 0.2,-0.1 0.2,-0.3 0.1,-0.5 -0.1,-0.1 -0.2,-0.1 -0.3,-0.1 -0.1,0 -0.1,0 -0.2,0.1 l -2.2,1.6 -1.1,-0.3 0.8,-0.6 c 0.2,-0.1 0.2,-0.3 0.1,-0.5 C 83.5,11 83.4,11 83.3,11 c -0.1,0 -0.1,0 -0.2,0.1 L 81.8,12 81,11.4 80.6,9.7 81.3,9 82.9,9.3 c 0,0 0,0 0.1,0 0.2,0 0.3,-0.1 0.4,-0.3 0,-0.2 -0.1,-0.4 -0.3,-0.4 l -1,-0.2 0.8,-0.8 2.7,0.4 c 0,0 0,0 0.1,0 C 85.9,8 86,7.9 86.1,7.7 86.1,7.5 86,7.3 85.8,7.3 L 83.4,7 l 0.5,-0.5 2,0.3 c 0,0 0,0 0.1,0 0.2,0 0.3,-0.1 0.4,-0.3 0,-0.2 -0.1,-0.4 -0.3,-0.4 l -1.4,-0.2 0.5,-0.5 1.2,0.2 c 0,0 0,0 0.1,0 0.2,0 0.3,-0.1 0.4,-0.3 0,-0.2 -0.1,-0.4 -0.3,-0.4 L 86,4.8 86.3,4.5 C 86.5,4.3 86.5,4.1 86.3,3.9 86.2,3.8 86.1,3.8 86,3.8 c -0.1,0 -0.2,0 -0.3,0.1 L 85.4,4.2 85.3,3.6 c 0,-0.2 -0.2,-0.3 -0.4,-0.3 0,0 0,0 0,0 -0.2,0 -0.3,0.2 -0.3,0.4 L 84.7,4.8 84,5.3 83.8,3.9 c 0,-0.2 -0.2,-0.3 -0.4,-0.3 0,0 0,0 0,0 -0.2,0 -0.3,0.2 -0.3,0.4 l 0.2,2 -0.5,0.5 -0.2,-2.1 c 0,-0.2 -0.2,-0.3 -0.4,-0.3 0,0 0,0 0,0 -0.2,0 -0.3,0.2 -0.3,0.4 L 82.2,7.2 81.4,8 81.3,7 c 0,-0.2 -0.2,-0.3 -0.4,-0.3 0,0 0,0 0,0 -0.2,0 -0.3,0.2 -0.3,0.4 l 0.2,1.5 -0.7,0.6 -1.7,-0.5 -0.2,-0.9 1,-1.2 C 79.3,6.4 79.3,6.2 79.2,6.1 79,5.9 79,5.9 78.9,5.9 78.8,5.9 78.7,5.9 78.6,6 L 77.9,6.8 77.6,5.7 79.3,3.6 C 79.4,3.4 79.4,3.2 79.3,3.1 79.3,3.1 79.2,3 79.1,3 79,3 78.9,3 78.8,3.1 L 77.4,4.8 77.2,4.1 78.5,2.6 C 78.6,2.4 78.6,2.2 78.5,2.1 78.4,2.1 78.4,2 78.3,2 78.2,2 78.1,2 78,2.1 L 77.1,3.2 76.9,2.5 77.6,1.6 C 77.7,1.4 77.7,1.2 77.6,1.1 77.5,1 77.5,1 77.4,1 77.3,1 77.2,1 77.1,1.1 L 76.7,1.6 76.6,1.2 C 76.6,1.1 76.4,1 76.1,1 v 0 c 0.1,0 0.1,0 0,0 z M 78,9.1 c 0,0 0,0 0,0 0.1,0 0.1,0 0,0 0.1,0 0.1,0 0.1,0 L 80,9.6 c 0,0 0,0 0,0.1 0,0 0,0 0.1,0 l 0.4,1.9 c 0,0 0,0 0,0.1 0,0 0,0 0,0.1 l -1.4,1.3 c 0,0 0,0 0,0 0,0 0,0 0,0 0,0 0,0 0,0 0,0 0,0 -0.1,0 l -1.9,-0.6 c 0,0 0,0 0,-0.1 0,0 0,0 -0.1,0 l -0.4,-1.9 c 0,0 0,0 0,-0.1 0,0 0,0 0,-0.1 z"
       transform="translate(56.220204,-21.2)"
       opacity="0"
       fill="#a4f6ff"
       stroke="none"
       stroke-width="1" />
  </g>
  <g
     id="ehk3zt8bvtng8"
     class="logo-snow"
     transform="translate(-8)">
    <path
       id="ehk3zt8bvtng9"
       d="m 114.8,12.4 c 0,0 -0.1,-0.1 -0.1,0 l -1.2,0.3 c 0,0 -0.1,0.1 -0.1,0.1 l -0.2,0.6 -0.7,0.2 0.3,-1.1 c 0,0 0,-0.1 0,-0.1 l -0.3,-0.3 c 0,0 -0.1,-0.1 -0.1,0 l -0.4,0.1 c 0,0 -0.1,0.1 -0.1,0.1 l -0.4,1.7 -0.5,0.1 -1.1,-1.1 0.1,-0.5 1.7,-0.4 c 0,0 0.1,-0.1 0.1,-0.1 l 0.1,-0.4 c 0,0 0,-0.1 0,-0.1 l -0.3,-0.3 c 0,0 -0.1,-0.1 -0.1,0 l -1.1,0.3 0.2,-0.7 0.6,-0.2 c 0,0 0.1,-0.1 0.1,-0.1 l 0.3,-1.2 c 0,0 0,-0.1 0,-0.1 L 110.5,8 c 0,0 -0.1,-0.1 -0.1,0 l -1.2,0.3 c 0,0 -0.1,0.1 -0.1,0.1 l -0.3,1.2 c 0,0 0,0.1 0,0.1 l 0.4,0.4 -0.2,0.7 -0.8,-0.8 c 0,0 -0.1,-0.1 -0.1,0 l -0.4,0.1 c 0,0 -0.1,0.1 -0.1,0.1 l -0.1,0.4 c 0,0 0,0.1 0,0.1 l 1.2,1.2 -0.1,0.5 -1.5,0.4 -0.4,-0.4 0.4,-1.7 c 0,0 0,-0.1 0,-0.1 l -0.3,-0.3 c 0,0 -0.1,-0.1 -0.1,0 l -0.4,0.1 c 0,0 -0.1,0.1 -0.1,0.1 l -0.3,1.1 -0.5,-0.5 0.2,-0.6 c 0,0 0,-0.1 0,-0.1 l -0.9,-0.9 c 0,0 -0.1,-0.1 -0.1,0 l -1.2,0.3 c 0,0 -0.1,0.1 -0.1,0.1 l -0.3,1.2 c 0,0 0,0.1 0,0.1 l 0.9,0.9 c 0,0 0.1,0.1 0.1,0 l 0.6,-0.2 0.5,0.5 -1.1,0.3 c 0,0 -0.1,0.1 -0.1,0.1 l -0.1,0.4 c 0,0 0,0.1 0,0.1 l 0.3,0.3 c 0,0 0.1,0.1 0.1,0 l 1.7,-0.4 0.4,0.4 -0.4,1.5 -0.5,0.1 -1.2,-1.2 c 0,0 -0.1,-0.1 -0.1,0 l -0.4,0.1 c 0,0 -0.1,0.1 -0.1,0.1 l -0.1,0.4 c 0,0 0,0.1 0,0.1 l 0.8,0.8 -0.7,0.2 -0.4,-0.4 c 0,0 -0.1,-0.1 -0.1,0 l -1.2,0.3 c 0,0 -0.1,0.1 -0.1,0.1 l -0.3,1.2 c 0,0 0,0.1 0,0.1 l 0.9,0.9 c 0,0 0.1,0.1 0.1,0 l 1.2,-0.3 c 0,0 0.1,-0.1 0.1,-0.1 l 0.2,-0.6 0.7,-0.2 -0.3,1.1 c 0,0 0,0.1 0,0.1 l 0.3,0.3 c 0,0 0.1,0.1 0.1,0 l 0.4,-0.1 c 0,0 0.1,-0.1 0.1,-0.1 l 0.4,-1.7 0.5,-0.1 1.1,1.1 -0.1,0.5 -1.7,0.4 c 0,0 -0.1,0.1 -0.1,0.1 l -0.1,0.4 c 0,0 0,0.1 0,0.1 l 0.3,0.3 c 0,0 0.1,0.1 0.1,0 l 1.1,-0.3 -0.2,0.7 -0.6,0.2 c 0,0 -0.1,0.1 -0.1,0.1 l -0.3,1.2 c 0,0 0,0.1 0,0.1 l 0.9,0.9 c 0,0 0.1,0.1 0.1,0 l 1.2,-0.3 c 0,0 0.1,-0.1 0.1,-0.1 l 0.3,-1.2 c 0,0 0,-0.1 0,-0.1 l -0.4,-0.4 0.2,-0.7 0.8,0.8 c 0,0 0.1,0.1 0.1,0 l 0.4,-0.1 c 0,0 0.1,-0.1 0.1,-0.1 l 0.1,-0.4 c 0,0 0,-0.1 0,-0.1 l -1.2,-1.2 0.1,-0.5 1.5,-0.4 0.4,0.4 -0.4,1.7 c 0,0 0,0.1 0,0.1 l 0.3,0.3 c 0,0 0.1,0.1 0.1,0 l 0.4,-0.1 c 0,0 0.1,-0.1 0.1,-0.1 l 0.3,-1.1 0.5,0.5 -0.2,0.6 c 0,0 0,0.1 0,0.1 l 0.9,0.9 c 0,0 0.1,0.1 0.1,0 l 1.2,-0.3 c 0,0 0.1,-0.1 0.1,-0.1 l 0.3,-1.2 c 0,0 0,-0.1 0,-0.1 l -0.9,-0.9 c 0,0 -0.1,-0.1 -0.1,0 l -0.6,0.2 -0.4,-0.1 1.1,-0.3 c 0,0 0.1,-0.1 0.1,-0.1 l 0.1,-0.4 c 0,0 0,-0.1 0,-0.1 L 113,16.8 c 0,0 -0.1,-0.1 -0.1,0 l -1.7,0.4 -0.4,-0.4 0.4,-1.5 0.5,-0.1 1.2,1.2 c 0,0 0.1,0.1 0.1,0 l 0.4,-0.1 c 0,0 0.1,-0.1 0.1,-0.1 l 0.1,-0.4 c 0,0 0,-0.1 0,-0.1 l -0.8,-0.8 0.7,-0.2 0.4,0.4 c 0,0 0.1,0.1 0.1,0 l 1.2,-0.3 c 0,0 0.1,-0.1 0.1,-0.1 l 0.3,-1.2 c 0,0 0,-0.1 0,-0.1 z m -5.1,1 0.7,0.7 -1,0.3 z m -3.2,0.8 0.7,0.7 -1,0.3 z m 0.7,3 -0.7,-0.7 1,-0.3 z m 1,-3.1 -0.7,-0.7 1,-0.3 z m 0.3,3.5 0.3,-1 0.7,0.7 z m 1.9,-1.2 -0.7,-0.7 1,-0.3 z"
       transform="translate(-84.56,-22.044444)"
       opacity="0"
       fill="#e4efef"
       stroke="none"
       stroke-width="1" />
    <path
       id="ehk3zt8bvtng10"
       d="m 114.8,12.4 c 0,0 -0.1,-0.1 -0.1,0 l -1.2,0.3 c 0,0 -0.1,0.1 -0.1,0.1 l -0.2,0.6 -0.7,0.2 0.3,-1.1 c 0,0 0,-0.1 0,-0.1 l -0.3,-0.3 c 0,0 -0.1,-0.1 -0.1,0 l -0.4,0.1 c 0,0 -0.1,0.1 -0.1,0.1 l -0.4,1.7 -0.5,0.1 -1.1,-1.1 0.1,-0.5 1.7,-0.4 c 0,0 0.1,-0.1 0.1,-0.1 l 0.1,-0.4 c 0,0 0,-0.1 0,-0.1 l -0.3,-0.3 c 0,0 -0.1,-0.1 -0.1,0 l -1.1,0.3 0.2,-0.7 0.6,-0.2 c 0,0 0.1,-0.1 0.1,-0.1 l 0.3,-1.2 c 0,0 0,-0.1 0,-0.1 L 110.5,8 c 0,0 -0.1,-0.1 -0.1,0 l -1.2,0.3 c 0,0 -0.1,0.1 -0.1,0.1 l -0.3,1.2 c 0,0 0,0.1 0,0.1 l 0.4,0.4 -0.2,0.7 -0.8,-0.8 c 0,0 -0.1,-0.1 -0.1,0 l -0.4,0.1 c 0,0 -0.1,0.1 -0.1,0.1 l -0.1,0.4 c 0,0 0,0.1 0,0.1 l 1.2,1.2 -0.1,0.5 -1.5,0.4 -0.4,-0.4 0.4,-1.7 c 0,0 0,-0.1 0,-0.1 l -0.3,-0.3 c 0,0 -0.1,-0.1 -0.1,0 l -0.4,0.1 c 0,0 -0.1,0.1 -0.1,0.1 l -0.3,1.1 -0.5,-0.5 0.2,-0.6 c 0,0 0,-0.1 0,-0.1 l -0.9,-0.9 c 0,0 -0.1,-0.1 -0.1,0 l -1.2,0.3 c 0,0 -0.1,0.1 -0.1,0.1 l -0.3,1.2 c 0,0 0,0.1 0,0.1 l 0.9,0.9 c 0,0 0.1,0.1 0.1,0 l 0.6,-0.2 0.5,0.5 -1.1,0.3 c 0,0 -0.1,0.1 -0.1,0.1 l -0.1,0.4 c 0,0 0,0.1 0,0.1 l 0.3,0.3 c 0,0 0.1,0.1 0.1,0 l 1.7,-0.4 0.4,0.4 -0.4,1.5 -0.5,0.1 -1.2,-1.2 c 0,0 -0.1,-0.1 -0.1,0 l -0.4,0.1 c 0,0 -0.1,0.1 -0.1,0.1 l -0.1,0.4 c 0,0 0,0.1 0,0.1 l 0.8,0.8 -0.7,0.2 -0.4,-0.4 c 0,0 -0.1,-0.1 -0.1,0 l -1.2,0.3 c 0,0 -0.1,0.1 -0.1,0.1 l -0.3,1.2 c 0,0 0,0.1 0,0.1 l 0.9,0.9 c 0,0 0.1,0.1 0.1,0 l 1.2,-0.3 c 0,0 0.1,-0.1 0.1,-0.1 l 0.2,-0.6 0.7,-0.2 -0.3,1.1 c 0,0 0,0.1 0,0.1 l 0.3,0.3 c 0,0 0.1,0.1 0.1,0 l 0.4,-0.1 c 0,0 0.1,-0.1 0.1,-0.1 l 0.4,-1.7 0.5,-0.1 1.1,1.1 -0.1,0.5 -1.7,0.4 c 0,0 -0.1,0.1 -0.1,0.1 l -0.1,0.4 c 0,0 0,0.1 0,0.1 l 0.3,0.3 c 0,0 0.1,0.1 0.1,0 l 1.1,-0.3 -0.2,0.7 -0.6,0.2 c 0,0 -0.1,0.1 -0.1,0.1 l -0.3,1.2 c 0,0 0,0.1 0,0.1 l 0.9,0.9 c 0,0 0.1,0.1 0.1,0 l 1.2,-0.3 c 0,0 0.1,-0.1 0.1,-0.1 l 0.3,-1.2 c 0,0 0,-0.1 0,-0.1 l -0.4,-0.4 0.2,-0.7 0.8,0.8 c 0,0 0.1,0.1 0.1,0 l 0.4,-0.1 c 0,0 0.1,-0.1 0.1,-0.1 l 0.1,-0.4 c 0,0 0,-0.1 0,-0.1 l -1.2,-1.2 0.1,-0.5 1.5,-0.4 0.4,0.4 -0.4,1.7 c 0,0 0,0.1 0,0.1 l 0.3,0.3 c 0,0 0.1,0.1 0.1,0 l 0.4,-0.1 c 0,0 0.1,-0.1 0.1,-0.1 l 0.3,-1.1 0.5,0.5 -0.2,0.6 c 0,0 0,0.1 0,0.1 l 0.9,0.9 c 0,0 0.1,0.1 0.1,0 l 1.2,-0.3 c 0,0 0.1,-0.1 0.1,-0.1 l 0.3,-1.2 c 0,0 0,-0.1 0,-0.1 l -0.9,-0.9 c 0,0 -0.1,-0.1 -0.1,0 l -0.6,0.2 -0.4,-0.1 1.1,-0.3 c 0,0 0.1,-0.1 0.1,-0.1 l 0.1,-0.4 c 0,0 0,-0.1 0,-0.1 L 113,16.8 c 0,0 -0.1,-0.1 -0.1,0 l -1.7,0.4 -0.4,-0.4 0.4,-1.5 0.5,-0.1 1.2,1.2 c 0,0 0.1,0.1 0.1,0 l 0.4,-0.1 c 0,0 0.1,-0.1 0.1,-0.1 l 0.1,-0.4 c 0,0 0,-0.1 0,-0.1 l -0.8,-0.8 0.7,-0.2 0.4,0.4 c 0,0 0.1,0.1 0.1,0 l 1.2,-0.3 c 0,0 0.1,-0.1 0.1,-0.1 l 0.3,-1.2 c 0,0 0,-0.1 0,-0.1 z m -5.1,1 0.7,0.7 -1,0.3 z m -3.2,0.8 0.7,0.7 -1,0.3 z m 0.7,3 -0.7,-0.7 1,-0.3 z m 1,-3.1 -0.7,-0.7 1,-0.3 z m 0.3,3.5 0.3,-1 0.7,0.7 z m 1.9,-1.2 -0.7,-0.7 1,-0.3 z"
       transform="translate(62.8,-21.115361)"
       opacity="0"
       fill="#e4efef"
       stroke="none"
       stroke-width="1" />
    <path
       id="ehk3zt8bvtng11"
       d="m 114.8,12.4 c 0,0 -0.1,-0.1 -0.1,0 l -1.2,0.3 c 0,0 -0.1,0.1 -0.1,0.1 l -0.2,0.6 -0.7,0.2 0.3,-1.1 c 0,0 0,-0.1 0,-0.1 l -0.3,-0.3 c 0,0 -0.1,-0.1 -0.1,0 l -0.4,0.1 c 0,0 -0.1,0.1 -0.1,0.1 l -0.4,1.7 -0.5,0.1 -1.1,-1.1 0.1,-0.5 1.7,-0.4 c 0,0 0.1,-0.1 0.1,-0.1 l 0.1,-0.4 c 0,0 0,-0.1 0,-0.1 l -0.3,-0.3 c 0,0 -0.1,-0.1 -0.1,0 l -1.1,0.3 0.2,-0.7 0.6,-0.2 c 0,0 0.1,-0.1 0.1,-0.1 l 0.3,-1.2 c 0,0 0,-0.1 0,-0.1 L 110.5,8 c 0,0 -0.1,-0.1 -0.1,0 l -1.2,0.3 c 0,0 -0.1,0.1 -0.1,0.1 l -0.3,1.2 c 0,0 0,0.1 0,0.1 l 0.4,0.4 -0.2,0.7 -0.8,-0.8 c 0,0 -0.1,-0.1 -0.1,0 l -0.4,0.1 c 0,0 -0.1,0.1 -0.1,0.1 l -0.1,0.4 c 0,0 0,0.1 0,0.1 l 1.2,1.2 -0.1,0.5 -1.5,0.4 -0.4,-0.4 0.4,-1.7 c 0,0 0,-0.1 0,-0.1 l -0.3,-0.3 c 0,0 -0.1,-0.1 -0.1,0 l -0.4,0.1 c 0,0 -0.1,0.1 -0.1,0.1 l -0.3,1.1 -0.5,-0.5 0.2,-0.6 c 0,0 0,-0.1 0,-0.1 l -0.9,-0.9 c 0,0 -0.1,-0.1 -0.1,0 l -1.2,0.3 c 0,0 -0.1,0.1 -0.1,0.1 l -0.3,1.2 c 0,0 0,0.1 0,0.1 l 0.9,0.9 c 0,0 0.1,0.1 0.1,0 l 0.6,-0.2 0.5,0.5 -1.1,0.3 c 0,0 -0.1,0.1 -0.1,0.1 l -0.1,0.4 c 0,0 0,0.1 0,0.1 l 0.3,0.3 c 0,0 0.1,0.1 0.1,0 l 1.7,-0.4 0.4,0.4 -0.4,1.5 -0.5,0.1 -1.2,-1.2 c 0,0 -0.1,-0.1 -0.1,0 l -0.4,0.1 c 0,0 -0.1,0.1 -0.1,0.1 l -0.1,0.4 c 0,0 0,0.1 0,0.1 l 0.8,0.8 -0.7,0.2 -0.4,-0.4 c 0,0 -0.1,-0.1 -0.1,0 l -1.2,0.3 c 0,0 -0.1,0.1 -0.1,0.1 l -0.3,1.2 c 0,0 0,0.1 0,0.1 l 0.9,0.9 c 0,0 0.1,0.1 0.1,0 l 1.2,-0.3 c 0,0 0.1,-0.1 0.1,-0.1 l 0.2,-0.6 0.7,-0.2 -0.3,1.1 c 0,0 0,0.1 0,0.1 l 0.3,0.3 c 0,0 0.1,0.1 0.1,0 l 0.4,-0.1 c 0,0 0.1,-0.1 0.1,-0.1 l 0.4,-1.7 0.5,-0.1 1.1,1.1 -0.1,0.5 -1.7,0.4 c 0,0 -0.1,0.1 -0.1,0.1 l -0.1,0.4 c 0,0 0,0.1 0,0.1 l 0.3,0.3 c 0,0 0.1,0.1 0.1,0 l 1.1,-0.3 -0.2,0.7 -0.6,0.2 c 0,0 -0.1,0.1 -0.1,0.1 l -0.3,1.2 c 0,0 0,0.1 0,0.1 l 0.9,0.9 c 0,0 0.1,0.1 0.1,0 l 1.2,-0.3 c 0,0 0.1,-0.1 0.1,-0.1 l 0.3,-1.2 c 0,0 0,-0.1 0,-0.1 l -0.4,-0.4 0.2,-0.7 0.8,0.8 c 0,0 0.1,0.1 0.1,0 l 0.4,-0.1 c 0,0 0.1,-0.1 0.1,-0.1 l 0.1,-0.4 c 0,0 0,-0.1 0,-0.1 l -1.2,-1.2 0.1,-0.5 1.5,-0.4 0.4,0.4 -0.4,1.7 c 0,0 0,0.1 0,0.1 l 0.3,0.3 c 0,0 0.1,0.1 0.1,0 l 0.4,-0.1 c 0,0 0.1,-0.1 0.1,-0.1 l 0.3,-1.1 0.5,0.5 -0.2,0.6 c 0,0 0,0.1 0,0.1 l 0.9,0.9 c 0,0 0.1,0.1 0.1,0 l 1.2,-0.3 c 0,0 0.1,-0.1 0.1,-0.1 l 0.3,-1.2 c 0,0 0,-0.1 0,-0.1 l -0.9,-0.9 c 0,0 -0.1,-0.1 -0.1,0 l -0.6,0.2 -0.4,-0.1 1.1,-0.3 c 0,0 0.1,-0.1 0.1,-0.1 l 0.1,-0.4 c 0,0 0,-0.1 0,-0.1 L 113,16.8 c 0,0 -0.1,-0.1 -0.1,0 l -1.7,0.4 -0.4,-0.4 0.4,-1.5 0.5,-0.1 1.2,1.2 c 0,0 0.1,0.1 0.1,0 l 0.4,-0.1 c 0,0 0.1,-0.1 0.1,-0.1 l 0.1,-0.4 c 0,0 0,-0.1 0,-0.1 l -0.8,-0.8 0.7,-0.2 0.4,0.4 c 0,0 0.1,0.1 0.1,0 l 1.2,-0.3 c 0,0 0.1,-0.1 0.1,-0.1 l 0.3,-1.2 c 0,0 0,-0.1 0,-0.1 z m -5.1,1 0.7,0.7 -1,0.3 z m -3.2,0.8 0.7,0.7 -1,0.3 z m 0.7,3 -0.7,-0.7 1,-0.3 z m 1,-3.1 -0.7,-0.7 1,-0.3 z m 0.3,3.5 0.3,-1 0.7,0.7 z m 1.9,-1.2 -0.7,-0.7 1,-0.3 z"
       transform="translate(-48.113139,-21.115361)"
       opacity="0"
       fill="#e4efef"
       stroke="none"
       stroke-width="1" />
    <path
       id="ehk3zt8bvtng12"
       d="m 114.8,12.4 c 0,0 -0.1,-0.1 -0.1,0 l -1.2,0.3 c 0,0 -0.1,0.1 -0.1,0.1 l -0.2,0.6 -0.7,0.2 0.3,-1.1 c 0,0 0,-0.1 0,-0.1 l -0.3,-0.3 c 0,0 -0.1,-0.1 -0.1,0 l -0.4,0.1 c 0,0 -0.1,0.1 -0.1,0.1 l -0.4,1.7 -0.5,0.1 -1.1,-1.1 0.1,-0.5 1.7,-0.4 c 0,0 0.1,-0.1 0.1,-0.1 l 0.1,-0.4 c 0,0 0,-0.1 0,-0.1 l -0.3,-0.3 c 0,0 -0.1,-0.1 -0.1,0 l -1.1,0.3 0.2,-0.7 0.6,-0.2 c 0,0 0.1,-0.1 0.1,-0.1 l 0.3,-1.2 c 0,0 0,-0.1 0,-0.1 L 110.5,8 c 0,0 -0.1,-0.1 -0.1,0 l -1.2,0.3 c 0,0 -0.1,0.1 -0.1,0.1 l -0.3,1.2 c 0,0 0,0.1 0,0.1 l 0.4,0.4 -0.2,0.7 -0.8,-0.8 c 0,0 -0.1,-0.1 -0.1,0 l -0.4,0.1 c 0,0 -0.1,0.1 -0.1,0.1 l -0.1,0.4 c 0,0 0,0.1 0,0.1 l 1.2,1.2 -0.1,0.5 -1.5,0.4 -0.4,-0.4 0.4,-1.7 c 0,0 0,-0.1 0,-0.1 l -0.3,-0.3 c 0,0 -0.1,-0.1 -0.1,0 l -0.4,0.1 c 0,0 -0.1,0.1 -0.1,0.1 l -0.3,1.1 -0.5,-0.5 0.2,-0.6 c 0,0 0,-0.1 0,-0.1 l -0.9,-0.9 c 0,0 -0.1,-0.1 -0.1,0 l -1.2,0.3 c 0,0 -0.1,0.1 -0.1,0.1 l -0.3,1.2 c 0,0 0,0.1 0,0.1 l 0.9,0.9 c 0,0 0.1,0.1 0.1,0 l 0.6,-0.2 0.5,0.5 -1.1,0.3 c 0,0 -0.1,0.1 -0.1,0.1 l -0.1,0.4 c 0,0 0,0.1 0,0.1 l 0.3,0.3 c 0,0 0.1,0.1 0.1,0 l 1.7,-0.4 0.4,0.4 -0.4,1.5 -0.5,0.1 -1.2,-1.2 c 0,0 -0.1,-0.1 -0.1,0 l -0.4,0.1 c 0,0 -0.1,0.1 -0.1,0.1 l -0.1,0.4 c 0,0 0,0.1 0,0.1 l 0.8,0.8 -0.7,0.2 -0.4,-0.4 c 0,0 -0.1,-0.1 -0.1,0 l -1.2,0.3 c 0,0 -0.1,0.1 -0.1,0.1 l -0.3,1.2 c 0,0 0,0.1 0,0.1 l 0.9,0.9 c 0,0 0.1,0.1 0.1,0 l 1.2,-0.3 c 0,0 0.1,-0.1 0.1,-0.1 l 0.2,-0.6 0.7,-0.2 -0.3,1.1 c 0,0 0,0.1 0,0.1 l 0.3,0.3 c 0,0 0.1,0.1 0.1,0 l 0.4,-0.1 c 0,0 0.1,-0.1 0.1,-0.1 l 0.4,-1.7 0.5,-0.1 1.1,1.1 -0.1,0.5 -1.7,0.4 c 0,0 -0.1,0.1 -0.1,0.1 l -0.1,0.4 c 0,0 0,0.1 0,0.1 l 0.3,0.3 c 0,0 0.1,0.1 0.1,0 l 1.1,-0.3 -0.2,0.7 -0.6,0.2 c 0,0 -0.1,0.1 -0.1,0.1 l -0.3,1.2 c 0,0 0,0.1 0,0.1 l 0.9,0.9 c 0,0 0.1,0.1 0.1,0 l 1.2,-0.3 c 0,0 0.1,-0.1 0.1,-0.1 l 0.3,-1.2 c 0,0 0,-0.1 0,-0.1 l -0.4,-0.4 0.2,-0.7 0.8,0.8 c 0,0 0.1,0.1 0.1,0 l 0.4,-0.1 c 0,0 0.1,-0.1 0.1,-0.1 l 0.1,-0.4 c 0,0 0,-0.1 0,-0.1 l -1.2,-1.2 0.1,-0.5 1.5,-0.4 0.4,0.4 -0.4,1.7 c 0,0 0,0.1 0,0.1 l 0.3,0.3 c 0,0 0.1,0.1 0.1,0 l 0.4,-0.1 c 0,0 0.1,-0.1 0.1,-0.1 l 0.3,-1.1 0.5,0.5 -0.2,0.6 c 0,0 0,0.1 0,0.1 l 0.9,0.9 c 0,0 0.1,0.1 0.1,0 l 1.2,-0.3 c 0,0 0.1,-0.1 0.1,-0.1 l 0.3,-1.2 c 0,0 0,-0.1 0,-0.1 l -0.9,-0.9 c 0,0 -0.1,-0.1 -0.1,0 l -0.6,0.2 -0.4,-0.1 1.1,-0.3 c 0,0 0.1,-0.1 0.1,-0.1 l 0.1,-0.4 c 0,0 0,-0.1 0,-0.1 L 113,16.8 c 0,0 -0.1,-0.1 -0.1,0 l -1.7,0.4 -0.4,-0.4 0.4,-1.5 0.5,-0.1 1.2,1.2 c 0,0 0.1,0.1 0.1,0 l 0.4,-0.1 c 0,0 0.1,-0.1 0.1,-0.1 l 0.1,-0.4 c 0,0 0,-0.1 0,-0.1 l -0.8,-0.8 0.7,-0.2 0.4,0.4 c 0,0 0.1,0.1 0.1,0 l 1.2,-0.3 c 0,0 0.1,-0.1 0.1,-0.1 l 0.3,-1.2 c 0,0 0,-0.1 0,-0.1 z m -5.1,1 0.7,0.7 -1,0.3 z m -3.2,0.8 0.7,0.7 -1,0.3 z m 0.7,3 -0.7,-0.7 1,-0.3 z m 1,-3.1 -0.7,-0.7 1,-0.3 z m 0.3,3.5 0.3,-1 0.7,0.7 z m 1.9,-1.2 -0.7,-0.7 1,-0.3 z"
       transform="translate(-2.7734014,-21.2)"
       opacity="0"
       fill="#e4efef"
       stroke="none"
       stroke-width="1" />
  </g>
  <g
     id="ehk3zt8bvtng13"
     class="logo-text"
     transform="translate(-6)">
    <path
       id="ehk3zt8bvtng14"
       d="m 105,38.8 c -1.1,-1.1 -2.6,-1.7 -4.4,-1.7 -3.9,0 -7,3.3 -7,7.6 0,4.3 3,7.6 7,7.6 1.6,0 3.2,-0.7 4.4,-1.8 v 1.4 h 3.8 V 37.4 H 105 Z m -3.7,9.8 c -2.1,0 -3.8,-1.8 -3.8,-4 0,-2.2 1.6,-4 3.8,-4 2.2,0 3.8,1.8 3.8,4 0,2.2 -1.7,4 -3.8,4 z m 14.2,-17.2 h -3.9 v 20.4 h 3.9 z m 6.6,0 h -3.9 v 20.4 h 3.9 z"
       fill="#949faf"
       stroke="none"
       stroke-width="1" />
    <path
       id="ehk3zt8bvtng15"
       d="m 135.2,31.1 c -5.8,0 -10.5,4.8 -10.5,10.6 0,5.8 4.7,10.5 10.5,10.5 5.8,0 10.5,-4.8 10.5,-10.5 0,-5.8 -4.7,-10.6 -10.5,-10.6 z m 0,17.2 c -3.6,0 -6.4,-2.9 -6.4,-6.7 0,-3.8 2.8,-6.7 6.4,-6.7 3.6,0 6.4,2.9 6.4,6.7 0,3.8 -2.8,6.7 -6.4,6.7 z M 156,37 c -1.6,0 -2.9,0.6 -3.9,1.6 v -1.3 h -3.9 v 14.5 h 3.9 v -7.6 c 0,-2.2 1.2,-3.6 2.9,-3.6 1.7,0 2.7,1.1 2.7,3.2 v 8 h 3.9 v -8.7 c 0,-3.7 -2.1,-6.1 -5.6,-6.1 z m 15.3,0 c -4.1,0 -7.2,3.3 -7.2,7.6 0,4.4 3,7.6 7.4,7.6 2.8,0 5.2,-1.3 6.4,-3.8 0.3,-0.8 0.4,-1.4 0.4,-1.4 h -3.7 c -0.7,1.1 -1.6,1.8 -3.1,1.8 -1.8,0 -3.3,-1.3 -3.6,-2.9 h 10.5 v -0.4 -0.8 c -0.1,-4.4 -3,-7.7 -7.1,-7.7 z m -0.1,3.4 c 1.6,0 3,1.1 3.3,2.6 h -6.6 c 0.4,-1.3 1.7,-2.6 3.3,-2.6 z"
       fill="#86ed18"
       stroke="none"
       stroke-width="1" />
    <path
       id="ehk3zt8bvtng16"
       d="m 83,31 c -5.8,0 -10.5,4.8 -10.5,10.6 0,5.8 4.7,10.5 10.5,10.5 3.9,0 7.4,-2.1 9.2,-5.5 l 0.2,-0.5 h -4.8 l -0.1,0.1 c -1.2,1.3 -2.8,2 -4.6,2 -3.6,0 -6.4,-2.9 -6.4,-6.7 0,-3.8 2.8,-6.7 6.4,-6.7 2.3,0 4.4,1.3 5.5,3.3 l 0.1,0.2 H 93 L 92.8,37.9 C 91.3,33.9 87.4,31 83,31 Z"
       fill="#949faf"
       stroke="none"
       stroke-width="1" />
    <path
       id="ehk3zt8bvtng17"
       d="m 32.3,41.7 c 0,9.4 7.6,17 16.8,17 1.3,0 2.6,-0.2 3.9,-0.5 v -9.5 c -1.2,0.7 -2.5,1 -3.9,1 -4.4,0 -7.9,-3.6 -7.9,-8 0,-4.4 3.5,-8 7.9,-8 1.4,0 2.7,0.4 3.9,1 v -9.5 c -1.3,-0.3 -2.6,-0.5 -3.9,-0.5 -9.3,0 -16.8,7.7 -16.8,17 z m 24.6,-15 v 30 c 5.3,-2.8 8.9,-8.5 8.9,-15 0,-6.5 -3.5,-12.2 -8.9,-15 z"
       fill="#86ed18"
       stroke="none"
       stroke-width="1" />
  </g>
  <g
     id="ehk3zt8bvtng18"
     class="logo-hat"
     transform="translate(-6)">
    <g
       id="ehk3zt8bvtng19"
       transform="translate(0.08148076,0.49211521)">
      <g
         id="ehk3zt8bvtng20">
        <path
           id="ehk3zt8bvtng21"
           d="m 44.6,17.1 c 0,0 -12.3,-8.3 -19.1,-2.6 -2.3,1.9 -13,11 -14,20 -0.7,6 9,-8 11.4,-5.5 2.3,2.5 3,4.6 3,4.6 z"
           transform="translate(0.1,-0.04694522)"
           fill="#b72213"
           stroke="none"
           stroke-width="1" />
        <path
           id="ehk3zt8bvtng22"
           d="m 44.6,17.1 c -2.3,-1.3 -4.9,-2.5 -7.5,-3.4 -2.6,-0.8 -5.4,-1.3 -8,-0.7 -1.3,0.3 -2.5,0.9 -3.5,1.7 -1.1,0.9 -2.1,1.8 -3.1,2.7 -2,1.9 -3.9,3.8 -5.7,6 -1.7,2.2 -3.2,4.5 -4.2,7.1 -0.5,1.3 -0.9,2.6 -1,4 0,0.3 0,0.7 0,1 0.1,0.3 0.3,0.3 0.6,0.2 0.6,-0.2 1.1,-0.7 1.6,-1.1 2.1,-1.8 3.9,-3.9 6.2,-5.5 0.6,-0.4 1.2,-0.8 2.1,-0.8 0.2,0 0.5,0.1 0.6,0.2 0.2,0.2 0.3,0.3 0.4,0.4 0.2,0.3 0.5,0.5 0.7,0.8 0.9,1.1 1.7,2.3 2.2,3.7 l -0.6,-0.2 c 1.5,-1.4 3.1,-2.7 4.6,-4.1 1.5,-1.4 3.1,-2.7 4.7,-4 z m 0.1,0 -9.1,8.4 c -1.5,1.4 -3.1,2.8 -4.7,4.2 -1.6,1.4 -3.2,2.8 -4.8,4.2 -0.2,0.1 -0.4,0.1 -0.5,0 0,0 -0.1,-0.1 -0.1,-0.1 v 0 c -0.4,-1.2 -1.2,-2.4 -2,-3.5 -0.2,-0.3 -0.4,-0.5 -0.6,-0.8 -0.3,-0.3 -0.4,-0.4 -0.6,-0.4 -0.5,-0.1 -1.2,0.3 -1.7,0.6 -2.3,1.5 -4.2,3.5 -6.3,5.3 -0.6,0.4 -1.1,0.9 -1.8,1.1 -0.2,0.1 -0.4,0.1 -0.6,0 -0.2,-0.1 -0.4,-0.3 -0.4,-0.5 -0.1,-0.4 -0.1,-0.7 0,-1.1 0.2,-1.4 0.6,-2.7 1.1,-4 1,-2.6 2.5,-4.9 4.2,-7.1 1.7,-2.2 3.5,-4.3 5.5,-6.2 1,-1 2,-1.9 3.1,-2.8 1.1,-0.9 2.4,-1.6 3.8,-1.9 2.8,-0.6 5.7,-0.1 8.3,0.9 2.4,0.8 4.9,2.1 7.2,3.7 z"
           fill="#000000"
           stroke="none"
           stroke-width="1" />
      </g>
    </g>
    <g
       id="ehk3zt8bvtng23">
      <path
         id="ehk3zt8bvtng24"
         d="m 25.2,34.3 c 0,0 -1,0.8 -0.2,2.3 0.8,1.5 4.1,4.9 5.6,5.1 1.5,0.2 3.2,-1.3 3.2,-1.3 0,0 0.4,-1.1 0.7,-1.3 0.3,-0.2 1.8,-0.4 2.1,-1.1 0.3,-0.7 0.6,-0.8 1.1,-1.3 0.5,-0.4 1.6,-0.6 2.1,-1.1 0.5,-0.4 0.7,-1.3 1.2,-1.7 0.5,-0.4 1.9,-0.8 2.4,-1.3 0.5,-0.4 0.9,-1.5 1.7,-2.1 0.8,-0.6 1.8,-0.4 2.3,-0.8 0.5,-0.4 0.7,-1.7 1.5,-2.3 0.8,-0.6 2,-0.6 2.6,-1 0.5,-0.4 2.3,-1.9 1.8,-3 -0.5,-1.1 -2,-4.5 -5.8,-7.5 -0.7,-0.5 -2.3,0.8 -2.3,0.8 z"
         fill="#ffffff"
         stroke="#000000"
         stroke-width="0.75"
         stroke-linecap="round"
         stroke-linejoin="round"
         stroke-miterlimit="10" />
    </g>
    <g
       id="ehk3zt8bvtng25">
      <g
         id="ehk3zt8bvtng26">
        <path
           id="ehk3zt8bvtng27"
           d="m 25.5,33.6 c 0.1,-2.1 0.4,-4.1 1,-6 0.3,-1 0.7,-1.9 1.1,-2.8 0.5,-0.9 1.1,-1.7 1.8,-2.5 -0.6,0.8 -1.2,1.6 -1.6,2.5 -0.4,0.9 -0.7,1.9 -0.9,2.8 -0.4,1.9 -0.6,3.9 -0.6,5.9 v 0 c 0,0.2 -0.2,0.4 -0.4,0.4 -0.3,0.1 -0.4,0 -0.4,-0.3 0,0.1 0,0.1 0,0 z"
           fill="#000000"
           stroke="none"
           stroke-width="1" />
      </g>
    </g>
    <g
       id="ehk3zt8bvtng28"
       transform="rotate(-4,23.300715,31.195734)">
      <ellipse
         id="ehk3zt8bvtng29"
         rx="3.5999999"
         ry="3.7"
         transform="matrix(0.7695,-0.6387,0.6387,0.7695,11.09947,38.59643)"
         fill="#ffffff"
         stroke="#000000"
         stroke-width="0.75"
         stroke-linecap="round"
         stroke-linejoin="round"
         stroke-miterlimit="10"
         cx="0"
         cy="0" />
    </g>
  </g>
  <script
     id="script30"><![CDATA[!function(t,n){"object"==typeof exports&&"undefined"!=typeof module?module.exports=n():"function"==typeof define&&define.amd?define(n):(t=t||self).__SVGATOR_PLAYER__=n()}(this,(function(){"use strict";function t(n){return(t="function"==typeof Symbol&&"symbol"==typeof Symbol.iterator?function(t){return typeof t}:function(t){return t&&"function"==typeof Symbol&&t.constructor===Symbol&&t!==Symbol.prototype?"symbol":typeof t})(n)}function n(t,n){if(!(t instanceof n))throw new TypeError("Cannot call a class as a function")}function r(t,n){for(var r=0;r<n.length;r++){var e=n[r];e.enumerable=e.enumerable||!1,e.configurable=!0,"value"in e&&(e.writable=!0),Object.defineProperty(t,e.key,e)}}function e(t,n,e){return n&&r(t.prototype,n),e&&r(t,e),t}var i=1e-5,u=Math.abs;function o(t){return t}function a(t,n,r){var e=1-r;return 3*r*e*(t*e+n*r)+r*r*r}function l(){var t=arguments.length>0&&void 0!==arguments[0]?arguments[0]:0,n=arguments.length>1&&void 0!==arguments[1]?arguments[1]:0,r=arguments.length>2&&void 0!==arguments[2]?arguments[2]:1,e=arguments.length>3&&void 0!==arguments[3]?arguments[3]:1;return t<0||t>1||r<0||r>1?null:u(t-n)<=i&&u(r-e)<=i?o:function(o){if(o<=0)return t>0?o*n/t:0===n&&r>0?o*e/r:0;if(o>=1)return r<1?1+(o-1)*(e-1)/(r-1):1===r&&t<1?1+(o-1)*(n-1)/(t-1):1;for(var l,f=0,s=1;f<s;){var c=a(t,r,l=(f+s)/2);if(u(o-c)<i)break;c<o?f=l:s=l}return a(n,e,l)}}function f(){return 1}function s(t){return 1===t?1:0}function c(){var t=arguments.length>0&&void 0!==arguments[0]?arguments[0]:1,n=arguments.length>1&&void 0!==arguments[1]?arguments[1]:0;if(1===t){if(0===n)return s;if(1===n)return f}var r=1/t;return function(t){return t>=1?1:(t+=n*r)-t%r}}function v(t){var n=arguments.length>1&&void 0!==arguments[1]?arguments[1]:2;if(Number.isInteger(t))return t;var r=Math.pow(10,n);return Math.round(t*r)/r}var h=Math.PI/180;function y(t,n,r){return t>=.5?r:n}function d(t,n,r){return 0===t||n===r?n:t*(r-n)+n}function g(t,n,r){var e=d(t,n,r);return e<=0?0:e}function m(t,n,r){return 0===t?n:1===t?r:{x:d(t,n.x,r.x),y:d(t,n.y,r.y)}}function p(t,n,r){return 0===t?n:1===t?r:{x:g(t,n.x,r.x),y:g(t,n.y,r.y)}}function b(t,n,r){var e=function(t,n,r){return Math.round(d(t,n,r))}(t,n,r);return e<=0?0:e>=255?255:e}function w(t,n,r){return 0===t?n:1===t?r:{r:b(t,n.r,r.r),g:b(t,n.g,r.g),b:b(t,n.b,r.b),a:d(t,null==n.a?1:n.a,null==r.a?1:r.a)}}function A(t,n,r){if(0===t)return n;if(1===t)return r;var e=n.length;if(e!==r.length)return y(t,n,r);for(var i=[],u=0;u<e;u++)i.push(w(t,n[u],r[u]));return i}function x(t,n,r){var e=n.length;if(e!==r.length)return y(t,n,r);for(var i=new Array(e),u=0;u<e;u++)i[u]=d(t,n[u],r[u]);return i}function k(t,n){for(var r=[],e=0;e<t;e++)r.push(n);return r}function S(t,n){if(--n<=0)return t;var r=(t=Object.assign([],t)).length;do{for(var e=0;e<r;e++)t.push(t[e])}while(--n>0);return t}var _=6,M=/\.0+$/g;function I(t){return Number.isInteger(t)?t+"":t.toFixed(_).replace(M,"")}function E(t){var n=arguments.length>1&&void 0!==arguments[1]?arguments[1]:" ";return t&&t.length?t.map(I).join(n):""}function F(t){return I(t.x)+","+I(t.y)}function B(t){return t?null==t.a||t.a>=1?"rgb("+t.r+","+t.g+","+t.b+")":"rgba("+t.r+","+t.g+","+t.b+","+t.a+")":"transparent"}var j={f:null,i:p,u:function(t,n){return function(r){var e=n(r);t.setAttribute("rx",I(e.x)),t.setAttribute("ry",I(e.y))}}},q={f:null,i:function(t,n,r){return 0===t?n:1===t?r:{width:g(t,n.width,r.width),height:g(t,n.height,r.height)}},u:function(t,n){return function(r){var e=n(r);t.setAttribute("width",I(e.width)),t.setAttribute("height",I(e.height))}}},P=Math.sin,O=Math.cos,z=Math.acos,L=Math.asin,C=Math.tan,R=Math.atan2,T=Math.PI/180,V=180/Math.PI,D=Math.sqrt,N=function(){function t(){var r=arguments.length>0&&void 0!==arguments[0]?arguments[0]:1,e=arguments.length>1&&void 0!==arguments[1]?arguments[1]:0,i=arguments.length>2&&void 0!==arguments[2]?arguments[2]:0,u=arguments.length>3&&void 0!==arguments[3]?arguments[3]:1,o=arguments.length>4&&void 0!==arguments[4]?arguments[4]:0,a=arguments.length>5&&void 0!==arguments[5]?arguments[5]:0;n(this,t),this.m=[r,e,i,u,o,a],this.i=null,this.w=null,this.s=null}return e(t,[{key:"point",value:function(t,n){var r=this.m;return{x:r[0]*t+r[2]*n+r[4],y:r[1]*t+r[3]*n+r[5]}}},{key:"translateSelf",value:function(){var t=arguments.length>0&&void 0!==arguments[0]?arguments[0]:0,n=arguments.length>1&&void 0!==arguments[1]?arguments[1]:0;if(!t&&!n)return this;var r=this.m;return r[4]+=r[0]*t+r[2]*n,r[5]+=r[1]*t+r[3]*n,this.w=this.s=this.i=null,this}},{key:"rotateSelf",value:function(){var t=arguments.length>0&&void 0!==arguments[0]?arguments[0]:0;if(t%=360){var n=P(t*=T),r=O(t),e=this.m,i=e[0],u=e[1];e[0]=i*r+e[2]*n,e[1]=u*r+e[3]*n,e[2]=e[2]*r-i*n,e[3]=e[3]*r-u*n,this.w=this.s=this.i=null}return this}},{key:"scaleSelf",value:function(){var t=arguments.length>0&&void 0!==arguments[0]?arguments[0]:1,n=arguments.length>1&&void 0!==arguments[1]?arguments[1]:1;if(1!==t||1!==n){var r=this.m;r[0]*=t,r[1]*=t,r[2]*=n,r[3]*=n,this.w=this.s=this.i=null}return this}},{key:"skewSelf",value:function(t,n){if(n%=360,(t%=360)||n){var r=this.m,e=r[0],i=r[1],u=r[2],o=r[3];t&&(t=C(t*T),r[2]+=e*t,r[3]+=i*t),n&&(n=C(n*T),r[0]+=u*n,r[1]+=o*n),this.w=this.s=this.i=null}return this}},{key:"resetSelf",value:function(){var t=arguments.length>0&&void 0!==arguments[0]?arguments[0]:1,n=arguments.length>1&&void 0!==arguments[1]?arguments[1]:0,r=arguments.length>2&&void 0!==arguments[2]?arguments[2]:0,e=arguments.length>3&&void 0!==arguments[3]?arguments[3]:1,i=arguments.length>4&&void 0!==arguments[4]?arguments[4]:0,u=arguments.length>5&&void 0!==arguments[5]?arguments[5]:0,o=this.m;return o[0]=t,o[1]=n,o[2]=r,o[3]=e,o[4]=i,o[5]=u,this.w=this.s=this.i=null,this}},{key:"recomposeSelf",value:function(){var t=arguments.length>0&&void 0!==arguments[0]?arguments[0]:null,n=arguments.length>1&&void 0!==arguments[1]?arguments[1]:null,r=arguments.length>2&&void 0!==arguments[2]?arguments[2]:null,e=arguments.length>3&&void 0!==arguments[3]?arguments[3]:null,i=arguments.length>4&&void 0!==arguments[4]?arguments[4]:null;return this.isIdentity||this.resetSelf(),t&&(t.x||t.y)&&this.translateSelf(t.x,t.y),n&&this.rotateSelf(n),r&&(r.x&&this.skewSelf(r.x,0),r.y&&this.skewSelf(0,r.y)),!e||1===e.x&&1===e.y||this.scaleSelf(e.x,e.y),i&&(i.x||i.y)&&this.translateSelf(i.x,i.y),this}},{key:"decompose",value:function(){var t=arguments.length>0&&void 0!==arguments[0]?arguments[0]:0,n=arguments.length>1&&void 0!==arguments[1]?arguments[1]:0,r=this.m,e=r[0]*r[0]+r[1]*r[1],i=[[r[0],r[1]],[r[2],r[3]]],u=D(e);if(0===u)return{origin:{x:r[4],y:r[5]},translate:{x:t,y:n},scale:{x:0,y:0},skew:{x:0,y:0},rotate:0};i[0][0]/=u,i[0][1]/=u;var o=r[0]*r[3]-r[1]*r[2]<0;o&&(u=-u);var a=i[0][0]*i[1][0]+i[0][1]*i[1][1];i[1][0]-=i[0][0]*a,i[1][1]-=i[0][1]*a;var l=D(i[1][0]*i[1][0]+i[1][1]*i[1][1]);if(0===l)return{origin:{x:r[4],y:r[5]},translate:{x:t,y:n},scale:{x:u,y:0},skew:{x:0,y:0},rotate:0};i[1][0]/=l,i[1][1]/=l,a/=l;var f=0;return i[1][1]<0?(f=z(i[1][1])*V,i[0][1]<0&&(f=360-f)):f=L(i[0][1])*V,o&&(f=-f),a=R(a,D(i[0][0]*i[0][0]+i[0][1]*i[0][1]))*V,{origin:{x:r[4],y:r[5]},translate:{x:t,y:n},scale:{x:u,y:l},skew:{x:a,y:0},rotate:f}}},{key:"toString",value:function(){return null===this.s&&(this.s="matrix("+this.m.map($).join(" ")+")"),this.s}},{key:"determinant",get:function(){var t=this.m;return t[0]*t[3]-t[1]*t[2]}},{key:"isIdentity",get:function(){if(null===this.i){var t=this.m;this.i=1===t[0]&&0===t[1]&&0===t[2]&&1===t[3]&&0===t[4]&&0===t[5]}return this.i}}]),t}(),G=/\.0+$/;function $(t){return Number.isInteger(t)?t:t.toFixed(14).replace(G,"")}Object.freeze({M:2,L:2,Z:0,H:1,V:1,C:6,Q:4,T:2,S:4,A:7});function H(t,n,r){return t+(n-t)*r}function Q(t,n,r){var e=arguments.length>3&&void 0!==arguments[3]&&arguments[3],i={x:H(t.x,n.x,r),y:H(t.y,n.y,r)};return e&&(i.a=function(t,n){return Math.atan2(n.y-t.y,n.x-t.x)}(t,n)),i}function U(t,n,r,e){var i=1-e;return i*i*t+2*i*e*n+e*e*r}function Y(t,n,r,e){return 2*(1-e)*(n-t)+2*e*(r-n)}function Z(t,n,r,e){var i=arguments.length>4&&void 0!==arguments[4]&&arguments[4],u={x:U(t.x,n.x,r.x,e),y:U(t.y,n.y,r.y,e)};return i&&(u.a=function(t,n,r,e){return Math.atan2(Y(t.y,n.y,r.y,e),Y(t.x,n.x,r.x,e))}(t,n,r,e)),u}function J(t,n,r,e,i){var u=i*i;return i*u*(e-t+3*(n-r))+3*u*(t+r-2*n)+3*i*(n-t)+t}function K(t,n,r,e,i){var u=1-i;return 3*(u*u*(n-t)+2*u*i*(r-n)+i*i*(e-r))}function W(t,n,r,e,i){var u=arguments.length>5&&void 0!==arguments[5]&&arguments[5],o={x:J(t.x,n.x,r.x,e.x,i),y:J(t.y,n.y,r.y,e.y,i)};return u&&(o.a=function(t,n,r,e,i){return Math.atan2(K(t.y,n.y,r.y,e.y,i),K(t.x,n.x,r.x,e.x,i))}(t,n,r,e,i)),o}function X(t,n,r){var e,i=arguments.length>3&&void 0!==arguments[3]&&arguments[3];if(nt(n)){if(null!=(e=r).start&&!nt(e))return Z(n,r.start,r,t,i)}else if(nt(r)){if(n.end)return Z(n,n.end,r,t,i)}else{if(n.end)return r.start?W(n,n.end,r.start,r,t,i):Z(n,n.end,r,t,i);if(r.start)return Z(n,r.start,r,t,i)}return Q(n,r,t,i)}function tt(t,n,r){var e=X(t,n,r,!0);return e.a=function(t){return arguments.length>1&&void 0!==arguments[1]&&arguments[1]?t+Math.PI:t}(e.a)/h,e}function nt(t){return!t.type||"corner"===t.type}var rt=new N;var et={f:function(t){return t?t.join(" "):""},i:function(n,r,e){if(0===n)return r;if(1===n)return e;var i=r.length;if(i!==e.length)return y(n,r,e);for(var u,o=new Array(i),a=0;a<i;a++){if((u=t(r[a]))!==t(e[a]))return y(n,r,e);if("number"===u)o[a]=d(n,r[a],e[a]);else{if(r[a]!==e[a])return y(n,r,e);o[a]=r[a]}}return o}},it={f:null,i:x,u:function(t,n){return function(r){var e=n(r);t.setAttribute("x1",I(e[0])),t.setAttribute("y1",I(e[1])),t.setAttribute("x2",I(e[2])),t.setAttribute("y2",I(e[3]))}}},ut={f:I,i:d},ot={f:I,i:function(t,n,r){var e=d(t,n,r);return e<=0?0:e>=1?1:e}},at={f:E,i:function(t,n,r){var e,i,u,o=n.length,a=r.length;if(o!==a)if(0===o)n=k(o=a,0);else if(0===a)a=o,r=k(o,0);else{var l=(u=(e=o)*(i=a)/function(t,n){for(var r;n;)r=n,n=t%n,t=r;return t||1}(e,i))<0?-u:u;n=S(n,Math.floor(l/o)),r=S(r,Math.floor(l/a)),o=a=l}for(var f=[],s=0;s<o;s++)f.push(v(g(t,n[s],r[s]),6));return f}};function lt(t,n,r,e,i,u,o,a){return n=function(t,n,r){for(var e,i,u,o=t.length-1,a={},l=0;l<=o;l++)(e=t[l]).e&&(e.e=n(e.e)),e.v&&"g"===(i=e.v).t&&i.r&&(u=r.getElementById(i.r))&&(a[i.r]=u.querySelectorAll("stop"));return a}(t,e,a),function(e){var i,u=r(e,t,ft);return u?"c"===u.t?B(u.v):"g"===u.t?(n[u.r]&&function(t,n){for(var r=0,e=t.length;r<e;r++)t[r].setAttribute("stop-color",B(n[r]))}(n[u.r],u.v),(i=u.r)?"url(#"+i+")":"none"):"none":"none"}}function ft(t,n,r){if(0===t)return n;if(1===t)return r;if(n&&r){var e=n.t;if(e===r.t)switch(n.t){case"c":return{t:e,v:w(t,n.v,r.v)};case"g":if(n.r===r.r)return{t:e,v:A(t,n.v,r.v),r:n.r}}}return y(t,n,r)}var st={blur:p,brightness:g,contrast:g,"drop-shadow":function(t,n,r){return 0===t?n:1===t?r:{blur:p(t,n.blur,r.blur),offset:m(t,n.offset,r.offset),color:w(t,n.color,r.color)}},grayscale:g,"hue-rotate":d,invert:g,opacity:g,saturate:g,sepia:g};function ct(t,n,r){if(0===t)return n;if(1===t)return r;var e=n.length;if(e!==r.length)return y(t,n,r);for(var i,u=[],o=0;o<e;o++){if(n[o].type!==r[o].type)return n;if(!(i=st[n[o].type]))return y(t,n,r);u.push({type:n.type,value:i(t,n[o].value,r[o].value)})}return u}var vt={blur:function(t){return t?function(n){t.setAttribute("stdDeviation",F(n))}:null},brightness:function(t,n,r){return(t=yt(r,n))?function(n){n=I(n),t.map((function(t){return t.setAttribute("slope",n)}))}:null},contrast:function(t,n,r){return(t=yt(r,n))?function(n){var r=I((1-n)/2);n=I(n),t.map((function(t){t.setAttribute("slope",n),t.setAttribute("intercept",r)}))}:null},"drop-shadow":function(t,n,r){var e=r.getElementById(n+"-blur");if(!e)return null;var i=r.getElementById(n+"-offset");if(!i)return null;var u=r.getElementById(n+"-flood");return u?function(t){e.setAttribute("stdDeviation",F(t.blur)),i.setAttribute("dx",I(t.offset.x)),i.setAttribute("dy",I(t.offset.y)),u.setAttribute("flood-color",B(t.color))}:null},grayscale:function(t){return t?function(n){t.setAttribute("values",E(function(t){return[.2126+.7874*(t=1-t),.7152-.7152*t,.0722-.0722*t,0,0,.2126-.2126*t,.7152+.2848*t,.0722-.0722*t,0,0,.2126-.2126*t,.7152-.7152*t,.0722+.9278*t,0,0,0,0,0,1,0]}(n)))}:null},"hue-rotate":function(t){return t?function(n){return t.setAttribute("values",I(n))}:null},invert:function(t,n,r){return(t=yt(r,n))?function(n){n=I(n)+" "+I(1-n),t.map((function(t){return t.setAttribute("tableValues",n)}))}:null},opacity:function(t,n,r){return(t=r.getElementById(n+"-A"))?function(n){return t.setAttribute("tableValues","0 "+I(n))}:null},saturate:function(t){return t?function(n){return t.setAttribute("values",I(n))}:null},sepia:function(t){return t?function(n){return t.setAttribute("values",E(function(t){return[.393+.607*(t=1-t),.769-.769*t,.189-.189*t,0,0,.349-.349*t,.686+.314*t,.168-.168*t,0,0,.272-.272*t,.534-.534*t,.131+.869*t,0,0,0,0,0,1,0]}(n)))}:null}};var ht=["R","G","B"];function yt(t,n){var r=ht.map((function(r){return t.getElementById(n+"-"+r)||null}));return-1!==r.indexOf(null)?null:r}var dt={fill:lt,"fill-opacity":ot,stroke:lt,"stroke-opacity":ot,"stroke-width":ut,"stroke-dashoffset":{f:I,i:d},"stroke-dasharray":at,opacity:ot,transform:function(n,r,e,i){if(!(n=function(n,r){if(!n||"object"!==t(n))return null;var e=!1;for(var i in n)n.hasOwnProperty(i)&&(n[i]&&n[i].length?(n[i].forEach((function(t){t.e&&(t.e=r(t.e))})),e=!0):delete n[i]);return e?n:null}(n,i)))return null;var u=function(t,i,u){var o=arguments.length>3&&void 0!==arguments[3]?arguments[3]:null;return n[t]?e(i,n[t],u):r&&r[t]?r[t]:o};return r&&r.a&&n.o?function(t){var r=e(t,n.o,tt);return rt.recomposeSelf(r,u("r",t,d,0)+r.a,u("k",t,m),u("s",t,m),u("t",t,m)).toString()}:function(t){return rt.recomposeSelf(u("o",t,X,null),u("r",t,d,0),u("k",t,m),u("s",t,m),u("t",t,m)).toString()}},"#filter":function(t,n,r,e,i,u,o,a){if(!n.items||!t||!t.length)return null;var l=function(t,n){var r=(t=t.map((function(t){return t&&vt[t[0]]?(n.getElementById(t[1]),vt[t[0]](n.getElementById(t[1]),t[1],n)):null}))).length;return function(n){for(var e=0;e<r;e++)t[e]&&t[e](n[e].value)}}(n.items,a);return l?(t=function(t,n){return t.map((function(t){return t.e=n(t.e),t}))}(t,e),function(n){l(r(n,t,ct))}):null},"#line":it,points:{f:E,i:x},d:et,r:ut,"#size":q,"#radius":j,_:function(t,n){if(Array.isArray(t))for(var r=0;r<t.length;r++)this[t[r]]=n;else this[t]=n}},gt=function(){function t(r){n(this,t),this.list=r,this.length=r.length}return e(t,[{key:"setAttribute",value:function(t,n){for(var r=this.list,e=0;e<this.length;e++)r[e].setAttribute(t,n)}},{key:"removeAttribute",value:function(t){for(var n=this.list,r=0;r<this.length;r++)n[r].removeAttribute(t)}},{key:"style",value:function(t,n){for(var r=this.list,e=0;e<this.length;e++)r[e].style[t]=n}}]),t}(),mt=/-./g,pt=function(t,n){return n.toUpperCase()};function bt(t){return"function"==typeof t?t:y}function wt(t){return t?"function"==typeof t?t:Array.isArray(t)?function(t){var n=arguments.length>1&&void 0!==arguments[1]?arguments[1]:o;if(!Array.isArray(t))return n;switch(t.length){case 1:return c(t[0])||n;case 2:return c(t[0],t[1])||n;case 4:return l(t[0],t[1],t[2],t[3])||n}return n}(t,null):function(t,n){var r=arguments.length>2&&void 0!==arguments[2]?arguments[2]:o;switch(t){case"linear":return o;case"steps":return c(n.steps||1,n.jump||0)||r;case"bezier":case"cubic-bezier":return l(n.x1||0,n.y1||0,n.x2||0,n.y2||0)||r}return r}(t.type,t.value,null):null}function At(t,n,r){var e=arguments.length>3&&void 0!==arguments[3]&&arguments[3],i=n.length-1;if(t<=n[0].t)return e?[0,0,n[0].v]:n[0].v;if(t>=n[i].t)return e?[i,1,n[i].v]:n[i].v;var u,o=n[0],a=null;for(u=1;u<=i;u++){if(!(t>n[u].t)){a=n[u];break}o=n[u]}return null==a?e?[i,1,n[i].v]:n[i].v:o.t===a.t?e?[u,1,a.v]:a.v:(t=(t-o.t)/(a.t-o.t),o.e&&(t=o.e(t)),e?[u,t,r(t,o.v,a.v)]:r(t,o.v,a.v))}function xt(t,n){var r=arguments.length>2&&void 0!==arguments[2]?arguments[2]:null;return t&&t.length?"function"!=typeof n?null:("function"!=typeof r&&(r=null),function(e){var i=At(e,t,n);return null!=i&&r&&(i=r(i)),i}):null}function kt(t,n){return t.t-n.t}function St(n,r,e,i,u){var o,a="@"===e[0],l="#"===e[0],f=dt[e],s=y;switch(a?(o=e.substr(1),e=o.replace(mt,pt)):l&&(e=e.substr(1)),t(f)){case"function":if(s=f(i,u,At,wt,e,a,r,n),l)return s;break;case"string":s=xt(i,bt(f));break;case"object":if((s=xt(i,bt(f.i),f.f))&&"function"==typeof f.u)return f.u(r,s,e,a,n)}return s?function(t,n,r){if(arguments.length>3&&void 0!==arguments[3]&&arguments[3])return t instanceof gt?function(e){return t.style(n,r(e))}:function(e){return t.style[n]=r(e)};if(Array.isArray(n)){var e=n.length;return function(i){var u=r(i);if(null==u)for(var o=0;o<e;o++)t[o].removeAttribute(n);else for(var a=0;a<e;a++)t[a].setAttribute(n,u)}}return function(e){var i=r(e);null==i?t.removeAttribute(n):t.setAttribute(n,i)}}(r,e,s,a):null}function _t(n,r,e,i){if(!i||"object"!==t(i))return null;var u=null,o=null;return Array.isArray(i)?o=function(t){if(!t||!t.length)return null;for(var n=0;n<t.length;n++)t[n].e&&(t[n].e=wt(t[n].e));return t.sort(kt)}(i):(o=i.keys,u=i.data||null),o?St(n,r,e,o,u):null}function Mt(t,n,r){if(!r)return null;var e=[];for(var i in r)if(r.hasOwnProperty(i)){var u=_t(t,n,i,r[i]);u&&e.push(u)}return e.length?e:null}function It(t,n){if(!n.duration||n.duration<0)return null;var r=function(t,n){if(!n)return null;var r=[];if(Array.isArray(n))for(var e=n.length,i=0;i<e;i++){var u=n[i];if(2===u.length){var o=null;if("string"==typeof u[0])o=t.getElementById(u[0]);else if(Array.isArray(u[0])){o=[];for(var a=0;a<u[0].length;a++)if("string"==typeof u[0][a]){var l=t.getElementById(u[0][a]);l&&o.push(l)}o=o.length?1===o.length?o[0]:new gt(o):null}if(o){var f=Mt(t,o,u[1]);f&&(r=r.concat(f))}}}else for(var s in n)if(n.hasOwnProperty(s)){var c=t.getElementById(s);if(c){var v=Mt(t,c,n[s]);v&&(r=r.concat(v))}}return r.length?r:null}(t,n.elements);return r?function(t,n){var r=arguments.length>2&&void 0!==arguments[2]?arguments[2]:1/0,e=arguments.length>3&&void 0!==arguments[3]?arguments[3]:1,i=arguments.length>4&&void 0!==arguments[4]&&arguments[4],u=arguments.length>5&&void 0!==arguments[5]?arguments[5]:1,o=t.length,a=e>0?n:0;i&&r%2==0&&(a=n-a);var l=null;return function(f,s){var c=f%n,v=1+(f-c)/n;s*=e,i&&v%2==0&&(s=-s);var h=!1;if(v>r)c=a,h=!0,-1===u&&(c=e>0?0:n);else if(s<0&&(c=n-c),c===l)return!1;l=c;for(var y=0;y<o;y++)t[y](c);return h}}(r,n.duration,n.iterations||1/0,n.direction||1,!!n.alternate,n.fill||1):null}var Et=function(){function t(r){var e=arguments.length>1&&void 0!==arguments[1]?arguments[1]:{};n(this,t),this._id=0,this._running=!1,this._animations=r,this.direction=e.direction||1,this.speed=e.speed||1,this.fps=e.fps||100,this.offset=e.offset||0}return e(t,[{key:"_start",value:function(){var t=this,n=arguments.length>0&&void 0!==arguments[0]?arguments[0]:0,r=-1/0,e=null,i={},u=function u(o){t._running=!0,null==e&&(e=o);var a=Math.round((o-e+n)*t.speed),l=t.fps?1e3/t.fps:0;if(a>r+l){t.offset=a,r=a;for(var f=t._animations,s=f.length,c=0,v=0;v<s;v++)i[v]?c++:(i[v]=f[v](a,t.direction),i[v]&&c++);if(c===s)return void t._stop()}t._id=window.requestAnimationFrame(u)};this._id=window.requestAnimationFrame(u)}},{key:"_stop",value:function(){this._id&&window.cancelAnimationFrame(this._id),this._running=!1}},{key:"play",value:function(){this._running||this._start(this.offset)}},{key:"stop",value:function(){this._stop(),this.offset=0;var t=this.direction,n=this._animations;requestAnimationFrame((function(){for(var r=0;r<n.length;r++)n[r](0,t)}))}},{key:"restart",value:function(){this._stop(),this.offset=0,this._start()}},{key:"pause",value:function(){this._stop()}},{key:"reverse",value:function(){this.direction=-this.direction}}],[{key:"build",value:function(n){if(!(n=function(t){if(!t||!t.root||!Array.isArray(t.animations))return null;var n=window.document.getElementById(t.root);if(!n)return null;var r=t.animations.map((function(t){return It(n,t)})).filter((function(t){return!!t}));return r.length?{element:n,animations:r,options:t.options||void 0}:null}(n)))return null;var r=n.element,e=n.options||{},i=new t(n.animations,n.options);return function(t,n,r){var e=arguments.length>3&&void 0!==arguments[3]?arguments[3]:null;if("click"===r){return void n.addEventListener("click",(function r(){n.removeEventListener("click",r),t.play()}))}if("hover"===r)return n.addEventListener("mouseenter",(function(){return t.play()})),void n.addEventListener("mouseleave","freeze"===e?function(){return t.pause()}:function(){return t.stop()});t.play()}(i,r,e.start,e.hover),i}}]),t}();return function(){for(var t=0,n=["ms","moz","webkit","o"],r=0;r<n.length&&!window.requestAnimationFrame;++r)window.requestAnimationFrame=window[n[r]+"RequestAnimationFrame"],window.cancelAnimationFrame=window[n[r]+"CancelAnimationFrame"]||window[n[r]+"CancelRequestAnimationFrame"];window.requestAnimationFrame||(window.requestAnimationFrame=function(n){var r=Date.now(),e=Math.max(0,16-(r-t)),i=window.setTimeout((function(){n(r+e)}),e);return t=r+e,i},window.cancelAnimationFrame=window.clearTimeout)}(),Et}));
        __SVGATOR_PLAYER__.build({"root":"ehk3zt8bvtng1","animations":[{"duration":12000,"direction":1,"iterations":0,"fill":1,"alternate":false,"elements":{"ehk3zt8bvtng3":{"transform":{"keys":{"o":[{"t":0,"v":{"x":-2.7734013700000517,"y":-21.200000000000003,"type":"corner"},"e":[0.42,0,0.58,1]},{"t":4000,"v":{"x":-2.7734013700000517,"y":66.00000000000001,"type":"corner"},"e":[0.42,0,0.58,1]}]}},"opacity":[{"t":900,"v":0,"e":[0.42,0,0.58,1]},{"t":1700,"v":1,"e":[0.42,0,0.58,1]},{"t":2300,"v":1,"e":[0.42,0,0.58,1]},{"t":3000,"v":0,"e":[0.42,0,0.58,1]}]},"ehk3zt8bvtng4":{"transform":{"keys":{"o":[{"t":2000,"v":{"x":75.97340137000003,"y":-21.200000000000006,"type":"corner"},"e":[0.42,0,0.58,1]},{"t":6000,"v":{"x":75.97340137000006,"y":66.84444443999999,"type":"corner"}}]}},"opacity":[{"t":2900,"v":0,"e":[0.42,0,0.58,1]},{"t":3700,"v":1,"e":[0.42,0,0.58,1]},{"t":4300,"v":1,"e":[0.42,0,0.58,1]},{"t":5000,"v":0,"e":[0.42,0,0.58,1]}]},"ehk3zt8bvtng5":{"transform":{"keys":{"o":[{"t":4000,"v":{"x":24.426598629999894,"y":-21.468412150000002,"type":"corner"},"e":[0.42,0,0.58,1]},{"t":8000,"v":{"x":24.426598629999866,"y":66.84444444,"type":"corner"}}]}},"opacity":[{"t":4900,"v":0,"e":[0.42,0,0.58,1]},{"t":5700,"v":1,"e":[0.42,0,0.58,1]},{"t":6300,"v":1,"e":[0.42,0,0.58,1]},{"t":7000,"v":0,"e":[0.42,0,0.58,1]}]},"ehk3zt8bvtng6":{"transform":{"keys":{"o":[{"t":6000,"v":{"x":-66.45590712500022,"y":-21.200000000000006,"type":"corner"},"e":[0.42,0,0.58,1]},{"t":10000,"v":{"x":-67.27582851000027,"y":66.84444443500007,"type":"corner"}}]}},"opacity":[{"t":6900,"v":0,"e":[0.42,0,0.58,1]},{"t":7700,"v":1,"e":[0.42,0,0.58,1]},{"t":8300,"v":1,"e":[0.42,0,0.58,1]},{"t":9000,"v":0,"e":[0.42,0,0.58,1]}]},"ehk3zt8bvtng7":{"transform":{"keys":{"o":[{"t":8000,"v":{"x":56.22020410999995,"y":-21.200000000000003,"type":"corner"},"e":[0.42,0,0.58,1]},{"t":12000,"v":{"x":56.220204109999976,"y":66.84444443999998,"type":"corner"}}]}},"opacity":[{"t":8900,"v":0,"e":[0.42,0,0.58,1]},{"t":9700,"v":1,"e":[0.42,0,0.58,1]},{"t":10300,"v":1,"e":[0.42,0,0.58,1]},{"t":11000,"v":0,"e":[0.42,0,0.58,1]}]},"ehk3zt8bvtng9":{"transform":{"keys":{"o":[{"t":2900,"v":{"x":-84.56000000000007,"y":-22.044444440000007,"type":"corner"},"e":[0.42,0,0.58,1]},{"t":6900,"v":{"x":-84.56000000000006,"y":66.00000000000001,"type":"corner"},"e":[0.42,0,0.58,1]}]}},"opacity":[{"t":4020,"v":0,"e":[0.42,0,0.58,1]},{"t":4640,"v":1,"e":[0.42,0,0.58,1]},{"t":5440,"v":1},{"t":6000,"v":0}]},"ehk3zt8bvtng10":{"transform":{"keys":{"o":[{"t":6100,"v":{"x":62.8000000015378,"y":-21.115360970086236,"type":"corner"}},{"t":9800,"v":{"x":62.8000000015378,"y":59.044444444913765,"type":"corner"}}]}},"opacity":[{"t":6910,"v":0,"e":[0.42,0,0.58,1]},{"t":7510,"v":1,"e":[0.42,0,0.58,1]},{"t":8310,"v":1},{"t":8910,"v":0}]},"ehk3zt8bvtng11":{"transform":{"keys":{"o":[{"t":7900,"v":{"x":-48.1131391900001,"y":-21.115360970000005,"type":"corner"},"e":[0.42,0,0.58,1]},{"t":11400,"v":{"x":-48.11313919000007,"y":59.04444443500001,"type":"corner"}}]}},"opacity":[{"t":8700,"v":0,"e":[0.42,0,0.58,1]},{"t":9300,"v":1,"e":[0.42,0,0.58,1]},{"t":10100,"v":1},{"t":10700,"v":0}]},"ehk3zt8bvtng12":{"transform":{"keys":{"o":[{"t":900,"v":{"x":-2.7734013700000517,"y":-21.200000000000003,"type":"corner"},"e":[0.42,0,0.58,1]},{"t":4900,"v":{"x":-2.7734013700000517,"y":66.00000000000001,"type":"corner"},"e":[0.42,0,0.58,1]}]}},"opacity":[{"t":1700,"v":0,"e":[0.42,0,0.58,1]},{"t":2300,"v":1,"e":[0.42,0,0.58,1]},{"t":3100,"v":1},{"t":3700,"v":0}]},"ehk3zt8bvtng19":{"transform":{"keys":{"o":[{"t":0,"v":{"x":0.08148075999999804,"y":0.49211520500011474,"type":"corner"}},{"t":2000,"v":{"x":-2.0502740600000067,"y":3.508625445000117,"type":"corner"}},{"t":4000,"v":{"x":0.08148075999999804,"y":0.49211520500011474,"type":"corner"}},{"t":6000,"v":{"x":-2.0502740600000067,"y":3.508625445000117,"type":"corner"}},{"t":8000,"v":{"x":0.08148075999999804,"y":0.49211520500011474,"type":"corner"}},{"t":10000,"v":{"x":-2.0502740600000067,"y":3.508625445000117,"type":"corner"}},{"t":12000,"v":{"x":0.08148075999999804,"y":0.49211520500011474,"type":"corner"}}],"r":[{"t":0,"v":0},{"t":2000,"v":-4},{"t":4000,"v":0},{"t":6000,"v":-4},{"t":8000,"v":0},{"t":10000,"v":-4},{"t":12000,"v":0}]}}},"ehk3zt8bvtng28":{"transform":{"data":{"r":-4},"keys":{"o":[{"t":0,"v":{"x":-2.1193450300000016,"y":1.7013669500000006,"type":"corner"}},{"t":2000,"v":{"x":-0.7706909700000057,"y":4.241257539999992,"type":"corner"}},{"t":4000,"v":{"x":-2.1193450300000016,"y":1.7013669500000006,"type":"corner"}},{"t":6000,"v":{"x":-0.7706909700000057,"y":4.241257539999992,"type":"corner"}},{"t":8000,"v":{"x":-2.1193450300000016,"y":1.7013669500000006,"type":"corner"}},{"t":10000,"v":{"x":-0.7706909700000057,"y":4.241257539999992,"type":"corner"}},{"t":12000,"v":{"x":-2.1193450300000016,"y":1.7013669500000006,"type":"corner"}}]}}}}}],"options":{"start":"load","hover":"freeze"}})]]></script>
</svg>
