<?xml version="1.0" encoding="utf-8"?>
<!-- Generator: Adobe Illustrator 23.0.6, SVG Export Plug-In . SVG Version: 6.00 Build 0)  -->
<!DOCTYPE svg PUBLIC "-//W3C//DTD SVG 1.1//EN" "http://www.w3.org/Graphics/SVG/1.1/DTD/svg11.dtd" [
	<!ENTITY ns_extend "http://ns.adobe.com/Extensibility/1.0/">
	<!ENTITY ns_ai "http://ns.adobe.com/AdobeIllustrator/10.0/">
	<!ENTITY ns_graphs "http://ns.adobe.com/Graphs/1.0/">
	<!ENTITY ns_vars "http://ns.adobe.com/Variables/1.0/">
	<!ENTITY ns_imrep "http://ns.adobe.com/ImageReplacement/1.0/">
	<!ENTITY ns_sfw "http://ns.adobe.com/SaveForWeb/1.0/">
	<!ENTITY ns_custom "http://ns.adobe.com/GenericCustomNamespace/1.0/">
	<!ENTITY ns_adobe_xpath "http://ns.adobe.com/XPath/1.0/">
]>
<svg version="1.1" id="Ebene_1" xmlns:x="&ns_extend;" xmlns:i="&ns_ai;" xmlns:graph="&ns_graphs;"
	 xmlns="http://www.w3.org/2000/svg" xmlns:xlink="http://www.w3.org/1999/xlink" x="0px" y="0px" viewBox="0 0 177.8 34"
	 style="enable-background:new 0 0 177.8 34;" xml:space="preserve">
<style type="text/css">
	.st0{fill:#949FAF;}
	.st1{fill:#57B8F0;}
</style>
<metadata>
	<sfw  xmlns="&ns_sfw;">
		<slices></slices>
		<sliceSourceBounds  bottomLeftOrigin="true" height="34" width="16383" x="-8120" y="0"></sliceSourceBounds>
		<optimizationSettings>
			<targetSettings  fileFormat="PNG24Format" targetSettingsID="0">
				<PNG24Format  filtered="false" interlaced="false" matteColor="#FFFFFF" noMatteColor="false" transparency="true">
					</PNG24Format>
			</targetSettings>
		</optimizationSettings>
	</sfw>
</metadata>
<path class="st0" d="M72.8,14.1c-1.1-1.1-2.6-1.7-4.4-1.7c-3.9,0-7,3.3-7,7.6s3,7.6,7,7.6c1.6,0,3.2-0.7,4.4-1.8v1.4h3.8V12.8h-3.8
	L72.8,14.1L72.8,14.1z M69,23.9c-2.1,0-3.8-1.8-3.8-4s1.6-4,3.8-4s3.8,1.8,3.8,4S71.2,23.9,69,23.9z M83.3,6.8h-3.9v20.4h3.9V6.8z
	 M89.9,6.8H86v20.4h3.9L89.9,6.8L89.9,6.8z"/>
<path class="st1" d="M103,6.4c-5.8,0-10.5,4.8-10.5,10.6s4.7,10.5,10.5,10.5s10.5-4.8,10.5-10.5C113.4,11.2,108.7,6.4,103,6.4
	L103,6.4z M103,23.6c-3.6,0-6.4-2.9-6.4-6.7s2.8-6.7,6.4-6.7c3.6,0,6.4,2.9,6.4,6.7S106.6,23.6,103,23.6z M123.8,12.3
	c-1.6,0-2.9,0.6-3.9,1.6v-1.3H116v14.5h3.9v-7.6c0-2.2,1.2-3.6,2.9-3.6s2.7,1.1,2.7,3.2v8h3.9v-8.7
	C129.4,14.8,127.2,12.3,123.8,12.3z M139,12.3c-4.1,0-7.2,3.3-7.2,7.6c0,4.4,3,7.6,7.4,7.6c2.8,0,5.2-1.3,6.4-3.8
	c0.3-0.8,0.4-1.4,0.4-1.4h-3.7c-0.7,1.1-1.6,1.8-3.1,1.8c-1.8,0-3.3-1.3-3.6-2.9H146v-0.4v-0.8C146.1,15.6,143.1,12.3,139,12.3
	L139,12.3z M138.9,15.7c1.6,0,3,1.1,3.3,2.6h-6.6C136,17,137.4,15.7,138.9,15.7L138.9,15.7z"/>
<path class="st0" d="M50.8,6.3c-5.8,0-10.5,4.8-10.5,10.6c0,5.8,4.7,10.5,10.5,10.5c3.9,0,7.4-2.1,9.2-5.5l0.2-0.5h-4.8l-0.1,0.1
	c-1.2,1.3-2.8,2-4.6,2c-3.6,0-6.4-2.9-6.4-6.7s2.8-6.7,6.4-6.7c2.3,0,4.4,1.3,5.5,3.3l0.1,0.2h4.4l-0.2-0.4
	C59.1,9.2,55.1,6.3,50.8,6.3L50.8,6.3z"/>
<path class="st1" d="M0,17c0,9.4,7.6,17,16.8,17c1.3,0,2.6-0.2,3.9-0.5V24c-1.2,0.7-2.5,1-3.9,1c-4.4,0-7.9-3.6-7.9-8s3.5-8,7.9-8
	c1.4,0,2.7,0.4,3.9,1V0.5C19.4,0.2,18.1,0,16.8,0C7.6,0,0,7.7,0,17z M24.7,2v30c5.3-2.8,8.9-8.5,8.9-15S30,4.8,24.7,2L24.7,2z"/>
<path class="st0" d="M152,27.5h-3c-0.3,0-0.5-0.2-0.5-0.5v-3c0-0.3,0.2-0.5,0.5-0.5h3c0.3,0,0.5,0.2,0.5,0.5v3
	C152.5,27.3,152.3,27.5,152,27.5z"/>
<g id="Ebene_2">
	<g>
		<path class="st1" d="M160.1,16.5c0-0.8,0-1.5,0-2.3v-1.6h-3.9v3.9H160.1z"/>
		<path class="st1" d="M156.2,18.3v8.9h3.9v-6.5c0-0.9,0-1.6,0-2.4H156.2z"/>
	</g>
	<path class="st1" d="M169.5,13L169.5,13c-4,0-7.2,3.3-7.2,7.3c0,4,3.2,7.2,7.2,7.2s7.2-3.3,7.2-7.2C176.7,16.2,173.4,13,169.5,13z
		 M169.5,24.8c-2.5,0-4.4-2-4.4-4.6s1.9-4.6,4.4-4.6c2.5,0,4.4,2,4.4,4.6C173.9,22.8,172,24.8,169.5,24.8z"/>
</g>
</svg>
