<?xml version="1.0" encoding="UTF-8"?>
<svg id="Ebene_2" data-name="Ebene 2" xmlns="http://www.w3.org/2000/svg" viewBox="0 0 502.15 466.84">
  <defs>
    <style>
      .cls-1 {
        fill: #fa443f;
      }

      .cls-1, .cls-2, .cls-3, .cls-4 {
        stroke-width: 0px;
      }

      .cls-2 {
        fill: #2a5f2f;
      }

      .cls-3 {
        fill: #d9a764;
      }

      .cls-4 {
        fill: #ff6c4f;
      }
    </style>
  </defs>
  <g id="_1" data-name="1">
    <g>
      <path class="cls-2" d="M348.08,219.94s37.48-67.17-40.89-171.88c0,0-42.41,95.97,40.89,171.88Z"/>
      <path class="cls-2" d="M430.94,373.43s-41.48-45.11-140.25-11.93c0,0,62.04,56.03,140.25,11.93Z"/>
      <path class="cls-2" d="M483.12,96.08s63.14,173.67-40.56,275.3c0,0-55.11-166.03,40.56-275.3Z"/>
      <g>
        <path class="cls-2" d="M350.79,226.02s-72.84-77.97-251.27-41.51c0,0,109.35,98.54,251.27,41.51Z"/>
        <g>
          <path class="cls-3" d="M133.98,98.87c-14.58-6.65-33.05-12.95-51.48-17.55-4.37-1.05-8.82-2.12-13.3-3.2-4.5-1-9.03-2.01-13.52-3.01-2.62-.59-4.87-.85-3.65-.23,4.97,2.54,3.51,3.66,13.76,7.4,6.9,2.56,12.49,5.03,18.22,7.47,5.7,2.56,11.55,5.05,18.87,7.97.69.28,1.45.67,1.85.78,10.71,2.87,20.5,7.66,31.34,10.42,1.9.49,4.72,1.36,6.5,2.21,6.15,2.95,12.43,5.03,18.9,6.99l-.13-.03c4.27,2.07,8.75,4.04,13.48,5.98,4.69,2.01,9.61,4.02,14.78,6.06,4.02,1.68,8.64,4.2,12.32,6.24,2.67,1.51,5.49,3.04,8.51,4.45,3.01,1.41,6.2,2.74,9.49,4.03,3.73,1.45,7.18,3.07,10.16,4.74,2.98,1.68,5.53,3.32,7.58,4.64,9.13,5.99,15.77,8.36,23.16,12.19,1.81.94,3.58,1.51,5.44,2.8,2.13,1.5,4.22,2.94,6.42,4.33,2.2,1.38,4.51,2.72,7.04,4.09l-.07-.03,1.3.83-.06-.06c8.99,4.43,20.01,12.49,29.02,18.12,1.07.7,3.7,2.75,4.3,3.36,1.12,1.14,2.52,2.36,4.08,3.64,1.55,1.29,3.2,2.69,4.92,4.07,1.71,1.39,3.45,2.79,5.09,4.16,1.6,1.42,3.11,2.81,4.4,4.13.52.53,1.94,1.62,3.61,2.86,1.68,1.24,3.51,2.73,4.98,3.9l-.08-.05c1.06,1.29,1.76,2.38,4.51,4.71l-.07-.04c.85.46,1.42,1.26,2.06,1.97l-.07-.09-.13.13.1.08c4.91,6.33,11.77,12.32,16.56,16.73,2.5,2.34,4.76,4.58,6.5,6.71,1.75,2.13,3.12,4.01,4.07,5.48.53.81,1.09,1.63,1.66,2.45.55.84,1.13,1.68,1.72,2.52,1.19,1.68,2.44,3.35,3.72,4.99,2.54,3.29,5.02,6.56,7.34,9.38,4.5,5.92,6.67,9.6,9.06,14.29.68,1.29,1.63,3.21,2.16,3.96,1.92,2.9,3.74,6,5.56,9.17,1.68,3.25,3.42,6.53,4.98,9.88,1.55,3.36,3.15,6.67,4.59,9.96.76,1.63,1.51,3.24,2.25,4.82.72,1.59,1.45,3.15,2.22,4.65,1.05,2.01,1.86,4.45,2.32,6.3,1.8,7.14,4.05,14.09,6.53,21.43,1.41,4.09,2.48,8.84,3.07,13.25.58,4.23,1.22,8.33,2.04,12.23,1.04,5.29,1.8,11.23,2.26,17.15.45,5.92.73,11.82,1.03,17.09.26,4.8-.54,8.61-1.03,12.38-.62,5.07-1.39,12.42-2.3,18.89-.87,6.47-1.9,12.06-1.82,13.72.02.28.41-.27.7-1.01,2.67-7,4.61-13.8,6.29-20.52,1.64-6.75,2.96-13.51,3.89-20.8,1.14-8.85,1.83-17.57,2.17-25.7.43-11.11-.98-25.38-5.47-41.3-2.05-7.08-3.85-12.81-6.17-20.29-.57-1.79-1.18-3.76-1.98-5.77-.79-2.01-1.66-4.12-2.55-6.27-1.91-4.24-3.9-8.65-5.95-12.69l.05.07c-.72-1.23-1.94-3.21-2.08-3.59-3.44-8.59-8.43-15.94-12.02-20.87-2.86-3.89-4.89-7.2-6.76-10.08-1.84-2.89-3.19-5.57-4.8-8.08-1.51-2.44-3.07-4.82-4.66-7.16-1.64-2.3-3.37-4.52-5.11-6.73-1.71-2.23-3.57-4.34-5.46-6.43-1.91-2.07-3.75-4.22-5.8-6.2-1.41-1.4-2.75-2.67-3.86-4.11-.79-1.02-1.59-2.02-2.4-3.01-.83-.97-1.69-1.91-2.55-2.84-1.72-1.87-3.47-3.69-5.25-5.47-1.81-1.75-3.68-3.43-5.54-5.11-1.87-1.68-3.72-3.36-5.68-4.94-.65-.54-1.42-1.13-1.94-1.63-11.58-11.15-23.49-19.51-35.87-28.31-11.18-7.91-20.99-14.09-31.11-21.76-11.79-8.82-28.81-17.5-43.1-24.36-5.11-2.54-9.31-4.58-13.15-6.6-1.92-1.01-3.76-1.99-5.6-2.97-1.86-.95-3.71-1.91-5.65-2.9-2.32-1.18-4.55-2.29-6.79-3.34-2.25-1.01-4.53-1.94-6.9-2.83-7.58-2.88-14.74-5.99-22.47-9.39-4.44-1.87-8.77-3.54-12.87-4.96-4.12-1.39-8.02-2.48-11.56-3.33-5.52-1.38-12.88-3.78-20.24-6.69l.12.05Z"/>
          <path class="cls-3" d="M168.71,61.3c-.74-1.66-1.82-3.22-3.14-4.61-1.37-1.33-3-2.48-4.76-3.4-1.67-.87-3.46-1.68-5.19-2.52-.5-.24-1.06-.26-1.01.14.2,1.62-.84,2.66.34,4.77,1.59,2.84,1.94,5.54,3.7,8.37.08.13.12.35.2.39,2,1.05,2.7,3.59,5.03,4.28.41.12.94.41,1.1.83.55,1.45,1.78,2.03,3.06,2.62h-.03c.9,1.83,2.36,3.22,4.12,4.6.69.54,1.15,1.58,1.49,2.44.5,1.24,1.39,2.25,2.79,2.83,1.6.64,2.17,2.14,2.51,3.17.76,2.31,2.56,2.48,3.97,3.44.34.24.84.26,1.04.7.45,1.01.93,1.92,2.04,2.45h-.02s.21.22.21.22v-.02c2.02.85,3.72,3,5.64,4.15.23.14.64.68.65.89.13,1.57,2.06,2.77,2.54,4.31.09.31,1.24.84,1.88,1.29h-.02c.02.41-.07.82.48,1.31h-.02c.3-.01.3.25.37.44v-.03s-.14.11-.14.11h.03c.07,2.03,1.76,3.01,3.03,3.67,1.35.69,1.9,1.76,1.96,2.6.17,1.84,1.49,3.15,2.68,4.1,1.21.97,1.52,1.82,1.82,2.92.09.3.17.78.32.89,2.29,1.82,3.06,5.23,5.53,6.82.42.26.68.72.73,1.15.2,1.66,1.15,2.81,2.47,3.82.74.56,1.29,1.38,1.56,2.28.26.86.71,1.57,1.35,2.13,1.71,1.51,2.89,3.9,4.65,5.33.81.65.67,1.63.91,2.38.61,2.02,3.18,5.06,4.51,5.09.12,0,.23-.21.22-.39-.26-3.26-.1-6.35-.39-9.6-.16-1.99-.22-4-.22-5.92.03-2.64-1.03-5.37-3.07-8.02-.89-1.19-1.67-2.12-2.25-3.63-.58-1.44-2.05-2.95-3.19-4.38h.02c-.26-.16-.73-.4-.75-.49-.44-1.97-2.07-3-3.16-3.71-1.72-1.15-1.96-2.46-2.32-3.7-.72-2.36-2.19-4.06-4.09-5.5-.33-.25-.68-.45-.8-.83-.68-2.12-2.3-3.42-3.91-4.73-.14-.11-.32-.21-.4-.34-1.74-2.8-4.41-4.39-6.59-6.58-1.97-1.98-3.76-3.53-4.7-6.18-.56-1.52-1.62-2.89-2.9-4.1-1.29-1.19-2.75-2.26-4.01-3.29-1.82-1.48-2.54-2.87-3.58-4.37-.64-.87-1.3-1.61-2.25-2.1-1.53-.79-2.57-2.03-3.71-3.35-1.29-1.52-2.89-2.5-4.62-2.76-1.34-.22-2.6-1.18-3.67-2.43v.03Z"/>
          <path class="cls-4" d="M51.35,115.43c17.93-8.51,25.56-29.94,17.05-47.87-8.51-17.93-29.94-25.56-47.87-17.05C2.61,59.02-5.03,80.45,3.48,98.37c8.51,17.93,29.94,25.56,47.87,17.05Z"/>
          <path class="cls-1" d="M113.04,10.03c-18.52,15.36-21.09,42.82-5.73,61.35,15.36,18.52,42.82,21.09,61.35,5.73,18.52-15.36,21.09-42.82,5.73-61.35-15.36-18.52-42.82-21.09-61.35-5.73Z"/>
        </g>
        <g>
          <path class="cls-3" d="M314.03,308.46c-4.04-2.93-9.5-4.98-15.13-5.8-2.67-.39-5.47-.66-8.25-.94-.81-.08-1.57.08-1.23.46,1.34,1.52.67,2.85,3.55,4.56,3.87,2.34,6.06,4.94,10.15,7.36.19.11.39.33.51.35,3.25.48,5.84,2.81,9.24,2.87.6.01,1.46.16,1.94.54,1.67,1.32,3.6,1.63,5.61,1.87h-.04c2.39,1.6,5.18,2.59,8.31,3.54,1.23.37,2.52,1.31,3.53,2.13,1.47,1.19,3.28,1.97,5.42,2.16,2.42.22,4.17,1.6,5.3,2.59,2.54,2.22,4.86,1.94,7.24,2.58.59.15,1.21.04,1.76.45,1.26.93,2.48,1.74,4.2,2.03h-.02s.41.19.41.19l-.02-.02c3.05.33,6.56,2.29,9.69,2.97.38.08,1.24.54,1.41.77,1.25,1.67,4.39,2.45,6.02,4.02.32.32,2.03.65,3.11.97h-.03c.31.45.49.9,1.48,1.29h-.03c.36-.08.53.2.74.39l-.02-.03-.09.16h.04c1.47,2.19,4.12,2.89,6.08,3.31,2.05.46,3.4,1.57,4.05,2.46,1.47,1.97,3.86,3.17,5.87,4,2.06.83,2.96,1.75,4.02,2.94.3.33.7.85.96.95,1.92.79,3.67,2.13,5.35,3.5,1.69,1.36,3.43,2.61,5.33,3.37.64.24,1.21.74,1.53,1.23.62.96,1.37,1.74,2.23,2.4.84.69,1.79,1.26,2.84,1.76,1.17.56,2.29,1.45,3.1,2.5.76,1.02,1.65,1.84,2.67,2.44,2.85,1.56,5.29,4.52,8.07,6.09,1.21.77,1.52,2.02,2.14,2.95.42.63,1,1.32,1.67,2.01.66.7,1.35,1.44,2.08,2.07,1.43,1.28,2.89,2.25,3.68,2.26.13,0,.16-.29.06-.51-.91-2.11-1.65-4.15-2.38-6.21-.8-2-1.61-3.98-2.57-6.07-1.18-2.5-2.36-4.96-3.36-7.4-1.46-3.22-4.17-6.58-8.15-9.46-.88-.65-1.67-1.25-2.45-1.9-.79-.62-1.56-1.3-2.37-2.15-.78-.81-1.84-1.61-2.97-2.39-1.15-.77-2.39-1.49-3.5-2.24h.03c-.41-.15-1.11-.35-1.18-.45-1.75-2.26-4.36-3.07-6.1-3.69-2.76-.98-3.9-2.43-5.15-3.75-2.39-2.57-5.32-4.06-8.51-5.26-.56-.21-1.09-.37-1.49-.75-2.26-2.16-5.04-3.27-7.87-4.25-.24-.08-.53-.15-.71-.26-3.98-2.64-8.24-3.71-12.38-5.45-3.73-1.57-6.93-2.82-9.9-5.33-1.72-1.46-3.98-2.54-6.34-3.48-2.37-.91-4.87-1.63-7.1-2.36-3.24-1-5.06-2.25-7.36-3.46-1.37-.73-2.66-1.33-4.16-1.58-2.42-.38-4.52-1.38-6.82-2.38-2.62-1.16-5.25-1.68-7.56-1.5-1.8.12-4.02-.49-6.17-1.46l.03.03Z"/>
          <path class="cls-4" d="M288.77,336.84c41.56-6.39,32.03-64.28-12.08-61.03-41.56,6.39-32.02,64.28,12.08,61.03Z"/>
        </g>
        <path class="cls-3" d="M446.55,355.15c-.42,1.1-.78,2.28-1.24,3.48-.45,1.2-.9,2.45-1.33,3.73-.43,1.28-.86,2.6-1.26,3.93-.39,1.33-.79,2.68-1.25,3.99-.81,2.5-1.66,5.12-2.49,7.69-.24.75-.38,1.41-.16,1.07.88-1.38,1.17-.9,2.57-3.82.94-1.97,1.79-3.58,2.66-5.23.85-1.66,1.58-3.41,2.47-5.6.08-.21.2-.44.23-.56.43-1.61.99-3.15,1.54-4.7.5-1.56.93-3.16,1.22-4.81.1-.58.29-1.45.5-2,.71-1.92,1.2-3.85,1.47-5.86v.04c.81-2.72,1.46-5.7,2.12-8.97.25-1.28.63-2.81.98-4.03.5-1.77.89-3.77,1.08-5.89.25-2.39.69-4.53,1.07-5.95.79-3.2.79-5.33,1-7.82.05-.61,0-1.17.14-1.84.29-1.54.55-3.01.62-4.74v.02s.06-.46.06-.46v.03c.11-3.01.58-7.08.68-10.27.01-.38.13-1.38.19-1.63.48-1.87.56-5.11.94-7.3.08-.44.07-2.16.11-3.29v.03c.12-.49.25-.86.31-1.94v.02c-.05-.29.03-.57.07-.86v.03s.05,0,.05,0v-.04c.56-2.36.55-5.13.53-7.09-.03-2.07.18-3.83.39-4.86.46-2.3.58-5.07.63-7.28.05-2.25.23-3.53.46-5.11.06-.44.17-1.08.18-1.36.07-4.22.83-9.02.81-13.11,0-.69.07-1.46.17-2.03.41-2.2.53-4.44.58-6.79.02-1.31.15-2.78.36-4.12.19-1.28.31-2.54.35-3.75.09-3.29.65-7.22.74-10.42.05-1.45.34-2.59.56-3.73.55-3.06,1.08-8.93.86-10.01-.02-.09-.11.12-.16.36-.96,4.49-2.01,8.18-2.91,12.43-.54,2.58-1.11,5.09-1.67,7.41-.77,3.17-1.28,7.26-1.65,12.05-.16,2.14-.26,3.88-.55,6.14-.27,2.17-.4,5.16-.57,7.79v-.02c0,.42.03,1.09,0,1.21-.43,2.66-.4,5.23-.39,7.02.02,2.82-.3,4.54-.56,6.26-.5,3.31-.67,6.53-.76,9.85-.01.58-.01,1.12-.1,1.64-.48,2.97-.54,5.89-.68,8.82,0,.25-.01.53-.03.74-.53,4.67-.61,8.92-1.01,13.36-.17,2-.33,3.85-.53,5.66-.22,1.81-.51,3.57-.89,5.39-.45,2.11-.75,4.56-1.08,7.05-.31,2.49-.63,5.03-.92,7.34-.38,3.33-.95,5.4-1.49,7.89-.33,1.49-.6,2.86-.78,4.33-.25,2.37-.88,4.58-1.43,6.99-.69,2.74-1.05,5.34-1.38,7.45-.22,1.66-.77,3.87-1.43,6.1v-.03Z"/>
        <path class="cls-3" d="M339.87,204.69c.25,3.45.91,7.58,1.85,11.55.44,1.87.9,3.84,1.35,5.77.13.56.31,1.02.35.73.14-1.21.62-1.05.5-3.41-.15-3.2.06-5.35-.26-8.78-.01-.16,0-.35-.03-.44-.58-2.35-.61-4.75-1.41-7.07-.14-.41-.31-1.03-.33-1.46-.09-1.5-.47-2.89-.92-4.3v.03c-.23-2.06-.71-4.22-1.3-6.58-.23-.92-.37-2.07-.46-2.99-.14-1.34-.45-2.78-.98-4.24-.6-1.65-.8-3.24-.91-4.3-.26-2.39-.95-3.8-1.51-5.54-.14-.43-.34-.78-.42-1.28-.18-1.13-.37-2.2-.82-3.39h0s-.08-.31-.08-.31v.02c-.81-2.05-1.48-4.96-2.29-7.15-.1-.26-.27-.97-.28-1.16-.08-1.41-.88-3.64-1.11-5.25-.05-.32-.51-1.49-.78-2.27v.02c-.01-.37.01-.66-.23-1.42v.02c-.11-.18-.12-.4-.15-.61v.03s.05-.01.05-.01v-.03c-.1-1.78-.82-3.67-1.35-5.01-.56-1.41-.82-2.67-.89-3.44-.15-1.72-.73-3.65-1.25-5.18-.53-1.56-.68-2.49-.86-3.64-.05-.32-.11-.79-.17-.98-1-2.92-1.48-6.43-2.53-9.24-.18-.47-.3-1.03-.35-1.45-.17-1.63-.61-3.2-1.17-4.83-.32-.91-.57-1.95-.72-2.93-.15-.94-.36-1.84-.64-2.68-.76-2.28-1.29-5.13-2.05-7.35-.34-1.01-.35-1.87-.47-2.71-.33-2.25-1.45-6.4-1.96-7.07-.04-.06-.07.11-.05.29.32,3.35.38,6.16.66,9.34.17,1.92.29,3.81.38,5.56.11,2.39.66,5.35,1.55,8.75.4,1.51.74,2.74,1.04,4.38.29,1.57.93,3.67,1.43,5.52v-.02c.1.28.29.74.31.83.26,1.96.93,3.72,1.39,4.94.73,1.93.87,3.2,1.06,4.47.37,2.43,1.01,4.69,1.81,6.99.14.4.28.77.34,1.15.33,2.18,1,4.21,1.67,6.24.06.17.13.36.17.52.74,3.35,1.81,6.27,2.7,9.41.81,2.82,1.49,5.22,1.84,7.93.43,3.13,1.64,7.03,2.55,10.31.67,2.36.88,3.91,1.22,5.75.2,1.1.41,2.1.74,3.13.54,1.66.84,3.31,1.18,5.09.38,2.03.93,3.87,1.5,5.34.45,1.15.82,2.77,1.1,4.45v-.03Z"/>
        <path class="cls-3" d="M321.01,224.77c4.76.63,10.6,1.02,16.3.93,2.69-.05,5.5-.09,8.26-.14.81-.01,1.48-.1,1.08-.19-1.63-.39-1.28-.82-4.55-1.19-4.4-.51-7.27-1.11-12-1.66-.22-.02-.48-.08-.6-.08-3.35,0-6.59-.53-9.97-.39-.59.02-1.48.02-2.07-.08-2.04-.33-4.04-.32-6.08-.3h.04c-2.84-.34-5.9-.57-9.26-.72-1.32-.06-2.89-.3-4.15-.49-1.83-.29-3.86-.5-6.01-.48-2.42.02-4.6-.35-6.05-.6-3.26-.62-5.4-.48-7.92-.6-.62-.03-1.18.03-1.85-.08-1.56-.24-3.04-.49-4.79-.54h.02s-.46-.05-.46-.05h.03c-3.03-.05-7.15-.53-10.36-.73-.39-.02-1.39-.16-1.64-.23-1.87-.52-5.15-.68-7.34-1.19-.44-.1-2.18-.19-3.32-.28h.03c-.49-.14-.85-.29-1.94-.41h.02c-.29.03-.58-.06-.86-.12h.03s0-.04,0-.04h-.04c-2.35-.68-5.13-.9-7.11-1.03-2.09-.13-3.84-.48-4.87-.77-2.28-.64-5.05-1.05-7.27-1.3-2.26-.27-3.54-.56-5.1-.95-.43-.11-1.07-.29-1.35-.32-4.24-.52-8.98-1.78-13.11-2.24-.69-.07-1.47-.24-2.02-.4-2.17-.66-4.4-1.04-6.77-1.35-1.32-.17-2.79-.47-4.11-.82-1.27-.34-2.53-.6-3.75-.77-3.3-.48-7.23-1.42-10.44-1.85-1.47-.19-2.58-.63-3.71-.93-3.05-.82-8.95-1.88-10.05-1.75-.09.01.11.12.35.19,4.46,1.38,8.1,2.7,12.3,4.04,2.55.8,5.02,1.64,7.29,2.43,3.11,1.11,7.17,2.08,11.95,2.98,2.13.41,3.88.7,6.12,1.25,2.16.51,5.16.99,7.79,1.44h-.02c.42.04,1.11.09,1.22.12,2.64.72,5.24.97,7.04,1.15,2.85.28,4.56.74,6.27,1.17,3.3.83,6.54,1.3,9.91,1.62.59.06,1.13.1,1.66.22,2.97.71,5.93,1.01,8.91,1.27.25.02.54.04.75.07,4.71.82,9.03,1.04,13.55,1.53,4.06.45,7.53.71,11.25,1.45,4.32.83,10.01,1.1,14.74,1.4,3.41.19,5.57.49,8.16.79,1.55.19,2.97.3,4.48.31,2.43.01,4.76.22,7.28.44,2.88.25,5.56.25,7.74.09,1.7-.13,4.03-.03,6.39.15h-.04Z"/>
        <path class="cls-3" d="M403.22,370.57c2.49.11,5.57-.44,8.33-1.71,1.29-.63,2.61-1.34,3.81-2.2.36-.24.61-.5.38-.47-.93.11-.98-.29-2.59.18-2.18.61-3.71.54-6.02.79-.11,0-.24,0-.3.02-1.55.54-3.19.38-4.78.89-.28.09-.71.19-1.01.15-1.03-.11-1.99.08-2.99.27h.02c-1.42-.13-2.93-.06-4.6.04-.65.04-1.45-.08-2.08-.19-.92-.16-1.94-.18-3.01.01-1.21.22-2.31.03-3.05-.1-1.66-.31-2.72.04-3.98.16-.31.03-.58.14-.93.09-.79-.1-1.54-.18-2.42-.03h.01s-.23,0-.23,0h.01c-1.51.29-3.59.21-5.2.44-.19.03-.7.01-.83-.02-.96-.28-2.6-.07-3.72-.27-.22-.04-1.09.11-1.66.17h.01c-.25-.08-.44-.18-.99-.14h.01c-.14.07-.29.02-.44,0h.02s0-.05,0-.05h-.02c-1.21-.37-2.61-.16-3.6,0-1.05.18-1.94.1-2.47-.04-1.18-.3-2.58-.23-3.7-.13-1.14.1-1.79.01-2.6-.11-.22-.03-.55-.1-.69-.09-2.14.22-4.59-.24-6.66.08-.35.06-.74.03-1.03-.03-1.13-.25-2.26-.23-3.46-.08-.67.08-1.41.07-2.1-.02-.66-.09-1.3-.11-1.91-.04-1.67.16-3.69.04-5.31.24-.74.09-1.32-.11-1.91-.18-1.57-.18-4.57-.03-5.11.32-.05.03.06.09.19.12,2.32.45,4.23,1,6.41,1.47,1.32.29,2.61.62,3.8.95,1.63.46,3.71.67,6.15.64,1.09-.02,1.97-.03,3.12.1,1.11.12,2.63.02,3.96.02h-.01c.21-.03.55-.1.61-.08,1.36.25,2.66.05,3.57-.08,1.43-.21,2.31,0,3.19.14,1.69.28,3.33.23,5.02.07.29-.03.57-.07.84-.02,1.52.25,3.01.12,4.5,0,.13-.01.27-.03.38-.03,2.39.14,4.54-.14,6.81-.21,2.04-.07,3.78-.13,5.67.18,2.19.36,5.03.11,7.4-.02,1.71-.09,2.79.03,4.1.12.78.05,1.5.07,2.26-.04,1.22-.16,2.4-.14,3.69-.15,1.47,0,2.83-.21,3.91-.58.84-.29,2.02-.45,3.23-.55h-.02Z"/>
      </g>
    </g>
  </g>
</svg>