<?xml version="1.0" encoding="UTF-8"?>
<svg id="Ebene_2" data-name="Ebene 2" xmlns="http://www.w3.org/2000/svg" viewBox="0 0 249.86 551.25">
  <defs>
    <style>
      .cls-1 {
        fill: #fa443f;
      }

      .cls-1, .cls-2, .cls-3, .cls-4 {
        stroke-width: 0px;
      }

      .cls-2 {
        fill: #2a5f2f;
      }

      .cls-3 {
        fill: #d9a764;
      }

      .cls-4 {
        fill: #ff6c4f;
      }
    </style>
  </defs>
  <g id="_1" data-name="1">
    <g>
      <path class="cls-2" d="M117.89,163.5S38.15,89.03,86.71,0c0,0,74.69,69.73,31.18,163.5Z"/>
      <path class="cls-2" d="M103.64,249.21s-81.96-43.57-61.73-127.45c0,0,76.77,40.79,61.73,127.45Z"/>
      <path class="cls-2" d="M131.29,282.53s6.6-100.44,98.54-117.77c0,0-6.16,94.07-98.54,117.77Z"/>
      <path class="cls-2" d="M86.46,356.69S3.18,320,16.91,236.52c0,0,78.01,34.35,69.56,120.17Z"/>
      <path class="cls-2" d="M56,451.67S-16.2,411.36,3.36,337.03c0,0,67.63,37.74,52.64,114.65Z"/>
      <path class="cls-2" d="M98.76,402.34s21.24-98.39,114.72-102.07c0,0-19.87,92.15-114.72,102.07Z"/>
      <path class="cls-2" d="M60.07,498.18s28.92-67.64,96.51-57.28c0,0-27.07,63.35-96.51,57.28Z"/>
      <path class="cls-3" d="M60.28,483.07c-1.84,6.6-4.16,13.84-6.81,21.3-2.71,7.44-5.89,15.05-9.14,22.5-3.14,7.03-6.65,14.24-9.99,21.39-.98,2.08-1.96,3.75-1.72,2.61,1-4.66-.41-4.23,2.54-13.1,4.07-11.94,5.6-20.18,9.81-33.04.2-.6.36-1.32.49-1.66,1.85-4.39,3.33-8.86,4.85-13.31,1.51-4.46,3.15-8.88,5.07-13.29.69-1.54,1.62-3.9,2.02-5.54.7-2.85,1.58-5.59,2.57-8.29.98-2.7,2.11-5.35,3.14-8.07l-.05.1c1-3.95,2.18-8,3.5-12.19,1.3-4.2,2.83-8.51,4.25-13.07,1.14-3.57,2.12-7.99,2.88-11.53.55-2.58,1.22-5.26,2.04-8.01.77-2.76,1.65-5.6,2.69-8.46,2.35-6.48,3.56-12.63,4.29-16.76,1.49-9.31,3.8-14.93,5.84-21.82.52-1.69,1.09-3.16,1.41-5.08.71-4.44,1.45-8.64,2.89-13.4l-.02.06.29-1.3v.07c.63-2.06,1.3-4.32,1.89-6.7.56-2.39,1.12-4.89,1.67-7.42,1.1-5.04,2.2-10.16,3.37-14.6.31-1.06.73-3.91.76-4.65.2-5.51,2.25-14.59,2.81-20.95.11-1.27,1.14-6.1,1.75-9.29l-.02.08c0-1.44-.1-2.55.42-5.63l-.02.07c.3-.78.28-1.62.34-2.45v.1s-.14-.02-.14-.02l.03-.1c0-1.73.1-3.52.27-5.3.08-.89.19-1.79.3-2.68.09-.89.19-1.78.3-2.66.44-3.51,1.04-6.85,1.56-9.62.54-2.92.9-5.65,1.12-8.02.22-2.37.31-4.39.22-5.91-.28-6.73.49-14.64,1.23-20.95.64-6.44.47-10.15.36-14.72-.04-1.27-.13-3.14-.06-3.92.13-1.51.24-3.05.33-4.61.1-1.56.16-3.14.14-4.73,0-3.19-.05-6.42-.1-9.64-.1-6.45-.09-12.83.19-18.75.12-1.98.02-4.22-.17-5.87-.74-6.41-.89-12.82-.76-19.58.04-3.77-.18-8-.7-11.84-.43-3.69-.84-7.28-.96-10.74-.44-9.38-2.37-20.56-3.82-29.52-.28-2.06-.85-3.83-1.36-5.5-.53-1.67-1.06-3.23-1.63-4.77-1.4-4.17-3.27-10.25-5.21-15.54-.46-1.33-.91-2.62-1.34-3.82-.45-1.19-.87-2.31-1.24-3.3-.73-1.99-1.21-3.53-1.31-4.3-.03-.26.37.23.71.84,1.58,2.86,3.25,5.53,4.58,8.29.71,1.36,1.4,2.71,2.09,4.05.63,1.37,1.26,2.72,1.89,4.07.61,1.36,1.29,2.69,1.84,4.07.56,1.38,1.13,2.76,1.7,4.15.28.7.57,1.4.85,2.1.26.71.51,1.43.77,2.15.51,1.45,1.02,2.91,1.55,4.4.63,1.81,1.14,3.63,1.72,5.43.29.9.57,1.79.85,2.69.26.9.51,1.79.77,2.67.51,1.78,1.02,3.53,1.51,5.25.46,1.74.9,3.44,1.34,5.12,2.4,9.18,4.02,21.17,4.46,35.11.19,6.22.31,11.29.75,17.86.22,3.16.29,6.9.31,10.8.02,3.91-.12,8.01-.13,11.84v-.07c-.08,1.2-.27,3.16-.24,3.5.31,3.9.33,7.71.21,11.2-.23,3.48-.58,6.63-.85,9.2-.44,4.07-.57,7.36-.58,10.28,0,2.91.13,5.45.09,7.97-.01,4.86-.22,9.63-.57,14.38-.17,2.38-.38,4.75-.62,7.12-.29,2.37-.65,4.74-1.01,7.14-.25,1.67-.53,3.21-.58,4.75-.14,4.36-.53,8.65-1.02,12.9-.61,4.23-1.37,8.43-2.11,12.63-.13.71-.3,1.51-.37,2.12-.38,3.39-.81,6.7-1.27,9.95-.55,3.23-1.16,6.4-1.76,9.55-.62,3.15-1.23,6.27-1.85,9.41-.61,3.13-1.2,6.28-1.9,9.45-2.44,11.42-4.36,21.15-6.03,31.83-1.67,12.45-6.27,28.07-9.96,41.1-2.82,9.34-4.1,15.43-5.91,22.67-1.14,4.3-2.26,8.22-3.73,12.29-1.18,3.26-2.22,6.5-3.21,9.8-1.02,3.29-2.05,6.61-3.12,10.06-2.42,7.89-5.02,15.08-7.8,20.67-2.13,4.39-4.39,10.63-6.47,17.08l.03-.11Z"/>
      <path class="cls-3" d="M120.51,221.6c-.66,6.18-2.25,13.41-3.65,20.52-.18.84-.36,1.69-.55,2.54l-.28,1.28-.22,1.3c-.29,1.74-.58,3.49-.87,5.23-.17,1.02-.44,1.86-.56,1.34-.47-2.14-1.35-1.77-1.48-6.05-.03-.72-.06-1.42-.09-2.09,0-.67-.02-1.32-.03-1.96-.04-1.28-.07-2.5-.11-3.74-.02-1.24-.12-2.52-.04-3.85.06-1.34.15-2.75.3-4.32.03-.29.01-.64.06-.8.54-2.14.95-4.28,1.39-6.42.46-2.13.85-4.3,1.81-6.34.32-.72.73-1.82.83-2.6.18-1.36.51-2.65.92-3.92.44-1.26.99-2.48,1.54-3.71l-.03.05c.42-1.84.92-3.74,1.6-5.66.69-1.91,1.48-3.88,2.32-5.93.64-1.62,1.25-3.62,1.68-5.26.65-2.37,1.61-4.91,3.15-7.3,1.72-2.72,2.54-5.53,3.19-7.36,1.4-4.17,3.2-6.4,5-9.21.43-.7.96-1.23,1.3-2.07.4-.96.8-1.9,1.27-2.83.49-.92,1.05-1.83,1.73-2.76l-.02.02.31-.53v.03c2.39-3.21,5.1-7.93,7.67-11.31.32-.4,1.01-1.53,1.14-1.86.91-2.41,3.54-5.83,4.91-8.45.27-.53,1.79-2.25,2.73-3.42l-.03.03c.25-.63.39-1.15,1.28-2.28l-.03.02c.33-.22.48-.59.67-.93l-.02.04-.09-.06.04-.04c.64-1.5,1.57-2.94,2.57-4.24,1.01-1.29,2.09-2.43,3-3.38,1.9-1.99,3.22-3.93,3.84-5.19,1.41-2.81,3.79-5.63,5.76-7.79,2.03-2.2,2.94-3.66,4.1-5.43.32-.49.77-1.24,1.02-1.51,3.88-4.05,7.37-9.51,11.44-13.17.68-.61,1.34-1.41,1.75-2.06,1.61-2.53,3.63-4.71,5.96-6.82,1.31-1.17,2.62-2.62,3.72-4.05,1.06-1.36,2.2-2.61,3.39-3.69,1.63-1.46,3.33-3.17,5.02-4.87,1.71-1.68,3.42-3.35,5.06-4.7,1.51-1.22,2.33-2.57,3.34-3.74,1.36-1.56,3.51-3.64,5.52-5.38,2.02-1.73,3.87-3.12,4.6-3.35.12-.04,0,.25-.21.5-3.85,4.77-6.74,8.96-10.14,13.61-2.06,2.82-3.98,5.63-5.67,8.3-2.33,3.63-5.74,7.81-10.05,12.39-1.91,2.05-3.47,3.73-5.27,6.11-1.73,2.29-4.46,5.11-6.71,7.73l.03-.02c-.4.37-1.08.96-1.16,1.09-1.89,3-4.35,5.32-6.02,6.98-2.66,2.59-3.76,4.63-4.97,6.58-2.31,3.76-4.95,7.04-7.84,10.33-.5.57-.99,1.09-1.33,1.7-1.99,3.43-4.39,6.39-6.82,9.37-.2.25-.46.52-.61.76-1.61,2.62-3.32,4.99-5.02,7.33-1.65,2.37-3.37,4.66-4.97,7.11-1.42,2.22-2.73,4.27-3.94,6.33-1.17,2.08-2.21,4.18-3.14,6.44-1.1,2.61-2.5,5.52-4.12,8.39-1.58,2.89-3.18,5.83-4.64,8.5-1.96,3.92-2.96,6.54-4.09,9.69-.67,1.88-1.34,3.58-2.25,5.3-1.45,2.76-2.37,5.63-3.44,8.68-1.11,3.52-2.42,6.68-3.79,9.16-1.01,1.96-1.93,4.8-2.64,7.76v-.05Z"/>
      <path class="cls-3" d="M158.95,147.95c-.95,1.48-2.4,2.86-4.07,3.9-.78.5-1.63,1-2.45,1.51-.24.15-.5.2-.47.03.13-.71-.33-1.06.3-2.08.85-1.38,1.14-2.62,2.18-4.02.05-.07.08-.17.12-.19,1.03-.61,1.59-1.78,2.79-2.19.21-.07.49-.22.61-.42.41-.67,1.05-1.01,1.73-1.29h-.02c.66-.81,1.55-1.45,2.57-2.08.39-.25.78-.7,1.07-1.08.42-.55,1.01-.99,1.78-1.21.86-.26,1.4-.87,1.74-1.31.79-.97,1.66-1.01,2.5-1.35.21-.08.45-.06.63-.23.42-.4.83-.75,1.46-.91h0s.15-.08.15-.08h0c1.1-.23,2.36-1.01,3.5-1.29.14-.03.45-.22.51-.31.43-.65,1.59-.94,2.2-1.51.12-.12.76-.21,1.16-.32h-.01c.12-.17.19-.34.56-.47h-.01c.13.04.2-.07.28-.14h0s-.03-.05-.03-.05h.01c.57-.81,1.61-.96,2.34-1.05.77-.09,1.31-.44,1.59-.75.62-.68,1.59-.97,2.38-1.14.81-.17,1.19-.47,1.67-.81.13-.09.32-.25.43-.27,1.54-.24,2.98-1.41,4.53-1.44.26,0,.52-.12.69-.26.67-.54,1.44-.78,2.33-.81.49-.02,1-.18,1.44-.42.42-.23.86-.37,1.3-.41,1.21-.1,2.57-.56,3.76-.57.54,0,.88-.35,1.27-.51,1.05-.44,3.2-.64,3.66-.28.04.03-.02.13-.1.17-1.49.88-2.66,1.79-4,2.71-.81.57-1.58,1.18-2.27,1.77-.95.81-2.24,1.48-3.87,1.87-.73.18-1.31.36-2.01.74-.67.38-1.72.55-2.59.85h0c-.15.01-.4,0-.44.03-.77.62-1.7.67-2.35.73-1.02.08-1.48.57-1.98.96-.95.76-2.01,1.11-3.15,1.4-.2.05-.39.08-.54.2-.82.72-1.83.96-2.81,1.28-.08.03-.19.04-.25.08-1.4.88-2.89,1.21-4.31,1.88-1.29.58-2.38,1.1-3.29,2.12-1.08,1.15-2.88,1.91-4.34,2.66-1.06.52-1.57,1.11-2.25,1.71-.4.36-.79.66-1.28.85-.8.31-1.4.85-2.07,1.41-.76.65-1.59,1.05-2.39,1.23-.63.13-1.29.59-1.88,1.16h0Z"/>
      <path class="cls-3" d="M149.07,149.03c-.32,2.68-1.3,5.75-2.65,8.59-.66,1.32-1.36,2.71-2.04,4.08-.2.4-.45.7-.47.45-.1-1-.69-1.03-.4-2.84.4-2.44.27-4.18.74-6.78.02-.12.02-.27.05-.34.8-1.66.9-3.53,1.87-5.14.17-.28.38-.73.41-1.06.1-1.16.59-2.14,1.12-3.14v.02c.22-1.57.75-3.16,1.41-4.88.26-.67.37-1.55.43-2.26.09-1.03.39-2.11.97-3.14.67-1.17.77-2.4.82-3.22.12-1.85.86-2.83,1.4-4.1.13-.31.34-.57.38-.94.1-.87.22-1.68.64-2.55h0s.07-.24.07-.24v.02c.81-1.49,1.26-3.71,1.95-5.34.09-.2.2-.74.19-.89-.08-1.1.58-2.77.59-4.02,0-.25.4-1.13.61-1.72h0c-.04-.27-.11-.5.06-1.08h0c.13-.12.1-.29.1-.45v.02s-.07-.01-.07-.01v-.02c-.18-1.38.35-2.82.79-3.83.45-1.07.54-2.04.48-2.64-.17-1.33.17-2.81.51-3.99.34-1.2.35-1.92.31-2.81,0-.25-.04-.61,0-.76.61-2.26.42-4.96,1.06-7.14.11-.37.14-.8.09-1.12-.18-1.25,0-2.46.28-3.74.17-.71.22-1.52.17-2.27-.05-.72-.01-1.41.12-2.07.34-1.79.27-3.99.65-5.74.18-.8-.06-1.44-.14-2.08-.19-1.71.1-4.97.56-5.55.04-.05.12.07.15.2.5,2.53,1.18,4.63,1.69,7.05.29,1.47.63,2.9.99,4.24.52,1.83.55,4.15.29,6.84-.11,1.2-.25,2.17-.23,3.46.01,1.23-.29,2.9-.49,4.37h0c-.07.21-.22.58-.21.64.11,1.53-.35,2.93-.66,3.89-.47,1.53-.41,2.52-.38,3.51.02,1.9-.29,3.7-.89,5.48-.1.31-.21.6-.21.9-.02,1.71-.46,3.3-1.01,4.87-.04.13-.11.28-.13.4-.39,2.62-1.27,4.87-1.98,7.27-.61,2.17-1.18,4-1.34,6.12-.15,2.47-1.36,5.39-2.23,7.86-.64,1.77-.86,2.96-1.16,4.37-.19.84-.39,1.6-.75,2.36-.6,1.21-.94,2.45-1.32,3.8-.42,1.54-1.04,2.88-1.77,3.89-.57.79-1.03,1.98-1.37,3.24v-.02Z"/>
      <path class="cls-3" d="M110.93,310.54c-1.01,1.86-2.11,3.92-3.36,6-.63,1.04-1.29,2.08-1.99,3.11-.35.51-.7,1.03-1.06,1.54l-1.02,1.57c-1.31,1.96-2.68,4-4.03,6.01-.39.59-.8,1.04-.72.68.33-1.46-.31-1.48.82-4.16.77-1.81,1.32-3.37,1.89-4.96.58-1.59,1.3-3.14,2.26-5.05.09-.18.17-.4.23-.49.89-1.2,1.62-2.49,2.37-3.77.77-1.26,1.62-2.48,2.64-3.6.36-.39.86-1.01,1.1-1.49.85-1.65,1.94-3.06,3.2-4.39l-.03.02c1.33-2.19,2.99-4.36,4.88-6.69.73-.92,1.52-2.1,2.1-3.08.87-1.42,1.99-2.86,3.38-4.18,1.56-1.51,2.66-3.14,3.36-4.26,1.6-2.51,3.15-3.67,4.73-5.27.39-.39.82-.67,1.17-1.17.82-1.14,1.63-2.21,2.79-3.26h-.02s.27-.3.27-.3v.02c2.03-1.79,4.4-4.6,6.51-6.54.25-.23.84-.92.96-1.12.87-1.51,3-3.5,4.13-5.15.23-.33,1.4-1.35,2.13-2.05l-.02.02c.22-.4.36-.73,1.04-1.43h-.02c.24-.11.36-.35.51-.56v.03s-.07-.05-.07-.05l.03-.02c1.07-1.91,2.89-3.59,4.22-4.76,1.4-1.23,2.37-2.48,2.86-3.3,1.07-1.83,2.75-3.65,4.14-5.06,1.41-1.44,2.09-2.38,2.88-3.57.22-.33.52-.83.69-1.01,2.61-2.73,4.97-6.37,7.51-9.01.43-.44.84-1,1.09-1.45.96-1.77,2.26-3.28,3.64-4.87.78-.88,1.54-1.95,2.16-2.99.59-1,1.24-1.92,1.94-2.74.98-1.1,1.87-2.45,2.78-3.77.91-1.32,1.82-2.64,2.73-3.75.82-1.01,1.2-1.99,1.64-2.93,1.22-2.49,4.11-6.88,4.98-7.46.07-.05.04.16-.04.36-.8,1.89-1.49,3.65-2.17,5.4-.69,1.74-1.28,3.51-2.15,5.27-1,2.16-1.93,4.3-2.76,6.31-.54,1.39-1.37,2.84-2.34,4.4-.97,1.56-2.12,3.22-3.42,4.96-1.17,1.55-2.19,2.75-3.32,4.47-1.11,1.63-2.83,3.72-4.38,5.53h.02c-.27.25-.73.66-.78.75-1.29,2.07-2.97,3.69-4.12,4.81-1.82,1.78-2.67,3.1-3.55,4.41-1.7,2.51-3.63,4.69-5.78,6.77-.37.37-.73.69-1.01,1.09-1.55,2.23-3.4,4.1-5.29,5.96-.16.16-.35.33-.47.47-2.68,3.27-5.49,5.88-8.23,8.81-2.47,2.64-4.56,4.89-6.44,7.67-2.21,3.2-5.68,6.81-8.49,9.9-2.05,2.21-3.08,3.83-4.44,5.68-.81,1.11-1.57,2.1-2.5,3.06-1.5,1.53-2.65,3.24-3.96,5.03-1.47,2.07-3.05,3.81-4.41,5.17-1.08,1.05-2.3,2.69-3.43,4.44l.02-.03Z"/>
      <path class="cls-3" d="M88.21,415.54c-.95,1.55-2.16,3.12-3.41,4.75-1.26,1.63-2.65,3.25-4.12,4.78-1.34,1.48-2.74,3.03-4.11,4.55-.4.44-.81.76-.72.46.39-1.23-.22-1.37.99-3.53,1.61-2.95,2.45-5.06,4.41-8.11.09-.14.17-.33.24-.4,1.75-1.83,3.01-4.01,4.98-5.67.35-.29.83-.76,1.07-1.15.82-1.35,1.97-2.35,3.13-3.37l-.03.02c1.27-1.76,2.83-3.49,4.67-5.24.72-.69,1.43-1.67,1.99-2.47.82-1.15,1.85-2.31,3.17-3.27,1.49-1.09,2.49-2.44,3.15-3.35,1.49-2.05,2.93-2.87,4.42-4.07.36-.3.76-.48,1.09-.88.77-.92,1.52-1.78,2.6-2.55h-.02s.26-.23.26-.23v.02c1.88-1.33,4.14-3.49,6.11-4.92.24-.17.79-.7.9-.87.82-1.26,2.84-2.71,3.94-4.01.22-.26,1.33-.98,2.03-1.49h-.02c.22-.31.35-.6,1-1.11h-.02c.22-.06.35-.26.49-.43v.02s-.06-.05-.06-.05h.02c1.05-1.59,2.84-2.74,4.12-3.55,1.35-.84,2.31-1.79,2.81-2.44,1.1-1.46,2.8-2.73,4.2-3.69,1.42-.98,2.11-1.7,2.95-2.59.23-.25.57-.62.74-.74,2.7-1.79,5.28-4.5,8.01-6.09.46-.26.93-.63,1.23-.96,1.18-1.27,2.57-2.27,4.14-3.18.87-.51,1.78-1.19,2.57-1.87.75-.66,1.54-1.24,2.35-1.7,1.1-.63,2.25-1.42,3.4-2.19,1.17-.74,2.34-1.48,3.45-2.03,1-.51,1.61-1.21,2.31-1.76,1.9-1.47,5.95-3.61,6.85-3.64.08,0-.03.15-.17.28-2.72,2.32-4.87,4.32-7.25,6.66-1.46,1.41-2.87,2.77-4.08,4.15-1.66,1.89-4.08,3.82-7.02,5.95-1.32.94-2.39,1.72-3.67,2.86-1.25,1.09-3.1,2.39-4.69,3.6h.02c-.27.15-.73.4-.79.46-1.4,1.5-3.1,2.48-4.25,3.21-1.82,1.13-2.68,2.17-3.59,3.14-1.75,1.86-3.65,3.39-5.71,4.86-.36.26-.71.48-.97.78-1.53,1.71-3.32,3.02-5.09,4.39-.15.11-.33.23-.44.34-2.56,2.49-5.21,4.35-7.76,6.6-2.31,2-4.28,3.7-6.03,5.96-2.04,2.6-5.32,5.3-7.92,7.71-1.88,1.73-2.93,2.97-4.19,4.46-.76.89-1.47,1.67-2.34,2.4-1.38,1.18-2.58,2.45-3.8,3.89-1.41,1.63-2.87,2.99-4.23,3.94-1.08.73-2.24,2.02-3.34,3.4v-.03Z"/>
      <path class="cls-3" d="M55.75,503.73c-.7.98-1.47,2.06-2.38,3.06-.89,1.02-1.97,1.93-2.98,2.89-.99.87-2.04,1.79-3.06,2.68-.3.26-.62.42-.57.2.2-.89-.33-1.14.49-2.59,1.12-1.96,1.53-3.57,2.97-5.56.07-.09.12-.23.17-.27,1.33-1.06,2.12-2.65,3.69-3.48.27-.15.64-.41.81-.67.6-.9,1.43-1.5,2.33-2.04h-.02c.95-1.12,2.17-2.1,3.54-3.12.53-.41,1.09-1.01,1.51-1.52.62-.74,1.44-1.39,2.46-1.84,1.14-.52,1.93-1.34,2.44-1.91,1.16-1.28,2.3-1.53,3.45-2.11.29-.14.6-.17.86-.4.61-.54,1.2-1.03,2.05-1.34h-.01s.2-.12.2-.12h0c1.48-.51,3.24-1.65,4.79-2.21.19-.07.62-.34.71-.45.66-.81,2.23-1.38,3.11-2.14.18-.15,1.04-.4,1.58-.6h-.01c.18-.2.29-.41.8-.63h-.01c.17.01.27-.11.39-.21h-.01s-.03-.05-.03-.05h.02c.86-1,2.24-1.4,3.23-1.66,1.04-.27,1.8-.77,2.19-1.17.89-.87,2.2-1.41,3.27-1.79,1.09-.38,1.63-.78,2.29-1.27.18-.14.45-.35.58-.39,2.07-.65,4.05-2.23,6.12-2.71.35-.08.7-.27.93-.46.9-.76,1.94-1.21,3.11-1.52.66-.17,1.33-.49,1.91-.88.55-.37,1.13-.65,1.73-.83,1.62-.48,3.39-1.46,4.98-1.87.73-.19,1.15-.66,1.65-.98,1.33-.86,4.15-1.9,4.83-1.72.06.02,0,.13-.11.21-1.87,1.47-3.31,2.9-5.05,4.34-1.06.88-2.06,1.78-2.97,2.66-1.25,1.2-3.03,2.3-5.27,3.25-1,.43-1.81.78-2.79,1.4-.94.6-2.38,1.1-3.59,1.66h.01c-.21.05-.55.11-.6.15-1.09.87-2.37,1.18-3.26,1.41-1.41.36-2.07.99-2.78,1.53-1.36,1.06-2.85,1.71-4.43,2.29-.28.1-.54.18-.75.35-1.19.98-2.59,1.48-3.96,2.05-.12.05-.26.09-.34.15-1.99,1.29-4.05,1.98-6.03,3.05-.9.47-1.73.91-2.51,1.39-.77.5-1.48,1.05-2.17,1.72-.78.79-1.83,1.45-2.89,2.13-1.06.68-2.19,1.3-3.19,1.9-1.47.84-2.19,1.67-3.16,2.51-.57.51-1.11.96-1.78,1.3-1.06.57-1.89,1.37-2.82,2.2-1.05.95-2.17,1.65-3.17,2.11-.8.35-1.68,1.08-2.49,1.93v-.02Z"/>
      <path class="cls-3" d="M108.22,259.07c.57,1.18.98,2.54,1.29,3.98.3,1.44.57,2.95.62,4.47.04,1.43.08,2.93.12,4.4.01.43-.07.8-.21.6-.56-.81-1.1-.57-1.69-2.22-.79-2.24-1.72-3.63-2.59-5.99-.04-.11-.12-.23-.12-.3-.1-1.75-.94-3.33-.93-5.11,0-.32-.04-.78-.18-1.07-.5-.99-.55-2.04-.64-3.11v.02c-.62-1.39-.99-2.94-1.32-4.66-.12-.68-.53-1.43-.84-2.03-.47-.87-.78-1.88-.84-3.02-.05-1.29-.66-2.31-1.05-2.99-.9-1.52-.79-2.7-1.05-4-.07-.32-.03-.63-.2-.95-.39-.73-.74-1.44-.86-2.36h0s-.08-.22-.08-.22h0c-.14-1.6-1-3.59-1.32-5.25-.04-.2-.24-.69-.33-.8-.67-.82-1.05-2.49-1.74-3.47-.13-.2-.29-1.11-.44-1.69v.02c-.19-.21-.38-.34-.55-.89h0c.03-.16-.09-.28-.17-.41h.01s-.06.04-.06.04v-.02c-.91-.98-1.28-2.39-1.49-3.43-.23-1.09-.69-1.9-1.07-2.33-.87-.95-1.42-2.29-1.79-3.4-.39-1.13-.77-1.7-1.29-2.37-.14-.19-.37-.45-.42-.59-.76-2.1-2.39-4.11-3.07-6.19-.11-.35-.33-.7-.54-.92-.85-.87-1.35-1.93-1.82-3.09-.25-.65-.65-1.32-1.11-1.87-.44-.53-.79-1.1-1.04-1.69-.67-1.61-1.95-3.29-2.6-4.88-.3-.72-.83-1.1-1.24-1.56-1.09-1.23-2.63-3.95-2.57-4.68,0-.06.14-.01.23.08,1.79,1.7,3.5,2.96,5.23,4.58,1.04.99,2.11,1.92,3.14,2.76,1.41,1.15,2.72,2.95,3.99,5.2.56,1.01.97,1.85,1.7,2.84.68.96,1.37,2.42,2,3.7h0c.06.2.15.57.19.62.94,1.13,1.34,2.49,1.62,3.41.45,1.46,1.05,2.21,1.62,2.97,1.08,1.47,1.8,3.06,2.31,4.79.09.3.16.59.33.82.93,1.35,1.45,2.84,1.88,4.38.04.13.07.28.12.38,1.13,2.27,1.66,4.52,2.38,6.81.34,1.03.65,1.98,1.02,2.89.34.92.72,1.8,1.24,2.68.59,1.02,1.09,2.27,1.45,3.58.36,1.31.66,2.66.96,3.89.45,1.75.87,2.83,1.37,4.13.29.78.52,1.5.62,2.3.16,1.28.49,2.48.88,3.77.43,1.47.64,2.88.5,4.08-.09.94.12,2.15.46,3.36v-.02Z"/>
      <path class="cls-3" d="M86.99,386.03c.13,3.6-.45,7.96-1.77,12-.57,1.93-1.34,3.87-2.05,5.79-.21.56-.47,1-.49.68-.09-1.29-.7-1.22-.39-3.62.24-1.61.2-2.99.24-4.38.05-1.38.02-2.8.13-4.52.01-.16,0-.35.02-.44.35-1.16.41-2.36.52-3.54.06-.59.12-1.19.21-1.78.08-.59.17-1.18.34-1.78.11-.41.23-1.05.2-1.48-.1-1.49.06-2.91.34-4.36v.03c-.06-1.03-.15-2.1-.14-3.2,0-.55,0-1.12.03-1.69,0-.58,0-1.17,0-1.77,0-.95-.16-2.08-.39-2.98-.33-1.31-.4-2.75-.35-4.29.09-1.75-.33-3.29-.68-4.29-.72-2.27-.6-3.82-.79-5.62-.04-.44.01-.86-.16-1.32-.39-1.07-.71-2.1-.83-3.36v.02s-.09-.32-.09-.32v.02c-.1-1.09-.35-2.36-.65-3.63-.33-1.26-.66-2.55-.87-3.7-.06-.28-.31-.96-.41-1.12-.39-.6-.71-1.48-1.03-2.39-.35-.9-.69-1.83-1.09-2.54-.15-.29-.41-1.52-.66-2.32v.02c-.22-.3-.44-.51-.7-1.26v.02c.01-.23-.13-.4-.23-.58l.02.02-.06.03v-.03c-1.11-1.43-1.66-3.37-2.05-4.77-.42-1.46-1.05-2.6-1.53-3.22-1.1-1.36-1.88-3.23-2.5-4.72-.63-1.53-1.15-2.32-1.84-3.27-.19-.27-.49-.65-.56-.83-1.18-2.88-3.42-5.69-4.53-8.51-.18-.48-.5-.96-.78-1.28-1.09-1.26-1.89-2.7-2.61-4.29-.4-.89-.95-1.82-1.57-2.62-.59-.76-1.08-1.55-1.47-2.36-1.06-2.19-2.72-4.62-3.72-6.78-.45-.98-1.12-1.58-1.64-2.26-1.39-1.84-3.49-5.68-3.52-6.58,0-.07.15.02.27.16,2.25,2.59,4.3,4.61,6.48,7.01,1.32,1.46,2.66,2.85,3.92,4.12,1.73,1.74,3.54,4.2,5.3,7.31.79,1.38,1.42,2.52,2.4,3.9.95,1.32,1.92,3.34,2.87,5.06v-.02c.11.29.27.78.32.84,1.25,1.59,1.93,3.4,2.39,4.66.75,1.97,1.55,3.02,2.3,4.09,1.43,2.07,2.45,4.27,3.28,6.63.15.41.27.8.48,1.13,1.2,1.92,1.94,4,2.6,6.11.06.18.11.39.17.53,1.5,3.21,2.21,6.35,3.16,9.57.82,2.91,1.44,5.4,2.5,8.02,1.24,3.05,1.74,7.3,2.06,10.81.13,1.27.23,2.3.38,3.26.16.95.31,1.84.42,2.81.14,1.16.28,2.22.18,3.35-.15,1.81,0,3.56,0,5.45.07,2.16-.23,4.15-.69,5.73-.33,1.24-.61,2.94-.69,4.7v-.03Z"/>
      <path class="cls-3" d="M57.99,477.08c.17,3.32-.58,7.42-2.27,11.04-.43.83-.88,1.69-1.32,2.55-.48.84-1.03,1.65-1.54,2.46-.3.47-.63.82-.59.52.13-1.22-.46-1.3.22-3.39.75-2.9.76-4.9,1.09-7.97.01-.14,0-.32.03-.39.17-.51.32-1.02.41-1.55l.19-1.59c.15-1.05.23-2.11.54-3.17.11-.37.23-.94.19-1.32-.23-1.35.05-2.61.2-3.93v.03c-.15-.93-.18-1.88-.24-2.88-.07-1-.07-2.04-.1-3.13-.04-.86-.29-1.87-.51-2.67-.35-1.17-.54-2.47-.48-3.88.03-1.59-.41-2.98-.78-3.88-.77-2.04-.63-3.47-.81-5.12-.04-.41,0-.78-.15-1.21-.37-.98-.66-1.92-.76-3.07h0s-.07-.28-.07-.28v.02c-.09-2.01-.89-4.64-1.14-6.76-.03-.26-.23-.9-.32-1.05-.67-1.13-.98-3.28-1.64-4.64-.13-.27-.25-1.43-.38-2.17v.02c-.19-.29-.38-.5-.54-1.2v.02c.04-.21-.08-.37-.16-.55v.02s-.05.02-.05.02v-.03c-.9-1.4-1.17-3.23-1.35-4.54-.18-1.39-.62-2.48-1-3.09-.84-1.36-1.31-3.15-1.65-4.59-.34-1.47-.72-2.25-1.21-3.2-.14-.26-.35-.65-.4-.83-.62-2.76-2.25-5.61-2.78-8.31-.09-.45-.29-.94-.5-1.27-.81-1.28-1.32-2.68-1.68-4.23-.21-.86-.58-1.77-1.01-2.57-.42-.77-.73-1.55-.96-2.33-.6-2.12-1.74-4.53-2.31-6.61-.25-.95-.8-1.56-1.17-2.24-1-1.83-2.39-5.53-2.26-6.36.01-.07.14.03.24.17,1.75,2.57,3.38,4.62,5.06,7.06,1,1.49,2.05,2.9,3.03,4.22,1.35,1.79,2.62,4.27,3.72,7.32.48,1.36.89,2.47,1.57,3.85.64,1.33,1.22,3.27,1.79,4.96v-.02c.05.28.12.74.16.81.91,1.6,1.22,3.33,1.44,4.52.36,1.88.96,2.91,1.5,3.97,1.05,2.03,1.63,4.13,2.1,6.34.08.39.13.75.29,1.07.91,1.84,1.3,3.79,1.7,5.73.03.16.06.36.11.49,1.05,3,1.46,5.87,2.15,8.8.61,2.65,1.1,4.9,2.09,7.26,1.13,2.74,1.62,6.55,2.01,9.72.25,2.29.65,3.71.96,5.46.21,1.04.34,2,.29,3.03-.03,1.65.09,3.24.23,4.96.09,1.97-.05,3.81-.52,5.27-.17.57-.28,1.25-.37,1.99-.12.74-.2,1.53-.24,2.35v-.03Z"/>
      <path class="cls-1" d="M213.95,34.57c12.07-6.24,26.92-1.51,33.16,10.57,6.24,12.08,1.51,26.92-10.57,33.16-12.08,6.24-26.92,1.51-33.16-10.57-6.24-12.07-1.51-26.92,10.57-33.16Z"/>
      <path class="cls-4" d="M187.74,68.37c-.47,12.44-10.93,22.15-23.37,21.69-12.44-.47-22.15-10.93-21.69-23.37.47-12.44,10.93-22.15,23.37-21.69,12.44.47,22.15,10.93,21.69,23.37Z"/>
      <path class="cls-4" d="M205.31,143.13c-9.38.94-17.75-5.91-18.69-15.29-.94-9.38,5.91-17.75,15.29-18.69,9.38-.94,17.75,5.91,18.69,15.29.94,9.38-5.91,17.75-15.29,18.69Z"/>
    </g>
  </g>
</svg>