<?xml version="1.0" encoding="UTF-8"?>
<svg id="Ebene_2" data-name="Ebene 2" xmlns="http://www.w3.org/2000/svg" viewBox="0 0 388.05 323.08">
  <defs>
    <style>
      .cls-1 {
        fill: #fa443f;
      }

      .cls-1, .cls-2, .cls-3 {
        stroke-width: 0px;
      }

      .cls-2 {
        fill: #2a5f2f;
      }

      .cls-3 {
        fill: #d9a764;
      }
    </style>
  </defs>
  <g id="_1" data-name="1">
    <g>
      <path class="cls-2" d="M230.37,39.66c-18.01,15.86-58.64-31.19-58.64-31.19,0,0,14.23,27.67-1.03,45.96-15.69,18.8-54.5-21.78-54.5-21.78,0,0,15.78,30.7,3.51,44.05-17.25,18.78-49.38-10.36-49.38-10.36C73.87,112.46,0,130.85,0,130.85c0,0,75.65-8.46,88.39,36.01,0,0,19.98-38.5,42.69-26.9,16.14,8.25,12.04,42.52,12.04,42.52,0,0,22.27-51.54,43.51-39.38,20.67,11.83,16.96,42.72,16.96,42.72,0,0,21.71-58.25,44.11-49.65,22.4,8.6,15.37,36.6,15.37,36.6l44.38-97.14L232.04,0s16.33,23.8-1.67,39.66Z"/>
      <path class="cls-3" d="M261.36,91.33c3.44-.44,7.26-.68,11.25-.83,3.99-.13,8.15-.26,12.25-.12,3.88.13,7.92.26,11.91.39,1.16.04,2.13.15,1.55.26-2.36.42-1.88.95-6.59,1.3-3.18.24-5.8.53-8.49.83-2.68.3-5.42.66-8.84.93-.32.03-.69.09-.87.08-2.41-.04-4.78.1-7.16.22-2.38.13-4.76.28-7.19.19-.85-.03-2.14-.03-2.99.08-2.94.39-5.82.34-8.76.36h.06c-4.09.49-8.5.74-13.34.94-1.9.06-4.16.42-5.98.69-2.64.4-5.57.65-8.65.66-3.49-.02-6.62.54-8.71.89-4.7.81-7.78.67-11.41.88-.89.06-1.69.02-2.67.18-2.24.37-4.38.69-6.9.79h.03s-.67.07-.67.07h.04c-4.37.08-10.28.93-14.91,1.24-.56.04-2,.23-2.37.32-1.35.34-3.2.58-5.11.84-1.91.28-3.87.55-5.45.89-.63.14-3.13.31-4.77.46h.04c-.7.19-1.23.38-2.8.56h.04c-.42-.03-.83.09-1.24.17h.05s.01.05.01.05h-.05c-3.38.93-7.38,1.35-10.23,1.58-3,.25-5.53.74-7.01,1.14-3.28.92-7.27,1.54-10.46,1.96-3.25.44-5.09.85-7.34,1.42-.62.16-1.54.41-1.94.47-6.08.9-12.91,2.68-18.81,3.54-.99.14-2.1.39-2.9.63-3.12.96-6.33,1.54-9.71,2.13-1.89.32-3.99.79-5.89,1.33-1.82.51-3.62.93-5.36,1.24-4.72.83-10.32,2.39-14.92,3.21-2.09.38-3.68.99-5.29,1.5-4.34,1.33-12.73,3.28-14.31,3.25-.13,0,.16-.16.49-.27,6.35-2.15,11.53-4.21,17.53-6.25,3.64-1.22,7.18-2.47,10.43-3.65,4.45-1.64,10.28-3.13,17.13-4.63,3.06-.66,5.57-1.12,8.79-1.95,3.1-.76,7.4-1.59,11.19-2.28h-.03c.6-.07,1.59-.18,1.75-.22,3.79-1.03,7.53-1.49,10.11-1.82,4.08-.52,6.55-1.14,9.02-1.76,4.76-1.15,9.41-1.94,14.25-2.47.84-.1,1.63-.17,2.38-.34,4.29-.96,8.53-1.53,12.81-1.94.36-.04.77-.07,1.08-.12,3.39-.56,6.64-.98,9.85-1.36,3.21-.38,6.39-.63,9.64-1,2.92-.32,5.63-.62,8.27-.97,2.65-.31,5.24-.66,7.92-1.14,3.11-.54,6.71-1.02,10.39-1.32,3.68-.3,7.43-.53,10.84-.78,4.9-.38,8.02-.7,11.76-1.11,2.23-.23,4.28-.41,6.46-.47,3.49-.09,6.86-.3,10.49-.58,4.15-.3,8-.42,11.14-.18,2.45.16,5.8.07,9.21-.16h-.06Z"/>
      <path class="cls-2" d="M276.5,152.69c12.72,12.96-21.19,45.58-21.19,45.58,0,0,20.33-11.88,34.77-1.09,14.84,11.09-14.24,42.07-14.24,42.07,0,0,22.56-13.17,33.15-4.45,14.89,12.27-5.82,37.74-5.82,37.74,34.71-4.55,51.62,50.53,51.62,50.53,0,0-9.47-56.83,23.62-68.26,0,0-29.91-13.53-22.07-31.17,5.58-12.54,31.65-10.83,31.65-10.83,0,0-39.86-14.73-31.53-31.28,8.1-16.1,31.6-14.56,31.6-14.56,0,0-44.9-14.04-39.31-31.32,5.59-17.28,27.03-13.1,27.03-13.1l-75.22-29.59-54.08,60.07s17.32-13.31,30.04-.35Z"/>
      <path class="cls-3" d="M305.89,126.31c-1.24-2.23-2.6-4.71-3.91-7.34-1.33-2.62-2.52-5.45-3.77-8.19-1.15-2.62-2.34-5.35-3.52-8.04-.34-.78-.56-1.48-.27-1.14,1.15,1.37,1.46.81,3.31,3.78,1.25,2.01,2.38,3.63,3.52,5.29,1.14,1.67,2.22,3.41,3.49,5.63.12.21.28.44.33.56.68,1.66,1.5,3.23,2.31,4.81.79,1.59,1.52,3.21,2.08,4.94.2.61.53,1.5.86,2.05,1.11,1.92,1.89,3.92,2.56,6.01v-.04c1.37,2.74,2.61,5.79,3.9,9.16.52,1.32,1.23,2.87,1.85,4.09.89,1.78,1.69,3.83,2.29,6.06.7,2.51,1.65,4.67,2.33,6.11,1.51,3.23,1.89,5.51,2.62,8.13.17.65.23,1.25.5,1.93.63,1.58,1.2,3.09,1.61,4.92v-.02s.15.48.15.48v-.03c.68,3.18,1.99,7.43,2.68,10.83.08.41.4,1.45.52,1.7.44.95.86,2.28,1.24,3.66.37,1.39.74,2.82,1.15,3.96.17.45.46,2.3.69,3.51v-.03c.22.5.43.87.69,2.02v-.03c0,.32.13.61.23.9l-.02-.03.06-.02v.04c1.07,2.41,1.46,5.4,1.75,7.52.29,2.23.81,4.08,1.22,5.15.87,2.4,1.37,5.38,1.72,7.75.35,2.43.76,3.77,1.2,5.45.12.47.32,1.15.35,1.45.49,4.57,1.99,9.65,2.17,14.12.04.75.18,1.58.34,2.19.61,2.36,1,4.77,1.09,7.34.06,1.43.25,3.02.53,4.47.26,1.39.44,2.76.51,4.07.2,3.57.66,7.88.72,11.36.02,1.58.38,2.82.52,4.07.41,3.36.58,9.79.23,10.94-.03.1-.12-.14-.16-.4-.84-4.94-1.64-9-2.58-13.61-.58-2.8-1.2-5.51-1.82-8-.82-3.41-1.65-7.77-2.16-12.91-.24-2.29-.53-4.15-1.01-6.55-.49-2.3-.76-5.52-1.24-8.32v.03c-.04-.45-.08-1.17-.11-1.3-.78-2.8-1.01-5.56-1.18-7.48-.26-3.03-.92-4.81-1.44-6.62-1.03-3.47-1.62-6.88-2.26-10.41-.1-.62-.19-1.19-.36-1.74-1.03-3.08-1.52-6.19-2.2-9.29-.05-.26-.1-.56-.17-.78-.71-2.43-1.27-4.78-1.8-7.1-.52-2.32-1.11-4.6-1.72-6.93-.56-2.1-1.08-4.04-1.64-5.92-.61-1.87-1.26-3.68-2.05-5.54-.93-2.14-1.72-4.69-2.58-7.27-.85-2.58-1.66-5.23-2.42-7.63-1.06-3.47-2.1-5.55-3.15-8.11-.65-1.52-1.2-2.93-1.67-4.46-.73-2.47-1.78-4.73-2.83-7.2-1.23-2.81-2.13-5.5-2.77-7.73-.48-1.75-1.44-4.03-2.52-6.31l.02.04Z"/>
      <path class="cls-3" d="M98.51,107.2c.43.08.88.19,1.31.36.44.17.84.44,1.25.69.37.25.78.53,1.17.79.11.08.19.19.11.22-.35.12-.42.43-1.02.39-.82-.05-1.47.12-2.35-.07-.04,0-.1,0-.12-.02-.49-.36-1.17-.37-1.58-.89-.07-.09-.2-.2-.31-.21-.4-.06-.68-.3-.93-.59h0c-.51-.16-.97-.48-1.45-.87-.19-.15-.46-.26-.7-.34-.34-.12-.65-.34-.87-.68-.25-.38-.63-.56-.9-.67-.6-.24-.73-.68-1-1.06-.06-.1-.08-.22-.19-.29-.25-.16-.48-.32-.63-.62h0s-.06-.06-.06-.06h0c-.24-.52-.77-1.07-1.01-1.62-.03-.07-.16-.2-.21-.22-.39-.14-.63-.7-.98-.95-.07-.05-.17-.37-.25-.56h0c-.1-.04-.2-.05-.29-.23h0c.01-.07-.05-.09-.09-.12h0s-.03.02-.03.02h0c-.48-.22-.61-.75-.7-1.11-.09-.39-.31-.64-.5-.75-.4-.26-.59-.75-.72-1.15-.12-.41-.31-.58-.51-.81-.06-.06-.15-.15-.16-.21-.16-.79-.86-1.47-.88-2.28,0-.13-.07-.27-.15-.35-.3-.33-.45-.72-.46-1.18,0-.26-.09-.52-.22-.74-.12-.21-.2-.44-.21-.67-.05-.62-.25-1.33-.22-1.94.02-.28-.17-.46-.24-.66-.2-.55-.21-1.66.02-1.88.02-.02.07.02.09.06.42.79.86,1.41,1.32,2.09.29.41.6.8.91,1.14.41.47.78,1.09.96,1.89.09.36.2.64.4.97.21.32.29.83.47,1.25h0c0,.07,0,.2.02.21.35.35.39.81.43,1.13.06.51.35.7.57.92.44.41.66.92.87,1.46.03.1.06.19.13.25.43.34.59.82.83,1.27.02.04.03.09.06.11.55.6.81,1.31,1.29,1.92.2.28.39.54.61.78.23.22.47.41.78.56.69.37,1.26,1.13,1.81,1.73.38.44.75.58,1.13.8.23.13.43.27.59.48.25.34.61.52.98.73.42.24.73.58.95.92.16.28.49.5.86.66h0Z"/>
      <path class="cls-3" d="M97.69,115.11c.56-1.06,1.64-2.06,2.88-2.71.58-.31,1.22-.57,1.85-.81.18-.07.36-.09.3.01-.23.41-.01.66-.57,1.2-.73.76-1.03,1.48-1.69,2.31-.03.04-.05.1-.08.11-.31.2-.55.48-.8.75-.24.28-.47.55-.81.74-.12.06-.28.19-.33.32-.18.45-.54.7-.88,1.01h0c-.28.58-.68,1.12-1.13,1.7-.18.23-.28.58-.36.86-.12.4-.31.8-.66,1.14-.4.38-.48.89-.54,1.22-.11.75-.51,1.07-.81,1.54-.07.12-.18.2-.21.35-.06.35-.14.67-.35,1h0s-.03.09-.03.09h0c-.42.55-.64,1.45-.99,2.09-.04.08-.09.3-.08.36.08.46-.23,1.13-.2,1.65,0,.1-.18.46-.27.7h0c.03.12.09.21.01.45h0c-.06.05-.04.12-.04.19h0s.04,0,.04,0h0c.16.58-.07,1.17-.26,1.59-.19.44-.19.85-.12,1.1.16.55.03,1.16-.08,1.65-.12.5-.08.8-.02,1.16.02.1.05.25.04.31-.23.95.05,2.06-.22,2.98-.04.16-.04.33,0,.47.17.51.14,1.02.02,1.56-.06.3-.06.64,0,.95.06.3.07.59.03.87-.13.76-.03,1.67-.18,2.42-.07.34.08.6.13.87.13.71.03,2.09-.22,2.34-.02.02-.07-.03-.08-.08-.33-1.05-.73-1.91-1.07-2.9-.21-.6-.45-1.19-.69-1.73-.33-.74-.48-1.7-.44-2.83.02-.5.04-.91-.04-1.45-.07-.51.02-1.22.06-1.84h0c.03-.09.09-.25.08-.28-.15-.64.04-1.24.16-1.65.19-.65.09-1.07.02-1.49-.12-.81,0-1.57.23-2.34.04-.13.08-.26.07-.39-.07-.73.13-1.41.36-2.08.02-.06.05-.12.05-.17.11-1.12.55-2.07.88-3.09.31-.91.61-1.67.7-2.59.12-1.07.8-2.27,1.4-3.23.41-.7.6-1.19.84-1.77.15-.34.33-.64.58-.91.39-.44.71-.9,1.02-1.43.4-.57.85-1.04,1.36-1.29.39-.2.76-.6,1.14-1.03h0Z"/>
      <path class="cls-3" d="M156.74,99.27c1.11.09,2.33.36,3.52.73.56.18,1.16.35,1.76.48.17.04.32.13.23.18-.38.22-.32.54-1.1.67-1.05.15-1.81.42-3,.38-.06,0-.13.01-.15,0-.38-.17-.78-.24-1.18-.33-.39-.1-.78-.23-1.13-.48-.12-.08-.31-.2-.46-.22-.52-.07-.95-.32-1.34-.65h0c-.69-.17-1.35-.55-2.02-1.03-.26-.18-.63-.33-.94-.44-.45-.15-.86-.45-1.2-.87-.38-.47-.86-.73-1.21-.88-.77-.36-.97-.91-1.36-1.4-.09-.12-.13-.27-.27-.37-.32-.23-.63-.45-.83-.84h0s-.07-.08-.07-.08h0c-.34-.68-1.02-1.42-1.36-2.14-.04-.09-.19-.28-.25-.31-.45-.25-.77-.99-1.18-1.37-.09-.07-.22-.48-.32-.74h0c-.11-.07-.22-.11-.33-.35h0c0-.08-.06-.12-.11-.17h0s-.03.03-.03.03h0c-.53-.37-.73-1.04-.85-1.52-.12-.51-.37-.86-.57-1.04-.44-.41-.7-1.04-.85-1.56-.15-.53-.35-.79-.58-1.11-.06-.09-.17-.22-.18-.28-.25-1-.97-1.98-1.09-2.99-.02-.17-.1-.34-.18-.46-.34-.45-.51-.96-.58-1.54-.04-.32-.16-.66-.32-.94-.15-.28-.25-.56-.29-.86-.11-.79-.47-1.68-.53-2.46-.03-.35-.24-.58-.36-.83-.32-.68-.58-2.07-.4-2.38.01-.03.07.01.1.06.59.96,1.2,1.71,1.8,2.6.36.54.76,1.05,1.14,1.51.52.63.95,1.5,1.28,2.58.14.48.27.87.53,1.34.25.45.42,1.13.63,1.71h0c.01.09.02.26.04.28.39.52.49,1.12.56,1.54.11.67.42.97.68,1.3.51.62.79,1.3,1.05,2.03.04.13.08.25.16.35.49.52.73,1.15,1.01,1.77.02.05.04.12.07.16.65.87,1.04,1.78,1.61,2.63.53.76,1.01,1.39,1.75,1.87.87.53,1.63,1.55,2.4,2.29.54.55,1,.75,1.49,1.05.3.17.58.33.81.57.38.4.86.61,1.35.88.58.26,1.05.63,1.41.99.28.29.74.54,1.25.67h0Z"/>
      <path class="cls-3" d="M157.23,106.42c.16-.9.71-1.81,1.43-2.55.35-.34.73-.67,1.1-1.01.11-.1.23-.15.24-.05.02.39.3.54.11,1.12-.25.78-.22,1.41-.47,2.23-.01.04-.01.09-.03.11-.41.41-.46,1.04-.93,1.41-.08.07-.19.18-.2.29-.04.38-.3.62-.54.88h0c-.1.5-.35.95-.66,1.43-.13.19-.15.48-.17.71-.03.34-.16.65-.44.92-.32.3-.33.7-.34.97-.01.6-.38.83-.62,1.19-.06.09-.16.15-.17.27-.02.28-.06.53-.26.77h0s-.03.07-.03.07h0c-.38.4-.55,1.08-.87,1.55-.04.06-.08.22-.07.27.08.37-.22.85-.18,1.26,0,.08-.18.33-.28.51h0c.03.09.08.17,0,.34h0c-.06.03-.04.09-.04.14h0s.04,0,.04,0h0c.14.47-.1.89-.3,1.18-.21.31-.23.62-.17.81.13.43,0,.88-.16,1.24-.15.36-.14.59-.09.87.01.08.04.19.02.24-.27.69-.1,1.54-.4,2.2-.05.11-.06.25-.02.35.14.39.06.77-.08,1.16-.08.22-.09.47-.05.7.04.22.04.44-.02.64-.17.56-.08,1.24-.27,1.79-.08.25.05.45.11.64.13.53.02,1.54-.23,1.74-.02.02-.07-.02-.08-.06-.31-.77-.73-1.41-1.04-2.17-.19-.46-.4-.91-.63-1.34-.31-.58-.38-1.33-.29-2.2.04-.39.1-.7.06-1.11-.03-.4.09-.93.17-1.4h0c.03-.07.1-.18.1-.2-.1-.5.12-.94.26-1.24.23-.48.16-.8.12-1.13-.07-.63.06-1.2.33-1.75.05-.1.1-.18.09-.28-.04-.57.16-1.07.4-1.55.02-.04.05-.09.06-.12.13-.85.54-1.53.85-2.27.26-.68.51-1.24.54-1.94.01-.83.58-1.7.99-2.44.28-.54.39-.92.52-1.37.08-.27.18-.51.36-.72.28-.34.46-.72.64-1.13.21-.47.5-.86.88-1.08.29-.18.52-.52.7-.9h0Z"/>
      <path class="cls-3" d="M215.97,91.27c.72.26,1.52.51,2.33.83.4.16.8.34,1.2.54.39.21.79.4,1.2.57.76.35,1.56.73,2.35,1.1.23.11.41.25.27.26-.56.07-.55.4-1.61.25-.72-.11-1.33-.14-1.97-.19-.64-.05-1.26-.2-2.02-.4-.07-.02-.16-.03-.2-.05-.48-.28-1-.46-1.51-.66-.51-.21-.98-.49-1.41-.86-.15-.13-.39-.3-.58-.36-.66-.22-1.22-.58-1.72-1.05h0c-.86-.41-1.69-1-2.57-1.68-.35-.26-.79-.55-1.17-.75-.55-.3-1.08-.73-1.53-1.29-.53-.61-1.1-1.07-1.53-1.33-.93-.63-1.27-1.29-1.78-1.96-.12-.17-.18-.36-.35-.52-.39-.35-.76-.7-1.05-1.21h0s-.1-.11-.1-.11h0c-.52-.87-1.34-1.97-1.81-2.93-.06-.12-.26-.38-.33-.44-.26-.21-.53-.55-.77-.92-.23-.38-.46-.77-.7-1.06-.1-.11-.29-.67-.44-1.02h0c-.13-.11-.26-.18-.42-.51h0c0-.1-.08-.16-.14-.24h0s-.03.03-.03.03h0c-.63-.59-.86-1.52-1.04-2.16-.18-.68-.48-1.19-.72-1.47-.5-.64-.76-1.55-.95-2.27-.18-.74-.42-1.11-.65-1.6-.06-.14-.17-.33-.18-.43-.2-1.42-1.03-2.9-.98-4.33,0-.24-.06-.49-.14-.67-.28-.71-.47-1.46-.4-2.27.03-.45-.02-.95-.12-1.4-.1-.43-.14-.86-.13-1.27.03-1.11.04-2.46.19-3.53.08-.49-.07-.88-.06-1.27,0-1.05.35-3.03.64-3.33.02-.03.06.05.07.14.07.78.16,1.49.25,2.18.11.69.16,1.36.34,2.07.19.86.41,1.68.63,2.43.13.51.31,1.09.43,1.72.13.64.21,1.34.26,2.1.04.68.17,1.22.37,1.92.22.66.25,1.62.48,2.43h0c.01.12.02.34.04.38.4.78.47,1.6.53,2.18.09.91.48,1.37.75,1.86.56.93.84,1.91,1.22,2.9.06.18.11.34.21.48.58.78.84,1.68,1.27,2.52.03.07.06.16.1.21.42.62.76,1.25,1.07,1.89.32.63.7,1.22,1.08,1.83.35.54.67,1.04,1.02,1.51.38.44.79.85,1.25,1.24.55.43,1.04,1.05,1.59,1.64.55.58,1.08,1.21,1.57,1.77.69.83,1.33,1.15,1.98,1.64.4.28.75.56,1.07.91.5.58,1.16.93,1.82,1.37.77.48,1.37,1.06,1.88,1.54.38.4,1,.79,1.67,1.12h-.01Z"/>
      <path class="cls-3" d="M216.37,99.34c.22-.66.6-1.3,1.05-1.94.46-.63.93-1.28,1.53-1.81.55-.5,1.15-1.03,1.73-1.54.17-.15.34-.24.31-.11-.12.51.17.66-.28,1.46-.61,1.08-.82,1.92-1.39,3.1-.03.05-.04.13-.07.15-.32.32-.55.7-.79,1.07-.23.38-.45.77-.8,1.07-.12.11-.28.29-.33.45-.17.55-.56.93-.91,1.36h0c-.26.73-.68,1.44-1.17,2.19-.2.29-.29.73-.38,1.06-.12.5-.34.99-.72,1.44-.45.5-.53,1.11-.6,1.51-.14.9-.6,1.31-.94,1.9-.08.15-.2.26-.23.44-.08.42-.16.82-.42,1.22h0s-.04.11-.04.11h0c-.5.67-.76,1.75-1.17,2.53-.05.09-.12.36-.11.43.02.54-.34,1.35-.34,1.97,0,.12-.22.55-.34.83h0c.02.14.06.25-.03.53h0c-.07.06-.05.14-.06.22h0s.04,0,.04,0h0c.1.69-.15,1.39-.38,1.89-.23.52-.27,1-.22,1.3.12.65-.02,1.39-.17,1.97-.15.59-.15.95-.09,1.38.02.12.05.3.03.37-.23,1.12-.06,2.43-.28,3.53-.04.18-.03.4,0,.55.18.6.11,1.2.04,1.84-.05.36-.03.75.05,1.11.08.35.1.69.06,1.02-.1.9.14,1.95.06,2.83-.03.4.13.7.24,1,.26.81.39,2.4.19,2.74-.02.03-.07-.02-.1-.08-.49-1.17-1.08-2.12-1.54-3.27-.27-.7-.57-1.38-.87-2.01-.42-.87-.57-2.03-.61-3.39-.01-.61.03-1.1-.05-1.74-.06-.62-.01-1.47.06-2.21h0c.03-.11.1-.3.09-.33-.12-.77.08-1.48.21-1.97.21-.78.16-1.27.12-1.77-.07-.96.06-1.87.38-2.77.05-.16.11-.3.11-.45,0-.86.2-1.67.51-2.45.02-.07.06-.14.07-.2.21-1.32.7-2.43,1.14-3.61.19-.53.36-1.03.5-1.52.17-.49.3-.97.37-1.5.1-.61.29-1.29.6-1.94.31-.65.66-1.29.96-1.87.42-.85.65-1.41.91-2.1.16-.41.33-.77.58-1.11.39-.55.72-1.12,1.04-1.75.38-.71.81-1.33,1.33-1.71.39-.31.77-.82,1.1-1.4h0Z"/>
      <path class="cls-3" d="M271.46,86.32c.67.33,1.39.73,2.11,1.18.72.45,1.4,1.01,2.09,1.54.63.52,1.31,1.07,1.97,1.6.19.16.33.33.19.32-.56-.07-.64.26-1.6-.13-1.3-.52-2.29-.67-3.64-1.36-.06-.03-.15-.05-.18-.08-.4-.35-.85-.61-1.3-.88-.43-.29-.86-.59-1.21-1.01-.12-.14-.33-.34-.5-.42-.6-.28-1.07-.71-1.49-1.2h0c-.78-.46-1.52-1.09-2.29-1.81-.3-.28-.72-.57-1.08-.78-.51-.31-1-.74-1.4-1.3-.46-.62-1.02-1.04-1.42-1.3-.89-.6-1.19-1.24-1.67-1.89-.11-.16-.17-.34-.34-.49-.38-.33-.74-.65-1.02-1.13h0s-.1-.11-.1-.11h0c-.49-.83-1.34-1.83-1.83-2.74-.06-.11-.26-.36-.33-.4-.27-.18-.53-.5-.79-.83-.24-.35-.49-.71-.75-.96-.1-.1-.32-.62-.49-.94h0c-.14-.09-.26-.15-.44-.46h0c0-.1-.09-.15-.15-.22h0s-.03.03-.03.03h0c-.66-.5-.96-1.37-1.18-1.96-.23-.64-.56-1.1-.82-1.34-.56-.55-.89-1.39-1.15-2.06-.25-.69-.51-1.02-.8-1.45-.08-.12-.2-.3-.22-.38-.34-1.33-1.32-2.64-1.45-4-.03-.22-.12-.46-.22-.62-.37-.64-.63-1.33-.68-2.1-.03-.43-.14-.9-.3-1.31-.15-.4-.25-.8-.29-1.19-.12-1.06-.3-2.35-.3-3.39.01-.47-.19-.83-.24-1.2-.16-1-.1-2.93.14-3.26.02-.03.07.04.09.12.39,1.46.74,2.65,1.22,3.95.31.79.64,1.54.96,2.22.43.93.92,2.1,1.19,3.54.14.64.32,1.15.61,1.78.3.6.44,1.52.77,2.26h0c.03.12.06.33.08.36.48.69.64,1.48.76,2.02.2.86.61,1.26.93,1.7.63.83,1.03,1.73,1.47,2.66.07.16.13.32.24.45.63.7.98,1.54,1.43,2.32.04.07.07.15.11.2.45.57.82,1.16,1.17,1.75.36.58.74,1.14,1.14,1.71.36.51.7.98,1.06,1.42.38.42.78.81,1.25,1.17.55.41,1.04.99,1.57,1.57.53.58,1.03,1.19,1.51,1.74.67.8,1.25,1.17,1.87,1.67.37.29.7.58,1,.94.46.59,1.05,1,1.66,1.48.7.53,1.25,1.15,1.66,1.7.31.44.86.9,1.47,1.3h-.01Z"/>
      <path class="cls-3" d="M274.18,98.12c.42-1.15,1.22-2.35,2.18-3.37.46-.46.95-.97,1.43-1.45.14-.14.3-.23.28-.11-.05.47.25.6-.07,1.36-.44,1.02-.54,1.83-1.03,2.91-.02.05-.04.12-.06.14-.57.59-.79,1.42-1.44,1.95-.12.09-.26.25-.31.4-.16.5-.51.85-.87,1.2h0c-.27.65-.69,1.27-1.19,1.91-.2.25-.33.63-.43.93-.14.44-.39.87-.79,1.23-.45.4-.62.93-.71,1.29-.22.8-.7,1.1-1.09,1.58-.1.12-.23.19-.28.35-.12.37-.25.71-.55,1.02h0s-.06.09-.06.09h0c-.55.52-.98,1.42-1.47,2.04-.06.07-.16.3-.17.36-.04.5-.54,1.13-.63,1.68-.02.11-.3.44-.45.67h0c0,.13.02.24-.11.47h0c-.08.04-.07.12-.09.18h0s.04,0,.04,0h0c-.02.63-.4,1.19-.69,1.58-.31.41-.42.83-.43,1.1-.03.59-.26,1.21-.52,1.68-.25.49-.29.8-.34,1.19-.02.11-.01.27-.04.33-.41.93-.48,2.11-.88,3.02-.07.15-.1.34-.08.48.07.56-.08,1.07-.27,1.61-.1.3-.14.65-.12.98.02.31,0,.61-.1.89-.25.77-.15,1.72-.36,2.48-.08.35.02.63.09.9.15.74.07,2.15-.17,2.43-.02.02-.07-.02-.09-.08-.33-1.08-.81-1.99-1.09-3.07-.17-.65-.37-1.3-.57-1.91-.28-.84-.24-1.9-.06-3.12.11-.54.22-.97.25-1.56.04-.56.24-1.31.45-1.95h0c.05-.09.15-.24.15-.27.01-.7.33-1.3.55-1.7.38-.63.39-1.09.44-1.54.05-.43.15-.84.28-1.24.16-.39.35-.76.57-1.12.08-.13.15-.24.18-.38.12-.78.5-1.42.91-2.05.03-.05.08-.11.1-.16.21-.56.47-1.06.75-1.54.3-.47.61-.93.89-1.41.5-.88.97-1.6,1.24-2.52.29-1.09,1.2-2.19,1.88-3.14.49-.68.72-1.18,1.01-1.76.18-.34.35-.65.61-.92.42-.44.72-.93,1.04-1.47.37-.61.81-1.11,1.28-1.42.37-.25.72-.7,1.01-1.2h0Z"/>
      <path class="cls-3" d="M345.87,247.62c-.2-.09-.4-.2-.59-.33-.18-.14-.34-.31-.51-.49-.31-.36-.63-.75-.8-1.22-.17-.44-.32-.9-.48-1.35-.05-.13-.04-.26.05-.23.36.13.61-.06,1.05.29.3.24.59.4.87.55.29.15.62.28.93.49.03.02.08.03.09.05.11.23.3.4.48.56.2.15.39.31.48.57.03.09.11.2.2.24.32.11.47.38.65.63h0c.44.15.77.45,1.14.79.15.12.41.18.61.22.3.05.55.2.74.49.24.3.6.35.84.36.53.04.69.41,1,.63.08.06.12.16.23.17.25.03.47.07.67.28h0s.06.03.06.03h0c.34.37.96.53,1.35.86.05.04.2.09.24.07.34-.09.77.2,1.14.17.07,0,.29.18.45.28h0c.09-.03.16-.08.32-.01h0c.03.06.08.03.13.03h0s.01-.03.01-.03h0c.43-.15.8.1,1.06.3.28.21.56.23.74.17.4-.13.81.02,1.13.17.32.16.54.13.8.09.07-.01.18-.04.22-.02.62.29,1.41.12,2.01.46.1.06.22.07.32.04.37-.11.71-.03,1.06.13.2.09.43.12.65.09.21-.03.41,0,.59.07.5.2,1.13.2,1.62.43.22.1.42-.01.6-.04.5-.06,1.42.18,1.56.46.01.02-.03.06-.07.08-.75.22-1.38.53-2.1.76-.44.14-.87.32-1.27.5-.55.25-1.23.29-2,.14-.34-.06-.62-.13-1-.1-.36.02-.83-.14-1.25-.22h0c-.06-.03-.16-.1-.18-.1-.46.09-.85-.14-1.11-.29-.42-.23-.72-.16-1.02-.12-.57.06-1.09-.08-1.59-.33-.09-.05-.17-.1-.26-.09-.52.04-.97-.18-1.41-.39-.04-.02-.08-.05-.11-.06-.77-.15-1.39-.53-2.05-.85-.6-.3-1.12-.5-1.78-.57-.77-.05-1.56-.61-2.2-1.09-.47-.32-.83-.42-1.23-.62-.24-.11-.45-.24-.63-.43-.28-.3-.61-.52-.97-.77-.4-.29-.71-.63-.83-1.03-.09-.32-.34-.61-.66-.86h0Z"/>
      <path class="cls-3" d="M338.69,249.03c.2-.76.64-1.49,1.26-2.08.28-.27.6-.57.91-.86.09-.08.21-.13.22-.04.07.34.36.48.24,1-.16.71-.07,1.33-.33,2.07-.01.03-.01.09-.03.1-.39.35-.47.96-.98,1.22-.09.05-.2.14-.22.24-.09.35-.34.55-.62.72h0c-.19.43-.52.79-.91,1.15-.15.14-.27.38-.35.58-.12.29-.34.54-.67.68-.37.16-.54.49-.64.72-.24.52-.65.57-1,.77-.09.05-.2.04-.27.14-.14.22-.3.41-.57.51h0s-.06.05-.06.05h0c-.49.15-.98.58-1.48.75-.06.02-.18.12-.2.17-.12.35-.63.52-.85.83-.04.06-.33.12-.51.18h0c-.04.09-.05.18-.21.26h0c-.07-.02-.08.04-.12.08h0s.02.03.02.03h0c-.18.43-.65.53-.98.58-.35.06-.56.25-.66.41-.22.37-.64.53-.99.62-.36.1-.5.26-.7.44-.05.05-.13.14-.17.15-.69.13-1.25.77-1.97.77-.12,0-.23.06-.3.14-.27.29-.61.42-1.01.43-.22,0-.44.09-.63.22-.18.12-.37.2-.57.21-.54.05-1.14.28-1.67.27-.24,0-.38.18-.55.26-.45.23-1.42.3-1.63.09-.02-.02,0-.07.04-.09.64-.46,1.13-.93,1.68-1.42.33-.3.64-.62.91-.94.37-.43.9-.78,1.6-.97.31-.09.56-.18.84-.38.27-.2.72-.28,1.09-.44h0c.07,0,.18,0,.19-.02.29-.33.7-.35.99-.38.45-.04.62-.3.8-.51.35-.41.8-.59,1.29-.75.09-.03.17-.04.22-.11.29-.38.73-.51,1.14-.69.03-.01.08-.02.1-.04.54-.47,1.18-.65,1.75-1.03.52-.32.96-.6,1.24-1.14.34-.61,1.07-1.03,1.65-1.45.42-.29.57-.6.8-.92.13-.19.27-.35.47-.46.33-.18.52-.47.75-.77.25-.35.59-.57.93-.7.28-.09.51-.35.7-.65h0Z"/>
      <path class="cls-3" d="M329.31,207.38c.24-.44.52-.91.85-1.34.33-.44.76-.82,1.16-1.23.39-.36.82-.75,1.23-1.12.12-.11.26-.17.26-.07,0,.41.29.55.03,1.2-.35.88-.41,1.63-.92,2.52-.02.04-.04.1-.06.12-.54.46-.8,1.18-1.47,1.51-.12.06-.27.17-.33.29-.21.41-.55.67-.94.88h0c-.36.5-.86.93-1.43,1.36-.22.17-.44.44-.61.67-.24.33-.58.61-1.03.78-.49.19-.82.55-1.02.81-.47.58-.98.63-1.48.84-.13.05-.27.04-.38.14-.25.23-.51.44-.88.53h0s-.09.05-.09.05h0c-.65.15-1.42.58-2.1.73-.08.02-.27.12-.31.17-.28.37-.98.51-1.37.81-.08.06-.46.1-.7.15h0c-.08.09-.13.19-.35.25h0c-.07-.02-.12.03-.17.07h0s.01.03.01.03h0c-.39.44-1.01.47-1.45.49-.46.02-.8.19-.99.35-.42.34-1.02.44-1.5.49-.49.04-.74.19-1.06.34-.09.04-.22.11-.28.11-.93,0-1.9.55-2.82.39-.15-.02-.32.01-.44.07-.46.22-.94.29-1.46.2-.29-.05-.61-.03-.9.05-.28.07-.55.1-.82.06-.71-.09-1.58-.06-2.26-.22-.31-.08-.56.06-.82.08-.68.06-1.94-.19-2.14-.46-.02-.02.03-.06.09-.08,1-.23,1.82-.5,2.72-.8.55-.19,1.07-.41,1.55-.63.65-.3,1.46-.52,2.43-.52.43,0,.78-.06,1.23-.19.42-.14,1.04-.11,1.56-.21h0c.09,0,.23.03.25.02.5-.28,1.04-.23,1.41-.2.6.04.9-.21,1.22-.39.61-.36,1.24-.47,1.92-.58.12-.02.23-.02.32-.09.52-.37,1.12-.44,1.7-.59.05-.01.11-.02.15-.04.85-.45,1.73-.58,2.56-.95.38-.16.73-.3,1.06-.47.32-.19.61-.41.89-.7.64-.64,1.67-1.1,2.51-1.56.61-.31.89-.68,1.27-1.04.22-.22.44-.4.72-.53.45-.2.77-.56,1.13-.9.41-.41.87-.67,1.31-.84.35-.12.7-.43,1-.8h0Z"/>
      <path class="cls-3" d="M337.68,205.22c-.88.11-1.88-.12-2.76-.56-.4-.22-.84-.46-1.26-.7-.12-.07-.21-.17-.12-.21.35-.15.4-.46.99-.48.8-.02,1.39-.26,2.22-.27.04,0,.09-.02.11,0,.5.26,1.12.12,1.6.47.09.06.22.13.33.11.37-.07.67.1.98.27h0c.5-.04,1,.07,1.54.25.21.07.49.03.72-.01.33-.06.66,0,.98.2.36.24.75.16,1.01.1.58-.13.88.18,1.28.33.1.04.18.13.29.11.27-.03.53-.05.8.09h0s.08,0,.08,0h0c.46.29,1.16.32,1.67.55.06.03.23.04.28.02.34-.15.87.06,1.26-.04.08-.02.35.12.54.19h0c.09-.05.16-.11.34-.07h0c.04.05.09.02.14.01h0s0-.04,0-.04h0c.43-.22.87-.04,1.19.12.34.16.64.13.82.05.41-.19.87-.11,1.23,0,.37.1.59.05.87-.02.08-.02.19-.06.23-.05.7.19,1.52-.08,2.21.16.11.04.25.03.34-.01.38-.17.75-.14,1.15-.03.22.06.47.06.7,0,.22-.06.43-.07.64-.02.56.13,1.23.02,1.78.17.25.07.44-.08.63-.13.51-.15,1.52-.06,1.72.18.02.02-.02.07-.06.09-.75.34-1.37.76-2.09,1.11-.44.21-.87.45-1.26.69-.54.34-1.26.47-2.1.44-.37-.01-.68-.04-1.07.04-.38.07-.9,0-1.36-.04h0c-.07-.02-.19-.08-.21-.07-.47.16-.92,0-1.22-.12-.48-.17-.79-.06-1.1.03-.59.16-1.15.09-1.72-.08-.1-.03-.19-.07-.28-.04-.53.13-1.04,0-1.54-.15-.04-.01-.09-.04-.13-.03-.83.01-1.54-.27-2.3-.43-.69-.13-1.27-.26-1.94-.14-.79.16-1.72-.19-2.51-.42-.57-.16-.95-.15-1.4-.17-.27-.01-.52-.05-.76-.16-.38-.18-.78-.25-1.22-.31-.49-.07-.92-.25-1.23-.55-.24-.22-.62-.35-1.03-.4h0Z"/>
      <path class="cls-3" d="M328.02,163.84c-.96.09-2.04-.15-3.01-.62-.44-.23-.92-.49-1.39-.73-.14-.07-.23-.18-.14-.21.37-.14.42-.46,1.06-.46.87,0,1.5-.23,2.41-.22.04,0,.1-.02.12,0,.56.28,1.22.14,1.76.5.09.06.24.13.36.12.41-.06.74.12,1.08.29h0c.55-.03,1.09.09,1.68.28.23.08.54.03.78,0,.36-.05.73,0,1.08.21.4.24.83.17,1.11.12.64-.12.97.19,1.41.35.11.04.19.13.32.11.3-.03.58-.04.88.11h0s.08.01.08.01h0c.51.3,1.27.33,1.84.57.07.03.25.04.3.02.37-.15.95.07,1.37-.03.08-.02.39.12.59.19h0c.1-.05.17-.11.37-.06h0c.05.05.1.02.16.01h0s0-.04,0-.04h0c.47-.21.96-.03,1.31.13.37.16.7.14.9.06.44-.18.95-.1,1.35,0,.41.1.65.06.95-.02.08-.02.2-.06.25-.05.77.19,1.67-.07,2.42.17.13.04.27.03.38,0,.41-.17.82-.13,1.26-.02.24.06.52.06.77,0,.24-.06.47-.07.7-.02.61.13,1.34.02,1.95.17.27.07.48-.08.69-.13.57-.15,1.67-.06,1.89.18.02.02-.02.07-.06.09-.83.34-1.51.76-2.3,1.11-.48.21-.95.45-1.39.69-.6.34-1.38.47-2.3.44-.41-.02-.74-.04-1.17.04-.42.07-.99,0-1.49-.04h0c-.08-.02-.2-.08-.23-.07-.52.16-1-.01-1.33-.12-.53-.17-.86-.06-1.2.02-.65.15-1.26.09-1.88-.1-.11-.03-.21-.07-.31-.05-.58.12-1.13,0-1.68-.17-.05-.01-.1-.04-.14-.04-.9,0-1.68-.28-2.52-.46-.75-.14-1.39-.28-2.12-.16-.86.15-1.88-.22-2.74-.46-.62-.16-1.04-.17-1.53-.2-.3-.02-.56-.06-.83-.18-.42-.19-.86-.26-1.33-.33-.54-.08-1.01-.27-1.35-.57-.27-.23-.68-.36-1.13-.42h0Z"/>
      <path class="cls-3" d="M318.6,167.18c.07-.48.17-.99.34-1.49.16-.5.43-.98.67-1.47.24-.44.51-.93.77-1.39.08-.14.19-.24.22-.14.13.38.45.41.43,1.09-.03.91.17,1.61,0,2.58,0,.05,0,.11-.01.13-.36.58-.34,1.32-.86,1.83-.09.09-.19.24-.21.36-.05.44-.29.78-.58,1.09h0c-.16.57-.48,1.11-.86,1.67-.15.22-.26.53-.33.8-.11.38-.33.74-.68,1.02-.39.33-.57.75-.67,1.05-.24.67-.69.87-1.08,1.22-.1.08-.23.12-.3.24-.16.29-.32.56-.63.76h0s-.06.07-.06.07h0c-.54.33-1.1.96-1.68,1.31-.07.04-.21.19-.23.25-.13.43-.72.77-.97,1.17-.05.08-.39.23-.59.35h0c-.04.11-.05.21-.24.34h0c-.08,0-.1.07-.13.12h0s.02.02.02.02h0c-.2.53-.76.75-1.15.9-.42.16-.67.42-.78.63-.27.45-.78.73-1.2.92-.43.19-.61.4-.85.64-.07.07-.16.17-.21.19-.84.29-1.54,1.1-2.42,1.24-.15.03-.28.11-.37.2-.34.35-.75.57-1.26.64-.28.05-.56.17-.79.33-.22.16-.47.27-.72.32-.68.14-1.44.45-2.12.51-.31.02-.49.24-.71.34-.59.28-1.81.45-2.08.26-.02-.02.01-.07.05-.1.83-.54,1.47-1.06,2.19-1.63.43-.35.83-.73,1.18-1.09.49-.49,1.14-.95,2.02-1.26.39-.14.69-.3,1.05-.56.34-.27.9-.43,1.34-.68h0c.08-.02.22-.04.23-.06.36-.41.86-.53,1.21-.62.55-.14.74-.47.97-.74.43-.52.97-.82,1.54-1.13.1-.05.2-.09.26-.18.35-.5.87-.75,1.34-1.06.04-.03.09-.05.12-.08.62-.67,1.38-1.06,2.01-1.66.29-.26.57-.5.81-.76.23-.27.42-.57.57-.91.37-.79,1.16-1.52,1.77-2.19.46-.47.58-.89.81-1.33.13-.27.27-.5.48-.7.35-.32.52-.74.74-1.17.24-.5.58-.88.93-1.16.28-.21.5-.6.66-1.03h0Z"/>
      <path class="cls-3" d="M313.18,126.74c-.83.35-1.85.42-2.84.26-.45-.09-.95-.19-1.43-.28-.14-.03-.25-.1-.18-.16.29-.25.24-.56.81-.76.77-.26,1.27-.67,2.09-.92.04-.01.08-.04.1-.04.57.11,1.14-.21,1.72,0,.1.04.25.06.36.02.35-.16.7-.09,1.05,0h0c.49-.17,1.02-.19,1.59-.16.23.01.5-.1.71-.19.31-.14.66-.17,1.03-.05.42.14.79-.02,1.04-.14.56-.26.93-.03,1.37.03.11.01.2.08.32.05.27-.09.52-.16.83-.08h0s.08,0,.08,0h0c.53.18,1.24.07,1.8.2.07.02.24,0,.28-.04.32-.22.89-.11,1.26-.28.07-.03.38.05.58.08h0c.08-.06.14-.14.33-.13h0c.05.05.1,0,.15-.01h0s0-.03,0-.03h0c.39-.29.88-.19,1.23-.09.37.1.67.02.84-.09.38-.25.87-.24,1.26-.2.4.04.61-.04.88-.15.07-.03.18-.09.23-.08.75.09,1.55-.3,2.28-.13.12.03.26,0,.35-.05.36-.21.75-.23,1.17-.16.24.04.49,0,.72-.08.22-.08.43-.12.65-.09.59.07,1.26-.1,1.84,0,.26.04.44-.12.64-.19.52-.19,1.56-.18,1.78.05.02.02-.01.07-.05.09-.75.4-1.35.86-2.05,1.27-.43.25-.84.53-1.22.8-.52.38-1.22.6-2.07.65-.38.02-.68.04-1.07.17-.37.12-.91.1-1.37.13h0c-.08-.01-.2-.05-.22-.04-.45.22-.92.12-1.24.05-.51-.1-.8.06-1.09.19-.57.24-1.14.26-1.73.19-.1-.01-.2-.03-.29,0-.51.22-1.03.17-1.56.11-.04,0-.1-.02-.13-.01-.82.16-1.58.02-2.37.01-.71,0-1.31,0-1.96.26-.75.32-1.74.19-2.56.15-.59-.03-.97.08-1.42.17-.27.05-.52.08-.78.02-.42-.09-.83-.04-1.27.01-.5.06-.97,0-1.34-.2-.3-.15-.7-.17-1.11-.11h0Z"/>
      <path class="cls-3" d="M303.48,130.02c.13-.82.51-1.66,1.07-2.38.26-.33.55-.7.83-1.05.08-.1.2-.17.22-.08.1.35.41.44.35,1.01-.09.77.06,1.39-.13,2.2,0,.04,0,.09-.02.11-.36.43-.37,1.07-.87,1.43-.09.06-.19.17-.2.28-.05.38-.29.63-.56.85h0c-.15.48-.44.9-.8,1.34-.14.17-.23.44-.29.66-.09.32-.29.61-.61.81-.36.23-.5.6-.58.85-.19.58-.6.7-.94.96-.09.06-.21.08-.26.19-.12.25-.26.47-.53.62h0s-.05.06-.05.06h0c-.49.24-.94.76-1.44,1.02-.06.03-.17.16-.19.21-.09.38-.59.64-.79.99-.04.07-.33.18-.5.28h0c-.03.1-.03.19-.18.29h0c-.07,0-.08.05-.11.1h0s.03.02.03.02h0c-.14.47-.61.65-.94.76-.36.12-.55.35-.63.54-.19.41-.61.65-.96.81-.36.16-.49.35-.67.57-.05.06-.12.16-.16.18-.7.25-1.21.99-1.95,1.13-.12.02-.23.1-.29.19-.24.34-.58.53-1,.61-.23.05-.45.17-.63.33-.17.15-.36.26-.57.31-.56.14-1.15.48-1.72.57-.26.04-.38.25-.54.36-.45.31-1.44.55-1.7.38-.02-.01,0-.07.03-.1.61-.57,1.05-1.13,1.57-1.72.31-.36.59-.74.84-1.1.34-.5.84-.94,1.55-1.26.31-.14.56-.29.83-.54.26-.25.72-.41,1.08-.64h0c.07-.02.19-.03.2-.05.26-.38.69-.48.99-.56.47-.12.61-.42.78-.66.32-.47.76-.74,1.25-.99.09-.04.17-.07.22-.15.26-.44.7-.65,1.11-.91.03-.02.08-.04.1-.06.5-.58,1.15-.88,1.7-1.36.5-.42.93-.79,1.16-1.39.29-.68.99-1.25,1.54-1.78.4-.37.52-.72.72-1.09.12-.22.24-.41.44-.56.32-.24.49-.58.69-.93.22-.4.54-.69.88-.88.27-.14.49-.45.65-.79h0Z"/>
      <g>
        <path class="cls-1" d="M331.37,87.2c-5.87-18.85-25.9-29.37-44.75-23.51-18.85,5.87-29.37,25.9-23.51,44.75,5.87,18.85,25.9,29.37,44.75,23.51,18.85-5.87,29.37-25.9,23.51-44.75Z"/>
        <path class="cls-1" d="M248.46,117.8c-5.87-18.85-25.9-29.37-44.75-23.51-18.85,5.87-29.37,25.9-23.51,44.75,5.87,18.85,25.9,29.37,44.75,23.51,18.85-5.87,29.37-25.9,23.51-44.75Z"/>
        <path class="cls-1" d="M299.38,166.37c-4.84-15.55-21.36-24.23-36.91-19.39-15.55,4.84-24.23,21.36-19.39,36.91,4.84,15.55,21.36,24.23,36.91,19.39,15.55-4.84,24.23-21.36,19.39-36.91Z"/>
      </g>
    </g>
  </g>
</svg>