<?xml version="1.0" encoding="UTF-8"?>
<svg id="Ebene_2" data-name="Ebene 2" xmlns="http://www.w3.org/2000/svg" viewBox="0 0 1057.94 528.43">
  <defs>
    <style>
      .cls-1 {
        fill: #d9a764;
        stroke-width: 0px;
      }
    </style>
  </defs>
  <g id="_1" data-name="1">
    <path class="cls-1" d="M444.7,249.94c.9-.97,1.79-2.07.51-3.14-2.76-2.32-5.07-5.25-6.63-8.51-.71-1.49-.94-3.19-1.65-4.65-.6-1.26-1.94-2.68-2.73-.72-1.01,2.49-.91,5.23-2.03,7.68-1.01,2.21-2.67,4.14-4.76,5.38-.55.33-.9.91-.93,1.55-.03.64.25,1.25.77,1.64,2.51,1.88,4.54,4.37,6.02,7.14.76,1.43,1.38,2.94,1.84,4.49.42,1.43.41,3.32,1.61,4.37.36.32.88.49,1.34.34.53-.18.84-.72,1.09-1.22.83-1.63.97-3.33,1.42-5.08.47-1.81,1.09-3.59,1.76-5.34.39-1.02.85-2.06,1.51-2.94.23-.31.56-.64.89-.99Z"/>
    <path class="cls-1" d="M109.1,428.8c0-.06-2.51-1.59-2.78-1.83-.82-.76-1.51-1.64-2.07-2.6-1.27-2.21-2.11-4.47-2.99-6.87-.04-.1-.08-.21-.17-.28-.21-.16-.51.01-.68.21-.49.57-.66,1.33-.82,2.06-.98,4.49-2.58,8.46-5.77,11.88-1.1,1.18.12,2.12,1,2.85.97.81,1.66,1.83,2.25,2.95.78,1.49,1.52,3,2.13,4.57.58,1.49.69,3.58,1.77,4.78.3.33.67.69,1.11.62.44-.07.69-.52.85-.93.98-2.48,1.18-5.22,2.13-7.73.98-2.6,2.49-5.02,4.5-6.94.4-.38.59-.94.49-1.49-.1-.55-.46-1.01-.97-1.24Z"/>
    <path class="cls-1" d="M1039.37,311.76c0-.06-2.51-1.59-2.77-1.83-.82-.75-1.51-1.63-2.06-2.6-1.27-2.2-2.1-4.45-2.98-6.85-.04-.1-.08-.21-.17-.28-.21-.16-.51.01-.68.21-.49.56-.66,1.33-.82,2.05-.98,4.47-2.58,8.44-5.75,11.85-1.1,1.18.12,2.11.99,2.84.97.81,1.66,1.82,2.24,2.94.78,1.48,1.52,2.99,2.12,4.56.57,1.48.69,3.57,1.77,4.76.3.33.67.69,1.11.62.44-.07.69-.52.85-.93.98-2.48,1.18-5.2,2.12-7.71.98-2.59,2.48-5.01,4.49-6.92.4-.38.58-.94.49-1.49-.1-.55-.46-1.01-.97-1.23Z"/>
    <path class="cls-1" d="M94.48,504.09l-.05.09c-.5.95-.45,2.27.39,3.04.85.78,2.02.93,3.04.39l.09-.05c1.46-.77,1.63-2.87.51-3.99-1.12-1.12-3.22-.95-3.99.51Z"/>
    <path class="cls-1" d="M513.33,163.29l-.13.25c-1.32,2.55-1.17,6.06,1.03,8.12,2.23,2.08,5.29,2.49,7.97,1.05l.24-.13c3.83-2.06,4.28-7.67,1.35-10.66-2.93-2.98-8.45-2.52-10.46,1.37Z"/>
    <path class="cls-1" d="M189.04,13.01c0-.28.02-.56.02-.83.05-1.61-1.45-3.15-3.08-3.08-1.63.07-3.13,1.36-3.08,3.08,0,.28.02.56.02.83.05,1.6,1.37,3.13,3.06,3.06,1.7-.08,3.01-1.34,3.06-3.06Z"/>
    <path class="cls-1" d="M844.41,6.08c-6.39,0-6.4,9.93,0,9.93s6.4-9.93,0-9.93Z"/>
    <path class="cls-1" d="M818.16,99.83c-6.39,0-6.4,9.93,0,9.93s6.4-9.93,0-9.93Z"/>
    <path class="cls-1" d="M596.04,1.92c-.57-2.56-4.61-2.57-5.19,0,0,.02,0,.02,0,.04-1.36,1.91.48,4.52,2.6,4.52s3.96-2.62,2.6-4.52c0-.01,0-.02,0-.04Z"/>
    <path class="cls-1" d="M324.83,124.57c-4,0-4,6.21,0,6.21s4-6.21,0-6.21Z"/>
    <path class="cls-1" d="M964.95,522.22c-4,0-4,6.21,0,6.21s4-6.21,0-6.21Z"/>
    <path class="cls-1" d="M962.71,162.65c-.05-.27-.09-.53-.14-.8-.27-1.49-2.75-1.49-3.02,0-.05.27-.09.53-.14.8-.19,1.08.47,2.17,1.65,2.17s1.84-1.09,1.65-2.17Z"/>
    <path class="cls-1" d="M1018.17,243.29c-6.26,0-6.27,9.73,0,9.73s6.27-9.73,0-9.73Z"/>
    <path class="cls-1" d="M1054.41,10.57c-.26.06-.53.11-.79.17-2.5.52-2.5,4.52,0,5.05.26.06.53.11.79.16,1.76.37,3.53-.8,3.53-2.69s-1.77-3.06-3.53-2.69Z"/>
    <path class="cls-1" d="M6.24,469.12c-.15-.05-.3-.09-.46-.13-1.91-.47-4.2.3-5.17,1.93-.81,1.37-.81,2.87,0,4.24.47.79,1.3,1.37,2.19,1.72.95.37,1.97.46,2.98.21.15-.04.3-.08.46-.13,1.79-.54,3.34-2.09,3.25-3.92-.09-1.85-1.33-3.34-3.25-3.92Z"/>
    <path class="cls-1" d="M725.84,45.2c-3.78,0-3.78,5.87,0,5.87s3.78-5.87,0-5.87Z"/>
    <path class="cls-1" d="M719.71,179.27c-1.85-.69-3.78,1.07-3.78,2.88s1.93,3.57,3.78,2.88c.25-.09.5-.19.76-.28,1.08-.4,2.03-1.35,1.98-2.59-.06-1.26-.82-2.16-1.98-2.59-.25-.09-.5-.19-.76-.28Z"/>
    <path class="cls-1" d="M1048.08,507.44c-1.85-.69-3.78,1.07-3.78,2.88s1.93,3.57,3.78,2.88c.25-.09.5-.19.76-.28,1.08-.4,2.03-1.35,1.98-2.59-.06-1.26-.81-2.16-1.98-2.59-.25-.09-.5-.19-.76-.28Z"/>
    <path class="cls-1" d="M454.15,95.73c-2.51,0-2.52,3.9,0,3.9s2.52-3.9,0-3.9Z"/>
    <path class="cls-1" d="M958.02,422.56c-3.93,0-3.94,6.11,0,6.11s3.94-6.11,0-6.11Z"/>
    <path class="cls-1" d="M880.43,200.46c-3.31,0-3.31,5.14,0,5.14s3.31-5.14,0-5.14Z"/>
    <path class="cls-1" d="M20.01,151.97c-3.31,0-3.31,5.14,0,5.14s3.31-5.14,0-5.14Z"/>
    <path class="cls-1" d="M347,188.97c-3.31,0-3.31,5.14,0,5.14s3.31-5.14,0-5.14Z"/>
    <path class="cls-1" d="M120.21,112c4,0,4-6.21,0-6.21s-4,6.21,0,6.21Z"/>
    <path class="cls-1" d="M427.36,175.12c3.02,0,3.03-4.7,0-4.7s-3.03,4.7,0,4.7Z"/>
    <path class="cls-1" d="M205.67,103.61c3.02,0,3.03-4.7,0-4.7s-3.03,4.7,0,4.7Z"/>
  </g>
</svg>