<?xml version="1.0" encoding="utf-8"?>
<!-- Generator: Adobe Illustrator 23.0.6, SVG Export Plug-In . SVG Version: 6.00 Build 0)  -->
<svg version="1.1" id="Ebene_1" xmlns="http://www.w3.org/2000/svg" xmlns:xlink="http://www.w3.org/1999/xlink" x="0px" y="0px"
	 width="23px" height="23px" viewBox="0 0 23 23" style="enable-background:new 0 0 23 23;" xml:space="preserve">
<style type="text/css">
	.st0{fill:#DADADA;}
</style>
<g>
	<path class="st0" d="M22.9,0.2c-0.2-0.2-0.4-0.2-0.7,0l-8.8,8.8V3.8c0-0.3-0.2-0.4-0.5-0.4s-0.5,0.1-0.5,0.4v6.2
		c0,0.1,0,0.2,0.1,0.4l0.1,0c0,0,0.1,0,0.1,0h0.1l0.1,0h6.2c0.3,0,0.4-0.2,0.4-0.5c0-0.3-0.1-0.5-0.4-0.5h-5.1l8.8-8.8
		C23.1,0.6,23.1,0.4,22.9,0.2z"/>
	<path class="st0" d="M16.5,15.5c-0.5-0.5-1-0.7-1.7-0.7c-0.7,0-1.2,0.2-1.7,0.7l-0.4,0.4c-2.1-1.8-4-3.7-5.6-5.6l0.4-0.4
		c0.5-0.5,0.7-1,0.7-1.7c0-0.6-0.2-1.2-0.7-1.7l-2-2.1c-0.4-0.4-1-0.7-1.7-0.7c-0.7,0-1.2,0.2-1.7,0.7L1,5.6c-0.6,0.6-0.9,1.2-1,2
		C0,8.5,0.1,9.2,0.6,9.9c3.3,5.1,7.5,9.3,12.6,12.6c0.5,0.4,1.2,0.5,1.8,0.5c0.9,0,1.7-0.3,2.4-1l1.1-1.1c0.4-0.4,0.7-1,0.7-1.7
		c0-0.7-0.2-1.3-0.7-1.7L16.5,15.5z"/>
</g>
</svg>
