<svg version="1.1" id="Ebene_1" xmlns="http://www.w3.org/2000/svg" xmlns:xlink="http://www.w3.org/1999/xlink" x="0px" y="0px"
	 viewBox="0 0 800 122.3" style="enable-background:new 0 0 800 122.3;" xml:space="preserve">
<style type="text/css">
	.st0{fill:#FFFFFF;}
	.st1{fill:#EF7D00;}
</style>
<g id="logo_x2C__Sixt_Neuwagen_neg">
	<path class="st0" d="M167.3,18.1h76.1v23h-17v56.4l-58.9,0.1l-15.3-22.7l-15.8,22.5L81,97.6V81.7c-0.5,3.2-6.4,11.6-17.4,14.9
		c-6.5,2-15.6,3.4-24.3,3.3C21.4,99.7,5.7,96,1.8,84.8C0.5,81.1,0,71.7,0,71.7h28.8l0.7,5.4c1.5,8.4,9.2,7.5,12.1,7.7
		c2.7,0.2,10.5-1.7,10.9-7.1c0.5-6.4-5-7.2-7.5-8.1c-3.6-1.3-7.9-2.4-18.1-5.5C7,58.2,0.4,53.5,1.1,38.2c0.3-6.3,2-10.3,4.6-13.2
		c2.7-2.9,11.1-10.8,33.1-10.8c19.4,0,26.2,2.6,32.5,7.5C78,26.9,78.1,41,78.1,41l-28.2-0.2c0,0,0.5-11.4-10-11.8
		c-2.1-0.1-4.4,0.5-6.1,1.3c-1.4,0.7-3.2,2.3-3.2,4.4c0,2.7,0.5,4.2,1.7,5.6c1.2,1.4,2.7,1.8,8.3,3.5c16.5,4.9,26.2,7.7,31.5,10.9
		c3.5,2.1,7.1,4.6,8.7,9.9L81,45.7c0,0,23,0.4,28.5-1.2v46.8L133.2,56l-10.9-14.3c0,0,17.4-5.4,24.5-12.2l7.1,8.9L167.3,18.1
		 M197.9,91.7V41.2h-14l-11.2,15.5L197.9,91.7z"/>
	<path class="st1" d="M81.7,17.1C111,19.3,127.5,11,133.2,0h29.9c-9,26.2-37.1,42.6-81.4,40.3L81.7,17.1 M265.7,40.3l-12,56.9h21.2
		l5.8-27.3c1.1-5.2,2.6-8.8,4.7-10.8c2-2,4.3-3,6.9-3c2.3,0,4,0.7,4.9,2.2c1,1.5,1.1,4,0.3,7.6l-6.6,31.3h21.3l7.6-36.1
		c1.6-7.5,1.1-13-1.5-16.6s-6.8-5.4-12.6-5.4c-4.3,0-8.2,0.8-11.6,2.4c-3.4,1.6-6.9,4.3-10.7,8.1l2-9.3H265.7 M384.4,74.1l0.5-2.5
		c1.6-7.5,1.7-13.6,0.3-18.3c-1.4-4.7-4.1-8.2-8.2-10.7s-10.1-3.7-18-3.7c-9.8,0-18,2.7-24.7,8.2s-11,12.7-12.9,21.6
		c-1.3,6.2-1.1,11.7,0.7,16.3c1.8,4.6,4.6,8,8.3,10.1c3.8,2.1,9.3,3.2,16.6,3.2c8.4,0,15.2-1.2,20.2-3.7s9.8-6.6,14.2-12.3l-20.5-2
		c-1.7,1.7-3.2,2.9-4.5,3.6c-2.1,1.1-4.2,1.6-6.3,1.6c-3.3,0-5.7-1.2-7.2-3.7c-1.1-1.7-1.5-4.3-1.1-7.8h42.6 M344.2,63.7
		c1.1-3.4,2.4-5.9,4.1-7.7c2.6-2.7,5.6-4.1,8.9-4.1c2.9,0,5.1,0.9,6.5,2.7s1.9,4.8,1.4,9L344.2,63.7L344.2,63.7z M441.1,97.1
		l12-56.9h-21.2l-5.8,27.4c-1.1,5.2-2.7,8.8-4.7,10.8s-4.3,3-6.9,3c-2.3,0-4-0.7-4.9-2.2c-1-1.5-1.1-4-0.3-7.6l6.6-31.3h-21.3
		L387,76.5c-1.6,7.5-1.1,13,1.5,16.6s6.8,5.4,12.6,5.4c4.4,0,8.2-0.8,11.6-2.4c3.3-1.6,6.9-4.3,10.6-8.1l-1.9,9.2h19.7 M453.1,40.3
		l8.5,56.9h19l18-34.2l4,34.2h18.9l32.4-56.9h-20.4L517,76.2l-4.1-35.9h-19.2l-18.8,35.8l-1.3-35.8L453.1,40.3 M566.9,58.7
		c1.4-2.5,2.8-4.1,4.3-5c2-1.1,4.7-1.7,8.2-1.7c2.7,0,4.5,0.5,5.3,1.6c0.9,1.1,1,2.9,0.4,5.6c-2.9,1.1-5.5,1.9-8,2.6
		c-2.5,0.7-7.9,1.8-16.2,3.5c-6.9,1.4-11.9,3.4-15,6.2c-3.1,2.8-5,6.3-5.9,10.7c-1,4.6-0.1,8.5,2.7,11.6s7.4,4.7,14,4.7
		c5,0,9.5-0.8,13.6-2.4c3-1.2,6.2-3.1,9.5-5.9c-0.1,1.6-0.1,2.8,0,3.6c0.1,0.8,0.4,1.9,0.9,3.3h19.9c-0.6-2.4-0.9-4.3-0.9-5.8
		s0.3-3.6,0.8-6.3l5.3-25.1c0.6-2.7,0.6-5.5,0.2-8.4c-0.4-2.9-1.4-5.2-2.8-6.8c-2.1-2.3-5-3.8-8.7-4.6c-3.7-0.7-8.7-1.1-15.1-1.1
		c-4,0-7.7,0.3-11.2,0.9c-3.5,0.6-6.4,1.5-8.6,2.6c-3,1.5-5.5,3.3-7.4,5.4c-1.9,2.1-3.6,5-5.1,8.6L566.9,58.7 M582.2,73.6
		c-0.6,2.7-1.5,4.9-2.7,6.6s-3,3.1-5.2,4.3c-2.3,1.2-4.6,1.8-7,1.8c-2.3,0-3.9-0.5-4.8-1.6c-0.9-1.1-1.2-2.5-0.9-4.2
		c0.3-1.5,1.2-2.8,2.6-4c1.4-1.1,4.4-2.3,8.9-3.5c3.3-0.8,6.6-1.8,9.7-2.8L582.2,73.6z M654,40.3l-1.8,8.4c-1.7-3.5-3.8-5.9-6.3-7.4
		s-5.9-2.2-10.2-2.2c-6.7,0-12.7,2.3-17.8,7c-5.1,4.6-8.7,11.4-10.5,20.2c-1.6,7.7-1.3,14,0.9,18.7c3.1,6.6,8.4,10,15.8,10
		c3.8,0,7.5-0.9,11.1-2.7c2.3-1.1,4.8-3,7.4-5.5l-1.8,8.6c-0.9,4.2-2.3,7.1-4.1,8.8c-1.9,1.7-4.3,2.5-7.4,2.5
		c-2.4,0-4.2-0.6-5.5-1.7c-0.9-0.7-1.4-2.1-1.5-4.1l-20.1-2.4c-0.3,1.2-0.6,2.2-0.7,2.9c-1.2,5.7-0.1,10.3,3.3,13.8
		c3.4,3.4,10.7,5.1,21.8,5.1c4.9,0,9.3-0.4,13.2-1.3c4-0.9,7.4-2.3,10.2-4.3c2.9-2,5.4-4.6,7.5-7.8c2.2-3.2,3.6-6.6,4.4-10.2
		l0.5-2.5l11.3-53.7H654 M632.8,57.8c2-2,4.4-3,7.1-3c2.7,0,4.8,1.1,6.2,3.3s1.7,5.4,0.8,9.5s-2.4,7.2-4.6,9.3
		c-2.2,2.1-4.7,3.1-7.3,3.1c-2.8,0-4.8-1-6.1-3s-1.5-5-0.6-9.1C629.2,63.2,630.8,59.8,632.8,57.8 M734.3,74.1l0.5-2.5
		c1.6-7.5,1.7-13.6,0.3-18.3s-4.1-8.2-8.2-10.7c-4.1-2.5-10.1-3.7-18-3.7c-9.8,0-18,2.7-24.7,8.2s-11,12.7-12.9,21.6
		c-1.3,6.2-1.1,11.7,0.7,16.3c1.8,4.6,4.6,8,8.3,10.1c3.8,2.1,9.3,3.2,16.6,3.2c8.4,0,15.2-1.2,20.2-3.7s9.8-6.6,14.2-12.3l-20.5-2
		c-1.7,1.7-3.2,2.9-4.5,3.6c-2.1,1.1-4.2,1.6-6.3,1.6c-3.3,0-5.7-1.2-7.2-3.7c-1.1-1.7-1.5-4.3-1.1-7.8h42.6 M694.1,63.7
		c1.1-3.4,2.4-5.9,4.1-7.7c2.6-2.7,5.6-4.1,8.9-4.1c2.9,0,5.1,0.9,6.5,2.7s1.9,4.8,1.4,9L694.1,63.7L694.1,63.7z M745,40.3h19.7
		l-2,9.3c3.7-3.8,7.3-6.5,10.7-8.1s7.2-2.4,11.6-2.4c5.9,0,10.1,1.8,12.6,5.4c2.6,3.6,3,9.1,1.5,16.6l-7.6,36.1h-21.3l6.6-31.3
		c0.8-3.6,0.6-6.1-0.3-7.6c-1-1.5-2.6-2.2-4.9-2.2c-2.6,0-4.9,1-6.9,3s-3.6,5.6-4.7,10.8l-5.8,27.3H733L745,40.3"/>
</g>
</svg>
