<svg id="Слой_1" data-name="Слой 1" xmlns="http://www.w3.org/2000/svg" xmlns:xlink="http://www.w3.org/1999/xlink" viewBox="0 0 643.9 258.59"><defs><style>.cls-1,.cls-3{fill:none;}.cls-2{fill:#312783;}.cls-3{stroke:#575756;stroke-miterlimit:10;stroke-width:0.68px;}.cls-4{clip-path:url(#clip-path);}.cls-5{fill:url(#Безымянный_градиент);}.cls-6{clip-path:url(#clip-path-2);}.cls-7{fill:url(#Безымянный_градиент_2);}.cls-8{clip-path:url(#clip-path-3);}.cls-9{fill:url(#Безымянный_градиент_3);}.cls-10{fill:#e30613;}.cls-11{fill:#f39200;}</style><clipPath id="clip-path" transform="translate(0 36.37)"><path class="cls-1" d="M422.64,13.84c-10,9.29-15.13,21.08-15.13,35.05a57.58,57.58,0,0,0,10.18,32.6c5.75,8.47,16,19.36,31.34,33.28l23.82,22.35a10.45,10.45,0,0,0,13.51-15.9C474,110,475.89,111.69,463.52,100.51,450.66,89,441.66,79.25,436.74,71.59c-4.64-7.23-7-14.64-7-22,0-8.68,2.95-15.57,9-21A31.68,31.68,0,0,1,461,20.2a41.59,41.59,0,0,1,23.3,6.7A67.24,67.24,0,0,1,497.2,39.17l-.08,0A21.33,21.33,0,0,1,499.69,61a17.16,17.16,0,0,0,12.13-5.85c3.91-4.26,8.76-20.34-1.84-32.78l0,0A54.72,54.72,0,0,0,496.27,9.94C486.2,3.34,473.94,0,459.81,0c-14.73,0-27.24,4.65-37.18,13.84"/></clipPath><linearGradient id="Безымянный_градиент" x1="-299.18" y1="556.15" x2="-298.18" y2="556.15" gradientTransform="matrix(108.91, 0, 0, -108.91, 32990.38, 60675.5)" gradientUnits="userSpaceOnUse"><stop offset="0" stop-color="#8c1912"/><stop offset="0.45" stop-color="#d71016"/><stop offset="1" stop-color="#e94a41"/></linearGradient><clipPath id="clip-path-2" transform="translate(0 36.37)"><path class="cls-1" d="M422.64,13.84c-10,9.29-15.13,21.08-15.13,35.05a56.49,56.49,0,0,0,2,14.82,46.8,46.8,0,0,1,8.06-22.92C431.84,20.27,458.1,20.16,461,20.2a41.59,41.59,0,0,1,23.3,6.7A67.24,67.24,0,0,1,497.2,39.17l-.08,0A21.33,21.33,0,0,1,499.69,61a17.16,17.16,0,0,0,12.13-5.85c3.91-4.26,8.76-20.34-1.84-32.78l0,0A54.72,54.72,0,0,0,496.27,9.94C486.2,3.34,473.94,0,459.81,0c-14.73,0-27.24,4.65-37.18,13.84"/></clipPath><linearGradient id="Безымянный_градиент_2" x1="-299.18" y1="556.16" x2="-298.18" y2="556.16" gradientTransform="matrix(108.91, 0, 0, -108.91, 32990.38, 60637.76)" gradientUnits="userSpaceOnUse"><stop offset="0" stop-color="#e94a41"/><stop offset="0.55" stop-color="#d71016"/><stop offset="1" stop-color="#8c1912"/></linearGradient><clipPath id="clip-path-3" transform="translate(0 36.37)"><path class="cls-1" d="M539.82,0c-14.13,0-26.39,3.34-36.46,9.94a65.61,65.61,0,0,0-6.86,5.18c-.6.52-1.14,1-1.63,1.49l-.07.07,0,0a72.93,72.93,0,0,0-5.09,5.65l0,0c-10.6,12.44-5.75,28.52-1.84,32.78A17.16,17.16,0,0,0,499.94,61a21.34,21.34,0,0,1,2.58-21.88h0A67.22,67.22,0,0,1,515.44,26.9a41.59,41.59,0,0,1,23.3-6.7,31.67,31.67,0,0,1,22.19,8.33c6.06,5.48,9,12.36,9,21,0,7.38-2.35,14.79-7,22C558,79.25,549,89,536.17,100.51l-43,42.81-.1.09,0,0h0A10.26,10.26,0,0,0,507.46,158h0l.08-.08.16-.16,43-43C566,100.84,576.26,90,582,81.48a57.59,57.59,0,0,0,10.18-32.6c0-14-5.09-25.76-15.14-35.05S554.61,0,539.88,0h-.06"/></clipPath><linearGradient id="Безымянный_градиент_3" x1="-299.18" y1="556.16" x2="-298.18" y2="556.16" gradientTransform="matrix(0, 142.94, 142.94, 0, -78959.59, 42765.33)" gradientUnits="userSpaceOnUse"><stop offset="0" stop-color="#e30613"/><stop offset="0.13" stop-color="#e30613"/><stop offset="0.18" stop-color="#ce0a20"/><stop offset="0.57" stop-color="#312783"/><stop offset="1" stop-color="#312783"/></linearGradient></defs><title>Anex_Kalpli_Logo_EN</title><path class="cls-2" d="M25.1,202.66a.4.4,0,0,1,.38.3L30,219.49l5.37-16.55a.46.46,0,0,1,.38-.28h1.07a.35.35,0,0,1,.34.51L31.1,221.62a.38.38,0,0,1-.36.27H29.28a.4.4,0,0,1-.39-.29l-4.5-16.38L19.88,221.6a.38.38,0,0,1-.37.29H18.07a.4.4,0,0,1-.39-.27l-6.07-18.44a.35.35,0,0,1,.34-.51H13a.39.39,0,0,1,.39.28l5.38,16.56L23.29,203a.38.38,0,0,1,.37-.29Z" transform="translate(0 36.37)"/><path class="cls-2" d="M43.74,203.06a.38.38,0,0,1,.4-.4H55a.39.39,0,0,1,.4.4v.74a.39.39,0,0,1-.4.4H45.5v7h8.8a.4.4,0,0,1,.4.4v.74a.4.4,0,0,1-.4.4H45.5v7.64h9.74a.39.39,0,0,1,.4.4v.74a.39.39,0,0,1-.4.4H44.14a.38.38,0,0,1-.4-.4Z" transform="translate(0 36.37)"/><path class="cls-2" d="M74.41,203.06a.39.39,0,0,1,.4-.4h1a.39.39,0,0,1,.4.4v7.81h11v-7.81a.39.39,0,0,1,.4-.4h1a.39.39,0,0,1,.4.4v18.43a.39.39,0,0,1-.4.4h-1a.39.39,0,0,1-.4-.4v-9.08h-11v9.08a.39.39,0,0,1-.4.4h-1a.39.39,0,0,1-.4-.4Z" transform="translate(0 36.37)"/><path class="cls-2" d="M104.26,202.66a.41.41,0,0,1,.38.29l7.29,18.4c.11.27,0,.54-.32.54h-1.13a.38.38,0,0,1-.37-.26l-1.92-5H98.89l-1.92,5a.38.38,0,0,1-.37.26H95.5a.36.36,0,0,1-.34-.54l7.29-18.4a.41.41,0,0,1,.38-.29Zm-4.76,12.44h8.1l-4.05-10.49Z" transform="translate(0 36.37)"/><path class="cls-2" d="M123.17,219.94l6.58-17a.38.38,0,0,1,.37-.26h1.13c.3,0,.43.26.32.54l-7.29,18.4a.41.41,0,0,1-.39.29h-1.43a.41.41,0,0,1-.39-.29l-7.29-18.4a.36.36,0,0,1,.34-.54h1.1a.38.38,0,0,1,.37.26Z" transform="translate(0 36.37)"/><path class="cls-2" d="M138.19,203.06a.38.38,0,0,1,.4-.4h10.85a.39.39,0,0,1,.4.4v.74a.39.39,0,0,1-.4.4h-9.49v7h8.8a.4.4,0,0,1,.4.4v.74a.4.4,0,0,1-.4.4h-8.8v7.64h9.74a.39.39,0,0,1,.4.4v.74a.39.39,0,0,1-.4.4h-11.1a.38.38,0,0,1-.4-.4Z" transform="translate(0 36.37)"/><path class="cls-2" d="M180.86,202.66a.4.4,0,0,1,.38.3l4.5,16.52,5.37-16.55a.46.46,0,0,1,.38-.28h1.07a.36.36,0,0,1,.34.51l-6.06,18.44a.38.38,0,0,1-.36.27H185a.4.4,0,0,1-.39-.29l-4.5-16.38-4.51,16.38a.38.38,0,0,1-.37.29h-1.44a.4.4,0,0,1-.39-.27l-6.07-18.44a.35.35,0,0,1,.34-.51h1.06a.39.39,0,0,1,.39.28l5.38,16.56L179,203a.38.38,0,0,1,.37-.29Z" transform="translate(0 36.37)"/><path class="cls-2" d="M206.53,222.22c-5.3,0-8.4-4.31-8.4-9.94s3.1-9.94,8.4-9.94,8.4,4.31,8.4,9.94-3.1,9.94-8.4,9.94m0-18.29c-4.09,0-6.59,3.38-6.59,8.35s2.5,8.35,6.59,8.35,6.59-3.38,6.59-8.35-2.5-8.35-6.59-8.35" transform="translate(0 36.37)"/><path class="cls-2" d="M222,203.06a.39.39,0,0,1,.4-.4H224a.39.39,0,0,1,.34.19L235,219.58V203.06a.38.38,0,0,1,.4-.4h1a.38.38,0,0,1,.38.4v18.43a.38.38,0,0,1-.38.4h-1.54a.39.39,0,0,1-.34-.19L223.83,205v16.52a.39.39,0,0,1-.4.4h-1a.39.39,0,0,1-.4-.4Z" transform="translate(0 36.37)"/><path class="cls-2" d="M265.29,215.3a.4.4,0,0,1-.33-.18l-6.57-9.9v16.27a.39.39,0,0,1-.4.4h-1a.39.39,0,0,1-.4-.4V203.06a.39.39,0,0,1,.4-.4h1.39a.43.43,0,0,1,.33.17l7.11,10.77L273,202.83a.38.38,0,0,1,.33-.17h1.39a.39.39,0,0,1,.4.4v18.43a.39.39,0,0,1-.4.4h-1a.39.39,0,0,1-.4-.4V205.22l-6.55,9.9a.4.4,0,0,1-.33.18Z" transform="translate(0 36.37)"/><path class="cls-2" d="M284.66,202.66a.38.38,0,0,1,.4.4v18.43a.38.38,0,0,1-.4.4h-1a.38.38,0,0,1-.38-.4V203.06a.38.38,0,0,1,.38-.4Z" transform="translate(0 36.37)"/><path class="cls-2" d="M293.26,203.06a.39.39,0,0,1,.4-.4h1a.39.39,0,0,1,.4.4v17.29h10.26a.39.39,0,0,1,.4.4v.74a.39.39,0,0,1-.4.4H293.66a.39.39,0,0,1-.4-.4Z" transform="translate(0 36.37)"/><path class="cls-2" d="M312.1,203.06a.39.39,0,0,1,.4-.4h1a.39.39,0,0,1,.4.4v17.29h10.26a.39.39,0,0,1,.4.4v.74a.39.39,0,0,1-.4.4H312.5a.39.39,0,0,1-.4-.4Z" transform="translate(0 36.37)"/><path class="cls-2" d="M332.43,202.66a.38.38,0,0,1,.4.4v18.43a.38.38,0,0,1-.4.4h-1a.38.38,0,0,1-.38-.4V203.06a.38.38,0,0,1,.38-.4Z" transform="translate(0 36.37)"/><path class="cls-2" d="M348.48,222.22c-5.3,0-8.4-4.31-8.4-9.94s3.1-9.94,8.4-9.94,8.4,4.31,8.4,9.94-3.1,9.94-8.4,9.94m0-18.29c-4.09,0-6.59,3.38-6.59,8.35s2.5,8.35,6.59,8.35,6.59-3.38,6.59-8.35-2.5-8.35-6.59-8.35" transform="translate(0 36.37)"/><path class="cls-2" d="M364,203.06a.39.39,0,0,1,.4-.4h1.55a.39.39,0,0,1,.34.19L377,219.58V203.06a.38.38,0,0,1,.4-.4h1a.38.38,0,0,1,.38.4v18.43a.38.38,0,0,1-.38.4h-1.54a.39.39,0,0,1-.34-.19L365.78,205v16.52a.39.39,0,0,1-.4.4h-1a.39.39,0,0,1-.4-.4Z" transform="translate(0 36.37)"/><path class="cls-2" d="M396.71,204.34c0,.29-.27.39-.54.27a9.55,9.55,0,0,0-3.76-.69c-3,0-4.64,1.28-4.64,3.09s1.18,3,4.23,4.05c4.17,1.39,6,3,6,5.93,0,3.2-2.43,5.22-6.7,5.22a10.78,10.78,0,0,1-4.86-1.13.43.43,0,0,1-.22-.44l.07-1a.33.33,0,0,1,.54-.27,9.37,9.37,0,0,0,4.57,1.21c3.16,0,4.79-1.39,4.79-3.57s-1.46-3.31-4.78-4.41c-3.56-1.18-5.41-2.65-5.41-5.59s2.57-4.72,6.48-4.72a11.58,11.58,0,0,1,4,.62.42.42,0,0,1,.3.44Z" transform="translate(0 36.37)"/><path class="cls-2" d="M579,204.34c0,.29-.27.39-.54.27a9.55,9.55,0,0,0-3.76-.69c-3,0-4.64,1.28-4.64,3.09s1.18,3,4.23,4.05c4.17,1.39,6,3,6,5.93,0,3.2-2.43,5.22-6.7,5.22a10.78,10.78,0,0,1-4.86-1.13.43.43,0,0,1-.22-.44l.07-1a.33.33,0,0,1,.54-.27,9.37,9.37,0,0,0,4.57,1.21c3.16,0,4.79-1.39,4.79-3.57s-1.46-3.31-4.78-4.41c-3.56-1.18-5.41-2.65-5.41-5.59s2.57-4.72,6.48-4.72a11.58,11.58,0,0,1,4,.62.42.42,0,0,1,.3.44Z" transform="translate(0 36.37)"/><path class="cls-2" d="M424.32,222.22c-5.3,0-8.4-4.31-8.4-9.94s3.1-9.94,8.4-9.94,8.4,4.31,8.4,9.94-3.1,9.94-8.4,9.94m0-18.29c-4.09,0-6.59,3.38-6.59,8.35s2.5,8.35,6.59,8.35,6.59-3.38,6.59-8.35-2.5-8.35-6.59-8.35" transform="translate(0 36.37)"/><path class="cls-2" d="M439.83,203.06a.38.38,0,0,1,.4-.4h10.86a.38.38,0,0,1,.39.4v.74a.38.38,0,0,1-.39.4h-9.5v6.92h8.8a.39.39,0,0,1,.4.38v.76a.4.4,0,0,1-.4.4h-8.8v8.83a.38.38,0,0,1-.38.4h-1a.38.38,0,0,1-.4-.4Z" transform="translate(0 36.37)"/><path class="cls-2" d="M469.75,203.06a.39.39,0,0,1,.4-.4h1a.39.39,0,0,1,.4.4v7.81h11v-7.81a.39.39,0,0,1,.4-.4h1a.39.39,0,0,1,.4.4v18.43a.39.39,0,0,1-.4.4h-1a.39.39,0,0,1-.4-.4v-9.08h-11v9.08a.39.39,0,0,1-.4.4h-1a.39.39,0,0,1-.4-.4Z" transform="translate(0 36.37)"/><path class="cls-2" d="M492.35,203.06a.38.38,0,0,1,.4-.4H503.6a.39.39,0,0,1,.4.4v.74a.39.39,0,0,1-.4.4h-9.49v7h8.8a.4.4,0,0,1,.4.4v.74a.4.4,0,0,1-.4.4h-8.8v7.64h9.74a.39.39,0,0,1,.4.4v.74a.39.39,0,0,1-.4.4h-11.1a.38.38,0,0,1-.4-.4Z" transform="translate(0 36.37)"/><path class="cls-2" d="M518.46,202.66a.41.41,0,0,1,.38.29l7.29,18.4c.11.27,0,.54-.32.54H524.7a.38.38,0,0,1-.37-.26l-1.92-5H513.1l-1.92,5a.38.38,0,0,1-.37.26h-1.1a.36.36,0,0,1-.34-.54l7.29-18.4a.41.41,0,0,1,.39-.29Zm-4.76,12.44h8.1l-4.05-10.49Z" transform="translate(0 36.37)"/><path class="cls-2" d="M540.73,213.27l5.12,8c.18.29,0,.6-.29.6h-1.07a.39.39,0,0,1-.34-.19L539,213.57c-.44,0-1,.05-1.4.05h-3.52v7.87a.39.39,0,0,1-.4.4h-1a.39.39,0,0,1-.4-.4V203.06a.39.39,0,0,1,.4-.4h5.4c4.19,0,7,2,7,5.49,0,2.58-1.53,4.39-4.42,5.11M538,204.2h-3.9v7.88H538c3.43,0,5.33-1.46,5.33-3.93s-1.89-4-5.33-4" transform="translate(0 36.37)"/><path class="cls-2" d="M556.6,204.2h-5.74a.38.38,0,0,1-.38-.4v-.74a.38.38,0,0,1,.38-.4h13.22a.39.39,0,0,1,.4.4v.74a.39.39,0,0,1-.4.4h-5.73v17.29a.38.38,0,0,1-.4.4h-1a.38.38,0,0,1-.38-.4Z" transform="translate(0 36.37)"/><line class="cls-3" x1="363.31" y1="37.65" x2="363.31" y2="206.78"/><g class="cls-4"><rect class="cls-5" x="407.5" y="36.37" width="113.09" height="140.36"/></g><g class="cls-6"><rect class="cls-7" x="407.5" y="36.37" width="113.09" height="63.71"/></g><g class="cls-8"><rect class="cls-9" x="454.94" y="-14.5" width="161.35" height="189.88" transform="translate(4.79 224.41) rotate(-20)"/></g><path class="cls-10" d="M198.43,85.66a41.31,41.31,0,0,0,13.19,2.07,42.43,42.43,0,0,0,13.25-2.07,39.59,39.59,0,0,0,8.93-4.15,42.21,42.21,0,0,0,15.43-16.33l1.59-3L236,53.74,234.24,57a25.36,25.36,0,0,1-9.34,10,26,26,0,0,1-24.93.93l36.8-32.44,12.46-11-1.58-2.55a41.79,41.79,0,0,0-15.15-14,40.74,40.74,0,0,0-14.33-5,38.06,38.06,0,0,0-6.54-.53c-1.13,0-2.23,0-3.32.12a41.42,41.42,0,0,0-26.69,12.32A41.05,41.05,0,0,0,168.94,45a41,41,0,0,0,4.39,18.8,45.7,45.7,0,0,0,8.25,11.24,41.92,41.92,0,0,0,16.86,10.56M186.32,41.05v0a24.19,24.19,0,0,1,7.07-14.2c.69-.69,1.42-1.35,2.15-2h0a24.48,24.48,0,0,1,16-5.45,24.89,24.89,0,0,1,13.45,3.73L188.31,55.76A25.48,25.48,0,0,1,186,45a26.84,26.84,0,0,1,.27-4" transform="translate(0 36.37)"/><path class="cls-10" d="M42.73,2.39A41.25,41.25,0,0,0,14.63,13c-.65.57-1.3,1.18-2,1.79A41.1,41.1,0,0,0,0,45.06C0,56.81,4.39,66.83,12.64,75.12A41.74,41.74,0,0,0,32.22,86.5a45.51,45.51,0,0,0,10.51,1.26A42.79,42.79,0,0,0,53.28,86.5c.94-.21,1.87-.49,2.77-.78.35-.13.72-.25,1.09-.4h0A41.81,41.81,0,0,0,71,77L84.2,86.5l1.2.89v-85L71,13.18A41.07,41.07,0,0,0,42.73,2.39M60.88,63.23a24.6,24.6,0,0,1-13.6,7.09,26.11,26.11,0,0,1-4.55.38A24.67,24.67,0,0,1,24.49,63.3a24.57,24.57,0,0,1-7.4-18.24,24.51,24.51,0,0,1,6.18-16.89c.37-.46.77-.89,1.21-1.35a24.52,24.52,0,0,1,18.23-7.39,24.62,24.62,0,0,1,18.16,7.48,24.59,24.59,0,0,1,7.47,18.15,24.61,24.61,0,0,1-7.47,18.16" transform="translate(0 36.37)"/><path class="cls-10" d="M144,87.61h17.08V37.47A32.64,32.64,0,0,0,128,4.39a31.43,31.43,0,0,0-21.2,7.72L94.92,2.48V87.61H112V37.47a15.93,15.93,0,0,1,16-16A15.72,15.72,0,0,1,139.41,26,15.26,15.26,0,0,1,144,37.47Z" transform="translate(0 36.37)"/><polygon class="cls-10" points="322.23 124.07 294.58 75.38 315.34 38.75 295.13 38.75 284.39 57.68 273.64 38.75 253.4 38.75 274.36 75.39 246.5 124.07 266.74 124.07 284.39 93.08 302 124.07 322.23 124.07"/><path class="cls-2" d="M161.12,116.78h0V100.07L149,105.32V116.8h-9v11.32h9v16.2h0v6.36a21.75,21.75,0,0,0,6.5,16c.27.27.56.51.83.76l2.13,1.92,7.66-9.59-1.89-1.69-.07-.07a9.6,9.6,0,0,1-3.1-7.32V128.12H170V116.8h-8.85Z" transform="translate(0 36.37)"/><path class="cls-10" d="M204.18,109.64c-.19-.24-.3,0-.39.29.7.37-.21-.12.39-.29" transform="translate(0 36.37)"/><path class="cls-10" d="M207.11,110.18s.1,0,.14-.09-.12,0-.14.09" transform="translate(0 36.37)"/><path class="cls-10" d="M209.31,166.06h0a1.31,1.31,0,0,0-.22.18c.1,0,.14-.07.24-.17" transform="translate(0 36.37)"/><path class="cls-10" d="M232.38,133.64l.59-.22a23.91,23.91,0,0,1-.94-3.37,6,6,0,0,0-1.64-3,4.26,4.26,0,0,0-.33-2.2c-.8-.51-.89-.8-1.87-.89-.18-.23.15-.61.28-.82-.34-.94-.17-2.25-1.44-2.35l.41-.34c-.9-.36-2.07-.83-2.2-1.88-.51.12-1.22-.41-1.4.28-.31-.16.48-.74-.15-.62l.77-.27a10.88,10.88,0,0,0-4.43-3.24c.08-1.05-1.51-1-2.17-1.93-.78.09-1.43-1-2.33-.24l.19-.49c-.73-.42-1.76-.87-2.72-1.47-.58-.34-.81.39-1.37.5l.12-.51c-.6.15-.92.83-1.23,1.29h0s-.09,0-.15,0c-.22-.21-.37,0-.64-.4a3.63,3.63,0,0,0,1.33-1.26c-.61-.4-1.54.76-1.78-.12-.54-.29-1-.15-1.16.53.15-.21-.3-.46.06-.72a1.11,1.11,0,0,0-.94.24c.07,0,.16.1.23.09-.24.43-.55.47-.62,1a1.76,1.76,0,0,0-.49,0c0-.45.5-.73.25-1-.35.33-.67.68-1,1a12.27,12.27,0,0,0-1.82-.09A25.33,25.33,0,0,0,196,112.2h0a5.36,5.36,0,0,1,2.64-.78,4.28,4.28,0,0,0,3.12-1.29c1.5-.6,2-2.73,2-2.73a45,45,0,0,1-5.89.67,58.57,58.57,0,0,0-6.2.54,25.9,25.9,0,0,1-4,2.31c-1.14.81-2.28,1.55-3.4,2.36l-.85.6-.86.64-.35.26-.09.07,0,0,0,0h0l0,0-.2.16-.81.68a17,17,0,0,0-5.1,6.88c.4-.15.6.34.58.65l-.25,0,.29.64c-.13.41-.67-.06-.59-.42a41.85,41.85,0,0,0-2.08,6.24c.74.31-.19,1.13.61,1.37-.17.06-.19,0-.33-.13.14,1.57.18,1.63-1,2.91-.07.36-.13.73-.18,1.08s-.1.81-.13,1.15l0,.46,0,.58v1.1a23.66,23.66,0,0,0,.48,4.41,34,34,0,0,0,3,8.44,26.72,26.72,0,0,0,5.66,6.83,38.15,38.15,0,0,0,7.19,5,2.57,2.57,0,0,1,1.81-.07,2.91,2.91,0,0,0,1.83-.06l-.23.33c1-.17,1,.53,1.9,1.37.15-.42.44,0,.54-.72.54-.49.33,1.19,1,1-.07.26.1-.43.15-.17.83-.24.71-.16.63.13s-.2.79.66,1.34c2.7.31,5.41-.28,7.84.08-.16,0-.24-.54,0-.57.29,1.19.8-.36,1.25.08,0,.24-.2.33-.31.45,1.19.41,2-.43,3.18-.09a2.3,2.3,0,0,1,1.43-.33c.59,0,1.15,0,1.42-.42,0,.51.56.21.85.37.14-.79.66-.83,1.23-.84s1.21,0,1.44-.64l.07.24a34.52,34.52,0,0,0,3.92-2.1,12.55,12.55,0,0,0,3.33-3,10,10,0,0,1,2.15-1.47,4.14,4.14,0,0,0,1.87-2c.07-.38-.34-.37-.27-.67.29-.32.34.29.57.25.11-1,1.37-1.56,2-2.54-.12-.23,0-.53-.35-.62a2.45,2.45,0,0,0,1.32-1.68,3.7,3.7,0,0,1,1-1.88c-1.3-.1-.31-1-.42-1.48.14-.21.46-.12.66,0a5.64,5.64,0,0,1,1-2.43c0-.55-.61-.85-.29-1.41.94-.2.3-1.28.71-1.82a.9.9,0,0,1-.83-1.35l1,.3c-.42-2,.82-4.76-.71-6.92m-54,7.72,0-.06a1.23,1.23,0,0,0,0,.34.21.21,0,0,1-.07-.28m28.92-30.18s0,0,0,.06h0a.41.41,0,0,0-.24,0,.26.26,0,0,1,.29,0m-2.87,8a18.84,18.84,0,0,1,11.61,4.51l.11.1a18.87,18.87,0,0,1,6.55,14.29,18.38,18.38,0,0,1-.22,2.68l0,.14c-.1.63-.22,1.25-.38,1.87,0,.1-.05.21-.08.31s0,.14-.06.2l0,.11a18.76,18.76,0,0,1-1.23,3.11l-.14.3h0l-.09.19a19.24,19.24,0,0,1-1,1.71c-.32.46-.66.92-1,1.36l-.29.33-.29.32q-.59.66-1.24,1.26l-.37.34-.22.2-.19.17a18.93,18.93,0,0,1-25.47-28l.09-.09a18.84,18.84,0,0,1,5.23-3.65c.41-.19.82-.37,1.24-.54s.85-.33,1.29-.47c.29-.09.58-.15.87-.22l.3-.08a19.06,19.06,0,0,1,4.38-.53c.23,0,.45,0,.67,0M194.77,112c.3-.29.44.17.56.44h0c-.44.12-.9.29-1.31.44l-.06,0a4.87,4.87,0,0,0,.84-.91m-11.39,8.11c.18,0,.2.19.3.34,0-.69.58-1,1-1.26a1.09,1.09,0,0,0,.53-1.48L185,117c.36,0,.69.37,1,.4-.15-.49.67-.77.38-1.32.27.14.2.31.33.46.47-.23.28-1.37.83-1.51l.07.35c1.24-.32,2.56-.65,3.76-1.08,0,0,0,0-.08,0h0s0,0-.09,0h0s0,.06-.08.06a23.21,23.21,0,0,0-5.35,4.07,26,26,0,0,0-2.86,3.32,7.92,7.92,0,0,0,.57-1.73m-2.7,5.2c-.08,0-.08.09-.08.17a1.13,1.13,0,0,0-.3-.32,1,1,0,0,1,.38.15m-2.16,6.41h0a.63.63,0,0,0-.08.4c0-.14,0-.26,0-.39l.12,0m-.29,8.09a1,1,0,0,0,.09.53v0s0,0,0,.06a3.16,3.16,0,0,0-.24-.54.55.55,0,0,0,.14-.09m.08,2.4a.89.89,0,0,1,.28-.06s0,0,0,0a.51.51,0,0,0,0,.24,1.28,1.28,0,0,0-.32-.21m.55,1.25h0v0l0,0m.24,1.32h.19a.72.72,0,0,0,.17.36v0c-.26,0-.5.06-.36-.4m.36.71.07,0v0l0,0v0s-.07,0-.12-.06m2.16,4.6c-.18-.18-.18-.32-.1-.44v0a3.33,3.33,0,0,0,.22.37l-.13.06m1.9,3.64c0-.28-.81-.65-1-.83.3-.41.11.19.46,0l.2-.68c.06.06.11,0,.17,0l0,.05a13.63,13.63,0,0,0,1.11,1.31,6.91,6.91,0,0,1-1,.1m1.57.86c.08,0,.14,0,.2-.11h0a.08.08,0,0,0,0,.06Z" transform="translate(0 36.37)"/><path class="cls-10" d="M231.6,147.36l-.09-.08c0,.12,0,.22-.07.35Z" transform="translate(0 36.37)"/><path class="cls-10" d="M204.94,109.57a6.61,6.61,0,0,0,.17,1.22c.35-.54,0-.8-.17-1.22" transform="translate(0 36.37)"/><path class="cls-11" d="M199.4,119.73l-.3.08c-.29.08-.59.14-.87.22-.44.14-.87.3-1.29.47s-.83.34-1.24.54a18.85,18.85,0,0,0-5.23,3.65l-.09.08a18.93,18.93,0,0,0,25.47,28l.19-.17.22-.2.37-.33a17.39,17.39,0,0,0,1.24-1.26l.29-.32.29-.32q.54-.66,1-1.36c.37-.55.71-1.12,1-1.71l.08-.18h0l.14-.3a18.69,18.69,0,0,0,1.23-3.11,1.06,1.06,0,0,1,0-.11l.05-.2.08-.31c.16-.61.28-1.23.38-1.87,0,0,0-.09,0-.14a18.57,18.57,0,0,0-6.33-17l-.11-.1a18.86,18.86,0,0,0-11.61-4.51l-.68,0a19,19,0,0,0-4.38.53" transform="translate(0 36.37)"/><path class="cls-2" d="M312.83,108.2a22.13,22.13,0,0,0-14.93,5.44l-8.37-6.78v60h12V131.5a11.22,11.22,0,0,1,11.27-11.28,11.93,11.93,0,0,1,4,.68l5.49-10.8a23.74,23.74,0,0,0-9.54-1.9" transform="translate(0 36.37)"/><path class="cls-2" d="M249.08,108H237v35.31a23,23,0,0,0,23.32,23.3,22.13,22.13,0,0,0,14.93-5.43l8.37,6.78V108h-12v35.31a11.22,11.22,0,0,1-11.27,11.28,11.08,11.08,0,0,1-8-3.18,10.75,10.75,0,0,1-3.25-8.09Z" transform="translate(0 36.37)"/></svg>