<svg width="225" height="60" viewBox="0 0 225 60" fill="none" xmlns="http://www.w3.org/2000/svg">
<path opacity="0.5" d="M50.3051 13V3.47754H54.3656C54.794 3.47754 55.1882 3.52311 55.5482 3.61426C55.9083 3.70085 56.2159 3.83984 56.4711 4.03125C56.7263 4.22266 56.9245 4.47331 57.0658 4.7832C57.2071 5.08854 57.2777 5.45768 57.2777 5.89062C57.2777 6.43294 57.1479 6.88639 56.8881 7.25098C56.6329 7.611 56.282 7.87533 55.8354 8.04395C56.3412 8.18522 56.7423 8.44043 57.0385 8.80957C57.3393 9.17871 57.4896 9.65039 57.4896 10.2246C57.4896 10.7305 57.4167 11.1611 57.2709 11.5166C57.1251 11.8721 56.9177 12.1592 56.6488 12.3779C56.3845 12.5967 56.0632 12.7562 55.685 12.8564C55.3113 12.9521 54.8943 13 54.434 13H50.3051ZM52.1234 11.4619H54.7006C55.0014 11.4619 55.2247 11.3936 55.3705 11.2568C55.5209 11.1201 55.5961 10.9036 55.5961 10.6074V9.6709C55.5961 9.12858 55.3158 8.85742 54.7553 8.85742H52.1234V11.4619ZM52.1234 7.31934H54.6049C54.9057 7.31934 55.1107 7.2487 55.2201 7.10742C55.3295 6.96615 55.3842 6.75651 55.3842 6.47852V5.74707C55.3842 5.264 55.1244 5.02246 54.6049 5.02246H52.1234V7.31934ZM60.8652 13V3.47754H67.4141V5.02246H62.6836V7.36035H66.7715V8.89844H62.6836V11.4619H67.4141V13H60.8652ZM70.7828 13V3.47754H72.6012V13H70.7828ZM75.7785 10.1562H77.5969C77.6698 10.7168 77.884 11.1178 78.2395 11.3594C78.5949 11.5964 79.0529 11.7148 79.6135 11.7148C80.1467 11.7148 80.5956 11.6055 80.9602 11.3867C81.3247 11.1634 81.507 10.8421 81.507 10.4229C81.507 10.0856 81.4022 9.81673 81.1926 9.61621C80.9829 9.41569 80.6617 9.26074 80.2287 9.15137L78.3693 8.65918C77.5855 8.4541 77.0044 8.11914 76.6262 7.6543C76.2479 7.1849 76.0588 6.60156 76.0588 5.9043C76.0588 5.52148 76.1408 5.16829 76.3049 4.84473C76.4689 4.52116 76.6991 4.24316 76.9953 4.01074C77.2961 3.77832 77.6607 3.59831 78.0891 3.4707C78.5174 3.33854 78.9982 3.27246 79.5314 3.27246C80.0145 3.27246 80.4634 3.32943 80.8781 3.44336C81.2974 3.55273 81.6597 3.72363 81.965 3.95605C82.2749 4.18848 82.5279 4.48698 82.7238 4.85156C82.9198 5.21615 83.0406 5.64453 83.0861 6.13672H81.2678C81.2404 5.87695 81.1721 5.6582 81.0627 5.48047C80.9579 5.30273 80.8257 5.16146 80.6662 5.05664C80.5067 4.94727 80.3267 4.87207 80.1262 4.83105C79.9257 4.79004 79.7183 4.76953 79.5041 4.76953C78.9982 4.76953 78.5995 4.86979 78.3078 5.07031C78.0207 5.27083 77.8771 5.54427 77.8771 5.89062C77.8771 6.25521 77.9888 6.5332 78.2121 6.72461C78.44 6.91146 78.7818 7.06641 79.2375 7.18945L80.8576 7.61328C81.6688 7.82747 82.2818 8.15104 82.6965 8.58398C83.1158 9.01693 83.3254 9.62533 83.3254 10.4092C83.3254 10.8467 83.2365 11.2386 83.0588 11.585C82.8811 11.9313 82.6281 12.2253 82.3 12.4668C81.9764 12.7083 81.5868 12.8929 81.1311 13.0205C80.6799 13.1481 80.1831 13.2119 79.6408 13.2119C79.1076 13.2119 78.6154 13.1549 78.1643 13.041C77.7131 12.9316 77.3166 12.7562 76.9748 12.5146C76.633 12.2686 76.3573 11.9518 76.1477 11.5645C75.938 11.1771 75.815 10.7077 75.7785 10.1562ZM86.5437 13V3.47754H90.4197C91.436 3.47754 92.188 3.72363 92.6756 4.21582C93.1632 4.70345 93.407 5.47591 93.407 6.5332C93.407 7.54036 93.1359 8.30143 92.5936 8.81641C92.0512 9.32682 91.3312 9.58203 90.4334 9.58203H88.3621V13H86.5437ZM88.3621 8.04395H90.618C90.937 8.04395 91.1648 7.96419 91.3016 7.80469C91.4428 7.64518 91.5135 7.4082 91.5135 7.09375V5.91797C91.5135 5.59896 91.4474 5.37109 91.3152 5.23438C91.1876 5.0931 90.9552 5.02246 90.618 5.02246H88.3621V8.04395ZM96.5023 13V3.47754H98.3207V13H96.5023ZM102.072 13V3.47754H108.621V5.02246H103.891V7.36035H107.979V8.89844H103.891V11.4619H108.621V13H102.072ZM111.99 13V3.47754H113.808V11.4619H117.841V13H111.99ZM120.465 9.91699V8.49512H124.389V9.91699H120.465ZM127.06 13L130.307 3.47754H132.242L135.475 13H133.513L132.885 10.9697H129.637L129.022 13H127.06ZM130.109 9.43164H132.42L131.319 5.67871H131.258L130.109 9.43164ZM138.338 13V3.47754H142.214C143.231 3.47754 143.982 3.72363 144.47 4.21582C144.958 4.70345 145.202 5.47591 145.202 6.5332C145.202 7.54036 144.93 8.30143 144.388 8.81641C143.846 9.32682 143.126 9.58203 142.228 9.58203H140.157V13H138.338ZM140.157 8.04395H142.412C142.732 8.04395 142.959 7.96419 143.096 7.80469C143.237 7.64518 143.308 7.4082 143.308 7.09375V5.91797C143.308 5.59896 143.242 5.37109 143.11 5.23438C142.982 5.0931 142.75 5.02246 142.412 5.02246H140.157V8.04395ZM148.297 13V3.47754H152.173C153.189 3.47754 153.941 3.72363 154.429 4.21582C154.916 4.70345 155.16 5.47591 155.16 6.5332C155.16 7.54036 154.889 8.30143 154.347 8.81641C153.804 9.32682 153.084 9.58203 152.187 9.58203H150.115V13H148.297ZM150.115 8.04395H152.371C152.69 8.04395 152.918 7.96419 153.055 7.80469C153.196 7.64518 153.267 7.4082 153.267 7.09375V5.91797C153.267 5.59896 153.201 5.37109 153.068 5.23438C152.941 5.0931 152.708 5.02246 152.371 5.02246H150.115V8.04395ZM157.681 10.1562H159.5C159.573 10.7168 159.787 11.1178 160.142 11.3594C160.498 11.5964 160.956 11.7148 161.516 11.7148C162.049 11.7148 162.498 11.6055 162.863 11.3867C163.227 11.1634 163.41 10.8421 163.41 10.4229C163.41 10.0856 163.305 9.81673 163.095 9.61621C162.886 9.41569 162.564 9.26074 162.131 9.15137L160.272 8.65918C159.488 8.4541 158.907 8.11914 158.529 7.6543C158.151 7.1849 157.962 6.60156 157.962 5.9043C157.962 5.52148 158.044 5.16829 158.208 4.84473C158.372 4.52116 158.602 4.24316 158.898 4.01074C159.199 3.77832 159.563 3.59831 159.992 3.4707C160.42 3.33854 160.901 3.27246 161.434 3.27246C161.917 3.27246 162.366 3.32943 162.781 3.44336C163.2 3.55273 163.562 3.72363 163.868 3.95605C164.178 4.18848 164.431 4.48698 164.627 4.85156C164.823 5.21615 164.943 5.64453 164.989 6.13672H163.171C163.143 5.87695 163.075 5.6582 162.965 5.48047C162.861 5.30273 162.728 5.16146 162.569 5.05664C162.409 4.94727 162.229 4.87207 162.029 4.83105C161.828 4.79004 161.621 4.76953 161.407 4.76953C160.901 4.76953 160.502 4.86979 160.211 5.07031C159.923 5.27083 159.78 5.54427 159.78 5.89062C159.78 6.25521 159.892 6.5332 160.115 6.72461C160.343 6.91146 160.685 7.06641 161.14 7.18945L162.76 7.61328C163.572 7.82747 164.185 8.15104 164.599 8.58398C165.018 9.01693 165.228 9.62533 165.228 10.4092C165.228 10.8467 165.139 11.2386 164.962 11.585C164.784 11.9313 164.531 12.2253 164.203 12.4668C163.879 12.7083 163.49 12.8929 163.034 13.0205C162.583 13.1481 162.086 13.2119 161.544 13.2119C161.01 13.2119 160.518 13.1549 160.067 13.041C159.616 12.9316 159.219 12.7562 158.878 12.5146C158.536 12.2686 158.26 11.9518 158.05 11.5645C157.841 11.1771 157.718 10.7077 157.681 10.1562Z" fill="white"/>
<path d="M98.5021 50.5946L95.4833 46.6831L98.2382 44.4751C98.3249 44.4131 98.3952 44.3309 98.4429 44.2356C98.4905 44.1403 98.5141 44.0348 98.5116 43.9282C98.5148 43.8417 98.5 43.7556 98.4684 43.675C98.4367 43.5945 98.3888 43.5213 98.3276 43.4602C98.2664 43.399 98.1933 43.3511 98.1128 43.3194C98.0322 43.2877 97.946 43.273 97.8596 43.2762C97.7733 43.2717 97.687 43.2864 97.6071 43.3192C97.5272 43.352 97.4555 43.4021 97.3972 43.4659L93.4435 46.6831V39.6174C93.4408 39.5289 93.4207 39.4419 93.3843 39.3612C93.348 39.2806 93.2961 39.2079 93.2316 39.1473C93.1671 39.0867 93.0913 39.0395 93.0085 39.0083C92.9257 38.977 92.8376 38.9624 92.7491 38.9653C92.6627 38.9622 92.5765 38.9769 92.496 39.0085C92.4154 39.0402 92.3423 39.0881 92.2811 39.1493C92.2199 39.2105 92.172 39.2836 92.1403 39.3642C92.1087 39.4447 92.0939 39.5309 92.0971 39.6174V51.0155C92.0998 51.104 92.1199 51.191 92.1562 51.2717C92.1926 51.3523 92.2445 51.425 92.309 51.4856C92.3735 51.5461 92.4493 51.5934 92.5321 51.6246C92.6149 51.6559 92.703 51.6705 92.7914 51.6676C92.8779 51.6707 92.9641 51.656 93.0446 51.6243C93.1251 51.5927 93.1983 51.5448 93.2595 51.4836C93.3207 51.4224 93.3686 51.3492 93.4002 51.2687C93.4319 51.1882 93.4466 51.102 93.4435 51.0155V48.2606L94.369 47.5249L97.418 51.3735C97.4819 51.4615 97.5636 51.535 97.6578 51.5894C97.752 51.6438 97.8566 51.6778 97.9648 51.6891C98.0513 51.6923 98.1375 51.6776 98.218 51.6459C98.2985 51.6142 98.3717 51.5663 98.4328 51.5051C98.494 51.444 98.5419 51.3708 98.5736 51.2903C98.6053 51.2097 98.62 51.1236 98.6169 51.0371C98.6334 50.9603 98.6325 50.8808 98.6143 50.8043C98.5961 50.7279 98.561 50.6566 98.5116 50.5955L98.5021 50.5946ZM87.7552 46.7883C86.746 46.4312 85.9266 46.1363 85.9266 45.4083C85.9266 44.6803 86.8521 44.4828 87.3567 44.4828C88.0467 44.4457 88.7022 44.6984 89.1852 45.1771C89.2436 45.2409 89.3153 45.2909 89.3952 45.3237C89.4751 45.3565 89.5613 45.3713 89.6475 45.3669C89.8026 45.3632 89.9503 45.2999 90.06 45.1902C90.1697 45.0806 90.2329 44.9329 90.2366 44.7778C90.2321 44.6258 90.1809 44.4788 90.09 44.3569C89.7596 43.9657 89.3421 43.6575 88.871 43.4567C88.3999 43.256 87.8884 43.1685 87.3774 43.2011C85.6739 43.2011 84.6225 44.0843 84.6225 45.4092C84.6225 47.0704 86.0948 47.5655 87.3774 48.0381C88.3451 48.3538 89.2059 48.6272 89.2059 49.3629C89.2059 50.0987 88.1123 50.5187 87.4602 50.5187C86.6667 50.5592 85.8956 50.26 85.3358 49.6993C85.208 49.5781 85.0471 49.4977 84.8735 49.4682C84.7184 49.4719 84.5708 49.5351 84.4611 49.6448C84.3514 49.7545 84.2881 49.9022 84.2844 50.0573C84.289 50.2093 84.3402 50.3562 84.431 50.4782C84.8146 50.9077 85.2895 51.2458 85.8208 51.4678C86.3522 51.6897 86.9265 51.7898 87.5016 51.7607C89.4362 51.7607 90.5722 50.8352 90.5722 49.3629C90.5722 47.8906 89.0369 47.2386 87.7543 46.7969L87.7552 46.7883ZM79.8062 44.3905C81.1863 44.3905 81.8763 45.1685 81.9306 46.6831H77.4516C77.5982 45.2108 78.4193 44.3905 79.8062 44.3905ZM83.2563 46.6831C83.253 45.9001 83.0269 45.1342 82.6042 44.4751C82.285 44.0416 81.8608 43.6965 81.3715 43.4721C80.8822 43.2478 80.3438 43.1515 79.8071 43.1925C77.4731 43.1925 76.1267 44.7485 76.1267 47.4619C76.1267 50.1754 77.4516 51.7728 79.996 51.7728C81.0236 51.8099 82.0259 51.4484 82.7931 50.7637C82.8654 50.7103 82.924 50.6406 82.9642 50.5603C83.0044 50.4799 83.025 50.3912 83.0243 50.3014C83.0206 50.1463 82.9573 49.9986 82.8476 49.8889C82.7379 49.7792 82.5902 49.716 82.4352 49.7123C82.3018 49.7144 82.1741 49.7671 82.0781 49.8597C81.5093 50.3292 80.7964 50.5889 80.059 50.5955C78.5444 50.5955 77.5775 49.5863 77.5352 47.9665H82.4774C83.2554 47.882 83.2554 47.1471 83.2554 46.684L83.2563 46.6831ZM71.0776 50.5515C69.5216 50.5515 68.7436 49.5423 68.7436 47.4809C68.7436 45.4195 69.5216 44.4104 71.0776 44.4104C71.5383 44.4357 71.9844 44.581 72.3717 44.8318C72.759 45.0826 73.0741 45.4303 73.2856 45.8404V48.2382C73.2649 49.6683 72.4447 50.5515 71.0569 50.5515H71.0776ZM73.9377 38.9222C73.8512 38.919 73.765 38.9338 73.6845 38.9654C73.6039 38.9971 73.5308 39.045 73.4696 39.1062C73.4084 39.1674 73.3605 39.2405 73.3288 39.321C73.2972 39.4016 73.2825 39.4878 73.2856 39.5742V44.0748C72.6891 43.4832 71.8833 43.1506 71.0431 43.1494C68.6596 43.1494 67.4679 44.5725 67.4679 47.4188C67.4679 50.2789 68.7505 51.7297 71.1483 51.7297C73.5461 51.7297 74.6812 50.4049 74.6812 48.1968V39.6165C74.6612 39.4284 74.5733 39.254 74.4338 39.1261C74.2944 38.9983 74.113 38.9257 73.9239 38.9222H73.9377ZM62.7707 43.1485C62.3531 43.1303 61.937 43.2081 61.5542 43.3759C61.1715 43.5436 60.8322 43.7969 60.5626 44.1162V39.6148C60.5656 39.5228 60.5497 39.4312 60.5159 39.3456C60.4821 39.26 60.431 39.1822 60.3659 39.1171C60.3009 39.0521 60.2231 39.001 60.1375 38.9672C60.0519 38.9334 59.9603 38.9175 59.8683 38.9205C59.778 38.9167 59.688 38.9325 59.6043 38.9667C59.5207 39.0009 59.4454 39.0527 59.3835 39.1185C59.3217 39.1844 59.2747 39.2628 59.2458 39.3484C59.217 39.4341 59.2069 39.5249 59.2163 39.6148V51.0129C59.2134 51.1014 59.228 51.1895 59.2592 51.2723C59.2904 51.3551 59.3377 51.4309 59.3982 51.4954C59.4588 51.5598 59.5315 51.6118 59.6122 51.6481C59.6928 51.6845 59.7799 51.7046 59.8683 51.7073C59.9603 51.7103 60.0519 51.6943 60.1375 51.6605C60.2231 51.6267 60.3009 51.5756 60.3659 51.5106C60.431 51.4455 60.4821 51.3677 60.5159 51.2821C60.5497 51.1965 60.5656 51.1049 60.5626 51.0129V46.7228C60.5626 45.1668 61.2986 44.3888 62.7707 44.3888C64.243 44.3888 64.7476 45.0409 64.7476 46.5968V51.0129C64.7446 51.1049 64.7605 51.1965 64.7943 51.2821C64.8281 51.3677 64.8792 51.4455 64.9443 51.5106C65.0093 51.5756 65.0871 51.6267 65.1727 51.6605C65.2583 51.6943 65.3499 51.7103 65.4419 51.7073C65.5322 51.711 65.6222 51.6952 65.7058 51.661C65.7895 51.6268 65.8648 51.575 65.9267 51.5092C65.9885 51.4433 66.0355 51.3649 66.0644 51.2793C66.0932 51.1936 66.1033 51.1028 66.094 51.0129V46.3683C66.0508 44.2439 64.958 43.1511 62.75 43.1511L62.7707 43.1485ZM54.8217 46.7866C53.8126 46.4295 52.9932 46.1345 52.9932 45.4066C52.9932 44.6786 53.9187 44.4811 54.4232 44.4811C55.1133 44.444 55.7688 44.6967 56.2518 45.1754C56.3696 45.2913 56.5282 45.3563 56.6934 45.3563C56.8586 45.3563 57.0172 45.2913 57.135 45.1754C57.1987 45.1171 57.2488 45.0454 57.2816 44.9655C57.3144 44.8856 57.3291 44.7994 57.3248 44.7131C57.3202 44.5611 57.269 44.4142 57.1781 44.2922C56.8477 43.9011 56.4302 43.5928 55.9591 43.3921C55.4881 43.1913 54.9765 43.1038 54.4655 43.1364C52.762 43.1364 51.7106 44.0196 51.7106 45.3445C51.7106 47.0057 53.1829 47.5008 54.4655 47.9734C55.4333 48.2891 56.294 48.5625 56.294 49.2982C56.294 50.034 55.2004 50.454 54.5483 50.454C53.7548 50.4946 52.9837 50.1953 52.4239 49.6346C52.2961 49.5135 52.1352 49.433 51.9616 49.4035C51.8066 49.4072 51.6589 49.4705 51.5492 49.5801C51.4395 49.6898 51.3762 49.8375 51.3725 49.9926C51.3771 50.1446 51.4283 50.2915 51.5192 50.4135C51.8916 50.8523 52.3559 51.204 52.8791 51.4438C53.4024 51.6836 53.9719 51.8056 54.5474 51.8013C56.4821 51.8013 57.618 50.8758 57.618 49.4035C57.618 47.9312 56.0827 47.2472 54.8002 46.7961L54.8217 46.7866ZM46.9142 44.3888C48.2942 44.3888 48.9842 45.1668 49.0386 46.6814H44.538C44.6846 45.2091 45.5057 44.3888 46.8926 44.3888H46.9142ZM50.3004 46.6814C50.2972 45.8984 50.071 45.1325 49.6484 44.4733C49.3291 44.0399 48.9049 43.6948 48.4156 43.4704C47.9263 43.2461 47.388 43.1498 46.8512 43.1908C44.5172 43.1908 43.1709 44.7467 43.1709 47.4602C43.1709 50.1737 44.4957 51.7926 47.0194 51.7926C48.0471 51.8298 49.0493 51.4682 49.8165 50.7835C49.8888 50.7301 49.9474 50.6604 49.9876 50.5801C50.0278 50.4997 50.0484 50.411 50.0477 50.3212C50.044 50.1661 49.9807 50.0184 49.871 49.9088C49.7614 49.7991 49.6137 49.7358 49.4586 49.7321C49.3252 49.7342 49.1975 49.7869 49.1015 49.8796C48.5327 50.349 47.8199 50.6088 47.0824 50.6153C45.5678 50.6153 44.6009 49.6062 44.5586 47.9864H49.5216C50.2996 47.8811 50.2996 47.1454 50.2996 46.6822L50.3004 46.6814ZM42.154 43.1925C41.7111 43.1701 41.2696 43.2583 40.8693 43.4493C40.4691 43.6402 40.1227 43.9278 39.8614 44.2862V43.9291C39.8614 43.7449 39.7882 43.5683 39.658 43.4381C39.5278 43.3079 39.3512 43.2348 39.1671 43.2348C38.9829 43.2348 38.8063 43.3079 38.6761 43.4381C38.5459 43.5683 38.4727 43.7449 38.4727 43.9291V51.0164C38.4697 51.1084 38.4856 51.2 38.5195 51.2856C38.5533 51.3712 38.6043 51.4489 38.6694 51.514C38.7345 51.5791 38.8123 51.6301 38.8978 51.664C38.9834 51.6978 39.0751 51.7137 39.1671 51.7107C39.2599 51.7169 39.3529 51.7033 39.44 51.6706C39.527 51.6379 39.6061 51.587 39.6719 51.5212C39.7376 51.4554 39.7886 51.3764 39.8213 51.2893C39.8539 51.2022 39.8676 51.1092 39.8614 51.0164V47.1049C39.8614 45.4437 40.7446 44.4759 42.154 44.4759C42.2404 44.4791 42.3266 44.4643 42.4072 44.4327C42.4877 44.401 42.5608 44.3531 42.622 44.2919C42.6832 44.2307 42.7311 44.1576 42.7628 44.0771C42.7944 43.9965 42.8092 43.9103 42.806 43.8239C42.8008 43.6546 42.7298 43.4941 42.608 43.3765C42.4862 43.2589 42.3233 43.1935 42.154 43.1942V43.1925ZM36.8961 39.3862C34.6035 39.3862 33.7625 41.0052 33.7625 42.5197V43.4452H33.3209C33.2269 43.4279 33.1302 43.4315 33.0377 43.4557C32.9451 43.4799 32.8591 43.5242 32.7856 43.5854C32.7121 43.6466 32.653 43.7232 32.6124 43.8098C32.5718 43.8964 32.5508 43.9909 32.5508 44.0865C32.5508 44.1821 32.5718 44.2766 32.6124 44.3632C32.653 44.4498 32.7121 44.5264 32.7856 44.5876C32.8591 44.6488 32.9451 44.6931 33.0377 44.7173C33.1302 44.7415 33.2269 44.7451 33.3209 44.7278H33.7832V51.0785C33.7802 51.1705 33.7961 51.2621 33.83 51.3477C33.8638 51.4333 33.9148 51.511 33.9799 51.5761C34.045 51.6412 34.1228 51.6922 34.2083 51.7261C34.2939 51.7599 34.3856 51.7758 34.4776 51.7728C34.5704 51.779 34.6634 51.7654 34.7505 51.7327C34.8375 51.7 34.9166 51.649 34.9824 51.5833C35.0481 51.5175 35.0991 51.4385 35.1318 51.3514C35.1644 51.2643 35.1781 51.1713 35.1719 51.0785V44.6639H36.6442C36.7377 44.6801 36.8336 44.6756 36.9252 44.6508C37.0168 44.626 37.1019 44.5814 37.1744 44.5203C37.247 44.4592 37.3054 44.3829 37.3454 44.2969C37.3854 44.2109 37.4062 44.1171 37.4062 44.0222C37.4062 43.9273 37.3854 43.8336 37.3454 43.7476C37.3054 43.6615 37.247 43.5853 37.1744 43.5241C37.1019 43.463 37.0168 43.4185 36.9252 43.3937C36.8336 43.3689 36.7377 43.3644 36.6442 43.3805H35.1676V42.455C35.1676 41.6357 35.4833 40.6265 36.9547 40.6265C37.0365 40.6321 37.1185 40.6213 37.196 40.5946C37.2735 40.5679 37.3448 40.526 37.4058 40.4713C37.4675 40.417 37.5173 40.3505 37.5519 40.2759C37.5865 40.2014 37.6052 40.1204 37.6068 40.0383C37.5958 39.8616 37.5178 39.6958 37.3888 39.5746C37.2598 39.4535 37.0894 39.3861 36.9124 39.3862H36.8961Z" fill="white"/>
<path fill-rule="evenodd" clip-rule="evenodd" d="M24.467 31.3605H13.9512L13.9521 31.3631C6.23599 31.4424 1.26388e-07 37.6784 1.26388e-07 45.41C-0.000246696 47.2435 0.361021 49.059 1.06313 50.7527C1.76524 52.4464 2.79442 53.9851 4.09177 55.2806C5.38923 56.5761 6.92922 57.6031 8.62376 58.3031C10.3183 59.0031 12.1342 59.3624 13.9676 59.3603H14.0469C17.747 59.3594 21.2952 57.8892 23.9115 55.2729C26.5278 52.6565 27.9981 49.1083 27.999 45.4083V34.8925C28.003 34.4275 27.9144 33.9664 27.7383 33.5361C27.5623 33.1058 27.3022 32.7148 26.9735 32.386C26.6447 32.0572 26.2537 31.7972 25.8234 31.6211C25.393 31.4451 24.9319 31.3565 24.467 31.3605ZM9.41773 39.4742C10.62 38.2719 12.2507 37.5965 13.951 37.5965C17.5883 37.5965 20.4518 40.4755 20.363 44.0878V48.3512C20.366 48.831 20.2052 49.2974 19.9073 49.6735C19.6093 50.0495 19.192 50.3127 18.7242 50.4195V50.5782C18.7199 51.2519 18.4504 51.8968 17.974 52.3732C17.4976 52.8496 16.8527 53.1192 16.1789 53.1235H14.2064C14.0252 53.1157 13.8812 52.9622 13.8726 52.7897C13.8726 52.6301 14.0477 52.5508 14.2064 52.5508H16.1643C16.6849 52.5425 17.1818 52.3321 17.55 51.9639C17.9181 51.5958 18.1286 51.0988 18.1368 50.5782V50.4988H16.4981V45.4962H18.9795V44.0964C18.8381 41.4683 16.649 39.3983 14.008 39.3983C11.367 39.3983 9.18565 41.4597 9.03643 44.0964V45.4962H11.486V50.4988H9.67211C9.11063 50.4861 8.57568 50.2574 8.17855 49.8603C7.78142 49.4631 7.5527 48.9282 7.53997 48.3667V44.0075C7.53997 42.3072 8.21542 40.6765 9.41773 39.4742Z" fill="white"/>
<g clip-path="url(#clip0)">
<path d="M138.998 35.4927V43.1475H131.965V35.4927H128.629V53.7658H131.966V46.3594H138.997V53.7658H142.335V35.4927H138.998ZM153.018 47.8596C153.018 48.5921 152.727 49.2945 152.209 49.8124C151.691 50.3303 150.989 50.6213 150.256 50.6213C149.524 50.6213 148.821 50.3303 148.303 49.8124C147.786 49.2945 147.495 48.5921 147.495 47.8596V40.0323H144.329V47.8596C144.329 49.4301 144.953 50.9363 146.063 52.0468C147.174 53.1573 148.68 53.7812 150.25 53.7812C151.821 53.7812 153.327 53.1573 154.437 52.0468C155.548 50.9363 156.172 49.4301 156.172 47.8596V40.0323H153.018V47.8596ZM176.475 40.8389C176.475 39.2338 177.537 38.7253 178.699 38.7253C179.637 38.7253 180.874 39.4389 181.684 40.3042L183.757 37.86C182.722 36.46 180.623 35.4927 178.904 35.4927C175.469 35.4927 172.985 37.5042 172.985 40.8389C172.985 47.026 180.547 45.0624 180.547 48.5253C180.547 49.5929 179.51 50.5359 178.323 50.5359C176.451 50.5359 175.844 49.6209 174.984 48.6527L172.683 51.0453C174.155 52.8518 175.971 53.7695 178.145 53.7695C181.408 53.7695 184.033 51.7336 184.033 48.5506C184.033 41.6825 176.47 43.8168 176.47 40.8389H176.475ZM223.257 50.8466C221.387 50.8466 220.855 50.0373 220.855 48.7981V43.311H223.763V40.5309H220.855V36.8629L217.645 38.3035V49.48C217.645 52.3387 219.617 53.7794 222.321 53.7794C222.746 53.7866 223.17 53.7523 223.588 53.6782L224.371 50.7951C224.018 50.8195 223.612 50.8439 223.257 50.8439V50.8466ZM165.069 40.1235C163.501 40.1235 162.406 40.5787 161.347 41.6165V35.602H158.177V46.7505C158.177 50.9234 161.194 53.783 164.585 53.783C168.346 53.783 171.654 50.8728 171.654 46.9546C171.654 43.0852 168.609 40.1262 165.069 40.1262V40.1235ZM165.049 50.5919C164.576 50.5919 164.108 50.4988 163.672 50.318C163.235 50.1372 162.839 49.8722 162.505 49.5381C162.171 49.204 161.905 48.8073 161.725 48.3708C161.544 47.9343 161.451 47.4664 161.451 46.9939C161.451 46.5214 161.544 46.0535 161.725 45.617C161.905 45.1805 162.171 44.7838 162.505 44.4497C162.839 44.1156 163.235 43.8506 163.672 43.6698C164.108 43.489 164.576 43.3959 165.049 43.3959C166.003 43.3959 166.918 43.775 167.593 44.4497C168.268 45.1245 168.647 46.0397 168.647 46.9939C168.647 47.9482 168.268 48.8633 167.593 49.5381C166.918 50.2128 166.003 50.5919 165.049 50.5919ZM199.5 46.7884C199.5 42.863 196.198 39.96 192.43 39.96C189.04 39.96 186.023 42.8187 186.023 46.9925V58.1474H189.193V52.1247C190.25 53.1607 191.346 53.6177 192.912 53.6177C196.453 53.6177 199.499 50.6587 199.499 46.7884H199.5ZM196.497 46.7487C196.497 47.7029 196.118 48.6181 195.443 49.2928C194.769 49.9676 193.854 50.3467 192.899 50.3467C191.945 50.3467 191.03 49.9676 190.355 49.2928C189.68 48.6181 189.301 47.7029 189.301 46.7487C189.301 45.7944 189.68 44.8793 190.355 44.2045C191.03 43.5297 191.945 43.1507 192.899 43.1507C193.854 43.1507 194.769 43.5297 195.443 44.2045C196.118 44.8793 196.497 45.7944 196.497 46.7487Z" fill="white"/>
<path d="M209.745 39.8065V36.6209C210.166 36.4241 210.522 36.1119 210.773 35.7204C211.023 35.329 211.157 34.8745 211.159 34.4098V34.3366C211.159 32.9818 210.061 31.8835 208.706 31.8835H208.633C207.982 31.8835 207.358 32.1419 206.898 32.602C206.438 33.062 206.18 33.686 206.18 34.3366V34.4098C206.182 34.8745 206.316 35.329 206.566 35.7204C206.817 36.1119 207.173 36.4241 207.594 36.6209V39.8065C206.384 39.9918 205.245 40.4935 204.291 41.2607L195.554 34.4558C195.617 34.2309 195.649 33.9997 195.653 33.7676C195.654 33.2209 195.493 32.6861 195.19 32.231C194.887 31.7758 194.456 31.4207 193.951 31.2106C193.446 31.0005 192.891 30.9447 192.354 31.0505C191.818 31.1562 191.325 31.4187 190.938 31.8046C190.55 32.1906 190.286 32.6827 190.179 33.2187C190.071 33.7548 190.125 34.3107 190.334 34.8161C190.542 35.3215 190.896 35.7537 191.35 36.0581C191.804 36.3625 192.339 36.5253 192.885 36.526C193.364 36.5238 193.833 36.3961 194.246 36.1557L202.85 42.8504C202.077 44.018 201.674 45.3913 201.693 46.7914C201.712 48.1914 202.152 49.5533 202.956 50.6994L200.34 53.317C200.128 53.2494 199.908 53.2134 199.686 53.2104C199.237 53.2108 198.798 53.3442 198.425 53.5937C198.052 53.8433 197.762 54.1978 197.59 54.6124C197.419 55.0271 197.374 55.4834 197.461 55.9235C197.549 56.3636 197.765 56.7679 198.082 57.0852C198.4 57.4025 198.804 57.6187 199.244 57.7063C199.684 57.794 200.141 57.7492 200.555 57.5776C200.97 57.406 201.324 57.1154 201.574 56.7424C201.824 56.3694 201.957 55.9308 201.957 55.482C201.954 55.26 201.918 55.0396 201.851 54.8281L204.439 52.2385C205.283 52.8884 206.265 53.3365 207.309 53.5483C208.353 53.7602 209.432 53.7303 210.463 53.4609C211.493 53.1915 212.449 52.6897 213.255 51.994C214.062 51.2984 214.699 50.4273 215.117 49.4474C215.535 48.4676 215.724 47.4051 215.668 46.3412C215.612 45.2774 215.313 44.2404 214.795 43.3099C214.276 42.3793 213.551 41.5797 212.676 40.9725C211.801 40.3652 210.798 39.9664 209.745 39.8065ZM208.672 50.284C208.193 50.2971 207.717 50.2143 207.271 50.0403C206.826 49.8663 206.419 49.6047 206.076 49.271C205.733 48.9372 205.46 48.5381 205.274 48.0973C205.088 47.6564 204.992 47.1826 204.992 46.704C204.992 46.2254 205.088 45.7517 205.274 45.3108C205.46 44.8699 205.733 44.4708 206.076 44.1371C206.419 43.8034 206.826 43.5418 207.271 43.3678C207.717 43.1938 208.193 43.1109 208.672 43.1241C209.599 43.1566 210.478 43.5476 211.122 44.2149C211.767 44.8822 212.127 45.7736 212.128 46.7014C212.128 47.6292 211.769 48.521 211.125 49.1889C210.481 49.8568 209.603 50.2488 208.675 50.2822" fill="white"/>
</g>
<defs>
<clipPath id="clip0">
<rect width="95.7419" height="28" fill="white" transform="translate(128.629 31)"/>
</clipPath>
</defs>
</svg>
