<svg width="268" height="59" viewBox="0 0 268 59" fill="none" xmlns="http://www.w3.org/2000/svg">
<path opacity="0.5" d="M74.3051 13V3.47754H78.3656C78.794 3.47754 79.1882 3.52311 79.5482 3.61426C79.9083 3.70085 80.2159 3.83984 80.4711 4.03125C80.7263 4.22266 80.9245 4.47331 81.0658 4.7832C81.2071 5.08854 81.2777 5.45768 81.2777 5.89062C81.2777 6.43294 81.1479 6.88639 80.8881 7.25098C80.6329 7.611 80.282 7.87533 79.8354 8.04395C80.3412 8.18522 80.7423 8.44043 81.0385 8.80957C81.3393 9.17871 81.4896 9.65039 81.4896 10.2246C81.4896 10.7305 81.4167 11.1611 81.2709 11.5166C81.1251 11.8721 80.9177 12.1592 80.6488 12.3779C80.3845 12.5967 80.0632 12.7562 79.685 12.8564C79.3113 12.9521 78.8943 13 78.434 13H74.3051ZM76.1234 11.4619H78.7006C79.0014 11.4619 79.2247 11.3936 79.3705 11.2568C79.5209 11.1201 79.5961 10.9036 79.5961 10.6074V9.6709C79.5961 9.12858 79.3158 8.85742 78.7553 8.85742H76.1234V11.4619ZM76.1234 7.31934H78.6049C78.9057 7.31934 79.1107 7.2487 79.2201 7.10742C79.3295 6.96615 79.3842 6.75651 79.3842 6.47852V5.74707C79.3842 5.264 79.1244 5.02246 78.6049 5.02246H76.1234V7.31934ZM84.8652 13V3.47754H91.4141V5.02246H86.6836V7.36035H90.7715V8.89844H86.6836V11.4619H91.4141V13H84.8652ZM94.7828 13V3.47754H96.6012V13H94.7828ZM99.7785 10.1562H101.597C101.67 10.7168 101.884 11.1178 102.239 11.3594C102.595 11.5964 103.053 11.7148 103.613 11.7148C104.147 11.7148 104.596 11.6055 104.96 11.3867C105.325 11.1634 105.507 10.8421 105.507 10.4229C105.507 10.0856 105.402 9.81673 105.193 9.61621C104.983 9.41569 104.662 9.26074 104.229 9.15137L102.369 8.65918C101.585 8.4541 101.004 8.11914 100.626 7.6543C100.248 7.1849 100.059 6.60156 100.059 5.9043C100.059 5.52148 100.141 5.16829 100.305 4.84473C100.469 4.52116 100.699 4.24316 100.995 4.01074C101.296 3.77832 101.661 3.59831 102.089 3.4707C102.517 3.33854 102.998 3.27246 103.531 3.27246C104.015 3.27246 104.463 3.32943 104.878 3.44336C105.297 3.55273 105.66 3.72363 105.965 3.95605C106.275 4.18848 106.528 4.48698 106.724 4.85156C106.92 5.21615 107.041 5.64453 107.086 6.13672H105.268C105.24 5.87695 105.172 5.6582 105.063 5.48047C104.958 5.30273 104.826 5.16146 104.666 5.05664C104.507 4.94727 104.327 4.87207 104.126 4.83105C103.926 4.79004 103.718 4.76953 103.504 4.76953C102.998 4.76953 102.599 4.86979 102.308 5.07031C102.021 5.27083 101.877 5.54427 101.877 5.89062C101.877 6.25521 101.989 6.5332 102.212 6.72461C102.44 6.91146 102.782 7.06641 103.237 7.18945L104.858 7.61328C105.669 7.82747 106.282 8.15104 106.696 8.58398C107.116 9.01693 107.325 9.62533 107.325 10.4092C107.325 10.8467 107.237 11.2386 107.059 11.585C106.881 11.9313 106.628 12.2253 106.3 12.4668C105.976 12.7083 105.587 12.8929 105.131 13.0205C104.68 13.1481 104.183 13.2119 103.641 13.2119C103.108 13.2119 102.615 13.1549 102.164 13.041C101.713 12.9316 101.317 12.7562 100.975 12.5146C100.633 12.2686 100.357 11.9518 100.148 11.5645C99.938 11.1771 99.815 10.7077 99.7785 10.1562ZM110.544 13V3.47754H114.42C115.436 3.47754 116.188 3.72363 116.676 4.21582C117.163 4.70345 117.407 5.47591 117.407 6.5332C117.407 7.54036 117.136 8.30143 116.594 8.81641C116.051 9.32682 115.331 9.58203 114.433 9.58203H112.362V13H110.544ZM112.362 8.04395H114.618C114.937 8.04395 115.165 7.96419 115.302 7.80469C115.443 7.64518 115.513 7.4082 115.513 7.09375V5.91797C115.513 5.59896 115.447 5.37109 115.315 5.23438C115.188 5.0931 114.955 5.02246 114.618 5.02246H112.362V8.04395ZM120.502 13V3.47754H122.321V13H120.502ZM126.072 13V3.47754H132.621V5.02246H127.891V7.36035H131.979V8.89844H127.891V11.4619H132.621V13H126.072ZM135.99 13V3.47754H137.808V11.4619H141.841V13H135.99ZM144.465 9.91699V8.49512H148.389V9.91699H144.465ZM151.06 13L154.307 3.47754H156.242L159.475 13H157.513L156.885 10.9697H153.637L153.022 13H151.06ZM154.109 9.43164H156.42L155.319 5.67871H155.258L154.109 9.43164ZM162.338 13V3.47754H166.214C167.231 3.47754 167.982 3.72363 168.47 4.21582C168.958 4.70345 169.202 5.47591 169.202 6.5332C169.202 7.54036 168.93 8.30143 168.388 8.81641C167.846 9.32682 167.126 9.58203 166.228 9.58203H164.157V13H162.338ZM164.157 8.04395H166.412C166.732 8.04395 166.959 7.96419 167.096 7.80469C167.237 7.64518 167.308 7.4082 167.308 7.09375V5.91797C167.308 5.59896 167.242 5.37109 167.11 5.23438C166.982 5.0931 166.75 5.02246 166.412 5.02246H164.157V8.04395ZM172.297 13V3.47754H176.173C177.189 3.47754 177.941 3.72363 178.429 4.21582C178.916 4.70345 179.16 5.47591 179.16 6.5332C179.16 7.54036 178.889 8.30143 178.347 8.81641C177.804 9.32682 177.084 9.58203 176.187 9.58203H174.115V13H172.297ZM174.115 8.04395H176.371C176.69 8.04395 176.918 7.96419 177.055 7.80469C177.196 7.64518 177.267 7.4082 177.267 7.09375V5.91797C177.267 5.59896 177.201 5.37109 177.068 5.23438C176.941 5.0931 176.708 5.02246 176.371 5.02246H174.115V8.04395ZM181.681 10.1562H183.5C183.573 10.7168 183.787 11.1178 184.142 11.3594C184.498 11.5964 184.956 11.7148 185.516 11.7148C186.049 11.7148 186.498 11.6055 186.863 11.3867C187.227 11.1634 187.41 10.8421 187.41 10.4229C187.41 10.0856 187.305 9.81673 187.095 9.61621C186.886 9.41569 186.564 9.26074 186.131 9.15137L184.272 8.65918C183.488 8.4541 182.907 8.11914 182.529 7.6543C182.151 7.1849 181.962 6.60156 181.962 5.9043C181.962 5.52148 182.044 5.16829 182.208 4.84473C182.372 4.52116 182.602 4.24316 182.898 4.01074C183.199 3.77832 183.563 3.59831 183.992 3.4707C184.42 3.33854 184.901 3.27246 185.434 3.27246C185.917 3.27246 186.366 3.32943 186.781 3.44336C187.2 3.55273 187.562 3.72363 187.868 3.95605C188.178 4.18848 188.431 4.48698 188.627 4.85156C188.823 5.21615 188.943 5.64453 188.989 6.13672H187.171C187.143 5.87695 187.075 5.6582 186.965 5.48047C186.861 5.30273 186.728 5.16146 186.569 5.05664C186.409 4.94727 186.229 4.87207 186.029 4.83105C185.828 4.79004 185.621 4.76953 185.407 4.76953C184.901 4.76953 184.502 4.86979 184.211 5.07031C183.923 5.27083 183.78 5.54427 183.78 5.89062C183.78 6.25521 183.892 6.5332 184.115 6.72461C184.343 6.91146 184.685 7.06641 185.14 7.18945L186.76 7.61328C187.572 7.82747 188.185 8.15104 188.599 8.58398C189.018 9.01693 189.228 9.62533 189.228 10.4092C189.228 10.8467 189.139 11.2386 188.962 11.585C188.784 11.9313 188.531 12.2253 188.203 12.4668C187.879 12.7083 187.49 12.8929 187.034 13.0205C186.583 13.1481 186.086 13.2119 185.544 13.2119C185.01 13.2119 184.518 13.1549 184.067 13.041C183.616 12.9316 183.219 12.7562 182.878 12.5146C182.536 12.2686 182.26 11.9518 182.05 11.5645C181.841 11.1771 181.718 10.7077 181.681 10.1562Z" fill="white"/>
<g clip-path="url(#clip0)">
<path d="M16.802 44.1857H13.3282V39.9428H11.9625V44.1857H8.48828V45.6932H11.9625V49.9351H13.3282V45.6932H16.802V44.1857Z" fill="white"/>
<path d="M9.82084 51.1123H6.70794V47.3141H5.53003V51.1123H2.41797V52.2704H5.53003V56.0696H6.70794V52.2704H9.82084V51.1123Z" fill="white"/>
<path d="M22.8759 37.5247H19.7639V33.7081H18.5847V37.5247H15.4727V38.6818H18.5847V42.4631H19.7639V38.6818H22.8759V37.5247Z" fill="white"/>
<path d="M15.2802 55.3275H13.1683V52.6784H12.1622V55.3275H10.0508V56.3504H12.1622V59H13.1683V56.3504H15.2802V55.3275Z" fill="white"/>
<path d="M9.82084 37.5242H6.67148V33.7081H5.56733V37.5242H2.41797V38.6479H5.56733V42.4631H6.67148V38.6479H9.82084V37.5242Z" fill="white"/>
<path d="M25.2684 44.4281H23.157V41.7794H22.1505V44.4281H20.0391V45.451H22.1505V48.1001H23.157V45.451H25.2684V44.4281Z" fill="white"/>
<path fill-rule="evenodd" clip-rule="evenodd" d="M22.8759 51.1123H19.7639V47.3141H18.5847V51.1123H15.4727V52.2704H18.5847V56.0696H19.7639V52.2704H22.8759V51.1123Z" fill="white"/>
<path d="M12.2919 31V33.5992H10.2031V34.3857H12.2919V36.9849H13.0431V34.3857H15.1328V33.5992H13.0431V31H12.2919Z" fill="white"/>
<path d="M4.9305 44.5299H2.83372V41.9816H2.09678V44.5299H0V45.3499L2.09678 45.3348V47.8982H2.83372V45.3301L4.9305 45.316V44.5299Z" fill="white"/>
<path fill-rule="evenodd" clip-rule="evenodd" d="M68.7482 49.9585C70.3801 49.9585 71.3157 48.9078 71.3157 47.0362C71.3157 45.1957 70.3747 44.0913 68.9071 44.0913C68.2682 44.0913 67.6629 44.3395 67.2194 44.567V49.6265C67.7589 49.8488 68.2628 49.9585 68.7482 49.9585ZM67.2194 42.7557C68.0423 42.3921 68.7729 42.2848 69.2408 42.2848C71.574 42.2848 73.1505 44.1271 73.1505 47.016C73.1505 50.0122 71.4939 51.7632 68.5726 51.7632C67.5594 51.7632 66.5659 51.5432 65.5221 51.1458L65.4727 37.895H67.2194V42.7557Z" fill="white"/>
<path fill-rule="evenodd" clip-rule="evenodd" d="M80.4102 36.0349H82.1393V53.4268H80.4102V36.0349Z" fill="white"/>
<path fill-rule="evenodd" clip-rule="evenodd" d="M93.6467 51.799C90.9836 51.5089 89.6862 49.4056 89.7609 46.9119C89.8413 44.219 91.3928 42.3079 93.7582 42.3079C96.2398 42.3079 97.6772 44.3707 97.554 47.4135H91.5805C91.7235 49.099 92.6243 49.8973 93.8555 50.0033C94.8804 50.0927 96.3278 49.8318 97.1117 49.2789V51.1326C96.0788 51.6973 95.0032 51.9469 93.6467 51.799ZM91.6883 45.9841H95.658C95.6131 44.7973 95.0455 44.1813 94.0345 44.1083C93.0167 44.0349 92.0303 44.77 91.6883 45.9841Z" fill="white"/>
<path fill-rule="evenodd" clip-rule="evenodd" d="M123.185 50.2693C124.281 50.2693 125.021 49.6416 125.021 48.2358V42.4821H126.769V48.4778C126.769 50.4817 125.384 51.7043 123.184 51.7043C120.986 51.7043 119.602 50.4817 119.602 48.4778V42.4821H121.348V48.2358C121.348 49.6416 122.09 50.2693 123.185 50.2693Z" fill="white"/>
<path fill-rule="evenodd" clip-rule="evenodd" d="M53.789 49.9587C54.1868 49.9521 54.6698 49.9191 55.2847 49.7449L55.3174 44.725C54.7578 44.2941 54.2183 44.0915 53.6306 44.0915C52.1626 44.0915 51.2219 45.1959 51.2219 47.0364C51.2219 48.908 52.1576 49.9846 53.789 49.9587ZM53.9647 51.7634C51.0438 51.7737 49.3867 50.0124 49.3867 47.0162C49.3867 44.1273 50.9645 42.285 53.2961 42.285C54.0837 42.285 54.7343 42.4809 55.3174 42.9052V42.243H57.0642L57.0147 51.146C56.2799 51.5048 55.073 51.7591 53.9647 51.7634Z" fill="white"/>
<path fill-rule="evenodd" clip-rule="evenodd" d="M108.985 49.9587C109.329 49.9577 109.864 49.9191 110.48 49.7449L110.513 44.725C109.953 44.2941 109.413 44.0915 108.826 44.0915C107.357 44.0915 106.417 45.1959 106.417 47.0364C106.417 48.908 107.352 49.9625 108.985 49.9587ZM109.16 51.7634C106.238 51.7737 104.582 50.0124 104.582 47.0162C104.582 44.1273 106.159 42.285 108.491 42.285C109.278 42.285 109.929 42.4809 110.513 42.9052V42.243H112.259L112.209 51.146C111.475 51.5048 110.268 51.7591 109.16 51.7634Z" fill="white"/>
<path d="M36.3914 38.5224H38.121V44.0387H42.7933V45.8509H38.121V51.832H36.3914V45.8509H31.7188V44.0387H36.3914V38.5224Z" fill="white"/>
<path d="M129.451 43.5277H129.585C129.737 43.5277 129.865 43.465 129.865 43.3045C129.865 43.191 129.792 43.0775 129.585 43.0775C129.526 43.0775 129.484 43.0822 129.451 43.0878V43.5277ZM129.451 44.2468H129.267V42.9479C129.364 42.9324 129.456 42.9164 129.594 42.9164C129.77 42.9164 129.884 42.9588 129.954 43.0148C130.022 43.0723 130.059 43.1599 130.059 43.2842C130.059 43.4547 129.958 43.5583 129.834 43.6007V43.6096C129.934 43.6313 130.004 43.734 130.026 43.9261C130.054 44.1277 130.082 44.2054 130.099 44.2468H129.907C129.879 44.2054 129.851 44.0867 129.829 43.9158C129.801 43.7495 129.727 43.6878 129.58 43.6878H129.451V44.2468ZM129.645 42.5858C129.189 42.5858 128.815 43.0261 128.815 43.5687C128.815 44.1225 129.189 44.5572 129.649 44.5572C130.11 44.5633 130.478 44.1225 130.478 43.5738C130.478 43.0261 130.11 42.5858 129.649 42.5858H129.645ZM129.649 42.4049C130.215 42.4049 130.667 42.9216 130.667 43.5687C130.667 44.2266 130.215 44.738 129.645 44.738C129.077 44.738 128.617 44.2266 128.617 43.5687C128.617 42.9216 129.077 42.4049 129.645 42.4049H129.649Z" fill="white"/>
</g>
<path d="M176.179 46.7831C176.179 44.5288 176.179 42.2989 176.179 40.0446C176.179 39.2604 175.835 38.7949 175.1 38.5743C168.46 36.565 161.844 34.5312 155.203 32.5464C154.174 32.2278 153.365 32.8404 153.365 33.9186C153.365 36.8836 153.365 39.824 153.365 42.789C153.365 43.034 153.39 43.3526 153.267 43.5486C153.12 43.7692 152.826 43.9897 152.581 43.9897C152.361 43.9897 152.067 43.7447 151.895 43.5486C151.773 43.4016 151.773 43.1566 151.773 42.936C151.773 39.9955 151.748 37.0796 151.773 34.1391C151.797 31.7867 153.561 30.5125 155.816 31.1741C156.771 31.4437 157.727 31.7622 158.683 32.0563C164.172 33.7225 169.66 35.3888 175.149 37.0551C176.963 37.5942 177.698 38.4763 177.698 40.3876C177.722 44.7248 177.722 49.0375 177.698 53.3747C177.698 55.384 176.399 56.8053 174.635 56.5847C173.63 56.4622 172.65 56.0456 171.694 55.7271C171.302 55.6046 171.204 55.2125 171.327 54.8204C171.474 54.4039 171.817 54.2813 172.209 54.3794C172.821 54.5509 173.434 54.7224 174.047 54.943C175.345 55.384 176.154 54.8204 176.154 53.4727V46.7831H176.179Z" fill="white"/>
<path d="M259.399 44.7736C261.335 45.2637 262.291 46.3664 262.364 48.1306C262.438 49.7234 261.261 51.3161 259.571 51.8552C258.958 52.0513 258.272 52.1738 257.635 52.1983C256.14 52.2473 254.645 52.2228 253.151 52.1983C253.077 52.1983 252.979 52.1493 252.881 52.1248C252.857 51.9042 252.857 51.6837 252.857 51.4877C252.857 47.322 252.881 43.1318 252.832 38.9662C252.832 38.3536 253.004 38.2065 253.592 38.231C255.282 38.3046 256.973 38.231 258.639 38.3781C260.404 38.5496 261.58 39.7258 261.727 41.2205C261.8 42.4457 261.31 43.916 259.399 44.7736ZM255.233 45.9498C255.233 47.3465 255.233 48.6207 255.258 49.8949C255.258 50.0174 255.503 50.2625 255.625 50.2625C256.41 50.2625 257.218 50.287 257.978 50.1645C259.056 50.0174 259.718 49.1843 259.718 48.1306C259.718 47.0525 259.154 46.3419 258.002 46.1703C257.145 46.0233 256.238 45.9988 255.233 45.9498ZM255.233 42.1272C255.233 42.6173 255.209 43.1073 255.258 43.5974C255.258 43.7444 255.478 43.9895 255.601 43.9895C256.312 43.9895 257.022 44.014 257.708 43.8669C259.032 43.5484 259.62 41.8086 258.786 40.853C258.321 40.3139 256.214 39.8238 255.527 40.2894C255.209 40.5099 255.331 41.343 255.258 41.9066C255.233 42.0046 255.233 42.0537 255.233 42.1272Z" fill="white"/>
<path d="M220.532 45.0923C219.87 47.3467 219.258 49.4295 218.67 51.5368C218.523 52.0514 218.327 52.2474 217.763 52.2474C216.072 52.2474 216.048 52.2965 215.582 50.6792C214.798 48.0573 214.038 45.4354 213.279 42.8134C213.23 42.6664 213.205 42.4949 213.156 42.2498C213.916 42.2498 214.602 42.2253 215.313 42.2743C215.46 42.2743 215.656 42.5684 215.705 42.7399C216.244 44.7737 216.734 46.7831 217.248 48.8169C217.297 49.0374 217.371 49.258 217.542 49.503C217.91 48.2533 218.253 46.9791 218.621 45.7294C218.915 44.7002 219.184 43.6711 219.527 42.6419C219.576 42.4704 219.846 42.2498 220.017 42.2498C221.806 42.1273 221.806 42.1273 222.247 43.8426C222.737 45.8029 223.227 47.7632 223.717 49.8216C224.306 47.4447 224.894 45.1658 225.433 42.8624C225.555 42.3724 225.751 42.2008 226.241 42.2253C226.756 42.2743 227.246 42.2253 227.859 42.2253C227.589 43.2055 227.32 44.0631 227.05 44.9453C226.388 47.1506 225.727 49.356 225.114 51.5858C224.992 52.0269 224.82 52.2474 224.306 52.2229C222.443 52.1984 222.443 52.2229 221.978 50.4587C221.512 48.7434 221.047 47.0036 220.532 45.0923Z" fill="white"/>
<path d="M191.937 52.2229C191.912 51.9289 191.888 51.7328 191.888 51.5613C191.888 47.3956 191.888 43.2055 191.863 39.0398C191.863 38.4272 192.059 38.2312 192.672 38.2557C194.289 38.3292 195.931 38.2312 197.548 38.4027C199.876 38.6477 201.248 40.216 201.297 42.4458C201.371 44.6267 199.925 46.5625 197.818 47.0036C196.887 47.1996 195.906 47.1996 194.951 47.2241C194.485 47.2486 194.338 47.3956 194.338 47.8612C194.363 49.1109 194.338 50.3361 194.363 51.5858C194.363 52.1004 194.216 52.2719 193.701 52.2229C193.137 52.1739 192.574 52.2229 191.937 52.2229ZM194.363 45.2638C195.318 45.1903 196.2 45.1903 197.034 45.0188C198.136 44.7982 198.7 43.8671 198.7 42.6174C198.7 41.4167 198.185 40.6571 197.058 40.4365C196.298 40.2895 195.49 40.3385 194.706 40.3385C194.608 40.3385 194.387 40.559 194.387 40.6816C194.363 42.1518 194.363 43.622 194.363 45.2638Z" fill="white"/>
<path d="M165.938 49.7237C165.938 47.2488 165.938 44.7984 165.938 42.3235C165.938 41.4904 166.379 40.8288 167.089 40.5837C167.8 40.3142 168.633 40.4857 169.049 41.0983C169.295 41.4659 169.491 41.956 169.491 42.397C169.54 47.2733 169.515 52.1741 169.515 57.0259C169.515 57.81 169.246 58.4716 168.486 58.8147C167.824 59.1087 167.187 59.0597 166.624 58.6186C166.109 58.2266 165.938 57.663 165.938 57.0259V49.7237Z" fill="white"/>
<path d="M206.982 52.4434C203.919 52.4434 201.91 50.4341 201.91 47.3466C201.91 44.0386 203.993 42.0047 207.375 41.9802C210.413 41.9802 212.251 43.9405 212.251 47.1751C212.251 50.4586 210.291 52.4434 206.982 52.4434ZM209.898 47.2976C209.874 47.2976 209.825 47.2731 209.8 47.2731C209.776 46.93 209.776 46.587 209.727 46.2439C209.604 45.1412 208.82 44.1856 207.865 43.965C206.639 43.6955 205.488 44.0876 204.9 45.0922C204.14 46.4399 204.14 47.8857 204.826 49.2579C205.292 50.189 206.174 50.5566 207.179 50.5566C208.159 50.5566 208.992 50.14 209.384 49.1844C209.653 48.5963 209.727 47.9347 209.898 47.2976Z" fill="white"/>
<path d="M231.139 47.9346C231.09 49.3803 232.046 50.4585 233.418 50.581C234.521 50.7035 235.599 50.5075 236.555 49.8949C236.628 49.8459 236.702 49.7969 236.775 49.7724C236.824 49.7724 236.849 49.7724 237.02 49.7724C237.02 50.287 237.069 50.8261 236.996 51.3406C236.971 51.5122 236.751 51.7572 236.555 51.8307C234.839 52.5903 233.075 52.7374 231.311 52.0513C230.649 51.8062 230.012 51.2671 229.595 50.679C228.199 48.8412 228.125 45.0676 230.257 43.1808C231.678 41.9066 233.32 41.6126 235.084 42.2007C236.751 42.7643 237.461 44.112 237.682 45.7782C237.755 46.2683 237.731 46.7584 237.78 47.2485C237.829 47.7631 237.608 47.9101 237.118 47.9101C235.354 47.8856 233.614 47.9101 231.85 47.9101H231.139V47.9346ZM235.403 46.1948C235.525 44.7981 234.766 43.8424 233.516 43.7689C232.291 43.6954 231.139 44.8716 231.139 46.1948H235.403Z" fill="white"/>
<path d="M164.542 49.8462C164.542 51.684 164.542 53.5218 164.542 55.3596C164.542 56.1437 164.175 56.7563 163.415 57.0749C162.729 57.3444 162.018 57.2954 161.528 56.7073C161.234 56.3397 160.989 55.8007 160.989 55.3351C160.94 51.635 160.965 47.9349 160.989 44.2348C160.989 43.0831 161.749 42.3235 162.803 42.348C163.807 42.3725 164.542 43.1566 164.542 44.2593C164.542 46.1216 164.542 48.0084 164.542 49.8462Z" fill="white"/>
<path d="M159.54 49.7724C159.54 50.9731 159.54 52.1738 159.54 53.35C159.54 54.4281 158.756 55.2368 157.776 55.2368C156.796 55.2613 156.012 54.4281 156.012 53.35C156.012 50.9486 156.012 48.5227 156.012 46.1213C156.012 45.0431 156.722 44.308 157.727 44.2835C158.756 44.259 159.54 45.0431 159.54 46.0968C159.565 47.322 159.54 48.5472 159.54 49.7724Z" fill="white"/>
<path d="M267.256 52.1741H264.781V38.2559C265.516 38.2559 266.251 38.2314 266.987 38.2804C267.085 38.2804 267.232 38.6234 267.232 38.8195C267.256 40.5593 267.232 42.299 267.232 44.0143V51.2675V52.1741H267.256Z" fill="white"/>
<path d="M242.191 52.2228C241.481 52.2228 240.868 52.2228 240.28 52.2228C240.157 52.2228 240.035 52.1983 239.863 52.1983V42.2988H242.167V43.867C242.461 43.4749 242.632 43.1809 242.853 42.9359C243.465 42.2007 244.298 41.9557 245.23 42.1517C245.401 42.1762 245.646 42.3968 245.671 42.5438C245.72 43.1564 245.695 43.769 245.695 44.4306C245.352 44.3571 245.083 44.2591 244.813 44.2346C243.343 44.0875 242.265 45.2392 242.24 46.979C242.216 48.4737 242.24 49.9685 242.24 51.4877V52.2228H242.191Z" fill="white"/>
<path d="M154.541 49.8217V51.7575C154.541 52.7867 153.855 53.5218 152.875 53.5953C151.992 53.6443 151.061 52.8847 151.037 51.9045C150.988 50.4833 150.988 49.0866 151.037 47.6653C151.061 46.7097 151.992 45.9501 152.899 45.9991C153.879 46.0481 154.541 46.8077 154.565 47.8369V49.8217H154.541Z" fill="white"/>
<defs>
<clipPath id="clip0">
<rect width="130.667" height="28" fill="white" transform="translate(0 31)"/>
</clipPath>
</defs>
</svg>
