<svg width="140" height="28" viewBox="0 0 140 28" fill="none" xmlns="http://www.w3.org/2000/svg">
<g clip-path="url(#clip0)">
<mask id="mask0" mask-type="alpha" maskUnits="userSpaceOnUse" x="0" y="1" width="22" height="18">
<path d="M0.0839844 1.276H21.2604V18.3733H0.0839844V1.276Z" fill="white"/>
</mask>
<g mask="url(#mask0)">
<path fill-rule="evenodd" clip-rule="evenodd" d="M8.6702 18.3733H8.6618C6.363 18.3733 3.9872 18.3304 2.4206 17.8184C1.6114 17.5555 1.0486 17.2013 0.6496 16.7043C0.2128 16.158 0 15.4529 0 14.5481C0 13.858 0.1274 13.0488 0.3808 12.1376C0.4382 11.9304 1.7962 7.07277 1.8872 6.81518C2.2456 5.80308 2.6978 4.97022 3.2718 4.27151C4.263 3.0673 5.5818 2.29025 7.4214 1.82874C8.9544 1.44665 10.906 1.276 13.7466 1.276H13.7704C15.2628 1.276 16.4892 1.3565 17.5196 1.52285C18.7348 1.71819 19.663 2.03803 20.279 2.4727C20.7382 2.79791 21.035 3.19502 21.1638 3.65331C21.2282 3.88406 21.2604 4.14165 21.2604 4.42177C21.2604 5.06789 21.0882 5.7419 20.9496 6.28498C20.93 6.36333 20.9104 6.44061 20.8922 6.51466L20.8866 6.5372H15.393L15.3958 6.50715C15.3958 6.50715 15.4126 6.37943 15.4196 6.32362C15.4196 6.3204 15.4448 6.14975 15.4448 5.90504C15.4448 5.53905 15.2222 5.25249 14.7616 5.0271C14.399 4.86933 13.9356 4.81459 13.4918 4.77273C13.0172 4.7298 12.4866 4.72336 11.984 4.72336C11.06 4.72336 10.3614 4.78025 9.7888 4.90045C9.331 4.9949 8.9502 5.13336 8.6282 5.32225C8.1718 5.58735 7.8176 5.96837 7.5446 6.48568C7.2898 6.96866 7.1064 7.54179 6.9076 8.25444L6.1544 10.9698C5.9136 11.8446 5.7428 12.5078 5.7414 13.0788C5.7414 13.4083 5.8002 13.668 5.9248 13.8988C6.1208 14.2659 6.5366 14.5524 7.098 14.7048C7.6398 14.8562 8.3244 14.9238 9.3184 14.9249C9.9834 14.9249 10.528 14.9152 11.0236 14.869C11.8832 14.7896 12.4978 14.5921 12.9598 14.2476C13.461 13.873 13.7998 13.3214 14.0252 12.5089L14.1022 12.232H19.5356L19.5342 12.261C19.5314 12.2932 19.2276 13.3869 19.068 13.8247C18.9028 14.2809 18.7222 14.6705 18.5164 15.0139C17.9886 15.8972 17.2536 16.5766 16.2008 17.1519C15.183 17.6971 14.0994 18.0341 12.789 18.2102C11.662 18.3615 10.5112 18.3722 9.2302 18.3722H9.2148C9.1882 18.3722 8.736 18.3722 8.6702 18.3733Z" fill="white"/>
</g>
<path fill-rule="evenodd" clip-rule="evenodd" d="M69.5408 18.3733H69.5338C67.2336 18.3733 64.8578 18.3304 63.2926 17.8184C62.482 17.5555 61.9192 17.2013 61.5216 16.7043C61.0834 16.158 60.872 15.4529 60.8706 14.5481C60.8706 13.858 60.9994 13.0488 61.2528 12.1376C61.3088 11.9304 62.6668 7.07277 62.7578 6.81518C63.1162 5.80308 63.5684 4.97022 64.1424 4.27151C65.1336 3.0673 66.4524 2.29025 68.292 1.82874C69.8264 1.44665 71.7766 1.276 74.6158 1.276H74.6424C76.1334 1.276 77.3598 1.3565 78.3916 1.52285C79.6068 1.71819 80.535 2.03803 81.1496 2.4727C81.6102 2.79791 81.9056 3.19502 82.033 3.65331C82.0974 3.88299 82.131 4.14165 82.131 4.42177C82.131 5.06789 81.9602 5.74298 81.8216 6.28498C81.8006 6.3644 81.7824 6.44061 81.7628 6.51466L81.7572 6.5372H76.2636L76.2678 6.50715C76.2678 6.50715 76.2846 6.37943 76.2916 6.32362C76.2916 6.3204 76.3154 6.14975 76.3154 5.90504C76.3154 5.53905 76.0914 5.25249 75.6336 5.0271C75.2696 4.86933 74.8062 4.81459 74.3624 4.77273C73.8892 4.7298 73.3572 4.72336 72.8546 4.72336C71.9306 4.72336 71.232 4.78025 70.6594 4.90045C70.2016 4.9949 69.8222 5.13336 69.4988 5.32225C69.0424 5.58735 68.6896 5.96837 68.4166 6.48568C68.1604 6.96866 67.977 7.54179 67.7796 8.25444L67.0264 10.9698C66.7842 11.8446 66.6134 12.5078 66.612 13.0788C66.612 13.4083 66.6708 13.668 66.7954 13.8988C66.9914 14.2659 67.4072 14.5524 67.9686 14.7048C68.5104 14.8562 69.195 14.9238 70.189 14.9249C70.8554 14.9249 71.3986 14.9152 71.8942 14.869C72.7524 14.7896 73.3698 14.5921 73.8318 14.2476C74.3316 13.873 74.6704 13.3214 74.8972 12.5089L74.9728 12.232H80.4062L80.4048 12.261C80.402 12.2932 80.0968 13.3869 79.9386 13.8247C79.7734 14.2809 79.5928 14.6705 79.3884 15.0139C78.8606 15.8972 78.1242 16.5766 77.0714 17.1519C76.055 17.6971 74.97 18.0341 73.661 18.2102C72.5326 18.3615 71.3818 18.3722 70.1022 18.3722H70.0854C70.0588 18.3722 69.6066 18.3722 69.5408 18.3733Z" fill="white"/>
<path fill-rule="evenodd" clip-rule="evenodd" d="M57.7513 18.2337H41.9453L41.9551 18.2005L46.3749 2.25588C46.4533 1.96287 46.5961 1.7611 46.8271 1.62372C47.0623 1.48312 47.3871 1.41443 47.8183 1.41443H61.1547C61.4837 1.4155 61.7217 1.47239 61.8645 1.58401C61.9723 1.6688 62.0297 1.7933 62.0311 1.94463V1.95751C62.0297 2.01868 62.0199 2.08201 62.0003 2.14533L61.3101 4.63426H50.9851L50.0905 7.93136H59.7799L58.8979 11.0406H49.2085L48.1053 15.0204H58.6417L57.7513 18.2337Z" fill="white"/>
<path fill-rule="evenodd" clip-rule="evenodd" d="M86.0958 18.2337H80.8262L80.8346 18.2005L85.2404 2.31061C85.3454 1.96609 85.5162 1.72783 85.7598 1.58401C85.9544 1.47024 86.2036 1.4155 86.5242 1.41443H89.6434C89.9794 1.4155 90.23 1.47561 90.3882 1.59259C90.5128 1.68489 90.5786 1.81798 90.58 1.97683C90.58 2.02512 90.5744 2.07557 90.5618 2.12708L86.0958 18.2337Z" fill="white"/>
<path fill-rule="evenodd" clip-rule="evenodd" d="M100.603 18.2327H93.9625L93.9527 18.2176L89.0359 9.49405L89.0527 9.48117L97.5577 2.40077C98.0813 1.96073 98.3935 1.73748 98.6679 1.60762C98.9661 1.46702 99.2223 1.41658 99.6507 1.41443H103.937C104.138 1.4155 104.264 1.46595 104.334 1.50888C104.377 1.53678 104.405 1.56254 104.423 1.59045C104.437 1.60869 104.446 1.63338 104.45 1.65806H104.46L104.451 1.71065C104.443 1.77934 104.397 1.89204 104.22 2.04337L95.0405 9.60997L100.603 18.2327Z" fill="white"/>
<path fill-rule="evenodd" clip-rule="evenodd" d="M33.9696 18.2337H33.9262L33.936 18.2005L35.8134 11.4088H27.125L25.2322 18.2337H19.964L19.9738 18.2005C20.1516 17.5565 24.339 2.40828 24.3642 2.32457C24.5196 1.82549 24.7772 1.65377 24.9844 1.56039C25.2084 1.46058 25.522 1.41443 25.9686 1.41443H28.8176C28.966 1.4155 29.2068 1.4638 29.3902 1.56469C29.4882 1.61728 29.5652 1.6806 29.6184 1.75144C29.6786 1.83193 29.708 1.92316 29.708 2.02942C29.708 2.07557 29.701 2.12494 29.6912 2.17645C29.6688 2.27305 28.2226 7.44946 28.0784 7.96141H36.7668C37.4738 5.40487 38.3152 2.36106 38.3264 2.32457C38.4818 1.82549 38.7394 1.65377 38.9466 1.56039C39.1706 1.46058 39.4842 1.41443 39.9308 1.41443H42.7798C42.9268 1.4155 43.169 1.4638 43.3524 1.56469C43.4504 1.61728 43.5274 1.6806 43.5792 1.75144C43.6394 1.83193 43.6688 1.92316 43.6688 2.02942C43.6688 2.07557 43.6632 2.12494 43.652 2.17645C43.6296 2.27627 39.3806 17.5608 39.2014 18.2123L39.1958 18.2337H33.9696Z" fill="white"/>
<mask id="mask1" mask-type="alpha" maskUnits="userSpaceOnUse" x="101" y="1" width="39" height="27">
<path d="M101.898 1.29797H139.999V27.531H101.898V1.29797Z" fill="white"/>
</mask>
<g mask="url(#mask1)">
<path fill-rule="evenodd" clip-rule="evenodd" d="M116.143 4.70242C116.547 4.78184 116.871 4.93747 117.044 5.19613C117.159 5.36678 117.207 5.56963 117.207 5.80682C117.207 6.05153 117.156 6.33595 117.064 6.6751C116.941 7.11515 116.82 7.47684 116.638 7.78916C116.456 8.10041 116.207 8.36229 115.847 8.57802C115.123 9.0127 113.998 9.27887 112.004 9.62125C109.367 10.0709 107.545 10.4455 106.263 10.9339C104.982 11.4244 104.233 12.0114 103.671 12.9355C103.299 13.5537 103.015 14.3233 102.743 15.3032L102 18.2064H119.091L119.888 15.2645H107.996C107.996 15.2645 108.181 14.5572 108.331 14.2975C108.527 13.9626 108.78 13.7115 109.112 13.5248C109.442 13.3369 109.843 13.2156 110.33 13.1105C111.306 12.9033 112.654 12.7627 114.638 12.3742C117.083 11.8891 118.734 11.36 119.897 10.4992C121.061 9.64057 121.772 8.43313 122.297 6.54094C122.492 5.84009 122.599 5.15212 122.599 4.63051C122.599 3.88029 122.412 3.30716 122.074 2.86605C121.738 2.42386 121.25 2.10724 120.614 1.87327C119.346 1.40532 117.484 1.29692 115.273 1.29798C112.462 1.29692 110.249 1.52123 108.604 2.29506C106.96 3.06782 105.813 4.47596 105.178 6.76526L104.997 7.41244H110.194L110.391 6.69764C110.596 6.01182 110.783 5.54494 111.122 5.2133C111.46 4.87844 111.947 4.71959 112.613 4.6552C113.06 4.61012 113.6 4.60046 114.274 4.60046C114.38 4.59939 114.482 4.59831 114.58 4.59831C115.221 4.59939 115.734 4.62085 116.143 4.70242Z" fill="white"/>
<path fill-rule="evenodd" clip-rule="evenodd" d="M130.479 3.0835C129.874 3.56433 124.802 7.63312 122.725 9.30099C122.311 9.64229 121.867 10.0201 121.67 10.3303C121.512 10.5567 121.303 11.1878 121.197 11.6386C120.975 12.5766 120.81 13.4342 120.708 13.7862C120.681 13.8774 120.67 13.9601 120.67 14.0374C120.672 14.3261 120.828 14.5193 121.038 14.6566C121.25 14.7929 121.53 14.8563 121.813 14.8563C122.066 14.8563 131.88 14.8563 131.88 14.8563L130.953 18.2124L136.254 17.8292L137.077 14.8563H138.968L139.793 11.8865H137.899C137.899 11.8865 139.791 5.10448 139.85 4.85333C140.501 2.10896 139.014 1.30615 135.668 1.30615C134.813 1.30615 132.88 1.17092 130.479 3.0835ZM132.703 11.8865H125.097L134.145 4.69771H134.695L132.703 11.8865Z" fill="white"/>
<path fill-rule="evenodd" clip-rule="evenodd" d="M118.615 27.596C115.195 27.5949 111.909 26.8962 109.115 25.5718C106.371 24.2721 104.769 22.7394 104.012 21.8733L103.012 23.8481C102.921 24.0284 102.67 24.1422 102.407 24.1089C102.144 24.0735 101.954 23.9029 101.952 23.7011L101.898 19.833V19.8298C101.899 19.7214 101.956 19.6183 102.057 19.5421C102.162 19.4627 102.299 19.4198 102.445 19.4198L107.58 19.4176H107.586C107.839 19.4241 108.059 19.5668 108.108 19.7557C108.114 19.7815 108.118 19.8083 108.118 19.8351C108.118 20.0058 107.978 20.1614 107.768 20.2237L105.26 20.9685C107.458 22.469 111.986 24.8838 118.343 24.8849C118.887 24.8849 119.438 24.8667 119.984 24.8312C122.665 24.6563 125.37 24.1508 127.81 23.3716C129.944 22.6868 131.83 21.8132 133.269 20.8419L130.683 20.2569C130.452 20.2065 130.288 20.0423 130.288 19.8566C130.288 19.8437 130.29 19.8308 130.291 19.8158C130.318 19.6173 130.525 19.4595 130.787 19.4412L135.803 19.0903C135.827 19.0881 135.846 19.0881 135.862 19.0881C135.988 19.0881 136.112 19.1236 136.21 19.1847C136.324 19.2588 136.394 19.3597 136.405 19.4713C136.822 23.2503 136.822 23.2514 136.822 23.2653C136.822 23.4542 136.657 23.6184 136.417 23.6678C136.373 23.6775 136.326 23.6828 136.277 23.6828C136.066 23.6828 135.873 23.5916 135.782 23.451L134.572 21.6704C133.598 22.6772 131.905 24.1003 129.256 25.3357C126.57 26.5882 123.565 27.3298 120.334 27.5391L120.009 27.5606V27.5584C119.542 27.5831 119.073 27.596 118.615 27.596Z" fill="white"/>
</g>
</g>
<defs>
<clipPath id="clip0">
<rect width="140" height="26.8319" fill="white" transform="translate(0 0.764038)"/>
</clipPath>
</defs>
</svg>
