<svg width="311" height="90" viewBox="0 0 311 90" fill="none" xmlns="http://www.w3.org/2000/svg">
<path d="M15.2063 56.6221V67.9003H4.89305V56.6221H0V83.5447H4.89437V72.6325H15.205V83.5447H20.1007V56.6221H15.2063ZM35.7667 74.8428C35.7667 75.922 35.34 76.9569 34.5805 77.7199C33.821 78.483 32.7908 78.9116 31.7167 78.9116C30.6426 78.9116 29.6125 78.483 28.853 77.7199C28.0935 76.9569 27.6668 75.922 27.6668 74.8428V63.3105H23.0241V74.8428C23.0241 77.1567 23.939 79.3758 25.5676 81.012C27.1962 82.6481 29.405 83.5673 31.7081 83.5673C34.0113 83.5673 36.2201 82.6481 37.8487 81.012C39.4772 79.3758 40.3922 77.1567 40.3922 74.8428V63.3105H35.7667V74.8428ZM70.1677 64.4988C70.1677 62.1341 71.7241 61.3849 73.4288 61.3849C74.8038 61.3849 76.6185 62.4362 77.8066 63.711L80.8466 60.11C79.3286 58.0473 76.2502 56.6221 73.7295 56.6221C68.6921 56.6221 65.0495 59.5857 65.0495 64.4988C65.0495 73.6146 76.139 70.7215 76.139 75.8236C76.139 77.3966 74.6183 78.7859 72.8778 78.7859C70.1319 78.7859 69.2418 77.4378 67.9808 76.0113L64.6057 79.5364C66.7648 82.198 69.4272 83.55 72.6155 83.55C77.4013 83.55 81.2506 80.5505 81.2506 75.8609C81.2506 65.7418 70.1597 68.8864 70.1597 64.4988H70.1677ZM138.774 79.2437C136.03 79.2437 135.25 78.0513 135.25 76.2255V68.1411H139.515V64.0451H135.25V58.6408L130.543 60.7634V77.2302C130.543 81.4421 133.436 83.5646 137.401 83.5646C138.024 83.5753 138.647 83.5247 139.258 83.4156L140.407 79.1678C139.889 79.2037 139.294 79.2397 138.774 79.2397V79.2437ZM53.4394 63.4449C51.1399 63.4449 49.5345 64.1156 47.9821 65.6446V56.7831H43.3328V73.2087C43.3328 79.3568 47.7569 83.57 52.7294 83.57C58.245 83.57 63.097 79.2823 63.097 73.5094C63.097 67.8084 58.6318 63.4489 53.4394 63.4489V63.4449ZM53.4103 78.8684C52.7173 78.8684 52.0312 78.7313 51.391 78.4649C50.7508 78.1985 50.1692 77.808 49.6792 77.3157C49.1892 76.8235 48.8006 76.2391 48.5354 75.5959C48.2702 74.9528 48.1337 74.2635 48.1337 73.5673C48.1337 72.8712 48.2702 72.1818 48.5354 71.5387C48.8006 70.8955 49.1892 70.3111 49.6792 69.8189C50.1692 69.3266 50.7508 68.9362 51.391 68.6697C52.0312 68.4033 52.7173 68.2662 53.4103 68.2662C54.8097 68.2662 56.1518 68.8247 57.1413 69.8189C58.1309 70.813 58.6868 72.1614 58.6868 73.5673C58.6868 74.9732 58.1309 76.3216 57.1413 77.3157C56.1518 78.3099 54.8097 78.8684 53.4103 78.8684ZM103.933 73.2646C103.933 67.4811 99.0915 63.204 93.5653 63.204C88.5941 63.204 84.1686 67.4159 84.1686 73.5653V90.0002H88.818V81.1267C90.3677 82.6531 91.9758 83.3264 94.2726 83.3264C99.465 83.3264 103.932 78.9669 103.932 73.2646H103.933ZM99.53 73.206C99.53 74.6119 98.974 75.9603 97.9845 76.9544C96.995 77.9486 95.6529 78.5071 94.2534 78.5071C92.854 78.5071 91.5119 77.9486 90.5224 76.9544C89.5328 75.9603 88.9769 74.6119 88.9769 73.206C88.9769 71.8001 89.5328 70.4517 90.5224 69.4576C91.5119 68.4634 92.854 67.9049 94.2534 67.9049C95.6529 67.9049 96.995 68.4634 97.9845 69.4576C98.974 70.4517 99.53 71.8001 99.53 73.206Z" fill="#33475B"/>
<path d="M118.957 62.9776V58.284C119.575 57.9941 120.097 57.534 120.465 56.9573C120.832 56.3806 121.029 55.7109 121.032 55.0263V54.9185C121.032 52.9223 119.421 51.3041 117.434 51.3041H117.327C116.373 51.3041 115.458 51.6849 114.783 52.3628C114.108 53.0406 113.729 53.9599 113.729 54.9185V55.0263C113.732 55.7109 113.929 56.3806 114.296 56.9573C114.663 57.534 115.186 57.9941 115.804 58.284V62.9776C114.029 63.2505 112.358 63.9896 110.959 65.1201L98.1467 55.0942C98.2381 54.7628 98.2858 54.4221 98.2911 54.0801C98.2927 53.2746 98.0564 52.4867 97.6122 51.8161C97.168 51.1455 96.5359 50.6224 95.7957 50.3128C95.0555 50.0032 94.2405 49.9211 93.4539 50.0769C92.6673 50.2327 91.9443 50.6194 91.3764 51.188C90.8086 51.7566 90.4213 52.4817 90.2637 53.2715C90.106 54.0613 90.1851 54.8803 90.4908 55.6249C90.7966 56.3696 91.3152 57.0064 91.9813 57.4548C92.6473 57.9033 93.4308 58.1432 94.2325 58.1443C94.934 58.1409 95.6223 57.9528 96.2287 57.5986L108.845 67.4622C107.712 69.1825 107.121 71.2058 107.149 73.2686C107.176 75.3314 107.822 77.3379 109.002 79.0265L105.164 82.8831C104.854 82.7834 104.531 82.7305 104.205 82.7261C103.547 82.7266 102.904 82.9231 102.357 83.2908C101.81 83.6584 101.384 84.1808 101.132 84.7917C100.881 85.4027 100.815 86.0749 100.943 86.7233C101.072 87.3718 101.389 87.9674 101.854 88.435C102.32 88.9025 102.913 89.221 103.558 89.3501C104.203 89.4792 104.873 89.4132 105.481 89.1604C106.089 88.9076 106.609 88.4794 106.975 87.9299C107.341 87.3803 107.536 86.7341 107.537 86.0729C107.532 85.7458 107.48 85.4211 107.38 85.1095L111.177 81.2942C112.415 82.2517 113.854 82.9118 115.385 83.2239C116.917 83.5361 118.498 83.492 120.01 83.0951C121.521 82.6981 122.923 81.9589 124.106 80.9339C125.289 79.909 126.223 78.6255 126.836 77.1819C127.449 75.7383 127.726 74.1728 127.644 72.6054C127.562 71.038 127.124 69.5102 126.363 68.1391C125.603 66.7681 124.54 65.5901 123.256 64.6954C121.972 63.8007 120.502 63.2131 118.957 62.9776ZM117.384 78.4144C116.682 78.4338 115.984 78.3117 115.33 78.0554C114.676 77.799 114.08 77.4136 113.577 76.9219C113.074 76.4302 112.674 75.8422 112.401 75.1926C112.128 74.543 111.987 73.8451 111.987 73.1399C111.987 72.4348 112.128 71.7368 112.401 71.0872C112.674 70.4377 113.074 69.8496 113.577 69.3579C114.08 68.8662 114.676 68.4808 115.33 68.2245C115.984 67.9681 116.682 67.8461 117.384 67.8655C118.744 67.9133 120.032 68.4895 120.977 69.4726C121.923 70.4557 122.451 71.7691 122.452 73.136C122.453 74.503 121.925 75.8169 120.981 76.801C120.036 77.7851 118.749 78.3625 117.389 78.4117" fill="#FF7A59"/>
<path d="M310.722 77.4779L306.409 71.89L310.345 68.7357C310.469 68.6473 310.569 68.5298 310.637 68.3937C310.705 68.2575 310.739 68.1067 310.736 67.9545C310.74 67.831 310.719 67.7078 310.674 67.5928C310.629 67.4778 310.56 67.3733 310.473 67.2859C310.385 67.1984 310.281 67.13 310.166 67.0848C310.051 67.0395 309.928 67.0185 309.804 67.023C309.681 67.0166 309.558 67.0376 309.443 67.0844C309.329 67.1313 309.227 67.2029 309.144 67.2941L303.495 71.89V61.7962C303.492 61.6698 303.463 61.5455 303.411 61.4302C303.359 61.315 303.285 61.2112 303.193 61.1246C303.101 61.0381 302.992 60.9706 302.874 60.926C302.756 60.8814 302.63 60.8605 302.504 60.8646C302.38 60.8601 302.257 60.8812 302.142 60.9264C302.027 60.9716 301.922 61.0401 301.835 61.1275C301.747 61.2149 301.679 61.3194 301.634 61.4344C301.589 61.5495 301.568 61.6726 301.572 61.7962V78.0792C301.576 78.2056 301.605 78.3299 301.656 78.4451C301.708 78.5604 301.783 78.6642 301.875 78.7507C301.967 78.8373 302.075 78.9048 302.193 78.9494C302.312 78.994 302.438 79.0148 302.564 79.0107C302.687 79.0152 302.811 78.9942 302.926 78.949C303.041 78.9037 303.145 78.8353 303.233 78.7479C303.32 78.6605 303.388 78.556 303.434 78.4409C303.479 78.3259 303.5 78.2027 303.495 78.0792V74.1437L304.818 73.0926L309.173 78.5906C309.265 78.7163 309.381 78.8214 309.516 78.8991C309.65 78.9768 309.8 79.0253 309.954 79.0415C310.078 79.046 310.201 79.025 310.316 78.9798C310.431 78.9345 310.536 78.8661 310.623 78.7787C310.71 78.6913 310.779 78.5868 310.824 78.4717C310.869 78.3567 310.89 78.2336 310.886 78.11C310.91 78.0003 310.908 77.8867 310.882 77.7775C310.856 77.6684 310.806 77.5664 310.736 77.4792L310.722 77.4779ZM295.369 72.0404C293.928 71.5303 292.757 71.1089 292.757 70.0689C292.757 69.029 294.079 68.7468 294.8 68.7468C295.786 68.6938 296.722 69.0548 297.412 69.7387C297.496 69.8297 297.598 69.9012 297.712 69.9481C297.826 69.9949 297.949 70.016 298.073 70.0098C298.294 70.0044 298.505 69.9141 298.662 69.7574C298.819 69.6007 298.909 69.3897 298.914 69.1682C298.908 68.951 298.835 68.7411 298.705 68.5669C298.233 68.0081 297.636 67.5677 296.963 67.281C296.29 66.9942 295.56 66.8692 294.83 66.9158C292.396 66.9158 290.894 68.1775 290.894 70.0701C290.894 72.4433 292.997 73.1506 294.83 73.8258C296.212 74.2768 297.442 74.6673 297.442 75.7184C297.442 76.7694 295.879 77.3695 294.948 77.3695C293.814 77.4274 292.713 76.9998 291.913 76.1989C291.73 76.0258 291.501 75.9109 291.253 75.8687C291.031 75.874 290.82 75.9644 290.663 76.1211C290.507 76.2778 290.416 76.4888 290.411 76.7103C290.418 76.9274 290.491 77.1374 290.621 77.3116C291.168 77.9252 291.847 78.4082 292.606 78.7253C293.365 79.0424 294.185 79.1854 295.007 79.1438C297.771 79.1438 299.394 77.8217 299.394 75.7184C299.394 73.6151 297.2 72.6836 295.368 72.0527L295.369 72.0404ZM284.014 68.615C285.985 68.615 286.971 69.7264 287.048 71.89H280.65C280.859 69.7867 282.032 68.615 284.014 68.615ZM288.942 71.89C288.938 70.7715 288.615 69.6774 288.011 68.7357C287.555 68.1165 286.949 67.6235 286.25 67.303C285.551 66.9825 284.782 66.845 284.015 66.9035C280.681 66.9035 278.757 69.1263 278.757 73.0027C278.757 76.8791 280.65 79.1611 284.285 79.1611C285.753 79.2141 287.185 78.6976 288.281 77.7194C288.384 77.6432 288.468 77.5436 288.525 77.4288C288.582 77.3141 288.612 77.1873 288.611 77.059C288.606 76.8375 288.515 76.6265 288.358 76.4698C288.202 76.3131 287.991 76.2227 287.769 76.2174C287.579 76.2204 287.396 76.2957 287.259 76.4281C286.447 77.0987 285.428 77.4698 284.375 77.4792C282.211 77.4792 280.83 76.0375 280.769 73.7235H287.83C288.941 73.6028 288.941 72.553 288.941 71.8913L288.942 71.89ZM271.544 77.4163C269.321 77.4163 268.21 75.9747 268.21 73.0298C268.21 70.0849 269.321 68.6433 271.544 68.6433C272.202 68.6795 272.84 68.887 273.393 69.2453C273.946 69.6037 274.396 70.1004 274.698 70.6862V74.1116C274.669 76.1546 273.497 77.4163 271.515 77.4163H271.544ZM275.63 60.803C275.506 60.7985 275.383 60.8196 275.268 60.8648C275.153 60.91 275.049 60.9785 274.961 61.0659C274.874 61.1533 274.805 61.2578 274.76 61.3728C274.715 61.4879 274.694 61.611 274.698 61.7345V68.164C273.846 67.3187 272.695 66.8437 271.495 66.8419C268.09 66.8419 266.388 68.8749 266.388 72.9411C266.388 77.0269 268.22 79.0995 271.645 79.0995C275.071 79.0995 276.692 77.2068 276.692 74.0525V61.7949C276.664 61.5262 276.538 61.277 276.339 61.0944C276.14 60.9117 275.88 60.8081 275.61 60.803H275.63ZM259.677 66.8406C259.081 66.8147 258.486 66.9258 257.939 67.1655C257.393 67.4051 256.908 67.7669 256.523 68.2231V61.7925C256.527 61.661 256.504 61.5301 256.456 61.4079C256.408 61.2856 256.335 61.1745 256.242 61.0815C256.149 60.9886 256.038 60.9157 255.915 60.8673C255.793 60.819 255.662 60.7963 255.531 60.8006C255.402 60.7953 255.273 60.8178 255.154 60.8666C255.034 60.9155 254.927 60.9894 254.838 61.0835C254.75 61.1776 254.683 61.2896 254.642 61.412C254.6 61.5343 254.586 61.6641 254.599 61.7925V78.0755C254.595 78.2018 254.616 78.3277 254.661 78.446C254.705 78.5643 254.773 78.6726 254.859 78.7647C254.946 78.8568 255.05 78.931 255.165 78.9829C255.28 79.0349 255.405 79.0636 255.531 79.0674C255.662 79.0717 255.793 79.049 255.915 79.0006C256.038 78.9523 256.149 78.8794 256.242 78.7864C256.335 78.6935 256.408 78.5824 256.456 78.4601C256.504 78.3378 256.527 78.2069 256.523 78.0755V71.9467C256.523 69.7239 257.574 68.6125 259.677 68.6125C261.78 68.6125 262.501 69.544 262.501 71.7668V78.0755C262.497 78.2069 262.52 78.3378 262.568 78.4601C262.616 78.5824 262.689 78.6935 262.782 78.7864C262.875 78.8794 262.986 78.9523 263.109 79.0006C263.231 79.049 263.362 79.0717 263.493 79.0674C263.622 79.0727 263.751 79.0502 263.87 79.0013C263.99 78.9525 264.097 78.8785 264.186 78.7844C264.274 78.6903 264.341 78.5783 264.382 78.456C264.424 78.3337 264.438 78.2039 264.425 78.0755V71.4403C264.363 68.4055 262.802 66.8443 259.648 66.8443L259.677 66.8406ZM248.321 72.0379C246.88 71.5278 245.709 71.1064 245.709 70.0664C245.709 69.0265 247.031 68.7443 247.752 68.7443C248.738 68.6913 249.674 69.0524 250.364 69.7362C250.533 69.9018 250.759 69.9946 250.995 69.9946C251.231 69.9946 251.458 69.9018 251.626 69.7362C251.717 69.6529 251.789 69.5505 251.836 69.4363C251.882 69.3222 251.903 69.199 251.897 69.0758C251.891 68.8586 251.818 68.6487 251.688 68.4745C251.216 67.9157 250.619 67.4753 249.946 67.1886C249.273 66.9018 248.543 66.7768 247.813 66.8234C245.379 66.8234 243.877 68.0851 243.877 69.9777C243.877 72.3509 245.98 73.0581 247.813 73.7334C249.195 74.1843 250.425 74.5749 250.425 75.626C250.425 76.677 248.862 77.2771 247.931 77.2771C246.797 77.335 245.696 76.9074 244.896 76.1065C244.714 75.9334 244.484 75.8185 244.236 75.7763C244.014 75.7816 243.803 75.872 243.646 76.0287C243.49 76.1854 243.399 76.3963 243.394 76.6179C243.401 76.835 243.474 77.0449 243.604 77.2192C244.136 77.846 244.799 78.3485 245.546 78.6911C246.294 79.0336 247.107 79.2079 247.93 79.2017C250.693 79.2017 252.316 77.8796 252.316 75.7763C252.316 73.673 250.123 72.6959 248.291 72.0515L248.321 72.0379ZM237.025 68.6125C238.996 68.6125 239.982 69.7239 240.06 71.8876H233.63C233.84 69.7843 235.013 68.6125 236.994 68.6125H237.025ZM241.862 71.8876C241.858 70.769 241.535 69.6749 240.931 68.7332C240.475 68.1141 239.869 67.621 239.17 67.3005C238.471 66.98 237.702 66.8425 236.935 66.901C233.601 66.901 231.677 69.1238 231.677 73.0002C231.677 76.8766 233.57 79.1894 237.175 79.1894C238.643 79.2425 240.075 78.7259 241.171 77.7478C241.274 77.6715 241.358 77.572 241.416 77.4572C241.473 77.3424 241.502 77.2157 241.501 77.0873C241.496 76.8658 241.406 76.6548 241.249 76.4981C241.092 76.3414 240.881 76.2511 240.66 76.2458C240.469 76.2488 240.287 76.3241 240.15 76.4565C239.337 77.1271 238.319 77.4981 237.265 77.5075C235.102 77.5075 233.72 76.0659 233.66 73.7519H240.75C241.861 73.6015 241.861 72.5505 241.861 71.8888L241.862 71.8876ZM230.225 66.9035C229.592 66.8715 228.961 66.9976 228.389 67.2703C227.818 67.5431 227.323 67.954 226.95 68.4659V67.9557C226.95 67.6927 226.845 67.4404 226.659 67.2544C226.473 67.0684 226.221 66.9639 225.958 66.9639C225.695 66.9639 225.442 67.0684 225.256 67.2544C225.07 67.4404 224.966 67.6927 224.966 67.9557V78.0804C224.962 78.2119 224.984 78.3428 225.033 78.465C225.081 78.5873 225.154 78.6984 225.247 78.7914C225.34 78.8843 225.451 78.9572 225.573 79.0056C225.695 79.0539 225.826 79.0766 225.958 79.0723C226.09 79.0812 226.223 79.0617 226.348 79.015C226.472 78.9683 226.585 78.8955 226.679 78.8016C226.773 78.7077 226.846 78.5947 226.892 78.4703C226.939 78.3459 226.958 78.213 226.95 78.0804V72.4926C226.95 70.1194 228.211 68.7369 230.225 68.7369C230.348 68.7414 230.471 68.7204 230.586 68.6752C230.701 68.6299 230.806 68.5615 230.893 68.4741C230.981 68.3867 231.049 68.2822 231.094 68.1671C231.14 68.0521 231.161 67.929 231.156 67.8054C231.149 67.5637 231.047 67.3343 230.873 67.1663C230.699 66.9983 230.467 66.9049 230.225 66.9059V66.9035ZM222.713 61.4659C219.438 61.4659 218.237 63.7787 218.237 65.9424V67.2645H217.606C217.472 67.2398 217.334 67.2449 217.201 67.2795C217.069 67.3141 216.946 67.3774 216.841 67.4648C216.736 67.5522 216.652 67.6616 216.594 67.7853C216.536 67.9091 216.506 68.044 216.506 68.1806C216.506 68.3172 216.536 68.4522 216.594 68.5759C216.652 68.6996 216.736 68.809 216.841 68.8965C216.946 68.9839 217.069 69.0471 217.201 69.0817C217.334 69.1164 217.472 69.1215 217.606 69.0967H218.267V78.1692C218.262 78.3006 218.285 78.4315 218.333 78.5538C218.382 78.676 218.455 78.7871 218.547 78.8801C218.64 78.973 218.752 79.046 218.874 79.0943C218.996 79.1426 219.127 79.1653 219.258 79.1611C219.391 79.17 219.524 79.1504 219.648 79.1037C219.773 79.057 219.886 78.9843 219.98 78.8903C220.074 78.7964 220.146 78.6834 220.193 78.559C220.24 78.4347 220.259 78.3017 220.25 78.1692V69.0056H222.354C222.487 69.0286 222.624 69.0222 222.755 68.9867C222.886 68.9513 223.007 68.8877 223.111 68.8004C223.215 68.713 223.298 68.6041 223.355 68.4812C223.412 68.3583 223.442 68.2244 223.442 68.0888C223.442 67.9533 223.412 67.8193 223.355 67.6964C223.298 67.5735 223.215 67.4646 223.111 67.3773C223.007 67.2899 222.886 67.2263 222.755 67.1909C222.624 67.1554 222.487 67.149 222.354 67.1721H220.244V65.85C220.244 64.6794 220.695 63.2378 222.797 63.2378C222.914 63.2458 223.031 63.2303 223.142 63.1922C223.253 63.1541 223.354 63.0942 223.442 63.016C223.53 62.9385 223.601 62.8435 223.65 62.737C223.7 62.6305 223.726 62.5148 223.729 62.3974C223.713 62.1451 223.602 61.9082 223.417 61.7351C223.233 61.562 222.99 61.4658 222.737 61.4659H222.713Z" fill="#4D4D4D"/>
<path d="M189.93 50.0002H204.953C205.617 49.9944 206.276 50.121 206.891 50.3726C207.505 50.6241 208.064 50.9955 208.534 51.4652C209.003 51.9349 209.375 52.4934 209.626 53.1082C209.878 53.723 210.004 54.3817 209.999 55.0459V70.0685C209.997 75.3542 207.897 80.4231 204.159 84.1607C200.422 87.8983 195.353 89.9987 190.067 90H189.954C187.335 90.0029 184.74 89.4897 182.32 88.4897C179.899 87.4896 177.699 86.0224 175.845 84.1718C173.992 82.321 172.522 80.123 171.519 77.7034C170.516 75.2838 170 72.6902 170 70.0709C170 59.0258 178.909 50.1172 189.932 50.0039L189.93 50.0002Z" fill="#25C16F"/>
<path d="M189.931 58.9092C187.502 58.9092 185.173 59.8741 183.455 61.5917C181.737 63.3093 180.772 65.6388 180.772 68.0679V74.2952C180.791 75.0973 181.117 75.8616 181.685 76.4289C182.252 76.9962 183.016 77.323 183.818 77.3411H186.41V70.1946H182.91V68.1948C183.123 64.428 186.24 61.4832 190.012 61.4832C193.785 61.4832 196.913 64.4404 197.115 68.1948V70.1946H193.57V77.3411H195.911V77.4545C195.899 78.1982 195.598 78.9082 195.072 79.4341C194.547 79.96 193.837 80.2607 193.093 80.2725H190.296C190.069 80.2725 189.819 80.3858 189.819 80.6138C189.831 80.8602 190.037 81.0795 190.296 81.0906H193.114C194.076 81.0845 194.998 80.6994 195.678 80.0188C196.359 79.3383 196.744 78.417 196.75 77.4545V77.2278C197.418 77.0752 198.014 76.6993 198.44 76.1621C198.866 75.6248 199.095 74.9585 199.091 74.2731V68.1825C199.218 63.0221 195.127 58.9092 189.931 58.9092Z" fill="white"/>
<path d="M279.563 21.3111C280.764 21.3446 281.929 20.895 282.797 20.0631L284.4 21.8066C283.341 22.8954 281.873 23.7052 279.59 23.7052C275.677 23.7052 273.15 21.1111 273.15 17.5969C273.12 15.9702 273.751 14.401 274.897 13.247C276.044 12.0931 277.61 11.4528 279.236 11.4722C283.122 11.4722 285.326 14.4297 285.132 18.5292H275.945C276.272 20.2305 277.466 21.3193 279.559 21.3193L279.563 21.3111ZM282.358 16.5747C282.108 14.9823 281.161 13.8118 279.259 13.8118C277.494 13.8118 276.262 14.8108 275.945 16.5747H282.358ZM219.247 21.1846L226.318 14.0024H219.417V11.7349H229.598V14.0486L222.527 21.2281H229.692V23.4834H219.25L219.247 21.1846ZM237.628 21.3125C238.829 21.3459 239.994 20.8964 240.862 20.0644L242.468 21.8066C241.409 22.8954 239.94 23.7052 237.658 23.7052C233.745 23.7052 231.217 21.1111 231.217 17.5969C231.188 15.9702 231.818 14.401 232.965 13.247C234.112 12.0931 235.677 11.4528 237.304 11.4722C241.19 11.4722 243.393 14.4297 243.2 18.5292H234.013C234.34 20.2305 235.533 21.3193 237.627 21.3193L237.628 21.3125ZM240.426 16.5747C240.177 14.9823 239.229 13.8118 237.327 13.8118C235.562 13.8118 234.33 14.8108 234.013 16.5747H240.426ZM258.463 17.5819C258.463 13.8363 261.266 11.4776 264.356 11.4776C265.857 11.4575 267.289 12.1023 268.269 13.2388V6.31794H270.767V23.467H268.269V21.8338C267.307 23.0174 265.858 23.6995 264.333 23.6877C261.336 23.6877 258.464 21.3193 258.464 17.586L258.463 17.5819ZM268.409 17.5642C268.321 14.2705 264.326 12.7053 262.012 15.0653C259.699 17.4254 261.386 21.3914 264.684 21.3901C266.829 21.3901 268.408 19.6752 268.408 17.5792L268.409 17.5642ZM286.759 20.9818L289.021 19.8085C289.631 20.8974 290.79 21.5548 292.038 21.5235C293.454 21.5235 294.183 20.7967 294.183 19.9746C294.183 19.0219 292.817 18.8232 291.332 18.5183C289.334 18.11 287.254 17.4363 287.254 15.0204C287.254 13.1653 289.019 11.4518 291.8 11.4763C293.978 11.4763 295.619 12.3473 296.545 13.7519L294.449 14.9034C293.859 14.0309 292.861 13.5245 291.808 13.5641C290.465 13.5641 289.767 14.2215 289.767 14.9728C289.767 15.8166 290.85 16.0521 292.549 16.4291C294.481 16.8374 296.673 17.4853 296.673 19.927C296.673 21.5602 295.257 23.7283 291.913 23.7052C289.463 23.7052 287.743 22.7184 286.751 20.9831L286.759 20.9818ZM303.453 18.261L301.473 20.421V23.4697H298.975V6.32066H301.473V17.5411L306.776 11.7199H309.817L305.22 16.7557L309.934 23.4684H307.094L303.453 18.261ZM250.901 11.4967C247.931 11.4967 245.457 13.4226 245.457 16.6142V23.4697H248.002V16.9068C248.002 14.9809 249.108 13.8309 250.999 13.8309C252.889 13.8309 253.83 14.9823 253.83 16.9068V23.4452H256.361V16.5897C256.361 13.3981 253.864 11.4722 250.917 11.4722L250.901 11.4967ZM190.78 7.92396V30H172.494L190.78 7.92396ZM190.78 0C190.78 5.05023 186.688 9.14528 181.638 9.14754C176.587 9.14528 172.495 5.05023 172.496 0H190.78ZM193.792 29.9973C193.794 24.9492 197.886 20.8574 202.934 20.8552C207.982 20.8574 212.074 24.9492 212.076 29.9973H193.792ZM193.792 22.0733V0.00272208H212.077L193.792 22.0733Z" fill="#03363D"/>
<path d="M12.3423 6.0625C9.68009 6.0625 8.13646 7.27055 7.39821 8.07592C7.30872 7.36004 6.83892 6.44281 5.00447 6.44281H1V10.6039H2.63311C2.90157 10.6039 2.99105 10.6934 2.99105 10.9618V29.9998H7.73378V22.8858V22.3488C8.47203 23.02 9.88143 23.9596 12.0962 23.9596C16.7271 23.9596 19.9709 20.2907 19.9709 15.011C19.9933 9.66429 16.906 6.0625 12.3423 6.0625ZM11.3803 19.8209C8.82997 19.8209 7.66666 17.3824 7.66666 15.1005C7.66666 11.5211 9.61297 10.2459 11.4474 10.2459C13.6846 10.2459 15.2058 12.1699 15.2058 15.0558C15.1834 18.3667 13.2595 19.8209 11.3803 19.8209Z" fill="#203232"/>
<path d="M26.3685 19.0823V8.99281C26.3685 7.29258 25.5407 6.46484 23.8629 6.46484H19.6123V10.6259H21.2454C21.5139 10.6259 21.6034 10.7154 21.6034 10.9839V21.0286C21.6034 22.7512 22.4087 23.5566 24.1089 23.5566H28.3595V19.4179H26.7264C26.4803 19.4402 26.3685 19.3284 26.3685 19.0823Z" fill="#203232"/>
<path d="M38.7632 6.0625C36.101 6.0625 34.5574 7.27055 33.7967 8.07592C33.7073 7.36004 33.2375 6.44281 31.403 6.44281H27.4209V10.6039H29.054C29.3225 10.6039 29.412 10.6934 29.412 10.9618V29.9998H34.1994V22.8858V22.3488C34.9377 23.02 36.3694 23.9596 38.5618 23.9596C43.1927 23.9596 46.4366 20.2907 46.4366 15.011C46.4366 9.66429 43.3493 6.0625 38.7632 6.0625ZM37.8012 19.8209C35.2509 19.8209 34.0876 17.3824 34.0876 15.1005C34.0876 11.5211 36.0339 10.2459 37.8683 10.2459C40.1055 10.2459 41.6267 12.1699 41.6267 15.0558C41.6267 18.3667 39.7028 19.8209 37.8012 19.8209Z" fill="#203232"/>
<path d="M55.3627 6.0625C50.2397 6.0625 46.6826 9.75377 46.6826 15.011C46.6826 20.2012 50.5305 23.9596 55.8549 23.9596C60.0383 23.9596 62.5887 21.4764 62.7005 21.3869L62.9018 21.2079L60.8437 17.7851L60.5305 18.0759C60.5081 18.0983 58.6289 19.8209 56.1457 19.8209C53.7743 19.8209 52.0294 18.3667 51.6043 16.0849H62.8571L62.8795 15.7717C62.8795 15.7269 62.9913 14.7202 62.9913 14.228C62.9913 9.35109 59.9265 6.0625 55.3627 6.0625ZM51.7833 12.5502C52.2978 10.8723 53.5954 9.91037 55.3627 9.91037C56.7945 9.91037 57.8907 11.0066 58.092 12.5502H51.7833Z" fill="#203232"/>
<path d="M80.2618 19.0828V2.55042C80.2618 0.850201 79.4341 0.0224609 77.7339 0.0224609H73.4833V4.18353H75.1164C75.3849 4.18353 75.4743 4.27302 75.4743 4.54147V7.53923C74.7808 6.91284 73.4162 6.0851 71.0448 6.0851C66.4363 6.0851 63.2148 9.77637 63.2148 15.0336C63.2148 20.3804 66.3021 23.9822 70.8658 23.9822C73.4833 23.9822 75.0045 22.7741 75.7428 21.924C75.8323 22.6623 76.3245 23.6019 78.0918 23.6019H82.2081V19.4632H80.6198C80.3513 19.4408 80.2618 19.3289 80.2618 19.0828ZM71.7831 19.8211C69.5236 19.8211 68.0694 17.9419 68.0694 15.0113C68.0694 12.1701 69.5907 10.2685 71.8502 10.2685C74.4229 10.2685 75.5638 12.6399 75.5638 14.9889C75.5638 18.5683 73.6175 19.8211 71.7831 19.8211Z" fill="#203232"/>
<path d="M92.789 6.21875C90.8203 6.21875 88.9859 7.35969 87.9121 9.17177V8.79146C87.9121 7.24783 87.0619 6.44246 85.3841 6.44246H81.3125V10.6035H82.9456C83.2141 10.6035 83.3036 10.693 83.3036 10.9615V23.5565H88.0463V16.7109C88.0463 15.8161 88.1581 14.9436 88.3819 14.1382C89.0977 11.7668 90.9993 10.9391 92.5206 10.9391C93.0575 10.9391 93.4601 11.0062 93.4601 11.0062L93.8628 11.0733V6.35298L93.572 6.30824C93.572 6.28586 93.1693 6.21875 92.789 6.21875Z" fill="#203232"/>
<path d="M100.619 19.0823V8.99281C100.619 7.29258 99.7914 6.46484 98.1135 6.46484H94.2656V10.6259H95.496C95.7645 10.6259 95.854 10.7154 95.854 10.9839V21.0286C95.854 22.7512 96.6594 23.5566 98.3596 23.5566H102.61V19.4179H100.977C100.731 19.4402 100.619 19.3284 100.619 19.0823Z" fill="#203232"/>
<path d="M118.539 6.46484H116.011C114.535 6.46484 113.729 6.97939 113.26 8.23218L110.172 16.8675C110.061 17.1807 109.971 17.5387 109.882 17.8966C109.792 17.561 109.68 17.1807 109.568 16.8675L106.481 8.23218C106.011 6.95701 105.251 6.46484 103.729 6.46484H101.045V10.6259H101.738C102.119 10.6259 102.231 10.7601 102.32 10.9839L107.108 23.5789H112.454L117.242 10.9839C117.331 10.7601 117.443 10.6259 117.823 10.6259H118.562V6.46484H118.539Z" fill="#203232"/>
<path d="M126.727 6.0625C121.604 6.0625 118.047 9.75377 118.047 15.011C118.047 20.2012 121.895 23.9596 127.219 23.9596C131.403 23.9596 133.953 21.4764 134.065 21.3869L134.266 21.2079L132.208 17.7851L131.895 18.0759C131.872 18.0983 129.993 19.8209 127.532 19.8209C125.161 19.8209 123.416 18.3667 122.991 16.0849H134.244L134.266 15.7717C134.266 15.7269 134.356 14.7202 134.356 14.228C134.356 9.35109 131.291 6.0625 126.727 6.0625ZM123.148 12.5502C123.662 10.8723 124.96 9.91037 126.727 9.91037C128.159 9.91037 129.255 11.0066 129.456 12.5502H123.148Z" fill="#203232"/>
<path d="M26.0329 0H21.8047V4.4519H26.0329V0Z" fill="#203232"/>
<path d="M100.306 0H96.0781V4.4519H100.306V0Z" fill="#203232"/>
<path d="M134.266 6.46518H134.892V8.16541H135.362V6.46518H135.988V6.0625H134.266V6.46518Z" fill="#203232"/>
<path d="M137.846 6.0625L137.376 7.51664L136.884 6.0625H136.235V8.16541H136.66V6.6889H136.683L137.197 8.16541H137.555L138.07 6.6889V8.16541H138.495V6.0625H137.846Z" fill="#203232"/>
</svg>
