<?xml version="1.0" encoding="UTF-8" standalone="no"?>
<svg
   version="1.1"
   id="Layer_1"
   x="0px"
   y="0px"
   viewBox="0 0 414.95618 415.4"
   xml:space="preserve"
   width="77.044823"
   height="77.044823"
   sodipodi:docname="deutsche-cloud-no-text.svg"
   inkscape:version="1.1 (c68e22c387, 2021-05-23)"
   xmlns:inkscape="http://www.inkscape.org/namespaces/inkscape"
   xmlns:sodipodi="http://sodipodi.sourceforge.net/DTD/sodipodi-0.dtd"
   xmlns="http://www.w3.org/2000/svg"
   xmlns:svg="http://www.w3.org/2000/svg"><defs
   id="defs49" /><sodipodi:namedview
   id="namedview47"
   pagecolor="#ffffff"
   bordercolor="#666666"
   borderopacity="1.0"
   inkscape:pageshadow="2"
   inkscape:pageopacity="0.0"
   inkscape:pagecheckerboard="0"
   showgrid="false"
   inkscape:zoom="7.5771812"
   inkscape:cx="38.470771"
   inkscape:cy="30.024358"
   inkscape:window-width="1920"
   inkscape:window-height="1009"
   inkscape:window-x="-8"
   inkscape:window-y="-8"
   inkscape:window-maximized="1"
   inkscape:current-layer="g44" />
<style
   type="text/css"
   id="style2">
	.st0{fill:#1F1F1F;}
	.st1{fill:#EDC124;}
	.st2{fill:#CA2221;}
</style>
<g
   id="g44"
   transform="translate(-194.02917)">
	
	<g
   id="g42"
   transform="translate(0,90.95)">
		<path
   class="st0"
   d="m 390.5,142.8 2.4,-1 c 31.6,-13.5 50.4,-32.3 67,-48.9 1.6,-1.6 3.2,-3.2 4.8,-4.7 L 465,87.9 C 493.7,62.7 497.5,61.1 497.5,61.1 479.3,22.7 442.1,0 396.8,0 366.7,0 339.3,11.8 319,30.9 346.2,38.4 368.8,56.8 382.1,81 365.2,54.4 335.5,36.7 301.7,36.7 c -52.6,0 -95.2,42.6 -95.2,95.2 0,7.1 0.8,14.1 2.3,20.8 0.9,0.1 1.8,0.3 2.7,0.4 76.1,11.4 134.7,8 179,-10.3 z"
   id="path32" />
		<g
   id="g38">
			<g
   id="g36">
				<path
   class="st1"
   d="m 505,154.3 c -0.2,0 -0.4,0 -0.6,0.1 -14.9,1.6 -32.6,6 -55,11.1 -10.1,2.2 -21,4.8 -33.1,7.6 -9.6,2.3 -19.1,4.1 -28.3,5.5 -0.7,0.1 -1.5,0.2 -2.2,0.3 -29.5,4.6 -57,5.6 -81.4,4.6 -41.3,-1.6 -73.9,-9 -92.8,-14.4 0.9,2.6 1.9,5.1 3,7.5 14.7,33.5 48.2,56.9 87.1,56.9 16.6,0 32.3,-4.3 45.8,-11.8 6.3,-3.4 12.1,-7.6 17.4,-12.3 -4.8,4.9 -10.1,9.3 -15.7,13.1 -0.1,0.1 -0.3,0.2 -0.4,0.3 13,6.1 27.4,9.8 42.6,10.5 0.8,0 1.5,0.1 2.3,0.1 1.1,0 2.1,0 3.2,0 5.3,0 10.4,-0.4 15.5,-1.1 0,0 0,0.1 0,0.1 0.9,-0.1 1.8,-0.3 2.7,-0.4 0,0 0,-0.1 -0.1,-0.2 1,-0.2 2,-0.3 3,-0.5 0,0 0.1,0.1 0.1,0.1 13.4,-2.5 26,-7.4 37.3,-14.2 0,-0.1 0,-0.1 -0.1,-0.2 5,-3 9.7,-6.3 14.1,-10 0,0 0,0 0.1,0.1 14.7,16.1 35.8,26.2 59.3,26.2 57.3,-1 76.9,-57.2 76.9,-57.2 0.5,-1.8 -44,-27.7 -100.7,-21.8 z"
   id="path34" />
			</g>
		</g>
		<path
   class="st2"
   d="m 608.6,138.6 c 0,-0.1 0,-0.2 0,-0.3 0,-0.2 0,-0.4 -0.1,-0.6 0,-0.1 0,-0.2 0,-0.3 -0.1,-0.5 -0.2,-1.3 -0.3,-2.1 -4.7,-32.4 -28.6,-58.5 -59.9,-66.3 0,0 -0.1,0 -0.2,-0.1 -1.2,-0.3 -7.5,-2.1 -16.9,-2.3 -0.4,0 -0.9,0 -1.4,0 -0.3,0 -0.7,0 -1,0 -9.3,0 -18.3,1.6 -26.6,4.5 -0.1,-0.1 -2.1,0.8 -4.3,1.8 -2.5,1.2 -5.2,2.5 -5.4,2.6 -17.3,9 -29.6,24.5 -44,37.3 -15.9,14.1 -33.3,26.7 -52.9,35.1 -0.8,0.3 -1.6,0.7 -2.5,1 -24.4,10.1 -55.8,17 -98.1,17.3 -24.3,0.2 -52.2,-1.8 -84.4,-6.6 -5.5,-0.8 -11.2,-1.7 -17,-2.7 0.8,0.3 7.1,2.8 18,5.8 18.2,5.2 49.3,12.2 88.7,14.2 25.4,1.3 54.3,0.4 85.5,-4.5 0.7,-0.1 1.5,-0.2 2.2,-0.3 9.3,-1.5 18.7,-3.3 28.3,-5.5 12.1,-2.8 23.1,-5.3 33.1,-7.6 22.7,-5.1 40.8,-8.7 55.7,-11.2 0.4,-0.1 0.8,-0.1 1.2,-0.2 41.5,-6.7 57.9,-0.7 101,15.9 0,0 0,0 0,-0.1 0,-0.1 0,-0.2 0,-0.3 0.3,-1.8 1.5,-9.3 1.7,-16.3 v -0.5 c 0,-2.6 -0.2,-5.1 -0.4,-7.7 z M 506.4,97.2 c -25.9,5.6 -47.7,18.3 -55,22.9 -6.8,4.7 -11.2,7.7 -13.9,9.4 4.2,-2.9 11.2,-7.7 11.2,-7.7 0,0 0.9,-0.7 2.7,-1.8 5.4,-3.7 12.3,-8.4 21,-14.4 11.5,-7.9 22.2,-12.9 32.1,-15.9 48,-14.6 75,20.4 75.7,21.4 C 557.2,93 530,92.2 506.4,97.2 Z m 82.4,28.3 c 0.9,0.5 15.8,9.3 16.3,30.6 0,-0.1 -6.3,-22.6 -16.3,-30.6 z"
   id="path40" />
	</g>
</g>
</svg>
