<?xml version="1.0" encoding="UTF-8" standalone="no"?>
<svg
   width="675.03638"
   height="28.000799"
   viewBox="0 0 675.03638 28.000799"
   fill="none"
   version="1.1"
   id="svg110"
   sodipodi:docname="Enterprise-Kombi.svg"
   inkscape:version="1.1 (c68e22c387, 2021-05-23)"
   xmlns:inkscape="http://www.inkscape.org/namespaces/inkscape"
   xmlns:sodipodi="http://sodipodi.sourceforge.net/DTD/sodipodi-0.dtd"
   xmlns="http://www.w3.org/2000/svg"
   xmlns:svg="http://www.w3.org/2000/svg">
  <sodipodi:namedview
     id="namedview112"
     pagecolor="#ffffff"
     bordercolor="#666666"
     borderopacity="1.0"
     inkscape:pageshadow="2"
     inkscape:pageopacity="0.0"
     inkscape:pagecheckerboard="0"
     showgrid="false"
     inkscape:zoom="1.3903941"
     inkscape:cx="411.75376"
     inkscape:cy="44.232064"
     inkscape:window-width="1920"
     inkscape:window-height="1017"
     inkscape:window-x="-8"
     inkscape:window-y="-8"
     inkscape:window-maximized="1"
     inkscape:current-layer="svg110" />
  <g
     clip-path="url(#clip0)"
     id="g8"
     transform="translate(-0.0664062)">
    <path
       d="m 227.832,13.7617 c 1.198,-0.076 2.643,0.6479 3.134,1.9079 l -6.52,1.7426 c -0.085,-2.3512 1.675,-3.5399 3.386,-3.6505 z m 7.181,3.0074 c -0.002,-0.0119 0.001,-0.0203 -0.001,-0.032 -0.005,-0.0214 -0.012,-0.0488 -0.017,-0.0714 -0.134,-0.6716 -0.34,-1.3218 -0.554,-1.7901 l -0.002,9e-4 c -0.057,-0.145 -0.113,-0.2876 -0.167,-0.4065 -1.027,-2.2597 -3.058,-3.8561 -6.212,-3.8561 -4.504,0 -7.481,3.6089 -7.481,7.736 0,4.6513 3.061,7.7407 7.886,7.7407 2.065,0 3.556,-0.5017 4.985,-1.1685 0.13,-0.0595 0.23,-0.1736 0.272,-0.3091 l 0.733,-3.503 c 0.057,-0.1926 -0.054,-0.3317 -0.176,-0.2687 -1.307,0.8321 -2.986,1.827 -5.037,1.8116 -2.074,-0.0154 -3.768,-0.8666 -4.3,-2.3274 l 9.765,-2.5985 c 0.286,-0.101 0.416,-0.2615 0.381,-0.5254 -0.019,-0.145 -0.049,-0.2889 -0.075,-0.4327 z m 43.651,9.3217 c -2.508,0 -4.441,-0.8214 -6.084,-1.7569 -0.138,-0.0772 -0.282,-0.2318 -0.254,-0.3744 l 0.646,-3.1132 c 0.011,-0.0701 0.062,-0.1248 0.131,-0.0808 1.87,1.2267 3.524,2.0897 5.817,2.0897 1.271,0 2.051,-0.4885 2.051,-1.1851 0,-0.7786 -0.577,-1.1233 -3.233,-1.8175 -3.002,-0.7798 -5.141,-1.789 -5.141,-4.5622 0,-2.6567 2.31,-4.5895 6.209,-4.5895 2.015,0 3.631,0.5005 4.893,1.1269 0.174,0.0856 0.301,0.2853 0.278,0.4576 l -0.603,2.9004 c -0.019,0.0915 -0.099,0.1462 -0.179,0.0987 -1.48,-0.907 -3.321,-1.3789 -4.56,-1.3789 -1.3,0 -1.994,0.4636 -1.994,1.0984 0,0.7476 0.663,1.065 3.146,1.701 3.352,0.8368 5.23,1.8757 5.23,4.7357 0,2.7149 -2.454,4.6501 -6.353,4.6501 z m -20.16,-7.618 c 0,2.3215 1.59,4.0606 3.728,4.0606 2.223,0 3.756,-1.8282 3.756,-4.1188 0,-2.3203 -1.59,-4.032 -3.727,-4.032 -2.223,0 -3.757,1.7961 -3.757,4.0902 z m 3.723,-7.8583 c 5.025,0 7.97,3.7229 7.97,7.7359 0,4.0724 -3.12,7.8251 -7.998,7.8251 -4.996,0 -7.969,-3.7527 -7.969,-7.7657 0,-4.0415 3.118,-7.7953 7.997,-7.7953 z m -15.317,0.4038 h 4.069 c 0.08,0 0.145,0.0642 0.145,0.1438 v 14.4651 c 0,0.0784 -0.065,0.145 -0.145,0.145 h -4.069 c -0.081,0 -0.147,-0.0666 -0.147,-0.145 V 11.1621 c 0,-0.0796 0.066,-0.1438 0.147,-0.1438 z m 2.049,-2.05171 c -1.431,0 -2.53,-1.04485 -2.53,-2.39281 0,-1.37412 1.099,-2.38925 2.53,-2.38925 1.429,0 2.526,1.01513 2.526,2.38925 0,1.34796 -1.097,2.39281 -2.526,2.39281 z m -10.75,-3.95723 4.071,-1.07457 c 0.093,-0.02501 0.183,0.04517 0.183,0.13908 V 25.627 c 0,0.0796 -0.065,0.1451 -0.145,0.1451 h -4.072 c -0.08,0 -0.145,-0.0655 -0.145,-0.1451 V 5.15081 c 0,-0.06656 0.045,-0.12481 0.108,-0.14145 z M 213.374,17.6597 h -9.529 v 7.9689 c 0,0.0797 -0.065,0.145 -0.145,0.145 h -4.391 c -0.08,0 -0.145,-0.0653 -0.145,-0.145 V 5.70271 c 0,-0.07845 0.065,-0.14383 0.145,-0.14383 h 4.391 c 0.08,0 0.145,0.06533 0.145,0.14383 v 7.68249 h 9.529 V 5.70271 c 0,-0.07845 0.065,-0.14383 0.145,-0.14383 h 4.362 c 0.08,0 0.145,0.06533 0.145,0.14383 V 25.6286 c 0,0.0797 -0.065,0.145 -0.145,0.145 h -4.362 c -0.08,0 -0.145,-0.0653 -0.145,-0.145 z"
       fill="#000000"
       id="path2" />
    <path
       d="m 190.49,10.8292 c -0.312,-1.53692 -0.727,-2.52233 -1.893,-2.35829 -0.858,0.12243 -1.228,0.91171 -1.141,1.83529 0.253,2.6199 0.407,5.0876 -0.257,7.7027 -0.291,1.1459 -0.937,4.3506 -2.986,3.7206 -1.487,-0.4565 -1.176,-2.4368 -1.091,-3.4662 0.308,-2.1587 -0.406,-2.6353 -1.059,-2.7447 -0.905,-0.1522 -1.592,0.2936 -1.888,2.0517 -0.12,0.5681 -1.108,5.2884 -1.155,5.7734 -0.137,1.3991 0.362,2.9075 0.463,3.2593 0.035,0.126 0.119,0.2093 0.245,0.239 3.099,0.6561 6.338,0.4303 8.677,-0.9391 0.129,-0.0761 0.198,-0.1652 0.258,-0.2449 1.294,-1.8638 1.881,-4.7048 2.196,-6.9169 0.372,-2.621 0.241,-5.3336 -0.369,-7.9119 z"
       fill="#000000"
       id="path4" />
    <path
       d="m 173.849,17.1689 c 0.313,1.537 0.729,2.5236 1.895,2.3583 0.857,-0.1212 1.225,-0.9117 1.141,-1.8341 -0.254,-2.6199 -0.409,-5.0876 0.255,-7.70265 0.292,-1.14589 0.937,-4.34939 2.988,-3.72058 1.485,0.45527 1.175,2.43799 1.09,3.4662 -0.309,2.15743 0.405,2.63653 1.059,2.74463 0.906,0.1534 1.591,-0.2924 1.886,-2.0528 0.121,-0.56702 1.109,-5.28846 1.157,-5.77344 0.136,-1.39789 -0.362,-2.90752 -0.463,-3.25818 -0.034,-0.126 -0.12,-0.20921 -0.244,-0.23892 -3.099,-0.656154 -6.34,-0.430305 -8.678,0.93906 -0.129,0.07369 -0.197,0.16522 -0.259,0.24486 -1.293,1.86386 -1.88,4.7048 -2.194,6.91813 -0.374,2.61869 -0.242,5.33239 0.367,7.90949 z"
       fill="#000000"
       id="path6" />
  </g>
  <g
     clip-path="url(#clip1)"
     id="g38"
     transform="translate(-0.0664062)">
    <mask
       id="mask0"
       maskUnits="userSpaceOnUse"
       x="0"
       y="0"
       width="18"
       height="19">
      <path
         d="M 0.0664062,0.536133 H 17.0805 V 18.3777 H 0.0664062 Z"
         fill="#ffffff"
         id="path10" />
    </mask>
    <g
       mask="url(#mask0)"
       id="g15">
      <path
         fill-rule="evenodd"
         clip-rule="evenodd"
         d="M 6.96603,18.3777 H 6.95928 c -1.84696,0 -3.75578,-0.0448 -5.01446,-0.579 C 1.29467,17.5243 0.842492,17.1547 0.521918,16.6361 0.170973,16.0661 0,15.3302 0,14.3861 0,13.6659 0.102359,12.8214 0.305952,11.8705 0.35207,11.6544 1.44315,6.58525 1.51626,6.31645 1.80422,5.26029 2.16753,4.39117 2.62871,3.66205 3.42509,2.40541 4.48467,1.59453 5.96269,1.11293 7.19437,0.714213 8.76237,0.536133 11.0446,0.536133 h 0.0192 c 1.199,0 2.1844,0.084 3.0122,0.2576 0.9764,0.20384 1.7221,0.537597 2.2171,0.991197 0.3689,0.33936 0.6074,0.75376 0.7108,1.232 0.0518,0.2408 0.0777,0.5096 0.0777,0.80192 0,0.67424 -0.1384,1.3776 -0.2498,1.94432 -0.0157,0.08176 -0.0314,0.1624 -0.0461,0.23968 l -0.0045,0.02352 h -4.4138 l 0.0023,-0.03136 c 0,0 0.0135,-0.13328 0.0191,-0.19152 0,-0.00336 0.0202,-0.18144 0.0202,-0.4368 0,-0.38192 -0.1788,-0.68096 -0.5489,-0.91616 C 11.5688,4.28589 11.1965,4.22877 10.8399,4.18509 10.4586,4.14029 10.0323,4.13357 9.62848,4.13357 8.8861,4.13357 8.32481,4.19293 7.86476,4.31837 7.49694,4.41693 7.19099,4.56141 6.93228,4.75853 6.56559,5.03517 6.28101,5.43277 6.06167,5.97261 5.85695,6.47661 5.7096,7.07469 5.54988,7.81837 L 4.94472,10.652 c -0.19347,0.9128 -0.3307,1.6049 -0.33182,2.2008 0,0.3438 0.04724,0.6149 0.14735,0.8557 0.15748,0.383 0.49155,0.682 0.9426,0.8411 0.43531,0.1579 0.98535,0.2285 1.78397,0.2296 0.53429,0 0.97185,-0.0101 1.37003,-0.0583 0.69065,-0.0828 1.18445,-0.2889 1.55565,-0.6484 0.4027,-0.3909 0.6749,-0.9666 0.856,-1.8144 l 0.0618,-0.289 h 4.3655 l -0.0011,0.0302 c -0.0023,0.0336 -0.2464,1.1749 -0.3746,1.6319 -0.1327,0.476 -0.2778,0.8825 -0.4432,1.2409 -0.4241,0.9218 -1.0146,1.6308 -1.8605,2.2311 -0.8177,0.5689 -1.6883,0.9206 -2.7411,1.1043 -0.90553,0.1579 -1.83013,0.1691 -2.85934,0.1691 H 7.40358 c -0.02137,0 -0.38469,0 -0.43755,0.0011 z"
         fill="#000000"
         id="path13" />
    </g>
    <path
       fill-rule="evenodd"
       clip-rule="evenodd"
       d="m 55.8723,18.3777 h -0.0056 c -1.8481,0 -3.757,-0.0448 -5.0145,-0.579 -0.6513,-0.2744 -1.1035,-0.644 -1.4229,-1.1626 -0.3521,-0.57 -0.5219,-1.3059 -0.5231,-2.25 0,-0.7202 0.1035,-1.5647 0.3071,-2.5156 0.045,-0.2161 1.1361,-5.28525 1.2092,-5.55405 0.288,-1.05616 0.6513,-1.92528 1.1125,-2.6544 0.7963,-1.25664 1.8559,-2.06752 3.3339,-2.54912 1.2328,-0.398717 2.7997,-0.576797 5.0809,-0.576797 h 0.0213 c 1.198,0 2.1833,0.084 3.0123,0.2576 0.9764,0.20384 1.7221,0.537597 2.2159,0.991197 0.3701,0.33936 0.6074,0.75376 0.7098,1.232 0.0517,0.23968 0.0787,0.5096 0.0787,0.80192 0,0.67424 -0.1372,1.37872 -0.2486,1.94432 -0.0168,0.08288 -0.0315,0.1624 -0.0472,0.23968 l -0.0045,0.02352 h -4.4138 l 0.0034,-0.03136 c 0,0 0.0135,-0.13328 0.0191,-0.19152 0,-0.00336 0.0191,-0.18144 0.0191,-0.4368 0,-0.38192 -0.18,-0.68096 -0.5478,-0.91616 C 60.4751,4.28589 60.1027,4.22877 59.7462,4.18509 59.366,4.14029 58.9385,4.13357 58.5347,4.13357 c -0.7423,0 -1.3036,0.05936 -1.7637,0.1848 -0.3678,0.09856 -0.6726,0.24304 -0.9325,0.44016 -0.3667,0.27664 -0.6501,0.67424 -0.8695,1.21408 -0.2058,0.504 -0.3531,1.10208 -0.5117,1.84576 L 53.8521,10.652 c -0.1946,0.9128 -0.3318,1.6049 -0.3329,2.2008 0,0.3438 0.0472,0.6149 0.1473,0.8557 0.1575,0.383 0.4915,0.682 0.9426,0.8411 0.4353,0.1579 0.9853,0.2285 1.784,0.2296 0.5354,0 0.9718,-0.0101 1.37,-0.0583 0.6895,-0.0828 1.1856,-0.2889 1.5568,-0.6484 0.4015,-0.3909 0.6737,-0.9666 0.856,-1.8144 l 0.0607,-0.289 h 4.3654 l -0.0011,0.0302 c -0.0022,0.0336 -0.2475,1.1749 -0.3746,1.6319 -0.1327,0.476 -0.2778,0.8825 -0.442,1.2409 -0.4241,0.9218 -1.0157,1.6308 -1.8616,2.2311 -0.8166,0.5689 -1.6884,0.9206 -2.7401,1.1043 -0.9066,0.1579 -1.8312,0.1691 -2.8593,0.1691 h -0.0135 c -0.0213,0 -0.3847,0 -0.4375,0.0011 z"
       fill="#000000"
       id="path17" />
    <path
       fill-rule="evenodd"
       clip-rule="evenodd"
       d="M 46.3985,18.2302 H 33.6992 l 0.0079,-0.0347 3.5511,-16.63871 c 0.0629,-0.30576 0.1777,-0.51632 0.3633,-0.659679 0.1889,-0.14672 0.4499,-0.2184 0.7963,-0.2184 h 10.7151 c 0.2643,0.00112 0.4556,0.06048 0.5703,0.17696 0.0866,0.08848 0.1327,0.218399 0.1338,0.376319 v 0.01344 c -0.0011,0.06384 -0.009,0.12992 -0.0247,0.196 l -0.5545,2.59728 h -8.2956 l -0.7188,3.44064 h 7.7849 L 47.3197,10.724 h -7.7849 l -0.8864,4.1529 h 8.4655 z"
       fill="#000000"
       id="path19" />
    <path
       fill-rule="evenodd"
       clip-rule="evenodd"
       d="m 69.1713,18.2302 h -4.2338 l 0.0067,-0.0347 3.5399,-16.58159 c 0.0843,-0.35952 0.2216,-0.60816 0.4173,-0.758239 0.1563,-0.11872 0.3565,-0.17584 0.6141,-0.17696 h 2.5061 c 0.27,0.00112 0.4713,0.06384 0.5984,0.18592 0.1001,0.09632 0.153,0.235199 0.1541,0.400959 0,0.0504 -0.0045,0.10304 -0.0146,0.1568 z"
       fill="#000000"
       id="path21" />
    <path
       fill-rule="evenodd"
       clip-rule="evenodd"
       d="m 80.8284,18.2291 h -5.335 L 75.4855,18.2134 71.5352,9.11007 71.5487,9.09663 78.382,1.70799 c 0.4206,-0.4592 0.6715,-0.69216 0.8919,-0.827679 0.2396,-0.14672 0.4455,-0.19936 0.7897,-0.2016 h 3.4442 c 0.1608,0.00112 0.2621,0.05376 0.3183,0.09856 0.0349,0.02912 0.0574,0.056 0.072,0.08512 0.0112,0.01904 0.018,0.0448 0.0214,0.07056 h 0.0078 l -0.0067,0.05488 C 83.9138,1.05951 83.8767,1.17711 83.735,1.33503 l -7.3755,7.896 z"
       fill="#000000"
       id="path23" />
    <path
       fill-rule="evenodd"
       clip-rule="evenodd"
       d="m 27.2918,18.2302 h -0.0349 l 0.0079,-0.0347 1.5084,-7.0873 h -6.9807 l -1.5207,7.122 h -4.2327 l 0.0078,-0.0347 c 0.1429,-0.672 3.5072,-16.47967 3.5275,-16.56703 0.1248,-0.5208 0.3318,-0.699999 0.4983,-0.797439 0.1799,-0.10416 0.4319,-0.15232 0.7907,-0.15232 h 2.289 c 0.1193,0.00112 0.3127,0.05152 0.4601,0.1568 0.0787,0.05488 0.1406,0.12096 0.1833,0.194879 0.0484,0.084 0.072,0.1792 0.072,0.29008 0,0.04816 -0.0056,0.09968 -0.0135,0.15344 -0.018,0.1008 -1.1799,5.50256 -1.2958,6.0368 h 6.9807 c 0.568,-2.66784 1.244,-5.84416 1.253,-5.88224 0.1249,-0.5208 0.3319,-0.699999 0.4983,-0.797439 0.18,-0.10416 0.432,-0.15232 0.7908,-0.15232 h 2.289 c 0.1181,0.00112 0.3127,0.05152 0.4601,0.1568 0.0787,0.05488 0.1406,0.12096 0.1822,0.194879 0.0483,0.084 0.072,0.1792 0.072,0.29008 0,0.04816 -0.0045,0.09968 -0.0135,0.15344 -0.018,0.10416 -3.4319,16.05409 -3.5758,16.73389 l -0.0045,0.0224 z"
       fill="#000000"
       id="path25" />
    <mask
       id="mask1"
       maskUnits="userSpaceOnUse"
       x="81"
       y="0"
       width="32"
       height="28">
      <path
         d="M 81.8672,0.55957 H 112.479 V 27.9346 H 81.8672 Z"
         fill="#ffffff"
         id="path27" />
    </mask>
    <g
       mask="url(#mask1)"
       id="g36">
      <path
         fill-rule="evenodd"
         clip-rule="evenodd"
         d="m 93.3122,4.11223 c 0.3251,0.08288 0.5849,0.24528 0.7244,0.5152 0.0922,0.17808 0.1304,0.38976 0.1304,0.63728 0,0.25536 -0.0405,0.55216 -0.1147,0.90608 -0.099,0.4592 -0.1957,0.83664 -0.3419,1.16256 -0.1463,0.3248 -0.3465,0.59808 -0.6356,0.8232 -0.5815,0.4536 -1.4858,0.73136 -3.0876,1.08864 -2.1192,0.46928 -3.5826,0.86011 -4.6129,1.36971 -1.0292,0.5119 -1.631,1.1245 -2.082,2.0888 -0.2992,0.6452 -0.5276,1.4482 -0.7458,2.4708 l -0.5973,3.0296 h 13.7319 l 0.64,-3.07 h -9.5543 c 0,0 0.1485,-0.738 0.2689,-1.0091 0.1574,-0.3494 0.361,-0.6115 0.6276,-0.8064 0.2655,-0.196 0.5872,-0.3225 0.9786,-0.4323 0.784,-0.2162 1.8672,-0.3629 3.4611,-0.7683 1.9651,-0.5063 3.2912,-1.0584 4.226,-1.9567 0.9347,-0.89595 1.5061,-2.15595 1.9279,-4.13051 0.1563,-0.73136 0.243,-1.44928 0.243,-1.9936 0,-0.78288 -0.1508,-1.38096 -0.4218,-1.84128 -0.27,-0.46144 -0.6626,-0.79184 -1.1732,-1.036 C 95.8858,0.671587 94.3898,0.558467 92.6137,0.559578 90.355,0.558467 88.5767,0.792547 87.255,1.60007 c -1.3205,0.8064 -2.2418,2.27584 -2.7524,4.6648 l -0.1451,0.67536 h 4.1753 l 0.1586,-0.74592 c 0.1642,-0.71568 0.315,-1.20288 0.5872,-1.54896 0.271,-0.34944 0.6625,-0.5152 1.1979,-0.5824 0.3588,-0.04704 0.793,-0.05712 1.334,-0.05712 0.0855,-0.00112 0.1676,-0.00224 0.2464,-0.00224 0.5151,0.00112 0.9268,0.02352 1.2553,0.10864 z"
         fill="#000000"
         id="path30" />
      <path
         fill-rule="evenodd"
         clip-rule="evenodd"
         d="m 104.83,2.41939 c -0.486,0.50176 -4.561,4.74768 -6.2295,6.48816 -0.333,0.35616 -0.6896,0.7504 -0.8482,1.07408 -0.1271,0.23627 -0.2947,0.89487 -0.3801,1.36527 -0.1778,0.9789 -0.3105,1.8738 -0.3926,2.2411 -0.0214,0.0952 -0.0304,0.1815 -0.0304,0.2621 0.0011,0.3013 0.1271,0.5029 0.2958,0.6462 0.1699,0.1423 0.3949,0.2084 0.6221,0.2084 0.2036,0 8.0889,0 8.0889,0 l -0.745,3.5022 4.259,-0.3998 0.661,-3.1024 h 1.52 l 0.662,-3.0991 h -1.522 c 0,0 1.521,-7.07725 1.568,-7.33933 0.523,-2.86384 -0.671,-3.701604 -3.36,-3.701604 -0.687,0 -2.24,-0.14112 -4.169,1.854724 z m 1.787,9.18621 h -6.111 l 7.27,-7.50173 h 0.442 z"
         fill="#000000"
         id="path32" />
      <path
         fill-rule="evenodd"
         clip-rule="evenodd"
         d="M 95.2987,27.9993 C 92.5508,27.9982 89.9108,27.2691 87.6656,25.887 85.461,24.5307 84.1742,22.9313 83.5657,22.0275 l -0.8032,2.0608 c -0.0731,0.1882 -0.2744,0.3069 -0.4859,0.2722 -0.2114,-0.037 -0.3644,-0.2151 -0.3655,-0.4256 L 81.8672,19.8984 V 19.895 c 0.0011,-0.1131 0.0472,-0.2206 0.1282,-0.3001 0.0844,-0.0829 0.1946,-0.1277 0.3116,-0.1277 l 4.1258,-0.0023 h 0.0045 c 0.2036,0.0068 0.3802,0.1557 0.4196,0.3528 0.0045,0.0269 0.0079,0.0549 0.0079,0.0829 0,0.1781 -0.1125,0.3405 -0.2812,0.4055 l -2.0146,0.7772 c 1.766,1.5658 5.4037,4.0858 10.5115,4.0869 0.4364,0 0.8796,-0.019 1.3183,-0.056 2.154,-0.1825 4.3272,-0.7101 6.2882,-1.5232 1.714,-0.7145 3.229,-1.6262 4.385,-2.6398 l -2.077,-0.6104 c -0.186,-0.0527 -0.318,-0.224 -0.318,-0.4178 0,-0.0134 0.002,-0.0269 0.003,-0.0425 0.021,-0.2072 0.188,-0.3719 0.398,-0.3909 l 4.03,-0.3663 c 0.019,-0.0022 0.035,-0.0022 0.047,-0.0022 0.102,0 0.202,0.037 0.28,0.1008 0.092,0.0773 0.148,0.1826 0.157,0.299 0.335,3.9436 0.335,3.9447 0.335,3.9592 0,0.1972 -0.133,0.3685 -0.325,0.42 -0.036,0.0101 -0.073,0.0157 -0.113,0.0157 -0.169,0 -0.325,-0.0952 -0.398,-0.2419 l -0.972,-1.8581 c -0.782,1.0506 -2.142,2.5357 -4.271,3.8248 -2.158,1.3071 -4.5719,2.081 -7.168,2.2994 l -0.261,0.0224 v -0.0023 c -0.3757,0.0258 -0.7525,0.0392 -1.1203,0.0392 z"
         fill="#000000"
         id="path34" />
    </g>
  </g>
  <path
     d="m 612.10735,13.5361 v -1.6347 h -3.397 c -0.77,0 -1.033,-0.3759 -1.033,-1.1093 V 0.154297 h -1.918 V 10.905 c 0,1.4094 0.789,2.6311 2.613,2.6311 z"
     fill="#000000"
     id="path46" />
  <path
     d="m 619.29035,7.991 h -4.285 c 0.019,-0.58287 0.057,-0.86465 0.244,-1.29673 0.301,-0.7146 0.997,-1.20313 1.899,-1.20313 0.902,0 1.578,0.48853 1.879,1.20313 0.188,0.43208 0.244,0.71386 0.263,1.29673 z m 1.899,1.33437 V 8.47954 c 0,-2.70638 -1.485,-4.58599 -4.041,-4.58599 -2.443,0 -4.041,1.78552 -4.041,4.86777 0,3.62748 1.898,4.88678 4.285,4.88678 1.673,0 2.594,-0.5073 3.571,-1.4846 l -1.222,-1.1465 c -0.676,0.6765 -1.24,0.9774 -2.311,0.9774 -1.56,0 -2.425,-1.0341 -2.425,-2.66903 z"
     fill="#000000"
     id="path48" />
  <path
     d="m 625.13735,4.00684 h -1.917 v 9.52876 h 1.917 z"
     fill="#000000"
     id="path50" />
  <path
     d="m 633.52535,8.76132 c 0,1.69188 -0.245,3.17658 -1.974,3.17658 -1.729,0 -1.992,-1.4847 -1.992,-3.17658 0,-1.69167 0.263,-3.15752 1.992,-3.15752 1.729,0 1.974,1.46585 1.974,3.15752 z m 1.917,0 c 0,-1.44728 -0.113,-3.06343 -1.071,-4.02217 -0.526,-0.52617 -1.372,-0.8456 -2.331,-0.8456 -1.034,0 -1.804,0.26321 -2.518,1.12738 V 4.00622 h -1.88 V 17.3883 h 1.917 v -4.8304 c 0.695,0.827 1.485,1.0902 2.5,1.0902 0.958,0 1.786,-0.3196 2.312,-0.8455 0.958,-0.9593 1.071,-2.5938 1.071,-4.04128 z"
     fill="#000000"
     id="path52" />
  <path
     d="m 643.96235,13.5356 v -1.7102 h -4.775 l 4.775,-6.29626 v -1.5223 h -6.842 v 1.71 h 4.473 l -4.736,6.29666 v 1.5221 z"
     fill="#000000"
     id="path54" />
  <path
     d="m 647.97735,4.00684 h -1.917 v 9.52876 h 1.917 z"
     fill="#000000"
     id="path56" />
  <path
     d="m 655.67635,8.59269 c 0,1.50371 -0.207,2.98861 -1.936,2.98861 -1.729,0 -1.954,-1.4846 -1.954,-2.98861 0,-1.50349 0.225,-2.9884 1.954,-2.9884 1.73,0 1.936,1.48466 1.936,2.9884 z m 1.917,4.88681 V 4.0067 h -1.86 v 1.01496 c -0.715,-0.86465 -1.485,-1.12811 -2.5,-1.12811 -0.959,0 -1.767,0.30109 -2.293,0.82751 -0.921,0.92086 -1.071,2.25547 -1.071,3.87163 0,1.61611 0.15,2.95101 1.071,3.87161 0.526,0.5264 1.315,0.8461 2.274,0.8461 0.978,0 1.767,-0.263 2.462,-1.0902 v 1.2219 c 0,1.2779 -0.62,2.4244 -2.236,2.4244 -0.94,0 -1.466,-0.2821 -2.068,-0.8456 l -1.221,1.2214 c 0.996,0.9209 1.917,1.2591 3.364,1.2591 2.537,0 4.078,-1.6916 4.078,-4.0219 z"
     fill="#000000"
     id="path58" />
  <path
     d="m 665.87735,7.991 h -4.285 c 0.018,-0.58287 0.056,-0.86465 0.244,-1.29673 0.3,-0.7146 0.996,-1.20313 1.898,-1.20313 0.902,0 1.579,0.48853 1.88,1.20313 0.187,0.43208 0.244,0.71386 0.263,1.29673 z m 1.898,1.33437 V 8.47954 c 0,-2.70638 -1.485,-4.58599 -4.041,-4.58599 -2.444,0 -4.041,1.78552 -4.041,4.86777 0,3.62748 1.899,4.88678 4.285,4.88678 1.673,0 2.594,-0.5073 3.571,-1.4846 l -1.221,-1.1465 c -0.677,0.6765 -1.241,0.9774 -2.312,0.9774 -1.561,0 -2.424,-1.0341 -2.424,-2.66903 z"
     fill="#000000"
     id="path60" />
  <path
     d="m 675.03635,4.00707 v 1.63497 h -2.291 c -0.771,0 -1.034,0.37588 -1.034,1.10929 v 6.78447 h -1.917 V 6.63794 c 0,-1.4094 0.79,-2.6311 2.613,-2.6311 h 2.629 z"
     fill="#000000"
     id="path62" />
  <path
     d="m 625.19135,0.0976562 h -2.029 V 2.12731 h 2.029 z"
     fill="#000000"
     id="path64" />
  <path
     d="m 648.03535,0.0976562 h -2.03 V 2.12731 h 2.03 z"
     fill="#000000"
     id="path66" />
  <path
     d="m 581.81035,0 h 3.976 c 0,0 0,12.0293 0,19.9092 0,2.1957 1.78,3.9756 3.976,3.9756 3.893,0 7.933,10e-5 7.933,10e-5 v 3.9756 c 0,0 -4.04,0 -7.933,0 -4.392,0 -7.952,-3.56 -7.952,-7.9513 z"
     fill="#000000"
     id="path68" />
  <path
     d="m 607.98635,28.0003 c -0.986,0 -1.616,-0.2727 -2.227,-0.8834 l 0.357,-0.3571 c 0.602,0.602 1.1,0.7894 1.899,0.7894 1.061,0 1.719,-0.5069 1.719,-1.3813 0,-0.4035 -0.113,-0.7236 -0.367,-0.9392 -0.253,-0.1972 -0.413,-0.2822 -0.967,-0.3575 l -0.78,-0.122 c -0.508,-0.0757 -0.902,-0.2351 -1.193,-0.4888 -0.349,-0.2908 -0.527,-0.7043 -0.527,-1.2307 0,-1.1274 0.789,-1.8324 2.077,-1.8324 0.827,0 1.353,0.226 1.926,0.7238 l -0.329,0.3285 c -0.394,-0.3756 -0.836,-0.6198 -1.625,-0.6198 -0.977,0 -1.55,0.5262 -1.55,1.3811 0,0.3854 0.112,0.6767 0.347,0.8737 0.235,0.1972 0.62,0.3477 0.996,0.4135 l 0.723,0.1129 c 0.63,0.0843 0.921,0.207 1.194,0.4414 0.367,0.3011 0.582,0.7612 0.582,1.2967 0,1.1371 -0.855,1.8512 -2.255,1.8512 z"
     fill="#000000"
     id="path70" />
  <path
     d="m 611.81735,26.7603 v -2.9879 h -0.62 v -0.3571 h 0.62 v -1.4475 h 0.479 v 1.4475 h 1.025 v 0.3571 h -1.025 V 26.77 c 0,0.479 0.216,0.7515 0.696,0.7515 h 0.329 v 0.4226 h -0.414 c -0.714,-2e-4 -1.09,-0.4981 -1.09,-1.1838 z"
     fill="#000000"
     id="path72" />
  <path
     d="m 617.40135,27.4935 c -0.385,0.3851 -0.742,0.5073 -1.381,0.5073 -0.676,0 -1.043,-0.1129 -1.334,-0.4132 -0.216,-0.2161 -0.329,-0.5448 -0.329,-0.8835 0,-0.8268 0.592,-1.3058 1.578,-1.3058 h 1.466 v -0.5076 c 0,-0.7231 -0.347,-1.1088 -1.277,-1.1088 -0.64,0 -0.959,0.1599 -1.25,0.5731 l -0.348,-0.3003 c 0.385,-0.5355 0.855,-0.6953 1.598,-0.6953 1.203,0 1.757,0.5352 1.757,1.4842 v 3.1008 h -0.48 z m -1.409,-1.7098 c -0.77,0 -1.156,0.3004 -1.156,0.9114 0,0.6009 0.357,0.8834 1.184,0.8834 0.414,0 0.799,-0.0376 1.128,-0.348 0.169,-0.1596 0.253,-0.4514 0.253,-0.8644 v -0.5824 z"
     fill="#000000"
     id="path74" />
  <path
     d="m 622.26335,27.3619 c -0.404,0.5257 -0.827,0.6386 -1.344,0.6386 -0.479,0 -0.873,-0.1596 -1.108,-0.3944 -0.461,-0.4602 -0.583,-1.212 -0.583,-1.9265 0,-0.7142 0.122,-1.4657 0.583,-1.9258 0.235,-0.2351 0.629,-0.3947 1.108,-0.3947 0.517,0 0.94,0.1122 1.344,0.6386 v -2.7438 h 0.479 v 6.6899 h -0.479 z m -1.278,-3.5805 c -1.109,0 -1.278,0.959 -1.278,1.8982 0,0.9399 0.169,1.8984 1.278,1.8984 1.109,0 1.278,-0.9585 1.278,-1.8984 0,-0.9392 -0.169,-1.8982 -1.278,-1.8982 z"
     fill="#000000"
     id="path76" />
  <path
     d="m 624.67635,26.7603 v -2.9879 h -0.62 v -0.3571 h 0.62 v -1.4475 h 0.48 v 1.4475 h 1.024 v 0.3571 h -1.024 V 26.77 c 0,0.479 0.216,0.7515 0.695,0.7515 h 0.329 v 0.4226 h -0.413 c -0.715,-2e-4 -1.091,-0.4981 -1.091,-1.1838 z"
     fill="#000000"
     id="path78" />
  <path
     d="m 631.32935,27.9436 -1.278,-3.7771 -1.278,3.7771 h -0.488 l -1.448,-4.5286 h 0.527 l 1.156,3.9653 1.296,-3.9653 h 0.47 l 1.297,3.9653 1.156,-3.9653 h 0.525 l -1.446,4.5286 z"
     fill="#000000"
     id="path80" />
  <path
     d="m 635.93235,27.5678 c 0.536,0 0.865,-0.1596 1.251,-0.5448 l 0.357,0.2818 c -0.461,0.4602 -0.884,0.6951 -1.635,0.6951 -1.25,0 -1.927,-0.808 -1.927,-2.321 0,-1.4656 0.677,-2.3205 1.814,-2.3205 1.137,0 1.813,0.817 1.813,2.2081 v 0.216 h -3.148 c 0,1.1557 0.508,1.7853 1.475,1.7853 z m 1.034,-3.0253 c -0.197,-0.48 -0.648,-0.7613 -1.175,-0.7613 -0.526,0 -0.976,0.2813 -1.174,0.7613 -0.104,0.291 -0.132,0.4132 -0.16,0.8546 h 2.669 c -0.029,-0.4321 -0.038,-0.5819 -0.16,-0.8546 z"
     fill="#000000"
     id="path82" />
  <path
     d="m 643.85035,25.454 -1.033,1.1931 v 1.2967 h -0.48 v -6.6899 h 0.48 v 4.7167 l 2.246,-2.5553 h 0.611 l -1.494,1.6907 1.822,2.8378 h -0.592 z"
     fill="#000000"
     id="path84" />
  <path
     d="m 648.68235,27.5678 c 0.536,0 0.865,-0.1596 1.251,-0.5448 l 0.357,0.2818 c -0.461,0.4602 -0.884,0.6951 -1.635,0.6951 -1.25,0 -1.927,-0.808 -1.927,-2.321 0,-1.4656 0.677,-2.3205 1.814,-2.3205 1.137,0 1.813,0.817 1.813,2.2081 v 0.216 h -3.148 c 0,1.1557 0.508,1.7853 1.475,1.7853 z m 1.034,-3.0253 c -0.197,-0.48 -0.648,-0.7613 -1.175,-0.7613 -0.526,0 -0.976,0.2813 -1.174,0.7613 -0.104,0.291 -0.132,0.4132 -0.16,0.8546 h 2.669 c -0.028,-0.4321 -0.038,-0.5819 -0.16,-0.8546 z"
     fill="#000000"
     id="path86" />
  <path
     d="m 640.08835,23.415 h 1.086 v 0.4226 h -1.002 c -0.535,0 -0.695,0.2444 -0.695,0.761 v 3.3452 h -0.479 v -3.3547 c 0,-0.7136 0.348,-1.1741 1.09,-1.1741 z"
     fill="#000000"
     id="path88" />
  <g
     clip-path="url(#clip3)"
     id="g94"
     transform="translate(-134.56065)">
    <path
       d="M 638.278,27.5091 V 15.0899 c 0,-3.5689 2.445,-5.9686 6.012,-5.9686 3.067,0 4.426,1.4268 4.426,4.7664 v 13.6214 h 1.739 V 13.6976 c 0,-4.18446 -2.009,-6.21803 -6.175,-6.21803 -2.748,0 -4.86,1.29318 -6.145,3.74303 l -0.212,0.4016 -0.107,-0.4389 c -0.627,-2.38996 -2.534,-3.70573 -5.387,-3.70573 -0.877,0 -1.687,0.14149 -2.422,0.4091 -3.013,0.9989 -3.905,3.26153 -3.905,3.26153 V 8.21055 h -1.986 V 27.5091 h 1.986 V 15.2396 c 0,-3.5997 2.393,-6.1183 5.928,-6.1183 2.878,0 4.261,1.6806 4.261,4.9914 V 27.5091 Z M 596.909,9.01557 c 3.628,0 5.998,2.77303 6.19,7.07703 L 590.534,16.091 c 0.226,-4.2381 2.731,-7.07543 6.375,-7.07543 z m 5.973,12.55373 c -0.518,2.7222 -2.937,4.4103 -6.008,4.4103 -4.009,0 -6.646,-3.1984 -6.646,-7.9965 v -0.1249 h 14.662 v -0.7419 c 0,-6.1701 -2.905,-9.68128 -8.036,-9.68128 -5.239,0 -8.329,3.80458 -8.329,10.14088 0,6.256 3.116,10.0373 8.333,10.0373 4.287,0 7.377,-2.3325 7.932,-6.0439 z m -20.156,-5.2038 c 0,-4.6255 2.093,-6.91856 6.07,-6.91856 h 0.141 V 7.71361 h -0.103 c -2.016,0 -3.561,0.52078 -4.704,1.68063 -0.803,0.69306 -1.359,1.64456 -1.653,2.23746 V 11.1276 8.21055 h -1.738 V 27.5091 h 1.987 z m -78.71,7.7873 c -3.545,0 -5.528,-2.4317 -5.528,-6.9888 0,-4.5541 1.983,-7.0203 5.528,-7.0203 3.509,0 5.489,2.4289 5.489,7.0203 0,4.5571 -1.98,6.9888 -5.489,6.9888 z M 503.979,6.4973 c -6.139,0 -9.838,3.9473 -9.838,10.6667 0,6.7218 3.738,10.6324 9.875,10.6324 6.101,0 9.841,-3.9485 9.841,-10.6324 0,-6.6805 -3.74,-10.6667 -9.878,-10.6667 z m 105.436,12.805 c 0.199,-0.1829 0.427,-0.3539 0.676,-0.5132 0.302,-0.1726 1.956,-1.0366 4.668,-1.2192 2.019,-0.1418 3.614,-0.3423 4.818,-0.8059 l 0.236,-0.0891 0.028,1.9538 -0.007,0.0041 c 0,0 0.002,0.0201 0.007,0.0584 l 0.005,0.5129 0.01,0.4402 c -0.004,0.0141 -0.004,0.0276 -0.004,0.0392 -10e-4,0.0806 -0.008,0.1543 -0.011,0.2312 -0.029,0.491 -0.119,1.1834 -0.37,1.9197 -0.592,1.6066 -1.989,3.3296 -5.185,3.883 -0.472,0.0684 -0.968,0.1054 -1.486,0.1054 -2.778,0 -4.573,-1.5084 -4.573,-3.8432 0,-0.6211 0.139,-1.1836 0.413,-1.6925 0.024,-0.0439 0.046,-0.0882 0.071,-0.1261 0.019,-0.0314 0.041,-0.0624 0.06,-0.0951 0.133,-0.2052 0.286,-0.3975 0.45,-0.5735 0.026,-0.0251 0.051,-0.0508 0.076,-0.0765 0.038,-0.038 0.078,-0.0753 0.118,-0.1136 z m -3.166,2.7172 c 0,3.3521 2.387,5.4369 6.232,5.4369 2.732,0 5.134,-1.088 7.069,-3.2352 l 0.341,-0.3413 v 0.7583 c 0,1.4252 0.497,2.6478 1.738,2.8709 V 13.1097 c 0,-3.72582 -2.361,-5.66997 -6.9,-5.66997 -4.432,0 -7.333,2.50133 -7.497,5.96677 h 1.868 c 0.213,-2.7232 2.075,-4.3354 5.693,-4.3354 3.567,0 5.024,1.2524 5.024,4.379 0,1.6969 -0.555,2.0408 -2.118,2.3824 -1.148,0.2444 -2.816,0.4019 -3.391,0.4518 -0.056,0.0025 -0.113,0.0072 -0.166,0.0132 -0.024,0.0012 -0.04,0.0012 -0.04,0.0012 v 0.0025 c -1.74,0.1446 -3.378,0.3514 -4.835,1.0112 -1.975,0.911 -3.018,2.5367 -3.018,4.7071 z m -81.28,2.0558 c -3.24,0 -5.262,-2.469 -5.262,-6.7965 0,-4.555 2.022,-7.0598 5.262,-7.0598 3.468,0 5.337,2.3156 5.337,6.7937 0,4.6325 -1.905,7.0626 -5.337,7.0626 z m 5.333,-14.46396 c -1.491,-2.08942 -3.582,-3.11404 -6.29,-3.11404 -4.917,0 -8.594,4.1001 -8.594,10.7438 0,6.4537 3.593,10.5553 8.622,10.5553 2.633,0 4.521,-1.0274 6.262,-3.2677 v 2.9804 h 3.976 V 0.0449047 h -3.976 z m -43.993,5.57926 -2.553,-0.5688 c -2.176,-0.4934 -3.358,-1.0999 -3.358,-2.543 0,-1.216 1.145,-2.0637 3.394,-2.0637 2.631,0 4.119,1.1633 4.231,3.1423 h 4.158 c 0,-3.95924 -3.129,-6.55689 -8.236,-6.55689 -4.956,0 -7.853,2.4549 -7.853,6.17659 0,3.265 2.059,4.6811 6.253,5.7058 l 3.012,0.7441 c 1.981,0.4957 3.125,0.9823 3.125,2.4229 0,1.5577 -1.449,2.7404 -4.042,2.7404 -2.972,0 -4.536,-1.0883 -4.729,-3.5633 h -4.191 c 0,4.4537 3.049,7.0529 8.538,7.0529 5.57,0 8.694,-2.5845 8.694,-6.725 0,-3.6813 -2.172,-4.9754 -6.443,-5.9643 z m 62.83,4.4411 c 0,2.848 -2.384,4.7467 -5.436,4.7467 -2.097,0 -3.249,-1.0642 -3.249,-2.8853 0,-1.6324 0.91,-2.6175 2.893,-2.9989 1.981,-0.3818 4.053,-0.4543 5.792,-1.3679 z M 545.364,6.4973 c -5.187,0 -8.154,2.54243 -8.154,6.454 v 0.4552 h 3.977 v -0.267 c 0,-2.0088 1.38,-3.14856 4.011,-3.14856 2.784,0 4.104,0.87186 4.104,2.80786 0,1.8616 -0.924,1.8983 -4.467,2.3561 -5.376,0.6795 -8.544,1.9714 -8.544,6.7181 0,3.6433 2.363,5.9234 6.479,5.9234 2.629,0 5.033,-1.1799 6.674,-3.3035 0.036,2.0511 1.209,3.0353 3.802,3.0353 0.053,0 0.116,-0.0044 0.116,-0.0044 V 12.4204 c 0,-3.91087 -2.662,-5.9231 -7.998,-5.9231 z m 32.888,19.1514 c -0.495,0.1559 -1.36,0.3256 -1.937,0.3256 -1.435,0 -1.54,-0.9004 -1.54,-2.2717 V 9.69322 h 3.477 V 8.21055 h -3.477 V 0.787807 h -1.987 V 23.7026 c 0,2.8063 0.672,3.7538 2.883,3.7538 0.779,0 1.588,-0.128 2.581,-0.3721 z m -13.575,-8.8455 c -0.355,-0.0869 -0.695,-0.1616 -1.023,-0.2403 -3.406,-0.7928 -5.463,-1.2659 -5.463,-4.0007 0,-2.0953 1.779,-3.43369 4.537,-3.43369 3.12,0 5.018,1.55479 5.238,4.27799 h 1.976 c -0.328,-3.71328 -2.933,-5.90967 -7.177,-5.90967 -3.919,0 -6.553,2.15184 -6.553,5.38607 0,3.1927 2.129,4.2503 6.895,5.3989 l 0.107,0.0386 c 3.411,0.8106 5.291,1.2828 5.291,3.791 0,2.3464 -2.123,3.9097 -5.4,3.9097 -2.934,0 -5.187,-1.9778 -5.321,-4.4518 h -1.977 c 0.194,3.7114 3.084,6.0797 7.41,6.0797 4.344,0 7.265,-2.2284 7.265,-5.478 0,-2.8806 -1.522,-4.3219 -5.805,-5.3678 z"
       fill="#000000"
       id="path90" />
    <path
       d="m 653.937,9.66523 c 0.402,0 0.8,-0.0138 0.8,-0.464 0,-0.36863 -0.311,-0.45553 -0.634,-0.45553 h -0.6 v 0.91953 z m -0.434,1.45287 h -0.326 V 8.46837 h 1.022 c 0.6,0 0.864,0.25851 0.864,0.73286 0,0.46933 -0.307,0.67828 -0.668,0.74071 l 0.793,1.17616 h -0.384 l -0.749,-1.17616 h -0.552 z m -1.436,-1.32518 c 0,1.09808 0.831,1.96708 1.945,1.96708 1.114,0 1.944,-0.869 1.944,-1.96708 0,-1.09616 -0.83,-1.96424 -1.944,-1.96424 -1.114,0 -1.945,0.86808 -1.945,1.96424 z m 4.248,0 c 0,1.28968 -1.002,2.29298 -2.303,2.29298 -1.301,0 -2.305,-1.0033 -2.305,-2.29298 0,-1.28816 1.004,-2.29271 2.305,-2.29271 1.301,0 2.303,1.00455 2.303,2.29271 z"
       fill="#000000"
       id="path92" />
  </g>
  <defs
     id="defs108">
    <clipPath
       id="clip0">
      <rect
         width="113.328"
         height="28"
         fill="#ffffff"
         transform="translate(172.48)"
         id="rect96"
         x="0"
         y="0" />
    </clipPath>
    <clipPath
       id="clip1">
      <rect
         width="112.482"
         height="28"
         fill="#ffffff"
         id="rect99"
         x="0"
         y="0" />
    </clipPath>
    <clipPath
       id="clip2">
      <rect
         width="69.549202"
         height="28"
         fill="#ffffff"
         transform="translate(345.809)"
         id="rect102"
         x="0"
         y="0" />
    </clipPath>
    <clipPath
       id="clip3">
      <rect
         width="181.011"
         height="28"
         fill="#ffffff"
         transform="translate(475.359)"
         id="rect105"
         x="0"
         y="0" />
    </clipPath>
  </defs>
</svg>
