<svg width="812" height="28" viewBox="0 0 812 28" fill="none" xmlns="http://www.w3.org/2000/svg">
<g clip-path="url(#clip0)">
<path d="M227.832 13.7617C229.03 13.6857 230.475 14.4096 230.966 15.6696L224.446 17.4122C224.361 15.061 226.121 13.8723 227.832 13.7617ZM235.013 16.7691C235.011 16.7572 235.014 16.7488 235.012 16.7371C235.007 16.7157 235 16.6883 234.995 16.6657C234.861 15.9941 234.655 15.3439 234.441 14.8756L234.439 14.8765C234.382 14.7315 234.326 14.5889 234.272 14.47C233.245 12.2103 231.214 10.6139 228.06 10.6139C223.556 10.6139 220.579 14.2228 220.579 18.3499C220.579 23.0012 223.64 26.0906 228.465 26.0906C230.53 26.0906 232.021 25.5889 233.45 24.9221C233.58 24.8626 233.68 24.7485 233.722 24.613L234.455 21.11C234.512 20.9174 234.401 20.7783 234.279 20.8413C232.972 21.6734 231.293 22.6683 229.242 22.6529C227.168 22.6375 225.474 21.7863 224.942 20.3255L234.707 17.727C234.993 17.626 235.123 17.4655 235.088 17.2016C235.069 17.0566 235.039 16.9127 235.013 16.7689L235.013 16.7691ZM278.664 26.0908C276.156 26.0908 274.223 25.2694 272.58 24.3339C272.442 24.2567 272.298 24.1021 272.326 23.9595L272.972 20.8463C272.983 20.7762 273.034 20.7215 273.103 20.7655C274.973 21.9922 276.627 22.8552 278.92 22.8552C280.191 22.8552 280.971 22.3667 280.971 21.6701C280.971 20.8915 280.394 20.5468 277.738 19.8526C274.736 19.0728 272.597 18.0636 272.597 15.2904C272.597 12.6337 274.907 10.7009 278.806 10.7009C280.821 10.7009 282.437 11.2014 283.699 11.8278C283.873 11.9134 284 12.1131 283.977 12.2854L283.374 15.1858C283.355 15.2773 283.275 15.332 283.195 15.2845C281.715 14.3775 279.874 13.9056 278.635 13.9056C277.335 13.9056 276.641 14.3692 276.641 15.004C276.641 15.7516 277.304 16.069 279.787 16.705C283.139 17.5418 285.017 18.5807 285.017 21.4407C285.017 24.1556 282.563 26.0908 278.664 26.0908ZM258.504 18.4728C258.504 20.7943 260.094 22.5334 262.232 22.5334C264.455 22.5334 265.988 20.7052 265.988 18.4146C265.988 16.0943 264.398 14.3826 262.261 14.3826C260.038 14.3826 258.504 16.1787 258.504 18.4728ZM262.227 10.6145C267.252 10.6145 270.197 14.3374 270.197 18.3504C270.197 22.4228 267.077 26.1755 262.199 26.1755C257.203 26.1755 254.23 22.4228 254.23 18.4098C254.23 14.3683 257.348 10.6145 262.227 10.6145ZM246.91 11.0183H250.979C251.059 11.0183 251.124 11.0825 251.124 11.1621V25.6272C251.124 25.7056 251.059 25.7722 250.979 25.7722H246.91C246.829 25.7722 246.763 25.7056 246.763 25.6272V11.1621C246.763 11.0825 246.829 11.0183 246.91 11.0183ZM248.959 8.96659C247.528 8.96659 246.429 7.92174 246.429 6.57378C246.429 5.19966 247.528 4.18453 248.959 4.18453C250.388 4.18453 251.485 5.19966 251.485 6.57378C251.485 7.92174 250.388 8.96659 248.959 8.96659ZM238.209 5.00936L242.28 3.93479C242.373 3.90978 242.463 3.97996 242.463 4.07387V25.627C242.463 25.7066 242.398 25.7721 242.318 25.7721H238.246C238.166 25.7721 238.101 25.7066 238.101 25.627V5.15081C238.101 5.08425 238.146 5.026 238.209 5.00936ZM213.374 17.6597H203.845V25.6286C203.845 25.7083 203.78 25.7736 203.7 25.7736H199.309C199.229 25.7736 199.164 25.7083 199.164 25.6286V5.70271C199.164 5.62426 199.229 5.55888 199.309 5.55888H203.7C203.78 5.55888 203.845 5.62421 203.845 5.70271V13.3852H213.374V5.70271C213.374 5.62426 213.439 5.55888 213.519 5.55888H217.881C217.961 5.55888 218.026 5.62421 218.026 5.70271V25.6286C218.026 25.7083 217.961 25.7736 217.881 25.7736H213.519C213.439 25.7736 213.374 25.7083 213.374 25.6286V17.6597Z" fill="black"/>
<path d="M190.49 10.8292C190.178 9.29228 189.763 8.30687 188.597 8.47091C187.739 8.59334 187.369 9.38262 187.456 10.3062C187.709 12.9261 187.863 15.3938 187.199 18.0089C186.908 19.1548 186.262 22.3595 184.213 21.7295C182.726 21.273 183.037 19.2927 183.122 18.2633C183.43 16.1046 182.716 15.628 182.063 15.5186C181.158 15.3664 180.471 15.8122 180.175 17.5703C180.055 18.1384 179.067 22.8587 179.02 23.3437C178.883 24.7428 179.382 26.2512 179.483 26.603C179.518 26.729 179.602 26.8123 179.728 26.842C182.827 27.4981 186.066 27.2723 188.405 25.9029C188.534 25.8268 188.603 25.7377 188.663 25.658C189.957 23.7942 190.544 20.9532 190.859 18.7411C191.231 16.1201 191.1 13.4075 190.49 10.8292Z" fill="black"/>
<path d="M173.849 17.1689C174.162 18.7059 174.578 19.6925 175.744 19.5272C176.601 19.406 176.969 18.6155 176.885 17.6931C176.631 15.0732 176.476 12.6055 177.14 9.99045C177.432 8.84456 178.077 5.64106 180.128 6.26987C181.613 6.72514 181.303 8.70786 181.218 9.73607C180.909 11.8935 181.623 12.3726 182.277 12.4807C183.183 12.6341 183.868 12.1883 184.163 10.4279C184.284 9.86088 185.272 5.13944 185.32 4.65446C185.456 3.25657 184.958 1.74694 184.857 1.39628C184.823 1.27028 184.737 1.18707 184.613 1.15736C181.514 0.501206 178.273 0.727055 175.935 2.09642C175.806 2.17011 175.738 2.26164 175.676 2.34128C174.383 4.20514 173.796 7.04608 173.482 9.25941C173.108 11.8781 173.24 14.5918 173.849 17.1689Z" fill="black"/>
</g>
<g clip-path="url(#clip1)">
<mask id="mask0" style="mask-type:alpha" maskUnits="userSpaceOnUse" x="0" y="0" width="18" height="19">
<path d="M0.0664062 0.536133H17.0805V18.3777H0.0664062V0.536133Z" fill="white"/>
</mask>
<g mask="url(#mask0)">
<path fill-rule="evenodd" clip-rule="evenodd" d="M6.96603 18.3777H6.95928C5.11232 18.3777 3.2035 18.3329 1.94482 17.7987C1.29467 17.5243 0.842492 17.1547 0.521918 16.6361C0.170973 16.0661 0 15.3302 0 14.3861C0 13.6659 0.102359 12.8214 0.305952 11.8705C0.35207 11.6544 1.44315 6.58525 1.51626 6.31645C1.80422 5.26029 2.16753 4.39117 2.62871 3.66205C3.42509 2.40541 4.48467 1.59453 5.96269 1.11293C7.19437 0.714213 8.76237 0.536133 11.0446 0.536133H11.0638C12.2628 0.536133 13.2482 0.620133 14.076 0.793733C15.0524 0.997573 15.7981 1.33133 16.2931 1.78493C16.662 2.12429 16.9005 2.53869 17.0039 3.01693C17.0557 3.25773 17.0816 3.52653 17.0816 3.81885C17.0816 4.49309 16.9432 5.19645 16.8318 5.76317C16.8161 5.84493 16.8004 5.92557 16.7857 6.00285L16.7812 6.02637H12.3674L12.3697 5.99501C12.3697 5.99501 12.3832 5.86173 12.3888 5.80349C12.3888 5.80013 12.409 5.62205 12.409 5.36669C12.409 4.98477 12.2302 4.68573 11.8601 4.45053C11.5688 4.28589 11.1965 4.22877 10.8399 4.18509C10.4586 4.14029 10.0323 4.13357 9.62848 4.13357C8.8861 4.13357 8.32481 4.19293 7.86476 4.31837C7.49694 4.41693 7.19099 4.56141 6.93228 4.75853C6.56559 5.03517 6.28101 5.43277 6.06167 5.97261C5.85695 6.47661 5.7096 7.07469 5.54988 7.81837L4.94472 10.652C4.75125 11.5648 4.61402 12.2569 4.6129 12.8528C4.6129 13.1966 4.66014 13.4677 4.76025 13.7085C4.91773 14.0915 5.2518 14.3905 5.70285 14.5496C6.13816 14.7075 6.6882 14.7781 7.48682 14.7792C8.02111 14.7792 8.45867 14.7691 8.85685 14.7209C9.5475 14.6381 10.0413 14.432 10.4125 14.0725C10.8152 13.6816 11.0874 13.1059 11.2685 12.2581L11.3303 11.9691H15.6958L15.6947 11.9993C15.6924 12.0329 15.4483 13.1742 15.3201 13.6312C15.1874 14.1072 15.0423 14.5137 14.8769 14.8721C14.4528 15.7939 13.8623 16.5029 13.0164 17.1032C12.1987 17.6721 11.3281 18.0238 10.2753 18.2075C9.36977 18.3654 8.44517 18.3766 7.41596 18.3766H7.40358C7.38221 18.3766 7.01889 18.3766 6.96603 18.3777Z" fill="black"/>
</g>
<path fill-rule="evenodd" clip-rule="evenodd" d="M55.8723 18.3777H55.8667C54.0186 18.3777 52.1097 18.3329 50.8522 17.7987C50.2009 17.5243 49.7487 17.1547 49.4293 16.6361C49.0772 16.0661 48.9074 15.3302 48.9062 14.3861C48.9062 13.6659 49.0097 12.8214 49.2133 11.8705C49.2583 11.6544 50.3494 6.58525 50.4225 6.31645C50.7105 5.26029 51.0738 4.39117 51.535 3.66205C52.3313 2.40541 53.3909 1.59453 54.8689 1.11293C56.1017 0.714213 57.6686 0.536133 59.9498 0.536133H59.9711C61.1691 0.536133 62.1544 0.620133 62.9834 0.793733C63.9598 0.997573 64.7055 1.33133 65.1993 1.78493C65.5694 2.12429 65.8067 2.53869 65.9091 3.01693C65.9608 3.25661 65.9878 3.52653 65.9878 3.81885C65.9878 4.49309 65.8506 5.19757 65.7392 5.76317C65.7224 5.84605 65.7077 5.92557 65.692 6.00285L65.6875 6.02637H61.2737L61.2771 5.99501C61.2771 5.99501 61.2906 5.86173 61.2962 5.80349C61.2962 5.80013 61.3153 5.62205 61.3153 5.36669C61.3153 4.98477 61.1353 4.68573 60.7675 4.45053C60.4751 4.28589 60.1027 4.22877 59.7462 4.18509C59.366 4.14029 58.9385 4.13357 58.5347 4.13357C57.7924 4.13357 57.2311 4.19293 56.771 4.31837C56.4032 4.41693 56.0984 4.56141 55.8385 4.75853C55.4718 5.03517 55.1884 5.43277 54.969 5.97261C54.7632 6.47661 54.6159 7.07469 54.4573 7.81837L53.8521 10.652C53.6575 11.5648 53.5203 12.2569 53.5192 12.8528C53.5192 13.1966 53.5664 13.4677 53.6665 13.7085C53.824 14.0915 54.158 14.3905 54.6091 14.5496C55.0444 14.7075 55.5944 14.7781 56.3931 14.7792C56.9285 14.7792 57.3649 14.7691 57.7631 14.7209C58.4526 14.6381 58.9487 14.432 59.3199 14.0725C59.7214 13.6816 59.9936 13.1059 60.1759 12.2581L60.2366 11.9691H64.602L64.6009 11.9993C64.5987 12.0329 64.3534 13.1742 64.2263 13.6312C64.0936 14.1072 63.9485 14.5137 63.7843 14.8721C63.3602 15.7939 62.7686 16.5029 61.9227 17.1032C61.1061 17.6721 60.2343 18.0238 59.1826 18.2075C58.276 18.3654 57.3514 18.3766 56.3233 18.3766H56.3098C56.2885 18.3766 55.9251 18.3766 55.8723 18.3777Z" fill="black"/>
<path fill-rule="evenodd" clip-rule="evenodd" d="M46.3985 18.2302H33.6992L33.7071 18.1955L37.2582 1.55679C37.3211 1.25103 37.4359 1.04047 37.6215 0.897111C37.8104 0.750391 38.0714 0.678711 38.4178 0.678711H49.1329C49.3972 0.679831 49.5885 0.739191 49.7032 0.855671C49.7898 0.944151 49.8359 1.07407 49.837 1.23199V1.24543C49.8359 1.30927 49.828 1.37535 49.8123 1.44143L49.2578 4.03871H40.9622L40.2434 7.47935H48.0283L47.3197 10.724H39.5348L38.6484 14.8769H47.1139L46.3985 18.2302Z" fill="black"/>
<path fill-rule="evenodd" clip-rule="evenodd" d="M69.1713 18.2302H64.9375L64.9442 18.1955L68.4841 1.61391C68.5684 1.25439 68.7057 1.00575 68.9014 0.855671C69.0577 0.736951 69.2579 0.679831 69.5155 0.678711H72.0216C72.2916 0.679831 72.4929 0.742551 72.62 0.864631C72.7201 0.960951 72.773 1.09983 72.7741 1.26559C72.7741 1.31599 72.7696 1.36863 72.7595 1.42239L69.1713 18.2302Z" fill="black"/>
<path fill-rule="evenodd" clip-rule="evenodd" d="M80.8284 18.2291H75.4934L75.4855 18.2134L71.5352 9.11007L71.5487 9.09663L78.382 1.70799C78.8026 1.24879 79.0535 1.01583 79.2739 0.880311C79.5135 0.733591 79.7194 0.680951 80.0636 0.678711H83.5078C83.6686 0.679831 83.7699 0.732471 83.8261 0.777271C83.861 0.806391 83.8835 0.833271 83.8981 0.862391C83.9093 0.881431 83.9161 0.907191 83.9195 0.932951H83.9273L83.9206 0.987831C83.9138 1.05951 83.8767 1.17711 83.735 1.33503L76.3595 9.23103L80.8284 18.2291Z" fill="black"/>
<path fill-rule="evenodd" clip-rule="evenodd" d="M27.2918 18.2302H27.2569L27.2648 18.1955L28.7732 11.1082H21.7925L20.2718 18.2302H16.0391L16.0469 18.1955C16.1898 17.5235 19.5541 1.71583 19.5744 1.62847C19.6992 1.10767 19.9062 0.928471 20.0727 0.831031C20.2526 0.726871 20.5046 0.678711 20.8634 0.678711H23.1524C23.2717 0.679831 23.4651 0.730231 23.6125 0.835511C23.6912 0.890391 23.7531 0.956471 23.7958 1.03039C23.8442 1.11439 23.8678 1.20959 23.8678 1.32047C23.8678 1.36863 23.8622 1.42015 23.8543 1.47391C23.8363 1.57471 22.6744 6.97647 22.5585 7.51071H29.5392C30.1072 4.84287 30.7832 1.66655 30.7922 1.62847C30.9171 1.10767 31.1241 0.928471 31.2905 0.831031C31.4705 0.726871 31.7225 0.678711 32.0813 0.678711H34.3703C34.4884 0.679831 34.683 0.730231 34.8304 0.835511C34.9091 0.890391 34.971 0.956471 35.0126 1.03039C35.0609 1.11439 35.0846 1.20959 35.0846 1.32047C35.0846 1.36863 35.0801 1.42015 35.0711 1.47391C35.0531 1.57807 31.6392 17.528 31.4953 18.2078L31.4908 18.2302H27.2918Z" fill="black"/>
<mask id="mask1" style="mask-type:alpha" maskUnits="userSpaceOnUse" x="81" y="0" width="32" height="28">
<path d="M81.8672 0.55957H112.479V27.9346H81.8672V0.55957Z" fill="white"/>
</mask>
<g mask="url(#mask1)">
<path fill-rule="evenodd" clip-rule="evenodd" d="M93.3122 4.11223C93.6373 4.19511 93.8971 4.35751 94.0366 4.62743C94.1288 4.80551 94.167 5.01719 94.167 5.26471C94.167 5.52007 94.1265 5.81687 94.0523 6.17079C93.9533 6.62999 93.8566 7.00743 93.7104 7.33335C93.5641 7.65815 93.3639 7.93143 93.0748 8.15655C92.4933 8.61015 91.589 8.88791 89.9872 9.24519C87.868 9.71447 86.4046 10.1053 85.3743 10.6149C84.3451 11.1268 83.7433 11.7394 83.2923 12.7037C82.9931 13.3489 82.7647 14.1519 82.5465 15.1745L81.9492 18.2041H95.6811L96.3211 15.1341H86.7668C86.7668 15.1341 86.9153 14.3961 87.0357 14.125C87.1931 13.7756 87.3967 13.5135 87.6633 13.3186C87.9288 13.1226 88.2505 12.9961 88.6419 12.8863C89.4259 12.6701 90.5091 12.5234 92.103 12.118C94.0681 11.6117 95.3942 11.0596 96.329 10.1613C97.2637 9.26535 97.8351 8.00535 98.2569 6.03079C98.4132 5.29943 98.4999 4.58151 98.4999 4.03719C98.4999 3.25431 98.3491 2.65623 98.0781 2.19591C97.8081 1.73447 97.4155 1.40407 96.9049 1.15991C95.8858 0.671587 94.3898 0.558467 92.6137 0.559578C90.355 0.558467 88.5767 0.792547 87.255 1.60007C85.9345 2.40647 85.0132 3.87591 84.5026 6.26487L84.3575 6.94023H88.5328L88.6914 6.19431C88.8556 5.47863 89.0064 4.99143 89.2786 4.64535C89.5496 4.29591 89.9411 4.13015 90.4765 4.06295C90.8353 4.01591 91.2695 4.00583 91.8105 4.00583C91.896 4.00471 91.9781 4.00359 92.0569 4.00359C92.572 4.00471 92.9837 4.02711 93.3122 4.11223Z" fill="black"/>
<path fill-rule="evenodd" clip-rule="evenodd" d="M104.83 2.41939C104.344 2.92115 100.269 7.16707 98.6005 8.90755C98.2675 9.26371 97.9109 9.65795 97.7523 9.98163C97.6252 10.2179 97.4576 10.8765 97.3722 11.3469C97.1944 12.3258 97.0617 13.2207 96.9796 13.588C96.9582 13.6832 96.9492 13.7695 96.9492 13.8501C96.9503 14.1514 97.0763 14.353 97.245 14.4963C97.4149 14.6386 97.6399 14.7047 97.8671 14.7047C98.0707 14.7047 105.956 14.7047 105.956 14.7047L105.211 18.2069L109.47 17.8071L110.131 14.7047H111.651L112.313 11.6056H110.791C110.791 11.6056 112.312 4.52835 112.359 4.26627C112.882 1.40243 111.688 0.564666 108.999 0.564666C108.312 0.564666 106.759 0.423546 104.83 2.41939ZM106.617 11.6056H100.506L107.776 4.10387H108.218L106.617 11.6056Z" fill="black"/>
<path fill-rule="evenodd" clip-rule="evenodd" d="M95.2987 27.9993C92.5508 27.9982 89.9108 27.2691 87.6656 25.887C85.461 24.5307 84.1742 22.9313 83.5657 22.0275L82.7625 24.0883C82.6894 24.2765 82.4881 24.3952 82.2766 24.3605C82.0652 24.3235 81.9122 24.1454 81.9111 23.9349L81.8672 19.8984V19.895C81.8683 19.7819 81.9144 19.6744 81.9954 19.5949C82.0798 19.512 82.19 19.4672 82.307 19.4672L86.4328 19.4649H86.4373C86.6409 19.4717 86.8175 19.6206 86.8569 19.8177C86.8614 19.8446 86.8648 19.8726 86.8648 19.9006C86.8648 20.0787 86.7523 20.2411 86.5836 20.3061L84.569 21.0833C86.335 22.6491 89.9727 25.1691 95.0805 25.1702C95.5169 25.1702 95.9601 25.1512 96.3988 25.1142C98.5528 24.9317 100.726 24.4041 102.687 23.591C104.401 22.8765 105.916 21.9648 107.072 20.9512L104.995 20.3408C104.809 20.2881 104.677 20.1168 104.677 19.923C104.677 19.9096 104.679 19.8961 104.68 19.8805C104.701 19.6733 104.868 19.5086 105.078 19.4896L109.108 19.1233C109.127 19.1211 109.143 19.1211 109.155 19.1211C109.257 19.1211 109.357 19.1581 109.435 19.2219C109.527 19.2992 109.583 19.4045 109.592 19.5209C109.927 23.4645 109.927 23.4656 109.927 23.4801C109.927 23.6773 109.794 23.8486 109.602 23.9001C109.566 23.9102 109.529 23.9158 109.489 23.9158C109.32 23.9158 109.164 23.8206 109.091 23.6739L108.119 21.8158C107.337 22.8664 105.977 24.3515 103.848 25.6406C101.69 26.9477 99.2761 27.7216 96.68 27.94L96.419 27.9624V27.9601C96.0433 27.9859 95.6665 27.9993 95.2987 27.9993Z" fill="black"/>
</g>
</g>
<g clip-path="url(#clip2)">
<path d="M398.278 11.3848L395.223 15.6597L402.282 25.9494V11.3848H398.278ZM377.147 12.2605V25.4424L383.812 15.5791L380.688 11.5C383.245 10.8317 385.641 9.66795 387.735 8.0663L389.749 10.6128L393.568 4.86301H415.289V11.3848H410.405V27.3091H393.568L389.263 20.914L384.785 27.3091H368.954V22.9305C367.82 26.007 364.221 27.9198 357.104 27.9198C346.538 27.9198 346.017 24.198 345.855 19.9461H354.211C354.234 21.2136 354.454 22.1354 354.986 22.7461C355.588 23.3914 356.444 23.7256 357.335 23.6679C359.036 23.6679 360.865 23.1955 360.865 21.3519C360.865 20.9717 360.737 20.6029 360.518 20.3033C359.395 18.8284 350.091 17.7453 347.476 15.049C346.423 13.9659 346.098 12.3527 346.098 11.0391C346.098 6.03832 350.01 3.75684 357.798 3.75684C366.072 3.75684 368.039 6.63749 368.144 11.3733H360.101C360.043 10.1058 359.661 9.10334 359.106 8.64243C358.608 8.19305 357.937 7.9626 357.266 8.00869C355.541 8.04326 354.627 8.7807 354.627 9.93297C354.616 10.3132 354.743 10.6819 354.974 10.9815C356.236 12.4219 365.239 13.4474 367.831 16.1898C368.329 16.6968 368.711 17.3075 368.954 17.9642V12.6638C371.696 12.7906 374.439 12.6523 377.147 12.2605Z" fill="black"/>
<path d="M368.953 4.85142C377.297 5.46212 381.995 3.09998 383.603 0.0234375H392.109C389.552 7.39792 381.567 12.0185 368.941 11.3963V4.85142H368.953Z" fill="black"/>
</g>
<path d="M746.668 13.5361V11.9014H743.271C742.501 11.9014 742.238 11.5255 742.238 10.7921V0.154297H740.32V10.905C740.32 12.3144 741.109 13.5361 742.933 13.5361H746.668Z" fill="black"/>
<path d="M753.851 7.991H749.566C749.585 7.40813 749.623 7.12635 749.81 6.69427C750.111 5.97967 750.807 5.49114 751.709 5.49114C752.611 5.49114 753.287 5.97967 753.588 6.69427C753.776 7.12635 753.832 7.40813 753.851 7.991ZM755.75 9.32537V8.47954C755.75 5.77316 754.265 3.89355 751.709 3.89355C749.266 3.89355 747.668 5.67907 747.668 8.76132C747.668 12.3888 749.566 13.6481 751.953 13.6481C753.626 13.6481 754.547 13.1408 755.524 12.1635L754.302 11.017C753.626 11.6935 753.062 11.9944 751.991 11.9944C750.431 11.9944 749.566 10.9603 749.566 9.32537H755.75Z" fill="black"/>
<path d="M759.698 4.00684H757.781V13.5356H759.698V4.00684Z" fill="black"/>
<path d="M768.086 8.76132C768.086 10.4532 767.841 11.9379 766.112 11.9379C764.383 11.9379 764.12 10.4532 764.12 8.76132C764.12 7.06965 764.383 5.6038 766.112 5.6038C767.841 5.6038 768.086 7.06965 768.086 8.76132ZM770.003 8.76132C770.003 7.31404 769.89 5.69789 768.932 4.73915C768.406 4.21298 767.56 3.89355 766.601 3.89355C765.567 3.89355 764.797 4.15676 764.083 5.02093V4.00622H762.203V17.3883H764.12V12.5579C764.815 13.3849 765.605 13.6481 766.62 13.6481C767.578 13.6481 768.406 13.3285 768.932 12.8026C769.89 11.8433 770.003 10.2088 770.003 8.76132Z" fill="black"/>
<path d="M778.523 13.5356V11.8254H773.748L778.523 5.52914V4.00684H771.681V5.71684H776.154L771.418 12.0135V13.5356H778.523Z" fill="black"/>
<path d="M782.538 4.00684H780.621V13.5356H782.538V4.00684Z" fill="black"/>
<path d="M790.237 8.59269C790.237 10.0964 790.03 11.5813 788.301 11.5813C786.572 11.5813 786.347 10.0967 786.347 8.59269C786.347 7.0892 786.572 5.60429 788.301 5.60429C790.031 5.60429 790.237 7.08895 790.237 8.59269ZM792.154 13.4795V4.0067H790.294V5.02166C789.579 4.15701 788.809 3.89355 787.794 3.89355C786.835 3.89355 786.027 4.19464 785.501 4.72106C784.58 5.64192 784.43 6.97653 784.43 8.59269C784.43 10.2088 784.58 11.5437 785.501 12.4643C786.027 12.9907 786.816 13.3104 787.775 13.3104C788.753 13.3104 789.542 13.0474 790.237 12.2202V13.4421C790.237 14.72 789.617 15.8665 788.001 15.8665C787.061 15.8665 786.535 15.5844 785.933 15.0209L784.712 16.2423C785.708 17.1632 786.629 17.5014 788.076 17.5014C790.613 17.5014 792.154 15.8098 792.154 13.4795Z" fill="black"/>
<path d="M800.438 7.991H796.153C796.171 7.40813 796.209 7.12635 796.397 6.69427C796.697 5.97967 797.393 5.49114 798.295 5.49114C799.197 5.49114 799.874 5.97967 800.175 6.69427C800.362 7.12635 800.419 7.40813 800.438 7.991ZM802.336 9.32537V8.47954C802.336 5.77316 800.851 3.89355 798.295 3.89355C795.851 3.89355 794.254 5.67907 794.254 8.76132C794.254 12.3888 796.153 13.6481 798.539 13.6481C800.212 13.6481 801.133 13.1408 802.11 12.1635L800.889 11.017C800.212 11.6935 799.648 11.9944 798.577 11.9944C797.016 11.9944 796.153 10.9603 796.153 9.32537H802.336Z" fill="black"/>
<path d="M809.597 4.00707V5.64204H807.306C806.535 5.64204 806.272 6.01792 806.272 6.75133V13.5358H804.355V6.63794C804.355 5.22854 805.145 4.00684 806.968 4.00684H809.597V4.00707Z" fill="black"/>
<path d="M759.752 0.0976562H757.723V2.12731H759.752V0.0976562Z" fill="black"/>
<path d="M782.596 0.0976562H780.566V2.12731H782.596V0.0976562Z" fill="black"/>
<path d="M716.371 0H720.347C720.347 0 720.347 12.0293 720.347 19.9092C720.347 22.1049 722.127 23.8848 724.323 23.8848C728.216 23.8848 732.256 23.8849 732.256 23.8849V27.8605C732.256 27.8605 728.216 27.8605 724.323 27.8605C719.931 27.8605 716.371 24.3005 716.371 19.9092V0Z" fill="black"/>
<path d="M742.547 28.0003C741.561 28.0003 740.931 27.7276 740.32 27.1169L740.677 26.7598C741.279 27.3618 741.777 27.5492 742.576 27.5492C743.637 27.5492 744.295 27.0423 744.295 26.1679C744.295 25.7644 744.182 25.4443 743.928 25.2287C743.675 25.0315 743.515 24.9465 742.961 24.8712L742.181 24.7492C741.673 24.6735 741.279 24.5141 740.988 24.2604C740.639 23.9696 740.461 23.5561 740.461 23.0297C740.461 21.9023 741.25 21.1973 742.538 21.1973C743.365 21.1973 743.891 21.4233 744.464 21.9211L744.135 22.2496C743.741 21.874 743.299 21.6298 742.51 21.6298C741.533 21.6298 740.96 22.156 740.96 23.0109C740.96 23.3963 741.072 23.6876 741.307 23.8846C741.542 24.0818 741.927 24.2323 742.303 24.2981L743.026 24.411C743.656 24.4953 743.947 24.618 744.22 24.8524C744.587 25.1535 744.802 25.6136 744.802 26.1491C744.802 27.2862 743.947 28.0003 742.547 28.0003Z" fill="black"/>
<path d="M746.378 26.7603V23.7724H745.758V23.4153H746.378V21.9678H746.857V23.4153H747.882V23.7724H746.857V26.77C746.857 27.249 747.073 27.5215 747.553 27.5215H747.882V27.9441H747.468C746.754 27.9439 746.378 27.446 746.378 26.7603Z" fill="black"/>
<path d="M751.962 27.4935C751.577 27.8786 751.22 28.0008 750.581 28.0008C749.905 28.0008 749.538 27.8879 749.247 27.5876C749.031 27.3715 748.918 27.0428 748.918 26.7041C748.918 25.8773 749.51 25.3983 750.496 25.3983H751.962V24.8907C751.962 24.1676 751.615 23.7819 750.685 23.7819C750.045 23.7819 749.726 23.9418 749.435 24.355L749.087 24.0547C749.472 23.5192 749.942 23.3594 750.685 23.3594C751.888 23.3594 752.442 23.8946 752.442 24.8436V27.9444H751.962V27.4935H751.962ZM750.553 25.7837C749.783 25.7837 749.397 26.0841 749.397 26.6951C749.397 27.296 749.754 27.5785 750.581 27.5785C750.995 27.5785 751.38 27.5409 751.709 27.2305C751.878 27.0709 751.962 26.7791 751.962 26.3661V25.7837H750.553Z" fill="black"/>
<path d="M756.824 27.3619C756.42 27.8876 755.997 28.0005 755.48 28.0005C755.001 28.0005 754.607 27.8409 754.372 27.6061C753.911 27.1459 753.789 26.3941 753.789 25.6796C753.789 24.9654 753.911 24.2139 754.372 23.7538C754.607 23.5187 755.001 23.3591 755.48 23.3591C755.997 23.3591 756.42 23.4713 756.824 23.9977V21.2539H757.303V27.9438H756.824V27.3619ZM755.546 23.7814C754.437 23.7814 754.268 24.7404 754.268 25.6796C754.268 26.6195 754.437 27.578 755.546 27.578C756.655 27.578 756.824 26.6195 756.824 25.6796C756.824 24.7404 756.655 23.7814 755.546 23.7814Z" fill="black"/>
<path d="M759.237 26.7603V23.7724H758.617V23.4153H759.237V21.9678H759.717V23.4153H760.741V23.7724H759.717V26.77C759.717 27.249 759.933 27.5215 760.412 27.5215H760.741V27.9441H760.328C759.613 27.9439 759.237 27.446 759.237 26.7603Z" fill="black"/>
<path d="M765.89 27.9436L764.612 24.1665L763.334 27.9436H762.846L761.398 23.415H761.925L763.081 27.3803L764.377 23.415H764.847L766.144 27.3803L767.3 23.415H767.825L766.379 27.9436H765.89Z" fill="black"/>
<path d="M770.493 27.5678C771.029 27.5678 771.358 27.4082 771.744 27.023L772.101 27.3048C771.64 27.765 771.217 27.9999 770.466 27.9999C769.216 27.9999 768.539 27.1919 768.539 25.6789C768.539 24.2133 769.216 23.3584 770.353 23.3584C771.49 23.3584 772.166 24.1754 772.166 25.5665V25.7825H769.018C769.018 26.9382 769.526 27.5678 770.493 27.5678ZM771.527 24.5425C771.33 24.0625 770.879 23.7812 770.352 23.7812C769.826 23.7812 769.376 24.0625 769.178 24.5425C769.074 24.8335 769.046 24.9557 769.018 25.3971H771.687C771.658 24.965 771.649 24.8152 771.527 24.5425Z" fill="black"/>
<path d="M778.411 25.454L777.378 26.6471V27.9438H776.898V21.2539H777.378V25.9706L779.624 23.4153H780.235L778.741 25.106L780.563 27.9438H779.971L778.411 25.454Z" fill="black"/>
<path d="M783.243 27.5678C783.779 27.5678 784.108 27.4082 784.494 27.023L784.851 27.3048C784.39 27.765 783.967 27.9999 783.216 27.9999C781.966 27.9999 781.289 27.1919 781.289 25.6789C781.289 24.2133 781.966 23.3584 783.103 23.3584C784.24 23.3584 784.916 24.1754 784.916 25.5665V25.7825H781.768C781.768 26.9382 782.276 27.5678 783.243 27.5678ZM784.277 24.5425C784.08 24.0625 783.629 23.7812 783.102 23.7812C782.576 23.7812 782.126 24.0625 781.928 24.5425C781.824 24.8335 781.796 24.9557 781.768 25.3971H784.437C784.409 24.965 784.399 24.8152 784.277 24.5425Z" fill="black"/>
<path d="M774.649 23.415H775.735V23.8376H774.733C774.198 23.8376 774.038 24.082 774.038 24.5986V27.9438H773.559V24.5891C773.559 23.8755 773.907 23.415 774.649 23.415Z" fill="black"/>
<g clip-path="url(#clip3)">
<path d="M638.278 27.5091V15.0899C638.278 11.521 640.723 9.1213 644.29 9.1213C647.357 9.1213 648.716 10.5481 648.716 13.8877V27.5091H650.455V13.6976C650.455 9.51314 648.446 7.47957 644.28 7.47957C641.532 7.47957 639.42 8.77275 638.135 11.2226L637.923 11.6242L637.816 11.1853C637.189 8.79534 635.282 7.47957 632.429 7.47957C631.552 7.47957 630.742 7.62106 630.007 7.88867C626.994 8.88757 626.102 11.1502 626.102 11.1502V8.21055H624.116V27.5091H626.102V15.2396C626.102 11.6399 628.495 9.1213 632.03 9.1213C634.908 9.1213 636.291 10.8019 636.291 14.1127V27.5091H638.278ZM596.909 9.01557C600.537 9.01557 602.907 11.7886 603.099 16.0926L590.534 16.091C590.76 11.8529 593.265 9.01557 596.909 9.01557ZM602.882 21.5693C602.364 24.2915 599.945 25.9796 596.874 25.9796C592.865 25.9796 590.228 22.7812 590.228 17.9831V17.8582H604.89V17.1163C604.89 10.9462 601.985 7.43502 596.854 7.43502C591.615 7.43502 588.525 11.2396 588.525 17.5759C588.525 23.8319 591.641 27.6132 596.858 27.6132C601.145 27.6132 604.235 25.2807 604.79 21.5693H602.882ZM582.726 16.3655C582.726 11.74 584.819 9.44694 588.796 9.44694H588.937V7.71361H588.834C586.818 7.71361 585.273 8.23439 584.13 9.39424C583.327 10.0873 582.771 11.0388 582.477 11.6317V11.1276V8.21055H580.739V27.5091H582.726V16.3655ZM504.016 24.1528C500.471 24.1528 498.488 21.7211 498.488 17.164C498.488 12.6099 500.471 10.1437 504.016 10.1437C507.525 10.1437 509.505 12.5726 509.505 17.164C509.505 21.7211 507.525 24.1528 504.016 24.1528ZM503.979 6.4973C497.84 6.4973 494.141 10.4446 494.141 17.164C494.141 23.8858 497.879 27.7964 504.016 27.7964C510.117 27.7964 513.857 23.8479 513.857 17.164C513.857 10.4835 510.117 6.4973 503.979 6.4973ZM609.415 19.3023C609.614 19.1194 609.842 18.9484 610.091 18.7891C610.393 18.6165 612.047 17.7525 614.759 17.5699C616.778 17.4281 618.373 17.2276 619.577 16.764L619.813 16.6749L619.841 18.6287L619.834 18.6328C619.834 18.6328 619.836 18.6529 619.841 18.6912L619.846 19.2041L619.856 19.6443C619.852 19.6584 619.852 19.6719 619.852 19.6835C619.851 19.7641 619.844 19.8378 619.841 19.9147C619.812 20.4057 619.722 21.0981 619.471 21.8344C618.879 23.441 617.482 25.164 614.286 25.7174C613.814 25.7858 613.318 25.8228 612.8 25.8228C610.022 25.8228 608.227 24.3144 608.227 21.9796C608.227 21.3585 608.366 20.796 608.64 20.2871C608.664 20.2432 608.686 20.1989 608.711 20.161C608.73 20.1296 608.752 20.0986 608.771 20.0659C608.904 19.8607 609.057 19.6684 609.221 19.4924C609.247 19.4673 609.272 19.4416 609.297 19.4159C609.335 19.3779 609.375 19.3406 609.415 19.3023V19.3023ZM606.249 22.0195C606.249 25.3716 608.636 27.4564 612.481 27.4564C615.213 27.4564 617.615 26.3684 619.55 24.2212L619.891 23.8799V24.6382C619.891 26.0634 620.388 27.286 621.629 27.5091V13.1097C621.629 9.38388 619.268 7.43973 614.729 7.43973C610.297 7.43973 607.396 9.94106 607.232 13.4065H609.1C609.313 10.6833 611.175 9.0711 614.793 9.0711C618.36 9.0711 619.817 10.3235 619.817 13.4501C619.817 15.147 619.262 15.4909 617.699 15.8325C616.551 16.0769 614.883 16.2344 614.308 16.2843C614.252 16.2868 614.195 16.2915 614.142 16.2975C614.118 16.2987 614.102 16.2987 614.102 16.2987V16.3012C612.362 16.4458 610.724 16.6526 609.267 17.3124C607.292 18.2234 606.249 19.8491 606.249 22.0195V22.0195ZM524.969 24.0753C521.729 24.0753 519.707 21.6063 519.707 17.2788C519.707 12.7238 521.729 10.219 524.969 10.219C528.437 10.219 530.306 12.5346 530.306 17.0127C530.306 21.6452 528.401 24.0753 524.969 24.0753ZM530.302 9.61134C528.811 7.52192 526.72 6.4973 524.012 6.4973C519.095 6.4973 515.418 10.5974 515.418 17.2411C515.418 23.6948 519.011 27.7964 524.04 27.7964C526.673 27.7964 528.561 26.769 530.302 24.5287V27.5091H534.278V0.0449047H530.302V9.61134ZM486.309 15.1906L483.756 14.6218C481.58 14.1284 480.398 13.5219 480.398 12.0788C480.398 10.8628 481.543 10.0151 483.792 10.0151C486.423 10.0151 487.911 11.1784 488.023 13.1574H492.181C492.181 9.19816 489.052 6.60051 483.945 6.60051C478.989 6.60051 476.092 9.05541 476.092 12.7771C476.092 16.0421 478.151 17.4582 482.345 18.4829L485.357 19.227C487.338 19.7227 488.482 20.2093 488.482 21.6499C488.482 23.2076 487.033 24.3903 484.44 24.3903C481.468 24.3903 479.904 23.302 479.711 20.827H475.52C475.52 25.2807 478.569 27.8799 484.058 27.8799C489.628 27.8799 492.752 25.2954 492.752 21.1549C492.752 17.4736 490.58 16.1795 486.309 15.1906ZM549.139 19.6317C549.139 22.4797 546.755 24.3784 543.703 24.3784C541.606 24.3784 540.454 23.3142 540.454 21.4931C540.454 19.8607 541.364 18.8756 543.347 18.4942C545.328 18.1124 547.4 18.0399 549.139 17.1263V19.6317ZM545.364 6.4973C540.177 6.4973 537.21 9.03973 537.21 12.9513V13.4065H541.187V13.1395C541.187 11.1307 542.567 9.99094 545.198 9.99094C547.982 9.99094 549.302 10.8628 549.302 12.7988C549.302 14.6604 548.378 14.6971 544.835 15.1549C539.459 15.8344 536.291 17.1263 536.291 21.873C536.291 25.5163 538.654 27.7964 542.77 27.7964C545.399 27.7964 547.803 26.6165 549.444 24.4929C549.48 26.544 550.653 27.5282 553.246 27.5282C553.299 27.5282 553.362 27.5238 553.362 27.5238V12.4204C553.362 8.50953 550.7 6.4973 545.364 6.4973ZM578.252 25.6487C577.757 25.8046 576.892 25.9743 576.315 25.9743C574.88 25.9743 574.775 25.0739 574.775 23.7026V9.69322H578.252V8.21055H574.775V0.787807H572.788V23.7026C572.788 26.5089 573.46 27.4564 575.671 27.4564C576.45 27.4564 577.259 27.3284 578.252 27.0843V25.6487ZM564.677 16.8032C564.322 16.7163 563.982 16.6416 563.654 16.5629C560.248 15.7701 558.191 15.297 558.191 12.5622C558.191 10.4669 559.97 9.12851 562.728 9.12851C565.848 9.12851 567.746 10.6833 567.966 13.4065H569.942C569.614 9.69322 567.009 7.49683 562.765 7.49683C558.846 7.49683 556.212 9.64867 556.212 12.8829C556.212 16.0756 558.341 17.1332 563.107 18.2818L563.214 18.3204C566.625 19.131 568.505 19.6032 568.505 22.1114C568.505 24.4578 566.382 26.0211 563.105 26.0211C560.171 26.0211 557.918 24.0433 557.784 21.5693H555.807C556.001 25.2807 558.891 27.649 563.217 27.649C567.561 27.649 570.482 25.4206 570.482 22.171C570.482 19.2904 568.96 17.8491 564.677 16.8032Z" fill="black"/>
<path d="M653.937 9.66523C654.339 9.66523 654.737 9.65143 654.737 9.20123C654.737 8.8326 654.426 8.7457 654.103 8.7457H653.503V9.66523H653.937ZM653.503 11.1181H653.177V8.46837H654.199C654.799 8.46837 655.063 8.72688 655.063 9.20123C655.063 9.67056 654.756 9.87951 654.395 9.94194L655.188 11.1181H654.804L654.055 9.94194H653.503V11.1181ZM652.067 9.79292C652.067 10.891 652.898 11.76 654.012 11.76C655.126 11.76 655.956 10.891 655.956 9.79292C655.956 8.69676 655.126 7.82868 654.012 7.82868C652.898 7.82868 652.067 8.69676 652.067 9.79292ZM656.315 9.79292C656.315 11.0826 655.313 12.0859 654.012 12.0859C652.711 12.0859 651.707 11.0826 651.707 9.79292C651.707 8.50476 652.711 7.50021 654.012 7.50021C655.313 7.50021 656.315 8.50476 656.315 9.79292Z" fill="black"/>
</g>
<defs>
<clipPath id="clip0">
<rect width="113.328" height="28" fill="white" transform="translate(172.48)"/>
</clipPath>
<clipPath id="clip1">
<rect width="112.482" height="28" fill="white"/>
</clipPath>
<clipPath id="clip2">
<rect width="69.5492" height="28" fill="white" transform="translate(345.809)"/>
</clipPath>
<clipPath id="clip3">
<rect width="181.011" height="28" fill="white" transform="translate(475.359)"/>
</clipPath>
</defs>
</svg>
