<?xml version="1.0" encoding="utf-8"?>
<svg viewBox="201.919 0 610.081 28" fill="none" xmlns="http://www.w3.org/2000/svg">
  <defs>
    <clipPath id="clip0">
      <rect width="139.776" height="28" fill="white" transform="translate(661.672)"/>
    </clipPath>
  </defs>
  <path fill-rule="evenodd" clip-rule="evenodd" d="M214 10.6121C214 20.8636 214.008 21.2555 214.235 22.1432C214.969 25.0155 217.172 27.1701 220.032 27.8117C220.791 27.9818 223.038 28 243.263 28C265.008 28 265.679 27.9935 266.535 27.7755C268.815 27.1949 270.695 25.6772 271.654 23.6432C272.365 22.1355 272.341 22.5677 272.341 10.7806V0H243.171H214V10.6121ZM220.096 9.6492C220.717 9.82068 220.884 10.2066 220.884 11.4611V12.4771L221.289 12.0866C221.625 11.7619 221.803 11.687 222.341 11.6427C223.639 11.5354 224.742 12.1573 225.275 13.2964C225.67 14.1415 225.669 15.7233 225.273 16.556C224.749 17.6585 223.694 18.3362 222.334 18.4449C220.801 18.5675 219.557 17.9743 219.039 16.8734L218.726 16.2075L218.687 12.8672L218.649 9.52697L219.154 9.52767C219.432 9.52802 219.856 9.58274 220.096 9.6492ZM259.521 9.70891C260.129 10.0218 260.207 10.4071 260.205 13.0959C260.203 15.751 260.085 16.5489 259.586 17.3002C259.147 17.9602 258.219 18.3821 257.057 18.449C255.884 18.5166 255.159 18.2839 254.385 17.5909C253.544 16.8385 253.266 16.1982 253.277 15.0456C253.288 13.989 253.495 13.3266 254.023 12.6625C254.913 11.5441 256.815 11.2608 257.727 12.111L257.989 12.3559V10.9414V9.52697H258.579C258.903 9.52697 259.327 9.60888 259.521 9.70891ZM247.569 10.3351C247.827 10.4916 247.963 10.6799 248.011 10.9446C248.049 11.1554 248.065 12.8963 248.047 14.8133L248.013 18.2988L247.43 18.2926C245.853 18.2759 245.807 18.1828 245.757 14.9529L245.718 12.4097L245.465 12.4861C244.923 12.6503 244.244 12.6843 244.009 12.559C243.763 12.4281 243.456 11.6044 243.556 11.3445C243.602 11.2261 244.844 10.6711 245.971 10.2651C246.565 10.0514 247.144 10.0769 247.569 10.3351ZM235.936 10.9746V11.725L236.899 11.7588L237.862 11.7925L237.897 12.2775C237.926 12.6762 237.873 12.8291 237.596 13.1377C237.309 13.4572 237.161 13.521 236.598 13.5676L235.936 13.6222V14.8858C235.936 16.0197 235.962 16.1747 236.185 16.3965C236.399 16.61 236.526 16.6353 237.118 16.5818L237.803 16.52V16.8983C237.803 17.9094 237.273 18.3568 236.074 18.3568C235.14 18.3568 234.453 17.9981 234.069 17.3112C233.782 16.7966 233.778 16.747 233.778 14.1561V11.5239L234.131 11.0895C234.543 10.5823 235.157 10.2241 235.614 10.2241C235.933 10.2241 235.936 10.2323 235.936 10.9746ZM240.954 10.9793V11.7344H241.887H242.821V12.1937C242.821 12.4463 242.761 12.7836 242.688 12.9433C242.524 13.301 241.933 13.5934 241.374 13.5934H240.954V14.9212C240.954 16.5696 241.02 16.672 242.026 16.5811L242.704 16.52V17.0395C242.704 17.3251 242.647 17.6644 242.578 17.7934C242.395 18.1339 241.761 18.3568 240.976 18.3568C240.047 18.3568 239.368 17.9983 239.005 17.3159C238.748 16.8307 238.737 16.7016 238.737 14.1732C238.737 11.621 238.745 11.5238 239.003 11.1434C239.331 10.6592 240.068 10.2285 240.575 10.2259L240.954 10.2241V10.9793ZM231.017 11.7858C231.279 11.878 231.654 12.0711 231.849 12.215C232.352 12.5855 232.786 13.5081 232.786 14.2087C232.786 14.6983 232.732 14.8323 232.401 15.1615C231.9 15.6601 231.356 15.7994 229.905 15.8001C229.251 15.8005 228.687 15.847 228.652 15.9033C228.511 16.1304 229.062 16.5969 229.608 16.7136C230.209 16.8419 231.683 16.7126 232.09 16.4958C232.406 16.3271 232.489 16.5665 232.325 17.1743C232.093 18.0325 231.28 18.4712 229.919 18.4723C228.897 18.4733 228.072 18.1937 227.472 17.6426C226.706 16.9394 226.431 16.2864 226.429 15.1594C226.427 14.3341 226.472 14.1366 226.819 13.4342C227.226 12.6119 227.815 12.0687 228.622 11.7723C229.146 11.5799 230.451 11.5872 231.017 11.7858ZM265.983 11.8914C267.44 12.5669 268.052 14.398 267.104 15.2418C266.621 15.6718 266.066 15.7994 264.676 15.8001C264.022 15.8005 263.457 15.8493 263.42 15.9086C263.281 16.133 263.884 16.6351 264.41 16.7328C264.98 16.8387 266.492 16.6928 266.86 16.4963C267.074 16.3827 267.091 16.4118 267.091 16.8916C267.091 17.8933 266.187 18.473 264.624 18.473C263.193 18.473 262.076 17.8451 261.461 16.6947C261.095 16.0107 261.086 14.3609 261.445 13.5874C261.793 12.8359 262.34 12.2616 263.035 11.9165C263.859 11.5074 265.131 11.4966 265.983 11.8914ZM229.182 13.407C228.898 13.5634 228.597 13.9979 228.589 14.2614C228.584 14.4399 229.936 14.4638 230.386 14.2934C230.776 14.1457 230.773 13.7947 230.378 13.4857C230.028 13.2115 229.588 13.1825 229.182 13.407ZM263.982 13.3601C263.68 13.4812 263.357 13.916 263.357 14.2002C263.357 14.3772 263.461 14.405 264.086 14.395C265.058 14.3797 265.391 14.2769 265.434 13.9796C265.509 13.4685 264.637 13.0967 263.982 13.3601ZM221.463 13.6805C220.784 14.2866 220.727 15.7781 221.359 16.4078C221.607 16.6549 221.794 16.7303 222.159 16.7303C222.935 16.7303 223.335 16.1732 223.335 15.0925C223.335 13.6394 222.346 12.8932 221.463 13.6805ZM255.95 13.6381C255.278 14.3077 255.317 15.8452 256.022 16.4358C256.262 16.6366 256.51 16.7291 256.802 16.7266C257.562 16.7201 257.896 16.2577 257.896 15.2138C257.896 14.8424 257.834 14.3512 257.758 14.1221C257.512 13.3791 256.486 13.1045 255.95 13.6381ZM251.956 16.0351C252.399 16.3821 252.558 16.9601 252.348 17.4604C252.127 17.989 251.743 18.2412 251.167 18.2381C250.208 18.2328 249.633 17.2365 250.101 16.3945C250.434 15.7961 251.41 15.607 251.956 16.0351Z" fill="black"/>
  <path d="M377.87 15.3285C377.745 15.0298 377.65 14.6997 377.556 14.3066C377.462 13.9136 377.336 13.5363 377.194 13.1589C377.053 12.7974 376.88 12.4986 376.66 12.2314C376.44 11.9956 376.157 11.8698 375.811 11.8698C375.151 11.8698 374.569 12.3572 374.082 13.3004C373.594 14.2437 373.327 15.6901 373.327 17.561C373.327 19.8249 373.783 21.5228 374.695 22.7176C375.591 23.9125 376.817 24.4941 378.311 24.4941C379.16 24.4941 379.961 24.274 380.669 23.8653C381.392 23.4251 382.1 22.6705 382.634 21.5385L382.854 22.073C382.351 23.9911 381.424 25.5318 380.182 26.5222C378.94 27.5127 377.415 28 375.591 28C374.522 28 373.531 27.8114 372.604 27.4183C371.66 27.0253 370.859 26.4908 370.12 25.7833C369.412 25.0758 368.862 24.2269 368.422 23.2521C368.013 22.2774 367.793 21.1612 367.793 19.9506C367.793 18.7086 368.013 17.561 368.453 16.5233C368.893 15.4857 369.507 14.5582 370.277 13.7721C371.047 13.0017 371.975 12.3886 373.044 11.9484C374.113 11.5082 375.276 11.2881 376.55 11.2881C377.525 11.2881 378.374 11.3824 379.081 11.6025C379.804 11.8226 380.402 12.0899 380.873 12.4358C381.361 12.7816 381.722 13.1432 381.974 13.5834C382.21 13.9922 382.335 14.4324 382.335 14.8411C382.335 15.4228 382.147 15.9417 381.722 16.3504C381.313 16.7592 380.779 16.9793 380.071 16.9793C378.987 16.9478 378.263 16.3976 377.87 15.3285Z" fill="black"/>
  <path d="M390.998 27.9685C389.787 27.9685 388.639 27.7484 387.586 27.3396C386.533 26.8994 385.637 26.3177 384.882 25.5631C384.127 24.8085 383.546 23.9281 383.105 22.9376C382.665 21.9472 382.477 20.8467 382.477 19.699C382.477 18.5513 382.697 17.4665 383.153 16.4446C383.609 15.4227 384.222 14.5266 385.008 13.772C385.778 13.0174 386.69 12.4042 387.728 11.9797C388.781 11.5238 389.866 11.3037 391.013 11.3037C392.271 11.3037 393.419 11.5238 394.488 11.964C395.541 12.4042 396.437 12.9859 397.192 13.7405C397.947 14.4952 398.512 15.3756 398.937 16.366C399.346 17.3879 399.566 18.457 399.566 19.6204C399.566 20.7209 399.346 21.79 398.937 22.8119C398.497 23.8337 397.915 24.7142 397.145 25.4845C396.374 26.2549 395.463 26.868 394.441 27.3396C393.34 27.7484 392.224 27.9685 390.998 27.9685ZM388.278 19.5103C388.278 21.9629 388.514 23.8809 388.985 25.2801C389.457 26.6793 390.133 27.3711 390.982 27.3711C391.328 27.3711 391.642 27.2453 391.957 27.0252C392.271 26.8051 392.57 26.3963 392.806 25.8304C393.041 25.2487 393.246 24.4626 393.387 23.4722C393.529 22.4817 393.607 21.2083 393.607 19.6833C393.607 17.1836 393.372 15.2498 392.884 13.8978C392.397 12.53 391.721 11.8854 390.84 11.8854C390.495 11.8854 390.18 12.0112 389.866 12.247C389.551 12.4828 389.284 12.9073 389.064 13.489C388.828 14.0707 388.624 14.8568 388.482 15.8472C388.356 16.7905 388.278 18.0168 388.278 19.5103Z" fill="black"/>
  <path d="M419.537 8.58456C419.836 8.88326 420.166 9.11909 420.591 9.29202C420.999 9.46496 421.424 9.52785 421.833 9.52785C422.776 9.52785 423.562 9.21342 424.191 8.58456C424.82 7.9557 425.134 7.20106 425.134 6.3521C425.134 5.42453 424.82 4.65418 424.191 4.02532C423.562 3.39646 422.776 3.08203 421.833 3.08203C421.392 3.08203 420.984 3.16064 420.591 3.31785C420.182 3.49079 419.836 3.71089 419.537 4.02532C419.239 4.32403 419.003 4.65418 418.83 5.07866C418.657 5.50314 418.562 5.9119 418.562 6.36782C418.562 6.80803 418.657 7.20106 418.83 7.57838C419.003 7.9557 419.239 8.30157 419.537 8.58456Z" fill="black"/>
  <path d="M425.368 26.4445C424.928 26.0986 424.739 25.5012 424.739 24.6522V15.7696L424.818 11.4147L424.551 11.3204L416.879 13.4114V13.7572C417.146 13.7258 417.413 13.7572 417.681 13.8358C417.948 13.9145 418.184 14.0245 418.388 14.1974C418.592 14.3704 418.75 14.6062 418.891 14.9206C419.033 15.2351 419.08 15.6438 419.08 16.1312V24.5265C419.08 24.9352 419.048 25.3754 418.891 25.7685C418.765 26.0357 418.231 26.7589 417.649 26.7589C417.067 26.7589 416.58 26.1929 416.391 25.7685C416.218 25.4069 416.203 24.9195 416.203 24.5265C416.203 24.4793 416.203 15.7067 416.203 15.7067C416.203 14.2446 415.81 13.1598 415.008 12.4052C414.238 11.682 413.184 11.3047 411.926 11.3047C410.779 11.3047 409.71 11.6034 408.735 12.1536C407.76 12.7353 406.943 13.3956 406.235 14.1188V11.399L405.968 11.3047L398.453 13.3956V13.7415C398.72 13.7101 398.988 13.7415 399.255 13.8201C399.522 13.8987 399.758 14.0088 399.962 14.1817C400.151 14.3547 400.324 14.5905 400.465 14.9049C400.607 15.2193 400.654 15.6281 400.654 16.1155V24.6522C400.654 25.5012 400.465 26.1143 400.072 26.4445C399.679 26.7904 399.239 26.979 398.752 27.0262V27.3721H407.76V27.0576C407.304 27.0105 406.958 26.8218 406.66 26.4759C406.392 26.1301 406.251 25.5326 406.251 24.6208V14.842C406.613 14.5276 407.006 14.2603 407.399 14.0717C407.807 13.883 408.2 13.7572 408.609 13.7572C409.191 13.7572 409.663 13.9459 409.993 14.3704C410.339 14.7791 410.496 15.3923 410.496 16.2412V24.6365C410.496 25.5326 410.37 26.1615 410.134 26.4917C409.898 26.8375 409.505 27.0262 408.987 27.0734V27.3878H417.193H417.696H426.673V27.0419C426.264 26.979 425.809 26.7746 425.368 26.4445Z" fill="black"/>
  <path d="M369.285 24.667C368.704 25.5003 368.216 25.7204 367.76 25.7204C367.1 25.7204 366.786 25.2644 366.786 24.3526V16.6491C366.786 15.014 366.22 13.7249 365.088 12.7344C363.94 11.7597 362.211 11.2566 359.852 11.2566C357.62 11.2566 355.969 11.6182 354.884 12.3257C353.784 13.0331 353.249 13.9135 353.249 14.904C353.249 15.5643 353.47 16.0988 353.878 16.4919C354.319 16.9006 354.822 17.105 355.435 17.105C355.922 17.105 356.409 16.9635 356.897 16.6648C357.353 16.3661 357.73 15.863 357.997 15.1398C358.139 14.6996 358.265 14.2908 358.312 13.8978C358.359 13.489 358.438 13.1432 358.5 12.8287C358.579 12.5143 358.689 12.2628 358.862 12.0741C359.035 11.8855 359.302 11.7754 359.695 11.7754C360.151 11.7754 360.528 11.9955 360.764 12.4514C361 12.9074 361.126 13.7091 361.126 14.9354V17.9068C359.397 18.3627 357.966 18.8501 356.818 19.3374C355.702 19.8248 354.806 20.3279 354.114 20.8467C353.454 21.3498 352.998 21.9158 352.731 22.4817C352.463 23.0477 352.338 23.6451 352.338 24.274C352.338 24.8871 352.463 25.4217 352.683 25.8619C352.872 26.2706 353.171 26.6165 353.485 26.9152C352.919 26.8366 352.338 26.6951 352.102 26.4593C351.74 26.0662 351.473 25.6889 351.473 24.6041V0.0786075L351.174 0L346.316 1.242C345.389 1.00617 344.445 0.880405 343.439 0.880405C342.449 0.880405 341.443 1.05334 340.452 1.41493C339.462 1.77653 338.534 2.3425 337.701 3.06569C336.868 3.82032 336.192 4.76361 335.689 5.94272C335.154 7.10612 334.855 8.48961 334.84 10.0775V10.7849V11.1308H332.34V12.1213H334.824V24.4312C334.824 25.3116 334.651 25.9405 334.289 26.3492C333.943 26.758 333.488 27.0095 332.922 27.0567V27.3554H342.339V27.0567C341.773 27.0095 341.317 26.758 340.971 26.3492C340.625 25.9562 340.436 25.3273 340.436 24.4312C340.436 24.4312 340.436 12.1527 340.436 12.1213H343.644V11.1308H340.421C340.421 11.005 340.389 10.895 340.389 10.7849L340.311 10.0775C340.185 9.22852 340.075 8.39528 339.918 7.59348C339.776 6.82313 339.698 5.98989 339.698 5.10949C339.698 4.1662 339.933 3.3644 340.405 2.71982C340.861 2.09096 341.616 1.74509 342.637 1.74509C343.093 1.74509 343.534 1.83942 343.958 2.05952C344.351 2.27962 344.681 2.5626 344.98 2.90848C345.279 3.27007 345.483 3.67883 345.64 4.15047C345.782 4.6064 345.876 5.12521 345.876 5.67546V24.4941C345.876 25.3431 345.687 26.0191 345.31 26.365C344.948 26.7108 344.54 26.8995 344.068 26.9466V27.2611H354.083C354.319 27.4026 354.586 27.5283 354.853 27.6227C355.309 27.7642 355.828 27.8585 356.331 27.8585C357.18 27.8585 358.06 27.6698 358.956 27.2454C359.852 26.8366 360.654 26.2706 361.362 25.5474C361.598 26.3178 361.991 26.9624 362.572 27.324C363.138 27.6856 363.814 27.8585 364.632 27.8585C365.654 27.8585 366.55 27.6227 367.383 27.1353C368.138 26.6951 368.672 26.192 369.505 24.9029L369.285 24.667ZM359.601 25.5946C359.035 25.5946 358.548 25.3745 358.139 24.9657C357.73 24.557 357.526 23.8967 357.526 23.0006C357.526 22.6075 357.573 22.2302 357.667 21.8057C357.762 21.397 357.934 21.0039 358.202 20.6109C358.469 20.2178 358.831 19.8405 359.302 19.4632C359.774 19.0859 360.371 18.7872 361.094 18.4885V23.7709C361.094 24.2111 361.126 24.6041 361.189 24.9815C360.733 25.3902 360.198 25.5946 359.601 25.5946Z" fill="black"/>
  <path d="M516.733 20.7541C516.555 20.7541 516.348 20.7319 516.119 20.6949C515.882 20.6579 515.646 20.5766 515.394 20.4509C515.143 20.3252 514.899 20.1551 514.662 19.9258C514.418 19.6966 514.204 19.4008 514.019 19.031C513.827 18.6613 513.671 18.2028 513.56 17.6555C513.442 17.1157 513.383 16.4649 513.383 15.718V10.3935C513.383 9.63919 513.442 8.98842 513.568 8.45597C513.693 7.91612 513.856 7.46502 514.063 7.10266C514.27 6.7329 514.507 6.44449 514.773 6.23003C515.039 6.01557 515.32 5.84548 515.601 5.73456C515.89 5.62363 516.171 5.54228 516.452 5.5127C516.733 5.47573 516.992 5.46094 517.236 5.46094C517.842 5.46094 518.36 5.54228 518.781 5.71237C519.203 5.88246 519.543 6.11171 519.802 6.40012C520.061 6.68853 520.253 7.02871 520.364 7.41325C520.475 7.7978 520.534 8.21193 520.534 8.64824C520.534 8.97363 520.512 9.26943 520.475 9.54305C520.438 9.81667 520.386 10.1199 520.319 10.4453H518.5V9.72054C518.5 8.07142 518.057 7.25056 517.169 7.25056C516.925 7.25056 516.718 7.29493 516.548 7.37628C516.37 7.45763 516.223 7.59813 516.112 7.7978C515.993 7.99747 515.905 8.2563 515.853 8.57429C515.794 8.89968 515.771 9.29901 515.771 9.7797V16.5906C515.771 17.0565 515.801 17.4485 515.853 17.7591C515.905 18.0697 515.993 18.3211 516.104 18.506C516.215 18.6908 516.363 18.824 516.533 18.9053C516.703 18.9866 516.91 19.0236 517.154 19.0236C517.406 19.0236 517.62 18.9571 517.805 18.824C517.99 18.6908 518.138 18.5134 518.256 18.2841C518.375 18.0549 518.463 17.7886 518.515 17.4706C518.574 17.1601 518.596 16.8199 518.596 16.4575V14.4978H517.428V13.004H520.815V20.7171H519.299L519.055 19.1863C518.766 19.741 518.441 20.1477 518.064 20.3843C517.687 20.6284 517.243 20.7541 516.733 20.7541Z" fill="black"/>
  <path d="M524.57 5.4541H527.195L529.976 20.7546H527.669L527.254 18.011H524.511L524.112 20.7546H521.797L524.57 5.4541ZM526.988 16.2658L525.931 8.64141H525.835L524.77 16.2658H526.988Z" fill="black"/>
  <path d="M530.496 17.6335C530.496 17.3081 530.563 16.1545 530.644 15.8291H532.493V16.5686C532.493 16.9753 532.515 17.3451 532.567 17.6557C532.619 17.9737 532.7 18.2399 532.811 18.4544C532.922 18.6688 533.077 18.8389 533.269 18.9424C533.462 19.0534 533.691 19.1125 533.972 19.1125C534.408 19.1125 534.741 18.9942 534.963 18.7502C535.192 18.5135 535.303 18.1586 535.303 17.6927C535.303 17.456 535.288 17.2342 535.251 17.0345C535.222 16.8348 535.162 16.6352 535.081 16.4429C535 16.2432 534.896 16.0435 534.763 15.8217C534.63 15.6072 534.452 15.3632 534.245 15.097L531.872 12.235C531.45 11.6878 531.125 11.1332 530.895 10.5785C530.666 10.0239 530.555 9.43229 530.555 8.7963C530.555 8.29343 530.637 7.82754 530.792 7.40602C530.947 6.98449 531.169 6.62213 531.465 6.31154C531.761 6.00834 532.123 5.7643 532.552 5.59421C532.981 5.42412 533.469 5.34277 534.016 5.34277C534.682 5.34277 535.229 5.43891 535.673 5.63118C536.116 5.82346 536.471 6.07489 536.73 6.37809C536.996 6.68869 537.181 7.03626 537.292 7.42081C537.403 7.80535 537.455 8.1899 537.455 8.57445C537.455 8.89984 537.366 10.0609 537.3 10.3937H535.451V9.66893C535.451 8.86286 535.34 8.24167 535.111 7.80535C534.881 7.37644 534.512 7.16198 533.994 7.16198C533.565 7.16198 533.247 7.2803 533.033 7.52434C532.818 7.76838 532.715 8.08637 532.715 8.4931C532.715 8.70756 532.729 8.89984 532.766 9.06992C532.796 9.24001 532.848 9.4027 532.907 9.55061C532.966 9.69851 533.04 9.83902 533.129 9.97213C533.218 10.1126 533.314 10.2531 533.425 10.401L536.072 13.6475C536.553 14.2835 536.922 14.8973 537.181 15.4815C537.44 16.0657 537.566 16.6869 537.566 17.3377C537.566 17.8775 537.485 18.3656 537.314 18.8019C537.144 19.2382 536.908 19.608 536.597 19.9112C536.286 20.2144 535.909 20.451 535.473 20.6137C535.037 20.7764 534.534 20.8578 533.987 20.8578C533.306 20.8578 532.744 20.769 532.293 20.5842C531.842 20.3993 531.487 20.1552 531.221 19.852C530.955 19.5488 530.77 19.2013 530.659 18.8167C530.548 18.4322 530.496 18.0328 530.496 17.6335Z" fill="black"/>
  <path d="M540.621 7.2807H538.203V5.4541H545.31V7.2807H542.899V20.7473H540.621V7.2807Z" fill="black"/>
  <path d="M546.465 5.4541H548.935C549.216 5.4541 549.526 5.46889 549.867 5.49108C550.207 5.51326 550.54 5.57242 550.88 5.66856C551.22 5.7647 551.545 5.89781 551.856 6.08269C552.166 6.26757 552.448 6.519 552.692 6.84439C552.936 7.16977 553.128 7.56911 553.276 8.05719C553.424 8.54527 553.498 9.13688 553.498 9.83202V10.2166C553.498 11.385 553.335 12.3316 553.002 13.0637C552.677 13.7958 552.189 14.3209 551.553 14.6463L553.964 20.7694H551.553L549.556 15.0382H548.698V20.7694H546.465V5.4541ZM549.038 13.3595C549.438 13.3595 549.778 13.3151 550.051 13.2264C550.325 13.1377 550.547 12.9824 550.717 12.7753C550.887 12.5608 551.013 12.2798 551.087 11.9322C551.161 11.5847 551.198 11.1484 551.198 10.6381V9.42529C551.198 9.03335 551.161 8.69317 551.094 8.40476C551.02 8.11635 550.902 7.87971 550.739 7.69483C550.569 7.50995 550.347 7.36944 550.074 7.2807C549.8 7.19196 549.452 7.14759 549.038 7.14759H548.698V13.3595H549.038Z" fill="black"/>
  <path d="M558.562 20.7467C558.318 20.7467 558.059 20.7245 557.778 20.6875C557.497 20.6506 557.216 20.5692 556.942 20.4435C556.669 20.3178 556.402 20.1477 556.144 19.9184C555.892 19.6966 555.663 19.3934 555.463 19.0236C555.264 18.6539 555.108 18.1954 554.99 17.6555C554.872 17.1157 554.812 16.4649 554.812 15.718V10.3935C554.812 9.63919 554.872 8.98842 554.99 8.45597C555.108 7.91612 555.271 7.46502 555.471 7.10266C555.67 6.7329 555.9 6.44449 556.151 6.23003C556.402 6.01557 556.676 5.84548 556.95 5.73456C557.231 5.62363 557.504 5.54228 557.778 5.5127C558.052 5.47573 558.31 5.46094 558.54 5.46094C558.762 5.46094 559.013 5.47573 559.287 5.5127C559.56 5.54228 559.834 5.61624 560.107 5.72716C560.381 5.83809 560.647 6.00078 560.906 6.20785C561.165 6.42231 561.394 6.71072 561.594 7.08047C561.794 7.45023 561.956 7.90133 562.075 8.44118C562.193 8.98102 562.252 9.63919 562.252 10.4083V15.7328C562.252 16.4797 562.193 17.1157 562.067 17.6555C561.941 18.1954 561.786 18.6465 561.586 19.0162C561.387 19.386 561.158 19.6892 560.899 19.911C560.64 20.1403 560.374 20.3104 560.1 20.4361C559.826 20.5618 559.553 20.6432 559.287 20.6875C559.02 20.7245 558.776 20.7467 558.562 20.7467ZM558.562 19.031C558.784 19.031 558.983 18.994 559.146 18.9127C559.316 18.8387 559.449 18.7056 559.56 18.5134C559.671 18.3285 559.752 18.077 559.804 17.7664C559.863 17.4559 559.886 17.0713 559.886 16.598V9.75751C559.886 9.27683 559.856 8.87749 559.804 8.55211C559.745 8.22672 559.664 7.96789 559.56 7.77562C559.449 7.57595 559.316 7.44283 559.146 7.36149C558.976 7.28014 558.784 7.23577 558.562 7.23577C558.333 7.23577 558.133 7.28014 557.963 7.36149C557.793 7.44283 557.652 7.58334 557.541 7.77562C557.43 7.97529 557.349 8.23412 557.29 8.55211C557.231 8.87749 557.209 9.27683 557.209 9.75751V16.598C557.209 17.0639 557.238 17.4559 557.29 17.7664C557.349 18.077 557.43 18.3211 557.541 18.5134C557.652 18.6982 557.793 18.8313 557.963 18.9127C558.133 18.994 558.333 19.031 558.562 19.031Z" fill="black"/>
  <path d="M567.129 5.4541H569.407V11.8583H572.106V5.4541H574.384V20.7473H572.106V13.6849H569.407V20.7473H567.129V5.4541Z" fill="black"/>
  <path d="M576.07 5.4541H581.639V7.2807H578.348V11.8583H580.892V13.6849H578.348V18.9207H581.728V20.7473H576.07V5.4541Z" fill="black"/>
  <path d="M582.922 5.4541H585.392C585.673 5.4541 585.983 5.46889 586.324 5.49108C586.664 5.51326 586.997 5.57242 587.337 5.66856C587.677 5.7647 588.002 5.89781 588.313 6.08269C588.624 6.26757 588.905 6.519 589.149 6.84439C589.393 7.16977 589.585 7.56911 589.733 8.05719C589.881 8.54527 589.955 9.13688 589.955 9.82463V10.2092C589.955 11.3702 589.792 12.3242 589.459 13.0563C589.134 13.7884 588.646 14.3135 588.01 14.6389L590.421 20.7546H588.01L586.013 15.0308H585.163V20.7546H582.929V5.4541H582.922ZM585.503 13.3521C585.902 13.3521 586.242 13.3077 586.516 13.219C586.79 13.1303 587.011 12.9824 587.181 12.7679C587.352 12.5534 587.477 12.2724 587.551 11.9248C587.625 11.5773 587.662 11.141 587.662 10.6307V9.4179C587.662 9.02595 587.625 8.68578 587.559 8.39737C587.485 8.10896 587.366 7.87231 587.204 7.68743C587.034 7.50256 586.812 7.36205 586.538 7.27331C586.264 7.18456 585.917 7.14019 585.503 7.14019H585.163V13.3447H585.503V13.3521Z" fill="black"/>
  <path d="M595.023 20.7467C594.779 20.7467 594.52 20.7245 594.239 20.6875C593.958 20.6506 593.677 20.5692 593.403 20.4435C593.13 20.3178 592.863 20.1477 592.605 19.9184C592.346 19.6966 592.124 19.3934 591.924 19.0236C591.725 18.6539 591.569 18.1954 591.451 17.6555C591.333 17.1157 591.273 16.4649 591.273 15.718V10.3935C591.273 9.63919 591.333 8.98842 591.451 8.45597C591.569 7.91612 591.732 7.46502 591.932 7.10266C592.131 6.7329 592.361 6.44449 592.612 6.23003C592.871 6.01557 593.137 5.84548 593.411 5.73456C593.692 5.62363 593.965 5.54228 594.239 5.5127C594.513 5.47573 594.771 5.46094 595.001 5.46094C595.222 5.46094 595.474 5.47573 595.747 5.5127C596.021 5.54228 596.295 5.61624 596.568 5.72716C596.842 5.83809 597.108 6.00078 597.367 6.20785C597.626 6.42231 597.855 6.71072 598.055 7.08047C598.254 7.45023 598.417 7.90133 598.535 8.44118C598.654 8.98102 598.713 9.63919 598.713 10.4083V15.7328C598.713 16.4797 598.654 17.1157 598.528 17.6555C598.402 18.1954 598.24 18.6465 598.047 19.0162C597.848 19.386 597.618 19.6892 597.36 19.911C597.101 20.1403 596.835 20.3104 596.561 20.4361C596.287 20.5618 596.014 20.6432 595.747 20.6875C595.481 20.7245 595.237 20.7467 595.023 20.7467ZM595.023 19.031C595.245 19.031 595.444 18.994 595.607 18.9127C595.777 18.8387 595.91 18.7056 596.021 18.5134C596.132 18.3285 596.213 18.077 596.265 17.7664C596.324 17.4559 596.346 17.0713 596.346 16.598V9.75751C596.346 9.27683 596.317 8.87749 596.265 8.55211C596.206 8.22672 596.125 7.96789 596.021 7.77562C595.91 7.57595 595.777 7.44283 595.607 7.36149C595.437 7.28014 595.245 7.23577 595.023 7.23577C594.794 7.23577 594.594 7.28014 594.424 7.36149C594.254 7.44283 594.113 7.58334 594.002 7.77562C593.891 7.97529 593.81 8.23412 593.751 8.55211C593.692 8.87749 593.669 9.27683 593.669 9.75751V16.598C593.669 17.0639 593.699 17.4559 593.751 17.7664C593.81 18.077 593.891 18.3211 594.002 18.5134C594.113 18.6982 594.254 18.8313 594.424 18.9127C594.594 18.994 594.794 19.031 595.023 19.031Z" fill="black"/>
  <path d="M498.197 2.0001C494.61 1.98531 490.839 3.61224 488.672 5.45363V17.1306C488.672 21.9226 492.14 23.1724 498.197 26.9883C504.253 23.1798 507.722 21.9226 507.722 17.1306V5.46103C505.555 3.61224 501.783 1.9927 498.197 2.0001Z" fill="black"/>
  <path d="M498.198 11.554V14.66H502.17V17.1373C502.17 17.7511 502.088 17.8325 501.852 18.0691C501.253 18.6755 499.958 19.489 498.198 20.5539C496.438 19.489 495.144 18.6755 494.545 18.0691C494.309 17.8325 494.227 17.7511 494.227 17.1373V8.41108C495.359 7.88602 496.771 7.4645 498.154 7.4645H498.235C499.626 7.4645 501.038 7.89342 502.162 8.41108V5.04629C500.927 4.61737 499.574 4.34375 498.235 4.34375H498.154C495.492 4.34375 492.8 5.43084 491.055 6.60666V17.1373C491.055 19.7848 492.364 20.6944 496.897 23.4306C497.304 23.6746 497.74 23.9409 498.198 24.2219C498.657 23.9409 499.093 23.6746 499.5 23.4306C504.033 20.687 505.342 19.7774 505.342 17.1373V14.66V12.0273V11.554H498.198V11.554Z" fill="white"/>
  <g clip-path="url(#clip0)">
    <path d="M706.005 6.57963H709.681L713.286 16.3029H713.358L717.034 6.57963H720.494L714.439 21.4204H711.844L706.005 6.57963ZM724.603 6.57963H727.775V21.4204H724.603V6.57963ZM734.046 6.57963H738.804L742.192 16.3029H742.264L745.652 6.57963H750.554V21.4204H747.31V10.0888H747.238L743.346 21.4204H740.895L737.218 10.0888H737.29V21.4204H734.046V6.57963ZM765.548 10.3812C765.26 10.0157 764.827 9.72324 764.395 9.50392C763.962 9.28459 763.386 9.21149 762.809 9.21149C762.232 9.21149 761.656 9.3577 761.151 9.57702C760.646 9.79634 760.214 10.1619 759.781 10.6005C759.421 11.0392 759.133 11.5509 758.916 12.1358C758.7 12.7206 758.628 13.3786 758.628 14.0366C758.628 14.7676 758.7 15.3525 758.916 15.9373C759.133 16.5222 759.421 17.0339 759.781 17.4726C760.142 17.9112 760.574 18.2037 761.079 18.4961C761.584 18.7154 762.088 18.8616 762.665 18.8616C763.314 18.8616 763.89 18.7154 764.395 18.423C764.9 18.1305 765.332 17.765 765.62 17.2533L768.288 19.3003C767.639 20.1775 766.918 20.8355 765.909 21.2742C764.972 21.7128 763.962 21.9321 762.953 21.9321C761.8 21.9321 760.791 21.7859 759.781 21.4204C758.844 21.0548 757.979 20.5431 757.258 19.8851C756.537 19.2272 756.033 18.423 755.6 17.3995C755.24 16.4491 755.024 15.3525 755.024 14.1828C755.024 13.0131 755.24 11.9164 755.6 10.9661C755.961 10.0157 756.537 9.21149 757.258 8.48042C757.979 7.82245 758.772 7.3107 759.781 6.94517C760.718 6.57963 761.8 6.43342 762.953 6.43342C763.386 6.43342 763.818 6.50653 764.251 6.57963C764.683 6.65274 765.116 6.79896 765.548 6.94517C765.981 7.09138 766.413 7.3107 766.774 7.60313C767.206 7.89556 767.495 8.18799 767.855 8.62663L765.548 10.3812ZM778.019 10.8929L776.217 15.4987H779.821L778.019 10.8929ZM776.794 6.57963H779.461L785.805 21.4204H782.2L780.975 18.2768H775.28L774.054 21.4204H770.522L776.794 6.57963ZM793.157 12.7206H795.032C795.32 12.7206 795.608 12.7206 795.969 12.6475C796.257 12.6475 796.618 12.5744 796.834 12.4282C797.122 12.3551 797.338 12.1358 797.483 11.9164C797.627 11.6971 797.771 11.4047 797.771 10.9661C797.771 10.6005 797.699 10.3081 797.555 10.0888C797.411 9.86945 797.194 9.72324 796.978 9.57702C796.762 9.43081 796.473 9.43081 796.185 9.3577C795.897 9.28459 795.608 9.28459 795.32 9.28459H793.23V12.7206H793.157ZM789.986 6.57963H795.536C796.257 6.57963 796.978 6.65274 797.627 6.79896C798.276 6.94517 798.852 7.16449 799.357 7.53003C799.861 7.89556 800.222 8.3342 800.582 8.91906C800.871 9.50392 801.015 10.235 801.015 11.1123C801.015 12.1358 800.727 13.0131 800.222 13.7441C799.717 14.4752 798.924 14.9869 797.843 15.1332L801.592 21.4204H797.699L794.671 15.4987H793.085V21.4204H789.986V6.57963ZM681.351 9.50392L676.377 18.7154C676.089 19.3003 675.584 19.3003 675.224 18.7154L670.25 9.50392C669.962 8.91906 670.178 8.62663 670.755 8.84595L674.647 10.3081C675.224 10.5274 676.233 10.5274 676.882 10.3081L680.775 8.84595C681.423 8.62663 681.712 8.91906 681.351 9.50392ZM689.425 9.13838L682.937 0.950392C682.505 0.365535 681.64 0 680.991 0H670.61C669.962 0 669.097 0.365535 668.736 0.877285L662.248 9.13838C661.816 9.65013 661.6 10.6005 661.744 11.2585L664.05 21.5666C664.195 22.2245 664.771 22.9556 665.348 23.248L674.719 27.8538C675.296 28.1462 676.233 28.1462 676.81 27.8538L686.181 23.248C686.758 22.9556 687.334 22.2245 687.479 21.5666L689.785 11.2585C690.002 10.6005 689.785 9.65013 689.425 9.13838Z" fill="black"/>
  </g>
</svg>