<svg version="1.1" id="layer" xmlns="http://www.w3.org/2000/svg" xmlns:xlink="http://www.w3.org/1999/xlink" x="0px" y="0px"
	 width="652" height="652" viewBox="0 0 652 652" style="enable-background:new 0 0 652 652;" xml:space="preserve">
<g>
	<path d="M309.9,330c-0.8-1.9-1.4-4-2-6.5c-0.6-2.5-1.4-4.9-2.3-7.3c-0.9-2.3-2-4.2-3.4-5.9c-1.4-1.5-3.2-2.3-5.4-2.3
		c-4.2,0-7.9,3.1-11,9.1c-3.1,6-4.8,15.2-4.8,27.1c0,14.4,2.9,25.2,8.7,32.8c5.7,7.6,13.5,11.3,23,11.3c5.4,0,10.5-1.4,15-4
		c4.6-2.8,9.1-7.6,12.5-14.8l1.4,3.4c-3.2,12.2-9.1,22-17,28.3c-7.9,6.3-17.6,9.4-29.2,9.4c-6.8,0-13.1-1.2-19-3.7
		c-6-2.5-11.1-5.9-15.8-10.4c-4.5-4.5-8-9.9-10.8-16.1c-2.6-6.2-4-13.3-4-21c0-7.9,1.4-15.2,4.2-21.8s6.7-12.5,11.6-17.5
		c4.9-4.9,10.8-8.8,17.6-11.6c6.8-2.8,14.2-4.2,22.3-4.2c6.2,0,11.6,0.6,16.1,2c4.6,1.4,8.4,3.1,11.4,5.3c3.1,2.2,5.4,4.5,7,7.3
		c1.5,2.6,2.3,5.4,2.3,8c0,3.7-1.2,7-3.9,9.6c-2.6,2.6-6,4-10.5,4C317,340.3,312.4,336.8,309.9,330z"/>
	<path d="M393.4,410.4c-7.7,0-15-1.4-21.7-4c-6.7-2.8-12.4-6.5-17.2-11.3c-4.8-4.8-8.5-10.4-11.3-16.7c-2.8-6.3-4-13.3-4-20.6
		c0-7.3,1.4-14.2,4.3-20.7s6.8-12.2,11.8-17c4.9-4.8,10.7-8.7,17.3-11.4c6.7-2.9,13.6-4.3,20.9-4.3c8,0,15.3,1.4,22.1,4.2
		c6.7,2.8,12.4,6.5,17.2,11.3c4.8,4.8,8.4,10.4,11.1,16.7c2.6,6.5,4,13.3,4,20.7c0,7-1.4,13.8-4,20.3c-2.8,6.5-6.5,12.1-11.4,17
		c-4.9,4.9-10.7,8.8-17.2,11.8C408.3,409,401.2,410.4,393.4,410.4z M376.1,356.6c0,15.6,1.5,27.8,4.5,36.7s7.3,13.3,12.7,13.3
		c2.2,0,4.2-0.8,6.2-2.2c2-1.4,3.9-4,5.4-7.6c1.5-3.7,2.8-8.7,3.7-15c0.9-6.3,1.4-14.4,1.4-24.1c0-15.9-1.5-28.2-4.6-36.8
		c-3.1-8.7-7.4-12.8-13-12.8c-2.2,0-4.2,0.8-6.2,2.3s-3.7,4.2-5.1,7.9c-1.5,3.7-2.8,8.7-3.7,15C376.6,339.3,376.1,347.1,376.1,356.6
		z"/>
	<g>
		<path d="M574.9,287.1c1.9,1.9,4,3.4,6.7,4.5c2.6,1.1,5.3,1.5,7.9,1.5c6,0,11-2,15-6c4-4,6-8.8,6-14.2c0-5.9-2-10.8-6-14.8
			c-4-4-9-6-15-6c-2.8,0-5.4,0.5-7.9,1.5c-2.6,1.1-4.8,2.5-6.7,4.5c-1.9,1.9-3.4,4-4.5,6.7s-1.7,5.3-1.7,8.2c0,2.8,0.6,5.3,1.7,7.7
			C571.5,283.1,573,285.3,574.9,287.1z"/>
		<path d="M612,400.7c-2.8-2.2-4-6-4-11.4v-56.5l0.5-27.7l-1.7-0.6L558,317.8v2.2c1.7-0.2,3.4,0,5.1,0.5s3.2,1.2,4.5,2.3
			s2.3,2.6,3.2,4.6c0.9,2,1.2,4.6,1.2,7.7v53.4c0,2.6-0.2,5.4-1.2,7.9c-0.8,1.7-4.2,6.3-7.9,6.3s-6.8-3.6-8-6.3
			c-1.1-2.3-1.2-5.4-1.2-7.9c0-0.3,0-56.1,0-56.1c0-9.3-2.5-16.2-7.6-21c-4.9-4.6-11.6-7-19.6-7c-7.3,0-14.1,1.9-20.3,5.4
			c-6.2,3.7-11.4,7.9-15.9,12.5v-17.3l-1.7-0.6l-47.8,13.3v2.2c1.7-0.2,3.4,0,5.1,0.5c1.7,0.5,3.2,1.2,4.5,2.3
			c1.2,1.1,2.3,2.6,3.2,4.6c0.9,2,1.2,4.6,1.2,7.7v54.3c0,5.4-1.2,9.3-3.7,11.4c-2.5,2.2-5.3,3.4-8.4,3.7v2.2H500v-2
			c-2.9-0.3-5.1-1.5-7-3.7c-1.7-2.2-2.6-6-2.6-11.8v-62.2c2.3-2,4.8-3.7,7.3-4.9c2.6-1.2,5.1-2,7.7-2c3.7,0,6.7,1.2,8.8,3.9
			c2.2,2.6,3.2,6.5,3.2,11.9v53.4c0,5.7-0.8,9.7-2.3,11.8c-1.5,2.2-4,3.4-7.3,3.7v2H560h3.2h57.1v-2.2
			C617.7,404.1,614.8,402.8,612,400.7z"/>
	</g>
	<path d="M255.3,389.4c-3.7,5.3-6.8,6.7-9.7,6.7c-4.2,0-6.2-2.9-6.2-8.7v-49c0-10.4-3.6-18.6-10.8-24.9c-7.3-6.2-18.3-9.4-33.3-9.4
		c-14.2,0-24.7,2.3-31.6,6.8c-7,4.5-10.4,10.1-10.4,16.4c0,4.2,1.4,7.6,4,10.1c2.8,2.6,6,3.9,9.9,3.9c3.1,0,6.2-0.9,9.3-2.8
		c2.9-1.9,5.3-5.1,7-9.7c0.9-2.8,1.7-5.4,2-7.9c0.3-2.6,0.8-4.8,1.2-6.8c0.5-2,1.2-3.6,2.3-4.8s2.8-1.9,5.3-1.9
		c2.9,0,5.3,1.4,6.8,4.3s2.3,8,2.3,15.8v18.9c-11,2.9-20.1,6-27.4,9.1c-7.1,3.1-12.8,6.3-17.2,9.6c-4.2,3.2-7.1,6.8-8.8,10.4
		c-1.7,3.6-2.5,7.4-2.5,11.4c0,3.9,0.8,7.3,2.2,10.1c1.2,2.6,3.1,4.8,5.1,6.7c-3.6-0.5-7.3-1.4-8.8-2.9c-2.3-2.5-4-4.9-4-11.8V233
		l-1.9-0.5l-30.9,7.9c-5.9-1.5-11.9-2.3-18.3-2.3c-6.3,0-12.7,1.1-19,3.4c-6.3,2.3-12.2,5.9-17.5,10.5c-5.3,4.8-9.6,10.8-12.8,18.3
		c-3.4,7.4-5.3,16.2-5.4,26.3v4.5v2.2H20.3v6.3h15.8v78.3c0,5.6-1.1,9.6-3.4,12.2c-2.2,2.6-5.1,4.2-8.7,4.5v1.9h59.9v-1.9
		c-3.6-0.3-6.5-1.9-8.7-4.5c-2.2-2.5-3.4-6.5-3.4-12.2c0,0,0-78.1,0-78.3h20.4v-6.3H71.7c0-0.8-0.2-1.5-0.2-2.2l-0.5-4.5
		c-0.8-5.4-1.5-10.7-2.5-15.8c-0.9-4.9-1.4-10.2-1.4-15.8c0-6,1.5-11.1,4.5-15.2c2.9-4,7.7-6.2,14.2-6.2c2.9,0,5.7,0.6,8.4,2
		c2.5,1.4,4.6,3.2,6.5,5.4c1.9,2.3,3.2,4.9,4.2,7.9c0.9,2.9,1.5,6.2,1.5,9.7v119.7c0,5.4-1.2,9.7-3.6,11.9c-2.3,2.2-4.9,3.4-7.9,3.7
		v2h63.7c1.5,0.9,3.2,1.7,4.9,2.3c2.9,0.9,6.2,1.5,9.4,1.5c5.4,0,11-1.2,16.7-3.9c5.7-2.6,10.8-6.2,15.3-10.8c1.5,4.9,4,9,7.7,11.3
		c3.6,2.3,7.9,3.4,13.1,3.4c6.5,0,12.2-1.5,17.5-4.6c4.8-2.8,8.2-6,13.5-14.2L255.3,389.4z M193.7,395.3c-3.6,0-6.7-1.4-9.3-4
		c-2.6-2.6-3.9-6.8-3.9-12.5c0-2.5,0.3-4.9,0.9-7.6c0.6-2.6,1.7-5.1,3.4-7.6c1.7-2.5,4-4.9,7-7.3s6.8-4.3,11.4-6.2v33.6
		c0,2.8,0.2,5.3,0.6,7.7C200.9,394,197.5,395.3,193.7,395.3z"/>
</g>
</svg>
