<svg width="174" height="105" viewBox="0 0 174 105" fill="none" xmlns="http://www.w3.org/2000/svg">
<rect width="174" height="105" fill="white"/>
<path d="M85.247 51.4391C85.0982 51.0856 84.9865 50.6948 84.8749 50.2297C84.7633 49.7645 84.6144 49.3179 84.447 48.8714C84.2795 48.4434 84.0748 48.0899 83.8143 47.7736C83.5538 47.4945 83.2189 47.3457 82.8096 47.3457C82.0281 47.3457 81.3397 47.9225 80.7629 49.0389C80.1861 50.1552 79.8698 51.867 79.8698 54.0812C79.8698 56.7605 80.4094 58.77 81.4885 60.1841C82.5491 61.5982 84.0004 62.2866 85.768 62.2866C86.7728 62.2866 87.7217 62.0261 88.559 61.5424C89.4149 61.0214 90.2522 60.1283 90.8848 58.7886L91.1453 59.4212C90.5499 61.6912 89.4521 63.5147 87.9822 64.6869C86.5123 65.8591 84.7074 66.4359 82.5491 66.4359C81.2839 66.4359 80.1117 66.2126 79.0139 65.7474C77.8975 65.2823 76.9486 64.6496 76.0741 63.8124C75.2368 62.9751 74.5855 61.9703 74.0646 60.8167C73.5808 59.6631 73.3203 58.3421 73.3203 56.9094C73.3203 55.4395 73.5808 54.0812 74.1018 52.8532C74.6228 51.6251 75.3484 50.5274 76.2601 49.597C77.1718 48.6853 78.2696 47.9597 79.5349 47.4387C80.8001 46.9177 82.177 46.6572 83.6841 46.6572C84.8377 46.6572 85.8424 46.7689 86.6797 47.0294C87.5356 47.2898 88.2427 47.6062 88.8009 48.0155C89.3777 48.4248 89.8056 48.8528 90.1033 49.3738C90.3824 49.8575 90.5312 50.3785 90.5312 50.8623C90.5312 51.5507 90.308 52.1647 89.8056 52.6485C89.3218 53.1323 88.6892 53.3928 87.8519 53.3928C86.5681 53.3555 85.7122 52.7043 85.247 51.4391Z" fill="black"/>
<path d="M100.78 66.3988C99.3473 66.3988 97.989 66.1384 96.7424 65.6546C95.4958 65.1336 94.4352 64.4452 93.5421 63.5521C92.649 62.659 91.9605 61.617 91.4396 60.4448C90.9186 59.2726 90.6953 57.9701 90.6953 56.6119C90.6953 55.2536 90.9558 53.9697 91.4954 52.7603C92.035 51.5509 92.7606 50.4903 93.6909 49.5972C94.6027 48.7041 95.6818 47.9785 96.9099 47.4761C98.1565 46.9365 99.4403 46.676 100.799 46.676C102.287 46.676 103.645 46.9365 104.911 47.4575C106.157 47.9785 107.218 48.6669 108.111 49.56C109.004 50.4531 109.674 51.4951 110.176 52.6673C110.66 53.8767 110.92 55.142 110.92 56.5188C110.92 57.8213 110.66 59.0865 110.176 60.2959C109.655 61.5054 108.967 62.5473 108.055 63.459C107.143 64.3707 106.064 65.0964 104.855 65.6546C103.552 66.1384 102.231 66.3988 100.78 66.3988ZM97.5611 56.3886C97.5611 59.2912 97.8402 61.5612 98.3984 63.2171C98.9566 64.8731 99.7566 65.6918 100.761 65.6918C101.171 65.6918 101.543 65.5429 101.915 65.2825C102.287 65.022 102.641 64.5382 102.92 63.8684C103.199 63.1799 103.441 62.2496 103.608 61.0774C103.776 59.9052 103.869 58.3981 103.869 56.5933C103.869 53.6348 103.59 51.3462 103.013 49.7461C102.436 48.1273 101.636 47.3645 100.594 47.3645C100.185 47.3645 99.8125 47.5133 99.4403 47.7924C99.0682 48.0715 98.7519 48.5739 98.4914 49.2623C98.2123 49.9508 97.9704 50.8811 97.803 52.0533C97.6541 53.1697 97.5611 54.621 97.5611 56.3886Z" fill="black"/>
<path d="M134.556 43.4571C134.909 43.8106 135.3 44.0897 135.803 44.2944C136.286 44.499 136.789 44.5735 137.272 44.5735C138.389 44.5735 139.319 44.2013 140.063 43.4571C140.808 42.7128 141.18 41.8197 141.18 40.815C141.18 39.7172 140.808 38.8055 140.063 38.0612C139.319 37.317 138.389 36.9448 137.272 36.9448C136.751 36.9448 136.268 37.0379 135.803 37.2239C135.319 37.4286 134.909 37.6891 134.556 38.0612C134.202 38.4147 133.923 38.8055 133.719 39.3078C133.514 39.8102 133.402 40.294 133.402 40.8336C133.402 41.3545 133.514 41.8197 133.719 42.2663C133.923 42.7128 134.202 43.1222 134.556 43.4571Z" fill="black"/>
<path d="M141.456 64.594C140.935 64.1847 140.711 63.4776 140.711 62.4729V51.9603L140.805 46.8063L140.488 46.6946L131.408 49.1693V49.5786C131.725 49.5414 132.041 49.5786 132.357 49.6717C132.674 49.7647 132.953 49.8949 133.194 50.0996C133.436 50.3043 133.622 50.5834 133.79 50.9555C133.957 51.3276 134.013 51.8114 134.013 52.3882V62.324C134.013 62.8078 133.976 63.3288 133.79 63.7939C133.641 64.1103 133.008 64.9662 132.32 64.9662C131.632 64.9662 131.055 64.2963 130.831 63.7939C130.627 63.366 130.608 62.7892 130.608 62.324C130.608 62.2682 130.608 51.8858 130.608 51.8858C130.608 50.1554 130.143 48.8716 129.194 47.9785C128.282 47.1226 127.036 46.676 125.547 46.676C124.189 46.676 122.924 47.0295 121.77 47.6808C120.617 48.3692 119.649 49.1507 118.812 50.0066V46.7877L118.495 46.676L109.602 49.1507V49.56C109.918 49.5228 110.234 49.56 110.55 49.6531C110.867 49.7461 111.146 49.8763 111.388 50.081C111.611 50.2857 111.816 50.5648 111.983 50.9369C112.151 51.309 112.206 51.7928 112.206 52.3696V62.4729C112.206 63.4776 111.983 64.2033 111.518 64.594C111.053 65.0034 110.532 65.2266 109.955 65.2825V65.6918H120.617V65.3197C120.077 65.2639 119.668 65.0406 119.314 64.6312C118.998 64.2219 118.83 63.5148 118.83 62.4357V50.8625C119.258 50.4903 119.723 50.174 120.189 49.9508C120.672 49.7275 121.138 49.5786 121.621 49.5786C122.31 49.5786 122.868 49.8019 123.259 50.3043C123.668 50.788 123.854 51.5137 123.854 52.5184V62.4543C123.854 63.5148 123.705 64.2591 123.426 64.6498C123.147 65.0592 122.682 65.2825 122.068 65.3383V65.7104H131.78H132.376H143V65.3011C142.516 65.2266 141.977 64.9848 141.456 64.594Z" fill="black"/>
<path d="M75.0845 62.4913C74.396 63.4775 73.8192 63.738 73.2796 63.738C72.4982 63.738 72.126 63.1984 72.126 62.1192V53.002C72.126 51.067 71.4562 49.5413 70.1165 48.369C68.7583 47.2155 66.7116 46.62 63.9206 46.62C61.2785 46.62 59.3248 47.048 58.041 47.8853C56.7385 48.7226 56.1059 49.7645 56.1059 50.9367C56.1059 51.7182 56.3664 52.3508 56.8502 52.816C57.3711 53.2997 57.9665 53.5416 58.6922 53.5416C59.269 53.5416 59.8458 53.3742 60.4226 53.0207C60.9622 52.6671 61.4087 52.0717 61.725 51.2158C61.8925 50.6948 62.0414 50.2111 62.0972 49.7459C62.153 49.2622 62.246 48.8528 62.3205 48.4807C62.4135 48.1086 62.5437 47.8109 62.7484 47.5876C62.9531 47.3643 63.2694 47.2341 63.7345 47.2341C64.2741 47.2341 64.7207 47.4945 64.9998 48.0341C65.2789 48.5737 65.4277 49.5226 65.4277 50.9739V54.4906C63.381 55.0301 61.6878 55.6069 60.3296 56.1837C59.0085 56.7605 57.9479 57.3559 57.1293 57.97C56.3478 58.5654 55.8082 59.2352 55.4919 59.905C55.1756 60.5749 55.0267 61.2819 55.0267 62.0262C55.0267 62.7518 55.1756 63.3844 55.4361 63.9054C55.6594 64.3892 56.0129 64.7985 56.385 65.152C55.7152 65.059 55.0267 64.8915 54.7476 64.6124C54.3197 64.1473 54.0034 63.7007 54.0034 62.4169V33.3909L53.6499 33.2979L47.9005 34.7678C46.8027 34.4887 45.6863 34.3398 44.4955 34.3398C43.3233 34.3398 42.1325 34.5445 40.9603 34.9724C39.7881 35.4004 38.6903 36.0702 37.7042 36.9261C36.718 37.8192 35.9179 38.9356 35.3225 40.3311C34.6899 41.7079 34.3364 43.3453 34.3178 45.2246V46.0619V46.4712H31.3594V47.6434H34.2992V62.2122C34.2992 63.2542 34.0945 63.9984 33.6666 64.4822C33.2572 64.966 32.7176 65.2637 32.0478 65.3195V65.673H43.1931V65.3195C42.5232 65.2637 41.9836 64.966 41.5743 64.4822C41.165 64.017 40.9417 63.2728 40.9417 62.2122C40.9417 62.2122 40.9417 47.6806 40.9417 47.6434H44.7374V46.4712H40.9231C40.9231 46.3223 40.8859 46.1921 40.8859 46.0619L40.7928 45.2246C40.644 44.2198 40.5137 43.2337 40.3277 42.2847C40.1602 41.373 40.0672 40.3869 40.0672 39.3449C40.0672 38.2286 40.3463 37.2796 40.9045 36.5168C41.4441 35.7725 42.3372 35.3632 43.5466 35.3632C44.0862 35.3632 44.6071 35.4748 45.1095 35.7353C45.5747 35.9958 45.9654 36.3307 46.3189 36.74C46.6725 37.168 46.9143 37.6518 47.1004 38.2099C47.2679 38.7495 47.3795 39.3635 47.3795 40.0148V62.2866C47.3795 63.2914 47.1562 64.0915 46.7097 64.5008C46.2817 64.9102 45.798 65.1334 45.2398 65.1892V65.5614H57.0921C57.3711 65.7288 57.6875 65.8777 58.0038 65.9893C58.5433 66.1568 59.1574 66.2684 59.7528 66.2684C60.7575 66.2684 61.7995 66.0451 62.86 65.5428C63.9206 65.059 64.8695 64.3892 65.7068 63.5333C65.9859 64.445 66.4511 65.2079 67.1395 65.6358C67.8093 66.0637 68.6094 66.2684 69.577 66.2684C70.7864 66.2684 71.8469 65.9893 72.8331 65.4125C73.7262 64.8915 74.3588 64.2961 75.3449 62.7704L75.0845 62.4913ZM63.6229 63.5891C62.9531 63.5891 62.3763 63.3286 61.8925 62.8448C61.4087 62.3611 61.1669 61.5796 61.1669 60.519C61.1669 60.0539 61.2227 59.6073 61.3343 59.105C61.4459 58.6212 61.6506 58.156 61.9669 57.6909C62.2832 57.2257 62.7112 56.7791 63.2694 56.3326C63.8276 55.886 64.5346 55.5325 65.3905 55.179V61.4308C65.3905 61.9517 65.4277 62.4169 65.5021 62.8634C64.9626 63.3472 64.3299 63.5891 63.6229 63.5891Z" fill="black"/>
</svg>
