<svg width="174" height="105" viewBox="0 0 174 105" fill="none" xmlns="http://www.w3.org/2000/svg">
<rect width="174" height="105" fill="white"/>
<path d="M44.7468 63.547C44.4686 63.547 44.1441 63.512 43.7847 63.4538C43.4138 63.3955 43.0429 63.2673 42.6488 63.0693C42.2547 62.8712 41.8722 62.6032 41.5013 62.2421C41.1188 61.8809 40.7827 61.4148 40.4929 60.8323C40.1916 60.2498 39.9481 59.5274 39.7743 58.6652C39.5888 57.8147 39.4961 56.7894 39.4961 55.6127V47.224C39.4961 46.0356 39.5888 45.0104 39.7859 44.1715C39.9829 43.321 40.2379 42.6103 40.5625 42.0394C40.887 41.4568 41.2579 41.0025 41.6752 40.6646C42.0925 40.3267 42.5329 40.0587 42.9734 39.884C43.4254 39.7092 43.8659 39.581 44.3063 39.5344C44.7468 39.4762 45.1525 39.4529 45.535 39.4529C46.4854 39.4529 47.2968 39.581 47.9575 39.849C48.6182 40.117 49.1514 40.4782 49.557 40.9325C49.9627 41.3869 50.2641 41.9229 50.4379 42.5287C50.6118 43.1346 50.7045 43.787 50.7045 44.4744C50.7045 44.9871 50.6698 45.4531 50.6118 45.8842C50.5539 46.3153 50.4727 46.793 50.3684 47.3056H47.517V46.1638C47.517 43.5657 46.8216 42.2724 45.4307 42.2724C45.0482 42.2724 44.7236 42.3423 44.457 42.4705C44.1788 42.5986 43.947 42.82 43.7732 43.1346C43.5877 43.4491 43.4486 43.8569 43.3675 44.3579C43.2747 44.8706 43.24 45.4997 43.24 46.257V56.9875C43.24 57.7215 43.2863 58.339 43.3675 58.8283C43.4486 59.3177 43.5877 59.7138 43.7616 60.0051C43.9354 60.2964 44.1672 60.5061 44.4338 60.6342C44.7004 60.7624 45.025 60.8207 45.4075 60.8207C45.8016 60.8207 46.1377 60.7158 46.4275 60.5061C46.7173 60.2964 46.9491 60.0167 47.1345 59.6556C47.32 59.2944 47.4591 58.875 47.5402 58.374C47.6329 57.8846 47.6677 57.3487 47.6677 56.7778V53.6903H45.8363V51.3368H51.145V63.4887H48.7689L48.3863 61.077C47.9343 61.9508 47.4243 62.5916 46.8332 62.9644C46.242 63.3489 45.5466 63.547 44.7468 63.547Z" fill="#111111"/>
<path d="M57.0185 39.4412H61.1333L65.4915 63.5469H61.8751L61.226 59.2244H56.9258L56.2998 63.5469H52.6719L57.0185 39.4412ZM60.8087 56.4748L59.1512 44.4627H59.0005L57.3314 56.4748H60.8087Z" fill="#111111"/>
<path d="M66.3164 58.6302C66.3164 58.1175 66.4207 56.3 66.5482 55.7873H69.446V56.9524C69.446 57.5932 69.4807 58.1758 69.5619 58.6651C69.643 59.1661 69.7705 59.5855 69.9444 59.9234C70.1182 60.2613 70.3617 60.5293 70.663 60.6924C70.9644 60.8671 71.3237 60.9604 71.7642 60.9604C72.448 60.9604 72.9696 60.7739 73.3173 60.3895C73.6767 60.0166 73.8505 59.4574 73.8505 58.7234C73.8505 58.3505 73.8273 58.001 73.7694 57.6864C73.723 57.3719 73.6303 57.0573 73.5028 56.7544C73.3753 56.4398 73.213 56.1252 73.0044 55.7757C72.7958 55.4378 72.5176 55.0533 72.193 54.6339L68.4723 50.125C67.8116 49.2628 67.3016 48.389 66.9423 47.5152C66.583 46.6414 66.4091 45.7093 66.4091 44.7073C66.4091 43.9151 66.5366 43.1811 66.78 42.517C67.0235 41.8529 67.3712 41.282 67.8348 40.7926C68.2985 40.3149 68.8664 39.9305 69.5387 39.6625C70.211 39.3945 70.976 39.2664 71.8337 39.2664C72.8769 39.2664 73.7346 39.4178 74.4301 39.7207C75.1255 40.0237 75.6819 40.4198 76.0876 40.8975C76.5049 41.3868 76.7946 41.9344 76.9685 42.5403C77.1424 43.1461 77.2235 43.752 77.2235 44.3578C77.2235 44.8704 77.0844 46.6996 76.9801 47.2239H74.0823V46.0821C74.0823 44.8122 73.9085 43.8335 73.5492 43.1461C73.1898 42.4704 72.6103 42.1325 71.7989 42.1325C71.1267 42.1325 70.6282 42.3189 70.2921 42.7034C69.956 43.0879 69.7937 43.5888 69.7937 44.2296C69.7937 44.5675 69.8169 44.8704 69.8748 45.1384C69.9212 45.4064 70.0023 45.6627 70.0951 45.8957C70.1878 46.1287 70.3037 46.3501 70.4428 46.5598C70.5819 46.7812 70.7326 47.0026 70.9064 47.2356L75.056 52.3503C75.8094 53.3523 76.389 54.3193 76.7946 55.2398C77.2003 56.1602 77.3974 57.1389 77.3974 58.1641C77.3974 59.0147 77.2699 59.7836 77.0033 60.471C76.7367 61.1584 76.3658 61.741 75.8789 62.2187C75.3921 62.6963 74.801 63.0692 74.1171 63.3255C73.4333 63.5818 72.6451 63.71 71.7873 63.71C70.721 63.71 69.8401 63.5702 69.133 63.2789C68.426 62.9876 67.8696 62.6031 67.4523 62.1254C67.035 61.6478 66.7453 61.1002 66.5714 60.4943C66.3975 59.8885 66.3164 59.2593 66.3164 58.6302Z" fill="#111111"/>
<path d="M82.1848 42.3189H78.3945V39.4412H89.5334V42.3189H85.7548V63.5352H82.1848V42.3189Z" fill="#111111"/>
<path d="M91.3398 39.4412H95.2112C95.6517 39.4412 96.1385 39.4645 96.6717 39.4994C97.2049 39.5344 97.7265 39.6276 98.2596 39.779C98.7928 39.9305 99.3028 40.1402 99.7896 40.4315C100.276 40.7228 100.717 41.1189 101.099 41.6315C101.482 42.1442 101.783 42.7733 102.015 43.5423C102.247 44.3112 102.363 45.2433 102.363 46.3385V46.9443C102.363 48.7852 102.108 50.2765 101.586 51.4299C101.076 52.5834 100.311 53.4106 99.3144 53.9232L103.093 63.5702H99.3144L96.1849 54.5407H94.8403V63.5702H91.3398V39.4412ZM95.3735 51.896C95.9994 51.896 96.5326 51.8261 96.9615 51.6863C97.3903 51.5465 97.7381 51.3018 98.0046 50.9756C98.2712 50.6377 98.4683 50.195 98.5842 49.6474C98.7001 49.0998 98.758 48.4124 98.758 47.6085V45.6977C98.758 45.0802 98.7001 44.5443 98.5958 44.0899C98.4799 43.6355 98.2944 43.2627 98.0394 42.9714C97.7728 42.6801 97.4251 42.4587 96.9962 42.3189C96.5674 42.1791 96.0226 42.1092 95.3735 42.1092H94.8403V51.896H95.3735Z" fill="#111111"/>
<path d="M110.302 63.5353C109.92 63.5353 109.514 63.5004 109.074 63.4421C108.633 63.3839 108.193 63.2557 107.764 63.0576C107.335 62.8596 106.918 62.5916 106.512 62.2304C106.118 61.8809 105.759 61.4032 105.446 60.8207C105.133 60.2381 104.889 59.5158 104.704 58.6652C104.519 57.8147 104.426 56.7894 104.426 55.6127V47.224C104.426 46.0356 104.519 45.0104 104.704 44.1715C104.889 43.321 105.144 42.6103 105.457 42.0394C105.77 41.4568 106.13 41.0025 106.524 40.6646C106.918 40.3267 107.347 40.0587 107.776 39.884C108.216 39.7092 108.645 39.581 109.074 39.5344C109.503 39.4762 109.908 39.4529 110.268 39.4529C110.615 39.4529 111.009 39.4762 111.438 39.5344C111.867 39.581 112.296 39.6975 112.725 39.8723C113.154 40.0471 113.571 40.3034 113.977 40.6296C114.382 40.9675 114.742 41.4219 115.055 42.0044C115.368 42.587 115.623 43.2977 115.808 44.1482C115.994 44.9987 116.086 46.0356 116.086 47.2473V55.636C116.086 56.8127 115.994 57.8147 115.797 58.6652C115.599 59.5158 115.356 60.2265 115.043 60.809C114.73 61.3915 114.371 61.8692 113.965 62.2188C113.559 62.5799 113.142 62.8479 112.713 63.046C112.284 63.244 111.856 63.3722 111.438 63.4421C111.021 63.5004 110.639 63.5353 110.302 63.5353ZM110.302 60.8323C110.65 60.8323 110.963 60.774 111.218 60.6459C111.485 60.5294 111.693 60.3197 111.867 60.0167C112.041 59.7255 112.169 59.3293 112.25 58.84C112.342 58.3507 112.377 57.7448 112.377 56.9992V46.2221C112.377 45.4648 112.331 44.8356 112.25 44.323C112.157 43.8103 112.029 43.4025 111.867 43.0996C111.693 42.785 111.485 42.5753 111.218 42.4472C110.951 42.319 110.65 42.2491 110.302 42.2491C109.943 42.2491 109.63 42.319 109.364 42.4472C109.097 42.5753 108.877 42.7967 108.703 43.0996C108.529 43.4142 108.401 43.822 108.309 44.323C108.216 44.8356 108.181 45.4648 108.181 46.2221V56.9992C108.181 57.7332 108.228 58.3507 108.309 58.84C108.401 59.3293 108.529 59.7138 108.703 60.0167C108.877 60.308 109.097 60.5177 109.364 60.6459C109.63 60.774 109.943 60.8323 110.302 60.8323Z" fill="#111111"/>
<path d="M123.727 39.4412H127.297V49.5309H131.527V39.4412H135.097V63.5352H131.527V52.4086H127.297V63.5352H123.727V39.4412Z" fill="#FF6600"/>
<path d="M137.738 39.4412H146.466V42.3189H141.308V49.5309H145.296V52.4086H141.308V60.6575H146.605V63.5352H137.738V39.4412Z" fill="#FF6600"/>
<path d="M148.484 39.4412H152.356C152.796 39.4412 153.283 39.4645 153.816 39.4994C154.349 39.5344 154.871 39.6276 155.404 39.779C155.937 39.9305 156.447 40.1402 156.934 40.4315C157.421 40.7228 157.861 41.1189 158.244 41.6315C158.626 42.1442 158.928 42.7733 159.16 43.5423C159.391 44.3112 159.507 45.2433 159.507 46.3269V46.9327C159.507 48.7619 159.252 50.2649 158.731 51.4183C158.221 52.5717 157.456 53.399 156.459 53.9116L160.238 63.5469H156.459L153.329 54.5291H151.996V63.5469H148.496V39.4412H148.484ZM152.53 51.8843C153.156 51.8843 153.689 51.8144 154.118 51.6746C154.546 51.5348 154.894 51.3018 155.161 50.9639C155.427 50.626 155.624 50.1833 155.74 49.6357C155.856 49.0881 155.914 48.4007 155.914 47.5968V45.6861C155.914 45.0686 155.856 44.5326 155.752 44.0782C155.636 43.6238 155.451 43.251 155.196 42.9597C154.929 42.6685 154.581 42.4471 154.152 42.3073C153.723 42.1675 153.179 42.0976 152.53 42.0976H151.996V51.8727H152.53V51.8843Z" fill="#FF6600"/>
<path d="M167.447 63.5353C167.064 63.5353 166.659 63.5004 166.218 63.4421C165.778 63.3839 165.337 63.2557 164.908 63.0576C164.48 62.8596 164.062 62.5916 163.657 62.2304C163.251 61.8809 162.903 61.4032 162.59 60.8207C162.277 60.2381 162.034 59.5158 161.848 58.6652C161.663 57.8147 161.57 56.7894 161.57 55.6127V47.224C161.57 46.0356 161.663 45.0104 161.848 44.1715C162.034 43.321 162.289 42.6103 162.602 42.0394C162.915 41.4568 163.274 41.0025 163.668 40.6646C164.074 40.3267 164.491 40.0587 164.92 39.884C165.361 39.7092 165.789 39.581 166.218 39.5344C166.647 39.4762 167.053 39.4529 167.412 39.4529C167.76 39.4529 168.154 39.4762 168.583 39.5344C169.012 39.581 169.441 39.6975 169.869 39.8723C170.298 40.0471 170.716 40.3034 171.121 40.6296C171.527 40.9675 171.886 41.4219 172.199 42.0044C172.512 42.587 172.767 43.2977 172.953 44.1482C173.138 44.9987 173.231 46.0356 173.231 47.2473V55.636C173.231 56.8127 173.138 57.8147 172.941 58.6652C172.744 59.5158 172.489 60.2265 172.188 60.809C171.875 61.3915 171.515 61.8692 171.11 62.2188C170.704 62.5799 170.287 62.8479 169.858 63.046C169.429 63.244 169 63.3722 168.583 63.4421C168.166 63.5004 167.783 63.5353 167.447 63.5353ZM167.447 60.8323C167.795 60.8323 168.108 60.774 168.363 60.6459C168.629 60.5294 168.838 60.3197 169.012 60.0167C169.186 59.7255 169.313 59.3293 169.394 58.84C169.487 58.3507 169.522 57.7448 169.522 56.9992V46.2221C169.522 45.4648 169.475 44.8356 169.394 44.323C169.301 43.8103 169.174 43.4025 169.012 43.0996C168.838 42.785 168.629 42.5753 168.363 42.4472C168.096 42.319 167.795 42.2491 167.447 42.2491C167.088 42.2491 166.775 42.319 166.508 42.4472C166.241 42.5753 166.021 42.7967 165.847 43.0996C165.673 43.4142 165.546 43.822 165.453 44.323C165.361 44.8356 165.326 45.4648 165.326 46.2221V56.9992C165.326 57.7332 165.372 58.3507 165.453 58.84C165.546 59.3293 165.673 59.7138 165.847 60.0167C166.021 60.308 166.241 60.5177 166.508 60.6459C166.775 60.774 167.088 60.8323 167.447 60.8323Z" fill="#FF6600"/>
<path d="M15.687 34.0002C10.0653 33.9769 4.15396 36.5401 0.757812 39.4411V57.8379C0.757812 65.3877 6.19397 67.3567 15.687 73.3686C25.1799 67.3684 30.6161 65.3877 30.6161 57.8379V39.4528C27.22 36.5401 21.3086 33.9885 15.687 34.0002Z" fill="#FF6600"/>
<path d="M15.6851 49.0532V53.9466H21.9095V57.8497C21.9095 58.8167 21.782 58.9449 21.4111 59.3177C20.4722 60.2731 18.4438 61.5547 15.6851 63.2324C12.9265 61.5547 10.8981 60.2731 9.95921 59.3177C9.5883 58.9449 9.4608 58.8167 9.4608 57.8497V44.1016C11.2342 43.2744 13.4481 42.6103 15.6156 42.6103H15.7431C17.9222 42.6103 20.1361 43.286 21.8979 44.1016V38.8004C19.9622 38.1247 17.8411 37.6936 15.7431 37.6936H15.6156C11.4429 37.6936 7.22375 39.4063 4.48828 41.2588V57.8497C4.48828 62.0207 6.53988 63.4538 13.6451 67.7646C14.2826 68.1491 14.9665 68.5685 15.6851 69.0113C16.4038 68.5685 17.0876 68.1491 17.7251 67.7646C24.8304 63.4421 26.882 62.0091 26.882 57.8497V53.9466V49.7989V49.0532H15.6851V49.0532Z" fill="white"/>
</svg>
