<svg width="200" height="50" viewBox="0 0 200 50" fill="none" xmlns="http://www.w3.org/2000/svg">
<path d="M97.6827 24.8124C99.7973 24.679 102.348 25.9482 103.215 28.1574L91.7083 31.2126C91.5572 27.0903 94.664 25.0062 97.6827 24.8124ZM110.355 30.0851C110.352 30.0643 110.357 30.0496 110.354 30.029C110.345 29.9914 110.333 29.9434 110.324 29.9039C110.087 28.7264 109.724 27.5864 109.347 26.7653L109.343 26.767C109.243 26.5127 109.144 26.2626 109.048 26.0542C107.235 22.0924 103.652 19.2935 98.0847 19.2935C90.1362 19.2935 84.8834 25.6207 84.8834 32.8566C84.8834 41.0116 90.2851 46.4281 98.8 46.4281C102.444 46.4281 105.077 45.5486 107.598 44.3795C107.827 44.2753 108.003 44.0752 108.078 43.8376L109.371 37.6958C109.471 37.3582 109.276 37.1144 109.06 37.2248C106.755 38.6837 103.791 40.4281 100.172 40.401C96.5113 40.374 93.522 38.8817 92.5822 36.3204L109.815 31.7646C110.321 31.5874 110.55 31.3061 110.489 30.8434C110.455 30.5892 110.403 30.337 110.357 30.0848L110.355 30.0851ZM187.39 46.4285C182.964 46.4285 179.553 44.9884 176.654 43.3483C176.41 43.2129 176.157 42.9419 176.205 42.6918L177.346 37.2336C177.365 37.1106 177.455 37.0148 177.577 37.0919C180.877 39.2426 183.797 40.7557 187.843 40.7557C190.086 40.7557 191.462 39.8991 191.462 38.6779C191.462 37.3128 190.445 36.7084 185.756 35.4913C180.459 34.1242 176.683 32.3548 176.683 27.4926C176.683 22.8347 180.761 19.446 187.642 19.446C191.198 19.446 194.049 20.3234 196.276 21.4217C196.583 21.5718 196.807 21.9219 196.767 22.2241L195.704 27.3092C195.67 27.4696 195.527 27.5656 195.387 27.4822C192.775 25.8921 189.526 25.0647 187.34 25.0647C185.045 25.0647 183.82 25.8775 183.82 26.9904C183.82 28.3013 184.99 28.8577 189.373 29.9727C195.288 31.4399 198.603 33.2614 198.603 38.2756C198.603 43.0357 194.271 46.4285 187.39 46.4285ZM151.813 33.0722C151.813 37.1424 154.618 40.1914 158.392 40.1914C162.315 40.1914 165.021 36.9861 165.021 32.9701C165.021 28.902 162.214 25.9009 158.442 25.9009C154.519 25.9009 151.813 29.05 151.813 33.0722ZM158.383 19.2944C167.251 19.2944 172.449 25.8217 172.449 32.8576C172.449 39.9976 166.942 46.577 158.333 46.577C149.516 46.577 144.27 39.9976 144.27 32.9618C144.27 25.8759 149.772 19.2944 158.383 19.2944ZM131.351 20.0024H138.532C138.674 20.0024 138.788 20.1149 138.788 20.2546V45.6157C138.788 45.7532 138.674 45.8699 138.532 45.8699H131.351C131.208 45.8699 131.093 45.7532 131.093 45.6157V20.2546C131.093 20.115 131.209 20.0024 131.351 20.0024ZM134.968 16.4053C132.442 16.4053 130.504 14.5734 130.504 12.21C130.504 9.80082 132.442 8.02102 134.968 8.02102C137.489 8.02102 139.425 9.80082 139.425 12.21C139.425 14.5734 137.489 16.4053 134.968 16.4053ZM115.996 9.46717L123.181 7.58317C123.344 7.53932 123.504 7.66236 123.504 7.827V45.6154C123.504 45.755 123.388 45.8697 123.248 45.8697H116.061C115.92 45.8697 115.805 45.755 115.805 45.6154V9.71518C115.805 9.59847 115.885 9.49635 115.996 9.46717ZM72.167 31.6465H55.3512V45.6182C55.3512 45.7579 55.2358 45.8724 55.0953 45.8724H47.3461C47.2057 45.8724 47.0902 45.7579 47.0902 45.6182V10.6828C47.0902 10.5453 47.2057 10.4306 47.3461 10.4306H55.0953C55.2359 10.4306 55.3512 10.5452 55.3512 10.6828V24.1522H72.167V10.6828C72.167 10.5453 72.2824 10.4306 72.4229 10.4306H80.1217C80.2623 10.4306 80.3776 10.5452 80.3776 10.6828V45.6182C80.3776 45.7579 80.2623 45.8724 80.1217 45.8724H72.4229C72.2822 45.8724 72.167 45.7579 72.167 45.6182V31.6465Z" fill="black"/>
<path d="M31.7857 19.6718C31.234 16.9771 30.5019 15.2494 28.444 15.537C26.9294 15.7517 26.277 17.1355 26.4301 18.7548C26.877 23.3481 27.1497 27.6747 25.977 32.2596C25.4631 34.2687 24.324 39.8874 20.7074 38.7828C18.0831 37.9825 18.6327 34.5104 18.7817 32.7056C19.325 28.921 18.0663 28.0852 16.9125 27.8935C15.3161 27.6267 14.1036 28.4083 13.5813 31.4906C13.3694 32.4868 11.6262 40.7627 11.5423 41.613C11.301 44.0659 12.1821 46.7106 12.3604 47.3275C12.4211 47.5484 12.5702 47.6943 12.7925 47.7464C18.2614 48.8968 23.9778 48.5008 28.1062 46.1C28.3328 45.9666 28.4545 45.8103 28.5615 45.6707C30.8438 42.4028 31.8801 37.4219 32.436 33.5434C33.0926 28.9481 32.8619 24.1922 31.7857 19.6718Z" fill="black"/>
<path d="M2.41544 30.7872C2.96716 33.4819 3.70138 35.2117 5.75929 34.922C7.27178 34.7095 7.92209 33.3236 7.77315 31.7063C7.32423 27.113 7.05152 22.7865 8.22417 18.2015C8.73812 16.1925 9.87721 10.5759 13.4959 11.6784C16.1181 12.4766 15.5706 15.9528 15.4195 17.7555C14.8741 21.5381 16.1349 22.378 17.2886 22.5677C18.8871 22.8365 20.0975 22.055 20.6178 18.9685C20.8318 17.9744 22.575 9.69641 22.6589 8.84611C22.9002 6.39524 22.0212 3.74846 21.8429 3.13366C21.7821 2.91275 21.631 2.76686 21.4108 2.71476C15.9419 1.56435 10.2233 1.96033 6.09703 4.36118C5.86837 4.49039 5.7488 4.65087 5.63972 4.7905C3.35734 8.05833 2.32105 13.0393 1.76723 16.9198C1.10853 21.511 1.34139 26.269 2.41544 30.7872Z" fill="black"/>
</svg>
