<svg width="174" height="105" viewBox="0 0 174 105" fill="none" xmlns="http://www.w3.org/2000/svg">
<rect width="174" height="105" fill="white"/>
<path d="M32.1623 38.7234V49.9417H21.8789V38.7234H17V65.503H21.8802V54.6488H32.1609V65.503H37.0424V38.7234H32.1623ZM52.6631 56.8474C52.6631 57.9208 52.2376 58.9502 51.4803 59.7092C50.723 60.4682 49.6958 60.8946 48.6248 60.8946C47.5538 60.8946 46.5266 60.4682 45.7694 59.7092C45.0121 58.9502 44.5866 57.9208 44.5866 56.8474V45.3763H39.9573V56.8474C39.9573 59.149 40.8696 61.3563 42.4935 62.9837C44.1173 64.6112 46.3198 65.5255 48.6163 65.5255C50.9127 65.5255 53.1151 64.6112 54.7389 62.9837C56.3628 61.3563 57.2751 59.149 57.2751 56.8474V45.3763H52.6631V56.8474ZM86.9643 46.5584C86.9643 44.2061 88.5163 43.4609 90.2164 43.4609C91.5868 43.4609 93.3967 44.5066 94.5809 45.7747L97.6126 42.1928C96.0986 40.1411 93.0294 38.7234 90.5159 38.7234C85.4931 38.7234 81.8609 41.6712 81.8609 46.5584C81.8609 55.6256 92.9182 52.7479 92.9182 57.823C92.9182 59.3875 91.4021 60.7695 89.6665 60.7695C86.9287 60.7695 86.0411 59.4286 84.7837 58.0096L81.4185 61.5161C83.5713 64.1634 86.226 65.5083 89.4053 65.5083C94.1768 65.5083 98.0153 62.5247 98.0153 57.86C98.0153 47.7946 86.9564 50.9226 86.9564 46.5584H86.9643ZM155.371 61.2249C152.636 61.2249 151.858 60.0388 151.858 58.2227V50.1813H156.111V46.107H151.858V40.7315L147.165 42.8427V59.2221C147.165 63.4116 150.049 65.5228 154.003 65.5228C154.624 65.5335 155.245 65.4832 155.855 65.3746L157 61.1494C156.483 61.1851 155.891 61.2208 155.371 61.2208V61.2249ZM70.2845 45.51C67.9917 45.51 66.3909 46.1771 64.843 47.698V38.8836H60.2072V55.2219C60.2072 61.3374 64.6185 65.5282 69.5766 65.5282C75.0763 65.5282 79.9141 61.2632 79.9141 55.5211C79.9141 49.8503 75.4619 45.5139 70.2845 45.5139V45.51ZM70.2555 60.8515C69.5646 60.8515 68.8804 60.7152 68.2421 60.4502C67.6038 60.1852 67.0238 59.7968 66.5352 59.3071C66.0467 58.8175 65.6592 58.2363 65.3948 57.5965C65.1303 56.9568 64.9942 56.2711 64.9942 55.5786C64.9942 54.8862 65.1303 54.2005 65.3948 53.5608C65.6592 52.921 66.0467 52.3398 66.5352 51.8501C67.0238 51.3605 67.6038 50.9721 68.2421 50.7071C68.8804 50.4421 69.5646 50.3057 70.2555 50.3057C71.6508 50.3057 72.989 50.8612 73.9757 51.8501C74.9624 52.839 75.5167 54.1802 75.5167 55.5786C75.5167 56.9771 74.9624 58.3183 73.9757 59.3071C72.989 60.296 71.6508 60.8515 70.2555 60.8515ZM120.632 55.2775C120.632 49.5247 115.805 45.2704 110.294 45.2704C105.337 45.2704 100.925 49.4598 100.925 55.5767V71.9243H105.561V63.0978C107.106 64.6161 108.709 65.2859 110.999 65.2859C116.177 65.2859 120.63 60.9495 120.63 55.2775H120.632ZM116.241 55.2192C116.241 56.6177 115.687 57.9589 114.701 58.9477C113.714 59.9367 112.375 60.4922 110.98 60.4922C109.585 60.4922 108.247 59.9367 107.26 58.9477C106.273 57.9589 105.719 56.6177 105.719 55.2192C105.719 53.8208 106.273 52.4796 107.26 51.4907C108.247 50.5018 109.585 49.9463 110.98 49.9463C112.375 49.9463 113.714 50.5018 114.701 51.4907C115.687 52.4796 116.241 53.8208 116.241 55.2192Z" fill="#33475B"/>
<path d="M135.615 45.0454V40.3767C136.231 40.0884 136.752 39.6308 137.118 39.0571C137.484 38.4834 137.68 37.8173 137.684 37.1363V37.0291C137.684 35.0435 136.077 33.4339 134.096 33.4339H133.989C133.038 33.4339 132.125 33.8127 131.453 34.4869C130.78 35.1612 130.402 36.0756 130.402 37.0291V37.1363C130.405 37.8173 130.601 38.4834 130.967 39.0571C131.334 39.6308 131.855 40.0884 132.47 40.3767V45.0454C130.701 45.3169 129.035 46.0521 127.64 47.1765L114.865 37.2038C114.956 36.8742 115.004 36.5353 115.009 36.1952C115.01 35.3939 114.775 34.6102 114.332 33.9432C113.889 33.2762 113.259 32.7558 112.52 32.4478C111.783 32.1399 110.97 32.0582 110.186 32.2132C109.401 32.3682 108.68 32.7528 108.114 33.3184C107.548 33.884 107.161 34.6053 107.005 35.3908C106.847 36.1764 106.926 36.9911 107.231 37.7318C107.536 38.4725 108.053 39.1059 108.717 39.5519C109.381 39.998 110.163 40.2367 110.962 40.2377C111.662 40.2344 112.348 40.0473 112.953 39.695L125.532 49.5062C124.402 51.2173 123.813 53.2299 123.841 55.2817C123.868 57.3335 124.512 59.3294 125.688 61.0091L121.862 64.8451C121.553 64.746 121.231 64.6934 120.906 64.689C120.25 64.6895 119.608 64.885 119.063 65.2507C118.517 65.6164 118.092 66.1359 117.842 66.7437C117.591 67.3514 117.525 68.02 117.653 68.665C117.781 69.3101 118.097 69.9025 118.561 70.3676C119.025 70.8326 119.617 71.1494 120.26 71.2778C120.904 71.4063 121.571 71.3406 122.177 71.0892C122.784 70.8377 123.303 70.4117 123.667 69.8651C124.032 69.3185 124.227 68.6757 124.228 68.018C124.223 67.6926 124.171 67.3696 124.072 67.0597L127.857 63.2647C129.092 64.2171 130.527 64.8736 132.053 65.1842C133.58 65.4947 135.158 65.4509 136.665 65.056C138.172 64.6612 139.568 63.9258 140.748 62.9064C141.928 61.8868 142.86 60.6102 143.471 59.1743C144.082 57.7383 144.358 56.1812 144.276 54.6221C144.194 53.063 143.758 51.5433 142.999 50.1795C142.241 48.8157 141.181 47.644 139.901 46.754C138.622 45.8642 137.155 45.2797 135.615 45.0454ZM134.046 60.4002C133.346 60.4195 132.65 60.2981 131.998 60.0431C131.346 59.7881 130.752 59.4048 130.251 58.9157C129.749 58.4266 129.35 57.8417 129.078 57.1955C128.806 56.5494 128.665 55.8551 128.665 55.1537C128.665 54.4523 128.806 53.7581 129.078 53.1119C129.35 52.4658 129.749 51.8809 130.251 51.3919C130.752 50.9028 131.346 50.5194 131.998 50.2644C132.65 50.0094 133.346 49.888 134.046 49.9073C135.402 49.9549 136.686 50.528 137.629 51.5059C138.572 52.4838 139.099 53.7902 139.099 55.1498C139.1 56.5096 138.574 57.8165 137.633 58.7954C136.691 59.7742 135.407 60.3486 134.051 60.3976" fill="#FF7A59"/>
</svg>
