<svg width="194" height="57" viewBox="0 0 194 57" fill="none" xmlns="http://www.w3.org/2000/svg">
<g clip-path="url(#clip0)">
<path d="M21.0106 9.14574V24.7288H6.76072V9.14574H0V46.3447H6.76255V31.2673H21.0087V46.3447H27.7731V9.14574H21.0106ZM49.4188 34.3214C49.4188 35.8124 48.8292 37.2423 47.7798 38.2966C46.7304 39.3509 45.307 39.9432 43.823 39.9432C42.3389 39.9432 40.9155 39.3509 39.8661 38.2966C38.8167 37.2423 38.2271 35.8124 38.2271 34.3214V18.3871H31.8123V34.3214C31.8123 37.5184 33.0765 40.5846 35.3267 42.8452C37.5769 45.1059 40.6288 46.3759 43.8111 46.3759C46.9933 46.3759 50.0452 45.1059 52.2954 42.8452C54.5456 40.5846 55.8098 37.5184 55.8098 34.3214V18.3871H49.4188V34.3214ZM96.9506 20.0291C96.9506 16.7617 99.1011 15.7265 101.457 15.7265C103.356 15.7265 105.864 17.1791 107.505 18.9405L111.706 13.965C109.608 11.115 105.355 9.14574 101.872 9.14574C94.9118 9.14574 89.8787 13.2405 89.8787 20.0291C89.8787 32.6242 105.201 28.6269 105.201 35.6765C105.201 37.8498 103.1 39.7694 100.695 39.7694C96.9012 39.7694 95.6713 37.9068 93.9289 35.9357L89.2656 40.8065C92.2488 44.4839 95.9275 46.352 100.333 46.352C106.945 46.352 112.264 42.2076 112.264 35.728C112.264 21.7464 96.9396 26.0913 96.9396 20.0291H96.9506ZM191.743 40.402C187.953 40.402 186.875 38.7545 186.875 36.2318V25.0616H192.768V19.4021H186.875V11.9351L180.371 14.8678V37.62C180.371 43.4395 184.368 46.3722 189.847 46.3722C190.707 46.387 191.568 46.3171 192.413 46.1663L194 40.2972C193.284 40.3468 192.463 40.3964 191.743 40.3964V40.402ZM73.8371 18.5728C70.6599 18.5728 68.4417 19.4995 66.2968 21.6122V9.36822H59.8728V32.0634C59.8728 40.5583 65.9856 46.3796 72.8561 46.3796C80.4771 46.3796 87.181 40.4553 87.181 32.479C87.181 24.6019 81.0115 18.5783 73.8371 18.5783V18.5728ZM73.7969 39.8834C72.8395 39.8834 71.8914 39.694 71.0069 39.3259C70.1224 38.9578 69.3187 38.4183 68.6417 37.7381C67.9647 37.058 67.4277 36.2506 67.0613 35.3619C66.6949 34.4733 66.5063 33.5208 66.5063 32.5589C66.5063 31.5971 66.6949 30.6446 67.0613 29.756C67.4277 28.8673 67.9647 28.0599 68.6417 27.3797C69.3187 26.6996 70.1224 26.1601 71.0069 25.792C71.8914 25.4239 72.8395 25.2344 73.7969 25.2344C75.7304 25.2344 77.5848 26.0061 78.9521 27.3797C80.3193 28.7534 81.0874 30.6164 81.0874 32.5589C81.0874 34.5015 80.3193 36.3645 78.9521 37.7381C77.5848 39.1118 75.7304 39.8834 73.7969 39.8834ZM143.604 32.1406C143.604 24.1496 136.915 18.24 129.279 18.24C122.41 18.24 116.296 24.0595 116.296 32.5562V55.2643H122.72V43.0037C124.861 45.1127 127.083 46.0431 130.256 46.0431C137.431 46.0431 143.602 40.0195 143.602 32.1406H143.604ZM137.52 32.0597C137.52 34.0023 136.752 35.8653 135.385 37.2389C134.018 38.6126 132.163 39.3842 130.23 39.3842C128.296 39.3842 126.442 38.6126 125.075 37.2389C123.707 35.8653 122.939 34.0023 122.939 32.0597C122.939 30.1172 123.707 28.2541 125.075 26.8805C126.442 25.5069 128.296 24.7352 130.23 24.7352C132.163 24.7352 134.018 25.5069 135.385 26.8805C136.752 28.2541 137.52 30.1172 137.52 32.0597Z" fill="#33475B"/>
<path d="M164.365 17.9274V11.4423C165.218 11.0418 165.94 10.4061 166.447 9.6092C166.955 8.81234 167.226 7.88708 167.231 6.94113V6.79219C167.231 4.03413 165.005 1.79826 162.26 1.79826H162.112C160.793 1.79826 159.529 2.3244 158.597 3.26095C157.665 4.19749 157.141 5.46772 157.141 6.79219V6.94113C157.145 7.88708 157.417 8.81234 157.924 9.6092C158.432 10.4061 159.154 11.0418 160.007 11.4423V17.9274C157.555 18.3046 155.246 19.3258 153.314 20.8877L135.611 7.0349C135.737 6.57706 135.803 6.10635 135.81 5.6338C135.812 4.52084 135.486 3.43224 134.872 2.50568C134.258 1.57913 133.385 0.856251 132.362 0.428491C131.34 0.000731692 130.213 -0.112694 129.127 0.102561C128.04 0.317816 127.041 0.852081 126.256 1.63778C125.472 2.42347 124.936 3.4253 124.719 4.51654C124.501 5.60778 124.61 6.7394 125.033 7.76827C125.455 8.79714 126.172 9.67703 127.092 10.2966C128.012 10.9163 129.095 11.2478 130.202 11.2492C131.172 11.2446 132.123 10.9847 132.961 10.4954L150.393 24.1239C148.827 26.5007 148.01 29.2964 148.049 32.1465C148.087 34.9966 148.979 37.769 150.609 40.1023L145.307 45.4308C144.878 45.2931 144.432 45.22 143.982 45.2139C143.073 45.2146 142.184 45.4861 141.428 45.9941C140.672 46.5021 140.083 47.2238 139.736 48.068C139.388 48.9122 139.297 49.8409 139.475 50.7369C139.652 51.6329 140.09 52.4559 140.733 53.1019C141.376 53.7478 142.196 54.1879 143.087 54.3663C143.979 54.5447 144.904 54.4535 145.744 54.1042C146.584 53.7549 147.303 53.1632 147.808 52.4039C148.314 51.6446 148.584 50.7518 148.585 49.8382C148.579 49.3862 148.506 48.9375 148.369 48.507L153.614 43.2354C155.325 44.5584 157.314 45.4704 159.429 45.9018C161.545 46.3331 163.731 46.2722 165.819 45.7237C167.908 45.1753 169.843 44.1538 171.478 42.7377C173.113 41.3215 174.404 39.5482 175.251 37.5535C176.098 35.5589 176.48 33.3959 176.366 31.2302C176.253 29.0645 175.648 26.9536 174.597 25.0591C173.546 23.1647 172.078 21.5371 170.304 20.3009C168.531 19.0648 166.499 18.2529 164.365 17.9274ZM162.19 39.2564C161.221 39.2832 160.256 39.1146 159.353 38.7604C158.449 38.4062 157.626 37.8737 156.931 37.1943C156.236 36.5149 155.683 35.7025 155.306 34.8049C154.929 33.9074 154.734 32.943 154.734 31.9687C154.734 30.9944 154.929 30.0301 155.306 29.1325C155.683 28.235 156.236 27.4225 156.931 26.7432C157.626 26.0638 158.449 25.5313 159.353 25.1771C160.256 24.8229 161.221 24.6542 162.19 24.681C164.069 24.7471 165.849 25.5432 167.156 26.9016C168.462 28.2599 169.192 30.0746 169.193 31.9633C169.194 33.8521 168.465 35.6675 167.161 37.0272C165.856 38.3869 164.077 39.1848 162.198 39.2528" fill="#FF7A59"/>
</g>
<defs>
<clipPath id="clip0">
<rect width="194" height="57" fill="white"/>
</clipPath>
</defs>
</svg>
