<svg width="766" height="29" viewBox="0 0 766 29" fill="none" xmlns="http://www.w3.org/2000/svg">
<g clip-path="url(#clip0)">
<path d="M216.834 14.7617C218.032 14.6857 219.477 15.4096 219.968 16.6696L213.448 18.4122C213.363 16.061 215.123 14.8723 216.834 14.7617ZM224.015 17.7691C224.013 17.7572 224.016 17.7488 224.014 17.7371C224.009 17.7157 224.002 17.6883 223.997 17.6657C223.863 16.9941 223.657 16.3439 223.443 15.8756L223.441 15.8765C223.384 15.7315 223.328 15.5889 223.274 15.47C222.247 13.2103 220.216 11.6139 217.062 11.6139C212.558 11.6139 209.581 15.2228 209.581 19.3499C209.581 24.0012 212.642 27.0906 217.467 27.0906C219.532 27.0906 221.023 26.5889 222.452 25.9221C222.582 25.8626 222.682 25.7485 222.724 25.613L223.457 22.11C223.514 21.9174 223.403 21.7783 223.281 21.8413C221.974 22.6734 220.295 23.6683 218.244 23.6529C216.17 23.6375 214.476 22.7863 213.944 21.3255L223.709 18.727C223.995 18.626 224.125 18.4655 224.09 18.2016C224.071 18.0566 224.041 17.9127 224.015 17.7689L224.015 17.7691ZM267.666 27.0908C265.158 27.0908 263.225 26.2694 261.582 25.3339C261.444 25.2567 261.3 25.1021 261.328 24.9595L261.974 21.8463C261.985 21.7762 262.036 21.7215 262.105 21.7655C263.975 22.9922 265.629 23.8552 267.922 23.8552C269.193 23.8552 269.973 23.3667 269.973 22.6701C269.973 21.8915 269.396 21.5468 266.74 20.8526C263.738 20.0728 261.599 19.0636 261.599 16.2904C261.599 13.6337 263.909 11.7009 267.808 11.7009C269.823 11.7009 271.439 12.2014 272.701 12.8278C272.874 12.9134 273.002 13.1131 272.979 13.2854L272.376 16.1858C272.357 16.2773 272.277 16.332 272.197 16.2845C270.717 15.3775 268.876 14.9056 267.637 14.9056C266.337 14.9056 265.643 15.3692 265.643 16.004C265.643 16.7516 266.306 17.069 268.789 17.705C272.141 18.5418 274.019 19.5807 274.019 22.4407C274.019 25.1556 271.565 27.0908 267.666 27.0908ZM247.506 19.4728C247.506 21.7943 249.096 23.5334 251.234 23.5334C253.457 23.5334 254.99 21.7052 254.99 19.4146C254.99 17.0943 253.4 15.3826 251.263 15.3826C249.04 15.3826 247.506 17.1787 247.506 19.4728ZM251.229 11.6145C256.254 11.6145 259.199 15.3374 259.199 19.3504C259.199 23.4228 256.079 27.1755 251.201 27.1755C246.205 27.1755 243.232 23.4228 243.232 19.4098C243.232 15.3683 246.35 11.6145 251.229 11.6145ZM235.912 12.0183H239.981C240.061 12.0183 240.126 12.0825 240.126 12.1621V26.6272C240.126 26.7056 240.061 26.7722 239.981 26.7722H235.912C235.831 26.7722 235.765 26.7056 235.765 26.6272V12.1621C235.765 12.0825 235.831 12.0183 235.912 12.0183ZM237.961 9.96659C236.53 9.96659 235.431 8.92174 235.431 7.57378C235.431 6.19966 236.53 5.18453 237.961 5.18453C239.39 5.18453 240.487 6.19966 240.487 7.57378C240.487 8.92174 239.39 9.96659 237.961 9.96659ZM227.211 6.00936L231.282 4.93479C231.375 4.90978 231.465 4.97996 231.465 5.07387V26.627C231.465 26.7066 231.4 26.7721 231.32 26.7721H227.248C227.168 26.7721 227.103 26.7066 227.103 26.627V6.15081C227.103 6.08425 227.148 6.026 227.211 6.00936ZM202.376 18.6597H192.847V26.6286C192.847 26.7083 192.782 26.7736 192.702 26.7736H188.311C188.231 26.7736 188.166 26.7083 188.166 26.6286V6.70271C188.166 6.62426 188.231 6.55888 188.311 6.55888H192.702C192.782 6.55888 192.847 6.62421 192.847 6.70271V14.3852H202.376V6.70271C202.376 6.62426 202.441 6.55888 202.521 6.55888H206.883C206.963 6.55888 207.028 6.62421 207.028 6.70271V26.6286C207.028 26.7083 206.963 26.7736 206.883 26.7736H202.521C202.441 26.7736 202.376 26.7083 202.376 26.6286V18.6597Z" fill="black"/>
<path d="M179.493 11.8292C179.181 10.2923 178.766 9.30687 177.6 9.47091C176.742 9.59334 176.372 10.3826 176.459 11.3062C176.712 13.9261 176.866 16.3938 176.202 19.0089C175.911 20.1548 175.265 23.3595 173.216 22.7295C171.729 22.273 172.04 20.2927 172.125 19.2633C172.433 17.1046 171.719 16.628 171.066 16.5186C170.161 16.3664 169.474 16.8122 169.178 18.5703C169.058 19.1384 168.07 23.8587 168.023 24.3437C167.886 25.7428 168.385 27.2512 168.486 27.603C168.521 27.729 168.605 27.8123 168.731 27.842C171.83 28.4981 175.069 28.2723 177.408 26.9029C177.537 26.8268 177.606 26.7377 177.666 26.658C178.96 24.7942 179.547 21.9532 179.862 19.7411C180.234 17.1201 180.103 14.4075 179.493 11.8292Z" fill="black"/>
<path d="M162.851 18.1689C163.164 19.7059 163.58 20.6925 164.746 20.5272C165.603 20.406 165.971 19.6155 165.887 18.6931C165.632 16.0732 165.478 13.6055 166.142 10.9904C166.434 9.84456 167.079 6.64106 169.13 7.26987C170.615 7.72514 170.305 9.70786 170.22 10.7361C169.911 12.8935 170.625 13.3726 171.279 13.4807C172.185 13.6341 172.87 13.1883 173.165 11.4279C173.286 10.8609 174.274 6.13944 174.322 5.65446C174.458 4.25657 173.96 2.74694 173.859 2.39628C173.825 2.27028 173.739 2.18707 173.614 2.15736C170.516 1.50121 167.275 1.72705 164.937 3.09642C164.808 3.17011 164.74 3.26164 164.678 3.34128C163.385 5.20514 162.797 8.04608 162.484 10.2594C162.11 12.8781 162.242 15.5918 162.851 18.1689Z" fill="black"/>
</g>
<g clip-path="url(#clip1)">
<mask id="mask0" style="mask-type:alpha" maskUnits="userSpaceOnUse" x="0" y="1" width="18" height="19">
<path d="M0.0673828 1.53613H17.0814V19.3777H0.0673828V1.53613Z" fill="white"/>
</mask>
<g mask="url(#mask0)">
<path fill-rule="evenodd" clip-rule="evenodd" d="M6.96603 19.3777H6.95928C5.11232 19.3777 3.2035 19.3329 1.94482 18.7987C1.29467 18.5243 0.842492 18.1547 0.521918 17.6361C0.170973 17.0661 0 16.3302 0 15.3861C0 14.6659 0.102359 13.8214 0.305952 12.8705C0.35207 12.6544 1.44315 7.58525 1.51626 7.31645C1.80422 6.26029 2.16753 5.39117 2.62871 4.66205C3.42509 3.40541 4.48467 2.59453 5.96269 2.11293C7.19437 1.71421 8.76237 1.53613 11.0446 1.53613H11.0638C12.2628 1.53613 13.2482 1.62013 14.076 1.79373C15.0524 1.99757 15.7981 2.33133 16.2931 2.78493C16.662 3.12429 16.9005 3.53869 17.0039 4.01693C17.0557 4.25773 17.0816 4.52653 17.0816 4.81885C17.0816 5.49309 16.9432 6.19645 16.8318 6.76317C16.8161 6.84493 16.8004 6.92557 16.7857 7.00285L16.7812 7.02637H12.3674L12.3697 6.99501C12.3697 6.99501 12.3832 6.86173 12.3888 6.80349C12.3888 6.80013 12.409 6.62205 12.409 6.36669C12.409 5.98477 12.2302 5.68573 11.8601 5.45053C11.5688 5.28589 11.1965 5.22877 10.8399 5.18509C10.4586 5.14029 10.0323 5.13357 9.62848 5.13357C8.8861 5.13357 8.32481 5.19293 7.86476 5.31837C7.49694 5.41693 7.19099 5.56141 6.93228 5.75853C6.56559 6.03517 6.28101 6.43277 6.06167 6.97261C5.85695 7.47661 5.7096 8.07469 5.54988 8.81837L4.94472 11.652C4.75125 12.5648 4.61402 13.2569 4.6129 13.8528C4.6129 14.1966 4.66014 14.4677 4.76025 14.7085C4.91773 15.0915 5.2518 15.3905 5.70285 15.5496C6.13816 15.7075 6.6882 15.7781 7.48682 15.7792C8.02111 15.7792 8.45867 15.7691 8.85685 15.7209C9.5475 15.6381 10.0413 15.432 10.4125 15.0725C10.8152 14.6816 11.0874 14.1059 11.2685 13.2581L11.3303 12.9691H15.6958L15.6947 12.9993C15.6924 13.0329 15.4483 14.1742 15.3201 14.6312C15.1874 15.1072 15.0423 15.5137 14.8769 15.8721C14.4528 16.7939 13.8623 17.5029 13.0164 18.1032C12.1987 18.6721 11.3281 19.0238 10.2753 19.2075C9.36977 19.3654 8.44517 19.3766 7.41596 19.3766H7.40358C7.38221 19.3766 7.01889 19.3766 6.96603 19.3777Z" fill="black"/>
</g>
<path fill-rule="evenodd" clip-rule="evenodd" d="M55.8723 19.3777H55.8667C54.0186 19.3777 52.1097 19.3329 50.8522 18.7987C50.2009 18.5243 49.7487 18.1547 49.4293 17.6361C49.0772 17.0661 48.9074 16.3302 48.9062 15.3861C48.9062 14.6659 49.0097 13.8214 49.2133 12.8705C49.2583 12.6544 50.3494 7.58525 50.4225 7.31645C50.7105 6.26029 51.0738 5.39117 51.535 4.66205C52.3313 3.40541 53.3909 2.59453 54.8689 2.11293C56.1017 1.71421 57.6686 1.53613 59.9498 1.53613H59.9711C61.1691 1.53613 62.1544 1.62013 62.9834 1.79373C63.9598 1.99757 64.7055 2.33133 65.1993 2.78493C65.5694 3.12429 65.8067 3.53869 65.9091 4.01693C65.9608 4.25661 65.9878 4.52653 65.9878 4.81885C65.9878 5.49309 65.8506 6.19757 65.7392 6.76317C65.7224 6.84605 65.7077 6.92557 65.692 7.00285L65.6875 7.02637H61.2737L61.2771 6.99501C61.2771 6.99501 61.2906 6.86173 61.2962 6.80349C61.2962 6.80013 61.3153 6.62205 61.3153 6.36669C61.3153 5.98477 61.1353 5.68573 60.7675 5.45053C60.4751 5.28589 60.1027 5.22877 59.7462 5.18509C59.366 5.14029 58.9385 5.13357 58.5347 5.13357C57.7924 5.13357 57.2311 5.19293 56.771 5.31837C56.4032 5.41693 56.0984 5.56141 55.8385 5.75853C55.4718 6.03517 55.1884 6.43277 54.969 6.97261C54.7632 7.47661 54.6159 8.07469 54.4573 8.81837L53.8521 11.652C53.6575 12.5648 53.5203 13.2569 53.5192 13.8528C53.5192 14.1966 53.5664 14.4677 53.6665 14.7085C53.824 15.0915 54.158 15.3905 54.6091 15.5496C55.0444 15.7075 55.5944 15.7781 56.3931 15.7792C56.9285 15.7792 57.3649 15.7691 57.7631 15.7209C58.4526 15.6381 58.9487 15.432 59.3199 15.0725C59.7214 14.6816 59.9936 14.1059 60.1759 13.2581L60.2366 12.9691H64.602L64.6009 12.9993C64.5987 13.0329 64.3534 14.1742 64.2263 14.6312C64.0936 15.1072 63.9485 15.5137 63.7843 15.8721C63.3602 16.7939 62.7686 17.5029 61.9227 18.1032C61.1061 18.6721 60.2343 19.0238 59.1826 19.2075C58.276 19.3654 57.3514 19.3766 56.3233 19.3766H56.3098C56.2885 19.3766 55.9251 19.3766 55.8723 19.3777Z" fill="black"/>
<path fill-rule="evenodd" clip-rule="evenodd" d="M46.3994 19.2302H33.7002L33.7081 19.1955L37.2591 2.55679C37.3221 2.25103 37.4369 2.04047 37.6225 1.89711C37.8114 1.75039 38.0724 1.67871 38.4188 1.67871H49.1339C49.3982 1.67983 49.5894 1.73919 49.7042 1.85567C49.7908 1.94415 49.8369 2.07407 49.838 2.23199V2.24543C49.8369 2.30927 49.829 2.37535 49.8133 2.44143L49.2587 5.03871H40.9632L40.2444 8.47935H48.0293L47.3207 11.724H39.5358L38.6494 15.8769H47.1148L46.3994 19.2302Z" fill="black"/>
<path fill-rule="evenodd" clip-rule="evenodd" d="M69.1733 19.2302H64.9395L64.9462 19.1955L68.486 2.61391C68.5704 2.25439 68.7076 2.00575 68.9033 1.85567C69.0597 1.73695 69.2599 1.67983 69.5175 1.67871H72.0236C72.2935 1.67983 72.4949 1.74255 72.622 1.86463C72.7221 1.96095 72.775 2.09983 72.7761 2.26559C72.7761 2.31599 72.7716 2.36863 72.7615 2.42239L69.1733 19.2302Z" fill="black"/>
<path fill-rule="evenodd" clip-rule="evenodd" d="M80.8284 19.2291H75.4934L75.4855 19.2134L71.5352 10.1101L71.5487 10.0966L78.382 2.70799C78.8026 2.24879 79.0535 2.01583 79.2739 1.88031C79.5135 1.73359 79.7194 1.68095 80.0636 1.67871H83.5078C83.6686 1.67983 83.7699 1.73247 83.8261 1.77727C83.861 1.80639 83.8835 1.83327 83.8981 1.86239C83.9093 1.88143 83.9161 1.90719 83.9195 1.93295H83.9273L83.9206 1.98783C83.9138 2.05951 83.8767 2.17711 83.735 2.33503L76.3595 10.231L80.8284 19.2291Z" fill="black"/>
<path fill-rule="evenodd" clip-rule="evenodd" d="M27.2928 19.2302H27.2579L27.2658 19.1955L28.7742 12.1082H21.7935L20.2727 19.2302H16.04L16.0479 19.1955C16.1908 18.5235 19.5551 2.71583 19.5754 2.62847C19.7002 2.10767 19.9072 1.92847 20.0737 1.83103C20.2536 1.72687 20.5056 1.67871 20.8644 1.67871H23.1534C23.2726 1.67983 23.4661 1.73023 23.6135 1.83551C23.6922 1.89039 23.7541 1.95647 23.7968 2.03039C23.8452 2.11439 23.8688 2.20959 23.8688 2.32047C23.8688 2.36863 23.8632 2.42015 23.8553 2.47391C23.8373 2.57471 22.6754 7.97647 22.5595 8.51071H29.5402C30.1082 5.84287 30.7842 2.66655 30.7932 2.62847C30.9181 2.10767 31.125 1.92847 31.2915 1.83103C31.4715 1.72687 31.7234 1.67871 32.0823 1.67871H34.3713C34.4894 1.67983 34.684 1.73023 34.8313 1.83551C34.9101 1.89039 34.9719 1.95647 35.0135 2.03039C35.0619 2.11439 35.0855 2.20959 35.0855 2.32047C35.0855 2.36863 35.081 2.42015 35.072 2.47391C35.054 2.57807 31.6402 18.528 31.4962 19.2078L31.4917 19.2302H27.2928Z" fill="black"/>
<mask id="mask1" style="mask-type:alpha" maskUnits="userSpaceOnUse" x="81" y="1" width="32" height="28">
<path d="M81.8691 1.55957H112.481V28.9346H81.8691V1.55957Z" fill="white"/>
</mask>
<g mask="url(#mask1)">
<path fill-rule="evenodd" clip-rule="evenodd" d="M93.3141 5.11223C93.6392 5.19511 93.899 5.35751 94.0385 5.62743C94.1308 5.80551 94.169 6.01719 94.169 6.26471C94.169 6.52007 94.1285 6.81687 94.0543 7.17079C93.9553 7.62999 93.8585 8.00743 93.7123 8.33335C93.5661 8.65815 93.3659 8.93143 93.0768 9.15655C92.4953 9.61015 91.5909 9.88791 89.9892 10.2452C87.87 10.7145 86.4066 11.1053 85.3763 11.6149C84.347 12.1268 83.7453 12.7394 83.2942 13.7037C82.995 14.3489 82.7667 15.1519 82.5485 16.1745L81.9512 19.2041H95.683L96.323 16.1341H86.7688C86.7688 16.1341 86.9173 15.3961 87.0376 15.125C87.1951 14.7756 87.3987 14.5135 87.6653 14.3186C87.9307 14.1226 88.2524 13.9961 88.6439 13.8863C89.4279 13.6701 90.5111 13.5234 92.1049 13.118C94.07 12.6117 95.3962 12.0596 96.3309 11.1613C97.2656 10.2653 97.837 9.00535 98.2589 7.03079C98.4152 6.29943 98.5018 5.58151 98.5018 5.03719C98.5018 4.25431 98.3511 3.65623 98.08 3.19591C97.81 2.73447 97.4175 2.40407 96.9068 2.15991C95.8877 1.67159 94.3917 1.55847 92.6156 1.55958C90.357 1.55847 88.5786 1.79255 87.257 2.60007C85.9364 3.40647 85.0152 4.87591 84.5045 7.26487L84.3594 7.94023H88.5348L88.6934 7.19431C88.8576 6.47863 89.0083 5.99143 89.2805 5.64535C89.5516 5.29591 89.943 5.13015 90.4785 5.06295C90.8373 5.01591 91.2715 5.00583 91.8125 5.00583C91.898 5.00471 91.9801 5.00359 92.0588 5.00359C92.574 5.00471 92.9857 5.02711 93.3141 5.11223Z" fill="black"/>
<path fill-rule="evenodd" clip-rule="evenodd" d="M104.833 3.41939C104.347 3.92115 100.272 8.16707 98.6034 9.90755C98.2704 10.2637 97.9139 10.6579 97.7553 10.9816C97.6282 11.2179 97.4606 11.8765 97.3751 12.3469C97.1974 13.3258 97.0646 14.2207 96.9825 14.588C96.9611 14.6832 96.9521 14.7695 96.9521 14.8501C96.9533 15.1514 97.0793 15.353 97.248 15.4963C97.4178 15.6386 97.6428 15.7047 97.87 15.7047C98.0736 15.7047 105.959 15.7047 105.959 15.7047L105.214 19.2069L109.473 18.8071L110.134 15.7047H111.654L112.316 12.6056H110.794C110.794 12.6056 112.315 5.52835 112.362 5.26627C112.885 2.40243 111.691 1.56467 109.002 1.56467C108.315 1.56467 106.762 1.42355 104.833 3.41939ZM106.62 12.6056H100.509L107.779 5.10387H108.221L106.62 12.6056Z" fill="black"/>
<path fill-rule="evenodd" clip-rule="evenodd" d="M95.3006 28.9993C92.5527 28.9982 89.9127 28.2691 87.6676 26.887C85.4629 25.5307 84.1762 23.9313 83.5676 23.0275L82.7645 25.0883C82.6914 25.2765 82.49 25.3952 82.2786 25.3605C82.0671 25.3235 81.9141 25.1454 81.913 24.9349L81.8691 20.8984V20.895C81.8703 20.7819 81.9164 20.6744 81.9974 20.5949C82.0817 20.512 82.192 20.4672 82.3089 20.4672L86.4348 20.4649H86.4393C86.6429 20.4717 86.8195 20.6206 86.8589 20.8177C86.8634 20.8446 86.8667 20.8726 86.8667 20.9006C86.8667 21.0787 86.7542 21.2411 86.5855 21.3061L84.571 22.0833C86.3369 23.6491 89.9746 26.1691 95.0824 26.1702C95.5189 26.1702 95.962 26.1512 96.4007 26.1142C98.5548 25.9317 100.728 25.4041 102.688 24.591C104.403 23.8765 105.918 22.9648 107.074 21.9512L104.997 21.3408C104.811 21.2881 104.679 21.1168 104.679 20.923C104.679 20.9096 104.681 20.8961 104.682 20.8805C104.703 20.6733 104.87 20.5086 105.08 20.4896L109.11 20.1233C109.129 20.1211 109.145 20.1211 109.157 20.1211C109.259 20.1211 109.359 20.1581 109.437 20.2219C109.529 20.2992 109.585 20.4045 109.594 20.5209C109.929 24.4645 109.929 24.4656 109.929 24.4801C109.929 24.6773 109.796 24.8486 109.604 24.9001C109.568 24.9102 109.531 24.9158 109.491 24.9158C109.322 24.9158 109.166 24.8206 109.093 24.6739L108.121 22.8158C107.338 23.8664 105.979 25.3515 103.85 26.6406C101.692 27.9477 99.278 28.7216 96.6819 28.94L96.421 28.9624V28.9601C96.0453 28.9859 95.6685 28.9993 95.3006 28.9993Z" fill="black"/>
</g>
</g>
<g clip-path="url(#clip2)">
<path d="M376.28 12.3848L373.225 16.6597L380.284 26.9494V12.3848H376.28ZM355.149 13.2605V26.4424L361.814 16.5791L358.69 12.5C361.247 11.8317 363.643 10.6679 365.737 9.0663L367.751 11.6128L371.57 5.86301H393.291V12.3848H388.407V28.3091H371.57L367.265 21.914L362.786 28.3091H346.956V23.9305C345.822 27.007 342.223 28.9198 335.106 28.9198C324.54 28.9198 324.019 25.198 323.857 20.9461H332.213C332.236 22.2136 332.456 23.1354 332.988 23.7461C333.59 24.3914 334.446 24.7256 335.337 24.6679C337.038 24.6679 338.867 24.1955 338.867 22.3519C338.867 21.9717 338.739 21.6029 338.519 21.3033C337.397 19.8284 328.093 18.7453 325.478 16.049C324.424 14.9659 324.1 13.3527 324.1 12.0391C324.1 7.03832 328.012 4.75684 335.8 4.75684C344.074 4.75684 346.041 7.63749 346.146 12.3733H338.103C338.045 11.1058 337.663 10.1033 337.108 9.64243C336.61 9.19305 335.939 8.9626 335.268 9.00869C333.543 9.04326 332.629 9.7807 332.629 10.933C332.618 11.3132 332.745 11.6819 332.976 11.9815C334.238 13.4219 343.241 14.4474 345.833 17.1898C346.331 17.6968 346.713 18.3075 346.956 18.9642V13.6638C349.698 13.7906 352.441 13.6523 355.149 13.2605Z" fill="black"/>
<path d="M346.956 5.85142C355.3 6.46212 359.998 4.09998 361.606 1.02344H370.112C367.555 8.39792 359.57 13.0185 346.944 12.3963V5.85142H346.956Z" fill="black"/>
</g>
<path d="M702.669 13.5361V11.9014H699.272C698.501 11.9014 698.239 11.5255 698.239 10.7921V0.154297H696.321V10.905C696.321 12.3144 697.11 13.5361 698.934 13.5361H702.669Z" fill="black"/>
<path d="M709.854 7.991H705.569C705.588 7.40813 705.626 7.12635 705.813 6.69427C706.114 5.97967 706.81 5.49114 707.712 5.49114C708.614 5.49114 709.29 5.97967 709.591 6.69427C709.779 7.12635 709.835 7.40813 709.854 7.991ZM711.753 9.32537V8.47954C711.753 5.77316 710.268 3.89355 707.712 3.89355C705.268 3.89355 703.671 5.67907 703.671 8.76132C703.671 12.3888 705.569 13.6481 707.956 13.6481C709.629 13.6481 710.55 13.1408 711.527 12.1635L710.305 11.017C709.629 11.6935 709.065 11.9944 707.994 11.9944C706.433 11.9944 705.569 10.9603 705.569 9.32537H711.753Z" fill="black"/>
<path d="M715.698 4.00684H713.78V13.5356H715.698V4.00684Z" fill="black"/>
<path d="M724.085 8.76132C724.085 10.4532 723.84 11.9379 722.111 11.9379C720.382 11.9379 720.119 10.4532 720.119 8.76132C720.119 7.06965 720.382 5.6038 722.111 5.6038C723.84 5.6038 724.085 7.06965 724.085 8.76132ZM726.002 8.76132C726.002 7.31404 725.889 5.69789 724.931 4.73915C724.405 4.21298 723.559 3.89355 722.6 3.89355C721.566 3.89355 720.796 4.15676 720.082 5.02093V4.00622H718.202V17.3883H720.119V12.5579C720.814 13.3849 721.604 13.6481 722.619 13.6481C723.577 13.6481 724.405 13.3285 724.931 12.8026C725.889 11.8433 726.002 10.2088 726.002 8.76132Z" fill="black"/>
<path d="M734.525 13.5356V11.8254H729.75L734.525 5.52914V4.00684H727.683V5.71684H732.156L727.42 12.0135V13.5356H734.525Z" fill="black"/>
<path d="M738.539 4.00684H736.622V13.5356H738.539V4.00684Z" fill="black"/>
<path d="M746.236 8.59269C746.236 10.0964 746.029 11.5813 744.3 11.5813C742.571 11.5813 742.346 10.0967 742.346 8.59269C742.346 7.0892 742.571 5.60429 744.3 5.60429C746.03 5.60429 746.236 7.08895 746.236 8.59269ZM748.153 13.4795V4.0067H746.293V5.02166C745.578 4.15701 744.808 3.89355 743.793 3.89355C742.834 3.89355 742.026 4.19464 741.5 4.72106C740.579 5.64192 740.429 6.97653 740.429 8.59269C740.429 10.2088 740.579 11.5437 741.5 12.4643C742.026 12.9907 742.815 13.3104 743.774 13.3104C744.752 13.3104 745.541 13.0474 746.236 12.2202V13.4421C746.236 14.72 745.616 15.8665 744 15.8665C743.06 15.8665 742.534 15.5844 741.932 15.0209L740.711 16.2423C741.707 17.1632 742.628 17.5014 744.075 17.5014C746.612 17.5014 748.153 15.8098 748.153 13.4795Z" fill="black"/>
<path d="M756.437 7.991H752.152C752.17 7.40813 752.208 7.12635 752.396 6.69427C752.696 5.97967 753.392 5.49114 754.294 5.49114C755.196 5.49114 755.873 5.97967 756.174 6.69427C756.361 7.12635 756.418 7.40813 756.437 7.991ZM758.335 9.32537V8.47954C758.335 5.77316 756.85 3.89355 754.294 3.89355C751.851 3.89355 750.253 5.67907 750.253 8.76132C750.253 12.3888 752.152 13.6481 754.538 13.6481C756.211 13.6481 757.132 13.1408 758.109 12.1635L756.888 11.017C756.211 11.6935 755.647 11.9944 754.576 11.9944C753.016 11.9944 752.152 10.9603 752.152 9.32537H758.335Z" fill="black"/>
<path d="M765.597 4.00707V5.64204H763.306C762.535 5.64204 762.272 6.01792 762.272 6.75133V13.5358H760.355V6.63794C760.355 5.22854 761.145 4.00684 762.968 4.00684H765.597V4.00707Z" fill="black"/>
<path d="M715.753 0.0976562H713.724V2.12731H715.753V0.0976562Z" fill="black"/>
<path d="M738.595 0.0976562H736.565V2.12731H738.595V0.0976562Z" fill="black"/>
<path d="M672.371 0H676.347C676.347 0 676.347 12.0293 676.347 19.9092C676.347 22.1049 678.127 23.8848 680.323 23.8848C684.216 23.8848 688.256 23.8849 688.256 23.8849V27.8605C688.256 27.8605 684.216 27.8605 680.323 27.8605C675.931 27.8605 672.371 24.3005 672.371 19.9092V0Z" fill="black"/>
<path d="M698.548 28.0003C697.562 28.0003 696.932 27.7276 696.321 27.1169L696.678 26.7598C697.28 27.3618 697.778 27.5492 698.577 27.5492C699.638 27.5492 700.296 27.0423 700.296 26.1679C700.296 25.7644 700.183 25.4443 699.929 25.2287C699.676 25.0315 699.516 24.9465 698.962 24.8712L698.182 24.7492C697.674 24.6735 697.28 24.5141 696.988 24.2604C696.64 23.9696 696.462 23.5561 696.462 23.0297C696.462 21.9023 697.251 21.1973 698.539 21.1973C699.366 21.1973 699.892 21.4233 700.465 21.9211L700.136 22.2496C699.742 21.874 699.3 21.6298 698.511 21.6298C697.534 21.6298 696.961 22.156 696.961 23.0109C696.961 23.3963 697.073 23.6876 697.308 23.8846C697.543 24.0818 697.928 24.2323 698.304 24.2981L699.027 24.411C699.657 24.4953 699.948 24.618 700.221 24.8524C700.588 25.1535 700.803 25.6136 700.803 26.1491C700.803 27.2862 699.948 28.0003 698.548 28.0003Z" fill="black"/>
<path d="M702.381 26.7603V23.7724H701.761V23.4153H702.381V21.9678H702.86V23.4153H703.884V23.7724H702.86V26.77C702.86 27.249 703.076 27.5215 703.556 27.5215H703.884V27.9441H703.471C702.757 27.9439 702.381 27.446 702.381 26.7603Z" fill="black"/>
<path d="M707.962 27.4935C707.577 27.8786 707.22 28.0008 706.581 28.0008C705.905 28.0008 705.538 27.8879 705.247 27.5876C705.031 27.3715 704.918 27.0428 704.918 26.7041C704.918 25.8773 705.51 25.3983 706.496 25.3983H707.962V24.8907C707.962 24.1676 707.615 23.7819 706.685 23.7819C706.045 23.7819 705.726 23.9418 705.435 24.355L705.087 24.0547C705.472 23.5192 705.942 23.3594 706.685 23.3594C707.888 23.3594 708.442 23.8946 708.442 24.8436V27.9444H707.962V27.4935H707.962ZM706.553 25.7837C705.783 25.7837 705.397 26.0841 705.397 26.6951C705.397 27.296 705.754 27.5785 706.581 27.5785C706.995 27.5785 707.38 27.5409 707.709 27.2305C707.878 27.0709 707.962 26.7791 707.962 26.3661V25.7837H706.553Z" fill="black"/>
<path d="M712.827 27.3619C712.423 27.8876 712 28.0005 711.483 28.0005C711.004 28.0005 710.61 27.8409 710.375 27.6061C709.914 27.1459 709.792 26.3941 709.792 25.6796C709.792 24.9654 709.914 24.2139 710.375 23.7538C710.61 23.5187 711.004 23.3591 711.483 23.3591C712 23.3591 712.423 23.4713 712.827 23.9977V21.2539H713.306V27.9438H712.827V27.3619ZM711.549 23.7814C710.44 23.7814 710.271 24.7404 710.271 25.6796C710.271 26.6195 710.44 27.578 711.549 27.578C712.657 27.578 712.827 26.6195 712.827 25.6796C712.827 24.7404 712.657 23.7814 711.549 23.7814Z" fill="black"/>
<path d="M715.238 26.7603V23.7724H714.618V23.4153H715.238V21.9678H715.718V23.4153H716.742V23.7724H715.718V26.77C715.718 27.249 715.934 27.5215 716.413 27.5215H716.742V27.9441H716.329C715.614 27.9439 715.238 27.446 715.238 26.7603Z" fill="black"/>
<path d="M721.891 27.9436L720.613 24.1665L719.335 27.9436H718.847L717.399 23.415H717.926L719.082 27.3803L720.378 23.415H720.848L722.145 27.3803L723.301 23.415H723.826L722.38 27.9436H721.891Z" fill="black"/>
<path d="M726.492 27.5678C727.028 27.5678 727.357 27.4082 727.743 27.023L728.1 27.3048C727.639 27.765 727.216 27.9999 726.465 27.9999C725.215 27.9999 724.538 27.1919 724.538 25.6789C724.538 24.2133 725.215 23.3584 726.352 23.3584C727.489 23.3584 728.165 24.1754 728.165 25.5665V25.7825H725.017C725.017 26.9382 725.525 27.5678 726.492 27.5678ZM727.526 24.5425C727.329 24.0625 726.878 23.7812 726.351 23.7812C725.825 23.7812 725.375 24.0625 725.177 24.5425C725.073 24.8335 725.045 24.9557 725.017 25.3971H727.686C727.657 24.965 727.648 24.8152 727.526 24.5425Z" fill="black"/>
<path d="M734.413 25.454L733.38 26.6471V27.9438H732.9V21.2539H733.38V25.9706L735.626 23.4153H736.237L734.743 25.106L736.565 27.9438H735.973L734.413 25.454Z" fill="black"/>
<path d="M739.242 27.5678C739.778 27.5678 740.107 27.4082 740.493 27.023L740.85 27.3048C740.389 27.765 739.966 27.9999 739.215 27.9999C737.965 27.9999 737.288 27.1919 737.288 25.6789C737.288 24.2133 737.965 23.3584 739.102 23.3584C740.239 23.3584 740.915 24.1754 740.915 25.5665V25.7825H737.767C737.767 26.9382 738.275 27.5678 739.242 27.5678ZM740.276 24.5425C740.079 24.0625 739.628 23.7812 739.101 23.7812C738.575 23.7812 738.125 24.0625 737.927 24.5425C737.823 24.8335 737.795 24.9557 737.767 25.3971H740.436C740.408 24.965 740.398 24.8152 740.276 24.5425Z" fill="black"/>
<path d="M730.651 23.415H731.737V23.8376H730.735C730.2 23.8376 730.04 24.082 730.04 24.5986V27.9438H729.561V24.5891C729.561 23.8755 729.909 23.415 730.651 23.415Z" fill="black"/>
<g clip-path="url(#clip3)">
<path d="M605.278 28.5091V16.0899C605.278 12.521 607.723 10.1213 611.29 10.1213C614.357 10.1213 615.716 11.5481 615.716 14.8877V28.5091H617.455V14.6976C617.455 10.5131 615.446 8.47957 611.28 8.47957C608.532 8.47957 606.42 9.77275 605.135 12.2226L604.923 12.6242L604.816 12.1853C604.189 9.79534 602.282 8.47957 599.429 8.47957C598.552 8.47957 597.742 8.62106 597.007 8.88867C593.994 9.88757 593.102 12.1502 593.102 12.1502V9.21055H591.116V28.5091H593.102V16.2396C593.102 12.6399 595.495 10.1213 599.03 10.1213C601.908 10.1213 603.291 11.8019 603.291 15.1127V28.5091H605.278ZM563.909 10.0156C567.537 10.0156 569.907 12.7886 570.099 17.0926L557.534 17.091C557.76 12.8529 560.265 10.0156 563.909 10.0156ZM569.882 22.5693C569.364 25.2915 566.945 26.9796 563.874 26.9796C559.865 26.9796 557.228 23.7812 557.228 18.9831V18.8582H571.89V18.1163C571.89 11.9462 568.985 8.43502 563.854 8.43502C558.615 8.43502 555.525 12.2396 555.525 18.5759C555.525 24.8319 558.641 28.6132 563.858 28.6132C568.145 28.6132 571.235 26.2807 571.79 22.5693H569.882ZM549.726 17.3655C549.726 12.74 551.819 10.4469 555.796 10.4469H555.937V8.71361H555.834C553.818 8.71361 552.273 9.23439 551.13 10.3942C550.327 11.0873 549.771 12.0388 549.477 12.6317V12.1276V9.21055H547.739V28.5091H549.726V17.3655ZM471.016 25.1528C467.471 25.1528 465.488 22.7211 465.488 18.164C465.488 13.6099 467.471 11.1437 471.016 11.1437C474.525 11.1437 476.505 13.5726 476.505 18.164C476.505 22.7211 474.525 25.1528 471.016 25.1528ZM470.979 7.4973C464.84 7.4973 461.141 11.4446 461.141 18.164C461.141 24.8858 464.879 28.7964 471.016 28.7964C477.117 28.7964 480.857 24.8479 480.857 18.164C480.857 11.4835 477.117 7.4973 470.979 7.4973ZM576.415 20.3023C576.614 20.1194 576.842 19.9484 577.091 19.7891C577.393 19.6165 579.047 18.7525 581.759 18.5699C583.778 18.4281 585.373 18.2276 586.577 17.764L586.813 17.6749L586.841 19.6287L586.834 19.6328C586.834 19.6328 586.836 19.6529 586.841 19.6912L586.846 20.2041L586.856 20.6443C586.852 20.6584 586.852 20.6719 586.852 20.6835C586.851 20.7641 586.844 20.8378 586.841 20.9147C586.812 21.4057 586.722 22.0981 586.471 22.8344C585.879 24.441 584.482 26.164 581.286 26.7174C580.814 26.7858 580.318 26.8228 579.8 26.8228C577.022 26.8228 575.227 25.3144 575.227 22.9796C575.227 22.3585 575.366 21.796 575.64 21.2871C575.664 21.2432 575.686 21.1989 575.711 21.161C575.73 21.1296 575.752 21.0986 575.771 21.0659C575.904 20.8607 576.057 20.6684 576.221 20.4924C576.247 20.4673 576.272 20.4416 576.297 20.4159C576.335 20.3779 576.375 20.3406 576.415 20.3023V20.3023ZM573.249 23.0195C573.249 26.3716 575.636 28.4564 579.481 28.4564C582.213 28.4564 584.615 27.3684 586.55 25.2212L586.891 24.8799V25.6382C586.891 27.0634 587.388 28.286 588.629 28.5091V14.1097C588.629 10.3839 586.268 8.43973 581.729 8.43973C577.297 8.43973 574.396 10.9411 574.232 14.4065H576.1C576.313 11.6833 578.175 10.0711 581.793 10.0711C585.36 10.0711 586.817 11.3235 586.817 14.4501C586.817 16.147 586.262 16.4909 584.699 16.8325C583.551 17.0769 581.883 17.2344 581.308 17.2843C581.252 17.2868 581.195 17.2915 581.142 17.2975C581.118 17.2987 581.102 17.2987 581.102 17.2987V17.3012C579.362 17.4458 577.724 17.6526 576.267 18.3124C574.292 19.2234 573.249 20.8491 573.249 23.0195V23.0195ZM491.969 25.0753C488.729 25.0753 486.707 22.6063 486.707 18.2788C486.707 13.7238 488.729 11.219 491.969 11.219C495.437 11.219 497.306 13.5346 497.306 18.0127C497.306 22.6452 495.401 25.0753 491.969 25.0753ZM497.302 10.6113C495.811 8.52192 493.72 7.4973 491.012 7.4973C486.095 7.4973 482.418 11.5974 482.418 18.2411C482.418 24.6948 486.011 28.7964 491.04 28.7964C493.673 28.7964 495.561 27.769 497.302 25.5287V28.5091H501.278V1.0449H497.302V10.6113ZM453.309 16.1906L450.756 15.6218C448.58 15.1284 447.398 14.5219 447.398 13.0788C447.398 11.8628 448.543 11.0151 450.792 11.0151C453.423 11.0151 454.911 12.1784 455.023 14.1574H459.181C459.181 10.1982 456.052 7.60051 450.945 7.60051C445.989 7.60051 443.092 10.0554 443.092 13.7771C443.092 17.0421 445.151 18.4582 449.345 19.4829L452.357 20.227C454.338 20.7227 455.482 21.2093 455.482 22.6499C455.482 24.2076 454.033 25.3903 451.44 25.3903C448.468 25.3903 446.904 24.302 446.711 21.827H442.52C442.52 26.2807 445.569 28.8799 451.058 28.8799C456.628 28.8799 459.752 26.2954 459.752 22.1549C459.752 18.4736 457.58 17.1795 453.309 16.1906ZM516.139 20.6317C516.139 23.4797 513.755 25.3784 510.703 25.3784C508.606 25.3784 507.454 24.3142 507.454 22.4931C507.454 20.8607 508.364 19.8756 510.347 19.4942C512.328 19.1124 514.4 19.0399 516.139 18.1263V20.6317ZM512.364 7.4973C507.177 7.4973 504.21 10.0397 504.21 13.9513V14.4065H508.187V14.1395C508.187 12.1307 509.567 10.9909 512.198 10.9909C514.982 10.9909 516.302 11.8628 516.302 13.7988C516.302 15.6604 515.378 15.6971 511.835 16.1549C506.459 16.8344 503.291 18.1263 503.291 22.873C503.291 26.5163 505.654 28.7964 509.77 28.7964C512.399 28.7964 514.803 27.6165 516.444 25.4929C516.48 27.544 517.653 28.5282 520.246 28.5282C520.299 28.5282 520.362 28.5238 520.362 28.5238V13.4204C520.362 9.50953 517.7 7.4973 512.364 7.4973ZM545.252 26.6487C544.757 26.8046 543.892 26.9743 543.315 26.9743C541.88 26.9743 541.775 26.0739 541.775 24.7026V10.6932H545.252V9.21055H541.775V1.78781H539.788V24.7026C539.788 27.5089 540.46 28.4564 542.671 28.4564C543.45 28.4564 544.259 28.3284 545.252 28.0843V26.6487ZM531.677 17.8032C531.322 17.7163 530.982 17.6416 530.654 17.5629C527.248 16.7701 525.191 16.297 525.191 13.5622C525.191 11.4669 526.97 10.1285 529.728 10.1285C532.848 10.1285 534.746 11.6833 534.966 14.4065H536.942C536.614 10.6932 534.009 8.49683 529.765 8.49683C525.846 8.49683 523.212 10.6487 523.212 13.8829C523.212 17.0756 525.341 18.1332 530.107 19.2818L530.214 19.3204C533.625 20.131 535.505 20.6032 535.505 23.1114C535.505 25.4578 533.382 27.0211 530.105 27.0211C527.171 27.0211 524.918 25.0433 524.784 22.5693H522.807C523.001 26.2807 525.891 28.649 530.217 28.649C534.561 28.649 537.482 26.4206 537.482 23.171C537.482 20.2904 535.96 18.8491 531.677 17.8032Z" fill="black"/>
<path d="M620.938 10.6652C621.34 10.6652 621.737 10.6514 621.737 10.2012C621.737 9.8326 621.427 9.7457 621.104 9.7457H620.504V10.6652H620.938ZM620.504 12.1181H620.178V9.46837H621.2C621.8 9.46837 622.064 9.72688 622.064 10.2012C622.064 10.6706 621.757 10.8795 621.396 10.9419L622.189 12.1181H621.805L621.056 10.9419H620.504V12.1181ZM619.068 10.7929C619.068 11.891 619.899 12.76 621.012 12.76C622.127 12.76 622.957 11.891 622.957 10.7929C622.957 9.69676 622.127 8.82868 621.012 8.82868C619.899 8.82868 619.068 9.69676 619.068 10.7929ZM623.316 10.7929C623.316 12.0826 622.314 13.0859 621.012 13.0859C619.712 13.0859 618.708 12.0826 618.708 10.7929C618.708 9.50476 619.712 8.50021 621.012 8.50021C622.314 8.50021 623.316 9.50476 623.316 10.7929Z" fill="black"/>
</g>
<defs>
<clipPath id="clip0">
<rect width="113.328" height="28" fill="white" transform="translate(161.482 1)"/>
</clipPath>
<clipPath id="clip1">
<rect width="112.482" height="28" fill="white" transform="translate(0 1)"/>
</clipPath>
<clipPath id="clip2">
<rect width="69.5492" height="28" fill="white" transform="translate(323.811 1)"/>
</clipPath>
<clipPath id="clip3">
<rect width="181.011" height="28" fill="white" transform="translate(442.359 1)"/>
</clipPath>
</defs>
</svg>
