<svg width="568" height="108" viewBox="0 0 568 108" fill="none" xmlns="http://www.w3.org/2000/svg">
<g clip-path="url(#clip0)">
<path fill-rule="evenodd" clip-rule="evenodd" d="M256.207 103.325H256.778V104.692H258.726V103.325H259.297V106.76H258.726V105.161H256.778V106.76H256.207V103.325Z" fill="black"/>
<path fill-rule="evenodd" clip-rule="evenodd" d="M261.809 105.573C261.741 105.568 261.572 105.568 261.242 105.568C260.719 105.568 260.482 105.689 260.482 105.984C260.482 106.212 260.647 106.396 261.024 106.396C261.625 106.396 261.809 106.062 261.809 105.66V105.573ZM262.342 106.111C262.342 106.372 262.356 106.682 262.361 106.74H261.848C261.828 106.658 261.823 106.479 261.819 106.401C261.688 106.643 261.407 106.808 260.903 106.808C260.211 106.808 259.949 106.386 259.949 106.014C259.949 105.379 260.521 105.205 261.233 105.205H261.809V105.083C261.809 104.831 261.703 104.604 261.218 104.604C260.777 104.604 260.676 104.793 260.632 104.996H260.09C260.119 104.677 260.337 104.207 261.213 104.207C262.153 104.207 262.342 104.662 262.342 105.069V106.111Z" fill="black"/>
<path fill-rule="evenodd" clip-rule="evenodd" d="M263.118 104.919C263.118 104.711 263.118 104.478 263.113 104.294H263.641C263.651 104.376 263.656 104.565 263.661 104.721C263.767 104.498 264.014 104.226 264.533 104.226C265.119 104.226 265.487 104.59 265.487 105.254V106.76H264.944V105.35C264.944 104.973 264.799 104.672 264.368 104.672C263.893 104.672 263.661 105.026 263.661 105.568V106.76H263.118V104.919Z" fill="black"/>
<path fill-rule="evenodd" clip-rule="evenodd" d="M267.394 106.387C267.936 106.387 268.169 106.038 268.169 105.52C268.169 105.006 267.98 104.667 267.404 104.667C266.88 104.667 266.623 105.094 266.623 105.539C266.623 105.975 266.89 106.387 267.394 106.387ZM268.692 103.127V106.048C268.692 106.285 268.692 106.523 268.697 106.76H268.169C268.154 106.663 268.149 106.523 268.149 106.406C268.018 106.61 267.82 106.827 267.263 106.827C266.556 106.827 266.066 106.3 266.066 105.549C266.066 104.735 266.691 104.226 267.326 104.226C267.878 104.226 268.077 104.464 268.149 104.575V103.127H268.692Z" fill="black"/>
<path fill-rule="evenodd" clip-rule="evenodd" d="M269.734 104.294C270.145 105.684 270.238 106.033 270.296 106.3H270.3C270.364 106.033 270.465 105.709 270.93 104.294H271.444C271.909 105.709 272.015 106.067 272.059 106.275H272.064C272.122 106.033 272.257 105.534 272.64 104.294H273.173L272.34 106.76H271.773C271.492 105.893 271.25 105.2 271.168 104.905H271.163C271.1 105.147 270.867 105.859 270.552 106.76H269.966L269.172 104.294H269.734Z" fill="black"/>
<path fill-rule="evenodd" clip-rule="evenodd" d="M275.482 105.292C275.462 105.021 275.317 104.633 274.75 104.633C274.271 104.633 274.048 104.929 274.01 105.292H275.482ZM274 105.655C274.024 106.087 274.319 106.406 274.784 106.406C275.148 106.406 275.341 106.266 275.462 106.048H276.005C275.869 106.43 275.516 106.827 274.765 106.827C273.85 106.827 273.457 106.178 273.457 105.534C273.457 104.803 273.947 104.226 274.755 104.226C275.695 104.226 276.039 104.909 276.039 105.52V105.655H274Z" fill="black"/>
<path fill-rule="evenodd" clip-rule="evenodd" d="M276.622 104.967C276.622 104.745 276.622 104.517 276.617 104.294H277.145C277.155 104.372 277.164 104.633 277.164 104.837C277.319 104.469 277.663 104.222 278.148 104.231V104.74C277.586 104.73 277.164 105.045 277.164 105.762V106.76H276.622V104.967Z" fill="black"/>
<path fill-rule="evenodd" clip-rule="evenodd" d="M279.222 105.447C279.479 105.205 280.138 104.628 280.506 104.294H281.17L280.055 105.248L281.291 106.76H280.617L279.663 105.554L279.222 105.917V106.76H278.68V103.127H279.222V105.447Z" fill="black"/>
<path fill-rule="evenodd" clip-rule="evenodd" d="M281.539 107.394C281.796 106.813 281.892 106.343 281.936 105.912H282.493C282.44 106.372 282.246 107.007 282.004 107.394H281.539Z" fill="black"/>
<path fill-rule="evenodd" clip-rule="evenodd" d="M284.559 104.919C284.559 104.711 284.559 104.478 284.555 104.294H285.083C285.092 104.376 285.097 104.565 285.102 104.721C285.209 104.498 285.456 104.226 285.974 104.226C286.56 104.226 286.928 104.59 286.928 105.254V106.76H286.385V105.35C286.385 104.973 286.24 104.672 285.809 104.672C285.335 104.672 285.102 105.026 285.102 105.568V106.76H284.559V104.919Z" fill="black"/>
<path fill-rule="evenodd" clip-rule="evenodd" d="M289.532 105.292C289.513 105.021 289.368 104.633 288.801 104.633C288.322 104.633 288.099 104.929 288.06 105.292H289.532ZM288.05 105.655C288.074 106.087 288.37 106.406 288.835 106.406C289.198 106.406 289.392 106.266 289.513 106.048H290.056C289.92 106.43 289.566 106.827 288.816 106.827C287.9 106.827 287.508 106.178 287.508 105.534C287.508 104.803 287.997 104.226 288.806 104.226C289.746 104.226 290.09 104.909 290.09 105.52V105.655H288.05Z" fill="black"/>
<path fill-rule="evenodd" clip-rule="evenodd" d="M292.986 106.043C292.986 106.28 292.986 106.523 292.991 106.76H292.468C292.458 106.692 292.448 106.532 292.448 106.372C292.327 106.634 292.114 106.827 291.577 106.827C291.058 106.827 290.656 106.537 290.656 105.82V104.294H291.194V105.723C291.194 106.087 291.334 106.382 291.746 106.382C292.241 106.382 292.448 106.096 292.448 105.418V104.294H292.986V106.043Z" fill="black"/>
<path fill-rule="evenodd" clip-rule="evenodd" d="M296.298 106.358C296.787 106.358 297.073 106.062 297.073 105.51C297.073 104.977 296.802 104.672 296.322 104.672C295.79 104.672 295.533 105.094 295.533 105.539C295.533 106.004 295.838 106.358 296.298 106.358ZM297.596 106.45C297.596 107.365 297.267 107.898 296.245 107.898C295.247 107.898 295.048 107.327 295.005 107.045H295.552C295.625 107.273 295.79 107.477 296.274 107.477C296.942 107.477 297.063 107.045 297.063 106.484V106.358C296.913 106.624 296.666 106.799 296.163 106.799C295.46 106.799 294.98 106.251 294.98 105.559C294.98 104.774 295.547 104.226 296.22 104.226C296.773 104.226 296.991 104.473 297.063 104.648C297.063 104.537 297.068 104.362 297.078 104.294H297.601C297.596 104.537 297.596 104.774 297.596 105.011V106.45Z" fill="black"/>
<path fill-rule="evenodd" clip-rule="evenodd" d="M300.204 105.292C300.185 105.021 300.04 104.633 299.473 104.633C298.993 104.633 298.77 104.929 298.732 105.292H300.204ZM298.722 105.655C298.746 106.087 299.042 106.406 299.507 106.406C299.87 106.406 300.064 106.266 300.185 106.048H300.728C300.592 106.43 300.238 106.827 299.488 106.827C298.572 106.827 298.18 106.178 298.18 105.534C298.18 104.803 298.669 104.226 299.478 104.226C300.417 104.226 300.761 104.909 300.761 105.52V105.655H298.722Z" fill="black"/>
<path fill-rule="evenodd" clip-rule="evenodd" d="M302.527 106.387C303.069 106.387 303.302 106.038 303.302 105.52C303.302 105.006 303.113 104.667 302.536 104.667C302.013 104.667 301.756 105.094 301.756 105.539C301.756 105.975 302.023 106.387 302.527 106.387ZM303.824 103.127V106.048C303.824 106.285 303.824 106.523 303.83 106.76H303.302C303.287 106.663 303.282 106.523 303.282 106.406C303.151 106.61 302.953 106.827 302.396 106.827C301.689 106.827 301.199 106.3 301.199 105.549C301.199 104.735 301.824 104.226 302.459 104.226C303.011 104.226 303.21 104.464 303.282 104.575V103.127H303.824Z" fill="black"/>
<path fill-rule="evenodd" clip-rule="evenodd" d="M306.266 105.593C306.198 105.587 306.029 105.587 305.699 105.587C305.176 105.587 304.939 105.709 304.939 106.004C304.939 106.232 305.104 106.416 305.482 106.416C306.082 106.416 306.266 106.082 306.266 105.68V105.593ZM306.799 106.13C306.799 106.392 306.814 106.702 306.818 106.76H306.305C306.285 106.677 306.281 106.498 306.276 106.421C306.145 106.663 305.864 106.827 305.36 106.827C304.668 106.827 304.406 106.406 304.406 106.033C304.406 105.399 304.978 105.224 305.69 105.224H306.266V105.103C306.266 104.851 306.16 104.624 305.675 104.624C305.235 104.624 305.133 104.812 305.089 105.016H304.547C304.576 104.696 304.794 104.226 305.67 104.226C306.61 104.226 306.799 104.682 306.799 105.089V106.13Z" fill="black"/>
<path fill-rule="evenodd" clip-rule="evenodd" d="M309.931 105.975C309.814 106.426 309.427 106.827 308.7 106.827C307.804 106.827 307.383 106.237 307.383 105.534C307.383 104.842 307.862 104.226 308.705 104.226C309.572 104.226 309.873 104.783 309.921 105.098H309.383C309.306 104.89 309.132 104.653 308.7 104.653C308.211 104.653 307.935 105.021 307.935 105.525C307.935 106.009 308.197 106.401 308.7 106.401C309.073 106.401 309.272 106.237 309.393 105.975H309.931Z" fill="black"/>
<path fill-rule="evenodd" clip-rule="evenodd" d="M311.045 103.127V104.706C311.133 104.537 311.36 104.226 311.932 104.226C312.508 104.226 312.876 104.575 312.876 105.273V106.76H312.334V105.35C312.334 104.958 312.198 104.672 311.763 104.672C311.278 104.672 311.051 105.05 311.051 105.554V106.76H310.508V103.127H311.045Z" fill="black"/>
<path fill-rule="evenodd" clip-rule="evenodd" d="M313.281 104.294H313.761V103.519H314.303V104.294H314.928V104.711H314.303V105.985C314.303 106.246 314.366 106.367 314.628 106.367C314.696 106.367 314.792 106.363 314.86 106.348V106.735C314.744 106.774 314.604 106.784 314.453 106.784C313.92 106.784 313.761 106.546 313.761 106.062V104.711H313.281V104.294Z" fill="black"/>
<path fill-rule="evenodd" clip-rule="evenodd" d="M315.422 106.76H316.027V105.912H315.422V106.76Z" fill="black"/>
<path fill-rule="evenodd" clip-rule="evenodd" d="M252.66 95.4558H243.194V88.6258H252.861V84.8187H243.194V78.362H253.121L250.798 74.3687H238.23V99.5237H254.018V99.5234H250.2L252.66 95.4558Z" fill="black"/>
<path fill-rule="evenodd" clip-rule="evenodd" d="M263.638 86.7304L256.51 74.3684H250.8L250.8 74.3687L257.966 86.6849L250.203 99.5235H255.988L263.638 86.7304Z" fill="black"/>
<path fill-rule="evenodd" clip-rule="evenodd" d="M274.697 81.1316H270.4V83.9036H275.2V86.0691H267.75V74.3921H274.957V76.5576H270.4V78.9834H274.697V81.1316Z" fill="black"/>
<path fill-rule="evenodd" clip-rule="evenodd" d="M283.068 86.0691L282.011 83.9553C281.577 83.1412 281.3 82.5348 280.971 81.859H280.936C280.694 82.5348 280.399 83.1412 280.035 83.9553L279.065 86.0691H276.051L279.429 80.1613L276.172 74.3921H279.204L280.226 76.523C280.573 77.2334 280.833 77.8052 281.11 78.4636H281.144C281.421 77.7185 281.647 77.1987 281.941 76.523L282.929 74.3921H285.943L282.651 80.092L286.117 86.0691H283.068Z" fill="black"/>
<path fill-rule="evenodd" clip-rule="evenodd" d="M290.065 79.8494C290.29 79.9014 290.567 79.9187 290.949 79.9187C292.352 79.9187 293.218 79.2083 293.218 78.0131C293.218 76.9388 292.473 76.2977 291.157 76.2977C290.619 76.2977 290.256 76.3497 290.065 76.4017V79.8494ZM287.449 74.548C288.263 74.4094 289.407 74.3054 291.018 74.3054C292.646 74.3054 293.807 74.6173 294.587 75.2411C295.332 75.8299 295.834 76.8002 295.834 77.9438C295.834 79.087 295.453 80.0573 294.76 80.7157C293.859 81.5644 292.525 81.946 290.966 81.946C290.619 81.946 290.307 81.9283 290.065 81.8936V86.0691H287.449V74.548Z" fill="black"/>
<path fill-rule="evenodd" clip-rule="evenodd" d="M299.354 79.5722H300.394C301.71 79.5722 302.49 78.9141 302.49 77.8918C302.49 76.8175 301.762 76.2804 300.55 76.263C299.908 76.263 299.545 76.315 299.354 76.3497V79.5722ZM296.738 74.548C297.587 74.4094 298.852 74.3054 300.255 74.3054C301.988 74.3054 303.2 74.5653 304.032 75.2234C304.725 75.7779 305.106 76.5922 305.106 77.6665C305.106 79.1563 304.049 80.1786 303.044 80.5425V80.5945C303.859 80.9233 304.309 81.703 304.603 82.7773C304.968 84.0938 305.331 85.6186 305.557 86.0691H302.854C302.663 85.7399 302.386 84.7869 302.04 83.3491C301.728 81.8936 301.225 81.4951 300.151 81.4778H299.354V86.0691H296.738V74.548Z" fill="black"/>
<path fill-rule="evenodd" clip-rule="evenodd" d="M313.873 81.1316H309.576V83.9036H314.375V86.0691H306.926V74.3921H314.133V76.5576H309.576V78.9834H313.873V81.1316Z" fill="black"/>
<path fill-rule="evenodd" clip-rule="evenodd" d="M316.182 83.3491C316.892 83.7129 317.983 84.0765 319.11 84.0765C320.322 84.0765 320.963 83.574 320.963 82.8119C320.963 82.0842 320.409 81.6683 319.005 81.1662C317.065 80.4904 315.8 79.4162 315.8 77.7185C315.8 75.7262 317.464 74.2014 320.218 74.2014C321.535 74.2014 322.505 74.4786 323.198 74.7905L322.609 76.9214C322.141 76.6962 321.309 76.3673 320.166 76.3673C319.023 76.3673 318.468 76.8868 318.468 77.4932C318.468 78.2383 319.127 78.5672 320.634 79.1389C322.696 79.9013 323.666 80.9756 323.666 82.6213C323.666 84.5789 322.158 86.2423 318.953 86.2423C317.619 86.2423 316.303 85.8958 315.645 85.5319L316.182 83.3491Z" fill="black"/>
<path fill-rule="evenodd" clip-rule="evenodd" d="M324.927 83.3491C325.638 83.7129 326.729 84.0765 327.855 84.0765C329.068 84.0765 329.709 83.574 329.709 82.8119C329.709 82.0842 329.155 81.6683 327.751 81.1662C325.811 80.4904 324.546 79.4162 324.546 77.7185C324.546 75.7262 326.21 74.2014 328.964 74.2014C330.281 74.2014 331.251 74.4786 331.944 74.7905L331.355 76.9214C330.887 76.6962 330.056 76.3673 328.912 76.3673C327.769 76.3673 327.214 76.8868 327.214 77.4932C327.214 78.2383 327.873 78.5672 329.38 79.1389C331.442 79.9013 332.412 80.9756 332.412 82.6213C332.412 84.5789 330.905 86.2423 327.699 86.2423C326.366 86.2423 325.049 85.8958 324.391 85.5319L324.927 83.3491Z" fill="black"/>
<path fill-rule="evenodd" clip-rule="evenodd" d="M267.838 96.7979C268.548 97.1614 269.639 97.5253 270.766 97.5253C271.978 97.5253 272.619 97.0232 272.619 96.2608C272.619 95.533 272.065 95.1172 270.662 94.6147C268.721 93.939 267.457 92.865 267.457 91.167C267.457 89.1747 269.12 87.6503 271.874 87.6503C273.191 87.6503 274.161 87.9275 274.854 88.2391L274.265 90.3703C273.797 90.145 272.966 89.8158 271.822 89.8158C270.679 89.8158 270.125 90.3356 270.125 90.9417C270.125 91.6868 270.783 92.016 272.29 92.5878C274.352 93.3502 275.322 94.4241 275.322 96.0702C275.322 98.0278 273.815 99.6912 270.61 99.6912C269.276 99.6912 267.959 99.3446 267.301 98.9808L267.838 96.7979Z" fill="black"/>
<path fill-rule="evenodd" clip-rule="evenodd" d="M284.314 94.5801H280.018V97.3521H284.817V99.5177H277.367V87.8409H284.574V90.0065H280.018V92.4319H284.314V94.5801Z" fill="black"/>
<path fill-rule="evenodd" clip-rule="evenodd" d="M289.495 93.021H290.534C291.851 93.021 292.63 92.3626 292.63 91.3403C292.63 90.2664 291.903 89.7292 290.69 89.7119C290.049 89.7119 289.686 89.7639 289.495 89.7985V93.021ZM286.879 87.9968C287.728 87.8579 288.992 87.7543 290.395 87.7543C292.128 87.7543 293.341 88.0142 294.172 88.6723C294.865 89.2267 295.246 90.0411 295.246 91.115C295.246 92.6052 294.19 93.6271 293.185 93.9913V94.043C293.999 94.3722 294.45 95.1519 294.744 96.2262C295.108 97.5427 295.472 99.0671 295.697 99.5176H292.994C292.804 99.1887 292.527 98.2358 292.18 96.7979C291.868 95.3425 291.366 94.944 290.292 94.9266H289.495V99.5176H286.879V87.9968Z" fill="black"/>
<path fill-rule="evenodd" clip-rule="evenodd" d="M300.067 99.5177L296.324 87.8409H299.218L300.639 92.7785C301.037 94.1643 301.401 95.4985 301.678 96.9536H301.73C302.024 95.5504 302.388 94.1643 302.787 92.8304L304.277 87.8409H307.083L303.15 99.5177H300.067Z" fill="black"/>
<path fill-rule="evenodd" clip-rule="evenodd" d="M308.938 99.518H311.588V87.8409H308.938V99.518Z" fill="black"/>
<path fill-rule="evenodd" clip-rule="evenodd" d="M322.711 99.1887C322.226 99.4313 321.134 99.6912 319.713 99.6912C315.677 99.6912 313.598 97.1788 313.598 93.8523C313.598 89.8678 316.439 87.6503 319.973 87.6503C321.342 87.6503 322.381 87.9275 322.849 88.1697L322.312 90.2663C321.775 90.0411 321.03 89.8331 320.095 89.8331C317.998 89.8331 316.37 91.098 316.37 93.6967C316.37 96.0355 317.756 97.508 320.112 97.508C320.909 97.508 321.793 97.3347 322.312 97.1268L322.711 99.1887Z" fill="black"/>
<path fill-rule="evenodd" clip-rule="evenodd" d="M331.65 94.5801H327.353V97.3521H332.153V99.5177H324.703V87.8409H331.91V90.0065H327.353V92.4319H331.65V94.5801Z" fill="black"/>
</g>
<g clip-path="url(#clip1)">
<path d="M305.246 6.59556C305.246 5.72126 305.967 5 306.842 5C307.716 5 308.437 5.72126 308.437 6.59556C308.437 7.46986 307.716 8.16934 306.842 8.16934C305.967 8.16928 305.246 7.46986 305.246 6.59556ZM308.437 31.907V33.5683H305.246V31.907H308.437V31.907ZM325.705 31.907C324.044 32.9563 322.077 33.5683 320 33.5683C317.902 33.5683 315.956 32.9563 314.295 31.907H325.705ZM331.104 31.907V33.5028C331.039 39.8634 326.077 45 320 45C313.902 45 308.962 39.8634 308.896 33.5028H312.066C312.131 38.1148 315.672 41.8305 320 41.8305C324.328 41.8305 327.869 38.1146 327.956 33.5028V33.5683V31.907H331.104V31.907ZM348.35 31.907C346.689 32.9563 344.721 33.5683 342.645 33.5683C340.547 33.5683 338.601 32.9563 336.94 31.907H348.35ZM353.749 31.907V33.5683H350.558V31.907H353.749ZM369.596 31.907C367.65 33.0656 365.159 33.4591 363.06 33.4591C360.896 33.4591 358.907 32.8906 357.355 31.907H369.596Z" fill="black"/>
<path d="M308.437 23.2075V31.907H305.246V23.2075H308.437V23.2075ZM312.131 23.2075C312.7 27.295 316 30.3989 319.978 30.3989C323.956 30.3989 327.257 27.2732 327.825 23.2075H331.082V31.907H327.913V30.0711C327.257 30.7923 326.492 31.4045 325.683 31.907H314.273C311.366 30.0929 309.312 26.9016 308.94 23.2075H312.131V23.2075ZM334.776 23.2075C335.344 27.295 338.645 30.3989 342.623 30.3989C346.601 30.3989 349.902 27.2732 350.47 23.2075H353.727V31.907H350.536V30.0929C349.88 30.7923 349.137 31.4043 348.328 31.907H336.94C334.033 30.0929 332 26.9016 331.607 23.1858L334.776 23.2075V23.2075ZM372.35 23.2075C372.678 23.9725 372.875 24.8688 372.875 25.9618C372.875 28.9344 371.497 30.7924 369.596 31.9291H357.355C355.213 30.5738 353.88 28.4318 354.033 25.896L357.202 26.0929C357.093 27.9508 358.951 30.3114 363.06 30.3114C367.104 30.3114 369.683 28.9344 369.683 26.0053C369.683 24.7159 369.333 23.7978 367.672 23.2295L372.35 23.2075V23.2075Z" fill="black"/>
<path d="M305.249 23.2075V23.0107H300.199V22.3551H305.249V10.2896H308.418V22.3332H308.855V21.918C308.855 15.4918 313.839 10.2896 319.959 10.2896C323.063 10.2896 325.882 11.6228 327.893 13.7869V10.2896H331.063V22.3332H331.5V10.2896H334.669V22.3114H350.538V10.2896H353.729V22.3115H358.757C355.697 21.6775 354.407 19.6229 354.407 16.1912C354.407 13.5464 357.511 10.2458 363.041 10.2458C366.822 10.2458 372.134 12.4754 371.74 16.7377L368.571 16.4535C368.658 15.448 366.735 13.4153 363.041 13.4153C358.56 13.4153 357.576 15.929 357.576 16.1912C357.576 18.5737 358.057 19.3606 361.096 19.3606C366.057 19.3606 370.057 19.8195 371.828 22.3332H377.598V22.9889H372.243C372.265 23.0545 372.309 23.1201 372.33 23.1857H367.653C367.434 23.0982 367.194 23.0326 366.91 22.9889H353.729V23.1857H350.494C350.494 23.1201 350.516 23.0545 350.516 22.9889H334.757C334.757 23.0545 334.779 23.1201 334.779 23.1857H331.587C331.587 23.1201 331.565 23.0545 331.565 22.9889H331.085V23.1857H327.828C327.828 23.1201 327.85 23.0545 327.85 22.9889H312.112C312.112 23.0545 312.134 23.1201 312.134 23.1857H308.942C308.942 23.1201 308.921 23.0545 308.921 22.9889H308.44V23.1857H305.249V23.2075V23.2075ZM353.751 21.8086V22.049V21.8086ZM334.691 21.8086V22.0709V21.8086ZM312.046 21.918V22.3332H327.915V21.918C327.915 17.2403 324.352 13.4371 319.959 13.4371C315.587 13.4371 312.046 17.2403 312.046 21.918V21.918ZM370.888 9.52452H371.15L371.609 10.2677H371.937L371.434 9.48085C371.697 9.4589 371.893 9.32776 371.893 8.99991C371.893 8.65023 371.675 8.4972 371.259 8.4972H370.582V10.2677H370.866V9.52452H370.888V9.52452ZM370.888 9.28408V8.75959H371.238C371.412 8.75959 371.631 8.78143 371.631 8.99997C371.631 9.2623 371.434 9.28414 371.216 9.28414L370.888 9.28408V9.28408ZM372.746 9.37149C372.746 8.40973 372.025 7.77588 371.194 7.77588C370.341 7.77588 369.62 8.40973 369.62 9.37149C369.62 10.2896 370.276 10.967 371.194 10.967C372.025 10.9671 372.746 10.3332 372.746 9.37149ZM372.418 9.37149C372.418 10.1584 371.872 10.683 371.194 10.683C370.429 10.683 369.97 10.0928 369.97 9.37149C369.97 8.60655 370.516 8.05999 371.194 8.05999C371.872 8.03821 372.418 8.5846 372.418 9.37149V9.37149Z" fill="black"/>
<path d="M331.781 37.765H332.262V38.0709C332.393 37.8085 332.678 37.6993 332.962 37.6993C333.683 37.6993 334.011 38.2457 334.011 38.9015C334.011 39.5136 333.705 40.0819 333.049 40.0819C332.765 40.0819 332.459 39.9726 332.306 39.7322V40.8468H331.803V37.7649L331.781 37.765V37.765ZM332.896 38.0929C332.481 38.0929 332.262 38.4208 332.262 38.8797C332.262 39.3386 332.503 39.6665 332.896 39.6665C333.355 39.6665 333.508 39.2731 333.508 38.8797C333.53 38.4863 333.311 38.0929 332.896 38.0929ZM334.448 36.8907H334.951V40.0165H334.448V36.8907ZM337.377 39.5136C337.377 39.6446 337.399 39.6884 337.486 39.6884H337.617V40.0382C337.552 40.0602 337.377 40.1037 337.311 40.1037C337.115 40.1037 336.962 40.0382 336.918 39.8196C336.721 40.0165 336.393 40.1037 336.131 40.1037C335.716 40.1037 335.366 39.8851 335.366 39.4479C335.366 38.8797 335.803 38.7921 336.24 38.7487C336.59 38.683 336.918 38.7267 336.918 38.4208C336.918 38.1584 336.656 38.1147 336.459 38.1147C336.175 38.1147 335.978 38.224 335.956 38.4644H335.454C335.497 37.8962 335.978 37.7214 336.481 37.7214C336.918 37.7214 337.377 37.8962 337.377 38.3771V39.5136V39.5136ZM336.874 38.8797C336.721 38.989 336.481 38.9672 336.262 39.0107C336.044 39.0544 335.869 39.12 335.869 39.3823C335.869 39.6008 336.153 39.6664 336.328 39.6664C336.546 39.6664 336.896 39.557 336.896 39.2292V38.8794H336.874V38.8797ZM338.295 39.2951C338.317 39.5792 338.535 39.6884 338.798 39.6884C338.994 39.6884 339.322 39.6448 339.301 39.3824C339.279 39.12 338.929 39.0984 338.557 39.0109C338.186 38.9235 337.836 38.7922 337.836 38.3333C337.836 37.8305 338.361 37.6775 338.776 37.6775C339.235 37.6775 339.65 37.8743 339.716 38.377H339.191C339.148 38.1364 338.951 38.0709 338.732 38.0709C338.601 38.0709 338.317 38.1146 338.317 38.3114C338.317 38.5518 338.688 38.5955 339.06 38.6612C339.431 38.7487 339.781 38.8797 339.781 39.3169C339.781 39.8415 339.235 40.0602 338.776 40.0602C338.208 40.0602 337.792 39.7978 337.77 39.2732H338.295L338.295 39.2951V39.2951ZM339.956 37.765H340.328V37.0873H340.831V37.765H341.289V38.1364H340.831V39.3386C340.831 39.5354 340.852 39.6446 341.071 39.6446C341.137 39.6446 341.202 39.6446 341.289 39.6229V40.016C341.18 40.016 341.071 40.0381 340.961 40.0381C340.437 40.0381 340.35 39.8414 340.328 39.4696V38.1364H339.956V37.765V37.765ZM341.639 36.8907H342.142V37.3714H341.639V36.8907ZM341.639 37.765H342.142V40.0165H341.639V37.765ZM344.197 38.5081C344.153 38.2457 343.956 38.0929 343.672 38.0929C343.41 38.0929 343.06 38.2239 343.06 38.9015C343.06 39.2731 343.235 39.6665 343.651 39.6665C343.935 39.6665 344.131 39.4698 344.197 39.142H344.7C344.612 39.7322 344.24 40.0383 343.672 40.0383C342.973 40.0383 342.579 39.5353 342.579 38.8797C342.579 38.2022 342.951 37.6775 343.694 37.6775C344.219 37.6775 344.656 37.9399 344.7 38.4863H344.197V38.5081H344.197V38.5081ZM345.464 39.2951C345.486 39.5792 345.705 39.6884 345.967 39.6884C346.164 39.6884 346.492 39.6448 346.47 39.3824C346.448 39.12 346.098 39.0984 345.727 39.0109C345.355 38.9235 345.005 38.7922 345.005 38.3333C345.005 37.8305 345.53 37.6775 345.945 37.6775C346.404 37.6775 346.82 37.8743 346.885 38.377H346.361C346.317 38.1364 346.12 38.0709 345.902 38.0709C345.749 38.0709 345.486 38.1146 345.486 38.3114C345.486 38.5518 345.858 38.5955 346.208 38.6612C346.579 38.7487 346.951 38.8797 346.951 39.3169C346.951 39.8415 346.404 40.0602 345.945 40.0602C345.377 40.0602 344.962 39.7978 344.94 39.2732H345.465V39.2952H345.464V39.2951ZM348.35 37.765H348.721V37.5682C348.721 37 349.027 36.8906 349.355 36.8906C349.508 36.8906 349.617 36.8906 349.705 36.9125V37.3058C349.639 37.284 349.574 37.284 349.464 37.284C349.333 37.284 349.224 37.3277 349.224 37.5244V37.7649H349.639V38.1363H349.224V40.0162H348.721V38.1363H348.35V37.765V37.765ZM349.836 38.8797C349.836 38.2022 350.251 37.6993 350.973 37.6993C351.694 37.6993 352.109 38.2023 352.109 38.8797C352.109 39.5792 351.694 40.0601 350.973 40.0601C350.251 40.0819 349.836 39.5792 349.836 38.8797ZM351.628 38.8797C351.628 38.4863 351.432 38.0929 350.994 38.0929C350.557 38.0929 350.361 38.5081 350.361 38.8797C350.361 39.2731 350.557 39.6884 350.994 39.6884C351.432 39.6884 351.628 39.2731 351.628 38.8797ZM352.524 37.765H352.983V38.2023C353.049 37.9617 353.333 37.6993 353.639 37.6993C353.749 37.6993 353.792 37.6993 353.836 37.7214V38.2023C353.77 38.2023 353.683 38.1802 353.617 38.1802C353.289 38.1802 353.006 38.4643 353.006 38.9452V40.0161H352.503V37.765H352.524V37.765ZM355.3 36.8907H355.803V40.0165H355.3V36.8907V36.8907ZM356.219 38.8797C356.219 38.2022 356.634 37.6993 357.355 37.6993C358.077 37.6993 358.492 38.2023 358.492 38.8797C358.492 39.5792 358.077 40.0601 357.355 40.0601C356.634 40.0819 356.219 39.5792 356.219 38.8797V38.8797ZM358.011 38.8797C358.011 38.4863 357.814 38.0929 357.377 38.0929C356.94 38.0929 356.743 38.5081 356.743 38.8797C356.743 39.2731 356.94 39.6884 357.377 39.6884C357.792 39.6884 358.011 39.2731 358.011 38.8797ZM358.907 37.765H359.388V38.0929C359.541 37.8523 359.781 37.6993 360.087 37.6993C360.568 37.6993 360.874 37.9617 360.874 38.4643V40.0165H360.372V38.5956C360.372 38.2457 360.219 38.0929 359.934 38.0929C359.606 38.0929 359.388 38.355 359.388 38.683V40.0165H358.885V37.765H358.907V37.765ZM363.497 39.885C363.497 40.5627 363.104 40.8906 362.382 40.8906C361.923 40.8906 361.421 40.7158 361.377 40.1912H361.88C361.945 40.4754 362.164 40.5191 362.426 40.5191C362.82 40.5191 362.995 40.3222 362.995 39.9508V39.6009C362.863 39.8414 362.601 39.9943 362.317 39.9943C361.596 39.9943 361.312 39.4479 361.312 38.8142C361.312 38.2022 361.683 37.6775 362.339 37.6775C362.623 37.6775 362.885 37.7868 363.016 38.049V37.7432H363.519V39.8849L363.497 39.885ZM362.995 38.8359C362.995 38.4426 362.82 38.0929 362.382 38.0929C361.945 38.0929 361.792 38.5081 361.792 38.8796C361.792 39.2512 361.967 39.623 362.382 39.623C362.82 39.623 362.995 39.2075 362.995 38.8359V38.8359ZM364.372 39.0108C364.372 39.3606 364.568 39.6885 364.983 39.6885C365.268 39.6885 365.442 39.5573 365.53 39.317H366.011C365.902 39.8199 365.486 40.0819 364.983 40.0819C364.284 40.0819 363.869 39.5792 363.869 38.9015C363.869 38.2678 364.284 37.7214 364.961 37.7214C365.683 37.7214 366.12 38.3551 366.033 39.0329H364.372V39.0108ZM365.552 38.6829C365.53 38.3771 365.311 38.0929 364.984 38.0929C364.634 38.0929 364.415 38.355 364.393 38.6829H365.552ZM366.426 37.765H366.885V38.2023C366.951 37.9617 367.235 37.6993 367.541 37.6993C367.65 37.6993 367.694 37.6993 367.738 37.7214V38.2023C367.672 38.2023 367.585 38.1802 367.519 38.1802C367.169 38.1802 366.907 38.4643 366.907 38.9452V40.0161H366.404V37.765H366.426ZM369.18 36.8907H369.683V40.0165H369.18V36.8907ZM370.229 36.8907H370.732V37.3714H370.229V36.8907ZM370.229 37.765H370.732V40.0165H370.229V37.765ZM371.038 37.765H371.41V37.5682C371.41 37 371.716 36.8906 372.022 36.8906C372.175 36.8906 372.284 36.8906 372.371 36.9125V37.3058C372.306 37.284 372.24 37.284 372.153 37.284C372.022 37.284 371.913 37.3277 371.913 37.5244V37.7649H372.328V38.1363H371.913V40.0162H371.41V38.1363H371.038V37.765V37.765ZM373.027 39.0108C373.027 39.3606 373.224 39.6885 373.639 39.6885C373.923 39.6885 374.098 39.5573 374.186 39.317H374.667C374.557 39.8199 374.142 40.0819 373.639 40.0819C372.94 40.0819 372.546 39.5792 372.546 38.9015C372.546 38.2678 372.962 37.7214 373.639 37.7214C374.36 37.7214 374.776 38.3551 374.71 39.0329H373.027V39.0108ZM374.186 38.6829C374.164 38.3771 373.945 38.0929 373.617 38.0929C373.268 38.0929 373.049 38.355 373.027 38.6829H374.186Z" fill="black"/>
</g>
<path fill-rule="evenodd" clip-rule="evenodd" d="M51.2812 0H0.0112088V18.24H51.2812V0ZM51.2812 31.76H0.0112088V50H51.2812V31.76ZM4.3 22.59H3.77V23.95H4.3C4.96 23.95 5.3 23.71 5.3 23.27C5.3 22.84 4.96 22.59 4.3 22.59ZM5.33 30.01H0.00999985H0V20.29H5.34C7.68 20.29 8.98 21.33 8.98 22.94C8.98 24 8.34 24.73 7.25 24.95C8.77 25.22 9.5 25.98 9.5 27.26C9.5 29.06 8.09 30.01 5.33 30.01ZM4.44 26.05H3.77V27.61H4.44C5.27 27.61 5.69 27.32 5.69 26.83C5.69 26.34 5.27 26.05 4.44 26.05ZM9.95777 20.28H13.9678V25.59C13.9678 26.61 14.1378 27.21 15.0778 27.21C15.9978 27.21 16.1978 26.61 16.1978 25.59V20.28H20.2078V25.56C20.2078 26.73 20.0878 27.66 19.5478 28.39C18.7078 29.56 17.0778 30.27 15.0678 30.27C13.0578 30.27 11.4278 29.55 10.5878 28.39C10.0578 27.65 9.94777 26.73 9.94777 25.56V20.28H9.95777ZM24.9688 20.28H21.0388V30.01H24.9088L24.9188 24.96L28.2188 30.01H32.1888V20.28H28.3188L28.3088 25.37L24.9688 20.28ZM37.0015 23.18H33.0915V20.28H43.3498H43.3815H47.3699V26.85H51.2799V30.01H43.3498V20.3257L38.7115 27.02H42.8315V30.01H32.1915L37.0015 23.18Z" fill="black"/>
<path d="M150.053 16.979C148.091 16.979 146.07 17.1716 143.199 17.1716V37.2193C143.199 37.2193 146.344 37.4147 148.696 35.6499V22.0343H150.801C154.478 22.0343 158.292 23.6837 158.292 30.7418C158.292 37.0857 155.393 39.523 149.668 39.523H143.199V44.482C146.07 44.482 148.091 44.5393 150.053 44.5393C160.708 44.5393 164.049 38.5216 164.049 30.7355C164.049 22.9485 160.708 16.979 150.053 16.979V16.979ZM205.51 39.493C205.51 39.493 202.473 35.7663 200.931 33.0037C204.825 31.199 205.802 28.2565 205.802 25.5684C205.802 17.1435 197.884 16.9772 193.886 16.979C191.458 16.9797 188.783 17.188 186.401 17.1717V22.2224H194.769C198.145 22.2224 199.924 23.5401 199.924 26.1009C199.924 28.889 198.167 30.1085 195.289 30.1085H192.181V24.5306C192.181 24.5306 188.351 24.3871 186.401 26.9343V44.542H192.181V34.2532C195.657 33.5862 196.688 36.9249 198.193 39.3177C200.276 42.6255 201.534 45 205.723 45C206.484 45 207.341 44.9182 208.317 44.7501L208.399 40.4072C207.37 40.5753 206.527 40.6908 205.51 39.493V39.493ZM166.179 44.542H183.904V39.4776H171.958V32.5712H182.285V27.9657H171.958V22.2088H183.904V17.1717H166.179V44.542V44.542ZM167.268 14.1801C167.268 8.09517 168.76 10.3398 175.042 10.3398C181.323 10.3398 182.816 8.09517 182.816 14.1801V14.8135H187.052V13.1996C187.052 7.4645 184.59 5 175.042 5C165.493 5 163.032 7.4645 163.032 13.1996V14.8135H167.268V14.1801V14.1801Z" fill="black"/>
<g clip-path="url(#clip2)">
<path d="M513.681 29.6471C513.681 30.4652 513.944 31.1033 514.404 31.5124C514.897 31.9377 515.489 32.1668 516.146 32.1668C516.836 32.1668 517.411 31.9378 517.888 31.496C518.381 31.0542 518.611 30.4161 518.611 29.6471V15.7072C518.611 14.9055 518.381 14.3001 517.855 13.8583C517.362 13.3838 516.771 13.1711 516.146 13.1711C515.489 13.1711 514.897 13.3838 514.404 13.8583C513.928 14.3001 513.681 14.9055 513.681 15.7072V29.6471ZM516.179 8.22998C517.132 8.22998 518.036 8.3936 518.857 8.75355C519.679 9.09714 520.435 9.62071 521.141 10.2915C521.815 10.946 522.341 11.6495 522.686 12.4185C523.064 13.3838 523.228 14.4801 523.228 15.7072V29.6471C523.228 31.7741 522.604 33.5248 521.339 34.9319C520.846 35.5046 520.254 35.9136 519.613 36.2408C518.611 36.7317 517.428 36.9444 516.064 36.8789C515.078 36.7807 514.306 36.339 513.698 35.4718V42.7854H509.113V15.3145C509.113 13.3675 509.82 11.715 511.249 10.3079C511.907 9.65343 512.613 9.16258 513.386 8.80263C514.256 8.40996 515.193 8.22998 516.179 8.22998Z" fill="black"/>
<path d="M506.596 15.8042H502.012V36.4033H506.596V15.8042Z" fill="black"/>
<path d="M497.513 10.4722C498.942 11.8466 499.649 13.4827 499.649 15.3806V36.4051H495.048V15.7079C495.048 15.0043 494.818 14.399 494.325 13.8917C493.832 13.4009 493.24 13.1391 492.567 13.1391C491.876 13.1391 491.318 13.4009 490.825 13.859C490.332 14.3499 490.069 14.9552 490.069 15.7079V36.4051H485.484V15.4952C485.484 13.5482 486.175 11.8956 487.621 10.4886C489.034 9.08147 490.693 8.37793 492.55 8.37793C494.44 8.39429 496.099 9.08147 497.513 10.4722Z" fill="black"/>
<path d="M567.807 16.4266C567.807 17.5228 566.887 18.4391 565.786 18.4391H559.443C558.342 18.4391 557.422 17.5228 557.422 16.4266V10.1438C557.422 9.03123 558.342 8.13135 559.443 8.13135H565.786C566.887 8.13135 567.807 9.01487 567.807 10.1438V16.4266Z" fill="black"/>
<path d="M505.791 8.31201C506.317 8.31201 506.728 8.70469 506.728 9.22825V11.8461C506.728 12.3533 506.3 12.7787 505.791 12.7787H502.932C502.406 12.7787 502.012 12.3533 502.012 11.8461V9.22825C502.012 8.70469 502.406 8.31201 502.932 8.31201H505.791Z" fill="black"/>
<path d="M553.627 20.3052C552.246 19.0454 550.554 18.3418 548.582 18.2437C547.843 18.1455 547.251 17.8674 546.807 17.4092C546.364 16.9184 546.134 16.3294 546.134 15.6586C546.134 15.0041 546.347 14.3987 546.791 13.8752C547.202 13.3352 547.826 13.0734 548.598 13.0734C549.979 13.0734 550.8 13.7279 551.063 15.0368H555.664C555.664 13.0898 554.941 11.4864 553.512 10.2265C552.082 8.96671 550.439 8.32861 548.598 8.32861C546.66 8.32861 545.016 9.03216 543.62 10.4556C542.256 11.8627 541.582 13.6134 541.582 15.6422C541.582 17.7037 542.256 19.4381 543.603 20.8124C544.967 22.2195 546.61 22.9394 548.598 22.9885C549.42 22.9885 550.028 23.1685 550.488 23.5284C550.915 23.9047 551.129 24.4774 551.129 25.2791V29.3367C551.129 30.0403 550.932 30.6457 550.537 31.1856C550.143 31.6928 549.502 31.9546 548.615 31.9546C547.448 31.9546 546.692 31.4474 546.314 30.3839L546.199 29.7785V25.7372H541.598V29.5494L541.648 30.3021V30.3839C541.911 32.02 542.683 33.4762 543.932 34.6869C545.296 36.0122 546.873 36.683 548.615 36.683C550.735 36.683 552.46 36.0286 553.758 34.6869C555.073 33.378 555.73 31.7092 555.73 29.6967V25.2137C555.697 23.2012 554.99 21.565 553.627 20.3052Z" fill="black"/>
<path d="M481.292 20.3052C479.912 19.0454 478.22 18.3418 476.248 18.2437C475.508 18.1455 474.917 17.8674 474.457 17.4092C474.013 16.9184 473.783 16.3294 473.783 15.6586C473.783 15.0041 473.997 14.3987 474.44 13.8752C474.867 13.3352 475.475 13.0734 476.248 13.0734C477.628 13.0734 478.45 13.7279 478.712 15.0368H483.313C483.313 13.0898 482.59 11.4864 481.144 10.2265C479.715 8.96671 478.072 8.32861 476.231 8.32861C474.292 8.32861 472.649 9.03216 471.252 10.4556C469.889 11.8627 469.215 13.6134 469.215 15.6422C469.215 17.7037 469.905 19.4381 471.236 20.8124C472.6 22.2195 474.243 22.9394 476.231 22.9885C477.053 22.9885 477.661 23.1685 478.105 23.5284C478.532 23.9047 478.745 24.4774 478.745 25.2791V29.3367C478.745 30.0403 478.565 30.6457 478.154 31.1856C477.759 31.6928 477.119 31.9546 476.231 31.9546C475.065 31.9546 474.309 31.4474 473.931 30.3839L473.816 29.7785V25.7372H469.215V29.5494L469.264 30.3021V30.3839C469.527 32.02 470.299 33.4762 471.532 34.6869C472.896 36.0122 474.473 36.683 476.231 36.683C478.351 36.683 480.076 36.0286 481.374 34.6869C482.689 33.378 483.346 31.7092 483.346 29.6967V25.2137C483.346 23.2012 482.64 21.565 481.292 20.3052Z" fill="black"/>
<path d="M529.981 15.6092C529.981 14.873 530.211 14.2512 530.704 13.7604C531.197 13.2859 531.805 13.0405 532.512 13.0405C533.169 13.0405 533.777 13.2859 534.27 13.7604C534.796 14.2512 535.026 14.8566 535.026 15.6092V18.2598H529.981V15.6092ZM539.578 22.5301V15.282C539.578 13.3841 538.871 11.7316 537.425 10.3736C535.995 8.9992 534.319 8.29565 532.446 8.29565C530.409 8.29565 528.716 8.96647 527.402 10.3081C526.087 11.6661 525.43 13.3513 525.43 15.4129V29.5983C525.43 31.6271 526.087 33.3451 527.418 34.6703C528.765 36.0283 530.441 36.6828 532.463 36.6828C534.401 36.6828 536.061 36.0447 537.359 34.8176C538.707 33.5741 539.43 31.9707 539.545 30.0073V25.8679H534.894V29.8437L534.878 30.0728C534.582 31.3162 533.744 31.938 532.43 31.938C531.756 31.938 531.181 31.7089 530.688 31.2181C530.195 30.7272 529.965 30.1219 529.965 29.3692V22.5465H539.578V22.5301Z" fill="black"/>
</g>
<defs>
<clipPath id="clip0">
<rect width="94.4808" height="34" fill="white" transform="translate(238 74)"/>
</clipPath>
<clipPath id="clip1">
<rect width="77.3994" height="40" fill="white" transform="translate(300.199 5)"/>
</clipPath>
<clipPath id="clip2">
<rect width="98.7559" height="34.8499" fill="white" transform="translate(469.199 8)"/>
</clipPath>
</defs>
</svg>
