<?xml version="1.0" encoding="UTF-8" standalone="no"?>
<!-- Created with Inkscape (http://www.inkscape.org/) -->
<svg
   xmlns:svg="http://www.w3.org/2000/svg"
   xmlns="http://www.w3.org/2000/svg"
   version="1.0"
   width="779.52753"
   height="356.10236"
   id="svg15211">
  <defs
     id="defs15213">
    <clipPath
       id="clp12">
<path
   d="M 0.06,793.02 L 609.06,793.02 L 609.06,0.06 L 0.06,0.06 L 0.06,793.02 z "
   id="path11837" />

</clipPath>
  </defs>
  <g
     transform="translate(-343.049,-868.95019)"
     id="layer1">
    <g
       transform="translate(17.743913,17.628973)"
       id="g17673">
      <path
         d="M 390.82885,1185.17 L 343.049,1185.17 L 343.049,1011.0749 L 390.82885,1011.0749 C 390.93844,1010.8558 390.99323,1010.7516 391.04803,1010.7626 C 391.04803,1010.7681 390.99323,1010.8777 390.82885,1011.0749 C 421.95151,1010.8064 449.18383,1026.7897 464.74516,1051.1892 L 464.74516,1011.0749 L 551.04478,1011.0749 L 551.04478,1038.8114 L 492.47063,1038.8114 L 492.47063,1078.8653 L 551.04478,1078.8653 L 551.04478,1105.0566 L 492.47063,1105.0566 L 492.47063,1158.9788 L 564.90751,1158.9788 L 564.90751,1185.17 L 464.74516,1185.17 L 464.74516,1145.6914 C 449.18383,1169.7457 421.95151,1185.6522 390.82885,1185.17 z M 369.24025,1158.9788 L 369.24025,1038.8114 L 390.82885,1038.8114 C 424.36242,1038.362 451.26598,1065.419 450.88243,1098.8923 C 451.26598,1132.1574 424.36242,1159.2144 390.82885,1158.9788 L 369.24025,1158.9788"
         style="fill:#0163ae;fill-rule:evenodd;stroke:none"
         id="path17514" />
      <path
         d="M 766.71163,889.36233 C 774.05395,907.83319 741.67105,922.0192 726.65765,915.55906 C 722.00021,913.96457 718.60302,910.00301 718.98657,906.31541 C 691.20632,904.33189 646.71407,913.99197 604.96149,934.04636 C 583.2633,944.88449 566.98966,933.96965 597.23562,909.3948 C 617.50918,892.80884 660.68639,876.44753 692.79533,870.88052 C 736.02732,863.8286 762.16378,877.49408 766.71163,889.36233"
         style="fill:#00a032;fill-rule:nonzero;stroke:none"
         id="path17516" />
      <path
         d="M 840.68273,1126.6287 C 840.62794,1130.0753 840.79232,1133.4505 841.28546,1136.7491 C 826.82,1167.0992 795.53297,1188.1837 759.04056,1188.2494 C 722.82211,1188.1837 691.3707,1166.2334 677.34358,1134.8806 L 677.34358,1059.1507 C 691.3707,1027.3486 722.82211,1005.3107 759.04056,1004.9162 C 795.03983,1005.2942 825.94331,1025.8911 840.68273,1055.9781 L 840.68273,1126.6287 z M 695.86376,1095.8129 C 696.02814,1060.5534 724.41112,1031.606 759.04056,1031.1074 C 794.3823,1031.606 822.76529,1060.5534 822.16256,1095.8129 C 822.76529,1131.9547 794.3823,1160.8911 759.04056,1160.524 C 724.41112,1160.8911 696.02814,1131.9547 695.86376,1095.8129"
         style="fill:#ed9700;fill-rule:evenodd;stroke:none"
         id="path17536" />
      <path
         d="M 648.41267,1158.2665 C 649.01539,1152.7323 649.07019,1147.2311 649.07019,1142.0312 L 649.07019,1038.2525 C 649.07019,1027.0198 643.81002,1012.1872 634.22117,1003.3765 C 623.1529,992.96023 606.11215,995.73278 601.89306,991.04246 C 597.29042,986.0179 609.67373,981.73306 609.56414,978.7249 C 609.34497,971.64559 552.74338,990.45617 544.85312,994.12733 C 522.93576,1004.3737 507.53881,988.48909 530.99039,971.01547 C 559.1542,950.08439 622.27621,934.42443 638.87861,930.96149 C 671.64507,924.09587 730.05484,912.33721 782.10858,930.96149 C 801.50545,937.88738 814.21752,949.39947 811.42305,964.86217 C 809.56008,974.94416 799.97123,981.61251 792.90288,983.34399 C 775.64296,987.59048 763.09527,981.27827 754.38312,971.02095 C 726.93162,969.2566 711.64426,976.57152 700.4664,984.88916 C 682.00102,998.67518 677.34358,1021.6994 677.34358,1052.6741 L 677.34358,1142.0312 C 677.34358,1156.0145 677.94631,1172.173 688.13789,1185.17 L 674.27515,1185.17 L 648.41267,1158.2665"
         style="fill:#00a032;fill-rule:nonzero;stroke:none"
         id="path17538" />
      <path
         d="M 840.68273,1126.6287 L 840.68273,1011.0749 L 866.87398,1011.0749 L 866.87398,1126.6287 C 866.7096,1146.5242 882.32572,1162.2171 902.32532,1162.0636 C 920.84549,1162.2171 936.46161,1146.5242 936.18764,1126.6287 L 936.18764,1011.0749 L 963.91311,1011.0749 L 963.91311,1126.6287 C 963.74873,1126.3548 963.63914,1126.2507 963.63914,1126.2562 C 963.63914,1126.2616 963.74873,1126.4096 963.91311,1126.6287 C 963.52955,1161.1924 935.91368,1189.4165 902.32532,1189.7946 C 867.64109,1189.4165 839.97042,1161.1924 840.68273,1126.6287"
         style="fill:#0163ae;fill-rule:evenodd;stroke:none"
         id="path17540" />
      <path
         d="M 674.27515,1185.17 L 635.75539,1185.17 L 558.71586,1105.0566 L 558.71586,1078.8653 L 586.49611,1078.8653 C 596.96166,1078.4215 605.89298,1069.4518 606.49571,1058.8383 C 605.89298,1047.3262 596.96166,1038.362 586.49611,1038.8114 L 558.71586,1038.8114 L 558.71586,1011.0749 L 586.49611,1011.0749 L 584.90711,1011.0749 C 611.15315,1010.653 632.24861,1031.8745 632.68696,1057.2986 C 632.24861,1080.4434 616.85166,1099.2046 595.70141,1103.5169 L 674.27515,1185.17"
         style="fill:#0163ae;fill-rule:evenodd;stroke:none"
         id="path17542" />
      <path
         d="M 1051.6374,1185.0604 L 973.17319,1105.0566 L 973.17319,1078.8653 L 999.36444,1078.8653 C 1010.2135,1078.4215 1019.1449,1069.4518 1019.4188,1058.8383 C 1019.6928,1047.3262 1010.2135,1038.362 999.36444,1038.8114 L 973.17319,1038.8114 L 973.17319,1011.0749 L 999.36444,1011.0749 L 997.83023,1011.0749 C 1024.405,1010.653 1045.5553,1031.88 1045.6101,1057.3041 C 1045.6101,1080.4489 1030.1035,1099.2046 1008.6245,1103.5169 L 1087.0887,1185.0604 L 1051.6374,1185.0604"
         style="fill:#0163ae;fill-rule:evenodd;stroke:none"
         id="path17544" />
    </g>
  </g>
</svg>
