<?xml version="1.0" encoding="utf-8"?>
<!-- Generator: Adobe Illustrator 23.0.1, SVG Export Plug-In . SVG Version: 6.00 Build 0)  -->
<svg version="1.1"
	 id="svg1872" inkscape:version="0.44" sodipodi:docbase="C:\Dokumente und Einstellungen\Administrator\Desktop\bahn" sodipodi:docname="HLB Logo.svg" sodipodi:version="0.32" xmlns:cc="http://web.resource.org/cc/" xmlns:dc="http://purl.org/dc/elements/1.1/" xmlns:inkscape="http://www.inkscape.org/namespaces/inkscape" xmlns:rdf="http://www.w3.org/1999/02/22-rdf-syntax-ns#" xmlns:sodipodi="http://sodipodi.sourceforge.net/DTD/sodipodi-0.dtd" xmlns:svg="http://www.w3.org/2000/svg"
	 xmlns="http://www.w3.org/2000/svg" xmlns:xlink="http://www.w3.org/1999/xlink" x="0px" y="0px" viewBox="0 0 1.4 1.4"
	 style="enable-background:new 0 0 1.4 1.4;" xml:space="preserve">
<style type="text/css">
	.st0{fill-rule:evenodd;clip-rule:evenodd;fill:#D60027;}
	.st1{stroke:#000000;stroke-miterlimit:10;}
</style>
<sodipodi:namedview  bordercolor="#666666" borderopacity="1.0" id="namedview1876" inkscape:current-layer="layer1" inkscape:cx="279.02149" inkscape:cy="-10.800505" inkscape:document-units="mm" inkscape:guide-bbox="true" inkscape:pageopacity="0.0" inkscape:pageshadow="2" inkscape:window-height="952" inkscape:window-width="1280" inkscape:window-x="-4" inkscape:window-y="-4" inkscape:zoom="0.43415836" pagecolor="#ffffff" showguides="true">
	</sodipodi:namedview>
<g id="layer1" inkscape:groupmode="layer" inkscape:label="Layer 1">
	<g id="g2848" transform="matrix(1.153153,0,0,1.153153,-93.41814,-110.6792)">
		<path id="path2841" sodipodi:nodetypes="cccccccc" class="st0" d="M-258.6,552h148.2l13.9-73.3h35.1l-43.6-32.5l-83.1,32.5h45.9
			L-258.6,552z"/>
		<path id="text1946" sodipodi:nodetypes="cccccccccccccccccccccssscccccssscccccscsccccccscc" class="st1" d="M-245.2,478.7h17.8
			l-5.6,28.8h28.6l5.5-28.8h20l-13.5,73.3h-20l5.3-28.5h-28.5l-5.3,28.5h-17.8L-245.2,478.7z M-161.3,478.7h19.6l-10.3,59h25.3
			l-2.5,14.3h-45.5L-161.3,478.7z M-83.1,508c3.2,0,5.7-1.7,7.4-3.4c1.8-1.7,2.2-3.2,2.2-6.1c0-1.9-0.7-3.4-1.9-4.4
			c-1.2-1-3.1-1.5-5.4-1.5h-6.8l-2.4,15.5H-83.1z M-85.2,539.2c4.1,0,7.2-1,9.4-3.1c2.2-2.1,3.3-5,3.3-8.9c0-2.4-1.2-2.9-2.7-4.1
			c-1.5-1.2-3.8-1.8-7-1.8h-10.5l-3.1,17.9L-85.2,539.2L-85.2,539.2z M-64.1,512.8c3,0.9,5.3,2.6,7,5c1.6,2.4,2.5,5.4,2.5,9.1
			c0,7.9-2.8,14-8.3,18.5c-5.5,4.4-13.3,6.6-23.3,6.6h-30.4l13.5-73.3h24.5c8.2,0,14.2,1.3,18.2,3.8c3.9,2.6,5.9,6.5,5.9,11.8
			c0,4.5-1.2,8.4-3.4,11.8c-2.3,3.4-5.3,5.6-9,6.6L-64.1,512.8L-64.1,512.8z"/>
	</g>
</g>
</svg>
