<svg
   version="1.1"
   id="Layer_1"
   x="0px"
   y="0px"
   width="100"
   height="35.1"
   viewBox="0 0 100 35.1"
   style="enable-background:new 0 0 100 35.1;"
   xml:space="preserve"
   sodipodi:docname="logo-snipes-white.svg"
   inkscape:version="1.1 (c68e22c387, 2021-05-23)"
   xmlns:inkscape="http://www.inkscape.org/namespaces/inkscape"
   xmlns:sodipodi="http://sodipodi.sourceforge.net/DTD/sodipodi-0.dtd"
   xmlns="http://www.w3.org/2000/svg"
   xmlns:svg="http://www.w3.org/2000/svg"><defs
   id="defs29" /><sodipodi:namedview
   id="namedview27"
   pagecolor="#ffffff"
   bordercolor="#666666"
   borderopacity="1.0"
   inkscape:pageshadow="2"
   inkscape:pageopacity="0.0"
   inkscape:pagecheckerboard="0"
   showgrid="true"
   inkscape:zoom="11.29"
   inkscape:cx="50"
   inkscape:cy="17.581931"
   inkscape:window-width="1920"
   inkscape:window-height="1009"
   inkscape:window-x="-8"
   inkscape:window-y="-8"
   inkscape:window-maximized="1"
   inkscape:current-layer="g24"><inkscape:grid
     type="xygrid"
     id="grid846" /></sodipodi:namedview>
<style
   type="text/css"
   id="style2">
	.st0{fill:none;}
	.st1{fill:#fff;}
</style>
<g
   id="g24">
	<path
   class="st0"
   d="M49.9,6.7c-0.4-1.1-1.6-1.7-2.8-1.5c-1.1,0.2-2,1.1-2,2.2c0,4.9,0,9.8,0,14.7c0,0.9,0.5,1.7,1.3,2.1   c0.9,0.4,2,0.3,2.7-0.3c0.6-0.5,0.9-1.2,0.9-2c0-4.5,0-9,0-13.5C50.1,7.9,50.1,7.2,49.9,6.7z"
   id="path4" />
	<path
   class="st0"
   d="M64.7,5C64.2,5,63.7,5,63.2,5.2c-0.9,0.4-1.5,1.3-1.5,2.2c0,0.9,0,1.9,0,2.8c1.7,0,3.4,0,5.1,0   c0-0.9,0-1.8,0-2.7C66.7,6.3,65.8,5.3,64.7,5z"
   id="path6" />
	<path
   class="st1"
   d="M100,7.1c0-1.7,0-3.4,0-5.1c0-1.1-0.9-2.1-2-2.1c-2,0-4.1,0-6.1,0c-0.3,0-0.6,0-0.9,0.1c-0.9,0.2-1.6,1-1.6,2   c0,2,0,4.1,0,6.1c0,0.4,0,0.9,0.2,1.3c0.3,0.7,1.1,1.2,1.8,1.2c2,0,4,0,6,0c0.3,0,0.7,0,1-0.1c0.7-0.2,1.2-0.7,1.4-1.4   C100.1,8.4,99.9,7.7,100,7.1z"
   id="path8" />
	<path
   class="st1"
   d="M38.1,2.3c0-0.5,0.1-1.1-0.1-1.6c-0.1-0.4-0.6-0.7-1-0.7c-1,0-2.1-0.1-3.1,0c-0.4,0.1-0.7,0.4-0.7,0.8   c0,0.8,0,1.6,0,2.4c0,0.3,0,0.6,0.1,0.9c0.2,0.3,0.5,0.4,0.9,0.4c0.9,0,1.9,0,2.8,0c0.4,0,0.9-0.3,0.9-0.8   C38.1,3.4,38.1,2.9,38.1,2.3z"
   id="path10" />
	<path
   d="M54.2,4.2c-0.6-1.2-1.5-2.2-2.7-3c-1.5-1-3.3-1.4-5.1-1.1c-1.8,0.3-3.4,1.4-4.5,2.8c-1,1.2-1.5,2.7-1.5,4.2   c0,9.4,0,18.8,0,28.2c1.6,0,3.1,0,4.7,0c0-2.4,0-4.9,0-7.3c0.6,0.7,1.5,1.3,2.5,1.3c1.2,0,2.3-0.1,3.4-0.6c1-0.5,1.9-1.3,2.5-2.2   c0.9-1.4,1.3-3.1,1.3-4.8c0-4.8,0-9.6,0-14.4C54.7,6.2,54.6,5.2,54.2,4.2z M50.1,21.9c0,0.7-0.3,1.5-0.9,2   c-0.7,0.6-1.8,0.7-2.7,0.3c-0.8-0.3-1.3-1.2-1.3-2.1c0-4.9,0-9.8,0-14.7c0-1.1,0.9-2.1,2-2.2c1.1-0.2,2.4,0.4,2.8,1.5   c0.2,0.6,0.2,1.2,0.2,1.8C50.1,12.9,50.1,17.4,50.1,21.9z"
   id="path12"
   fill="#fff" />
	<path
   d="M13,13.1c-1.4-1.7-3.4-2.7-5.6-2.8c-0.8,0-1.5-0.3-2.1-0.9c-1-1.1-0.8-2.9,0.3-3.8c0.8-0.6,1.9-0.6,2.8-0.2   c0.7,0.3,1.1,1,1.2,1.7c1.6,0,3.1,0,4.7,0c0-1.4-0.4-2.7-1.2-3.8c-1.3-1.7-3.2-2.9-5.4-3c-0.6-0.1-1.2,0-1.9,0.1   C4.2,0.5,2.7,1.5,1.6,2.8c-2.4,2.9-2.2,7.7,0.6,10.3c1.2,1.3,3,2,4.9,2c0.6,0,1.3,0.1,1.9,0.5c0.5,0.4,0.7,1,0.7,1.6   c0,1.4,0,2.7,0,4.1c0.1,1-0.3,2.3-1.4,2.7c-0.8,0.3-1.9,0.3-2.6-0.2c-0.6-0.5-0.9-1.3-0.9-2c0-1.3,0-2.6,0-3.9c-1.6,0-3.2,0-4.7,0   c0,1.4,0,2.8,0,4.2c0.2,2.6,1.8,5,4.1,6.2C5.4,29.1,7,29.2,8.5,29c1.7-0.2,3.3-1.1,4.4-2.5c1-1.3,1.5-2.9,1.5-4.5   c0-1.6,0-3.2,0-4.7C14.4,15.8,13.9,14.2,13,13.1z"
   id="path14"
   fill="#fff" />
	<path
   d="M71.4,10.2c0-1.1,0-2.2,0-3.3c0-1.4-0.5-2.8-1.4-3.9c-1-1.3-2.4-2.3-4-2.7C64.6,0,63.1,0,61.8,0.4   c-1.7,0.5-3.1,1.7-3.9,3.3c-0.5,1-0.8,2.2-0.8,3.4v14.3c0,0.7,0,1.4,0.1,2.1c0.3,1.8,1.5,3.5,3.1,4.5c1.6,1,3.5,1.3,5.4,1   c1.5-0.2,2.8-1,3.9-2.1c1.2-1.3,1.9-3,1.9-4.8c0-1.4,0-2.8,0-4.1c-1.6,0-3.2,0-4.7,0c0,1.3,0,2.5,0,3.8c0,0.9-0.5,1.9-1.4,2.2   c-0.8,0.3-1.7,0.3-2.4-0.2c-0.7-0.4-1.2-1.3-1.2-2.1c0-2.3,0-4.7,0-7c3.2,0,6.5,0,9.7,0C71.4,13.2,71.4,11.7,71.4,10.2z M61.7,10.2   c0-0.9,0-1.9,0-2.8c0-0.9,0.6-1.8,1.5-2.2C63.7,5,64.2,5,64.7,5c1.1,0.2,2,1.3,2,2.4c0,0.9,0,1.8,0,2.7   C65,10.2,63.4,10.2,61.7,10.2z"
   id="path16"
   fill="#fff" />
	<path
   d="M86.4,13.3c-1.1-1.5-2.9-2.5-4.7-2.9c-0.7-0.2-1.5-0.1-2.2-0.4c-0.7-0.3-1.3-1-1.4-1.8C78,7.6,78,7,78.3,6.4   c0.3-0.6,0.8-1.2,1.5-1.3c0.9-0.2,1.9-0.1,2.5,0.6C82.7,6.1,82.8,6.6,83,7c1.6,0,3.1,0,4.7,0c0-1.1-0.2-2.2-0.8-3.2   c-0.8-1.4-2-2.4-3.4-3.1c-1.6-0.7-3.4-0.8-5.1-0.4c-1.7,0.5-3.2,1.8-4.1,3.3c-0.9,1.6-1.2,3.5-0.9,5.3c0.2,1.4,0.8,2.7,1.8,3.7   c1.3,1.5,3.2,2.4,5.1,2.4c0.7,0,1.5,0.1,2.1,0.6c0.5,0.4,0.6,1.1,0.6,1.7c0,1.4,0,2.9,0,4.3c-0.1,0.9-0.5,1.8-1.3,2.2   c-0.9,0.3-1.9,0.3-2.7-0.2c-0.6-0.5-1-1.3-1-2c0-1.3,0-2.6,0-3.9c-1.6,0-3.2,0-4.7,0c0,0.9,0,1.7,0,2.6c0,0.9-0.1,1.8,0.2,2.7   c0.4,1.9,1.6,3.5,3.2,4.7c1.1,0.8,2.5,1.2,3.8,1.2c1.9,0,3.8-0.6,5.1-2c1.3-1.3,2-3.1,2.1-4.9c0-1.6,0-3.2,0-4.8   C87.7,15.9,87.3,14.4,86.4,13.3z"
   id="path18"
   fill="#fff" />
	<path
   d="M30,3.9c-0.9-1.4-2.2-2.6-3.8-3.3c-1.4-0.6-3.1-0.6-4.6-0.2C20.1,1,18.7,2,17.8,3.4c-0.9,1.2-1.3,2.7-1.3,4.2   c0,7.1,0,14.1,0,21.2c1.6,0,3.1,0,4.7,0c0-7.1,0-14.1,0-21.2c0-1.1,0.8-2.2,1.9-2.4c0.7-0.1,1.4-0.1,2,0.3C25.9,6,26.2,7,26.2,7.9   c0,7,0,13.9,0,20.9c1.6,0,3.1,0,4.7,0c0-7.2,0-14.3,0-21.5C30.9,6.1,30.6,4.9,30,3.9z"
   id="path20"
   fill="#fff" />
	<path
   d="M33.3,7.7c0,7,0,14,0,21c1.6,0,3.1,0,4.7,0c0-7,0-14,0-21.1C36.4,7.7,34.8,7.7,33.3,7.7z"
   id="path22"
   fill="#fff" />
</g>
</svg>
