<?xml version="1.0" encoding="UTF-8" standalone="no"?>
<svg
   width="571"
   height="101"
   viewBox="0 0 571 101"
   fill="none"
   version="1.1"
   id="svg105"
   sodipodi:docname="Logos-enterprise.svg"
   inkscape:version="1.1 (c68e22c387, 2021-05-23)"
   xmlns:inkscape="http://www.inkscape.org/namespaces/inkscape"
   xmlns:sodipodi="http://sodipodi.sourceforge.net/DTD/sodipodi-0.dtd"
   xmlns="http://www.w3.org/2000/svg"
   xmlns:svg="http://www.w3.org/2000/svg">
  <sodipodi:namedview
     id="namedview107"
     pagecolor="#ffffff"
     bordercolor="#666666"
     borderopacity="1.0"
     inkscape:pageshadow="2"
     inkscape:pageopacity="0.0"
     inkscape:pagecheckerboard="0"
     showgrid="false"
     inkscape:zoom="0.98861646"
     inkscape:cx="166.39415"
     inkscape:cy="109.74934"
     inkscape:window-width="1920"
     inkscape:window-height="1017"
     inkscape:window-x="-8"
     inkscape:window-y="-8"
     inkscape:window-maximized="1"
     inkscape:current-layer="svg105" />
  <path
     d="M310.892 17.128C312.383 17.0333 314.182 17.9343 314.793 19.5026L306.678 21.6715C306.572 18.7451 308.763 17.2656 310.892 17.128ZM319.83 20.8711C319.827 20.8563 319.831 20.8459 319.828 20.8312C319.823 20.8046 319.814 20.7705 319.808 20.7425C319.641 19.9065 319.385 19.0973 319.118 18.5144L319.116 18.5155C319.045 18.335 318.975 18.1575 318.907 18.0096C317.629 15.1971 315.102 13.2101 311.176 13.2101C305.57 13.2101 301.865 17.7018 301.865 22.8386C301.865 28.6278 305.675 32.473 311.68 32.473C314.25 32.473 316.107 31.8486 317.885 31.0187C318.046 30.9447 318.171 30.8026 318.224 30.634L319.135 26.274C319.206 26.0343 319.069 25.8612 318.916 25.9396C317.29 26.9752 315.2 28.2136 312.648 28.1943C310.066 28.1751 307.958 27.1158 307.295 25.2975L319.449 22.0633C319.805 21.9376 319.967 21.7379 319.924 21.4094C319.9 21.2289 319.863 21.0499 319.83 20.8709L319.83 20.8711ZM374.16 32.4733C371.038 32.4733 368.632 31.451 366.588 30.2866C366.416 30.1905 366.237 29.9981 366.271 29.8206L367.076 25.9458C367.089 25.8585 367.153 25.7905 367.239 25.8452C369.566 27.372 371.625 28.4461 374.479 28.4461C376.061 28.4461 377.031 27.8381 377.031 26.9711C377.031 26.002 376.314 25.573 373.007 24.709C369.271 23.7384 366.608 22.4823 366.608 19.0307C366.608 15.7241 369.484 13.3184 374.337 13.3184C376.845 13.3184 378.855 13.9413 380.427 14.721C380.643 14.8275 380.801 15.076 380.773 15.2906L380.023 18.9005C379.999 19.0144 379.899 19.0825 379.799 19.0233C377.957 17.8945 375.666 17.3071 374.124 17.3071C372.506 17.3071 371.642 17.8841 371.642 18.6741C371.642 19.6047 372.467 19.9998 375.558 20.7913C379.73 21.8328 382.067 23.1259 382.067 26.6855C382.067 30.0647 379.012 32.4733 374.16 32.4733ZM349.068 22.9917C349.068 25.8811 351.046 28.0456 353.708 28.0456C356.475 28.0456 358.383 25.7701 358.383 22.9192C358.383 20.0312 356.404 17.9007 353.744 17.9007C350.977 17.9007 349.068 20.1362 349.068 22.9917ZM353.702 13.2108C359.956 13.2108 363.622 17.8445 363.622 22.8393C363.622 27.908 359.738 32.5787 353.667 32.5787C347.448 32.5787 343.748 27.908 343.748 22.9132C343.748 17.883 347.629 13.2108 353.702 13.2108V13.2108ZM334.637 13.7134H339.701C339.802 13.7134 339.882 13.7933 339.882 13.8924V31.8962C339.882 31.9939 339.802 32.0767 339.701 32.0767H334.637C334.537 32.0767 334.455 31.9939 334.455 31.8962V13.8924C334.455 13.7933 334.537 13.7134 334.637 13.7134ZM337.188 11.1598C335.407 11.1598 334.039 9.85931 334.039 8.18157C334.039 6.47129 335.407 5.20781 337.188 5.20781C338.966 5.20781 340.332 6.47129 340.332 8.18157C340.332 9.85931 338.966 11.1598 337.188 11.1598ZM323.808 6.23443L328.875 4.89698C328.99 4.86585 329.103 4.9532 329.103 5.07008V31.8961C329.103 31.9951 329.021 32.0766 328.922 32.0766H323.854C323.754 32.0766 323.673 31.9951 323.673 31.8961V6.41049C323.673 6.32764 323.729 6.25514 323.808 6.23443V6.23443ZM292.897 21.9795H281.037V31.898C281.037 31.9972 280.956 32.0785 280.857 32.0785H275.391C275.292 32.0785 275.211 31.9972 275.211 31.898V7.09741C275.211 6.99976 275.292 6.91839 275.391 6.91839H280.857C280.956 6.91839 281.037 6.9997 281.037 7.09741V16.6593H292.897V7.09741C292.897 6.99976 292.978 6.91839 293.077 6.91839H298.507C298.606 6.91839 298.687 6.9997 298.687 7.09741V31.898C298.687 31.9972 298.606 32.0785 298.507 32.0785H293.077C292.978 32.0785 292.897 31.9972 292.897 31.898V21.9795Z"
     fill="black"
     id="path2" />
  <path
     d="M264.416 13.4789C264.027 11.5659 263.51 10.3394 262.059 10.5436C260.991 10.696 260.531 11.6784 260.639 12.8279C260.954 16.0887 261.146 19.1601 260.319 22.415C259.957 23.8412 259.153 27.8299 256.603 27.0458C254.752 26.4776 255.139 24.0128 255.244 22.7316C255.628 20.0449 254.74 19.4516 253.926 19.3155C252.8 19.1261 251.945 19.6809 251.577 21.8691C251.427 22.5763 250.198 28.4513 250.139 29.0549C249.969 30.7963 250.59 32.6737 250.716 33.1117C250.759 33.2685 250.864 33.372 251.02 33.409C254.877 34.2257 258.909 33.9446 261.821 32.2402C261.98 32.1455 262.066 32.0346 262.142 31.9355C263.751 29.6156 264.482 26.0797 264.874 23.3264C265.337 20.0641 265.175 16.6879 264.416 13.4789"
     fill="black"
     id="path4" />
  <path
     d="M243.705 21.3695C244.094 23.2825 244.612 24.5105 246.063 24.3048C247.13 24.1539 247.588 23.1701 247.483 22.022C247.167 18.7612 246.974 15.6898 247.801 12.4349C248.164 11.0087 248.967 7.02151 251.519 7.80415C253.369 8.3708 252.983 10.8386 252.876 12.1183C252.491 14.8036 253.381 15.3998 254.194 15.5345C255.322 15.7253 256.175 15.1705 256.542 12.9794C256.693 12.2737 257.923 6.39717 257.982 5.79354C258.152 4.05366 257.532 2.17472 257.406 1.73827C257.363 1.58145 257.257 1.47788 257.101 1.4409C253.244 0.624221 249.211 0.905323 246.301 2.60969C246.14 2.70142 246.056 2.81534 245.979 2.91446C244.369 5.23429 243.638 8.77026 243.248 11.5251C242.783 14.7844 242.947 18.162 243.705 21.3695"
     fill="black"
     id="path6" />
  <g
     clip-path="url(#clip0)"
     id="g36">
    <mask
       id="mask0"
       mask-type="alpha"
       maskUnits="userSpaceOnUse"
       x="0"
       y="0"
       width="22"
       height="23">
      <path
         d="M0.0859375 0.667725H21.2623V22.8741H0.0859375V0.667725Z"
         fill="white"
         id="path8" />
    </mask>
    <g
       mask="url(#mask0)"
       id="g13">
      <path
         fill-rule="evenodd"
         clip-rule="evenodd"
         d="M8.6702 22.8741H8.6618C6.363 22.8741 3.9872 22.8183 2.4206 22.1534C1.6114 21.8119 1.0486 21.3519 0.6496 20.7064C0.2128 19.9969 0 19.081 0 17.9059C0 17.0096 0.1274 15.9585 0.3808 14.775C0.4382 14.5059 1.7962 8.1967 1.8872 7.86214C2.2456 6.54761 2.6978 5.46586 3.2718 4.55837C4.263 2.99431 5.5818 1.98505 7.4214 1.38563C8.9544 0.88937 10.906 0.667725 13.7466 0.667725H13.7704C15.2628 0.667725 16.4892 0.772274 17.5196 0.988344C18.7348 1.24205 19.663 1.65746 20.279 2.22203C20.7382 2.64441 21.035 3.16019 21.1638 3.75543C21.2282 4.05514 21.2604 4.3897 21.2604 4.75353C21.2604 5.59272 21.0882 6.46815 20.9496 7.17351C20.93 7.27527 20.9104 7.37564 20.8922 7.47182L20.8866 7.5011H15.393L15.3958 7.46207C15.3958 7.46207 15.4126 7.29618 15.4196 7.22369C15.4196 7.21951 15.4448 6.99787 15.4448 6.68003C15.4448 6.20468 15.2222 5.83248 14.7616 5.53974C14.399 5.33483 13.9356 5.26373 13.4918 5.20937C13.0172 5.15361 12.4866 5.14524 11.984 5.14524C11.06 5.14524 10.3614 5.21913 9.7888 5.37525C9.331 5.49793 8.9502 5.67775 8.6282 5.92309C8.1718 6.26741 7.8176 6.76228 7.5446 7.43419C7.2898 8.06149 7.1064 8.80588 6.9076 9.73149L6.1544 13.2583C5.9136 14.3944 5.7428 15.2559 5.7414 15.9975C5.7414 16.4255 5.8002 16.7628 5.9248 17.0625C6.1208 17.5393 6.5366 17.9115 7.098 18.1094C7.6398 18.306 8.3244 18.3938 9.3184 18.3952C9.9834 18.3952 10.528 18.3826 11.0236 18.3227C11.8832 18.2195 12.4978 17.963 12.9598 17.5156C13.461 17.0291 13.7998 16.3126 14.0252 15.2573L14.1022 14.8976H19.5356L19.5342 14.9353C19.5314 14.9771 19.2276 16.3976 19.068 16.9663C18.9028 17.5588 18.7222 18.0648 18.5164 18.5109C17.9886 19.6581 17.2536 20.5405 16.2008 21.2877C15.183 21.9959 14.0994 22.4336 12.789 22.6622C11.662 22.8588 10.5112 22.8727 9.2302 22.8727H9.2148C9.1882 22.8727 8.736 22.8727 8.6702 22.8741Z"
         fill="black"
         id="path11" />
    </g>
    <path
       fill-rule="evenodd"
       clip-rule="evenodd"
       d="M69.5413 22.8741H69.5343C67.2341 22.8741 64.8583 22.8183 63.2931 22.1534C62.4825 21.8119 61.9197 21.3519 61.5221 20.7064C61.0839 19.9969 60.8725 19.081 60.8711 17.9059C60.8711 17.0096 60.9999 15.9585 61.2533 14.775C61.3093 14.5059 62.6673 8.1967 62.7583 7.86214C63.1167 6.54761 63.5689 5.46586 64.1429 4.55837C65.1341 2.99431 66.4529 1.98505 68.2925 1.38563C69.8269 0.88937 71.7771 0.667725 74.6163 0.667725H74.6429C76.1339 0.667725 77.3603 0.772274 78.3921 0.988344C79.6073 1.24205 80.5355 1.65746 81.1501 2.22203C81.6107 2.64441 81.9061 3.16019 82.0335 3.75543C82.0979 4.05374 82.1315 4.3897 82.1315 4.75353C82.1315 5.59272 81.9607 6.46954 81.8221 7.17351C81.8011 7.27667 81.7829 7.37564 81.7633 7.47182L81.7577 7.5011H76.2641L76.2683 7.46207C76.2683 7.46207 76.2851 7.29618 76.2921 7.22369C76.2921 7.21951 76.3159 6.99787 76.3159 6.68003C76.3159 6.20468 76.0919 5.83248 75.6341 5.53974C75.2701 5.33483 74.8067 5.26373 74.3629 5.20937C73.8897 5.15361 73.3577 5.14524 72.8551 5.14524C71.9311 5.14524 71.2325 5.21913 70.6599 5.37525C70.2021 5.49793 69.8227 5.67775 69.4993 5.92309C69.0429 6.26741 68.6901 6.76228 68.4171 7.43419C68.1609 8.06149 67.9775 8.80588 67.7801 9.73149L67.0269 13.2583C66.7847 14.3944 66.6139 15.2559 66.6125 15.9975C66.6125 16.4255 66.6713 16.7628 66.7959 17.0625C66.9919 17.5393 67.4077 17.9115 67.9691 18.1094C68.5109 18.306 69.1955 18.3938 70.1895 18.3952C70.8559 18.3952 71.3991 18.3826 71.8947 18.3227C72.7529 18.2195 73.3703 17.963 73.8323 17.5156C74.3321 17.0291 74.6709 16.3126 74.8977 15.2573L74.9733 14.8976H80.4067L80.4053 14.9353C80.4025 14.9771 80.0973 16.3976 79.9391 16.9663C79.7739 17.5588 79.5933 18.0648 79.3889 18.5109C78.8611 19.6581 78.1247 20.5405 77.0719 21.2877C76.0555 21.9959 74.9705 22.4336 73.6615 22.6622C72.5331 22.8588 71.3823 22.8727 70.1027 22.8727H70.0859C70.0593 22.8727 69.6071 22.8727 69.5413 22.8741Z"
       fill="black"
       id="path15" />
    <path
       fill-rule="evenodd"
       clip-rule="evenodd"
       d="M57.7552 22.6901H41.9492L41.959 22.6468L46.3788 1.93762C46.4572 1.55706 46.6 1.29499 46.831 1.11656C47.0662 0.933942 47.391 0.844727 47.8222 0.844727H61.1586C61.4876 0.846121 61.7256 0.920002 61.8684 1.06498C61.9762 1.1751 62.0336 1.33681 62.035 1.53336V1.55009C62.0336 1.62955 62.0238 1.71179 62.0042 1.79404L61.314 5.02672H50.989L50.0944 9.30908H59.7838L58.9018 13.3475H49.2124L48.1092 18.5164H58.6456L57.7552 22.6901Z"
       fill="black"
       id="path17" />
    <path
       fill-rule="evenodd"
       clip-rule="evenodd"
       d="M86.0977 22.6901H80.8281L80.8365 22.6468L85.2423 2.00871C85.3473 1.56124 85.5181 1.25177 85.7617 1.06498C85.9563 0.917214 86.2055 0.846121 86.5261 0.844727H89.6453C89.9813 0.846121 90.2319 0.924184 90.3901 1.07613C90.5147 1.19601 90.5805 1.36887 90.5819 1.57518C90.5819 1.63791 90.5763 1.70343 90.5637 1.77034L86.0977 22.6901Z"
       fill="black"
       id="path19" />
    <path
       fill-rule="evenodd"
       clip-rule="evenodd"
       d="M100.606 22.6887H93.9657L93.9559 22.6691L89.0391 11.3387L89.0559 11.322L97.5609 2.12581C98.0845 1.55427 98.3967 1.26432 98.6711 1.09565C98.9693 0.913032 99.2255 0.847515 99.6539 0.844727H103.941C104.141 0.846121 104.267 0.911638 104.337 0.967398C104.38 1.00364 104.408 1.0371 104.426 1.07334C104.44 1.09704 104.449 1.1291 104.453 1.16116H104.463L104.454 1.22947C104.446 1.31869 104.4 1.46506 104.223 1.66161L95.0437 11.4893L100.606 22.6887Z"
       fill="black"
       id="path21" />
    <path
       fill-rule="evenodd"
       clip-rule="evenodd"
       d="M33.9704 22.6901H33.927L33.9368 22.6468L35.8142 13.8256H27.1258L25.233 22.6901H19.9648L19.9746 22.6468C20.1524 21.8104 24.3398 2.13557 24.365 2.02684C24.5204 1.37863 24.778 1.15559 24.9852 1.03431C25.2092 0.904668 25.5228 0.844727 25.9694 0.844727H28.8184C28.9668 0.846121 29.2076 0.90885 29.391 1.03989C29.489 1.10819 29.566 1.19044 29.6192 1.28244C29.6794 1.38699 29.7088 1.50548 29.7088 1.64349C29.7088 1.70343 29.7018 1.76755 29.692 1.83446C29.6696 1.95992 28.2234 8.68317 28.0792 9.34811H36.7676C37.4746 6.02761 38.316 2.07423 38.3272 2.02684C38.4826 1.37863 38.7402 1.15559 38.9474 1.03431C39.1714 0.904668 39.485 0.844727 39.9316 0.844727H42.7806C42.9276 0.846121 43.1698 0.90885 43.3532 1.03989C43.4512 1.10819 43.5282 1.19044 43.58 1.28244C43.6402 1.38699 43.6696 1.50548 43.6696 1.64349C43.6696 1.70343 43.664 1.76755 43.6528 1.83446C43.6304 1.96411 39.3814 21.816 39.2022 22.6622L39.1966 22.6901H33.9704Z"
       fill="black"
       id="path23" />
    <mask
       id="mask1"
       mask-type="alpha"
       maskUnits="userSpaceOnUse"
       x="101"
       y="0"
       width="39"
       height="35">
      <path
         d="M101.898 0.697021H139.999V34.7691H101.898V0.697021Z"
         fill="white"
         id="path25" />
    </mask>
    <g
       mask="url(#mask1)"
       id="g34">
      <path
         fill-rule="evenodd"
         clip-rule="evenodd"
         d="M116.143 5.1188C116.547 5.22196 116.871 5.42409 117.044 5.76004C117.159 5.98169 117.207 6.24515 117.207 6.55323C117.207 6.87106 117.156 7.24047 117.064 7.68097C116.941 8.25251 116.82 8.72229 116.638 9.12794C116.456 9.5322 116.207 9.87233 115.847 10.1525C115.124 10.7171 113.998 11.0628 112.004 11.5075C109.367 12.0916 107.545 12.5781 106.263 13.2124C104.982 13.8494 104.233 14.6119 103.672 15.8122C103.299 16.6151 103.015 17.6146 102.743 18.8873L102 22.6581H119.091L119.888 18.8371H107.996C107.996 18.8371 108.181 17.9185 108.331 17.5811C108.527 17.1462 108.78 16.82 109.112 16.5775C109.442 16.3335 109.843 16.176 110.33 16.0394C111.306 15.7703 112.654 15.5877 114.638 15.0831C117.084 14.453 118.734 13.7658 119.898 12.6478C121.061 11.5326 121.772 9.96434 122.297 7.50672C122.492 6.59644 122.6 5.70289 122.6 5.0254C122.6 4.051 122.412 3.30661 122.075 2.73367C121.739 2.15935 121.25 1.74812 120.614 1.44422C119.346 0.836442 117.484 0.695648 115.273 0.697032C112.462 0.695648 110.249 0.986993 108.604 1.99207C106.96 2.99574 105.814 4.82467 105.178 7.79807L104.997 8.63865H110.194L110.392 7.71024C110.596 6.81948 110.784 6.21309 111.122 5.78234C111.46 5.34742 111.947 5.14111 112.613 5.05747C113.06 4.99892 113.6 4.98637 114.274 4.98637C114.38 4.98498 114.482 4.98358 114.58 4.98358C115.222 4.98498 115.734 5.01286 116.143 5.1188Z"
         fill="black"
         id="path28" />
      <path
         fill-rule="evenodd"
         clip-rule="evenodd"
         d="M130.48 3.01233C129.875 3.63684 124.803 8.92148 122.727 11.0878C122.313 11.531 121.869 12.0217 121.671 12.4246C121.513 12.7187 121.305 13.5384 121.198 14.1239C120.977 15.3422 120.812 16.456 120.71 16.9133C120.683 17.0318 120.672 17.1391 120.672 17.2395C120.673 17.6145 120.83 17.8654 121.04 18.0438C121.251 18.2208 121.531 18.3031 121.814 18.3031C122.068 18.3031 131.882 18.3031 131.882 18.3031L130.955 22.6621L136.255 22.1645L137.078 18.3031H138.97L139.794 14.4459H137.9C137.9 14.4459 139.793 5.63722 139.852 5.31103C140.503 1.74658 139.016 0.703868 135.67 0.703868C134.815 0.703868 132.881 0.528224 130.48 3.01233ZM132.705 14.4459H125.099L134.147 5.1089H134.697L132.705 14.4459Z"
         fill="black"
         id="path30" />
      <path
         fill-rule="evenodd"
         clip-rule="evenodd"
         d="M118.616 34.8498C115.196 34.8484 111.91 33.9409 109.115 32.2207C106.371 30.5326 104.77 28.5419 104.012 27.417L103.013 29.9819C102.922 30.2161 102.671 30.3639 102.408 30.3207C102.145 30.2747 101.954 30.053 101.953 29.791L101.898 24.767V24.7628C101.9 24.622 101.957 24.4882 102.058 24.3892C102.163 24.2861 102.3 24.2303 102.446 24.2303L107.581 24.2275H107.587C107.84 24.2359 108.06 24.4213 108.109 24.6666C108.114 24.7001 108.119 24.7349 108.119 24.7698C108.119 24.9914 107.979 25.1936 107.769 25.2744L105.261 26.2418C107.459 28.1907 111.987 31.3271 118.344 31.3285C118.887 31.3285 119.439 31.3048 119.985 31.2588C122.666 31.0316 125.371 30.375 127.811 29.363C129.945 28.4736 131.83 27.3389 133.27 26.0774L130.684 25.3176C130.453 25.2521 130.289 25.0388 130.289 24.7977C130.289 24.7809 130.29 24.7642 130.292 24.7447C130.318 24.4868 130.526 24.2819 130.787 24.2582L135.804 23.8023C135.827 23.7996 135.847 23.7996 135.862 23.7996C135.988 23.7996 136.113 23.8456 136.211 23.925C136.324 24.0212 136.394 24.1522 136.406 24.2972C136.823 29.2055 136.823 29.2069 136.823 29.225C136.823 29.4703 136.658 29.6836 136.418 29.7477C136.373 29.7603 136.327 29.7673 136.278 29.7673C136.067 29.7673 135.874 29.6488 135.783 29.4662L134.573 27.1535C133.599 28.4611 131.906 30.3095 129.257 31.914C126.571 33.5408 123.566 34.5041 120.335 34.7759L120.01 34.8038V34.801C119.543 34.833 119.074 34.8498 118.616 34.8498Z"
         fill="black"
         id="path32" />
    </g>
  </g>
  <path
     d="m 492.677,16.8472 v -2.0346 h -4.228 c -0.959,0 -1.286,-0.4678 -1.286,-1.3807 V 0.1917 h -2.386 v 13.3808 c 0,1.7542 0.982,3.2747 3.251,3.2747 z"
     fill="#000000"
     id="path44" />
  <path
     d="m 501.621,9.9465001 h -5.333 c 0.023,-0.7254 0.07,-1.0761 0.303,-1.6139 0.375,-0.8894 1.241,-1.4975 2.363,-1.4975 1.123,0 1.965,0.6081 2.34,1.4975 0.233,0.5378 0.304,0.8885 0.327,1.6139 z m 2.363,1.6608999 v -1.0528 c 0,-3.3684999 -1.848,-5.7079 -5.03,-5.7079 -3.041,0 -5.029,2.2223001 -5.029,6.0586 0,4.5149 2.363,6.0824 5.333,6.0824 2.082,0 3.229,-0.6315 4.445,-1.8479 l -1.52,-1.4269 c -0.843,0.8419 -1.544,1.2164 -2.878,1.2164 -1.942,0 -3.017,-1.287 -3.017,-3.3219 z"
     fill="#000000"
     id="path46" />
  <path
     d="m 508.893,4.9868 h -2.386 v 11.8599 h 2.386 z"
     fill="#000000"
     id="path48" />
  <path
     d="m 519.333,10.9053 c 0,2.1058 -0.304,3.9537 -2.456,3.9537 -2.153,0 -2.48,-1.8479 -2.48,-3.9537 0,-2.1054999 0.327,-3.9299999 2.48,-3.9299999 2.152,0 2.456,1.8245 2.456,3.9299999 z m 2.386,0 c 0,-1.8012999 -0.14,-3.8128999 -1.333,-5.0062 -0.655,-0.6549 -1.708,-1.0524 -2.901,-1.0524 -1.287,0 -2.245,0.3276 -3.135,1.4032 v -1.263 h -2.339 v 16.6559 h 2.386 v -6.0121 c 0.865,1.0294 1.848,1.357 3.111,1.357 1.193,0 2.223,-0.3979 2.878,-1.0525 1.193,-1.1939 1.333,-3.2282 1.333,-5.0299 z"
     fill="#000000"
     id="path50" />
  <path
     d="m 532.326,16.8472 v -2.1286 h -5.942 l 5.942,-7.8365999 V 4.9873 h -8.515 v 2.1283001 h 5.567 L 523.484,14.9528 v 1.8944 z"
     fill="#000000"
     id="path52" />
  <path
     d="m 537.323,4.9868 h -2.386 v 11.8599 h 2.386 z"
     fill="#000000"
     id="path54" />
  <path
     d="m 546.903,10.6949 c 0,1.8716 -0.257,3.7198 -2.409,3.7198 -2.152,0 -2.433,-1.8479 -2.433,-3.7198 0,-1.8712999 0.281,-3.7194999 2.433,-3.7194999 2.152,0 2.409,1.8479 2.409,3.7194999 z m 2.387,6.0824 V 4.987 h -2.316 v 1.2633 c -0.89,-1.0762 -1.848,-1.4041 -3.112,-1.4041 -1.193,0 -2.199,0.3747 -2.853,1.0299 -1.147,1.1462001 -1.334,2.8073001 -1.334,4.8188 0,2.0116 0.187,3.673 1.334,4.8188 0.654,0.6552 1.637,1.0531 2.83,1.0531 1.217,0 2.199,-0.3273 3.065,-1.357 v 1.5209 c 0,1.5906 -0.773,3.0175 -2.784,3.0175 -1.17,0 -1.825,-0.351 -2.573,-1.0525 l -1.521,1.5203 c 1.24,1.1462 2.387,1.5671 4.188,1.5671 3.157,0 5.076,-2.1055 5.076,-5.0058 z"
     fill="#000000"
     id="path56" />
  <path
     d="m 559.598,9.9465001 h -5.333 c 0.023,-0.7254 0.07,-1.0761 0.304,-1.6139 0.373,-0.8894 1.239,-1.4975 2.362,-1.4975 1.124,0 1.965,0.6081 2.34,1.4975 0.233,0.5378 0.303,0.8885 0.327,1.6139 z M 561.96,11.6074 v -1.0528 c 0,-3.3684999 -1.847,-5.7079 -5.029,-5.7079 -3.041,0 -5.029,2.2223001 -5.029,6.0586 0,4.5149 2.363,6.0824 5.333,6.0824 2.082,0 3.229,-0.6315 4.445,-1.8479 l -1.521,-1.4269 c -0.842,0.8419 -1.544,1.2164 -2.877,1.2164 -1.942,0 -3.017,-1.287 -3.017,-3.3219 z"
     fill="#000000"
     id="path58" />
  <path
     d="m 571,4.9869 v 2.0349001 h -2.852 c -0.959,0 -1.287,0.4679 -1.287,1.3807 V 16.8468 h -2.385 V 8.2614001 C 564.476,6.5072 565.458,4.9866 567.727,4.9866 H 571 Z"
     fill="#000000"
     id="path60" />
  <path
     d="m 508.963,0.1216 h -2.526 v 2.5262 h 2.526 z"
     fill="#000000"
     id="path62" />
  <path
     d="m 537.393,0.1216 h -2.527 v 2.5262 h 2.527 z"
     fill="#000000"
     id="path64" />
  <path
     d="m 454.968,0 h 4.9487 c 0,0 0,14.9722 0,24.7799 0,2.7328 2.2155,4.9482 4.9486,4.9482 4.8451,0 9.8743,10e-5 9.8743,10e-5 v 4.9478 c 0,0 -5.0292,0 -9.8743,0 -5.4661,0 -9.8973,-4.4305 -9.8973,-9.8961 z"
     fill="#000000"
     id="path66" />
  <path
     d="m 487.548,34.85 c -1.228,0 -2.011,-0.339 -2.771,-1.0996 l 0.444,-0.4444 c 0.749,0.749 1.368,0.982 2.363,0.982 1.321,0 2.14,-0.6304 2.14,-1.7188 0,-0.5021 -0.141,-0.9006 -0.457,-1.1689 -0.316,-0.2455 -0.514,-0.3513 -1.204,-0.445 l -0.97,-0.1518 c -0.632,-0.0943 -1.123,-0.2926 -1.486,-0.6084 -0.433,-0.3619 -0.655,-0.8766 -0.655,-1.5318 0,-1.4032 0.982,-2.2807 2.585,-2.2807 1.029,0 1.684,0.2813 2.397,0.9009 l -0.409,0.4089 c -0.491,-0.4676 -1.041,-0.7714 -2.024,-0.7714 -1.215,0 -1.929,0.6549 -1.929,1.7189 0,0.4797 0.14,0.8422 0.433,1.0874 0.292,0.2455 0.772,0.4329 1.239,0.5147 l 0.9,0.1405 c 0.784,0.1049 1.147,0.2577 1.486,0.5494 0.457,0.3747 0.725,0.9475 0.725,1.6139 0,1.4154 -1.064,2.3042 -2.807,2.3042 z"
     fill="#000000"
     id="path68" />
  <path
     d="m 492.318,33.3062 v -3.7188 h -0.772 V 29.143 h 0.772 v -1.8017 h 0.597 v 1.8017 h 1.274 v 0.4444 h -1.274 v 3.731 c 0,0.5962 0.269,0.9356 0.865,0.9356 h 0.409 v 0.526 h -0.514 c -0.889,-10e-4 -1.357,-0.62 -1.357,-1.4738 z"
     fill="#000000"
     id="path70" />
  <path
     d="m 499.265,34.218 c -0.479,0.48 -0.924,0.632 -1.72,0.632 -0.841,0 -1.298,-0.141 -1.66,-0.514 -0.269,-0.269 -0.409,-0.6784 -0.409,-1.1 0,-1.029 0.737,-1.6252 1.965,-1.6252 h 1.824 V 30.979 c 0,-0.9001 -0.433,-1.3801 -1.59,-1.3801 -0.796,0 -1.194,0.199 -1.556,0.7133 l -0.432,-0.3738 c 0.479,-0.6665 1.064,-0.8654 1.988,-0.8654 1.497,0 2.186,0.6661 2.186,1.8473 V 34.78 h -0.597 v -0.562 z m -1.754,-2.1275 c -0.959,0 -1.439,0.3738 -1.439,1.1342 0,0.748 0.445,1.0993 1.474,1.0993 0.514,0 0.995,-0.047 1.403,-0.4328 0.211,-0.1986 0.316,-0.5618 0.316,-1.0759 v -0.7248 z"
     fill="#000000"
     id="path72" />
  <path
     d="m 505.32,34.055 c -0.503,0.654 -1.03,0.795 -1.673,0.795 -0.596,0 -1.087,-0.199 -1.379,-0.491 -0.574,-0.5727 -0.726,-1.5084 -0.726,-2.3978 0,-0.8888 0.152,-1.8241 0.726,-2.3969 0.292,-0.2926 0.783,-0.4912 1.379,-0.4912 0.643,0 1.17,0.1396 1.673,0.7948 v -3.415 h 0.596 v 8.3261 h -0.596 z m -1.591,-4.4563 c -1.38,0 -1.591,1.1936 -1.591,2.3625 0,1.1699 0.211,2.3628 1.591,2.3628 1.38,0 1.591,-1.1929 1.591,-2.3628 0,-1.1689 -0.211,-2.3625 -1.591,-2.3625 z"
     fill="#000000"
     id="path74" />
  <path
     d="M 508.322,33.3062 V 29.5874 H 507.55 V 29.143 h 0.772 v -1.8017 h 0.597 v 1.8017 h 1.274 v 0.4444 h -1.274 v 3.731 c 0,0.5962 0.268,0.9356 0.865,0.9356 h 0.409 v 0.526 h -0.514 c -0.889,-10e-4 -1.357,-0.62 -1.357,-1.4738 z"
     fill="#000000"
     id="path76" />
  <path
     d="m 516.601,34.78 -1.59,-4.7013 -1.59,4.7013 h -0.609 l -1.801,-5.6367 h 0.655 l 1.439,4.9357 1.613,-4.9357 h 0.585 l 1.614,4.9357 1.439,-4.9357 h 0.654 l -1.8,5.6367 z"
     fill="#000000"
     id="path78" />
  <path
     d="m 522.33,34.312 c 0.666,0 1.076,-0.199 1.556,-0.6781 l 0.444,0.3507 c -0.573,0.5724 -1.099,0.8654 -2.034,0.8654 -1.556,0 -2.398,-1.0059 -2.398,-2.8891 0,-1.8241 0.842,-2.8881 2.257,-2.8881 1.415,0 2.257,1.0168 2.257,2.7482 v 0.2689 h -3.918 c 0,1.4385 0.632,2.2221 1.836,2.2221 z m 1.287,-3.7655 c -0.246,-0.5974 -0.807,-0.9475 -1.462,-0.9475 -0.656,0 -1.216,0.3501 -1.462,0.9475 -0.129,0.3623 -0.164,0.5144 -0.199,1.0637 h 3.321 c -0.035,-0.5378 -0.046,-0.7242 -0.198,-1.0637 z"
     fill="#000000"
     id="path80" />
  <path
     d="m 532.187,31.6807 -1.286,1.485 V 34.78 h -0.597 v -8.3269 h 0.597 v 5.8707 l 2.795,-3.1805 h 0.76 l -1.859,2.1043 2.268,3.5324 h -0.737 z"
     fill="#000000"
     id="path82" />
  <path
     d="m 538.197,34.312 c 0.667,0 1.077,-0.199 1.556,-0.6781 l 0.445,0.3507 c -0.574,0.5724 -1.1,0.8654 -2.035,0.8654 -1.556,0 -2.398,-1.0059 -2.398,-2.8891 0,-1.8241 0.842,-2.8881 2.257,-2.8881 1.416,0 2.257,1.0168 2.257,2.7482 v 0.2689 h -3.918 c 0,1.4385 0.632,2.2221 1.836,2.2221 z m 1.287,-3.7655 c -0.245,-0.5974 -0.807,-0.9475 -1.462,-0.9475 -0.655,0 -1.216,0.3501 -1.462,0.9475 -0.129,0.3623 -0.164,0.5144 -0.199,1.0637 h 3.322 c -0.035,-0.5378 -0.047,-0.7242 -0.199,-1.0637 z"
     fill="#000000"
     id="path84" />
  <path
     d="m 527.505,29.1431 h 1.352 v 0.5259 h -1.247 c -0.667,0 -0.866,0.3042 -0.866,0.9472 V 34.78 h -0.596 v -4.1757 c 0,-0.8882 0.433,-1.4612 1.357,-1.4612 z"
     fill="#000000"
     id="path86" />
  <g
     clip-path="url(#clip2)"
     id="g92"
     transform="translate(-109.1435)">
    <path
       d="M 471.84,98.0351 V 84.7859 c 0,-3.8075 2.608,-6.3676 6.414,-6.3676 3.272,0 4.721,1.5222 4.721,5.085 v 14.5318 h 1.855 V 83.3005 c 0,-4.4641 -2.143,-6.6336 -6.587,-6.6336 -2.932,0 -5.185,1.3796 -6.556,3.9932 l -0.226,0.4284 -0.115,-0.4682 c -0.668,-2.5497 -2.703,-3.9534 -5.746,-3.9534 -0.936,0 -1.801,0.1509 -2.584,0.4364 -3.214,1.0657 -4.167,3.4795 -4.167,3.4795 v -3.1361 h -2.117 v 20.5884 h 2.117 V 84.9455 c 0,-3.8402 2.554,-6.5272 6.325,-6.5272 3.071,0 4.546,1.793 4.546,5.325 V 98.0351 Z M 427.705,78.3056 c 3.871,0 6.4,2.9583 6.604,7.55 l -13.405,-0.0017 c 0.242,-4.5214 2.914,-7.5483 6.801,-7.5483 z m 6.373,13.3927 c -0.553,2.9041 -3.134,4.7051 -6.41,4.7051 -4.277,0 -7.089,-3.4122 -7.089,-8.531 v -0.1332 h 15.641 v -0.7915 c 0,-6.5824 -3.099,-10.3283 -8.573,-10.3283 -5.589,0 -8.885,4.0588 -8.885,10.8186 0,6.6741 3.323,10.7082 8.889,10.7082 4.574,0 7.87,-2.4885 8.463,-6.4479 z m -21.503,-5.5515 c 0,-4.9348 2.232,-7.381 6.476,-7.381 h 0.15 v -1.8492 h -0.11 c -2.151,0 -3.799,0.5556 -5.018,1.7929 -0.857,0.7394 -1.45,1.7545 -1.764,2.3871 v -0.5379 -3.112 h -1.854 v 20.5884 h 2.12 z m -83.971,8.3077 c -3.782,0 -5.898,-2.5942 -5.898,-7.456 0,-4.8584 2.116,-7.4894 5.898,-7.4894 3.743,0 5.856,2.5912 5.856,7.4894 0,4.8618 -2.113,7.456 -5.856,7.456 z m -0.04,-18.8355 c -6.549,0 -10.495,4.2111 -10.495,11.3795 0,7.1712 3.988,11.3431 10.535,11.3431 6.509,0 10.499,-4.2124 10.499,-11.3431 0,-7.1269 -3.99,-11.3795 -10.539,-11.3795 z m 112.484,13.6608 c 0.211,-0.1951 0.455,-0.3775 0.72,-0.5475 0.323,-0.1841 2.087,-1.1059 4.981,-1.3007 2.153,-0.1512 3.855,-0.3651 5.14,-0.8598 l 0.252,-0.095 0.029,2.0844 -0.007,0.0044 c 0,0 0.002,0.0214 0.007,0.0622 l 0.006,0.5473 0.01,0.4695 c -0.004,0.0151 -0.004,0.0295 -0.004,0.0419 -0.001,0.086 -0.008,0.1646 -0.012,0.2466 -0.03,0.5238 -0.126,1.2625 -0.394,2.048 -0.632,1.714 -2.122,3.5521 -5.532,4.1425 -0.503,0.073 -1.032,0.1125 -1.586,0.1125 -2.963,0 -4.878,-1.6092 -4.878,-4.1 0,-0.6627 0.148,-1.2628 0.44,-1.8057 0.026,-0.0468 0.05,-0.094 0.077,-0.1345 0.02,-0.0335 0.044,-0.0666 0.063,-0.1014 0.142,-0.2189 0.306,-0.4241 0.48,-0.6119 0.028,-0.0267 0.055,-0.0542 0.081,-0.0816 0.041,-0.0405 0.084,-0.0804 0.127,-0.1212 z m -3.378,2.8988 c 0,3.5762 2.547,5.8002 6.648,5.8002 2.915,0 5.478,-1.1607 7.542,-3.4513 l 0.364,-0.3642 v 0.809 c 0,1.5205 0.53,2.8248 1.854,3.0628 V 82.6733 c 0,-3.9748 -2.519,-6.0489 -7.362,-6.0489 -4.728,0 -7.822,2.6685 -7.998,6.3655 h 1.994 c 0.227,-2.9051 2.213,-4.6251 6.073,-4.6251 3.805,0 5.36,1.3361 5.36,4.6716 0,1.8104 -0.592,2.1772 -2.26,2.5417 -1.225,0.2607 -3.004,0.4287 -3.618,0.482 -0.06,0.0026 -0.12,0.0077 -0.176,0.014 -0.026,0.0014 -0.043,0.0014 -0.043,0.0014 v 0.0026 c -1.857,0.1543 -3.604,0.3749 -5.158,1.0788 -2.108,0.9719 -3.22,2.7063 -3.22,5.0217 z m -86.713,2.1932 c -3.456,0 -5.613,-2.634 -5.613,-7.2508 0,-4.8594 2.157,-7.5316 5.613,-7.5316 3.701,0 5.694,2.4704 5.694,7.2478 0,4.9421 -2.032,7.5346 -5.694,7.5346 z m 5.689,-15.4307 c -1.589,-2.229 -3.821,-3.3221 -6.709,-3.3221 -5.246,0 -9.169,4.3741 -9.169,11.4619 0,6.885 3.834,11.2607 9.198,11.2607 2.809,0 4.824,-1.0961 6.68,-3.4861 v 3.1796 h 4.243 V 68.7353 h -4.243 z m -46.932,5.9522 -2.724,-0.6068 c -2.321,-0.5264 -3.582,-1.1734 -3.582,-2.713 0,-1.2973 1.221,-2.2016 3.621,-2.2016 2.806,0 4.393,1.241 4.514,3.3523 h 4.435 c 0,-4.2239 -3.338,-6.9951 -8.787,-6.9951 -5.287,0 -8.377,2.619 -8.377,6.5894 0,3.4832 2.197,4.994 6.671,6.0871 l 3.213,0.7939 c 2.114,0.5288 3.334,1.0479 3.334,2.5848 0,1.6618 -1.546,2.9236 -4.312,2.9236 -3.171,0 -4.839,-1.1611 -5.045,-3.8015 h -4.472 c 0,4.7513 3.254,7.5243 9.11,7.5243 5.942,0 9.274,-2.7572 9.274,-7.1745 0,-3.9273 -2.317,-5.3079 -6.873,-6.3629 z m 67.029,4.7379 c 0,3.0384 -2.543,5.064 -5.8,5.064 -2.236,0 -3.466,-1.1353 -3.466,-3.0782 0,-1.7414 0.971,-2.7924 3.087,-3.1994 2.114,-0.4073 4.324,-0.4846 6.179,-1.4592 z M 372.715,75.619 c -5.533,0 -8.699,2.7123 -8.699,6.8853 v 0.4856 h 4.243 v -0.2848 c 0,-2.143 1.473,-3.359 4.279,-3.359 2.971,0 4.378,0.9301 4.378,2.9955 0,1.9861 -0.984,2.0253 -4.765,2.5136 -5.735,0.7249 -9.114,2.1032 -9.114,7.1671 0,3.8868 2.52,6.3193 6.912,6.3193 2.804,0 5.369,-1.2587 7.119,-3.5243 0.039,2.1882 1.29,3.2382 4.056,3.2382 0.057,0 0.124,-0.0047 0.124,-0.0047 V 81.938 c 0,-4.1723 -2.84,-6.319 -8.533,-6.319 z m 35.087,20.4313 c -0.529,0.1664 -1.451,0.3474 -2.067,0.3474 -1.53,0 -1.643,-0.9605 -1.643,-2.4235 V 79.0285 h 3.71 v -1.5818 h -3.71 v -7.9188 h -2.12 v 24.4463 c 0,2.9939 0.717,4.0046 3.076,4.0046 0.831,0 1.694,-0.1365 2.754,-0.3969 z M 393.32,86.6136 c -0.379,-0.0927 -0.742,-0.1723 -1.092,-0.2563 -3.634,-0.8458 -5.828,-1.3505 -5.828,-4.268 0,-2.2355 1.898,-3.6633 4.84,-3.6633 3.328,0 5.353,1.6588 5.588,4.5639 h 2.108 c -0.35,-3.9614 -3.129,-6.3046 -7.656,-6.3046 -4.182,0 -6.991,2.2957 -6.991,5.746 0,3.4062 2.27,4.5344 7.355,5.7598 l 0.115,0.0411 c 3.639,0.8649 5.644,1.3686 5.644,4.0445 0,2.5031 -2.264,4.1709 -5.761,4.1709 -3.13,0 -5.533,-2.1099 -5.676,-4.7493 h -2.109 c 0.207,3.9594 3.289,6.486 7.905,6.486 4.634,0 7.751,-2.3773 7.751,-5.844 0,-3.0732 -1.624,-4.6108 -6.193,-5.7267 z"
       fill="#000000"
       id="path88" />
    <path
       d="m 488.547,78.9978 c 0.429,0 0.853,-0.0147 0.853,-0.495 0,-0.3932 -0.331,-0.486 -0.676,-0.486 h -0.64 v 0.981 z m -0.463,1.55 h -0.348 V 77.721 h 1.09 c 0.64,0 0.922,0.2758 0.922,0.7818 0,0.5007 -0.327,0.7236 -0.712,0.7902 l 0.846,1.2548 h -0.41 l -0.799,-1.2548 h -0.589 z m -1.531,-1.4138 c 0,1.1715 0.885,2.0986 2.073,2.0986 1.189,0 2.074,-0.9271 2.074,-2.0986 0,-1.1694 -0.885,-2.0955 -2.074,-2.0955 -1.188,0 -2.073,0.9261 -2.073,2.0955 z m 4.531,0 c 0,1.376 -1.069,2.4463 -2.458,2.4463 -1.387,0 -2.458,-1.0703 -2.458,-2.4463 0,-1.3742 1.071,-2.4459 2.458,-2.4459 1.389,0 2.458,1.0717 2.458,2.4459 z"
       fill="#000000"
       id="path90" />
  </g>
  <defs
     id="defs103">
    <clipPath
       id="clip0">
      <rect
         width="140"
         height="34.8499"
         fill="white"
         id="rect94" />
    </clipPath>
    <clipPath
       id="clip1">
      <rect
         width="84.4526"
         height="34"
         fill="white"
         transform="translate(486 2)"
         id="rect97" />
    </clipPath>
    <clipPath
       id="clip2">
      <rect
         width="193.109"
         height="29.8714"
         fill="white"
         transform="translate(298.031 68.687)"
         id="rect100" />
    </clipPath>
  </defs>
</svg>
