<?xml version="1.0" encoding="UTF-8" standalone="no"?>
<!-- Created with Inkscape (http://www.inkscape.org/) -->

<svg
   xmlns:dc="http://purl.org/dc/elements/1.1/"
   xmlns:cc="http://creativecommons.org/ns#"
   xmlns:rdf="http://www.w3.org/1999/02/22-rdf-syntax-ns#"
   xmlns:svg="http://www.w3.org/2000/svg"
   xmlns="http://www.w3.org/2000/svg"
   xmlns:sodipodi="http://sodipodi.sourceforge.net/DTD/sodipodi-0.dtd"
   xmlns:inkscape="http://www.inkscape.org/namespaces/inkscape"
   width="95mm"
   height="40mm"
   viewBox="0 0 95 40"
   version="1.1"
   id="svg8"
   inkscape:version="0.92.3 (2405546, 2018-03-11)"
   sodipodi:docname="LBSIMMO2013.svg">
  <defs
     id="defs2" />
  <sodipodi:namedview
     id="base"
     pagecolor="#ffffff"
     bordercolor="#666666"
     borderopacity="1.0"
     inkscape:pageopacity="0.0"
     inkscape:pageshadow="2"
     inkscape:zoom="1"
     inkscape:cx="-118.29526"
     inkscape:cy="266.2365"
     inkscape:document-units="mm"
     inkscape:current-layer="layer1"
     showgrid="false"
     inkscape:window-width="1920"
     inkscape:window-height="1018"
     inkscape:window-x="-8"
     inkscape:window-y="-8"
     inkscape:window-maximized="1" />
  <metadata
     id="metadata5">
    <rdf:RDF>
      <cc:Work
         rdf:about="">
        <dc:format>image/svg+xml</dc:format>
        <dc:type
           rdf:resource="http://purl.org/dc/dcmitype/StillImage" />
        <dc:title></dc:title>
      </cc:Work>
    </rdf:RDF>
  </metadata>
  <g
     inkscape:label="Layer 1"
     inkscape:groupmode="layer"
     id="layer1"
     transform="translate(0,-257)">
    <path
       style="fill:#e2011f;fill-opacity:1;stroke-width:1"
       d="m 13.019834,292.2219 v -2.26027 h 0.651999 0.651999 v 2.26027 2.26026 h -0.651999 -0.651999 z m 2.347196,0 v -2.26027 h 0.90164 0.901641 l 0.280888,1.06493 c 0.154488,0.58571 0.309396,1.11675 0.344236,1.18007 0.03836,0.0697 0.124864,-0.11887 0.219306,-0.47813 0.08578,-0.32631 0.223445,-0.84756 0.30593,-1.15834 l 0.149973,-0.56506 0.882322,-0.0248 0.882323,-0.0247 v 2.2633 2.26331 h -0.606614 -0.606614 l -0.02365,-1.63 -0.02365,-1.63 -0.242931,0.95626 c -0.133612,0.52596 -0.323717,1.25945 -0.422456,1.63 l -0.179526,0.67374 H 17.714229 17.29861 l -0.179157,-0.67374 c -0.09854,-0.37055 -0.295641,-1.10404 -0.43801,-1.63 l -0.258853,-0.95626 -0.0062,1.63 -0.0062,1.63 h -0.521599 -0.521599 z m 5.998391,0 v -2.26027 h 0.892833 0.892832 l 0.300731,1.17359 c 0.165403,0.64548 0.322554,1.1736 0.349225,1.1736 0.02668,0 0.17818,-0.52812 0.336688,-1.1736 l 0.288192,-1.17359 h 0.903879 0.903878 v 2.26027 2.26026 h -0.608531 -0.608533 v -1.58219 c 0,-0.87775 -0.03296,-1.54542 -0.07404,-1.49959 -0.04072,0.0454 -0.245535,0.75912 -0.455146,1.58601 l -0.38111,1.50343 -0.430281,-0.0256 -0.430279,-0.0256 -0.398052,-1.53703 c -0.218928,-0.84537 -0.426845,-1.56584 -0.462037,-1.60102 -0.03519,-0.0352 -0.06399,0.66625 -0.06399,1.55876 v 1.62276 h -0.478131 -0.478133 z m 6.918771,2.08359 c -0.464128,-0.2316 -0.593723,-0.3622 -0.883304,-0.89018 -0.215098,-0.39217 -0.249506,-0.54983 -0.250974,-1.14995 -0.002,-0.80862 0.128027,-1.24361 0.497402,-1.66431 0.437595,-0.4984 0.876271,-0.68051 1.629026,-0.67629 0.995076,0.005 1.539071,0.34595 1.916442,1.19907 0.215526,0.48723 0.256593,1.36164 0.09161,1.95058 -0.129588,0.4626 -0.632902,1.03499 -1.095256,1.24556 -0.483384,0.22015 -1.449471,0.21281 -1.904948,-0.0145 z m 1.380337,-0.98602 c 0.356991,-0.357 0.409472,-1.62185 0.08767,-2.11298 -0.301406,-0.46001 -0.827508,-0.39476 -1.046684,0.1298 -0.165463,0.39601 -0.16207,1.43039 0.0058,1.75493 0.241426,0.46686 0.62322,0.55829 0.953255,0.22825 z m 2.567541,-1.08864 v -2.2692 h 1.351781 c 1.463616,0 1.689475,0.054 2.028653,0.48522 0.38892,0.49443 0.266554,1.25438 -0.239022,1.56115 l -0.214926,0.10737 0.273948,0.14166 c 0.75604,0.39097 0.68149,1.64168 -0.122124,2.04912 -0.182399,0.0925 -0.647117,0.13742 -1.665645,0.16107 l -1.412665,0.0327 z m 2.309734,1.11621 c 0.178639,-0.14825 0.153374,-0.49499 -0.04375,-0.6005 -0.09248,-0.0495 -0.366322,-0.0899 -0.608532,-0.0899 h -0.440381 v 0.44683 0.44683 l 0.484137,-0.05 c 0.266275,-0.0275 0.540114,-0.0964 0.608532,-0.15321 z m -0.09914,-1.78336 c 0.162697,-0.1627 0.17254,-0.38881 0.02816,-0.53319 -0.05738,-0.0574 -0.307521,-0.11259 -0.560931,-0.11259 h -0.460746 v 0.3912 0.3912 h 0.428456 c 0.273595,0 0.477833,-0.0494 0.565065,-0.13662 z m 2.4838,0.65822 v -2.26027 h 0.652 0.652 v 2.26027 2.26026 h -0.652 -0.652 z m 2.3472,0 v -2.26027 h 0.69546 0.69546 v 1.69519 1.6952 h 0.86934 0.86933 v 0.56507 0.56507 h -1.5648 -1.56479 z m 3.91199,0 v -2.26027 h 0.652 0.652 v 2.26027 2.26026 h -0.652 -0.652 z m 2.3472,0 v -2.26027 h 1.65172 1.65174 v 0.47813 0.47814 h -0.99974 -0.99972 v 0.3912 0.3912 h 0.82587 0.82586 v 0.47812 0.47814 h -0.82586 -0.82587 v 0.3912 0.3912 h 0.99972 0.99974 v 0.5216 0.5216 h -1.65174 -1.65172 z m 4.25972,-0.004 v -2.26392 l 0.66143,0.0254 0.66144,0.0254 0.67316,1.1129 c 0.37023,0.6121 0.70906,1.14882 0.75297,1.19274 0.0485,0.0485 0.0667,-0.39696 0.0465,-1.13463 l -0.0334,-1.21448 h 0.53147 0.53146 v 2.26027 2.26026 l -0.54333,-0.002 -0.54334,-0.002 -0.56506,-0.92601 c -0.31078,-0.50931 -0.68536,-1.1586 -0.83238,-1.44289 l -0.26731,-0.51687 0.0395,1.44483 0.0395,1.44482 h -0.57635 -0.57636 v -2.26392 z m -4.47705,-4.57832 c -2.16478,-0.2938 -3.90286,-1.27219 -4.89489,-2.7554 -0.37977,-0.56778 -0.96695,-1.91266 -0.87517,-2.00445 0.0286,-0.0286 4.341682,-0.83245 4.466982,-0.83245 0.019,0 0,0 0.253168,0.47528 0.26396,0.53953 0.69105,0.94971 1.26283,1.21283 0.33128,0.15246 0.598659,0.34926 1.472219,0.35009 0.92198,8.9e-4 1.094892,-0.14748 1.424512,-0.32343 0.526812,-0.36435 0.661809,-1.0389 0.111649,-1.52196 -0.36233,-0.31813 -0.54498,-0.37821 -2.17235,-0.71464 -2.39318,-0.49472 -3.72882,-1.02911 -4.62937,-1.85217 -0.99734,-0.9115 -1.3568,-1.75266 -1.36175,-3.18663 -0.008,-2.46431 1.46148,-4.28761 3.99219,-4.95168 2.20673,-0.57903 4.64938,-0.37618 6.40276,0.53175 0.97075,0.50265 1.90118,1.42638 2.34876,2.33181 0.1768,0.35766 0.29329,0.67379 0.25889,0.70251 -0.0901,0.0753 -3.93353,1.23984 -3.96309,1.20088 -0.0137,-0.018 -0.11064,-0.17552 -0.21561,-0.3502 -0.4798,-0.79841 -1.26921,-1.20374 -2.34436,-1.20374 -0.73154,0 -1.19322,0.14484 -1.45559,0.45665 -0.44804,0.53246 -0.14824,1.23329 0.63799,1.49141 0.2257,0.0741 1.0754,0.27165 1.88823,0.43901 2.54795,0.52462 3.60768,0.94957 4.54348,1.82194 0.91961,0.85727 1.30639,1.7221 1.38351,3.09339 0.0998,1.77494 -0.57766,3.19836 -2.00274,4.20803 -0.96191,0.68152 -2.0089,1.0858 -3.40265,1.31389 -0.7122,0.11655 -2.48569,0.15468 -3.1296,0.0673 z m -32.295683,-8.1972 v -7.99785 h 2.433539 2.433538 l 0.02232,6.06358 0.02232,6.06359 3.151327,0.0228 3.151329,0.0228 v 1.91145 1.91144 h -5.607191 -5.607191 z m 12.344514,0 v -7.99785 l 4.455326,0.003 c 4.809777,0.003 5.315057,0.0404 6.256553,0.4593 0.89814,0.39962 1.69778,1.31197 2.07722,2.37001 0.26381,0.73557 0.26197,1.97552 -0.004,2.66636 -0.35876,0.93209 -1.144873,1.82683 -2.067292,2.07964 -0.44381,0.15122 -0.42166,0.0591 0.14044,0.21902 0.98934,0.28141 1.691262,0.97407 2.158002,1.91887 0.276667,0.67817 0.469937,0.76795 0.469287,1.85495 -0.06734,0.942 -0.133426,1.09344 -0.27969,1.59964 -0.54975,1.59719 -1.692727,2.44094 -3.512842,2.73859 -0.293845,0.048 -2.523932,0.0855 -5.107324,0.0858 l -4.585729,5.1e-4 z m 7.884693,4.32294 c 0.813608,-0.43883 1.048071,-1.48759 0.482764,-2.15942 -0.431385,-0.51267 -0.759877,-0.59467 -2.3908,-0.59682 l -1.456132,-0.002 v 1.4863 1.48631 l 1.543065,-0.0322 c 1.251998,-0.0262 1.595511,-0.0606 1.821103,-0.18222 z m -0.236297,-6.34413 c 0.946228,-0.48344 0.972851,-1.87401 0.04519,-2.36045 -0.303032,-0.15892 -0.52933,-0.18611 -1.760398,-0.21157 l -1.412665,-0.0292 v 1.39841 1.39842 h 1.372512 c 1.251952,0 1.406138,-0.0172 1.755359,-0.1956 z m 25.365093,-6.15839 c -8.23641,-5.72156 -14.9433,-8.37777 -22.79884,-9.0293 -8.873946,-0.73599 -17.547472,0.9722 -25.775692,5.07638 -2.629104,1.31137 -5.197916,2.86447 -7.247826,4.38201 -1.137999,0.84247 -1.151109,0.8315 -0.184962,-0.1547 4.5666,-4.66141 11.982504,-8.69666 19.473035,-10.59597 3.976967,-1.0084 7.436294,-1.43958 11.562114,-1.44113 2.645761,-10e-4 3.932551,0.0863 6.302661,0.42733 6.94867,0.99999 14.19184,3.80557 19.355746,7.49726 0.66076,0.47237 1.06297,0.70775 1.12825,0.66025 1.47483,-1.07319 3.8078,-2.50883 5.60306,-3.44796 4.33457,-2.26748 8.21279,-3.60108 12.33934,-4.24312 1.48011,-0.23029 5.62529,-0.32505 7.40426,-0.16927 2.27689,0.19939 4.2033,0.58263 5.64541,1.12312 0.66498,0.24923 2.20358,1.04335 2.14158,1.10535 -0.0182,0.0182 -0.56831,-0.10186 -1.22257,-0.26663 -1.9768,-0.49793 -3.30185,-0.66183 -5.77565,-0.71443 -5.45433,-0.11597 -9.65531,0.83388 -14.57527,3.29551 -3.30643,1.65432 -7.27416,4.20839 -10.44155,6.72133 l -1.21735,0.96583 z"
       id="path4758"
       inkscape:connector-curvature="0"
       sodipodi:nodetypes="cccccccccccccscscccccccccccccccccccccccccccssccccccccscscccccscccccccsccccccccccccccsccccccccccscccsccccscccscccccccccccccccccccccccccccccccccccccccccccccccccccccccccccccccccccccccccccccccccccsccccccccccccccsccscccccccccccccccccccccccccccccccccccccccccccccccccscccsccccccccscccscssccc" />
  </g>
</svg>
