<?xml version="1.0" encoding="UTF-8" standalone="no"?>
<svg
   xmlns:dc="http://purl.org/dc/elements/1.1/"
   xmlns:cc="http://creativecommons.org/ns#"
   xmlns:rdf="http://www.w3.org/1999/02/22-rdf-syntax-ns#"
   xmlns:svg="http://www.w3.org/2000/svg"
   xmlns="http://www.w3.org/2000/svg"
   xmlns:sodipodi="http://sodipodi.sourceforge.net/DTD/sodipodi-0.dtd"
   xmlns:inkscape="http://www.inkscape.org/namespaces/inkscape"
   version="1.1"
   x="0px"
   y="0px"
   width="190"
   height="36.969002"
   viewBox="-0.163 -0.772 190 36.969002"
   enable-background="new -0.163 -0.772 191 186"
   xml:space="preserve"
   id="svg18"
   sodipodi:docname="logo-bunzl.svg"
   inkscape:version="1.0.1 (3bc2e813f5, 2020-09-07)"><metadata
   id="metadata22"><rdf:RDF><cc:Work
       rdf:about=""><dc:format>image/svg+xml</dc:format><dc:type
         rdf:resource="http://purl.org/dc/dcmitype/StillImage" /></cc:Work></rdf:RDF></metadata><sodipodi:namedview
   pagecolor="#ffffff"
   bordercolor="#666666"
   borderopacity="1"
   objecttolerance="10"
   gridtolerance="10"
   guidetolerance="10"
   inkscape:pageopacity="0"
   inkscape:pageshadow="2"
   inkscape:window-width="1575"
   inkscape:window-height="1026"
   id="namedview20"
   showgrid="false"
   inkscape:zoom="3.844086"
   inkscape:cx="95.337"
   inkscape:cy="17.846"
   inkscape:window-x="345"
   inkscape:window-y="-30"
   inkscape:window-maximized="0"
   inkscape:current-layer="svg18" />
<defs
   id="defs2">
</defs>


<path
   fill="#183a5c"
   d="m 22.888,23.937 c 0,-3.252 -4.109,-3.021 -6.671,-3.021 h -1.544 v 6.035 h 1.824 c 2.626,0 6.391,0.523 6.391,-3.014 M 21.12,10.542 C 20.667,7.809 18.152,8.046 15.757,8.046 h -1.084 v 5.235 h 1.483 c 2.282,10e-4 5.366,-0.189 4.964,-2.739 z m 16.657,15.095 c 0,7.494 -8.385,10.041 -16.143,10.041 H -0.163 v -36.4 h 18.601 c 8.506,0 17.23,1.648 17.23,10.087 0,3.161 -1.88,6.269 -5.765,7.309 v 0.282 c 4.799,1.419 7.874,4.294 7.874,8.681 z"
   id="path8" />
<path
   fill="#183a5c"
   d="m 77.075,20.73 c 0,10.654 -7.569,15.467 -19.022,15.467 -11.562,0 -19.076,-4.813 -19.076,-15.467 V -0.772 h 14.92 v 20.28 c 0,2.875 0.104,5.371 4.156,5.371 3.943,0 4.051,-2.496 4.051,-5.371 V -0.772 H 77.075 V 20.73"
   id="path10" />
<polyline
   fill="#183a5c"
   points="121.191,110.832 106.486,110.832 93.382,92.723 93.382,110.832 78.674,110.832 78.674,74.382 93.382,74.382 106.434,92.68 106.486,74.382 121.191,74.382 121.191,110.832"
   id="polyline12"
   transform="translate(-0.163,-75.154)" />
<path
   fill="#183a5c"
   d="m 161.258,-0.722 -17.85,25.177 h 16.52 v 11.223 h -40.494 c 0,0 17.21,-24.474 18.539,-25.933 H 123.001 V -0.722 h 38.257"
   id="path14" />
<polyline
   fill="#183a5c"
   points="190,110.832 162.703,110.832 162.703,74.432 177.482,74.432 177.482,99.138 190,99.138 190,110.832"
   id="polyline16"
   transform="translate(-0.163,-75.154)" />
</svg>
