<svg width="173" height="66" viewBox="0 0 173 66" fill="none" xmlns="http://www.w3.org/2000/svg">
<path fill-rule="evenodd" clip-rule="evenodd" d="M72.2209 60.7813C72.2209 59.4812 70.2766 59.8263 70.2766 58.8712C70.2766 58.4461 70.5996 58.1627 71.2084 58.1627C71.4506 58.1627 71.7302 58.2058 71.9662 58.2735L71.9911 57.8484C71.7426 57.7991 71.5003 57.7683 71.2394 57.7683C70.3201 57.7683 69.7859 58.2612 69.7859 58.9205C69.7859 60.2329 71.7302 59.8571 71.7302 60.8429C71.7302 61.4097 71.2767 61.6254 70.7363 61.6254C70.4443 61.6254 70.1213 61.5576 69.8791 61.4714L69.8542 61.9335C70.0841 61.9961 70.3822 62.0392 70.6928 62.0392C71.6432 62.0392 72.2209 61.5145 72.2209 60.7813ZM74.9775 60.35C74.9775 61.2742 74.5613 61.6562 73.9215 61.6562C73.6917 61.6562 73.4991 61.6316 73.319 61.5761V60.504C73.319 59.9618 73.6171 59.247 74.2383 59.247C74.7477 59.247 74.9775 59.6599 74.9775 60.35ZM75.4682 60.313C75.4682 59.3641 75.0583 58.865 74.3315 58.865C73.8408 58.865 73.4494 59.1485 73.2755 59.5921L73.2631 59.5859C73.3003 59.4073 73.3128 59.1053 73.3128 58.9205H72.8531V63.518H73.319V61.9766C73.524 62.0146 73.6793 62.0208 73.8905 62.0208C74.8657 62.0208 75.4682 61.4097 75.4682 60.313ZM77.7514 60.5964C77.7514 61.1263 77.3912 61.6624 76.8445 61.6624C76.5402 61.6624 76.3413 61.4837 76.3413 61.2064C76.3413 60.9106 76.5899 60.5471 77.7514 60.5471V60.5964ZM78.236 61.9827C78.2235 61.7117 78.2235 61.3666 78.2235 61.0647V59.8632C78.2235 59.2841 77.9813 58.865 77.1303 58.865C76.7141 58.865 76.3538 58.9636 76.0618 59.093L76.1053 59.4997C76.3787 59.3272 76.7514 59.2348 77.0495 59.2348C77.5837 59.2348 77.7514 59.4935 77.7514 59.9556V60.2083C76.5463 60.2083 75.8755 60.6519 75.8755 61.2927C75.8755 61.7795 76.2296 62.0392 76.7203 62.0392C77.2483 62.0392 77.6458 61.724 77.7949 61.3358H77.8074C77.7763 61.5145 77.7763 61.7486 77.7763 61.9827H78.236ZM80.6657 58.865C80.0197 58.7911 79.6966 59.247 79.5724 59.6968L79.5662 59.6907C79.6096 59.4258 79.6345 59.1238 79.6345 58.9205H79.1748V61.9827H79.6407V60.7567C79.6407 59.7276 79.9638 59.2101 80.647 59.321L80.6657 58.865ZM83.4719 61.9827L82.1488 60.313L83.3787 58.9205H82.8135L81.6518 60.2945V57.4849H81.1859V61.9827H81.6518V60.3746L82.8694 61.9827H83.4719ZM85.7309 60.5964C85.7309 61.1263 85.3706 61.6624 84.8239 61.6624C84.5196 61.6624 84.3208 61.4837 84.3208 61.2064C84.3208 60.9106 84.5693 60.5471 85.7309 60.5471V60.5964ZM86.2154 61.9827C86.2029 61.7117 86.2029 61.3666 86.2029 61.0647V59.8632C86.2029 59.2841 85.9607 58.865 85.1097 58.865C84.6935 58.865 84.3332 58.9636 84.0412 59.093L84.0848 59.4997C84.3581 59.3272 84.7308 59.2348 85.0289 59.2348C85.5632 59.2348 85.7309 59.4935 85.7309 59.9556V60.2083C84.5258 60.2083 83.8549 60.6519 83.8549 61.2927C83.8549 61.7795 84.209 62.0392 84.6997 62.0392C85.2277 62.0392 85.6253 61.724 85.7744 61.3358H85.7868C85.7557 61.5145 85.7557 61.7486 85.7557 61.9827H86.2154ZM88.8515 61.0709C88.8515 60.0296 87.3421 60.4486 87.3421 59.7153C87.3421 59.4134 87.5657 59.2286 88.0191 59.2286C88.2304 59.2286 88.4539 59.2655 88.6589 59.3333L88.6714 58.9328C88.4788 58.8959 88.2614 58.865 88.0688 58.865C87.2861 58.865 86.8637 59.2532 86.8637 59.7646C86.8637 60.8552 88.367 60.3931 88.367 61.1325C88.367 61.4529 88.0564 61.65 87.6092 61.65C87.3669 61.65 87.1184 61.6069 86.9196 61.5515L86.9072 61.9766C87.0936 62.0146 87.3296 62.0392 87.5595 62.0392C88.367 62.0392 88.8515 61.6131 88.8515 61.0709ZM91.3221 61.0709C91.3221 60.0296 89.8127 60.4486 89.8127 59.7153C89.8127 59.4134 90.0362 59.2286 90.4897 59.2286C90.7009 59.2286 90.9245 59.2655 91.1295 59.3333L91.142 58.9328C90.9494 58.8959 90.7319 58.865 90.5394 58.865C89.7567 58.865 89.3343 59.2532 89.3343 59.7646C89.3343 60.8552 90.8375 60.3931 90.8375 61.1325C90.8375 61.4529 90.527 61.65 90.0797 61.65C89.8375 61.65 89.589 61.6069 89.3902 61.5515L89.3778 61.9766C89.5641 62.0146 89.8002 62.0392 90.03 62.0392C90.8375 62.0392 91.3221 61.6131 91.3221 61.0709ZM93.8175 60.0111H92.2521C92.3266 59.5305 92.6372 59.2163 93.072 59.2163C93.5441 59.2163 93.8298 59.5366 93.8175 60.0111ZM94.3019 60.1281C94.3019 59.4504 93.9479 58.865 93.0969 58.865C92.2396 58.865 91.7427 59.549 91.7427 60.467C91.7427 61.5392 92.2396 62.0392 93.1714 62.0392C93.5566 62.0392 93.9044 61.9705 94.1901 61.8534L94.1466 61.459C93.9168 61.5761 93.5752 61.6562 93.2522 61.6562C92.5627 61.6562 92.1962 61.2742 92.2272 60.3561H94.2896C94.3019 60.2637 94.3019 60.1836 94.3019 60.1281ZM97.437 61.9827V59.8447C97.437 59.3025 97.2197 58.8589 96.5115 58.8589C95.9711 58.8589 95.5797 59.1608 95.4058 59.6044L95.3934 59.5983C95.4244 59.4134 95.4431 59.1177 95.4431 58.9205H94.9834V61.9827H95.4493V60.5101C95.4493 59.7831 95.8406 59.2409 96.3934 59.2409C96.8407 59.2409 96.9711 59.5182 96.9711 59.9988V61.9827H97.437ZM26.1444 60.7689C26.1444 61.2557 25.8214 61.6192 25.0823 61.6192C24.8089 61.6192 24.6225 61.6007 24.5108 61.5823V60.0173C24.6102 60.0111 24.84 60.0111 24.9145 60.0111C25.604 60.0111 26.1444 60.1836 26.1444 60.7689ZM26.0451 58.8712C26.0451 59.3641 25.6537 59.6537 24.9083 59.6537C24.7468 59.6537 24.6412 59.6537 24.5108 59.6476V58.1996C24.6909 58.1935 24.9083 58.1873 25.1133 58.1873C25.8525 58.1873 26.0451 58.4769 26.0451 58.8712ZM26.6414 60.7567C26.6414 60.313 26.3743 59.8817 25.7531 59.7893V59.777C26.2252 59.6414 26.542 59.247 26.542 58.7911C26.542 58.1873 26.1134 57.8053 25.2002 57.8053C24.6971 57.8053 24.3182 57.8176 24.0324 57.8237V61.9827C24.3927 61.9899 24.7903 62.0023 25.0449 62.0023C26.368 62.0023 26.6414 61.2064 26.6414 60.7567ZM28.9748 60.5964C28.9748 61.1263 28.6145 61.6624 28.0678 61.6624C27.7635 61.6624 27.5647 61.4837 27.5647 61.2064C27.5647 60.9106 27.8132 60.5471 28.9748 60.5471V60.5964ZM29.4593 61.9827C29.4468 61.7117 29.4468 61.3666 29.4468 61.0647V59.8632C29.4468 59.2841 29.2046 58.865 28.3536 58.865C27.9374 58.865 27.5771 58.9636 27.2851 59.093L27.3287 59.4997C27.602 59.3272 27.9747 59.2348 28.2728 59.2348C28.8071 59.2348 28.9748 59.4935 28.9748 59.9556V60.2083C27.7697 60.2083 27.0988 60.6519 27.0988 61.2927C27.0988 61.7795 27.4529 62.0392 27.9436 62.0392C28.4716 62.0392 28.8692 61.724 29.0183 61.3358H29.0307C28.9996 61.5145 28.9996 61.7486 28.9996 61.9827H29.4593ZM32.733 61.9827V58.9205H32.2671V60.3931C32.2671 61.1202 31.8758 61.6624 31.3229 61.6624C30.8757 61.6624 30.7452 61.3851 30.7452 60.9045V58.9205H30.2793V61.0585C30.2793 61.6007 30.4968 62.0454 31.2049 62.0454C31.7453 62.0454 32.1367 61.7425 32.3106 61.2988L32.323 61.305C32.292 61.4899 32.2733 61.7856 32.2733 61.9827H32.733ZM35.4278 61.0709C35.4278 60.0296 33.9184 60.4486 33.9184 59.7153C33.9184 59.4134 34.1419 59.2286 34.5954 59.2286C34.8066 59.2286 35.0302 59.2655 35.2352 59.3333L35.2477 58.9328C35.0551 58.8959 34.8377 58.865 34.6451 58.865C33.8624 58.865 33.44 59.2532 33.44 59.7646C33.44 60.8552 34.9433 60.3931 34.9433 61.1325C34.9433 61.4529 34.6327 61.65 34.1854 61.65C33.9432 61.65 33.6947 61.6069 33.4959 61.5515L33.4835 61.9766C33.6698 62.0146 33.9059 62.0392 34.1357 62.0392C34.9433 62.0392 35.4278 61.6131 35.4278 61.0709ZM38.2649 60.35C38.2649 61.2742 37.8487 61.6562 37.209 61.6562C36.9791 61.6562 36.7865 61.6316 36.6064 61.5761V60.504C36.6064 59.9618 36.9045 59.247 37.5257 59.247C38.0351 59.247 38.2649 59.6599 38.2649 60.35ZM38.7556 60.313C38.7556 59.3641 38.3457 58.865 37.6189 58.865C37.1282 58.865 36.7369 59.1485 36.5629 59.5921L36.5505 59.5859C36.5877 59.4073 36.6002 59.1053 36.6002 58.9205H36.1405V63.518H36.6064V61.9766C36.8114 62.0146 36.9667 62.0208 37.1779 62.0208C38.1531 62.0208 38.7556 61.4097 38.7556 60.313ZM41.0515 60.5964C41.0515 61.1263 40.6912 61.6624 40.1446 61.6624C39.8402 61.6624 39.6414 61.4837 39.6414 61.2064C39.6414 60.9106 39.8899 60.5471 41.0515 60.5471V60.5964ZM41.536 61.9827C41.5236 61.7117 41.5236 61.3666 41.5236 61.0647V59.8632C41.5236 59.2841 41.2813 58.865 40.4303 58.865C40.0141 58.865 39.6538 58.9636 39.3619 59.093L39.4054 59.4997C39.6787 59.3272 40.0514 59.2348 40.3496 59.2348C40.8838 59.2348 41.0515 59.4935 41.0515 59.9556V60.2083C39.8464 60.2083 39.1756 60.6519 39.1756 61.2927C39.1756 61.7795 39.5296 62.0392 40.0203 62.0392C40.5483 62.0392 40.9459 61.724 41.095 61.3358H41.1074C41.0764 61.5145 41.0764 61.7486 41.0764 61.9827H41.536ZM43.8293 58.865C43.1833 58.7911 42.8603 59.247 42.736 59.6968L42.7298 59.6907C42.7733 59.4258 42.7982 59.1238 42.7982 58.9205H42.3385V61.9827H42.8044V60.7567C42.8044 59.7276 43.1274 59.2101 43.8107 59.321L43.8293 58.865ZM46.6888 61.9827L45.3657 60.313L46.5956 58.9205H46.0304L44.8687 60.2945V57.4849H44.4028V61.9827H44.8687V60.3746L46.0862 61.9827H46.6888ZM48.8904 60.5964C48.8904 61.1263 48.5301 61.6624 47.9835 61.6624C47.6791 61.6624 47.4803 61.4837 47.4803 61.2064C47.4803 60.9106 47.7288 60.5471 48.8904 60.5471V60.5964ZM49.3749 61.9827C49.3625 61.7117 49.3625 61.3666 49.3625 61.0647V59.8632C49.3625 59.2841 49.1202 58.865 48.2692 58.865C47.853 58.865 47.4927 58.9636 47.2008 59.093L47.2443 59.4997C47.5176 59.3272 47.8903 59.2348 48.1885 59.2348C48.7227 59.2348 48.8904 59.4935 48.8904 59.9556V60.2083C47.6853 60.2083 47.0145 60.6519 47.0145 61.2927C47.0145 61.7795 47.3685 62.0392 47.8592 62.0392C48.3872 62.0392 48.7848 61.724 48.9339 61.3358H48.9463C48.9153 61.5145 48.9153 61.7486 48.9153 61.9827H49.3749ZM52.0757 61.0709C52.0757 60.0296 50.5663 60.4486 50.5663 59.7153C50.5663 59.4134 50.7898 59.2286 51.2433 59.2286C51.4546 59.2286 51.6781 59.2655 51.8831 59.3333L51.8956 58.9328C51.703 58.8959 51.4856 58.865 51.293 58.865C50.5103 58.865 50.0879 59.2532 50.0879 59.7646C50.0879 60.8552 51.5912 60.3931 51.5912 61.1325C51.5912 61.4529 51.2806 61.65 50.8334 61.65C50.5911 61.65 50.3426 61.6069 50.1438 61.5515L50.1315 61.9766C50.3178 62.0146 50.5538 62.0392 50.7837 62.0392C51.5912 62.0392 52.0757 61.6131 52.0757 61.0709ZM54.4844 61.0709C54.4844 60.0296 52.975 60.4486 52.975 59.7153C52.975 59.4134 53.1985 59.2286 53.652 59.2286C53.8633 59.2286 54.0868 59.2655 54.2918 59.3333L54.3043 58.9328C54.1117 58.8959 53.8943 58.865 53.7017 58.865C52.919 58.865 52.4966 59.2532 52.4966 59.7646C52.4966 60.8552 53.9999 60.3931 53.9999 61.1325C53.9999 61.4529 53.6893 61.65 53.2421 61.65C52.9998 61.65 52.7513 61.6069 52.5525 61.5515L52.5401 61.9766C52.7264 62.0146 52.9625 62.0392 53.1924 62.0392C53.9999 62.0392 54.4844 61.6131 54.4844 61.0709ZM57.039 60.0111H55.4736C55.5481 59.5305 55.8587 59.2163 56.2936 59.2163C56.7657 59.2163 57.0514 59.5366 57.039 60.0111ZM57.5235 60.1281C57.5235 59.4504 57.1694 58.865 56.3184 58.865C55.4612 58.865 54.9643 59.549 54.9643 60.467C54.9643 61.5392 55.4612 62.0392 56.393 62.0392C56.7781 62.0392 57.126 61.9705 57.4117 61.8534L57.3682 61.459C57.1383 61.5761 56.7967 61.6562 56.4737 61.6562C55.7842 61.6562 55.4177 61.2742 55.4487 60.3561H57.5111C57.5235 60.2637 57.5235 60.1836 57.5235 60.1281ZM61.8565 60.3993C61.8565 60.9415 61.5522 61.6562 60.9372 61.6562C60.4278 61.6562 60.1918 61.2434 60.1918 60.5533C60.1918 59.629 60.6142 59.247 61.2478 59.247C61.4466 59.247 61.6453 59.2717 61.8565 59.321V60.3993ZM62.3162 61.9827V57.4849H61.8565V58.9143C61.6453 58.8959 61.4652 58.8835 61.285 58.8835C60.3222 58.8835 59.7011 59.4997 59.7011 60.5903C59.7011 61.4837 60.0738 62.0392 60.8378 62.0392C61.3347 62.0392 61.7261 61.7486 61.9 61.3112L61.9124 61.3173C61.8752 61.5022 61.8565 61.7979 61.8565 61.9827H62.3162ZM65.0456 60.0111H63.4802C63.5547 59.5305 63.8653 59.2163 64.3001 59.2163C64.7722 59.2163 65.058 59.5366 65.0456 60.0111ZM65.53 60.1281C65.53 59.4504 65.176 58.865 64.325 58.865C63.4678 58.865 62.9708 59.549 62.9708 60.467C62.9708 61.5392 63.4678 62.0392 64.3996 62.0392C64.7847 62.0392 65.1325 61.9705 65.4183 61.8534L65.3747 61.459C65.1449 61.5761 64.8033 61.6562 64.4803 61.6562C63.7908 61.6562 63.4243 61.2742 63.4553 60.3561H65.5177C65.53 60.2637 65.53 60.1836 65.53 60.1281ZM67.7013 58.865C67.0553 58.7911 66.7323 59.247 66.608 59.6968L66.6018 59.6907C66.6453 59.4258 66.6702 59.1238 66.6702 58.9205H66.2105V61.9827H66.6764V60.7567C66.6764 59.7276 66.9994 59.2101 67.6827 59.321L67.7013 58.865ZM169.553 7.85634C169.719 7.99896 169.791 8.13143 169.238 7.95831C168.44 7.70923 167.814 7.56092 167.306 7.4311C158.922 5.32814 149.517 5.77754 141.462 7.81456C136.074 9.17726 129.465 12.125 122.195 16.7309C116.462 20.3632 114.327 21.8351 109.341 25.899C88.3686 10.7417 74.0903 7.23766 57.1203 7.23766C34.395 7.23766 14.9323 16.9597 3.70964 25.5814C3.33176 25.87 3.20581 25.7609 3.45772 25.4952C13.5475 14.71 34.7805 2.48203 61.1787 2.48203C81.3464 2.48203 99.2759 10.4286 109.341 18.1117C114.735 14.1741 122.016 10.132 129.956 7.22076C137.622 4.40956 144.338 3.62376 149.461 3.62376C158.722 3.62376 164.115 4.99135 167.479 6.6461C168.041 6.92231 169.201 7.553 169.553 7.85634ZM24.0288 52.8419H44.4382V45.771H33.024V23.9696H24.0288V52.8419ZM72.4572 44.3974L72.0554 44.4663C73.6253 50.7375 79.0564 53.2626 85.1666 53.2626C90.9373 53.2626 97.5639 50.7145 98.1136 44.399C98.1379 44.1216 98.1504 43.8341 98.1504 43.5402C98.1504 40.3839 96.6655 37.6901 93.8223 36.175C91.2764 34.8703 88.349 34.4071 85.5908 33.8603C84.4879 33.6078 82.3663 33.3131 82.3663 31.798C82.3663 30.2829 84.0633 29.9461 85.2516 29.9461C87.5003 29.9461 89.1127 30.7036 89.9615 32.8502L97.3445 30.6193C95.5622 25.6107 90.6827 23.5485 85.6333 23.5485C82.7479 23.5485 79.6506 24.0956 77.2744 25.7372C74.9407 27.3787 73.5403 30.1564 73.5403 32.9763C73.5403 39.8367 80.0326 41.3097 85.5062 42.3619C86.7373 42.5982 88.7857 42.9083 89.0433 44.3963C89.0608 44.4972 89.0703 44.6055 89.0703 44.7188C89.0703 46.3182 86.7791 46.4864 85.6333 46.4864C83.5876 46.4864 81.9425 45.9076 80.9644 44.3974C80.7053 43.997 80.4894 43.5311 80.3297 42.993L72.4572 44.3974ZM62.1201 44.3974C61.9752 44.98 61.5999 45.5027 61.1154 45.855C60.3942 46.4447 59.4184 46.4021 58.5271 46.4021H54.666V44.3974V41.1836H58.1876C58.9938 41.1836 60.0121 41.1836 60.7759 41.5622C61.6246 41.9833 62.1762 42.8669 62.1762 43.8349C62.1762 44.026 62.1656 44.2142 62.1201 44.3974ZM54.666 35.0385V30.1564H58.1451C59.8425 30.1564 61.6246 30.4511 61.6246 32.5973C61.6246 33.2709 61.3275 33.9863 60.7759 34.4914C60.1396 35.0807 59.1209 35.0385 58.2726 35.0385H54.666ZM70.7996 44.3974C70.7696 40.9819 68.4761 38.4861 65.1465 37.9005V37.8162C68.1165 37.143 70.0685 34.5756 70.0685 31.5455C70.0685 29.1885 68.9227 26.8315 66.9707 25.4426C65.1465 24.1378 62.8974 23.9696 60.6909 23.9696H46.4767V52.8419H59.8C62.4308 52.8419 65.5707 52.7997 67.8194 51.2003C69.8985 49.727 70.7992 46.879 70.7992 44.3955L70.7996 44.3974Z" fill="black"/>
</svg>
