<?xml version="1.0" encoding="UTF-8" standalone="no"?>
<svg
   width="165"
   height="42"
   viewBox="0 0 126 32"
   version="1.1"
   id="svg14"
   sodipodi:docname="logo-flaconi-white.svg"
   inkscape:version="1.1 (c68e22c387, 2021-05-23)"
   xmlns:inkscape="http://www.inkscape.org/namespaces/inkscape"
   xmlns:sodipodi="http://sodipodi.sourceforge.net/DTD/sodipodi-0.dtd"
   xmlns="http://www.w3.org/2000/svg"
   xmlns:svg="http://www.w3.org/2000/svg">
  <sodipodi:namedview
     id="namedview16"
     pagecolor="#ffffff"
     bordercolor="#666666"
     borderopacity="1.0"
     inkscape:pageshadow="2"
     inkscape:pageopacity="0.0"
     inkscape:pagecheckerboard="0"
     showgrid="false"
     inkscape:zoom="6.8424242"
     inkscape:cx="82.5"
     inkscape:cy="20.972099"
     inkscape:window-width="1920"
     inkscape:window-height="1009"
     inkscape:window-x="-8"
     inkscape:window-y="-8"
     inkscape:window-maximized="1"
     inkscape:current-layer="g6" />
  <g
     fill="#fff"
     id="g6">
    <path
       d="M78.672 15.96a7.141 7.141 0 0 1-.292-.988 7.036 7.036 0 0 0-.34-1.085 3.143 3.143 0 0 0-.519-.875c-.205-.238-.48-.357-.826-.357-.627 0-1.178.46-1.653 1.377s-.712 2.274-.713 4.067c0 2.16.432 3.808 1.296 4.942s2.02 1.7 3.468 1.7c.82 0 1.577-.204 2.268-.614s1.365-1.133 1.898-2.242l.21.502c-.497 1.836-1.373 3.316-2.56 4.266S78.25 28.08 76.5 28.08a7.492 7.492 0 0 1-2.868-.55 7.131 7.131 0 0 1-2.365-1.573 7.603 7.603 0 0 1-1.62-2.43c-.4-.94-.6-1.993-.6-3.16 0-1.188.2-2.284.632-3.29a8.104 8.104 0 0 1 1.75-2.625 8.023 8.023 0 0 1 2.657-1.75c1.026-.42 2.144-.632 3.355-.632.928 0 1.738.103 2.43.308s1.27.47 1.733.795.8.686 1.037 1.086.34.805.34 1.215a1.99 1.99 0 0 1-.583 1.442c-.39.4-.918.6-1.588.6-1.058 0-1.77-.52-2.138-1.556z"
       id="path2" />
    <path
       d="M91.242 28.08c-1.167 0-2.253-.205-3.257-.615a7.794 7.794 0 0 1-2.593-1.701 7.943 7.943 0 0 1-1.701-2.528 7.802 7.802 0 0 1-.615-3.095c0-1.102.216-2.144.648-3.127a8.038 8.038 0 0 1 1.765-2.56 8.675 8.675 0 0 1 2.61-1.734 7.799 7.799 0 0 1 3.142-.648c1.2 0 2.317.2 3.322.632s1.864 1 2.576 1.7a7.642 7.642 0 0 1 1.67 2.528 8.06 8.06 0 0 1 .6 3.11 7.758 7.758 0 0 1-.616 3.046 7.976 7.976 0 0 1-1.717 2.56 8.545 8.545 0 0 1-2.593 1.767c-.994.442-2.074.663-3.24.664zm-2.593-8.1c0 2.354.227 4.196.68 5.524s1.092 1.993 1.913 1.993c.323 0 .637-.108.94-.324s.572-.6.8-1.15.426-1.302.567-2.252.2-2.16.2-3.63c0-2.397-.232-4.245-.696-5.54s-1.118-1.945-1.96-1.945c-.325 0-.633.113-.924.34s-.55.62-.778 1.183-.4 1.313-.55 2.252-.212 2.122-.212 3.548zm29.926-10.468a3.04 3.04 0 0 0 1.005.665 3.1 3.1 0 0 0 1.198.243c.908 0 1.664-.303 2.27-.908s.907-1.317.907-2.138c0-.886-.302-1.63-.907-2.236s-1.36-.908-2.27-.908a3.08 3.08 0 0 0-1.198.244 3.075 3.075 0 0 0-1.005.664 3.3 3.3 0 0 0-.681 1.004 3.02 3.02 0 0 0-.259 1.232 2.72 2.72 0 0 0 .259 1.167c.17.36.4.7.68.97zm5.605 17.094c-.4-.335-.615-.912-.615-1.733v-8.5l.064-4.18-.26-.098-7.323 2v.323a2.42 2.42 0 0 1 .777.065c.26.065.487.178.68.34s.356.395.486.697.194.692.194 1.167l-.004 8.038c0 .397-.032.824-.195 1.2-.118.264-.633.96-1.193.96-.57 0-1.035-.545-1.213-.95-.156-.353-.175-.815-.185-1.196l.002-8.464c0-1.405-.378-2.458-1.134-3.16s-1.74-1.053-2.95-1.053a5.86 5.86 0 0 0-3.046.826 10.867 10.867 0 0 0-2.398 1.897v-2.593l-.26-.097-7.194 2v.324a2.37 2.37 0 0 1 .778.065 1.68 1.68 0 0 1 .68.34c.194.162.356.394.486.697s.194.7.195 1.166v8.166c0 .822-.2 1.4-.567 1.734s-.794.524-1.248.567v.324h8.62v-.3a1.459 1.459 0 0 1-1.038-.552c-.258-.324-.388-.918-.388-1.782V15.5a5.198 5.198 0 0 1 1.102-.745 2.595 2.595 0 0 1 1.166-.292c.562 0 1.005.195 1.33.584s.486.983.486 1.782v8.037c0 .864-.12 1.458-.356 1.78s-.605.508-1.102.552v.3h16.916v-.324c-.453-.042-.885-.23-1.296-.567zm-53.736-1.684c-.56.796-1.037 1.008-1.465 1.008-.627 0-.94-.432-.94-1.296v-7.42c0-1.556-.546-2.803-1.637-3.743s-2.76-1.4-5.006-1.4c-2.14 0-3.727.34-4.764 1.022s-1.555 1.507-1.556 2.478c0 .627.206 1.135.616 1.523s.908.584 1.5.584c.476 0 .94-.14 1.394-.422s.8-.767 1.037-1.458a5.77 5.77 0 0 0 .308-1.199c.054-.4.12-.73.195-1.02s.194-.53.356-.714.427-.275.794-.275c.454 0 .794.216 1.02.648s.34 1.22.34 2.365v2.852c-1.663.454-3.035.913-4.115 1.377s-1.94.945-2.576 1.443-1.08 1.015-1.33 1.555a4.067 4.067 0 0 0-.372 1.718c0 .583.108 1.1.324 1.522a3.44 3.44 0 0 0 .765 1.004c-.53-.072-1.097-.2-1.334-.452-.358-.38-.6-.744-.616-1.776l.01-23.45-.26-.097-4.666 1.2a10.593 10.593 0 0 0-2.754-.357c-.95 0-1.906.173-2.868.518a7.838 7.838 0 0 0-2.625 1.588c-.788.713-1.436 1.626-1.944 2.738s-.784 2.437-.827 3.97v1.012h-2.38v.954h2.38L37.44 24.71c0 .843-.167 1.453-.502 1.832a1.92 1.92 0 0 1-1.315.666l.003.3h9.008l-.002-.3a1.91 1.91 0 0 1-1.31-.666c-.335-.378-.502-.988-.502-1.832l.007-11.787H45.9v-.954h-3.118l-.027-.332-.065-.68-.372-2.366c-.14-.756-.2-1.545-.2-2.365 0-.908.226-1.67.68-2.285s1.167-.924 2.14-.924a2.57 2.57 0 0 1 1.247.308 3.11 3.11 0 0 1 .973.827 3.99 3.99 0 0 1 .632 1.198c.15.454.227.94.227 1.46l-.01 18.038c0 .82-.178 1.457-.534 1.8s-.752.524-1.183.568v.3h9.606a3.66 3.66 0 0 0 .749.357 4.48 4.48 0 0 0 1.425.227c.82 0 1.658-.195 2.512-.584a7.878 7.878 0 0 0 2.317-1.62c.237.735.613 1.352 1.154 1.697s1.2.52 1.977.52c.972 0 1.847-.232 2.625-.697.7-.425 1.226-.9 2.028-2.147l-.226-.315zm-9.275.878a1.88 1.88 0 0 1-1.394-.599c-.4-.4-.583-1.03-.583-1.896a5.15 5.15 0 0 1 .13-1.133c.085-.4.258-.773.518-1.15s.6-.74 1.053-1.086 1.02-.658 1.734-.94v5.056a6.61 6.61 0 0 0 .097 1.166c-.475.4-.994.583-1.555.584zm-34.9-10.863a1.255 1.255 0 0 0-.603-.945c-.4-.246-.84-.328-1.303-.37a5.982 5.982 0 0 0-1.548.079l-1.848.347-1 .247c-.056.015-.117.033-.172.016-.105-.034-.084-.164.03-.245.1-.07.145-.086.346-.17l.357-.137.953-.324 1.075-.35c.505-.205.983-.464 1.4-.848.275-.26.482-.552.565-.905.07-.297.1-.38.146-.682l.1-1.1c.01-.302-.024-.602-.025-.903a2.64 2.64 0 0 0-.166-.88 1.883 1.883 0 0 0-1.018-1.102c-.522-.225-1.084-.28-1.65-.295 0 0-1.14-.143-4.174.338l-3.15.575-1.16.295c-.144.01-.187-.03-.202-.088 0-.054.038-.112.184-.2.636-.43 2.402-1.233 3.377-1.642l1.062-.478c.14-.078.167-.177.135-.32s-.016-.27.1-.4a4.96 4.96 0 0 0 .389-.431c.064-.078.095-.172.044-.267l-.207-.4c-.127-.25-.14-.38.07-.634l.3-.368a.54.54 0 0 0 .033-.66 2.233 2.233 0 0 0-.323-.402 1.966 1.966 0 0 1-.515-.742c-.14-.372-.498-.574-.915-.54-1.4.1-2.76.583-4.046 1.1l-2.002.873L8.86 3.006 6.7 4.3c-.846.547-1.62 1.2-2.387 1.843A26.199 26.199 0 0 0 2.49 7.892c-.72.76-1.3 1.623-1.856 2.5-1 1.533-.786 3.7.373 5.1.217.26.46.493.794.6a2.33 2.33 0 0 0 .603.095 2.31 2.31 0 0 0 1.002-.15l.647-.28.032-.017.142-.065L6.66 14.41c.08-.04.167-.087.26-.1a.145.145 0 0 1 .08.019.11.11 0 0 1 .048.087c0 .066-.057.092-.103.124l-.18.127-.367.247-.48.334-1.03.758-1.606 1.28a34.5 34.5 0 0 0-1.679 1.539c-.64.616-1.232 1.283-1.423 2.17a3.546 3.546 0 0 0-.024 1.507l.3 1.294.445 1.377c.27.66.682 1.218 1.315 1.583.336.195.72.217 1.112.13.25-.056.486-.16.704-.294.722-.442 1.42-.92 2.076-1.46.714-.587 1.4-1.17 2.2-1.64a.237.237 0 0 1 .081-.036.127.127 0 0 1 .138.084c.04.132-.207.297-.284.37-.374.348-.722.712-1 1.15a4.86 4.86 0 0 0-.624 1.372c-.184.692-.213 1.44-.014 2.133l.006.02c.238.8.694 1.484 1.365 1.993.65.494 1.494.374 2.186-.08.267-.173.5-.38.774-.56l2.377-1.6 1.243-.76 1.002-.58c.07-.032.295-.115.313.018a.18.18 0 0 1-.048.133 4.84 4.84 0 0 1-.144.139 8.46 8.46 0 0 0-.465.474l-.642.774a9.665 9.665 0 0 0-1.052 1.704c-.187.393-.274.74-.276 1.2a.518.518 0 0 0 .188.403c.137.113.273.18.45.172a2.45 2.45 0 0 0 .927-.25 3.04 3.04 0 0 0 .333-.19c.1-.075.214-.178.35-.207.07-.016.148-.005.198.044.1.098.113.237.268.277.2.053.388-.146.524-.265l.497-.474.792-.8c.566-.6 1.2-1.142 1.826-1.666a36.752 36.752 0 0 1 1.952-1.48c.677-.486 1.4-.93 2.002-1.518.25-.248.447-.53.567-.85a3.09 3.09 0 0 0 .15-1.723c-.165-.817-.658-1.344-1.454-1.594a3.782 3.782 0 0 0-.845-.164 5.825 5.825 0 0 0-.867-.074c-.512-.01-1.023.017-1.53.082l-1.643.27a8.37 8.37 0 0 0-.47.106l-.306.093c-.068.022-.193.06-.244-.01-.024-.032-.018-.078 0-.1.034-.062.103-.098.16-.136a2.73 2.73 0 0 1 .195-.122l.385-.218.772-.44 1.5-.726 1.054-.467 1.952-.728 1.224-.482 1.044-.452a1.6 1.6 0 0 0 .749-.702c.144-.276.207-.572.25-.87a4.16 4.16 0 0 0 .039-.475c.006-.246.05-.5.02-.74"
       id="path4" />
  </g>
  <defs
     id="defs12">
    <clipPath
       id="clipPath10">
      <path
         fill="#fff"
         d="M0 0h125.712v32H0z"
         id="path8" />
    </clipPath>
  </defs>
</svg>
