<svg
   xmlns:dc="http://purl.org/dc/elements/1.1/"
   xmlns:cc="http://creativecommons.org/ns#"
   xmlns:rdf="http://www.w3.org/1999/02/22-rdf-syntax-ns#"
   xmlns:svg="http://www.w3.org/2000/svg"
   xmlns="http://www.w3.org/2000/svg"
   xmlns:sodipodi="http://sodipodi.sourceforge.net/DTD/sodipodi-0.dtd"
   xmlns:inkscape="http://www.inkscape.org/namespaces/inkscape"
   version="1.1"
   id="Layer_1"
   x="0px"
   y="0px"
   viewBox="0 0 232.55886 44.574579"
   xml:space="preserve"
   inkscape:version="0.47 r22583"
   width="100%"
   height="100%"
   sodipodi:docname="logo_studiosus.svg"><metadata
   id="metadata25"><rdf:RDF><cc:Work
       rdf:about=""><dc:format>image/svg+xml</dc:format><dc:type
         rdf:resource="http://purl.org/dc/dcmitype/StillImage" /></cc:Work></rdf:RDF></metadata><defs
   id="defs23"><inkscape:perspective
     sodipodi:type="inkscape:persp3d"
     inkscape:vp_x="0 : 22.75 : 1"
     inkscape:vp_y="0 : 1000 : 0"
     inkscape:vp_z="216.8 : 22.75 : 1"
     inkscape:persp3d-origin="108.4 : 15.166667 : 1"
     id="perspective27" /></defs><sodipodi:namedview
   pagecolor="#ffffff"
   bordercolor="#666666"
   borderopacity="1"
   objecttolerance="10"
   gridtolerance="10"
   guidetolerance="10"
   inkscape:pageopacity="0"
   inkscape:pageshadow="2"
   inkscape:window-width="1920"
   inkscape:window-height="1124"
   id="namedview21"
   showgrid="false"
   inkscape:zoom="5.597652"
   inkscape:cx="139.64989"
   inkscape:cy="0.41928242"
   inkscape:window-x="0"
   inkscape:window-y="25"
   inkscape:window-maximized="1"
   inkscape:current-layer="Layer_1" />
<g
   id="g3"
   style="fill:#017147;fill-opacity:1"
   transform="matrix(1.1006069,0,0,1.1006069,-3.3018207,-3.0816993)">
	<path
   d="m 64.9,33.3 c 0,4.2 -3.1,6.6 -5.5,6.7 -2,0 -3.6,-1 -3.6,-4.8 0,-13.4 0,-18.1 0,-18.1 H 40 l 0,-7 -0.2,-0.1 -6.4,4 0,3.1 h -4.7 l 0,2.1 h 4.7 l 0,15.4 c -0.1,7.4 3.2,8.7 10,8.3 1,-0.1 2,-0.2 3.1,-0.4 l 0.1,-2.1 c -0.3,0 -0.6,0 -1.1,0.1 -5.2,0.4 -5.5,-2 -5.5,-6.4 l 0,-14.9 c 0,0 5.1,0 5.9,0 0.6,0 2.4,0 3.1,1.5 0.4,0.9 0.3,2.1 0.3,4.7 0,2.5 0,8.8 0,8.8 0,6.2 1.9,8.7 7.1,8.7 3.2,0 6.7,-1.6 8.5,-4.4 h 0 l 0,3.6 h 6.4 l 0,-25.1 h -6.5 l 0.1,16.3 z"
   id="path5"
   style="fill:#017147;fill-opacity:1" />
	<path
   d="m 87.8,40.1 c -5.1,0 -5.9,-6.3 -5.9,-10.5 0,-4.1 0.7,-10.4 6,-10.4 4.5,0 6,5.2 6,9.7 0,0.6 0,0.9 0,1.3 0,3.1 -0.8,9.9 -6.1,9.9 M 90.2,5.3 90,7.1 c 1.1,-0.2 2.6,-0.2 3.3,0.6 0.8,0.9 0.7,2.8 0.7,5.1 l 0,7.6 c -1.1,-1.6 -3.3,-3.9 -7.9,-3.9 -7.6,0 -10.6,5.7 -10.6,13.2 0,7.2 3.3,13.2 10.5,13.2 4,0 6.5,-2.2 8,-3.6 l 0,2.8 6.6,0 V 5 L 90.2,5.3 z"
   id="path7"
   style="fill:#017147;fill-opacity:1" />
	<path
   d="m 110.9,13.1 c -2,0 -3.7,-1.6 -3.7,-3.6 0,-2 1.6,-3.6 3.6,-3.6 2.1,0 3.7,1.6 3.7,3.6 0,2.1 -1.5,3.6 -3.6,3.6 m -7,3.9 -0.3,1.8 c 1.5,-0.2 2.9,-0.2 3.7,0.8 0.7,0.8 0.5,2.3 0.5,3.4 0,13.6 0,19.1 0,19.1 h 6.5 V 17 l -10.4,0 z"
   id="path9"
   style="fill:#017147;fill-opacity:1" />
	<path
   d="m 152.4,21.7 c 0,-2.5 2.1,-3.4 3.8,-3.4 3,0 5.3,1.5 6.5,2.4 l 0.1,0 0.5,-3.7 c -1.8,-0.2 -3.8,-0.6 -6.8,-0.6 -6.5,0 -9.8,3.1 -9.8,7.3 0,8.8 13.4,8.4 13.4,14 0,2.1 -1.5,3.4 -4.3,3.4 -3.3,0 -6.2,-1.9 -7.9,-3.4 l -0.1,0 -0.9,3.8 c 1.6,0.5 5.4,1.6 8.8,1.6 5.7,0 9.7,-2.9 9.7,-7.8 0.1,-8.5 -13,-8.1 -13,-13.6"
   id="path11"
   style="fill:#017147;fill-opacity:1" />
	<path
   d="m 185.7,17 0,16.4 c 0,4 -3,6.4 -5.1,6.6 -2.4,0.2 -3.9,-1 -3.9,-4.9 0,-7.2 0,-18 0,-18 l -10.5,0 -0.3,1.8 c 1.7,-0.2 3.2,-0.1 3.8,0.8 0.4,0.6 0.5,1.6 0.5,2.5 0,0.1 0,9.8 0,12.1 0,5.7 1.6,8.7 6.9,8.7 3.8,0 6.9,-1.9 8.6,-4.4 h 0 v 3.6 h 6.4 V 17 l -6.4,0 z"
   id="path13"
   style="fill:#017147;fill-opacity:1" />
	<path
   d="m 201.3,21.7 c 0,-2.6 2.4,-3.4 4.4,-3.4 2.8,0 5.5,1.5 6.7,2.5 l 0.1,0 0.6,-3.7 c -1.8,-0.2 -4.2,-0.6 -7.1,-0.6 -6.9,0 -10.3,3.1 -10.3,7.3 0,8.8 13.4,8.4 13.4,14 0,2.1 -1.6,3.4 -4.4,3.4 -3.3,0 -6.2,-1.9 -8,-3.3 l -0.1,0 -0.8,3.8 c 1.6,0.5 5.3,1.6 8.8,1.6 5.7,0 9.7,-2.9 9.7,-7.8 0.1,-8.7 -13,-8.3 -13,-13.8"
   id="path15"
   style="fill:#017147;fill-opacity:1" />
	<path
   d="m 10.9,10.7 c 0,-2.9 2.4,-5.3 6.2,-5.3 4.6,0 8.1,3 9.5,4.2 L 26.8,9.5 28.4,4.6 C 26.2,4.1 21.3,2.8 17.3,2.8 9.2,2.8 3.1,6.1 3.1,13.4 c 0,12.1 19.5,12.9 19.5,21.4 0,3.1 -1.8,5.7 -6.8,5.7 -4.1,0 -8.5,-2.7 -10.9,-5 L 4.7,35.6 3,40.5 c 2.6,1.1 7.7,2.7 12.6,2.7 7.7,0 14,-3.9 14,-11 C 29.5,19.5 10.9,19.6 10.9,10.7"
   id="path17"
   style="fill:#017147;fill-opacity:1" />
	<path
   d="m 131.5,41.4 c 5,0 5.9,-6.1 5.9,-11.6 0,-5.1 -1,-11.7 -5.9,-11.7 -5.2,0 -6.2,6.6 -6.2,11.7 0,4.9 1,11.6 6.2,11.6 M 118.7,29.8 c 0,-8.7 4.6,-13.4 12.7,-13.4 8.4,0 12.7,5 12.7,13.4 0,8.3 -4.1,13.3 -12.7,13.3 -9.2,0 -12.7,-5.2 -12.7,-13.3"
   id="path19"
   style="fill:#017147;fill-opacity:1" />
</g>
</svg>