<?xml version="1.0" encoding="utf-8"?>
<!-- Generator: Adobe Illustrator 23.0.3, SVG Export Plug-In . SVG Version: 6.00 Build 0)  -->
<svg version="1.1" id="Ebene_1" xmlns="http://www.w3.org/2000/svg" xmlns:xlink="http://www.w3.org/1999/xlink" x="0px" y="0px"
	 viewBox="0 0 160.47 45.49" style="enable-background:new 0 0 160.47 45.49;" xml:space="preserve">
<style type="text/css">
	.st0{display:none;}
	.st1{display:inline;fill:#111111;}
	.st2{fill:#111111;}
	.st3{fill:#FF6600;}
	.st4{fill:#FFFFFF;}
</style>
<g>
	<g class="st0">
		<path class="st1" d="M41.84,35.4c0-0.59-0.21-1-0.87-1c-0.58,0-0.93,0.31-0.93,0.91c0,1.58,2.65,0.64,2.65,2.69
			c0,1.3-0.95,1.67-1.75,1.67c-1.32,0-1.7-0.68-1.7-1.87h0.69c0,0.63,0.04,1.31,1.05,1.31c0.55,0,0.98-0.39,0.98-0.99
			c0-1.59-2.65-0.67-2.65-2.73c0-0.52,0.22-1.55,1.65-1.55c1.07,0,1.56,0.54,1.58,1.57H41.84z"/>
		<path class="st1" d="M44.68,35.23c1.22,0,1.52,1.03,1.52,2.22c0,1.19-0.31,2.22-1.52,2.22c-1.22,0-1.52-1.03-1.52-2.22
			C43.16,36.27,43.47,35.23,44.68,35.23z M45.51,37.45c0-0.91-0.13-1.7-0.84-1.7c-0.67,0-0.81,0.79-0.81,1.7
			c0,0.91,0.13,1.7,0.81,1.7C45.37,39.16,45.51,38.37,45.51,37.45z"/>
		<path class="st1" d="M51.9,39.67h-0.77l-1.17-2.19l-0.54,0.66v1.53h-0.66v-5.73h0.66v3.35h0.02l1.48-1.94h0.77l-1.28,1.59
			L51.9,39.67z"/>
		<path class="st1" d="M52.15,36.62c0-0.96,0.41-1.39,1.42-1.39c1.28,0,1.28,0.77,1.28,1.21v2.35c0,0.17,0,0.34,0.2,0.34
			c0.09,0,0.13-0.02,0.16-0.04v0.54c-0.05,0.01-0.22,0.04-0.39,0.04c-0.25,0-0.57-0.07-0.6-0.61h-0.02
			c-0.21,0.38-0.62,0.61-1.02,0.61c-0.79,0-1.15-0.47-1.15-1.23c0-0.59,0.25-1,0.8-1.17l0.89-0.27c0.48-0.15,0.48-0.28,0.48-0.64
			c0-0.39-0.24-0.62-0.68-0.62c-0.72,0-0.72,0.68-0.72,0.83v0.04H52.15z M54.19,37.27c-0.24,0.26-0.83,0.32-1.13,0.5
			c-0.21,0.13-0.32,0.3-0.32,0.67c0,0.43,0.15,0.72,0.6,0.72c0.43,0,0.85-0.37,0.85-0.8V37.27z"/>
		<path class="st1" d="M58.53,39.67H57.9v-0.6h-0.02c-0.17,0.39-0.61,0.61-1.02,0.61c-1.11,0-1.11-0.84-1.11-1.34v-2.99h0.66v2.91
			c0,0.32,0.02,0.85,0.62,0.85c0.35,0,0.83-0.24,0.83-0.85v-2.91h0.66V39.67z"/>
		<path class="st1" d="M59.59,35.86h-0.61v-0.52h0.61v-0.5c0-0.64,0.28-0.97,0.91-0.97h0.48v0.57h-0.31c-0.28,0-0.43,0.11-0.43,0.4
			v0.5h0.72v0.52h-0.72v3.81h-0.66V35.86z"/>
		<path class="st1" d="M61.63,34.12h0.66v1.23h0.73v0.52h-0.73v2.71c0,0.34,0.09,0.47,0.43,0.47c0.14,0,0.22-0.02,0.29-0.02v0.6
			c-0.09,0.02-0.26,0.05-0.54,0.05c-0.68,0-0.85-0.34-0.85-0.89v-2.91h-0.47v-0.52h0.47V34.12z"/>
		<path class="st1" d="M65.42,35.34h0.63v0.5h0.02c0.17-0.39,0.61-0.61,1.02-0.61c0.49,0,0.78,0.19,0.91,0.67
			c0.19-0.37,0.57-0.67,1-0.67c1.11,0,1.11,0.84,1.11,1.34v3.1h-0.66v-3.02c0-0.32-0.02-0.85-0.57-0.85c-0.31,0-0.79,0.19-0.79,0.85
			v3.02h-0.66v-3.02c0-0.32-0.02-0.85-0.57-0.85c-0.31,0-0.79,0.19-0.79,0.85v3.02h-0.66V35.34z"/>
		<path class="st1" d="M70.94,36.62c0-0.96,0.41-1.39,1.42-1.39c1.28,0,1.28,0.77,1.28,1.21v2.35c0,0.17,0,0.34,0.2,0.34
			c0.09,0,0.13-0.02,0.16-0.04v0.53c-0.05,0.01-0.22,0.04-0.39,0.04c-0.25,0-0.57-0.06-0.6-0.6h-0.02
			c-0.21,0.38-0.62,0.61-1.02,0.61c-0.79,0-1.15-0.47-1.15-1.23c0-0.59,0.25-1,0.8-1.17l0.89-0.27c0.48-0.15,0.48-0.28,0.48-0.64
			c0-0.39-0.24-0.62-0.68-0.62c-0.72,0-0.72,0.68-0.72,0.83v0.04H70.94z M72.98,37.27c-0.24,0.26-0.83,0.32-1.13,0.5
			c-0.21,0.13-0.32,0.3-0.32,0.67c0,0.43,0.15,0.72,0.6,0.72c0.43,0,0.85-0.37,0.85-0.8V37.27z"/>
		<path class="st1" d="M74.54,35.34h0.63v0.5h0.02c0.17-0.39,0.61-0.61,1.02-0.61c1.11,0,1.11,0.84,1.11,1.34v3.1h-0.66v-3.02
			c0-0.32-0.02-0.85-0.62-0.85c-0.35,0-0.83,0.24-0.83,0.85v3.02h-0.66V35.34z"/>
		<path class="st1" d="M82.77,35.5c-0.03-0.59-0.25-1.1-0.94-1.1c-0.96,0-1.09,1.06-1.09,2.35c0,1.3,0.13,2.35,1.09,2.35
			c0.96,0,1.03-1.15,1.03-1.9h-1.11v-0.57h1.74v3.03h-0.52V38.8h-0.02c-0.15,0.48-0.6,0.87-1.21,0.87c-1.46,0-1.72-1.41-1.72-2.92
			c0-1.42,0.26-2.92,1.81-2.92c1.61,0,1.65,1.38,1.66,1.67H82.77z"/>
		<path class="st1" d="M84.2,36.62c0-0.96,0.41-1.39,1.42-1.39c1.28,0,1.28,0.77,1.28,1.21v2.35c0,0.17,0,0.34,0.2,0.34
			c0.09,0,0.13-0.02,0.16-0.04v0.53c-0.05,0.01-0.22,0.04-0.39,0.04c-0.25,0-0.57-0.06-0.6-0.6h-0.02
			c-0.21,0.38-0.62,0.61-1.02,0.61c-0.79,0-1.15-0.47-1.15-1.23c0-0.59,0.25-1,0.8-1.17l0.89-0.27c0.48-0.15,0.48-0.28,0.48-0.64
			c0-0.39-0.24-0.62-0.68-0.62c-0.72,0-0.72,0.68-0.72,0.83v0.04H84.2z M86.24,37.27c-0.24,0.26-0.83,0.32-1.13,0.5
			c-0.21,0.13-0.32,0.3-0.32,0.67c0,0.43,0.15,0.72,0.6,0.72c0.43,0,0.85-0.37,0.85-0.8V37.27z"/>
		<path class="st1" d="M89.61,36.58c0-0.54-0.14-0.83-0.62-0.83c-0.21,0-0.68,0.06-0.68,0.65c0,0.5,0.52,0.59,1.04,0.76
			c0.51,0.17,1.03,0.35,1.03,1.19c0,0.89-0.57,1.32-1.36,1.32c-1.43,0-1.45-1.06-1.45-1.5h0.66c0,0.51,0.14,0.98,0.79,0.98
			c0.21,0,0.7-0.1,0.7-0.7c0-0.57-0.52-0.69-1.03-0.86c-0.51-0.17-1.04-0.32-1.04-1.2c0-0.79,0.61-1.17,1.35-1.17
			c1.23,0,1.28,0.85,1.28,1.35H89.61z"/>
		<path class="st1" d="M91.2,34.12h0.66v1.23h0.73v0.52h-0.73v2.71c0,0.34,0.09,0.53,0.43,0.53c0.14,0,0.22-0.02,0.29-0.02v0.54
			c-0.09,0.02-0.26,0.05-0.54,0.05c-0.68,0-0.85-0.28-0.85-0.83v-2.97h-0.61v-0.52h0.61V34.12z"/>
		<path class="st1" d="M93.05,35.34h0.66v0.63h0.02c0.19-0.4,0.44-0.74,0.91-0.74c0.13,0,0.23,0.02,0.29,0.05v0.65
			c-0.06-0.01-0.14-0.03-0.35-0.03c-0.33,0-0.87,0.3-0.87,1v2.77h-0.66V35.34z"/>
		<path class="st1" d="M96.69,35.23c1.22,0,1.52,1.03,1.52,2.22c0,1.19-0.31,2.22-1.52,2.22c-1.22,0-1.52-1.03-1.52-2.22
			C95.17,36.27,95.48,35.23,96.69,35.23z M97.52,37.45c0-0.91-0.13-1.7-0.84-1.7c-0.67,0-0.81,0.79-0.81,1.7
			c0,0.91,0.13,1.7,0.81,1.7C97.38,39.16,97.52,38.37,97.52,37.45z"/>
		<path class="st1" d="M98.87,35.34h0.63v0.5h0.02c0.17-0.39,0.61-0.61,1.02-0.61c1.11,0,1.11,0.84,1.11,1.34v3.1h-0.66v-3.02
			c0-0.32-0.02-0.85-0.62-0.85c-0.35,0-0.83,0.24-0.83,0.85v3.02h-0.66V35.34z"/>
		<path class="st1" d="M103.83,35.23c1.22,0,1.52,1.03,1.52,2.22c0,1.19-0.31,2.22-1.52,2.22c-1.22,0-1.52-1.03-1.52-2.22
			C102.31,36.27,102.62,35.23,103.83,35.23z M104.66,37.45c0-0.91-0.13-1.7-0.84-1.7c-0.67,0-0.81,0.79-0.81,1.7
			c0,0.91,0.13,1.7,0.81,1.7C104.52,39.16,104.66,38.37,104.66,37.45z"/>
		<path class="st1" d="M106.08,35.34h0.63v0.5h0.02c0.17-0.39,0.61-0.61,1.02-0.61c0.49,0,0.78,0.19,0.91,0.67
			c0.19-0.37,0.57-0.67,1-0.67c1.11,0,1.11,0.84,1.11,1.34v3.1h-0.66v-3.02c0-0.32-0.02-0.85-0.57-0.85c-0.31,0-0.79,0.19-0.79,0.85
			v3.02h-0.66v-3.02c0-0.32-0.02-0.85-0.57-0.85c-0.31,0-0.79,0.19-0.79,0.85v3.02h-0.66V35.34z"/>
		<path class="st1" d="M111.74,33.94h0.66v0.76h-0.66V33.94z M111.74,35.34h0.66v4.33h-0.66V35.34z"/>
		<path class="st1" d="M113.86,37.53c0,0.65,0,1.62,0.81,1.62c0.63,0,0.72-0.66,0.72-0.98h0.66c0,0.45-0.27,1.5-1.42,1.5
			c-1.03,0-1.46-0.72-1.46-2.17c0-1.05,0.2-2.28,1.5-2.28c1.29,0,1.41,1.13,1.41,2.03v0.27H113.86z M115.39,37.01v-0.23
			c0-0.47-0.15-1.03-0.73-1.03c-0.69,0-0.77,0.85-0.77,1.1v0.16H115.39z"/>
		<path class="st1" d="M116.8,33.94h0.66v1.88h0.02c0.15-0.36,0.55-0.59,0.98-0.59c1.14,0,1.28,1.34,1.28,2.22
			c0,1.19-0.4,2.22-1.38,2.22c-0.46,0-0.83-0.31-0.91-0.63h-0.02v0.63h-0.63V33.94z M118.28,39.11c0.61,0,0.77-0.69,0.77-1.65
			c0-1.01-0.16-1.65-0.77-1.65c-0.71,0-0.85,0.83-0.85,1.65C117.43,38.32,117.57,39.11,118.28,39.11z"/>
		<path class="st1" d="M121,37.53c0,0.65,0,1.62,0.81,1.62c0.63,0,0.72-0.66,0.72-0.98h0.66c0,0.45-0.27,1.5-1.42,1.5
			c-1.03,0-1.46-0.72-1.46-2.17c0-1.05,0.2-2.28,1.5-2.28c1.29,0,1.41,1.13,1.41,2.03v0.27H121z M122.53,37.01v-0.23
			c0-0.47-0.15-1.03-0.73-1.03c-0.69,0-0.77,0.85-0.77,1.1v0.16H122.53z"/>
		<path class="st1" d="M126.72,39.67h-0.63v-0.63h-0.02c-0.09,0.32-0.46,0.63-0.91,0.63c-1,0-1.38-0.89-1.38-2.22
			c0-0.88,0.14-2.22,1.33-2.22c0.38,0,0.78,0.23,0.93,0.59h0.02v-1.88h0.66V39.67z M125.25,39.11c0.73,0,0.85-0.69,0.85-1.65
			c0-0.82-0.14-1.65-0.85-1.65c-0.61,0-0.77,0.65-0.77,1.65C124.48,38.46,124.64,39.11,125.25,39.11z"/>
		<path class="st1" d="M127.49,36.62c0-0.96,0.41-1.39,1.42-1.39c1.28,0,1.28,0.77,1.28,1.21v2.35c0,0.17,0,0.34,0.2,0.34
			c0.09,0,0.13-0.02,0.16-0.04v0.53c-0.05,0.01-0.22,0.04-0.39,0.04c-0.25,0-0.57-0.06-0.6-0.6h-0.02
			c-0.21,0.38-0.62,0.61-1.02,0.61c-0.79,0-1.15-0.47-1.15-1.23c0-0.59,0.25-1,0.8-1.17l0.89-0.27c0.48-0.15,0.48-0.28,0.48-0.64
			c0-0.39-0.24-0.62-0.68-0.62c-0.72,0-0.72,0.68-0.72,0.83v0.04H127.49z M129.53,37.27c-0.24,0.26-0.83,0.32-1.13,0.5
			c-0.21,0.13-0.32,0.3-0.32,0.67c0,0.43,0.15,0.72,0.6,0.72c0.43,0,0.85-0.37,0.85-0.8V37.27z"/>
		<path class="st1" d="M131.09,35.34h0.66v0.63h0.02c0.19-0.4,0.44-0.74,0.91-0.74c0.13,0,0.09,0.02,0.15,0.05v0.65
			c-0.06-0.01,0-0.03-0.21-0.03c-0.33,0-0.87,0.3-0.87,1v2.77h-0.66V35.34z"/>
		<path class="st1" d="M133.76,35.86h-0.61v-0.52h0.61v-0.5c0-0.64,0.28-0.97,0.91-0.97h0.48v0.57h-0.31c-0.28,0-0.43,0.11-0.43,0.4
			v0.5h0.72v0.52h-0.72v3.81h-0.66V35.86z"/>
		<path class="st1" d="M137.35,33.94h0.66v1.88h0.02c0.17-0.35,0.64-0.59,1.02-0.59c1.09,0,1.09,0.84,1.09,1.34v2.99h-0.66v-2.91
			c0-0.32-0.02-0.85-0.62-0.85c-0.35,0-0.83,0.24-0.83,0.85v2.91h-0.66V33.94z"/>
		<path class="st1" d="M141.54,37.53c0,0.65,0,1.62,0.81,1.62c0.63,0,0.72-0.66,0.72-0.98h0.66c0,0.45-0.27,1.5-1.42,1.5
			c-1.03,0-1.46-0.72-1.46-2.17c0-1.05,0.2-2.28,1.5-2.28c1.29,0,1.41,1.13,1.41,2.03v0.27H141.54z M143.07,37.01v-0.23
			c0-0.47-0.15-1.03-0.73-1.03c-0.69,0-0.77,0.85-0.77,1.1v0.16H143.07z"/>
		<path class="st1" d="M147.27,39.57h-0.63v-0.5h-0.02c-0.17,0.39-0.61,0.61-1.02,0.61c-1.11,0-1.11-0.84-1.11-1.34v-2.99h0.66v2.91
			c0,0.32,0.02,0.85,0.62,0.85c0.35,0,0.83-0.24,0.83-0.85v-2.91h0.66V39.57z"/>
		<path class="st1" d="M148.33,34.12h0.66v1.23h0.73v0.52h-0.73v2.71c0,0.34,0.09,0.47,0.43,0.47c0.14,0,0.22-0.02,0.29-0.02v0.54
			c-0.09,0.02-0.26,0.05-0.54,0.05c-0.68,0-0.85-0.28-0.85-0.83v-2.91h-0.61v-0.52h0.61V34.12z"/>
		<path class="st1" d="M150.73,37.53c0,0.65,0,1.62,0.81,1.62c0.63,0,0.72-0.66,0.72-0.98h0.66c0,0.45-0.27,1.5-1.42,1.5
			c-1.03,0-1.46-0.72-1.46-2.17c0-1.05,0.2-2.28,1.5-2.28c1.29,0,1.41,1.13,1.41,2.03v0.27H150.73z M152.25,37.01v-0.23
			c0-0.47-0.15-1.03-0.73-1.03c-0.69,0-0.77,0.85-0.77,1.1v0.16H152.25z"/>
		<path class="st1" d="M153.89,33.94h0.72l-0.13,4.16h-0.47L153.89,33.94z M153.89,38.81h0.72v0.76h-0.72V38.81z"/>
	</g>
	<path class="st2" d="M43.78,31.22c-0.24,0-0.52-0.03-0.83-0.08c-0.32-0.05-0.64-0.16-0.98-0.33c-0.34-0.17-0.67-0.4-0.99-0.71
		c-0.33-0.31-0.62-0.71-0.87-1.21c-0.26-0.5-0.47-1.12-0.62-1.86c-0.16-0.73-0.24-1.61-0.24-2.62v-7.2c0-1.02,0.08-1.9,0.25-2.62
		c0.17-0.73,0.39-1.34,0.67-1.83c0.28-0.5,0.6-0.89,0.96-1.18c0.36-0.29,0.74-0.52,1.12-0.67c0.39-0.15,0.77-0.26,1.15-0.3
		c0.38-0.05,0.73-0.07,1.06-0.07c0.82,0,1.52,0.11,2.09,0.34c0.57,0.23,1.03,0.54,1.38,0.93c0.35,0.39,0.61,0.85,0.76,1.37
		c0.15,0.52,0.23,1.08,0.23,1.67c0,0.44-0.03,0.84-0.08,1.21c-0.05,0.37-0.12,0.78-0.21,1.22h-2.46V16.3c0-2.23-0.6-3.34-1.8-3.34
		c-0.33,0-0.61,0.06-0.84,0.17c-0.24,0.11-0.44,0.3-0.59,0.57c-0.16,0.27-0.28,0.62-0.35,1.05c-0.08,0.44-0.11,0.98-0.11,1.63v9.21
		c0,0.63,0.04,1.16,0.11,1.58c0.07,0.42,0.19,0.76,0.34,1.01c0.15,0.25,0.35,0.43,0.58,0.54c0.23,0.11,0.51,0.16,0.84,0.16
		c0.34,0,0.63-0.09,0.88-0.27c0.25-0.18,0.45-0.42,0.61-0.73c0.16-0.31,0.28-0.67,0.35-1.1c0.08-0.42,0.11-0.88,0.11-1.37v-2.65
		h-1.58v-2.02h4.58v10.43h-2.05l-0.33-2.07c-0.39,0.75-0.83,1.3-1.34,1.62C45.07,31.05,44.47,31.22,43.78,31.22"/>
	<path class="st2" d="M54.37,10.53h3.55l3.76,20.69h-3.12L58,27.51h-3.71l-0.54,3.71h-3.13L54.37,10.53z M57.64,25.15l-1.43-10.31
		h-0.13l-1.44,10.31H57.64z"/>
	<path class="st2" d="M62.39,27c0-0.44,0.09-2,0.2-2.44h2.5v1c0,0.55,0.03,1.05,0.1,1.47c0.07,0.43,0.18,0.79,0.33,1.08
		c0.15,0.29,0.36,0.52,0.62,0.66C66.4,28.92,66.71,29,67.09,29c0.59,0,1.04-0.16,1.34-0.49c0.31-0.32,0.46-0.8,0.46-1.43
		c0-0.32-0.02-0.62-0.07-0.89c-0.04-0.27-0.12-0.54-0.23-0.8c-0.11-0.27-0.25-0.54-0.43-0.84c-0.18-0.29-0.42-0.62-0.7-0.98
		l-3.21-3.87c-0.57-0.74-1.01-1.49-1.32-2.24c-0.31-0.75-0.46-1.55-0.46-2.41c0-0.68,0.11-1.31,0.32-1.88
		c0.21-0.57,0.51-1.06,0.91-1.48c0.4-0.41,0.89-0.74,1.47-0.97c0.58-0.23,1.24-0.34,1.98-0.34c0.9,0,1.64,0.13,2.24,0.39
		c0.6,0.26,1.08,0.6,1.43,1.01c0.36,0.42,0.61,0.89,0.76,1.41c0.15,0.52,0.22,1.04,0.22,1.56c0,0.44-0.12,2.01-0.21,2.46h-2.5v-0.98
		c0-1.09-0.15-1.93-0.46-2.52c-0.31-0.58-0.81-0.87-1.51-0.87c-0.58,0-1.01,0.16-1.3,0.49c-0.29,0.33-0.43,0.76-0.43,1.31
		c0,0.29,0.02,0.55,0.07,0.78c0.04,0.23,0.11,0.45,0.19,0.65c0.08,0.2,0.18,0.39,0.3,0.57c0.12,0.19,0.25,0.38,0.4,0.58l3.58,4.39
		c0.65,0.86,1.15,1.69,1.5,2.48c0.35,0.79,0.52,1.63,0.52,2.51c0,0.73-0.11,1.39-0.34,1.98c-0.23,0.59-0.55,1.09-0.97,1.5
		c-0.42,0.41-0.93,0.73-1.52,0.95c-0.59,0.22-1.27,0.33-2.01,0.33c-0.92,0-1.68-0.12-2.29-0.37c-0.61-0.25-1.09-0.58-1.45-0.99
		c-0.36-0.41-0.61-0.88-0.76-1.4C62.46,28.08,62.39,27.54,62.39,27"/>
	<polygon class="st2" points="76.08,13 72.81,13 72.81,10.53 82.42,10.53 82.42,13 79.16,13 79.16,31.21 76.08,31.21 	"/>
	<path class="st2" d="M83.98,10.53h3.34c0.38,0,0.8,0.02,1.26,0.05c0.46,0.03,0.91,0.11,1.37,0.24c0.46,0.13,0.9,0.31,1.32,0.56
		c0.42,0.25,0.8,0.59,1.13,1.03c0.33,0.44,0.59,0.98,0.79,1.64c0.2,0.66,0.3,1.46,0.3,2.4v0.52c0,1.58-0.22,2.86-0.67,3.85
		c-0.44,0.99-1.1,1.7-1.96,2.14l3.26,8.28h-3.26l-2.7-7.75H87v7.75h-3.02V10.53z M87.46,21.22c0.54,0,1-0.06,1.37-0.18
		c0.37-0.12,0.67-0.33,0.9-0.61c0.23-0.29,0.4-0.67,0.5-1.14c0.1-0.47,0.15-1.06,0.15-1.75V15.9c0-0.53-0.05-0.99-0.14-1.38
		c-0.1-0.39-0.26-0.71-0.48-0.96c-0.23-0.25-0.53-0.44-0.9-0.56c-0.37-0.12-0.84-0.18-1.4-0.18H87v8.4H87.46z"/>
	<path class="st2" d="M100.34,31.21c-0.33,0-0.68-0.03-1.06-0.08c-0.38-0.05-0.76-0.16-1.13-0.33c-0.37-0.17-0.73-0.4-1.08-0.71
		c-0.34-0.3-0.65-0.71-0.92-1.21c-0.27-0.5-0.48-1.12-0.64-1.85c-0.16-0.73-0.24-1.61-0.24-2.62v-7.2c0-1.02,0.08-1.9,0.24-2.62
		c0.16-0.73,0.38-1.34,0.65-1.83c0.27-0.5,0.58-0.89,0.92-1.18c0.34-0.29,0.71-0.52,1.08-0.67c0.38-0.15,0.75-0.26,1.12-0.3
		c0.37-0.05,0.72-0.07,1.03-0.07c0.3,0,0.64,0.02,1.01,0.07c0.37,0.04,0.74,0.14,1.11,0.29c0.37,0.15,0.73,0.37,1.08,0.65
		c0.35,0.29,0.66,0.68,0.93,1.18c0.27,0.5,0.49,1.11,0.65,1.84c0.16,0.73,0.24,1.62,0.24,2.66v7.2c0,1.01-0.08,1.87-0.25,2.6
		c-0.17,0.73-0.38,1.34-0.65,1.84c-0.27,0.5-0.58,0.91-0.93,1.21c-0.35,0.31-0.71,0.54-1.08,0.71c-0.37,0.17-0.74,0.28-1.1,0.34
		C100.96,31.18,100.63,31.21,100.34,31.21 M100.34,28.89c0.3,0,0.57-0.05,0.79-0.16c0.23-0.1,0.41-0.28,0.56-0.54
		c0.15-0.25,0.26-0.59,0.33-1.01c0.08-0.42,0.11-0.94,0.11-1.58v-9.25c0-0.65-0.04-1.19-0.11-1.63c-0.08-0.44-0.19-0.79-0.33-1.05
		c-0.15-0.27-0.33-0.45-0.56-0.56c-0.23-0.11-0.49-0.17-0.79-0.17c-0.31,0-0.58,0.06-0.81,0.17c-0.23,0.11-0.42,0.3-0.57,0.56
		c-0.15,0.27-0.26,0.62-0.34,1.05c-0.08,0.44-0.11,0.98-0.11,1.63v9.25c0,0.63,0.04,1.16,0.11,1.58c0.08,0.42,0.19,0.75,0.34,1.01
		c0.15,0.25,0.34,0.43,0.57,0.54C99.76,28.84,100.03,28.89,100.34,28.89"/>
	<polygon class="st3" points="111.92,10.53 115,10.53 115,19.19 118.65,19.19 118.65,10.53 121.73,10.53 121.73,31.21 118.65,31.21 
		118.65,21.66 115,21.66 115,31.21 111.92,31.21 	"/>
	<polygon class="st3" points="124.01,10.53 131.54,10.53 131.54,13 127.09,13 127.09,19.19 130.53,19.19 130.53,21.66 127.09,21.66 
		127.09,28.74 131.66,28.74 131.66,31.21 124.01,31.21 	"/>
	<path class="st3" d="M133.28,10.53h3.34c0.38,0,0.8,0.02,1.26,0.05c0.46,0.03,0.91,0.11,1.37,0.24c0.46,0.13,0.9,0.31,1.32,0.56
		c0.42,0.25,0.8,0.59,1.13,1.03c0.33,0.44,0.59,0.98,0.79,1.64c0.2,0.66,0.3,1.46,0.3,2.39v0.52c0,1.57-0.22,2.86-0.67,3.85
		c-0.44,0.99-1.1,1.7-1.96,2.14l3.26,8.27h-3.26l-2.7-7.74h-1.15v7.74h-3.02V10.53z M136.77,21.21c0.54,0,1-0.06,1.37-0.18
		c0.37-0.12,0.67-0.32,0.9-0.61c0.23-0.29,0.4-0.67,0.5-1.14c0.1-0.47,0.15-1.06,0.15-1.75v-1.64c0-0.53-0.05-0.99-0.14-1.38
		c-0.1-0.39-0.26-0.71-0.48-0.96c-0.23-0.25-0.53-0.44-0.9-0.56c-0.37-0.12-0.84-0.18-1.4-0.18h-0.46v8.39H136.77z"/>
	<path class="st3" d="M149.64,31.21c-0.33,0-0.68-0.03-1.06-0.08c-0.38-0.05-0.76-0.16-1.13-0.33c-0.37-0.17-0.73-0.4-1.08-0.71
		c-0.35-0.3-0.65-0.71-0.92-1.21c-0.27-0.5-0.48-1.12-0.64-1.85c-0.16-0.73-0.24-1.61-0.24-2.62v-7.2c0-1.02,0.08-1.9,0.24-2.62
		c0.16-0.73,0.38-1.34,0.65-1.83c0.27-0.5,0.58-0.89,0.92-1.18c0.35-0.29,0.71-0.52,1.08-0.67c0.38-0.15,0.75-0.26,1.12-0.3
		c0.37-0.05,0.72-0.07,1.03-0.07c0.3,0,0.64,0.02,1.01,0.07c0.37,0.04,0.74,0.14,1.11,0.29c0.37,0.15,0.73,0.37,1.08,0.65
		c0.35,0.29,0.66,0.68,0.93,1.18c0.27,0.5,0.49,1.11,0.65,1.84c0.16,0.73,0.24,1.62,0.24,2.66v7.2c0,1.01-0.08,1.87-0.25,2.6
		c-0.17,0.73-0.39,1.34-0.65,1.84c-0.27,0.5-0.58,0.91-0.93,1.21c-0.35,0.31-0.71,0.54-1.08,0.71c-0.37,0.17-0.74,0.28-1.1,0.34
		C150.26,31.18,149.93,31.21,149.64,31.21 M149.64,28.89c0.3,0,0.57-0.05,0.79-0.16c0.23-0.1,0.41-0.28,0.56-0.54
		c0.15-0.25,0.26-0.59,0.33-1.01c0.08-0.42,0.11-0.94,0.11-1.58v-9.25c0-0.65-0.04-1.19-0.11-1.63c-0.08-0.44-0.19-0.79-0.33-1.05
		c-0.15-0.27-0.33-0.45-0.56-0.56c-0.23-0.11-0.49-0.17-0.79-0.17c-0.31,0-0.58,0.06-0.81,0.17c-0.23,0.11-0.42,0.3-0.57,0.56
		c-0.15,0.27-0.26,0.62-0.34,1.05c-0.08,0.44-0.11,0.98-0.11,1.63v9.25c0,0.63,0.04,1.16,0.11,1.58c0.08,0.42,0.19,0.75,0.34,1.01
		c0.15,0.25,0.34,0.43,0.57,0.54C149.06,28.84,149.33,28.89,149.64,28.89"/>
	<path class="st3" d="M18.71,5.86c-4.85-0.02-9.95,2.18-12.88,4.67v15.79c0,6.48,4.69,8.17,12.88,13.33
		c8.19-5.15,12.88-6.85,12.88-13.33V10.54C28.66,8.04,23.56,5.85,18.71,5.86"/>
	<path class="st4" d="M18.71,18.78v4.2h5.37v3.35c0,0.83-0.11,0.94-0.43,1.26c-0.81,0.82-2.56,1.92-4.94,3.36
		c-2.38-1.44-4.13-2.54-4.94-3.36c-0.32-0.32-0.43-0.43-0.43-1.26v-11.8c1.53-0.71,3.44-1.28,5.31-1.28h0.11
		c1.88,0,3.79,0.58,5.31,1.28V9.98c-1.67-0.58-3.5-0.95-5.31-0.95h-0.11c-3.6,0-7.24,1.47-9.6,3.06v14.24c0,3.58,1.77,4.81,7.9,8.51
		c0.55,0.33,1.14,0.69,1.76,1.07c0.62-0.38,1.21-0.74,1.76-1.07c6.13-3.71,7.9-4.94,7.9-8.51v-3.35v-3.56v-0.64H18.71z"/>
</g>
</svg>
