<svg width="571" height="101" viewBox="0 0 571 101" fill="none" xmlns="http://www.w3.org/2000/svg">
<path d="M310.892 17.128C312.383 17.0333 314.182 17.9343 314.793 19.5026L306.678 21.6715C306.572 18.7451 308.763 17.2656 310.892 17.128ZM319.83 20.8711C319.827 20.8563 319.831 20.8459 319.828 20.8312C319.823 20.8046 319.814 20.7705 319.808 20.7425C319.641 19.9065 319.385 19.0973 319.118 18.5144L319.116 18.5155C319.045 18.335 318.975 18.1575 318.907 18.0096C317.629 15.1971 315.102 13.2101 311.176 13.2101C305.57 13.2101 301.865 17.7018 301.865 22.8386C301.865 28.6278 305.675 32.473 311.68 32.473C314.25 32.473 316.107 31.8486 317.885 31.0187C318.046 30.9447 318.171 30.8026 318.224 30.634L319.135 26.274C319.206 26.0343 319.069 25.8612 318.916 25.9396C317.29 26.9752 315.2 28.2136 312.648 28.1943C310.066 28.1751 307.958 27.1158 307.295 25.2975L319.449 22.0633C319.805 21.9376 319.967 21.7379 319.924 21.4094C319.9 21.2289 319.863 21.0499 319.83 20.8709L319.83 20.8711ZM374.16 32.4733C371.038 32.4733 368.632 31.451 366.588 30.2866C366.416 30.1905 366.237 29.9981 366.271 29.8206L367.076 25.9458C367.089 25.8585 367.153 25.7905 367.239 25.8452C369.566 27.372 371.625 28.4461 374.479 28.4461C376.061 28.4461 377.031 27.8381 377.031 26.9711C377.031 26.002 376.314 25.573 373.007 24.709C369.271 23.7384 366.608 22.4823 366.608 19.0307C366.608 15.7241 369.484 13.3184 374.337 13.3184C376.845 13.3184 378.855 13.9413 380.427 14.721C380.643 14.8275 380.801 15.076 380.773 15.2906L380.023 18.9005C379.999 19.0144 379.899 19.0825 379.799 19.0233C377.957 17.8945 375.666 17.3071 374.124 17.3071C372.506 17.3071 371.642 17.8841 371.642 18.6741C371.642 19.6047 372.467 19.9998 375.558 20.7913C379.73 21.8328 382.067 23.1259 382.067 26.6855C382.067 30.0647 379.012 32.4733 374.16 32.4733ZM349.068 22.9917C349.068 25.8811 351.046 28.0456 353.708 28.0456C356.475 28.0456 358.383 25.7701 358.383 22.9192C358.383 20.0312 356.404 17.9007 353.744 17.9007C350.977 17.9007 349.068 20.1362 349.068 22.9917ZM353.702 13.2108C359.956 13.2108 363.622 17.8445 363.622 22.8393C363.622 27.908 359.738 32.5787 353.667 32.5787C347.448 32.5787 343.748 27.908 343.748 22.9132C343.748 17.883 347.629 13.2108 353.702 13.2108V13.2108ZM334.637 13.7134H339.701C339.802 13.7134 339.882 13.7933 339.882 13.8924V31.8962C339.882 31.9939 339.802 32.0767 339.701 32.0767H334.637C334.537 32.0767 334.455 31.9939 334.455 31.8962V13.8924C334.455 13.7933 334.537 13.7134 334.637 13.7134ZM337.188 11.1598C335.407 11.1598 334.039 9.85931 334.039 8.18157C334.039 6.47129 335.407 5.20781 337.188 5.20781C338.966 5.20781 340.332 6.47129 340.332 8.18157C340.332 9.85931 338.966 11.1598 337.188 11.1598ZM323.808 6.23443L328.875 4.89698C328.99 4.86585 329.103 4.9532 329.103 5.07008V31.8961C329.103 31.9951 329.021 32.0766 328.922 32.0766H323.854C323.754 32.0766 323.673 31.9951 323.673 31.8961V6.41049C323.673 6.32764 323.729 6.25514 323.808 6.23443V6.23443ZM292.897 21.9795H281.037V31.898C281.037 31.9972 280.956 32.0785 280.857 32.0785H275.391C275.292 32.0785 275.211 31.9972 275.211 31.898V7.09741C275.211 6.99976 275.292 6.91839 275.391 6.91839H280.857C280.956 6.91839 281.037 6.9997 281.037 7.09741V16.6593H292.897V7.09741C292.897 6.99976 292.978 6.91839 293.077 6.91839H298.507C298.606 6.91839 298.687 6.9997 298.687 7.09741V31.898C298.687 31.9972 298.606 32.0785 298.507 32.0785H293.077C292.978 32.0785 292.897 31.9972 292.897 31.898V21.9795Z" fill="black"/>
<path d="M264.416 13.4789C264.027 11.5659 263.51 10.3394 262.059 10.5436C260.991 10.696 260.531 11.6784 260.639 12.8279C260.954 16.0887 261.146 19.1601 260.319 22.415C259.957 23.8412 259.153 27.8299 256.603 27.0458C254.752 26.4776 255.139 24.0128 255.244 22.7316C255.628 20.0449 254.74 19.4516 253.926 19.3155C252.8 19.1261 251.945 19.6809 251.577 21.8691C251.427 22.5763 250.198 28.4513 250.139 29.0549C249.969 30.7963 250.59 32.6737 250.716 33.1117C250.759 33.2685 250.864 33.372 251.02 33.409C254.877 34.2257 258.909 33.9446 261.821 32.2402C261.98 32.1455 262.066 32.0346 262.142 31.9355C263.751 29.6156 264.482 26.0797 264.874 23.3264C265.337 20.0641 265.175 16.6879 264.416 13.4789" fill="black"/>
<path d="M243.705 21.3695C244.094 23.2825 244.612 24.5105 246.063 24.3048C247.13 24.1539 247.588 23.1701 247.483 22.022C247.167 18.7612 246.974 15.6898 247.801 12.4349C248.164 11.0087 248.967 7.02151 251.519 7.80415C253.369 8.3708 252.983 10.8386 252.876 12.1183C252.491 14.8036 253.381 15.3998 254.194 15.5345C255.322 15.7253 256.175 15.1705 256.542 12.9794C256.693 12.2737 257.923 6.39717 257.982 5.79354C258.152 4.05366 257.532 2.17472 257.406 1.73827C257.363 1.58145 257.257 1.47788 257.101 1.4409C253.244 0.624221 249.211 0.905323 246.301 2.60969C246.14 2.70142 246.056 2.81534 245.979 2.91446C244.369 5.23429 243.638 8.77026 243.248 11.5251C242.783 14.7844 242.947 18.162 243.705 21.3695" fill="black"/>
<g clip-path="url(#clip0)">
<mask id="mask0" mask-type="alpha" maskUnits="userSpaceOnUse" x="0" y="0" width="22" height="23">
<path d="M0.0859375 0.667725H21.2623V22.8741H0.0859375V0.667725Z" fill="white"/>
</mask>
<g mask="url(#mask0)">
<path fill-rule="evenodd" clip-rule="evenodd" d="M8.6702 22.8741H8.6618C6.363 22.8741 3.9872 22.8183 2.4206 22.1534C1.6114 21.8119 1.0486 21.3519 0.6496 20.7064C0.2128 19.9969 0 19.081 0 17.9059C0 17.0096 0.1274 15.9585 0.3808 14.775C0.4382 14.5059 1.7962 8.1967 1.8872 7.86214C2.2456 6.54761 2.6978 5.46586 3.2718 4.55837C4.263 2.99431 5.5818 1.98505 7.4214 1.38563C8.9544 0.88937 10.906 0.667725 13.7466 0.667725H13.7704C15.2628 0.667725 16.4892 0.772274 17.5196 0.988344C18.7348 1.24205 19.663 1.65746 20.279 2.22203C20.7382 2.64441 21.035 3.16019 21.1638 3.75543C21.2282 4.05514 21.2604 4.3897 21.2604 4.75353C21.2604 5.59272 21.0882 6.46815 20.9496 7.17351C20.93 7.27527 20.9104 7.37564 20.8922 7.47182L20.8866 7.5011H15.393L15.3958 7.46207C15.3958 7.46207 15.4126 7.29618 15.4196 7.22369C15.4196 7.21951 15.4448 6.99787 15.4448 6.68003C15.4448 6.20468 15.2222 5.83248 14.7616 5.53974C14.399 5.33483 13.9356 5.26373 13.4918 5.20937C13.0172 5.15361 12.4866 5.14524 11.984 5.14524C11.06 5.14524 10.3614 5.21913 9.7888 5.37525C9.331 5.49793 8.9502 5.67775 8.6282 5.92309C8.1718 6.26741 7.8176 6.76228 7.5446 7.43419C7.2898 8.06149 7.1064 8.80588 6.9076 9.73149L6.1544 13.2583C5.9136 14.3944 5.7428 15.2559 5.7414 15.9975C5.7414 16.4255 5.8002 16.7628 5.9248 17.0625C6.1208 17.5393 6.5366 17.9115 7.098 18.1094C7.6398 18.306 8.3244 18.3938 9.3184 18.3952C9.9834 18.3952 10.528 18.3826 11.0236 18.3227C11.8832 18.2195 12.4978 17.963 12.9598 17.5156C13.461 17.0291 13.7998 16.3126 14.0252 15.2573L14.1022 14.8976H19.5356L19.5342 14.9353C19.5314 14.9771 19.2276 16.3976 19.068 16.9663C18.9028 17.5588 18.7222 18.0648 18.5164 18.5109C17.9886 19.6581 17.2536 20.5405 16.2008 21.2877C15.183 21.9959 14.0994 22.4336 12.789 22.6622C11.662 22.8588 10.5112 22.8727 9.2302 22.8727H9.2148C9.1882 22.8727 8.736 22.8727 8.6702 22.8741Z" fill="black"/>
</g>
<path fill-rule="evenodd" clip-rule="evenodd" d="M69.5413 22.8741H69.5343C67.2341 22.8741 64.8583 22.8183 63.2931 22.1534C62.4825 21.8119 61.9197 21.3519 61.5221 20.7064C61.0839 19.9969 60.8725 19.081 60.8711 17.9059C60.8711 17.0096 60.9999 15.9585 61.2533 14.775C61.3093 14.5059 62.6673 8.1967 62.7583 7.86214C63.1167 6.54761 63.5689 5.46586 64.1429 4.55837C65.1341 2.99431 66.4529 1.98505 68.2925 1.38563C69.8269 0.88937 71.7771 0.667725 74.6163 0.667725H74.6429C76.1339 0.667725 77.3603 0.772274 78.3921 0.988344C79.6073 1.24205 80.5355 1.65746 81.1501 2.22203C81.6107 2.64441 81.9061 3.16019 82.0335 3.75543C82.0979 4.05374 82.1315 4.3897 82.1315 4.75353C82.1315 5.59272 81.9607 6.46954 81.8221 7.17351C81.8011 7.27667 81.7829 7.37564 81.7633 7.47182L81.7577 7.5011H76.2641L76.2683 7.46207C76.2683 7.46207 76.2851 7.29618 76.2921 7.22369C76.2921 7.21951 76.3159 6.99787 76.3159 6.68003C76.3159 6.20468 76.0919 5.83248 75.6341 5.53974C75.2701 5.33483 74.8067 5.26373 74.3629 5.20937C73.8897 5.15361 73.3577 5.14524 72.8551 5.14524C71.9311 5.14524 71.2325 5.21913 70.6599 5.37525C70.2021 5.49793 69.8227 5.67775 69.4993 5.92309C69.0429 6.26741 68.6901 6.76228 68.4171 7.43419C68.1609 8.06149 67.9775 8.80588 67.7801 9.73149L67.0269 13.2583C66.7847 14.3944 66.6139 15.2559 66.6125 15.9975C66.6125 16.4255 66.6713 16.7628 66.7959 17.0625C66.9919 17.5393 67.4077 17.9115 67.9691 18.1094C68.5109 18.306 69.1955 18.3938 70.1895 18.3952C70.8559 18.3952 71.3991 18.3826 71.8947 18.3227C72.7529 18.2195 73.3703 17.963 73.8323 17.5156C74.3321 17.0291 74.6709 16.3126 74.8977 15.2573L74.9733 14.8976H80.4067L80.4053 14.9353C80.4025 14.9771 80.0973 16.3976 79.9391 16.9663C79.7739 17.5588 79.5933 18.0648 79.3889 18.5109C78.8611 19.6581 78.1247 20.5405 77.0719 21.2877C76.0555 21.9959 74.9705 22.4336 73.6615 22.6622C72.5331 22.8588 71.3823 22.8727 70.1027 22.8727H70.0859C70.0593 22.8727 69.6071 22.8727 69.5413 22.8741Z" fill="black"/>
<path fill-rule="evenodd" clip-rule="evenodd" d="M57.7552 22.6901H41.9492L41.959 22.6468L46.3788 1.93762C46.4572 1.55706 46.6 1.29499 46.831 1.11656C47.0662 0.933942 47.391 0.844727 47.8222 0.844727H61.1586C61.4876 0.846121 61.7256 0.920002 61.8684 1.06498C61.9762 1.1751 62.0336 1.33681 62.035 1.53336V1.55009C62.0336 1.62955 62.0238 1.71179 62.0042 1.79404L61.314 5.02672H50.989L50.0944 9.30908H59.7838L58.9018 13.3475H49.2124L48.1092 18.5164H58.6456L57.7552 22.6901Z" fill="black"/>
<path fill-rule="evenodd" clip-rule="evenodd" d="M86.0977 22.6901H80.8281L80.8365 22.6468L85.2423 2.00871C85.3473 1.56124 85.5181 1.25177 85.7617 1.06498C85.9563 0.917214 86.2055 0.846121 86.5261 0.844727H89.6453C89.9813 0.846121 90.2319 0.924184 90.3901 1.07613C90.5147 1.19601 90.5805 1.36887 90.5819 1.57518C90.5819 1.63791 90.5763 1.70343 90.5637 1.77034L86.0977 22.6901Z" fill="black"/>
<path fill-rule="evenodd" clip-rule="evenodd" d="M100.606 22.6887H93.9657L93.9559 22.6691L89.0391 11.3387L89.0559 11.322L97.5609 2.12581C98.0845 1.55427 98.3967 1.26432 98.6711 1.09565C98.9693 0.913032 99.2255 0.847515 99.6539 0.844727H103.941C104.141 0.846121 104.267 0.911638 104.337 0.967398C104.38 1.00364 104.408 1.0371 104.426 1.07334C104.44 1.09704 104.449 1.1291 104.453 1.16116H104.463L104.454 1.22947C104.446 1.31869 104.4 1.46506 104.223 1.66161L95.0437 11.4893L100.606 22.6887Z" fill="black"/>
<path fill-rule="evenodd" clip-rule="evenodd" d="M33.9704 22.6901H33.927L33.9368 22.6468L35.8142 13.8256H27.1258L25.233 22.6901H19.9648L19.9746 22.6468C20.1524 21.8104 24.3398 2.13557 24.365 2.02684C24.5204 1.37863 24.778 1.15559 24.9852 1.03431C25.2092 0.904668 25.5228 0.844727 25.9694 0.844727H28.8184C28.9668 0.846121 29.2076 0.90885 29.391 1.03989C29.489 1.10819 29.566 1.19044 29.6192 1.28244C29.6794 1.38699 29.7088 1.50548 29.7088 1.64349C29.7088 1.70343 29.7018 1.76755 29.692 1.83446C29.6696 1.95992 28.2234 8.68317 28.0792 9.34811H36.7676C37.4746 6.02761 38.316 2.07423 38.3272 2.02684C38.4826 1.37863 38.7402 1.15559 38.9474 1.03431C39.1714 0.904668 39.485 0.844727 39.9316 0.844727H42.7806C42.9276 0.846121 43.1698 0.90885 43.3532 1.03989C43.4512 1.10819 43.5282 1.19044 43.58 1.28244C43.6402 1.38699 43.6696 1.50548 43.6696 1.64349C43.6696 1.70343 43.664 1.76755 43.6528 1.83446C43.6304 1.96411 39.3814 21.816 39.2022 22.6622L39.1966 22.6901H33.9704Z" fill="black"/>
<mask id="mask1" mask-type="alpha" maskUnits="userSpaceOnUse" x="101" y="0" width="39" height="35">
<path d="M101.898 0.697021H139.999V34.7691H101.898V0.697021Z" fill="white"/>
</mask>
<g mask="url(#mask1)">
<path fill-rule="evenodd" clip-rule="evenodd" d="M116.143 5.1188C116.547 5.22196 116.871 5.42409 117.044 5.76004C117.159 5.98169 117.207 6.24515 117.207 6.55323C117.207 6.87106 117.156 7.24047 117.064 7.68097C116.941 8.25251 116.82 8.72229 116.638 9.12794C116.456 9.5322 116.207 9.87233 115.847 10.1525C115.124 10.7171 113.998 11.0628 112.004 11.5075C109.367 12.0916 107.545 12.5781 106.263 13.2124C104.982 13.8494 104.233 14.6119 103.672 15.8122C103.299 16.6151 103.015 17.6146 102.743 18.8873L102 22.6581H119.091L119.888 18.8371H107.996C107.996 18.8371 108.181 17.9185 108.331 17.5811C108.527 17.1462 108.78 16.82 109.112 16.5775C109.442 16.3335 109.843 16.176 110.33 16.0394C111.306 15.7703 112.654 15.5877 114.638 15.0831C117.084 14.453 118.734 13.7658 119.898 12.6478C121.061 11.5326 121.772 9.96434 122.297 7.50672C122.492 6.59644 122.6 5.70289 122.6 5.0254C122.6 4.051 122.412 3.30661 122.075 2.73367C121.739 2.15935 121.25 1.74812 120.614 1.44422C119.346 0.836442 117.484 0.695648 115.273 0.697032C112.462 0.695648 110.249 0.986993 108.604 1.99207C106.96 2.99574 105.814 4.82467 105.178 7.79807L104.997 8.63865H110.194L110.392 7.71024C110.596 6.81948 110.784 6.21309 111.122 5.78234C111.46 5.34742 111.947 5.14111 112.613 5.05747C113.06 4.99892 113.6 4.98637 114.274 4.98637C114.38 4.98498 114.482 4.98358 114.58 4.98358C115.222 4.98498 115.734 5.01286 116.143 5.1188Z" fill="black"/>
<path fill-rule="evenodd" clip-rule="evenodd" d="M130.48 3.01233C129.875 3.63684 124.803 8.92148 122.727 11.0878C122.313 11.531 121.869 12.0217 121.671 12.4246C121.513 12.7187 121.305 13.5384 121.198 14.1239C120.977 15.3422 120.812 16.456 120.71 16.9133C120.683 17.0318 120.672 17.1391 120.672 17.2395C120.673 17.6145 120.83 17.8654 121.04 18.0438C121.251 18.2208 121.531 18.3031 121.814 18.3031C122.068 18.3031 131.882 18.3031 131.882 18.3031L130.955 22.6621L136.255 22.1645L137.078 18.3031H138.97L139.794 14.4459H137.9C137.9 14.4459 139.793 5.63722 139.852 5.31103C140.503 1.74658 139.016 0.703868 135.67 0.703868C134.815 0.703868 132.881 0.528224 130.48 3.01233ZM132.705 14.4459H125.099L134.147 5.1089H134.697L132.705 14.4459Z" fill="black"/>
<path fill-rule="evenodd" clip-rule="evenodd" d="M118.616 34.8498C115.196 34.8484 111.91 33.9409 109.115 32.2207C106.371 30.5326 104.77 28.5419 104.012 27.417L103.013 29.9819C102.922 30.2161 102.671 30.3639 102.408 30.3207C102.145 30.2747 101.954 30.053 101.953 29.791L101.898 24.767V24.7628C101.9 24.622 101.957 24.4882 102.058 24.3892C102.163 24.2861 102.3 24.2303 102.446 24.2303L107.581 24.2275H107.587C107.84 24.2359 108.06 24.4213 108.109 24.6666C108.114 24.7001 108.119 24.7349 108.119 24.7698C108.119 24.9914 107.979 25.1936 107.769 25.2744L105.261 26.2418C107.459 28.1907 111.987 31.3271 118.344 31.3285C118.887 31.3285 119.439 31.3048 119.985 31.2588C122.666 31.0316 125.371 30.375 127.811 29.363C129.945 28.4736 131.83 27.3389 133.27 26.0774L130.684 25.3176C130.453 25.2521 130.289 25.0388 130.289 24.7977C130.289 24.7809 130.29 24.7642 130.292 24.7447C130.318 24.4868 130.526 24.2819 130.787 24.2582L135.804 23.8023C135.827 23.7996 135.847 23.7996 135.862 23.7996C135.988 23.7996 136.113 23.8456 136.211 23.925C136.324 24.0212 136.394 24.1522 136.406 24.2972C136.823 29.2055 136.823 29.2069 136.823 29.225C136.823 29.4703 136.658 29.6836 136.418 29.7477C136.373 29.7603 136.327 29.7673 136.278 29.7673C136.067 29.7673 135.874 29.6488 135.783 29.4662L134.573 27.1535C133.599 28.4611 131.906 30.3095 129.257 31.914C126.571 33.5408 123.566 34.5041 120.335 34.7759L120.01 34.8038V34.801C119.543 34.833 119.074 34.8498 118.616 34.8498Z" fill="black"/>
</g>
</g>
<g clip-path="url(#clip1)">
<path d="M549.71 15.8238L546.001 21.0148L554.572 33.5094V15.8238H549.71ZM524.051 16.8872V32.8938L532.145 20.9168L528.351 15.9637C531.457 15.1522 534.366 13.7391 536.909 11.7942L539.354 14.8864L543.991 7.90449H570.367V15.8238H564.437V35.1605H543.991L538.764 27.395L533.326 35.1605H514.103V29.8436C512.725 33.5794 508.355 35.902 499.713 35.902C486.884 35.902 486.251 31.3827 486.055 26.2197H496.2C496.228 27.7588 496.495 28.8781 497.142 29.6197C497.872 30.4033 498.912 30.809 499.994 30.7391C502.06 30.7391 504.28 30.1654 504.28 27.9267C504.28 27.465 504.126 27.0172 503.859 26.6535C502.496 24.8625 491.198 23.5473 488.022 20.2732C486.743 18.958 486.35 16.9991 486.35 15.4041C486.35 9.33165 491.099 6.56128 500.556 6.56128C510.604 6.56128 512.992 10.0592 513.119 15.8098H503.353C503.282 14.2707 502.819 13.0535 502.144 12.4938C501.54 11.9481 500.725 11.6683 499.91 11.7242C497.816 11.7662 496.706 12.6617 496.706 14.0609C496.692 14.5226 496.847 14.9703 497.128 15.3341C498.659 17.0831 509.592 18.3284 512.739 21.6584C513.344 22.274 513.807 23.0156 514.103 23.8131V17.3769C517.433 17.5308 520.763 17.3629 524.051 16.8872Z" fill="black"/>
<path d="M514.104 7.89063C524.235 8.63219 529.941 5.76388 531.894 2.02808H542.222C539.117 10.9828 529.421 16.5935 514.09 15.838V7.89063H514.104Z" fill="black"/>
</g>
<path d="M117.709 82.8472V80.8126H113.481C112.522 80.8126 112.195 80.3448 112.195 79.4319V66.1917H109.809V79.5725C109.809 81.3267 110.791 82.8472 113.06 82.8472H117.709Z" fill="black"/>
<path d="M126.653 75.9465H121.32C121.343 75.2211 121.39 74.8704 121.623 74.3326C121.998 73.4432 122.864 72.8351 123.986 72.8351C125.109 72.8351 125.951 73.4432 126.326 74.3326C126.559 74.8704 126.63 75.2211 126.653 75.9465ZM129.016 77.6074V76.5546C129.016 73.1861 127.168 70.8467 123.986 70.8467C120.945 70.8467 118.957 73.069 118.957 76.9053C118.957 81.4202 121.32 82.9877 124.29 82.9877C126.372 82.9877 127.519 82.3562 128.735 81.1398L127.215 79.7129C126.372 80.5548 125.671 80.9293 124.337 80.9293C122.395 80.9293 121.32 79.6423 121.32 77.6074H129.016V77.6074Z" fill="black"/>
<path d="M133.925 70.9868H131.539V82.8467H133.925V70.9868Z" fill="black"/>
<path d="M144.365 76.9053C144.365 79.0111 144.061 80.859 141.909 80.859C139.756 80.859 139.429 79.0111 139.429 76.9053C139.429 74.7998 139.756 72.9753 141.909 72.9753C144.061 72.9753 144.365 74.7998 144.365 76.9053ZM146.751 76.9053C146.751 75.104 146.611 73.0924 145.418 71.8991C144.763 71.2442 143.71 70.8467 142.517 70.8467C141.23 70.8467 140.272 71.1743 139.382 72.2499V70.9869H137.043V87.6428H139.429V81.6307C140.294 82.6601 141.277 82.9877 142.54 82.9877C143.733 82.9877 144.763 82.5898 145.418 81.9352C146.611 80.7413 146.751 78.707 146.751 76.9053Z" fill="black"/>
<path d="M157.358 82.8472V80.7186H151.416L157.358 72.882V70.9873H148.843V73.1156H154.41L148.516 80.9528V82.8472H157.358Z" fill="black"/>
<path d="M162.355 70.9868H159.969V82.8467H162.355V70.9868Z" fill="black"/>
<path d="M171.935 76.6949C171.935 78.5665 171.678 80.4147 169.526 80.4147C167.374 80.4147 167.093 78.5668 167.093 76.6949C167.093 74.8236 167.374 72.9754 169.526 72.9754C171.678 72.9754 171.935 74.8233 171.935 76.6949ZM174.322 82.7773V70.987H172.006V72.2503C171.116 71.1741 170.158 70.8462 168.894 70.8462C167.701 70.8462 166.695 71.2209 166.041 71.8761C164.894 73.0223 164.707 74.6834 164.707 76.6949C164.707 78.7065 164.894 80.3679 166.041 81.5137C166.695 82.1689 167.678 82.5668 168.871 82.5668C170.088 82.5668 171.07 82.2395 171.936 81.2098V82.7307C171.936 84.3213 171.163 85.7482 169.152 85.7482C167.982 85.7482 167.327 85.3972 166.579 84.6957L165.058 86.216C166.298 87.3622 167.445 87.7831 169.246 87.7831C172.403 87.7831 174.322 85.6776 174.322 82.7773Z" fill="black"/>
<path d="M184.63 75.9465H179.297C179.32 75.2211 179.367 74.8704 179.601 74.3326C179.974 73.4432 180.84 72.8351 181.963 72.8351C183.087 72.8351 183.928 73.4432 184.303 74.3326C184.536 74.8704 184.606 75.2211 184.63 75.9465ZM186.992 77.6074V76.5546C186.992 73.1861 185.145 70.8467 181.963 70.8467C178.922 70.8467 176.934 73.069 176.934 76.9053C176.934 81.4202 179.297 82.9877 182.267 82.9877C184.349 82.9877 185.496 82.3562 186.712 81.1398L185.191 79.7129C184.349 80.5548 183.647 80.9293 182.314 80.9293C180.372 80.9293 179.297 79.6423 179.297 77.6074H186.992V77.6074Z" fill="black"/>
<path d="M196.032 70.9869V73.0218H193.18C192.221 73.0218 191.893 73.4897 191.893 74.4025V82.8468H189.508V74.2614C189.508 72.5072 190.49 70.9866 192.759 70.9866H196.032V70.9869Z" fill="black"/>
<path d="M133.995 66.1216H131.469V68.6478H133.995V66.1216Z" fill="black"/>
<path d="M162.425 66.1216H159.898V68.6478H162.425V66.1216Z" fill="black"/>
<path d="M80 66H84.9487C84.9487 66 84.9487 80.9722 84.9487 90.7799C84.9487 93.5127 87.1642 95.7281 89.8973 95.7281C94.7424 95.7281 99.7716 95.7282 99.7716 95.7282V100.676C99.7716 100.676 94.7424 100.676 89.8973 100.676C84.4312 100.676 80 96.2455 80 90.7799V66V66Z" fill="black"/>
<path d="M112.58 100.85C111.352 100.85 110.569 100.511 109.809 99.7504L110.253 99.306C111.002 100.055 111.621 100.288 112.616 100.288C113.937 100.288 114.756 99.6576 114.756 98.5692C114.756 98.0671 114.615 97.6686 114.299 97.4003C113.983 97.1548 113.785 97.049 113.095 96.9553L112.125 96.8035C111.493 96.7092 111.002 96.5109 110.639 96.1951C110.206 95.8332 109.984 95.3185 109.984 94.6633C109.984 93.2601 110.966 92.3826 112.569 92.3826C113.598 92.3826 114.253 92.6639 114.966 93.2835L114.557 93.6924C114.066 93.2248 113.516 92.921 112.533 92.921C111.318 92.921 110.604 93.5759 110.604 94.6399C110.604 95.1196 110.744 95.4821 111.037 95.7273C111.329 95.9728 111.809 96.1602 112.276 96.242L113.176 96.3825C113.96 96.4874 114.323 96.6402 114.662 96.9319C115.119 97.3066 115.387 97.8794 115.387 98.5458C115.387 99.9612 114.323 100.85 112.58 100.85Z" fill="black"/>
<path d="M117.35 99.3062V95.5874H116.578V95.143H117.35V93.3413H117.947V95.143H119.221V95.5874H117.947V99.3184C117.947 99.9146 118.216 100.254 118.812 100.254H119.221V100.78H118.707C117.818 100.779 117.35 100.16 117.35 99.3062Z" fill="black"/>
<path d="M124.297 100.218C123.818 100.698 123.373 100.85 122.577 100.85C121.736 100.85 121.279 100.709 120.917 100.336C120.648 100.067 120.508 99.6576 120.508 99.236C120.508 98.207 121.245 97.6108 122.473 97.6108H124.297V96.979C124.297 96.0789 123.864 95.5989 122.707 95.5989C121.911 95.5989 121.513 95.7979 121.151 96.3122L120.719 95.9384C121.198 95.2719 121.783 95.073 122.707 95.073C124.204 95.073 124.893 95.7391 124.893 96.9203V100.78H124.296V100.218H124.297ZM122.543 98.0905C121.584 98.0905 121.104 98.4643 121.104 99.2247C121.104 99.9727 121.549 100.324 122.578 100.324C123.092 100.324 123.573 100.277 123.981 99.8912C124.192 99.6926 124.297 99.3294 124.297 98.8153V98.0905H122.543Z" fill="black"/>
<path d="M130.352 100.055C129.849 100.709 129.322 100.85 128.679 100.85C128.083 100.85 127.592 100.651 127.3 100.359C126.726 99.7863 126.574 98.8506 126.574 97.9612C126.574 97.0724 126.726 96.1371 127.3 95.5643C127.592 95.2717 128.083 95.0731 128.679 95.0731C129.322 95.0731 129.849 95.2127 130.352 95.8679V92.4529H130.948V100.779H130.352V100.055ZM128.761 95.5987C127.381 95.5987 127.17 96.7923 127.17 97.9612C127.17 99.1311 127.381 100.324 128.761 100.324C130.141 100.324 130.352 99.1311 130.352 97.9612C130.352 96.7923 130.141 95.5987 128.761 95.5987Z" fill="black"/>
<path d="M133.354 99.3062V95.5874H132.582V95.143H133.354V93.3413H133.951V95.143H135.225V95.5874H133.951V99.3184C133.951 99.9146 134.219 100.254 134.816 100.254H135.225V100.78H134.711C133.822 100.779 133.354 100.16 133.354 99.3062Z" fill="black"/>
<path d="M141.633 100.78L140.043 96.0787L138.453 100.78H137.844L136.043 95.1433H136.698L138.137 100.079L139.75 95.1433H140.335L141.949 100.079L143.388 95.1433H144.042L142.242 100.78H141.633Z" fill="black"/>
<path d="M147.362 100.312C148.028 100.312 148.438 100.113 148.918 99.6339L149.362 99.9846C148.789 100.557 148.263 100.85 147.328 100.85C145.772 100.85 144.93 99.8441 144.93 97.9609C144.93 96.1368 145.772 95.0728 147.187 95.0728C148.602 95.0728 149.444 96.0896 149.444 97.821V98.0899H145.526C145.526 99.5284 146.158 100.312 147.362 100.312ZM148.649 96.5465C148.403 95.9491 147.842 95.599 147.187 95.599C146.531 95.599 145.971 95.9491 145.725 96.5465C145.596 96.9088 145.561 97.0609 145.526 97.6102H148.847C148.812 97.0724 148.801 96.886 148.649 96.5465Z" fill="black"/>
<path d="M157.219 97.6807L155.933 99.1657V100.78H155.336V92.4531H155.933V98.3238L158.728 95.1433H159.488L157.629 97.2476L159.897 100.78H159.16L157.219 97.6807Z" fill="black"/>
<path d="M163.229 100.312C163.896 100.312 164.306 100.113 164.785 99.6339L165.23 99.9846C164.656 100.557 164.13 100.85 163.195 100.85C161.639 100.85 160.797 99.8441 160.797 97.9609C160.797 96.1368 161.639 95.0728 163.054 95.0728C164.47 95.0728 165.311 96.0896 165.311 97.821V98.0899H161.393C161.393 99.5284 162.025 100.312 163.229 100.312ZM164.516 96.5465C164.271 95.9491 163.709 95.599 163.054 95.599C162.399 95.599 161.838 95.9491 161.592 96.5465C161.463 96.9088 161.428 97.0609 161.393 97.6102H164.715C164.68 97.0724 164.668 96.886 164.516 96.5465Z" fill="black"/>
<path d="M152.537 95.1431H153.889V95.669H152.642C151.975 95.669 151.776 95.9732 151.776 96.6162V100.78H151.18V96.6043C151.18 95.7161 151.613 95.1431 152.537 95.1431Z" fill="black"/>
<g clip-path="url(#clip2)">
<path d="M471.84 98.0351V84.7859C471.84 80.9784 474.448 78.4183 478.254 78.4183C481.526 78.4183 482.975 79.9405 482.975 83.5033V98.0351H484.83V83.3005C484.83 78.8364 482.687 76.6669 478.243 76.6669C475.311 76.6669 473.058 78.0465 471.687 80.6601L471.461 81.0885L471.346 80.6203C470.678 78.0706 468.643 76.6669 465.6 76.6669C464.664 76.6669 463.799 76.8178 463.016 77.1033C459.802 78.169 458.849 80.5828 458.849 80.5828V77.4467H456.732V98.0351H458.849V84.9455C458.849 81.1053 461.403 78.4183 465.174 78.4183C468.245 78.4183 469.72 80.2113 469.72 83.7433V98.0351H471.84ZM427.705 78.3056C431.576 78.3056 434.105 81.2639 434.309 85.8556L420.904 85.8539C421.146 81.3325 423.818 78.3056 427.705 78.3056ZM434.078 91.6983C433.525 94.6024 430.944 96.4034 427.668 96.4034C423.391 96.4034 420.579 92.9912 420.579 87.8724V87.7392H436.22V86.9477C436.22 80.3653 433.121 76.6194 427.647 76.6194C422.058 76.6194 418.762 80.6782 418.762 87.438C418.762 94.1121 422.085 98.1462 427.651 98.1462C432.225 98.1462 435.521 95.6577 436.114 91.6983H434.078ZM412.575 86.1468C412.575 81.212 414.807 78.7658 419.051 78.7658H419.201V76.9166H419.091C416.94 76.9166 415.292 77.4722 414.073 78.7095C413.216 79.4489 412.623 80.464 412.309 81.0966V80.5587V77.4467H410.455V98.0351H412.575V86.1468ZM328.604 94.4545C324.822 94.4545 322.706 91.8603 322.706 86.9985C322.706 82.1401 324.822 79.5091 328.604 79.5091C332.347 79.5091 334.46 82.1003 334.46 86.9985C334.46 91.8603 332.347 94.4545 328.604 94.4545ZM328.564 75.619C322.015 75.619 318.069 79.8301 318.069 86.9985C318.069 94.1697 322.057 98.3416 328.604 98.3416C335.113 98.3416 339.103 94.1292 339.103 86.9985C339.103 79.8716 335.113 75.619 328.564 75.619ZM441.048 89.2798C441.259 89.0847 441.503 88.9023 441.768 88.7323C442.091 88.5482 443.855 87.6264 446.749 87.4316C448.902 87.2804 450.604 87.0665 451.889 86.5718L452.141 86.4768L452.17 88.5612L452.163 88.5656C452.163 88.5656 452.165 88.587 452.17 88.6278L452.176 89.1751L452.186 89.6446C452.182 89.6597 452.182 89.6741 452.182 89.6865C452.181 89.7725 452.174 89.8511 452.17 89.9331C452.14 90.4569 452.044 91.1956 451.776 91.9811C451.144 93.6951 449.654 95.5332 446.244 96.1236C445.741 96.1966 445.212 96.2361 444.658 96.2361C441.695 96.2361 439.78 94.6269 439.78 92.1361C439.78 91.4734 439.928 90.8733 440.22 90.3304C440.246 90.2836 440.27 90.2364 440.297 90.1959C440.317 90.1624 440.341 90.1293 440.36 90.0945C440.502 89.8756 440.666 89.6704 440.84 89.4826C440.868 89.4559 440.895 89.4284 440.921 89.401C440.962 89.3605 441.005 89.3206 441.048 89.2798V89.2798ZM437.67 92.1786C437.67 95.7548 440.217 97.9788 444.318 97.9788C447.233 97.9788 449.796 96.8181 451.86 94.5275L452.224 94.1633V94.9723C452.224 96.4928 452.754 97.7971 454.078 98.0351V82.6733C454.078 78.6985 451.559 76.6244 446.716 76.6244C441.988 76.6244 438.894 79.2929 438.718 82.9899H440.712C440.939 80.0848 442.925 78.3648 446.785 78.3648C450.59 78.3648 452.145 79.7009 452.145 83.0364C452.145 84.8468 451.553 85.2136 449.885 85.5781C448.66 85.8388 446.881 86.0068 446.267 86.0601C446.207 86.0627 446.147 86.0678 446.091 86.0741C446.065 86.0755 446.048 86.0755 446.048 86.0755V86.0781C444.191 86.2324 442.444 86.453 440.89 87.1569C438.782 88.1288 437.67 89.8632 437.67 92.1786V92.1786ZM350.957 94.3718C347.501 94.3718 345.344 91.7378 345.344 87.121C345.344 82.2616 347.501 79.5894 350.957 79.5894C354.658 79.5894 356.651 82.0598 356.651 86.8372C356.651 91.7793 354.619 94.3718 350.957 94.3718ZM356.646 78.9411C355.057 76.7121 352.825 75.619 349.937 75.619C344.691 75.619 340.768 79.9931 340.768 87.0809C340.768 93.9659 344.602 98.3416 349.966 98.3416C352.775 98.3416 354.79 97.2455 356.646 94.8555V98.0351H360.889V68.7353H356.646V78.9411ZM309.714 84.8933L306.99 84.2865C304.669 83.7601 303.408 83.1131 303.408 81.5735C303.408 80.2762 304.629 79.3719 307.029 79.3719C309.835 79.3719 311.422 80.6129 311.543 82.7242H315.978C315.978 78.5003 312.64 75.7291 307.191 75.7291C301.904 75.7291 298.814 78.3481 298.814 82.3185C298.814 85.8017 301.011 87.3125 305.485 88.4056L308.698 89.1995C310.812 89.7283 312.032 90.2474 312.032 91.7843C312.032 93.4461 310.486 94.7079 307.72 94.7079C304.549 94.7079 302.881 93.5468 302.675 90.9064H298.203C298.203 95.6577 301.457 98.4307 307.313 98.4307C313.255 98.4307 316.587 95.6735 316.587 91.2562C316.587 87.3289 314.27 85.9483 309.714 84.8933ZM376.743 89.6312C376.743 92.6696 374.2 94.6952 370.943 94.6952C368.707 94.6952 367.477 93.5599 367.477 91.617C367.477 89.8756 368.448 88.8246 370.564 88.4176C372.678 88.0103 374.888 87.933 376.743 86.9584V89.6312ZM372.715 75.619C367.182 75.619 364.016 78.3313 364.016 82.5043V82.9899H368.259V82.7051C368.259 80.5621 369.732 79.3461 372.538 79.3461C375.509 79.3461 376.916 80.2762 376.916 82.3416C376.916 84.3277 375.932 84.3669 372.151 84.8552C366.416 85.5801 363.037 86.9584 363.037 92.0223C363.037 95.9091 365.557 98.3416 369.949 98.3416C372.753 98.3416 375.318 97.0829 377.068 94.8173C377.107 97.0055 378.358 98.0555 381.124 98.0555C381.181 98.0555 381.248 98.0508 381.248 98.0508V81.938C381.248 77.7657 378.408 75.619 372.715 75.619ZM407.802 96.0503C407.273 96.2167 406.351 96.3977 405.735 96.3977C404.205 96.3977 404.092 95.4372 404.092 93.9742V79.0285H407.802V77.4467H404.092V69.5279H401.972V93.9742C401.972 96.9681 402.689 97.9788 405.048 97.9788C405.879 97.9788 406.742 97.8423 407.802 97.5819V96.0503ZM393.32 86.6136C392.941 86.5209 392.578 86.4413 392.228 86.3573C388.594 85.5115 386.4 85.0068 386.4 82.0893C386.4 79.8538 388.298 78.426 391.24 78.426C394.568 78.426 396.593 80.0848 396.828 82.9899H398.936C398.586 79.0285 395.807 76.6853 391.28 76.6853C387.098 76.6853 384.289 78.981 384.289 82.4313C384.289 85.8375 386.559 86.9657 391.644 88.1911L391.759 88.2322C395.398 89.0971 397.403 89.6008 397.403 92.2767C397.403 94.7798 395.139 96.4476 391.642 96.4476C388.512 96.4476 386.109 94.3377 385.966 91.6983H383.857C384.064 95.6577 387.146 98.1843 391.762 98.1843C396.396 98.1843 399.513 95.807 399.513 92.3403C399.513 89.2671 397.889 87.7295 393.32 86.6136Z" fill="black"/>
<path d="M488.547 78.9978C488.976 78.9978 489.4 78.9831 489.4 78.5028C489.4 78.1096 489.069 78.0168 488.724 78.0168H488.084V78.9978H488.547ZM488.084 80.5478H487.736V77.721H488.826C489.466 77.721 489.748 77.9968 489.748 78.5028C489.748 79.0035 489.421 79.2264 489.036 79.293L489.882 80.5478H489.472L488.673 79.293H488.084V80.5478ZM486.553 79.134C486.553 80.3055 487.438 81.2326 488.626 81.2326C489.815 81.2326 490.7 80.3055 490.7 79.134C490.7 77.9646 489.815 77.0385 488.626 77.0385C487.438 77.0385 486.553 77.9646 486.553 79.134ZM491.084 79.134C491.084 80.51 490.015 81.5803 488.626 81.5803C487.239 81.5803 486.168 80.51 486.168 79.134C486.168 77.7598 487.239 76.6881 488.626 76.6881C490.015 76.6881 491.084 77.7598 491.084 79.134Z" fill="black"/>
</g>
<defs>
<clipPath id="clip0">
<rect width="140" height="34.8499" fill="white"/>
</clipPath>
<clipPath id="clip1">
<rect width="84.4526" height="34" fill="white" transform="translate(486 2)"/>
</clipPath>
<clipPath id="clip2">
<rect width="193.109" height="29.8714" fill="white" transform="translate(298.031 68.687)"/>
</clipPath>
</defs>
</svg>
