<svg version="1.1" id="Ebene_2" xmlns="http://www.w3.org/2000/svg" xmlns:xlink="http://www.w3.org/1999/xlink" x="0px" y="0px"
	 width="300" height="150" viewBox="0 0 300 150" style="enable-background:new 0 0 300 150;" xml:space="preserve">
<style type="text/css">
	.st0{fill:#E2061C;}
</style>
<g>
	<g>
		<path class="st0" d="M86.1,47.6c0,14.5,0,29,0,43.6c0,9.6,7.8,17.4,17.4,17.4c31,0,62,0,93,0c8.8,0,16.1-6.6,17.3-15.1
			c0-15.3,0-30.6,0-45.9C171.3,47.6,128.7,47.6,86.1,47.6z M105.3,87.7c-2,0.2-3.8,0.1-5.5-0.7c-1.8-0.8-3-2.4-3.1-4.2
			c-0.2-4.8-0.1-9.6-0.1-14.4c0.7-0.4,1.4-0.3,2-0.2c2,0.3,2.6,1,2.7,2.9c0.1,0.9,0,1.9,0,3.2c1.5-1.3,2.9-1.7,4.6-1.5
			c1.8,0.2,3.3,1,4.4,2.5C113.7,80.2,110.9,87.1,105.3,87.7z M124.3,81.8c-1.2,0.2-2.5,0.1-3.8,0.2c-0.6,0-1.3-0.1-2,0.3
			c0.7,2,2.3,1.8,3.6,1.8c1.4,0,2.9,0.1,4.1-0.8c0.6,2.1,0,3.4-2,4.1c-3.2,1.1-7,0.5-9.2-2c-2-2.4-2.2-6.1-0.4-9.1
			c2.3-3.9,8.2-4.7,11.3-1.5c1,1,1.4,2.3,1.5,3.6C127.5,80.1,126.3,81.5,124.3,81.8z M134.3,82.2c0,0.9,0.6,1.4,1.5,1.5
			c0.7,0.1,1.4,0,2.1,0c1,2.8-0.6,3.9-3,3.9c-3.5,0.1-5.3-1.6-5.4-5.1c-0.1-2.6,0-5.2,0-7.8c0-3.2,1.1-4.4,4.5-5
			c0.8,0.9,0,2.2,0.7,3.5c1.2,0,2.5,0,3.7,0c0.4,3.1-0.2,3.8-3.8,3.9C134,78.8,134.3,80.5,134.3,82.2z M145.2,81.7
			c0,1.7,0.5,2.1,2.1,2.1c0.5,0,0.9-0.2,1.4-0.2c0.5,0.5,0.3,1.2,0.3,1.8c0.1,1-0.5,1.7-1.4,2c-3.2,1.2-7.3,0-7.3-4.4
			c0-2.9,0-5.9,0-8.8c0-2.7,1.5-4.1,4.6-4.3c0.1,1.1,0.1,2.1,0.2,3.3c1.4,0.1,2.7,0.1,4,0.2c0.2,3-0.2,3.5-4.1,4
			C145.2,78.7,145.1,80.2,145.2,81.7z M160.9,87c-0.4,0.4-0.7,0.4-1,0.4c-3.3,0.1-4-0.6-4-4c0-2.8,0-5.7,0-8.6
			c-1-0.3-1.7,0.1-2.3,0.2c-1.2,0.1-2.1-0.4-2.4-1.4c-0.4-1.2-0.2-1.7,1-2.2c1.2-0.5,2.5-1,3.7-1.6c0.8-0.4,1.7-0.4,2.6-0.4
			c1.4,0,2.2,0.7,2.5,2.1c0,0.2,0,0.5,0,0.7C160.9,77.2,160.9,82.2,160.9,87z M167.7,87.5c-1.4,0-2.8-1.3-2.8-2.7
			c-0.1-1.5,1.2-2.9,2.8-2.9c1.5,0,2.9,1.4,2.8,2.9C170.4,86.2,169.2,87.5,167.7,87.5z M187.1,82.7c-0.4,2.1-1.4,3.7-3.5,4.5
			c-4.3,1.7-8.5,0.5-10.6-3.1c-1.8-3.2-0.8-7.2,1.1-9.3c2-2.2,4.9-2.5,8.3-0.8c0-2,0-3.7,0-5.4c0.7-0.7,1.5-0.4,2.1-0.4
			c1.5,0.1,2.2,0.7,2.7,2.2c0.1,0.3,0.2,0.6,0.2,0.9C187.4,75.1,187.8,78.9,187.1,82.7z M203.4,79.4c-0.2,1-0.9,1.6-1.8,2
			c-1,0.4-2.2,0.5-3.3,0.5c-1.2,0.1-2.4-0.2-3.7,0.2c0.8,2,2.3,1.9,3.7,1.9c1.4,0,2.8-0.1,4.1-0.7c0.4,2-0.1,3-1.6,3.8
			c-3.6,1.9-8.8,0.3-10.5-3.2c-1.9-3.8-0.3-8.8,3.5-10.6c2.2-1,4.5-0.9,6.7,0.1C202.8,74.5,203.9,76.9,203.4,79.4z"/>
		<path class="st0" d="M179.7,76.6c-1.1-0.1-1.8,0.6-2.2,1.5c-0.7,1.4-0.6,2.9,0,4.3c0.6,1.3,1.8,1.8,3.1,1.5c1-0.2,1.6-1,1.8-2.5
			c0-0.3,0-0.6,0.1-0.9c-0.1-0.8,0-1.6-0.4-2.3C181.6,77.2,180.9,76.6,179.7,76.6z"/>
		<path class="st0" d="M104.2,76.7c-1.1-0.1-1.8,0.4-2.3,1.3c-0.4,0.8-0.6,1.6-0.6,2.5c0,0.5,0,0.9,0.1,1.4c0.3,1.5,1.2,2.2,2.6,2.2
			c1.3,0,2.2-0.8,2.5-2.1c0.2-1.2,0.3-2.5-0.2-3.7C105.9,77.3,105.2,76.7,104.2,76.7z"/>
		<path class="st0" d="M122.1,76.9c-0.7-0.4-1.4-0.7-2.2-0.4c-1.1,0.4-1.7,1.1-1.8,2.3c1.3,0.2,2.5,0.2,3.7,0
			c0.4-0.1,0.7-0.3,0.8-0.7C122.8,77.6,122.6,77.1,122.1,76.9z"/>
		<path class="st0" d="M197.8,76.6c-1.7-0.6-2.7,0-3.4,2.3c1.2,0,2.3,0,3.3,0c0.6,0,1.3-0.2,1.3-1C199,77.2,198.5,76.8,197.8,76.6z"
			/>
	</g>
</g>
</svg>
