<?xml version="1.0" encoding="UTF-8" standalone="no"?>
<!-- Generator: Adobe Illustrator 15.0.0, SVG Export Plug-In . SVG Version: 6.00 Build 0)  -->

<svg
   version="1.1"
   id="Ebene_1"
   x="0px"
   y="0px"
   width="1192.5439"
   height="215.35687"
   viewBox="0 0 1192.5439 215.35687"
   enable-background="new 0 0 1206.5 228"
   xml:space="preserve"
   sodipodi:docname="logo-seereisedienst-white.svg"
   inkscape:version="1.1 (c68e22c387, 2021-05-23)"
   xmlns:inkscape="http://www.inkscape.org/namespaces/inkscape"
   xmlns:sodipodi="http://sodipodi.sourceforge.net/DTD/sodipodi-0.dtd"
   xmlns:xlink="http://www.w3.org/1999/xlink"
   xmlns="http://www.w3.org/2000/svg"
   xmlns:svg="http://www.w3.org/2000/svg"><defs
   id="defs954"><filter
     style="color-interpolation-filters:sRGB;"
     inkscape:label="Invert"
     id="filter1176"
     x="0"
     y="0"
     width="1"
     height="1"><feColorMatrix
       values="0.21 0.72 0.072 0 0 0.21 0.72 0.072 0 0 0.21 0.72 0.072 0 0 0 0 0 1 0 "
       id="feColorMatrix1174"
       result="fbSourceGraphic" /><feColorMatrix
       result="fbSourceGraphicAlpha"
       in="fbSourceGraphic"
       values="0 0 0 -1 0 0 0 0 -1 0 0 0 0 -1 0 0 0 0 1 0"
       id="feColorMatrix1208" /><feColorMatrix
       id="feColorMatrix1210"
       values="0.21 0.72 0.072 0 0 0.21 0.72 0.072 0 0 0.21 0.72 0.072 0 0 0 0 0 1 0 "
       in="fbSourceGraphic"
       result="fbSourceGraphic" /><feColorMatrix
       result="fbSourceGraphicAlpha"
       in="fbSourceGraphic"
       values="0 0 0 -1 0 0 0 0 -1 0 0 0 0 -1 0 0 0 0 1 0"
       id="feColorMatrix914" /><feColorMatrix
       id="feColorMatrix916"
       type="hueRotate"
       values="180"
       result="color1"
       in="fbSourceGraphic" /><feColorMatrix
       id="feColorMatrix918"
       values="-1 0 0 0 1 0 -1 0 0 1 0 0 -1 0 1 -0.21 -0.72 -0.07 2 0 "
       result="color2" /></filter><filter
     style="color-interpolation-filters:sRGB;"
     inkscape:label="Invert"
     id="filter1180"
     x="0.041414632"
     y="0.08337156"
     width="0.91715943"
     height="0.81785842"><feColorMatrix
       values="0.21 0.72 0.072 0 0 0.21 0.72 0.072 0 0 0.21 0.72 0.072 0 0 0 0 0 1 0 "
       id="feColorMatrix1178"
       result="fbSourceGraphic" /><feColorMatrix
       result="fbSourceGraphicAlpha"
       in="fbSourceGraphic"
       values="0 0 0 -1 0 0 0 0 -1 0 0 0 0 -1 0 0 0 0 1 0"
       id="feColorMatrix1212" /><feColorMatrix
       id="feColorMatrix1214"
       values="0.21 0.72 0.072 0 0 0.21 0.72 0.072 0 0 0.21 0.72 0.072 0 0 0 0 0 1 0 "
       in="fbSourceGraphic"
       result="fbSourceGraphic" /><feColorMatrix
       result="fbSourceGraphicAlpha"
       in="fbSourceGraphic"
       values="0 0 0 -1 0 0 0 0 -1 0 0 0 0 -1 0 0 0 0 1 0"
       id="feColorMatrix920" /><feColorMatrix
       id="feColorMatrix922"
       type="hueRotate"
       values="180"
       result="color1"
       in="fbSourceGraphic" /><feColorMatrix
       id="feColorMatrix924"
       values="-1 0 0 0 1 0 -1 0 0 1 0 0 -1 0 1 -0.21 -0.72 -0.07 2 0 "
       result="color2" /></filter><filter
     style="color-interpolation-filters:sRGB;"
     inkscape:label="Invert"
     id="filter1184"
     x="0.17127744"
     y="0.2455591"
     width="0.65675189"
     height="0.50888649"><feColorMatrix
       values="0.21 0.72 0.072 0 0 0.21 0.72 0.072 0 0 0.21 0.72 0.072 0 0 0 0 0 1 0 "
       id="feColorMatrix1182"
       result="fbSourceGraphic" /><feColorMatrix
       result="fbSourceGraphicAlpha"
       in="fbSourceGraphic"
       values="0 0 0 -1 0 0 0 0 -1 0 0 0 0 -1 0 0 0 0 1 0"
       id="feColorMatrix1216" /><feColorMatrix
       id="feColorMatrix1218"
       values="0.21 0.72 0.072 0 0 0.21 0.72 0.072 0 0 0.21 0.72 0.072 0 0 0 0 0 1 0 "
       in="fbSourceGraphic"
       result="fbSourceGraphic" /><feColorMatrix
       result="fbSourceGraphicAlpha"
       in="fbSourceGraphic"
       values="0 0 0 -1 0 0 0 0 -1 0 0 0 0 -1 0 0 0 0 1 0"
       id="feColorMatrix926" /><feColorMatrix
       id="feColorMatrix928"
       type="hueRotate"
       values="180"
       result="color1"
       in="fbSourceGraphic" /><feColorMatrix
       id="feColorMatrix930"
       values="-1 0 0 0 1 0 -1 0 0 1 0 0 -1 0 1 -0.21 -0.72 -0.07 2 0 "
       result="color2" /></filter><filter
     style="color-interpolation-filters:sRGB;"
     inkscape:label="Invert"
     id="filter1188"
     x="0"
     y="1.8908647e-08"
     width="0.99999994"
     height="0.99999998"><feColorMatrix
       values="0.21 0.72 0.072 0 0 0.21 0.72 0.072 0 0 0.21 0.72 0.072 0 0 0 0 0 1 0 "
       id="feColorMatrix1186"
       result="fbSourceGraphic" /><feColorMatrix
       result="fbSourceGraphicAlpha"
       in="fbSourceGraphic"
       values="0 0 0 -1 0 0 0 0 -1 0 0 0 0 -1 0 0 0 0 1 0"
       id="feColorMatrix1220" /><feColorMatrix
       id="feColorMatrix1222"
       values="0.21 0.72 0.072 0 0 0.21 0.72 0.072 0 0 0.21 0.72 0.072 0 0 0 0 0 1 0 "
       in="fbSourceGraphic"
       result="fbSourceGraphic" /><feColorMatrix
       result="fbSourceGraphicAlpha"
       in="fbSourceGraphic"
       values="0 0 0 -1 0 0 0 0 -1 0 0 0 0 -1 0 0 0 0 1 0"
       id="feColorMatrix932" /><feColorMatrix
       id="feColorMatrix934"
       type="hueRotate"
       values="180"
       result="color1"
       in="fbSourceGraphic" /><feColorMatrix
       id="feColorMatrix936"
       values="-1 0 0 0 1 0 -1 0 0 1 0 0 -1 0 1 -0.21 -0.72 -0.07 2 0 "
       result="color2" /></filter></defs><sodipodi:namedview
   id="namedview952"
   pagecolor="#ffffff"
   bordercolor="#666666"
   borderopacity="1.0"
   inkscape:pageshadow="2"
   inkscape:pageopacity="0.0"
   inkscape:pagecheckerboard="0"
   showgrid="false"
   inkscape:zoom="0.91918773"
   inkscape:cx="595.63458"
   inkscape:cy="106.07191"
   inkscape:window-width="1920"
   inkscape:window-height="1009"
   inkscape:window-x="-8"
   inkscape:window-y="-8"
   inkscape:window-maximized="1"
   inkscape:current-layer="Ebene_1" />
<g
   id="g905"
   style="filter:url(#filter1188)"
   transform="translate(-7.195,-7.4169987)">
	<defs
   id="defs891">
		<path
   id="SVGID_1_"
   d="m 1182.453,73.649 c -0.195,6.261 -7.491,10.498 -21.096,15.929 l -60.826,26.242 96.794,42.07 c 1.293,-1.188 2.083,-3.016 2.293,-4.854 l 0.121,-0.912 V 80.29 c 0,-3.983 -2.363,-7.586 -6.017,-9.172 l -15.74,-6.837 c 2.353,1.266 4.636,4.088 4.471,9.368" />
	</defs>
	<clipPath
   id="SVGID_2_">
		<use
   xlink:href="#SVGID_1_"
   overflow="visible"
   id="use893"
   x="0"
   y="0"
   width="100%"
   height="100%" />
	</clipPath>
	
		<linearGradient
   id="SVGID_3_"
   gradientUnits="userSpaceOnUse"
   x1="-62.501499"
   y1="293.99899"
   x2="-61.501499"
   y2="293.99899"
   gradientTransform="matrix(96.4656,0,0,-96.4656,7128.4829,28471.855)">
		<stop
   offset="0"
   style="stop-color:#444"
   id="stop896" />
		<stop
   offset="0.8858"
   style="stop-color:#222"
   id="stop898" />
		<stop
   offset="1"
   style="stop-color:#000"
   id="stop900" />
	</linearGradient>
	<rect
   x="1100.531"
   y="64.280998"
   clip-path="url(#SVGID_2_)"
   fill="url(#SVGID_3_)"
   width="99.208"
   height="93.609001"
   id="rect903"
   style="fill:url(#SVGID_3_)" />
</g>
<g
   id="g922"
   style="filter:url(#filter1184)"
   transform="translate(-7.195,-7.4169987)">
	<defs
   id="defs908">
		<path
   id="SVGID_4_"
   d="m 1177.983,64.282 0.234,0.102 -0.234,-0.102 c -10e-4,0 -10e-4,0 0,0 M 1035.086,17.427 v 63.389 c 0,3.982 2.362,7.584 6.015,9.171 l 59.432,25.833 60.825,-26.242 c 13.605,-5.431 20.9,-9.668 21.096,-15.929 0.165,-5.279 -2.117,-8.101 -4.47,-9.367 L 1049.072,8.256 c -1.321,-0.574 -2.673,-0.839 -3.991,-0.839 -5.27,-10e-4 -9.995,4.249 -9.995,10.01" />
	</defs>
	<clipPath
   id="SVGID_5_">
		<use
   xlink:href="#SVGID_4_"
   overflow="visible"
   id="use910"
   x="0"
   y="0"
   width="100%"
   height="100%" />
	</clipPath>
	
		<linearGradient
   id="SVGID_6_"
   gradientUnits="userSpaceOnUse"
   x1="-62.500999"
   y1="293.91409"
   x2="-61.500999"
   y2="293.91409"
   gradientTransform="matrix(-151.5107,-63.0087,-63.0087,151.5107,10248.216,-48370.41)">
		<stop
   offset="0"
   style="stop-color:#1858AC"
   id="stop913" />
		<stop
   offset="0.9975"
   style="stop-color:#3BBCDD"
   id="stop915" />
		<stop
   offset="1"
   style="stop-color:#3BBCDD"
   id="stop917" />
	</linearGradient>
	<polygon
   clip-path="url(#SVGID_5_)"
   fill="url(#SVGID_6_)"
   points="1056.839,-44.892 1221.053,23.4 1160.865,168.128 996.651,99.836 "
   id="polygon920"
   style="fill:url(#SVGID_6_)" />
</g>
<g
   id="g939"
   style="filter:url(#filter1180)"
   transform="translate(-7.195,-7.4169987)">
	<defs
   id="defs925">
		<path
   id="SVGID_7_"
   d="m 1100.535,115.817 -59.396,25.485 c -3.674,1.576 -6.057,5.191 -6.057,9.19 v 62.271 c 0,7.182 7.343,12.021 13.943,9.19 l 146.737,-62.954 c 0.567,-0.303 1.092,-0.676 1.56,-1.108 0,-0.001 0,-0.002 0,-0.002 l -96.793,-42.07 0.045,-0.021 z" />
	</defs>
	<clipPath
   id="SVGID_8_">
		<use
   xlink:href="#SVGID_7_"
   overflow="visible"
   id="use927"
   x="0"
   y="0"
   width="100%"
   height="100%" />
	</clipPath>
	
		<radialGradient
   id="SVGID_9_"
   cx="-62.5005"
   cy="293.9971"
   r="1"
   gradientTransform="matrix(-161.9242,10.9355,10.9355,161.9242,-12211.915,-46813.301)"
   gradientUnits="userSpaceOnUse">
		<stop
   offset="0"
   style="stop-color:#DBF2FF"
   id="stop930" />
		<stop
   offset="0.4501"
   style="stop-color:#88CCF4"
   id="stop932" />
		<stop
   offset="1"
   style="stop-color:#1BA2C6"
   id="stop934" />
	</radialGradient>
	<polygon
   clip-path="url(#SVGID_8_)"
   fill="url(#SVGID_9_)"
   points="1027.756,116.295 1196.587,104.893 1204.65,224.291 1035.819,235.693 "
   id="polygon937"
   style="fill:url(#SVGID_9_)" />
</g>
<g
   id="g949"
   style="filter:url(#filter1176)"
   transform="translate(-7.195,-7.4169987)">
	<defs
   id="defs942">
		<rect
   id="SVGID_10_"
   x="-62.5"
   y="-64.833"
   width="1334.167"
   height="358.83301" />
	</defs>
	<clipPath
   id="SVGID_11_">
		<use
   xlink:href="#SVGID_10_"
   overflow="visible"
   id="use944"
   x="0"
   y="0"
   width="100%"
   height="100%" />
	</clipPath>
	<path
   clip-path="url(#SVGID_11_)"
   fill="#24375b"
   d="m 357.709,80.03 h -52.328 v 69.25 h 53.608 v -12.797 h -37.682 v -16.068 h 32.136 V 107.9 H 321.307 V 92.828 h 36.402 V 80.03 m 36.26,0 h -16.068 v 69.25 h 16.068 z m 60.149,0.284 c -4.171,-1.043 -8.436,-1.564 -12.797,-1.564 -6.541,0.094 -11.992,1.09 -16.353,2.986 -4.361,1.991 -7.584,4.598 -9.669,7.821 -2.181,3.223 -3.271,6.825 -3.271,10.807 0.095,4.266 1.091,7.679 2.987,10.238 1.99,2.56 4.502,4.598 7.536,6.114 3.033,1.422 6.257,2.561 9.669,3.414 3.413,0.757 6.636,1.517 9.67,2.274 3.033,0.759 5.498,1.707 7.394,2.845 1.99,1.136 2.986,2.796 2.986,4.976 0.095,2.181 -0.901,3.935 -2.986,5.262 -2.181,1.422 -5.594,2.134 -10.239,2.134 -4.265,0 -8.389,-0.664 -12.371,-1.991 -4.076,-1.328 -7.583,-3.081 -10.522,-5.262 l -5.546,12.087 c 2.086,1.612 4.645,3.034 7.679,4.266 2.939,1.138 6.209,2.038 9.811,2.702 3.508,0.664 7.11,0.995 10.807,0.995 6.541,0 11.992,-0.995 16.353,-2.986 4.361,-1.896 7.631,-4.456 9.811,-7.678 2.181,-3.224 3.271,-6.779 3.271,-10.665 -0.095,-4.266 -1.137,-7.679 -3.129,-10.239 -1.895,-2.559 -4.36,-4.55 -7.394,-5.971 -3.033,-1.423 -6.256,-2.513 -9.669,-3.271 -3.413,-0.853 -6.636,-1.659 -9.67,-2.418 -3.033,-0.663 -5.545,-1.564 -7.536,-2.701 -1.896,-1.232 -2.891,-2.892 -2.986,-4.978 0,-2.179 0.996,-4.028 2.986,-5.545 2.086,-1.517 5.498,-2.275 10.239,-2.275 3.033,0 6.161,0.427 9.384,1.279 3.318,0.949 6.589,2.324 9.812,4.124 l 4.834,-12.228 c -3.222,-1.992 -6.92,-3.509 -11.091,-4.552 m -283.966,56.168 v -16.068 h 32.136 V 107.9 H 170.152 V 92.828 h 36.403 V 80.03 h -52.329 v 69.25 h 53.608 V 136.483 H 170.152 M 134.177,80.03 H 81.848 v 69.25 h 53.608 V 136.483 H 97.774 v -16.068 h 32.137 V 107.9 H 97.774 V 92.828 h 36.403 V 80.03 m 122.573,0 h -30.004 v 69.25 h 16.068 v -19.338 h 14.647 l 13.366,19.338 h 17.206 l -15.499,-22.184 c 4.55,-1.989 8.057,-4.834 10.522,-8.53 2.465,-3.697 3.697,-8.2 3.697,-13.509 0,-5.119 -1.232,-9.574 -3.697,-13.366 -2.37,-3.792 -5.83,-6.683 -10.38,-8.674 -4.456,-1.992 -9.764,-2.987 -15.926,-2.987 m 13.793,25.026 c 0,3.887 -1.233,6.873 -3.697,8.958 -2.465,2.085 -6.162,3.176 -11.092,3.271 h -12.94 V 92.969 h 12.94 c 4.93,0.095 8.627,1.186 11.092,3.271 2.464,2.086 3.697,5.024 3.697,8.816 M 50.707,80.314 C 46.536,79.271 42.27,78.75 37.91,78.75 c -6.541,0.094 -11.992,1.09 -16.353,2.986 -4.361,1.991 -7.584,4.598 -9.669,7.821 -2.181,3.223 -3.271,6.825 -3.271,10.807 0.095,4.266 1.09,7.679 2.986,10.238 1.991,2.56 4.503,4.598 7.537,6.114 3.033,1.422 6.256,2.561 9.669,3.414 3.413,0.757 6.636,1.517 9.669,2.274 3.034,0.759 5.498,1.707 7.394,2.845 1.991,1.136 2.987,2.796 2.987,4.976 0.095,2.181 -0.901,3.935 -2.987,5.262 -2.18,1.422 -5.592,2.134 -10.238,2.134 -4.265,0 -8.389,-0.664 -12.371,-1.991 -4.076,-1.328 -7.583,-3.081 -10.522,-5.262 l -5.546,12.087 c 2.086,1.612 4.645,3.034 7.679,4.266 2.938,1.138 6.209,2.038 9.811,2.702 3.508,0.664 7.11,0.995 10.807,0.995 6.541,0 11.992,-0.995 16.353,-2.986 4.36,-1.896 7.631,-4.456 9.811,-7.678 2.181,-3.224 3.271,-6.779 3.271,-10.665 -0.095,-4.266 -1.138,-7.679 -3.128,-10.239 -1.896,-2.559 -4.361,-4.55 -7.395,-5.971 -3.033,-1.423 -6.256,-2.513 -9.669,-3.271 -3.413,-0.853 -6.636,-1.659 -9.669,-2.418 -3.034,-0.663 -5.546,-1.564 -7.537,-2.701 -1.896,-1.232 -2.891,-2.892 -2.986,-4.978 0,-2.179 0.995,-4.028 2.986,-5.545 2.086,-1.517 5.499,-2.275 10.238,-2.275 3.034,0 6.162,0.427 9.385,1.279 3.318,0.949 6.589,2.324 9.812,4.124 L 61.799,84.866 C 58.576,82.874 54.878,81.357 50.707,80.314 m 806.111,13.651 c 2.086,-1.517 5.498,-2.275 10.238,-2.275 3.033,0 6.162,0.427 9.385,1.279 3.318,0.949 6.589,2.324 9.812,4.124 l 4.835,-12.228 c -3.224,-1.991 -6.92,-3.508 -11.092,-4.551 -4.171,-1.043 -8.438,-1.564 -12.797,-1.564 -6.541,0.094 -11.992,1.09 -16.353,2.986 -4.361,1.991 -7.584,4.598 -9.67,7.821 -2.181,3.223 -3.271,6.825 -3.271,10.807 0.095,4.266 1.09,7.679 2.985,10.238 1.991,2.56 4.503,4.598 7.537,6.114 3.033,1.422 6.256,2.561 9.67,3.414 3.412,0.757 6.636,1.517 9.668,2.274 3.034,0.759 5.499,1.707 7.396,2.845 1.99,1.136 2.984,2.796 2.984,4.976 0.097,2.181 -0.899,3.935 -2.984,5.262 -2.181,1.422 -5.594,2.134 -10.238,2.134 -4.266,0 -8.39,-0.664 -12.371,-1.991 -4.077,-1.328 -7.584,-3.081 -10.522,-5.262 l -5.546,12.087 c 2.086,1.612 4.646,3.034 7.679,4.266 2.938,1.138 6.209,2.038 9.811,2.702 3.509,0.664 7.11,0.995 10.808,0.995 6.541,0 11.992,-0.995 16.353,-2.986 4.361,-1.896 7.632,-4.456 9.812,-7.678 2.181,-3.224 3.271,-6.779 3.271,-10.665 -0.095,-4.266 -1.138,-7.679 -3.128,-10.239 -1.896,-2.559 -4.362,-4.55 -7.395,-5.971 -3.033,-1.423 -6.258,-2.513 -9.669,-3.271 -3.413,-0.853 -6.636,-1.659 -9.671,-2.418 -3.032,-0.663 -5.545,-1.564 -7.535,-2.701 -1.896,-1.232 -2.892,-2.892 -2.986,-4.978 -0.002,-2.18 0.994,-4.029 2.984,-5.546 M 819.705,80.03 h -15.926 v 42.09 L 769.367,80.03 h -13.225 v 69.25 h 15.785 v -42.09 l 34.554,42.09 h 13.224 V 80.03 m 144.045,0 h -60.434 v 12.939 h 22.183 v 56.311 h 16.068 V 92.969 H 963.75 V 80.03 M 533.322,120.414 V 107.9 H 501.185 V 92.828 h 36.402 V 80.03 h -52.328 v 69.25 h 53.608 v -12.797 h -37.682 v -16.068 h 32.137 M 589.205,80.03 h -31.426 v 69.25 h 31.426 c 7.678,0 14.362,-1.422 20.049,-4.267 5.688,-2.843 10.143,-6.873 13.367,-12.087 3.128,-5.118 4.74,-11.232 4.835,-18.342 -0.095,-7.015 -1.707,-13.13 -4.835,-18.344 -3.225,-5.119 -7.679,-9.101 -13.367,-11.944 -5.687,-2.844 -12.371,-4.266 -20.049,-4.266 m -0.711,13.082 c 4.55,0 8.532,0.853 11.944,2.56 3.413,1.8 6.067,4.265 7.963,7.394 1.802,3.223 2.749,7.062 2.844,11.518 -0.095,4.455 -1.042,8.295 -2.844,11.517 -1.896,3.225 -4.55,5.688 -7.963,7.396 -3.412,1.706 -7.394,2.605 -11.944,2.701 H 573.848 V 93.112 h 14.646 M 735.951,80.03 h -52.328 v 69.25 h 53.608 v -12.797 h -37.683 v -16.068 h 32.136 V 107.9 H 699.548 V 92.828 H 735.95 V 80.03 m -74.367,0 h -16.068 v 69.25 h 16.068 z"
   id="path947" />
</g>
</svg>
