<?xml version="1.0" encoding="UTF-8" standalone="no"?>
<svg
   width="2499.9915"
   height="1292"
   viewBox="0 0 1368.0973 707.037"
   version="1.1"
   id="svg14"
   sodipodi:docname="logo-igus-white.svg"
   inkscape:version="1.1 (c68e22c387, 2021-05-23)"
   xmlns:inkscape="http://www.inkscape.org/namespaces/inkscape"
   xmlns:sodipodi="http://sodipodi.sourceforge.net/DTD/sodipodi-0.dtd"
   xmlns="http://www.w3.org/2000/svg"
   xmlns:svg="http://www.w3.org/2000/svg">
  <defs
     id="defs18" />
  <sodipodi:namedview
     id="namedview16"
     pagecolor="#ffffff"
     bordercolor="#666666"
     borderopacity="1.0"
     inkscape:pageshadow="2"
     inkscape:pageopacity="0.0"
     inkscape:pagecheckerboard="0"
     showgrid="false"
     inkscape:zoom="0.2258"
     inkscape:cx="214.79185"
     inkscape:cy="803.80868"
     inkscape:window-width="1920"
     inkscape:window-height="1009"
     inkscape:window-x="-8"
     inkscape:window-y="-8"
     inkscape:window-maximized="1"
     inkscape:current-layer="g12" />
  <g
     fill="#000000"
     id="g12"
     transform="translate(-0.00182508)">
    <path
       d="M 89.251,28.203 C 89.251,12.749 102.001,0 117.455,0 c 15.454,0 28.203,12.749 28.203,28.203 0,15.454 -12.749,27.818 -28.203,27.818 C 102,56.02 89.251,43.657 89.251,28.203 Z m 56.407,447.403 v 29.365 H 89.251 v -29.365 z m 305.224,0 c -29.362,18.548 -64.135,29.365 -100.839,29.365 -37.093,0 -71.477,-10.817 -100.841,-29.365 z m 95.431,0 v 28.207 c -1.157,112.43 -88.861,203.224 -196.27,203.224 -107.795,0 -195.111,-90.794 -196.271,-203.224 h 56.022 c 1.158,81.521 63.75,147.201 140.247,147.201 76.499,0 139.09,-65.682 140.633,-147.201 v 1.158 -29.365 z m 304.839,0 c -29.365,18.548 -64.137,29.365 -100.842,29.365 -37.09,0 -71.476,-10.817 -100.838,-29.365 z m 95.43,0 v 29.365 h -56.408 v -29.365 z m 280.109,0 c -34.385,20.479 -78.432,27.435 -115.521,27.435 -38.25,0 -73.408,-10.048 -100.842,-27.435 z"
       id="path2"
       fill="#ffffff" />
    <path
       d="M 145.658,321.835 V 475.606 H 89.251 V 321.835 Z m 65.296,0 c 10.043,72.25 68.386,127.114 138.701,127.114 70.317,0 128.659,-55.249 138.703,-127.114 h 57.569 v 153.771 h -56.021 v -32.452 c -11.592,12.749 -25.114,23.57 -39.41,32.452 H 248.816 C 197.431,443.54 161.112,387.131 154.544,321.835 Z m 400.267,0 c 10.047,72.25 68.386,127.114 138.703,127.114 70.32,0 128.658,-55.249 138.701,-127.114 h 57.57 V 475.606 H 889.789 V 443.54 c -11.592,12.363 -24.729,23.181 -39.025,32.066 H 649.472 C 598.087,443.54 562.154,387.131 555.2,321.451 Z m 664.154,0 c 5.795,13.522 9.271,29.364 9.271,48.685 0,52.543 -24.342,85.384 -57.953,105.476 H 1010.33 C 972.469,452.041 948.902,414.179 951.605,369.357 l 56.021,3.479 c -1.932,32.841 30.908,74.566 103.543,74.566 71.479,0 117.068,-24.34 117.068,-76.113 0,-22.792 -6.186,-39.021 -35.547,-49.066 z"
       id="path4"
       fill="#ffffff" />
    <path
       d="m 89.251,321.835 v -3.478 H 0 v -11.59 H 89.251 V 93.499 h 56.022 v 212.882 h 7.728 v -7.34 c 0,-113.589 88.089,-205.542 196.27,-205.542 54.864,0 104.702,23.565 140.248,61.817 V 93.499 h 56.021 v 212.882 h 7.728 V 93.499 h 56.021 v 212.497 h 280.5 V 93.499 h 56.406 v 212.498 h 88.863 c -54.092,-11.207 -76.889,-47.524 -76.889,-108.182 0,-46.75 54.865,-105.09 152.613,-105.09 66.84,0 160.727,39.409 153.77,114.75 l -56.021,-5.023 c 1.547,-17.773 -32.451,-53.704 -97.748,-53.704 -79.203,0 -96.59,44.432 -96.59,49.067 0,42.113 8.5,56.022 62.207,56.022 87.699,0 158.406,8.112 189.701,52.543 h 102 v 11.591 h -94.658 c 0.385,1.16 1.158,2.319 1.543,3.479 h -82.68 c -3.863,-1.547 -8.115,-2.706 -13.137,-3.479 H 946.195 v 3.479 h -57.18 c 0,-1.16 0.385,-2.319 0.385,-3.479 H 610.836 c 0,1.16 0.386,2.319 0.386,3.479 h -56.408 c 0,-1.16 -0.389,-2.319 -0.389,-3.479 h -8.497 v 3.479 H 488.36 c 0,-1.16 0.386,-2.319 0.386,-3.479 h -278.18 c 0,1.16 0.39,2.319 0.39,3.479 h -56.411 c 0,-1.16 -0.385,-2.319 -0.385,-3.479 h -8.501 v 3.479 H 89.251 Z m 857.331,-24.727 v 4.25 z m -336.904,0 v 4.637 z m -400.271,1.933 v 7.34 h 280.499 v -7.34 c 0,-82.682 -62.98,-149.907 -140.638,-149.907 -77.27,0 -139.861,67.225 -139.861,149.907 z M 1249.488,79.975 h 4.637 l 8.113,13.136 h 5.795 l -8.887,-13.908 c 4.639,-0.388 8.111,-2.706 8.111,-8.501 0,-6.181 -3.863,-8.886 -11.201,-8.886 h -11.979 v 31.295 h 5.02 V 79.975 Z m 0,-4.25 v -9.271 h 6.18 c 3.09,0 6.953,0.386 6.953,4.249 0,4.637 -3.475,5.023 -7.338,5.023 z m 32.84,1.545 c 0,-17 -12.748,-28.204 -27.434,-28.204 -15.066,0 -27.818,11.204 -27.818,28.204 0,16.229 11.592,28.203 27.818,28.203 14.686,0.001 27.434,-11.203 27.434,-28.203 z m -5.795,0 c 0,13.909 -9.658,23.183 -21.639,23.183 -13.523,0 -21.635,-10.434 -21.635,-23.183 0,-13.521 9.658,-23.182 21.635,-23.182 11.981,-0.385 21.639,9.273 21.639,23.182 z"
       id="path6"
       fill="#ffffff" />
    <g
       id="g10">
      <path
         d="m 558.289,579.153 h 8.501 v 5.406 c 2.319,-4.637 7.342,-6.568 12.364,-6.568 12.749,0 18.544,9.659 18.544,21.25 0,10.82 -5.407,20.864 -16.998,20.864 -5.026,0 -10.434,-1.931 -13.139,-6.181 v 19.703 h -8.886 v -54.476 z m 19.706,5.796 c -7.342,0 -11.206,5.796 -11.206,13.906 0,8.112 4.252,13.908 11.206,13.908 8.111,0 10.817,-6.954 10.817,-13.908 0.386,-6.953 -3.478,-13.906 -10.817,-13.906 z m 27.43,-21.25 h 8.885 v 55.25 h -8.885 z m 51.774,46.362 c 0,2.316 0.385,3.09 1.932,3.09 h 2.317 v 6.182 c -1.159,0.39 -4.249,1.158 -5.407,1.158 -3.479,0 -6.185,-1.158 -6.958,-5.021 -3.476,3.479 -9.271,5.021 -13.907,5.021 -7.343,0 -13.521,-3.864 -13.521,-11.591 0,-10.045 7.727,-11.592 15.453,-12.36 6.182,-1.161 11.977,-0.389 11.977,-5.795 0,-4.639 -4.633,-5.411 -8.112,-5.411 -5.021,0 -8.501,1.932 -8.886,6.181 H 623.2 c 0.77,-10.044 9.27,-13.134 18.155,-13.134 7.728,0 15.844,3.09 15.844,11.591 z m -8.885,-11.206 c -2.706,1.933 -6.958,1.547 -10.82,2.317 -3.864,0.772 -6.954,1.931 -6.954,6.568 0,3.862 5.021,5.021 8.116,5.021 3.863,0 10.044,-1.933 10.044,-7.728 v -6.182 h -0.386 z m 25.113,7.344 c 0.385,5.021 4.249,6.952 8.886,6.952 3.476,0 9.271,-0.772 8.886,-5.409 -0.387,-4.639 -6.568,-5.021 -13.139,-6.568 -6.564,-1.544 -12.749,-3.864 -12.749,-11.976 0,-8.888 9.273,-11.592 16.612,-11.592 8.116,0 15.456,3.479 16.616,12.364 h -9.273 c -0.771,-4.253 -4.248,-5.411 -8.111,-5.411 -2.32,0 -7.344,0.773 -7.344,4.252 0,4.249 6.569,5.021 13.138,6.182 6.564,1.547 12.75,3.862 12.75,11.591 0,9.272 -9.66,13.139 -17.776,13.139 -10.043,0 -17.386,-4.639 -17.771,-13.912 h 9.273 z m 29.362,-27.046 h 6.568 v -11.979 h 8.887 v 11.979 h 8.109 v 6.564 h -8.109 v 21.25 c 0,3.479 0.385,5.41 4.248,5.41 1.162,0 2.32,0 3.861,-0.384 v 6.948 c -1.93,0 -3.861,0.39 -5.795,0.39 -9.27,0 -10.814,-3.477 -11.201,-10.048 v -23.566 h -6.568 z m 29.75,-15.454 h 8.887 v 8.496 h -8.887 z m 0,15.454 h 8.887 v 39.796 h -8.887 z m 45.205,13.135 c -0.773,-4.638 -4.25,-7.339 -9.273,-7.339 -4.637,0 -10.816,2.315 -10.816,14.292 0,6.568 3.09,13.522 10.434,13.522 5.02,0 8.496,-3.476 9.658,-9.271 h 8.885 c -1.547,10.432 -8.115,15.843 -18.158,15.843 -12.365,0 -19.318,-8.89 -19.318,-20.48 0,-11.975 6.568,-21.249 19.701,-21.249 9.275,0 17.002,4.638 17.775,14.296 h -8.885 v 0.386 z m 22.408,13.911 c 0.387,5.021 4.25,6.952 8.885,6.952 3.48,0 9.275,-0.772 8.887,-5.409 -0.385,-4.639 -6.568,-5.021 -13.135,-6.568 -6.568,-1.544 -12.752,-3.864 -12.752,-11.976 0,-8.888 9.275,-11.592 16.617,-11.592 8.109,0 15.455,3.479 16.611,12.364 h -9.273 c -0.773,-4.253 -4.248,-5.411 -8.111,-5.411 -2.705,0 -7.342,0.773 -7.342,4.252 0,4.249 6.568,5.021 12.748,6.182 6.568,1.547 13.139,3.862 13.139,11.591 0,9.272 -9.66,13.139 -17.771,13.139 -10.047,0 -17.387,-4.639 -17.775,-13.912 h 9.275 v 0.389 h -0.003 z m 51,-27.046 h 6.564 v -3.479 c 0,-10.044 5.41,-11.977 11.205,-11.977 2.707,0 4.639,0 6.182,0.386 v 6.953 c -1.156,-0.386 -2.316,-0.386 -4.248,-0.386 -2.316,0 -4.248,0.773 -4.248,4.249 v 4.252 h 7.34 v 6.564 h -7.34 v 33.229 h -8.891 v -33.229 h -6.564 z m 26.272,19.702 c 0,-11.975 7.338,-20.864 20.09,-20.864 12.75,0 20.09,8.891 20.09,20.864 0,12.365 -7.34,20.866 -20.09,20.866 -12.753,0.384 -20.09,-8.501 -20.09,-20.866 z m 31.683,0 c 0,-6.953 -3.48,-13.906 -11.207,-13.906 -7.727,0 -11.205,7.339 -11.205,13.906 0,6.954 3.479,14.296 11.205,14.296 7.726,0 11.207,-7.342 11.207,-14.296 z m 15.838,-19.702 h 8.113 v 7.729 c 1.16,-4.252 6.184,-8.891 11.59,-8.891 1.934,0 2.707,0 3.479,0.39 v 8.501 c -1.158,0 -2.705,-0.39 -3.863,-0.39 -5.797,0 -10.816,5.021 -10.816,13.521 v 18.93 h -8.887 v -39.79 z m 49.068,-15.454 h 8.887 v 55.25 h -8.887 z m 16.229,35.156 c 0,-11.975 7.338,-20.864 20.088,-20.864 12.754,0 20.092,8.891 20.092,20.864 0,12.365 -7.338,20.866 -20.092,20.866 -12.75,0.384 -20.088,-8.501 -20.088,-20.866 z m 31.678,0 c 0,-6.953 -3.475,-13.906 -11.201,-13.906 -7.726,0 -11.205,7.339 -11.205,13.906 0,6.954 3.479,14.296 11.205,14.296 7.337,0 11.201,-7.342 11.201,-14.296 z m 15.841,-19.702 h 8.502 v 5.796 c 2.701,-4.253 6.953,-6.958 12.361,-6.958 8.5,0 13.91,4.639 13.91,13.522 v 27.436 h -8.885 v -25.115 c 0,-6.184 -2.705,-8.885 -7.729,-8.885 -5.795,0 -9.66,4.633 -9.66,10.43 v 23.57 h -8.889 v -39.796 z m 81.137,37.473 c 0,11.979 -6.951,17.774 -19.705,17.774 -8.113,0 -16.998,-3.09 -17.771,-12.363 h 8.885 c 1.158,5.025 5.021,5.796 9.658,5.796 6.955,0 10.049,-3.479 10.049,-10.044 v -6.186 c -2.32,4.252 -6.959,6.954 -11.979,6.954 -12.75,0 -17.771,-9.658 -17.771,-20.859 0,-10.817 6.568,-20.093 18.158,-20.093 5.023,0 9.66,1.932 11.977,6.568 v -5.406 h 8.887 v 37.857 z m -8.885,-18.544 c 0,-6.953 -3.094,-13.134 -10.82,-13.134 -7.729,0 -10.43,7.339 -10.43,13.906 0,6.569 3.09,13.14 10.43,13.14 7.727,10e-4 10.82,-7.344 10.82,-13.912 z m 24.34,3.091 c 0,6.184 3.475,11.979 10.816,11.979 5.021,0 8.113,-2.319 9.66,-6.567 h 8.5 c -1.932,8.89 -9.273,13.521 -18.16,13.521 -12.363,0 -19.705,-8.885 -19.705,-20.864 0,-11.202 7.342,-20.86 19.316,-20.86 12.75,0 20.477,11.201 18.934,23.181 h -29.361 z m 20.862,-5.795 c -0.385,-5.407 -4.248,-10.43 -10.045,-10.43 -6.182,0 -10.047,4.633 -10.432,10.43 z m 15.455,-16.225 h 8.115 v 7.729 c 1.158,-4.252 6.18,-8.891 11.592,-8.891 1.93,0 2.699,0 3.475,0.39 v 8.501 c -1.158,0 -2.705,-0.39 -3.863,-0.39 -6.182,0 -10.816,5.021 -10.816,13.521 v 18.93 h -8.887 v -39.79 z m 48.681,-15.454 h 8.887 v 55.25 h -8.887 z m 18.545,0 h 8.887 v 8.496 h -8.887 z m 0,15.454 h 8.887 v 39.796 h -8.887 z m 14.297,0 h 6.564 v -3.479 c 0,-10.044 5.41,-11.977 10.82,-11.977 2.703,0 4.633,0 6.18,0.386 v 6.953 c -1.156,-0.386 -2.314,-0.386 -3.861,-0.386 -2.316,0 -4.248,0.773 -4.248,4.249 v 4.252 h 7.338 v 6.564 h -7.338 v 33.229 h -8.891 v -33.229 h -6.564 z m 35.158,22.02 c 0,6.184 3.479,11.979 10.814,11.979 5.023,0 8.117,-2.319 9.66,-6.567 h 8.502 c -1.934,8.89 -9.277,13.521 -18.162,13.521 -12.363,0 -19.316,-8.885 -19.316,-20.864 0,-11.202 7.342,-20.86 19.316,-20.86 12.75,0 20.092,11.201 18.936,23.181 h -29.75 z m 20.477,-5.795 c -0.387,-5.407 -4.25,-10.43 -10.045,-10.43 -6.186,0 -10.049,4.633 -10.432,10.43 z"
         id="path8"
         fill="#ffffff" />
    </g>
  </g>
</svg>
