<?xml version="1.0" encoding="utf-8"?>
<!-- Generator: Adobe Illustrator 24.0.2, SVG Export Plug-In . SVG Version: 6.00 Build 0)  -->
<svg version="1.1" id="Layer_1" xmlns="http://www.w3.org/2000/svg" xmlns:xlink="http://www.w3.org/1999/xlink" x="0px" y="0px"
	 viewBox="0 0 100 35.4" style="enable-background:new 0 0 100 35.4;" xml:space="preserve">
<style type="text/css">
	.st0{fill:none;}
	.st1{fill:#E06430;}
	.st2{fill:#8E3C20;}
</style>
<g>
	<path class="st0" d="M64.8,5.1c-0.5-0.1-1.1-0.1-1.6,0.1c-0.9,0.4-1.5,1.3-1.5,2.2c0,0.9,0,1.9,0,2.8c1.7,0,3.4,0,5.1,0
		c0-0.9,0-1.8,0-2.7C66.7,6.4,65.9,5.4,64.8,5.1z"/>
	<path class="st1" d="M100,7.2c0-1.7,0-3.4,0-5.1C100,1,99.1,0,98,0c-2,0-4.1,0-6.1,0c-0.3,0-0.6,0-0.9,0.1c-0.9,0.2-1.6,1-1.6,2
		c0,2,0,4.1,0,6.1c0,0.4,0,0.9,0.2,1.3c0.3,0.7,1.1,1.2,1.8,1.2c2,0,4,0,6,0c0.3,0,0.7,0,1-0.1c0.7-0.2,1.2-0.7,1.4-1.4
		C100.1,8.5,100,7.8,100,7.2z"/>
	<path class="st1" d="M38.1,2.4c0-0.5,0.1-1.1-0.1-1.6c-0.1-0.4-0.6-0.7-1-0.7c-1,0-2.1-0.1-3.1,0c-0.4,0.1-0.7,0.4-0.7,0.8
		c0,0.8,0,1.6,0,2.4c0,0.3,0,0.6,0.1,0.9c0.2,0.3,0.5,0.4,0.9,0.4c0.9,0,1.9,0,2.8,0c0.4,0,0.9-0.3,0.9-0.8
		C38.2,3.5,38.1,3,38.1,2.4z"/>
	<path class="st2" d="M54.2,4.3c-0.6-1.2-1.5-2.2-2.7-3c-1.5-1-3.3-1.4-5.1-1.1C44.7,0.5,43.1,1.6,42,3c-1,1.2-1.5,2.7-1.5,4.2
		c0,9.4,0,18.8,0,28.2c1.6,0,3.1,0,4.7,0c0-2.4,0-4.9,0-7.3c0.6,0.7,1.5,1.3,2.5,1.3c1.2,0,2.3-0.1,3.4-0.6c1-0.5,1.9-1.3,2.5-2.2
		c0.9-1.4,1.3-3.1,1.3-4.8c0-4.8,0-9.6,0-14.4C54.7,6.3,54.6,5.3,54.2,4.3z M50.1,22c0,0.7-0.3,1.5-0.9,2c-0.7,0.6-1.8,0.7-2.7,0.3
		c-0.8-0.3-1.3-1.2-1.3-2.1c0-4.9,0-9.8,0-14.7c0-1.1,0.9-2.1,2-2.2c1.1-0.2,2.4,0.4,2.8,1.5c0.2,0.6,0.2,1.2,0.2,1.8
		C50.1,13,50.1,17.5,50.1,22z"/>
	<path class="st2" d="M13,13.2c-1.4-1.7-3.4-2.7-5.6-2.8c-0.8,0-1.5-0.3-2.1-0.9c-1-1.1-0.8-2.9,0.3-3.8C6.4,5,7.6,5,8.4,5.4
		c0.7,0.3,1.1,1,1.2,1.7c1.6,0,3.1,0,4.7,0c0-1.4-0.4-2.7-1.2-3.8c-1.3-1.7-3.2-2.9-5.4-3c-0.6-0.1-1.2,0-1.9,0.1
		C4.2,0.6,2.7,1.6,1.7,2.9c-2.4,2.9-2.2,7.7,0.6,10.3c1.2,1.3,3,2,4.9,2c0.6,0,1.3,0.1,1.9,0.5c0.5,0.4,0.7,1,0.7,1.6
		c0,1.4,0,2.7,0,4.1c0.1,1-0.3,2.3-1.4,2.7c-0.8,0.3-1.9,0.3-2.6-0.2c-0.6-0.5-0.9-1.3-0.9-2c0-1.3,0-2.6,0-3.9c-1.6,0-3.2,0-4.7,0
		c0,1.4,0,2.8,0,4.2c0.2,2.6,1.8,5,4.1,6.2c1.3,0.7,2.9,0.9,4.4,0.7c1.7-0.2,3.3-1.1,4.4-2.5c1-1.3,1.5-2.9,1.5-4.5
		c0-1.6,0-3.2,0-4.7C14.4,15.9,13.9,14.3,13,13.2z"/>
	<path class="st2" d="M71.4,10.3c0-1.1,0-2.2,0-3.3c0-1.4-0.5-2.8-1.4-3.9c-1-1.3-2.4-2.3-4-2.7c-1.4-0.3-2.8-0.3-4.2,0.1
		c-1.7,0.5-3.1,1.7-3.9,3.3C57.3,4.8,57,6,57,7.2v14.3c0,0.7,0,1.4,0.1,2.1c0.3,1.8,1.5,3.5,3.1,4.5c1.6,1,3.5,1.3,5.4,1
		c1.5-0.2,2.8-1,3.9-2.1c1.2-1.3,1.9-3,1.9-4.8c0-1.4,0-2.8,0-4.1c-1.6,0-3.2,0-4.7,0c0,1.3,0,2.5,0,3.8c0,0.9-0.5,1.9-1.4,2.2
		c-0.8,0.3-1.7,0.3-2.4-0.2c-0.7-0.4-1.2-1.3-1.2-2.1c0-2.3,0-4.7,0-7c3.2,0,6.5,0,9.7,0C71.4,13.3,71.4,11.8,71.4,10.3z M61.7,10.3
		c0-0.9,0-1.9,0-2.8c0-0.9,0.6-1.8,1.5-2.2c0.5-0.2,1-0.2,1.6-0.1c1.1,0.2,2,1.3,2,2.4c0,0.9,0,1.8,0,2.7
		C65,10.3,63.4,10.3,61.7,10.3z"/>
	<path class="st2" d="M86.4,13.4c-1.1-1.5-2.9-2.5-4.7-2.9c-0.7-0.2-1.5-0.1-2.2-0.4c-0.7-0.3-1.3-1-1.4-1.8C78,7.7,78,7.1,78.3,6.5
		c0.3-0.6,0.8-1.2,1.5-1.3c0.9-0.2,1.9-0.1,2.5,0.6c0.4,0.4,0.5,0.9,0.7,1.3c1.6,0,3.1,0,4.7,0c0-1.1-0.2-2.2-0.8-3.2
		c-0.8-1.4-2-2.4-3.4-3.1c-1.6-0.7-3.4-0.8-5.1-0.4c-1.7,0.5-3.2,1.8-4.1,3.3c-0.9,1.6-1.2,3.5-0.9,5.3c0.2,1.4,0.8,2.7,1.8,3.7
		c1.3,1.5,3.2,2.4,5.1,2.4c0.7,0,1.5,0.1,2.1,0.6c0.5,0.4,0.6,1.1,0.6,1.7c0,1.4,0,2.9,0,4.3c-0.1,0.9-0.5,1.8-1.3,2.2
		c-0.9,0.3-1.9,0.3-2.7-0.2c-0.6-0.5-1-1.3-1-2c0-1.3,0-2.6,0-3.9c-1.6,0-3.2,0-4.7,0c0,0.9,0,1.7,0,2.6c0,0.9-0.1,1.8,0.2,2.7
		c0.4,1.9,1.6,3.5,3.2,4.7c1.1,0.8,2.5,1.2,3.8,1.2c1.9,0,3.8-0.6,5.1-2c1.3-1.3,2-3.1,2.1-4.9c0-1.6,0-3.2,0-4.8
		C87.7,16,87.3,14.5,86.4,13.4z"/>
	<path class="st2" d="M30,4c-0.9-1.4-2.2-2.6-3.8-3.3c-1.4-0.6-3.1-0.6-4.6-0.2c-1.6,0.5-2.9,1.6-3.9,2.9c-0.9,1.2-1.3,2.7-1.3,4.2
		c0,7.1,0,14.1,0,21.2c1.6,0,3.1,0,4.7,0c0-7.1,0-14.1,0-21.2c0-1.1,0.8-2.2,1.9-2.4c0.7-0.1,1.4-0.1,2,0.3c0.8,0.5,1.2,1.5,1.2,2.4
		c0,7,0,13.9,0,20.9c1.6,0,3.1,0,4.7,0c0-7.2,0-14.3,0-21.5C30.9,6.2,30.6,5,30,4z"/>
	<path class="st2" d="M33.3,7.8c0,7,0,14,0,21c1.6,0,3.1,0,4.7,0c0-7,0-14,0-21.1C36.4,7.8,34.8,7.8,33.3,7.8z"/>
</g>
</svg>
