<svg width="570" height="117" viewBox="0 0 570 117" fill="none" xmlns="http://www.w3.org/2000/svg">
<path fill-rule="evenodd" clip-rule="evenodd" d="M276 18.869C276 37.0967 276.014 37.7935 276.417 39.372C277.722 44.479 281.64 48.31 286.726 49.4508C288.074 49.7532 292.07 49.7856 328.031 49.7856C366.695 49.7856 367.888 49.774 369.41 49.3865C373.464 48.354 376.807 45.6555 378.512 42.0389C379.776 39.3581 379.734 40.1266 379.734 19.1685V0H327.867H276V18.869ZM286.84 17.1568C287.942 17.4617 288.241 18.148 288.241 20.3784V22.185L288.96 21.4907C289.559 20.9133 289.874 20.7802 290.831 20.7013C293.138 20.5106 295.1 21.6165 296.047 23.6418C296.75 25.1444 296.748 27.957 296.044 29.4376C295.112 31.3978 293.237 32.6028 290.819 32.7961C288.093 33.0141 285.881 31.9593 284.96 30.0019L284.402 28.8178L284.334 22.8787L284.265 16.9395L285.164 16.9407C285.658 16.9414 286.412 17.0387 286.84 17.1568ZM356.939 17.263C358.02 17.8193 358.158 18.5043 358.154 23.2852C358.151 28.0062 357.942 29.425 357.054 30.7607C356.274 31.9343 354.623 32.6844 352.559 32.8034C350.472 32.9236 349.183 32.5098 347.807 31.2776C346.312 29.9397 345.817 28.8013 345.837 26.752C345.856 24.8732 346.224 23.6955 347.164 22.5147C348.746 20.5261 352.128 20.0223 353.749 21.534L354.216 21.9695V19.4544V16.9395H355.264C355.84 16.9395 356.594 17.0851 356.939 17.263ZM335.688 18.3765C336.146 18.6547 336.389 18.9894 336.474 19.4602C336.542 19.8349 336.57 22.9303 336.537 26.3389L336.477 32.5362L335.44 32.5253C332.637 32.4955 332.554 32.3301 332.466 26.5872L332.396 22.0652L331.947 22.2011C330.982 22.493 329.775 22.5535 329.357 22.3306C328.92 22.0978 328.375 20.6334 328.553 20.1712C328.634 19.9607 330.842 18.9739 332.846 18.2519C333.902 17.872 334.931 17.9172 335.688 18.3765ZM315.004 19.5135V20.8478L316.716 20.9079L318.427 20.9678L318.49 21.8301C318.542 22.539 318.447 22.8109 317.955 23.3596C317.445 23.9277 317.181 24.0411 316.18 24.1239L315.004 24.221V26.4678C315.004 28.484 315.049 28.7596 315.445 29.1539C315.827 29.5336 316.053 29.5784 317.105 29.4834L318.324 29.3735V30.0461C318.324 31.844 317.381 32.6395 315.249 32.6395C313.589 32.6395 312.366 32.0016 311.685 30.7803C311.174 29.8654 311.166 29.7772 311.166 25.1705V20.4902L311.794 19.7178C312.527 18.8159 313.618 18.179 314.43 18.179C314.998 18.179 315.004 18.1936 315.004 19.5135ZM323.925 19.5217V20.8645H325.585H327.245V21.6811C327.245 22.1302 327.139 22.7299 327.009 23.014C326.718 23.65 325.667 24.1698 324.672 24.1698H323.925V26.5308C323.925 29.4617 324.043 29.6437 325.833 29.4822L327.037 29.3735V30.2971C327.037 30.8051 326.937 31.4083 326.813 31.6376C326.488 32.2431 325.361 32.6395 323.965 32.6395C322.312 32.6395 321.106 32.002 320.461 30.7886C320.003 29.9259 319.983 29.6964 319.983 25.2008C319.983 20.6629 319.999 20.49 320.456 19.8136C321.039 18.9526 322.351 18.1868 323.251 18.1823L323.925 18.179V19.5217ZM306.257 20.9558C306.723 21.1198 307.389 21.4632 307.736 21.7189C308.632 22.3777 309.403 24.0182 309.403 25.2638C309.403 26.1343 309.306 26.3727 308.718 26.958C307.828 27.8446 306.86 28.0923 304.28 28.0935C303.117 28.0942 302.115 28.1768 302.052 28.277C301.802 28.6809 302.781 29.5103 303.752 29.7177C304.821 29.9459 307.441 29.716 308.165 29.3305C308.727 29.0306 308.875 29.4561 308.583 30.537C308.17 32.0628 306.724 32.8428 304.305 32.8449C302.488 32.8465 301.021 32.3495 299.953 31.3695C298.591 30.1193 298.104 28.9581 298.099 26.9543C298.096 25.4869 298.175 25.1357 298.793 23.8868C299.516 22.4246 300.564 21.4588 301.999 20.9319C302.931 20.5898 305.252 20.6028 306.257 20.9558ZM368.429 21.1436C371.019 22.3447 372.108 25.6005 370.422 27.1007C369.563 27.8653 368.576 28.0923 366.106 28.0935C364.943 28.0942 363.938 28.1809 363.872 28.2865C363.625 28.6854 364.697 29.5782 365.633 29.752C366.646 29.9402 369.333 29.6807 369.989 29.3314C370.368 29.1293 370.398 29.1812 370.398 30.0342C370.398 31.8153 368.791 32.8461 366.012 32.8461C363.468 32.8461 361.482 31.7296 360.388 29.6842C359.737 28.4679 359.722 25.5344 360.359 24.1592C360.979 22.8229 361.951 21.8018 363.187 21.1882C364.653 20.4609 366.915 20.4416 368.429 21.1436ZM302.994 23.8384C302.49 24.1165 301.954 24.8891 301.941 25.3576C301.932 25.6749 304.335 25.7175 305.136 25.4144C305.829 25.1519 305.823 24.5278 305.121 23.9783C304.499 23.4908 303.717 23.4393 302.994 23.8384ZM364.871 23.755C364.334 23.9704 363.759 24.7435 363.759 25.2487C363.759 25.5636 363.944 25.6129 365.056 25.5952C366.783 25.5679 367.376 25.3851 367.453 24.8565C367.586 23.9477 366.036 23.2867 364.871 23.755ZM289.27 24.3247C288.062 25.4024 287.961 28.0543 289.085 29.174C289.526 29.6134 289.859 29.7474 290.507 29.7474C291.886 29.7474 292.598 28.7569 292.598 26.8353C292.598 24.2516 290.839 22.9249 289.27 24.3247ZM350.59 24.2493C349.395 25.4398 349.465 28.1737 350.718 29.2237C351.144 29.5809 351.585 29.7454 352.105 29.7408C353.455 29.7292 354.05 28.9071 354.05 27.0509C354.05 26.3907 353.939 25.5173 353.804 25.1099C353.366 23.7888 351.543 23.3005 350.59 24.2493ZM343.488 28.5113C344.276 29.1283 344.559 30.156 344.186 31.0456C343.791 31.9855 343.11 32.434 342.084 32.4284C340.381 32.4189 339.357 30.6475 340.19 29.1504C340.782 28.0863 342.517 27.7502 343.488 28.5113Z" fill="black"/>
<path d="M0.996255 38.0698L10.7523 16.9583C10.8474 16.7681 11.0051 16.6138 11.2871 16.6138H11.5991C11.9145 16.6138 12.038 16.7681 12.134 16.9583L21.7957 38.0698C21.9834 38.4795 21.7314 38.8858 21.2617 38.8858H18.5334C18.062 38.8858 17.8425 38.6998 17.6231 38.2592L16.0863 34.8718H6.70568L5.16797 38.2592C5.04283 38.5729 4.76168 38.8858 4.26025 38.8858H1.53025C1.05883 38.8858 0.80854 38.4795 0.996255 38.0698ZM14.5494 31.3892L11.4114 24.4883H11.3171L8.24254 31.3892H14.5494Z" fill="black"/>
<path d="M33.3849 17.0843C33.4175 16.8349 33.6052 16.6155 33.9506 16.6155H34.4512C34.7032 16.6155 34.8909 16.7398 34.9852 16.9275L41.8861 31.7355H41.9804L48.8821 16.9275C48.9781 16.7398 49.1332 16.6155 49.4161 16.6155H49.9175C50.2629 16.6155 50.4506 16.8349 50.4832 17.0843L54.1835 38.1658C54.2778 38.6055 54.0275 38.8866 53.6195 38.8866H50.7644C50.4832 38.8866 50.2304 38.6372 50.1686 38.4161L48.3172 26.5275H48.2221L42.7338 38.8541C42.6712 39.0435 42.4826 39.2003 42.1989 39.2003H41.6349C41.3521 39.2003 41.1961 39.0426 41.1009 38.8541L35.5492 26.5275H35.4532L33.6344 38.4161C33.6035 38.6372 33.3532 38.8866 33.0704 38.8866H30.2469C29.8389 38.8866 29.5869 38.6055 29.6504 38.1658L33.3849 17.0843Z" fill="black"/>
<path d="M74.4057 16.6138C80.68 16.6138 85.6985 21.6649 85.6985 27.9383C85.6985 34.2118 80.68 39.2003 74.4057 39.2003C68.1322 39.2003 63.1445 34.2126 63.1445 27.9383C63.1445 21.6641 68.1314 16.6138 74.4057 16.6138ZM74.4057 35.1212C78.3597 35.1212 81.6194 31.8915 81.6194 27.9392C81.6194 23.9852 78.3605 20.6929 74.4057 20.6929C70.4517 20.6929 67.2237 23.9852 67.2237 27.9392C67.2228 31.8915 70.4517 35.1212 74.4057 35.1212Z" fill="black"/>
<path d="M96.0352 17.5239C96.0352 17.2094 96.2846 16.9274 96.6309 16.9274H105.604C109.37 16.9274 112.444 19.9385 112.444 23.6722C112.444 26.5591 110.528 28.9111 107.8 30.0082L112.097 37.9779C112.317 38.3851 112.097 38.8865 111.566 38.8865H108.271C107.99 38.8865 107.83 38.7305 107.77 38.6054L103.596 30.2919H100.113V38.2917C100.113 38.6054 99.8314 38.8865 99.5186 38.8865H96.6309C96.2846 38.8865 96.0352 38.6054 96.0352 38.2917V17.5239V17.5239ZM105.259 26.9354C106.923 26.9354 108.365 25.4919 108.365 23.7331C108.365 22.0719 106.923 20.6919 105.259 20.6919H100.147V26.9354H105.259Z" fill="black"/>
<path d="M123.031 17.5239C123.031 17.2094 123.282 16.9274 123.628 16.9274H136.395C136.741 16.9274 136.989 17.2102 136.989 17.5239V20.0962C136.989 20.4108 136.741 20.6919 136.395 20.6919H127.107V25.8365H134.858C135.169 25.8365 135.455 26.1177 135.455 26.4322V29.0362C135.455 29.3808 135.169 29.6328 134.858 29.6328H127.107V35.1202H136.395C136.741 35.1202 136.989 35.4048 136.989 35.7168V38.2899C136.989 38.6037 136.741 38.8848 136.395 38.8848H123.628C123.282 38.8848 123.031 38.6037 123.031 38.2899V17.5239Z" fill="black"/>
<path d="M147.391 17.5239C147.391 17.2094 147.64 16.9274 147.982 16.9274H150.869C151.185 16.9274 151.466 17.2102 151.466 17.5239V35.1211H159.466C159.811 35.1211 160.062 35.4057 160.062 35.7177V38.2908C160.062 38.6045 159.811 38.8857 159.466 38.8857H147.982C147.64 38.8857 147.391 38.6045 147.391 38.2908V17.5239Z" fill="black"/>
<path d="M169.516 17.5239C169.516 17.2094 169.801 16.9274 170.114 16.9274H173.031C173.342 16.9274 173.628 17.2102 173.628 17.5239V38.2908C173.628 38.6045 173.342 38.8857 173.031 38.8857H170.114C169.801 38.8857 169.516 38.6045 169.516 38.2908V17.5239Z" fill="black"/>
<path d="M185.242 17.5239C185.242 17.2094 185.492 16.9274 185.839 16.9274H198.607C198.953 16.9274 199.203 17.2102 199.203 17.5239V20.0962C199.203 20.4108 198.953 20.6919 198.607 20.6919H189.321V25.8365H197.069C197.385 25.8365 197.666 26.1177 197.666 26.4322V29.0362C197.666 29.3808 197.385 29.6328 197.069 29.6328H189.321V35.1202H198.607C198.953 35.1202 199.203 35.4048 199.203 35.7168V38.2899C199.203 38.6037 198.953 38.8848 198.607 38.8848H185.839C185.492 38.8848 185.242 38.6037 185.242 38.2899V17.5239Z" fill="black"/>
<path d="M510.288 25.6131C510.135 25.2504 510.02 24.8495 509.906 24.3723C509.791 23.895 509.639 23.4368 509.467 22.9787C509.295 22.5396 509.085 22.1769 508.818 21.8523C508.551 21.566 508.207 21.4133 507.787 21.4133C506.985 21.4133 506.279 22.0051 505.687 23.1505C505.095 24.2959 504.771 26.0522 504.771 28.324C504.771 31.073 505.324 33.1348 506.431 34.5856C507.52 36.0365 509.009 36.7428 510.822 36.7428C511.853 36.7428 512.827 36.4756 513.686 35.9792C514.564 35.4447 515.423 34.5284 516.072 33.1539L516.339 33.8029C515.728 36.132 514.602 38.0028 513.094 39.2055C511.586 40.4082 509.734 41 507.52 41C506.221 41 505.019 40.7709 503.892 40.2937C502.747 39.8164 501.773 39.1673 500.876 38.3083C500.017 37.4492 499.349 36.4183 498.814 35.2347C498.318 34.0511 498.051 32.6957 498.051 31.2257C498.051 29.7176 498.318 28.324 498.853 27.064C499.387 25.804 500.132 24.6777 501.067 23.7232C502.002 22.7878 503.129 22.0432 504.427 21.5087C505.725 20.9742 507.138 20.7069 508.684 20.7069C509.868 20.7069 510.899 20.8215 511.758 21.0887C512.636 21.356 513.361 21.6805 513.934 22.1005C514.526 22.5205 514.965 22.9596 515.27 23.4941C515.557 23.9905 515.709 24.525 515.709 25.0213C515.709 25.7277 515.48 26.3577 514.965 26.854C514.469 27.3504 513.819 27.6176 512.96 27.6176C511.643 27.5795 510.765 26.9113 510.288 25.6131Z" fill="black"/>
<path d="M526.226 40.9618C524.756 40.9618 523.362 40.6945 522.083 40.1982C520.804 39.6636 519.716 38.9573 518.8 38.0409C517.883 37.1246 517.177 36.0555 516.643 34.8528C516.108 33.6502 515.879 32.3138 515.879 30.9202C515.879 29.5266 516.146 28.2094 516.7 26.9685C517.253 25.7276 517.998 24.6395 518.952 23.7231C519.888 22.8068 520.995 22.0623 522.255 21.5468C523.534 20.9932 524.851 20.726 526.245 20.726C527.772 20.726 529.166 20.9932 530.464 21.5278C531.743 22.0623 532.831 22.7686 533.748 23.685C534.664 24.6013 535.351 25.6704 535.867 26.8731C536.363 28.1139 536.63 29.4121 536.63 30.8248C536.63 32.1611 536.363 33.4593 535.867 34.7001C535.332 35.941 534.626 37.0101 533.69 37.9455C532.755 38.8809 531.648 39.6254 530.407 40.1982C529.07 40.6945 527.715 40.9618 526.226 40.9618ZM522.923 30.6911C522.923 33.6692 523.21 35.9983 523.782 37.6973C524.355 39.3964 525.176 40.2363 526.207 40.2363C526.627 40.2363 527.009 40.0836 527.39 39.8164C527.772 39.5491 528.135 39.0527 528.421 38.3655C528.708 37.6591 528.956 36.7046 529.128 35.5019C529.299 34.2992 529.395 32.7529 529.395 30.9011C529.395 27.8658 529.109 25.5176 528.517 23.8759C527.925 22.215 527.104 21.4323 526.035 21.4323C525.615 21.4323 525.233 21.585 524.851 21.8714C524.47 22.1577 524.145 22.6732 523.878 23.3795C523.591 24.0859 523.343 25.0404 523.171 26.2431C523.019 27.3885 522.923 28.8776 522.923 30.6911Z" fill="black"/>
<path d="M560.879 17.4233C561.242 17.7861 561.643 18.0724 562.158 18.2824C562.654 18.4924 563.17 18.5688 563.666 18.5688C564.812 18.5688 565.766 18.187 566.53 17.4233C567.293 16.6597 567.675 15.7434 567.675 14.7125C567.675 13.5862 567.293 12.6507 566.53 11.8871C565.766 11.1235 564.812 10.7417 563.666 10.7417C563.132 10.7417 562.635 10.8372 562.158 11.0281C561.662 11.238 561.242 11.5053 560.879 11.8871C560.516 12.2498 560.23 12.6507 560.02 13.1662C559.81 13.6816 559.695 14.178 559.695 14.7316C559.695 15.2661 559.81 15.7434 560.02 16.2016C560.23 16.6597 560.516 17.0797 560.879 17.4233Z" fill="black"/>
<path d="M567.96 39.11C567.426 38.69 567.196 37.9646 567.196 36.9337V26.1476L567.292 20.8596L566.967 20.745L557.651 23.2841V23.7041C557.976 23.6659 558.3 23.7041 558.625 23.7995C558.949 23.895 559.236 24.0286 559.484 24.2386C559.732 24.4486 559.923 24.7349 560.095 25.1167C560.267 25.4986 560.324 25.9949 560.324 26.5867V36.781C560.324 37.2773 560.286 37.8119 560.095 38.2891C559.942 38.6137 559.293 39.4918 558.587 39.4918C557.88 39.4918 557.289 38.8046 557.059 38.2891C556.85 37.85 556.83 37.2582 556.83 36.781C556.83 36.7237 556.83 26.0713 556.83 26.0713C556.83 24.2959 556.353 22.9786 555.38 22.0623C554.444 21.1841 553.165 20.726 551.638 20.726C550.244 20.726 548.946 21.0887 547.762 21.7568C546.579 22.4632 545.586 23.265 544.727 24.1431V20.8405L544.403 20.726L535.277 23.265V23.685C535.602 23.6468 535.926 23.685 536.251 23.7804C536.575 23.8759 536.862 24.0095 537.11 24.2195C537.339 24.4295 537.549 24.7158 537.721 25.0977C537.893 25.4795 537.95 25.9758 537.95 26.5676V36.9337C537.95 37.9646 537.721 38.7091 537.244 39.11C536.766 39.53 536.232 39.7591 535.64 39.8163V40.2363H546.579V39.8545C546.025 39.7973 545.605 39.5682 545.243 39.1482C544.918 38.7282 544.746 38.0028 544.746 36.8955V25.0213C545.185 24.6395 545.663 24.3149 546.14 24.0859C546.636 23.8568 547.113 23.7041 547.61 23.7041C548.316 23.7041 548.889 23.9331 549.29 24.4486C549.71 24.9449 549.901 25.6895 549.901 26.7203V36.9146C549.901 38.0028 549.748 38.7664 549.462 39.1673C549.175 39.5873 548.698 39.8164 548.068 39.8736V40.2554H558.033H558.644H569.545V39.8354C569.048 39.7591 568.495 39.5109 567.96 39.11Z" fill="black"/>
<path d="M499.862 36.9528C499.156 37.9646 498.564 38.2319 498.011 38.2319C497.209 38.2319 496.827 37.6783 496.827 36.571V27.2167C496.827 25.2313 496.14 23.6659 494.765 22.4632C493.372 21.2796 491.272 20.6687 488.408 20.6687C485.697 20.6687 483.693 21.1078 482.376 21.9669C481.039 22.8259 480.39 23.895 480.39 25.0977C480.39 25.8995 480.657 26.5486 481.154 27.0258C481.688 27.5222 482.299 27.7704 483.044 27.7704C483.636 27.7704 484.227 27.5985 484.819 27.2358C485.373 26.8731 485.831 26.2622 486.156 25.3841C486.327 24.8495 486.48 24.3532 486.537 23.8759C486.595 23.3796 486.69 22.9596 486.766 22.5778C486.862 22.196 486.996 21.8905 487.206 21.6614C487.415 21.4323 487.74 21.2987 488.217 21.2987C488.771 21.2987 489.229 21.566 489.515 22.1196C489.802 22.6732 489.955 23.6468 489.955 25.1359V28.744C487.855 29.2976 486.117 29.8894 484.724 30.4812C483.368 31.073 482.28 31.6839 481.44 32.3139C480.638 32.9248 480.085 33.612 479.76 34.2993C479.436 34.9865 479.283 35.712 479.283 36.4756C479.283 37.2201 479.436 37.8692 479.703 38.4037C479.932 38.9001 480.295 39.32 480.677 39.6828C479.989 39.5873 479.283 39.4155 478.997 39.1291C478.558 38.6519 478.233 38.1937 478.233 36.8765V7.09545L477.87 7L471.971 8.50814C470.845 8.22178 469.7 8.06906 468.478 8.06906C467.275 8.06906 466.053 8.27906 464.851 8.71814C463.648 9.15721 462.522 9.84447 461.51 10.7226C460.498 11.639 459.677 12.7844 459.066 14.2162C458.417 15.6289 458.054 17.3088 458.035 19.2369V20.096V20.516H455V21.7187H458.016V36.6665C458.016 37.7355 457.806 38.4992 457.367 38.9955C456.947 39.4919 456.394 39.7973 455.706 39.8546V40.2173H467.141V39.8546C466.454 39.7973 465.901 39.4919 465.481 38.9955C465.061 38.5182 464.832 37.7546 464.832 36.6665C464.832 36.6665 464.832 21.7569 464.832 21.7187H468.726V20.516H464.812C464.812 20.3633 464.774 20.2296 464.774 20.096L464.679 19.2369C464.526 18.2061 464.392 17.1943 464.202 16.2207C464.03 15.2852 463.934 14.2734 463.934 13.2044C463.934 12.059 464.221 11.0853 464.793 10.3026C465.347 9.53902 466.263 9.11904 467.504 9.11904C468.058 9.11904 468.592 9.23358 469.108 9.50084C469.585 9.76811 469.986 10.1117 470.349 10.5317C470.711 10.9708 470.96 11.4672 471.15 12.0399C471.322 12.5935 471.437 13.2235 471.437 13.8916V36.7428C471.437 37.7737 471.208 38.5946 470.75 39.0146C470.31 39.4346 469.814 39.6637 469.241 39.7209V40.1027H481.402C481.688 40.2746 482.013 40.4273 482.337 40.5418C482.891 40.7136 483.521 40.8282 484.132 40.8282C485.163 40.8282 486.232 40.5991 487.32 40.0837C488.408 39.5873 489.382 38.9001 490.241 38.0219C490.527 38.9573 491.004 39.74 491.711 40.1791C492.398 40.6182 493.219 40.8282 494.212 40.8282C495.453 40.8282 496.541 40.5418 497.552 39.95C498.469 39.4155 499.118 38.8046 500.13 37.2392L499.862 36.9528ZM488.103 38.0792C487.415 38.0792 486.824 37.8119 486.327 37.3155C485.831 36.8192 485.583 36.0174 485.583 34.9292C485.583 34.452 485.64 33.9938 485.755 33.4784C485.869 32.982 486.079 32.5048 486.404 32.0275C486.728 31.5503 487.167 31.0921 487.74 30.6339C488.313 30.1757 489.038 29.813 489.916 29.4503V35.8647C489.916 36.3992 489.955 36.8765 490.031 37.3346C489.477 37.831 488.828 38.0792 488.103 38.0792Z" fill="black"/>
<path d="M170.78 102.22C170.54 102.22 170.26 102.19 169.95 102.14C169.63 102.09 169.31 101.98 168.97 101.81C168.63 101.64 168.3 101.41 167.98 101.1C167.65 100.79 167.36 100.39 167.11 99.89C166.85 99.39 166.64 98.77 166.49 98.03C166.33 97.3 166.25 96.42 166.25 95.41V88.21C166.25 87.19 166.33 86.31 166.5 85.59C166.67 84.86 166.89 84.25 167.17 83.76C167.45 83.26 167.77 82.87 168.13 82.58C168.49 82.29 168.87 82.06 169.25 81.91C169.64 81.76 170.02 81.65 170.4 81.61C170.78 81.56 171.13 81.54 171.46 81.54C172.28 81.54 172.98 81.65 173.55 81.88C174.12 82.11 174.58 82.42 174.93 82.81C175.28 83.2 175.54 83.66 175.69 84.18C175.84 84.7 175.92 85.26 175.92 85.85C175.92 86.29 175.89 86.69 175.84 87.06C175.79 87.43 175.72 87.84 175.63 88.28H173.17V87.3C173.17 85.07 172.57 83.96 171.37 83.96C171.04 83.96 170.76 84.02 170.53 84.13C170.29 84.24 170.09 84.43 169.94 84.7C169.78 84.97 169.66 85.32 169.59 85.75C169.51 86.19 169.48 86.73 169.48 87.38V96.59C169.48 97.22 169.52 97.75 169.59 98.17C169.66 98.59 169.78 98.93 169.93 99.18C170.08 99.43 170.28 99.61 170.51 99.72C170.74 99.83 171.02 99.88 171.35 99.88C171.69 99.88 171.98 99.79 172.23 99.61C172.48 99.43 172.68 99.19 172.84 98.88C173 98.57 173.12 98.21 173.19 97.78C173.27 97.36 173.3 96.9 173.3 96.41V93.76H171.72V91.74H176.3V102.17H174.25L173.92 100.1C173.53 100.85 173.09 101.4 172.58 101.72C172.07 102.05 171.47 102.22 170.78 102.22Z" fill="black"/>
<path d="M181.367 81.53H184.917L188.677 102.22H185.557L184.997 98.51H181.287L180.747 102.22H177.617L181.367 81.53ZM184.637 96.15L183.207 85.84H183.077L181.637 96.15H184.637Z" fill="black"/>
<path d="M189.387 98C189.387 97.56 189.477 96 189.587 95.56H192.087V96.56C192.087 97.11 192.117 97.61 192.187 98.03C192.257 98.46 192.367 98.82 192.517 99.11C192.667 99.4 192.877 99.63 193.137 99.77C193.397 99.92 193.707 100 194.087 100C194.677 100 195.127 99.84 195.427 99.51C195.737 99.19 195.887 98.71 195.887 98.08C195.887 97.76 195.867 97.46 195.817 97.19C195.777 96.92 195.697 96.65 195.587 96.39C195.477 96.12 195.337 95.85 195.157 95.55C194.977 95.26 194.737 94.93 194.457 94.57L191.247 90.7C190.677 89.96 190.237 89.21 189.927 88.46C189.617 87.71 189.467 86.91 189.467 86.05C189.467 85.37 189.577 84.74 189.787 84.17C189.997 83.6 190.297 83.11 190.697 82.69C191.097 82.28 191.587 81.95 192.167 81.72C192.747 81.49 193.407 81.38 194.147 81.38C195.047 81.38 195.787 81.51 196.387 81.77C196.987 82.03 197.467 82.37 197.817 82.78C198.177 83.2 198.427 83.67 198.577 84.19C198.727 84.71 198.797 85.23 198.797 85.75C198.797 86.19 198.677 87.76 198.587 88.21H196.087V87.23C196.087 86.14 195.937 85.3 195.627 84.71C195.317 84.13 194.817 83.84 194.117 83.84C193.537 83.84 193.107 84 192.817 84.33C192.527 84.66 192.387 85.09 192.387 85.64C192.387 85.93 192.407 86.19 192.457 86.42C192.497 86.65 192.567 86.87 192.647 87.07C192.727 87.27 192.827 87.46 192.947 87.64C193.067 87.83 193.197 88.02 193.347 88.22L196.927 92.61C197.577 93.47 198.077 94.3 198.427 95.09C198.777 95.88 198.947 96.72 198.947 97.6C198.947 98.33 198.837 98.99 198.607 99.58C198.377 100.17 198.057 100.67 197.637 101.08C197.217 101.49 196.707 101.81 196.117 102.03C195.527 102.25 194.847 102.36 194.107 102.36C193.187 102.36 192.427 102.24 191.817 101.99C191.207 101.74 190.727 101.41 190.367 101C190.007 100.59 189.757 100.12 189.607 99.6C189.457 99.08 189.387 98.54 189.387 98Z" fill="black"/>
<path d="M203.079 84H199.809V81.53H209.419V84H206.159V102.21H203.079V84Z" fill="black"/>
<path d="M210.977 81.53H214.317C214.697 81.53 215.117 81.55 215.577 81.58C216.037 81.61 216.487 81.69 216.947 81.82C217.407 81.95 217.847 82.13 218.267 82.38C218.687 82.63 219.067 82.97 219.397 83.41C219.727 83.85 219.987 84.39 220.187 85.05C220.387 85.71 220.487 86.51 220.487 87.45V87.97C220.487 89.55 220.267 90.83 219.817 91.82C219.377 92.81 218.717 93.52 217.857 93.96L221.117 102.24H217.857L215.157 94.49H213.997V102.24H210.977V81.53ZM214.457 92.22C214.997 92.22 215.457 92.16 215.827 92.04C216.197 91.92 216.497 91.71 216.727 91.43C216.957 91.14 217.127 90.76 217.227 90.29C217.327 89.82 217.377 89.23 217.377 88.54V86.9C217.377 86.37 217.327 85.91 217.237 85.52C217.137 85.13 216.977 84.81 216.757 84.56C216.527 84.31 216.227 84.12 215.857 84C215.487 83.88 215.017 83.82 214.457 83.82H213.997V92.22H214.457Z" fill="black"/>
<path d="M227.34 102.21C227.01 102.21 226.66 102.18 226.28 102.13C225.9 102.08 225.52 101.97 225.15 101.8C224.78 101.63 224.42 101.4 224.07 101.09C223.73 100.79 223.42 100.38 223.15 99.88C222.88 99.38 222.67 98.76 222.51 98.03C222.35 97.3 222.27 96.42 222.27 95.41V88.21C222.27 87.19 222.35 86.31 222.51 85.59C222.67 84.86 222.89 84.25 223.16 83.76C223.43 83.26 223.74 82.87 224.08 82.58C224.42 82.29 224.79 82.06 225.16 81.91C225.54 81.76 225.91 81.65 226.28 81.61C226.65 81.56 227 81.54 227.31 81.54C227.61 81.54 227.95 81.56 228.32 81.61C228.69 81.65 229.06 81.75 229.43 81.9C229.8 82.05 230.16 82.27 230.51 82.55C230.86 82.84 231.17 83.23 231.44 83.73C231.71 84.23 231.93 84.84 232.09 85.57C232.25 86.3 232.33 87.19 232.33 88.23V95.43C232.33 96.44 232.25 97.3 232.08 98.03C231.91 98.76 231.7 99.37 231.43 99.87C231.16 100.37 230.85 100.78 230.5 101.08C230.15 101.39 229.79 101.62 229.42 101.79C229.05 101.96 228.68 102.07 228.32 102.13C227.96 102.18 227.63 102.21 227.34 102.21ZM227.34 99.89C227.64 99.89 227.91 99.84 228.13 99.73C228.36 99.63 228.54 99.45 228.69 99.19C228.84 98.94 228.95 98.6 229.02 98.18C229.1 97.76 229.13 97.24 229.13 96.6V87.35C229.13 86.7 229.09 86.16 229.02 85.72C228.94 85.28 228.83 84.93 228.69 84.67C228.54 84.4 228.36 84.22 228.13 84.11C227.9 84 227.64 83.94 227.34 83.94C227.03 83.94 226.76 84 226.53 84.11C226.3 84.22 226.11 84.41 225.96 84.67C225.81 84.94 225.7 85.29 225.62 85.72C225.54 86.16 225.51 86.7 225.51 87.35V96.6C225.51 97.23 225.55 97.76 225.62 98.18C225.7 98.6 225.81 98.93 225.96 99.19C226.11 99.44 226.3 99.62 226.53 99.73C226.76 99.84 227.03 99.89 227.34 99.89Z" fill="black"/>
<path d="M238.918 81.53H241.998V90.19H245.648V81.53H248.728V102.21H245.648V92.66H241.998V102.21H238.918V81.53Z" fill="black"/>
<path d="M251.008 81.53H258.538V84H254.088V90.19H257.528V92.66H254.088V99.74H258.658V102.21H251.008V81.53Z" fill="black"/>
<path d="M260.277 81.53H263.617C263.997 81.53 264.417 81.55 264.877 81.58C265.337 81.61 265.787 81.69 266.247 81.82C266.707 81.95 267.147 82.13 267.567 82.38C267.987 82.63 268.367 82.97 268.697 83.41C269.027 83.85 269.287 84.39 269.487 85.05C269.687 85.71 269.787 86.51 269.787 87.44V87.96C269.787 89.53 269.567 90.82 269.117 91.81C268.677 92.8 268.017 93.51 267.157 93.95L270.417 102.22H267.157L264.457 94.48H263.307V102.22H260.287V81.53H260.277ZM263.767 92.21C264.307 92.21 264.767 92.15 265.137 92.03C265.507 91.91 265.807 91.71 266.037 91.42C266.267 91.13 266.437 90.75 266.537 90.28C266.637 89.81 266.687 89.22 266.687 88.53V86.89C266.687 86.36 266.637 85.9 266.547 85.51C266.447 85.12 266.287 84.8 266.067 84.55C265.837 84.3 265.537 84.11 265.167 83.99C264.797 83.87 264.327 83.81 263.767 83.81H263.307V92.2H263.767V92.21Z" fill="black"/>
<path d="M276.636 102.21C276.306 102.21 275.956 102.18 275.576 102.13C275.196 102.08 274.816 101.97 274.446 101.8C274.076 101.63 273.716 101.4 273.366 101.09C273.016 100.79 272.716 100.38 272.446 99.88C272.176 99.38 271.966 98.76 271.806 98.03C271.646 97.3 271.566 96.42 271.566 95.41V88.21C271.566 87.19 271.646 86.31 271.806 85.59C271.966 84.86 272.186 84.25 272.456 83.76C272.726 83.26 273.036 82.87 273.376 82.58C273.726 82.29 274.086 82.06 274.456 81.91C274.836 81.76 275.206 81.65 275.576 81.61C275.946 81.56 276.296 81.54 276.606 81.54C276.906 81.54 277.246 81.56 277.616 81.61C277.986 81.65 278.356 81.75 278.726 81.9C279.096 82.05 279.456 82.27 279.806 82.55C280.156 82.84 280.466 83.23 280.736 83.73C281.006 84.23 281.226 84.84 281.386 85.57C281.546 86.3 281.626 87.19 281.626 88.23V95.43C281.626 96.44 281.546 97.3 281.376 98.03C281.206 98.76 280.986 99.37 280.726 99.87C280.456 100.37 280.146 100.78 279.796 101.08C279.446 101.39 279.086 101.62 278.716 101.79C278.346 101.96 277.976 102.07 277.616 102.13C277.256 102.18 276.926 102.21 276.636 102.21ZM276.636 99.89C276.936 99.89 277.206 99.84 277.426 99.73C277.656 99.63 277.836 99.45 277.986 99.19C278.136 98.94 278.246 98.6 278.316 98.18C278.396 97.76 278.426 97.24 278.426 96.6V87.35C278.426 86.7 278.386 86.16 278.316 85.72C278.236 85.28 278.126 84.93 277.986 84.67C277.836 84.4 277.656 84.22 277.426 84.11C277.196 84 276.936 83.94 276.636 83.94C276.326 83.94 276.056 84 275.826 84.11C275.596 84.22 275.406 84.41 275.256 84.67C275.106 84.94 274.996 85.29 274.916 85.72C274.836 86.16 274.806 86.7 274.806 87.35V96.6C274.806 97.23 274.846 97.76 274.916 98.18C274.996 98.6 275.106 98.93 275.256 99.19C275.406 99.44 275.596 99.62 275.826 99.73C276.056 99.84 276.326 99.89 276.636 99.89Z" fill="black"/>
<path d="M145.708 76.86C140.858 76.84 135.758 79.04 132.828 81.53V97.32C132.828 103.8 137.518 105.49 145.708 110.65C153.898 105.5 158.588 103.8 158.588 97.32V81.54C155.658 79.04 150.558 76.85 145.708 76.86Z" fill="black"/>
<path d="M145.707 89.78V93.98H151.077V97.33C151.077 98.16 150.967 98.27 150.647 98.59C149.837 99.41 148.087 100.51 145.707 101.95C143.327 100.51 141.577 99.41 140.767 98.59C140.447 98.27 140.337 98.16 140.337 97.33V85.53C141.867 84.82 143.777 84.25 145.647 84.25H145.757C147.637 84.25 149.547 84.83 151.067 85.53V80.98C149.397 80.4 147.567 80.03 145.757 80.03H145.647C142.047 80.03 138.407 81.5 136.047 83.09V97.33C136.047 100.91 137.817 102.14 143.947 105.84C144.497 106.17 145.087 106.53 145.707 106.91C146.327 106.53 146.917 106.17 147.467 105.84C153.597 102.13 155.367 100.9 155.367 97.33V93.98V90.42V89.78H145.707V89.78Z" fill="white"/>
<g clip-path="url(#clip0)">
<path d="M416.073 82.9553H420.518L424.876 94.7115H424.963L429.408 82.9553H433.592L426.27 100.899H423.133L416.073 82.9553ZM438.56 82.9553H442.395V100.899H438.56V82.9553ZM449.978 82.9553H455.73L459.826 94.7115H459.914L464.01 82.9553H469.937V100.899H466.015V87.1981H465.927L461.221 100.899H458.258L453.812 87.1981H453.9V100.899H449.978V82.9553ZM488.066 87.5517C487.717 87.1097 487.194 86.7562 486.671 86.491C486.148 86.2258 485.451 86.1374 484.754 86.1374C484.056 86.1374 483.359 86.3142 482.749 86.5794C482.139 86.8446 481.616 87.2865 481.093 87.8169C480.657 88.3472 480.309 88.966 480.047 89.6731C479.786 90.3802 479.698 91.1758 479.698 91.9713C479.698 92.8552 479.786 93.5624 480.047 94.2695C480.309 94.9766 480.657 95.5954 481.093 96.1257C481.529 96.6561 482.052 97.0097 482.662 97.3632C483.272 97.6284 483.882 97.8052 484.579 97.8052C485.364 97.8052 486.061 97.6284 486.671 97.2748C487.281 96.9213 487.804 96.4793 488.153 95.8606L491.378 98.3355C490.593 99.3963 489.722 100.192 488.501 100.722C487.368 101.252 486.148 101.518 484.928 101.518C483.533 101.518 482.313 101.341 481.093 100.899C479.96 100.457 478.914 99.8382 478.042 99.0427C477.171 98.2472 476.561 97.2748 476.038 96.0374C475.602 94.8883 475.341 93.5624 475.341 92.1481C475.341 90.7338 475.602 89.4079 476.038 88.2588C476.474 87.1097 477.171 86.1374 478.042 85.2535C478.914 84.458 479.873 83.8392 481.093 83.3973C482.226 82.9553 483.533 82.7785 484.928 82.7785C485.451 82.7785 485.974 82.8669 486.497 82.9553C487.02 83.0437 487.543 83.2205 488.066 83.3973C488.589 83.574 489.112 83.8392 489.547 84.1928C490.07 84.5464 490.419 84.8999 490.855 85.4303L488.066 87.5517ZM503.144 88.1704L500.965 93.7392H505.323L503.144 88.1704ZM501.662 82.9553H504.887L512.557 100.899H508.199L506.718 97.0981H499.832L498.35 100.899H494.08L501.662 82.9553ZM521.447 90.3802H523.713C524.062 90.3802 524.411 90.3802 524.847 90.2919C525.195 90.2919 525.631 90.2035 525.892 90.0267C526.241 89.9383 526.503 89.6731 526.677 89.4079C526.851 89.1428 527.025 88.7892 527.025 88.2588C527.025 87.8169 526.938 87.4633 526.764 87.1981C526.59 86.933 526.328 86.7562 526.067 86.5794C525.805 86.4026 525.457 86.4026 525.108 86.3142C524.759 86.2258 524.411 86.2258 524.062 86.2258H521.534V90.3802H521.447ZM517.612 82.9553H524.324C525.195 82.9553 526.067 83.0437 526.851 83.2205C527.636 83.3973 528.333 83.6624 528.943 84.1044C529.553 84.5464 529.989 85.0767 530.425 85.7839C530.773 86.491 530.948 87.3749 530.948 88.4356C530.948 89.6731 530.599 90.7338 529.989 91.6177C529.379 92.5017 528.42 93.1204 527.113 93.2972L531.645 100.899H526.938L523.278 93.7392H521.36V100.899H517.612V82.9553ZM386.265 86.491L380.251 97.6284C379.902 98.3356 379.292 98.3356 378.856 97.6284L372.842 86.491C372.494 85.7839 372.755 85.4303 373.452 85.6955L378.159 87.4633C378.856 87.7285 380.077 87.7285 380.861 87.4633L385.567 85.6955C386.352 85.4303 386.701 85.7839 386.265 86.491ZM396.026 86.049L388.182 76.1491C387.659 75.442 386.613 75 385.829 75H373.278C372.494 75 371.448 75.442 371.012 76.0607L363.168 86.049C362.645 86.6678 362.383 87.8169 362.558 88.6124L365.347 101.076C365.521 101.871 366.218 102.755 366.916 103.109L378.246 108.677C378.943 109.031 380.077 109.031 380.774 108.677L392.104 103.109C392.802 102.755 393.499 101.871 393.673 101.076L396.462 88.6124C396.724 87.8169 396.462 86.6678 396.026 86.049Z" fill="black"/>
</g>
<defs>
<clipPath id="clip0">
<rect width="169" height="33.8542" fill="white" transform="translate(362.469 75)"/>
</clipPath>
</defs>
</svg>
