<svg
   width="193.9"
   height="38.3"
   viewBox="0 0 193.9 38.3"
   version="1.1"
   id="svg4"
   sodipodi:docname="logo-vimcar-white.svg"
   inkscape:version="1.1 (c68e22c387, 2021-05-23)"
   xmlns:inkscape="http://www.inkscape.org/namespaces/inkscape"
   xmlns:sodipodi="http://sodipodi.sourceforge.net/DTD/sodipodi-0.dtd"
   xmlns="http://www.w3.org/2000/svg"
   xmlns:svg="http://www.w3.org/2000/svg">
  <defs
     id="defs8" />
  <sodipodi:namedview
     id="namedview6"
     pagecolor="#ffffff"
     bordercolor="#666666"
     borderopacity="1.0"
     inkscape:pageshadow="2"
     inkscape:pageopacity="0.0"
     inkscape:pagecheckerboard="0"
     showgrid="false"
     inkscape:zoom="5.8225891"
     inkscape:cx="96.949997"
     inkscape:cy="19.149557"
     inkscape:window-width="1920"
     inkscape:window-height="1009"
     inkscape:window-x="-8"
     inkscape:window-y="-8"
     inkscape:window-maximized="1"
     inkscape:current-layer="svg4" />
  <path
     d="M61.5 9h5.1l5 13.3h.1L76.8 9h4.8l-8.4 20.3h-3.6zm25.8 0h4.4v20.3h-4.4zm13.1 0h6.6l4.7 13.3h.1L116.5 9h6.8v20.3h-4.5V13.8h-.1l-5.4 15.5h-3.4l-5.1-15.5h.1v15.5h-4.5zm43.7 5.2c-.4-.5-1-.9-1.6-1.2-.6-.3-1.4-.4-2.2-.4-.8 0-1.6.2-2.3.5-.7.3-1.3.8-1.9 1.4-.5.6-.9 1.3-1.2 2.1-.3.8-.4 1.7-.4 2.6 0 1 .1 1.8.4 2.6.3.8.7 1.5 1.2 2.1.5.6 1.1 1 1.8 1.4.7.3 1.4.5 2.2.5.9 0 1.7-.2 2.4-.6.7-.4 1.3-.9 1.7-1.6l3.7 2.8c-.9 1.2-1.9 2.1-3.3 2.7-1.3.6-2.7.9-4.1.9-1.6 0-3-.2-4.4-.7-1.3-.5-2.5-1.2-3.5-2.1-1-.9-1.7-2-2.3-3.4-.5-1.3-.8-2.8-.8-4.4 0-1.6.3-3.1.8-4.4.5-1.3 1.3-2.4 2.3-3.4 1-.9 2.1-1.6 3.5-2.1 1.3-.5 2.8-.7 4.4-.7.6 0 1.2.1 1.8.2.6.1 1.2.3 1.8.5.6.2 1.2.5 1.7.9.6.4 1 .8 1.5 1.4l-3.2 2.4zm17.3.7l-2.5 6.3h5l-2.5-6.3zM159.7 9h3.7l8.8 20.3h-5l-1.7-4.3h-7.9l-1.7 4.3H151L159.7 9zm22.7 8.4h2.6c.4 0 .8 0 1.3-.1.4 0 .9-.1 1.2-.3.4-.1.7-.4.9-.7.2-.3.4-.7.4-1.3 0-.5-.1-.9-.3-1.2-.2-.3-.5-.5-.8-.7-.3-.2-.7-.2-1.1-.3-.4-.1-.8-.1-1.2-.1h-2.9v4.7zM178 9h7.7c1 0 2 .1 2.9.3.9.2 1.7.5 2.4 1s1.2 1.1 1.7 1.9c.4.8.6 1.8.6 3 0 1.4-.4 2.6-1.1 3.6-.7 1-1.8 1.7-3.3 1.9l5.2 8.6h-5.4l-4.2-8.1h-2.2v8.1H178V9zM27.3 13l-6.9 12.6c-.4.8-1.1.8-1.6 0L11.9 13c-.4-.8-.1-1.2.7-.9l5.4 2c.8.3 2.2.3 3.1 0l5.4-2c.9-.3 1.3.1.8.9m11.2-.5l-9-11.2C28.9.5 27.7 0 26.8 0H12.4c-.9 0-2.1.5-2.6 1.2l-9 11.3c-.6.7-.9 2-.7 2.9l3.2 14.1c.2.9 1 1.9 1.8 2.3l13 6.3c.8.4 2.1.4 2.9 0l13-6.3c.8-.4 1.6-1.4 1.8-2.3L39 15.4c.3-.9 0-2.2-.5-2.9"
     id="path2"
     fill="white" />
</svg>
