<?xml version="1.0" encoding="UTF-8" standalone="no"?>
<!-- Generator: Adobe Illustrator 23.0.3, SVG Export Plug-In . SVG Version: 6.00 Build 0)  -->

<svg
   version="1.1"
   id="Ebene_1"
   x="0px"
   y="0px"
   viewBox="0 0 148.8 33.790133"
   xml:space="preserve"
   sodipodi:docname="logo-gastro-hero-white.svg"
   width="148.8"
   height="33.790134"
   inkscape:version="1.1 (c68e22c387, 2021-05-23)"
   xmlns:inkscape="http://www.inkscape.org/namespaces/inkscape"
   xmlns:sodipodi="http://sodipodi.sourceforge.net/DTD/sodipodi-0.dtd"
   xmlns="http://www.w3.org/2000/svg"
   xmlns:svg="http://www.w3.org/2000/svg"><defs
   id="defs101" /><sodipodi:namedview
   id="namedview99"
   pagecolor="#ffffff"
   bordercolor="#666666"
   borderopacity="1.0"
   inkscape:pageshadow="2"
   inkscape:pageopacity="0.0"
   inkscape:pagecheckerboard="0"
   showgrid="false"
   inkscape:zoom="7.0355829"
   inkscape:cx="74.407481"
   inkscape:cy="16.985089"
   inkscape:window-width="1920"
   inkscape:window-height="1009"
   inkscape:window-x="-8"
   inkscape:window-y="-8"
   inkscape:window-maximized="1"
   inkscape:current-layer="g96" />
<style
   type="text/css"
   id="style2">
	.st0{display:none;}
	.st1{display:inline;fill:#fff;}
	.st2{fill:#fff;}
	.st3{fill:#fff;}
	.st4{fill:#000;}
</style>
<g
   id="g96"
   transform="translate(-5.83,-5.8598647)">
	<g
   class="st0"
   id="g70">
		<path
   class="st1"
   d="m 41.84,35.4 c 0,-0.59 -0.21,-1 -0.87,-1 -0.58,0 -0.93,0.31 -0.93,0.91 0,1.58 2.65,0.64 2.65,2.69 0,1.3 -0.95,1.67 -1.75,1.67 -1.32,0 -1.7,-0.68 -1.7,-1.87 h 0.69 c 0,0.63 0.04,1.31 1.05,1.31 0.55,0 0.98,-0.39 0.98,-0.99 0,-1.59 -2.65,-0.67 -2.65,-2.73 0,-0.52 0.22,-1.55 1.65,-1.55 1.07,0 1.56,0.54 1.58,1.57 h -0.7 z"
   id="path4" />
		<path
   class="st1"
   d="m 44.68,35.23 c 1.22,0 1.52,1.03 1.52,2.22 0,1.19 -0.31,2.22 -1.52,2.22 -1.22,0 -1.52,-1.03 -1.52,-2.22 0,-1.18 0.31,-2.22 1.52,-2.22 z m 0.83,2.22 c 0,-0.91 -0.13,-1.7 -0.84,-1.7 -0.67,0 -0.81,0.79 -0.81,1.7 0,0.91 0.13,1.7 0.81,1.7 0.7,0.01 0.84,-0.78 0.84,-1.7 z"
   id="path6" />
		<path
   class="st1"
   d="m 51.9,39.67 h -0.77 l -1.17,-2.19 -0.54,0.66 v 1.53 h -0.66 v -5.73 h 0.66 v 3.35 h 0.02 l 1.48,-1.94 h 0.77 l -1.28,1.59 z"
   id="path8" />
		<path
   class="st1"
   d="m 52.15,36.62 c 0,-0.96 0.41,-1.39 1.42,-1.39 1.28,0 1.28,0.77 1.28,1.21 v 2.35 c 0,0.17 0,0.34 0.2,0.34 0.09,0 0.13,-0.02 0.16,-0.04 v 0.54 c -0.05,0.01 -0.22,0.04 -0.39,0.04 -0.25,0 -0.57,-0.07 -0.6,-0.61 H 54.2 c -0.21,0.38 -0.62,0.61 -1.02,0.61 -0.79,0 -1.15,-0.47 -1.15,-1.23 0,-0.59 0.25,-1 0.8,-1.17 L 53.72,37 c 0.48,-0.15 0.48,-0.28 0.48,-0.64 0,-0.39 -0.24,-0.62 -0.68,-0.62 -0.72,0 -0.72,0.68 -0.72,0.83 v 0.04 h -0.65 z m 2.04,0.65 c -0.24,0.26 -0.83,0.32 -1.13,0.5 -0.21,0.13 -0.32,0.3 -0.32,0.67 0,0.43 0.15,0.72 0.6,0.72 0.43,0 0.85,-0.37 0.85,-0.8 z"
   id="path10" />
		<path
   class="st1"
   d="M 58.53,39.67 H 57.9 v -0.6 h -0.02 c -0.17,0.39 -0.61,0.61 -1.02,0.61 -1.11,0 -1.11,-0.84 -1.11,-1.34 v -2.99 h 0.66 v 2.91 c 0,0.32 0.02,0.85 0.62,0.85 0.35,0 0.83,-0.24 0.83,-0.85 v -2.91 h 0.66 v 4.32 z"
   id="path12" />
		<path
   class="st1"
   d="m 59.59,35.86 h -0.61 v -0.52 h 0.61 v -0.5 c 0,-0.64 0.28,-0.97 0.91,-0.97 h 0.48 v 0.57 h -0.31 c -0.28,0 -0.43,0.11 -0.43,0.4 v 0.5 h 0.72 v 0.52 h -0.72 v 3.81 h -0.66 v -3.81 z"
   id="path14" />
		<path
   class="st1"
   d="m 61.63,34.12 h 0.66 v 1.23 h 0.73 v 0.52 h -0.73 v 2.71 c 0,0.34 0.09,0.47 0.43,0.47 0.14,0 0.22,-0.02 0.29,-0.02 v 0.6 c -0.09,0.02 -0.26,0.05 -0.54,0.05 -0.68,0 -0.85,-0.34 -0.85,-0.89 v -2.91 h -0.47 v -0.52 h 0.47 v -1.24 z"
   id="path16" />
		<path
   class="st1"
   d="m 65.42,35.34 h 0.63 v 0.5 h 0.02 c 0.17,-0.39 0.61,-0.61 1.02,-0.61 0.49,0 0.78,0.19 0.91,0.67 0.19,-0.37 0.57,-0.67 1,-0.67 1.11,0 1.11,0.84 1.11,1.34 v 3.1 h -0.66 v -3.02 c 0,-0.32 -0.02,-0.85 -0.57,-0.85 -0.31,0 -0.79,0.19 -0.79,0.85 v 3.02 h -0.66 v -3.02 c 0,-0.32 -0.02,-0.85 -0.57,-0.85 -0.31,0 -0.79,0.19 -0.79,0.85 v 3.02 h -0.66 v -4.33 z"
   id="path18" />
		<path
   class="st1"
   d="m 70.94,36.62 c 0,-0.96 0.41,-1.39 1.42,-1.39 1.28,0 1.28,0.77 1.28,1.21 v 2.35 c 0,0.17 0,0.34 0.2,0.34 0.09,0 0.13,-0.02 0.16,-0.04 v 0.53 c -0.05,0.01 -0.22,0.04 -0.39,0.04 -0.25,0 -0.57,-0.06 -0.6,-0.6 h -0.02 c -0.21,0.38 -0.62,0.61 -1.02,0.61 -0.79,0 -1.15,-0.47 -1.15,-1.23 0,-0.59 0.25,-1 0.8,-1.17 L 72.51,37 c 0.48,-0.15 0.48,-0.28 0.48,-0.64 0,-0.39 -0.24,-0.62 -0.68,-0.62 -0.72,0 -0.72,0.68 -0.72,0.83 v 0.04 h -0.65 z m 2.04,0.65 c -0.24,0.26 -0.83,0.32 -1.13,0.5 -0.21,0.13 -0.32,0.3 -0.32,0.67 0,0.43 0.15,0.72 0.6,0.72 0.43,0 0.85,-0.37 0.85,-0.8 z"
   id="path20" />
		<path
   class="st1"
   d="m 74.54,35.34 h 0.63 v 0.5 h 0.02 c 0.17,-0.39 0.61,-0.61 1.02,-0.61 1.11,0 1.11,0.84 1.11,1.34 v 3.1 h -0.66 v -3.02 c 0,-0.32 -0.02,-0.85 -0.62,-0.85 -0.35,0 -0.83,0.24 -0.83,0.85 v 3.02 h -0.66 v -4.33 z"
   id="path22" />
		<path
   class="st1"
   d="m 82.77,35.5 c -0.03,-0.59 -0.25,-1.1 -0.94,-1.1 -0.96,0 -1.09,1.06 -1.09,2.35 0,1.3 0.13,2.35 1.09,2.35 0.96,0 1.03,-1.15 1.03,-1.9 h -1.11 v -0.57 h 1.74 v 3.03 H 82.97 V 38.8 h -0.02 c -0.15,0.48 -0.6,0.87 -1.21,0.87 -1.46,0 -1.72,-1.41 -1.72,-2.92 0,-1.42 0.26,-2.92 1.81,-2.92 1.61,0 1.65,1.38 1.66,1.67 z"
   id="path24" />
		<path
   class="st1"
   d="m 84.2,36.62 c 0,-0.96 0.41,-1.39 1.42,-1.39 1.28,0 1.28,0.77 1.28,1.21 v 2.35 c 0,0.17 0,0.34 0.2,0.34 0.09,0 0.13,-0.02 0.16,-0.04 v 0.53 c -0.05,0.01 -0.22,0.04 -0.39,0.04 -0.25,0 -0.57,-0.06 -0.6,-0.6 h -0.02 c -0.21,0.38 -0.62,0.61 -1.02,0.61 -0.79,0 -1.15,-0.47 -1.15,-1.23 0,-0.59 0.25,-1 0.8,-1.17 L 85.77,37 c 0.48,-0.15 0.48,-0.28 0.48,-0.64 0,-0.39 -0.24,-0.62 -0.68,-0.62 -0.72,0 -0.72,0.68 -0.72,0.83 v 0.04 H 84.2 Z m 2.04,0.65 c -0.24,0.26 -0.83,0.32 -1.13,0.5 -0.21,0.13 -0.32,0.3 -0.32,0.67 0,0.43 0.15,0.72 0.6,0.72 0.43,0 0.85,-0.37 0.85,-0.8 z"
   id="path26" />
		<path
   class="st1"
   d="m 89.61,36.58 c 0,-0.54 -0.14,-0.83 -0.62,-0.83 -0.21,0 -0.68,0.06 -0.68,0.65 0,0.5 0.52,0.59 1.04,0.76 0.51,0.17 1.03,0.35 1.03,1.19 0,0.89 -0.57,1.32 -1.36,1.32 -1.43,0 -1.45,-1.06 -1.45,-1.5 h 0.66 c 0,0.51 0.14,0.98 0.79,0.98 0.21,0 0.7,-0.1 0.7,-0.7 0,-0.57 -0.52,-0.69 -1.03,-0.86 -0.51,-0.17 -1.04,-0.32 -1.04,-1.2 0,-0.79 0.61,-1.17 1.35,-1.17 1.23,0 1.28,0.85 1.28,1.35 h -0.67 z"
   id="path28" />
		<path
   class="st1"
   d="m 91.2,34.12 h 0.66 v 1.23 h 0.73 v 0.52 h -0.73 v 2.71 c 0,0.34 0.09,0.53 0.43,0.53 0.14,0 0.22,-0.02 0.29,-0.02 v 0.54 c -0.09,0.02 -0.26,0.05 -0.54,0.05 -0.68,0 -0.85,-0.28 -0.85,-0.83 v -2.97 h -0.61 v -0.52 h 0.61 v -1.24 z"
   id="path30" />
		<path
   class="st1"
   d="m 93.05,35.34 h 0.66 v 0.63 h 0.02 c 0.19,-0.4 0.44,-0.74 0.91,-0.74 0.13,0 0.23,0.02 0.29,0.05 v 0.65 c -0.06,-0.01 -0.14,-0.03 -0.35,-0.03 -0.33,0 -0.87,0.3 -0.87,1 v 2.77 h -0.66 z"
   id="path32" />
		<path
   class="st1"
   d="m 96.69,35.23 c 1.22,0 1.52,1.03 1.52,2.22 0,1.19 -0.31,2.22 -1.52,2.22 -1.22,0 -1.52,-1.03 -1.52,-2.22 0,-1.18 0.31,-2.22 1.52,-2.22 z m 0.83,2.22 c 0,-0.91 -0.13,-1.7 -0.84,-1.7 -0.67,0 -0.81,0.79 -0.81,1.7 0,0.91 0.13,1.7 0.81,1.7 0.7,0.01 0.84,-0.78 0.84,-1.7 z"
   id="path34" />
		<path
   class="st1"
   d="m 98.87,35.34 h 0.63 v 0.5 h 0.02 c 0.17,-0.39 0.61,-0.61 1.02,-0.61 1.11,0 1.11,0.84 1.11,1.34 v 3.1 h -0.66 v -3.02 c 0,-0.32 -0.02,-0.85 -0.62,-0.85 -0.35,0 -0.83,0.24 -0.83,0.85 v 3.02 h -0.66 v -4.33 z"
   id="path36" />
		<path
   class="st1"
   d="m 103.83,35.23 c 1.22,0 1.52,1.03 1.52,2.22 0,1.19 -0.31,2.22 -1.52,2.22 -1.22,0 -1.52,-1.03 -1.52,-2.22 0,-1.18 0.31,-2.22 1.52,-2.22 z m 0.83,2.22 c 0,-0.91 -0.13,-1.7 -0.84,-1.7 -0.67,0 -0.81,0.79 -0.81,1.7 0,0.91 0.13,1.7 0.81,1.7 0.7,0.01 0.84,-0.78 0.84,-1.7 z"
   id="path38" />
		<path
   class="st1"
   d="m 106.08,35.34 h 0.63 v 0.5 h 0.02 c 0.17,-0.39 0.61,-0.61 1.02,-0.61 0.49,0 0.78,0.19 0.91,0.67 0.19,-0.37 0.57,-0.67 1,-0.67 1.11,0 1.11,0.84 1.11,1.34 v 3.1 h -0.66 v -3.02 c 0,-0.32 -0.02,-0.85 -0.57,-0.85 -0.31,0 -0.79,0.19 -0.79,0.85 v 3.02 h -0.66 v -3.02 c 0,-0.32 -0.02,-0.85 -0.57,-0.85 -0.31,0 -0.79,0.19 -0.79,0.85 v 3.02 h -0.66 v -4.33 z"
   id="path40" />
		<path
   class="st1"
   d="m 111.74,33.94 h 0.66 v 0.76 h -0.66 z m 0,1.4 h 0.66 v 4.33 h -0.66 z"
   id="path42" />
		<path
   class="st1"
   d="m 113.86,37.53 c 0,0.65 0,1.62 0.81,1.62 0.63,0 0.72,-0.66 0.72,-0.98 h 0.66 c 0,0.45 -0.27,1.5 -1.42,1.5 -1.03,0 -1.46,-0.72 -1.46,-2.17 0,-1.05 0.2,-2.28 1.5,-2.28 1.29,0 1.41,1.13 1.41,2.03 v 0.27 h -2.22 z m 1.53,-0.52 v -0.23 c 0,-0.47 -0.15,-1.03 -0.73,-1.03 -0.69,0 -0.77,0.85 -0.77,1.1 v 0.16 z"
   id="path44" />
		<path
   class="st1"
   d="m 116.8,33.94 h 0.66 v 1.88 h 0.02 c 0.15,-0.36 0.55,-0.59 0.98,-0.59 1.14,0 1.28,1.34 1.28,2.22 0,1.19 -0.4,2.22 -1.38,2.22 -0.46,0 -0.83,-0.31 -0.91,-0.63 h -0.02 v 0.63 h -0.63 z m 1.48,5.17 c 0.61,0 0.77,-0.69 0.77,-1.65 0,-1.01 -0.16,-1.65 -0.77,-1.65 -0.71,0 -0.85,0.83 -0.85,1.65 0,0.86 0.14,1.65 0.85,1.65 z"
   id="path46" />
		<path
   class="st1"
   d="m 121,37.53 c 0,0.65 0,1.62 0.81,1.62 0.63,0 0.72,-0.66 0.72,-0.98 h 0.66 c 0,0.45 -0.27,1.5 -1.42,1.5 -1.03,0 -1.46,-0.72 -1.46,-2.17 0,-1.05 0.2,-2.28 1.5,-2.28 1.29,0 1.41,1.13 1.41,2.03 v 0.27 H 121 Z m 1.53,-0.52 v -0.23 c 0,-0.47 -0.15,-1.03 -0.73,-1.03 -0.69,0 -0.77,0.85 -0.77,1.1 v 0.16 z"
   id="path48" />
		<path
   class="st1"
   d="m 126.72,39.67 h -0.63 v -0.63 h -0.02 c -0.09,0.32 -0.46,0.63 -0.91,0.63 -1,0 -1.38,-0.89 -1.38,-2.22 0,-0.88 0.14,-2.22 1.33,-2.22 0.38,0 0.78,0.23 0.93,0.59 h 0.02 v -1.88 h 0.66 z m -1.47,-0.56 c 0.73,0 0.85,-0.69 0.85,-1.65 0,-0.82 -0.14,-1.65 -0.85,-1.65 -0.61,0 -0.77,0.65 -0.77,1.65 0,1 0.16,1.65 0.77,1.65 z"
   id="path50" />
		<path
   class="st1"
   d="m 127.49,36.62 c 0,-0.96 0.41,-1.39 1.42,-1.39 1.28,0 1.28,0.77 1.28,1.21 v 2.35 c 0,0.17 0,0.34 0.2,0.34 0.09,0 0.13,-0.02 0.16,-0.04 v 0.53 c -0.05,0.01 -0.22,0.04 -0.39,0.04 -0.25,0 -0.57,-0.06 -0.6,-0.6 h -0.02 c -0.21,0.38 -0.62,0.61 -1.02,0.61 -0.79,0 -1.15,-0.47 -1.15,-1.23 0,-0.59 0.25,-1 0.8,-1.17 L 129.06,37 c 0.48,-0.15 0.48,-0.28 0.48,-0.64 0,-0.39 -0.24,-0.62 -0.68,-0.62 -0.72,0 -0.72,0.68 -0.72,0.83 v 0.04 h -0.65 z m 2.04,0.65 c -0.24,0.26 -0.83,0.32 -1.13,0.5 -0.21,0.13 -0.32,0.3 -0.32,0.67 0,0.43 0.15,0.72 0.6,0.72 0.43,0 0.85,-0.37 0.85,-0.8 z"
   id="path52" />
		<path
   class="st1"
   d="m 131.09,35.34 h 0.66 v 0.63 h 0.02 c 0.19,-0.4 0.44,-0.74 0.91,-0.74 0.13,0 0.09,0.02 0.15,0.05 v 0.65 c -0.06,-0.01 0,-0.03 -0.21,-0.03 -0.33,0 -0.87,0.3 -0.87,1 v 2.77 h -0.66 z"
   id="path54" />
		<path
   class="st1"
   d="m 133.76,35.86 h -0.61 v -0.52 h 0.61 v -0.5 c 0,-0.64 0.28,-0.97 0.91,-0.97 h 0.48 v 0.57 h -0.31 c -0.28,0 -0.43,0.11 -0.43,0.4 v 0.5 h 0.72 v 0.52 h -0.72 v 3.81 h -0.66 v -3.81 z"
   id="path56" />
		<path
   class="st1"
   d="m 137.35,33.94 h 0.66 v 1.88 h 0.02 c 0.17,-0.35 0.64,-0.59 1.02,-0.59 1.09,0 1.09,0.84 1.09,1.34 v 2.99 h -0.66 v -2.91 c 0,-0.32 -0.02,-0.85 -0.62,-0.85 -0.35,0 -0.83,0.24 -0.83,0.85 v 2.91 h -0.66 v -5.62 z"
   id="path58" />
		<path
   class="st1"
   d="m 141.54,37.53 c 0,0.65 0,1.62 0.81,1.62 0.63,0 0.72,-0.66 0.72,-0.98 h 0.66 c 0,0.45 -0.27,1.5 -1.42,1.5 -1.03,0 -1.46,-0.72 -1.46,-2.17 0,-1.05 0.2,-2.28 1.5,-2.28 1.29,0 1.41,1.13 1.41,2.03 v 0.27 h -2.22 z m 1.53,-0.52 v -0.23 c 0,-0.47 -0.15,-1.03 -0.73,-1.03 -0.69,0 -0.77,0.85 -0.77,1.1 v 0.16 z"
   id="path60" />
		<path
   class="st1"
   d="m 147.27,39.57 h -0.63 v -0.5 h -0.02 c -0.17,0.39 -0.61,0.61 -1.02,0.61 -1.11,0 -1.11,-0.84 -1.11,-1.34 v -2.99 h 0.66 v 2.91 c 0,0.32 0.02,0.85 0.62,0.85 0.35,0 0.83,-0.24 0.83,-0.85 v -2.91 h 0.66 v 4.22 z"
   id="path62" />
		<path
   class="st1"
   d="m 148.33,34.12 h 0.66 v 1.23 h 0.73 v 0.52 h -0.73 v 2.71 c 0,0.34 0.09,0.47 0.43,0.47 0.14,0 0.22,-0.02 0.29,-0.02 v 0.54 c -0.09,0.02 -0.26,0.05 -0.54,0.05 -0.68,0 -0.85,-0.28 -0.85,-0.83 v -2.91 h -0.61 v -0.52 h 0.61 v -1.24 z"
   id="path64" />
		<path
   class="st1"
   d="m 150.73,37.53 c 0,0.65 0,1.62 0.81,1.62 0.63,0 0.72,-0.66 0.72,-0.98 h 0.66 c 0,0.45 -0.27,1.5 -1.42,1.5 -1.03,0 -1.46,-0.72 -1.46,-2.17 0,-1.05 0.2,-2.28 1.5,-2.28 1.29,0 1.41,1.13 1.41,2.03 v 0.27 h -2.22 z m 1.52,-0.52 v -0.23 c 0,-0.47 -0.15,-1.03 -0.73,-1.03 -0.69,0 -0.77,0.85 -0.77,1.1 v 0.16 z"
   id="path66" />
		<path
   class="st1"
   d="m 153.89,33.94 h 0.72 l -0.13,4.16 h -0.47 z m 0,4.87 h 0.72 v 0.76 h -0.72 z"
   id="path68" />
	</g>
	<path
   class="st2"
   d="m 43.78,31.22 c -0.24,0 -0.52,-0.03 -0.83,-0.08 -0.32,-0.05 -0.64,-0.16 -0.98,-0.33 -0.34,-0.17 -0.67,-0.4 -0.99,-0.71 -0.33,-0.31 -0.62,-0.71 -0.87,-1.21 -0.26,-0.5 -0.47,-1.12 -0.62,-1.86 -0.16,-0.73 -0.24,-1.61 -0.24,-2.62 v -7.2 c 0,-1.02 0.08,-1.9 0.25,-2.62 0.17,-0.73 0.39,-1.34 0.67,-1.83 0.28,-0.5 0.6,-0.89 0.96,-1.18 0.36,-0.29 0.74,-0.52 1.12,-0.67 0.39,-0.15 0.77,-0.26 1.15,-0.3 0.38,-0.05 0.73,-0.07 1.06,-0.07 0.82,0 1.52,0.11 2.09,0.34 0.57,0.23 1.03,0.54 1.38,0.93 0.35,0.39 0.61,0.85 0.76,1.37 0.15,0.52 0.23,1.08 0.23,1.67 0,0.44 -0.03,0.84 -0.08,1.21 -0.05,0.37 -0.12,0.78 -0.21,1.22 H 46.17 V 16.3 c 0,-2.23 -0.6,-3.34 -1.8,-3.34 -0.33,0 -0.61,0.06 -0.84,0.17 -0.24,0.11 -0.44,0.3 -0.59,0.57 -0.16,0.27 -0.28,0.62 -0.35,1.05 -0.08,0.44 -0.11,0.98 -0.11,1.63 v 9.21 c 0,0.63 0.04,1.16 0.11,1.58 0.07,0.42 0.19,0.76 0.34,1.01 0.15,0.25 0.35,0.43 0.58,0.54 0.23,0.11 0.51,0.16 0.84,0.16 0.34,0 0.63,-0.09 0.88,-0.27 0.25,-0.18 0.45,-0.42 0.61,-0.73 0.16,-0.31 0.28,-0.67 0.35,-1.1 0.08,-0.42 0.11,-0.88 0.11,-1.37 V 22.76 H 44.72 V 20.74 H 49.3 V 31.17 H 47.25 L 46.92,29.1 c -0.39,0.75 -0.83,1.3 -1.34,1.62 -0.51,0.33 -1.11,0.5 -1.8,0.5"
   id="path72" />
	<path
   class="st2"
   d="m 54.37,10.53 h 3.55 l 3.76,20.69 H 58.56 L 58,27.51 h -3.71 l -0.54,3.71 h -3.13 z m 3.27,14.62 -1.43,-10.31 h -0.13 l -1.44,10.31 z"
   id="path74" />
	<path
   class="st2"
   d="m 62.39,27 c 0,-0.44 0.09,-2 0.2,-2.44 h 2.5 v 1 c 0,0.55 0.03,1.05 0.1,1.47 0.07,0.43 0.18,0.79 0.33,1.08 0.15,0.29 0.36,0.52 0.62,0.66 0.26,0.15 0.57,0.23 0.95,0.23 0.59,0 1.04,-0.16 1.34,-0.49 0.31,-0.32 0.46,-0.8 0.46,-1.43 0,-0.32 -0.02,-0.62 -0.07,-0.89 -0.04,-0.27 -0.12,-0.54 -0.23,-0.8 -0.11,-0.27 -0.25,-0.54 -0.43,-0.84 -0.18,-0.29 -0.42,-0.62 -0.7,-0.98 L 64.25,19.7 c -0.57,-0.74 -1.01,-1.49 -1.32,-2.24 -0.31,-0.75 -0.46,-1.55 -0.46,-2.41 0,-0.68 0.11,-1.31 0.32,-1.88 0.21,-0.57 0.51,-1.06 0.91,-1.48 0.4,-0.41 0.89,-0.74 1.47,-0.97 0.58,-0.23 1.24,-0.34 1.98,-0.34 0.9,0 1.64,0.13 2.24,0.39 0.6,0.26 1.08,0.6 1.43,1.01 0.36,0.42 0.61,0.89 0.76,1.41 0.15,0.52 0.22,1.04 0.22,1.56 0,0.44 -0.12,2.01 -0.21,2.46 h -2.5 v -0.98 c 0,-1.09 -0.15,-1.93 -0.46,-2.52 -0.31,-0.58 -0.81,-0.87 -1.51,-0.87 -0.58,0 -1.01,0.16 -1.3,0.49 -0.29,0.33 -0.43,0.76 -0.43,1.31 0,0.29 0.02,0.55 0.07,0.78 0.04,0.23 0.11,0.45 0.19,0.65 0.08,0.2 0.18,0.39 0.3,0.57 0.12,0.19 0.25,0.38 0.4,0.58 l 3.58,4.39 c 0.65,0.86 1.15,1.69 1.5,2.48 0.35,0.79 0.52,1.63 0.52,2.51 0,0.73 -0.11,1.39 -0.34,1.98 -0.23,0.59 -0.55,1.09 -0.97,1.5 -0.42,0.41 -0.93,0.73 -1.52,0.95 -0.59,0.22 -1.27,0.33 -2.01,0.33 -0.92,0 -1.68,-0.12 -2.29,-0.37 C 64.21,30.74 63.73,30.41 63.37,30 63.01,29.59 62.76,29.12 62.61,28.6 62.46,28.08 62.39,27.54 62.39,27"
   id="path76" />
	<polygon
   class="st2"
   points="72.81,10.53 82.42,10.53 82.42,13 79.16,13 79.16,31.21 76.08,31.21 76.08,13 72.81,13 "
   id="polygon78" />
	<path
   class="st2"
   d="m 83.98,10.53 h 3.34 c 0.38,0 0.8,0.02 1.26,0.05 0.46,0.03 0.91,0.11 1.37,0.24 0.46,0.13 0.9,0.31 1.32,0.56 0.42,0.25 0.8,0.59 1.13,1.03 0.33,0.44 0.59,0.98 0.79,1.64 0.2,0.66 0.3,1.46 0.3,2.4 v 0.52 c 0,1.58 -0.22,2.86 -0.67,3.85 -0.44,0.99 -1.1,1.7 -1.96,2.14 l 3.26,8.28 h -3.26 l -2.7,-7.75 H 87 v 7.75 h -3.02 z m 3.48,10.69 c 0.54,0 1,-0.06 1.37,-0.18 0.37,-0.12 0.67,-0.33 0.9,-0.61 0.23,-0.29 0.4,-0.67 0.5,-1.14 0.1,-0.47 0.15,-1.06 0.15,-1.75 V 15.9 c 0,-0.53 -0.05,-0.99 -0.14,-1.38 -0.1,-0.39 -0.26,-0.71 -0.48,-0.96 -0.23,-0.25 -0.53,-0.44 -0.9,-0.56 -0.37,-0.12 -0.84,-0.18 -1.4,-0.18 H 87 v 8.4 z"
   id="path80" />
	<path
   class="st2"
   d="m 100.34,31.21 c -0.33,0 -0.68,-0.03 -1.06,-0.08 -0.38,-0.05 -0.76,-0.16 -1.13,-0.33 -0.37,-0.17 -0.73,-0.4 -1.08,-0.71 -0.34,-0.3 -0.65,-0.71 -0.92,-1.21 -0.27,-0.5 -0.48,-1.12 -0.64,-1.85 -0.16,-0.73 -0.24,-1.61 -0.24,-2.62 v -7.2 c 0,-1.02 0.08,-1.9 0.24,-2.62 0.16,-0.73 0.38,-1.34 0.65,-1.83 0.27,-0.5 0.58,-0.89 0.92,-1.18 0.34,-0.29 0.71,-0.52 1.08,-0.67 0.38,-0.15 0.75,-0.26 1.12,-0.3 0.37,-0.05 0.72,-0.07 1.03,-0.07 0.3,0 0.64,0.02 1.01,0.07 0.37,0.04 0.74,0.14 1.11,0.29 0.37,0.15 0.73,0.37 1.08,0.65 0.35,0.29 0.66,0.68 0.93,1.18 0.27,0.5 0.49,1.11 0.65,1.84 0.16,0.73 0.24,1.62 0.24,2.66 v 7.2 c 0,1.01 -0.08,1.87 -0.25,2.6 -0.17,0.73 -0.38,1.34 -0.65,1.84 -0.27,0.5 -0.58,0.91 -0.93,1.21 -0.35,0.31 -0.71,0.54 -1.08,0.71 -0.37,0.17 -0.74,0.28 -1.1,0.34 -0.36,0.05 -0.69,0.08 -0.98,0.08 m 0,-2.32 c 0.3,0 0.57,-0.05 0.79,-0.16 0.23,-0.1 0.41,-0.28 0.56,-0.54 0.15,-0.25 0.26,-0.59 0.33,-1.01 0.08,-0.42 0.11,-0.94 0.11,-1.58 v -9.25 c 0,-0.65 -0.04,-1.19 -0.11,-1.63 -0.08,-0.44 -0.19,-0.79 -0.33,-1.05 -0.15,-0.27 -0.33,-0.45 -0.56,-0.56 -0.23,-0.11 -0.49,-0.17 -0.79,-0.17 -0.31,0 -0.58,0.06 -0.81,0.17 -0.23,0.11 -0.42,0.3 -0.57,0.56 -0.15,0.27 -0.26,0.62 -0.34,1.05 -0.08,0.44 -0.11,0.98 -0.11,1.63 v 9.25 c 0,0.63 0.04,1.16 0.11,1.58 0.08,0.42 0.19,0.75 0.34,1.01 0.15,0.25 0.34,0.43 0.57,0.54 0.23,0.11 0.5,0.16 0.81,0.16"
   id="path82" />
	<polygon
   class="st3"
   points="115,19.19 118.65,19.19 118.65,10.53 121.73,10.53 121.73,31.21 118.65,31.21 118.65,21.66 115,21.66 115,31.21 111.92,31.21 111.92,10.53 115,10.53 "
   id="polygon84" />
	<polygon
   class="st3"
   points="131.54,13 127.09,13 127.09,19.19 130.53,19.19 130.53,21.66 127.09,21.66 127.09,28.74 131.66,28.74 131.66,31.21 124.01,31.21 124.01,10.53 131.54,10.53 "
   id="polygon86" />
	<path
   class="st3"
   d="m 133.28,10.53 h 3.34 c 0.38,0 0.8,0.02 1.26,0.05 0.46,0.03 0.91,0.11 1.37,0.24 0.46,0.13 0.9,0.31 1.32,0.56 0.42,0.25 0.8,0.59 1.13,1.03 0.33,0.44 0.59,0.98 0.79,1.64 0.2,0.66 0.3,1.46 0.3,2.39 v 0.52 c 0,1.57 -0.22,2.86 -0.67,3.85 -0.44,0.99 -1.1,1.7 -1.96,2.14 l 3.26,8.27 h -3.26 l -2.7,-7.74 h -1.15 v 7.74 h -3.02 V 10.53 Z m 3.49,10.68 c 0.54,0 1,-0.06 1.37,-0.18 0.37,-0.12 0.67,-0.32 0.9,-0.61 0.23,-0.29 0.4,-0.67 0.5,-1.14 0.1,-0.47 0.15,-1.06 0.15,-1.75 v -1.64 c 0,-0.53 -0.05,-0.99 -0.14,-1.38 -0.1,-0.39 -0.26,-0.71 -0.48,-0.96 -0.23,-0.25 -0.53,-0.44 -0.9,-0.56 -0.37,-0.12 -0.84,-0.18 -1.4,-0.18 h -0.46 v 8.39 h 0.46 z"
   id="path88" />
	<path
   class="st3"
   d="m 149.64,31.21 c -0.33,0 -0.68,-0.03 -1.06,-0.08 -0.38,-0.05 -0.76,-0.16 -1.13,-0.33 -0.37,-0.17 -0.73,-0.4 -1.08,-0.71 -0.35,-0.3 -0.65,-0.71 -0.92,-1.21 -0.27,-0.5 -0.48,-1.12 -0.64,-1.85 -0.16,-0.73 -0.24,-1.61 -0.24,-2.62 v -7.2 c 0,-1.02 0.08,-1.9 0.24,-2.62 0.16,-0.73 0.38,-1.34 0.65,-1.83 0.27,-0.5 0.58,-0.89 0.92,-1.18 0.35,-0.29 0.71,-0.52 1.08,-0.67 0.38,-0.15 0.75,-0.26 1.12,-0.3 0.37,-0.05 0.72,-0.07 1.03,-0.07 0.3,0 0.64,0.02 1.01,0.07 0.37,0.04 0.74,0.14 1.11,0.29 0.37,0.15 0.73,0.37 1.08,0.65 0.35,0.29 0.66,0.68 0.93,1.18 0.27,0.5 0.49,1.11 0.65,1.84 0.16,0.73 0.24,1.62 0.24,2.66 v 7.2 c 0,1.01 -0.08,1.87 -0.25,2.6 -0.17,0.73 -0.39,1.34 -0.65,1.84 -0.27,0.5 -0.58,0.91 -0.93,1.21 -0.35,0.31 -0.71,0.54 -1.08,0.71 -0.37,0.17 -0.74,0.28 -1.1,0.34 -0.36,0.05 -0.69,0.08 -0.98,0.08 m 0,-2.32 c 0.3,0 0.57,-0.05 0.79,-0.16 0.23,-0.1 0.41,-0.28 0.56,-0.54 0.15,-0.25 0.26,-0.59 0.33,-1.01 0.08,-0.42 0.11,-0.94 0.11,-1.58 v -9.25 c 0,-0.65 -0.04,-1.19 -0.11,-1.63 -0.08,-0.44 -0.19,-0.79 -0.33,-1.05 -0.15,-0.27 -0.33,-0.45 -0.56,-0.56 -0.23,-0.11 -0.49,-0.17 -0.79,-0.17 -0.31,0 -0.58,0.06 -0.81,0.17 -0.23,0.11 -0.42,0.3 -0.57,0.56 -0.15,0.27 -0.26,0.62 -0.34,1.05 -0.08,0.44 -0.11,0.98 -0.11,1.63 v 9.25 c 0,0.63 0.04,1.16 0.11,1.58 0.08,0.42 0.19,0.75 0.34,1.01 0.15,0.25 0.34,0.43 0.57,0.54 0.23,0.11 0.5,0.16 0.81,0.16"
   id="path90" />
	<path
   class="st3"
   d="M 18.71,5.86 C 13.86,5.84 8.76,8.04 5.83,10.53 v 15.79 c 0,6.48 4.69,8.17 12.88,13.33 C 26.9,34.5 31.59,32.8 31.59,26.32 V 10.54 C 28.66,8.04 23.56,5.85 18.71,5.86"
   id="path92" />
	<path
   class="st4"
   d="m 18.71,18.78 v 4.2 h 5.37 v 3.35 c 0,0.83 -0.11,0.94 -0.43,1.26 -0.81,0.82 -2.56,1.92 -4.94,3.36 -2.38,-1.44 -4.13,-2.54 -4.94,-3.36 -0.32,-0.32 -0.43,-0.43 -0.43,-1.26 v -11.8 c 1.53,-0.71 3.44,-1.28 5.31,-1.28 h 0.11 c 1.88,0 3.79,0.58 5.31,1.28 V 9.98 C 22.4,9.4 20.57,9.03 18.76,9.03 h -0.11 c -3.6,0 -7.24,1.47 -9.6,3.06 v 14.24 c 0,3.58 1.77,4.81 7.9,8.51 0.55,0.33 1.14,0.69 1.76,1.07 0.62,-0.38 1.21,-0.74 1.76,-1.07 6.13,-3.71 7.9,-4.94 7.9,-8.51 v -3.35 -3.56 -0.64 z"
   id="path94" />
</g>
</svg>
