<svg id="Layer_1" xmlns="http://www.w3.org/2000/svg" width="230" height="33.1" viewBox="0 0 230 33.1"><style>.st0{fill:green}.st1{fill:#575756}.st2{fill:#f2950a}</style><path class="st1" d="M0 4.7c0-.3.3-.5.5-.5h.6l17.4 22.7V5.1c0-.3.2-.5.5-.5h.7c.3 0 .5.2.5.5v24.8c0 .3-.3.5-.6.5h-.5s-.3-.1-17.6-22.9v22.1c0 .3-.2.5-.5.5H.5c-.3-.1-.5-.3-.5-.6V4.7zM30.2 5.1c0-.3.2-.5.5-.5h.8c.3 0 .5.2.5.5v24.5c0 .3-.3.5-.5.5h-.8c-.3 0-.5-.2-.5-.5V5.1zM80.4 5.1c0-.3.2-.5.5-.5h14.6c.3 0 .5.2.5.5v.6c0 .3-.2.5-.5.5H82.1v10h11.5c.3 0 .5.2.5.5v.6c0 .3-.2.5-.5.5H82.1v10.7h13.3c.3 0 .5.2.5.5v.6c0 .3-.2.5-.5.5H80.9c-.3 0-.5-.2-.5-.5V5.1z"/><path class="st1" d="M104.5 26.7c-.2.4-.1.5.2.8.5.5 3.3 2.9 7.8 2.9s8-2.9 8-6.7c0-4.1-3-6.1-7.8-8-2.6-1-4.9-2.4-4.9-5 0-1.3.9-3.7 4.5-3.7.9 0 2.6.3 5.1 1.8l.1.1c.2.1.3.1.4.1.2 0 .3-.2.4-.4.2-.2.3-.5.5-.7.2-.2.3-.5.5-.7.1-.2.1-.3.1-.5s-.1-.3-.2-.3c-.7-.5-3.3-2.1-6.7-2.1-6.2 0-7.8 4.3-7.8 6.6 0 4 2.6 5.9 6.6 7.6 3.5 1.4 5.8 2.9 5.8 5.5 0 2.2-1.9 3.8-4.5 3.8-2.8 0-5.6-2.2-6.2-2.6-.1-.1-.2-.1-.3-.1-.2 0-.3.1-.5.3-.2.2-.3.5-.5.7-.3.1-.5.4-.6.6zM132.7 18.6h14.2v11.1c0 .2.1.4.4.4h2.5c.2 0 .4-.2.4-.4V5c0-.2-.2-.4-.4-.4h-2.5c-.2 0-.4.2-.4.4v10.7h-14.2V5c0-.2-.1-.4-.4-.4h-2.5c-.2 0-.4.2-.4.4v24.6c0 .2.2.4.4.4h2.5c.2 0 .4-.2.4-.4v-11zM170.5 4.2c-7.2 0-13 5.9-13 13.1 0 7.3 5.7 13 13 13s13.1-5.7 13.1-13c-.1-7.2-5.9-13.1-13.1-13.1zm0 23.1c-5.5 0-9.9-4.5-9.9-9.9s4.6-10 9.9-10c5.5 0 10 4.5 10 10-.1 5.4-4.5 9.9-10 9.9zM200 4.6h-8.5c-.2 0-.4.2-.4.4v24.6c0 .2.1.4.4.4h2.4c.2 0 .4-.2.4-.4v-9.1h5.7c4.4 0 8-3.6 8-8.1.1-4.2-3.5-7.8-8-7.8zm-.2 13h-5.4V7.7h5.4c2.8 0 5 2.1 5 4.8.1 2.8-2.2 5.1-5 5.1zM214.1 26.7c-.2.4-.1.5.2.8.5.5 3.3 2.9 7.8 2.9s8-2.9 8-6.7c0-4.1-3-6.1-7.8-8-2.6-1-4.9-2.4-4.9-5 0-1.3.9-3.7 4.5-3.7.9 0 2.6.3 5.1 1.8l.1.1c.2.1.3.1.4.1.2 0 .3-.2.4-.4.2-.2.3-.5.5-.7.2-.2.3-.5.5-.7.1-.2.1-.3.1-.5s-.1-.3-.2-.3c-.7-.5-3.3-2.1-6.7-2.1-6.2 0-7.8 4.3-7.8 6.6 0 4 2.6 5.9 6.6 7.6 3.5 1.4 5.8 2.9 5.8 5.5 0 2.2-1.9 3.8-4.5 3.8-2.8 0-5.6-2.2-6.2-2.6-.1-.1-.2-.1-.3-.1-.2 0-.3.1-.5.3-.2.2-.3.5-.5.7-.3.1-.5.4-.6.6z"/><circle class="st2" cx="51.4" cy="14.7" r="1.4"/><circle class="st2" cx="61.9" cy="11.8" r="1.4"/><path class="st2" d="M61.6 32.5c-9 2.4-17.9-2.7-20.3-11.6C38.9 12.1 44.2 3 53.1.6c4-1.1 7.7-.7 11.8 1.2.3.2.5.5.3.8l-.1.4c-.2.4-.6.5-.9.3-3.7-1.8-7-2.1-10.7-1.1-8 2.1-12.8 10.4-10.6 18.3 2.2 8 10.2 12.6 18.3 10.4 3.5-.9 6.5-3.2 8.7-6.5.1-.2.3-.3.5-.3s.3 0 .5.1l.3.2c.3.2.4.5.2.8-2.4 3.7-5.7 6.2-9.8 7.3z"/><path class="st2" d="M64.6 18.5l-.8-.3s-.3-.1-.5.3c0 0-1.1 3.1-4.4 3.9-3.2.9-5.7-1.2-5.7-1.2-.3-.3-.6 0-.6 0l-.6.6c-.2.2 0 .4 0 .5 2.3 1.9 5.1 2.2 7.3 1.6 2.3-.6 4.5-2.2 5.6-5 0-.1 0-.3-.3-.4z"/></svg>