<?xml version="1.0" encoding="UTF-8" standalone="no"?>
<svg
   width="197.20334"
   height="46.271702"
   viewBox="0 0 197.20334 46.271702"
   fill="none"
   version="1.1"
   id="svg8"
   sodipodi:docname="logo-helios-white.svg"
   inkscape:version="1.1 (c68e22c387, 2021-05-23)"
   xmlns:inkscape="http://www.inkscape.org/namespaces/inkscape"
   xmlns:sodipodi="http://sodipodi.sourceforge.net/DTD/sodipodi-0.dtd"
   xmlns="http://www.w3.org/2000/svg"
   xmlns:svg="http://www.w3.org/2000/svg">
  <defs
     id="defs12" />
  <sodipodi:namedview
     id="namedview10"
     pagecolor="#ffffff"
     bordercolor="#666666"
     borderopacity="1.0"
     inkscape:pageshadow="2"
     inkscape:pageopacity="0.0"
     inkscape:pagecheckerboard="0"
     showgrid="false"
     inkscape:zoom="5.645"
     inkscape:cx="98.582817"
     inkscape:cy="22.940655"
     inkscape:window-width="1920"
     inkscape:window-height="1009"
     inkscape:window-x="-8"
     inkscape:window-y="-8"
     inkscape:window-maximized="1"
     inkscape:current-layer="svg8" />
  <path
     d="m 96.283044,22.717676 c 2.1146,-0.1334 4.665296,1.1358 5.532296,3.345 l -11.506696,3.0552 c -0.1511,-4.1223 2.9557,-6.2064 5.9744,-6.4002 z m 12.672296,5.2727 c -0.003,-0.0208 0.002,-0.0355 -0.001,-0.0561 -0.009,-0.0376 -0.021,-0.0856 -0.03,-0.1251 -0.237,-1.1775 -0.6,-2.3175 -0.977,-3.1386 l -0.004,0.0017 c -0.1,-0.2543 -0.199,-0.5044 -0.295,-0.7128 -1.813,-3.9618 -5.396,-6.7607 -10.963296,-6.7607 -7.9485,0 -13.2013,6.3272 -13.2013,13.5631 0,8.155 5.4017,13.5715 13.9166,13.5715 3.643996,0 6.276996,-0.8795 8.797996,-2.0486 0.229,-0.1042 0.405,-0.3043 0.48,-0.5419 l 1.293,-6.1418 c 0.1,-0.3376 -0.095,-0.5814 -0.311,-0.471 -2.305,1.4589 -5.269,3.2033 -8.887996,3.1762 -3.6607,-0.027 -6.65,-1.5193 -7.5898,-4.0806 l 17.232796,-4.5558 c 0.506,-0.1772 0.735,-0.4585 0.674,-0.9212 -0.034,-0.2542 -0.086,-0.5064 -0.132,-0.7586 z m 77.035,16.3434 c -4.426,0 -7.837,-1.4401 -10.736,-3.0802 -0.244,-0.1354 -0.497,-0.4064 -0.449,-0.6565 l 1.141,-5.4582 c 0.019,-0.123 0.109,-0.2188 0.231,-0.1417 3.3,2.1507 6.22,3.6638 10.266,3.6638 2.243,0 3.619,-0.8566 3.619,-2.0778 0,-1.3651 -1.017,-1.9695 -5.706,-3.1866 -5.297,-1.3671 -9.073,-3.1365 -9.073,-7.9987 0,-4.6579 4.078,-8.0466 10.959,-8.0466 3.556,0 6.407,0.8774 8.634,1.9757 0.307,0.1501 0.531,0.5002 0.491,0.8024 l -1.063,5.0851 c -0.034,0.1604 -0.177,0.2564 -0.317,0.173 -2.612,-1.5901 -5.861,-2.4175 -8.047,-2.4175 -2.295,0 -3.52,0.8128 -3.52,1.9257 0,1.3109 1.17,1.8673 5.553,2.9823 5.915,1.4672 9.23,3.2887 9.23,8.3029 0,4.7601 -4.332,8.1529 -11.213,8.1529 z m -35.577,-13.3563 c 0,4.0702 2.805,7.1192 6.579,7.1192 3.923,0 6.629,-3.2053 6.629,-7.2213 0,-4.0681 -2.807,-7.0692 -6.579,-7.0692 -3.923,0 -6.629,3.1491 -6.629,7.1713 z m 6.57,-13.7778 c 8.868,0 14.066,6.5273 14.066,13.5632 0,7.14 -5.507,13.7194 -14.116,13.7194 -8.817,0 -14.063,-6.5794 -14.063,-13.6152 0,-7.0859 5.502,-13.6674 14.113,-13.6674 z m -27.032,0.708 h 7.181 c 0.142,0 0.256,0.1125 0.256,0.2522 v 25.3611 c 0,0.1375 -0.114,0.2542 -0.256,0.2542 h -7.181 c -0.143,0 -0.258,-0.1167 -0.258,-0.2542 v -25.3611 c 0,-0.1396 0.116,-0.2522 0.258,-0.2522 z m 3.617,-3.5971 c -2.526,0 -4.464,-1.8319 -4.464,-4.1953 0,-2.4091803 1.938,-4.1889803 4.464,-4.1889803 2.521,0 4.457,1.7798 4.457,4.1889803 0,2.3634 -1.936,4.1953 -4.457,4.1953 z m -18.972,-6.9381303 7.185,-1.884 c 0.163,-0.04385 0.323,0.07919 0.323,0.24383 V 43.520676 c 0,0.1396 -0.116,0.2543 -0.256,0.2543 h -7.187 c -0.141,0 -0.256,-0.1147 -0.256,-0.2543 V 7.6204557 c 0,-0.11671 0.08,-0.21883 0.191,-0.24801 z M 70.767344,29.551776 h -16.8158 v 13.9717 c 0,0.1397 -0.1154,0.2542 -0.2559,0.2542 h -7.7492 c -0.1404,0 -0.2559,-0.1145 -0.2559,-0.2542 V 8.5880757 c 0,-0.1375 0.1155,-0.2522 0.2559,-0.2522 h 7.7492 c 0.1406,0 0.2559,0.1146 0.2559,0.2522 V 22.057476 h 16.8158 V 8.5880757 c 0,-0.1375 0.1154,-0.2522 0.2559,-0.2522 h 7.6988 c 0.1406,0 0.2559,0.1146 0.2559,0.2522 V 43.523476 c 0,0.1397 -0.1153,0.2542 -0.2559,0.2542 h -7.6988 c -0.1407,0 -0.2559,-0.1145 -0.2559,-0.2542 z"
     fill="#ffffff"
     id="path2" />
  <path
     d="m 30.386044,17.577076 c -0.5517,-2.6947 -1.2838,-4.4224 -3.3417,-4.1348 -1.5146,0.2147 -2.167,1.5985 -2.0139,3.2178 0.4469,4.5933 0.7196,8.9199 -0.4531,13.5048 -0.5139,2.0091 -1.653,7.6278 -5.2696,6.5232 -2.6243,-0.8003 -2.0747,-4.2724 -1.9257,-6.0772 0.5433,-3.7846 -0.7154,-4.6204 -1.8692,-4.8121 -1.5964,-0.2668 -2.8089,0.5148 -3.3312,3.5971 -0.2119,0.9962 -1.9551,9.2721 -2.039,10.1224 -0.2413,2.4529 0.6398,5.0976 0.8181,5.7145 0.0607,0.2209 0.2098,0.3668 0.4321,0.4189 5.4689,1.1504 11.1853,0.7544 15.3137,-1.6464 0.2266,-0.1334 0.3483,-0.2897 0.4553,-0.4293 2.2823,-3.2679 3.3186,-8.2488 3.8745,-12.1273 0.6566,-4.5953 0.4259,-9.3512 -0.6503,-13.8716 z"
     fill="#ffffff"
     id="path4" />
  <path
     d="m 1.015784,28.692476 c 0.55172,2.6947 1.28594,4.4245 3.34385,4.1348 1.51249,-0.2125 2.1628,-1.5984 2.01386,-3.2157 -0.44892,-4.5933 -0.72163,-8.9198 0.45102,-13.5048 0.51395,-2.009 1.65304,-7.6256003 5.27173,-6.5231003 2.6222,0.7982003 2.0747,4.2744003 1.9236,6.0771003 -0.5454,3.7826 0.7154,4.6225 1.8691,4.8122 1.5985,0.2688 2.8089,-0.5127 3.3292,-3.5992 0.214,-0.9941 1.9572,-9.2720903 2.0411,-10.1223903 0.2413,-2.45087 -0.6377,-5.09765 -0.816,-5.71245 -0.0608,-0.22090997 -0.2119,-0.36679997 -0.4321,-0.41889997 -5.4689,-1.15041 -11.1875,-0.75443 -15.31377,1.64641997 -0.22866,0.12921 -0.34823,0.28969 -0.45731,0.42932 -2.28238,3.26783 -3.31866998,8.2488003 -3.87248998,12.1293003 -0.6587,4.5912 -0.42584,9.3492 0.64820998,13.8674 z"
     fill="#ffffff"
     id="path6" />
</svg>
