<?xml version="1.0" encoding="utf-8"?>
<!-- Generator: Adobe Illustrator 23.0.1, SVG Export Plug-In . SVG Version: 6.00 Build 0)  -->
<svg version="1.1" id="Layer_1" xmlns="http://www.w3.org/2000/svg" xmlns:xlink="http://www.w3.org/1999/xlink" x="0px" y="0px"
	 viewBox="0 0 300.9 208" style="enable-background:new 0 0 300.9 208;" xml:space="preserve">
<style type="text/css">
	.st0{fill:#00A1E0;}
</style>
<g>
	<path class="st0" d="M121.95,89.3c-2.1,0-3.5,0.8-4.5,2.3c-0.7,1-1.1,2.2-1.3,3.7h11.2c-0.1-1.4-0.4-2.7-1-3.7
		C125.35,90.1,124.05,89.3,121.95,89.3z"/>
	<path class="st0" d="M82.05,99.5c-0.9,0.7-1.4,1.7-1.4,3.1c0,0.9,0.2,1.6,0.5,2.1c0.2,0.3,0.3,0.4,0.9,0.9c0,0,1.4,1.1,4.6,1
		c2.3-0.2,4.3-0.6,4.3-0.6v-7.2c0,0-2-0.4-4.3-0.4C83.45,98.3,82.05,99.5,82.05,99.5z"/>
	<path class="st0" d="M185.45,89.4c-2.1,0-3.5,0.7-4.5,2.2s-1.5,3.6-1.5,6.3s0.5,4.8,1.5,6.3s2.4,2.2,4.5,2.2c2,0,3.5-0.7,4.5-2.2
		s1.5-3.6,1.5-6.3c0-2.7-0.5-4.8-1.5-6.3C189.05,90.1,187.55,89.4,185.45,89.4z"/>
	<path class="st0" d="M227.95,34.3c-8.4,0-16.4,1.8-23.7,5c-8.4-14.9-24-24.9-42-24.9c-13.5,0-25.7,5.7-34.5,14.8
		c-9.7-12.6-24.9-20.7-41.9-20.7c-29.2,0-52.9,23.6-52.9,52.8c0,7.5,1.5,14.6,4.3,21c-13.6,8-22.7,22.8-22.7,39.8
		c0,25.3,20.3,45.9,45.4,45.9c3.2,0,6.3-0.4,9.3-1c6.9,18.7,24.8,32,45.9,32c20.2,0,37.5-12.3,45-29.8c5.7,2.7,12.1,4.3,18.8,4.3
		c16,0,30.1-8.9,37.4-22c3.8,0.8,7.6,1.2,11.6,1.2c32.4,0,58.7-26.5,58.7-59.2S260.35,34.3,227.95,34.3z M72.75,103
		c0,4.7-3.5,7.7-9.1,7.7c-2.7,0-5.3-0.4-8.1-1.9c-0.6-0.3-1.1-0.5-1.6-0.9c0-0.1-0.3-0.2-0.1-0.6l1-3.2c0.1-0.6,0.5-0.4,0.7-0.3
		c0.3,0.2,0.5,0.4,0.9,0.6c3.3,2.1,6.3,2.1,7.2,2.1c2.4,0,3.9-1.3,3.9-3v-0.1c0-1.9-2.3-2.6-5-3.4l-0.6-0.2c-3.7-1-7.6-2.5-7.6-7.2
		v-0.1c0-4.4,3.6-7.5,8.7-7.5h0.6c3,0,5.9,0.8,8,2.1c0.2,0.1,0.4,0.3,0.3,0.6c-0.1,0.3-1,2.8-1.1,3.1c-0.2,0.5-0.7,0.2-0.7,0.2
		c-1.8-1-4.7-1.8-7.1-1.8c-2.2,0-3.6,1.1-3.6,2.7V92c0,1.8,2.4,2.6,5.2,3.5l0.5,0.2c3.7,1.2,7.6,2.8,7.6,7.2V103z M96.05,108.5
		c0,0,0,0.4-0.4,0.5c0,0-0.6,0.2-1.1,0.3c-0.6,0.2-2.5,0.5-4,0.8c-1.6,0.3-3.2,0.4-4.8,0.4c-1.6,0-3-0.1-4.2-0.4s-2.3-0.8-3.2-1.4
		c-0.9-0.7-1.6-1.5-2.1-2.5s-0.7-2.2-0.7-3.6c0-1.3,0.2-2.6,0.8-3.6s1.3-1.9,2.3-2.6s2.1-1.2,3.3-1.5s2.5-0.5,3.9-0.5
		c1,0,1.9,0.1,2.5,0.1c0,0,1.2,0.2,2.8,0.3v-0.7c0-2.1-0.4-3.1-1.3-3.8c-0.9-0.7-2.2-1-3.9-1c0,0-3.9,0-6.9,1.6
		c-0.2,0.1-0.3,0.1-0.3,0.1s-0.4,0.1-0.5-0.3l-1.1-3c-0.2-0.4,0.1-0.6,0.1-0.6c1.5-1.1,4.9-1.8,4.9-1.8c1.1-0.2,3-0.4,4.2-0.4
		c3.1,0,5.5,0.8,7.2,2.2c1.7,1.5,2.5,3.8,2.5,7V108.5z M106.15,109.6c0,0.3-0.2,0.5-0.5,0.5h-4.2c-0.3,0-0.5-0.2-0.5-0.5V76
		c0-0.3,0.2-0.5,0.5-0.5h4.2c0.3,0,0.5,0.2,0.5,0.5V109.6z M132.45,98.6c-0.1,0.4-0.5,0.4-0.5,0.4h-15.8c0.1,2.3,0.6,4,1.8,5.2
		c1.1,1.2,3,1.9,5.4,1.9c3.8,0,5.4-0.8,6.5-1.2c0,0,0.4-0.1,0.6,0.3l1,2.9c0.2,0.5,0.1,0.7-0.1,0.8c-0.9,0.6-3.3,1.6-7.9,1.6
		c-2.2,0-4.1-0.3-5.7-0.9c-1.6-0.6-3-1.5-4-2.6c-1.1-1.1-1.8-2.5-2.3-4s-0.7-3.2-0.7-5s0.2-3.4,0.7-5c0.4-1.6,1.1-2.9,2.1-4.1
		c0.9-1.2,2.1-2.1,3.6-2.8c1.4-0.7,3.2-1,5.2-1c1.7,0,3.2,0.3,4.5,0.9c1,0.4,2,1.2,3,2.3c0.6,0.7,1.6,2.2,2,3.7
		C132.85,95.6,132.35,98.6,132.45,98.6z M145.45,110.7c-2.7,0-5.3-0.4-8.1-1.9c-0.6-0.3-1.1-0.5-1.6-0.9c0-0.1-0.3-0.2-0.1-0.6
		l1-3.2c0.1-0.5,0.6-0.4,0.7-0.3c0.3,0.2,0.5,0.4,0.9,0.6c3.3,2.1,6.3,2.1,7.2,2.1c2.4,0,3.9-1.3,3.9-3v-0.1c0-1.9-2.3-2.6-5-3.4
		l-0.6-0.2c-3.7-1-7.6-2.5-7.6-7.2v-0.1c0-4.4,3.6-7.5,8.7-7.5h0.6c3,0,5.9,0.8,8,2.1c0.2,0.1,0.4,0.3,0.3,0.6
		c-0.1,0.3-1,2.8-1.1,3.1c-0.2,0.5-0.7,0.2-0.7,0.2c-1.8-1-4.7-1.8-7.1-1.8c-2.2,0-3.6,1.1-3.6,2.7V92c0,1.8,2.4,2.6,5.2,3.5
		l0.5,0.2c3.7,1.2,7.6,2.8,7.6,7.2v0.1C154.55,107.7,151.05,110.7,145.45,110.7z M172.75,89.4c-0.1,0.5-0.5,0.5-0.5,0.5h-5.2
		l-3.6,20.1c-0.4,2.1-0.9,3.9-1.4,5.3c-0.5,1.4-1.1,2.5-2,3.5c-0.8,0.9-1.8,1.6-2.9,2c-1.1,0.4-2.4,0.6-3.9,0.6
		c-0.7,0-1.4,0-2.3-0.2c-0.6-0.1-0.9-0.2-1.4-0.4c-0.2,0-0.3-0.3-0.2-0.6c0.1-0.3,1.1-2.9,1.2-3.2c0.2-0.5,0.6-0.3,0.6-0.3
		c0.3,0.1,0.5,0.2,0.9,0.3c0.4,0,0.9,0.1,1.3,0.1c0.7,0,1.4-0.1,1.9-0.3c0.6-0.2,1-0.6,1.4-1.1c0.4-0.5,0.8-1.2,1.1-2.2
		s0.6-2.3,0.9-3.9l3.5-19.7h-3.5c-0.4,0-0.5-0.2-0.5-0.5l0.6-3.3c0.1-0.5,0.5-0.5,0.5-0.5h3.6l0.2-1.1c0.6-3.2,1.6-5.6,3.2-7.2
		c1.6-1.6,3.8-2.4,6.7-2.4c0.8,0,1.5,0.1,2.1,0.2c0.6,0.1,1.1,0.2,1.6,0.4c0.1,0.1,0.4,0.2,0.1,0.6l-1.2,3.3
		c-0.1,0.2-0.2,0.4-0.7,0.2c-0.1,0-0.3-0.1-0.8-0.2c-0.4,0-0.8-0.1-1.3-0.1c-0.6,0-1.2,0-1.7,0.2c-0.5,0.1-0.9,0.4-1.3,0.8
		c-0.4,0.4-0.9,1-1.1,1.7c-0.5,1.7-0.8,3.5-0.8,3.6h5c0.4,0,0.5,0.2,0.5,0.5L172.75,89.4z M196.05,102.9c-0.4,1.5-1.2,2.9-2.1,4
		c-1,1.1-2.2,2.1-3.6,2.7c-1.4,0.7-3.1,1-5,1c-1.9,0-3.6-0.4-5-1c-1.4-0.6-2.6-1.6-3.6-2.7c-0.9-1.1-1.6-2.5-2.1-4s-0.7-3.2-0.7-5
		s0.2-3.5,0.7-5c0.4-1.5,1.2-2.9,2.1-4c1-1.1,2.2-2,3.6-2.7c1.4-0.7,3.1-1,5-1c1.9,0,3.6,0.3,5,1c1.4,0.6,2.6,1.6,3.6,2.7
		c0.9,1.1,1.6,2.5,2.1,4s0.7,3.2,0.7,5C196.75,99.7,196.55,101.4,196.05,102.9z M215.55,86.4c-0.1,0.4-0.9,2.6-1.3,3.4
		c-0.1,0.2-0.3,0.4-0.6,0.4c0,0-0.9-0.2-1.7-0.2c-0.6,0-1.4,0.1-2.1,0.3c-0.7,0.2-1.3,0.6-1.9,1.2c-0.6,0.5-1.1,1.3-1.4,2.3
		c-0.3,0.9-0.5,2.5-0.5,4.1v11.8c0,0.3-0.2,0.5-0.5,0.5h-4.1c-0.3,0-0.5-0.2-0.5-0.5V86.2c0-0.3,0.2-0.5,0.5-0.5h4
		c0.3,0,0.5,0.2,0.5,0.5v1.9c0.6-0.8,1.7-1.6,2.7-2c1-0.5,2.1-0.8,4.1-0.7c1,0,2.3,0.3,2.6,0.4C215.45,85.9,215.65,86,215.55,86.4z
		 M235.05,109.4c-1.8,0.7-4.2,1.2-6.6,1.2c-4,0-7.1-1.2-9.2-3.5c-2.1-2.3-3.1-5.4-3.1-9.3c0-1.8,0.3-3.5,0.8-5s1.3-2.9,2.3-4
		c1-1.1,2.3-2,3.8-2.7s3.2-1,5.2-1c1.3,0,2.5,0,3.5,0.2c1.1,0.2,2.5,0.6,3.1,0.8c0.1,0,0.4,0.1,0.3,0.5c-0.4,1.3-0.7,2.1-1.1,3.2
		c-0.1,0.5-0.5,0.3-0.5,0.3c-1.5-0.5-3-0.7-4.9-0.7c-2.3,0-4.1,0.8-5.2,2.3c-1.2,1.5-1.8,3.5-1.8,6.1c0,2.9,0.7,5.1,2,6.4s3,2,5.3,2
		c1,0,1.8-0.1,2.6-0.2c0.8-0.1,1.5-0.3,2.2-0.6c0,0,0.4-0.2,0.6,0.3l0.9,3.1C235.35,109.2,235.05,109.4,235.05,109.4z M258.75,98.6
		c-0.1,0.4-0.5,0.4-0.5,0.4h-15.8c0.1,2.3,0.6,4,1.8,5.2c1.1,1.2,3,1.9,5.4,1.9c3.8,0,5.4-0.8,6.5-1.2c0,0,0.4-0.1,0.6,0.3l1,2.9
		c0.2,0.5,0.1,0.7-0.1,0.8c-0.9,0.6-3.3,1.6-7.9,1.6c-2.2,0-4.1-0.3-5.7-0.9c-1.6-0.6-3-1.5-4-2.6c-1.1-1.1-1.8-2.5-2.3-4
		s-0.7-3.2-0.7-5s0.2-3.4,0.7-5c0.4-1.6,1.1-2.9,2.1-4.1c0.9-1.2,2.1-2.1,3.6-2.8c1.4-0.7,3.2-1,5.2-1c1.7,0,3.2,0.3,4.5,0.9
		c1,0.4,2,1.2,3,2.3c0.6,0.7,1.6,2.2,2,3.7C259.15,95.6,258.65,98.6,258.75,98.6z"/>
	<path class="st0" d="M248.25,89.3c-2.1,0-3.5,0.8-4.5,2.3c-0.7,1-1.1,2.2-1.3,3.7h11.2c-0.1-1.4-0.3-2.7-1-3.7
		C251.65,90.1,250.35,89.3,248.25,89.3z"/>
</g>
</svg>
