<?xml version="1.0" encoding="utf-8"?>
<!-- Generator: Adobe Illustrator 24.0.2, SVG Export Plug-In . SVG Version: 6.00 Build 0)  -->
<svg version="1.1" id="svg3155" xmlns:svg="http://www.w3.org/2000/svg"
	 xmlns="http://www.w3.org/2000/svg" xmlns:xlink="http://www.w3.org/1999/xlink" x="0px" y="0px" viewBox="0 0 300 150"
	 style="enable-background:new 0 0 300 150;" xml:space="preserve">
<style type="text/css">
	.st0{fill:#F4811E;}
	.st1{fill-rule:evenodd;clip-rule:evenodd;}
</style>
<g id="layer1" transform="translate(-4699.3528,644.37708)">
	<g id="g31580" transform="translate(17.716541,17.745664)">
		<path id="path31402" class="st0" d="M4806.3-607.1c18.2,1.3,28.4-3.8,31.9-10.6h18.6c-5.6,16.1-23,26.2-50.5,24.9V-607.1"/>
		<path id="path31404" class="st1" d="M4870.2-592.8l-6.7,9.4l15.4,22.5v-31.8H4870.2z M4824.2-590.9l0,28.8l14.5-21.6l-6.8-8.9
			c5.7-1.6,10.9-4,15.4-7.5l4.4,5.6l8.3-12.6h47.3v14.3h-10.6v34.8h-36.7l-9.4-14l-9.8,14h-34.5v-9.6c-2.5,6.8-10.3,10.9-25.8,10.9
			c-23,0-24.1-8.1-24.5-17.5h18.2c0.1,2.8,0.5,4.8,1.6,6.1c1.2,1.3,2.8,2,5.1,2c3.7,0,7.7-1,7.7-5.1c0-0.9-0.3-1.7-0.8-2.3
			c-2.4-3.2-22.7-5.6-28.4-11.5c-2.3-2.4-3-5.9-3-8.8c0-11,8.5-15.9,25.5-15.9c18,0,22.3,6.3,22.5,16.7H4787c-0.1-2.8-1-5-2.2-6
			c-1.2-1-2.2-1.4-4-1.4c-3.8,0.1-5.8,1.7-5.8,4.2c0,0.8,0.2,1.7,0.8,2.3c2.8,3.1,22.4,5.4,28,11.3c0.9,0.9,1.8,2.2,2.5,3.9v-11.6
			C4812.2-589.7,4818.2-589.9,4824.2-590.9"/>
	</g>
</g>
</svg>
