<?xml version="1.0" encoding="UTF-8" standalone="no"?>
<svg
   width="766"
   height="29"
   viewBox="0 0 766 29"
   fill="none"
   version="1.1"
   id="svg110"
   sodipodi:docname="logo-parade.svg"
   inkscape:version="1.1 (c68e22c387, 2021-05-23)"
   xmlns:inkscape="http://www.inkscape.org/namespaces/inkscape"
   xmlns:sodipodi="http://sodipodi.sourceforge.net/DTD/sodipodi-0.dtd"
   xmlns="http://www.w3.org/2000/svg"
   xmlns:svg="http://www.w3.org/2000/svg">
  <sodipodi:namedview
     id="namedview112"
     pagecolor="#ffffff"
     bordercolor="#666666"
     borderopacity="1.0"
     inkscape:pageshadow="2"
     inkscape:pageopacity="0.0"
     inkscape:pagecheckerboard="0"
     showgrid="false"
     inkscape:zoom="0.73694517"
     inkscape:cx="197.43667"
     inkscape:cy="-110.59167"
     inkscape:window-width="1920"
     inkscape:window-height="1017"
     inkscape:window-x="-8"
     inkscape:window-y="-8"
     inkscape:window-maximized="1"
     inkscape:current-layer="svg110" />
  <g
     clip-path="url(#clip0)"
     id="g8"
     transform="translate(59.030365)">
    <path
       d="m 216.834,14.7617 c 1.198,-0.076 2.643,0.6479 3.134,1.9079 l -6.52,1.7426 c -0.085,-2.3512 1.675,-3.5399 3.386,-3.6505 z m 7.181,3.0074 c -0.002,-0.0119 0.001,-0.0203 -10e-4,-0.032 -0.005,-0.0214 -0.012,-0.0488 -0.017,-0.0714 -0.134,-0.6716 -0.34,-1.3218 -0.554,-1.7901 l -0.002,9e-4 c -0.057,-0.145 -0.113,-0.2876 -0.167,-0.4065 -1.027,-2.2597 -3.058,-3.8561 -6.212,-3.8561 -4.504,0 -7.481,3.6089 -7.481,7.736 0,4.6513 3.061,7.7407 7.886,7.7407 2.065,0 3.556,-0.5017 4.985,-1.1685 0.13,-0.0595 0.23,-0.1736 0.272,-0.3091 l 0.733,-3.503 c 0.057,-0.1926 -0.054,-0.3317 -0.176,-0.2687 -1.307,0.8321 -2.986,1.827 -5.037,1.8116 -2.074,-0.0154 -3.768,-0.8666 -4.3,-2.3274 l 9.765,-2.5985 c 0.286,-0.101 0.416,-0.2615 0.381,-0.5254 -0.019,-0.145 -0.049,-0.2889 -0.075,-0.4327 z m 43.651,9.3217 c -2.508,0 -4.441,-0.8214 -6.084,-1.7569 -0.138,-0.0772 -0.282,-0.2318 -0.254,-0.3744 l 0.646,-3.1132 c 0.011,-0.0701 0.062,-0.1248 0.131,-0.0808 1.87,1.2267 3.524,2.0897 5.817,2.0897 1.271,0 2.051,-0.4885 2.051,-1.1851 0,-0.7786 -0.577,-1.1233 -3.233,-1.8175 -3.002,-0.7798 -5.141,-1.789 -5.141,-4.5622 0,-2.6567 2.31,-4.5895 6.209,-4.5895 2.015,0 3.631,0.5005 4.893,1.1269 0.173,0.0856 0.301,0.2853 0.278,0.4576 l -0.603,2.9004 c -0.019,0.0915 -0.099,0.1462 -0.179,0.0987 -1.48,-0.907 -3.321,-1.3789 -4.56,-1.3789 -1.3,0 -1.994,0.4636 -1.994,1.0984 0,0.7476 0.663,1.065 3.146,1.701 3.352,0.8368 5.23,1.8757 5.23,4.7357 0,2.7149 -2.454,4.6501 -6.353,4.6501 z m -20.16,-7.618 c 0,2.3215 1.59,4.0606 3.728,4.0606 2.223,0 3.756,-1.8282 3.756,-4.1188 0,-2.3203 -1.59,-4.032 -3.727,-4.032 -2.223,0 -3.757,1.7961 -3.757,4.0902 z m 3.723,-7.8583 c 5.025,0 7.97,3.7229 7.97,7.7359 0,4.0724 -3.12,7.8251 -7.998,7.8251 -4.996,0 -7.969,-3.7527 -7.969,-7.7657 0,-4.0415 3.118,-7.7953 7.997,-7.7953 z m -15.317,0.4038 h 4.069 c 0.08,0 0.145,0.0642 0.145,0.1438 v 14.4651 c 0,0.0784 -0.065,0.145 -0.145,0.145 h -4.069 c -0.081,0 -0.147,-0.0666 -0.147,-0.145 V 12.1621 c 0,-0.0796 0.066,-0.1438 0.147,-0.1438 z m 2.049,-2.05171 c -1.431,0 -2.53,-1.04485 -2.53,-2.39281 0,-1.37412 1.099,-2.38925 2.53,-2.38925 1.429,0 2.526,1.01513 2.526,2.38925 0,1.34796 -1.097,2.39281 -2.526,2.39281 z m -10.75,-3.95723 4.071,-1.07457 c 0.093,-0.02501 0.183,0.04517 0.183,0.13908 V 26.627 c 0,0.0796 -0.065,0.1451 -0.145,0.1451 h -4.072 c -0.08,0 -0.145,-0.0655 -0.145,-0.1451 V 6.15081 c 0,-0.06656 0.045,-0.12481 0.108,-0.14145 z M 202.376,18.6597 h -9.529 v 7.9689 c 0,0.0797 -0.065,0.145 -0.145,0.145 h -4.391 c -0.08,0 -0.145,-0.0653 -0.145,-0.145 V 6.70271 c 0,-0.07845 0.065,-0.14383 0.145,-0.14383 h 4.391 c 0.08,0 0.145,0.06533 0.145,0.14383 v 7.68249 h 9.529 V 6.70271 c 0,-0.07845 0.065,-0.14383 0.145,-0.14383 h 4.362 c 0.08,0 0.145,0.06533 0.145,0.14383 V 26.6286 c 0,0.0797 -0.065,0.145 -0.145,0.145 h -4.362 c -0.08,0 -0.145,-0.0653 -0.145,-0.145 z"
       fill="#000000"
       id="path2" />
    <path
       d="m 179.493,11.8292 c -0.312,-1.5369 -0.727,-2.52233 -1.893,-2.35829 -0.858,0.12243 -1.228,0.91169 -1.141,1.83529 0.253,2.6199 0.407,5.0876 -0.257,7.7027 -0.291,1.1459 -0.937,4.3506 -2.986,3.7206 -1.487,-0.4565 -1.176,-2.4368 -1.091,-3.4662 0.308,-2.1587 -0.406,-2.6353 -1.059,-2.7447 -0.905,-0.1522 -1.592,0.2936 -1.888,2.0517 -0.12,0.5681 -1.108,5.2884 -1.155,5.7734 -0.137,1.3991 0.362,2.9075 0.463,3.2593 0.035,0.126 0.119,0.2093 0.245,0.239 3.099,0.6561 6.338,0.4303 8.677,-0.9391 0.129,-0.0761 0.198,-0.1652 0.258,-0.2449 1.294,-1.8638 1.881,-4.7048 2.196,-6.9169 0.372,-2.621 0.241,-5.3336 -0.369,-7.9119 z"
       fill="#000000"
       id="path4" />
    <path
       d="m 162.851,18.1689 c 0.313,1.537 0.729,2.5236 1.895,2.3583 0.857,-0.1212 1.225,-0.9117 1.141,-1.8341 -0.255,-2.6199 -0.409,-5.0876 0.255,-7.7027 0.292,-1.14584 0.937,-4.34934 2.988,-3.72053 1.485,0.45527 1.175,2.43799 1.09,3.46623 -0.309,2.1574 0.405,2.6365 1.059,2.7446 0.906,0.1534 1.591,-0.2924 1.886,-2.0528 0.121,-0.567 1.109,-5.28846 1.157,-5.77344 0.136,-1.39789 -0.362,-2.90752 -0.463,-3.25818 -0.034,-0.126 -0.12,-0.20921 -0.245,-0.23892 -3.098,-0.65615 -6.339,-0.43031 -8.677,0.93906 -0.129,0.07369 -0.197,0.16522 -0.259,0.24486 -1.293,1.86386 -1.881,4.7048 -2.194,6.91812 -0.374,2.6187 -0.242,5.3324 0.367,7.9095 z"
       fill="#000000"
       id="path6" />
  </g>
  <g
     clip-path="url(#clip1)"
     id="g38">
    <mask
       id="mask0"
       style="mask-type:alpha"
       maskUnits="userSpaceOnUse"
       x="0"
       y="1"
       width="18"
       height="19">
      <path
         d="M0.0673828 1.53613H17.0814V19.3777H0.0673828V1.53613Z"
         fill="white"
         id="path10" />
    </mask>
    <g
       mask="url(#mask0)"
       id="g15">
      <path
         fill-rule="evenodd"
         clip-rule="evenodd"
         d="M6.96603 19.3777H6.95928C5.11232 19.3777 3.2035 19.3329 1.94482 18.7987C1.29467 18.5243 0.842492 18.1547 0.521918 17.6361C0.170973 17.0661 0 16.3302 0 15.3861C0 14.6659 0.102359 13.8214 0.305952 12.8705C0.35207 12.6544 1.44315 7.58525 1.51626 7.31645C1.80422 6.26029 2.16753 5.39117 2.62871 4.66205C3.42509 3.40541 4.48467 2.59453 5.96269 2.11293C7.19437 1.71421 8.76237 1.53613 11.0446 1.53613H11.0638C12.2628 1.53613 13.2482 1.62013 14.076 1.79373C15.0524 1.99757 15.7981 2.33133 16.2931 2.78493C16.662 3.12429 16.9005 3.53869 17.0039 4.01693C17.0557 4.25773 17.0816 4.52653 17.0816 4.81885C17.0816 5.49309 16.9432 6.19645 16.8318 6.76317C16.8161 6.84493 16.8004 6.92557 16.7857 7.00285L16.7812 7.02637H12.3674L12.3697 6.99501C12.3697 6.99501 12.3832 6.86173 12.3888 6.80349C12.3888 6.80013 12.409 6.62205 12.409 6.36669C12.409 5.98477 12.2302 5.68573 11.8601 5.45053C11.5688 5.28589 11.1965 5.22877 10.8399 5.18509C10.4586 5.14029 10.0323 5.13357 9.62848 5.13357C8.8861 5.13357 8.32481 5.19293 7.86476 5.31837C7.49694 5.41693 7.19099 5.56141 6.93228 5.75853C6.56559 6.03517 6.28101 6.43277 6.06167 6.97261C5.85695 7.47661 5.7096 8.07469 5.54988 8.81837L4.94472 11.652C4.75125 12.5648 4.61402 13.2569 4.6129 13.8528C4.6129 14.1966 4.66014 14.4677 4.76025 14.7085C4.91773 15.0915 5.2518 15.3905 5.70285 15.5496C6.13816 15.7075 6.6882 15.7781 7.48682 15.7792C8.02111 15.7792 8.45867 15.7691 8.85685 15.7209C9.5475 15.6381 10.0413 15.432 10.4125 15.0725C10.8152 14.6816 11.0874 14.1059 11.2685 13.2581L11.3303 12.9691H15.6958L15.6947 12.9993C15.6924 13.0329 15.4483 14.1742 15.3201 14.6312C15.1874 15.1072 15.0423 15.5137 14.8769 15.8721C14.4528 16.7939 13.8623 17.5029 13.0164 18.1032C12.1987 18.6721 11.3281 19.0238 10.2753 19.2075C9.36977 19.3654 8.44517 19.3766 7.41596 19.3766H7.40358C7.38221 19.3766 7.01889 19.3766 6.96603 19.3777Z"
         fill="black"
         id="path13" />
    </g>
    <path
       fill-rule="evenodd"
       clip-rule="evenodd"
       d="M55.8723 19.3777H55.8667C54.0186 19.3777 52.1097 19.3329 50.8522 18.7987C50.2009 18.5243 49.7487 18.1547 49.4293 17.6361C49.0772 17.0661 48.9074 16.3302 48.9062 15.3861C48.9062 14.6659 49.0097 13.8214 49.2133 12.8705C49.2583 12.6544 50.3494 7.58525 50.4225 7.31645C50.7105 6.26029 51.0738 5.39117 51.535 4.66205C52.3313 3.40541 53.3909 2.59453 54.8689 2.11293C56.1017 1.71421 57.6686 1.53613 59.9498 1.53613H59.9711C61.1691 1.53613 62.1544 1.62013 62.9834 1.79373C63.9598 1.99757 64.7055 2.33133 65.1993 2.78493C65.5694 3.12429 65.8067 3.53869 65.9091 4.01693C65.9608 4.25661 65.9878 4.52653 65.9878 4.81885C65.9878 5.49309 65.8506 6.19757 65.7392 6.76317C65.7224 6.84605 65.7077 6.92557 65.692 7.00285L65.6875 7.02637H61.2737L61.2771 6.99501C61.2771 6.99501 61.2906 6.86173 61.2962 6.80349C61.2962 6.80013 61.3153 6.62205 61.3153 6.36669C61.3153 5.98477 61.1353 5.68573 60.7675 5.45053C60.4751 5.28589 60.1027 5.22877 59.7462 5.18509C59.366 5.14029 58.9385 5.13357 58.5347 5.13357C57.7924 5.13357 57.2311 5.19293 56.771 5.31837C56.4032 5.41693 56.0984 5.56141 55.8385 5.75853C55.4718 6.03517 55.1884 6.43277 54.969 6.97261C54.7632 7.47661 54.6159 8.07469 54.4573 8.81837L53.8521 11.652C53.6575 12.5648 53.5203 13.2569 53.5192 13.8528C53.5192 14.1966 53.5664 14.4677 53.6665 14.7085C53.824 15.0915 54.158 15.3905 54.6091 15.5496C55.0444 15.7075 55.5944 15.7781 56.3931 15.7792C56.9285 15.7792 57.3649 15.7691 57.7631 15.7209C58.4526 15.6381 58.9487 15.432 59.3199 15.0725C59.7214 14.6816 59.9936 14.1059 60.1759 13.2581L60.2366 12.9691H64.602L64.6009 12.9993C64.5987 13.0329 64.3534 14.1742 64.2263 14.6312C64.0936 15.1072 63.9485 15.5137 63.7843 15.8721C63.3602 16.7939 62.7686 17.5029 61.9227 18.1032C61.1061 18.6721 60.2343 19.0238 59.1826 19.2075C58.276 19.3654 57.3514 19.3766 56.3233 19.3766H56.3098C56.2885 19.3766 55.9251 19.3766 55.8723 19.3777Z"
       fill="black"
       id="path17" />
    <path
       fill-rule="evenodd"
       clip-rule="evenodd"
       d="M46.3994 19.2302H33.7002L33.7081 19.1955L37.2591 2.55679C37.3221 2.25103 37.4369 2.04047 37.6225 1.89711C37.8114 1.75039 38.0724 1.67871 38.4188 1.67871H49.1339C49.3982 1.67983 49.5894 1.73919 49.7042 1.85567C49.7908 1.94415 49.8369 2.07407 49.838 2.23199V2.24543C49.8369 2.30927 49.829 2.37535 49.8133 2.44143L49.2587 5.03871H40.9632L40.2444 8.47935H48.0293L47.3207 11.724H39.5358L38.6494 15.8769H47.1148L46.3994 19.2302Z"
       fill="black"
       id="path19" />
    <path
       fill-rule="evenodd"
       clip-rule="evenodd"
       d="M69.1733 19.2302H64.9395L64.9462 19.1955L68.486 2.61391C68.5704 2.25439 68.7076 2.00575 68.9033 1.85567C69.0597 1.73695 69.2599 1.67983 69.5175 1.67871H72.0236C72.2935 1.67983 72.4949 1.74255 72.622 1.86463C72.7221 1.96095 72.775 2.09983 72.7761 2.26559C72.7761 2.31599 72.7716 2.36863 72.7615 2.42239L69.1733 19.2302Z"
       fill="black"
       id="path21" />
    <path
       fill-rule="evenodd"
       clip-rule="evenodd"
       d="M80.8284 19.2291H75.4934L75.4855 19.2134L71.5352 10.1101L71.5487 10.0966L78.382 2.70799C78.8026 2.24879 79.0535 2.01583 79.2739 1.88031C79.5135 1.73359 79.7194 1.68095 80.0636 1.67871H83.5078C83.6686 1.67983 83.7699 1.73247 83.8261 1.77727C83.861 1.80639 83.8835 1.83327 83.8981 1.86239C83.9093 1.88143 83.9161 1.90719 83.9195 1.93295H83.9273L83.9206 1.98783C83.9138 2.05951 83.8767 2.17711 83.735 2.33503L76.3595 10.231L80.8284 19.2291Z"
       fill="black"
       id="path23" />
    <path
       fill-rule="evenodd"
       clip-rule="evenodd"
       d="M27.2928 19.2302H27.2579L27.2658 19.1955L28.7742 12.1082H21.7935L20.2727 19.2302H16.04L16.0479 19.1955C16.1908 18.5235 19.5551 2.71583 19.5754 2.62847C19.7002 2.10767 19.9072 1.92847 20.0737 1.83103C20.2536 1.72687 20.5056 1.67871 20.8644 1.67871H23.1534C23.2726 1.67983 23.4661 1.73023 23.6135 1.83551C23.6922 1.89039 23.7541 1.95647 23.7968 2.03039C23.8452 2.11439 23.8688 2.20959 23.8688 2.32047C23.8688 2.36863 23.8632 2.42015 23.8553 2.47391C23.8373 2.57471 22.6754 7.97647 22.5595 8.51071H29.5402C30.1082 5.84287 30.7842 2.66655 30.7932 2.62847C30.9181 2.10767 31.125 1.92847 31.2915 1.83103C31.4715 1.72687 31.7234 1.67871 32.0823 1.67871H34.3713C34.4894 1.67983 34.684 1.73023 34.8313 1.83551C34.9101 1.89039 34.9719 1.95647 35.0135 2.03039C35.0619 2.11439 35.0855 2.20959 35.0855 2.32047C35.0855 2.36863 35.081 2.42015 35.072 2.47391C35.054 2.57807 31.6402 18.528 31.4962 19.2078L31.4917 19.2302H27.2928Z"
       fill="black"
       id="path25" />
    <mask
       id="mask1"
       style="mask-type:alpha"
       maskUnits="userSpaceOnUse"
       x="81"
       y="1"
       width="32"
       height="28">
      <path
         d="M81.8691 1.55957H112.481V28.9346H81.8691V1.55957Z"
         fill="white"
         id="path27" />
    </mask>
    <g
       mask="url(#mask1)"
       id="g36">
      <path
         fill-rule="evenodd"
         clip-rule="evenodd"
         d="M93.3141 5.11223C93.6392 5.19511 93.899 5.35751 94.0385 5.62743C94.1308 5.80551 94.169 6.01719 94.169 6.26471C94.169 6.52007 94.1285 6.81687 94.0543 7.17079C93.9553 7.62999 93.8585 8.00743 93.7123 8.33335C93.5661 8.65815 93.3659 8.93143 93.0768 9.15655C92.4953 9.61015 91.5909 9.88791 89.9892 10.2452C87.87 10.7145 86.4066 11.1053 85.3763 11.6149C84.347 12.1268 83.7453 12.7394 83.2942 13.7037C82.995 14.3489 82.7667 15.1519 82.5485 16.1745L81.9512 19.2041H95.683L96.323 16.1341H86.7688C86.7688 16.1341 86.9173 15.3961 87.0376 15.125C87.1951 14.7756 87.3987 14.5135 87.6653 14.3186C87.9307 14.1226 88.2524 13.9961 88.6439 13.8863C89.4279 13.6701 90.5111 13.5234 92.1049 13.118C94.07 12.6117 95.3962 12.0596 96.3309 11.1613C97.2656 10.2653 97.837 9.00535 98.2589 7.03079C98.4152 6.29943 98.5018 5.58151 98.5018 5.03719C98.5018 4.25431 98.3511 3.65623 98.08 3.19591C97.81 2.73447 97.4175 2.40407 96.9068 2.15991C95.8877 1.67159 94.3917 1.55847 92.6156 1.55958C90.357 1.55847 88.5786 1.79255 87.257 2.60007C85.9364 3.40647 85.0152 4.87591 84.5045 7.26487L84.3594 7.94023H88.5348L88.6934 7.19431C88.8576 6.47863 89.0083 5.99143 89.2805 5.64535C89.5516 5.29591 89.943 5.13015 90.4785 5.06295C90.8373 5.01591 91.2715 5.00583 91.8125 5.00583C91.898 5.00471 91.9801 5.00359 92.0588 5.00359C92.574 5.00471 92.9857 5.02711 93.3141 5.11223Z"
         fill="black"
         id="path30" />
      <path
         fill-rule="evenodd"
         clip-rule="evenodd"
         d="M104.833 3.41939C104.347 3.92115 100.272 8.16707 98.6034 9.90755C98.2704 10.2637 97.9139 10.6579 97.7553 10.9816C97.6282 11.2179 97.4606 11.8765 97.3751 12.3469C97.1974 13.3258 97.0646 14.2207 96.9825 14.588C96.9611 14.6832 96.9521 14.7695 96.9521 14.8501C96.9533 15.1514 97.0793 15.353 97.248 15.4963C97.4178 15.6386 97.6428 15.7047 97.87 15.7047C98.0736 15.7047 105.959 15.7047 105.959 15.7047L105.214 19.2069L109.473 18.8071L110.134 15.7047H111.654L112.316 12.6056H110.794C110.794 12.6056 112.315 5.52835 112.362 5.26627C112.885 2.40243 111.691 1.56467 109.002 1.56467C108.315 1.56467 106.762 1.42355 104.833 3.41939ZM106.62 12.6056H100.509L107.779 5.10387H108.221L106.62 12.6056Z"
         fill="black"
         id="path32" />
      <path
         fill-rule="evenodd"
         clip-rule="evenodd"
         d="M95.3006 28.9993C92.5527 28.9982 89.9127 28.2691 87.6676 26.887C85.4629 25.5307 84.1762 23.9313 83.5676 23.0275L82.7645 25.0883C82.6914 25.2765 82.49 25.3952 82.2786 25.3605C82.0671 25.3235 81.9141 25.1454 81.913 24.9349L81.8691 20.8984V20.895C81.8703 20.7819 81.9164 20.6744 81.9974 20.5949C82.0817 20.512 82.192 20.4672 82.3089 20.4672L86.4348 20.4649H86.4393C86.6429 20.4717 86.8195 20.6206 86.8589 20.8177C86.8634 20.8446 86.8667 20.8726 86.8667 20.9006C86.8667 21.0787 86.7542 21.2411 86.5855 21.3061L84.571 22.0833C86.3369 23.6491 89.9746 26.1691 95.0824 26.1702C95.5189 26.1702 95.962 26.1512 96.4007 26.1142C98.5548 25.9317 100.728 25.4041 102.688 24.591C104.403 23.8765 105.918 22.9648 107.074 21.9512L104.997 21.3408C104.811 21.2881 104.679 21.1168 104.679 20.923C104.679 20.9096 104.681 20.8961 104.682 20.8805C104.703 20.6733 104.87 20.5086 105.08 20.4896L109.11 20.1233C109.129 20.1211 109.145 20.1211 109.157 20.1211C109.259 20.1211 109.359 20.1581 109.437 20.2219C109.529 20.2992 109.585 20.4045 109.594 20.5209C109.929 24.4645 109.929 24.4656 109.929 24.4801C109.929 24.6773 109.796 24.8486 109.604 24.9001C109.568 24.9102 109.531 24.9158 109.491 24.9158C109.322 24.9158 109.166 24.8206 109.093 24.6739L108.121 22.8158C107.338 23.8664 105.979 25.3515 103.85 26.6406C101.692 27.9477 99.278 28.7216 96.6819 28.94L96.421 28.9624V28.9601C96.0453 28.9859 95.6685 28.9993 95.3006 28.9993Z"
         fill="black"
         id="path34" />
    </g>
  </g>
  <g
     id="g1031">
    <path
       d="M702.669 13.5361V11.9014H699.272C698.501 11.9014 698.239 11.5255 698.239 10.7921V0.154297H696.321V10.905C696.321 12.3144 697.11 13.5361 698.934 13.5361H702.669Z"
       fill="black"
       id="path46" />
    <path
       d="M709.854 7.991H705.569C705.588 7.40813 705.626 7.12635 705.813 6.69427C706.114 5.97967 706.81 5.49114 707.712 5.49114C708.614 5.49114 709.29 5.97967 709.591 6.69427C709.779 7.12635 709.835 7.40813 709.854 7.991ZM711.753 9.32537V8.47954C711.753 5.77316 710.268 3.89355 707.712 3.89355C705.268 3.89355 703.671 5.67907 703.671 8.76132C703.671 12.3888 705.569 13.6481 707.956 13.6481C709.629 13.6481 710.55 13.1408 711.527 12.1635L710.305 11.017C709.629 11.6935 709.065 11.9944 707.994 11.9944C706.433 11.9944 705.569 10.9603 705.569 9.32537H711.753Z"
       fill="black"
       id="path48" />
    <path
       d="M715.698 4.00684H713.78V13.5356H715.698V4.00684Z"
       fill="black"
       id="path50" />
    <path
       d="M724.085 8.76132C724.085 10.4532 723.84 11.9379 722.111 11.9379C720.382 11.9379 720.119 10.4532 720.119 8.76132C720.119 7.06965 720.382 5.6038 722.111 5.6038C723.84 5.6038 724.085 7.06965 724.085 8.76132ZM726.002 8.76132C726.002 7.31404 725.889 5.69789 724.931 4.73915C724.405 4.21298 723.559 3.89355 722.6 3.89355C721.566 3.89355 720.796 4.15676 720.082 5.02093V4.00622H718.202V17.3883H720.119V12.5579C720.814 13.3849 721.604 13.6481 722.619 13.6481C723.577 13.6481 724.405 13.3285 724.931 12.8026C725.889 11.8433 726.002 10.2088 726.002 8.76132Z"
       fill="black"
       id="path52" />
    <path
       d="M734.525 13.5356V11.8254H729.75L734.525 5.52914V4.00684H727.683V5.71684H732.156L727.42 12.0135V13.5356H734.525Z"
       fill="black"
       id="path54" />
    <path
       d="M738.539 4.00684H736.622V13.5356H738.539V4.00684Z"
       fill="black"
       id="path56" />
    <path
       d="M746.236 8.59269C746.236 10.0964 746.029 11.5813 744.3 11.5813C742.571 11.5813 742.346 10.0967 742.346 8.59269C742.346 7.0892 742.571 5.60429 744.3 5.60429C746.03 5.60429 746.236 7.08895 746.236 8.59269ZM748.153 13.4795V4.0067H746.293V5.02166C745.578 4.15701 744.808 3.89355 743.793 3.89355C742.834 3.89355 742.026 4.19464 741.5 4.72106C740.579 5.64192 740.429 6.97653 740.429 8.59269C740.429 10.2088 740.579 11.5437 741.5 12.4643C742.026 12.9907 742.815 13.3104 743.774 13.3104C744.752 13.3104 745.541 13.0474 746.236 12.2202V13.4421C746.236 14.72 745.616 15.8665 744 15.8665C743.06 15.8665 742.534 15.5844 741.932 15.0209L740.711 16.2423C741.707 17.1632 742.628 17.5014 744.075 17.5014C746.612 17.5014 748.153 15.8098 748.153 13.4795Z"
       fill="black"
       id="path58" />
    <path
       d="M756.437 7.991H752.152C752.17 7.40813 752.208 7.12635 752.396 6.69427C752.696 5.97967 753.392 5.49114 754.294 5.49114C755.196 5.49114 755.873 5.97967 756.174 6.69427C756.361 7.12635 756.418 7.40813 756.437 7.991ZM758.335 9.32537V8.47954C758.335 5.77316 756.85 3.89355 754.294 3.89355C751.851 3.89355 750.253 5.67907 750.253 8.76132C750.253 12.3888 752.152 13.6481 754.538 13.6481C756.211 13.6481 757.132 13.1408 758.109 12.1635L756.888 11.017C756.211 11.6935 755.647 11.9944 754.576 11.9944C753.016 11.9944 752.152 10.9603 752.152 9.32537H758.335Z"
       fill="black"
       id="path60" />
    <path
       d="M765.597 4.00707V5.64204H763.306C762.535 5.64204 762.272 6.01792 762.272 6.75133V13.5358H760.355V6.63794C760.355 5.22854 761.145 4.00684 762.968 4.00684H765.597V4.00707Z"
       fill="black"
       id="path62" />
    <path
       d="M715.753 0.0976562H713.724V2.12731H715.753V0.0976562Z"
       fill="black"
       id="path64" />
    <path
       d="M738.595 0.0976562H736.565V2.12731H738.595V0.0976562Z"
       fill="black"
       id="path66" />
    <path
       d="M672.371 0H676.347C676.347 0 676.347 12.0293 676.347 19.9092C676.347 22.1049 678.127 23.8848 680.323 23.8848C684.216 23.8848 688.256 23.8849 688.256 23.8849V27.8605C688.256 27.8605 684.216 27.8605 680.323 27.8605C675.931 27.8605 672.371 24.3005 672.371 19.9092V0Z"
       fill="black"
       id="path68" />
    <path
       d="M698.548 28.0003C697.562 28.0003 696.932 27.7276 696.321 27.1169L696.678 26.7598C697.28 27.3618 697.778 27.5492 698.577 27.5492C699.638 27.5492 700.296 27.0423 700.296 26.1679C700.296 25.7644 700.183 25.4443 699.929 25.2287C699.676 25.0315 699.516 24.9465 698.962 24.8712L698.182 24.7492C697.674 24.6735 697.28 24.5141 696.988 24.2604C696.64 23.9696 696.462 23.5561 696.462 23.0297C696.462 21.9023 697.251 21.1973 698.539 21.1973C699.366 21.1973 699.892 21.4233 700.465 21.9211L700.136 22.2496C699.742 21.874 699.3 21.6298 698.511 21.6298C697.534 21.6298 696.961 22.156 696.961 23.0109C696.961 23.3963 697.073 23.6876 697.308 23.8846C697.543 24.0818 697.928 24.2323 698.304 24.2981L699.027 24.411C699.657 24.4953 699.948 24.618 700.221 24.8524C700.588 25.1535 700.803 25.6136 700.803 26.1491C700.803 27.2862 699.948 28.0003 698.548 28.0003Z"
       fill="black"
       id="path70" />
    <path
       d="M702.381 26.7603V23.7724H701.761V23.4153H702.381V21.9678H702.86V23.4153H703.884V23.7724H702.86V26.77C702.86 27.249 703.076 27.5215 703.556 27.5215H703.884V27.9441H703.471C702.757 27.9439 702.381 27.446 702.381 26.7603Z"
       fill="black"
       id="path72" />
    <path
       d="M707.962 27.4935C707.577 27.8786 707.22 28.0008 706.581 28.0008C705.905 28.0008 705.538 27.8879 705.247 27.5876C705.031 27.3715 704.918 27.0428 704.918 26.7041C704.918 25.8773 705.51 25.3983 706.496 25.3983H707.962V24.8907C707.962 24.1676 707.615 23.7819 706.685 23.7819C706.045 23.7819 705.726 23.9418 705.435 24.355L705.087 24.0547C705.472 23.5192 705.942 23.3594 706.685 23.3594C707.888 23.3594 708.442 23.8946 708.442 24.8436V27.9444H707.962V27.4935H707.962ZM706.553 25.7837C705.783 25.7837 705.397 26.0841 705.397 26.6951C705.397 27.296 705.754 27.5785 706.581 27.5785C706.995 27.5785 707.38 27.5409 707.709 27.2305C707.878 27.0709 707.962 26.7791 707.962 26.3661V25.7837H706.553Z"
       fill="black"
       id="path74" />
    <path
       d="M712.827 27.3619C712.423 27.8876 712 28.0005 711.483 28.0005C711.004 28.0005 710.61 27.8409 710.375 27.6061C709.914 27.1459 709.792 26.3941 709.792 25.6796C709.792 24.9654 709.914 24.2139 710.375 23.7538C710.61 23.5187 711.004 23.3591 711.483 23.3591C712 23.3591 712.423 23.4713 712.827 23.9977V21.2539H713.306V27.9438H712.827V27.3619ZM711.549 23.7814C710.44 23.7814 710.271 24.7404 710.271 25.6796C710.271 26.6195 710.44 27.578 711.549 27.578C712.657 27.578 712.827 26.6195 712.827 25.6796C712.827 24.7404 712.657 23.7814 711.549 23.7814Z"
       fill="black"
       id="path76" />
    <path
       d="M715.238 26.7603V23.7724H714.618V23.4153H715.238V21.9678H715.718V23.4153H716.742V23.7724H715.718V26.77C715.718 27.249 715.934 27.5215 716.413 27.5215H716.742V27.9441H716.329C715.614 27.9439 715.238 27.446 715.238 26.7603Z"
       fill="black"
       id="path78" />
    <path
       d="M721.891 27.9436L720.613 24.1665L719.335 27.9436H718.847L717.399 23.415H717.926L719.082 27.3803L720.378 23.415H720.848L722.145 27.3803L723.301 23.415H723.826L722.38 27.9436H721.891Z"
       fill="black"
       id="path80" />
    <path
       d="M726.492 27.5678C727.028 27.5678 727.357 27.4082 727.743 27.023L728.1 27.3048C727.639 27.765 727.216 27.9999 726.465 27.9999C725.215 27.9999 724.538 27.1919 724.538 25.6789C724.538 24.2133 725.215 23.3584 726.352 23.3584C727.489 23.3584 728.165 24.1754 728.165 25.5665V25.7825H725.017C725.017 26.9382 725.525 27.5678 726.492 27.5678ZM727.526 24.5425C727.329 24.0625 726.878 23.7812 726.351 23.7812C725.825 23.7812 725.375 24.0625 725.177 24.5425C725.073 24.8335 725.045 24.9557 725.017 25.3971H727.686C727.657 24.965 727.648 24.8152 727.526 24.5425Z"
       fill="black"
       id="path82" />
    <path
       d="M734.413 25.454L733.38 26.6471V27.9438H732.9V21.2539H733.38V25.9706L735.626 23.4153H736.237L734.743 25.106L736.565 27.9438H735.973L734.413 25.454Z"
       fill="black"
       id="path84" />
    <path
       d="M739.242 27.5678C739.778 27.5678 740.107 27.4082 740.493 27.023L740.85 27.3048C740.389 27.765 739.966 27.9999 739.215 27.9999C737.965 27.9999 737.288 27.1919 737.288 25.6789C737.288 24.2133 737.965 23.3584 739.102 23.3584C740.239 23.3584 740.915 24.1754 740.915 25.5665V25.7825H737.767C737.767 26.9382 738.275 27.5678 739.242 27.5678ZM740.276 24.5425C740.079 24.0625 739.628 23.7812 739.101 23.7812C738.575 23.7812 738.125 24.0625 737.927 24.5425C737.823 24.8335 737.795 24.9557 737.767 25.3971H740.436C740.408 24.965 740.398 24.8152 740.276 24.5425Z"
       fill="black"
       id="path86" />
    <path
       d="M730.651 23.415H731.737V23.8376H730.735C730.2 23.8376 730.04 24.082 730.04 24.5986V27.9438H729.561V24.5891C729.561 23.8755 729.909 23.415 730.651 23.415Z"
       fill="black"
       id="path88" />
  </g>
  <g
     clip-path="url(#clip3)"
     id="g94"
     transform="translate(-34.83728)">
    <path
       d="M 605.278,28.5091 V 16.0899 c 0,-3.5689 2.445,-5.9686 6.012,-5.9686 3.067,0 4.426,1.4268 4.426,4.7664 v 13.6214 h 1.739 V 14.6976 c 0,-4.1845 -2.009,-6.21803 -6.175,-6.21803 -2.748,0 -4.86,1.29318 -6.145,3.74303 l -0.212,0.4016 -0.107,-0.4389 c -0.627,-2.38996 -2.534,-3.70573 -5.387,-3.70573 -0.877,0 -1.687,0.14149 -2.422,0.4091 -3.013,0.9989 -3.905,3.26153 -3.905,3.26153 V 9.21055 h -1.986 V 28.5091 h 1.986 V 16.2396 c 0,-3.5997 2.393,-6.1183 5.928,-6.1183 2.878,0 4.261,1.6806 4.261,4.9914 V 28.5091 Z M 563.909,10.0156 c 3.628,0 5.998,2.773 6.19,7.077 L 557.534,17.091 c 0.226,-4.2381 2.731,-7.0754 6.375,-7.0754 z m 5.973,12.5537 c -0.518,2.7222 -2.937,4.4103 -6.008,4.4103 -4.009,0 -6.646,-3.1984 -6.646,-7.9965 v -0.1249 h 14.662 v -0.7419 c 0,-6.1701 -2.905,-9.68128 -8.036,-9.68128 -5.239,0 -8.329,3.80458 -8.329,10.14088 0,6.256 3.116,10.0373 8.333,10.0373 4.287,0 7.377,-2.3325 7.932,-6.0439 z m -20.156,-5.2038 c 0,-4.6255 2.093,-6.9186 6.07,-6.9186 h 0.141 V 8.71361 h -0.103 c -2.016,0 -3.561,0.52078 -4.704,1.68059 -0.803,0.6931 -1.359,1.6446 -1.653,2.2375 V 12.1276 9.21055 h -1.738 V 28.5091 h 1.987 z m -78.71,7.7873 c -3.545,0 -5.528,-2.4317 -5.528,-6.9888 0,-4.5541 1.983,-7.0203 5.528,-7.0203 3.509,0 5.489,2.4289 5.489,7.0203 0,4.5571 -1.98,6.9888 -5.489,6.9888 z M 470.979,7.4973 c -6.139,0 -9.838,3.9473 -9.838,10.6667 0,6.7218 3.738,10.6324 9.875,10.6324 6.101,0 9.841,-3.9485 9.841,-10.6324 0,-6.6805 -3.74,-10.6667 -9.878,-10.6667 z m 105.436,12.805 c 0.199,-0.1829 0.427,-0.3539 0.676,-0.5132 0.302,-0.1726 1.956,-1.0366 4.668,-1.2192 2.019,-0.1418 3.614,-0.3423 4.818,-0.8059 l 0.236,-0.0891 0.028,1.9538 -0.007,0.0041 c 0,0 0.002,0.0201 0.007,0.0584 l 0.005,0.5129 0.01,0.4402 c -0.004,0.0141 -0.004,0.0276 -0.004,0.0392 -10e-4,0.0806 -0.008,0.1543 -0.011,0.2312 -0.029,0.491 -0.119,1.1834 -0.37,1.9197 -0.592,1.6066 -1.989,3.3296 -5.185,3.883 -0.472,0.0684 -0.968,0.1054 -1.486,0.1054 -2.778,0 -4.573,-1.5084 -4.573,-3.8432 0,-0.6211 0.139,-1.1836 0.413,-1.6925 0.024,-0.0439 0.046,-0.0882 0.071,-0.1261 0.019,-0.0314 0.041,-0.0624 0.06,-0.0951 0.133,-0.2052 0.286,-0.3975 0.45,-0.5735 0.026,-0.0251 0.051,-0.0508 0.076,-0.0765 0.038,-0.038 0.078,-0.0753 0.118,-0.1136 z m -3.166,2.7172 c 0,3.3521 2.387,5.4369 6.232,5.4369 2.732,0 5.134,-1.088 7.069,-3.2352 l 0.341,-0.3413 v 0.7583 c 0,1.4252 0.497,2.6478 1.738,2.8709 V 14.1097 c 0,-3.7258 -2.361,-5.66997 -6.9,-5.66997 -4.432,0 -7.333,2.50137 -7.497,5.96677 h 1.868 c 0.213,-2.7232 2.075,-4.3354 5.693,-4.3354 3.567,0 5.024,1.2524 5.024,4.379 0,1.6969 -0.555,2.0408 -2.118,2.3824 -1.148,0.2444 -2.816,0.4019 -3.391,0.4518 -0.056,0.0025 -0.113,0.0072 -0.166,0.0132 -0.024,0.0012 -0.04,0.0012 -0.04,0.0012 v 0.0025 c -1.74,0.1446 -3.378,0.3514 -4.835,1.0112 -1.975,0.911 -3.018,2.5367 -3.018,4.7071 z m -81.28,2.0558 c -3.24,0 -5.262,-2.469 -5.262,-6.7965 0,-4.555 2.022,-7.0598 5.262,-7.0598 3.468,0 5.337,2.3156 5.337,6.7937 0,4.6325 -1.905,7.0626 -5.337,7.0626 z m 5.333,-14.464 c -1.491,-2.08938 -3.582,-3.114 -6.29,-3.114 -4.917,0 -8.594,4.1001 -8.594,10.7438 0,6.4537 3.593,10.5553 8.622,10.5553 2.633,0 4.521,-1.0274 6.262,-3.2677 v 2.9804 h 3.976 V 1.0449 h -3.976 z m -43.993,5.5793 -2.553,-0.5688 c -2.176,-0.4934 -3.358,-1.0999 -3.358,-2.543 0,-1.216 1.145,-2.0637 3.394,-2.0637 2.631,0 4.119,1.1633 4.231,3.1423 h 4.158 c 0,-3.9592 -3.129,-6.55689 -8.236,-6.55689 -4.956,0 -7.853,2.45489 -7.853,6.17659 0,3.265 2.059,4.6811 6.253,5.7058 l 3.012,0.7441 c 1.981,0.4957 3.125,0.9823 3.125,2.4229 0,1.5577 -1.449,2.7404 -4.042,2.7404 -2.972,0 -4.536,-1.0883 -4.729,-3.5633 h -4.191 c 0,4.4537 3.049,7.0529 8.538,7.0529 5.57,0 8.694,-2.5845 8.694,-6.725 0,-3.6813 -2.172,-4.9754 -6.443,-5.9643 z m 62.83,4.4411 c 0,2.848 -2.384,4.7467 -5.436,4.7467 -2.097,0 -3.249,-1.0642 -3.249,-2.8853 0,-1.6324 0.91,-2.6175 2.893,-2.9989 1.981,-0.3818 4.053,-0.4543 5.792,-1.3679 z M 512.364,7.4973 c -5.187,0 -8.154,2.5424 -8.154,6.454 v 0.4552 h 3.977 v -0.267 c 0,-2.0088 1.38,-3.1486 4.011,-3.1486 2.784,0 4.104,0.8719 4.104,2.8079 0,1.8616 -0.924,1.8983 -4.467,2.3561 -5.376,0.6795 -8.544,1.9714 -8.544,6.7181 0,3.6433 2.363,5.9234 6.479,5.9234 2.629,0 5.033,-1.1799 6.674,-3.3035 0.036,2.0511 1.209,3.0353 3.802,3.0353 0.053,0 0.116,-0.0044 0.116,-0.0044 V 13.4204 c 0,-3.91087 -2.662,-5.9231 -7.998,-5.9231 z m 32.888,19.1514 c -0.495,0.1559 -1.36,0.3256 -1.937,0.3256 -1.435,0 -1.54,-0.9004 -1.54,-2.2717 V 10.6932 h 3.477 V 9.21055 h -3.477 V 1.78781 h -1.987 V 24.7026 c 0,2.8063 0.672,3.7538 2.883,3.7538 0.779,0 1.588,-0.128 2.581,-0.3721 z m -13.575,-8.8455 c -0.355,-0.0869 -0.695,-0.1616 -1.023,-0.2403 -3.406,-0.7928 -5.463,-1.2659 -5.463,-4.0007 0,-2.0953 1.779,-3.4337 4.537,-3.4337 3.12,0 5.018,1.5548 5.238,4.278 h 1.976 c -0.328,-3.7133 -2.933,-5.90967 -7.177,-5.90967 -3.919,0 -6.553,2.15187 -6.553,5.38607 0,3.1927 2.129,4.2503 6.895,5.3989 l 0.107,0.0386 c 3.411,0.8106 5.291,1.2828 5.291,3.791 0,2.3464 -2.123,3.9097 -5.4,3.9097 -2.934,0 -5.187,-1.9778 -5.321,-4.4518 h -1.977 c 0.194,3.7114 3.084,6.0797 7.41,6.0797 4.344,0 7.265,-2.2284 7.265,-5.478 0,-2.8806 -1.522,-4.3219 -5.805,-5.3678 z"
       fill="#000000"
       id="path90" />
    <path
       d="m 620.938,10.6652 c 0.402,0 0.799,-0.0138 0.799,-0.464 0,-0.3686 -0.31,-0.4555 -0.633,-0.4555 h -0.6 v 0.9195 z m -0.434,1.4529 h -0.326 V 9.46837 h 1.022 c 0.6,0 0.864,0.25851 0.864,0.73283 0,0.4694 -0.307,0.6783 -0.668,0.7407 l 0.793,1.1762 h -0.384 l -0.749,-1.1762 h -0.552 z m -1.436,-1.3252 c 0,1.0981 0.831,1.9671 1.944,1.9671 1.115,0 1.945,-0.869 1.945,-1.9671 0,-1.09614 -0.83,-1.96422 -1.945,-1.96422 -1.113,0 -1.944,0.86808 -1.944,1.96422 z m 4.248,0 c 0,1.2897 -1.002,2.293 -2.304,2.293 -1.3,0 -2.304,-1.0033 -2.304,-2.293 0,-1.28814 1.004,-2.29269 2.304,-2.29269 1.302,0 2.304,1.00455 2.304,2.29269 z"
       fill="#000000"
       id="path92" />
  </g>
  <defs
     id="defs108">
    <clipPath
       id="clip0">
      <rect
         width="113.328"
         height="28"
         fill="white"
         transform="translate(161.482 1)"
         id="rect96" />
    </clipPath>
    <clipPath
       id="clip1">
      <rect
         width="112.482"
         height="28"
         fill="white"
         transform="translate(0 1)"
         id="rect99" />
    </clipPath>
    <clipPath
       id="clip2">
      <rect
         width="69.5492"
         height="28"
         fill="white"
         transform="translate(323.811 1)"
         id="rect102" />
    </clipPath>
    <clipPath
       id="clip3">
      <rect
         width="181.011"
         height="28"
         fill="white"
         transform="translate(442.359 1)"
         id="rect105" />
    </clipPath>
  </defs>
</svg>
