<svg xmlns="http://www.w3.org/2000/svg" width="360" height="44" viewBox="0 0 180 22" preserveAspectRatio="xMinYMin meet">
        <path fill="#232323" fill-rule="evenodd" d="M12.55 14.01L9.67 7.48h-.09l-2.82 6.53h5.79zM.104 20.336L9.064.353c.086-.178.23-.327.49-.327h.29c.286 0 .4.15.487.327l8.88 19.982c.18.385-.05.772-.49.772h-2.51c-.43 0-.63-.18-.83-.594l-1.41-3.207H5.35l-1.41 3.207c-.117.297-.376.594-.837.594H.597c-.432 0-.663-.387-.49-.772zM29.832.472c.03-.238.202-.446.52-.446h.46c.23 0 .403.12.49.297l6.337 14.014h.08L44.06.323c.087-.178.23-.297.49-.297h.46c.318 0 .49.208.52.446l3.398 19.952c.088.415-.143.682-.517.682h-2.62c-.26 0-.49-.237-.55-.445L43.55 9.41h-.087l-5.04 11.67c-.06.177-.23.325-.49.325h-.52c-.26 0-.402-.148-.49-.326l-5.1-11.67h-.084l-1.67 11.25c-.03.21-.26.44-.52.44h-2.6c-.38 0-.61-.27-.55-.69L29.83.47zm36.6 17.072c3.63 0 6.626-3.058 6.626-6.8 0-3.74-2.996-6.858-6.625-6.858-3.63 0-6.597 3.118-6.597 6.86 0 3.74 2.967 6.798 6.597 6.798m0-17.518c5.76 0 10.37 4.78 10.37 10.72 0 5.937-4.61 10.657-10.37 10.657-5.76 0-10.342-4.72-10.342-10.658S60.68.025 66.44.025m27.26 9.77c1.527 0 2.852-1.366 2.852-3.03 0-1.573-1.325-2.88-2.852-2.88h-4.695v5.91H93.7zM85.23.887c0-.297.232-.564.548-.564h8.24c3.455 0 6.278 2.85 6.278 6.384 0 2.73-1.757 4.958-4.263 5.997l3.947 7.542c.2.385 0 .86-.49.86h-3.025c-.26 0-.403-.148-.46-.267l-3.832-7.87h-3.197v7.57c0 .29-.26.56-.547.56h-2.66c-.32 0-.55-.27-.55-.57V.88zm24.773 0c0-.297.23-.564.548-.564h11.73c.32 0 .55.267.55.564v2.435c0 .297-.23.564-.54.564h-8.52v4.87h7.116c.29 0 .548.267.548.563v2.46c0 .32-.26.56-.543.56h-7.117v5.19h8.526c.313 0 .544.26.544.56v2.43c0 .296-.23.564-.545.564h-11.73c-.32 0-.55-.268-.55-.564V.89zm22.353 0c0-.297.23-.564.547-.564h2.65c.29 0 .548.267.548.564v16.657h7.35c.32 0 .55.267.55.564v2.435c0 .296-.23.564-.54.564h-10.55c-.31 0-.54-.268-.54-.564V.887zm20.307 0c0-.297.26-.564.548-.564h2.68c.29 0 .55.267.55.564v19.656c0 .296-.26.564-.54.564h-2.68c-.28 0-.54-.268-.54-.564V.887zm14.432 0c0-.297.23-.564.547-.564h11.724c.317 0 .547.267.547.564v2.435c0 .297-.23.564-.547.564h-8.526v4.87h7.115c.287 0 .547.267.547.563v2.46c0 .32-.26.56-.547.56h-7.115v5.19h8.526c.317 0 .547.26.547.56v2.43c0 .296-.23.564-.547.564h-11.724c-.317 0-.547-.268-.547-.564V.89z"></path>
      </svg>