<svg version="1.1" id="Ebene_1" xmlns="http://www.w3.org/2000/svg" xmlns:xlink="http://www.w3.org/1999/xlink" x="0px" y="0px"
	 width="208.4" height="50" viewBox="0 0 208.4 50" style="enable-background:new 0 0 208.4 50;" xml:space="preserve">
<style type="text/css">
	.st0{display:none;}
	.st1{fill:#FFFFFF;}
</style>
<g id="Claim" class="st0">
</g>
<g id="CHECK24_Kopie_Kopie">
	<g>
		<path class="st1" d="M28.7,31.3L28.7,31.3c-2.8,0-5.8-0.1-7.7-0.9c-1-0.4-1.7-1-2.2-1.8c-0.5-0.9-0.8-2-0.8-3.5
			c0-1.1,0.2-2.4,0.5-3.9c0.1-0.3,1.7-8.1,1.9-8.6c0.4-1.6,1-3,1.7-4.1c1.2-1.9,2.8-3.2,5.1-3.9C29.1,4,31.5,3.7,35,3.7l0,0
			c1.8,0,3.3,0.1,4.6,0.4c1.5,0.3,2.6,0.8,3.4,1.5c0.6,0.5,0.9,1.2,1.1,1.9c0.1,0.4,0.1,0.8,0.1,1.2c0,1-0.2,2.1-0.4,3
			c0,0.1,0,0.3-0.1,0.4l0,0h-6.8l0,0c0,0,0-0.2,0-0.3c0,0,0-0.3,0-0.7c0-0.6-0.3-1-0.8-1.4c-0.4-0.3-1-0.3-1.6-0.4
			c-0.6-0.1-1.2-0.1-1.9-0.1c-1.1,0-2,0.1-2.7,0.3c-0.6,0.2-1,0.4-1.4,0.7c-0.6,0.4-1,1-1.3,1.9c-0.3,0.8-0.5,1.7-0.8,2.8l-0.9,4.4
			c-0.3,1.4-0.5,2.5-0.5,3.4c0,0.5,0.1,0.9,0.2,1.3c0.2,0.6,0.8,1,1.4,1.3c0.7,0.2,1.5,0.4,2.7,0.4c0.8,0,1.5,0,2.1-0.1
			c1.1-0.1,1.8-0.4,2.4-1c0.6-0.6,1-1.5,1.3-2.8l0.1-0.4H42l0,0c0,0.1-0.4,1.8-0.6,2.5c-0.2,0.7-0.4,1.4-0.7,1.9
			c-0.7,1.4-1.6,2.5-2.9,3.4c-1.3,0.9-2.6,1.4-4.2,1.7c-1.4,0.2-2.8,0.3-4.4,0.3l0,0C29.3,31.3,28.7,31.3,28.7,31.3z"/>
	</g>
	<g>
		<path class="st1" d="M103.7,31.3L103.7,31.3c-2.8,0-5.8-0.1-7.7-0.9c-1-0.4-1.7-1-2.2-1.8c-0.5-0.9-0.8-2-0.8-3.5
			c0-1.1,0.2-2.4,0.5-3.9c0.1-0.3,1.7-8.1,1.9-8.6c0.4-1.6,1-3,1.7-4.1c1.2-1.9,2.8-3.2,5.1-3.9c1.9-0.6,4.3-0.9,7.8-0.9l0,0
			c1.8,0,3.3,0.1,4.6,0.4c1.5,0.3,2.6,0.8,3.4,1.5c0.6,0.5,0.9,1.2,1.1,1.9c0.1,0.4,0.1,0.8,0.1,1.2c0,1-0.2,2.1-0.4,3
			c0,0.1,0,0.3-0.1,0.4l0,0h-6.8l0,0c0,0,0-0.2,0-0.3c0,0,0-0.3,0-0.7c0-0.6-0.3-1-0.8-1.4c-0.4-0.3-1-0.3-1.6-0.4
			c-0.6-0.1-1.2-0.1-1.9-0.1c-1.1,0-2,0.1-2.7,0.3c-0.6,0.2-1,0.4-1.4,0.7c-0.6,0.4-1,1-1.3,1.9c-0.3,0.8-0.5,1.7-0.8,2.8l-0.9,4.4
			c-0.3,1.4-0.5,2.5-0.5,3.4c0,0.5,0.1,0.9,0.2,1.3c0.2,0.6,0.8,1,1.4,1.3c0.7,0.2,1.5,0.4,2.7,0.4c0.8,0,1.5,0,2.1-0.1
			c1.1-0.1,1.8-0.4,2.4-1s1-1.5,1.3-2.8l0.1-0.4h6.7l0,0c0,0.1-0.4,1.8-0.6,2.5s-0.4,1.4-0.7,1.9c-0.7,1.4-1.6,2.5-2.9,3.4
			s-2.6,1.4-4.2,1.7c-1.4,0.2-2.8,0.3-4.4,0.3l0,0C104.3,31.3,103.7,31.3,103.7,31.3z"/>
	</g>
	<g>
		<path class="st1" d="M89.1,31.1H69.7V31l5.4-25.6c0.1-0.5,0.3-0.8,0.6-1c0.3-0.2,0.7-0.3,1.2-0.3h16.4c0.4,0,0.7,0.1,0.9,0.3
			c0.1,0.1,0.2,0.3,0.2,0.6l0,0c0,0.1,0,0.2,0,0.3l-0.8,4H80.9l-1.1,5.3h11.9l-1.1,5h-12L77.2,26h13L89.1,31.1z"/>
	</g>
	<g>
		<path class="st1" d="M124,31.1h-6.5V31L123,5.5c0.1-0.6,0.3-0.9,0.6-1.2c0.2-0.2,0.5-0.3,0.9-0.3h3.8c0.4,0,0.7,0.1,0.9,0.3
			c0.2,0.1,0.2,0.4,0.2,0.6c0,0.1,0,0.2,0,0.2L124,31.1z"/>
	</g>
	<g>
		<path class="st1" d="M141.9,31.1h-8.2l0,0l-6.1-14l0,0l10.5-11.4c0.6-0.7,1-1.1,1.4-1.3c0.4-0.2,0.7-0.3,1.2-0.3h5.3
			c0.2,0,0.4,0.1,0.5,0.2c0.1,0,0.1,0.1,0.1,0.1v0.1l0,0v0.1c0,0.1-0.1,0.3-0.3,0.5L135,17.3L141.9,31.1z"/>
	</g>
	<g>
		<path class="st1" d="M59.8,31.1L59.8,31.1L59.8,31.1l2.3-11H51.4l-2.3,11h-6.5V31C42.8,30,48,5.7,48,5.5c0.2-0.8,0.5-1.1,0.8-1.2
			C49,4.2,49.4,4.1,50,4.1h3.5c0.2,0,0.5,0.1,0.7,0.2c0.1,0.1,0.2,0.2,0.3,0.3c0.1,0.1,0.1,0.3,0.1,0.4s0,0.2,0,0.2
			c0,0.2-1.8,8.5-2,9.3h10.7c0.9-4.1,1.9-9,1.9-9.1c0.2-0.8,0.5-1.1,0.8-1.2C66.3,4,66.7,4,67.2,4h3.5c0.2,0,0.5,0.1,0.7,0.2
			c0.1,0.1,0.2,0.2,0.3,0.3c0.1,0.1,0.1,0.3,0.1,0.4s0,0.2,0,0.2c0,0.2-5.3,24.7-5.5,25.8l0,0L59.8,31.1z"/>
	</g>
	<g>
		<path class="st1" d="M161.1,9.4c0.5,0.1,0.9,0.4,1.1,0.8l0,0c0.1,0.3,0.2,0.6,0.2,1l0,0c0,0.4-0.1,0.9-0.2,1.4l0,0
			c-0.2,0.7-0.3,1.3-0.5,1.8l0,0c-0.2,0.5-0.5,0.9-1,1.3l0,0c-0.9,0.7-2.3,1.1-4.7,1.7l0,0c-3.3,0.7-5.5,1.3-7.1,2.1l0,0
			c-1.6,0.8-2.5,1.7-3.2,3.2l0,0c-0.5,1-0.8,2.2-1.1,3.8l0,0l-0.9,4.7h21.1l1-4.7H151c0,0,0.2-1.1,0.4-1.6l0,0
			c0.2-0.5,0.6-0.9,1-1.2l0,0c0.4-0.3,0.9-0.5,1.5-0.7l0,0c1.2-0.3,2.9-0.6,5.3-1.2l0,0c3-0.8,5-1.6,6.5-3l0,0
			c1.4-1.4,2.3-3.3,3-6.4l0,0c0.2-1.1,0.4-2.2,0.4-3.1l0,0c0-1.2-0.2-2.1-0.6-2.8l0,0c-0.4-0.7-1-1.2-1.8-1.6l0,0
			c-1.6-0.8-3.9-0.9-6.6-0.9l0,0c-3.5,0-6.2,0.4-8.2,1.6l0,0c-2,1.2-3.4,3.5-4.2,7.2l0,0l-0.2,1h6.4l0.2-1.1
			c0.2-1.1,0.5-1.9,0.9-2.4l0,0c0.4-0.5,1-0.8,1.8-0.9l0,0c0.6-0.1,1.2-0.1,2-0.1l0,0c0.1,0,0.3,0,0.4,0l0,0
			C159.9,9.2,160.6,9.2,161.1,9.4L161.1,9.4z"/>
	</g>
	<g>
		<path class="st1" d="M178.7,6.8c-0.7,0.8-7,7.3-9.6,10c-0.5,0.5-1.1,1.2-1.3,1.7c-0.2,0.4-0.5,1.4-0.6,2.1
			c-0.3,1.5-0.5,2.9-0.6,3.5c0,0.1,0,0.3,0,0.4c0,0.5,0.2,0.8,0.5,1s0.6,0.3,1,0.3c0.3,0,12.4,0,12.4,0l-1.1,5.4l6.5-0.6l1-4.8h2.3
			l1-4.8h-2.3c0,0,2.3-10.9,2.4-11.3c0.8-4.4-1-5.7-5.2-5.7C184.1,3.9,181.7,3.7,178.7,6.8z M181.5,20.9h-9.4l11.1-11.6h0.7
			L181.5,20.9z"/>
	</g>
	<g>
		<path class="st1" d="M164.1,46.1L164.1,46.1c-4.2,0-8.3-1.1-11.7-3.3c-3.4-2.1-5.4-4.6-6.3-5.9l-1.2,3.2c-0.1,0.3-0.4,0.5-0.7,0.4
			s-0.6-0.3-0.6-0.7l-0.1-6.2l0,0c0-0.2,0.1-0.3,0.2-0.5c0.1-0.1,0.3-0.2,0.5-0.2h6.3l0,0c0.3,0,0.6,0.2,0.6,0.5v0.1
			c0,0.3-0.2,0.5-0.4,0.6l-3.1,1.2c2.7,2.4,8.3,6.3,16.1,6.3c0.7,0,1.3,0,2-0.1c3.3-0.3,6.6-1.1,9.6-2.3c2.6-1.1,5-2.5,6.7-4.1
			l-3.2-0.9c-0.3-0.1-0.5-0.3-0.5-0.6c0,0,0,0,0-0.1c0-0.3,0.3-0.6,0.6-0.6l6.2-0.6h0.1c0.2,0,0.3,0.1,0.4,0.2
			c0.1,0.1,0.2,0.3,0.2,0.5c0.5,6.1,0.5,6.1,0.5,6.1c0,0.3-0.2,0.6-0.5,0.6c-0.1,0-0.1,0-0.2,0c-0.3,0-0.5-0.1-0.6-0.4l-1.5-2.9
			c-1.2,1.6-3.3,3.9-6.5,5.9c-3.3,2-7,3.2-11,3.5h-0.4l0,0C165.2,46.1,164.7,46.1,164.1,46.1z"/>
	</g>
</g>
</svg>
