<svg width="167" height="62" viewBox="0 0 167 62" fill="none" xmlns="http://www.w3.org/2000/svg">
<path fill-rule="evenodd" clip-rule="evenodd" d="M69.2214 58.7813C69.2214 57.4812 67.2771 57.8263 67.2771 56.8712C67.2771 56.4461 67.6001 56.1627 68.2089 56.1627C68.4511 56.1627 68.7307 56.2058 68.9667 56.2735L68.9915 55.8484C68.7431 55.7991 68.5008 55.7683 68.2399 55.7683C67.3206 55.7683 66.7864 56.2612 66.7864 56.9205C66.7864 58.2329 68.7307 57.8571 68.7307 58.8429C68.7307 59.4097 68.2772 59.6254 67.7368 59.6254C67.4448 59.6254 67.1218 59.5576 66.8796 59.4714L66.8547 59.9335C67.0846 59.9961 67.3827 60.0392 67.6933 60.0392C68.6437 60.0392 69.2214 59.5145 69.2214 58.7813ZM71.978 58.35C71.978 59.2742 71.5618 59.6562 70.922 59.6562C70.6921 59.6562 70.4996 59.6316 70.3195 59.5761V58.504C70.3195 57.9618 70.6176 57.247 71.2388 57.247C71.7482 57.247 71.978 57.6599 71.978 58.35ZM72.4687 58.313C72.4687 57.3641 72.0588 56.865 71.332 56.865C70.8413 56.865 70.4499 57.1485 70.276 57.5921L70.2636 57.5859C70.3008 57.4073 70.3133 57.1053 70.3133 56.9205H69.8536V61.518H70.3195V59.9766C70.5245 60.0146 70.6798 60.0208 70.891 60.0208C71.8662 60.0208 72.4687 59.4097 72.4687 58.313ZM74.7519 58.5964C74.7519 59.1263 74.3917 59.6624 73.845 59.6624C73.5406 59.6624 73.3418 59.4837 73.3418 59.2064C73.3418 58.9106 73.5904 58.5471 74.7519 58.5471V58.5964ZM75.2365 59.9827C75.224 59.7117 75.224 59.3666 75.224 59.0647V57.8632C75.224 57.2841 74.9817 56.865 74.1308 56.865C73.7146 56.865 73.3543 56.9636 73.0623 57.093L73.1058 57.4997C73.3792 57.3272 73.7518 57.2348 74.05 57.2348C74.5842 57.2348 74.7519 57.4935 74.7519 57.9556V58.2083C73.5468 58.2083 72.876 58.6519 72.876 59.2927C72.876 59.7795 73.23 60.0392 73.7208 60.0392C74.2487 60.0392 74.6463 59.724 74.7954 59.3358H74.8079C74.7768 59.5145 74.7768 59.7486 74.7768 59.9827H75.2365ZM77.6662 56.865C77.0201 56.7911 76.6971 57.247 76.5729 57.6968L76.5667 57.6907C76.6101 57.4258 76.635 57.1238 76.635 56.9205H76.1753V59.9827H76.6412V58.7567C76.6412 57.7276 76.9643 57.2101 77.6475 57.321L77.6662 56.865ZM80.4724 59.9827L79.1493 58.313L80.3792 56.9205H79.814L78.6523 58.2945V55.4849H78.1864V59.9827H78.6523V58.3746L79.8699 59.9827H80.4724ZM82.7313 58.5964C82.7313 59.1263 82.3711 59.6624 81.8244 59.6624C81.5201 59.6624 81.3213 59.4837 81.3213 59.2064C81.3213 58.9106 81.5698 58.5471 82.7313 58.5471V58.5964ZM83.2159 59.9827C83.2034 59.7117 83.2034 59.3666 83.2034 59.0647V57.8632C83.2034 57.2841 82.9612 56.865 82.1102 56.865C81.694 56.865 81.3337 56.9636 81.0417 57.093L81.0852 57.4997C81.3586 57.3272 81.7313 57.2348 82.0294 57.2348C82.5637 57.2348 82.7313 57.4935 82.7313 57.9556V58.2083C81.5263 58.2083 80.8554 58.6519 80.8554 59.2927C80.8554 59.7795 81.2095 60.0392 81.7002 60.0392C82.2282 60.0392 82.6257 59.724 82.7749 59.3358H82.7873C82.7562 59.5145 82.7562 59.7486 82.7562 59.9827H83.2159ZM85.852 59.0709C85.852 58.0296 84.3426 58.4486 84.3426 57.7153C84.3426 57.4134 84.5661 57.2286 85.0196 57.2286C85.2309 57.2286 85.4544 57.2655 85.6594 57.3333L85.6719 56.9328C85.4793 56.8959 85.2619 56.865 85.0693 56.865C84.2866 56.865 83.8642 57.2532 83.8642 57.7646C83.8642 58.8552 85.3675 58.3931 85.3675 59.1325C85.3675 59.4529 85.0569 59.65 84.6097 59.65C84.3674 59.65 84.1189 59.6069 83.9201 59.5515L83.9077 59.9766C84.094 60.0146 84.3301 60.0392 84.56 60.0392C85.3675 60.0392 85.852 59.6131 85.852 59.0709ZM88.3226 59.0709C88.3226 58.0296 86.8131 58.4486 86.8131 57.7153C86.8131 57.4134 87.0367 57.2286 87.4902 57.2286C87.7014 57.2286 87.925 57.2655 88.13 57.3333L88.1424 56.9328C87.9499 56.8959 87.7324 56.865 87.5399 56.865C86.7572 56.865 86.3348 57.2532 86.3348 57.7646C86.3348 58.8552 87.838 58.3931 87.838 59.1325C87.838 59.4529 87.5275 59.65 87.0802 59.65C86.838 59.65 86.5895 59.6069 86.3907 59.5515L86.3783 59.9766C86.5646 60.0146 86.8007 60.0392 87.0305 60.0392C87.838 60.0392 88.3226 59.6131 88.3226 59.0709ZM90.818 58.0111H89.2526C89.3271 57.5305 89.6377 57.2163 90.0725 57.2163C90.5446 57.2163 90.8303 57.5366 90.818 58.0111ZM91.3024 58.1281C91.3024 57.4504 90.9484 56.865 90.0973 56.865C89.2401 56.865 88.7432 57.549 88.7432 58.467C88.7432 59.5392 89.2401 60.0392 90.1719 60.0392C90.5571 60.0392 90.9049 59.9705 91.1906 59.8534L91.1471 59.459C90.9173 59.5761 90.5757 59.6562 90.2526 59.6562C89.5632 59.6562 89.1967 59.2742 89.2277 58.3561H91.29C91.3024 58.2637 91.3024 58.1836 91.3024 58.1281ZM94.4375 59.9827V57.8447C94.4375 57.3025 94.2201 56.8589 93.512 56.8589C92.9715 56.8589 92.5802 57.1608 92.4063 57.6044L92.3939 57.5983C92.4249 57.4134 92.4436 57.1177 92.4436 56.9205H91.9838V59.9827H92.4497V58.5101C92.4497 57.7831 92.8411 57.2409 93.3939 57.2409C93.8412 57.2409 93.9716 57.5182 93.9716 57.9988V59.9827H94.4375ZM23.1449 58.7689C23.1449 59.2557 22.8219 59.6192 22.0827 59.6192C21.8094 59.6192 21.623 59.6007 21.5112 59.5823V58.0173C21.6106 58.0111 21.8405 58.0111 21.915 58.0111C22.6045 58.0111 23.1449 58.1836 23.1449 58.7689ZM23.0456 56.8712C23.0456 57.3641 22.6542 57.6537 21.9088 57.6537C21.7473 57.6537 21.6417 57.6537 21.5112 57.6476V56.1996C21.6914 56.1935 21.9088 56.1873 22.1137 56.1873C22.853 56.1873 23.0456 56.4769 23.0456 56.8712ZM23.6419 58.7567C23.6419 58.313 23.3748 57.8817 22.7536 57.7893V57.777C23.2257 57.6414 23.5425 57.247 23.5425 56.7911C23.5425 56.1873 23.1139 55.8053 22.2007 55.8053C21.6975 55.8053 21.3187 55.8176 21.0329 55.8237V59.9827C21.3932 59.9899 21.7908 60.0023 22.0454 60.0023C23.3685 60.0023 23.6419 59.2064 23.6419 58.7567ZM25.9752 58.5964C25.9752 59.1263 25.615 59.6624 25.0683 59.6624C24.764 59.6624 24.5652 59.4837 24.5652 59.2064C24.5652 58.9106 24.8137 58.5471 25.9752 58.5471V58.5964ZM26.4598 59.9827C26.4473 59.7117 26.4473 59.3666 26.4473 59.0647V57.8632C26.4473 57.2841 26.2051 56.865 25.3541 56.865C24.9379 56.865 24.5776 56.9636 24.2856 57.093L24.3291 57.4997C24.6025 57.3272 24.9752 57.2348 25.2733 57.2348C25.8076 57.2348 25.9752 57.4935 25.9752 57.9556V58.2083C24.7702 58.2083 24.0993 58.6519 24.0993 59.2927C24.0993 59.7795 24.4534 60.0392 24.9441 60.0392C25.4721 60.0392 25.8696 59.724 26.0188 59.3358H26.0312C26.0001 59.5145 26.0001 59.7486 26.0001 59.9827H26.4598ZM29.7335 59.9827V56.9205H29.2676V58.3931C29.2676 59.1202 28.8762 59.6624 28.3234 59.6624C27.8762 59.6624 27.7457 59.3851 27.7457 58.9045V56.9205H27.2798V59.0585C27.2798 59.6007 27.4972 60.0454 28.2053 60.0454C28.7458 60.0454 29.1371 59.7425 29.3111 59.2988L29.3235 59.305C29.2924 59.4899 29.2738 59.7856 29.2738 59.9827H29.7335ZM32.4283 59.0709C32.4283 58.0296 30.9188 58.4486 30.9188 57.7153C30.9188 57.4134 31.1424 57.2286 31.5959 57.2286C31.8071 57.2286 32.0307 57.2655 32.2357 57.3333L32.2482 56.9328C32.0556 56.8959 31.8381 56.865 31.6456 56.865C30.8629 56.865 30.4405 57.2532 30.4405 57.7646C30.4405 58.8552 31.9437 58.3931 31.9437 59.1325C31.9437 59.4529 31.6332 59.65 31.1859 59.65C30.9437 59.65 30.6952 59.6069 30.4964 59.5515L30.484 59.9766C30.6703 60.0146 30.9064 60.0392 31.1362 60.0392C31.9437 60.0392 32.4283 59.6131 32.4283 59.0709ZM35.2654 58.35C35.2654 59.2742 34.8492 59.6562 34.2094 59.6562C33.9795 59.6562 33.787 59.6316 33.6069 59.5761V58.504C33.6069 57.9618 33.905 57.247 34.5262 57.247C35.0356 57.247 35.2654 57.6599 35.2654 58.35ZM35.7561 58.313C35.7561 57.3641 35.3462 56.865 34.6194 56.865C34.1287 56.865 33.7374 57.1485 33.5634 57.5921L33.551 57.5859C33.5882 57.4073 33.6007 57.1053 33.6007 56.9205H33.141V61.518H33.6069V59.9766C33.8119 60.0146 33.9672 60.0208 34.1784 60.0208C35.1536 60.0208 35.7561 59.4097 35.7561 58.313ZM38.052 58.5964C38.052 59.1263 37.6917 59.6624 37.1451 59.6624C36.8407 59.6624 36.6419 59.4837 36.6419 59.2064C36.6419 58.9106 36.8904 58.5471 38.052 58.5471V58.5964ZM38.5365 59.9827C38.5241 59.7117 38.5241 59.3666 38.5241 59.0647V57.8632C38.5241 57.2841 38.2818 56.865 37.4308 56.865C37.0146 56.865 36.6543 56.9636 36.3624 57.093L36.4059 57.4997C36.6792 57.3272 37.0519 57.2348 37.3501 57.2348C37.8843 57.2348 38.052 57.4935 38.052 57.9556V58.2083C36.8469 58.2083 36.176 58.6519 36.176 59.2927C36.176 59.7795 36.5301 60.0392 37.0208 60.0392C37.5488 60.0392 37.9464 59.724 38.0955 59.3358H38.1079C38.0769 59.5145 38.0769 59.7486 38.0769 59.9827H38.5365ZM40.8298 56.865C40.1838 56.7911 39.8607 57.247 39.7365 57.6968L39.7303 57.6907C39.7738 57.4258 39.7987 57.1238 39.7987 56.9205H39.339V59.9827H39.8049V58.7567C39.8049 57.7276 40.1279 57.2101 40.8112 57.321L40.8298 56.865ZM43.6892 59.9827L42.3662 58.313L43.5961 56.9205H43.0308L41.8692 58.2945V55.4849H41.4033V59.9827H41.8692V58.3746L43.0867 59.9827H43.6892ZM45.8909 58.5964C45.8909 59.1263 45.5306 59.6624 44.9839 59.6624C44.6796 59.6624 44.4808 59.4837 44.4808 59.2064C44.4808 58.9106 44.7293 58.5471 45.8909 58.5471V58.5964ZM46.3754 59.9827C46.363 59.7117 46.363 59.3666 46.363 59.0647V57.8632C46.363 57.2841 46.1207 56.865 45.2697 56.865C44.8535 56.865 44.4932 56.9636 44.2013 57.093L44.2448 57.4997C44.5181 57.3272 44.8908 57.2348 45.1889 57.2348C45.7232 57.2348 45.8909 57.4935 45.8909 57.9556V58.2083C44.6858 58.2083 44.0149 58.6519 44.0149 59.2927C44.0149 59.7795 44.369 60.0392 44.8597 60.0392C45.3877 60.0392 45.7853 59.724 45.9344 59.3358H45.9468C45.9157 59.5145 45.9157 59.7486 45.9157 59.9827H46.3754ZM49.0762 59.0709C49.0762 58.0296 47.5668 58.4486 47.5668 57.7153C47.5668 57.4134 47.7903 57.2286 48.2438 57.2286C48.4551 57.2286 48.6786 57.2655 48.8836 57.3333L48.8961 56.9328C48.7035 56.8959 48.4861 56.865 48.2935 56.865C47.5108 56.865 47.0884 57.2532 47.0884 57.7646C47.0884 58.8552 48.5917 58.3931 48.5917 59.1325C48.5917 59.4529 48.2811 59.65 47.8339 59.65C47.5916 59.65 47.3431 59.6069 47.1443 59.5515L47.1319 59.9766C47.3182 60.0146 47.5543 60.0392 47.7841 60.0392C48.5917 60.0392 49.0762 59.6131 49.0762 59.0709ZM51.4849 59.0709C51.4849 58.0296 49.9755 58.4486 49.9755 57.7153C49.9755 57.4134 50.199 57.2286 50.6525 57.2286C50.8637 57.2286 51.0873 57.2655 51.2923 57.3333L51.3048 56.9328C51.1122 56.8959 50.8948 56.865 50.7022 56.865C49.9195 56.865 49.4971 57.2532 49.4971 57.7646C49.4971 58.8552 51.0004 58.3931 51.0004 59.1325C51.0004 59.4529 50.6898 59.65 50.2425 59.65C50.0003 59.65 49.7518 59.6069 49.553 59.5515L49.5406 59.9766C49.7269 60.0146 49.963 60.0392 50.1928 60.0392C51.0004 60.0392 51.4849 59.6131 51.4849 59.0709ZM54.0395 58.0111H52.4741C52.5486 57.5305 52.8592 57.2163 53.2941 57.2163C53.7662 57.2163 54.0519 57.5366 54.0395 58.0111ZM54.524 58.1281C54.524 57.4504 54.1699 56.865 53.3189 56.865C52.4617 56.865 51.9648 57.549 51.9648 58.467C51.9648 59.5392 52.4617 60.0392 53.3935 60.0392C53.7786 60.0392 54.1265 59.9705 54.4122 59.8534L54.3687 59.459C54.1388 59.5761 53.7972 59.6562 53.4742 59.6562C52.7847 59.6562 52.4182 59.2742 52.4492 58.3561H54.5116C54.524 58.2637 54.524 58.1836 54.524 58.1281ZM58.857 58.3993C58.857 58.9415 58.5527 59.6562 57.9377 59.6562C57.4283 59.6562 57.1923 59.2434 57.1923 58.5533C57.1923 57.629 57.6147 57.247 58.2482 57.247C58.4471 57.247 58.6458 57.2717 58.857 57.321V58.3993ZM59.3167 59.9827V55.4849H58.857V56.9143C58.6458 56.8959 58.4657 56.8835 58.2855 56.8835C57.3227 56.8835 56.7016 57.4997 56.7016 58.5903C56.7016 59.4837 57.0742 60.0392 57.8383 60.0392C58.3352 60.0392 58.7266 59.7486 58.9005 59.3112L58.9129 59.3173C58.8756 59.5022 58.857 59.7979 58.857 59.9827H59.3167ZM62.0461 58.0111H60.4807C60.5552 57.5305 60.8658 57.2163 61.3006 57.2163C61.7727 57.2163 62.0584 57.5366 62.0461 58.0111ZM62.5305 58.1281C62.5305 57.4504 62.1765 56.865 61.3255 56.865C60.4682 56.865 59.9713 57.549 59.9713 58.467C59.9713 59.5392 60.4682 60.0392 61.4 60.0392C61.7852 60.0392 62.133 59.9705 62.4187 59.8534L62.3752 59.459C62.1454 59.5761 61.8038 59.6562 61.4808 59.6562C60.7913 59.6562 60.4248 59.2742 60.4558 58.3561H62.5182C62.5305 58.2637 62.5305 58.1836 62.5305 58.1281ZM64.7018 56.865C64.0558 56.7911 63.7327 57.247 63.6085 57.6968L63.6023 57.6907C63.6458 57.4258 63.6707 57.1238 63.6707 56.9205H63.211V59.9827H63.6769V58.7567C63.6769 57.7276 63.9999 57.2101 64.6832 57.321L64.7018 56.865ZM166.554 5.85634C166.719 5.99896 166.791 6.13143 166.238 5.95831C165.44 5.70923 164.814 5.56092 164.306 5.4311C155.922 3.32814 146.517 3.77754 138.463 5.81456C133.075 7.17726 126.465 10.125 119.196 14.7309C113.463 18.3632 111.327 19.8351 106.342 23.899C85.3691 8.74166 71.0908 5.23766 54.1207 5.23766C31.3955 5.23766 11.9328 14.9597 0.710124 23.5814C0.332252 23.87 0.206295 23.7609 0.458209 23.4952C10.548 12.71 31.781 0.482025 58.1792 0.482025C78.3469 0.482025 96.2764 8.42856 106.342 16.1117C111.735 12.1741 119.017 8.13202 126.956 5.22076C134.622 2.40956 141.339 1.62376 146.462 1.62376C155.722 1.62376 161.115 2.99135 164.479 4.6461C165.041 4.92231 166.202 5.553 166.554 5.85634ZM21.0293 50.8419H41.4387V43.771H30.0245V21.9696H21.0293V50.8419ZM69.4576 42.3974L69.0559 42.4663C70.6258 48.7375 76.0569 51.2626 82.1671 51.2626C87.9378 51.2626 94.5643 48.7145 95.1141 42.399C95.1384 42.1216 95.1509 41.8341 95.1509 41.5402C95.1509 38.3839 93.6659 35.6901 90.8227 34.175C88.2769 32.8703 85.3495 32.4071 82.5913 31.8603C81.4884 31.6078 79.3668 31.3131 79.3668 29.798C79.3668 28.2829 81.0638 27.9461 82.2521 27.9461C84.5008 27.9461 86.1132 28.7036 86.962 30.8502L94.345 28.6193C92.5627 23.6107 87.6832 21.5485 82.6338 21.5485C79.7484 21.5485 76.6511 22.0956 74.2749 23.7372C71.9412 25.3787 70.5408 28.1564 70.5408 30.9763C70.5408 37.8367 77.0331 39.3097 82.5067 40.3619C83.7378 40.5982 85.7862 40.9083 86.0438 42.3963C86.0613 42.4972 86.0708 42.6055 86.0708 42.7188C86.0708 44.3182 83.7796 44.4864 82.6338 44.4864C80.5881 44.4864 78.943 43.9076 77.9649 42.3974C77.7058 41.997 77.4899 41.5311 77.3301 40.993L69.4576 42.3974ZM59.1206 42.3974C58.9757 42.98 58.6004 43.5027 58.1159 43.855C57.3947 44.4447 56.4188 44.4021 55.5276 44.4021H51.6665V42.3974V39.1836H55.1881C55.9943 39.1836 57.0126 39.1836 57.7764 39.5622C58.6251 39.9833 59.1767 40.8669 59.1767 41.8349C59.1767 42.026 59.1661 42.2142 59.1206 42.3974ZM51.6665 33.0385V28.1564H55.1456C56.843 28.1564 58.6251 28.4511 58.6251 30.5973C58.6251 31.2709 58.328 31.9863 57.7764 32.4914C57.1401 33.0807 56.1214 33.0385 55.2731 33.0385H51.6665ZM67.8 42.3974C67.7701 38.9819 65.4766 36.4861 62.147 35.9005V35.8162C65.117 35.143 67.069 32.5756 67.069 29.5455C67.069 27.1885 65.9232 24.8315 63.9712 23.4426C62.147 22.1378 59.8979 21.9696 57.6914 21.9696H43.4772V50.8419H56.8005C59.4313 50.8419 62.5712 50.7997 64.8199 49.2003C66.899 47.727 67.7996 44.879 67.7996 42.3955L67.8 42.3974Z" fill="black"/>
</svg>
