<svg width="194" height="24" viewBox="0 0 194 24" fill="none" xmlns="http://www.w3.org/2000/svg">
<g clip-path="url(#clip0)">
<path d="M173.807 22.6599V12.459C173.807 9.52752 176.416 7.55645 180.221 7.55645C183.493 7.55645 184.942 8.72842 184.942 11.4715V22.6599H186.797V11.3154C186.797 7.87831 184.655 6.20796 180.211 6.20796C177.278 6.20796 175.026 7.27016 173.655 9.28246L173.428 9.6123L173.314 9.25179C172.645 7.28871 170.611 6.20796 167.567 6.20796C166.631 6.20796 165.767 6.32418 164.983 6.54399C161.769 7.36448 160.817 9.22293 160.817 9.22293V6.80838H158.699V22.6599H160.817V12.5819C160.817 9.62518 163.37 7.55645 167.141 7.55645C170.212 7.55645 171.687 8.9369 171.687 11.6563V22.6599H173.807ZM129.673 7.46961C133.543 7.46961 136.072 9.74733 136.277 13.2826L122.872 13.2813C123.113 9.80016 125.785 7.46961 129.673 7.46961ZM136.045 17.7811C135.493 20.017 132.912 21.4037 129.635 21.4037C125.358 21.4037 122.546 18.7765 122.546 14.8354V14.7328H138.188V14.1234C138.188 9.05543 135.089 6.17137 129.615 6.17137C124.026 6.17137 120.729 9.29637 120.729 14.5009C120.729 19.6395 124.053 22.7454 129.619 22.7454C134.192 22.7454 137.489 20.8295 138.081 17.7811H136.045ZM114.542 13.5068C114.542 9.70739 116.775 7.82394 121.018 7.82394H121.169V6.4002H121.058C118.907 6.4002 117.26 6.82797 116.04 7.78064C115.183 8.34988 114.59 9.13145 114.276 9.61848V9.20438V6.80838H112.422V22.6599H114.542V13.5068ZM30.5719 19.9031C26.7897 19.9031 24.6737 17.9058 24.6737 14.1626C24.6737 10.422 26.7897 8.39626 30.5719 8.39626C34.3147 8.39626 36.4273 10.3913 36.4273 14.1626C36.4273 17.9058 34.3147 19.9031 30.5719 19.9031ZM30.5319 5.40114C23.9823 5.40114 20.0367 8.64339 20.0367 14.1626C20.0367 19.6838 24.024 22.8959 30.5719 22.8959C37.0804 22.8959 41.07 19.6527 41.07 14.1626C41.07 8.67534 37.0804 5.40114 30.5319 5.40114ZM143.015 15.919C143.227 15.7688 143.471 15.6283 143.736 15.4974C144.058 15.3557 145.823 14.646 148.716 14.496C150.87 14.3796 152.572 14.2149 153.856 13.834L154.108 13.7608L154.137 15.3657L154.13 15.3691C154.13 15.3691 154.132 15.3856 154.137 15.417L154.143 15.8383L154.154 16.1999C154.15 16.2115 154.15 16.2225 154.15 16.2321C154.148 16.2983 154.141 16.3589 154.137 16.422C154.107 16.8253 154.011 17.394 153.743 17.9988C153.111 19.3184 151.621 20.7337 148.212 21.1882C147.708 21.2444 147.179 21.2748 146.626 21.2748C143.663 21.2748 141.747 20.0358 141.747 18.1181C141.747 17.6079 141.896 17.1459 142.188 16.7279C142.213 16.6918 142.237 16.6555 142.264 16.6243C142.284 16.5985 142.308 16.573 142.328 16.5462C142.47 16.3777 142.633 16.2197 142.808 16.0752C142.835 16.0545 142.862 16.0334 142.889 16.0123C142.929 15.9811 142.973 15.9504 143.015 15.919V15.919ZM139.638 18.1508C139.638 20.9043 142.184 22.6166 146.285 22.6166C149.2 22.6166 151.763 21.7229 153.827 19.9593L154.191 19.6789V20.3018C154.191 21.4725 154.721 22.4767 156.045 22.6599V10.8325C156.045 7.77214 153.527 6.17524 148.684 6.17524C143.955 6.17524 140.861 8.2298 140.685 11.0762H142.679C142.906 8.83949 144.893 7.51522 148.752 7.51522C152.558 7.51522 154.112 8.54392 154.112 11.1121C154.112 12.5059 153.52 12.7883 151.853 13.0689C150.628 13.2697 148.849 13.399 148.235 13.44C148.175 13.4421 148.114 13.4459 148.058 13.4508C148.032 13.4519 148.015 13.4519 148.015 13.4519V13.4539C146.159 13.5727 144.411 13.7425 142.857 14.2845C140.75 15.0328 139.638 16.3681 139.638 18.1508V18.1508ZM52.9245 19.8395C49.468 19.8395 47.311 17.8115 47.311 14.2569C47.311 10.5155 49.468 8.45811 52.9245 8.45811C56.625 8.45811 58.6186 10.3601 58.6186 14.0384C58.6186 17.8434 56.5867 19.8395 52.9245 19.8395ZM58.6139 7.95897C57.024 6.24275 54.7927 5.40114 51.904 5.40114C46.6583 5.40114 42.7352 8.76888 42.7352 14.226C42.7352 19.5269 46.5692 22.8959 51.9336 22.8959C54.7426 22.8959 56.7574 22.052 58.6139 20.2118V22.6599H62.8566V0.101242H58.6139V7.95897ZM11.6811 12.5417L8.95742 12.0745C6.63608 11.6692 5.37557 11.1711 5.37557 9.98569C5.37557 8.98689 6.59608 8.29061 8.99608 8.29061C11.8025 8.29061 13.3897 9.24612 13.51 10.8716H17.9453C17.9453 7.61959 14.6072 5.48592 9.15876 5.48592C3.87137 5.48592 0.781287 7.50234 0.781287 10.5593C0.781287 13.2411 2.97793 14.4043 7.45255 15.2459L10.665 15.8571C12.7789 16.2643 13.9994 16.664 13.9994 17.8473C13.9994 19.1267 12.4532 20.0982 9.68717 20.0982C6.51675 20.0982 4.84818 19.2043 4.64213 17.1714H0.170532C0.170532 20.8295 3.42431 22.9645 9.28011 22.9645C15.222 22.9645 18.5547 20.8416 18.5547 17.4406C18.5547 14.4169 16.2374 13.354 11.6811 12.5417ZM78.71 16.1896C78.71 18.5289 76.1672 20.0884 72.9107 20.0884C70.6744 20.0884 69.4445 19.2143 69.4445 17.7184C69.4445 16.3777 70.4156 15.5685 72.5315 15.2552C74.6451 14.9416 76.8552 14.882 78.71 14.1317V16.1896ZM74.6828 5.40114C69.1494 5.40114 65.9836 7.48945 65.9836 10.7023V11.0762H70.2267V10.8569C70.2267 9.20695 71.6996 8.27077 74.5057 8.27077C77.4764 8.27077 78.8838 8.98689 78.8838 10.5771C78.8838 12.1062 77.8989 12.1364 74.1188 12.5123C68.383 13.0705 65.0041 14.1317 65.0041 18.0305C65.0041 21.023 67.5241 22.8959 71.9161 22.8959C74.7208 22.8959 77.2855 21.9268 79.0357 20.1825C79.0741 21.8672 80.3255 22.6756 83.0919 22.6756C83.1483 22.6756 83.2156 22.672 83.2156 22.672V10.2663C83.2156 7.05396 80.3756 5.40114 74.6828 5.40114ZM109.77 21.1318C109.241 21.2599 108.318 21.3993 107.703 21.3993C106.172 21.3993 106.06 20.6597 106.06 19.5333V8.02622H109.77V6.80838H106.06V0.711451H103.94V19.5333C103.94 21.8384 104.657 22.6166 107.015 22.6166C107.846 22.6166 108.709 22.5115 109.77 22.311V21.1318ZM95.2872 13.8662C94.9083 13.7949 94.5457 13.7335 94.1957 13.6688C90.5618 13.0177 88.3672 12.6291 88.3672 10.3828C88.3672 8.66168 90.2657 7.56238 93.2078 7.56238C96.5356 7.56238 98.5608 8.83949 98.7954 11.0762H100.903C100.553 8.02622 97.7746 6.22214 93.2475 6.22214C89.0657 6.22214 86.2559 7.98963 86.2559 10.6461C86.2559 13.2687 88.5268 14.1373 93.6119 15.0807L93.7265 15.1124C97.3655 15.7783 99.3705 16.1661 99.3705 18.2263C99.3705 20.1536 97.106 21.4377 93.6099 21.4377C90.4794 21.4377 88.0764 19.8132 87.9332 17.7811H85.824C86.031 20.8295 89.1137 22.7748 93.7295 22.7748C98.3638 22.7748 101.48 20.9444 101.48 18.2753C101.48 15.9092 99.8566 14.7254 95.2872 13.8662Z" fill="black"/>
<path d="M190.514 8.00251C190.943 8.00251 191.367 7.99117 191.367 7.62139C191.367 7.3186 191.036 7.24722 190.691 7.24722H190.051V8.00251H190.514ZM190.051 9.19587H189.703V7.01943H190.794C191.433 7.01943 191.715 7.23176 191.715 7.62139C191.715 8.00689 191.388 8.17851 191.003 8.22979L191.849 9.19587H191.439L190.64 8.22979H190.051V9.19587ZM188.52 8.10739C188.52 9.00931 189.405 9.72311 190.594 9.72311C191.782 9.72311 192.667 9.00931 192.667 8.10739C192.667 7.20702 191.782 6.494 190.594 6.494C189.405 6.494 188.52 7.20702 188.52 8.10739ZM193.051 8.10739C193.051 9.16675 191.982 9.99084 190.594 9.99084C189.206 9.99084 188.135 9.16675 188.135 8.10739C188.135 7.04932 189.206 6.2242 190.594 6.2242C191.982 6.2242 193.051 7.04932 193.051 8.10739Z" fill="white"/>
</g>
<defs>
<clipPath id="clip0">
<rect width="193.109" height="22.9988" fill="white" transform="translate(0 0.0639648)"/>
</clipPath>
</defs>
</svg>
