<svg width="812" height="28" viewBox="0 0 812 28" fill="none" xmlns="http://www.w3.org/2000/svg">
<g clip-path="url(#clip0)">
<path fill-rule="evenodd" clip-rule="evenodd" d="M466.531 24.1504H467.002V25.2755H468.605V24.1504H469.076V26.9787H468.605V25.6624H467.002V26.9787H466.531V24.1504Z" fill="black"/>
<path fill-rule="evenodd" clip-rule="evenodd" d="M471.149 26.0011C471.093 25.9968 470.953 25.9968 470.682 25.9968C470.251 25.9968 470.056 26.0969 470.056 26.3401C470.056 26.5274 470.191 26.6793 470.503 26.6793C470.997 26.6793 471.149 26.4038 471.149 26.0729V26.0011ZM471.587 26.444C471.587 26.6591 471.6 26.9146 471.604 26.9623H471.181C471.165 26.8944 471.161 26.7471 471.157 26.6831C471.049 26.8826 470.818 27.018 470.403 27.018C469.833 27.018 469.617 26.6709 469.617 26.364C469.617 25.8414 470.088 25.6979 470.674 25.6979H471.149V25.598C471.149 25.3904 471.061 25.2031 470.662 25.2031C470.299 25.2031 470.215 25.3587 470.18 25.5262H469.733C469.757 25.2631 469.936 24.876 470.658 24.876C471.432 24.876 471.587 25.251 471.587 25.5862V26.444Z" fill="black"/>
<path fill-rule="evenodd" clip-rule="evenodd" d="M472.227 25.4631C472.227 25.2916 472.227 25.1002 472.223 24.9486H472.657C472.665 25.0162 472.669 25.1718 472.674 25.2997C472.761 25.116 472.965 24.8926 473.392 24.8926C473.874 24.8926 474.177 25.192 474.177 25.7385V26.9789H473.73V25.8182C473.73 25.5072 473.611 25.2598 473.256 25.2598C472.865 25.2598 472.674 25.5508 472.674 25.9978V26.9789H472.227V25.4631Z" fill="black"/>
<path fill-rule="evenodd" clip-rule="evenodd" d="M475.745 26.6721C476.192 26.6721 476.384 26.3845 476.384 25.9578C476.384 25.5351 476.228 25.2559 475.753 25.2559C475.322 25.2559 475.111 25.607 475.111 25.974C475.111 26.3328 475.331 26.6721 475.745 26.6721ZM476.814 23.9873V26.3929C476.814 26.5881 476.814 26.7838 476.819 26.979H476.384C476.372 26.8993 476.368 26.7838 476.368 26.6877C476.26 26.8554 476.096 27.0347 475.638 27.0347C475.055 27.0347 474.652 26.6002 474.652 25.9818C474.652 25.3116 475.167 24.8927 475.69 24.8927C476.144 24.8927 476.308 25.0885 476.368 25.18V23.9873H476.814Z" fill="black"/>
<path fill-rule="evenodd" clip-rule="evenodd" d="M477.674 24.9482C478.013 26.093 478.089 26.3803 478.137 26.5997H478.14C478.192 26.3803 478.276 26.1132 478.659 24.9482H479.082C479.465 26.1132 479.552 26.408 479.588 26.5798H479.593C479.64 26.3803 479.752 25.9694 480.067 24.9482H480.506L479.82 26.9785H479.353C479.122 26.2645 478.922 25.6943 478.855 25.4509H478.851C478.799 25.6504 478.607 26.2365 478.348 26.9785H477.865L477.211 24.9482H477.674Z" fill="black"/>
<path fill-rule="evenodd" clip-rule="evenodd" d="M482.41 25.7703C482.394 25.5468 482.274 25.2278 481.807 25.2278C481.413 25.2278 481.229 25.4712 481.197 25.7703H482.41ZM481.189 26.0694C481.209 26.4245 481.452 26.6875 481.835 26.6875C482.134 26.6875 482.294 26.572 482.394 26.3927H482.841C482.729 26.7077 482.438 27.0346 481.819 27.0346C481.066 27.0346 480.742 26.5002 480.742 25.9698C480.742 25.3675 481.145 24.8926 481.811 24.8926C482.585 24.8926 482.869 25.455 482.869 25.9577V26.0694H481.189Z" fill="black"/>
<path fill-rule="evenodd" clip-rule="evenodd" d="M483.344 25.503C483.344 25.3197 483.344 25.132 483.34 24.9487H483.775C483.782 25.0125 483.791 25.2279 483.791 25.3956C483.918 25.0924 484.201 24.8889 484.6 24.8967V25.3156C484.138 25.3075 483.791 25.5668 483.791 26.1575V26.9789H483.344V25.503Z" fill="black"/>
<path fill-rule="evenodd" clip-rule="evenodd" d="M485.486 25.898C485.697 25.6985 486.24 25.2239 486.543 24.9487H487.09L486.172 25.7343L487.189 26.979H486.635L485.849 25.9858L485.486 26.2849V26.979H485.039V23.9873H485.486V25.898Z" fill="black"/>
<path fill-rule="evenodd" clip-rule="evenodd" d="M487.395 27.501C487.606 27.022 487.686 26.6351 487.722 26.2803H488.18C488.137 26.6591 487.977 27.1817 487.777 27.501H487.395Z" fill="black"/>
<path fill-rule="evenodd" clip-rule="evenodd" d="M489.883 25.4631C489.883 25.2916 489.883 25.1002 489.879 24.9486H490.314C490.322 25.0162 490.326 25.1718 490.33 25.2997C490.417 25.116 490.621 24.8926 491.048 24.8926C491.53 24.8926 491.834 25.192 491.834 25.7385V26.9789H491.387V25.8182C491.387 25.5072 491.267 25.2598 490.912 25.2598C490.521 25.2598 490.33 25.5508 490.33 25.9978V26.9789H489.883V25.4631Z" fill="black"/>
<path fill-rule="evenodd" clip-rule="evenodd" d="M493.98 25.7703C493.964 25.5468 493.844 25.2278 493.378 25.2278C492.983 25.2278 492.799 25.4712 492.767 25.7703H493.98ZM492.759 26.0694C492.779 26.4245 493.023 26.6875 493.406 26.6875C493.705 26.6875 493.864 26.572 493.964 26.3927H494.411C494.299 26.7077 494.008 27.0346 493.39 27.0346C492.636 27.0346 492.312 26.5002 492.312 25.9698C492.312 25.3675 492.716 24.8926 493.382 24.8926C494.156 24.8926 494.439 25.455 494.439 25.9577V26.0694H492.759Z" fill="black"/>
<path fill-rule="evenodd" clip-rule="evenodd" d="M496.821 26.3884C496.821 26.5838 496.821 26.7833 496.825 26.9785H496.394C496.386 26.9228 496.378 26.7911 496.378 26.6595C496.279 26.8751 496.103 27.0343 495.66 27.0343C495.233 27.0343 494.902 26.7952 494.902 26.2047V24.9482H495.345V26.1248C495.345 26.4242 495.461 26.6676 495.8 26.6676C496.207 26.6676 496.378 26.432 496.378 25.8736V24.9482H496.821V26.3884Z" fill="black"/>
<path fill-rule="evenodd" clip-rule="evenodd" d="M499.55 26.648C499.953 26.648 500.188 26.4046 500.188 25.9498C500.188 25.511 499.965 25.2598 499.57 25.2598C499.131 25.2598 498.92 25.6068 498.92 25.9738C498.92 26.3567 499.171 26.648 499.55 26.648ZM500.619 26.7236C500.619 27.4775 500.348 27.9163 499.506 27.9163C498.685 27.9163 498.521 27.4457 498.485 27.2142H498.935C498.995 27.4018 499.131 27.5693 499.53 27.5693C500.08 27.5693 500.18 27.2142 500.18 26.7516V26.648C500.057 26.8671 499.853 27.0109 499.438 27.0109C498.86 27.0109 498.465 26.5602 498.465 25.9897C498.465 25.3435 498.932 24.8926 499.486 24.8926C499.941 24.8926 500.121 25.0961 500.18 25.2396C500.18 25.1481 500.184 25.0043 500.192 24.9486H500.623C500.619 25.1481 500.619 25.3435 500.619 25.539V26.7236Z" fill="black"/>
<path fill-rule="evenodd" clip-rule="evenodd" d="M502.765 25.7703C502.749 25.5468 502.629 25.2278 502.163 25.2278C501.768 25.2278 501.584 25.4712 501.552 25.7703H502.765ZM501.544 26.0694C501.564 26.4245 501.808 26.6875 502.19 26.6875C502.49 26.6875 502.649 26.572 502.749 26.3927H503.196C503.084 26.7077 502.793 27.0346 502.175 27.0346C501.421 27.0346 501.098 26.5002 501.098 25.9698C501.098 25.3675 501.501 24.8926 502.167 24.8926C502.941 24.8926 503.224 25.455 503.224 25.9577V26.0694H501.544Z" fill="black"/>
<path fill-rule="evenodd" clip-rule="evenodd" d="M504.675 26.6721C505.122 26.6721 505.313 26.3845 505.313 25.9578C505.313 25.5351 505.158 25.2559 504.683 25.2559C504.252 25.2559 504.041 25.607 504.041 25.974C504.041 26.3328 504.26 26.6721 504.675 26.6721ZM505.744 23.9873V26.3929C505.744 26.5881 505.744 26.7838 505.748 26.979H505.313C505.301 26.8993 505.297 26.7838 505.297 26.6877C505.19 26.8554 505.026 27.0347 504.567 27.0347C503.985 27.0347 503.582 26.6002 503.582 25.9818C503.582 25.3116 504.097 24.8927 504.619 24.8927C505.074 24.8927 505.238 25.0885 505.297 25.18V23.9873H505.744Z" fill="black"/>
<path fill-rule="evenodd" clip-rule="evenodd" d="M507.758 26.0177C507.702 26.0134 507.563 26.0134 507.291 26.0134C506.861 26.0134 506.665 26.1135 506.665 26.3567C506.665 26.544 506.801 26.6959 507.112 26.6959C507.607 26.6959 507.758 26.4205 507.758 26.0896V26.0177ZM508.197 26.4606C508.197 26.6757 508.209 26.9312 508.213 26.9789H507.79C507.774 26.911 507.77 26.7637 507.766 26.6997C507.659 26.8992 507.427 27.0346 507.012 27.0346C506.442 27.0346 506.227 26.6875 506.227 26.3806C506.227 25.858 506.697 25.7145 507.284 25.7145H507.758V25.6147C507.758 25.4071 507.671 25.2197 507.272 25.2197C506.909 25.2197 506.825 25.3753 506.789 25.5428H506.342C506.366 25.2797 506.546 24.8926 507.268 24.8926C508.042 24.8926 508.197 25.2676 508.197 25.6028V26.4606Z" fill="black"/>
<path fill-rule="evenodd" clip-rule="evenodd" d="M510.778 26.3327C510.682 26.7037 510.363 27.0346 509.765 27.0346C509.027 27.0346 508.68 26.5481 508.68 25.9698C508.68 25.3993 509.075 24.8926 509.769 24.8926C510.483 24.8926 510.73 25.3513 510.77 25.6106H510.327C510.263 25.4394 510.12 25.2437 509.765 25.2437C509.362 25.2437 509.135 25.5468 509.135 25.9617C509.135 26.3604 509.35 26.6838 509.765 26.6838C510.072 26.6838 510.235 26.5481 510.335 26.3327H510.778Z" fill="black"/>
<path fill-rule="evenodd" clip-rule="evenodd" d="M511.693 23.9873V25.2877C511.765 25.1482 511.952 24.8927 512.423 24.8927C512.897 24.8927 513.201 25.18 513.201 25.7545V26.979H512.754V25.8183C512.754 25.4953 512.642 25.26 512.283 25.26C511.884 25.26 511.697 25.5709 511.697 25.9858V26.979H511.25V23.9873H511.693Z" fill="black"/>
<path fill-rule="evenodd" clip-rule="evenodd" d="M513.535 24.9479H513.93V24.3096H514.377V24.9479H514.891V25.2909H514.377V26.3401C514.377 26.5555 514.428 26.6551 514.644 26.6551C514.7 26.6551 514.78 26.6513 514.836 26.6392V26.9583C514.74 26.9903 514.624 26.9984 514.5 26.9984C514.062 26.9984 513.93 26.8026 513.93 26.4039V25.2909H513.535V24.9479Z" fill="black"/>
<path fill-rule="evenodd" clip-rule="evenodd" d="M515.301 26.9781H515.799V26.2803H515.301V26.9781Z" fill="black"/>
<path fill-rule="evenodd" clip-rule="evenodd" d="M463.614 17.6696H455.818V12.0449H463.779V8.90966H455.818V3.59236H463.993L462.08 0.303711H451.73V21.0197H464.732V21.0194H461.588L463.614 17.6696Z" fill="black"/>
<path fill-rule="evenodd" clip-rule="evenodd" d="M472.654 10.4841L466.784 0.303711H462.081L462.082 0.30398L467.983 10.4467L461.59 21.0197H466.354L472.654 10.4841Z" fill="black"/>
<path fill-rule="evenodd" clip-rule="evenodd" d="M481.76 5.87344H478.222V8.15625H482.174V9.93963H476.039V0.323242H481.974V2.10663H478.222V4.10433H481.76V5.87344Z" fill="black"/>
<path fill-rule="evenodd" clip-rule="evenodd" d="M488.654 9.93963L487.783 8.19879C487.426 7.5284 487.198 7.02898 486.927 6.47248H486.898C486.699 7.02898 486.456 7.5284 486.156 8.19879L485.357 9.93963H482.875L485.657 5.07437L482.975 0.323242H485.472L486.313 2.07809C486.599 2.66313 486.813 3.13402 487.041 3.67625H487.07C487.298 3.06267 487.483 2.63459 487.726 2.07809L488.539 0.323242H491.022L488.311 5.01729L491.165 9.93963H488.654Z" fill="black"/>
<path fill-rule="evenodd" clip-rule="evenodd" d="M494.416 4.81758C494.601 4.86039 494.83 4.87466 495.144 4.87466C496.299 4.87466 497.013 4.28962 497.013 3.30531C497.013 2.42061 496.399 1.89265 495.315 1.89265C494.872 1.89265 494.573 1.93545 494.416 1.97826V4.81758ZM492.262 0.451722C492.932 0.337568 493.874 0.251953 495.201 0.251953C496.542 0.251953 497.498 0.508799 498.14 1.02249C498.753 1.50738 499.167 2.30645 499.167 3.24823C499.167 4.18973 498.853 4.98881 498.283 5.53104C497.541 6.22996 496.442 6.54416 495.158 6.54416C494.872 6.54416 494.616 6.52962 494.416 6.50108V9.93969H492.262V0.451722Z" fill="black"/>
<path fill-rule="evenodd" clip-rule="evenodd" d="M502.068 4.58927H502.925C504.009 4.58927 504.651 4.04731 504.651 3.20543C504.651 2.32072 504.052 1.87838 503.053 1.86411C502.525 1.86411 502.225 1.90691 502.068 1.93545V4.58927ZM499.914 0.451722C500.613 0.337568 501.655 0.251953 502.81 0.251953C504.237 0.251953 505.236 0.465992 505.92 1.00795C506.491 1.46457 506.805 2.13522 506.805 3.01993C506.805 4.24681 505.935 5.08869 505.107 5.38835V5.43116C505.778 5.702 506.149 6.34412 506.391 7.22881C506.691 8.313 506.991 9.56869 507.176 9.93969H504.95C504.793 9.66858 504.565 8.88377 504.28 7.69969C504.023 6.50108 503.609 6.17289 502.725 6.15862H502.068V9.93969H499.914V0.451722Z" fill="black"/>
<path fill-rule="evenodd" clip-rule="evenodd" d="M514.026 5.87344H510.487V8.15625H514.44V9.93963H508.305V0.323242H514.24V2.10663H510.487V4.10433H514.026V5.87344Z" fill="black"/>
<path fill-rule="evenodd" clip-rule="evenodd" d="M515.923 7.69937C516.508 7.99903 517.406 8.29841 518.334 8.29841C519.333 8.29841 519.861 7.8846 519.861 7.25703C519.861 6.65772 519.404 6.31526 518.248 5.90172C516.65 5.34522 515.609 4.46052 515.609 3.06241C515.609 1.42171 516.979 0.166016 519.247 0.166016C520.331 0.166016 521.13 0.394324 521.701 0.65117L521.216 2.40602C520.831 2.22052 520.146 1.94967 519.204 1.94967C518.262 1.94967 517.806 2.37748 517.806 2.87691C517.806 3.49049 518.348 3.76133 519.589 4.23222C521.287 4.86006 522.086 5.74476 522.086 7.10006C522.086 8.71222 520.845 10.0821 518.205 10.0821C517.107 10.0821 516.023 9.79668 515.48 9.49702L515.923 7.69937Z" fill="black"/>
<path fill-rule="evenodd" clip-rule="evenodd" d="M523.126 7.69937C523.711 7.99903 524.609 8.29841 525.537 8.29841C526.535 8.29841 527.063 7.8846 527.063 7.25703C527.063 6.65772 526.607 6.31526 525.451 5.90172C523.853 5.34522 522.812 4.46052 522.812 3.06241C522.812 1.42171 524.182 0.166016 526.45 0.166016C527.534 0.166016 528.333 0.394324 528.904 0.65117L528.419 2.40602C528.034 2.22052 527.349 1.94967 526.407 1.94967C525.466 1.94967 525.009 2.37748 525.009 2.87691C525.009 3.49049 525.551 3.76133 526.792 4.23222C528.49 4.86006 529.289 5.74476 529.289 7.10006C529.289 8.71222 528.048 10.0821 525.408 10.0821C524.31 10.0821 523.226 9.79668 522.684 9.49702L523.126 7.69937Z" fill="black"/>
<path fill-rule="evenodd" clip-rule="evenodd" d="M476.11 18.7746C476.695 19.0739 477.594 19.3736 478.522 19.3736C479.52 19.3736 480.048 18.9601 480.048 18.3322C480.048 17.7329 479.591 17.3904 478.436 16.9766C476.838 16.4201 475.796 15.5357 475.796 14.1373C475.796 12.4966 477.166 11.2412 479.435 11.2412C480.519 11.2412 481.318 11.4695 481.888 11.7261L481.403 13.4812C481.018 13.2957 480.333 13.0246 479.392 13.0246C478.45 13.0246 477.994 13.4527 477.994 13.9518C477.994 14.5654 478.536 14.8365 479.777 15.3074C481.475 15.9352 482.274 16.8197 482.274 18.1753C482.274 19.7874 481.033 21.1572 478.393 21.1572C477.294 21.1572 476.21 20.8719 475.668 20.5722L476.11 18.7746Z" fill="black"/>
<path fill-rule="evenodd" clip-rule="evenodd" d="M489.682 16.9484H486.144V19.2312H490.096V21.0146H483.961V11.3984H489.896V13.1818H486.144V15.1792H489.682V16.9484Z" fill="black"/>
<path fill-rule="evenodd" clip-rule="evenodd" d="M493.947 15.6645H494.803C495.888 15.6645 496.53 15.1222 496.53 14.2803C496.53 13.3959 495.931 12.9536 494.932 12.9393C494.404 12.9393 494.104 12.9821 493.947 13.0106V15.6645ZM491.793 11.5269C492.492 11.4125 493.533 11.3271 494.689 11.3271C496.116 11.3271 497.115 11.5412 497.799 12.0831C498.37 12.5398 498.684 13.2104 498.684 14.0948C498.684 15.322 497.814 16.1636 496.986 16.4635V16.5061C497.657 16.7772 498.028 17.4193 498.27 18.304C498.57 19.3882 498.869 20.6436 499.055 21.0146H496.829C496.672 20.7438 496.444 19.959 496.159 18.7749C495.902 17.5763 495.488 17.2481 494.603 17.2338H493.947V21.0146H491.793V11.5269Z" fill="black"/>
<path fill-rule="evenodd" clip-rule="evenodd" d="M502.652 21.0146L499.57 11.3984H501.953L503.123 15.4646C503.451 16.6059 503.751 17.7046 503.979 18.903H504.022C504.265 17.7474 504.564 16.6059 504.892 15.5074L506.119 11.3984H508.431L505.192 21.0146H502.652Z" fill="black"/>
<path fill-rule="evenodd" clip-rule="evenodd" d="M509.957 21.0148H512.14V11.3984H509.957V21.0148Z" fill="black"/>
<path fill-rule="evenodd" clip-rule="evenodd" d="M521.302 20.7434C520.902 20.9432 520.003 21.1572 518.833 21.1572C515.509 21.1572 513.797 19.0882 513.797 16.3488C513.797 13.0674 516.137 11.2412 519.047 11.2412C520.175 11.2412 521.031 11.4695 521.416 11.669L520.973 13.3956C520.531 13.2101 519.918 13.0389 519.147 13.0389C517.421 13.0389 516.08 14.0805 516.08 16.2206C516.08 18.1467 517.221 19.3593 519.162 19.3593C519.818 19.3593 520.546 19.2166 520.973 19.0454L521.302 20.7434Z" fill="black"/>
<path fill-rule="evenodd" clip-rule="evenodd" d="M528.663 16.9484H525.124V19.2312H529.076V21.0146H522.941V11.3984H528.877V13.1818H525.124V15.1792H528.663V16.9484Z" fill="black"/>
</g>
<g clip-path="url(#clip1)">
<path d="M340.895 1.11689C340.895 0.504884 341.399 0 342.011 0C342.623 0 343.128 0.504884 343.128 1.11689C343.128 1.7289 342.623 2.21854 342.011 2.21854C341.399 2.2185 340.895 1.7289 340.895 1.11689ZM343.128 18.8349V19.9978H340.895V18.8349H343.128V18.8349ZM355.216 18.8349C354.053 19.5694 352.676 19.9978 351.222 19.9978C349.753 19.9978 348.392 19.5694 347.229 18.8349H355.216ZM358.995 18.8349V19.9519C358.949 24.4044 355.476 28 351.222 28C346.954 28 343.496 24.4044 343.45 19.9519H345.668C345.714 23.1803 348.193 25.7814 351.222 25.7814C354.252 25.7814 356.731 23.1803 356.792 19.9519V19.9978V18.8349H358.995V18.8349ZM371.067 18.8349C369.904 19.5694 368.527 19.9978 367.074 19.9978C365.605 19.9978 364.243 19.5694 363.08 18.8349H371.067ZM374.846 18.8349V19.9978H372.613V18.8349H374.846ZM385.939 18.8349C384.578 19.6459 382.833 19.9214 381.364 19.9214C379.85 19.9214 378.457 19.5235 377.371 18.8349H385.939Z" fill="black"/>
<path d="M343.128 12.7457V18.8353H340.895V12.7457H343.128V12.7457ZM345.714 12.7457C346.112 15.6069 348.422 17.7797 351.207 17.7797C353.992 17.7797 356.302 15.5917 356.7 12.7457H358.98V18.8353H356.761V17.5502C356.302 18.055 355.767 18.4836 355.201 18.8353H347.214C345.179 17.5654 343.74 15.3315 343.48 12.7457H345.714V12.7457ZM361.566 12.7457C361.963 15.6069 364.274 17.7797 367.058 17.7797C369.843 17.7797 372.154 15.5917 372.551 12.7457H374.831V18.8353H372.597V17.5654C372.138 18.055 371.618 18.4835 371.052 18.8353H363.08C361.045 17.5654 359.622 15.3315 359.347 12.7305L361.566 12.7457V12.7457ZM387.867 12.7457C388.097 13.2812 388.234 13.9086 388.234 14.6737C388.234 16.7545 387.27 18.0551 385.939 18.8508H377.371C375.872 17.9021 374.938 16.4027 375.045 14.6276L377.264 14.7654C377.187 16.066 378.488 17.7184 381.364 17.7184C384.195 17.7184 386.001 16.7545 386.001 14.7042C386.001 13.8015 385.756 13.1588 384.593 12.761L387.867 12.7457V12.7457Z" fill="black"/>
<path d="M340.894 12.7455V12.6078H337.359V12.1488H340.894V3.70299H343.112V12.1335H343.419V11.8428C343.419 7.34449 346.907 3.70299 351.191 3.70299C353.364 3.70299 355.338 4.6362 356.745 6.15105V3.70299H358.964V12.1335H359.27V3.70299H361.488V12.1182H372.597V3.70299H374.83V12.1183H378.35C376.207 11.6745 375.305 10.2363 375.305 7.83409C375.305 5.9827 377.477 3.67233 381.348 3.67233C383.995 3.67233 387.714 5.233 387.438 8.21664L385.219 8.01772C385.281 7.31388 383.934 5.89095 381.348 5.89095C378.212 5.89095 377.523 7.65053 377.523 7.83409C377.523 9.50184 377.86 10.0527 379.987 10.0527C383.46 10.0527 386.26 10.3739 387.499 12.1335H391.539V12.5925H387.79C387.805 12.6384 387.836 12.6843 387.851 12.7303H384.577C384.424 12.669 384.256 12.6231 384.057 12.5925H374.83V12.7303H372.566C372.566 12.6843 372.581 12.6384 372.581 12.5925H361.55C361.55 12.6384 361.565 12.6843 361.565 12.7303H359.331C359.331 12.6843 359.316 12.6384 359.316 12.5925H358.979V12.7303H356.699C356.699 12.6843 356.715 12.6384 356.715 12.5925H345.698C345.698 12.6384 345.714 12.6843 345.714 12.7303H343.48C343.48 12.6843 343.464 12.6384 343.464 12.5925H343.128V12.7303H340.894V12.7455V12.7455ZM374.846 11.7663V11.9346V11.7663ZM361.504 11.7663V11.9499V11.7663ZM345.652 11.8428V12.1335H356.761V11.8428C356.761 8.56846 354.266 5.90623 351.191 5.90623C348.131 5.90623 345.652 8.56846 345.652 11.8428V11.8428ZM386.841 3.16741H387.025L387.346 3.68762H387.576L387.224 3.13684C387.408 3.12147 387.545 3.02968 387.545 2.80018C387.545 2.55541 387.392 2.44828 387.102 2.44828H386.627V3.68762H386.826V3.16741H386.841V3.16741ZM386.841 2.9991V2.63196H387.086C387.209 2.63196 387.362 2.64724 387.362 2.80022C387.362 2.98386 387.224 2.99914 387.071 2.99914L386.841 2.9991V2.9991ZM388.142 3.06029C388.142 2.38706 387.637 1.94336 387.056 1.94336C386.459 1.94336 385.954 2.38706 385.954 3.06029C385.954 3.70299 386.413 4.17718 387.056 4.17718C387.637 4.17722 388.142 3.73352 388.142 3.06029ZM387.912 3.06029C387.912 3.61111 387.53 3.97838 387.056 3.97838C386.52 3.97838 386.199 3.56517 386.199 3.06029C386.199 2.52483 386.581 2.14224 387.056 2.14224C387.53 2.12699 387.912 2.50947 387.912 3.06029V3.06029Z" fill="black"/>
<path d="M359.469 22.9353H359.805V23.1494C359.897 22.9658 360.096 22.8893 360.295 22.8893C360.8 22.8893 361.029 23.2718 361.029 23.7308C361.029 24.1593 360.815 24.5571 360.356 24.5571C360.157 24.5571 359.943 24.4806 359.836 24.3123V25.0926H359.484V22.9352L359.469 22.9353V22.9353ZM360.249 23.1649C359.958 23.1649 359.805 23.3944 359.805 23.7156C359.805 24.0368 359.974 24.2663 360.249 24.2663C360.57 24.2663 360.678 23.991 360.678 23.7156C360.693 23.4402 360.54 23.1649 360.249 23.1649ZM361.335 22.3233H361.687V24.5113H361.335V22.3233ZM363.386 24.1593C363.386 24.2511 363.401 24.2817 363.462 24.2817H363.554V24.5265C363.508 24.542 363.386 24.5724 363.34 24.5724C363.202 24.5724 363.095 24.5265 363.064 24.3735C362.927 24.5113 362.697 24.5724 362.514 24.5724C362.223 24.5724 361.978 24.4194 361.978 24.1134C361.978 23.7156 362.284 23.6543 362.59 23.6239C362.835 23.5779 363.064 23.6085 363.064 23.3944C363.064 23.2107 362.881 23.1801 362.743 23.1801C362.544 23.1801 362.407 23.2566 362.391 23.4249H362.039C362.07 23.0271 362.406 22.9048 362.758 22.9048C363.064 22.9048 363.386 23.0271 363.386 23.3638V24.1593V24.1593ZM363.034 23.7156C362.927 23.7921 362.758 23.7768 362.605 23.8073C362.452 23.8379 362.33 23.8838 362.33 24.0674C362.33 24.2204 362.529 24.2663 362.651 24.2663C362.804 24.2663 363.049 24.1897 363.049 23.9602V23.7154H363.034V23.7156ZM364.028 24.0064C364.044 24.2052 364.197 24.2817 364.38 24.2817C364.518 24.2817 364.747 24.2511 364.732 24.0675C364.717 23.8838 364.472 23.8687 364.212 23.8074C363.952 23.7463 363.707 23.6544 363.707 23.3331C363.707 22.9811 364.074 22.8741 364.365 22.8741C364.686 22.8741 364.977 23.0118 365.023 23.3637H364.656C364.625 23.1953 364.487 23.1494 364.334 23.1494C364.243 23.1494 364.044 23.18 364.044 23.3178C364.044 23.4861 364.304 23.5166 364.564 23.5626C364.824 23.6239 365.069 23.7156 365.069 24.0216C365.069 24.3888 364.686 24.542 364.365 24.542C363.967 24.542 363.676 24.3583 363.661 23.991H364.028L364.028 24.0064V24.0064ZM365.191 22.9353H365.451V22.4609H365.803V22.9353H366.124V23.1953H365.803V24.0368C365.803 24.1746 365.819 24.2511 365.972 24.2511C366.018 24.2511 366.063 24.2511 366.124 24.2358V24.511C366.048 24.511 365.971 24.5264 365.895 24.5264C365.528 24.5264 365.467 24.3888 365.451 24.1285V23.1953H365.191V22.9353V22.9353ZM366.369 22.3233H366.721V22.6598H366.369V22.3233ZM366.369 22.9353H366.721V24.5113H366.369V22.9353ZM368.16 23.4555C368.129 23.2718 367.991 23.1649 367.792 23.1649C367.609 23.1649 367.364 23.2565 367.364 23.7308C367.364 23.991 367.486 24.2663 367.777 24.2663C367.976 24.2663 368.114 24.1287 368.16 23.8992H368.512C368.45 24.3123 368.19 24.5266 367.792 24.5266C367.303 24.5266 367.027 24.1745 367.027 23.7156C367.027 23.2413 367.288 22.8741 367.808 22.8741C368.175 22.8741 368.481 23.0577 368.512 23.4402H368.16V23.4555H368.16V23.4555ZM369.047 24.0064C369.062 24.2052 369.215 24.2817 369.399 24.2817C369.537 24.2817 369.766 24.2511 369.751 24.0675C369.736 23.8838 369.491 23.8687 369.231 23.8074C368.971 23.7463 368.726 23.6544 368.726 23.3331C368.726 22.9811 369.093 22.8741 369.384 22.8741C369.705 22.8741 369.996 23.0118 370.042 23.3637H369.674C369.644 23.1953 369.506 23.1494 369.353 23.1494C369.246 23.1494 369.062 23.18 369.062 23.3178C369.062 23.4861 369.322 23.5166 369.567 23.5626C369.827 23.6239 370.087 23.7156 370.087 24.0216C370.087 24.3888 369.705 24.542 369.384 24.542C368.986 24.542 368.695 24.3583 368.68 23.991H369.047V24.0064H369.047V24.0064ZM371.067 22.9353H371.327V22.7976C371.327 22.3998 371.541 22.3232 371.77 22.3232C371.878 22.3232 371.954 22.3232 372.015 22.3385V22.6139C371.969 22.5986 371.923 22.5986 371.847 22.5986C371.755 22.5986 371.679 22.6292 371.679 22.7669V22.9352H371.969V23.1952H371.679V24.5111H371.327V23.1952H371.067V22.9353V22.9353ZM372.107 23.7156C372.107 23.2413 372.398 22.8893 372.903 22.8893C373.408 22.8893 373.698 23.2414 373.698 23.7156C373.698 24.2052 373.408 24.5419 372.903 24.5419C372.398 24.5571 372.107 24.2052 372.107 23.7156ZM373.362 23.7156C373.362 23.4402 373.224 23.1649 372.918 23.1649C372.612 23.1649 372.474 23.4555 372.474 23.7156C372.474 23.991 372.612 24.2817 372.918 24.2817C373.224 24.2817 373.362 23.991 373.362 23.7156ZM373.989 22.9353H374.31V23.2414C374.356 23.073 374.555 22.8893 374.769 22.8893C374.846 22.8893 374.877 22.8893 374.907 22.9048V23.2414C374.861 23.2414 374.8 23.226 374.754 23.226C374.525 23.226 374.326 23.4248 374.326 23.7614V24.5111H373.974V22.9353H373.989V22.9353ZM375.932 22.3233H376.284V24.5113H375.932V22.3233V22.3233ZM376.575 23.7156C376.575 23.2413 376.866 22.8893 377.37 22.8893C377.876 22.8893 378.166 23.2414 378.166 23.7156C378.166 24.2052 377.876 24.5419 377.37 24.5419C376.866 24.5571 376.575 24.2052 376.575 23.7156V23.7156ZM377.829 23.7156C377.829 23.4402 377.692 23.1649 377.386 23.1649C377.08 23.1649 376.942 23.4555 376.942 23.7156C376.942 23.991 377.08 24.2817 377.386 24.2817C377.676 24.2817 377.829 23.991 377.829 23.7156ZM378.457 22.9353H378.793V23.1649C378.9 22.9964 379.069 22.8893 379.283 22.8893C379.62 22.8893 379.834 23.073 379.834 23.4248V24.5113H379.482V23.5167C379.482 23.2718 379.375 23.1649 379.176 23.1649C378.946 23.1649 378.793 23.3483 378.793 23.5779V24.5113H378.441V22.9353H378.457V22.9353ZM381.67 24.4193C381.67 24.8937 381.395 25.1232 380.89 25.1232C380.568 25.1232 380.216 25.0008 380.186 24.6336H380.538C380.584 24.8326 380.737 24.8631 380.92 24.8631C381.196 24.8631 381.318 24.7254 381.318 24.4654V24.2204C381.226 24.3888 381.043 24.4958 380.844 24.4958C380.339 24.4958 380.14 24.1133 380.14 23.6697C380.14 23.2414 380.4 22.874 380.859 22.874C381.058 22.874 381.242 22.9505 381.333 23.1341V22.92H381.685V24.4192L381.67 24.4193ZM381.318 23.6849C381.318 23.4096 381.196 23.1648 380.89 23.1648C380.583 23.1648 380.477 23.4555 380.477 23.7155C380.477 23.9757 380.599 24.2359 380.89 24.2359C381.196 24.2359 381.318 23.9451 381.318 23.6849V23.6849ZM382.282 23.8074C382.282 24.0523 382.42 24.2817 382.71 24.2817C382.909 24.2817 383.032 24.1899 383.093 24.0217H383.429C383.353 24.3737 383.062 24.5571 382.71 24.5571C382.221 24.5571 381.93 24.2053 381.93 23.7309C381.93 23.2873 382.221 22.9048 382.695 22.9048C383.2 22.9048 383.506 23.3484 383.445 23.8228H382.282V23.8074ZM383.108 23.5779C383.093 23.3637 382.94 23.1648 382.71 23.1648C382.466 23.1648 382.312 23.3483 382.297 23.5779H383.108ZM383.72 22.9353H384.042V23.2414C384.087 23.073 384.286 22.8893 384.501 22.8893C384.577 22.8893 384.608 22.8893 384.638 22.9048V23.2414C384.592 23.2414 384.531 23.226 384.485 23.226C384.24 23.226 384.057 23.4248 384.057 23.7614V24.5111H383.705V22.9353H383.72ZM385.648 22.3233H386V24.5113H385.648V22.3233ZM386.382 22.3233H386.734V22.6598H386.382V22.3233ZM386.382 22.9353H386.734V24.5113H386.382V22.9353ZM386.949 22.9353H387.209V22.7976C387.209 22.3998 387.423 22.3232 387.637 22.3232C387.744 22.3232 387.821 22.3232 387.882 22.3385V22.6139C387.836 22.5986 387.79 22.5986 387.729 22.5986C387.637 22.5986 387.561 22.6292 387.561 22.7669V22.9352H387.851V23.1952H387.561V24.5111H387.209V23.1952H386.949V22.9353V22.9353ZM388.341 23.8074C388.341 24.0523 388.479 24.2817 388.769 24.2817C388.968 24.2817 389.091 24.1899 389.152 24.0217H389.488C389.412 24.3737 389.121 24.5571 388.769 24.5571C388.28 24.5571 388.004 24.2053 388.004 23.7309C388.004 23.2873 388.295 22.9048 388.769 22.9048C389.274 22.9048 389.565 23.3484 389.519 23.8228H388.341V23.8074ZM389.152 23.5779C389.137 23.3637 388.984 23.1648 388.754 23.1648C388.509 23.1648 388.356 23.3483 388.341 23.5779H389.152Z" fill="black"/>
</g>
<path fill-rule="evenodd" clip-rule="evenodd" d="M171.719 0H143.008V10.2144H171.719V0ZM171.719 17.7852H143.008V27.9996H171.719V17.7852ZM145.408 12.6507H145.111V13.4123H145.408C145.778 13.4123 145.968 13.2779 145.968 13.0315C145.968 12.7907 145.778 12.6507 145.408 12.6507ZM145.985 16.8059H143.006H143V11.3627H145.99C147.301 11.3627 148.029 11.9451 148.029 12.8467C148.029 13.4403 147.67 13.8491 147.06 13.9723C147.911 14.1235 148.32 14.5491 148.32 15.2659C148.32 16.2739 147.53 16.8059 145.985 16.8059ZM145.486 14.5883H145.111V15.4619H145.486C145.951 15.4619 146.186 15.2995 146.186 15.0251C146.186 14.7507 145.951 14.5883 145.486 14.5883ZM148.576 11.3569H150.822V14.3305C150.822 14.9017 150.917 15.2377 151.443 15.2377C151.958 15.2377 152.07 14.9017 152.07 14.3305V11.3569H154.316V14.3137C154.316 14.9689 154.249 15.4897 153.946 15.8985C153.476 16.5537 152.563 16.9513 151.438 16.9513C150.312 16.9513 149.399 16.5481 148.929 15.8985C148.632 15.4841 148.57 14.9689 148.57 14.3137V11.3569H148.576ZM156.983 11.3569H154.782V16.8057H156.949L156.955 13.9777L158.803 16.8057H161.026V11.3569H158.859L158.853 14.2073L156.983 11.3569ZM163.721 12.9809H161.531V11.3569H167.277H167.294H169.528V15.0361H171.718V16.8057H167.277V11.381L164.678 15.1313H166.986V16.8057H161.027L163.721 12.9809Z" fill="black"/>
<path d="M236.516 8.38528C235.143 8.38528 233.728 8.52014 231.719 8.52014V22.5535C231.719 22.5535 233.92 22.6903 235.567 21.455V11.924H237.04C239.614 11.924 242.284 13.0786 242.284 18.0193C242.284 22.46 240.254 24.1661 236.247 24.1661H231.719V27.6374C233.728 27.6374 235.143 27.6775 236.516 27.6775C243.975 27.6775 246.314 23.4651 246.314 18.0149C246.314 12.564 243.975 8.38531 236.516 8.38531V8.38528ZM275.336 24.1451C275.336 24.1451 273.21 21.5364 272.131 19.6026C274.857 18.3393 275.541 16.2795 275.541 14.3979C275.541 8.50044 269.998 8.38403 267.199 8.38531C265.5 8.38581 263.628 8.53161 261.96 8.52016V12.0557H267.818C270.181 12.0557 271.426 12.9781 271.426 14.7707C271.426 16.7223 270.196 17.5759 268.182 17.5759H266.006V13.6714C266.006 13.6714 263.325 13.5709 261.96 15.354V27.6794H266.006V20.4773C268.439 20.0104 269.161 22.3475 270.214 24.0224C271.673 26.3378 272.553 28 275.486 28C276.018 28 276.618 27.9427 277.301 27.8251L277.358 24.7851C276.638 24.9027 276.049 24.9835 275.336 24.1451V24.1451ZM247.805 27.6794H260.212V24.1343H251.85V19.2998H259.079V16.076H251.85V12.0462H260.212V8.52016H247.805V27.6794V27.6794ZM248.567 6.42606C248.567 2.16662 249.611 3.73783 254.009 3.73783C258.405 3.73783 259.45 2.16662 259.45 6.42606V6.86944H262.416V5.73969C262.416 1.72515 260.693 0 254.009 0C247.325 0 245.601 1.72515 245.601 5.73969V6.86944H248.567V6.42606V6.42606Z" fill="black"/>
<g clip-path="url(#clip2)">
<path d="M625.084 17.3921C625.084 18.0494 625.295 18.562 625.665 18.8907C626.061 19.2325 626.536 19.4165 627.065 19.4165C627.619 19.4165 628.081 19.2325 628.464 18.8775C628.86 18.5226 629.045 18.0099 629.045 17.3921V6.19208C629.045 5.54795 628.86 5.06156 628.438 4.70663C628.042 4.32541 627.566 4.15452 627.065 4.15452C626.536 4.15452 626.061 4.32541 625.665 4.70663C625.282 5.06156 625.084 5.54795 625.084 6.19208V17.3921ZM627.091 0.18457C627.857 0.18457 628.583 0.316026 629.243 0.605227C629.903 0.881284 630.51 1.30194 631.078 1.84091C631.619 2.36673 632.042 2.93199 632.319 3.54983C632.623 4.32541 632.755 5.20617 632.755 6.19208V17.3921C632.755 19.101 632.253 20.5076 631.236 21.6381C630.84 22.0982 630.365 22.4268 629.85 22.6897C629.045 23.0841 628.094 23.255 626.999 23.2024C626.206 23.1235 625.586 22.7686 625.097 22.0719V27.9479H621.414V5.87659C621.414 4.31227 621.982 2.98457 623.13 1.85405C623.658 1.32823 624.226 0.933866 624.847 0.644664C625.546 0.329171 626.299 0.18457 627.091 0.18457Z" fill="black"/>
<path d="M619.394 6.27051H615.711V22.8207H619.394V6.27051Z" fill="black"/>
<path d="M612.094 1.98634C613.242 3.09057 613.81 4.40512 613.81 5.93V22.822H610.113V6.19291C610.113 5.62765 609.929 5.14127 609.532 4.73376C609.136 4.33939 608.661 4.12906 608.12 4.12906C607.565 4.12906 607.116 4.33939 606.72 4.70747C606.324 5.10183 606.113 5.58822 606.113 6.19291V22.822H602.43V6.02202C602.43 4.4577 602.984 3.13 604.146 1.99949C605.281 0.868969 606.615 0.303711 608.107 0.303711C609.625 0.316856 610.958 0.868969 612.094 1.98634Z" fill="black"/>
<path d="M668.57 6.77026C668.57 7.65101 667.831 8.38716 666.946 8.38716H661.85C660.966 8.38716 660.227 7.65101 660.227 6.77026V1.72237C660.227 0.828473 660.966 0.105469 661.85 0.105469H666.946C667.831 0.105469 668.57 0.815328 668.57 1.72237V6.77026Z" fill="black"/>
<path d="M618.747 0.250977C619.17 0.250977 619.5 0.566469 619.5 0.987127V3.09041C619.5 3.49792 619.157 3.83971 618.747 3.83971H616.45C616.028 3.83971 615.711 3.49792 615.711 3.09041V0.987127C615.711 0.566469 616.028 0.250977 616.45 0.250977H618.747Z" fill="black"/>
<path d="M657.177 9.88621C656.068 8.874 654.708 8.30874 653.124 8.22987C652.53 8.151 652.055 7.92752 651.698 7.55945C651.342 7.16508 651.157 6.69184 651.157 6.15287C651.157 5.62705 651.329 5.14067 651.685 4.72001C652.015 4.28621 652.517 4.07588 653.137 4.07588C654.246 4.07588 654.906 4.6017 655.118 5.65334H658.814C658.814 4.08902 658.233 2.80076 657.085 1.78855C655.936 0.776348 654.616 0.263672 653.137 0.263672C651.579 0.263672 650.259 0.82893 649.137 1.97259C648.041 3.10311 647.5 4.50968 647.5 6.13973C647.5 7.79607 648.041 9.18949 649.124 10.2937C650.22 11.4242 651.54 12.0026 653.137 12.0421C653.797 12.0421 654.286 12.1867 654.656 12.4759C654.999 12.7782 655.17 13.2383 655.17 13.8825V17.1425C655.17 17.7078 655.012 18.1942 654.695 18.628C654.378 19.0355 653.863 19.2458 653.151 19.2458C652.213 19.2458 651.606 18.8383 651.302 17.9839L651.21 17.4975V14.2505H647.513V17.3134L647.553 17.9181V17.9839C647.764 19.2984 648.385 20.4684 649.388 21.4411C650.484 22.5059 651.751 23.0449 653.151 23.0449C654.854 23.0449 656.24 22.5191 657.283 21.4411C658.339 20.3895 658.867 19.0487 658.867 17.4317V13.8299C658.841 12.213 658.273 10.8984 657.177 9.88621Z" fill="black"/>
<path d="M599.063 9.88621C597.954 8.874 596.594 8.30874 595.01 8.22987C594.416 8.151 593.941 7.92752 593.571 7.55945C593.214 7.16508 593.03 6.69184 593.03 6.15287C593.03 5.62705 593.201 5.14067 593.558 4.72001C593.901 4.28621 594.389 4.07588 595.01 4.07588C596.119 4.07588 596.779 4.6017 596.99 5.65334H600.687C600.687 4.08902 600.106 2.80076 598.944 1.78855C597.796 0.776348 596.475 0.263672 594.997 0.263672C593.439 0.263672 592.119 0.82893 590.996 1.97259C589.901 3.10311 589.359 4.50968 589.359 6.13973C589.359 7.79607 589.914 9.18949 590.983 10.2937C592.079 11.4242 593.399 12.0026 594.997 12.0421C595.657 12.0421 596.145 12.1867 596.502 12.4759C596.845 12.7782 597.017 13.2383 597.017 13.8825V17.1425C597.017 17.7078 596.871 18.1942 596.541 18.628C596.224 19.0355 595.71 19.2458 594.997 19.2458C594.059 19.2458 593.452 18.8383 593.148 17.9839L593.056 17.4975V14.2505H589.359V17.3134L589.399 17.9181V17.9839C589.61 19.2984 590.231 20.4684 591.221 21.4411C592.317 22.5059 593.584 23.0449 594.997 23.0449C596.7 23.0449 598.086 22.5191 599.129 21.4411C600.185 20.3895 600.713 19.0487 600.713 17.4317V13.8299C600.713 12.213 600.146 10.8984 599.063 9.88621Z" fill="black"/>
<path d="M638.18 6.11336C638.18 5.52181 638.365 5.02228 638.761 4.62792C639.157 4.24669 639.646 4.04951 640.214 4.04951C640.742 4.04951 641.23 4.24669 641.626 4.62792C642.049 5.02228 642.233 5.50867 642.233 6.11336V8.24294H638.18V6.11336ZM645.89 11.6739V5.85045C645.89 4.32557 645.323 2.99787 644.161 1.90679C643.012 0.802563 641.666 0.237305 640.161 0.237305C638.524 0.237305 637.164 0.776272 636.108 1.85421C635.052 2.94529 634.523 4.29928 634.523 5.95561V17.3528C634.523 18.9828 635.052 20.3631 636.121 21.4279C637.203 22.519 638.55 23.0448 640.174 23.0448C641.732 23.0448 643.065 22.5321 644.108 21.5462C645.191 20.5472 645.772 19.2589 645.864 17.6814V14.3556H642.128V17.55L642.115 17.734C641.877 18.7331 641.204 19.2326 640.148 19.2326C639.606 19.2326 639.144 19.0486 638.748 18.6542C638.352 18.2598 638.167 17.7735 638.167 17.1688V11.6871H645.89V11.6739Z" fill="black"/>
</g>
<defs>
<clipPath id="clip0">
<rect width="77.8077" height="28" fill="white" transform="translate(451.539)"/>
</clipPath>
<clipPath id="clip1">
<rect width="54.1796" height="28" fill="white" transform="translate(337.359)"/>
</clipPath>
<clipPath id="clip2">
<rect width="79.3449" height="28" fill="white" transform="translate(589.348)"/>
</clipPath>
</defs>
</svg>
