<?xml version="1.0" encoding="utf-8"?>
<!-- Generator: Adobe Illustrator 23.0.1, SVG Export Plug-In . SVG Version: 6.00 Build 0)  -->
<svg version="1.1" id="Ebene_1" xmlns="http://www.w3.org/2000/svg" xmlns:xlink="http://www.w3.org/1999/xlink" x="0px" y="0px"
	 viewBox="0 0 388 66" style="enable-background:new 0 0 388 66;" xml:space="preserve">
<style type="text/css">
	.st0{fill:none;}
	.st1{fill:#3D3D3D;}
	.st2{fill:#131313;}
	.st3{fill:#FFFFFF;}
	.st4{fill:#00BAFF;}
</style>
<title>logo</title>
<path class="st0" d="M35.1,44.8c0.1,0.1,0.2,0.1,0.2,0.2C35.3,44.8,35.2,44.8,35.1,44.8z"/>
<path class="st1" d="M35.1,44.8c-2.9-1.9-5.1-5.2-5.6-6.8c0.1,0.6-1.6,8.3-2.5,9.9c-2.6-1-4.8-0.3-7.1-0.6c-2-0.3-3.7-0.7-4.3-1.4
	c-1.3-1.3-2.3-1.9-3.8-1.9c0,0-1.5-0.1-2,1.8c-0.4,1.6-1.2,9.6,0.4,11.8c0.3,0.3,1.4,0.5,1.5-0.7c0.1-1.4,1.7-5.6,2.7-5.9
	c0,0,0.2-0.1,0.6-0.2c3.6-0.5,12.9,3.8,14.6,3.4c1.1-0.2,3.9-4.8,5.6-9.3l-0.1-0.1C35.3,44.9,35.2,44.9,35.1,44.8L35.1,44.8z"/>
<path class="st2" d="M35.3,44.9L35.3,44.9C35.4,44.9,35.4,44.9,35.3,44.9z"/>
<path class="st0" d="M29.7,38.2L29.5,38L29.7,38.2z"/>
<path class="st1" d="M29.8,38.3c-0.1,0-0.1-0.1-0.2-0.1C29.7,38.3,29.7,38.3,29.8,38.3z M33.2,57.7l0.2-0.4l5.7,2.5l-0.2,0.4
	L33.2,57.7z M34.1,59.3l0.2-0.4l4.3,1.9l-0.2,0.4L34.1,59.3z M34.9,60.9l0.2-0.4l3.2,1.4l-0.2,0.4L34.9,60.9z M2.7,42.3l0.1-0.4
	l6,1.9l-0.1,0.4L2.7,42.3z M3.8,43.8l0.1-0.4l4.5,1.4l-0.1,0.4L3.8,43.8z M4.8,45.2l0.1-0.4l3.3,1l-0.1,0.4L4.8,45.2z"/>
<path class="st1" d="M52.8,62.1c-1.4,0-5.5-1.2-6-2.2c0,0,0.2-0.5,0.4-1c0.2-0.6,3.5-10,4.2-13.3c0.5-1.7,0.9-3.3-0.2-5.3
	c-0.5-1-1.8-2-3.4-3c-0.7-0.5-1.4-0.9-2.2-1.2c1.4-3,11.6-24.9,10.8-27.6C55.7,6.2,41.9,0.2,40,0.9S25.3,29.6,26,31
	c0.7,1.4,2.3,1.9,2.3,1.9c-0.8,2.3-0.1,3.9,1.1,5.1l0.2,0.2c0.1,0,0.1,0.1,0.2,0.1l0.1,0.1c1.5,1.3,4.3,2.3,5.8,2.8
	c0.4,0.2,0.7,0.2,0.8,0.2c1.2,0.3,2.1,0.6,2.3,0.6c1.4,0.3,4.5,0.6,6.1,1.3c0.3,0.2,0.6,0.2,0.7,0.3c0,0,0.1,0.2-0.3,0.8
	c-1.1,2.9,0.4,8.1-3.6,14.6c0,0-1.8,2.7-1.9,4.1c0,0-0.1,1.4,1.8,1.8c1.6,0.2,10,0.5,12.1-1.3C54,63.2,54.1,62.1,52.8,62.1z
	 M44.4,33.8c-0.6,0.9-2,0.6-2.7,0.3c-4.5-1.8-8.4-2.4-8.4-2.4c-0.7-0.2-1.5-0.2-1.9-0.4c-1.8-0.3-2.7-0.3-3.1-1
	C28,29.5,39.7,3.1,40.9,3C42,2.9,53.6,8.2,54.2,9.5c0.5,1-7.2,19.9-9.6,24C44.5,33.6,44.5,33.7,44.4,33.8L44.4,33.8z"/>
<path d="M29.5,38c0.4,1.5,2.7,4.8,5.6,6.8c0.1,0.1,0.2,0.1,0.2,0.2l0.1,0.1c0.5-1.3,0.8-2.5,1-3.6C36.2,41.3,31.3,39.9,29.5,38
	L29.5,38z"/>
<path class="st3" d="M54.2,9.5C53.6,8.2,42.1,2.9,40.9,3C39.7,3.1,28,29.5,28.3,30.2s1.4,0.7,3.1,1c0.6,0.1,1.2,0.2,1.9,0.4
	c0,0,3.9,0.6,8.4,2.4c0.7,0.2,2.2,0.6,2.7-0.3c0.1-0.1,0.1-0.2,0.2-0.2C46.9,29.4,54.6,10.5,54.2,9.5L54.2,9.5z M47.5,18.8
	c-0.4,1.4-13.3,9.7-14.1,10.2c-0.7,0.4-1.1,0.5-1.4,0.5h-0.2c0-0.1,0.2-0.2,0.3-0.2c9.9-7.7,11.4-9,12.2-11.3
	c0.8-2.2-1.1-10.2-1.4-11.6V6.2c0-0.1,0.1-0.1,0.1-0.2c0.1-0.1,0.2,0,0.2,0.1s0.1,0.1,0.1,0.2C44,7.6,47.8,17.4,47.5,18.8L47.5,18.8
	z"/>
<path class="st1" d="M43.2,6c0,0-0.1-0.1-0.2-0.1c-0.1,0-0.1,0.1-0.1,0.2v0.2c0.3,1.3,2.3,9.4,1.4,11.6c-0.8,2.3-2.3,3.6-12.2,11.3
	c-0.2,0.1-0.3,0.2-0.3,0.2H32c0.3,0,0.7-0.1,1.4-0.5c0.7-0.5,13.8-8.8,14.1-10.2c0.4-1.3-3.5-11.1-4.2-12.5
	C43.2,6.1,43.2,6.1,43.2,6L43.2,6z"/>
<g>
	<path class="st4" d="M297.9,51.8l0.3-2.3c0.1-0.6,0.3-1,0.7-1.4L316,33.5c2.1-1.8,3.5-3.3,4.3-4.6c0.8-1.3,1.2-2.7,1.2-4.3
		c0-1.7-0.6-3.1-1.7-4c-1.1-1-2.7-1.5-4.6-1.5c-3.4,0-6.4,1.6-8.9,4.8c-0.5,0.6-1,0.6-1.6,0.2l-1.8-1.5c-0.6-0.6-0.6-1-0.1-1.6
		c1.7-2.1,3.6-3.7,5.9-4.8c2.3-1.1,4.7-1.7,7.2-1.7c3.3,0,5.9,0.9,7.8,2.7c1.9,1.8,2.9,4.1,2.9,7.2c0,2.5-0.5,4.6-1.5,6.4
		c-1,1.8-2.9,3.9-5.6,6.1l-13.8,11.5v0.1h16c0.4,0,0.7,0.1,0.9,0.3s0.2,0.5,0.2,0.9l-0.3,2.3c-0.1,0.7-0.6,1-1.3,1H299
		C298.1,53,297.7,52.6,297.9,51.8L297.9,51.8z"/>
	<path class="st1" d="M61.8,52l5.7-36.1c0.1-0.6,0.4-0.8,0.9-0.8h2.4c0.5,0,0.9,0.2,1,0.7l13,31H85l4.9-30.9
		c0.1-0.6,0.3-0.8,0.9-0.8h1.8c0.2,0,0.5,0.1,0.6,0.2c0.2,0.2,0.2,0.4,0.2,0.6l-5.7,36.2c-0.1,0.6-0.3,0.8-0.9,0.8h-2.2
		c-0.5,0-0.9-0.2-1-0.7L70.4,20.8h-0.1l-5,31.4C65.2,52.7,65,53,64.4,53h-1.8c-0.2,0-0.5-0.1-0.6-0.2C61.8,52.6,61.7,52.3,61.8,52z
		 M94.5,45.1c0-0.5,0.1-1.4,0.2-2.5l1.3-7.9c1.1-7.1,5-10.6,11.4-10.6c3.1,0,5.4,0.7,7,2.2c1.6,1.4,2.4,3.5,2.4,6.2
		c0,0.3-0.1,1.1-0.2,2.4l-0.6,4.3c-0.1,0.6-0.4,0.8-0.9,0.8H98.7l-0.4,2.6c-0.2,0.9-0.2,1.6-0.2,2.3c0,2,0.6,3.5,1.7,4.3
		c1.1,1,2.8,1.4,5.1,1.4c2.3,0,4.4-1,6.5-2.9c0.4-0.5,0.8-0.5,1.2,0.1l0.8,1c0.3,0.4,0.3,0.8-0.1,1.2c-2.5,2.4-5.4,3.6-8.8,3.6
		c-3.2,0-5.7-0.7-7.4-2.2C95.5,50,94.5,47.9,94.5,45.1L94.5,45.1z M99.1,37.1h13.7l0.3-1.8c0.2-0.8,0.2-1.6,0.2-2.5
		c0-1.9-0.5-3.4-1.4-4.3s-2.5-1.4-4.5-1.4c-2.3,0-4.2,0.6-5.5,2c-1.3,1.3-2.2,3.4-2.5,6.2L99.1,37.1L99.1,37.1z M121.6,25.7
		c-0.1-0.6,0.2-0.9,0.8-0.9h1.8c0.6,0,0.9,0.2,0.9,0.8l2.7,22.1h0.1L138,25.5c0.2-0.4,0.5-0.6,1-0.6h1.6c0.6,0,0.9,0.2,0.9,0.8
		l2.9,22h0.1l9.9-22.2c0.2-0.4,0.5-0.6,1-0.6h1.9c0.3,0,0.6,0.1,0.6,0.2c0.1,0.2,0.1,0.4,0,0.7l-12.1,26.5c-0.2,0.4-0.5,0.6-1,0.6
		h-2c-0.6,0-0.9-0.2-0.9-0.8L139,30.9h-0.1l-9.7,21.4c-0.2,0.4-0.5,0.6-1,0.6h-2.1c-0.6,0-0.9-0.2-0.9-0.8L121.6,25.7z M156.5,50.1
		c-0.3-0.4-0.3-0.8,0.1-1.2l1-1c0.4-0.5,0.8-0.4,1.2,0.1c1.7,1.8,4.1,2.7,7.4,2.7c2.3,0,4-0.6,5.4-1.6c1.3-1,2-2.5,2-4.3
		c0-1.3-0.5-2.3-1.4-3c-1-0.6-2.6-1.2-4.9-1.5c-2.9-0.5-5-1.2-6.2-2.3c-1.2-1-1.8-2.5-1.8-4.5c0-2.9,1-5.1,3.1-6.8
		c2-1.7,4.7-2.5,8.2-2.5c3.3,0,5.9,0.8,7.9,2.5c0.4,0.4,0.4,0.8,0.1,1.3l-1,1.1c-0.3,0.5-0.7,0.5-1.2,0.1c-1.4-1.3-3.3-1.9-5.8-1.9
		c-2.4,0-4.3,0.5-5.6,1.5c-1.4,1-2,2.4-2,4.3c0,1.2,0.4,2.1,1.3,2.7c0.9,0.6,2.4,1.1,4.7,1.4c3,0.5,5.1,1.2,6.4,2.3
		c1.3,1.1,1.9,2.7,1.9,4.7c0,2.9-1,5.2-2.9,6.9s-4.7,2.5-8,2.5C161.7,53.6,158.6,52.5,156.5,50.1L156.5,50.1z M180.9,52l6-38.2
		c0.1-0.6,0.3-0.8,0.9-0.8h1.8c0.2,0,0.5,0.1,0.6,0.2c0.2,0.2,0.2,0.5,0.2,0.8l-6,38c-0.1,0.6-0.4,0.8-1,0.8h-1.8
		c-0.2,0-0.5-0.1-0.6-0.2C180.9,52.6,180.8,52.3,180.9,52L180.9,52z M192.3,45.1c0-0.5,0.1-1.4,0.2-2.5l1.3-7.9
		c1.1-7.1,5-10.6,11.4-10.6c3.1,0,5.4,0.7,7,2.2c1.6,1.4,2.4,3.5,2.4,6.2c0,0.3-0.1,1.1-0.2,2.4l-0.6,4.3c-0.1,0.6-0.4,0.8-0.9,0.8
		h-16.3l-0.4,2.6c-0.2,0.9-0.2,1.6-0.2,2.3c0,2,0.6,3.5,1.7,4.3c1.1,1,2.8,1.4,5.1,1.4c2.3,0,4.4-1,6.5-2.9c0.4-0.5,0.8-0.5,1.2,0.1
		l0.8,1c0.3,0.4,0.3,0.8-0.1,1.2c-2.5,2.4-5.4,3.6-8.8,3.6c-3.2,0-5.7-0.7-7.4-2.2C193.3,50,192.3,47.9,192.3,45.1L192.3,45.1z
		 M196.9,37.1h13.7l0.3-1.8c0.2-0.8,0.2-1.6,0.2-2.5c0-1.9-0.5-3.4-1.4-4.3c-1-1-2.5-1.4-4.5-1.4c-2.3,0-4.2,0.6-5.5,2
		c-1.3,1.3-2.2,3.4-2.5,6.2L196.9,37.1L196.9,37.1z M251.7,25.1c-0.2-0.2-0.3-0.2-0.6-0.2h-8.6l1-6.7c0.1-0.2,0-0.5-0.1-0.6
		c-0.2-0.2-0.3-0.2-0.6-0.2H241c-0.6,0-0.9,0.2-0.9,0.8l-1,6.8H227l1-6.7c0.1-0.2,0-0.5-0.1-0.6c-0.2-0.2-0.3-0.2-0.6-0.2h-1.8
		c-0.6,0-0.9,0.2-0.9,0.8l-1,6.8h-3.5c-0.6,0-0.8,0.2-0.9,0.8l-0.2,1.3c-0.1,0.2,0,0.5,0.2,0.6c0.2,0.2,0.3,0.2,0.6,0.2h3.4
		l-2.7,17.1c-0.1,0.7-0.2,1.4-0.2,1.9c0,2.2,0.6,3.8,1.9,5c1.3,1.1,3.1,1.7,5.5,1.7c2,0,3.7-0.4,5.1-1.3c0.4-0.2,0.5-0.6,0.3-1.2
		l-0.5-1.2c-0.2-0.6-0.6-0.7-1.2-0.4c-1,0.6-2.1,1-3.2,1c-3,0-4.4-1.4-4.4-4.2c0-0.3,0-0.8,0.1-1.5l2.7-17.1h12.1l-2.7,17.1
		c-0.1,0.7-0.2,1.4-0.2,1.9c0,2.2,0.6,3.8,1.9,5c1.3,1.1,3.1,1.7,5.5,1.7c2,0,3.7-0.4,5.1-1.3c0.4-0.2,0.5-0.6,0.3-1.2l-0.5-1.2
		c-0.2-0.6-0.6-0.7-1.2-0.4c-1,0.6-2.1,1-3.2,1c-3,0-4.4-1.4-4.4-4.2c0-0.3,0-0.8,0.1-1.5l2.7-17.1h8.7c0.6,0,0.9-0.2,0.9-0.8
		l0.2-1.3C251.9,25.5,251.9,25.2,251.7,25.1L251.7,25.1z M253.7,45.1c0-0.5,0.1-1.4,0.2-2.5l1.3-7.9c1.1-7.1,5-10.6,11.4-10.6
		c3.1,0,5.4,0.7,7,2.2c1.6,1.4,2.4,3.5,2.4,6.2c0,0.3-0.1,1.1-0.2,2.4l-0.6,4.3c-0.1,0.6-0.4,0.8-0.9,0.8H258l-0.4,2.6
		c-0.2,0.9-0.2,1.6-0.2,2.3c0,2,0.6,3.5,1.7,4.3c1.1,1,2.8,1.4,5.1,1.4c2.3,0,4.4-1,6.5-2.9c0.4-0.5,0.8-0.5,1.2,0.1l0.8,1
		c0.3,0.4,0.3,0.8-0.1,1.2c-2.5,2.4-5.4,3.6-8.8,3.6c-3.2,0-5.7-0.7-7.4-2.2C254.6,50,253.7,47.9,253.7,45.1L253.7,45.1z
		 M258.3,37.1H272l0.3-1.8c0.2-0.8,0.2-1.6,0.2-2.5c0-1.9-0.5-3.4-1.4-4.3c-1-1-2.5-1.4-4.5-1.4c-2.3,0-4.2,0.6-5.5,2
		c-1.3,1.3-2.2,3.4-2.5,6.2L258.3,37.1L258.3,37.1z M279.1,52l2.9-18c0.6-3.3,1.6-5.8,3.4-7.4c1.7-1.6,4-2.4,7-2.4
		c2.5,0,4.6,0.6,6.3,1.9c0.5,0.3,0.5,0.7,0.1,1.3l-0.9,1.1c-0.3,0.5-0.7,0.5-1.2,0.1c-1-0.9-2.5-1.3-4.3-1.3c-2,0-3.6,0.6-4.7,1.8
		c-1.1,1.1-1.9,3-2.3,5.5l-2.9,17.8c-0.1,0.6-0.3,0.8-0.9,0.8h-1.8c-0.2,0-0.5-0.1-0.6-0.2C279.1,52.6,279,52.3,279.1,52L279.1,52z
		 M331,43c0-0.7,0.1-1.8,0.3-3.2l1.9-11.9c1.4-9,6.4-13.6,15-13.6c2.9,0,5.4,0.6,7.3,1.8s3.4,2.9,4.2,5.2c0.2,0.5,0,0.9-0.6,1.1
		l-1.5,0.6c-0.5,0.2-0.9,0.1-1.1-0.5c-1.4-3.4-4.3-5.1-8.6-5.1c-3.2,0-5.7,0.9-7.6,2.7s-3.1,4.6-3.6,8.4L335,38.9
		c-0.2,1.3-0.2,2.4-0.2,3.2c0,5.4,2.7,8,8.2,8c3.2,0,5.7-0.9,7.5-2.7s3-4.7,3.6-8.5l0.4-2.7h-8.2c-0.2,0-0.5-0.1-0.6-0.2
		c-0.2-0.2-0.2-0.4-0.1-0.6l0.2-1.5c0.1-0.6,0.3-0.8,0.9-0.8h11c0.3,0,0.5,0.1,0.6,0.2c0.2,0.2,0.2,0.4,0.2,0.6l-0.9,5.8
		c-1.4,9.1-6.4,13.7-14.8,13.7c-3.8,0-6.7-0.9-8.7-2.7C332,49.1,331,46.5,331,43L331,43z M362.7,45.3c0-0.9,0.1-1.7,0.2-2.5l1.4-8.1
		c1.1-7,5.1-10.5,11.7-10.5c3,0,5.3,0.7,6.9,2.2c1.6,1.4,2.4,3.5,2.4,6.2c0,0.9-0.1,1.8-0.2,2.7l-1.3,8c-1.1,6.9-5,10.4-11.7,10.4
		c-3.1,0-5.4-0.7-7-2.2C363.5,50.1,362.7,48,362.7,45.3L362.7,45.3z M366.2,45c0,1.9,0.5,3.3,1.5,4.2c1,0.9,2.5,1.4,4.5,1.4
		c2.3,0,4.2-0.6,5.5-2c1.3-1.4,2.2-3.4,2.7-6.2l1.1-7.1c0.2-0.8,0.2-1.6,0.2-2.4c0-3.8-2-5.7-6-5.7c-2.4,0-4.3,0.6-5.5,2
		c-1.3,1.3-2.2,3.4-2.7,6.2l-1.2,7.4C366.2,43.6,366.2,44.4,366.2,45L366.2,45z"/>
</g>
</svg>
