<?xml version="1.0" encoding="UTF-8" standalone="no"?>
<!-- Created with Inkscape (http://www.inkscape.org/) -->

<svg
   xmlns:dc="http://purl.org/dc/elements/1.1/"
   xmlns:cc="http://creativecommons.org/ns#"
   xmlns:rdf="http://www.w3.org/1999/02/22-rdf-syntax-ns#"
   xmlns:svg="http://www.w3.org/2000/svg"
   xmlns="http://www.w3.org/2000/svg"
   xmlns:xlink="http://www.w3.org/1999/xlink"
   xmlns:sodipodi="http://sodipodi.sourceforge.net/DTD/sodipodi-0.dtd"
   xmlns:inkscape="http://www.inkscape.org/namespaces/inkscape"
   width="200"
   height="200"
   viewBox="0 0 52.916665 52.916668"
   version="1.1"
   id="svg1812"
   inkscape:export-filename="/Users/nino/kitchen/callone-website/src/assets/images/client-logos/CRM-logos.png"
   inkscape:export-xdpi="96"
   inkscape:export-ydpi="96"
   inkscape:version="0.92.2 5c3e80d, 2017-08-06"
   sodipodi:docname="CRM-logos.svg">
  <defs
     id="defs1806" />
  <sodipodi:namedview
     id="base"
     pagecolor="#ffffff"
     bordercolor="#666666"
     borderopacity="1.0"
     inkscape:pageopacity="0.0"
     inkscape:pageshadow="2"
     inkscape:zoom="1.4"
     inkscape:cx="57.142857"
     inkscape:cy="107.75922"
     inkscape:document-units="mm"
     inkscape:current-layer="layer1"
     showgrid="false"
     units="px"
     inkscape:window-width="1280"
     inkscape:window-height="755"
     inkscape:window-x="0"
     inkscape:window-y="1"
     inkscape:window-maximized="1" />
  <metadata
     id="metadata1809">
    <rdf:RDF>
      <cc:Work
         rdf:about="">
        <dc:format>image/svg+xml</dc:format>
        <dc:type
           rdf:resource="http://purl.org/dc/dcmitype/StillImage" />
        <dc:title></dc:title>
      </cc:Work>
    </rdf:RDF>
  </metadata>
  <g
     inkscape:label="Layer 1"
     inkscape:groupmode="layer"
     id="layer1"
     transform="translate(0,-244.08332)">
    <path
       style="fill:#000000;stroke-width:0.05568709"
       d="m 3.9329108,273.33553 v -3.25769 H 3.5987883 3.2646658 v -0.72394 -0.72393 h 0.6655041 c 0.9975477,0 1.3480149,0.10988 1.4644371,0.45915 0.012884,0.0387 0.1192015,-0.006 0.27005,-0.11493 0.8866603,-0.63675 2.212142,-0.58142 3.039627,0.12688 0.9770518,0.83631 1.2552928,2.6946 0.6021538,4.0216 -0.321462,0.65313 -0.7964847,1.06971 -1.48497,1.3023 -0.5100124,0.1723 -1.2744356,0.13804 -1.7430941,-0.0781 -0.1829365,-0.0844 -0.3771453,-0.1937 -0.431575,-0.24297 -0.094555,-0.0856 -0.098962,-0.0321 -0.098962,1.19987 v 1.28944 H 4.7403734 3.9329108 Z m 3.302931,-0.27048 c 0.4430343,-0.18511 0.7482557,-0.68259 0.8003319,-1.30445 0.088201,-1.05324 -0.43803,-1.80528 -1.2632218,-1.80528 -0.6507519,0 -1.0987518,0.43139 -1.2249431,1.17955 -0.08532,0.50583 -0.034394,0.88938 0.1764066,1.32858 0.226422,0.47176 0.5314402,0.67717 1.0055406,0.67717 0.1787549,0 0.4064031,-0.0341 0.5058858,-0.0755 z m 5.6070012,0.27048 v -3.25769 H 12.50872 12.174599 v -0.72394 -0.72393 l 0.682166,10e-4 c 0.375192,7.5e-4 0.794933,0.0274 0.932758,0.0591 0.258482,0.0596 0.501184,0.23723 0.501184,0.36692 0,0.11115 0.06614,0.0909 0.324651,-0.0991 0.959392,-0.70555 2.469807,-0.51985 3.258735,0.40065 0.926326,1.08081 0.933719,3.15473 0.01533,4.30145 -0.260633,0.32542 -0.735722,0.63959 -1.163851,0.76964 -0.545608,0.16572 -1.271849,0.13087 -1.73727,-0.0833 -0.182936,-0.0842 -0.377146,-0.1934 -0.431575,-0.24266 -0.09455,-0.0856 -0.09897,-0.0321 -0.09897,1.19987 v 1.28943 h -0.807463 -0.807462 z m 3.518001,-0.39288 c 0.84694,-0.59525 0.780087,-2.36624 -0.107761,-2.85466 -0.487785,-0.26835 -1.20288,-0.11701 -1.514413,0.3205 -0.361145,0.50718 -0.414974,1.47778 -0.114295,2.06086 0.103936,0.20155 0.384026,0.49335 0.585168,0.60961 0.06454,0.0373 0.279677,0.0575 0.511596,0.0482 0.340739,-0.0138 0.435815,-0.0412 0.639704,-0.1845 z m 4.473095,1.48604 c -1.332407,-0.38354 -2.145581,-1.48419 -2.14313,-2.90077 0.0025,-1.43398 0.698957,-2.43316 2.003912,-2.87485 0.412151,-0.13949 1.297785,-0.14444 1.733109,-0.01 0.713546,0.22088 1.313413,0.81007 1.561284,1.53347 0.105596,0.30818 0.12844,0.49234 0.129307,1.04254 l 0.0011,0.66825 -1.879438,0.0147 c -2.132743,0.0166 -2.002214,-0.0201 -1.724999,0.48432 0.172328,0.31352 0.529156,0.61069 0.835412,0.69575 0.555934,0.15439 1.240257,0.01 1.794782,-0.37947 l 0.306559,-0.21515 0.345167,0.57717 0.345167,0.57717 -0.28976,0.21632 c -0.385918,0.28811 -0.669377,0.42524 -1.160018,0.56121 -0.52026,0.14417 -1.37452,0.14832 -1.858409,0.009 z m 1.639016,-3.91928 c -0.07888,-0.27631 -0.226879,-0.44651 -0.513145,-0.59009 -0.328812,-0.16493 -0.695971,-0.12881 -1.064185,0.10474 -0.208964,0.13252 -0.479339,0.49144 -0.479339,0.6363 0,0.0165 0.474375,0.0301 1.054168,0.0301 h 1.054167 z m 3.53087,3.9114 c -1.063143,-0.34635 -1.743196,-1.46492 -1.743196,-2.86727 0,-0.91704 0.279506,-1.69909 0.803655,-2.24861 0.369259,-0.38713 0.715154,-0.58567 1.23235,-0.70736 0.627136,-0.14757 1.454926,-0.0316 1.868752,0.26174 0.0813,0.0577 0.162741,0.10474 0.180984,0.10474 0.01824,0 0.03317,-0.23807 0.03317,-0.52903 V 267.906 h -0.334123 -0.334122 v -0.72977 -0.72977 l 0.879562,0.0197 c 0.954396,0.0215 1.074117,0.0557 1.277537,0.36607 0.08986,0.13708 0.100595,0.40617 0.126071,3.15946 l 0.02784,3.00962 0.3202,0.0167 0.320201,0.0167 v 0.6933 0.69331 l -0.821385,-1.1e-4 c -0.931354,-1.1e-4 -1.144484,-0.0613 -1.300457,-0.37347 l -0.08927,-0.17866 -0.152901,0.15959 c -0.0841,0.0878 -0.307048,0.22967 -0.49545,0.31532 -0.464965,0.21138 -1.279451,0.24609 -1.799426,0.0767 z m 1.691,-1.39707 c 0.460336,-0.22285 0.706673,-0.74774 0.704406,-1.50095 -0.0012,-0.39772 -0.02632,-0.53058 -0.152382,-0.80594 -0.08302,-0.18134 -0.193631,-0.37692 -0.245799,-0.4346 -0.18115,-0.20033 -0.513914,-0.32693 -0.859281,-0.32693 -0.644274,0 -1.108098,0.46426 -1.226215,1.22736 -0.121936,0.78776 0.148892,1.54563 0.654155,1.83051 0.298572,0.16835 0.789634,0.17296 1.125116,0.0108 z m 17.304613,1.4313 c -1.365687,-0.33176 -2.252632,-1.48918 -2.252632,-2.93961 0,-1.36911 0.716235,-2.41848 1.938443,-2.84003 0.51925,-0.1791 1.449871,-0.17835 1.909828,10e-4 0.473504,0.18518 0.819648,0.4406 1.084324,0.80014 0.409885,0.55679 0.601532,1.29179 0.539223,2.06802 l -0.02973,0.37042 h -1.885737 c -2.14711,0 -2.017407,-0.0365 -1.719024,0.48376 0.488749,0.85218 1.592723,0.99433 2.580118,0.33221 l 0.35638,-0.23898 0.340521,0.56074 0.340519,0.56072 -0.207116,0.18458 c -0.25983,0.23157 -0.884817,0.53937 -1.319585,0.64989 -0.39505,0.10043 -1.27505,0.10388 -1.675529,0.006 z m 1.55863,-3.88994 c -0.21843,-0.7081 -0.898715,-0.95315 -1.568377,-0.56496 -0.199118,0.11542 -0.516586,0.51696 -0.516586,0.65338 0,0.0203 0.477813,0.0369 1.061807,0.0369 h 1.061808 z m -35.942708,3.75878 c -0.378439,-0.18904 -0.389626,-0.25698 -0.389723,-2.3666 l -8.6e-5,-1.87944 H 9.8914278 9.5573048 v -0.72394 -0.72393 l 0.7378542,3.3e-4 c 1.092173,4.5e-4 1.363775,0.10766 1.484172,0.5858 0.03808,0.1512 0.06114,0.9162 0.06114,2.02798 v 1.78517 h 0.334122 0.334122 v 0.69608 0.6961 l -0.849227,-1.1e-4 c -0.696939,-7e-5 -0.88418,-0.0176 -1.044133,-0.0974 z m 20.381471,-2.07147 v -2.16902 l -0.3202,-0.0167 -0.320201,-0.0167 v -0.69609 -0.69609 l 0.835306,0.001 c 0.685731,10e-4 0.867546,0.0189 1.015347,0.0984 0.212104,0.11418 0.348555,0.35092 0.350077,0.60738 l 0.0011,0.18375 0.199407,-0.23784 c 0.391558,-0.46704 1.018731,-0.76342 1.536427,-0.72608 l 0.238876,0.0172 0.01545,0.79354 0.01545,0.79354 h -0.401601 c -0.495605,0 -0.790063,0.12876 -1.100198,0.48109 -0.383966,0.4362 -0.411448,0.57842 -0.437065,2.26149 l -0.02267,1.48964 h -0.802768 -0.802749 z m 4.761246,2.1217 c -0.150958,-0.0491 -0.262188,-0.12699 -0.361966,-0.25351 -0.06937,-0.0879 -0.08826,-0.43741 -0.111374,-2.06042 l -0.02784,-1.95451 -0.264514,-0.017 -0.264514,-0.0169 v -0.72708 -0.72706 l 0.793541,0.0226 c 0.851031,0.0244 1.080273,0.0877 1.223466,0.33832 0.05257,0.092 0.07857,0.63609 0.09911,2.07377 l 0.02785,1.94905 0.3202,0.0167 0.320201,0.0167 v 0.6933 0.69331 l -0.821384,-0.005 c -0.451761,-0.003 -0.871503,-0.0219 -0.932759,-0.0418 z m 2.734068,-1.41522 c -0.303307,-0.80357 -0.675019,-1.78054 -0.826028,-2.17105 l -0.27456,-0.71 h -0.19026 -0.190261 v -0.73095 -0.73094 l 0.62648,0.025 c 0.672946,0.0268 0.902478,0.10011 1.058382,0.33808 0.04756,0.0726 0.356204,0.88747 0.685872,1.81084 l 0.599399,1.67884 0.595754,-1.66717 c 0.327666,-0.91695 0.63693,-1.73002 0.687255,-1.80683 0.160718,-0.24529 0.400583,-0.32598 1.051052,-0.3536 l 0.598637,-0.0254 v 0.73108 0.7311 h -0.192945 c -0.126851,0 -0.210736,0.0334 -0.244876,0.0974 -0.02857,0.0536 -0.332537,0.8367 -0.675502,1.74023 -0.342965,0.90352 -0.698187,1.83698 -0.789383,2.07434 l -0.165811,0.43158 -0.900868,-7.5e-4 -0.900867,-7.4e-4 -0.55147,-1.46105 z m 9.934743,-4.02264 c 0,-0.26916 -0.0135,-0.30628 -0.111375,-0.30628 -0.06125,0 -0.111374,-0.0251 -0.111374,-0.0557 0,-0.0306 0.137825,-0.0557 0.30628,-0.0557 0.168453,0 0.306278,0.0251 0.306278,0.0557 0,0.0306 -0.05012,0.0557 -0.111374,0.0557 -0.09788,0 -0.111374,0.0371 -0.111374,0.30628 0,0.23512 -0.01941,0.30628 -0.08353,0.30628 -0.06413,0 -0.08353,-0.0711 -0.08353,-0.30628 z m 0.445496,-0.0557 c 0,-0.31959 0.01249,-0.36196 0.106737,-0.36196 0.07563,0 0.130538,0.069 0.188422,0.23666 0.05319,0.1541 0.09308,0.20753 0.114362,0.15314 0.01797,-0.0459 0.05786,-0.15244 0.08863,-0.23666 0.03588,-0.0982 0.0964,-0.15314 0.168714,-0.15314 0.101651,0 0.112752,0.0357 0.112752,0.36196 0,0.28463 -0.01785,0.36197 -0.08354,0.36197 -0.06045,0 -0.08474,-0.0654 -0.08793,-0.23668 l -0.0044,-0.23667 -0.0847,0.23946 c -0.09775,0.27634 -0.176471,0.27857 -0.274318,0.008 l -0.06921,-0.19153 -0.0042,0.20882 c -0.003,0.14662 -0.02912,0.20883 -0.08777,0.20883 -0.06568,0 -0.08354,-0.0774 -0.08354,-0.36197 z m -38.591147,-1.67227 v -0.75345 l 0.71001,0.0156 0.710011,0.0156 0.01554,0.73785 0.01554,0.73786 h -0.72555 -0.725548 z m 25.059187,0.002 v -0.75177 h 0.696088 0.696089 v 0.75177 0.75178 h -0.696089 -0.696088 z"
       id="path2530"
       inkscape:connector-curvature="0" />
    <path
       style="fill:#000000;stroke-width:0.08466667"
       d=""
       id="path2597"
       inkscape:connector-curvature="0" />
  </g>
</svg>
