<svg width="75" height="24" viewBox="0 0 75 24" fill="none" xmlns="http://www.w3.org/2000/svg">
<g clip-path="url(#clip0)">
<path d="M55.9753 9.4148L52.7161 12.9261L60.247 21.378V9.4148H55.9753ZM33.4321 10.1341V20.9615L40.5433 12.8599L37.2099 9.50945C39.9383 8.96051 42.4939 8.00459 44.7284 6.68902L46.8766 8.78068L50.9507 4.05789H74.1235V9.4148H68.9136V22.4948H50.9507L46.3581 17.242L41.5803 22.4948H24.6914V18.8983C23.4815 21.4253 19.642 22.9964 12.0494 22.9964C0.777833 22.9964 0.222278 19.9394 0.0494385 16.4469H8.96302C8.98771 17.488 9.22228 18.2452 9.79018 18.7468C10.4322 19.2768 11.3457 19.5513 12.2963 19.504C14.1112 19.504 16.0618 19.1159 16.0618 17.6016C16.0618 17.2893 15.926 16.9864 15.6914 16.7403C14.4939 15.5289 4.56796 14.6392 1.77783 12.4245C0.654377 11.5349 0.308698 10.2098 0.308698 9.13087C0.308698 5.02327 4.48154 3.14929 12.7902 3.14929C21.6173 3.14929 23.7161 5.51542 23.8272 9.40534H15.247C15.1852 8.36424 14.7778 7.54083 14.1852 7.16225C13.6544 6.79313 12.9383 6.60384 12.2223 6.6417C10.3828 6.67009 9.40746 7.27582 9.40746 8.22227C9.39511 8.5346 9.53092 8.83747 9.77783 9.08355C11.1235 10.2666 20.7284 11.109 23.4939 13.3615C24.0247 13.7779 24.4321 14.2796 24.6914 14.819V10.4654C27.6173 10.5695 30.5433 10.4559 33.4321 10.1341Z" fill="white"/>
<path d="M24.6914 4.04876C33.5927 4.55038 38.605 2.61016 40.3211 0.0831299H49.3951C46.6667 6.14042 38.1482 9.93569 24.6791 9.42461V4.04876H24.6914Z" fill="white"/>
</g>
<defs>
<clipPath id="clip0">
<rect width="74.1975" height="22.9988" fill="white" transform="translate(0 0.0639648)"/>
</clipPath>
</defs>
</svg>
