<svg width="99" height="28" viewBox="0 0 99 28" fill="none" xmlns="http://www.w3.org/2000/svg">
<g clip-path="url(#clip0)">
<path d="M44.4812 17.4301C44.4812 18.0599 44.7441 18.5512 45.2042 18.8662C45.6971 19.1937 46.2887 19.37 46.9459 19.37C47.6361 19.37 48.2112 19.1937 48.6877 18.8536C49.1807 18.5134 49.4107 18.0222 49.4107 17.4301V6.69732C49.4107 6.08006 49.1807 5.61397 48.6549 5.27385C48.1619 4.90853 47.5704 4.74477 46.9459 4.74477C46.2887 4.74477 45.6971 4.90853 45.2042 5.27385C44.7276 5.61397 44.4812 6.08006 44.4812 6.69732V17.4301ZM46.9788 0.94043C47.9319 0.94043 48.8356 1.0664 49.6572 1.34354C50.4788 1.60808 51.2347 2.01119 51.9412 2.52767C52.615 3.03156 53.1408 3.57323 53.4858 4.1653C53.8638 4.90853 54.0281 5.75254 54.0281 6.69732V17.4301C54.0281 19.0677 53.4037 20.4156 52.1384 21.499C51.6455 21.9399 51.0539 22.2548 50.4131 22.5067C49.4107 22.8847 48.2276 23.0484 46.8638 22.998C45.8779 22.9224 45.1056 22.5823 44.4976 21.9147V27.5456H39.9131V6.39499C39.9131 4.89593 40.6197 3.62362 42.0492 2.54027C42.7065 2.03638 43.4131 1.65847 44.1854 1.38133C45.0563 1.079 45.9929 0.94043 46.9788 0.94043Z" fill="white"/>
<path d="M37.399 6.77283H32.8145V22.6326H37.399V6.77283Z" fill="white"/>
<path d="M28.3121 2.66614C29.7417 3.7243 30.4483 4.98402 30.4483 6.44529V22.6326H25.8473V6.69723C25.8473 6.15555 25.6173 5.68946 25.1243 5.29895C24.6314 4.92103 24.0398 4.71948 23.3661 4.71948C22.676 4.71948 22.1173 4.92103 21.6243 5.27375C21.1314 5.65167 20.8684 6.11776 20.8684 6.69723V22.6326H16.2839V6.53347C16.2839 5.03441 16.9741 3.7621 18.4201 2.67874C19.8332 1.59539 21.4929 1.05371 23.3497 1.05371C25.2393 1.06631 26.899 1.59539 28.3121 2.66614Z" fill="white"/>
<path d="M98.6079 7.25211C98.6079 8.09612 97.6877 8.80156 96.5867 8.80156H90.244C89.1431 8.80156 88.2229 8.09612 88.2229 7.25211V2.4148C88.2229 1.5582 89.1431 0.865356 90.244 0.865356H96.5867C97.6877 0.865356 98.6079 1.5456 98.6079 2.4148V7.25211Z" fill="white"/>
<path d="M36.5938 1.00342C37.1196 1.00342 37.5304 1.30575 37.5304 1.70886V3.7244C37.5304 4.11491 37.1032 4.44244 36.5938 4.44244H33.7346C33.2088 4.44244 32.8145 4.11491 32.8145 3.7244V1.70886C32.8145 1.30575 33.2088 1.00342 33.7346 1.00342H36.5938Z" fill="white"/>
<path d="M84.4271 10.2371C83.0468 9.26712 81.3543 8.72544 79.3825 8.64986C78.643 8.57427 78.0515 8.36012 77.6078 8.0074C77.1641 7.62949 76.9341 7.17599 76.9341 6.65951C76.9341 6.15562 77.1477 5.68953 77.5914 5.28642C78.0022 4.87072 78.6266 4.66916 79.3989 4.66916C80.7792 4.66916 81.6008 5.17305 81.8637 6.18082H86.4646C86.4646 4.68176 85.7416 3.44724 84.312 2.47726C82.8825 1.50728 81.2393 1.01599 79.3989 1.01599C77.4599 1.01599 75.8167 1.55767 74.42 2.65362C73.0562 3.73697 72.3824 5.08487 72.3824 6.64691C72.3824 8.23415 73.0562 9.56945 74.4036 10.6276C75.7674 11.711 77.4106 12.2652 79.3989 12.303C80.2205 12.303 80.8285 12.4416 81.2886 12.7187C81.7158 13.0085 81.9294 13.4494 81.9294 14.0666V17.1907C81.9294 17.7324 81.7322 18.1985 81.3379 18.6142C80.9435 19.0047 80.3026 19.2063 79.4153 19.2063C78.2487 19.2063 77.4928 18.8158 77.1148 17.9969L76.9998 17.5308V14.4193H72.3989V17.3545L72.4482 17.934V17.9969C72.7111 19.2566 73.4834 20.3778 74.7322 21.31C76.0961 22.3304 77.6735 22.8468 79.4153 22.8468C81.535 22.8468 83.2604 22.3429 84.5585 21.31C85.8731 20.3022 86.5303 19.0173 86.5303 17.4679V14.0162C86.4975 12.4668 85.7909 11.2071 84.4271 10.2371Z" fill="white"/>
<path d="M12.0938 10.2371C10.7135 9.26712 9.02105 8.72544 7.04922 8.64986C6.30978 8.57427 5.71823 8.36012 5.25814 8.0074C4.81448 7.62949 4.58443 7.17599 4.58443 6.65951C4.58443 6.15562 4.79805 5.68953 5.24171 5.28642C5.66894 4.87072 6.27692 4.66916 7.04922 4.66916C8.4295 4.66916 9.2511 5.17305 9.51401 6.18082H14.1149C14.1149 4.68176 13.3919 3.44724 11.9459 2.47726C10.5164 1.50728 8.87316 1.01599 7.03279 1.01599C5.09382 1.01599 3.45063 1.55767 2.05392 2.65362C0.690066 3.73697 0.0163574 5.08487 0.0163574 6.64691C0.0163574 8.23415 0.706498 9.56945 2.03748 10.6276C3.40133 11.711 5.04453 12.2652 7.03279 12.303C7.85438 12.303 8.46237 12.4416 8.90603 12.7187C9.33326 13.0085 9.54687 13.4494 9.54687 14.0666V17.1907C9.54687 17.7324 9.36612 18.1985 8.95532 18.6142C8.56096 19.0047 7.92011 19.2063 7.03279 19.2063C5.86612 19.2063 5.11025 18.8158 4.73232 17.9969L4.6173 17.5308V14.4193H0.0163574V17.3545L0.0656532 17.934V17.9969C0.328564 19.2566 1.10086 20.3778 2.33326 21.31C3.69711 22.3304 5.27457 22.8468 7.03279 22.8468C9.15251 22.8468 10.8779 22.3429 12.176 21.31C13.4905 20.3022 14.1478 19.0173 14.1478 17.4679V14.0162C14.1478 12.4668 13.4412 11.2071 12.0938 10.2371Z" fill="white"/>
<path d="M60.7816 6.62164C60.7816 6.05477 61.0117 5.57608 61.5046 5.19817C61.9976 4.83285 62.6056 4.64389 63.3121 4.64389C63.9694 4.64389 64.5774 4.83285 65.0703 5.19817C65.5962 5.57608 65.8262 6.04218 65.8262 6.62164V8.66238H60.7816V6.62164ZM70.3778 11.9502V6.3697C70.3778 4.90843 69.6713 3.63612 68.2253 2.59056C66.7957 1.5324 65.1196 0.990723 63.2464 0.990723C61.2088 0.990723 59.5164 1.50721 58.2018 2.54017C56.8873 3.58573 56.23 4.88324 56.23 6.47048V17.3922C56.23 18.9542 56.8873 20.2769 58.2182 21.2973C59.5657 22.3429 61.2417 22.8468 63.2628 22.8468C65.2018 22.8468 66.8614 22.3555 68.1595 21.4107C69.5069 20.4533 70.23 19.2188 70.345 17.7071V14.5201H65.6947V17.5812L65.6783 17.7575C65.3825 18.7149 64.5445 19.1936 63.23 19.1936C62.5563 19.1936 61.9811 19.0172 61.4882 18.6393C60.9952 18.2614 60.7652 17.7953 60.7652 17.2158V11.9628H70.3778V11.9502Z" fill="white"/>
</g>
<defs>
<clipPath id="clip0">
<rect width="98.7559" height="26.8319" fill="white" transform="translate(0 0.764038)"/>
</clipPath>
</defs>
</svg>
