<?xml version="1.0" encoding="utf-8"?>
<!-- Generator: Adobe Illustrator 23.0.1, SVG Export Plug-In . SVG Version: 6.00 Build 0)  -->
<svg version="1.1" id="Layer_1" xmlns="http://www.w3.org/2000/svg" xmlns:xlink="http://www.w3.org/1999/xlink" x="0px" y="0px"
	 viewBox="0 0 102.1 37.8" style="enable-background:new 0 0 102.1 37.8;" xml:space="preserve">
<style type="text/css">
	.st0{fill:none;}
	.st1{fill:#E06430;}
	.st2{fill:#474141;}
</style>
<g>
	<path class="st0" d="M51.1,7.9c-0.4-1.1-1.6-1.7-2.8-1.5c-1.1,0.2-2,1.1-2,2.2c0,4.9,0,9.8,0,14.7c0,0.9,0.5,1.7,1.3,2.1
		c0.9,0.4,2,0.3,2.7-0.3c0.6-0.5,0.9-1.2,0.9-2c0-4.5,0-9,0-13.5C51.2,9.1,51.3,8.5,51.1,7.9z"/>
	<path class="st0" d="M65.9,6.3c-0.5-0.1-1.1-0.1-1.6,0.1c-0.9,0.4-1.5,1.3-1.5,2.2c0,0.9,0,1.9,0,2.8c1.7,0,3.4,0,5.1,0
		c0-0.9,0-1.8,0-2.7C67.9,7.6,67,6.5,65.9,6.3z"/>
	<path class="st1" d="M101.1,8.3c0-1.7,0-3.4,0-5.1c0-1.1-0.9-2.1-2-2.1c-2,0-4.1,0-6.1,0c-0.3,0-0.6,0-0.9,0.1
		c-0.9,0.2-1.6,1-1.6,2c0,2,0,4.1,0,6.1c0,0.4,0,0.9,0.2,1.3c0.3,0.7,1.1,1.2,1.8,1.2c2,0,4,0,6,0c0.3,0,0.7,0,1-0.1
		c0.7-0.2,1.2-0.7,1.4-1.4C101.2,9.6,101.1,9,101.1,8.3z"/>
	<path class="st1" d="M39.2,3.6c0-0.5,0.1-1.1-0.1-1.6c-0.1-0.4-0.6-0.7-1-0.7c-1,0-2.1-0.1-3.1,0c-0.4,0.1-0.7,0.4-0.7,0.8
		c0,0.8,0,1.6,0,2.4c0,0.3,0,0.6,0.1,0.9c0.2,0.3,0.5,0.4,0.9,0.4c0.9,0,1.9,0,2.8,0c0.4,0,0.9-0.3,0.9-0.8
		C39.3,4.6,39.2,4.1,39.2,3.6z"/>
	<path class="st2" d="M55.3,5.4c-0.6-1.2-1.5-2.2-2.7-3c-1.5-1-3.3-1.4-5.1-1.1c-1.8,0.3-3.4,1.4-4.5,2.8c-1,1.2-1.5,2.7-1.5,4.2
		c0,9.4,0,18.8,0,28.2c1.6,0,3.1,0,4.7,0c0-2.4,0-4.9,0-7.3c0.6,0.7,1.5,1.3,2.5,1.3c1.2,0,2.3-0.1,3.4-0.6c1-0.5,1.9-1.3,2.5-2.2
		c0.9-1.4,1.3-3.1,1.3-4.8c0-4.8,0-9.6,0-14.4C55.9,7.5,55.8,6.4,55.3,5.4z M51.2,23.1c0,0.7-0.3,1.5-0.9,2
		c-0.7,0.6-1.8,0.7-2.7,0.3c-0.8-0.3-1.3-1.2-1.3-2.1c0-4.9,0-9.8,0-14.7c0-1.1,0.9-2.1,2-2.2c1.1-0.2,2.4,0.4,2.8,1.5
		c0.2,0.6,0.2,1.2,0.2,1.8C51.2,14.2,51.2,18.7,51.2,23.1z"/>
	<path class="st2" d="M14.1,14.3c-1.4-1.7-3.4-2.7-5.6-2.8c-0.8,0-1.5-0.3-2.1-0.9c-1-1.1-0.8-2.9,0.3-3.8c0.8-0.6,1.9-0.6,2.8-0.2
		c0.7,0.3,1.1,1,1.2,1.7c1.6,0,3.1,0,4.7,0c0-1.4-0.4-2.7-1.2-3.8c-1.3-1.7-3.2-2.9-5.4-3c-0.6-0.1-1.2,0-1.9,0.1
		C5.4,1.7,3.8,2.7,2.8,4.1C0.4,7,0.6,11.7,3.4,14.3c1.2,1.3,3,2,4.9,2c0.6,0,1.3,0.1,1.9,0.5c0.5,0.4,0.7,1,0.7,1.6
		c0,1.4,0,2.7,0,4.1c0.1,1-0.3,2.3-1.4,2.7c-0.8,0.3-1.9,0.3-2.6-0.2c-0.6-0.5-0.9-1.3-0.9-2c0-1.3,0-2.6,0-3.9c-1.6,0-3.2,0-4.7,0
		c0,1.4,0,2.8,0,4.2c0.2,2.6,1.8,5,4.1,6.2c1.3,0.7,2.9,0.9,4.4,0.7c1.7-0.2,3.3-1.1,4.4-2.5c1-1.3,1.5-2.9,1.5-4.5
		c0-1.6,0-3.2,0-4.7C15.5,17,15.1,15.5,14.1,14.3z"/>
	<path class="st2" d="M72.5,11.5c0-1.1,0-2.2,0-3.3c0-1.4-0.5-2.8-1.4-3.9c-1-1.3-2.4-2.3-4-2.7c-1.4-0.3-2.8-0.3-4.2,0.1
		c-1.7,0.5-3.1,1.7-3.9,3.3c-0.5,1-0.8,2.2-0.8,3.4v14.3c0,0.7,0,1.4,0.1,2.1c0.3,1.8,1.5,3.5,3.1,4.5c1.6,1,3.5,1.3,5.4,1
		c1.5-0.2,2.8-1,3.9-2.1c1.2-1.3,1.9-3,1.9-4.8c0-1.4,0-2.8,0-4.1c-1.6,0-3.2,0-4.7,0c0,1.3,0,2.5,0,3.8c0,0.9-0.5,1.9-1.4,2.2
		c-0.8,0.3-1.7,0.3-2.4-0.2c-0.7-0.4-1.2-1.3-1.2-2.1c0-2.3,0-4.7,0-7c3.2,0,6.5,0,9.7,0C72.6,14.4,72.5,13,72.5,11.5z M62.8,11.5
		c0-0.9,0-1.9,0-2.8c0-0.9,0.6-1.8,1.5-2.2c0.5-0.2,1-0.2,1.6-0.1c1.1,0.2,2,1.3,2,2.4c0,0.9,0,1.8,0,2.7
		C66.2,11.5,64.5,11.4,62.8,11.5z"/>
	<path class="st2" d="M87.6,14.5c-1.1-1.5-2.9-2.5-4.7-2.9c-0.7-0.2-1.5-0.1-2.2-0.4c-0.7-0.3-1.3-1-1.4-1.8
		c-0.1-0.6-0.1-1.3,0.2-1.8C79.7,7,80.3,6.5,81,6.3c0.9-0.2,1.9-0.1,2.5,0.6c0.4,0.4,0.5,0.9,0.7,1.3c1.6,0,3.1,0,4.7,0
		c0-1.1-0.2-2.2-0.8-3.2c-0.8-1.4-2-2.4-3.4-3.1c-1.6-0.7-3.4-0.8-5.1-0.4c-1.7,0.5-3.2,1.8-4.1,3.3c-0.9,1.6-1.2,3.5-0.9,5.3
		c0.2,1.4,0.8,2.7,1.8,3.7c1.3,1.5,3.2,2.4,5.1,2.4c0.7,0,1.5,0.1,2.1,0.6c0.5,0.4,0.6,1.1,0.6,1.7c0,1.4,0,2.9,0,4.3
		c-0.1,0.9-0.5,1.8-1.3,2.2c-0.9,0.3-1.9,0.3-2.7-0.2c-0.6-0.5-1-1.3-1-2c0-1.3,0-2.6,0-3.9c-1.6,0-3.2,0-4.7,0c0,0.9,0,1.7,0,2.6
		c0,0.9-0.1,1.8,0.2,2.7c0.4,1.9,1.6,3.5,3.2,4.7c1.1,0.8,2.5,1.2,3.8,1.2c1.9,0,3.8-0.6,5.1-2c1.3-1.3,2-3.1,2.1-4.9
		c0-1.6,0-3.2,0-4.8C88.9,17.2,88.5,15.7,87.6,14.5z"/>
	<path class="st2" d="M31.1,5.1c-0.9-1.4-2.2-2.6-3.8-3.3c-1.4-0.6-3.1-0.6-4.6-0.2c-1.6,0.5-2.9,1.6-3.9,2.9
		c-0.9,1.2-1.3,2.7-1.3,4.2c0,7.1,0,14.1,0,21.2c1.6,0,3.1,0,4.7,0c0-7.1,0-14.1,0-21.2c0-1.1,0.8-2.2,1.9-2.4
		c0.7-0.1,1.4-0.1,2,0.3c0.8,0.5,1.2,1.5,1.2,2.4c0,7,0,13.9,0,20.9c1.6,0,3.1,0,4.7,0c0-7.2,0-14.3,0-21.5
		C32.1,7.3,31.7,6.2,31.1,5.1z"/>
	<path class="st2" d="M34.4,9c0,7,0,14,0,21c1.6,0,3.1,0,4.7,0c0-7,0-14,0-21.1C37.5,9,36,9,34.4,9z"/>
</g>
</svg>
