<svg xmlns="http://www.w3.org/2000/svg" version="1.1" x="0" y="0" viewBox="0 0 652 76.5" enable-background="new 0 0 652 76.5" xml:space="preserve"><polygon fill-rule="evenodd" clip-rule="evenodd" fill="#8FAFC5" points="0 19.4 38.6 19.4 64.6 71.2 26 71.2 "/><polygon fill-rule="evenodd" clip-rule="evenodd" fill="#225E8F" points="539.2 71 572.8 71 572.8 33.1 573 33.1 585.6 71 605.4 71 617.8 33.1 618 33.1 618 71 651.7 71 651.7 0 606.4 0 595.8 36.7 595.6 36.7 584.7 0 539.2 0 "/><path fill-rule="evenodd" clip-rule="evenodd" fill="#225E8F" d="M529.2 0h-34.9v44.3c0 6.7-3.8 8-7.4 8 -3.8 0-7.7-1.3-7.7-8V0h-35.8v46.3c0 22.7 22.5 26.7 43.1 26.7 21.4 0 42.9-4.1 42.9-26.7V0zM417 0h-56.7l-22.6 71h36.5l2.7-9h23.7l2.3 9h37L417 0zM380.9 42.5l7.4-26h0.3l7.6 26H380.9zM308.4 41.7c11.1-0.9 22-6.7 22-20.8C330.4 7.5 321 0 304.9 0h-67.1v71h35.8V48.1h0.2L290.6 71H333L308.4 41.7zM284.7 33.7h-11V19.5h11.6c6.3 0 9.3 1.8 9.3 6.3C294.6 31 292.8 33.7 284.7 33.7z"/><polygon fill-rule="evenodd" clip-rule="evenodd" fill="#225E8F" points="171.3 71 207.1 71 207.1 27.9 228.1 27.9 228.1 0 150.3 0 150.3 27.9 171.3 27.9 "/><rect x="104.5" y="0" fill-rule="evenodd" clip-rule="evenodd" fill="#225E8F" width="35.8" height="71"/><polygon fill-rule="evenodd" clip-rule="evenodd" fill="#225E8F" points="59.7 0.1 98.3 0.1 64.6 71.1 26 71.1 "/></svg>