<svg width="464" height="464" viewBox="0 0 464 464" fill="none" xmlns="http://www.w3.org/2000/svg">
<mask id="mask0" style="mask-type:alpha" maskUnits="userSpaceOnUse" x="0" y="0" width="464" height="464">
<circle cx="232" cy="232" r="232" fill="#C4C4C4"/>
</mask>
<g mask="url(#mask0)">
<path d="M226.895 107.977L218.872 200.623L155 180.527L201.284 250.352L157.16 301.444L205.913 305.191L195.422 365.138L270.402 288.501L302.184 332.099L297.556 281.688L346 252.396L313.292 232.981L326.869 165.881L274.722 190.405L226.895 107.977Z" fill="#86EC16"/>
<path d="M231.676 280.923L200 281.445L200.495 276.741C200.825 266.286 201.485 244.959 201.485 243.286C201.485 241.195 203.465 239.627 204.454 238.582C205.444 237.536 206.434 238.582 207.424 240.15C208.216 241.404 208.744 245.9 208.909 247.991C209.569 245.726 211.087 240.673 211.879 238.582C212.868 235.968 214.848 235.445 215.838 235.445C216.828 235.445 220.293 237.536 223.262 238.582C226.232 239.627 227.717 246.423 227.717 247.991C227.717 249.559 226.232 255.832 229.696 262.627C232.468 268.063 232.171 277.089 231.676 280.923Z" fill="white"/>
<path d="M127.463 247.126C133.467 255.176 126.965 259.16 121.61 256.463L97.4734 253.239C95.2373 253.229 90.8591 252.14 91.2348 247.862C91.6104 243.584 95.2807 242.827 97.0689 242.983C98.6659 235.411 103.429 237.066 106.253 239.233C109.864 231.224 115.809 235.485 118.33 238.616C128.357 236.519 129.041 244.012 127.463 247.126Z" fill="white" stroke="black" stroke-width="2"/>
<path d="M131.531 281.046C125.92 292.098 112.381 296.524 101.291 290.928C90.2015 285.333 85.7641 271.836 91.3757 260.784C96.9873 249.732 110.525 245.306 121.615 250.902C132.705 256.497 137.143 269.994 131.531 281.046Z" fill="white" stroke="black" stroke-width="2"/>
<path d="M123.55 267.953C123.087 265.63 120.955 264.094 118.788 264.524C116.621 264.953 115.24 267.184 115.703 269.508" stroke="black" stroke-width="2"/>
<path d="M129.37 267.925C128.939 265.765 130.346 263.666 132.513 263.237" stroke="black" stroke-width="2"/>
<path d="M104.758 277.009C101.876 277.167 99.4008 274.787 99.2299 271.693C99.0589 268.598 101.444 265.243 104.327 265.085" stroke="black" stroke-width="2"/>
<path d="M121.61 256.463C126.965 259.16 133.467 255.176 127.463 247.126C129.041 244.012 128.357 236.519 118.33 238.616C115.809 235.485 109.864 231.224 106.253 239.233C103.429 237.066 98.6659 235.411 97.0689 242.983C95.2807 242.827 91.6104 243.584 91.2348 247.862C90.8591 252.14 95.2373 253.229 97.4734 253.239" stroke="black" stroke-width="2"/>
<path d="M111.219 624.362C152.19 543.931 165.511 449.969 142.136 360.517C135.601 335.461 96.8922 346.235 103.427 371.292C113.481 409.628 113.481 476.028 98.903 533.908C90.1057 569.238 77.2867 600.559 68.9921 621.606C62.7082 637.141 59.4407 647.414 59.4407 647.414H115.492C115.241 647.414 124.29 626.367 111.219 624.362Z" fill="white" stroke="black" stroke-width="2" stroke-miterlimit="10" stroke-linecap="round" stroke-linejoin="round"/>
<path d="M90.6084 488.807L151.436 490.561C156.211 447.463 153.447 403.364 142.136 360.517C135.601 335.461 96.8922 346.235 103.427 371.292C110.968 400.107 101.919 443.204 90.6084 488.807Z" fill="white" stroke="black" stroke-width="2" stroke-miterlimit="10" stroke-linecap="round" stroke-linejoin="round"/>
<path d="M76.03 624.362C117 543.931 130.322 449.969 106.946 360.517C100.411 335.461 61.7029 346.235 68.2381 371.292C78.2922 409.628 78.2921 476.028 63.7137 533.908C54.9164 569.238 42.0974 600.559 33.8027 621.606C27.5189 637.141 24.2513 647.414 24.2513 647.414H80.303C80.0516 647.414 89.1003 626.367 76.03 624.362Z" fill="white" stroke="black" stroke-width="2" stroke-miterlimit="10" stroke-linecap="round" stroke-linejoin="round"/>
<path d="M55.4191 488.807L116.246 490.561C121.022 447.463 118.257 403.364 106.946 360.517C100.411 335.461 61.7029 346.235 68.238 371.292C75.7786 400.107 66.7299 443.204 55.4191 488.807Z" fill="white" stroke="black" stroke-width="2" stroke-miterlimit="10" stroke-linecap="round" stroke-linejoin="round"/>
<path d="M68.7408 429.924L91.8652 428.671L89.3517 459.49L64.2164 459.992" stroke="black" stroke-width="2" stroke-miterlimit="10" stroke-linecap="round" stroke-linejoin="round"/>
<path d="M107.7 294.619C76.2814 295.371 67.9867 289.608 63.7137 368.536L143.644 362.773C143.644 362.773 144.398 336.965 142.387 323.183C139.622 306.646 137.36 294.118 107.7 294.619Z" fill="black"/>
<path d="M93.5949 444.173C93.4765 444.872 114.575 443.755 125.3 443.225C123.833 419.978 97.356 409.229 84.3997 388.897C71.4433 368.566 72.6645 332.654 103.232 330.976C124.33 329.858 121.336 297.549 100.442 298.521C66.4562 300.163 43.5684 329.909 43.4356 362.59C43.4285 378.581 49.0614 394.264 57.7673 407.77C62.6003 415.413 69.1586 422.447 75.8946 428.433C77.5558 430.331 94.096 442.281 93.5949 444.173Z" fill="black" stroke="black" stroke-width="2" stroke-miterlimit="10" stroke-linecap="round" stroke-linejoin="round"/>
<path d="M123.222 457.61C125.194 451.293 125.645 445.44 124.868 440.457C116.251 439.185 107.015 440.504 98.5708 440.34C95.7076 440.217 92.8444 440.094 89.9812 439.971C92.1978 441.782 93.3628 443.415 93.4492 443.969C94.3083 451.661 94.4121 457.428 96.7742 459.443C98.9908 461.254 101.049 455.492 102.725 450.922C104.172 457.275 98.3219 459.884 102.054 463.387C104.707 465.811 111.446 457.962 113.823 453.511C113.349 456.306 106.292 462.844 109.706 465.036C112.127 466.702 121.956 461.889 123.222 457.61Z" fill="white" stroke="black" stroke-width="2" stroke-miterlimit="10" stroke-linecap="round" stroke-linejoin="round"/>
<path d="M79.0055 367.393C77.6913 354.026 91.309 333.569 99.6469 326.695" stroke="white" stroke-width="2" stroke-miterlimit="10" stroke-linecap="round" stroke-linejoin="round"/>
<path d="M200.45 277.831C200.45 278.081 200.45 278.081 200.45 278.332C198.942 291.111 198.439 315.917 184.614 321.178C169.785 326.941 148.671 326.44 138.617 312.659C126.803 296.623 99.6572 312.158 111.722 328.445C130.574 354.253 163.249 361.519 193.16 351.497C225.334 340.722 228.35 307.648 231.869 278.582C231.869 278.332 231.869 278.081 231.869 277.831C221.312 277.33 210.755 276.578 200.45 277.831Z" fill="black" stroke="black" stroke-width="2" stroke-miterlimit="10" stroke-linecap="round" stroke-linejoin="round"/>
<path d="M200.449 278.332C201.957 252.523 200.701 242 203.214 238.993C208.744 232.478 208.995 251.02 208.995 251.02C208.995 251.02 217.29 255.53 217.793 261.293" stroke="black" stroke-width="2" stroke-miterlimit="10" stroke-linecap="round" stroke-linejoin="round"/>
<path d="M209.498 247.011C212.263 233.481 215.53 234.232 218.295 236.237C221.06 238.242 217.039 250.519 217.039 250.519" stroke="black" stroke-width="2" stroke-miterlimit="10" stroke-linecap="round" stroke-linejoin="round"/>
<path d="M223.322 250.519C224.579 242.501 223.825 236.488 218.547 236.237" stroke="black" stroke-width="2" stroke-miterlimit="10" stroke-linecap="round" stroke-linejoin="round"/>
<path d="M222.317 237.74C225.584 237.74 228.349 244.004 227.847 251.772C227.344 258.537 233.628 260.792 231.617 278.332" stroke="black" stroke-width="2" stroke-miterlimit="10" stroke-linecap="round" stroke-linejoin="round"/>
<path d="M93.3733 296.623L97.1436 286.601L121.776 290.359L121.022 297.876L93.3733 296.623Z" fill="black"/>
<path d="M140.376 318.924C142.136 323.434 142.89 346.987 142.89 346.987" stroke="white" stroke-width="2" stroke-miterlimit="10" stroke-linecap="round" stroke-linejoin="round"/>
<path d="M280.408 270.806L265 267.112C265.497 262.713 267.485 252.756 271.461 248.111C276.432 242.305 277.426 239.138 277.923 237.555C278.42 235.972 281.402 225.415 282.893 223.832C284.086 222.565 286.041 224.712 286.869 225.943C287.366 225.591 288.658 224.782 289.851 224.36C291.044 223.938 292.336 225.943 292.833 226.999L295.816 226.471C296.478 226.295 298.002 226.682 298.798 229.638C299.363 231.738 298.958 234.85 298.438 237.233C298.902 236.406 299.687 235.746 301 235.945C304.479 236.473 302.277 249.694 299.792 256.028C297.804 261.095 295.981 269.751 295.318 273.445L280.408 270.806Z" fill="white"/>
<path d="M359.94 276.356C350.658 287.537 359.94 295.151 365.741 297.56C368.964 298.846 377.15 301.03 384.112 299.488L359.94 336.643L400.548 353.117C398.131 340.588 436.322 332.877 432.455 312.155C431.126 305.033 420.208 307.175 416.018 308.781C395.23 316.492 412.115 280.182 400.548 270.573C391.846 263.344 371.542 262.381 359.94 276.356Z" fill="white"/>
<path d="M388.913 312.5C388.913 324.72 378.974 334.632 366.708 334.632C354.442 334.632 344.503 324.72 344.503 312.5C344.503 300.28 354.442 290.368 366.708 290.368C378.974 290.368 388.913 300.28 388.913 312.5Z" fill="white" stroke="black" stroke-width="2"/>
<path d="M389.789 314.92C389.728 318.641 386.858 321.602 383.379 321.534C379.899 321.465 380.12 307.99 383.599 308.058C387.078 308.127 389.85 311.199 389.789 314.92Z" fill="white"/>
<path d="M383.372 321.533C386.855 321.602 389.727 318.64 389.788 314.917C389.849 311.195 387.076 308.122 383.593 308.053" stroke="black" stroke-width="2"/>
<path d="M384.13 316.741C385.332 316.765 386.322 315.744 386.343 314.461C386.364 313.177 385.408 312.118 384.207 312.094" stroke="black" stroke-width="2"/>
<ellipse rx="0.961821" ry="0.968872" transform="matrix(-0.68479 0.728624 0.730619 0.682661 365.67 316.498)" fill="black"/>
<ellipse rx="0.961816" ry="0.968868" transform="matrix(-0.684794 0.72862 0.730623 0.682657 363.026 319.311)" fill="black"/>
<ellipse rx="0.961836" ry="0.968887" transform="matrix(-0.684786 0.728628 0.730615 0.682665 360.204 316.675)" fill="black"/>
<ellipse rx="0.961821" ry="0.968872" transform="matrix(-0.68479 0.728624 0.730619 0.682661 360.381 322.124)" fill="black"/>
<ellipse rx="0.961821" ry="0.968874" transform="matrix(-0.684799 0.728616 0.730627 0.682653 357.559 319.488)" fill="black"/>
<path d="M351.071 319.325C350.827 320.126 348.904 320.64 347.49 320.211C346.076 319.782 345.073 318.283 345.073 317.319" stroke="black" stroke-width="2" stroke-miterlimit="10" stroke-linecap="round" stroke-linejoin="round"/>
<ellipse cx="357.159" cy="310.573" rx="2.90059" ry="2.89149" fill="black"/>
<ellipse cx="347.007" cy="307.199" rx="2.41716" ry="2.40959" fill="black"/>
<path d="M400.548 353.117C398.131 340.588 436.322 332.877 432.455 312.155C431.126 305.033 420.208 307.175 416.018 308.781C395.23 316.492 412.115 280.182 400.548 270.573C391.846 263.344 371.542 262.381 359.94 276.356C350.658 287.537 359.94 295.151 365.741 297.56C368.964 298.846 377.15 301.03 384.112 299.488" stroke="black" stroke-width="2"/>
<path d="M363.297 667.297C337.294 579.356 341.668 490.688 373.261 403.959C381.767 380.459 344.342 370.284 335.836 393.541C301.813 486.812 294.765 588.078 313.964 685.225C326.601 682.802 351.146 671.173 363.297 667.297Z" fill="black"/>
<path d="M423.81 645.736C419.679 560.944 398.293 480.998 395.134 395.964C394.161 371.011 355.278 371.011 356.25 395.964C359.409 484.632 366.7 573.058 369.859 661.725C389.058 655.911 404.368 650.824 423.81 645.736Z" fill="black"/>
<path d="M312.506 429.881C302.299 433.273 293.55 437.876 291.363 445.144C293.064 445.628 294.522 446.355 296.223 446.84" fill="white"/>
<path d="M312.506 429.881C302.299 433.273 293.55 437.876 291.363 445.144C293.064 445.628 294.522 446.355 296.223 446.84" stroke="black" stroke-width="2" stroke-miterlimit="10" stroke-linecap="round" stroke-linejoin="round"/>
<path d="M287.231 224.686C281.642 218.629 281.642 230.258 277.996 238.01C274.351 245.762 269.976 243.34 265.116 264.174" fill="white"/>
<path d="M287.231 224.686C281.642 218.629 281.642 230.258 277.996 238.01C274.351 245.762 269.976 243.34 265.116 264.174" stroke="black" stroke-width="2" stroke-miterlimit="10" stroke-linecap="round" stroke-linejoin="round"/>
<path d="M283.586 239.221C284.801 231.226 287.231 218.144 293.793 226.381L283.586 239.221Z" fill="white"/>
<path d="M283.586 239.221C284.801 231.226 287.231 218.144 293.793 226.381" stroke="black" stroke-width="2" stroke-miterlimit="10" stroke-linecap="round" stroke-linejoin="round"/>
<path d="M341.425 337.822C327.816 345.089 297.438 359.867 288.689 338.064C280.669 318.198 290.147 291.792 295.494 272.411C295.737 271.684 295.737 270.715 295.98 269.988C285.53 268.292 275.323 266.354 265.116 263.689C265.116 263.932 265.116 263.932 264.873 264.174C256.853 294.214 244.702 336.126 265.602 363.501C288.689 393.784 327.816 379.006 355.764 364.228C373.747 354.78 359.409 328.131 341.425 337.822Z" fill="white" stroke="black" stroke-width="2" stroke-miterlimit="10" stroke-linecap="round" stroke-linejoin="round"/>
<path d="M298.653 238.01C301.57 224.686 297.681 225.413 295.737 225.413C292.092 225.655 290.877 241.16 290.877 241.16" fill="white"/>
<path d="M298.653 238.01C301.57 224.686 297.681 225.413 295.737 225.413C292.092 225.655 290.877 241.16 290.877 241.16" stroke="black" stroke-width="2" stroke-miterlimit="10" stroke-linecap="round" stroke-linejoin="round"/>
<path d="M295.494 272.411C298.167 256.422 305.215 242.613 303.028 238.01C300.597 232.438 296.466 243.34 288.932 249.396" stroke="black" stroke-width="2" stroke-miterlimit="10" stroke-linecap="round" stroke-linejoin="round"/>
<path d="M315.422 431.093L301.813 436.665L299.139 447.324L326.115 456.046C326.115 456.046 330.732 454.108 330.489 453.623C330.246 453.139 315.422 431.093 315.422 431.093Z" fill="white"/>
<path d="M359.652 332.977C340.696 332.977 331.461 335.399 330.489 399.599L402.667 398.872C402.667 398.872 402.424 375.372 401.938 362.048C401.209 343.152 394.891 332.977 359.652 332.977Z" fill="black"/>
<path d="M328.059 456.046C350.174 447.082 373.018 436.907 387.6 417.284C403.153 396.691 407.042 370.769 396.106 347.27C387.6 328.858 360.381 344.847 368.887 363.259C375.206 377.068 367.915 393.542 358.194 403.717C345.8 416.557 328.788 423.582 312.506 429.881" fill="white"/>
<path d="M328.059 456.046C350.174 447.082 373.018 436.907 387.6 417.284C403.153 396.691 407.042 370.769 396.106 347.27C387.6 328.858 360.381 344.847 368.887 363.259C375.206 377.068 367.915 393.542 358.194 403.717C345.8 416.557 328.788 423.582 312.506 429.881" stroke="black" stroke-width="2" stroke-miterlimit="10" stroke-linecap="round" stroke-linejoin="round"/>
<path d="M328.059 456.045C323.442 461.133 315.908 462.829 312.263 465.493C308.617 468.158 304.729 463.071 304.729 463.071C299.382 465.978 297.681 459.921 297.681 459.921C297.681 459.921 295.737 462.344 293.55 458.468C291.363 454.592 291.12 450.715 297.681 440.783" fill="white"/>
<path d="M328.059 456.045C323.442 461.133 315.908 462.829 312.263 465.493C308.617 468.158 304.729 463.071 304.729 463.071C299.382 465.978 297.681 459.921 297.681 459.921C297.681 459.921 295.737 462.344 293.55 458.468C291.363 454.592 291.12 450.715 297.681 440.783" stroke="black" stroke-width="2" stroke-miterlimit="10" stroke-linecap="round" stroke-linejoin="round"/>
<path d="M317.366 428.67L332.919 452.412" stroke="black" stroke-width="2" stroke-miterlimit="10" stroke-linecap="round" stroke-linejoin="round"/>
<path d="M360.867 328.858C351.875 344.121 350.417 400.81 350.417 400.81" stroke="white" stroke-width="2" stroke-miterlimit="10" stroke-linecap="round" stroke-linejoin="round"/>
<circle cx="232" cy="232" r="231" stroke="black" stroke-width="2"/>
<line x1="183.272" y1="259.213" x2="177.213" y2="260.728" stroke="black" stroke-width="2" stroke-linecap="round"/>
<line x1="182.86" y1="243.836" x2="171.836" y2="242.14" stroke="black" stroke-width="2" stroke-linecap="round"/>
<line x1="190.588" y1="231.917" x2="183.917" y2="224.412" stroke="black" stroke-width="2" stroke-linecap="round"/>
<line x1="206.807" y1="222.241" x2="205.241" y2="215.193" stroke="black" stroke-width="2" stroke-linecap="round"/>
<line x1="220" y1="222" x2="220" y2="217" stroke="black" stroke-width="2" stroke-linecap="round"/>
<line x1="269.605" y1="218.768" x2="265.768" y2="213.395" stroke="black" stroke-width="2" stroke-linecap="round"/>
<line x1="281.801" y1="214.25" x2="279.25" y2="203.199" stroke="black" stroke-width="2" stroke-linecap="round"/>
<line x1="293" y1="211" x2="293" y2="203" stroke="black" stroke-width="2" stroke-linecap="round"/>
<line x1="303.553" y1="217.658" x2="307.658" y2="209.447" stroke="black" stroke-width="2" stroke-linecap="round"/>
<line x1="309.447" y1="225.658" x2="315.658" y2="222.553" stroke="black" stroke-width="2" stroke-linecap="round"/>
<line x1="314" y1="239" x2="319" y2="239" stroke="black" stroke-width="2" stroke-linecap="round"/>
</g>
</svg>
