<svg width="586" height="548" viewBox="0 0 586 548" fill="none" xmlns="http://www.w3.org/2000/svg">
<ellipse cx="293" cy="274" rx="275" ry="274" fill="#ECF9FF"/>
<g filter="url(#filter0_d)">
<rect x="18" y="72" width="550" height="404" rx="10" fill="#F2F2F2"/>
</g>
<rect x="28" y="82" width="530" height="146" rx="4" fill="white"/>
<path d="M230.474 108.38L228.997 109.916V114H227.403V101.914H228.997V107.891L234.367 101.914H236.293L231.537 107.251L236.667 114H234.757L230.474 108.38ZM243.166 113.112C242.568 113.815 241.691 114.166 240.535 114.166C239.577 114.166 238.847 113.889 238.343 113.336C237.845 112.777 237.593 111.952 237.588 110.862V105.019H239.124V110.821C239.124 112.182 239.677 112.863 240.784 112.863C241.957 112.863 242.737 112.426 243.125 111.551V105.019H244.66V114H243.199L243.166 113.112ZM248.454 105.019L248.503 106.147C249.19 105.284 250.086 104.853 251.193 104.853C253.091 104.853 254.048 105.923 254.065 108.065V114H252.529V108.057C252.524 107.409 252.374 106.931 252.081 106.621C251.793 106.311 251.342 106.156 250.728 106.156C250.23 106.156 249.793 106.289 249.417 106.554C249.04 106.82 248.747 107.168 248.537 107.6V114H247.001V105.019H248.454ZM256.007 109.435C256.007 108.057 256.334 106.95 256.987 106.114C257.64 105.273 258.495 104.853 259.552 104.853C260.603 104.853 261.436 105.212 262.05 105.932V101.25H263.586V114H262.175L262.1 113.037C261.486 113.79 260.631 114.166 259.535 114.166C258.495 114.166 257.645 113.74 256.987 112.888C256.334 112.035 256.007 110.923 256.007 109.551V109.435ZM257.543 109.609C257.543 110.627 257.753 111.424 258.174 112C258.594 112.575 259.175 112.863 259.917 112.863C260.891 112.863 261.602 112.426 262.05 111.551V107.426C261.591 106.579 260.885 106.156 259.934 106.156C259.181 106.156 258.594 106.446 258.174 107.027C257.753 107.608 257.543 108.469 257.543 109.609ZM269.704 114.166C268.486 114.166 267.496 113.768 266.732 112.971C265.968 112.168 265.586 111.097 265.586 109.758V109.476C265.586 108.585 265.755 107.791 266.093 107.094C266.436 106.391 266.912 105.843 267.521 105.45C268.135 105.052 268.799 104.853 269.513 104.853C270.68 104.853 271.588 105.237 272.235 106.006C272.883 106.776 273.207 107.877 273.207 109.31V109.949H267.122C267.144 110.835 267.402 111.551 267.894 112.099C268.392 112.641 269.023 112.913 269.787 112.913C270.329 112.913 270.788 112.802 271.165 112.581C271.541 112.359 271.87 112.066 272.152 111.701L273.09 112.431C272.338 113.588 271.209 114.166 269.704 114.166ZM269.513 106.114C268.893 106.114 268.373 106.341 267.952 106.795C267.532 107.243 267.271 107.874 267.172 108.688H271.671V108.571C271.627 107.791 271.416 107.188 271.04 106.762C270.664 106.33 270.155 106.114 269.513 106.114ZM276.444 105.019L276.494 106.147C277.18 105.284 278.076 104.853 279.183 104.853C281.081 104.853 282.039 105.923 282.055 108.065V114H280.52V108.057C280.514 107.409 280.365 106.931 280.071 106.621C279.784 106.311 279.333 106.156 278.718 106.156C278.22 106.156 277.783 106.289 277.407 106.554C277.03 106.82 276.737 107.168 276.527 107.6V114H274.991V105.019H276.444ZM289.601 111.618C289.601 111.203 289.443 110.882 289.127 110.655C288.818 110.422 288.272 110.223 287.492 110.057C286.717 109.891 286.1 109.692 285.641 109.459C285.187 109.227 284.85 108.95 284.628 108.629C284.413 108.308 284.305 107.927 284.305 107.484C284.305 106.748 284.615 106.125 285.234 105.616C285.86 105.107 286.657 104.853 287.625 104.853C288.643 104.853 289.468 105.115 290.099 105.641C290.735 106.167 291.053 106.839 291.053 107.658H289.509C289.509 107.238 289.329 106.875 288.97 106.571C288.616 106.266 288.167 106.114 287.625 106.114C287.066 106.114 286.629 106.236 286.313 106.479C285.998 106.723 285.84 107.041 285.84 107.434C285.84 107.805 285.987 108.084 286.28 108.272C286.574 108.461 287.102 108.64 287.866 108.812C288.635 108.984 289.257 109.188 289.733 109.426C290.209 109.664 290.561 109.952 290.788 110.29C291.02 110.622 291.136 111.028 291.136 111.51C291.136 112.312 290.815 112.957 290.173 113.444C289.531 113.925 288.699 114.166 287.675 114.166C286.955 114.166 286.319 114.039 285.766 113.784C285.212 113.53 284.778 113.175 284.462 112.722C284.153 112.262 283.998 111.767 283.998 111.236H285.533C285.561 111.75 285.766 112.16 286.147 112.464C286.535 112.763 287.044 112.913 287.675 112.913C288.256 112.913 288.721 112.796 289.069 112.564C289.424 112.326 289.601 112.011 289.601 111.618ZM295.22 102.844V105.019H296.897V106.206H295.22V111.775C295.22 112.135 295.295 112.406 295.444 112.589C295.594 112.766 295.848 112.854 296.208 112.854C296.385 112.854 296.629 112.821 296.938 112.755V114C296.535 114.111 296.142 114.166 295.76 114.166C295.074 114.166 294.556 113.958 294.208 113.543C293.859 113.128 293.685 112.539 293.685 111.775V106.206H292.049V105.019H293.685V102.844H295.22ZM300.367 114H298.831V105.019H300.367V114ZM298.707 102.636C298.707 102.387 298.781 102.177 298.931 102.005C299.086 101.834 299.312 101.748 299.611 101.748C299.91 101.748 300.137 101.834 300.292 102.005C300.447 102.177 300.524 102.387 300.524 102.636C300.524 102.885 300.447 103.093 300.292 103.259C300.137 103.425 299.91 103.508 299.611 103.508C299.312 103.508 299.086 103.425 298.931 103.259C298.781 103.093 298.707 102.885 298.707 102.636ZM304.276 105.019L304.318 106.015C304.976 105.24 305.865 104.853 306.982 104.853C308.239 104.853 309.094 105.334 309.547 106.297C309.846 105.865 310.234 105.517 310.709 105.251C311.191 104.985 311.758 104.853 312.411 104.853C314.381 104.853 315.383 105.896 315.416 107.982V114H313.88V108.073C313.88 107.431 313.734 106.953 313.44 106.637C313.147 106.316 312.655 106.156 311.963 106.156C311.393 106.156 310.92 106.327 310.543 106.67C310.167 107.008 309.949 107.465 309.888 108.04V114H308.344V108.115C308.344 106.809 307.705 106.156 306.426 106.156C305.419 106.156 304.73 106.585 304.359 107.442V114H302.824V105.019H304.276ZM319.185 105.019L319.226 106.015C319.885 105.24 320.773 104.853 321.891 104.853C323.147 104.853 324.002 105.334 324.456 106.297C324.754 105.865 325.142 105.517 325.618 105.251C326.099 104.985 326.666 104.853 327.319 104.853C329.289 104.853 330.291 105.896 330.324 107.982V114H328.789V108.073C328.789 107.431 328.642 106.953 328.349 106.637C328.055 106.316 327.563 106.156 326.871 106.156C326.301 106.156 325.828 106.327 325.452 106.67C325.075 107.008 324.857 107.465 324.796 108.04V114H323.252V108.115C323.252 106.809 322.613 106.156 321.334 106.156C320.327 106.156 319.638 106.585 319.268 107.442V114H317.732V105.019H319.185ZM338.193 113.112C337.596 113.815 336.719 114.166 335.562 114.166C334.605 114.166 333.874 113.889 333.371 113.336C332.873 112.777 332.621 111.952 332.615 110.862V105.019H334.151V110.821C334.151 112.182 334.704 112.863 335.811 112.863C336.984 112.863 337.764 112.426 338.152 111.551V105.019H339.688V114H338.227L338.193 113.112ZM343.481 105.019L343.531 106.147C344.217 105.284 345.113 104.853 346.22 104.853C348.118 104.853 349.076 105.923 349.092 108.065V114H347.557V108.057C347.551 107.409 347.402 106.931 347.108 106.621C346.821 106.311 346.37 106.156 345.755 106.156C345.257 106.156 344.82 106.289 344.444 106.554C344.068 106.82 343.774 107.168 343.564 107.6V114H342.028V105.019H343.481ZM351.043 109.435C351.043 108.035 351.367 106.922 352.014 106.098C352.662 105.268 353.519 104.853 354.587 104.853C355.683 104.853 356.538 105.24 357.152 106.015L357.227 105.019H358.63V113.784C358.63 114.946 358.284 115.862 357.592 116.532C356.906 117.201 355.982 117.536 354.82 117.536C354.172 117.536 353.539 117.398 352.919 117.121C352.299 116.844 351.826 116.465 351.5 115.984L352.296 115.062C352.955 115.876 353.76 116.283 354.712 116.283C355.459 116.283 356.04 116.072 356.455 115.652C356.876 115.231 357.086 114.639 357.086 113.875V113.104C356.472 113.812 355.633 114.166 354.571 114.166C353.519 114.166 352.667 113.743 352.014 112.896C351.367 112.049 351.043 110.896 351.043 109.435ZM352.587 109.609C352.587 110.622 352.794 111.418 353.209 112C353.625 112.575 354.206 112.863 354.953 112.863C355.921 112.863 356.632 112.423 357.086 111.543V107.442C356.616 106.585 355.91 106.156 354.969 106.156C354.222 106.156 353.638 106.446 353.218 107.027C352.797 107.608 352.587 108.469 352.587 109.609Z" fill="black"/>
<path d="M153.822 168.455L155.195 154.984H169.037V158.157H158.108L157.292 165.523C158.616 164.744 160.118 164.354 161.801 164.354C164.262 164.354 166.217 165.171 167.664 166.804C169.111 168.424 169.835 170.62 169.835 173.391C169.835 176.174 169.08 178.369 167.571 179.978C166.075 181.573 163.978 182.371 161.281 182.371C158.894 182.371 156.946 181.709 155.437 180.386C153.927 179.062 153.068 177.231 152.857 174.894H156.104C156.315 176.44 156.865 177.609 157.756 178.4C158.646 179.18 159.822 179.569 161.281 179.569C162.877 179.569 164.126 179.025 165.029 177.937C165.945 176.848 166.402 175.345 166.402 173.428C166.402 171.622 165.908 170.174 164.918 169.086C163.941 167.985 162.636 167.435 161.003 167.435C159.506 167.435 158.331 167.762 157.478 168.418L156.568 169.16L153.822 168.455ZM174.01 180.2C174.01 179.606 174.183 179.112 174.529 178.716C174.888 178.32 175.42 178.122 176.125 178.122C176.83 178.122 177.362 178.32 177.721 178.716C178.092 179.112 178.277 179.606 178.277 180.2C178.277 180.769 178.092 181.245 177.721 181.629C177.362 182.012 176.83 182.204 176.125 182.204C175.42 182.204 174.888 182.012 174.529 181.629C174.183 181.245 174.01 180.769 174.01 180.2ZM196.758 170.125C196.04 170.979 195.181 171.665 194.179 172.185C193.189 172.704 192.101 172.964 190.913 172.964C189.354 172.964 187.994 172.58 186.831 171.813C185.681 171.047 184.79 169.97 184.159 168.585C183.528 167.187 183.213 165.647 183.213 163.965C183.213 162.159 183.553 160.532 184.233 159.085C184.926 157.638 185.903 156.531 187.165 155.764C188.427 154.997 189.899 154.613 191.581 154.613C194.253 154.613 196.356 155.615 197.89 157.619C199.436 159.611 200.209 162.332 200.209 165.783V166.785C200.209 172.042 199.17 175.883 197.092 178.308C195.014 180.72 191.878 181.957 187.685 182.019H187.017V179.124H187.74C190.573 179.075 192.75 178.339 194.271 176.916C195.793 175.481 196.622 173.217 196.758 170.125ZM191.47 170.125C192.62 170.125 193.678 169.772 194.643 169.067C195.62 168.362 196.331 167.49 196.776 166.451V165.078C196.776 162.827 196.288 160.996 195.311 159.586C194.333 158.176 193.096 157.471 191.6 157.471C190.09 157.471 188.878 158.052 187.963 159.215C187.048 160.365 186.59 161.887 186.59 163.779C186.59 165.622 187.029 167.144 187.907 168.344C188.798 169.531 189.985 170.125 191.47 170.125Z" fill="black"/>
<path d="M164.207 204H163.082V195.469H164.207V204ZM167.125 197.66L167.16 198.457C167.645 197.848 168.277 197.543 169.059 197.543C170.398 197.543 171.074 198.299 171.086 199.811V204H170.002V199.805C169.998 199.348 169.893 199.01 169.686 198.791C169.482 198.572 169.164 198.463 168.73 198.463C168.379 198.463 168.07 198.557 167.805 198.744C167.539 198.932 167.332 199.178 167.184 199.482V204H166.1V197.66H167.125ZM172.457 200.777C172.457 199.805 172.688 199.023 173.148 198.434C173.609 197.84 174.213 197.543 174.959 197.543C175.701 197.543 176.289 197.797 176.723 198.305V195H177.807V204H176.811L176.758 203.32C176.324 203.852 175.721 204.117 174.947 204.117C174.213 204.117 173.613 203.816 173.148 203.215C172.688 202.613 172.457 201.828 172.457 200.859V200.777ZM173.541 200.9C173.541 201.619 173.689 202.182 173.986 202.588C174.283 202.994 174.693 203.197 175.217 203.197C175.904 203.197 176.406 202.889 176.723 202.271V199.359C176.398 198.762 175.9 198.463 175.229 198.463C174.697 198.463 174.283 198.668 173.986 199.078C173.689 199.488 173.541 200.096 173.541 200.9ZM182.125 204.117C181.266 204.117 180.566 203.836 180.027 203.273C179.488 202.707 179.219 201.951 179.219 201.006V200.807C179.219 200.178 179.338 199.617 179.576 199.125C179.818 198.629 180.154 198.242 180.584 197.965C181.018 197.684 181.486 197.543 181.99 197.543C182.814 197.543 183.455 197.814 183.912 198.357C184.369 198.9 184.598 199.678 184.598 200.689V201.141H180.303C180.318 201.766 180.5 202.271 180.848 202.658C181.199 203.041 181.645 203.232 182.184 203.232C182.566 203.232 182.891 203.154 183.156 202.998C183.422 202.842 183.654 202.635 183.854 202.377L184.516 202.893C183.984 203.709 183.188 204.117 182.125 204.117ZM181.99 198.434C181.553 198.434 181.186 198.594 180.889 198.914C180.592 199.23 180.408 199.676 180.338 200.25H183.514V200.168C183.482 199.617 183.334 199.191 183.068 198.891C182.803 198.586 182.443 198.434 181.99 198.434ZM187.984 199.975L189.391 197.66H190.656L188.582 200.795L190.721 204H189.467L188.002 201.627L186.537 204H185.277L187.416 200.795L185.342 197.66H186.596L187.984 199.975Z" fill="black"/>
<path d="M403.432 167.509H410.965V170.756H403.432V179.291H399.98V170.756H392.447V167.509H399.98V159.623H403.432V167.509ZM432.507 182H414.806V179.532L424.157 169.142C425.543 167.571 426.495 166.297 427.015 165.319C427.547 164.33 427.812 163.309 427.812 162.258C427.812 160.848 427.386 159.691 426.532 158.788C425.679 157.885 424.541 157.434 423.118 157.434C421.411 157.434 420.081 157.922 419.129 158.899C418.189 159.864 417.719 161.213 417.719 162.944H414.286C414.286 160.458 415.084 158.448 416.68 156.914C418.288 155.38 420.434 154.613 423.118 154.613C425.629 154.613 427.615 155.275 429.074 156.599C430.534 157.91 431.264 159.66 431.264 161.85C431.264 164.509 429.569 167.676 426.18 171.35L418.943 179.198H432.507V182ZM436.57 180.2C436.57 179.606 436.743 179.112 437.09 178.716C437.449 178.32 437.98 178.122 438.686 178.122C439.391 178.122 439.923 178.32 440.281 178.716C440.652 179.112 440.838 179.606 440.838 180.2C440.838 180.769 440.652 181.245 440.281 181.629C439.923 182.012 439.391 182.204 438.686 182.204C437.98 182.204 437.449 182.012 437.09 181.629C436.743 181.245 436.57 180.769 436.57 180.2ZM447.74 168.455L449.113 154.984H462.955V158.157H452.026L451.21 165.523C452.534 164.744 454.036 164.354 455.719 164.354C458.18 164.354 460.135 165.171 461.582 166.804C463.029 168.424 463.753 170.62 463.753 173.391C463.753 176.174 462.998 178.369 461.489 179.978C459.993 181.573 457.896 182.371 455.199 182.371C452.812 182.371 450.864 181.709 449.354 180.386C447.845 179.062 446.986 177.231 446.775 174.894H450.022C450.233 176.44 450.783 177.609 451.674 178.4C452.564 179.18 453.74 179.569 455.199 179.569C456.795 179.569 458.044 179.025 458.947 177.937C459.863 176.848 460.32 175.345 460.32 173.428C460.32 171.622 459.826 170.174 458.836 169.086C457.859 167.985 456.554 167.435 454.921 167.435C453.424 167.435 452.249 167.762 451.396 168.418L450.486 169.16L447.74 168.455Z" fill="#86EC16"/>
<path d="M388.859 202.506L391.297 195.469H392.527L389.363 204H388.367L385.209 195.469H386.434L388.859 202.506ZM395.879 204.117C395.02 204.117 394.32 203.836 393.781 203.273C393.242 202.707 392.973 201.951 392.973 201.006V200.807C392.973 200.178 393.092 199.617 393.33 199.125C393.572 198.629 393.908 198.242 394.338 197.965C394.771 197.684 395.24 197.543 395.744 197.543C396.568 197.543 397.209 197.814 397.666 198.357C398.123 198.9 398.352 199.678 398.352 200.689V201.141H394.057C394.072 201.766 394.254 202.271 394.602 202.658C394.953 203.041 395.398 203.232 395.938 203.232C396.32 203.232 396.645 203.154 396.91 202.998C397.176 202.842 397.408 202.635 397.607 202.377L398.27 202.893C397.738 203.709 396.941 204.117 395.879 204.117ZM395.744 198.434C395.307 198.434 394.939 198.594 394.643 198.914C394.346 199.23 394.162 199.676 394.092 200.25H397.268V200.168C397.236 199.617 397.088 199.191 396.822 198.891C396.557 198.586 396.197 198.434 395.744 198.434ZM402.676 198.633C402.512 198.605 402.334 198.592 402.143 198.592C401.432 198.592 400.949 198.895 400.695 199.5V204H399.611V197.66H400.666L400.684 198.393C401.039 197.826 401.543 197.543 402.195 197.543C402.406 197.543 402.566 197.57 402.676 197.625V198.633ZM407.357 204C407.295 203.875 407.244 203.652 407.205 203.332C406.701 203.855 406.1 204.117 405.4 204.117C404.775 204.117 404.262 203.941 403.859 203.59C403.461 203.234 403.262 202.785 403.262 202.242C403.262 201.582 403.512 201.07 404.012 200.707C404.516 200.34 405.223 200.156 406.133 200.156H407.188V199.658C407.188 199.279 407.074 198.979 406.848 198.756C406.621 198.529 406.287 198.416 405.846 198.416C405.459 198.416 405.135 198.514 404.873 198.709C404.611 198.904 404.48 199.141 404.48 199.418H403.391C403.391 199.102 403.502 198.797 403.725 198.504C403.951 198.207 404.256 197.973 404.639 197.801C405.025 197.629 405.449 197.543 405.91 197.543C406.641 197.543 407.213 197.727 407.627 198.094C408.041 198.457 408.256 198.959 408.271 199.6V202.518C408.271 203.1 408.346 203.562 408.494 203.906V204H407.357ZM405.559 203.174C405.898 203.174 406.221 203.086 406.525 202.91C406.83 202.734 407.051 202.506 407.188 202.225V200.924H406.338C405.01 200.924 404.346 201.312 404.346 202.09C404.346 202.43 404.459 202.695 404.686 202.887C404.912 203.078 405.203 203.174 405.559 203.174ZM404.141 195.967C404.141 195.791 404.193 195.645 404.299 195.527C404.408 195.406 404.568 195.346 404.779 195.346C404.99 195.346 405.15 195.406 405.26 195.527C405.369 195.645 405.424 195.791 405.424 195.967C405.424 196.143 405.369 196.289 405.26 196.406C405.15 196.523 404.99 196.582 404.779 196.582C404.568 196.582 404.408 196.523 404.299 196.406C404.193 196.289 404.141 196.143 404.141 195.967ZM406.66 195.979C406.66 195.803 406.713 195.654 406.818 195.533C406.928 195.412 407.088 195.352 407.299 195.352C407.51 195.352 407.67 195.412 407.779 195.533C407.889 195.654 407.943 195.803 407.943 195.979C407.943 196.154 407.889 196.301 407.779 196.418C407.67 196.535 407.51 196.594 407.299 196.594C407.088 196.594 406.928 196.535 406.818 196.418C406.713 196.301 406.66 196.154 406.66 195.979ZM410.996 197.66L411.031 198.457C411.516 197.848 412.148 197.543 412.93 197.543C414.27 197.543 414.945 198.299 414.957 199.811V204H413.873V199.805C413.869 199.348 413.764 199.01 413.557 198.791C413.354 198.572 413.035 198.463 412.602 198.463C412.25 198.463 411.941 198.557 411.676 198.744C411.41 198.932 411.203 199.178 411.055 199.482V204H409.971V197.66H410.996ZM416.328 200.777C416.328 199.805 416.559 199.023 417.02 198.434C417.48 197.84 418.084 197.543 418.83 197.543C419.572 197.543 420.16 197.797 420.594 198.305V195H421.678V204H420.682L420.629 203.32C420.195 203.852 419.592 204.117 418.818 204.117C418.084 204.117 417.484 203.816 417.02 203.215C416.559 202.613 416.328 201.828 416.328 200.859V200.777ZM417.412 200.9C417.412 201.619 417.561 202.182 417.857 202.588C418.154 202.994 418.564 203.197 419.088 203.197C419.775 203.197 420.277 202.889 420.594 202.271V199.359C420.27 198.762 419.771 198.463 419.1 198.463C418.568 198.463 418.154 198.668 417.857 199.078C417.561 199.488 417.412 200.096 417.412 200.9ZM425.996 204.117C425.137 204.117 424.438 203.836 423.898 203.273C423.359 202.707 423.09 201.951 423.09 201.006V200.807C423.09 200.178 423.209 199.617 423.447 199.125C423.689 198.629 424.025 198.242 424.455 197.965C424.889 197.684 425.357 197.543 425.861 197.543C426.686 197.543 427.326 197.814 427.783 198.357C428.24 198.9 428.469 199.678 428.469 200.689V201.141H424.174C424.189 201.766 424.371 202.271 424.719 202.658C425.07 203.041 425.516 203.232 426.055 203.232C426.438 203.232 426.762 203.154 427.027 202.998C427.293 202.842 427.525 202.635 427.725 202.377L428.387 202.893C427.855 203.709 427.059 204.117 425.996 204.117ZM425.861 198.434C425.424 198.434 425.057 198.594 424.76 198.914C424.463 199.23 424.279 199.676 424.209 200.25H427.385V200.168C427.354 199.617 427.205 199.191 426.939 198.891C426.674 198.586 426.314 198.434 425.861 198.434ZM432.793 198.633C432.629 198.605 432.451 198.592 432.26 198.592C431.549 198.592 431.066 198.895 430.812 199.5V204H429.729V197.66H430.783L430.801 198.393C431.156 197.826 431.66 197.543 432.312 197.543C432.523 197.543 432.684 197.57 432.793 197.625V198.633ZM437.709 203.373C437.287 203.869 436.668 204.117 435.852 204.117C435.176 204.117 434.66 203.922 434.305 203.531C433.953 203.137 433.775 202.555 433.771 201.785V197.66H434.855V201.756C434.855 202.717 435.246 203.197 436.027 203.197C436.855 203.197 437.406 202.889 437.68 202.271V197.66H438.764V204H437.732L437.709 203.373ZM441.441 197.66L441.477 198.457C441.961 197.848 442.594 197.543 443.375 197.543C444.715 197.543 445.391 198.299 445.402 199.811V204H444.318V199.805C444.314 199.348 444.209 199.01 444.002 198.791C443.799 198.572 443.48 198.463 443.047 198.463C442.695 198.463 442.387 198.557 442.121 198.744C441.855 198.932 441.648 199.178 441.5 199.482V204H440.416V197.66H441.441ZM446.779 200.777C446.779 199.789 447.008 199.004 447.465 198.422C447.922 197.836 448.527 197.543 449.281 197.543C450.055 197.543 450.658 197.816 451.092 198.363L451.145 197.66H452.135V203.848C452.135 204.668 451.891 205.314 451.402 205.787C450.918 206.26 450.266 206.496 449.445 206.496C448.988 206.496 448.541 206.398 448.104 206.203C447.666 206.008 447.332 205.74 447.102 205.4L447.664 204.75C448.129 205.324 448.697 205.611 449.369 205.611C449.896 205.611 450.307 205.463 450.6 205.166C450.896 204.869 451.045 204.451 451.045 203.912V203.367C450.611 203.867 450.02 204.117 449.27 204.117C448.527 204.117 447.926 203.818 447.465 203.221C447.008 202.623 446.779 201.809 446.779 200.777ZM447.869 200.9C447.869 201.615 448.016 202.178 448.309 202.588C448.602 202.994 449.012 203.197 449.539 203.197C450.223 203.197 450.725 202.887 451.045 202.266V199.371C450.713 198.766 450.215 198.463 449.551 198.463C449.023 198.463 448.611 198.668 448.314 199.078C448.018 199.488 447.869 200.096 447.869 200.9Z" fill="black"/>
<line x1="459.585" y1="204.78" x2="467.78" y2="196.585" stroke="#86EC16" stroke-width="2"/>
<path d="M460 196.867L468.058 196.864L468.059 205.001" stroke="#86EC16" stroke-width="2"/>
<path d="M345 200C345 171.833 322.167 149 294 149C265.833 149 243 171.833 243 200" stroke="#D6D6D6" stroke-width="10" stroke-linecap="round" stroke-linejoin="round"/>
<path d="M243 200C243 171.833 265.833 149 294 149C311.394 149 326.753 157.707 335.958 171" stroke="#86EC16" stroke-width="10" stroke-linecap="round" stroke-linejoin="round"/>
<path d="M294.341 175C285.88 175 279 181.88 279 190.341C279 198.801 285.88 205.681 294.341 205.681C302.801 205.681 309.681 198.801 309.681 190.341C309.681 181.88 302.801 175 294.341 175ZM294.341 202.519C287.632 202.519 282.119 197.049 282.119 190.298C282.119 183.546 287.632 178.119 294.341 178.119C301.049 178.119 306.562 183.589 306.562 190.341C306.562 197.092 301.049 202.519 294.341 202.519Z" fill="#86EC16"/>
<path d="M298.656 189.23C300.049 189.23 301.178 188.101 301.178 186.709C301.178 185.316 300.049 184.188 298.656 184.188C297.264 184.188 296.135 185.316 296.135 186.709C296.135 188.101 297.264 189.23 298.656 189.23Z" fill="#86EC16"/>
<path d="M298.272 193.075C297.887 193.075 297.502 193.246 297.203 193.545C296.52 194.272 295.451 194.699 294.34 194.699C293.229 194.699 292.161 194.272 291.477 193.545C290.922 192.947 290.025 192.947 289.426 193.46C288.828 194.015 288.828 194.913 289.341 195.511C290.58 196.836 292.375 197.562 294.298 197.562C296.221 197.562 298.058 196.793 299.254 195.511C299.81 194.913 299.767 194.015 299.169 193.46C298.955 193.203 298.614 193.075 298.272 193.075Z" fill="#86EC16"/>
<path d="M290.025 189.23C291.417 189.23 292.546 188.101 292.546 186.709C292.546 185.316 291.417 184.188 290.025 184.188C288.632 184.188 287.503 185.316 287.503 186.709C287.503 188.101 288.632 189.23 290.025 189.23Z" fill="#86EC16"/>
<rect x="28" y="238" width="530" height="228" rx="4" fill="white"/>
<path d="M207.113 270H205.519V257.914H207.113V270ZM211.247 261.019L211.296 262.147C211.983 261.284 212.879 260.853 213.986 260.853C215.884 260.853 216.841 261.923 216.858 264.065V270H215.322V264.057C215.317 263.409 215.167 262.931 214.874 262.621C214.586 262.311 214.135 262.156 213.521 262.156C213.023 262.156 212.586 262.289 212.209 262.554C211.833 262.82 211.54 263.168 211.33 263.6V270H209.794V261.019H211.247ZM221.257 258.844V261.019H222.934V262.206H221.257V267.775C221.257 268.135 221.332 268.406 221.481 268.589C221.631 268.766 221.885 268.854 222.245 268.854C222.422 268.854 222.666 268.821 222.976 268.755V270C222.572 270.111 222.179 270.166 221.797 270.166C221.111 270.166 220.593 269.958 220.245 269.543C219.896 269.128 219.722 268.539 219.722 267.775V262.206H218.086V261.019H219.722V258.844H221.257ZM228.462 270.166C227.245 270.166 226.254 269.768 225.491 268.971C224.727 268.168 224.345 267.097 224.345 265.758V265.476C224.345 264.585 224.514 263.791 224.852 263.094C225.195 262.391 225.671 261.843 226.279 261.45C226.894 261.052 227.558 260.853 228.271 260.853C229.439 260.853 230.347 261.237 230.994 262.006C231.642 262.776 231.965 263.877 231.965 265.31V265.949H225.881C225.903 266.835 226.16 267.551 226.653 268.099C227.151 268.641 227.782 268.913 228.545 268.913C229.088 268.913 229.547 268.802 229.923 268.581C230.3 268.359 230.629 268.066 230.911 267.701L231.849 268.431C231.097 269.588 229.968 270.166 228.462 270.166ZM228.271 262.114C227.652 262.114 227.132 262.341 226.711 262.795C226.29 263.243 226.03 263.874 225.931 264.688H230.43V264.571C230.385 263.791 230.175 263.188 229.799 262.762C229.423 262.33 228.913 262.114 228.271 262.114ZM235.203 261.019L235.252 262.147C235.939 261.284 236.835 260.853 237.942 260.853C239.84 260.853 240.797 261.923 240.814 264.065V270H239.278V264.057C239.273 263.409 239.123 262.931 238.83 262.621C238.542 262.311 238.091 262.156 237.477 262.156C236.979 262.156 236.542 262.289 236.166 262.554C235.789 262.82 235.496 263.168 235.286 263.6V270H233.75V261.019H235.203ZM245.213 258.844V261.019H246.89V262.206H245.213V267.775C245.213 268.135 245.288 268.406 245.438 268.589C245.587 268.766 245.841 268.854 246.201 268.854C246.378 268.854 246.622 268.821 246.932 268.755V270C246.528 270.111 246.135 270.166 245.753 270.166C245.067 270.166 244.549 269.958 244.201 269.543C243.852 269.128 243.678 268.539 243.678 267.775V262.206H242.042V261.019H243.678V258.844H245.213ZM250.36 270H248.824V261.019H250.36V270ZM248.7 258.636C248.7 258.387 248.774 258.177 248.924 258.005C249.079 257.834 249.306 257.748 249.604 257.748C249.903 257.748 250.13 257.834 250.285 258.005C250.44 258.177 250.518 258.387 250.518 258.636C250.518 258.885 250.44 259.093 250.285 259.259C250.13 259.425 249.903 259.508 249.604 259.508C249.306 259.508 249.079 259.425 248.924 259.259C248.774 259.093 248.7 258.885 248.7 258.636ZM252.418 265.426C252.418 264.546 252.59 263.755 252.933 263.052C253.282 262.349 253.763 261.807 254.377 261.425C254.997 261.043 255.703 260.853 256.494 260.853C257.717 260.853 258.705 261.276 259.458 262.123C260.216 262.969 260.595 264.095 260.595 265.501V265.609C260.595 266.483 260.426 267.269 260.088 267.966C259.756 268.658 259.278 269.198 258.652 269.585C258.033 269.972 257.319 270.166 256.511 270.166C255.293 270.166 254.306 269.743 253.547 268.896C252.795 268.049 252.418 266.929 252.418 265.534V265.426ZM253.962 265.609C253.962 266.605 254.192 267.405 254.651 268.008C255.116 268.611 255.736 268.913 256.511 268.913C257.291 268.913 257.911 268.608 258.37 268C258.829 267.385 259.059 266.528 259.059 265.426C259.059 264.441 258.824 263.644 258.354 263.036C257.889 262.421 257.269 262.114 256.494 262.114C255.736 262.114 255.125 262.416 254.66 263.019C254.195 263.622 253.962 264.486 253.962 265.609ZM263.973 261.019L264.023 262.147C264.709 261.284 265.606 260.853 266.712 260.853C268.611 260.853 269.568 261.923 269.584 264.065V270H268.049V264.057C268.043 263.409 267.894 262.931 267.601 262.621C267.313 262.311 266.862 262.156 266.248 262.156C265.75 262.156 265.312 262.289 264.936 262.554C264.56 262.82 264.266 263.168 264.056 263.6V270H262.521V261.019H263.973ZM275.744 265.435C275.744 264.057 276.07 262.95 276.723 262.114C277.376 261.273 278.231 260.853 279.288 260.853C280.34 260.853 281.172 261.212 281.787 261.932V257.25H283.322V270H281.911L281.836 269.037C281.222 269.79 280.367 270.166 279.271 270.166C278.231 270.166 277.382 269.74 276.723 268.888C276.07 268.035 275.744 266.923 275.744 265.551V265.435ZM277.279 265.609C277.279 266.627 277.49 267.424 277.91 268C278.331 268.575 278.912 268.863 279.653 268.863C280.627 268.863 281.338 268.426 281.787 267.551V263.426C281.327 262.579 280.622 262.156 279.67 262.156C278.917 262.156 278.331 262.446 277.91 263.027C277.49 263.608 277.279 264.469 277.279 265.609ZM289.44 270.166C288.222 270.166 287.232 269.768 286.468 268.971C285.705 268.168 285.323 267.097 285.323 265.758V265.476C285.323 264.585 285.492 263.791 285.829 263.094C286.172 262.391 286.648 261.843 287.257 261.45C287.871 261.052 288.535 260.853 289.249 260.853C290.417 260.853 291.324 261.237 291.972 262.006C292.619 262.776 292.943 263.877 292.943 265.31V265.949H286.858C286.881 266.835 287.138 267.551 287.63 268.099C288.128 268.641 288.759 268.913 289.523 268.913C290.065 268.913 290.525 268.802 290.901 268.581C291.277 268.359 291.606 268.066 291.889 267.701L292.827 268.431C292.074 269.588 290.945 270.166 289.44 270.166ZM289.249 262.114C288.629 262.114 288.109 262.341 287.688 262.795C287.268 263.243 287.008 263.874 286.908 264.688H291.407V264.571C291.363 263.791 291.153 263.188 290.776 262.762C290.4 262.33 289.891 262.114 289.249 262.114ZM299.069 262.396C298.836 262.358 298.585 262.338 298.313 262.338C297.306 262.338 296.623 262.767 296.263 263.625V270H294.728V261.019H296.222L296.247 262.056C296.75 261.254 297.464 260.853 298.388 260.853C298.687 260.853 298.914 260.891 299.069 260.969V262.396ZM308.507 264.613C307.14 264.22 306.144 263.738 305.519 263.168C304.899 262.593 304.589 261.885 304.589 261.043C304.589 260.092 304.968 259.306 305.726 258.686C306.49 258.061 307.48 257.748 308.698 257.748C309.528 257.748 310.267 257.909 310.914 258.229C311.567 258.55 312.071 258.993 312.425 259.558C312.785 260.122 312.964 260.739 312.964 261.409H311.362C311.362 260.678 311.13 260.105 310.665 259.69C310.2 259.27 309.544 259.06 308.698 259.06C307.912 259.06 307.298 259.234 306.855 259.583C306.418 259.926 306.199 260.404 306.199 261.019C306.199 261.511 306.407 261.929 306.822 262.272C307.242 262.61 307.953 262.919 308.955 263.202C309.962 263.484 310.748 263.797 311.312 264.14C311.882 264.477 312.303 264.873 312.574 265.327C312.851 265.78 312.989 266.314 312.989 266.929C312.989 267.908 312.607 268.694 311.844 269.286C311.08 269.873 310.059 270.166 308.781 270.166C307.951 270.166 307.176 270.008 306.457 269.693C305.737 269.372 305.181 268.935 304.788 268.381C304.401 267.828 304.207 267.2 304.207 266.497H305.809C305.809 267.228 306.077 267.806 306.614 268.232C307.157 268.653 307.879 268.863 308.781 268.863C309.622 268.863 310.267 268.691 310.715 268.348C311.163 268.005 311.387 267.537 311.387 266.945C311.387 266.353 311.18 265.897 310.765 265.576C310.35 265.249 309.597 264.928 308.507 264.613ZM316.882 258.844V261.019H318.559V262.206H316.882V267.775C316.882 268.135 316.957 268.406 317.106 268.589C317.256 268.766 317.51 268.854 317.87 268.854C318.047 268.854 318.291 268.821 318.601 268.755V270C318.197 270.111 317.804 270.166 317.422 270.166C316.736 270.166 316.218 269.958 315.87 269.543C315.521 269.128 315.347 268.539 315.347 267.775V262.206H313.711V261.019H315.347V258.844H316.882ZM322.029 270H320.493V261.019H322.029V270ZM320.369 258.636C320.369 258.387 320.443 258.177 320.593 258.005C320.748 257.834 320.975 257.748 321.273 257.748C321.572 257.748 321.799 257.834 321.954 258.005C322.109 258.177 322.187 258.387 322.187 258.636C322.187 258.885 322.109 259.093 321.954 259.259C321.799 259.425 321.572 259.508 321.273 259.508C320.975 259.508 320.748 259.425 320.593 259.259C320.443 259.093 320.369 258.885 320.369 258.636ZM325.938 261.019L325.98 262.015C326.639 261.24 327.527 260.853 328.645 260.853C329.901 260.853 330.756 261.334 331.209 262.297C331.508 261.865 331.896 261.517 332.372 261.251C332.853 260.985 333.42 260.853 334.073 260.853C336.043 260.853 337.045 261.896 337.078 263.982V270H335.542V264.073C335.542 263.431 335.396 262.953 335.103 262.637C334.809 262.316 334.317 262.156 333.625 262.156C333.055 262.156 332.582 262.327 332.206 262.67C331.829 263.008 331.611 263.465 331.55 264.04V270H330.006V264.115C330.006 262.809 329.367 262.156 328.088 262.156C327.081 262.156 326.392 262.585 326.021 263.442V270H324.486V261.019H325.938ZM340.847 261.019L340.888 262.015C341.547 261.24 342.435 260.853 343.553 260.853C344.809 260.853 345.664 261.334 346.118 262.297C346.417 261.865 346.804 261.517 347.28 261.251C347.761 260.985 348.328 260.853 348.981 260.853C350.951 260.853 351.953 261.896 351.986 263.982V270H350.451V264.073C350.451 263.431 350.304 262.953 350.011 262.637C349.717 262.316 349.225 262.156 348.533 262.156C347.963 262.156 347.49 262.327 347.114 262.67C346.737 263.008 346.519 263.465 346.458 264.04V270H344.914V264.115C344.914 262.809 344.275 262.156 342.997 262.156C341.989 262.156 341.3 262.585 340.93 263.442V270H339.394V261.019H340.847ZM359.855 269.112C359.258 269.815 358.381 270.166 357.224 270.166C356.267 270.166 355.536 269.889 355.033 269.336C354.535 268.777 354.283 267.952 354.277 266.862V261.019H355.813V266.821C355.813 268.182 356.366 268.863 357.473 268.863C358.646 268.863 359.427 268.426 359.814 267.551V261.019H361.35V270H359.889L359.855 269.112ZM365.143 261.019L365.193 262.147C365.879 261.284 366.776 260.853 367.882 260.853C369.78 260.853 370.738 261.923 370.754 264.065V270H369.219V264.057C369.213 263.409 369.064 262.931 368.771 262.621C368.483 262.311 368.032 262.156 367.417 262.156C366.919 262.156 366.482 262.289 366.106 262.554C365.73 262.82 365.436 263.168 365.226 263.6V270H363.69V261.019H365.143ZM372.705 265.435C372.705 264.035 373.029 262.922 373.676 262.098C374.324 261.268 375.181 260.853 376.25 260.853C377.345 260.853 378.2 261.24 378.814 262.015L378.889 261.019H380.292V269.784C380.292 270.946 379.946 271.862 379.254 272.532C378.568 273.201 377.644 273.536 376.482 273.536C375.834 273.536 375.201 273.398 374.581 273.121C373.961 272.844 373.488 272.465 373.162 271.984L373.958 271.062C374.617 271.876 375.422 272.283 376.374 272.283C377.121 272.283 377.702 272.072 378.117 271.652C378.538 271.231 378.748 270.639 378.748 269.875V269.104C378.134 269.812 377.295 270.166 376.233 270.166C375.181 270.166 374.329 269.743 373.676 268.896C373.029 268.049 372.705 266.896 372.705 265.435ZM374.249 265.609C374.249 266.622 374.457 267.418 374.872 268C375.287 268.575 375.868 268.863 376.615 268.863C377.583 268.863 378.294 268.423 378.748 267.543V263.442C378.278 262.585 377.572 262.156 376.631 262.156C375.884 262.156 375.3 262.446 374.88 263.027C374.459 263.608 374.249 264.469 374.249 265.609Z" fill="black"/>
<circle cx="406.5" cy="410.5" r="43.5" fill="#86EC16" fill-opacity="0.2" stroke="#86EC16" stroke-width="4"/>
<path d="M385.879 411.232H382.299V415H381.174V406.469H386.459V407.395H382.299V410.312H385.879V411.232ZM390.139 415.117C389.279 415.117 388.58 414.836 388.041 414.273C387.502 413.707 387.232 412.951 387.232 412.006V411.807C387.232 411.178 387.352 410.617 387.59 410.125C387.832 409.629 388.168 409.242 388.598 408.965C389.031 408.684 389.5 408.543 390.004 408.543C390.828 408.543 391.469 408.814 391.926 409.357C392.383 409.9 392.611 410.678 392.611 411.689V412.141H388.316C388.332 412.766 388.514 413.271 388.861 413.658C389.213 414.041 389.658 414.232 390.197 414.232C390.58 414.232 390.904 414.154 391.17 413.998C391.436 413.842 391.668 413.635 391.867 413.377L392.529 413.893C391.998 414.709 391.201 415.117 390.139 415.117ZM390.004 409.434C389.566 409.434 389.199 409.594 388.902 409.914C388.605 410.23 388.422 410.676 388.352 411.25H391.527V411.168C391.496 410.617 391.348 410.191 391.082 409.891C390.816 409.586 390.457 409.434 390.004 409.434ZM396.502 415.117C395.643 415.117 394.943 414.836 394.404 414.273C393.865 413.707 393.596 412.951 393.596 412.006V411.807C393.596 411.178 393.715 410.617 393.953 410.125C394.195 409.629 394.531 409.242 394.961 408.965C395.395 408.684 395.863 408.543 396.367 408.543C397.191 408.543 397.832 408.814 398.289 409.357C398.746 409.9 398.975 410.678 398.975 411.689V412.141H394.68C394.695 412.766 394.877 413.271 395.225 413.658C395.576 414.041 396.021 414.232 396.561 414.232C396.943 414.232 397.268 414.154 397.533 413.998C397.799 413.842 398.031 413.635 398.23 413.377L398.893 413.893C398.361 414.709 397.564 415.117 396.502 415.117ZM396.367 409.434C395.93 409.434 395.562 409.594 395.266 409.914C394.969 410.23 394.785 410.676 394.715 411.25H397.891V411.168C397.859 410.617 397.711 410.191 397.445 409.891C397.18 409.586 396.82 409.434 396.367 409.434ZM399.971 411.777C399.971 410.805 400.201 410.023 400.662 409.434C401.123 408.84 401.727 408.543 402.473 408.543C403.215 408.543 403.803 408.797 404.236 409.305V406H405.32V415H404.324L404.271 414.32C403.838 414.852 403.234 415.117 402.461 415.117C401.727 415.117 401.127 414.816 400.662 414.215C400.201 413.613 399.971 412.828 399.971 411.859V411.777ZM401.055 411.9C401.055 412.619 401.203 413.182 401.5 413.588C401.797 413.994 402.207 414.197 402.73 414.197C403.418 414.197 403.92 413.889 404.236 413.271V410.359C403.912 409.762 403.414 409.463 402.742 409.463C402.211 409.463 401.797 409.668 401.5 410.078C401.203 410.488 401.055 411.096 401.055 411.9ZM412.375 411.9C412.375 412.869 412.152 413.648 411.707 414.238C411.262 414.824 410.664 415.117 409.914 415.117C409.113 415.117 408.494 414.834 408.057 414.268L408.004 415H407.008V406H408.092V409.357C408.529 408.814 409.133 408.543 409.902 408.543C410.672 408.543 411.275 408.834 411.713 409.416C412.154 409.998 412.375 410.795 412.375 411.807V411.9ZM411.291 411.777C411.291 411.039 411.148 410.469 410.863 410.066C410.578 409.664 410.168 409.463 409.633 409.463C408.918 409.463 408.404 409.795 408.092 410.459V413.201C408.424 413.865 408.941 414.197 409.645 414.197C410.164 414.197 410.568 413.996 410.857 413.594C411.146 413.191 411.291 412.586 411.291 411.777ZM417.66 415C417.598 414.875 417.547 414.652 417.508 414.332C417.004 414.855 416.402 415.117 415.703 415.117C415.078 415.117 414.564 414.941 414.162 414.59C413.764 414.234 413.564 413.785 413.564 413.242C413.564 412.582 413.814 412.07 414.314 411.707C414.818 411.34 415.525 411.156 416.436 411.156H417.49V410.658C417.49 410.279 417.377 409.979 417.15 409.756C416.924 409.529 416.59 409.416 416.148 409.416C415.762 409.416 415.438 409.514 415.176 409.709C414.914 409.904 414.783 410.141 414.783 410.418H413.693C413.693 410.102 413.805 409.797 414.027 409.504C414.254 409.207 414.559 408.973 414.941 408.801C415.328 408.629 415.752 408.543 416.213 408.543C416.943 408.543 417.516 408.727 417.93 409.094C418.344 409.457 418.559 409.959 418.574 410.6V413.518C418.574 414.1 418.648 414.562 418.797 414.906V415H417.66ZM415.861 414.174C416.201 414.174 416.523 414.086 416.828 413.91C417.133 413.734 417.354 413.506 417.49 413.225V411.924H416.641C415.312 411.924 414.648 412.312 414.648 413.09C414.648 413.43 414.762 413.695 414.988 413.887C415.215 414.078 415.506 414.174 415.861 414.174ZM422.816 414.232C423.203 414.232 423.541 414.115 423.83 413.881C424.119 413.646 424.279 413.354 424.311 413.002H425.336C425.316 413.365 425.191 413.711 424.961 414.039C424.73 414.367 424.422 414.629 424.035 414.824C423.652 415.02 423.246 415.117 422.816 415.117C421.953 415.117 421.266 414.83 420.754 414.256C420.246 413.678 419.992 412.889 419.992 411.889V411.707C419.992 411.09 420.105 410.541 420.332 410.061C420.559 409.58 420.883 409.207 421.305 408.941C421.73 408.676 422.232 408.543 422.811 408.543C423.521 408.543 424.111 408.756 424.58 409.182C425.053 409.607 425.305 410.16 425.336 410.84H424.311C424.279 410.43 424.123 410.094 423.842 409.832C423.564 409.566 423.221 409.434 422.811 409.434C422.26 409.434 421.832 409.633 421.527 410.031C421.227 410.426 421.076 410.998 421.076 411.748V411.953C421.076 412.684 421.227 413.246 421.527 413.641C421.828 414.035 422.258 414.232 422.816 414.232ZM428.324 412.064L427.645 412.773V415H426.561V406H427.645V411.443L428.225 410.746L430.199 408.66H431.518L429.051 411.309L431.805 415H430.533L428.324 412.064Z" fill="black"/>
<circle cx="396.5" cy="318.5" r="33.5" fill="#86EC16" fill-opacity="0.2" stroke="#86EC16" stroke-width="4"/>
<path d="M381.16 320.773H377.586L376.783 323H375.623L378.881 314.469H379.865L383.129 323H381.975L381.16 320.773ZM377.926 319.848H380.826L379.373 315.857L377.926 319.848ZM385.133 316.66L385.168 317.457C385.652 316.848 386.285 316.543 387.066 316.543C388.406 316.543 389.082 317.299 389.094 318.811V323H388.01V318.805C388.006 318.348 387.9 318.01 387.693 317.791C387.49 317.572 387.172 317.463 386.738 317.463C386.387 317.463 386.078 317.557 385.812 317.744C385.547 317.932 385.34 318.178 385.191 318.482V323H384.107V316.66H385.133ZM391.262 323V317.498H390.26V316.66H391.262V316.01C391.262 315.33 391.443 314.805 391.807 314.434C392.17 314.062 392.684 313.877 393.348 313.877C393.598 313.877 393.846 313.91 394.092 313.977L394.033 314.855C393.85 314.82 393.654 314.803 393.447 314.803C393.096 314.803 392.824 314.906 392.633 315.113C392.441 315.316 392.346 315.609 392.346 315.992V316.66H393.699V317.498H392.346V323H391.262ZM397.965 317.633C397.801 317.605 397.623 317.592 397.432 317.592C396.721 317.592 396.238 317.895 395.984 318.5V323H394.9V316.66H395.955L395.973 317.393C396.328 316.826 396.832 316.543 397.484 316.543C397.695 316.543 397.855 316.57 397.965 316.625V317.633ZM402.646 323C402.584 322.875 402.533 322.652 402.494 322.332C401.99 322.855 401.389 323.117 400.689 323.117C400.064 323.117 399.551 322.941 399.148 322.59C398.75 322.234 398.551 321.785 398.551 321.242C398.551 320.582 398.801 320.07 399.301 319.707C399.805 319.34 400.512 319.156 401.422 319.156H402.477V318.658C402.477 318.279 402.363 317.979 402.137 317.756C401.91 317.529 401.576 317.416 401.135 317.416C400.748 317.416 400.424 317.514 400.162 317.709C399.9 317.904 399.77 318.141 399.77 318.418H398.68C398.68 318.102 398.791 317.797 399.014 317.504C399.24 317.207 399.545 316.973 399.928 316.801C400.314 316.629 400.738 316.543 401.199 316.543C401.93 316.543 402.502 316.727 402.916 317.094C403.33 317.457 403.545 317.959 403.561 318.6V321.518C403.561 322.1 403.635 322.562 403.783 322.906V323H402.646ZM400.848 322.174C401.188 322.174 401.51 322.086 401.814 321.91C402.119 321.734 402.34 321.506 402.477 321.225V319.924H401.627C400.299 319.924 399.635 320.312 399.635 321.09C399.635 321.43 399.748 321.695 399.975 321.887C400.201 322.078 400.492 322.174 400.848 322.174ZM405.002 319.777C405.002 318.789 405.23 318.004 405.688 317.422C406.145 316.836 406.75 316.543 407.504 316.543C408.277 316.543 408.881 316.816 409.314 317.363L409.367 316.66H410.357V322.848C410.357 323.668 410.113 324.314 409.625 324.787C409.141 325.26 408.488 325.496 407.668 325.496C407.211 325.496 406.764 325.398 406.326 325.203C405.889 325.008 405.555 324.74 405.324 324.4L405.887 323.75C406.352 324.324 406.92 324.611 407.592 324.611C408.119 324.611 408.529 324.463 408.822 324.166C409.119 323.869 409.268 323.451 409.268 322.912V322.367C408.834 322.867 408.242 323.117 407.492 323.117C406.75 323.117 406.148 322.818 405.688 322.221C405.23 321.623 405.002 320.809 405.002 319.777ZM406.092 319.9C406.092 320.615 406.238 321.178 406.531 321.588C406.824 321.994 407.234 322.197 407.762 322.197C408.445 322.197 408.947 321.887 409.268 321.266V318.371C408.936 317.766 408.438 317.463 407.773 317.463C407.246 317.463 406.834 317.668 406.537 318.078C406.24 318.488 406.092 319.096 406.092 319.9ZM414.629 323.117C413.77 323.117 413.07 322.836 412.531 322.273C411.992 321.707 411.723 320.951 411.723 320.006V319.807C411.723 319.178 411.842 318.617 412.08 318.125C412.322 317.629 412.658 317.242 413.088 316.965C413.521 316.684 413.99 316.543 414.494 316.543C415.318 316.543 415.959 316.814 416.416 317.357C416.873 317.9 417.102 318.678 417.102 319.689V320.141H412.807C412.822 320.766 413.004 321.271 413.352 321.658C413.703 322.041 414.148 322.232 414.688 322.232C415.07 322.232 415.395 322.154 415.66 321.998C415.926 321.842 416.158 321.635 416.357 321.377L417.02 321.893C416.488 322.709 415.691 323.117 414.629 323.117ZM414.494 317.434C414.057 317.434 413.689 317.594 413.393 317.914C413.096 318.23 412.912 318.676 412.842 319.25H416.018V319.168C415.986 318.617 415.838 318.191 415.572 317.891C415.307 317.586 414.947 317.434 414.494 317.434Z" fill="black"/>
<circle cx="313.5" cy="333.5" r="37.5" fill="#86EC16" fill-opacity="0.2" stroke="#86EC16" stroke-width="4"/>
<path d="M295.828 334.197C294.863 333.92 294.16 333.58 293.719 333.178C293.281 332.771 293.062 332.271 293.062 331.678C293.062 331.006 293.33 330.451 293.865 330.014C294.404 329.572 295.104 329.352 295.963 329.352C296.549 329.352 297.07 329.465 297.527 329.691C297.988 329.918 298.344 330.23 298.594 330.629C298.848 331.027 298.975 331.463 298.975 331.936H297.844C297.844 331.42 297.68 331.016 297.352 330.723C297.023 330.426 296.561 330.277 295.963 330.277C295.408 330.277 294.975 330.4 294.662 330.646C294.354 330.889 294.199 331.227 294.199 331.66C294.199 332.008 294.346 332.303 294.639 332.545C294.936 332.783 295.438 333.002 296.145 333.201C296.855 333.4 297.41 333.621 297.809 333.863C298.211 334.102 298.508 334.381 298.699 334.701C298.895 335.021 298.992 335.398 298.992 335.832C298.992 336.523 298.723 337.078 298.184 337.496C297.645 337.91 296.924 338.117 296.021 338.117C295.436 338.117 294.889 338.006 294.381 337.783C293.873 337.557 293.48 337.248 293.203 336.857C292.93 336.467 292.793 336.023 292.793 335.527H293.924C293.924 336.043 294.113 336.451 294.492 336.752C294.875 337.049 295.385 337.197 296.021 337.197C296.615 337.197 297.07 337.076 297.387 336.834C297.703 336.592 297.861 336.262 297.861 335.844C297.861 335.426 297.715 335.104 297.422 334.877C297.129 334.646 296.598 334.42 295.828 334.197ZM304.184 337.373C303.762 337.869 303.143 338.117 302.326 338.117C301.65 338.117 301.135 337.922 300.779 337.531C300.428 337.137 300.25 336.555 300.246 335.785V331.66H301.33V335.756C301.33 336.717 301.721 337.197 302.502 337.197C303.33 337.197 303.881 336.889 304.154 336.271V331.66H305.238V338H304.207L304.184 337.373ZM312.246 334.9C312.246 335.865 312.025 336.643 311.584 337.232C311.143 337.822 310.545 338.117 309.791 338.117C309.021 338.117 308.416 337.873 307.975 337.385V340.438H306.891V331.66H307.881L307.934 332.363C308.375 331.816 308.988 331.543 309.773 331.543C310.535 331.543 311.137 331.83 311.578 332.404C312.023 332.979 312.246 333.777 312.246 334.801V334.9ZM311.162 334.777C311.162 334.062 311.01 333.498 310.705 333.084C310.4 332.67 309.982 332.463 309.451 332.463C308.795 332.463 308.303 332.754 307.975 333.336V336.365C308.299 336.943 308.795 337.232 309.463 337.232C309.982 337.232 310.395 337.027 310.699 336.617C311.008 336.203 311.162 335.59 311.162 334.777ZM318.984 334.9C318.984 335.865 318.764 336.643 318.322 337.232C317.881 337.822 317.283 338.117 316.529 338.117C315.76 338.117 315.154 337.873 314.713 337.385V340.438H313.629V331.66H314.619L314.672 332.363C315.113 331.816 315.727 331.543 316.512 331.543C317.273 331.543 317.875 331.83 318.316 332.404C318.762 332.979 318.984 333.777 318.984 334.801V334.9ZM317.9 334.777C317.9 334.062 317.748 333.498 317.443 333.084C317.139 332.67 316.721 332.463 316.189 332.463C315.533 332.463 315.041 332.754 314.713 333.336V336.365C315.037 336.943 315.533 337.232 316.201 337.232C316.721 337.232 317.133 337.027 317.438 336.617C317.746 336.203 317.9 335.59 317.9 334.777ZM320.08 334.771C320.08 334.15 320.201 333.592 320.443 333.096C320.689 332.6 321.029 332.217 321.463 331.947C321.9 331.678 322.398 331.543 322.957 331.543C323.82 331.543 324.518 331.842 325.049 332.439C325.584 333.037 325.852 333.832 325.852 334.824V334.9C325.852 335.518 325.732 336.072 325.494 336.564C325.26 337.053 324.922 337.434 324.48 337.707C324.043 337.98 323.539 338.117 322.969 338.117C322.109 338.117 321.412 337.818 320.877 337.221C320.346 336.623 320.08 335.832 320.08 334.848V334.771ZM321.17 334.9C321.17 335.604 321.332 336.168 321.656 336.594C321.984 337.02 322.422 337.232 322.969 337.232C323.52 337.232 323.957 337.018 324.281 336.588C324.605 336.154 324.768 335.549 324.768 334.771C324.768 334.076 324.602 333.514 324.27 333.084C323.941 332.65 323.504 332.434 322.957 332.434C322.422 332.434 321.99 332.646 321.662 333.072C321.334 333.498 321.17 334.107 321.17 334.9ZM330.275 332.633C330.111 332.605 329.934 332.592 329.742 332.592C329.031 332.592 328.549 332.895 328.295 333.5V338H327.211V331.66H328.266L328.283 332.393C328.639 331.826 329.143 331.543 329.795 331.543C330.006 331.543 330.166 331.57 330.275 331.625V332.633ZM333.041 330.125V331.66H334.225V332.498H333.041V336.43C333.041 336.684 333.094 336.875 333.199 337.004C333.305 337.129 333.484 337.191 333.738 337.191C333.863 337.191 334.035 337.168 334.254 337.121V338C333.969 338.078 333.691 338.117 333.422 338.117C332.938 338.117 332.572 337.971 332.326 337.678C332.08 337.385 331.957 336.969 331.957 336.43V332.498H330.803V331.66H331.957V330.125H333.041Z" fill="black"/>
<circle cx="233.5" cy="421.5" r="32.5" fill="#D6D6D6" fill-opacity="0.2" stroke="#D6D6D6" stroke-width="4"/>
<path d="M216.139 426V417.469H218.547C219.289 417.469 219.945 417.633 220.516 417.961C221.086 418.289 221.525 418.756 221.834 419.361C222.146 419.967 222.305 420.662 222.309 421.447V421.992C222.309 422.797 222.152 423.502 221.84 424.107C221.531 424.713 221.088 425.178 220.51 425.502C219.936 425.826 219.266 425.992 218.5 426H216.139ZM217.264 418.395V425.08H218.447C219.314 425.08 219.988 424.811 220.469 424.271C220.953 423.732 221.195 422.965 221.195 421.969V421.471C221.195 420.502 220.967 419.75 220.51 419.215C220.057 418.676 219.412 418.402 218.576 418.395H217.264ZM226.475 426.117C225.615 426.117 224.916 425.836 224.377 425.273C223.838 424.707 223.568 423.951 223.568 423.006V422.807C223.568 422.178 223.688 421.617 223.926 421.125C224.168 420.629 224.504 420.242 224.934 419.965C225.367 419.684 225.836 419.543 226.34 419.543C227.164 419.543 227.805 419.814 228.262 420.357C228.719 420.9 228.947 421.678 228.947 422.689V423.141H224.652C224.668 423.766 224.85 424.271 225.197 424.658C225.549 425.041 225.994 425.232 226.533 425.232C226.916 425.232 227.24 425.154 227.506 424.998C227.771 424.842 228.004 424.635 228.203 424.377L228.865 424.893C228.334 425.709 227.537 426.117 226.475 426.117ZM226.34 420.434C225.902 420.434 225.535 420.594 225.238 420.914C224.941 421.23 224.758 421.676 224.688 422.25H227.863V422.168C227.832 421.617 227.684 421.191 227.418 420.891C227.152 420.586 226.793 420.434 226.34 420.434ZM233.898 424.318C233.898 424.025 233.787 423.799 233.564 423.639C233.346 423.475 232.961 423.334 232.41 423.217C231.863 423.1 231.428 422.959 231.104 422.795C230.783 422.631 230.545 422.436 230.389 422.209C230.236 421.982 230.16 421.713 230.16 421.4C230.16 420.881 230.379 420.441 230.816 420.082C231.258 419.723 231.82 419.543 232.504 419.543C233.223 419.543 233.805 419.729 234.25 420.1C234.699 420.471 234.924 420.945 234.924 421.523H233.834C233.834 421.227 233.707 420.971 233.453 420.756C233.203 420.541 232.887 420.434 232.504 420.434C232.109 420.434 231.801 420.52 231.578 420.691C231.355 420.863 231.244 421.088 231.244 421.365C231.244 421.627 231.348 421.824 231.555 421.957C231.762 422.09 232.135 422.217 232.674 422.338C233.217 422.459 233.656 422.604 233.992 422.771C234.328 422.939 234.576 423.143 234.736 423.381C234.9 423.615 234.982 423.902 234.982 424.242C234.982 424.809 234.756 425.264 234.303 425.607C233.85 425.947 233.262 426.117 232.539 426.117C232.031 426.117 231.582 426.027 231.191 425.848C230.801 425.668 230.494 425.418 230.271 425.098C230.053 424.773 229.943 424.424 229.943 424.049H231.027C231.047 424.412 231.191 424.701 231.461 424.916C231.734 425.127 232.094 425.232 232.539 425.232C232.949 425.232 233.277 425.15 233.523 424.986C233.773 424.818 233.898 424.596 233.898 424.318ZM237.572 426H236.488V419.66H237.572V426ZM236.4 417.979C236.4 417.803 236.453 417.654 236.559 417.533C236.668 417.412 236.828 417.352 237.039 417.352C237.25 417.352 237.41 417.412 237.52 417.533C237.629 417.654 237.684 417.803 237.684 417.979C237.684 418.154 237.629 418.301 237.52 418.418C237.41 418.535 237.25 418.594 237.039 418.594C236.828 418.594 236.668 418.535 236.559 418.418C236.453 418.301 236.4 418.154 236.4 417.979ZM239.055 422.777C239.055 421.789 239.283 421.004 239.74 420.422C240.197 419.836 240.803 419.543 241.557 419.543C242.33 419.543 242.934 419.816 243.367 420.363L243.42 419.66H244.41V425.848C244.41 426.668 244.166 427.314 243.678 427.787C243.193 428.26 242.541 428.496 241.721 428.496C241.264 428.496 240.816 428.398 240.379 428.203C239.941 428.008 239.607 427.74 239.377 427.4L239.939 426.75C240.404 427.324 240.973 427.611 241.645 427.611C242.172 427.611 242.582 427.463 242.875 427.166C243.172 426.869 243.32 426.451 243.32 425.912V425.367C242.887 425.867 242.295 426.117 241.545 426.117C240.803 426.117 240.201 425.818 239.74 425.221C239.283 424.623 239.055 423.809 239.055 422.777ZM240.145 422.9C240.145 423.615 240.291 424.178 240.584 424.588C240.877 424.994 241.287 425.197 241.814 425.197C242.498 425.197 243 424.887 243.32 424.266V421.371C242.988 420.766 242.49 420.463 241.826 420.463C241.299 420.463 240.887 420.668 240.59 421.078C240.293 421.488 240.145 422.096 240.145 422.9ZM247.076 419.66L247.111 420.457C247.596 419.848 248.229 419.543 249.01 419.543C250.35 419.543 251.025 420.299 251.037 421.811V426H249.953V421.805C249.949 421.348 249.844 421.01 249.637 420.791C249.434 420.572 249.115 420.463 248.682 420.463C248.33 420.463 248.021 420.557 247.756 420.744C247.49 420.932 247.283 421.178 247.135 421.482V426H246.051V419.66H247.076Z" fill="black"/>
<circle cx="319.5" cy="421.5" r="32.5" fill="#D6D6D6" fill-opacity="0.2" stroke="#D6D6D6" stroke-width="4"/>
<path d="M307.441 417.469V423.27C307.438 424.074 307.184 424.732 306.68 425.244C306.18 425.756 305.5 426.043 304.641 426.105L304.342 426.117C303.408 426.117 302.664 425.865 302.109 425.361C301.555 424.857 301.273 424.164 301.266 423.281V417.469H302.379V423.246C302.379 423.863 302.549 424.344 302.889 424.688C303.229 425.027 303.713 425.197 304.342 425.197C304.979 425.197 305.465 425.027 305.801 424.688C306.141 424.348 306.311 423.869 306.311 423.252V417.469H307.441ZM314.402 422.9C314.402 423.865 314.182 424.643 313.74 425.232C313.299 425.822 312.701 426.117 311.947 426.117C311.178 426.117 310.572 425.873 310.131 425.385V428.438H309.047V419.66H310.037L310.09 420.363C310.531 419.816 311.145 419.543 311.93 419.543C312.691 419.543 313.293 419.83 313.734 420.404C314.18 420.979 314.402 421.777 314.402 422.801V422.9ZM313.318 422.777C313.318 422.062 313.166 421.498 312.861 421.084C312.557 420.67 312.139 420.463 311.607 420.463C310.951 420.463 310.459 420.754 310.131 421.336V424.365C310.455 424.943 310.951 425.232 311.619 425.232C312.139 425.232 312.551 425.027 312.855 424.617C313.164 424.203 313.318 423.59 313.318 422.777ZM315.521 422.777C315.521 421.805 315.752 421.023 316.213 420.434C316.674 419.84 317.277 419.543 318.023 419.543C318.766 419.543 319.354 419.797 319.787 420.305V417H320.871V426H319.875L319.822 425.32C319.389 425.852 318.785 426.117 318.012 426.117C317.277 426.117 316.678 425.816 316.213 425.215C315.752 424.613 315.521 423.828 315.521 422.859V422.777ZM316.605 422.9C316.605 423.619 316.754 424.182 317.051 424.588C317.348 424.994 317.758 425.197 318.281 425.197C318.969 425.197 319.471 424.889 319.787 424.271V421.359C319.463 420.762 318.965 420.463 318.293 420.463C317.762 420.463 317.348 420.668 317.051 421.078C316.754 421.488 316.605 422.096 316.605 422.9ZM326.473 426C326.41 425.875 326.359 425.652 326.32 425.332C325.816 425.855 325.215 426.117 324.516 426.117C323.891 426.117 323.377 425.941 322.975 425.59C322.576 425.234 322.377 424.785 322.377 424.242C322.377 423.582 322.627 423.07 323.127 422.707C323.631 422.34 324.338 422.156 325.248 422.156H326.303V421.658C326.303 421.279 326.189 420.979 325.963 420.756C325.736 420.529 325.402 420.416 324.961 420.416C324.574 420.416 324.25 420.514 323.988 420.709C323.727 420.904 323.596 421.141 323.596 421.418H322.506C322.506 421.102 322.617 420.797 322.84 420.504C323.066 420.207 323.371 419.973 323.754 419.801C324.141 419.629 324.564 419.543 325.025 419.543C325.756 419.543 326.328 419.727 326.742 420.094C327.156 420.457 327.371 420.959 327.387 421.6V424.518C327.387 425.1 327.461 425.562 327.609 425.906V426H326.473ZM324.674 425.174C325.014 425.174 325.336 425.086 325.641 424.91C325.945 424.734 326.166 424.506 326.303 424.225V422.924H325.453C324.125 422.924 323.461 423.312 323.461 424.09C323.461 424.43 323.574 424.695 323.801 424.887C324.027 425.078 324.318 425.174 324.674 425.174ZM330.557 418.125V419.66H331.74V420.498H330.557V424.43C330.557 424.684 330.609 424.875 330.715 425.004C330.82 425.129 331 425.191 331.254 425.191C331.379 425.191 331.551 425.168 331.77 425.121V426C331.484 426.078 331.207 426.117 330.938 426.117C330.453 426.117 330.088 425.971 329.842 425.678C329.596 425.385 329.473 424.969 329.473 424.43V420.498H328.318V419.66H329.473V418.125H330.557ZM335.643 426.117C334.783 426.117 334.084 425.836 333.545 425.273C333.006 424.707 332.736 423.951 332.736 423.006V422.807C332.736 422.178 332.855 421.617 333.094 421.125C333.336 420.629 333.672 420.242 334.102 419.965C334.535 419.684 335.004 419.543 335.508 419.543C336.332 419.543 336.973 419.814 337.43 420.357C337.887 420.9 338.115 421.678 338.115 422.689V423.141H333.82C333.836 423.766 334.018 424.271 334.365 424.658C334.717 425.041 335.162 425.232 335.701 425.232C336.084 425.232 336.408 425.154 336.674 424.998C336.939 424.842 337.172 424.635 337.371 424.377L338.033 424.893C337.502 425.709 336.705 426.117 335.643 426.117ZM335.508 420.434C335.07 420.434 334.703 420.594 334.406 420.914C334.109 421.23 333.926 421.676 333.855 422.25H337.031V422.168C337 421.617 336.852 421.191 336.586 420.891C336.32 420.586 335.961 420.434 335.508 420.434Z" fill="black"/>
<circle cx="482.5" cy="318.5" r="32.5" fill="#86EC16" fill-opacity="0.2" stroke="#86EC16" stroke-width="4"/>
<path d="M467.439 319.66V323H466.314V314.469H469.461C470.395 314.469 471.125 314.707 471.652 315.184C472.184 315.66 472.449 316.291 472.449 317.076C472.449 317.904 472.189 318.543 471.67 318.992C471.154 319.438 470.414 319.66 469.449 319.66H467.439ZM467.439 318.74H469.461C470.062 318.74 470.523 318.6 470.844 318.318C471.164 318.033 471.324 317.623 471.324 317.088C471.324 316.58 471.164 316.174 470.844 315.869C470.523 315.564 470.084 315.406 469.525 315.395H467.439V318.74ZM476.779 317.633C476.615 317.605 476.438 317.592 476.246 317.592C475.535 317.592 475.053 317.895 474.799 318.5V323H473.715V316.66H474.77L474.787 317.393C475.143 316.826 475.646 316.543 476.299 316.543C476.51 316.543 476.67 316.57 476.779 316.625V317.633ZM480.295 323.117C479.436 323.117 478.736 322.836 478.197 322.273C477.658 321.707 477.389 320.951 477.389 320.006V319.807C477.389 319.178 477.508 318.617 477.746 318.125C477.988 317.629 478.324 317.242 478.754 316.965C479.188 316.684 479.656 316.543 480.16 316.543C480.984 316.543 481.625 316.814 482.082 317.357C482.539 317.9 482.768 318.678 482.768 319.689V320.141H478.473C478.488 320.766 478.67 321.271 479.018 321.658C479.369 322.041 479.814 322.232 480.354 322.232C480.736 322.232 481.061 322.154 481.326 321.998C481.592 321.842 481.824 321.635 482.023 321.377L482.686 321.893C482.154 322.709 481.357 323.117 480.295 323.117ZM480.16 317.434C479.723 317.434 479.355 317.594 479.059 317.914C478.762 318.23 478.578 318.676 478.508 319.25H481.684V319.168C481.652 318.617 481.504 318.191 481.238 317.891C480.973 317.586 480.613 317.434 480.16 317.434ZM485.205 323H484.121V316.66H485.205V323ZM484.033 314.979C484.033 314.803 484.086 314.654 484.191 314.533C484.301 314.412 484.461 314.352 484.672 314.352C484.883 314.352 485.043 314.412 485.152 314.533C485.262 314.654 485.316 314.803 485.316 314.979C485.316 315.154 485.262 315.301 485.152 315.418C485.043 315.535 484.883 315.594 484.672 315.594C484.461 315.594 484.301 315.535 484.191 315.418C484.086 315.301 484.033 315.154 484.033 314.979ZM490.637 321.318C490.637 321.025 490.525 320.799 490.303 320.639C490.084 320.475 489.699 320.334 489.148 320.217C488.602 320.1 488.166 319.959 487.842 319.795C487.521 319.631 487.283 319.436 487.127 319.209C486.975 318.982 486.898 318.713 486.898 318.4C486.898 317.881 487.117 317.441 487.555 317.082C487.996 316.723 488.559 316.543 489.242 316.543C489.961 316.543 490.543 316.729 490.988 317.1C491.438 317.471 491.662 317.945 491.662 318.523H490.572C490.572 318.227 490.445 317.971 490.191 317.756C489.941 317.541 489.625 317.434 489.242 317.434C488.848 317.434 488.539 317.52 488.316 317.691C488.094 317.863 487.982 318.088 487.982 318.365C487.982 318.627 488.086 318.824 488.293 318.957C488.5 319.09 488.873 319.217 489.412 319.338C489.955 319.459 490.395 319.604 490.73 319.771C491.066 319.939 491.314 320.143 491.475 320.381C491.639 320.615 491.721 320.902 491.721 321.242C491.721 321.809 491.494 322.264 491.041 322.607C490.588 322.947 490 323.117 489.277 323.117C488.77 323.117 488.32 323.027 487.93 322.848C487.539 322.668 487.232 322.418 487.01 322.098C486.791 321.773 486.682 321.424 486.682 321.049H487.766C487.785 321.412 487.93 321.701 488.199 321.916C488.473 322.127 488.832 322.232 489.277 322.232C489.688 322.232 490.016 322.15 490.262 321.986C490.512 321.818 490.637 321.596 490.637 321.318ZM495.764 323.117C494.904 323.117 494.205 322.836 493.666 322.273C493.127 321.707 492.857 320.951 492.857 320.006V319.807C492.857 319.178 492.977 318.617 493.215 318.125C493.457 317.629 493.793 317.242 494.223 316.965C494.656 316.684 495.125 316.543 495.629 316.543C496.453 316.543 497.094 316.814 497.551 317.357C498.008 317.9 498.236 318.678 498.236 319.689V320.141H493.941C493.957 320.766 494.139 321.271 494.486 321.658C494.838 322.041 495.283 322.232 495.822 322.232C496.205 322.232 496.529 322.154 496.795 321.998C497.061 321.842 497.293 321.635 497.492 321.377L498.154 321.893C497.623 322.709 496.826 323.117 495.764 323.117ZM495.629 317.434C495.191 317.434 494.824 317.594 494.527 317.914C494.23 318.23 494.047 318.676 493.977 319.25H497.152V319.168C497.121 318.617 496.973 318.191 496.707 317.891C496.441 317.586 496.082 317.434 495.629 317.434Z" fill="black"/>
<circle cx="157.5" cy="391.5" r="29.5" fill="#FF0000" fill-opacity="0.2" stroke="#FF0000" stroke-width="4"/>
<path d="M148.072 396V387.469H150.861C151.787 387.469 152.482 387.66 152.947 388.043C153.416 388.426 153.65 388.992 153.65 389.742C153.65 390.141 153.537 390.494 153.311 390.803C153.084 391.107 152.775 391.344 152.385 391.512C152.846 391.641 153.209 391.887 153.475 392.25C153.744 392.609 153.879 393.039 153.879 393.539C153.879 394.305 153.631 394.906 153.135 395.344C152.639 395.781 151.938 396 151.031 396H148.072ZM149.197 392.01V395.08H151.055C151.578 395.08 151.99 394.945 152.291 394.676C152.596 394.402 152.748 394.027 152.748 393.551C152.748 392.523 152.189 392.01 151.072 392.01H149.197ZM149.197 391.107H150.896C151.389 391.107 151.781 390.984 152.074 390.738C152.371 390.492 152.52 390.158 152.52 389.736C152.52 389.268 152.383 388.928 152.109 388.717C151.836 388.502 151.42 388.395 150.861 388.395H149.197V391.107ZM159.293 395.373C158.871 395.869 158.252 396.117 157.436 396.117C156.76 396.117 156.244 395.922 155.889 395.531C155.537 395.137 155.359 394.555 155.355 393.785V389.66H156.439V393.756C156.439 394.717 156.83 395.197 157.611 395.197C158.439 395.197 158.99 394.889 159.264 394.271V389.66H160.348V396H159.316L159.293 395.373ZM161.742 392.777C161.742 391.789 161.971 391.004 162.428 390.422C162.885 389.836 163.49 389.543 164.244 389.543C165.018 389.543 165.621 389.816 166.055 390.363L166.107 389.66H167.098V395.848C167.098 396.668 166.854 397.314 166.365 397.787C165.881 398.26 165.229 398.496 164.408 398.496C163.951 398.496 163.504 398.398 163.066 398.203C162.629 398.008 162.295 397.74 162.064 397.4L162.627 396.75C163.092 397.324 163.66 397.611 164.332 397.611C164.859 397.611 165.27 397.463 165.562 397.166C165.859 396.869 166.008 396.451 166.008 395.912V395.367C165.574 395.867 164.982 396.117 164.232 396.117C163.49 396.117 162.889 395.818 162.428 395.221C161.971 394.623 161.742 393.809 161.742 392.777ZM162.832 392.9C162.832 393.615 162.979 394.178 163.271 394.588C163.564 394.994 163.975 395.197 164.502 395.197C165.186 395.197 165.688 394.887 166.008 394.266V391.371C165.676 390.766 165.178 390.463 164.514 390.463C163.986 390.463 163.574 390.668 163.277 391.078C162.98 391.488 162.832 392.096 162.832 392.9Z" fill="black"/>
<circle cx="78.5" cy="410.5" r="43.5" fill="#FF0000" fill-opacity="0.2" stroke="#FF0000" stroke-width="4"/>
<path d="M54.8457 415H53.7148V411.057H49.4141V415H48.2891V406.469H49.4141V410.137H53.7148V406.469H54.8457V415ZM56.3867 411.771C56.3867 411.15 56.5078 410.592 56.75 410.096C56.9961 409.6 57.3359 409.217 57.7695 408.947C58.207 408.678 58.7051 408.543 59.2637 408.543C60.127 408.543 60.8242 408.842 61.3555 409.439C61.8906 410.037 62.1582 410.832 62.1582 411.824V411.9C62.1582 412.518 62.0391 413.072 61.8008 413.564C61.5664 414.053 61.2285 414.434 60.7871 414.707C60.3496 414.98 59.8457 415.117 59.2754 415.117C58.416 415.117 57.7188 414.818 57.1836 414.221C56.6523 413.623 56.3867 412.832 56.3867 411.848V411.771ZM57.4766 411.9C57.4766 412.604 57.6387 413.168 57.9629 413.594C58.291 414.02 58.7285 414.232 59.2754 414.232C59.8262 414.232 60.2637 414.018 60.5879 413.588C60.9121 413.154 61.0742 412.549 61.0742 411.771C61.0742 411.076 60.9082 410.514 60.5762 410.084C60.248 409.65 59.8105 409.434 59.2637 409.434C58.7285 409.434 58.2969 409.646 57.9688 410.072C57.6406 410.498 57.4766 411.107 57.4766 411.9ZM64.6016 409.428C65.082 408.838 65.707 408.543 66.4766 408.543C67.8164 408.543 68.4922 409.299 68.5039 410.811V415H67.4199V410.805C67.416 410.348 67.3105 410.01 67.1035 409.791C66.9004 409.572 66.582 409.463 66.1484 409.463C65.7969 409.463 65.4883 409.557 65.2227 409.744C64.957 409.932 64.75 410.178 64.6016 410.482V415H63.5176V406H64.6016V409.428ZM72.7578 415.117C71.8984 415.117 71.1992 414.836 70.6602 414.273C70.1211 413.707 69.8516 412.951 69.8516 412.006V411.807C69.8516 411.178 69.9707 410.617 70.209 410.125C70.4512 409.629 70.7871 409.242 71.2168 408.965C71.6504 408.684 72.1191 408.543 72.623 408.543C73.4473 408.543 74.0879 408.814 74.5449 409.357C75.002 409.9 75.2305 410.678 75.2305 411.689V412.141H70.9355C70.9512 412.766 71.1328 413.271 71.4805 413.658C71.832 414.041 72.2773 414.232 72.8164 414.232C73.1992 414.232 73.5234 414.154 73.7891 413.998C74.0547 413.842 74.2871 413.635 74.4863 413.377L75.1484 413.893C74.6172 414.709 73.8203 415.117 72.7578 415.117ZM72.623 409.434C72.1855 409.434 71.8184 409.594 71.5215 409.914C71.2246 410.23 71.041 410.676 70.9707 411.25H74.1465V411.168C74.1152 410.617 73.9668 410.191 73.7012 409.891C73.4355 409.586 73.0762 409.434 72.623 409.434ZM79.5547 409.633C79.3906 409.605 79.2129 409.592 79.0215 409.592C78.3105 409.592 77.8281 409.895 77.5742 410.5V415H76.4902V408.66H77.5449L77.5625 409.393C77.918 408.826 78.4219 408.543 79.0742 408.543C79.2852 408.543 79.4453 408.57 79.5547 408.625V409.633ZM84.8281 411.66V415H83.7031V406.469H86.8496C87.7832 406.469 88.5137 406.707 89.041 407.184C89.5723 407.66 89.8379 408.291 89.8379 409.076C89.8379 409.904 89.5781 410.543 89.0586 410.992C88.543 411.438 87.8027 411.66 86.8379 411.66H84.8281ZM84.8281 410.74H86.8496C87.4512 410.74 87.9121 410.6 88.2324 410.318C88.5527 410.033 88.7129 409.623 88.7129 409.088C88.7129 408.58 88.5527 408.174 88.2324 407.869C87.9121 407.564 87.4727 407.406 86.9141 407.395H84.8281V410.74ZM94.168 409.633C94.0039 409.605 93.8262 409.592 93.6348 409.592C92.9238 409.592 92.4414 409.895 92.1875 410.5V415H91.1035V408.66H92.1582L92.1758 409.393C92.5312 408.826 93.0352 408.543 93.6875 408.543C93.8984 408.543 94.0586 408.57 94.168 408.625V409.633ZM97.6836 415.117C96.8242 415.117 96.125 414.836 95.5859 414.273C95.0469 413.707 94.7773 412.951 94.7773 412.006V411.807C94.7773 411.178 94.8965 410.617 95.1348 410.125C95.377 409.629 95.7129 409.242 96.1426 408.965C96.5762 408.684 97.0449 408.543 97.5488 408.543C98.373 408.543 99.0137 408.814 99.4707 409.357C99.9277 409.9 100.156 410.678 100.156 411.689V412.141H95.8613C95.877 412.766 96.0586 413.271 96.4062 413.658C96.7578 414.041 97.2031 414.232 97.7422 414.232C98.125 414.232 98.4492 414.154 98.7148 413.998C98.9805 413.842 99.2129 413.635 99.4121 413.377L100.074 413.893C99.543 414.709 98.7461 415.117 97.6836 415.117ZM97.5488 409.434C97.1113 409.434 96.7441 409.594 96.4473 409.914C96.1504 410.23 95.9668 410.676 95.8965 411.25H99.0723V411.168C99.041 410.617 98.8926 410.191 98.627 409.891C98.3613 409.586 98.002 409.434 97.5488 409.434ZM102.594 415H101.51V408.66H102.594V415ZM101.422 406.979C101.422 406.803 101.475 406.654 101.58 406.533C101.689 406.412 101.85 406.352 102.061 406.352C102.271 406.352 102.432 406.412 102.541 406.533C102.65 406.654 102.705 406.803 102.705 406.979C102.705 407.154 102.65 407.301 102.541 407.418C102.432 407.535 102.271 407.594 102.061 407.594C101.85 407.594 101.689 407.535 101.58 407.418C101.475 407.301 101.422 407.154 101.422 406.979ZM108.025 413.318C108.025 413.025 107.914 412.799 107.691 412.639C107.473 412.475 107.088 412.334 106.537 412.217C105.99 412.1 105.555 411.959 105.23 411.795C104.91 411.631 104.672 411.436 104.516 411.209C104.363 410.982 104.287 410.713 104.287 410.4C104.287 409.881 104.506 409.441 104.943 409.082C105.385 408.723 105.947 408.543 106.631 408.543C107.35 408.543 107.932 408.729 108.377 409.1C108.826 409.471 109.051 409.945 109.051 410.523H107.961C107.961 410.227 107.834 409.971 107.58 409.756C107.33 409.541 107.014 409.434 106.631 409.434C106.236 409.434 105.928 409.52 105.705 409.691C105.482 409.863 105.371 410.088 105.371 410.365C105.371 410.627 105.475 410.824 105.682 410.957C105.889 411.09 106.262 411.217 106.801 411.338C107.344 411.459 107.783 411.604 108.119 411.771C108.455 411.939 108.703 412.143 108.863 412.381C109.027 412.615 109.109 412.902 109.109 413.242C109.109 413.809 108.883 414.264 108.43 414.607C107.977 414.947 107.389 415.117 106.666 415.117C106.158 415.117 105.709 415.027 105.318 414.848C104.928 414.668 104.621 414.418 104.398 414.098C104.18 413.773 104.07 413.424 104.07 413.049H105.154C105.174 413.412 105.318 413.701 105.588 413.916C105.861 414.127 106.221 414.232 106.666 414.232C107.076 414.232 107.404 414.15 107.65 413.986C107.9 413.818 108.025 413.596 108.025 413.318Z" fill="black"/>
<circle cx="102.5" cy="318.5" r="39.5" fill="#FF0000" fill-opacity="0.2" stroke="#FF0000" stroke-width="4"/>
<path d="M76.6406 319.033L75.5977 320.117V323H74.4727V314.469H75.5977V318.688L79.3887 314.469H80.748L77.3906 318.236L81.0117 323H79.6641L76.6406 319.033ZM85.5996 322.373C85.1777 322.869 84.5586 323.117 83.7422 323.117C83.0664 323.117 82.5508 322.922 82.1953 322.531C81.8438 322.137 81.666 321.555 81.6621 320.785V316.66H82.7461V320.756C82.7461 321.717 83.1367 322.197 83.918 322.197C84.7461 322.197 85.2969 321.889 85.5703 321.271V316.66H86.6543V323H85.623L85.5996 322.373ZM82.3008 314.967C82.3008 314.791 82.3535 314.645 82.459 314.527C82.5684 314.406 82.7285 314.346 82.9395 314.346C83.1504 314.346 83.3105 314.406 83.4199 314.527C83.5293 314.645 83.584 314.791 83.584 314.967C83.584 315.143 83.5293 315.289 83.4199 315.406C83.3105 315.523 83.1504 315.582 82.9395 315.582C82.7285 315.582 82.5684 315.523 82.459 315.406C82.3535 315.289 82.3008 315.143 82.3008 314.967ZM84.8203 314.979C84.8203 314.803 84.873 314.654 84.9785 314.533C85.0879 314.412 85.248 314.352 85.459 314.352C85.6699 314.352 85.8301 314.412 85.9395 314.533C86.0488 314.654 86.1035 314.803 86.1035 314.979C86.1035 315.154 86.0488 315.301 85.9395 315.418C85.8301 315.535 85.6699 315.594 85.459 315.594C85.248 315.594 85.0879 315.535 84.9785 315.418C84.873 315.301 84.8203 315.154 84.8203 314.979ZM89.332 316.66L89.3672 317.457C89.8516 316.848 90.4844 316.543 91.2656 316.543C92.6055 316.543 93.2812 317.299 93.293 318.811V323H92.209V318.805C92.2051 318.348 92.0996 318.01 91.8926 317.791C91.6895 317.572 91.3711 317.463 90.9375 317.463C90.5859 317.463 90.2773 317.557 90.0117 317.744C89.7461 317.932 89.5391 318.178 89.3906 318.482V323H88.3066V316.66H89.332ZM94.6641 319.777C94.6641 318.805 94.8945 318.023 95.3555 317.434C95.8164 316.84 96.4199 316.543 97.166 316.543C97.9082 316.543 98.4961 316.797 98.9297 317.305V314H100.014V323H99.0176L98.9648 322.32C98.5312 322.852 97.9277 323.117 97.1543 323.117C96.4199 323.117 95.8203 322.816 95.3555 322.215C94.8945 321.613 94.6641 320.828 94.6641 319.859V319.777ZM95.748 319.9C95.748 320.619 95.8965 321.182 96.1934 321.588C96.4902 321.994 96.9004 322.197 97.4238 322.197C98.1113 322.197 98.6133 321.889 98.9297 321.271V318.359C98.6055 317.762 98.1074 317.463 97.4355 317.463C96.9043 317.463 96.4902 317.668 96.1934 318.078C95.8965 318.488 95.748 319.096 95.748 319.9ZM102.879 323H101.795V316.66H102.879V323ZM101.707 314.979C101.707 314.803 101.76 314.654 101.865 314.533C101.975 314.412 102.135 314.352 102.346 314.352C102.557 314.352 102.717 314.412 102.826 314.533C102.936 314.654 102.99 314.803 102.99 314.979C102.99 315.154 102.936 315.301 102.826 315.418C102.717 315.535 102.557 315.594 102.346 315.594C102.135 315.594 101.975 315.535 101.865 315.418C101.76 315.301 101.707 315.154 101.707 314.979ZM104.361 319.777C104.361 318.789 104.59 318.004 105.047 317.422C105.504 316.836 106.109 316.543 106.863 316.543C107.637 316.543 108.24 316.816 108.674 317.363L108.727 316.66H109.717V322.848C109.717 323.668 109.473 324.314 108.984 324.787C108.5 325.26 107.848 325.496 107.027 325.496C106.57 325.496 106.123 325.398 105.686 325.203C105.248 325.008 104.914 324.74 104.684 324.4L105.246 323.75C105.711 324.324 106.279 324.611 106.951 324.611C107.479 324.611 107.889 324.463 108.182 324.166C108.479 323.869 108.627 323.451 108.627 322.912V322.367C108.193 322.867 107.602 323.117 106.852 323.117C106.109 323.117 105.508 322.818 105.047 322.221C104.59 321.623 104.361 320.809 104.361 319.777ZM105.451 319.9C105.451 320.615 105.598 321.178 105.891 321.588C106.184 321.994 106.594 322.197 107.121 322.197C107.805 322.197 108.307 321.887 108.627 321.266V318.371C108.295 317.766 107.797 317.463 107.133 317.463C106.605 317.463 106.193 317.668 105.896 318.078C105.6 318.488 105.451 319.096 105.451 319.9ZM115.271 322.373C114.85 322.869 114.23 323.117 113.414 323.117C112.738 323.117 112.223 322.922 111.867 322.531C111.516 322.137 111.338 321.555 111.334 320.785V316.66H112.418V320.756C112.418 321.717 112.809 322.197 113.59 322.197C114.418 322.197 114.969 321.889 115.242 321.271V316.66H116.326V323H115.295L115.271 322.373ZM119.004 316.66L119.039 317.457C119.523 316.848 120.156 316.543 120.938 316.543C122.277 316.543 122.953 317.299 122.965 318.811V323H121.881V318.805C121.877 318.348 121.771 318.01 121.564 317.791C121.361 317.572 121.043 317.463 120.609 317.463C120.258 317.463 119.949 317.557 119.684 317.744C119.418 317.932 119.211 318.178 119.062 318.482V323H117.979V316.66H119.004ZM124.342 319.777C124.342 318.789 124.57 318.004 125.027 317.422C125.484 316.836 126.09 316.543 126.844 316.543C127.617 316.543 128.221 316.816 128.654 317.363L128.707 316.66H129.697V322.848C129.697 323.668 129.453 324.314 128.965 324.787C128.48 325.26 127.828 325.496 127.008 325.496C126.551 325.496 126.104 325.398 125.666 325.203C125.229 325.008 124.895 324.74 124.664 324.4L125.227 323.75C125.691 324.324 126.26 324.611 126.932 324.611C127.459 324.611 127.869 324.463 128.162 324.166C128.459 323.869 128.607 323.451 128.607 322.912V322.367C128.174 322.867 127.582 323.117 126.832 323.117C126.09 323.117 125.488 322.818 125.027 322.221C124.57 321.623 124.342 320.809 124.342 319.777ZM125.432 319.9C125.432 320.615 125.578 321.178 125.871 321.588C126.164 321.994 126.574 322.197 127.102 322.197C127.785 322.197 128.287 321.887 128.607 321.266V318.371C128.275 317.766 127.777 317.463 127.113 317.463C126.586 317.463 126.174 317.668 125.877 318.078C125.58 318.488 125.432 319.096 125.432 319.9Z" fill="black"/>
<circle cx="216.5" cy="329.5" r="44.5" fill="#FF0000" fill-opacity="0.2" stroke="#FF0000" stroke-width="4"/>
<path d="M190.008 331.311L190.172 332.436L190.412 331.422L192.1 325.469H193.049L194.695 331.422L194.93 332.453L195.111 331.305L196.436 325.469H197.566L195.498 334H194.473L192.715 327.783L192.58 327.133L192.445 327.783L190.623 334H189.598L187.535 325.469H188.66L190.008 331.311ZM202.365 334C202.303 333.875 202.252 333.652 202.213 333.332C201.709 333.855 201.107 334.117 200.408 334.117C199.783 334.117 199.27 333.941 198.867 333.59C198.469 333.234 198.27 332.785 198.27 332.242C198.27 331.582 198.52 331.07 199.02 330.707C199.523 330.34 200.23 330.156 201.141 330.156H202.195V329.658C202.195 329.279 202.082 328.979 201.855 328.756C201.629 328.529 201.295 328.416 200.854 328.416C200.467 328.416 200.143 328.514 199.881 328.709C199.619 328.904 199.488 329.141 199.488 329.418H198.398C198.398 329.102 198.51 328.797 198.732 328.504C198.959 328.207 199.264 327.973 199.646 327.801C200.033 327.629 200.457 327.543 200.918 327.543C201.648 327.543 202.221 327.727 202.635 328.094C203.049 328.457 203.264 328.959 203.279 329.6V332.518C203.279 333.1 203.354 333.562 203.502 333.906V334H202.365ZM200.566 333.174C200.906 333.174 201.229 333.086 201.533 332.91C201.838 332.734 202.059 332.506 202.195 332.225V330.924H201.346C200.018 330.924 199.354 331.312 199.354 332.09C199.354 332.43 199.467 332.695 199.693 332.887C199.92 333.078 200.211 333.174 200.566 333.174ZM208.043 328.633C207.879 328.605 207.701 328.592 207.51 328.592C206.799 328.592 206.316 328.895 206.062 329.5V334H204.979V327.66H206.033L206.051 328.393C206.406 327.826 206.91 327.543 207.562 327.543C207.773 327.543 207.934 327.57 208.043 327.625V328.633ZM211.559 334.117C210.699 334.117 210 333.836 209.461 333.273C208.922 332.707 208.652 331.951 208.652 331.006V330.807C208.652 330.178 208.771 329.617 209.01 329.125C209.252 328.629 209.588 328.242 210.018 327.965C210.451 327.684 210.92 327.543 211.424 327.543C212.248 327.543 212.889 327.814 213.346 328.357C213.803 328.9 214.031 329.678 214.031 330.689V331.141H209.736C209.752 331.766 209.934 332.271 210.281 332.658C210.633 333.041 211.078 333.232 211.617 333.232C212 333.232 212.324 333.154 212.59 332.998C212.855 332.842 213.088 332.635 213.287 332.377L213.949 332.893C213.418 333.709 212.621 334.117 211.559 334.117ZM211.424 328.434C210.986 328.434 210.619 328.594 210.322 328.914C210.025 329.23 209.842 329.676 209.771 330.25H212.947V330.168C212.916 329.617 212.768 329.191 212.502 328.891C212.236 328.586 211.877 328.434 211.424 328.434ZM216.316 327.66L216.352 328.457C216.836 327.848 217.469 327.543 218.25 327.543C219.59 327.543 220.266 328.299 220.277 329.811V334H219.193V329.805C219.189 329.348 219.084 329.01 218.877 328.791C218.674 328.572 218.355 328.463 217.922 328.463C217.57 328.463 217.262 328.557 216.996 328.744C216.73 328.932 216.523 329.178 216.375 329.482V334H215.291V327.66H216.316ZM223.682 331.064L223.002 331.773V334H221.918V325H223.002V330.443L223.582 329.746L225.557 327.66H226.875L224.408 330.309L227.162 334H225.891L223.682 331.064ZM227.707 330.771C227.707 330.15 227.828 329.592 228.07 329.096C228.316 328.6 228.656 328.217 229.09 327.947C229.527 327.678 230.025 327.543 230.584 327.543C231.447 327.543 232.145 327.842 232.676 328.439C233.211 329.037 233.479 329.832 233.479 330.824V330.9C233.479 331.518 233.359 332.072 233.121 332.564C232.887 333.053 232.549 333.434 232.107 333.707C231.67 333.98 231.166 334.117 230.596 334.117C229.736 334.117 229.039 333.818 228.504 333.221C227.973 332.623 227.707 331.832 227.707 330.848V330.771ZM228.797 330.9C228.797 331.604 228.959 332.168 229.283 332.594C229.611 333.02 230.049 333.232 230.596 333.232C231.146 333.232 231.584 333.018 231.908 332.588C232.232 332.154 232.395 331.549 232.395 330.771C232.395 330.076 232.229 329.514 231.896 329.084C231.568 328.65 231.131 328.434 230.584 328.434C230.049 328.434 229.617 328.646 229.289 329.072C228.961 329.498 228.797 330.107 228.797 330.9ZM237.902 328.633C237.738 328.605 237.561 328.592 237.369 328.592C236.658 328.592 236.176 328.895 235.922 329.5V334H234.838V327.66H235.893L235.91 328.393C236.266 327.826 236.77 327.543 237.422 327.543C237.633 327.543 237.793 327.57 237.902 327.625V328.633ZM244.271 330.9C244.271 331.869 244.049 332.648 243.604 333.238C243.158 333.824 242.561 334.117 241.811 334.117C241.01 334.117 240.391 333.834 239.953 333.268L239.9 334H238.904V325H239.988V328.357C240.426 327.814 241.029 327.543 241.799 327.543C242.568 327.543 243.172 327.834 243.609 328.416C244.051 328.998 244.271 329.795 244.271 330.807V330.9ZM243.188 330.777C243.188 330.039 243.045 329.469 242.76 329.066C242.475 328.664 242.064 328.463 241.529 328.463C240.814 328.463 240.301 328.795 239.988 329.459V332.201C240.32 332.865 240.838 333.197 241.541 333.197C242.061 333.197 242.465 332.996 242.754 332.594C243.043 332.191 243.188 331.586 243.188 330.777Z" fill="black"/>
<circle cx="501.5" cy="397.5" r="37.5" fill="#86EC16" fill-opacity="0.2" stroke="#86EC16" stroke-width="4"/>
<path d="M484.172 399.773H480.598L479.795 402H478.635L481.893 393.469H482.877L486.141 402H484.986L484.172 399.773ZM480.938 398.848H483.838L482.385 394.857L480.938 398.848ZM488.145 395.66L488.18 396.457C488.664 395.848 489.297 395.543 490.078 395.543C491.418 395.543 492.094 396.299 492.105 397.811V402H491.021V397.805C491.018 397.348 490.912 397.01 490.705 396.791C490.502 396.572 490.184 396.463 489.75 396.463C489.398 396.463 489.09 396.557 488.824 396.744C488.559 396.932 488.352 397.178 488.203 397.482V402H487.119V395.66H488.145ZM493.482 398.777C493.482 397.789 493.711 397.004 494.168 396.422C494.625 395.836 495.23 395.543 495.984 395.543C496.758 395.543 497.361 395.816 497.795 396.363L497.848 395.66H498.838V401.848C498.838 402.668 498.594 403.314 498.105 403.787C497.621 404.26 496.969 404.496 496.148 404.496C495.691 404.496 495.244 404.398 494.807 404.203C494.369 404.008 494.035 403.74 493.805 403.4L494.367 402.75C494.832 403.324 495.4 403.611 496.072 403.611C496.6 403.611 497.01 403.463 497.303 403.166C497.6 402.869 497.748 402.451 497.748 401.912V401.367C497.314 401.867 496.723 402.117 495.973 402.117C495.23 402.117 494.629 401.818 494.168 401.221C493.711 400.623 493.482 399.809 493.482 398.777ZM494.572 398.9C494.572 399.615 494.719 400.178 495.012 400.588C495.305 400.994 495.715 401.197 496.242 401.197C496.926 401.197 497.428 400.887 497.748 400.266V397.371C497.416 396.766 496.918 396.463 496.254 396.463C495.727 396.463 495.314 396.668 495.018 397.078C494.721 397.488 494.572 398.096 494.572 398.9ZM503.109 402.117C502.25 402.117 501.551 401.836 501.012 401.273C500.473 400.707 500.203 399.951 500.203 399.006V398.807C500.203 398.178 500.322 397.617 500.561 397.125C500.803 396.629 501.139 396.242 501.568 395.965C502.002 395.684 502.471 395.543 502.975 395.543C503.799 395.543 504.439 395.814 504.896 396.357C505.354 396.9 505.582 397.678 505.582 398.689V399.141H501.287C501.303 399.766 501.484 400.271 501.832 400.658C502.184 401.041 502.629 401.232 503.168 401.232C503.551 401.232 503.875 401.154 504.141 400.998C504.406 400.842 504.639 400.635 504.838 400.377L505.5 400.893C504.969 401.709 504.172 402.117 503.109 402.117ZM502.975 396.434C502.537 396.434 502.17 396.594 501.873 396.914C501.576 397.23 501.393 397.676 501.322 398.25H504.498V398.168C504.467 397.617 504.318 397.191 504.053 396.891C503.787 396.586 503.428 396.434 502.975 396.434ZM512.209 398.9C512.209 399.869 511.986 400.648 511.541 401.238C511.096 401.824 510.498 402.117 509.748 402.117C508.947 402.117 508.328 401.834 507.891 401.268L507.838 402H506.842V393H507.926V396.357C508.363 395.814 508.967 395.543 509.736 395.543C510.506 395.543 511.109 395.834 511.547 396.416C511.988 396.998 512.209 397.795 512.209 398.807V398.9ZM511.125 398.777C511.125 398.039 510.982 397.469 510.697 397.066C510.412 396.664 510.002 396.463 509.467 396.463C508.752 396.463 508.238 396.795 507.926 397.459V400.201C508.258 400.865 508.775 401.197 509.479 401.197C509.998 401.197 510.402 400.996 510.691 400.594C510.98 400.191 511.125 399.586 511.125 398.777ZM513.293 398.771C513.293 398.15 513.414 397.592 513.656 397.096C513.902 396.6 514.242 396.217 514.676 395.947C515.113 395.678 515.611 395.543 516.17 395.543C517.033 395.543 517.73 395.842 518.262 396.439C518.797 397.037 519.064 397.832 519.064 398.824V398.9C519.064 399.518 518.945 400.072 518.707 400.564C518.473 401.053 518.135 401.434 517.693 401.707C517.256 401.98 516.752 402.117 516.182 402.117C515.322 402.117 514.625 401.818 514.09 401.221C513.559 400.623 513.293 399.832 513.293 398.848V398.771ZM514.383 398.9C514.383 399.604 514.545 400.168 514.869 400.594C515.197 401.02 515.635 401.232 516.182 401.232C516.732 401.232 517.17 401.018 517.494 400.588C517.818 400.154 517.98 399.549 517.98 398.771C517.98 398.076 517.814 397.514 517.482 397.084C517.154 396.65 516.717 396.434 516.17 396.434C515.635 396.434 515.203 396.646 514.875 397.072C514.547 397.498 514.383 398.107 514.383 398.9ZM521.895 394.125V395.66H523.078V396.498H521.895V400.43C521.895 400.684 521.947 400.875 522.053 401.004C522.158 401.129 522.338 401.191 522.592 401.191C522.717 401.191 522.889 401.168 523.107 401.121V402C522.822 402.078 522.545 402.117 522.275 402.117C521.791 402.117 521.426 401.971 521.18 401.678C520.934 401.385 520.811 400.969 520.811 400.43V396.498H519.656V395.66H520.811V394.125H521.895Z" fill="black"/>
<defs>
<filter id="filter0_d" x="0" y="58" width="586" height="440" filterUnits="userSpaceOnUse" color-interpolation-filters="sRGB">
<feFlood flood-opacity="0" result="BackgroundImageFix"/>
<feColorMatrix in="SourceAlpha" type="matrix" values="0 0 0 0 0 0 0 0 0 0 0 0 0 0 0 0 0 0 127 0" result="hardAlpha"/>
<feOffset dy="4"/>
<feGaussianBlur stdDeviation="9"/>
<feColorMatrix type="matrix" values="0 0 0 0 0 0 0 0 0 0 0 0 0 0 0 0 0 0 0.25 0"/>
<feBlend mode="normal" in2="BackgroundImageFix" result="effect1_dropShadow"/>
<feBlend mode="normal" in="SourceGraphic" in2="effect1_dropShadow" result="shape"/>
</filter>
</defs>
</svg>
