<svg width="472" height="386" viewBox="0 0 472 386" fill="none" xmlns="http://www.w3.org/2000/svg">
<path d="M195.396 127.814L191.333 96.1677L234.221 105.436L279.367 60L262.437 131.205L313 156.07L269.209 172.572L281.624 205.801L229.932 194.951L204.425 211L197.201 175.51L127 141.377L195.396 127.814Z" fill="#86EC16"/>
<path d="M141.286 166.704L141.286 166.704C141.84 182.513 149.501 200.421 162.232 215.866C174.96 231.32 190.919 242.107 206.077 245.36C206.816 245.521 207.55 245.633 208.29 245.696C212.992 246.099 217.649 244.597 221.327 241.43L229.171 234.676C232.437 231.863 232.865 226.876 230.124 223.548L215.653 205.978C212.902 202.637 207.997 202.217 204.717 205.041L196.001 212.546L171.216 182.453L179.962 174.922C179.963 174.922 179.964 174.921 179.964 174.921C181.558 173.56 182.521 171.644 182.7 169.555C182.88 167.461 182.242 165.41 180.918 163.803L166.449 146.234C166.448 146.234 166.448 146.234 166.448 146.233C163.707 142.892 158.79 142.473 155.511 145.296L147.667 152.05C143.41 155.716 141.09 161.052 141.286 166.704Z" fill="white" stroke="black" stroke-width="2"/>
<path fill-rule="evenodd" clip-rule="evenodd" d="M235 124C229.477 124 225 128.477 225 134V178C225 183.523 229.477 188 235 188H244V206L266.737 188H303C308.523 188 313 183.523 313 178V134C313 128.477 308.523 124 303 124H235Z" fill="black"/>
<path d="M249 154.001H241C239.896 154.001 239 154.897 239 156.001C239 157.105 239.896 158.001 241 158.001H249C250.104 158.001 251 157.105 251 156.001C251 154.897 250.104 154.001 249 154.001Z" fill="white"/>
<path d="M296.999 154.001H288.999C287.895 154.001 286.999 154.897 286.999 156.001C286.999 157.105 287.895 158.001 288.999 158.001H296.999C298.103 158.001 298.999 157.105 298.999 156.001C298.999 154.897 298.103 154.001 296.999 154.001Z" fill="white"/>
<path d="M279 150.001H273.774L276.897 140.633C277.197 139.732 276.823 138.744 276.001 138.269C275.18 137.792 274.135 137.962 273.505 138.672L257.505 156.672C256.982 157.26 256.853 158.101 257.175 158.82C257.498 159.539 258.212 160.001 259 160.001H264.349L261.078 171.451C260.816 172.367 261.237 173.341 262.083 173.778C262.374 173.929 262.688 174.001 262.999 174.001C263.591 174.001 264.171 173.738 264.561 173.25L280.561 153.25C281.041 152.649 281.135 151.827 280.802 151.134C280.469 150.441 279.769 150.001 279 150.001Z" fill="white"/>
<path d="M2 287H107.373C159.299 287 211.067 281.271 261.737 269.918L298.211 261.745C302.94 260.686 307.848 262.533 310.705 266.448V266.448C315.781 273.403 315.086 283.008 309.062 289.16L295.16 303.358C284.05 314.705 265.075 311.756 257.932 297.573L247.38 276.619C240.82 263.593 232.627 251.455 223 240.5V240.5" stroke="black" stroke-width="2"/>
</svg>
