<svg width="393" height="415" viewBox="0 0 393 415" fill="none" xmlns="http://www.w3.org/2000/svg">
<path d="M341.678 409.376H92.0859V107.21H178.658C268.72 107.21 341.853 180.176 341.853 270.425V409.376H341.678Z" fill="#9EE84C"/>
<path d="M269.594 220.151H256.678V227.832H269.594V220.151Z" fill="white"/>
<path d="M239.572 213.867L214.788 185.413H170.105L207.806 228.53H243.238" stroke="black" stroke-width="2" stroke-miterlimit="10" stroke-linecap="round" stroke-linejoin="round"/>
<path d="M306.246 232.196H246.903C244.11 232.196 242.016 229.926 242.016 227.308V224.166C242.016 221.373 244.285 219.278 246.903 219.278H306.246C309.039 219.278 311.133 221.547 311.133 224.166V227.308C311.308 229.926 309.039 232.196 306.246 232.196Z" stroke="black" stroke-width="2" stroke-miterlimit="10" stroke-linecap="round" stroke-linejoin="round"/>
<path d="M323.875 212.296H241.667C240.794 212.296 240.096 212.994 240.096 213.867V217.183C240.096 218.056 240.794 218.754 241.667 218.754H323.875C324.748 218.754 325.446 218.056 325.446 217.183V213.867C325.446 212.994 324.748 212.296 323.875 212.296Z" stroke="black" stroke-width="2" stroke-miterlimit="10" stroke-linecap="round" stroke-linejoin="round"/>
<path d="M312.181 197.458H251.092C250.22 197.458 249.521 198.156 249.521 199.029V206.71C249.521 207.582 250.22 208.281 251.092 208.281H312.181C313.054 208.281 313.752 207.582 313.752 206.71V199.029C313.752 198.156 313.054 197.458 312.181 197.458Z" stroke="black" stroke-width="2" stroke-miterlimit="10" stroke-linecap="round" stroke-linejoin="round"/>
<path d="M297.345 228.53H188.781V412.168H297.345V228.53Z" fill="white" stroke="black" stroke-width="2" stroke-miterlimit="10" stroke-linecap="round" stroke-linejoin="round"/>
<path d="M347.612 228.53H296.123V412.168H347.612V228.53Z" fill="white" stroke="black" stroke-width="2" stroke-miterlimit="10" stroke-linecap="round" stroke-linejoin="round"/>
<path d="M391.073 185.413H339.583L296.123 228.53H347.612L391.073 185.413Z" fill="white" stroke="black" stroke-width="2" stroke-miterlimit="10" stroke-linecap="round" stroke-linejoin="round"/>
<path d="M305.548 200.076H286V204.964H305.548V200.076Z" fill="white"/>
<path d="M323.526 260.998H307.294V280.025H323.526V260.998Z" fill="white" stroke="black" stroke-width="2" stroke-miterlimit="10" stroke-linecap="round" stroke-linejoin="round"/>
<path d="M312.337 274.544L302.814 280.043L310.145 292.741L319.668 287.243L312.337 274.544Z" fill="white" stroke="black" stroke-width="2" stroke-miterlimit="10" stroke-linecap="round" stroke-linejoin="round"/>
<path d="M257.55 252.095H280.24" stroke="black" stroke-width="2" stroke-miterlimit="10" stroke-linecap="round" stroke-linejoin="round"/>
<path d="M257.55 259.602H280.24" stroke="black" stroke-width="2" stroke-miterlimit="10" stroke-linecap="round" stroke-linejoin="round"/>
<path d="M308.69 149.977L315.497 152.247" stroke="black" stroke-width="2" stroke-miterlimit="10" stroke-linecap="round" stroke-linejoin="round"/>
<path d="M248.474 147.01L249.521 153.992" stroke="black" stroke-width="2" stroke-miterlimit="10" stroke-linecap="round" stroke-linejoin="round"/>
<path d="M269.419 158.705L273.608 162.022" stroke="black" stroke-width="2" stroke-miterlimit="10" stroke-linecap="round" stroke-linejoin="round"/>
<path d="M294.203 115.24L297.345 118.556" stroke="black" stroke-width="2" stroke-miterlimit="10" stroke-linecap="round" stroke-linejoin="round"/>
<path d="M73.9339 390.523L68.3486 384.239" stroke="black" stroke-width="2" stroke-miterlimit="10" stroke-linecap="round" stroke-linejoin="round"/>
<path d="M69.047 357.531L67.8252 363.117" stroke="black" stroke-width="2" stroke-miterlimit="10" stroke-linecap="round" stroke-linejoin="round"/>
<path d="M7.4341 333.616L1.3252 334.663" stroke="black" stroke-width="2" stroke-miterlimit="10" stroke-linecap="round" stroke-linejoin="round"/>
<path d="M250.219 181.573L242.539 184.715" stroke="black" stroke-width="2" stroke-miterlimit="10" stroke-linecap="round" stroke-linejoin="round"/>
<path d="M269.593 131.299H264.881V141.249H269.593V131.299Z" fill="black"/>
<path d="M297.345 131.299H259.644C258.771 131.299 258.073 131.997 258.073 132.87V140.202C258.073 141.075 258.771 141.773 259.644 141.773H297.345C298.217 141.773 298.916 141.075 298.916 140.202V132.87C299.09 131.997 298.392 131.299 297.345 131.299Z" stroke="black" stroke-width="2" stroke-miterlimit="10" stroke-linecap="round" stroke-linejoin="round"/>
<path d="M308.166 47.1605V67.4097H245.332V47.1605C245.332 29.879 259.47 15.7395 276.749 15.7395C279.193 15.7395 281.636 16.0886 284.08 16.6123C297.869 19.929 308.166 32.3228 308.166 47.1605Z" stroke="black" stroke-width="2" stroke-miterlimit="10" stroke-linecap="round" stroke-linejoin="round"/>
<path d="M245.332 67.4097L277.796 132.172L308.166 67.4097" stroke="black" stroke-width="2" stroke-miterlimit="10" stroke-linecap="round" stroke-linejoin="round"/>
<path d="M288.094 67.9334L277.797 132.172L261.914 67.9334C260.517 38.0834 261.39 15.7395 276.575 15.7395C288.967 15.7395 287.222 47.3351 288.094 67.9334Z" stroke="black" stroke-width="2" stroke-miterlimit="10" stroke-linecap="round" stroke-linejoin="round"/>
<path d="M288.094 67.0605C287.221 46.6369 288.967 15.7395 276.749 15.7395C261.738 15.7395 260.691 37.7342 262.087 67.0605H288.094Z" fill="black" stroke="black" stroke-width="2" stroke-miterlimit="10" stroke-linecap="round" stroke-linejoin="round"/>
<path d="M277.797 141.424V132.172L284.778 141.947" stroke="black" stroke-width="2" stroke-miterlimit="10" stroke-linecap="round" stroke-linejoin="round"/>
<path d="M308.167 47.1605V67.2351L302.058 67.0606C302.058 67.0606 301.709 61.4746 302.407 46.8114C303.105 32.1483 292.109 20.8018 280.938 16.7869L283.906 16.6123C297.869 19.929 308.167 32.3228 308.167 47.1605Z" fill="black" stroke="black" stroke-width="2" stroke-miterlimit="10" stroke-linecap="round" stroke-linejoin="round"/>
<path d="M328.238 28.1333L345.169 61.8237L361.052 28.1333" stroke="black" stroke-width="2" stroke-miterlimit="10" stroke-linecap="round" stroke-linejoin="round"/>
<path d="M361.924 17.8343V29.0062H327.365V17.8343C327.365 8.23344 335.045 0.552734 344.645 0.552734C346.041 0.552734 347.437 0.727294 348.659 1.07642C356.339 2.82203 361.924 9.62993 361.924 17.8343Z" fill="#9EE84C"/>
<path d="M350.579 29.0062C350.055 18.0089 350.928 1.42554 344.645 1.42554C336.79 1.42554 336.267 13.2957 336.965 29.0062H350.579Z" fill="white" stroke="black" stroke-width="2" stroke-miterlimit="10" stroke-linecap="round" stroke-linejoin="round"/>
<path d="M354.593 61.4746H336.616C335.743 61.4746 335.045 62.1729 335.045 63.0457V72.9957C335.045 73.8685 335.743 74.5667 336.616 74.5667H354.593C355.466 74.5667 356.164 73.8685 356.164 72.9957V63.0457C356.339 62.1729 355.466 61.4746 354.593 61.4746Z" stroke="black" stroke-width="2" stroke-miterlimit="10" stroke-linecap="round" stroke-linejoin="round"/>
<path d="M345.168 62.522V73.6939" stroke="black" stroke-width="2" stroke-miterlimit="10" stroke-linecap="round" stroke-linejoin="round"/>
<path d="M350.579 28.4825L345.168 61.8237L336.965 28.4825C336.267 12.9465 336.616 1.42544 344.645 1.42544C351.103 1.25088 350.055 17.8342 350.579 28.4825Z" stroke="black" stroke-width="2" stroke-miterlimit="10" stroke-linecap="round" stroke-linejoin="round"/>
<path d="M204 28.5C198.8 43.3 187.167 44.3333 182 43L154.5 39C151.166 37.6667 144.4 34.1 144 30.5C143.5 26 149.5 21 157 24.5C163 27.3 174.167 21.3333 179 19C179 23.8 178.333 27 175 27.5C187.4 27.5 191.167 21.5 194.5 19C192.9 24.6 190.833 29.3333 189.5 29.5C199.9 31.1 203.167 29.1667 204 28.5Z" fill="#FFFEFE" stroke="black" stroke-width="2"/>
<path d="M213.042 383.889L208.854 414.612H261.215C261.215 414.612 264.706 401.52 251.441 398.553L252.139 383.889H213.042Z" fill="black"/>
<path d="M249.171 393.141L241.143 401.171" stroke="white" stroke-width="2" stroke-miterlimit="10" stroke-linecap="round" stroke-linejoin="round"/>
<path d="M249.171 401.171L241.143 393.141" stroke="white" stroke-width="2" stroke-miterlimit="10" stroke-linecap="round" stroke-linejoin="round"/>
<path d="M92.2605 383.889L84.4062 414.612H138.688C138.688 414.612 144.273 402.218 129.612 399.425L132.754 383.889H92.2605Z" fill="black"/>
<path d="M133.277 386.508C149.509 321.92 159.284 255.761 162.425 189.253C171.676 199.029 178.134 211.772 184.068 223.467C193.668 242.32 200.824 262.395 205.886 282.993C214.264 316.858 216.184 352.119 211.82 386.682H252.837C257.201 347.406 254.582 307.606 244.634 269.203C238.525 245.288 229.449 222.071 217.929 200.251C206.409 178.256 192.097 155.563 169.232 143.693C162.6 140.202 154.571 140.376 148.462 143.867C136.943 141.075 122.63 147.533 122.281 163.069C120.71 238.829 110.063 313.716 90.6895 386.857H133.277V386.508Z" fill="white" stroke="black" stroke-width="2" stroke-miterlimit="10" stroke-linecap="round" stroke-linejoin="round"/>
<path d="M128.39 393.141L120.361 401.171" stroke="white" stroke-width="2" stroke-miterlimit="10" stroke-linecap="round" stroke-linejoin="round"/>
<path d="M128.39 401.171L120.361 393.141" stroke="white" stroke-width="2" stroke-miterlimit="10" stroke-linecap="round" stroke-linejoin="round"/>
<path d="M205.838 60.9659C206.219 64.813 203.633 68.2188 200.06 68.573C196.488 68.9271 195.107 54.9954 198.679 54.6413C202.252 54.2871 205.457 57.1187 205.838 60.9659Z" fill="white"/>
<path d="M200.06 68.573C203.633 68.2188 206.219 64.813 205.838 60.9659C205.457 57.1187 202.252 54.2871 198.679 54.6413" stroke="black" stroke-width="2"/>
<circle cx="172.5" cy="61.5" r="28.5" fill="white" stroke="black" stroke-width="2"/>
<circle cx="152.806" cy="61.4489" r="1" transform="rotate(46.8599 152.806 61.4489)" fill="black"/>
<circle cx="155.541" cy="64.3676" r="1" transform="rotate(46.8599 155.541 64.3676)" fill="black"/>
<circle cx="158.46" cy="61.6325" r="1" transform="rotate(46.8599 158.46 61.6325)" fill="black"/>
<circle cx="158.276" cy="67.2863" r="1" transform="rotate(46.8599 158.276 67.2863)" fill="black"/>
<circle cx="161.195" cy="64.5512" r="1" transform="rotate(46.8599 161.195 64.5512)" fill="black"/>
<circle r="1" transform="matrix(-0.683784 0.729684 0.729684 0.683784 194.803 61.4489)" fill="black"/>
<circle r="1" transform="matrix(-0.683784 0.729684 0.729684 0.683784 192.067 64.3676)" fill="black"/>
<circle r="1" transform="matrix(-0.683784 0.729684 0.729684 0.683784 189.148 61.6325)" fill="black"/>
<circle r="1" transform="matrix(-0.683784 0.729684 0.729684 0.683784 189.332 67.2863)" fill="black"/>
<circle r="1" transform="matrix(-0.683784 0.729684 0.729684 0.683784 186.413 64.5512)" fill="black"/>
<path d="M141.69 58.9659C141.309 62.813 143.896 66.2188 147.468 66.573C151.04 66.9271 152.421 52.9954 148.849 52.6413C145.277 52.2871 142.072 55.1187 141.69 58.9659Z" fill="white"/>
<path d="M147.468 66.573C143.896 66.2188 141.309 62.813 141.69 58.9659C142.072 55.1187 145.277 52.2871 148.849 52.6413" stroke="black" stroke-width="2"/>
<path d="M147.268 61.5358C146.037 61.4137 145.145 60.2396 145.277 58.9134C145.408 57.5871 146.513 56.6109 147.745 56.733" stroke="black" stroke-width="2"/>
<path d="M169 57C169 54.7909 167.209 53 165 53C162.791 53 161 54.7909 161 57" stroke="black" stroke-width="2"/>
<path d="M185 57C185 54.7909 183.209 53 181 53C178.791 53 177 54.7909 177 57" stroke="black" stroke-width="2"/>
<path d="M126.121 160.451C127.343 141.249 130.834 104.94 130.834 104.94L187.035 108.083L196.112 165.164L126.121 160.451Z" fill="black"/>
<path d="M152.302 85.3895C114.078 83.993 76.7265 90.4517 67.4759 126.586C58.5744 161.149 90.1661 190.475 124.027 183.144C140.608 179.478 133.627 153.992 117.045 157.658C100.289 161.324 86.1517 142.995 95.5768 127.982C106.398 110.875 131.532 111.923 149.161 111.923C166.265 111.923 169.407 86.0877 152.302 85.3895Z" fill="white" stroke="black" stroke-width="2" stroke-miterlimit="10" stroke-linecap="round" stroke-linejoin="round"/>
<path d="M152.303 85.3896C132.929 84.6914 113.555 86.0878 98.1953 92.1975C100.813 100.751 103.955 109.13 107.271 117.334C119.664 111.05 136.42 111.574 149.161 111.748C166.266 111.923 169.408 86.0878 152.303 85.3896Z" fill="black"/>
<path d="M232.416 112.621C220.547 96.9105 202.395 91.6736 183.72 89.7535C184.069 86.2622 182.847 83.2947 180.752 81.0254C178.309 81.5491 175.865 82.2473 173.422 82.771C168.186 84.1675 165.567 91.8482 160.506 93.7684C159.808 96.0377 148.288 168.481 209.028 162.895C233.463 160.975 246.903 131.648 232.416 112.621ZM197.857 135.314C190.527 133.743 185.989 126.062 184.592 117.509C195.239 118.032 201.697 120.651 207.282 124.491C216.184 130.252 209.901 137.758 197.857 135.314Z" fill="white" stroke="black" stroke-width="2" stroke-miterlimit="10" stroke-linecap="round" stroke-linejoin="round"/>
<path d="M183.894 89.7534C184.069 88.3569 183.894 87.135 183.545 85.9131C182.149 90.9754 180.229 95.8631 178.658 100.925C178.833 101.1 179.007 101.274 179.007 101.449C179.356 102.147 179.531 103.02 179.88 103.718C180.578 103.893 181.102 104.417 181.276 105.115C182.498 108.955 183.196 112.621 183.545 116.636C191.225 117.334 199.428 118.905 205.363 122.746C208.679 114.541 212.17 106.337 215.661 98.3069C206.235 93.2447 195.065 90.9754 183.894 89.7534Z" fill="black"/>
<path d="M160.681 94.6412C161.902 87.3097 163.473 79.8035 161.379 74.043C159.284 68.2825 159.808 65.664 166.615 75.0904C166.615 75.0904 162.426 66.886 164.171 66.0132C166.091 65.1404 170.978 72.8211 170.978 72.8211C170.978 72.8211 165.568 64.6167 168.36 64.4421C170.978 64.2676 173.247 70.0281 177.262 70.9009C181.276 71.7737 182.323 64.2676 184.069 66.0132C186.862 68.9807 185.465 81.3746 183.894 89.7535C183.196 94.1175 185.291 110.701 184.592 117.334" fill="white"/>
<path d="M160.681 94.6412C161.902 87.3097 163.473 79.8035 161.379 74.043C159.284 68.2825 159.808 65.664 166.615 75.0904C166.615 75.0904 162.426 66.886 164.171 66.0132C166.091 65.1404 170.978 72.8211 170.978 72.8211C170.978 72.8211 165.568 64.6167 168.36 64.4421C170.978 64.2676 173.247 70.0281 177.262 70.9009C181.276 71.7737 182.323 64.2676 184.069 66.0132C186.862 68.9807 185.465 81.3746 183.894 89.7535C183.196 94.1175 185.291 110.701 184.592 117.334" stroke="black" stroke-width="2" stroke-miterlimit="10" stroke-linecap="round" stroke-linejoin="round"/>
<path d="M116.521 157.658C124.376 156.261 121.932 152.77 127.343 148.581L126.994 154.516C126.994 154.516 136.07 147.359 138.514 149.628C140.957 151.723 132.928 159.054 132.928 159.054C132.928 159.054 140.608 151.374 142.702 154.341C144.797 157.309 136.594 165.862 136.594 165.862C136.594 165.862 143.924 156.087 145.844 160.974C147.939 165.862 139.386 180.351 123.329 183.318" fill="white"/>
<path d="M116.521 157.658C124.376 156.261 121.932 152.77 127.343 148.581L126.994 154.516C126.994 154.516 136.07 147.359 138.514 149.628C140.957 151.723 132.928 159.054 132.928 159.054C132.928 159.054 140.608 151.374 142.702 154.341C144.797 157.309 136.594 165.862 136.594 165.862C136.594 165.862 143.924 156.087 145.844 160.974C147.939 165.862 139.386 180.351 123.329 183.318" stroke="black" stroke-width="2" stroke-miterlimit="10" stroke-linecap="round" stroke-linejoin="round"/>
<path d="M182 43C187.167 44.3333 198.8 43.3 204 28.5C203.167 29.1667 199.9 31.1 189.5 29.5C190.833 29.3333 192.9 24.6 194.5 19C191.167 21.5 187.4 27.5 175 27.5C178.333 27 179 23.8 179 19C174.167 21.3333 163 27.3 157 24.5C149.5 21 143.5 26 144 30.5C144.4 34.1 151.166 37.6667 154.5 39" stroke="black" stroke-width="2"/>
</svg>
