<?xml version="1.0" encoding="utf-8"?>
<!-- Generator: Adobe Illustrator 24.0.0, SVG Export Plug-In . SVG Version: 6.00 Build 0)  -->
<svg version="1.1" xmlns="http://www.w3.org/2000/svg" xmlns:xlink="http://www.w3.org/1999/xlink" x="0px" y="0px"
	 viewBox="0 0 310.3 200" enable-background="new 0 0 310.3 200" xml:space="preserve">
<g id="Ebene_1" display="none">
</g>
<g id="Ebene_15">
	<circle fill="#FFFFFF" stroke="#000000" stroke-width="3" stroke-miterlimit="10" cx="239.3" cy="43.5" r="35"/>
	<g id="Ebene_21">
		<path fill="#8DC63F" d="M51.3,166c-13,0-23.5,10.5-23.5,23.5c0,13,10.5,23.5,23.5,23.5s23.5-10.5,23.5-23.5
			C74.8,176.5,64.2,166,51.3,166z M62.1,200c0,0.2-0.2,0.5-0.3,0.6c0,0-3.8,2.5-9.1,2.5c-7.3,0-13.3-5.9-13.3-13.2
			c-0.1-7.4,5.9-13.3,13.2-13.3c3.8,0,6.4,1.3,9,3.4c0.3,0.3,0.3,0.8,0,1c-0.3,0.3-0.8,0.7-1,1c-0.3,0.3-0.5,0.3-0.9,0
			c-1.9-1.6-4.5-2.9-7-2.9c-5.8,0-10.3,4.9-10.3,10.6c0,5.7,4.4,10.7,10.3,10.7c4.1,0,6.7-1.5,6.7-1.5v-5.2H55
			c-0.4,0-0.7-0.3-0.7-0.7v-1.4c0-0.4,0.3-0.7,0.7-0.7h6.4c0.3,0,0.7,0.3,0.7,0.7V200z"/>
	</g>
	<circle fill="#FFFFFF" stroke="#000000" stroke-width="3" stroke-miterlimit="10" cx="-16.2" cy="242" r="50.5"/>
	<g id="Ebene_22">
		<circle id="circle47_1_" fill="#FFFFFF" cx="239.4" cy="43.7" r="33.9"/>
		<path id="path49_1_" fill-opacity="0.1" d="M261,49.9c0-11.9-9.7-21.6-21.6-21.6s-21.6,9.7-21.6,21.6h6.2
			c0-8.5,6.9-15.4,15.4-15.4s15.4,6.9,15.4,15.4"/>
		<circle id="circle51_1_" fill-opacity="0.1" cx="241" cy="48" r="11.7"/>
		
			<linearGradient id="circle53_2_" gradientUnits="userSpaceOnUse" x1="-619.5257" y1="545.7761" x2="-619.5257" y2="545.468" gradientTransform="matrix(82 0 0 -82 51040.5195 44784.6992)">
			<stop  offset="0" style="stop-color:#81B4E0"/>
			<stop  offset="1" style="stop-color:#0C5A94"/>
		</linearGradient>
		<circle id="circle53_1_" fill="url(#circle53_2_)" cx="239.4" cy="43.7" r="12.6"/>
		
			<linearGradient id="path55_2_" gradientUnits="userSpaceOnUse" x1="37.9921" y1="-662.404" x2="37.9921" y2="-690.4468" gradientTransform="matrix(1 0 0 -1 202.5 -653.2241)">
			<stop  offset="0" style="stop-color:#F06B59"/>
			<stop  offset="1" style="stop-color:#DF2227"/>
		</linearGradient>
		<path id="path55_1_" fill="url(#path55_2_)" d="M270.2,28.3c-8.5-17.1-29.2-24-46.3-15.5c-5.3,2.6-9.9,6.6-13.2,11.5l13.9,24
			c-2.6-8.1,2-16.8,10.1-19.3c1.4-0.4,2.9-0.7,4.4-0.7"/>
		
			<linearGradient id="path57_2_" gradientUnits="userSpaceOnUse" x1="10.8024" y1="-721.4506" x2="24.9775" y2="-698.0308" gradientTransform="matrix(1 0 0 -1 202.5 -653.2241)">
			<stop  offset="0" style="stop-color:#388B41"/>
			<stop  offset="1" style="stop-color:#4CB749"/>
		</linearGradient>
		<path id="path57_1_" fill="url(#path57_2_)" d="M210.8,24.3c-10.6,15.8-6.4,37.3,9.4,47.9c4.9,3.3,10.6,5.3,16.4,5.7l14.5-24.7
			c-5.4,6.6-15.1,7.5-21.7,2.1c-2.2-1.8-3.9-4.3-4.8-7"/>
		
			<linearGradient id="path59_2_" gradientUnits="userSpaceOnUse" x1="58.2909" y1="-723.942" x2="43.1911" y2="-687.5792" gradientTransform="matrix(1 0 0 -1 202.5 -653.2241)">
			<stop  offset="0" style="stop-color:#E4B022"/>
			<stop  offset="0.3" style="stop-color:#FCD209"/>
		</linearGradient>
		<path id="path59_1_" fill="url(#path59_2_)" d="M236.6,77.9c19,1.4,35.6-12.8,37-31.8c0.5-6.1-0.7-12.3-3.4-17.8h-31.1
			c8.5,0,15.4,7,15.3,15.5c0,3.4-1.2,6.8-3.3,9.5"/>
		
			<linearGradient id="path61_2_" gradientUnits="userSpaceOnUse" x1="15.4947" y1="-700.6164" x2="15.4947" y2="-675.9637" gradientTransform="matrix(1 0 0 -1 202.5 -653.2241)">
			<stop  offset="0" style="stop-color:#000000;stop-opacity:0.15"/>
			<stop  offset="0.3" style="stop-color:#000000;stop-opacity:6.000000e-02"/>
			<stop  offset="1" style="stop-color:#000000;stop-opacity:3.000000e-02"/>
		</linearGradient>
		<path id="path61_1_" fill="url(#path61_2_)" d="M210.8,24.3l13.9,24c-1-3.5-0.8-7.2,0.6-10.5l-13.9-14.5"/>
		
			<linearGradient id="path63_2_" gradientUnits="userSpaceOnUse" x1="49.5253" y1="-708.5784" x2="32.5767" y2="-725.8351" gradientTransform="matrix(1 0 0 -1 202.5 -653.2241)">
			<stop  offset="0" style="stop-color:#000000;stop-opacity:0.15"/>
			<stop  offset="0.3" style="stop-color:#000000;stop-opacity:6.000000e-02"/>
			<stop  offset="1" style="stop-color:#000000;stop-opacity:3.000000e-02"/>
		</linearGradient>
		<path id="path63_1_" fill="url(#path63_2_)" d="M236.6,77.9l14.5-24.7c-2.3,2.7-5.4,4.6-8.9,5.2L236,77.9"/>
		
			<linearGradient id="path65_2_" gradientUnits="userSpaceOnUse" x1="49.2779" y1="-713.5421" x2="51.7431" y2="-689.1984" gradientTransform="matrix(1 0 0 -1 202.5 -653.2241)">
			<stop  offset="0" style="stop-color:#000000;stop-opacity:0.15"/>
			<stop  offset="0.3" style="stop-color:#000000;stop-opacity:6.000000e-02"/>
			<stop  offset="1" style="stop-color:#000000;stop-opacity:3.000000e-02"/>
		</linearGradient>
		<path id="path65_1_" fill="url(#path65_2_)" d="M270.2,28.3h-31.1c4.7,0,9.1,2.2,12,5.9l19.7-4.9"/>
	</g>
	<path fill="#86ED18" d="M180.8,54.7c-5.5,7.7-7.4,15.1-4.9,21.3c0.4,1.3,1.1,2.3,1.9,3.2l14.9-10.6c-1.5-3.4,0-7.9,3.6-12.3
		L180.8,54.7z M282.8,39.8c-5.5,8.7-19.3,18.7-37,26.2c-11.9,4.9-23.4,7.9-32.5,8.5l-1.1,12.8c11.5-1.1,24.9-4.5,38.3-10.2
		c24.5-10.2,43.2-25.3,50-38.8L282.8,39.8z"/>
	<path fill="none" stroke="#000000" stroke-width="3" stroke-miterlimit="10" d="M247.7,9.2c26.8-6.8,49.3-4,54.4,8.3
		c6.4,15.3-16.6,39.6-51.5,54.3c-34.9,14.7-68.3,14.1-74.6-1.5c-5.1-12.3,8.5-30.2,32.1-44.5"/>
	<path fill="none" stroke="#000000" stroke-width="3" stroke-miterlimit="10" d="M263.5,17.9c11.3-1.1,19.3,1.1,21.5,6.2
		c4,9.4-13.6,25.8-39.1,36.4c-25.5,10.6-49.3,11.7-53.4,2.1c-2.1-5.1,2.1-12.6,10.6-19.8"/>
	<g id="Ebene_24">
	</g>
</g>
<g id="Ebene_23">
</g>
<g id="Ebene_3">
</g>
<g id="Ebene_13">
</g>
<g id="Ebene_2">
	<path display="none" fill="none" stroke="#86ED18" stroke-width="4" d="M604.3,83H352.2c0,0-58-11.3-58-78.2S353.5-99.8,402.6-97.3
		c-3.8-25.2,30.3-102.3,124.8-99.6c131.1,3.8,133.6,139.9,133.6,139.9C712.8-45.6,746.8,78,604.3,83z"/>
</g>
<g id="Ebene_14">
</g>
<g id="Ebene_9">
</g>
<g id="Ebene_4">
</g>
<g id="Ebene_5">
</g>
<g id="Ebene_6">
	<g id="Ebene_8">
	</g>
	
		<image display="none" overflow="visible" width="900" height="580" xlink:href="9D013A28.jpg"  transform="matrix(0.3448 0 0 0.3448 0 0)">
	</image>
</g>
<g id="Ebene_16">
	<g id="Ebene_17">
	</g>
	<g id="Ebene_18">
	</g>
	<g id="Ebene_19">
	</g>
	<g id="Ebene_20">
	</g>
</g>
<g id="Ebene_7">
</g>
<g id="Ebene_10">
	<g id="Ebene_11">
	</g>
</g>
</svg>
