<?xml version="1.0" encoding="utf-8"?>
<!-- Generator: Adobe Illustrator 24.0.0, SVG Export Plug-In . SVG Version: 6.00 Build 0)  -->
<svg version="1.1" xmlns="http://www.w3.org/2000/svg" xmlns:xlink="http://www.w3.org/1999/xlink" x="0px" y="0px"
	 viewBox="0 0 1280 624" enable-background="new 0 0 1280 624" xml:space="preserve">
<g id="Ebene_1" display="none">
</g>
<g id="Ebene_15">
	<ellipse fill="none" stroke="#03363D" stroke-width="3" stroke-miterlimit="10" cx="107.5" cy="132" rx="50" ry="46.5"/>
	<circle fill="#203232" cx="717.5" cy="224.5" r="46"/>
	<circle fill="#FFFFFF" stroke="#000000" stroke-width="2" stroke-miterlimit="10" cx="1064.5" cy="542.5" r="20"/>
	<circle fill="#FFFFFF" stroke="#000000" stroke-width="3" stroke-miterlimit="10" cx="342.5" cy="525.5" r="42"/>
	<circle fill="#FFFFFF" stroke="#000000" stroke-width="3" stroke-miterlimit="10" cx="1095" cy="109.3" r="40.8"/>
	<circle fill="#FFFFFF" stroke="#000000" stroke-width="3" stroke-miterlimit="10" cx="376.5" cy="296.5" r="35"/>
	<circle display="none" fill="#FFFFFF" stroke="#000000" stroke-width="3" stroke-miterlimit="10" cx="451.5" cy="101.5" r="58"/>
	<g id="Ebene_21">
		<path fill="#8DC63F" d="M188.5,419c-13,0-23.5,10.5-23.5,23.5c0,13,10.5,23.5,23.5,23.5s23.5-10.5,23.5-23.5
			C212,429.5,201.5,419,188.5,419z M199.3,453c0,0.2-0.2,0.5-0.3,0.6c0,0-3.8,2.5-9.1,2.5c-7.3,0-13.3-5.9-13.3-13.2
			c-0.1-7.4,5.9-13.3,13.2-13.3c3.8,0,6.4,1.3,9,3.4c0.3,0.3,0.3,0.8,0,1c-0.3,0.3-0.8,0.7-1,1c-0.3,0.3-0.5,0.3-0.9,0
			c-1.9-1.6-4.5-2.9-7-2.9c-5.8,0-10.3,4.9-10.3,10.6s4.4,10.7,10.3,10.7c4.1,0,6.7-1.5,6.7-1.5v-5.2h-4.3c-0.4,0-0.7-0.3-0.7-0.7
			v-1.4c0-0.4,0.3-0.7,0.7-0.7h6.4c0.3,0,0.7,0.3,0.7,0.7V453z"/>
	</g>
	<circle fill="#FFFFFF" stroke="#000000" stroke-width="3" stroke-miterlimit="10" cx="121" cy="495" r="50.5"/>
	<circle fill="#FFFFFF" stroke="#000000" stroke-width="3" stroke-miterlimit="10" cx="779.5" cy="486.5" r="35"/>
	<circle fill="none" stroke="#000000" stroke-width="3" stroke-miterlimit="10" cx="1108" cy="475" r="43"/>
	<g id="Ebene_22">
		<circle id="circle47_1_" fill="#FFFFFF" cx="376.7" cy="296.7" r="33.9"/>
		<path id="path49_1_" fill-opacity="0.1" d="M398.2,302.9c0-11.9-9.7-21.6-21.6-21.6c-11.9,0-21.6,9.7-21.6,21.6h6.2
			c0-8.5,6.9-15.4,15.4-15.4c8.5,0,15.4,6.9,15.4,15.4"/>
		<circle id="circle51_1_" fill-opacity="0.1" cx="378.2" cy="301" r="11.7"/>
		
			<linearGradient id="circle53_2_" gradientUnits="userSpaceOnUse" x1="-482.2843" y1="798.7761" x2="-482.2843" y2="798.468" gradientTransform="matrix(82 0 0 -82 39923.9688 65783.7031)">
			<stop  offset="0" style="stop-color:#81B4E0"/>
			<stop  offset="1" style="stop-color:#0C5A94"/>
		</linearGradient>
		<circle id="circle53_1_" fill="url(#circle53_2_)" cx="376.7" cy="296.7" r="12.6"/>
		
			<linearGradient id="path55_2_" gradientUnits="userSpaceOnUse" x1="175.2335" y1="-409.404" x2="175.2335" y2="-437.4469" gradientTransform="matrix(1 0 0 -1 202.5 -147.2241)">
			<stop  offset="0" style="stop-color:#F06B59"/>
			<stop  offset="1" style="stop-color:#DF2227"/>
		</linearGradient>
		<path id="path55_1_" fill="url(#path55_2_)" d="M407.5,281.3c-8.5-17.1-29.2-24-46.3-15.5c-5.3,2.6-9.9,6.6-13.2,11.5l13.9,24
			c-2.6-8.1,2-16.8,10.1-19.3c1.4-0.4,2.9-0.7,4.4-0.7"/>
		
			<linearGradient id="path57_2_" gradientUnits="userSpaceOnUse" x1="148.0437" y1="-468.4506" x2="162.2189" y2="-445.0308" gradientTransform="matrix(1 0 0 -1 202.5 -147.2241)">
			<stop  offset="0" style="stop-color:#388B41"/>
			<stop  offset="1" style="stop-color:#4CB749"/>
		</linearGradient>
		<path id="path57_1_" fill="url(#path57_2_)" d="M348,277.3c-10.6,15.8-6.4,37.3,9.4,47.9c4.9,3.3,10.6,5.3,16.4,5.7l14.5-24.7
			c-5.4,6.6-15.1,7.5-21.7,2.1c-2.2-1.8-3.9-4.3-4.8-7"/>
		
			<linearGradient id="path59_2_" gradientUnits="userSpaceOnUse" x1="195.5322" y1="-470.942" x2="180.4324" y2="-434.5792" gradientTransform="matrix(1 0 0 -1 202.5 -147.2241)">
			<stop  offset="0" style="stop-color:#E4B022"/>
			<stop  offset="0.3" style="stop-color:#FCD209"/>
		</linearGradient>
		<path id="path59_1_" fill="url(#path59_2_)" d="M373.9,330.9c19,1.4,35.6-12.8,37-31.8c0.5-6.1-0.7-12.3-3.4-17.8h-31.1
			c8.5,0,15.4,7,15.3,15.5c0,3.4-1.2,6.8-3.3,9.5"/>
		
			<linearGradient id="path61_2_" gradientUnits="userSpaceOnUse" x1="152.736" y1="-447.6164" x2="152.736" y2="-422.9638" gradientTransform="matrix(1 0 0 -1 202.5 -147.2241)">
			<stop  offset="0" style="stop-color:#000000;stop-opacity:0.15"/>
			<stop  offset="0.3" style="stop-color:#000000;stop-opacity:6.000000e-02"/>
			<stop  offset="1" style="stop-color:#000000;stop-opacity:3.000000e-02"/>
		</linearGradient>
		<path id="path61_1_" fill="url(#path61_2_)" d="M348,277.3l13.9,24c-1-3.5-0.8-7.2,0.6-10.5l-13.9-14.5"/>
		
			<linearGradient id="path63_2_" gradientUnits="userSpaceOnUse" x1="186.7667" y1="-455.5783" x2="169.8181" y2="-472.8352" gradientTransform="matrix(1 0 0 -1 202.5 -147.2241)">
			<stop  offset="0" style="stop-color:#000000;stop-opacity:0.15"/>
			<stop  offset="0.3" style="stop-color:#000000;stop-opacity:6.000000e-02"/>
			<stop  offset="1" style="stop-color:#000000;stop-opacity:3.000000e-02"/>
		</linearGradient>
		<path id="path63_1_" fill="url(#path63_2_)" d="M373.9,330.9l14.5-24.7c-2.3,2.7-5.4,4.6-8.9,5.2l-6.2,19.4"/>
		
			<linearGradient id="path65_2_" gradientUnits="userSpaceOnUse" x1="186.5193" y1="-460.542" x2="188.9845" y2="-436.1984" gradientTransform="matrix(1 0 0 -1 202.5 -147.2241)">
			<stop  offset="0" style="stop-color:#000000;stop-opacity:0.15"/>
			<stop  offset="0.3" style="stop-color:#000000;stop-opacity:6.000000e-02"/>
			<stop  offset="1" style="stop-color:#000000;stop-opacity:3.000000e-02"/>
		</linearGradient>
		<path id="path65_1_" fill="url(#path65_2_)" d="M407.5,281.3h-31.1c4.7,0,9.1,2.2,12,5.9l19.7-4.9"/>
	</g>
	<path fill="#86ED18" d="M318,307.7c-5.5,7.7-7.4,15.1-4.9,21.3c0.4,1.3,1.1,2.3,1.9,3.2l14.9-10.6c-1.5-3.4,0-7.9,3.6-12.3
		L318,307.7z M420.1,292.8c-5.5,8.7-19.3,18.7-37,26.2c-11.9,4.9-23.4,7.9-32.5,8.5l-1.1,12.8c11.5-1.1,24.9-4.5,38.3-10.2
		c24.5-10.2,43.2-25.3,50-38.8L420.1,292.8z"/>
	<path fill="none" stroke="#000000" stroke-width="3" stroke-miterlimit="10" d="M385,262.2c26.8-6.8,49.3-4,54.4,8.3
		c6.4,15.3-16.6,39.6-51.5,54.3c-34.9,14.7-68.3,14.1-74.6-1.5c-5.1-12.3,8.5-30.2,32.1-44.5"/>
	<path fill="none" stroke="#000000" stroke-width="3" stroke-miterlimit="10" d="M400.7,270.9c11.3-1.1,19.3,1.1,21.5,6.2
		c4,9.4-13.6,25.8-39.1,36.4c-25.5,10.6-49.3,11.7-53.4,2.1c-2.1-5.1,2.1-12.6,10.6-19.8"/>
	<path fill="#86ED18" d="M1032.4,108.3c6.2,0,11.2-5,11.2-11.3c0-6.2-5-11.3-11.2-11.3c-6.2,0-11.2,5-11.2,11.3
		C1021.1,103.2,1026.2,108.3,1032.4,108.3z"/>
	<g id="Ebene_24">
		<path fill="#0078D7" d="M1082.1,115c0,1.6,0.2,3.1,0.7,4.4c0.5,1.3,1.2,2.5,2.1,3.5c0.9,1,1.9,1.9,3.1,2.6
			c1.2,0.7,2.4,1.4,3.8,1.8c1.3,0.5,2.7,0.8,4.2,1.1c1.4,0.2,2.8,0.3,4.3,0.3c1.8,0,3.5-0.1,5-0.4c1.6-0.3,3.1-0.7,4.6-1.2
			c1.5-0.5,3-1.1,4.5-1.8c1.5-0.7,3-1.4,4.5-2.2v14.3c-1.7,0.8-3.4,1.6-5.1,2.2c-1.7,0.6-3.4,1.1-5.1,1.5c-1.7,0.4-3.5,0.7-5.2,0.9
			s-3.6,0.3-5.5,0.3c-2.5,0-5-0.3-7.3-0.9c-2.4-0.6-4.6-1.4-6.6-2.5c-2.1-1.1-4-2.4-5.7-4c-1.7-1.6-3.2-3.3-4.4-5.3
			s-2.2-4.1-2.9-6.4c-0.7-2.3-1-4.7-1-7.3c0-2.8,0.4-5.4,1.1-7.9c0.8-2.5,1.9-4.8,3.3-6.9c1.4-2.1,3.2-4,5.2-5.6
			c2.1-1.6,4.4-3,6.9-4c-1.4,1.4-2.5,3.1-3.3,5c-0.8,1.9-1.3,3.9-1.5,5.8h24c0-2.4-0.2-4.5-0.7-6.4c-0.5-1.8-1.3-3.3-2.4-4.5
			c-1.1-1.2-2.5-2.1-4.3-2.7c-1.7-0.6-3.8-0.9-6.3-0.9c-2.9,0-5.8,0.4-8.7,1.3c-2.9,0.8-5.7,2.1-8.3,3.6c-2.6,1.6-5,3.4-7.2,5.5
			c-2.2,2.1-4,4.4-5.5,6.8c0.3-2.8,0.9-5.6,1.8-8.2c0.9-2.6,2-5,3.4-7.3c1.4-2.2,3-4.2,4.9-6.1c1.9-1.8,3.9-3.4,6.2-4.6
			c2.3-1.3,4.7-2.3,7.4-3c2.6-0.6,5.4-1,8.4-1c1.7,0,3.5,0.2,5.2,0.5c1.7,0.3,3.4,0.7,5,1.3c3.2,1.1,6.2,2.7,8.7,4.7
			c2.6,2,4.7,4.3,6.4,6.9s3.1,5.5,4,8.6c0.9,3.1,1.4,6.4,1.4,9.8v8.4C1125.3,115,1082.1,115,1082.1,115z"/>
	</g>
	<path fill="#86ED18" d="M1032.4,108.3c6.2,0,11.2-5,11.2-11.3c0-6.2-5-11.3-11.2-11.3c-6.2,0-11.2,5-11.2,11.3
		C1021.1,103.2,1026.2,108.3,1032.4,108.3z"/>
	<path fill="none" stroke="#000000" stroke-width="1.3971" stroke-miterlimit="10" d="M1150,120.1c0.8,1.1,1.6,2.1,2.2,3.2"/>
	<path fill="none" stroke="#000000" stroke-width="3" stroke-miterlimit="10" d="M1043.5,85.1c4.7-2.4,11.7-3.3,20.1-3.2"/>
	<path fill="none" stroke="#000000" stroke-width="3" stroke-miterlimit="10" d="M1154.3,127.9c1,2.7,1,5.4,0,7.8
		c-4.7,12.7-34.8,13-67.3,1c-29.6-11.1-50.8-28.9-50.8-41.4"/>
	<path fill="none" stroke="#000000" stroke-width="1.3971" stroke-miterlimit="10" d="M1036.3,103.7c6.2,0,11.2-5,11.2-11.3
		s-5-11.3-11.2-11.3c-6.2,0-11.2,5-11.2,11.3S1030.1,103.7,1036.3,103.7z"/>
	<path fill="none" stroke="#000000" stroke-width="3" stroke-miterlimit="10" d="M1036.3,103.7c6.2,0,11.2-5,11.2-11.3
		s-5-11.3-11.2-11.3c-6.2,0-11.2,5-11.2,11.3S1030.1,103.7,1036.3,103.7z"/>
</g>
<g id="Ebene_23">
	
		<linearGradient id="path980_1_" gradientUnits="userSpaceOnUse" x1="803.3052" y1="165.4025" x2="746.6083" y2="110.7007" gradientTransform="matrix(1 0 0 -1 3.7 625.9959)">
		<stop  offset="4.800000e-02" style="stop-color:#FFF44F"/>
		<stop  offset="0.111" style="stop-color:#FFE847"/>
		<stop  offset="0.225" style="stop-color:#FFC830"/>
		<stop  offset="0.368" style="stop-color:#FF980E"/>
		<stop  offset="0.401" style="stop-color:#FF8B16"/>
		<stop  offset="0.462" style="stop-color:#FF672A"/>
		<stop  offset="0.534" style="stop-color:#FF3647"/>
		<stop  offset="0.705" style="stop-color:#E31587"/>
	</linearGradient>
	<path id="path980" fill="url(#path980_1_)" d="M811.5,473.3c-1.5-3.6-4.5-7.4-6.9-8.6c1.7,3.3,2.8,6.8,3.5,10.4l0,0.1
		c-3.9-9.6-10.4-13.5-15.8-22c-0.3-0.4-0.5-0.9-0.8-1.3c-0.2-0.3-0.3-0.5-0.4-0.7c-0.2-0.4-0.4-0.9-0.5-1.4c0,0,0-0.1-0.1-0.1
		c0,0,0,0-0.1,0c0,0,0,0,0,0c0,0,0,0,0,0l0,0c-8.6,5-11.5,14.3-11.8,19c-3.4,0.2-6.7,1.5-9.4,3.6c-0.3-0.2-0.6-0.5-0.9-0.7
		c-0.8-2.7-0.8-5.6-0.1-8.3c-3.2,1.5-5.9,3.7-8.2,6.4h0c-1.4-1.7-1.3-7.4-1.2-8.6c-0.4,0.2-0.8,0.4-1.1,0.6
		c-1.2,0.9-2.3,1.8-3.3,2.9c-1.2,1.2-2.2,2.5-3.2,3.8v0v0c-2.2,3.1-3.8,6.6-4.6,10.3l0,0.2c-0.1,0.3-0.3,1.8-0.3,2.1c0,0,0,0,0,0.1
		c-0.3,1.6-0.5,3.1-0.6,4.7v0.2c0,18.9,15.3,34.1,34.2,34.1c16.6,0,30.8-12,33.6-28.3c0.1-0.4,0.1-0.9,0.2-1.3
		C814.4,484.7,813.7,478.8,811.5,473.3z M772.2,500.1c0.2,0.1,0.3,0.2,0.5,0.2l0,0C772.5,500.2,772.3,500.1,772.2,500.1z
		 M808.1,475.1L808.1,475.1L808.1,475.1L808.1,475.1z"/>
	
		<radialGradient id="path982_1_" cx="-7174.3101" cy="8692.4941" r="71.2" gradientTransform="matrix(1 0 0 -1 7978.7002 9149.9961)" gradientUnits="userSpaceOnUse">
		<stop  offset="0.129" style="stop-color:#FFBD4F"/>
		<stop  offset="0.186" style="stop-color:#FFAC31"/>
		<stop  offset="0.247" style="stop-color:#FF9D17"/>
		<stop  offset="0.283" style="stop-color:#FF980E"/>
		<stop  offset="0.403" style="stop-color:#FF563B"/>
		<stop  offset="0.467" style="stop-color:#FF3750"/>
		<stop  offset="0.71" style="stop-color:#F5156C"/>
		<stop  offset="0.782" style="stop-color:#EB0878"/>
		<stop  offset="0.86" style="stop-color:#E50080"/>
	</radialGradient>
	<path id="path982" fill="url(#path982_1_)" d="M811.5,473.3c-1.5-3.6-4.5-7.4-6.9-8.6c1.7,3.3,2.8,6.8,3.5,10.4v0l0,0
		c2.6,7.5,2.3,15.8-1.1,23.1c-3.9,8.4-13.4,17-28.2,16.6c-16-0.5-30.1-12.3-32.8-27.9c-0.5-2.5,0-3.7,0.2-5.7
		c-0.3,1.6-0.5,3.1-0.5,4.7v0.2c0,18.9,15.3,34.1,34.2,34.1c16.6,0,30.8-12,33.6-28.3c0.1-0.4,0.1-0.9,0.2-1.3
		C814.4,484.7,813.7,478.8,811.5,473.3z"/>
	
		<radialGradient id="path984_1_" cx="-7200.3271" cy="8663.3857" r="71.2" gradientTransform="matrix(1 0 0 -1 7978.7002 9149.9961)" gradientUnits="userSpaceOnUse">
		<stop  offset="0.3" style="stop-color:#960E18"/>
		<stop  offset="0.351" style="stop-color:#B11927;stop-opacity:0.74"/>
		<stop  offset="0.435" style="stop-color:#DB293D;stop-opacity:0.343"/>
		<stop  offset="0.497" style="stop-color:#F5334B;stop-opacity:9.400000e-02"/>
		<stop  offset="0.53" style="stop-color:#FF3750;stop-opacity:0"/>
	</radialGradient>
	<path id="path984" fill="url(#path984_1_)" d="M811.5,473.3c-1.5-3.6-4.5-7.4-6.9-8.6c1.7,3.3,2.8,6.8,3.5,10.4v0l0,0
		c2.6,7.5,2.3,15.8-1.1,23.1c-3.9,8.4-13.4,17-28.2,16.6c-16-0.5-30.1-12.3-32.8-27.9c-0.5-2.5,0-3.7,0.2-5.7
		c-0.3,1.6-0.5,3.1-0.5,4.7v0.2c0,18.9,15.3,34.1,34.2,34.1c16.6,0,30.8-12,33.6-28.3c0.1-0.4,0.1-0.9,0.2-1.3
		C814.4,484.7,813.7,478.8,811.5,473.3z"/>
	
		<radialGradient id="path986_1_" cx="-7191.7432" cy="8708.6523" r="51.58" gradientTransform="matrix(1 0 0 -1 7978.7002 9149.9961)" gradientUnits="userSpaceOnUse">
		<stop  offset="0.132" style="stop-color:#FFF44F"/>
		<stop  offset="0.252" style="stop-color:#FFDC3E"/>
		<stop  offset="0.506" style="stop-color:#FF9D12"/>
		<stop  offset="0.526" style="stop-color:#FF980E"/>
	</radialGradient>
	<path id="path986" fill="url(#path986_1_)" d="M794.9,477.3c0.1,0.1,0.1,0.1,0.2,0.2c-0.9-1.5-1.9-2.9-3.2-4.1
		c-10.6-10.6-2.8-23-1.5-23.7l0,0c-8.6,5-11.5,14.3-11.8,19c0.4,0,0.8-0.1,1.2-0.1C786.2,468.6,791.9,471.9,794.9,477.3z"/>
	
		<radialGradient id="path988_1_" cx="-7208.2026" cy="8644.7881" r="33.9015" gradientTransform="matrix(1 0 0 -1 7978.7002 9149.9961)" gradientUnits="userSpaceOnUse">
		<stop  offset="0.353" style="stop-color:#3A8EE6"/>
		<stop  offset="0.472" style="stop-color:#5C79F0"/>
		<stop  offset="0.669" style="stop-color:#9059FF"/>
		<stop  offset="1" style="stop-color:#C139E6"/>
	</radialGradient>
	<path id="path988" fill="url(#path988_1_)" d="M780,479.5c-0.1,0.8-3.1,3.8-4.1,3.8c-9.7,0-11.3,5.9-11.3,5.9c0.4,4.9,3.9,9,8,11.2
		c0.2,0.1,0.4,0.2,0.6,0.3c0.3,0.1,0.7,0.3,1,0.4c1.4,0.5,2.9,0.8,4.4,0.9c17,0.8,20.3-20.4,8-26.5c2.9-0.4,5.8,0.3,8.2,2
		c-3.1-5.4-8.8-8.7-15-8.7c-0.4,0-0.8,0-1.2,0.1c-3.4,0.2-6.7,1.5-9.4,3.6c0.5,0.4,1.1,1,2.3,2.2C774,476.8,780,479.2,780,479.5z"/>
	
		<radialGradient id="path990_1_" cx="-7371.7085" cy="8633.9678" r="17.9743" gradientTransform="matrix(0.972 -0.235 -0.275 -1.138 10321.9053 8573.8789)" gradientUnits="userSpaceOnUse">
		<stop  offset="0.206" style="stop-color:#9059FF;stop-opacity:0"/>
		<stop  offset="0.278" style="stop-color:#8C4FF3;stop-opacity:6.400000e-02"/>
		<stop  offset="0.747" style="stop-color:#7716A8;stop-opacity:0.45"/>
		<stop  offset="0.975" style="stop-color:#6E008B;stop-opacity:0.6"/>
	</radialGradient>
	<path id="path990" fill="url(#path990_1_)" d="M780,479.5c-0.1,0.8-3.1,3.8-4.1,3.8c-9.7,0-11.3,5.9-11.3,5.9c0.4,4.9,3.9,9,8,11.2
		c0.2,0.1,0.4,0.2,0.6,0.3c0.3,0.1,0.7,0.3,1,0.4c1.4,0.5,2.9,0.8,4.4,0.9c17,0.8,20.3-20.4,8-26.5c2.9-0.4,5.8,0.3,8.2,2
		c-3.1-5.4-8.8-8.7-15-8.7c-0.4,0-0.8,0-1.2,0.1c-3.4,0.2-6.7,1.5-9.4,3.6c0.5,0.4,1.1,1,2.3,2.2C774,476.8,780,479.2,780,479.5z"/>
	
		<radialGradient id="path992_1_" cx="-7201.2261" cy="8695.4072" r="24.3887" gradientTransform="matrix(1 0 0 -1 7978.7002 9149.9961)" gradientUnits="userSpaceOnUse">
		<stop  offset="0" style="stop-color:#FFE226"/>
		<stop  offset="0.121" style="stop-color:#FFDB27"/>
		<stop  offset="0.295" style="stop-color:#FFC82A"/>
		<stop  offset="0.502" style="stop-color:#FFA930"/>
		<stop  offset="0.732" style="stop-color:#FF7E37"/>
		<stop  offset="0.792" style="stop-color:#FF7139"/>
	</radialGradient>
	<path id="path992" fill="url(#path992_1_)" d="M767.8,471.1c0.3,0.2,0.5,0.3,0.7,0.5c-0.8-2.7-0.8-5.6-0.1-8.3
		c-3.2,1.5-5.9,3.7-8.2,6.4C760.3,469.6,765.3,469.5,767.8,471.1z"/>
	
		<radialGradient id="path994_1_" cx="-7182.0562" cy="8710.877" r="104.0555" gradientTransform="matrix(1 0 0 -1 7978.7002 9149.9961)" gradientUnits="userSpaceOnUse">
		<stop  offset="0.113" style="stop-color:#FFF44F"/>
		<stop  offset="0.456" style="stop-color:#FF980E"/>
		<stop  offset="0.622" style="stop-color:#FF5634"/>
		<stop  offset="0.716" style="stop-color:#FF3647"/>
		<stop  offset="0.904" style="stop-color:#E31587"/>
	</radialGradient>
	<path id="path994" fill="url(#path994_1_)" d="M746.1,486.8c2.6,15.6,16.8,27.5,32.8,27.9c14.8,0.4,24.3-8.2,28.2-16.6
		c3.3-7.3,3.7-15.5,1.1-23.1v0c0,0,0,0,0,0l0,0.1c1.2,7.9-2.8,15.6-9.1,20.8l0,0c-12.3,10-24,6-26.4,4.4c-0.2-0.1-0.3-0.2-0.5-0.2
		c-7.1-3.4-10.1-9.9-9.5-15.5c-3.5,0.1-6.6-1.9-8.1-5.1c3.8-2.3,8.6-2.5,12.6-0.5c4,1.8,8.6,2,12.8,0.5c0-0.3-6-2.6-8.3-4.9
		c-1.2-1.2-1.8-1.8-2.3-2.2c-0.3-0.2-0.6-0.5-0.9-0.7c-0.2-0.1-0.4-0.3-0.7-0.5c-2.5-1.6-7.4-1.5-7.6-1.5h0
		c-1.4-1.7-1.3-7.4-1.2-8.6c-0.4,0.2-0.8,0.4-1.1,0.6c-1.2,0.9-2.3,1.8-3.3,2.9c-1.2,1.2-2.2,2.5-3.2,3.8v0v0
		c-2.2,3.1-3.8,6.6-4.6,10.3C746.7,478.8,745.5,484.1,746.1,486.8z"/>
	
		<radialGradient id="path996_1_" cx="-7203.6743" cy="10355.8857" r="76.2248" gradientTransform="matrix(0.105 0.995 0.653 -6.900000e-02 -5218.1343 8327.1162)" gradientUnits="userSpaceOnUse">
		<stop  offset="0" style="stop-color:#FFF44F"/>
		<stop  offset="6.000000e-02" style="stop-color:#FFE847"/>
		<stop  offset="0.168" style="stop-color:#FFC830"/>
		<stop  offset="0.304" style="stop-color:#FF980E"/>
		<stop  offset="0.356" style="stop-color:#FF8B16"/>
		<stop  offset="0.455" style="stop-color:#FF672A"/>
		<stop  offset="0.57" style="stop-color:#FF3647"/>
		<stop  offset="0.737" style="stop-color:#E31587"/>
	</radialGradient>
	<path id="path996" fill="url(#path996_1_)" d="M792,473.4c1.2,1.2,2.3,2.6,3.2,4.1c0.2,0.1,0.4,0.3,0.5,0.4
		c7.7,7.1,3.7,17.2,3.4,17.9c6.3-5.2,10.3-12.8,9.1-20.8c-3.9-9.6-10.4-13.5-15.8-22c-0.3-0.4-0.5-0.9-0.8-1.3
		c-0.2-0.3-0.3-0.5-0.4-0.7c-0.2-0.4-0.4-0.9-0.5-1.4c0,0,0-0.1-0.1-0.1c0,0,0,0-0.1,0c0,0,0,0,0,0c0,0,0,0,0,0
		C789.2,450.3,781.4,462.7,792,473.4z"/>
	
		<radialGradient id="path998_1_" cx="-7201.8008" cy="8686.374" r="64.9636" gradientTransform="matrix(1 0 0 -1 7978.7002 9149.9961)" gradientUnits="userSpaceOnUse">
		<stop  offset="0.137" style="stop-color:#FFF44F"/>
		<stop  offset="0.48" style="stop-color:#FF980E"/>
		<stop  offset="0.592" style="stop-color:#FF5634"/>
		<stop  offset="0.655" style="stop-color:#FF3647"/>
		<stop  offset="0.904" style="stop-color:#E31587"/>
	</radialGradient>
	<path id="path998" fill="url(#path998_1_)" d="M795.7,477.9c-0.1-0.1-0.3-0.3-0.5-0.4c-0.1-0.1-0.1-0.1-0.2-0.2
		c-2.4-1.7-5.3-2.4-8.2-2c12.3,6.1,9,27.3-8,26.5c-1.5-0.1-3-0.4-4.4-0.9c-0.3-0.1-0.7-0.3-1-0.4c-0.2-0.1-0.4-0.2-0.6-0.3l0,0
		c2.4,1.6,14.1,5.6,26.4-4.4l0,0C799.3,495.1,803.4,485,795.7,477.9z"/>
	
		<radialGradient id="path1000_1_" cx="-7184.6523" cy="8682.5723" r="71.1022" gradientTransform="matrix(1 0 0 -1 7978.7002 9149.9961)" gradientUnits="userSpaceOnUse">
		<stop  offset="9.400000e-02" style="stop-color:#FFF44F"/>
		<stop  offset="0.231" style="stop-color:#FFE141"/>
		<stop  offset="0.509" style="stop-color:#FFAF1E"/>
		<stop  offset="0.626" style="stop-color:#FF980E"/>
	</radialGradient>
	<path id="path1000" fill="url(#path1000_1_)" d="M764.6,489.1c0,0,1.6-5.9,11.3-5.9c1,0,4.1-2.9,4.1-3.8c-4.2,1.5-8.8,1.3-12.8-0.5
		c-4-2-8.7-1.8-12.6,0.5c1.5,3.1,4.6,5.1,8.1,5.1c-0.6,5.6,2.3,12.1,9.5,15.5c0.2,0.1,0.3,0.2,0.5,0.2
		C768.5,498.1,765,494.1,764.6,489.1z"/>
	
		<linearGradient id="path1002_1_" gradientUnits="userSpaceOnUse" x1="802.6247" y1="165.6942" x2="754.3813" y2="117.4517" gradientTransform="matrix(1 0 0 -1 3.7 625.9959)">
		<stop  offset="0.167" style="stop-color:#FFF44F;stop-opacity:0.8"/>
		<stop  offset="0.266" style="stop-color:#FFF44F;stop-opacity:0.634"/>
		<stop  offset="0.489" style="stop-color:#FFF44F;stop-opacity:0.217"/>
		<stop  offset="0.6" style="stop-color:#FFF44F;stop-opacity:0"/>
	</linearGradient>
	<path id="path1002" fill="url(#path1002_1_)" d="M811.5,473.3c-1.5-3.6-4.5-7.4-6.9-8.6c1.7,3.3,2.8,6.8,3.5,10.4l0,0.1
		c-3.9-9.6-10.4-13.5-15.8-22c-0.3-0.4-0.5-0.9-0.8-1.3c-0.2-0.3-0.3-0.5-0.4-0.7c-0.2-0.4-0.4-0.9-0.5-1.4c0,0,0-0.1-0.1-0.1
		c0,0,0,0-0.1,0c0,0,0,0,0,0c0,0,0,0,0,0l0,0c-8.6,5-11.5,14.3-11.8,19c0.4,0,0.8-0.1,1.2-0.1c6.2,0,11.9,3.3,15,8.7
		c-2.4-1.7-5.3-2.4-8.2-2c12.3,6.1,9,27.3-8,26.5c-1.5-0.1-3-0.4-4.4-0.9c-0.3-0.1-0.7-0.3-1-0.4c-0.2-0.1-0.4-0.2-0.6-0.3l0,0
		c-0.2-0.1-0.3-0.2-0.5-0.2c0.2,0.1,0.3,0.2,0.5,0.2c-4.2-2.2-7.6-6.2-8-11.2c0,0,1.6-5.9,11.3-5.9c1,0,4.1-2.9,4.1-3.8
		c0-0.3-6-2.6-8.3-4.9c-1.2-1.2-1.8-1.8-2.3-2.2c-0.3-0.2-0.6-0.5-0.9-0.7c-0.8-2.7-0.8-5.6-0.1-8.3c-3.2,1.5-5.9,3.7-8.2,6.4h0
		c-1.4-1.7-1.3-7.4-1.2-8.6c-0.4,0.2-0.8,0.4-1.1,0.6c-1.2,0.9-2.3,1.8-3.3,2.9c-1.2,1.2-2.2,2.5-3.2,3.8v0v0
		c-2.2,3.1-3.8,6.6-4.6,10.3l0,0.2c-0.1,0.3-0.4,1.8-0.4,2.2c0,0,0,0,0,0c-0.3,1.6-0.4,3.2-0.5,4.8v0.2c0,18.9,15.3,34.1,34.2,34.1
		c16.6,0,30.8-12,33.6-28.3c0.1-0.4,0.1-0.9,0.2-1.3C814.4,484.7,813.7,478.8,811.5,473.3z M808.1,475.1L808.1,475.1L808.1,475.1z"
		/>
</g>
<g id="Ebene_3">
	<path fill="#FFFFFF" d="M583.6,480.5c0,0,2.6,21.7,53.2,21.4c50.6-0.3,54-19,50.9-23.1c-3.1-4.1-26.1-59.7-33.7-64.9
		c-7.6-5.2-15.3-17.9-15.3-17.9s-17.1-0.6-25.8,13.3C604.1,423.4,583.6,480.5,583.6,480.5z"/>
	<path fill="#FFFFFF" stroke="#000000" stroke-width="3" stroke-miterlimit="10" d="M659.9,387.4c4.1,0,7.4-3.3,7.4-7.4
		c0-4.1-3.3-7.4-7.4-7.4c-4.1,0-7.4,3.3-7.4,7.4C652.6,384.1,655.9,387.4,659.9,387.4z"/>
	<path fill="none" stroke="#000000" stroke-width="3" stroke-miterlimit="10" d="M662.3,378.7c0.1,1.2,0.1,2.4,0,3.6"/>
	<path fill="#FFFFFF" d="M688.9,509h-54v84.5c0,0.2,0.2,0.4,0.5,0.4c2.1-0.6,11.7-3.5,15.8-9.1c4.7-6.4,5.1-22.6,15.2-29.6
		c10.1-7,100.6-6.4,100.6-46.3c0-18.9-39-34.8-60.3-45.5"/>
	<path fill="none" stroke="#000000" stroke-width="3" stroke-miterlimit="10" d="M688.9,509h-54v84.5c0,0.2,0.2,0.4,0.5,0.4
		c2.1-0.6,11.7-3.5,15.8-9.1c4.7-6.4,5.1-22.6,15.2-29.6c10.1-7,100.6-6.4,100.6-46.3c0-18.9-39-34.8-60.3-45.5"/>
	<path fill="#FFFFFF" d="M581,509h54v84.7c0,0.2-0.2,0.3-0.3,0.3c-1.9-0.6-11.8-3.4-16-9.1c-4.7-6.4-5.1-22.6-15.2-29.6
		c-10.1-7-100.6-6.4-100.6-46.3c0-18.9,39-34.8,60.3-45.5"/>
	<path fill="none" stroke="#000000" stroke-width="3" stroke-miterlimit="10" d="M581,509h54v84.7c0,0.2-0.2,0.3-0.3,0.3
		c-1.9-0.6-11.8-3.4-16-9.1c-4.7-6.4-5.1-22.6-15.2-29.6c-10.1-7-100.6-6.4-100.6-46.3c0-18.9,39-34.8,60.3-45.5"/>
	<path fill="none" stroke="#000000" stroke-width="1.3971" stroke-miterlimit="10" d="M610.2,385.9c-0.1-1.2-0.1-2.4,0-3.5"/>
	<path stroke="#000000" stroke-width="0.4657" stroke-miterlimit="10" d="M616.8,393.1c0.3,0,0.5-0.2,0.5-0.5c0-0.3-0.2-0.5-0.5-0.5
		c-0.3,0-0.5,0.2-0.5,0.5C616.4,392.9,616.6,393.1,616.8,393.1z"/>
	<path stroke="#000000" stroke-width="0.4657" stroke-miterlimit="10" d="M614.3,390.7c0.3,0,0.5-0.2,0.5-0.5s-0.2-0.5-0.5-0.5
		c-0.3,0-0.5,0.2-0.5,0.5S614.1,390.7,614.3,390.7z"/>
	<path fill="#FFFFFF" stroke="#000000" stroke-width="3" stroke-miterlimit="10" d="M608.5,387.4c4.1,0,7.4-3.3,7.4-7.4
		c0-4.1-3.3-7.4-7.4-7.4c-4.1,0-7.4,3.3-7.4,7.4C601.1,384.1,604.4,387.4,608.5,387.4z"/>
	<path fill="#FFFFFF" stroke="#000000" stroke-width="3" stroke-miterlimit="10" d="M634.1,406.4c14.3,0,25.8-11.6,25.8-25.9
		c0-14.3-11.6-25.9-25.8-25.9c-14.3,0-25.8,11.6-25.8,25.9C608.3,394.8,619.8,406.4,634.1,406.4z"/>
	<path fill="none" stroke="#000000" stroke-width="3" stroke-miterlimit="10" d="M642.5,359.4c1.3,2.3,4.2,3.4,6.9,2.4
		c2.4-1,3.9-3.7,3.3-6.2c-0.5-2.2-2-3.8-4-4.2c-0.2-0.1-0.2-0.3,0-0.4c0.7-0.2,1.6-0.6,2.3-1.2c1.5-1.2,2.2-3.1,1.8-5.1
		c-0.6-3.4-4-5.4-7.2-4.4c-1.9,0.6-3.3,2.2-3.7,4c0,0.2-0.3,0.2-0.4,0c-0.3-1.1-0.7-2.2-1.6-3.2c-1.9-2.6-5.3-3.9-8.5-3.2
		c-4.5,0.9-7.4,5.1-6.9,9.4c-6.4,3.1-9.4,9.2-8.5,14.7"/>
	<path stroke="#000000" stroke-width="0.4657" stroke-miterlimit="10" d="M618,383.5c0.3,0,0.5-0.2,0.5-0.5c0-0.3-0.2-0.5-0.5-0.5
		c-0.3,0-0.5,0.2-0.5,0.5C617.6,383.3,617.8,383.5,618,383.5z"/>
	<path stroke="#000000" stroke-width="0.4657" stroke-miterlimit="10" d="M620.3,385.9c0.3,0,0.5-0.2,0.5-0.5s-0.2-0.5-0.5-0.5
		c-0.3,0-0.5,0.2-0.5,0.5S620.1,385.9,620.3,385.9z"/>
	<path stroke="#000000" stroke-width="0.4657" stroke-miterlimit="10" d="M613.4,383.5c0.3,0,0.5-0.2,0.5-0.5c0-0.3-0.2-0.5-0.5-0.5
		c-0.3,0-0.5,0.2-0.5,0.5C613,383.3,613.2,383.5,613.4,383.5z"/>
	<path stroke="#000000" stroke-width="0.4657" stroke-miterlimit="10" d="M618,388.3c0.3,0,0.5-0.2,0.5-0.5c0-0.3-0.2-0.5-0.5-0.5
		c-0.3,0-0.5,0.2-0.5,0.5C617.6,388.1,617.8,388.3,618,388.3z"/>
	<path stroke="#000000" stroke-width="0.4657" stroke-miterlimit="10" d="M615.7,385.9c0.3,0,0.5-0.2,0.5-0.5s-0.2-0.5-0.5-0.5
		c-0.3,0-0.5,0.2-0.5,0.5S615.5,385.9,615.7,385.9z"/>
	<path stroke="#000000" stroke-width="0.4657" stroke-miterlimit="10" d="M650.5,383.5c0.3,0,0.5-0.2,0.5-0.5c0-0.3-0.2-0.5-0.5-0.5
		c-0.3,0-0.5,0.2-0.5,0.5C650,383.3,650.2,383.5,650.5,383.5z"/>
	<path stroke="#000000" stroke-width="0.4657" stroke-miterlimit="10" d="M648.2,385.9c0.3,0,0.5-0.2,0.5-0.5s-0.2-0.5-0.5-0.5
		c-0.3,0-0.5,0.2-0.5,0.5S647.9,385.9,648.2,385.9z"/>
	<path stroke="#000000" stroke-width="0.4657" stroke-miterlimit="10" d="M655.1,383.5c0.3,0,0.5-0.2,0.5-0.5c0-0.3-0.2-0.5-0.5-0.5
		c-0.3,0-0.5,0.2-0.5,0.5C654.7,383.3,654.9,383.5,655.1,383.5z"/>
	<path stroke="#000000" stroke-width="0.4657" stroke-miterlimit="10" d="M650.5,388.3c0.3,0,0.5-0.2,0.5-0.5c0-0.3-0.2-0.5-0.5-0.5
		c-0.3,0-0.5,0.2-0.5,0.5C650,388.1,650.2,388.3,650.5,388.3z"/>
	<path stroke="#000000" stroke-width="0.4657" stroke-miterlimit="10" d="M652.8,385.9c0.3,0,0.5-0.2,0.5-0.5s-0.2-0.5-0.5-0.5
		c-0.3,0-0.5,0.2-0.5,0.5S652.5,385.9,652.8,385.9z"/>
	<path fill="none" stroke="#000000" stroke-width="3" stroke-miterlimit="10" d="M606.1,381.4c-0.1-1.2-0.1-2.4,0-3.6"/>
	<path fill="none" stroke="#000000" stroke-width="3" stroke-miterlimit="10" d="M628.4,377.8c0,1.1-0.8,1.9-1.9,1.9
		c-1.1,0-1.9-0.8-1.9-1.9"/>
	<path fill="none" stroke="#000000" stroke-width="3" stroke-miterlimit="10" d="M642.5,377.8c0,1.1,0.8,1.9,1.9,1.9
		c1.1,0,1.9-0.8,1.9-1.9"/>
	<path fill="none" stroke="#000000" stroke-width="3" stroke-miterlimit="10" d="M636.9,388.8c0,1.1-0.8,1.9-1.9,1.9
		c-1.1,0-1.9-0.8-1.9-1.9"/>
	<path fill="#FFFFFF" stroke="#000000" stroke-width="3" stroke-miterlimit="10" d="M543.4,399.7c-0.2-0.9-0.3-1.8-0.3-2.8
		c0-5.2,3.1-9.5,7.5-11.4c0.5-0.2,0.9-0.4,1.6-0.4c1.8,0,3.3,1.5,3.3,3.3c0,1.4-0.8,2.5-2,3c0,0-0.2,0.1-0.3,0.1
		c-2.1,0.8-3.6,2.9-3.6,5.3c0,3.2,2.6,5.8,5.8,5.8c3.2,0,5.8-2.6,5.8-5.8c0-2.4-1.5-4.5-3.6-5.3l-0.3-0.1c-1.2-0.6-2-1.7-2-3
		c0-1.8,1.5-3.3,3.3-3.3c0.6,0,1.2,0.2,1.6,0.4c4.4,1.9,7.5,6.4,7.5,11.4c0,3.9-1.7,7.3-4.5,9.6l2.3,10.6l-37.2,8.3l-7.4-34.1
		c-0.5-1.7,0.6-3.6,2.3-4c1.7-0.5,3.6,0.6,4,2.3l-0.6-2.8c-0.5-1.7,0.6-3.6,2.3-4c1.7-0.5,3.6,0.6,4,2.3l-0.6-2.6
		c-0.5-1.7,0.6-3.6,2.3-4c1.7-0.5,3.6,0.6,4,2.3L543.4,399.7z"/>
	<path fill="#FFFFFF" d="M527.5,389.5l2.8,13L527.5,389.5z"/>
	<path fill="none" stroke="#000000" stroke-width="3" stroke-miterlimit="10" d="M527.5,389.5l2.8,13"/>
	<path fill="#FFFFFF" d="M536.9,401.1l-3.5-16L536.9,401.1z"/>
	<path fill="none" stroke="#000000" stroke-width="3" stroke-miterlimit="10" d="M536.9,401.1l-3.5-16"/>
	<path d="M611.6,440.8c-1.4,0-2.8-0.2-4.2-0.5c-10.7-2.3-17.4-12.8-15.1-23.5c0.1-0.6,0.2-0.9,0.2-1c1.9-10.7,12.1-17.8,22.9-15.7
		c10.7,1.9,17.7,12.2,15.9,22.9c0,0-0.2,0.7-0.5,2.2C628.8,434.5,620.6,440.8,611.6,440.8z"/>
	<path d="M581.2,494.6c-17.4,0-31-7.8-39.4-22.5c-6.1-10.6-8.8-23.2-12-37.9c-0.6-2.7-1.2-5.3-1.8-8.1l38.4-8.7
		c0.6,2.9,1.3,5.7,1.8,8.5c2.4,11,4.7,21.4,7.7,26.8c1.2,2,1.5,2.7,5.2,2.7c0.3,0,0.4,0,0.4,0c0.6-0.3,3.2-2.8,5.6-10.5
		c2.5-7.8,3.5-16.6,4-21.7c0.3-2.6,0.5-4.3,0.8-6l38.5,8.4c0-0.2,0.1-0.3,0.1-0.6c-0.1,0.4-0.2,1.7-0.3,2.7
		c-0.8,7.5-2.5,21.5-7.6,34.8C611.9,490.4,592.1,494.6,581.2,494.6z"/>
	<path fill="#FFFFFF" stroke="#000000" stroke-width="3" stroke-miterlimit="10" d="M725.9,399.7c0.2-0.9,0.3-1.8,0.3-2.8
		c0-5.2-3.1-9.5-7.5-11.4c-0.5-0.2-0.9-0.4-1.6-0.4c-1.8,0-3.3,1.5-3.3,3.3c0,1.4,0.8,2.5,2,3c0,0,0.2,0.1,0.3,0.1
		c2.1,0.8,3.6,2.9,3.6,5.3c0,3.2-2.6,5.8-5.8,5.8s-5.8-2.6-5.8-5.8c0-2.4,1.5-4.5,3.6-5.3l0.3-0.1c1.2-0.6,2-1.7,2-3
		c0-1.8-1.5-3.3-3.3-3.3c-0.6,0-1.2,0.2-1.6,0.4c-4.4,1.9-7.5,6.4-7.5,11.4c0,3.9,1.7,7.3,4.5,9.6l-2.3,10.6l37.2,8.3l7.4-34.1
		c0.5-1.7-0.6-3.6-2.3-4c-1.7-0.5-3.6,0.6-4,2.3l0.6-2.8c0.5-1.7-0.6-3.6-2.3-4c-1.7-0.5-3.6,0.6-4,2.3l0.6-2.6
		c0.5-1.7-0.6-3.6-2.3-4c-1.7-0.5-3.6,0.6-4,2.3L725.9,399.7z"/>
	<path fill="#FFFFFF" d="M741.7,389.5l-2.8,13L741.7,389.5z"/>
	<path fill="none" stroke="#000000" stroke-width="3" stroke-miterlimit="10" d="M741.7,389.5l-2.8,13"/>
	<path fill="#FFFFFF" d="M732.3,401.1l3.5-16L732.3,401.1z"/>
	<path fill="none" stroke="#000000" stroke-width="3" stroke-miterlimit="10" d="M732.3,401.1l3.5-16"/>
	<path d="M657.7,440.8c-9.1,0-17.2-6.3-19.2-15.6c-0.3-1.5-0.5-2.2-0.5-2.2c-1.9-10.7,5.1-21,15.9-22.9c10.7-1.9,20.9,5.1,22.9,15.7
		c0,0.1,0.1,0.5,0.2,1c2.3,10.7-4.4,21.2-15.1,23.5C660.5,440.6,659.1,440.8,657.7,440.8z"/>
	<path d="M688,494.6c-10.8,0-30.5-4.2-41.6-32.5c-5.1-13.2-6.8-27.2-7.6-34.8c-0.1-1-0.3-2.2-0.3-2.7c0,0.2,0.1,0.4,0.1,0.6
		l38.5-8.4c0.4,1.7,0.6,3.4,0.8,6c0.6,5.2,1.6,13.9,4,21.7c2.5,7.7,5.1,10.3,5.7,10.6c0,0,0.1,0,0.4,0c3.7,0,4-0.6,5.2-2.7
		c3-5.3,5.3-15.7,7.7-26.8c0.6-2.8,1.2-5.5,1.8-8.5l38.4,8.7c-0.6,2.8-1.2,5.5-1.8,8.1c-3.2,14.7-6,27.3-12,37.9
		C718.9,486.8,705.3,494.6,688,494.6z"/>
</g>
<g id="Ebene_13">
</g>
<g id="Ebene_2">
	<path display="none" fill="none" stroke="#86ED18" stroke-width="4" d="M741.6,336H489.4c0,0-58-11.3-58-78.2
		s59.3-104.6,108.4-102.1c-3.8-25.2,30.3-102.3,124.8-99.6c131.1,3.8,133.6,139.9,133.6,139.9C850,207.4,884,331,741.6,336z"/>
	<path display="none" fill="none" stroke="#86ED18" stroke-width="5" d="M495.8,452.7c-15-11.7-66-80.5-33.5-174.7
		c32.5-94.2,86.9-105.5,167.8-109.3c80.9-3.8,126.9,11.5,170.5,62.8c43.6,51.3,44.2,181.8-59.9,231.8
		C636.6,513.5,545.8,491.6,495.8,452.7z"/>
	<polygon fill="#86ED18" points="215.1,69.1 216,79.8 225.9,85.6 215.4,89.3 213.2,99.6 205.8,91.2 194.5,91.8 200.4,82.9 
		195.7,72.9 206.7,75.9 	"/>
	<polygon fill="none" stroke="#000000" stroke-width="2" stroke-miterlimit="10" points="211.6,70.3 212.6,81.6 222.9,87.7 
		212,91.5 209.6,102.4 201.8,93.5 189.9,94.2 196.1,84.8 191.2,74.3 202.8,77.4 	"/>
	<polygon fill="#86ED18" points="327.4,119.3 334.6,103.7 325.7,87.7 343,91.1 354.5,78.6 357.9,96.3 374,104.5 358.8,112 
		357.2,129.6 344.4,116.6 	"/>
	<path fill="none" stroke="#000000" stroke-width="2" stroke-miterlimit="10" d="M333.2,120.4l7.7-16.4l-9.4-16.8l18.2,3.5
		l12.1-13.2l4.3,15.7c0,0,61-43,158.2-15.2c-35.3,0.5,1.3,6.5,1.3,6.5s-38.9,3.7,1.9,9.6c-37.7,3.3,1.7,8.5,1.7,8.5
		s-32.5-1.2,1.6,7.8c-28.8-1.1-0.1,2.5,2.5,12.6c-51.1-33.5-163.9-13.9-163.9-13.9l-4.9,22.2l-13.5-13.7L333.2,120.4z"/>
	<polygon fill="#86ED18" points="94.3,383.7 93.6,391.7 86.2,396.1 94,398.8 95.7,406.6 101.3,400.3 109.7,400.7 105.3,394.1 
		108.9,386.5 100.6,388.8 	"/>
	<polygon fill="none" stroke="#000000" stroke-width="2" stroke-miterlimit="10" points="96.9,384.6 96.2,393.1 88.4,397.7 
		96.6,400.5 98.4,408.8 104.3,402 113.2,402.5 108.6,395.5 112.3,387.6 103.5,390 	"/>
	<polygon fill="#86ED18" points="160.2,197.3 166.1,193.5 166.4,186 171.7,190.9 178.4,189.1 175.8,195.9 179.6,202.2 172.7,201.6 
		168.3,207.3 166.7,200 	"/>
	<polygon fill="none" stroke="#000000" stroke-width="2" stroke-miterlimit="10" points="162,198.9 168.2,194.9 168.5,187.1 
		174.1,192.2 181.2,190.3 178.4,197.5 182.4,204.2 175.1,203.5 170.5,209.5 168.8,201.9 	"/>
	<polygon fill="#86ED18" points="1189.1,530.4 1190.1,541.2 1199.9,547 1189.5,550.6 1187.2,561 1179.8,552.5 1168.6,553.1 
		1174.4,544.2 1169.7,534.2 1180.7,537.2 	"/>
	<polygon fill="none" stroke="#000000" stroke-width="2" stroke-miterlimit="10" points="1185.6,531.6 1186.6,542.9 1197,549 
		1186,552.9 1183.6,563.8 1175.8,554.9 1164,555.5 1170.1,546.2 1165.2,535.6 1176.8,538.8 	"/>
</g>
<g id="Ebene_14">
</g>
<g id="Ebene_9">
</g>
<g id="Ebene_4">
</g>
<g id="Ebene_5">
	<polygon fill="#FFFFFF" stroke="#000000" stroke-width="0.75" stroke-miterlimit="10" points="990.9,275.5 990.3,275.3 
		989.3,277.9 990.2,278.2 	"/>
	
		<ellipse transform="matrix(0.3268 -0.9451 0.9451 0.3268 401.9965 1122.924)" fill="#FFFFFF" stroke="#000000" stroke-width="0.75" stroke-miterlimit="10" cx="989.2" cy="279.3" rx="1.5" ry="2.3"/>
	
		<ellipse transform="matrix(0.3268 -0.9451 0.9451 0.3268 392.934 1116.2683)" fill="#FFFFFF" stroke="#000000" stroke-width="0.75" stroke-miterlimit="10" cx="980" cy="282.3" rx="2.5" ry="1.2"/>
	
		<ellipse transform="matrix(0.3268 -0.9451 0.9451 0.3268 398.0625 1133.7073)" fill="#FFFFFF" stroke="#000000" stroke-width="0.75" stroke-miterlimit="10" cx="994.8" cy="287.4" rx="2.5" ry="1.2"/>
	<circle fill="#FFFFFF" stroke="#000000" stroke-width="0.75" stroke-miterlimit="10" cx="990.9" cy="274.6" r="1.1"/>
	<path fill="#FFFFFF" stroke="#000000" stroke-width="0.75" stroke-miterlimit="10" d="M990,292.4l-9.2-3.2
		c-1.6-0.5-2.4-2.3-1.9-3.8l2.2-6.4c0.5-1.6,2.3-2.4,3.8-1.9l9.2,3.2c1.6,0.5,2.4,2.3,1.9,3.8l-2.2,6.4
		C993.2,292.1,991.5,293,990,292.4z"/>
	<path stroke="#000000" stroke-width="0.75" stroke-miterlimit="10" d="M991,286.3c0.1,0,0.2,0,0.2-0.1s0-0.2-0.1-0.2
		c-0.1,0-0.2,0-0.2,0.1C990.9,286.2,990.9,286.3,991,286.3z"/>
	<path stroke="#000000" stroke-width="0.75" stroke-miterlimit="10" d="M990.2,286.7c0.1,0,0.2,0,0.2-0.1c0-0.1,0-0.2-0.1-0.2
		s-0.2,0-0.2,0.1C990.1,286.6,990.1,286.7,990.2,286.7z"/>
	<path stroke="#000000" stroke-width="0.75" stroke-miterlimit="10" d="M992.2,286.7c0.1,0,0.2,0,0.2-0.1c0-0.1,0-0.2-0.1-0.2
		s-0.2,0-0.2,0.1S992.2,286.7,992.2,286.7z"/>
	<path stroke="#000000" stroke-width="0.75" stroke-miterlimit="10" d="M990.6,287.5c0.1,0,0.2,0,0.2-0.1s0-0.2-0.1-0.2
		c-0.1,0-0.2,0-0.2,0.1C990.5,287.4,990.5,287.5,990.6,287.5z"/>
	<path stroke="#000000" stroke-width="0.75" stroke-miterlimit="10" d="M991.8,288c0.1,0,0.2,0,0.2-0.1c0-0.1,0-0.2-0.1-0.2
		s-0.2,0-0.2,0.1C991.7,287.9,991.7,287.9,991.8,288z"/>
	<path stroke="#000000" stroke-width="0.75" stroke-miterlimit="10" d="M991.4,287.1c0.1,0,0.2,0,0.2-0.1c0-0.1,0-0.2-0.1-0.2
		c-0.1,0-0.2,0-0.2,0.1C991.3,287,991.4,287.1,991.4,287.1z"/>
	<path stroke="#000000" stroke-width="0.75" stroke-miterlimit="10" d="M992.7,287.6c0.1,0,0.2,0,0.2-0.1c0-0.1,0-0.2-0.1-0.2
		c-0.1,0-0.2,0-0.2,0.1C992.6,287.4,992.6,287.5,992.7,287.6z"/>
	<path stroke="#000000" stroke-width="0.75" stroke-miterlimit="10" d="M982.3,283.3c0.1,0,0.2,0,0.2-0.1c0-0.1,0-0.2-0.1-0.2
		c-0.1,0-0.2,0-0.2,0.1S982.2,283.3,982.3,283.3z"/>
	<path stroke="#000000" stroke-width="0.75" stroke-miterlimit="10" d="M981.5,283.7c0.1,0,0.2,0,0.2-0.1c0-0.1,0-0.2-0.1-0.2
		s-0.2,0-0.2,0.1S981.4,283.6,981.5,283.7z"/>
	<path stroke="#000000" stroke-width="0.75" stroke-miterlimit="10" d="M983.5,283.7c0.1,0,0.2,0,0.2-0.1c0-0.1,0-0.2-0.1-0.2
		c-0.1,0-0.2,0-0.2,0.1C983.4,283.6,983.4,283.7,983.5,283.7z"/>
	<path stroke="#000000" stroke-width="0.75" stroke-miterlimit="10" d="M981.9,284.5c0.1,0,0.2,0,0.2-0.1c0-0.1,0-0.2-0.1-0.2
		c-0.1,0-0.2,0-0.2,0.1S981.8,284.5,981.9,284.5z"/>
	<path stroke="#000000" stroke-width="0.75" stroke-miterlimit="10" d="M983.1,285c0.1,0,0.2,0,0.2-0.1c0-0.1,0-0.2-0.1-0.2
		c-0.1,0-0.2,0-0.2,0.1S983,284.9,983.1,285z"/>
	<path stroke="#000000" stroke-width="0.75" stroke-miterlimit="10" d="M982.7,284.1c0.1,0,0.2,0,0.2-0.1c0-0.1,0-0.2-0.1-0.2
		c-0.1,0-0.2,0-0.2,0.1C982.6,284,982.6,284.1,982.7,284.1z"/>
	<path stroke="#000000" stroke-width="0.75" stroke-miterlimit="10" d="M984,284.5c0.1,0,0.2,0,0.2-0.1c0-0.1,0-0.2-0.1-0.2
		c-0.1,0-0.2,0-0.2,0.1C983.9,284.4,983.9,284.5,984,284.5z"/>
	<path fill="none" stroke="#86ED18" stroke-width="0.75" stroke-linejoin="round" stroke-miterlimit="10" d="M985.5,285
		c-0.4,1,0.2,2.1,1.2,2.5c1,0.3,2.1-0.2,2.5-1.2"/>
	<path fill="none" stroke="#000000" stroke-width="0.75" stroke-miterlimit="10" d="M990.2,284.2c0.3,0.1,0.6-0.1,0.7-0.3
		c0.1-0.3-0.1-0.6-0.3-0.7c-0.3-0.1-0.6,0.1-0.7,0.3C989.8,283.8,989.9,284.1,990.2,284.2z"/>
	<path fill="none" stroke="#000000" stroke-width="0.75" stroke-miterlimit="10" d="M985.9,282.7c0.3,0.1,0.6-0.1,0.7-0.3
		s-0.1-0.6-0.3-0.7c-0.3-0.1-0.6,0.1-0.7,0.3C985.4,282.3,985.6,282.6,985.9,282.7z"/>
	
		<rect id="Hals_2_" x="982.9" y="290.8" transform="matrix(0.9451 0.3268 -0.3268 0.9451 149.3999 -305.8898)" fill="#FFFFFF" stroke="#000000" stroke-width="0.75" stroke-miterlimit="10" width="4.2" height="1.6"/>
	<path stroke="#000000" stroke-width="0.75" stroke-miterlimit="10" d="M975.8,293.5c0,0-4.9-3.3-4-9.2l2.1,0.3c0,0,0.1,4,2.9,6.7
		L975.8,293.5z"/>
	<path fill="#FFFFFF" stroke="#000000" stroke-width="0.75" stroke-miterlimit="10" d="M973.5,280.5l-0.2,0
		c-0.7-0.1-1.4,0.4-1.5,1.1l-0.3,2c-0.1,0.7,0.4,1.4,1.1,1.5l0.2,0c0.7,0.1,1.4-0.4,1.5-1.1l0.3-2
		C974.8,281.3,974.2,280.6,973.5,280.5z"/>
	<path fill="#FFFFFF" stroke="#000000" stroke-width="0.75" stroke-miterlimit="10" d="M973.2,282.2c-1.6-0.2-2.8-1.7-2.5-3.4
		c0.2-1.5,1.5-2.5,2.9-2.6l-0.2,1.4c-0.6,0.1-1.1,0.6-1.2,1.2c-0.1,0.8,0.4,1.5,1.2,1.6s1.5-0.4,1.6-1.2c0.1-0.6-0.3-1.2-0.8-1.5
		l0.2-1.4c1.4,0.4,2.3,1.8,2.1,3.3C976.3,281.3,974.8,282.5,973.2,282.2z"/>
	<circle fill="#FFFFFF" stroke="#000000" stroke-width="0.75" stroke-miterlimit="10" cx="973.2" cy="281.9" r="1.8"/>
	<polygon points="973.1,282.7 972.4,282.2 972.5,281.3 973.3,281 974,281.5 973.9,282.4 	"/>
	<path stroke="#000000" stroke-width="0.75" stroke-miterlimit="10" d="M991.6,297.1c0,0,4.1,4.1,2.2,9.8l-2-0.7c0,0,1.2-3.6-1-6.7
		L991.6,297.1z"/>
	<path fill="#FFFFFF" stroke="#000000" stroke-width="0.75" stroke-miterlimit="10" d="M991.4,310.3l0.2,0.1
		c0.7,0.2,1.5-0.1,1.7-0.8l0.6-1.9c0.2-0.7-0.1-1.5-0.8-1.7l-0.2-0.1c-0.7-0.2-1.5,0.1-1.7,0.8l-0.6,1.9
		C990.3,309.3,990.7,310.1,991.4,310.3z"/>
	<path fill="#FFFFFF" stroke="#000000" stroke-width="0.75" stroke-miterlimit="10" d="M992,308.6c1.5,0.5,2.4,2.2,1.8,3.8
		c-0.5,1.4-1.9,2.2-3.3,1.9l0.5-1.3c0.6,0,1.2-0.4,1.4-1c0.3-0.8-0.1-1.6-0.9-1.8c-0.8-0.3-1.6,0.1-1.8,0.9c-0.2,0.6,0,1.3,0.5,1.6
		l-0.5,1.3c-1.3-0.7-1.9-2.2-1.4-3.6C988.7,308.9,990.4,308.1,992,308.6z"/>
	<circle fill="#FFFFFF" stroke="#000000" stroke-width="0.75" stroke-miterlimit="10" cx="991.9" cy="309" r="1.8"/>
	<polygon points="992.2,308.2 992.8,308.9 992.5,309.7 991.6,309.8 991.1,309.2 991.4,308.4 	"/>
	<polygon fill="#FFFFFF" stroke="#000000" stroke-width="0.75" stroke-miterlimit="10" points="974.2,306.8 972.7,309.8 
		975.2,310.6 976.9,307.7 	"/>
	<path fill="#FFFFFF" stroke="#000000" stroke-width="0.75" stroke-miterlimit="10" d="M983.9,310.1l-9.5-3.3
		c-1.6-0.5-2.4-2.3-1.9-3.8l3.6-10.4c0.5-1.6,2.3-2.4,3.8-1.9l9.5,3.3c1.6,0.5,2.4,2.3,1.9,3.8l-3.6,10.4
		C987.2,309.8,985.4,310.7,983.9,310.1z"/>
	<path fill="#FFFFFF" stroke="#000000" stroke-width="0.75" stroke-miterlimit="10" d="M983.3,308l-7-2.4c-1-0.4-1.6-1.5-1.2-2.5
		l2.6-7.6c0.4-1,1.5-1.6,2.5-1.2l7,2.4c1,0.4,1.6,1.5,1.2,2.5l-2.6,7.6C985.5,307.8,984.4,308.3,983.3,308z"/>
	<circle cx="980.1" cy="293" r="0.3"/>
	<circle cx="981" cy="293.3" r="0.3"/>
	<circle cx="981.8" cy="293.6" r="0.3"/>
	<path stroke="#FFFFFF" stroke-width="0.75" stroke-miterlimit="10" d="M982.1,307.1l-4.2-1.5c-1.6-0.5-2.4-2.3-1.9-3.8l1.7-5
		c0.5-1.6,2.3-2.4,3.8-1.9l4.2,1.5c1.6,0.5,2.4,2.3,1.9,3.8l-1.7,5C985.4,306.8,983.7,307.6,982.1,307.1z"/>
	<path fill="#FFFFFF" d="M978.8,300.1c-0.6,1.7,0.3,3.5,2,4.1c0.2,0.1,0.5,0.1,0.7,0.2l0.6-1.7c-0.2,0-0.5,0-0.8-0.1
		c-0.8-0.3-1.2-1.1-0.9-1.9c0.3-0.8,1.1-1.2,1.9-0.9c0.3,0.1,0.5,0.2,0.6,0.4l0.6-1.7c-0.2-0.1-0.4-0.2-0.7-0.3
		C981.2,297.5,979.4,298.4,978.8,300.1z M984.2,298.9l-1.9,5.4c1.1-0.2,2.1-1,2.5-2.1C985.3,301,985,299.8,984.2,298.9L984.2,298.9z
		"/>
</g>
<g id="Ebene_6">
	<g id="Ebene_8">
		<path fill="#FD9814" d="M1069.5,304.2l-9.1,23.4c0,0,20.6,14.2,30.1,11.8c-3.6-4.5-3.9-7.7-3.9-7.7s18,3.2,20.9-0.3
			c2.9-3.5-15.8-14.7-15.8-14.7l9.4-2.5C1101.1,314.2,1083.9,302.9,1069.5,304.2z"/>
		<path fill="#FFC102" d="M1070.3,306.7l-7.4,18.9c0,0,16.7,11.5,24.4,9.5c-2.9-3.6-3.2-6.2-3.2-6.2s14.6,2.6,16.9-0.2
			c2.4-2.8-12.8-11.9-12.8-11.9l7.6-2C1095.9,314.8,1082,305.7,1070.3,306.7z"/>
		<path fill="#FBE900" d="M1071.1,310.5l-5.1,13c0,0,11.4,7.9,16.7,6.5c-2-2.5-2.2-4.3-2.2-4.3s10,1.8,11.6-0.2s-8.8-8.1-8.8-8.1
			l5.2-1.4C1088.6,316.1,1079.1,309.8,1071.1,310.5z"/>
	</g>
	
		<image display="none" overflow="visible" width="900" height="580" xlink:href="C1002108.jpg"  transform="matrix(0.3448 0 0 0.3448 137.2414 253)">
	</image>
	<linearGradient id="SVGID_1_" gradientUnits="userSpaceOnUse" x1="892.5556" y1="283.2865" x2="1070.4492" y2="283.2865">
		<stop  offset="0.6546" style="stop-color:#FFFFFF"/>
		<stop  offset="1" style="stop-color:#F2F2F2"/>
	</linearGradient>
	<path fill="url(#SVGID_1_)" stroke="#000000" stroke-width="3" stroke-miterlimit="10" d="M1070,300.9l-100.5-57.2
		c0,0-53.6-19.8-74.8,0c-11,10.3,23.5,48.4,62.4,61.6c11,3.7,103.5,26.4,103.5,26.4S1072.9,317.8,1070,300.9z M1001,287.5
		c-2.1,7.6-11.2,11.8-20.5,9.3c-9.3-2.5-15.1-10.7-13.1-18.3c2.1-7.6,11.2-11.8,20.5-9.3C997.2,271.6,1003.1,279.8,1001,287.5z"/>
	<path fill="#86ED18" d="M954.6,242.2c-17.1-4.6-47.9-10.2-62.9,3.7c-8.7,8.1,11.1,33.8,39.1,50.7
		C947.8,285.1,957.4,254.3,954.6,242.2z"/>
	<polygon fill="#FFFFFF" points="944.6,245.8 945.1,250.9 949.7,253.6 944.8,255.4 943.7,260.3 940.2,256.3 934.9,256.6 
		937.6,252.3 935.4,247.6 940.6,249 	"/>
	<polygon fill="#86ED18" points="811.7,110 812.2,115.7 817.4,118.7 811.9,120.6 810.7,126.1 806.8,121.6 800.9,122 804,117.3 
		801.5,112 807.3,113.6 	"/>
	<polygon fill="none" stroke="#000000" stroke-width="2" stroke-miterlimit="10" points="809.9,110.7 810.4,116.6 815.9,119.8 
		810.1,121.8 808.8,127.6 804.7,122.9 798.5,123.2 801.7,118.3 799.1,112.8 805.2,114.4 	"/>
	<polygon fill="#86ED18" points="656.8,45.1 659.2,47.8 663,47.4 660.9,50.5 662.4,53.8 658.7,53 655.7,55.4 655.5,51.8 652.2,50 
		655.9,48.6 	"/>
	<polygon fill="none" stroke="#000000" stroke-width="2" stroke-miterlimit="10" points="656.1,46.1 658.6,49 662.7,48.6 
		660.4,51.8 662,55.3 658,54.4 654.9,57 654.8,53.2 651.3,51.3 655.1,49.8 	"/>
	<polygon fill="#FFFFFF" points="908.1,253.1 906,256.2 907.4,260.2 903.8,258.6 900.8,260.9 900.7,256.8 897.5,254.2 901.1,253.2 
		902.1,249.4 904.4,252.9 	"/>
	<polygon fill="#FFFFFF" points="935.9,260.1 937.3,262.4 940.2,262.6 938.2,264.6 938.9,267.2 936.3,266.1 933.8,267.5 
		934.1,264.9 932,263.2 934.8,262.6 	"/>
	<linearGradient id="SVGID_2_" gradientUnits="userSpaceOnUse" x1="1013.6525" y1="330.9622" x2="1065.4562" y2="330.9622">
		<stop  offset="0.6546" style="stop-color:#FFFFFF"/>
		<stop  offset="1" style="stop-color:#F2F2F2"/>
	</linearGradient>
	
		<path fill="url(#SVGID_2_)" stroke="#000000" stroke-width="2" stroke-linecap="round" stroke-linejoin="round" stroke-miterlimit="10" d="
		M1013.7,312.6l48.4,16.3l3.4,20.4C1065.5,349.3,1032.1,331.6,1013.7,312.6z"/>
	<linearGradient id="SVGID_3_" gradientUnits="userSpaceOnUse" x1="1011.2213" y1="332.8215" x2="1065.4562" y2="332.8215">
		<stop  offset="0.6546" style="stop-color:#FFFFFF"/>
		<stop  offset="1" style="stop-color:#F2F2F2"/>
	</linearGradient>
	
		<path fill="url(#SVGID_3_)" stroke="#000000" stroke-width="2" stroke-linecap="round" stroke-linejoin="round" stroke-miterlimit="10" d="
		M1065.5,349.3c0,0-2.7,3.7-5.6,3.7s-38.4-22.4-48.6-37c1.9-2.9,2.4-3.4,2.4-3.4S1036.8,334.2,1065.5,349.3z"/>
	<polygon fill="#86ED18" points="835.3,533.6 835.8,539.3 841,542.3 835.5,544.2 834.3,549.7 830.4,545.2 824.5,545.5 827.6,540.9 
		825.1,535.6 830.9,537.2 	"/>
	<polygon fill="none" stroke="#000000" stroke-width="2" stroke-miterlimit="10" points="833.5,534.2 834,540.2 839.5,543.4 
		833.7,545.4 832.4,551.2 828.3,546.5 822.1,546.8 825.3,541.9 822.7,536.3 828.8,538 	"/>
</g>
<g id="Ebene_16">
	<path fill="#FFFFFF" d="M722,198.2c-5.9,0-9.4,2.7-11,4.5c-0.2-1.6-1.2-3.6-5.3-3.6h-8.9v9.3h3.6c0.6,0,0.8,0.2,0.8,0.8v42.3h10.5
		v-15.8v-1.2c1.6,1.5,4.8,3.6,9.7,3.6c10.3,0,17.5-8.2,17.5-19.9C739,206.2,732.2,198.2,722,198.2 M719.9,228.8
		c-5.7,0-8.3-5.4-8.3-10.5c0-8,4.3-10.8,8.4-10.8c5,0,8.4,4.3,8.4,10.7C728.4,225.5,724.1,228.8,719.9,228.8"/>
	<path fill="#03363D" d="M105.1,122.3v33H77.8L105.1,122.3z M105.1,110.4c0,7.6-6.1,13.7-13.7,13.7c-7.6,0-13.7-6.1-13.7-13.7H105.1
		z M109.6,155.3c0-7.6,6.1-13.7,13.7-13.7c7.6,0,13.7,6.1,13.7,13.7H109.6z M109.6,143.4v-33H137L109.6,143.4L109.6,143.4z"/>
	<path fill="#25C16F" d="M1111.9,436.5h32.3c5.9,0,10.8,4.7,10.8,10.7c0,0.1,0,0.1,0,0.2v32.3c0,23.7-19.2,42.8-42.8,42.8h-0.2
		c-23.6,0-42.8-19.1-42.9-42.8c0,0,0,0,0,0C1069.1,455.9,1088.2,436.8,1111.9,436.5z"/>
	<path fill="#FFFFFF" d="M1111.9,455.7c-10.9,0-19.7,8.8-19.7,19.7v13.4c0.1,3.6,3,6.5,6.5,6.5h5.6v-15.4h-7.5v-4.3
		c0.5-8.1,7.2-14.4,15.3-14.4s14.8,6.3,15.2,14.4v4.3h-7.6v15.4h5v0.2c-0.1,3.3-2.7,6-6,6h-6c-0.5,0-1,0.2-1,0.7c0,0.6,0.5,1,1,1h6
		c4.3,0,7.8-3.5,7.8-7.8V495c3-0.7,5.1-3.3,5-6.3v-13.1C1131.8,464.5,1123,455.7,1111.9,455.7L1111.9,455.7z"/>
	<g id="Ebene_17">
		<polygon fill="#E8762C" points="352,524.3 343.7,524.3 343.7,515.3 340.5,515.3 340.5,524.3 332.2,524.3 332.2,527.5 340.5,527.5 
			340.5,536.5 343.7,536.5 343.7,527.5 352,527.5 		"/>
		<polygon fill="#C62036" points="335.3,539 327.9,539 327.9,530.9 325.1,530.9 325.1,539 317.7,539 317.7,541.5 325.1,541.5 
			325.1,549.5 327.9,549.5 327.9,541.5 335.3,541.5 		"/>
		<polygon fill="#5A869A" points="366.5,510.2 359.1,510.2 359.1,502 356.3,502 356.3,510.2 348.8,510.2 348.8,512.6 356.3,512.6 
			356.3,520.6 359.1,520.6 359.1,512.6 366.5,512.6 		"/>
		<polygon fill="#5C6691" points="348.4,548 343.3,548 343.3,542.3 340.9,542.3 340.9,548 335.9,548 335.9,550.1 340.9,550.1 
			340.9,555.8 343.3,555.8 343.3,550.1 348.4,550.1 		"/>
		<polygon fill="#EB9028" points="335.3,510.2 327.8,510.2 327.8,502 325.2,502 325.2,510.2 317.7,510.2 317.7,512.5 325.2,512.5 
			325.2,520.6 327.8,520.6 327.8,512.5 335.3,512.5 		"/>
		<polygon fill="#5C6691" points="372.2,524.8 367.2,524.8 367.2,519.2 364.8,519.2 364.8,524.8 359.7,524.8 359.7,527 364.8,527 
			364.8,532.6 367.2,532.6 367.2,527 372.2,527 		"/>
		<polygon fill-rule="evenodd" clip-rule="evenodd" fill="#1E457E" points="366.5,539 359.1,539 359.1,530.9 356.3,530.9 356.3,539 
			348.8,539 348.8,541.5 356.3,541.5 356.3,549.5 359.1,549.5 359.1,541.5 366.5,541.5 		"/>
		<polygon fill="#7098A4" points="341.2,496.3 341.2,501.8 336.3,501.8 336.3,503.5 341.2,503.5 341.2,509 343,509 343,503.5 
			348,503.5 348,501.8 343,501.8 343,496.3 		"/>
		<polygon fill="#7098A4" points="323.7,525 318.7,525 318.7,519.6 316.9,519.6 316.9,525 311.9,525 311.9,526.8 316.9,526.7 
			316.9,532.2 318.7,532.2 318.7,526.7 323.7,526.7 		"/>
		<g transform="matrix(1.3333 0 0 -1.3333 0 100.08)">
			<g transform="matrix(.29378 0 0 .29378 0 .042373)">
				<g transform="translate(740.38 200.84)">
					<path fill="#E79224" d="M510.2-146.1l0.3-46l-6.3-6.2l-0.3,45L510.2-146.1"/>
				</g>
				
					<linearGradient id="SVGID_4_" gradientUnits="userSpaceOnUse" x1="12.4014" y1="-1859.943" x2="12.6634" y2="-1859.943" gradientTransform="matrix(0.4707 -64.3541 -64.3541 -0.4707 -118477.4063 -30.7049)">
					<stop  offset="0" style="stop-color:#FFE500"/>
					<stop  offset="1" style="stop-color:#FCB822"/>
				</linearGradient>
				<path fill="url(#SVGID_4_)" d="M1244.4,47.4l-42.1-0.3l0.3-45l42.1,0.3L1244.4,47.4z"/>
				<g transform="translate(581.1 200.72)">
					<path fill="#FEF26F" d="M627.7-146.4l-6.5-7.2l42.1,0.3l6.2,7.3L627.7-146.4"/>
				</g>
				<g transform="translate(382.23 193.19)">
					<path fill="#91C9ED" d="M774.5-141.2l41.3,6.1l-3.4-9.9l-39.2-6.5l0.1,7.1L774.5-141.2"/>
				</g>
				
					<linearGradient id="SVGID_5_" gradientUnits="userSpaceOnUse" x1="14.8113" y1="-1850.8635" x2="15.0733" y2="-1850.8635" gradientTransform="matrix(63.4634 -50.2071 -50.2071 -63.4634 -92710.1719 -116676.9063)">
					<stop  offset="0" style="stop-color:#168CCC"/>
					<stop  offset="1" style="stop-color:#00649E"/>
				</linearGradient>
				<path fill="url(#SVGID_5_)" d="M1194.7,48.1l6-40.3l-40.8-6l-5.8,39l2.4,1.9L1194.7,48.1"/>
				<g transform="translate(540.18 215.15)">
					<path fill="#0B9AD6" d="M657.9-157.1l0-0.2l5.7-41.3l-3.1-8.7l-6,40.3"/>
				</g>
				<g>
					<defs>
						<polyline id="SVGID_6_" points="1121.8,55.2 1158.5,38.9 1142.3,1.3 1105.5,17.6 1121.8,55.2 						"/>
					</defs>
					<clipPath id="SVGID_7_">
						<use xlink:href="#SVGID_6_"  overflow="visible"/>
					</clipPath>
					<g clip-path="url(#SVGID_7_)">
						
							<linearGradient id="SVGID_8_" gradientUnits="userSpaceOnUse" x1="13.5078" y1="-1866.1825" x2="13.7697" y2="-1866.1825" gradientTransform="matrix(0.4124 -56.3793 -56.3793 -0.4124 -104066.0156 32.4395)">
							<stop  offset="0" style="stop-color:#25A149"/>
							<stop  offset="1" style="stop-color:#008A52"/>
						</linearGradient>
						<path fill="url(#SVGID_8_)" d="M1056.5,67.6l193.9,1.4l0.5-66.9L1057,0.7L1056.5,67.6z"/>
					</g>
				</g>
				<g transform="translate(234.31 255.36)">
					<path fill="#98D0A0" d="M883.6-187.3l3.9-12.8l36.7-16.3l-3.2,12.2L883.6-187.3"/>
				</g>
				<g transform="translate(234.31 255.36)">
					<path fill="#68BF6B" d="M883.6-187.3l-14.5-35.1l2.1-15.4l16.3,37.6L883.6-187.3"/>
				</g>
				
					<linearGradient id="SVGID_9_" gradientUnits="userSpaceOnUse" x1="15.7395" y1="-1865.6956" x2="16.0015" y2="-1865.6956" gradientTransform="matrix(10.1239 -58.4627 -58.4627 -10.1239 -108155.7188 -17924.4355)">
					<stop  offset="0" style="stop-color:#D92231"/>
					<stop  offset="1" style="stop-color:#BA2234"/>
				</linearGradient>
				<path fill="url(#SVGID_9_)" d="M1097.6,47.5l6.3-39.7l-40.4-6.6l-6.8,39.7L1097.6,47.5"/>
				<g transform="translate(0 153.57)">
					<path fill="#EF463D" d="M1056.7-112.7l2.7,14.2l40.8,6.9l-2.7-14.5L1056.7-112.7"/>
				</g>
				<g transform="translate(166.88 232.7)">
					<path fill="#761116" d="M933.4-170.7l6.3-40l-2.6-14.1l-6.3,39.7L933.4-170.7"/>
				</g>
				<g transform="translate(500.47 147.76)">
					<path fill="#FFFFFF" d="M687.4-107.4c-0.2,1.3-0.6,2.2-1.3,2.8c-0.6,0.5-1.3,0.7-2,0.7c-0.2,0-0.4,0-0.6-0.1
						c-1.1-0.2-1.9-0.7-2.4-1.5c-0.4-0.6-0.5-1.3-0.5-2.1c0-0.3,0-0.6,0.1-1l1.6-10.5l-11.7-1.8l-1.6,10.5c-0.2,1.2-0.6,2.2-1.3,2.8
						c-0.6,0.5-1.2,0.8-2,0.8c-0.2,0-0.4,0-0.6,0c-1.1-0.2-1.9-0.7-2.4-1.5c-0.4-0.6-0.5-1.3-0.5-2.1c0-0.3,0-0.7,0.1-1l4.2-27.3
						c0.2-1.3,0.6-2.2,1.4-2.8c0.6-0.5,1.3-0.7,2.1-0.7c0.2,0,0.5,0,0.7,0.1c1,0.2,1.8,0.6,2.2,1.5c0.3,0.6,0.5,1.3,0.5,2.1
						c0,0.3,0,0.6-0.1,1l-1.7,10.8l11.7,1.8l1.7-10.8c0.2-1.2,0.6-2.2,1.3-2.8c0.6-0.5,1.3-0.7,2.1-0.7c0.2,0,0.4,0,0.6,0.1
						c1.1,0.2,1.9,0.7,2.3,1.5c0.3,0.6,0.5,1.3,0.5,2.1c0,0.3,0,0.7-0.1,1L687.4-107.4z M639.8-122.9c-1.4-3.3-3.2-5.5-5.4-6.8
						c-1.2-0.7-2.4-1-3.7-1c-1.1,0-2.3,0.2-3.4,0.7c-2.6,1.1-4.2,2.8-4.9,5.3c-0.2,0.8-0.4,1.7-0.4,2.6c0,1.8,0.4,3.8,1.3,6
						c1.4,3.3,3.2,5.6,5.5,6.9c1.2,0.7,2.4,1,3.7,1c1.1,0,2.3-0.2,3.5-0.7c2.6-1.1,4.1-2.8,4.8-5.3c0.2-0.8,0.3-1.7,0.4-2.6
						C641.1-118.6,640.7-120.6,639.8-122.9z M643.7-106.5c-1.5,1.5-3.2,2.7-5.3,3.5c-2,0.8-4.1,1.3-6.2,1.3l-0.1,0
						c-2.1,0-4.2-0.5-6.2-1.4v0c-2.1-1-4-2.3-5.6-4c-1.6-1.7-2.9-3.7-3.8-6.1c-1-2.3-1.5-4.7-1.6-7c0-0.3,0-0.5,0-0.8
						c0-2.1,0.4-4.1,1.1-6c0.8-2.1,1.9-3.9,3.3-5.4c1.5-1.5,3.3-2.7,5.4-3.6v0c2-0.8,4.1-1.3,6.2-1.2l0.1,0c2.1,0,4.2,0.5,6.2,1.4
						l0,0l0,0c2.2,1,4,2.3,5.6,4c1.6,1.7,2.9,3.7,3.9,6.1c1,2.3,1.5,4.7,1.6,7c0,0.2,0,0.4,0,0.7c0,2.1-0.4,4.1-1.1,6.1
						C646.2-109.8,645.1-108,643.7-106.5z M593-133.7c-0.3,0.4-0.8,0.7-1.3,0.8c-0.5,0.2-1.2,0.3-2,0.3c-0.7,0-1.5-0.1-2.5-0.3
						l-10.7-1.9c0.1,0.8,0.5,1.9,1.2,3.2c0.8,1.5,2,3.3,3.5,5.3l0,0c0.5,0.7,0.9,1.3,1.2,1.7c0.2,0.3,0.5,0.6,0.8,1.1
						c2.4,3.2,3.9,5.8,4.5,7.9c0.3,1.2,0.5,2.3,0.6,3.5c0,0.3,0,0.6,0,1c0,0.8-0.1,1.7-0.2,2.5c-0.1,0.7-0.3,1.4-0.6,1.9
						c-0.2,0.5-0.6,0.9-1,1.1c-0.4,0.3-1.1,0.4-1.9,0.4c-0.7,0-1.5-0.1-2.4-0.3l-12.3-2.2c-1.5-0.3-2.6-0.7-3.3-1.4
						c-0.6-0.5-0.8-1.2-0.8-2c0-0.2,0-0.4,0.1-0.6c0.2-1,0.7-1.8,1.6-2.2c0.5-0.2,1.2-0.3,1.9-0.3c0.5,0,1,0.1,1.6,0.2l10.3,1.8
						c0-0.2,0-0.4,0-0.5c0-0.6-0.1-1.3-0.3-1.9c-0.3-0.9-1.1-2.1-2.3-3.6c-0.3-0.4-0.9-1.1-1.6-2c-2.8-3.4-4.7-6.3-5.9-8.7
						c0,0,0,0,0,0c0,0,0,0,0,0c-0.8-1.7-1.4-3.3-1.7-4.9c-0.2-0.9-0.3-1.8-0.3-2.7c0-0.6,0.1-1.2,0.2-1.8c0.1-0.8,0.4-1.5,0.6-2
						c0.3-0.5,0.6-0.9,1.1-1.2c0.4-0.2,1-0.3,1.8-0.3c1,0,2.4,0.2,4.2,0.5l11.2,2c2,0.4,3.4,0.8,4.2,1.5c0.6,0.5,1,1.3,1,2.1
						c0,0.2,0,0.4-0.1,0.7C593.6-134.6,593.4-134.1,593-133.7L593-133.7z M583.5-123.4L583.5-123.4
						C583.5-123.4,583.5-123.4,583.5-123.4L583.5-123.4L583.5-123.4z M729.1-131.5c-1.6-2-3.8-2.9-6.6-3c-2.8,0-5,0.9-6.6,2.9
						c-1.6,1.9-2.5,4.6-2.5,8c0,3.5,0.8,6.2,2.4,8.2c1.6,2,3.8,3,6.6,3c2.8,0,5-0.9,6.6-2.9c1.6-1.9,2.5-4.6,2.5-8.1
						C731.5-126.8,730.7-129.5,729.1-131.5z M737.6-116.6c-0.8,2.1-2.1,4-3.7,5.6c-1.6,1.6-3.3,2.8-5.3,3.6c-1.9,0.8-4,1.2-6.3,1.2
						c-2.3,0-4.4-0.4-6.3-1.3c-1.9-0.8-3.7-2-5.2-3.6c-1.6-1.6-2.8-3.5-3.6-5.6c-0.8-2.1-1.2-4.4-1.2-6.9c0-2.4,0.4-4.7,1.3-6.8
						c0.8-2.1,2.1-4,3.7-5.6c1.5-1.6,3.3-2.7,5.2-3.5c2-0.8,4.1-1.2,6.4-1.1c2.2,0,4.3,0.4,6.3,1.2c1.9,0.8,3.7,2,5.2,3.6
						c1.6,1.7,2.8,3.6,3.7,5.7c0.8,2.1,1.2,4.4,1.2,6.8S738.4-118.7,737.6-116.6"/>
				</g>
			</g>
		</g>
	</g>
	<g id="Ebene_18">
	</g>
	<g id="Ebene_19">
		<g>
			<path fill="#FF7A59" d="M1067.4,522.8v-8.9c2.4-1.1,3.9-3.5,4-6.2v-0.2c0-3.8-3.1-6.9-6.9-6.9h-0.2c-3.8,0-6.9,3.1-6.9,6.9
				c0,0,0,0,0,0v0.2c0,2.7,1.6,5.1,4,6.2v8.9c-3.4,0.5-6.6,1.9-9.2,4.1l-24.4-19c0.2-0.6,0.3-1.3,0.3-1.9c0-4.3-3.4-7.7-7.7-7.7
				c-4.3,0-7.7,3.4-7.7,7.7c0,4.3,3.4,7.7,7.7,7.7c0,0,0,0,0,0c1.3,0,2.7-0.4,3.8-1l24.1,18.7c-4.4,6.7-4.3,15.4,0.3,22l-7.3,7.3
				c-0.6-0.2-1.2-0.3-1.8-0.3c-3.5,0-6.3,2.8-6.3,6.4c0,3.5,2.8,6.3,6.4,6.3c3.5,0,6.3-2.8,6.3-6.3c0-0.6-0.1-1.2-0.3-1.8l7.2-7.2
				c8.5,6.6,20.8,5,27.4-3.6c6.6-8.5,5-20.8-3.6-27.4C1073.8,524.7,1070.7,523.3,1067.4,522.8 M1064.4,552.2
				c-5.5,0.2-10.1-4.2-10.3-9.7c-0.2-5.5,4.2-10.1,9.7-10.3c0.2,0,0.4,0,0.6,0c5.5,0.2,9.9,4.8,9.7,10.4
				C1073.9,547.7,1069.7,552,1064.4,552.2"/>
		</g>
	</g>
	<g id="Ebene_20">
		<g>
			<path fill="#00A1E0" d="M114,471.8c2.8-2.9,6.7-4.7,11-4.7c5.7,0,10.7,3.2,13.3,7.9c2.3-1,4.9-1.6,7.5-1.6
				c10.3,0,18.6,8.4,18.6,18.8c0,10.4-8.3,18.8-18.6,18.8c-1.3,0-2.5-0.1-3.7-0.4c-2.3,4.2-6.8,7-11.9,7c-2.1,0-4.2-0.5-6-1.4
				c-2.4,5.6-7.9,9.5-14.3,9.5c-6.7,0-12.4-4.2-14.6-10.2c-1,0.2-1.9,0.3-3,0.3c-8,0-14.4-6.5-14.4-14.6c0-5.4,2.9-10.1,7.2-12.6
				c-0.9-2-1.4-4.3-1.4-6.7c0-9.3,7.5-16.8,16.8-16.8C106.1,465.2,110.9,467.8,114,471.8"/>
			<path fill="#FFFFFF" d="M90.5,496.6c-0.1,0.1,0,0.2,0,0.2c0.2,0.1,0.3,0.2,0.5,0.3c0.9,0.5,1.7,0.6,2.6,0.6
				c1.8,0,2.9-0.9,2.9-2.5v0c0-1.4-1.2-1.9-2.4-2.3l-0.2,0c-0.9-0.3-1.6-0.5-1.6-1.1v0c0-0.5,0.4-0.9,1.1-0.9c0.8,0,1.7,0.3,2.3,0.6
				c0,0,0.2,0.1,0.2-0.1c0-0.1,0.3-0.9,0.4-1c0-0.1,0-0.2-0.1-0.2c-0.7-0.4-1.6-0.7-2.5-0.7l-0.2,0c-1.6,0-2.8,1-2.8,2.4v0
				c0,1.5,1.2,2,2.4,2.3l0.2,0.1c0.9,0.3,1.6,0.5,1.6,1.1v0c0,0.5-0.5,1-1.2,1c-0.3,0-1.3,0-2.3-0.7c-0.1-0.1-0.2-0.1-0.3-0.2
				c-0.1,0-0.2-0.1-0.2,0.1L90.5,496.6L90.5,496.6z"/>
			<path fill="#FFFFFF" d="M116.5,496.6c-0.1,0.1,0,0.2,0,0.2c0.2,0.1,0.3,0.2,0.5,0.3c0.9,0.5,1.7,0.6,2.6,0.6
				c1.8,0,2.9-0.9,2.9-2.5v0c0-1.4-1.2-1.9-2.4-2.3l-0.2,0c-0.9-0.3-1.6-0.5-1.6-1.1v0c0-0.5,0.4-0.9,1.1-0.9c0.8,0,1.7,0.3,2.3,0.6
				c0,0,0.2,0.1,0.2-0.1c0-0.1,0.3-0.9,0.4-1c0-0.1,0-0.2-0.1-0.2c-0.7-0.4-1.6-0.7-2.5-0.7l-0.2,0c-1.6,0-2.8,1-2.8,2.4v0
				c0,1.5,1.2,2,2.4,2.3l0.2,0.1c0.9,0.3,1.6,0.5,1.6,1.1v0c0,0.5-0.5,1-1.2,1c-0.3,0-1.3,0-2.3-0.7c-0.1-0.1-0.2-0.1-0.3-0.2
				c0,0-0.2-0.1-0.2,0.1L116.5,496.6L116.5,496.6z"/>
			<path fill="#FFFFFF" d="M134.2,493.6c0,0.9-0.2,1.5-0.5,2c-0.3,0.5-0.8,0.7-1.4,0.7c-0.7,0-1.1-0.2-1.4-0.7
				c-0.3-0.5-0.5-1.2-0.5-2c0-0.9,0.2-1.5,0.5-2c0.3-0.5,0.8-0.7,1.4-0.7c0.7,0,1.1,0.2,1.4,0.7C134,492.1,134.2,492.8,134.2,493.6
				 M135.7,492c-0.1-0.5-0.4-0.9-0.7-1.3c-0.3-0.4-0.7-0.7-1.1-0.9c-0.5-0.2-1-0.3-1.6-0.3c-0.6,0-1.1,0.1-1.6,0.3
				c-0.5,0.2-0.8,0.5-1.1,0.9c-0.3,0.4-0.5,0.8-0.7,1.3c-0.1,0.5-0.2,1-0.2,1.6s0.1,1.1,0.2,1.6c0.1,0.5,0.4,0.9,0.7,1.3
				c0.3,0.4,0.7,0.7,1.1,0.9c0.5,0.2,1,0.3,1.6,0.3c0.6,0,1.1-0.1,1.6-0.3c0.5-0.2,0.8-0.5,1.1-0.9c0.3-0.4,0.5-0.8,0.7-1.3
				c0.1-0.5,0.2-1,0.2-1.6C135.9,493,135.8,492.5,135.7,492"/>
			<path fill="#FFFFFF" d="M147.8,496.1c0-0.1-0.2-0.1-0.2-0.1c-0.2,0.1-0.4,0.2-0.7,0.2c-0.2,0-0.5,0.1-0.8,0.1
				c-0.7,0-1.3-0.2-1.7-0.6c-0.4-0.4-0.6-1.1-0.6-2c0-0.8,0.2-1.5,0.6-1.9c0.4-0.5,0.9-0.7,1.6-0.7c0.6,0,1.1,0.1,1.6,0.2
				c0,0,0.1,0.1,0.2-0.1c0.1-0.4,0.2-0.6,0.4-1c0-0.1-0.1-0.2-0.1-0.2c-0.2-0.1-0.6-0.2-1-0.2c-0.3,0-0.7-0.1-1.1-0.1
				c-0.6,0-1.2,0.1-1.6,0.3c-0.5,0.2-0.9,0.5-1.2,0.9c-0.3,0.4-0.6,0.8-0.7,1.3c-0.2,0.5-0.2,1-0.2,1.6c0,1.2,0.3,2.2,1,2.9
				c0.7,0.7,1.6,1.1,2.9,1.1c0.8,0,1.5-0.2,2.1-0.4c0,0,0.1-0.1,0.1-0.2L147.8,496.1L147.8,496.1z"/>
			<path fill="#FFFFFF" d="M150.4,492.8c0.1-0.5,0.2-0.9,0.4-1.2c0.3-0.5,0.8-0.7,1.4-0.7s1.1,0.3,1.4,0.7c0.2,0.3,0.3,0.7,0.3,1.2
				H150.4L150.4,492.8z M155.4,491.7c-0.1-0.5-0.4-1-0.6-1.2c-0.3-0.3-0.6-0.6-1-0.7c-0.4-0.2-0.9-0.3-1.4-0.3
				c-0.6,0-1.2,0.1-1.7,0.3c-0.5,0.2-0.8,0.5-1.2,0.9c-0.3,0.4-0.5,0.8-0.7,1.3c-0.1,0.5-0.2,1-0.2,1.6c0,0.6,0.1,1.1,0.2,1.6
				c0.2,0.5,0.4,0.9,0.7,1.3c0.3,0.4,0.8,0.6,1.3,0.8c0.5,0.2,1.1,0.3,1.8,0.3c1.4,0,2.2-0.3,2.5-0.5c0.1,0,0.1-0.1,0-0.2l-0.3-0.9
				c0-0.1-0.2-0.1-0.2-0.1c-0.4,0.1-0.9,0.4-2.1,0.4c-0.8,0-1.4-0.2-1.7-0.6c-0.4-0.4-0.6-0.9-0.6-1.7l5,0c0,0,0.1,0,0.1-0.1
				C155.5,493.8,155.7,492.9,155.4,491.7L155.4,491.7z"/>
			<path fill="#FFFFFF" d="M110.3,492.8c0.1-0.5,0.2-0.9,0.4-1.2c0.3-0.5,0.8-0.7,1.4-0.7c0.7,0,1.1,0.3,1.4,0.7
				c0.2,0.3,0.3,0.7,0.3,1.2H110.3L110.3,492.8z M115.3,491.7c-0.1-0.5-0.4-1-0.6-1.2c-0.3-0.3-0.6-0.6-1-0.7
				c-0.4-0.2-0.9-0.3-1.4-0.3c-0.6,0-1.2,0.1-1.7,0.3c-0.5,0.2-0.8,0.5-1.2,0.9c-0.3,0.4-0.5,0.8-0.7,1.3c-0.1,0.5-0.2,1-0.2,1.6
				c0,0.6,0.1,1.1,0.2,1.6c0.2,0.5,0.4,0.9,0.7,1.3c0.3,0.4,0.8,0.6,1.3,0.8c0.5,0.2,1.1,0.3,1.8,0.3c1.4,0,2.2-0.3,2.5-0.5
				c0.1,0,0.1-0.1,0-0.2l-0.3-0.9c-0.1-0.1-0.2-0.1-0.2-0.1c-0.4,0.1-0.9,0.4-2.1,0.4c-0.8,0-1.4-0.2-1.7-0.6
				c-0.4-0.4-0.6-0.9-0.6-1.7l5,0c0,0,0.1,0,0.1-0.1C115.4,493.8,115.6,492.9,115.3,491.7L115.3,491.7z"/>
			<path fill="#FFFFFF" d="M99.5,496.1c-0.2-0.2-0.2-0.2-0.3-0.3c-0.1-0.2-0.1-0.4-0.1-0.7c0-0.4,0.1-0.8,0.4-1c0,0,0.4-0.4,1.5-0.4
				c0.7,0,1.4,0.1,1.4,0.1v2.3h0c0,0-0.6,0.1-1.4,0.2C99.9,496.4,99.5,496.1,99.5,496.1 M101.5,492.6c-0.2,0-0.5,0-0.8,0
				c-0.4,0-0.8,0.1-1.2,0.2c-0.4,0.1-0.7,0.3-1,0.5c-0.3,0.2-0.5,0.5-0.7,0.8c-0.2,0.3-0.3,0.7-0.3,1.2c0,0.4,0.1,0.8,0.2,1.1
				c0.2,0.3,0.4,0.6,0.7,0.8c0.3,0.2,0.6,0.4,1,0.4c0.4,0.1,0.8,0.1,1.3,0.1c0.5,0,1,0,1.5-0.1c0.5-0.1,1.1-0.2,1.3-0.2
				c0.2,0,0.4-0.1,0.4-0.1c0.1,0,0.1-0.2,0.1-0.2l0-4.6c0-1-0.3-1.7-0.8-2.2c-0.5-0.5-1.3-0.7-2.3-0.7c-0.4,0-1,0.1-1.3,0.1
				c0,0-1.1,0.2-1.5,0.6c0,0-0.1,0.1,0,0.2l0.4,1c0,0.1,0.2,0.1,0.2,0.1s0,0,0.1,0c1-0.5,2.2-0.5,2.2-0.5c0.5,0,1,0.1,1.2,0.3
				c0.3,0.2,0.4,0.5,0.4,1.2v0.2C101.9,492.6,101.5,492.6,101.5,492.6"/>
			<path fill="#FFFFFF" d="M141.9,490c0-0.1,0-0.2-0.1-0.2c-0.1,0-0.5-0.1-0.8-0.1c-0.6,0-1,0.1-1.3,0.2c-0.3,0.1-0.7,0.4-0.8,0.6
				v-0.6c0-0.1-0.1-0.2-0.1-0.2h-1.3c-0.1,0-0.1,0.1-0.1,0.2v7.5c0,0.1,0.1,0.2,0.2,0.2h1.3c0.1,0,0.2-0.1,0.2-0.2v-3.7
				c0-0.5,0.1-1,0.2-1.3c0.1-0.3,0.3-0.6,0.4-0.7c0.2-0.2,0.4-0.3,0.6-0.4c0.2-0.1,0.5-0.1,0.7-0.1c0.3,0,0.6,0.1,0.6,0.1
				c0.1,0,0.2,0,0.2-0.1C141.6,490.8,141.8,490.1,141.9,490"/>
			<path fill="#FFFFFF" d="M129.5,486.5c-0.2,0-0.3-0.1-0.5-0.1c-0.2,0-0.4-0.1-0.7-0.1c-0.9,0-1.6,0.3-2.1,0.8
				c-0.5,0.5-0.8,1.3-1,2.3l-0.1,0.3H124c0,0-0.1,0-0.2,0.1l-0.2,1c0,0.1,0,0.2,0.2,0.2h1.1l-1.1,6.3c-0.1,0.5-0.2,0.9-0.3,1.2
				c-0.1,0.3-0.2,0.5-0.3,0.7c-0.1,0.2-0.2,0.3-0.5,0.4c-0.2,0.1-0.4,0.1-0.6,0.1c-0.1,0-0.3,0-0.4,0c-0.1,0-0.2,0-0.3-0.1
				c0,0-0.1,0-0.2,0.1c0,0.1-0.3,0.9-0.4,1c0,0.1,0,0.2,0.1,0.2c0.1,0.1,0.3,0.1,0.5,0.1c0.3,0.1,0.5,0.1,0.7,0.1
				c0.5,0,0.9-0.1,1.2-0.2c0.3-0.1,0.7-0.3,0.9-0.6c0.3-0.3,0.5-0.7,0.7-1.1c0.2-0.5,0.3-1,0.4-1.7l1.1-6.4h1.6c0,0,0.1,0,0.2-0.1
				l0.2-1c0-0.1,0-0.2-0.2-0.2h-1.6c0,0,0.1-0.6,0.3-1.1c0.1-0.2,0.2-0.4,0.4-0.5c0.1-0.1,0.3-0.2,0.4-0.3c0.2-0.1,0.3-0.1,0.5-0.1
				c0.2,0,0.3,0,0.4,0c0.2,0,0.2,0.1,0.3,0.1c0.2,0,0.2,0,0.2-0.1l0.4-1.1C129.6,486.6,129.5,486.5,129.5,486.5"/>
			<path fill="#FFFFFF" d="M107.1,497.3c0,0.1-0.1,0.2-0.1,0.2h-1.3c-0.1,0-0.1-0.1-0.1-0.2v-10.7c0-0.1,0.1-0.2,0.1-0.2h1.3
				c0.1,0,0.1,0.1,0.1,0.2V497.3L107.1,497.3z"/>
		</g>
	</g>
</g>
<g id="Ebene_7">
	<linearGradient id="SVGID_10_" gradientUnits="userSpaceOnUse" x1="1021.1652" y1="287.7002" x2="1085.1527" y2="287.7002">
		<stop  offset="0.6546" style="stop-color:#FFFFFF"/>
		<stop  offset="1" style="stop-color:#F2F2F2"/>
	</linearGradient>
	<path fill="url(#SVGID_10_)" stroke="#000000" stroke-width="2" stroke-miterlimit="10" d="M1022.2,277.7l-1-3.1
		c0,0,22.5-3.1,26.1-3.1s31.7,4.1,31.7,4.1s6.7,2.7,6.2,6.7c-0.5,4-14.3,21.4-14.3,21.4L1022.2,277.7z"/>
	<linearGradient id="SVGID_11_" gradientUnits="userSpaceOnUse" x1="1022.1882" y1="289.247" x2="1085.1229" y2="289.247">
		<stop  offset="0.6546" style="stop-color:#FFFFFF"/>
		<stop  offset="1" style="stop-color:#F2F2F2"/>
	</linearGradient>
	
		<path fill="url(#SVGID_11_)" stroke="#000000" stroke-width="2" stroke-linecap="round" stroke-linejoin="round" stroke-miterlimit="10" d="
		M1022.2,277.7l48.7,26.1l14.3-20.5c0,0,0.5-4.1-4.1-4.6s-29.7-4.1-33.2-4.1S1022.2,277.7,1022.2,277.7z"/>
</g>
<g id="Ebene_10">
	<path display="none" fill="none" stroke="#000000" stroke-width="3" stroke-miterlimit="10" d="M566.8,40.5l88.5-24"/>
	<g id="Ebene_11">
	</g>
</g>
</svg>
