<?xml version="1.0" encoding="utf-8"?>
<!-- Generator: Adobe Illustrator 23.0.3, SVG Export Plug-In . SVG Version: 6.00 Build 0)  -->
<svg version="1.1" id="Ebene_1" xmlns="http://www.w3.org/2000/svg" xmlns:xlink="http://www.w3.org/1999/xlink" x="0px" y="0px"
	 viewBox="0 0 3836 354" style="enable-background:new 0 0 3836 354;" xml:space="preserve">
<style type="text/css">
	.st0{fill:#86ED18;}
</style>
<g>
	<path class="st0" d="M1440.2,328c-3.4,0-5-3.4-6.8-14.5c-1.2-7.3-2.5-17.8-3.8-32.1c-2.5-26.5-4.9-61.3-7.5-98.1
		c-2.5-35.9-5.1-73.1-7.8-101.7c-2.8-29.6-4.9-42.2-6.4-47.5c-4.1,15.9-8.2,75.4-11.2,120.1c-7.2,107.1-9.2,117.3-15.4,117.3
		c0,0,0,0,0,0c-5.6,0-7.5-8-14.7-92.4c-2.2-26.2-4.5-53.2-7.1-74.6c-2.9-24.4-5.2-33.4-6.6-36.6c-2.1,5.2-4.4,20.4-6.3,32.9
		c-5.4,36.5-12.2,81.8-32,83.4c-11.9,0.9-25.3-13.4-39.7-42.8l5.4-2.7c12.7,25.8,25,40.2,33.9,39.5c6.1-0.5,11.9-9.5,16.6-26
		c4.4-15.6,7.4-35.1,9.9-52.3c4.4-29.3,6.2-39.4,12.2-39.4c0,0,0,0,0,0c4,0,6,5,7.7,12.6c1.4,6.2,2.9,15.1,4.3,27
		c2.7,22,5.2,50.7,7.5,78.5c2.6,31,5.8,68.5,8.7,82.4c3.3-16.5,6.7-66.1,9.4-107.2c2.1-30.7,4.2-62.5,6.5-86.3
		c1.3-12.9,2.5-22.4,3.7-29c1.6-8.7,3.2-13.4,7-13.4c0,0,0,0,0,0c3.6,0,5.4,3.9,7.5,16c1.4,8.1,2.8,19.8,4.4,35.6
		c2.8,29.3,5.6,68.4,8.2,106.3c3.6,52.2,8,115.6,12.1,134.6c3.4-18.4,6.3-78.3,8.6-127.7c1.7-36.6,3.5-74.4,5.6-102.7
		c1.2-15.3,2.3-26.7,3.5-34.6c1.8-11.8,3.6-15.6,7.2-15.7c0,0,0,0,0.1,0c3.9,0,6.8,3,11.4,40.7c2.8,22.8,5.6,53.4,8.3,82.9
		c3.6,39.5,8,87.4,11.7,103.2c2.5-14,4.5-52,6-81c4.5-85.9,6.5-101,13.4-101.1c0,0,0,0,0.1,0c5.5,0,7.4,9.2,13,48
		c2,13.5,4,27.5,6.2,38.6c2.7,13.5,4.8,17.7,5.7,18.9c3.3-4.3,7.1-27.6,9.2-40.4c4.7-29,6.7-38.5,12.3-38.5c0,0,0,0,0,0
		c7.1,0.1,9.8,16,16.1,94.6c2.4,29.5,5.5,68.7,8.9,79.9c3.8-11.1,8.4-50.8,12.2-83.3c3.4-28.8,6.8-58.6,10.7-81.6
		c5.7-34.3,10.2-41.3,15.5-41.3c0,0,0,0,0,0c6.9,0,10.1,13,15.6,37.9c2.3,10.2,4.6,20.8,7.2,28.7c3.6,11.1,6.1,11.4,6.1,11.4
		c0,0,1.8-0.2,4.7-7.4c2.1-5.4,4-12.5,5.8-19.4c4.4-16.6,6.7-24.6,12.2-24.6c0,0,0.1,0,0.1,0c7.9,0.2,11,18.5,16.7,77.2
		c1.4,14.8,3.1,32.2,4.8,41.5c1.4-7.1,2.8-18.9,4.2-29.8c6.4-52.3,10.7-74.2,20.6-74.5c5.6-0.2,9.1,7,13.1,15.4
		c2.5,5.1,6.6,13.7,9.4,13.7c0,0,0,0,0.1,0c3.4-0.2,6.9-13,9-20.6c3.6-13,6.7-24.2,14.2-24.5c6.6-0.3,10.5,10.7,17.5,31.9
		c2.8,8.5,5.8,17.4,8.7,23.9c4.3,9.5,6.6,9.5,6.7,9.5c4.6,0,9.3-10.1,13-18.2c4.8-10.4,9.4-20.2,16.9-20.2c0,0,0.1,0,0.1,0
		c8.2,0.1,12.6,12.1,16.9,23.7c1.7,4.6,3.3,8.9,4.9,12.1c2,3.7,3,3.9,3,3.9c0,0,2.2-0.3,5.7-10.3c2.5-7.2,4.9-17,7.2-26.5
		c5.9-24.5,9.7-38.3,17.1-38.3c0,0,0,0,0,0c6.7,0,10.1,11,15.6,30.3c2.2,7.8,4.5,15.9,7,22c3.4,8.2,5.5,8.5,5.7,8.5h0
		c1.9,0,5.1-7.2,7-11.5c4.1-9.4,9.2-21,19.4-21.8c7.5-0.6,13.3,5.2,18.8,10.8c5.4,5.5,10.5,10.6,17,10.3c5.5-0.3,8.9-4.5,12.8-9.4
		c4.2-5.3,8.9-11.2,17.2-11.7c9.2-0.6,15.9,5.9,22.3,12.1c5.9,5.7,11.5,11.1,18.4,10.7c5.4-0.3,8.7-4.1,12.1-8.1
		c3.6-4.2,7.7-9,14.6-9.2c10.9-0.3,18.6,10.7,26,21.3c5.5,7.9,11.3,16.2,16.4,15.8c4.4-0.3,7.6-7.3,10.8-14.1
		c3.9-8.6,8.4-18.4,17.5-19.2c8.6-0.8,15.2,6.9,21.5,14.3c4.8,5.6,9.8,11.4,14.1,11c6.8-0.6,10.5-16.3,13.5-28.9
		c3.3-14,5.9-25,13.2-25.5c0.2,0,0.3,0,0.5,0c8.6,0,15.3,16.1,25.4,42.1c3.7,9.4,7.5,19.1,11,26.1c5,9.9,7.2,9.9,7.3,9.9
		c0,0,1.5-0.4,3.4-6.8c1.5-5.1,2.8-12,4.1-19.2c3.5-19.4,6.8-37.6,17.3-38.5c7-0.6,12.3,7,18.4,15.8c6.4,9.2,13.6,19.6,22.5,19.6
		c0,0,0.1,0,0.1,0c6.1,0,10.4-5,14.9-10.2c4.9-5.6,10.5-12,19-12.2c0.1,0,0.2,0,0.3,0c12.7,0,21.8,13.7,29.8,25.8
		c5.5,8.3,11.2,16.9,15.5,16.5c4.4-0.4,7.2-10.9,9.6-20.1c3.4-12.9,6.8-26.1,16.9-27.6c5.7-0.8,9.5,4.8,13.5,10.7
		c4.1,6.1,8.8,13,15.4,13.3c3.7,0.2,6.3-1.7,9.4-3.8c3.3-2.3,7.1-4.9,12.5-5.1c0.1,0,0.3,0,0.4,0c10.4,0,16.6,10.3,21.6,18.5
		c2.7,4.5,6.2,10.1,8.5,10.1c0,0,0,0,0.1,0c3.6-0.1,7.1-13,9.5-21.5c4-14.7,8.1-29.8,18.3-31c10.1-1.2,20.8,12.5,27.4,25.7l-5.4,2.7
		c-6.8-13.6-15.7-23-21.3-22.4c-6.2,0.7-10.1,15.1-13.2,26.6c-3.7,13.8-7,25.6-15,25.9c-5.8,0.2-9.6-5.9-13.9-13
		c-4.5-7.3-9.5-15.7-16.5-15.7c-0.1,0-0.1,0-0.2,0c-3.6,0.1-6.2,1.9-9.2,4c-3.4,2.4-7.4,5.1-13,4.9c-9.6-0.4-15.4-9-20.1-15.9
		c-2.7-4-5.7-8.4-7.7-8.2c-6.1,0.9-9.2,12.7-11.9,23.1c-3.2,12.2-6.2,23.7-14.8,24.6c-7.9,0.8-14-8.4-21.1-19.1
		c-7.2-10.8-15.3-23.1-24.8-23.1c-0.1,0-0.1,0-0.2,0c-5.9,0.1-10.1,4.9-14.6,10.1c-5,5.7-10.6,12.2-19.4,12.3c0,0-0.1,0-0.1,0
		c-12.1,0-20.2-11.8-27.4-22.2c-4.6-6.7-9.4-13.6-13-13.3c-6,0.5-9.6,20.4-11.9,33.6c-3.2,17.6-5.5,30.4-13,30.9
		c-8.1,0.6-14.2-14-24.2-39.8c-3.8-9.9-7.8-20.1-11.6-27.5c-5.4-10.6-8-10.7-8.3-10.7c-2.8,0.2-6.2,14.2-7.8,20.9
		c-3.8,16-7.7,32.5-18.8,33.5c-7.4,0.7-13.4-6.3-19.2-13.1c-5.4-6.2-10.9-12.7-16.5-12.2c-5.6,0.5-9.1,8.2-12.6,15.7
		c-3.8,8.4-7.8,17.1-15.8,17.6c-8.5,0.6-14.9-8.6-21.7-18.4c-6.4-9.2-13-18.7-20.6-18.7c-0.1,0-0.2,0-0.3,0c-4.2,0.1-7,3.4-10.2,7.1
		c-3.9,4.5-8.4,9.7-16.3,10.2c-9.5,0.6-16.4-6-23-12.3c-5.8-5.6-11.2-10.8-17.8-10.4c-5.6,0.4-9,4.6-12.9,9.5
		c-4.2,5.2-8.9,11.2-17.1,11.6c-9.1,0.5-15.7-6.2-21.5-12.1c-4.8-4.8-9.3-9.4-14-9c-6.6,0.5-10.7,9.9-14.4,18.3
		c-3.6,8.1-6.6,15.1-12.5,15.1c0,0,0,0,0,0c-8.7,0-13.2-16.1-18.5-34.8c-2.6-9.2-6.9-24.4-9.8-25.9c-3.5,1.8-8.5,22.5-11.2,33.7
		c-6.2,25.6-10.5,41.4-18.8,41.4c0,0,0,0,0,0c-6.3,0-9.5-8.8-13.6-19.9c-2.9-7.9-7.2-19.7-11.3-19.8c0,0,0,0,0,0
		c-3.7,0-8,9.3-11.5,16.7c-5,10.6-10.1,21.6-18.5,21.6c0,0,0,0,0,0c-8.1,0-13.4-14.2-21.1-37.6c-3.3-9.8-8.7-26.2-11.7-27.8
		c-3.1,0.5-6.6,13.2-8.5,20.1c-3.7,13.2-6.8,24.6-14.5,25c-6.7,0.4-10.8-8.1-15.1-17.1c-1.7-3.6-5.8-12-7.6-12c0,0-3.6,0.6-8,22.1
		c-2.8,13.8-5,31.5-6.9,47.1c-4.2,34.3-5.4,40.5-10.1,40.5c0,0,0,0,0,0c-5,0-6.2-5.9-10.7-52.3c-1.6-16.5-3.3-33.5-5.3-47.3
		c-2.4-16.7-4.6-22.1-5.6-23.8c-2,3-4.6,12.8-6.3,19.6c-5.1,19.4-8.7,31.2-16.2,31.3c0,0,0,0,0,0c-8.8,0-13-17-19.1-44.8
		c-2.7-12.1-6.6-30.1-9.7-33c-1.4,1.4-5.1,7.9-10.1,38.9c-3.6,22.5-7,50.9-10.2,78.4c-9.1,78-11.7,90.9-18.2,90.9c0,0,0,0-0.1,0
		c-6.5-0.1-8.7-13.2-14.7-87.7c-1.7-21-3.4-42.6-5.4-59.4c-2-17.5-3.8-24.8-4.8-27.9c-2.2,5.8-4.6,21-6.3,31.7
		c-5.3,32.6-8.1,45.9-15.1,45.9c0,0,0,0,0,0c-7.5,0-10.9-15-17.8-63.1c-2-14.1-4.7-32.4-7-40c-3.3,13.1-5.7,58.5-7.5,92.6
		c-4.4,83.1-6,90.9-11.8,91c0,0-0.1,0-0.1,0c-6,0-8.4-10.8-17.8-113c-4-43-9.2-100.3-13.7-115.3c-1.3,5.1-3.2,17.3-5.2,46.2
		c-2,27.7-3.7,63.5-5.3,98.2c-1.6,35-3.2,68.1-5,93.4c-1,13.6-2,23.6-3,30.6C1445.3,323.5,1444,328,1440.2,328
		C1440.2,328,1440.2,328,1440.2,328z"/>
	<path class="st0" d="M1440.3,331.1l-0.4-1.1c-5-0.2-6.7-5.4-8.5-16.2c-1.2-7.4-2.5-17.9-3.8-32.3c-2.5-26.5-4.9-61.3-7.5-98.1
		c-2.5-36.4-5.1-73.9-7.8-102.7c-1.6-17.3-3-28.6-4.2-35.9c-0.9,5.9-1.9,14.3-3.1,26.5c-2.2,23.3-4.2,53.6-6.2,82.9
		c-2,29.8-3.9,57.9-5.9,79.3c-3.3,34.3-5.3,39.8-11.1,40l-0.4,1.1l-0.4-1.1c-5.2-0.3-7-6.5-8.9-19.1c-2.1-13.9-4.4-39-7.5-75.1
		c-2.3-26.6-4.6-54.1-7.2-75.6c-1.7-14.5-3.3-23.2-4.4-28.4c-1.6,7.5-3.3,18.7-4.3,25.8c-5.8,39.1-12.5,83.4-33.8,85.1
		c-13,1.1-26.6-13.3-41.7-43.9l-1.3-2.7l9-4.4l1.3,2.7c18,36.5,29,38.6,31.9,38.4c3.8-0.3,9.5-5.1,15.2-26.2
		c4.3-15.6,7.1-34.9,9.5-50.4c2.3-15.6,3.8-24.6,5.4-30.5c0.9-3.4,2.9-10.6,8.8-10.6c6.3,0,9.6,5.8,14,41.4
		c2.7,22,5.2,50.8,7.5,78.5c2,23.8,4.4,51.6,6.7,69.4c2.7-22.3,5.3-61.2,7.5-94.1c2.1-30.8,4.2-62.5,6.5-86.4
		c1.8-18.1,3.4-29.4,5.1-35.7c1.2-4.4,3-8.5,7.5-8.6c5.5,0,7.5,5.7,9.5,17.6c1.4,8.2,2.9,19.9,4.4,35.8c2.8,29.3,5.6,68.4,8.2,106.3
		c3,42.9,6.5,93.8,9.9,120.7c2.6-25.9,4.9-73.6,6.8-113.8c1.7-36.6,3.5-74.4,5.6-102.8c1.6-21.4,3.2-34.8,4.9-42.2
		c1.4-5.9,3.3-9.8,7.8-9.9c5.8,0,8.8,4,13.5,42.5c2.8,22.9,5.6,53.4,8.3,82.9c2.8,29.9,6.2,68,9.4,90c1.7-17.9,3.2-45.6,4.3-67.7
		c1.3-24,2.6-48.7,4.2-67.4c2.7-30.4,5.1-35.6,11.1-35.6c5.3,0,7.3,6.1,8.7,11.7c1.8,7.3,3.7,19.4,6.4,37.9c2,14,4.1,28.5,6.4,39.7
		c1.4,6.6,2.6,10.8,3.5,13.3c0.6-1.7,1.3-4.2,2.1-7.6c1.8-7.9,3.5-18.3,5.1-28.3c4.9-30.5,6.8-40.2,14.3-40.2
		c6.2,0,8.7,8.2,10.8,22.2c2.3,14.8,4.5,39.4,7.3,74.2c1.7,21.5,4.3,54.2,7,71.1c3.3-17,7.2-50.5,10-74.5
		c3.4-28.9,6.8-58.6,10.7-81.7c2.7-16.2,5.2-26.9,7.8-33.4c1.8-4.4,4.5-9.5,9.7-9.5c0,0,0,0,0,0c8.4,0,11.6,12.8,17.5,39.5
		c2.2,10.2,4.6,20.7,7.1,28.5c2,6,3.5,8.5,4.3,9.6c2.9-3.7,7-19.4,8.4-24.8c4.3-16.3,6.9-26.1,14.1-26.1l0.1,0
		c6.4,0.1,9.6,7.4,12.9,28.6c2.2,14.4,4,32.7,5.7,50.4c0.9,9,1.9,19.2,2.9,27.9c0.7-5.2,1.4-10.9,2.1-16.3
		c6.5-52.7,10.6-75.9,22.6-76.2c6.9-0.2,10.7,7.6,15,16.5c1.7,3.4,5.5,11.3,7.5,12.5c2.4-1.8,5.8-13.8,7.2-19.1
		c3.8-13.7,7.1-25.6,16-26c0.1,0,0.2,0,0.3,0c7.8,0,11.8,10.8,19.2,33.3c2.7,8.2,9.9,30,13.7,32.1c3.3-0.4,8.3-11.2,11-17
		c5.1-11,9.9-21.4,18.7-21.4l0.1,0c9.6,0.1,14.3,12.8,18.7,25c1.3,3.6,4.1,11.3,6.1,14c0.8-1,2.1-3.4,3.9-8.3
		c2.5-7.1,4.9-16.9,7.2-26.3c6.5-26.9,10.1-39.8,19-39.8c8.1,0,11.8,11.5,17.5,31.8c2,7.2,7.3,25.8,10.7,28.8
		c1.5-1.6,3.9-7,5.3-10.1c4.3-9.9,9.7-22.1,21.1-23c8.5-0.7,14.8,5.7,20.4,11.4c4.9,4.9,9.9,10,15.4,9.7c4.6-0.2,7.7-4.1,11.3-8.6
		c4.4-5.6,9.5-11.9,18.6-12.5c10.1-0.6,17.4,6.4,23.9,12.7c5.9,5.6,10.9,10.5,16.9,10.1c4.6-0.3,7.3-3.4,10.7-7.4
		c3.9-4.5,8.3-9.6,16-9.9c12-0.4,20,11.1,27.7,22.2c4.9,7,10.4,15,14.4,15c0.1,0,0.1,0,0.2,0c3.2-0.2,6.3-7,9.1-13
		c4.2-9.1,8.9-19.4,19.1-20.4c9.6-0.9,16.9,7.5,23.2,15c3.9,4.5,9.1,10.6,12.4,10.4c5.3-0.5,9.3-17.3,11.7-27.4
		c3.5-14.8,6.3-26.5,15-27.1c10.2-0.7,16.9,15.2,27.9,43.3c3.3,8.6,11.9,30.5,16,34.3c2.3-3.7,4.9-18.2,5.9-23.9
		c3.6-20.1,7.1-39.2,19.1-40.2c8.2-0.7,13.8,7.3,20.2,16.7c6.1,8.8,13,18.8,20.9,18.8c5.2,0,9.1-4.4,13.5-9.5
		c5.2-6,11-12.7,20.5-12.9c14-0.2,23.4,14.1,31.8,26.6c4.1,6.2,10.3,15.6,13.5,15.6c0.1,0,0.1,0,0.1,0c3-0.3,6.2-12.2,7.8-18.6
		c3.5-13.5,7.2-27.4,18.6-29c6.9-1,11.3,5.4,15.4,11.6c3.8,5.7,8.2,12.2,13.8,12.4c3,0.1,5.1-1.4,8.1-3.4c3.4-2.4,7.6-5.3,13.6-5.4
		c0.1,0,0.3,0,0.4,0c11.5,0,18.3,11.3,23.3,19.5c1.7,2.7,5.1,8.4,6.8,9.1c2.5-1.4,5.9-13.9,7.6-20c4.2-15.3,8.5-31.1,20-32.5
		c14-1.6,26,20.1,29.4,26.8l1.3,2.7l-8.9,4.5l-1.3-2.7c-7.7-15.3-15.9-21.7-19.3-21.3c-4.8,0.6-8.9,15.3-11.5,25.1
		c-3.9,14.5-7.4,27-16.9,27.4c-7,0.3-11.2-6.7-15.7-14c-4.2-6.9-8.9-14.7-14.8-14.7c-0.1,0-0.1,0-0.2,0c-3,0.1-5.3,1.6-8.1,3.6
		c-3.7,2.6-7.9,5.5-14.3,5.2c-10.6-0.5-17-9.9-21.6-16.8c-1.7-2.5-4.6-6.7-5.9-7.3c-4.7,0.9-7.8,12.9-10.1,21.6
		c-3.4,12.9-6.6,25.1-16.5,26c-9.1,0.9-15.6-8.8-23-20c-6.9-10.4-14.7-22.2-23.2-22.2l-0.1,0c-5,0.1-8.7,4.4-13.1,9.4
		c-5.2,6-11.2,12.9-20.9,13l-0.1-3v3c-13.1,0-21.6-12.2-29.1-23c-3.3-4.7-8.8-12.6-11.2-12.4c-0.3,0-2.5,0.5-5.3,9.7
		c-2,6.5-3.5,14.9-4.8,22.3c-3.3,18.5-5.8,31.9-14.8,32.6c-0.2,0-0.4,0-0.6,0c-9.1,0-15.1-14.3-25.6-41.1
		c-2.9-7.5-6.6-16.9-10.1-24.4c-4.4-9.3-6.8-11.8-7.7-12.4c-2.1,2.5-4.8,13.7-6.1,19.2c-4,16.6-8,33.9-20.5,35
		c-8.4,0.8-14.8-6.6-20.9-13.8c-4.8-5.6-10.3-12-14.8-11.6c-4.4,0.4-7.9,7.9-10.9,14.5c-3.9,8.5-8.3,18.2-17.5,18.8
		c-9.7,0.6-16.4-9-23.5-19.2c-5.9-8.5-12.6-18.2-19.2-17.9c-3.2,0.1-5.3,2.4-8.8,6.4c-4,4.6-8.9,10.3-17.7,10.9
		c-10.4,0.6-17.9-6.5-24.4-12.9l2-2.2l-2.1,2.2c-5.7-5.5-10.5-10.2-16.2-9.8c-4.7,0.3-7.8,4.2-11.4,8.7c-4.4,5.6-9.5,11.9-18.6,12.4
		c-10,0.5-17.3-6.8-23.1-12.7c-4.4-4.5-8.6-8.7-12.5-8.4c-5.4,0.4-9.4,9.7-12.7,17.1c-3.7,8.4-7.1,16.3-14.3,16.3
		c-10.2,0-14.7-16-20.4-36.3c-1.4-4.9-5.2-18.5-7.8-23.3c-0.7,1.2-1.6,3.2-2.8,6.6c-2.2,6.5-4.3,15.2-6.6,24.4
		c-6.6,27.4-10.9,42.9-20.7,42.9c-7.7,0-11.3-9.8-15.5-21.2c-1.6-4.4-3.5-9.5-5.4-13.3c-2.6-5.1-4-5.2-4.1-5.2
		c-2.4,0-7.7,11.3-9.6,15.6c-5.2,11.2-10.6,22.8-20.3,22.8c-9.6,0-14.8-14.1-23-39c-4.7-14.2-8-22.8-10-25.8
		c-2.3,3.1-5.2,13.7-6.4,18c-3.7,13.4-7.2,26-16.4,26.5c-0.2,0-0.3,0-0.5,0c-7.8,0-12-8.9-16.6-18.3c-1.2-2.6-3.9-8.1-5.6-10.2
		c-1.1,1.6-3.4,6.4-6.1,19.5c-2.8,13.8-5,31.6-6.9,47.3c-2.1,16.9-3.4,26.5-4.7,32.3c-0.8,3.6-2.1,9.4-6.9,9.9l-0.6,2.2l-0.6-2.2
		c-4.6-0.5-6-5.7-7.1-11.5c-1.5-7.7-2.9-21.5-5-42.5c-1.7-17-3.4-34.5-5.4-48.4c-1.4-9.1-2.6-14.5-3.5-17.7
		c-1.6,4.7-3.4,11.6-4.3,14.9c-4.6,17.6-8.6,32.7-18.1,32.8c-10.4,0-14.6-16.8-21.1-46.4c-2-9.1-3.9-17.8-5.9-24.1
		c-0.7-2.3-1.4-4-1.9-5.2c-0.5,1.2-1.1,2.8-1.8,5c-1.9,6.2-3.8,15.2-5.8,27.4c-3.8,22.8-7.3,52.4-10.6,81.1
		c-2.7,23.3-5.3,45.3-7.8,61.7c-4.1,26.3-6.8,31-12.4,31c-5.9-0.1-8.1-7.2-10.1-20.4c-2.1-13.5-4-35.6-6.7-69.2
		c-1.7-21.3-3.5-43.4-5.5-60.3c-1.1-9-2-15.1-2.8-19.3c-1.6,7.3-3.2,17.5-4.3,24.1c-5.7,35.2-8.5,47.5-17.1,47.6
		c-9.6,0-13-17.8-19.8-64.8c-1.3-9-3-20.9-4.7-29.9c-0.6,4.4-1.2,10.2-1.9,18c-1.5,18.1-2.7,41.6-3.9,64.3
		c-1.2,22.9-2.3,44.6-3.7,61.1c-2.3,27-4.3,31.6-9.7,31.9l-0.3,0.8l-0.3-0.8c-5.9-0.1-8.1-5.2-12.1-38.5c-2.5-20.7-5-47.7-7.6-76.3
		c-2.6-28.2-5.3-57.3-7.9-79.7c-1.4-11.6-2.6-19.7-3.6-25.3c-1,7.1-2.1,18-3.3,34.8c-2,27.8-3.7,64-5.4,99.1
		c-1.7,35.1-3.2,68.3-5,93.5c-1,13.6-2,23.7-3,30.7c-1.3,9-2.7,15.4-8,15.7L1440.3,331.1z M2318.1,153.5l0,1L2318.1,153.5z
		 M1679.1,110.5C1679.1,110.5,1679.1,110.5,1679.1,110.5C1679.1,110.5,1679.1,110.5,1679.1,110.5z M2208.4,108.5L2208.4,108.5
		L2208.4,108.5z"/>
</g>
<g>
	<path class="st0" d="M2720.2,328c-3.4,0-5-3.4-6.8-14.5c-1.2-7.3-2.5-17.8-3.8-32.1c-2.5-26.5-4.9-61.3-7.5-98.1
		c-2.5-35.9-5.1-73.1-7.8-101.7c-2.8-29.6-4.9-42.2-6.4-47.5c-4.1,15.9-8.2,75.4-11.2,120.1c-7.2,107.1-9.2,117.3-15.4,117.3
		c0,0,0,0,0,0c-5.6,0-7.5-8-14.7-92.4c-2.2-26.2-4.5-53.2-7.1-74.6c-2.9-24.4-5.2-33.4-6.6-36.6c-2.1,5.2-4.4,20.4-6.3,32.9
		c-5.4,36.5-12.2,81.8-32,83.4c-11.9,1-25.3-13.4-39.7-42.8l5.4-2.7c12.7,25.8,25,40.2,33.9,39.5c6.1-0.5,11.9-9.5,16.6-26
		c4.4-15.6,7.4-35.1,9.9-52.3c4.4-29.3,6.2-39.4,12.2-39.4c0,0,0,0,0,0c4,0,6,5,7.7,12.6c1.4,6.2,2.9,15.1,4.3,27
		c2.7,22,5.2,50.7,7.5,78.5c2.6,31,5.8,68.5,8.7,82.4c3.3-16.5,6.7-66.1,9.4-107.2c2.1-30.7,4.2-62.5,6.5-86.3
		c1.3-12.9,2.5-22.4,3.7-29c1.6-8.7,3.2-13.4,7-13.4c0,0,0,0,0,0c3.6,0,5.4,3.9,7.5,16c1.4,8.1,2.8,19.8,4.4,35.6
		c2.8,29.3,5.6,68.4,8.2,106.3c3.6,52.2,8,115.6,12.1,134.6c3.4-18.4,6.3-78.3,8.6-127.7c1.7-36.6,3.5-74.4,5.6-102.7
		c1.2-15.3,2.3-26.7,3.5-34.6c1.8-11.8,3.6-15.6,7.2-15.7c0,0,0,0,0.1,0c3.9,0,6.8,3,11.4,40.7c2.8,22.8,5.6,53.4,8.3,82.9
		c3.6,39.5,8,87.4,11.7,103.2c2.5-14,4.5-52,6-81c4.5-85.9,6.5-101,13.4-101.1c0,0,0,0,0.1,0c5.5,0,7.4,9.2,13,48
		c2,13.5,4,27.5,6.2,38.6c2.7,13.5,4.8,17.7,5.7,18.9c3.3-4.3,7.1-27.6,9.2-40.4c4.7-29,6.7-38.5,12.3-38.5c0,0,0,0,0,0
		c7.1,0.1,9.8,16,16.1,94.6c2.4,29.5,5.5,68.7,8.9,79.9c3.8-11.1,8.4-50.8,12.2-83.3c3.4-28.8,6.8-58.6,10.7-81.6
		c5.7-34.3,10.2-41.3,15.5-41.3c0,0,0,0,0,0c6.9,0,10.1,13,15.6,37.9c2.3,10.2,4.6,20.8,7.2,28.7c3.6,11.1,6.1,11.4,6.1,11.4
		c0,0,1.8-0.2,4.7-7.4c2.1-5.4,4-12.5,5.8-19.4c4.4-16.6,6.7-24.6,12.2-24.6c0,0,0.1,0,0.1,0c7.9,0.2,11,18.5,16.7,77.2
		c1.4,14.8,3.1,32.2,4.8,41.5c1.4-7.1,2.8-18.9,4.2-29.8c6.4-52.3,10.7-74.2,20.6-74.5c0.1,0,0.1,0,0.2,0c5.5,0,9,7.1,12.9,15.4
		c2.5,5.1,6.6,13.7,9.4,13.7c0,0,0,0,0.1,0c3.4-0.2,6.9-13,9-20.6c3.6-13,6.7-24.2,14.2-24.5c6.6-0.3,10.5,10.7,17.5,31.9
		c2.8,8.5,5.8,17.4,8.7,23.9c4.3,9.4,6.6,9.5,6.7,9.5h0c4.6,0,9.3-10.1,13-18.2c4.8-10.4,9.4-20.2,16.9-20.2c0,0,0.1,0,0.1,0
		c8.2,0.1,12.6,12.1,16.9,23.7c1.7,4.6,3.3,8.9,4.9,12.1c2,3.7,3,3.9,3,3.9c0,0,2.2-0.3,5.7-10.3c2.5-7.2,4.9-17,7.2-26.5
		c5.9-24.5,9.7-38.3,17.1-38.3c0,0,0,0,0,0c6.7,0,10.1,11,15.6,30.3c2.2,7.8,4.5,15.9,7,22c3.4,8.2,5.5,8.5,5.7,8.5c0,0,0,0,0,0
		c1.9,0,5.1-7.2,7-11.5c4.1-9.4,9.2-21,19.4-21.8c7.5-0.6,13.3,5.2,18.8,10.8c5.4,5.5,10.5,10.6,17,10.3c5.5-0.3,8.9-4.5,12.8-9.4
		c4.2-5.3,8.9-11.2,17.2-11.7c9.2-0.6,15.9,5.9,22.3,12.1c5.9,5.7,11.5,11.1,18.4,10.7c5.4-0.3,8.7-4.1,12.1-8.1
		c3.6-4.2,7.7-9,14.6-9.2c10.9-0.3,18.6,10.7,26,21.3c5.5,7.9,11.2,16.2,16.4,15.8c4.4-0.3,7.6-7.3,10.8-14.1
		c3.9-8.6,8.4-18.4,17.5-19.2c8.6-0.8,15.2,6.9,21.5,14.3c4.8,5.6,9.8,11.4,14.1,11c6.8-0.6,10.5-16.3,13.5-28.9
		c3.3-14,5.9-25,13.2-25.5c0.2,0,0.3,0,0.5,0c8.6,0,15.3,16.1,25.4,42.1c3.7,9.4,7.5,19.1,11,26.1c4.9,9.8,7.2,9.9,7.3,9.9
		c0,0,0,0,0,0c0,0,1.5-0.4,3.4-6.8c1.5-5.1,2.8-12,4.1-19.2c3.5-19.4,6.8-37.6,17.3-38.5c7-0.6,12.3,7,18.4,15.8
		c6.4,9.2,13.6,19.6,22.5,19.6c0,0,0.1,0,0.1,0c6.1,0,10.4-5,14.9-10.2c4.9-5.6,10.5-12,19-12.2c0.1,0,0.2,0,0.3,0
		c12.7,0,21.8,13.7,29.8,25.8c5.5,8.3,11.2,16.9,15.5,16.5c4.4-0.4,7.2-10.9,9.6-20.1c3.4-12.9,6.8-26.1,16.9-27.6
		c5.7-0.8,9.5,4.8,13.5,10.7c4.1,6.1,8.8,13,15.4,13.3c3.7,0.2,6.3-1.7,9.4-3.8c3.3-2.3,7.1-4.9,12.5-5.1c0.1,0,0.3,0,0.4,0
		c10.4,0,16.6,10.3,21.6,18.5c2.7,4.5,6.2,10.1,8.5,10.1c0,0,0,0,0.1,0c3.6-0.1,7.1-13,9.5-21.5c4-14.7,8.1-29.8,18.3-31
		c10.1-1.2,20.8,12.5,27.4,25.7l-5.4,2.7c-6.8-13.6-15.7-23-21.3-22.4c-6.2,0.7-10.1,15.1-13.2,26.6c-3.7,13.8-7,25.6-15,25.9
		c-5.8,0.2-9.6-5.9-13.9-13c-4.5-7.4-9.6-15.8-16.7-15.7c-3.6,0.1-6.2,1.9-9.2,4c-3.4,2.4-7.4,5.1-13,4.9c-9.6-0.4-15.4-9-20.1-15.9
		c-2.7-4-5.7-8.4-7.7-8.2c-6.1,0.9-9.2,12.7-11.9,23.1c-3.2,12.2-6.2,23.7-14.8,24.6c-7.9,0.8-14-8.4-21.1-19.1
		c-7.2-10.8-15.3-23.1-24.8-23.1c-0.1,0-0.1,0-0.2,0c-5.9,0.1-10.1,4.9-14.6,10.1c-5,5.7-10.6,12.2-19.4,12.3c0,0-0.1,0-0.1,0
		c-12.1,0-20.2-11.8-27.4-22.2c-4.6-6.7-9.4-13.6-13-13.3c-6,0.5-9.6,20.4-11.9,33.6c-3.2,17.6-5.5,30.4-13,30.9
		c-8.1,0.6-14.2-14-24.2-39.8c-3.8-9.9-7.8-20.1-11.6-27.5c-5.4-10.6-8-10.7-8.3-10.7c-2.8,0.2-6.2,14.2-7.8,20.9
		c-3.8,16-7.7,32.5-18.8,33.5c-7.4,0.7-13.4-6.3-19.2-13.1c-5.4-6.2-10.9-12.7-16.5-12.2c-5.6,0.5-9.1,8.2-12.6,15.7
		c-3.8,8.4-7.8,17.1-15.8,17.6c-8.5,0.6-14.9-8.6-21.7-18.4c-6.4-9.2-13-18.7-20.6-18.7c-0.1,0-0.2,0-0.3,0c-4.2,0.1-7,3.4-10.2,7.1
		c-3.9,4.5-8.4,9.7-16.3,10.2c-9.5,0.6-16.4-6-23-12.3c-5.8-5.6-11.2-10.8-17.8-10.4c-5.6,0.4-9,4.6-12.9,9.5
		c-4.2,5.2-8.9,11.2-17.1,11.6c-9.1,0.5-15.7-6.2-21.5-12.1c-4.8-4.8-9.3-9.4-14-9c-6.6,0.5-10.7,9.9-14.4,18.3
		c-3.6,8.1-6.6,15.1-12.5,15.1c0,0,0,0,0,0c-8.7,0-13.2-16.1-18.5-34.8c-2.6-9.2-6.9-24.4-9.8-25.9c-3.5,1.8-8.5,22.5-11.2,33.7
		c-6.2,25.6-10.5,41.4-18.8,41.4c0,0,0,0,0,0c-6.3,0-9.5-8.8-13.6-19.9c-2.9-7.9-7.2-19.7-11.3-19.8c0,0,0,0,0,0
		c-3.7,0-8,9.3-11.5,16.7c-5,10.6-10.1,21.6-18.5,21.6c0,0,0,0,0,0c-8.1,0-13.4-14.2-21.1-37.6c-3.3-9.8-8.7-26.2-11.7-27.8
		c-3.1,0.5-6.6,13.2-8.5,20.1c-3.7,13.2-6.8,24.6-14.5,25c-6.7,0.4-10.8-8.1-15.1-17.1c-1.7-3.6-5.8-12-7.6-12c0,0-3.6,0.6-8,22.1
		c-2.8,13.8-5,31.5-6.9,47.1c-4.2,34.3-5.4,40.5-10.1,40.5c0,0,0,0,0,0c-5,0-6.2-5.9-10.7-52.3c-1.6-16.5-3.3-33.5-5.3-47.3
		c-2.4-16.7-4.6-22.1-5.6-23.8c-2,3-4.6,12.8-6.3,19.6c-5.1,19.4-8.7,31.2-16.2,31.3c0,0,0,0,0,0c-8.8,0-13-17-19.1-44.8
		c-2.7-12.1-6.6-30.1-9.7-33c-1.4,1.4-5.1,7.9-10.1,38.9c-3.6,22.5-7,50.9-10.2,78.4c-9.1,78-11.7,90.9-18.2,90.9c0,0,0,0-0.1,0
		c-6.5-0.1-8.7-13.2-14.7-87.7c-1.7-21-3.4-42.6-5.4-59.4c-2-17.5-3.8-24.8-4.8-27.9c-2.2,5.8-4.6,21-6.3,31.7
		c-5.3,32.6-8.1,45.9-15.1,45.9c0,0,0,0,0,0c-7.5,0-10.9-15-17.8-63.1c-2-14.1-4.7-32.4-7-40c-3.3,13.1-5.7,58.5-7.5,92.6
		c-4.4,83.1-6,90.9-11.8,91c0,0-0.1,0-0.1,0c-6,0-8.4-10.8-17.8-113c-4-43-9.2-100.3-13.7-115.3c-1.3,5.1-3.2,17.3-5.2,46.2
		c-2,27.7-3.7,63.5-5.3,98.2c-1.7,35-3.2,68.1-5,93.4c-1,13.6-2,23.6-3,30.6C2725.3,323.5,2724,328,2720.2,328
		C2720.2,328,2720.2,328,2720.2,328z"/>
	<path class="st0" d="M2720.3,331.1l-0.4-1.1c-5-0.2-6.7-5.4-8.5-16.2c-1.2-7.4-2.5-17.9-3.8-32.3c-2.5-26.6-4.9-61.3-7.5-98.1
		c-2.5-36.4-5.1-73.9-7.8-102.6c-1.6-17.3-3-28.6-4.2-35.9c-0.9,5.9-1.9,14.3-3.1,26.5c-2.2,23.2-4.2,53.5-6.2,82.7l0,0.5
		c-2,29.6-3.9,57.7-5.9,79c-3.3,34.3-5.3,39.8-11.1,40l-0.4,1.1l-0.4-1.1c-5.2-0.3-7-6.5-8.9-19.1c-2.1-13.9-4.4-39-7.5-75.1
		c-2.3-26.7-4.6-54.1-7.2-75.6c-1.7-14.5-3.3-23.2-4.4-28.4c-1.6,7.5-3.3,18.7-4.3,25.9c-5.8,39.1-12.5,83.4-33.8,85.1
		c-13,1.1-26.6-13.3-41.7-43.9l-1.3-2.7l9-4.4l1.3,2.7c18,36.5,29,38.6,31.9,38.4c3.8-0.3,9.5-5.1,15.2-26.2
		c4.3-15.6,7.1-34.9,9.5-50.4c2.3-15.6,3.8-24.6,5.4-30.5c0.9-3.4,2.9-10.6,8.8-10.6c6.3,0,9.6,5.8,14,41.4
		c2.7,22,5.2,50.8,7.5,78.5c2,23.8,4.4,51.6,6.7,69.4c2.7-22.3,5.3-61.2,7.5-94.1c2.1-30.8,4.2-62.5,6.5-86.4
		c1.8-18.1,3.4-29.4,5.1-35.7c1.2-4.4,3-8.5,7.5-8.6c5.5,0,7.5,5.7,9.5,17.6c1.4,8.2,2.9,19.9,4.4,35.8c2.8,29.2,5.5,68.3,8.2,106
		l0,0.3c3,42.9,6.5,93.8,9.9,120.7c2.6-25.9,4.9-73.6,6.8-113.8c1.7-36.6,3.5-74.4,5.6-102.8c1.6-21.4,3.2-34.8,4.9-42.2
		c1.4-5.9,3.3-9.8,7.8-9.9c5.8,0,8.8,4,13.5,42.5c2.8,22.9,5.6,53.4,8.3,82.9c2.8,29.9,6.3,68,9.4,90c1.7-17.9,3.2-45.6,4.3-67.6
		c1.3-24,2.6-48.8,4.2-67.4c2.7-30.4,5.1-35.6,11.1-35.6c5.3,0,7.3,6.1,8.7,11.7c1.8,7.3,3.7,19.4,6.4,37.9c2,14,4.1,28.5,6.4,39.7
		c1.4,6.6,2.6,10.8,3.5,13.3c0.6-1.7,1.3-4.2,2.1-7.6c1.8-7.9,3.5-18.3,5.1-28.3c4.9-30.5,6.8-40.2,14.3-40.2
		c6.2,0,8.7,8.2,10.8,22.2c2.3,14.8,4.5,39.4,7.3,74.2c1.7,21.5,4.3,54.2,7,71.1c3.3-17,7.2-50.5,10-74.5
		c3.4-28.9,6.8-58.7,10.7-81.7c2.7-16.2,5.2-26.9,7.8-33.4c1.8-4.4,4.5-9.5,9.7-9.5c8.5,0,11.6,12.8,17.5,39.5
		c2.2,10.2,4.6,20.7,7.1,28.5c2,6,3.5,8.5,4.3,9.6c2.9-3.7,7-19.4,8.4-24.8c4.3-16.3,6.9-26.1,14.1-26.1l0.1,0
		c6.4,0.1,9.6,7.4,12.9,28.6c2.2,14.4,4,32.6,5.7,50.3l0,0.1c0.9,9,1.9,19.2,2.9,27.9c0.7-5.2,1.4-10.9,2.1-16.3
		c6.5-52.7,10.6-75.9,22.6-76.2c6.9-0.2,10.7,7.6,15,16.5c1.7,3.4,5.5,11.3,7.5,12.5c2.4-1.8,5.8-13.8,7.2-19.1
		c3.8-13.7,7.1-25.6,16-26c0.1,0,0.2,0,0.3,0c7.8,0,11.8,10.8,19.2,33.3c2.7,8.2,9.9,30,13.7,32.1c3.3-0.4,8.3-11.2,11-17
		c5.1-11,9.9-21.4,18.7-21.4l0.1,0c9.6,0.1,14.3,12.8,18.7,25c1.3,3.6,4.2,11.3,6.1,14c0.8-1,2.1-3.4,3.9-8.3
		c2.5-7.1,4.9-16.8,7.1-26.2c6.5-26.9,10.1-39.9,19-39.9c8.1,0,11.8,11.5,17.5,31.8c2,7.2,7.3,25.8,10.7,28.8
		c1.5-1.6,3.9-7,5.3-10.1c4.3-9.9,9.7-22.1,21-23c8.5-0.7,14.8,5.7,20.4,11.4c4.9,4.9,9.9,10,15.4,9.7c4.6-0.2,7.7-4.1,11.3-8.6
		c4.4-5.6,9.5-11.9,18.6-12.5c10.1-0.6,17.4,6.4,23.9,12.7c5.9,5.6,10.8,10.5,16.9,10.1c4.6-0.3,7.3-3.4,10.7-7.4
		c3.9-4.5,8.3-9.6,16-9.9c12-0.4,20,11.1,27.7,22.2c4.9,7,10.4,15,14.4,15c0.1,0,0.1,0,0.2,0c3.2-0.2,6.3-7,9.1-13
		c4.2-9.1,8.9-19.4,19.1-20.4c9.6-0.9,16.9,7.5,23.2,15c3.9,4.5,9.1,10.6,12.4,10.4c5.3-0.5,9.3-17.3,11.7-27.4
		c3.5-14.8,6.3-26.5,15-27.1c10.2-0.7,16.9,15.2,27.9,43.3c3.3,8.6,11.9,30.5,16,34.3c2.3-3.7,4.9-18.2,5.9-23.9
		c3.6-20.1,7.1-39.2,19.1-40.2c8.2-0.7,13.8,7.3,20.2,16.7c6.1,8.8,13,18.8,20.9,18.8c5.2,0,9.1-4.4,13.5-9.5
		c5.2-6,11-12.7,20.5-12.9c14-0.2,23.4,14.1,31.8,26.6c4.1,6.2,10.3,15.6,13.5,15.6c0.1,0,0.1,0,0.1,0c3-0.3,6.2-12.2,7.8-18.6
		c3.5-13.5,7.2-27.4,18.6-29c6.9-1,11.3,5.4,15.4,11.6c3.8,5.7,8.2,12.2,13.8,12.4c3,0.1,5.1-1.4,8.1-3.4c3.4-2.4,7.6-5.3,13.6-5.4
		c0.1,0,0.3,0,0.4,0c11.5,0,18.3,11.3,23.3,19.5c1.7,2.7,5.1,8.4,6.8,9.1c2.5-1.4,5.9-13.9,7.6-20c4.2-15.3,8.5-31.1,20-32.5
		c14-1.6,26,20.1,29.4,26.8l1.3,2.7l-8.9,4.5l-1.3-2.7c-7.7-15.3-15.9-21.7-19.3-21.3c-4.8,0.6-8.9,15.3-11.5,25.1
		c-3.9,14.5-7.4,27-16.9,27.4c-7,0.3-11.2-6.7-15.7-14c-4.2-6.9-8.9-14.7-14.8-14.7c-0.1,0-0.1,0-0.2,0c-3,0.1-5.3,1.6-8.1,3.6
		c-3.7,2.6-7.9,5.5-14.3,5.2c-10.6-0.5-17-9.9-21.6-16.8c-1.7-2.5-4.6-6.7-5.9-7.3c-4.7,0.9-7.8,12.9-10.1,21.6
		c-3.4,12.9-6.6,25.1-16.5,26c-9.2,0.9-15.6-8.8-23-20c-6.9-10.4-14.7-22.2-23.2-22.2l-0.1,0c-5,0.1-8.7,4.4-13.1,9.4
		c-5.2,6-11.2,12.9-20.9,13l-0.1-3v3c-13.1,0-21.6-12.2-29.1-23c-3.3-4.7-8.7-12.6-11.2-12.4c-0.3,0-2.5,0.5-5.3,9.7
		c-2,6.5-3.5,14.9-4.8,22.3c-3.3,18.5-5.8,31.9-14.8,32.6c-0.2,0-0.4,0-0.6,0c-9.1,0-15.1-14.3-25.6-41.1
		c-2.9-7.5-6.6-16.9-10.1-24.4c-4.4-9.3-6.8-11.8-7.7-12.4c-2.1,2.5-4.8,13.7-6.1,19.2c-4,16.6-8,33.9-20.5,35
		c-8.4,0.8-14.8-6.6-20.9-13.8c-4.8-5.6-10.3-12-14.8-11.6c-4.4,0.4-7.9,7.9-10.9,14.5c-3.9,8.5-8.3,18.2-17.5,18.8
		c-9.7,0.6-16.4-9-23.5-19.2c-5.9-8.5-12.6-18.2-19.2-17.9c-3.2,0.1-5.3,2.4-8.8,6.4c-4,4.6-8.9,10.3-17.7,10.9
		c-10.4,0.6-17.9-6.5-24.4-12.9l2-2.2l-2.1,2.2c-5.7-5.5-10.5-10.2-16.2-9.8c-4.7,0.3-7.8,4.2-11.4,8.7c-4.4,5.6-9.5,11.9-18.6,12.4
		c-10,0.5-17.3-6.8-23.1-12.7c-4.4-4.5-8.6-8.7-12.5-8.4c-5.4,0.4-9.4,9.7-12.7,17.1c-3.7,8.4-7.1,16.3-14.3,16.3
		c-10.2,0-14.7-16-20.4-36.3c-1.4-4.9-5.2-18.5-7.8-23.3c-0.7,1.2-1.6,3.2-2.8,6.6c-2.2,6.5-4.3,15.2-6.6,24.4
		c-6.7,27.4-10.9,42.9-20.7,42.9c-7.7,0-11.3-9.8-15.5-21.2c-1.6-4.4-3.5-9.5-5.4-13.3c-2.6-5.1-4-5.2-4.1-5.2
		c-2.4,0-7.7,11.3-9.6,15.6c-5.2,11.2-10.6,22.8-20.3,22.8c-9.6,0-14.8-14.1-23-39c-4.7-14.2-8-22.8-10-25.8
		c-2.3,3.1-5.2,13.7-6.4,18c-3.7,13.4-7.2,26-16.4,26.5c-8.1,0.4-12.4-8.7-17-18.2c-1.2-2.6-3.9-8.1-5.6-10.2
		c-1.1,1.6-3.4,6.4-6.1,19.5c-2.8,13.8-5,31.6-6.9,47.3c-2.1,16.9-3.4,26.5-4.7,32.3c-0.8,3.6-2.1,9.4-6.9,9.9l-0.6,2.2l-0.6-2.2
		c-4.6-0.5-6-5.7-7.1-11.5c-1.5-7.7-2.9-21.5-5-42.5c-1.7-17-3.4-34.5-5.4-48.4c-1.4-9.1-2.6-14.5-3.5-17.7
		c-1.6,4.7-3.4,11.6-4.3,14.9c-4.6,17.6-8.6,32.7-18.1,32.8c-10.4,0-14.6-16.8-21.1-46.4c-2-9.1-3.9-17.7-5.9-24.1
		c-0.7-2.3-1.4-4-1.9-5.2c-0.5,1.2-1.1,2.8-1.8,5c-1.9,6.2-3.8,15.2-5.8,27.4c-3.8,22.8-7.3,52.4-10.6,81.1
		c-2.7,23.3-5.3,45.3-7.8,61.7c-4.1,26.3-6.8,31-12.4,31c-5.9-0.1-8.1-7.2-10.1-20.4c-2.1-13.5-4-35.6-6.7-69.2
		c-1.7-21.3-3.5-43.3-5.5-60.3c-1.1-9-2-15.1-2.8-19.3c-1.6,7.3-3.2,17.5-4.3,24.1c-5.7,35.2-8.5,47.5-17.1,47.6
		c-9.6,0-13-17.8-19.8-64.8c-1.3-9-3-20.9-4.7-29.9c-0.6,4.4-1.2,10.2-1.9,18c-1.5,18-2.7,41.5-3.9,64.1l0,0.2
		c-1.2,22.9-2.3,44.5-3.7,61.1c-2.3,27-4.3,31.6-9.7,31.9l-0.3,0.8l-0.3-0.8c-5.9-0.1-8.1-5.2-12.1-38.5c-2.5-20.6-5-47.6-7.6-76.2
		l0-0.1c-2.6-28.2-5.3-57.3-7.9-79.6c-1.4-11.6-2.6-19.7-3.6-25.3c-1,7.1-2.1,18-3.3,34.8c-2,27.8-3.7,63.9-5.4,98.9l0,0.2
		c-1.7,35-3.2,68.1-5,93.4c-1,13.6-2,23.7-3,30.7c-1.3,9-2.7,15.4-8,15.7L2720.3,331.1z M2761,160.8l-1,0.1L2761,160.8
		C2761,160.9,2761,160.8,2761,160.8L2761,160.8z M3598.1,153.5l0,1L3598.1,153.5z M3026.4,144.5
		C3026.4,144.5,3026.4,144.5,3026.4,144.5C3026.4,144.5,3026.4,144.5,3026.4,144.5z M2959.1,110.5L2959.1,110.5L2959.1,110.5z
		 M3488.4,108.5L3488.4,108.5L3488.4,108.5z"/>
</g>
<g>
	<path class="st0" d="M160.6,329c-3.4,0-5-3.4-6.8-14.5c-1.2-7.3-2.5-17.8-3.8-32.1c-2.5-26.5-4.9-61.3-7.5-98.1
		c-2.5-35.9-5.1-73.1-7.8-101.7c-2.8-29.6-4.9-42.2-6.4-47.5c-4.1,15.9-8.2,75.4-11.2,120.1c-7.2,107.1-9.2,117.3-15.4,117.3
		c0,0,0,0,0,0c-5.6,0-7.5-8-14.7-92.4c-2.2-26.2-4.5-53.2-7.1-74.6C77.1,81,74.8,72,73.5,68.8c-2.1,5.2-4.4,20.4-6.3,32.9
		c-5.4,36.5-12.2,81.8-32,83.4c-11.9,0.9-25.3-13.4-39.7-42.8l5.4-2.7c12.7,25.8,25,40.2,33.9,39.5c6.1-0.5,11.9-9.5,16.6-26
		c4.4-15.6,7.4-35.1,9.9-52.3c4.4-29.3,6.2-39.4,12.2-39.4c0,0,0,0,0,0c4,0,6,5,7.7,12.6c1.4,6.2,2.9,15.1,4.3,27
		c2.7,22,5.2,50.7,7.5,78.5c2.6,31,5.8,68.5,8.7,82.4c3.3-16.5,6.7-66.1,9.4-107.2c2.1-30.7,4.2-62.5,6.5-86.3
		c1.3-12.9,2.5-22.4,3.7-29c1.6-8.7,3.2-13.4,7-13.4c0,0,0,0,0,0c3.6,0,5.4,3.9,7.5,16c1.4,8.1,2.8,19.8,4.4,35.6
		c2.8,29.3,5.6,68.4,8.2,106.3c3.6,52.2,8,115.6,12.1,134.6c3.4-18.4,6.3-78.3,8.6-127.7c1.7-36.6,3.5-74.4,5.6-102.7
		c1.2-15.3,2.3-26.7,3.5-34.6c1.8-11.8,3.6-15.6,7.2-15.7c3.9,0,6.8,2.8,11.5,40.7c2.8,22.8,5.6,53.4,8.3,82.9
		c3.6,39.5,8,87.4,11.7,103.2c2.5-14,4.5-52,6-81c4.5-85.9,6.5-101,13.4-101.1c0,0,0,0,0.1,0c5.5,0,7.4,9.2,13,48
		c2,13.5,4,27.5,6.2,38.6c2.7,13.5,4.8,17.7,5.7,18.9c3.3-4.3,7.1-27.6,9.2-40.4c4.7-29,6.7-38.5,12.3-38.5c0,0,0,0,0,0
		c7.1,0.1,9.8,16,16.1,94.6c2.4,29.5,5.5,68.7,8.9,79.9c3.8-11.1,8.4-50.8,12.2-83.3c3.4-28.8,6.8-58.6,10.7-81.6
		c5.7-34.3,10.2-41.3,15.5-41.3c0,0,0,0,0,0c6.9,0,10.1,13,15.6,37.9c2.3,10.2,4.6,20.8,7.2,28.7c3.6,11.1,6.1,11.4,6.1,11.4
		c0,0,1.8-0.2,4.7-7.4c2.1-5.4,4-12.5,5.8-19.4c4.4-16.7,6.8-24.8,12.3-24.6c7.9,0.2,11,18.5,16.7,77.2c1.4,14.8,3.1,32.2,4.8,41.5
		c1.4-7.1,2.8-18.9,4.2-29.8c6.4-52.3,10.7-74.2,20.6-74.5c5.7-0.2,9.1,7,13.1,15.4c2.5,5.2,6.7,13.8,9.4,13.7
		c3.4-0.2,6.9-13,9-20.6c3.6-13,6.7-24.2,14.2-24.5c0.1,0,0.2,0,0.2,0c6.4,0,10.4,11,17.3,31.9c2.8,8.5,5.8,17.4,8.7,23.9
		c4.3,9.4,6.6,9.5,6.7,9.5c0,0,0,0,0,0c4.6,0,9.3-10.1,13-18.2c4.8-10.4,9.4-20.2,16.9-20.2c0,0,0.1,0,0.1,0
		c8.2,0.1,12.6,12.1,16.9,23.7c1.7,4.6,3.3,8.9,4.9,12.1c2,3.7,3,3.9,3,3.9c0,0,2.2-0.3,5.7-10.3c2.5-7.2,4.9-17,7.2-26.5
		c5.9-24.5,9.7-38.3,17.1-38.3c0,0,0,0,0,0c6.7,0,10.1,11,15.6,30.3c2.2,7.8,4.5,15.9,7,22c3.4,8.2,5.5,8.5,5.7,8.5h0
		c1.9,0,5.1-7.2,7-11.5c4.1-9.4,9.2-21,19.4-21.8c7.6-0.6,13.3,5.2,18.8,10.8c5.4,5.5,10.5,10.6,17,10.3c5.5-0.3,8.9-4.5,12.8-9.4
		c4.2-5.3,8.9-11.2,17.2-11.7c9.2-0.6,15.9,5.9,22.3,12.1c5.9,5.7,11.5,11.1,18.4,10.7c5.4-0.3,8.7-4.1,12.1-8.1
		c3.6-4.2,7.7-9,14.6-9.2c10.9-0.4,18.6,10.7,26,21.3c5.5,7.9,11.2,16.1,16.4,15.8c4.4-0.3,7.6-7.3,10.8-14.1
		c3.9-8.6,8.4-18.4,17.5-19.2c8.6-0.8,15.2,6.9,21.5,14.3c4.8,5.6,9.8,11.4,14.1,11c6.8-0.6,10.5-16.3,13.5-28.9
		c3.3-14,5.9-25,13.2-25.5c8.8-0.6,15.6,15.6,25.9,42.1c3.7,9.4,7.5,19.1,11,26.1c5,9.9,7.2,9.9,7.3,9.9c0,0,1.5-0.4,3.4-6.8
		c1.5-5.1,2.8-12,4.1-19.2c3.5-19.4,6.8-37.6,17.3-38.5c7-0.6,12.3,7,18.4,15.8c6.4,9.2,13.6,19.6,22.5,19.6c0,0,0.1,0,0.1,0
		c6.1,0,10.4-5,14.9-10.2c4.9-5.6,10.5-12,19-12.2c0.1,0,0.2,0,0.3,0c12.7,0,21.8,13.7,29.8,25.8c5.5,8.3,11.2,16.9,15.5,16.5
		c4.4-0.4,7.2-10.9,9.6-20.1c3.4-12.9,6.8-26.1,16.9-27.6c5.7-0.8,9.5,4.8,13.5,10.7c4.1,6.1,8.8,13,15.4,13.3
		c3.7,0.2,6.3-1.7,9.4-3.8c3.3-2.3,7.1-4.9,12.5-5.1c10.6-0.2,16.9,10.2,22,18.5c2.8,4.6,6.3,10.2,8.5,10.1c3.6-0.1,7.1-13,9.5-21.5
		c4-14.7,8.1-29.8,18.3-31c10.1-1.2,20.8,12.5,27.4,25.7l-5.4,2.7c-6.8-13.6-15.8-23-21.3-22.4c-6.2,0.7-10.1,15.1-13.2,26.6
		c-3.7,13.8-7,25.6-15,25.9c-5.8,0.2-9.6-5.9-13.9-13c-4.5-7.4-9.6-15.8-16.7-15.7c-3.6,0.1-6.2,1.9-9.2,4c-3.4,2.4-7.3,5.1-13,4.9
		c-9.6-0.4-15.4-9-20.1-15.9c-2.7-4-5.7-8.5-7.7-8.2c-6.1,0.9-9.2,12.7-11.9,23.1c-3.2,12.2-6.2,23.7-14.8,24.6
		c-8,0.8-14-8.4-21.1-19.1c-7.2-10.8-15.3-23.1-24.8-23.1c-0.1,0-0.1,0-0.2,0c-5.9,0.1-10.1,4.9-14.6,10.1
		c-5,5.7-10.6,12.2-19.4,12.3c0,0-0.1,0-0.1,0c-12.1,0-20.2-11.8-27.4-22.2c-4.6-6.7-9.4-13.6-13-13.3c-6,0.5-9.6,20.4-11.9,33.6
		c-3.2,17.6-5.5,30.4-13,30.9c-8.1,0.6-14.2-14-24.2-39.8c-3.8-9.9-7.8-20.1-11.6-27.5c-5.4-10.6-8-10.7-8.3-10.7
		c-2.8,0.2-6.2,14.2-7.8,20.9c-3.8,16-7.7,32.5-18.8,33.5c-7.4,0.7-13.4-6.3-19.2-13.1c-5.4-6.2-10.9-12.7-16.5-12.2
		c-5.6,0.5-9.1,8.2-12.6,15.7c-3.8,8.4-7.8,17.1-15.8,17.6c-8.5,0.6-14.9-8.6-21.7-18.4c-6.5-9.3-13.2-19-20.8-18.7
		c-4.2,0.1-7,3.4-10.2,7.1c-3.9,4.5-8.4,9.7-16.3,10.2c-9.5,0.6-16.4-6-23-12.3c-5.8-5.6-11.2-10.8-17.8-10.4
		c-5.6,0.4-9,4.6-12.9,9.5c-4.2,5.2-8.9,11.2-17.1,11.6c-9.1,0.5-15.7-6.2-21.5-12.1c-4.8-4.8-9.3-9.4-14-9
		c-6.6,0.5-10.7,9.9-14.4,18.3c-3.6,8.1-6.6,15.1-12.5,15.1c0,0,0,0,0,0c-8.7,0-13.2-16.1-18.5-34.8c-2.6-9.2-6.9-24.4-9.8-25.9
		c-3.5,1.8-8.5,22.5-11.2,33.7c-6.2,25.6-10.5,41.4-18.8,41.4c0,0,0,0,0,0c-6.3,0-9.5-8.8-13.6-19.9c-2.9-7.9-7.2-19.7-11.3-19.8
		c0,0,0,0,0,0c-3.7,0-8,9.3-11.5,16.7c-5,10.6-10.1,21.6-18.5,21.6c0,0,0,0,0,0c-8.1,0-13.4-14.2-21.1-37.6
		c-3.3-9.8-8.7-26.2-11.7-27.8c-3.1,0.5-6.6,13.2-8.5,20.1c-3.7,13.2-6.8,24.6-14.5,25c-6.7,0.3-10.8-8.1-15.1-17.1
		c-1.7-3.6-5.8-12-7.6-12c0,0-3.6,0.6-8,22.1c-2.8,13.8-5,31.5-6.9,47.1c-4.2,34.3-5.4,40.5-10.1,40.5c0,0,0,0,0,0
		c-5,0-6.2-5.9-10.7-52.3c-1.6-16.5-3.3-33.5-5.3-47.3c-2.4-16.7-4.6-22.1-5.6-23.8c-2,3-4.6,12.8-6.3,19.6
		c-5.1,19.4-8.7,31.2-16.2,31.3c0,0,0,0,0,0c-8.8,0-13-17-19.1-44.8c-2.7-12.1-6.6-30.1-9.7-33c-1.4,1.4-5.1,7.9-10.1,38.9
		c-3.6,22.5-7,50.9-10.2,78.4c-9.1,78-11.7,90.9-18.2,90.9c0,0,0,0-0.1,0c-6.5-0.1-8.7-13.2-14.7-87.7c-1.7-21-3.4-42.6-5.4-59.4
		c-2-17.5-3.8-24.8-4.8-27.9c-2.2,5.8-4.6,21-6.3,31.7c-5.3,32.6-8.1,45.9-15.1,45.9c0,0,0,0,0,0c-7.5,0-10.9-15-17.8-63.1
		c-2-14.1-4.7-32.4-7-40c-3.3,13.1-5.7,58.5-7.5,92.6c-4.4,83.1-6,90.9-11.8,91c0,0-0.1,0-0.1,0c-6,0-8.4-10.8-17.8-113
		c-4-43-9.2-100.3-13.7-115.3c-1.3,5.1-3.2,17.3-5.2,46.2c-2,27.7-3.7,63.5-5.3,98.2c-1.6,35-3.2,68.1-5,93.4c-1,13.6-2,23.6-3,30.6
		C165.7,324.5,164.4,329,160.6,329C160.7,329,160.6,329,160.6,329z"/>
	<path class="st0" d="M160.7,332.1l-0.4-1.1c-5-0.2-6.7-5.4-8.5-16.2c-1.2-7.4-2.5-17.9-3.8-32.3c-2.5-26.5-4.9-61.3-7.5-98.1
		c-2.5-36.4-5.1-73.9-7.8-102.7c-1.6-17.3-3-28.6-4.2-35.9c-0.9,5.9-1.9,14.3-3.1,26.5c-2.2,23.3-4.2,53.6-6.2,82.9
		c-2,29.8-3.9,57.9-5.9,79.3c-3.3,34.3-5.3,39.8-11.1,40l-0.4,1.1l-0.4-1.1c-5.2-0.3-7-6.5-8.9-19.1c-2.1-13.9-4.4-39-7.5-75.1
		c-2.3-26.6-4.6-54.1-7.2-75.6c-1.7-14.5-3.3-23.2-4.4-28.4c-1.6,7.5-3.3,18.7-4.3,25.8c-5.8,39.1-12.5,83.4-33.8,85.1
		c-13,1.1-26.6-13.3-41.7-43.9l-1.3-2.7l9-4.4l1.3,2.7c18,36.5,29,38.6,31.9,38.4c3.8-0.3,9.5-5.1,15.2-26.2
		c4.3-15.6,7.1-34.9,9.5-50.4c2.3-15.6,3.8-24.6,5.4-30.5c0.9-3.4,2.9-10.6,8.8-10.6c6.3,0,9.6,5.8,14,41.4
		c2.7,22,5.2,50.8,7.5,78.5c2,23.8,4.4,51.6,6.7,69.4c2.7-22.3,5.3-61.2,7.5-94.1c2.1-30.8,4.2-62.5,6.5-86.4
		c1.8-18.1,3.4-29.4,5.1-35.7c1.2-4.4,3-8.5,7.5-8.6c5.5,0,7.5,5.7,9.5,17.6c1.4,8.2,2.9,19.9,4.4,35.8c2.8,29.3,5.6,68.4,8.2,106.3
		c3,42.9,6.5,93.8,9.9,120.7c2.6-25.9,4.9-73.6,6.8-113.8c1.7-36.6,3.5-74.4,5.6-102.8c1.6-21.4,3.2-34.8,4.9-42.2
		c1.4-5.9,3.3-9.8,7.8-9.9c5.8,0,8.8,4,13.5,42.5c2.8,22.9,5.6,53.4,8.3,82.9c2.8,29.9,6.2,68,9.4,90c1.7-17.9,3.2-45.6,4.3-67.7
		c1.3-24,2.6-48.7,4.2-67.4c2.7-30.4,5.1-35.6,11.1-35.6c5.3,0,7.3,6.1,8.7,11.7c1.8,7.3,3.7,19.4,6.4,37.9c2,14,4.1,28.5,6.4,39.7
		c1.4,6.6,2.6,10.8,3.5,13.3c0.6-1.7,1.3-4.2,2.1-7.6c1.8-7.9,3.5-18.3,5.1-28.3c4.9-30.5,6.8-40.2,14.3-40.2
		c6.2,0,8.7,8.2,10.8,22.2c2.3,14.8,4.5,39.4,7.3,74.2c1.7,21.5,4.3,54.2,7,71.1c3.3-17,7.2-50.5,10-74.5
		c3.4-28.9,6.8-58.6,10.7-81.7c2.7-16.2,5.2-26.9,7.8-33.4c1.8-4.4,4.5-9.5,9.7-9.5c0,0,0,0,0,0c8.4,0,11.6,12.8,17.5,39.5
		c2.2,10.2,4.6,20.7,7.1,28.5c2,6,3.5,8.5,4.3,9.6c2.9-3.7,7-19.4,8.4-24.8c4.3-16.3,6.9-26.1,14.1-26.1l0.1,0
		c6.4,0.1,9.6,7.4,12.9,28.6c2.2,14.4,4,32.7,5.7,50.4c0.9,9,1.9,19.2,2.9,27.9c0.7-5.2,1.4-10.9,2.1-16.3
		c6.5-52.7,10.6-75.9,22.6-76.2c6.9-0.2,10.7,7.6,15,16.5c1.7,3.4,5.5,11.3,7.5,12.5c2.4-1.8,5.8-13.8,7.2-19.1
		c3.8-13.7,7.1-25.6,16-26c0.1,0,0.2,0,0.3,0c7.8,0,11.8,10.8,19.2,33.3c2.7,8.2,9.9,30,13.7,32.1c3.3-0.4,8.3-11.2,11-17
		c5.1-11,9.9-21.4,18.7-21.4l0.1,0c9.6,0.1,14.3,12.8,18.7,25c1.3,3.6,4.1,11.3,6.1,14c0.8-1,2.1-3.4,3.9-8.3
		c2.5-7.1,4.9-16.9,7.2-26.3c6.5-26.9,10.1-39.8,19-39.8c8.1,0,11.8,11.5,17.5,31.8c2,7.2,7.3,25.8,10.7,28.8
		c1.5-1.6,3.9-7,5.3-10.1c4.3-9.9,9.7-22.1,21.1-23c8.5-0.7,14.8,5.7,20.4,11.4c4.9,4.9,9.9,10,15.4,9.7c4.6-0.2,7.7-4.1,11.3-8.6
		c4.4-5.6,9.5-11.9,18.6-12.5c10.1-0.6,17.4,6.4,23.9,12.7c5.9,5.6,10.9,10.5,16.9,10.1c4.6-0.3,7.3-3.4,10.7-7.4
		c3.9-4.5,8.3-9.6,16-9.9c12-0.4,20,11.1,27.7,22.2c5,7.1,10.6,15.2,14.6,15c3.2-0.2,6.3-7,9.1-13c4.2-9.1,8.9-19.4,19.1-20.4
		c9.6-0.9,16.9,7.5,23.2,15c3.9,4.5,9.2,10.7,12.4,10.4c5.3-0.5,9.3-17.3,11.7-27.4c3.5-14.8,6.3-26.5,15-27.1
		c10.3-0.7,16.9,15.2,27.9,43.3c3.3,8.6,11.9,30.5,16,34.3c2.3-3.7,4.9-18.2,5.9-23.9c3.6-20.1,7.1-39.2,19.1-40.2
		c8.2-0.7,13.8,7.3,20.2,16.7c6.1,8.8,13,18.8,20.9,18.8c5.2,0,9.1-4.4,13.5-9.5c5.2-6,11-12.7,20.5-12.9
		c14-0.1,23.4,14.1,31.8,26.6c4.2,6.3,10.5,15.8,13.7,15.6c3-0.3,6.1-12.2,7.8-18.6c3.5-13.5,7.2-27.4,18.6-29
		c6.9-1,11.3,5.4,15.4,11.6c3.8,5.7,8.2,12.2,13.8,12.4c3,0.1,5.1-1.4,8.1-3.4c3.4-2.4,7.6-5.3,13.6-5.4c0.1,0,0.3,0,0.4,0
		c11.5,0,18.3,11.3,23.3,19.5c1.7,2.7,5.1,8.4,6.8,9.1c2.5-1.4,5.9-13.9,7.6-20c4.2-15.3,8.5-31.1,20-32.5c14-1.6,26,20.1,29.4,26.8
		l1.3,2.7l-8.9,4.5l-1.3-2.7c-7.7-15.3-15.9-21.7-19.3-21.3c-4.8,0.6-8.9,15.3-11.5,25.1c-3.9,14.5-7.4,27-16.9,27.4
		c-7,0.3-11.2-6.7-15.7-14c-4.2-7-9-14.9-15-14.7c-3,0.1-5.3,1.6-8.1,3.6c-3.7,2.6-7.9,5.5-14.3,5.2c-10.6-0.5-17-9.9-21.6-16.8
		c-1.7-2.5-4.6-6.7-5.9-7.3c-4.7,0.9-7.8,12.9-10.1,21.6c-3.4,12.9-6.6,25.1-16.5,26c-9.1,0.9-15.5-8.8-23-20
		c-6.9-10.4-14.7-22.2-23.2-22.2l-0.1,0c-5,0.1-8.7,4.4-13.1,9.4c-5.2,6-11.2,12.9-20.9,13l-0.1-3l0,3c-13.1,0-21.6-12.2-29.1-23
		c-3.3-4.7-8.7-12.6-11.2-12.4c-0.3,0-2.5,0.5-5.3,9.7c-2,6.5-3.5,14.9-4.8,22.3c-3.3,18.5-5.8,31.9-14.8,32.6
		c-9.5,0.7-15.5-13.6-26.2-41.1c-2.9-7.5-6.6-16.9-10.1-24.4c-4.4-9.3-6.8-11.8-7.7-12.4c-2.1,2.5-4.8,13.7-6.1,19.2
		c-4,16.6-8,33.9-20.5,35c-8.4,0.8-14.8-6.6-20.9-13.8c-4.8-5.6-10.2-12-14.8-11.6c-4.4,0.4-7.9,7.9-10.9,14.5
		c-3.9,8.5-8.3,18.2-17.5,18.8c-9.7,0.6-16.4-9-23.5-19.2c-5.9-8.5-12.6-18.1-19.2-17.9c-3.2,0.1-5.3,2.4-8.8,6.4
		c-4,4.6-8.9,10.3-17.7,10.9c-10.4,0.6-17.9-6.5-24.4-12.9l2-2.2l-2.1,2.2c-5.7-5.5-10.6-10.2-16.2-9.8c-4.7,0.3-7.8,4.2-11.4,8.7
		c-4.4,5.6-9.5,11.9-18.6,12.4c-10,0.5-17.3-6.8-23.1-12.7c-4.4-4.5-8.6-8.7-12.5-8.4c-5.4,0.4-9.4,9.7-12.7,17.1
		c-3.7,8.4-7.1,16.3-14.3,16.3c-10.2,0-14.7-16-20.4-36.3c-1.4-4.9-5.2-18.5-7.8-23.3c-0.7,1.2-1.6,3.2-2.8,6.6
		c-2.2,6.5-4.3,15.2-6.6,24.4c-6.6,27.4-10.9,42.9-20.7,42.9c-7.7,0-11.3-9.8-15.5-21.2c-1.6-4.4-3.5-9.5-5.4-13.3
		c-2.6-5.1-4-5.2-4.1-5.2c-2.4,0-7.7,11.3-9.6,15.6c-5.2,11.2-10.6,22.8-20.3,22.8c-9.6,0-14.8-14.1-23-39c-4.7-14.2-8-22.8-10-25.8
		c-2.3,3.1-5.2,13.7-6.4,18c-3.7,13.4-7.2,26-16.4,26.5c-0.2,0-0.3,0-0.5,0c-7.8,0-12-8.9-16.6-18.3c-1.2-2.6-3.9-8.1-5.6-10.2
		c-1.1,1.6-3.4,6.4-6.1,19.5c-2.8,13.8-5,31.6-6.9,47.3c-2.1,16.9-3.4,26.5-4.7,32.3c-0.8,3.6-2.1,9.4-6.9,9.9l-0.6,2.2l-0.6-2.2
		c-4.6-0.5-6-5.7-7.1-11.5c-1.5-7.7-2.9-21.5-5-42.5c-1.7-17-3.4-34.5-5.4-48.4c-1.4-9.1-2.6-14.5-3.5-17.7
		c-1.6,4.7-3.4,11.6-4.3,14.9c-4.6,17.6-8.6,32.7-18.1,32.8c-10.4,0-14.6-16.8-21.1-46.4c-2-9.1-3.9-17.8-5.9-24.1
		c-0.7-2.3-1.4-4-1.9-5.2c-0.5,1.2-1.1,2.8-1.8,5c-1.9,6.2-3.8,15.2-5.8,27.4c-3.8,22.8-7.3,52.4-10.6,81.1
		c-2.7,23.3-5.3,45.3-7.8,61.7c-4.1,26.3-6.8,31-12.4,31c-5.9-0.1-8.1-7.2-10.1-20.4c-2.1-13.5-4-35.6-6.7-69.2
		c-1.7-21.3-3.5-43.4-5.5-60.3c-1.1-9-2-15.1-2.8-19.3c-1.6,7.3-3.2,17.5-4.3,24.1c-5.7,35.2-8.5,47.5-17.1,47.6
		c-9.6,0-13-17.8-19.8-64.8c-1.3-9-3-20.9-4.7-29.9c-0.6,4.4-1.2,10.2-1.9,18c-1.5,18.1-2.7,41.6-3.9,64.3
		c-1.2,22.9-2.3,44.6-3.7,61.1c-2.3,27-4.3,31.6-9.7,31.9l-0.3,0.8l-0.3-0.8c-5.9-0.1-8.1-5.2-12.1-38.5c-2.5-20.7-5-47.7-7.6-76.3
		c-2.6-28.2-5.3-57.3-7.9-79.7c-1.4-11.6-2.6-19.7-3.6-25.3c-1,7.1-2.1,18-3.3,34.8c-2,27.8-3.7,64-5.4,99.1
		c-1.7,35.1-3.2,68.3-5,93.5c-1,13.6-2,23.7-3,30.7c-1.3,9-2.7,15.4-8,15.7L160.7,332.1z M1038.5,154.5l0,1L1038.5,154.5z
		 M399.6,111.5C399.6,111.5,399.6,111.5,399.6,111.5C399.6,111.5,399.6,111.5,399.6,111.5z M928.8,109.5L928.8,109.5L928.8,109.5z"
		/>
</g>
</svg>
