<svg width="310" height="219" viewBox="0 0 310 219" fill="none" xmlns="http://www.w3.org/2000/svg">
<path fill-rule="evenodd" clip-rule="evenodd" d="M99.0451 44.6504C98.074 39.4448 97.3574 35.7674 96.8949 33.6156C95.9216 29.0875 95.2427 25.7865 94.8135 23.3927C95.6193 22.9873 96.3582 22.5442 96.9328 22.1193C98.1681 21.206 98.0579 19.3264 97.0477 17.7644C96.5944 17.0634 96.0171 16.5477 95.4289 16.3712C94.6877 16.1489 94.0153 16.4779 93.6035 17.2941C93.2162 18.0619 93.2382 19.5164 93.815 22.8838C93.1991 23.1665 92.559 23.4196 91.9414 23.6164C91.6399 22.4547 91.395 21.6163 91.2063 21.1004C90.5767 19.3781 89.3005 18.1736 88.0932 18.181C86.6957 18.1896 85.9781 19.67 86.2315 22.0982C86.4907 24.5816 88.3681 25.3594 91.1233 24.7603C91.1829 24.7474 91.2429 24.7338 91.3033 24.7195C92.2797 28.634 93.7758 35.497 95.785 45.2841L90.0799 46.393C85.0251 35.7001 82.0671 28.1388 81.206 23.7091C79.9144 17.0644 82.8649 12.8043 90.9206 11.1939C98.9764 9.58363 102.398 14.4987 103.352 19.4044C103.987 22.6749 104.469 30.7176 104.796 43.5326L99.0451 44.6504ZM98.1707 44.8203L96.6594 45.1141C94.6441 35.2968 93.147 28.4273 92.1614 24.4816C92.7597 24.2933 93.3761 24.0559 93.9752 23.7896C94.4091 26.1782 95.079 29.4062 96.024 33.8025C96.4846 35.9453 97.2003 39.6187 98.1707 44.8203ZM94.3988 17.696C94.6239 17.2499 94.8644 17.1322 95.1735 17.2249C95.5283 17.3313 95.9513 17.7093 96.2999 18.2482C97.0869 19.4652 97.1674 20.8374 96.4032 21.4024C95.9253 21.7557 95.3191 22.1258 94.6533 22.4732C94.1676 19.5877 94.1187 18.2513 94.3988 17.696ZM90.9337 23.8895C88.6296 24.3904 87.3092 23.8434 87.1175 22.0061C86.9111 20.0291 87.3728 19.0767 88.0992 19.0722C88.867 19.0675 89.8561 20.0009 90.3698 21.4061C90.5513 21.9028 90.7895 22.7195 91.0839 23.8555C91.0335 23.8673 90.9834 23.8787 90.9337 23.8895Z" fill="#9EE84C"/>
<path fill-rule="evenodd" clip-rule="evenodd" d="M48.7813 123.099C31.5552 117.237 19.3807 113.026 12.2578 110.465C12.3009 110.38 12.3252 110.283 12.3252 110.181V99.0649L16.9699 95.8527C17.1139 95.7532 17.2037 95.6044 17.2322 95.4447L69.5148 104.785C69.399 104.996 69.4098 105.264 69.5639 105.468C71.9629 108.654 74.2557 111.185 76.4468 113.063L68.9353 109.36C68.6071 109.198 68.2658 109.064 67.915 108.96C65.6875 108.299 64.4553 108.042 63.907 108.191C63.1218 108.404 62.3308 108.911 61.5079 109.653C60.9392 110.167 60.4712 110.672 59.8121 111.441C58.6266 112.825 58.2097 114.246 58.5851 115.636C56.9842 115.331 55.4934 115.794 54.1712 117.017C52.7359 118.345 52.2505 119.896 52.7348 121.572C51.1009 121.486 49.7665 121.993 48.7813 123.099ZM78.4118 114.59C81.0899 116.456 85.3418 118.767 91.177 121.532L72.1446 145.328L80.4732 168.144L99.7531 229.943H88.4611C88.6573 231.155 88.7565 232.415 88.7565 233.697C88.7565 240.341 86.344 245.403 81.434 248.405C78.6512 250.106 74.3475 251.366 71.0871 251.366C66.9293 251.366 63.2904 249.819 59.9167 246.881C55.8651 243.352 53.4177 238.674 53.4177 233.697C53.4177 232.404 53.5699 231.156 53.869 229.943H45.3718L47.2305 168.144V146.889C47.2305 145.881 47.588 144.906 48.2394 144.137L54.6848 136.525L58.4904 140.405C59.6612 141.598 61.4393 141.962 62.9846 141.324C63.7207 141.02 64.4043 140.525 65.0352 139.847C66.2916 138.496 66.7819 136.888 66.5057 135.073C68.2592 135.563 69.8222 135.103 71.0999 133.694C72.297 132.374 72.6443 130.808 72.1525 129.068C74.0512 129.323 75.6473 128.829 76.8861 127.575C78.4812 125.961 78.5134 123.796 77.0698 121.239C77.0096 121.133 76.9358 121.034 76.8503 120.946L74.8157 118.859L78.2779 114.846C78.3444 114.769 78.3886 114.681 78.4118 114.59ZM201.169 113.094L255.193 81.7126L267.308 64.1432C267.367 64.0965 267.426 64.0508 267.485 64.0059C267.726 64.2443 267.974 64.4744 268.228 64.6959C269.375 65.6965 270.616 66.5281 271.981 67.1103C271.674 68.5623 270.828 71.016 269.442 74.4713L267.437 77.637C267.251 77.9314 267.338 78.3213 267.633 78.5078C267.927 78.6943 268.317 78.6067 268.504 78.3123L270.521 75.127L279.213 73.9256C279.81 71.265 280.368 69.0477 280.886 67.2737C282.121 66.885 283.285 66.3762 284.193 65.8205C285.452 65.0498 286.472 64.1046 287.273 63.0104C287.415 63.3519 287.486 63.7294 287.468 64.1234L286.744 80.0252H280.596C280.247 80.0252 279.965 80.3077 279.965 80.6562C279.965 81.0047 280.247 81.2873 280.596 81.2873H287.124C292.396 81.7389 295.712 81.9647 297.073 81.9647C298.605 81.9647 299.903 83.0931 300.116 84.6099C300.302 85.9405 299.607 87.1914 298.475 87.7715L283.821 87.6894C283.473 87.6875 283.188 87.9684 283.186 88.3169C283.185 88.6654 283.465 88.9495 283.814 88.9515L297.049 89.0257C298.419 89.3483 299.297 89.7267 299.683 90.1609C300.105 90.6353 300.348 91.2425 300.37 91.8772C300.421 93.3796 299.245 94.6391 297.742 94.6903L262.904 95.8792L208.562 128.379L201.288 119.306V113.464C201.288 113.326 201.244 113.198 201.169 113.094ZM207.469 129.033L203.654 131.314C201.05 132.872 197.76 132.685 195.348 130.844L192.469 128.645C192.493 128.626 192.516 128.606 192.538 128.584L200.606 120.474L207.469 129.033ZM60.6971 74.76L17.242 73.9921C17.2446 73.846 17.1968 73.6982 17.0959 73.5771L12.3252 67.8484V57.0027H71.5122C65.9463 60.1303 62.3374 66.0684 60.6971 74.76ZM88.9585 49.5138L88.7614 48.0604C88.649 47.2317 89.2027 46.4593 90.0237 46.2997L105.518 43.288C106.342 43.1277 107.148 43.6421 107.35 44.4579L107.835 46.4169L89.1078 49.4702C89.0552 49.4788 89.0053 49.4936 88.9585 49.5138ZM118.753 112.568L124.907 158.286L144.781 229.943H128.513V245.213C128.513 248.611 125.758 251.366 122.36 251.366C118.962 251.366 116.207 248.611 116.207 245.213V229.943H102.775L105.882 160.591L98.3877 122.879C100.22 118.957 103.047 116.153 106.888 114.446C109.372 113.342 113.218 112.746 118.409 112.675C118.536 112.674 118.654 112.634 118.753 112.568ZM11.0631 110.034C7.21989 108.641 5.12446 107.82 4.77683 107.569C2.46994 105.907 0.882812 103.204 0.882812 99.9844V99.3651H11.0631V110.034ZM0.882812 98.103V68.7078H11.3985L16.1261 74.3848C16.2508 74.5345 16.4302 74.6119 16.611 74.612V94.7026C16.487 94.7025 16.3617 94.7388 16.2521 94.8147L11.4972 98.103H0.882812ZM0.882812 67.4457V66.3803C0.882812 63.1606 2.46994 60.4573 4.77683 58.7953C6.43788 57.5987 8.39356 57.0027 10.3486 57.0027H11.0631V67.4457H0.882812ZM117.469 229.943V245.213C117.469 247.914 119.659 250.104 122.36 250.104C125.061 250.104 127.251 247.914 127.251 245.213V229.943H117.469ZM87.1811 229.943H80.969C81.3207 231.101 81.4994 232.381 81.4994 233.697C81.4994 237.599 80.0722 240.594 77.1672 242.37C75.5283 243.372 73.0093 244.109 71.0871 244.109C68.6307 244.109 66.4809 243.195 64.4979 241.468C62.1169 239.394 60.6748 236.638 60.6748 233.697C60.6748 232.375 60.944 231.132 61.4645 229.943H55.1728C54.8458 231.155 54.6798 232.402 54.6798 233.697C54.6798 238.281 56.9528 242.626 60.7456 245.929C63.9024 248.678 67.2556 250.104 71.0871 250.104C74.1105 250.104 78.1874 248.911 80.7756 247.328C85.2807 244.574 87.4944 239.929 87.4944 233.697C87.4944 232.41 87.3886 231.148 87.1811 229.943ZM62.8615 229.943C62.2499 231.134 61.9369 232.371 61.9369 233.697C61.9369 236.245 63.2046 238.668 65.3268 240.516C67.0929 242.054 68.9571 242.847 71.0871 242.847C72.7723 242.847 75.0644 242.176 76.5089 241.293C79.0088 239.764 80.2373 237.187 80.2373 233.697C80.2373 232.356 80.0331 231.066 79.6415 229.943H62.8615ZM264.001 84.7303C268.78 83.2673 273.027 85.0942 276.848 90.3241C277.053 90.6055 277.448 90.667 277.73 90.4614C278.011 90.2558 278.072 89.861 277.867 89.5796C273.75 83.9454 268.97 81.8891 263.632 83.5235C263.299 83.6256 263.111 83.9784 263.213 84.3117C263.315 84.6449 263.668 84.8324 264.001 84.7303ZM60.252 116.277C59.3989 114.968 59.5534 113.683 60.7704 112.263C62.1721 110.627 63.2145 109.686 64.2375 109.409C64.4434 109.353 65.6534 109.606 67.556 110.17C67.8383 110.254 68.1131 110.362 68.3772 110.492L76.7895 114.639L73.8775 118.014L70.6395 115.148C70.3786 114.917 69.9798 114.941 69.7487 115.202C69.5175 115.462 69.5416 115.861 69.8025 116.092L73.7233 119.563C73.745 119.582 73.7676 119.6 73.791 119.615L75.9464 121.827C75.9559 121.837 75.9641 121.848 75.9708 121.86C77.1613 123.968 77.1381 125.524 75.9883 126.688C74.8859 127.804 73.4271 128.135 71.5274 127.664C71.4976 127.605 71.458 127.55 71.4085 127.501L60.252 116.277ZM59.3961 117.206L70.5192 128.397C70.5359 128.413 70.5534 128.429 70.5715 128.443C70.5771 128.458 70.5834 128.473 70.5903 128.488C71.4028 130.234 71.2547 131.645 70.165 132.847C69.0002 134.131 67.634 134.344 65.8949 133.487C65.8624 133.471 65.8297 133.458 65.797 133.448C65.7744 133.414 65.7482 133.381 65.7182 133.351L54.2519 121.99C53.4793 120.442 53.727 119.147 55.0282 117.944C56.3361 116.734 57.7524 116.493 59.3961 117.206ZM53.3894 122.912L64.8205 134.238C64.8901 134.308 64.9721 134.359 65.0596 134.39C65.6056 136.217 65.2896 137.721 64.1112 138.987C63.5987 139.538 63.0626 139.926 62.5028 140.157C61.4329 140.599 60.202 140.347 59.3914 139.521L49.8764 129.822C48.3224 128.237 48.2222 125.733 49.6446 124.03C50.4955 123.011 51.7149 122.634 53.3894 122.912Z" fill="#212121"/>
<rect width="35.4469" height="34.2257" rx="6" transform="matrix(0.832655 -0.566089 0.545051 0.821726 256.402 37.9414)" fill="white" stroke="black" stroke-width="2" stroke-miterlimit="10" stroke-linecap="round" stroke-linejoin="round"/>
<ellipse rx="7.8771" ry="7.60574" transform="matrix(0.832654 -0.566091 0.54505 0.821727 284.353 21.8908)" fill="black"/>
<path d="M281.583 11.899L282.003 4.05811" stroke="black" stroke-width="2" stroke-miterlimit="10" stroke-linecap="round" stroke-linejoin="round"/>
<path d="M291.572 13.3246L295.029 9.89154" stroke="black" stroke-width="2" stroke-miterlimit="10" stroke-linecap="round" stroke-linejoin="round"/>
<path fill-rule="evenodd" clip-rule="evenodd" d="M108.543 47.3936L88.1654 50.6803L89.4064 56.8854C88.9054 56.6669 87.7013 56.3547 85.2072 55.939C80.4743 55.1502 76.0044 56.4868 74.361 57.2537C70.8553 59.0066 63.515 65.0761 62.2003 75.3307C60.8856 85.5852 66.9113 98.4472 70.0884 103.596C71.6223 105.678 75.5444 110.564 78.9626 113.457C82.3808 116.349 88.4941 119.263 91.1234 120.359H97.3682C101.312 115.757 102.627 114.771 106.571 112.799C109.726 111.222 115.774 110.608 118.403 110.499C134.705 106.292 135.713 86.8342 134.179 77.6314L190.382 128.904L199.4 119.373V112.142C184.172 96.4752 150.35 64.353 140.096 57.2537C129.841 50.1544 115.664 52.3236 109.858 54.2957L108.543 47.3936ZM96.6912 97.6518C89.5634 97.6518 83.7076 91.7876 83.7076 84.5051C83.7076 77.2875 89.5634 71.3583 96.692 71.3583C97.7017 71.3517 98.7077 71.4818 99.6825 71.745V79.0917C98.7916 78.6408 97.7739 78.3183 96.6912 78.3183C93.3179 78.3183 90.5818 81.0892 90.5818 84.5051C90.5818 87.9209 93.3179 90.6918 96.6912 90.6918C97.7731 90.6918 98.7916 90.4342 99.6825 89.9184V97.2651C98.7282 97.5227 97.7097 97.6518 96.6912 97.6518ZM102.801 72.9054V72.905H102.801C102.801 72.9051 102.801 72.9053 102.801 72.9054ZM102.801 72.9054V96.1051C106.875 93.9143 109.675 89.5318 109.675 84.5051C109.675 79.4787 106.938 75.0964 102.801 72.9054Z" fill="#212121"/>
</svg>
