<svg width="472" height="386" viewBox="0 0 472 386" fill="none" xmlns="http://www.w3.org/2000/svg">
<circle cx="231" cy="192" r="104" stroke="black" stroke-width="2"/>
<circle cx="231" cy="192" r="99" stroke="black" stroke-width="2"/>
<circle cx="231" cy="269" r="5" fill="black"/>
<circle cx="192" cy="259" r="5" fill="black"/>
<circle cx="164" cy="231" r="5" fill="black"/>
<circle cx="164" cy="231" r="5" fill="black"/>
<circle cx="153" cy="192" r="5" fill="black"/>
<circle cx="164" cy="153" r="5" fill="black"/>
<circle cx="192" cy="124" r="5" fill="black"/>
<path fill-rule="evenodd" clip-rule="evenodd" d="M322.995 193C322.998 192.667 323 192.334 323 192C323 141.19 281.81 100 231 100V193H322.995Z" fill="#DB00C5"/>
<circle cx="231" cy="192" r="11" fill="white" stroke="black" stroke-width="2"/>
<circle cx="231" cy="192" r="7" fill="black"/>
<line x1="231" y1="181" x2="231" y2="129" stroke="black" stroke-width="8"/>
<line x1="241" y1="192" x2="273" y2="192" stroke="black" stroke-width="8"/>
<circle cx="231" cy="114" r="5" fill="black"/>
<circle cx="270" cy="124" r="5" fill="black"/>
<circle cx="298" cy="153" r="5" fill="black"/>
<circle cx="309" cy="192" r="5" fill="black"/>
<circle cx="298" cy="231" r="5" fill="black"/>
<circle cx="270" cy="259" r="5" fill="black"/>
</svg>
