<svg width="230" height="127" viewBox="0 0 230 127" fill="none" xmlns="http://www.w3.org/2000/svg">
<rect opacity="0.3" width="230" height="127" rx="10" fill="#C4C4C4"/>
<path d="M160 77C160 52.6993 140.077 33 115.5 33C90.9232 33 71 52.6993 71 77" stroke="#AFAFAF" stroke-width="4" stroke-linecap="round" stroke-linejoin="round"/>
<path d="M71 77C71 52.6993 90.9814 33 115.63 33C131.945 33 146.215 41.6308 154 54.5143" stroke="#86EC16" stroke-width="4" stroke-linecap="round" stroke-linejoin="round"/>
<path d="M104.268 60.6688L96.1372 78.7197H93.5216L101.625 61.3097H91V59.2803H104.268V60.6688ZM119.411 70.4287C119.411 73.3211 118.911 75.471 117.913 76.8775C116.916 78.2839 115.356 78.9863 113.234 78.9863C111.14 78.9863 109.589 78.301 108.583 76.9304C107.576 75.5513 107.055 73.4946 107.018 70.7628V67.4645C107.018 64.6071 107.517 62.4846 108.515 61.096C109.513 59.7075 111.077 59.0137 113.208 59.0137C115.32 59.0137 116.875 59.6853 117.873 61.0294C118.87 62.3641 119.383 64.4294 119.411 67.2244V70.4287ZM116.916 67.0509C116.916 64.9592 116.619 63.4373 116.026 62.4846C115.432 61.5233 114.493 61.0422 113.208 61.0422C111.931 61.0422 111.001 61.519 110.417 62.4709C109.832 63.4236 109.531 64.8874 109.513 66.8638V70.8158C109.513 72.9161 109.819 74.4695 110.43 75.4753C111.05 76.4724 111.985 76.9706 113.234 76.9706C114.466 76.9706 115.379 76.4989 115.972 75.5556C116.574 74.6122 116.889 73.1254 116.916 71.096V67.0509ZM122.39 63.0186C122.39 61.8523 122.763 60.891 123.51 60.1348C124.264 59.3785 125.23 59 126.408 59C127.604 59 128.57 59.3828 129.307 60.1484C130.053 60.9046 130.426 61.8881 130.426 63.0989V64.0466C130.426 65.2215 130.049 66.1828 129.294 66.9304C128.548 67.6696 127.595 68.0387 126.435 68.0387C125.267 68.0387 124.3 67.6696 123.536 66.9304C122.772 66.1828 122.39 65.1907 122.39 63.9534V63.0186ZM124.251 64.0466C124.251 64.7413 124.449 65.3146 124.844 65.7692C125.24 66.2144 125.77 66.4366 126.435 66.4366C127.074 66.4366 127.585 66.2187 127.972 65.782C128.368 65.3462 128.566 64.7498 128.566 63.9936V63.0186C128.566 62.3239 128.372 61.7506 127.986 61.296C127.599 60.8423 127.074 60.615 126.408 60.615C125.743 60.615 125.217 60.8423 124.831 61.296C124.444 61.7506 124.251 62.3419 124.251 63.0725V64.0466ZM131.95 73.9534C131.95 72.7871 132.323 71.8309 133.07 71.0824C133.825 70.3262 134.79 69.9476 135.968 69.9476C137.146 69.9476 138.112 70.3219 138.867 71.0696C139.622 71.8172 140 72.8093 140 74.0466V74.995C140 76.1606 139.622 77.1219 138.867 77.8789C138.121 78.6266 137.163 79 135.995 79C134.827 79 133.86 78.6309 133.096 77.8917C132.332 77.1441 131.95 76.152 131.95 74.9147V73.9534ZM133.811 74.995C133.811 75.6983 134.008 76.2768 134.404 76.7305C134.8 77.1757 135.33 77.3978 135.995 77.3978C136.642 77.3978 137.159 77.18 137.546 76.7442C137.932 76.299 138.126 75.6983 138.126 74.9412V73.9534C138.126 73.2502 137.928 72.676 137.533 72.2308C137.146 71.7856 136.624 71.5634 135.968 71.5634C135.33 71.5634 134.808 71.7856 134.404 72.2308C134.008 72.6674 133.811 73.2587 133.811 74.0064V74.995ZM127.001 77.2509L125.586 76.3699L135.173 61.1764L136.589 62.0573L127.001 77.2509Z" fill="#86EC16"/>
<path opacity="0.5" d="M94.1875 95.8232H97.7715V97H92.3564V96.1406L95.8721 91.0771H92.3613V89.8906H97.6934V90.7305L94.1875 95.8232ZM100.096 97H98.6797V91.7168H100.096V97ZM98.5967 90.3496C98.5967 90.138 98.6667 89.9639 98.8066 89.8271C98.9499 89.6904 99.1436 89.6221 99.3877 89.6221C99.6286 89.6221 99.8206 89.6904 99.9639 89.8271C100.107 89.9639 100.179 90.138 100.179 90.3496C100.179 90.5645 100.105 90.7402 99.959 90.877C99.8158 91.0137 99.6253 91.082 99.3877 91.082C99.1501 91.082 98.958 91.0137 98.8115 90.877C98.6683 90.7402 98.5967 90.5645 98.5967 90.3496ZM103.694 97.0977C102.92 97.0977 102.288 96.86 101.8 96.3848C101.315 95.9095 101.072 95.2764 101.072 94.4854V94.3486C101.072 93.818 101.175 93.3444 101.38 92.9277C101.585 92.5078 101.875 92.1855 102.249 91.9609C102.627 91.7331 103.056 91.6191 103.538 91.6191C104.261 91.6191 104.829 91.847 105.242 92.3027C105.659 92.7585 105.867 93.4046 105.867 94.2412V94.8174H102.503C102.549 95.1624 102.685 95.4391 102.913 95.6475C103.144 95.8558 103.436 95.96 103.787 95.96C104.331 95.96 104.756 95.763 105.062 95.3691L105.755 96.1455C105.543 96.445 105.257 96.6794 104.896 96.8486C104.534 97.0146 104.134 97.0977 103.694 97.0977ZM103.533 92.7617C103.253 92.7617 103.025 92.8561 102.85 93.0449C102.677 93.2337 102.566 93.5039 102.518 93.8555H104.48V93.7432C104.474 93.4307 104.389 93.1898 104.227 93.0205C104.064 92.848 103.833 92.7617 103.533 92.7617ZM108.162 97H106.746V89.5H108.162V97ZM109.397 96.3066C109.397 96.082 109.472 95.8997 109.622 95.7598C109.775 95.6198 109.965 95.5498 110.193 95.5498C110.424 95.5498 110.615 95.6198 110.765 95.7598C110.918 95.8997 110.994 96.082 110.994 96.3066C110.994 96.528 110.919 96.7087 110.77 96.8486C110.62 96.9854 110.428 97.0537 110.193 97.0537C109.962 97.0537 109.772 96.9854 109.622 96.8486C109.472 96.7087 109.397 96.528 109.397 96.3066ZM109.397 92.3076C109.397 92.083 109.472 91.9007 109.622 91.7607C109.775 91.6208 109.965 91.5508 110.193 91.5508C110.424 91.5508 110.615 91.6208 110.765 91.7607C110.918 91.9007 110.994 92.083 110.994 92.3076C110.994 92.529 110.919 92.7096 110.77 92.8496C110.62 92.9863 110.428 93.0547 110.193 93.0547C109.962 93.0547 109.772 92.9863 109.622 92.8496C109.472 92.7096 109.397 92.529 109.397 92.3076ZM117.649 97H116.741V90.9795L114.92 91.6484V90.8281L117.508 89.8564H117.649V97ZM124.754 93.9678C124.754 95.0257 124.573 95.8118 124.212 96.3262C123.851 96.8405 123.286 97.0977 122.518 97.0977C121.759 97.0977 121.198 96.847 120.833 96.3457C120.468 95.8411 120.28 95.0892 120.267 94.0898V92.8838C120.267 91.8389 120.447 91.0625 120.809 90.5547C121.17 90.0469 121.736 89.793 122.508 89.793C123.273 89.793 123.836 90.0387 124.197 90.5303C124.559 91.0186 124.744 91.7738 124.754 92.7959V93.9678ZM123.851 92.7324C123.851 91.9674 123.743 91.4108 123.528 91.0625C123.313 90.7109 122.973 90.5352 122.508 90.5352C122.046 90.5352 121.709 90.7093 121.497 91.0576C121.285 91.4059 121.176 91.9414 121.17 92.6641V94.1094C121.17 94.8776 121.281 95.4456 121.502 95.8135C121.727 96.1781 122.065 96.3604 122.518 96.3604C122.964 96.3604 123.294 96.1878 123.509 95.8428C123.727 95.4977 123.841 94.9541 123.851 94.2119V92.7324ZM130.369 93.9678C130.369 95.0257 130.188 95.8118 129.827 96.3262C129.466 96.8405 128.901 97.0977 128.133 97.0977C127.374 97.0977 126.813 96.847 126.448 96.3457C126.084 95.8411 125.895 95.0892 125.882 94.0898V92.8838C125.882 91.8389 126.062 91.0625 126.424 90.5547C126.785 90.0469 127.352 89.793 128.123 89.793C128.888 89.793 129.451 90.0387 129.812 90.5303C130.174 91.0186 130.359 91.7738 130.369 92.7959V93.9678ZM129.466 92.7324C129.466 91.9674 129.358 91.4108 129.144 91.0625C128.929 90.7109 128.589 90.5352 128.123 90.5352C127.661 90.5352 127.324 90.7093 127.112 91.0576C126.901 91.4059 126.792 91.9414 126.785 92.6641V94.1094C126.785 94.8776 126.896 95.4456 127.117 95.8135C127.342 96.1781 127.68 96.3604 128.133 96.3604C128.579 96.3604 128.909 96.1878 129.124 95.8428C129.342 95.4977 129.456 94.9541 129.466 94.2119V92.7324ZM131.448 91.2578C131.448 90.8314 131.583 90.4798 131.854 90.2031C132.127 89.9264 132.477 89.7881 132.903 89.7881C133.336 89.7881 133.686 89.9281 133.953 90.208C134.223 90.4847 134.358 90.8444 134.358 91.2871V91.6338C134.358 92.0635 134.222 92.415 133.948 92.6885C133.678 92.9587 133.333 93.0938 132.913 93.0938C132.49 93.0938 132.14 92.9587 131.863 92.6885C131.587 92.415 131.448 92.0521 131.448 91.5996V91.2578ZM132.122 91.6338C132.122 91.8877 132.194 92.0977 132.337 92.2637C132.48 92.4264 132.672 92.5078 132.913 92.5078C133.144 92.5078 133.33 92.4281 133.47 92.2686C133.613 92.109 133.685 91.891 133.685 91.6143V91.2578C133.685 91.0039 133.615 90.7939 133.475 90.6279C133.335 90.4619 133.144 90.3789 132.903 90.3789C132.662 90.3789 132.472 90.4619 132.332 90.6279C132.192 90.7939 132.122 91.0104 132.122 91.2773V91.6338ZM134.91 95.2568C134.91 94.8304 135.045 94.4805 135.315 94.207C135.589 93.9303 135.939 93.792 136.365 93.792C136.792 93.792 137.142 93.9287 137.415 94.2021C137.688 94.4756 137.825 94.8385 137.825 95.291V95.6377C137.825 96.0641 137.688 96.4157 137.415 96.6924C137.145 96.9658 136.798 97.1025 136.375 97.1025C135.952 97.1025 135.602 96.9674 135.325 96.6973C135.049 96.4238 134.91 96.0609 134.91 95.6084V95.2568ZM135.584 95.6377C135.584 95.8949 135.656 96.1064 135.799 96.2725C135.942 96.4352 136.134 96.5166 136.375 96.5166C136.609 96.5166 136.797 96.4368 136.937 96.2773C137.076 96.1146 137.146 95.8949 137.146 95.6182V95.2568C137.146 94.9997 137.075 94.7897 136.932 94.627C136.792 94.4642 136.603 94.3828 136.365 94.3828C136.134 94.3828 135.945 94.4642 135.799 94.627C135.656 94.7865 135.584 95.0029 135.584 95.2764V95.6377ZM133.118 96.4629L132.605 96.1406L136.077 90.584L136.59 90.9062L133.118 96.4629Z" fill="black"/>
</svg>
