<svg width="472" height="386" viewBox="0 0 472 386" fill="none" xmlns="http://www.w3.org/2000/svg">
<path fill-rule="evenodd" clip-rule="evenodd" d="M117 198C117 128.412 173.412 72 243 72C312.588 72 369 128.412 369 198H303C303 164.863 276.137 138 243 138C209.863 138 183 164.863 183 198H117Z" fill="#86EC16"/>
<path d="M287.258 131.739C287.792 131.596 288.109 131.048 287.966 130.515L285.644 121.82C285.502 121.286 284.953 120.969 284.42 121.111C283.886 121.254 283.569 121.802 283.712 122.336L285.776 130.065L278.047 132.129C277.513 132.271 277.196 132.819 277.339 133.353C277.481 133.887 278.029 134.204 278.563 134.061L287.258 131.739ZM156 207C156 158.951 194.951 120 243 120V118C193.847 118 154 157.847 154 207H156ZM243 120C258.848 120 273.704 124.237 286.499 131.638L287.501 129.907C274.409 122.334 259.209 118 243 118V120Z" fill="black"/>
<path d="M187.743 111.816C187.209 111.675 186.892 111.127 187.034 110.593L189.344 101.895C189.486 101.361 190.034 101.043 190.567 101.185C191.101 101.327 191.419 101.874 191.277 102.408L189.223 110.14L196.955 112.194C197.489 112.336 197.807 112.884 197.665 113.417C197.523 113.951 196.975 114.269 196.442 114.127L187.743 111.816ZM353 207C353 146.246 303.898 97 243.333 97V95C305.008 95 355 145.147 355 207H353ZM243.333 97C223.357 97 204.631 102.356 188.502 111.715L187.498 109.985C203.924 100.454 222.995 95 243.333 95V97Z" fill="black"/>
<path d="M104 288.774V164.09L143.462 141.84L182.925 164.09V288.774L143.462 311.863L104 288.774Z" fill="white"/>
<mask id="path-5-inside-1" fill="white">
<path fill-rule="evenodd" clip-rule="evenodd" d="M105 163.67V288.205L143.462 311.119L181.925 288.205V163.67H183.925V288.774V289.342L183.436 289.633L143.974 313.142L143.462 313.447L142.95 313.142L103.488 289.633L103 289.342V288.774V163.67H105Z"/>
</mask>
<path fill-rule="evenodd" clip-rule="evenodd" d="M105 163.67V288.205L143.462 311.119L181.925 288.205V163.67H183.925V288.774V289.342L183.436 289.633L143.974 313.142L143.462 313.447L142.95 313.142L103.488 289.633L103 289.342V288.774V163.67H105Z" fill="white"/>
<path d="M105 288.205H103V289.342L103.976 289.924L105 288.205ZM105 163.67H107V161.67H105V163.67ZM143.462 311.119L142.439 312.837L143.462 313.447L144.486 312.837L143.462 311.119ZM181.925 288.205L182.948 289.924L183.925 289.342V288.205H181.925ZM181.925 163.67V161.67H179.925V163.67H181.925ZM183.925 163.67H185.925V161.67H183.925V163.67ZM183.925 289.342L184.948 291.06L185.925 290.478V289.342H183.925ZM183.436 289.633L182.413 287.915H182.413L183.436 289.633ZM143.974 313.142L144.998 314.86L144.998 314.86L143.974 313.142ZM143.462 313.447L142.439 315.165L143.462 315.775L144.486 315.165L143.462 313.447ZM142.95 313.142L141.927 314.86L141.927 314.86L142.95 313.142ZM103.488 289.633L102.465 291.351H102.465L103.488 289.633ZM103 289.342H101V290.478L101.976 291.06L103 289.342ZM103 163.67V161.67H101V163.67H103ZM107 288.205V163.67H103V288.205H107ZM144.486 309.401L106.024 286.487L103.976 289.924L142.439 312.837L144.486 309.401ZM144.486 312.837L182.948 289.924L180.901 286.487L142.439 309.401L144.486 312.837ZM183.925 288.205V163.67H179.925V288.205H183.925ZM181.925 165.67H183.925V161.67H181.925V165.67ZM181.925 163.67V288.774H185.925V163.67H181.925ZM181.925 288.774V289.342H185.925V288.774H181.925ZM182.901 287.624L182.413 287.915L184.46 291.351L184.948 291.06L182.901 287.624ZM182.413 287.915L142.95 311.424L144.998 314.86L184.46 291.351L182.413 287.915ZM142.95 311.424L142.439 311.729L144.486 315.165L144.998 314.86L142.95 311.424ZM144.486 311.729L143.974 311.424L141.927 314.86L142.439 315.165L144.486 311.729ZM102.465 291.351L141.927 314.86L143.974 311.424L104.512 287.915L102.465 291.351ZM101.976 291.06L102.465 291.351L104.512 287.915L104.024 287.624L101.976 291.06ZM101 288.774V289.342H105V288.774H101ZM101 163.67V288.774H105V163.67H101ZM105 161.67H103V165.67H105V161.67Z" fill="black" mask="url(#path-5-inside-1)"/>
<path d="M105.2 163.67L143.462 142.147L181.724 163.67L143.462 185.192L105.2 163.67Z" fill="white" stroke="black" stroke-width="2"/>
<path d="M143.462 185.5L143.462 311.024" stroke="black" stroke-width="2" stroke-linecap="round"/>
<path d="M108.198 169.547L139.264 187.179V193.896L108.198 176.264V169.547Z" stroke="black" stroke-width="2"/>
<path d="M127.509 182.98L136.745 188.228V190.327L127.509 185.08V182.98Z" fill="#86EC16"/>
<path d="M108.198 181.302L139.264 198.934V205.651L108.198 188.019V181.302Z" stroke="black" stroke-width="2"/>
<path d="M127.509 194.735L136.745 199.983V202.082L127.509 196.834V194.735Z" fill="#86EC16"/>
<path d="M108.198 193.057L139.264 210.689V217.406L108.198 199.774V193.057Z" stroke="black" stroke-width="2"/>
<path d="M127.509 206.49L136.745 211.738V213.837L127.509 208.589V206.49Z" fill="#86EC16"/>
<path d="M108.198 204.812L139.264 222.444V229.161L108.198 211.529V204.812Z" stroke="black" stroke-width="2"/>
<path d="M127.509 218.245L136.745 223.493V225.592L127.509 220.344V218.245Z" fill="#86EC16"/>
<path d="M108.198 216.566L139.264 234.198V240.915L108.198 223.283V216.566Z" stroke="black" stroke-width="2"/>
<path d="M127.509 230L136.745 235.248V237.347L127.509 232.099V230Z" fill="#86EC16"/>
<path d="M108.198 228.32L139.264 245.952V252.669L108.198 235.037V228.32Z" stroke="black" stroke-width="2"/>
<path d="M127.509 241.754L136.745 247.002V249.101L127.509 243.853V241.754Z" fill="#86EC16"/>
<path d="M108.198 240.075L139.264 257.707V264.424L108.198 246.792V240.075Z" stroke="black" stroke-width="2"/>
<path d="M127.509 253.509L136.745 258.756V260.855L127.509 255.608V253.509Z" fill="#86EC16"/>
<path d="M108.198 251.83L139.264 269.462V276.179L108.198 258.547V251.83Z" stroke="black" stroke-width="2"/>
<path d="M127.509 265.264L136.745 270.511V272.61L127.509 267.363V265.264Z" fill="#86EC16"/>
<path d="M108.198 263.585L139.264 281.217V287.934L108.198 270.302V263.585Z" stroke="black" stroke-width="2"/>
<path d="M127.509 277.019L136.745 282.266V284.365L127.509 279.118V277.019Z" fill="#86EC16"/>
<ellipse rx="2.51887" ry="2.93868" transform="matrix(0.985556 -0.16935 0 1 162.737 182.974)" fill="black"/>
<ellipse rx="2.51887" ry="2.93868" transform="matrix(0.985556 -0.16935 0 1 162.737 292.979)" fill="black"/>
<path d="M289 288.774V164.09L328.462 141.84L367.925 164.09V288.774L328.462 311.863L289 288.774Z" fill="white"/>
<mask id="path-30-inside-2" fill="white">
<path fill-rule="evenodd" clip-rule="evenodd" d="M290 163.67V288.205L328.462 311.119L366.925 288.205V163.67H368.925V288.774V289.342L368.436 289.633L328.974 313.142L328.462 313.447L327.95 313.142L288.488 289.633L288 289.342V288.774V163.67H290Z"/>
</mask>
<path fill-rule="evenodd" clip-rule="evenodd" d="M290 163.67V288.205L328.462 311.119L366.925 288.205V163.67H368.925V288.774V289.342L368.436 289.633L328.974 313.142L328.462 313.447L327.95 313.142L288.488 289.633L288 289.342V288.774V163.67H290Z" fill="white"/>
<path d="M290 288.205H288V289.342L288.976 289.924L290 288.205ZM290 163.67H292V161.67H290V163.67ZM328.462 311.119L327.439 312.837L328.462 313.447L329.486 312.837L328.462 311.119ZM366.925 288.205L367.948 289.924L368.925 289.342V288.205H366.925ZM366.925 163.67V161.67H364.925V163.67H366.925ZM368.925 163.67H370.925V161.67H368.925V163.67ZM368.925 289.342L369.948 291.06L370.925 290.478V289.342H368.925ZM368.436 289.633L367.413 287.915H367.413L368.436 289.633ZM328.974 313.142L329.998 314.86L329.998 314.86L328.974 313.142ZM328.462 313.447L327.439 315.165L328.462 315.775L329.486 315.165L328.462 313.447ZM327.95 313.142L326.927 314.86L326.927 314.86L327.95 313.142ZM288.488 289.633L287.465 291.351H287.465L288.488 289.633ZM288 289.342H286V290.478L286.976 291.06L288 289.342ZM288 163.67V161.67H286V163.67H288ZM292 288.205V163.67H288V288.205H292ZM329.486 309.401L291.024 286.487L288.976 289.924L327.439 312.837L329.486 309.401ZM329.486 312.837L367.948 289.924L365.901 286.487L327.439 309.401L329.486 312.837ZM368.925 288.205V163.67H364.925V288.205H368.925ZM366.925 165.67H368.925V161.67H366.925V165.67ZM366.925 163.67V288.774H370.925V163.67H366.925ZM366.925 288.774V289.342H370.925V288.774H366.925ZM367.901 287.624L367.413 287.915L369.46 291.351L369.948 291.06L367.901 287.624ZM367.413 287.915L327.95 311.424L329.998 314.86L369.46 291.351L367.413 287.915ZM327.95 311.424L327.439 311.729L329.486 315.165L329.998 314.86L327.95 311.424ZM329.486 311.729L328.974 311.424L326.927 314.86L327.439 315.165L329.486 311.729ZM287.465 291.351L326.927 314.86L328.974 311.424L289.512 287.915L287.465 291.351ZM286.976 291.06L287.465 291.351L289.512 287.915L289.024 287.624L286.976 291.06ZM286 288.774V289.342H290V288.774H286ZM286 163.67V288.774H290V163.67H286ZM290 161.67H288V165.67H290V161.67Z" fill="black" mask="url(#path-30-inside-2)"/>
<path d="M290.2 163.67L328.462 142.147L366.724 163.67L328.462 185.192L290.2 163.67Z" fill="white" stroke="black" stroke-width="2"/>
<path d="M328.462 185.5L328.462 311.024" stroke="black" stroke-width="2" stroke-linecap="round"/>
<path d="M293.198 169.547L324.264 187.179V193.896L293.198 176.264V169.547Z" stroke="black" stroke-width="2"/>
<path d="M312.509 182.98L321.745 188.228V190.327L312.509 185.08V182.98Z" fill="#86EC16"/>
<path d="M293.198 181.302L324.264 198.934V205.651L293.198 188.019V181.302Z" stroke="black" stroke-width="2"/>
<path d="M312.509 194.735L321.745 199.983V202.082L312.509 196.834V194.735Z" fill="#86EC16"/>
<path d="M293.198 193.057L324.264 210.689V217.406L293.198 199.774V193.057Z" stroke="black" stroke-width="2"/>
<path d="M312.509 206.49L321.745 211.738V213.837L312.509 208.589V206.49Z" fill="#86EC16"/>
<path d="M293.198 204.812L324.264 222.444V229.161L293.198 211.529V204.812Z" stroke="black" stroke-width="2"/>
<path d="M312.509 218.245L321.745 223.493V225.592L312.509 220.344V218.245Z" fill="#86EC16"/>
<path d="M293.198 216.566L324.264 234.198V240.915L293.198 223.283V216.566Z" stroke="black" stroke-width="2"/>
<path d="M312.509 230L321.745 235.248V237.347L312.509 232.099V230Z" fill="#86EC16"/>
<path d="M293.198 228.32L324.264 245.952V252.669L293.198 235.037V228.32Z" stroke="black" stroke-width="2"/>
<path d="M312.509 241.754L321.745 247.002V249.101L312.509 243.853V241.754Z" fill="#86EC16"/>
<path d="M293.198 240.075L324.264 257.707V264.424L293.198 246.792V240.075Z" stroke="black" stroke-width="2"/>
<path d="M312.509 253.509L321.745 258.756V260.855L312.509 255.608V253.509Z" fill="#86EC16"/>
<path d="M293.198 251.83L324.264 269.462V276.179L293.198 258.547V251.83Z" stroke="black" stroke-width="2"/>
<path d="M312.509 265.264L321.745 270.511V272.61L312.509 267.363V265.264Z" fill="#86EC16"/>
<path d="M293.198 263.585L324.264 281.217V287.934L293.198 270.302V263.585Z" stroke="black" stroke-width="2"/>
<path d="M312.509 277.019L321.745 282.266V284.365L312.509 279.118V277.019Z" fill="#86EC16"/>
<ellipse rx="2.51887" ry="2.93868" transform="matrix(0.985556 -0.16935 0 1 347.737 182.974)" fill="black"/>
<ellipse rx="2.51887" ry="2.93868" transform="matrix(0.985556 -0.16935 0 1 347.737 292.979)" fill="black"/>
</svg>
