<svg width="472" height="386" viewBox="0 0 472 386" fill="none" xmlns="http://www.w3.org/2000/svg">
<path d="M236.101 243.621L200.192 275.953L193.908 238.592L95.698 206.26L141.302 190.633L111.318 146.267L235.742 189.376L236.101 243.621Z" fill="#86EC16"/>
<path d="M219.5 292.257C219.5 292.809 219.948 293.257 220.5 293.257C221.052 293.257 221.5 292.809 221.5 292.257H219.5ZM221.5 292.257C221.5 291.704 221.052 291.257 220.5 291.257C219.948 291.257 219.5 291.704 219.5 292.257H221.5ZM258 254.444C258 254.997 258.448 255.444 259 255.444C259.552 255.444 260 254.997 260 254.444H258ZM260 262.222C260 261.67 259.552 261.222 259 261.222C258.448 261.222 258 261.67 258 262.222H260ZM258 266.111C258 266.663 258.448 267.111 259 267.111C259.552 267.111 260 266.663 260 266.111H258ZM260 273.889C260 273.337 259.552 272.889 259 272.889C258.448 272.889 258 273.337 258 273.889H260ZM258 277.778C258 278.33 258.448 278.778 259 278.778C259.552 278.778 260 278.33 260 277.778H258ZM260 285.556C260 285.003 259.552 284.556 259 284.556C258.448 284.556 258 285.003 258 285.556H260ZM257.662 290.09C257.519 290.623 257.836 291.172 258.369 291.314C258.903 291.457 259.451 291.14 259.594 290.606L257.662 290.09ZM251.106 299.094C251.64 298.951 251.957 298.403 251.814 297.869C251.672 297.336 251.123 297.019 250.59 297.162L251.106 299.094ZM246.229 297.5C245.676 297.5 245.229 297.948 245.229 298.5C245.229 299.052 245.676 299.5 246.229 299.5V297.5ZM239.143 299.5C239.695 299.5 240.143 299.052 240.143 298.5C240.143 297.948 239.695 297.5 239.143 297.5V299.5ZM235.6 297.5C235.048 297.5 234.6 297.948 234.6 298.5C234.6 299.052 235.048 299.5 235.6 299.5V297.5ZM228.515 299.5C229.067 299.5 229.515 299.052 229.515 298.5C229.515 297.948 229.067 297.5 228.515 297.5V299.5ZM225.385 297.323C224.851 297.18 224.303 297.497 224.161 298.03C224.018 298.564 224.335 299.112 224.869 299.255L225.385 297.323ZM219.745 294.131C219.888 294.665 220.436 294.982 220.97 294.839C221.503 294.697 221.82 294.149 221.677 293.615L219.745 294.131ZM221.616 290.459C221.688 289.911 221.302 289.409 220.754 289.338C220.206 289.266 219.705 289.652 219.633 290.2L221.616 290.459ZM222.756 282.664C222.419 283.102 222.502 283.729 222.939 284.066C223.377 284.403 224.005 284.32 224.342 283.882L222.756 282.664ZM226.882 281.342C227.32 281.005 227.403 280.377 227.066 279.939C226.729 279.502 226.102 279.419 225.664 279.756L226.882 281.342ZM233.2 276.633C232.652 276.705 232.266 277.206 232.338 277.754C232.409 278.302 232.911 278.688 233.459 278.616L233.2 276.633ZM237.334 278.5C237.886 278.5 238.334 278.052 238.334 277.5C238.334 276.948 237.886 276.5 237.334 276.5V278.5ZM245.643 276.5C245.091 276.5 244.643 276.948 244.643 277.5C244.643 278.052 245.091 278.5 245.643 278.5V276.5ZM249.797 278.5C250.35 278.5 250.797 278.052 250.797 277.5C250.797 276.948 250.35 276.5 249.797 276.5V278.5ZM258.106 276.5C257.554 276.5 257.106 276.948 257.106 277.5C257.106 278.052 257.554 278.5 258.106 278.5V276.5ZM262.261 278.5C262.813 278.5 263.261 278.052 263.261 277.5C263.261 276.948 262.813 276.5 262.261 276.5V278.5ZM270.569 276.5C270.017 276.5 269.569 276.948 269.569 277.5C269.569 278.052 270.017 278.5 270.569 278.5V276.5ZM274.724 278.5C275.276 278.5 275.724 278.052 275.724 277.5C275.724 276.948 275.276 276.5 274.724 276.5V278.5ZM283.033 276.5C282.481 276.5 282.033 276.948 282.033 277.5C282.033 278.052 282.481 278.5 283.033 278.5V276.5ZM287.187 278.5C287.74 278.5 288.187 278.052 288.187 277.5C288.187 276.948 287.74 276.5 287.187 276.5V278.5ZM295.496 276.5C294.944 276.5 294.496 276.948 294.496 277.5C294.496 278.052 294.944 278.5 295.496 278.5V276.5ZM299.651 278.5C300.203 278.5 300.651 278.052 300.651 277.5C300.651 276.948 300.203 276.5 299.651 276.5V278.5ZM307.959 276.5C307.407 276.5 306.959 276.948 306.959 277.5C306.959 278.052 307.407 278.5 307.959 278.5V276.5ZM312.114 278.5C312.666 278.5 313.114 278.052 313.114 277.5C313.114 276.948 312.666 276.5 312.114 276.5V278.5ZM320.423 276.5C319.87 276.5 319.423 276.948 319.423 277.5C319.423 278.052 319.87 278.5 320.423 278.5V276.5ZM323.5 275.417C323.5 274.864 323.052 274.417 322.5 274.417C321.948 274.417 321.5 274.864 321.5 275.417H323.5ZM321.5 267.083C321.5 267.636 321.948 268.083 322.5 268.083C323.052 268.083 323.5 267.636 323.5 267.083H321.5ZM323.5 262.917C323.5 262.364 323.052 261.917 322.5 261.917C321.948 261.917 321.5 262.364 321.5 262.917H323.5ZM321.5 254.583C321.5 255.136 321.948 255.583 322.5 255.583C323.052 255.583 323.5 255.136 323.5 254.583H321.5ZM323.5 250.417C323.5 249.864 323.052 249.417 322.5 249.417C321.948 249.417 321.5 249.864 321.5 250.417H323.5ZM321.5 242.083C321.5 242.636 321.948 243.083 322.5 243.083C323.052 243.083 323.5 242.636 323.5 242.083H321.5ZM323.5 237.917C323.5 237.364 323.052 236.917 322.5 236.917C321.948 236.917 321.5 237.364 321.5 237.917H323.5ZM321.5 229.583C321.5 230.136 321.948 230.583 322.5 230.583C323.052 230.583 323.5 230.136 323.5 229.583H321.5ZM323.5 225.417C323.5 224.864 323.052 224.417 322.5 224.417C321.948 224.417 321.5 224.864 321.5 225.417H323.5ZM321.5 217.083C321.5 217.636 321.948 218.083 322.5 218.083C323.052 218.083 323.5 217.636 323.5 217.083H321.5ZM323.5 212.917C323.5 212.364 323.052 211.917 322.5 211.917C321.948 211.917 321.5 212.364 321.5 212.917H323.5ZM321.5 204.583C321.5 205.136 321.948 205.583 322.5 205.583C323.052 205.583 323.5 205.136 323.5 204.583H321.5ZM323.545 200.403C323.569 199.852 323.141 199.385 322.589 199.361C322.037 199.338 321.57 199.766 321.547 200.318L323.545 200.403ZM322.675 191.674C322.556 192.214 322.897 192.747 323.436 192.866C323.976 192.985 324.509 192.645 324.628 192.105L322.675 191.674ZM325.709 188.061C325.875 187.535 325.583 186.973 325.056 186.807C324.529 186.641 323.968 186.934 323.802 187.46L325.709 188.061ZM327.141 179.407C326.885 179.897 327.075 180.501 327.565 180.756C328.055 181.012 328.659 180.822 328.914 180.332L327.141 179.407ZM331.011 176.707C331.309 176.242 331.172 175.624 330.707 175.326C330.241 175.029 329.623 175.166 329.326 175.631L331.011 176.707ZM334.636 168.72C334.263 169.127 334.29 169.76 334.697 170.133C335.104 170.506 335.737 170.479 336.11 170.072L334.636 168.72ZM339.072 167.11C339.479 166.737 339.506 166.104 339.133 165.697C338.76 165.29 338.127 165.263 337.72 165.636L339.072 167.11ZM344.631 160.326C344.166 160.623 344.029 161.241 344.326 161.707C344.624 162.172 345.242 162.309 345.707 162.011L344.631 160.326ZM349.332 159.914C349.822 159.659 350.012 159.055 349.756 158.565C349.501 158.075 348.897 157.885 348.407 158.141L349.332 159.914ZM356.46 154.802C355.934 154.968 355.641 155.529 355.807 156.056C355.973 156.583 356.535 156.875 357.061 156.709L356.46 154.802ZM361.105 155.628C361.645 155.509 361.985 154.976 361.866 154.436C361.747 153.897 361.214 153.556 360.674 153.675L361.105 155.628ZM369.318 152.547C368.766 152.57 368.338 153.037 368.361 153.589C368.385 154.141 368.852 154.569 369.403 154.545L369.318 152.547ZM373.208 154.5C373.761 154.5 374.208 154.052 374.208 153.5C374.208 152.948 373.761 152.5 373.208 152.5V154.5ZM380.042 152.5C379.489 152.5 379.042 152.948 379.042 153.5C379.042 154.052 379.489 154.5 380.042 154.5V152.5ZM383.458 154.5C384.011 154.5 384.458 154.052 384.458 153.5C384.458 152.948 384.011 152.5 383.458 152.5V154.5ZM390.292 152.5C389.739 152.5 389.292 152.948 389.292 153.5C389.292 154.052 389.739 154.5 390.292 154.5V152.5ZM324.431 278.5C324.983 278.5 325.431 278.052 325.431 277.5C325.431 276.948 324.983 276.5 324.431 276.5V278.5ZM332.153 276.5C331.6 276.5 331.153 276.948 331.153 277.5C331.153 278.052 331.6 278.5 332.153 278.5V276.5ZM336.014 278.5C336.566 278.5 337.014 278.052 337.014 277.5C337.014 276.948 336.566 276.5 336.014 276.5V278.5ZM343.736 276.5C343.184 276.5 342.736 276.948 342.736 277.5C342.736 278.052 343.184 278.5 343.736 278.5V276.5ZM347.597 278.5C348.15 278.5 348.597 278.052 348.597 277.5C348.597 276.948 348.15 276.5 347.597 276.5V278.5ZM355.319 276.5C354.767 276.5 354.319 276.948 354.319 277.5C354.319 278.052 354.767 278.5 355.319 278.5V276.5ZM359.181 278.5C359.733 278.5 360.181 278.052 360.181 277.5C360.181 276.948 359.733 276.5 359.181 276.5V278.5ZM366.903 276.5C366.35 276.5 365.903 276.948 365.903 277.5C365.903 278.052 366.35 278.5 366.903 278.5V276.5ZM370.764 278.5C371.316 278.5 371.764 278.052 371.764 277.5C371.764 276.948 371.316 276.5 370.764 276.5V278.5ZM378.486 276.5C377.934 276.5 377.486 276.948 377.486 277.5C377.486 278.052 377.934 278.5 378.486 278.5V276.5ZM382.347 278.5C382.9 278.5 383.347 278.052 383.347 277.5C383.347 276.948 382.9 276.5 382.347 276.5V278.5ZM390.069 276.5C389.517 276.5 389.069 276.948 389.069 277.5C389.069 278.052 389.517 278.5 390.069 278.5V276.5ZM258 252.5V254.444H260V252.5H258ZM258 262.222V266.111H260V262.222H258ZM258 273.889V277.778H260V273.889H258ZM258 285.556V287.5H260V285.556H258ZM258 287.5C258 288.397 257.882 289.265 257.662 290.09L259.594 290.606C259.859 289.614 260 288.573 260 287.5H258ZM250.59 297.162C249.765 297.382 248.897 297.5 248 297.5V299.5C249.073 299.5 250.114 299.359 251.106 299.094L250.59 297.162ZM248 297.5H246.229V299.5H248V297.5ZM239.143 297.5H235.6V299.5H239.143V297.5ZM228.515 297.5H226.743V299.5H228.515V297.5ZM226.743 297.5C226.272 297.5 225.817 297.438 225.385 297.323L224.869 299.255C225.468 299.415 226.096 299.5 226.743 299.5V297.5ZM221.677 293.615C221.562 293.183 221.5 292.728 221.5 292.257H219.5C219.5 292.904 219.585 293.532 219.745 294.131L221.677 293.615ZM221.5 292.257C221.5 291.647 221.54 291.047 221.616 290.459L219.633 290.2C219.545 290.874 219.5 291.56 219.5 292.257H221.5ZM224.342 283.882C225.074 282.929 225.929 282.074 226.882 281.342L225.664 279.756C224.573 280.594 223.594 281.573 222.756 282.664L224.342 283.882ZM233.459 278.616C234.047 278.54 234.647 278.5 235.257 278.5V276.5C234.56 276.5 233.874 276.545 233.2 276.633L233.459 278.616ZM235.257 278.5H237.334V276.5H235.257V278.5ZM245.643 278.5H249.797V276.5H245.643V278.5ZM258.106 278.5H262.261V276.5H258.106V278.5ZM270.569 278.5H274.724V276.5H270.569V278.5ZM283.033 278.5H287.187V276.5H283.033V278.5ZM295.496 278.5H299.651V276.5H295.496V278.5ZM307.959 278.5H312.114V276.5H307.959V278.5ZM320.423 278.5H322.5V276.5H320.423V278.5ZM323.5 277.5V275.417H321.5V277.5H323.5ZM323.5 267.083V262.917H321.5V267.083H323.5ZM323.5 254.583V250.417H321.5V254.583H323.5ZM323.5 242.083V237.917H321.5V242.083H323.5ZM323.5 229.583V225.417H321.5V229.583H323.5ZM323.5 217.083V212.917H321.5V217.083H323.5ZM323.5 204.583V202.5H321.5V204.583H323.5ZM323.5 202.5C323.5 201.797 323.515 201.098 323.545 200.403L321.547 200.318C321.516 201.041 321.5 201.769 321.5 202.5H323.5ZM324.628 192.105C324.931 190.734 325.292 189.386 325.709 188.061L323.802 187.46C323.367 188.84 322.991 190.246 322.675 191.674L324.628 192.105ZM328.914 180.332C329.562 179.091 330.262 177.882 331.011 176.707L329.326 175.631C328.545 176.855 327.815 178.114 327.141 179.407L328.914 180.332ZM336.11 170.072C337.054 169.042 338.042 168.054 339.072 167.11L337.72 165.636C336.648 166.619 335.619 167.648 334.636 168.72L336.11 170.072ZM345.707 162.011C346.882 161.262 348.091 160.562 349.332 159.914L348.407 158.141C347.114 158.815 345.855 159.545 344.631 160.326L345.707 162.011ZM357.061 156.709C358.386 156.292 359.734 155.931 361.105 155.628L360.674 153.675C359.246 153.991 357.84 154.367 356.46 154.802L357.061 156.709ZM369.403 154.545C370.099 154.515 370.797 154.5 371.5 154.5V152.5C370.769 152.5 370.041 152.516 369.318 152.547L369.403 154.545ZM371.5 154.5H373.208V152.5H371.5V154.5ZM380.042 154.5H383.458V152.5H380.042V154.5ZM390.292 154.5H392V152.5H390.292V154.5ZM322.5 278.5H324.431V276.5H322.5V278.5ZM332.153 278.5H336.014V276.5H332.153V278.5ZM343.736 278.5H347.597V276.5H343.736V278.5ZM355.319 278.5H359.181V276.5H355.319V278.5ZM366.903 278.5H370.764V276.5H366.903V278.5ZM378.486 278.5H382.347V276.5H378.486V278.5ZM390.069 278.5H392V276.5H390.069V278.5Z" fill="black"/>
<path d="M292.899 221L381.089 221" stroke="#86EC16" stroke-width="6"/>
<rect x="218.183" y="189.137" width="75.9408" height="63.6923" rx="4" fill="black"/>
<path d="M236.556 220.983C236.556 231.838 245.395 240.58 256.154 240.58C257.691 240.58 259.228 240.388 260.669 240.004V229.052C259.324 229.821 257.787 230.205 256.154 230.205C251.062 230.205 246.932 226.074 246.932 220.983C246.932 215.891 251.062 211.76 256.154 211.76C257.788 211.76 259.324 212.241 260.669 212.913V201.962C259.197 201.569 257.679 201.375 256.155 201.385C245.395 201.385 236.556 210.224 236.556 220.983ZM265.377 203.691V238.274C271.525 235.009 275.751 228.476 275.751 220.983C275.751 213.489 271.619 206.957 265.375 203.691H265.377Z" fill="white"/>
<path fill-rule="evenodd" clip-rule="evenodd" d="M117.761 220.003H81V222.003H117.914C117.836 221.344 117.785 220.677 117.761 220.003ZM164.122 222.003H197.528L188.052 232.275L189.522 233.631L200.546 221.681L201.171 221.003L200.546 220.325L189.522 208.374L188.052 209.73L197.528 220.003H164.274C164.25 220.677 164.199 221.344 164.122 222.003Z" fill="black"/>
<path d="M141.018 197.73V207.794" stroke="black" stroke-width="2"/>
<path d="M141.018 234.211V244.275" stroke="black" stroke-width="2"/>
<path d="M124.995 204.546L131.924 211.662" stroke="black" stroke-width="2"/>
<path d="M150.111 230.343L157.04 237.459" stroke="black" stroke-width="2"/>
<path d="M157.041 204.547L150.112 211.663" stroke="black" stroke-width="2"/>
<path d="M131.924 230.343L124.995 237.459" stroke="black" stroke-width="2"/>
<path d="M395.787 220.698L373.74 233.427L373.74 207.969L395.787 220.698Z" fill="#86EC16"/>
<rect x="238" y="184" width="37" height="6" stroke="black" stroke-width="2"/>
<path d="M241.758 164.532C242.414 156.879 248.818 151 256.5 151C264.182 151 270.586 156.879 271.242 164.532L272.911 184H240.089L241.758 164.532Z" stroke="black" stroke-width="2"/>
<path d="M271.242 164.532L272.911 184H257.5V151.033C264.731 151.518 270.615 157.213 271.242 164.532Z" fill="black" stroke="black" stroke-width="2"/>
<path d="M256 134L256 145" stroke="black" stroke-width="2"/>
<path d="M224.5 165.5L235.5 165.5" stroke="black" stroke-width="2"/>
<path d="M276.5 165.5L287.5 165.5" stroke="black" stroke-width="2"/>
<path d="M228.72 149.75L238.246 155.25" stroke="black" stroke-width="2"/>
<path d="M240.25 138.22L245.75 147.746" stroke="black" stroke-width="2"/>
<path d="M283.28 149.75L273.754 155.25" stroke="black" stroke-width="2"/>
<path d="M271.75 138.22L266.25 147.746" stroke="black" stroke-width="2"/>
<circle cx="323" cy="277" r="4" fill="black"/>
<circle cx="392" cy="277" r="4" fill="black"/>
<circle cx="392" cy="154" r="4" fill="black"/>
</svg>
