<svg width="194" height="195" viewBox="0 0 194 195" fill="none" xmlns="http://www.w3.org/2000/svg">
<circle opacity="0.33" cx="105.5" cy="97.5" r="78.5" fill="url(#paint0_linear)"/>
<circle cx="42" cy="152.106" r="40" fill="white"/>
<circle cx="42" cy="152.106" r="41" stroke="black" stroke-opacity="0.1" stroke-width="2"/>
<path d="M23.0508 143.875V163.47H41.7041M55.3824 149.999V143.875M55.3828 136.527H23.0513V143.876H55.3828V136.527Z" stroke="#202020" stroke-width="2" stroke-miterlimit="10" stroke-linecap="round" stroke-linejoin="round"/>
<path d="M26.7802 139.089C26.1687 139.09 25.6602 139.58 25.6602 140.201C25.6602 140.823 26.1698 141.314 26.7821 141.314C27.3944 141.314 27.904 140.823 27.904 140.201L27.904 140.197C27.9029 140.051 27.8729 139.906 27.8157 139.771C27.7585 139.635 27.6752 139.513 27.5707 139.41C27.4662 139.307 27.3424 139.226 27.2064 139.171C27.071 139.116 26.9262 139.088 26.7802 139.089ZM26.7802 139.089C26.7808 139.089 26.7814 139.089 26.7821 139.089V139.589L26.7782 139.089C26.7789 139.089 26.7795 139.089 26.7802 139.089ZM31.1323 139.089C30.5208 139.09 30.0123 139.58 30.0123 140.201C30.0123 140.823 30.5219 141.314 31.1342 141.314C31.7458 141.314 32.2561 140.823 32.2562 140.201L32.2561 140.197C32.255 140.051 32.225 139.906 32.1678 139.771L31.7073 139.965L32.1678 139.771C32.1106 139.635 32.0274 139.513 31.9228 139.41C31.8183 139.307 31.6945 139.226 31.5585 139.171C31.4231 139.116 31.2783 139.088 31.1323 139.089ZM31.1323 139.089C31.1329 139.089 31.1336 139.089 31.1342 139.089V139.589L31.1303 139.089C31.131 139.089 31.1316 139.089 31.1323 139.089ZM35.4849 139.089C34.8734 139.09 34.3649 139.58 34.3649 140.201C34.3649 140.823 34.8745 141.314 35.4868 141.314C36.0991 141.314 36.6087 140.823 36.6088 140.201L36.6087 140.197C36.6076 140.051 36.5776 139.906 36.5204 139.771C36.4632 139.635 36.3799 139.513 36.2754 139.41C36.1709 139.307 36.0471 139.226 35.9111 139.171C35.7757 139.116 35.6309 139.088 35.4849 139.089ZM35.4849 139.089C35.4855 139.089 35.4862 139.089 35.4868 139.089V139.589L35.4829 139.089C35.4836 139.089 35.4842 139.089 35.4849 139.089Z" fill="black" stroke="black" stroke-miterlimit="10" stroke-linecap="round" stroke-linejoin="round"/>
<path fill-rule="evenodd" clip-rule="evenodd" d="M51.6817 169.369C57.7278 169.369 62.6291 164.468 62.6291 158.422C62.6291 152.376 57.7278 147.475 51.6817 147.475C45.6357 147.475 40.7344 152.376 40.7344 158.422C40.7344 164.468 45.6357 169.369 51.6817 169.369ZM56.4213 153.267C55.88 152.767 54.974 152.87 54.5802 153.476L53.0824 155.784C52.8046 156.212 52.8775 156.76 53.2594 157.112L54.1777 157.961C53.7002 158.514 53.1519 159.087 52.5265 159.665C51.9603 160.189 51.4028 160.649 50.8658 161.053L49.931 160.189C49.5492 159.836 48.9565 159.769 48.4935 160.025L45.9972 161.41C45.3408 161.774 45.2292 162.611 45.7706 163.111L46.2026 163.511L46.8011 164.064L46.964 164.215C47.5031 164.713 48.3266 164.835 48.9677 164.453C50.1493 163.75 51.918 162.535 53.7746 160.819C55.7219 159.019 57.0418 157.164 57.7556 155.949C58.0778 155.401 57.9554 154.742 57.5118 154.279C57.4928 154.259 57.4727 154.239 57.4518 154.219L57.4391 154.208L57.4378 154.207L56.8533 153.666L56.4213 153.267Z" fill="#86EC16"/>
<circle cx="42" cy="42.1064" r="40" fill="white"/>
<circle cx="42" cy="42.1064" r="41" stroke="black" stroke-opacity="0.1" stroke-width="2"/>
<path fill-rule="evenodd" clip-rule="evenodd" d="M35.9763 36.6328H38.7701C39.2002 36.6328 39.5491 36.9815 39.5491 37.4118V45.9521C39.5491 46.3825 39.2002 46.7311 38.7701 46.7311H35.9763C33.792 46.7311 32.0149 44.9538 32.0149 42.7693H27.2617V40.5946H32.0149C32.0149 38.4101 33.792 36.6328 35.9763 36.6328ZM48.5563 36.6328C50.7406 36.6328 52.5176 38.4101 52.5176 40.5946H57.2708V42.7693H52.5176C52.5176 44.9538 50.7406 46.7311 48.5563 46.7311H45.7624C45.3323 46.7311 44.9834 46.3825 44.9834 45.9521V44.3845H41.8396V42.8266H44.9834V40.3865H41.8396V38.8285H44.9834V37.4118C44.9834 36.9815 45.3323 36.6328 45.7624 36.6328H48.5563Z" fill="#86EC16"/>
<mask id="path-10-inside-1" fill="white">
<path fill-rule="evenodd" clip-rule="evenodd" d="M34.8669 57.4715C34.8783 55.9254 33.206 54.9517 31.867 55.7248L30.0332 56.7835C29.0766 57.3358 27.8534 57.0081 27.3011 56.0515L22.1476 47.1253C21.5953 46.1687 21.923 44.9455 22.8796 44.3932L24.7102 43.3363C26.0492 42.5633 26.0421 40.6281 24.6974 39.8649L22.9671 38.8828C21.9965 38.332 21.6646 37.0933 22.2296 36.1309L27.541 27.0845C28.0945 26.1419 29.3022 25.8182 30.2529 26.3578L32.1139 27.414C33.4415 28.1675 35.0898 27.2159 35.1011 25.6894L35.1168 23.5505C35.1249 22.4574 36.0091 21.5733 37.1022 21.5653L47.5922 21.4887C48.7082 21.4805 49.615 22.3874 49.6068 23.5034L49.5921 25.4914C49.5807 27.0375 51.2531 28.0112 52.5921 27.2382L54.4208 26.1824C55.3774 25.6301 56.6006 25.9578 57.1529 26.9144L62.3064 35.8406C62.8587 36.7972 62.5309 38.0203 61.5743 38.5726L59.7416 39.6308C58.4026 40.4038 58.4097 42.339 59.7544 43.1022L61.4849 44.0844C62.4556 44.6353 62.7875 45.874 62.2224 46.8364L56.9111 55.8827C56.3576 56.8254 55.1498 57.1491 54.1991 56.6095L52.3451 55.5572C51.0175 54.8037 49.3691 55.7553 49.3579 57.2818L49.3422 59.4152C49.3341 60.5083 48.4499 61.3925 47.3568 61.4004L36.8668 61.4771C35.7508 61.4852 34.844 60.5784 34.8523 59.4624L34.8669 57.4715Z"/>
</mask>
<path d="M36.8668 61.4771L36.8814 63.477L36.8668 61.4771ZM34.8523 59.4624L36.8522 59.4771L34.8523 59.4624ZM49.3422 59.4152L51.3421 59.43L49.3422 59.4152ZM47.3568 61.4004L47.3715 63.4004L47.3568 61.4004ZM52.3451 55.5572L51.3578 57.2965L52.3451 55.5572ZM49.3579 57.2818L47.358 57.2671L49.3579 57.2818ZM54.1991 56.6095L53.2119 58.3489L54.1991 56.6095ZM61.4849 44.0844L60.4977 45.8238L61.4849 44.0844ZM62.2224 46.8364L60.4977 45.8238L62.2224 46.8364ZM59.7416 39.6308L60.7416 41.3628L59.7416 39.6308ZM59.7544 43.1022L58.7672 44.8416L59.7544 43.1022ZM61.5743 38.5726L62.5743 40.3047L61.5743 38.5726ZM54.4208 26.1824L55.4208 27.9144L54.4208 26.1824ZM49.5921 25.4914L47.5922 25.4767L49.5921 25.4914ZM52.5921 27.2382L53.5921 28.9702L52.5921 27.2382ZM47.5922 21.4887L47.6068 23.4886L47.5922 21.4887ZM49.6068 23.5034L47.6068 23.4886L49.6068 23.5034ZM32.1139 27.414L31.1267 29.1534L32.1139 27.414ZM35.1011 25.6894L37.101 25.7041L35.1011 25.6894ZM30.2529 26.3578L29.2657 28.0971L30.2529 26.3578ZM22.9671 38.8828L21.9799 40.6222L22.9671 38.8828ZM22.2296 36.1309L20.5049 35.1182L22.2296 36.1309ZM24.7102 43.3363L25.7102 45.0684L24.7102 43.3363ZM22.8796 44.3932L21.8796 42.6612L22.8796 44.3932ZM31.867 55.7248L32.867 57.4568L31.867 55.7248ZM34.8669 57.4715L36.8669 57.4863L34.8669 57.4715ZM30.0332 56.7835L31.0332 58.5156L30.0332 56.7835ZM31.0332 58.5156L32.867 57.4568L30.867 53.9927L29.0332 55.0515L31.0332 58.5156ZM20.4155 48.1253L25.5691 57.0515L29.0332 55.0515L23.8796 46.1253L20.4155 48.1253ZM23.7102 41.6043L21.8796 42.6612L23.8796 46.1253L25.7102 45.0684L23.7102 41.6043ZM25.6847 38.1256L23.9543 37.1435L21.9799 40.6222L23.7102 41.6043L25.6847 38.1256ZM23.9543 37.1435L29.2657 28.0971L25.8163 26.0719L20.5049 35.1182L23.9543 37.1435ZM29.2657 28.0971L31.1267 29.1534L33.1011 25.6747L31.2401 24.6184L29.2657 28.0971ZM33.1169 23.5358L33.1011 25.6747L37.101 25.7041L37.1168 23.5653L33.1169 23.5358ZM47.5776 19.4888L37.0876 19.5654L37.1168 23.5653L47.6068 23.4886L47.5776 19.4888ZM51.5921 25.5061L51.6067 23.5181L47.6068 23.4886L47.5922 25.4767L51.5921 25.5061ZM53.4208 24.4503L51.5921 25.5061L53.5921 28.9702L55.4208 27.9144L53.4208 24.4503ZM64.0384 34.8406L58.8849 25.9144L55.4208 27.9144L60.5743 36.8406L64.0384 34.8406ZM60.7416 41.3628L62.5743 40.3047L60.5743 36.8406L58.7416 37.8987L60.7416 41.3628ZM62.4722 42.345L60.7416 41.3628L58.7672 44.8416L60.4977 45.8238L62.4722 42.345ZM58.6358 56.8954L63.9471 47.849L60.4977 45.8238L55.1864 54.8701L58.6358 56.8954ZM51.3578 57.2965L53.2119 58.3489L55.1864 54.8701L53.3323 53.8178L51.3578 57.2965ZM51.3421 59.43L51.3578 57.2965L47.358 57.2671L47.3422 59.4005L51.3421 59.43ZM36.8814 63.477L47.3715 63.4004L47.3422 59.4005L36.8522 59.4771L36.8814 63.477ZM32.867 57.4568L32.8523 59.4476L36.8522 59.4771L36.8669 57.4863L32.867 57.4568ZM36.8522 59.4771L36.8522 59.4771L32.8523 59.4476C32.8359 61.6797 34.6494 63.4933 36.8814 63.477L36.8522 59.4771ZM47.3422 59.4005L47.3422 59.4005L47.3715 63.4004C49.5577 63.3844 51.326 61.6162 51.3421 59.43L47.3422 59.4005ZM53.3323 53.8178C50.6771 52.3108 47.3804 54.2141 47.358 57.2671L51.3578 57.2965L51.3578 57.2965L53.3323 53.8178ZM55.1864 54.8701L55.1864 54.8701L53.2119 58.3489C55.1133 59.428 57.5288 58.7807 58.6358 56.8954L55.1864 54.8701ZM60.4977 45.8238L60.4977 45.8238L63.9471 47.849C65.0773 45.9242 64.4134 43.4468 62.4722 42.345L60.4977 45.8238ZM58.7416 37.8987C56.0636 39.4449 56.0778 43.3152 58.7672 44.8416L60.7416 41.3628L60.7416 41.3628L58.7416 37.8987ZM60.5743 36.8406L60.5743 36.8406L62.5743 40.3047C64.4875 39.2001 65.143 36.7537 64.0384 34.8406L60.5743 36.8406ZM55.4208 27.9144L55.4208 27.9144L58.8849 25.9144C57.7803 24.0012 55.334 23.3457 53.4208 24.4503L55.4208 27.9144ZM47.5922 25.4767C47.5694 28.5689 50.914 30.5164 53.5921 28.9702L51.5921 25.5061L51.5921 25.5061L47.5922 25.4767ZM47.6068 23.4886L51.6067 23.5181C51.6232 21.2861 49.8096 19.4725 47.5776 19.4888L47.6068 23.4886ZM37.1168 23.5653L37.1168 23.5653L37.0876 19.5654C34.9014 19.5813 33.133 21.3496 33.1169 23.5358L37.1168 23.5653ZM31.1267 29.1534C33.7819 30.6604 37.0785 28.7571 37.101 25.7041L33.1011 25.6747L33.1011 25.6747L31.1267 29.1534ZM29.2657 28.0971L31.2401 24.6184C29.3388 23.5393 26.9232 24.1866 25.8163 26.0719L29.2657 28.0971ZM23.9543 37.1435L23.9543 37.1435L20.5049 35.1182C19.3748 37.0431 20.0387 39.5204 21.9799 40.6222L23.9543 37.1435ZM25.7102 45.0684C28.3882 43.5222 28.374 39.6519 25.6847 38.1256L23.7102 41.6043L25.7102 45.0684ZM23.8796 46.1253L23.8796 46.1253L21.8796 42.6612C19.9665 43.7658 19.3109 46.2121 20.4155 48.1253L23.8796 46.1253ZM32.867 57.4568L32.867 57.4568L36.8669 57.4863C36.8896 54.3941 33.545 52.4466 30.867 53.9927L32.867 57.4568ZM29.0332 55.0515L29.0332 55.0515L25.5691 57.0515C26.6736 58.9646 29.12 59.6201 31.0332 58.5156L29.0332 55.0515Z" fill="black" mask="url(#path-10-inside-1)"/>
<circle cx="152" cy="152.106" r="40" fill="white"/>
<circle cx="152" cy="152.106" r="41" stroke="black" stroke-opacity="0.1" stroke-width="2"/>
<path d="M167.552 142.053L166.848 142.763L166.85 142.765L167.552 142.053ZM168.232 142.506L167.845 143.428L167.85 143.43L168.232 142.506ZM167.094 141.381L166.173 141.771L166.176 141.778L167.094 141.381ZM167.094 139.742L166.175 139.347L166.173 139.351L167.094 139.742ZM168.232 138.617L167.851 137.693L167.845 137.695L168.232 138.617ZM169.893 138.617L170.279 137.694L170.275 137.693L169.893 138.617ZM171.031 139.742L171.952 139.352L171.95 139.346L171.031 139.742ZM171.031 141.381L171.95 141.776L171.952 141.772L171.031 141.381ZM169.893 142.506L170.274 143.43L170.28 143.428L169.893 142.506ZM166.927 144.009V143.009H165.927V144.009H166.927ZM166.927 150.36H165.927V151.36H166.927V150.36ZM171.214 144.009H172.214V143.009H171.214V144.009ZM171.214 148.172H170.214V148.192L170.214 148.212L171.214 148.172ZM170.908 149.225L171.716 149.814L171.724 149.803L171.732 149.792L170.908 149.225ZM170.134 149.899L169.662 149.018L169.661 149.018L170.134 149.899ZM169.095 150.257L168.924 149.272L168.913 149.274L169.095 150.257ZM167.999 150.36V151.36L168.004 151.36L167.999 150.36ZM163.454 141.347L163.461 140.347L163.447 140.347L163.454 141.347ZM164.284 141.182L163.896 140.26L163.895 140.26L164.284 141.182ZM162.627 141.182L163.02 140.262L163.016 140.261L162.627 141.182ZM162.399 141.045L162.987 140.236L162.987 140.236L162.399 141.045ZM162.104 140.864H161.104V141.492L161.67 141.765L162.104 140.864ZM162.104 137.61L161.671 136.709L161.104 136.981V137.61H162.104ZM162.399 137.43L162.987 138.238L162.987 138.238L162.399 137.43ZM162.627 137.293L163.016 138.214L163.019 138.213L162.627 137.293ZM163.451 137.127L163.444 138.127L163.458 138.127L163.451 137.127ZM164.282 137.293L163.893 138.214L163.895 138.215L164.282 137.293ZM165.42 138.417L166.34 138.026L166.338 138.021L165.42 138.417ZM165.421 140.057L166.34 140.451L166.342 140.447L165.421 140.057ZM162.104 152.04H161.104V152.849L161.895 153.018L162.104 152.04ZM162.376 152.106L162.118 153.072L162.118 153.072L162.376 152.106ZM162.104 142.686V141.686H161.104V142.686H162.104ZM166.123 142.686H167.123V141.686H166.123V142.686ZM166.123 150.035H165.123V150.054L165.124 150.073L166.123 150.035ZM165.854 151.087L166.699 151.622L166.705 151.612L166.712 151.601L165.854 151.087ZM165.171 151.757L165.685 152.615L165.689 152.612L165.171 151.757ZM164.255 152.11L164.06 151.129L164.047 151.132L164.255 152.11ZM163.288 152.213L163.283 153.213L163.294 153.213L163.288 152.213ZM162.659 152.167L162.8 151.177L162.793 151.176L162.659 152.167ZM147.367 154.065H146.367V154.909L147.199 155.051L147.367 154.065ZM161.3 156.447L161.132 157.433L162.3 157.633V156.447H161.3ZM147.367 135.541L147.199 134.555L146.367 134.697V135.541H147.367ZM161.3 133.159H162.3V131.974L161.132 132.173L161.3 133.159ZM157.55 140.304H158.55V139.242L157.489 139.306L157.55 140.304ZM151.119 140.691L151.059 139.693L150.119 139.749V140.691H151.119ZM157.55 141.892L157.593 142.891L158.55 142.849V141.892H157.55ZM155.138 141.998L155.094 140.999L154.138 141.041V141.998H155.138ZM155.138 148.945L155.08 149.943L156.138 150.004V148.945H155.138ZM153.531 148.852H152.531V149.796L153.473 149.85L153.531 148.852ZM153.531 142.06H154.531V141.019L153.491 141.061L153.531 142.06ZM151.119 142.156H150.119V143.196L151.159 143.155L151.119 142.156ZM166.85 142.765C167.136 143.048 167.474 143.272 167.845 143.428L168.619 141.584C168.482 141.526 168.359 141.444 168.255 141.342L166.85 142.765ZM166.176 141.778C166.335 142.146 166.564 142.481 166.848 142.763L168.257 141.343C168.152 141.239 168.069 141.117 168.012 140.985L166.176 141.778ZM166.173 139.351C165.845 140.125 165.845 140.997 166.173 141.771L168.014 140.992C167.898 140.715 167.898 140.406 168.014 140.132L166.173 139.351ZM167.845 137.695C167.097 138.01 166.496 138.599 166.175 139.347L168.013 140.136C168.126 139.871 168.342 139.656 168.62 139.539L167.845 137.695ZM170.275 137.693C169.499 137.372 168.627 137.372 167.851 137.693L168.614 139.541C168.901 139.423 169.225 139.423 169.51 139.541L170.275 137.693ZM171.95 139.346C171.628 138.601 171.03 138.009 170.279 137.695L169.506 139.539C169.781 139.654 169.997 139.87 170.113 140.137L171.95 139.346ZM171.952 141.772C172.28 140.998 172.28 140.126 171.952 139.352L170.11 140.131C170.227 140.408 170.227 140.717 170.111 140.991L171.952 141.772ZM170.28 143.428C171.028 143.113 171.629 142.524 171.95 141.776L170.112 140.987C169.999 141.252 169.783 141.467 169.505 141.584L170.28 143.428ZM167.85 143.43C168.626 143.751 169.498 143.751 170.274 143.43L169.511 141.582C169.223 141.7 168.9 141.7 168.615 141.582L167.85 143.43ZM165.927 144.009V150.36H167.927V144.009H165.927ZM171.214 143.009H166.927V145.009H171.214V143.009ZM172.214 148.172V144.009H170.214V148.172H172.214ZM171.732 149.792C172.067 149.305 172.236 148.723 172.213 148.131L170.214 148.212C170.221 148.369 170.176 148.525 170.085 148.658L171.732 149.792ZM170.606 150.781C171.046 150.545 171.425 150.213 171.716 149.814L170.1 148.636C169.984 148.794 169.834 148.925 169.662 149.018L170.606 150.781ZM169.267 151.243C169.735 151.161 170.187 151.006 170.607 150.781L169.661 149.018C169.432 149.141 169.183 149.227 168.924 149.272L169.267 151.243ZM168.004 151.36C168.43 151.358 168.856 151.319 169.278 151.241L168.913 149.274C168.612 149.33 168.305 149.359 167.994 149.36L168.004 151.36ZM166.927 151.36H167.999V149.36H166.927V151.36ZM163.447 142.347C163.868 142.35 164.285 142.266 164.673 142.103L163.895 140.26C163.757 140.319 163.609 140.348 163.461 140.347L163.447 142.347ZM162.234 142.101C162.624 142.268 163.042 142.35 163.461 142.347L163.447 140.347C163.298 140.348 163.153 140.319 163.02 140.262L162.234 142.101ZM161.811 141.854C161.883 141.906 162.027 142.014 162.238 142.103L163.016 140.261C163.019 140.262 163.023 140.264 163.028 140.266C163.032 140.268 163.035 140.27 163.036 140.27C163.036 140.271 163.033 140.269 163.025 140.263C163.016 140.257 163.006 140.249 162.987 140.236L161.811 141.854ZM161.67 141.765C161.701 141.78 161.722 141.792 161.738 141.802C161.756 141.814 161.773 141.826 161.811 141.854L162.987 140.236C162.9 140.173 162.759 140.07 162.539 139.964L161.67 141.765ZM161.104 137.61V140.864H163.104V137.61H161.104ZM161.811 136.621C161.773 136.649 161.756 136.661 161.738 136.672C161.722 136.682 161.702 136.694 161.671 136.709L162.538 138.511C162.759 138.405 162.901 138.301 162.987 138.238L161.811 136.621ZM162.238 136.371C162.027 136.461 161.882 136.569 161.811 136.621L162.987 138.238C163.006 138.225 163.016 138.217 163.025 138.211C163.033 138.205 163.036 138.204 163.036 138.204C163.036 138.204 163.033 138.206 163.028 138.208C163.024 138.21 163.02 138.212 163.016 138.214L162.238 136.371ZM163.458 136.127C163.038 136.124 162.622 136.208 162.236 136.372L163.019 138.213C163.153 138.155 163.298 138.126 163.444 138.127L163.458 136.127ZM164.67 136.371C164.283 136.208 163.866 136.124 163.444 136.127L163.458 138.127C163.607 138.126 163.755 138.156 163.893 138.214L164.67 136.371ZM166.338 138.021C166.017 137.276 165.419 136.684 164.668 136.37L163.895 138.215C164.17 138.33 164.386 138.545 164.502 138.813L166.338 138.021ZM166.342 140.447C166.67 139.673 166.67 138.801 166.34 138.026L164.5 138.808C164.617 139.084 164.617 139.392 164.501 139.667L166.342 140.447ZM164.671 142.103C165.42 141.789 166.019 141.199 166.34 140.451L164.502 139.663C164.388 139.928 164.173 140.143 163.896 140.26L164.671 142.103ZM161.895 153.018C161.985 153.037 162.048 153.054 162.118 153.072L162.634 151.14C162.558 151.12 162.455 151.092 162.313 151.062L161.895 153.018ZM161.104 142.686V152.04H163.104V142.686H161.104ZM166.123 141.686H162.104V143.686H166.123V141.686ZM167.123 150.035V142.686H165.123V150.035H167.123ZM166.712 151.601C167.002 151.117 167.144 150.559 167.122 149.997L165.124 150.073C165.131 150.249 165.086 150.423 164.996 150.573L166.712 151.601ZM165.689 152.612C166.099 152.364 166.444 152.024 166.699 151.622L165.009 150.552C164.919 150.694 164.797 150.814 164.652 150.902L165.689 152.612ZM164.449 153.091C164.885 153.004 165.304 152.843 165.685 152.615L164.657 150.899C164.473 151.009 164.271 151.087 164.06 151.129L164.449 153.091ZM163.294 153.213C163.683 153.211 164.075 153.17 164.462 153.088L164.047 151.132C163.799 151.184 163.542 151.211 163.282 151.213L163.294 153.213ZM162.518 153.157C162.773 153.194 163.029 153.212 163.283 153.213L163.293 151.213C163.126 151.212 162.962 151.2 162.8 151.177L162.518 153.157ZM162.118 153.072C162.216 153.098 162.348 153.134 162.525 153.158L162.793 151.176C162.754 151.171 162.73 151.166 162.634 151.14L162.118 153.072ZM147.199 155.051L161.132 157.433L161.469 155.461L147.536 153.08L147.199 155.051ZM146.367 135.541V154.065H148.367V135.541H146.367ZM161.132 132.173L147.199 134.555L147.536 136.527L161.469 134.145L161.132 132.173ZM162.3 156.447V133.159H160.3V156.447H162.3ZM157.489 139.306L151.059 139.693L151.179 141.689L157.61 141.302L157.489 139.306ZM158.55 141.892V140.304H156.55V141.892H158.55ZM155.182 142.997L157.593 142.891L157.506 140.893L155.094 140.999L155.182 142.997ZM156.138 148.945V141.998H154.138V148.945H156.138ZM153.473 149.85L155.08 149.943L155.196 147.947L153.588 147.854L153.473 149.85ZM152.531 142.06V148.852H154.531V142.06H152.531ZM151.159 143.155L153.57 143.059L153.491 141.061L151.079 141.157L151.159 143.155ZM150.119 140.691V142.156H152.119V140.691H150.119Z" fill="black"/>
<path d="M142.519 160.856C137.627 156.032 135.433 151.38 134.947 149.658L133.925 150.666C133.044 151.534 132.774 152.841 133.368 153.919C134.617 156.187 136.927 159.649 140.335 163.009C143.584 166.213 146.679 168.481 148.747 169.794C149.869 170.506 151.31 170.278 152.254 169.348L153.586 168.034C151.936 167.651 147.412 165.68 142.519 160.856Z" fill="#86EC16"/>
<path d="M135.703 148.912C136.651 147.978 138.236 148.171 138.925 149.303L141.546 153.61C142.033 154.409 141.905 155.432 141.237 156.091L139.433 157.869C138.486 158.803 136.901 158.61 136.211 157.477L133.59 153.17C133.104 152.372 133.232 151.349 133.9 150.69L135.703 148.912Z" fill="#86EC16"/>
<path d="M154.342 167.289C155.29 166.355 155.094 164.792 153.946 164.112L149.577 161.528C148.767 161.049 147.73 161.174 147.061 161.833L145.258 163.611C144.311 164.545 144.506 166.108 145.655 166.788L150.023 169.372C150.833 169.851 151.871 169.725 152.539 169.067L154.342 167.289Z" fill="#86EC16"/>
<circle cx="152" cy="42" r="40" fill="white"/>
<circle cx="152" cy="42" r="41" stroke="black" stroke-opacity="0.1" stroke-width="2"/>
<path d="M142.519 50.7493C137.627 45.9255 135.433 41.274 134.947 39.5512L133.925 40.5596C133.044 41.4277 132.774 42.7342 133.368 43.8131C134.617 46.0809 136.927 49.543 140.335 52.9028C143.584 56.1062 146.679 58.3746 148.747 59.6871C149.869 60.3991 151.31 60.1716 152.254 59.2414L153.586 57.9276C151.936 57.5448 147.412 55.5731 142.519 50.7493Z" fill="#86EC16"/>
<path d="M135.703 38.8058C136.651 37.8718 138.236 38.0642 138.925 39.1968L141.546 43.5038C142.033 44.3027 141.905 45.3253 141.237 45.9841L139.433 47.7621C138.486 48.6961 136.901 48.5036 136.211 47.371L133.59 43.064C133.104 42.2651 133.232 41.2425 133.9 40.5837L135.703 38.8058Z" fill="#86EC16"/>
<path d="M154.342 57.1822C155.29 56.2482 155.094 54.6852 153.946 54.0056L149.577 51.4214C148.767 50.9421 147.73 51.068 147.061 51.7267L145.258 53.5047C144.311 54.4387 144.506 56.0018 145.655 56.6814L150.023 59.2655C150.833 59.7449 151.871 59.619 152.539 58.9602L154.342 57.1822Z" fill="#86EC16"/>
<path fill-rule="evenodd" clip-rule="evenodd" d="M150.211 27.263C150.211 28.0187 150.824 28.6314 151.579 28.6314C152.335 28.6314 152.948 28.0187 152.948 27.263C152.948 26.5072 152.335 25.8945 151.579 25.8945C150.824 25.8945 150.211 26.5072 150.211 27.263ZM151.579 23.8945C149.719 23.8945 148.211 25.4026 148.211 27.263C148.211 29.1233 149.719 30.6314 151.579 30.6314C153.44 30.6314 154.948 29.1233 154.948 27.263C154.948 25.4026 153.44 23.8945 151.579 23.8945ZM150.211 35.684C150.211 36.4398 150.824 37.0524 151.579 37.0524C152.335 37.0524 152.948 36.4398 152.948 35.684C152.948 34.9282 152.335 34.3156 151.579 34.3156C150.824 34.3156 150.211 34.9282 150.211 35.684ZM151.579 32.3156C149.719 32.3156 148.211 33.8237 148.211 35.684C148.211 37.5443 149.719 39.0524 151.579 39.0524C153.44 39.0524 154.948 37.5443 154.948 35.684C154.948 33.8237 153.44 32.3156 151.579 32.3156ZM151.579 45.4735C150.824 45.4735 150.211 44.8608 150.211 44.1051C150.211 43.3493 150.824 42.7366 151.579 42.7366C152.335 42.7366 152.948 43.3493 152.948 44.1051C152.948 44.8608 152.335 45.4735 151.579 45.4735ZM148.211 44.1051C148.211 42.2447 149.719 40.7366 151.579 40.7366C153.44 40.7366 154.948 42.2447 154.948 44.1051C154.948 45.9654 153.44 47.4735 151.579 47.4735C149.719 47.4735 148.211 45.9654 148.211 44.1051ZM158.632 27.263C158.632 28.0187 159.245 28.6314 160 28.6314C160.756 28.6314 161.369 28.0187 161.369 27.263C161.369 26.5072 160.756 25.8945 160 25.8945C159.245 25.8945 158.632 26.5072 158.632 27.263ZM160 23.8945C158.14 23.8945 156.632 25.4026 156.632 27.263C156.632 29.1233 158.14 30.6314 160 30.6314C161.861 30.6314 163.369 29.1233 163.369 27.263C163.369 25.4026 161.861 23.8945 160 23.8945ZM160 37.0524C159.245 37.0524 158.632 36.4398 158.632 35.684C158.632 34.9282 159.245 34.3156 160 34.3156C160.756 34.3156 161.369 34.9282 161.369 35.684C161.369 36.4398 160.756 37.0524 160 37.0524ZM156.632 35.684C156.632 33.8237 158.14 32.3156 160 32.3156C161.861 32.3156 163.369 33.8237 163.369 35.684C163.369 37.5443 161.861 39.0524 160 39.0524C158.14 39.0524 156.632 37.5443 156.632 35.684ZM158.632 44.1051C158.632 44.8608 159.245 45.4735 160 45.4735C160.756 45.4735 161.369 44.8608 161.369 44.1051C161.369 43.3493 160.756 42.7366 160 42.7366C159.245 42.7366 158.632 43.3493 158.632 44.1051ZM160 40.7366C158.14 40.7366 156.632 42.2447 156.632 44.1051C156.632 45.9654 158.14 47.4735 160 47.4735C161.861 47.4735 163.369 45.9654 163.369 44.1051C163.369 42.2447 161.861 40.7366 160 40.7366ZM168.422 28.6314C167.666 28.6314 167.053 28.0187 167.053 27.263C167.053 26.5072 167.666 25.8945 168.422 25.8945C169.177 25.8945 169.79 26.5072 169.79 27.263C169.79 28.0187 169.177 28.6314 168.422 28.6314ZM165.053 27.263C165.053 25.4026 166.561 23.8945 168.422 23.8945C170.282 23.8945 171.79 25.4026 171.79 27.263C171.79 29.1233 170.282 30.6314 168.422 30.6314C166.561 30.6314 165.053 29.1233 165.053 27.263ZM167.053 35.684C167.053 36.4398 167.666 37.0524 168.422 37.0524C169.177 37.0524 169.79 36.4398 169.79 35.684C169.79 34.9282 169.177 34.3156 168.422 34.3156C167.666 34.3156 167.053 34.9282 167.053 35.684ZM168.422 32.3156C166.561 32.3156 165.053 33.8237 165.053 35.684C165.053 37.5443 166.561 39.0524 168.422 39.0524C170.282 39.0524 171.79 37.5443 171.79 35.684C171.79 33.8237 170.282 32.3156 168.422 32.3156ZM168.422 45.4735C167.666 45.4735 167.053 44.8608 167.053 44.1051C167.053 43.3493 167.666 42.7366 168.422 42.7366C169.177 42.7366 169.79 43.3493 169.79 44.1051C169.79 44.8608 169.177 45.4735 168.422 45.4735ZM165.053 44.1051C165.053 42.2447 166.561 40.7366 168.422 40.7366C170.282 40.7366 171.79 42.2447 171.79 44.1051C171.79 45.9654 170.282 47.4735 168.422 47.4735C166.561 47.4735 165.053 45.9654 165.053 44.1051Z" fill="black"/>
<defs>
<linearGradient id="paint0_linear" x1="105.5" y1="19" x2="105.5" y2="176" gradientUnits="userSpaceOnUse">
<stop stop-color="#9BA3A2"/>
<stop offset="1" stop-color="#626A69"/>
</linearGradient>
</defs>
</svg>
