<svg width="472" height="386" viewBox="0 0 472 386" fill="none" xmlns="http://www.w3.org/2000/svg">
<rect x="131" y="96.0625" width="209.081" height="189.824" fill="white" stroke="black" stroke-width="2"/>
<line x1="130.768" y1="130.894" x2="341.081" y2="130.894" stroke="black" stroke-width="2"/>
<rect x="149.422" y="89.1572" width="4.14054" height="13.3459" fill="white" stroke="black" stroke-width="2"/>
<rect x="167.843" y="89.1572" width="4.14054" height="13.3459" fill="white" stroke="black" stroke-width="2"/>
<rect x="186.265" y="89.1572" width="4.14054" height="13.3459" fill="white" stroke="black" stroke-width="2"/>
<rect x="204.687" y="89.1572" width="4.14055" height="13.3459" fill="white" stroke="black" stroke-width="2"/>
<rect x="223.108" y="89.1572" width="4.14055" height="13.3459" fill="white" stroke="black" stroke-width="2"/>
<rect x="241.529" y="89.1572" width="4.14053" height="13.3459" fill="white" stroke="black" stroke-width="2"/>
<rect x="259.951" y="89.1572" width="4.14055" height="13.3459" fill="white" stroke="black" stroke-width="2"/>
<rect x="278.373" y="89.1572" width="4.14055" height="13.3459" fill="white" stroke="black" stroke-width="2"/>
<rect x="296.795" y="89.1572" width="4.14055" height="13.3459" fill="white" stroke="black" stroke-width="2"/>
<rect x="315.216" y="89.1572" width="4.14052" height="13.3459" fill="white" stroke="black" stroke-width="2"/>
<rect x="175.286" y="111.176" width="120.508" height="12.2767" rx="5" fill="black"/>
<rect x="143.281" y="143.635" width="19.4919" height="19.4843" stroke="black" stroke-width="2"/>
<rect x="170.914" y="143.635" width="19.4919" height="19.4843" stroke="black" stroke-width="2"/>
<rect x="198.546" y="143.635" width="19.4919" height="19.4843" stroke="black" stroke-width="2"/>
<rect x="226.179" y="143.635" width="19.4919" height="19.4843" stroke="black" stroke-width="2"/>
<rect x="253.811" y="143.635" width="19.4919" height="19.4843" stroke="black" stroke-width="2"/>
<rect x="281.443" y="143.635" width="19.4919" height="19.4843" fill="black" stroke="black" stroke-width="2"/>
<rect x="309.076" y="143.635" width="19.4919" height="19.4843" fill="black" stroke="black" stroke-width="2"/>
<rect x="143.281" y="171.258" width="19.4919" height="19.4843" stroke="black" stroke-width="2"/>
<rect x="170.914" y="171.258" width="19.4919" height="19.4843" stroke="black" stroke-width="2"/>
<rect x="197.546" y="170.258" width="21.4919" height="21.4843" fill="#DB00C5"/>
<rect x="226.179" y="171.258" width="19.4919" height="19.4843" stroke="black" stroke-width="2"/>
<rect x="253.811" y="171.258" width="19.4919" height="19.4843" stroke="black" stroke-width="2"/>
<rect x="281.443" y="171.258" width="19.4919" height="19.4843" fill="black" stroke="black" stroke-width="2"/>
<rect x="309.076" y="171.258" width="19.4919" height="19.4843" fill="black" stroke="black" stroke-width="2"/>
<rect x="143.281" y="198.881" width="19.4919" height="19.4843" stroke="black" stroke-width="2"/>
<rect x="170.914" y="198.881" width="19.4919" height="19.4843" stroke="black" stroke-width="2"/>
<rect x="198.546" y="198.881" width="19.4919" height="19.4843" stroke="black" stroke-width="2"/>
<rect x="226.179" y="198.881" width="19.4919" height="19.4843" stroke="black" stroke-width="2"/>
<rect x="253.811" y="198.881" width="19.4919" height="19.4843" stroke="black" stroke-width="2"/>
<rect x="281.443" y="198.881" width="19.4919" height="19.4843" fill="black" stroke="black" stroke-width="2"/>
<rect x="309.076" y="198.881" width="19.4919" height="19.4843" fill="black" stroke="black" stroke-width="2"/>
<rect x="143.281" y="226.503" width="19.4919" height="19.4843" stroke="black" stroke-width="2"/>
<rect x="143.281" y="254.126" width="19.4919" height="19.4843" stroke="black" stroke-width="2"/>
<rect x="170.914" y="226.503" width="19.4919" height="19.4843" stroke="black" stroke-width="2"/>
<rect x="170.914" y="254.126" width="19.4919" height="19.4843" stroke="black" stroke-width="2"/>
<rect x="198.546" y="226.503" width="19.4919" height="19.4843" stroke="black" stroke-width="2"/>
<rect x="198.546" y="254.126" width="19.4919" height="19.4843" stroke="black" stroke-width="2"/>
<rect x="226.179" y="226.503" width="19.4919" height="19.4843" stroke="black" stroke-width="2"/>
<rect x="253.811" y="226.503" width="19.4919" height="19.4843" stroke="black" stroke-width="2"/>
<rect x="281.443" y="226.503" width="19.4919" height="19.4843" fill="black" stroke="black" stroke-width="2"/>
<rect x="309.076" y="226.503" width="19.4919" height="19.4843" fill="black" stroke="black" stroke-width="2"/>
<path d="M189.252 177.995C189.252 176.228 189.505 174.039 190.141 171.778M190.141 171.778C192.026 165.068 197.272 157.722 209.222 158.867C229.192 160.78 232.52 171.778 232.044 184.212C231.569 196.645 220.158 200.949 209.222 200.949C198.286 200.949 184.497 196.167 184.497 184.212C184.497 174.648 188.259 171.938 190.141 171.778Z" stroke="#DB00C5" stroke-width="4" stroke-linecap="round"/>
</svg>
