<svg width="502" height="543" viewBox="0 0 502 543" fill="none" xmlns="http://www.w3.org/2000/svg">
<path d="M397.26 35.251H103V431.943H397.26V35.251Z" fill="black" stroke="white" stroke-width="2" stroke-miterlimit="10" stroke-linecap="round" stroke-linejoin="round"/>
<path d="M239.474 56.5713H134.858V65.6164H239.474V56.5713Z" fill="white"/>
<path d="M231.294 143.577L225.698 202.155L181.139 189.449L213.428 233.597L182.646 265.901L216.657 268.27L209.338 306.174L261.646 257.718L283.818 285.284L280.589 253.41L314.385 234.89L291.567 222.614L301.039 180.188L264.66 195.694L231.294 143.577Z" fill="#86EC16"/>
<path d="M192.978 118.811H134.858V176.958H192.978V118.811Z" fill="#86EC16"/>
<path d="M285.109 199.786H210.845V274.085H285.109V199.786Z" stroke="white" stroke-width="2" stroke-miterlimit="10" stroke-linecap="round" stroke-linejoin="round"/>
<path d="M134.858 118.811L192.978 176.958" stroke="white" stroke-width="2" stroke-miterlimit="10" stroke-linecap="round" stroke-linejoin="round"/>
<path d="M277.146 118.811H219.026V176.958H277.146V118.811Z" stroke="white" stroke-width="2" stroke-miterlimit="10" stroke-linecap="round" stroke-linejoin="round"/>
<path d="M361.312 118.811H303.192V176.958H361.312V118.811Z" stroke="white" stroke-width="2" stroke-miterlimit="10" stroke-linecap="round" stroke-linejoin="round"/>
<path d="M192.978 207.969H134.858V266.116H192.978V207.969Z" stroke="white" stroke-width="2" stroke-miterlimit="10" stroke-linecap="round" stroke-linejoin="round"/>
<path d="M192.978 299.712H134.858V357.859H192.978V299.712Z" stroke="white" stroke-width="2" stroke-miterlimit="10" stroke-linecap="round" stroke-linejoin="round"/>
<path d="M277.146 299.712H219.026V357.859H277.146V299.712Z" stroke="white" stroke-width="2" stroke-miterlimit="10" stroke-linecap="round" stroke-linejoin="round"/>
<path d="M361.312 207.969H303.192V266.116H361.312V207.969Z" stroke="white" stroke-width="2" stroke-miterlimit="10" stroke-linecap="round" stroke-linejoin="round"/>
<path d="M303.192 118.811L361.312 176.958" stroke="white" stroke-width="2" stroke-miterlimit="10" stroke-linecap="round" stroke-linejoin="round"/>
<path d="M219.026 118.811L277.146 176.958" stroke="white" stroke-width="2" stroke-miterlimit="10" stroke-linecap="round" stroke-linejoin="round"/>
<path d="M134.858 207.969L192.978 266.116" stroke="white" stroke-width="2" stroke-miterlimit="10" stroke-linecap="round" stroke-linejoin="round"/>
<path d="M135.504 19.5293V44.9417" stroke="white" stroke-width="2" stroke-miterlimit="10" stroke-linecap="round" stroke-linejoin="round"/>
<path d="M168.223 19.5293V44.9417" stroke="white" stroke-width="2" stroke-miterlimit="10" stroke-linecap="round" stroke-linejoin="round"/>
<path d="M200.943 19.5293V44.9417" stroke="white" stroke-width="2" stroke-miterlimit="10" stroke-linecap="round" stroke-linejoin="round"/>
<path d="M233.663 19.5293V44.9417" stroke="white" stroke-width="2" stroke-miterlimit="10" stroke-linecap="round" stroke-linejoin="round"/>
<path d="M266.383 19.5293V44.9417" stroke="white" stroke-width="2" stroke-miterlimit="10" stroke-linecap="round" stroke-linejoin="round"/>
<path d="M332.037 19.5293V44.9417" stroke="white" stroke-width="2" stroke-miterlimit="10" stroke-linecap="round" stroke-linejoin="round"/>
<path d="M299.101 19.5293V44.9417" stroke="white" stroke-width="2" stroke-miterlimit="10" stroke-linecap="round" stroke-linejoin="round"/>
<path d="M364.755 19.5293V44.9417" stroke="white" stroke-width="2" stroke-miterlimit="10" stroke-linecap="round" stroke-linejoin="round"/>
<path d="M355.353 231.884C353.88 236.346 358.857 241.278 361.53 243.186L388.105 248.797C389.24 242.224 386.097 239.653 384.384 239.189C385.226 238.378 386.39 236.242 384.313 234.184C382.235 232.125 379.775 233.141 378.805 233.907C379.073 231.788 378.224 227.311 372.681 226.358C367.138 225.405 364.783 228.975 364.298 230.88C361.93 229.355 356.825 227.422 355.353 231.884Z" fill="black"/>
<ellipse rx="22.26" ry="21.1813" transform="matrix(-0.9262 -0.373879 -0.356821 0.93302 367.696 257.188)" fill="black" stroke="white" stroke-width="2" stroke-miterlimit="10" stroke-linecap="round" stroke-linejoin="round"/>
<ellipse rx="2.33071" ry="2.32908" transform="matrix(-0.687022 -0.756571 -0.727867 0.650257 362.019 251.278)" fill="white"/>
<ellipse rx="2.33073" ry="2.3291" transform="matrix(-0.687021 -0.756572 -0.727867 0.650258 352.019 245.278)" fill="white"/>
<path d="M355.578 259.887L346.667 254L346.567 254.154C344.996 256.57 345.717 259.847 348.177 261.473V261.473C350.638 263.098 353.907 262.457 355.478 260.04L355.578 259.887Z" fill="white"/>
<path d="M350.549 260.071C349.746 259.25 349.74 258.603 349.933 257.984L352.673 259.793C352.176 260.496 351.165 260.702 350.549 260.071Z" fill="black"/>
<ellipse rx="0.827515" ry="0.790113" transform="matrix(-0.877101 0.413262 0.441573 0.9271 366.009 263.989)" fill="white"/>
<ellipse rx="0.82751" ry="0.790107" transform="matrix(-0.877104 0.413256 0.441579 0.927096 363.095 265.372)" fill="white"/>
<ellipse rx="0.827507" ry="0.790119" transform="matrix(-0.877097 0.413272 0.441563 0.927105 361.71 262.458)" fill="white"/>
<ellipse rx="0.827525" ry="0.790115" transform="matrix(-0.877103 0.413257 0.441578 0.927097 360.18 266.757)" fill="white"/>
<ellipse rx="0.82751" ry="0.790117" transform="matrix(-0.877097 0.413273 0.441562 0.927105 358.796 263.842)" fill="white"/>
<path d="M379.953 266.343C377.688 268.417 374.228 268.33 372.224 266.148C370.221 263.966 378.423 256.454 380.426 258.636C382.43 260.818 382.218 264.268 379.953 266.343Z" fill="black"/>
<path d="M372.19 266.126C374.522 268.665 378.272 269.02 380.567 266.918C382.861 264.816 382.831 261.054 380.5 258.514" stroke="white" stroke-width="2"/>
<path d="M375.536 263.892C376.229 264.647 377.425 264.677 378.209 263.959C378.992 263.242 379.065 262.048 378.372 261.294" stroke="white" stroke-width="2"/>
<path d="M361.53 243.186C358.857 241.278 353.88 236.346 355.353 231.884C356.825 227.422 361.93 229.355 364.298 230.88C364.783 228.975 367.138 225.405 372.681 226.358C378.224 227.311 379.073 231.788 378.805 233.907C379.775 233.141 382.235 232.125 384.313 234.184C386.39 236.242 385.226 238.378 384.384 239.189C386.097 239.653 389.24 242.224 388.105 248.797" stroke="white" stroke-width="2"/>
<path d="M460.547 495.689L474.539 496.335C474.539 496.335 475.615 509.257 492.406 508.611L491.545 464.031L458.825 465.323L460.547 495.689Z" fill="black" stroke="white" stroke-width="2" stroke-miterlimit="10" stroke-linecap="round" stroke-linejoin="round"/>
<path d="M474.539 496.334V492.458" stroke="white" stroke-width="2" stroke-miterlimit="10" stroke-linecap="round" stroke-linejoin="round"/>
<path d="M219.026 497.843L215.797 507.103C215.797 507.103 203.097 503.873 198.361 519.809L240.552 534.023L250.454 502.796L219.026 497.843Z" fill="black" stroke="white" stroke-width="2" stroke-miterlimit="10" stroke-linecap="round" stroke-linejoin="round"/>
<path d="M465.282 464.246C437.514 462.524 408.239 457.786 395.754 429.574C380.901 396.193 391.018 356.782 387.789 321.463C386.928 312.418 380.685 304.665 370.999 304.665C367.124 304.665 362.819 306.388 359.805 309.188C358.083 309.618 356.361 310.264 354.639 311.557C293.075 350.537 237.538 430.866 216.873 500.858C227.851 503.442 238.614 506.672 249.377 510.118C265.522 454.986 309.219 386.502 355.07 352.26C354.639 386.071 352.056 420.098 368.846 451.109C388.435 487.29 426.966 495.689 464.637 498.273C464.852 486.859 465.067 475.445 465.282 464.246Z" fill="white"/>
<path d="M354.855 352.044L363.035 349.46" stroke="black" stroke-width="2" stroke-miterlimit="10" stroke-linecap="round" stroke-linejoin="round"/>
<path d="M215.582 507.103L221.609 509.902" stroke="white" stroke-width="2" stroke-miterlimit="10" stroke-linecap="round" stroke-linejoin="round"/>
<path d="M363.895 275.161C340.647 274.085 333.328 283.991 332.682 303.373C332.037 322.756 332.037 324.694 332.037 324.694L393.816 327.278C393.816 327.278 393.17 306.604 391.448 297.99C389.942 288.944 389.296 276.454 363.895 275.161Z" fill="white" stroke="white" stroke-width="2" stroke-miterlimit="10" stroke-linecap="round" stroke-linejoin="round"/>
<path d="M456.457 362.382C442.896 325.555 415.128 295.405 378.964 278.822C364.757 272.361 355.931 294.974 370.138 301.65C399.414 315.002 422.446 340.415 433.64 370.35C441.174 367.981 448.923 365.181 456.457 362.382Z" fill="white" stroke="white" stroke-width="2" stroke-miterlimit="10" stroke-linecap="round" stroke-linejoin="round"/>
<path d="M455.381 385.856C455.166 382.195 454.089 377.888 454.089 377.888C454.089 377.888 455.166 381.979 456.672 385.425C458.395 384.779 460.117 384.133 461.839 383.272C461.408 378.103 459.686 370.35 456.457 362.382L433.64 370.35C435.146 382.841 432.779 389.086 435.792 389.732C439.021 390.378 439.021 378.103 441.389 381.333C442.896 383.272 443.326 387.363 444.618 389.948" fill="black"/>
<path d="M455.381 385.856C455.166 382.195 454.089 377.888 454.089 377.888C454.089 377.888 455.166 381.979 456.672 385.425C458.395 384.779 460.117 384.133 461.839 383.272C461.408 378.103 459.686 370.35 456.457 362.382L433.64 370.35C435.146 382.841 432.779 389.086 435.792 389.732C439.021 390.378 439.021 378.103 441.389 381.333C442.896 383.272 443.326 387.363 444.618 389.948" stroke="white" stroke-width="2" stroke-miterlimit="10" stroke-linecap="round" stroke-linejoin="round"/>
<path d="M456.888 386.071C454.09 380.256 460.763 377.887 462.27 379.825C463.776 381.764 458.825 389.947 456.888 386.071Z" fill="black" stroke="white" stroke-width="2" stroke-miterlimit="10" stroke-linecap="round" stroke-linejoin="round"/>
<path d="M450 388.44C448.278 381.333 456.242 380.471 457.318 383.056C458.395 385.64 451.076 393.178 450 388.44Z" fill="black" stroke="white" stroke-width="2" stroke-miterlimit="10" stroke-linecap="round" stroke-linejoin="round"/>
<path d="M447.632 384.995C451.292 380.688 453.444 387.148 451.722 389.733C450 392.317 445.48 392.748 444.619 389.948" fill="black"/>
<path d="M447.632 384.995C451.292 380.688 453.444 387.148 451.722 389.733C450 392.317 445.48 392.748 444.619 389.948" stroke="white" stroke-width="2" stroke-miterlimit="10" stroke-linecap="round" stroke-linejoin="round"/>
<path d="M384.13 282.483C387.359 290.021 392.525 311.126 392.525 311.126" stroke="black" stroke-width="2" stroke-miterlimit="10" stroke-linecap="round" stroke-linejoin="round"/>
<path d="M389.081 328.786L337.849 325.986" stroke="black" stroke-width="2" stroke-miterlimit="10" stroke-linecap="round" stroke-linejoin="round"/>
<path d="M342.37 279.684C327.517 288.944 312.879 294.759 294.798 293.682C279.514 292.605 263.585 282.914 262.724 266.332V266.116C254.759 268.054 247.01 270.639 239.26 273.008C243.35 294.759 260.356 311.557 282.097 316.51C308.574 322.325 334.19 312.634 356.362 298.635C369.493 290.021 355.716 271.285 342.37 279.684Z" fill="white" stroke="white" stroke-width="2" stroke-miterlimit="10" stroke-linecap="round" stroke-linejoin="round"/>
<path d="M262.508 264.823C267.029 257.501 260.571 252.548 257.127 252.117Z" fill="black"/>
<path d="M262.508 264.823C267.029 257.501 260.571 252.548 257.127 252.117" stroke="white" stroke-width="2" stroke-miterlimit="10" stroke-linecap="round" stroke-linejoin="round"/>
<path d="M262.508 266.116C258.849 254.917 251.1 238.981 248.732 242.211C246.364 245.441 251.961 258.578 251.961 258.578C251.961 258.578 247.01 251.256 244.427 252.548C240.767 254.271 244.427 262.024 244.427 262.024C244.427 262.024 242.489 256.855 239.045 257.286C235.816 257.717 237.108 262.239 239.045 273.007" fill="black"/>
<path d="M262.508 266.116C258.849 254.917 251.1 238.981 248.732 242.211C246.364 245.441 251.961 258.578 251.961 258.578C251.961 258.578 247.01 251.256 244.427 252.548C240.767 254.271 244.427 262.024 244.427 262.024C244.427 262.024 242.489 256.855 239.045 257.286C235.816 257.717 237.108 262.239 239.045 273.007" stroke="white" stroke-width="2" stroke-miterlimit="10" stroke-linecap="round" stroke-linejoin="round"/>
<path d="M112.041 244.149L113.979 274.73" stroke="white" stroke-width="2" stroke-miterlimit="10" stroke-linecap="round" stroke-linejoin="round"/>
<path d="M253.251 377.242L288.984 365.397" stroke="white" stroke-width="2" stroke-miterlimit="10" stroke-linecap="round" stroke-linejoin="round"/>
<path d="M259.494 388.01H268.32" stroke="white" stroke-width="2" stroke-miterlimit="10" stroke-linecap="round" stroke-linejoin="round"/>
<path d="M397.057 188.166L386.113 196.539L394.482 207.488L405.427 199.115L397.057 188.166Z" fill="white"/>
<path d="M361.743 84.1377L365.402 87.7988" stroke="white" stroke-width="2" stroke-miterlimit="10" stroke-linecap="round" stroke-linejoin="round"/>
<path d="M192.118 102.874L187.382 107.612" stroke="white" stroke-width="2" stroke-miterlimit="10" stroke-linecap="round" stroke-linejoin="round"/>
<path d="M123.666 192.895L128.186 198.494" stroke="white" stroke-width="2" stroke-miterlimit="10" stroke-linecap="round" stroke-linejoin="round"/>
<path d="M160.26 279.038L154.448 282.053" stroke="white" stroke-width="2" stroke-miterlimit="10" stroke-linecap="round" stroke-linejoin="round"/>
<path d="M353.348 102.874L347.536 108.473" stroke="white" stroke-width="2" stroke-miterlimit="10" stroke-linecap="round" stroke-linejoin="round"/>
<path d="M273.486 497.628L278.222 503.227" stroke="white" stroke-width="2" stroke-miterlimit="10" stroke-linecap="round" stroke-linejoin="round"/>
<path d="M258.632 519.164L251.098 523.902" stroke="white" stroke-width="2" stroke-miterlimit="10" stroke-linecap="round" stroke-linejoin="round"/>
<path d="M495.635 436.681L489.177 443.141" stroke="white" stroke-width="2" stroke-miterlimit="10" stroke-linecap="round" stroke-linejoin="round"/>
</svg>
