<svg width="230" height="127" viewBox="0 0 230 127" fill="none" xmlns="http://www.w3.org/2000/svg">
<mask id="mask0" style="mask-type:alpha" maskUnits="userSpaceOnUse" x="0" y="0" width="230" height="127">
<rect width="230" height="127" rx="10" fill="#C4C4C4"/>
</mask>
<g mask="url(#mask0)">
<rect opacity="0.3" width="230" height="127" rx="10" fill="#C4C4C4"/>
<path d="M-23 17C-23 14.7909 -21.2091 13 -19 13H213C215.209 13 217 14.7909 217 17V127H-23V17Z" fill="white"/>
<path d="M190 31L195 35L200 31" stroke="black" stroke-width="2"/>
<path d="M71.6484 35.5352H69.0801L68.5918 37H67.0342L69.6807 29.8906H71.0381L73.6992 37H72.1416L71.6484 35.5352ZM69.4756 34.3486H71.2529L70.3594 31.6875L69.4756 34.3486ZM75.335 31.7168L75.3789 32.3271C75.7565 31.8551 76.2627 31.6191 76.8975 31.6191C77.4574 31.6191 77.874 31.7835 78.1475 32.1123C78.4209 32.4411 78.5609 32.9326 78.5674 33.5869V37H77.1562V33.6211C77.1562 33.3216 77.0911 33.1051 76.9609 32.9717C76.8307 32.835 76.6143 32.7666 76.3115 32.7666C75.9144 32.7666 75.6165 32.9359 75.418 33.2744V37H74.0068V31.7168H75.335ZM82.6104 33.04C82.4183 33.014 82.249 33.001 82.1025 33.001C81.5687 33.001 81.2188 33.1816 81.0527 33.543V37H79.6416V31.7168H80.9746L81.0137 32.3467C81.2969 31.8617 81.6891 31.6191 82.1904 31.6191C82.3467 31.6191 82.4932 31.6403 82.6299 31.6826L82.6104 33.04ZM86.458 36.4629C86.1097 36.8861 85.6279 37.0977 85.0127 37.0977C84.4463 37.0977 84.0133 36.9349 83.7139 36.6094C83.4176 36.2839 83.2663 35.807 83.2598 35.1787V31.7168H84.6709V35.1299C84.6709 35.68 84.9215 35.9551 85.4229 35.9551C85.9014 35.9551 86.2301 35.7891 86.4092 35.457V31.7168H87.8252V37H86.4971L86.458 36.4629ZM89.2754 37V32.752H88.4893V31.7168H89.2754V31.2676C89.2754 30.6751 89.4447 30.2161 89.7832 29.8906C90.125 29.5618 90.6019 29.3975 91.2139 29.3975C91.4092 29.3975 91.6484 29.43 91.9316 29.4951L91.917 30.5889C91.7998 30.5596 91.6566 30.5449 91.4873 30.5449C90.9567 30.5449 90.6914 30.7939 90.6914 31.292V31.7168H91.7412V32.752H90.6914V37H89.2754ZM92.1514 34.3193C92.1514 33.5088 92.3434 32.8561 92.7275 32.3613C93.1149 31.8665 93.6357 31.6191 94.29 31.6191C94.8695 31.6191 95.3203 31.8177 95.6426 32.2148L95.7012 31.7168H96.9805V36.8242C96.9805 37.2865 96.8747 37.6885 96.6631 38.0303C96.4548 38.3721 96.1602 38.6325 95.7793 38.8115C95.3984 38.9906 94.9525 39.0801 94.4414 39.0801C94.054 39.0801 93.6764 39.002 93.3086 38.8457C92.9408 38.6927 92.6624 38.4941 92.4736 38.25L93.0986 37.3906C93.4502 37.7845 93.8766 37.9814 94.3779 37.9814C94.7523 37.9814 95.0436 37.8805 95.252 37.6787C95.4603 37.4801 95.5645 37.1969 95.5645 36.8291V36.5459C95.2389 36.9137 94.8109 37.0977 94.2803 37.0977C93.6455 37.0977 93.1312 36.8503 92.7373 36.3555C92.3467 35.8574 92.1514 35.1982 92.1514 34.3779V34.3193ZM93.5625 34.4219C93.5625 34.9004 93.6585 35.2764 93.8506 35.5498C94.0426 35.82 94.3063 35.9551 94.6416 35.9551C95.0713 35.9551 95.3789 35.7939 95.5645 35.4717V33.25C95.3757 32.9277 95.0713 32.7666 94.6514 32.7666C94.3128 32.7666 94.0459 32.9049 93.8506 33.1816C93.6585 33.4583 93.5625 33.8717 93.5625 34.4219ZM101.038 33.04C100.846 33.014 100.677 33.001 100.53 33.001C99.9964 33.001 99.6465 33.1816 99.4805 33.543V37H98.0693V31.7168H99.4023L99.4414 32.3467C99.7246 31.8617 100.117 31.6191 100.618 31.6191C100.774 31.6191 100.921 31.6403 101.058 31.6826L101.038 33.04ZM104.886 36.4629C104.537 36.8861 104.056 37.0977 103.44 37.0977C102.874 37.0977 102.441 36.9349 102.142 36.6094C101.845 36.2839 101.694 35.807 101.688 35.1787V31.7168H103.099V35.1299C103.099 35.68 103.349 35.9551 103.851 35.9551C104.329 35.9551 104.658 35.7891 104.837 35.457V31.7168H106.253V37H104.925L104.886 36.4629ZM108.616 31.7168L108.66 32.3271C109.038 31.8551 109.544 31.6191 110.179 31.6191C110.739 31.6191 111.155 31.7835 111.429 32.1123C111.702 32.4411 111.842 32.9326 111.849 33.5869V37H110.438V33.6211C110.438 33.3216 110.372 33.1051 110.242 32.9717C110.112 32.835 109.896 32.7666 109.593 32.7666C109.196 32.7666 108.898 32.9359 108.699 33.2744V37H107.288V31.7168H108.616ZM112.703 34.3193C112.703 33.4958 112.887 32.8398 113.255 32.3516C113.626 31.8633 114.132 31.6191 114.773 31.6191C115.288 31.6191 115.713 31.8112 116.048 32.1953V29.5H117.464V37H116.189L116.121 36.4385C115.77 36.8779 115.317 37.0977 114.764 37.0977C114.142 37.0977 113.642 36.8535 113.265 36.3652C112.89 35.8737 112.703 35.1917 112.703 34.3193ZM114.114 34.4219C114.114 34.9167 114.201 35.2959 114.373 35.5596C114.546 35.8232 114.796 35.9551 115.125 35.9551C115.561 35.9551 115.869 35.7712 116.048 35.4033V33.3184C115.872 32.9505 115.568 32.7666 115.135 32.7666C114.454 32.7666 114.114 33.3184 114.114 34.4219Z" fill="black"/>
<path d="M-15.3652 37V29.8906H-13.1777C-12.5527 29.8906 -11.9945 30.0322 -11.5029 30.3154C-11.0081 30.5954 -10.6224 30.9958 -10.3457 31.5166C-10.069 32.0342 -9.93066 32.6234 -9.93066 33.2842V33.6113C-9.93066 34.2721 -10.0674 34.8597 -10.3408 35.374C-10.611 35.8883 -10.9935 36.2871 -11.4883 36.5703C-11.9831 36.8535 -12.5413 36.9967 -13.1631 37H-15.3652ZM-13.9004 31.0771V35.8232H-13.1924C-12.6195 35.8232 -12.1816 35.6361 -11.8789 35.2617C-11.5762 34.8874 -11.4215 34.3519 -11.415 33.6553V33.2793C-11.415 32.5566 -11.5648 32.0098 -11.8643 31.6387C-12.1637 31.2643 -12.6016 31.0771 -13.1777 31.0771H-13.9004ZM-5.89258 37C-5.95768 36.873 -6.00488 36.7152 -6.03418 36.5264C-6.37598 36.9072 -6.82031 37.0977 -7.36719 37.0977C-7.88477 37.0977 -8.31445 36.9479 -8.65625 36.6484C-8.99479 36.349 -9.16406 35.9714 -9.16406 35.5156C-9.16406 34.9557 -8.95736 34.526 -8.54395 34.2266C-8.12728 33.9271 -7.52669 33.7757 -6.74219 33.7725H-6.09277V33.4697C-6.09277 33.2256 -6.15625 33.0303 -6.2832 32.8838C-6.4069 32.7373 -6.60384 32.6641 -6.87402 32.6641C-7.11165 32.6641 -7.29883 32.721 -7.43555 32.835C-7.56901 32.9489 -7.63574 33.1051 -7.63574 33.3037H-9.04688C-9.04688 32.9977 -8.95247 32.7145 -8.76367 32.4541C-8.57487 32.1937 -8.30794 31.9902 -7.96289 31.8438C-7.61784 31.694 -7.23047 31.6191 -6.80078 31.6191C-6.14974 31.6191 -5.63379 31.7835 -5.25293 32.1123C-4.86882 32.4378 -4.67676 32.8968 -4.67676 33.4893V35.7793C-4.6735 36.2806 -4.60352 36.6598 -4.4668 36.917V37H-5.89258ZM-7.05957 36.0186C-6.85124 36.0186 -6.65918 35.973 -6.4834 35.8818C-6.30762 35.7874 -6.17741 35.6621 -6.09277 35.5059V34.5977H-6.62012C-7.3265 34.5977 -7.70247 34.8418 -7.74805 35.3301L-7.75293 35.4131C-7.75293 35.5889 -7.69108 35.7337 -7.56738 35.8477C-7.44368 35.9616 -7.27441 36.0186 -7.05957 36.0186ZM-1.90332 30.418V31.7168H-1V32.752H-1.90332V35.3887C-1.90332 35.584 -1.86589 35.724 -1.79102 35.8086C-1.71615 35.8932 -1.57292 35.9355 -1.36133 35.9355C-1.20508 35.9355 -1.06673 35.9242 -0.946289 35.9014V36.9707C-1.22298 37.0553 -1.50781 37.0977 -1.80078 37.0977C-2.79036 37.0977 -3.29492 36.598 -3.31445 35.5986V32.752H-4.08594V31.7168H-3.31445V30.418H-1.90332ZM2.9502 36.4629C2.60189 36.8861 2.12012 37.0977 1.50488 37.0977C0.938477 37.0977 0.505534 36.9349 0.206055 36.6094C-0.0901693 36.2839 -0.241536 35.807 -0.248047 35.1787V31.7168H1.16309V35.1299C1.16309 35.68 1.41374 35.9551 1.91504 35.9551C2.39355 35.9551 2.72233 35.7891 2.90137 35.457V31.7168H4.31738V37H2.98926L2.9502 36.4629ZM6.70508 31.7168L6.74902 32.3076C7.12337 31.8486 7.62956 31.6191 8.26758 31.6191C8.94792 31.6191 9.41504 31.8877 9.66895 32.4248C10.04 31.8877 10.569 31.6191 11.2559 31.6191C11.8288 31.6191 12.2552 31.7868 12.5352 32.1221C12.8151 32.4541 12.9551 32.9554 12.9551 33.626V37H11.5391V33.6309C11.5391 33.3314 11.4805 33.1133 11.3633 32.9766C11.2461 32.8366 11.0394 32.7666 10.7432 32.7666C10.32 32.7666 10.027 32.9684 9.86426 33.3721L9.86914 37H8.45801V33.6357C8.45801 33.3298 8.39779 33.1084 8.27734 32.9717C8.1569 32.835 7.95182 32.7666 7.66211 32.7666C7.26172 32.7666 6.97201 32.9326 6.79297 33.2646V37H5.38184V31.7168H6.70508Z" fill="black"/>
<path d="M-11.9473 72.875C-12.1361 73.0996 -12.3623 73.2803 -12.626 73.417C-12.8864 73.5537 -13.1729 73.6221 -13.4854 73.6221C-13.8955 73.6221 -14.2536 73.5212 -14.5596 73.3193C-14.8623 73.1175 -15.0967 72.8343 -15.2627 72.4697C-15.4287 72.1019 -15.5117 71.6966 -15.5117 71.2539C-15.5117 70.7786 -15.4222 70.3506 -15.2432 69.9697C-15.0609 69.5889 -14.8037 69.2975 -14.4717 69.0957C-14.1396 68.8939 -13.7523 68.793 -13.3096 68.793C-12.6064 68.793 -12.0531 69.0566 -11.6494 69.584C-11.2425 70.1081 -11.0391 70.8242 -11.0391 71.7324V71.9961C-11.0391 73.3796 -11.3125 74.3903 -11.8594 75.0283C-12.4062 75.6631 -13.2314 75.9886 -14.335 76.0049H-14.5107V75.2432H-14.3203C-13.5749 75.2301 -13.002 75.0365 -12.6016 74.6621C-12.2012 74.2845 -11.9831 73.6888 -11.9473 72.875ZM-13.3389 72.875C-13.0361 72.875 -12.7578 72.7822 -12.5039 72.5967C-12.2467 72.4111 -12.0596 72.1816 -11.9424 71.9082V71.5469C-11.9424 70.9544 -12.071 70.4727 -12.3281 70.1016C-12.5853 69.7305 -12.9108 69.5449 -13.3047 69.5449C-13.7018 69.5449 -14.0208 69.6979 -14.2617 70.0039C-14.5026 70.3066 -14.623 70.707 -14.623 71.2051C-14.623 71.6901 -14.5075 72.0905 -14.2764 72.4062C-14.042 72.7188 -13.7295 72.875 -13.3389 72.875ZM-9.52051 76.6104H-10.2969L-7.32812 68.8906H-6.55664L-9.52051 76.6104ZM-2.7041 76H-3.6123V69.9795L-5.43359 70.6484V69.8281L-2.8457 68.8564H-2.7041V76ZM4.25391 70.7461C4.25391 71.1009 4.15951 71.4167 3.9707 71.6934C3.78516 71.9701 3.53288 72.1865 3.21387 72.3428C3.58496 72.5023 3.87793 72.735 4.09277 73.041C4.31087 73.347 4.41992 73.6937 4.41992 74.0811C4.41992 74.6963 4.21159 75.1862 3.79492 75.5508C3.38151 75.9154 2.83626 76.0977 2.15918 76.0977C1.47559 76.0977 0.927083 75.9154 0.513672 75.5508C0.103516 75.1829 -0.101562 74.693 -0.101562 74.0811C-0.101562 73.6969 0.00260417 73.3503 0.210938 73.041C0.422526 72.7318 0.713867 72.4974 1.08496 72.3379C0.769206 72.1816 0.520182 71.9652 0.337891 71.6885C0.155599 71.4118 0.0644531 71.0977 0.0644531 70.7461C0.0644531 70.1471 0.25651 69.6719 0.640625 69.3203C1.02474 68.9688 1.53092 68.793 2.15918 68.793C2.78418 68.793 3.28874 68.9688 3.67285 69.3203C4.06022 69.6719 4.25391 70.1471 4.25391 70.7461ZM3.5166 74.0615C3.5166 73.6644 3.38965 73.3405 3.13574 73.0898C2.88509 72.8392 2.55632 72.7139 2.14941 72.7139C1.74251 72.7139 1.41536 72.8376 1.16797 73.085C0.923828 73.3324 0.801758 73.6579 0.801758 74.0615C0.801758 74.4652 0.920573 74.7826 1.1582 75.0137C1.39909 75.2448 1.73275 75.3604 2.15918 75.3604C2.58236 75.3604 2.91439 75.2448 3.15527 75.0137C3.39616 74.7793 3.5166 74.4619 3.5166 74.0615ZM2.15918 69.5352C1.80436 69.5352 1.51628 69.6458 1.29492 69.8672C1.07682 70.0853 0.967773 70.3831 0.967773 70.7607C0.967773 71.1221 1.0752 71.415 1.29004 71.6396C1.50814 71.861 1.79785 71.9717 2.15918 71.9717C2.52051 71.9717 2.80859 71.861 3.02344 71.6396C3.24154 71.415 3.35059 71.1221 3.35059 70.7607C3.35059 70.3994 3.23828 70.1048 3.01367 69.877C2.78906 69.6491 2.50423 69.5352 2.15918 69.5352ZM5.83105 76.6104H5.05469L8.02344 68.8906H8.79492L5.83105 76.6104ZM12.6475 76H11.7393V69.9795L9.91797 70.6484V69.8281L12.5059 68.8564H12.6475V76ZM18.8389 68.8857V69.6523H18.6729C17.9697 69.6654 17.4098 69.8737 16.9932 70.2773C16.5765 70.681 16.3356 71.249 16.2705 71.9814C16.6449 71.5518 17.1559 71.3369 17.8037 71.3369C18.4222 71.3369 18.9154 71.555 19.2832 71.9912C19.6543 72.4274 19.8398 72.9906 19.8398 73.6807C19.8398 74.4131 19.6396 74.999 19.2393 75.4385C18.8421 75.8779 18.3083 76.0977 17.6377 76.0977C16.9574 76.0977 16.4056 75.8372 15.9824 75.3164C15.5592 74.7923 15.3477 74.1185 15.3477 73.2949V72.9482C15.3477 71.6396 15.626 70.6403 16.1826 69.9502C16.7425 69.2568 17.5742 68.902 18.6777 68.8857H18.8389ZM17.6523 72.0889C17.3431 72.0889 17.0583 72.1816 16.7979 72.3672C16.5374 72.5527 16.3568 72.7855 16.2559 73.0654V73.3975C16.2559 73.9834 16.3877 74.4554 16.6514 74.8135C16.915 75.1715 17.2438 75.3506 17.6377 75.3506C18.0446 75.3506 18.3636 75.2008 18.5947 74.9014C18.8291 74.6019 18.9463 74.2096 18.9463 73.7246C18.9463 73.2363 18.8275 72.8424 18.5898 72.543C18.3555 72.2402 18.043 72.0889 17.6523 72.0889Z" fill="black"/>
<path d="M-11.0977 106.746C-11.0977 107.101 -11.1921 107.417 -11.3809 107.693C-11.5664 107.97 -11.8187 108.187 -12.1377 108.343C-11.7666 108.502 -11.4736 108.735 -11.2588 109.041C-11.0407 109.347 -10.9316 109.694 -10.9316 110.081C-10.9316 110.696 -11.14 111.186 -11.5566 111.551C-11.9701 111.915 -12.5153 112.098 -13.1924 112.098C-13.876 112.098 -14.4245 111.915 -14.8379 111.551C-15.248 111.183 -15.4531 110.693 -15.4531 110.081C-15.4531 109.697 -15.349 109.35 -15.1406 109.041C-14.929 108.732 -14.6377 108.497 -14.2666 108.338C-14.5824 108.182 -14.8314 107.965 -15.0137 107.688C-15.196 107.412 -15.2871 107.098 -15.2871 106.746C-15.2871 106.147 -15.0951 105.672 -14.7109 105.32C-14.3268 104.969 -13.8206 104.793 -13.1924 104.793C-12.5674 104.793 -12.0628 104.969 -11.6787 105.32C-11.2913 105.672 -11.0977 106.147 -11.0977 106.746ZM-11.835 110.062C-11.835 109.664 -11.9619 109.34 -12.2158 109.09C-12.4665 108.839 -12.7952 108.714 -13.2021 108.714C-13.609 108.714 -13.9362 108.838 -14.1836 109.085C-14.4277 109.332 -14.5498 109.658 -14.5498 110.062C-14.5498 110.465 -14.431 110.783 -14.1934 111.014C-13.9525 111.245 -13.6188 111.36 -13.1924 111.36C-12.7692 111.36 -12.4372 111.245 -12.1963 111.014C-11.9554 110.779 -11.835 110.462 -11.835 110.062ZM-13.1924 105.535C-13.5472 105.535 -13.8353 105.646 -14.0566 105.867C-14.2747 106.085 -14.3838 106.383 -14.3838 106.761C-14.3838 107.122 -14.2764 107.415 -14.0615 107.64C-13.8434 107.861 -13.5537 107.972 -13.1924 107.972C-12.8311 107.972 -12.543 107.861 -12.3281 107.64C-12.11 107.415 -12.001 107.122 -12.001 106.761C-12.001 106.399 -12.1133 106.105 -12.3379 105.877C-12.5625 105.649 -12.8473 105.535 -13.1924 105.535ZM-9.52051 112.61H-10.2969L-7.32812 104.891H-6.55664L-9.52051 112.61ZM-2.7041 112H-3.6123V105.979L-5.43359 106.648V105.828L-2.8457 104.856H-2.7041V112ZM0.357422 108.436L0.71875 104.891H4.36133V105.726H1.48535L1.27051 107.664C1.61882 107.459 2.01432 107.356 2.45703 107.356C3.10482 107.356 3.61914 107.571 4 108.001C4.38086 108.427 4.57129 109.005 4.57129 109.734C4.57129 110.467 4.37272 111.045 3.97559 111.468C3.58171 111.888 3.02995 112.098 2.32031 112.098C1.69206 112.098 1.17936 111.924 0.782227 111.575C0.385091 111.227 0.158854 110.745 0.103516 110.13H0.958008C1.01335 110.537 1.1582 110.844 1.39258 111.053C1.62695 111.258 1.9362 111.36 2.32031 111.36C2.74023 111.36 3.06901 111.217 3.30664 110.931C3.54753 110.644 3.66797 110.249 3.66797 109.744C3.66797 109.269 3.53776 108.888 3.27734 108.602C3.02018 108.312 2.67676 108.167 2.24707 108.167C1.85319 108.167 1.54395 108.253 1.31934 108.426L1.08008 108.621L0.357422 108.436ZM5.83105 112.61H5.05469L8.02344 104.891H8.79492L5.83105 112.61ZM12.6475 112H11.7393V105.979L9.91797 106.648V105.828L12.5059 104.856H12.6475V112ZM19.8838 105.398L16.9395 112H15.9922L18.9268 105.633H15.0791V104.891H19.8838V105.398Z" fill="black"/>
<path d="M68.5283 75.2334H72.5957V76H67.4199V75.2969L71.3164 69.6621H67.4834V68.8906H72.4395V69.5791L68.5283 75.2334ZM76.9316 76C76.8796 75.8958 76.8372 75.7103 76.8047 75.4434C76.3848 75.8796 75.8835 76.0977 75.3008 76.0977C74.7799 76.0977 74.3519 75.9512 74.0166 75.6582C73.6846 75.362 73.5186 74.9876 73.5186 74.5352C73.5186 73.985 73.7269 73.5586 74.1436 73.2559C74.5635 72.9499 75.1527 72.7969 75.9111 72.7969H76.79V72.3818C76.79 72.0661 76.6956 71.8154 76.5068 71.6299C76.318 71.4411 76.0397 71.3467 75.6719 71.3467C75.3496 71.3467 75.0794 71.4281 74.8613 71.5908C74.6432 71.7536 74.5342 71.9505 74.5342 72.1816H73.626C73.626 71.918 73.7188 71.6641 73.9043 71.4199C74.0931 71.1725 74.347 70.9772 74.666 70.834C74.9883 70.6908 75.3415 70.6191 75.7256 70.6191C76.3343 70.6191 76.8112 70.7721 77.1562 71.0781C77.5013 71.3809 77.6803 71.7992 77.6934 72.333V74.7646C77.6934 75.2497 77.7552 75.6354 77.8789 75.9219V76H76.9316ZM75.4326 75.3115C75.7158 75.3115 75.9844 75.2383 76.2383 75.0918C76.4922 74.9453 76.6761 74.7549 76.79 74.5205V73.4365H76.082C74.9753 73.4365 74.4219 73.7604 74.4219 74.4082C74.4219 74.6914 74.5163 74.9128 74.7051 75.0723C74.8939 75.2318 75.1364 75.3115 75.4326 75.3115ZM80.0127 71.3564C80.4131 70.8649 80.9339 70.6191 81.5752 70.6191C82.6917 70.6191 83.2549 71.249 83.2646 72.5088V76H82.3613V72.5039C82.3581 72.123 82.2702 71.8415 82.0977 71.6592C81.9284 71.4769 81.6631 71.3857 81.3018 71.3857C81.0088 71.3857 80.7516 71.4639 80.5303 71.6201C80.3089 71.7764 80.1364 71.9814 80.0127 72.2354V76H79.1094V68.5H80.0127V71.3564ZM85.5986 76H84.6953V68.5H85.5986V76ZM90.3105 75.4775C89.959 75.891 89.443 76.0977 88.7627 76.0977C88.1995 76.0977 87.7699 75.9349 87.4736 75.6094C87.1807 75.2806 87.0326 74.7956 87.0293 74.1543V70.7168H87.9326V74.1299C87.9326 74.9307 88.2581 75.3311 88.9092 75.3311C89.5993 75.3311 90.0583 75.0739 90.2861 74.5596V70.7168H91.1895V76H90.3301L90.3105 75.4775ZM93.4209 70.7168L93.4502 71.3809C93.8538 70.873 94.3812 70.6191 95.0322 70.6191C96.1488 70.6191 96.7119 71.249 96.7217 72.5088V76H95.8184V72.5039C95.8151 72.123 95.7272 71.8415 95.5547 71.6592C95.3854 71.4769 95.1201 71.3857 94.7588 71.3857C94.4658 71.3857 94.2087 71.4639 93.9873 71.6201C93.766 71.7764 93.5934 71.9814 93.4697 72.2354V76H92.5664V70.7168H93.4209ZM97.8691 73.3145C97.8691 72.4909 98.0596 71.8366 98.4404 71.3516C98.8213 70.8633 99.3258 70.6191 99.9541 70.6191C100.599 70.6191 101.102 70.847 101.463 71.3027L101.507 70.7168H102.332V75.873C102.332 76.5566 102.129 77.0954 101.722 77.4893C101.318 77.8831 100.774 78.0801 100.091 78.0801C99.71 78.0801 99.3372 77.9987 98.9727 77.8359C98.6081 77.6732 98.3298 77.4502 98.1377 77.167L98.6064 76.625C98.9938 77.1035 99.4674 77.3428 100.027 77.3428C100.467 77.3428 100.809 77.2191 101.053 76.9717C101.3 76.7243 101.424 76.376 101.424 75.9268V75.4727C101.062 75.8893 100.569 76.0977 99.9443 76.0977C99.3258 76.0977 98.8245 75.8486 98.4404 75.3506C98.0596 74.8525 97.8691 74.1738 97.8691 73.3145ZM98.7773 73.417C98.7773 74.0127 98.8994 74.4814 99.1436 74.8232C99.3877 75.1618 99.7295 75.3311 100.169 75.3311C100.739 75.3311 101.157 75.0723 101.424 74.5547V72.1426C101.147 71.638 100.732 71.3857 100.179 71.3857C99.7393 71.3857 99.3958 71.5566 99.1484 71.8984C98.901 72.2402 98.7773 72.7464 98.7773 73.417Z" fill="black"/>
<path d="M69.9199 108.831C69.1159 108.6 68.5299 108.317 68.1621 107.981C67.7975 107.643 67.6152 107.226 67.6152 106.731C67.6152 106.172 67.8382 105.709 68.2842 105.345C68.7334 104.977 69.3161 104.793 70.0322 104.793C70.5205 104.793 70.9551 104.887 71.3359 105.076C71.7201 105.265 72.0163 105.525 72.2246 105.857C72.4362 106.189 72.542 106.552 72.542 106.946H71.5996C71.5996 106.517 71.4629 106.18 71.1895 105.936C70.916 105.688 70.5303 105.564 70.0322 105.564C69.57 105.564 69.2087 105.667 68.9482 105.872C68.6911 106.074 68.5625 106.355 68.5625 106.717C68.5625 107.007 68.6846 107.252 68.9287 107.454C69.1761 107.653 69.5944 107.835 70.1836 108.001C70.776 108.167 71.2383 108.351 71.5703 108.553C71.9056 108.751 72.153 108.984 72.3125 109.251C72.4753 109.518 72.5566 109.832 72.5566 110.193C72.5566 110.77 72.332 111.232 71.8828 111.58C71.4336 111.925 70.833 112.098 70.0811 112.098C69.5928 112.098 69.137 112.005 68.7139 111.819C68.2907 111.631 67.9635 111.373 67.7324 111.048C67.5046 110.722 67.3906 110.353 67.3906 109.939H68.333C68.333 110.369 68.4909 110.709 68.8066 110.96C69.1257 111.207 69.5505 111.331 70.0811 111.331C70.5758 111.331 70.9551 111.23 71.2188 111.028C71.4824 110.826 71.6143 110.551 71.6143 110.203C71.6143 109.855 71.4922 109.586 71.248 109.397C71.0039 109.205 70.5612 109.017 69.9199 108.831ZM74.8467 105.438V106.717H75.833V107.415H74.8467V110.691C74.8467 110.903 74.8906 111.062 74.9785 111.17C75.0664 111.274 75.2161 111.326 75.4277 111.326C75.5319 111.326 75.6751 111.307 75.8574 111.268V112C75.6198 112.065 75.3887 112.098 75.1641 112.098C74.7604 112.098 74.4561 111.976 74.251 111.731C74.0459 111.487 73.9434 111.141 73.9434 110.691V107.415H72.9814V106.717H73.9434V105.438H74.8467ZM76.5557 109.31C76.5557 108.792 76.6566 108.326 76.8584 107.913C77.0635 107.5 77.3467 107.181 77.708 106.956C78.0726 106.731 78.4876 106.619 78.9531 106.619C79.6725 106.619 80.2536 106.868 80.6963 107.366C81.1423 107.864 81.3652 108.527 81.3652 109.354V109.417C81.3652 109.931 81.266 110.394 81.0674 110.804C80.8721 111.211 80.5905 111.528 80.2227 111.756C79.8581 111.984 79.4382 112.098 78.9629 112.098C78.2467 112.098 77.6657 111.849 77.2197 111.351C76.777 110.853 76.5557 110.193 76.5557 109.373V109.31ZM77.4639 109.417C77.4639 110.003 77.599 110.473 77.8691 110.828C78.1426 111.183 78.5072 111.36 78.9629 111.36C79.4219 111.36 79.7865 111.181 80.0566 110.823C80.3268 110.462 80.4619 109.957 80.4619 109.31C80.4619 108.73 80.3236 108.261 80.0469 107.903C79.7734 107.542 79.4089 107.361 78.9531 107.361C78.5072 107.361 78.1475 107.539 77.874 107.894C77.6006 108.248 77.4639 108.756 77.4639 109.417ZM77.3467 105.306C77.3467 105.159 77.3906 105.037 77.4785 104.939C77.5697 104.839 77.7031 104.788 77.8789 104.788C78.0547 104.788 78.1882 104.839 78.2793 104.939C78.3704 105.037 78.416 105.159 78.416 105.306C78.416 105.452 78.3704 105.574 78.2793 105.672C78.1882 105.77 78.0547 105.818 77.8789 105.818C77.7031 105.818 77.5697 105.77 77.4785 105.672C77.3906 105.574 77.3467 105.452 77.3467 105.306ZM79.4463 105.315C79.4463 105.169 79.4902 105.045 79.5781 104.944C79.6693 104.843 79.8027 104.793 79.9785 104.793C80.1543 104.793 80.2878 104.843 80.3789 104.944C80.4701 105.045 80.5156 105.169 80.5156 105.315C80.5156 105.462 80.4701 105.584 80.3789 105.682C80.2878 105.779 80.1543 105.828 79.9785 105.828C79.8027 105.828 79.6693 105.779 79.5781 105.682C79.4902 105.584 79.4463 105.462 79.4463 105.315ZM85.0518 107.527C84.915 107.505 84.7669 107.493 84.6074 107.493C84.015 107.493 83.613 107.745 83.4014 108.25V112H82.498V106.717H83.377L83.3916 107.327C83.6878 106.855 84.1077 106.619 84.6514 106.619C84.8271 106.619 84.9606 106.642 85.0518 106.688V107.527ZM89.1484 111.478C88.7969 111.891 88.2809 112.098 87.6006 112.098C87.0374 112.098 86.6077 111.935 86.3115 111.609C86.0186 111.281 85.8704 110.796 85.8672 110.154V106.717H86.7705V110.13C86.7705 110.931 87.096 111.331 87.7471 111.331C88.4372 111.331 88.8962 111.074 89.124 110.56V106.717H90.0273V112H89.168L89.1484 111.478ZM92.2588 106.717L92.2881 107.381C92.6917 106.873 93.2191 106.619 93.8701 106.619C94.9867 106.619 95.5498 107.249 95.5596 108.509V112H94.6562V108.504C94.653 108.123 94.5651 107.841 94.3926 107.659C94.2233 107.477 93.958 107.386 93.5967 107.386C93.3037 107.386 93.0465 107.464 92.8252 107.62C92.6038 107.776 92.4313 107.981 92.3076 108.235V112H91.4043V106.717H92.2588ZM96.707 109.314C96.707 108.491 96.8975 107.837 97.2783 107.352C97.6592 106.863 98.1637 106.619 98.792 106.619C99.4365 106.619 99.9395 106.847 100.301 107.303L100.345 106.717H101.17V111.873C101.17 112.557 100.966 113.095 100.56 113.489C100.156 113.883 99.6123 114.08 98.9287 114.08C98.5479 114.08 98.1751 113.999 97.8105 113.836C97.446 113.673 97.1676 113.45 96.9756 113.167L97.4443 112.625C97.8317 113.104 98.3053 113.343 98.8652 113.343C99.3047 113.343 99.6465 113.219 99.8906 112.972C100.138 112.724 100.262 112.376 100.262 111.927V111.473C99.9004 111.889 99.4072 112.098 98.7822 112.098C98.1637 112.098 97.6624 111.849 97.2783 111.351C96.8975 110.853 96.707 110.174 96.707 109.314ZM97.6152 109.417C97.6152 110.013 97.7373 110.481 97.9814 110.823C98.2256 111.162 98.5674 111.331 99.0068 111.331C99.5765 111.331 99.9948 111.072 100.262 110.555V108.143C99.985 107.638 99.57 107.386 99.0166 107.386C98.5771 107.386 98.2337 107.557 97.9863 107.898C97.7389 108.24 97.6152 108.746 97.6152 109.417Z" fill="black"/>
<line opacity="0.2" x1="-23" y1="52" x2="217" y2="52" stroke="black" stroke-width="2"/>
<line opacity="0.2" x1="-23" y1="90.5" x2="217" y2="90.5" stroke="black"/>
<rect y="100" width="230" height="27" fill="url(#paint0_linear)"/>
</g>
<defs>
<linearGradient id="paint0_linear" x1="147.922" y1="123.786" x2="147.922" y2="100" gradientUnits="userSpaceOnUse">
<stop stop-color="white"/>
<stop offset="1" stop-color="white" stop-opacity="0"/>
</linearGradient>
</defs>
</svg>
