<?xml version="1.0" encoding="utf-8"?>
<!-- Generator: Adobe Illustrator 23.0.6, SVG Export Plug-In . SVG Version: 6.00 Build 0)  -->
<!DOCTYPE svg PUBLIC "-//W3C//DTD SVG 1.1//EN" "http://www.w3.org/Graphics/SVG/1.1/DTD/svg11.dtd" [
	<!ENTITY ns_extend "http://ns.adobe.com/Extensibility/1.0/">
	<!ENTITY ns_ai "http://ns.adobe.com/AdobeIllustrator/10.0/">
	<!ENTITY ns_graphs "http://ns.adobe.com/Graphs/1.0/">
	<!ENTITY ns_vars "http://ns.adobe.com/Variables/1.0/">
	<!ENTITY ns_imrep "http://ns.adobe.com/ImageReplacement/1.0/">
	<!ENTITY ns_sfw "http://ns.adobe.com/SaveForWeb/1.0/">
	<!ENTITY ns_custom "http://ns.adobe.com/GenericCustomNamespace/1.0/">
	<!ENTITY ns_adobe_xpath "http://ns.adobe.com/XPath/1.0/">
]>
<svg version="1.1" id="CallOneBot" xmlns:x="&ns_extend;" xmlns:i="&ns_ai;" xmlns:graph="&ns_graphs;"
	 xmlns="http://www.w3.org/2000/svg" xmlns:xlink="http://www.w3.org/1999/xlink" x="0px" y="0px" viewBox="0 0 295 501"
	 style="enable-background:new 0 0 295 501;" xml:space="preserve">
<style type="text/css">
	.st0{stroke:#FFFFFF;stroke-width:3;stroke-miterlimit:10;}
	.st1{display:none;}
	.st2{display:inline;fill:#FFFFFF;stroke:#000000;stroke-width:3;stroke-miterlimit:10;}
	.st3{stroke:#FFFFFF;stroke-width:0.75;stroke-miterlimit:10;}
	.st4{fill:none;stroke:#86ED18;stroke-width:3;stroke-linejoin:round;stroke-miterlimit:10;}
	.st5{fill:none;stroke:#FFFFFF;stroke-width:3;stroke-miterlimit:10;}
	.st6{stroke:#FFFFFF;stroke-miterlimit:10;}
	.st7{fill:#FFFFFF;}
	.st8{fill:#FFFFFF;stroke:#000000;stroke-width:2;stroke-miterlimit:10;}
	.st9{fill:none;stroke:#FFFFFF;stroke-miterlimit:10;}
	.st10{fill-rule:evenodd;clip-rule:evenodd;fill:#FFFFFF;}
</style>
<metadata>
	<sfw  xmlns="&ns_sfw;">
		<slices></slices>
		<sliceSourceBounds  bottomLeftOrigin="true" height="538" width="480" x="130" y="-549"></sliceSourceBounds>
		<optimizationSettings>
			<targetSettings  fileFormat="PNG8Format" targetSettingsID="0">
				
					<PNG8Format  autoReduce="false" ditherAlgorithm="diffusion" ditherPercent="88" interlaced="false" matteColor="#FFFFFF" noMatteColor="false" numColors="128" reductionAlgorithm="selective" rolloverMasterPalette="false" transparency="true" webShiftPercent="0">
					<colorTable  isExact="false"></colorTable>
					<lockedColors></lockedColors>
					<colorShiftEntries></colorShiftEntries>
				</PNG8Format>
			</targetSettings>
		</optimizationSettings>
	</sfw>
</metadata>
<image style="display:none;overflow:visible;" width="600" height="620" xlink:href="859D1844.jpg"  transform="matrix(0.8 0 0 0.8677 -105 -8)">
</image>
<g id="Kopf">
	<polygon class="st0" points="137.4,50 132.6,50 131.3,72 138.7,72 	"/>
	<ellipse class="st0" cx="134.5" cy="82.5" rx="18.5" ry="11.5"/>
	<g id="Erweiterte_Ohren" class="st1">
		<polygon class="st2" points="214,68 210,68 209,116 215,116 		"/>
		<polygon class="st2" points="61,68 57,68 56,116 62,116 		"/>
		<circle class="st2" cx="60" cy="128" r="12.5"/>
		<circle class="st2" cx="213" cy="128" r="12.5"/>
		<circle class="st2" cx="59" cy="58" r="8.5"/>
		<circle class="st2" cx="212" cy="58" r="8.5"/>
	</g>
	<ellipse class="st0" cx="73.5" cy="129" rx="9.5" ry="20"/>
	<ellipse class="st0" cx="197.5" cy="129" rx="9.5" ry="20"/>
	<circle class="st0" cx="135" cy="43" r="8.5"/>
	<path class="st0" d="M185.7,179H85c-6.6,0-12-5.4-12-12V90c0-6.6,5.4-12,12-12h100.7c6.6,0,12,5.4,12,12v77
		C197.7,173.6,192.3,179,185.7,179z"/>
</g>
<g id="Gesicht">
	<path class="st3" d="M166,130.4c0.6,0,1.1-0.5,1.1-1.1s-0.5-1.1-1.1-1.1c-0.6,0-1.1,0.5-1.1,1.1S165.4,130.4,166,130.4z"/>
	<path class="st3" d="M160.8,135.4c0.6,0,1.1-0.5,1.1-1.1c0-0.6-0.5-1.1-1.1-1.1c-0.6,0-1.1,0.5-1.1,1.1
		C159.6,134.9,160.1,135.4,160.8,135.4z"/>
	<path class="st3" d="M176.3,130.4c0.6,0,1.1-0.5,1.1-1.1s-0.5-1.1-1.1-1.1c-0.6,0-1.1,0.5-1.1,1.1S175.7,130.4,176.3,130.4z"/>
	<path class="st3" d="M166,140.8c0.6,0,1.1-0.5,1.1-1.1c0-0.6-0.5-1.1-1.1-1.1c-0.6,0-1.1,0.5-1.1,1.1
		C164.9,140.3,165.4,140.8,166,140.8z"/>
	<path class="st3" d="M176.3,140.8c0.6,0,1.1-0.5,1.1-1.1c0-0.6-0.5-1.1-1.1-1.1c-0.6,0-1.1,0.5-1.1,1.1
		C175.2,140.3,175.7,140.8,176.3,140.8z"/>
	<path class="st3" d="M171.2,135.4c0.6,0,1.1-0.5,1.1-1.1c0-0.6-0.5-1.1-1.1-1.1c-0.6,0-1.1,0.5-1.1,1.1
		C170.1,134.9,170.6,135.4,171.2,135.4z"/>
	<path class="st3" d="M181.9,135.4c0.6,0,1.1-0.5,1.1-1.1c0-0.6-0.5-1.1-1.1-1.1c-0.6,0-1.1,0.5-1.1,1.1
		C180.8,134.9,181.3,135.4,181.9,135.4z"/>
	<path class="st3" d="M92.9,130.4c0.6,0,1.1-0.5,1.1-1.1s-0.5-1.1-1.1-1.1s-1.1,0.5-1.1,1.1S92.3,130.4,92.9,130.4z"/>
	<path class="st3" d="M87.9,135.4c0.6,0,1.1-0.5,1.1-1.1c0-0.6-0.5-1.1-1.1-1.1s-1.1,0.5-1.1,1.1C86.8,134.9,87.3,135.4,87.9,135.4z
		"/>
	<path class="st3" d="M103.2,130.4c0.6,0,1.1-0.5,1.1-1.1s-0.5-1.1-1.1-1.1c-0.6,0-1.1,0.5-1.1,1.1S102.6,130.4,103.2,130.4z"/>
	<path class="st3" d="M92.9,140.8c0.6,0,1.1-0.5,1.1-1.1c0-0.6-0.5-1.1-1.1-1.1s-1.1,0.5-1.1,1.1C91.8,140.3,92.3,140.8,92.9,140.8z
		"/>
	<path class="st3" d="M103.2,140.8c0.6,0,1.1-0.5,1.1-1.1c0-0.6-0.5-1.1-1.1-1.1c-0.6,0-1.1,0.5-1.1,1.1
		C102.1,140.3,102.6,140.8,103.2,140.8z"/>
	<path class="st3" d="M98.2,135.4c0.6,0,1.1-0.5,1.1-1.1c0-0.6-0.5-1.1-1.1-1.1s-1.1,0.5-1.1,1.1C97,134.9,97.5,135.4,98.2,135.4z"
		/>
	<path class="st3" d="M108.8,135.4c0.6,0,1.1-0.5,1.1-1.1c0-0.6-0.5-1.1-1.1-1.1c-0.6,0-1.1,0.5-1.1,1.1
		C107.7,134.9,108.2,135.4,108.8,135.4z"/>
	<path class="st4" d="M121.1,135c0,8.6,6.9,15.3,15.3,15.3s15.3-6.9,15.3-15.3"/>
	<path class="st5" d="M154.8,117c2.4,0,4.3-1.9,4.3-4.3c0-2.4-1.9-4.3-4.3-4.3c-2.4,0-4.3,1.9-4.3,4.3
		C150.5,115,152.4,117,154.8,117z"/>
	<path class="st5" d="M118.3,117c2.4,0,4.3-1.9,4.3-4.3c0-2.4-1.9-4.3-4.3-4.3s-4.3,1.9-4.3,4.3C114,115,116,117,118.3,117z"/>
</g>
<rect id="Hals_2_" x="118.5" y="178" class="st6" width="33" height="12"/>
<g id="Arm_links">
	<path class="st0" d="M71,215c0,0-35,17-35,57h14c0,0,0-25,21-40V215z"/>
	<path class="st0" d="M48,309H38c-2.8,0-5-2.3-5-5v-27c0-2.8,2.3-5,5-5h10c2.8,0,5,2.3,5,5v27C53,306.8,50.8,309,48,309z"/>
	<path class="st0" d="M43.5,295c-13,0-23.5,10.5-23.5,23.5c0,11.8,8.7,21.5,20,23.2v-11.3c-4.6-1.5-8-5.8-8-10.9
		c0-6.4,5.1-11.5,11.5-11.5S55,313.1,55,319.5c0,5.1-3.4,9.5-8,11v11.3c11.3-1.7,20-11.5,20-23.2C67,305.5,56.5,295,43.5,295z"/>
	<circle class="st0" cx="43" cy="298" r="14"/>
	<polygon class="st7" points="43,291.2 37.1,294.6 37.1,301.4 43,304.8 48.9,301.4 48.9,294.6 	"/>
</g>
<g id="Arm_rechts">
	<path class="st0" d="M198,215c0,0,35,17,35,57h-14c0,0,0-25-21-40V215z"/>
	<path class="st0" d="M221,309h10c2.8,0,5-2.3,5-5v-27c0-2.8-2.3-5-5-5h-10c-2.8,0-5,2.3-5,5v27C216,306.8,218.3,309,221,309z"/>
	<path class="st0" d="M225.5,295c13,0,23.5,10.5,23.5,23.5c0,11.8-8.7,21.5-20,23.2v-11.3c4.6-1.5,8-5.8,8-10.9
		c0-6.4-5.1-11.5-11.5-11.5s-11.5,5.1-11.5,11.5c0,5.1,3.4,9.5,8,11v11.3c-11.3-1.7-20-11.5-20-23.2C202,305.5,212.5,295,225.5,295z
		"/>
	<circle class="st0" cx="226" cy="298" r="14"/>
	<polygon class="st7" points="226,291.2 220.1,294.6 220.1,301.4 226,304.8 231.9,301.4 231.9,294.6 	"/>
</g>
<g id="Beine">
	<g id="Ebene_5">
		<polygon class="st0" points="93.2,327 89.5,353.5 110.5,353.5 115.4,327 		"/>
		<polygon class="st0" points="176.7,327 180.4,353.5 159.4,353.5 154.5,327 		"/>
	</g>
	<g id="Ebene_6">
		<rect x="84.5" y="415.5" class="st0" width="22" height="32"/>
		<rect x="163.5" y="415.5" class="st0" width="22" height="32"/>
	</g>
	<path class="st0" d="M109.5,469.5h-29c-5.5,0-10-4.5-10-10v-2c0-5.5,4.5-10,10-10h29c5.5,0,10,4.5,10,10v2
		C119.5,465,115,469.5,109.5,469.5z"/>
	<path class="st0" d="M189.5,469.5h-29c-5.5,0-10-4.5-10-10v-2c0-5.5,4.5-10,10-10h29c5.5,0,10,4.5,10,10v2
		C199.5,465,195,469.5,189.5,469.5z"/>
	<path class="st0" d="M100.6,419.6l-15.1-1.5c-5.5-0.5-9.5-5.5-9-10.9l4.8-48.8c0.5-5.5,5.5-9.5,10.9-9l15.1,1.5
		c5.5,0.5,9.5,5.5,9,10.9l-4.8,48.8C111,416.1,106,420.1,100.6,419.6z"/>
	<path class="st0" d="M169.2,419.6l15.1-1.5c5.5-0.5,9.5-5.5,9-10.9l-4.8-48.8c-0.5-5.5-5.5-9.5-10.9-9l-15.1,1.5
		c-5.5,0.5-9.5,5.5-9,10.9l4.8,48.8C158.8,416.1,163.8,420.1,169.2,419.6z"/>
	<circle class="st0" cx="95.5" cy="387.5" r="20.5"/>
	<circle class="st0" cx="174.5" cy="387.5" r="20.5"/>
</g>
<g id="koerper">
	<path class="st0" d="M186,327H83c-6.6,0-12-5.4-12-12V204c0-6.6,5.4-12,12-12h103c6.6,0,12,5.4,12,12v111
		C198,321.6,192.6,327,186,327z"/>
	<path class="st6" d="M167.5,312.3h-64c-7.2,0-13-5.9-13-13v-69.7c0-7.2,5.8-13,13-13h64c7.1,0,13,5.8,13,13v69.7
		C180.5,306.5,174.6,312.3,167.5,312.3z"/>
	<circle class="st7" cx="102" cy="209" r="2"/>
	<circle class="st7" cx="109" cy="209" r="2"/>
	<circle class="st7" cx="116" cy="209" r="2"/>
	<path class="st8" d="M167,309h-63c-5.5,0-10-4.5-10-10v-69c0-5.5,4.5-10,10-10h63c5.5,0,10,4.5,10,10v69
		C177,304.5,172.5,309,167,309z"/>
	<g id="Logo">
		<path class="st0" d="M110.6,265c0,14.1,11.4,25.5,25.2,25.5c2,0,4-0.3,5.8-0.8v-14.3c-1.7,1-3.7,1.5-5.8,1.5
			c-6.6,0-11.9-5.4-11.9-12c0-6.6,5.3-12,11.9-12c2.1,0,4.1,0.6,5.8,1.5v-14.3c-1.9-0.5-3.8-0.8-5.8-0.8
			C121.9,239.5,110.6,251,110.6,265z M147.7,242.5v45c7.9-4.3,13.3-12.8,13.3-22.5C161,255.2,155.7,246.7,147.7,242.5L147.7,242.5z"
			/>
	</g>
</g>
<line class="st9" x1="246.5" y1="327.5" x2="266.5" y2="340.5"/>
<line class="st9" x1="206.5" y1="129.5" x2="267.5" y2="161.5"/>
<line class="st9" x1="75.5" y1="173.5" x2="25.5" y2="195.5"/>
<line class="st9" x1="126.5" y1="43.5" x2="26.5" y2="58.5"/>
<circle class="st10" cx="21.5" cy="59.5" r="19.5"/>
<g>
	<path d="M16.6,67.1V65h3.7v-7.3h-3.7v-2.1h3.7v-2h2.5V65h3.4v2.1H16.6z"/>
</g>
<circle class="st10" cx="272.5" cy="164.5" r="19.5"/>
<g>
	<path d="M267.3,172.1V170l5.5-5.3c0.4-0.4,0.7-0.8,1-1.2c0.2-0.4,0.4-0.8,0.4-1.3c0-0.6-0.2-1.1-0.6-1.4c-0.4-0.3-0.8-0.5-1.4-0.5
		c-0.7,0-1.2,0.2-1.6,0.6c-0.4,0.4-0.6,0.9-0.6,1.6h-2.6c0-0.7,0.1-1.2,0.4-1.8c0.2-0.5,0.6-1,1-1.4c0.4-0.4,0.9-0.7,1.5-0.9
		s1.2-0.3,1.9-0.3c0.7,0,1.3,0.1,1.9,0.3c0.6,0.2,1,0.5,1.4,0.8c0.4,0.4,0.7,0.8,0.9,1.3s0.3,1,0.3,1.6c0,0.4-0.1,0.8-0.2,1.1
		c-0.1,0.4-0.3,0.7-0.4,1c-0.2,0.3-0.4,0.6-0.6,0.9c-0.2,0.3-0.5,0.5-0.7,0.8l-4.1,3.8v0h6.3v2.1H267.3z"/>
</g>
<circle class="st10" cx="24.5" cy="196.5" r="19.5"/>
<g>
	<path d="M19,200.2h2.6c0,0.7,0.3,1.3,0.7,1.6c0.5,0.3,1,0.5,1.7,0.5c0.7,0,1.2-0.2,1.7-0.5s0.6-0.7,0.6-1.2v-1.2
		c0-0.8-0.4-1.2-1.3-1.2h-2.8v-2h2.7c0.4,0,0.8-0.1,0.9-0.3s0.3-0.5,0.3-0.8v-1.1c0-0.5-0.2-0.9-0.6-1.2s-0.9-0.4-1.4-0.4
		c-0.6,0-1.1,0.1-1.5,0.4c-0.4,0.3-0.6,0.7-0.6,1.3h-2.6c0-0.6,0.1-1.1,0.3-1.6s0.6-0.9,1-1.2s0.9-0.6,1.5-0.8
		c0.6-0.2,1.2-0.3,1.9-0.3c0.7,0,1.3,0.1,1.9,0.3s1.1,0.4,1.5,0.7s0.7,0.7,0.9,1.2c0.2,0.5,0.3,1,0.3,1.5c0,0.8-0.2,1.5-0.5,2
		c-0.3,0.5-0.8,0.9-1.5,1.2c0.7,0.3,1.3,0.7,1.6,1.2c0.4,0.5,0.6,1.2,0.6,2.1c0,0.6-0.1,1.2-0.4,1.7s-0.6,0.9-1,1.3
		c-0.4,0.3-1,0.6-1.6,0.8s-1.3,0.3-2,0.3c-0.7,0-1.4-0.1-2-0.3s-1.1-0.4-1.6-0.8c-0.5-0.4-0.8-0.8-1.1-1.3S19,200.9,19,200.2z"/>
</g>
<circle class="st10" cx="274.5" cy="350.5" r="19.5"/>
<g>
	<path d="M268.8,354.9v-2l5.7-8.3h2.8v8.3h2v2h-2v3.2h-2.5v-3.2H268.8z M271.2,352.8h3.6v-5.3L271.2,352.8z"/>
</g>
<g>
</g>
<g>
</g>
<g>
</g>
<g>
</g>
<g>
</g>
<g>
</g>
<g>
</g>
<g>
</g>
<g>
</g>
<g>
</g>
<g>
</g>
<g>
</g>
<g>
</g>
<g>
</g>
<g>
</g>
</svg>
