<?xml version="1.0" encoding="utf-8"?>
<!-- Generator: Adobe Illustrator 23.0.3, SVG Export Plug-In . SVG Version: 6.00 Build 0)  -->
<svg version="1.1" xmlns="http://www.w3.org/2000/svg" xmlns:xlink="http://www.w3.org/1999/xlink" x="0px" y="0px"
	 viewBox="0 0 580 400" style="enable-background:new 0 0 580 400;" xml:space="preserve">
<style type="text/css">
	.st0{fill:#FFFFFF;stroke:#000000;stroke-width:5;stroke-miterlimit:10;}
	.st1{display:none;fill:#86ED18;}
	.st2{fill:#86ED18;}
	.st3{display:none;fill:none;stroke:#86ED18;stroke-width:3;stroke-linecap:round;stroke-linejoin:round;stroke-miterlimit:10;}
	.st4{fill:#FFFFFF;}
	.st5{fill:none;stroke:#000000;stroke-width:3;stroke-miterlimit:10;}
	.st6{fill:#FFFFFF;stroke:#000000;stroke-width:3;stroke-miterlimit:10;}
	.st7{fill:none;stroke:#86ED18;stroke-width:3;stroke-miterlimit:10;}
	.st8{fill:none;stroke:#86ED18;stroke-width:3;stroke-linejoin:round;stroke-miterlimit:10;}
	.st9{fill:#FFFFFF;stroke:#86ED18;stroke-width:3;stroke-linejoin:round;stroke-miterlimit:10;}
</style>
<g id="Ebene_11">
	<line class="st0" x1="144.7" y1="246.6" x2="238.8" y2="152.4"/>
	<line class="st0" x1="434.8" y1="246.6" x2="340.7" y2="152.4"/>
</g>
<g id="Ebene_1">
	<g id="Ebene_2">
		<g>
			<path class="st1" d="M289.5,114.5c-1.1,0-2.1,0.9-2.1,2.1v1.4h4.1v-1.4C291.6,115.5,290.6,114.5,289.5,114.5z"/>
			<path class="st2" d="M289.5,10.1c-44.3,0-80.4,36.1-80.4,80.4s36.1,80.4,80.4,80.4s80.4-36.1,80.4-80.4S333.8,10.1,289.5,10.1z
				 M337.8,117.4c-0.4,0.4-0.9,0.6-1.5,0.6h-44.8v4.7h8.9c1.1,0,2.1,0.9,2.1,2.1s-0.9,2.1-2.1,2.1h-20.6c-1.1,0-2.1-0.9-2.1-2.1
				s0.9-2.1,2.1-2.1h7.6V118h-44.7c-1.1,0-2.1-0.9-2.1-2.1V54.8c0-1.1,0.9-2.1,2.1-2.1h93.4c1.1,0,2.1,0.9,2.1,2.1l0.1,61.2
				C338.4,116.5,338.2,117,337.8,117.4z"/>
			<path class="st2" d="M334.2,56.8h-89.3v57.1h89.4L334.2,56.8z M305,98h-30v-5h30V98z M320,88h-60v-5h60V88z M320,81h-60v-5h60V81
				z M320,74h-60v-5h60V74z"/>
			<path class="st1" d="M289.5,6C242.9,6,205,43.9,205,90.5s37.9,84.5,84.5,84.5S374,137.1,374,90.5S336.1,6,289.5,6z M289.5,172.9
				c-45.5,0-82.4-36.9-82.4-82.4S244,8.1,289.5,8.1s82.4,36.9,82.4,82.4S335,172.9,289.5,172.9z"/>
		</g>
	</g>
	<g id="Ebene_3">
	</g>
	<g id="Ebene_7">
	</g>
	<g id="Ebene_6">
	</g>
	<g id="Ebene_8">
	</g>
	<circle class="st3" cx="90" cy="317.5" r="60"/>
	<circle class="st3" cx="489" cy="317.5" r="60"/>
	<g id="Ebene_5">
	</g>
	<g id="Ebene_4">
	</g>
	<line class="st0" x1="180.5" y1="312.5" x2="400.5" y2="312.5"/>
</g>
<g id="Ebene_9">
	<path d="M510.3,366c1.5-12.7-9.5-45.4-22.1-46.9c-12.7-1.5-24.1,7.5-25.6,20.2c0,0.4-1.2,21.5-7.6,48.2
		C458.9,397,509.9,369.4,510.3,366z"/>
	<path class="st4" d="M463.5,390.4c-3.1-26.8-0.4-55,15.3-69.7c7.3-6.8,15-9.2,25.6-7.2c16.9,3.2,28.1,19.5,25,36.4l-1.5,25.1"/>
	<path class="st5" d="M463.5,390.4c-3.1-26.8-0.4-55,15.3-69.7c7.3-6.8,15-9.2,25.6-7.2c16.9,3.2,28.1,19.5,25,36.4l-2,25.6"/>
	<path class="st6" d="M522.5,300.5c5.2,0,9.4-4.2,9.4-9.4c0-5.2-4.2-9.4-9.4-9.4s-9.4,4.2-9.4,9.4
		C513.1,296.3,517.3,300.5,522.5,300.5z"/>
	<path class="st5" d="M518.2,298.5c0.1-1.5,0.1-3-0.1-4.5"/>
	<path class="st6" d="M495.9,323.3c17.8-3.5,29.5-20.8,25.9-38.7c-3.5-17.8-20.8-29.4-38.7-25.9c-17.8,3.5-29.5,20.8-25.9,38.7
		C460.7,315.2,478,326.8,495.9,323.3z"/>
	<path d="M494.5,287.6c1.3-0.3,2.2-1.5,1.9-2.9c-0.3-1.3-1.5-2.2-2.9-1.9c-1.3,0.3-2.2,1.5-1.9,2.9C492,287,493.3,287.8,494.5,287.6
		z"/>
	<path d="M474.8,287.6c1.3-0.3,2.2-1.5,1.9-2.9c-0.3-1.3-1.5-2.2-2.9-1.9c-1.3,0.3-2.2,1.5-1.9,2.9
		C472.2,287,473.4,287.8,474.8,287.6z"/>
	<path d="M495.3,389.8l-7.3-44.6c-2.2-14.5,7.9-28.1,22.4-30.2c14.5-2.2,28.1,7.9,30.2,22.4l3.2,21.1c0.2,1.6-0.8,2.6-8.8,11.6
		c0,0,1.1-0.6-7,6C518.9,384,495.3,389.8,495.3,389.8z"/>
	<path class="st4" d="M478.5,295.9c0,3.3,2.7,5.9,5.9,5.9c3.3,0,5.9-2.6,5.9-5.9"/>
	<path class="st5" d="M478.5,295.9c0,3.3,2.7,5.9,5.9,5.9c3.3,0,5.9-2.6,5.9-5.9"/>
	<path class="st5" d="M519.8,276.6c-2.5,1.5-4.2,1.9-7.1,2.6c-15.3,3.6-30.6-5.9-34.2-21.2l-0.6-2.6c5.2-3.2,11.3-5.1,17.9-5.1
		c9.4,0,17.9,3.8,24.1,9.9l36.5,34.1"/>
	<path class="st7" d="M403.3,333.4c-1.9-6.6-2.8-13.6-2.8-20.8c0-43.6,35.3-78.9,78.9-78.9c43.6,0,78.9,35.3,78.9,78.9
		c0,43.6-35.3,78.9-78.9,78.9c-8.6,0-16.9-1.3-24.6-3.9"/>
	<path class="st8" d="M411,325.4v-4c0-10.9,7.8-19.7,18.7-19.7h2c10.9,0,18.7,8.8,18.7,19.7v4"/>
	<path class="st8" d="M426.7,360.8h4c2.2,0,4-1.8,4-4c0-2.2-1.8-4-4-4h-4c-2.2,0-4,1.8-4,4C422.8,359,424.6,360.8,426.7,360.8z"/>
	<path class="st8" d="M410.9,343.1c0,13.7,11.8,13.7,11.8,13.7"/>
	<path class="st8" d="M446.3,325.4h8.2c1.9,0,3.5,1.5,3.5,3.5v10.7c0,1.9-1.5,3.5-3.5,3.5h-8.2V325.4z"/>
	<path class="st9" d="M414.9,325.4h-8.2c-1.9,0-3.5,1.5-3.5,3.5v10.7c0,1.9,1.5,3.5,3.5,3.5h8.2V325.4z"/>
</g>
<g id="Ebene_10">
	<path class="st4" d="M48.9,371.6l0.1-24.5c-1.6-17.1,11-32.4,28.1-34.1c10.7-1,18.2,2,24.9,9.5c14,15.7,14.6,43.1,9.5,69"/>
	<path class="st5" d="M48.9,371.6l0.1-24.5c-1.6-17.1,11-32.4,28.1-34.1c10.7-1,18.2,2,24.9,9.5c14,15.7,14.6,43.1,9.5,69"/>
	<path class="st6" d="M57.6,277.2c-4.4,17.9,6.5,36.1,24.5,40.5c18,4.5,36.1-6.5,40.6-24.4c1.4-5.7,1.3-11.4-0.2-16.7
		c1.4-2.1,2.5-4.5,3.1-7c2.9-11.9-4.3-24-16.3-26.9c-9.5-2.4-19.1,1.8-24.1,9.6C72.1,254,60.9,263.6,57.6,277.2z"/>
	<path class="st5" d="M67.7,291.1c0-5.2-4.2-9.4-9.4-9.4s-9.4,4.2-9.4,9.4c0,5.2,4.2,9.4,9.4,9.4C63.5,300.5,67.7,296.3,67.7,291.1z
		"/>
	<path class="st6" d="M67.4,293.9c1.3-5-1.9-10.2-7-11.4c-5.1-1.3-10.2,1.9-11.5,6.9c-1.3,5,1.9,10.2,7,11.4
		C61,302,66.1,298.9,67.4,293.9z"/>
	<path class="st6" d="M123.7,298.8c4.4-17.8-6.5-35.8-24.3-40.2c-17.8-4.4-35.9,6.5-40.3,24.2c-4.4,17.8,6.5,35.8,24.3,40.2
		C101.3,327.5,119.3,316.7,123.7,298.8z"/>
	<path d="M89.1,285.7c0.3-1.3-0.6-2.6-1.9-2.9c-1.3-0.3-2.6,0.6-2.9,1.9c-0.3,1.3,0.6,2.6,1.9,2.9C87.5,287.8,88.8,287,89.1,285.7z"
		/>
	<path d="M108.8,285.7c0.3-1.3-0.6-2.6-1.9-2.9c-1.3-0.3-2.6,0.6-2.9,1.9c-0.3,1.3,0.6,2.6,1.9,2.9
		C107.3,287.8,108.6,287,108.8,285.7z"/>
	<path d="M63.3,381.7c-1.3,0.2-19.8-13.9-21.3-17.1l-0.8-23.5c0.3-14.7,12.3-26.4,27-26.1c14.7,0.3,26.4,12.3,26.1,27v49.4
		C94.4,391.4,75.4,387.9,63.3,381.7z"/>
	<path class="st4" d="M90.4,295.9c0,3.3,2.7,5.9,5.9,5.9s5.9-2.6,5.9-5.9"/>
	<path class="st5" d="M90.4,295.9c0,3.3,2.7,5.9,5.9,5.9s5.9-2.6,5.9-5.9"/>
	<path class="st5" d="M79.4,260.6c0.8,2.7,0.9,5.7,0.1,8.7c-2.2,9.1-11.4,14.6-20.6,12.3"/>
	<path class="st7" d="M112.8,390.6c-3.8,0.6-7.6,0.8-11.5,0.8c-43.6,0-78.9-35.3-78.9-78.9c0-43.6,35.3-78.9,78.9-78.9
		c43.6,0,78.9,35.3,78.9,78.9c0,14.5-3.9,28.1-10.7,39.8"/>
	<path class="st4" d="M169.5,352.9v-33c0-1.2-1-2.2-2.2-2.2h-48.4c-1.2,0-2.2,1-2.2,2.2v33"/>
	<path class="st8" d="M169.5,352.9v-33c0-1.2-1-2.2-2.2-2.2h-48.4c-1.2,0-2.2,1-2.2,2.2v33"/>
	<path class="st9" d="M169.5,352.9h-52.8l-6.6,19.8v4.4c0,1.2,1,2.2,2.2,2.2h61.7c1.2,0,2.2-1,2.2-2.2v-4.4L169.5,352.9z"/>
	<path class="st8" d="M123.3,363.9h39.7"/>
	<path class="st8" d="M110.1,372.7h66"/>
	<path class="st8" d="M162.9,323.8h-39.6v23.3h39.6V323.8z"/>
</g>
</svg>
