<?xml version="1.0" encoding="utf-8"?>
<!-- Generator: Adobe Illustrator 24.0.2, SVG Export Plug-In . SVG Version: 6.00 Build 0)  -->
<svg version="1.1" xmlns="http://www.w3.org/2000/svg" xmlns:xlink="http://www.w3.org/1999/xlink" x="0px" y="0px"
	 viewBox="0 0 416 694" style="enable-background:new 0 0 416 694;" xml:space="preserve">
<style type="text/css">
	.st0{display:none;}
	.st1{display:inline;fill:#FFFFFF;}
	.st2{display:inline;fill:none;stroke:#000000;stroke-width:3;stroke-miterlimit:10;}
	.st3{display:inline;fill:#FFFFFF;stroke:#000000;stroke-width:3;stroke-miterlimit:10;}
	.st4{fill:#FFFFFF;}
	.st5{fill:none;stroke:#000000;stroke-width:3;stroke-miterlimit:10;}
	.st6{display:inline;}
	.st7{fill:none;stroke:#000000;stroke-width:48;stroke-linecap:round;stroke-miterlimit:10;}
	.st8{fill:none;stroke:#000000;stroke-width:2;stroke-miterlimit:10;}
	.st9{fill:none;stroke:#86ED18;stroke-width:3;stroke-miterlimit:10;}
	.st10{fill:#FFFFFF;stroke:#000000;stroke-width:3;stroke-miterlimit:10;}
	.st11{display:none;stroke:#000000;stroke-width:3;stroke-miterlimit:10;}
	.st12{display:none;fill:none;stroke:#000000;stroke-width:3;stroke-miterlimit:10;}
	.st13{display:none;fill:none;stroke:#000000;stroke-width:3;stroke-linejoin:round;stroke-miterlimit:10;}
	.st14{display:none;fill:#FFFFFF;}
	.st15{stroke:#000000;stroke-width:1.5;stroke-miterlimit:10;}
	.st16{stroke:#000000;stroke-width:0.75;stroke-miterlimit:10;}
	.st17{opacity:0.51;fill:#FFFFFF;}
	.st18{fill:none;stroke:#000000;stroke-width:2;stroke-linecap:round;stroke-linejoin:round;stroke-miterlimit:10;}
	.st19{fill:#86ED18;stroke:#000000;stroke-width:2;stroke-linecap:round;stroke-linejoin:round;stroke-miterlimit:10;}
	.st20{fill:none;stroke:#000000;stroke-width:3;stroke-linecap:round;stroke-linejoin:round;stroke-miterlimit:10;}
	.st21{display:none;fill:#FFFFFF;stroke:#000000;stroke-width:3;stroke-miterlimit:10;}
	.st22{stroke:#000000;stroke-width:2;stroke-linejoin:round;stroke-miterlimit:10;}
	.st23{fill:none;stroke:#000000;stroke-width:2;stroke-linejoin:round;stroke-miterlimit:10;}
	.st24{display:inline;fill:none;stroke:#6100FE;stroke-width:6.2672;stroke-miterlimit:10;}
	.st25{display:inline;fill:#86ED18;}
</style>
<g id="Ebene_1" class="st0">
	<path class="st1" d="M395.1,231.5H372c-9.4,0-53.1,11.3-55.5,55.8c-0.8,14.7-9,20.4-18.2,20.8h-1.4c-65.2,0-117.9,52.7-117.9,117.6
		c0,64.9,52.8,117.6,117.9,117.6H309"/>
	<path class="st2" d="M395.1,231.5H372c-9.4,0-53.1,11.3-55.5,55.8c-0.8,14.7-9,20.4-18.2,20.8h-1.4c-65.2,0-117.9,52.7-117.9,117.6
		c0,64.9,52.8,117.6,117.9,117.6H309"/>
	<path class="st1" d="M293.3,539.9h121.1v131.2c0,0-15.7-3.9-22-12.4c-6.3-8.5-6.9-30.5-20.6-40c-13.7-9.5-136.4-25-136.4-79
		c0-25.5,82.1-99,112.8-119.9"/>
	<path class="st1" d="M395.1,239.2c14.3,8.5,23.8,24.1,23.8,42c0,12.4-4.6,23.8-12.3,32.3"/>
	<path class="st2" d="M395.1,239.2c14.3,8.5,23.8,24.1,23.8,42c0,12.4-4.6,23.8-12.3,32.3"/>
	<path class="st1" d="M348.8,390.7v-73.4c0-15,12.2-27.1,27.2-27.1c15,0,27.2,12.2,27.2,27.1"/>
	<path class="st1" d="M404.3,311.7c7,23.5,10.2,44.5,11.4,62.5L404.3,311.7z"/>
	<path class="st2" d="M354.6,457.2c0,0-23.8,40.9-48,82.7h-13.2"/>
	<path class="st2" d="M354.6,457.2"/>
	<path class="st2" d="M401,321.5"/>
	<path class="st3" d="M348.3,419.8c-30.7,20.8-112.8,94.4-112.8,119.9c0,21.4,19.2,36.7,43.3,48c-12.9,22.1-22.5,38.5-23.4,39.8
		c-9.5,13.7-31.5,14.3-40.1,20.6c-8.5,6.3-12.5,22-12.5,22h131.5l19.4-57.7c8.9,2.5,15.5,4.5,18.2,6.3c13.7,9.5,14.3,31.5,20.6,40
		s22,12.4,22,12.4V539.9H378L415.7,428l0-53.8c-1.1-18-4.3-39-11.4-62.5l-1.2,3.5c-1.1-14-12.8-25.1-27.1-25.1
		c-15,0-27.2,12.2-27.2,27.1L347.5,421"/>
	<path class="st2" d="M348.3,419.8"/>
	<path class="st2" d="M293.3,539.9"/>
	<path class="st3" d="M402.9,277.8c5.2,0,9.4-4.2,9.4-9.4c0-5.2-4.2-9.4-9.4-9.4c-5.2,0-9.4,4.2-9.4,9.4
		C393.5,273.6,397.8,277.8,402.9,277.8z"/>
	<path class="st3" d="M370.4,301.7c18.1,0,32.8-14.7,32.8-32.7c0-18.1-14.7-32.7-32.8-32.7c-18.1,0-32.8,14.7-32.8,32.7
		C337.6,287.1,352.3,301.7,370.4,301.7z"/>
	<path d="M359.1,270.8c1.3,0,2.4-1.1,2.4-2.4c0-1.3-1.1-2.4-2.4-2.4c-1.3,0-2.4,1.1-2.4,2.4C356.7,269.8,357.8,270.8,359.1,270.8z"
		/>
	<path class="st2" d="M395.1,231.4v4.9c0,0-0.4,27.7-34.5,22.8"/>
	<path d="M335.2,431.8c-16.7,0-33.8-7.3-48.2-21c-12.1-11.5-19.1-30.3-21.3-57.8c-1.4-17.2-0.4-32.2-0.4-32.7
		c1-14,13-24.6,27.2-23.8c14,1,24.7,13,23.8,27.1c-1.3,20.3,1.7,44.6,6.2,50.3c5.2,4.9,11.5,7.7,14.7,6.4c5.5-2,17-17.3,22-61.4
		c1.5-14,14.3-24.1,28.3-22.4c14,1.5,24.1,14.3,22.4,28.3c-6.6,57.8-25.2,92.6-55.4,103.5C348.3,430.8,341.7,431.8,335.2,431.8z"/>
	<path class="st4" d="M315.2,328l0.4-9c0.3-5.9,5.2-10.3,10.9-10.1h0.8c3.4,0.1,6.2-2.4,6.3-5.7c0.1-3.4-2.4-6.2-5.7-6.3l-14.9-0.6
		l1.8-32.2c0.1-3.2-2.4-5.9-5.6-6c-3.2-0.1-5.9,2.4-6,5.6l-1.1,26.9l1.1-26.9c0.1-3.2-2.4-5.9-5.6-6c-3.2-0.1-5.9,2.4-6,5.6
		l-1.1,26.4c0.1-3.2-2.4-5.9-5.6-6c-3.2-0.1-5.9,2.4-6,5.6c0.1-3.2-2.4-5.9-5.6-6c-3.2-0.1-5.9,2.4-6,5.6l-1.7,35.8"/>
	<path class="st5" d="M315.2,328l0.4-9c0.3-5.9,5.2-10.3,10.9-10.1h0.8c3.4,0.1,6.2-2.4,6.3-5.7c0.1-3.4-2.4-6.2-5.7-6.3l-14.9-0.6
		l1.8-32.2c0.1-3.2-2.4-5.9-5.6-6c-3.2-0.1-5.9,2.4-6,5.6l-1.1,26.9l1.1-26.9c0.1-3.2-2.4-5.9-5.6-6c-3.2-0.1-5.9,2.4-6,5.6
		l-1.1,26.4c0.1-3.2-2.4-5.9-5.6-6c-3.2-0.1-5.9,2.4-6,5.6c0.1-3.2-2.4-5.9-5.6-6c-3.2-0.1-5.9,2.4-6,5.6l-1.7,35.8"/>
	<path class="st5" d="M359.2,266.9h-6"/>
	<path d="M380.5,270.8c1.3,0,2.4-1.1,2.4-2.4c0-1.3-1.1-2.4-2.4-2.4c-1.3,0-2.4,1.1-2.4,2.4C378.1,269.8,379.2,270.8,380.5,270.8z"
		/>
	<path class="st5" d="M380.7,266.9h-6"/>
	<path class="st5" d="M364.4,278.2l5.6,5.7"/>
	<path class="st5" d="M364.4,284l5.6-5.7"/>
	<path class="st3" d="M415.7,428L334.3,670H202.8c0,0,3.9-15.7,12.5-22c8.5-6.3,30.6-6.9,40.1-20.6c2.9-4.3,99.2-170.2,99.2-170.2"
		/>
	<g id="Ebene_5" class="st6">
		<path class="st7" d="M382.2,321.2C382,353,352,386,333,378c-12.5-5.3-43-30-43-30"/>
		<path class="st4" d="M252.1,329.2c-2.3-2.1-5.8-1.9-7.9,0.4c-2.1,2.3-1.9,5.8,0.4,7.9l29.5,26.6l29.9-33.4l-7.2-6.5l8.3-9.2
			c2.1-2.3,1.9-5.8-0.4-7.9c-2.3-2.1-5.8-1.9-7.9,0.4l-8.2,9.2l-22.7-20.3c-2.3-2.1-5.8-1.9-7.9,0.4c-2.1,2.3-1.9,5.8,0.4,7.9
			l16.2,14.5l-16.2-14.6c-2.3-2.1-5.8-1.9-7.9,0.4c-2.1,2.3-1.9,5.8,0.4,7.9l16.2,14.5l-16.2-14.6c-2.3-2.1-5.8-1.9-7.9,0.4
			c-2.1,2.3-1.9,5.8,0.4,7.9l16.2,14.5"/>
		<path class="st5" d="M252.1,329.2c-2.3-2.1-5.8-1.9-7.9,0.4c-2.1,2.3-1.9,5.8,0.4,7.9l29.5,26.6l29.9-33.4l-7.2-6.5l8.3-9.2
			c2.1-2.3,1.9-5.8-0.4-7.9c-2.3-2.1-5.8-1.9-7.9,0.4l-8.2,9.2l-22.7-20.3c-2.3-2.1-5.8-1.9-7.9,0.4c-2.1,2.3-1.9,5.8,0.4,7.9
			l16.2,14.5l-16.2-14.6c-2.3-2.1-5.8-1.9-7.9,0.4c-2.1,2.3-1.9,5.8,0.4,7.9l16.2,14.5l-16.2-14.6c-2.3-2.1-5.8-1.9-7.9,0.4
			c-2.1,2.3-1.9,5.8,0.4,7.9l16.2,14.5"/>
	</g>
	<g id="Ebene_4" class="st6">
		<path class="st0" d="M369.1,266.2c0-1.8-1.3-3.2-2.9-3.2c-1.6,0-2.9,1.4-2.9,3.2c0,1.8,1.3,3.2,2.9,3.2
			C367.8,269.4,369.1,267.9,369.1,266.2z"/>
		<path class="st0" d="M356,266.4c0-1.7-1.4-3.1-3.1-3.1c-1.7,0-3.1,1.4-3.1,3.1s1.4,3.1,3.1,3.1C354.6,269.5,356,268.1,356,266.4z"
			/>
		<path d="M353.8,279.9l12.8-0.6l0.1,2.9c0.2,3.5-2.8,8.5-6.4,8.6c-3.5,0.1-6.3-4.5-6.5-8.1L353.8,279.9z"/>
		<path class="st4" d="M368.9,281.5c0.5-3-2.1-5.5-5.1-5.1c-1.9,0.3-3.4,1.8-3.7,3.7c-0.5,3,2.1,5.5,5.1,5.1
			C367.1,284.9,368.7,283.4,368.9,281.5z"/>
		<path class="st5" d="M353.8,279.9l12.8-0.6l-0.1,4.9c0.1,3.5-2.6,6.5-6.1,6.7c-3.5,0.2-6.5-2.6-6.7-6.1L353.8,279.9z"/>
		<path class="st8" d="M352.9,269.7c1.3,0,2.4-1.1,2.4-2.4c0-1.3-1.1-2.4-2.4-2.4c-1.3,0-2.4,1.1-2.4,2.4
			C350.6,268.7,351.6,269.7,352.9,269.7z"/>
		<path class="st8" d="M366.9,269.7c1.3,0,2.4-1.1,2.4-2.4c0-1.3-1.1-2.4-2.4-2.4c-1.3,0-2.4,1.1-2.4,2.4
			C364.6,268.7,365.6,269.7,366.9,269.7z"/>
	</g>
	<g id="Ebene_6" class="st6">
		<g>
			<g>
				<path class="st9" d="M239.1,226.7c20.5-2.5,10.6-20.4-3.8-20.3c-14.4,0.1-5.5,14,17.5,8.9c23-5.1,20-26.7-6.3-27.8
					c-26.3-1-18.8,15,14.4,12.4c33.2-2.5,29.3-23.4,0.6-30.3c-28.6-6.9-30.8,5.1-14.4,10.4c16.4,5.3,72.9,3.2,51.1-21.2
					c-21.9-24.4-55.9-25.3-55.9-25.3"/>
				<path class="st9" d="M159.9,234.6c0,0,16.6-5.1,14.4-20.6c-2.1-15.5-41.2,13.2-33,14.2c9,1.1,37.7-15.1,31.2-30.2
					c-7.9-18.6-46.2,5.1-45.6,12.4c0.8,9.5,29.2-1.7,37.1-17.6c7.9-15.9-1.3-33.1-36.3-13.7c-35,19.3-17.1,28,8.6,12.4
					c25.7-15.6,45.9-58.4,1-48.2c-44.9,10.2-58.6,48-31.4,36.8c27.2-11.2,70.1-46.6,45.9-58.4c-24.3-11.9-78.7,31.6-78.7,31.6"/>
				<path class="st5" d="M203.6,173.1l6.3-2.2l-6.9-20.1l-6.3,2.2L203.6,173.1z"/>
				<path class="st5" d="M212.6,155l6.3-2.2l-6.9-20.1l-6.3,2.2L212.6,155z"/>
				<path class="st5" d="M189.4,150.6l6.3-2.2l-6.9-20.1l-6.3,2.2L189.4,150.6z"/>
				<path class="st5" d="M47.5,177.3l4.8-4.6L67,188.1l-4.8,4.6L47.5,177.3z"/>
				<path class="st5" d="M48.1,157.2l4.8-4.6l14.7,15.3l-4.8,4.6L48.1,157.2z"/>
				<path class="st5" d="M25.2,162.8l4.8-4.6l14.7,15.3l-4.8,4.6L25.2,162.8z"/>
				<path class="st5" d="M18.9,136.5l4.8-4.6l14.7,15.3l-4.8,4.6L18.9,136.5z"/>
				<path class="st5" d="M169.2,276.9l4.8-4.6l14.7,15.3l-4.8,4.6L169.2,276.9z"/>
				<path class="st5" d="M169.8,256.7l4.8-4.6l14.7,15.3l-4.8,4.6L169.8,256.7z"/>
				<path class="st5" d="M229.1,74.3l6.3,2.1l-6.7,20.2l-6.3-2.1L229.1,74.3z"/>
				<path class="st5" d="M247.2,34.1l6.3,2.1l-6.7,20.2l-6.3-2.1L247.2,34.1z"/>
				<path class="st5" d="M254.5,62.8l6.3,2.1L254.1,85l-6.3-2.1L254.5,62.8z"/>
				<path class="st5" d="M231.4,47.8l6.3,2.1L231.1,70l-6.3-2L231.4,47.8z"/>
				<path class="st5" d="M174.3,86.4c-0.9-2.5-3.6-3.9-6.2-3c-2.5,0.9-3.9,3.6-3,6.2c0.9,2.5,3.6,3.9,6.2,3
					C173.9,91.7,175.2,89,174.3,86.4z"/>
				<path class="st5" d="M167.5,100.2c-0.9-2.5-3.6-3.9-6.2-3c-2.5,0.9-3.9,3.6-3,6.2c0.9,2.5,3.6,3.9,6.2,3
					C167.1,105.5,168.4,102.7,167.5,100.2z"/>
				<path class="st5" d="M158.1,87.7c-0.9-2.5-3.6-3.9-6.2-3c-2.5,0.9-3.9,3.6-3,6.2c0.9,2.5,3.6,3.9,6.2,3
					C157.6,93,159,90.2,158.1,87.7z"/>
				<path class="st5" d="M102.4,209.7c-0.9-2.5-3.6-3.9-6.2-3c-2.5,0.9-3.9,3.6-3,6.2c0.9,2.5,3.6,3.9,6.2,3
					S103.3,212.3,102.4,209.7z"/>
				<path class="st5" d="M98.4,224.5c-0.9-2.5-3.6-3.9-6.2-3c-2.5,0.9-3.9,3.6-3,6.2c0.9,2.5,3.6,3.9,6.2,3
					C97.9,229.8,99.3,227,98.4,224.5z"/>
				<path class="st5" d="M86.7,214.1c-0.9-2.5-3.6-3.9-6.2-3c-2.5,0.9-3.9,3.6-3,6.2c0.9,2.5,3.6,3.9,6.2,3
					C86.2,219.4,87.6,216.7,86.7,214.1z"/>
				<path class="st5" d="M118.7,266.5c-0.9-2.5-3.6-3.9-6.2-3c-2.5,0.9-3.9,3.6-3,6.2c0.9,2.5,3.6,3.9,6.2,3
					C118.2,271.8,119.5,269.1,118.7,266.5z"/>
				<path class="st5" d="M114.7,281.3c-0.9-2.5-3.6-3.9-6.2-3c-2.5,0.9-3.9,3.6-3,6.2c0.9,2.5,3.6,3.9,6.2,3
					C114.2,286.6,115.6,283.9,114.7,281.3z"/>
				<path class="st5" d="M103,270.9c-0.9-2.5-3.6-3.9-6.2-3c-2.5,0.9-3.9,3.6-3,6.2c0.9,2.5,3.6,3.9,6.2,3
					C102.5,276.3,103.9,273.5,103,270.9z"/>
			</g>
		</g>
	</g>
</g>
<g id="Ebene_7">
	<polygon class="st4" points="2.7,422.1 6.8,440.5 68.5,466.2 79.1,417.1 64,411 	"/>
	<path class="st4" d="M61.6,492.5l-80,90.8L80.2,670c0,0,7.4-14.3,5.2-24.8c-2.2-10.5-18.5-25.3-16.5-41.8
		c2-16.5,115.1-91.6,65.7-147.7c-16.8-19.2-39.9-33-63.4-41.8"/>
	<path class="st5" d="M61.6,492.5l-80,90.8L80.2,670c0,0,7.4-14.3,5.2-24.8c-2.2-10.5-18.5-25.3-16.5-41.8
		c2-16.5,115.1-91.6,65.7-147.7c-16.8-19.2-39.9-33-63.4-41.8"/>
	<path class="st4" d="M2.7,428l79,241.9h131.5c0,0-3.9-15.7-12.5-22c-8.5-6.3-30.6-6.9-40.1-20.6C157.7,623.1,62.1,455,62.1,455"/>
	<path class="st5" d="M2.7,428l79,241.9h131.5c0,0-3.9-15.7-12.5-22c-8.5-6.3-30.6-6.9-40.1-20.6C157.7,623.1,62.1,455,62.1,455"/>
	<path class="st4" d="M71,414c1-12,8.2-71.1,8.1-75.1c-0.8-14-4.5-26.7-4.5-26.7c-3.6-10.2-11.8-18.7-22.7-22.7
		c-19.6-7-40.1,3.6-48.2,22.7C0,320.9,2.8,427.9,2.8,427.9"/>
	<path class="st5" d="M72.5,414.5c-3-11,6.7-71.6,6.6-75.6c-0.8-14-4.5-26.7-4.5-26.7c-3.6-10.2-11.8-18.7-22.7-22.7
		c-19.6-7-40.1,3.6-48.2,22.7C0,320.9,2.8,427.9,2.8,427.9"/>
	<path class="st10" d="M11.7,275.9c5.1,0,9.3-4.1,9.3-9.2c0-5.1-4.1-9.2-9.3-9.2c-5.1,0-9.3,4.1-9.3,9.2
		C2.4,271.7,6.6,275.9,11.7,275.9z"/>
	<path class="st10" d="M43.9,298.9c18,0,32.5-14.5,32.5-32.4S61.9,234,43.9,234s-32.5,14.5-32.5,32.4S25.9,298.9,43.9,298.9z"/>
	<path class="st5" d="M8.3,269.1c-0.1-1.5-0.1-2.9,0-4.3"/>
	<path class="st5" d="M62.5,250c0,3.4,2.4,6.4,6,7c3.2,0.4,6.4-1.5,7.6-4.6c0.8-2.7,0.1-5.3-1.7-7.1c-0.1-0.1,0-0.4,0.3-0.4
		c1,0.3,2,0.4,3.2,0.1c2.4-0.4,4.3-2.1,5.2-4.2c1.5-4.1-0.8-8.4-4.9-9.4c-2.5-0.6-4.9,0.3-6.6,2c-0.1,0.1-0.4,0-0.3-0.3
		c0.4-1.4,0.6-2.8,0.4-4.5c-0.6-4.1-3.4-7.6-7.1-8.9c-5.5-1.8-11.2,0.8-13.5,5.9c-9-0.7-16,4.1-18.6,10.6"/>
	<path class="st11" d="M785.3,272.1c0.3,0,0.6-0.3,0.6-0.6s-0.3-0.6-0.6-0.6s-0.6,0.3-0.6,0.6S784.9,272.1,785.3,272.1z"/>
	<path class="st12" d="M803.5,266.4c1.3,0,2.4-1.1,2.4-2.4c0-1.3-1.1-2.4-2.4-2.4c-1.3,0-2.4,1.1-2.4,2.4
		C801.1,265.3,802.2,266.4,803.5,266.4z"/>
	<path class="st12" d="M825.6,265.8c1.3,0,2.4-1.1,2.4-2.4c0-1.3-1.1-2.4-2.4-2.4s-2.4,1.1-2.4,2.4
		C823.2,264.7,824.3,265.8,825.6,265.8z"/>
	<path class="st12" d="M803.3,261.6l6.7-0.1"/>
	<path class="st12" d="M825.5,261h6"/>
	<path class="st13" d="M806,274.5l17.4-0.3"/>
	<path class="st13" d="M807.7,272.9l-2.7,2.8"/>
	<path class="st0" d="M835.4,431.8c-6.4,0-13-1.1-19.2-3.4c-30.1-10.9-48.8-45.7-55.4-103.5c-1.5-14,8.4-26.6,22.4-28.3
		c14-1.7,26.6,8.4,28.3,22.4c5,44.1,16.7,59.4,22,61.4c3.2,1.1,9.5-1.7,14.7-6.4c4.5-5.6,7.4-30.1,6.2-50.3
		c-0.8-14,9.8-26.2,23.8-27c14-1,26.2,9.6,27.2,23.8c0,0.6,1,15.5-0.4,32.7c-2.2,27.4-9.3,46.3-21.3,57.8
		C869.3,424.7,852.3,431.8,835.4,431.8z"/>
	<path class="st14" d="M855.5,328l-0.4-9c-0.3-5.9-5.2-10.3-10.9-10.1h-0.8c-3.4,0.1-6.2-2.4-6.3-5.7c-0.1-3.4,2.4-6.2,5.7-6.3
		l14.9-0.6l-1.8-32.2c-0.1-3.2,2.4-5.9,5.6-6c3.2-0.1,5.9,2.4,6,5.6l1.1,26.9l-1.1-26.9c-0.1-3.2,2.4-5.9,5.6-6
		c3.2-0.1,5.9,2.4,6,5.6l1.1,26.4c-0.1-3.2,2.4-5.9,5.6-6c3.2-0.1,5.9,2.4,6,5.6c-0.1-3.2,2.4-5.9,5.6-6c3.2-0.1,5.9,2.4,6,5.6
		l1.7,35.8"/>
	<path class="st12" d="M855.5,328l-0.4-9c-0.3-5.9-5.2-10.3-10.9-10.1h-0.8c-3.4,0.1-6.2-2.4-6.3-5.7c-0.1-3.4,2.4-6.2,5.7-6.3
		l14.9-0.6l-1.8-32.2c-0.1-3.2,2.4-5.9,5.6-6c3.2-0.1,5.9,2.4,6,5.6l1.1,26.9l-1.1-26.9c-0.1-3.2,2.4-5.9,5.6-6
		c3.2-0.1,5.9,2.4,6,5.6l1.1,26.4c-0.1-3.2,2.4-5.9,5.6-6c3.2-0.1,5.9,2.4,6,5.6c-0.1-3.2,2.4-5.9,5.6-6c3.2-0.1,5.9,2.4,6,5.6
		l1.7,35.8"/>
	<path class="st15" d="M34.7,271.8c0.3,0,0.5-0.2,0.5-0.5s-0.2-0.5-0.5-0.5c-0.3,0-0.5,0.2-0.5,0.5S34.4,271.8,34.7,271.8z"/>
	<path class="st15" d="M37,274.3c0.3,0,0.5-0.2,0.5-0.5c0-0.3-0.2-0.5-0.5-0.5c-0.3,0-0.5,0.2-0.5,0.5
		C36.5,274.1,36.7,274.3,37,274.3z"/>
	<path class="st15" d="M29.8,271.8c0.3,0,0.5-0.2,0.5-0.5s-0.2-0.5-0.5-0.5c-0.3,0-0.5,0.2-0.5,0.5S29.5,271.8,29.8,271.8z"/>
	<path class="st15" d="M34.7,276.8c0.3,0,0.5-0.2,0.5-0.5s-0.2-0.5-0.5-0.5c-0.3,0-0.5,0.2-0.5,0.5S34.4,276.8,34.7,276.8z"/>
	<path class="st15" d="M32.2,274.2c0.3,0,0.5-0.2,0.5-0.5c0-0.3-0.2-0.5-0.5-0.5c-0.3,0-0.5,0.2-0.5,0.5
		C31.7,274,31.9,274.2,32.2,274.2z"/>
	<path class="st16" d="M33.6,271.9c0.3,0,0.5-0.2,0.5-0.5s-0.2-0.5-0.5-0.5c-0.3,0-0.5,0.2-0.5,0.5S33.3,271.9,33.6,271.9z"/>
	<path class="st16" d="M36.2,274.5c0.3,0,0.5-0.2,0.5-0.5c0-0.3-0.2-0.5-0.5-0.5c-0.3,0-0.5,0.2-0.5,0.5
		C35.7,274.2,35.9,274.5,36.2,274.5z"/>
	<path class="st16" d="M28.6,271.9c0.3,0,0.5-0.2,0.5-0.5s-0.2-0.5-0.5-0.5c-0.3,0-0.5,0.2-0.5,0.5S28.3,271.9,28.6,271.9z"/>
	<path class="st16" d="M33.6,277.2c0.3,0,0.5-0.2,0.5-0.5c0-0.3-0.2-0.5-0.5-0.5c-0.3,0-0.5,0.2-0.5,0.5
		C33.1,277,33.3,277.2,33.6,277.2z"/>
	<path class="st16" d="M31,274.5c0.3,0,0.5-0.2,0.5-0.5c0-0.3-0.2-0.5-0.5-0.5c-0.3,0-0.5,0.2-0.5,0.5
		C30.5,274.2,30.8,274.5,31,274.5z"/>
	<path class="st5" d="M41.6,262.1c0,1.9,1.5,3.5,3.5,3.5c1.9,0,3.5-1.5,3.5-3.5"/>
	<path class="st5" d="M59,262.1c0,1.9,1.5,3.5,3.5,3.5s3.5-1.5,3.5-3.5"/>
	<g id="Ebene_8">
		<path d="M143.3,343.9l-1.4,8c-6.9,38.8-42.6,52.3-81.3,45.5s-64.7-43.9-57.8-82.7c2.3-12.8,14.6-21.4,27.4-19.2
			c12.8,2.3,21.4,14.6,19.2,27.4c-2.3,13.1,6.4,25.6,19.5,27.9c13.1,2.3,29.2,0.9,31.5-12.2l1.4-8"/>
		<g id="Ebene_9">
			<polygon class="st17" points="80.2,322.3 123.8,278.8 127.2,322.3 152.3,347.5 175.7,347.5 147.2,376 147.2,352.5 122.1,327.4 
							"/>
			<polygon class="st18" points="80.2,322.3 123.8,278.8 127.2,322.3 152.3,347.5 175.7,347.5 147.2,376 147.2,352.5 122.1,327.4 
							"/>
			<path class="st19" d="M126,303c-4.8-0.1-4.9,0.6-6,2c-2.1,2.6-5.7-0.9-8,2c-2.1,2.7-0.5,2.3-3,5c-3.4,3.6-5.4,0.9-8,2
				c-2.2,1-1.7,3.1-4,4c-2.1,0.8-7.9,1.4-8,5l34.8,4.4l3.4-3.3L126,303z"/>
		</g>
		<polygon class="st4" points="117,329 132,315 137,317 137,322 142.3,323.7 143,328 148.1,330.6 150,335 151,338 157,340 
			158.4,343.7 150,352 147,355 129,346 		"/>
		<path class="st4" d="M108.3,330.1l2.3,2.2l3.8-4.2"/>
		<path class="st5" d="M108.3,330.1l2.3,2.2l3.8-4.2"/>
		<path class="st4" d="M154.5,348l-21.6,24.3l-32.3-28.7l3.5-3.9l-0.7-0.6c-4.1-3.7-4.3-10-0.5-14.2l6.1-6.9c2.2-2.5,6-2.6,8.2-0.3
			c1.9,2,1.7,5.4-0.3,7.6"/>
		<path class="st20" d="M119.2,326.8c0,0,8.3-9.3,10.3-10.3s4.5-2.5,7,0s0,7,0,7s5-1,7,1s0,6,0,6s4-1,6,1s1,6,1,6s4,0,6,2s2,5,2,5
			l-4.9,4.5l-20.7,23.3l-32.3-28.7l3.3-3.7l-0.7-0.6c-4.1-3.7-4.4-9.9-0.8-13.9l5.8-6.6c2.1-2.4,5.8-2.4,8-0.1
			c1.9,2,1.8,5.3-0.1,7.5"/>
		<path class="st21" d="M125.6,315.6L114.3,328c-2,2.3-1.8,5.6,0.4,7.6c2.3,2,5.6,1.8,7.6-0.4l11.3-12.5L125.6,315.6z"/>
		<path class="st21" d="M133.6,322.8l-11.3,12.5c-2,2.3-1.8,5.6,0.4,7.6s5.6,1.8,7.6-0.4l11.3-12.5L133.6,322.8z"/>
		<path class="st21" d="M141.6,330l-11.3,12.5c-2,2.3-1.8,5.6,0.4,7.6c2.3,2,5.6,1.8,7.6-0.4l11.3-12.5L141.6,330z"/>
		<path class="st21" d="M149.7,337.1l-11.3,12.5c-2,2.3-1.8,5.6,0.4,7.6s5.6,1.8,7.6-0.4l11.3-12.5L149.7,337.1z"/>
		<path class="st21" d="M874.9,311.1l-7.4,8.2l8,7.2l7.4-8.2L874.9,311.1z"/>
	</g>
	<g id="Ebene_10">
		<path class="st22" d="M58.4,282.4c0-2.4-2-4.4-4.4-4.4c-2.4,0-4.4,2-4.4,4.4s2,4.4,4.4,4.4C56.5,286.7,58.4,284.8,58.4,282.4z"/>
		<path class="st4" d="M54.9,280.9c0-1.3-1-2.3-2.3-2.3c-1.3,0-2.3,1-2.3,2.3s1,2.3,2.3,2.3C53.9,283.2,54.9,282.2,54.9,280.9z"/>
		<path class="st23" d="M58.4,282.4c0-2.4-2-4.4-4.4-4.4c-2.4,0-4.4,2-4.4,4.4s2,4.4,4.4,4.4C56.5,286.7,58.4,284.8,58.4,282.4z"/>
	</g>
</g>
<g id="Ebene_2" class="st0">
	<path class="st24" d="M127.4,350C22.4,392.5-47.5,472.2,13.7,545.1c61.2,72.9,194.5,71.5,382.5-33.5
		c73.6-24.4,140.7-64.9,162.2-125.6c21.5-60.6,51-243-132.5-265.8C200.9,112.5,245.2,280.1,127.4,350z"/>
	<path class="st25" d="M157.7,209l7.8,8l10.9-1.8l-5.2,9.9l5.2,9.8l-10.9-1.8l-7.8,7.8l-1.5-10.9l-10.1-5l10.1-4.9L157.7,209z"/>
	<path class="st2" d="M153.3,204.8l7.8,8l10.9-1.8l-5.2,9.8l5.2,9.9l-11.1-2l-7.7,8l-1.7-11l-10-5l10-4.9L153.3,204.8z"/>
	<path class="st25" d="M206,103.1l2,11l10.1,4.6l-10,5.2l-1.3,11l-8-7.7l-10.9,2.1l4.9-9.9l-5.5-9.8l11.1,1.7L206,103.1z"/>
	<path class="st2" d="M204.7,97.1l2,10.9l10.1,4.8l-10,5.2l-1.3,11l-8-7.8l-11.1,2.1l5-9.9l-5.5-9.6l11.1,1.5L204.7,97.1z"/>
	<path class="st3" d="M224.7,212.2l56-22.3l-13.6-34l-56,22.3L224.7,212.2z"/>
	<path class="st3" d="M214.2,176.9l8.1-3.2l-1.7-4.2l-8.1,3.2L214.2,176.9z"/>
	<path class="st25" d="M258.2,188.8c6.3,0,11.5-5.1,11.5-11.5c0-6.3-5.1-11.5-11.5-11.5c-6.3,0-11.5,5.1-11.5,11.5
		C246.7,183.7,251.9,188.8,258.2,188.8z"/>
	<path class="st2" d="M258.7,192.2l-9.8,3.9c-5.9,2.4-12.6-0.6-14.9-6.4c-2.4-5.9,0.6-12.6,6.4-14.8l9.8-3.9"/>
	<path class="st2" d="M255.6,192.6c6.3,0,11.5-5.1,11.5-11.5c0-6.3-5.1-11.5-11.5-11.5c-6.3,0-11.5,5.1-11.5,11.5
		C244.1,187.5,249.2,192.6,255.6,192.6z"/>
	<path class="st2" d="M226.6,180.3l-4.5,1.8"/>
	<path class="st2" d="M271.3,155l7.3-7.4"/>
	<path class="st2" d="M267.1,151.3l2.5-9.6"/>
	<path class="st2" d="M261,152.7l-2.8-7.8"/>
</g>
<g id="Ebene_3" class="st0">
</g>
</svg>
