<?xml version="1.0" encoding="UTF-8" standalone="no"?>
<svg
   xmlns:dc="http://purl.org/dc/elements/1.1/"
   xmlns:cc="http://creativecommons.org/ns#"
   xmlns:rdf="http://www.w3.org/1999/02/22-rdf-syntax-ns#"
   xmlns:svg="http://www.w3.org/2000/svg"
   xmlns="http://www.w3.org/2000/svg"
   xmlns:sodipodi="http://sodipodi.sourceforge.net/DTD/sodipodi-0.dtd"
   xmlns:inkscape="http://www.inkscape.org/namespaces/inkscape"
   width="445.22015"
   height="386.56979"
   viewBox="0 0 445.22015 386.56979"
   fill="none"
   version="1.1"
   id="svg316"
   sodipodi:docname="CCS-header-illustration.svg"
   inkscape:version="1.0.2 (e86c870879, 2021-01-15)">
  <metadata
     id="metadata322">
    <rdf:RDF>
      <cc:Work
         rdf:about="">
        <dc:format>image/svg+xml</dc:format>
        <dc:type
           rdf:resource="http://purl.org/dc/dcmitype/StillImage" />
      </cc:Work>
    </rdf:RDF>
  </metadata>
  <defs
     id="defs320" />
  <sodipodi:namedview
     pagecolor="#ffffff"
     bordercolor="#666666"
     borderopacity="1"
     objecttolerance="10"
     gridtolerance="10"
     guidetolerance="10"
     inkscape:pageopacity="0"
     inkscape:pageshadow="2"
     inkscape:window-width="1920"
     inkscape:window-height="1027"
     id="namedview318"
     showgrid="false"
     inkscape:zoom="1.5116279"
     inkscape:cx="219.10715"
     inkscape:cy="194.45359"
     inkscape:window-x="0"
     inkscape:window-y="0"
     inkscape:window-maximized="1"
     inkscape:current-layer="svg316" />
  <path
     d="m 162.97415,17.813 c -5.45,2.6201 -10.751,5.5001 -15.887,8.624 m -40.798,33.6578 c -1.614,1.774 -3.193,3.58 -4.737,5.416 m -28.024003,45.23 c -1.09,2.51 -2.126,5.049 -3.106,7.615 m -11.202,47.676 c -0.211,2.158 -0.384,4.326 -0.519,6.505 m 4.4,53.433 c 3.104,13.39 7.665,26.221 13.508,38.317 m 43.064003,57.219 c 8.153,7.313 16.96,13.91 26.323,19.694 m 49.687,21.341 c 5.841,1.539 11.795,2.798 17.847,3.763 m 47.858,1.385 c 8.063,-0.807 15.973,-2.133 23.696,-3.944 m 50.659,-20.222 c 42.224,-24.677 73.759,-65.654 85.975,-114.3 m 5.214,-56.221 c -0.252,-4.222 -0.645,-8.405 -1.176,-12.545 m -13.825,-50.052 c -1.813,-4.152 -3.775,-8.224 -5.878,-12.21"
     stroke="#000000"
     stroke-width="2"
     stroke-linecap="round"
     stroke-linejoin="round"
     id="path2" />
  <path
     d="m 187.25515,345.3588 c 0,3.153 -4.02,5.598 -7.176,5.598 l 1.135,-5.598 -0.816,-5.71 c 3.156,0 6.857,2.556 6.857,5.71 z"
     fill="#86ec16"
     id="path4" />
  <path
     d="m 151.82615,345.3588 c 0,3.153 4.187,5.598 7.343,5.598 l -1.302,-5.598 0.816,-5.71 c -3.156,0 -6.857,2.556 -6.857,5.71 z"
     fill="#86ec16"
     id="path6" />
  <path
     d="m 181.54215,342.5038 v 0 c 0,-5.992 -4.857,-10.849 -10.848,-10.849 h -2.305 c -5.991,0 -10.848,4.857 -10.848,10.849 v 0"
     stroke="#86ec16"
     stroke-width="4"
     id="path8" />
  <path
     d="m 180.54215,345.3588 c 0,6.068 -4.924,10.99 -11.001,10.99 -6.076,0 -11,-4.922 -11,-10.99 0,-6.069 4.924,-10.991 11,-10.991 6.077,0 11.001,4.922 11.001,10.991 z"
     fill="#ffffff"
     stroke="#000000"
     stroke-width="2"
     id="path10" />
  <ellipse
     cx="166.49615"
     cy="343.30283"
     rx="1.82692"
     ry="1.82707"
     fill="#000000"
     id="ellipse12" />
  <ellipse
     cx="172.58215"
     cy="343.30283"
     rx="1.82692"
     ry="1.82707"
     fill="#000000"
     id="ellipse14" />
  <path
     d="m 172.53315,350.3448 c 2.857,0.095 10.404,-0.571 10.404,-3.997"
     stroke="#86ec16"
     stroke-width="2"
     id="path16" />
  <rect
     x="167.10315"
     y="348.63181"
     width="6.8576102"
     height="3.42575"
     rx="1.71288"
     fill="#86ec16"
     id="rect18" />
  <path
     fill-rule="evenodd"
     clip-rule="evenodd"
     d="m 159.53515,351.5628 c -4.751,1.216 -8.264,5.527 -8.264,10.657 v 0.835 c 0,2.209 1.791,4 4,4 h 28.538 c 2.21,0 4,-1.791 4,-4 v -0.835 c 0,-5.13 -3.512,-9.441 -8.264,-10.657 -2.149,3.235 -5.828,5.367 -10.005,5.367 -4.177,0 -7.855,-2.132 -10.005,-5.367 z"
     fill="#000000"
     id="path20" />
  <path
     d="m 255.09115,364.8728 c 0,3.154 -4.02,5.599 -7.176,5.599 l 1.135,-5.599 -0.816,-5.709 c 3.156,0 6.857,2.556 6.857,5.709 z"
     fill="#86ec16"
     id="path22" />
  <path
     d="m 219.66215,364.8728 c 0,3.154 4.187,5.599 7.343,5.599 l -1.302,-5.599 0.816,-5.709 c -3.156,0 -6.857,2.556 -6.857,5.709 z"
     fill="#86ec16"
     id="path24" />
  <path
     d="m 249.37815,362.0178 v 0 c 0,-5.991 -4.857,-10.848 -10.848,-10.848 h -2.305 c -5.992,0 -10.848,4.857 -10.848,10.848 v 0"
     stroke="#86ec16"
     stroke-width="4"
     id="path26" />
  <path
     d="m 248.37815,364.8728 c 0,6.069 -4.924,10.99 -11.001,10.99 -6.076,0 -11,-4.921 -11,-10.99 0,-6.069 4.924,-10.99 11,-10.99 6.077,0 11.001,4.921 11.001,10.99 z"
     fill="#ffffff"
     stroke="#000000"
     stroke-width="2"
     id="path28" />
  <ellipse
     cx="234.33215"
     cy="362.81781"
     rx="1.82692"
     ry="1.82707"
     fill="#000000"
     id="ellipse30" />
  <ellipse
     cx="240.41815"
     cy="362.81781"
     rx="1.82692"
     ry="1.82707"
     fill="#000000"
     id="ellipse32" />
  <path
     d="m 240.36915,369.8598 c 2.857,0.095 10.404,-0.571 10.404,-3.997"
     stroke="#86ec16"
     stroke-width="2"
     id="path34" />
  <rect
     x="234.93915"
     y="368.14682"
     width="6.8576198"
     height="3.42575"
     rx="1.71288"
     fill="#86ec16"
     id="rect36" />
  <path
     fill-rule="evenodd"
     clip-rule="evenodd"
     d="m 227.37115,371.0778 c -4.751,1.216 -8.264,5.526 -8.264,10.657 v 0.835 c 0,2.209 1.791,4 4,4 h 28.538 c 2.21,0 4,-1.791 4,-4 v -0.835 c 0,-5.131 -3.512,-9.441 -8.264,-10.657 -2.149,3.234 -5.828,5.367 -10.005,5.367 -4.177,0 -7.856,-2.133 -10.005,-5.367 z"
     fill="#000000"
     id="path38" />
  <path
     d="m 328.50515,349.0758 c 0,3.153 -4.02,5.599 -7.176,5.599 l 1.135,-5.599 -0.816,-5.71 c 3.156,0 6.857,2.557 6.857,5.71 z"
     fill="#86ec16"
     id="path40" />
  <path
     d="m 293.07615,349.0758 c 0,3.153 4.187,5.599 7.343,5.599 l -1.302,-5.599 0.816,-5.71 c -3.156,0 -6.857,2.557 -6.857,5.71 z"
     fill="#86ec16"
     id="path42" />
  <path
     d="m 322.79215,346.2208 v 0 c 0,-5.991 -4.857,-10.848 -10.848,-10.848 h -2.305 c -5.991,0 -10.848,4.857 -10.848,10.848 v 0"
     stroke="#86ec16"
     stroke-width="4"
     id="path44" />
  <path
     d="m 321.79215,349.0758 c 0,6.069 -4.924,10.99 -11.001,10.99 -6.076,0 -11,-4.921 -11,-10.99 0,-6.069 4.924,-10.99 11,-10.99 6.077,0 11.001,4.921 11.001,10.99 z"
     fill="#ffffff"
     stroke="#000000"
     stroke-width="2"
     id="path46" />
  <ellipse
     cx="307.74615"
     cy="347.01981"
     rx="1.82692"
     ry="1.82707"
     fill="#000000"
     id="ellipse48" />
  <ellipse
     cx="313.83215"
     cy="347.01981"
     rx="1.82692"
     ry="1.82707"
     fill="#000000"
     id="ellipse50" />
  <path
     d="m 313.78315,354.0618 c 2.857,0.096 10.404,-0.571 10.404,-3.996"
     stroke="#86ec16"
     stroke-width="2"
     id="path52" />
  <rect
     x="308.35315"
     y="352.34882"
     width="6.8576198"
     height="3.42575"
     rx="1.71288"
     fill="#86ec16"
     id="rect54" />
  <path
     fill-rule="evenodd"
     clip-rule="evenodd"
     d="m 300.78515,355.2798 c -4.751,1.217 -8.264,5.527 -8.264,10.658 v 0.834 c 0,2.209 1.791,4 4,4 h 28.538 c 2.21,0 4,-1.791 4,-4 v -0.834 c 0,-5.131 -3.512,-9.441 -8.264,-10.658 -2.149,3.235 -5.828,5.367 -10.005,5.367 -4.177,0 -7.855,-2.132 -10.005,-5.367 z"
     fill="#000000"
     id="path56" />
  <path
     d="m 444.66615,197.6038 c 0,3.154 -4.021,5.599 -7.177,5.599 l 1.135,-5.599 -0.816,-5.709 c 3.156,0 6.858,2.556 6.858,5.709 z"
     fill="#86ec16"
     id="path58" />
  <path
     d="m 409.23615,197.6038 c 0,3.154 4.187,5.599 7.343,5.599 l -1.302,-5.599 0.817,-5.709 c -3.157,0 -6.858,2.556 -6.858,5.709 z"
     fill="#86ec16"
     id="path60" />
  <path
     d="m 438.95215,194.7488 v 0 c 0,-5.991 -4.856,-10.848 -10.848,-10.848 h -2.305 c -5.991,0 -10.848,4.857 -10.848,10.848 v 0"
     stroke="#86ec16"
     stroke-width="4"
     id="path62" />
  <path
     d="m 437.95215,197.6038 c 0,6.069 -4.924,10.99 -11,10.99 -6.077,0 -11.001,-4.921 -11.001,-10.99 0,-6.069 4.924,-10.99 11.001,-10.99 6.076,0 11,4.921 11,10.99 z"
     fill="#ffffff"
     stroke="#000000"
     stroke-width="2"
     id="path64" />
  <ellipse
     cx="423.90714"
     cy="195.54781"
     rx="1.82692"
     ry="1.82707"
     fill="#000000"
     id="ellipse66" />
  <ellipse
     cx="429.99216"
     cy="195.54781"
     rx="1.82692"
     ry="1.82707"
     fill="#000000"
     id="ellipse68" />
  <path
     d="m 429.94315,202.5908 c 2.857,0.095 10.404,-0.571 10.404,-3.997"
     stroke="#86ec16"
     stroke-width="2"
     id="path70" />
  <rect
     x="424.51315"
     y="200.87779"
     width="6.8576198"
     height="3.42575"
     rx="1.71288"
     fill="#86ec16"
     id="rect72" />
  <path
     fill-rule="evenodd"
     clip-rule="evenodd"
     d="m 416.94515,203.8088 c -4.751,1.216 -8.264,5.526 -8.264,10.657 v 0.834 c 0,2.21 1.791,4 4,4 h 28.539 c 2.209,0 4,-1.79 4,-4 v -0.834 c 0,-5.131 -3.513,-9.441 -8.264,-10.657 -2.15,3.234 -5.828,5.366 -10.006,5.366 -4.177,0 -7.855,-2.132 -10.005,-5.366 z"
     fill="#000000"
     id="path74" />
  <path
     d="m 437.22815,131.6258 c 0,3.153 -4.02,5.599 -7.176,5.599 l 1.135,-5.599 -0.817,-5.71 c 3.157,0 6.858,2.557 6.858,5.71 z"
     fill="#86ec16"
     id="path76" />
  <path
     d="m 401.79815,131.6258 c 0,3.153 4.188,5.599 7.344,5.599 l -1.302,-5.599 0.816,-5.71 c -3.156,0 -6.858,2.557 -6.858,5.71 z"
     fill="#86ec16"
     id="path78" />
  <path
     d="m 431.51515,128.7708 v 0 c 0,-5.992 -4.857,-10.848 -10.848,-10.848 h -2.306 c -5.991,0 -10.848,4.856 -10.848,10.848 v 0"
     stroke="#86ec16"
     stroke-width="4"
     id="path80" />
  <path
     d="m 430.51515,131.6258 c 0,6.068 -4.924,10.99 -11.001,10.99 -6.076,0 -11.001,-4.922 -11.001,-10.99 0,-6.069 4.925,-10.991 11.001,-10.991 6.077,0 11.001,4.922 11.001,10.991 z"
     fill="#ffffff"
     stroke="#000000"
     stroke-width="2"
     id="path82" />
  <ellipse
     cx="416.46915"
     cy="129.56979"
     rx="1.82692"
     ry="1.82707"
     fill="#000000"
     id="ellipse84" />
  <ellipse
     cx="422.55515"
     cy="129.56979"
     rx="1.82692"
     ry="1.82707"
     fill="#000000"
     id="ellipse86" />
  <path
     d="m 422.50515,136.6118 c 2.858,0.095 10.405,-0.571 10.405,-3.997"
     stroke="#86ec16"
     stroke-width="2"
     id="path88" />
  <rect
     x="417.07614"
     y="134.8988"
     width="6.8576198"
     height="3.42575"
     rx="1.71288"
     fill="#86ec16"
     id="rect90" />
  <path
     fill-rule="evenodd"
     clip-rule="evenodd"
     d="m 409.50815,137.8298 c -4.752,1.217 -8.264,5.527 -8.264,10.657 v 0.835 c 0,2.209 1.791,4 4,4 h 28.538 c 2.209,0 4,-1.791 4,-4 v -0.835 c 0,-5.13 -3.512,-9.44 -8.264,-10.657 -2.149,3.235 -5.828,5.367 -10.005,5.367 -4.177,0 -7.856,-2.132 -10.005,-5.367 z"
     fill="#000000"
     id="path92" />
  <path
     d="m 80.388147,139.0598 c 0,3.154 -4.02,5.599 -7.176,5.599 l 1.135,-5.599 -0.816,-5.709 c 3.156,0 6.857,2.556 6.857,5.709 z"
     fill="#86ec16"
     id="path94" />
  <path
     d="m 44.959147,139.0598 c 0,3.154 4.187,5.599 7.343,5.599 l -1.302,-5.599 0.816,-5.709 c -3.156,0 -6.857,2.556 -6.857,5.709 z"
     fill="#86ec16"
     id="path96" />
  <path
     d="m 74.675147,136.2048 v 0 c 0,-5.991 -4.857,-10.848 -10.848,-10.848 h -2.305 c -5.992,0 -10.849,4.857 -10.849,10.848 v 0"
     stroke="#86ec16"
     stroke-width="4"
     id="path98" />
  <path
     d="m 73.675147,139.0598 c 0,6.069 -4.924,10.99 -11.001,10.99 -6.076,0 -11.001,-4.921 -11.001,-10.99 0,-6.069 4.925,-10.99 11.001,-10.99 6.077,0 11.001,4.921 11.001,10.99 z"
     fill="#ffffff"
     stroke="#000000"
     stroke-width="2"
     id="path100" />
  <ellipse
     cx="59.62915"
     cy="137.00479"
     rx="1.82692"
     ry="1.82707"
     fill="#000000"
     id="ellipse102" />
  <ellipse
     cx="65.715149"
     cy="137.00479"
     rx="1.82692"
     ry="1.82707"
     fill="#000000"
     id="ellipse104" />
  <path
     d="m 65.666147,144.0468 c 2.857,0.095 10.404,-0.571 10.404,-3.997"
     stroke="#86ec16"
     stroke-width="2"
     id="path106" />
  <rect
     x="60.236145"
     y="142.3338"
     width="6.8576198"
     height="3.42575"
     rx="1.71288"
     fill="#86ec16"
     id="rect108" />
  <path
     fill-rule="evenodd"
     clip-rule="evenodd"
     d="m 52.668147,145.2648 c -4.752,1.216 -8.264,5.526 -8.264,10.657 v 0.835 c 0,2.209 1.791,4 4,4 h 28.538 c 2.209,0 4,-1.791 4,-4 v -0.835 c 0,-5.131 -3.512,-9.441 -8.264,-10.657 -2.149,3.234 -5.828,5.367 -10.005,5.367 -4.177,0 -7.856,-2.133 -10.005,-5.367 z"
     fill="#000000"
     id="path110" />
  <path
     d="m 106.40815,82.3748 c 0,3.153 -4.021,5.599 -7.177003,5.599 l 1.136003,-5.599 -0.817003,-5.71 c 3.156003,0 6.858003,2.557 6.858003,5.71 z"
     fill="#86ec16"
     id="path112" />
  <path
     d="m 70.978147,82.3748 c 0,3.153 4.187,5.599 7.344,5.599 l -1.303,-5.599 0.817,-5.71 c -3.156,0 -6.858,2.557 -6.858,5.71 z"
     fill="#86ec16"
     id="path114" />
  <path
     d="m 100.69515,79.5198 v 0 c 0,-5.991 -4.857003,-10.848 -10.849003,-10.848 h -2.305 c -5.991,0 -10.848,4.857 -10.848,10.848 v 0"
     stroke="#86ec16"
     stroke-width="4"
     id="path116" />
  <path
     d="m 99.695147,82.3748 c 0,6.068 -4.925,10.99 -11.001,10.99 -6.077,0 -11.001,-4.922 -11.001,-10.99 0,-6.069 4.924,-10.991 11.001,-10.991 6.076,0 11.001,4.922 11.001,10.991 z"
     fill="#ffffff"
     stroke="#000000"
     stroke-width="2"
     id="path118" />
  <ellipse
     cx="85.649155"
     cy="80.318802"
     rx="1.82692"
     ry="1.82707"
     fill="#000000"
     id="ellipse120" />
  <ellipse
     cx="91.735153"
     cy="80.318802"
     rx="1.82692"
     ry="1.82707"
     fill="#000000"
     id="ellipse122" />
  <path
     d="m 91.685147,87.3608 c 2.857,0.095 10.404003,-0.571 10.404003,-3.997"
     stroke="#86ec16"
     stroke-width="2"
     id="path124" />
  <rect
     x="86.255142"
     y="85.647797"
     width="6.8576198"
     height="3.42575"
     rx="1.71288"
     fill="#86ec16"
     id="rect126" />
  <path
     fill-rule="evenodd"
     clip-rule="evenodd"
     d="m 78.687147,88.5788 c -4.751,1.217 -8.264,5.527 -8.264,10.657 v 0.835 c 0,2.209 1.791,4 4,4 h 28.539003 c 2.209,0 4,-1.791 4,-4 v -0.835 c 0,-5.13 -3.513,-9.44 -8.264003,-10.657 -2.15,3.235 -5.828,5.367 -10.005,5.367 -4.177,0 -7.856,-2.132 -10.006,-5.367 z"
     fill="#000000"
     id="path128" />
  <path
     d="m 145.43915,35.9108 c 0,3.153 -4.02,5.599 -7.176,5.599 l 1.135,-5.599 -0.817,-5.7096 c 3.157,0 6.858,2.5566 6.858,5.7096 z"
     fill="#86ec16"
     id="path130" />
  <path
     d="m 110.00915,35.9108 c 0,3.153 4.188,5.599 7.344,5.599 l -1.302,-5.599 0.816,-5.7096 c -3.156,0 -6.858,2.5566 -6.858,5.7096 z"
     fill="#86ec16"
     id="path132" />
  <path
     d="m 139.72615,33.0558 v 0 c 0,-5.9913 -4.857,-10.8483 -10.848,-10.8483 h -2.306 c -5.991,0 -10.848,4.857 -10.848,10.8483 v 0"
     stroke="#86ec16"
     stroke-width="4"
     id="path134" />
  <path
     d="m 138.72615,35.9108 c 0,6.069 -4.925,10.99 -11.001,10.99 -6.076,0 -11.001,-4.921 -11.001,-10.99 0,-6.0691 4.925,-10.9904 11.001,-10.9904 6.076,0 11.001,4.9213 11.001,10.9904 z"
     fill="#ffffff"
     stroke="#000000"
     stroke-width="2"
     id="path136" />
  <ellipse
     cx="124.68015"
     cy="33.854801"
     rx="1.82692"
     ry="1.82707"
     fill="#000000"
     id="ellipse138" />
  <ellipse
     cx="130.76614"
     cy="33.854801"
     rx="1.82692"
     ry="1.82707"
     fill="#000000"
     id="ellipse140" />
  <path
     d="m 130.71615,40.8968 c 2.858,0.095 10.405,-0.571 10.405,-3.996"
     stroke="#86ec16"
     stroke-width="2"
     id="path142" />
  <rect
     x="125.28714"
     y="39.183804"
     width="6.8576102"
     height="3.42575"
     rx="1.71288"
     fill="#86ec16"
     id="rect144" />
  <path
     fill-rule="evenodd"
     clip-rule="evenodd"
     d="m 117.71915,42.1148 c -4.752,1.217 -8.264,5.527 -8.264,10.658 v 0.834 c 0,2.209 1.791,4 4,4 h 28.538 c 2.209,0 4,-1.791 4,-4 v -0.834 c 0,-5.131 -3.513,-9.441 -8.264,-10.658 -2.149,3.235 -5.828,5.367 -10.005,5.367 -4.177,0 -7.856,-2.132 -10.005,-5.367 z"
     fill="#000000"
     id="path146" />
  <path
     d="m 355.29115,137.2548 h -250.743 v 177.132 h 250.743 z"
     stroke="#000000"
     stroke-width="2"
     stroke-miterlimit="10"
     stroke-linecap="round"
     stroke-linejoin="round"
     id="path148" />
  <path
     d="m 232.54815,189.8108 h -39.55 v 96.936 h 39.55 z"
     fill="#86ec16"
     id="path150" />
  <path
     d="m 278.72715,78.8598 h -39.55 v 207.886 h 39.55 z"
     fill="#86ec16"
     id="path152" />
  <path
     d="m 325.09115,119.9308 h -39.55 v 166.621 h 39.55 z"
     fill="#86ec16"
     id="path154" />
  <path
     d="m 371.27015,212.7788 h -39.55 v 73.967 h 39.55 z"
     fill="#86ec16"
     id="path156" />
  <path
     d="m 123.44515,150.8798 c 2.152,0 3.897,-1.742 3.897,-3.893 0,-2.15 -1.745,-3.893 -3.897,-3.893 -2.152,0 -3.897,1.743 -3.897,3.893 0,2.151 1.745,3.893 3.897,3.893 z"
     stroke="#000000"
     stroke-width="2"
     stroke-miterlimit="10"
     stroke-linecap="round"
     stroke-linejoin="round"
     id="path158" />
  <path
     d="m 137.66815,150.8798 c 2.152,0 3.896,-1.742 3.896,-3.893 0,-2.15 -1.744,-3.893 -3.896,-3.893 -2.152,0 -3.897,1.743 -3.897,3.893 0,2.151 1.745,3.893 3.897,3.893 z"
     stroke="#000000"
     stroke-width="2"
     stroke-miterlimit="10"
     stroke-linecap="round"
     stroke-linejoin="round"
     id="path160" />
  <path
     d="m 191.05215,296.6738 h 162.292"
     stroke="#000000"
     stroke-width="2"
     stroke-miterlimit="10"
     stroke-linecap="round"
     stroke-linejoin="round"
     id="path162" />
  <path
     d="m 367.36915,241.7818 h 22.405"
     stroke="#000000"
     stroke-width="2"
     stroke-miterlimit="10"
     stroke-linecap="round"
     stroke-linejoin="round"
     id="path164" />
  <path
     d="m 367.36915,255.0178 h 22.405"
     stroke="#000000"
     stroke-width="2"
     stroke-miterlimit="10"
     stroke-linecap="round"
     stroke-linejoin="round"
     id="path166" />
  <path
     d="m 367.36915,268.2548 c 5.455,0 10.91,0 16.365,0"
     stroke="#000000"
     stroke-width="2"
     stroke-miterlimit="10"
     stroke-linecap="round"
     stroke-linejoin="round"
     id="path168" />
  <path
     d="m 268.98515,296.6738 c -6.819,0 -9.937,3.114 -9.937,3.114"
     stroke="#000000"
     stroke-width="2"
     stroke-miterlimit="10"
     stroke-linecap="round"
     stroke-linejoin="round"
     id="path170" />
  <path
     d="m 94.416147,168.3988 c 8.182003,-6.423 15.975003,-4.866 19.093003,-2.335 3.312,2.53 2.143,5.45 2.143,5.45"
     stroke="#000000"
     stroke-width="2"
     stroke-miterlimit="10"
     stroke-linecap="round"
     stroke-linejoin="round"
     id="path172" />
  <path
     d="m 170.78615,314.3868 h -66.047 c -0.194,-0.389 -0.194,-0.778 -0.194,-1.168 v -31.144 c 1.168,-1.751 2.922,-2.725 5.26,-2.919 16.365,-1.363 46.953,8.759 60.981,35.231 z"
     fill="#000000"
     id="path174" />
  <path
     d="m 179.74915,314.3878 h -48.317 c -7.988,-4.088 -17.145,-6.035 -26.886,-7.008 -5.260003,-0.584 -10.521003,-0.779 -15.781003,-0.973 -27.471,-0.973 -57.2793,-4.672 -75.3983,-27.64 -41.3034,-51.972 30.1983,-102.192 77.1513,-109.589 1.364,11.485 3.897,22.969 6.04,34.259 -19.678,3.504 -38.576,12.263 -52.214,27.251 -5.455,6.034 -9.9359,13.236 -6.429,21.411 3.702,8.565 12.859,13.237 21.431,15.572 14.807,4.088 30.198,3.699 45.590003,4.477 8.767,0.39 17.339,1.168 25.912,3.504 20.457,5.84 38.576,19.66 48.901,38.736 z"
     fill="#000000"
     stroke="#000000"
     stroke-width="2"
     stroke-miterlimit="10"
     stroke-linecap="round"
     stroke-linejoin="round"
     id="path176" />
  <path
     d="m 90.130147,169.3728 c 11.495003,-2.531 26.302003,0 27.276003,4.282 0.974,4.282 0.39,5.645 0.39,5.645 0,0 1.753,4.477 0.195,7.981 -1.754,3.503 2.533,8.175 -1.754,10.705 -2.727,1.752 -20.067003,5.84 -20.067003,5.84"
     fill="#ffffff"
     id="path178" />
  <path
     d="m 90.130147,169.3728 c 11.495003,-2.531 26.302003,0 27.276003,4.282 0.974,4.282 0.39,5.645 0.39,5.645 0,0 1.753,4.477 0.195,7.981 -1.754,3.503 2.533,8.175 -1.754,10.705 -2.727,1.752 -20.067003,5.84 -20.067003,5.84"
     stroke="#000000"
     stroke-width="2"
     stroke-miterlimit="10"
     stroke-linecap="round"
     stroke-linejoin="round"
     id="path180" />
  <ellipse
     rx="32.037788"
     ry="31.780298"
     transform="matrix(0.97190534,-0.23537208,0.23624701,0.97169303,0,0)"
     fill="#ffffff"
     stroke="#000000"
     stroke-width="2"
     stroke-miterlimit="10"
     stroke-linecap="round"
     stroke-linejoin="round"
     id="ellipse182"
     cx="87.851982"
     cy="290.37125" />
  <ellipse
     rx="3.4303336"
     ry="3.4160392"
     transform="matrix(0.76680596,-0.64187897,0.64741852,0.76213468,0,0)"
     fill="#000000"
     id="ellipse184"
     cx="-50.020332"
     cy="297.87228" />
  <ellipse
     rx="3.4303668"
     ry="3.4160509"
     transform="matrix(0.76680728,-0.6418774,0.64742017,0.76213327,0,0)"
     fill="#000000"
     id="ellipse186"
     cx="-32.863533"
     cy="304.70187"
     style="stroke-width:1" />
  <path
     d="m 159.24815,273.0918 13.939,-6.588 0.23,0.483 c 1.835,3.843 0.202,8.433 -3.647,10.253 v 0 c -3.849,1.819 -8.457,0.178 -10.292,-3.665 z"
     fill="#000000"
     id="path188" />
  <path
     d="m 166.58815,274.5798 c 1.249,-1.01 1.357,-1.956 1.18,-2.909 l -4.29,2.026 c 0.61,1.167 2.089,1.709 3.11,0.883 z"
     fill="#ffffff"
     id="path190" />
  <ellipse
     rx="1.1865855"
     ry="1.1858544"
     transform="matrix(0.83688121,0.54738454,-0.54834278,0.83625367,0,0)"
     fill="#000000"
     id="ellipse192"
     cx="266.69983"
     cy="150.88177" />
  <ellipse
     rx="1.1865954"
     ry="1.1858644"
     transform="matrix(0.83687727,0.54739058,-0.54833675,0.83625762,0,0)"
     fill="#000000"
     id="ellipse194"
     cx="271.44577"
     cy="150.87927" />
  <ellipse
     rx="1.1865958"
     ry="1.1858748"
     transform="matrix(0.83687605,0.54739243,-0.54833559,0.83625838,0,0)"
     fill="#000000"
     id="ellipse196"
     cx="271.44626"
     cy="146.13446" />
  <ellipse
     rx="1.1865758"
     ry="1.1858548"
     transform="matrix(0.83687605,0.54739243,-0.54833559,0.83625838,0,0)"
     fill="#000000"
     id="ellipse198"
     cx="276.1926"
     cy="150.87808" />
  <ellipse
     rx="1.1865859"
     ry="1.1858547"
     transform="matrix(0.83688197,0.54738339,-0.54834463,0.83625245,0,0)"
     fill="#000000"
     id="ellipse200"
     cx="276.19348"
     cy="146.13658" />
  <path
     d="m 120.00415,266.3208 c -0.328,4.57 2.851,8.526 7.102,8.834 4.251,0.308 5.441,-16.244 1.19,-16.552 -4.251,-0.308 -7.963,3.147 -8.292,7.718 z"
     fill="#ffffff"
     id="path202" />
  <path
     d="m 127.10715,275.1548 c -4.251,-0.308 -7.431,-4.263 -7.103,-8.834 0.329,-4.571 4.041,-8.026 8.293,-7.718"
     stroke="#000000"
     stroke-width="2"
     id="path204" />
  <path
     d="m 126.70415,269.1898 c -1.465,-0.106 -2.561,-1.469 -2.447,-3.045 0.113,-1.575 1.394,-2.767 2.859,-2.661"
     stroke="#000000"
     stroke-width="2"
     id="path206" />
  <path
     d="m 166.39115,242.1618 c 4.094,-2.416 11.862,-8.975 10.181,-15.889 -1.681,-6.915 -9.323,-4.861 -12.934,-2.969 -0.508,-2.928 -3.57,-8.654 -11.748,-8.137 -8.179,0.516 -9.883,7.071 -9.713,10.284 -1.334,-1.304 -4.814,-3.227 -8.057,-0.49 -3.242,2.738 -1.768,6.123 -0.625,7.474 -2.546,0.413 -7.395,3.743 -6.425,13.758"
     stroke="#000000"
     stroke-width="2"
     id="path208" />
  <path
     d="m 202.54815,66.7918 c 0,12.652 -10.131,22.774 -22.795,22.774 -12.663,0 -22.794,-10.122 -22.794,-22.774 0,-16.156 10.131,-22.774 22.794,-22.774 12.469,0 22.795,10.122 22.795,22.774 z"
     fill="#000000"
     stroke="#000000"
     stroke-width="2"
     stroke-miterlimit="10"
     stroke-linecap="round"
     stroke-linejoin="round"
     id="path210" />
  <path
     d="m 202.54915,66.7918 c 0,12.652 -10.131,22.774 -22.794,22.774 -2.338,0 -4.481,-0.389 -6.625,-0.973 v -43.991 c 2.144,-0.39 4.287,-0.584 6.625,-0.584 12.469,0 22.794,10.122 22.794,22.774 z"
     fill="#ffffff"
     stroke="#000000"
     stroke-width="2"
     stroke-miterlimit="10"
     stroke-linecap="round"
     stroke-linejoin="round"
     id="path212" />
  <path
     d="m 368.93215,1 h -195.802 v 162.7278 h 195.802 z"
     stroke="#000000"
     stroke-width="2"
     stroke-miterlimit="10"
     stroke-linecap="round"
     stroke-linejoin="round"
     id="path214" />
  <path
     d="m 368.93115,89.3708 v 74.357 h -36.043 c -21.626,-60.537 -9.741,-60.537 28.25,-74.357 2.143,-0.778 4.481,0.195 7.793,0 z"
     fill="#ffffff"
     stroke="#000000"
     stroke-width="2"
     stroke-miterlimit="10"
     stroke-linecap="round"
     stroke-linejoin="round"
     id="path216" />
  <path
     d="m 336.78315,131.4158 c -0.39,9.343 0,26.278 7.403,32.312 z"
     fill="#ffffff"
     id="path218" />
  <path
     d="m 336.78315,131.4158 c -0.39,9.343 0,26.278 7.403,32.312"
     stroke="#000000"
     stroke-width="2"
     stroke-miterlimit="10"
     stroke-linecap="round"
     stroke-linejoin="round"
     id="path220" />
  <path
     d="m 332.88815,100.8558 v 62.872"
     stroke="#000000"
     stroke-width="2"
     stroke-miterlimit="10"
     stroke-linecap="round"
     stroke-linejoin="round"
     id="path222" />
  <path
     d="m 348.86515,106.5008 v 57.227"
     stroke="#000000"
     stroke-width="2"
     stroke-miterlimit="10"
     stroke-linecap="round"
     stroke-linejoin="round"
     id="path224" />
  <path
     d="m 363.08715,86.8408 v 76.887"
     stroke="#000000"
     stroke-width="2"
     stroke-miterlimit="10"
     stroke-linecap="round"
     stroke-linejoin="round"
     id="path226" />
  <path
     d="m 368.93115,123.8238 h -45.59"
     stroke="#000000"
     stroke-width="2"
     stroke-miterlimit="10"
     stroke-linecap="round"
     stroke-linejoin="round"
     id="path228" />
  <path
     d="m 368.93015,109.4208 h -44.421"
     stroke="#000000"
     stroke-width="2"
     stroke-miterlimit="10"
     stroke-linecap="round"
     stroke-linejoin="round"
     id="path230" />
  <path
     d="m 368.93015,138.2288 h -44.225"
     stroke="#000000"
     stroke-width="2"
     stroke-miterlimit="10"
     stroke-linecap="round"
     stroke-linejoin="round"
     id="path232" />
  <path
     d="m 368.93315,152.6328 h -39.939"
     stroke="#000000"
     stroke-width="2"
     stroke-miterlimit="10"
     stroke-linecap="round"
     stroke-linejoin="round"
     id="path234" />
  <path
     d="m 368.92915,95.2108 h -8.572"
     stroke="#000000"
     stroke-width="2"
     stroke-miterlimit="10"
     stroke-linecap="round"
     stroke-linejoin="round"
     id="path236" />
  <path
     d="m 292.16915,31.3658 26.107,-10.5113 -29.419,41.4603 29.614,37.957 -32.926,0.973 -9.546,51.583 -24.744,-44.186 -56.5,2.92 32.342,-35.427 -17.729,-24.915 19.872,1.363 6.429,-25.8888 12.859,12.8468"
     stroke="#000000"
     stroke-width="2"
     stroke-miterlimit="10"
     stroke-linecap="round"
     stroke-linejoin="round"
     id="path238" />
  <path
     d="m 224.75915,26.6939 v 8.9539"
     stroke="#000000"
     stroke-width="2"
     stroke-miterlimit="10"
     stroke-linecap="round"
     stroke-linejoin="round"
     id="path240" />
  <path
     d="m 196.90015,23.3848 8.183,7.786"
     stroke="#000000"
     stroke-width="2"
     stroke-miterlimit="10"
     stroke-linecap="round"
     stroke-linejoin="round"
     id="path242" />
  <path
     d="m 227.09515,117.7898 -6.234,7.397"
     stroke="#000000"
     stroke-width="2"
     stroke-miterlimit="10"
     stroke-linecap="round"
     stroke-linejoin="round"
     id="path244" />
  <path
     d="m 303.08015,106.1118 5.455,4.866"
     stroke="#000000"
     stroke-width="2"
     stroke-miterlimit="10"
     stroke-linecap="round"
     stroke-linejoin="round"
     id="path246" />
  <path
     d="m 334.44715,26.6939 9.741,-8.1753"
     stroke="#000000"
     stroke-width="2"
     stroke-miterlimit="10"
     stroke-linecap="round"
     stroke-linejoin="round"
     id="path248" />
  <path
     d="m 280.86815,52.5818 c 0.195,9.343 2.533,26.862 -4.286,29.782 -6.819,2.92 2.143,-9.733 -11.69,-11.29"
     fill="#ffffff"
     id="path250" />
  <path
     d="m 280.86815,52.5818 c 0.195,9.343 2.533,26.862 -4.286,29.782 -6.819,2.92 2.143,-9.733 -11.69,-11.29"
     stroke="#000000"
     stroke-width="2"
     stroke-miterlimit="10"
     stroke-linecap="round"
     stroke-linejoin="round"
     id="path252" />
  <path
     d="m 330.35415,1 c -7.793,2.9198 -14.612,7.0074 -20.652,11.8737 -14.222,11.2897 -23.769,26.8621 -28.639,39.7091 -4.287,-1.558 -8.378,-2.92 -12.664,-4.283 -2.143,-0.584 -4.092,-1.362 -6.235,-1.946 -4.675,-1.363 -9.351,-2.725 -14.222,-4.088 -0.195,0 -0.195,0 -0.39,-0.195 3.507,-9.927 8.378,-19.4646 14.612,-27.8346 0.39,-0.3893 0.585,-0.9732 0.975,-1.3625 3.117,-4.0877 6.429,-8.1753 9.936,-11.8737 z"
     fill="#ffffff"
     stroke="#000000"
     stroke-width="2"
     stroke-miterlimit="10"
     stroke-linecap="round"
     stroke-linejoin="round"
     id="path254" />
  <path
     d="m 247.55315,42.0718 c -4.676,16.35 -10.91,24.72 -8.183,29.002 2.728,4.283 7.209,0 7.209,0"
     fill="#ffffff"
     id="path256" />
  <path
     d="m 247.55315,42.0718 c -4.676,16.35 -10.91,24.72 -8.183,29.002 2.728,4.283 7.209,0 7.209,0"
     stroke="#000000"
     stroke-width="2"
     stroke-miterlimit="10"
     stroke-linecap="round"
     stroke-linejoin="round"
     id="path258" />
  <path
     d="m 247.55515,60.7578 c -8.767,14.015 0.779,16.935 1.754,18.102 z"
     fill="#ffffff"
     id="path260" />
  <path
     d="m 247.55515,60.7578 c -8.767,14.015 0.779,16.935 1.754,18.102"
     stroke="#000000"
     stroke-width="2"
     stroke-miterlimit="10"
     stroke-linecap="round"
     stroke-linejoin="round"
     id="path262" />
  <path
     d="m 264.89215,71.0738 c -7.404,-0.973 -9.547,18.297 -15.197,18.297 -5.844,0 -4.286,-4.672 3.897,-26.472"
     fill="#ffffff"
     id="path264" />
  <path
     d="m 264.89215,71.0738 c -7.404,-0.973 -9.547,18.297 -15.197,18.297 -5.844,0 -4.286,-4.672 3.897,-26.472"
     stroke="#000000"
     stroke-width="2"
     stroke-miterlimit="10"
     stroke-linecap="round"
     stroke-linejoin="round"
     id="path266" />
  <path
     d="M 261.97015,46.3538 V 14.2363"
     stroke="#000000"
     stroke-width="2"
     stroke-miterlimit="10"
     stroke-linecap="round"
     stroke-linejoin="round"
     id="path268" />
  <path
     d="M 276.58415,1 V 12.8737 51.0248"
     stroke="#000000"
     stroke-width="2"
     stroke-miterlimit="10"
     stroke-linecap="round"
     stroke-linejoin="round"
     id="path270" />
  <path
     d="M 291.19315,1 V 12.8737 32.7278"
     stroke="#000000"
     stroke-width="2"
     stroke-miterlimit="10"
     stroke-linecap="round"
     stroke-linejoin="round"
     id="path272" />
  <path
     d="m 305.80615,1 v 11.8737 3.1144"
     stroke="#000000"
     stroke-width="2"
     stroke-miterlimit="10"
     stroke-linecap="round"
     stroke-linejoin="round"
     id="path274" />
  <path
     d="M 320.41915,5.6716 V 1"
     stroke="#000000"
     stroke-width="2"
     stroke-miterlimit="10"
     stroke-linecap="round"
     stroke-linejoin="round"
     id="path276" />
  <path
     d="m 309.50715,12.874 h -3.702 -14.612 -14.612 -13.638"
     stroke="#000000"
     stroke-width="2"
     stroke-miterlimit="10"
     stroke-linecap="round"
     stroke-linejoin="round"
     id="path278" />
  <path
     d="m 295.28515,27.2779 h -41.303"
     stroke="#000000"
     stroke-width="2"
     stroke-miterlimit="10"
     stroke-linecap="round"
     stroke-linejoin="round"
     id="path280" />
  <path
     d="m 285.54515,41.6818 h -37.602"
     stroke="#000000"
     stroke-width="2"
     stroke-miterlimit="10"
     stroke-linecap="round"
     stroke-linejoin="round"
     id="path282" />
  <path
     d="m 277.75115,314.3868 h -44.031 v 10.706 h 44.031 z"
     fill="#000000"
     id="path284" />
  <path
     d="m 240.73615,314.3868 c 3.507,-8.954 8.377,-17.713 21.431,-17.713 13.053,0 25.327,0 25.327,0 0,0 2.923,5.839 -5.65,6.228 -8.572,0.39 -10.52,7.981 -10.715,11.485"
     stroke="#000000"
     stroke-width="2"
     stroke-miterlimit="10"
     stroke-linecap="round"
     stroke-linejoin="round"
     id="path286" />
  <path
     d="m 286.71215,301.5398 c 7.014,-0.584 10.326,-0.389 11.106,-3.698"
     stroke="#000000"
     stroke-width="2"
     stroke-miterlimit="10"
     stroke-linecap="round"
     stroke-linejoin="round"
     id="path288" />
  <path
     d="m 369.96415,67.6548 c 5.714,14.043 -1.055,30.057 -15.121,35.767 -14.066,5.71 -30.099,-1.048 -35.813,-15.092 -5.714,-14.043 1.055,-30.057 15.121,-35.767 14.065,-5.709 30.099,1.049 35.813,15.092 z"
     fill="#ffffff"
     stroke="#000000"
     stroke-width="2"
     id="path290" />
  <ellipse
     rx="1.186115"
     ry="1.1863159"
     transform="matrix(-0.35930833,0.93321891,0.9336455,0.35819838,0,0)"
     fill="#000000"
     id="ellipse292"
     cx="-46.121246"
     cy="351.95306" />
  <ellipse
     rx="1.186105"
     ry="1.1863258"
     transform="matrix(-0.3593163,0.93321584,0.93364856,0.3581904,0,0)"
     fill="#000000"
     id="ellipse294"
     cx="-41.374474"
     cy="351.95001" />
  <ellipse
     rx="1.1861149"
     ry="1.1863259"
     transform="matrix(-0.35931335,0.93321697,0.93364743,0.35819335,0,0)"
     fill="#000000"
     id="ellipse296"
     cx="-41.377281"
     cy="347.20572" />
  <ellipse
     rx="1.186125"
     ry="1.1863253"
     transform="matrix(-0.35931128,0.93321777,0.93364697,0.35819455,0,0)"
     fill="#000000"
     id="ellipse298"
     cx="-36.632778"
     cy="351.95163" />
  <ellipse
     rx="1.1860942"
     ry="1.1863163"
     transform="matrix(-0.35931456,0.93321651,0.93364823,0.35819127,0,0)"
     fill="#000000"
     id="ellipse300"
     cx="-36.633823"
     cy="347.20581" />
  <path
     d="m 329.87915,92.9858 c 0.093,1.026 -1.856,2.498 -3.663,2.662 -1.807,0.165 -3.643,-1.08 -4.089,-2.178"
     stroke="#000000"
     stroke-width="2"
     stroke-miterlimit="10"
     stroke-linecap="round"
     stroke-linejoin="round"
     id="path302" />
  <ellipse
     rx="3.5606251"
     ry="3.5566859"
     transform="matrix(0.92657182,-0.37611789,0.3768631,0.92626897,0,0)"
     fill="#000000"
     id="ellipse304"
     cx="277.98425"
     cy="199.46437" />
  <ellipse
     rx="2.9671974"
     ry="2.9639032"
     transform="matrix(0.92657182,-0.37611789,0.3768631,0.92626897,0,0)"
     fill="#000000"
     id="ellipse306"
     cx="265.52319"
     cy="195.31456" />
  <path
     d="m 318.68515,47.1308 c -5.99,15.512 8.381,17.2 15.964,16.941 4.191,-0.198 14.395,-1.783 21.683,-6.546 2.551,-0.108 7.647,4.796 9.876,7.261 5.318,5.918 3.668,13.031 2.178,15.848 -4.292,8.859 -9.02,26.309 6.405,25.234 19.281,-1.344 26.653,-9.624 24.983,-23.9 -1.669,-14.275 -23.41,2.581 -13.95,-25.686 7.569,-22.613 -10.554,-29.4356 -21.244,-31.8076 -12.851,-3.2412 -38.408,3.2644 -45.895,22.6556 z"
     fill="#000000"
     stroke="#000000"
     stroke-width="2"
     id="path308" />
  <path
     d="m 371.84815,70.0928 c 1.651,4.277 -0.232,8.984 -4.207,10.514 -3.974,1.531 -9.956,-13.957 -5.981,-15.487 3.975,-1.53 8.536,0.696 10.188,4.973 z"
     fill="#ffffff"
     id="path310" />
  <path
     d="m 367.64115,80.6068 c 3.975,-1.53 5.858,-6.238 4.206,-10.514 -1.651,-4.277 -6.212,-6.503 -10.186,-4.973"
     stroke="#000000"
     stroke-width="2"
     id="path312" />
  <path
     d="m 366.27815,74.7868 c 1.37,-0.528 2.019,-2.15 1.45,-3.625 -0.57,-1.474 -2.142,-2.241 -3.512,-1.714"
     stroke="#000000"
     stroke-width="2"
     id="path314" />
</svg>
