<?xml version="1.0" encoding="utf-8"?>
<!-- Generator: Adobe Illustrator 24.0.1, SVG Export Plug-In . SVG Version: 6.00 Build 0)  -->
<svg version="1.1" id="Ebene_1" xmlns="http://www.w3.org/2000/svg" xmlns:xlink="http://www.w3.org/1999/xlink" x="0px" y="0px"
	 viewBox="0 0 652 610" style="enable-background:new 0 0 652 610;" xml:space="preserve">
<style type="text/css">
	.st0{display:none;}
	.st1{display:inline;fill:#6100FE;stroke:#FFFFFF;stroke-miterlimit:10;}
	.st2{display:inline;fill:#013E7D;stroke:#FFFFFF;stroke-miterlimit:10;}
	.st3{clip-path:url(#SVGID_2_);}
	.st4{fill:none;stroke:#000000;stroke-width:46;stroke-linecap:round;stroke-miterlimit:10;}
	.st5{fill:#FFFFFF;}
	.st6{fill:none;stroke:#000000;stroke-width:3;stroke-miterlimit:10;}
	.st7{fill:#FFFFFF;stroke:#000000;stroke-width:3;stroke-miterlimit:10;}
	.st8{fill:none;stroke:#86ED18;stroke-width:3;stroke-miterlimit:10;}
</style>
<g id="Ebene_2_1_" class="st0">
	<rect x="-333.5" y="-100.5" class="st1" width="1167" height="1167"/>
</g>
<g id="Ebene_2_Kopie" class="st0">
	<rect x="-333.5" y="-100.5" class="st2" width="1167" height="1167"/>
</g>
<g id="Ebene_4">
</g>
<g id="Ebene_3">
	<g>
		<g>
			<defs>
				<rect id="SVGID_1_" x="7.3" y="11.9" width="636" height="593"/>
			</defs>
			<clipPath id="SVGID_2_">
				<use xlink:href="#SVGID_1_"  style="overflow:visible;"/>
			</clipPath>
			<g class="st3">
				<path class="st4" d="M441.8,332.6c-56.7,12.6-106.1-62.8-106.1-62.8"/>
				<path class="st5" d="M308.6,253.2c-1.8-2.3-5.2-2.7-7.6-0.9c-2.3,1.9-2.7,5.3-0.9,7.6l23.6,30.3l34.1-26.8L352,256l9.4-7.4
					c2.3-1.9,2.7-5.2,0.9-7.6c-1.8-2.3-5.2-2.7-7.6-0.9l-9.4,7.4l-18.2-23.2c-1.8-2.3-5.2-2.7-7.6-0.9c-2.3,1.9-2.7,5.3-0.9,7.6
					l13,16.6l-13-16.6c-1.8-2.3-5.3-2.8-7.6-0.9s-2.7,5.3-0.9,7.6l13,16.6l-13-16.6c-1.8-2.3-5.2-2.7-7.6-0.9
					c-2.3,1.9-2.7,5.3-0.9,7.6l13,16.6"/>
				<path class="st6" d="M308.6,253.2c-1.8-2.3-5.2-2.7-7.6-0.9c-2.3,1.9-2.7,5.3-0.9,7.6l23.6,30.3l34.1-26.8L352,256l9.4-7.4
					c2.3-1.9,2.7-5.2,0.9-7.6c-1.8-2.3-5.2-2.7-7.6-0.9l-9.4,7.4l-18.2-23.2c-1.8-2.3-5.2-2.7-7.6-0.9c-2.3,1.9-2.7,5.3-0.9,7.6
					l13,16.6l-13-16.6c-1.8-2.3-5.3-2.8-7.6-0.9s-2.7,5.3-0.9,7.6l13,16.6l-13-16.6c-1.8-2.3-5.2-2.7-7.6-0.9
					c-2.3,1.9-2.7,5.3-0.9,7.6l13,16.6"/>
				<path class="st7" d="M417.2,434.6l116.7,93.9c60-0.4,108.4-49.2,108.1-109.1c-0.4-59.9-49.3-108.2-109.5-107.8h-1.3
					c-8.5-0.4-16.1-5.7-16.9-19.2c-2.4-41-42.9-51.2-51.5-51.1h-14.1l0.2,4.8c0,0,1.3,27,34.4,21"/>
				<path class="st5" d="M393.2,533.2v70L248,603.1c0,0,4.3-19.3,13.8-27.1c5.3-4.4,15.9-8.9,26.1-14.9c11.5-6.8,20-17.6,23.9-30.3
					c9.4-30.2,23.5-109.2,79.9-109.8"/>
				<path class="st6" d="M393.2,533.2v70L248,603.1c0,0,4.3-19.3,13.8-27.1c5.3-4.4,15.9-8.9,26.1-14.9c11.5-6.8,20-17.6,23.9-30.3
					c9.4-30.2,23.5-109.2,79.9-109.8"/>
				<path class="st7" d="M447.2,409.2c-7.7-16.7-21.6-47.7-22.8-70.7c-1.1-21.1,13.2-33.7,34.4-33.7c21.2,0,29,9.5,38.3,38.2
					l26.6,85.9c5.3,21.4-11,42.1-33.1,42.1h-54.2l51.3,132.2l-147.3-0.1c0,0-0.2-15,10.4-25.9c4.8-4.9,15.8-11.2,26-17.2
					c11.5-6.7,7.2-21.2,3.7-34c-8.8-32.1-16.3-117.2,47.4-117.2L447.2,409.2z"/>
				<path class="st4" d="M358.8,418l24.4-3c85.5-11.9,80.1-86.9,80.1-86.9"/>
				<path class="st7" d="M492.7,276.2c0-5-4.1-9.1-9.1-9.1s-9.1,4.1-9.1,9.1s4.1,9.1,9.1,9.1C488.7,285.3,492.8,281.2,492.7,276.2z"
					/>
				<path class="st7" d="M483.9,277.9c0-17.6-14.3-31.9-32-31.9c-17.7,0-32,14.3-32,31.9s14.3,31.9,32,31.9
					C469.6,309.8,483.9,295.5,483.9,277.9z"/>
				<path d="M447.4,266.2c0-1.1-0.9-1.9-1.9-1.9c-1.1,0-1.9,0.9-1.9,1.9c0,1.1,0.9,1.9,1.9,1.9S447.4,267.3,447.4,266.2z"/>
				<path d="M434,266.5c0-1.1-0.9-1.9-1.9-1.9c-1.1,0-1.9,0.8-1.9,1.9s0.9,1.9,1.9,1.9S434,267.6,434,266.5z"/>
				<path class="st6" d="M506.2,528.7l27.7-0.2c60-0.4,108.4-49.2,108.1-109.1c-0.4-59.9-49.3-108.2-109.5-107.8h-1.3
					c-8.5-0.4-16.1-5.7-16.9-19.2c-2.4-41-42.9-51.2-51.5-51.1h-14.1l0.2,4.8c0,0,1.3,27,34.4,21"/>
				<path d="M432.3,277.5l14.2-0.6l0.1,3.3c0.2,4-3.1,9.4-7,9.6c-3.9,0.1-7-5.1-7.2-9L432.3,277.5z"/>
				<path class="st5" d="M449.1,278.6c0-2.7-2.2-4.9-4.9-4.9c-2.7,0-4.9,2.2-4.9,4.9s2.2,4.9,4.9,4.9
					C446.9,283.5,449.1,281.3,449.1,278.6z"/>
				<path class="st6" d="M432.2,277.6l14.2-0.6l-0.1,5.4c0.2,3.9-2.9,7.2-6.8,7.4s-7.2-2.9-7.4-6.8L432.2,277.6z"/>
				<path class="st5" d="M333,431.8c-3,0.3-5.1,3-4.7,6s3.1,5.1,6.1,4.7l38.2-4.8l-5.7-42.9l-9.3,1.2l-1.5-11.7
					c-0.4-3-3.1-5.1-6.1-4.7c-3,0.3-5.1,3-4.7,6l1.6,11.8l-29.3,3.8c-3,0.3-5.1,3-4.7,6s3.1,5.1,6.1,4.7l20.9-2.7l-21,2.7
					c-3,0.3-5.1,3-4.7,6s3.1,5.1,6.1,4.7l20.9-2.7l-21,2.7c-3,0.3-5.1,3-4.7,6s3.1,5.1,6.1,4.7l20.9-2.7"/>
				<path class="st6" d="M333,431.8c-3,0.3-5.1,3-4.7,6s3.1,5.1,6.1,4.7l38.2-4.8l-5.7-42.9l-9.3,1.2l-1.5-11.7
					c-0.4-3-3.1-5.1-6.1-4.7c-3,0.3-5.1,3-4.7,6l1.6,11.8l-29.3,3.8c-3,0.3-5.1,3-4.7,6s3.1,5.1,6.1,4.7l20.9-2.7l-21,2.7
					c-3,0.3-5.1,3-4.7,6s3.1,5.1,6.1,4.7l20.9-2.7l-21,2.7c-3,0.3-5.1,3-4.7,6s3.1,5.1,6.1,4.7l20.9-2.7"/>
				<path class="st8" d="M354.7,193.3c20.1,4.3,16.6-15.9,3-20.5c-13.7-4.5-9.8,11.5,13.6,14.2c23.4,2.7,27.7-18.7,3.1-28.3
					c-24.5-9.6-22.6,8,9.6,16.4s35.2-12.7,10.4-28.5c-24.9-15.8-30.8-5.2-17,5.1c13.8,10.4,67.9,26.8,55.2-3.4S388,106.2,388,106.2"
					/>
				<path class="st8" d="M277.3,175c0,0,17.3,0.6,20.3-14.8s-43.2-1-35.8,2.6c8.2,3.9,40.6-2,39.4-18.4
					c-1.5-20.1-45.4-10.2-47.2-3.1c-2.4,9.3,28.2,8,40.8-4.5s9.6-31.7-29.8-24.8c-39.4,6.8-25.4,20.9,4,14.5
					c29.3-6.4,62.4-40.3,16.6-45.3s-71,26.3-41.7,24.6c29.3-1.7,81.5-21.2,62.4-40.3c-19.1-19.2-84.7,4.2-84.7,4.2"/>
				<path class="st6" d="M338.5,131h6.6v-21.3h-6.6V131z"/>
				<path class="st6" d="M352.9,116.8h6.6V95.6h-6.6V116.8z"/>
				<path class="st6" d="M332.4,105h6.6V83.8h-6.6V105z"/>
				<path class="st6" d="M189.5,84.1l6-2.8l8.9,19.3l-6,2.8L189.5,84.1z"/>
				<path class="st6" d="M196.7,65.3l6-2.8l8.9,19.3l-6,2.8L196.7,65.3z"/>
				<path class="st6" d="M173.2,63.1l6-2.8l8.9,19.3l-6,2.8L173.2,63.1z"/>
				<path class="st6" d="M175.7,36.2l6-2.8l8.9,19.3l-6,2.8L175.7,36.2z"/>
				<path class="st6" d="M272.2,217.9l6-2.8l8.9,19.3l-6,2.8L272.2,217.9z"/>
				<path class="st6" d="M279.3,199l6-2.8l8.9,19.3l-6,2.8L279.3,199z"/>
				<path class="st6" d="M394.8,45.9l5.3,4l-12.9,16.9l-5.3-4L394.8,45.9z"/>
				<path class="st6" d="M425,13.8l5.3,4l-12.9,16.9l-5.3-4L425,13.8z"/>
				<path class="st6" d="M422.6,43.3l5.3,4L415,64.2l-5.3-4L422.6,43.3z"/>
				<path class="st6" d="M405.6,21.6l5.3,4L398,42.5l-5.3-4L405.6,21.6z"/>
				<path class="st6" d="M339.1,39.5c0-2.7-2.2-4.9-4.9-4.9c-2.7,0-4.9,2.2-4.9,4.9s2.2,4.9,4.9,4.9C336.8,44.4,339,42.2,339.1,39.5
					z"/>
				<path class="st6" d="M328.2,50.2c0-2.7-2.2-4.9-4.9-4.9c-2.7,0-4.9,2.2-4.9,4.9s2.2,4.9,4.9,4.9C325.9,55.1,328.1,53,328.2,50.2
					z"/>
				<path class="st6" d="M323.3,35.4c0-2.7-2.2-4.9-4.9-4.9c-2.7,0-4.9,2.2-4.9,4.9s2.2,4.9,4.9,4.9S323.2,38.1,323.3,35.4z"/>
				<path class="st6" d="M230.9,132.6c0-2.7-2.2-4.9-4.9-4.9s-4.9,2.2-4.9,4.9s2.2,4.9,4.9,4.9S230.9,135.3,230.9,132.6z"/>
				<path class="st6" d="M222.3,145.3c0-2.7-2.2-4.9-4.9-4.9s-4.9,2.2-4.9,4.9s2.2,4.9,4.9,4.9S222.3,148,222.3,145.3z"/>
				<path class="st6" d="M214.6,131.7c0-2.7-2.2-4.9-4.9-4.9c-2.7,0-4.9,2.2-4.9,4.9s2.2,4.9,4.9,4.9
					C212.4,136.6,214.6,134.4,214.6,131.7z"/>
				<path class="st6" d="M227.8,191.6c0-2.7-2.2-4.9-4.9-4.9c-2.7,0-4.9,2.2-4.9,4.9s2.2,4.9,4.9,4.9S227.7,194.4,227.8,191.6z"/>
				<path class="st6" d="M219.2,204.3c0-2.7-2.2-4.9-4.9-4.9c-2.7,0-4.9,2.2-4.9,4.9s2.2,4.9,4.9,4.9
					C217,209.2,219.2,207.1,219.2,204.3z"/>
				<path class="st6" d="M211.5,190.7c0-2.7-2.2-4.9-4.9-4.9c-2.7,0-4.9,2.2-4.9,4.9s2.2,4.9,4.9,4.9S211.5,193.4,211.5,190.7z"/>
				<path class="st7" d="M487.7,603.3l-51.3-132.2h96.2l51.3,132.2H487.7z"/>
			</g>
		</g>
	</g>
</g>
</svg>
