<?xml version="1.0" encoding="utf-8"?>
<!-- Generator: Adobe Illustrator 24.0.1, SVG Export Plug-In . SVG Version: 6.00 Build 0)  -->
<svg version="1.1" id="Ebene_1" xmlns="http://www.w3.org/2000/svg" xmlns:xlink="http://www.w3.org/1999/xlink" x="0px" y="0px"
	 viewBox="0 0 652 610" style="enable-background:new 0 0 652 610;" xml:space="preserve">
<style type="text/css">
	.st0{display:none;}
	.st1{display:inline;fill:#6100FE;stroke:#FFFFFF;stroke-miterlimit:10;}
	.st2{display:inline;fill:#013E7D;stroke:#FFFFFF;stroke-miterlimit:10;}
	.st3{fill:none;stroke:#000000;stroke-width:46;stroke-linecap:round;stroke-miterlimit:10;}
	.st4{fill:#FFFFFF;}
	.st5{fill:none;stroke:#000000;stroke-width:3;stroke-miterlimit:10;}
	.st6{fill:#FFFFFF;stroke:#000000;stroke-width:3;stroke-miterlimit:10;}
	.st7{stroke:#000000;stroke-width:2;stroke-miterlimit:10;}
	.st8{fill:none;stroke:#000000;stroke-width:52.336;stroke-linecap:round;stroke-miterlimit:10;}
	.st9{fill:none;stroke:#86ED18;stroke-width:4.0159;stroke-miterlimit:10;}
	.st10{fill:none;stroke:#86ED18;stroke-width:3;stroke-miterlimit:10;}
</style>
<g id="Ebene_2_1_" class="st0">
	<rect x="-333.5" y="-100.5" class="st1" width="1167" height="1167"/>
</g>
<g id="Ebene_2_Kopie" class="st0">
	<rect x="-333.5" y="-100.5" class="st2" width="1167" height="1167"/>
</g>
<g id="Ebene_4">
</g>
<g id="Ebene_3">
	<g>
		<g>
			<g>
				<path class="st3" d="M223.2,445.3l-24.4-3c-85.5-11.9-80.1-86.9-80.1-86.9"/>
				<path class="st4" d="M248.9,459c3,0.3,5.1,3,4.7,6s-3.1,5.1-6.1,4.7l-38.2-4.8L215,422l9.4,1.2l1.5-11.9c0.4-3,3.1-5.1,6.1-4.7
					c3,0.3,5.1,3,4.7,6l-1.6,11.8l29.3,3.8c3,0.3,5.1,3,4.7,6s-3.1,5.1-6.1,4.7l-20.9-2.6l21,2.7c3,0.3,5.1,3,4.7,6
					s-3.1,5.1-6.1,4.7l-20.9-2.6l21,2.7c3,0.3,5.1,3,4.7,6s-3.1,5.1-6.1,4.7l-20.9-2.6"/>
				<path class="st5" d="M248.9,459c3,0.3,5.1,3,4.7,6s-3.1,5.1-6.1,4.7l-38.2-4.8L215,422l9.4,1.2l1.5-11.9c0.4-3,3.1-5.1,6.1-4.7
					c3,0.3,5.1,3,4.7,6l-1.6,11.8l29.3,3.8c3,0.3,5.1,3,4.7,6s-3.1,5.1-6.1,4.7l-20.9-2.6l21,2.7c3,0.3,5.1,3,4.7,6
					s-3.1,5.1-6.1,4.7l-20.9-2.6l21,2.7c3,0.3,5.1,3,4.7,6s-3.1,5.1-6.1,4.7l-20.9-2.6"/>
				<path class="st6" d="M28.2,391.7l50-55.3c10.1-13.6,29.3-16.5,43-6.4c8.5,6.3,12,13.5,12,23.3c-0.1,28.7-34,56.9-63.1,72.5
					C43.4,416.9,33.9,406.8,28.2,391.7z"/>
				<path class="st6" d="M99.2,308.5c0-5.1-4.2-9.2-9.3-9.2c-5.2,0-9.3,4.1-9.3,9.2s4.2,9.2,9.3,9.2
					C95.1,317.7,99.2,313.6,99.2,308.5z"/>
				<path class="st5" d="M85.7,306.2c-0.2,1.5-0.2,3-0.1,4.5"/>
				<path class="st5" d="M92.2,311.4c-0.2,1.5-0.2,2.9-0.1,4.4"/>
				<path class="st6" d="M143.3,287.8c0.5,3.4,3.3,6,6.9,6c3.3,0,6.2-2.4,6.8-5.6c0.5-2.7-0.7-5.3-2.7-6.8c-0.1-0.1,0-0.4,0.2-0.4
					c1,0.2,2.1,0.1,3.2-0.3c2.2-0.8,4-2.7,4.5-5c1-4.3-2-8.2-6.2-8.5c-2.5-0.2-4.8,1-6.2,2.9c-0.2,0.1-0.4,0-0.4-0.2
					c0.2-1.4,0.1-2.9-0.3-4.5c-1.1-3.9-4.4-7-8.4-7.7c-5.7-1-11,2.5-12.4,7.7c-8.9,0.7-15.1,6.3-16.8,13.2"/>
				<path class="st6" d="M154.7,309.2c0-17.9-14.6-32.4-32.5-32.4c-18,0-32.5,14.5-32.5,32.4s14.6,32.4,32.5,32.4
					S154.6,327.1,154.7,309.2z"/>
				<path class="st5" d="M143.3,287.8c0.5,3.4,3.3,6,6.9,6c3.3,0,6.2-2.4,6.8-5.6c0.5-2.7-0.7-5.3-2.7-6.8c-0.1-0.1,0-0.4,0.2-0.4
					c1,0.2,2.1,0.1,3.2-0.3c2.2-0.8,4-2.7,4.5-5c1-4.3-2-8.2-6.2-8.5c-2.5-0.2-4.8,1-6.2,2.9c-0.2,0.1-0.4,0-0.4-0.2
					c0.2-1.4,0.1-2.9-0.3-4.5c-1.1-3.9-4.4-7-8.4-7.7c-5.7-1-11,2.5-12.4,7.7c-8.9,0.7-15.1,6.3-16.8,13.2"/>
				<path class="st7" d="M110,312.4c0-0.3-0.3-0.6-0.6-0.6s-0.6,0.3-0.6,0.6c0,0.3,0.3,0.6,0.6,0.6C109.8,313,110,312.7,110,312.4z"
					/>
				<path class="st7" d="M112.9,315.3c0-0.3-0.3-0.6-0.6-0.6c-0.3,0-0.6,0.3-0.6,0.6c0,0.3,0.3,0.6,0.6,0.6S112.9,315.6,112.9,315.3
					z"/>
				<path class="st7" d="M104.2,312.3c0-0.3-0.3-0.6-0.6-0.6c-0.3,0-0.6,0.3-0.6,0.6c0,0.3,0.3,0.6,0.6,0.6S104.2,312.7,104.2,312.3
					z"/>
				<path class="st7" d="M110,318.4c0-0.3-0.3-0.6-0.6-0.6c-0.3,0-0.6,0.3-0.6,0.6s0.3,0.6,0.6,0.6C109.7,319,110,318.7,110,318.4z"
					/>
				<path class="st7" d="M107.1,315.3c0-0.3-0.3-0.6-0.6-0.6c-0.3,0-0.6,0.3-0.6,0.6c0,0.3,0.3,0.6,0.6,0.6
					C106.8,315.9,107.1,315.6,107.1,315.3z"/>
				<path class="st5" d="M126.1,303.2c0-1.3-1.1-2.4-2.4-2.4s-2.4,1.1-2.4,2.4s1.1,2.4,2.4,2.4C125.1,305.6,126.1,304.5,126.1,303.2
					z"/>
				<path class="st5" d="M144.2,299.2c0-1.3-1.1-2.4-2.4-2.4s-2.4,1.1-2.4,2.4s1.1,2.4,2.4,2.4S144.2,300.6,144.2,299.2z"/>
				<path d="M142.3,309.2l-14.1,3.5l0.9,3.6c1.1,4.3,5.1,7.1,9,6.1s6.2-5.3,5.1-9.6L142.3,309.2z"/>
				<path class="st4" d="M138.2,319c0-2.8-2.2-5-5-5s-5,2.2-5,5s2.2,5,5,5S138.2,321.7,138.2,319z"/>
				<path class="st5" d="M142.3,309.2l-14.1,3.5l1.4,4.4c1,3.9,4.9,6.3,8.8,5.3s6.3-4.9,5.3-8.8L142.3,309.2z"/>
				<path class="st3" d="M48.8,390.3l35.2-48"/>
				<path class="st3" d="M67.6,455.2l23.1,40.5c5.1,9,14.7,14.6,25.1,14.6c15.9,0,28.9-13,28.9-28.9v-32.3"/>
				<path class="st4" d="M-24.4,471.2c-9.2-17.1-5.7-38.2,8.4-51.5l43-40.4c6.6-6.5,15.6-10.5,25.5-10.5c20,0,36.2,16.2,36.2,36.1"
					/>
				<path class="st5" d="M-24.4,471.2c-9.2-17.1-5.7-38.2,8.4-51.5l43-40.4c6.6-6.5,15.6-10.5,25.5-10.5c20,0,36.2,16.2,36.2,36.1"
					/>
				<path class="st6" d="M-13.9,471.5l28.6-39c8.6-14.6,27.5-19.4,42.1-10.8c9.1,5.3,13.3,12.1,14.3,21.9
					c2.9,28.6-19.6,54.2-46.9,72.7C-3.3,510.3-6.7,486-13.9,471.5z"/>
				<path class="st5" d="M40.1,410.9c0-3.5-2.9-6.4-6.4-6.4s-6.4,2.9-6.4,6.4s2.9,6.4,6.4,6.4C37.3,417.3,40.2,414.4,40.1,410.9z"/>
				<path class="st5" d="M35.1,407.4c-0.2,1.5-0.2,2.9-0.1,4.4"/>
				<path class="st6" d="M97.6,405.2c0-17.9-14.6-32.4-32.5-32.4c-18,0-32.5,14.5-32.5,32.4s14.6,32.4,32.5,32.4
					C83.1,437.6,97.6,423.1,97.6,405.2z"/>
				<path d="M69.1,399.2c0-1.3-1.1-2.4-2.4-2.4c-1.3,0-2.4,1.1-2.4,2.4s1.1,2.4,2.4,2.4C68,401.6,69.1,400.5,69.1,399.2z"/>
				<path d="M87.1,395.3c0-1.3-1.1-2.4-2.4-2.4c-1.3,0-2.4,1.1-2.4,2.4s1.1,2.4,2.4,2.4C86.1,397.7,87.2,396.6,87.1,395.3z"/>
				<path class="st5" d="M72.5,408.6c1,3.9,4.9,6.3,8.8,5.3c3.9-1,6.3-4.9,5.3-8.8"/>
				<path class="st3" d="M6.4,477.8l23.3-35.9"/>
				<path class="st5" d="M71.2,373.5c0.1,0.9,0.1,1.9,0.1,2.8c0,16.6-13.5,30-30.1,30c-3.3,0-6.4-0.5-9.4-1.5"/>
				<path class="st4" d="M122.7,418.9v29.5v-9.1c0-3-2.4-5.4-5.4-5.4s-5.4,2.4-5.4,5.4v10.3c0,6.1,5,11.1,11.1,11.1l0.1,4.2
					l43.4,0.1v-47.5"/>
				<path class="st5" d="M122.7,418.9v29.5v-9.1c0-3-2.4-5.4-5.4-5.4s-5.4,2.4-5.4,5.4v10.3c0,6.1,5,11.1,11.1,11.1l0.1,4.2
					l43.4,0.1v-47.5"/>
				<path class="st6" d="M155.7,417.6l0.1,17c0,3,2.5,5.4,5.5,5.4s5.4-2.5,5.4-5.5l-0.1-17L155.7,417.6z"/>
				<path class="st6" d="M144.7,417.6l0.1,17c0,3,2.5,5.4,5.5,5.4s5.4-2.5,5.4-5.5l-0.1-17L144.7,417.6z"/>
				<path class="st6" d="M109.5,432v-6.9l69.7-5.1v16L109.5,432L109.5,432z"/>
				<path class="st6" d="M122.8,409.2l0.1,12.2c0,3,2.5,5.4,5.5,5.4c3,0,5.4-2.5,5.4-5.5l-0.1-12.2L122.8,409.2z"/>
				<path class="st6" d="M133.7,409.2l0.1,12.2c0,3,2.5,5.4,5.5,5.4s5.4-2.5,5.4-5.5l-0.1-12.2L133.7,409.2z"/>
				<path class="st8" d="M155.6,573c0,0,0,0-52.4,0s-86.3-49.3-86.3-49.3"/>
				<path class="st6" d="M-26.3,475.5c0,18,14.6,32.6,32.7,32.6c18.1,0,32.7-14.6,32.7-32.6c0-5.7-1.5-11.1-4.1-15.8
					c0.8-2.3,1.3-4.8,1.3-7.4c0-12-9.8-21.7-21.8-21.7c-9.6,0-17.7,6.1-20.6,14.7C-18,450.2-26.4,461.8-26.3,475.5z"/>
				<path class="st6" d="M69.8,600.5l-24.9-70.2c-4.1-16.4-20.7-26.5-37.2-22.4c-10.3,2.5-16.2,7.8-20,16.9
					c-11,26.5,9.4,65.6,30.3,91.1C46.1,617.9,58.8,612.2,69.8,600.5z"/>
				<path class="st6" d="M-9.1,492.5c0-5.1-4.2-9.2-9.3-9.2c-5.2,0-9.3,4.1-9.3,9.2s4.2,9.2,9.3,9.2S-9.1,497.5-9.1,492.5z"/>
				<path class="st5" d="M-17.1,486.1c-0.2,1.5-0.2,2.9-0.1,4.4"/>
				<path class="st6" d="M45.4,483.9c0-17.9-14.6-32.4-32.5-32.4c-18,0-32.5,14.5-32.5,32.4s14.6,32.4,32.5,32.4
					C30.9,516.3,45.4,501.8,45.4,483.9z"/>
				<path d="M16.9,477.9c0-1.3-1.1-2.4-2.4-2.4c-1.3,0-2.4,1.1-2.4,2.4s1.1,2.4,2.4,2.4S16.9,479.2,16.9,477.9z"/>
				<path d="M34.9,473.9c0-1.3-1.1-2.4-2.4-2.4c-1.3,0-2.4,1.1-2.4,2.4s1.1,2.4,2.4,2.4C33.9,476.3,34.9,475.3,34.9,473.9z"/>
				<path d="M19.6,486.8c1.1,4.3,5.1,7.1,9,6.1s6.2-5.3,5.1-9.6L19.6,486.8z"/>
				<path class="st4" d="M29.9,486.9c0-2.8-2.2-5-5-5s-5,2.2-5,5s2.2,5,5,5S29.9,489.7,29.9,486.9z"/>
				<path class="st5" d="M20.1,487.6c1,3.9,4.9,6.3,8.8,5.3c3.9-1,6.3-4.9,5.3-8.8L20.1,487.6z"/>
				<path class="st5" d="M-9.3,454.7l3,3.9c1.4,2.4,2.2,5.2,2.2,8.2c0,9.1-7.5,16.5-16.6,16.5"/>
				<path class="st3" d="M88.9,609.6H55.2C25.3,609.6,1,585.4,1,555.5v-22.3"/>
				<path class="st6" d="M115.2,614.8c0-2.9-2.4-5.3-5.3-5.3c2.9,0,5.3-2.4,5.3-5.3c0-2.9-2.4-5.3-5.3-5.3c2.9,0,5.3-2.4,5.3-5.3
					s-2.4-5.3-5.3-5.3l-18.4-0.1l-0.2,42.3l18.4,0.1c2.9,0,5.3-2.4,5.3-5.3c0-2.9-2.4-5.3-5.3-5.3C112.6,620,115,617.6,115.2,614.8z
					"/>
				<path class="st4" d="M185.5,594.5h-39.8v-41.8h9.1l0.1-16.4c0.1-2.9,2.4-5.2,5.3-5.2c2.9,0,5.2,2.3,5.2,5.2l-0.1,16.3h5.4"/>
				<path class="st5" d="M185.5,594.5h-39.8v-41.8h9.1l0.1-16.4c0.1-2.9,2.4-5.2,5.3-5.2c2.9,0,5.2,2.3,5.2,5.2l-0.1,16.3h5.4"/>
				<path class="st6" d="M186.9,563l-16.3-0.1c-2.9,0-5.2-2.3-5.2-5.2c0.1-2.9,2.4-5.2,5.3-5.2l16.3,0.1L186.9,563z"/>
				<path class="st6" d="M186.8,573.5l-16.3-0.1c-2.9,0-5.2-2.3-5.2-5.2c0.1-2.9,2.4-5.2,5.3-5.2l16.3,0.1L186.8,573.5z"/>
				<path class="st6" d="M186.8,583.9l-16.3-0.1c-2.9,0-5.2-2.3-5.2-5.2c0.1-2.9,2.4-5.2,5.3-5.2l16.3,0.1L186.8,583.9z"/>
				<path class="st6" d="M186.8,594.3l-16.3-0.1c-2.9,0-5.2-2.3-5.2-5.2c0.1-2.9,2.4-5.2,5.3-5.2l16.3,0.1L186.8,594.3z"/>
				<path class="st9" d="M181.3,424.5h87.8c4.6,0,8.4-3.8,8.4-8.4s-3.7-8.4-8.4-8.4c-4.6,0-8.4,3.8-8.4,8.4"/>
				<path class="st9" d="M227.9,431.2h-46.6"/>
				<path class="st9" d="M283.6,431.2H237"/>
				<path class="st10" d="M244.5,368.4c19.8,5.5,17.5-14.9,4.2-20.3c-13.4-5.3-10.5,10.9,12.7,15c23.2,4.1,28.8-17,4.8-28.1
					c-23.9-11-23,6.6,8.6,16.9s35.9-10.6,12.1-27.8c-23.9-17.2-30.4-7-17.3,4.1c13.2,11.2,66.2,30.8,55.3-0.1s-42-44.7-42-44.7"/>
				<path class="st5" d="M223.1,297.2l6.6,0.4l1.3-21.3l-6.6-0.4L223.1,297.2z"/>
				<path class="st5" d="M238.3,283.9l6.6,0.4l1.3-21.2l-6.6-0.4L238.3,283.9z"/>
				<path class="st5" d="M218.5,270.9l6.6,0.4l1.3-21.2l-6.6-0.4L218.5,270.9z"/>
				<path class="st5" d="M370.2,358.1l4.7,4.7l-14.9,15.1l-4.7-4.7L370.2,358.1z"/>
				<path class="st5" d="M370.6,378.3l4.7,4.7l-14.9,15.1l-4.7-4.7L370.6,378.3z"/>
				<path class="st5" d="M347.7,372.3l4.7,4.7l-14.9,15.1l-4.7-4.7L347.7,372.3z"/>
				<path class="st5" d="M340.9,398.5l4.7,4.7l-14.9,15.1l-4.7-4.7L340.9,398.5z"/>
				<path class="st5" d="M366.8,300.4l-4.8-4.6l14.5-15.5l4.8,4.6L366.8,300.4z"/>
				<path class="st5" d="M366,280.2l-4.8-4.6l14.5-15.5l4.8,4.6L366,280.2z"/>
				<path class="st5" d="M295.9,227.5l6.3,2.1l-6.9,20.1l-6.3-2.1L295.9,227.5z"/>
				<path class="st5" d="M314.5,187.6l6.3,2.1l-6.9,20.1l-6.3-2.1L314.5,187.6z"/>
				<path class="st5" d="M321.5,216.3l6.3,2.1l-6.9,20.1l-6.3-2.1L321.5,216.3z"/>
				<path class="st5" d="M298.6,201.1l6.3,2.1l-6.9,20.1l-6.3-2.1L298.6,201.1z"/>
				<path class="st5" d="M229.1,205.9c0.2-2.7-1.9-5-4.6-5.2c-2.7-0.2-5,1.9-5.2,4.6s1.9,5,4.6,5.2
					C226.5,210.7,228.8,208.6,229.1,205.9z"/>
				<path class="st5" d="M217.6,215.9c0.2-2.7-1.9-5-4.6-5.2c-2.7-0.2-5,1.9-5.2,4.6c-0.2,2.7,1.9,5,4.6,5.2
					C215,220.7,217.3,218.7,217.6,215.9z"/>
				<path class="st5" d="M213.5,200.9c0.2-2.7-1.9-5-4.6-5.2c-2.7-0.2-5,1.9-5.2,4.6c-0.2,2.7,1.9,5,4.6,5.2
					C211.1,205.6,213.3,203.6,213.5,200.9z"/>
				<path class="st5" d="M408.9,336c-3.2-2.2-7.4-0.2-7.8,3.6c-0.1,1.7,0.6,3.4,2,4.3c3.2,2.2,7.4,0.2,7.8-3.6
					C411.1,338.7,410.3,337,408.9,336z"/>
				<path class="st5" d="M405.1,321.2c-3.2-2.2-7.4-0.2-7.8,3.6c-0.1,1.7,0.6,3.4,2,4.3c3.2,2.2,7.4,0.2,7.8-3.6
					C407.3,323.8,406.5,322.1,405.1,321.2z"/>
				<path class="st5" d="M393.3,331.4c-3.2-2.2-7.4-0.2-7.8,3.6c-0.1,1.7,0.6,3.4,2,4.3c3.2,2.2,7.4,0.2,7.8-3.6
					C395.5,334,394.7,332.3,393.3,331.4z"/>
				<path class="st5" d="M184.1,350.7c2.7,0,4.9-2.2,4.9-4.9c0-2.7-2.2-4.9-4.9-4.9c-2.7,0-4.9,2.2-4.9,4.9
					C179.3,348.6,181.4,350.7,184.1,350.7z"/>
				<path class="st5" d="M192.7,363.4c2.7,0,4.9-2.2,4.9-4.9c0-2.7-2.2-4.9-4.9-4.9c-2.7,0-4.9,2.2-4.9,4.9
					C187.8,361.3,190,363.4,192.7,363.4z"/>
				<path class="st5" d="M200.4,349.8c2.7,0,4.9-2.2,4.9-4.9c0-2.7-2.2-4.9-4.9-4.9c-2.7,0-4.9,2.2-4.9,4.9S197.7,349.8,200.4,349.8
					z"/>
			</g>
		</g>
	</g>
</g>
</svg>
