<?xml version="1.0" encoding="utf-8"?>
<!-- Generator: Adobe Illustrator 23.0.6, SVG Export Plug-In . SVG Version: 6.00 Build 0)  -->
<!DOCTYPE svg PUBLIC "-//W3C//DTD SVG 1.1//EN" "http://www.w3.org/Graphics/SVG/1.1/DTD/svg11.dtd" [
	<!ENTITY ns_extend "http://ns.adobe.com/Extensibility/1.0/">
	<!ENTITY ns_ai "http://ns.adobe.com/AdobeIllustrator/10.0/">
	<!ENTITY ns_graphs "http://ns.adobe.com/Graphs/1.0/">
	<!ENTITY ns_vars "http://ns.adobe.com/Variables/1.0/">
	<!ENTITY ns_imrep "http://ns.adobe.com/ImageReplacement/1.0/">
	<!ENTITY ns_sfw "http://ns.adobe.com/SaveForWeb/1.0/">
	<!ENTITY ns_custom "http://ns.adobe.com/GenericCustomNamespace/1.0/">
	<!ENTITY ns_adobe_xpath "http://ns.adobe.com/XPath/1.0/">
]>
<svg version="1.1" xmlns:x="&ns_extend;" xmlns:i="&ns_ai;" xmlns:graph="&ns_graphs;"
	 xmlns="http://www.w3.org/2000/svg" xmlns:xlink="http://www.w3.org/1999/xlink" x="0px" y="0px" viewBox="0 0 652 610"
	 style="enable-background:new 0 0 652 610;" xml:space="preserve">
<style type="text/css">
	.st0{display:none;}
	.st1{display:inline;fill:#6100FE;stroke:#FFFFFF;stroke-miterlimit:10;}
	.st2{display:inline;fill:#013E7D;stroke:#FFFFFF;stroke-miterlimit:10;}
	.st3{clip-path:url(#SVGID_2_);}
	.st4{fill:none;stroke:#000000;stroke-width:46;stroke-linecap:round;stroke-miterlimit:10;}
	.st5{fill:#FFFFFF;}
	.st6{fill:none;stroke:#000000;stroke-width:3;stroke-miterlimit:10;}
	.st7{fill:#FFFFFF;stroke:#000000;stroke-width:3;stroke-miterlimit:10;}
	.st8{stroke:#000000;stroke-width:2;stroke-miterlimit:10;}
	.st9{fill:none;stroke:#000000;stroke-width:52.336;stroke-linecap:round;stroke-miterlimit:10;}
	.st10{fill:none;stroke:#86ED18;stroke-width:4.0159;stroke-miterlimit:10;}
	.st11{fill:none;stroke:#86ED18;stroke-width:3;stroke-miterlimit:10;}
</style>
<metadata>
	<sfw  xmlns="&ns_sfw;">
		<slices></slices>
		<sliceSourceBounds  bottomLeftOrigin="true" height="1168" width="1168" x="56" y="-1266"></sliceSourceBounds>
	</sfw>
</metadata>
<g id="Ebene_2" class="st0">
	<rect x="-333.5" y="-100.5" class="st1" width="1167" height="1167"/>
</g>
<g id="Ebene_2_Kopie" class="st0">
	<rect x="-333.5" y="-100.5" class="st2" width="1167" height="1167"/>
</g>
<g id="Ebene_4">
</g>
<g id="Ebene_3">
	<g>
		<defs>
			<rect id="SVGID_1_" x="7.3" y="11.9" width="636" height="593"/>
		</defs>
		<clipPath id="SVGID_2_">
			<use xlink:href="#SVGID_1_"  style="display:none;overflow:visible;"/>
		</clipPath>
		<g class="st3">
			<path class="st4" d="M493.9,328.1c0,0,5.4,75-80.1,86.9l-24.4,3"/>
			<path class="st5" d="M373.1,430.6l-20.9,2.6c-3,0.4-5.7-1.7-6.1-4.7c-0.4-3,1.7-5.7,4.7-6l21-2.7l-20.9,2.6
				c-3,0.4-5.7-1.7-6.1-4.7c-0.4-3,1.7-5.7,4.7-6l21-2.7l-20.9,2.6c-3,0.4-5.7-1.7-6.1-4.7c-0.4-3,1.7-5.7,4.7-6l29.3-3.8l-1.6-11.8
				c-0.4-3,1.7-5.7,4.7-6c3-0.4,5.7,1.7,6.1,4.7l1.5,11.9l9.4-1.2l5.7,42.9l-38.2,4.8c-3,0.4-5.7-1.7-6.1-4.7c-0.4-3,1.7-5.7,4.7-6"
				/>
			<path class="st6" d="M373.1,430.6l-20.9,2.6c-3,0.4-5.7-1.7-6.1-4.7c-0.4-3,1.7-5.7,4.7-6l21-2.7l-20.9,2.6
				c-3,0.4-5.7-1.7-6.1-4.7c-0.4-3,1.7-5.7,4.7-6l21-2.7l-20.9,2.6c-3,0.4-5.7-1.7-6.1-4.7c-0.4-3,1.7-5.7,4.7-6l29.3-3.8l-1.6-11.8
				c-0.4-3,1.7-5.7,4.7-6c3-0.4,5.7,1.7,6.1,4.7l1.5,11.9l9.4-1.2l5.7,42.9l-38.2,4.8c-3,0.4-5.7-1.7-6.1-4.7c-0.4-3,1.7-5.7,4.7-6"
				/>
			<path class="st7" d="M542.5,398.5c-29.1-15.6-63-43.8-63.1-72.5c0-9.8,3.5-17,12-23.3c13.7-10.1,32.9-7.2,43,6.4l50,55.3
				C578.7,379.5,569.2,389.6,542.5,398.5z"/>
			<path class="st7" d="M522.7,290.4c5.1,0,9.3-4.1,9.3-9.2c0-5.1-4.1-9.2-9.3-9.2c-5.1,0-9.3,4.1-9.3,9.2
				C513.4,286.3,517.5,290.4,522.7,290.4z"/>
			<path class="st6" d="M527,283.4c0.1-1.5,0.1-3-0.1-4.5"/>
			<path class="st6" d="M520.5,288.5c0.1-1.5,0.1-2.9-0.1-4.4"/>
			<path class="st7" d="M501.1,251.3c-1.7-6.9-7.9-12.5-16.8-13.2c-1.4-5.2-6.7-8.7-12.4-7.7c-4,0.7-7.3,3.8-8.4,7.7
				c-0.4,1.6-0.5,3.1-0.3,4.5c0,0.2-0.2,0.3-0.4,0.2c-1.4-1.9-3.7-3.1-6.2-2.9c-4.2,0.3-7.2,4.2-6.2,8.5c0.5,2.3,2.3,4.2,4.5,5
				c1.1,0.4,2.2,0.5,3.2,0.3c0.2,0,0.3,0.3,0.2,0.4c-2,1.5-3.2,4.1-2.7,6.8c0.6,3.2,3.5,5.6,6.8,5.6c3.6,0,6.4-2.6,6.9-6"/>
			<path class="st7" d="M490.4,314.3c17.9,0,32.5-14.5,32.5-32.4c0-17.9-14.5-32.4-32.5-32.4c-17.9,0-32.5,14.5-32.5,32.4
				C458,299.8,472.5,314.3,490.4,314.3z"/>
			<path class="st6" d="M501.1,251.3c-1.7-6.9-7.9-12.5-16.8-13.2c-1.4-5.2-6.7-8.7-12.4-7.7c-4,0.7-7.3,3.8-8.4,7.7
				c-0.4,1.6-0.5,3.1-0.3,4.5c0,0.2-0.2,0.3-0.4,0.2c-1.4-1.9-3.7-3.1-6.2-2.9c-4.2,0.3-7.2,4.2-6.2,8.5c0.5,2.3,2.3,4.2,4.5,5
				c1.1,0.4,2.2,0.5,3.2,0.3c0.2,0,0.3,0.3,0.2,0.4c-2,1.5-3.2,4.1-2.7,6.8c0.6,3.2,3.5,5.6,6.8,5.6c3.6,0,6.4-2.6,6.9-6"/>
			<path class="st8" d="M503.2,285.7c0.3,0,0.6-0.3,0.6-0.6c0-0.3-0.3-0.6-0.6-0.6s-0.6,0.3-0.6,0.6
				C502.6,285.4,502.8,285.7,503.2,285.7z"/>
			<path class="st8" d="M500.3,288.6c0.3,0,0.6-0.3,0.6-0.6c0-0.3-0.3-0.6-0.6-0.6c-0.3,0-0.6,0.3-0.6,0.6
				C499.7,288.3,500,288.6,500.3,288.6z"/>
			<path class="st8" d="M509,285.6c0.3,0,0.6-0.3,0.6-0.6c0-0.3-0.3-0.6-0.6-0.6c-0.3,0-0.6,0.3-0.6,0.6
				C508.4,285.4,508.7,285.6,509,285.6z"/>
			<path class="st8" d="M503.2,291.7c0.3,0,0.6-0.3,0.6-0.6s-0.3-0.6-0.6-0.6c-0.3,0-0.6,0.3-0.6,0.6S502.9,291.7,503.2,291.7z"/>
			<path class="st8" d="M506.1,288.6c0.3,0,0.6-0.3,0.6-0.6c0-0.3-0.3-0.6-0.6-0.6c-0.3,0-0.6,0.3-0.6,0.6
				C505.5,288.3,505.8,288.6,506.1,288.6z"/>
			<path class="st6" d="M488.9,278.3c1.3,0,2.4-1.1,2.4-2.4c0-1.3-1.1-2.4-2.4-2.4c-1.3,0-2.4,1.1-2.4,2.4
				C486.5,277.2,487.5,278.3,488.9,278.3z"/>
			<path class="st6" d="M470.8,274.3c1.3,0,2.4-1.1,2.4-2.4c0-1.3-1.1-2.4-2.4-2.4c-1.3,0-2.4,1.1-2.4,2.4
				C468.4,273.3,469.5,274.3,470.8,274.3z"/>
			<path d="M469.4,285.5c-1.1,4.3,1.2,8.6,5.1,9.6c3.9,1,7.9-1.8,9-6.1l0.9-3.6l-14.1-3.5L469.4,285.5z"/>
			<path class="st5" d="M479.4,296.7c2.8,0,5-2.2,5-5c0-2.8-2.2-5-5-5c-2.8,0-5,2.2-5,5C474.4,294.4,476.6,296.7,479.4,296.7z"/>
			<path class="st6" d="M468.9,286.3c-1,3.9,1.4,7.8,5.3,8.8c3.9,1,7.8-1.4,8.8-5.3l1.4-4.4l-14.1-3.5L468.9,286.3z"/>
			<path class="st4" d="M528.6,315l35.2,48"/>
			<path class="st4" d="M467.9,421.8v32.3c0,15.9,13,28.9,28.9,28.9c10.4,0,20-5.6,25.1-14.6l23.1-40.5"/>
			<path class="st5" d="M523.9,377.6c0-19.9,16.2-36.1,36.2-36.1c9.9,0,18.9,4,25.5,10.5l43,40.4c14.1,13.3,17.6,34.4,8.4,51.5"/>
			<path class="st6" d="M523.9,377.6c0-19.9,16.2-36.1,36.2-36.1c9.9,0,18.9,4,25.5,10.5l43,40.4c14.1,13.3,17.6,34.4,8.4,51.5"/>
			<path class="st7" d="M588.4,489c-27.3-18.5-49.8-44.1-46.9-72.7c1-9.8,5.2-16.6,14.3-21.9c14.6-8.6,33.5-3.8,42.1,10.8l28.6,39
				C619.3,458.7,615.9,483,588.4,489z"/>
			<path class="st6" d="M578.9,390c3.5,0,6.4-2.9,6.4-6.4c0-3.5-2.9-6.4-6.4-6.4c-3.5,0-6.4,2.9-6.4,6.4
				C572.4,387.1,575.3,390,578.9,390z"/>
			<path class="st6" d="M577.6,384.5c0.1-1.5,0.1-2.9-0.1-4.4"/>
			<path class="st7" d="M547.5,410.3c17.9,0,32.5-14.5,32.5-32.4c0-17.9-14.5-32.4-32.5-32.4c-17.9,0-32.5,14.5-32.5,32.4
				C515,395.8,529.5,410.3,547.5,410.3z"/>
			<path d="M545.9,374.3c1.3,0,2.4-1.1,2.4-2.4c0-1.3-1.1-2.4-2.4-2.4c-1.3,0-2.4,1.1-2.4,2.4C543.5,373.2,544.6,374.3,545.9,374.3z
				"/>
			<path d="M527.9,370.4c1.3,0,2.4-1.1,2.4-2.4c0-1.3-1.1-2.4-2.4-2.4c-1.3,0-2.4,1.1-2.4,2.4C525.4,369.3,526.5,370.4,527.9,370.4z
				"/>
			<path class="st6" d="M526,377.8c-1,3.9,1.4,7.8,5.3,8.8c3.9,1,7.8-1.4,8.8-5.3"/>
			<path class="st4" d="M582.9,414.6l23.3,35.9"/>
			<path class="st6" d="M580.8,377.5c-3,1-6.1,1.5-9.4,1.5c-16.6,0-30.1-13.4-30.1-30c0-0.9,0-1.9,0.1-2.8"/>
			<path class="st5" d="M446.1,390.2v47.5l43.4-0.1l0.1-4.2c6.1,0,11.1-5,11.1-11.1v-10.3c0-3-2.4-5.4-5.4-5.4c-3,0-5.4,2.4-5.4,5.4
				l0,9.1l0-29.5"/>
			<path class="st6" d="M446.1,390.2v47.5l43.4-0.1l0.1-4.2c6.1,0,11.1-5,11.1-11.1v-10.3c0-3-2.4-5.4-5.4-5.4c-3,0-5.4,2.4-5.4,5.4
				l0,9.1l0-29.5"/>
			<path class="st7" d="M446,390.2l-0.1,17c0,3,2.4,5.5,5.4,5.5c3,0,5.5-2.4,5.5-5.4l0.1-17L446,390.2z"/>
			<path class="st7" d="M457,390.2l-0.1,17c0,3,2.4,5.5,5.4,5.5c3,0,5.5-2.4,5.5-5.4l0.1-17L457,390.2z"/>
			<path class="st7" d="M503.1,404.7l-69.7,4v-16l69.7,5.1V404.7z"/>
			<path class="st7" d="M478.9,381.8l-0.1,12.2c0,3,2.4,5.5,5.4,5.5c3,0,5.5-2.4,5.5-5.4l0.1-12.2L478.9,381.8z"/>
			<path class="st7" d="M468,381.8l-0.1,12.2c0,3,2.4,5.5,5.4,5.5c3,0,5.5-2.4,5.5-5.4l0.1-12.2L468,381.8z"/>
			<path class="st4" d="M314.9,269.8c0,0-49.4,75.4-106.1,62.8"/>
			<path class="st5" d="M336,261l13-16.6c1.8-2.3,1.4-5.7-0.9-7.6c-2.4-1.8-5.8-1.4-7.6,0.9l-13,16.6l13-16.6
				c1.8-2.3,1.4-5.7-0.9-7.6s-5.8-1.4-7.6,0.9l-13,16.6l13-16.6c1.8-2.3,1.4-5.7-0.9-7.6c-2.4-1.8-5.8-1.4-7.6,0.9l-18.2,23.2
				l-9.4-7.4c-2.4-1.8-5.8-1.4-7.6,0.9c-1.8,2.4-1.4,5.7,0.9,7.6l9.4,7.4l-5.8,7.4l34.1,26.8l23.6-30.3c1.8-2.3,1.4-5.7-0.9-7.6
				c-2.4-1.8-5.8-1.4-7.6,0.9"/>
			<path class="st6" d="M336,261l13-16.6c1.8-2.3,1.4-5.7-0.9-7.6c-2.4-1.8-5.8-1.4-7.6,0.9l-13,16.6l13-16.6
				c1.8-2.3,1.4-5.7-0.9-7.6s-5.8-1.4-7.6,0.9l-13,16.6l13-16.6c1.8-2.3,1.4-5.7-0.9-7.6c-2.4-1.8-5.8-1.4-7.6,0.9l-18.2,23.2
				l-9.4-7.4c-2.4-1.8-5.8-1.4-7.6,0.9c-1.8,2.4-1.4,5.7,0.9,7.6l9.4,7.4l-5.8,7.4l34.1,26.8l23.6-30.3c1.8-2.3,1.4-5.7-0.9-7.6
				c-2.4-1.8-5.8-1.4-7.6,0.9"/>
			<path class="st7" d="M167.3,267.1c33.1,6,34.4-21,34.4-21l0.2-4.8l-14.1,0c-8.6-0.1-49.1,10.1-51.5,51.1
				c-0.8,13.5-8.4,18.8-16.9,19.2l-1.3,0C57.9,311.2,9,359.5,8.6,419.4c-0.3,59.9,48.1,108.7,108.1,109.1l116.7-93.9"/>
			<path class="st5" d="M258.9,421c56.4,0.6,70.5,79.6,79.9,109.8c3.9,12.7,12.4,23.5,23.9,30.3c10.2,6,20.8,10.5,26.1,14.9
				c9.5,7.8,13.8,27.1,13.8,27.1l-145.2,0.1v-70"/>
			<path class="st6" d="M258.9,421c56.4,0.6,70.5,79.6,79.9,109.8c3.9,12.7,12.4,23.5,23.9,30.3c10.2,6,20.8,10.5,26.1,14.9
				c9.5,7.8,13.8,27.1,13.8,27.1l-145.2,0.1v-70"/>
			<path class="st7" d="M222.7,408.8c63.7,0,56.2,85.1,47.4,117.2c-3.5,12.8-7.8,27.3,3.7,34c10.2,6,21.2,12.3,26,17.2
				c10.6,10.9,10.4,25.9,10.4,25.9l-147.3,0.1l51.3-132.2h-54.2c-22.1,0-38.4-20.7-33.1-42.1l26.6-85.9
				c9.3-28.7,17.1-38.2,38.3-38.2s35.5,12.6,34.4,33.7c-1.2,23-15.1,54-22.8,70.7L222.7,408.8z"/>
			<path class="st4" d="M187.3,328.1c0,0-5.4,75,80.1,86.9l24.4,3"/>
			<path class="st7" d="M167,285.3c5,0,9.1-4.1,9.1-9.1c0-5-4.1-9.1-9.1-9.1c-5,0-9.1,4.1-9.1,9.1
				C157.8,281.2,161.9,285.3,167,285.3z"/>
			<path class="st7" d="M198.7,309.8c17.7,0,32-14.3,32-31.9c0-17.6-14.3-31.9-32-31.9s-32,14.3-32,31.9
				C166.7,295.5,181,309.8,198.7,309.8z"/>
			<path d="M205.1,268.1c1,0,1.9-0.8,1.9-1.9c0-1-0.8-1.9-1.9-1.9c-1,0-1.9,0.8-1.9,1.9C203.2,267.3,204.1,268.1,205.1,268.1z"/>
			<path d="M218.5,268.4c1,0,1.9-0.8,1.9-1.9s-0.8-1.9-1.9-1.9c-1,0-1.9,0.8-1.9,1.9S217.5,268.4,218.5,268.4z"/>
			<path class="st6" d="M167.3,267.1c33.1,6,34.4-21,34.4-21l0.2-4.8l-14.1,0c-8.6-0.1-49.1,10.1-51.5,51.1
				c-0.8,13.5-8.4,18.8-16.9,19.2l-1.3,0C57.9,311.2,9,359.5,8.6,419.4c-0.3,59.9,48.1,108.7,108.1,109.1l27.7,0.2"/>
			<path d="M218.2,280.8c-0.2,3.9-3.3,9.1-7.2,9c-3.9-0.2-7.2-5.6-7-9.6l0.1-3.3l14.2,0.6L218.2,280.8z"/>
			<path class="st5" d="M206.4,283.5c2.7,0,4.9-2.2,4.9-4.9s-2.2-4.9-4.9-4.9s-4.9,2.2-4.9,4.9S203.7,283.5,206.4,283.5z"/>
			<path class="st6" d="M218.5,283c-0.2,3.9-3.5,7-7.4,6.8c-3.9-0.2-7-3.5-6.8-7.4l-0.1-5.4l14.2,0.6L218.5,283z"/>
			<path class="st5" d="M308.1,430.6l20.9,2.7c3,0.4,5.7-1.7,6.1-4.7c0.4-3-1.7-5.7-4.7-6l-21-2.7l20.9,2.7c3,0.4,5.7-1.7,6.1-4.7
				c0.4-3-1.7-5.7-4.7-6l-21-2.7l20.9,2.7c3,0.4,5.7-1.7,6.1-4.7s-1.7-5.7-4.7-6l-29.3-3.8l1.6-11.8c0.4-3-1.7-5.7-4.7-6
				c-3-0.4-5.7,1.7-6.1,4.7L293,396l-9.3-1.2l-5.7,42.9l38.2,4.8c3,0.4,5.7-1.7,6.1-4.7c0.4-3-1.7-5.7-4.7-6"/>
			<path class="st6" d="M308.1,430.6l20.9,2.7c3,0.4,5.7-1.7,6.1-4.7c0.4-3-1.7-5.7-4.7-6l-21-2.7l20.9,2.7c3,0.4,5.7-1.7,6.1-4.7
				c0.4-3-1.7-5.7-4.7-6l-21-2.7l20.9,2.7c3,0.4,5.7-1.7,6.1-4.7s-1.7-5.7-4.7-6l-29.3-3.8l1.6-11.8c0.4-3-1.7-5.7-4.7-6
				c-3-0.4-5.7,1.7-6.1,4.7L293,396l-9.3-1.2l-5.7,42.9l38.2,4.8c3,0.4,5.7-1.7,6.1-4.7c0.4-3-1.7-5.7-4.7-6"/>
			<path class="st9" d="M595.7,496.4c0,0-33.9,49.3-86.3,49.3s-52.4,0-52.4,0"/>
			<path class="st7" d="M618.7,418c-2.9-8.6-11-14.7-20.6-14.7c-12,0-21.8,9.7-21.8,21.7c0,2.6,0.5,5.1,1.3,7.4
				c-2.6,4.7-4.1,10.1-4.1,15.8c0,18,14.6,32.6,32.7,32.6c18.1,0,32.7-14.6,32.7-32.6C639,434.5,630.6,422.9,618.7,418z"/>
			<path class="st7" d="M594.6,588.6c20.9-25.5,41.3-64.6,30.3-91.1c-3.8-9.1-9.7-14.4-20-16.9c-16.5-4.1-33.1,6-37.2,22.4
				l-24.9,70.2C553.8,584.9,566.5,590.6,594.6,588.6z"/>
			<path class="st7" d="M631,474.4c5.1,0,9.3-4.1,9.3-9.2c0-5.1-4.1-9.2-9.3-9.2c-5.1,0-9.3,4.1-9.3,9.2
				C621.7,470.2,625.9,474.4,631,474.4z"/>
			<path class="st6" d="M629.8,463.2c0.1-1.5,0.1-2.9-0.1-4.4"/>
			<path class="st7" d="M599.7,489c17.9,0,32.5-14.5,32.5-32.4c0-17.9-14.5-32.4-32.5-32.4c-17.9,0-32.5,14.5-32.5,32.4
				C567.2,474.5,581.7,489,599.7,489z"/>
			<path d="M598.1,453c1.3,0,2.4-1.1,2.4-2.4c0-1.3-1.1-2.4-2.4-2.4c-1.3,0-2.4,1.1-2.4,2.4C595.7,451.9,596.8,453,598.1,453z"/>
			<path d="M580.1,449c1.3,0,2.4-1.1,2.4-2.4c0-1.3-1.1-2.4-2.4-2.4c-1.3,0-2.4,1.1-2.4,2.4C577.7,448,578.7,449,580.1,449z"/>
			<path d="M578.9,456c-1.1,4.3,1.2,8.6,5.1,9.6s7.9-1.8,9-6.1L578.9,456z"/>
			<path class="st5" d="M587.7,464.6c2.8,0,5-2.2,5-5c0-2.8-2.2-5-5-5c-2.8,0-5,2.2-5,5C582.7,462.4,584.9,464.6,587.7,464.6z"/>
			<path class="st6" d="M578.4,456.8c-1,3.9,1.4,7.8,5.3,8.8c3.9,1,7.8-1.4,8.8-5.3L578.4,456.8z"/>
			<path class="st6" d="M633.3,456c-9.1,0-16.6-7.4-16.6-16.5c0-3,0.8-5.8,2.2-8.2l3-3.9"/>
			<path class="st4" d="M611.6,505.9v22.3c0,29.9-24.3,54.1-54.2,54.1h-33.7"/>
			<path class="st7" d="M502.9,592.7c-2.9,0-5.3,2.4-5.3,5.3c0,2.9,2.4,5.3,5.3,5.3l18.4-0.1l-0.2-42.3l-18.4,0.1
				c-2.9,0-5.3,2.4-5.3,5.3s2.4,5.3,5.3,5.3c-2.9,0-5.3,2.4-5.3,5.3c0,2.9,2.4,5.3,5.3,5.3c-2.9,0-5.3,2.4-5.3,5.3
				C497.6,590.3,500,592.7,502.9,592.7z"/>
			<path class="st5" d="M441.9,525.3l5.4,0l-0.1-16.3c0-2.9,2.3-5.2,5.2-5.2c2.9,0,5.2,2.3,5.3,5.2l0.1,16.4h9.1v41.8h-39.8"/>
			<path class="st6" d="M441.9,525.3l5.4,0l-0.1-16.3c0-2.9,2.3-5.2,5.2-5.2c2.9,0,5.2,2.3,5.3,5.2l0.1,16.4h9.1v41.8h-39.8"/>
			<path class="st7" d="M425.6,525.3l16.3-0.1c2.9,0,5.2,2.3,5.3,5.2c0,2.9-2.3,5.2-5.2,5.2l-16.3,0.1L425.6,525.3z"/>
			<path class="st7" d="M425.7,535.8l16.3-0.1c2.9,0,5.2,2.3,5.3,5.2c0,2.9-2.3,5.2-5.2,5.2l-16.3,0.1L425.7,535.8z"/>
			<path class="st7" d="M425.7,546.2l16.3-0.1c2.9,0,5.2,2.3,5.3,5.2c0,2.9-2.3,5.2-5.2,5.2l-16.3,0.1L425.7,546.2z"/>
			<path class="st7" d="M425.7,556.6l16.3-0.1c2.9,0,5.2,2.3,5.3,5.2c0,2.9-2.3,5.2-5.2,5.2l-16.3,0.1L425.7,556.6z"/>
			<path class="st10" d="M351.9,388.8c0-4.6-3.8-8.4-8.4-8.4c-4.7,0-8.4,3.8-8.4,8.4c0,4.6,3.8,8.4,8.4,8.4h87.8"/>
			<path class="st10" d="M431.3,403.9h-46.6"/>
			<path class="st10" d="M375.6,403.9H329"/>
			<path class="st11" d="M262.6,106.2c0,0-31.9,11.9-44.6,42.1c-12.7,30.2,41.4,13.8,55.2,3.4c13.8-10.3,7.9-20.9-17-5.1
				c-24.8,15.8-21.8,36.9,10.4,28.5c32.2-8.4,34.1-26,9.6-16.4c-24.6,9.6-20.3,31,3.1,28.3c23.4-2.7,27.3-18.7,13.6-14.2
				c-13.6,4.6-17.1,24.8,3,20.5"/>
			<path class="st11" d="M429,69.7c0,0-65.6-23.4-84.7-4.2c-19.1,19.1,33.1,38.6,62.4,40.3c29.3,1.7,4.1-29.6-41.7-24.6
				c-45.8,5-12.7,38.9,16.6,45.3c29.4,6.4,43.4-7.7,4-14.5c-39.4-6.9-42.4,12.3-29.8,24.8c12.6,12.5,43.2,13.8,40.8,4.5
				c-1.8-7.1-45.7-17-47.2,3.1c-1.2,16.4,31.2,22.3,39.4,18.4c7.4-3.6-38.8-18-35.8-2.6c3,15.4,20.3,14.8,20.3,14.8"/>
			<path class="st6" d="M312.1,109.7h-6.6V131h6.6V109.7z"/>
			<path class="st6" d="M297.7,95.6h-6.6v21.2h6.6V95.6z"/>
			<path class="st6" d="M318.2,83.8h-6.6V105h6.6V83.8z"/>
			<path class="st6" d="M452.2,103.4l-6-2.8l8.9-19.3l6,2.8L452.2,103.4z"/>
			<path class="st6" d="M445,84.6l-6-2.8l8.9-19.3l6,2.8L445,84.6z"/>
			<path class="st6" d="M468.5,82.4l-6-2.8l8.9-19.3l6,2.8L468.5,82.4z"/>
			<path class="st6" d="M466,55.5l-6-2.8l8.9-19.3l6,2.8L466,55.5z"/>
			<path class="st6" d="M369.5,237.2l-6-2.8l8.9-19.3l6,2.8L369.5,237.2z"/>
			<path class="st6" d="M362.4,218.3l-6-2.8l8.9-19.3l6,2.8L362.4,218.3z"/>
			<path class="st6" d="M268.7,62.8l-5.3,4l-12.9-16.9l5.3-4L268.7,62.8z"/>
			<path class="st6" d="M238.5,30.7l-5.3,4l-12.9-16.9l5.3-4L238.5,30.7z"/>
			<path class="st6" d="M240.9,60.2l-5.3,4l-12.9-16.9l5.3-4L240.9,60.2z"/>
			<path class="st6" d="M257.9,38.5l-5.3,4l-12.9-16.9l5.3-4L257.9,38.5z"/>
			<path class="st6" d="M316.4,44.4c2.7,0,4.9-2.2,4.9-4.9c0-2.7-2.2-4.9-4.9-4.9c-2.7,0-4.9,2.2-4.9,4.9
				C311.6,42.2,313.8,44.4,316.4,44.4z"/>
			<path class="st6" d="M327.3,55.1c2.7,0,4.9-2.2,4.9-4.9c0-2.7-2.2-4.9-4.9-4.9c-2.7,0-4.9,2.2-4.9,4.9
				C322.5,53,324.7,55.1,327.3,55.1z"/>
			<path class="st6" d="M332.2,40.3c2.7,0,4.9-2.2,4.9-4.9c0-2.7-2.2-4.9-4.9-4.9c-2.7,0-4.9,2.2-4.9,4.9
				C327.4,38.1,329.5,40.3,332.2,40.3z"/>
			<path class="st6" d="M424.6,137.5c2.7,0,4.9-2.2,4.9-4.9c0-2.7-2.2-4.9-4.9-4.9s-4.9,2.2-4.9,4.9
				C419.7,135.3,421.9,137.5,424.6,137.5z"/>
			<path class="st6" d="M433.2,150.2c2.7,0,4.9-2.2,4.9-4.9c0-2.7-2.2-4.9-4.9-4.9s-4.9,2.2-4.9,4.9
				C428.3,148,430.5,150.2,433.2,150.2z"/>
			<path class="st6" d="M440.9,136.6c2.7,0,4.9-2.2,4.9-4.9c0-2.7-2.2-4.9-4.9-4.9c-2.7,0-4.9,2.2-4.9,4.9
				C436,134.4,438.2,136.6,440.9,136.6z"/>
			<path class="st6" d="M427.7,196.5c2.7,0,4.9-2.2,4.9-4.9c0-2.7-2.2-4.9-4.9-4.9c-2.7,0-4.9,2.2-4.9,4.9
				C422.9,194.4,425,196.5,427.7,196.5z"/>
			<path class="st6" d="M436.3,209.2c2.7,0,4.9-2.2,4.9-4.9c0-2.7-2.2-4.9-4.9-4.9c-2.7,0-4.9,2.2-4.9,4.9
				C431.4,207.1,433.6,209.2,436.3,209.2z"/>
			<path class="st6" d="M444,195.6c2.7,0,4.9-2.2,4.9-4.9c0-2.7-2.2-4.9-4.9-4.9c-2.7,0-4.9,2.2-4.9,4.9
				C439.1,193.4,441.3,195.6,444,195.6z"/>
			<path class="st7" d="M66.7,603.3L118,471.1h96.2l-51.3,132.2H66.7z"/>
		</g>
	</g>
</g>
</svg>
