<svg width="753" height="259" viewBox="0 0 753 259" fill="none" xmlns="http://www.w3.org/2000/svg" class="clients-circle-callcenter-software">
<circle opacity="0.33" cx="376.5" cy="420.5" r="374.5" stroke="url(#paint0_linear)" stroke-width="4"/>
<circle cx="141" cy="127" r="42" fill="white"/>
<circle cx="141" cy="127" r="42" fill="white" stroke="#86ed18" stroke-width="4" class="circle circle-1" style="transition:all 0.3s ease"/>
<g opacity="1" class="circle-icon circle-icon-1" style="transition:all 0.3s ease">
<path d="M118.001 118.726V112C118.001 110.895 118.896 110 120.001 110H154.394C155.499 110 156.394 110.895 156.394 112V118.726M118.001 118.726H156.394M118.001 118.726L118 139.994C118 141.099 118.895 141.995 120 141.995H140.151M156.394 118.726L156.394 125.998" stroke="black" stroke-width="2" stroke-miterlimit="10" stroke-linecap="round" stroke-linejoin="round"/>
<path d="M122.428 113.136C121.752 113.137 121.191 113.679 121.191 114.363C121.191 115.048 121.753 115.59 122.43 115.59C123.107 115.59 123.669 115.048 123.669 114.363L123.668 114.359C123.667 114.197 123.634 114.037 123.571 113.888L123.111 114.083L123.571 113.888C123.508 113.739 123.416 113.604 123.301 113.49C123.185 113.377 123.049 113.287 122.899 113.226C122.749 113.165 122.589 113.135 122.428 113.136ZM122.428 113.136C122.429 113.136 122.429 113.136 122.43 113.136V113.636L122.426 113.136C122.427 113.136 122.427 113.136 122.428 113.136ZM127.596 113.136C126.92 113.137 126.36 113.679 126.36 114.363C126.36 115.048 126.921 115.59 127.598 115.59C128.274 115.59 128.837 115.048 128.837 114.363L128.837 114.359C128.835 114.197 128.802 114.037 128.739 113.888C128.676 113.739 128.584 113.604 128.469 113.49C128.353 113.377 128.217 113.287 128.067 113.226C127.917 113.165 127.757 113.135 127.596 113.136ZM127.596 113.136C127.597 113.136 127.597 113.136 127.598 113.136V113.636L127.594 113.136C127.595 113.136 127.596 113.136 127.596 113.136ZM132.765 113.136C132.089 113.137 131.528 113.679 131.528 114.363C131.528 115.048 132.09 115.59 132.767 115.59C133.444 115.59 134.005 115.048 134.005 114.363L134.005 114.359C134.004 114.197 133.971 114.037 133.908 113.888C133.845 113.739 133.753 113.604 133.637 113.49L133.287 113.846L133.637 113.49C133.522 113.377 133.386 113.287 133.235 113.226L133.048 113.689L133.235 113.226C133.086 113.165 132.926 113.135 132.765 113.136ZM132.765 113.136C132.766 113.136 132.766 113.136 132.767 113.136V113.636L132.763 113.136C132.764 113.136 132.764 113.136 132.765 113.136Z" fill="black" stroke="black" stroke-miterlimit="10" stroke-linecap="round" stroke-linejoin="round"/>
<path fill-rule="evenodd" clip-rule="evenodd" d="M152 149C159.18 149 165 143.18 165 136C165 128.82 159.18 123 152 123C144.82 123 139 128.82 139 136C139 143.18 144.82 149 152 149ZM157.628 129.878C156.986 129.284 155.91 129.407 155.442 130.127L153.664 132.867C153.334 133.375 153.42 134.026 153.874 134.445L154.964 135.453C154.397 136.109 153.746 136.79 153.003 137.476C152.331 138.098 151.669 138.645 151.031 139.124L149.921 138.098C149.468 137.679 148.764 137.599 148.214 137.904L145.25 139.548C144.47 139.98 144.338 140.975 144.981 141.569L145.494 142.043L146.204 142.7L146.205 142.7L146.398 142.879C147.038 143.47 148.016 143.615 148.777 143.162C150.18 142.327 152.281 140.884 154.486 138.846C156.798 136.709 158.365 134.507 159.213 133.064C159.596 132.412 159.45 131.631 158.924 131.081C158.901 131.056 158.877 131.033 158.852 131.009L158.836 130.994L158.141 130.353L157.628 129.878Z" fill="#86EC16"/>
</g>
<circle cx="263" cy="66" r="40" fill="white"/>
<circle cx="263" cy="66" r="41" stroke="black" stroke-opacity="0.1" stroke-width="2" class="circle circle-2" style="transition:all 0.3s ease"/>
<g opacity="0.5" class="circle-icon circle-icon-2" style="transition:all 0.3s ease">
<line x1="239" y1="54" x2="287" y2="54" stroke="black" stroke-width="2"/>
<path fill-rule="evenodd" clip-rule="evenodd" d="M272 61L274.5 58L277 61H279C280.105 61 281 61.8954 281 63V87C281 88.1046 280.105 89 279 89H259C257.895 89 257 88.1046 257 87V63C257 61.8954 257.895 61 259 61H272ZM265.756 68.6304C265.316 67.9062 264.302 67.7831 263.696 68.3804L263.213 68.857L262.559 69.5018L262.558 69.5024L262.543 69.5172C262.52 69.5404 262.497 69.5642 262.476 69.5887C261.98 70.1415 261.843 70.9274 262.203 71.5821C263.002 73.0323 264.479 75.246 266.658 77.3943C268.735 79.4427 270.715 80.8931 272.037 81.7323C272.754 82.1876 273.675 82.0421 274.279 81.4474L274.46 81.2683L274.461 81.2676L275.131 80.6073L275.614 80.1307C276.22 79.5335 276.095 78.534 275.361 78.0995L272.567 76.4471C272.049 76.1406 271.386 76.2211 270.959 76.6423L269.913 77.6736C269.312 77.1918 268.688 76.642 268.054 76.0173C267.355 75.3273 266.741 74.6427 266.207 73.9834L267.234 72.9703C267.662 72.5491 267.743 71.8952 267.432 71.3844L265.756 68.6304Z" fill="#86EC16"/>
<path fill-rule="evenodd" clip-rule="evenodd" d="M242 44C240.343 44 239 45.3431 239 47V80C239 81.6569 240.343 83 242 83H257V81H242C241.448 81 241 80.5523 241 80V47C241 46.4477 241.448 46 242 46H284C284.552 46 285 46.4477 285 47V80C285 80.5523 284.552 81 284 81H281V83H284C285.657 83 287 81.6569 287 80V47C287 45.3431 285.657 44 284 44H242Z" fill="black"/>
<circle cx="244.5" cy="49.5" r="1.5" fill="black"/>
<circle cx="249.5" cy="49.5" r="1.5" fill="black"/>
<circle cx="254.5" cy="49.5" r="1.5" fill="black"/>
<rect x="271" y="46" width="7" height="7" fill="#86EC16"/>
</g>
<circle cx="385" cy="42" r="40" fill="white"/>
<circle cx="385" cy="42" r="41" stroke="black" stroke-opacity="0.1" stroke-width="2" class="circle circle-3" style="transition:all 0.3s ease"/>
<g opacity="0.5" class="circle-icon circle-icon-3" style="transition:all 0.3s ease">
<path d="M373.244 52.8893C367.434 47.161 364.829 41.6373 364.252 39.5915L363.038 40.7891C361.992 41.82 361.672 43.3713 362.377 44.6525C363.86 47.3456 366.603 51.4569 370.65 55.4466C374.509 59.2506 378.184 61.9444 380.64 63.5029C381.972 64.3484 383.683 64.0782 384.803 62.9737L386.386 61.4136C384.426 60.9589 379.054 58.6176 373.244 52.8893Z" fill="#86EC16"/>
<path d="M365.15 38.7064C366.275 37.5972 368.158 37.8257 368.976 39.1708L372.089 44.2853C372.666 45.234 372.514 46.4483 371.721 47.2306L369.579 49.342C368.454 50.4511 366.572 50.2226 365.753 48.8776L362.641 43.763C362.063 42.8143 362.215 41.6 363.009 40.8177L365.15 38.7064Z" fill="#86EC16"/>
<path d="M387.284 60.5284C388.409 59.4193 388.177 57.5631 386.813 56.7561L381.625 53.6874C380.663 53.1182 379.431 53.2677 378.638 54.05L376.496 56.1613C375.371 57.2705 375.603 59.1266 376.967 59.9336L382.155 63.0023C383.117 63.5715 384.349 63.422 385.142 62.6398L387.284 60.5284Z" fill="#86EC16"/>
<path d="M403.97 31.6934L403.261 32.3987L403.263 32.4005L403.97 31.6934ZM404.777 32.2381L404.386 33.1583L404.391 33.1604L404.777 32.2381ZM403.425 30.8859L402.502 31.2717L402.505 31.2785L403.425 30.8859ZM403.425 28.9142L402.504 28.524L402.503 28.5279L403.425 28.9142ZM404.777 27.5621L404.392 26.6394L404.385 26.642L404.777 27.5621ZM406.749 27.5621L407.139 26.6413L407.135 26.6397L406.749 27.5621ZM408.101 28.9142L409.024 28.5285L409.021 28.5225L408.101 28.9142ZM408.101 30.8859L409.022 31.2762L409.023 31.2723L408.101 30.8859ZM406.749 32.2381L407.135 33.1607L407.141 33.1581L406.749 32.2381ZM403.228 34.0457V33.0457H402.228V34.0457H403.228ZM403.228 41.6816H402.228V42.6816H403.228V41.6816ZM408.318 34.0457H409.318V33.0457H408.318V34.0457ZM408.318 39.0499H407.318V39.0696L407.318 39.0894L408.318 39.0499ZM407.955 40.3164L408.766 40.9006L408.774 40.8899L408.782 40.879L407.955 40.3164ZM407.036 41.1274L406.559 40.2484L406.558 40.2487L407.036 41.1274ZM405.802 41.5579L405.629 40.573L405.617 40.5752L405.802 41.5579ZM404.5 41.6816V42.6816L404.506 42.6816L404.5 41.6816ZM399.104 30.8443L399.111 29.8442L399.096 29.8443L399.104 30.8443ZM400.088 30.6457L399.696 29.7256L399.695 29.7262L400.088 30.6457ZM398.121 30.6457L398.519 29.728L398.515 29.7263L398.121 30.6457ZM397.85 30.4811L398.443 29.6756L398.443 29.6756L397.85 30.4811ZM397.5 30.264H396.5V30.8882L397.061 31.1624L397.5 30.264ZM397.5 26.3515L397.063 25.4524L396.5 25.7261V26.3515H397.5ZM397.85 26.1345L398.443 26.9399L398.443 26.9399L397.85 26.1345ZM398.121 25.9697L398.515 26.8891L398.517 26.8881L398.121 25.9697ZM399.1 25.7711L399.093 26.7712L399.107 26.7711L399.1 25.7711ZM400.086 25.9697L399.693 26.8892L399.696 26.8904L400.086 25.9697ZM401.438 27.3219L402.36 26.9346L402.358 26.9301L401.438 27.3219ZM401.439 29.2936L402.36 29.6838L402.361 29.6799L401.439 29.2936ZM397.5 43.7009H396.5V44.5076L397.289 44.6782L397.5 43.7009ZM397.823 43.7807L398.084 42.8153L398.084 42.8153L397.823 43.7807ZM397.5 32.4545V31.4545H396.5V32.4545H397.5ZM402.273 32.4545H403.273V31.4545H402.273V32.4545ZM402.273 41.2903H401.273V41.3091L401.273 41.3278L402.273 41.2903ZM401.953 42.5557L402.801 43.0859L402.807 43.0756L402.813 43.065L401.953 42.5557ZM401.142 43.3608L401.66 44.2158L401.665 44.2131L401.142 43.3608ZM400.054 43.7853L399.856 42.8049L399.844 42.8075L400.054 43.7853ZM398.906 43.909L398.901 44.909L398.912 44.909L398.906 43.909ZM398.159 43.8543L398.302 42.8645L398.295 42.8635L398.159 43.8543ZM380 46.1364H379V46.9782L379.829 47.1217L380 46.1364ZM396.546 49L396.375 49.9854L397.546 50.1879V49H396.546ZM380 23.8636L379.829 22.8783L379 23.0218V23.8636H380ZM396.546 21H397.546V19.8121L396.375 20.0146L396.546 21ZM392.092 29.5908H393.092V28.5281L392.031 28.5927L392.092 29.5908ZM384.456 30.0558L384.395 29.0577L383.456 29.1149V30.0558H384.456ZM392.092 31.4995L392.136 32.4985L393.092 32.4561V31.4995H392.092ZM389.228 31.6268L389.184 30.6278L388.228 30.6702V31.6268H389.228ZM389.228 39.9798L389.17 40.9781L390.228 41.0401V39.9798H389.228ZM387.319 39.868H386.319V40.8112L387.261 40.8663L387.319 39.868ZM387.319 31.7017H388.319V30.6606L387.279 30.7025L387.319 31.7017ZM384.456 31.817H383.456V32.8581L384.496 32.8162L384.456 31.817ZM403.263 32.4005C403.586 32.7234 403.966 32.9799 404.386 33.1583L405.169 31.3178C404.984 31.2393 404.818 31.1272 404.677 30.9863L403.263 32.4005ZM402.505 31.2785C402.684 31.6966 402.941 32.0773 403.261 32.3987L404.679 30.9881C404.537 30.8457 404.423 30.677 404.345 30.4933L402.505 31.2785ZM402.503 28.5279C402.135 29.4055 402.135 30.3936 402.502 31.2716L404.348 30.5002C404.187 30.1153 404.187 29.6834 404.347 29.3006L402.503 28.5279ZM404.385 26.642C403.54 27.0021 402.864 27.6751 402.504 28.524L404.346 29.3044C404.502 28.9355 404.797 28.6406 405.169 28.4821L404.385 26.642ZM407.135 26.6397C406.258 26.2721 405.27 26.2724 404.392 26.6395L405.163 28.4847C405.548 28.3238 405.98 28.324 406.363 28.4844L407.135 26.6397ZM409.021 28.5225C408.661 27.6768 407.988 27.0011 407.139 26.6414L406.359 28.4828C406.728 28.6391 407.023 28.9338 407.181 29.306L409.021 28.5225ZM409.023 31.2723C409.391 30.3946 409.391 29.4065 409.024 28.5285L407.178 29.2999C407.339 29.6848 407.339 30.1167 407.179 30.4996L409.023 31.2723ZM407.141 33.1581C407.986 32.7981 408.662 32.125 409.022 31.2761L407.18 30.4957C407.024 30.8646 406.729 31.1595 406.357 31.318L407.141 33.1581ZM404.391 33.1604C405.269 33.528 406.257 33.5278 407.135 33.1607L406.363 31.3154C405.978 31.4764 405.546 31.4761 405.164 31.3157L404.391 33.1604ZM402.228 34.0457V41.6816H404.228V34.0457H402.228ZM408.318 33.0457H403.228V35.0457H408.318V33.0457ZM409.318 39.0499V34.0457H407.318V39.0499H409.318ZM408.782 40.879C409.155 40.3297 409.343 39.6751 409.317 39.0103L407.318 39.0894C407.328 39.326 407.261 39.5586 407.128 39.7538L408.782 40.879ZM407.512 42.0064C408.011 41.7362 408.438 41.3564 408.766 40.9006L407.143 39.7321C406.989 39.947 406.788 40.1238 406.559 40.2484L407.512 42.0064ZM405.976 42.5427C406.514 42.4479 407.032 42.2672 407.513 42.0061L406.558 40.2487C406.268 40.4063 405.955 40.5157 405.629 40.5731L405.976 42.5427ZM404.506 42.6816C405.001 42.6789 405.497 42.6331 405.987 42.5406L405.617 40.5752C405.249 40.6445 404.874 40.6795 404.495 40.6816L404.506 42.6816ZM403.228 42.6816H404.5V40.6816H403.228V42.6816ZM399.096 31.8443C399.573 31.8476 400.044 31.7521 400.481 31.5652L399.695 29.7262C399.509 29.8057 399.31 29.8457 399.111 29.8443L399.096 31.8443ZM397.724 31.5634C398.164 31.7541 398.636 31.8476 399.111 31.8443L399.096 29.8443C398.895 29.8457 398.699 29.8061 398.519 29.728L397.724 31.5634ZM397.258 31.2866C397.343 31.3489 397.499 31.4671 397.728 31.5651L398.515 29.7263C398.514 29.7261 398.515 29.7268 398.511 29.7245C398.508 29.7224 398.502 29.7184 398.491 29.7104C398.479 29.7017 398.465 29.6919 398.443 29.6756L397.258 31.2866ZM397.061 31.1624C397.106 31.184 397.137 31.2024 397.161 31.2183C397.189 31.2359 397.213 31.2534 397.258 31.2866L398.443 29.6756C398.343 29.6018 398.186 29.486 397.94 29.3656L397.061 31.1624ZM396.5 26.3515V30.264H398.5V26.3515H396.5ZM397.257 25.3292C397.212 25.3626 397.188 25.38 397.161 25.3975C397.137 25.4132 397.106 25.4312 397.063 25.4524L397.938 27.2505C398.185 27.1302 398.343 27.0138 398.443 26.9399L397.257 25.3292ZM397.728 25.0503C397.499 25.1484 397.342 25.267 397.257 25.3292L398.443 26.9399C398.465 26.9235 398.479 26.9137 398.491 26.9049C398.502 26.897 398.508 26.8929 398.512 26.8908C398.516 26.8884 398.514 26.8891 398.515 26.8891L397.728 25.0503ZM399.107 24.7711C398.631 24.7678 398.161 24.8636 397.726 25.0513L398.517 26.8881C398.7 26.8094 398.895 26.7697 399.093 26.7711L399.107 24.7711ZM400.479 25.0502C400.041 24.8632 399.57 24.7678 399.093 24.7711L399.107 26.7711C399.308 26.7697 399.507 26.8098 399.693 26.8892L400.479 25.0502ZM402.358 26.9301C401.998 26.0845 401.325 25.4088 400.476 25.049L399.696 26.8904C400.064 27.0468 400.359 27.3415 400.518 27.7136L402.358 26.9301ZM402.361 29.6799C402.729 28.8022 402.729 27.8135 402.36 26.9346L400.516 27.7091C400.677 28.0931 400.677 28.5244 400.517 28.9072L402.361 29.6799ZM400.48 31.5658C401.326 31.2054 402 30.5318 402.36 29.6838L400.518 28.9033C400.362 29.2731 400.068 29.5676 399.696 29.7256L400.48 31.5658ZM397.289 44.6782C397.4 44.7022 397.479 44.7234 397.562 44.7461L398.084 42.8153C397.995 42.7912 397.875 42.7588 397.712 42.7235L397.289 44.6782ZM396.5 32.4545V43.7009H398.5V32.4545H396.5ZM402.273 31.4545H397.5V33.4545H402.273V31.4545ZM403.273 41.2903V32.4545H401.273V41.2903H403.273ZM402.813 43.065C403.138 42.5167 403.296 41.8866 403.272 41.2528L401.273 41.3278C401.283 41.5812 401.22 41.8312 401.092 42.0463L402.813 43.065ZM401.665 44.2131C402.127 43.9294 402.515 43.5428 402.801 43.0859L401.105 42.0254C400.982 42.2225 400.815 42.3878 400.619 42.5085L401.665 44.2131ZM400.251 44.7657C400.749 44.6655 401.226 44.4791 401.66 44.2158L400.623 42.5057C400.387 42.6491 400.127 42.7506 399.856 42.805L400.251 44.7657ZM398.912 44.909C399.363 44.9062 399.817 44.8589 400.263 44.7631L399.844 42.8075C399.537 42.8735 399.22 42.907 398.9 42.909L398.912 44.909ZM398.017 44.844C398.311 44.8866 398.607 44.9076 398.901 44.909L398.911 42.909C398.705 42.908 398.502 42.8934 398.302 42.8645L398.017 44.844ZM397.562 44.7461C397.678 44.7772 397.825 44.8179 398.024 44.845L398.295 42.8635C398.236 42.8554 398.198 42.8461 398.084 42.8153L397.562 44.7461ZM379.829 47.1217L396.375 49.9854L396.716 48.0147L380.171 45.151L379.829 47.1217ZM379 23.8636V46.1364H381V23.8636H379ZM396.375 20.0146L379.829 22.8783L380.171 24.849L396.716 21.9854L396.375 20.0146ZM397.546 49V21H395.546V49H397.546ZM392.031 28.5927L384.395 29.0577L384.517 31.054L392.153 30.589L392.031 28.5927ZM393.092 31.4995V29.5908H391.092V31.4995H393.092ZM389.273 32.6258L392.136 32.4985L392.047 30.5005L389.184 30.6278L389.273 32.6258ZM390.228 39.9798V31.6268H388.228V39.9798H390.228ZM387.261 40.8663L389.17 40.9781L389.287 38.9815L387.378 38.8697L387.261 40.8663ZM386.319 31.7017V39.868H388.319V31.7017H386.319ZM384.496 32.8162L387.36 32.7009L387.279 30.7025L384.416 30.8179L384.496 32.8162ZM383.456 30.0558V31.817H385.456V30.0558H383.456Z" fill="black"/>
</g>
<circle cx="507" cy="66" r="40" fill="white"/>
<circle cx="507" cy="66" r="41" stroke="black" stroke-opacity="0.1" stroke-width="2" class="circle circle-4" style="transition:all 0.3s ease"/>
<g opacity="0.5" class="circle-icon circle-icon-4" style="transition:all 0.3s ease">
<path d="M495.244 77.8893C489.434 72.161 486.829 66.6373 486.252 64.5915L485.038 65.7891C483.992 66.82 483.672 68.3713 484.377 69.6525C485.86 72.3456 488.603 76.4569 492.65 80.4466C496.509 84.2506 500.184 86.9444 502.64 88.5029C503.972 89.3484 505.683 89.0782 506.803 87.9737L508.386 86.4136C506.426 85.9589 501.054 83.6176 495.244 77.8893Z" fill="#86EC16"/>
<path d="M487.15 63.7064C488.275 62.5972 490.158 62.8257 490.976 64.1708L494.089 69.2853C494.666 70.234 494.514 71.4483 493.721 72.2306L491.579 74.342C490.454 75.4511 488.572 75.2226 487.753 73.8776L484.641 68.763C484.063 67.8143 484.215 66.6 485.009 65.8177L487.15 63.7064Z" fill="#86EC16"/>
<path d="M509.284 85.5284C510.409 84.4193 510.177 82.5631 508.813 81.7561L503.625 78.6874C502.663 78.1182 501.431 78.2677 500.638 79.05L498.496 81.1613C497.371 82.2705 497.603 84.1266 498.967 84.9336L504.155 88.0023C505.117 88.5715 506.349 88.422 507.142 87.6398L509.284 85.5284Z" fill="#86EC16"/>
<path fill-rule="evenodd" clip-rule="evenodd" d="M504 50C504 51.1046 504.895 52 506 52C507.105 52 508 51.1046 508 50C508 48.8954 507.105 48 506 48C504.895 48 504 48.8954 504 50ZM506 46C503.791 46 502 47.7909 502 50C502 52.2091 503.791 54 506 54C508.209 54 510 52.2091 510 50C510 47.7909 508.209 46 506 46ZM504 60C504 61.1046 504.895 62 506 62C507.105 62 508 61.1046 508 60C508 58.8954 507.105 58 506 58C504.895 58 504 58.8954 504 60ZM506 56C503.791 56 502 57.7909 502 60C502 62.2091 503.791 64 506 64C508.209 64 510 62.2091 510 60C510 57.7909 508.209 56 506 56ZM506 72C504.895 72 504 71.1046 504 70C504 68.8954 504.895 68 506 68C507.105 68 508 68.8954 508 70C508 71.1046 507.105 72 506 72ZM502 70C502 67.7909 503.791 66 506 66C508.209 66 510 67.7909 510 70C510 72.2091 508.209 74 506 74C503.791 74 502 72.2091 502 70ZM514 50C514 51.1046 514.895 52 516 52C517.105 52 518 51.1046 518 50C518 48.8954 517.105 48 516 48C514.895 48 514 48.8954 514 50ZM516 46C513.791 46 512 47.7909 512 50C512 52.2091 513.791 54 516 54C518.209 54 520 52.2091 520 50C520 47.7909 518.209 46 516 46ZM516 62C514.895 62 514 61.1046 514 60C514 58.8954 514.895 58 516 58C517.105 58 518 58.8954 518 60C518 61.1046 517.105 62 516 62ZM512 60C512 57.7909 513.791 56 516 56C518.209 56 520 57.7909 520 60C520 62.2091 518.209 64 516 64C513.791 64 512 62.2091 512 60ZM514 70C514 71.1046 514.895 72 516 72C517.105 72 518 71.1046 518 70C518 68.8954 517.105 68 516 68C514.895 68 514 68.8954 514 70ZM516 66C513.791 66 512 67.7909 512 70C512 72.2091 513.791 74 516 74C518.209 74 520 72.2091 520 70C520 67.7909 518.209 66 516 66ZM526 52C524.895 52 524 51.1046 524 50C524 48.8954 524.895 48 526 48C527.105 48 528 48.8954 528 50C528 51.1046 527.105 52 526 52ZM522 50C522 47.7909 523.791 46 526 46C528.209 46 530 47.7909 530 50C530 52.2091 528.209 54 526 54C523.791 54 522 52.2091 522 50ZM524 60C524 61.1046 524.895 62 526 62C527.105 62 528 61.1046 528 60C528 58.8954 527.105 58 526 58C524.895 58 524 58.8954 524 60ZM526 56C523.791 56 522 57.7909 522 60C522 62.2091 523.791 64 526 64C528.209 64 530 62.2091 530 60C530 57.7909 528.209 56 526 56ZM526 72C524.895 72 524 71.1046 524 70C524 68.8954 524.895 68 526 68C527.105 68 528 68.8954 528 70C528 71.1046 527.105 72 526 72ZM522 70C522 67.7909 523.791 66 526 66C528.209 66 530 67.7909 530 70C530 72.2091 528.209 74 526 74C523.791 74 522 72.2091 522 70Z" fill="black"/>
</g>
<circle cx="629" cy="127" r="40" fill="white"/>
<circle cx="629" cy="127" r="41" stroke="black" stroke-opacity="0.1" stroke-width="2" class="circle circle-5" style="transition:all 0.3s ease"/>
<g opacity="0.5" class="circle-icon circle-icon-5" style="transition:all 0.3s ease">
<rect x="615" y="143" width="13" height="6" rx="2" fill="#86EC16"/>
<rect x="631" y="144" width="11" height="4" rx="1" stroke="black" stroke-width="2"/>
<rect x="612" y="104" width="34" height="48" rx="3" stroke="black" stroke-width="2"/>
<line x1="615" y1="109" x2="635" y2="109" stroke="#86EC16" stroke-width="4"/>
<rect x="616" y="113.657" width="6" height="5.72578" rx="2.86289" stroke="black" stroke-width="2"/>
<rect x="616" y="123.314" width="6" height="5.72578" rx="2.86289" stroke="black" stroke-width="2"/>
<rect x="616" y="132.972" width="6" height="5.72578" rx="2.86289" stroke="black" stroke-width="2"/>
<rect x="626" y="113.657" width="6" height="5.72578" rx="2.86289" stroke="black" stroke-width="2"/>
<rect x="626" y="123.314" width="6" height="5.72578" rx="2.86289" stroke="black" stroke-width="2"/>
<rect x="626" y="132.972" width="6" height="5.72578" rx="2.86289" stroke="black" stroke-width="2"/>
<rect x="636" y="113.657" width="6" height="5.72578" rx="2.86289" stroke="black" stroke-width="2"/>
<rect x="636" y="123.314" width="6" height="5.72578" rx="2.86289" stroke="black" stroke-width="2"/>
<rect x="636" y="132.972" width="6" height="5.72578" rx="2.86289" stroke="black" stroke-width="2"/>
</g>
<defs>
<linearGradient id="paint0_linear" x1="376.5" y1="44" x2="376.5" y2="262" gradientUnits="userSpaceOnUse">
<stop offset="0" stop-color="#86EC16"/>
<stop offset="1" stop-color="#86EC16" stop-opacity="0"/>
</linearGradient>
<linearGradient id="paint1_linear" x1="141" y1="87" x2="141" y2="167" gradientUnits="userSpaceOnUse">
<stop offset="0" stop-color="#AAEA39"/>
<stop offset="1" stop-color="#86EC16"/>
</linearGradient>
</defs>
</svg>
