<svg width="263" height="266" viewBox="0 0 263 266" fill="none" xmlns="http://www.w3.org/2000/svg">
<path d="M217.616 105.568L215.499 110.101L159.052 85.1727L136.65 75.2364L120.245 67.9149L58.5056 1.49854L1 128.23L85.4944 129.45H92.1975L107.72 136.423L167.872 162.92L186.217 171.113L187.629 171.81L185.512 176.343L193.45 179.829L225.554 109.229L217.616 105.568Z" stroke="black" stroke-width="2" stroke-miterlimit="10" stroke-linecap="round" stroke-linejoin="round"/>
<path d="M217.616 105.568L185.512 176.343" stroke="black" stroke-width="2" stroke-miterlimit="10" stroke-linecap="round" stroke-linejoin="round"/>
<path d="M33.2773 389.711C76.3183 369.316 91.8413 242.41 91.8413 218.528C91.8413 199.352 96.2513 209.114 106.659 211.904C110.01 210.509 113.715 209.986 117.595 210.509C195.739 219.051 244.249 338.984 248.659 411.153L213.556 416.905C209.675 361.994 173.337 266.292 121.829 244.676C113.891 334.451 100.838 397.033 48.0947 421.089C43.332 410.63 38.7457 399.996 33.2773 389.711Z" fill="black"/>
<path d="M185.686 175.644C185.51 176.167 185.334 176.864 184.981 177.387C184.628 178.259 184.099 179.131 183.393 179.828C183.04 180.176 182.864 180.525 182.511 180.699C181.982 181.397 181.453 181.92 180.747 182.617C176.337 187.149 170.869 190.636 165.224 193.251C163.813 193.948 162.226 194.471 160.814 194.994C158.345 195.865 155.875 196.563 153.406 196.911L152.876 210.683V212.426L152.7 222.885L147.055 222.188L145.291 222.014L129.239 220.27L127.475 220.096L111.423 218.353L109.659 218.179L93.6069 216.435L91.8429 216.261L87.2566 215.738L90.2553 210.508L91.8429 207.894L93.6069 204.756L99.428 194.645L100.486 192.902L105.249 184.709C102.603 182.443 100.134 179.828 97.8404 177.213C97.3112 176.69 96.9584 175.993 96.4292 175.47C95.3709 174.075 94.3125 172.506 93.4305 171.112C92.9013 170.066 92.1957 169.02 91.6665 167.974C90.6081 166.056 89.7261 164.139 88.8441 162.047C88.4913 161.35 88.315 160.478 87.9622 159.607C87.7858 159.084 87.6094 158.386 87.2566 157.863C85.4926 152.634 84.6106 147.23 84.2578 142C84.2578 141.477 84.2578 140.78 84.2578 140.257C84.2578 136.596 84.4342 132.761 85.1398 129.275C85.3162 127.706 85.669 126.137 86.1982 124.394C86.3746 123.871 86.551 123.173 86.7274 122.65C87.9622 118.292 89.5497 114.109 91.6665 110.099C92.1957 109.053 92.9013 108.007 93.4305 106.962C93.4305 106.962 93.4305 106.787 93.6069 106.787C93.9597 106.264 94.3125 105.567 94.6653 105.044C98.546 99.1171 103.132 93.7131 108.777 89.1807C109.659 88.4835 110.365 87.7862 111.247 87.0889C116.186 83.4281 121.478 80.2904 127.299 77.8499C127.828 77.6755 128.534 77.3269 129.063 77.1526C131.532 76.281 134.002 75.4094 136.471 74.7121C138.588 74.1891 140.529 73.6661 142.822 73.3175C153.053 71.5743 160.462 79.0701 158.874 84.6484C158.521 85.52 157.992 86.5659 157.286 87.2632C156.581 87.9605 155.522 88.4835 154.288 89.0064C153.582 89.3551 152.7 89.5294 151.642 89.7037C150.054 90.0523 148.467 90.401 146.879 90.7496C146.35 90.924 145.644 91.0983 145.115 91.2726C139.47 93.1901 134.002 95.9793 129.063 99.64C128.534 100.163 127.828 100.512 127.299 101.035C125.888 102.255 124.476 103.475 123.242 104.695C122.712 105.218 122.183 105.916 121.478 106.439C117.244 110.971 113.716 116.026 111.247 121.605C110.541 123.173 110.012 124.742 109.483 126.311C108.424 129.449 107.895 132.587 107.542 135.725C107.366 137.119 107.366 138.339 107.366 139.734C107.366 140.257 107.366 140.954 107.366 141.477C107.542 144.615 108.248 147.927 109.306 151.065C109.306 151.239 109.306 151.239 109.483 151.413C110.012 152.808 110.541 154.203 111.247 155.597C111.599 156.12 111.776 156.817 112.129 157.34C112.481 157.863 112.834 158.561 113.187 159.084C116.715 164.488 121.654 168.671 127.299 171.286C127.828 171.635 128.534 171.809 129.063 171.983C134.178 174.075 139.647 174.947 145.115 174.424C145.644 174.424 146.35 174.25 146.879 174.25C152.524 173.378 157.992 171.112 162.931 167.102C163.46 166.579 164.166 166.056 164.695 165.533C165.577 164.662 166.459 163.79 167.341 162.744C167.517 162.57 167.694 162.396 167.87 162.221L180.747 167.974L182.511 168.846L186.216 170.414C186.392 172.506 186.216 174.075 185.686 175.644Z" fill="white" stroke="black" stroke-width="2" stroke-miterlimit="10" stroke-linecap="round" stroke-linejoin="round"/>
<path d="M182.509 175.645V169.544L180.745 168.672V175.471H164.693V166.231C164.164 166.754 163.458 167.277 162.929 167.8V175.471H146.877V174.773C146.348 174.948 145.642 174.948 145.113 174.948V175.471H129.061V172.681C128.532 172.507 127.826 172.158 127.297 171.984V175.645H111.245V159.782H113.185C112.832 159.259 112.48 158.561 112.127 158.038H111.245V156.295C110.539 154.901 110.01 153.506 109.481 152.111V158.038H93.4286V142.175H107.54C107.54 141.652 107.54 140.955 107.54 140.432H93.605V124.569H109.657V126.835C110.186 125.266 110.716 123.697 111.421 122.128V106.962H121.652C122.181 106.439 122.711 105.742 123.416 105.219H111.598V89.3558H127.65V101.558C128.179 101.035 128.885 100.687 129.414 100.164V89.3558H145.466V91.622C145.995 91.4476 146.701 91.2733 147.23 91.099V90.4017C147.053 90.0531 146.877 89.7044 146.701 89.3558C146.171 88.8328 145.819 88.1356 145.466 87.4383V87.6126H129.414V77.6763C129.414 77.6763 129.237 77.8506 129.061 77.8506C128.532 78.1992 128.003 78.3736 127.65 78.3736V87.7869H111.598V87.4383C110.716 88.1356 109.834 88.8328 109.128 89.5301H109.834V105.393H95.0162C94.6634 105.916 94.3106 106.614 93.9578 107.137H109.834V123H93.7814V107.311C93.2522 108.357 92.5466 109.403 92.0175 110.449V123H87.0783C86.9019 123.523 86.7255 124.22 86.5491 124.743H92.0175V140.606H84.7852C84.7852 141.129 84.7852 141.826 84.7852 142.349H92.0175V158.213H87.6075C87.7839 158.736 87.9603 159.433 88.3131 159.956H92.0175V168.323C92.5466 169.369 93.2522 170.415 93.7814 171.461V160.13H109.834V175.993H96.7802C97.3094 176.516 97.6622 177.214 98.1914 177.737H109.834V193.6H100.661L99.6026 195.343H109.657V211.206H93.605V205.454L91.8411 208.592V211.206H90.2535L89.1951 212.95H91.6647V216.959L93.4286 217.133V212.427H109.481V218.354L111.245 218.528V212.427H127.297V220.271L129.061 220.445V212.427H145.113V223.409C145.113 223.932 145.466 224.28 145.995 224.28C146.524 224.28 146.877 223.932 146.877 223.409V212.427H152.698V210.683H146.701V194.82H160.46C162.047 194.297 163.458 193.774 164.87 193.077H164.517V177.214H180.569V182.443C181.275 181.92 181.804 181.223 182.333 180.526V177.214H184.803C185.155 176.691 185.332 175.993 185.508 175.471H182.509V175.645ZM127.473 210.683H111.421V194.82H127.473V210.683ZM127.473 193.077H111.421V177.214H127.473V193.077ZM145.29 210.683H129.237V194.82H145.29V210.683ZM145.29 193.077H129.237V177.214H145.29V193.077ZM162.929 193.077H146.877V177.214H162.929V193.077Z" fill="black"/>
<path d="M142.82 73.8428C154.463 73.8428 157.461 77.6778 161.871 80.2927C166.281 82.9075 168.045 89.0087 168.045 89.0087C168.045 89.0087 168.574 86.5682 151.64 90.0547" fill="white"/>
<path d="M142.82 73.8428C154.463 73.8428 157.461 77.6778 161.871 80.2927C166.281 82.9075 168.045 89.0087 168.045 89.0087C168.045 89.0087 168.574 86.5682 151.64 90.0547" stroke="black" stroke-width="2" stroke-miterlimit="10" stroke-linecap="round" stroke-linejoin="round"/>
<path d="M166.282 85.5196C163.988 83.2535 158.344 81.8589 158.344 81.8589L166.282 85.5196Z" fill="white"/>
<path d="M166.282 85.5196C163.988 83.2535 158.344 81.8589 158.344 81.8589" stroke="black" stroke-width="2" stroke-miterlimit="10" stroke-linecap="round" stroke-linejoin="round"/>
<path d="M136.648 75.2358L147.056 91.2734" stroke="black" stroke-width="2" stroke-miterlimit="10" stroke-linecap="round" stroke-linejoin="round"/>
<ellipse cx="142.977" cy="153.436" rx="27" ry="26.6841" fill="white" stroke="black" stroke-width="2" stroke-miterlimit="10" stroke-linecap="round" stroke-linejoin="round"/>
<ellipse rx="2.88981" ry="2.86943" transform="matrix(0.897012 -0.442006 0.45041 0.892822 143.861 151.621)" fill="black"/>
<ellipse rx="2.88983" ry="2.86944" transform="matrix(0.897013 -0.442004 0.450412 0.892821 159.408 150.358)" fill="black"/>
<path d="M144.977 163.962L157.703 161.342L157.791 161.757C158.531 165.268 156.282 168.701 152.768 169.425C149.253 170.148 145.804 167.889 145.064 164.378L144.977 163.962Z" fill="black"/>
<path d="M150.685 166.63C151.914 166.052 152.191 165.3 152.236 164.486L148.32 165.292C148.587 166.364 149.686 167.099 150.685 166.63Z" fill="white"/>
<ellipse rx="0.997719" ry="0.997998" transform="matrix(0.685347 0.728216 -0.731148 0.682219 129.786 159.49)" fill="black"/>
<ellipse rx="0.997719" ry="0.997998" transform="matrix(0.685347 0.728216 -0.731148 0.682219 132.521 162.396)" fill="black"/>
<ellipse rx="0.997719" ry="0.997998" transform="matrix(0.685347 0.728216 -0.731148 0.682219 135.438 159.673)" fill="black"/>
<ellipse rx="0.997719" ry="0.997998" transform="matrix(0.685347 0.728216 -0.731148 0.682219 135.255 165.303)" fill="black"/>
<ellipse rx="0.997719" ry="0.997998" transform="matrix(0.685347 0.728216 -0.731148 0.682219 138.173 162.579)" fill="black"/>
<path d="M114.2 150.679C113.02 154.344 114.835 158.2 118.253 159.291C121.672 160.382 125.944 147.107 122.526 146.016C119.107 144.925 115.38 147.013 114.2 150.679Z" fill="white"/>
<path d="M118.253 159.291C114.835 158.2 113.02 154.344 114.2 150.679C115.38 147.013 119.107 144.925 122.526 146.016" stroke="black" stroke-width="2"/>
<path d="M119.114 154.345C117.936 153.969 117.31 152.64 117.717 151.376C118.123 150.112 119.409 149.393 120.587 149.769" stroke="black" stroke-width="2"/>
<path d="M156.977 140.126C160.81 138.964 168.477 135.148 168.477 129.173C168.477 123.199 161.81 123.365 158.477 124.195C158.643 121.705 157.277 116.428 150.477 115.233C143.677 114.038 140.977 119.05 140.477 121.705C139.643 120.378 137.177 118.121 133.977 119.714C130.777 121.307 131.31 124.361 131.977 125.688C129.81 125.522 125.177 127.281 123.977 135.645" stroke="black" stroke-width="2"/>
</svg>
