<?xml version="1.0" encoding="UTF-8" standalone="no"?>
<svg
   width="263"
   height="266"
   viewBox="0 0 263 266"
   fill="none"
   version="1.1"
   id="svg50"
   sodipodi:docname="connection-illustration--dimmed.svg"
   inkscape:version="1.1 (c68e22c387, 2021-05-23)"
   xmlns:inkscape="http://www.inkscape.org/namespaces/inkscape"
   xmlns:sodipodi="http://sodipodi.sourceforge.net/DTD/sodipodi-0.dtd"
   xmlns="http://www.w3.org/2000/svg"
   xmlns:svg="http://www.w3.org/2000/svg">
  <defs
     id="defs54" />
  <sodipodi:namedview
     id="namedview52"
     pagecolor="#ffffff"
     bordercolor="#666666"
     borderopacity="1.0"
     inkscape:pageshadow="2"
     inkscape:pageopacity="0.0"
     inkscape:pagecheckerboard="0"
     showgrid="false"
     inkscape:zoom="0.39097744"
     inkscape:cx="663.72115"
     inkscape:cy="407.95192"
     inkscape:window-width="1920"
     inkscape:window-height="1017"
     inkscape:window-x="-8"
     inkscape:window-y="-8"
     inkscape:window-maximized="1"
     inkscape:current-layer="svg50" />
  <path
     d="m 31.043054,105.568 2.117,4.533 56.447,-24.9283 22.401996,-9.9363 16.405,-7.3215 61.7394,-66.41636 57.5056,126.73146 -84.4944,1.22 h -6.7031 l -15.5225,6.973 -60.151996,26.497 -18.345,8.193 -1.412,0.697 2.117,4.533 -7.938,3.486 -32.104,-70.6 z"
     stroke="#000000" stroke-opacity="0.15"
     stroke-width="2"
     stroke-miterlimit="10"
     stroke-linecap="round"
     stroke-linejoin="round"
     id="path2" />
  <path
     d="m 31.043054,105.568 32.104,70.775"
     stroke="#000000" stroke-opacity="0.15"
     stroke-width="2"
     stroke-miterlimit="10"
     stroke-linecap="round"
     stroke-linejoin="round"
     id="path4" />
  <path
     d="m 215.38175,389.711 c -43.041,-20.395 -58.564,-147.301 -58.564,-171.183 0,-19.176 -4.41,-9.414 -14.8177,-6.624 -3.351,-1.395 -7.056,-1.918 -10.936,-1.395 C 52.920054,219.051 4.4100542,338.984 5.416589e-5,411.153 L 35.103054,416.905 c 3.881,-54.911 40.219,-150.613 91.726996,-172.229 7.938,89.775 20.991,152.357 73.7343,176.413 4.7627,-10.459 9.349,-21.093 14.8174,-31.378 z"
     fill="#000000" fill-opacity="0.15"
     id="path6" />
  <path
     d="m 62.973054,175.644 c 0.176,0.523 0.352,1.22 0.705,1.743 0.353,0.872 0.882,1.744 1.588,2.441 0.353,0.348 0.529,0.697 0.882,0.871 0.529,0.698 1.058,1.221 1.764,1.918 4.41,4.532 9.878,8.019 15.523,10.634 1.411,0.697 2.998,1.22 4.41,1.743 2.469,0.871 4.939,1.569 7.408,1.917 l 0.53,13.772 v 1.743 l 0.176,10.459 5.644996,-0.697 1.764,-0.174 16.052,-1.744 1.764,-0.174 16.052,-1.743 1.764,-0.174 16.0521,-1.744 1.764,-0.174 4.5863,-0.523 -2.9987,-5.23 -1.5876,-2.614 -1.764,-3.138 -5.8211,-10.111 -1.058,-1.743 -4.763,-8.193 c 2.646,-2.266 5.115,-4.881 7.4086,-7.496 0.5292,-0.523 0.882,-1.22 1.4112,-1.743 1.0583,-1.395 2.1167,-2.964 2.9987,-4.358 0.5292,-1.046 1.2348,-2.092 1.764,-3.138 1.0584,-1.918 1.9404,-3.835 2.8224,-5.927 0.3528,-0.697 0.5291,-1.569 0.8819,-2.44 0.1764,-0.523 0.3528,-1.221 0.7056,-1.744 1.764,-5.229 2.646,-10.633 2.9988,-15.863 0,-0.523 0,-1.22 0,-1.743 0,-3.661 -0.1764,-7.496 -0.882,-10.982 -0.1764,-1.569 -0.5292,-3.138 -1.0584,-4.881 -0.1764,-0.523 -0.3528,-1.221 -0.5292,-1.744 -1.2348,-4.358 -2.8223,-8.541 -4.9391,-12.551 -0.5292,-1.046 -1.2348,-2.092 -1.764,-3.137 0,0 0,-0.175 -0.1764,-0.175 -0.3528,-0.523 -0.7056,-1.22 -1.0584,-1.743 -3.8807,-5.9269 -8.4667,-11.3309 -14.1117,-15.8633 -0.882,-0.6972 -1.588,-1.3945 -2.47,-2.0918 -4.939,-3.6608 -10.231,-6.7985 -16.052,-9.239 -0.529,-0.1744 -1.235,-0.523 -1.764,-0.6973 -2.469,-0.8716 -4.939,-1.7432 -7.408,-2.4405 -2.117,-0.523 -4.058,-1.046 -6.351,-1.3946 -10.230996,-1.7432 -17.639996,5.7526 -16.051996,11.3309 0.353,0.8716 0.882,1.9175 1.588,2.6148 0.705,0.6973 1.764,1.2203 2.998,1.7432 0.706,0.3487 1.588,0.523 2.646,0.6973 1.588,0.3486 3.174996,0.6973 4.762996,1.0459 0.529,0.1744 1.235,0.3487 1.764,0.523 5.645,1.9175 11.113,4.7067 16.052,8.3674 0.529,0.523 1.235,0.872 1.764,1.395 1.411,1.22 2.823,2.44 4.057,3.66 0.53,0.523 1.059,1.221 1.764,1.744 4.234,4.532 7.762,9.587 10.231,15.166 0.706,1.568 1.235,3.137 1.764,4.706 1.059,3.138 1.588,6.276 1.941,9.414 0.176,1.394 0.176,2.614 0.176,4.009 0,0.523 0,1.22 0,1.743 -0.176,3.138 -0.882,6.45 -1.94,9.588 0,0.174 0,0.174 -0.177,0.348 -0.529,1.395 -1.058,2.79 -1.764,4.184 -0.352,0.523 -0.529,1.22 -0.882,1.743 -0.352,0.523 -0.705,1.221 -1.058,1.744 -3.528,5.404 -8.467,9.587 -14.112,12.202 -0.529,0.349 -1.235,0.523 -1.764,0.697 -5.115,2.092 -10.584,2.964 -16.052,2.441 -0.529,0 -1.235,-0.174 -1.764,-0.174 -5.644996,-0.872 -11.112996,-3.138 -16.051996,-7.148 -0.529,-0.523 -1.235,-1.046 -1.764,-1.569 -0.882,-0.871 -1.764,-1.743 -2.646,-2.789 -0.176,-0.174 -0.353,-0.348 -0.529,-0.523 l -12.877,5.753 -1.764,0.872 -3.705,1.568 c -0.176,2.092 0,3.661 0.53,5.23 z"
     fill="#ffffff"
     stroke="#000000" stroke-opacity="0.15"
     stroke-width="2"
     stroke-miterlimit="10"
     stroke-linecap="round"
     stroke-linejoin="round"
     id="path8" />
  <path
     d="m 66.150054,175.645 v -6.101 l 1.764,-0.872 v 6.799 h 16.052 v -9.24 c 0.529,0.523 1.235,1.046 1.764,1.569 v 7.671 h 16.051996 v -0.698 c 0.529,0.175 1.235,0.175 1.764,0.175 v 0.523 h 16.052 v -2.79 c 0.529,-0.174 1.235,-0.523 1.764,-0.697 v 3.661 h 16.052 v -15.863 h -1.94 c 0.353,-0.523 0.705,-1.221 1.058,-1.744 h 0.882 v -1.743 c 0.706,-1.394 1.235,-2.789 1.764,-4.184 v 5.927 h 16.0524 v -15.863 h -14.1114 c 0,-0.523 0,-1.22 0,-1.743 h 13.935 v -15.863 h -16.052 v 2.266 c -0.529,-1.569 -1.059,-3.138 -1.764,-4.707 v -15.166 h -10.231 c -0.529,-0.523 -1.059,-1.22 -1.764,-1.743 h 11.818 V 89.3558 h -16.052 v 12.2022 c -0.529,-0.523 -1.235,-0.871 -1.764,-1.394 V 89.3558 h -16.052 v 2.2662 c -0.529,-0.1744 -1.235,-0.3487 -1.764,-0.523 v -0.6973 c 0.177,-0.3486 0.353,-0.6973 0.529,-1.0459 0.53,-0.523 0.882,-1.2202 1.235,-1.9175 v 0.1743 h 16.052 v -9.9363 c 0,0 0.177,0.1743 0.353,0.1743 0.529,0.3486 1.058,0.523 1.411,0.523 v 9.4133 h 16.052 v -0.3486 c 0.882,0.6973 1.764,1.3945 2.47,2.0918 h -0.706 v 15.8629 h 14.8178 c 0.3528,0.523 0.7056,1.221 1.0584,1.744 h -15.8762 V 123 h 16.0526 v -15.689 c 0.5292,1.046 1.2348,2.092 1.7639,3.138 V 123 h 4.9392 c 0.1764,0.523 0.3528,1.22 0.5292,1.743 h -5.4684 v 15.863 h 7.2323 c 0,0.523 0,1.22 0,1.743 h -7.2323 v 15.864 h 4.41 c -0.1764,0.523 -0.3528,1.22 -0.7056,1.743 h -3.7044 v 8.367 c -0.5291,1.046 -1.2347,2.092 -1.7639,3.138 V 160.13 h -16.0526 v 15.863 h 13.0538 c -0.5292,0.523 -0.882,1.221 -1.4112,1.744 h -11.6426 V 193.6 h 9.173 l 1.0584,1.743 h -10.0544 v 15.863 h 16.052 v -5.752 l 1.7639,3.138 v 2.614 h 1.5876 l 1.0584,1.744 h -2.4696 v 4.009 l -1.7639,0.174 v -4.706 h -16.0524 v 5.927 l -1.764,0.174 v -6.101 h -16.052 v 7.844 l -1.764,0.174 v -8.018 h -16.052 v 10.982 c 0,0.523 -0.353,0.871 -0.882,0.871 -0.529,0 -0.882,-0.348 -0.882,-0.871 v -10.982 h -5.820996 v -1.744 h 5.996996 V 194.82 H 88.199054 c -1.587,-0.523 -2.998,-1.046 -4.41,-1.743 h 0.353 v -15.863 h -16.052 v 5.229 c -0.706,-0.523 -1.235,-1.22 -1.764,-1.917 v -3.312 h -2.47 c -0.352,-0.523 -0.529,-1.221 -0.705,-1.743 h 2.999 z m 55.035996,35.038 h 16.052 V 194.82 h -16.052 z m 0,-17.606 h 16.052 v -15.863 h -16.052 z m -17.817,17.606 h 16.053 V 194.82 h -16.053 z m 0,-17.606 h 16.053 v -15.863 h -16.053 z m -17.638996,0 H 101.78205 V 177.214 H 85.730054 Z"
     fill="#000000" fill-opacity="0.15"
     id="path10" />
  <path
     d="m 105.83905,73.8428 c -11.642996,0 -14.640996,3.835 -19.050996,6.4499 -4.41,2.6148 -6.174,8.716 -6.174,8.716 0,0 -0.529,-2.4405 16.405,1.046"
     fill="#ffffff"
     id="path12" />
  <path
     d="m 105.83905,73.8428 c -11.642996,0 -14.640996,3.835 -19.050996,6.4499 -4.41,2.6148 -6.174,8.716 -6.174,8.716 0,0 -0.529,-2.4405 16.405,1.046"
     stroke="#000000" stroke-opacity="0.15"
     stroke-width="2"
     stroke-miterlimit="10"
     stroke-linecap="round"
     stroke-linejoin="round"
     id="path14" />
  <path
     d="m 82.377054,85.5196 c 2.294,-2.2661 7.938,-3.6607 7.938,-3.6607 z"
     fill="#ffffff"
     id="path16" />
  <path
     d="m 82.377054,85.5196 c 2.294,-2.2661 7.938,-3.6607 7.938,-3.6607"
     stroke="#000000" stroke-opacity="0.15"
     stroke-width="2"
     stroke-miterlimit="10"
     stroke-linecap="round"
     stroke-linejoin="round"
     id="path18" />
  <path
     d="m 112.01105,75.2358 -10.408,16.0376"
     stroke="#000000" stroke-opacity="0.15"
     stroke-width="2"
     stroke-miterlimit="10"
     stroke-linecap="round"
     stroke-linejoin="round"
     id="path20" />
  <ellipse
     cx="-105.68205"
     cy="153.436"
     rx="27"
     ry="26.684099"
     fill="#ffffff"
     stroke="#000000" stroke-opacity="0.15"
     stroke-width="2"
     stroke-miterlimit="10"
     stroke-linecap="round"
     stroke-linejoin="round"
     id="ellipse22"
     transform="scale(-1,1)" />
  <ellipse
     rx="2.8898098"
     ry="2.8694305"
     transform="matrix(-0.89701208,-0.44200604,-0.45040993,0.89282187,0,0)"
     fill="#000000" fill-opacity="0.15"
     id="ellipse24"
     cx="-161.86473"
     cy="89.688446" />
  <ellipse
     rx="2.8898299"
     ry="2.8694406"
     transform="matrix(-0.89701306,-0.44200403,-0.45041193,0.89282086,0,0)"
     fill="#000000" fill-opacity="0.15"
     id="ellipse26"
     cx="-147.41475"
     cy="95.427979" />
  <path
     d="m 103.68205,163.962 -12.725996,-2.62 -0.088,0.415 c -0.74,3.511 1.509,6.944 5.023,7.668 3.515,0.723 6.963996,-1.536 7.703996,-5.047 z"
     fill="#000000" fill-opacity="0.15"
     id="path28" />
  <path
     d="m 97.974054,166.63 c -1.229,-0.578 -1.506,-1.33 -1.551,-2.144 l 3.915996,0.806 c -0.267,1.072 -1.365996,1.807 -2.364996,1.338 z"
     fill="#ffffff"
     id="path30" />
  <ellipse
     rx="0.99771851"
     ry="0.99799806"
     transform="matrix(-0.68534732,0.72821634,0.73114794,0.68221894,0,0)"
     fill="#000000" fill-opacity="0.15"
     id="ellipse32"
     cx="35.51366"
     cy="195.87314" />
  <ellipse
     rx="0.99771851"
     ry="0.99799806"
     transform="matrix(-0.68534732,0.72821634,0.73114794,0.68221894,0,0)"
     fill="#000000" fill-opacity="0.15"
     id="ellipse34"
     cx="39.504284"
     cy="195.87309" />
  <ellipse
     rx="0.99771851"
     ry="0.99799806"
     transform="matrix(-0.68534732,0.72821634,0.73114794,0.68221894,0,0)"
     fill="#000000" fill-opacity="0.15"
     id="ellipse36"
     cx="39.503399"
     cy="191.88264" />
  <ellipse
     rx="0.99771851"
     ry="0.99799806"
     transform="matrix(-0.68534732,0.72821634,0.73114794,0.68221894,0,0)"
     fill="#000000" fill-opacity="0.15"
     id="ellipse38"
     cx="43.494953"
     cy="195.87445" />
  <ellipse
     rx="0.99771851"
     ry="0.99799806"
     transform="matrix(-0.68534732,0.72821634,0.73114794,0.68221894,0,0)"
     fill="#000000" fill-opacity="0.15"
     id="ellipse40"
     cx="43.494022"
     cy="191.8826" />
  <path
     d="m 134.45905,150.679 c 1.18,3.665 -0.635,7.521 -4.053,8.612 -3.419,1.091 -7.691,-12.184 -4.273,-13.275 3.419,-1.091 7.146,0.997 8.326,4.663 z"
     fill="#ffffff"
     id="path42" />
  <path
     d="m 130.40605,159.291 c 3.418,-1.091 5.233,-4.947 4.053,-8.612 -1.18,-3.666 -4.907,-5.754 -8.326,-4.663"
     stroke="#000000" stroke-opacity="0.15"
     stroke-width="2"
     id="path44" />
  <path
     d="m 129.54505,154.345 c 1.178,-0.376 1.804,-1.705 1.397,-2.969 -0.406,-1.264 -1.692,-1.983 -2.87,-1.607"
     stroke="#000000" stroke-opacity="0.15"
     stroke-width="2"
     id="path46" />
  <path
     d="m 91.682054,140.126 c -3.833,-1.162 -11.5,-4.978 -11.5,-10.953 0,-5.974 6.667,-5.808 10,-4.978 -0.166,-2.49 1.2,-7.767 8,-8.962 6.799996,-1.195 9.499996,3.817 9.999996,6.472 0.834,-1.327 3.3,-3.584 6.5,-1.991 3.2,1.593 2.667,4.647 2,5.974 2.167,-0.166 6.8,1.593 8,9.957"
     stroke="#000000" stroke-opacity="0.15"
     stroke-width="2"
     id="path48" />
</svg>
