<svg width="230" height="127" viewBox="0 0 230 127" fill="none" xmlns="http://www.w3.org/2000/svg">
<rect opacity="0.3" width="230" height="127" rx="10" fill="#C4C4C4"/>
<path fill-rule="evenodd" clip-rule="evenodd" d="M84.5 29.5C100.792 29.5 114 16.2924 114 0H106C106 11.8741 96.3741 21.5 84.5 21.5H38.5C25.5213 21.5 15 32.0213 15 45C15 57.9787 25.5213 68.5 38.5 68.5H48.089C48.3969 70.2672 49.4864 71.8258 51.0861 72.7145L59.2045 77.2247C63.6612 79.7007 68.6755 81 73.7738 81H83C85.7614 81 88 78.7614 88 76H102V70H88V58H102V52H88C88 49.2386 85.7614 47 83 47H73.7738C68.6755 47 63.6612 48.2993 59.2045 50.7753L51.0861 55.2855C49.1902 56.3388 48.011 58.3327 48.0001 60.5H38.5C29.9396 60.5 23 53.5604 23 45C23 36.4396 29.9396 29.5 38.5 29.5H84.5Z" fill="url(#paint0_linear)"/>
<path fill-rule="evenodd" clip-rule="evenodd" d="M160.977 68C160.802 69.9704 159.663 71.7428 157.914 72.7145L149.796 77.2247C145.339 79.7007 140.325 81 135.226 81H126C123.239 81 121 78.7614 121 76V52C121 49.2386 123.239 47 126 47H135.226C140.325 47 145.339 48.2993 149.796 50.7753L157.914 55.2855C159.663 56.2572 160.802 58.0296 160.977 60H195.601C206.039 60 214.5 68.4614 214.5 78.8991C214.5 90.5528 205.053 100 193.399 100H169.5C154.588 100 142.5 112.088 142.5 127H134.5C134.5 107.67 150.17 92 169.5 92H193.399C200.635 92 206.5 86.1345 206.5 78.8991C206.5 72.8797 201.62 68 195.601 68H160.977Z" fill="url(#paint1_linear)"/>
<defs>
<linearGradient id="paint0_linear" x1="64.5" y1="0" x2="64.5" y2="81" gradientUnits="userSpaceOnUse">
<stop stop-color="#AAEA39"/>
<stop offset="1" stop-color="#86EC16"/>
</linearGradient>
<linearGradient id="paint1_linear" x1="167.75" y1="47" x2="167.75" y2="127" gradientUnits="userSpaceOnUse">
<stop stop-color="#9BA3A2"/>
<stop offset="1" stop-color="#626A69"/>
</linearGradient>
</defs>
</svg>
