<svg width="184" height="151" viewBox="0 0 184 151" fill="none" xmlns="http://www.w3.org/2000/svg">
<circle r="29.356" transform="matrix(-1 0 0 1 80.9487 56.7231)" fill="white" stroke="black" stroke-width="2"/>
<path d="M73.2789 70.1312C73.2789 72.0438 71.4391 73.5193 69.2051 73.5193C66.9055 73.4646 65.1314 71.9892 65.1314 70.1312L65 68L73.1475 68.0546L73.2789 70.1312Z" fill="black"/>
<path d="M67.1812 72.4663C68.4276 72.5183 69.4144 71.5315 69.4663 70.2851C69.5183 69.0387 68.5315 68.0519 67.2851 68C67.2332 68 67.2332 68 67.1812 68C65.9348 68.0519 65 69.0387 65 70.2851C65.0519 71.4796 65.9867 72.4144 67.1812 72.4663Z" fill="white"/>
<path d="M73.2789 70.1312C73.2789 72.0438 71.4391 73.5193 69.2051 73.5193C66.9055 73.4646 65.1314 71.9892 65.1314 70.1312L65 68L73.1475 68.0546L73.2789 70.1312Z" stroke="black" stroke-width="2" stroke-miterlimit="10"/>
<circle r="3.21957" transform="matrix(-1 0 0 1 73.132 57.1844)" fill="black"/>
<circle r="2.75963" transform="matrix(-1 0 0 1 60.7091 56.7245)" fill="black"/>
<path d="M94.5908 66.6308C98.3963 66.4396 101.326 63.1998 101.135 59.3943C100.944 55.5888 97.7041 52.6588 93.8987 52.85" stroke="black" stroke-width="2"/>
<path d="M93.9003 62.0641C95.4225 61.9876 96.6048 60.8973 96.5411 59.6288C96.4774 58.3603 95.1918 57.394 93.6696 57.4705" stroke="black" stroke-width="2"/>
<path d="M58.2544 11.1631C50.201 26.0199 66.796 34.6864 76.1002 37.1626C100.2 54.4956 148.765 85.7659 150.229 72.1825C152.059 55.2032 149.771 28.6732 145.195 22.8365C140.62 16.9999 133.298 11.1631 119.571 18.5917C105.843 26.0203 93.0309 18.5915 88.4551 11.1631C83.8793 3.73468 68.3212 -7.40796 58.2544 11.1631Z" fill="white"/>
<path d="M76.1002 37.4511C66.796 34.9552 50.201 26.2196 58.2544 11.2442C68.3213 -7.47504 83.8793 3.75649 88.4551 11.2442C93.0309 18.7319 105.843 26.22 119.571 18.7321C133.298 11.2442 140.62 17.1276 145.195 23.0108C149.771 28.8939 152.059 55.6357 150.229 72.7504" stroke="black" stroke-width="2"/>
<path d="M113.104 48.1768L98.4433 41.4419L96.8073 62.4239L107.154 64.8643C108.961 77.7079 98.682 87.4656 93.3168 90.739L87.0578 81.9735L70.3598 95.347L80.3511 104.056C83.4117 106.724 87.5403 108.082 91.4077 106.846C112.953 99.9596 119.139 75.1723 119.69 58.2744C119.833 53.8832 117.097 50.0109 113.104 48.1768Z" fill="#86EC16"/>
<path d="M145.717 135.937L146.441 150.919L146.995 150.892L147.546 150.825L145.717 135.937ZM137.893 64.0224C129.621 63.5699 122.548 69.9088 122.096 78.1807C121.643 86.4526 127.982 93.5251 136.254 93.9776L137.893 64.0224ZM104.924 92.1311C102.746 96.5787 101.451 102.166 101.1 107.702C100.739 113.371 101.292 120.142 103.857 126.79C106.495 133.625 111.279 140.305 119.005 144.952C126.627 149.536 135.916 151.428 146.441 150.919L144.994 120.954C138.833 121.252 135.801 120.046 134.467 119.244C133.238 118.504 132.431 117.507 131.846 115.99C131.188 114.286 130.885 112.028 131.039 109.604C131.113 108.44 131.284 107.397 131.485 106.565C131.698 105.686 131.885 105.288 131.867 105.325L104.924 92.1311ZM147.546 150.825C160.829 149.193 171.723 143.361 178.196 133.381C184.479 123.692 185.059 112.443 182.762 102.804C178.356 84.3123 161.617 65.3201 137.893 64.0224L136.254 93.9776C144.096 94.4066 151.596 101.437 153.579 109.758C154.477 113.526 153.788 115.882 153.026 117.057C152.452 117.942 150.523 120.234 143.889 121.049L147.546 150.825Z" fill="black"/>
<path fill-rule="evenodd" clip-rule="evenodd" d="M126.404 56.9395C128.719 56.5286 130.929 58.0722 131.34 60.3873L133.2 70.8685L133.204 70.8686C133.41 71.585 133.887 72.4925 134.463 73.5862C136.502 77.4639 139.774 83.6829 136.569 92.03C132.586 102.403 129.884 108.953 129.884 108.953L105.649 98.9431C105.891 98.2996 106.143 97.706 106.402 97.1567L95.6431 91.6228C93.5885 90.5661 92.7796 88.0438 93.8363 85.9892C94.8931 83.9347 97.4153 83.1258 99.4699 84.1825L111.519 90.3799L111.58 90.3154L97.8135 83.2346C95.8251 82.2119 95.0423 79.7709 96.065 77.7825C97.0877 75.7941 99.5286 75.0113 101.517 76.034L115.099 83.0196L115.127 82.9531L100.474 75.4164C98.6446 74.4757 97.9245 72.2303 98.8652 70.4012C99.806 68.5721 102.051 67.852 103.88 68.7928L117.998 76.0538L118.016 76.0095L105.773 69.7127C103.944 68.7717 103.223 66.5257 104.164 64.6962C105.105 62.8667 107.351 62.1464 109.181 63.0874L123.763 70.5879L124.507 70.61L122.956 61.8752C122.546 59.5602 124.089 57.3504 126.404 56.9395Z" fill="white"/>
<path d="M131.34 60.3873L132.325 60.2125L131.34 60.3873ZM133.2 70.8685L133.171 71.868L132.358 71.8439L132.216 71.0432L133.2 70.8685ZM133.204 70.8686L133.233 69.869L133.962 69.8907L134.164 70.5917L133.204 70.8686ZM134.463 73.5862L133.578 74.0518L133.578 74.0518L134.463 73.5862ZM136.569 92.03L135.635 91.6715L136.569 92.03ZM129.884 108.953L130.808 109.334L130.427 110.259L129.502 109.877L129.884 108.953ZM105.649 98.9431L105.267 99.8674L104.373 99.4978L104.713 98.5914L105.649 98.9431ZM106.402 97.1567L106.86 96.2674L107.719 96.7094L107.307 97.5833L106.402 97.1567ZM95.6431 91.6228L95.1857 92.5121L95.6431 91.6228ZM93.8363 85.9892L92.9471 85.5319L92.9471 85.5319L93.8363 85.9892ZM99.4699 84.1825L99.0125 85.0718L99.4699 84.1825ZM111.519 90.3799L112.245 91.0676L111.729 91.6124L111.062 91.2692L111.519 90.3799ZM111.58 90.3154L112.038 89.4261L113.223 90.0356L112.306 91.0031L111.58 90.3154ZM97.8135 83.2346L97.3561 84.1238L97.3561 84.1238L97.8135 83.2346ZM96.065 77.7825L96.9542 78.2399L96.9542 78.2399L96.065 77.7825ZM101.517 76.034L101.06 76.9233L101.517 76.034ZM115.099 83.0196L116.02 83.4083L115.601 84.4024L114.641 83.9089L115.099 83.0196ZM115.127 82.9531L115.584 82.0638L116.408 82.4878L116.048 83.3417L115.127 82.9531ZM100.474 75.4164L100.931 74.5272L100.474 75.4164ZM98.8652 70.4012L97.976 69.9438L97.976 69.9438L98.8652 70.4012ZM103.88 68.7928L103.423 69.682L103.88 68.7928ZM117.998 76.0538L118.924 76.4305L118.512 77.443L117.54 76.9431L117.998 76.0538ZM118.016 76.0095L118.473 75.1203L119.287 75.5387L118.942 76.3862L118.016 76.0095ZM105.773 69.7127L105.316 70.6019L105.773 69.7127ZM104.164 64.6962L105.054 65.1536L105.054 65.1536L104.164 64.6962ZM109.181 63.0874L109.638 62.1981L109.638 62.1981L109.181 63.0874ZM123.763 70.5879L123.734 71.5874L123.507 71.5807L123.306 71.4771L123.763 70.5879ZM124.507 70.61L125.491 70.4352L125.706 71.6461L124.477 71.6095L124.507 70.61ZM122.956 61.8752L121.972 62.05L122.956 61.8752ZM130.355 60.562C130.041 58.7908 128.35 57.6097 126.579 57.9241L126.23 55.9549C129.088 55.4475 131.817 57.3537 132.325 60.2125L130.355 60.562ZM132.216 71.0432L130.355 60.562L132.325 60.2125L134.185 70.6937L132.216 71.0432ZM133.174 71.8681L133.171 71.868L133.23 69.8689L133.233 69.869L133.174 71.8681ZM133.578 74.0518C133.023 72.9981 132.484 71.9839 132.243 71.1454L134.164 70.5917C134.336 71.1861 134.751 71.9868 135.348 73.1207L133.578 74.0518ZM135.635 91.6715C138.67 83.7689 135.607 77.9104 133.578 74.0518L135.348 73.1207C137.398 77.0175 140.878 83.5969 137.502 92.3884L135.635 91.6715ZM129.884 108.953C128.96 108.571 128.96 108.571 128.96 108.571C128.96 108.571 128.96 108.571 128.96 108.571C128.96 108.571 128.96 108.571 128.96 108.57C128.96 108.569 128.961 108.568 128.961 108.567C128.963 108.564 128.965 108.559 128.967 108.553C128.972 108.54 128.98 108.521 128.99 108.496C129.011 108.446 129.042 108.371 129.083 108.272C129.164 108.073 129.285 107.778 129.442 107.39C129.757 106.616 130.218 105.475 130.804 104.01C131.976 101.08 133.646 96.8532 135.635 91.6715L137.502 92.3884C135.509 97.5798 133.836 101.815 132.661 104.752C132.074 106.221 131.611 107.366 131.295 108.144C131.137 108.533 131.015 108.83 130.933 109.03C130.892 109.13 130.861 109.206 130.84 109.257C130.83 109.282 130.822 109.301 130.817 109.314C130.814 109.321 130.812 109.326 130.811 109.329C130.81 109.331 130.809 109.332 130.809 109.333C130.809 109.333 130.809 109.333 130.809 109.334C130.809 109.334 130.809 109.334 130.808 109.334C130.808 109.334 130.808 109.334 129.884 108.953ZM106.031 98.0189L130.266 108.028L129.502 109.877L105.267 99.8674L106.031 98.0189ZM107.307 97.5833C107.059 98.1076 106.818 98.6762 106.585 99.2949L104.713 98.5914C104.964 97.9231 105.227 97.3045 105.498 96.7301L107.307 97.5833ZM96.1004 90.7336L106.86 96.2674L105.945 98.046L95.1857 92.5121L96.1004 90.7336ZM94.7256 86.4466C93.9214 88.0101 94.537 89.9294 96.1004 90.7336L95.1857 92.5121C92.6399 91.2027 91.6377 88.0776 92.9471 85.5319L94.7256 86.4466ZM99.0125 85.0718C97.4491 84.2676 95.5297 84.8832 94.7256 86.4466L92.9471 85.5319C94.2564 82.9861 97.3816 81.9839 99.9273 83.2932L99.0125 85.0718ZM111.062 91.2692L99.0125 85.0718L99.9273 83.2932L111.976 89.4906L111.062 91.2692ZM112.306 91.0031L112.245 91.0676L110.793 89.6922L110.854 89.6277L112.306 91.0031ZM98.2709 82.3453L112.038 89.4261L111.123 91.2046L97.3561 84.1238L98.2709 82.3453ZM96.9542 78.2399C96.1841 79.7372 96.7736 81.5752 98.2709 82.3453L97.3561 84.1238C94.8766 82.8485 93.9004 79.8046 95.1757 77.3251L96.9542 78.2399ZM101.06 76.9233C99.5624 76.1532 97.7243 76.7427 96.9542 78.2399L95.1757 77.3251C96.451 74.8456 99.4949 73.8694 101.974 75.1448L101.06 76.9233ZM114.641 83.9089L101.06 76.9233L101.974 75.1448L115.556 82.1304L114.641 83.9089ZM116.048 83.3417L116.02 83.4083L114.177 82.631L114.205 82.5645L116.048 83.3417ZM100.931 74.5272L115.584 82.0638L114.669 83.8424L100.016 76.3057L100.931 74.5272ZM99.7545 70.8586C99.0663 72.1965 99.5931 73.839 100.931 74.5272L100.016 76.3057C97.6961 75.1123 96.7826 72.264 97.976 69.9438L99.7545 70.8586ZM103.423 69.682C102.085 68.9939 100.443 69.5206 99.7545 70.8586L97.976 69.9438C99.1694 67.6236 102.018 66.7101 104.338 67.9035L103.423 69.682ZM117.54 76.9431L103.423 69.682L104.338 67.9035L118.455 75.1645L117.54 76.9431ZM118.942 76.3862L118.924 76.4305L117.071 75.6771L117.089 75.6329L118.942 76.3862ZM106.23 68.8234L118.473 75.1203L117.558 76.8988L105.316 70.6019L106.23 68.8234ZM105.054 65.1536C104.365 66.492 104.892 68.135 106.23 68.8234L105.316 70.6019C102.995 69.4083 102.081 66.5595 103.275 64.2388L105.054 65.1536ZM108.723 63.9767C107.385 63.2883 105.742 63.8152 105.054 65.1536L103.275 64.2388C104.469 61.9182 107.318 61.0045 109.638 62.1981L108.723 63.9767ZM123.306 71.4771L108.723 63.9767L109.638 62.1981L124.221 69.6986L123.306 71.4771ZM124.477 71.6095L123.734 71.5874L123.793 69.5883L124.537 69.6104L124.477 71.6095ZM123.941 61.7005L125.491 70.4352L123.522 70.7847L121.972 62.05L123.941 61.7005ZM126.579 57.9241C124.808 58.2385 123.627 59.9292 123.941 61.7005L121.972 62.05C121.464 59.1911 123.371 56.4623 126.23 55.9549L126.579 57.9241Z" fill="black"/>
<circle cx="80.0293" cy="64.0839" r="0.919877" fill="black"/>
<circle cx="83.7089" cy="63.1621" r="0.919877" fill="black"/>
<circle cx="82.7871" cy="66.8457" r="0.919877" fill="black"/>
<circle cx="86.4707" cy="65.9238" r="0.919877" fill="black"/>
<circle cx="87.3886" cy="62.2441" r="0.919877" fill="black"/>
<circle cx="14.718" cy="85.6282" r="13.718" fill="#86EC16" stroke="black" stroke-width="2"/>
<path d="M8.27734 85.1547L13.6433 90.2279L26.6749 78.2695" stroke="black" stroke-width="2"/>
<circle cx="14.718" cy="33.1946" r="13.718" stroke="black" stroke-width="2"/>
<path d="M14.3864 36.965C13.5215 36.965 12.7982 36.7304 12.2164 36.2612C11.6346 35.7773 11.3437 35.1102 11.3437 34.2597C11.3437 33.5559 11.556 32.9767 11.9805 32.5222C12.4208 32.053 13.0891 31.6131 13.9854 31.2025C14.7087 30.88 15.2355 30.616 15.5657 30.4107C15.9116 30.2055 16.1475 30.0075 16.2733 29.8169C16.4148 29.6116 16.4856 29.3623 16.4856 29.0691C16.4856 28.5412 16.2969 28.138 15.9195 27.8594C15.5578 27.5808 15.0546 27.4415 14.4099 27.4415C13.152 27.4415 12.3343 28.1087 11.9569 29.443L10.1172 29.1351C10.3059 28.138 10.7776 27.3389 11.5324 26.7377C12.2872 26.1365 13.2778 25.8359 14.5043 25.8359C15.6679 25.8359 16.6035 26.1365 17.3111 26.7377C18.0344 27.3242 18.3961 28.094 18.3961 29.0471C18.3961 29.7656 18.1681 30.3521 17.7121 30.8066C17.2718 31.2465 16.4934 31.7157 15.377 32.2143C14.465 32.6395 13.8596 32.9914 13.5608 33.27C13.2621 33.5486 13.1127 33.8932 13.1127 34.3037C13.1127 34.6556 13.2228 34.9342 13.4429 35.1395C13.6788 35.3448 13.9775 35.4474 14.3392 35.4474C14.7637 35.4474 15.1097 35.3448 15.377 35.1395C15.66 34.9342 15.8802 34.6043 16.0374 34.1498L17.4998 34.6556C17.2639 35.4181 16.8787 35.9973 16.344 36.3932C15.8251 36.7744 15.1726 36.965 14.3864 36.965ZM14.4099 41.4739C13.9697 41.4739 13.608 41.3419 13.325 41.078C13.0419 40.814 12.9004 40.4841 12.9004 40.0882C12.9004 39.6777 13.0419 39.3404 13.325 39.0765C13.608 38.7979 13.9697 38.6586 14.4099 38.6586C14.8502 38.6586 15.2119 38.7979 15.4949 39.0765C15.778 39.3404 15.9195 39.6777 15.9195 40.0882C15.9195 40.4841 15.778 40.814 15.4949 41.078C15.2119 41.3419 14.8502 41.4739 14.4099 41.4739Z" fill="black"/>
<path d="M14.0116 64.2571C14.4022 64.6476 15.0353 64.6476 15.4259 64.2571L21.7898 57.8931C22.1803 57.5026 22.1803 56.8694 21.7898 56.4789C21.3993 56.0884 20.7661 56.0884 20.3756 56.4789L14.7188 62.1358L9.0619 56.4789C8.67137 56.0884 8.03821 56.0884 7.64768 56.4789C7.25716 56.8694 7.25716 57.5026 7.64768 57.8931L14.0116 64.2571ZM13.7188 46.9922V63.55H15.7188V46.9922H13.7188Z" fill="black"/>
</svg>
