<svg width="185" height="149" viewBox="0 0 185 149" fill="none" xmlns="http://www.w3.org/2000/svg">
<path d="M162.5 90.5H115L125 120L115 147.5H162.5L152.5 120L162.5 90.5Z" stroke="black" stroke-width="2"/>
<path fill-rule="evenodd" clip-rule="evenodd" d="M140.5 117.5H148.5L151 110.5H125.5L128.5 117.5H137.5V128.5H127L122 142.5H155.5L149.5 128.5H140.5V117.5Z" fill="#EC4916"/>
<path d="M166.988 72.5V85.5L171.488 91" stroke="black" stroke-width="2"/>
<path fill-rule="evenodd" clip-rule="evenodd" d="M152 85.5C152 76.9396 158.94 70 167.5 70C176.06 70 183 76.9396 183 85.5C183 91.4461 179.652 96.6121 174.735 99.2118L175.491 93.6344L173.509 93.3656L172.509 100.741L172.399 101.549L173.17 101.819L180.67 104.444L181.33 102.556L176.12 100.733C181.421 97.7264 185 92.0321 185 85.5C185 75.835 177.165 68 167.5 68C157.835 68 150 75.835 150 85.5H152Z" fill="black"/>
<circle cx="85" cy="53" r="32" fill="white" stroke="black" stroke-width="2"/>
<circle cx="86.5" cy="56.5" r="3.5" fill="black"/>
<path d="M79 47L93 49" stroke="black" stroke-width="2"/>
<circle cx="107" cy="53" r="3" fill="black"/>
<g filter="url(#filter0_d)">
<path d="M101 46.5L112 43" stroke="black" stroke-width="2"/>
</g>
<path d="M34.9979 117L29.5747 130.985L30.3712 131.294L31.1975 131.511L34.9979 117ZM82.9721 85.4219C83.4813 77.1533 77.191 70.0375 68.9224 69.5284C60.6538 69.0192 53.538 75.3095 53.0288 83.5781L82.9721 85.4219ZM8.44843 60.8597C6.71312 67.7963 2.76756 81.1728 3.32557 93.8473C3.62068 100.55 5.15883 108.069 9.52268 115.017C14.0069 122.157 20.7751 127.573 29.5747 130.985L40.4212 103.015C36.9716 101.677 35.6151 100.156 34.9275 99.0611C34.1196 97.7747 33.4389 95.7622 33.2965 92.5277C32.9795 85.3272 35.2842 77.2037 37.5516 68.1403L8.44843 60.8597ZM31.1975 131.511C50.3232 136.52 64.1029 126.205 71.6538 115.763C78.8095 105.868 82.4718 93.548 82.9721 85.4219L53.0288 83.5781C52.8621 86.2854 51.0231 93.0962 47.3443 98.1833C45.6325 100.55 44.0674 101.777 42.9178 102.321C42.0634 102.726 40.9151 103.044 38.7983 102.489L31.1975 131.511Z" fill="black"/>
<path d="M65.2628 62.3943C61.2509 61.3638 58.834 57.2761 59.8645 53.2642C60.8951 49.2523 64.9828 46.8354 68.9946 47.8659" stroke="black" stroke-width="2"/>
<path d="M66.9898 57.6751C65.3851 57.2629 64.3626 55.8446 64.7061 54.5073C65.0497 53.17 66.629 52.4201 68.2338 52.8323" stroke="black" stroke-width="2"/>
<path d="M93.279 39.1238C90.3597 39.1238 89.6298 35.9515 89.6298 34.3654C85.9805 34.1389 77.118 34.0935 70.8623 35.725C64.6065 37.3564 50.1836 45.9214 43.7541 50L33.8498 45.9214C31.9381 45.2416 33.8493 38.0362 33.8493 33.6857C33.8493 29.3352 37.6727 28.2476 39.5845 28.2476C38.7156 27.3412 37.1864 24.169 38.0205 18.7309C38.8546 13.2928 44.2763 13.746 46.8828 14.6523C47.2303 13.0662 48.551 9.89397 51.0533 9.89397C53.5556 9.89397 55.9186 12.1599 56.7873 13.2928C56.266 11.2535 57.3086 5.81525 60.9578 4.4559C63.8771 3.36842 66.3447 6.72182 67.2135 8.53445C67.2135 6.26859 68.1519 1.60089 71.9053 1.05691C75.6587 0.512935 77.2922 4.00248 77.6397 5.81525C78.6823 4.00255 81.3931 0.513102 83.8954 1.05691C86.3977 1.60072 87.3708 4.90924 87.5446 6.49553C88.2397 4.90941 90.4639 2.00909 93.8003 3.09671C97.1367 4.18433 97.2757 8.08139 96.9282 9.89397C98.1446 8.76103 101.307 6.90302 104.227 8.53445C107.146 10.1659 105.095 15.1055 103.705 17.3714C105.617 17.3714 109.544 18.323 109.961 22.1297C110.378 25.9364 107.354 27.7944 105.79 28.2476C106.138 30.2868 106.207 34.6373 103.705 35.725C101.203 36.8126 98.1446 35.2718 96.9282 34.3654C96.9282 35.9515 96.1983 39.1238 93.279 39.1238Z" fill="white"/>
<path d="M89.6298 34.4238C89.6298 36.0127 90.3597 39.1904 93.279 39.1904C96.1983 39.1904 96.9282 36.0127 96.9282 34.4238C98.1446 35.3317 101.203 36.8752 103.705 35.7857C106.207 34.6962 106.138 30.3381 105.79 28.2952C107.354 27.8413 110.378 25.98 109.961 22.1667C109.544 18.3533 105.617 17.4 103.705 17.4C105.095 15.1302 107.146 10.1819 104.227 8.54762C101.307 6.91334 98.1446 8.77461 96.9282 9.90953C97.2757 8.09378 97.1367 4.1899 93.8003 3.10038C90.4639 2.01086 88.2397 4.91625 87.5446 6.50514C87.3708 4.91608 86.3977 1.60177 83.8954 1.05701C81.3931 0.51225 78.6823 4.0078 77.6397 5.82367C77.2922 4.00773 75.6587 0.512083 71.9053 1.05701C68.1519 1.60194 67.2135 6.27781 67.2135 8.54762C66.3447 6.73182 63.8771 3.37257 60.9578 4.46195C57.3086 5.82367 56.266 11.2715 56.7873 13.3143C55.9186 12.1794 53.5556 9.90953 51.0533 9.90953C48.551 9.90953 47.2303 13.0873 46.8828 14.6762C44.2763 13.7683 38.8546 13.3143 38.0205 18.7619C37.1864 24.2095 38.7156 27.3873 39.5845 28.2952C37.6727 28.2952 33.8493 29.3848 33.8493 33.7429C33.8493 38.1009 31.9381 45.319 33.8498 46" stroke="black" stroke-width="2"/>
<path d="M68.1625 32.6373L80.4342 41.1382L64.1028 52.6051L57.115 45.3405C45.7623 50.0685 42.7634 63.1678 42.6831 69.1265L52.8582 70.0011L50.0086 90.0846L38.3916 86.2414C34.5369 84.9662 31.2556 82.1044 30.3892 78.1378C25.89 57.5387 42.7256 40.7527 56.1296 32.127C59.8243 29.7495 64.5508 30.1354 68.1625 32.6373Z" fill="#EC4916"/>
<path fill-rule="evenodd" clip-rule="evenodd" d="M51.4233 27.1395C50.0499 24.9838 47.189 24.3496 45.0333 25.7231L35.2743 31.9408L35.2706 31.937C34.5452 32.2986 33.4676 32.5837 32.1688 32.9274C27.5642 34.1458 20.1794 36.0998 15.8532 44.804C10.477 55.6208 7.22007 62.6004 7.22007 62.6004L33.0555 74.6432C33.393 73.9763 33.6829 73.3378 33.9322 72.7262L46.271 77.2696C48.6279 78.1375 51.2422 76.9303 52.1101 74.5734C52.9779 72.2164 51.7708 69.6022 49.4138 68.7343L35.5951 63.646L35.6017 63.5511L51.392 69.3654C53.673 70.2053 56.203 69.037 57.0429 66.756C57.8829 64.475 56.7146 61.945 54.4336 61.1051L38.8553 55.3689L38.8888 55.2955L55.6961 61.4843C57.7944 62.2569 60.1217 61.1823 60.8943 59.084C61.6669 56.9858 60.5923 54.6585 58.494 53.8858L42.3015 47.9234L42.323 47.878L56.3679 53.0496C58.4667 53.8224 60.7945 52.7475 61.5674 50.6487C62.3402 48.5499 61.2653 46.2221 59.1665 45.4493L42.4381 39.2895L41.8742 38.7111L50.007 33.5295C52.1626 32.1561 52.7968 29.2951 51.4233 27.1395Z" fill="white"/>
<path d="M35.2743 31.9408L34.5581 32.6387L35.1257 33.2212L35.8116 32.7842L35.2743 31.9408ZM35.2706 31.937L35.9868 31.2391L35.4775 30.7165L34.8245 31.042L35.2706 31.937ZM32.1688 32.9274L31.913 31.9606L31.913 31.9606L32.1688 32.9274ZM15.8532 44.804L14.9577 44.3589L14.9577 44.3589L15.8532 44.804ZM7.22007 62.6004L6.31387 62.1776L5.89085 63.0842L6.79758 63.5068L7.22007 62.6004ZM33.0555 74.6432L32.633 75.5496L33.5106 75.9587L33.9478 75.0947L33.0555 74.6432ZM33.9322 72.7262L34.2778 71.7878L33.3711 71.454L33.0063 72.3487L33.9322 72.7262ZM46.271 77.2696L45.9254 78.208L46.271 77.2696ZM52.1101 74.5734L51.1717 74.2278L51.1717 74.2278L52.1101 74.5734ZM49.4138 68.7343L49.7594 67.7959L49.4138 68.7343ZM35.5951 63.646L34.5975 63.5764L34.5454 64.3251L35.2496 64.5844L35.5951 63.646ZM35.6017 63.5511L35.9473 62.6127L34.6968 62.1522L34.6041 63.4815L35.6017 63.5511ZM51.392 69.3654L51.7376 68.427L51.392 69.3654ZM57.0429 66.756L57.9813 67.1016L57.0429 66.756ZM54.4336 61.1051L54.0881 62.0435L54.4336 61.1051ZM38.8553 55.3689L37.9458 54.9532L37.4973 55.9345L38.5098 56.3073L38.8553 55.3689ZM38.8888 55.2955L39.2344 54.3571L38.3647 54.0369L37.9794 54.8798L38.8888 55.2955ZM55.6961 61.4843L56.0416 60.5459L55.6961 61.4843ZM58.494 53.8858L58.8396 52.9474L58.494 53.8858ZM42.3015 47.9234L41.3975 47.496L40.9303 48.4841L41.956 48.8618L42.3015 47.9234ZM42.323 47.878L42.6685 46.9396L41.81 46.6234L41.419 47.4505L42.323 47.878ZM56.3679 53.0496L56.7134 52.1112L56.3679 53.0496ZM61.5674 50.6487L60.629 50.3032L60.629 50.3032L61.5674 50.6487ZM59.1665 45.4493L59.512 44.5109L59.512 44.5109L59.1665 45.4493ZM42.4381 39.2895L41.722 39.9875L41.88 40.1497L42.0925 40.2279L42.4381 39.2895ZM41.8742 38.7111L41.3369 37.8677L40.2997 38.5285L41.1582 39.4091L41.8742 38.7111ZM45.5706 26.5665C47.2605 25.4898 49.5033 25.9869 50.58 27.6768L52.2667 26.6021C50.5965 23.9807 47.1174 23.2095 44.4959 24.8797L45.5706 26.5665ZM35.8116 32.7842L45.5706 26.5665L44.4959 24.8797L34.737 31.0974L35.8116 32.7842ZM34.5544 32.6349L34.5581 32.6387L35.9905 31.2429L35.9868 31.2391L34.5544 32.6349ZM32.4246 33.8941C33.6796 33.562 34.8776 33.2502 35.7167 32.832L34.8245 31.042C34.2128 31.3469 33.2556 31.6054 31.913 31.9606L32.4246 33.8941ZM16.7487 45.249C20.863 36.9712 27.8409 35.107 32.4247 33.8941L31.913 31.9606C27.2875 33.1846 19.4958 35.2285 14.9577 44.3589L16.7487 45.249ZM7.22007 62.6004C8.12627 63.0233 8.12627 63.0233 8.12629 63.0233C8.12631 63.0232 8.12634 63.0232 8.12638 63.0231C8.12647 63.0229 8.12661 63.0226 8.1268 63.0222C8.12717 63.0214 8.12775 63.0201 8.12852 63.0185C8.13006 63.0152 8.1324 63.0102 8.13552 63.0035C8.14176 62.9902 8.15114 62.9701 8.16364 62.9434C8.18863 62.89 8.22606 62.8101 8.27566 62.7045C8.37486 62.4933 8.5227 62.1792 8.71699 61.7683C9.10556 60.9466 9.67986 59.7379 10.4221 58.1912C11.9066 55.0977 14.0629 50.6528 16.7487 45.249L14.9577 44.3589C12.2673 49.7719 10.107 54.2252 8.619 57.3259C7.87499 58.8762 7.29905 60.0884 6.90894 60.9134C6.71389 61.3259 6.56529 61.6416 6.46537 61.8543C6.41541 61.9607 6.37762 62.0413 6.35228 62.0955C6.33961 62.1225 6.33005 62.143 6.32364 62.1567C6.32043 62.1636 6.31801 62.1687 6.31638 62.1722C6.31557 62.174 6.31495 62.1753 6.31453 62.1762C6.31432 62.1766 6.31416 62.177 6.31405 62.1772C6.314 62.1773 6.31395 62.1774 6.31393 62.1775C6.31389 62.1775 6.31387 62.1776 7.22007 62.6004ZM33.478 73.7369L7.64256 61.6941L6.79758 63.5068L32.633 75.5496L33.478 73.7369ZM33.0063 72.3487C32.7674 72.9346 32.4888 73.5484 32.1633 74.1917L33.9478 75.0947C34.2972 74.4041 34.5984 73.741 34.8582 73.1038L33.0063 72.3487ZM46.6165 76.3312L34.2778 71.7878L33.5867 73.6646L45.9254 78.208L46.6165 76.3312ZM51.1717 74.2278C50.4946 76.0665 48.4552 77.0082 46.6165 76.3312L45.9254 78.208C48.8007 79.2667 51.9897 77.7942 53.0485 74.9189L51.1717 74.2278ZM49.0683 69.6727C50.907 70.3497 51.8487 72.3892 51.1717 74.2278L53.0485 74.9189C54.1072 72.0437 52.6346 68.8546 49.7594 67.7959L49.0683 69.6727ZM35.2496 64.5844L49.0683 69.6727L49.7594 67.7959L35.9406 62.7075L35.2496 64.5844ZM34.6041 63.4815L34.5975 63.5764L36.5927 63.7155L36.5993 63.6206L34.6041 63.4815ZM51.7376 68.427L35.9473 62.6127L35.2562 64.4895L51.0465 70.3038L51.7376 68.427ZM56.1045 66.4105C55.4555 68.1732 53.5003 69.076 51.7376 68.427L51.0465 70.3038C53.8458 71.3345 56.9506 69.9009 57.9813 67.1016L56.1045 66.4105ZM54.0881 62.0435C55.8508 62.6926 56.7536 64.6478 56.1045 66.4105L57.9813 67.1016C59.0121 64.3023 57.5784 61.1975 54.7792 60.1667L54.0881 62.0435ZM38.5098 56.3073L54.0881 62.0435L54.7792 60.1667L39.2009 54.4305L38.5098 56.3073ZM37.9794 54.8798L37.9458 54.9532L39.7648 55.7846L39.7983 55.7113L37.9794 54.8798ZM56.0416 60.5459L39.2344 54.3571L38.5433 56.2339L55.3506 62.4227L56.0416 60.5459ZM59.9559 58.7385C59.3741 60.3185 57.6216 61.1277 56.0416 60.5459L55.3506 62.4227C57.9671 63.3862 60.8692 62.0461 61.8327 59.4296L59.9559 58.7385ZM58.1485 54.8242C59.7285 55.406 60.5377 57.1585 59.9559 58.7385L61.8327 59.4296C62.7962 56.813 61.4561 53.9109 58.8396 52.9474L58.1485 54.8242ZM41.956 48.8618L58.1485 54.8242L58.8396 52.9474L42.647 46.985L41.956 48.8618ZM41.419 47.4505L41.3975 47.496L43.2056 48.3509L43.227 48.3054L41.419 47.4505ZM56.7134 52.1112L42.6685 46.9396L41.9775 48.8164L56.0224 53.988L56.7134 52.1112ZM60.629 50.3032C60.047 51.8837 58.2939 52.6932 56.7134 52.1112L56.0224 53.988C58.6394 54.9516 61.5421 53.6113 62.5058 50.9943L60.629 50.3032ZM58.821 46.3877C60.4015 46.9696 61.2109 48.7227 60.629 50.3032L62.5058 50.9943C63.4694 48.3772 62.1291 45.4745 59.512 44.5109L58.821 46.3877ZM42.0925 40.2279L58.821 46.3877L59.512 44.5109L42.7836 38.3511L42.0925 40.2279ZM41.1582 39.4091L41.722 39.9875L43.1541 38.5915L42.5903 38.0131L41.1582 39.4091ZM49.4696 32.6861L41.3369 37.8677L42.4115 39.5545L50.5443 34.3729L49.4696 32.6861ZM50.58 27.6768C51.6566 29.3667 51.1595 31.6095 49.4696 32.6861L50.5443 34.3729C53.1658 32.7027 53.9369 29.2236 52.2667 26.6021L50.58 27.6768Z" fill="black"/>
<path d="M95.1795 74C94.3462 72.3333 96.1797 65.5 105.681 65" stroke="black" stroke-width="2"/>
<defs>
<filter id="filter0_d" x="96.6953" y="42.0469" width="19.6064" height="13.4059" filterUnits="userSpaceOnUse" color-interpolation-filters="sRGB">
<feFlood flood-opacity="0" result="BackgroundImageFix"/>
<feColorMatrix in="SourceAlpha" type="matrix" values="0 0 0 0 0 0 0 0 0 0 0 0 0 0 0 0 0 0 127 0"/>
<feOffset dy="4"/>
<feGaussianBlur stdDeviation="2"/>
<feColorMatrix type="matrix" values="0 0 0 0 0 0 0 0 0 0 0 0 0 0 0 0 0 0 0.25 0"/>
<feBlend mode="normal" in2="BackgroundImageFix" result="effect1_dropShadow"/>
<feBlend mode="normal" in="SourceGraphic" in2="effect1_dropShadow" result="shape"/>
</filter>
</defs>
</svg>
