<svg width="553" height="446" viewBox="0 0 553 446" fill="none" xmlns="http://www.w3.org/2000/svg">
<path d="M409 73.5264C420.973 40.9211 404.947 15.3158 377.315 4.81585C349.684 -5.68415 318.921 7.94742 308.052 35.2106L409 73.5264Z" fill="white" stroke="black" stroke-width="2" stroke-miterlimit="10" stroke-linecap="round" stroke-linejoin="round"/>
<path d="M211.895 232.869L61.2104 302.869L0.420898 171.895L145.026 104.842L211.895 232.869Z" fill="#9EE84C"/>
<path d="M504.974 266.395H273.421V398.289H504.974V266.395Z" fill="white" stroke="black" stroke-width="2" stroke-miterlimit="10" stroke-linecap="round" stroke-linejoin="round"/>
<path d="M483.79 275.974H438.658V374.895H483.79V275.974Z" fill="white" stroke="black" stroke-width="2" stroke-miterlimit="10" stroke-linecap="round" stroke-linejoin="round"/>
<path d="M428.527 275.974H383.395V374.895H428.527V275.974Z" fill="white" stroke="black" stroke-width="2" stroke-miterlimit="10" stroke-linecap="round" stroke-linejoin="round"/>
<path d="M374.737 275.974H329.605V374.895H374.737V275.974Z" fill="white" stroke="black" stroke-width="2" stroke-miterlimit="10" stroke-linecap="round" stroke-linejoin="round"/>
<path d="M204.75 52.4195C209.211 60.0036 204.378 64.8738 201.404 66.3609L188.02 91.4554C167.944 97.5896 159.022 80.3022 167.944 64.1302C176.867 47.9582 199.173 42.9393 204.75 52.4195Z" fill="white"/>
<path d="M547.71 267.132L353.368 357.21L239.158 111.105L425.395 24.7104L441.605 38.5262L547.71 267.132Z" fill="#9EE84C"/>
<path d="M551.211 254.053L169.711 431.079L55.5 184.79L421.342 15.1316L445.105 25.4474L551.211 254.053Z" fill="white" stroke="black" stroke-width="2" stroke-miterlimit="10" stroke-linecap="round" stroke-linejoin="round"/>
<path d="M360.552 342.474L246.342 96.3684L51.6313 197.132L166.763 444.895L360.552 342.474Z" fill="white" stroke="black" stroke-width="2" stroke-miterlimit="10" stroke-linecap="round" stroke-linejoin="round"/>
<path d="M320.026 113.316L402.737 75" stroke="black" stroke-width="2" stroke-miterlimit="10" stroke-linecap="round" stroke-linejoin="round"/>
<path d="M332.552 140.395L415.263 101.895" stroke="black" stroke-width="2" stroke-miterlimit="10" stroke-linecap="round" stroke-linejoin="round"/>
<path d="M345.079 167.289L427.789 128.974" stroke="black" stroke-width="2" stroke-miterlimit="10" stroke-linecap="round" stroke-linejoin="round"/>
<path d="M431.105 177.789C443.447 172.079 455.973 166.368 468.316 160.474" stroke="black" stroke-width="2" stroke-miterlimit="10" stroke-linecap="round" stroke-linejoin="round"/>
<path d="M412.131 186.632C415.816 184.974 419.5 183.132 423.184 181.474" stroke="black" stroke-width="2" stroke-miterlimit="10" stroke-linecap="round" stroke-linejoin="round"/>
<path d="M421.895 207.447L477.895 181.474" stroke="black" stroke-width="2" stroke-miterlimit="10" stroke-linecap="round" stroke-linejoin="round"/>
<path d="M431.657 228.263C443.447 222.737 455.236 217.211 467.21 211.868" stroke="black" stroke-width="2" stroke-miterlimit="10" stroke-linecap="round" stroke-linejoin="round"/>
<path d="M399.347 192.477L337.849 221.003L370.018 290.356L431.516 261.83L399.347 192.477Z" fill="black"/>
<path d="M414.532 36.3157L320.947 79.7246L324.435 87.2448L418.02 43.836L414.532 36.3157Z" fill="black"/>
<path d="M367 266.395L374 246.5L387.816 248.342L398.5 218.316" stroke="white" stroke-width="2" stroke-miterlimit="10" stroke-linecap="round" stroke-linejoin="round"/>
<path d="M225.056 140.321L53.4277 219.93L114.975 352.62L286.603 273.011L225.056 140.321Z" fill="white" stroke="black" stroke-width="2" stroke-miterlimit="10" stroke-linecap="round" stroke-linejoin="round"/>
<path d="M158.912 196.585L107.106 220.615L125.71 260.723L177.516 236.693L158.912 196.585Z" stroke="black" stroke-width="2" stroke-miterlimit="10" stroke-linecap="round" stroke-linejoin="round"/>
<path d="M165.658 183.5L118.868 273.763" stroke="black" stroke-width="2" stroke-miterlimit="10" stroke-linecap="round" stroke-linejoin="round"/>
<path d="M133.789 278.184L171.736 260.5" stroke="black" stroke-width="2" stroke-miterlimit="10" stroke-linecap="round" stroke-linejoin="round"/>
<path d="M139.868 291.079L177.631 273.395" stroke="black" stroke-width="2" stroke-miterlimit="10" stroke-linecap="round" stroke-linejoin="round"/>
<path d="M145.763 303.974L183.711 286.29" stroke="black" stroke-width="2" stroke-miterlimit="10" stroke-linecap="round" stroke-linejoin="round"/>
<path d="M325.184 124.368L419.5 80.5262C428.342 76.4736 438.658 80.342 442.71 88.9999C446.763 97.842 442.895 108.158 434.237 112.21L321.868 164.342C313.026 168.395 302.71 164.526 298.658 155.868C294.605 147.026 298.474 136.71 307.132 132.658" stroke="black" stroke-width="2" stroke-miterlimit="10" stroke-linecap="round" stroke-linejoin="round"/>
<path d="M189.605 348.737L283.368 305.079" stroke="black" stroke-width="2" stroke-miterlimit="10" stroke-linecap="round" stroke-linejoin="round"/>
<path d="M195.868 362.184L289.631 318.711" stroke="black" stroke-width="2" stroke-miterlimit="10" stroke-linecap="round" stroke-linejoin="round"/>
<path d="M281.342 338.974C286.131 336.763 291.105 334.553 295.894 332.158" stroke="black" stroke-width="2" stroke-miterlimit="10" stroke-linecap="round" stroke-linejoin="round"/>
<path d="M202.131 375.816C225.158 365.684 250.21 354.079 273.421 342.842" stroke="black" stroke-width="2" stroke-miterlimit="10" stroke-linecap="round" stroke-linejoin="round"/>
<path d="M421.342 15.1316L430 33.7368L445.658 26.5526" stroke="black" stroke-width="2" stroke-miterlimit="10" stroke-linecap="round" stroke-linejoin="round"/>
<path d="M327.026 145.368C328.349 145.368 329.421 144.296 329.421 142.974C329.421 141.651 328.349 140.579 327.026 140.579C325.704 140.579 324.631 141.651 324.631 142.974C324.631 144.296 325.704 145.368 327.026 145.368Z" fill="#9EE84C"/>
<path d="M280.789 147.947C284.105 144.263 289.631 138.553 291.105 141.132C292.579 143.71 283.921 151.632 283.921 151.632" fill="white"/>
<path d="M280.789 147.947C284.105 144.263 289.631 138.553 291.105 141.132C292.579 143.71 283.921 151.632 283.921 151.632" stroke="black" stroke-width="2" stroke-miterlimit="10" stroke-linecap="round" stroke-linejoin="round"/>
<path d="M192.553 114.789C192.553 115.342 192.369 116.079 192.184 116.632C192.184 116.632 192.184 116.816 192 117C191.632 118.474 190.711 119.763 189.605 120.868C188.684 121.605 187.763 122.342 186.474 122.895C186.29 123.079 186.105 123.079 185.921 123.079C185.553 123.263 185.184 123.447 184.632 123.632C181.684 124.737 179.105 126.211 176.711 128.053C175.974 128.605 175.053 129.158 174.316 129.895C173.948 130.079 173.579 130.447 173.395 130.816C172.658 131.368 172.105 132.105 171.553 132.658C170.263 134.132 168.974 135.421 168.053 137.079C167.132 138.368 166.395 139.842 165.658 141.132C165.29 141.684 165.105 142.421 164.737 142.974C163.263 146.474 162.342 150.342 162.158 154.211C162.158 154.763 162.158 155.5 162.158 156.053C162.158 159.737 162.711 163.605 164 167.289C164.184 167.842 164.553 168.579 164.737 169.132C166.211 172.816 168.605 176.316 171.553 179.447C172.474 180.368 173.395 181.289 174.5 182.211C176.158 183.684 177.632 188.29 178.553 193.447C178.737 194 178.737 194.737 178.921 195.29C179.658 200.079 179.658 204.684 179.105 206.711C178.737 207.816 178 207.632 177.079 206.526C175.974 205.421 174.869 203.211 173.579 200.632C174.132 201.737 175.605 204.684 176.342 206.526C176.711 207.447 176.711 208 176.342 208.184C175.605 208.553 174.316 207.632 173.211 206.526C171.921 205.237 170.816 203.395 170.263 202.474C170.816 203.395 171.737 205.053 172.474 206.526C172.842 207.263 173.027 207.816 173.211 208.368C173.395 208.921 173.395 209.289 173.211 209.289C172.658 209.474 171.737 209.105 170.632 208.368C170.079 208 169.342 207.447 168.79 206.895C166.027 204.5 163.079 201.184 161.421 199.895C159.763 198.421 158.105 196.947 156.632 195.474C156.079 194.921 155.711 194.368 155.158 193.816C152.027 190.316 149.448 186.447 147.237 182.395C146.869 181.842 146.684 181.289 146.316 180.737C146.316 180.553 146.132 180.553 146.132 180.368C145.948 180.184 145.948 179.816 145.763 179.632C144.29 176.316 143 173 142.263 169.5C142.079 168.947 141.895 168.211 141.895 167.658C141.158 163.974 140.79 160.105 140.605 156.421C140.605 155.868 140.605 155.132 140.605 154.579C140.605 150.711 141.158 147.026 142.079 143.342C142.263 142.789 142.448 142.053 142.448 141.5C143.184 138.368 144.29 135.237 145.763 132.289C146.316 131 147.053 129.711 147.79 128.421C150 124.368 152.948 120.5 156.263 117C156.816 116.447 157.369 115.895 157.921 115.342C158.29 114.974 158.658 114.605 159.027 114.421C159.579 113.868 160.132 113.5 160.5 113.132C163.816 110.368 167.684 107.789 171.921 105.763C172.474 105.579 173.027 105.211 173.395 105.026C174.132 104.658 174.869 104.289 175.79 104.105C175.79 104.105 175.79 104.105 175.974 104.105C176.342 103.921 176.527 103.921 176.895 103.737C177.079 103.553 177.448 103.553 177.632 103.368C178 103.368 178.184 103.184 178.369 103.184C178.553 103.184 178.921 103 179.105 103C180.027 102.816 180.763 102.632 181.684 102.816H181.869C183.895 102.816 185.553 103.553 187.211 104.474C190.711 105.947 192.921 110.553 192.553 114.789Z" fill="white" stroke="black" stroke-width="2" stroke-miterlimit="10" stroke-linecap="round" stroke-linejoin="round"/>
<path d="M161.053 199.342L176.158 184.605" stroke="black" stroke-width="2" stroke-miterlimit="10" stroke-linecap="round" stroke-linejoin="round"/>
<path d="M176.343 294.21L169.711 315.763H199.369C199.369 315.763 205.079 302.5 196.974 302.316L199.553 294.21H176.343Z" fill="white" stroke="black" stroke-width="2" stroke-miterlimit="10" stroke-linecap="round" stroke-linejoin="round"/>
<path d="M174.5 296.605H203.421C214.842 275.789 217.974 251.105 213.921 227.158C211.158 210.763 204.895 195.105 197.158 180.368C193.29 173 188.684 166.184 184.079 159.184C182.237 156.421 174.869 147.395 177.816 143.895C189.421 130.447 166.026 108.342 158.29 124.368C150.184 141.316 148.342 153.474 156.632 167.658C164.921 182.026 174.869 194.921 180.948 210.579C186.105 224.21 187.948 241.342 185.553 257.368C182.974 274.868 176.158 290.711 174.5 296.605Z" fill="black"/>
<path d="M196.789 294.21L189.421 315.763H222.395C222.395 315.763 228.658 302.5 219.631 302.316L221.842 294.947L196.789 294.21Z" fill="white" stroke="black" stroke-width="2" stroke-miterlimit="10" stroke-linecap="round" stroke-linejoin="round"/>
<path d="M200.474 211.868C210.974 239.868 211.527 273.579 190.158 296.605H223.5C234.553 275.974 237.5 251.842 233.448 228.263C230.684 211.868 224.421 196.21 216.684 181.474C212.816 174.105 208.211 167.289 203.605 160.289C201.763 157.526 194.395 148.5 197.342 145C208.948 131.553 189.421 112.026 177.816 125.474C166.579 138.553 167.869 154.579 176.158 168.763C184.632 183.316 194.579 196.21 200.474 211.868Z" fill="black"/>
<path d="M158.842 149.605L164.737 151.816C164.737 151.816 196.974 193.079 202.5 227.71C205.263 245.579 205.263 274.684 196.974 292.737" stroke="white" stroke-width="2" stroke-miterlimit="10" stroke-linecap="round" stroke-linejoin="round"/>
<path d="M219.632 302.132H215.579" stroke="black" stroke-width="2" stroke-miterlimit="10" stroke-linecap="round" stroke-linejoin="round"/>
<circle cx="202.42" cy="85.0094" r="25.2098" fill="white" stroke="black" stroke-width="2"/>
<ellipse rx="1.11531" ry="1.11531" transform="matrix(0.866024 0.500002 -0.499998 0.866026 202.566 89.3946)" fill="black"/>
<ellipse rx="1.11532" ry="1.11531" transform="matrix(0.866028 0.499996 -0.500004 0.866023 206.43 91.6254)" fill="black"/>
<ellipse cx="208.66" cy="87.7618" rx="1.11531" ry="1.11531" transform="rotate(30 208.66 87.7618)" fill="black"/>
<ellipse cx="210.293" cy="93.8558" rx="1.11531" ry="1.11531" transform="rotate(30 210.293 93.8558)" fill="black"/>
<ellipse rx="1.11532" ry="1.11531" transform="matrix(0.866028 0.499996 -0.500004 0.866023 212.524 89.9923)" fill="black"/>
<path d="M212.96 75.9603C211.325 73.8743 208.428 73.4155 206.489 74.9353C204.55 76.4552 204.303 79.3782 205.938 81.4641" stroke="black" stroke-width="2"/>
<path d="M218.737 73.0003C217.217 71.0611 217.557 68.2569 219.497 66.7371" stroke="black" stroke-width="2"/>
<path d="M197.398 95.022C194.61 96.6317 190.945 95.5026 189.211 92.4999C187.477 89.4972 188.156 84.9461 190.944 83.3363" stroke="black" stroke-width="2"/>
<path d="M211.895 121.053C211.711 122.526 211.342 124 210.79 125.29C210.421 126.211 210.053 126.947 209.684 127.868C209.316 128.421 209.132 129.158 208.763 129.711C208.763 129.711 208.763 129.895 208.579 129.895C206.737 133.763 205.079 137.816 203.974 140.947C203.79 141.684 203.421 142.237 203.237 142.79C203.237 142.974 203.237 142.974 203.053 143.158C202.132 145.921 201.579 147.579 201.579 147.579L199.184 146.842L197.342 146.289L186.474 142.79L180.579 140.947L173.026 138.553L171.184 138L167.684 136.895L159.947 134.5L158.105 133.947L153.5 132.474C153.868 131.553 154.421 130.632 154.789 129.895C155.158 129.342 155.342 128.605 155.711 128.053C156.632 126.395 157.368 124.921 158.105 123.447C158.658 122.342 159.395 121.237 159.947 120.132C160.684 119.026 161.237 117.921 161.974 116.816C162.342 116.263 162.711 115.526 163.263 114.974C166.026 110.921 168.605 107.974 171.184 105.947C171.737 105.579 172.289 105.026 172.842 104.658C173.579 104.105 174.316 103.737 175.053 103.368C175.053 103.368 175.053 103.368 175.237 103.368C175.605 103.184 175.789 103.184 176.158 103C176.342 102.816 176.711 102.816 176.895 102.816C177.263 102.816 177.447 102.632 177.632 102.632C177.816 102.632 178.184 102.447 178.368 102.447C179.289 102.263 180.026 102.263 180.947 102.263H181.132C184.079 102.263 186.842 102.816 189.974 103.921C190.526 104.105 193.658 105.211 194.579 105.579C195.5 105.947 196.421 106.316 197.342 106.5C198.079 106.684 198.632 107.053 199.184 107.237C200.474 107.789 201.763 108.342 202.868 109.079C206.368 111.105 208.763 113.132 210.053 115.158C211.711 116.816 212.079 118.842 211.895 121.053Z" fill="white" stroke="black" stroke-width="2" stroke-miterlimit="10" stroke-linecap="round" stroke-linejoin="round"/>
<path d="M268.632 143.526C274.158 142.053 286.316 137.632 287.79 141.316C289.263 145 276 144.263 278.395 146.105C280.79 147.947 289.632 138.553 291.105 141.132C292.579 143.711 283.921 151.632 283.921 151.632C283.921 151.632 290.921 144.632 291.29 147.395C291.842 150.342 283 156.789 283 156.789C283 156.789 290.184 149.974 291.29 152.737C292.395 155.5 284.29 165.632 270.29 165.632" fill="white"/>
<path d="M268.632 143.526C274.158 142.053 286.316 137.632 287.79 141.316C289.263 145 276 144.263 278.395 146.105C280.79 147.947 289.632 138.553 291.105 141.132C292.579 143.711 283.921 151.632 283.921 151.632C283.921 151.632 290.921 144.632 291.29 147.395C291.842 150.342 283 156.789 283 156.789C283 156.789 290.184 149.974 291.29 152.737C292.395 155.5 284.29 165.632 270.29 165.632" stroke="black" stroke-width="2" stroke-miterlimit="10" stroke-linecap="round" stroke-linejoin="round"/>
<path d="M270.29 165.632C268.448 165.632 266.606 165.632 264.763 165.632C264.211 165.632 263.474 165.632 262.921 165.632C259.237 165.447 255.369 165.079 251.684 164.526C251.132 164.526 250.395 164.342 249.842 164.158C245.974 163.421 242.29 162.684 238.606 161.579C238.053 161.395 237.316 161.211 236.763 161.026C232.895 159.737 229.211 158.447 225.527 156.789C224.974 156.421 224.237 156.237 223.684 155.868C222.395 155.316 221.29 154.579 220 154.026C217.421 152.737 214.842 151.263 212.448 149.789C211.895 149.421 211.158 149.053 210.606 148.684C208.027 147.026 205.632 145.184 203.237 143.342C203.053 143.158 202.869 143.158 202.685 142.974C201.948 142.421 201.211 141.684 200.474 141.132C200.106 140.763 199.737 140.395 199.184 140.026C198.632 139.474 197.895 138.921 197.342 138.368C195.316 136.526 193.29 134.5 191.448 132.474C190.711 131.553 190.158 130.816 189.606 129.895C189.237 129.342 189.053 128.605 188.869 128.053C188.132 125.658 188.316 123.263 189.237 121.053C189.79 119.579 190.711 118.289 191.632 117.184C191.632 117 191.816 117 191.816 116.816C192.553 116.079 193.29 115.526 194.211 114.974C195.132 114.421 196.237 113.868 197.158 113.684C197.711 113.5 198.448 113.5 199 113.316C200.842 113.132 202.869 113.684 204.711 114.974C205.448 115.526 206.185 116.079 206.921 116.816C208.027 117.921 209.132 119.211 210.237 120.132C210.606 120.5 210.974 120.868 211.342 121.053C211.527 121.237 211.895 121.605 212.079 121.789C214.474 124 216.869 126.026 219.448 127.868C220.369 128.421 221.106 129.158 222.027 129.711C222.395 129.895 222.763 130.263 223.316 130.447C223.869 130.816 224.606 131.184 225.158 131.553C228.842 133.763 232.527 135.605 236.395 137.263C236.948 137.447 237.684 137.816 238.237 138C241.184 139.105 243.948 140.026 246.895 140.763C250.027 141.5 252.974 142.237 256.29 142.605C258.316 142.974 260.342 143.158 262.553 143.158C263.106 143.158 263.842 143.158 264.395 143.158C265.684 143.158 266.974 143.158 268.079 143.158C268.448 146.658 268.816 150.158 269 153.474C269 154.026 269.184 154.763 269.184 155.316C269.921 159 270.106 162.316 270.29 165.632Z" fill="white" stroke="black" stroke-width="2" stroke-miterlimit="10" stroke-linecap="round" stroke-linejoin="round"/>
<path d="M304.184 131.921H306.579C307.5 131.921 307.869 133.026 307.5 133.579L306.026 135.79C305.842 135.974 305.842 136.158 305.658 136.158L270.29 152.368C269.737 152.553 269 152.368 268.816 151.816L267.711 149.605C267.526 149.053 267.711 148.316 268.263 148.132L303.632 131.921C303.816 131.921 304 131.921 304.184 131.921Z" fill="black"/>
<path d="M303.447 41.842L307.684 44.2368" stroke="black" stroke-width="2" stroke-miterlimit="10" stroke-linecap="round" stroke-linejoin="round"/>
<path d="M280.053 67.6316L276.737 72.4211" stroke="black" stroke-width="2" stroke-miterlimit="10" stroke-linecap="round" stroke-linejoin="round"/>
<path d="M68.5791 330.132L76.6843 332.342" stroke="black" stroke-width="2" stroke-miterlimit="10" stroke-linecap="round" stroke-linejoin="round"/>
<path d="M314.316 312.447L307.684 315.579" stroke="black" stroke-width="2" stroke-miterlimit="10" stroke-linecap="round" stroke-linejoin="round"/>
<path d="M307.684 294.21V302.132" stroke="black" stroke-width="2" stroke-miterlimit="10" stroke-linecap="round" stroke-linejoin="round"/>
<path d="M320.026 338.974L327.026 340.447" stroke="black" stroke-width="2" stroke-miterlimit="10" stroke-linecap="round" stroke-linejoin="round"/>
<path d="M332.553 304.895V312.447" stroke="black" stroke-width="2" stroke-miterlimit="10" stroke-linecap="round" stroke-linejoin="round"/>
<path d="M340.105 257L336.421 265.289" stroke="black" stroke-width="2" stroke-miterlimit="10" stroke-linecap="round" stroke-linejoin="round"/>
<path d="M522.474 296.605L530.947 298.079" stroke="black" stroke-width="2" stroke-miterlimit="10" stroke-linecap="round" stroke-linejoin="round"/>
<path d="M518.053 306L515.658 312.447" stroke="black" stroke-width="2" stroke-miterlimit="10" stroke-linecap="round" stroke-linejoin="round"/>
<path d="M272.909 109.984L270.311 104.008L271.804 103.36L272.179 104.224C272.215 103.827 272.329 103.483 272.52 103.191C272.716 102.897 273.016 102.662 273.42 102.487C273.859 102.296 274.261 102.237 274.626 102.309C274.992 102.377 275.322 102.56 275.614 102.86C275.687 101.943 276.143 101.303 276.982 100.938C277.604 100.667 278.156 100.661 278.637 100.919C279.122 101.171 279.513 101.641 279.811 102.328L281.514 106.242L280.021 106.891L278.364 103.08C278.042 102.339 277.595 102.093 277.024 102.342C277.02 102.344 277.016 102.345 277.013 102.347C276.655 102.502 276.424 102.764 276.321 103.131C276.219 103.493 276.264 103.893 276.455 104.332L277.958 107.789L276.465 108.437L274.808 104.626C274.486 103.885 274.038 103.64 273.462 103.891C273.459 103.892 273.455 103.894 273.451 103.896C273.093 104.051 272.865 104.312 272.765 104.677C272.663 105.039 272.708 105.439 272.899 105.878L274.402 109.335L272.909 109.984Z" fill="black"/>
<path d="M280.087 99.7578L281.69 99.0607L284.868 102.749L284.914 102.729L284.424 97.8719L285.998 97.1876L286.524 106.432L283.924 107.562L283.432 106.429L284.959 105.765L284.883 104.777L280.087 99.7578Z" fill="black"/>
<path d="M287.784 98.8068C287.508 98.1734 287.329 97.5687 287.245 96.9928C287.164 96.4152 287.189 95.8826 287.319 95.3951C287.448 94.9038 287.686 94.4643 288.035 94.0766C288.388 93.6872 288.86 93.3641 289.451 93.1073C289.863 92.9282 290.273 92.82 290.682 92.7828C291.089 92.7418 291.474 92.7764 291.836 92.8866C292.197 92.993 292.525 93.1699 292.822 93.4173C293.119 93.6648 293.364 93.978 293.557 94.357L292 95.0338C291.777 94.6272 291.486 94.3772 291.127 94.284C290.771 94.189 290.362 94.2421 289.9 94.4432C289.655 94.5496 289.443 94.6894 289.264 94.8625C289.087 95.03 288.954 95.2173 288.864 95.4244C288.774 95.6315 288.73 95.8547 288.732 96.0941C288.739 96.3318 288.796 96.5766 288.906 96.8284L289.966 99.2665C290.071 99.5069 290.212 99.7107 290.391 99.8779C290.572 100.04 290.775 100.16 290.999 100.24C291.222 100.315 291.456 100.35 291.702 100.342C291.951 100.329 292.198 100.27 292.442 100.163C292.928 99.9521 293.258 99.686 293.433 99.3651C293.608 99.0441 293.632 98.6321 293.506 98.129L295.056 97.4548C295.195 97.9435 295.244 98.3916 295.204 98.7992C295.164 99.2067 295.05 99.5763 294.861 99.9078C294.673 100.239 294.418 100.536 294.098 100.798C293.777 101.06 293.405 101.283 292.981 101.467C292.391 101.724 291.839 101.841 291.326 101.819C290.811 101.794 290.334 101.659 289.895 101.414C289.456 101.169 289.059 100.825 288.704 100.38C288.351 99.9303 288.044 99.4058 287.784 98.8068Z" fill="black"/>
<path d="M297.638 99.2313L294.171 91.2588L297.477 89.8216C298.343 89.4448 299.072 89.3682 299.664 89.5918C300.254 89.8117 300.731 90.3394 301.094 91.175C301.37 91.8084 301.437 92.3845 301.298 92.9033C301.157 93.4184 300.845 93.8694 300.361 94.2565L303.607 96.6358L301.888 97.3835L298.848 95.0643L297.857 95.4952L299.188 98.5571L297.638 99.2313ZM297.312 94.2418L299.271 93.3901C299.757 93.1789 299.884 92.8081 299.654 92.2777L299.298 91.4593C299.182 91.1922 299.044 91.0251 298.886 90.9579C298.729 90.8853 298.515 90.9081 298.243 91.0264L296.284 91.878L297.312 94.2418Z" fill="black"/>
<path d="M305.204 95.9413L301.738 87.9688L304.268 86.8687L308.57 92.4431L308.617 92.4228L307.445 85.4873L309.987 84.3821L313.453 92.3547L311.961 93.0036L309.213 86.6851L309.167 86.7053L310.253 93.7462L308.405 94.5497L303.996 88.9536L303.949 88.9739L306.697 95.2924L305.204 95.9413Z" fill="black"/>
<path d="M202.406 67.1643C205.38 65.6772 210.213 60.8071 205.752 53.2229C200.176 43.7428 177.869 48.7617 168.947 64.9337C160.024 81.1057 168.947 98.3931 189.023 92.2589" stroke="black" stroke-width="2"/>
</svg>
