<svg width="549" height="422" viewBox="0 0 549 422" fill="none" xmlns="http://www.w3.org/2000/svg">
<path d="M234.561 130.647H292.017" stroke="black" stroke-width="2" stroke-miterlimit="10" stroke-linecap="round" stroke-linejoin="round"/>
<path d="M107.104 246.572C90.9191 245.156 75.7457 240.705 62.5954 233.624C38.1156 220.676 19.5029 199.433 9.58963 173.74C4.53183 160.387 1.69946 145.821 1.69946 130.647C1.69946 122.757 2.50871 114.867 3.92489 107.381C11.4104 70.3583 36.4971 39.8092 69.8786 24.6358C84.6474 17.9595 100.832 14.3179 118.029 14.3179C182.364 14.3179 233.751 55.9942 234.358 130.647C234.763 182.035 201.179 225.734 154.647 241.11" stroke="black" stroke-width="2" stroke-miterlimit="10" stroke-linecap="round" stroke-linejoin="round"/>
<path d="M408.549 246.977C341.179 246.977 292.22 194.78 292.22 130.647C292.22 66.3121 344.416 14.3179 408.549 14.3179C472.884 14.3179 524.272 55.9942 524.879 130.647C524.879 141.572 523.462 152.092 520.832 162.006C517.191 175.358 511.121 187.699 503.231 198.624C500.804 202.064 497.971 205.503 495.139 208.538" stroke="black" stroke-width="2" stroke-miterlimit="10" stroke-linecap="round" stroke-linejoin="round"/>
<path d="M170.428 221.485V209.347H333.491V221.485H170.428Z" fill="#9EE84C"/>
<path d="M170.428 184.665V172.526H371.121V184.665H170.428Z" fill="#9EE84C"/>
<path d="M170.428 147.844V135.705H371.121V147.844H170.428Z" fill="#9EE84C"/>
<path d="M266.931 1.37012H284.127L276.237 11.688L266.931 1.37012Z" stroke="black" stroke-width="2" stroke-miterlimit="10" stroke-linecap="round" stroke-linejoin="round"/>
<path d="M381.642 5.01172H296.873" stroke="black" stroke-width="2" stroke-miterlimit="10" stroke-linecap="round" stroke-linejoin="round"/>
<path d="M349.272 22.8152H294.647" stroke="black" stroke-width="2" stroke-miterlimit="10" stroke-linecap="round" stroke-linejoin="round"/>
<path d="M154.85 250.012L167.798 244.954L190.052 302.613L140.283 321.63L118.029 264.174L135.225 257.497" stroke="black" stroke-width="2" stroke-miterlimit="10" stroke-linecap="round" stroke-linejoin="round"/>
<path d="M64.6185 184.463C57.7399 191.341 43.9826 192.555 37.3063 184.463C19.0982 162.411 6.95949 135.705 3.9248 107.382C11.4104 70.3585 36.4971 39.8094 69.8786 24.636C36.4971 61.0522 31.237 117.093 64.6185 157.15C71.2948 165.041 72.5086 176.37 64.6185 184.463Z" fill="black"/>
<path d="M78.3757 210.763C72.1041 221.283 66.8439 228.567 62.5954 233.422C38.1156 220.474 19.5029 199.231 9.5896 173.538C44.7919 129.029 49.8497 128.22 64.0116 146.428C64.2139 146.63 64.2139 146.63 64.4162 146.833C69.2717 152.902 74.3295 158.364 78.3757 164.029C86.8729 176.37 91.1214 189.318 78.3757 210.763Z" fill="black" stroke="black" stroke-width="2" stroke-miterlimit="10" stroke-linecap="round" stroke-linejoin="round"/>
<path d="M137.653 228.162C120.052 227.757 80.8034 224.925 80.1965 199.029C79.5896 175.358 42.7688 175.358 43.3757 199.029C43.9826 219.867 55.7167 237.468 73.1156 248.595C92.1329 260.734 115.803 261.746 137.653 262.353C161.324 262.757 161.324 228.567 137.653 228.162Z" fill="white" stroke="black" stroke-width="2" stroke-miterlimit="10" stroke-linecap="round" stroke-linejoin="round"/>
<path d="M116.613 236.457C118.434 232.41 119.647 230.387 123.087 226.948C104.069 225.734 80.8034 219.26 80.1965 198.827C79.5896 175.156 42.7688 175.156 43.3757 198.827C43.9826 219.665 55.7167 237.266 73.1156 248.393C85.4566 256.283 99.8208 259.52 114.387 260.936C113.376 252.844 113.173 244.347 116.613 236.457Z" fill="black"/>
<path d="M150.399 244.145C153.636 252.237 148.78 262.15 143.116 263.364" stroke="black" stroke-width="2" stroke-miterlimit="10" stroke-linecap="round" stroke-linejoin="round"/>
<path d="M140.89 272.873L139.272 278.942L135.832 273.682L130.572 236.659L135.63 235.85L140.89 272.873Z" fill="black"/>
<path d="M122.48 239.491C125.11 258.306 131.584 269.838 136.642 265.387C139.272 262.96 132.595 252.642 132.393 250.012" fill="white"/>
<path d="M122.48 239.491C125.11 258.306 131.584 269.838 136.642 265.387C139.272 262.96 132.595 252.642 132.393 250.012" stroke="black" stroke-width="2" stroke-miterlimit="10" stroke-linecap="round" stroke-linejoin="round"/>
<path d="M145.543 247.786C151.006 267.006 143.115 273.278 140.485 270.445C139.272 269.231 140.081 264.174 139.676 259.723C139.272 254.665 137.855 250.012 137.855 250.012" fill="white"/>
<path d="M145.543 247.786C151.006 267.006 143.115 273.278 140.485 270.445C139.272 269.231 140.081 264.174 139.676 259.723C139.272 254.665 137.855 250.012 137.855 250.012" stroke="black" stroke-width="2" stroke-miterlimit="10" stroke-linecap="round" stroke-linejoin="round"/>
<path d="M139.272 278.942H164.965" stroke="black" stroke-width="2" stroke-miterlimit="10" stroke-linecap="round" stroke-linejoin="round"/>
<path d="M143.318 285.416H169.214" stroke="black" stroke-width="2" stroke-miterlimit="10" stroke-linecap="round" stroke-linejoin="round"/>
<path d="M80.1966 206.312C78.9827 208.133 58.1445 227.757 58.1445 227.757" stroke="white" stroke-width="2" stroke-miterlimit="10" stroke-linecap="round" stroke-linejoin="round"/>
<path d="M89 116C98 120.5 94 127 88 127L65 135C63 136 58.6001 137 57.0001 133C55.4001 129 58.3333 126.667 60 126C58 118.5 63 117.833 66.5 118.5C66.1 109.7 73.3334 110.833 77 112.5C85 106.1 89 112.5 89 116Z" fill="white" stroke="black" stroke-width="2"/>
<circle cx="85.5" cy="144.5" r="22.5" fill="white" stroke="black" stroke-width="2"/>
<path d="M94.9506 136.386C93.4849 134.516 90.8871 134.105 89.1483 135.467C87.4095 136.83 87.1882 139.451 88.654 141.321" stroke="black" stroke-width="2"/>
<path d="M100.131 133.733C98.7678 131.994 99.0726 129.48 100.811 128.117" stroke="black" stroke-width="2"/>
<path d="M82.287 152.978C79.7871 154.421 76.5004 153.409 74.9461 150.716C73.3917 148.024 74.0001 143.943 76.5 142.5" stroke="black" stroke-width="2"/>
<path d="M493.153 210.965C491.939 214 489.916 216.225 486.679 216.832C484.859 220.879 481.622 222.902 478.182 222.092C477.575 222.699 476.968 223.104 476.564 223.711C475.957 224.318 475.35 224.52 474.743 224.52C473.124 225.734 471.506 227.15 469.887 228.364C468.471 229.376 466.853 230.387 465.234 231.197L535.437 264.173L548.385 236.659L493.153 210.965Z" fill="#9EE84C"/>
<path d="M477.778 191.746L538.067 206.312L521.275 275.907L460.986 261.341L469.685 225.734" stroke="black" stroke-width="2" stroke-miterlimit="10" stroke-linecap="round" stroke-linejoin="round"/>
<path d="M380.87 180.619C384.916 205.503 397.46 226.948 397.46 226.948L449.656 199.838L461.795 195.792L458.153 184.867C462.402 177.786 456.939 167.873 448.847 157.15L380.87 180.619Z" fill="black"/>
<path d="M446.015 201.254C429.02 211.168 406.766 218.451 388.153 209.751C381.072 206.514 380.668 202.468 384.309 195.994C389.772 186.486 402.72 183.046 412.431 180.416C437.517 173.74 426.795 134.694 401.708 141.37C381.072 146.832 359.223 156.746 348.702 176.572C338.182 196.197 339.396 221.688 356.997 237.064C390.176 265.994 448.038 250.821 477.778 223.509" fill="white"/>
<path d="M446.015 201.254C429.02 211.168 406.766 218.451 388.153 209.751C381.072 206.514 380.668 202.468 384.309 195.994C389.772 186.486 402.72 183.046 412.431 180.416C437.517 173.74 426.795 134.694 401.708 141.37C381.072 146.832 359.223 156.746 348.702 176.572C338.182 196.197 339.396 221.688 356.997 237.064C390.176 265.994 448.038 250.821 477.778 223.509" stroke="black" stroke-width="2" stroke-miterlimit="10" stroke-linecap="round" stroke-linejoin="round"/>
<path d="M475 223L445.5 201.5L465.5 201L490.5 206.5L493 212.5L485 218L486 219L477.5 223H475Z" fill="white"/>
<path d="M428.413 250.214C403.731 256.283 376.824 254.462 357.2 237.266C339.598 221.89 338.587 196.601 348.905 176.775C357.402 160.994 372.98 151.486 389.57 145.416C393.616 144 397.864 142.584 401.911 141.572C403.124 141.168 404.541 140.965 405.754 140.965C413.038 140.358 418.905 143.595 422.546 148.451C429.627 157.757 429.02 173.335 416.679 179.202C415.465 179.809 414.252 180.214 412.835 180.619C402.922 183.249 390.176 186.688 384.714 196.197C381.072 202.468 381.477 206.717 388.558 209.954C398.471 214.405 409.194 214.405 419.916 211.977C419.512 224.925 423.356 237.266 428.413 250.214Z" fill="black"/>
<path d="M520.87 162.006C517.228 175.358 511.159 187.699 503.269 198.624C479.194 181.63 448.645 163.624 420.726 177.584C419.309 178.191 417.893 178.798 416.477 179.202C407.575 181.63 398.067 178.798 393.009 170.301C389.165 163.827 389.367 154.116 393.413 148.046C395.032 145.618 397.257 143.798 400.09 142.786C401.911 142.179 403.731 141.572 405.35 141.168C416.679 137.728 427.2 135.907 437.315 135.503C468.269 133.884 494.57 144.809 520.87 162.006Z" fill="black"/>
<path d="M472.72 194.376C486.882 191.341 500.436 194.78 499.627 206.312L472.72 194.376Z" fill="white"/>
<path d="M472.72 194.376C486.882 191.341 500.436 194.78 499.627 206.312" stroke="black" stroke-width="2" stroke-miterlimit="10" stroke-linecap="round" stroke-linejoin="round"/>
<path d="M505.494 215.618L506.708 222.295L500.437 219.26L474.338 183.451L479.396 180.011L505.494 215.618Z" fill="white" stroke="black" stroke-width="2" stroke-miterlimit="10" stroke-linecap="round" stroke-linejoin="round"/>
<path d="M446.015 201.254C446.015 201.254 466.853 187.902 486.477 198.422C506.101 208.942 504.483 216.63 493.153 211.774C486.679 208.942 482.835 206.919 482.835 206.919" fill="white"/>
<path d="M446.015 201.254C446.015 201.254 466.853 187.902 486.477 198.422C506.101 208.942 504.483 216.63 493.153 211.774C486.679 208.942 482.835 206.919 482.835 206.919" stroke="black" stroke-width="2" stroke-miterlimit="10" stroke-linecap="round" stroke-linejoin="round"/>
<path d="M493.153 211.775C493.558 213.393 489.512 220.272 484.049 217.237L493.153 211.775Z" fill="white"/>
<path d="M493.153 211.775C493.558 213.393 489.512 220.272 484.049 217.237" stroke="black" stroke-width="2" stroke-miterlimit="10" stroke-linecap="round" stroke-linejoin="round"/>
<path d="M434.822 129.421C438.494 127.522 440.031 123.199 438.255 119.765C436.479 116.331 432.063 115.087 428.391 116.986" stroke="black" stroke-width="2"/>
<path d="M380.5 125C391.3 131.8 399.667 126.167 402.5 122.5L435.5 131C454 120 449.5 111 447.5 107C445.656 103.312 437.5 94 427 99C416.5 104 410 99 407.5 96C405 93 398.5 87.5 384.5 94C370.5 100.5 367 116.5 380.5 125Z" fill="white"/>
<circle cx="411.038" cy="131" r="25" fill="white" stroke="black" stroke-width="2"/>
<path d="M385.682 144.788C387.715 148.077 391.838 149.211 394.892 147.323C397.945 145.435 390.582 133.528 387.528 135.416C384.475 137.304 383.648 141.5 385.682 144.788Z" fill="white"/>
<path d="M394.892 147.323C391.838 149.211 387.715 148.077 385.682 144.788C383.648 141.5 384.475 137.304 387.528 135.416" stroke="black" stroke-width="2"/>
<path d="M391.674 143.443C390.621 144.094 389.2 143.703 388.499 142.569C387.798 141.436 388.083 139.989 389.135 139.338" stroke="black" stroke-width="2"/>
<path d="M486.477 218.653C486.477 218.653 484.251 225.734 476.159 221.89L486.477 218.653Z" fill="white"/>
<path d="M486.477 218.653C486.477 218.653 484.251 225.734 476.159 221.89" stroke="black" stroke-width="2" stroke-miterlimit="10" stroke-linecap="round" stroke-linejoin="round"/>
<path d="M506.708 223.711L522.286 227.353" stroke="black" stroke-width="2" stroke-miterlimit="10" stroke-linecap="round" stroke-linejoin="round"/>
<path d="M481.419 230.185L519.656 238.48" stroke="black" stroke-width="2" stroke-miterlimit="10" stroke-linecap="round" stroke-linejoin="round"/>
<path d="M473.124 260.532L470.899 268.827" stroke="black" stroke-width="2" stroke-miterlimit="10" stroke-linecap="round" stroke-linejoin="round"/>
<path d="M478.789 261.341L476.361 269.636" stroke="black" stroke-width="2" stroke-miterlimit="10" stroke-linecap="round" stroke-linejoin="round"/>
<path d="M508.934 269.231L506.708 277.526" stroke="black" stroke-width="2" stroke-miterlimit="10" stroke-linecap="round" stroke-linejoin="round"/>
<path d="M503.876 267.41L501.651 275.705" stroke="black" stroke-width="2" stroke-miterlimit="10" stroke-linecap="round" stroke-linejoin="round"/>
<path d="M104.96 297.093L86.0996 288.23L50.3916 364.222L69.2522 373.085L104.96 297.093Z" stroke="black" stroke-width="2" stroke-miterlimit="10" stroke-linecap="round" stroke-linejoin="round"/>
<path d="M189.243 329.318L85.052 406.601" stroke="black" stroke-width="2" stroke-miterlimit="10" stroke-linecap="round" stroke-linejoin="round"/>
<path d="M198.145 343.277L93.7515 420.561" stroke="black" stroke-width="2" stroke-miterlimit="10" stroke-linecap="round" stroke-linejoin="round"/>
<path d="M128.549 313.74L123.694 321.832" stroke="black" stroke-width="2" stroke-miterlimit="10" stroke-linecap="round" stroke-linejoin="round"/>
<path d="M283.52 224.318L288.983 227.959" stroke="black" stroke-width="2" stroke-miterlimit="10" stroke-linecap="round" stroke-linejoin="round"/>
<path d="M300.717 189.925L297.682 196.803" stroke="black" stroke-width="2" stroke-miterlimit="10" stroke-linecap="round" stroke-linejoin="round"/>
<path d="M244.272 239.087L238.202 246.977" stroke="black" stroke-width="2" stroke-miterlimit="10" stroke-linecap="round" stroke-linejoin="round"/>
<path d="M329.445 230.994L334.301 224.925" stroke="black" stroke-width="2" stroke-miterlimit="10" stroke-linecap="round" stroke-linejoin="round"/>
<path d="M335.515 112.237L339.965 120.127" stroke="black" stroke-width="2" stroke-miterlimit="10" stroke-linecap="round" stroke-linejoin="round"/>
<path d="M234.561 63.8843L240.63 69.9536" stroke="black" stroke-width="2" stroke-miterlimit="10" stroke-linecap="round" stroke-linejoin="round"/>
<path d="M88 127C94 127 98 120.5 89 116C89 112.5 85 106.1 77 112.5C73.3334 110.833 66.1 109.7 66.5 118.5C63 117.833 58 118.5 60 126C58.3333 126.667 55.4001 129 57.0001 133C58.6001 137 63 136 65 135" stroke="black" stroke-width="2"/>
<line x1="400.606" y1="139.081" x2="407.606" y2="136.081" stroke="black" stroke-width="2"/>
<line x1="415.606" y1="133.081" x2="422.606" y2="130.081" stroke="black" stroke-width="2"/>
<path d="M402.5 122.5C399.667 126.167 391.3 131.8 380.5 125C367 116.5 370.5 100.5 384.5 94C398.5 87.5 405 93 407.5 96C410 99 416.5 104 427 99C437.5 94 445.656 103.312 447.5 107C449.5 111 454 120 435.5 131" stroke="black" stroke-width="2"/>
</svg>
