<svg width="472" height="503" viewBox="0 0 472 503" fill="none" xmlns="http://www.w3.org/2000/svg">
<path d="M210.788 431.876L240.104 458.273L245.235 427.77L325.416 401.374L288.184 388.615L312.664 352.393L211.081 387.589L210.788 431.876Z" fill="#9EE84C"/>
<path d="M175.901 184.336L155.819 143.714L152.447 192.548L118.733 193.134L139.694 211.172L113.749 230.236L144.532 227.303L151.421 251.793L172.969 223.344L208.589 229.796L189.973 202.813L196.862 176.417L175.901 184.336Z" fill="#9EE84C"/>
<path d="M100.996 313.092L119.466 307.226L100.41 301.36L106.567 288.455L91.3218 296.961L84.5789 285.522L84.1392 298.134L74.0249 304L84.1392 310.746L79.7417 323.65L89.7094 314.558L104.221 324.97L100.996 313.092Z" fill="#9EE84C"/>
<path d="M85.0187 423.811C86.9243 320.131 102.609 317.198 180.738 315.292C258.867 313.385 312.663 294.761 314.862 317.491" stroke="black" stroke-width="2" stroke-miterlimit="10" stroke-linecap="round" stroke-linejoin="round"/>
<path d="M248.167 327.023C258.721 327.023 277.19 327.463 295.073 321.891C322.631 313.385 338.316 321.157 329.521 338.022" stroke="black" stroke-width="2" stroke-miterlimit="10" stroke-linecap="round" stroke-linejoin="round"/>
<path d="M242.303 353.273C266.929 351.66 325.563 324.677 332.599 343.008C339.781 361.192 272.499 373.364 272.499 373.364" fill="white"/>
<path d="M242.303 353.273C266.929 351.66 325.563 324.677 332.599 343.008C339.781 361.192 272.499 373.364 272.499 373.364" stroke="black" stroke-width="2" stroke-miterlimit="10" stroke-linecap="round" stroke-linejoin="round"/>
<path d="M327.322 32.9956C327.322 32.9956 303.135 87.9883 271.62 96.0539C240.104 104.12 213.719 114.385 209.322 137.848C204.924 161.312 221.048 173.044 227.645 158.379C234.241 143.714 256.229 123.917 277.483 148.847C298.738 173.777 305.334 194.308 280.415 205.306C255.496 216.305 260.626 230.236 291.409 225.103C322.191 219.971 336.85 200.173 336.117 167.911" stroke="black" stroke-width="2" stroke-miterlimit="10" stroke-linecap="round" stroke-linejoin="round"/>
<path d="M352.241 166.445C350.042 197.24 352.241 224.664 303.868 221.877" stroke="black" stroke-width="2" stroke-miterlimit="10" stroke-linecap="round" stroke-linejoin="round"/>
<path d="M411.608 86.5219C390.353 130.516 370.564 148.847 370.564 148.847C370.564 148.847 380.239 212.199 329.96 219.384" stroke="black" stroke-width="2" stroke-miterlimit="10" stroke-linecap="round" stroke-linejoin="round"/>
<path d="M333.185 150.313L332.452 158.379" stroke="black" stroke-width="2" stroke-miterlimit="10" stroke-linecap="round" stroke-linejoin="round"/>
<path d="M346.378 153.98L345.645 162.045" stroke="black" stroke-width="2" stroke-miterlimit="10" stroke-linecap="round" stroke-linejoin="round"/>
<path d="M358.104 153.98L357.371 162.045" stroke="black" stroke-width="2" stroke-miterlimit="10" stroke-linecap="round" stroke-linejoin="round"/>
<path d="M177.806 348.287C212.986 335.822 234.974 353.42 249.632 349.02C264.291 344.621 278.949 324.384 289.943 332.449C300.937 340.515 270.887 387.882 240.104 393.015C209.322 398.147 210.788 431.876 210.788 431.876" fill="white"/>
<path d="M177.806 348.287C212.986 335.822 234.974 353.42 249.632 349.02C264.291 344.621 278.949 324.384 289.943 332.449C300.937 340.515 270.887 387.882 240.104 393.015C209.322 398.147 210.788 431.876 210.788 431.876" stroke="black" stroke-width="2" stroke-miterlimit="10" stroke-linecap="round" stroke-linejoin="round"/>
<path d="M217.238 232.583C227.059 222.317 233.215 209.119 233.508 191.815C233.655 185.655 228.964 178.03 223.394 178.616C216.798 179.203 213.28 184.776 213.133 190.935C212.987 197.241 211.228 205.599 208.589 210.439C212.4 218.211 215.332 223.93 217.238 232.583Z" fill="white" stroke="black" stroke-width="2" stroke-miterlimit="10" stroke-linecap="round" stroke-linejoin="round"/>
<path d="M212.693 201.2C212.4 200.907 211.96 200.613 211.667 200.32C204.631 224.224 185.136 244.314 152.008 240.355C145.998 239.622 143.506 249.594 145.411 254.873C147.757 261.032 154.06 262.939 159.923 261.472C187.041 254.58 211.96 255.166 224.127 233.462C220.609 222.611 216.798 211.905 212.693 201.2Z" fill="white" stroke="black" stroke-width="2" stroke-miterlimit="10" stroke-linecap="round" stroke-linejoin="round"/>
<rect width="52.78" height="52.7832" rx="6" transform="matrix(0.902283 -0.431145 0.430774 0.90246 212.773 173.314)" fill="white" stroke="black" stroke-width="2" stroke-miterlimit="10" stroke-linecap="round" stroke-linejoin="round"/>
<ellipse rx="11.7289" ry="11.7296" transform="matrix(0.902283 -0.431145 0.430775 0.90246 258.319 156.424)" fill="black"/>
<path d="M256.522 140.781L258.72 129.05" stroke="black" stroke-width="2" stroke-miterlimit="10" stroke-linecap="round" stroke-linejoin="round"/>
<path d="M271.18 145.181L277.043 140.781" stroke="black" stroke-width="2" stroke-miterlimit="10" stroke-linecap="round" stroke-linejoin="round"/>
<path d="M237.319 337.435L274.112 335.236C273.526 325.41 263.118 324.237 263.118 324.237L262.385 312.212C262.385 312.212 262.239 312.212 262.092 312.065L236 314.852C236.733 324.677 237.319 337.435 237.319 337.435Z" fill="white" stroke="black" stroke-width="2" stroke-miterlimit="10" stroke-linecap="round" stroke-linejoin="round"/>
<path d="M232.775 322.477L265.024 318.518C265.024 307.959 264.584 301.213 263.411 290.655C262.239 280.243 261.359 269.244 257.841 259.419C254.47 249.74 248.46 241.235 238.932 236.835C228.231 231.849 215.478 233.316 205.364 239.328C188.067 249.74 177.073 271.004 169.891 289.188C168.278 293.294 167.106 297.547 165.054 301.507C165.054 301.653 164.321 302.68 163.588 303.706C164.614 299.307 165.493 294.761 166.959 290.362C173.409 270.564 142.333 262.059 135.883 281.856C133.831 288.308 128.554 307.813 133.685 321.597C136.91 330.396 147.757 335.969 154.939 337.289C166.666 339.342 178.393 335.382 186.455 327.17C194.37 318.958 197.009 307.813 201.406 297.694C204.924 289.335 214.746 266.018 223.247 266.751C232.775 267.485 233.069 302.387 232.775 322.477Z" fill="black"/>
<path d="M246.408 337.435L283.2 335.236C282.614 325.41 272.206 324.237 272.206 324.237L271.473 312.212C271.473 312.212 271.327 312.212 271.18 312.065L245.088 314.852C245.968 324.677 246.408 337.435 246.408 337.435Z" fill="white" stroke="black" stroke-width="2" stroke-miterlimit="10" stroke-linecap="round" stroke-linejoin="round"/>
<path d="M242.01 322.477L274.259 318.518C274.259 307.959 273.819 301.213 272.646 290.655C271.474 280.243 270.594 269.244 267.076 259.419C263.705 249.74 257.695 241.235 248.167 236.835C237.466 231.849 224.713 233.316 214.599 239.328C197.302 249.74 186.308 271.004 179.126 289.188C177.513 293.294 176.341 297.547 174.288 301.507C174.288 301.653 173.555 302.68 172.823 303.706C173.849 299.307 174.728 294.761 176.194 290.362C182.644 270.564 151.568 262.059 145.118 281.856C141.6 292.415 139.108 303.56 142.187 314.558C145.118 325.117 145.705 337.729 162.269 338.022C174.142 338.169 187.628 335.236 195.69 327.023C203.605 318.811 206.244 307.666 210.641 297.547C214.159 289.188 223.98 265.871 232.482 266.605C241.864 267.485 242.157 302.387 242.01 322.477Z" fill="black"/>
<path d="M271.767 321.011L265.024 322.917" stroke="black" stroke-width="2" stroke-miterlimit="10" stroke-linecap="round" stroke-linejoin="round"/>
<path d="M225.153 235.369C214.159 237.569 196.862 248.274 188.507 265.138" stroke="white" stroke-width="2" stroke-miterlimit="10" stroke-linecap="round" stroke-linejoin="round"/>
<path d="M228.378 268.364C234.974 264.992 244.502 271.297 242.303 314.558" stroke="white" stroke-width="2" stroke-miterlimit="10" stroke-linecap="round" stroke-linejoin="round"/>
<path d="M180.298 283.029L176.047 290.362" stroke="white" stroke-width="2" stroke-miterlimit="10" stroke-linecap="round" stroke-linejoin="round"/>
<path d="M272.353 324.09L266.197 325.85" stroke="black" stroke-width="2" stroke-miterlimit="10" stroke-linecap="round" stroke-linejoin="round"/>
<path d="M164.321 232.729C147.317 235.809 144.532 234.196 137.936 260.299C131.339 286.402 130.167 291.828 130.167 291.828L182.204 279.656C187.774 245.634 198.328 226.57 164.321 232.729Z" fill="white" stroke="black" stroke-width="2" stroke-miterlimit="10" stroke-linecap="round" stroke-linejoin="round"/>
<path d="M259.16 240.502C254.323 238.449 250.952 243.141 247.141 248.714C245.675 250.767 243.036 251.94 239.665 252.527C240.984 260.006 241.717 267.631 242.01 275.257C251.978 273.644 261.359 269.391 267.369 260.592C272.06 253.7 265.17 242.995 259.16 240.502Z" fill="white" stroke="black" stroke-width="2" stroke-miterlimit="10" stroke-linecap="round" stroke-linejoin="round"/>
<path d="M171.063 252.82C182.497 265.872 201.553 279.363 219.876 281.563C231.163 283.029 243.622 282.736 254.03 278.043C251.831 270.858 248.167 257.513 245.528 250.327C239.372 254.873 224.273 252.673 218.557 251.5C207.123 249.154 194.37 242.701 185.575 234.929" fill="white"/>
<path d="M171.063 252.82C182.497 265.871 201.553 279.363 219.876 281.563C231.163 283.029 243.622 282.736 254.03 278.043C251.831 270.858 248.167 257.513 245.528 250.327C239.372 254.873 224.273 252.673 218.557 251.5C207.123 249.154 194.37 242.701 185.575 234.929" stroke="black" stroke-width="2" stroke-miterlimit="10" stroke-linecap="round" stroke-linejoin="round"/>
<path d="M247.141 248.714C251.098 244.168 250.512 235.809 253.59 237.569C255.789 238.888 254.763 244.461 254.763 244.461" fill="white"/>
<path d="M247.141 248.714C251.098 244.168 250.512 235.809 253.59 237.569C255.789 238.888 254.763 244.461 254.763 244.461" stroke="black" stroke-width="2" stroke-miterlimit="10" stroke-linecap="round" stroke-linejoin="round"/>
<path d="M259.16 240.501C262.092 243.141 261.799 245.634 261.799 245.634L259.16 240.501Z" fill="white"/>
<path d="M259.16 240.501C262.092 243.141 261.799 245.634 261.799 245.634" stroke="black" stroke-width="2" stroke-miterlimit="10" stroke-linecap="round" stroke-linejoin="round"/>
<path d="M167 181C176.2 183.4 169.167 190 164.5 193L141 210.5C139.333 212.5 134.8 215.6 130 212C125.2 208.4 129.667 203.5 132.5 201.5C129.667 201.5 124.3 200.1 125.5 194.5C126.7 188.9 132.333 187.5 135 187.5C133.5 186.333 131.2 183.2 134 180C136.8 176.8 141.5 178 143.5 179C143 177.167 143.1 173.2 147.5 172C151.9 170.8 155.333 174.833 156.5 177C156.5 175.667 159.3 171.8 164.5 173C169.7 174.2 167.833 179.333 167 181Z" fill="white" stroke="black" stroke-width="2"/>
<circle cx="166" cy="212" r="25" fill="white" stroke="black" stroke-width="2"/>
<circle cx="169.26" cy="217.159" r="1" transform="rotate(-15 169.26 217.159)" fill="black"/>
<circle cx="173.124" cy="216.124" r="1" transform="rotate(-15 173.124 216.124)" fill="black"/>
<circle cx="172.088" cy="212.26" r="1" transform="rotate(-15 172.088 212.26)" fill="black"/>
<circle cx="176.987" cy="215.088" r="1" transform="rotate(-15 176.987 215.088)" fill="black"/>
<circle cx="175.952" cy="211.225" r="1" transform="rotate(-15 175.952 211.225)" fill="black"/>
<path d="M157.156 220.282C154.656 221.725 151.369 220.713 149.815 218.021C148.26 215.328 149.027 211.976 151.527 210.533" stroke="black" stroke-width="2"/>
<path d="M175.764 201.681C174.401 199.942 171.887 199.637 170.148 201C168.41 202.363 168.105 204.877 169.468 206.616" stroke="black" stroke-width="2"/>
<path d="M179.467 197.616C178.105 195.877 178.41 193.363 180.148 192" stroke="black" stroke-width="2"/>
<path d="M219.29 196.361C219.29 192.108 218.703 180.523 216.211 180.963C213.719 181.403 212.84 186.975 213.719 192.694C214.745 198.56 219.29 196.361 219.29 196.361Z" fill="white"/>
<path d="M213.133 191.521C212.986 182.722 214.306 178.909 217.091 182.135C219.436 184.775 219.436 194.454 219.436 194.454" stroke="black" stroke-width="2" stroke-miterlimit="10" stroke-linecap="round" stroke-linejoin="round"/>
<path d="M164.172 193.219C168.839 190.219 175.872 183.619 166.672 181.219C167.506 179.552 169.372 174.419 164.172 173.219C158.972 172.019 156.172 175.885 156.172 177.219C155.006 175.052 151.572 171.019 147.172 172.219C142.772 173.419 142.672 177.385 143.172 179.219C141.172 178.219 136.472 177.019 133.672 180.219C130.872 183.419 133.172 186.552 134.672 187.719C132.006 187.719 126.372 189.119 125.172 194.719C123.972 200.319 129.339 201.719 132.172 201.719C129.339 203.719 124.872 208.619 129.672 212.219C134.472 215.819 139.005 212.719 140.672 210.719" stroke="black" stroke-width="2"/>
<path d="M126.062 254.14L120.639 259.566" stroke="black" stroke-width="2" stroke-miterlimit="10" stroke-linecap="round" stroke-linejoin="round"/>
<path d="M112.87 238.009L117.267 239.475" stroke="black" stroke-width="2" stroke-miterlimit="10" stroke-linecap="round" stroke-linejoin="round"/>
<path d="M61.5652 332.449L64.4969 335.822" stroke="black" stroke-width="2" stroke-miterlimit="10" stroke-linecap="round" stroke-linejoin="round"/>
<path d="M305.774 277.163L302.842 285.522" stroke="black" stroke-width="2" stroke-miterlimit="10" stroke-linecap="round" stroke-linejoin="round"/>
<path d="M328.348 259.566L324.39 256.633" stroke="black" stroke-width="2" stroke-miterlimit="10" stroke-linecap="round" stroke-linejoin="round"/>
<path d="M299.911 239.035L299.031 244.901" stroke="black" stroke-width="2" stroke-miterlimit="10" stroke-linecap="round" stroke-linejoin="round"/>
</svg>
