<svg width="568" height="601" viewBox="0 0 568 601" fill="none" xmlns="http://www.w3.org/2000/svg">
<path d="M300.581 333.342L393.543 332.992" stroke="black" stroke-width="2" stroke-miterlimit="10" stroke-linecap="round" stroke-linejoin="round"/>
<path d="M305.344 392.342L264.773 469.9L431.645 469.2L390.191 392.342H305.344Z" fill="#9EE84C"/>
<path d="M300.581 333.342H306.403L307.108 389.016L264.773 469.9L431.645 469.2L388.251 388.666L387.545 334.217V333.167L393.543 332.992L393.367 326.864L300.405 327.039L300.581 333.342Z" stroke="black" stroke-width="2" stroke-miterlimit="10" stroke-linecap="round" stroke-linejoin="round"/>
<path d="M379.431 420.179C383.62 420.179 387.016 416.808 387.016 412.651C387.016 408.493 383.62 405.122 379.431 405.122C375.242 405.122 371.846 408.493 371.846 412.651C371.846 416.808 375.242 420.179 379.431 420.179Z" fill="white"/>
<path d="M364.437 430.683C366.191 430.683 367.612 429.273 367.612 427.532C367.612 425.792 366.191 424.381 364.437 424.381C362.684 424.381 361.262 425.792 361.262 427.532C361.262 429.273 362.684 430.683 364.437 430.683Z" fill="white"/>
<path d="M292.291 354.176C308.696 348.924 322.278 353.651 321.749 363.455C321.22 373.434 300.052 379.737 300.052 379.737" fill="white"/>
<path d="M292.291 354.176C308.696 348.924 322.278 353.651 321.749 363.455C321.22 373.434 300.052 379.737 300.052 379.737" stroke="black" stroke-width="2" stroke-miterlimit="10" stroke-linecap="round" stroke-linejoin="round"/>
<path d="M289.998 379.387C306.403 374.134 319.985 378.861 319.456 388.666C318.927 398.645 297.759 404.947 297.759 404.947" fill="white"/>
<path d="M289.998 379.387C306.403 374.134 319.985 378.861 319.456 388.666C318.927 398.645 297.759 404.947 297.759 404.947" stroke="black" stroke-width="2" stroke-miterlimit="10" stroke-linecap="round" stroke-linejoin="round"/>
<path d="M499.029 342.621C458.104 350.849 400.599 336.843 364.614 339.645C328.805 342.621 328.805 369.407 356.323 365.381C383.841 361.354 403.95 394.618 437.466 397.419" fill="white"/>
<path d="M499.029 342.621C458.104 350.849 400.599 336.843 364.614 339.645C328.805 342.621 328.805 369.407 356.323 365.381C383.841 361.354 403.95 394.618 437.466 397.419" stroke="black" stroke-width="2" stroke-miterlimit="10" stroke-linecap="round" stroke-linejoin="round"/>
<path d="M428.117 461.672C455.635 460.971 481.389 459.221 498.676 451.692L428.117 461.672Z" fill="white"/>
<path d="M428.117 461.672C455.635 460.971 481.389 459.221 498.676 451.692" stroke="black" stroke-width="2" stroke-miterlimit="10" stroke-linecap="round" stroke-linejoin="round"/>
<path d="M183.1 195.733L194.743 200.285L254.894 226.897L273.24 235.125L274.651 235.825L272.534 240.377L280.472 243.879L300.405 197.834L183.1 195.733Z" fill="#9EE84C"/>
<path d="M304.638 169.297L302.522 173.849L246.074 148.813L223.672 138.834L207.267 131.481L145.528 64.7776L88.0223 192.057L172.517 193.282H179.22L194.743 200.285L254.894 226.897L273.24 235.125L274.651 235.825L272.534 240.377L280.472 243.879L312.576 172.974L304.638 169.297Z" stroke="black" stroke-width="2" stroke-miterlimit="10" stroke-linecap="round" stroke-linejoin="round"/>
<path d="M304.639 169.297L272.534 240.377" stroke="black" stroke-width="2" stroke-miterlimit="10" stroke-linecap="round" stroke-linejoin="round"/>
<path d="M406.244 225.321V172.274C396.189 173.324 387.369 179.977 383.665 189.956C378.549 203.612 383.135 218.143 400.246 224.096C402.186 224.621 404.127 225.146 406.244 225.321Z" fill="white" stroke="black" stroke-width="2" stroke-miterlimit="10" stroke-linecap="round" stroke-linejoin="round"/>
<path d="M409.771 172.098V225.671C420.532 225.496 430.234 219.193 434.467 207.638C439.583 193.808 431.998 178.401 417.886 173.499C415.24 172.623 412.417 172.098 409.771 172.098Z" fill="black"/>
<path d="M376.432 246.155H366.378V256.134H376.432V246.155Z" fill="black"/>
<path d="M383.488 251.057H437.642" stroke="black" stroke-width="2" stroke-miterlimit="10" stroke-linecap="round" stroke-linejoin="round"/>
<path d="M376.432 269.965H366.378V279.944H376.432V269.965Z" fill="black"/>
<path d="M400.246 275.042C412.594 275.042 425.118 275.042 437.466 275.042H400.246Z" fill="white"/>
<path d="M400.246 275.042C412.594 275.042 425.118 275.042 437.466 275.042" stroke="black" stroke-width="2" stroke-miterlimit="10" stroke-linecap="round" stroke-linejoin="round"/>
<path d="M383.488 275.042C386.311 275.042 389.133 275.042 391.955 275.042H383.488Z" fill="white"/>
<path d="M383.488 275.042C386.311 275.042 389.133 275.042 391.955 275.042" stroke="black" stroke-width="2" stroke-miterlimit="10" stroke-linecap="round" stroke-linejoin="round"/>
<path d="M348.385 501.589L303.051 504.04C303.051 504.04 302.345 482.505 301.287 472.176C300.229 461.672 334.273 476.378 334.273 476.378L334.979 489.508C335.155 489.508 347.856 490.734 348.385 501.589Z" fill="white" stroke="black" stroke-width="2" stroke-miterlimit="10" stroke-linecap="round" stroke-linejoin="round"/>
<path d="M118.539 506.841L97.5479 466.924C97.5479 466.924 116.952 457.47 126.124 452.218C135.297 446.965 135.826 483.906 135.826 483.906L124.007 490.034C124.184 489.859 128.241 501.764 118.539 506.841Z" fill="white" stroke="black" stroke-width="2" stroke-miterlimit="10" stroke-linecap="round" stroke-linejoin="round"/>
<path d="M120.303 454.669C163.344 434.185 178.867 306.731 178.867 282.745C178.867 263.487 183.277 273.291 193.684 276.093C197.036 274.692 200.74 274.167 204.621 274.692C282.765 283.271 331.274 403.722 335.684 476.203L300.581 481.98C296.701 426.832 260.363 330.716 208.855 309.007C200.917 399.17 187.863 462.022 135.12 486.182C130.358 475.678 125.771 464.998 120.303 454.669Z" fill="black"/>
<path d="M334.802 485.307L327.57 485.832" stroke="black" stroke-width="2" stroke-miterlimit="10" stroke-linecap="round" stroke-linejoin="round"/>
<path d="M130.534 486.532L126.477 479.004" stroke="black" stroke-width="2" stroke-miterlimit="10" stroke-linecap="round" stroke-linejoin="round"/>
<path d="M272.711 239.677C272.534 240.202 272.358 240.903 272.005 241.428C271.652 242.303 271.123 243.179 270.418 243.879C270.065 244.229 269.888 244.579 269.536 244.754C269.006 245.455 268.477 245.98 267.772 246.68C263.362 251.232 257.893 254.734 252.249 257.36C250.837 258.06 249.25 258.585 247.839 259.11C245.369 259.986 242.899 260.686 240.43 261.036L239.901 274.867V276.618L239.724 287.122L234.08 286.422L232.316 286.247L216.263 284.496L214.499 284.321L198.447 282.57L196.683 282.395L180.631 280.645L178.867 280.469L174.281 279.944L177.28 274.692L178.867 272.066L180.631 268.915L186.452 258.76L187.511 257.009L192.273 248.781C189.627 246.505 187.158 243.879 184.865 241.253C184.336 240.728 183.983 240.027 183.454 239.502C182.395 238.101 181.337 236.526 180.455 235.125C179.926 234.075 179.22 233.024 178.691 231.974C177.632 230.048 176.75 228.122 175.868 226.021C175.516 225.321 175.339 224.446 174.986 223.57C174.81 223.045 174.634 222.345 174.281 221.819C172.517 216.567 171.635 211.14 171.282 205.888C171.282 205.362 171.282 204.662 171.282 204.137C171.282 200.46 171.459 196.609 172.164 193.107C172.34 191.532 172.693 189.956 173.222 188.205C173.399 187.68 173.575 186.98 173.752 186.454C174.986 182.078 176.574 177.876 178.691 173.849C179.22 172.799 179.926 171.748 180.455 170.698C180.455 170.698 180.455 170.523 180.631 170.523C180.984 169.997 181.337 169.297 181.69 168.772C185.57 162.819 190.157 157.392 195.801 152.84C196.683 152.14 197.389 151.44 198.271 150.739C203.21 147.063 208.502 143.911 214.323 141.46C214.852 141.285 215.558 140.935 216.087 140.76C218.557 139.885 221.026 139.009 223.496 138.309C225.613 137.784 227.553 137.258 229.846 136.908C240.077 135.158 247.486 142.686 245.898 148.288C245.545 149.164 245.016 150.214 244.311 150.914C243.605 151.615 242.547 152.14 241.312 152.665C240.606 153.015 239.724 153.19 238.666 153.365C237.078 153.715 235.491 154.066 233.903 154.416C233.374 154.591 232.668 154.766 232.139 154.941C226.495 156.867 221.026 159.668 216.087 163.345C215.558 163.87 214.852 164.22 214.323 164.745C212.912 165.971 211.501 167.196 210.266 168.422C209.737 168.947 209.208 169.647 208.502 170.172C204.268 174.724 200.74 179.802 198.271 185.404C197.565 186.98 197.036 188.555 196.507 190.131C195.449 193.282 194.919 196.434 194.567 199.585C194.39 200.986 194.39 202.211 194.39 203.612C194.39 204.137 194.39 204.837 194.39 205.362C194.567 208.514 195.272 211.84 196.331 214.992C196.331 215.167 196.331 215.167 196.507 215.342C197.036 216.742 197.565 218.143 198.271 219.544C198.624 220.069 198.8 220.769 199.153 221.294C199.506 221.82 199.859 222.52 200.211 223.045C203.739 228.472 208.678 232.674 214.323 235.3C214.852 235.65 215.558 235.825 216.087 236.001C221.203 238.101 226.671 238.977 232.139 238.452C232.668 238.452 233.374 238.277 233.903 238.277C239.548 237.401 245.016 235.125 249.955 231.098C250.485 230.573 251.19 230.048 251.719 229.523C252.601 228.647 253.483 227.772 254.365 226.722C254.542 226.547 254.718 226.371 254.895 226.196L267.772 231.974L269.536 232.849L273.24 234.425C273.416 236.526 273.24 238.101 272.711 239.677Z" fill="white" stroke="black" stroke-width="2" stroke-miterlimit="10" stroke-linecap="round" stroke-linejoin="round"/>
<path d="M269.536 239.677V233.549L267.772 232.674V239.502H251.719V230.223C251.19 230.748 250.485 231.273 249.955 231.799V239.502H233.903V238.802C233.374 238.977 232.668 238.977 232.139 238.977V239.502H216.087V236.701C215.558 236.526 214.852 236.176 214.323 236.001V239.677H198.271V223.745H200.211C199.858 223.22 199.506 222.52 199.153 221.995H198.271V220.244C197.565 218.843 197.036 217.443 196.507 216.042V221.995H180.455V206.063H194.567C194.567 205.538 194.567 204.837 194.567 204.312H180.631V188.38H196.683V190.656C197.213 189.081 197.742 187.505 198.447 185.929V170.698H208.678C209.208 170.172 209.737 169.472 210.442 168.947H198.624V153.015H214.676V165.27C215.205 164.745 215.911 164.395 216.44 163.87V153.015H232.492V155.291C233.021 155.116 233.727 154.941 234.256 154.766V154.066C234.08 153.715 233.903 153.365 233.727 153.015C233.198 152.49 232.845 151.79 232.492 151.089V151.264H216.44V141.285C216.44 141.285 216.263 141.46 216.087 141.46C215.558 141.81 215.029 141.985 214.676 141.985V151.439H198.624V151.089C197.742 151.79 196.86 152.49 196.154 153.19H196.86V169.122H182.042C181.69 169.647 181.337 170.348 180.984 170.873H196.86V186.805H180.808V171.048C180.278 172.098 179.573 173.149 179.044 174.199V186.805H174.104C173.928 187.33 173.752 188.03 173.575 188.555H179.044V204.487H171.811C171.811 205.012 171.811 205.713 171.811 206.238H179.044V222.17H174.634C174.81 222.695 174.986 223.395 175.339 223.92H179.044V232.324C179.573 233.374 180.278 234.425 180.808 235.475V224.095H196.86V240.027H183.806C184.335 240.552 184.688 241.253 185.217 241.778H196.86V257.71H187.687L186.629 259.46H196.683V275.392H180.631V269.615L178.867 272.766V275.392H177.28L176.221 277.143H178.691V281.17L180.455 281.345V276.618H196.507V282.57L198.271 282.745V276.618H214.323V284.496L216.087 284.671V276.618H232.139V287.648C232.139 288.173 232.492 288.523 233.021 288.523C233.55 288.523 233.903 288.173 233.903 287.648V276.618H239.724V274.867H233.727V258.935H247.486C249.073 258.41 250.485 257.885 251.896 257.185H251.543V241.253H267.595V246.505C268.301 245.98 268.83 245.279 269.359 244.579V241.253H271.829C272.181 240.728 272.358 240.027 272.534 239.502H269.536V239.677ZM214.499 274.867H198.447V258.935H214.499V274.867ZM214.499 257.185H198.447V241.253H214.499V257.185ZM232.316 274.867H216.263V258.935H232.316V274.867ZM232.316 257.185H216.263V241.253H232.316V257.185ZM249.955 257.185H233.903V241.253H249.955V257.185Z" fill="black"/>
<path d="M229.846 137.434C241.488 137.434 244.487 141.285 248.897 143.911C253.307 146.537 255.071 152.665 255.071 152.665C255.071 152.665 255.6 150.214 238.666 153.715" fill="white"/>
<path d="M229.846 137.434C241.488 137.434 244.487 141.285 248.897 143.911C253.307 146.537 255.071 152.665 255.071 152.665C255.071 152.665 255.6 150.214 238.666 153.715" stroke="black" stroke-width="2" stroke-miterlimit="10" stroke-linecap="round" stroke-linejoin="round"/>
<path d="M253.307 149.164C251.014 146.888 245.369 145.487 245.369 145.487L253.307 149.164Z" fill="white"/>
<path d="M253.307 149.164C251.014 146.888 245.369 145.487 245.369 145.487" stroke="black" stroke-width="2" stroke-miterlimit="10" stroke-linecap="round" stroke-linejoin="round"/>
<path d="M223.672 138.834L234.08 154.941" stroke="black" stroke-width="2" stroke-miterlimit="10" stroke-linecap="round" stroke-linejoin="round"/>
<ellipse cx="230" cy="217.373" rx="27" ry="26.7994" fill="white" stroke="black" stroke-width="2" stroke-miterlimit="10" stroke-linecap="round" stroke-linejoin="round"/>
<ellipse rx="2.89225" ry="2.87933" transform="matrix(0.896254 -0.443542 0.448862 0.893601 230.885 215.549)" fill="black"/>
<ellipse rx="2.89227" ry="2.87933" transform="matrix(0.896255 -0.443539 0.448865 0.8936 246.432 214.281)" fill="black"/>
<path d="M103.898 406.348L134.415 379.387C128.947 373.434 120.303 371.158 111.66 374.66C101.252 378.861 96.313 390.766 100.547 401.096C101.429 403.022 102.663 404.947 103.898 406.348Z" fill="black"/>
<path d="M252.954 445.565L247.662 453.443" stroke="black" stroke-width="2" stroke-miterlimit="10" stroke-linecap="round" stroke-linejoin="round"/>
<path d="M104.78 417.903L111.836 416.677" stroke="black" stroke-width="2" stroke-miterlimit="10" stroke-linecap="round" stroke-linejoin="round"/>
<path d="M235.314 429.808L240.606 434.185" stroke="black" stroke-width="2" stroke-miterlimit="10" stroke-linecap="round" stroke-linejoin="round"/>
<path d="M304.991 231.974L312.929 233.725" stroke="black" stroke-width="2" stroke-miterlimit="10" stroke-linecap="round" stroke-linejoin="round"/>
<path d="M326.159 312.508L321.749 319.511" stroke="black" stroke-width="2" stroke-miterlimit="10" stroke-linecap="round" stroke-linejoin="round"/>
<path d="M320.867 273.992L326.159 277.493" stroke="black" stroke-width="2" stroke-miterlimit="10" stroke-linecap="round" stroke-linejoin="round"/>
<path d="M330.569 211.84L326.159 220.594" stroke="black" stroke-width="2" stroke-miterlimit="10" stroke-linecap="round" stroke-linejoin="round"/>
<path d="M287.175 287.297L291.056 293.075" stroke="black" stroke-width="2" stroke-miterlimit="10" stroke-linecap="round" stroke-linejoin="round"/>
<path d="M282.942 305.505L278.532 310.757" stroke="black" stroke-width="2" stroke-miterlimit="10" stroke-linecap="round" stroke-linejoin="round"/>
<path d="M304.109 243.354L304.991 250.357" stroke="black" stroke-width="2" stroke-miterlimit="10" stroke-linecap="round" stroke-linejoin="round"/>
<path d="M306.755 208.339L307.637 214.466" stroke="black" stroke-width="2" stroke-miterlimit="10" stroke-linecap="round" stroke-linejoin="round"/>
<path d="M349.62 243.354L349.443 250.357" stroke="black" stroke-width="2" stroke-miterlimit="10" stroke-linecap="round" stroke-linejoin="round"/>
<path d="M232 227.946L244.727 225.314L244.82 225.756C245.557 229.268 243.306 232.705 239.791 233.432C236.277 234.158 232.83 231.9 232.093 228.388L232 227.946Z" fill="black"/>
<path d="M237.716 230.621C238.939 230.042 239.216 229.288 239.261 228.472L235.345 229.282C235.612 230.358 236.715 231.096 237.716 230.621Z" fill="white"/>
<circle cx="216.806" cy="223.449" r="1" transform="rotate(46.8599 216.806 223.449)" fill="black"/>
<circle cx="219.541" cy="226.368" r="1" transform="rotate(46.8599 219.541 226.368)" fill="black"/>
<circle cx="222.459" cy="223.632" r="1" transform="rotate(46.8599 222.459 223.632)" fill="black"/>
<circle cx="222.276" cy="229.286" r="1" transform="rotate(46.8599 222.276 229.286)" fill="black"/>
<circle cx="225.195" cy="226.551" r="1" transform="rotate(46.8599 225.195 226.551)" fill="black"/>
<path d="M201.219 214.597C200.039 218.279 201.854 222.152 205.273 223.247C208.692 224.343 212.964 211.01 209.545 209.915C206.127 208.819 202.399 210.916 201.219 214.597Z" fill="white"/>
<path d="M205.273 223.247C201.854 222.152 200.039 218.279 201.219 214.597C202.399 210.916 206.127 208.819 209.545 209.915" stroke="black" stroke-width="2"/>
<path d="M206.134 218.28C204.955 217.902 204.33 216.567 204.736 215.298C205.143 214.029 206.428 213.306 207.607 213.684" stroke="black" stroke-width="2"/>
<path d="M244 204C247.833 202.833 255.5 199 255.5 193C255.5 187 248.833 187.167 245.5 188C245.667 185.5 244.3 180.2 237.5 179C230.7 177.8 228 182.833 227.5 185.5C226.667 184.167 224.2 181.9 221 183.5C217.8 185.1 218.333 188.167 219 189.5C216.833 189.333 212.2 191.1 211 199.5" stroke="black" stroke-width="2"/>
</svg>
