<svg width="570" height="459" viewBox="0 0 570 459" fill="none" xmlns="http://www.w3.org/2000/svg">
<path d="M368.25 68.1H152.55V252.75H368.25V68.1Z" fill="white" stroke="black" stroke-width="2" stroke-miterlimit="10" stroke-linecap="round" stroke-linejoin="round"/>
<path d="M300.9 157.8H279.9V178.8H300.9V157.8Z" fill="white" stroke="black" stroke-width="2" stroke-miterlimit="10" stroke-linecap="round" stroke-linejoin="round"/>
<path d="M311.1 145.05H281.7C273 145.05 265.95 138 265.95 129.3V125.1C265.95 116.4 273 109.35 281.7 109.35H311.1V145.05Z" fill="#9EE84C"/>
<path d="M255.3 186.45H179.1V150.6H255.3C264 150.6 271.05 157.65 271.05 166.35V170.55C271.05 179.4 264 186.45 255.3 186.45Z" fill="#9EE84C"/>
<path d="M208.8 116.55H187.8V137.55H208.8V116.55Z" fill="white" stroke="black" stroke-width="2" stroke-miterlimit="10" stroke-linecap="round" stroke-linejoin="round"/>
<path d="M265.65 96.15H190.35C188.4 96.15 186.75 94.5 186.75 92.55C186.75 90.6 188.4 88.95 190.35 88.95H265.65C267.6 88.95 269.25 90.6 269.25 92.55C269.25 94.5 267.6 96.15 265.65 96.15Z" fill="white" stroke="black" stroke-width="2" stroke-miterlimit="10" stroke-linecap="round" stroke-linejoin="round"/>
<path d="M254.85 116.55H233.85V137.55H254.85V116.55Z" fill="white" stroke="black" stroke-width="2" stroke-miterlimit="10" stroke-linecap="round" stroke-linejoin="round"/>
<path d="M300.9 116.55H279.9V137.55H300.9V116.55Z" fill="white" stroke="black" stroke-width="2" stroke-miterlimit="10" stroke-linecap="round" stroke-linejoin="round"/>
<path d="M343.35 116.55H322.35V137.55H343.35V116.55Z" fill="white" stroke="black" stroke-width="2" stroke-miterlimit="10" stroke-linecap="round" stroke-linejoin="round"/>
<path d="M208.8 157.8H187.8V178.8H208.8V157.8Z" fill="white" stroke="black" stroke-width="2" stroke-miterlimit="10" stroke-linecap="round" stroke-linejoin="round"/>
<path d="M254.85 157.8H233.85V178.8H254.85V157.8Z" fill="white" stroke="black" stroke-width="2" stroke-miterlimit="10" stroke-linecap="round" stroke-linejoin="round"/>
<path d="M187.8 116.55L208.95 137.55" stroke="black" stroke-width="2" stroke-miterlimit="10" stroke-linecap="round" stroke-linejoin="round"/>
<path d="M233.85 116.55L254.85 137.55" stroke="black" stroke-width="2" stroke-miterlimit="10" stroke-linecap="round" stroke-linejoin="round"/>
<path d="M172.65 57.75V77.25" stroke="black" stroke-width="2" stroke-miterlimit="10" stroke-linecap="round" stroke-linejoin="round"/>
<path d="M197.7 57.75V77.25" stroke="black" stroke-width="2" stroke-miterlimit="10" stroke-linecap="round" stroke-linejoin="round"/>
<path d="M222.75 57.75V77.25" stroke="black" stroke-width="2" stroke-miterlimit="10" stroke-linecap="round" stroke-linejoin="round"/>
<path d="M247.8 57.75V77.25" stroke="black" stroke-width="2" stroke-miterlimit="10" stroke-linecap="round" stroke-linejoin="round"/>
<path d="M272.85 57.75V77.25" stroke="black" stroke-width="2" stroke-miterlimit="10" stroke-linecap="round" stroke-linejoin="round"/>
<path d="M322.95 57.75V77.25" stroke="black" stroke-width="2" stroke-miterlimit="10" stroke-linecap="round" stroke-linejoin="round"/>
<path d="M297.9 57.75V77.25" stroke="black" stroke-width="2" stroke-miterlimit="10" stroke-linecap="round" stroke-linejoin="round"/>
<path d="M347.85 57.75V77.25" stroke="black" stroke-width="2" stroke-miterlimit="10" stroke-linecap="round" stroke-linejoin="round"/>
<path d="M302.412 145.818L274.315 179.026L314.966 213.42L343.063 180.212L302.412 145.818Z" fill="white" stroke="black" stroke-width="2" stroke-miterlimit="10" stroke-linecap="round" stroke-linejoin="round"/>
<path d="M289.8 181.2L305.1 163.2" stroke="black" stroke-width="2" stroke-miterlimit="10" stroke-linecap="round" stroke-linejoin="round"/>
<path d="M296.7 187.05L312 169.05" stroke="black" stroke-width="2" stroke-miterlimit="10" stroke-linecap="round" stroke-linejoin="round"/>
<path d="M316.8 177.9C317.55 177 318.45 175.95 319.2 175.05L316.8 177.9Z" fill="white"/>
<path d="M316.8 177.9C317.55 177 318.45 175.95 319.2 175.05" stroke="black" stroke-width="2" stroke-miterlimit="10" stroke-linecap="round" stroke-linejoin="round"/>
<path d="M303.9 193.05C306.9 189.45 309.9 186 312.9 182.4L303.9 193.05Z" fill="white"/>
<path d="M303.9 193.05C306.9 189.45 309.9 186 312.9 182.4" stroke="black" stroke-width="2" stroke-miterlimit="10" stroke-linecap="round" stroke-linejoin="round"/>
<path d="M505.95 259.2L534.45 261.3L529.5 300C529.5 300 518.4 298.8 518.55 287.85L503.85 284.7L505.95 259.2Z" fill="black" stroke="black" stroke-width="2" stroke-miterlimit="10" stroke-linecap="round" stroke-linejoin="round"/>
<path d="M518.55 287.85L520.65 283.2" stroke="white" stroke-width="2" stroke-miterlimit="10" stroke-linecap="round" stroke-linejoin="round"/>
<path d="M514.5 286.65L516.6 282" stroke="white" stroke-width="2" stroke-miterlimit="10" stroke-linecap="round" stroke-linejoin="round"/>
<path d="M359.25 325.8L364.8 353.85L326.25 359.4C326.25 359.4 324.45 348.45 334.95 345.6L333.9 330.6L359.25 325.8Z" fill="black" stroke="black" stroke-width="2" stroke-miterlimit="10" stroke-linecap="round" stroke-linejoin="round"/>
<path d="M361.95 330.15C350.85 278.1 363.6 203.85 397.05 162.3C401.7 156.45 402.75 148.35 397.05 142.5C392.1 137.55 382.05 136.65 377.25 142.5C338.1 191.4 322.05 261.9 332.55 333.3C342 332.4 352.8 331.8 361.95 330.15Z" fill="white" stroke="black" stroke-width="2" stroke-miterlimit="10" stroke-linecap="round" stroke-linejoin="round"/>
<path d="M512.25 258.3C461.25 255.3 427.35 193.05 409.05 147.45C406.2 140.4 399.75 135.6 391.8 137.7C385.2 139.5 379.2 147.9 382.05 154.95C394.95 187.05 408.15 219.75 431.4 245.85C451.05 267.9 478.5 285.45 508.2 287.4C509.4 277.95 510.75 267.45 512.25 258.3Z" fill="white" stroke="black" stroke-width="2" stroke-miterlimit="10" stroke-linecap="round" stroke-linejoin="round"/>
<path d="M335.1 345.6L340.2 346.35" stroke="white" stroke-width="2" stroke-miterlimit="10" stroke-linecap="round" stroke-linejoin="round"/>
<path d="M334.8 340.5L339.9 341.25" stroke="white" stroke-width="2" stroke-miterlimit="10" stroke-linecap="round" stroke-linejoin="round"/>
<path d="M432.15 120.45C414.45 113.1 395.25 113.55 376.5 115.2C376.95 122.85 377.4 130.5 377.85 138.15C391.95 136.65 406.65 135.75 420 140.4C431.85 144.45 443.4 153.75 445.05 166.8C445.05 166.8 445.05 166.8 445.2 166.8C452.7 165 460.2 163.2 467.55 161.55C463.95 142.8 449.7 127.65 432.15 120.45Z" fill="black" stroke="black" stroke-width="2" stroke-miterlimit="10" stroke-linecap="round" stroke-linejoin="round"/>
<path d="M445.2 166.8C444.75 173.4 443.7 180 447 180.75C450.3 181.5 450.15 168.6 453.3 176.25C456.45 183.9 454.05 186.3 457.65 186.75C461.4 187.2 458.85 175.8 458.85 175.8C458.85 175.8 460.95 186.3 463.5 185.55C466.05 184.8 464.25 174 464.25 174C464.25 174 465.9 184.35 468.15 183C470.4 181.5 469.05 169.95 467.55 161.55" fill="white"/>
<path d="M445.2 166.8C444.75 173.4 443.7 180 447 180.75C450.3 181.5 450.15 168.6 453.3 176.25C456.45 183.9 454.05 186.3 457.65 186.75C461.4 187.2 458.85 175.8 458.85 175.8C458.85 175.8 460.95 186.3 463.5 185.55C466.05 184.8 464.25 174 464.25 174C464.25 174 465.9 184.35 468.15 183C470.4 181.5 469.05 169.95 467.55 161.55" stroke="black" stroke-width="2" stroke-miterlimit="10" stroke-linecap="round" stroke-linejoin="round"/>
<path d="M370.65 114.3C349.35 124.05 353.25 131.55 361.5 165.6L411.3 146.55C405 137.4 397.65 102 370.65 114.3Z" fill="black"/>
<path d="M373.35 129C369.45 145.05 365.55 162.9 355.05 176.1C347.25 185.85 334.5 193.65 321.75 190.8C321.75 190.8 321.75 190.8 321.75 190.95C320.85 198.6 319.95 206.25 319.05 213.75C337.95 216.75 356.85 208.35 369.75 194.25C384.6 177.9 390.6 156 395.7 135C399.15 120.6 376.8 114.45 373.35 129Z" fill="black" stroke="black" stroke-width="2" stroke-miterlimit="10" stroke-linecap="round" stroke-linejoin="round"/>
<path d="M321.6 190.8C316.05 189.3 309.75 184.95 307.95 187.8C306.15 190.65 318.3 194.85 310.05 195.3C301.8 195.75 300 193.65 298.65 195.9C296.85 199.2 308.55 200.7 308.55 200.7C308.55 200.7 298.05 199.05 297.75 201.75C297.45 204.45 308.25 206.4 308.25 206.4C308.25 206.4 297.9 204.3 298.5 207C299.1 209.7 310.5 212.25 318.9 213.6" fill="white"/>
<path d="M321.6 190.8C316.05 189.3 309.75 184.95 307.95 187.8C306.15 190.65 318.3 194.85 310.05 195.3C301.8 195.75 300 193.65 298.65 195.9C296.85 199.2 308.55 200.7 308.55 200.7C308.55 200.7 298.05 199.05 297.75 201.75C297.45 204.45 308.25 206.4 308.25 206.4C308.25 206.4 297.9 204.3 298.5 207C299.1 209.7 310.5 212.25 318.9 213.6" stroke="black" stroke-width="2" stroke-miterlimit="10" stroke-linecap="round" stroke-linejoin="round"/>
<path d="M451.65 174C454.8 170.1 455.85 166.95 455.85 166.95L451.65 174Z" fill="black"/>
<path d="M451.65 174C454.8 170.1 455.85 166.95 455.85 166.95" stroke="black" stroke-width="2" stroke-miterlimit="10" stroke-linecap="round" stroke-linejoin="round"/>
<path d="M368.85 127.35C365.55 134.7 369.75 150.45 363.15 162.3" stroke="white" stroke-width="2" stroke-miterlimit="10" stroke-linecap="round" stroke-linejoin="round"/>
<path d="M391.95 137.4C391.95 145.95 391.35 150.45 391.35 150.45" stroke="white" stroke-width="2" stroke-miterlimit="10" stroke-linecap="round" stroke-linejoin="round"/>
<path d="M391.05 116.1C395.55 120 405 137.4 405 137.4" stroke="white" stroke-width="2" stroke-miterlimit="10" stroke-linecap="round" stroke-linejoin="round"/>
<circle cx="367" cy="97" r="23" fill="white" stroke="black" stroke-width="2"/>
<path d="M390.86 99.502C390.79 103.367 387.824 106.449 384.235 106.384C380.646 106.319 380.897 92.3216 384.487 92.3862C388.076 92.4508 390.929 95.6366 390.86 99.502Z" fill="white"/>
<path d="M384.235 106.384C387.824 106.449 390.79 103.367 390.86 99.502C390.929 95.6366 388.076 92.4508 384.487 92.3862" stroke="black" stroke-width="2"/>
<path d="M385.021 101.404C386.258 101.427 387.281 100.364 387.304 99.0319C387.328 97.6993 386.345 96.601 385.107 96.5788" stroke="black" stroke-width="2"/>
<circle r="1" transform="matrix(-0.683784 0.729684 0.729684 0.683784 365.926 101.149)" fill="black"/>
<circle r="1" transform="matrix(-0.683784 0.729684 0.729684 0.683784 363.191 104.067)" fill="black"/>
<circle r="1" transform="matrix(-0.683784 0.729684 0.729684 0.683784 360.272 101.332)" fill="black"/>
<circle r="1" transform="matrix(-0.683784 0.729684 0.729684 0.683784 360.456 106.986)" fill="black"/>
<circle r="1" transform="matrix(-0.683784 0.729684 0.729684 0.683784 357.537 104.251)" fill="black"/>
<path d="M350.827 104.081C350.574 104.912 348.586 105.445 347.124 105C345.661 104.555 344.624 103 344.624 102" stroke="black" stroke-width="2" stroke-miterlimit="10" stroke-linecap="round" stroke-linejoin="round"/>
<circle cx="357.124" cy="95" r="3" fill="black"/>
<circle cx="346.624" cy="91.5" r="2.5" fill="black"/>
<path d="M240.45 199.2C237.15 193.2 230.25 192 224.4 194.55C211.8 200.1 196.8 204.45 183 200.85C171.45 197.85 162 189.75 160.05 177.75C159 171.45 151.65 167.7 145.8 169.05C139.2 170.7 136.05 177 137.1 183.3C140.25 202.65 156.45 217.5 174.6 223.05C195.15 229.2 216.75 223.65 235.8 215.25C241.8 212.7 243.45 204.45 240.45 199.2Z" fill="white" stroke="black" stroke-width="2" stroke-miterlimit="10" stroke-linecap="round" stroke-linejoin="round"/>
<path d="M66.6 342.9L40.5 355.2L58.8 389.55C58.8 389.55 68.85 384.45 64.8 374.25L77.55 366L66.6 342.9Z" fill="white" stroke="black" stroke-width="2" stroke-miterlimit="10" stroke-linecap="round" stroke-linejoin="round"/>
<path d="M64.95 374.25L66.45 366.3" stroke="black" stroke-width="2" stroke-miterlimit="10" stroke-linecap="round" stroke-linejoin="round"/>
<path d="M61.2 369.9L69 371.1" stroke="black" stroke-width="2" stroke-miterlimit="10" stroke-linecap="round" stroke-linejoin="round"/>
<path d="M225.15 358.8L221.85 387.45L260.7 389.85C260.7 389.85 261.6 378.6 250.95 376.65L250.65 361.5L225.15 358.8Z" fill="white" stroke="black" stroke-width="2" stroke-miterlimit="10" stroke-linecap="round" stroke-linejoin="round"/>
<path d="M250.95 376.8L244.95 371.25" stroke="black" stroke-width="2" stroke-miterlimit="10" stroke-linecap="round" stroke-linejoin="round"/>
<path d="M213.75 364.65L252.15 363.9C254.1 328.05 243.6 287.1 223.65 257.1C204.45 228.3 177.3 206.7 145.65 193.35C138.45 183.45 118.8 186 119.1 201.6C119.85 232.5 121.2 265.05 109.2 294.3C100.05 316.65 77.1 327.75 55.8 338.7C59.85 347.55 70.5 361.35 75.3 369.9C102 356.55 123.3 334.95 135 307.5C145.95 281.85 148.5 254.4 148.5 226.8C196.5 252.45 222.6 304.2 213.75 364.65Z" fill="black"/>
<path d="M245.25 377.7L250.35 371.55" stroke="black" stroke-width="2" stroke-miterlimit="10" stroke-linecap="round" stroke-linejoin="round"/>
<path d="M144.45 162.45C131.55 162.15 123.75 164.55 117.3 210.3L157.05 214.8C157.05 214.8 159.45 201 161.1 189.3C165.45 185.55 163.5 162.9 144.45 162.45Z" fill="black"/>
<path d="M120.6 211.05L142.95 213.15" stroke="white" stroke-width="2" stroke-miterlimit="10" stroke-linecap="round" stroke-linejoin="round"/>
<path d="M239.1 235.5H172.95L198.15 166.95H264.3L239.1 235.5Z" fill="white" stroke="black" stroke-width="2" stroke-miterlimit="10" stroke-linecap="round" stroke-linejoin="round"/>
<path d="M242.85 194.1H201.15L204.6 184.8H246.3L242.85 194.1Z" fill="black"/>
<path d="M225.9 175.95L229.05 167.4" stroke="black" stroke-width="2" stroke-miterlimit="10" stroke-linecap="round" stroke-linejoin="round"/>
<path d="M194.55 176.25C195 176.25 260.85 176.25 260.85 176.25H194.55Z" fill="white"/>
<path d="M194.55 176.25C195 176.25 260.85 176.25 260.85 176.25" stroke="black" stroke-width="2" stroke-miterlimit="10" stroke-linecap="round" stroke-linejoin="round"/>
<path d="M187.65 242.25C191.461 242.25 194.55 239.161 194.55 235.35C194.55 231.539 191.461 228.45 187.65 228.45C183.839 228.45 180.75 231.539 180.75 235.35C180.75 239.161 183.839 242.25 187.65 242.25Z" fill="white" stroke="black" stroke-width="2" stroke-miterlimit="10" stroke-linecap="round" stroke-linejoin="round"/>
<path d="M226.35 242.25C230.161 242.25 233.25 239.161 233.25 235.35C233.25 231.539 230.161 228.45 226.35 228.45C222.539 228.45 219.45 231.539 219.45 235.35C219.45 239.161 222.539 242.25 226.35 242.25Z" fill="white" stroke="black" stroke-width="2" stroke-miterlimit="10" stroke-linecap="round" stroke-linejoin="round"/>
<path d="M265.95 248.4C262.5 237.15 254.4 227.7 243.75 223.35C242.55 226.5 241.5 229.65 240.3 232.8C250.65 237.3 256.95 247.8 257.7 259.35C258.75 274.8 252 287.55 242.4 299.1C225.15 319.65 203.25 313.65 180.45 325.35C181.8 328.5 183 331.65 184.2 334.65C211.65 319.65 231.75 333.75 257.85 294.75C266.7 281.7 270.75 264.15 265.95 248.4Z" fill="white" stroke="black" stroke-width="2" stroke-miterlimit="10" stroke-linecap="round" stroke-linejoin="round"/>
<path d="M187.5 322.2L190.8 331.8" stroke="black" stroke-width="2" stroke-miterlimit="10" stroke-linecap="round" stroke-linejoin="round"/>
<path d="M215.1 316.5L218.4 324.3" stroke="black" stroke-width="2" stroke-miterlimit="10" stroke-linecap="round" stroke-linejoin="round"/>
<path d="M201.15 318.3L203.4 327.6" stroke="black" stroke-width="2" stroke-miterlimit="10" stroke-linecap="round" stroke-linejoin="round"/>
<path d="M230.55 309L237 318.3" stroke="black" stroke-width="2" stroke-miterlimit="10" stroke-linecap="round" stroke-linejoin="round"/>
<path d="M242.4 301.05L248.85 306.75" stroke="black" stroke-width="2" stroke-miterlimit="10" stroke-linecap="round" stroke-linejoin="round"/>
<path d="M249.6 290.7L257.85 294.9" stroke="black" stroke-width="2" stroke-miterlimit="10" stroke-linecap="round" stroke-linejoin="round"/>
<path d="M256.05 278.1L263.85 280.8" stroke="black" stroke-width="2" stroke-miterlimit="10" stroke-linecap="round" stroke-linejoin="round"/>
<path d="M257.85 269.1L267.45 270.9" stroke="black" stroke-width="2" stroke-miterlimit="10" stroke-linecap="round" stroke-linejoin="round"/>
<path d="M258.15 258L267.45 256.95" stroke="black" stroke-width="2" stroke-miterlimit="10" stroke-linecap="round" stroke-linejoin="round"/>
<path d="M256.05 248.4L264.3 244.35" stroke="black" stroke-width="2" stroke-miterlimit="10" stroke-linecap="round" stroke-linejoin="round"/>
<path d="M249.15 237.9L255 231.15" stroke="black" stroke-width="2" stroke-miterlimit="10" stroke-linecap="round" stroke-linejoin="round"/>
<path d="M229.5 210.15C227.4 203.55 220.95 201.15 214.65 202.5C201.15 205.5 185.55 206.85 172.8 200.55C162.15 195.3 154.35 185.55 154.8 173.4C155.1 166.95 148.5 161.85 142.5 162C135.75 162.3 131.4 167.85 131.1 174.3C130.35 193.8 143.25 211.65 160.05 220.65C178.95 230.85 201.3 229.5 221.7 225C228 223.65 231.3 215.85 229.5 210.15Z" fill="white" stroke="black" stroke-width="2" stroke-miterlimit="10" stroke-linecap="round" stroke-linejoin="round"/>
<path d="M213.15 202.8C222.45 200.55 231.15 195.3 232.8 197.85C234.75 201 226.05 201.3 228.15 204.15C230.25 207 241.5 199.65 243.15 203.4C244.8 207.15 232.95 210.6 232.95 210.6C232.95 210.6 242.85 206.25 243.75 209.55C244.65 212.7 233.4 216.3 233.4 216.3C233.4 216.3 243.3 211.95 243.9 214.65C244.5 217.65 235.95 221.4 220.8 225" fill="white"/>
<path d="M213.15 202.8C222.45 200.55 231.15 195.3 232.8 197.85C234.75 201 226.05 201.3 228.15 204.15C230.25 207 241.5 199.65 243.15 203.4C244.8 207.15 232.95 210.6 232.95 210.6C232.95 210.6 242.85 206.25 243.75 209.55C244.65 212.7 233.4 216.3 233.4 216.3C233.4 216.3 243.3 211.95 243.9 214.65C244.5 217.65 235.95 221.4 220.8 225" stroke="black" stroke-width="2" stroke-miterlimit="10" stroke-linecap="round" stroke-linejoin="round"/>
<path d="M214.65 202.5L219.3 225.45" stroke="black" stroke-width="2" stroke-miterlimit="10" stroke-linecap="round" stroke-linejoin="round"/>
<path d="M269.368 306.291L264.162 298.047L255.918 303.254L261.124 311.497L269.368 306.291Z" fill="black"/>
<path d="M278.1 267L281.4 264.15" stroke="black" stroke-width="2" stroke-miterlimit="10" stroke-linecap="round" stroke-linejoin="round"/>
<path d="M256.65 316.35L258.3 321.3" stroke="black" stroke-width="2" stroke-miterlimit="10" stroke-linecap="round" stroke-linejoin="round"/>
<path d="M319.5 314.4L316.2 320.1" stroke="black" stroke-width="2" stroke-miterlimit="10" stroke-linecap="round" stroke-linejoin="round"/>
<path d="M157.8 304.65L152.55 309.6" stroke="black" stroke-width="2" stroke-miterlimit="10" stroke-linecap="round" stroke-linejoin="round"/>
<path d="M316.2 335.1L320.25 338.25" stroke="black" stroke-width="2" stroke-miterlimit="10" stroke-linecap="round" stroke-linejoin="round"/>
<path d="M256.35 224.55L264 226.05" stroke="black" stroke-width="2" stroke-miterlimit="10" stroke-linecap="round" stroke-linejoin="round"/>
<path d="M255.45 217.95L260.4 216" stroke="black" stroke-width="2" stroke-miterlimit="10" stroke-linecap="round" stroke-linejoin="round"/>
<path d="M142 107L145.6 111.05" stroke="black" stroke-width="2" stroke-miterlimit="10" stroke-linecap="round" stroke-linejoin="round"/>
<path d="M129.1 146L127 149.3" stroke="black" stroke-width="2" stroke-miterlimit="10" stroke-linecap="round" stroke-linejoin="round"/>
<path d="M419.85 243.45L417.9 250.05" stroke="black" stroke-width="2" stroke-miterlimit="10" stroke-linecap="round" stroke-linejoin="round"/>
<path d="M374.1 223.2L377.85 226.95" stroke="black" stroke-width="2" stroke-miterlimit="10" stroke-linecap="round" stroke-linejoin="round"/>
<circle cx="157.5" cy="146.5" r="22.5" fill="white" stroke="black" stroke-width="2"/>
<path d="M166.951 138.386C165.485 136.516 162.887 136.105 161.148 137.467C159.41 138.83 159.188 141.451 160.654 143.321" stroke="black" stroke-width="2"/>
<path d="M172.131 135.733C170.768 133.994 171.073 131.48 172.811 130.117" stroke="black" stroke-width="2"/>
<path d="M180.309 143.242L177.718 148.118C175.843 151.649 170.701 151.393 169.185 147.694C169.081 147.44 169.19 147.149 169.436 147.026L179.229 142.135C179.936 141.781 180.68 142.544 180.309 143.242Z" fill="black"/>
<path d="M120.5 110L121.357 109.486L119.63 106.606L119.501 109.962L120.5 110ZM129 127L129.8 127.6L130.553 126.596L129.406 126.086L129 127ZM120.5 131.5L120.409 130.504L119.549 130.582L119.502 131.445L120.5 131.5ZM148.053 143.606C147.559 143.853 147.359 144.453 147.606 144.947C147.853 145.441 148.453 145.641 148.947 145.394L148.053 143.606ZM162.314 129.581C163.221 128.311 164.299 126.159 164.616 123.756C164.938 121.322 164.48 118.566 162.207 116.293L160.793 117.707C162.52 119.434 162.895 121.512 162.634 123.494C162.368 125.508 161.445 127.356 160.686 128.419L162.314 129.581ZM162.207 116.293C160.82 114.906 159.354 114.177 157.788 113.905C156.252 113.639 154.685 113.824 153.113 114.145C149.881 114.805 146.617 116 142.5 116V118C146.883 118 150.619 116.695 153.512 116.105C155.002 115.801 156.279 115.673 157.446 115.876C158.583 116.073 159.68 116.594 160.793 117.707L162.207 116.293ZM142.5 116C138.193 116 133.952 116.119 130.205 115.334C126.513 114.56 123.423 112.928 121.357 109.486L119.642 110.514C122.077 114.572 125.737 116.44 129.795 117.291C133.798 118.131 138.306 118 142.5 118V116ZM119.501 109.962C119.413 112.24 119.752 115.825 121.052 119.277C122.352 122.731 124.663 126.167 128.594 127.914L129.406 126.086C126.137 124.633 124.114 121.736 122.923 118.573C121.732 115.408 121.42 112.094 121.499 110.038L119.501 109.962ZM128.2 126.4C127.323 127.569 124.458 130.136 120.409 130.504L120.591 132.496C125.342 132.064 128.677 129.097 129.8 127.6L128.2 126.4ZM119.502 131.445C119.4 133.279 120.224 135.816 122.77 137.812C125.312 139.804 129.488 141.204 136.031 141L135.969 139C129.712 139.196 126.055 137.846 124.004 136.238C121.959 134.634 121.434 132.721 121.498 131.555L119.502 131.445ZM136.031 141C142.359 140.802 145.477 141.805 146.866 142.742C147.554 143.205 147.755 143.607 147.801 143.783C147.866 144.028 147.701 143.781 148.053 143.606L148.947 145.394C149.799 144.969 149.922 143.984 149.736 143.276C149.532 142.499 148.946 141.732 147.984 141.083C146.073 139.795 142.441 138.798 135.969 139L136.031 141Z" fill="black"/>
<path d="M154.287 154.977C151.787 156.421 148.5 155.408 146.946 152.716C145.392 150.024 146 145.943 148.5 144.5" stroke="black" stroke-width="2"/>
<path d="M416.5 122C414 109 453.5 101 449.5 79.5C448.125 72.1114 436.833 74.3333 432.5 76C411 84 413.963 63.4692 402 53.5C393 46 372 45 360 59.5C350.4 71.1 360 79 366 81.5C369.333 82.8333 377.8 85.1 385 83.5" stroke="black" stroke-width="2"/>
</svg>
