<svg width="586" height="548" viewBox="0 0 586 548" fill="none" xmlns="http://www.w3.org/2000/svg">
<ellipse cx="293" cy="274" rx="275" ry="274" fill="#ECF9FF" fill-opacity="0.5"/>
<g filter="url(#filter0_d)">
<rect x="18" y="72" width="550" height="404" rx="10" fill="#F2F2F2"/>
</g>
<rect x="28" y="82" width="260" height="134" rx="4" fill="white"/>
<path d="M117.186 178.478C117.186 182.498 116.499 185.485 115.126 187.439C113.753 189.394 111.607 190.371 108.688 190.371C105.805 190.371 103.672 189.419 102.286 187.514C100.901 185.596 100.183 182.739 100.134 178.941V174.358C100.134 170.388 100.82 167.438 102.193 165.508C103.566 163.578 105.719 162.613 108.65 162.613C111.557 162.613 113.697 163.547 115.07 165.415C116.443 167.271 117.148 170.14 117.186 174.024V178.478ZM113.753 173.783C113.753 170.876 113.345 168.761 112.528 167.438C111.712 166.102 110.419 165.434 108.65 165.434C106.894 165.434 105.614 166.095 104.81 167.419C104.006 168.743 103.591 170.777 103.566 173.523V179.016C103.566 181.935 103.987 184.093 104.828 185.491C105.682 186.877 106.968 187.569 108.688 187.569C110.382 187.569 111.638 186.914 112.454 185.603C113.283 184.291 113.716 182.226 113.753 179.405V173.783ZM136.074 180.927H139.822V183.729H136.074V190H132.623V183.729H120.321V181.706L132.419 162.984H136.074V180.927ZM124.218 180.927H132.623V167.679L132.215 168.421L124.218 180.927ZM143.162 188.2C143.162 187.606 143.335 187.112 143.682 186.716C144.04 186.32 144.572 186.122 145.277 186.122C145.982 186.122 146.514 186.32 146.873 186.716C147.244 187.112 147.43 187.606 147.43 188.2C147.43 188.769 147.244 189.245 146.873 189.629C146.514 190.012 145.982 190.204 145.277 190.204C144.572 190.204 144.04 190.012 143.682 189.629C143.335 189.245 143.162 188.769 143.162 188.2ZM143.181 171.816C143.181 171.223 143.354 170.728 143.7 170.332C144.059 169.936 144.591 169.738 145.296 169.738C146.001 169.738 146.533 169.936 146.892 170.332C147.263 170.728 147.448 171.223 147.448 171.816C147.448 172.385 147.263 172.862 146.892 173.245C146.533 173.629 146.001 173.82 145.296 173.82C144.591 173.82 144.059 173.629 143.7 173.245C143.354 172.862 143.181 172.385 143.181 171.816ZM169.825 190H152.124V187.532L161.476 177.142C162.861 175.571 163.813 174.297 164.333 173.319C164.865 172.33 165.131 171.309 165.131 170.258C165.131 168.848 164.704 167.691 163.851 166.788C162.997 165.885 161.859 165.434 160.437 165.434C158.729 165.434 157.4 165.922 156.447 166.899C155.507 167.864 155.037 169.213 155.037 170.944H151.604C151.604 168.458 152.402 166.448 153.998 164.914C155.606 163.38 157.752 162.613 160.437 162.613C162.948 162.613 164.933 163.275 166.393 164.599C167.852 165.91 168.582 167.66 168.582 169.85C168.582 172.509 166.887 175.676 163.498 179.35L156.262 187.198H169.825V190ZM184.743 190H181.292V167.122L174.371 169.664V166.547L184.205 162.854H184.743V190ZM195.041 188.2C195.041 187.606 195.214 187.112 195.561 186.716C195.919 186.32 196.451 186.122 197.156 186.122C197.861 186.122 198.393 186.32 198.752 186.716C199.123 187.112 199.309 187.606 199.309 188.2C199.309 188.769 199.123 189.245 198.752 189.629C198.393 190.012 197.861 190.204 197.156 190.204C196.451 190.204 195.919 190.012 195.561 189.629C195.214 189.245 195.041 188.769 195.041 188.2ZM195.06 171.816C195.06 171.223 195.233 170.728 195.579 170.332C195.938 169.936 196.47 169.738 197.175 169.738C197.88 169.738 198.412 169.936 198.771 170.332C199.142 170.728 199.327 171.223 199.327 171.816C199.327 172.385 199.142 172.862 198.771 173.245C198.412 173.629 197.88 173.82 197.175 173.82C196.47 173.82 195.938 173.629 195.579 173.245C195.233 172.862 195.06 172.385 195.06 171.816ZM215.284 190H211.833V167.122L204.912 169.664V166.547L214.746 162.854H215.284V190ZM243.042 190H225.341V187.532L234.692 177.142C236.078 175.571 237.03 174.297 237.55 173.319C238.082 172.33 238.348 171.309 238.348 170.258C238.348 168.848 237.921 167.691 237.067 166.788C236.214 165.885 235.076 165.434 233.653 165.434C231.946 165.434 230.617 165.922 229.664 166.899C228.724 167.864 228.254 169.213 228.254 170.944H224.821C224.821 168.458 225.619 166.448 227.215 164.914C228.823 163.38 230.969 162.613 233.653 162.613C236.164 162.613 238.15 163.275 239.609 164.599C241.069 165.91 241.799 167.66 241.799 169.85C241.799 172.509 240.104 175.676 236.715 179.35L229.479 187.198H243.042V190Z" fill="#FF0000"/>
<path d="M49.0767 110.846H44.0132L42.876 114H41.2324L45.8477 101.914H47.2422L51.8657 114H50.2305L49.0767 110.846ZM44.4946 109.534H48.6035L46.5449 103.881L44.4946 109.534ZM43.9053 100.046C43.9053 99.7974 43.98 99.5898 44.1294 99.4238C44.2843 99.2523 44.5112 99.1665 44.8101 99.1665C45.1089 99.1665 45.3358 99.2523 45.4907 99.4238C45.6457 99.5898 45.7231 99.7974 45.7231 100.046C45.7231 100.295 45.6457 100.503 45.4907 100.669C45.3358 100.835 45.1089 100.918 44.8101 100.918C44.5112 100.918 44.2843 100.835 44.1294 100.669C43.98 100.503 43.9053 100.295 43.9053 100.046ZM47.4746 100.063C47.4746 99.814 47.5493 99.6037 47.6987 99.4321C47.8537 99.2606 48.0806 99.1748 48.3794 99.1748C48.6782 99.1748 48.9051 99.2606 49.0601 99.4321C49.215 99.6037 49.2925 99.814 49.2925 100.063C49.2925 100.312 49.215 100.52 49.0601 100.686C48.9051 100.852 48.6782 100.935 48.3794 100.935C48.0806 100.935 47.8537 100.852 47.6987 100.686C47.5493 100.52 47.4746 100.312 47.4746 100.063ZM54.9204 114H53.3848V101.25H54.9204V114ZM59.4692 102.844V105.019H61.146V106.206H59.4692V111.775C59.4692 112.135 59.5439 112.406 59.6934 112.589C59.8428 112.766 60.0973 112.854 60.457 112.854C60.6341 112.854 60.8776 112.821 61.1875 112.755V114C60.7835 114.111 60.3906 114.166 60.0088 114.166C59.3226 114.166 58.8052 113.958 58.4565 113.543C58.1079 113.128 57.9336 112.539 57.9336 111.775V106.206H56.2983V105.019H57.9336V102.844H59.4692ZM66.6743 114.166C65.4569 114.166 64.4663 113.768 63.7026 112.971C62.939 112.168 62.5571 111.097 62.5571 109.758V109.476C62.5571 108.585 62.7259 107.791 63.0635 107.094C63.4066 106.391 63.8825 105.843 64.4912 105.45C65.1055 105.052 65.7695 104.853 66.4834 104.853C67.651 104.853 68.5586 105.237 69.2061 106.006C69.8535 106.776 70.1772 107.877 70.1772 109.31V109.949H64.0928C64.1149 110.835 64.3722 111.551 64.8647 112.099C65.3628 112.641 65.9937 112.913 66.7573 112.913C67.2996 112.913 67.759 112.802 68.1353 112.581C68.5116 112.359 68.8408 112.066 69.123 111.701L70.061 112.431C69.3084 113.588 68.1795 114.166 66.6743 114.166ZM66.4834 106.114C65.8636 106.114 65.3434 106.341 64.9229 106.795C64.5023 107.243 64.2422 107.874 64.1426 108.688H68.6416V108.571C68.5973 107.791 68.387 107.188 68.0107 106.762C67.6344 106.33 67.1253 106.114 66.4834 106.114ZM77.1914 111.618C77.1914 111.203 77.0337 110.882 76.7183 110.655C76.4084 110.422 75.8633 110.223 75.083 110.057C74.3083 109.891 73.6912 109.692 73.2319 109.459C72.7782 109.227 72.4406 108.95 72.2192 108.629C72.0034 108.308 71.8955 107.927 71.8955 107.484C71.8955 106.748 72.2054 106.125 72.8252 105.616C73.4505 105.107 74.2474 104.853 75.2158 104.853C76.234 104.853 77.0586 105.115 77.6895 105.641C78.3258 106.167 78.644 106.839 78.644 107.658H77.1001C77.1001 107.238 76.9202 106.875 76.5605 106.571C76.2064 106.266 75.7581 106.114 75.2158 106.114C74.6569 106.114 74.2197 106.236 73.9043 106.479C73.5889 106.723 73.4312 107.041 73.4312 107.434C73.4312 107.805 73.5778 108.084 73.8711 108.272C74.1644 108.461 74.6929 108.64 75.4565 108.812C76.2257 108.984 76.8483 109.188 77.3242 109.426C77.8001 109.664 78.1515 109.952 78.3784 110.29C78.6108 110.622 78.7271 111.028 78.7271 111.51C78.7271 112.312 78.4061 112.957 77.7642 113.444C77.1222 113.925 76.2894 114.166 75.2656 114.166C74.5462 114.166 73.9098 114.039 73.3564 113.784C72.8031 113.53 72.3687 113.175 72.0532 112.722C71.7433 112.262 71.5884 111.767 71.5884 111.236H73.124C73.1517 111.75 73.3564 112.16 73.7383 112.464C74.1257 112.763 74.6348 112.913 75.2656 112.913C75.8467 112.913 76.3115 112.796 76.6602 112.564C77.0143 112.326 77.1914 112.011 77.1914 111.618ZM82.811 102.844V105.019H84.4878V106.206H82.811V111.775C82.811 112.135 82.8857 112.406 83.0352 112.589C83.1846 112.766 83.4391 112.854 83.7988 112.854C83.9759 112.854 84.2194 112.821 84.5293 112.755V114C84.1253 114.111 83.7324 114.166 83.3506 114.166C82.6644 114.166 82.147 113.958 81.7983 113.543C81.4497 113.128 81.2754 112.539 81.2754 111.775V106.206H79.6401V105.019H81.2754V102.844H82.811ZM90.0161 114.166C88.7987 114.166 87.8081 113.768 87.0444 112.971C86.2808 112.168 85.8989 111.097 85.8989 109.758V109.476C85.8989 108.585 86.0677 107.791 86.4053 107.094C86.7484 106.391 87.2243 105.843 87.833 105.45C88.4473 105.052 89.1113 104.853 89.8252 104.853C90.9928 104.853 91.9004 105.237 92.5479 106.006C93.1953 106.776 93.519 107.877 93.519 109.31V109.949H87.4346C87.4567 110.835 87.714 111.551 88.2065 112.099C88.7046 112.641 89.3354 112.913 90.0991 112.913C90.6414 112.913 91.1007 112.802 91.4771 112.581C91.8534 112.359 92.1826 112.066 92.4648 111.701L93.4028 112.431C92.6502 113.588 91.5213 114.166 90.0161 114.166ZM89.8252 106.114C89.2054 106.114 88.6852 106.341 88.2646 106.795C87.8441 107.243 87.584 107.874 87.4844 108.688H91.9834V108.571C91.9391 107.791 91.7288 107.188 91.3525 106.762C90.9762 106.33 90.4671 106.114 89.8252 106.114ZM99.645 106.396C99.4126 106.358 99.1608 106.338 98.8896 106.338C97.8825 106.338 97.1991 106.767 96.8394 107.625V114H95.3037V105.019H96.7979L96.8228 106.056C97.3263 105.254 98.0402 104.853 98.9644 104.853C99.2632 104.853 99.4901 104.891 99.645 104.969V106.396ZM110.826 113.112C110.229 113.815 109.351 114.166 108.195 114.166C107.237 114.166 106.507 113.889 106.003 113.336C105.505 112.777 105.254 111.952 105.248 110.862V105.019H106.784V110.821C106.784 112.182 107.337 112.863 108.444 112.863C109.617 112.863 110.397 112.426 110.785 111.551V105.019H112.32V114H110.859L110.826 113.112ZM116.114 105.019L116.164 106.147C116.85 105.284 117.746 104.853 118.853 104.853C120.751 104.853 121.708 105.923 121.725 108.065V114H120.189V108.057C120.184 107.409 120.035 106.931 119.741 106.621C119.453 106.311 119.002 106.156 118.388 106.156C117.89 106.156 117.453 106.289 117.077 106.554C116.7 106.82 116.407 107.168 116.197 107.6V114H114.661V105.019H116.114ZM131.645 109.609C131.645 110.981 131.329 112.085 130.698 112.921C130.067 113.751 129.221 114.166 128.158 114.166C127.024 114.166 126.147 113.765 125.527 112.962L125.452 114H124.041V101.25H125.577V106.006C126.196 105.237 127.051 104.853 128.142 104.853C129.232 104.853 130.087 105.265 130.707 106.089C131.332 106.914 131.645 108.043 131.645 109.476V109.609ZM130.109 109.435C130.109 108.389 129.907 107.581 129.503 107.011C129.099 106.441 128.518 106.156 127.76 106.156C126.747 106.156 126.019 106.626 125.577 107.567V111.452C126.047 112.392 126.78 112.863 127.776 112.863C128.512 112.863 129.085 112.578 129.495 112.008C129.904 111.438 130.109 110.58 130.109 109.435ZM137.314 114.166C136.097 114.166 135.106 113.768 134.342 112.971C133.579 112.168 133.197 111.097 133.197 109.758V109.476C133.197 108.585 133.366 107.791 133.703 107.094C134.046 106.391 134.522 105.843 135.131 105.45C135.745 105.052 136.409 104.853 137.123 104.853C138.291 104.853 139.198 105.237 139.846 106.006C140.493 106.776 140.817 107.877 140.817 109.31V109.949H134.732C134.755 110.835 135.012 111.551 135.504 112.099C136.002 112.641 136.633 112.913 137.397 112.913C137.939 112.913 138.399 112.802 138.775 112.581C139.151 112.359 139.48 112.066 139.763 111.701L140.701 112.431C139.948 113.588 138.819 114.166 137.314 114.166ZM137.123 106.114C136.503 106.114 135.983 106.341 135.562 106.795C135.142 107.243 134.882 107.874 134.782 108.688H139.281V108.571C139.237 107.791 139.027 107.188 138.65 106.762C138.274 106.33 137.765 106.114 137.123 106.114ZM148.146 114C148.058 113.823 147.986 113.507 147.931 113.054C147.217 113.795 146.365 114.166 145.374 114.166C144.489 114.166 143.761 113.917 143.191 113.419C142.626 112.915 142.344 112.279 142.344 111.51C142.344 110.575 142.698 109.85 143.407 109.335C144.121 108.815 145.122 108.555 146.412 108.555H147.906V107.849C147.906 107.312 147.745 106.886 147.424 106.571C147.103 106.25 146.63 106.089 146.005 106.089C145.457 106.089 144.998 106.228 144.627 106.504C144.256 106.781 144.071 107.116 144.071 107.509H142.527C142.527 107.061 142.685 106.629 143 106.214C143.321 105.793 143.753 105.461 144.295 105.218C144.843 104.974 145.443 104.853 146.096 104.853C147.131 104.853 147.942 105.113 148.528 105.633C149.115 106.147 149.419 106.859 149.441 107.766V111.9C149.441 112.724 149.547 113.38 149.757 113.867V114H148.146ZM145.598 112.83C146.08 112.83 146.536 112.705 146.968 112.456C147.399 112.207 147.712 111.883 147.906 111.485V109.642H146.702C144.821 109.642 143.88 110.193 143.88 111.294C143.88 111.775 144.04 112.152 144.361 112.423C144.682 112.694 145.095 112.83 145.598 112.83ZM153.301 105.019L153.351 106.147C154.037 105.284 154.934 104.853 156.041 104.853C157.939 104.853 158.896 105.923 158.913 108.065V114H157.377V108.057C157.371 107.409 157.222 106.931 156.929 106.621C156.641 106.311 156.19 106.156 155.576 106.156C155.078 106.156 154.64 106.289 154.264 106.554C153.888 106.82 153.595 107.168 153.384 107.6V114H151.849V105.019H153.301ZM163.312 102.844V105.019H164.989V106.206H163.312V111.775C163.312 112.135 163.387 112.406 163.536 112.589C163.686 112.766 163.94 112.854 164.3 112.854C164.477 112.854 164.72 112.821 165.03 112.755V114C164.626 114.111 164.233 114.166 163.852 114.166C163.165 114.166 162.648 113.958 162.299 113.543C161.951 113.128 161.776 112.539 161.776 111.775V106.206H160.141V105.019H161.776V102.844H163.312ZM174.742 111.883L176.469 105.019H178.004L175.39 114H174.145L171.961 107.193L169.836 114H168.591L165.985 105.019H167.512L169.28 111.742L171.372 105.019H172.609L174.742 111.883ZM179.167 109.426C179.167 108.546 179.338 107.755 179.681 107.052C180.03 106.349 180.511 105.807 181.125 105.425C181.745 105.043 182.451 104.853 183.242 104.853C184.465 104.853 185.453 105.276 186.206 106.123C186.964 106.969 187.343 108.095 187.343 109.501V109.609C187.343 110.483 187.174 111.269 186.836 111.966C186.504 112.658 186.026 113.198 185.4 113.585C184.781 113.972 184.067 114.166 183.259 114.166C182.041 114.166 181.054 113.743 180.295 112.896C179.543 112.049 179.167 110.929 179.167 109.534V109.426ZM180.71 109.609C180.71 110.605 180.94 111.405 181.399 112.008C181.864 112.611 182.484 112.913 183.259 112.913C184.039 112.913 184.659 112.608 185.118 112C185.577 111.385 185.807 110.528 185.807 109.426C185.807 108.441 185.572 107.644 185.102 107.036C184.637 106.421 184.017 106.114 183.242 106.114C182.484 106.114 181.873 106.416 181.408 107.019C180.943 107.622 180.71 108.486 180.71 109.609ZM193.61 106.396C193.377 106.358 193.126 106.338 192.854 106.338C191.847 106.338 191.164 106.767 190.804 107.625V114H189.269V105.019H190.763L190.788 106.056C191.291 105.254 192.005 104.853 192.929 104.853C193.228 104.853 193.455 104.891 193.61 104.969V106.396ZM197.528 102.844V105.019H199.205V106.206H197.528V111.775C197.528 112.135 197.603 112.406 197.752 112.589C197.901 112.766 198.156 112.854 198.516 112.854C198.693 112.854 198.936 112.821 199.246 112.755V114C198.842 114.111 198.449 114.166 198.067 114.166C197.381 114.166 196.864 113.958 196.515 113.543C196.167 113.128 195.992 112.539 195.992 111.775V106.206H194.357V105.019H195.992V102.844H197.528ZM204.733 114.166C203.515 114.166 202.525 113.768 201.761 112.971C200.998 112.168 200.616 111.097 200.616 109.758V109.476C200.616 108.585 200.785 107.791 201.122 107.094C201.465 106.391 201.941 105.843 202.55 105.45C203.164 105.052 203.828 104.853 204.542 104.853C205.71 104.853 206.617 105.237 207.265 106.006C207.912 106.776 208.236 107.877 208.236 109.31V109.949H202.151C202.174 110.835 202.431 111.551 202.923 112.099C203.421 112.641 204.052 112.913 204.816 112.913C205.358 112.913 205.818 112.802 206.194 112.581C206.57 112.359 206.899 112.066 207.182 111.701L208.12 112.431C207.367 113.588 206.238 114.166 204.733 114.166ZM204.542 106.114C203.922 106.114 203.402 106.341 202.981 106.795C202.561 107.243 202.301 107.874 202.201 108.688H206.7V108.571C206.656 107.791 206.446 107.188 206.069 106.762C205.693 106.33 205.184 106.114 204.542 106.114ZM212.104 102.844V105.019H213.781V106.206H212.104V111.775C212.104 112.135 212.179 112.406 212.328 112.589C212.478 112.766 212.732 112.854 213.092 112.854C213.269 112.854 213.512 112.821 213.822 112.755V114C213.418 114.111 213.025 114.166 212.644 114.166C211.957 114.166 211.44 113.958 211.091 113.543C210.743 113.128 210.568 112.539 210.568 111.775V106.206H208.933V105.019H210.568V102.844H212.104ZM219.309 114.166C218.092 114.166 217.101 113.768 216.337 112.971C215.574 112.168 215.192 111.097 215.192 109.758V109.476C215.192 108.585 215.361 107.791 215.698 107.094C216.041 106.391 216.517 105.843 217.126 105.45C217.74 105.052 218.404 104.853 219.118 104.853C220.286 104.853 221.193 105.237 221.841 106.006C222.488 106.776 222.812 107.877 222.812 109.31V109.949H216.728C216.75 110.835 217.007 111.551 217.5 112.099C217.998 112.641 218.628 112.913 219.392 112.913C219.934 112.913 220.394 112.802 220.77 112.581C221.146 112.359 221.476 112.066 221.758 111.701L222.696 112.431C221.943 113.588 220.814 114.166 219.309 114.166ZM219.118 106.114C218.498 106.114 217.978 106.341 217.558 106.795C217.137 107.243 216.877 107.874 216.777 108.688H221.276V108.571C221.232 107.791 221.022 107.188 220.646 106.762C220.269 106.33 219.76 106.114 219.118 106.114ZM228.938 106.396C228.706 106.358 228.454 106.338 228.183 106.338C227.175 106.338 226.492 106.767 226.132 107.625V114H224.597V105.019H226.091L226.116 106.056C226.619 105.254 227.333 104.853 228.257 104.853C228.556 104.853 228.783 104.891 228.938 104.969V106.396ZM241.489 110.846H236.425L235.288 114H233.645L238.26 101.914H239.654L244.278 114H242.643L241.489 110.846ZM236.907 109.534H241.016L238.957 103.881L236.907 109.534ZM247.117 105.019L247.167 106.147C247.853 105.284 248.749 104.853 249.856 104.853C251.754 104.853 252.711 105.923 252.728 108.065V114H251.192V108.057C251.187 107.409 251.037 106.931 250.744 106.621C250.456 106.311 250.005 106.156 249.391 106.156C248.893 106.156 248.456 106.289 248.08 106.554C247.703 106.82 247.41 107.168 247.2 107.6V114H245.664V105.019H247.117ZM259.385 106.396C259.153 106.358 258.901 106.338 258.63 106.338C257.623 106.338 256.939 106.767 256.58 107.625V114H255.044V105.019H256.538L256.563 106.056C257.067 105.254 257.78 104.853 258.705 104.853C259.003 104.853 259.23 104.891 259.385 104.969V106.396ZM266.35 113.112C265.752 113.815 264.875 114.166 263.718 114.166C262.761 114.166 262.03 113.889 261.527 113.336C261.029 112.777 260.777 111.952 260.771 110.862V105.019H262.307V110.821C262.307 112.182 262.861 112.863 263.967 112.863C265.14 112.863 265.921 112.426 266.308 111.551V105.019H267.844V114H266.383L266.35 113.112ZM270.94 114V106.206H269.521V105.019H270.94V104.097C270.94 103.134 271.197 102.39 271.712 101.864C272.227 101.339 272.954 101.076 273.895 101.076C274.249 101.076 274.601 101.123 274.949 101.217L274.866 102.462C274.606 102.412 274.329 102.387 274.036 102.387C273.538 102.387 273.153 102.534 272.882 102.827C272.611 103.115 272.476 103.53 272.476 104.072V105.019H274.393V106.206H272.476V114H270.94Z" fill="black"/>
<rect x="28" y="226" width="260" height="240" rx="4" fill="white"/>
<rect x="41" y="420" width="234" height="33" rx="5" fill="#5CB000"/>
<path d="M229.299 404H223.709V403.221L226.662 399.939C227.1 399.443 227.4 399.041 227.564 398.732C227.732 398.42 227.816 398.098 227.816 397.766C227.816 397.32 227.682 396.955 227.412 396.67C227.143 396.385 226.783 396.242 226.334 396.242C225.795 396.242 225.375 396.396 225.074 396.705C224.777 397.01 224.629 397.436 224.629 397.982H223.545C223.545 397.197 223.797 396.562 224.301 396.078C224.809 395.594 225.486 395.352 226.334 395.352C227.127 395.352 227.754 395.561 228.215 395.979C228.676 396.393 228.906 396.945 228.906 397.637C228.906 398.477 228.371 399.477 227.301 400.637L225.016 403.115H229.299V404Z" fill="black"/>
<path d="M226.914 383.885L228.848 377.469H230.805L227.834 386H226L223.041 377.469H224.992L226.914 383.885ZM234.162 386.117C233.232 386.117 232.475 385.832 231.889 385.262C231.307 384.691 231.016 383.932 231.016 382.982V382.818C231.016 382.182 231.139 381.613 231.385 381.113C231.631 380.609 231.979 380.223 232.428 379.953C232.881 379.68 233.396 379.543 233.975 379.543C234.842 379.543 235.523 379.816 236.02 380.363C236.52 380.91 236.77 381.686 236.77 382.689V383.381H232.732C232.787 383.795 232.951 384.127 233.225 384.377C233.502 384.627 233.852 384.752 234.273 384.752C234.926 384.752 235.436 384.516 235.803 384.043L236.635 384.975C236.381 385.334 236.037 385.615 235.604 385.818C235.17 386.018 234.689 386.117 234.162 386.117ZM233.969 380.914C233.633 380.914 233.359 381.027 233.148 381.254C232.941 381.48 232.809 381.805 232.75 382.227H235.105V382.092C235.098 381.717 234.996 381.428 234.801 381.225C234.605 381.018 234.328 380.914 233.969 380.914ZM241.299 381.248C241.068 381.217 240.865 381.201 240.689 381.201C240.049 381.201 239.629 381.418 239.43 381.852V386H237.736V379.66H239.336L239.383 380.416C239.723 379.834 240.193 379.543 240.795 379.543C240.982 379.543 241.158 379.568 241.322 379.619L241.299 381.248ZM247.826 382.889C247.826 383.865 247.604 384.648 247.158 385.238C246.717 385.824 246.119 386.117 245.365 386.117C244.725 386.117 244.207 385.895 243.812 385.449V388.438H242.119V379.66H243.689L243.748 380.281C244.158 379.789 244.693 379.543 245.354 379.543C246.135 379.543 246.742 379.832 247.176 380.41C247.609 380.988 247.826 381.785 247.826 382.801V382.889ZM246.133 382.766C246.133 382.176 246.027 381.721 245.816 381.4C245.609 381.08 245.307 380.92 244.908 380.92C244.377 380.92 244.012 381.123 243.812 381.529V384.125C244.02 384.543 244.389 384.752 244.92 384.752C245.729 384.752 246.133 384.09 246.133 382.766ZM252.555 386C252.477 385.848 252.42 385.658 252.385 385.432C251.975 385.889 251.441 386.117 250.785 386.117C250.164 386.117 249.648 385.938 249.238 385.578C248.832 385.219 248.629 384.766 248.629 384.219C248.629 383.547 248.877 383.031 249.373 382.672C249.873 382.312 250.594 382.131 251.535 382.127H252.314V381.764C252.314 381.471 252.238 381.236 252.086 381.061C251.938 380.885 251.701 380.797 251.377 380.797C251.092 380.797 250.867 380.865 250.703 381.002C250.543 381.139 250.463 381.326 250.463 381.564H248.77C248.77 381.197 248.883 380.857 249.109 380.545C249.336 380.232 249.656 379.988 250.07 379.812C250.484 379.633 250.949 379.543 251.465 379.543C252.246 379.543 252.865 379.74 253.322 380.135C253.783 380.525 254.014 381.076 254.014 381.787V384.535C254.018 385.137 254.102 385.592 254.266 385.9V386H252.555ZM251.154 384.822C251.404 384.822 251.635 384.768 251.846 384.658C252.057 384.545 252.213 384.395 252.314 384.207V383.117H251.682C250.834 383.117 250.383 383.41 250.328 383.996L250.322 384.096C250.322 384.307 250.396 384.48 250.545 384.617C250.693 384.754 250.896 384.822 251.154 384.822ZM258.748 384.248C258.748 384.041 258.645 383.879 258.438 383.762C258.234 383.641 257.906 383.533 257.453 383.439C255.945 383.123 255.191 382.482 255.191 381.518C255.191 380.955 255.424 380.486 255.889 380.111C256.357 379.732 256.969 379.543 257.723 379.543C258.527 379.543 259.17 379.732 259.65 380.111C260.135 380.49 260.377 380.982 260.377 381.588H258.684C258.684 381.346 258.605 381.146 258.449 380.99C258.293 380.83 258.049 380.75 257.717 380.75C257.432 380.75 257.211 380.814 257.055 380.943C256.898 381.072 256.82 381.236 256.82 381.436C256.82 381.623 256.908 381.775 257.084 381.893C257.264 382.006 257.564 382.105 257.986 382.191C258.408 382.273 258.764 382.367 259.053 382.473C259.947 382.801 260.395 383.369 260.395 384.178C260.395 384.756 260.146 385.225 259.65 385.584C259.154 385.939 258.514 386.117 257.729 386.117C257.197 386.117 256.725 386.023 256.311 385.836C255.9 385.645 255.578 385.385 255.344 385.057C255.109 384.725 254.992 384.367 254.992 383.984H256.598C256.613 384.285 256.725 384.516 256.932 384.676C257.139 384.836 257.416 384.916 257.764 384.916C258.088 384.916 258.332 384.855 258.496 384.734C258.664 384.609 258.748 384.447 258.748 384.248ZM264.924 384.248C264.924 384.041 264.82 383.879 264.613 383.762C264.41 383.641 264.082 383.533 263.629 383.439C262.121 383.123 261.367 382.482 261.367 381.518C261.367 380.955 261.6 380.486 262.064 380.111C262.533 379.732 263.145 379.543 263.898 379.543C264.703 379.543 265.346 379.732 265.826 380.111C266.311 380.49 266.553 380.982 266.553 381.588H264.859C264.859 381.346 264.781 381.146 264.625 380.99C264.469 380.83 264.225 380.75 263.893 380.75C263.607 380.75 263.387 380.814 263.23 380.943C263.074 381.072 262.996 381.236 262.996 381.436C262.996 381.623 263.084 381.775 263.26 381.893C263.439 382.006 263.74 382.105 264.162 382.191C264.584 382.273 264.939 382.367 265.229 382.473C266.123 382.801 266.57 383.369 266.57 384.178C266.57 384.756 266.322 385.225 265.826 385.584C265.33 385.939 264.689 386.117 263.904 386.117C263.373 386.117 262.9 386.023 262.486 385.836C262.076 385.645 261.754 385.385 261.52 385.057C261.285 384.725 261.168 384.367 261.168 383.984H262.773C262.789 384.285 262.9 384.516 263.107 384.676C263.314 384.836 263.592 384.916 263.939 384.916C264.264 384.916 264.508 384.855 264.672 384.734C264.84 384.609 264.924 384.447 264.924 384.248ZM269.693 378.102V379.66H270.777V380.902H269.693V384.066C269.693 384.301 269.738 384.469 269.828 384.57C269.918 384.672 270.09 384.723 270.344 384.723C270.531 384.723 270.697 384.709 270.842 384.682V385.965C270.51 386.066 270.168 386.117 269.816 386.117C268.629 386.117 268.023 385.518 268 384.318V380.902H267.074V379.66H268V378.102H269.693ZM271.803 385.168C271.803 384.898 271.893 384.68 272.072 384.512C272.256 384.344 272.484 384.26 272.758 384.26C273.035 384.26 273.264 384.344 273.443 384.512C273.627 384.68 273.719 384.898 273.719 385.168C273.719 385.434 273.629 385.65 273.449 385.818C273.27 385.982 273.039 386.064 272.758 386.064C272.48 386.064 272.252 385.982 272.072 385.818C271.893 385.65 271.803 385.434 271.803 385.168ZM271.803 380.369C271.803 380.1 271.893 379.881 272.072 379.713C272.256 379.545 272.484 379.461 272.758 379.461C273.035 379.461 273.264 379.545 273.443 379.713C273.627 379.881 273.719 380.1 273.719 380.369C273.719 380.635 273.629 380.852 273.449 381.02C273.27 381.184 273.039 381.266 272.758 381.266C272.48 381.266 272.252 381.184 272.072 381.02C271.893 380.852 271.803 380.635 271.803 380.369Z" fill="black"/>
<path d="M208 382L199.871 390.129L191.742 382" stroke="black" stroke-width="2"/>
<path d="M191.742 386.645V382H196.387" stroke="black" stroke-width="2"/>
<path d="M199.717 395.831C204.899 395.831 208.559 397.113 209.742 397.753V396.715C209.742 395.821 209.183 395.011 208.289 394.757C206.409 394.223 203.326 393.613 199.717 393.613C196.275 393.613 193.418 394.017 191.618 394.391C190.641 394.593 190 395.442 190 396.4V397.753C191.08 397.113 194.534 395.831 199.717 395.831Z" fill="#FF0000"/>
<path d="M209.742 398.521C209.742 399.483 208.799 400.189 207.826 399.956L204.124 399.068C203.437 398.904 202.956 398.312 202.956 397.634V395.803C202.956 394.841 203.899 394.135 204.872 394.368L208.574 395.255C209.26 395.42 209.742 396.011 209.742 396.69V398.521Z" fill="#FF0000"/>
<path d="M190 398.521C190 399.483 190.943 400.189 191.916 399.956L195.618 399.068C196.305 398.904 196.786 398.312 196.786 397.634V395.803C196.786 394.841 195.843 394.135 194.87 394.368L191.168 395.255C190.482 395.42 190 396.011 190 396.69V398.521Z" fill="#FF0000"/>
<path d="M81.2715 404H80.1816V396.775L77.9961 397.578V396.594L81.1016 395.428H81.2715V404ZM88.0098 404H86.9199V396.775L84.7344 397.578V396.594L87.8398 395.428H88.0098V404Z" fill="black"/>
<path d="M82.5781 384.242H79.4961L78.9102 386H77.041L80.2168 377.469H81.8457L85.0391 386H83.1699L82.5781 384.242ZM79.9707 382.818H82.1035L81.0312 379.625L79.9707 382.818ZM87.002 379.66L87.0547 380.393C87.5078 379.826 88.1152 379.543 88.877 379.543C89.5488 379.543 90.0488 379.74 90.377 380.135C90.7051 380.529 90.873 381.119 90.8809 381.904V386H89.1875V381.945C89.1875 381.586 89.1094 381.326 88.9531 381.166C88.7969 381.002 88.5371 380.92 88.1738 380.92C87.6973 380.92 87.3398 381.123 87.1016 381.529V386H85.4082V379.66H87.002ZM91.9238 382.783C91.9238 381.811 92.1543 381.027 92.6152 380.434C93.0801 379.84 93.7051 379.543 94.4902 379.543C95.1855 379.543 95.7266 379.781 96.1133 380.258L96.1836 379.66H97.7188V385.789C97.7188 386.344 97.5918 386.826 97.3379 387.236C97.0879 387.646 96.7344 387.959 96.2773 388.174C95.8203 388.389 95.2852 388.496 94.6719 388.496C94.207 388.496 93.7539 388.402 93.3125 388.215C92.8711 388.031 92.5371 387.793 92.3105 387.5L93.0605 386.469C93.4824 386.941 93.9941 387.178 94.5957 387.178C95.0449 387.178 95.3945 387.057 95.6445 386.814C95.8945 386.576 96.0195 386.236 96.0195 385.795V385.455C95.6289 385.896 95.1152 386.117 94.4785 386.117C93.7168 386.117 93.0996 385.82 92.627 385.227C92.1582 384.629 91.9238 383.838 91.9238 382.854V382.783ZM93.6172 382.906C93.6172 383.48 93.7324 383.932 93.9629 384.26C94.1934 384.584 94.5098 384.746 94.9121 384.746C95.4277 384.746 95.7969 384.553 96.0195 384.166V381.5C95.793 381.113 95.4277 380.92 94.9238 380.92C94.5176 380.92 94.1973 381.086 93.9629 381.418C93.7324 381.75 93.6172 382.246 93.6172 382.906ZM101.943 386.117C101.014 386.117 100.256 385.832 99.6699 385.262C99.0879 384.691 98.7969 383.932 98.7969 382.982V382.818C98.7969 382.182 98.9199 381.613 99.166 381.113C99.4121 380.609 99.7598 380.223 100.209 379.953C100.662 379.68 101.178 379.543 101.756 379.543C102.623 379.543 103.305 379.816 103.801 380.363C104.301 380.91 104.551 381.686 104.551 382.689V383.381H100.514C100.568 383.795 100.732 384.127 101.006 384.377C101.283 384.627 101.633 384.752 102.055 384.752C102.707 384.752 103.217 384.516 103.584 384.043L104.416 384.975C104.162 385.334 103.818 385.615 103.385 385.818C102.951 386.018 102.471 386.117 101.943 386.117ZM101.75 380.914C101.414 380.914 101.141 381.027 100.93 381.254C100.723 381.48 100.59 381.805 100.531 382.227H102.887V382.092C102.879 381.717 102.777 381.428 102.582 381.225C102.387 381.018 102.109 380.914 101.75 380.914ZM107.076 379.66L107.129 380.393C107.582 379.826 108.189 379.543 108.951 379.543C109.623 379.543 110.123 379.74 110.451 380.135C110.779 380.529 110.947 381.119 110.955 381.904V386H109.262V381.945C109.262 381.586 109.184 381.326 109.027 381.166C108.871 381.002 108.611 380.92 108.248 380.92C107.771 380.92 107.414 381.123 107.176 381.529V386H105.482V379.66H107.076ZM111.98 382.771C111.98 382.143 112.102 381.582 112.344 381.09C112.586 380.598 112.934 380.217 113.387 379.947C113.844 379.678 114.373 379.543 114.975 379.543C115.83 379.543 116.527 379.805 117.066 380.328C117.609 380.852 117.912 381.562 117.975 382.461L117.986 382.895C117.986 383.867 117.715 384.648 117.172 385.238C116.629 385.824 115.9 386.117 114.986 386.117C114.072 386.117 113.342 385.824 112.795 385.238C112.252 384.652 111.98 383.855 111.98 382.848V382.771ZM113.674 382.895C113.674 383.496 113.787 383.957 114.014 384.277C114.24 384.594 114.564 384.752 114.986 384.752C115.396 384.752 115.717 384.596 115.947 384.283C116.178 383.967 116.293 383.463 116.293 382.771C116.293 382.182 116.178 381.725 115.947 381.4C115.717 381.076 115.393 380.914 114.975 380.914C114.561 380.914 114.24 381.076 114.014 381.4C113.787 381.721 113.674 382.219 113.674 382.895ZM120.617 379.66L120.67 380.369C121.119 379.818 121.727 379.543 122.492 379.543C123.309 379.543 123.869 379.865 124.174 380.51C124.619 379.865 125.254 379.543 126.078 379.543C126.766 379.543 127.277 379.744 127.613 380.146C127.949 380.545 128.117 381.146 128.117 381.951V386H126.418V381.957C126.418 381.598 126.348 381.336 126.207 381.172C126.066 381.004 125.818 380.92 125.463 380.92C124.955 380.92 124.604 381.162 124.408 381.646L124.414 386H122.721V381.963C122.721 381.596 122.648 381.33 122.504 381.166C122.359 381.002 122.113 380.92 121.766 380.92C121.285 380.92 120.938 381.119 120.723 381.518V386H119.029V379.66H120.617ZM131.012 379.66L131.064 380.369C131.514 379.818 132.121 379.543 132.887 379.543C133.703 379.543 134.264 379.865 134.568 380.51C135.014 379.865 135.648 379.543 136.473 379.543C137.16 379.543 137.672 379.744 138.008 380.146C138.344 380.545 138.512 381.146 138.512 381.951V386H136.812V381.957C136.812 381.598 136.742 381.336 136.602 381.172C136.461 381.004 136.213 380.92 135.857 380.92C135.35 380.92 134.998 381.162 134.803 381.646L134.809 386H133.115V381.963C133.115 381.596 133.043 381.33 132.898 381.166C132.754 381.002 132.508 380.92 132.16 380.92C131.68 380.92 131.332 381.119 131.117 381.518V386H129.424V379.66H131.012ZM142.736 386.117C141.807 386.117 141.049 385.832 140.463 385.262C139.881 384.691 139.59 383.932 139.59 382.982V382.818C139.59 382.182 139.713 381.613 139.959 381.113C140.205 380.609 140.553 380.223 141.002 379.953C141.455 379.68 141.971 379.543 142.549 379.543C143.416 379.543 144.098 379.816 144.594 380.363C145.094 380.91 145.344 381.686 145.344 382.689V383.381H141.307C141.361 383.795 141.525 384.127 141.799 384.377C142.076 384.627 142.426 384.752 142.848 384.752C143.5 384.752 144.01 384.516 144.377 384.043L145.209 384.975C144.955 385.334 144.611 385.615 144.178 385.818C143.744 386.018 143.264 386.117 142.736 386.117ZM142.543 380.914C142.207 380.914 141.934 381.027 141.723 381.254C141.516 381.48 141.383 381.805 141.324 382.227H143.68V382.092C143.672 381.717 143.57 381.428 143.375 381.225C143.18 381.018 142.902 380.914 142.543 380.914ZM147.869 379.66L147.922 380.393C148.375 379.826 148.982 379.543 149.744 379.543C150.416 379.543 150.916 379.74 151.244 380.135C151.572 380.529 151.74 381.119 151.748 381.904V386H150.055V381.945C150.055 381.586 149.977 381.326 149.82 381.166C149.664 381.002 149.404 380.92 149.041 380.92C148.564 380.92 148.207 381.123 147.969 381.529V386H146.275V379.66H147.869ZM153.119 385.168C153.119 384.898 153.209 384.68 153.389 384.512C153.572 384.344 153.801 384.26 154.074 384.26C154.352 384.26 154.58 384.344 154.76 384.512C154.943 384.68 155.035 384.898 155.035 385.168C155.035 385.434 154.945 385.65 154.766 385.818C154.586 385.982 154.355 386.064 154.074 386.064C153.797 386.064 153.568 385.982 153.389 385.818C153.209 385.65 153.119 385.434 153.119 385.168ZM153.119 380.369C153.119 380.1 153.209 379.881 153.389 379.713C153.572 379.545 153.801 379.461 154.074 379.461C154.352 379.461 154.58 379.545 154.76 379.713C154.943 379.881 155.035 380.1 155.035 380.369C155.035 380.635 154.945 380.852 154.766 381.02C154.586 381.184 154.355 381.266 154.074 381.266C153.797 381.266 153.568 381.184 153.389 381.02C153.209 380.852 153.119 380.635 153.119 380.369Z" fill="black"/>
<path d="M52 384.333L56.6667 389L64 381" stroke="black" stroke-width="2"/>
<path d="M49.4391 393.387C53.1035 397.052 56.5979 398.734 57.8871 399.117L57.1527 399.852C56.5205 400.484 55.5528 400.661 54.7409 400.208C53.0344 399.257 50.423 397.508 47.8708 394.956C45.4373 392.522 43.7018 390.216 42.6934 388.679C42.1463 387.845 42.2933 386.792 42.9707 386.114L43.9275 385.157C44.2378 386.374 45.7746 389.723 49.4391 393.387Z" fill="#86EC16"/>
<path d="M58.43 398.574C59.1102 397.894 58.9425 396.728 58.0892 396.205L54.8444 394.215C54.2426 393.846 53.4838 393.923 53.004 394.403L51.7092 395.698C51.029 396.378 51.1967 397.544 52.05 398.067L55.2948 400.057C55.8966 400.426 56.6554 400.349 57.1352 399.869L58.43 398.574Z" fill="#86EC16"/>
<path d="M44.4703 384.615C45.1505 383.934 46.3164 384.102 46.8397 384.955L48.8299 388.2C49.199 388.802 49.1214 389.561 48.6416 390.041L47.3468 391.335C46.6666 392.016 45.5007 391.848 44.9774 390.995L42.9873 387.75C42.6181 387.148 42.6957 386.389 43.1755 385.909L44.4703 384.615Z" fill="#86EC16"/>
<path d="M134.512 439.922C134.195 440.301 133.748 440.596 133.17 440.807C132.592 441.014 131.951 441.117 131.248 441.117C130.51 441.117 129.861 440.957 129.303 440.637C128.748 440.312 128.318 439.844 128.014 439.23C127.713 438.617 127.559 437.896 127.551 437.068V436.488C127.551 435.637 127.693 434.9 127.979 434.279C128.268 433.654 128.682 433.178 129.221 432.85C129.764 432.518 130.398 432.352 131.125 432.352C132.137 432.352 132.928 432.594 133.498 433.078C134.068 433.559 134.406 434.26 134.512 435.182H132.801C132.723 434.693 132.549 434.336 132.279 434.109C132.014 433.883 131.646 433.77 131.178 433.77C130.58 433.77 130.125 433.994 129.812 434.443C129.5 434.893 129.342 435.561 129.338 436.447V436.992C129.338 437.887 129.508 438.562 129.848 439.02C130.188 439.477 130.686 439.705 131.342 439.705C132.002 439.705 132.473 439.564 132.754 439.283V437.812H131.154V436.518H134.512V439.922ZM138.748 441.117C137.818 441.117 137.061 440.832 136.475 440.262C135.893 439.691 135.602 438.932 135.602 437.982V437.818C135.602 437.182 135.725 436.613 135.971 436.113C136.217 435.609 136.564 435.223 137.014 434.953C137.467 434.68 137.982 434.543 138.561 434.543C139.428 434.543 140.109 434.816 140.605 435.363C141.105 435.91 141.355 436.686 141.355 437.689V438.381H137.318C137.373 438.795 137.537 439.127 137.811 439.377C138.088 439.627 138.438 439.752 138.859 439.752C139.512 439.752 140.021 439.516 140.389 439.043L141.221 439.975C140.967 440.334 140.623 440.615 140.189 440.818C139.756 441.018 139.275 441.117 138.748 441.117ZM138.555 435.914C138.219 435.914 137.945 436.027 137.734 436.254C137.527 436.48 137.395 436.805 137.336 437.227H139.691V437.092C139.684 436.717 139.582 436.428 139.387 436.225C139.191 436.018 138.914 435.914 138.555 435.914ZM145.756 439.248C145.756 439.041 145.652 438.879 145.445 438.762C145.242 438.641 144.914 438.533 144.461 438.439C142.953 438.123 142.199 437.482 142.199 436.518C142.199 435.955 142.432 435.486 142.896 435.111C143.365 434.732 143.977 434.543 144.73 434.543C145.535 434.543 146.178 434.732 146.658 435.111C147.143 435.49 147.385 435.982 147.385 436.588H145.691C145.691 436.346 145.613 436.146 145.457 435.99C145.301 435.83 145.057 435.75 144.725 435.75C144.439 435.75 144.219 435.814 144.062 435.943C143.906 436.072 143.828 436.236 143.828 436.436C143.828 436.623 143.916 436.775 144.092 436.893C144.271 437.006 144.572 437.105 144.994 437.191C145.416 437.273 145.771 437.367 146.061 437.473C146.955 437.801 147.402 438.369 147.402 439.178C147.402 439.756 147.154 440.225 146.658 440.584C146.162 440.939 145.521 441.117 144.736 441.117C144.205 441.117 143.732 441.023 143.318 440.836C142.908 440.645 142.586 440.385 142.352 440.057C142.117 439.725 142 439.367 142 438.984H143.605C143.621 439.285 143.732 439.516 143.939 439.676C144.146 439.836 144.424 439.916 144.771 439.916C145.096 439.916 145.34 439.855 145.504 439.734C145.672 439.609 145.756 439.447 145.756 439.248ZM152.172 441C152.094 440.848 152.037 440.658 152.002 440.432C151.592 440.889 151.059 441.117 150.402 441.117C149.781 441.117 149.266 440.938 148.855 440.578C148.449 440.219 148.246 439.766 148.246 439.219C148.246 438.547 148.494 438.031 148.99 437.672C149.49 437.312 150.211 437.131 151.152 437.127H151.932V436.764C151.932 436.471 151.855 436.236 151.703 436.061C151.555 435.885 151.318 435.797 150.994 435.797C150.709 435.797 150.484 435.865 150.32 436.002C150.16 436.139 150.08 436.326 150.08 436.564H148.387C148.387 436.197 148.5 435.857 148.727 435.545C148.953 435.232 149.273 434.988 149.688 434.812C150.102 434.633 150.566 434.543 151.082 434.543C151.863 434.543 152.482 434.74 152.939 435.135C153.4 435.525 153.631 436.076 153.631 436.787V439.535C153.635 440.137 153.719 440.592 153.883 440.9V441H152.172ZM150.771 439.822C151.021 439.822 151.252 439.768 151.463 439.658C151.674 439.545 151.83 439.395 151.932 439.207V438.117H151.299C150.451 438.117 150 438.41 149.945 438.996L149.939 439.096C149.939 439.307 150.014 439.48 150.162 439.617C150.311 439.754 150.514 439.822 150.771 439.822ZM156.52 434.66L156.572 435.369C157.021 434.818 157.629 434.543 158.395 434.543C159.211 434.543 159.771 434.865 160.076 435.51C160.521 434.865 161.156 434.543 161.98 434.543C162.668 434.543 163.18 434.744 163.516 435.146C163.852 435.545 164.02 436.146 164.02 436.951V441H162.32V436.957C162.32 436.598 162.25 436.336 162.109 436.172C161.969 436.004 161.721 435.92 161.365 435.92C160.857 435.92 160.506 436.162 160.311 436.646L160.316 441H158.623V436.963C158.623 436.596 158.551 436.33 158.406 436.166C158.262 436.002 158.016 435.92 157.668 435.92C157.188 435.92 156.84 436.119 156.625 436.518V441H154.932V434.66H156.52ZM167.354 433.102V434.66H168.438V435.902H167.354V439.066C167.354 439.301 167.398 439.469 167.488 439.57C167.578 439.672 167.75 439.723 168.004 439.723C168.191 439.723 168.357 439.709 168.502 439.682V440.965C168.17 441.066 167.828 441.117 167.477 441.117C166.289 441.117 165.684 440.518 165.66 439.318V435.902H164.734V434.66H165.66V433.102H167.354ZM169.463 440.168C169.463 439.898 169.553 439.68 169.732 439.512C169.916 439.344 170.145 439.26 170.418 439.26C170.695 439.26 170.924 439.344 171.104 439.512C171.287 439.68 171.379 439.898 171.379 440.168C171.379 440.434 171.289 440.65 171.109 440.818C170.93 440.982 170.699 441.064 170.418 441.064C170.141 441.064 169.912 440.982 169.732 440.818C169.553 440.65 169.463 440.434 169.463 440.168ZM169.463 435.369C169.463 435.1 169.553 434.881 169.732 434.713C169.916 434.545 170.145 434.461 170.418 434.461C170.695 434.461 170.924 434.545 171.104 434.713C171.287 434.881 171.379 435.1 171.379 435.369C171.379 435.635 171.289 435.852 171.109 436.02C170.93 436.184 170.699 436.266 170.418 436.266C170.141 436.266 169.912 436.184 169.732 436.02C169.553 435.852 169.463 435.635 169.463 435.369ZM179.377 441H178.287V433.775L176.102 434.578V433.594L179.207 432.428H179.377V441ZM184.129 436.207H184.943C185.455 436.199 185.857 436.064 186.15 435.803C186.443 435.541 186.59 435.188 186.59 434.742C186.59 433.742 186.092 433.242 185.096 433.242C184.627 433.242 184.252 433.377 183.971 433.646C183.693 433.912 183.555 434.266 183.555 434.707H182.471C182.471 434.031 182.717 433.471 183.209 433.025C183.705 432.576 184.334 432.352 185.096 432.352C185.9 432.352 186.531 432.564 186.988 432.99C187.445 433.416 187.674 434.008 187.674 434.766C187.674 435.137 187.553 435.496 187.311 435.844C187.072 436.191 186.746 436.451 186.332 436.623C186.801 436.771 187.162 437.018 187.416 437.361C187.674 437.705 187.803 438.125 187.803 438.621C187.803 439.387 187.553 439.994 187.053 440.443C186.553 440.893 185.902 441.117 185.102 441.117C184.301 441.117 183.648 440.9 183.145 440.467C182.645 440.033 182.395 439.461 182.395 438.75H183.484C183.484 439.199 183.631 439.559 183.924 439.828C184.217 440.098 184.609 440.232 185.102 440.232C185.625 440.232 186.025 440.096 186.303 439.822C186.58 439.549 186.719 439.156 186.719 438.645C186.719 438.148 186.566 437.768 186.262 437.502C185.957 437.236 185.518 437.1 184.943 437.092H184.129V436.207Z" fill="white"/>
<path d="M114.664 254.414H109.426V258.697H115.51V260H107.832V247.914H115.427V249.226H109.426V253.11H114.664V254.414ZM121.595 252.396C121.362 252.358 121.111 252.338 120.839 252.338C119.832 252.338 119.149 252.767 118.789 253.625V260H117.253V251.019H118.748L118.772 252.056C119.276 251.254 119.99 250.853 120.914 250.853C121.213 250.853 121.44 250.891 121.595 250.969V252.396ZM127.355 252.396C127.123 252.358 126.871 252.338 126.6 252.338C125.593 252.338 124.91 252.767 124.55 253.625V260H123.014V251.019H124.508L124.533 252.056C125.037 251.254 125.751 250.853 126.675 250.853C126.974 250.853 127.201 250.891 127.355 250.969V252.396ZM132.336 260.166C131.118 260.166 130.128 259.768 129.364 258.971C128.601 258.168 128.219 257.097 128.219 255.758V255.476C128.219 254.585 128.388 253.791 128.725 253.094C129.068 252.391 129.544 251.843 130.153 251.45C130.767 251.052 131.431 250.853 132.145 250.853C133.313 250.853 134.22 251.237 134.868 252.006C135.515 252.776 135.839 253.877 135.839 255.31V255.949H129.754C129.777 256.835 130.034 257.551 130.526 258.099C131.024 258.641 131.655 258.913 132.419 258.913C132.961 258.913 133.421 258.802 133.797 258.581C134.173 258.359 134.502 258.066 134.785 257.701L135.723 258.431C134.97 259.588 133.841 260.166 132.336 260.166ZM132.145 252.114C131.525 252.114 131.005 252.341 130.584 252.795C130.164 253.243 129.904 253.874 129.804 254.688H134.303V254.571C134.259 253.791 134.049 253.188 133.672 252.762C133.296 252.33 132.787 252.114 132.145 252.114ZM139.292 260H137.756V251.019H139.292V260ZM137.632 248.636C137.632 248.387 137.707 248.177 137.856 248.005C138.011 247.834 138.238 247.748 138.537 247.748C138.835 247.748 139.062 247.834 139.217 248.005C139.372 248.177 139.45 248.387 139.45 248.636C139.45 248.885 139.372 249.093 139.217 249.259C139.062 249.425 138.835 249.508 138.537 249.508C138.238 249.508 138.011 249.425 137.856 249.259C137.707 249.093 137.632 248.885 137.632 248.636ZM145.36 258.913C145.908 258.913 146.386 258.747 146.796 258.415C147.205 258.083 147.432 257.667 147.477 257.169H148.929C148.902 257.684 148.724 258.174 148.398 258.639C148.071 259.104 147.634 259.474 147.086 259.751C146.544 260.028 145.969 260.166 145.36 260.166C144.137 260.166 143.163 259.759 142.438 258.946C141.719 258.127 141.359 257.009 141.359 255.592V255.335C141.359 254.461 141.519 253.683 141.84 253.002C142.161 252.322 142.621 251.793 143.218 251.417C143.821 251.041 144.533 250.853 145.352 250.853C146.359 250.853 147.194 251.154 147.858 251.757C148.528 252.361 148.885 253.144 148.929 254.106H147.477C147.432 253.525 147.211 253.049 146.812 252.679C146.42 252.302 145.933 252.114 145.352 252.114C144.571 252.114 143.965 252.396 143.534 252.961C143.108 253.52 142.895 254.331 142.895 255.393V255.684C142.895 256.718 143.108 257.515 143.534 258.074C143.96 258.633 144.569 258.913 145.36 258.913ZM152.191 252.106C152.872 251.27 153.757 250.853 154.848 250.853C156.746 250.853 157.703 251.923 157.72 254.065V260H156.184V254.057C156.179 253.409 156.029 252.931 155.736 252.621C155.448 252.311 154.997 252.156 154.383 252.156C153.885 252.156 153.448 252.289 153.071 252.554C152.695 252.82 152.402 253.168 152.191 253.6V260H150.656V247.25H152.191V252.106ZM167.623 255.609C167.623 256.981 167.307 258.085 166.676 258.921C166.045 259.751 165.199 260.166 164.136 260.166C163.002 260.166 162.125 259.765 161.505 258.962L161.43 260H160.019V247.25H161.555V252.006C162.174 251.237 163.029 250.853 164.12 250.853C165.21 250.853 166.065 251.265 166.685 252.089C167.31 252.914 167.623 254.043 167.623 255.476V255.609ZM166.087 255.435C166.087 254.389 165.885 253.581 165.481 253.011C165.077 252.441 164.496 252.156 163.738 252.156C162.725 252.156 161.997 252.626 161.555 253.567V257.452C162.025 258.392 162.758 258.863 163.754 258.863C164.49 258.863 165.063 258.578 165.473 258.008C165.882 257.438 166.087 256.58 166.087 255.435ZM175.11 260C175.021 259.823 174.949 259.507 174.894 259.054C174.18 259.795 173.328 260.166 172.337 260.166C171.452 260.166 170.724 259.917 170.154 259.419C169.59 258.915 169.308 258.279 169.308 257.51C169.308 256.575 169.662 255.85 170.37 255.335C171.084 254.815 172.086 254.555 173.375 254.555H174.869V253.849C174.869 253.312 174.709 252.886 174.388 252.571C174.067 252.25 173.594 252.089 172.968 252.089C172.42 252.089 171.961 252.228 171.59 252.504C171.22 252.781 171.034 253.116 171.034 253.509H169.49C169.49 253.061 169.648 252.629 169.963 252.214C170.284 251.793 170.716 251.461 171.258 251.218C171.806 250.974 172.407 250.853 173.06 250.853C174.094 250.853 174.905 251.113 175.492 251.633C176.078 252.147 176.383 252.859 176.405 253.766V257.9C176.405 258.724 176.51 259.38 176.72 259.867V260H175.11ZM172.562 258.83C173.043 258.83 173.5 258.705 173.931 258.456C174.363 258.207 174.675 257.883 174.869 257.485V255.642H173.666C171.784 255.642 170.843 256.193 170.843 257.294C170.843 257.775 171.004 258.152 171.325 258.423C171.646 258.694 172.058 258.83 172.562 258.83ZM183.153 252.396C182.921 252.358 182.669 252.338 182.398 252.338C181.391 252.338 180.707 252.767 180.348 253.625V260H178.812V251.019H180.306L180.331 252.056C180.835 251.254 181.549 250.853 182.473 250.853C182.771 250.853 182.998 250.891 183.153 250.969V252.396ZM187.08 255.841L186.117 256.846V260H184.581V247.25H186.117V254.961L186.938 253.974L189.736 251.019H191.604L188.109 254.771L192.01 260H190.209L187.08 255.841ZM196.75 260.166C195.533 260.166 194.542 259.768 193.778 258.971C193.015 258.168 192.633 257.097 192.633 255.758V255.476C192.633 254.585 192.802 253.791 193.139 253.094C193.482 252.391 193.958 251.843 194.567 251.45C195.181 251.052 195.845 250.853 196.559 250.853C197.727 250.853 198.634 251.237 199.282 252.006C199.929 252.776 200.253 253.877 200.253 255.31V255.949H194.168C194.191 256.835 194.448 257.551 194.94 258.099C195.438 258.641 196.069 258.913 196.833 258.913C197.375 258.913 197.835 258.802 198.211 258.581C198.587 258.359 198.917 258.066 199.199 257.701L200.137 258.431C199.384 259.588 198.255 260.166 196.75 260.166ZM196.559 252.114C195.939 252.114 195.419 252.341 194.999 252.795C194.578 253.243 194.318 253.874 194.218 254.688H198.717V254.571C198.673 253.791 198.463 253.188 198.086 252.762C197.71 252.33 197.201 252.114 196.559 252.114ZM203.706 260H202.17V251.019H203.706V260ZM202.046 248.636C202.046 248.387 202.121 248.177 202.27 248.005C202.425 247.834 202.652 247.748 202.951 247.748C203.25 247.748 203.476 247.834 203.631 248.005C203.786 248.177 203.864 248.387 203.864 248.636C203.864 248.885 203.786 249.093 203.631 249.259C203.476 249.425 203.25 249.508 202.951 249.508C202.652 249.508 202.425 249.425 202.27 249.259C202.121 249.093 202.046 248.885 202.046 248.636ZM208.255 248.844V251.019H209.932V252.206H208.255V257.775C208.255 258.135 208.33 258.406 208.479 258.589C208.628 258.766 208.883 258.854 209.243 258.854C209.42 258.854 209.663 258.821 209.973 258.755V260C209.569 260.111 209.176 260.166 208.794 260.166C208.108 260.166 207.591 259.958 207.242 259.543C206.894 259.128 206.719 258.539 206.719 257.775V252.206H205.084V251.019H206.719V248.844H208.255Z" fill="black"/>
<rect x="298" y="82" width="260" height="134" rx="4" fill="white"/>
<path d="M365.068 108.663H359.997V114H358.403V101.914H365.89V103.226H359.997V107.359H365.068V108.663ZM376.689 110.165C376.54 111.443 376.067 112.431 375.27 113.128C374.479 113.82 373.424 114.166 372.107 114.166C370.68 114.166 369.534 113.654 368.671 112.63C367.813 111.607 367.384 110.237 367.384 108.521V107.359C367.384 106.236 367.583 105.248 367.982 104.396C368.386 103.544 368.956 102.891 369.692 102.437C370.428 101.978 371.28 101.748 372.249 101.748C373.532 101.748 374.562 102.108 375.336 102.827C376.111 103.541 376.562 104.532 376.689 105.799H375.087C374.949 104.836 374.647 104.139 374.183 103.707C373.723 103.275 373.079 103.06 372.249 103.06C371.23 103.06 370.431 103.436 369.85 104.188C369.274 104.941 368.986 106.012 368.986 107.401V108.571C368.986 109.883 369.26 110.926 369.808 111.701C370.356 112.475 371.122 112.863 372.107 112.863C372.993 112.863 373.671 112.664 374.141 112.265C374.617 111.861 374.932 111.161 375.087 110.165H376.689ZM383.305 109.111H380.466V114H378.864V101.914H382.865C384.227 101.914 385.272 102.224 386.003 102.844C386.739 103.464 387.107 104.366 387.107 105.55C387.107 106.302 386.902 106.958 386.493 107.517C386.089 108.076 385.524 108.494 384.799 108.771L387.638 113.9V114H385.928L383.305 109.111ZM380.466 107.808H382.915C383.706 107.808 384.334 107.603 384.799 107.193C385.27 106.784 385.505 106.236 385.505 105.55C385.505 104.803 385.281 104.23 384.833 103.832C384.39 103.433 383.748 103.231 382.907 103.226H380.466V107.808Z" fill="black"/>
<path d="M483.077 110.846H478.013L476.876 114H475.232L479.848 101.914H481.242L485.866 114H484.23L483.077 110.846ZM478.495 109.534H482.604L480.545 103.881L478.495 109.534ZM491.054 108.613C489.687 108.22 488.691 107.738 488.065 107.168C487.446 106.593 487.136 105.885 487.136 105.043C487.136 104.092 487.515 103.306 488.273 102.686C489.037 102.061 490.027 101.748 491.245 101.748C492.075 101.748 492.813 101.909 493.461 102.229C494.114 102.55 494.618 102.993 494.972 103.558C495.331 104.122 495.511 104.739 495.511 105.409H493.909C493.909 104.678 493.677 104.105 493.212 103.69C492.747 103.27 492.091 103.06 491.245 103.06C490.459 103.06 489.845 103.234 489.402 103.583C488.965 103.926 488.746 104.404 488.746 105.019C488.746 105.511 488.954 105.929 489.369 106.272C489.789 106.61 490.5 106.919 491.502 107.202C492.509 107.484 493.295 107.797 493.859 108.14C494.429 108.477 494.85 108.873 495.121 109.327C495.398 109.78 495.536 110.314 495.536 110.929C495.536 111.908 495.154 112.694 494.391 113.286C493.627 113.873 492.606 114.166 491.328 114.166C490.498 114.166 489.723 114.008 489.003 113.693C488.284 113.372 487.728 112.935 487.335 112.381C486.948 111.828 486.754 111.2 486.754 110.497H488.356C488.356 111.228 488.624 111.806 489.161 112.232C489.703 112.653 490.426 112.863 491.328 112.863C492.169 112.863 492.813 112.691 493.262 112.348C493.71 112.005 493.934 111.537 493.934 110.945C493.934 110.353 493.727 109.897 493.312 109.576C492.896 109.249 492.144 108.928 491.054 108.613ZM504.26 110.846H499.197L498.06 114H496.416L501.031 101.914H502.426L507.049 114H505.414L504.26 110.846ZM499.678 109.534H503.787L501.729 103.881L499.678 109.534Z" fill="black"/>
<path d="M344.236 174.822H346.815C348.436 174.798 349.71 174.371 350.638 173.542C351.565 172.713 352.029 171.594 352.029 170.184C352.029 167.017 350.452 165.434 347.298 165.434C345.813 165.434 344.626 165.86 343.735 166.714C342.857 167.555 342.418 168.674 342.418 170.072H338.985C338.985 167.932 339.765 166.157 341.323 164.747C342.894 163.325 344.886 162.613 347.298 162.613C349.846 162.613 351.844 163.287 353.291 164.636C354.738 165.984 355.462 167.858 355.462 170.258C355.462 171.433 355.078 172.571 354.312 173.672C353.557 174.773 352.524 175.595 351.213 176.14C352.697 176.61 353.841 177.389 354.646 178.478C355.462 179.566 355.87 180.896 355.87 182.467C355.87 184.891 355.078 186.815 353.495 188.237C351.912 189.66 349.852 190.371 347.316 190.371C344.781 190.371 342.715 189.685 341.119 188.312C339.536 186.938 338.744 185.126 338.744 182.875H342.195C342.195 184.298 342.659 185.436 343.587 186.289C344.515 187.143 345.758 187.569 347.316 187.569C348.974 187.569 350.242 187.136 351.12 186.271C351.998 185.405 352.438 184.161 352.438 182.541C352.438 180.97 351.955 179.764 350.99 178.923C350.025 178.082 348.634 177.649 346.815 177.624H344.236V174.822ZM362.16 176.455L363.533 162.984H377.375V166.157H366.446L365.63 173.523C366.953 172.744 368.456 172.354 370.139 172.354C372.6 172.354 374.555 173.171 376.002 174.804C377.449 176.424 378.173 178.62 378.173 181.391C378.173 184.174 377.418 186.369 375.909 187.978C374.412 189.573 372.316 190.371 369.619 190.371C367.232 190.371 365.284 189.709 363.774 188.386C362.265 187.062 361.406 185.231 361.195 182.894H364.442C364.653 184.44 365.203 185.609 366.094 186.4C366.984 187.18 368.16 187.569 369.619 187.569C371.215 187.569 372.464 187.025 373.367 185.937C374.283 184.848 374.74 183.345 374.74 181.428C374.74 179.622 374.245 178.174 373.256 177.086C372.279 175.985 370.974 175.435 369.341 175.435C367.844 175.435 366.669 175.762 365.815 176.418L364.906 177.16L362.16 176.455ZM381.624 168.18C381.624 166.559 382.137 165.223 383.164 164.172C384.203 163.12 385.533 162.595 387.153 162.595C388.799 162.595 390.128 163.127 391.143 164.19C392.169 165.242 392.683 166.609 392.683 168.291V169.608C392.683 171.241 392.163 172.577 391.124 173.616C390.097 174.643 388.786 175.156 387.19 175.156C385.582 175.156 384.253 174.643 383.201 173.616C382.15 172.577 381.624 171.198 381.624 169.479V168.18ZM384.185 169.608C384.185 170.573 384.457 171.371 385.001 172.002C385.545 172.62 386.275 172.93 387.19 172.93C388.069 172.93 388.774 172.627 389.306 172.021C389.85 171.414 390.122 170.586 390.122 169.534V168.18C390.122 167.215 389.856 166.417 389.324 165.786C388.792 165.155 388.069 164.84 387.153 164.84C386.238 164.84 385.514 165.155 384.982 165.786C384.451 166.417 384.185 167.24 384.185 168.254V169.608ZM394.779 183.376C394.779 181.756 395.293 180.426 396.319 179.387C397.358 178.335 398.688 177.81 400.309 177.81C401.929 177.81 403.259 178.329 404.298 179.368C405.337 180.407 405.856 181.786 405.856 183.506V184.823C405.856 186.444 405.337 187.78 404.298 188.831C403.271 189.87 401.954 190.39 400.346 190.39C398.738 190.39 397.408 189.876 396.356 188.85C395.305 187.811 394.779 186.431 394.779 184.712V183.376ZM397.34 184.823C397.34 185.8 397.612 186.604 398.156 187.235C398.701 187.854 399.43 188.163 400.346 188.163C401.236 188.163 401.948 187.86 402.479 187.254C403.011 186.635 403.277 185.8 403.277 184.749V183.376C403.277 182.399 403.005 181.601 402.461 180.982C401.929 180.364 401.212 180.055 400.309 180.055C399.43 180.055 398.713 180.364 398.156 180.982C397.612 181.589 397.34 182.411 397.34 183.45V184.823ZM387.97 187.959L386.021 186.734L399.214 165.619L401.162 166.844L387.97 187.959Z" fill="black"/>
<path d="M473.526 190H470.075V167.122L463.154 169.664V166.547L472.988 162.854H473.526V190ZM494.864 190H491.413V167.122L484.492 169.664V166.547L494.326 162.854H494.864V190ZM516.963 184.675C516.963 183.747 516.61 183.03 515.905 182.522C515.213 182.003 513.994 181.558 512.25 181.187C510.518 180.815 509.139 180.37 508.112 179.851C507.098 179.331 506.343 178.713 505.849 177.995C505.366 177.278 505.125 176.424 505.125 175.435C505.125 173.789 505.818 172.398 507.203 171.26C508.601 170.122 510.382 169.553 512.547 169.553C514.823 169.553 516.666 170.14 518.076 171.315C519.499 172.491 520.21 173.993 520.21 175.824H516.759C516.759 174.884 516.357 174.074 515.553 173.394C514.761 172.713 513.759 172.373 512.547 172.373C511.298 172.373 510.32 172.645 509.615 173.189C508.91 173.734 508.558 174.445 508.558 175.323C508.558 176.152 508.885 176.777 509.541 177.197C510.197 177.618 511.378 178.02 513.085 178.403C514.804 178.787 516.196 179.244 517.26 179.776C518.324 180.308 519.109 180.951 519.616 181.706C520.136 182.448 520.396 183.357 520.396 184.434C520.396 186.227 519.678 187.668 518.243 188.757C516.808 189.833 514.947 190.371 512.658 190.371C511.05 190.371 509.628 190.087 508.391 189.518C507.154 188.949 506.183 188.157 505.478 187.143C504.785 186.116 504.438 185.009 504.438 183.821H507.871C507.933 184.972 508.391 185.887 509.244 186.567C510.11 187.235 511.248 187.569 512.658 187.569C513.957 187.569 514.996 187.31 515.775 186.79C516.567 186.258 516.963 185.553 516.963 184.675Z" fill="black"/>
<rect x="298" y="226" width="260" height="240" rx="4" fill="white"/>
<rect x="311" y="420" width="234" height="33" rx="5" fill="#B70000"/>
<path d="M497.271 404H496.182V396.775L493.996 397.578V396.594L497.102 395.428H497.271V404ZM506.037 404H500.447V403.221L503.4 399.939C503.838 399.443 504.139 399.041 504.303 398.732C504.471 398.42 504.555 398.098 504.555 397.766C504.555 397.32 504.42 396.955 504.15 396.67C503.881 396.385 503.521 396.242 503.072 396.242C502.533 396.242 502.113 396.396 501.812 396.705C501.516 397.01 501.367 397.436 501.367 397.982H500.283C500.283 397.197 500.535 396.562 501.039 396.078C501.547 395.594 502.225 395.352 503.072 395.352C503.865 395.352 504.492 395.561 504.953 395.979C505.414 396.393 505.645 396.945 505.645 397.637C505.645 398.477 505.109 399.477 504.039 400.637L501.754 403.115H506.037V404ZM508.762 399.207H509.576C510.088 399.199 510.49 399.064 510.783 398.803C511.076 398.541 511.223 398.188 511.223 397.742C511.223 396.742 510.725 396.242 509.729 396.242C509.26 396.242 508.885 396.377 508.604 396.646C508.326 396.912 508.188 397.266 508.188 397.707H507.104C507.104 397.031 507.35 396.471 507.842 396.025C508.338 395.576 508.967 395.352 509.729 395.352C510.533 395.352 511.164 395.564 511.621 395.99C512.078 396.416 512.307 397.008 512.307 397.766C512.307 398.137 512.186 398.496 511.943 398.844C511.705 399.191 511.379 399.451 510.965 399.623C511.434 399.771 511.795 400.018 512.049 400.361C512.307 400.705 512.436 401.125 512.436 401.621C512.436 402.387 512.186 402.994 511.686 403.443C511.186 403.893 510.535 404.117 509.734 404.117C508.934 404.117 508.281 403.9 507.777 403.467C507.277 403.033 507.027 402.461 507.027 401.75H508.117C508.117 402.199 508.264 402.559 508.557 402.828C508.85 403.098 509.242 403.232 509.734 403.232C510.258 403.232 510.658 403.096 510.936 402.822C511.213 402.549 511.352 402.156 511.352 401.645C511.352 401.148 511.199 400.768 510.895 400.502C510.59 400.236 510.15 400.1 509.576 400.092H508.762V399.207ZM519.273 400.361C519.273 401.631 519.057 402.574 518.623 403.191C518.189 403.809 517.512 404.117 516.59 404.117C515.68 404.117 515.006 403.816 514.568 403.215C514.131 402.609 513.904 401.707 513.889 400.508V399.061C513.889 397.807 514.105 396.875 514.539 396.266C514.973 395.656 515.652 395.352 516.578 395.352C517.496 395.352 518.172 395.646 518.605 396.236C519.039 396.822 519.262 397.729 519.273 398.955V400.361ZM518.189 398.879C518.189 397.961 518.061 397.293 517.803 396.875C517.545 396.453 517.137 396.242 516.578 396.242C516.023 396.242 515.619 396.451 515.365 396.869C515.111 397.287 514.98 397.93 514.973 398.797V400.531C514.973 401.453 515.105 402.135 515.371 402.576C515.641 403.014 516.047 403.232 516.59 403.232C517.125 403.232 517.521 403.025 517.779 402.611C518.041 402.197 518.178 401.545 518.189 400.654V398.879Z" fill="black"/>
<path d="M496.914 383.885L498.848 377.469H500.805L497.834 386H496L493.041 377.469H494.992L496.914 383.885ZM504.162 386.117C503.232 386.117 502.475 385.832 501.889 385.262C501.307 384.691 501.016 383.932 501.016 382.982V382.818C501.016 382.182 501.139 381.613 501.385 381.113C501.631 380.609 501.979 380.223 502.428 379.953C502.881 379.68 503.396 379.543 503.975 379.543C504.842 379.543 505.523 379.816 506.02 380.363C506.52 380.91 506.77 381.686 506.77 382.689V383.381H502.732C502.787 383.795 502.951 384.127 503.225 384.377C503.502 384.627 503.852 384.752 504.273 384.752C504.926 384.752 505.436 384.516 505.803 384.043L506.635 384.975C506.381 385.334 506.037 385.615 505.604 385.818C505.17 386.018 504.689 386.117 504.162 386.117ZM503.969 380.914C503.633 380.914 503.359 381.027 503.148 381.254C502.941 381.48 502.809 381.805 502.75 382.227H505.105V382.092C505.098 381.717 504.996 381.428 504.801 381.225C504.605 381.018 504.328 380.914 503.969 380.914ZM511.299 381.248C511.068 381.217 510.865 381.201 510.689 381.201C510.049 381.201 509.629 381.418 509.43 381.852V386H507.736V379.66H509.336L509.383 380.416C509.723 379.834 510.193 379.543 510.795 379.543C510.982 379.543 511.158 379.568 511.322 379.619L511.299 381.248ZM517.826 382.889C517.826 383.865 517.604 384.648 517.158 385.238C516.717 385.824 516.119 386.117 515.365 386.117C514.725 386.117 514.207 385.895 513.812 385.449V388.438H512.119V379.66H513.689L513.748 380.281C514.158 379.789 514.693 379.543 515.354 379.543C516.135 379.543 516.742 379.832 517.176 380.41C517.609 380.988 517.826 381.785 517.826 382.801V382.889ZM516.133 382.766C516.133 382.176 516.027 381.721 515.816 381.4C515.609 381.08 515.307 380.92 514.908 380.92C514.377 380.92 514.012 381.123 513.812 381.529V384.125C514.02 384.543 514.389 384.752 514.92 384.752C515.729 384.752 516.133 384.09 516.133 382.766ZM522.555 386C522.477 385.848 522.42 385.658 522.385 385.432C521.975 385.889 521.441 386.117 520.785 386.117C520.164 386.117 519.648 385.938 519.238 385.578C518.832 385.219 518.629 384.766 518.629 384.219C518.629 383.547 518.877 383.031 519.373 382.672C519.873 382.312 520.594 382.131 521.535 382.127H522.314V381.764C522.314 381.471 522.238 381.236 522.086 381.061C521.938 380.885 521.701 380.797 521.377 380.797C521.092 380.797 520.867 380.865 520.703 381.002C520.543 381.139 520.463 381.326 520.463 381.564H518.77C518.77 381.197 518.883 380.857 519.109 380.545C519.336 380.232 519.656 379.988 520.07 379.812C520.484 379.633 520.949 379.543 521.465 379.543C522.246 379.543 522.865 379.74 523.322 380.135C523.783 380.525 524.014 381.076 524.014 381.787V384.535C524.018 385.137 524.102 385.592 524.266 385.9V386H522.555ZM521.154 384.822C521.404 384.822 521.635 384.768 521.846 384.658C522.057 384.545 522.213 384.395 522.314 384.207V383.117H521.682C520.834 383.117 520.383 383.41 520.328 383.996L520.322 384.096C520.322 384.307 520.396 384.48 520.545 384.617C520.693 384.754 520.896 384.822 521.154 384.822ZM528.748 384.248C528.748 384.041 528.645 383.879 528.438 383.762C528.234 383.641 527.906 383.533 527.453 383.439C525.945 383.123 525.191 382.482 525.191 381.518C525.191 380.955 525.424 380.486 525.889 380.111C526.357 379.732 526.969 379.543 527.723 379.543C528.527 379.543 529.17 379.732 529.65 380.111C530.135 380.49 530.377 380.982 530.377 381.588H528.684C528.684 381.346 528.605 381.146 528.449 380.99C528.293 380.83 528.049 380.75 527.717 380.75C527.432 380.75 527.211 380.814 527.055 380.943C526.898 381.072 526.82 381.236 526.82 381.436C526.82 381.623 526.908 381.775 527.084 381.893C527.264 382.006 527.564 382.105 527.986 382.191C528.408 382.273 528.764 382.367 529.053 382.473C529.947 382.801 530.395 383.369 530.395 384.178C530.395 384.756 530.146 385.225 529.65 385.584C529.154 385.939 528.514 386.117 527.729 386.117C527.197 386.117 526.725 386.023 526.311 385.836C525.9 385.645 525.578 385.385 525.344 385.057C525.109 384.725 524.992 384.367 524.992 383.984H526.598C526.613 384.285 526.725 384.516 526.932 384.676C527.139 384.836 527.416 384.916 527.764 384.916C528.088 384.916 528.332 384.855 528.496 384.734C528.664 384.609 528.748 384.447 528.748 384.248ZM534.924 384.248C534.924 384.041 534.82 383.879 534.613 383.762C534.41 383.641 534.082 383.533 533.629 383.439C532.121 383.123 531.367 382.482 531.367 381.518C531.367 380.955 531.6 380.486 532.064 380.111C532.533 379.732 533.145 379.543 533.898 379.543C534.703 379.543 535.346 379.732 535.826 380.111C536.311 380.49 536.553 380.982 536.553 381.588H534.859C534.859 381.346 534.781 381.146 534.625 380.99C534.469 380.83 534.225 380.75 533.893 380.75C533.607 380.75 533.387 380.814 533.23 380.943C533.074 381.072 532.996 381.236 532.996 381.436C532.996 381.623 533.084 381.775 533.26 381.893C533.439 382.006 533.74 382.105 534.162 382.191C534.584 382.273 534.939 382.367 535.229 382.473C536.123 382.801 536.57 383.369 536.57 384.178C536.57 384.756 536.322 385.225 535.826 385.584C535.33 385.939 534.689 386.117 533.904 386.117C533.373 386.117 532.9 386.023 532.486 385.836C532.076 385.645 531.754 385.385 531.52 385.057C531.285 384.725 531.168 384.367 531.168 383.984H532.773C532.789 384.285 532.9 384.516 533.107 384.676C533.314 384.836 533.592 384.916 533.939 384.916C534.264 384.916 534.508 384.855 534.672 384.734C534.84 384.609 534.924 384.447 534.924 384.248ZM539.693 378.102V379.66H540.777V380.902H539.693V384.066C539.693 384.301 539.738 384.469 539.828 384.57C539.918 384.672 540.09 384.723 540.344 384.723C540.531 384.723 540.697 384.709 540.842 384.682V385.965C540.51 386.066 540.168 386.117 539.816 386.117C538.629 386.117 538.023 385.518 538 384.318V380.902H537.074V379.66H538V378.102H539.693ZM541.803 385.168C541.803 384.898 541.893 384.68 542.072 384.512C542.256 384.344 542.484 384.26 542.758 384.26C543.035 384.26 543.264 384.344 543.443 384.512C543.627 384.68 543.719 384.898 543.719 385.168C543.719 385.434 543.629 385.65 543.449 385.818C543.27 385.982 543.039 386.064 542.758 386.064C542.48 386.064 542.252 385.982 542.072 385.818C541.893 385.65 541.803 385.434 541.803 385.168ZM541.803 380.369C541.803 380.1 541.893 379.881 542.072 379.713C542.256 379.545 542.484 379.461 542.758 379.461C543.035 379.461 543.264 379.545 543.443 379.713C543.627 379.881 543.719 380.1 543.719 380.369C543.719 380.635 543.629 380.852 543.449 381.02C543.27 381.184 543.039 381.266 542.758 381.266C542.48 381.266 542.252 381.184 542.072 381.02C541.893 380.852 541.803 380.635 541.803 380.369Z" fill="black"/>
<path d="M478 382L469.871 390.129L461.742 382" stroke="black" stroke-width="2"/>
<path d="M461.742 386.645V382H466.387" stroke="black" stroke-width="2"/>
<path d="M469.717 395.831C474.899 395.831 478.559 397.113 479.742 397.753V396.715C479.742 395.821 479.183 395.011 478.289 394.757C476.409 394.223 473.326 393.613 469.717 393.613C466.275 393.613 463.418 394.017 461.618 394.391C460.641 394.593 460 395.442 460 396.4V397.753C461.08 397.113 464.534 395.831 469.717 395.831Z" fill="#FF0000"/>
<path d="M479.742 398.521C479.742 399.483 478.799 400.189 477.826 399.956L474.124 399.068C473.437 398.904 472.956 398.312 472.956 397.634V395.803C472.956 394.841 473.899 394.135 474.872 394.368L478.574 395.255C479.26 395.42 479.742 396.011 479.742 396.69V398.521Z" fill="#FF0000"/>
<path d="M460 398.521C460 399.483 460.943 400.189 461.916 399.956L465.618 399.068C466.305 398.904 466.786 398.312 466.786 397.634V395.803C466.786 394.841 465.843 394.135 464.87 394.368L461.168 395.255C460.482 395.42 460 396.011 460 396.69V398.521Z" fill="#FF0000"/>
<path d="M351.271 404H350.182V396.775L347.996 397.578V396.594L351.102 395.428H351.271V404ZM358.602 400.25C358.375 400.52 358.104 400.736 357.787 400.9C357.475 401.064 357.131 401.146 356.756 401.146C356.264 401.146 355.834 401.025 355.467 400.783C355.104 400.541 354.822 400.201 354.623 399.764C354.424 399.322 354.324 398.836 354.324 398.305C354.324 397.734 354.432 397.221 354.646 396.764C354.865 396.307 355.174 395.957 355.572 395.715C355.971 395.473 356.436 395.352 356.967 395.352C357.811 395.352 358.475 395.668 358.959 396.301C359.447 396.93 359.691 397.789 359.691 398.879V399.195C359.691 400.855 359.363 402.068 358.707 402.834C358.051 403.596 357.061 403.986 355.736 404.006H355.525V403.092H355.754C356.648 403.076 357.336 402.844 357.816 402.395C358.297 401.941 358.559 401.227 358.602 400.25ZM356.932 400.25C357.295 400.25 357.629 400.139 357.934 399.916C358.242 399.693 358.467 399.418 358.607 399.09V398.656C358.607 397.945 358.453 397.367 358.145 396.922C357.836 396.477 357.445 396.254 356.973 396.254C356.496 396.254 356.113 396.438 355.824 396.805C355.535 397.168 355.391 397.648 355.391 398.246C355.391 398.828 355.529 399.309 355.807 399.688C356.088 400.062 356.463 400.25 356.932 400.25ZM365.762 401.135H366.945V402.02H365.762V404H364.672V402.02H360.787V401.381L364.607 395.469H365.762V401.135ZM362.018 401.135H364.672V396.951L364.543 397.186L362.018 401.135ZM371.486 404H370.396V396.775L368.211 397.578V396.594L371.316 395.428H371.486V404Z" fill="black"/>
<path d="M352.578 384.242H349.496L348.91 386H347.041L350.217 377.469H351.846L355.039 386H353.17L352.578 384.242ZM349.971 382.818H352.104L351.031 379.625L349.971 382.818ZM357.002 379.66L357.055 380.393C357.508 379.826 358.115 379.543 358.877 379.543C359.549 379.543 360.049 379.74 360.377 380.135C360.705 380.529 360.873 381.119 360.881 381.904V386H359.188V381.945C359.188 381.586 359.109 381.326 358.953 381.166C358.797 381.002 358.537 380.92 358.174 380.92C357.697 380.92 357.34 381.123 357.102 381.529V386H355.408V379.66H357.002ZM361.924 382.783C361.924 381.811 362.154 381.027 362.615 380.434C363.08 379.84 363.705 379.543 364.49 379.543C365.186 379.543 365.727 379.781 366.113 380.258L366.184 379.66H367.719V385.789C367.719 386.344 367.592 386.826 367.338 387.236C367.088 387.646 366.734 387.959 366.277 388.174C365.82 388.389 365.285 388.496 364.672 388.496C364.207 388.496 363.754 388.402 363.312 388.215C362.871 388.031 362.537 387.793 362.311 387.5L363.061 386.469C363.482 386.941 363.994 387.178 364.596 387.178C365.045 387.178 365.395 387.057 365.645 386.814C365.895 386.576 366.02 386.236 366.02 385.795V385.455C365.629 385.896 365.115 386.117 364.479 386.117C363.717 386.117 363.1 385.82 362.627 385.227C362.158 384.629 361.924 383.838 361.924 382.854V382.783ZM363.617 382.906C363.617 383.48 363.732 383.932 363.963 384.26C364.193 384.584 364.51 384.746 364.912 384.746C365.428 384.746 365.797 384.553 366.02 384.166V381.5C365.793 381.113 365.428 380.92 364.924 380.92C364.518 380.92 364.197 381.086 363.963 381.418C363.732 381.75 363.617 382.246 363.617 382.906ZM371.943 386.117C371.014 386.117 370.256 385.832 369.67 385.262C369.088 384.691 368.797 383.932 368.797 382.982V382.818C368.797 382.182 368.92 381.613 369.166 381.113C369.412 380.609 369.76 380.223 370.209 379.953C370.662 379.68 371.178 379.543 371.756 379.543C372.623 379.543 373.305 379.816 373.801 380.363C374.301 380.91 374.551 381.686 374.551 382.689V383.381H370.514C370.568 383.795 370.732 384.127 371.006 384.377C371.283 384.627 371.633 384.752 372.055 384.752C372.707 384.752 373.217 384.516 373.584 384.043L374.416 384.975C374.162 385.334 373.818 385.615 373.385 385.818C372.951 386.018 372.471 386.117 371.943 386.117ZM371.75 380.914C371.414 380.914 371.141 381.027 370.93 381.254C370.723 381.48 370.59 381.805 370.531 382.227H372.887V382.092C372.879 381.717 372.777 381.428 372.582 381.225C372.387 381.018 372.109 380.914 371.75 380.914ZM377.076 379.66L377.129 380.393C377.582 379.826 378.189 379.543 378.951 379.543C379.623 379.543 380.123 379.74 380.451 380.135C380.779 380.529 380.947 381.119 380.955 381.904V386H379.262V381.945C379.262 381.586 379.184 381.326 379.027 381.166C378.871 381.002 378.611 380.92 378.248 380.92C377.771 380.92 377.414 381.123 377.176 381.529V386H375.482V379.66H377.076ZM381.98 382.771C381.98 382.143 382.102 381.582 382.344 381.09C382.586 380.598 382.934 380.217 383.387 379.947C383.844 379.678 384.373 379.543 384.975 379.543C385.83 379.543 386.527 379.805 387.066 380.328C387.609 380.852 387.912 381.562 387.975 382.461L387.986 382.895C387.986 383.867 387.715 384.648 387.172 385.238C386.629 385.824 385.9 386.117 384.986 386.117C384.072 386.117 383.342 385.824 382.795 385.238C382.252 384.652 381.98 383.855 381.98 382.848V382.771ZM383.674 382.895C383.674 383.496 383.787 383.957 384.014 384.277C384.24 384.594 384.564 384.752 384.986 384.752C385.396 384.752 385.717 384.596 385.947 384.283C386.178 383.967 386.293 383.463 386.293 382.771C386.293 382.182 386.178 381.725 385.947 381.4C385.717 381.076 385.393 380.914 384.975 380.914C384.561 380.914 384.24 381.076 384.014 381.4C383.787 381.721 383.674 382.219 383.674 382.895ZM390.617 379.66L390.67 380.369C391.119 379.818 391.727 379.543 392.492 379.543C393.309 379.543 393.869 379.865 394.174 380.51C394.619 379.865 395.254 379.543 396.078 379.543C396.766 379.543 397.277 379.744 397.613 380.146C397.949 380.545 398.117 381.146 398.117 381.951V386H396.418V381.957C396.418 381.598 396.348 381.336 396.207 381.172C396.066 381.004 395.818 380.92 395.463 380.92C394.955 380.92 394.604 381.162 394.408 381.646L394.414 386H392.721V381.963C392.721 381.596 392.648 381.33 392.504 381.166C392.359 381.002 392.113 380.92 391.766 380.92C391.285 380.92 390.938 381.119 390.723 381.518V386H389.029V379.66H390.617ZM401.012 379.66L401.064 380.369C401.514 379.818 402.121 379.543 402.887 379.543C403.703 379.543 404.264 379.865 404.568 380.51C405.014 379.865 405.648 379.543 406.473 379.543C407.16 379.543 407.672 379.744 408.008 380.146C408.344 380.545 408.512 381.146 408.512 381.951V386H406.812V381.957C406.812 381.598 406.742 381.336 406.602 381.172C406.461 381.004 406.213 380.92 405.857 380.92C405.35 380.92 404.998 381.162 404.803 381.646L404.809 386H403.115V381.963C403.115 381.596 403.043 381.33 402.898 381.166C402.754 381.002 402.508 380.92 402.16 380.92C401.68 380.92 401.332 381.119 401.117 381.518V386H399.424V379.66H401.012ZM412.736 386.117C411.807 386.117 411.049 385.832 410.463 385.262C409.881 384.691 409.59 383.932 409.59 382.982V382.818C409.59 382.182 409.713 381.613 409.959 381.113C410.205 380.609 410.553 380.223 411.002 379.953C411.455 379.68 411.971 379.543 412.549 379.543C413.416 379.543 414.098 379.816 414.594 380.363C415.094 380.91 415.344 381.686 415.344 382.689V383.381H411.307C411.361 383.795 411.525 384.127 411.799 384.377C412.076 384.627 412.426 384.752 412.848 384.752C413.5 384.752 414.01 384.516 414.377 384.043L415.209 384.975C414.955 385.334 414.611 385.615 414.178 385.818C413.744 386.018 413.264 386.117 412.736 386.117ZM412.543 380.914C412.207 380.914 411.934 381.027 411.723 381.254C411.516 381.48 411.383 381.805 411.324 382.227H413.68V382.092C413.672 381.717 413.57 381.428 413.375 381.225C413.18 381.018 412.902 380.914 412.543 380.914ZM417.869 379.66L417.922 380.393C418.375 379.826 418.982 379.543 419.744 379.543C420.416 379.543 420.916 379.74 421.244 380.135C421.572 380.529 421.74 381.119 421.748 381.904V386H420.055V381.945C420.055 381.586 419.977 381.326 419.82 381.166C419.664 381.002 419.404 380.92 419.041 380.92C418.564 380.92 418.207 381.123 417.969 381.529V386H416.275V379.66H417.869ZM423.119 385.168C423.119 384.898 423.209 384.68 423.389 384.512C423.572 384.344 423.801 384.26 424.074 384.26C424.352 384.26 424.58 384.344 424.76 384.512C424.943 384.68 425.035 384.898 425.035 385.168C425.035 385.434 424.945 385.65 424.766 385.818C424.586 385.982 424.355 386.064 424.074 386.064C423.797 386.064 423.568 385.982 423.389 385.818C423.209 385.65 423.119 385.434 423.119 385.168ZM423.119 380.369C423.119 380.1 423.209 379.881 423.389 379.713C423.572 379.545 423.801 379.461 424.074 379.461C424.352 379.461 424.58 379.545 424.76 379.713C424.943 379.881 425.035 380.1 425.035 380.369C425.035 380.635 424.945 380.852 424.766 381.02C424.586 381.184 424.355 381.266 424.074 381.266C423.797 381.266 423.568 381.184 423.389 381.02C423.209 380.852 423.119 380.635 423.119 380.369Z" fill="black"/>
<path d="M322 384.333L326.667 389L334 381" stroke="black" stroke-width="2"/>
<path d="M319.439 393.387C323.103 397.052 326.598 398.734 327.887 399.117L327.153 399.852C326.521 400.484 325.553 400.661 324.741 400.208C323.034 399.257 320.423 397.508 317.871 394.956C315.437 392.522 313.702 390.216 312.693 388.679C312.146 387.845 312.293 386.792 312.971 386.114L313.927 385.157C314.238 386.374 315.775 389.723 319.439 393.387Z" fill="#86EC16"/>
<path d="M328.43 398.574C329.11 397.894 328.942 396.728 328.089 396.205L324.844 394.215C324.243 393.846 323.484 393.923 323.004 394.403L321.709 395.698C321.029 396.378 321.197 397.544 322.05 398.067L325.295 400.057C325.897 400.426 326.655 400.349 327.135 399.869L328.43 398.574Z" fill="#86EC16"/>
<path d="M314.47 384.615C315.151 383.934 316.316 384.102 316.84 384.955L318.83 388.2C319.199 388.802 319.121 389.561 318.642 390.041L317.347 391.335C316.667 392.016 315.501 391.848 314.977 390.995L312.987 387.75C312.618 387.148 312.696 386.389 313.175 385.909L314.47 384.615Z" fill="#86EC16"/>
<path d="M398.465 439.922C398.148 440.301 397.701 440.596 397.123 440.807C396.545 441.014 395.904 441.117 395.201 441.117C394.463 441.117 393.814 440.957 393.256 440.637C392.701 440.312 392.271 439.844 391.967 439.23C391.666 438.617 391.512 437.896 391.504 437.068V436.488C391.504 435.637 391.646 434.9 391.932 434.279C392.221 433.654 392.635 433.178 393.174 432.85C393.717 432.518 394.352 432.352 395.078 432.352C396.09 432.352 396.881 432.594 397.451 433.078C398.021 433.559 398.359 434.26 398.465 435.182H396.754C396.676 434.693 396.502 434.336 396.232 434.109C395.967 433.883 395.6 433.77 395.131 433.77C394.533 433.77 394.078 433.994 393.766 434.443C393.453 434.893 393.295 435.561 393.291 436.447V436.992C393.291 437.887 393.461 438.562 393.801 439.02C394.141 439.477 394.639 439.705 395.295 439.705C395.955 439.705 396.426 439.564 396.707 439.283V437.812H395.107V436.518H398.465V439.922ZM402.701 441.117C401.771 441.117 401.014 440.832 400.428 440.262C399.846 439.691 399.555 438.932 399.555 437.982V437.818C399.555 437.182 399.678 436.613 399.924 436.113C400.17 435.609 400.518 435.223 400.967 434.953C401.42 434.68 401.936 434.543 402.514 434.543C403.381 434.543 404.062 434.816 404.559 435.363C405.059 435.91 405.309 436.686 405.309 437.689V438.381H401.271C401.326 438.795 401.49 439.127 401.764 439.377C402.041 439.627 402.391 439.752 402.812 439.752C403.465 439.752 403.975 439.516 404.342 439.043L405.174 439.975C404.92 440.334 404.576 440.615 404.143 440.818C403.709 441.018 403.229 441.117 402.701 441.117ZM402.508 435.914C402.172 435.914 401.898 436.027 401.688 436.254C401.48 436.48 401.348 436.805 401.289 437.227H403.645V437.092C403.637 436.717 403.535 436.428 403.34 436.225C403.145 436.018 402.867 435.914 402.508 435.914ZM409.709 439.248C409.709 439.041 409.605 438.879 409.398 438.762C409.195 438.641 408.867 438.533 408.414 438.439C406.906 438.123 406.152 437.482 406.152 436.518C406.152 435.955 406.385 435.486 406.85 435.111C407.318 434.732 407.93 434.543 408.684 434.543C409.488 434.543 410.131 434.732 410.611 435.111C411.096 435.49 411.338 435.982 411.338 436.588H409.645C409.645 436.346 409.566 436.146 409.41 435.99C409.254 435.83 409.01 435.75 408.678 435.75C408.393 435.75 408.172 435.814 408.016 435.943C407.859 436.072 407.781 436.236 407.781 436.436C407.781 436.623 407.869 436.775 408.045 436.893C408.225 437.006 408.525 437.105 408.947 437.191C409.369 437.273 409.725 437.367 410.014 437.473C410.908 437.801 411.355 438.369 411.355 439.178C411.355 439.756 411.107 440.225 410.611 440.584C410.115 440.939 409.475 441.117 408.689 441.117C408.158 441.117 407.686 441.023 407.271 440.836C406.861 440.645 406.539 440.385 406.305 440.057C406.07 439.725 405.953 439.367 405.953 438.984H407.559C407.574 439.285 407.686 439.516 407.893 439.676C408.1 439.836 408.377 439.916 408.725 439.916C409.049 439.916 409.293 439.855 409.457 439.734C409.625 439.609 409.709 439.447 409.709 439.248ZM416.125 441C416.047 440.848 415.99 440.658 415.955 440.432C415.545 440.889 415.012 441.117 414.355 441.117C413.734 441.117 413.219 440.938 412.809 440.578C412.402 440.219 412.199 439.766 412.199 439.219C412.199 438.547 412.447 438.031 412.943 437.672C413.443 437.312 414.164 437.131 415.105 437.127H415.885V436.764C415.885 436.471 415.809 436.236 415.656 436.061C415.508 435.885 415.271 435.797 414.947 435.797C414.662 435.797 414.438 435.865 414.273 436.002C414.113 436.139 414.033 436.326 414.033 436.564H412.34C412.34 436.197 412.453 435.857 412.68 435.545C412.906 435.232 413.227 434.988 413.641 434.812C414.055 434.633 414.52 434.543 415.035 434.543C415.816 434.543 416.436 434.74 416.893 435.135C417.354 435.525 417.584 436.076 417.584 436.787V439.535C417.588 440.137 417.672 440.592 417.836 440.9V441H416.125ZM414.725 439.822C414.975 439.822 415.205 439.768 415.416 439.658C415.627 439.545 415.783 439.395 415.885 439.207V438.117H415.252C414.404 438.117 413.953 438.41 413.898 438.996L413.893 439.096C413.893 439.307 413.967 439.48 414.115 439.617C414.264 439.754 414.467 439.822 414.725 439.822ZM420.473 434.66L420.525 435.369C420.975 434.818 421.582 434.543 422.348 434.543C423.164 434.543 423.725 434.865 424.029 435.51C424.475 434.865 425.109 434.543 425.934 434.543C426.621 434.543 427.133 434.744 427.469 435.146C427.805 435.545 427.973 436.146 427.973 436.951V441H426.273V436.957C426.273 436.598 426.203 436.336 426.062 436.172C425.922 436.004 425.674 435.92 425.318 435.92C424.811 435.92 424.459 436.162 424.264 436.646L424.27 441H422.576V436.963C422.576 436.596 422.504 436.33 422.359 436.166C422.215 436.002 421.969 435.92 421.621 435.92C421.141 435.92 420.793 436.119 420.578 436.518V441H418.885V434.66H420.473ZM431.307 433.102V434.66H432.391V435.902H431.307V439.066C431.307 439.301 431.352 439.469 431.441 439.57C431.531 439.672 431.703 439.723 431.957 439.723C432.145 439.723 432.311 439.709 432.455 439.682V440.965C432.123 441.066 431.781 441.117 431.43 441.117C430.242 441.117 429.637 440.518 429.613 439.318V435.902H428.688V434.66H429.613V433.102H431.307ZM433.416 440.168C433.416 439.898 433.506 439.68 433.686 439.512C433.869 439.344 434.098 439.26 434.371 439.26C434.648 439.26 434.877 439.344 435.057 439.512C435.24 439.68 435.332 439.898 435.332 440.168C435.332 440.434 435.242 440.65 435.062 440.818C434.883 440.982 434.652 441.064 434.371 441.064C434.094 441.064 433.865 440.982 433.686 440.818C433.506 440.65 433.416 440.434 433.416 440.168ZM433.416 435.369C433.416 435.1 433.506 434.881 433.686 434.713C433.869 434.545 434.098 434.461 434.371 434.461C434.648 434.461 434.877 434.545 435.057 434.713C435.24 434.881 435.332 435.1 435.332 435.369C435.332 435.635 435.242 435.852 435.062 436.02C434.883 436.184 434.652 436.266 434.371 436.266C434.094 436.266 433.865 436.184 433.686 436.02C433.506 435.852 433.416 435.635 433.416 435.369ZM441.332 436.207H442.146C442.658 436.199 443.061 436.064 443.354 435.803C443.646 435.541 443.793 435.188 443.793 434.742C443.793 433.742 443.295 433.242 442.299 433.242C441.83 433.242 441.455 433.377 441.174 433.646C440.896 433.912 440.758 434.266 440.758 434.707H439.674C439.674 434.031 439.92 433.471 440.412 433.025C440.908 432.576 441.537 432.352 442.299 432.352C443.104 432.352 443.734 432.564 444.191 432.99C444.648 433.416 444.877 434.008 444.877 434.766C444.877 435.137 444.756 435.496 444.514 435.844C444.275 436.191 443.949 436.451 443.535 436.623C444.004 436.771 444.365 437.018 444.619 437.361C444.877 437.705 445.006 438.125 445.006 438.621C445.006 439.387 444.756 439.994 444.256 440.443C443.756 440.893 443.105 441.117 442.305 441.117C441.504 441.117 440.852 440.9 440.348 440.467C439.848 440.033 439.598 439.461 439.598 438.75H440.688C440.688 439.199 440.834 439.559 441.127 439.828C441.42 440.098 441.812 440.232 442.305 440.232C442.828 440.232 443.229 440.096 443.506 439.822C443.783 439.549 443.922 439.156 443.922 438.645C443.922 438.148 443.77 437.768 443.465 437.502C443.16 437.236 442.721 437.1 442.146 437.092H441.332V436.207ZM450.057 441H448.967V433.775L446.781 434.578V433.594L449.887 432.428H450.057V441ZM458.74 433.078L455.207 441H454.07L457.592 433.359H452.975V432.469H458.74V433.078ZM463.533 441H462.443V433.775L460.258 434.578V433.594L463.363 432.428H463.533V441Z" fill="white"/>
<path d="M402.852 296.852V300.531H402.055C398.68 300.594 395.992 301.594 393.992 303.531C391.992 305.469 390.836 308.195 390.523 311.711C392.32 309.648 394.773 308.617 397.883 308.617C400.852 308.617 403.219 309.664 404.984 311.758C406.766 313.852 407.656 316.555 407.656 319.867C407.656 323.383 406.695 326.195 404.773 328.305C402.867 330.414 400.305 331.469 397.086 331.469C393.82 331.469 391.172 330.219 389.141 327.719C387.109 325.203 386.094 321.969 386.094 318.016V316.352C386.094 310.07 387.43 305.273 390.102 301.961C392.789 298.633 396.781 296.93 402.078 296.852H402.852ZM397.156 312.227C395.672 312.227 394.305 312.672 393.055 313.562C391.805 314.453 390.938 315.57 390.453 316.914V318.508C390.453 321.32 391.086 323.586 392.352 325.305C393.617 327.023 395.195 327.883 397.086 327.883C399.039 327.883 400.57 327.164 401.68 325.727C402.805 324.289 403.367 322.406 403.367 320.078C403.367 317.734 402.797 315.844 401.656 314.406C400.531 312.953 399.031 312.227 397.156 312.227ZM427.039 331H422.68V302.102L413.938 305.312V301.375L426.359 296.711H427.039V331ZM439.367 303.438C439.367 301.391 440.016 299.703 441.312 298.375C442.625 297.047 444.305 296.383 446.352 296.383C448.43 296.383 450.109 297.055 451.391 298.398C452.688 299.727 453.336 301.453 453.336 303.578V305.242C453.336 307.305 452.68 308.992 451.367 310.305C450.07 311.602 448.414 312.25 446.398 312.25C444.367 312.25 442.688 311.602 441.359 310.305C440.031 308.992 439.367 307.25 439.367 305.078V303.438ZM442.602 305.242C442.602 306.461 442.945 307.469 443.633 308.266C444.32 309.047 445.242 309.438 446.398 309.438C447.508 309.438 448.398 309.055 449.07 308.289C449.758 307.523 450.102 306.477 450.102 305.148V303.438C450.102 302.219 449.766 301.211 449.094 300.414C448.422 299.617 447.508 299.219 446.352 299.219C445.195 299.219 444.281 299.617 443.609 300.414C442.938 301.211 442.602 302.25 442.602 303.531V305.242ZM455.984 322.633C455.984 320.586 456.633 318.906 457.93 317.594C459.242 316.266 460.922 315.602 462.969 315.602C465.016 315.602 466.695 316.258 468.008 317.57C469.32 318.883 469.977 320.625 469.977 322.797V324.461C469.977 326.508 469.32 328.195 468.008 329.523C466.711 330.836 465.047 331.492 463.016 331.492C460.984 331.492 459.305 330.844 457.977 329.547C456.648 328.234 455.984 326.492 455.984 324.32V322.633ZM459.219 324.461C459.219 325.695 459.562 326.711 460.25 327.508C460.938 328.289 461.859 328.68 463.016 328.68C464.141 328.68 465.039 328.297 465.711 327.531C466.383 326.75 466.719 325.695 466.719 324.367V322.633C466.719 321.398 466.375 320.391 465.688 319.609C465.016 318.828 464.109 318.438 462.969 318.438C461.859 318.438 460.953 318.828 460.25 319.609C459.562 320.375 459.219 321.414 459.219 322.727V324.461ZM447.383 328.422L444.922 326.875L461.586 300.203L464.047 301.75L447.383 328.422Z" fill="#FF0000"/>
<path d="M384.049 254.613C382.682 254.22 381.686 253.738 381.061 253.168C380.441 252.593 380.131 251.885 380.131 251.043C380.131 250.092 380.51 249.306 381.269 248.686C382.032 248.061 383.023 247.748 384.24 247.748C385.07 247.748 385.809 247.909 386.457 248.229C387.11 248.55 387.613 248.993 387.967 249.558C388.327 250.122 388.507 250.739 388.507 251.409H386.905C386.905 250.678 386.672 250.105 386.208 249.69C385.743 249.27 385.087 249.06 384.24 249.06C383.454 249.06 382.84 249.234 382.397 249.583C381.96 249.926 381.742 250.404 381.742 251.019C381.742 251.511 381.949 251.929 382.364 252.272C382.785 252.61 383.496 252.919 384.498 253.202C385.505 253.484 386.291 253.797 386.855 254.14C387.425 254.477 387.846 254.873 388.117 255.327C388.393 255.78 388.532 256.314 388.532 256.929C388.532 257.908 388.15 258.694 387.386 259.286C386.623 259.873 385.602 260.166 384.323 260.166C383.493 260.166 382.718 260.008 381.999 259.693C381.28 259.372 380.723 258.935 380.331 258.381C379.943 257.828 379.75 257.2 379.75 256.497H381.352C381.352 257.228 381.62 257.806 382.157 258.232C382.699 258.653 383.421 258.863 384.323 258.863C385.164 258.863 385.809 258.691 386.257 258.348C386.706 258.005 386.93 257.537 386.93 256.945C386.93 256.353 386.722 255.897 386.307 255.576C385.892 255.249 385.139 254.928 384.049 254.613ZM394.068 260.166C392.851 260.166 391.86 259.768 391.097 258.971C390.333 258.168 389.951 257.097 389.951 255.758V255.476C389.951 254.585 390.12 253.791 390.458 253.094C390.801 252.391 391.277 251.843 391.885 251.45C392.5 251.052 393.164 250.853 393.877 250.853C395.045 250.853 395.953 251.237 396.6 252.006C397.248 252.776 397.571 253.877 397.571 255.31V255.949H391.487C391.509 256.835 391.766 257.551 392.259 258.099C392.757 258.641 393.388 258.913 394.151 258.913C394.694 258.913 395.153 258.802 395.529 258.581C395.906 258.359 396.235 258.066 396.517 257.701L397.455 258.431C396.702 259.588 395.574 260.166 394.068 260.166ZM393.877 252.114C393.258 252.114 392.737 252.341 392.317 252.795C391.896 253.243 391.636 253.874 391.537 254.688H396.036V254.571C395.991 253.791 395.781 253.188 395.405 252.762C395.028 252.33 394.519 252.114 393.877 252.114ZM403.697 252.396C403.465 252.358 403.213 252.338 402.942 252.338C401.935 252.338 401.251 252.767 400.892 253.625V260H399.356V251.019H400.85L400.875 252.056C401.379 251.254 402.092 250.853 403.017 250.853C403.315 250.853 403.542 250.891 403.697 250.969V252.396ZM408.229 257.917L410.454 251.019H412.023L408.802 260H407.632L404.378 251.019H405.947L408.229 257.917ZM415.169 260H413.633V251.019H415.169V260ZM413.509 248.636C413.509 248.387 413.583 248.177 413.733 248.005C413.888 247.834 414.115 247.748 414.414 247.748C414.712 247.748 414.939 247.834 415.094 248.005C415.249 248.177 415.327 248.387 415.327 248.636C415.327 248.885 415.249 249.093 415.094 249.259C414.939 249.425 414.712 249.508 414.414 249.508C414.115 249.508 413.888 249.425 413.733 249.259C413.583 249.093 413.509 248.885 413.509 248.636ZM421.237 258.913C421.785 258.913 422.263 258.747 422.673 258.415C423.082 258.083 423.309 257.667 423.354 257.169H424.806C424.778 257.684 424.601 258.174 424.275 258.639C423.948 259.104 423.511 259.474 422.963 259.751C422.421 260.028 421.846 260.166 421.237 260.166C420.014 260.166 419.04 259.759 418.315 258.946C417.596 258.127 417.236 257.009 417.236 255.592V255.335C417.236 254.461 417.396 253.683 417.717 253.002C418.038 252.322 418.498 251.793 419.095 251.417C419.698 251.041 420.41 250.853 421.229 250.853C422.236 250.853 423.071 251.154 423.735 251.757C424.405 252.361 424.762 253.144 424.806 254.106H423.354C423.309 253.525 423.088 253.049 422.689 252.679C422.297 252.302 421.81 252.114 421.229 252.114C420.448 252.114 419.842 252.396 419.411 252.961C418.985 253.52 418.771 254.331 418.771 255.393V255.684C418.771 256.718 418.985 257.515 419.411 258.074C419.837 258.633 420.445 258.913 421.237 258.913ZM430.26 260.166C429.042 260.166 428.052 259.768 427.288 258.971C426.524 258.168 426.143 257.097 426.143 255.758V255.476C426.143 254.585 426.311 253.791 426.649 253.094C426.992 252.391 427.468 251.843 428.077 251.45C428.691 251.052 429.355 250.853 430.069 250.853C431.236 250.853 432.144 251.237 432.792 252.006C433.439 252.776 433.763 253.877 433.763 255.31V255.949H427.678C427.7 256.835 427.958 257.551 428.45 258.099C428.948 258.641 429.579 258.913 430.343 258.913C430.885 258.913 431.344 258.802 431.721 258.581C432.097 258.359 432.426 258.066 432.708 257.701L433.646 258.431C432.894 259.588 431.765 260.166 430.26 260.166ZM430.069 252.114C429.449 252.114 428.929 252.341 428.508 252.795C428.088 253.243 427.828 253.874 427.728 254.688H432.227V254.571C432.183 253.791 431.972 253.188 431.596 252.762C431.22 252.33 430.711 252.114 430.069 252.114ZM441.607 258.697H447.334V260H440.005V247.914H441.607V258.697ZM452.639 260.166C451.421 260.166 450.431 259.768 449.667 258.971C448.903 258.168 448.521 257.097 448.521 255.758V255.476C448.521 254.585 448.69 253.791 449.028 253.094C449.371 252.391 449.847 251.843 450.456 251.45C451.07 251.052 451.734 250.853 452.448 250.853C453.615 250.853 454.523 251.237 455.17 252.006C455.818 252.776 456.142 253.877 456.142 255.31V255.949H450.057C450.079 256.835 450.337 257.551 450.829 258.099C451.327 258.641 451.958 258.913 452.722 258.913C453.264 258.913 453.723 258.802 454.1 258.581C454.476 258.359 454.805 258.066 455.087 257.701L456.025 258.431C455.273 259.588 454.144 260.166 452.639 260.166ZM452.448 252.114C451.828 252.114 451.308 252.341 450.887 252.795C450.467 253.243 450.207 253.874 450.107 254.688H454.606V254.571C454.562 253.791 454.351 253.188 453.975 252.762C453.599 252.33 453.09 252.114 452.448 252.114ZM460.773 257.917L462.998 251.019H464.567L461.346 260H460.176L456.922 251.019H458.491L460.773 257.917ZM469.655 260.166C468.438 260.166 467.447 259.768 466.684 258.971C465.92 258.168 465.538 257.097 465.538 255.758V255.476C465.538 254.585 465.707 253.791 466.044 253.094C466.388 252.391 466.863 251.843 467.472 251.45C468.086 251.052 468.75 250.853 469.464 250.853C470.632 250.853 471.54 251.237 472.187 252.006C472.834 252.776 473.158 253.877 473.158 255.31V255.949H467.074C467.096 256.835 467.353 257.551 467.846 258.099C468.344 258.641 468.975 258.913 469.738 258.913C470.281 258.913 470.74 258.802 471.116 258.581C471.493 258.359 471.822 258.066 472.104 257.701L473.042 258.431C472.289 259.588 471.16 260.166 469.655 260.166ZM469.464 252.114C468.845 252.114 468.324 252.341 467.904 252.795C467.483 253.243 467.223 253.874 467.124 254.688H471.623V254.571C471.578 253.791 471.368 253.188 470.992 252.762C470.615 252.33 470.106 252.114 469.464 252.114ZM476.611 260H475.076V247.25H476.611V260Z" fill="black"/>
<path d="M135.086 331H130.727V302.102L121.984 305.312V301.375L134.406 296.711H135.086V331ZM162.039 331H157.68V302.102L148.938 305.312V301.375L161.359 296.711H162.039V331ZM189.953 324.273C189.953 323.102 189.508 322.195 188.617 321.555C187.742 320.898 186.203 320.336 184 319.867C181.812 319.398 180.07 318.836 178.773 318.18C177.492 317.523 176.539 316.742 175.914 315.836C175.305 314.93 175 313.852 175 312.602C175 310.523 175.875 308.766 177.625 307.328C179.391 305.891 181.641 305.172 184.375 305.172C187.25 305.172 189.578 305.914 191.359 307.398C193.156 308.883 194.055 310.781 194.055 313.094H189.695C189.695 311.906 189.188 310.883 188.172 310.023C187.172 309.164 185.906 308.734 184.375 308.734C182.797 308.734 181.562 309.078 180.672 309.766C179.781 310.453 179.336 311.352 179.336 312.461C179.336 313.508 179.75 314.297 180.578 314.828C181.406 315.359 182.898 315.867 185.055 316.352C187.227 316.836 188.984 317.414 190.328 318.086C191.672 318.758 192.664 319.57 193.305 320.523C193.961 321.461 194.289 322.609 194.289 323.969C194.289 326.234 193.383 328.055 191.57 329.43C189.758 330.789 187.406 331.469 184.516 331.469C182.484 331.469 180.688 331.109 179.125 330.391C177.562 329.672 176.336 328.672 175.445 327.391C174.57 326.094 174.133 324.695 174.133 323.195H178.469C178.547 324.648 179.125 325.805 180.203 326.664C181.297 327.508 182.734 327.93 184.516 327.93C186.156 327.93 187.469 327.602 188.453 326.945C189.453 326.273 189.953 325.383 189.953 324.273Z" fill="#86EC16"/>
<path d="M372 131L380.66 146H363.34L372 131Z" fill="#86EC16"/>
<path d="M491 146L499.66 131H482.34L491 146Z" fill="#FF0000"/>
<defs>
<filter id="filter0_d" x="0" y="58" width="586" height="440" filterUnits="userSpaceOnUse" color-interpolation-filters="sRGB">
<feFlood flood-opacity="0" result="BackgroundImageFix"/>
<feColorMatrix in="SourceAlpha" type="matrix" values="0 0 0 0 0 0 0 0 0 0 0 0 0 0 0 0 0 0 127 0" result="hardAlpha"/>
<feOffset dy="4"/>
<feGaussianBlur stdDeviation="9"/>
<feColorMatrix type="matrix" values="0 0 0 0 0 0 0 0 0 0 0 0 0 0 0 0 0 0 0.25 0"/>
<feBlend mode="normal" in2="BackgroundImageFix" result="effect1_dropShadow"/>
<feBlend mode="normal" in="SourceGraphic" in2="effect1_dropShadow" result="shape"/>
</filter>
</defs>
</svg>
