<svg width="556" height="521" viewBox="0 0 556 521" fill="none" xmlns="http://www.w3.org/2000/svg">
<path d="M311.103 401.362L140.607 369.684L142.375 360.519L312.871 392.197L311.103 401.362Z" fill="#86EC16"/>
<path d="M493.811 183.475L358.99 210.973L357.222 201.807L492.044 174.31L493.811 183.475Z" fill="#86EC16"/>
<path d="M412.983 138.451L300.336 155.335L299.051 146.169L411.697 129.285L412.983 138.451Z" fill="#86EC16"/>
<path d="M364.614 358.267L251.967 374.991L250.521 365.825L363.167 349.102L364.614 358.267Z" fill="#86EC16"/>
<path d="M434.355 114.169L320.584 115.456L320.423 106.29L434.355 104.843V114.169Z" fill="#86EC16"/>
<path d="M495.418 101.627L382.29 87.9587L383.415 78.793L496.543 92.4612L495.418 101.627Z" fill="#86EC16"/>
<path d="M459.262 227.214H321.708V236.54H459.262V227.214Z" fill="#86EC16"/>
<path d="M437.569 270.148L264.502 279.957L263.859 270.63L437.087 260.821L437.569 270.148Z" fill="#86EC16"/>
<path d="M301.14 118.833C305.843 118.833 309.657 115.017 309.657 110.311C309.657 105.604 305.843 101.788 301.14 101.788C296.436 101.788 292.623 105.604 292.623 110.311C292.623 115.017 296.436 118.833 301.14 118.833Z" fill="white" stroke="black" stroke-width="2" stroke-miterlimit="10" stroke-linecap="round" stroke-linejoin="round"/>
<path d="M455.727 272.882C460.431 272.882 464.244 269.066 464.244 264.359C464.244 259.653 460.431 255.837 455.727 255.837C451.024 255.837 447.21 259.653 447.21 264.359C447.21 269.066 451.024 272.882 455.727 272.882Z" fill="#86EC16"/>
<path d="M396.592 305.043L398.038 310.028" stroke="black" stroke-width="2" stroke-miterlimit="10" stroke-linecap="round" stroke-linejoin="round"/>
<path d="M287.481 410.529L282.5 416.961" stroke="black" stroke-width="2" stroke-miterlimit="10" stroke-linecap="round" stroke-linejoin="round"/>
<path d="M275.429 248.601L279.768 252.138" stroke="black" stroke-width="2" stroke-miterlimit="10" stroke-linecap="round" stroke-linejoin="round"/>
<path d="M403.823 165.145L398.681 170.933" stroke="black" stroke-width="2" stroke-miterlimit="10" stroke-linecap="round" stroke-linejoin="round"/>
<path d="M404.466 183.798L409.447 185.084" stroke="black" stroke-width="2" stroke-miterlimit="10" stroke-linecap="round" stroke-linejoin="round"/>
<path d="M151.374 383.515L143.5 385.605" stroke="black" stroke-width="2" stroke-miterlimit="10" stroke-linecap="round" stroke-linejoin="round"/>
<path d="M122.127 309.224L120.038 315.013" stroke="black" stroke-width="2" stroke-miterlimit="10" stroke-linecap="round" stroke-linejoin="round"/>
<path d="M62.3491 331.414L67.3306 332.861" stroke="black" stroke-width="2" stroke-miterlimit="10" stroke-linecap="round" stroke-linejoin="round"/>
<path d="M169.853 193.123C169.532 193.284 169.05 193.445 168.729 193.605C160.533 197.304 151.856 201.967 146.874 209.686C145.91 211.133 145.267 212.741 144.625 214.349C137.554 211.133 130.644 207.113 125.502 202.128C125.663 201.806 125.663 201.645 125.823 201.324C132.09 189.424 142.535 181.384 154.105 175.435C156.355 174.309 158.605 173.183 160.855 172.219C161.658 171.897 162.461 171.575 163.265 171.415C167.282 170.611 170.657 172.058 173.067 174.631C177.888 180.098 178.209 189.585 169.853 193.123Z" fill="black" stroke="black" stroke-width="2" stroke-miterlimit="10" stroke-linecap="round" stroke-linejoin="round"/>
<path d="M255.342 145.043C252.45 162.41 239.273 175.114 223.204 181.063C205.849 187.495 186.887 186.37 169.693 193.284C169.371 193.445 169.05 193.445 168.729 193.606C158.283 196.822 151.052 184.762 155.391 177.043C156.516 175.114 158.283 173.506 160.855 172.541C161.658 172.219 162.622 171.897 163.426 171.576C167.122 170.289 170.818 169.325 174.514 168.36C185.119 165.948 195.886 164.983 206.492 162.571C217.419 160.159 230.917 154.37 233.006 141.827C233.167 141.184 233.327 140.541 233.488 140.059C240.88 140.863 248.111 141.345 255.503 141.827C255.503 142.953 255.503 144.079 255.342 145.043Z" fill="black" stroke="black" stroke-width="2" stroke-miterlimit="10" stroke-linecap="round" stroke-linejoin="round"/>
<path d="M233.006 141.988C234.291 132.34 233.006 125.747 234.774 123.817C236.541 121.888 236.38 129.124 239.112 130.089C241.844 131.054 240.237 118.993 243.772 118.029C247.308 116.903 245.861 127.838 245.861 127.838C245.861 127.838 246.343 118.029 249.075 118.35C251.807 118.672 250.361 128.481 250.361 128.481C250.361 128.481 251.968 118.833 253.414 119.315C254.86 119.797 257.592 123.978 255.342 145.043" stroke="black" stroke-width="2" stroke-miterlimit="10" stroke-linecap="round" stroke-linejoin="round"/>
<path d="M239.112 130.089C243.451 132.662 244.737 136.039 244.737 136.039L239.112 130.089Z" fill="black"/>
<path d="M239.112 130.089C243.451 132.662 244.737 136.039 244.737 136.039" stroke="black" stroke-width="2" stroke-miterlimit="10" stroke-linecap="round" stroke-linejoin="round"/>
<path d="M351.276 214.832C351.276 214.832 368.631 224.48 372.006 227.214L393.539 187.495C393.539 187.495 380.523 182.511 375.22 191.837L358.829 185.244L351.276 214.832Z" fill="black" stroke="black" stroke-width="2" stroke-miterlimit="10" stroke-linecap="round" stroke-linejoin="round"/>
<path d="M375.381 191.837L373.292 198.108" stroke="white" stroke-width="2" stroke-miterlimit="10" stroke-linecap="round" stroke-linejoin="round"/>
<path d="M372.006 190.229L369.274 196.34" stroke="white" stroke-width="2" stroke-miterlimit="10" stroke-linecap="round" stroke-linejoin="round"/>
<path d="M233.166 383.675C233.166 383.675 226.257 398.147 224.007 402.006L266.109 418.408C266.109 418.408 269.322 404.901 259.52 400.881L263.859 383.836L233.166 383.675Z" fill="black" stroke="black" stroke-width="2" stroke-miterlimit="10" stroke-linecap="round" stroke-linejoin="round"/>
<path d="M228.185 383.353C241.04 324.338 207.295 277.706 167.925 257.927C155.712 251.816 158.926 241.525 166.639 234.289C167.121 230.912 168.728 227.535 170.978 224.641C217.258 164.501 305.157 153.084 367.667 186.048L350.312 218.691C302.586 193.928 239.916 195.696 200.867 236.701C246.825 264.52 285.071 322.087 265.787 389.303C254.217 387.695 239.434 384.157 228.185 383.353Z" fill="white" stroke="black" stroke-width="2" stroke-miterlimit="10" stroke-linecap="round" stroke-linejoin="round"/>
<path d="M259.52 400.719L253.093 399.433" stroke="white" stroke-width="2" stroke-miterlimit="10" stroke-linecap="round" stroke-linejoin="round"/>
<path d="M260.806 397.182L254.378 395.413" stroke="white" stroke-width="2" stroke-miterlimit="10" stroke-linecap="round" stroke-linejoin="round"/>
<path d="M229.149 377.082L266.591 380.781" stroke="black" stroke-width="2" stroke-miterlimit="10" stroke-linecap="round" stroke-linejoin="round"/>
<path d="M359.793 182.993L343.563 214.832" stroke="black" stroke-width="2" stroke-miterlimit="10" stroke-linecap="round" stroke-linejoin="round"/>
<path d="M140.471 258.316L82.1995 248.227L74.5553 292.435L132.827 302.525L140.471 258.316Z" stroke="black" stroke-width="2" stroke-miterlimit="10" stroke-linecap="round" stroke-linejoin="round"/>
<path d="M89.3458 257.444L85.0071 282.69" stroke="black" stroke-width="2" stroke-miterlimit="10" stroke-linecap="round" stroke-linejoin="round"/>
<path d="M98.5053 259.052L94.0059 284.298" stroke="black" stroke-width="2" stroke-miterlimit="10" stroke-linecap="round" stroke-linejoin="round"/>
<path d="M145.596 232.55L112.681 281.713L149.929 306.684L182.844 257.521L145.596 232.55Z" fill="white" stroke="black" stroke-width="2" stroke-miterlimit="10" stroke-linecap="round" stroke-linejoin="round"/>
<path d="M124.056 278.992L145.267 293.304" stroke="black" stroke-width="2" stroke-miterlimit="10" stroke-linecap="round" stroke-linejoin="round"/>
<path d="M129.198 271.273L150.409 285.585" stroke="black" stroke-width="2" stroke-miterlimit="10" stroke-linecap="round" stroke-linejoin="round"/>
<path d="M98.6544 319.797L47.231 359.974L77.6893 399.011L129.113 358.834L98.6544 319.797Z" stroke="black" stroke-width="2" stroke-miterlimit="10" stroke-linecap="round" stroke-linejoin="round"/>
<path d="M81.6326 344.6L98.9875 366.951" stroke="black" stroke-width="2" stroke-miterlimit="10" stroke-linecap="round" stroke-linejoin="round"/>
<path d="M71.6694 352.317L89.185 374.669" stroke="black" stroke-width="2" stroke-miterlimit="10" stroke-linecap="round" stroke-linejoin="round"/>
<path d="M89.6672 338.328L107.022 360.68" stroke="black" stroke-width="2" stroke-miterlimit="10" stroke-linecap="round" stroke-linejoin="round"/>
<path d="M218.061 223.193L163.586 243.937C161.497 244.741 159.247 243.615 158.444 241.686L143.982 203.576C143.178 201.485 144.303 199.234 146.231 198.43L200.706 177.686C202.795 176.882 205.045 178.008 205.849 179.938L220.311 218.048C221.275 219.977 220.15 222.389 218.061 223.193Z" fill="white" stroke="black" stroke-width="2" stroke-miterlimit="10" stroke-linecap="round" stroke-linejoin="round"/>
<path d="M183.154 205.04L176.997 207.389L179.459 213.85L185.616 211.501L183.154 205.04Z" stroke="black" stroke-width="2" stroke-miterlimit="10" stroke-linecap="round" stroke-linejoin="round"/>
<path d="M148.16 216.601C126.305 246.027 139.482 235.093 151.374 239.274C163.265 243.455 145.428 276.258 139 304.399C132.412 333.826 179.334 296.841 188.012 312.439C197.011 328.519 125.341 407.473 73.9192 407.955" stroke="black" stroke-width="2" stroke-miterlimit="10" stroke-linecap="round" stroke-linejoin="round"/>
<path d="M144.946 203.415L206.331 179.938" stroke="black" stroke-width="2" stroke-miterlimit="10" stroke-linecap="round" stroke-linejoin="round"/>
<path d="M148.16 214.992L150.088 220.942C150.088 220.942 147.838 222.228 146.231 219.495C144.624 216.761 148.16 214.992 148.16 214.992Z" fill="black"/>
<path d="M129.64 380.857L108.905 392.837L113.726 401.192L134.461 389.212L129.64 380.857Z" fill="black"/>
<path d="M200.224 230.912C197.975 226.57 195.243 222.55 192.511 218.369C180.941 229.947 161.176 244.419 147.356 230.429C142.053 225.123 142.857 217.404 146.071 211.294C140.607 205.987 135.144 200.52 130.001 195.053C128.555 196.982 127.109 199.234 125.984 201.485C118.753 215.153 119.235 233.002 130.001 244.741C140.768 256.64 157.319 260.499 172.746 256.64C184.959 253.585 195.082 246.831 204.081 238.469C202.796 235.897 201.51 233.324 200.224 230.912Z" fill="black" stroke="black" stroke-width="2" stroke-miterlimit="10" stroke-linecap="round" stroke-linejoin="round"/>
<path d="M192.511 218.369C203.438 207.756 209.384 203.254 204.563 211.776C201.671 217.083 205.206 214.992 211.473 210.008C217.74 205.023 213.08 214.188 210.509 217.565C210.509 217.565 217.258 210.651 219.026 212.42C220.793 214.349 213.884 221.425 213.884 221.425C213.884 221.425 220.793 214.671 221.597 217.565C222.24 219.977 208.099 233.967 203.92 238.47" fill="white"/>
<path d="M192.511 218.369C203.438 207.756 209.384 203.254 204.563 211.776C201.671 217.083 205.206 214.992 211.473 210.008C217.74 205.023 213.08 214.188 210.509 217.565C210.509 217.565 217.258 210.651 219.026 212.42C220.793 214.349 213.884 221.425 213.884 221.425C213.884 221.425 220.793 214.671 221.597 217.565C222.24 219.977 208.099 233.967 203.92 238.47" stroke="black" stroke-width="2" stroke-miterlimit="10" stroke-linecap="round" stroke-linejoin="round"/>
<path d="M184.415 159.799C184.415 171.047 175.306 180.163 164.072 180.163C152.838 180.163 143.73 171.047 143.73 159.799C143.73 148.552 152.838 139.436 164.072 139.436C175.306 139.436 184.415 148.552 184.415 159.799Z" fill="white" stroke="black" stroke-width="2"/>
<ellipse rx="0.908603" ry="0.908665" transform="matrix(0.865779 0.500427 -0.499573 0.866272 164.192 163.374)" fill="black"/>
<ellipse rx="0.908609" ry="0.908672" transform="matrix(0.865778 0.500428 -0.499572 0.866273 167.338 165.192)" fill="black"/>
<ellipse rx="0.908611" ry="0.908668" transform="matrix(0.865781 0.500423 -0.499577 0.866269 169.154 162.043)" fill="black"/>
<ellipse rx="0.908609" ry="0.908672" transform="matrix(0.865778 0.500428 -0.499572 0.866273 170.484 167.01)" fill="black"/>
<ellipse rx="0.908606" ry="0.908664" transform="matrix(0.865781 0.500424 -0.499576 0.86627 172.3 163.861)" fill="black"/>
<path d="M172.655 152.423C171.324 150.723 168.965 150.349 167.386 151.588C165.806 152.827 165.606 155.209 166.937 156.91" stroke="black" stroke-width="2"/>
<path d="M177.36 150.011C176.122 148.43 176.399 146.144 177.978 144.905" stroke="black" stroke-width="2"/>
<path d="M159.984 167.961C157.713 169.273 154.728 168.353 153.317 165.905C151.905 163.458 152.458 159.748 154.728 158.436" stroke="black" stroke-width="2"/>
<path d="M164.062 145.254C166.484 144.042 170.419 140.072 166.786 133.89C162.245 126.163 144.082 130.254 136.816 143.436C129.551 156.618 136.816 170.709 153.164 165.709" stroke="black" stroke-width="2"/>
<path d="M161.5 163.5L163.328 165.328C166.561 168.561 171.703 168.856 175.285 166.016L183.5 159.5" stroke="#86EC16" stroke-width="2"/>
<rect x="148" y="154.2" width="10.2131" height="16" rx="5.10655" transform="rotate(-37.379 148 154.2)" fill="#86EC16"/>
<rect x="177.016" y="160.36" width="11.6144" height="6.64378" rx="3.32189" transform="rotate(-39.3264 177.016 160.36)" fill="#86EC16"/>
<path fill-rule="evenodd" clip-rule="evenodd" d="M144.062 133.75C145.329 132.165 146.261 132.101 146.733 132.168C146.802 132.178 146.871 132.192 146.94 132.21C148.147 131.407 149.636 130.765 151.149 130.274C150.3 129.379 148.974 128.445 147.292 128.207C145.106 127.899 142.871 128.835 140.938 131.251C139.57 132.961 139.609 135.119 140.058 136.972C140.516 138.861 141.498 140.875 142.65 142.783C144.965 146.621 148.248 150.49 150.56 152.888L153.44 150.112C151.253 147.844 148.185 144.213 146.075 140.717C145.014 138.959 144.265 137.347 143.945 136.029C143.616 134.673 143.83 134.039 144.062 133.75Z" fill="#86EC16"/>
</svg>
