<svg width="491" height="501" viewBox="0 0 491 501" fill="none" xmlns="http://www.w3.org/2000/svg">
<path d="M254.838 139.368H182.092V196.741H254.838V139.368Z" fill="#86EC16"/>
<path d="M288.575 102.174H258.905V125.514H288.575V102.174Z" fill="#86EC16"/>
<path d="M304.39 140.724H284.659V147.651H304.39V140.724Z" fill="#86EC16"/>
<path d="M333.91 73.4121H297.461V116.479H333.91V73.4121Z" fill="black"/>
<path d="M164.319 267.215H148.053V312.541H164.319V267.215Z" fill="black"/>
<path d="M334.211 263.45L319.903 256.824L319.15 185.146L334.211 176.713V263.45Z" fill="black"/>
<path d="M148.053 312.541H227.426" stroke="black" stroke-width="2" stroke-miterlimit="10" stroke-linecap="round" stroke-linejoin="round"/>
<path d="M207.847 266.763L148.053 267.214V166.473H158.897L192.032 166.172L207.244 166.021L207.395 201.258L207.545 225.201L207.847 266.763Z" stroke="black" stroke-width="2" stroke-miterlimit="10" stroke-linecap="round" stroke-linejoin="round"/>
<path d="M228.631 148.403L228.481 148.554L207.244 166.022L192.032 166.172L158.897 166.474H148.053V149.006L180.284 148.704H193.99L211.311 148.554L221.854 148.403H228.631Z" stroke="black" stroke-width="2" stroke-miterlimit="10" stroke-linecap="round" stroke-linejoin="round"/>
<path d="M207.545 225.202L207.847 266.763L229.234 248.994L228.631 148.403" stroke="black" stroke-width="2" stroke-miterlimit="10" stroke-linecap="round" stroke-linejoin="round"/>
<path d="M180.284 148.704L158.897 166.473" stroke="black" stroke-width="2" stroke-miterlimit="10" stroke-linecap="round" stroke-linejoin="round"/>
<path d="M315.083 437.526H235.71L235.107 350.036L314.481 349.434L314.631 381.659L314.782 403.795L315.083 437.526Z" stroke="black" stroke-width="2" stroke-miterlimit="10" stroke-linecap="round" stroke-linejoin="round"/>
<path d="M253.633 334.677L253.934 334.526L302.884 334.075L333.307 333.773L314.481 349.434H301.227L235.107 350.037L253.633 334.677Z" stroke="black" stroke-width="2" stroke-miterlimit="10" stroke-linecap="round" stroke-linejoin="round"/>
<path d="M290.835 334.225L272.008 349.735" stroke="black" stroke-width="2" stroke-miterlimit="10" stroke-linecap="round" stroke-linejoin="round"/>
<path d="M319.15 185.146L319.451 210.143L319.602 227.309L319.903 256.824L229.535 257.276L228.933 185.748L319.15 185.146Z" stroke="black" stroke-width="2" stroke-miterlimit="10" stroke-linecap="round" stroke-linejoin="round"/>
<path d="M333.91 172.948V176.713L319.15 185.146L304.089 185.296L228.933 185.597L250.019 173.551L250.32 173.4L305.896 173.099L333.91 172.948Z" stroke="black" stroke-width="2" stroke-miterlimit="10" stroke-linecap="round" stroke-linejoin="round"/>
<path d="M292.19 173.1L270.803 185.448" stroke="black" stroke-width="2" stroke-miterlimit="10" stroke-linecap="round" stroke-linejoin="round"/>
<path d="M283.304 116.78L251.524 135.001" stroke="black" stroke-width="2" stroke-miterlimit="10" stroke-linecap="round" stroke-linejoin="round"/>
<path d="M333.91 59.1064H148.053V437.677H333.91V59.1064Z" stroke="black" stroke-width="2" stroke-miterlimit="10" stroke-linecap="round" stroke-linejoin="round"/>
<path d="M262.519 289.2H219.594V267.516C219.594 256.523 228.179 247.488 238.572 247.488H243.542C249.717 247.488 256.796 246.133 260.26 250.952C262.67 254.264 262.519 262.998 262.519 267.516V289.2Z" fill="black"/>
<path d="M205.587 59.1064H148.053V148.554H205.587V59.1064Z" stroke="black" stroke-width="2" stroke-miterlimit="10" stroke-linecap="round" stroke-linejoin="round"/>
<path d="M166.277 59.1064H148.053V148.554H166.277V59.1064Z" stroke="black" stroke-width="2" stroke-miterlimit="10" stroke-linecap="round" stroke-linejoin="round"/>
<path d="M205.587 148.554H228.932V99.0117H206.039" stroke="black" stroke-width="2" stroke-miterlimit="10" stroke-linecap="round" stroke-linejoin="round"/>
<path d="M205.437 148.553H221.854V107.896H206.19" stroke="black" stroke-width="2" stroke-miterlimit="10" stroke-linecap="round" stroke-linejoin="round"/>
<path d="M221.854 107.746L228.932 99.0117" stroke="black" stroke-width="2" stroke-miterlimit="10" stroke-linecap="round" stroke-linejoin="round"/>
<path d="M334.061 116.329H229.083V135.453H334.061V116.329Z" stroke="black" stroke-width="2" stroke-miterlimit="10" stroke-linecap="round" stroke-linejoin="round"/>
<path d="M224.715 97.9573V59.1064" stroke="black" stroke-width="2" stroke-miterlimit="10" stroke-linecap="round" stroke-linejoin="round"/>
<path d="M297.461 115.726V59.1064" stroke="black" stroke-width="2" stroke-miterlimit="10" stroke-linecap="round" stroke-linejoin="round"/>
<path d="M293.395 280.466V333.171" stroke="black" stroke-width="2" stroke-miterlimit="10" stroke-linecap="round" stroke-linejoin="round"/>
<path d="M164.319 267.365V312.541" stroke="black" stroke-width="2" stroke-miterlimit="10" stroke-linecap="round" stroke-linejoin="round"/>
<path d="M238.421 346.874V309.98" stroke="black" stroke-width="2" stroke-miterlimit="10" stroke-linecap="round" stroke-linejoin="round"/>
<path d="M258.754 280.165H333.458" stroke="black" stroke-width="2" stroke-miterlimit="10" stroke-linecap="round" stroke-linejoin="round"/>
<path d="M239.325 65.1299H231.493V72.9603H239.325V65.1299Z" stroke="black" stroke-width="2" stroke-miterlimit="10" stroke-linecap="round" stroke-linejoin="round"/>
<path d="M224.715 59.1064H205.738V98.4091H224.715V59.1064Z" fill="black"/>
<path d="M333.308 280.466H326.379V333.773H333.308V280.466Z" fill="black"/>
<path d="M352.436 252.909C354.349 252.909 355.9 251.359 355.9 249.446C355.9 247.533 354.349 245.982 352.436 245.982C350.523 245.982 348.972 247.533 348.972 249.446C348.972 251.359 350.523 252.909 352.436 252.909Z" fill="black"/>
<path d="M367.196 286.49V43.4463L333.91 59.1071V172.949V176.714V437.527" stroke="black" stroke-width="2" stroke-miterlimit="10" stroke-linecap="round" stroke-linejoin="round"/>
<path d="M297.462 439.634H366.744L382.559 422.166L356.502 420.51L375.63 363.137L328.94 412.83L326.982 387.531L297.462 439.634Z" fill="#86EC16"/>
<path d="M195.496 439.634H93.0791L65.2156 399.729L93.0791 406.656L65.2156 330.159L115.671 382.261L119.135 349.283L132.992 371.871L137.962 299.139L195.496 439.634Z" fill="#86EC16"/>
<path d="M153.023 385.726L150.764 395.062" stroke="black" stroke-width="2" stroke-miterlimit="10" stroke-linecap="round" stroke-linejoin="round"/>
<path d="M99.7063 332.569L106.183 337.689" stroke="black" stroke-width="2" stroke-miterlimit="10" stroke-linecap="round" stroke-linejoin="round"/>
<path d="M348.67 351.693L354.996 344.767" stroke="black" stroke-width="2" stroke-miterlimit="10" stroke-linecap="round" stroke-linejoin="round"/>
<path d="M373.521 399.128L375.931 405.452" stroke="black" stroke-width="2" stroke-miterlimit="10" stroke-linecap="round" stroke-linejoin="round"/>
<path d="M374.727 304.711L379.396 311.186" stroke="black" stroke-width="2" stroke-miterlimit="10" stroke-linecap="round" stroke-linejoin="round"/>
<path d="M114.768 312.843L110.852 319.167" stroke="black" stroke-width="2" stroke-miterlimit="10" stroke-linecap="round" stroke-linejoin="round"/>
<path d="M232.547 223.245C234.627 223.245 236.312 221.695 236.312 219.782C236.312 217.869 234.627 216.318 232.547 216.318C230.468 216.318 228.782 217.869 228.782 219.782C228.782 221.695 230.468 223.245 232.547 223.245Z" fill="white" stroke="black" stroke-width="2" stroke-miterlimit="10" stroke-linecap="round" stroke-linejoin="round"/>
<path d="M251.675 223.245C253.755 223.245 255.44 221.695 255.44 219.782C255.44 217.869 253.755 216.318 251.675 216.318C249.595 216.318 247.91 217.869 247.91 219.782C247.91 221.695 249.595 223.245 251.675 223.245Z" fill="white" stroke="black" stroke-width="2" stroke-miterlimit="10" stroke-linecap="round" stroke-linejoin="round"/>
<path d="M245.5 209.692H245.65L242.337 205.325L239.626 209.542C235.86 210.746 232.999 214.21 232.999 218.426C232.999 221.89 234.957 224.901 237.818 226.558V249.748H248.06V225.654C250.169 223.998 251.675 221.287 251.675 218.275C251.675 214.36 249.114 210.897 245.5 209.692Z" fill="white" stroke="black" stroke-width="2" stroke-miterlimit="10" stroke-linecap="round" stroke-linejoin="round"/>
<path d="M247.307 212.252C243.391 212.403 239.174 212.704 235.258 212.403C234.204 213.607 233.601 214.963 233.3 216.619C232.396 220.835 234.505 224.751 237.969 226.558L239.325 227.16C241.734 228.214 244.596 227.913 246.855 226.558L248.211 225.654C250.319 223.998 251.826 221.287 251.826 218.276C251.826 215.866 250.922 213.758 249.416 212.102C248.663 212.252 248.06 212.252 247.307 212.252Z" fill="black"/>
<path d="M264.08 216.09C264.08 228.428 254.076 238.43 241.735 238.43C229.394 238.43 219.39 228.428 219.39 216.09C219.39 203.751 229.394 193.749 241.735 193.749C254.076 193.749 264.08 203.751 264.08 216.09Z" fill="white" stroke="black" stroke-width="2"/>
<path d="M266.488 216.715C266.421 220.423 263.575 223.378 260.132 223.316C256.688 223.254 256.93 209.827 260.373 209.889C263.817 209.951 266.555 213.007 266.488 216.715Z" fill="white"/>
<path d="M260.132 223.316C263.575 223.378 266.421 220.423 266.488 216.715C266.555 213.007 263.817 209.951 260.373 209.889" stroke="black" stroke-width="2"/>
<path d="M216.277 217.395C216.344 221.103 219.19 224.059 222.633 223.997C226.077 223.935 225.835 210.508 222.392 210.569C218.948 210.631 216.21 213.688 216.277 217.395Z" fill="white"/>
<path d="M222.633 223.997C219.19 224.059 216.344 221.103 216.277 217.395C216.21 213.688 218.948 210.631 222.392 210.569" stroke="black" stroke-width="2"/>
<path d="M230.069 221.411C230.837 226.022 238.384 226.626 242.062 226.351L256.933 221.411C261.922 219.105 259.972 216.058 258.372 214.823C261.059 213.506 260.771 210.98 260.291 209.883C261.731 210.02 264.416 211.365 267.487 207.412C270.557 203.46 267.167 200.687 264.609 200.825C271.517 198.19 270.845 193.414 265.089 192.179C263.649 183.121 258.372 185.591 254.055 187.238C245.996 179.662 239.823 183.258 237.744 186.414C230.453 181.474 228.63 186.826 228.63 190.12C219.034 186.414 218.555 193.825 220.954 196.707C211.359 200.001 216.157 207.275 220.475 209.059C219.707 214 223.353 214.96 225.272 214.823C222.969 218.446 227.51 220.724 230.069 221.411Z" fill="white"/>
<path d="M242.062 226.351C238.384 226.626 230.837 226.022 230.069 221.411C227.51 220.724 222.969 218.446 225.272 214.823C223.353 214.96 219.707 214 220.475 209.059C216.157 207.275 211.359 200.001 220.954 196.707C218.555 193.825 219.034 186.414 228.63 190.12C228.63 186.826 230.453 181.474 237.744 186.414C239.823 183.258 245.996 179.662 254.055 187.238C258.372 185.591 263.649 183.121 265.089 192.179C270.845 193.414 271.517 198.19 264.609 200.825C267.167 200.687 270.557 203.46 267.487 207.412C264.416 211.365 261.731 210.02 260.291 209.883C260.771 210.98 261.059 213.506 258.372 214.823C259.972 216.058 261.922 219.105 256.933 221.411" stroke="black" stroke-width="2"/>
<path d="M205.587 442.948L206.792 453.79H227.426L225.92 440.99L205.587 442.948Z" fill="white" stroke="black" stroke-width="2" stroke-miterlimit="10" stroke-linecap="round" stroke-linejoin="round"/>
<path d="M290.834 442.948L292.039 453.79H324.873C324.12 449.574 322.614 447.315 318.698 445.357L311.318 440.99L290.834 442.948Z" fill="white" stroke="black" stroke-width="2" stroke-miterlimit="10" stroke-linecap="round" stroke-linejoin="round"/>
<path d="M231.342 445.357C226.974 418.553 225.77 391.297 227.878 364.342C228.932 351.543 230.74 338.894 233.451 326.244C234.656 320.372 240.228 310.132 246.705 313.294C255.892 317.812 259.206 329.557 262.369 338.291C266.736 350.639 270.201 363.288 273.514 375.787C279.689 398.676 284.81 421.866 288.877 445.206H318.698C313.125 412.53 305.896 380.304 296.558 348.531C289.027 322.781 276.677 277.455 242.939 277.154C206.642 276.853 202.726 324.739 199.713 351.091C196.099 382.413 197.304 413.885 201.822 445.056H231.342V445.357Z" fill="black"/>
<path d="M348.821 233.333C337.073 231.075 332.705 242.218 332.705 242.218C323.819 260.89 297.763 257.126 282.4 249.898C273.514 245.681 264.929 239.959 255.139 237.851C244.596 235.592 233.752 237.098 223.812 241.013C187.966 255.018 168.235 294.019 172.452 331.214C173.205 340.55 174.26 350.488 176.519 350.488C178.627 350.488 178.326 339.948 178.326 339.948C178.326 339.948 179.23 351.241 182.242 350.94C184.2 350.79 184.2 343.411 184.05 340.249C184.501 343.411 185.556 350.94 187.664 350.94C190.677 350.94 189.773 339.646 189.622 337.99C189.622 337.99 189.622 337.99 189.773 337.839C190.225 338.291 194.442 343.562 196.249 341.905C197.906 340.399 194.894 337.388 191.881 329.105C189.773 309.831 193.689 292.363 206.039 277.154C218.088 262.396 238.27 250.651 257.248 258.481C275.321 265.86 290.533 276.702 311.167 275.045C327.434 273.69 341.29 265.257 349.122 251.253C349.122 251.253 349.122 251.102 349.273 250.952L349.423 250.801C349.724 250.048 350.478 248.693 351.381 248.241C352.887 247.488 356.954 249.145 357.255 247.94C357.556 246.284 352.435 244.025 350.779 243.423C352.586 244.025 357.858 245.681 358.46 244.025C359.063 242.067 352.586 239.658 351.833 239.357C352.134 239.507 355.749 240.712 358.611 241.465C362.075 242.218 358.008 235.14 348.821 233.333Z" fill="white" stroke="black" stroke-width="2" stroke-miterlimit="10" stroke-linecap="round" stroke-linejoin="round"/>
<path d="M289.027 252.609C286.768 251.856 284.509 250.952 282.551 249.898C273.665 245.682 265.08 239.959 255.29 237.851C244.747 235.593 233.903 237.098 223.962 241.014C210.558 246.284 199.262 255.169 190.827 266.011C195.496 270.378 200.015 274.745 204.684 279.112C205.135 278.509 205.738 277.756 206.19 277.154C218.239 262.397 238.421 250.651 257.398 258.481C266.435 262.246 274.719 266.764 283.454 270.227C285.111 264.354 287.069 258.481 289.027 252.609Z" fill="black"/>
<path d="M212.365 270.527L211.612 247.187" stroke="white" stroke-width="2" stroke-miterlimit="10" stroke-linecap="round" stroke-linejoin="round"/>
<path d="M225.468 240.41L225.92 252.608L226.221 260.739L227.125 289.2" stroke="white" stroke-width="2" stroke-miterlimit="10" stroke-linecap="round" stroke-linejoin="round"/>
<path d="M239.475 237.098L239.927 247.488L240.228 256.372L241.283 289.2" stroke="white" stroke-width="2" stroke-miterlimit="10" stroke-linecap="round" stroke-linejoin="round"/>
<path d="M253.633 237.55L253.934 247.488L254.386 257.427L255.29 289.2" stroke="white" stroke-width="2" stroke-miterlimit="10" stroke-linecap="round" stroke-linejoin="round"/>
<path d="M268.694 263.6L267.941 242.519" stroke="white" stroke-width="2" stroke-miterlimit="10" stroke-linecap="round" stroke-linejoin="round"/>
<path d="M194.894 264.053L205.587 274.293" stroke="white" stroke-width="2" stroke-miterlimit="10" stroke-linecap="round" stroke-linejoin="round"/>
<path d="M284.961 252.458L280.141 266.613" stroke="white" stroke-width="2" stroke-miterlimit="10" stroke-linecap="round" stroke-linejoin="round"/>
<path d="M183.598 332.72C186.61 337.237 189.622 337.99 189.622 337.99Z" fill="black"/>
<path d="M183.598 332.72C186.61 337.237 189.622 337.99 189.622 337.99" stroke="black" stroke-width="2" stroke-miterlimit="10" stroke-linecap="round" stroke-linejoin="round"/>
</svg>
