<svg width="472" height="386" viewBox="0 0 472 386" fill="none" xmlns="http://www.w3.org/2000/svg">
<path d="M209.787 239.597L209.812 240.295L210.477 240.511C228.547 246.403 224.395 274 204.743 274H143.254C118.417 274 113.886 238.656 137.474 232.186L138.177 231.994L138.209 231.266C139.215 208.565 168.687 200.749 181.314 219.532L181.718 220.133L182.414 219.937C195.743 216.196 209.286 225.677 209.787 239.597Z" fill="black" stroke="black" stroke-width="2"/>
<path d="M182.292 293.071L181.911 292.192L181.017 292.534C165.882 298.318 149 287.241 149 270.674C149 258.872 157.815 249.07 169.415 247.562L170.066 247.477L170.247 246.846C174.284 232.76 189.675 225.713 202.797 231.248L203.532 231.558L203.997 230.91C217.459 212.17 247.183 216.236 254.797 238.251L255.141 239.246L256.117 238.852C274.921 231.251 296 244.937 296 265.696C296 288.216 271.115 301.651 252.319 290.255L251.272 289.62L250.859 290.773C245.746 305.046 231.933 315 216.062 315C200.959 315 187.916 306.069 182.292 293.071Z" fill="white" stroke="black" stroke-width="2"/>
<path d="M148.021 140.836L148.477 141.494L149.218 141.194L159 137.238L159 146.786L154.57 150.473C152.069 146.405 148.563 143.643 144 143.643C139.437 143.643 135.931 146.405 133.43 150.473L129 146.786L129 137.238L138.782 141.194L139.523 141.494L139.979 140.836C140.71 139.782 141.319 138.859 141.835 138.074C141.915 137.951 141.993 137.832 142.069 137.716C142.48 137.088 142.821 136.567 143.12 136.138C143.479 135.622 143.734 135.302 143.93 135.115C143.956 135.09 143.98 135.069 143.999 135.052C144.019 135.069 144.042 135.089 144.069 135.115C144.265 135.302 144.52 135.622 144.879 136.138C145.178 136.567 145.52 137.089 145.933 137.72C146.008 137.834 146.085 137.952 146.165 138.073C146.68 138.859 147.29 139.781 148.021 140.836ZM144.094 134.984C144.094 134.984 144.093 134.985 144.092 134.985C144.093 134.985 144.094 134.984 144.094 134.984ZM143.907 134.985C143.906 134.985 143.905 134.984 143.905 134.984C143.905 134.984 143.906 134.985 143.907 134.985Z" fill="black" stroke="black" stroke-width="2"/>
<line x1="132.074" y1="179.728" x2="155.753" y2="179.728" stroke="black" stroke-width="2"/>
<path d="M143.871 195.063C139.815 195.063 136.619 192.225 134.384 187.501C132.156 182.792 131.016 176.442 131.016 170.032C131.016 163.622 132.156 157.271 134.384 152.563C136.619 147.838 139.815 145 143.871 145C147.928 145 151.124 147.838 153.359 152.563C155.586 157.271 156.727 163.622 156.727 170.032C156.727 176.442 155.587 182.792 153.359 187.501C151.124 192.225 147.928 195.063 143.871 195.063Z" stroke="black" stroke-width="2"/>
<path d="M200.884 107.578L201.339 108.233L202.079 107.935L215 102.724L215 115.467L208.972 120.471C205.786 115.167 201.313 111.599 195.5 111.599C189.687 111.599 185.214 115.167 182.028 120.471L176 115.467L176 102.724L188.921 107.935L189.661 108.233L190.116 107.578C191.051 106.233 191.83 105.057 192.49 104.054C192.593 103.898 192.692 103.746 192.789 103.598C193.316 102.795 193.756 102.126 194.141 101.575C194.602 100.914 194.942 100.484 195.215 100.225C195.368 100.079 195.459 100.025 195.499 100.007C195.539 100.025 195.63 100.079 195.783 100.224C196.056 100.484 196.397 100.913 196.858 101.574C197.244 102.126 197.684 102.797 198.213 103.603C198.309 103.748 198.408 103.899 198.51 104.053C199.169 105.057 199.949 106.233 200.884 107.578ZM195.523 99.9977C195.523 99.9978 195.522 99.998 195.521 99.9983L195.523 99.9977ZM195.478 99.9983C195.476 99.998 195.475 99.9978 195.475 99.9977L195.478 99.9983Z" fill="black" stroke="black" stroke-width="2"/>
<line x1="179.767" y1="159.984" x2="211.346" y2="159.984" stroke="black" stroke-width="2"/>
<path d="M195.5 180.437C189.903 180.437 185.551 176.513 182.545 170.16C179.547 163.823 178.022 155.301 178.022 146.72C178.022 138.139 179.548 129.617 182.546 123.28C185.551 116.928 189.903 113.004 195.5 113.004C201.097 113.004 205.448 116.928 208.454 123.28C211.452 129.617 212.977 138.139 212.978 146.72C212.978 155.301 211.452 163.823 208.454 170.16C205.449 176.513 201.097 180.437 195.5 180.437Z" stroke="black" stroke-width="2"/>
<path d="M238 205L272 267.5L330 224V192.5L290.5 155L244 149L238 205Z" fill="white"/>
<path d="M341.45 174.376C341.489 172.966 340.666 171.592 339.401 170.957L293.117 147.713C292.755 147.532 292.372 147.419 291.986 147.378L242.522 142.261C241.17 142.12 239.97 142.894 239.535 144.187C239.086 145.516 228.617 177.1 233.029 208.413C237.495 240.102 267.463 272.05 268.737 273.395C269.185 273.868 269.73 274.2 270.302 274.369C270.874 274.538 271.476 274.547 272.037 274.372C273.634 273.878 311.297 261.963 325.891 235.92C340.313 210.186 341.411 175.826 341.45 174.376ZM281.61 209.914L241.818 198.127C240.891 175.333 247.973 154.517 247.973 154.517L290.529 159.076L281.61 209.914ZM317.528 229.617C305.375 250.978 272.692 260.753 272.692 260.753L281.61 209.914L321.403 221.701C320.261 224.411 318.977 227.07 317.528 229.617Z" fill="#86EC16"/>
</svg>
