<svg width="230" height="127" viewBox="0 0 230 127" fill="none" xmlns="http://www.w3.org/2000/svg">
<rect opacity="0.3" width="230" height="127" rx="10" fill="#C4C4C4"/>
<path fill-rule="evenodd" clip-rule="evenodd" d="M109.496 36.8926L110.243 32.3206L107.094 29.0675C106.911 28.8765 106.783 28.6393 106.724 28.3813C106.664 28.1233 106.676 27.854 106.758 27.6021C106.844 27.3464 106.998 27.1194 107.205 26.9462C107.412 26.7729 107.663 26.6602 107.929 26.6203L112.221 25.9609L114.139 21.8578C114.256 21.602 114.443 21.3851 114.68 21.233C114.916 21.0809 115.191 21 115.472 21C115.753 21 116.028 21.0809 116.264 21.233C116.501 21.3851 116.688 21.602 116.805 21.8578L118.723 25.9609L123.015 26.6203C123.282 26.6602 123.532 26.7729 123.739 26.9462C123.946 27.1194 124.1 27.3464 124.187 27.6021C124.268 27.854 124.28 28.1233 124.22 28.3813C124.161 28.6393 124.033 28.8765 123.85 29.0675L120.701 32.2913L121.448 36.8633C121.498 37.1395 121.469 37.4244 121.362 37.6842C121.256 37.944 121.077 38.1677 120.847 38.3287C120.598 38.5026 120.301 38.5948 119.998 38.5925C119.752 38.5937 119.511 38.5332 119.295 38.4166L115.472 36.2918L111.649 38.358C111.413 38.4865 111.146 38.5474 110.877 38.5339C110.609 38.5205 110.349 38.4334 110.126 38.282C109.904 38.1306 109.728 37.9209 109.616 37.6758C109.505 37.4307 109.464 37.1598 109.496 36.8926ZM118.723 93.3689L123.015 94.0283C123.282 94.0682 123.532 94.1809 123.739 94.3541C123.946 94.5274 124.1 94.7544 124.187 95.0101C124.268 95.262 124.28 95.5313 124.22 95.7893C124.161 96.0473 124.033 96.2844 123.85 96.4755L120.701 99.6993L121.448 104.271C121.498 104.547 121.469 104.832 121.362 105.092C121.256 105.352 121.077 105.576 120.847 105.737C120.598 105.911 120.301 106.003 119.998 106C119.752 106.002 119.511 105.941 119.295 105.825L115.472 103.7L111.649 105.737C111.413 105.865 111.146 105.926 110.877 105.913C110.609 105.899 110.349 105.812 110.126 105.661C109.904 105.509 109.728 105.3 109.616 105.054C109.505 104.809 109.464 104.538 109.496 104.271L110.243 99.6993L107.094 96.4755C106.911 96.2844 106.783 96.0473 106.724 95.7893C106.664 95.5313 106.676 95.262 106.758 95.0101C106.844 94.7544 106.998 94.5274 107.205 94.3541C107.412 94.1809 107.663 94.0682 107.929 94.0283L112.221 93.3689L114.139 89.2658C114.256 89.01 114.443 88.7931 114.68 88.641C114.916 88.4889 115.191 88.408 115.472 88.408C115.753 88.408 116.028 88.4889 116.264 88.641C116.501 88.7931 116.688 89.01 116.805 89.2658L118.723 93.3689ZM86.3112 72.2965C86.6148 72.2988 86.9117 72.2066 87.1607 72.0327C87.3906 71.8717 87.5694 71.6479 87.6758 71.3882C87.7823 71.1284 87.8119 70.8435 87.7612 70.5673L87.0142 65.9953L90.1631 62.7715C90.3464 62.5805 90.4744 62.3433 90.5337 62.0853C90.5931 61.8273 90.5814 61.558 90.5 61.3061C90.414 61.0504 90.259 60.8234 90.0523 60.6502C89.8456 60.4769 89.595 60.3642 89.3283 60.3243L85.037 59.6649L83.1183 55.5618C83.0018 55.306 82.8142 55.0891 82.5779 54.937C82.3416 54.7849 82.0665 54.704 81.7855 54.704C81.5045 54.704 81.2294 54.7849 80.9931 54.937C80.7568 55.0891 80.5692 55.306 80.4527 55.5618L78.534 59.6649L74.2427 60.3243C73.976 60.3642 73.7255 60.4769 73.5187 60.6502C73.312 60.8234 73.157 61.0504 73.071 61.3061C72.9896 61.558 72.978 61.8273 73.0373 62.0853C73.0966 62.3433 73.2247 62.5805 73.4079 62.7715L76.5568 65.9953L75.8099 70.5673C75.7772 70.8344 75.8188 71.1054 75.9299 71.3505C76.041 71.5956 76.2175 71.8053 76.4399 71.9567C76.6623 72.108 76.922 72.1952 77.1907 72.2086C77.4593 72.222 77.7265 72.1612 77.9628 72.0327L81.7855 69.9958L85.6082 72.1206C85.8241 72.2372 86.0658 72.2977 86.3112 72.2965ZM157.498 60.6502C157.704 60.8234 157.859 61.0504 157.945 61.3061C158.018 61.5645 158.018 61.8378 157.945 62.0962C157.873 62.3546 157.731 62.5882 157.535 62.7715L154.386 65.9953L155.133 70.5673C155.184 70.8435 155.154 71.1284 155.048 71.3882C154.941 71.6479 154.763 71.8717 154.533 72.0327C154.284 72.2066 153.987 72.2988 153.683 72.2965C153.438 72.2977 153.196 72.2372 152.98 72.1206L149.158 69.9958L145.408 72.0327C145.172 72.1612 144.905 72.222 144.636 72.2086C144.367 72.1952 144.108 72.108 143.885 71.9567C143.663 71.8053 143.486 71.5956 143.375 71.3505C143.264 71.1054 143.223 70.8344 143.255 70.5673L144.002 65.9953L140.853 62.7715C140.67 62.5805 140.542 62.3433 140.483 62.0853C140.423 61.8273 140.435 61.558 140.516 61.3061C140.602 61.0504 140.757 60.8234 140.964 60.6502C141.171 60.4769 141.421 60.3642 141.688 60.3243L145.979 59.6649L147.898 55.5618C148.015 55.306 148.202 55.0891 148.438 54.937C148.675 54.7849 148.95 54.704 149.231 54.704C149.512 54.704 149.787 54.7849 150.023 54.937C150.26 55.0891 150.447 55.306 150.564 55.5618L152.482 59.6649L156.774 60.3243C157.04 60.3642 157.291 60.4769 157.498 60.6502ZM133.677 42.5779L132.93 47.1499C132.897 47.417 132.939 47.688 133.05 47.9331C133.161 48.1782 133.338 48.3879 133.56 48.5393C133.782 48.6906 134.042 48.7778 134.311 48.7912C134.579 48.8046 134.847 48.7437 135.083 48.6153L138.906 46.5491L142.728 48.6739C142.944 48.7905 143.186 48.851 143.431 48.8497C143.735 48.852 144.032 48.7599 144.281 48.586C144.511 48.4249 144.689 48.2012 144.796 47.9414C144.902 47.6816 144.932 47.3967 144.881 47.1206L144.134 42.5486L147.283 39.3248C147.466 39.1337 147.595 38.8966 147.654 38.6386C147.713 38.3806 147.702 38.1113 147.62 37.8594C147.534 37.6037 147.379 37.3767 147.172 37.2034C146.966 37.0302 146.715 36.9174 146.448 36.8776L142.157 36.2182L140.238 32.1151C140.122 31.8593 139.934 31.6423 139.698 31.4902C139.462 31.3381 139.187 31.2573 138.906 31.2573C138.625 31.2573 138.35 31.3381 138.113 31.4902C137.877 31.6423 137.689 31.8593 137.573 32.1151L135.654 36.2182L131.363 36.8776C131.096 36.9174 130.846 37.0302 130.639 37.2034C130.432 37.3767 130.277 37.6037 130.191 37.8594C130.11 38.1113 130.098 38.3806 130.157 38.6386C130.217 38.8966 130.345 39.1337 130.528 39.3248L133.677 42.5779ZM86.0623 47.1499L86.8093 42.5779L83.6603 39.3248C83.4771 39.1337 83.349 38.8966 83.2897 38.6386C83.2304 38.3806 83.2421 38.1113 83.3235 37.8594C83.4095 37.6037 83.5644 37.3767 83.7712 37.2034C83.9779 37.0302 84.2284 36.9174 84.4952 36.8776L88.7865 36.2182L90.7051 32.1151C90.8216 31.8593 91.0092 31.6423 91.2456 31.4902C91.4819 31.3381 91.757 31.2573 92.0379 31.2573C92.3189 31.2573 92.594 31.3381 92.8303 31.4902C93.0666 31.6423 93.2542 31.8593 93.3708 32.1151L95.2894 36.2182L99.5807 36.8776C99.8475 36.9174 100.098 37.0302 100.305 37.2034C100.511 37.3767 100.666 37.6037 100.752 37.8594C100.834 38.1113 100.845 38.3806 100.786 38.6386C100.727 38.8966 100.599 39.1337 100.416 39.3248L97.2666 42.5486L98.0136 47.1206C98.0643 47.3967 98.0347 47.6816 97.9283 47.9414C97.8218 48.2012 97.643 48.4249 97.4131 48.586C97.1641 48.7599 96.8673 48.852 96.5636 48.8497C96.3183 48.851 96.0765 48.7905 95.8606 48.6739L92.0379 46.5491L88.2153 48.6153C87.9789 48.7437 87.7118 48.8046 87.4431 48.7912C87.1745 48.7778 86.9147 48.6906 86.6923 48.5393C86.4699 48.3879 86.2935 48.1782 86.1823 47.9331C86.0712 47.688 86.0297 47.417 86.0623 47.1499ZM101.045 82.3044L96.7538 81.645L94.8351 77.542C94.7186 77.2861 94.531 77.0692 94.2947 76.9171C94.0584 76.765 93.7833 76.6841 93.5023 76.6841C93.2213 76.6841 92.9462 76.765 92.7099 76.9171C92.4736 77.0692 92.286 77.2861 92.1695 77.542L90.2508 81.645L85.9595 82.3044C85.6928 82.3443 85.4423 82.4571 85.2355 82.6303C85.0288 82.8035 84.8738 83.0305 84.7878 83.2862C84.7064 83.5382 84.6948 83.8074 84.7541 84.0655C84.8134 84.3235 84.9414 84.5606 85.1247 84.7516L88.2736 87.9755L87.5266 92.5474C87.494 92.8146 87.5355 93.0855 87.6467 93.3306C87.7578 93.5757 87.9343 93.7854 88.1567 93.9368C88.3791 94.0882 88.6388 94.1754 88.9075 94.1888C89.1761 94.2022 89.4433 94.1413 89.6796 94.0128L93.5023 91.9759L97.325 94.1007C97.5409 94.2174 97.7826 94.2778 98.028 94.2766C98.3316 94.2789 98.6285 94.1867 98.8775 94.0128C99.1073 93.8518 99.2862 93.6281 99.3926 93.3683C99.4991 93.1085 99.5287 92.8236 99.478 92.5474L98.731 87.9755L101.88 84.7516C102.063 84.5606 102.191 84.3235 102.251 84.0655C102.31 83.8074 102.298 83.5382 102.217 83.2862C102.131 83.0305 101.976 82.8035 101.769 82.6303C101.562 82.4571 101.312 82.3443 101.045 82.3044ZM142.157 83.1106L146.448 83.77C146.715 83.8099 146.966 83.9227 147.172 84.0959C147.379 84.2691 147.534 84.4961 147.62 84.7518C147.702 85.0038 147.713 85.273 147.654 85.5311C147.595 85.7891 147.466 86.0262 147.283 86.2172L144.134 89.4411L144.881 94.013C144.932 94.2892 144.902 94.5741 144.796 94.8339C144.689 95.0937 144.511 95.3174 144.281 95.4784C144.032 95.6523 143.735 95.7445 143.431 95.7422C143.186 95.7434 142.944 95.683 142.728 95.5664L138.906 93.4416L135.083 95.4784C134.847 95.6069 134.579 95.6678 134.311 95.6544C134.042 95.641 133.782 95.5538 133.56 95.4024C133.338 95.251 133.161 95.0413 133.05 94.7962C132.939 94.5511 132.897 94.2802 132.93 94.013L133.677 89.4411L130.528 86.2172C130.345 86.0262 130.217 85.7891 130.157 85.5311C130.098 85.273 130.11 85.0038 130.191 84.7518C130.277 84.4961 130.432 84.2691 130.639 84.0959C130.846 83.9227 131.096 83.8099 131.363 83.77L135.654 83.1106L137.573 79.0076C137.689 78.7517 137.877 78.5348 138.113 78.3827C138.35 78.2306 138.625 78.1497 138.906 78.1497C139.187 78.1497 139.462 78.2306 139.698 78.3827C139.934 78.5348 140.122 78.7517 140.238 79.0076L142.157 83.1106Z" fill="url(#paint0_linear)"/>
<path d="M124.26 57.642V54.7112C124.26 52.3794 123.334 50.143 121.686 48.4941C120.038 46.8453 117.803 45.9189 115.472 45.9189C113.141 45.9189 110.906 46.8453 109.258 48.4941C107.61 50.143 106.684 52.3794 106.684 54.7112V57.642C105.519 57.642 104.401 58.1052 103.577 58.9296C102.753 59.754 102.29 60.8722 102.29 62.0381V73.7612C102.29 74.9271 102.753 76.0453 103.577 76.8697C104.401 77.6941 105.519 78.1573 106.684 78.1573H124.26C125.425 78.1573 126.543 77.6941 127.367 76.8697C128.191 76.0453 128.653 74.9271 128.653 73.7612V62.0381C128.653 60.8722 128.191 59.754 127.367 58.9296C126.543 58.1052 125.425 57.642 124.26 57.642ZM120.906 66.0093L115.047 71.8708C114.911 72.0082 114.749 72.1172 114.571 72.1916C114.392 72.266 114.201 72.3043 114.007 72.3043C113.814 72.3043 113.622 72.266 113.444 72.1916C113.266 72.1172 113.104 72.0082 112.967 71.8708L110.038 68.9401C109.762 68.6641 109.607 68.2899 109.607 67.8996C109.607 67.5094 109.762 67.1352 110.038 66.8592C110.314 66.5833 110.688 66.4283 111.078 66.4283C111.468 66.4283 111.842 66.5833 112.118 66.8592L114.007 68.7642L118.826 63.9285C119.102 63.6525 119.476 63.4975 119.866 63.4975C120.256 63.4975 120.63 63.6525 120.906 63.9285C121.181 64.2044 121.336 64.5787 121.336 64.9689C121.336 65.3591 121.181 65.7334 120.906 66.0093ZM109.613 54.7112C109.613 53.1567 110.231 51.6658 111.329 50.5665C112.428 49.4673 113.918 48.8497 115.472 48.8497C117.026 48.8497 118.516 49.4673 119.614 50.5665C120.713 51.6658 121.33 53.1567 121.33 54.7112V57.642H109.613V54.7112Z" fill="url(#paint1_linear)"/>
<defs>
<linearGradient id="paint0_linear" x1="115.5" y1="21" x2="115.5" y2="106" gradientUnits="userSpaceOnUse">
<stop stop-color="#9BA3A2"/>
<stop offset="1" stop-color="#626A69"/>
</linearGradient>
<linearGradient id="paint1_linear" x1="115.472" y1="45.9189" x2="115.472" y2="78.1573" gradientUnits="userSpaceOnUse">
<stop stop-color="#AAEA39"/>
<stop offset="1" stop-color="#86EC16"/>
</linearGradient>
</defs>
</svg>
