<svg width="370" height="230" viewBox="0 0 370 230" fill="none" xmlns="http://www.w3.org/2000/svg">
<path d="M207 60C207 52.8203 212.82 47 220 47H236C270.242 47 298 74.7583 298 109V213H207V60Z" fill="#83EC16"/>
<circle cx="128" cy="189" r="5" fill="#86EC16"/>
<line x1="16" y1="212" x2="355" y2="212" stroke="black" stroke-width="2"/>
<rect x="37" y="181" width="16" height="16" rx="2" stroke="black" stroke-width="2"/>
<circle cx="42" cy="189" r="2" fill="black"/>
<circle cx="48" cy="189" r="2" fill="black"/>
<path fill-rule="evenodd" clip-rule="evenodd" d="M41 189C41 188.448 41.4477 188 42 188C42.5523 188 43 188.448 43 189V193H47V189C47 188.448 47.4477 188 48 188C48.5523 188 49 188.448 49 189V193H50V201H40V193H41V189Z" fill="#86EC16"/>
<path d="M45.4459 197.927V203.288C45.4459 204.7 45.0932 206.089 44.42 207.329V207.329C41.2193 213.226 45.8193 220.326 52.5096 219.816L69.6905 218.504C78.9964 217.793 86.1847 210.035 86.1847 200.702V188.337C86.1847 173.595 96.503 160.866 110.925 157.814L119.5 156" stroke="#86EC16" stroke-width="4"/>
<circle cx="128" cy="189" r="22" stroke="black" stroke-width="4"/>
<circle cx="199" cy="189" r="22" stroke="black" stroke-width="4"/>
<path d="M128 189L143.5 154H115.5" stroke="#86EC16" stroke-width="4"/>
<path d="M113.5 152H145.125L140.326 161.998H108.125L113.5 152Z" fill="#86EC16"/>
<path fill-rule="evenodd" clip-rule="evenodd" d="M187.926 134.621C188.135 135.132 187.89 135.716 187.379 135.925L177.361 140.024L183.109 152H183.118L183.114 152.009L200.902 189.067C201.141 189.565 200.931 190.162 200.433 190.401C199.935 190.64 199.337 190.43 199.098 189.933L181.982 154.273L164.394 189.447C164.225 189.786 163.879 190 163.5 190H128C127.448 190 127 189.552 127 189C127 188.447 127.448 188 128 188H161.911L145.342 153.451C145.336 153.438 145.329 153.425 145.323 153.412L139.371 141H134.5C133.948 141 133.5 140.552 133.5 140C133.5 139.447 133.948 139 134.5 139H139.978C139.992 138.999 140.006 138.999 140.021 139H150C150.552 139 151 139.447 151 140C151 140.552 150.552 141 150 141H141.589L146.864 152H180.891L175.098 139.933L174.639 138.976L175.621 138.574L186.621 134.074C187.133 133.865 187.716 134.11 187.926 134.621ZM163.519 186.726L147.823 154H179.882L163.519 186.726Z" fill="black"/>
</svg>
