<svg width="472" height="386" viewBox="0 0 472 386" fill="none" xmlns="http://www.w3.org/2000/svg">
<path d="M253.024 155.57C253.554 175.725 235.53 191.637 235.53 191.637C237.651 152.388 216.446 86.6194 178.807 63.2822C176.687 62.2214 174.036 64.3429 175.096 66.4645C188.88 108.365 103 147.614 103 217.096C103 253.163 124.205 286.047 145.94 309.914C148.59 312.566 152.831 309.914 151.241 306.732C148.06 298.246 145.94 289.229 145.94 279.152C145.94 237.781 187.289 213.383 183.048 188.455C182.518 186.333 185.169 184.742 186.759 186.333C204.253 202.245 214.325 240.433 213.265 263.24C213.265 263.24 221.217 254.754 222.277 243.615C222.277 241.494 225.458 240.433 226.518 242.555C236.06 256.345 236.06 273.317 236.06 279.152C236.06 288.699 233.94 297.715 230.759 306.732C229.699 309.914 233.94 312.566 236.06 309.914C257.795 286.047 279 253.163 279 217.096C279 207.549 279 177.316 257.265 153.979C255.675 151.858 253.024 153.449 253.024 155.57Z" fill="#86EC16"/>
<path d="M210.457 315.646V315.646C208.094 330.333 193.227 339.486 179.048 334.982L131.133 319.762C126.573 318.314 122.339 315.994 118.664 312.931L111.691 307.121C108.269 304.269 103.072 306.703 103.072 311.158V311.158" stroke="black" stroke-width="4"/>
<path d="M178.855 188.17C179.131 183.409 183.072 179.69 187.84 179.69H316.419C321.188 179.69 325.128 183.409 325.404 188.17L331.938 300.878C332.238 306.045 328.129 310.399 322.953 310.399H181.306C176.131 310.399 172.022 306.045 172.321 300.878L178.855 188.17Z" fill="white" stroke="black" stroke-width="2"/>
<path d="M194.146 180.832C194.146 179.618 194.941 178.547 196.104 178.195C205.044 175.489 214.586 175.489 223.527 178.195C224.689 178.547 225.484 179.618 225.484 180.832V311.98C225.484 313.195 224.689 314.266 223.527 314.618C214.586 317.324 205.044 317.324 196.104 314.618C194.941 314.266 194.146 313.195 194.146 311.98V180.832Z" fill="black" stroke="black" stroke-width="2"/>
<rect x="239" y="180" width="62" height="131" stroke="black" stroke-width="2"/>
<rect x="264.715" y="249.573" width="9.18036" height="9.18036" rx="4.59018" stroke="black" stroke-width="2"/>
<rect x="248.747" y="249.573" width="9.18036" height="9.18036" rx="4.59018" stroke="black" stroke-width="2"/>
<rect x="264.715" y="267.006" width="9.18036" height="9.18036" rx="4.59018" stroke="black" stroke-width="2"/>
<rect x="248.747" y="267.006" width="9.18036" height="9.18036" rx="4.59018" stroke="black" stroke-width="2"/>
<rect x="264.715" y="284.439" width="9.18036" height="9.18036" rx="4.59018" stroke="black" stroke-width="2"/>
<rect x="248.747" y="284.439" width="9.18036" height="9.18036" rx="4.59018" stroke="black" stroke-width="2"/>
<rect x="280.683" y="249.573" width="9.18036" height="9.18036" rx="4.59018" stroke="black" stroke-width="2"/>
<rect x="280.683" y="267.006" width="9.18036" height="9.18036" rx="4.59018" stroke="black" stroke-width="2"/>
<rect x="280.683" y="284.439" width="9.18036" height="9.18036" rx="4.59018" stroke="black" stroke-width="2"/>
<rect x="240" y="195" width="60" height="42" fill="#86EC16"/>
<path d="M277.973 224.508C281.593 221.795 283.715 217.081 282.779 211.914C281.843 207.071 278.036 203.131 273.355 202.227C265.678 200.742 259 206.748 259 214.433C259 219.858 262.37 224.314 266.365 225.799C266.552 225.864 266.677 226.122 266.614 226.316L265.054 230.514C265.054 230.837 265.366 231.095 265.678 230.966C273.979 228.124 277.724 224.766 277.724 224.766C277.786 224.702 277.911 224.637 277.973 224.508C277.973 224.572 277.973 224.572 277.973 224.508ZM264.804 215.789V213.077C264.804 212.883 264.929 212.818 265.054 212.818H269.111C269.298 212.818 269.36 212.689 269.36 212.56V208.362C269.36 208.233 269.485 208.104 269.61 208.104H272.231C272.356 208.104 272.481 208.233 272.481 208.362V212.56C272.481 212.689 272.606 212.818 272.731 212.818H276.788C276.975 212.818 277.037 212.948 277.037 213.077V215.789C277.037 215.983 276.912 216.048 276.788 216.048H272.918C272.731 216.048 272.668 216.177 272.668 216.306V220.504C272.668 220.633 272.543 220.762 272.419 220.762H269.797C269.673 220.762 269.548 220.633 269.548 220.504V216.306C269.548 216.177 269.423 216.048 269.298 216.048H265.241C264.929 216.112 264.804 215.983 264.804 215.789Z" fill="black"/>
<line x1="86" y1="311" x2="376" y2="311" stroke="black" stroke-width="2"/>
</svg>
