<svg width="472" height="386" viewBox="0 0 472 386" fill="none" xmlns="http://www.w3.org/2000/svg">
<path d="M386.871 333H238C218.118 333 202 316.882 202 297V113C202 93.1177 218.118 77 238 77H266.123C332.832 77 387 138.819 387 215.278V332.871C387 332.942 386.942 333 386.871 333Z" fill="#86EC16"/>
<mask id="mask0" style="mask-type:alpha" maskUnits="userSpaceOnUse" x="202" y="54" width="100" height="100">
<circle cx="252" cy="104" r="50" fill="#C4C4C4"/>
</mask>
<g mask="url(#mask0)">
<circle cx="252" cy="104" r="50" fill="white"/>
<path d="M228.299 137.091C231.219 126.409 240.925 119 252 119C263.075 119 272.781 126.409 275.701 137.091L281.69 159H222.31L228.299 137.091Z" fill="white" stroke="black" stroke-width="2"/>
<path d="M267.595 93.8642C263.751 91.4289 264.879 87.5362 265.407 86.4849L243.443 87.9899C236.338 84.0691 237.808 75.6404 239.432 71.9161C245.09 70.619 243.567 78.6438 255.494 71.3126C265.036 65.4476 272.083 73.4752 274.414 78.2222L280.982 88.9074C278.466 91.1806 271.44 96.2995 267.595 93.8642Z" fill="white"/>
<circle cx="252.376" cy="103" r="23" fill="white" stroke="black" stroke-width="2"/>
<path fill-rule="evenodd" clip-rule="evenodd" d="M273.868 93.5748C273.955 94.3712 274 95.1804 274 96V97H278V96C278 94.4668 277.867 92.9645 277.613 91.5041C276.46 92.2725 275.171 93.0186 273.868 93.5748ZM257.014 70.483C255.391 70.1661 253.715 70 252 70C248.448 70 245.063 70.7122 241.979 72.0015C242.647 72.2397 243.206 72.632 243.778 73.0331C244.788 73.7423 245.838 74.479 247.599 74.4402C248.236 74.3109 248.883 74.2092 249.538 74.1362C251.052 73.7258 252.973 72.8622 255.494 71.3123C256.008 70.9965 256.515 70.7209 257.014 70.483ZM238.1 78.9467C233.156 82.9809 230 89.1218 230 96V97H226V96C226 86.4479 231.151 78.0989 238.827 73.5793C238.366 75.1099 238.032 76.9993 238.1 78.9467Z" fill="#86EC16"/>
<path d="M265.407 86.4849C264.879 87.5362 263.751 91.4289 267.595 93.8642C271.44 96.2995 278.466 91.1806 280.982 88.9074L274.414 78.2222C272.083 73.4752 265.036 65.4476 255.494 71.3126C243.567 78.6438 245.09 70.619 239.432 71.9161C237.808 75.6404 236.338 84.0691 243.443 87.9899" stroke="black" stroke-width="2"/>
<path d="M278.317 105.164C278.247 109.029 275.281 112.11 271.692 112.046C268.103 111.981 268.355 97.9836 271.944 98.0481C275.533 98.1127 278.387 101.299 278.317 105.164Z" fill="white"/>
<path d="M271.692 112.046C275.281 112.11 278.247 109.029 278.317 105.164C278.387 101.299 275.533 98.1127 271.944 98.0481" stroke="black" stroke-width="2"/>
<path d="M271.478 107.067C272.715 107.089 273.738 106.027 273.762 104.694C273.786 103.361 272.802 102.263 271.565 102.241" stroke="black" stroke-width="2"/>
<path d="M226.126 103.164C226.195 107.029 229.161 110.11 232.751 110.046C236.34 109.981 236.088 95.9836 232.499 96.0481C228.91 96.1127 226.056 99.2985 226.126 103.164Z" fill="white"/>
<path d="M232.751 110.046C229.161 110.11 226.195 107.029 226.126 103.164C226.056 99.2985 228.91 96.1127 232.499 96.0481" stroke="black" stroke-width="2"/>
<path d="M232.965 105.067C231.728 105.089 230.705 104.027 230.681 102.694C230.657 101.361 231.641 100.263 232.878 100.241" stroke="black" stroke-width="2"/>
<path d="M255.753 112.265C255.708 113.133 253.36 114.098 251.356 113.992C249.353 113.886 247.521 112.602 247.19 111.626" stroke="black" stroke-width="2" stroke-miterlimit="10" stroke-linecap="round" stroke-linejoin="round"/>
<circle cx="243.5" cy="99.5" r="2.5" fill="black"/>
<circle cx="258.5" cy="100.5" r="2.5" fill="black"/>
<path d="M221 103C221 98.0294 225.029 94 230 94V113C225.029 113 221 108.971 221 104V103Z" fill="#86EC16"/>
<path d="M229 109V109C229 113.971 233.029 118 238 118H251" stroke="#86EC16" stroke-width="2"/>
<path d="M283 104C283 99.0294 278.971 95 274 95V114C278.971 114 283 109.971 283 105V104Z" fill="#86EC16"/>
<rect x="245" y="116" width="10" height="4" rx="2" fill="#86EC16"/>
<circle cx="252" cy="104" r="49" stroke="black" stroke-width="2"/>
</g>
<path fill-rule="evenodd" clip-rule="evenodd" d="M190 222.53C190 220.351 191.181 218.344 193.086 217.285L201.204 212.775C205.661 210.299 210.675 209 215.774 209H230V215H244V219H230V233H244V237H230V243H215.774C210.675 243 205.661 241.701 201.204 239.225L193.086 234.715C191.181 233.656 190 231.649 190 229.47V222.53Z" fill="black"/>
<path d="M196 226H184.25C171.409 226 161 215.591 161 202.75V202.75C161 189.909 171.409 179.5 184.25 179.5H226.5C240.583 179.5 252 168.083 252 154V154" stroke="black" stroke-width="6"/>
<path d="M307 229.47C307 231.285 306.016 232.959 304.428 233.84L296.31 238.351C292.002 240.744 287.155 242 282.226 242H269V210H282.226C287.155 210 292.002 211.256 296.31 213.649L304.428 218.16C306.016 219.041 307 220.715 307 222.53V229.47Z" fill="white" stroke="black" stroke-width="2"/>
<path d="M307 226H320.038C340.728 226 357.5 242.772 357.5 263.462V264.183C357.5 275.404 348.404 284.5 337.183 284.5H299.155C291.613 284.5 285.5 290.613 285.5 298.155V298.155C285.5 308.01 293.49 316 303.345 316H387" stroke="black" stroke-width="4"/>
</svg>
