<svg width="370" height="230" viewBox="0 0 370 230" fill="none" xmlns="http://www.w3.org/2000/svg">
<g clip-path="url(#clip0)">
<rect x="232" y="181" width="16" height="16" rx="2" stroke="black" stroke-width="2"/>
<circle cx="237" cy="189" r="2" fill="black"/>
<circle cx="243" cy="189" r="2" fill="black"/>
<path fill-rule="evenodd" clip-rule="evenodd" d="M236 189C236 188.448 236.448 188 237 188C237.552 188 238 188.448 238 189V193H242V189C242 188.448 242.448 188 243 188C243.552 188 244 188.448 244 189V193H245V201H235V193H236V189Z" fill="#86EC16"/>
<path d="M135.168 93.4549C107.797 117.291 104.112 161.341 127.141 179.843C150.103 198.346 179.711 202.231 201.489 178.329C223.268 154.427 216.688 99.7102 245.704 90.7553C274.72 81.8004 265.64 57.6353 243.335 53.6846C226.294 50.7216 189.515 46.2442 135.168 93.4549Z" fill="#86EC16"/>
<line x1="10" y1="212" x2="349" y2="212" stroke="black" stroke-width="2"/>
<path d="M157.5 179C157.5 179 166.293 203.535 157.5 214C152.32 220.165 142.812 219.335 133.738 216.439C126.03 213.979 128.17 204.413 136.244 203.902V203.902C145.422 203.321 154.491 206.156 161.705 211.86L170.069 218.474C183.74 229.283 203.101 229.087 216.55 218.002L239 199.5" stroke="#86EC16" stroke-width="4"/>
<line x1="10" y1="212" x2="147" y2="212" stroke="black" stroke-width="2"/>
<path fill-rule="evenodd" clip-rule="evenodd" d="M163.111 194.922C163.016 194.026 162.903 193.144 162.776 192.283C162.211 188.456 161.365 184.977 160.663 182.46C160.311 181.199 159.994 180.173 159.764 179.46C159.649 179.103 159.555 178.824 159.489 178.631C159.456 178.535 159.431 178.461 159.413 178.41L159.392 178.35L159.386 178.333L159.384 178.328L159.383 178.326C159.383 178.326 159.383 178.325 157.5 179C155.617 179.675 155.617 179.674 155.617 179.674L155.618 179.676L155.621 179.686L155.637 179.732C155.652 179.774 155.675 179.838 155.704 179.924C155.763 180.097 155.849 180.355 155.957 180.689C156.173 181.358 156.475 182.331 156.81 183.534C157.482 185.944 158.285 189.253 158.819 192.868C158.899 193.414 158.974 193.965 159.04 194.521C160.397 194.71 161.754 194.844 163.111 194.922Z" fill="black"/>
<path d="M173.352 156.384C171.687 157.588 170.5 159.496 170.5 161.668V171C170.5 171.552 170.052 172 169.5 172H146.5C145.948 172 145.5 171.552 145.5 171V161.668C145.5 159.496 144.313 157.588 142.648 156.384C136.188 151.71 132 144.169 132 135.667C132 121.503 143.629 110 158 110C172.371 110 184 121.503 184 135.667C184 144.169 179.812 151.71 173.352 156.384Z" fill="white" stroke="black" stroke-width="2"/>
<path d="M157.754 128.316C165.496 127.463 169.793 131.623 171.225 133.356C172.242 134.431 173.04 135.753 173.523 137.276C174.201 139.43 174.134 141.648 173.47 143.634C169.738 138.649 163.488 137.717 161.75 137.55C163.779 138.603 172.703 143.728 174.701 153.404C174.722 153.484 174.749 153.561 174.767 153.641C174.815 153.842 174.861 154.043 174.902 154.251C174.926 154.368 174.952 154.485 174.963 154.605C175.009 154.833 175.078 155.419 174.702 155.571L173.426 155.979C173.426 155.979 172.752 156.171 172.767 155.396C172.752 152.81 172.091 149.912 170.408 148.165C169.481 148.948 168.397 149.569 167.184 149.971C164.109 150.988 160.901 150.372 158.454 148.587C149.767 143.056 146 125 146 125C149.237 129.37 157.754 128.316 157.754 128.316ZM161.319 137.534L161.32 137.518C161.3 137.518 161.286 137.514 161.286 137.514C161.296 137.522 161.308 137.529 161.319 137.534Z" fill="black"/>
<path d="M148 172H168V178C168 180.209 166.209 182 164 182H152C149.791 182 148 180.209 148 178V172Z" fill="white" stroke="black" stroke-width="2"/>
<line x1="146" y1="163" x2="170" y2="163" stroke="black" stroke-width="2"/>
<path d="M105 136H121" stroke="black" stroke-width="2"/>
<path d="M211 136H195" stroke="black" stroke-width="2"/>
<path d="M203.899 109.312L190.129 117.262" stroke="black" stroke-width="2"/>
<path d="M184.5 89.9136L176.55 103.683" stroke="black" stroke-width="2"/>
<path d="M158 83V99" stroke="black" stroke-width="2"/>
<path d="M131.5 89.9136L139.45 103.683" stroke="black" stroke-width="2"/>
<path d="M112.101 109.312L125.871 117.262" stroke="black" stroke-width="2"/>
</g>
<defs>
<clipPath id="clip0">
<rect width="370" height="230" fill="white"/>
</clipPath>
</defs>
</svg>
