<svg width="472" height="386" viewBox="0 0 472 386" fill="none" xmlns="http://www.w3.org/2000/svg">
<path d="M202.265 117.234L198.982 86.7915L233.637 95.7069L270.116 52L256.436 120.496L297.292 144.415L261.908 160.289L271.94 192.253L230.172 181.816L209.561 197.255L203.724 163.116L147 130.281L202.265 117.234Z" fill="#86EC16"/>
<path d="M154.557 270.302V145.618L194.019 123.368L233.481 145.618V270.302L194.019 293.392L154.557 270.302Z" fill="white"/>
<mask id="path-3-inside-1" fill="white">
<path fill-rule="evenodd" clip-rule="evenodd" d="M155.557 145.198V269.734L194.019 292.647L232.482 269.734V145.198H234.482V270.302V270.87L233.993 271.161L194.531 294.671L194.019 294.975L193.508 294.671L154.045 271.161L153.557 270.87V270.302V145.198H155.557Z"/>
</mask>
<path fill-rule="evenodd" clip-rule="evenodd" d="M155.557 145.198V269.734L194.019 292.647L232.482 269.734V145.198H234.482V270.302V270.87L233.993 271.161L194.531 294.671L194.019 294.975L193.508 294.671L154.045 271.161L153.557 270.87V270.302V145.198H155.557Z" fill="white"/>
<path d="M155.557 269.734H153.557V270.87L154.534 271.452L155.557 269.734ZM155.557 145.198H157.557V143.198H155.557V145.198ZM194.019 292.647L192.996 294.366L194.019 294.975L195.043 294.366L194.019 292.647ZM232.482 269.734L233.505 271.452L234.482 270.87V269.734H232.482ZM232.482 145.198V143.198H230.482V145.198H232.482ZM234.482 145.198H236.482V143.198H234.482V145.198ZM234.482 270.87L235.505 272.588L236.482 272.007V270.87H234.482ZM233.993 271.161L232.97 269.443H232.97L233.993 271.161ZM194.531 294.671L195.555 296.389L195.555 296.389L194.531 294.671ZM194.019 294.975L192.996 296.694L194.019 297.303L195.043 296.694L194.019 294.975ZM193.508 294.671L192.484 296.389L192.484 296.389L193.508 294.671ZM154.045 271.161L153.022 272.879H153.022L154.045 271.161ZM153.557 270.87H151.557V272.007L152.534 272.588L153.557 270.87ZM153.557 145.198V143.198H151.557V145.198H153.557ZM157.557 269.734V145.198H153.557V269.734H157.557ZM195.043 290.929L156.581 268.016L154.534 271.452L192.996 294.366L195.043 290.929ZM195.043 294.366L233.505 271.452L231.458 268.016L192.996 290.929L195.043 294.366ZM234.482 269.734V145.198H230.482V269.734H234.482ZM232.482 147.198H234.482V143.198H232.482V147.198ZM232.482 145.198V270.302H236.482V145.198H232.482ZM232.482 270.302V270.87H236.482V270.302H232.482ZM233.458 269.152L232.97 269.443L235.017 272.879L235.505 272.588L233.458 269.152ZM232.97 269.443L193.508 292.952L195.555 296.389L235.017 272.879L232.97 269.443ZM193.508 292.952L192.996 293.257L195.043 296.694L195.555 296.389L193.508 292.952ZM195.043 293.257L194.531 292.952L192.484 296.389L192.996 296.694L195.043 293.257ZM153.022 272.879L192.484 296.389L194.531 292.952L155.069 269.443L153.022 272.879ZM152.534 272.588L153.022 272.879L155.069 269.443L154.581 269.152L152.534 272.588ZM151.557 270.302V270.87H155.557V270.302H151.557ZM151.557 145.198V270.302H155.557V145.198H151.557ZM155.557 143.198H153.557V147.198H155.557V143.198Z" fill="black" mask="url(#path-3-inside-1)"/>
<path d="M155.757 145.198L194.019 123.676L232.281 145.198L194.019 166.721L155.757 145.198Z" fill="white" stroke="black" stroke-width="2"/>
<path d="M194.019 167.028L194.019 292.552" stroke="black" stroke-width="2" stroke-linecap="round"/>
<path d="M158.755 151.075L189.821 168.707V175.424L158.755 157.792V151.075Z" stroke="black" stroke-width="2"/>
<path d="M178.066 164.509L187.302 169.756V171.855L178.066 166.608V164.509Z" fill="#86EC16"/>
<path d="M158.755 162.83L189.821 180.462V187.179L158.755 169.547V162.83Z" stroke="black" stroke-width="2"/>
<path d="M178.066 176.264L187.302 181.511V183.61L178.066 178.363V176.264Z" fill="#86EC16"/>
<path d="M158.755 174.585L189.821 192.217V198.934L158.755 181.302V174.585Z" stroke="black" stroke-width="2"/>
<path d="M178.066 188.019L187.302 193.266V195.365L178.066 190.118V188.019Z" fill="#86EC16"/>
<path d="M158.755 186.34L189.821 203.972V210.689L158.755 193.057V186.34Z" stroke="black" stroke-width="2"/>
<path d="M178.066 199.773L187.302 205.021V207.12L178.066 201.872V199.773Z" fill="#86EC16"/>
<path d="M158.755 198.095L189.821 215.727V222.444L158.755 204.812V198.095Z" stroke="black" stroke-width="2"/>
<path d="M178.066 211.528L187.302 216.776V218.875L178.066 213.627V211.528Z" fill="#86EC16"/>
<path d="M158.755 209.849L189.821 227.481V234.198L158.755 216.566V209.849Z" stroke="black" stroke-width="2"/>
<path d="M178.066 223.282L187.302 228.53V230.629L178.066 225.381V223.282Z" fill="#86EC16"/>
<path d="M158.755 221.604L189.821 239.236V245.953L158.755 228.32V221.604Z" stroke="black" stroke-width="2"/>
<path d="M178.066 235.037L187.302 240.285V242.384L178.066 237.136V235.037Z" fill="#86EC16"/>
<path d="M158.755 233.358L189.821 250.99V257.707L158.755 240.075V233.358Z" stroke="black" stroke-width="2"/>
<path d="M178.066 246.792L187.302 252.04V254.139L178.066 248.891V246.792Z" fill="#86EC16"/>
<path d="M158.755 245.113L189.821 262.745V269.462L158.755 251.83V245.113Z" stroke="black" stroke-width="2"/>
<path d="M178.066 258.547L187.302 263.795V265.894L178.066 260.646V258.547Z" fill="#86EC16"/>
<ellipse rx="2.51887" ry="2.93868" transform="matrix(0.985556 -0.16935 0 1 213.294 164.502)" fill="black"/>
<ellipse rx="2.51887" ry="2.93868" transform="matrix(0.985556 -0.16935 0 1 213.294 274.507)" fill="black"/>
<path d="M245.236 245.114V120.43L284.699 98.1797L324.161 120.43V245.114L284.699 268.203L245.236 245.114Z" fill="white"/>
<mask id="path-28-inside-2" fill="white">
<path fill-rule="evenodd" clip-rule="evenodd" d="M246.237 120.01V244.545L284.699 267.459L323.161 244.545V120.01H325.161V245.114V245.682L324.673 245.973L285.211 269.482L284.699 269.787L284.187 269.482L244.725 245.973L244.237 245.682V245.114V120.01H246.237Z"/>
</mask>
<path fill-rule="evenodd" clip-rule="evenodd" d="M246.237 120.01V244.545L284.699 267.459L323.161 244.545V120.01H325.161V245.114V245.682L324.673 245.973L285.211 269.482L284.699 269.787L284.187 269.482L244.725 245.973L244.237 245.682V245.114V120.01H246.237Z" fill="white"/>
<path d="M246.237 244.545H244.237V245.682L245.213 246.263L246.237 244.545ZM246.237 120.01H248.237V118.01H246.237V120.01ZM284.699 267.459L283.675 269.177L284.699 269.787L285.722 269.177L284.699 267.459ZM323.161 244.545L324.185 246.263L325.161 245.682V244.545H323.161ZM323.161 120.01V118.01H321.161V120.01H323.161ZM325.161 120.01H327.161V118.01H325.161V120.01ZM325.161 245.682L326.185 247.4L327.161 246.818V245.682H325.161ZM324.673 245.973L323.649 244.254H323.649L324.673 245.973ZM285.211 269.482L286.234 271.2L286.234 271.2L285.211 269.482ZM284.699 269.787L283.675 271.505L284.699 272.115L285.722 271.505L284.699 269.787ZM284.187 269.482L283.163 271.2L283.163 271.2L284.187 269.482ZM244.725 245.973L243.701 247.691H243.701L244.725 245.973ZM244.237 245.682H242.237V246.818L243.213 247.4L244.237 245.682ZM244.237 120.01V118.01H242.237V120.01H244.237ZM248.237 244.545V120.01H244.237V244.545H248.237ZM285.722 265.741L247.26 242.827L245.213 246.263L283.675 269.177L285.722 265.741ZM285.722 269.177L324.185 246.263L322.137 242.827L283.675 265.741L285.722 269.177ZM325.161 244.545V120.01H321.161V244.545H325.161ZM323.161 122.01H325.161V118.01H323.161V122.01ZM323.161 120.01V245.114H327.161V120.01H323.161ZM323.161 245.114V245.682H327.161V245.114H323.161ZM324.137 243.964L323.649 244.254L325.697 247.691L326.185 247.4L324.137 243.964ZM323.649 244.254L284.187 267.764L286.234 271.2L325.697 247.691L323.649 244.254ZM284.187 267.764L283.675 268.069L285.722 271.505L286.234 271.2L284.187 267.764ZM285.722 268.069L285.211 267.764L283.163 271.2L283.675 271.505L285.722 268.069ZM243.701 247.691L283.163 271.2L285.211 267.764L245.748 244.254L243.701 247.691ZM243.213 247.4L243.701 247.691L245.748 244.254L245.26 243.964L243.213 247.4ZM242.237 245.114V245.682H246.237V245.114H242.237ZM242.237 120.01V245.114H246.237V120.01H242.237ZM246.237 118.01H244.237V122.01H246.237V118.01Z" fill="black" mask="url(#path-28-inside-2)"/>
<path d="M246.436 120.01L284.699 98.4872L322.961 120.01L284.699 141.532L246.436 120.01Z" fill="white" stroke="black" stroke-width="2"/>
<path d="M284.699 141.84L284.699 267.363" stroke="black" stroke-width="2" stroke-linecap="round"/>
<path d="M249.435 125.887L280.501 143.519V150.236L249.435 132.604V125.887Z" stroke="black" stroke-width="2"/>
<path d="M268.746 139.32L277.981 144.568V146.667L268.746 141.419V139.32Z" fill="#86EC16"/>
<path d="M249.435 137.642L280.501 155.274V161.991L249.435 144.359V137.642Z" stroke="black" stroke-width="2"/>
<path d="M268.746 151.075L277.981 156.323V158.422L268.746 153.174V151.075Z" fill="#86EC16"/>
<path d="M249.435 149.396L280.501 167.029V173.746L249.435 156.113V149.396Z" stroke="black" stroke-width="2"/>
<path d="M268.746 162.83L277.981 168.078V170.177L268.746 164.929V162.83Z" fill="#86EC16"/>
<path d="M249.435 161.151L280.501 178.783V185.5L249.435 167.868V161.151Z" stroke="black" stroke-width="2"/>
<path d="M268.746 174.585L277.981 179.833V181.932L268.746 176.684V174.585Z" fill="#86EC16"/>
<path d="M249.435 172.906L280.501 190.538V197.255L249.435 179.623V172.906Z" stroke="black" stroke-width="2"/>
<path d="M268.746 186.34L277.981 191.587V193.687L268.746 188.439V186.34Z" fill="#86EC16"/>
<path d="M249.435 184.66L280.501 202.292V209.009L249.435 191.377V184.66Z" stroke="black" stroke-width="2"/>
<path d="M268.746 198.094L277.981 203.341V205.44L268.746 200.193V198.094Z" fill="#86EC16"/>
<path d="M249.435 196.415L280.501 214.047V220.764L249.435 203.132V196.415Z" stroke="black" stroke-width="2"/>
<path d="M268.746 209.849L277.981 215.096V217.195L268.746 211.948V209.849Z" fill="#86EC16"/>
<path d="M249.435 208.17L280.501 225.802V232.519L249.435 214.887V208.17Z" stroke="black" stroke-width="2"/>
<path d="M268.746 221.604L277.981 226.851V228.95L268.746 223.703V221.604Z" fill="#86EC16"/>
<path d="M249.435 219.925L280.501 237.557V244.274L249.435 226.642V219.925Z" stroke="black" stroke-width="2"/>
<path d="M268.746 233.358L277.981 238.606V240.705L268.746 235.457V233.358Z" fill="#86EC16"/>
<ellipse rx="2.51887" ry="2.93868" transform="matrix(0.985556 -0.16935 0 1 303.974 139.314)" fill="black"/>
<ellipse rx="2.51887" ry="2.93868" transform="matrix(0.985556 -0.16935 0 1 303.974 249.319)" fill="black"/>
<path d="M223.406 308.925V184.241L262.868 161.991L302.331 184.241V308.925L262.868 332.015L223.406 308.925Z" fill="white"/>
<mask id="path-53-inside-3" fill="white">
<path fill-rule="evenodd" clip-rule="evenodd" d="M224.406 183.821V308.357L262.868 331.27L301.331 308.357V183.821H303.331V308.925V309.493L302.842 309.784L263.38 333.294L262.868 333.598L262.356 333.294L222.894 309.784L222.406 309.493V308.925V183.821H224.406Z"/>
</mask>
<path fill-rule="evenodd" clip-rule="evenodd" d="M224.406 183.821V308.357L262.868 331.27L301.331 308.357V183.821H303.331V308.925V309.493L302.842 309.784L263.38 333.294L262.868 333.598L262.356 333.294L222.894 309.784L222.406 309.493V308.925V183.821H224.406Z" fill="white"/>
<path d="M224.406 308.357H222.406V309.493L223.382 310.075L224.406 308.357ZM224.406 183.821H226.406V181.821H224.406V183.821ZM262.868 331.27L261.845 332.989L262.868 333.599L263.892 332.989L262.868 331.27ZM301.331 308.357L302.354 310.075L303.331 309.493V308.357H301.331ZM301.331 183.821V181.821H299.331V183.821H301.331ZM303.331 183.821H305.331V181.821H303.331V183.821ZM303.331 309.493L304.354 311.212L305.331 310.63V309.493H303.331ZM302.842 309.784L301.819 308.066H301.819L302.842 309.784ZM263.38 333.294L264.404 335.012L264.404 335.012L263.38 333.294ZM262.868 333.598L261.845 335.317L262.868 335.926L263.892 335.317L262.868 333.598ZM262.356 333.294L261.333 335.012L261.333 335.012L262.356 333.294ZM222.894 309.784L221.871 311.502H221.871L222.894 309.784ZM222.406 309.493H220.406V310.63L221.382 311.212L222.406 309.493ZM222.406 183.821V181.821H220.406V183.821H222.406ZM226.406 308.357V183.821H222.406V308.357H226.406ZM263.892 329.552L225.43 306.639L223.382 310.075L261.845 332.989L263.892 329.552ZM263.892 332.989L302.354 310.075L300.307 306.639L261.845 329.552L263.892 332.989ZM303.331 308.357V183.821H299.331V308.357H303.331ZM301.331 185.821H303.331V181.821H301.331V185.821ZM301.331 183.821V308.925H305.331V183.821H301.331ZM301.331 308.925V309.493H305.331V308.925H301.331ZM302.307 307.775L301.819 308.066L303.866 311.502L304.354 311.212L302.307 307.775ZM301.819 308.066L262.356 331.575L264.404 335.012L303.866 311.502L301.819 308.066ZM262.356 331.575L261.845 331.88L263.892 335.317L264.404 335.012L262.356 331.575ZM263.892 331.88L263.38 331.575L261.333 335.012L261.845 335.317L263.892 331.88ZM221.871 311.502L261.333 335.012L263.38 331.575L223.918 308.066L221.871 311.502ZM221.382 311.212L221.871 311.502L223.918 308.066L223.43 307.775L221.382 311.212ZM220.406 308.925V309.493H224.406V308.925H220.406ZM220.406 183.821V308.925H224.406V183.821H220.406ZM224.406 181.821H222.406V185.821H224.406V181.821Z" fill="black" mask="url(#path-53-inside-3)"/>
<path d="M224.606 183.821L262.868 162.299L301.13 183.821L262.868 205.344L224.606 183.821Z" fill="white" stroke="black" stroke-width="2"/>
<path d="M262.868 205.651L262.868 331.175" stroke="black" stroke-width="2" stroke-linecap="round"/>
<path d="M227.604 189.698L258.67 207.33V214.047L227.604 196.415V189.698Z" stroke="black" stroke-width="2"/>
<path d="M246.915 203.132L256.151 208.379V210.479L246.915 205.231V203.132Z" fill="#86EC16"/>
<path d="M227.604 201.453L258.67 219.085V225.802L227.604 208.17V201.453Z" stroke="black" stroke-width="2"/>
<path d="M246.915 214.887L256.151 220.134V222.233L246.915 216.986V214.887Z" fill="#86EC16"/>
<path d="M227.604 213.208L258.67 230.84V237.557L227.604 219.925V213.208Z" stroke="black" stroke-width="2"/>
<path d="M246.915 226.642L256.151 231.889V233.988L246.915 228.741V226.642Z" fill="#86EC16"/>
<path d="M227.604 224.963L258.67 242.595V249.312L227.604 231.68V224.963Z" stroke="black" stroke-width="2"/>
<path d="M246.915 238.396L256.151 243.644V245.743L246.915 240.496V238.396Z" fill="#86EC16"/>
<path d="M227.604 236.718L258.67 254.35V261.067L227.604 243.435V236.718Z" stroke="black" stroke-width="2"/>
<path d="M246.915 250.151L256.151 255.399V257.498L246.915 252.25V250.151Z" fill="#86EC16"/>
<path d="M227.604 248.472L258.67 266.104V272.821L227.604 255.189V248.472Z" stroke="black" stroke-width="2"/>
<path d="M246.915 261.905L256.151 267.153V269.252L246.915 264.004V261.905Z" fill="#86EC16"/>
<path d="M227.604 260.227L258.67 277.859V284.576L227.604 266.944V260.227Z" stroke="black" stroke-width="2"/>
<path d="M246.915 273.66L256.151 278.908V281.007L246.915 275.759V273.66Z" fill="#86EC16"/>
<path d="M227.604 271.981L258.67 289.614V296.331L227.604 278.698V271.981Z" stroke="black" stroke-width="2"/>
<path d="M246.915 285.415L256.151 290.663V292.762L246.915 287.514V285.415Z" fill="#86EC16"/>
<path d="M227.604 283.736L258.67 301.368V308.085L227.604 290.453V283.736Z" stroke="black" stroke-width="2"/>
<path d="M246.915 297.17L256.151 302.418V304.517L246.915 299.269V297.17Z" fill="#86EC16"/>
<ellipse rx="2.51887" ry="2.93868" transform="matrix(0.985556 -0.16935 0 1 282.143 203.125)" fill="black"/>
<ellipse rx="2.51887" ry="2.93868" transform="matrix(0.985556 -0.16935 0 1 282.143 313.13)" fill="black"/>
</svg>
