<svg width="449" height="320" viewBox="0 0 449 320" fill="none" xmlns="http://www.w3.org/2000/svg">
<path d="M403.804 258.561H194.74L228.57 208.956C251.567 192.421 277.415 181.017 307.634 181.017C325.12 181.017 341.655 184.248 357.24 189.95L403.804 258.561Z" fill="#9EE84C"/>
<path d="M316.187 129.892C316.187 129.892 294.33 131.982 282.356 130.082L282.547 129.892L235.602 61.0906C275.704 71.5438 315.997 81.6169 356.099 71.1637L316.187 129.892Z" fill="#9EE84C"/>
<path d="M357.05 189.95L403.804 258.561H194.74L228.57 208.956L282.167 130.082L282.357 129.892L235.602 61.0906L194.74 1.22217H403.804L356.099 71.1637L316.187 129.892L318.468 133.123L357.05 189.95Z" stroke="black" stroke-width="2" stroke-miterlimit="10" stroke-linecap="round" stroke-linejoin="round"/>
<path d="M301.363 109.175V165.243C301.363 167.903 305.544 167.903 305.544 165.243V109.175C305.354 106.514 301.363 106.514 301.363 109.175Z" fill="#9EE84C"/>
<path d="M291.669 124.95V181.017C291.669 183.678 295.851 183.678 295.851 181.017V124.95C295.661 122.289 291.669 122.289 291.669 124.95Z" fill="#9EE84C"/>
<path d="M241.304 44.9355L248.336 51.2075" stroke="black" stroke-width="2" stroke-miterlimit="10" stroke-linecap="round" stroke-linejoin="round"/>
<path d="M304.594 17.5671L298.322 25.9297" stroke="black" stroke-width="2" stroke-miterlimit="10" stroke-linecap="round" stroke-linejoin="round"/>
<path d="M319.228 55.5789L323.599 62.0408" stroke="black" stroke-width="2" stroke-miterlimit="10" stroke-linecap="round" stroke-linejoin="round"/>
<path d="M338.804 196.982L332.532 205.725" stroke="white" stroke-width="2" stroke-miterlimit="10" stroke-linecap="round" stroke-linejoin="round"/>
<path d="M359.14 228.532L364.272 235.564" stroke="white" stroke-width="2" stroke-miterlimit="10" stroke-linecap="round" stroke-linejoin="round"/>
<path d="M281.216 195.082L283.687 201.924" stroke="white" stroke-width="2" stroke-miterlimit="10" stroke-linecap="round" stroke-linejoin="round"/>
<path d="M364.272 25.9297L355.909 32.2016" stroke="black" stroke-width="2" stroke-miterlimit="10" stroke-linecap="round" stroke-linejoin="round"/>
<path d="M219.505 312.918C219.505 312.918 255.236 312.158 291.347 308.357C327.458 304.556 363.759 298.094 364.519 274.146C366.04 226.061 302.75 188.62 168.189 195.272C33.6275 201.924 -7.04502 233.094 2.26785 276.427C10.8205 316.339 42.7503 313.488 162.867 315.389C162.867 315.389 215.133 322.611 217.224 315.199C218.935 309.307 200.119 305.696 200.119 305.696" fill="white"/>
<path d="M219.505 312.918C219.505 312.918 255.236 312.158 291.347 308.357C327.458 304.556 363.759 298.094 364.519 274.146C366.04 226.061 302.75 188.62 168.189 195.272C33.6275 201.924 -7.04502 233.094 2.26785 276.427C10.8205 316.339 42.7503 313.488 162.867 315.389C162.867 315.389 215.133 322.611 217.224 315.199C218.935 309.307 200.119 305.696 200.119 305.696" stroke="black" stroke-width="2" stroke-miterlimit="10" stroke-linecap="round" stroke-linejoin="round"/>
<path d="M168.189 195.272C33.6275 201.924 -7.04502 233.094 2.26785 276.617C10.2503 314.058 38.7591 313.868 141.581 315.199C146.902 297.713 152.414 280.228 157.166 262.743C157.166 262.743 187.955 269.585 188.715 269.965C188.715 269.965 210.952 261.792 237.18 258.561C244.022 273.196 251.244 294.482 249.344 311.778C261.698 311.018 276.332 310.067 291.347 308.547C327.458 304.936 363.759 298.284 364.519 274.336C365.85 226.061 302.56 188.62 168.189 195.272Z" fill="black"/>
<path d="M221.975 296.573C222.925 289.161 215.323 281.748 205.25 276.807C176.741 262.363 114.022 256.091 73.5396 251.719" stroke="black" stroke-width="2" stroke-miterlimit="10" stroke-linecap="round" stroke-linejoin="round"/>
<path d="M203.35 295.433C233.379 306.076 218.364 313.298 218.364 313.298" stroke="black" stroke-width="2" stroke-miterlimit="10" stroke-linecap="round" stroke-linejoin="round"/>
<path d="M204.11 287.64C235.66 299.614 223.116 305.696 223.116 305.696" stroke="black" stroke-width="2" stroke-miterlimit="10" stroke-linecap="round" stroke-linejoin="round"/>
<path d="M187.575 269.775C224.256 256.471 279.373 252.099 315.864 254.95" stroke="black" stroke-width="2" stroke-miterlimit="10" stroke-linecap="round" stroke-linejoin="round"/>
<path d="M164.714 204.891C156.732 202.991 154.831 209.073 155.592 211.543C156.352 214.014 158.442 215.725 165.475 215.344" fill="white"/>
<path d="M164.714 204.891C156.732 202.991 154.831 209.073 155.592 211.543C156.352 214.014 158.442 215.725 165.475 215.344" stroke="black" stroke-width="2" stroke-miterlimit="10" stroke-linecap="round" stroke-linejoin="round"/>
<path d="M202.148 204.917C210.13 203.017 211.198 208.585 210.438 211.055C209.677 213.526 207.66 214.8 200.438 214.42" fill="white"/>
<path d="M202.148 204.917C210.13 203.017 211.198 208.585 210.438 211.055C209.677 213.526 207.66 214.8 200.438 214.42" stroke="black" stroke-width="2" stroke-miterlimit="10" stroke-linecap="round" stroke-linejoin="round"/>
<path d="M183.774 231.953C195.635 231.953 205.251 222.338 205.251 210.477C205.251 198.615 195.635 189 183.774 189C171.913 189 162.297 198.615 162.297 210.477C162.297 222.338 171.913 231.953 183.774 231.953Z" fill="white" stroke="black" stroke-width="2" stroke-miterlimit="10" stroke-linecap="round" stroke-linejoin="round"/>
<path d="M180.487 224.105C180.482 222.761 178.687 221.678 176.478 221.686C174.269 221.694 172.482 222.791 172.487 224.135" stroke="black" stroke-width="2"/>
<path d="M194.447 224.105C194.442 222.761 192.647 221.678 190.437 221.686C188.228 221.694 186.442 222.791 186.447 224.135" stroke="black" stroke-width="2"/>
<path d="M151.844 263.123C117.634 254 76.771 249.249 76.771 249.249L151.844 263.123Z" fill="black"/>
<path d="M151.844 263.123C117.634 254 76.771 249.249 76.771 249.249" stroke="white" stroke-width="2" stroke-miterlimit="10" stroke-linecap="round" stroke-linejoin="round"/>
<path d="M240.411 259.132C253.715 256.851 298.189 250.579 307.312 250.579L240.411 259.132Z" fill="black"/>
<path d="M240.411 259.132C253.715 256.851 298.189 250.579 307.312 250.579" stroke="white" stroke-width="2" stroke-miterlimit="10" stroke-linecap="round" stroke-linejoin="round"/>
<path d="M196.369 104.515L168.594 71.5015L135.581 99.2771L163.356 132.29L196.369 104.515Z" fill="white" stroke="black" stroke-width="2" stroke-miterlimit="10" stroke-linecap="round" stroke-linejoin="round"/>
<path d="M447.327 90.9159L409.641 46.1226L364.847 83.8093L402.534 128.603L447.327 90.9159Z" fill="white" stroke="black" stroke-width="2" stroke-miterlimit="10" stroke-linecap="round" stroke-linejoin="round"/>
<path d="M232.652 126.935L210.597 139.668L223.331 161.724L245.386 148.99L232.652 126.935Z" fill="white" stroke="black" stroke-width="2" stroke-miterlimit="10" stroke-linecap="round" stroke-linejoin="round"/>
<path d="M143.044 108.225L174.784 81.0466" stroke="black" stroke-width="2" stroke-miterlimit="10" stroke-linecap="round" stroke-linejoin="round"/>
<path d="M155.778 82.9473L157.108 95.8712" stroke="black" stroke-width="2" stroke-miterlimit="10" stroke-linecap="round" stroke-linejoin="round"/>
<path d="M214.696 146.807L236.553 133.883" stroke="black" stroke-width="2" stroke-miterlimit="10" stroke-linecap="round" stroke-linejoin="round"/>
<path d="M223.249 132.933L224.769 140.915" stroke="black" stroke-width="2" stroke-miterlimit="10" stroke-linecap="round" stroke-linejoin="round"/>
<path d="M401.903 53.4883L438.585 97.7719" stroke="black" stroke-width="2" stroke-miterlimit="10" stroke-linecap="round" stroke-linejoin="round"/>
<path d="M417.678 72.1138L428.512 69.6431" stroke="black" stroke-width="2" stroke-miterlimit="10" stroke-linecap="round" stroke-linejoin="round"/>
<path d="M191.5 217.5C185.1 219.9 181.5 216.5 180.5 214.5L166.5 203.5C163 202 159 200 160 195.5C160.8 191.9 165.333 191.333 167.5 191.5C167.5 190 166.5 187.5 169.5 186C171.9 184.8 174.833 186.5 176 187.5C176.5 185.833 178.4 182.6 182 183C185.6 183.4 187.167 186.167 187.5 187.5C188.833 185.833 192.4 183 196 185C199.6 187 198.833 190.833 198 192.5C201.667 193.167 208.2 196 205 202C201.8 208 197 207.5 195 206.5C196.5 209.167 197.9 215.1 191.5 217.5Z" fill="white"/>
<path d="M180.5 214.5C181.5 216.5 185.1 219.9 191.5 217.5C197.9 215.1 196.5 209.167 195 206.5C197 207.5 201.8 208 205 202C208.2 196 201.667 193.167 198 192.5C198.834 190.833 199.6 187 196 185C192.4 183 188.834 185.833 187.5 187.5C187.167 186.167 185.6 183.4 182 183C178.4 182.6 176.5 185.833 176 187.5C174.834 186.5 171.9 184.8 169.5 186C166.5 187.5 167.5 190 167.5 191.5C165.334 191.333 160.8 191.9 160 195.5C159 200 160.501 202 164 203.5" stroke="black" stroke-width="2"/>
</svg>
