<svg width="570" height="500" viewBox="0 0 570 500" fill="none" xmlns="http://www.w3.org/2000/svg">
<path d="M376.2 112.913C385.95 86.3363 372.9 65.4654 350.4 56.9069C327.9 48.3483 302.85 59.4594 294 81.6817L376.2 112.913Z" fill="white" stroke="black" stroke-width="2" stroke-miterlimit="10" stroke-linecap="round" stroke-linejoin="round"/>
<path d="M215.7 242.793L93 299.85L43.5 193.093L161.25 138.438L215.7 242.793Z" fill="#9EE84C"/>
<path d="M454.35 270.12H265.8V377.628H454.35V270.12Z" fill="white" stroke="black" stroke-width="2" stroke-miterlimit="10" stroke-linecap="round" stroke-linejoin="round"/>
<path d="M437.101 277.928H400.351V358.559H437.101V277.928Z" fill="white" stroke="black" stroke-width="2" stroke-miterlimit="10" stroke-linecap="round" stroke-linejoin="round"/>
<path d="M392.101 277.928H355.351V358.559H392.101V277.928Z" fill="white" stroke="black" stroke-width="2" stroke-miterlimit="10" stroke-linecap="round" stroke-linejoin="round"/>
<path d="M348.3 277.928H311.55V358.559H348.3V277.928Z" fill="white" stroke="black" stroke-width="2" stroke-miterlimit="10" stroke-linecap="round" stroke-linejoin="round"/>
<path d="M209.882 95.7086C213.514 101.89 209.579 105.86 207.157 107.072L196.259 127.527C179.912 132.527 172.646 118.436 179.912 105.254C187.177 92.0723 205.341 87.9814 209.882 95.7086Z" fill="white"/>
<path d="M489.149 270.721L330.899 344.144L237.899 143.544L389.549 73.1231L402.749 84.3844L489.149 270.721Z" fill="#9EE84C"/>
<path d="M492 260.06L181.35 404.354L88.3496 203.604L386.25 65.3153L405.6 73.7237L492 260.06Z" fill="white" stroke="black" stroke-width="2" stroke-miterlimit="10" stroke-linecap="round" stroke-linejoin="round"/>
<path d="M336.75 332.132L243.75 131.531L85.1997 213.664L178.95 415.616L336.75 332.132Z" fill="white" stroke="black" stroke-width="2" stroke-miterlimit="10" stroke-linecap="round" stroke-linejoin="round"/>
<path d="M303.75 145.345L371.1 114.114" stroke="black" stroke-width="2" stroke-miterlimit="10" stroke-linecap="round" stroke-linejoin="round"/>
<path d="M313.95 167.417L381.3 136.036" stroke="black" stroke-width="2" stroke-miterlimit="10" stroke-linecap="round" stroke-linejoin="round"/>
<path d="M324.149 189.339L391.499 158.108" stroke="black" stroke-width="2" stroke-miterlimit="10" stroke-linecap="round" stroke-linejoin="round"/>
<path d="M394.2 197.898C404.25 193.243 414.45 188.589 424.5 183.784" stroke="black" stroke-width="2" stroke-miterlimit="10" stroke-linecap="round" stroke-linejoin="round"/>
<path d="M378.75 205.105C381.75 203.754 384.75 202.252 387.75 200.901" stroke="black" stroke-width="2" stroke-miterlimit="10" stroke-linecap="round" stroke-linejoin="round"/>
<path d="M386.7 222.072L432.3 200.901" stroke="black" stroke-width="2" stroke-miterlimit="10" stroke-linecap="round" stroke-linejoin="round"/>
<path d="M394.649 239.039C404.249 234.535 413.849 230.03 423.599 225.676" stroke="black" stroke-width="2" stroke-miterlimit="10" stroke-linecap="round" stroke-linejoin="round"/>
<path d="M368.34 209.87L318.262 233.121L344.457 289.651L394.534 266.4L368.34 209.87Z" fill="black"/>
<path d="M380.705 82.5826L324.007 108.908L326.847 115.038L383.545 88.7124L380.705 82.5826Z" fill="black"/>
<path d="M342 270.12L347.7 253.904L358.95 255.405L367.65 230.931" stroke="white" stroke-width="2" stroke-miterlimit="10" stroke-linecap="round" stroke-linejoin="round"/>
<path d="M226.417 167.358L86.6626 232.247L136.78 340.402L276.534 275.513L226.417 167.358Z" fill="white" stroke="black" stroke-width="2" stroke-miterlimit="10" stroke-linecap="round" stroke-linejoin="round"/>
<path d="M172.557 213.218L130.372 232.805L145.521 265.497L187.706 245.91L172.557 213.218Z" stroke="black" stroke-width="2" stroke-miterlimit="10" stroke-linecap="round" stroke-linejoin="round"/>
<path d="M178.05 202.553L139.95 276.126" stroke="black" stroke-width="2" stroke-miterlimit="10" stroke-linecap="round" stroke-linejoin="round"/>
<path d="M152.1 279.73L183 265.315" stroke="black" stroke-width="2" stroke-miterlimit="10" stroke-linecap="round" stroke-linejoin="round"/>
<path d="M157.05 290.24L187.8 275.826" stroke="black" stroke-width="2" stroke-miterlimit="10" stroke-linecap="round" stroke-linejoin="round"/>
<path d="M161.85 300.751L192.75 286.336" stroke="black" stroke-width="2" stroke-miterlimit="10" stroke-linecap="round" stroke-linejoin="round"/>
<path d="M307.95 154.354L384.75 118.619C391.95 115.315 400.35 118.468 403.65 125.526C406.95 132.733 403.8 141.141 396.75 144.444L305.25 186.937C298.05 190.24 289.65 187.087 286.35 180.03C283.05 172.823 286.2 164.414 293.25 161.111" stroke="black" stroke-width="2" stroke-miterlimit="10" stroke-linecap="round" stroke-linejoin="round"/>
<path d="M197.55 337.237L273.9 301.652" stroke="black" stroke-width="2" stroke-miterlimit="10" stroke-linecap="round" stroke-linejoin="round"/>
<path d="M202.649 348.198L278.999 312.763" stroke="black" stroke-width="2" stroke-miterlimit="10" stroke-linecap="round" stroke-linejoin="round"/>
<path d="M272.25 329.279C276.15 327.477 280.2 325.676 284.1 323.724" stroke="black" stroke-width="2" stroke-miterlimit="10" stroke-linecap="round" stroke-linejoin="round"/>
<path d="M207.75 359.309C226.5 351.051 246.9 341.592 265.8 332.432" stroke="black" stroke-width="2" stroke-miterlimit="10" stroke-linecap="round" stroke-linejoin="round"/>
<path d="M386.25 65.3153L393.3 80.4805L406.05 74.6246" stroke="black" stroke-width="2" stroke-miterlimit="10" stroke-linecap="round" stroke-linejoin="round"/>
<path d="M309.45 171.471C310.527 171.471 311.4 170.598 311.4 169.52C311.4 168.441 310.527 167.568 309.45 167.568C308.373 167.568 307.5 168.441 307.5 169.52C307.5 170.598 308.373 171.471 309.45 171.471Z" fill="#9EE84C"/>
<path d="M271.8 173.574C274.5 170.571 279 165.916 280.2 168.018C281.4 170.12 274.35 176.577 274.35 176.577" fill="white"/>
<path d="M271.8 173.574C274.5 170.571 279 165.916 280.2 168.018C281.4 170.12 274.35 176.577 274.35 176.577" stroke="black" stroke-width="2" stroke-miterlimit="10" stroke-linecap="round" stroke-linejoin="round"/>
<path d="M199.95 146.547C199.95 146.997 199.8 147.598 199.65 148.048C199.65 148.048 199.65 148.198 199.5 148.348C199.2 149.55 198.45 150.601 197.55 151.502C196.8 152.102 196.05 152.703 195 153.153C194.85 153.303 194.7 153.303 194.55 153.303C194.25 153.453 193.95 153.604 193.5 153.754C191.1 154.655 189 155.856 187.05 157.357C186.45 157.808 185.7 158.258 185.1 158.859C184.8 159.009 184.5 159.309 184.35 159.61C183.75 160.06 183.3 160.661 182.85 161.111C181.8 162.312 180.75 163.363 180 164.715C179.25 165.766 178.65 166.967 178.05 168.018C177.75 168.468 177.6 169.069 177.3 169.52C176.1 172.372 175.35 175.526 175.2 178.679C175.2 179.129 175.2 179.73 175.2 180.18C175.2 183.183 175.65 186.336 176.7 189.339C176.85 189.79 177.15 190.39 177.3 190.841C178.5 193.844 180.45 196.697 182.85 199.249C183.6 200 184.35 200.751 185.25 201.502C186.6 202.703 187.8 206.456 188.55 210.661C188.7 211.111 188.7 211.712 188.85 212.162C189.45 216.066 189.45 219.82 189 221.471C188.7 222.372 188.1 222.222 187.35 221.321C186.45 220.42 185.55 218.619 184.5 216.517C184.95 217.417 186.15 219.82 186.75 221.321C187.05 222.072 187.05 222.523 186.75 222.673C186.15 222.973 185.1 222.222 184.2 221.321C183.15 220.27 182.25 218.769 181.8 218.018C182.25 218.769 183 220.12 183.6 221.321C183.9 221.922 184.05 222.372 184.2 222.823C184.35 223.273 184.35 223.574 184.2 223.574C183.75 223.724 183 223.423 182.1 222.823C181.65 222.523 181.05 222.072 180.6 221.622C178.35 219.67 175.95 216.967 174.6 215.916C173.25 214.715 171.9 213.514 170.7 212.312C170.25 211.862 169.95 211.411 169.5 210.961C166.95 208.108 164.85 204.955 163.05 201.652C162.75 201.201 162.6 200.751 162.3 200.3C162.3 200.15 162.15 200.15 162.15 200C162 199.85 162 199.55 161.85 199.399C160.65 196.697 159.6 193.994 159 191.141C158.85 190.691 158.7 190.09 158.7 189.64C158.1 186.637 157.8 183.483 157.65 180.48C157.65 180.03 157.65 179.429 157.65 178.979C157.65 175.826 158.1 172.823 158.85 169.82C159 169.369 159.15 168.769 159.15 168.318C159.75 165.766 160.65 163.213 161.85 160.811C162.3 159.76 162.9 158.709 163.5 157.658C165.3 154.354 167.7 151.201 170.4 148.348C170.85 147.898 171.3 147.447 171.75 146.997C172.05 146.697 172.35 146.396 172.65 146.246C173.1 145.796 173.55 145.496 173.85 145.195C176.55 142.943 179.7 140.841 183.15 139.189C183.6 139.039 184.05 138.739 184.35 138.589C184.95 138.288 185.55 137.988 186.3 137.838C186.3 137.838 186.3 137.838 186.45 137.838C186.75 137.688 186.9 137.688 187.2 137.538C187.35 137.387 187.65 137.387 187.8 137.237C188.1 137.237 188.25 137.087 188.4 137.087C188.55 137.087 188.85 136.937 189 136.937C189.75 136.787 190.35 136.637 191.1 136.787H191.25C192.9 136.787 194.25 137.387 195.6 138.138C198.45 139.339 200.25 143.093 199.95 146.547Z" fill="white" stroke="black" stroke-width="2" stroke-miterlimit="10" stroke-linecap="round" stroke-linejoin="round"/>
<path d="M174.3 215.465L186.6 203.453" stroke="black" stroke-width="2" stroke-miterlimit="10" stroke-linecap="round" stroke-linejoin="round"/>
<path d="M186.75 292.793L181.35 310.36H205.5C205.5 310.36 210.15 299.55 203.55 299.399L205.65 292.793H186.75Z" fill="white" stroke="black" stroke-width="2" stroke-miterlimit="10" stroke-linecap="round" stroke-linejoin="round"/>
<path d="M185.25 294.745H208.8C218.1 277.778 220.65 257.658 217.35 238.138C215.1 224.775 210 212.012 203.7 200C200.55 193.994 196.8 188.438 193.05 182.733C191.55 180.481 185.55 173.123 187.95 170.27C197.4 159.309 178.35 141.291 172.05 154.354C165.45 168.168 163.95 178.078 170.7 189.64C177.45 201.351 185.55 211.862 190.5 224.625C194.7 235.736 196.2 249.7 194.25 262.763C192.15 277.027 186.6 289.94 185.25 294.745Z" fill="black"/>
<path d="M203.4 292.793L197.4 310.36H224.25C224.25 310.36 229.35 299.55 222 299.399L223.8 293.393L203.4 292.793Z" fill="white" stroke="black" stroke-width="2" stroke-miterlimit="10" stroke-linecap="round" stroke-linejoin="round"/>
<path d="M206.4 225.676C214.95 248.498 215.4 275.976 198 294.745H225.15C234.15 277.928 236.55 258.258 233.25 239.039C231 225.676 225.9 212.913 219.6 200.901C216.45 194.895 212.7 189.339 208.95 183.634C207.45 181.381 201.45 174.024 203.85 171.171C213.3 160.21 197.4 144.294 187.95 155.255C178.8 165.916 179.85 178.979 186.6 190.541C193.5 202.402 201.6 212.913 206.4 225.676Z" fill="black"/>
<path d="M172.5 174.925L177.3 176.727C177.3 176.727 203.55 210.36 208.05 238.589C210.3 253.153 210.3 276.877 203.55 291.592" stroke="white" stroke-width="2" stroke-miterlimit="10" stroke-linecap="round" stroke-linejoin="round"/>
<path d="M222 299.249H218.7" stroke="black" stroke-width="2" stroke-miterlimit="10" stroke-linecap="round" stroke-linejoin="round"/>
<path d="M228.327 122.273C228.327 133.52 219.218 142.636 207.984 142.636C196.751 142.636 187.642 133.52 187.642 122.273C187.642 111.025 196.751 101.909 207.984 101.909C219.218 101.909 228.327 111.025 228.327 122.273Z" fill="white" stroke="black" stroke-width="2"/>
<ellipse rx="0.908603" ry="0.908665" transform="matrix(0.865779 0.500427 -0.499573 0.866272 208.104 125.847)" fill="black"/>
<ellipse rx="0.908609" ry="0.908672" transform="matrix(0.865778 0.500428 -0.499572 0.866273 211.25 127.665)" fill="black"/>
<ellipse rx="0.908611" ry="0.908668" transform="matrix(0.865781 0.500423 -0.499577 0.866269 213.066 124.516)" fill="black"/>
<ellipse rx="0.908609" ry="0.908672" transform="matrix(0.865778 0.500428 -0.499572 0.866273 214.396 129.483)" fill="black"/>
<ellipse rx="0.908606" ry="0.908664" transform="matrix(0.865781 0.500424 -0.499576 0.86627 216.212 126.334)" fill="black"/>
<path d="M216.567 114.897C215.236 113.197 212.877 112.822 211.298 114.061C209.719 115.3 209.518 117.683 210.849 119.383" stroke="black" stroke-width="2"/>
<path d="M221.272 112.484C220.034 110.904 220.311 108.618 221.89 107.379" stroke="black" stroke-width="2"/>
<path d="M203.896 130.434C201.625 131.746 198.64 130.826 197.229 128.378C195.817 125.931 196.37 122.221 198.64 120.909" stroke="black" stroke-width="2"/>
<path d="M215.7 151.652C215.55 152.853 215.25 154.054 214.8 155.105C214.5 155.856 214.2 156.456 213.9 157.207C213.6 157.658 213.45 158.258 213.15 158.709C213.15 158.709 213.15 158.859 213 158.859C211.5 162.012 210.15 165.315 209.25 167.868C209.1 168.468 208.8 168.919 208.65 169.369C208.65 169.519 208.65 169.519 208.5 169.67C207.75 171.922 207.3 173.273 207.3 173.273L205.35 172.673L203.85 172.222L195 169.369L190.2 167.868L184.05 165.916L182.55 165.465L179.7 164.565L173.4 162.613L171.9 162.162L168.15 160.961C168.45 160.21 168.9 159.459 169.2 158.859C169.5 158.408 169.65 157.808 169.95 157.357C170.7 156.006 171.3 154.805 171.9 153.604C172.35 152.703 172.95 151.802 173.4 150.901C174 150 174.45 149.099 175.05 148.198C175.35 147.748 175.65 147.147 176.1 146.697C178.35 143.393 180.45 140.991 182.55 139.339C183 139.039 183.45 138.589 183.9 138.288C184.5 137.838 185.1 137.538 185.7 137.237C185.7 137.237 185.7 137.237 185.85 137.237C186.15 137.087 186.3 137.087 186.6 136.937C186.75 136.787 187.05 136.787 187.2 136.787C187.5 136.787 187.65 136.637 187.8 136.637C187.95 136.637 188.25 136.486 188.4 136.486C189.15 136.336 189.75 136.336 190.5 136.336H190.65C193.05 136.336 195.3 136.787 197.85 137.688C198.3 137.838 200.85 138.739 201.6 139.039C202.35 139.339 203.1 139.64 203.85 139.79C204.45 139.94 204.9 140.24 205.35 140.39C206.4 140.841 207.45 141.291 208.35 141.892C211.2 143.544 213.15 145.195 214.2 146.847C215.55 148.198 215.85 149.85 215.7 151.652Z" fill="white" stroke="black" stroke-width="2" stroke-miterlimit="10" stroke-linecap="round" stroke-linejoin="round"/>
<path d="M261.9 169.97C266.4 168.769 276.3 165.165 277.5 168.168C278.7 171.171 267.9 170.571 269.85 172.072C271.8 173.574 279 165.916 280.2 168.018C281.4 170.12 274.35 176.577 274.35 176.577C274.35 176.577 280.05 170.871 280.35 173.123C280.8 175.525 273.6 180.781 273.6 180.781C273.6 180.781 279.45 175.225 280.35 177.477C281.25 179.73 274.65 187.988 263.25 187.988" fill="white"/>
<path d="M261.9 169.97C266.4 168.769 276.3 165.165 277.5 168.168C278.7 171.171 267.9 170.571 269.85 172.072C271.8 173.574 279 165.916 280.2 168.018C281.4 170.12 274.35 176.577 274.35 176.577C274.35 176.577 280.05 170.871 280.35 173.123C280.8 175.525 273.6 180.781 273.6 180.781C273.6 180.781 279.45 175.225 280.35 177.477C281.25 179.73 274.65 187.988 263.25 187.988" stroke="black" stroke-width="2" stroke-miterlimit="10" stroke-linecap="round" stroke-linejoin="round"/>
<path d="M263.25 187.988C261.75 187.988 260.25 187.988 258.75 187.988C258.3 187.988 257.7 187.988 257.25 187.988C254.25 187.838 251.1 187.538 248.1 187.087C247.65 187.087 247.05 186.937 246.6 186.787C243.45 186.186 240.45 185.586 237.45 184.685C237 184.535 236.4 184.384 235.95 184.234C232.8 183.183 229.8 182.132 226.8 180.781C226.35 180.48 225.75 180.33 225.3 180.03C224.25 179.58 223.35 178.979 222.3 178.529C220.2 177.477 218.1 176.276 216.15 175.075C215.7 174.775 215.1 174.474 214.65 174.174C212.55 172.823 210.6 171.321 208.65 169.82C208.5 169.67 208.35 169.67 208.2 169.52C207.6 169.069 207 168.468 206.4 168.018C206.1 167.718 205.8 167.417 205.35 167.117C204.9 166.667 204.3 166.216 203.85 165.766C202.2 164.264 200.55 162.613 199.05 160.961C198.45 160.21 198 159.61 197.55 158.859C197.25 158.408 197.1 157.808 196.95 157.357C196.35 155.405 196.5 153.453 197.25 151.652C197.7 150.45 198.45 149.399 199.2 148.499C199.2 148.348 199.35 148.348 199.35 148.198C199.95 147.598 200.55 147.147 201.3 146.697C202.05 146.246 202.95 145.796 203.7 145.646C204.15 145.495 204.75 145.496 205.2 145.345C206.7 145.195 208.35 145.646 209.85 146.697C210.45 147.147 211.05 147.598 211.65 148.198C212.55 149.099 213.45 150.15 214.35 150.901C214.65 151.201 214.95 151.502 215.25 151.652C215.4 151.802 215.7 152.102 215.85 152.252C217.8 154.054 219.75 155.706 221.85 157.207C222.6 157.658 223.2 158.258 223.95 158.709C224.25 158.859 224.55 159.159 225 159.309C225.45 159.61 226.05 159.91 226.5 160.21C229.5 162.012 232.5 163.514 235.65 164.865C236.1 165.015 236.7 165.315 237.15 165.465C239.55 166.366 241.8 167.117 244.2 167.718C246.75 168.318 249.15 168.919 251.85 169.219C253.5 169.52 255.15 169.67 256.95 169.67C257.4 169.67 258 169.67 258.45 169.67C259.5 169.67 260.55 169.67 261.45 169.67C261.75 172.523 262.05 175.375 262.2 178.078C262.2 178.529 262.35 179.129 262.35 179.58C262.95 182.583 263.1 185.285 263.25 187.988Z" fill="white" stroke="black" stroke-width="2" stroke-miterlimit="10" stroke-linecap="round" stroke-linejoin="round"/>
<path d="M290.85 160.51H292.8C293.55 160.51 293.85 161.411 293.55 161.862L292.35 163.664C292.2 163.814 292.2 163.964 292.05 163.964L263.25 177.177C262.8 177.327 262.2 177.177 262.05 176.727L261.15 174.925C261 174.474 261.15 173.874 261.6 173.724L290.4 160.51C290.55 160.51 290.7 160.51 290.85 160.51Z" fill="black"/>
<path d="M290.25 87.0871L293.7 89.039" stroke="black" stroke-width="2" stroke-miterlimit="10" stroke-linecap="round" stroke-linejoin="round"/>
<path d="M271.2 108.108L268.5 112.012" stroke="black" stroke-width="2" stroke-miterlimit="10" stroke-linecap="round" stroke-linejoin="round"/>
<path d="M99 322.072L105.6 323.874" stroke="black" stroke-width="2" stroke-miterlimit="10" stroke-linecap="round" stroke-linejoin="round"/>
<path d="M299.1 307.658L293.7 310.21" stroke="black" stroke-width="2" stroke-miterlimit="10" stroke-linecap="round" stroke-linejoin="round"/>
<path d="M293.7 292.793V299.249" stroke="black" stroke-width="2" stroke-miterlimit="10" stroke-linecap="round" stroke-linejoin="round"/>
<path d="M303.75 329.279L309.45 330.48" stroke="black" stroke-width="2" stroke-miterlimit="10" stroke-linecap="round" stroke-linejoin="round"/>
<path d="M313.95 301.502V307.658" stroke="black" stroke-width="2" stroke-miterlimit="10" stroke-linecap="round" stroke-linejoin="round"/>
<path d="M320.1 262.463L317.1 269.219" stroke="black" stroke-width="2" stroke-miterlimit="10" stroke-linecap="round" stroke-linejoin="round"/>
<path d="M468.6 294.745L475.5 295.946" stroke="black" stroke-width="2" stroke-miterlimit="10" stroke-linecap="round" stroke-linejoin="round"/>
<path d="M465 302.402L463.05 307.658" stroke="black" stroke-width="2" stroke-miterlimit="10" stroke-linecap="round" stroke-linejoin="round"/>
<path d="M207.974 107.727C210.396 106.515 214.331 102.545 210.698 96.3636C206.158 88.6363 187.994 92.7272 180.728 105.909C173.463 119.091 180.728 133.182 197.076 128.182" stroke="black" stroke-width="2"/>
<path d="M265.378 143.06L263.194 138.15L264.397 137.614L264.713 138.324C264.737 137.998 264.825 137.715 264.977 137.474C265.132 137.232 265.372 137.039 265.698 136.894C266.052 136.736 266.377 136.687 266.674 136.746C266.972 136.801 267.242 136.951 267.482 137.197C267.53 136.444 267.892 135.916 268.568 135.614C269.07 135.391 269.517 135.385 269.912 135.596C270.307 135.803 270.631 136.188 270.882 136.753L272.313 139.97L271.11 140.506L269.717 137.374C269.446 136.765 269.081 136.564 268.62 136.769C268.617 136.77 268.614 136.772 268.611 136.773C268.323 136.902 268.139 137.117 268.06 137.419C267.982 137.717 268.023 138.046 268.183 138.406L269.447 141.247L268.244 141.783L266.851 138.651C266.58 138.043 266.213 137.842 265.75 138.048C265.747 138.05 265.744 138.051 265.74 138.052C265.452 138.181 265.27 138.396 265.194 138.696C265.116 138.994 265.157 139.323 265.317 139.684L266.581 142.524L265.378 143.06Z" fill="black"/>
<path d="M271.073 134.639L272.365 134.063L274.99 137.091L275.028 137.075L274.569 133.081L275.837 132.516L276.381 140.117L274.286 141.051L273.872 140.12L275.102 139.572L275.028 138.759L271.073 134.639Z" fill="black"/>
<path d="M279.031 136.975L276.117 130.424L277.367 129.867L278.564 132.557L281.171 131.395L279.975 128.705L281.229 128.146L284.143 134.697L282.888 135.256L281.642 132.453L279.034 133.616L280.281 136.418L279.031 136.975Z" fill="black"/>
<path d="M284.343 131.655C284.172 131.269 284.07 130.896 284.037 130.535C284.002 130.171 284.031 129.835 284.123 129.527C284.217 129.215 284.373 128.937 284.591 128.693C284.809 128.45 285.084 128.254 285.416 128.106C285.748 127.958 286.075 127.883 286.398 127.882C286.723 127.88 287.028 127.941 287.313 128.066C287.599 128.187 287.856 128.369 288.085 128.613C288.316 128.855 288.507 129.144 288.656 129.479L288.926 130.086L285.773 131.491L285.918 131.816C286.049 132.11 286.246 132.297 286.51 132.374C286.775 132.448 287.039 132.426 287.302 132.309C287.566 132.191 287.749 132.027 287.854 131.815C287.959 131.603 287.971 131.364 287.891 131.1L289.093 130.564C289.258 131.144 289.216 131.672 288.97 132.146C288.725 132.616 288.303 132.984 287.705 133.251C287.357 133.406 287.017 133.482 286.686 133.479C286.358 133.475 286.048 133.403 285.756 133.262C285.468 133.12 285.203 132.913 284.962 132.641C284.721 132.37 284.515 132.041 284.343 131.655ZM285.357 130.555L287.279 129.699L287.201 129.525C287.081 129.255 286.893 129.076 286.636 128.988C286.379 128.899 286.111 128.917 285.832 129.042C285.557 129.164 285.366 129.351 285.259 129.601C285.153 129.852 285.16 130.112 285.28 130.381L285.357 130.555Z" fill="black"/>
<path d="M291.049 131.619L288.135 125.068L289.338 124.532L292.252 131.083L291.049 131.619Z" fill="black"/>
<path d="M294.464 132.058L291.553 125.512L292.755 124.976L293.05 125.639C293.095 125.326 293.204 125.048 293.378 124.805C293.554 124.561 293.807 124.366 294.136 124.22C294.462 124.074 294.777 124.015 295.081 124.041C295.385 124.067 295.669 124.16 295.932 124.321C296.193 124.479 296.432 124.699 296.648 124.982C296.866 125.261 297.054 125.577 297.211 125.931C297.372 126.292 297.482 126.645 297.541 126.99C297.604 127.334 297.607 127.658 297.551 127.961C297.494 128.264 297.374 128.538 297.19 128.781C297.005 129.025 296.75 129.219 296.424 129.365C296.099 129.51 295.786 129.566 295.487 129.534C295.187 129.503 294.907 129.399 294.644 129.222L295.667 131.522L294.464 132.058ZM294.01 127.797C294.182 128.183 294.407 128.453 294.686 128.607C294.963 128.757 295.294 128.747 295.679 128.575C295.993 128.436 296.201 128.241 296.304 127.993C296.409 127.739 296.397 127.468 296.269 127.18L295.652 125.792C295.524 125.504 295.333 125.315 295.079 125.225C294.825 125.135 294.54 125.161 294.223 125.302C293.838 125.474 293.609 125.715 293.537 126.025C293.464 126.332 293.513 126.678 293.684 127.064L294.01 127.797Z" fill="black"/>
<path d="M299.609 127.804L296.695 121.253L298.908 120.267C299.942 119.806 300.805 119.747 301.497 120.088C302.192 120.428 302.785 121.148 303.274 122.249C303.762 123.346 303.9 124.267 303.687 125.012C303.477 125.755 302.856 126.357 301.822 126.818L299.609 127.804ZM300.388 126.189L301.351 125.76C301.871 125.528 302.224 125.249 302.409 124.922C302.592 124.593 302.587 124.208 302.391 123.769L301.553 121.883C301.359 121.448 301.079 121.189 300.712 121.108C300.345 121.024 299.901 121.098 299.381 121.33L298.418 121.759L300.388 126.189Z" fill="black"/>
<path d="M304.668 122.597C304.496 122.211 304.394 121.838 304.361 121.477C304.327 121.113 304.356 120.777 304.448 120.469C304.541 120.157 304.697 119.879 304.915 119.635C305.134 119.392 305.409 119.196 305.741 119.048C306.073 118.9 306.4 118.825 306.722 118.824C307.048 118.822 307.353 118.883 307.637 119.008C307.923 119.129 308.181 119.311 308.409 119.555C308.641 119.797 308.831 120.086 308.981 120.421L309.25 121.028L306.098 122.433L306.242 122.757C306.373 123.052 306.571 123.238 306.834 123.316C307.099 123.39 307.364 123.368 307.627 123.251C307.89 123.133 308.074 122.969 308.178 122.757C308.283 122.545 308.295 122.306 308.215 122.042L309.418 121.506C309.582 122.086 309.541 122.613 309.294 123.088C309.049 123.558 308.627 123.926 308.029 124.193C307.681 124.348 307.342 124.424 307.01 124.421C306.682 124.417 306.372 124.345 306.081 124.204C305.792 124.062 305.528 123.855 305.287 123.583C305.046 123.311 304.839 122.983 304.668 122.597ZM305.682 121.497L307.603 120.641L307.526 120.467C307.406 120.197 307.217 120.018 306.96 119.93C306.703 119.841 306.436 119.859 306.157 119.984C305.881 120.106 305.69 120.293 305.584 120.543C305.477 120.794 305.484 121.053 305.604 121.323L305.682 121.497Z" fill="black"/>
<path d="M310.36 121.142L311.562 120.606C311.833 121.079 312.239 121.195 312.781 120.954C313.012 120.85 313.191 120.72 313.316 120.563C313.44 120.402 313.46 120.228 313.376 120.04C313.297 119.861 313.172 119.763 313.003 119.744C312.832 119.723 312.626 119.738 312.386 119.788L311.459 119.982C310.559 120.169 309.94 119.883 309.603 119.124C309.508 118.911 309.462 118.695 309.466 118.475C309.473 118.254 309.528 118.04 309.63 117.832C309.733 117.625 309.886 117.431 310.087 117.251C310.287 117.068 310.537 116.91 310.838 116.776C311.396 116.527 311.913 116.458 312.39 116.569C312.867 116.679 313.239 117.002 313.507 117.536L312.304 118.072C312.188 117.846 312.038 117.706 311.853 117.653C311.667 117.597 311.467 117.617 311.254 117.712C311.048 117.804 310.899 117.925 310.808 118.074C310.718 118.219 310.709 118.372 310.78 118.532C310.851 118.692 310.953 118.789 311.085 118.824C311.219 118.855 311.373 118.852 311.548 118.815L312.615 118.593C312.81 118.551 313.004 118.532 313.197 118.536C313.392 118.536 313.574 118.568 313.741 118.632C313.909 118.696 314.061 118.794 314.198 118.925C314.338 119.054 314.456 119.228 314.554 119.448C314.649 119.661 314.692 119.88 314.683 120.106C314.675 120.331 314.615 120.551 314.504 120.766C314.393 120.981 314.229 121.185 314.012 121.38C313.794 121.574 313.523 121.744 313.197 121.889C312.542 122.181 311.972 122.262 311.487 122.133C311 122.001 310.624 121.67 310.36 121.142Z" fill="black"/>
<path d="M316.335 120.35L313.421 113.799L314.624 113.263L317.537 119.814L316.335 120.35ZM316.358 117.111L317.017 114.163L318.44 113.529L317.673 116.525L320.779 118.369L319.44 118.966L316.358 117.111Z" fill="black"/>
</svg>
