<svg width="569" height="472" viewBox="0 0 569 472" fill="none" xmlns="http://www.w3.org/2000/svg">
<path d="M211.878 279.004L235.387 242.443L254.253 252.033L304.116 187.751" stroke="black" stroke-width="2" stroke-miterlimit="10" stroke-linecap="round" stroke-linejoin="round"/>
<path d="M379.134 103.69H168.454V393.933H379.134V103.69Z" stroke="black" stroke-width="2" stroke-miterlimit="10" stroke-linecap="round" stroke-linejoin="round"/>
<path d="M396.054 383.594H277.013V400.825H396.054V383.594Z" fill="black" stroke="black" stroke-width="2" stroke-miterlimit="10" stroke-linecap="round" stroke-linejoin="round"/>
<path d="M322.533 347.632H251.109V364.863H322.533V347.632Z" fill="white" stroke="black" stroke-width="2" stroke-miterlimit="10" stroke-linecap="round" stroke-linejoin="round"/>
<path d="M331.518 312.719H251.109V329.95H331.518V312.719Z" fill="black" stroke="black" stroke-width="2" stroke-miterlimit="10" stroke-linecap="round" stroke-linejoin="round"/>
<path d="M331.518 277.806H251.109V295.037H331.518V277.806Z" fill="black" stroke="black" stroke-width="2" stroke-miterlimit="10" stroke-linecap="round" stroke-linejoin="round"/>
<path d="M320.437 226.26H334.662" stroke="black" stroke-width="2" stroke-miterlimit="10" stroke-linecap="round" stroke-linejoin="round"/>
<path d="M320.437 233.752H334.662" stroke="black" stroke-width="2" stroke-miterlimit="10" stroke-linecap="round" stroke-linejoin="round"/>
<path d="M279.409 85.4095L276.714 64.4318L305.164 70.5752L335.111 40.4572L323.881 87.6572L357.422 104.14L328.373 115.078L336.608 137.105L302.319 129.912L285.398 140.551L280.607 117.026L234.039 94.4L279.409 85.4095Z" fill="#9EE84C"/>
<path d="M203.043 199.439C204.69 198.09 206.487 196.891 208.433 195.693C211.728 193.145 215.022 190.448 218.466 188.051C217.268 186.702 215.621 185.653 213.524 185.054C177.138 174.415 141.801 193.745 128.773 228.808C135.362 231.355 140.303 233.752 147.191 234.502C155.127 213.823 178.187 199.738 199.449 201.087C201.695 199.888 200.947 200.937 203.043 199.439Z" fill="white" stroke="black" stroke-width="2" stroke-miterlimit="10" stroke-linecap="round" stroke-linejoin="round"/>
<path d="M201.246 183.406L201.695 195.693" stroke="black" stroke-width="2" stroke-miterlimit="10" stroke-linecap="round" stroke-linejoin="round"/>
<path d="M299.025 105.338C281.206 88.2565 253.056 88.8559 235.986 106.537C220.712 122.42 219.514 146.695 232.242 163.926C233.739 165.874 235.387 167.822 237.333 169.62C239.28 171.418 241.226 173.067 243.173 174.415C260.842 186.403 284.8 184.155 300.372 168.422C319.239 149.092 316.694 122.42 299.025 105.338ZM295.431 163.777C280.757 178.761 256.799 179.36 241.675 164.825C226.552 150.291 226.103 126.166 240.627 111.032C255.152 95.8984 279.259 95.4489 294.383 109.984C309.506 124.668 311.752 147.294 295.431 163.777Z" fill="white" stroke="black" stroke-width="2" stroke-miterlimit="10" stroke-linecap="round" stroke-linejoin="round"/>
<path d="M241.226 146.545C237.932 136.655 240.328 125.417 247.665 117.775" stroke="black" stroke-width="2" stroke-miterlimit="10" stroke-linecap="round" stroke-linejoin="round"/>
<path d="M248.414 157.933C247.366 156.884 246.317 155.835 245.419 154.636" stroke="black" stroke-width="2" stroke-miterlimit="10" stroke-linecap="round" stroke-linejoin="round"/>
<path d="M243.023 174.415L188.669 231.055L177.738 220.566L232.092 164.076C233.59 166.024 235.237 167.972 237.183 169.77C238.98 171.418 241.077 173.067 243.023 174.415Z" fill="white" stroke="black" stroke-width="2" stroke-miterlimit="10" stroke-linecap="round" stroke-linejoin="round"/>
<path d="M235.295 182.536L224.394 172.046L217.647 179.066L228.548 189.557L235.295 182.536Z" stroke="black" stroke-width="2" stroke-miterlimit="10" stroke-linecap="round" stroke-linejoin="round"/>
<path d="M243.772 398.428L212.776 398.278C212.776 398.278 213.225 383.444 212.776 376.251C212.477 369.059 234.188 372.655 234.188 372.655L235.087 389.587C235.237 389.587 243.772 390.936 243.772 398.428Z" fill="white" stroke="black" stroke-width="2" stroke-miterlimit="10" stroke-linecap="round" stroke-linejoin="round"/>
<path d="M235.536 386.141L228.648 386.291" stroke="black" stroke-width="2" stroke-miterlimit="10" stroke-linecap="round" stroke-linejoin="round"/>
<path d="M235.536 388.538L228.648 388.688" stroke="black" stroke-width="2" stroke-miterlimit="10" stroke-linecap="round" stroke-linejoin="round"/>
<path d="M46.5682 402.324L38.4824 372.356C38.4824 372.356 52.8572 368.909 59.7451 366.662C66.6329 364.414 68.879 386.59 68.879 386.59L52.7074 391.835C52.8572 391.835 53.6058 400.376 46.5682 402.324Z" fill="white" stroke="black" stroke-width="2" stroke-miterlimit="10" stroke-linecap="round" stroke-linejoin="round"/>
<path d="M56.1512 391.236L54.2046 384.643" stroke="black" stroke-width="2" stroke-miterlimit="10" stroke-linecap="round" stroke-linejoin="round"/>
<path d="M53.9056 391.835L51.959 385.242" stroke="black" stroke-width="2" stroke-miterlimit="10" stroke-linecap="round" stroke-linejoin="round"/>
<path d="M212.327 288.145C192.262 264.17 159.769 259.825 130.421 260.874C124.88 261.024 122.185 255.929 120.388 259.975C119.64 261.173 117.843 270.763 117.543 272.561C109.158 307.774 97.7781 354.375 57.7983 364.863C61.6915 372.505 65.1354 380.447 68.5794 388.239C112.602 374.753 129.822 327.703 140.303 286.197C160.218 286.347 181.182 289.793 194.209 306.126C209.931 325.905 210.081 353.026 210.081 377.15H235.536C235.536 345.834 233.29 313.318 212.327 288.145Z" fill="black"/>
<path d="M141.951 284.399L150.635 279.154" stroke="white" stroke-width="2" stroke-miterlimit="10" stroke-linecap="round" stroke-linejoin="round"/>
<path d="M209.183 184.305C212.477 185.354 215.472 186.253 215.022 188.5C214.423 190.748 206.487 188.051 206.487 188.051" fill="white"/>
<path d="M209.183 184.305C212.477 185.354 215.472 186.253 215.022 188.5C214.423 190.748 206.487 188.051 206.487 188.051" stroke="black" stroke-width="2" stroke-miterlimit="10" stroke-linecap="round" stroke-linejoin="round"/>
<path d="M134.614 225.062L134.764 220.716L148.989 221.316L147.791 226.56" fill="white"/>
<path d="M134.614 225.062L134.764 220.716L148.989 221.316L147.791 226.56" stroke="black" stroke-width="2" stroke-miterlimit="10" stroke-linecap="round" stroke-linejoin="round"/>
<path d="M138.357 225.511C121.137 224.912 119.041 231.655 116.346 265.069L156.775 264.62C156.775 264.62 158.422 254.88 159.021 244.841C159.62 234.202 161.566 226.41 138.357 225.511Z" fill="white" stroke="black" stroke-width="2" stroke-miterlimit="10" stroke-linecap="round" stroke-linejoin="round"/>
<path d="M117.993 257.727H157.673" stroke="black" stroke-width="2" stroke-miterlimit="10" stroke-linecap="round" stroke-linejoin="round"/>
<path d="M118.143 248.137H133.416" stroke="black" stroke-width="2" stroke-miterlimit="10" stroke-linecap="round" stroke-linejoin="round"/>
<path d="M119.64 238.547H131.169" stroke="black" stroke-width="2" stroke-miterlimit="10" stroke-linecap="round" stroke-linejoin="round"/>
<path d="M124.581 228.957H154.978" stroke="black" stroke-width="2" stroke-miterlimit="10" stroke-linecap="round" stroke-linejoin="round"/>
<path d="M123.383 265.069V230.156" stroke="black" stroke-width="2" stroke-miterlimit="10" stroke-linecap="round" stroke-linejoin="round"/>
<path d="M133.116 265.069V225.661" stroke="black" stroke-width="2" stroke-miterlimit="10" stroke-linecap="round" stroke-linejoin="round"/>
<path d="M142.699 264.919V225.811" stroke="black" stroke-width="2" stroke-miterlimit="10" stroke-linecap="round" stroke-linejoin="round"/>
<path d="M152.283 264.77V227.759" stroke="black" stroke-width="2" stroke-miterlimit="10" stroke-linecap="round" stroke-linejoin="round"/>
<circle cx="148.5" cy="201.5" r="24.5" fill="white" stroke="black" stroke-width="2"/>
<path d="M150 184C151.333 182.167 153.4 177.4 151 173C148 167.5 138.5 167 135 167.5C131.5 168 114.5 173.5 116.5 190.5C117.667 188.667 120.7 184.8 123.5 184C126.3 183.2 129 184.333 130 185" stroke="black" stroke-width="2"/>
<path d="M220.862 195.992L210.38 202.735V209.928L219.964 210.977L222.958 202.735L220.862 195.992Z" fill="white"/>
<path d="M224.755 195.992C226.103 198.69 221.76 202.735 221.76 202.735L224.755 195.992Z" fill="white"/>
<path d="M224.755 195.992C226.103 198.69 221.76 202.735 221.76 202.735" stroke="black" stroke-width="2" stroke-miterlimit="10" stroke-linecap="round" stroke-linejoin="round"/>
<path d="M222.958 206.931C225.354 204.533 227.151 201.237 224.905 198.69L222.958 206.931Z" fill="white"/>
<path d="M222.958 206.931C225.354 204.533 227.151 201.237 224.905 198.69" stroke="black" stroke-width="2" stroke-miterlimit="10" stroke-linecap="round" stroke-linejoin="round"/>
<path d="M204.541 201.387C207.086 195.693 210.081 189.25 211.578 190.298C213.076 191.347 211.578 198.39 213.674 198.69C215.771 198.989 224.306 190.448 224.905 193.445C225.504 196.442 219.215 199.139 219.215 199.139" fill="white"/>
<path d="M204.541 201.387C207.086 195.693 210.081 189.25 211.578 190.298C213.076 191.347 211.578 198.39 213.674 198.69C215.771 198.989 224.306 190.448 224.905 193.445C225.504 196.442 219.215 199.139 219.215 199.139" stroke="black" stroke-width="2" stroke-miterlimit="10" stroke-linecap="round" stroke-linejoin="round"/>
<path d="M204.541 201.387C195.257 225.661 168.903 237.948 144.047 230.756C131.02 227.01 125.48 247.238 138.507 250.984C174.893 261.473 210.081 242.144 223.108 206.931C216.969 205.882 209.482 204.533 204.541 201.387Z" fill="white" stroke="black" stroke-width="2" stroke-miterlimit="10" stroke-linecap="round" stroke-linejoin="round"/>
<path d="M338.577 262.379L335.038 254.116L326.781 257.657L330.32 265.92L338.577 262.379Z" fill="black"/>
<path d="M122 171L125.743 173.997" stroke="black" stroke-width="2" stroke-miterlimit="10" stroke-linecap="round" stroke-linejoin="round"/>
<path d="M161.865 355.873L156.175 358.87" stroke="black" stroke-width="2" stroke-miterlimit="10" stroke-linecap="round" stroke-linejoin="round"/>
<path d="M122.484 384.792L126.677 388.838" stroke="black" stroke-width="2" stroke-miterlimit="10" stroke-linecap="round" stroke-linejoin="round"/>
<path d="M335.859 269.714L338.854 274.659" stroke="black" stroke-width="2" stroke-miterlimit="10" stroke-linecap="round" stroke-linejoin="round"/>
<path d="M396.952 324.856L392.46 327.103" stroke="black" stroke-width="2" stroke-miterlimit="10" stroke-linecap="round" stroke-linejoin="round"/>
<path d="M385.722 365.613L387.968 369.359" stroke="black" stroke-width="2" stroke-miterlimit="10" stroke-linecap="round" stroke-linejoin="round"/>
<path d="M263.836 74.6209L257.847 67.8781" stroke="black" stroke-width="2" stroke-miterlimit="10" stroke-linecap="round" stroke-linejoin="round"/>
<path d="M264.585 55.8908L269.826 73.1225" stroke="black" stroke-width="2" stroke-miterlimit="10" stroke-linecap="round" stroke-linejoin="round"/>
<path d="M334.961 73.1225L338.704 67.8781" stroke="black" stroke-width="2" stroke-miterlimit="10" stroke-linecap="round" stroke-linejoin="round"/>
<path d="M329.122 384.043H360.117C360.117 384.043 360.117 369.209 360.566 362.017C361.016 354.824 338.106 365.763 338.106 365.763L337.956 374.753C337.956 374.753 329.271 376.551 329.122 384.043Z" fill="white" stroke="black" stroke-width="2" stroke-miterlimit="10" stroke-linecap="round" stroke-linejoin="round"/>
<path d="M337.657 371.307L344.545 371.606" stroke="black" stroke-width="2" stroke-miterlimit="10" stroke-linecap="round" stroke-linejoin="round"/>
<path d="M337.657 373.704L344.545 374.004" stroke="black" stroke-width="2" stroke-miterlimit="10" stroke-linecap="round" stroke-linejoin="round"/>
<path d="M502.068 399.777L528.571 383.594C528.571 383.594 520.635 371.157 517.191 364.864C513.747 358.57 496.977 372.805 496.977 372.805L505.062 387.789C504.913 387.789 498.324 393.483 502.068 399.777Z" fill="white" stroke="black" stroke-width="2" stroke-miterlimit="10" stroke-linecap="round" stroke-linejoin="round"/>
<path d="M502.816 385.092L508.806 381.646" stroke="black" stroke-width="2" stroke-miterlimit="10" stroke-linecap="round" stroke-linejoin="round"/>
<path d="M504.014 387.04L510.004 383.594" stroke="black" stroke-width="2" stroke-miterlimit="10" stroke-linecap="round" stroke-linejoin="round"/>
<path d="M519.288 366.212C496.827 328.302 477.062 288.894 460.441 247.987C457.895 241.544 451.906 237.049 444.719 239.147C439.777 240.495 435.136 245.89 435.136 251.284C389.316 270.314 335.71 311.82 336.459 365.912H361.914C361.914 323.357 407.434 289.793 443.67 275.109C443.82 275.109 443.97 274.959 444.269 274.809C459.393 309.872 476.463 343.886 495.929 376.701C503.715 373.105 511.501 369.658 519.288 366.212Z" fill="white" stroke="black" stroke-width="2" stroke-miterlimit="10" stroke-linecap="round" stroke-linejoin="round"/>
<path d="M440.526 225.961C435.585 240.945 416.119 236.599 405.488 232.104C400.546 230.006 394.856 234.352 393.509 238.847C391.861 244.391 395.455 248.736 400.247 250.834C422.258 260.124 450.858 256.678 459.243 231.055C463.286 219.218 444.419 214.123 440.526 225.961Z" fill="black"/>
<path d="M365.657 100.993C344.245 72.673 309.207 70.8749 283.751 90.5041C258.296 110.133 253.654 146.994 273.27 172.467C290.939 195.243 322.234 201.387 346.791 188.201C349.636 186.702 352.481 184.904 355.176 182.806C357.871 180.709 360.267 178.461 362.513 176.063C381.529 155.685 383.177 124.069 365.657 100.993ZM350.085 176.213C332.116 190.149 307.559 189.849 290.19 176.963C286.596 174.265 283.152 171.119 280.307 167.373C263.537 145.646 267.43 114.329 289.142 97.3968C310.854 80.6146 340.651 82.113 359.069 106.237C375.54 128.114 371.797 159.281 350.085 176.213Z" fill="white" stroke="black" stroke-width="2" stroke-miterlimit="10" stroke-linecap="round" stroke-linejoin="round"/>
<path d="M326.127 173.217C319.389 174.415 312.501 173.666 306.212 171.269" stroke="black" stroke-width="2" stroke-miterlimit="10" stroke-linecap="round" stroke-linejoin="round"/>
<path d="M342.298 166.024C340.801 167.223 339.154 168.272 337.507 169.171" stroke="black" stroke-width="2" stroke-miterlimit="10" stroke-linecap="round" stroke-linejoin="round"/>
<path d="M425.552 257.427L409.83 269.564L346.94 188.35C349.785 186.852 352.63 185.054 355.326 182.956C358.021 180.858 360.417 178.611 362.663 176.213L425.552 257.427Z" fill="white" stroke="black" stroke-width="2" stroke-miterlimit="10" stroke-linecap="round" stroke-linejoin="round"/>
<path d="M371.5 187.877L355.874 199.987L363.667 210.057L379.294 197.946L371.5 187.877Z" fill="white" stroke="black" stroke-width="2" stroke-miterlimit="10" stroke-linecap="round" stroke-linejoin="round"/>
<path d="M446.665 215.771C435.135 216.671 424.953 235.251 431.691 240.495V258.177L466.88 251.733C466.88 251.733 466.73 246.639 464.184 235.551C461.339 222.514 460.141 214.723 446.665 215.771Z" fill="black"/>
<path d="M432.291 239.596L432.74 247.688" stroke="white" stroke-width="2" stroke-miterlimit="10" stroke-linecap="round" stroke-linejoin="round"/>
<path d="M373.743 225.361L367.754 228.658L372.695 242.144L387.519 238.697L386.172 229.857L381.829 232.254L373.743 225.361Z" fill="white"/>
<path d="M459.093 228.208C458.195 215.771 438.729 215.622 439.627 228.208C440.825 243.342 430.793 257.128 415.071 257.577C402.193 257.877 392.61 248.437 388.417 236.899C382.278 238.847 377.037 240.345 370.749 242.144C375.69 262.072 393.359 277.506 415.071 277.057C440.825 276.457 461.19 253.981 459.093 228.208Z" fill="black" stroke="black" stroke-width="2" stroke-miterlimit="10" stroke-linecap="round" stroke-linejoin="round"/>
<path d="M370.898 224.163C368.502 225.511 371.497 233.603 371.497 233.603C371.497 233.603 369.401 225.361 367.604 226.41C365.807 227.459 368.652 234.352 370.898 242.144" fill="white"/>
<path d="M370.898 224.163C368.502 225.511 371.497 233.603 371.497 233.603C371.497 233.603 369.401 225.361 367.604 226.41C365.807 227.459 368.652 234.352 370.898 242.144" stroke="black" stroke-width="2" stroke-miterlimit="10" stroke-linecap="round" stroke-linejoin="round"/>
<path d="M388.417 236.899C387.818 230.756 387.968 223.713 385.572 225.062C383.177 226.41 384.225 234.651 378.535 229.257C373.743 224.462 374.192 222.514 371.796 223.413C369.401 224.312 375.54 231.954 375.54 231.954" fill="white"/>
<path d="M388.417 236.899C387.818 230.756 387.968 223.713 385.572 225.062C383.177 226.41 384.225 234.651 378.535 229.257C373.743 224.462 374.192 222.514 371.796 223.413C369.401 224.312 375.54 231.954 375.54 231.954" stroke="black" stroke-width="2" stroke-miterlimit="10" stroke-linecap="round" stroke-linejoin="round"/>
<path d="M429.295 251.434C435.734 246.039 439.477 238.098 443.221 229.857" stroke="white" stroke-width="2" stroke-miterlimit="10" stroke-linecap="round" stroke-linejoin="round"/>
<path d="M459.991 235.85C459.243 241.844 454.301 253.382 454.301 253.382" stroke="white" stroke-width="2" stroke-miterlimit="10" stroke-linecap="round" stroke-linejoin="round"/>
<circle cx="443" cy="197" r="25" fill="white" stroke="black" stroke-width="2"/>
<circle r="1" transform="matrix(-0.683784 0.729684 0.729684 0.683784 439.803 200.149)" fill="black"/>
<circle r="1" transform="matrix(-0.683784 0.729684 0.729684 0.683784 437.067 203.067)" fill="black"/>
<circle r="1" transform="matrix(-0.683784 0.729684 0.729684 0.683784 434.148 200.332)" fill="black"/>
<circle r="1" transform="matrix(-0.683784 0.729684 0.729684 0.683784 434.332 205.986)" fill="black"/>
<circle r="1" transform="matrix(-0.683784 0.729684 0.729684 0.683784 431.414 203.251)" fill="black"/>
<path d="M456.407 199.108C456.669 201.751 454.892 204.092 452.437 204.335C449.982 204.578 449.033 195.005 451.488 194.762C453.943 194.518 456.145 196.464 456.407 199.108Z" fill="white"/>
<path d="M447 204.333C449.393 204.931 451.856 203.327 452.5 200.75C453.145 198.173 451.727 195.599 449.334 195" stroke="black" stroke-width="2"/>
<path d="M424.704 203.081C424.451 203.912 422.463 204.445 421 204C419.537 203.555 418.5 202 418.5 201" stroke="black" stroke-width="2" stroke-miterlimit="10" stroke-linecap="round" stroke-linejoin="round"/>
<path d="M365.657 213.224C363.711 215.322 367.754 222.065 370.599 222.215C373.594 222.514 374.492 220.417 372.995 219.218C371.946 218.319 368.203 218.918 368.203 218.918C368.203 218.918 372.396 217.869 371.198 215.921C370 213.973 366.256 215.771 366.256 215.771C366.256 215.771 370.449 215.172 369.85 213.524C369.251 212.025 367.155 211.726 365.657 213.224Z" fill="white" stroke="black" stroke-width="2" stroke-miterlimit="10" stroke-linecap="round" stroke-linejoin="round"/>
<path d="M142.155 211.749C139.655 213.193 136.369 212.18 134.814 209.488C133.26 206.796 134.027 203.443 136.527 202" stroke="black" stroke-width="2"/>
<path d="M160.764 193.148C159.401 191.41 156.887 191.105 155.148 192.467C153.41 193.83 153.105 196.344 154.467 198.083" stroke="black" stroke-width="2"/>
<path d="M164.467 189.083C163.105 187.344 163.41 184.83 165.148 183.467" stroke="black" stroke-width="2"/>
<path d="M166.765 206H163.369C161.851 206 160.886 204.375 161.613 203.042L163.758 199.11C164.601 197.565 166.886 197.784 167.42 199.462L168.671 203.394C169.081 204.683 168.118 206 166.765 206Z" fill="black"/>
<path d="M165.066 204.5H164.314C163.527 204.5 163.048 203.632 163.469 202.966L163.943 202.214C164.386 201.513 165.441 201.625 165.727 202.403L166.004 203.154C166.245 203.807 165.762 204.5 165.066 204.5Z" fill="white"/>
<path d="M154.182 163.939L146.928 147L130 154.26L137.255 171.199L154.182 163.939Z" fill="white" stroke="black" stroke-width="2" stroke-miterlimit="10" stroke-linecap="round" stroke-linejoin="round"/>
<circle cx="431" cy="194" r="3" fill="black"/>
<circle cx="420.5" cy="190.5" r="2.5" fill="black"/>
<path d="M434.5 180C430 179.167 421.3 175.6 422.5 168C424 158.5 432 160.5 436.5 161C441 161.5 448.5 164.5 454 156C459.5 147.5 464.5 143.5 477.5 143.5C490.5 143.5 503 148 507.5 162C512 176 505.5 204 474 203" stroke="black" stroke-width="2"/>
</svg>
