<svg width="477" height="381" viewBox="0 0 477 381" fill="none" xmlns="http://www.w3.org/2000/svg">
<path fill-rule="evenodd" clip-rule="evenodd" d="M149.332 66.3704C147.854 58.4514 146.764 52.857 146.061 49.5836C144.58 42.695 143.547 37.6734 142.894 34.0318C144.12 33.415 145.244 32.7408 146.118 32.0945C147.998 30.7051 147.83 27.8458 146.293 25.4695C145.604 24.4031 144.725 23.6186 143.831 23.3501C142.703 23.0118 141.68 23.5125 141.054 24.7541C140.464 25.9221 140.498 28.1348 141.375 33.2576C140.438 33.6877 139.465 34.0726 138.525 34.3721C138.066 32.6048 137.694 31.3294 137.407 30.5444C136.449 27.9243 134.508 26.0921 132.671 26.1033C130.545 26.1164 129.453 28.3685 129.839 32.0625C130.233 35.8403 133.089 37.0236 137.281 36.1123C137.371 36.0926 137.462 36.0718 137.554 36.0501C139.04 42.0052 141.316 52.4456 144.372 67.3345L135.693 69.0215C128.003 52.7547 123.504 41.2519 122.194 34.513C120.229 24.4047 124.717 17.9238 136.972 15.4741C149.227 13.0243 154.432 20.5014 155.883 27.9644C156.85 32.9398 157.582 45.1749 158.08 64.67L149.332 66.3704ZM148.002 66.629L145.702 67.0759C142.637 52.1411 140.359 41.6907 138.86 35.6882C139.77 35.4018 140.708 35.0406 141.619 34.6355C142.279 38.2692 143.298 43.1798 144.736 49.8679C145.437 53.1276 146.525 58.7159 148.002 66.629ZM142.264 25.3655C142.606 24.6868 142.972 24.5077 143.442 24.6488C143.982 24.8107 144.625 25.3857 145.156 26.2055C146.353 28.057 146.475 30.1444 145.313 31.004C144.586 31.5414 143.663 32.1044 142.651 32.6329C141.912 28.2432 141.837 26.2103 142.264 25.3655ZM136.992 34.7874C133.487 35.5496 131.478 34.7173 131.187 31.9224C130.873 28.9147 131.575 27.4658 132.68 27.4591C133.848 27.4519 135.353 28.8719 136.134 31.0096C136.41 31.7651 136.773 33.0076 137.221 34.7357C137.144 34.7537 137.068 34.771 136.992 34.7874Z" fill="#9EE84C"/>
<path fill-rule="evenodd" clip-rule="evenodd" d="M72.8667 185.712C46.6612 176.794 28.1404 170.388 17.3045 166.493C17.3701 166.363 17.407 166.216 17.407 166.061V149.15L24.4729 144.263C24.692 144.112 24.8285 143.886 24.8719 143.643L104.408 157.851C104.232 158.172 104.248 158.58 104.483 158.891C108.132 163.737 111.62 167.588 114.954 170.445L103.526 164.811C103.027 164.565 102.508 164.362 101.974 164.204C98.5856 163.198 96.7112 162.807 95.877 163.033C94.6826 163.357 93.4792 164.128 92.2273 165.258C91.3622 166.039 90.6502 166.808 89.6475 167.978C87.8442 170.083 87.2099 172.245 87.7811 174.359C85.3456 173.896 83.0776 174.6 81.0662 176.46C78.8827 178.48 78.1444 180.839 78.8811 183.39C76.3955 183.259 74.3655 184.029 72.8667 185.712ZM117.943 172.768C122.017 175.606 128.485 179.122 137.362 183.329L108.409 219.529L121.079 254.238L150.409 348.251H133.231C133.529 350.095 133.68 352.013 133.68 353.962C133.68 364.07 130.01 371.77 122.54 376.337C118.307 378.925 111.76 380.842 106.8 380.842C100.475 380.842 94.9391 378.488 89.8067 374.019C83.6431 368.651 79.92 361.533 79.92 353.962C79.92 351.996 80.1516 350.097 80.6065 348.251H67.68L70.5075 254.238V221.904C70.5075 220.37 71.0514 218.887 72.0424 217.716L81.8475 206.138L87.6369 212.04C89.4181 213.855 92.123 214.408 94.4738 213.437C95.5936 212.975 96.6336 212.222 97.5934 211.191C99.5047 209.136 100.25 206.689 99.8304 203.928C102.498 204.674 104.876 203.975 106.819 201.831C108.641 199.823 109.169 197.44 108.421 194.793C111.309 195.181 113.737 194.429 115.622 192.522C118.048 190.066 118.097 186.772 115.901 182.883C115.81 182.721 115.697 182.571 115.567 182.438L112.472 179.262L117.739 173.157C117.84 173.04 117.908 172.907 117.943 172.768ZM304.69 170.493L386.875 122.753L405.306 96.0245C405.396 95.9536 405.486 95.884 405.574 95.8157C405.941 96.1784 406.319 96.5285 406.705 96.8653C408.451 98.3876 410.339 99.6527 412.414 100.538C411.948 102.747 410.661 106.48 408.553 111.736L405.502 116.552C405.219 117 405.352 117.593 405.8 117.877C406.248 118.161 406.841 118.028 407.124 117.58L410.194 112.734L423.416 110.906C424.325 106.859 425.174 103.486 425.962 100.787C427.84 100.196 429.611 99.4216 430.992 98.5763C432.907 97.4037 434.46 95.9658 435.678 94.3013C435.895 94.8207 436.003 95.395 435.975 95.9945L434.873 120.185H425.52C424.99 120.185 424.56 120.615 424.56 121.145C424.56 121.676 424.99 122.105 425.52 122.105H435.452C443.471 122.792 448.516 123.136 450.587 123.136C452.917 123.136 454.891 124.853 455.215 127.16C455.499 129.184 454.442 131.087 452.72 131.97L430.427 131.845C429.896 131.842 429.464 132.269 429.461 132.799C429.458 133.33 429.886 133.762 430.416 133.765L450.55 133.878C452.634 134.368 453.97 134.944 454.557 135.605C455.199 136.326 455.569 137.25 455.602 138.216C455.68 140.501 453.89 142.417 451.605 142.495L398.607 144.304L315.938 193.745L304.871 179.943V171.054C304.871 170.845 304.804 170.651 304.69 170.493ZM314.274 194.74L308.471 198.21C304.509 200.579 299.504 200.296 295.835 197.494L291.455 194.149C291.492 194.121 291.527 194.091 291.561 194.057L303.834 181.719L314.274 194.74ZM90.9939 112.176L24.8867 111.007C24.8908 110.785 24.818 110.56 24.6646 110.376L17.407 101.661V85.162H107.447C98.9794 89.9198 93.4892 98.9533 90.9939 112.176ZM133.987 73.7693L133.687 71.5582C133.516 70.2976 134.359 69.1225 135.608 68.8798L159.178 64.2981C160.433 64.0542 161.659 64.8368 161.966 66.0779L162.703 69.0581L134.214 73.703C134.134 73.716 134.058 73.7386 133.987 73.7693ZM179.313 169.691L188.675 239.242L218.909 348.251H194.16V371.482C194.16 376.651 189.969 380.842 184.8 380.842C179.631 380.842 175.44 376.651 175.44 371.482V348.251H155.006L159.732 242.748L148.332 185.378C151.119 179.411 155.42 175.146 161.263 172.55C165.042 170.87 170.893 169.962 178.789 169.855C178.983 169.853 179.163 169.793 179.313 169.691ZM15.487 165.837C9.64042 163.718 6.4527 162.469 5.92387 162.088C2.41445 159.559 0 155.447 0 150.549V149.607H15.487V165.837ZM0 147.687V102.969H15.9972L23.1892 111.605C23.3789 111.833 23.6519 111.95 23.9269 111.951V142.514C23.7383 142.514 23.5477 142.569 23.3808 142.684L16.1474 147.687H0ZM0 101.049V99.4278C0 94.5298 2.41445 90.4173 5.92387 87.889C8.45078 86.0685 11.4259 85.162 14.4 85.162H15.487V101.049H0ZM177.36 348.251V371.482C177.36 375.591 180.691 378.922 184.8 378.922C188.909 378.922 192.24 375.591 192.24 371.482V348.251H177.36ZM131.283 348.251H121.833C122.368 350.014 122.64 351.96 122.64 353.962C122.64 359.898 120.469 364.454 116.049 367.156C113.556 368.68 109.724 369.802 106.8 369.802C103.063 369.802 99.7927 368.412 96.776 365.784C93.1538 362.63 90.96 358.436 90.96 353.962C90.96 351.952 91.3696 350.06 92.1614 348.251H82.59C82.0924 350.095 81.84 351.993 81.84 353.962C81.84 360.936 85.2978 367.546 91.0677 372.571C95.87 376.753 100.971 378.922 106.8 378.922C111.399 378.922 117.601 377.106 121.539 374.699C128.392 370.509 131.76 363.443 131.76 353.962C131.76 352.004 131.599 350.084 131.283 348.251ZM94.2866 348.251C93.3562 350.064 92.88 351.946 92.88 353.962C92.88 357.838 94.8085 361.525 98.037 364.336C100.724 366.676 103.56 367.882 106.8 367.882C109.364 367.882 112.851 366.861 115.048 365.518C118.851 363.193 120.72 359.271 120.72 353.962C120.72 351.923 120.409 349.96 119.814 348.251H94.2866ZM400.275 127.343C407.545 125.118 414.005 127.897 419.818 135.853C420.131 136.281 420.732 136.375 421.16 136.062C421.588 135.749 421.681 135.148 421.369 134.72C415.106 126.149 407.834 123.021 399.713 125.507C399.206 125.663 398.921 126.199 399.076 126.706C399.232 127.213 399.768 127.498 400.275 127.343ZM90.3167 175.334C89.0191 173.343 89.2541 171.388 91.1054 169.228C93.2378 166.739 94.8237 165.308 96.3798 164.886C96.693 164.801 98.5338 165.186 101.428 166.044C101.858 166.172 102.276 166.335 102.678 166.534L115.475 172.842L111.045 177.977L106.119 173.616C105.722 173.265 105.115 173.301 104.764 173.698C104.412 174.095 104.449 174.702 104.846 175.053L110.81 180.333C110.843 180.363 110.878 180.389 110.913 180.413L114.192 183.778C114.207 183.793 114.219 183.809 114.229 183.827C116.041 187.034 116.005 189.402 114.256 191.172C112.579 192.87 110.36 193.374 107.47 192.658C107.424 192.568 107.364 192.484 107.289 192.409L90.3167 175.334ZM89.0147 176.748L105.936 193.772C105.961 193.797 105.988 193.82 106.016 193.842C106.024 193.865 106.034 193.888 106.044 193.91C107.28 196.567 107.055 198.713 105.397 200.541C103.625 202.495 101.547 202.82 98.9012 201.515C98.8518 201.491 98.802 201.471 98.7522 201.456C98.7179 201.404 98.678 201.354 98.6324 201.308L81.189 184.026C80.0137 181.67 80.3906 179.701 82.37 177.87C84.3597 176.029 86.5142 175.663 89.0147 176.748ZM79.8769 185.429L97.2668 202.658C97.3726 202.765 97.4974 202.842 97.6304 202.889C98.4611 205.669 97.9803 207.956 96.1877 209.883C95.408 210.721 94.5925 211.311 93.7408 211.663C92.1133 212.335 90.2407 211.952 89.0076 210.695L74.5327 195.939C72.1687 193.529 72.0162 189.72 74.1801 187.129C75.4744 185.579 77.3296 185.005 79.8769 185.429Z" fill="#212121"/>
<rect width="52.0196" height="53.9012" rx="6" transform="matrix(0.818271 -0.548073 0.56981 0.831151 388.716 54.1485)" fill="white" stroke="black" stroke-width="2" stroke-miterlimit="10" stroke-linecap="round" stroke-linejoin="round"/>
<ellipse rx="11.5599" ry="11.9781" transform="matrix(0.818271 -0.548073 0.56981 0.831151 431.239 31.7476)" fill="black"/>
<path d="M427.228 16.5471L427.467 4.61865" stroke="black" stroke-width="2" stroke-miterlimit="10" stroke-linecap="round" stroke-linejoin="round"/>
<path d="M442.343 18.7155L447.368 13.4922" stroke="black" stroke-width="2" stroke-miterlimit="10" stroke-linecap="round" stroke-linejoin="round"/>
<path fill-rule="evenodd" clip-rule="evenodd" d="M163.781 70.5435L132.781 75.5435L134.669 84.9832C133.907 84.6509 132.075 84.1759 128.281 83.5435C121.081 82.3435 114.281 84.3769 111.781 85.5435C106.448 88.2102 95.281 97.4435 93.281 113.044C91.281 128.644 100.448 148.21 105.281 156.044C107.614 159.21 113.581 166.644 118.781 171.044C123.981 175.444 133.281 179.877 137.281 181.544H146.781C152.781 174.544 154.781 173.044 160.781 170.044C165.581 167.644 174.781 166.71 178.781 166.544C203.581 160.144 205.114 130.544 202.781 116.544L288.281 194.544L302 180.044V169.044C278.833 145.21 227.381 96.3435 211.781 85.5435C196.181 74.7435 174.614 78.0435 165.781 81.0435L163.781 70.5435ZM145.752 147C134.908 147 126 138.079 126 127C126 116.02 134.908 107 145.753 107C147.289 106.99 148.819 107.188 150.302 107.588V118.765C148.947 118.079 147.399 117.588 145.752 117.588C140.62 117.588 136.458 121.804 136.458 127C136.458 132.197 140.62 136.412 145.752 136.412C147.397 136.412 148.947 136.02 150.302 135.235V146.412C148.85 146.803 147.301 147 145.752 147ZM155.047 109.354V109.353H155.046C155.046 109.353 155.046 109.354 155.047 109.354ZM155.047 109.354V144.647C161.243 141.314 165.503 134.647 165.503 127C165.503 119.354 161.339 112.687 155.047 109.354Z" fill="#212121"/>
</svg>
