<svg xmlns="http://www.w3.org/2000/svg" width="351" height="391" fill="none" viewBox="0 0 351 391">
    <path stroke="#86ED18" stroke-miterlimit="10" stroke-width="3" d="M297.688.982l51.939 82.328M115.134 110.896l50.028 83.369"/>
    <path fill="#000" d="M264.095 241.829c-12.82 39.043-57.669 76.193-112.532 79.231-2.564.141-5.156.198-7.763.169-38.474-.466-71.055-19.316-89.428-51.746-8.4-13.538-5.198-31.47 7.806-41.206 13.769-10.301 33.303-7.517 43.63 6.204 1.331 1.766 2.181 3.278 2.805 4.394 7.465 13.198 19.548 19.995 35.924 20.193 31.334.396 57.186-27.103 61.833-41.219l57.725 23.98zM55.959 271.786c-.014-.014-.014-.028-.028-.043 0 .029.014.029.028.043zm-.043-.043s-.014-.014-.014-.028c0 .014.014.028.014.028z"/>
    <path fill="#fff" d="M239.177 200.779l16.503-35.228c1.742-3.25 5.808-4.479 9.066-2.741a6.694 6.694 0 0 1 3.4 4.536"/>
    <path stroke="#000" stroke-miterlimit="10" stroke-width="3" d="M239.177 200.779l16.503-35.228c1.742-3.25 5.808-4.479 9.066-2.741a6.694 6.694 0 0 1 3.4 4.536"/>
    <path fill="#fff" d="M274.195 180.883l2.295-4.748a6.669 6.669 0 0 0-2.748-9.044c-3.273-1.738-7.324-.523-9.066 2.741l-16.886 35.172"/>
    <path stroke="#000" stroke-miterlimit="10" stroke-width="3" d="M274.195 180.883l2.295-4.748a6.669 6.669 0 0 0-2.748-9.044c-3.273-1.738-7.324-.523-9.066 2.741l-16.886 35.172"/>
    <path fill="#fff" d="M281.023 184.825a6.667 6.667 0 0 0-2.748-9.043c-3.258-1.738-7.323-.523-9.066 2.741l-14.293 29.887"/>
    <path stroke="#000" stroke-miterlimit="10" stroke-width="3" d="M281.023 184.825a6.667 6.667 0 0 0-2.748-9.043c-3.258-1.738-7.323-.523-9.066 2.741l-14.293 29.887"/>
    <path fill="#fff" d="M261.787 211.673l11.601-24.262c1.743-3.25 5.808-4.48 9.066-2.742 3.258 1.738 4.491 5.794 2.748 9.044l-23.6 49.415-28.104-13.749"/>
    <path stroke="#000" stroke-miterlimit="10" stroke-width="3" d="M261.787 211.673l11.601-24.262c1.743-3.25 5.808-4.48 9.066-2.742 3.258 1.738 4.491 5.794 2.748 9.044l-23.6 49.415-28.104-13.749"/>
    <path fill="#fff" d="M122.156 343.768c-8.967-50.108-15.441-86.254-15.568-86.947-3.867-20.122-16.66-37.107-37.2-37.107-20.54 0-37.198 16.618-37.198 37.107 0 4.098.68 8.041 1.912 11.729L22.53 336.42"/>
    <path stroke="#000" stroke-miterlimit="10" stroke-width="3" d="M122.156 343.768c-8.967-50.108-15.441-86.254-15.568-86.947-3.867-20.122-16.66-37.107-37.2-37.107-20.54 0-37.198 16.618-37.198 37.107 0 4.098.68 8.041 1.912 11.729L22.53 336.42"/>
    <path fill="#fff" stroke="#000" stroke-miterlimit="10" stroke-width="3" d="M108.428 198.857c6.275 0 11.361-5.074 11.361-11.333s-5.086-11.333-11.361-11.333c-6.274 0-11.36 5.074-11.36 11.333s5.086 11.333 11.36 11.333z"/>
    <path stroke="#000" stroke-miterlimit="10" stroke-width="3" d="M112.041 185.461a42.034 42.034 0 0 1-.057 5.511M31.708 196.483c-.1-1.809-.085-3.603.057-5.398"/>
    <path fill="#000" stroke="#000" stroke-miterlimit="10" stroke-width="3" d="M40.575 209.936a.75.75 0 1 0 0 0zM38.125 203.846a.75.75 0 1 0 0 0z"/>
    <path fill="#fff" stroke="#000" stroke-miterlimit="10" stroke-width="3" d="M29.03 198.857c6.275 0 11.361-5.074 11.361-11.333s-5.086-11.333-11.36-11.333c-6.275 0-11.361 5.074-11.361 11.333s5.086 11.333 11.36 11.333z"/>
    <path fill="#fff" stroke="#000" stroke-miterlimit="10" stroke-width="3" d="M68.58 227.994c22 0 39.834-17.79 39.834-39.735 0-21.946-17.834-39.736-39.833-39.736-22 0-39.834 17.79-39.834 39.736 0 21.945 17.834 39.735 39.834 39.735z"/>
    <path stroke="#000" stroke-miterlimit="10" stroke-width="3" d="M81.514 155.758a8.555 8.555 0 0 0 10.596 3.66c3.74-1.498 5.963-5.581 5.17-9.524a8.501 8.501 0 0 0-6.148-6.556c-.269-.071-.255-.453.014-.509 1.19-.283 2.38-.862 3.5-1.809 2.21-1.893 3.356-4.847 2.903-7.715a8.514 8.514 0 0 0-10.992-6.825c-2.975.932-5.058 3.349-5.723 6.161-.057.268-.44.254-.496-.015-.383-1.709-1.133-3.391-2.352-5.002-3.031-3.985-8.187-5.991-13.103-5.002a13.21 13.21 0 0 0-10.581 14.399c-9.874 4.819-14.393 14.06-13.132 22.666"/>
    <path fill="#000" d="M36.85 193.77c.892 0 1.615-.721 1.615-1.611s-.723-1.611-1.615-1.611-1.615.721-1.615 1.611.723 1.611 1.615 1.611zM42.389 193.77c.891 0 1.614-.721 1.614-1.611s-.723-1.611-1.614-1.611c-.892 0-1.615.721-1.615 1.611s.723 1.611 1.614 1.611zM39.47 197.896c.892 0 1.615-.721 1.615-1.611 0-.889-.723-1.611-1.615-1.611-.891 0-1.614.722-1.614 1.611 0 .89.723 1.611 1.614 1.611zM45.25 197.896c.892 0 1.615-.721 1.615-1.611 0-.889-.723-1.611-1.615-1.611s-1.615.722-1.615 1.611c0 .89.723 1.611 1.615 1.611zM42.389 201.782c.891 0 1.614-.721 1.614-1.611 0-.889-.723-1.611-1.614-1.611-.892 0-1.615.722-1.615 1.611 0 .89.723 1.611 1.614 1.611zM98.64 193.77c.893 0 1.616-.721 1.616-1.611s-.723-1.611-1.615-1.611-1.615.721-1.615 1.611.723 1.611 1.615 1.611zM93.102 193.77c.892 0 1.615-.721 1.615-1.611s-.723-1.611-1.615-1.611-1.615.721-1.615 1.611.723 1.611 1.615 1.611zM96.02 197.896c.891 0 1.614-.721 1.614-1.611 0-.889-.723-1.611-1.615-1.611s-1.615.722-1.615 1.611c0 .89.723 1.611 1.615 1.611zM90.24 197.896c.892 0 1.615-.721 1.615-1.611 0-.889-.723-1.611-1.615-1.611s-1.615.722-1.615 1.611c0 .89.723 1.611 1.615 1.611zM93.102 201.782c.892 0 1.615-.721 1.615-1.611 0-.889-.723-1.611-1.615-1.611s-1.615.722-1.615 1.611c0 .89.723 1.611 1.615 1.611z"/>
    <path stroke="#000" stroke-miterlimit="10" stroke-width="3" d="M25.418 189.588c-.1-1.837-.085-3.689.056-5.511M75.522 198.532c0 3.137-2.55 5.681-5.695 5.681-3.144 0-5.694-2.544-5.694-5.681"/>
    <path fill="#000" d="M147.791 390.498l-58.122-.254c-30.102 0-58.008-14.922-74.667-39.933-16.531-24.828-19.591-56.001-8.23-83.527l11.87-31.328c6.064-16.067 24.04-24.192 40.146-18.144 16.106 6.048 24.252 23.98 18.189 40.047l-12.494 32.924c-3.613 8.563-2.72 17.904 2.422 25.633 5.142 7.73 13.443 12.167 22.75 12.167l57.654-.396c17.226-.014 17.693 62.811.482 62.811z"/>
    <path fill="#fff" stroke="#fff" stroke-miterlimit="10" stroke-width="3" d="M179.608 356.613h-12.041v22.397h12.041v-22.397z"/>
    <path fill="#fff" d="M172.638 374.997h26.958c3.697.17 6.558 3.307 6.388 6.995-.17 3.688-3.314 6.542-7.012 6.373l-54.877.042.34-31.215"/>
    <path stroke="#000" stroke-miterlimit="10" stroke-width="3" d="M172.638 374.997h26.958c3.697.17 6.558 3.307 6.388 6.995-.17 3.688-3.314 6.542-7.012 6.373l-54.877.042.34-31.215"/>
    <path fill="#fff" d="M172.638 367.395h33.19c3.698.169 6.559 3.306 6.389 6.994-.17 3.688-3.315 6.543-7.012 6.373H172.27"/>
    <path stroke="#000" stroke-miterlimit="10" stroke-width="3" d="M172.638 367.395h33.19c3.698.169 6.559 3.306 6.389 6.994-.17 3.688-3.315 6.543-7.012 6.373H172.27"/>
    <path fill="#fff" d="M172.638 359.538l39.098.056c3.697.17 6.558 3.307 6.388 6.995-.17 3.688-3.315 6.542-7.012 6.373l-5.284-.028H172.27"/>
    <path stroke="#000" stroke-miterlimit="10" stroke-width="3" d="M172.638 359.538l39.098.056c3.697.17 6.558 3.307 6.388 6.995-.17 3.688-3.315 6.542-7.012 6.373l-5.284-.028H172.27"/>
    <path fill="#fff" d="M144.137 384.917l.581-55.068 40.174.057c3.697.169 6.558 3.306 6.388 6.994-.17 3.689-3.314 6.543-7.012 6.373l-5.283-.028h-6.262a3.375 3.375 0 0 0-3.371 3.363 3.371 3.371 0 0 0 3.4 3.363l-.114.015 39.098.056c3.697.17 6.558 3.307 6.388 6.995-.17 3.688-3.315 6.542-7.012 6.373l-5.284-.029H172.27"/>
    <path stroke="#000" stroke-miterlimit="10" stroke-width="3" d="M144.137 384.917l.581-55.068 40.174.057c3.697.169 6.558 3.306 6.388 6.994-.17 3.689-3.314 6.543-7.012 6.373l-5.283-.028h-6.262a3.375 3.375 0 0 0-3.371 3.363 3.371 3.371 0 0 0 3.4 3.363l-.114.015 39.098.056c3.697.17 6.558 3.307 6.388 6.995-.17 3.688-3.315 6.542-7.012 6.373l-5.284-.029H172.27"/>
    <path fill="#000" d="M58.055 182.621a2.688 2.688 0 0 0 2.692-2.685 2.689 2.689 0 0 0-2.692-2.685 2.689 2.689 0 0 0-2.691 2.685 2.688 2.688 0 0 0 2.691 2.685zM79.729 182.621a2.688 2.688 0 0 0 2.692-2.685 2.689 2.689 0 0 0-2.692-2.685 2.689 2.689 0 0 0-2.692 2.685 2.688 2.688 0 0 0 2.692 2.685z"/>
    <path fill="#fff" stroke="#000" stroke-miterlimit="10" stroke-width="3" d="M349.5 84.13H165.106v109.216H349.5V84.13z"/>
    <path stroke="#000" stroke-miterlimit="10" stroke-width="3" d="M165.106 97.059H349.5"/>
    <path fill="#fff" stroke="#000" stroke-miterlimit="10" stroke-width="3" d="M339.782 107.389h-75.999v34.945h75.999v-34.945zM251.827 107.389h-75.999v34.945h75.999v-34.945zM339.783 150.77H174.696v34.946h165.087V150.77z"/>
    <path fill="#fff" d="M233.511 229.394l-24.605-12.04 17.353-36.146c1.742-3.25 5.807-4.48 9.066-2.742 3.258 1.739 4.49 5.794 2.748 9.044l-2.295 4.748-2.692 5.638a3.353 3.353 0 0 0 1.587 4.48 3.372 3.372 0 0 0 4.505-1.611"/>
    <path stroke="#000" stroke-miterlimit="10" stroke-width="3" d="M233.511 229.394l-24.605-12.04 17.353-36.146c1.742-3.25 5.807-4.48 9.066-2.742 3.258 1.739 4.49 5.794 2.748 9.044l-2.295 4.748-2.692 5.638a3.353 3.353 0 0 0 1.587 4.48 3.372 3.372 0 0 0 4.505-1.611"/>
    <path fill="#000" d="M199.017 95.979a2.702 2.702 0 0 0 2.706-2.7 2.702 2.702 0 0 0-2.706-2.698 2.702 2.702 0 0 0-2.705 2.699 2.702 2.702 0 0 0 2.705 2.699zM190.022 95.979a2.703 2.703 0 0 0 2.706-2.7 2.703 2.703 0 0 0-2.706-2.698 2.703 2.703 0 0 0-2.706 2.699 2.703 2.703 0 0 0 2.706 2.699zM182.174 95.979a2.702 2.702 0 0 0 2.706-2.7 2.702 2.702 0 0 0-2.706-2.698 2.702 2.702 0 0 0-2.705 2.699 2.702 2.702 0 0 0 2.705 2.699z"/>
    <path fill="#fff" stroke="#000" stroke-miterlimit="10" stroke-width="3" d="M298.503 1.5H114.109v109.217h184.394V1.5z"/>
    <path stroke="#000" stroke-miterlimit="10" stroke-width="3" d="M114.109 14.43h184.394"/>
    <path fill="#000" d="M141.01 10.728a2.702 2.702 0 0 0 2.705-2.7 2.702 2.702 0 0 0-2.705-2.698 2.702 2.702 0 0 0-2.706 2.699 2.702 2.702 0 0 0 2.706 2.699zM132 10.728a2.703 2.703 0 0 0 2.706-2.7A2.703 2.703 0 0 0 132 5.33a2.703 2.703 0 0 0-2.706 2.699A2.703 2.703 0 0 0 132 10.728zM124.166 10.728a2.702 2.702 0 0 0 2.706-2.7 2.702 2.702 0 0 0-2.706-2.698 2.702 2.702 0 0 0-2.705 2.699 2.702 2.702 0 0 0 2.705 2.699z"/>
    <path stroke="#86ED18" stroke-miterlimit="10" stroke-width="3" d="M122.551 36.6h40.004M122.551 45.701h40.004M122.551 54.815h39.848M122.551 63.987h40.004M122.551 73.087h40.004M122.551 82.187h39.848M224.303 36.643h-52.866v45.855h52.866V36.643zM224.303 82.597h-52.866v12.01h52.866v-12.01zM284.181 36.643h-49.112v45.855h49.112V36.643z"/>
    <path fill="#fff" d="M285.343 87.39c.085 2.515-1.516 60.084-1.516 60.084l7.026-2.954 8.33-8.662 1.643.438 9.732 17.551 4.306-.509 2.72-2.247v-5.454l-1.658-1.823-4.263-8.634s-.794-4.352-.567-4.352c.227 0 15.497.579 15.497.579l-.779-3.194-40.471-41.685"/>
    <path fill="#000" d="M287.958 91.887h3.711v-3.745h-3.768v-3.688h-3.697c.014 21.182.043 42.322.057 63.475h7.465v-3.702h-3.711c-.015-17.451-.029-34.875-.057-52.34zM314.222 136.724h-.016v.015l.016-.015zM325.455 125.519v-.015l-.015.015h.015z"/>
    <path fill="#000" d="M329.166 132.95v-7.446h-3.698v3.702c-4.986 0-9.944.014-14.959.014v7.489h3.698v-3.759c5.014.015 9.987.015 14.959 0zM317.961 151.689h.015l-.015-.015v.015zM310.481 155.39h7.48v-3.702h-7.48v3.702zM317.976 144.214v-.015l-.015.015h.015z"/>
    <path fill="#000" d="M317.976 151.689v-.015h-.015l.015.015zM321.686 151.674v-7.461h-3.697v7.461h3.697zM306.727 144.213v7.461h3.74v-7.461h-3.74zM317.976 144.199h-.015v.015l.015-.015zM314.222 136.739v-.015l-.016.015h.016z"/>
    <path fill="#000" d="M317.961 144.199v-7.461h-3.74v7.461h3.74zM302.959 136.753h.015v-.015l-.015.015z"/>
    <path fill="#000" d="M302.973 136.752v7.461h3.74v-7.461c-1.261-.014-2.493 0-3.74 0zM317.947 118.044v-.016l-.015.016h.015zM321.701 121.759h-.015v.015l.015-.015zM321.686 121.759v-3.716h-3.725v3.716h3.725zM321.701 121.774v-.015l-.015.015h.015zM325.455 125.49h-.015v.015l.015-.015z"/>
    <path fill="#000" d="M325.44 125.49v-3.731h-3.74v3.731c1.275.014 2.507.014 3.74 0zM314.207 114.313v-.015l-.015.015h.015zM317.947 118.028h-.015v.016l.015-.016z"/>
    <path fill="#000" d="M317.932 118.029v-3.717h-3.74v3.717h3.74zM302.959 136.738v.015l.015-.015h-.015zM299.219 133.035v3.703h3.726v-3.703h-3.726zM299.234 136.753v-.015h-.015l.015.015z"/>
    <path fill="#000" d="M299.219 136.753h.015l-.015-.015v.015zM295.481 140.498v-.015h-.015l.015.015zM295.48 140.482h3.739v-3.73h-3.739v3.73zM310.453 110.567v-.014l-.014.014h.014zM314.207 114.298h-.015v.015l.015-.015zM314.193 114.298v-3.716h-3.74v3.716h3.74z"/>
    <path fill="#000" d="M310.453 110.553h-.014v.014l.014-.014zM306.7 106.838v-.015.015c-.016 0 0 0 0 0z"/>
    <path fill="#000" d="M310.438 110.554v-3.717h-3.739v3.717h3.739zM306.699 106.823s-.014 0 0 0c-.014 0-.014.014-.014.014l.014-.014zM302.946 103.108v-.016l-.015.016h.015z"/>
    <path fill="#000" d="M306.685 106.823v-3.716h-3.74v3.716h3.74zM295.466 140.498h.015l-.015-.015v.015z"/>
    <path fill="#000" d="M291.74 144.227h3.74v-3.73h-3.74v3.73zM299.192 99.363v-.015l-.015.015h.015zM302.946 103.078h-.015v.015l.015-.015z"/>
    <path fill="#000" d="M302.931 103.078v-3.716h-3.74v3.716c1.275.014 2.508.014 3.74 0zM295.452 95.632v-.015.015c-.015 0-.015 0 0 0zM299.192 99.348h-.015v.015l.015-.015zM299.177 99.348v-3.716h-3.74v3.716h3.74z"/>
    <path fill="#000" d="M295.452 95.617c-.015 0-.015 0 0 0-.015 0-.015.015-.015.015l.015-.015zM295.437 95.617v-3.73h-3.739v3.73h3.739z"/>
</svg>
