<svg xmlns="http://www.w3.org/2000/svg" width="541" height="567" fill="none" viewBox="0 0 541 567">
    <circle cx="281.118" cy="91.611" r="64.204" stroke="#86ED18" stroke-width="8"/>
    <path fill="#000" d="M380.223 281.074c-39.485 0-71.622-32.067-71.622-71.467v-22.069c0-11.035 8.981-19.996 20.04-19.996 11.058 0 20.039 8.961 20.039 19.996v22.069c0 17.33 14.176 31.476 31.543 31.476 11.058 0 20.039 8.961 20.039 19.996 0 11.034-8.981 19.995-20.039 19.995z"/>
    <path fill="#fff" stroke="#000" stroke-miterlimit="10" stroke-width="3" d="M12.79 169.566c3.854 0 6.977-3.117 6.977-6.962 0-3.844-3.123-6.961-6.976-6.961-3.854 0-6.977 3.117-6.977 6.961 0 3.845 3.123 6.962 6.977 6.962z"/>
    <path fill="#fff" d="M422.825 402.309l65.535 65.839-74.813 96.276s-9.351-11.775-9.129-21.699c.223-9.924 15.141-27.106 7.645-40.658"/>
    <path stroke="#000" stroke-miterlimit="10" stroke-width="3" d="M422.825 402.309l65.535 65.839-74.813 96.276s-9.351-11.775-9.129-21.699c.223-9.924 15.141-27.106 7.645-40.658"/>
    <path fill="#fff" d="M394.696 341.136s-35.032 60.729-37.778 71.764c-2.746 11.034 9.5 26.809 9.5 26.809"/>
    <path stroke="#000" stroke-miterlimit="10" stroke-width="3" d="M394.696 341.136s-35.032 60.729-37.778 71.764c-2.746 11.034 9.5 26.809 9.5 26.809"/>
    <path fill="#fff" stroke="#000" stroke-miterlimit="10" stroke-width="3" d="M440.415 358.318L412.88 564.869H290.493s3.637-14.59 11.652-20.514c8.016-5.925 31.172-4.888 37.332-19.108 2.895-6.739 51.583-166.336 51.583-166.336 3.933-13.035-.742-19.552-3.563-25.625-5.863-12.59-24.269-50.212-24.121-58.21.371-15.849 12.84-28.661 28.723-28.661s21.746 7.11 28.723 28.661l19.519 73.541c.52 3.332.52 6.517.074 9.701z"/>
    <path fill="#000" d="M348.902 364.835h-18.48c-11.059 0-20.04-8.961-20.04-19.996 0-11.035 8.981-19.996 20.04-19.996h18.48c7.199 0 13.879-2.814 18.926-7.85 5.047-5.036 7.793-11.775 7.793-18.959l-.074-33.549c0-11.035 8.906-19.996 19.965-20.07h.074c11.059 0 19.965 8.887 20.039 19.922l.074 33.549c.074 17.848-6.828 34.659-19.445 47.324-12.617 12.664-29.465 19.625-47.352 19.625zM107.394 270.706c-34.29 0-62.196-27.846-62.196-62.061 0-11.035 8.98-19.996 20.04-19.996 11.058 0 20.038 8.961 20.038 19.996 0 12.145 9.871 22.069 22.118 22.069 12.246 0 22.117-9.924 22.117-22.069v-7.184c0-11.035 8.98-19.996 20.039-19.996 11.059 0 20.039 8.961 20.039 19.996v7.184c0 34.289-27.906 62.061-62.195 62.061z"/>
    <path fill="#fff" d="M121.2 346.616c11.949 12.887 43.047 48.361 47.129 50.657 12.988 7.332 33.472 3.11 42.527 4.888 9.129 1.703 18.926 12.886 18.926 12.886l-95.594 52.434-85.055-154.858c-20.188 0-36.516-16.293-36.516-36.437v-66.06l2.895-4.962c0-17.108 13.879-30.883 30.949-30.883 14.473 0 26.496 9.998 30.059 23.403 1.855 6.887 0 40.732 1.633 44.287 2.968 6.443 41.562-22.662 75.035 8.887 28.426 26.81-10.242 72.282-26.793 89.315-6.977 7.184-11.059 16.664-11.356 26.662-.296 8.887.594 17.478-.371 22.588-1.707 9.109-12.914 18.885-12.914 18.885l-52.547-95.537 46.239-25.328"/>
    <path stroke="#000" stroke-miterlimit="10" stroke-width="3" d="M121.2 346.616c11.949 12.887 43.047 48.361 47.129 50.657 12.988 7.332 33.472 3.11 42.527 4.888 9.129 1.703 18.926 12.886 18.926 12.886l-95.594 52.434-85.055-154.858c-20.188 0-36.516-16.293-36.516-36.437v-66.06l2.895-4.962c0-17.108 13.879-30.883 30.949-30.883 14.473 0 26.496 9.998 30.059 23.403 1.855 6.887 0 40.732 1.633 44.287 2.968 6.443 41.562-22.662 75.035 8.887 28.426 26.81-10.242 72.282-26.793 89.315-6.977 7.184-11.059 16.664-11.356 26.662-.296 8.887.594 17.478-.371 22.588-1.707 9.109-12.914 18.885-12.914 18.885l-52.547-95.537 46.239-25.328M141.461 191.537l6.605.074M15.364 161.543c-.075-1.111-.075-2.222.074-3.333"/>
    <path fill="#fff" stroke="#000" stroke-miterlimit="10" stroke-width="3" d="M37.925 181.021c13.485 0 24.418-10.909 24.418-24.366 0-13.457-10.933-24.365-24.418-24.365-13.486 0-24.418 10.908-24.418 24.365 0 13.457 10.932 24.366 24.418 24.366z"/>
    <path stroke="#000" stroke-miterlimit="10" stroke-width="3" d="M46.319 130.464c2.127 2.098 5.564 2.447 8.024.485 2.303-1.736 3.09-5.049 1.834-7.586a6.116 6.116 0 0 0-5.494-3.37c-.192.036-.28-.225-.07-.382.75-.457 1.518-1.035 2.077-1.891 1.186-1.765 1.449-4.031.594-5.89-1.551-3.511-5.807-4.658-8.895-2.657-1.92 1.228-2.897 3.27-2.828 5.395.035.191-.227.28-.384.071-.593-1.077-1.43-2.187-2.616-3.035a9.642 9.642 0 0 0-10.065-1.014c-4.623 2.286-6.439 7.572-4.643 11.987-5.915 5.219-7.33 12.489-4.855 18.242"/>
    <path fill="#000" stroke="#000" stroke-miterlimit="10" stroke-width="1.5" d="M28.352 159.469a.445.445 0 1 0 .001-.89.445.445 0 0 0-.001.89zM30.504 161.691a.445.445 0 1 0 .001-.89.445.445 0 0 0 0 .89zM23.973 159.395a.444.444 0 1 0 0-.888.445.445 0 1 0 0 .888zM28.352 163.913a.445.445 0 1 0 0-.89.445.445 0 0 0 0 .89zM26.125 161.617a.445.445 0 1 0 0-.89.445.445 0 0 0 0 .89z"/>
    <path fill="#000" d="M53.735 159.321c.816 3.259-.891 6.518-3.785 7.184-2.895.741-5.938-1.333-6.755-4.592l-.667-2.666 10.613-2.666.594 2.74z"/>
    <path fill="#fff" d="M46.238 167.764a3.781 3.781 0 0 0 3.786-3.777 3.781 3.781 0 0 0-3.786-3.777 3.781 3.781 0 0 0-3.785 3.777 3.781 3.781 0 0 0 3.785 3.777z"/>
    <path stroke="#000" stroke-miterlimit="10" stroke-width="3" d="M54.106 159.914c.742 2.888-1.04 5.851-3.934 6.591-2.894.741-5.863-1.037-6.605-3.925l-1.04-3.258 10.614-2.667.965 3.259z"/>
    <path fill="#000" d="M44.457 284.407C19.965 284.407 0 264.485 0 240.046v-48.805c0-11.035 8.98-19.996 20.04-19.996 11.058 0 20.038 8.961 20.038 19.996v48.805c0 2.444 2.004 4.369 4.38 4.369a4.382 4.382 0 0 0 4.378-4.369v-27.402c0-11.035 8.98-19.996 20.04-19.996 11.058 0 20.038 8.961 20.038 19.996v27.402c0 24.439-19.965 44.361-44.457 44.361z"/>
    <path fill="#fff" d="M78.302 195.091l.074-25.846a4.73 4.73 0 0 0-4.75-4.74 4.73 4.73 0 0 0-4.75 4.74l-.074 25.92.074-25.846a4.73 4.73 0 0 0-4.75-4.74c-2.672 0-4.75 2.074-4.75 4.74l-.074 25.92.074-25.846a4.73 4.73 0 0 0-4.75-4.74 4.73 4.73 0 0 0-4.75 4.74l-.075 25.55-10.464-.074a4.73 4.73 0 0 0-4.75 4.74c0 2.666 2.078 4.74 4.75 4.74l10.464.074v8.22l38 .297.075-33.549a4.73 4.73 0 0 0-4.75-4.74 4.73 4.73 0 0 0-4.75 4.74"/>
    <path stroke="#000" stroke-miterlimit="10" stroke-width="3" d="M78.302 195.091l.074-25.846a4.73 4.73 0 0 0-4.75-4.74 4.73 4.73 0 0 0-4.75 4.74l-.074 25.92.074-25.846a4.73 4.73 0 0 0-4.75-4.74c-2.672 0-4.75 2.074-4.75 4.74l-.074 25.92.074-25.846a4.73 4.73 0 0 0-4.75-4.74 4.73 4.73 0 0 0-4.75 4.74l-.075 25.55-10.464-.074a4.73 4.73 0 0 0-4.75 4.74c0 2.666 2.078 4.74 4.75 4.74l10.464.074v8.22l38 .297.075-33.549a4.73 4.73 0 0 0-4.75-4.74 4.73 4.73 0 0 0-4.75 4.74"/>
    <path fill="#fff" d="M127.581 197.239h2.746l.074-4.888"/>
    <path stroke="#000" stroke-miterlimit="10" stroke-width="3" d="M127.581 197.239h2.746l.074-4.888"/>
    <path fill="#fff" d="M168.401 183.168v27.327h-38l.074-4.295h-.891c-4.824 0-8.683-3.925-8.683-8.665l.074-7.702c0-2.74 2.375-4.962 5.27-4.666 2.449.222 4.304 2.444 4.23 4.962"/>
    <path stroke="#000" stroke-miterlimit="10" stroke-width="3" d="M168.401 183.168v27.327h-38l.074-4.295h-.891c-4.824 0-8.683-3.925-8.683-8.665l.074-7.702c0-2.74 2.375-4.962 5.27-4.666 2.449.222 4.304 2.444 4.23 4.962"/>
    <path fill="#fff" stroke="#000" stroke-miterlimit="10" stroke-width="3" d="M130.476 177.539l-.074 14.812a4.73 4.73 0 0 0 4.75 4.74 4.731 4.731 0 0 0 4.75-4.74l.074-14.812h-9.5z"/>
    <path fill="#fff" stroke="#000" stroke-miterlimit="10" stroke-width="3" d="M139.901 177.614l-.075 14.812a4.73 4.73 0 0 0 4.75 4.739 4.73 4.73 0 0 0 4.75-4.739l.075-14.812h-9.5z"/>
    <path fill="#fff" stroke="#000" stroke-miterlimit="10" stroke-width="3" d="M149.4 177.614l-.075 14.812a4.73 4.73 0 0 0 4.75 4.739c2.672 0 4.75-2.073 4.75-4.739l.075-14.812h-9.5z"/>
    <path fill="#fff" stroke="#000" stroke-miterlimit="10" stroke-width="3" d="M158.901 177.614l-.075 14.812a4.73 4.73 0 0 0 4.75 4.739 4.73 4.73 0 0 0 4.75-4.739l.075-14.812h-9.5z"/>
    <path fill="#86ED18" d="M117.193 175.17v16.441l-25.012 3.925v-24.069l25.012 3.703z"/>
    <path stroke="#000" stroke-miterlimit="10" stroke-width="3" d="M120.903 179.539l-.074 16.441-25.012 3.777.149-24.069 24.937 3.851z"/>
    <path fill="#fff" stroke="#000" stroke-miterlimit="10" stroke-width="3" d="M120.891 182.854l-.047 9.776 9.5.045.047-9.776-9.5-.045z"/>
    <path fill="#86ED18" d="M319.808 306.773h-16.477l-3.933-24.958h24.121l-3.711 24.958z"/>
    <path stroke="#000" stroke-miterlimit="10" stroke-width="3" d="M324.56 310.476l-16.476-.074-3.785-24.884 24.121.074-3.86 24.884z"/>
    <path fill="#fff" stroke="#000" stroke-miterlimit="10" stroke-width="3" d="M321.239 310.503l-9.797-.047-.034 7.184 9.797.046.034-7.183z"/>
    <path stroke="#000" stroke-miterlimit="10" stroke-width="3" d="M168.625 186.353h109.398c51.137 0 92.626-41.399 92.626-92.426S329.16 1.501 278.023 1.501h-6.16c-51.137 0-92.625 41.4-92.625 92.426V411.27c0 37.77 30.652 68.357 68.504 68.357 37.852 0 68.504-30.587 68.504-68.357l.149-93.537"/>
    <path fill="#fff" stroke="#000" stroke-miterlimit="10" stroke-width="3" d="M49.206 312.772H3.82v252.097h183.878L49.205 312.772z"/>
    <path fill="#fff" d="M313.946 354.245l-8.461.074c-2.598 0-4.75-2.074-4.75-4.666 0-2.592 2.078-4.74 4.675-4.74l8.461-.074-8.461.074c-2.597 0-4.75-2.073-4.75-4.665s2.079-4.74 4.676-4.74l8.461-.074-8.461.074c-2.597 0-4.75-2.074-4.75-4.666 0-2.592 2.078-4.74 4.676-4.74l15.66-.148-.074-10.368c0-2.592 2.078-4.74 4.676-4.74 2.597 0 4.75 2.074 4.75 4.666l.074 10.442h8.238l.297 37.844-33.621.074c-2.598 0-4.75-2.073-4.75-4.665s2.078-4.74 4.676-4.74"/>
    <path stroke="#000" stroke-miterlimit="10" stroke-width="3" d="M313.946 354.245l-8.461.074c-2.598 0-4.75-2.074-4.75-4.666 0-2.592 2.078-4.74 4.675-4.74l8.461-.074-8.461.074c-2.597 0-4.75-2.073-4.75-4.665s2.079-4.74 4.676-4.74l8.461-.074-8.461.074c-2.597 0-4.75-2.074-4.75-4.666 0-2.592 2.078-4.74 4.676-4.74l15.66-.148-.074-10.368c0-2.592 2.078-4.74 4.676-4.74 2.597 0 4.75 2.074 4.75 4.666l.074 10.442h8.238l.297 37.844-33.621.074c-2.598 0-4.75-2.073-4.75-4.665s2.078-4.74 4.676-4.74"/>
    <path fill="#fff" stroke="#000" stroke-miterlimit="10" stroke-width="3" d="M409.317 241.082c3.771 0 6.828-3.05 6.828-6.813s-3.057-6.814-6.828-6.814c-3.771 0-6.828 3.051-6.828 6.814s3.057 6.813 6.828 6.813z"/>
    <path fill="#fff" stroke="#000" stroke-miterlimit="10" stroke-width="3" d="M386.904 250.118c13.28 0 24.047-10.743 24.047-23.995s-10.767-23.995-24.047-23.995c-13.281 0-24.047 10.743-24.047 23.995s10.766 23.995 24.047 23.995z"/>
    <path fill="#000" d="M386.165 218.371a1.991 1.991 0 1 0 0-3.982 1.991 1.991 0 0 0 0 3.982zM376.206 214.388a1.992 1.992 0 1 0 0-3.984 1.992 1.992 0 0 0 0 3.984zM38.67 152.656a1.992 1.992 0 1 0-.001-3.984 1.992 1.992 0 0 0 0 3.984zM49.623 149.669a1.992 1.992 0 1 0 0-3.983 1.992 1.992 0 0 0 0 3.983z"/>
    <path stroke="#000" stroke-miterlimit="10" stroke-width="3" d="M411.767 227.9c-24.641-5.629-17.516-24.662-17.516-24.662l1.336-3.333 10.614.074c6.457 0 36.812 7.925 38.371 38.807.52 10.146 6.16 14.146 12.543 14.516h.965c45.125.148 81.567 36.733 81.418 81.761-.148 45.028-36.812 81.391-81.938 81.243h-20.855"/>
    <path fill="#000" d="M372.506 222.42c-1.039 2.74-.446 7.257 2.3 8.294 2.746 1.037 6.68-1.777 7.719-4.517l.891-2.296-10.02-3.777-.89 2.296z"/>
    <path fill="#fff" d="M381.337 228.048a3.707 3.707 0 0 0 3.711-3.703 3.707 3.707 0 0 0-3.711-3.703 3.707 3.707 0 0 0-3.711 3.703 3.707 3.707 0 0 0 3.711 3.703z"/>
    <path stroke="#000" stroke-miterlimit="10" stroke-width="3" d="M371.689 223.827c-1.039 2.74.371 5.85 3.117 6.887s5.863-.37 6.903-3.11l1.707-3.703-10.02-3.777-1.707 3.703z"/>
    <path fill="#fff" d="M338.142 164.209l-.074-24.365c0-2.592 2.078-4.74 4.675-4.74 2.598 0 4.75 2.074 4.75 4.666l.149 28.587 10.39-.074c2.598 0 4.75 2.073 4.75 4.665 0 2.593-2.078 4.74-4.675 4.74l-10.465.074v8.221l-37.852.296v-33.401"/>
    <path stroke="#000" stroke-miterlimit="10" stroke-width="3" d="M338.142 164.209l-.074-24.365c0-2.592 2.078-4.74 4.675-4.74 2.598 0 4.75 2.074 4.75 4.666l.149 28.587 10.39-.074c2.598 0 4.75 2.073 4.75 4.665 0 2.593-2.078 4.74-4.675 4.74l-10.465.074v8.221l-37.852.296v-33.401"/>
    <path fill="#fff" d="M328.642 152.952l.074 11.554c0 2.592-2.078 4.739-4.676 4.739-2.598 0-4.75-2.073-4.75-4.665l-.074-11.554.074 11.554c0 2.592-2.078 4.739-4.676 4.739-2.597 0-4.75-2.073-4.75-4.665l-.074-11.554 28.352-.148v11.554c0 2.592-2.078 4.739-4.676 4.739-2.598 0-4.75-2.073-4.75-4.665"/>
    <path stroke="#000" stroke-miterlimit="10" stroke-width="3" d="M328.642 152.952l.074 11.554c0 2.592-2.078 4.739-4.676 4.739-2.598 0-4.75-2.073-4.75-4.665l-.074-11.554.074 11.554c0 2.592-2.078 4.739-4.676 4.739-2.597 0-4.75-2.073-4.75-4.665l-.074-11.554 28.352-.148v11.554c0 2.592-2.078 4.739-4.676 4.739-2.598 0-4.75-2.073-4.75-4.665"/>
    <path fill="#fff" stroke="#000" stroke-miterlimit="10" stroke-width="3" d="M354.085 25.208l-97.362 56.71 33.748 57.689 97.361-56.71-33.747-57.689z"/>
    <path stroke="#000" stroke-miterlimit="10" stroke-width="3" d="M260.741 88.777l97.375-56.729"/>
    <path fill="#000" d="M262.374 84.926a1.63 1.63 0 0 0 1.632-1.629c0-.9-.731-1.63-1.632-1.63-.902 0-1.633.73-1.633 1.63 0 .9.731 1.63 1.633 1.63zM267.644 81.816c.902 0 1.633-.73 1.633-1.63 0-.9-.731-1.629-1.633-1.629s-1.633.73-1.633 1.63c0 .9.731 1.629 1.633 1.629zM272.913 78.78a1.63 1.63 0 0 0 1.632-1.63c0-.9-.731-1.63-1.632-1.63-.902 0-1.633.73-1.633 1.63 0 .9.731 1.63 1.633 1.63z"/>
    <path stroke="#000" stroke-miterlimit="10" stroke-width="3" d="M291.096 99.812a5.19 5.19 0 0 0 5.195-5.184 5.19 5.19 0 0 0-5.195-5.184 5.19 5.19 0 0 0-5.195 5.184 5.19 5.19 0 0 0 5.195 5.184zM312.621 105.959c-3.563-6.073-11.43-8.147-17.516-4.592-6.086 3.555-8.164 11.405-4.601 17.478l3.117 5.332 22.117-12.886-3.117-5.332zM307.945 80.631l42.156-24.513M310.766 85.445l42.082-24.588M313.585 90.185l21.078-12.22"/>
    <path fill="#fff" d="M355.638 86.193c.778 1.273 16.896 30.752 16.896 30.752l2.686-3.535 1.626-6.786.99-.283 10.039 6.009 2.05-1.555.707-1.909-1.626-2.757-1.344-.424-4.665-3.111s-1.697-1.979-1.556-2.05c.142-.071 7.989-4.242 7.989-4.242l-1.343-1.413-32.731-9.12"/>
    <path stroke="#000" stroke-miterlimit="10" stroke-width=".5" d="M355.638 86.193c.778 1.273 16.896 30.752 16.896 30.752l2.686-3.535 1.626-6.786.99-.283 10.039 6.009 2.05-1.555.707-1.909-1.626-2.757-1.344-.424-4.665-3.111s-1.697-1.979-1.556-2.05c.142-.071 7.989-4.242 7.989-4.242l-1.343-1.413-32.731-9.12"/>
    <path fill="#000" stroke="#000" stroke-miterlimit="10" stroke-width=".5" d="M375.008 113.552h.072-.072zM357.759 88.243l1.838-1.06c-.354-.636-.707-1.273-1.131-1.909-.636.354-1.273.707-1.909 1.131a42.472 42.472 0 0 0-1.06-1.838c-.637.283-1.202.637-1.838.99 6.221 10.745 12.512 21.35 18.733 32.024 1.273-.707 2.475-1.484 3.747-2.191a41.705 41.705 0 0 0-1.06-1.838c-.636.353-1.202.707-1.838 1.06-5.232-8.766-10.321-17.603-15.482-26.369zM386.532 94.182c-.073 0 0 0 0 0zM390.562 96.868c-.707-1.273-1.485-2.474-2.192-3.747-.636.354-1.272.707-1.838 1.06.354.637.707 1.202 1.061 1.839-2.475 1.484-5.02 2.898-7.494 4.383.707 1.272 1.485 2.474 2.192 3.746.636-.353 1.201-.707 1.838-1.06-.354-.636-.707-1.273-1.131-1.909 2.545-1.414 5.089-2.898 7.564-4.312zM387.732 113.622c1.272-.706 2.545-1.484 3.747-2.191-.354-.636-.707-1.273-1.061-1.838-1.272.707-2.474 1.484-3.746 2.191.353.637.707 1.273 1.06 1.838zM388.23 105.775v.071-.071zM392.328 108.462c-.707-1.272-1.485-2.474-2.192-3.747-.636.354-1.272.707-1.838 1.061.707 1.272 1.485 2.474 2.192 3.747.565-.283 1.201-.707 1.838-1.061zM382.574 109.098c.707 1.272 1.485 2.474 2.192 3.747.636-.354 1.272-.707 1.908-1.131-.707-1.273-1.484-2.475-2.191-3.747-.636.424-1.273.778-1.909 1.131zM388.23 105.775v.071-.071zM388.227 105.776c-.707-1.273-1.485-2.475-2.192-3.747-.636.353-1.272.707-1.909 1.131.707 1.272 1.485 2.474 2.192 3.747.636-.354 1.272-.707 1.909-1.131zM378.473 106.482v-.07.07zM378.473 106.482c.707 1.273 1.484 2.475 2.191 3.747.636-.353 1.273-.707 1.909-1.131-.707-1.273-1.485-2.474-2.192-3.747-.636.354-1.272.707-1.908 1.131zM383.491 93.404c-.354-.636-.707-1.273-1.131-1.909-.637.354-1.273.707-1.909 1.131.353.636.707 1.202 1.131 1.909.707-.424 1.273-.778 1.909-1.131z"/>
    <path fill="#000" stroke="#000" stroke-miterlimit="10" stroke-width=".5" d="M386.46 94.181c-.353-.636-.707-1.272-1.131-1.908-.636.353-1.272.707-1.908 1.13.353.637.706 1.203 1.131 1.91.707-.425 1.343-.778 1.908-1.132zM380.521 92.626c-.353-.636-.707-1.272-1.131-1.908-.636.353-1.272.706-1.909 1.13.354.637.707 1.203 1.132 1.91.636-.425 1.272-.778 1.908-1.132zM378.473 106.412v.07-.07zM375.505 105.705c.354.636.707 1.272 1.06 1.838.283-.141.566-.354.849-.495a16.3 16.3 0 0 1 .989-.565c-.353-.637-.706-1.202-1.06-1.838-.565.282-1.202.636-1.838 1.06z"/>
    <path fill="#000" stroke="#000" stroke-miterlimit="10" stroke-width=".5" d="M375.856 110.512c.636-.354 1.273-.707 1.909-1.131-.354-.637-.707-1.273-1.131-1.909-.636.353-1.202.707-1.909 1.131.353.707.707 1.272 1.131 1.909zM374.587 91.071h-.071.071zM377.556 91.849c-.354-.636-.707-1.273-1.131-1.909-.637.353-1.273.707-1.909 1.131.353.636.707 1.202 1.131 1.909.636-.424 1.272-.778 1.909-1.131zM374.516 91.071c-.354-.636-.707-1.272-1.131-1.909-.637.354-1.273.707-1.909 1.131.353.637.707 1.202 1.131 1.91.707-.425 1.343-.778 1.909-1.132z"/>
    <path fill="#000" stroke="#000" stroke-miterlimit="10" stroke-width=".5" d="M371.544 90.294c-.353-.637-.707-1.273-1.131-1.91-.636.354-1.272.708-1.909 1.132.354.636.707 1.202 1.132 1.909.706-.424 1.272-.778 1.908-1.131zM375.08 113.552h-.072.072zM375.08 113.552c.636-.354 1.272-.707 1.909-1.132-.354-.636-.707-1.272-1.131-1.908-.637.353-1.273.707-1.909 1.131.353.636.707 1.272 1.131 1.909zM365.605 88.739v-.072.072zM368.577 89.445c0 .07 0 .07 0 0 0 .07 0 .07 0 0z"/>
    <path fill="#000" stroke="#000" stroke-miterlimit="10" stroke-width=".5" d="M368.575 89.516c-.354-.636-.707-1.273-1.131-1.909-.637.354-1.273.707-1.909 1.131.353.637.707 1.202 1.131 1.91.636-.425 1.272-.778 1.909-1.132zM362.638 87.89c0 .07 0 .07 0 0zM365.605 88.667v.072-.072zM365.607 88.668c-.353-.637-.707-1.273-1.131-1.91-.636.354-1.272.708-1.909 1.132.354.636.707 1.202 1.131 1.909.637-.354 1.273-.707 1.909-1.131zM362.638 87.89c-.071 0-.071 0 0 0-.071 0-.071 0 0 0zM362.567 87.89c-.353-.636-.707-1.272-1.131-1.909-.636.354-1.272.707-1.909 1.131.354.637.707 1.202 1.131 1.91.707-.354 1.344-.708 1.909-1.132z"/>
    <path fill="#fff" stroke="#000" stroke-miterlimit="10" stroke-width="3" d="M230.856 110.982c8.39.756 14.004-3.264 14.877-5.07 1.182-2.44-.349-4.196-1.245-5.41-.895-1.214-6.364-8.264-7.194-9.35-.837-1.088-3.219-2.745-6.144-.806-2.925 1.938-13.446 8.874-19.067-4.013s5.021-16.907 8.275-18.175c3.253-1.267 3.391-4.23 3.045-5.572-.347-1.341-2.56-10.079-2.972-11.547-.411-1.469-.86-3.78-3.46-4.261-1.928-.355-8.286 1.973-12.826 9.287-4.515 7.266-8.408 17.643-.269 34.527 8.032 16.681 21.895 19.938 26.98 20.39z"/>
</svg>
