<svg xmlns="http://www.w3.org/2000/svg" width="501" height="588" fill="none" viewBox="0 0 501 588">
    <path fill="#fff" d="M337.921 509.159c1.248 12.26 1.689 22.391-.661 25.768-8.667 12.481-30.554 21.731-38.412 27.531-6.096 4.478-9.622 14.095-10.87 18.133-.294.955.441 1.909 1.395 1.909l116.411.073c.808 0 1.469-.66 1.469-1.468l-29.966-137.286"/>
    <path stroke="#000" stroke-miterlimit="10" stroke-width="3" d="M337.921 509.159c1.248 12.26 1.689 22.391-.661 25.768-8.667 12.481-30.554 21.731-38.412 27.531-6.096 4.478-9.622 14.095-10.87 18.133-.294.955.441 1.909 1.395 1.909l116.411.073c.808 0 1.469-.66 1.469-1.468l-29.966-137.286"/>
    <path fill="#000" d="M155.337 315.931c-5.067 0-9.474-.881-12.926-1.836-16.892-4.845-34.226-14.83-46.491-26.723-17.847-17.326-24.971-38.249-19.904-58.879 2.865-11.599 14.542-18.72 26.147-15.931 11.604 2.864 18.728 14.536 15.938 26.136-3.159 13.068 19.756 28.926 36.355 33.698.661.22 2.35.66 6.904-4.626 6.536-7.635 12.192-20.262 15.864-29.072 4.627-11.012 17.333-16.225 28.35-11.599 11.017 4.625 16.231 17.325 11.604 28.338-5.214 12.48-12.559 28.338-22.915 40.525-13.587 15.857-27.835 19.969-38.926 19.969zM229.957 354.988c-6.096 0-12.192-2.57-16.452-7.562-7.785-9.104-6.683-22.759 2.351-30.541 11.824-10.057 23.869-18.353 35.474-26.356 23.943-16.445 44.581-30.614 57.875-56.456 5.435-10.645 18.508-14.829 29.158-9.397 10.649 5.433 14.835 18.501 9.401 29.146-18.215 35.533-45.463 54.254-71.83 72.387-11.237 7.709-21.813 14.977-31.875 23.566-4.113 3.524-9.107 5.213-14.102 5.213z"/>
    <path stroke="#000" stroke-miterlimit="10" stroke-width="3" d="M347.249 200.817a7.784 7.784 0 0 0 7.785-7.782 7.784 7.784 0 0 0-7.785-7.782 7.784 7.784 0 0 0-7.786 7.782 7.785 7.785 0 0 0 7.786 7.782z"/>
    <path fill="#fff" stroke="#000" stroke-miterlimit="10" stroke-width="3" d="M320.146 220.712c15.09 0 27.322-12.228 27.322-27.311s-12.232-27.31-27.322-27.31c-15.089 0-27.321 12.227-27.321 27.31 0 15.083 12.232 27.311 27.321 27.311z"/>
    <path stroke="#000" stroke-miterlimit="10" stroke-width="3" d="M318.899 187.088a1.982 1.982 0 1 0 .001-3.965 1.982 1.982 0 0 0-.001 3.965zM303.988 187.014a1.983 1.983 0 1 0 0-3.966 1.983 1.983 0 0 0 0 3.966z"/>
    <path stroke="#000" stroke-miterlimit="10" stroke-width="3" d="M347.323 185.253c-28.35 4.037-28.57-19.088-28.57-19.088v-4.112l22.841.074c7.345 0 41.791 9.103 43.48 44.122.587 11.526 6.977 16.078 14.248 16.519h1.102c51.191.22 92.541 41.919 92.247 93.09-.22 51.17-41.937 92.502-93.128 92.209h-11.238"/>
    <path fill="#fff" d="M96.653 493.595c-6.904 11.673-12.339 20.556-13.294 24.52-3.452 14.83 4.407 37.222 5.435 46.986.808 7.488-3.966 16.518-6.17 20.262-.513.881-1.688 1.028-2.35.221L1.909 499.615c-.587-.588-.514-1.542.074-2.129l66.1-60.2"/>
    <path stroke="#000" stroke-miterlimit="10" stroke-width="3" d="M96.653 493.595c-6.904 11.673-12.339 20.556-13.294 24.52-3.452 14.83 4.407 37.222 5.435 46.986.808 7.488-3.966 16.518-6.17 20.262-.513.881-1.688 1.028-2.35.221L1.909 499.615c-.587-.588-.514-1.542.074-2.129l66.1-60.2"/>
    <path fill="#fff" d="M85.488 366.587s65 116.583 67.937 120.327c11.017 14.095 31.802 7.782 50.898 10.131 12.045 1.468 18.729 7.929 21.593 11.526 1.028 1.248.808 3.083-.441 4.038l-89.97 69.304c-1.469 1.101-3.599.587-4.334-1.102L34.444 360.567c-8.667-19.602-4.26-38.984 1.322-52.565 14.028-34.138 31.067-79.142 40.028-87.584 14.615-13.729 29.304-12.775 42.892 1.982 14.175 15.343.881 33.33-1.249 36.267-11.09 15.05-27.836 69.377-27.836 69.377 1.763 3.377 27.763 37.295 36.576 52.418 9.401 16.225 6.904 35.386-1.175 56.897"/>
    <path stroke="#000" stroke-miterlimit="10" stroke-width="3" d="M85.488 366.587s65 116.583 67.937 120.327c11.017 14.095 31.802 7.782 50.898 10.131 12.045 1.468 18.729 7.929 21.593 11.526 1.028 1.248.808 3.084-.441 4.038l-89.97 69.304c-1.469 1.101-3.599.587-4.334-1.102L34.444 360.567c-8.667-19.602-4.26-38.984 1.322-52.565 14.028-34.138 31.067-79.142 40.028-87.584 14.615-13.729 29.304-12.775 42.892 1.982 14.175 15.343.881 33.33-1.249 36.267-11.09 15.05-27.836 69.377-27.836 69.377 1.763 3.377 27.763 37.295 36.576 52.418 9.401 16.225 6.904 35.386-1.175 56.897"/>
    <path fill="#fff" d="M363.038 367.101s-64.999 116.583-67.937 120.327c-11.017 14.095-25.999-.147-45.022 2.276-16.892 2.129-20.711 9.911-20.711 9.911l83.948 82.371c1.248 1.248 3.378.808 4.113-.807l96.654-220.098c8.666-19.602 2.056-34.799-4.774-47.793-16.746-31.642-40.322-73.782-49.356-82.225-14.615-13.729-34.299-16.885-47.886-2.129-14.175 15.344-.881 33.33 1.249 36.267 11.09 15.05 39.513 69.23 39.513 69.23-1.762 3.377-21.74 31.422-30.553 46.545-9.401 16.225-7.859 40.745-4.26 65.119"/>
    <path stroke="#000" stroke-miterlimit="10" stroke-width="3" d="M363.038 367.101s-64.999 116.583-67.937 120.327c-11.017 14.095-25.999-.147-45.022 2.276-16.892 2.129-20.711 9.911-20.711 9.911l83.948 82.371c1.248 1.248 3.378.808 4.113-.807l96.654-220.098c8.666-19.602 2.056-34.799-4.774-47.793-16.746-31.642-40.322-73.782-49.356-82.225-14.615-13.729-34.299-16.885-47.886-2.129-14.175 15.344-.881 33.33 1.249 36.267 11.09 15.05 39.513 69.23 39.513 69.23-1.762 3.377-21.74 31.422-30.553 46.545-9.401 16.225-7.859 40.745-4.26 65.119"/>
    <path fill="#fff" stroke="#000" stroke-miterlimit="10" stroke-width="3" d="M84.974 197.145a7.93 7.93 0 0 0 7.932-7.929 7.93 7.93 0 0 0-7.933-7.929 7.93 7.93 0 0 0-7.931 7.929 7.93 7.93 0 0 0 7.931 7.929z"/>
    <path stroke="#000" stroke-miterlimit="10" stroke-width="3" d="M81.45 191.199c-.074-1.322-.074-2.57.073-3.818M86.811 195.531c-.074-1.249-.074-2.497.073-3.745"/>
    <path fill="#fff" stroke="#000" stroke-miterlimit="10" stroke-width="3" d="M112.59 217.702c15.373 0 27.836-12.457 27.836-27.824s-12.463-27.825-27.836-27.825c-15.374 0-27.836 12.458-27.836 27.825 0 15.367 12.462 27.824 27.836 27.824z"/>
    <path stroke="#000" stroke-miterlimit="10" stroke-width="3" d="M130.661 171.597c.367 2.863 2.864 5.139 5.949 5.139 2.791 0 5.288-2.055 5.802-4.845.441-2.35-.587-4.552-2.277-5.873-.147-.147-.073-.368.147-.368.882.147 1.763.074 2.718-.293 1.909-.661 3.452-2.276 3.892-4.258.808-3.671-1.762-7.048-5.361-7.268-2.204-.147-4.187.881-5.288 2.496-.147.147-.367.073-.294-.147.22-1.175.147-2.496-.22-3.891-.955-3.377-3.746-6.02-7.198-6.681-4.847-.881-9.401 2.129-10.576 6.608-7.638.587-13 5.432-14.395 11.305"/>
    <path fill="#000" stroke="#000" stroke-miterlimit="10" stroke-width="1.5" d="M101.647 193.108a.514.514 0 1 0 0-1.028.514.514 0 0 0 0 1.028zM104.144 195.604a.514.514 0 1 0-.001-1.029.514.514 0 0 0 .001 1.029zM96.652 193.034a.514.514 0 1 0 0-1.028.514.514 0 0 0 0 1.028zM94.376 195.604a.515.515 0 1 0-.001-1.03.515.515 0 0 0 0 1.03zM99.15 195.604a.515.515 0 1 0-.001-1.03.515.515 0 0 0 0 1.03z"/>
    <path stroke="#000" stroke-miterlimit="10" stroke-width="3" d="M115.675 185.032a2.056 2.056 0 1 0 0 0zM129.041 185.032a2.056 2.056 0 1 0 0-4.112 2.056 2.056 0 0 0 0 4.112z"/>
    <path fill="#000" d="M129.775 195.09c0 3.817-2.791 6.901-6.243 6.901-3.452 0-6.243-3.157-6.17-6.975v-3.156l12.413.073v3.157z"/>
    <path fill="#fff" d="M120.227 202.359a4.26 4.26 0 1 0 .002-8.518 4.26 4.26 0 0 0-.002 8.518z"/>
    <path stroke="#000" stroke-miterlimit="10" stroke-width="3" d="M129.995 195.824c0 3.451-2.791 6.24-6.242 6.167-3.452-.074-6.243-2.79-6.17-6.24l-.22-3.891 12.412.073.22 3.891z"/>
    <path fill="#000" d="M389.772 288.4c-27.175 0-53.762-16.445-67.129-44.049-5.215-10.792-.735-23.713 10.062-28.925 10.796-5.213 23.723-.735 28.937 10.057 8.52 17.547 25.633 22.759 37.311 17.693 11.971-5.212 18.434-22.979 13.881-38.029-3.452-11.452 3.011-23.566 14.468-27.016 11.458-3.451 23.576 3.01 27.028 14.462 5.141 17.033 4.334 35.607-2.276 52.272-7.051 17.546-19.757 31.054-35.768 38.029-8.667 3.744-17.627 5.506-26.514 5.506z"/>
    <path stroke="#000" stroke-miterlimit="10" stroke-width="3" d="M418.564 179.526l7.272-2.129"/>
    <path fill="#fff" d="M404.167 190.685l3.011-.955-1.615-5.359"/>
    <path stroke="#000" stroke-miterlimit="10" stroke-width="3" d="M404.167 190.685l3.011-.955-1.615-5.359"/>
    <path fill="#fff" d="M444.269 161.686l9.107 30.027-39.66 11.966-1.396-4.772-3.011.881c-5.288 1.616-10.87-1.395-12.486-6.68l-2.497-8.443c-.881-3.084.955-6.24 4.187-6.901 2.791-.514 5.508 1.321 6.316 4.038"/>
    <path stroke="#000" stroke-miterlimit="10" stroke-width="3" d="M444.269 161.686l9.107 30.027-39.66 11.966-1.396-4.772-3.011.881c-5.288 1.616-10.87-1.395-12.486-6.68l-2.497-8.443c-.881-3.084.955-6.24 4.187-6.901 2.791-.514 5.508 1.321 6.316 4.038"/>
    <path fill="#fff" stroke="#000" stroke-miterlimit="10" stroke-width="3" d="M400.714 168.146l4.848 16.298c.881 2.863 3.892 4.552 6.757 3.671 2.864-.881 4.553-3.891 3.672-6.754l-4.847-16.298-10.43 3.083zM411.145 164.989l4.847 16.298c.882 2.864 3.893 4.552 6.757 3.671 2.865-.881 4.554-3.891 3.673-6.754l-4.848-16.298-10.429 3.083z"/>
    <path fill="#fff" stroke="#000" stroke-miterlimit="10" stroke-width="3" d="M421.576 161.906l4.847 16.298c.881 2.863 3.893 4.552 6.757 3.671 2.864-.881 4.554-3.891 3.672-6.754l-4.847-16.299-10.429 3.084zM432.002 158.749l4.848 16.298c.881 2.863 3.892 4.552 6.757 3.671 2.864-.881 4.553-3.891 3.672-6.754l-4.847-16.298-10.43 3.083z"/>
    <path fill="#86ED18" d="M389.478 170.056l5.435 17.986-26 12.554-7.932-26.356 28.497-4.184z"/>
    <path stroke="#000" stroke-miterlimit="10" stroke-width="3" d="M390.8 173.579l5.362 18.06-26.074 12.407-7.858-26.356 28.57-4.111z"/>
    <path fill="#fff" stroke="#000" stroke-miterlimit="10" stroke-width="3" d="M391.832 177.248l3.184 10.695 7.884-2.346-3.185-10.694-7.883 2.345z"/>
    <path stroke="#000" stroke-miterlimit="10" stroke-width="3" d="M196.024 224.456l6.757 2.496"/>
    <path fill="#fff" d="M179.943 225.116l2.79 1.028 1.837-4.992"/>
    <path stroke="#000" stroke-miterlimit="10" stroke-width="3" d="M179.943 225.116l2.79 1.028 1.837-4.992"/>
    <path fill="#fff" d="M226.8 225.998l-10.209 27.897-38.779-14.169 1.689-4.405-.881-.293c-4.921-1.762-7.418-7.195-5.656-12.114l2.938-7.855c1.029-2.79 4.334-4.185 7.124-2.863 2.424 1.174 3.452 4.111 2.498 6.607"/>
    <path stroke="#000" stroke-miterlimit="10" stroke-width="3" d="M226.8 225.998l-10.209 27.897-38.779-14.169 1.689-4.405-.881-.293c-4.921-1.762-7.418-7.195-5.656-12.114l2.938-7.855c1.029-2.79 4.334-4.185 7.124-2.863 2.424 1.174 3.452 4.111 2.498 6.607"/>
    <path fill="#fff" stroke="#000" stroke-miterlimit="10" stroke-width="3" d="M190.225 206.103l-5.582 15.05c-.955 2.643.367 5.653 3.011 6.607 2.644.954 5.655-.367 6.61-3.01l5.582-15.05-9.621-3.597z"/>
    <path fill="#fff" stroke="#000" stroke-miterlimit="10" stroke-width="3" d="M199.846 209.699l-5.581 15.05c-.955 2.643.367 5.653 3.011 6.608 2.644.954 5.655-.367 6.61-3.01l5.582-15.05-9.622-3.598zM209.54 213.297l-5.581 15.05c-.955 2.643.367 5.653 3.011 6.608 2.644.954 5.655-.367 6.61-3.01l5.582-15.05-9.622-3.598zM219.234 216.821l-5.582 15.05c-.954 2.643.368 5.653 3.012 6.608 2.644.954 5.655-.367 6.61-3.01l5.582-15.05-9.622-3.598z"/>
    <path fill="#86ED18" d="M177.513 198.834l-6.096 16.665-26.807-5.286 8.887-24.447 24.016 13.068z"/>
    <path stroke="#000" stroke-miterlimit="10" stroke-width="3" d="M179.721 204.634l-6.243 16.739-26.734-5.433 9.033-24.447 23.944 13.141z"/>
    <path fill="#fff" stroke="#000" stroke-miterlimit="10" stroke-width="3" d="M178.408 208.037l-3.677 9.912 7.3 2.706 3.677-9.912-7.3-2.706z"/>
    <path fill="#000" d="M305.239 195.971c0 3.377 2.423 7.929 5.802 8.002 3.378 0 6.39-4.552 6.463-7.929v-2.79l-12.192-.073-.073 2.79z"/>
    <path fill="#fff" d="M315.375 198.688a4.186 4.186 0 1 0 0-8.371 4.186 4.186 0 0 0 0 8.371z"/>
    <path stroke="#000" stroke-miterlimit="10" stroke-width="3" d="M304.946 197.806c0 3.377 2.717 6.094 6.096 6.167 3.378 0 6.095-2.716 6.169-6.093l-.073-4.626-12.192-.073v4.625z"/>
    <path fill="#000" d="M194.041 355.354c-4.995 0-9.989-1.688-14.102-5.212-35.621-30.467-98.49-98.817-101.207-101.753-8.08-8.81-7.492-22.539 1.322-30.614 8.813-8.076 22.547-7.488 30.626 1.321.661.661 63.751 69.304 97.462 98.156 9.107 7.782 10.136 21.437 2.35 30.541-4.259 4.992-10.355 7.561-16.451 7.561z"/>
    <path fill="#fff" stroke="#000" stroke-miterlimit="10" stroke-width="3" d="M242.881 350.362l7.858-7.855-30.553-30.541-11.825-11.82c-2.203-2.202-5.802-2.276-8.005-.073-2.204 2.202-2.277 5.653-.074 7.855.074 0 42.599 42.434 42.599 42.434z"/>
    <path fill="#fff" d="M219.673 373.635l2.497 2.496a5.449 5.449 0 0 1 0 7.709 5.454 5.454 0 0 1-7.712 0l-40.542-40.525 41.203-40.966c2.203-2.202 5.802-2.422 8.006-.22 2.203 2.203 2.276 5.506.073 7.709l-10.576 10.571c12.192 12.187 32.61 32.523 32.61 32.743a5.449 5.449 0 0 1 0 7.709 5.454 5.454 0 0 1-7.712 0"/>
    <path stroke="#000" stroke-miterlimit="10" stroke-width="3" d="M219.673 373.635l2.497 2.496a5.449 5.449 0 0 1 0 7.709 5.454 5.454 0 0 1-7.712 0l-40.542-40.525 41.203-40.966c2.203-2.202 5.802-2.422 8.006-.22 2.203 2.203 2.276 5.506.073 7.709l-10.576 10.571c12.192 12.187 32.61 32.523 32.61 32.743a5.449 5.449 0 0 1 0 7.709 5.454 5.454 0 0 1-7.712 0"/>
    <path fill="#fff" d="M229.884 368.496a5.453 5.453 0 0 0 7.711 0 5.449 5.449 0 0 0 0-7.709l-2.497-2.496"/>
    <path stroke="#000" stroke-miterlimit="10" stroke-width="3" d="M229.884 368.496a5.453 5.453 0 0 0 7.711 0 5.449 5.449 0 0 0 0-7.709l-2.497-2.496"/>
    <path fill="#fff" d="M227.388 365.926l2.497 2.496a5.449 5.449 0 0 1 0 7.709 5.454 5.454 0 0 1-7.712 0l-6.757-6.755"/>
    <path stroke="#000" stroke-miterlimit="10" stroke-width="3" d="M227.388 365.926l2.497 2.496a5.449 5.449 0 0 1 0 7.709 5.454 5.454 0 0 1-7.712 0l-6.757-6.755"/>
    <path fill="#fff" stroke="#000" stroke-miterlimit="10" stroke-width="3" d="M200.139 378.774l12.045-11.966a5.453 5.453 0 0 1 7.712 7.708l-12.045 11.967-7.712-7.709zM177.371 356.016l12.045-11.967a5.454 5.454 0 0 1 7.712 0 5.449 5.449 0 0 1 0 7.709l-12.045 11.966-7.712-7.708z"/>
    <path fill="#fff" stroke="#000" stroke-miterlimit="10" stroke-width="3" d="M184.789 363.43l12.045-11.966a5.451 5.451 0 0 1 7.711 0 5.448 5.448 0 0 1 0 7.708L192.5 371.139l-7.711-7.709z"/>
    <path fill="#fff" stroke="#000" stroke-miterlimit="10" stroke-width="3" d="M192.501 371.066l12.045-11.967a5.454 5.454 0 0 1 7.712 0 5.448 5.448 0 0 1 0 7.708l-12.045 11.967-7.712-7.708z"/>
    <path stroke="#000" stroke-miterlimit="10" stroke-width="3" d="M445.003 165.944c26.22-8.369 53.541 10.425 54.423 37.956 1.469 44.122-19.096 86.556-56.113 108.874-53.027 32.009-132.201 9.544-173.11-52.271l-73.519-105.865c-18.361-26.429-15.424-62.182 7.051-85.308l2.423-2.496c26.808-27.604 71.316-27.09 97.536 1.101 22.768 24.447 24.163 61.816 3.305 87.878l-58.389 71.433c-8.153 10.204-14.175 9.103-24.164 5.065"/>
    <path stroke="#000" stroke-miterlimit="10" stroke-width="3" d="M276.864 7.462c-16.676-5.98-35.126-7.707-53.828-4.056-28.966 5.655-52.654 23.186-66.911 46.572-12.628 20.818-17.963 46.251-12.93 72.029"/>
    <path stroke="#86ED18" stroke-miterlimit="10" stroke-width="8" d="M266.441 81.703a37.8 37.8 0 0 0-20.074-1.513c-10.803 2.11-19.636 8.647-24.954 17.369-4.709 7.763-6.698 17.248-4.822 26.861"/>
</svg>
