<svg xmlns="http://www.w3.org/2000/svg" width="595" height="675" fill="none" viewBox="0 0 595 675">
    <path stroke="#86ED18" stroke-miterlimit="10" stroke-width="7.451" d="M580.243 310.497c-67.083-123.093-222.493 5.227-327.612.001-105.118-5.097-176.756 30.969-222.546 109.764-56.498 97.09-23.696 206.361 113.258 246.492s517.212-208.892 436.9-356.257z"/>
    <path stroke="#000" stroke-miterlimit="10" stroke-width="45" d="M342.866 213.705v21.614c0 29.119-15.11 55.536-50.733 52.033l-20.513-6.104"/>
    <path fill="#000" d="M437.626 218.608c29.92 0 54.335-24.316 54.335-54.335 0-9.906-8.105-18.011-18.011-18.011-9.907 0-18.012 8.105-18.012 18.011 0 10.107-8.205 18.312-18.312 18.312-10.106 0-18.311-8.205-18.311-18.312v-6.204c0-9.906-8.106-18.011-18.012-18.011s-18.011 8.105-18.011 18.011v6.204c0 30.019 24.415 54.335 54.334 54.335z"/>
    <path fill="#fff" d="M420.215 154.366l-2.402.101v-4.303"/>
    <path stroke="#000" stroke-miterlimit="10" stroke-width="3" d="M420.215 154.366l-2.402.101v-4.303"/>
    <path fill="#fff" d="M384.892 142.259v23.715h32.921v-3.802h.701c4.202 0 7.505-3.403 7.505-7.505v-6.705c0-2.401-2.102-4.302-4.503-4.102-2.102.2-3.703 2.101-3.703 4.303"/>
    <path stroke="#000" stroke-miterlimit="10" stroke-width="3" d="M384.892 142.259v23.715h32.921v-3.802h.701c4.202 0 7.505-3.403 7.505-7.505v-6.705c0-2.401-2.102-4.302-4.503-4.102-2.102.2-3.703 2.101-3.703 4.303"/>
    <path fill="#fff" stroke="#000" stroke-miterlimit="10" stroke-width="3" d="M417.713 137.356l.1 12.808c0 2.301-1.801 4.103-4.103 4.103-2.301 0-4.102-1.802-4.102-4.103l-.1-12.808h8.205z"/>
    <path fill="#fff" stroke="#000" stroke-miterlimit="10" stroke-width="3" d="M409.508 137.456l.1 12.808c0 2.302-1.802 4.103-4.103 4.103-2.301 0-4.103-1.801-4.103-4.103l-.1-12.808h8.206z"/>
    <path fill="#fff" stroke="#000" stroke-miterlimit="10" stroke-width="3" d="M401.303 137.456l.1 12.808c0 2.302-1.801 4.103-4.102 4.103-2.302 0-4.103-1.801-4.103-4.103l-.1-12.808h8.205z"/>
    <path fill="#fff" stroke="#000" stroke-miterlimit="10" stroke-width="3" d="M393.098 137.456l.1 12.808c0 2.302-1.801 4.103-4.103 4.103-2.301 0-4.103-1.801-4.103-4.103l-.1-12.808h8.206z"/>
    <path fill="#86ED18" d="M429.22 133.653v14.11l21.514 3.402v-20.714l-21.514 3.202z"/>
    <path stroke="#000" stroke-miterlimit="10" stroke-width="3" d="M426.018 137.356v14.209l21.614 3.302-.1-20.813-21.514 3.302z"/>
    <path fill="#fff" stroke="#000" stroke-miterlimit="10" stroke-width="3" d="M426.055 140.26l.04 8.405-8.205.039-.04-8.405 8.205-.039z"/>
    <path fill="#fff" d="M347.868 213.005l-25.916-.1v-4.403c-4.503-2.402-8.005-6.604-9.106-12.008-1.601-7.104 1.401-14.209 7.004-18.212.501-.4 1.201-.8 2.102-1 2.601-.601 5.103 1.101 5.703 3.602.401 1.901-.4 3.702-1.801 4.803 0 0-.2.2-.3.2-2.702 1.902-4.103 5.204-3.302 8.506 1.001 4.503 5.403 7.304 9.806 6.304 4.503-1.001 7.305-5.404 6.304-9.806-.7-3.403-3.402-5.804-6.604-6.405-.1 0-.4-.1-.4-.1-1.801-.4-3.302-1.701-3.703-3.602-.6-2.602 1.101-5.103 3.603-5.704.9-.2 1.701-.1 2.301 0 3.803.801 7.305 2.702 9.806 5.604h13.109"/>
    <path stroke="#000" stroke-miterlimit="10" stroke-width="3" d="M347.868 213.005l-25.916-.1v-4.403c-4.503-2.402-8.005-6.604-9.106-12.008-1.601-7.104 1.401-14.209 7.004-18.212.501-.4 1.201-.8 2.102-1 2.601-.601 5.103 1.101 5.703 3.602.401 1.901-.4 3.702-1.801 4.803 0 0-.2.2-.3.2-2.702 1.902-4.103 5.204-3.302 8.506 1.001 4.503 5.403 7.304 9.806 6.304 4.503-1.001 7.305-5.404 6.304-9.806-.7-3.403-3.402-5.804-6.604-6.405-.1 0-.4-.1-.4-.1-1.801-.4-3.302-1.701-3.703-3.602-.6-2.602 1.101-5.103 3.603-5.704.9-.2 1.701-.1 2.301 0 3.803.801 7.305 2.702 9.806 5.604h13.109"/>
    <path fill="#fff" d="M352.972 169.376v-3.702c.1-2.602-1.901-4.803-4.503-4.903-2.602-.1-4.803 1.901-4.903 4.503v27.617"/>
    <path stroke="#000" stroke-miterlimit="10" stroke-width="3" d="M352.972 169.376v-3.702c.1-2.602-1.901-4.803-4.503-4.903-2.602-.1-4.803 1.901-4.903 4.503v27.617"/>
    <path fill="#fff" d="M358.476 169.877c.1-2.602-1.902-4.803-4.503-4.903-2.602-.1-4.803 1.901-4.904 4.503v23.415"/>
    <path stroke="#000" stroke-miterlimit="10" stroke-width="3" d="M358.476 169.877c.1-2.602-1.902-4.803-4.503-4.903-2.602-.1-4.803 1.901-4.904 4.503v23.415"/>
    <path fill="#fff" stroke="#000" stroke-miterlimit="10" stroke-width="3" d="M265.316 375.609l50.332-40.026-12.208-59.938c-2.101-13.009-14.309-21.914-27.418-19.813-8.105 1.301-13.108 5.003-16.61 11.808-16.511 32.12 5.904 107.969 5.904 107.969zM244.302 258.734a9.206 9.206 0 0 1-9.205-9.206 9.206 9.206 0 1 1 18.411 0 9.206 9.206 0 0 1-9.206 9.206z"/>
    <path fill="#fff" stroke="#000" stroke-miterlimit="10" stroke-width="3" d="M274.522 270.842c-17.905 0-32.421-14.516-32.421-32.421 0-17.906 14.516-32.421 32.421-32.421 17.906 0 32.421 14.515 32.421 32.421 0 17.905-14.515 32.421-32.421 32.421z"/>
    <path fill="#000" d="M275.924 227.014a1.903 1.903 0 1 1 .001-3.805 1.903 1.903 0 0 1-.001 3.805zM288.531 221.91a1.9 1.9 0 1 1 0-3.802 1.9 1.9 0 0 1 0 3.802zM293.934 233.517c1.401 3.703.6 9.807-3.102 11.208-3.702 1.401-9.006-2.402-10.407-6.104l-1.2-3.102 13.508-5.104 1.201 3.102z"/>
    <path fill="#fff" d="M282.027 241.123a5.003 5.003 0 1 1 0-10.007 5.003 5.003 0 0 1 0 10.007z"/>
    <path stroke="#000" stroke-miterlimit="10" stroke-width="3" d="M295.035 235.419c1.401 3.702-.5 7.905-4.203 9.306-3.702 1.401-7.905-.501-9.306-4.203l-2.301-5.003 13.509-5.104 2.301 5.004z"/>
    <path fill="#fff" stroke="#000" stroke-miterlimit="10" stroke-width="3" d="M457.939 543.817h-172.71V398.324h50.732l121.978 145.493z"/>
    <path fill="#000" d="M220.589 378.811c19.912 0 38.224-11.408 47.13-29.619 12.308-25.317 15.31-60.839 15.61-64.742 1.001-12.408-8.305-23.215-20.713-24.215-12.408-.901-23.215 8.305-24.216 20.713-.7 8.405-4.003 33.621-11.207 48.531-2.001 4.103-5.604 4.403-7.005 4.403-2.001-.1-5.803-1.201-8.005-7.005-.9-2.601-7.304-22.614-11.707-36.223-3.803-11.807-16.411-18.412-28.318-14.609-11.808 3.802-18.412 16.41-14.61 28.318 4.103 13.008 11.207 35.123 12.308 38.024 7.905 21.414 26.317 35.423 48.031 36.524 1.001-.1 1.901-.1 2.702-.1z"/>
    <path fill="#fff" d="M335.961 398.324l121.978 145.493h127.482s7.205-27.818-26.317-39.826c-10.206-3.702-51.333-19.912-64.541-30.519-4.803-3.903-76.149-69.045-76.149-69.045"/>
    <path stroke="#000" stroke-miterlimit="10" stroke-width="3" d="M335.961 398.324l121.978 145.493h127.482s7.205-27.818-26.317-39.826c-10.206-3.702-51.333-19.912-64.541-30.519-4.803-3.903-76.149-69.045-76.149-69.045M181.262 274.344l-7.205 2.402"/>
    <path fill="#fff" d="M199.474 275.345l-3.002.9-1.701-5.303"/>
    <path stroke="#000" stroke-miterlimit="10" stroke-width="3" d="M199.474 275.345l-3.002.9-1.701-5.303"/>
    <path fill="#fff" d="M149.942 274.344l9.606 29.819 39.425-12.808-1.601-4.703 3.002-1.001c5.304-1.701 8.105-7.304 6.404-12.608l-2.802-8.405c-1-3.002-4.302-4.603-7.404-3.302-2.602 1.201-3.803 4.202-2.902 6.904"/>
    <path fill="#fff" d="M149.942 274.344l9.606 29.819 39.425-12.808-1.601-4.703 3.002-1.001c5.304-1.701 8.105-7.304 6.404-12.608l-2.802-8.405c-1-3.002-4.302-4.603-7.404-3.302-2.602 1.201-3.803 4.202-2.902 6.904"/>
    <path stroke="#000" stroke-miterlimit="10" stroke-width="3" d="M149.942 274.344l9.606 29.819 39.425-12.808-1.601-4.703 3.002-1.001c5.304-1.701 8.105-7.304 6.404-12.608l-2.802-8.405c-1-3.002-4.302-4.603-7.404-3.302-2.602 1.201-3.803 4.202-2.902 6.904"/>
    <path fill="#fff" stroke="#000" stroke-miterlimit="10" stroke-width="3" d="M189.467 254.832l5.303 16.11c.901 2.902-.6 6.004-3.502 6.904-2.902.901-6.004-.6-6.905-3.502l-5.303-16.11 10.407-3.402z"/>
    <path fill="#fff" stroke="#000" stroke-miterlimit="10" stroke-width="3" d="M179.061 258.234l5.303 16.11c.901 2.902-.6 6.004-3.502 6.904-2.902.901-6.004-.6-6.905-3.502l-5.303-16.11 10.407-3.402z"/>
    <path fill="#fff" stroke="#000" stroke-miterlimit="10" stroke-width="3" d="M168.753 261.636l5.304 16.11c.9 2.902-.601 6.004-3.503 6.904-2.901.901-6.003-.6-6.904-3.502l-5.303-16.11 10.406-3.402z"/>
    <path fill="#fff" stroke="#000" stroke-miterlimit="10" stroke-width="3" d="M158.347 264.938l5.304 16.11c.9 2.902-.601 6.004-3.503 6.905-2.902.9-6.004-.6-6.904-3.502l-5.303-16.111 10.406-3.402z"/>
    <path fill="#86ED18" d="M199.774 250.028l5.803 17.912 28.519-4.503-8.506-26.217-25.816 12.808z"/>
    <path stroke="#000" stroke-miterlimit="10" stroke-width="3" d="M200.674 253.631l5.904 17.911 28.518-4.703-8.605-26.117-25.817 12.909z"/>
    <path fill="#fff" stroke="#000" stroke-miterlimit="10" stroke-width="3" d="M201.975 257.233l3.503 10.607-7.805 2.601-3.503-10.606 7.805-2.602z"/>
    <path fill="#fff" d="M369.883 368.804l-34.022 29.419 79.951 94.961s11.207-6.904 11.207-26.217c0-24.716-14.609-41.126-11.007-54.335.601-2.101 25.517-74.648-20.013-97.062-42.727-21.013-115.174 40.026-130.784 60.039 0 0 2.402 11.307 12.809 18.311 6.404 4.303 12.007 4.003 17.811 4.303 5.804.3 39.926 0 39.926 0"/>
    <path stroke="#000" stroke-miterlimit="10" stroke-width="3" d="M369.883 368.804l-34.022 29.419 79.951 94.961s11.207-6.904 11.207-26.217c0-24.716-14.609-41.126-11.007-54.335.601-2.101 25.517-74.648-20.013-97.062-42.727-21.013-115.174 40.026-130.784 60.039 0 0 2.402 11.307 12.809 18.311 6.404 4.303 12.007 4.003 17.811 4.303 5.804.3 39.926 0 39.926 0"/>
    <path fill="#fff" d="M335.361 213.005l28.518.1V174.38c.1-2.602-1.901-4.803-4.503-4.903-2.601-.1-4.803 1.901-4.903 4.503v19.012"/>
    <path stroke="#000" stroke-miterlimit="10" stroke-width="3" d="M335.361 213.005l28.518.1V174.38c.1-2.602-1.901-4.803-4.503-4.903-2.601-.1-4.803 1.901-4.903 4.503v19.012M204.076 224.912h-72.947c-16.91 0-30.519 13.709-30.519 30.52 0 20.813 20.313 35.522 40.026 29.018l11.407-3.702"/>
    <path stroke="#000" stroke-miterlimit="10" stroke-width="3" d="M285.23 403.427c-17.811 30.419-52.534 50.932-90.258 50.932-56.636 0-105.868-45.929-105.868-102.565 0-53.235 40.326-100.065 92.459-102.366 4.703-.2 3.403-.1 5.404-.3 8.005-.501 15.61-2.402 15.81-13.409.4-32.621 28.518-32.621 36.624-32.621h23.415l1.801 4.503s9.606 25.717-23.615 33.321"/>
    <path fill="#fff" stroke="#000" stroke-miterlimit="10" stroke-width="3" d="M475.249 225.913c-8.205-19.213-18.111-48.031-13.208-65.743 1.701-6.104 5.103-9.906 11.407-12.307a19.646 19.646 0 0 1 25.316 11.407l25.017 50.332c-14.009 9.606-30.62 15.51-48.532 16.311z"/>
    <path stroke="#000" stroke-miterlimit="10" stroke-width="3" d="M384.891 144.361h-7.304c-.4-3.903-.601-8.005-.601-12.008 0-64.542 65.242-113.873 133.386-85.555 20.713 8.605 37.324 25.216 45.929 45.93 28.319 68.143-21.013 133.385-85.554 133.385H304.44"/>
    <path fill="#fff" stroke="#000" stroke-miterlimit="10" stroke-width="3" d="M504.168 6.472h22.114v22.114h-22.114V6.472zM504.168 36.591h22.114v22.115h-22.114V36.59zM504.168 66.61h22.114v22.115h-22.114V66.61z"/>
    <path stroke="#86ED18" stroke-miterlimit="10" stroke-width="5" d="M544.395 1.769L525.683 20.48l-7.805-7.805M544.395 32.288L525.683 51l-7.805-7.805"/>
    <path stroke="#000" stroke-linecap="round" stroke-miterlimit="10" stroke-width="36" d="M536.689 154.067v32.621c0 8.005-23.015 17.011-32.521 0s-11.407-22.115-11.407-22.115"/>
    <path stroke="#000" stroke-miterlimit="10" stroke-width="3" d="M495.362 136.755c.1-1 0-1.901 0-2.801"/>
    <path fill="#000" stroke="#000" stroke-miterlimit="10" stroke-width="1.5" d="M484.156 134.854a.4.4 0 1 1 0-.8.4.4 0 0 1 0 .8zM482.354 136.856a.4.4 0 1 1 .001-.801.4.4 0 0 1-.001.801zM487.959 134.854a.4.4 0 1 1 0-.8.4.4 0 0 1 0 .8zM484.156 138.757a.4.4 0 1 1 0-.8.4.4 0 0 1 0 .8zM486.057 136.755a.4.4 0 1 1 0-.8.4.4 0 0 1 0 .8z"/>
    <path fill="#000" d="M462.342 134.854c-.701 2.802.8 5.604 3.302 6.204 2.502.601 5.103-1.1 5.804-4.002l.6-2.302-9.106-2.301-.6 2.401z"/>
    <path fill="#fff" d="M468.746 141.959a3.203 3.203 0 1 1 .001-6.405 3.203 3.203 0 0 1-.001 6.405z"/>
    <path stroke="#000" stroke-miterlimit="10" stroke-width="3" d="M462.042 135.254c-.601 2.502.9 5.104 3.402 5.704 2.501.601 5.103-.9 5.704-3.402l.9-2.802-9.106-2.301-.9 2.801z"/>
    <path fill="#fff" stroke="#000" stroke-miterlimit="10" stroke-width="3" d="M498.064 138.157a6.204 6.204 0 1 1 .001-12.409 6.204 6.204 0 0 1-.001 12.409z"/>
    <path fill="#fff" stroke="#000" stroke-miterlimit="10" stroke-width="3" d="M476.35 154.267c-12.047 0-21.814-9.767-21.814-21.814 0-12.048 9.767-21.814 21.814-21.814 12.048 0 21.814 9.766 21.814 21.814 0 12.047-9.766 21.814-21.814 21.814z"/>
    <path stroke="#000" stroke-miterlimit="10" stroke-width="3" d="M462.241 118.144a4.648 4.648 0 0 1-4.603 4.002c-2.201 0-4.202-1.601-4.602-3.802-.301-1.802.4-3.603 1.801-4.603.1-.1 0-.3-.1-.3-.701.1-1.401-.001-2.102-.201-1.501-.5-2.701-1.801-3.002-3.302-.6-2.902 1.401-5.503 4.203-5.703 1.701-.1 3.302.7 4.203 2.001.1.1.3 0 .2-.1-.2-.901-.1-2.001.2-3.002.7-2.602 2.902-4.703 5.604-5.204 3.802-.7 7.304 1.702 8.305 5.204 6.004.4 10.206 4.203 11.307 8.906"/>
    <path fill="#000" stroke="#000" stroke-miterlimit="10" stroke-width=".75" d="M484.957 134.954a.4.4 0 1 1 0-.8.4.4 0 0 1 0 .8zM482.956 136.956a.4.4 0 1 1 0-.8.4.4 0 0 1 0 .8zM488.858 134.954a.4.4 0 1 1 0-.8.4.4 0 0 1 0 .8zM484.957 139.057a.4.4 0 1 1 0-.8.4.4 0 0 1 0 .8zM486.958 136.956a.4.4 0 1 1 0-.8.4.4 0 0 1 0 .8z"/>
    <path stroke="#000" stroke-miterlimit="10" stroke-width="3" d="M478.752 127.349a2.69 2.69 0 0 1-2.702 2.702 2.69 2.69 0 0 1-2.702-2.702M465.243 127.349a2.69 2.69 0 0 1-2.702 2.702 2.69 2.69 0 0 1-2.702-2.702"/>
    <path fill="#000" d="M463.643 139.457a4.911 4.911 0 0 0 4.903 4.903 4.91 4.91 0 0 0 4.903-4.903v-3.402h-9.706l-.1 3.402z"/>
    <path fill="#fff" d="M470.346 142.459a3.402 3.402 0 1 1 0-6.804 3.402 3.402 0 0 1 0 6.804z"/>
    <path stroke="#000" stroke-miterlimit="10" stroke-width="3" d="M463.643 140.458a4.911 4.911 0 0 0 4.903 4.903 4.91 4.91 0 0 0 4.903-4.903v-3.702h-9.706l-.1 3.702z"/>
    <path fill="#fff" d="M528.484 133.954V112.64c0-2.301-1.801-4.103-4.103-4.103-2.301 0-4.102 1.802-4.102 4.103l-.1 25.016-9.106-.1c-2.302 0-4.103 1.801-4.103 4.103 0 2.301 1.801 4.102 4.103 4.102l9.106.1v7.205l33.021.3v-29.219"/>
    <path stroke="#000" stroke-miterlimit="10" stroke-width="3" d="M528.484 133.954V112.64c0-2.301-1.801-4.103-4.103-4.103-2.301 0-4.102 1.802-4.102 4.103l-.1 25.016-9.106-.1c-2.302 0-4.103 1.801-4.103 4.103 0 2.301 1.801 4.102 4.103 4.102l9.106.1v7.205l33.021.3v-29.219"/>
    <path fill="#fff" d="M536.789 124.047v10.107c0 2.301 1.801 4.102 4.103 4.102 2.301 0 4.103-1.801 4.103-4.102v-10.107 10.107c0 2.301 1.801 4.102 4.102 4.102 2.302 0 4.103-1.801 4.103-4.102v-10.107l-24.816-.1v10.107c0 2.301 1.801 4.102 4.103 4.102 2.301 0 4.102-1.801 4.102-4.102"/>
    <path stroke="#000" stroke-miterlimit="10" stroke-width="3" d="M536.789 124.047v10.107c0 2.301 1.801 4.102 4.103 4.102 2.301 0 4.103-1.801 4.103-4.102v-10.107 10.107c0 2.301 1.801 4.102 4.102 4.102 2.302 0 4.103-1.801 4.103-4.102v-10.107l-24.816-.1v10.107c0 2.301 1.801 4.102 4.103 4.102 2.301 0 4.102-1.801 4.102-4.102"/>
</svg>
