<svg xmlns="http://www.w3.org/2000/svg" width="352" height="345" fill="none" viewBox="0 0 352 345">
    <path stroke="#86ED18" stroke-miterlimit="10" stroke-width="3" d="M157.109 154.986l55.784-49.463 12.719 7.037 40.699-48.74 20.757 8.83 38.438-53.023"/>
    <path stroke="#202020" stroke-miterlimit="10" stroke-width="3" d="M347.653 171.657H166.07V4.348"/>
    <path fill="#202020" d="M334.359 155.241l-2.742 2.93 14.498 13.473-14.498 13.486 2.742 2.93L352 171.644l-17.641-16.403zM182.48 17.647l-2.942 2.743L166.07 5.887 152.602 20.39l-2.943-2.743L166.07 0l16.41 17.647z"/>
    <path fill="#000" d="M201.084 249.391c-32.62 0-61.857-16.55-77.077-29.649l36.646-42.586-.134-.121c.295.255 30.2 24.926 55.611 12.831 6.446-3.064 18.269-25.447 23.445-44.352 4.093-14.972 19.54-23.776 34.506-19.681 14.966 4.094 23.766 19.547 19.674 34.518-.415 1.525-4.293 15.373-11.609 31.161-11.515 24.832-25.612 41.355-41.902 49.102-13.147 6.248-26.401 8.777-39.16 8.777z"/>
    <path fill="#fff" d="M260.733 126.502l9.483-32.311c1.016-3.439-.95-7.065-4.387-8.081-3.437-1.017-7.062.95-8.078 4.388l-11.194 37.837-13.736-4.108c-3.437-1.016-7.062.95-8.078 4.389-1.017 3.438.95 7.064 4.387 8.081l13.802 4.108-3.17 10.877 49.927 14.985 12.919-44.219"/>
    <path stroke="#000" stroke-miterlimit="10" stroke-width="3" d="M260.733 126.502l9.483-32.311c1.016-3.439-.95-7.065-4.387-8.081-3.437-1.017-7.062.95-8.078 4.388l-11.194 37.837-13.736-4.108c-3.437-1.016-7.062.95-8.078 4.389-1.017 3.438.95 7.064 4.387 8.081l13.802 4.108-3.17 10.877 49.927 14.985 12.919-44.219"/>
    <path fill="#fff" d="M277.652 115.17l-4.521 15.266c-1.016 3.438.95 7.064 4.387 8.081 3.437 1.017 7.062-.95 8.078-4.389l4.534-15.319-4.52 15.266c-1.017 3.438.949 7.064 4.387 8.081a6.507 6.507 0 0 0 8.078-4.389l4.534-15.319-37.462-11.105-4.48 15.279c-1.017 3.439.949 7.065 4.386 8.082 3.438 1.016 7.062-.95 8.078-4.389"/>
    <path stroke="#000" stroke-miterlimit="10" stroke-width="3" d="M277.652 115.17l-4.521 15.266c-1.016 3.438.95 7.064 4.387 8.081 3.437 1.017 7.062-.95 8.078-4.389l4.534-15.319-4.52 15.266c-1.017 3.438.949 7.064 4.387 8.081a6.507 6.507 0 0 0 8.078-4.389l4.534-15.319-37.462-11.105-4.48 15.279c-1.017 3.439.949 7.065 4.386 8.082 3.438 1.016 7.062-.95 8.078-4.389"/>
    <path fill="#fff" d="M144.991 296.901c7.972-17.246 33.222-68.863 32.941-79.781-.561-21.715-17.6-39.335-39.32-39.335s-29.731 9.767-39.32 39.335l-10.847 41.048"/>
    <path stroke="#000" stroke-miterlimit="10" stroke-width="3" d="M144.991 296.901c7.972-17.246 33.222-68.863 32.941-79.781-.561-21.715-17.6-39.335-39.32-39.335s-29.731 9.767-39.32 39.335l-10.847 41.048"/>
    <path fill="#fff" stroke="#000" stroke-miterlimit="10" stroke-width="3" d="M115.193 159.348c5.555 0 10.058-4.498 10.058-10.048 0-5.549-4.503-10.048-10.058-10.048-5.554 0-10.057 4.499-10.057 10.048 0 5.55 4.503 10.048 10.057 10.048z"/>
    <path fill="#fff" stroke="#000" stroke-miterlimit="10" stroke-width="3" d="M150.167 186.348c19.478 0 35.269-15.766 35.269-35.215 0-19.448-15.791-35.214-35.269-35.214-19.478 0-35.268 15.766-35.268 35.214 0 19.449 15.79 35.215 35.268 35.215z"/>
    <path fill="#000" d="M148.325 147.059a2.59 2.59 0 0 0 2.547-2.629 2.588 2.588 0 0 0-2.641-2.535 2.589 2.589 0 0 0-2.547 2.629 2.59 2.59 0 0 0 2.641 2.535zM163.625 147.059a2.59 2.59 0 0 0 2.547-2.629 2.588 2.588 0 0 0-2.641-2.535 2.588 2.588 0 0 0-2.547 2.629 2.588 2.588 0 0 0 2.641 2.535z"/>
    <path stroke="#000" stroke-miterlimit="10" stroke-width="3" d="M92.644 309.812l-30.186-.133c-33.57-.188-60.639-27.508-60.452-61.024.188-33.461 27.458-60.434 60.947-60.341.12 0 .228 0 .348-.026l1.659-.214c8.372-1.258 15.5-7.265 16.303-20.926 2.688-45.262 47.292-56.461 56.787-56.407l15.541.04-.173 5.285s-1.418 29.756-37.89 23.186"/>
    <path fill="#fff" d="M163.368 153.796c0 3.064-2.889 5.539-6.46 5.539s-6.46-2.489-6.46-5.539"/>
    <path stroke="#000" stroke-miterlimit="10" stroke-width="3" d="M163.368 153.796c0 3.064-2.889 5.539-6.46 5.539s-6.46-2.489-6.46-5.539"/>
    <path fill="#fff" d="M171.74 239.196c-3.945 1.204-7.69 2.93-10.886 5.352-11.636 8.884-11.944 20.229-10.553 28.765 1.391 8.536 7.089 20.538 22.643 29.502 1.993-.321 11.729-1.9 11.729-1.9l-1.056-6.462s11.997-1.111 14.431-1.512c1.631 2.355 4.801 5.017 4.801 5.017l10.9-1.779-1.578-9.7s6.42-6.382 8.386-9.66c4.721-.321 9.014-4.79 9.014-15.935-.254-1.592-1.07-1.953-1.953-1.806-.882.147-4.319-.161-5.109-.83-.789-.669-3.784-7.198-8.198-11.934 1.11-5.753 5.31-9.566 5.31-9.566-4.922-1.593-9.804-2.449-18.818.147-2.501-.134-6.727-.442-10.686-.348"/>
    <path stroke="#000" stroke-miterlimit="10" stroke-width="3" d="M171.74 239.196c-3.945 1.204-7.69 2.93-10.886 5.352-11.636 8.884-11.944 20.229-10.553 28.765 1.391 8.536 7.089 20.538 22.643 29.502 1.993-.321 11.729-1.9 11.729-1.9l-1.056-6.462s11.997-1.111 14.431-1.512c1.631 2.355 4.801 5.017 4.801 5.017l10.9-1.779-1.578-9.7s6.42-6.382 8.386-9.66c4.721-.321 9.014-4.79 9.014-15.935-.254-1.592-1.07-1.953-1.953-1.806-.882.147-4.319-.161-5.109-.83-.789-.669-3.784-7.198-8.198-11.934 1.11-5.753 5.31-9.566 5.31-9.566-4.922-1.593-9.804-2.449-18.818.147-2.501-.134-6.727-.442-10.686-.348"/>
    <path stroke="#000" stroke-miterlimit="10" stroke-width="3" d="M149.953 270.651c-3.316.214-11.595.227-10.967 4.121.482 2.943 2.742 3.505 4.829 2.274 1.966-1.151 3.878-7.091-5.952-9.085M172.289 248.281a32.945 32.945 0 0 1 10.151-3.426 32.364 32.364 0 0 1 10.285-.04"/>
    <path fill="#000" d="M202.609 263.118a2.234 2.234 0 1 0-.001-4.467 2.234 2.234 0 0 0 .001 4.467zM212.118 258.663a2.234 2.234 0 1 0-.001-4.467 2.234 2.234 0 0 0 .001 4.467zM153.217 344.973l-1.124-.093c-25.745-2.061-46.864-14.249-59.449-34.332-13.134-20.965-14.98-47.643-5.029-73.198l16.638-42.854c5.617-14.463 21.894-21.635 36.352-16.015 14.457 5.619 21.626 21.902 16.009 36.365l-16.638 42.867c-3.397 8.724-3.29 17.313.268 22.986 2.875 4.589 8.038 7.305 15.353 8.081l37.101-.027h.013c15.501 0 28.073 12.564 28.086 28.084.014 15.52-12.558 28.11-28.072 28.11l-39.508.026z"/>
    <path fill="#fff" d="M225.305 290.586c-.014-3.599-2.943-6.489-6.541-6.476l-12.036.054c-3.638.013-6.567 2.957-6.594 6.583l-7.115.093.08 52.14 46.182-.362c3.597-.013 6.486-2.943 6.473-6.542-.013-3.599-2.942-6.489-6.54-6.476"/>
    <path stroke="#000" stroke-miterlimit="10" stroke-width="3" d="M225.305 290.586c-.014-3.599-2.943-6.489-6.541-6.476l-12.036.054c-3.638.013-6.567 2.957-6.594 6.583l-7.115.093.08 52.14 46.182-.362c3.597-.013 6.486-2.943 6.473-6.542-.013-3.599-2.942-6.489-6.54-6.476"/>
    <path fill="#fff" d="M227.618 329.64l11.609-.04c3.598-.013 6.487-2.943 6.473-6.542-.013-3.599-2.942-6.489-6.54-6.476l-11.675.04 11.609-.04c3.597-.013 6.486-2.943 6.473-6.542-.014-3.599-2.943-6.489-6.54-6.476l-11.676.04 11.609-.04c3.597-.013 6.486-2.943 6.473-6.542-.013-3.599-2.942-6.489-6.54-6.476l-21.573.04"/>
    <path stroke="#000" stroke-miterlimit="10" stroke-width="3" d="M227.618 329.64l11.609-.04c3.598-.013 6.487-2.943 6.473-6.542-.013-3.599-2.942-6.489-6.54-6.476l-11.675.04 11.609-.04c3.597-.013 6.486-2.943 6.473-6.542-.014-3.599-2.943-6.489-6.54-6.476l-11.676.04 11.609-.04c3.597-.013 6.486-2.943 6.473-6.542-.013-3.599-2.942-6.489-6.54-6.476l-21.573.04"/>
</svg>
