<?xml version="1.0" encoding="utf-8"?>
<!-- Generator: Adobe Illustrator 24.1.1, SVG Export Plug-In . SVG Version: 6.00 Build 0)  -->
<svg version="1.1" xmlns="http://www.w3.org/2000/svg" xmlns:xlink="http://www.w3.org/1999/xlink" x="0px" y="0px"
	 viewBox="0 0 3200 588" style="enable-background:new 0 0 3200 588;" xml:space="preserve">
<style type="text/css">
	.st0{fill:#FFFFFF;}
	.st1{fill:none;stroke:#000000;stroke-width:3;stroke-miterlimit:10;}
	.st2{fill:#FFFFFF;stroke:#000000;stroke-width:3;stroke-miterlimit:10;}
	.st3{stroke:#000000;stroke-width:1.5;stroke-miterlimit:10;}
	.st4{fill:none;stroke:#000000;stroke-width:2;stroke-miterlimit:10;}
	.st5{fill:#86ED18;}
	.st6{fill:none;stroke:#000000;stroke-width:42;stroke-linecap:round;stroke-linejoin:round;stroke-miterlimit:10;}
	.st7{display:none;}
	.st8{display:none;fill:#FFFFFF;stroke:#000000;stroke-width:3;stroke-miterlimit:10;}
</style>
<g id="figur1">
	<path d="M295.4,315.9c-5.1,0-9.5-0.9-12.9-1.8c-16.9-4.8-34.2-14.8-46.5-26.7c-17.8-17.3-25-38.2-19.9-58.9
		c2.9-11.6,14.5-18.7,26.1-15.9c11.6,2.9,18.7,14.5,15.9,26.1c-3.2,13.1,19.8,28.9,36.4,33.7c0.7,0.2,2.4,0.7,6.9-4.6
		c6.5-7.6,12.2-20.3,15.9-29.1c4.6-11,17.3-16.2,28.4-11.6c11,4.6,16.2,17.3,11.6,28.3c-5.2,12.5-12.6,28.3-22.9,40.5
		C320.8,311.8,306.5,315.9,295.4,315.9L295.4,315.9z"/>
	<path class="st0" d="M238.7,493.6c-6.9,11.7-12.3,20.6-13.3,24.5c-3.5,14.8,4.4,37.2,5.4,47c0.8,7.5-4,16.5-6.2,20.3
		c-0.5,0.9-1.7,1-2.4,0.2l-78.4-86c-0.6-0.6-0.5-1.5,0.1-2.1l66.1-60.2"/>
	<path class="st1" d="M238.7,493.6c-6.9,11.7-12.3,20.6-13.3,24.5c-3.5,14.8,4.4,37.2,5.4,47c0.8,7.5-4,16.5-6.2,20.3
		c-0.5,0.9-1.7,1-2.4,0.2l-78.4-86c-0.6-0.6-0.5-1.5,0.1-2.1l66.1-60.2"/>
	<path class="st0" d="M227.6,366.6c0,0,65,116.6,67.9,120.3c11,14.1,31.8,7.8,50.9,10.1c12,1.5,18.7,7.9,21.6,11.5
		c1,1.2,0.8,3.1-0.4,4l-90,69.3c-1.5,1.1-3.6,0.6-4.3-1.1l-96.7-220.2c-8.7-19.6-4.3-39,1.3-52.6c14-34.1,31.1-79.1,40-87.6
		c14.6-13.7,29.3-12.8,42.9,2c14.2,15.3,0.9,33.3-1.2,36.3c-11.1,15-27.8,69.4-27.8,69.4c1.8,3.4,27.8,37.3,36.6,52.4
		c9.4,16.2,6.9,35.4-1.2,56.9"/>
	<path class="st1" d="M227.6,366.6c0,0,65,116.6,67.9,120.3c11,14.1,31.8,7.8,50.9,10.1c12,1.5,18.7,7.9,21.6,11.5
		c1,1.2,0.8,3.1-0.4,4l-90,69.3c-1.5,1.1-3.6,0.6-4.3-1.1l-96.7-220.2c-8.7-19.6-4.3-39,1.3-52.6c14-34.1,31.1-79.1,40-87.6
		c14.6-13.7,29.3-12.8,42.9,2c14.2,15.3,0.9,33.3-1.2,36.3c-11.1,15-27.8,69.4-27.8,69.4c1.8,3.4,27.8,37.3,36.6,52.4
		c9.4,16.2,6.9,35.4-1.2,56.9"/>
	<path class="st0" d="M371.5,499.6"/>
	<path class="st1" d="M371.5,499.6"/>
	<path class="st2" d="M227.1,197.1c4.4,0,7.9-3.5,7.9-7.9c0,0,0,0,0,0c0-4.4-3.6-7.9-7.9-7.9c0,0,0,0,0,0c-4.4,0-7.9,3.5-7.9,7.9
		l0,0C219.1,193.6,222.7,197.1,227.1,197.1L227.1,197.1L227.1,197.1z"/>
	<path class="st1" d="M223.5,191.2c-0.1-1.3-0.1-2.6,0.1-3.8 M228.9,195.5c-0.1-1.2-0.1-2.5,0.1-3.7"/>
	<path class="st2" d="M254.7,217.7c15.4,0,27.8-12.5,27.8-27.8s-12.5-27.8-27.8-27.8c-15.4,0-27.8,12.5-27.8,27.8
		S239.3,217.7,254.7,217.7z"/>
	<path class="st1" d="M272.7,171.6c0.4,2.9,2.9,5.1,5.9,5.1c2.8,0,5.3-2.1,5.8-4.8c0.4-2.4-0.6-4.6-2.3-5.9
		c-0.1-0.1-0.1-0.4,0.1-0.4c0.9,0.1,1.8,0.1,2.7-0.3c1.9-0.7,3.5-2.3,3.9-4.3c0.8-3.7-1.8-7-5.4-7.3c-2.2-0.1-4.2,0.9-5.3,2.5
		c-0.1,0.1-0.4,0.1-0.3-0.1c0.2-1.2,0.1-2.5-0.2-3.9c-1-3.4-3.7-6-7.2-6.7c-4.8-0.9-9.4,2.1-10.6,6.6c-7.6,0.6-13,5.4-14.4,11.3"/>
	<path class="st3" d="M243.7,193.1c0.3,0,0.5-0.2,0.5-0.5c0-0.3-0.2-0.5-0.5-0.5c0,0,0,0,0,0c-0.3,0-0.5,0.2-0.5,0.5
		C243.2,192.9,243.4,193.1,243.7,193.1z M246.2,195.6c0.3,0,0.5-0.2,0.5-0.5c0-0.3-0.2-0.5-0.5-0.5c-0.3,0-0.5,0.2-0.5,0.5
		C245.7,195.4,245.9,195.6,246.2,195.6z M238.7,193c0.3,0,0.5-0.2,0.5-0.5c0-0.3-0.2-0.5-0.5-0.5c0,0,0,0,0,0
		c-0.3,0-0.5,0.2-0.5,0.5C238.2,192.8,238.5,193,238.7,193z M236.5,195.6c0.3,0,0.5-0.2,0.5-0.5s-0.2-0.5-0.5-0.5c0,0,0,0,0,0
		c-0.3,0-0.5,0.2-0.5,0.5C235.9,195.4,236.2,195.6,236.5,195.6L236.5,195.6z M241.2,195.6c0.3,0,0.5-0.2,0.5-0.5s-0.2-0.5-0.5-0.5
		c0,0,0,0,0,0c-0.3,0-0.5,0.2-0.5,0.5C240.7,195.4,241,195.6,241.2,195.6L241.2,195.6z"/>
	<path class="st4" d="M258.8,185L258.8,185z M272.1,185c1.1,0,2.1-0.9,2.1-2.1c0-1.1-0.9-2.1-2.1-2.1c0,0,0,0,0,0
		c-1.1,0-2.1,0.9-2.1,2.1C270.1,184.1,271,185,272.1,185z"/>
	<path d="M271.9,195.1c0,3.8-2.8,6.9-6.2,6.9s-6.2-3.2-6.2-7v-3.2l12.4,0.1V195.1L271.9,195.1z"/>
	<path class="st0" d="M262.3,202.4c2.4,0.1,4.3-1.8,4.4-4.2c0.1-2.4-1.8-4.3-4.2-4.4c-0.1,0-0.1,0-0.2,0c-2.4,0.1-4.2,2-4.2,4.4
		C258.2,200.5,260,202.3,262.3,202.4z"/>
	<path class="st1" d="M272.1,195.8c0,3.5-2.8,6.2-6.2,6.2c-3.5-0.1-6.2-2.8-6.2-6.2l-0.2-3.9l12.4,0.1L272.1,195.8L272.1,195.8z"/>
	<path class="st1" d="M338.1,224.5l6.8,2.5"/>
	<path class="st0" d="M322,225.1l2.8,1l1.8-5"/>
	<path class="st1" d="M322,225.1l2.8,1l1.8-5"/>
	<path class="st0" d="M368.9,226l-10.2,27.9l-38.8-14.2l1.7-4.4l-0.9-0.3c-4.9-1.8-7.4-7.2-5.7-12.1l2.9-7.9c1-2.8,4.3-4.2,7.1-2.9
		c2.4,1.2,3.5,4.1,2.5,6.6"/>
	<path class="st1" d="M368.9,226l-10.2,27.9l-38.8-14.2l1.7-4.4l-0.9-0.3c-4.9-1.8-7.4-7.2-5.7-12.1l2.9-7.9c1-2.8,4.3-4.2,7.1-2.9
		c2.4,1.2,3.5,4.1,2.5,6.6"/>
	<path class="st2" d="M332.3,206.1l-5.6,15.1c-1,2.6,0.4,5.7,3,6.6c2.6,1,5.7-0.4,6.6-3l5.6-15.1L332.3,206.1z"/>
	<path class="st2" d="M341.9,209.7l-5.6,15.1c-1,2.6,0.4,5.7,3,6.6c2.6,1,5.7-0.4,6.6-3l5.6-15.1L341.9,209.7L341.9,209.7z
		 M351.6,213.3l-5.6,15.1c-1,2.6,0.4,5.7,3,6.6c2.6,1,5.7-0.4,6.6-3l5.6-15.1L351.6,213.3L351.6,213.3z M361.3,216.8l-5.6,15.1
		c-1,2.6,0.4,5.7,3,6.6c2.6,1,5.7-0.4,6.6-3l5.6-15L361.3,216.8z"/>
	<path class="st5" d="M319.6,198.8l-6.1,16.7l-26.8-5.3l8.9-24.4L319.6,198.8L319.6,198.8z"/>
	<path class="st1" d="M321.8,204.6l-6.2,16.7l-26.7-5.4l9-24.4L321.8,204.6L321.8,204.6z"/>
	<path class="st2" d="M320.5,208l-3.7,9.9l7.3,2.7l3.7-9.9L320.5,208z"/>
	<path class="st6" d="M232.4,230.2c-20.9,50.1-7.7,77.2,4.9,85.7c9.6,6.4,21.8,7.3,32.9,4.7"/>
	<path class="st7" d="M1174.6,355.4c-5,0-10-1.7-14.1-5.2c-35.6-30.5-98.5-98.8-101.2-101.8c-8.1-8.8-7.5-22.5,1.3-30.6
		c8.8-8.1,22.5-7.5,30.6,1.3c0.7,0.7,63.8,69.3,97.5,98.2c9.1,7.8,10.1,21.4,2.3,30.5C1186.8,352.8,1180.7,355.4,1174.6,355.4
		L1174.6,355.4z"/>
	<path class="st0" d="M301.5,320.4l3.3-1.2c2.8-1,5.9,0.5,6.9,3.4c0,0,0,0,0,0c1,2.8-0.5,6-3.4,6.9l-35.2,11.6l-18.9-54.9
		c-1-2.9,0.4-6.3,3.3-7.3c2.9-1,5.9,0.4,7,3.3l4.9,14.1c16.3-5.7,24.5-8,24.7-7.9c2.8-1,5.9,0.5,6.9,3.4c0,0,0,0,0,0
		c1,2.8-0.5,6-3.4,6.9"/>
	<path class="st1" d="M301.5,320.4l3.3-1.2c2.8-1,5.9,0.5,6.9,3.4c0,0,0,0,0,0c1,2.8-0.5,6-3.4,6.9l-35.2,11.6l-18.9-54.9
		c-1-2.9,0.4-6.3,3.3-7.3c2.9-1,5.9,0.4,7,3.3l4.9,14.1c16.3-5.7,24.5-8,24.7-7.9c2.8-1,5.9,0.5,6.9,3.4c0,0,0,0,0,0
		c1,2.8-0.5,6-3.4,6.9"/>
	<path class="st0" d="M301.3,308.9c2.8-1,4.4-4.1,3.4-6.9c-1-2.8-4.1-4.3-6.9-3.4c0,0,0,0,0,0l-3.3,1.2"/>
	<path class="st1" d="M301.3,308.9c2.8-1,4.4-4.1,3.4-6.9c-1-2.8-4.1-4.3-6.9-3.4c0,0,0,0,0,0l-3.3,1.2"/>
	<path class="st0" d="M297.9,310.1l3.3-1.2c2.8-1,5.9,0.5,6.9,3.4c0,0,0,0,0,0c1,2.8-0.5,6-3.4,6.9l-9,3.1"/>
	<path class="st1" d="M297.9,310.1l3.3-1.2c2.8-1,5.9,0.5,6.9,3.4c0,0,0,0,0,0c1,2.8-0.5,6-3.4,6.9l-9,3.1"/>
	<path class="st4" d="M246.8,185L246.8,185z M260.1,185c1.1,0,2.1-0.9,2.1-2.1c0-1.1-0.9-2.1-2.1-2.1c0,0,0,0,0,0
		c-1.1,0-2.1,0.9-2.1,2.1C258.1,184.1,259,185,260.1,185z"/>
	<path class="st1" d="M2564.8,572.4c2.6,0.1,73.4,2.2,82.4-15c2.2-4.3,2.7-9.4,2.7-9.4c0.1-1.7,0.9-12.5-7.2-20.7
		c-5.7-5.7-12.4-6.8-15.1-7.2c-3.1-0.5-11-1.7-18.1,3.2c-7.4,5-10.8,14.5-9.4,22.3c0.7,3.8,3.3,11.8,19.9,20.3
		c19.1,9.9,41.4,12.6,79.8,8.3c42.8-4.8,72.3-8.1,75.9-22.5c2.7-11-9.7-28.2-23.9-28.6c-15.3-0.5-28.8,18.8-25.6,29.7
		c4,14,35.7,17.3,56.9,13.7c27.6-4.7,45.4-22.4,52.5-30.5"/>
	<path class="st1" d="M3051.9,163.8c32.2-30.5,42.2-71.6,27.5-97.7c-18.5-32.8-70.9-32.8-101.8-23.4
		c-71.8,21.9-117.9,122.2-119.7,207.7c-1.7,82,38.1,110.8,20.6,198.1c-3.7,18.7-13.3,56.4-44,88.1"/>
	<path class="st1" d="M367.3,231.2c15.2,4.2,38.2,13.4,51.4,34.9c8.9,14.5,9.8,29,10.1,35.8c4.2,88.1-12.8,139.5,11,193
		c23.1,51.8,75.2,69.5,81.6,71.5c36.2,11.7,85.3,14.6,92.7-4c4.1-10.3-3.9-27.4-15.6-30.3c-12.7-3.1-28.5,10.8-28,21.6
		c0.8,15.5,35.7,20.6,44,23.1c13.1,4.1,21.5,11.5,68.6-3.2c6.3-2,21-1.3,21-1.3h177.5h1684"/>
</g>
<g id="Ebene_2">
	<path class="st0" d="M2939.1,512c1.2,12.3,1.7,22.4-0.7,25.8c-8.7,12.5-30.6,21.7-38.4,27.5c-6.1,4.5-9.6,14.1-10.9,18.1
		c-0.3,1,0.4,1.9,1.4,1.9l116.4,0.1c0.8,0,1.5-0.7,1.5-1.5l-30-137.3"/>
	<path class="st1" d="M2939.1,512c1.2,12.3,1.7,22.4-0.7,25.8c-8.7,12.5-30.6,21.7-38.4,27.5c-6.1,4.5-9.6,14.1-10.9,18.1
		c-0.3,1,0.4,1.9,1.4,1.9l116.4,0.1c0.8,0,1.5-0.7,1.5-1.5l-30-137.3"/>
	<path class="st6" d="M2929.7,244.5c-5.3,10.8-13.1,23.9-24.8,37.1c-22.3,25.3-47.5,38.2-62.8,44.5"/>
	<path class="st7" d="M1959.3,344.5c-5.4,0-10.8-2.3-14.6-6.8c-6.9-8.2-5.9-20.5,2.1-27.5c10.5-9,21.2-16.5,31.5-23.7
		c21.3-14.8,39.6-27.5,51.4-50.8c4.8-9.6,16.4-13.3,25.9-8.5c9.5,4.9,13.2,16.6,8.4,26.2c-16.2,32-40.4,48.8-63.8,65.1
		c-10,6.9-19.4,13.5-28.3,21.2C1968.2,343,1963.7,344.5,1959.3,344.5L1959.3,344.5z"/>
	<path class="st1" d="M2948.4,203.7c4.3,0,7.8-3.5,7.8-7.8c0-4.3-3.5-7.8-7.8-7.8c-4.3,0-7.8,3.5-7.8,7.8c0,0,0,0,0,0
		C2940.7,200.2,2944.1,203.7,2948.4,203.7z"/>
	<path class="st2" d="M2921.3,223.6c15.1,0,27.3-12.2,27.3-27.3s-12.2-27.3-27.3-27.3c-15.1,0-27.3,12.2-27.3,27.3
		C2894,211.3,2906.3,223.6,2921.3,223.6z"/>
	<path class="st4" d="M2920.1,189.9c1.1,0,2-0.9,2-2s-0.9-2-2-2c-1.1,0-2,0.9-2,2S2919,189.9,2920.1,189.9
		C2920.1,189.9,2920.1,189.9,2920.1,189.9z M2905.2,189.9c1.1,0,2-0.9,2-2s-0.9-2-2-2s-2,0.9-2,2S2904.1,189.9,2905.2,189.9z"/>
	<path class="st1" d="M2948.5,188.1c-28.3,4-28.6-19.1-28.6-19.1v-4.1l22.8,0.1c7.3,0,41.8,9.1,43.5,44.1c0.6,11.5,7,16.1,14.2,16.5
		h1.1c51.2,0.2,92.5,41.9,92.2,93.1c-0.2,51.2-41.9,92.5-93.1,92.2h-11.2"/>
	<path class="st0" d="M2964.2,370c0,0-65,116.6-67.9,120.3c-11,14.1-26-0.1-45,2.3c-16.9,2.1-20.7,9.9-20.7,9.9l83.9,82.4
		c1.2,1.2,3.4,0.8,4.1-0.8l96.7-220.1c8.7-19.6,2.1-34.8-4.8-47.8c-16.7-31.6-40.3-73.8-49.4-82.2c-14.6-13.7-34.3-16.9-47.9-2.1
		c-14.2,15.3-0.9,33.3,1.2,36.3c11.1,15,39.5,69.2,39.5,69.2c-1.8,3.4-21.7,31.4-30.6,46.5c-9.4,16.2-7.9,40.7-4.3,65.1"/>
	<path class="st1" d="M2964.2,370c0,0-65,116.6-67.9,120.3c-11,14.1-26-0.1-45,2.3c-16.9,2.1-20.7,9.9-20.7,9.9l83.9,82.4
		c1.2,1.2,3.4,0.8,4.1-0.8l96.7-220.1c8.7-19.6,2.1-34.8-4.8-47.8c-16.7-31.6-40.3-73.8-49.4-82.2c-14.6-13.7-34.3-16.9-47.9-2.1
		c-14.2,15.3-0.9,33.3,1.2,36.3c11.1,15,39.5,69.2,39.5,69.2c-1.8,3.4-21.7,31.4-30.6,46.5c-9.4,16.2-7.9,40.7-4.3,65.1"/>
	<path d="M2991,291.3c-27.2,0-53.8-16.4-67.1-44c-5.2-10.8-0.7-23.7,10.1-28.9c10.8-5.2,23.7-0.7,28.9,10.1
		c8.5,17.5,25.6,22.8,37.3,17.7c12-5.2,18.4-23,13.9-38c-3.5-11.5,3-23.6,14.5-27c11.5-3.5,23.6,3,27,14.5c5.1,17,4.3,35.6-2.3,52.3
		c-7.1,17.5-19.8,31.1-35.8,38C3008.8,289.5,2999.9,291.3,2991,291.3L2991,291.3z"/>
	<path class="st1" d="M3019.8,182.4l7.3-2.1"/>
	<path class="st0" d="M3005.4,193.5l3-1l-1.6-5.4"/>
	<path class="st1" d="M3005.4,193.5l3-1l-1.6-5.4"/>
	<path class="st0" d="M3045.5,164.5l9.1,30l-39.7,12l-1.4-4.8l-3,0.9c-5.3,1.6-10.9-1.4-12.5-6.7l-2.5-8.4c-0.9-3.1,1-6.2,4.2-6.9
		c2.8-0.5,5.5,1.3,6.3,4"/>
	<path class="st1" d="M3045.5,164.5l9.1,30l-39.7,12l-1.4-4.8l-3,0.9c-5.3,1.6-10.9-1.4-12.5-6.7l-2.5-8.4c-0.9-3.1,1-6.2,4.2-6.9
		c2.8-0.5,5.5,1.3,6.3,4"/>
	<path class="st2" d="M3001.9,171l4.8,16.3c0.9,2.9,3.9,4.6,6.8,3.7c2.9-0.9,4.6-3.9,3.7-6.8l-4.8-16.3L3001.9,171z M3012.3,167.8
		l4.8,16.3c0.9,2.9,3.9,4.6,6.8,3.7c2.9-0.9,4.6-3.9,3.7-6.8l-4.8-16.3L3012.3,167.8L3012.3,167.8z"/>
	<path class="st2" d="M3022.8,164.8l4.8,16.3c0.9,2.9,3.9,4.6,6.8,3.7s4.6-3.9,3.7-6.8l-4.8-16.3L3022.8,164.8L3022.8,164.8z
		 M3033.2,161.6l4.8,16.3c0.9,2.9,3.9,4.6,6.8,3.7c2.9-0.9,4.6-3.9,3.7-6.8l-4.8-16.3L3033.2,161.6z"/>
	<path class="st5" d="M2990.7,172.9l5.4,18l-26,12.6l-7.9-26.4L2990.7,172.9L2990.7,172.9z"/>
	<path class="st1" d="M2992,176.4l5.4,18.1l-26.1,12.4l-7.9-26.4L2992,176.4L2992,176.4z"/>
	<path class="st2" d="M2993,180.1l3.2,10.7l7.9-2.3l-3.2-10.7L2993,180.1z"/>
	<path d="M2906.4,198.8c0,3.4,2.4,7.9,5.8,8c3.4,0,6.4-4.6,6.5-7.9v-2.8l-12.2-0.1L2906.4,198.8L2906.4,198.8z"/>
	<path class="st0" d="M2916.6,201.5c2.3,0,4.2-1.8,4.3-4.1c0-2.3-1.8-4.2-4.1-4.3c0,0-0.1,0-0.1,0c-2.3,0-4.2,1.9-4.1,4.3
		C2912.5,199.7,2914.3,201.5,2916.6,201.5z"/>
	<path class="st2" d="M2853.3,343.3l-10.9,5.7l-24.4-46.8c-1.6-3-0.4-6.7,2.6-8.3l0,0c3-1.6,6.7-0.4,8.3,2.6L2853.3,343.3z"/>
	<polyline class="st2" points="2834.5,306.4 2853.8,343.3 2818.7,361.6 2799.5,324.7 2824.4,311.7 	"/>
	<line class="st8" x1="1926" y1="325.8" x2="1934.9" y2="318.4"/>
	<path class="st1" d="M2906.1,200.7c0,3.4,2.7,6.1,6.1,6.2c3.4,0,6.1-2.7,6.2-6.1l-0.1-4.6l-12.2-0.1V200.7L2906.1,200.7z"/>
	<path class="st2" d="M2812.4,353.2l14.7-7.9c2.6-1.3,5.9-0.3,7.2,2.3c1.3,2.6,0.4,5.7-2.1,7.1l-14.7,7.9L2812.4,353.2z
		 M2797.4,325.3l14.7-7.9c2.6-1.4,5.9-0.4,7.3,2.2c1.4,2.6,0.4,5.9-2.2,7.3c0,0,0,0,0,0l-14.7,7.9L2797.4,325.3z"/>
	<path class="st2" d="M2802.3,334.4l14.7-7.9c2.6-1.4,5.9-0.4,7.3,2.2c0,0,0,0,0,0c1.4,2.6,0.4,5.9-2.2,7.3c0,0,0,0,0,0l-14.7,7.9
		L2802.3,334.4z"/>
	<path class="st2" d="M2807.4,343.8l14.7-7.9c2.6-1.4,5.9-0.4,7.3,2.2c1.4,2.6,0.4,5.9-2.2,7.3c0,0,0,0,0,0l-14.7,7.9L2807.4,343.8z
		"/>
</g>
</svg>
