<?xml version="1.0" encoding="UTF-8" standalone="no"?>
<svg
   width="570"
   height="583"
   viewBox="0 0 570 583"
   fill="none"
   version="1.1"
   id="svg166"
   sodipodi:docname="internal-dataprotection-illustration.svg"
   inkscape:version="1.1 (c68e22c387, 2021-05-23)"
   xmlns:inkscape="http://www.inkscape.org/namespaces/inkscape"
   xmlns:sodipodi="http://sodipodi.sourceforge.net/DTD/sodipodi-0.dtd"
   xmlns="http://www.w3.org/2000/svg"
   xmlns:svg="http://www.w3.org/2000/svg">
  <defs
     id="defs170" />
  <sodipodi:namedview
     id="namedview168"
     pagecolor="#ffffff"
     bordercolor="#666666"
     borderopacity="1.0"
     inkscape:pageshadow="2"
     inkscape:pageopacity="0.0"
     inkscape:pagecheckerboard="0"
     showgrid="false"
     inkscape:zoom="1.4271012"
     inkscape:cx="205.66166"
     inkscape:cy="229.48618"
     inkscape:window-width="1920"
     inkscape:window-height="1017"
     inkscape:window-x="-8"
     inkscape:window-y="-8"
     inkscape:window-maximized="1"
     inkscape:current-layer="svg166" />
  <path
     d="M315.423 150.039L401.098 201.686L249.506 453.794L174.497 408.625"
     stroke="white"
     stroke-width="2"
     stroke-miterlimit="10"
     stroke-linecap="round"
     stroke-linejoin="round"
     id="path2" />
  <path
     d="M226.426 342.271L257.899 361.355"
     stroke="white"
     stroke-width="2"
     stroke-miterlimit="10"
     stroke-linecap="round"
     stroke-linejoin="round"
     id="path4" />
  <path
     d="M216.46 358.729L247.932 377.812"
     stroke="white"
     stroke-width="2"
     stroke-miterlimit="10"
     stroke-linecap="round"
     stroke-linejoin="round"
     id="path6" />
  <path
     d="M256.921 321.167L248.442 316.265L236.115 337.642L244.595 342.544L256.921 321.167Z"
     fill="white"
     id="path8" />
  <path
     d="M265.023 332.565L256.544 327.663L247.976 342.521L256.456 347.423L265.023 332.565Z"
     fill="white"
     id="path10" />
  <path
     d="M363.331 178.576L325.564 156.167L336.579 138.659L373.472 162.469L363.331 178.576Z"
     fill="black"
     stroke="white"
     stroke-width="2"
     stroke-miterlimit="10"
     stroke-linecap="round"
     stroke-linejoin="round"
     id="path12" />
  <path
     d="M339.727 152.665L361.408 166.496"
     stroke="white"
     stroke-width="2"
     stroke-miterlimit="10"
     stroke-linecap="round"
     stroke-linejoin="round"
     id="path14" />
  <path
     d="M201.248 142.862L195.303 99.9682L177.294 123.953L134.632 63.0273L145.997 129.731L90.5703 142.862L118.721 176.126L90.5703 204.138L146.172 212.016L201.248 142.862Z"
     fill="black"
     stroke="white"
     stroke-width="2"
     stroke-miterlimit="10"
     stroke-linecap="round"
     stroke-linejoin="round"
     id="path16" />
  <path
     d="M287.273 252.983L115.049 200.811C115.049 200.811 121.343 239.852 191.806 259.461C262.27 279.069 287.273 252.983 287.273 252.983Z"
     fill="white"
     id="path18" />
  <path
     d="M263.844 240.903C243.562 275.218 199.326 286.598 165.056 266.289C130.786 245.98 119.421 201.686 139.703 167.372C159.985 133.057 204.221 121.677 238.491 141.986C272.761 162.294 286.924 201.861 263.844 240.903Z"
     fill="#86EC16"
     id="path20" />
  <path
     d="M139.703 167.547L263.844 240.903"
     stroke="black"
     stroke-width="2"
     stroke-miterlimit="10"
     stroke-linecap="round"
     stroke-linejoin="round"
     id="path22" />
  <path
     d="M201.948 276.443V204.312"
     stroke="black"
     stroke-width="2"
     stroke-miterlimit="10"
     stroke-linecap="round"
     stroke-linejoin="round"
     id="path24" />
  <path
     d="M154.215 176.125V150.039"
     stroke="black"
     stroke-width="2"
     stroke-miterlimit="10"
     stroke-linecap="round"
     stroke-linejoin="round"
     id="path26" />
  <path
     d="M168.378 184.529V140.235"
     stroke="black"
     stroke-width="2"
     stroke-miterlimit="10"
     stroke-linecap="round"
     stroke-linejoin="round"
     id="path28" />
  <path
     d="M182.715 192.933V134.633"
     stroke="black"
     stroke-width="2"
     stroke-miterlimit="10"
     stroke-linecap="round"
     stroke-linejoin="round"
     id="path30" />
  <path
     d="M197.052 201.336V132.182"
     stroke="black"
     stroke-width="2"
     stroke-miterlimit="10"
     stroke-linecap="round"
     stroke-linejoin="round"
     id="path32" />
  <path
     d="M211.39 206.588V132.531"
     stroke="black"
     stroke-width="2"
     stroke-miterlimit="10"
     stroke-linecap="round"
     stroke-linejoin="round"
     id="path34" />
  <path
     d="M225.552 209.915V136.033"
     stroke="black"
     stroke-width="2"
     stroke-miterlimit="10"
     stroke-linecap="round"
     stroke-linejoin="round"
     id="path36" />
  <path
     d="M239.89 213.417V142.861"
     stroke="black"
     stroke-width="2"
     stroke-miterlimit="10"
     stroke-linecap="round"
     stroke-linejoin="round"
     id="path38" />
  <path
     d="M254.228 235.475V154.065"
     stroke="black"
     stroke-width="2"
     stroke-miterlimit="10"
     stroke-linecap="round"
     stroke-linejoin="round"
     id="path40" />
  <path
     d="M268.39 221.469V172.974"
     stroke="black"
     stroke-width="2"
     stroke-miterlimit="10"
     stroke-linecap="round"
     stroke-linejoin="round"
     id="path42" />
  <path
     d="M177.294 306.382C177.294 306.382 171 271.016 164.88 262.788C158.761 254.559 179.742 223.746 162.782 221.645C145.822 219.544 134.981 267.865 129.736 306.382C127.988 319.162 122.043 359.254 80.0796 367.133"
     fill="black"
     id="path44" />
  <path
     d="M177.294 306.382C177.294 306.382 171 271.016 164.88 262.788C158.761 254.559 179.742 223.746 162.782 221.645C145.822 219.544 134.981 267.865 129.736 306.382C127.988 319.162 122.043 359.254 80.0796 367.133"
     stroke="white"
     stroke-width="2"
     stroke-miterlimit="10"
     stroke-linecap="round"
     stroke-linejoin="round"
     id="path46" />
  <path
     d="M222.58 273.293C222.055 300.43 215.761 372.911 164.705 418.08"
     stroke="white"
     stroke-width="2"
     stroke-miterlimit="10"
     stroke-linecap="round"
     stroke-linejoin="round"
     id="path48" />
  <path
     d="M211.739 277.494V280.821"
     stroke="white"
     stroke-width="2"
     stroke-miterlimit="10"
     stroke-linecap="round"
     stroke-linejoin="round"
     id="path50" />
  <path
     d="M217.335 284.147C213.138 281.521 206.144 278.895 201.948 277.319"
     stroke="white"
     stroke-width="2"
     stroke-miterlimit="10"
     stroke-linecap="round"
     stroke-linejoin="round"
     id="path52" />
  <path
     d="M250.73 217.093L227.65 197.134C227.3 196.784 192.856 188.73 192.856 188.73L220.307 217.093L209.466 236.526L234.294 227.947L236.043 283.271L254.227 235.651L268.564 252.108L270.313 236.351L250.73 217.093Z"
     fill="black"
     stroke="white"
     stroke-width="2"
     stroke-miterlimit="10"
     stroke-linecap="round"
     stroke-linejoin="round"
     id="path54" />
  <path
     d="M248.982 148.639C253.353 140.761 257.025 136.909 260.696 135.158"
     stroke="white"
     stroke-width="2"
     stroke-miterlimit="10"
     stroke-linecap="round"
     stroke-linejoin="round"
     id="path56" />
  <path
     d="M263.319 163.52C265.068 159.669 267.865 155.117 271.013 152.841"
     stroke="white"
     stroke-width="2"
     stroke-miterlimit="10"
     stroke-linecap="round"
     stroke-linejoin="round"
     id="path58" />
  <path
     d="M328.887 150.915C310.528 148.814 293.218 150.74 287.273 159.494C281.678 167.722 276.433 174.375 271.712 179.627"
     stroke="white"
     stroke-width="2"
     stroke-miterlimit="10"
     stroke-linecap="round"
     stroke-linejoin="round"
     id="path60" />
  <path
     d="M355.114 67.0537C291.994 58.1248 243.037 74.932 225.552 98.9173C209.641 120.802 204.571 147.938 214.013 153.891C223.629 159.843 237.267 124.303 249.157 119.051C261.221 113.799 285.35 131.831 314.724 118.001"
     fill="black"
     id="path62" />
  <path
     d="M355.114 67.0537C291.994 58.1248 243.037 74.932 225.552 98.9173C209.641 120.802 204.571 147.938 214.013 153.891C223.629 159.843 237.267 124.303 249.157 119.051C261.221 113.799 285.35 131.831 314.724 118.001"
     stroke="white"
     stroke-width="2"
     stroke-miterlimit="10"
     stroke-linecap="round"
     stroke-linejoin="round"
     id="path64" />
  <path
     d="M285.175 252.983L318.396 261.212C334.831 264.363 345.147 253.508 341.825 239.327C340.426 233.55 336.405 229.173 327.138 228.298C305.282 226.022 285.175 252.983 285.175 252.983Z"
     stroke="white"
     stroke-width="5"
     stroke-miterlimit="10"
     stroke-linecap="round"
     stroke-linejoin="round"
     id="path66" />
  <path
     d="M284.825 253.684L302.135 272.066C311.577 283.096 310.703 298.328 298.638 302.179C294.792 303.405 288.672 302.355 283.951 295.877C272.936 280.47 284.825 253.684 284.825 253.684Z"
     stroke="white"
     stroke-width="5"
     stroke-miterlimit="10"
     stroke-linecap="round"
     stroke-linejoin="round"
     id="path68" />
  <path
     d="M157.537 130.781L286.399 256.485C286.399 256.485 298.813 219.019 245.31 169.122C191.807 119.226 157.537 130.781 157.537 130.781Z"
     fill="white"
     id="path70" />
  <path
     d="M282.377 204.313L290.945 204.138"
     stroke="white"
     stroke-width="2"
     stroke-miterlimit="10"
     stroke-linecap="round"
     stroke-linejoin="round"
     id="path72" />
  <path
     d="M125.54 241.078L100.012 251.057"
     stroke="white"
     stroke-width="2"
     stroke-miterlimit="10"
     stroke-linecap="round"
     stroke-linejoin="round"
     id="path74" />
  <path
     d="M123.442 268.565L134.632 254.034"
     stroke="white"
     stroke-width="2"
     stroke-miterlimit="10"
     stroke-linecap="round"
     stroke-linejoin="round"
     id="path76" />
  <path
     d="M311.577 466.575L316.123 471.127"
     stroke="white"
     stroke-width="2"
     stroke-miterlimit="10"
     stroke-linecap="round"
     stroke-linejoin="round"
     id="path78" />
  <path
     d="M348.994 429.284L343.399 435.937"
     stroke="white"
     stroke-width="2"
     stroke-miterlimit="10"
     stroke-linecap="round"
     stroke-linejoin="round"
     id="path80" />
  <path
     d="M324.865 467.976L326.614 474.103"
     stroke="white"
     stroke-width="2"
     stroke-miterlimit="10"
     stroke-linecap="round"
     stroke-linejoin="round"
     id="path82" />
  <path
     d="M164.88 437.338L157.537 441.715"
     stroke="white"
     stroke-width="2"
     stroke-miterlimit="10"
     stroke-linecap="round"
     stroke-linejoin="round"
     id="path84" />
  <path
     d="M174.497 445.216C176.428 445.216 177.994 443.648 177.994 441.714C177.994 439.781 176.428 438.213 174.497 438.213C172.566 438.213 171 439.781 171 441.714C171 443.648 172.566 445.216 174.497 445.216Z"
     fill="white"
     id="path86" />
  <path
     d="M325.564 423.156L306.156 442.59C308.604 446.266 312.801 448.717 317.522 448.717C325.215 448.717 331.334 442.59 331.334 434.886C331.509 429.634 329.061 425.607 325.564 423.156Z"
     fill="#86EC16"
     id="path88" />
  <path
     d="M100.012 328.091C103.875 328.091 107.006 324.956 107.006 321.088C107.006 317.22 103.875 314.085 100.012 314.085C96.1498 314.085 93.0186 317.22 93.0186 321.088C93.0186 324.956 96.1498 328.091 100.012 328.091Z"
     fill="black"
     stroke="white"
     stroke-width="2"
     stroke-miterlimit="10"
     stroke-linecap="round"
     stroke-linejoin="round"
     id="path90" />
  <path
     d="M253.003 502.466L293.743 502.291C293.743 502.291 293.218 482.858 293.743 473.404C294.267 463.95 265.592 468.502 265.592 468.502L264.543 490.736C264.368 490.911 253.003 492.662 253.003 502.466Z"
     fill="black"
     stroke="white"
     stroke-width="2"
     stroke-miterlimit="10"
     stroke-linecap="round"
     stroke-linejoin="round"
     id="path92" />
  <path
     d="M512.301 507.718L522.792 468.326C522.792 468.326 503.908 463.774 494.816 460.798C485.724 457.822 482.752 486.884 482.752 486.884L503.908 493.712C504.083 493.712 502.859 505.092 512.301 507.718Z"
     fill="black"
     stroke="white"
     stroke-width="2"
     stroke-miterlimit="10"
     stroke-linecap="round"
     stroke-linejoin="round"
     id="path94" />
  <path
     d="M496.739 490.911L498.663 483.383"
     stroke="white"
     stroke-width="2"
     stroke-miterlimit="10"
     stroke-linecap="round"
     stroke-linejoin="round"
     id="path96" />
  <path
     d="M503.034 493.888L505.132 485.134"
     stroke="white"
     stroke-width="2"
     stroke-miterlimit="10"
     stroke-linecap="round"
     stroke-linejoin="round"
     id="path98" />
  <path
     d="M294.267 357.679C320.669 326.165 363.332 320.388 401.973 321.788C409.316 322.138 412.638 315.31 415.086 320.563C416.135 322.138 418.408 334.744 418.933 337.02C429.948 383.24 444.286 446.267 496.74 460.098C492.543 470.777 490.62 480.756 485.899 490.911C414.562 466.225 402.497 409.676 388.859 355.053C362.632 355.228 335.007 359.78 318.046 381.314C297.415 407.225 297.24 442.94 297.24 474.629H263.844C263.844 433.486 266.816 390.593 294.267 357.679Z"
     fill="white"
     id="path100" />
  <path
     d="M391.482 355.053H400.749"
     stroke="black"
     stroke-width="2"
     stroke-miterlimit="10"
     stroke-linecap="round"
     stroke-linejoin="round"
     id="path102" />
  <path
     d="M264.368 490.91H271.712"
     stroke="white"
     stroke-width="2"
     stroke-miterlimit="10"
     stroke-linecap="round"
     stroke-linejoin="round"
     id="path104" />
  <path
     d="M264.718 483.383H271.712"
     stroke="white"
     stroke-width="2"
     stroke-miterlimit="10"
     stroke-linecap="round"
     stroke-linejoin="round"
     id="path106" />
  <path
     d="M302.66 305.156C307.905 304.456 309.479 300.254 308.43 297.103"
     stroke="white"
     stroke-width="2"
     stroke-miterlimit="10"
     stroke-linecap="round"
     stroke-linejoin="round"
     id="path108" />
  <path
     d="M281.503 296.052C284.65 292.026 284.65 289.925 287.798 291.15C290.945 292.551 292.344 289.75 294.792 290.8C297.414 291.851 299.512 290.625 303.009 291.676C306.506 292.551 303.534 300.429 302.834 305.156"
     fill="black"
     id="path110" />
  <path
     d="M281.503 296.052C284.65 292.026 284.65 289.925 287.798 291.15C290.945 292.551 292.344 289.75 294.792 290.8C297.414 291.851 299.512 290.625 303.009 291.676C306.506 292.551 303.534 300.429 302.834 305.156"
     stroke="white"
     stroke-width="2"
     stroke-miterlimit="10"
     stroke-linecap="round"
     stroke-linejoin="round"
     id="path112" />
  <path
     d="M413.862 293.076C423.129 278.019 426.276 259.286 416.485 243.179C403.546 221.82 379.068 217.793 356.163 219.894C356.862 227.773 358.086 235.476 359.31 243.354C372.598 241.954 387.46 243.179 395.503 254.559C402.147 264.013 398.126 275.218 391.657 283.797C378.193 285.898 371.549 289.574 369.801 301.479C360.184 306.907 349.518 311.108 339.377 313.91C330.81 316.186 321.718 317.236 312.976 315.135C308.954 314.085 300.911 311.108 302.485 305.681C302.485 305.506 302.66 305.331 302.834 305.156C295.141 302.355 289.022 299.554 281.503 296.052C275.558 306.206 278.88 319.687 287.098 327.916C296.365 337.02 310.702 340.171 323.291 340.171C338.853 340.171 355.288 335.444 370.325 328.266L418.408 321.788C418.408 321.788 416.834 310.583 415.261 299.904C414.911 297.453 414.387 295.177 413.862 293.076Z"
     fill="black"
     stroke="white"
     stroke-width="2"
     stroke-miterlimit="10"
     stroke-linecap="round"
     stroke-linejoin="round"
     id="path114" />
  <path
     d="M370.325 328.091C377.669 325.465 391.831 313.735 394.804 310.233L370.325 328.091Z"
     fill="black"
     id="path116" />
  <path
     d="M370.325 328.091C377.669 325.465 391.831 313.735 394.804 310.233"
     stroke="white"
     stroke-width="2"
     stroke-miterlimit="10"
     stroke-linecap="round"
     stroke-linejoin="round"
     id="path118" />
  <path
     d="M369.626 301.479C373.997 298.678 377.494 296.227 377.494 296.227L369.626 301.479Z"
     fill="black"
     id="path120" />
  <path
     d="M369.626 301.479C373.997 298.678 377.494 296.227 377.494 296.227"
     stroke="white"
     stroke-width="2"
     stroke-miterlimit="10"
     stroke-linecap="round"
     stroke-linejoin="round"
     id="path122" />
  <path
     d="M391.482 283.797C399.175 283.272 411.764 282.222 413.862 293.251L391.482 283.797Z"
     fill="black"
     id="path124" />
  <path
     d="M391.482 283.797C399.175 283.272 411.764 282.222 413.862 293.251"
     stroke="white"
     stroke-width="2"
     stroke-miterlimit="10"
     stroke-linecap="round"
     stroke-linejoin="round"
     id="path126" />
  <path
     d="M359.135 243.354C354.414 244.405 345.497 247.731 342.35 246.331L359.135 243.354Z"
     fill="black"
     id="path128" />
  <path
     d="M359.135 243.354C354.414 244.405 345.497 247.731 342.35 246.331"
     stroke="white"
     stroke-width="2"
     stroke-miterlimit="10"
     stroke-linecap="round"
     stroke-linejoin="round"
     id="path130" />
  <path
     d="M355.988 219.895C344.448 219.895 331.16 228.823 333.083 232.85C334.307 235.301 341.301 230.924 341.301 230.924C341.301 230.924 333.433 234.251 335.006 236.877C336.58 239.503 343.923 235.476 343.923 235.476C343.923 235.476 335.706 238.277 337.454 240.904C339.203 243.53 340.426 240.728 347.071 240.378"
     fill="black"
     id="path132" />
  <path
     d="M355.988 219.895C344.448 219.895 331.16 228.823 333.083 232.85C334.307 235.301 341.301 230.924 341.301 230.924C341.301 230.924 333.433 234.251 335.006 236.877C336.58 239.503 343.923 235.476 343.923 235.476C343.923 235.476 335.706 238.277 337.454 240.904C339.203 243.53 340.426 240.728 347.071 240.378"
     stroke="white"
     stroke-width="2"
     stroke-miterlimit="10"
     stroke-linecap="round"
     stroke-linejoin="round"
     id="path134" />
  <path
     d="M373.319 254.528C373.319 259.308 378.607 262.361 381.251 263.291L402.445 266.425C401.506 259.843 409.022 255.455 398.493 251.74C398.953 250.678 399.321 248.235 397.114 246.96C394.907 245.685 393.206 247.491 392.631 248.553C392.286 246.429 390.424 242.419 385.734 243.375C381.044 244.331 380.101 248.553 380.216 250.545C377.917 249.881 373.319 249.748 373.319 254.528Z"
     fill="black"
     id="path136" />
  <ellipse
     rx="16.9121"
     ry="16.8001"
     transform="matrix(-1 0 0 1 388.978 271.788)"
     fill="black"
     stroke="white"
     stroke-width="2"
     stroke-miterlimit="10"
     stroke-linecap="round"
     stroke-linejoin="round"
     id="ellipse138" />
  <ellipse
     rx="1.81192"
     ry="1.80469"
     transform="matrix(-0.896113 -0.443827 -0.448575 0.893745 385.774 270.723)"
     fill="white"
     id="ellipse140" />
  <ellipse
     rx="1.81193"
     ry="1.8047"
     transform="matrix(-0.896113 -0.443827 -0.448575 0.893745 377.005 268.842)"
     fill="white"
     id="ellipse142" />
  <path
     d="M384.064 278.118L376.091 276.469L376.033 276.749C375.571 278.949 376.981 281.101 379.183 281.557C381.384 282.012 383.544 280.597 384.005 278.397L384.064 278.118Z"
     fill="white"
     id="path144" />
  <path
     d="M380.483 279.795C379.717 279.432 379.544 278.959 379.516 278.448L381.969 278.956C381.802 279.631 381.111 280.093 380.483 279.795Z"
     fill="black"
     id="path146" />
  <ellipse
     rx="0.849008"
     ry="0.849003"
     transform="matrix(-0.683497 0.729953 0.729415 0.684072 396.319 276.524)"
     fill="white"
     id="ellipse148" />
  <ellipse
     rx="0.848988"
     ry="0.84898"
     transform="matrix(-0.683478 0.729971 0.729397 0.68409 393.998 279.003)"
     fill="white"
     id="ellipse150" />
  <ellipse
     rx="0.848982"
     ry="0.848975"
     transform="matrix(-0.683483 0.729966 0.729401 0.684086 391.521 276.68)"
     fill="white"
     id="ellipse152" />
  <ellipse
     rx="0.848998"
     ry="0.848992"
     transform="matrix(-0.683488 0.729962 0.729406 0.684081 391.677 281.482)"
     fill="white"
     id="ellipse154" />
  <ellipse
     rx="0.848982"
     ry="0.848975"
     transform="matrix(-0.683483 0.729966 0.729401 0.684086 389.2 279.159)"
     fill="white"
     id="ellipse156" />
  <path
     d="M408.496 273.191C408.292 277.451 404.921 280.754 400.966 280.568C397.011 280.382 397.749 264.956 401.704 265.142C405.659 265.327 408.699 268.931 408.496 273.191Z"
     fill="black"
     id="path158" />
  <path
     d="M400.967 280.568C404.922 280.754 408.293 277.451 408.497 273.191C408.7 268.931 405.659 265.327 401.704 265.141"
     stroke="white"
     stroke-width="2"
     id="path160" />
  <path
     d="M401.999 275.103C403.362 275.167 404.525 274.028 404.595 272.56C404.665 271.091 403.616 269.848 402.253 269.784"
     stroke="white"
     stroke-width="2"
     id="path162" />
  <path
     d="M381.251 263.291C378.607 262.361 373.319 259.308 373.319 254.528C373.319 249.748 377.917 249.881 380.216 250.545C380.101 248.553 381.044 244.331 385.734 243.375C390.424 242.419 392.286 246.429 392.631 248.553C393.206 247.491 394.907 245.685 397.114 246.96C399.321 248.235 398.953 250.678 398.493 251.74C409.022 255.455 401.506 259.843 402.445 266.425"
     stroke="white"
     stroke-width="2"
     id="path164" />
</svg>
