<svg width="325" height="215" viewBox="0 0 325 215" fill="none" xmlns="http://www.w3.org/2000/svg">
<path d="M179.846 85.4424L228.696 114.854L142.262 258.421L99.4937 232.699" stroke="black" stroke-width="2" stroke-miterlimit="10" stroke-linecap="round" stroke-linejoin="round"/>
<path d="M129.103 194.913L147.047 205.78" stroke="black" stroke-width="2" stroke-miterlimit="10" stroke-linecap="round" stroke-linejoin="round"/>
<path d="M123.42 204.284L141.365 215.151" stroke="black" stroke-width="2" stroke-miterlimit="10" stroke-linecap="round" stroke-linejoin="round"/>
<path d="M146.49 182.894L141.655 180.103L134.627 192.276L139.462 195.068L146.49 182.894Z" fill="black"/>
<path d="M151.11 189.385L146.275 186.594L141.39 195.055L146.225 197.847L151.11 189.385Z" fill="black"/>
<path d="M207.162 101.693L185.628 88.9319L191.909 78.9619L212.944 92.5211L207.162 101.693Z" fill="white" stroke="black" stroke-width="2" stroke-miterlimit="10" stroke-linecap="round" stroke-linejoin="round"/>
<path d="M193.704 86.9375L206.066 94.8138" stroke="black" stroke-width="2" stroke-miterlimit="10" stroke-linecap="round" stroke-linejoin="round"/>
<path d="M114.747 81.3547L111.357 56.9282L101.089 70.5871L76.7638 35.8916L83.2439 73.8772L51.6411 81.3547L67.6917 100.298L51.6411 116.25L83.3436 120.736L114.747 81.3547Z" fill="white" stroke="black" stroke-width="2" stroke-miterlimit="10" stroke-linecap="round" stroke-linejoin="round"/>
<path d="M163.796 144.066L65.5981 114.355C65.5981 114.355 69.1871 136.588 109.363 147.755C149.54 158.921 163.796 144.066 163.796 144.066Z" fill="black"/>
<path d="M150.437 137.187C138.873 156.728 113.65 163.209 94.1105 151.644C74.5706 140.079 68.0906 114.855 79.655 95.3135C91.2194 75.7723 116.442 69.2918 135.982 80.857C155.522 92.4222 163.597 114.954 150.437 137.187Z" fill="#86EC16"/>
<path d="M79.6553 95.4131L150.437 137.187" stroke="white" stroke-width="2" stroke-miterlimit="10" stroke-linecap="round" stroke-linejoin="round"/>
<path d="M115.146 157.427V116.351" stroke="white" stroke-width="2" stroke-miterlimit="10" stroke-linecap="round" stroke-linejoin="round"/>
<path d="M87.9297 100.299V85.4434" stroke="white" stroke-width="2" stroke-miterlimit="10" stroke-linecap="round" stroke-linejoin="round"/>
<path d="M96.0049 105.083V79.8594" stroke="white" stroke-width="2" stroke-miterlimit="10" stroke-linecap="round" stroke-linejoin="round"/>
<path d="M104.179 109.87V76.6699" stroke="white" stroke-width="2" stroke-miterlimit="10" stroke-linecap="round" stroke-linejoin="round"/>
<path d="M112.354 114.655V75.2734" stroke="white" stroke-width="2" stroke-miterlimit="10" stroke-linecap="round" stroke-linejoin="round"/>
<path d="M120.529 117.647V75.4736" stroke="white" stroke-width="2" stroke-miterlimit="10" stroke-linecap="round" stroke-linejoin="round"/>
<path d="M128.604 119.541V77.4678" stroke="white" stroke-width="2" stroke-miterlimit="10" stroke-linecap="round" stroke-linejoin="round"/>
<path d="M136.779 121.534V81.3555" stroke="white" stroke-width="2" stroke-miterlimit="10" stroke-linecap="round" stroke-linejoin="round"/>
<path d="M144.954 134.097V87.7363" stroke="white" stroke-width="2" stroke-miterlimit="10" stroke-linecap="round" stroke-linejoin="round"/>
<path d="M153.029 126.121V98.5039" stroke="white" stroke-width="2" stroke-miterlimit="10" stroke-linecap="round" stroke-linejoin="round"/>
<path d="M101.089 174.474C101.089 174.474 97.4997 154.335 94.0104 149.649C90.5211 144.963 102.484 127.416 92.8141 126.219C83.1438 125.023 76.9629 152.54 73.9721 174.474C72.9751 181.752 69.5856 204.583 45.6592 209.07" fill="white"/>
<path d="M101.089 174.474C101.089 174.474 97.4997 154.335 94.0104 149.649C90.5211 144.963 102.484 127.416 92.8141 126.219C83.1438 125.023 76.9629 152.54 73.9721 174.474C72.9751 181.752 69.5856 204.583 45.6592 209.07" stroke="black" stroke-width="2" stroke-miterlimit="10" stroke-linecap="round" stroke-linejoin="round"/>
<path d="M126.909 155.631C126.61 171.084 123.021 212.36 93.9106 238.083" stroke="black" stroke-width="2" stroke-miterlimit="10" stroke-linecap="round" stroke-linejoin="round"/>
<path d="M120.728 158.023V159.918" stroke="black" stroke-width="2" stroke-miterlimit="10" stroke-linecap="round" stroke-linejoin="round"/>
<path d="M123.919 161.812C121.526 160.317 117.538 158.821 115.146 157.924" stroke="black" stroke-width="2" stroke-miterlimit="10" stroke-linecap="round" stroke-linejoin="round"/>
<path d="M142.96 123.628L129.801 112.262C129.601 112.063 109.962 107.477 109.962 107.477L125.614 123.628L119.433 134.695L133.589 129.809L134.586 161.314L144.954 134.196L153.129 143.568L154.126 134.595L142.96 123.628Z" fill="white" stroke="black" stroke-width="2" stroke-miterlimit="10" stroke-linecap="round" stroke-linejoin="round"/>
<path d="M141.963 84.6447C144.455 80.1582 146.549 77.9648 148.642 76.9678" stroke="black" stroke-width="2" stroke-miterlimit="10" stroke-linecap="round" stroke-linejoin="round"/>
<path d="M150.138 93.1188C151.135 90.9254 152.73 88.3332 154.524 87.0371" stroke="black" stroke-width="2" stroke-miterlimit="10" stroke-linecap="round" stroke-linejoin="round"/>
<path d="M187.523 85.9412C177.055 84.7448 167.185 85.8415 163.796 90.8264C160.605 95.5123 157.615 99.3009 154.923 102.292" stroke="black" stroke-width="2" stroke-miterlimit="10" stroke-linecap="round" stroke-linejoin="round"/>
<path d="M202.477 38.1849C166.488 33.1003 138.574 42.6714 128.604 56.3303C119.532 68.7927 116.641 84.2462 122.025 87.636C127.508 91.0258 135.284 70.7867 142.063 67.7958C148.942 64.8048 162.699 75.0738 179.448 67.1976" fill="white"/>
<path d="M202.477 38.1849C166.488 33.1003 138.574 42.6714 128.604 56.3303C119.532 68.7927 116.641 84.2462 122.025 87.636C127.508 91.0258 135.284 70.7867 142.063 67.7958C148.942 64.8048 162.699 75.0738 179.448 67.1976" stroke="black" stroke-width="2" stroke-miterlimit="10" stroke-linecap="round" stroke-linejoin="round"/>
<path d="M162.6 144.066L181.541 148.752C190.913 150.546 196.794 144.365 194.9 136.289C194.103 132.999 191.81 130.507 186.526 130.008C174.064 128.712 162.6 144.066 162.6 144.066Z" stroke="black" stroke-width="5" stroke-miterlimit="10" stroke-linecap="round" stroke-linejoin="round"/>
<path d="M162.401 144.465L172.27 154.933C177.654 161.214 177.155 169.888 170.276 172.082C168.083 172.78 164.594 172.181 161.902 168.492C155.621 159.719 162.401 144.465 162.401 144.465Z" stroke="black" stroke-width="5" stroke-miterlimit="10" stroke-linecap="round" stroke-linejoin="round"/>
<path d="M89.8237 74.4758L163.298 146.06C163.298 146.06 170.376 124.724 139.87 96.31C109.364 67.8956 89.8237 74.4758 89.8237 74.4758Z" fill="black"/>
<path d="M161.005 116.35L165.89 116.25" stroke="black" stroke-width="2" stroke-miterlimit="10" stroke-linecap="round" stroke-linejoin="round"/>
<path d="M71.5801 137.287L57.0249 142.97" stroke="black" stroke-width="2" stroke-miterlimit="10" stroke-linecap="round" stroke-linejoin="round"/>
<path d="M70.3838 152.939L76.7642 144.664" stroke="black" stroke-width="2" stroke-miterlimit="10" stroke-linecap="round" stroke-linejoin="round"/>
<path d="M57.0248 186.837C59.2272 186.837 61.0126 185.052 61.0126 182.849C61.0126 180.647 59.2272 178.861 57.0248 178.861C54.8225 178.861 53.0371 180.647 53.0371 182.849C53.0371 185.052 54.8225 186.837 57.0248 186.837Z" fill="white" stroke="black" stroke-width="2" stroke-miterlimit="10" stroke-linecap="round" stroke-linejoin="round"/>
<path d="M167.784 203.687C182.838 185.741 207.163 182.451 229.195 183.248C233.382 183.448 235.276 179.559 236.672 182.55C237.27 183.448 238.566 190.626 238.865 191.922C245.146 218.243 253.321 254.135 283.229 262.011C280.836 268.093 279.74 273.775 277.048 279.558C236.373 265.5 229.494 233.297 221.718 202.191C206.764 202.291 191.013 204.883 181.342 217.146C169.579 231.902 169.479 252.24 169.479 270.286H150.438C150.438 246.857 152.132 222.43 167.784 203.687Z" fill="black"/>
<path d="M223.213 202.191H228.497" stroke="white" stroke-width="2" stroke-miterlimit="10" stroke-linecap="round" stroke-linejoin="round"/>
<path d="M172.569 173.777C175.56 173.378 176.457 170.985 175.859 169.19" stroke="black" stroke-width="2" stroke-miterlimit="10" stroke-linecap="round" stroke-linejoin="round"/>
<path d="M160.506 168.592C162.3 166.299 162.3 165.103 164.095 165.801C165.889 166.598 166.687 165.003 168.083 165.601C169.578 166.2 170.774 165.502 172.768 166.1C174.762 166.598 173.067 171.085 172.668 173.777" fill="white"/>
<path d="M160.506 168.592C162.3 166.299 162.3 165.103 164.095 165.801C165.889 166.598 166.687 165.003 168.083 165.601C169.578 166.2 170.774 165.502 172.768 166.1C174.762 166.598 173.067 171.085 172.668 173.777" stroke="black" stroke-width="2" stroke-miterlimit="10" stroke-linecap="round" stroke-linejoin="round"/>
<path d="M235.974 166.897C241.257 158.323 243.052 147.655 237.469 138.483C230.092 126.319 216.135 124.026 203.075 125.223C203.474 129.709 204.172 134.096 204.869 138.582C212.446 137.785 220.92 138.483 225.506 144.963C229.294 150.347 227.001 156.728 223.313 161.613C215.636 162.81 211.848 164.903 210.851 171.683C205.368 174.773 199.287 177.166 193.504 178.761C188.619 180.058 183.435 180.656 178.451 179.459C176.158 178.861 171.572 177.166 172.469 174.076C172.469 173.976 172.569 173.876 172.668 173.776C168.282 172.181 164.793 170.586 160.506 168.592C157.116 174.375 159.01 182.052 163.696 186.737C168.98 191.922 177.155 193.716 184.333 193.716C193.205 193.716 202.576 191.025 211.15 186.937L238.566 183.248C238.566 183.248 237.668 176.867 236.771 170.785C236.572 169.39 236.273 168.094 235.974 166.897Z" fill="white" stroke="black" stroke-width="2" stroke-miterlimit="10" stroke-linecap="round" stroke-linejoin="round"/>
<path d="M211.15 186.837C215.337 185.342 223.412 178.662 225.107 176.668Z" fill="white"/>
<path d="M211.15 186.837C215.337 185.342 223.412 178.662 225.107 176.668" stroke="black" stroke-width="2" stroke-miterlimit="10" stroke-linecap="round" stroke-linejoin="round"/>
<path d="M210.751 171.683C213.244 170.088 215.238 168.692 215.238 168.692Z" fill="white"/>
<path d="M210.751 171.683C213.244 170.088 215.238 168.692 215.238 168.692" stroke="black" stroke-width="2" stroke-miterlimit="10" stroke-linecap="round" stroke-linejoin="round"/>
<path d="M223.213 161.613C227.599 161.313 234.777 160.715 235.974 166.996Z" fill="white"/>
<path d="M223.213 161.613C227.599 161.313 234.777 160.715 235.974 166.996" stroke="black" stroke-width="2" stroke-miterlimit="10" stroke-linecap="round" stroke-linejoin="round"/>
<path d="M204.77 138.582C202.078 139.18 196.994 141.075 195.199 140.277Z" fill="white"/>
<path d="M204.77 138.582C202.078 139.18 196.994 141.075 195.199 140.277" stroke="black" stroke-width="2" stroke-miterlimit="10" stroke-linecap="round" stroke-linejoin="round"/>
<path d="M202.975 125.223C196.396 125.223 188.819 130.307 189.916 132.6C190.614 133.996 194.601 131.504 194.601 131.504C194.601 131.504 190.115 133.398 191.012 134.894C191.91 136.389 196.097 134.096 196.097 134.096C196.097 134.096 191.411 135.691 192.408 137.187C193.405 138.682 194.103 137.087 197.891 136.888" fill="white"/>
<path d="M202.975 125.223C196.396 125.223 188.819 130.307 189.916 132.6C190.614 133.996 194.601 131.504 194.601 131.504C194.601 131.504 190.115 133.398 191.012 134.894C191.91 136.389 196.097 134.096 196.097 134.096C196.097 134.096 191.411 135.691 192.408 137.187C193.405 138.682 194.103 137.087 197.891 136.888" stroke="black" stroke-width="2" stroke-miterlimit="10" stroke-linecap="round" stroke-linejoin="round"/>
<path d="M212.857 144.945C212.857 147.667 215.872 149.406 217.38 149.935L229.465 151.72C228.929 147.972 233.215 145.473 227.211 143.357C227.474 142.753 227.683 141.361 226.425 140.636C225.166 139.91 224.196 140.938 223.869 141.543C223.672 140.333 222.61 138.05 219.936 138.594C217.262 139.139 216.725 141.543 216.79 142.677C215.479 142.299 212.857 142.223 212.857 144.945Z" fill="white"/>
<ellipse rx="9.64284" ry="9.56712" transform="matrix(-1 0 0 1 221.786 154.774)" fill="white" stroke="black" stroke-width="2" stroke-miterlimit="10" stroke-linecap="round" stroke-linejoin="round"/>
<ellipse rx="1.03286" ry="1.02798" transform="matrix(-0.89633 -0.443387 -0.449018 0.893523 219.959 154.168)" fill="black"/>
<ellipse rx="1.03287" ry="1.02798" transform="matrix(-0.896332 -0.443383 -0.449022 0.893521 214.959 153.097)" fill="black"/>
<path d="M218.984 158.379L214.439 157.44L214.406 157.598C214.142 158.852 214.946 160.079 216.201 160.338V160.338C217.456 160.597 218.687 159.791 218.951 158.536L218.984 158.379Z" fill="black"/>
<path d="M216.943 159.334C216.506 159.127 216.407 158.858 216.391 158.566L217.79 158.855C217.694 159.24 217.3 159.503 216.943 159.334Z" fill="white"/>
<ellipse rx="0.483765" ry="0.483801" transform="matrix(-0.68395 0.729528 0.729839 0.683618 225.971 157.472)" fill="black"/>
<ellipse rx="0.483752" ry="0.483786" transform="matrix(-0.68393 0.729547 0.72982 0.683638 224.648 158.883)" fill="black"/>
<ellipse rx="0.483749" ry="0.483784" transform="matrix(-0.683934 0.729543 0.729824 0.683634 223.236 157.561)" fill="black"/>
<ellipse rx="0.483763" ry="0.483798" transform="matrix(-0.683938 0.729539 0.729828 0.68363 223.325 160.295)" fill="black"/>
<ellipse rx="0.483752" ry="0.483787" transform="matrix(-0.683938 0.729539 0.729828 0.68363 221.912 158.972)" fill="black"/>
<path d="M232.914 155.573C232.798 157.999 230.876 159.88 228.621 159.775C226.367 159.669 226.787 150.884 229.042 150.989C231.297 151.095 233.03 153.147 232.914 155.573Z" fill="white"/>
<path d="M228.622 159.774C230.877 159.88 232.799 157.999 232.915 155.573C233.031 153.147 231.297 151.095 229.042 150.989" stroke="black" stroke-width="2"/>
<path d="M229.21 156.662C229.987 156.698 230.65 156.05 230.69 155.214C230.73 154.377 230.132 153.67 229.355 153.633" stroke="black" stroke-width="2"/>
<path d="M217.379 149.935C215.872 149.406 212.857 147.667 212.857 144.945C212.857 142.223 215.479 142.299 216.79 142.677C216.724 141.543 217.261 139.139 219.936 138.594C222.61 138.05 223.672 140.333 223.868 141.543C224.196 140.938 225.166 139.91 226.424 140.636C227.683 141.361 227.473 142.753 227.211 143.357C233.214 145.473 228.928 147.972 229.464 151.72" stroke="black" stroke-width="2"/>
<rect y="173" width="325" height="42" fill="url(#paint0_linear)"/>
<defs>
<linearGradient id="paint0_linear" x1="209.02" y1="210" x2="209.02" y2="173" gradientUnits="userSpaceOnUse">
<stop stop-color="white"/>
<stop offset="1" stop-color="#EEEEEE" stop-opacity="0"/>
</linearGradient>
</defs>
</svg>
