<svg width="470" height="493" viewBox="0 0 470 493" fill="none" xmlns="http://www.w3.org/2000/svg">
<g clip-path="url(#clip0)">
<path d="M239 126C264.405 126 285 105.405 285 80C285 54.5949 264.405 34 239 34C213.595 34 193 54.5949 193 80C193 105.405 213.595 126 239 126Z" stroke="#86ED18" stroke-width="8"/>
<path d="M330.322 244.45C313.843 244.448 298.038 237.903 286.373 226.251C274.708 214.599 268.135 198.792 268.096 182.295V163.1C268.096 158.483 269.928 154.054 273.189 150.789C276.451 147.524 280.874 145.69 285.487 145.69C290.099 145.69 294.523 147.524 297.784 150.789C301.046 154.054 302.878 158.483 302.878 163.1V182.295C302.901 189.559 305.798 196.519 310.935 201.65C316.072 206.781 323.03 209.666 330.287 209.673C332.641 209.555 334.995 209.917 337.204 210.738C339.414 211.558 341.435 212.82 343.142 214.446C344.85 216.073 346.21 218.03 347.139 220.198C348.068 222.367 348.548 224.702 348.548 227.061C348.548 229.421 348.068 231.756 347.139 233.925C346.21 236.093 344.85 238.05 343.142 239.676C341.435 241.302 339.414 242.564 337.204 243.385C334.995 244.205 332.641 244.568 330.287 244.45H330.322Z" fill="black"/>
<path d="M11.1043 147.474C12.3082 147.474 13.485 147.117 14.486 146.447C15.487 145.778 16.2672 144.826 16.7279 143.713C17.1886 142.599 17.3092 141.374 17.0743 140.192C16.8394 139.01 16.2597 137.924 15.4084 137.072C14.5571 136.22 13.4726 135.639 12.2918 135.404C11.111 135.169 9.88716 135.29 8.77491 135.751C7.66267 136.212 6.71201 136.993 6.04317 137.995C5.37433 138.997 5.01733 140.176 5.01733 141.381C5.01733 142.997 5.65864 144.547 6.80016 145.69C7.94169 146.832 9.48993 147.474 11.1043 147.474Z" fill="white" stroke="black" stroke-width="3" stroke-miterlimit="10"/>
<path d="M367.33 349.878L424.296 407.15L359.27 490.902C359.27 490.902 351.148 480.665 351.339 472.029C351.53 463.394 364.496 448.456 357.983 436.669" fill="white"/>
<path d="M367.33 349.878L424.296 407.15L359.27 490.902C359.27 490.902 351.148 480.665 351.339 472.029C351.53 463.394 364.496 448.456 357.983 436.669" stroke="black" stroke-width="3" stroke-miterlimit="10"/>
<path d="M342.896 296.69C342.896 296.69 312.461 349.504 310.07 359.106C307.678 368.708 318.33 382.418 318.33 382.418" fill="white"/>
<path d="M342.896 296.69C342.896 296.69 312.461 349.504 310.07 359.106C307.678 368.708 318.33 382.418 318.33 382.418" stroke="black" stroke-width="3" stroke-miterlimit="10"/>
<path d="M382.609 311.637L358.687 491.277H252.365C252.365 491.277 255.522 478.584 262.487 473.431C269.452 468.277 289.565 469.183 294.922 456.813C297.435 450.954 339.73 312.15 339.73 312.15C343.148 300.833 339.087 295.14 336.635 289.865C331.548 278.914 315.557 246.191 315.687 239.236C316.009 225.455 326.835 214.313 340.635 214.313C354.435 214.313 359.53 220.493 365.591 239.236L382.557 303.193C382.995 305.989 383.013 308.835 382.609 311.637Z" fill="white" stroke="black" stroke-width="3" stroke-miterlimit="10"/>
<path d="M303.113 317.303H287.052C282.44 317.303 278.016 315.469 274.755 312.204C271.493 308.939 269.661 304.511 269.661 299.893C269.661 295.276 271.493 290.847 274.755 287.582C278.016 284.317 282.44 282.483 287.052 282.483H303.113C306.168 282.484 309.193 281.881 312.014 280.709C314.836 279.537 317.398 277.819 319.554 275.653C321.711 273.487 323.419 270.916 324.58 268.087C325.741 265.259 326.333 262.228 326.322 259.17L326.261 229.991C326.272 225.386 328.101 220.972 331.349 217.711C334.597 214.45 339 212.606 343.6 212.58H343.67C348.267 212.58 352.677 214.403 355.936 217.649C359.195 220.895 361.038 225.301 361.061 229.904L361.122 259.083C361.149 266.726 359.668 274.299 356.763 281.367C353.859 288.435 349.588 294.859 344.196 300.269C338.804 305.68 332.398 309.971 325.344 312.896C318.291 315.821 310.73 317.321 303.096 317.312L303.113 317.303Z" fill="black"/>
<path d="M93.2956 235.431C78.9865 235.429 65.2623 229.746 55.1328 219.628C45.0033 209.51 39.2954 195.784 39.2609 181.459C39.2609 176.842 41.0932 172.413 44.3547 169.148C47.6162 165.883 52.0397 164.049 56.6522 164.049C61.2646 164.049 65.6882 165.883 68.9497 169.148C72.2112 172.413 74.0435 176.842 74.0435 181.459C74.0435 186.562 76.0681 191.455 79.6721 195.063C83.2761 198.671 88.1641 200.698 93.2609 200.698C98.3576 200.698 103.246 198.671 106.85 195.063C110.454 191.455 112.478 186.562 112.478 181.459V175.209C112.478 170.591 114.311 166.163 117.572 162.898C120.834 159.633 125.257 157.799 129.87 157.799C134.482 157.799 138.906 159.633 142.167 162.898C145.429 166.163 147.261 170.591 147.261 175.209V181.459C147.238 195.775 141.543 209.498 131.426 219.616C121.309 229.734 107.596 235.422 93.2956 235.431Z" fill="black"/>
<path d="M105.287 301.46C115.67 312.664 142.678 343.515 146.235 345.508C157.539 351.889 175.313 348.216 183.183 349.765C191.052 351.315 199.626 360.969 199.626 360.969L116.574 406.575L42.6609 271.889C38.4995 271.894 34.3777 271.079 30.5315 269.489C26.6852 267.898 23.1898 265.564 20.2452 262.621C17.3006 259.677 14.9646 256.181 13.3707 252.333C11.7769 248.484 10.9565 244.359 10.9565 240.193V182.739L13.4696 178.386C13.4857 171.262 16.3269 164.436 21.3687 159.408C26.4105 154.381 33.2402 151.563 40.3565 151.574C46.3373 151.615 52.1372 153.633 56.8547 157.313C61.5722 160.994 64.9431 166.131 66.4435 171.927C68.0609 177.916 66.4435 207.349 67.8696 210.448C70.4783 216.045 103.974 190.739 133.087 218.178C157.783 241.49 124.191 281.038 109.809 295.854C103.746 302.078 100.229 310.347 99.9479 319.036C99.687 326.766 100.461 334.244 99.6261 338.683C98.1392 346.605 88.4087 355.11 88.4087 355.11L42.7565 272.019L82.9218 249.995" fill="white"/>
<path d="M105.287 301.46C115.67 312.664 142.678 343.515 146.235 345.508C157.539 351.889 175.313 348.216 183.183 349.765C191.052 351.315 199.626 360.969 199.626 360.969L116.574 406.575L42.6609 271.889C38.4995 271.894 34.3777 271.079 30.5315 269.489C26.6852 267.898 23.1898 265.564 20.2452 262.621C17.3006 259.677 14.9646 256.181 13.3707 252.333C11.7769 248.484 10.9565 244.359 10.9565 240.193V182.739L13.4696 178.386C13.4857 171.262 16.3269 164.436 21.3687 159.408C26.4105 154.381 33.2402 151.563 40.3565 151.574C46.3373 151.615 52.1372 153.633 56.8547 157.313C61.5722 160.994 64.9431 166.131 66.4435 171.927C68.0609 177.916 66.4435 207.349 67.8696 210.448C70.4783 216.045 103.974 190.739 133.087 218.178C157.783 241.49 124.191 281.038 109.809 295.854C103.746 302.078 100.229 310.347 99.9479 319.036C99.687 326.766 100.461 334.244 99.6261 338.683C98.1392 346.605 88.4087 355.11 88.4087 355.11L42.7565 272.019L82.9218 249.995" stroke="black" stroke-width="3" stroke-miterlimit="10"/>
<path d="M122.896 166.582L128.626 166.643" stroke="black" stroke-width="3" stroke-miterlimit="10"/>
<path d="M13.3391 140.493C13.2667 139.527 13.29 138.556 13.4087 137.594" stroke="black" stroke-width="3" stroke-miterlimit="10"/>
<path d="M32.9392 157.433C37.1234 157.425 41.2112 156.175 44.6861 153.841C48.1609 151.508 50.867 148.195 52.4622 144.323C54.0575 140.451 54.4705 136.192 53.6489 132.084C52.8273 127.977 50.8081 124.206 47.8464 121.247C44.8847 118.288 41.1133 116.274 37.0089 115.46C32.9044 114.646 28.651 115.068 24.7861 116.673C20.9212 118.278 17.6182 120.994 15.2945 124.478C12.9707 127.961 11.7305 132.056 11.7305 136.245C11.7374 141.87 13.9755 147.262 17.9526 151.235C21.9298 155.208 27.3204 157.438 32.9392 157.433Z" fill="white" stroke="black" stroke-width="3" stroke-miterlimit="10"/>
<path d="M40.2348 113.463C41.1378 114.38 42.3475 114.931 43.6314 115.01C44.9154 115.089 46.1832 114.69 47.1913 113.89C48.1631 113.132 48.8495 112.067 49.1386 110.869C49.4276 109.67 49.3021 108.409 48.7826 107.291C48.3361 106.414 47.6548 105.679 46.8149 105.167C45.9749 104.655 45.0094 104.387 44.0261 104.392C43.8609 104.392 43.7826 104.201 43.9652 104.062C44.6826 103.654 45.3004 103.092 45.7739 102.416C46.24 101.722 46.5354 100.928 46.6357 100.098C46.736 99.2679 46.6385 98.4259 46.3511 97.6408C46.0637 96.8558 45.5946 96.15 44.9822 95.5815C44.3698 95.0129 43.6316 94.5977 42.828 94.3698C42.0244 94.1419 41.1783 94.1079 40.3591 94.2704C39.5398 94.433 38.7707 94.7876 38.1147 95.3051C37.4587 95.8226 36.9345 96.4883 36.5851 97.2478C36.2356 98.0072 36.0709 98.8387 36.1043 99.6741C36.1043 99.8395 35.9043 99.9179 35.7652 99.7351C35.2126 98.706 34.4372 97.8137 33.4956 97.1235C32.2676 96.1892 30.8053 95.6133 29.2705 95.4596C27.7358 95.306 26.1885 95.5806 24.8 96.253C22.9269 97.1544 21.4672 98.7363 20.7177 100.677C19.9682 102.617 19.9852 104.771 20.7652 106.699C15.6 111.148 14.3478 117.45 16.4695 122.473" stroke="black" stroke-width="3" stroke-miterlimit="10"/>
<path d="M24.6261 138.691C24.7042 138.693 24.7811 138.671 24.8467 138.628C24.9124 138.586 24.9639 138.525 24.9946 138.453C25.0253 138.381 25.0337 138.302 25.0189 138.225C25.0041 138.148 24.9667 138.078 24.9114 138.022C24.8562 137.967 24.7857 137.929 24.7089 137.915C24.6322 137.9 24.5528 137.908 24.481 137.939C24.4092 137.97 24.3481 138.021 24.3058 138.087C24.2635 138.153 24.2418 138.23 24.2435 138.308C24.2457 138.409 24.2867 138.505 24.358 138.576C24.4293 138.648 24.5253 138.689 24.6261 138.691Z" fill="black" stroke="black" stroke-width="1.5" stroke-miterlimit="10"/>
<path d="M26.4956 140.623C26.5737 140.625 26.6506 140.603 26.7162 140.561C26.7819 140.518 26.8334 140.457 26.8641 140.385C26.8948 140.314 26.9032 140.234 26.8884 140.157C26.8736 140.08 26.8362 140.01 26.7809 139.955C26.7257 139.899 26.6552 139.862 26.5784 139.847C26.5017 139.832 26.4224 139.841 26.3505 139.871C26.2787 139.902 26.2176 139.954 26.1753 140.019C26.133 140.085 26.1113 140.162 26.113 140.24C26.1152 140.341 26.1562 140.437 26.2275 140.509C26.2988 140.58 26.3948 140.621 26.4956 140.623Z" fill="black" stroke="black" stroke-width="1.5" stroke-miterlimit="10"/>
<path d="M20.8173 138.63C20.8947 138.63 20.9704 138.607 21.0347 138.564C21.0991 138.521 21.1492 138.46 21.1788 138.388C21.2085 138.316 21.2162 138.238 21.2011 138.162C21.186 138.086 21.1488 138.016 21.094 137.961C21.0393 137.906 20.9696 137.869 20.8937 137.854C20.8178 137.839 20.7391 137.847 20.6676 137.876C20.5961 137.906 20.535 137.956 20.492 138.021C20.449 138.085 20.426 138.161 20.426 138.238C20.426 138.29 20.4361 138.341 20.4558 138.388C20.4755 138.436 20.5043 138.479 20.5406 138.515C20.577 138.552 20.6201 138.58 20.6676 138.6C20.7151 138.62 20.7659 138.63 20.8173 138.63Z" fill="black" stroke="black" stroke-width="1.5" stroke-miterlimit="10"/>
<path d="M24.6261 142.556C24.7042 142.558 24.7811 142.536 24.8467 142.493C24.9124 142.451 24.9639 142.39 24.9946 142.318C25.0253 142.246 25.0337 142.167 25.0189 142.09C25.0041 142.013 24.9667 141.943 24.9114 141.887C24.8562 141.832 24.7857 141.794 24.7089 141.78C24.6322 141.765 24.5528 141.773 24.481 141.804C24.4092 141.835 24.3481 141.886 24.3058 141.952C24.2635 142.018 24.2418 142.095 24.2435 142.173C24.2457 142.274 24.2867 142.37 24.358 142.441C24.4293 142.513 24.5253 142.554 24.6261 142.556Z" fill="black" stroke="black" stroke-width="1.5" stroke-miterlimit="10"/>
<path d="M22.6956 140.562C22.773 140.562 22.8487 140.539 22.913 140.496C22.9774 140.453 23.0275 140.392 23.0571 140.32C23.0868 140.249 23.0945 140.17 23.0794 140.094C23.0643 140.018 23.027 139.948 22.9723 139.894C22.9176 139.839 22.8479 139.801 22.772 139.786C22.6961 139.771 22.6174 139.779 22.5459 139.809C22.4744 139.838 22.4133 139.888 22.3703 139.953C22.3273 140.017 22.3043 140.093 22.3043 140.171C22.3043 140.274 22.3455 140.374 22.4189 140.448C22.4923 140.521 22.5918 140.562 22.6956 140.562Z" fill="black" stroke="black" stroke-width="1.5" stroke-miterlimit="10"/>
<path d="M46.6782 138.56C47.3913 141.398 45.9043 144.227 43.3913 144.811C40.8782 145.394 38.2347 143.653 37.5217 140.815L36.9391 138.499L46.1652 136.184L46.6782 138.56Z" fill="black"/>
<path d="M40.1653 145.907C40.8153 145.907 41.4508 145.714 41.9914 145.353C42.5319 144.991 42.9532 144.477 43.202 143.876C43.4508 143.275 43.5159 142.613 43.389 141.975C43.2622 141.336 42.9492 140.75 42.4895 140.29C42.0298 139.83 41.4441 139.516 40.8065 139.389C40.1689 139.262 39.508 139.328 38.9074 139.577C38.3068 139.826 37.7934 140.247 37.4322 140.789C37.0711 141.33 36.8783 141.966 36.8783 142.617C36.8783 143.489 37.2246 144.326 37.841 144.943C38.4574 145.561 39.2935 145.907 40.1653 145.907Z" fill="white"/>
<path d="M47 139.083C47.3067 140.298 47.1185 141.586 46.4768 142.662C45.8351 143.739 44.7925 144.517 43.5782 144.824C42.364 145.131 41.0777 144.942 40.0022 144.3C38.9267 143.657 38.1502 142.614 37.8434 141.398L36.9739 138.56L46.2 136.245L47 139.083Z" stroke="black" stroke-width="3" stroke-miterlimit="10"/>
<path d="M38.6174 247.349C28.3911 247.342 18.5844 243.277 11.346 236.046C4.10757 228.814 0.0276115 219.005 0 208.767V166.321C0 161.703 1.83229 157.275 5.09379 154.01C8.3553 150.745 12.7788 148.911 17.3913 148.911C22.0038 148.911 26.4273 150.745 29.6888 154.01C32.9503 157.275 34.7826 161.703 34.7826 166.321V208.767C34.8294 209.746 35.2506 210.669 35.9589 211.345C36.6672 212.021 37.6083 212.398 38.587 212.398C39.5656 212.398 40.5067 212.021 41.215 211.345C41.9233 210.669 42.3446 209.746 42.3913 208.767V184.941C42.3913 180.324 44.2236 175.895 47.4851 172.63C50.7466 169.365 55.1701 167.531 59.7826 167.531C64.3951 167.531 68.8186 169.365 72.0801 172.63C75.3416 175.895 77.1739 180.324 77.1739 184.941V208.767C77.1441 218.994 73.0717 228.792 65.847 236.022C58.6222 243.251 48.8325 247.323 38.6174 247.349Z" fill="black"/>
<path d="M68.0174 169.681L68.087 147.205C68.0382 146.142 67.5822 145.139 66.8138 144.404C66.0453 143.669 65.0235 143.259 63.9609 143.259C62.8982 143.259 61.8764 143.669 61.108 144.404C60.3395 145.139 59.8835 146.142 59.8348 147.205L59.7652 169.742L59.8348 147.265C59.8359 146.723 59.7298 146.186 59.5224 145.684C59.315 145.183 59.0105 144.728 58.6265 144.345C58.2425 143.962 57.7866 143.659 57.285 143.454C56.7835 143.248 56.2463 143.144 55.7044 143.148C55.1616 143.14 54.6226 143.241 54.1194 143.444C53.6162 143.648 53.159 143.951 52.7747 144.335C52.3904 144.719 52.087 145.176 51.8822 145.679C51.6774 146.183 51.5756 146.722 51.5826 147.265L51.5131 169.812L51.5826 147.335C51.5826 146.238 51.1474 145.187 50.3728 144.411C49.5982 143.636 48.5476 143.2 47.4522 143.2C46.3567 143.2 45.3061 143.636 44.5315 144.411C43.7569 145.187 43.3217 146.238 43.3217 147.335L43.2609 169.551L34.1739 169.49C33.6173 169.464 33.0613 169.552 32.5394 169.747C32.0176 169.943 31.5408 170.242 31.1378 170.628C30.7349 171.013 30.4142 171.476 30.195 171.989C29.9759 172.502 29.8629 173.054 29.8629 173.612C29.8629 174.169 29.9759 174.722 30.195 175.234C30.4142 175.747 30.7349 176.21 31.1378 176.596C31.5408 176.981 32.0176 177.28 32.5394 177.476C33.0613 177.672 33.6173 177.759 34.1739 177.734L43.2609 177.794V184.95L76.3043 185.203L76.3652 156.023C76.3165 154.96 75.8605 153.957 75.092 153.222C74.3236 152.488 73.3018 152.078 72.2391 152.078C71.1765 152.078 70.1547 152.488 69.3862 153.222C68.6178 153.957 68.1618 154.96 68.113 156.023" fill="white"/>
<path d="M68.0174 169.681L68.087 147.205C68.0382 146.142 67.5822 145.139 66.8138 144.404C66.0453 143.669 65.0235 143.259 63.9609 143.259C62.8982 143.259 61.8764 143.669 61.108 144.404C60.3395 145.139 59.8835 146.142 59.8348 147.205L59.7652 169.742L59.8348 147.265C59.8359 146.723 59.7298 146.186 59.5224 145.684C59.315 145.183 59.0105 144.728 58.6265 144.345C58.2425 143.962 57.7866 143.659 57.285 143.454C56.7835 143.248 56.2463 143.144 55.7044 143.148C55.1616 143.14 54.6226 143.241 54.1194 143.444C53.6162 143.648 53.159 143.951 52.7747 144.335C52.3904 144.719 52.087 145.176 51.8822 145.679C51.6774 146.183 51.5756 146.722 51.5826 147.265L51.5131 169.812L51.5826 147.335C51.5826 146.238 51.1474 145.187 50.3728 144.411C49.5982 143.636 48.5476 143.2 47.4522 143.2C46.3567 143.2 45.3061 143.636 44.5315 144.411C43.7569 145.187 43.3217 146.238 43.3217 147.335L43.2609 169.551L34.1739 169.49C33.6173 169.464 33.0613 169.552 32.5394 169.747C32.0176 169.943 31.5408 170.242 31.1378 170.628C30.7349 171.013 30.4142 171.476 30.195 171.989C29.9759 172.502 29.8629 173.054 29.8629 173.612C29.8629 174.169 29.9759 174.722 30.195 175.234C30.4142 175.747 30.7349 176.21 31.1378 176.596C31.5408 176.981 32.0176 177.28 32.5394 177.476C33.0613 177.672 33.6173 177.759 34.1739 177.734L43.2609 177.794V184.95L76.3043 185.203L76.3652 156.023C76.3165 154.96 75.8605 153.957 75.092 153.222C74.3236 152.488 73.3018 152.078 72.2391 152.078C71.1765 152.078 70.1547 152.488 69.3862 153.222C68.6178 153.957 68.1618 154.96 68.113 156.023" stroke="black" stroke-width="3" stroke-miterlimit="10"/>
<path d="M110.835 171.544H113.217L113.287 167.287" fill="white"/>
<path d="M110.835 171.544H113.217L113.287 167.287" stroke="black" stroke-width="3" stroke-miterlimit="10"/>
<path d="M146.296 159.305V183.07H113.252L113.313 179.335H112.539C110.54 179.335 108.623 178.542 107.208 177.128C105.793 175.715 104.996 173.798 104.991 171.797L105.061 165.102C105.063 164.525 105.187 163.954 105.425 163.428C105.663 162.902 106.009 162.432 106.441 162.049C106.872 161.666 107.38 161.379 107.931 161.206C108.481 161.033 109.062 160.978 109.635 161.046C110.678 161.168 111.636 161.679 112.318 162.478C113 163.277 113.355 164.305 113.313 165.355" fill="white"/>
<path d="M146.296 159.305V183.07H113.252L113.313 179.335H112.539C110.54 179.335 108.623 178.542 107.208 177.128C105.793 175.715 104.996 173.798 104.991 171.797L105.061 165.102C105.063 164.525 105.187 163.954 105.425 163.428C105.663 162.902 106.009 162.432 106.441 162.049C106.872 161.666 107.38 161.379 107.931 161.206C108.481 161.033 109.062 160.978 109.635 161.046C110.678 161.168 111.636 161.679 112.318 162.478C113 163.277 113.355 164.305 113.313 165.355" stroke="black" stroke-width="3" stroke-miterlimit="10"/>
<path d="M113.348 154.404L113.287 167.287C113.336 168.35 113.792 169.353 114.56 170.088C115.329 170.823 116.35 171.233 117.413 171.233C118.476 171.233 119.498 170.823 120.266 170.088C121.034 169.353 121.49 168.35 121.539 167.287L121.6 154.404H113.348Z" fill="white" stroke="black" stroke-width="3" stroke-miterlimit="10"/>
<path d="M121.539 154.473L121.47 167.357C121.518 168.42 121.974 169.423 122.743 170.158C123.511 170.892 124.533 171.302 125.596 171.302C126.658 171.302 127.68 170.892 128.449 170.158C129.217 169.423 129.673 168.42 129.722 167.357L129.791 154.473H121.539Z" fill="white" stroke="black" stroke-width="3" stroke-miterlimit="10"/>
<path d="M129.791 154.473L129.722 167.357C129.721 167.9 129.827 168.437 130.034 168.938C130.241 169.439 130.546 169.895 130.93 170.277C131.314 170.66 131.77 170.963 132.271 171.169C132.773 171.374 133.31 171.478 133.852 171.475C134.395 171.483 134.934 171.382 135.437 171.178C135.94 170.974 136.398 170.671 136.782 170.287C137.166 169.903 137.47 169.446 137.674 168.943C137.879 168.44 137.981 167.9 137.974 167.357L138.043 154.473H129.791Z" fill="white" stroke="black" stroke-width="3" stroke-miterlimit="10"/>
<path d="M138.044 154.473L137.983 167.357C138.031 168.42 138.487 169.423 139.256 170.158C140.024 170.892 141.046 171.302 142.109 171.302C143.171 171.302 144.193 170.892 144.962 170.158C145.73 169.423 146.186 168.42 146.235 167.357L146.296 154.473H138.044Z" fill="white" stroke="black" stroke-width="3" stroke-miterlimit="10"/>
<path d="M101.809 152.349V166.643L80.0696 170.056V149.163L101.809 152.349Z" fill="#86ED18"/>
<path d="M105.035 156.145L104.965 170.447L83.2261 173.729L83.3565 152.793L105.035 156.145Z" stroke="black" stroke-width="3" stroke-miterlimit="10"/>
<path d="M105.017 159.026V167.531L113.27 167.575L113.313 159.07L105.017 159.026Z" fill="white" stroke="black" stroke-width="3" stroke-miterlimit="10"/>
<path d="M277.835 266.805H263.522L260.104 245.094H281.061L277.835 266.805Z" fill="#86ED18"/>
<path d="M281.965 270.026L267.643 269.956L264.356 248.315L285.313 248.385L281.965 270.026Z" stroke="black" stroke-width="3" stroke-miterlimit="10"/>
<path d="M279.078 270.043H270.565V276.294H279.07L279.078 270.043Z" fill="white" stroke="black" stroke-width="3" stroke-miterlimit="10"/>
<path d="M146.487 162.073H241.53C252.075 162.073 262.516 159.994 272.258 155.954C282 151.914 290.852 145.993 298.308 138.529C305.764 131.065 311.679 122.203 315.714 112.451C319.749 102.698 321.826 92.2454 321.826 81.6892C321.826 71.1331 319.749 60.6804 315.714 50.9278C311.679 41.1752 305.764 32.3138 298.308 24.8495C290.852 17.3852 282 11.4642 272.258 7.42453C262.516 3.38488 252.075 1.30569 241.53 1.30569H236.183C214.865 1.28721 194.413 9.74468 179.323 24.8185C164.233 39.8924 155.741 60.3485 155.713 81.6892V357.713C155.902 373.388 162.255 388.357 173.395 399.375C184.534 410.392 199.562 416.571 215.222 416.571C230.881 416.571 245.909 410.392 257.049 399.375C268.188 388.357 274.541 373.388 274.73 357.713L274.861 276.363" stroke="black" stroke-width="3" stroke-miterlimit="10"/>
<path d="M42.7478 272.019H3.31299V491.276H163.061L42.7478 272.019Z" fill="white" stroke="black" stroke-width="3" stroke-miterlimit="10"/>
<path d="M272.739 308.093L265.391 308.154C264.855 308.159 264.322 308.057 263.825 307.856C263.327 307.655 262.874 307.357 262.491 306.98C262.108 306.604 261.804 306.155 261.594 305.661C261.384 305.166 261.274 304.635 261.27 304.098C261.265 303.56 261.366 303.027 261.567 302.529C261.768 302.031 262.066 301.577 262.442 301.194C262.818 300.811 263.266 300.506 263.76 300.296C264.254 300.086 264.785 299.976 265.322 299.971L272.678 299.91L265.322 299.971C264.77 300.001 264.218 299.918 263.7 299.727C263.181 299.537 262.706 299.244 262.304 298.865C261.902 298.486 261.581 298.029 261.36 297.522C261.139 297.015 261.023 296.469 261.018 295.916C261.014 295.363 261.122 294.815 261.336 294.305C261.549 293.795 261.863 293.334 262.26 292.949C262.656 292.564 263.127 292.263 263.643 292.065C264.158 291.867 264.709 291.776 265.261 291.797L272.609 291.728L265.261 291.797C264.724 291.801 264.192 291.699 263.694 291.497C263.197 291.296 262.744 290.997 262.362 290.62C261.98 290.243 261.675 289.795 261.466 289.3C261.257 288.805 261.147 288.274 261.143 287.736C261.139 287.199 261.241 286.666 261.443 286.168C261.645 285.67 261.942 285.217 262.319 284.834C262.696 284.451 263.144 284.147 263.638 283.937C264.133 283.728 264.663 283.618 265.2 283.614L278.8 283.484L278.739 274.465C278.779 273.411 279.224 272.412 279.98 271.678C280.737 270.943 281.747 270.529 282.801 270.521C283.855 270.513 284.872 270.912 285.639 271.636C286.407 272.359 286.866 273.351 286.922 274.404L286.991 283.484H294.148L294.409 316.398L265.2 316.468C264.663 316.472 264.131 316.371 263.633 316.17C263.136 315.968 262.683 315.671 262.3 315.294C261.917 314.917 261.612 314.469 261.403 313.974C261.193 313.479 261.083 312.948 261.078 312.411C261.074 311.874 261.175 311.341 261.376 310.843C261.577 310.345 261.874 309.891 262.251 309.508C262.627 309.125 263.075 308.819 263.569 308.61C264.063 308.4 264.594 308.289 265.13 308.285" fill="white"/>
<path d="M272.739 308.093L265.391 308.154C264.855 308.159 264.322 308.057 263.825 307.856C263.327 307.655 262.874 307.357 262.491 306.98C262.108 306.604 261.804 306.155 261.594 305.661C261.384 305.166 261.274 304.635 261.27 304.098C261.265 303.56 261.366 303.027 261.567 302.529C261.768 302.031 262.066 301.577 262.442 301.194C262.818 300.811 263.266 300.506 263.76 300.296C264.254 300.086 264.785 299.976 265.322 299.971L272.678 299.91L265.322 299.971C264.77 300.001 264.218 299.918 263.7 299.727C263.181 299.537 262.706 299.244 262.304 298.865C261.902 298.486 261.581 298.029 261.36 297.522C261.139 297.015 261.023 296.469 261.018 295.916C261.014 295.363 261.122 294.815 261.336 294.305C261.549 293.795 261.863 293.334 262.26 292.949C262.656 292.564 263.127 292.263 263.643 292.065C264.158 291.867 264.709 291.776 265.261 291.797L272.609 291.728L265.261 291.797C264.724 291.801 264.192 291.699 263.694 291.497C263.197 291.296 262.744 290.997 262.362 290.62C261.98 290.243 261.675 289.795 261.466 289.3C261.257 288.805 261.147 288.274 261.143 287.736C261.139 287.199 261.241 286.666 261.443 286.168C261.645 285.67 261.942 285.217 262.319 284.834C262.696 284.451 263.144 284.147 263.638 283.937C264.133 283.728 264.663 283.618 265.2 283.614L278.8 283.484L278.739 274.465C278.779 273.411 279.224 272.412 279.98 271.678C280.737 270.943 281.747 270.529 282.801 270.521C283.855 270.513 284.872 270.912 285.639 271.636C286.407 272.359 286.866 273.351 286.922 274.404L286.991 283.484H294.148L294.409 316.398L265.2 316.468C264.663 316.472 264.131 316.371 263.633 316.17C263.136 315.968 262.683 315.671 262.3 315.294C261.917 314.917 261.612 314.469 261.403 313.974C261.193 313.479 261.083 312.948 261.078 312.411C261.074 311.874 261.175 311.341 261.376 310.843C261.577 310.345 261.874 309.891 262.251 309.508C262.627 309.125 263.075 308.819 263.569 308.61C264.063 308.4 264.594 308.289 265.13 308.285" stroke="black" stroke-width="3" stroke-miterlimit="10"/>
<path d="M355.6 209.673C356.771 209.671 357.915 209.322 358.888 208.67C359.86 208.017 360.618 207.091 361.065 206.007C361.512 204.924 361.628 203.732 361.398 202.583C361.169 201.433 360.604 200.378 359.776 199.55C358.947 198.721 357.892 198.158 356.743 197.93C355.595 197.702 354.405 197.82 353.323 198.268C352.242 198.717 351.317 199.477 350.667 200.452C350.017 201.427 349.67 202.573 349.67 203.745C349.672 205.318 350.298 206.826 351.41 207.937C352.522 209.049 354.029 209.673 355.6 209.673Z" fill="white" stroke="black" stroke-width="3" stroke-miterlimit="10"/>
<path d="M336.122 217.56C340.249 217.56 344.284 216.334 347.716 214.039C351.148 211.743 353.823 208.48 355.403 204.662C356.982 200.845 357.396 196.644 356.59 192.591C355.785 188.539 353.797 184.816 350.879 181.894C347.96 178.972 344.242 176.982 340.193 176.176C336.145 175.37 331.949 175.784 328.135 177.365C324.322 178.947 321.063 181.624 318.769 185.06C316.476 188.496 315.252 192.535 315.252 196.667C315.252 202.208 317.451 207.522 321.365 211.44C325.279 215.359 330.587 217.56 336.122 217.56Z" fill="white" stroke="black" stroke-width="3" stroke-miterlimit="10"/>
<path d="M335.478 189.921C335.822 189.921 336.158 189.819 336.444 189.627C336.73 189.436 336.953 189.164 337.085 188.846C337.217 188.528 337.251 188.178 337.184 187.84C337.117 187.502 336.951 187.192 336.708 186.949C336.465 186.705 336.155 186.539 335.818 186.472C335.48 186.405 335.131 186.439 334.813 186.571C334.495 186.703 334.223 186.926 334.032 187.212C333.841 187.499 333.739 187.835 333.739 188.18C333.739 188.641 333.922 189.084 334.249 189.411C334.575 189.737 335.017 189.921 335.478 189.921Z" fill="black"/>
<path d="M326.826 186.456C327.17 186.456 327.506 186.354 327.792 186.163C328.078 185.971 328.301 185.699 328.433 185.381C328.565 185.063 328.599 184.713 328.532 184.375C328.465 184.038 328.299 183.727 328.056 183.484C327.813 183.24 327.503 183.075 327.165 183.007C326.828 182.94 326.478 182.975 326.161 183.106C325.843 183.238 325.571 183.461 325.38 183.748C325.189 184.034 325.087 184.371 325.087 184.715C325.087 185.177 325.27 185.62 325.596 185.946C325.923 186.273 326.365 186.456 326.826 186.456Z" fill="black"/>
<path d="M33.5913 132.763C33.9353 132.763 34.2715 132.66 34.5575 132.469C34.8435 132.278 35.0664 132.006 35.1981 131.688C35.3297 131.37 35.3641 131.02 35.297 130.682C35.2299 130.344 35.0643 130.034 34.8211 129.79C34.5778 129.547 34.268 129.381 33.9306 129.314C33.5932 129.247 33.2436 129.281 32.9258 129.413C32.608 129.545 32.3364 129.768 32.1453 130.054C31.9542 130.341 31.8522 130.677 31.8522 131.022C31.8522 131.483 32.0354 131.926 32.3616 132.253C32.6877 132.579 33.1301 132.763 33.5913 132.763Z" fill="black"/>
<path d="M43.1044 130.168C43.4483 130.168 43.7846 130.066 44.0706 129.875C44.3566 129.684 44.5795 129.412 44.7111 129.094C44.8427 128.775 44.8772 128.425 44.8101 128.088C44.743 127.75 44.5773 127.44 44.3341 127.196C44.0909 126.953 43.781 126.787 43.4437 126.72C43.1063 126.653 42.7566 126.687 42.4388 126.819C42.121 126.951 41.8494 127.174 41.6583 127.46C41.4672 127.746 41.3652 128.083 41.3652 128.427C41.3652 128.889 41.5485 129.332 41.8746 129.658C42.2008 129.985 42.6431 130.168 43.1044 130.168Z" fill="black"/>
<path d="M357.722 198.208C336.313 193.307 342.504 176.758 342.504 176.758L343.67 173.86L352.887 173.921C358.496 173.921 384.87 180.815 386.226 207.67C386.678 216.498 391.574 219.98 397.122 220.302H397.991C407.353 220.235 416.634 222.028 425.299 225.575C433.964 229.123 441.84 234.356 448.471 240.97C455.103 247.585 460.359 255.451 463.934 264.112C467.51 272.773 469.334 282.058 469.302 291.43C469.27 300.802 467.382 310.074 463.747 318.71C460.112 327.347 454.802 335.176 448.125 341.745C441.448 348.314 433.536 353.492 424.847 356.98C416.159 360.468 406.865 362.196 397.504 362.065H379.391" stroke="black" stroke-width="3" stroke-miterlimit="10"/>
<path d="M323.617 193.438C322.748 195.823 323.226 199.749 325.617 200.654C328.009 201.56 331.417 199.105 332.322 196.728L333.096 194.726L324.4 191.444L323.617 193.438Z" fill="black"/>
<path d="M331.252 198.339C331.888 198.337 332.509 198.146 333.037 197.791C333.565 197.437 333.976 196.933 334.219 196.344C334.461 195.756 334.523 195.108 334.398 194.484C334.273 193.86 333.966 193.287 333.516 192.837C333.065 192.387 332.492 192.082 331.868 191.958C331.244 191.834 330.598 191.899 330.01 192.143C329.423 192.387 328.921 192.8 328.568 193.329C328.215 193.859 328.026 194.481 328.026 195.118C328.028 195.973 328.369 196.792 328.974 197.396C329.579 197.999 330.398 198.339 331.252 198.339Z" fill="white"/>
<path d="M322.904 194.665C322.538 195.803 322.624 197.038 323.143 198.115C323.662 199.192 324.574 200.028 325.692 200.449C326.809 200.871 328.046 200.847 329.146 200.381C330.245 199.915 331.124 199.043 331.6 197.947L333.087 194.726L324.391 191.444L322.904 194.665Z" stroke="black" stroke-width="3" stroke-miterlimit="10"/>
<path d="M293.756 142.817L293.696 121.62C293.688 120.533 294.111 119.486 294.874 118.712C295.636 117.937 296.675 117.497 297.761 117.489C298.847 117.481 299.892 117.906 300.666 118.669C301.44 119.432 301.879 120.472 301.887 121.559L302.017 146.421L311.043 146.36C311.595 146.331 312.147 146.414 312.665 146.604C313.184 146.794 313.659 147.088 314.061 147.467C314.463 147.846 314.785 148.302 315.006 148.809C315.227 149.316 315.343 149.862 315.347 150.415C315.351 150.968 315.243 151.516 315.03 152.026C314.816 152.536 314.502 152.998 314.105 153.383C313.709 153.768 313.238 154.068 312.723 154.266C312.207 154.464 311.656 154.555 311.104 154.534L302.017 154.604V161.751L269.13 162.012V132.963" fill="white"/>
<path d="M293.756 142.817L293.696 121.62C293.688 120.533 294.111 119.486 294.874 118.712C295.636 117.937 296.675 117.497 297.761 117.489C298.847 117.481 299.892 117.906 300.666 118.669C301.44 119.432 301.879 120.472 301.887 121.559L302.017 146.421L311.043 146.36C311.595 146.331 312.147 146.414 312.665 146.604C313.184 146.794 313.659 147.088 314.061 147.467C314.463 147.846 314.785 148.302 315.006 148.809C315.227 149.316 315.343 149.862 315.347 150.415C315.351 150.968 315.243 151.516 315.03 152.026C314.816 152.536 314.502 152.998 314.105 153.383C313.709 153.768 313.238 154.068 312.723 154.266C312.207 154.464 311.656 154.555 311.104 154.534L302.017 154.604V161.751L269.13 162.012V132.963" stroke="black" stroke-width="3" stroke-miterlimit="10"/>
<path d="M285.504 133.024L285.574 143.07C285.583 144.157 285.16 145.204 284.399 145.979C283.637 146.754 282.599 147.195 281.513 147.205C280.427 147.214 279.381 146.791 278.607 146.028C277.832 145.266 277.392 144.227 277.383 143.139L277.339 133.12L277.4 143.174C277.404 143.713 277.302 144.246 277.1 144.745C276.898 145.244 276.599 145.699 276.222 146.082C275.844 146.466 275.395 146.771 274.9 146.981C274.404 147.191 273.873 147.301 273.335 147.305C272.797 147.309 272.264 147.207 271.765 147.004C271.267 146.802 270.813 146.503 270.43 146.125C270.047 145.747 269.742 145.298 269.532 144.802C269.323 144.306 269.213 143.773 269.209 143.235L269.13 133.12L293.757 132.989V143.035C293.718 144.089 293.274 145.088 292.518 145.824C291.763 146.559 290.753 146.975 289.698 146.984C288.644 146.993 287.627 146.595 286.859 145.872C286.091 145.149 285.631 144.158 285.574 143.104" fill="white"/>
<path d="M285.504 133.024L285.574 143.07C285.583 144.157 285.16 145.204 284.399 145.979C283.637 146.754 282.599 147.195 281.513 147.205C280.427 147.214 279.381 146.791 278.607 146.028C277.832 145.266 277.392 144.227 277.383 143.139L277.339 133.12L277.4 143.174C277.404 143.713 277.302 144.246 277.1 144.745C276.898 145.244 276.599 145.699 276.222 146.082C275.844 146.466 275.395 146.771 274.9 146.981C274.404 147.191 273.873 147.301 273.335 147.305C272.797 147.309 272.264 147.207 271.765 147.004C271.267 146.802 270.813 146.503 270.43 146.125C270.047 145.747 269.742 145.298 269.532 144.802C269.323 144.306 269.213 143.773 269.209 143.235L269.13 133.12L293.757 132.989V143.035C293.718 144.089 293.274 145.088 292.518 145.824C291.763 146.559 290.753 146.975 289.698 146.984C288.644 146.993 287.627 146.595 286.859 145.872C286.091 145.149 285.631 144.158 285.574 143.104" stroke="black" stroke-width="3" stroke-miterlimit="10"/>
</g>
<defs>
<clipPath id="clip0">
<rect width="470" height="493" fill="white"/>
</clipPath>
</defs>
</svg>
