<svg width="367" height="447" viewBox="0 0 367 447" fill="none" xmlns="http://www.w3.org/2000/svg">
<path d="M273.509 343.373L51.8281 307.57L101.358 0L323.039 35.8028L273.509 343.373Z" fill="#86EC16"/>
<path d="M299.339 129.524H314.871V145.056H299.339V129.524V129.524ZM299.339 150.679H314.871V166.211H299.339V150.678V150.679ZM299.339 171.763H314.871V187.295H299.339V171.763V171.763Z" fill="white" stroke="black" stroke-width="2" stroke-miterlimit="10"/>
<path d="M327.592 126.221L314.45 139.362L308.968 133.881M327.592 147.656L314.45 160.798L308.968 155.316" stroke="#86ED18" stroke-width="4" stroke-miterlimit="10"/>
<path d="M258.982 376.695L321.869 313.808C308.884 303.42 290.518 300.823 274.379 308.243C252.119 318.446 240.432 340.892 253.417 367.976C255.087 371.13 256.942 374.098 258.982 376.695Z" fill="white" stroke="black" stroke-width="2" stroke-miterlimit="10" stroke-linecap="round" stroke-linejoin="round"/>
<path d="M326.321 317.89L263.063 381.147C275.678 393.576 294.785 397.472 313.15 388.753C335.411 378.365 344.686 351.281 334.113 329.02C332.072 324.753 329.289 321.043 326.321 317.89Z" fill="black"/>
<path d="M249.712 397.843L199.996 360C192.576 370.017 191.648 383.559 199.44 395.432C208.715 409.901 228.379 413.797 242.663 404.336C245.445 402.296 247.857 400.255 249.712 397.843Z" fill="#86EC16"/>
<path d="M189.489 265.831C171.309 261.75 152.387 264.533 137.176 253.031C128.271 246.353 116.585 227.802 114.358 217.043C106.382 216.858 102.486 218.898 94.6947 220.382C94.5092 220.382 94.3237 220.382 94.1382 220.568C96.5498 235.223 104.341 249.136 115.286 259.524C133.837 276.776 158.88 283.825 182.996 289.205C198.207 292.544 204.7 269.356 189.489 265.831Z" fill="white" stroke="black" stroke-width="2" stroke-miterlimit="10" stroke-linecap="round" stroke-linejoin="round"/>
<path d="M179.286 264.718L178.915 271.211" stroke="black" stroke-width="2" stroke-miterlimit="10" stroke-linecap="round" stroke-linejoin="round"/>
<path d="M284.269 10.5742H211.365V107.594H284.269V10.5742Z" fill="white" stroke="black" stroke-width="2" stroke-miterlimit="10" stroke-linecap="round" stroke-linejoin="round"/>
<path d="M284.269 107.595H211.364L187.249 171.409H260.153L284.269 107.595Z" fill="white" stroke="black" stroke-width="2" stroke-miterlimit="10" stroke-linecap="round" stroke-linejoin="round"/>
<path d="M281.115 218.341H208.211L187.249 171.408H260.153L281.115 218.341Z" fill="white" stroke="black" stroke-width="2" stroke-miterlimit="10" stroke-linecap="round" stroke-linejoin="round"/>
<path d="M281.116 218.342H208.211L193.371 268.429L262.565 281.414L281.116 218.342Z" fill="white" stroke="black" stroke-width="2" stroke-miterlimit="10" stroke-linecap="round" stroke-linejoin="round"/>
<path d="M127.145 277.704L193.37 268.429L262.564 281.414L182.426 303.861" fill="white"/>
<path d="M127.145 277.704L193.37 268.429L262.564 281.414L182.426 303.861" stroke="black" stroke-width="2" stroke-miterlimit="10" stroke-linecap="round" stroke-linejoin="round"/>
<path d="M226.205 32.835H270.727" stroke="black" stroke-width="2" stroke-miterlimit="10" stroke-linecap="round" stroke-linejoin="round"/>
<path d="M238.635 54.5391C249.394 54.5391 259.968 54.5391 270.727 54.5391" stroke="black" stroke-width="2" stroke-miterlimit="10" stroke-linecap="round" stroke-linejoin="round"/>
<path d="M262.564 76.0586C265.347 76.0586 267.944 76.0586 270.727 76.0586" stroke="black" stroke-width="2" stroke-miterlimit="10" stroke-linecap="round" stroke-linejoin="round"/>
<path d="M226.205 76.0586C235.48 76.0586 244.756 76.0586 253.846 76.0586" stroke="black" stroke-width="2" stroke-miterlimit="10" stroke-linecap="round" stroke-linejoin="round"/>
<path d="M231.214 120.023C241.973 120.023 252.547 120.023 263.307 120.023" stroke="black" stroke-width="2" stroke-miterlimit="10" stroke-linecap="round" stroke-linejoin="round"/>
<path d="M235.666 137.275C243.272 137.275 250.692 137.275 258.298 137.275" stroke="black" stroke-width="2" stroke-miterlimit="10" stroke-linecap="round" stroke-linejoin="round"/>
<path d="M207.655 154.713H252.176" stroke="black" stroke-width="2" stroke-miterlimit="10" stroke-linecap="round" stroke-linejoin="round"/>
<path d="M206.356 186.806H250.877" stroke="black" stroke-width="2" stroke-miterlimit="10" stroke-linecap="round" stroke-linejoin="round"/>
<path d="M212.478 201.646H256.999" stroke="black" stroke-width="2" stroke-miterlimit="10" stroke-linecap="round" stroke-linejoin="round"/>
<path d="M250.692 237.264C253.289 237.449 255.701 237.82 258.298 238.006" stroke="black" stroke-width="2" stroke-miterlimit="10" stroke-linecap="round" stroke-linejoin="round"/>
<path d="M213.962 233.368C223.423 234.296 232.698 235.409 242.159 236.336" stroke="black" stroke-width="2" stroke-miterlimit="10" stroke-linecap="round" stroke-linejoin="round"/>
<path d="M209.695 249.878L253.66 256.185" stroke="black" stroke-width="2" stroke-miterlimit="10" stroke-linecap="round" stroke-linejoin="round"/>
<path d="M215.26 280.486C219.341 281.414 223.422 282.341 227.503 283.269" stroke="black" stroke-width="2" stroke-miterlimit="10" stroke-linecap="round" stroke-linejoin="round"/>
<path d="M184.095 273.252C191.701 275.107 199.121 276.777 206.727 278.632" stroke="black" stroke-width="2" stroke-miterlimit="10" stroke-linecap="round" stroke-linejoin="round"/>
<path d="M179.087 284.196C185.208 286.793 191.33 289.39 197.452 291.988" stroke="black" stroke-width="2" stroke-miterlimit="10" stroke-linecap="round" stroke-linejoin="round"/>
<path d="M49.2461 446.329C46.278 458.016 42.5679 471.002 42.5679 471.002H88.388C88.388 461.17 77.0721 459.315 77.0721 459.315L80.0402 447.257L49.2461 446.329Z" fill="black"/>
<path d="M85.9765 275.663C79.1128 270.468 75.5881 262.121 80.4113 254.144C84.307 247.466 95.2519 243.385 101.93 248.579C103.6 249.877 105.084 250.99 106.568 252.289C101.374 236.706 74.8461 238.19 75.9592 256.741C79.8548 321.297 57.223 383.813 33.8491 444.103L49.2462 444.474L80.5968 445.401C80.5968 445.216 80.7823 445.03 80.7823 444.845C98.0345 397.355 106.939 347.268 108.237 296.81C102.116 289.39 94.6953 282.341 85.9765 275.663Z" fill="black"/>
<path d="M177.3 445.402C176.187 373.981 163.573 299.408 105.695 252.289C104.211 250.99 102.541 249.692 101.057 248.579C94.1932 243.385 83.4338 247.466 79.5381 254.144C74.715 262.306 78.4251 270.469 85.1033 275.663C93.8221 282.341 101.057 289.39 107.364 296.811C137.787 334.097 139.828 383.257 132.593 447.071L147.619 446.515L176.558 445.402H177.3Z" fill="black"/>
<path d="M108.793 207.768C85.7906 205.913 90.7993 207.211 70.3936 252.29L111.205 259.71C118.625 237.82 129.57 209.623 108.793 207.768Z" fill="white" stroke="black" stroke-width="2" stroke-miterlimit="10" stroke-linecap="round" stroke-linejoin="round"/>
<path d="M117.416 168.24C120.773 171.596 118.815 176.352 117.416 178.31L106.725 191.057C106.679 191.179 106.602 191.27 106.507 191.318L106.725 191.057C107.079 190.108 105.533 187.244 96.0165 187.541C85.2747 187.877 82.869 182.926 83.0088 180.408C86.7013 180.072 89.3028 177.751 90.142 176.632C84.0998 173.946 82.869 166.002 83.0088 162.365C86.7852 168.659 94.3381 168.24 101.471 168.24C108.605 168.24 113.22 164.044 117.416 168.24Z" fill="black"/>
<path d="M117.416 178.31L118.182 178.953L118.207 178.923L118.23 178.891L117.416 178.31ZM117.416 168.24L116.709 168.947L116.709 168.947L117.416 168.24ZM83.0088 162.365L83.8663 161.851L82.1386 158.971L82.0096 162.327L83.0088 162.365ZM90.142 176.632L90.942 177.232L91.6951 176.228L90.5482 175.718L90.142 176.632ZM83.0088 180.408L82.9183 179.412L82.0583 179.49L82.0104 180.353L83.0088 180.408ZM96.0165 187.541L96.0477 188.541L96.0477 188.541L96.0165 187.541ZM106.507 191.318L105.74 190.675L106.954 192.212L106.507 191.318ZM118.23 178.891C119.003 177.808 119.92 175.978 120.191 173.93C120.465 171.851 120.074 169.484 118.123 167.533L116.709 168.947C118.115 170.353 118.423 172.041 118.208 173.668C117.989 175.327 117.228 176.854 116.602 177.729L118.23 178.891ZM118.123 167.533C116.937 166.346 115.677 165.718 114.329 165.484C113.01 165.256 111.672 165.416 110.345 165.686C107.606 166.245 104.904 167.24 101.471 167.24V169.24C105.171 169.24 108.344 168.136 110.745 167.646C111.989 167.392 113.037 167.29 113.987 167.455C114.906 167.614 115.797 168.035 116.709 168.947L118.123 167.533ZM101.471 167.24C97.8482 167.24 94.3101 167.339 91.1865 166.684C88.1174 166.04 85.57 164.69 83.8663 161.851L82.1513 162.88C84.224 166.334 87.3413 167.921 90.776 168.641C94.1562 169.35 97.9612 169.24 101.471 169.24V167.24ZM82.0096 162.327C81.9353 164.257 82.2217 167.288 83.3213 170.208C84.4216 173.129 86.3838 176.056 89.7359 177.545L90.5482 175.718C87.8581 174.522 86.1837 172.134 85.193 169.503C84.2016 166.87 83.9424 164.11 84.0081 162.404L82.0096 162.327ZM89.342 176.032C88.6258 176.987 86.2595 179.108 82.9183 179.412L83.0994 181.404C87.1431 181.036 89.9799 178.515 90.942 177.232L89.342 176.032ZM82.0104 180.353C81.9218 181.946 82.638 184.125 84.815 185.832C86.9871 187.535 90.5337 188.713 96.0477 188.541L95.9852 186.542C90.7574 186.705 87.7303 185.576 86.049 184.258C84.3727 182.943 83.9559 181.388 84.0073 180.464L82.0104 180.353ZM96.0477 188.541C100.731 188.394 103.298 189.035 104.61 189.719C105.261 190.058 105.562 190.384 105.687 190.589C105.821 190.807 105.739 190.839 105.788 190.707L107.662 191.407C107.888 190.8 107.746 190.119 107.392 189.542C107.029 188.952 106.415 188.403 105.534 187.945C103.783 187.033 100.819 186.391 95.9852 186.542L96.0477 188.541ZM105.788 190.707C105.814 190.638 105.889 190.508 106.059 190.423L106.954 192.212C107.315 192.031 107.545 191.721 107.662 191.407L105.788 190.707ZM116.65 177.667L105.959 190.415L107.491 191.7L118.182 178.953L116.65 177.667ZM105.959 190.415L105.74 190.675L107.273 191.96L107.491 191.7L105.959 190.415Z" fill="black"/>
<circle cx="114.059" cy="192.997" r="18.7213" fill="white" stroke="black" stroke-width="2"/>
<line x1="116.937" y1="191.325" x2="122.1" y2="188.456" stroke="black" stroke-width="2"/>
<line x1="127.194" y1="185.63" x2="130.637" y2="183.335" stroke="black" stroke-width="2"/>
<path d="M83.0088 162.365L83.8663 161.851L82.1386 158.971L82.0096 162.327L83.0088 162.365ZM90.142 176.632L90.942 177.232L91.6951 176.228L90.5482 175.718L90.142 176.632ZM83.0088 180.408L82.9183 179.412L82.0583 179.49L82.0104 180.353L83.0088 180.408ZM106.059 190.423C105.565 190.67 105.365 191.271 105.612 191.765C105.859 192.259 106.46 192.459 106.954 192.212L106.059 190.423ZM118.23 178.891C119.003 177.808 119.92 175.978 120.191 173.93C120.465 171.851 120.074 169.484 118.123 167.533L116.709 168.947C118.115 170.353 118.423 172.041 118.208 173.668C117.989 175.327 117.228 176.854 116.602 177.729L118.23 178.891ZM118.123 167.533C116.937 166.346 115.677 165.718 114.329 165.484C113.01 165.256 111.672 165.416 110.345 165.686C107.606 166.245 104.904 167.24 101.471 167.24V169.24C105.171 169.24 108.344 168.136 110.745 167.646C111.989 167.392 113.037 167.29 113.987 167.455C114.906 167.614 115.797 168.035 116.709 168.947L118.123 167.533ZM101.471 167.24C97.8482 167.24 94.3101 167.339 91.1865 166.684C88.1174 166.04 85.57 164.69 83.8663 161.851L82.1513 162.88C84.224 166.334 87.3413 167.921 90.776 168.641C94.1562 169.35 97.9612 169.24 101.471 169.24V167.24ZM82.0096 162.327C81.9353 164.257 82.2217 167.288 83.3213 170.208C84.4216 173.129 86.3838 176.056 89.7359 177.545L90.5482 175.718C87.8581 174.522 86.1837 172.134 85.193 169.503C84.2016 166.87 83.9424 164.11 84.0081 162.404L82.0096 162.327ZM89.342 176.032C88.6258 176.987 86.2595 179.108 82.9183 179.412L83.0994 181.404C87.1431 181.036 89.9799 178.515 90.942 177.232L89.342 176.032ZM82.0104 180.353C81.9218 181.946 82.638 184.125 84.815 185.832C86.9871 187.535 90.5337 188.713 96.0477 188.541L95.9852 186.542C90.7574 186.705 87.7303 185.576 86.049 184.258C84.3727 182.943 83.9559 181.388 84.0073 180.464L82.0104 180.353ZM96.0477 188.541C101.346 188.375 103.922 189.218 105.045 189.975C105.601 190.35 105.739 190.658 105.765 190.757C105.809 190.925 105.667 190.619 106.059 190.423L106.954 192.212C107.765 191.806 107.865 190.881 107.699 190.25C107.516 189.549 106.993 188.876 106.163 188.317C104.518 187.208 101.428 186.372 95.9852 186.542L96.0477 188.541Z" fill="black"/>
<path d="M111.363 200.111C109.265 201.322 106.507 200.472 105.203 198.213C103.898 195.954 104.409 192.529 106.507 191.318" stroke="black" stroke-width="2"/>
<path d="M209.709 300.15C209.709 299.778 196.909 304.231 196.724 303.86C196.538 296.254 204.701 299.222 205.072 298.851C206.37 297.738 205.999 296.254 204.33 294.955C198.95 293.286 193.385 292.358 187.82 291.616C187.263 291.616 186.892 291.616 186.336 291.431C184.666 295.512 183.739 299.778 182.44 304.045C181.327 307.199 180.214 310.352 179.101 313.691C181.512 314.805 184.11 315.547 186.892 316.289C189.675 316.474 193.385 317.031 195.982 316.474C201.733 314.248 204.33 310.538 208.225 305.715C208.225 304.602 209.895 301.263 209.709 300.15Z" fill="white"/>
<path d="M186.335 291.616C195.61 293.471 207.297 294.028 205.442 298.109C203.772 301.819 198.207 294.399 196.538 303.674" stroke="black" stroke-width="2" stroke-miterlimit="10" stroke-linecap="round" stroke-linejoin="round"/>
<path d="M196.538 312.393C196.538 312.393 208.04 310.352 208.411 303.488" stroke="black" stroke-width="2" stroke-miterlimit="10" stroke-linecap="round" stroke-linejoin="round"/>
<path d="M186.335 291.616C168.156 287.535 148.678 283.083 133.28 271.581C119.924 261.564 110.649 244.683 115.657 227.987C120.109 213.147 96.7356 206.654 92.469 221.495C85.6052 244.497 95.066 269.17 112.133 285.123C130.683 302.375 154.985 309.239 179.101 314.619" fill="white"/>
<path d="M186.335 291.616C168.156 287.535 148.678 283.083 133.28 271.581C119.924 261.564 110.649 244.683 115.657 227.987C120.109 213.147 96.7356 206.654 92.469 221.495C85.6052 244.497 95.066 269.17 112.133 285.123C130.683 302.375 154.985 309.239 179.101 314.619" stroke="black" stroke-width="2" stroke-miterlimit="10" stroke-linecap="round" stroke-linejoin="round"/>
<path d="M196.724 303.86L209.709 300.149C210.08 303.86 198.022 307.755 198.022 307.755" stroke="black" stroke-width="2" stroke-miterlimit="10" stroke-linecap="round" stroke-linejoin="round"/>
<path d="M185.408 291.431L179.286 314.619C192.086 318.329 200.434 317.587 205.072 309.425" stroke="black" stroke-width="2" stroke-miterlimit="10" stroke-linecap="round" stroke-linejoin="round"/>
<path d="M186.335 265.274C195.981 266.573 195.795 269.912 193.94 271.025C193.198 271.582 191.343 270.84 189.303 270.469C186.52 270.098 183.738 270.098 183.738 270.098" fill="white"/>
<path d="M186.335 265.274C195.981 266.573 195.795 269.912 193.94 271.025C193.198 271.582 191.343 270.84 189.303 270.469C186.52 270.098 183.738 270.098 183.738 270.098" stroke="black" stroke-width="2" stroke-miterlimit="10" stroke-linecap="round" stroke-linejoin="round"/>
<path d="M30.6811 291.987L1 303.118" stroke="white" stroke-width="2" stroke-miterlimit="10" stroke-linecap="round" stroke-linejoin="round"/>
<path d="M36.9885 309.24L24.5596 320.371" stroke="white" stroke-width="2" stroke-miterlimit="10" stroke-linecap="round" stroke-linejoin="round"/>
<path d="M333.799 92.7531L363.48 89.043" stroke="white" stroke-width="2" stroke-miterlimit="10" stroke-linecap="round" stroke-linejoin="round"/>
<path d="M332.501 60.6609L365.892 37.1016" stroke="white" stroke-width="2" stroke-miterlimit="10" stroke-linecap="round" stroke-linejoin="round"/>
</svg>
