<svg width="213" height="267" viewBox="0 0 213 267" fill="none" xmlns="http://www.w3.org/2000/svg">
<path d="M117.329 234.519C49.9595 234.519 1 182.322 1 118.189C1 53.854 53.1965 1.85974 117.329 1.85974C181.665 1.85974 233.052 43.536 233.659 118.189C233.659 129.114 232.243 139.634 229.613 149.548C225.971 162.9 219.902 175.241 212.012 186.166C209.584 189.605 206.751 193.045 203.919 196.079" stroke="black" stroke-width="2" stroke-miterlimit="10" stroke-linecap="round" stroke-linejoin="round"/>
<path d="M193.919 200.86C192.705 203.894 190.682 206.12 187.445 206.727C185.624 210.773 182.387 212.796 178.948 211.987C178.341 212.594 177.734 212.998 177.329 213.605C176.723 214.212 176.116 214.415 175.509 214.415C173.89 215.629 172.272 217.045 170.653 218.259C169.237 219.27 167.618 220.282 166 221.091L236.202 254.068L249.15 226.553L193.919 200.86Z" fill="#9EE84C"/>
<path d="M186.558 179.288L246.847 193.854L230.055 263.449L169.766 248.883L178.465 213.276" stroke="black" stroke-width="2" stroke-miterlimit="10" stroke-linecap="round" stroke-linejoin="round"/>
<path d="M89.6523 168.16C93.6986 193.045 106.242 214.49 106.242 214.49L158.438 187.38L170.577 183.334L166.936 172.409C171.184 165.328 165.722 155.415 157.629 144.692L89.6523 168.16Z" fill="black"/>
<path d="M154.796 188.796C137.802 198.71 115.547 205.993 96.9345 197.293C89.8536 194.056 89.449 190.01 93.0906 183.536C98.553 174.027 111.501 170.588 121.212 167.958C146.299 161.282 135.576 122.236 110.489 128.912C89.8536 134.374 68.0039 144.288 57.4837 164.114C46.9634 183.738 48.1773 209.23 65.7785 224.605C98.9577 253.536 156.819 238.363 186.559 211.051" fill="white"/>
<path d="M154.796 188.796C137.802 198.71 115.547 205.993 96.9345 197.293C89.8536 194.056 89.449 190.01 93.0906 183.536C98.553 174.027 111.501 170.588 121.212 167.958C146.299 161.282 135.576 122.236 110.489 128.912C89.8536 134.374 68.0039 144.288 57.4837 164.114C46.9634 183.738 48.1773 209.23 65.7785 224.605C98.9577 253.536 156.819 238.363 186.559 211.051" stroke="black" stroke-width="2" stroke-miterlimit="10" stroke-linecap="round" stroke-linejoin="round"/>
<path d="M183.781 210.542L154.281 189.042L174.281 188.542L199.281 194.042L201.781 200.042L193.781 205.542L194.781 206.542L186.281 210.542H183.781Z" fill="white"/>
<path d="M137.195 237.756C112.513 243.825 85.6056 242.004 65.9813 224.808C48.3802 209.432 47.3686 184.143 57.6865 164.316C66.1836 148.536 81.7617 139.027 98.3513 132.958C102.398 131.542 106.646 130.126 110.692 129.114C111.906 128.709 113.322 128.507 114.536 128.507C121.819 127.9 127.687 131.137 131.328 135.993C138.409 145.299 137.802 160.877 125.461 166.744C124.247 167.351 123.033 167.756 121.617 168.16C111.704 170.79 98.9582 174.23 93.4958 183.738C89.8541 190.01 90.2588 194.259 97.3397 197.496C107.253 201.946 117.976 201.946 128.698 199.519C128.293 212.467 132.137 224.808 137.195 237.756Z" fill="black"/>
<path d="M229.65 149.548C226.008 162.9 219.938 175.241 212.048 186.166C187.973 169.172 157.424 151.166 129.505 165.126C128.089 165.733 126.673 166.34 125.256 166.744C116.355 169.172 106.846 166.34 101.788 157.842C97.9443 151.368 98.1466 141.657 102.193 135.588C103.811 133.16 106.037 131.34 108.869 130.328C110.69 129.721 112.511 129.114 114.129 128.709C125.459 125.27 135.979 123.449 146.095 123.045C177.048 121.426 203.349 132.351 229.65 149.548Z" fill="black"/>
<path d="M181.5 181.918C195.662 178.883 209.217 182.322 208.408 193.854L181.5 181.918Z" fill="white"/>
<path d="M181.5 181.918C195.662 178.883 209.217 182.322 208.408 193.854" stroke="black" stroke-width="2" stroke-miterlimit="10" stroke-linecap="round" stroke-linejoin="round"/>
<path d="M214.277 203.16L215.491 209.837L209.219 206.802L183.121 170.993L188.179 167.553L214.277 203.16Z" fill="white" stroke="black" stroke-width="2" stroke-miterlimit="10" stroke-linecap="round" stroke-linejoin="round"/>
<path d="M154.797 188.796C154.797 188.796 175.635 175.444 195.259 185.964C214.884 196.484 213.265 204.172 201.936 199.316C195.462 196.484 191.618 194.461 191.618 194.461" fill="white"/>
<path d="M154.797 188.796C154.797 188.796 175.635 175.444 195.259 185.964C214.884 196.484 213.265 204.172 201.936 199.316C195.462 196.484 191.618 194.461 191.618 194.461" stroke="black" stroke-width="2" stroke-miterlimit="10" stroke-linecap="round" stroke-linejoin="round"/>
<path d="M201.936 199.316C202.341 200.935 198.294 207.814 192.832 204.779L201.936 199.316Z" fill="white"/>
<path d="M201.936 199.316C202.341 200.935 198.294 207.814 192.832 204.779" stroke="black" stroke-width="2" stroke-miterlimit="10" stroke-linecap="round" stroke-linejoin="round"/>
<path d="M143.603 116.963C147.275 115.064 148.812 110.741 147.036 107.307C145.26 103.873 140.844 102.629 137.172 104.528" stroke="black" stroke-width="2"/>
<path d="M89.2796 112.542C100.08 119.342 108.446 113.709 111.28 110.042L144.28 118.542C162.78 107.542 158.28 98.5419 156.28 94.5419C154.436 90.8541 146.28 81.5419 135.78 86.5419C125.28 91.5419 118.78 86.5419 116.28 83.5419C113.78 80.5419 107.28 75.0419 93.2796 81.5419C79.2796 88.0419 75.7796 104.042 89.2796 112.542Z" fill="white"/>
<circle cx="119.82" cy="118.542" r="25" fill="white" stroke="black" stroke-width="2"/>
<path d="M94.3465 132.4C96.3155 135.649 100.461 136.709 103.605 134.767C106.749 132.824 99.6182 121.056 96.4741 122.999C93.33 124.941 92.3775 129.15 94.3465 132.4Z" fill="white"/>
<path d="M103.673 134.758C100.512 136.705 96.3449 135.642 94.3654 132.384C92.3859 129.126 93.3436 124.905 96.5044 122.958" stroke="black" stroke-width="2"/>
<path d="M100.456 130.948C99.3662 131.619 97.9297 131.253 97.2473 130.129C96.5649 129.006 96.895 127.551 97.9847 126.88" stroke="black" stroke-width="2"/>
<path d="M195.259 206.195C195.259 206.195 193.034 213.276 184.941 209.432L195.259 206.195Z" fill="white"/>
<path d="M195.259 206.195C195.259 206.195 193.034 213.276 184.941 209.432" stroke="black" stroke-width="2" stroke-miterlimit="10" stroke-linecap="round" stroke-linejoin="round"/>
<path d="M190.199 217.727L228.436 226.022" stroke="black" stroke-width="2" stroke-miterlimit="10" stroke-linecap="round" stroke-linejoin="round"/>
<path d="M181.905 248.074L179.68 256.368" stroke="black" stroke-width="2" stroke-miterlimit="10" stroke-linecap="round" stroke-linejoin="round"/>
<path d="M187.572 248.883L185.145 257.178" stroke="black" stroke-width="2" stroke-miterlimit="10" stroke-linecap="round" stroke-linejoin="round"/>
<path d="M212.659 254.952L210.434 263.247" stroke="black" stroke-width="2" stroke-miterlimit="10" stroke-linecap="round" stroke-linejoin="round"/>
<line x1="109.387" y1="126.623" x2="116.387" y2="123.623" stroke="black" stroke-width="2"/>
<line x1="124.387" y1="120.623" x2="131.387" y2="117.623" stroke="black" stroke-width="2"/>
<path d="M111.283 110.042C108.45 113.709 100.083 119.342 89.2835 112.542C75.7835 104.042 79.2835 88.0419 93.2835 81.5419C107.283 75.0419 113.783 80.5419 116.283 83.5419C118.783 86.5419 125.283 91.5419 135.783 86.5419C146.283 81.5419 154.44 90.8541 156.283 94.5419C158.283 98.5419 162.783 107.542 144.283 118.542" stroke="black" stroke-width="2"/>
</svg>
