<svg width="212" height="298" viewBox="0 0 212 298" fill="none" xmlns="http://www.w3.org/2000/svg">
<path d="M83.4046 234.114C67.2196 232.698 52.0462 228.247 38.8959 221.166C14.4162 208.218 -4.19654 186.975 -14.1098 161.282C-19.1676 147.929 -22 133.363 -22 118.189C-22 110.299 -21.1908 102.409 -19.7746 94.9233C-12.289 57.9002 12.7977 27.3511 46.1792 12.1777C60.948 5.50136 77.1329 1.85974 94.3295 1.85974C158.665 1.85974 210.052 43.536 210.659 118.189C211.064 169.577 177.48 213.276 130.948 228.652" stroke="black" stroke-width="2" stroke-miterlimit="10" stroke-linecap="round" stroke-linejoin="round"/>
<path d="M131.153 237.554L144.101 232.496L166.355 290.155L116.586 309.172L94.332 251.715L111.529 245.039" stroke="black" stroke-width="2" stroke-miterlimit="10" stroke-linecap="round" stroke-linejoin="round"/>
<path d="M40.9202 172.004C34.0416 178.883 20.2844 180.097 13.6081 172.004C-4.60002 149.952 -16.7388 123.247 -19.7734 94.9235C-12.2879 57.9004 12.7988 27.3513 46.1803 12.1779C12.7988 48.594 7.53871 104.634 40.9202 144.692C47.5965 152.582 48.8104 163.912 40.9202 172.004Z" fill="black"/>
<path d="M54.6768 198.305C48.4051 208.825 43.145 216.109 38.8964 220.964C14.4166 208.016 -4.19608 186.773 -14.1094 161.08C21.0929 116.571 26.1507 115.762 40.3126 133.97C40.5149 134.172 40.5149 134.172 40.7172 134.374C45.5727 140.444 50.6305 145.906 54.6768 151.571C63.1739 163.912 67.4224 176.86 54.6768 198.305Z" fill="black" stroke="black" stroke-width="2" stroke-miterlimit="10" stroke-linecap="round" stroke-linejoin="round"/>
<path d="M113.957 215.704C96.3556 215.299 57.107 212.467 56.5001 186.571C55.8932 162.9 19.0724 162.9 19.6793 186.571C20.2862 207.409 32.0203 225.01 49.4192 236.137C68.4365 248.276 92.107 249.288 113.957 249.895C137.627 250.299 137.627 216.109 113.957 215.704Z" fill="white" stroke="black" stroke-width="2" stroke-miterlimit="10" stroke-linecap="round" stroke-linejoin="round"/>
<path d="M92.9163 223.999C94.7371 219.952 95.951 217.929 99.3903 214.49C80.3729 213.276 57.107 206.802 56.5001 186.369C55.8932 162.698 19.0724 162.698 19.6793 186.369C20.2862 207.207 32.0203 224.808 49.4192 235.935C61.7602 243.825 76.1244 247.062 90.6909 248.478C89.6793 240.386 89.477 231.889 92.9163 223.999Z" fill="black"/>
<path d="M126.701 231.687C129.938 239.779 125.083 249.692 119.418 250.906" stroke="black" stroke-width="2" stroke-miterlimit="10" stroke-linecap="round" stroke-linejoin="round"/>
<path d="M117.193 260.415L115.574 266.484L112.135 261.224L106.875 224.201L111.933 223.392L117.193 260.415Z" fill="black"/>
<path d="M98.7812 227.033C101.411 245.848 107.885 257.38 112.943 252.929C115.573 250.501 108.897 240.184 108.695 237.553" fill="white"/>
<path d="M98.7812 227.033C101.411 245.848 107.885 257.38 112.943 252.929C115.573 250.501 108.897 240.184 108.695 237.553" stroke="black" stroke-width="2" stroke-miterlimit="10" stroke-linecap="round" stroke-linejoin="round"/>
<path d="M121.844 235.328C127.307 254.548 119.416 260.82 116.786 257.987C115.572 256.773 116.382 251.716 115.977 247.265C115.572 242.207 114.156 237.554 114.156 237.554" fill="white"/>
<path d="M121.844 235.328C127.307 254.548 119.416 260.82 116.786 257.987C115.572 256.773 116.382 251.716 115.977 247.265C115.572 242.207 114.156 237.554 114.156 237.554" stroke="black" stroke-width="2" stroke-miterlimit="10" stroke-linecap="round" stroke-linejoin="round"/>
<path d="M115.574 266.484H141.268" stroke="black" stroke-width="2" stroke-miterlimit="10" stroke-linecap="round" stroke-linejoin="round"/>
<path d="M119.621 272.958H145.517" stroke="black" stroke-width="2" stroke-miterlimit="10" stroke-linecap="round" stroke-linejoin="round"/>
<path d="M56.4973 193.854C55.2835 195.675 34.4453 215.299 34.4453 215.299" stroke="white" stroke-width="2" stroke-miterlimit="10" stroke-linecap="round" stroke-linejoin="round"/>
<path d="M65.3023 103.542C74.3022 108.042 70.3022 114.542 64.3023 114.542L41.3022 122.542C39.3023 123.542 34.9023 124.542 33.3023 120.542C31.7023 116.542 34.6356 114.209 36.3022 113.542C34.3022 106.042 39.3023 105.375 42.8023 106.042C42.4023 97.2419 49.6356 98.3752 53.3023 100.042C61.3023 93.6419 65.3023 100.042 65.3023 103.542Z" fill="white" stroke="black" stroke-width="2"/>
<circle cx="61.8008" cy="132.042" r="22.5" fill="white" stroke="black" stroke-width="2"/>
<path d="M71.2514 123.928C69.7856 122.058 67.1879 121.647 65.4491 123.009C63.7103 124.372 63.489 126.993 64.9548 128.863" stroke="black" stroke-width="2"/>
<path d="M76.4323 121.275C75.0695 119.536 75.3744 117.022 77.1131 115.659" stroke="black" stroke-width="2"/>
<path d="M58.5883 140.519C56.0884 141.963 52.8017 140.95 51.2473 138.258C49.693 135.566 50.3013 131.485 52.8013 130.042" stroke="black" stroke-width="2"/>
<path d="M81.259 284.635L62.3984 275.772L26.6904 351.764L45.551 360.626L81.259 284.635Z" stroke="black" stroke-width="2" stroke-miterlimit="10" stroke-linecap="round" stroke-linejoin="round"/>
<path d="M64.2984 114.542C70.2983 114.542 74.2983 108.042 65.2984 103.542C65.2984 100.042 61.2984 93.6419 53.2984 100.042C49.6317 98.3752 42.3984 97.2419 42.7984 106.042C39.2984 105.375 34.2983 106.042 36.2983 113.542C34.6317 114.209 31.6984 116.542 33.2984 120.542C34.8984 124.542 39.2984 123.542 41.2983 122.542" stroke="black" stroke-width="2"/>
</svg>
