<svg width="561" height="562" viewBox="0 0 561 562" fill="none" xmlns="http://www.w3.org/2000/svg">
<path d="M385.789 506.948C411.706 513.718 438.203 498.197 444.972 472.28C451.742 446.364 436.22 419.867 410.304 413.097L385.789 506.948ZM410.304 413.097L377.365 404.493L352.85 498.344L385.789 506.948L410.304 413.097ZM377.365 404.493C310.024 386.903 281.828 306.794 323.306 250.903L245.413 193.097C162.979 304.176 219.015 463.385 352.85 498.344L377.365 404.493Z" fill="black"/>
<path d="M393.384 241.741L383.061 226.535L366.712 242.671L345.831 221.514L334.166 238.486C334.111 246.894 340.046 264.641 343.021 272.463C359.476 269.131 383.453 250.593 393.384 241.741Z" fill="#498408"/>
<path d="M392.548 223.581L381.726 211.716L368.762 221.664L351.62 212.952L342.36 227.552C344.623 232.153 354.039 243.553 358.465 248.678C362.291 247.938 382.781 231.639 392.548 223.581Z" fill="#65AF13"/>
<path d="M393.659 199.702L365.983 194.743L348.629 218.516L366.732 226.279C376.713 219.465 383.407 208.871 393.659 199.702Z" fill="#86EC16"/>
<path d="M285.56 87.3529C280.509 99.9319 287.143 113.002 291.092 117.964L286.733 122.266L281.549 129.517L262.11 106.936L266.445 88.183L285.56 87.3529Z" fill="#498408"/>
<path d="M270.788 68.4749C261.491 87.5232 275.573 115.961 283.776 127.799L270.355 147.925L228.593 87.3385L242.088 74.0194L270.788 68.4749Z" fill="#65AF13"/>
<path d="M241.7 60.1626C239.176 95.3072 265.805 124.019 279.434 133.981L264.484 155.381C262.419 154.571 257.619 153.234 254.936 154.363C252.254 155.492 250.942 156.407 250.621 156.723L249.197 155.281C221.756 143.635 186.784 105.187 172.728 87.4188L241.7 60.1626Z" fill="#86EC16"/>
<mask id="path-8-outside-1" maskUnits="userSpaceOnUse" x="220.241" y="98.9743" width="168.023" height="165.501" fill="black">
<rect fill="white" x="220.241" y="98.9743" width="168.023" height="165.501"/>
<path fill-rule="evenodd" clip-rule="evenodd" d="M323.719 164.336L323.719 164.336L331.562 153.329C335.683 147.543 334.309 139.534 328.52 135.41C322.73 131.288 314.72 132.659 310.598 138.445L297.217 157.225L310.521 138.553C314.643 132.767 313.269 124.757 307.479 120.634C301.69 116.51 293.68 117.881 289.558 123.669L265.911 156.744C260.121 152.625 252.114 153.997 247.993 159.784L242.28 167.926C238.111 173.777 239.462 181.867 245.248 186.086L237.204 197.609L320.951 257.523L373.552 183.011C377.673 177.225 376.299 169.215 370.51 165.092C364.721 160.968 356.711 162.339 352.588 168.127L352.587 168.127L352.602 168.107C356.724 162.319 355.35 154.31 349.56 150.188C343.77 146.064 335.76 147.435 331.638 153.223L323.719 164.336Z"/>
</mask>
<path fill-rule="evenodd" clip-rule="evenodd" d="M323.719 164.336L323.719 164.336L331.562 153.329C335.683 147.543 334.309 139.534 328.52 135.41C322.73 131.288 314.72 132.659 310.598 138.445L297.217 157.225L310.521 138.553C314.643 132.767 313.269 124.757 307.479 120.634C301.69 116.51 293.68 117.881 289.558 123.669L265.911 156.744C260.121 152.625 252.114 153.997 247.993 159.784L242.28 167.926C238.111 173.777 239.462 181.867 245.248 186.086L237.204 197.609L320.951 257.523L373.552 183.011C377.673 177.225 376.299 169.215 370.51 165.092C364.721 160.968 356.711 162.339 352.588 168.127L352.587 168.127L352.602 168.107C356.724 162.319 355.35 154.31 349.56 150.188C343.77 146.064 335.76 147.435 331.638 153.223L323.719 164.336Z" fill="white"/>
<path d="M323.719 164.336L323.216 168.305L325.589 168.606L326.977 166.658L323.719 164.336ZM323.719 164.336L320.461 162.015L316.579 167.463L323.216 168.305L323.719 164.336ZM331.562 153.329L334.82 155.65L334.82 155.65L331.562 153.329ZM328.52 135.41L330.841 132.152L330.84 132.151L328.52 135.41ZM310.598 138.445L313.856 140.767L313.856 140.766L310.598 138.445ZM297.217 157.225L293.959 154.903L300.474 159.546L297.217 157.225ZM310.521 138.553L313.779 140.874L313.779 140.873L310.521 138.553ZM289.558 123.669L292.812 125.995L292.816 125.99L289.558 123.669ZM265.911 156.744L263.593 160.003L266.844 162.316L269.165 159.07L265.911 156.744ZM247.993 159.784L244.735 157.463L244.726 157.474L244.718 157.486L247.993 159.784ZM242.28 167.926L245.538 170.246L245.546 170.235L245.554 170.223L242.28 167.926ZM245.248 186.086L248.528 188.376L250.771 185.163L247.605 182.854L245.248 186.086ZM237.204 197.609L233.924 195.319L231.661 198.561L234.877 200.862L237.204 197.609ZM320.951 257.523L318.623 260.776L321.897 263.118L324.219 259.83L320.951 257.523ZM373.552 183.011L370.294 180.69L370.289 180.697L370.284 180.704L373.552 183.011ZM370.51 165.092L368.189 168.35L368.189 168.35L370.51 165.092ZM352.588 168.127L352.06 172.092L354.448 172.411L355.846 170.448L352.588 168.127ZM352.587 168.127L349.33 165.806L345.475 171.214L352.058 172.092L352.587 168.127ZM352.602 168.107L355.859 170.428L355.86 170.427L352.602 168.107ZM349.56 150.188L347.239 153.446L347.24 153.446L349.56 150.188ZM331.638 153.223L334.896 155.544L334.896 155.544L331.638 153.223ZM324.222 160.368L324.222 160.368L323.216 168.305L323.216 168.305L324.222 160.368ZM326.976 166.658L334.82 155.65L328.304 151.008L320.461 162.015L326.976 166.658ZM334.82 155.65C340.233 148.05 338.416 137.547 330.841 132.152L326.199 138.668C330.203 141.52 331.134 147.035 328.304 151.008L334.82 155.65ZM330.84 132.151C323.239 126.741 312.736 128.55 307.34 136.125L313.856 140.766C316.704 136.768 322.22 135.835 326.2 138.669L330.84 132.151ZM307.341 136.124L293.959 154.903L300.474 159.546L313.856 140.767L307.341 136.124ZM300.475 159.546L313.779 140.874L307.264 136.232L293.959 154.903L300.475 159.546ZM313.779 140.873C319.192 133.274 317.375 122.771 309.8 117.376L305.159 123.892C309.162 126.744 310.093 132.259 307.263 136.232L313.779 140.873ZM309.8 117.376C302.2 111.962 291.696 113.773 286.3 121.348L292.816 125.99C295.665 121.99 301.18 121.058 305.159 123.892L309.8 117.376ZM286.304 121.343L262.657 154.417L269.165 159.07L292.812 125.995L286.304 121.343ZM268.23 153.484C260.63 148.078 250.129 149.889 244.735 157.463L251.251 162.104C254.099 158.106 259.613 157.172 263.593 160.003L268.23 153.484ZM244.718 157.486L239.005 165.628L245.554 170.223L251.267 162.081L244.718 157.486ZM239.022 165.605C233.572 173.255 235.347 183.817 242.892 189.318L247.605 182.854C243.576 179.917 242.65 174.3 245.538 170.246L239.022 165.605ZM241.969 183.796L233.924 195.319L240.484 199.898L248.528 188.376L241.969 183.796ZM234.877 200.862L318.623 260.776L323.278 254.27L239.532 194.355L234.877 200.862ZM324.219 259.83L376.82 185.318L370.284 180.704L317.683 255.216L324.219 259.83ZM376.81 185.331C382.223 177.732 380.405 167.229 372.831 161.834L368.189 168.35C372.193 171.202 373.124 176.717 370.294 180.69L376.81 185.331ZM372.831 161.834C365.23 156.42 354.726 158.231 349.33 165.806L355.846 170.448C358.695 166.448 364.211 165.516 368.189 168.35L372.831 161.834ZM353.117 164.162L353.116 164.162L352.058 172.092L352.06 172.092L353.117 164.162ZM355.845 170.448L355.859 170.428L349.344 165.785L349.33 165.806L355.845 170.448ZM355.86 170.427C361.273 162.827 359.457 152.323 351.879 146.929L347.24 153.446C351.243 156.296 352.175 161.811 349.344 165.786L355.86 170.427ZM351.88 146.93C344.28 141.516 333.776 143.327 328.38 150.902L334.896 155.544C337.745 151.544 343.26 150.612 347.239 153.446L351.88 146.93ZM328.38 150.902L320.461 162.015L326.977 166.658L334.896 155.544L328.38 150.902Z" fill="black" mask="url(#path-8-outside-1)"/>
</svg>
