<svg width="230" height="127" viewBox="0 0 230 127" fill="none" xmlns="http://www.w3.org/2000/svg">
<rect opacity="0.3" width="230" height="127" rx="10" fill="#C4C4C4"/>
<path fill-rule="evenodd" clip-rule="evenodd" d="M149.112 77.5843C151.54 75.5512 153.083 72.4976 153.083 69.0833C153.083 62.9622 148.121 58 142 58C135.879 58 130.917 62.9622 130.917 69.0833C130.917 72.4976 132.461 75.5512 134.888 77.5843C127.918 80.3997 123 87.2298 123 95.2085V99.721C123 102.038 124.879 103.917 127.196 103.917H156.804C159.121 103.917 161 102.038 161 99.721V95.2085C161 87.2298 156.082 80.3997 149.112 77.5843Z" fill="url(#paint0_linear)"/>
<path fill-rule="evenodd" clip-rule="evenodd" d="M83 24C77.4771 24 73 28.4771 73 34V48.2855C73 53.8083 77.4771 58.2855 83 58.2855H100.674L116.808 73.5231V58.2855H116.809V34C116.809 28.4772 112.332 24 106.809 24H83ZM102.843 38.4017C103.354 38.6368 104.644 39.4076 104.808 39.5118C104.906 39.5728 104.987 39.6581 105.043 39.7594C105.099 39.8607 105.127 39.9747 105.127 40.0904V41.497C105.127 41.6144 105.098 41.73 105.04 41.8325C104.983 41.935 104.9 42.0208 104.799 42.0817C104.583 42.2186 103.325 42.969 102.835 43.1918L102.201 44.7251C102.405 45.2648 102.771 46.7123 102.814 46.9004C102.84 47.013 102.837 47.1302 102.805 47.2411C102.772 47.352 102.712 47.4529 102.63 47.5342L101.637 48.5278C101.555 48.6095 101.454 48.6692 101.344 48.7014C101.233 48.7336 101.116 48.7371 101.003 48.7118L100.977 48.7051C100.67 48.6265 99.3193 48.2808 98.8277 48.0984L97.2944 48.7322C97.0593 49.2433 96.2885 50.5333 96.1843 50.6969C96.1225 50.7945 96.0371 50.875 95.936 50.9307C95.8348 50.9865 95.7212 51.0158 95.6057 51.0158H94.2012C94.0837 51.0165 93.9681 50.9868 93.8656 50.9294C93.7631 50.8721 93.6773 50.7892 93.6165 50.6887C93.4795 50.472 92.7292 49.2147 92.5063 48.724L90.973 48.0902C90.4333 48.2947 88.9858 48.6606 88.7977 48.7036C88.6852 48.7294 88.5679 48.726 88.457 48.6938C88.3461 48.6616 88.2452 48.6016 88.164 48.5196L87.1704 47.526C87.0886 47.4445 87.0289 47.3436 86.9967 47.2328C86.9646 47.122 86.961 47.0048 86.9864 46.8922L86.993 46.8664C87.0717 46.5591 87.4173 45.2085 87.5997 44.7169L86.9659 43.1836C86.4548 42.9485 85.1648 42.1778 85.0012 42.0735C84.9036 42.0118 84.8232 41.9264 84.7674 41.8252C84.7116 41.724 84.6824 41.6104 84.6823 41.4949V40.0904C84.6824 39.9742 84.7124 39.86 84.7693 39.7587C84.8262 39.6574 84.9082 39.5724 85.0074 39.5118C85.2241 39.3748 86.4814 38.6245 86.9721 38.4017L87.6058 36.8684C87.4014 36.3287 87.0354 34.8812 86.9925 34.6931C86.9667 34.5805 86.9701 34.4633 87.0023 34.3524C87.0345 34.2415 87.0945 34.1406 87.1765 34.0593L88.1701 33.0596C88.2516 32.9779 88.3524 32.9181 88.4633 32.886C88.5741 32.8538 88.6913 32.8502 88.8039 32.8756L88.8297 32.8822C89.1369 32.9609 90.4876 33.3066 90.9791 33.4889L92.5125 32.8552C92.7476 32.3441 93.5183 31.054 93.6226 30.8905C93.6843 30.7928 93.7697 30.7124 93.8709 30.6566C93.972 30.6009 94.0856 30.5716 94.2012 30.5715H95.6077C95.7239 30.5717 95.8381 30.6016 95.9394 30.6585C96.0408 30.7155 96.1257 30.7974 96.1863 30.8966C96.3233 31.1133 97.0736 32.3706 97.2964 32.8613L98.8297 33.4951C99.3695 33.2906 100.817 32.9247 101.005 32.8817C101.118 32.856 101.235 32.8593 101.346 32.8915C101.457 32.9237 101.558 32.9837 101.639 33.0657L102.639 34.0593C102.72 34.1408 102.78 34.2417 102.812 34.3525C102.844 34.4634 102.848 34.5805 102.823 34.6931L102.816 34.7189C102.737 35.0262 102.392 36.3768 102.209 36.8684L102.843 38.4017ZM92.4302 44.4914C93.1623 44.9815 94.0234 45.2436 94.9044 45.2444C96.0854 45.2439 97.218 44.775 98.0539 43.9407C98.8897 43.1064 99.3606 41.9747 99.3633 40.7937C99.3641 39.9126 99.1037 39.0511 98.6148 38.318C98.126 37.585 97.4308 37.0134 96.6171 36.6755C95.8034 36.3375 94.9078 36.2485 94.0435 36.4196C93.1791 36.5907 92.385 37.0142 91.7614 37.6367C91.1378 38.2591 90.7128 39.0525 90.5401 39.9165C90.3674 40.7805 90.4548 41.6763 90.7913 42.4906C91.1277 43.3049 91.698 44.0012 92.4302 44.4914ZM99.0771 80C99.0771 74.4771 94.6 70 89.0771 70H79C73.4772 70 69 74.4771 69 80V93.5386H69.0005V104L80.0772 93.5386H89.0771C94.6 93.5386 99.0771 89.0615 99.0771 83.5386V80Z" fill="url(#paint1_linear)"/>
<defs>
<linearGradient id="paint0_linear" x1="142" y1="58" x2="142" y2="103.917" gradientUnits="userSpaceOnUse">
<stop stop-color="#AAEA39"/>
<stop offset="1" stop-color="#86EC16"/>
</linearGradient>
<linearGradient id="paint1_linear" x1="92.9046" y1="24" x2="92.9046" y2="104" gradientUnits="userSpaceOnUse">
<stop stop-color="#9BA3A2"/>
<stop offset="1" stop-color="#626A69"/>
</linearGradient>
</defs>
</svg>
