<svg width="370" height="230" viewBox="0 0 370 230" fill="none" xmlns="http://www.w3.org/2000/svg">
<path d="M186 133C186 131.895 185.105 131 184 131C182.895 131 182 131.895 182 133L186 133ZM185.008 188.814C187.352 186.122 190.988 181.215 193.213 175.207C195.445 169.18 196.313 161.873 192.8 154.627L189.2 156.373C192.087 162.327 191.455 168.436 189.462 173.818C187.462 179.218 184.148 183.711 181.992 186.186L185.008 188.814ZM192.8 154.627C189.604 148.036 187.918 144.039 187.018 140.985C186.142 138.01 186 135.894 186 133L182 133C182 136.106 182.158 138.64 183.181 142.115C184.182 145.511 185.996 149.764 189.2 156.373L192.8 154.627Z" fill="black"/>
<path d="M154.002 113.982C152.335 118.812 155.044 125.459 160.91 129.99C166.773 134.518 173.881 135.458 178.121 132.618C179.788 127.789 177.075 121.14 171.213 116.61C165.349 112.08 158.24 111.141 154.002 113.982Z" fill="#86EC16"/>
<path d="M168.46 84.3117C164.407 87.4133 163.042 94.4237 165.496 101.402C167.951 108.377 173.426 113.053 178.558 113.011C182.613 109.909 183.976 102.897 181.522 95.9178C179.067 88.943 173.593 84.2714 168.46 84.3117Z" fill="#86EC16"/>
<path d="M207.699 105.35C209.476 110.126 206.883 116.793 201.075 121.409C195.268 126.021 188.131 127.085 183.804 124.333C182.026 119.559 184.618 112.889 190.427 108.276C196.234 103.662 203.371 102.6 207.699 105.35Z" fill="#86EC16"/>
<path fill-rule="evenodd" clip-rule="evenodd" d="M109.06 95.322L108.48 93.4082L106.566 93.9889L104.652 94.5696L102.738 95.1503L103.319 97.0642L128.375 179.641L117.954 182.617L116.032 183.166L116.58 185.089L121.52 202.422L121.524 202.434L123.443 201.873C121.524 202.434 121.524 202.434 121.524 202.435L121.525 202.436L121.526 202.44L121.528 202.447L121.535 202.469C121.54 202.487 121.547 202.509 121.556 202.537C121.573 202.593 121.598 202.668 121.63 202.763C121.694 202.952 121.788 203.215 121.916 203.537C122.17 204.179 122.561 205.062 123.116 206.052C123.967 207.572 125.236 209.403 127.04 211H130.399C130.222 210.892 130.046 210.779 129.871 210.662C125.081 207.482 123.444 201.873 123.444 201.873L118.503 184.54L128.955 181.555L129.469 181.408L130.879 181.006L130.298 179.092L105.813 98.3973L105.233 96.4835L107.146 95.9027L107.727 97.8166L132.793 180.425L132.802 180.456L132.802 180.456L134.063 180.096L145.04 176.963L150.008 194.301C150.008 194.301 151.56 199.919 149.173 205.149C148.036 207.644 146.455 209.586 145.003 211H147.749C148.921 209.645 150.082 207.976 150.992 205.98C152.361 202.98 152.581 199.923 152.483 197.677C152.434 196.544 152.303 195.589 152.182 194.911C152.121 194.57 152.063 194.297 152.018 194.104C151.996 194.007 151.977 193.929 151.963 193.873C151.956 193.845 151.95 193.822 151.945 193.804L151.939 193.782L151.937 193.775L151.936 193.771L151.936 193.77C151.935 193.769 151.935 193.769 150.008 194.301L151.935 193.769L151.933 193.76L151.93 193.751L146.963 176.412L146.412 174.491L144.491 175.04L134.145 177.993L109.06 95.322Z" fill="black"/>
<line x1="16" y1="212" x2="355" y2="212" stroke="black" stroke-width="2"/>
<mask id="path-7-inside-1" fill="white">
<path fill-rule="evenodd" clip-rule="evenodd" d="M150.525 194.697C150.196 195.801 150.097 196.919 150.2 198.002C150.133 198.001 150.067 198 150 198C143.925 198 139 202.925 139 209C139 210.411 139.266 211.76 139.75 213H160.25H204H247C247 203.611 237.374 196 225.5 196C224.814 196 224.135 196.025 223.465 196.075C223.116 193.909 221.589 191.348 219.175 189.227C216.32 186.718 210.27 186.041 206.479 186.729C200.4 183.733 193.208 182 185.5 182C177.268 182 169.624 183.976 163.296 187.358C158.355 187.51 151.69 190.793 150.525 194.697Z"/>
</mask>
<path fill-rule="evenodd" clip-rule="evenodd" d="M150.525 194.697C150.196 195.801 150.097 196.919 150.2 198.002C150.133 198.001 150.067 198 150 198C143.925 198 139 202.925 139 209C139 210.411 139.266 211.76 139.75 213H160.25H204H247C247 203.611 237.374 196 225.5 196C224.814 196 224.135 196.025 223.465 196.075C223.116 193.909 221.589 191.348 219.175 189.227C216.32 186.718 210.27 186.041 206.479 186.729C200.4 183.733 193.208 182 185.5 182C177.268 182 169.624 183.976 163.296 187.358C158.355 187.51 151.69 190.793 150.525 194.697Z" fill="#EDF2E2"/>
<path d="M150.2 198.002L150.164 200.001L152.402 200.041L152.191 197.813L150.2 198.002ZM150.525 194.697L148.609 194.126L150.525 194.697ZM139.75 213L137.887 213.728L138.384 215H139.75V213ZM247 213V215H249V213H247ZM223.465 196.075L221.49 196.393L221.782 198.206L223.613 198.07L223.465 196.075ZM219.175 189.227L217.855 190.729V190.729L219.175 189.227ZM206.479 186.729L205.595 188.523L206.186 188.814L206.836 188.697L206.479 186.729ZM163.296 187.358L163.358 189.357L163.826 189.342L164.239 189.122L163.296 187.358ZM152.191 197.813C152.112 196.981 152.188 196.121 152.442 195.269L148.609 194.126C148.205 195.48 148.082 196.856 148.208 198.19L152.191 197.813ZM150 200C150.055 200 150.109 200 150.164 200.001L150.235 196.002C150.157 196.001 150.079 196 150 196V200ZM141 209C141 204.029 145.029 200 150 200V196C142.82 196 137 201.82 137 209H141ZM141.613 212.272C141.218 211.261 141 210.158 141 209H137C137 210.664 137.314 212.26 137.887 213.728L141.613 212.272ZM139.75 215H160.25V211H139.75V215ZM160.25 215H204V211H160.25V215ZM204 215H247V211H204V215ZM225.5 198C236.733 198 245 205.128 245 213H249C249 202.094 238.015 194 225.5 194V198ZM223.613 198.07C224.233 198.024 224.863 198 225.5 198V194C224.764 194 224.036 194.027 223.317 194.081L223.613 198.07ZM217.855 190.729C220.031 192.641 221.235 194.813 221.49 196.393L225.439 195.757C224.996 193.005 223.148 190.055 220.495 187.725L217.855 190.729ZM206.836 188.697C208.474 188.399 210.699 188.388 212.844 188.751C215.031 189.122 216.831 189.83 217.855 190.729L220.495 187.725C218.663 186.115 216.011 185.231 213.512 184.807C210.97 184.377 208.274 184.37 206.122 184.761L206.836 188.697ZM185.5 184C192.911 184 199.799 185.666 205.595 188.523L207.363 184.935C201.001 181.799 193.505 180 185.5 180V184ZM164.239 189.122C170.266 185.901 177.584 184 185.5 184V180C176.951 180 168.982 182.052 162.354 185.594L164.239 189.122ZM152.442 195.269C152.796 194.083 154.175 192.621 156.454 191.375C158.653 190.173 161.249 189.422 163.358 189.357L163.235 185.359C160.402 185.446 157.195 186.412 154.535 187.865C151.955 189.276 149.419 191.408 148.609 194.126L152.442 195.269Z" fill="black" mask="url(#path-7-inside-1)"/>
<circle cx="277" cy="82" r="33" fill="#86EC16"/>
</svg>
