<?xml version="1.0" encoding="utf-8"?>
<!-- Generator: Adobe Illustrator 23.0.2, SVG Export Plug-In . SVG Version: 6.00 Build 0)  -->
<svg version="1.1" xmlns="http://www.w3.org/2000/svg" xmlns:xlink="http://www.w3.org/1999/xlink" x="0px" y="0px"
	 viewBox="0 0 436.9 391" style="enable-background:new 0 0 436.9 391;" xml:space="preserve">
<style type="text/css">
	.st0{fill:none;}
	.st1{fill:none;stroke:#1D1D1B;stroke-width:0.3;}
	.st2{fill:url(#SVGID_1_);}
	.st3{fill:none;stroke:#86ED18;stroke-width:3;stroke-miterlimit:10;}
	.st4{fill:#FFFFFF;}
	.st5{fill:none;stroke:#000000;stroke-width:3;stroke-miterlimit:10;}
	.st6{fill:#FFFFFF;stroke:#000000;stroke-width:3;stroke-miterlimit:10;}
	.st7{stroke:#000000;stroke-width:3;stroke-miterlimit:10;}
	.st8{display:none;fill:none;stroke:#000000;stroke-width:3;stroke-miterlimit:10;}
	.st9{fill:#FFFFFF;stroke:#FFFFFF;stroke-width:3;stroke-miterlimit:10;}
	.st10{display:none;stroke:#000000;stroke-width:3;stroke-miterlimit:10;}
	.st11{display:none;}
	.st12{display:inline;}
	.st13{display:inline;fill:none;stroke:#86ED18;stroke-width:3;stroke-miterlimit:10;}
	.st14{display:inline;fill:none;stroke:#202020;stroke-width:3;stroke-miterlimit:10;}
	.st15{display:inline;fill:#202020;}
	.st16{display:inline;fill:#FFFFFF;}
	.st17{display:inline;fill:none;stroke:#000000;stroke-width:3;stroke-miterlimit:10;}
	.st18{display:inline;fill:#FFFFFF;stroke:#000000;stroke-width:3;stroke-miterlimit:10;}
</style>
<pattern  x="85.9" y="391" width="72" height="72" patternUnits="userSpaceOnUse" id="Schraffur_doppelt" viewBox="4.1 -78.2 72 72" style="overflow:visible;">
	<g>
		<rect x="4.1" y="-78.2" class="st0" width="72" height="72"/>
		<g>
			<line class="st1" x1="67.8" y1="-1.5" x2="71.3" y2="-7.6"/>
			<line class="st1" x1="69.6" y1="-8.6" x2="66.1" y2="-2.5"/>
			<line class="st1" x1="53.1" y1="-0.7" x2="50.8" y2="-7.3"/>
			<line class="st1" x1="48.9" y1="-6.6" x2="51.3" y2="-0.1"/>
			<line class="st1" x1="40.6" y1="-2.4" x2="42.3" y2="-9.2"/>
			<line class="st1" x1="40.4" y1="-9.7" x2="38.6" y2="-2.9"/>
			<line class="st1" x1="19" y1="-2.9" x2="20.9" y2="-9.7"/>
			<line class="st1" x1="19" y1="-10.2" x2="17.1" y2="-3.5"/>
			<line class="st1" x1="12.9" y1="-3.3" x2="10.9" y2="-10"/>
			<line class="st1" x1="9" y1="-9.4" x2="11" y2="-2.7"/>
			<line class="st1" x1="55.2" y1="-8.9" x2="59.6" y2="-3.5"/>
			<line class="st1" x1="61.1" y1="-4.8" x2="56.7" y2="-10.2"/>
		</g>
		<g>
			<line class="st1" x1="75.9" y1="-51.9" x2="82.4" y2="-54.5"/>
		</g>
		<g>
			<line class="st1" x1="3.9" y1="-51.9" x2="10.4" y2="-54.5"/>
			<line class="st1" x1="8.3" y1="-38.1" x2="5.8" y2="-31.6"/>
			<line class="st1" x1="7.6" y1="-30.8" x2="10.2" y2="-37.4"/>
			<line class="st1" x1="73.4" y1="-72.6" x2="79.5" y2="-69.3"/>
			<line class="st1" x1="80.5" y1="-71" x2="74.3" y2="-74.3"/>
			<line class="st1" x1="73.4" y1="-58.1" x2="78.7" y2="-62.7"/>
			<line class="st1" x1="77.4" y1="-64.2" x2="72.1" y2="-59.7"/>
			<line class="st1" x1="75.9" y1="-51.9" x2="82.4" y2="-54.5"/>
			<line class="st1" x1="81.7" y1="-56.3" x2="75.1" y2="-53.8"/>
			<line class="st1" x1="73.1" y1="-43.3" x2="79.9" y2="-41.8"/>
			<line class="st1" x1="80.3" y1="-43.7" x2="73.5" y2="-45.3"/>
			<line class="st1" x1="73.1" y1="-22" x2="79.9" y2="-20.2"/>
			<line class="st1" x1="80.4" y1="-22.2" x2="73.6" y2="-23.9"/>
			<line class="st1" x1="74.1" y1="-12" x2="80.8" y2="-14.2"/>
			<line class="st1" x1="80.2" y1="-16.1" x2="73.5" y2="-13.9"/>
			<line class="st1" x1="67.8" y1="-73.5" x2="71.3" y2="-79.6"/>
			<line class="st1" x1="69.6" y1="-80.6" x2="66.1" y2="-74.5"/>
			<line class="st1" x1="53.1" y1="-72.7" x2="50.8" y2="-79.3"/>
			<line class="st1" x1="48.9" y1="-78.6" x2="51.3" y2="-72.1"/>
			<line class="st1" x1="40.6" y1="-74.4" x2="42.3" y2="-81.2"/>
			<line class="st1" x1="40.4" y1="-81.7" x2="38.6" y2="-74.9"/>
			<line class="st1" x1="34.9" y1="-74.5" x2="28.5" y2="-77.3"/>
			<line class="st1" x1="27.7" y1="-75.4" x2="34.1" y2="-72.7"/>
			<line class="st1" x1="19" y1="-74.9" x2="20.9" y2="-81.7"/>
			<line class="st1" x1="19" y1="-82.2" x2="17.1" y2="-75.5"/>
			<line class="st1" x1="12.9" y1="-75.3" x2="10.9" y2="-82"/>
			<line class="st1" x1="9" y1="-81.4" x2="11" y2="-74.7"/>
			<line class="st1" x1="69.6" y1="-8.6" x2="66.1" y2="-2.5"/>
			<line class="st1" x1="67.8" y1="-1.5" x2="71.3" y2="-7.6"/>
			<line class="st1" x1="55.2" y1="-8.9" x2="59.6" y2="-3.5"/>
			<line class="st1" x1="61.1" y1="-4.8" x2="56.7" y2="-10.2"/>
			<line class="st1" x1="48.9" y1="-6.6" x2="51.3" y2="-0.1"/>
			<line class="st1" x1="53.1" y1="-0.7" x2="50.8" y2="-7.3"/>
			<line class="st1" x1="40.4" y1="-9.7" x2="38.6" y2="-2.9"/>
			<line class="st1" x1="40.6" y1="-2.4" x2="42.3" y2="-9.2"/>
			<line class="st1" x1="19" y1="-10.2" x2="17.1" y2="-3.5"/>
			<line class="st1" x1="19" y1="-2.9" x2="20.9" y2="-9.7"/>
			<line class="st1" x1="9" y1="-9.4" x2="11" y2="-2.7"/>
			<line class="st1" x1="12.9" y1="-3.3" x2="10.9" y2="-10"/>
			<line class="st1" x1="22.6" y1="-31.1" x2="19.1" y2="-25"/>
			<line class="st1" x1="20.8" y1="-24" x2="24.3" y2="-30.1"/>
			<line class="st1" x1="52.6" y1="-63.3" x2="48.2" y2="-68.7"/>
			<line class="st1" x1="46.7" y1="-67.4" x2="51.1" y2="-62"/>
			<line class="st1" x1="40.4" y1="-65.1" x2="42.8" y2="-58.6"/>
			<line class="st1" x1="44.6" y1="-59.2" x2="42.3" y2="-65.8"/>
			<line class="st1" x1="66.9" y1="-17" x2="60.5" y2="-19.8"/>
			<line class="st1" x1="59.7" y1="-17.9" x2="66.1" y2="-15.2"/>
			<line class="st1" x1="67.1" y1="-35" x2="65.2" y2="-28.3"/>
			<line class="st1" x1="67.1" y1="-27.7" x2="69" y2="-34.5"/>
			<line class="st1" x1="56.7" y1="-40.4" x2="58.7" y2="-33.7"/>
			<line class="st1" x1="60.6" y1="-34.2" x2="58.6" y2="-40.9"/>
			<line class="st1" x1="37.2" y1="-45.7" x2="40.6" y2="-51.7"/>
			<line class="st1" x1="38.9" y1="-52.7" x2="35.4" y2="-46.7"/>
			<line class="st1" x1="22.7" y1="-52.4" x2="27.1" y2="-47"/>
			<line class="st1" x1="28.6" y1="-48.3" x2="24.2" y2="-53.7"/>
			<line class="st1" x1="14.9" y1="-50.6" x2="17.3" y2="-44.1"/>
			<line class="st1" x1="19.1" y1="-44.7" x2="16.8" y2="-51.3"/>
			<line class="st1" x1="66.9" y1="-52.7" x2="65.1" y2="-45.9"/>
			<line class="st1" x1="67.1" y1="-45.4" x2="68.8" y2="-52.2"/>
			<line class="st1" x1="51" y1="-49" x2="57.5" y2="-46.3"/>
			<line class="st1" x1="58.3" y1="-48.1" x2="51.8" y2="-50.9"/>
			<line class="st1" x1="34.2" y1="-18.9" x2="36.2" y2="-12.2"/>
			<line class="st1" x1="38.1" y1="-12.7" x2="36.1" y2="-19.4"/>
			<line class="st1" x1="53.1" y1="-17.8" x2="46.2" y2="-16.8"/>
			<line class="st1" x1="46.5" y1="-14.8" x2="53.4" y2="-15.8"/>
			<line class="st1" x1="53.3" y1="-30" x2="51.7" y2="-23.2"/>
			<line class="st1" x1="53.6" y1="-22.7" x2="55.2" y2="-29.6"/>
			<line class="st1" x1="34.4" y1="-32.9" x2="30.6" y2="-27"/>
			<line class="st1" x1="32.3" y1="-25.9" x2="36.1" y2="-31.9"/>
			<line class="st1" x1="36" y1="-41.5" x2="29.6" y2="-38.7"/>
			<line class="st1" x1="30.4" y1="-36.9" x2="36.8" y2="-39.7"/>
			<line class="st1" x1="22.5" y1="-35.9" x2="24.4" y2="-42.7"/>
			<line class="st1" x1="22.5" y1="-43.2" x2="20.6" y2="-36.5"/>
			<line class="st1" x1="48.1" y1="-39.3" x2="46" y2="-46"/>
			<line class="st1" x1="44.1" y1="-45.4" x2="46.1" y2="-38.7"/>
			<line class="st1" x1="34.3" y1="-62.5" x2="28.8" y2="-58.3"/>
			<line class="st1" x1="30" y1="-56.7" x2="35.6" y2="-60.9"/>
			<line class="st1" x1="25.1" y1="-62.3" x2="23.1" y2="-69"/>
			<line class="st1" x1="21.2" y1="-68.5" x2="23.2" y2="-61.7"/>
			<line class="st1" x1="14.5" y1="-68.8" x2="14.1" y2="-61.8"/>
			<line class="st1" x1="16.1" y1="-61.7" x2="16.5" y2="-68.7"/>
			<line class="st1" x1="27.4" y1="-21" x2="23.1" y2="-15.4"/>
			<line class="st1" x1="24.7" y1="-14.2" x2="29" y2="-19.7"/>
			<line class="st1" x1="19.6" y1="-16.5" x2="14.8" y2="-21.6"/>
			<line class="st1" x1="13.3" y1="-20.2" x2="18.2" y2="-15.2"/>
			<line class="st1" x1="59.6" y1="-53.7" x2="64" y2="-59.2"/>
			<line class="st1" x1="62.5" y1="-60.4" x2="58.1" y2="-55"/>
			<line class="st1" x1="62.7" y1="-63.9" x2="63.5" y2="-70.9"/>
			<line class="st1" x1="61.5" y1="-71.1" x2="60.7" y2="-64.1"/>
			<line class="st1" x1="39.7" y1="-28.9" x2="46.1" y2="-26.2"/>
			<line class="st1" x1="46.9" y1="-28" x2="40.5" y2="-30.8"/>
			<line class="st1" x1="55.2" y1="-80.9" x2="59.6" y2="-75.5"/>
			<line class="st1" x1="61.1" y1="-76.8" x2="56.7" y2="-82.2"/>
		</g>
		<g>
			<line class="st1" x1="1.4" y1="-72.6" x2="7.5" y2="-69.3"/>
			<line class="st1" x1="8.5" y1="-71" x2="2.3" y2="-74.3"/>
			<line class="st1" x1="1.4" y1="-58.1" x2="6.7" y2="-62.7"/>
			<line class="st1" x1="5.4" y1="-64.2" x2="0.1" y2="-59.7"/>
			<line class="st1" x1="3.9" y1="-51.9" x2="10.4" y2="-54.5"/>
			<line class="st1" x1="9.7" y1="-56.3" x2="3.1" y2="-53.8"/>
			<line class="st1" x1="1.1" y1="-43.3" x2="7.9" y2="-41.8"/>
			<line class="st1" x1="8.3" y1="-43.7" x2="1.5" y2="-45.3"/>
			<line class="st1" x1="1.1" y1="-22" x2="7.9" y2="-20.2"/>
			<line class="st1" x1="8.4" y1="-22.2" x2="1.6" y2="-23.9"/>
			<line class="st1" x1="2.1" y1="-12" x2="8.8" y2="-14.2"/>
			<line class="st1" x1="8.2" y1="-16.1" x2="1.5" y2="-13.9"/>
		</g>
		<g>
			<line class="st1" x1="69.6" y1="-80.6" x2="66.1" y2="-74.5"/>
			<line class="st1" x1="67.8" y1="-73.5" x2="71.3" y2="-79.6"/>
			<line class="st1" x1="55.2" y1="-80.9" x2="59.6" y2="-75.5"/>
			<line class="st1" x1="61.1" y1="-76.8" x2="56.7" y2="-82.2"/>
			<line class="st1" x1="48.9" y1="-78.6" x2="51.3" y2="-72.1"/>
			<line class="st1" x1="53.1" y1="-72.7" x2="50.8" y2="-79.3"/>
			<line class="st1" x1="40.4" y1="-81.7" x2="38.6" y2="-74.9"/>
			<line class="st1" x1="40.6" y1="-74.4" x2="42.3" y2="-81.2"/>
			<line class="st1" x1="19" y1="-82.2" x2="17.1" y2="-75.5"/>
			<line class="st1" x1="19" y1="-74.9" x2="20.9" y2="-81.7"/>
			<line class="st1" x1="9" y1="-81.4" x2="11" y2="-74.7"/>
			<line class="st1" x1="12.9" y1="-75.3" x2="10.9" y2="-82"/>
		</g>
	</g>
</pattern>
<g id="Ebene_5">
	<pattern  id="SVGID_1_" xlink:href="#Schraffur_doppelt" patternTransform="matrix(1 0 0 1 -50 70)">
	</pattern>
	<path class="st2" d="M402.9,63.8c-66.7-69.5-122.8,47.4-182.7,64.6c-59.8,17.3-91.2,55.7-98,117.7
		c-8.4,76.4,35.9,143.4,121.8,143.3S482.8,147,402.9,63.8L402.9,63.8z"/>
</g>
<g id="Ebene_3">
	<g id="Ebene_1">
		<path class="st3" d="M383.6,1l51.9,82.3 M201,110.9l50,83.4"/>
		<path d="M350,241.8c-12.8,39-57.7,76.2-112.5,79.2c-2.6,0.1-5.2,0.2-7.8,0.2c-38.5-0.5-71.1-19.3-89.4-51.7
			c-8.4-13.5-5.2-31.5,7.8-41.2c13.8-10.3,33.3-7.5,43.6,6.2c1.3,1.8,2.2,3.3,2.8,4.4c7.5,13.2,19.5,20,35.9,20.2
			c31.3,0.4,57.2-27.1,61.8-41.2L350,241.8z M141.9,271.8C141.9,271.8,141.9,271.8,141.9,271.8C141.8,271.8,141.9,271.8,141.9,271.8
			z M141.8,271.7C141.8,271.7,141.8,271.7,141.8,271.7C141.8,271.7,141.8,271.7,141.8,271.7z"/>
		<path class="st4" d="M325.1,200.8l16.5-35.2c1.7-3.3,5.8-4.5,9.1-2.7c1.7,0.9,3,2.6,3.4,4.5"/>
		<path class="st5" d="M325.1,200.8l16.5-35.2c1.7-3.3,5.8-4.5,9.1-2.7c1.7,0.9,3,2.6,3.4,4.5"/>
		<path class="st4" d="M360.1,180.9l2.3-4.7c1.7-3.2,0.5-7.3-2.7-9c0,0,0,0,0,0c-3.3-1.7-7.3-0.5-9.1,2.7L333.7,205"/>
		<path class="st5" d="M360.1,180.9l2.3-4.7c1.7-3.2,0.5-7.3-2.7-9c0,0,0,0,0,0c-3.3-1.7-7.3-0.5-9.1,2.7L333.7,205"/>
		<path class="st4" d="M366.9,184.8c1.7-3.2,0.5-7.3-2.7-9c0,0,0,0,0,0c-3.3-1.7-7.3-0.5-9.1,2.7l-14.3,29.9"/>
		<path class="st5" d="M366.9,184.8c1.7-3.2,0.5-7.3-2.7-9c0,0,0,0,0,0c-3.3-1.7-7.3-0.5-9.1,2.7l-14.3,29.9"/>
		<path class="st4" d="M347.7,211.7l11.6-24.3c1.7-3.3,5.8-4.5,9.1-2.7c3.3,1.7,4.5,5.8,2.7,9l-23.6,49.4l-28.1-13.7"/>
		<path class="st5" d="M347.7,211.7l11.6-24.3c1.7-3.3,5.8-4.5,9.1-2.7c3.3,1.7,4.5,5.8,2.7,9l-23.6,49.4l-28.1-13.7"/>
		<path class="st4" d="M208.1,343.8c-9-50.1-15.4-86.3-15.6-86.9c-3.9-20.1-16.7-37.1-37.2-37.1s-37.2,16.6-37.2,37.1
			c0,4.1,0.7,8,1.9,11.7l-11.6,67.9"/>
		<path class="st5" d="M208.1,343.8c-9-50.1-15.4-86.3-15.6-86.9c-3.9-20.1-16.7-37.1-37.2-37.1s-37.2,16.6-37.2,37.1
			c0,4.1,0.7,8,1.9,11.7l-11.6,67.9"/>
		<path class="st6" d="M194.3,198.9c6.3,0,11.4-5.1,11.4-11.3s-5.1-11.3-11.4-11.3c-6.3,0-11.4,5.1-11.4,11.3
			S188.1,198.9,194.3,198.9z"/>
		<path class="st5" d="M198,185.5c0.1,1.8,0.1,3.7-0.1,5.5 M117.6,196.5c-0.1-1.8-0.1-3.6,0.1-5.4"/>
		<path class="st7" d="M126.5,209.9L126.5,209.9z M124,203.8L124,203.8z"/>
		<path class="st6" d="M114.9,198.9c6.3,0,11.4-5.1,11.4-11.3s-5.1-11.3-11.4-11.3c-6.3,0-11.4,5.1-11.4,11.3
			S108.7,198.9,114.9,198.9z"/>
		<path class="st6" d="M154.5,228c22,0,39.8-17.8,39.8-39.7c0-21.9-17.8-39.7-39.8-39.7c-22,0-39.8,17.8-39.8,39.7
			C114.7,210.2,132.5,228,154.5,228L154.5,228z"/>
		<path class="st8" d="M167.4,155.8c2.1,3.7,6.6,5.2,10.6,3.7c3.7-1.5,6-5.6,5.2-9.5c-0.6-3.2-3-5.7-6.1-6.6c-0.3-0.1-0.3-0.5,0-0.5
			c1.2-0.3,2.4-0.9,3.5-1.8c2.2-1.9,3.4-4.8,2.9-7.7c-0.7-4.6-5.1-7.8-9.7-7.1c-0.4,0.1-0.9,0.2-1.3,0.3c-3,0.9-5.1,3.3-5.7,6.2
			c-0.1,0.3-0.4,0.3-0.5,0c-0.4-1.7-1.1-3.4-2.4-5c-3-4-8.2-6-13.1-5c-6.7,1.3-11.3,7.6-10.6,14.4c-9.9,4.8-14.4,14.1-13.1,22.7"/>
		<path d="M122.8,193.8c0.9,0,1.6-0.7,1.6-1.6s-0.7-1.6-1.6-1.6c-0.9,0-1.6,0.7-1.6,1.6S121.9,193.8,122.8,193.8z M128.3,193.8
			c0.9,0,1.6-0.7,1.6-1.6s-0.7-1.6-1.6-1.6c-0.9,0-1.6,0.7-1.6,1.6S127.4,193.8,128.3,193.8L128.3,193.8z M125.4,197.9
			c0.9,0,1.6-0.7,1.6-1.6c0-0.9-0.7-1.6-1.6-1.6c-0.9,0-1.6,0.7-1.6,1.6C123.8,197.2,124.5,197.9,125.4,197.9z M131.2,197.9
			c0.9,0,1.6-0.7,1.6-1.6c0-0.9-0.7-1.6-1.6-1.6s-1.6,0.7-1.6,1.6C129.5,197.2,130.3,197.9,131.2,197.9z M128.3,201.8
			c0.9,0,1.6-0.7,1.6-1.6c0-0.9-0.7-1.6-1.6-1.6c-0.9,0-1.6,0.7-1.6,1.6C126.7,201.1,127.4,201.8,128.3,201.8L128.3,201.8z
			 M184.6,193.8c0.9,0,1.6-0.7,1.6-1.6s-0.7-1.6-1.6-1.6s-1.6,0.7-1.6,1.6S183.7,193.8,184.6,193.8L184.6,193.8z M179,193.8
			c0.9,0,1.6-0.7,1.6-1.6s-0.7-1.6-1.6-1.6s-1.6,0.7-1.6,1.6S178.1,193.8,179,193.8z M181.9,197.9c0.9,0,1.6-0.7,1.6-1.6
			c0-0.9-0.7-1.6-1.6-1.6s-1.6,0.7-1.6,1.6C180.3,197.2,181,197.9,181.9,197.9L181.9,197.9z M176.2,197.9c0.9,0,1.6-0.7,1.6-1.6
			c0-0.9-0.7-1.6-1.6-1.6s-1.6,0.7-1.6,1.6C174.5,197.2,175.3,197.9,176.2,197.9z M179,201.8c0.9,0,1.6-0.7,1.6-1.6
			c0-0.9-0.7-1.6-1.6-1.6s-1.6,0.7-1.6,1.6C177.4,201.1,178.1,201.8,179,201.8z"/>
		<path class="st5" d="M111.3,189.6c-0.1-1.8-0.1-3.7,0.1-5.5 M161.4,198.5c0,3.1-2.6,5.7-5.7,5.7c-3.1,0-5.7-2.5-5.7-5.7"/>
		<path d="M233.7,390.5l-58.1-0.3c-30.1,0-58-14.9-74.7-39.9c-16.5-24.8-19.6-56-8.2-83.5l11.9-31.3c6.1-16.1,24-24.2,40.1-18.1
			s24.3,24,18.2,40l-12.5,32.9c-3.6,8.6-2.7,17.9,2.4,25.6c5.1,7.7,13.4,12.2,22.8,12.2l57.7-0.4
			C250.4,327.7,250.9,390.5,233.7,390.5L233.7,390.5z"/>
		<path class="st9" d="M265.5,356.6h-12V379h12V356.6z"/>
		<path class="st4" d="M258.5,375h27c3.7,0.2,6.6,3.3,6.4,7c-0.2,3.7-3.3,6.5-7,6.4l-54.9,0l0.3-31.2"/>
		<path class="st5" d="M258.5,375h27c3.7,0.2,6.6,3.3,6.4,7c-0.2,3.7-3.3,6.5-7,6.4l-54.9,0l0.3-31.2"/>
		<path class="st4" d="M258.5,367.4h33.2c3.7,0.2,6.6,3.3,6.4,7c-0.2,3.7-3.3,6.5-7,6.4h-32.9"/>
		<path class="st5" d="M258.5,367.4h33.2c3.7,0.2,6.6,3.3,6.4,7c-0.2,3.7-3.3,6.5-7,6.4h-32.9"/>
		<path class="st4" d="M258.5,359.5l39.1,0.1c3.7,0.2,6.6,3.3,6.4,7c-0.2,3.7-3.3,6.5-7,6.4l-5.3,0h-33.6"/>
		<path class="st5" d="M258.5,359.5l39.1,0.1c3.7,0.2,6.6,3.3,6.4,7c-0.2,3.7-3.3,6.5-7,6.4l-5.3,0h-33.6"/>
		<path class="st4" d="M230,384.9l0.6-55.1l40.2,0.1c3.7,0.2,6.6,3.3,6.4,7c-0.2,3.7-3.3,6.5-7,6.4l-5.3,0h-6.3
			c-1.9,0-3.4,1.5-3.4,3.4c0,1.9,1.5,3.4,3.4,3.4c0,0,0,0,0,0l-0.1,0l39.1,0.1c3.7,0.2,6.6,3.3,6.4,7c-0.2,3.7-3.3,6.5-7,6.4l-5.3,0
			h-33.6"/>
		<path class="st5" d="M230,384.9l0.6-55.1l40.2,0.1c3.7,0.2,6.6,3.3,6.4,7c-0.2,3.7-3.3,6.5-7,6.4l-5.3,0h-6.3
			c-1.9,0-3.4,1.5-3.4,3.4c0,1.9,1.5,3.4,3.4,3.4c0,0,0,0,0,0l-0.1,0l39.1,0.1c3.7,0.2,6.6,3.3,6.4,7c-0.2,3.7-3.3,6.5-7,6.4l-5.3,0
			h-33.6"/>
		<path d="M144,182.6c1.5,0,2.7-1.2,2.7-2.7c0,0,0,0,0,0c0-1.5-1.2-2.7-2.7-2.7c-1.5,0-2.7,1.2-2.7,2.7
			C141.3,181.4,142.5,182.6,144,182.6L144,182.6z M165.6,182.6c1.5,0,2.7-1.2,2.7-2.7c0,0,0,0,0,0c0-1.5-1.2-2.7-2.7-2.7
			c-1.5,0-2.7,1.2-2.7,2.7C162.9,181.4,164.2,182.6,165.6,182.6C165.6,182.6,165.6,182.6,165.6,182.6z"/>
		<path class="st6" d="M435.4,84.1H251v109.2h184.4V84.1z"/>
		<path class="st5" d="M251,97.1h184.4"/>
		<path class="st6" d="M425.7,107.4h-76v34.9h76V107.4z M337.7,107.4h-76v34.9h76V107.4z M425.7,150.8H260.6v34.9h165.1L425.7,150.8
			L425.7,150.8z"/>
		<path class="st4" d="M319.4,229.4l-24.6-12l17.4-36.1c1.7-3.3,5.8-4.5,9.1-2.7c3.3,1.7,4.5,5.8,2.7,9l-2.3,4.7l-2.7,5.6
			c-0.8,1.7-0.1,3.7,1.6,4.5c0,0,0,0,0,0c1.7,0.8,3.7,0.1,4.5-1.6c0,0,0,0,0,0"/>
		<path class="st5" d="M319.4,229.4l-24.6-12l17.4-36.1c1.7-3.3,5.8-4.5,9.1-2.7c3.3,1.7,4.5,5.8,2.7,9l-2.3,4.7l-2.7,5.6
			c-0.8,1.7-0.1,3.7,1.6,4.5c0,0,0,0,0,0c1.7,0.8,3.7,0.1,4.5-1.6c0,0,0,0,0,0"/>
		<path d="M284.9,96c1.5,0,2.7-1.2,2.7-2.7c0,0,0,0,0,0c0-1.5-1.2-2.7-2.7-2.7c-1.5,0-2.7,1.2-2.7,2.7l0,0
			C282.2,94.8,283.4,96,284.9,96L284.9,96z M275.9,96c1.5,0,2.7-1.2,2.7-2.7c0-1.5-1.2-2.7-2.7-2.7c-1.5,0-2.7,1.2-2.7,2.7
			C273.2,94.8,274.4,96,275.9,96z M268.1,96c1.5,0,2.7-1.2,2.7-2.7c0,0,0,0,0,0c0-1.5-1.2-2.7-2.7-2.7c-1.5,0-2.7,1.2-2.7,2.7l0,0
			C265.4,94.8,266.6,96,268.1,96L268.1,96z"/>
		<path class="st6" d="M384.4,1.5H200v109.2h184.4V1.5z"/>
		<path class="st5" d="M200,14.4h184.4"/>
		<path d="M226.9,10.7c1.5,0,2.7-1.2,2.7-2.7c0,0,0,0,0,0c0-1.5-1.2-2.7-2.7-2.7c-1.5,0-2.7,1.2-2.7,2.7c0,0,0,0,0,0
			C224.2,9.5,225.4,10.7,226.9,10.7C226.9,10.7,226.9,10.7,226.9,10.7z M217.9,10.7c1.5,0,2.7-1.2,2.7-2.7c0-1.5-1.2-2.7-2.7-2.7
			c-1.5,0-2.7,1.2-2.7,2.7C215.2,9.5,216.4,10.7,217.9,10.7z M210.1,10.7c1.5,0,2.7-1.2,2.7-2.7c0,0,0,0,0,0c0-1.5-1.2-2.7-2.7-2.7
			h0c-1.5,0-2.7,1.2-2.7,2.7c0,0,0,0,0,0C207.4,9.5,208.6,10.7,210.1,10.7C210.1,10.7,210.1,10.7,210.1,10.7z"/>
		<path class="st3" d="M208.5,36.6h40 M208.5,45.7h40 M208.5,54.8h39.8 M208.5,64h40 M208.5,73.1h40 M208.5,82.2h39.8 M310.2,36.6
			h-52.9v45.9h52.9V36.6z M310.2,82.6h-52.9v12h52.9V82.6z M370.1,36.6H321v45.9h49.1V36.6z"/>
		<path d="M396.4,110.6L396.4,110.6L396.4,110.6L396.4,110.6z M392.6,106.8L392.6,106.8L392.6,106.8
			C392.6,106.8,392.6,106.8,392.6,106.8z"/>
		<path class="st4" d="M305.9,209.9l10.9-1.5l8.2-3.2l3.6-9.7h5.1l-3.2,6.3l3.2,6.6l5.9-11.9l6.1-1l-8.9,16.2l5.5-2.5l6.2-11.3
			l2.4,2.3l-5.2,9v4.3l6.4,4.3l-5.7,10.1l-22.8,1.4l-13.7-8.5l-4.8-10.8l0-0.1H305.9z"/>
	</g>
	<path class="st5" d="M181.1,215c0-3.3-3-5.9-6.6-5.9H168c-3.7,0-6.6,2.7-6.6,5.9c0,3.3,3,5.9,6.6,5.9h6.6
		C178.1,221,181.1,218.3,181.1,215z M181.1,215.4c0,0,18.8,0,18.8-21.1"/>
	<path class="st7" d="M194.4,174.1h12.1c2.9,0,5.2,2.2,5.2,5v14.8c0,2.7-2.3,5-5.2,5h-12.1V174.1z"/>
	<path class="st10" d="M125.2,207.2h-15.4c-3.6,0-6.6-2.8-6.6-6.2v-18.6c0-3.4,3-6.2,6.6-6.2h15.4V207.2z M186.2,207.2h15.4
		c3.6,0,6.6-2.8,6.6-6.2v-18.6c0-3.4-3-6.2-6.6-6.2h-15.4V207.2z"/>
	<path class="st5" d="M105.4,181.4c0-13.2,9.2-48.7,49.1-48.7s45.4,33.6,45.4,40.4"/>
</g>
<g id="Ebene_2" class="st11">
	<g class="st12">
		<path class="st4" d="M668-489.6h-928v456h928V-489.6z"/>
	</g>
	<path class="st12" d="M219-416.6V-433h5.1l3.2,12.8h0.1l3.1-12.8h5.1v16.3h-3v-12.9h-0.1l-3.3,12.9h-3.7l-3.3-12.9H222v12.9H219z
		 M238.8-422.8c0-1,0.1-1.8,0.4-2.6c0.3-0.8,0.6-1.5,1.1-2c0.5-0.6,1.1-1,1.7-1.3c0.7-0.3,1.4-0.5,2.3-0.5s1.6,0.1,2.3,0.4
		c0.7,0.3,1.3,0.7,1.7,1.2c0.5,0.5,0.9,1.1,1.1,1.9c0.3,0.7,0.4,1.5,0.4,2.3v1.5h-7.9v0.8c0,0.7,0.2,1.3,0.7,1.7
		c0.5,0.4,1.1,0.6,1.7,0.6c0.7,0,1.2-0.2,1.6-0.5c0.4-0.3,0.7-0.8,0.7-1.5h3c-0.2,1.4-0.8,2.4-1.7,3.2c-0.9,0.8-2.2,1.1-3.7,1.1
		c-0.9,0-1.6-0.2-2.3-0.5c-0.7-0.3-1.3-0.8-1.7-1.3c-0.5-0.6-0.8-1.2-1.1-2C238.9-420.9,238.8-421.8,238.8-422.8z M241.9-424.1h4.8
		v-0.4c0-0.7-0.2-1.2-0.7-1.6s-1-0.6-1.7-0.6c-0.7,0-1.3,0.2-1.7,0.6s-0.7,1-0.7,1.6V-424.1z M252.8-416.6V-433h3v5.9
		c0.4-0.7,0.8-1.2,1.4-1.5c0.6-0.4,1.3-0.5,2.2-0.5c1.4,0,2.4,0.4,3,1.2c0.6,0.8,1,1.9,1,3.3v8h-3v-7.8c0-0.7-0.2-1.3-0.5-1.7
		c-0.3-0.4-0.8-0.6-1.5-0.6c-0.8,0-1.5,0.3-1.9,0.8c-0.5,0.5-0.7,1.3-0.7,2.2v7.1H252.8z M267-416.6v-12.2h6.8v2.3H270v9.9H267z
		 M282.2-422.5V-433h3.1v10.6c0,1.1,0.3,1.9,0.8,2.5c0.5,0.6,1.4,0.9,2.4,0.9c1.1,0,1.9-0.3,2.5-0.9c0.5-0.6,0.8-1.4,0.8-2.5V-433
		h3.1v10.5c0,0.9-0.1,1.8-0.4,2.6c-0.3,0.8-0.7,1.4-1.3,1.9c-0.5,0.5-1.2,0.9-2,1.2c-0.8,0.3-1.7,0.4-2.7,0.4s-1.9-0.1-2.7-0.4
		c-0.8-0.3-1.4-0.7-2-1.2c-0.6-0.5-1-1.2-1.3-1.9C282.4-420.6,282.2-421.5,282.2-422.5z M284.7-434.9v-2.6h2.8v2.6H284.7z
		 M289.6-434.9v-2.6h2.8v2.6H289.6z M298.7-416.6V-433h3v5.7c0.4-0.6,0.9-1.1,1.5-1.4c0.6-0.3,1.3-0.5,2.1-0.5
		c0.8,0,1.5,0.2,2.1,0.5c0.6,0.3,1.1,0.8,1.5,1.4c0.4,0.6,0.7,1.3,0.9,2c0.2,0.8,0.3,1.6,0.3,2.5c0,0.9-0.1,1.7-0.3,2.5
		c-0.2,0.8-0.5,1.4-0.9,2c-0.4,0.6-0.9,1-1.5,1.4c-0.6,0.3-1.3,0.5-2.1,0.5c-0.8,0-1.5-0.2-2.1-0.5c-0.6-0.3-1.1-0.8-1.5-1.4v1.7
		H298.7z M301.7-421.8c0,1,0.2,1.7,0.7,2.3c0.4,0.6,1.1,0.9,2.1,0.9c0.8,0,1.4-0.2,1.8-0.6c0.5-0.4,0.7-1,0.7-1.7v-3.5
		c0-0.7-0.2-1.3-0.7-1.7c-0.4-0.4-1.1-0.6-1.9-0.6c-1,0-1.7,0.3-2.1,0.9c-0.4,0.6-0.7,1.3-0.7,2.3V-421.8z M312.5-422.8
		c0-1,0.1-1.8,0.4-2.6c0.3-0.8,0.6-1.5,1.1-2c0.5-0.6,1.1-1,1.7-1.3c0.7-0.3,1.4-0.5,2.3-0.5s1.6,0.1,2.3,0.4
		c0.7,0.3,1.3,0.7,1.7,1.2c0.5,0.5,0.9,1.1,1.1,1.9c0.3,0.7,0.4,1.5,0.4,2.3v1.5h-7.9v0.8c0,0.7,0.2,1.3,0.7,1.7
		c0.5,0.4,1.1,0.6,1.7,0.6c0.7,0,1.2-0.2,1.6-0.5c0.4-0.3,0.7-0.8,0.7-1.5h3c-0.2,1.4-0.8,2.4-1.7,3.2c-0.9,0.8-2.2,1.1-3.7,1.1
		c-0.9,0-1.6-0.2-2.3-0.5c-0.7-0.3-1.3-0.8-1.7-1.3c-0.5-0.6-0.8-1.2-1.1-2C312.6-420.9,312.5-421.8,312.5-422.8z M315.6-424.1h4.8
		v-0.4c0-0.7-0.2-1.2-0.7-1.6s-1-0.6-1.7-0.6c-0.7,0-1.3,0.2-1.7,0.6s-0.7,1-0.7,1.6V-424.1z M326.5-416.6v-12.2h6.8v2.3h-3.8v9.9
		H326.5z M335.8-416.6V-433h3v5.7c0.4-0.6,0.9-1.1,1.5-1.4c0.6-0.3,1.3-0.5,2.1-0.5c0.8,0,1.5,0.2,2.1,0.5c0.6,0.3,1.1,0.8,1.5,1.4
		c0.4,0.6,0.7,1.3,0.9,2c0.2,0.8,0.3,1.6,0.3,2.5c0,0.9-0.1,1.7-0.3,2.5c-0.2,0.8-0.5,1.4-0.9,2c-0.4,0.6-0.9,1-1.5,1.4
		c-0.6,0.3-1.3,0.5-2.1,0.5c-0.8,0-1.5-0.2-2.1-0.5c-0.6-0.3-1.1-0.8-1.5-1.4v1.7H335.8z M338.8-421.8c0,1,0.2,1.7,0.7,2.3
		c0.4,0.6,1.1,0.9,2.1,0.9c0.8,0,1.4-0.2,1.8-0.6c0.5-0.4,0.7-1,0.7-1.7v-3.5c0-0.7-0.2-1.3-0.7-1.7c-0.4-0.4-1.1-0.6-1.9-0.6
		c-1,0-1.7,0.3-2.1,0.9c-0.4,0.6-0.7,1.3-0.7,2.3V-421.8z M350.3-416.6V-433h3v16.3H350.3z M356.9-430.3v-2.7h3.1v2.7H356.9z
		 M357-416.6v-12.2h3v12.2H357z M363.1-422.7c0-1,0.1-1.9,0.4-2.7c0.3-0.8,0.6-1.5,1.1-2c0.5-0.6,1.1-1,1.7-1.3
		c0.7-0.3,1.4-0.4,2.3-0.4c0.6,0,1.3,0.1,1.8,0.3c0.6,0.2,1.1,0.4,1.6,0.8c0.5,0.4,0.9,0.8,1.1,1.4c0.3,0.6,0.5,1.2,0.6,2h-3
		c-0.1-0.8-0.3-1.3-0.7-1.6c-0.4-0.3-0.9-0.5-1.5-0.5c-0.6,0-1.1,0.2-1.6,0.6s-0.7,1-0.7,1.8v3.4c0,0.8,0.2,1.3,0.6,1.8
		c0.4,0.4,1,0.6,1.6,0.6s1.2-0.2,1.6-0.5c0.4-0.3,0.6-0.9,0.7-1.7h3c-0.1,0.8-0.3,1.4-0.6,2c-0.3,0.6-0.7,1-1.1,1.4
		c-0.5,0.4-1,0.7-1.6,0.8c-0.6,0.2-1.2,0.3-1.9,0.3c-0.9,0-1.7-0.2-2.4-0.5c-0.7-0.3-1.3-0.7-1.7-1.3c-0.5-0.6-0.8-1.2-1.1-2
		C363.2-420.9,363.1-421.7,363.1-422.7z M376.7-416.6V-433h3v16.3H376.7z M379.8-423.4l4.1-5.5h3.6l-4.4,5.5l4.8,6.7h-3.3
		L379.8-423.4z M389.9-416.6v-3.5h3.5v3.5l-1.8,3.2H390l1.7-3.2H389.9z M402.2-422.8c0-0.9,0.1-1.7,0.3-2.5c0.2-0.8,0.5-1.5,0.9-2
		c0.4-0.6,0.9-1,1.5-1.4c0.6-0.3,1.3-0.5,2.1-0.5c0.8,0,1.5,0.2,2.1,0.5c0.6,0.3,1.1,0.8,1.5,1.4v-1.7h3v12c0,0.8-0.2,1.5-0.5,2.2
		c-0.3,0.6-0.7,1.1-1.2,1.5c-0.5,0.4-1.1,0.7-1.8,0.9c-0.7,0.2-1.4,0.3-2.1,0.3c-0.7,0-1.4-0.1-2-0.2c-0.6-0.1-1.2-0.4-1.7-0.7
		c-0.5-0.3-0.9-0.7-1.2-1.2c-0.3-0.5-0.5-1.1-0.6-1.8h3c0.1,0.5,0.3,0.8,0.6,1.1c0.3,0.3,0.9,0.4,1.6,0.4c0.4,0,0.7,0,1-0.1
		c0.3-0.1,0.6-0.2,0.9-0.4c0.3-0.2,0.5-0.5,0.6-0.8c0.2-0.4,0.2-0.8,0.2-1.3v-1.3c-0.4,0.6-0.9,1.1-1.4,1.4
		c-0.6,0.3-1.3,0.5-2.1,0.5c-0.8,0-1.5-0.2-2.1-0.5c-0.6-0.3-1.1-0.8-1.5-1.4c-0.4-0.6-0.7-1.3-0.9-2
		C402.3-421,402.2-421.9,402.2-422.8z M405.4-421c0,0.7,0.2,1.3,0.7,1.7c0.5,0.4,1.1,0.7,1.8,0.7c1,0,1.7-0.3,2.1-0.9
		c0.4-0.6,0.7-1.3,0.7-2.3v-1.8c0-1-0.2-1.7-0.7-2.3c-0.4-0.6-1.1-0.9-2.1-0.9c-0.8,0-1.4,0.2-1.9,0.7c-0.4,0.4-0.7,1-0.7,1.7V-421z
		 M416.7-422.8c0-1,0.1-1.8,0.4-2.6c0.3-0.8,0.6-1.5,1.1-2c0.5-0.6,1.1-1,1.7-1.3c0.7-0.3,1.4-0.5,2.3-0.5c0.8,0,1.6,0.1,2.3,0.4
		c0.7,0.3,1.3,0.7,1.7,1.2c0.5,0.5,0.9,1.1,1.1,1.9c0.3,0.7,0.4,1.5,0.4,2.3v1.5h-7.9v0.8c0,0.7,0.2,1.3,0.7,1.7
		c0.5,0.4,1.1,0.6,1.7,0.6s1.2-0.2,1.6-0.5c0.4-0.3,0.7-0.8,0.7-1.5h3c-0.2,1.4-0.8,2.4-1.7,3.2c-0.9,0.8-2.2,1.1-3.7,1.1
		c-0.9,0-1.6-0.2-2.3-0.5c-0.7-0.3-1.3-0.8-1.7-1.3c-0.5-0.6-0.8-1.2-1.1-2C416.8-420.9,416.7-421.8,416.7-422.8z M419.8-424.1h4.8
		v-0.4c0-0.7-0.2-1.2-0.7-1.6c-0.5-0.4-1-0.6-1.7-0.6c-0.7,0-1.3,0.2-1.7,0.6c-0.5,0.4-0.7,1-0.7,1.6V-424.1z M430.7-416.6v-12.2
		h6.8v2.3h-3.8v9.9H430.7z M439.9-430.3v-2.7h3.1v2.7H439.9z M440-416.6v-12.2h3v12.2H440z M446.7-416.6v-12.2h3v1.8
		c0.4-0.7,0.8-1.2,1.4-1.5c0.6-0.4,1.3-0.5,2.2-0.5c1.4,0,2.4,0.4,3,1.2c0.6,0.8,1,1.9,1,3.3v8h-3v-7.8c0-0.7-0.2-1.3-0.5-1.7
		c-0.3-0.4-0.8-0.6-1.5-0.6c-0.8,0-1.5,0.3-1.9,0.8c-0.5,0.5-0.7,1.3-0.7,2.2v7.1H446.7z M460.3-422.8c0-0.9,0.1-1.7,0.3-2.5
		c0.2-0.8,0.5-1.5,0.9-2c0.4-0.6,0.9-1,1.5-1.4c0.6-0.3,1.3-0.5,2.1-0.5c0.8,0,1.5,0.2,2.1,0.5c0.6,0.3,1.1,0.8,1.5,1.4v-1.7h3v12
		c0,0.8-0.2,1.5-0.5,2.2c-0.3,0.6-0.7,1.1-1.2,1.5c-0.5,0.4-1.1,0.7-1.8,0.9c-0.7,0.2-1.4,0.3-2.1,0.3s-1.4-0.1-2-0.2
		c-0.6-0.1-1.2-0.4-1.7-0.7c-0.5-0.3-0.9-0.7-1.2-1.2c-0.3-0.5-0.5-1.1-0.6-1.8h3c0.1,0.5,0.3,0.8,0.6,1.1c0.3,0.3,0.9,0.4,1.6,0.4
		c0.4,0,0.7,0,1-0.1c0.3-0.1,0.6-0.2,0.9-0.4c0.3-0.2,0.5-0.5,0.6-0.8c0.2-0.4,0.2-0.8,0.2-1.3v-1.3c-0.4,0.6-0.9,1.1-1.4,1.4
		c-0.6,0.3-1.3,0.5-2.1,0.5c-0.8,0-1.5-0.2-2.1-0.5c-0.6-0.3-1.1-0.8-1.5-1.4c-0.4-0.6-0.7-1.3-0.9-2
		C460.4-421,460.3-421.9,460.3-422.8z M463.4-421c0,0.7,0.2,1.3,0.7,1.7c0.5,0.4,1.1,0.7,1.8,0.7c1,0,1.7-0.3,2.1-0.9
		c0.4-0.6,0.7-1.3,0.7-2.3v-1.8c0-1-0.2-1.7-0.7-2.3c-0.4-0.6-1.1-0.9-2.1-0.9c-0.8,0-1.4,0.2-1.9,0.7c-0.4,0.4-0.7,1-0.7,1.7V-421z
		 M474.8-422.8c0-1,0.1-1.8,0.4-2.6c0.3-0.8,0.6-1.5,1.1-2c0.5-0.6,1.1-1,1.7-1.3c0.7-0.3,1.4-0.5,2.3-0.5c0.8,0,1.6,0.1,2.3,0.4
		c0.7,0.3,1.3,0.7,1.7,1.2c0.5,0.5,0.9,1.1,1.1,1.9c0.3,0.7,0.4,1.5,0.4,2.3v1.5h-7.9v0.8c0,0.7,0.2,1.3,0.7,1.7
		c0.5,0.4,1.1,0.6,1.7,0.6s1.2-0.2,1.6-0.5c0.4-0.3,0.7-0.8,0.7-1.5h3c-0.2,1.4-0.8,2.4-1.7,3.2c-0.9,0.8-2.2,1.1-3.7,1.1
		c-0.9,0-1.6-0.2-2.3-0.5c-0.7-0.3-1.3-0.8-1.7-1.3c-0.5-0.6-0.8-1.2-1.1-2C474.9-420.9,474.8-421.8,474.8-422.8z M477.9-424.1h4.8
		v-0.4c0-0.7-0.2-1.2-0.7-1.6s-1-0.6-1.7-0.6c-0.7,0-1.3,0.2-1.7,0.6s-0.7,1-0.7,1.6V-424.1z M488.7-416.6v-12.2h6.8v2.3h-3.8v9.9
		H488.7z M497.4-422.8c0-1,0.1-1.8,0.4-2.6c0.3-0.8,0.6-1.5,1.1-2c0.5-0.6,1.1-1,1.7-1.3c0.7-0.3,1.4-0.5,2.3-0.5s1.6,0.1,2.3,0.4
		c0.7,0.3,1.3,0.7,1.7,1.2c0.5,0.5,0.9,1.1,1.1,1.9c0.3,0.7,0.4,1.5,0.4,2.3v1.5h-7.9v0.8c0,0.7,0.2,1.3,0.7,1.7
		c0.5,0.4,1.1,0.6,1.7,0.6c0.7,0,1.2-0.2,1.6-0.5c0.4-0.3,0.7-0.8,0.7-1.5h3c-0.2,1.4-0.8,2.4-1.7,3.2c-0.9,0.8-2.2,1.1-3.7,1.1
		c-0.9,0-1.6-0.2-2.3-0.5c-0.7-0.3-1.3-0.8-1.7-1.3c-0.5-0.6-0.8-1.2-1.1-2C497.5-420.9,497.4-421.8,497.4-422.8z M500.5-424.1h4.8
		v-0.4c0-0.7-0.2-1.2-0.7-1.6s-1-0.6-1.7-0.6c-0.7,0-1.3,0.2-1.7,0.6s-0.7,1-0.7,1.6V-424.1z M219-382.6V-399h3.1v16.3H219z
		 M222.1-391.3l5.9-7.6h3.7l-6.1,7.6l6.5,8.7h-3.6L222.1-391.3z M233.6-388.8c0-1,0.1-1.8,0.4-2.6c0.3-0.8,0.6-1.5,1.1-2
		c0.5-0.6,1.1-1,1.8-1.3c0.7-0.3,1.5-0.5,2.4-0.5s1.7,0.2,2.4,0.5c0.7,0.3,1.3,0.7,1.8,1.3c0.5,0.6,0.9,1.2,1.1,2
		c0.3,0.8,0.4,1.7,0.4,2.6s-0.1,1.8-0.4,2.6c-0.3,0.8-0.6,1.5-1.1,2c-0.5,0.6-1.1,1-1.8,1.3s-1.5,0.5-2.4,0.5s-1.7-0.2-2.4-0.5
		s-1.3-0.7-1.8-1.3c-0.5-0.6-0.9-1.2-1.1-2C233.8-386.9,233.6-387.8,233.6-388.8z M236.8-387c0,0.7,0.2,1.3,0.7,1.7
		c0.5,0.4,1.1,0.6,1.9,0.6s1.4-0.2,1.9-0.6c0.5-0.4,0.8-1,0.8-1.7v-3.6c0-0.8-0.3-1.3-0.8-1.7c-0.5-0.4-1.1-0.6-1.9-0.6
		s-1.4,0.2-1.9,0.6c-0.5,0.4-0.7,1-0.7,1.7V-387z M247.4-386.5h3c0.1,1.2,0.9,1.9,2.2,1.9c0.6,0,1.1-0.1,1.5-0.3
		c0.4-0.2,0.6-0.6,0.6-1c0-0.4-0.2-0.8-0.5-1c-0.3-0.2-0.8-0.4-1.3-0.5l-2.1-0.5c-2-0.4-3.1-1.6-3.1-3.5c0-0.5,0.1-1,0.3-1.5
		c0.2-0.5,0.5-0.8,0.9-1.2c0.4-0.3,0.9-0.6,1.5-0.8c0.6-0.2,1.3-0.3,2-0.3c1.4,0,2.5,0.3,3.4,1c0.9,0.7,1.4,1.7,1.4,3h-3
		c0-0.6-0.2-1-0.5-1.3c-0.3-0.3-0.8-0.4-1.3-0.4c-0.5,0-0.9,0.1-1.3,0.3c-0.3,0.2-0.5,0.5-0.5,0.9c0,0.4,0.1,0.7,0.4,0.9
		c0.3,0.2,0.6,0.3,1,0.4l2.4,0.5c0.4,0.1,0.9,0.2,1.3,0.4c0.4,0.2,0.8,0.4,1,0.7s0.5,0.6,0.7,1c0.2,0.4,0.3,0.9,0.3,1.4
		c0,0.5-0.1,1-0.3,1.5c-0.2,0.5-0.6,0.9-1,1.2c-0.4,0.3-1,0.6-1.6,0.8c-0.6,0.2-1.4,0.3-2.2,0.3c-1.6,0-2.9-0.4-3.8-1.1
		C247.9-384.1,247.4-385.2,247.4-386.5z M259.4-392.6v-2.3h2.4v-4.1h3v4.1h3v2.3h-3v7.6h3v2.3h-6v-9.9H259.4z M270.1-388.8
		c0-1,0.1-1.8,0.4-2.6c0.3-0.8,0.6-1.5,1.1-2c0.5-0.6,1.1-1,1.7-1.3c0.7-0.3,1.4-0.5,2.3-0.5s1.6,0.1,2.3,0.4
		c0.7,0.3,1.3,0.7,1.7,1.2c0.5,0.5,0.9,1.1,1.1,1.9c0.3,0.7,0.4,1.5,0.4,2.3v1.5h-7.9v0.8c0,0.7,0.2,1.3,0.7,1.7
		c0.5,0.4,1.1,0.6,1.7,0.6c0.7,0,1.2-0.2,1.6-0.5c0.4-0.3,0.7-0.8,0.7-1.5h3c-0.2,1.4-0.8,2.4-1.7,3.2c-0.9,0.8-2.2,1.1-3.7,1.1
		c-0.9,0-1.6-0.2-2.3-0.5c-0.7-0.3-1.3-0.8-1.7-1.3c-0.5-0.6-0.8-1.2-1.1-2S270.1-387.8,270.1-388.8z M273.2-390.1h4.8v-0.4
		c0-0.7-0.2-1.2-0.7-1.6c-0.5-0.4-1-0.6-1.7-0.6c-0.7,0-1.3,0.2-1.7,0.6c-0.5,0.4-0.7,1-0.7,1.6V-390.1z M284.1-382.6v-12.2h3v1.8
		c0.4-0.7,0.8-1.2,1.4-1.5c0.6-0.4,1.3-0.5,2.2-0.5c1.4,0,2.4,0.4,3,1.2c0.6,0.8,1,1.9,1,3.3v8h-3v-7.8c0-0.7-0.2-1.3-0.5-1.7
		c-0.3-0.4-0.8-0.6-1.5-0.6c-0.8,0-1.5,0.3-1.9,0.8c-0.5,0.5-0.7,1.3-0.7,2.2v7.1H284.1z M304.1-387.9v-2.4h11.3v2.4H304.1z
		 M324.2-388.8c0-0.9,0.1-1.7,0.3-2.5c0.2-0.8,0.5-1.5,0.9-2c0.4-0.6,0.9-1,1.5-1.4c0.6-0.3,1.3-0.5,2.1-0.5c0.8,0,1.5,0.2,2.1,0.5
		c0.6,0.3,1.1,0.8,1.5,1.4v-1.7h3v12c0,0.8-0.2,1.5-0.5,2.2c-0.3,0.6-0.7,1.1-1.2,1.5c-0.5,0.4-1.1,0.7-1.8,0.9
		c-0.7,0.2-1.4,0.3-2.1,0.3s-1.4-0.1-2-0.2c-0.6-0.1-1.2-0.4-1.7-0.7c-0.5-0.3-0.9-0.7-1.2-1.2c-0.3-0.5-0.5-1.1-0.6-1.8h3
		c0.1,0.5,0.3,0.8,0.6,1.1c0.3,0.3,0.9,0.4,1.6,0.4c0.4,0,0.7,0,1-0.1c0.3-0.1,0.6-0.2,0.9-0.4c0.3-0.2,0.5-0.5,0.6-0.8
		c0.2-0.4,0.2-0.8,0.2-1.3v-1.3c-0.4,0.6-0.9,1.1-1.4,1.4c-0.6,0.3-1.3,0.5-2.1,0.5c-0.8,0-1.5-0.2-2.1-0.5
		c-0.6-0.3-1.1-0.8-1.5-1.4c-0.4-0.6-0.7-1.3-0.9-2C324.3-387,324.2-387.9,324.2-388.8z M327.3-387c0,0.7,0.2,1.3,0.7,1.7
		c0.5,0.4,1.1,0.7,1.8,0.7c1,0,1.7-0.3,2.1-0.9c0.4-0.6,0.7-1.3,0.7-2.3v-1.8c0-1-0.2-1.7-0.7-2.3c-0.4-0.6-1.1-0.9-2.1-0.9
		c-0.8,0-1.4,0.2-1.9,0.7c-0.4,0.4-0.7,1-0.7,1.7V-387z M338.7-388.8c0-1,0.1-1.8,0.4-2.6c0.3-0.8,0.6-1.5,1.1-2
		c0.5-0.6,1.1-1,1.7-1.3c0.7-0.3,1.4-0.5,2.3-0.5c0.8,0,1.6,0.1,2.3,0.4c0.7,0.3,1.3,0.7,1.7,1.2c0.5,0.5,0.9,1.1,1.1,1.9
		c0.3,0.7,0.4,1.5,0.4,2.3v1.5h-7.9v0.8c0,0.7,0.2,1.3,0.7,1.7c0.5,0.4,1.1,0.6,1.7,0.6c0.7,0,1.2-0.2,1.6-0.5
		c0.4-0.3,0.7-0.8,0.7-1.5h3c-0.2,1.4-0.8,2.4-1.7,3.2c-0.9,0.8-2.2,1.1-3.7,1.1c-0.9,0-1.6-0.2-2.3-0.5c-0.7-0.3-1.3-0.8-1.7-1.3
		c-0.5-0.6-0.8-1.2-1.1-2S338.7-387.8,338.7-388.8z M341.8-390.1h4.8v-0.4c0-0.7-0.2-1.2-0.7-1.6c-0.5-0.4-1-0.6-1.7-0.6
		c-0.7,0-1.3,0.2-1.7,0.6c-0.5,0.4-0.7,1-0.7,1.6V-390.1z M352.7-382.6v-12.2h3v1.8c0.4-0.7,0.8-1.2,1.4-1.5
		c0.6-0.4,1.3-0.5,2.2-0.5c1.4,0,2.4,0.4,3,1.2c0.6,0.8,1,1.9,1,3.3v8h-3v-7.8c0-0.7-0.2-1.3-0.5-1.7c-0.3-0.4-0.8-0.6-1.5-0.6
		c-0.8,0-1.5,0.3-1.9,0.8c-0.5,0.5-0.7,1.3-0.7,2.2v7.1H352.7z M366.1-386.1c0-1,0.3-1.8,1-2.6c0.7-0.7,1.7-1.1,3-1.3l3.4-0.3v-0.8
		c0-0.6-0.2-1.1-0.5-1.4c-0.3-0.3-0.8-0.4-1.4-0.4c-0.6,0-1.1,0.1-1.5,0.4c-0.4,0.3-0.6,0.7-0.6,1.3h-3c0-0.7,0.2-1.3,0.4-1.8
		c0.3-0.5,0.6-0.9,1.1-1.3s1-0.6,1.6-0.8c0.6-0.2,1.3-0.3,2-0.3c1.5,0,2.6,0.4,3.5,1.1s1.3,1.8,1.3,3.1v6h2.1v2.3h-4.7l0-1.9h-0.1
		c-0.4,0.7-0.8,1.2-1.4,1.6c-0.6,0.4-1.3,0.6-2.3,0.6c-0.6,0-1.1-0.1-1.5-0.3c-0.5-0.2-0.9-0.4-1.2-0.8c-0.4-0.3-0.6-0.7-0.8-1.2
		C366.2-385,366.1-385.6,366.1-386.1z M369.3-385.8c0,0.4,0.2,0.6,0.5,0.8c0.3,0.2,0.8,0.3,1.3,0.3c0.8,0,1.4-0.3,1.8-0.8
		c0.4-0.5,0.7-1.2,0.7-2v-0.5l-3.6,0.3c-0.4,0-0.7,0.3-0.7,0.8V-385.8z M380.5-386.9v-8h3v7.8c0,0.7,0.1,1.3,0.4,1.7
		c0.3,0.4,0.8,0.6,1.5,0.6c0.8,0,1.5-0.3,1.9-0.8c0.5-0.6,0.7-1.3,0.7-2.2v-7.1h3v12.2h-3v-1.8c-0.4,0.7-0.8,1.2-1.4,1.5
		c-0.6,0.4-1.3,0.5-2.2,0.5c-1.3,0-2.3-0.4-3-1.2C380.9-384.3,380.5-385.4,380.5-386.9z M400.1-388.8c0-0.9,0.1-1.7,0.3-2.5
		c0.2-0.8,0.5-1.5,0.9-2c0.4-0.6,0.9-1,1.5-1.4c0.6-0.3,1.3-0.5,2.1-0.5c0.8,0,1.5,0.2,2.1,0.5c0.6,0.3,1.1,0.8,1.5,1.4v-5.7h3v16.3
		h-3v-1.7c-0.4,0.6-0.9,1.1-1.4,1.4c-0.6,0.3-1.3,0.5-2.1,0.5c-0.8,0-1.5-0.2-2.1-0.5s-1.1-0.8-1.5-1.4c-0.4-0.6-0.7-1.3-0.9-2
		C400.2-387,400.1-387.9,400.1-388.8z M403.2-387c0,0.7,0.2,1.3,0.7,1.7c0.5,0.4,1.1,0.7,1.8,0.7c1,0,1.7-0.3,2.1-0.9
		c0.4-0.6,0.7-1.3,0.7-2.3v-1.8c0-1-0.2-1.7-0.7-2.3c-0.4-0.6-1.1-0.9-2.1-0.9c-0.8,0-1.4,0.2-1.9,0.7c-0.4,0.4-0.7,1-0.7,1.7V-387z
		 M414.4-386.1c0-1,0.3-1.8,1-2.6c0.7-0.7,1.7-1.1,3-1.3l3.4-0.3v-0.8c0-0.6-0.2-1.1-0.5-1.4c-0.3-0.3-0.8-0.4-1.4-0.4
		c-0.6,0-1.1,0.1-1.5,0.4c-0.4,0.3-0.6,0.7-0.6,1.3h-3c0-0.7,0.2-1.3,0.4-1.8c0.3-0.5,0.6-0.9,1.1-1.3c0.5-0.3,1-0.6,1.6-0.8
		c0.6-0.2,1.3-0.3,2-0.3c1.5,0,2.6,0.4,3.5,1.1c0.9,0.7,1.3,1.8,1.3,3.1v6h2.1v2.3h-4.7l0-1.9H422c-0.4,0.7-0.8,1.2-1.4,1.6
		c-0.6,0.4-1.3,0.6-2.3,0.6c-0.6,0-1.1-0.1-1.5-0.3c-0.5-0.2-0.9-0.4-1.2-0.8c-0.4-0.3-0.6-0.7-0.8-1.2
		C414.5-385,414.4-385.6,414.4-386.1z M417.5-385.8c0,0.4,0.2,0.6,0.5,0.8c0.3,0.2,0.8,0.3,1.3,0.3c0.8,0,1.4-0.3,1.8-0.8
		c0.4-0.5,0.7-1.2,0.7-2v-0.5l-3.6,0.3c-0.4,0-0.7,0.3-0.7,0.8V-385.8z M428.1-386.5h3c0.1,1.2,0.9,1.9,2.2,1.9
		c0.6,0,1.1-0.1,1.5-0.3c0.4-0.2,0.6-0.6,0.6-1c0-0.4-0.2-0.8-0.5-1c-0.3-0.2-0.8-0.4-1.3-0.5l-2.1-0.5c-2-0.4-3.1-1.6-3.1-3.5
		c0-0.5,0.1-1,0.3-1.5c0.2-0.5,0.5-0.8,0.9-1.2c0.4-0.3,0.9-0.6,1.5-0.8c0.6-0.2,1.3-0.3,2-0.3c1.4,0,2.5,0.3,3.4,1
		c0.9,0.7,1.4,1.7,1.4,3h-3c0-0.6-0.2-1-0.6-1.3c-0.3-0.3-0.8-0.4-1.3-0.4c-0.5,0-0.9,0.1-1.3,0.3c-0.3,0.2-0.5,0.5-0.5,0.9
		c0,0.4,0.1,0.7,0.4,0.9c0.3,0.2,0.6,0.3,1,0.4l2.4,0.5c0.4,0.1,0.9,0.2,1.3,0.4c0.4,0.2,0.8,0.4,1,0.7s0.5,0.6,0.7,1
		c0.2,0.4,0.3,0.9,0.3,1.4c0,0.5-0.1,1-0.3,1.5c-0.2,0.5-0.6,0.9-1,1.2s-1,0.6-1.6,0.8c-0.6,0.2-1.4,0.3-2.2,0.3
		c-1.6,0-2.9-0.4-3.8-1.1C428.7-384.1,428.2-385.2,428.1-386.5z M447.4-382.6V-399h6.6c1.7,0,3,0.4,3.9,1.2c0.8,0.8,1.3,2.1,1.3,3.8
		c0,1.3-0.3,2.3-0.9,3.1c-0.6,0.8-1.5,1.3-2.6,1.6l3.7,6.5h-3.5l-3.4-6.3h-2v6.3H447.4z M450.5-391.5h3.9c1,0,1.5-0.5,1.5-1.6v-1.7
		c0-0.5-0.1-0.9-0.3-1.2c-0.2-0.2-0.6-0.4-1.1-0.4h-3.9V-391.5z M462.4-396.3v-2.7h3.1v2.7H462.4z M462.4-382.6v-12.2h3v12.2H462.4z
		 M468.5-388.7c0-1,0.1-1.9,0.4-2.7c0.3-0.8,0.6-1.5,1.1-2c0.5-0.6,1.1-1,1.7-1.3c0.7-0.3,1.4-0.4,2.3-0.4c0.6,0,1.3,0.1,1.8,0.3
		c0.6,0.2,1.1,0.4,1.6,0.8c0.5,0.4,0.9,0.8,1.1,1.4c0.3,0.6,0.5,1.2,0.6,2h-3c-0.1-0.8-0.3-1.3-0.7-1.6c-0.4-0.3-0.9-0.5-1.5-0.5
		c-0.6,0-1.1,0.2-1.6,0.6c-0.4,0.4-0.7,1-0.7,1.8v3.4c0,0.8,0.2,1.3,0.6,1.8c0.4,0.4,1,0.6,1.6,0.6s1.2-0.2,1.6-0.5
		c0.4-0.3,0.6-0.9,0.7-1.7h3c-0.1,0.8-0.3,1.4-0.6,2c-0.3,0.6-0.7,1-1.1,1.4c-0.5,0.4-1,0.7-1.6,0.8c-0.6,0.2-1.2,0.3-1.9,0.3
		c-0.9,0-1.7-0.2-2.4-0.5c-0.7-0.3-1.3-0.7-1.7-1.3c-0.5-0.6-0.8-1.2-1.1-2C468.6-386.9,468.5-387.7,468.5-388.7z M482.1-382.6V-399
		h3v5.9c0.4-0.7,0.8-1.2,1.4-1.5c0.6-0.4,1.3-0.5,2.2-0.5c1.4,0,2.4,0.4,3,1.2c0.6,0.8,1,1.9,1,3.3v8h-3v-7.8c0-0.7-0.2-1.3-0.5-1.7
		c-0.3-0.4-0.8-0.6-1.5-0.6c-0.8,0-1.5,0.3-1.9,0.8c-0.5,0.5-0.7,1.3-0.7,2.2v7.1H482.1z M495.2-392.6v-2.3h2.4v-4.1h3v4.1h3v2.3h-3
		v7.6h3v2.3h-6v-9.9H495.2z M506.5-396.3v-2.7h3.1v2.7H506.5z M506.5-382.6v-12.2h3v12.2H506.5z M512.6-388.8c0-0.9,0.1-1.7,0.3-2.5
		c0.2-0.8,0.5-1.5,0.9-2c0.4-0.6,0.9-1,1.5-1.4c0.6-0.3,1.3-0.5,2.1-0.5c0.8,0,1.5,0.2,2.1,0.5c0.6,0.3,1.1,0.8,1.5,1.4v-1.7h3v12
		c0,0.8-0.2,1.5-0.5,2.2c-0.3,0.6-0.7,1.1-1.2,1.5c-0.5,0.4-1.1,0.7-1.8,0.9c-0.7,0.2-1.4,0.3-2.1,0.3s-1.4-0.1-2-0.2
		c-0.6-0.1-1.2-0.4-1.7-0.7c-0.5-0.3-0.9-0.7-1.2-1.2c-0.3-0.5-0.5-1.1-0.6-1.8h3c0.1,0.5,0.3,0.8,0.6,1.1c0.3,0.3,0.9,0.4,1.6,0.4
		c0.4,0,0.7,0,1-0.1c0.3-0.1,0.6-0.2,0.9-0.4c0.3-0.2,0.5-0.5,0.6-0.8c0.2-0.4,0.2-0.8,0.2-1.3v-1.3c-0.4,0.6-0.9,1.1-1.4,1.4
		c-0.6,0.3-1.3,0.5-2.1,0.5c-0.8,0-1.5-0.2-2.1-0.5c-0.6-0.3-1.1-0.8-1.5-1.4s-0.7-1.3-0.9-2C512.7-387,512.6-387.9,512.6-388.8z
		 M515.8-387c0,0.7,0.2,1.3,0.7,1.7c0.5,0.4,1.1,0.7,1.8,0.7c1,0,1.7-0.3,2.1-0.9c0.4-0.6,0.7-1.3,0.7-2.3v-1.8c0-1-0.2-1.7-0.7-2.3
		c-0.4-0.6-1.1-0.9-2.1-0.9c-0.8,0-1.4,0.2-1.9,0.7c-0.4,0.4-0.7,1-0.7,1.7V-387z M527.1-388.8c0-1,0.1-1.8,0.4-2.6
		c0.3-0.8,0.6-1.5,1.1-2c0.5-0.6,1.1-1,1.7-1.3c0.7-0.3,1.4-0.5,2.3-0.5c0.8,0,1.6,0.1,2.3,0.4c0.7,0.3,1.3,0.7,1.7,1.2
		c0.5,0.5,0.9,1.1,1.1,1.9c0.3,0.7,0.4,1.5,0.4,2.3v1.5h-7.9v0.8c0,0.7,0.2,1.3,0.7,1.7c0.5,0.4,1.1,0.6,1.7,0.6
		c0.7,0,1.2-0.2,1.6-0.5c0.4-0.3,0.7-0.8,0.7-1.5h3c-0.2,1.4-0.8,2.4-1.7,3.2c-0.9,0.8-2.2,1.1-3.7,1.1c-0.9,0-1.6-0.2-2.3-0.5
		c-0.7-0.3-1.3-0.8-1.7-1.3c-0.5-0.6-0.8-1.2-1.1-2S527.1-387.8,527.1-388.8z M530.2-390.1h4.8v-0.4c0-0.7-0.2-1.2-0.7-1.6
		c-0.5-0.4-1-0.6-1.7-0.6c-0.7,0-1.3,0.2-1.7,0.6c-0.5,0.4-0.7,1-0.7,1.6V-390.1z M217.7-358.6v-2.3h2.4v-4.1h6v2.3h-3v1.8h2.8v2.3
		h-2.8v9.9h-3v-9.9H217.7z M228.3-352.9v-8h3v7.8c0,0.7,0.1,1.3,0.4,1.7c0.3,0.4,0.8,0.6,1.5,0.6c0.8,0,1.5-0.3,1.9-0.8
		c0.5-0.6,0.7-1.3,0.7-2.2v-7.1h3v12.2h-3v-1.8c-0.4,0.7-0.8,1.2-1.4,1.5c-0.6,0.4-1.3,0.5-2.2,0.5c-1.3,0-2.3-0.4-3-1.2
		C228.6-350.3,228.3-351.4,228.3-352.9z M229.6-362.7v-2.6h2.8v2.6H229.6z M234.5-362.7v-2.6h2.8v2.6H234.5z M242.5-348.6v-12.2h6.8
		v2.3h-3.8v9.9H242.5z M256.9-353.5h3.1c0.1,1,0.5,1.6,1.1,2.1c0.6,0.4,1.4,0.6,2.4,0.6c0.9,0,1.7-0.2,2.3-0.6
		c0.6-0.4,0.9-0.9,0.9-1.7c0-0.6-0.2-1-0.5-1.4c-0.4-0.3-0.9-0.6-1.7-0.8l-3.2-0.8c-1.3-0.4-2.3-0.9-3-1.7c-0.6-0.8-1-1.8-1-3
		c0-0.7,0.1-1.3,0.4-1.8c0.3-0.6,0.7-1,1.2-1.4c0.5-0.4,1.1-0.7,1.9-0.9c0.7-0.2,1.6-0.3,2.5-0.3c0.8,0,1.6,0.1,2.3,0.3
		c0.7,0.2,1.3,0.5,1.9,0.9c0.5,0.4,1,0.9,1.3,1.5s0.5,1.4,0.6,2.2h-3.1c0-0.4-0.2-0.8-0.4-1.1c-0.2-0.3-0.4-0.5-0.7-0.7
		c-0.3-0.2-0.6-0.3-0.9-0.4c-0.3-0.1-0.7-0.1-1.1-0.1c-0.9,0-1.6,0.2-2.1,0.5c-0.5,0.3-0.7,0.8-0.7,1.4c0,0.6,0.2,1.1,0.6,1.4
		c0.4,0.3,1,0.6,1.8,0.8l2.8,0.7c1.4,0.4,2.4,0.9,3.2,1.7c0.7,0.7,1.1,1.8,1.1,3.1c0,0.8-0.2,1.4-0.5,2c-0.3,0.6-0.7,1.1-1.3,1.5
		c-0.6,0.4-1.2,0.7-2,0.9c-0.8,0.2-1.6,0.3-2.6,0.3c-0.9,0-1.8-0.1-2.5-0.3c-0.8-0.2-1.5-0.5-2-0.9c-0.6-0.4-1.1-1-1.4-1.6
		S256.9-352.6,256.9-353.5z M272.7-362.3v-2.7h3.1v2.7H272.7z M272.8-348.6v-12.2h3v12.2H272.8z M278.8-354.8c0-1,0.1-1.8,0.4-2.6
		c0.3-0.8,0.6-1.5,1.1-2c0.5-0.6,1.1-1,1.7-1.3c0.7-0.3,1.4-0.5,2.3-0.5c0.8,0,1.6,0.1,2.3,0.4c0.7,0.3,1.3,0.7,1.7,1.2
		c0.5,0.5,0.9,1.1,1.1,1.9c0.3,0.7,0.4,1.5,0.4,2.3v1.5H282v0.8c0,0.7,0.2,1.3,0.7,1.7c0.5,0.4,1.1,0.6,1.7,0.6
		c0.7,0,1.2-0.2,1.6-0.5c0.4-0.3,0.7-0.8,0.7-1.5h3c-0.2,1.4-0.8,2.4-1.7,3.2c-0.9,0.8-2.2,1.1-3.7,1.1c-0.9,0-1.6-0.2-2.3-0.5
		c-0.7-0.3-1.3-0.8-1.7-1.3c-0.5-0.6-0.8-1.2-1.1-2S278.8-353.8,278.8-354.8z M282-356.1h4.8v-0.4c0-0.7-0.2-1.2-0.7-1.6
		c-0.5-0.4-1-0.6-1.7-0.6c-0.7,0-1.3,0.2-1.7,0.6c-0.5,0.4-0.7,1-0.7,1.6V-356.1z"/>
	<path class="st12" d="M228.5-302.5l-2.9-9.4h-1.1l-2.9,9.4l-2.9-10.8h-1.2l3.5,12.6h1.2l2.8-9.4l2.9,9.4h1.2l3.5-12.6h-1.2
		L228.5-302.5z M234.9-311.7c0.4,0.3,1,0.3,1.3,0c0.4-0.4,0.4-1,0-1.3c-0.3-0.4-1-0.4-1.3,0C234.5-312.6,234.5-312,234.9-311.7z
		 M235-300.6h1.1v-9.1H235V-300.6z M244-309.5c-0.5-0.2-1-0.3-1.4-0.3c-1.2,0-2.1,0.6-2.7,1.8v-1.6h-1.1v9.1h1.1v-3.5
		c0-3,1-4.7,2.5-4.7c0.4,0,0.9,0.1,1.3,0.3L244-309.5z M250.6-300.6h1.2v-1.2c0.5,0.7,1.7,1.3,2.8,1.3c1.3,0,2.3-0.4,3-1.3
		c0.7-0.9,1.1-2,1.1-3.4c0-1.3-0.4-2.5-1.1-3.3c-0.7-0.9-1.7-1.3-3-1.3c-1,0-2.2,0.6-2.8,1.4v-5h-1.2V-300.6z M257.4-305.2
		c0,2.1-1.1,3.6-2.9,3.6s-2.9-1.5-2.9-3.6c0-1.1,0.3-1.9,0.8-2.6c0.5-0.7,1.2-1,2.2-1c0.9,0,1.6,0.3,2.2,1
		C257.2-307.1,257.4-306.2,257.4-305.2z M260.9-311.7c0.4,0.3,1,0.3,1.3,0c0.4-0.4,0.4-1,0-1.3c-0.3-0.4-1-0.4-1.3,0
		C260.6-312.6,260.6-312,260.9-311.7z M261-300.6h1.1v-9.1H261V-300.6z M272.8-305.7c0-1.2-0.4-2.3-1.1-3c-0.7-0.8-1.7-1.2-2.9-1.2
		c-1.2,0-2.2,0.5-2.9,1.3c-0.7,0.9-1.1,2-1.1,3.3c0,1.4,0.4,2.5,1.1,3.4c0.7,0.9,1.7,1.3,2.9,1.3c1.7,0,2.9-0.7,3.8-2.5l-1-0.5
		c-0.7,1.4-1.4,1.9-2.8,1.9c-1.8,0-2.9-1.5-2.9-3.6h6.8V-305.7z M268.9-308.8c1.6,0,2.6,1,2.8,2.6h-5.6
		C266.4-307.7,267.4-308.8,268.9-308.8z M275.8-308.7v5.5c0,1.8,0.9,2.7,2.3,2.7c0.7,0,1.2-0.1,1.6-0.3l-0.3-1
		c-0.3,0.2-0.7,0.3-1.1,0.3c-0.8,0-1.3-0.5-1.3-1.5v-5.6h2.4v-1h-2.4v-3.7l-1.2,0.7v2.9h-1.6v1H275.8z M289.1-305.7
		c0-1.2-0.4-2.3-1.1-3c-0.7-0.8-1.7-1.2-2.9-1.2c-1.2,0-2.2,0.5-2.9,1.3c-0.7,0.9-1.1,2-1.1,3.3c0,1.4,0.4,2.5,1.1,3.4
		c0.7,0.9,1.7,1.3,2.9,1.3c1.7,0,2.9-0.7,3.8-2.5l-1-0.5c-0.7,1.4-1.4,1.9-2.8,1.9c-1.8,0-2.9-1.5-2.9-3.6h6.8V-305.7z M285.1-308.8
		c1.6,0,2.6,1,2.8,2.6h-5.6C282.6-307.7,283.6-308.8,285.1-308.8z M298.6-306.9c0-1.9-1.1-3-2.8-3c-1.3,0-2.5,0.8-3.1,2v-1.9h-1.1
		v9.1h1.1v-4c0-1.3,0.3-2.3,0.8-3c0.6-0.8,1.3-1.2,2.1-1.2c1.2,0,1.9,0.7,1.9,2.1v6.1h1.1V-306.9z M306.5-313.2v12.6h1.2v-12.6
		H306.5z M317.6-306.9c0-1.9-1.1-3-2.8-3c-1.3,0-2.5,0.8-3.1,2v-1.9h-1.1v9.1h1.1v-4c0-1.3,0.3-2.3,0.8-3c0.6-0.8,1.3-1.2,2.1-1.2
		c1.2,0,1.9,0.7,1.9,2.1v6.1h1.1V-306.9z M326.9-308.4c-0.6-0.8-1.8-1.4-2.8-1.4c-1.3,0-2.3,0.5-3,1.3c-0.7,0.9-1.1,2-1.1,3.3
		c0,1.4,0.4,2.5,1.1,3.4c0.7,0.9,1.7,1.3,3,1.3c1.2,0,2.3-0.6,2.8-1.3v1.2h1.2v-12.7h-1.2V-308.4z M321.2-305.2
		c0-1.1,0.3-1.9,0.8-2.6c0.5-0.7,1.2-1,2.2-1c0.9,0,1.6,0.3,2.1,1c0.5,0.7,0.8,1.5,0.8,2.6c0,2.1-1,3.6-2.9,3.6
		S321.2-303,321.2-305.2z M330.8-311.7c0.4,0.3,1,0.3,1.3,0c0.4-0.4,0.4-1,0-1.3c-0.3-0.4-1-0.4-1.3,0
		C330.5-312.6,330.5-312,330.8-311.7z M330.9-300.6h1.1v-9.1h-1.1V-300.6z M337.7-302.1l-2.5-7.6H334l3.1,9.1h1.2l3.1-9.1h-1.2
		L337.7-302.1z M343.2-311.7c0.4,0.3,1,0.3,1.3,0c0.4-0.4,0.4-1,0-1.3c-0.3-0.4-1-0.4-1.3,0C342.9-312.6,342.9-312,343.2-311.7z
		 M343.3-300.6h1.1v-9.1h-1.1V-300.6z M354-308.4c-0.6-0.8-1.8-1.4-2.8-1.4c-1.3,0-2.3,0.5-3,1.3c-0.7,0.9-1.1,2-1.1,3.3
		c0,1.4,0.4,2.5,1.1,3.4c0.7,0.9,1.7,1.3,3,1.3c1.2,0,2.3-0.6,2.8-1.3v1.2h1.2v-12.7H354V-308.4z M348.3-305.2
		c0-1.1,0.3-1.9,0.8-2.6c0.5-0.7,1.2-1,2.2-1c0.9,0,1.6,0.3,2.1,1c0.5,0.7,0.8,1.5,0.8,2.6c0,2.1-1,3.6-2.9,3.6
		C349.3-301.5,348.3-303,348.3-305.2z M357.8-303.5c0,1.9,1.1,3,2.8,3c1.3,0,2.5-0.8,3.1-2v1.9h1.1v-9.1h-1.1v4c0,1.3-0.3,2.3-0.8,3
		s-1.2,1.2-2.1,1.2c-1.2,0-1.9-0.7-1.9-2.1v-6.1h-1.1V-303.5z M368.5-303.2c0-1.2,1-1.9,3-1.9h1.5v0.3c0,1.1-0.3,1.9-0.9,2.5
		c-0.6,0.5-1.2,0.8-1.9,0.8C369.2-301.5,368.5-302.1,368.5-303.2z M374.2-306.6c0-1-0.3-1.8-0.9-2.3c-0.6-0.6-1.4-0.9-2.3-0.9
		c-1.7,0-3,1-3.2,2.5l1.1,0.3c0.3-1.1,1.1-1.7,2.2-1.7c1.3,0,2.1,0.7,2.1,2.2v0.4h-1.5c-2.6,0-4.2,1-4.2,3c0,1.9,1.2,2.8,2.8,2.8
		c1.3,0,2.3-0.5,2.9-1.5l0.3,1.4h0.8V-306.6z M376.8-300.6h1.1v-12.7h-1.1V-300.6z M380.5-300.6h1.1v-12.7h-1.1V-300.6z
		 M385.1-301.9c0.8,0.9,1.8,1.4,3.1,1.4s2.3-0.5,3.1-1.4c0.8-0.9,1.2-2,1.2-3.3s-0.4-2.3-1.2-3.3c-0.8-0.9-1.8-1.4-3.1-1.4
		s-2.3,0.5-3.1,1.4c-0.8,0.9-1.2,2-1.2,3.3S384.3-302.8,385.1-301.9z M385.9-307.7c0.6-0.7,1.3-1.1,2.3-1.1s1.7,0.4,2.3,1.1
		c0.6,0.7,0.8,1.6,0.8,2.6s-0.3,1.8-0.8,2.6c-0.5,0.7-1.3,1.1-2.3,1.1s-1.7-0.4-2.3-1.1c-0.5-0.7-0.8-1.6-0.8-2.6
		S385.4-307,385.9-307.7z M385.9-312.3c0,0.5,0.4,0.9,0.9,0.9c0.5,0,0.9-0.4,0.9-0.9c0-0.5-0.4-0.9-0.9-0.9
		C386.3-313.2,385.9-312.8,385.9-312.3z M388.7-312.3c0,0.5,0.4,0.9,0.9,0.9c0.5,0,0.9-0.4,0.9-0.9c0-0.5-0.4-0.9-0.9-0.9
		C389.1-313.2,388.7-312.8,388.7-312.3z M397.4-309.9c-1.5,0-2.5,1-2.5,2.4c0,1.7,1.5,2.2,2.8,2.7c0.8,0.3,1.5,0.8,1.5,1.6
		c0,1-0.6,1.6-1.6,1.6c-1.2,0-1.8-0.7-2.3-2l-1,0.5c0.4,1.4,1.5,2.5,3.3,2.5c1.7,0,2.8-1.1,2.8-2.8c0-1.5-1.6-2.1-2.8-2.6
		c-0.8-0.3-1.5-0.8-1.5-1.5c0-0.8,0.5-1.4,1.3-1.4c0.7,0,1.3,0.3,1.8,1l0.8-0.7C399.3-309.4,398.4-309.9,397.4-309.9z M402.5-303.5
		c0,1.9,1.1,3,2.8,3c1.3,0,2.5-0.8,3.1-2v1.9h1.1v-9.1h-1.1v4c0,1.3-0.3,2.3-0.8,3c-0.6,0.8-1.2,1.2-2.1,1.2c-1.2,0-1.9-0.7-1.9-2.1
		v-6.1h-1.1V-303.5z M419.5-306.9c0-1.9-1.1-3-2.8-3c-1.3,0-2.5,0.8-3.1,2v-1.9h-1.1v9.1h1.1v-4c0-1.3,0.3-2.3,0.8-3
		c0.6-0.8,1.3-1.2,2.1-1.2c1.2,0,1.9,0.7,1.9,2.1v6.1h1.1V-306.9z M422.5-306.8c0,0.8,0.2,1.4,0.7,2c-0.7,0.3-1.1,0.9-1.1,1.6
		c0,0.7,0.2,1.2,0.7,1.5c-0.6,0.5-0.9,1.1-0.9,1.9c0,1.9,1.4,3,3.7,3c2.3,0,3.7-1,3.7-3.1c0-1.6-1.1-2.4-2.7-2.4h-2.3
		c-0.7,0-1.1-0.3-1.1-0.9c0-0.4,0.3-0.8,0.7-1c0.5,0.3,1,0.4,1.7,0.4c0.9,0,1.6-0.3,2.2-0.8c0.6-0.6,0.9-1.3,0.9-2.2
		c0-0.7-0.2-1.3-0.6-1.9l1.3-0.7l-0.5-1l-1.6,0.9c-0.5-0.3-1-0.4-1.6-0.4c-0.9,0-1.6,0.3-2.2,0.8
		C422.8-308.4,422.5-307.7,422.5-306.8z M426.5-301.4c1.2,0,1.8,0.5,1.8,1.5c0,1.2-0.9,2-2.6,2c-1.7,0-2.7-0.7-2.7-1.9
		c0-0.7,0.3-1.3,0.8-1.6c0.3,0,0.6,0.1,0.9,0.1H426.5z M424.2-308.3c0.4-0.4,0.8-0.6,1.4-0.6c0.6,0,1,0.2,1.4,0.6
		c0.4,0.4,0.6,0.9,0.6,1.5s-0.2,1.1-0.6,1.5s-0.8,0.6-1.4,0.6c-0.6,0-1-0.2-1.4-0.6c-0.4-0.4-0.6-0.9-0.6-1.5
		S423.8-307.9,424.2-308.3z M438.7-305.7c0-1.2-0.4-2.3-1.1-3c-0.7-0.8-1.7-1.2-2.9-1.2c-1.2,0-2.2,0.5-2.9,1.3
		c-0.7,0.9-1.1,2-1.1,3.3c0,1.4,0.4,2.5,1.1,3.4c0.7,0.9,1.7,1.3,2.9,1.3c1.7,0,2.9-0.7,3.8-2.5l-1-0.5c-0.7,1.4-1.4,1.9-2.8,1.9
		c-1.8,0-2.9-1.5-2.9-3.6h6.8V-305.7z M434.7-308.8c1.6,0,2.6,1,2.8,2.6h-5.6C432.2-307.7,433.3-308.8,434.7-308.8z M448.2-306.9
		c0-1.9-1.1-3-2.8-3c-1.3,0-2.5,0.8-3.1,2v-1.9h-1.1v9.1h1.1v-4c0-1.3,0.3-2.3,0.8-3c0.6-0.8,1.3-1.2,2.1-1.2c1.2,0,1.9,0.7,1.9,2.1
		v6.1h1.1V-306.9z M456.7-308.7v8h1.1v-8h2.2v-1h-2.2v-0.8c0-1.2,0.5-1.9,1.6-1.9c0.3,0,0.6,0.1,0.9,0.2l0.2-1
		c-0.3-0.2-0.6-0.2-1.1-0.2c-1.9,0-2.8,1-2.8,3.1v0.6h-1.4v1H456.7z M461.8-303.5c0,1.9,1.1,3,2.8,3c1.3,0,2.5-0.8,3.1-2v1.9h1.1
		v-9.1h-1.1v4c0,1.3-0.3,2.3-0.8,3c-0.6,0.8-1.2,1.2-2.1,1.2c-1.2,0-1.9-0.7-1.9-2.1v-6.1h-1.1V-303.5z M463.1-312.3
		c0,0.5,0.4,0.9,0.9,0.9c0.5,0,0.9-0.4,0.9-0.9c0-0.5-0.4-0.9-0.9-0.9C463.5-313.2,463.1-312.8,463.1-312.3z M465.9-312.3
		c0,0.5,0.4,0.9,0.9,0.9c0.5,0,0.9-0.4,0.9-0.9c0-0.5-0.4-0.9-0.9-0.9C466.3-313.2,465.9-312.8,465.9-312.3z M476.6-309.5
		c-0.5-0.2-1-0.3-1.4-0.3c-1.2,0-2.1,0.6-2.7,1.8v-1.6h-1.1v9.1h1.1v-3.5c0-3,1-4.7,2.5-4.7c0.5,0,0.9,0.1,1.3,0.3L476.6-309.5z
		 M485.5-312.1v11.5h1.2v-11.5h3.8v-1.1h-8.7v1.1H485.5z M497.9-305.7c0-1.2-0.4-2.3-1.1-3s-1.7-1.2-2.9-1.2c-1.2,0-2.2,0.5-2.9,1.3
		c-0.7,0.9-1.1,2-1.1,3.3c0,1.4,0.4,2.5,1.1,3.4c0.7,0.9,1.7,1.3,2.9,1.3c1.7,0,2.9-0.7,3.8-2.5l-1-0.5c-0.7,1.4-1.4,1.9-2.8,1.9
		c-1.8,0-2.9-1.5-2.9-3.6h6.8V-305.7z M493.9-308.8c1.6,0,2.6,1,2.8,2.6h-5.6C491.5-307.7,492.5-308.8,493.9-308.8z M500.6-300.6
		h1.1v-12.7h-1.1V-300.6z M512-305.7c0-1.2-0.4-2.3-1.1-3c-0.7-0.8-1.7-1.2-2.9-1.2c-1.2,0-2.2,0.5-2.9,1.3c-0.7,0.9-1.1,2-1.1,3.3
		c0,1.4,0.4,2.5,1.1,3.4c0.7,0.9,1.7,1.3,2.9,1.3c1.7,0,2.9-0.7,3.8-2.5l-1-0.5c-0.7,1.4-1.4,1.9-2.8,1.9c-1.8,0-2.9-1.5-2.9-3.6
		h6.8V-305.7z M508-308.8c1.6,0,2.6,1,2.8,2.6h-5.6C505.6-307.7,506.6-308.8,508-308.8z M515.2-308.7v8h1.1v-8h2.2v-1h-2.2v-0.8
		c0-1.2,0.5-1.9,1.6-1.9c0.3,0,0.6,0.1,0.9,0.2l0.2-1c-0.3-0.2-0.6-0.2-1.1-0.2c-1.9,0-2.8,1-2.8,3.1v0.6h-1.4v1H515.2z
		 M520.9-301.9c0.8,0.9,1.8,1.4,3.1,1.4s2.3-0.5,3.1-1.4c0.8-0.9,1.2-2,1.2-3.3s-0.4-2.3-1.2-3.3c-0.8-0.9-1.8-1.4-3.1-1.4
		s-2.3,0.5-3.1,1.4c-0.8,0.9-1.2,2-1.2,3.3S520.1-302.8,520.9-301.9z M521.7-307.7c0.6-0.7,1.3-1.1,2.3-1.1c1,0,1.7,0.4,2.3,1.1
		c0.6,0.7,0.8,1.6,0.8,2.6s-0.3,1.8-0.8,2.6c-0.5,0.7-1.3,1.1-2.3,1.1c-1,0-1.7-0.4-2.3-1.1c-0.5-0.7-0.8-1.6-0.8-2.6
		S521.2-307,521.7-307.7z M537.8-306.9c0-1.9-1.1-3-2.8-3c-1.3,0-2.5,0.8-3.1,2v-1.9h-1.1v9.1h1.1v-4c0-1.3,0.3-2.3,0.8-3
		c0.6-0.8,1.3-1.2,2.1-1.2c1.2,0,1.9,0.7,1.9,2.1v6.1h1.1V-306.9z M540.4-311.7c0.4,0.3,1,0.3,1.3,0c0.4-0.4,0.4-1,0-1.3
		c-0.3-0.4-1-0.4-1.3,0C540.1-312.6,540.1-312,540.4-311.7z M540.6-300.6h1.1v-9.1h-1.1V-300.6z M552.4-305.7c0-1.2-0.4-2.3-1.1-3
		c-0.7-0.8-1.7-1.2-2.9-1.2c-1.2,0-2.2,0.5-2.9,1.3c-0.7,0.9-1.1,2-1.1,3.3c0,1.4,0.4,2.5,1.1,3.4c0.7,0.9,1.7,1.3,2.9,1.3
		c1.7,0,2.9-0.7,3.8-2.5l-1-0.5c-0.7,1.4-1.4,1.9-2.8,1.9c-1.8,0-2.9-1.5-2.9-3.6h6.8V-305.7z M548.4-308.8c1.6,0,2.6,1,2.8,2.6
		h-5.6C545.9-307.7,546.9-308.8,548.4-308.8z M554.5-299.3l1.7-3h-1.7l-0.9,3H554.5z M224.8-282.4c-0.6-0.8-1.8-1.4-2.8-1.4
		c-1.3,0-2.3,0.5-3,1.3c-0.7,0.9-1.1,2-1.1,3.3c0,1.4,0.4,2.5,1.1,3.4c0.7,0.9,1.7,1.3,3,1.3c1.2,0,2.3-0.6,2.8-1.3v1.2h1.2v-12.7
		h-1.2V-282.4z M219.1-279.2c0-1.1,0.3-1.9,0.8-2.6c0.5-0.7,1.2-1,2.2-1s1.6,0.3,2.1,1c0.5,0.7,0.8,1.5,0.8,2.6c0,2.1-1,3.6-2.9,3.6
		S219.1-277,219.1-279.2z M228.7-285.7c0.4,0.3,1,0.3,1.3,0c0.4-0.4,0.4-1,0-1.3c-0.3-0.4-1-0.4-1.3,0
		C228.4-286.6,228.4-286,228.7-285.7z M228.8-274.6h1.1v-9.1h-1.1V-274.6z M240.6-279.7c0-1.2-0.4-2.3-1.1-3
		c-0.7-0.8-1.7-1.2-2.9-1.2c-1.2,0-2.2,0.5-2.9,1.3c-0.7,0.9-1.1,2-1.1,3.3c0,1.4,0.4,2.5,1.1,3.4c0.7,0.9,1.7,1.3,2.9,1.3
		c1.7,0,2.9-0.7,3.8-2.5l-1-0.5c-0.7,1.4-1.4,1.9-2.8,1.9c-1.8,0-2.9-1.5-2.9-3.6h6.8V-279.7z M236.6-282.8c1.6,0,2.6,1,2.8,2.6
		h-5.6C234.2-281.7,235.2-282.8,236.6-282.8z M248.3-277.2c0-1.2,1-1.9,3-1.9h1.5v0.3c0,1.1-0.3,1.9-0.9,2.5
		c-0.6,0.5-1.2,0.8-1.9,0.8C248.9-275.5,248.3-276.1,248.3-277.2z M253.9-280.6c0-1-0.3-1.8-0.9-2.3c-0.6-0.6-1.4-0.9-2.3-0.9
		c-1.7,0-3,1-3.2,2.5l1.1,0.3c0.3-1.1,1.1-1.7,2.2-1.7c1.3,0,2.1,0.7,2.1,2.2v0.4h-1.5c-2.6,0-4.2,1-4.2,3c0,1.9,1.2,2.8,2.8,2.8
		c1.3,0,2.3-0.5,2.9-1.5l0.3,1.4h0.8V-280.6z M256.8-277.5c0,1.9,1.1,3,2.8,3c1.3,0,2.5-0.8,3.1-2v1.9h1.1v-9.1h-1.1v4
		c0,1.3-0.3,2.3-0.8,3s-1.2,1.2-2.1,1.2c-1.2,0-1.9-0.7-1.9-2.1v-6.1h-1.1V-277.5z M267.3-282.7v8h1.1v-8h2.2v-1h-2.2v-0.8
		c0-1.2,0.5-1.9,1.6-1.9c0.3,0,0.6,0.1,0.9,0.2l0.2-1c-0.3-0.2-0.6-0.2-1.1-0.2c-1.9,0-2.8,1-2.8,3.1v0.6h-1.4v1H267.3z
		 M277.8-287.2v12.6h1.2v-12.6H277.8z M289.1-280.9c0-1.9-1-3-2.8-3c-1.3,0-2.6,0.7-3.2,2.1v-5.7h-1.1v12.7h1.1v-3.9
		c0-1.3,0.3-2.3,0.9-3.1s1.3-1.2,2.2-1.2c1.2,0,1.9,0.8,1.9,2.1v6.1h1.1V-280.9z M297.2-283.5c-0.5-0.2-1-0.3-1.4-0.3
		c-1.2,0-2.1,0.6-2.7,1.8v-1.6H292v9.1h1.1v-3.5c0-3,1-4.7,2.5-4.7c0.5,0,0.9,0.1,1.3,0.3L297.2-283.5z M303.6-278.7
		c0,1.3,0.4,2.3,1.2,3.1c0.8,0.7,1.9,1.1,3.1,1.1s2.2-0.4,3.1-1.1c0.8-0.7,1.3-1.8,1.3-3.1v-8.6H311v8.7c0,1.7-1.1,3-3.1,3
		s-3.1-1.3-3.1-3v-8.7h-1.2V-278.7z M322.2-280.9c0-1.9-1.1-3-2.8-3c-1.3,0-2.5,0.8-3.1,2v-1.9h-1.1v9.1h1.1v-4c0-1.3,0.3-2.3,0.8-3
		c0.6-0.8,1.3-1.2,2.1-1.2c1.2,0,1.9,0.7,1.9,2.1v6.1h1.1V-280.9z M325.5-282.7v5.5c0,1.8,0.9,2.7,2.3,2.7c0.7,0,1.2-0.1,1.6-0.3
		l-0.3-1c-0.3,0.2-0.7,0.3-1.1,0.3c-0.8,0-1.3-0.5-1.3-1.5v-5.6h2.4v-1h-2.4v-3.7l-1.2,0.7v2.9h-1.6v1H325.5z M338.8-279.7
		c0-1.2-0.4-2.3-1.1-3c-0.7-0.8-1.7-1.2-2.9-1.2c-1.2,0-2.2,0.5-2.9,1.3c-0.7,0.9-1.1,2-1.1,3.3c0,1.4,0.4,2.5,1.1,3.4
		c0.7,0.9,1.7,1.3,2.9,1.3c1.7,0,2.9-0.7,3.8-2.5l-1-0.5c-0.7,1.4-1.4,1.9-2.8,1.9c-1.8,0-2.9-1.5-2.9-3.6h6.8V-279.7z M334.8-282.8
		c1.6,0,2.6,1,2.8,2.6H332C332.3-281.7,333.3-282.8,334.8-282.8z M346.4-283.5c-0.5-0.2-1-0.3-1.4-0.3c-1.2,0-2.1,0.6-2.7,1.8v-1.6
		h-1.1v9.1h1.1v-3.5c0-3,1-4.7,2.5-4.7c0.5,0,0.9,0.1,1.3,0.3L346.4-283.5z M355.1-280.9c0-1.9-1.1-3-2.8-3c-1.3,0-2.5,0.8-3.1,2
		v-1.9h-1.1v9.1h1.1v-4c0-1.3,0.3-2.3,0.8-3c0.6-0.8,1.3-1.2,2.1-1.2c1.2,0,1.9,0.7,1.9,2.1v6.1h1.1V-280.9z M365.6-279.7
		c0-1.2-0.4-2.3-1.1-3c-0.7-0.8-1.7-1.2-2.9-1.2c-1.2,0-2.2,0.5-2.9,1.3s-1.1,2-1.1,3.3c0,1.4,0.4,2.5,1.1,3.4
		c0.7,0.9,1.7,1.3,2.9,1.3c1.7,0,2.9-0.7,3.8-2.5l-1-0.5c-0.7,1.4-1.4,1.9-2.8,1.9c-1.8,0-2.9-1.5-2.9-3.6h6.8V-279.7z M361.6-282.8
		c1.6,0,2.6,1,2.8,2.6h-5.6C359.1-281.7,360.2-282.8,361.6-282.8z M375.3-280.9c0-1.9-1-3-2.8-3c-1.3,0-2.6,0.7-3.2,2.1v-5.7h-1.1
		v12.7h1.1v-3.9c0-1.3,0.3-2.3,0.9-3.1s1.3-1.2,2.2-1.2c1.2,0,1.9,0.8,1.9,2.1v6.1h1.1V-280.9z M390-280.9c0-2-0.8-3-2.6-3
		c-1.2,0-2.3,0.8-3,2c-0.3-1.3-1.1-2-2.5-2c-1.3,0-2.3,0.8-2.9,2v-1.9H378v9.1h1.1v-4c0-1.3,0.3-2.3,0.8-3c0.5-0.8,1.2-1.2,1.9-1.2
		c1.2,0,1.6,0.7,1.6,2.1v6.1h1.1v-4c0-1.3,0.3-2.3,0.8-3c0.5-0.8,1.2-1.2,1.9-1.2c1.2,0,1.6,0.7,1.6,2.1v6.1h1.1V-280.9z
		 M400.5-279.7c0-1.2-0.4-2.3-1.1-3s-1.7-1.2-2.9-1.2c-1.2,0-2.2,0.5-2.9,1.3c-0.7,0.9-1.1,2-1.1,3.3c0,1.4,0.4,2.5,1.1,3.4
		c0.7,0.9,1.7,1.3,2.9,1.3c1.7,0,2.9-0.7,3.8-2.5l-1-0.5c-0.7,1.4-1.4,1.9-2.8,1.9c-1.8,0-2.9-1.5-2.9-3.6h6.8V-279.7z M396.5-282.8
		c1.6,0,2.6,1,2.8,2.6h-5.6C394.1-281.7,395.1-282.8,396.5-282.8z M410-280.9c0-1.9-1.1-3-2.8-3c-1.3,0-2.5,0.8-3.1,2v-1.9H403v9.1
		h1.1v-4c0-1.3,0.3-2.3,0.8-3c0.6-0.8,1.3-1.2,2.1-1.2c1.2,0,1.9,0.7,1.9,2.1v6.1h1.1V-280.9z M421.8-282.7l-4.6,7.5v0.5h6.3v-1
		h-4.8l4.6-7.4v-0.6h-5.9v1H421.8z M425.7-277.5c0,1.9,1.1,3,2.8,3c1.3,0,2.5-0.8,3.1-2v1.9h1.1v-9.1h-1.1v4c0,1.3-0.3,2.3-0.8,3
		c-0.6,0.8-1.2,1.2-2.1,1.2c-1.2,0-1.9-0.7-1.9-2.1v-6.1h-1.1V-277.5z M435.9-280.8c0,0.8,0.2,1.4,0.7,2c-0.7,0.3-1.1,0.9-1.1,1.6
		c0,0.7,0.2,1.2,0.7,1.5c-0.6,0.5-0.9,1.1-0.9,1.9c0,1.9,1.4,3,3.7,3c2.3,0,3.7-1,3.7-3.1c0-1.6-1.1-2.4-2.7-2.4h-2.3
		c-0.7,0-1.1-0.3-1.1-0.9c0-0.4,0.3-0.8,0.7-1c0.5,0.3,1,0.4,1.7,0.4c0.9,0,1.6-0.3,2.2-0.8c0.6-0.6,0.9-1.3,0.9-2.2
		c0-0.7-0.2-1.3-0.6-1.9l1.3-0.7l-0.5-1l-1.6,0.9c-0.5-0.3-1-0.4-1.6-0.4c-0.9,0-1.6,0.3-2.2,0.8S435.9-281.7,435.9-280.8z
		 M439.9-275.4c1.2,0,1.8,0.5,1.8,1.5c0,1.2-0.9,2-2.6,2c-1.7,0-2.7-0.7-2.7-1.9c0-0.7,0.3-1.3,0.8-1.6c0.3,0,0.6,0.1,0.9,0.1H439.9
		z M437.6-282.3c0.4-0.4,0.8-0.6,1.4-0.6c0.6,0,1,0.2,1.4,0.6c0.4,0.4,0.6,0.9,0.6,1.5s-0.2,1.1-0.6,1.5s-0.8,0.6-1.4,0.6
		c-0.6,0-1-0.2-1.4-0.6c-0.4-0.4-0.6-0.9-0.6-1.5S437.2-281.9,437.6-282.3z M452.1-279.7c0-1.2-0.4-2.3-1.1-3s-1.7-1.2-2.9-1.2
		c-1.2,0-2.2,0.5-2.9,1.3c-0.7,0.9-1.1,2-1.1,3.3c0,1.4,0.4,2.5,1.1,3.4c0.7,0.9,1.7,1.3,2.9,1.3c1.7,0,2.9-0.7,3.8-2.5l-1-0.5
		c-0.7,1.4-1.4,1.9-2.8,1.9c-1.8,0-2.9-1.5-2.9-3.6h6.8V-279.7z M448.1-282.8c1.6,0,2.6,1,2.8,2.6h-5.6
		C445.6-281.7,446.6-282.8,448.1-282.8z M457-283.9c-1.5,0-2.5,1-2.5,2.4c0,1.7,1.5,2.2,2.8,2.7c0.8,0.3,1.5,0.8,1.5,1.6
		c0,1-0.6,1.6-1.6,1.6c-1.2,0-1.8-0.7-2.3-2l-1,0.5c0.4,1.4,1.5,2.5,3.3,2.5c1.7,0,2.8-1.1,2.8-2.8c0-1.5-1.6-2.1-2.8-2.6
		c-0.8-0.3-1.5-0.8-1.5-1.5c0-0.8,0.5-1.4,1.3-1.4c0.7,0,1.3,0.3,1.8,1l0.8-0.7C458.9-283.4,458-283.9,457-283.9z M468.4-277.4
		c-0.5,1.2-1.4,1.9-2.6,1.9c-0.9,0-1.6-0.3-2.1-1c-0.5-0.7-0.7-1.6-0.7-2.6s0.2-1.9,0.7-2.6c0.5-0.7,1.2-1,2.1-1
		c1.3,0,2.1,0.6,2.6,1.9l1-0.4c-0.6-1.7-1.9-2.5-3.7-2.5c-1.3,0-2.3,0.5-3,1.4c-0.7,0.9-1.1,2-1.1,3.3c0,1.3,0.4,2.4,1.1,3.3
		c0.7,0.9,1.7,1.4,3,1.4c1.8,0,3-0.8,3.7-2.5L468.4-277.4z M478.8-280.9c0-1.9-1-3-2.8-3c-1.3,0-2.6,0.7-3.2,2.1v-5.7h-1.1v12.7h1.1
		v-3.9c0-1.3,0.3-2.3,0.9-3.1s1.3-1.2,2.2-1.2c1.2,0,1.9,0.8,1.9,2.1v6.1h1.1V-280.9z M488.8-280.9c0-1.9-1.1-3-2.8-3
		c-1.3,0-2.5,0.8-3.1,2v-1.9h-1.1v9.1h1.1v-4c0-1.3,0.3-2.3,0.8-3c0.6-0.8,1.3-1.2,2.1-1.2c1.2,0,1.9,0.7,1.9,2.1v6.1h1.1V-280.9z
		 M491.4-285.7c0.4,0.3,1,0.3,1.3,0c0.4-0.4,0.4-1,0-1.3c-0.3-0.4-1-0.4-1.3,0C491.1-286.6,491.1-286,491.4-285.7z M491.5-274.6h1.1
		v-9.1h-1.1V-274.6z M496.4-282.7v5.5c0,1.8,0.9,2.7,2.3,2.7c0.7,0,1.2-0.1,1.6-0.3l-0.3-1c-0.3,0.2-0.7,0.3-1.1,0.3
		c-0.8,0-1.3-0.5-1.3-1.5v-5.6h2.4v-1h-2.4v-3.7l-1.2,0.7v2.9h-1.6v1H496.4z M503-282.7v5.5c0,1.8,0.9,2.7,2.3,2.7
		c0.7,0,1.2-0.1,1.6-0.3l-0.3-1c-0.3,0.2-0.7,0.3-1.1,0.3c-0.8,0-1.3-0.5-1.3-1.5v-5.6h2.4v-1h-2.4v-3.7l-1.2,0.7v2.9h-1.6v1H503z
		 M516.3-279.7c0-1.2-0.4-2.3-1.1-3c-0.7-0.8-1.7-1.2-2.9-1.2c-1.2,0-2.2,0.5-2.9,1.3s-1.1,2-1.1,3.3c0,1.4,0.4,2.5,1.1,3.4
		c0.7,0.9,1.7,1.3,2.9,1.3c1.7,0,2.9-0.7,3.8-2.5l-1-0.5c-0.7,1.4-1.4,1.9-2.8,1.9c-1.8,0-2.9-1.5-2.9-3.6h6.8V-279.7z M512.3-282.8
		c1.6,0,2.6,1,2.8,2.6h-5.6C509.8-281.7,510.9-282.8,512.3-282.8z M525.8-280.9c0-1.9-1.1-3-2.8-3c-1.3,0-2.5,0.8-3.1,2v-1.9h-1.1
		v9.1h1.1v-4c0-1.3,0.3-2.3,0.8-3c0.6-0.8,1.3-1.2,2.1-1.2c1.2,0,1.9,0.7,1.9,2.1v6.1h1.1V-280.9z M536.1-283.9
		c-1.5,0-2.5,1-2.5,2.4c0,1.7,1.5,2.2,2.8,2.7c0.8,0.3,1.5,0.8,1.5,1.6c0,1-0.6,1.6-1.6,1.6c-1.2,0-1.8-0.7-2.3-2l-1,0.5
		c0.4,1.4,1.5,2.5,3.3,2.5c1.7,0,2.8-1.1,2.8-2.8c0-1.5-1.6-2.1-2.8-2.6c-0.8-0.3-1.5-0.8-1.5-1.5c0-0.8,0.5-1.4,1.3-1.4
		c0.7,0,1.3,0.3,1.8,1l0.8-0.7C537.9-283.4,537.1-283.9,536.1-283.9z M541.3-285.7c0.4,0.3,1,0.3,1.3,0c0.4-0.4,0.4-1,0-1.3
		c-0.3-0.4-1-0.4-1.3,0C540.9-286.6,540.9-286,541.3-285.7z M541.4-274.6h1.1v-9.1h-1.1V-274.6z M552.5-280.9c0-1.9-1.1-3-2.8-3
		c-1.3,0-2.5,0.8-3.1,2v-1.9h-1.1v9.1h1.1v-4c0-1.3,0.3-2.3,0.8-3c0.6-0.8,1.3-1.2,2.1-1.2c1.2,0,1.9,0.7,1.9,2.1v6.1h1.1V-280.9z
		 M561.8-282.4c-0.6-0.8-1.8-1.4-2.8-1.4c-1.3,0-2.3,0.5-3,1.3c-0.7,0.9-1.1,2-1.1,3.3c0,1.4,0.4,2.5,1.1,3.4c0.7,0.9,1.7,1.3,3,1.3
		c1.2,0,2.3-0.6,2.8-1.3v1.2h1.2v-12.7h-1.2V-282.4z M556.1-279.2c0-1.1,0.3-1.9,0.8-2.6c0.5-0.7,1.2-1,2.2-1c0.9,0,1.6,0.3,2.1,1
		c0.5,0.7,0.8,1.5,0.8,2.6c0,2.1-1,3.6-2.9,3.6C557.2-275.5,556.1-277,556.1-279.2z M566.5-275.5c0,0.6,0.4,0.9,0.9,0.9
		c0.8,0,1.2-1,0.6-1.6C567.5-276.8,566.5-276.3,566.5-275.5z M566.5-282.1c0,0.6,0.4,0.9,0.9,0.9c0.8,0,1.2-1,0.6-1.6
		C567.5-283.3,566.5-282.9,566.5-282.1z M231.1-252.2l-2.6,10.3l-2.7-8.9h-1.4l-2.7,8.9l-2.6-10.3h-1.7l3.4,12.6h1.7l2.6-8.7
		l2.6,8.7h1.7l3.4-12.6H231.1z M241.6-244.6c0-2.3-1.4-4.3-4.1-4.3c-2.8,0-4.1,2.3-4.1,4.7c0,2.4,1.4,4.7,4.1,4.7
		c1.9,0,3-0.8,3.9-2.5l-1.3-0.6c-0.5,1.1-1.2,1.7-2.5,1.7c-1.6,0-2.5-1.3-2.6-3h6.7V-244.6z M237.5-247.5c1.5,0,2.3,1,2.5,2.3h-5
		C235.3-246.5,236.1-247.5,237.5-247.5z M251.4-246c0-1.8-1-2.8-2.7-2.8c-1.3,0-2.3,0.6-3,1.8v-1.7h-1.5v9.1h1.5v-3.8
		c0-2.5,1.2-4,2.6-4c1,0,1.6,0.6,1.6,1.9v6h1.5V-246z M254.3-248.7v9.1h1.5v-9.1H254.3z M253.9-251.2c0,0.6,0.5,1.1,1.1,1.1
		s1.1-0.5,1.1-1.1c0-0.6-0.5-1.2-1.1-1.2S253.9-251.9,253.9-251.2z M258.9-245.8c0,0.8,0.3,1.5,0.7,2c-0.7,0.3-1.1,0.9-1.1,1.7
		c0,0.6,0.2,1.1,0.6,1.4c-0.5,0.4-0.8,1.1-0.8,1.9c0,1.9,1.5,3,3.9,3c2.1,0,3.8-0.9,3.8-3.1c0-1.7-1.2-2.5-2.8-2.5h-2.1
		c-0.7,0-1-0.3-1-0.8c0-0.4,0.2-0.7,0.6-0.9c0.5,0.2,1,0.3,1.6,0.3c1.8,0,3.2-1.1,3.2-3c0-0.6-0.2-1.2-0.5-1.6l1.2-0.7l-0.7-1.2
		l-1.6,0.9c-0.5-0.3-1-0.4-1.6-0.4C260.3-248.8,258.9-247.7,258.9-245.8z M262.8-240.2c0.9,0,1.5,0.3,1.5,1.4c0,0.9-0.7,1.7-2.3,1.7
		c-1.5,0-2.3-0.7-2.3-1.7c0-0.5,0.2-1,0.6-1.3c0.2,0,0.4,0,0.7,0H262.8z M260.4-245.8c0-1.1,0.8-1.7,1.7-1.7c0.9,0,1.7,0.6,1.7,1.7
		s-0.8,1.7-1.7,1.7C261.1-244.1,260.4-244.7,260.4-245.8z M275.7-244.6c0-2.3-1.4-4.3-4.1-4.3c-2.8,0-4.1,2.3-4.1,4.7
		c0,2.4,1.4,4.7,4.1,4.7c1.9,0,3-0.8,3.9-2.5l-1.3-0.6c-0.5,1.1-1.2,1.7-2.5,1.7c-1.6,0-2.5-1.3-2.6-3h6.7V-244.6z M271.6-247.5
		c1.5,0,2.3,1,2.5,2.3h-5C269.4-246.5,270.2-247.5,271.6-247.5z M283.4-248.6c-0.3-0.1-0.7-0.3-1.2-0.3c-1,0-2.1,0.7-2.7,1.7v-1.5
		H278v9.1h1.5v-3.4c0-3,1.3-4.4,2.5-4.4c0.4,0,0.7,0.1,1.1,0.3L283.4-248.6z M299-239.6l-5.5-6.9l5.1-5.7h-2l-4.7,5.1v-5.1h-1.6
		v12.6h1.6v-6.4l5.1,6.4H299z M300-244.2c0,2.5,1.6,4.7,4.4,4.7s4.4-2.2,4.4-4.7s-1.6-4.7-4.4-4.7S300-246.6,300-244.2z
		 M301.5-244.2c0-1.7,1-3.3,2.8-3.3s2.8,1.6,2.8,3.3c0,1.7-1,3.3-2.8,3.3S301.5-242.5,301.5-244.2z M313.8-248.9
		c-1.6,0-2.7,1.1-2.7,2.5c0,3,4.2,2.4,4.2,4.1c0,1-0.5,1.4-1.5,1.4c-1,0-1.7-0.8-2.1-1.8l-1.3,0.7c0.5,1.2,1.5,2.4,3.4,2.4
		c1.8,0,3-1.1,3-2.9c0-2.7-4.2-2.3-4.2-4c0-0.7,0.5-1.2,1.1-1.2c0.6,0,1.1,0.3,1.7,0.9l1-0.9C315.8-248.4,314.9-248.9,313.8-248.9z
		 M318.1-247.3h1.6v4.9c0,2.1,1.1,3,2.6,3c0.5,0,1-0.1,1.5-0.3l-0.4-1.3c-0.3,0.2-0.6,0.3-1,0.3c-0.8,0-1.2-0.5-1.2-1.5v-5h2.4v-1.4
		h-2.4v-3.7l-1.5,1v2.7h-1.6V-247.3z M333.5-244.6c0-2.3-1.4-4.3-4.1-4.3c-2.8,0-4.1,2.3-4.1,4.7c0,2.4,1.3,4.7,4.1,4.7
		c1.9,0,3-0.8,3.9-2.5l-1.3-0.6c-0.5,1.1-1.2,1.7-2.5,1.7c-1.6,0-2.5-1.3-2.6-3h6.7V-244.6z M329.4-247.5c1.5,0,2.3,1,2.5,2.3h-5
		C327.2-246.5,328-247.5,329.4-247.5z M343.2-246c0-1.8-1-2.8-2.7-2.8c-1.3,0-2.3,0.6-3,1.8v-1.7h-1.5v9.1h1.5v-3.8
		c0-2.5,1.2-4,2.6-4c1,0,1.6,0.6,1.6,1.9v6h1.5V-246z M350.9-244.7h7.5v-1.3h-7.5V-244.7z M371.8-250.4c-0.5-0.9-0.7-1.3-1.6-1.7
		c-0.4-0.2-0.9-0.3-1.5-0.3c-0.8,0-1.5,0.3-2.1,0.9c-0.6,0.6-0.8,1.3-0.8,2.2c0,2.2,2,3,3.5,3.7c1.1,0.5,1.9,1.3,1.9,2.4
		c0,1.6-0.9,2.5-2.4,2.5c-1.6,0-2.3-1.1-2.8-2.9l-1,0.6c0.4,2,1.8,3.4,3.9,3.4c1,0,1.9-0.3,2.6-1c0.7-0.7,1-1.6,1-2.7
		c0-1.5-0.9-2.6-1.9-3.1c-0.5-0.3-1.1-0.5-1.6-0.8c-1.1-0.5-1.9-1.2-1.9-2.4c0-1,0.6-1.8,1.7-1.8c0.9,0,1.6,0.5,2.1,1.4L371.8-250.4
		z M375-250.7c0.4,0.3,1,0.3,1.3,0c0.4-0.4,0.4-1,0-1.3c-0.3-0.4-1-0.4-1.3,0C374.6-251.6,374.6-251,375-250.7z M375.1-239.6h1.1
		v-9.1h-1.1V-239.6z M386.9-244.7c0-1.2-0.4-2.3-1.1-3c-0.7-0.8-1.7-1.2-2.9-1.2c-1.2,0-2.2,0.5-2.9,1.3c-0.7,0.9-1.1,2-1.1,3.3
		c0,1.4,0.4,2.5,1.1,3.4c0.7,0.9,1.7,1.3,2.9,1.3c1.7,0,2.9-0.7,3.8-2.5l-1-0.5c-0.7,1.4-1.4,1.9-2.8,1.9c-1.8,0-2.9-1.5-2.9-3.6
		h6.8V-244.7z M382.9-247.8c1.6,0,2.6,1,2.8,2.6h-5.6C380.4-246.7,381.4-247.8,382.9-247.8z M398-247.7l-4.6,7.5v0.5h6.3v-1h-4.8
		l4.6-7.4v-0.6h-5.9v1H398z M402.6-242.2c0-1.2,1-1.9,3-1.9h1.5v0.3c0,1.1-0.3,1.9-0.9,2.5c-0.6,0.5-1.2,0.8-1.9,0.8
		C403.2-240.5,402.6-241.1,402.6-242.2z M408.2-245.6c0-1-0.3-1.8-0.9-2.3c-0.6-0.6-1.4-0.9-2.3-0.9c-1.7,0-3,1-3.2,2.5l1.1,0.3
		c0.3-1.1,1.1-1.7,2.2-1.7c1.3,0,2.1,0.7,2.1,2.2v0.4h-1.5c-2.6,0-4.2,1-4.2,3c0,1.9,1.2,2.8,2.8,2.8c1.3,0,2.3-0.5,2.9-1.5l0.3,1.4
		h0.8V-245.6z M418.1-245.9c0-1.9-1-3-2.8-3c-1.3,0-2.6,0.7-3.2,2.1v-5.7H411v12.7h1.1v-3.9c0-1.3,0.3-2.3,0.9-3.1
		c0.6-0.8,1.3-1.2,2.2-1.2c1.2,0,1.9,0.8,1.9,2.1v6.1h1.1V-245.9z M421.2-239.6h1.1v-12.7h-1.1V-239.6z M432.7-244.7
		c0-1.2-0.4-2.3-1.1-3c-0.7-0.8-1.7-1.2-2.9-1.2c-1.2,0-2.2,0.5-2.9,1.3c-0.7,0.9-1.1,2-1.1,3.3c0,1.4,0.4,2.5,1.1,3.4
		c0.7,0.9,1.7,1.3,2.9,1.3c1.7,0,2.9-0.7,3.8-2.5l-1-0.5c-0.7,1.4-1.4,1.9-2.8,1.9c-1.8,0-2.9-1.5-2.9-3.6h6.8V-244.7z M428.7-247.8
		c1.6,0,2.6,1,2.8,2.6h-5.6C426.2-246.7,427.2-247.8,428.7-247.8z M442.2-245.9c0-1.9-1.1-3-2.8-3c-1.3,0-2.5,0.8-3.1,2v-1.9h-1.1
		v9.1h1.1v-4c0-1.3,0.3-2.3,0.8-3c0.6-0.8,1.3-1.2,2.1-1.2c1.2,0,1.9,0.7,1.9,2.1v6.1h1.1V-245.9z M457.1-245.9c0-1.9-1.1-3-2.8-3
		c-1.3,0-2.5,0.8-3.1,2v-1.9h-1.1v9.1h1.1v-4c0-1.3,0.3-2.3,0.8-3c0.6-0.8,1.3-1.2,2.1-1.2c1.2,0,1.9,0.7,1.9,2.1v6.1h1.1V-245.9z
		 M459.9-242.5c0,1.9,1.1,3,2.8,3c1.3,0,2.5-0.8,3.1-2v1.9h1.1v-9.1h-1.1v4c0,1.3-0.3,2.3-0.8,3s-1.2,1.2-2.1,1.2
		c-1.2,0-1.9-0.7-1.9-2.1v-6.1h-1.1V-242.5z M474.8-248.5c-0.5-0.2-1-0.3-1.4-0.3c-1.2,0-2.1,0.6-2.7,1.8v-1.6h-1.1v9.1h1.1v-3.5
		c0-3,1-4.7,2.5-4.7c0.5,0,0.9,0.1,1.3,0.3L474.8-248.5z M487.6-247.4c-0.6-0.8-1.8-1.4-2.8-1.4c-1.3,0-2.3,0.5-3,1.3
		c-0.7,0.9-1.1,2-1.1,3.3c0,1.4,0.4,2.5,1.1,3.4c0.7,0.9,1.7,1.3,3,1.3c1.2,0,2.3-0.6,2.8-1.3v1.2h1.2v-12.7h-1.2V-247.4z
		 M481.9-244.2c0-1.1,0.3-1.9,0.8-2.6c0.5-0.7,1.2-1,2.2-1c0.9,0,1.6,0.3,2.1,1c0.5,0.7,0.8,1.5,0.8,2.6c0,2.1-1,3.6-2.9,3.6
		C482.9-240.5,481.9-242,481.9-244.2z M492.4-242.2c0-1.2,1-1.9,3-1.9h1.5v0.3c0,1.1-0.3,1.9-0.9,2.5c-0.6,0.5-1.2,0.8-1.9,0.8
		C493.1-240.5,492.4-241.1,492.4-242.2z M498-245.6c0-1-0.3-1.8-0.9-2.3c-0.6-0.6-1.4-0.9-2.3-0.9c-1.7,0-3,1-3.2,2.5l1.1,0.3
		c0.3-1.1,1.1-1.7,2.2-1.7c1.3,0,2.1,0.7,2.1,2.2v0.4h-1.5c-2.6,0-4.2,1-4.2,3c0,1.9,1.2,2.8,2.8,2.8c1.3,0,2.3-0.5,2.9-1.5l0.3,1.4
		h0.8V-245.6z M503.3-248.9c-1.5,0-2.5,1-2.5,2.4c0,1.7,1.5,2.2,2.8,2.7c0.8,0.3,1.5,0.8,1.5,1.6c0,1-0.6,1.6-1.6,1.6
		c-1.2,0-1.8-0.7-2.3-2l-1,0.5c0.4,1.4,1.5,2.5,3.3,2.5c1.7,0,2.8-1.1,2.8-2.8c0-1.5-1.6-2.1-2.8-2.6c-0.8-0.3-1.5-0.8-1.5-1.5
		c0-0.8,0.5-1.4,1.3-1.4c0.7,0,1.3,0.3,1.8,1l0.8-0.7C505.1-248.4,504.3-248.9,503.3-248.9z M508.4-238.3l1.7-3h-1.7l-0.9,3H508.4z
		 M524.9-241.2l-1.9-7.5h-1.1l-1.9,7.5l-2.1-7.5h-1.2l2.7,9.1h1.2l1.9-7.4l1.9,7.4h1.2l2.7-9.1H527L524.9-241.2z M530.6-242.2
		c0-1.2,1-1.9,3-1.9h1.5v0.3c0,1.1-0.3,1.9-0.9,2.5c-0.6,0.5-1.2,0.8-1.9,0.8C531.3-240.5,530.6-241.1,530.6-242.2z M536.2-245.6
		c0-1-0.3-1.8-0.9-2.3c-0.6-0.6-1.4-0.9-2.3-0.9c-1.7,0-3,1-3.2,2.5l1.1,0.3c0.3-1.1,1.1-1.7,2.2-1.7c1.3,0,2.1,0.7,2.1,2.2v0.4
		h-1.5c-2.6,0-4.2,1-4.2,3c0,1.9,1.2,2.8,2.8,2.8c1.3,0,2.3-0.5,2.9-1.5l0.3,1.4h0.8V-245.6z M541.5-248.9c-1.5,0-2.5,1-2.5,2.4
		c0,1.7,1.5,2.2,2.8,2.7c0.8,0.3,1.5,0.8,1.5,1.6c0,1-0.6,1.6-1.6,1.6c-1.2,0-1.8-0.7-2.3-2l-1,0.5c0.4,1.4,1.5,2.5,3.3,2.5
		c1.7,0,2.8-1.1,2.8-2.8c0-1.5-1.6-2.1-2.8-2.6c-0.8-0.3-1.5-0.8-1.5-1.5c0-0.8,0.5-1.4,1.3-1.4c0.7,0,1.3,0.3,1.8,1l0.8-0.7
		C543.3-248.4,542.5-248.9,541.5-248.9z M224.5-223.4c-0.5-0.9-0.7-1.3-1.6-1.7c-0.4-0.2-0.9-0.3-1.5-0.3c-0.8,0-1.5,0.3-2.1,0.9
		c-0.6,0.6-0.8,1.3-0.8,2.2c0,2.2,2,3,3.5,3.7c1.1,0.5,1.9,1.3,1.9,2.4c0,1.6-0.9,2.5-2.4,2.5c-1.6,0-2.3-1.1-2.8-2.9l-1,0.6
		c0.4,2,1.8,3.4,3.9,3.4c1,0,1.9-0.3,2.6-1c0.7-0.7,1-1.6,1-2.7c0-1.5-0.9-2.6-1.9-3.1c-0.5-0.3-1.1-0.5-1.6-0.8
		c-1.1-0.5-1.9-1.2-1.9-2.4c0-1,0.6-1.8,1.7-1.8c0.9,0,1.6,0.5,2.1,1.4L224.5-223.4z M227.7-223.7c0.4,0.3,1,0.3,1.3,0
		c0.4-0.4,0.4-1,0-1.3c-0.3-0.4-1-0.4-1.3,0C227.4-224.6,227.4-224,227.7-223.7z M227.8-212.6h1.1v-9.1h-1.1V-212.6z M239.6-217.7
		c0-1.2-0.4-2.3-1.1-3c-0.7-0.8-1.7-1.2-2.9-1.2c-1.2,0-2.2,0.5-2.9,1.3c-0.7,0.9-1.1,2-1.1,3.3c0,1.4,0.4,2.5,1.1,3.4
		c0.7,0.9,1.7,1.3,2.9,1.3c1.7,0,2.9-0.7,3.8-2.5l-1-0.5c-0.7,1.4-1.4,1.9-2.8,1.9c-1.8,0-2.9-1.5-2.9-3.6h6.8V-217.7z M235.6-220.8
		c1.6,0,2.6,1,2.8,2.6h-5.6C233.1-219.7,234.2-220.8,235.6-220.8z M246.8-212.6h1.2v-1.2c0.5,0.7,1.7,1.3,2.8,1.3
		c1.3,0,2.3-0.4,3-1.3c0.7-0.9,1.1-2,1.1-3.4c0-1.3-0.4-2.5-1.1-3.3c-0.7-0.9-1.7-1.3-3-1.3c-1,0-2.2,0.6-2.8,1.4v-4.9h-1.2V-212.6z
		 M253.6-217.2c0,2.1-1.1,3.6-2.9,3.6s-2.9-1.5-2.9-3.6c0-1.1,0.3-1.9,0.8-2.6c0.5-0.7,1.2-1,2.2-1c0.9,0,1.6,0.3,2.2,1
		C253.4-219.1,253.6-218.2,253.6-217.2z M262.4-221.5c-0.5-0.2-1-0.3-1.4-0.3c-1.2,0-2.1,0.6-2.7,1.8v-1.6h-1.1v9.1h1.1v-3.5
		c0-3,1-4.7,2.5-4.7c0.5,0,0.9,0.1,1.3,0.3L262.4-221.5z M264.8-215.2c0-1.2,1-1.9,3-1.9h1.5v0.3c0,1.1-0.3,1.9-0.9,2.5
		c-0.6,0.5-1.2,0.8-1.9,0.8C265.4-213.5,264.8-214.1,264.8-215.2z M270.4-218.6c0-1-0.3-1.8-0.9-2.3c-0.6-0.6-1.4-0.9-2.3-0.9
		c-1.7,0-3,1-3.2,2.5l1.1,0.3c0.3-1.1,1.1-1.7,2.2-1.7c1.3,0,2.1,0.7,2.1,2.2v0.4h-1.5c-2.6,0-4.2,1-4.2,3c0,1.9,1.2,2.8,2.8,2.8
		c1.3,0,2.3-0.5,2.9-1.5l0.3,1.4h0.8V-218.6z M273.3-215.5c0,1.9,1.1,3,2.8,3c1.3,0,2.5-0.8,3.1-2v1.9h1.1v-9.1h-1.1v4
		c0,1.3-0.3,2.3-0.8,3c-0.6,0.8-1.2,1.2-2.1,1.2c-1.2,0-1.9-0.7-1.9-2.1v-6.1h-1.1V-215.5z M289.6-215.4c-0.5,1.2-1.4,1.9-2.6,1.9
		c-0.9,0-1.6-0.3-2.1-1c-0.5-0.7-0.7-1.6-0.7-2.6c0-1,0.2-1.9,0.7-2.6c0.5-0.7,1.2-1,2.1-1c1.3,0,2.1,0.6,2.6,1.9l1-0.4
		c-0.6-1.7-1.9-2.5-3.7-2.5c-1.3,0-2.3,0.5-3,1.4c-0.7,0.9-1.1,2-1.1,3.3c0,1.3,0.4,2.4,1.1,3.3c0.7,0.9,1.7,1.4,3,1.4
		c1.8,0,3-0.8,3.7-2.5L289.6-215.4z M300-218.9c0-1.9-1-3-2.8-3c-1.3,0-2.6,0.7-3.2,2.1v-5.7h-1.1v12.7h1.1v-3.9
		c0-1.3,0.3-2.3,0.9-3.1c0.6-0.8,1.3-1.2,2.2-1.2c1.2,0,1.9,0.8,1.9,2.1v6.1h1.1V-218.9z M310.6-217.7c0-1.2-0.4-2.3-1.1-3
		c-0.7-0.8-1.7-1.2-2.9-1.2c-1.2,0-2.2,0.5-2.9,1.3c-0.7,0.9-1.1,2-1.1,3.3c0,1.4,0.4,2.5,1.1,3.4c0.7,0.9,1.7,1.3,2.9,1.3
		c1.7,0,2.9-0.7,3.8-2.5l-1-0.5c-0.7,1.4-1.4,1.9-2.8,1.9c-1.8,0-2.9-1.5-2.9-3.6h6.8V-217.7z M306.6-220.8c1.6,0,2.6,1,2.8,2.6
		h-5.6C304.1-219.7,305.1-220.8,306.6-220.8z M320-218.9c0-1.9-1.1-3-2.8-3c-1.3,0-2.5,0.8-3.1,2v-1.9H313v9.1h1.1v-4
		c0-1.3,0.3-2.3,0.8-3c0.6-0.8,1.3-1.2,2.1-1.2c1.2,0,1.9,0.7,1.9,2.1v6.1h1.1V-218.9z M223.1-182c2.4,0,3.7-1.4,3.7-3.6
		s-1.4-3.6-3.7-3.6h-4.4v12.6h1.6v-5.4H223.1z M223.2-183.5h-2.9v-4.2h2.9c1.3,0,2,0.8,2,2.1S224.5-183.5,223.2-183.5z M236.4-181.6
		c0-2.3-1.4-4.3-4.1-4.3c-2.8,0-4.1,2.3-4.1,4.7c0,2.4,1.3,4.7,4.1,4.7c1.9,0,3-0.8,3.9-2.5l-1.3-0.6c-0.5,1.1-1.2,1.7-2.5,1.7
		c-1.6,0-2.5-1.3-2.6-3h6.7V-181.6z M232.3-184.5c1.5,0,2.3,1,2.5,2.3h-5C230.1-183.5,230.9-184.5,232.3-184.5z M244.1-185.6
		c-0.3-0.1-0.7-0.3-1.2-0.3c-1,0-2.1,0.7-2.7,1.7v-1.5h-1.5v9.1h1.5v-3.4c0-3,1.3-4.4,2.5-4.4c0.4,0,0.7,0.1,1.1,0.3L244.1-185.6z
		 M248.2-185.9c-1.6,0-2.7,1.1-2.7,2.5c0,3,4.2,2.4,4.2,4.1c0,1-0.5,1.4-1.5,1.4c-1,0-1.7-0.8-2.1-1.8l-1.3,0.7
		c0.5,1.2,1.5,2.4,3.4,2.4c1.8,0,3-1.1,3-2.9c0-2.7-4.2-2.3-4.2-4c0-0.7,0.5-1.2,1.1-1.2c0.6,0,1.1,0.3,1.7,0.9l1-0.9
		C250.2-185.4,249.3-185.9,248.2-185.9z M253.1-181.2c0,2.5,1.6,4.7,4.4,4.7s4.4-2.2,4.4-4.7s-1.6-4.7-4.4-4.7
		S253.1-183.6,253.1-181.2z M254.7-181.2c0-1.7,1-3.3,2.8-3.3s2.8,1.6,2.8,3.3c0,1.7-1,3.3-2.8,3.3S254.7-179.5,254.7-181.2z
		 M255-188.4c0,0.6,0.5,1,1,1c0.6,0,1-0.4,1-1c0-0.6-0.4-1-1-1C255.5-189.4,255-188.9,255-188.4z M258-188.4c0,0.6,0.5,1,1,1
		c0.6,0,1-0.4,1-1c0-0.6-0.4-1-1-1C258.4-189.4,258-188.9,258-188.4z M271.5-183c0-1.8-1-2.8-2.7-2.8c-1.3,0-2.3,0.6-3,1.8v-1.7
		h-1.5v9.1h1.5v-3.8c0-2.5,1.2-4,2.6-4c1,0,1.6,0.6,1.6,1.9v6h1.5V-183z M274.5-189.4v12.7h1.5v-12.7H274.5z M278.7-185.7v9.1h1.5
		v-9.1H278.7z M278.3-188.2c0,0.6,0.5,1.1,1.1,1.1s1.1-0.5,1.1-1.1c0-0.6-0.5-1.2-1.1-1.2S278.3-188.9,278.3-188.2z M289.2-179.5
		c-0.5,1.1-1.2,1.7-2.5,1.7c-1.8,0-2.6-1.5-2.6-3.3c0-1.8,0.8-3.3,2.6-3.3c1.2,0,2,0.6,2.5,1.7l1.3-0.5c-0.7-1.7-1.9-2.5-3.8-2.5
		c-2.8,0-4.1,2.3-4.1,4.7c0,2.4,1.3,4.7,4.1,4.7c1.9,0,3.1-0.8,3.8-2.5L289.2-179.5z M300.3-182.9c0-1.9-1-2.9-2.7-2.9
		c-1.4,0-2.6,0.7-3.1,1.8v-5.4h-1.5v12.7h1.5v-3.9c0-2.5,1.4-4,2.7-4c1,0,1.6,0.6,1.6,1.9v6h1.5V-182.9z M310.7-181.6
		c0-2.3-1.4-4.3-4.1-4.3c-2.8,0-4.1,2.3-4.1,4.7c0,2.4,1.4,4.7,4.1,4.7c1.9,0,3-0.8,3.9-2.5l-1.3-0.6c-0.5,1.1-1.2,1.7-2.5,1.7
		c-1.6,0-2.5-1.3-2.6-3h6.7V-181.6z M306.6-184.5c1.5,0,2.3,1,2.5,2.3h-5C304.4-183.5,305.2-184.5,306.6-184.5z M318.2-189.2v12.6
		h4.5c2.4,0,3.9-1.4,3.9-3.7c0-1.6-0.8-2.7-2-3.2c0.8-0.4,1.4-1.3,1.4-2.5c0-2.1-1.4-3.2-3.5-3.2H318.2z M319.8-182.6h2.7
		c1.7,0,2.5,0.7,2.5,2.2c0,1.5-0.8,2.2-2.5,2.2h-2.7V-182.6z M322.4-187.7c1.2,0,2,0.6,2,1.8s-0.8,1.8-2,1.8h-2.6v-3.6H322.4z
		 M336.8-181.6c0-2.3-1.4-4.3-4.1-4.3c-2.8,0-4.1,2.3-4.1,4.7c0,2.4,1.3,4.7,4.1,4.7c1.9,0,3-0.8,3.9-2.5l-1.3-0.6
		c-0.5,1.1-1.2,1.7-2.5,1.7c-1.6,0-2.5-1.3-2.6-3h6.7V-181.6z M332.7-184.5c1.5,0,2.3,1,2.5,2.3h-5
		C330.5-183.5,331.3-184.5,332.7-184.5z M344.5-185.6c-0.3-0.1-0.7-0.3-1.2-0.3c-1,0-2.1,0.7-2.7,1.7v-1.5h-1.5v9.1h1.5v-3.4
		c0-3,1.3-4.4,2.5-4.4c0.4,0,0.7,0.1,1.1,0.3L344.5-185.6z M347.2-179.2c0-1,0.9-1.6,2.4-1.6h1.6v0.2c0,2.1-1.4,2.8-2.5,2.8
		C347.7-177.9,347.2-178.4,347.2-179.2z M352.8-182.4c0-2.4-1.5-3.4-3.5-3.4c-1.7,0-3,1-3.2,2.5l1.3,0.3c0.2-0.9,1-1.4,1.9-1.4
		c1.1,0,2,0.5,2,1.9v0.4h-1.5c-2.5,0-4.1,1-4.1,3s1.3,2.8,2.8,2.8c1.3,0,2.3-0.6,2.8-1.4l0.3,1.3h1.2V-182.4z M354.6-184.3h1.6v4.9
		c0,2.1,1.1,3,2.6,3c0.5,0,1-0.1,1.5-0.3l-0.4-1.3c-0.3,0.2-0.6,0.3-1,0.3c-0.8,0-1.2-0.5-1.2-1.5v-5h2.4v-1.4h-2.4v-3.7l-1.5,1v2.7
		h-1.6V-184.3z M362.2-179.3c0,1.8,1,2.8,2.7,2.8c1.3,0,2.3-0.6,3-1.8v1.7h1.5v-9.1h-1.5v3.8c0,2.5-1.2,4-2.6,4
		c-1,0-1.6-0.6-1.6-1.9v-6h-1.5V-179.3z M379.6-183c0-1.8-1-2.8-2.7-2.8c-1.3,0-2.3,0.6-3,1.8v-1.7h-1.5v9.1h1.5v-3.8
		c0-2.5,1.2-4,2.6-4c1,0,1.6,0.6,1.6,1.9v6h1.5V-183z M382.6-182.8c0,0.8,0.3,1.5,0.7,2c-0.7,0.3-1.1,0.9-1.1,1.7
		c0,0.6,0.2,1.1,0.6,1.4c-0.5,0.4-0.8,1.1-0.8,1.9c0,1.9,1.5,3,3.9,3c2.1,0,3.8-0.9,3.8-3.1c0-1.7-1.2-2.5-2.8-2.5h-2.1
		c-0.7,0-1-0.3-1-0.8c0-0.4,0.2-0.7,0.6-0.9c0.5,0.2,1,0.3,1.6,0.3c1.8,0,3.2-1.1,3.2-3c0-0.6-0.2-1.2-0.5-1.6l1.2-0.7l-0.7-1.2
		l-1.6,0.9c-0.5-0.3-1-0.4-1.6-0.4C383.9-185.8,382.6-184.7,382.6-182.8z M386.5-177.2c0.9,0,1.5,0.3,1.5,1.4c0,0.9-0.7,1.7-2.3,1.7
		c-1.5,0-2.3-0.7-2.3-1.7c0-0.5,0.2-1,0.6-1.3c0.2,0,0.4,0,0.7,0H386.5z M384-182.8c0-1.1,0.8-1.7,1.7-1.7c0.9,0,1.7,0.6,1.7,1.7
		s-0.8,1.7-1.7,1.7C384.8-181.1,384-181.7,384-182.8z M396.2-181.7h7.5v-1.3h-7.5V-181.7z M419.2-183.9h-6.4v-5.3h-1.2v12.6h1.2
		v-6.1h6.4v6.1h1.2v-12.6h-1.2V-183.9z M424.2-177.9c0.8,0.9,1.8,1.4,3.1,1.4c1.3,0,2.3-0.5,3.1-1.4c0.8-0.9,1.2-2,1.2-3.3
		s-0.4-2.3-1.2-3.3c-0.8-0.9-1.8-1.4-3.1-1.4c-1.3,0-2.3,0.5-3.1,1.4c-0.8,0.9-1.2,2-1.2,3.3S423.4-178.8,424.2-177.9z M425-183.7
		c0.6-0.7,1.3-1.1,2.3-1.1c1,0,1.7,0.4,2.3,1.1c0.6,0.7,0.8,1.6,0.8,2.6c0,1-0.3,1.8-0.8,2.6c-0.5,0.7-1.3,1.1-2.3,1.1
		c-1,0-1.7-0.4-2.3-1.1c-0.5-0.7-0.8-1.6-0.8-2.6C424.2-182.2,424.5-183,425-183.7z M433.8-176.6h1.1v-12.7h-1.1V-176.6z
		 M445.3-181.7c0-1.2-0.4-2.3-1.1-3c-0.7-0.8-1.7-1.2-2.9-1.2c-1.2,0-2.2,0.5-2.9,1.3c-0.7,0.9-1.1,2-1.1,3.3c0,1.4,0.4,2.5,1.1,3.4
		c0.7,0.9,1.7,1.3,2.9,1.3c1.7,0,2.9-0.7,3.8-2.5l-1-0.5c-0.7,1.4-1.4,1.9-2.8,1.9c-1.8,0-2.9-1.5-2.9-3.6h6.8V-181.7z M441.3-184.8
		c1.6,0,2.6,1,2.8,2.6h-5.6C438.8-183.7,439.8-184.8,441.3-184.8z M454.7-182.9c0-1.9-1.1-3-2.8-3c-1.3,0-2.5,0.8-3.1,2v-1.9h-1.1
		v9.1h1.1v-4c0-1.3,0.3-2.3,0.8-3c0.6-0.8,1.3-1.2,2.1-1.2c1.2,0,1.9,0.7,1.9,2.1v6.1h1.1V-182.9z M468.4-187.4
		c-0.5-0.9-0.7-1.3-1.6-1.7c-0.4-0.2-0.9-0.3-1.5-0.3c-0.8,0-1.5,0.3-2.1,0.9c-0.6,0.6-0.8,1.3-0.8,2.2c0,2.2,2,3,3.5,3.7
		c1.1,0.5,1.9,1.3,1.9,2.4c0,1.6-0.9,2.5-2.4,2.5c-1.6,0-2.3-1.1-2.8-2.9l-1,0.6c0.4,2,1.8,3.4,3.9,3.4c1,0,1.9-0.3,2.6-1
		c0.7-0.7,1-1.6,1-2.7c0-1.5-0.9-2.6-1.9-3.1c-0.5-0.3-1.1-0.5-1.6-0.8c-1.1-0.5-1.9-1.2-1.9-2.4c0-1,0.6-1.8,1.7-1.8
		c0.9,0,1.6,0.5,2.1,1.4L468.4-187.4z M471.6-187.7c0.4,0.3,1,0.3,1.3,0c0.4-0.4,0.4-1,0-1.3c-0.3-0.4-1-0.4-1.3,0
		C471.3-188.6,471.3-188,471.6-187.7z M471.7-176.6h1.1v-9.1h-1.1V-176.6z M483.5-181.7c0-1.2-0.4-2.3-1.1-3
		c-0.7-0.8-1.7-1.2-2.9-1.2c-1.2,0-2.2,0.5-2.9,1.3c-0.7,0.9-1.1,2-1.1,3.3c0,1.4,0.4,2.5,1.1,3.4c0.7,0.9,1.7,1.3,2.9,1.3
		c1.7,0,2.9-0.7,3.8-2.5l-1-0.5c-0.7,1.4-1.4,1.9-2.8,1.9c-1.8,0-2.9-1.5-2.9-3.6h6.8V-181.7z M479.6-184.8c1.6,0,2.6,1,2.8,2.6
		h-5.6C477.1-183.7,478.1-184.8,479.6-184.8z M502.7-182.9c0-2-0.8-3-2.6-3c-1.2,0-2.3,0.8-3,2c-0.3-1.3-1.1-2-2.5-2
		c-1.3,0-2.3,0.8-2.9,2v-1.9h-1.1v9.1h1.1v-4c0-1.3,0.3-2.3,0.8-3c0.5-0.8,1.2-1.2,1.9-1.2c1.2,0,1.6,0.7,1.6,2.1v6.1h1.1v-4
		c0-1.3,0.3-2.3,0.8-3c0.5-0.8,1.2-1.2,1.9-1.2c1.2,0,1.6,0.7,1.6,2.1v6.1h1.1V-182.9z M513.2-181.7c0-1.2-0.4-2.3-1.1-3
		c-0.7-0.8-1.7-1.2-2.9-1.2c-1.2,0-2.2,0.5-2.9,1.3c-0.7,0.9-1.1,2-1.1,3.3c0,1.4,0.4,2.5,1.1,3.4c0.7,0.9,1.7,1.3,2.9,1.3
		c1.7,0,2.9-0.7,3.8-2.5l-1-0.5c-0.7,1.4-1.4,1.9-2.8,1.9c-1.8,0-2.9-1.5-2.9-3.6h6.8V-181.7z M509.2-184.8c1.6,0,2.6,1,2.8,2.6
		h-5.6C506.7-183.7,507.8-184.8,509.2-184.8z M522.9-182.9c0-1.9-1-3-2.8-3c-1.3,0-2.6,0.7-3.2,2.1v-5.7h-1.1v12.7h1.1v-3.9
		c0-1.3,0.3-2.3,0.9-3.1c0.6-0.8,1.3-1.2,2.2-1.2c1.2,0,1.9,0.8,1.9,2.1v6.1h1.1V-182.9z M531-185.5c-0.5-0.2-1-0.3-1.4-0.3
		c-1.2,0-2.1,0.6-2.7,1.8v-1.6h-1.1v9.1h1.1v-3.5c0-3,1-4.7,2.5-4.7c0.5,0,0.9,0.1,1.3,0.3L531-185.5z M538-179.2c0-1.2,1-1.9,3-1.9
		h1.5v0.3c0,1.1-0.3,1.9-0.9,2.5c-0.6,0.5-1.2,0.8-1.9,0.8C538.7-177.5,538-178.1,538-179.2z M543.7-182.6c0-1-0.3-1.8-0.9-2.3
		c-0.6-0.6-1.4-0.9-2.3-0.9c-1.7,0-3,1-3.2,2.5l1.1,0.3c0.3-1.1,1.1-1.7,2.2-1.7c1.3,0,2.1,0.7,2.1,2.2v0.4H541c-2.6,0-4.2,1-4.2,3
		c0,1.9,1.2,2.8,2.8,2.8c1.3,0,2.3-0.5,2.9-1.5l0.3,1.4h0.8V-182.6z M546.6-179.5c0,1.9,1.1,3,2.8,3c1.3,0,2.5-0.8,3.1-2v1.9h1.1
		v-9.1h-1.1v4c0,1.3-0.3,2.3-0.8,3s-1.2,1.2-2.1,1.2c-1.2,0-1.9-0.7-1.9-2.1v-6.1h-1.1V-179.5z M558.9-185.9c-1.5,0-2.5,1-2.5,2.4
		c0,1.7,1.5,2.2,2.8,2.7c0.8,0.3,1.5,0.8,1.5,1.6c0,1-0.6,1.6-1.6,1.6c-1.2,0-1.8-0.7-2.3-2l-1,0.5c0.4,1.4,1.5,2.5,3.3,2.5
		c1.7,0,2.8-1.1,2.8-2.8c0-1.5-1.6-2.1-2.8-2.6c-0.8-0.3-1.5-0.8-1.5-1.5c0-0.8,0.5-1.4,1.3-1.4c0.7,0,1.3,0.3,1.8,1l0.8-0.7
		C560.7-185.4,559.9-185.9,558.9-185.9z M218.8-162.2v12.6h1.2v-12.6H218.8z M230.1-155.9c0-1.9-1-3-2.8-3c-1.3,0-2.6,0.7-3.2,2.1
		v-5.7h-1.1v12.7h1.1v-3.9c0-1.3,0.3-2.3,0.9-3.1c0.6-0.8,1.3-1.2,2.2-1.2c1.2,0,1.9,0.8,1.9,2.1v6.1h1.1V-155.9z M238.2-158.5
		c-0.5-0.2-1-0.3-1.4-0.3c-1.2,0-2.1,0.6-2.7,1.8v-1.6h-1.1v9.1h1.1v-3.5c0-3,1-4.7,2.5-4.7c0.5,0,0.9,0.1,1.3,0.3L238.2-158.5z
		 M247.3-154.7c0-1.2-0.4-2.3-1.1-3c-0.7-0.8-1.7-1.2-2.9-1.2c-1.2,0-2.2,0.5-2.9,1.3c-0.7,0.9-1.1,2-1.1,3.3c0,1.4,0.4,2.5,1.1,3.4
		c0.7,0.9,1.7,1.3,2.9,1.3c1.7,0,2.9-0.7,3.8-2.5l-1-0.5c-0.7,1.4-1.4,1.9-2.8,1.9c-1.8,0-2.9-1.5-2.9-3.6h6.8V-154.7z M243.4-157.8
		c1.6,0,2.6,1,2.8,2.6h-5.6C240.9-156.7,241.9-157.8,243.4-157.8z M261.8-155.9c0-2-0.8-3-2.6-3c-1.2,0-2.3,0.8-3,2
		c-0.3-1.3-1.1-2-2.5-2c-1.3,0-2.3,0.8-2.9,2v-1.9h-1.1v9.1h1.1v-4c0-1.3,0.3-2.3,0.8-3c0.5-0.8,1.2-1.2,1.9-1.2
		c1.2,0,1.6,0.7,1.6,2.1v6.1h1.1v-4c0-1.3,0.3-2.3,0.8-3c0.5-0.8,1.2-1.2,1.9-1.2c1.2,0,1.6,0.7,1.6,2.1v6.1h1.1V-155.9z
		 M269.6-153.7c0,1.3,0.4,2.3,1.2,3.1c0.8,0.7,1.9,1.1,3.1,1.1s2.2-0.4,3.1-1.1c0.8-0.7,1.3-1.8,1.3-3.1v-8.6H277v8.7
		c0,1.7-1.1,3-3.1,3c-2,0-3.1-1.3-3.1-3v-8.7h-1.2V-153.7z M288.2-155.9c0-1.9-1.1-3-2.8-3c-1.3,0-2.5,0.8-3.1,2v-1.9h-1.1v9.1h1.1
		v-4c0-1.3,0.3-2.3,0.8-3c0.6-0.8,1.3-1.2,2.1-1.2c1.2,0,1.9,0.7,1.9,2.1v6.1h1.1V-155.9z M291.4-157.7v5.5c0,1.8,0.9,2.7,2.3,2.7
		c0.7,0,1.2-0.1,1.6-0.3l-0.3-1c-0.3,0.2-0.7,0.3-1.1,0.3c-0.8,0-1.3-0.5-1.3-1.5v-5.6h2.4v-1h-2.4v-3.7l-1.2,0.7v2.9h-1.6v1H291.4z
		 M304.8-154.7c0-1.2-0.4-2.3-1.1-3c-0.7-0.8-1.7-1.2-2.9-1.2c-1.2,0-2.2,0.5-2.9,1.3c-0.7,0.9-1.1,2-1.1,3.3c0,1.4,0.4,2.5,1.1,3.4
		c0.7,0.9,1.7,1.3,2.9,1.3c1.7,0,2.9-0.7,3.8-2.5l-1-0.5c-0.7,1.4-1.4,1.9-2.8,1.9c-1.8,0-2.9-1.5-2.9-3.6h6.8V-154.7z M300.8-157.8
		c1.6,0,2.6,1,2.8,2.6H298C298.3-156.7,299.3-157.8,300.8-157.8z M312.4-158.5c-0.5-0.2-1-0.3-1.4-0.3c-1.2,0-2.1,0.6-2.7,1.8v-1.6
		h-1.1v9.1h1.1v-3.5c0-3,1-4.7,2.5-4.7c0.4,0,0.9,0.1,1.3,0.3L312.4-158.5z M321.1-155.9c0-1.9-1.1-3-2.8-3c-1.3,0-2.5,0.8-3.1,2
		v-1.9H314v9.1h1.1v-4c0-1.3,0.3-2.3,0.8-3c0.6-0.8,1.3-1.2,2.1-1.2c1.2,0,1.9,0.7,1.9,2.1v6.1h1.1V-155.9z M331.6-154.7
		c0-1.2-0.4-2.3-1.1-3c-0.7-0.8-1.7-1.2-2.9-1.2c-1.2,0-2.2,0.5-2.9,1.3s-1.1,2-1.1,3.3c0,1.4,0.4,2.5,1.1,3.4
		c0.7,0.9,1.7,1.3,2.9,1.3c1.7,0,2.9-0.7,3.8-2.5l-1-0.5c-0.7,1.4-1.4,1.9-2.8,1.9c-1.8,0-2.9-1.5-2.9-3.6h6.8V-154.7z M327.6-157.8
		c1.6,0,2.6,1,2.8,2.6h-5.6C325.1-156.7,326.1-157.8,327.6-157.8z M341.2-155.9c0-1.9-1-3-2.8-3c-1.3,0-2.6,0.7-3.2,2.1v-5.7H334
		v12.7h1.1v-3.9c0-1.3,0.3-2.3,0.9-3.1c0.6-0.8,1.3-1.2,2.2-1.2c1.2,0,1.9,0.8,1.9,2.1v6.1h1.1V-155.9z M356-155.9c0-2-0.8-3-2.6-3
		c-1.2,0-2.3,0.8-3,2c-0.3-1.3-1.1-2-2.5-2c-1.3,0-2.3,0.8-2.9,2v-1.9H344v9.1h1.1v-4c0-1.3,0.3-2.3,0.8-3c0.5-0.8,1.2-1.2,1.9-1.2
		c1.2,0,1.6,0.7,1.6,2.1v6.1h1.1v-4c0-1.3,0.3-2.3,0.8-3c0.5-0.8,1.2-1.2,1.9-1.2c1.2,0,1.6,0.7,1.6,2.1v6.1h1.1V-155.9z
		 M366.5-154.7c0-1.2-0.4-2.3-1.1-3c-0.7-0.8-1.7-1.2-2.9-1.2c-1.2,0-2.2,0.5-2.9,1.3c-0.7,0.9-1.1,2-1.1,3.3c0,1.4,0.4,2.5,1.1,3.4
		c0.7,0.9,1.7,1.3,2.9,1.3c1.7,0,2.9-0.7,3.8-2.5l-1-0.5c-0.7,1.4-1.4,1.9-2.8,1.9c-1.8,0-2.9-1.5-2.9-3.6h6.8V-154.7z M362.5-157.8
		c1.6,0,2.6,1,2.8,2.6h-5.6C360-156.7,361-157.8,362.5-157.8z M376-155.9c0-1.9-1.1-3-2.8-3c-1.3,0-2.5,0.8-3.1,2v-1.9H369v9.1h1.1
		v-4c0-1.3,0.3-2.3,0.8-3c0.6-0.8,1.3-1.2,2.1-1.2c1.2,0,1.9,0.7,1.9,2.1v6.1h1.1V-155.9z M391-155.9c0-1.9-1-3-2.8-3
		c-1.3,0-2.6,0.7-3.2,2.1v-5.7h-1.1v12.7h1.1v-3.9c0-1.3,0.3-2.3,0.9-3.1c0.6-0.8,1.3-1.2,2.2-1.2c1.2,0,1.9,0.8,1.9,2.1v6.1h1.1
		V-155.9z M401.6-154.7c0-1.2-0.4-2.3-1.1-3c-0.7-0.8-1.7-1.2-2.9-1.2c-1.2,0-2.2,0.5-2.9,1.3c-0.7,0.9-1.1,2-1.1,3.3
		c0,1.4,0.4,2.5,1.1,3.4c0.7,0.9,1.7,1.3,2.9,1.3c1.7,0,2.9-0.7,3.8-2.5l-1-0.5c-0.7,1.4-1.4,1.9-2.8,1.9c-1.8,0-2.9-1.5-2.9-3.6
		h6.8V-154.7z M397.6-157.8c1.6,0,2.6,1,2.8,2.6h-5.6C395.1-156.7,396.1-157.8,397.6-157.8z M409.2-158.5c-0.5-0.2-1-0.3-1.4-0.3
		c-1.2,0-2.1,0.6-2.7,1.8v-1.6h-1.1v9.1h1.1v-3.5c0-3,1-4.7,2.5-4.7c0.5,0,0.9,0.1,1.3,0.3L409.2-158.5z M411.6-152.2
		c0-1.2,1-1.9,3-1.9h1.5v0.3c0,1.1-0.3,1.9-0.9,2.5c-0.6,0.5-1.2,0.8-1.9,0.8C412.3-150.5,411.6-151.1,411.6-152.2z M417.2-155.6
		c0-1-0.3-1.8-0.9-2.3c-0.6-0.6-1.4-0.9-2.3-0.9c-1.7,0-3,1-3.2,2.5l1.1,0.3c0.3-1.1,1.1-1.7,2.2-1.7c1.3,0,2.1,0.7,2.1,2.2v0.4
		h-1.5c-2.6,0-4.2,1-4.2,3c0,1.9,1.2,2.8,2.8,2.8c1.3,0,2.3-0.5,2.9-1.5l0.3,1.4h0.8V-155.6z M420.1-152.5c0,1.9,1.1,3,2.8,3
		c1.3,0,2.5-0.8,3.1-2v1.9h1.1v-9.1H426v4c0,1.3-0.3,2.3-0.8,3s-1.2,1.2-2.1,1.2c-1.2,0-1.9-0.7-1.9-2.1v-6.1h-1.1V-152.5z
		 M432.4-158.9c-1.5,0-2.5,1-2.5,2.4c0,1.7,1.5,2.2,2.8,2.7c0.8,0.3,1.5,0.8,1.5,1.6c0,1-0.6,1.6-1.6,1.6c-1.2,0-1.8-0.7-2.3-2
		l-1,0.5c0.4,1.4,1.5,2.5,3.3,2.5c1.7,0,2.8-1.1,2.8-2.8c0-1.5-1.6-2.1-2.8-2.6c-0.8-0.3-1.5-0.8-1.5-1.5c0-0.8,0.5-1.4,1.3-1.4
		c0.7,0,1.3,0.3,1.8,1l0.8-0.7C434.3-158.4,433.5-158.9,432.4-158.9z M224.4-118.5h2.7c-0.1,2-1.3,3.5-3.5,3.5
		c-2.3,0-4.1-1.7-4.1-4.9c0-3.3,1.7-4.9,4.1-4.9c1.7,0,2.8,1,3.4,2.8l1.5-0.5c-0.6-2.3-2.3-3.8-4.9-3.8c-2.9,0-5.7,2.1-5.7,6.4
		c0,4.4,2.8,6.4,5.6,6.4c1.7,0,3-0.8,3.5-1.9l0.2,1.7h1.3v-6.4h-4.2V-118.5z M236.6-122.6c-0.3-0.1-0.7-0.3-1.2-0.3
		c-1,0-2.1,0.7-2.7,1.7v-1.5h-1.5v9.1h1.5v-3.4c0-3,1.3-4.4,2.5-4.4c0.4,0,0.7,0.1,1.1,0.3L236.6-122.6z M237.6-118.2
		c0,2.5,1.6,4.7,4.4,4.7c2.7,0,4.4-2.2,4.4-4.7s-1.6-4.7-4.4-4.7C239.2-122.9,237.6-120.6,237.6-118.2z M239.2-118.2
		c0-1.7,1-3.3,2.8-3.3s2.8,1.6,2.8,3.3c0,1.7-1,3.3-2.8,3.3S239.2-116.5,239.2-118.2z M239.5-125.4c0,0.6,0.5,1,1,1c0.6,0,1-0.4,1-1
		c0-0.6-0.4-1-1-1C239.9-126.4,239.5-125.9,239.5-125.4z M242.4-125.4c0,0.6,0.5,1,1,1c0.6,0,1-0.4,1-1c0-0.6-0.4-1-1-1
		C242.9-126.4,242.4-125.9,242.4-125.4z M248-119.9h0.9v6.2h1.5v-9c0-1.5,0.7-2.3,1.9-2.3s1.9,0.7,1.9,1.9c0,1.1-0.5,1.9-1.8,1.9
		h-0.6v1.3h0.6c1.6,0,2.5,0.9,2.5,2.5c0,1.6-0.8,2.5-2.4,2.5c-0.5,0-0.9-0.1-1.3-0.1v1.4c0.3,0.1,0.6,0.1,1.3,0.1
		c2.2,0,3.9-1.2,3.9-4c0-1.9-1.3-3-2.5-3.2c0.9-0.3,1.6-1.1,1.6-2.5c0-1.8-1.1-3.2-3.3-3.2c-1.8,0-3.4,1.2-3.4,3.7v1.5H248V-119.9z
		 M266.4-118.6c0-2.3-1.4-4.3-4.1-4.3c-2.8,0-4.1,2.3-4.1,4.7c0,2.4,1.4,4.7,4.1,4.7c1.9,0,3-0.8,3.9-2.5l-1.3-0.6
		c-0.5,1.1-1.2,1.7-2.5,1.7c-1.6,0-2.5-1.3-2.6-3h6.7V-118.6z M262.3-121.5c1.5,0,2.3,1,2.5,2.3h-5
		C260.1-120.5,260.9-121.5,262.3-121.5z M274.2-122.6c-0.3-0.1-0.7-0.3-1.2-0.3c-1,0-2.1,0.7-2.7,1.7v-1.5h-1.5v9.1h1.5v-3.4
		c0-3,1.3-4.4,2.5-4.4c0.4,0,0.7,0.1,1.1,0.3L274.2-122.6z M283.3-118.6c0-2.3-1.4-4.3-4.1-4.3c-2.8,0-4.1,2.3-4.1,4.7
		c0,2.4,1.3,4.7,4.1,4.7c1.9,0,3-0.8,3.9-2.5l-1.3-0.6c-0.5,1.1-1.2,1.7-2.5,1.7c-1.6,0-2.5-1.3-2.6-3h6.7V-118.6z M279.2-121.5
		c1.5,0,2.3,1,2.5,2.3h-5C277-120.5,277.8-121.5,279.2-121.5z M291.1-122.6c-0.3-0.1-0.7-0.3-1.2-0.3c-1,0-2.1,0.7-2.7,1.7v-1.5
		h-1.5v9.1h1.5v-3.4c0-3,1.3-4.4,2.5-4.4c0.4,0,0.7,0.1,1.1,0.3L291.1-122.6z M305.2-113.6h1.9l-3.8-6c1.6-0.3,2.6-1.5,2.6-3.2
		c0-2.1-1.5-3.3-3.7-3.3H298v12.6h1.6v-5.9h1.9L305.2-113.6z M302.2-124.7c1.3,0,2,0.6,2,1.8c0,1.3-0.7,1.8-2,1.8h-2.6v-3.6H302.2z
		 M313.5-126.4c-3,0-5.7,2.3-5.7,6.4s2.6,6.4,5.7,6.4c3,0,5.7-2.3,5.7-6.4S316.5-126.4,313.5-126.4z M313.5-124.9c2.2,0,4,1.6,4,4.9
		c0,3.3-1.8,4.9-4,4.9s-4-1.6-4-4.9C309.5-123.2,311.3-124.9,313.5-124.9z M321.5-126.2v12.6h1.6v-12.6H321.5z M330.9-118.7h7.5
		v-1.3h-7.5V-118.7z M358.3-119.9c0-2-0.8-3-2.6-3c-1.2,0-2.3,0.8-3,2c-0.3-1.3-1.1-2-2.5-2c-1.3,0-2.3,0.8-2.9,2v-1.9h-1.1v9.1h1.1
		v-4c0-1.3,0.3-2.3,0.8-3c0.5-0.8,1.2-1.2,1.9-1.2c1.2,0,1.6,0.7,1.6,2.1v6.1h1.1v-4c0-1.3,0.3-2.3,0.8-3c0.5-0.8,1.2-1.2,1.9-1.2
		c1.2,0,1.6,0.7,1.6,2.1v6.1h1.1V-119.9z M368.8-118.7c0-1.2-0.4-2.3-1.1-3c-0.7-0.8-1.7-1.2-2.9-1.2c-1.2,0-2.2,0.5-2.9,1.3
		c-0.7,0.9-1.1,2-1.1,3.3c0,1.4,0.4,2.5,1.1,3.4c0.7,0.9,1.7,1.3,2.9,1.3c1.7,0,2.9-0.7,3.8-2.5l-1-0.5c-0.7,1.4-1.4,1.9-2.8,1.9
		c-1.8,0-2.9-1.5-2.9-3.6h6.8V-118.7z M364.8-121.8c1.6,0,2.6,1,2.8,2.6H362C362.3-120.7,363.4-121.8,364.8-121.8z M378.5-119.9
		c0-1.9-1-3-2.8-3c-1.3,0-2.6,0.7-3.2,2.1v-5.7h-1.1v12.7h1.1v-3.9c0-1.3,0.3-2.3,0.9-3.1c0.6-0.8,1.3-1.2,2.2-1.2
		c1.2,0,1.9,0.8,1.9,2.1v6.1h1.1V-119.9z M386.6-122.5c-0.5-0.2-1-0.3-1.4-0.3c-1.2,0-2.1,0.6-2.7,1.8v-1.6h-1.1v9.1h1.1v-3.5
		c0-3,1-4.7,2.5-4.7c0.5,0,0.9,0.1,1.3,0.3L386.6-122.5z M398.9-124.4c-0.5-0.9-0.7-1.3-1.6-1.7c-0.4-0.2-0.9-0.3-1.5-0.3
		c-0.8,0-1.5,0.3-2.1,0.9c-0.6,0.6-0.8,1.3-0.8,2.2c0,2.2,2,3,3.5,3.7c1.1,0.5,1.9,1.3,1.9,2.4c0,1.6-0.9,2.5-2.4,2.5
		c-1.6,0-2.3-1.1-2.8-2.9l-1,0.6c0.4,2,1.8,3.4,3.9,3.4c1,0,1.9-0.3,2.6-1c0.7-0.7,1-1.6,1-2.7c0-1.5-0.9-2.6-1.9-3.1
		c-0.5-0.3-1.1-0.5-1.6-0.8c-1.1-0.5-1.9-1.2-1.9-2.4c0-1,0.6-1.8,1.7-1.8c0.9,0,1.6,0.5,2.1,1.4L398.9-124.4z M402.7-116.2
		c0-1.2,1-1.9,3-1.9h1.5v0.3c0,1.1-0.3,1.9-0.9,2.5c-0.6,0.5-1.2,0.8-1.9,0.8C403.4-114.5,402.7-115.1,402.7-116.2z M408.3-119.6
		c0-1-0.3-1.8-0.9-2.3c-0.6-0.6-1.4-0.9-2.3-0.9c-1.7,0-3,1-3.2,2.5l1.1,0.3c0.3-1.1,1.1-1.7,2.2-1.7c1.3,0,2.1,0.7,2.1,2.2v0.4
		h-1.5c-2.6,0-4.2,1-4.2,3c0,1.9,1.2,2.8,2.8,2.8c1.3,0,2.3-0.5,2.9-1.5l0.3,1.4h0.8V-119.6z M411-113.6h1.1v-12.7H411V-113.6z
		 M422.4-118.7c0-1.2-0.4-2.3-1.1-3c-0.7-0.8-1.7-1.2-2.9-1.2c-1.2,0-2.2,0.5-2.9,1.3c-0.7,0.9-1.1,2-1.1,3.3c0,1.4,0.4,2.5,1.1,3.4
		c0.7,0.9,1.7,1.3,2.9,1.3c1.7,0,2.9-0.7,3.8-2.5l-1-0.5c-0.7,1.4-1.4,1.9-2.8,1.9c-1.8,0-2.9-1.5-2.9-3.6h6.8V-118.7z M418.5-121.8
		c1.6,0,2.6,1,2.8,2.6h-5.6C416-120.7,417-121.8,418.5-121.8z M427.4-122.9c-1.5,0-2.5,1-2.5,2.4c0,1.7,1.5,2.2,2.8,2.7
		c0.8,0.3,1.5,0.8,1.5,1.6c0,1-0.6,1.6-1.6,1.6c-1.2,0-1.8-0.7-2.3-2l-1,0.5c0.4,1.4,1.5,2.5,3.3,2.5c1.7,0,2.8-1.1,2.8-2.8
		c0-1.5-1.6-2.1-2.8-2.6c-0.8-0.3-1.5-0.8-1.5-1.5c0-0.8,0.5-1.4,1.3-1.4c0.7,0,1.3,0.3,1.8,1l0.8-0.7
		C429.2-122.4,428.4-122.9,427.4-122.9z M437.8-124.7c0.4,0.3,1,0.3,1.3,0c0.4-0.4,0.4-1,0-1.3c-0.3-0.4-1-0.4-1.3,0
		C437.4-125.6,437.4-125,437.8-124.7z M437.9-113.6h1.1v-9.1h-1.1V-113.6z M449-119.9c0-1.9-1.1-3-2.8-3c-1.3,0-2.5,0.8-3.1,2v-1.9
		H442v9.1h1.1v-4c0-1.3,0.3-2.3,0.8-3c0.6-0.8,1.3-1.2,2.1-1.2c1.2,0,1.9,0.7,1.9,2.1v6.1h1.1V-119.9z M456.9-113.6h1.1v-4.8
		l4.1,4.8h1.4l-4.2-4.9l3.9-4.2h-1.4l-3.8,4v-7.7h-1.1V-113.6z M465.1-116.5c0,1.9,1.1,3,2.8,3c1.3,0,2.5-0.8,3.1-2v1.9h1.1v-9.1
		H471v4c0,1.3-0.3,2.3-0.8,3c-0.6,0.8-1.2,1.2-2.1,1.2c-1.2,0-1.9-0.7-1.9-2.1v-6.1h-1.1V-116.5z M466.4-125.3
		c0,0.5,0.4,0.9,0.9,0.9c0.5,0,0.9-0.4,0.9-0.9c0-0.5-0.4-0.9-0.9-0.9C466.8-126.2,466.4-125.8,466.4-125.3z M469.2-125.3
		c0,0.5,0.4,0.9,0.9,0.9c0.5,0,0.9-0.4,0.9-0.9c0-0.5-0.4-0.9-0.9-0.9C469.6-126.2,469.2-125.8,469.2-125.3z M479.8-122.5
		c-0.5-0.2-1-0.3-1.4-0.3c-1.2,0-2.1,0.6-2.7,1.8v-1.6h-1.1v9.1h1.1v-3.5c0-3,1-4.7,2.5-4.7c0.5,0,0.9,0.1,1.3,0.3L479.8-122.5z
		 M485.8-121.7l-4.6,7.5v0.5h6.3v-1h-4.8l4.6-7.4v-0.6h-5.9v1H485.8z M497.2-118.7c0-1.2-0.4-2.3-1.1-3c-0.7-0.8-1.7-1.2-2.9-1.2
		c-1.2,0-2.2,0.5-2.9,1.3c-0.7,0.9-1.1,2-1.1,3.3c0,1.4,0.4,2.5,1.1,3.4c0.7,0.9,1.7,1.3,2.9,1.3c1.7,0,2.9-0.7,3.8-2.5l-1-0.5
		c-0.7,1.4-1.4,1.9-2.8,1.9c-1.8,0-2.9-1.5-2.9-3.6h6.8V-118.7z M493.3-121.8c1.6,0,2.6,1,2.8,2.6h-5.6
		C490.8-120.7,491.8-121.8,493.3-121.8z M504.9-122.5c-0.5-0.2-1-0.3-1.4-0.3c-1.2,0-2.1,0.6-2.7,1.8v-1.6h-1.1v9.1h1.1v-3.5
		c0-3,1-4.7,2.5-4.7c0.5,0,0.9,0.1,1.3,0.3L504.9-122.5z M514-118.7c0-1.2-0.4-2.3-1.1-3c-0.7-0.8-1.7-1.2-2.9-1.2
		c-1.2,0-2.2,0.5-2.9,1.3s-1.1,2-1.1,3.3c0,1.4,0.4,2.5,1.1,3.4c0.7,0.9,1.7,1.3,2.9,1.3c1.7,0,2.9-0.7,3.8-2.5l-1-0.5
		c-0.7,1.4-1.4,1.9-2.8,1.9c-1.8,0-2.9-1.5-2.9-3.6h6.8V-118.7z M510.1-121.8c1.6,0,2.6,1,2.8,2.6h-5.6
		C507.6-120.7,508.6-121.8,510.1-121.8z M521.7-122.5c-0.5-0.2-1-0.3-1.4-0.3c-1.2,0-2.1,0.6-2.7,1.8v-1.6h-1.1v9.1h1.1v-3.5
		c0-3,1-4.7,2.5-4.7c0.5,0,0.9,0.1,1.3,0.3L521.7-122.5z M533.7-125.1l-6.3,10.9v0.6h8v-1.1h-6.4l6.3-10.9v-0.6h-7.7v1.1H533.7z
		 M545.3-118.7c0-1.2-0.4-2.3-1.1-3c-0.7-0.8-1.7-1.2-2.9-1.2c-1.2,0-2.2,0.5-2.9,1.3c-0.7,0.9-1.1,2-1.1,3.3c0,1.4,0.4,2.5,1.1,3.4
		c0.7,0.9,1.7,1.3,2.9,1.3c1.7,0,2.9-0.7,3.8-2.5l-1-0.5c-0.7,1.4-1.4,1.9-2.8,1.9c-1.8,0-2.9-1.5-2.9-3.6h6.8V-118.7z M541.3-121.8
		c1.6,0,2.6,1,2.8,2.6h-5.6C538.8-120.7,539.9-121.8,541.3-121.8z M548-124.7c0.4,0.3,1,0.3,1.3,0c0.4-0.4,0.4-1,0-1.3
		c-0.3-0.4-1-0.4-1.3,0C547.7-125.6,547.7-125,548-124.7z M548.1-113.6h1.1v-9.1h-1.1V-113.6z M553-121.7v5.5c0,1.8,0.9,2.7,2.3,2.7
		c0.7,0,1.2-0.1,1.6-0.3l-0.3-1c-0.3,0.2-0.7,0.3-1.1,0.3c-0.8,0-1.3-0.5-1.3-1.5v-5.6h2.4v-1h-2.4v-3.7l-1.2,0.7v2.9h-1.6v1H553z
		 M224.8-95.4c-0.6-0.8-1.8-1.4-2.8-1.4c-1.3,0-2.3,0.5-3,1.3c-0.7,0.9-1.1,2-1.1,3.3c0,1.4,0.4,2.5,1.1,3.4c0.7,0.9,1.7,1.3,3,1.3
		c1.2,0,2.3-0.6,2.8-1.3v1.2h1.2v-12.7h-1.2V-95.4z M219.1-92.2c0-1.1,0.3-1.9,0.8-2.6s1.2-1,2.2-1s1.6,0.3,2.1,1
		c0.5,0.7,0.8,1.5,0.8,2.6c0,2.1-1,3.6-2.9,3.6S219.1-90,219.1-92.2z M228.7-90.5c0,1.9,1.1,3,2.8,3c1.3,0,2.5-0.8,3.1-2v1.9h1.1
		v-9.1h-1.1v4c0,1.3-0.3,2.3-0.8,3c-0.6,0.8-1.2,1.2-2.1,1.2c-1.2,0-1.9-0.7-1.9-2.1v-6.1h-1.1V-90.5z M243.7-96.5
		c-0.5-0.2-1-0.3-1.4-0.3c-1.2,0-2.1,0.6-2.7,1.8v-1.6h-1.1v9.1h1.1v-3.5c0-3,1-4.7,2.5-4.7c0.5,0,0.9,0.1,1.3,0.3L243.7-96.5z
		 M251.4-90.4c-0.5,1.2-1.4,1.9-2.6,1.9c-0.9,0-1.6-0.3-2.1-1c-0.5-0.7-0.7-1.6-0.7-2.6c0-1,0.2-1.9,0.7-2.6c0.5-0.7,1.2-1,2.1-1
		c1.3,0,2.1,0.6,2.6,1.9l1-0.4c-0.6-1.7-1.9-2.5-3.7-2.5c-1.3,0-2.3,0.5-3,1.4c-0.7,0.9-1.1,2-1.1,3.3c0,1.3,0.4,2.4,1.1,3.3
		c0.7,0.9,1.7,1.4,3,1.4c1.8,0,3-0.8,3.7-2.5L251.4-90.4z M261.9-93.9c0-1.9-1-3-2.8-3c-1.3,0-2.6,0.7-3.2,2.1v-5.7h-1.1v12.7h1.1
		v-3.9c0-1.3,0.3-2.3,0.9-3.1c0.6-0.8,1.3-1.2,2.2-1.2c1.2,0,1.9,0.8,1.9,2.1v6.1h1.1V-93.9z M269.9-98.7c0.4,0.3,1,0.3,1.3,0
		c0.4-0.4,0.4-1,0-1.3c-0.3-0.4-1-0.4-1.3,0C269.6-99.6,269.6-99,269.9-98.7z M270-87.6h1.1v-9.1H270V-87.6z M281.2-93.9
		c0-1.9-1.1-3-2.8-3c-1.3,0-2.5,0.8-3.1,2v-1.9h-1.1v9.1h1.1v-4c0-1.3,0.3-2.3,0.8-3c0.6-0.8,1.3-1.2,2.1-1.2c1.2,0,1.9,0.7,1.9,2.1
		v6.1h1.1V-93.9z M284.4-95.7v5.5c0,1.8,0.9,2.7,2.3,2.7c0.7,0,1.2-0.1,1.6-0.3l-0.3-1c-0.3,0.2-0.7,0.3-1.1,0.3
		c-0.8,0-1.3-0.5-1.3-1.5v-5.6h2.4v-1h-2.4v-3.7l-1.2,0.7v2.9h-1.6v1H284.4z M297.7-92.7c0-1.2-0.4-2.3-1.1-3
		c-0.7-0.8-1.7-1.2-2.9-1.2c-1.2,0-2.2,0.5-2.9,1.3c-0.7,0.9-1.1,2-1.1,3.3c0,1.4,0.4,2.5,1.1,3.4c0.7,0.9,1.7,1.3,2.9,1.3
		c1.7,0,2.9-0.7,3.8-2.5l-1-0.5c-0.7,1.4-1.4,1.9-2.8,1.9c-1.8,0-2.9-1.5-2.9-3.6h6.8V-92.7z M293.8-95.8c1.6,0,2.6,1,2.8,2.6H291
		C291.3-94.7,292.3-95.8,293.8-95.8z M300.4-87.6h1.1v-12.7h-1.1V-87.6z M304.1-87.6h1.1v-12.7h-1.1V-87.6z M307.8-98.7
		c0.4,0.3,1,0.3,1.3,0c0.4-0.4,0.4-1,0-1.3c-0.3-0.4-1-0.4-1.3,0C307.4-99.6,307.4-99,307.8-98.7z M307.9-87.6h1.1v-9.1h-1.1V-87.6z
		 M312-93.8c0,0.8,0.2,1.4,0.7,2c-0.7,0.3-1.1,0.9-1.1,1.6c0,0.7,0.2,1.2,0.7,1.5c-0.6,0.5-0.9,1.1-0.9,1.9c0,1.9,1.4,3,3.7,3
		c2.3,0,3.7-1,3.7-3.1c0-1.6-1.1-2.4-2.7-2.4h-2.3c-0.7,0-1.1-0.3-1.1-0.9c0-0.5,0.3-0.8,0.7-1c0.5,0.3,1,0.4,1.7,0.4
		c0.9,0,1.6-0.3,2.2-0.8c0.6-0.6,0.9-1.3,0.9-2.2c0-0.7-0.2-1.3-0.6-1.9l1.3-0.7l-0.5-1l-1.6,0.9c-0.5-0.3-1-0.4-1.6-0.4
		c-0.9,0-1.6,0.3-2.2,0.8C312.3-95.4,312-94.7,312-93.8z M316-88.4c1.2,0,1.8,0.5,1.8,1.5c0,1.2-0.9,2-2.6,2c-1.7,0-2.7-0.7-2.7-1.9
		c0-0.7,0.3-1.3,0.8-1.6c0.3,0,0.6,0.1,0.9,0.1H316z M313.7-95.3c0.4-0.4,0.8-0.6,1.4-0.6c0.6,0,1,0.2,1.4,0.6
		c0.4,0.4,0.6,0.9,0.6,1.5c0,0.6-0.2,1.1-0.6,1.5c-0.4,0.4-0.8,0.6-1.4,0.6c-0.6,0-1-0.2-1.4-0.6c-0.4-0.4-0.6-0.9-0.6-1.5
		C313.1-94.4,313.3-94.9,313.7-95.3z M328.2-92.7c0-1.2-0.4-2.3-1.1-3c-0.7-0.8-1.7-1.2-2.9-1.2c-1.2,0-2.2,0.5-2.9,1.3
		s-1.1,2-1.1,3.3c0,1.4,0.4,2.5,1.1,3.4c0.7,0.9,1.7,1.3,2.9,1.3c1.7,0,2.9-0.7,3.8-2.5l-1-0.5c-0.7,1.4-1.4,1.9-2.8,1.9
		c-1.8,0-2.9-1.5-2.9-3.6h6.8V-92.7z M324.2-95.8c1.6,0,2.6,1,2.8,2.6h-5.6C321.7-94.7,322.8-95.8,324.2-95.8z M337.7-93.9
		c0-1.9-1.1-3-2.8-3c-1.3,0-2.5,0.8-3.1,2v-1.9h-1.1v9.1h1.1v-4c0-1.3,0.3-2.3,0.8-3c0.6-0.8,1.3-1.2,2.1-1.2c1.2,0,1.9,0.7,1.9,2.1
		v6.1h1.1V-93.9z M341-95.7v5.5c0,1.8,0.9,2.7,2.3,2.7c0.7,0,1.2-0.1,1.6-0.3l-0.3-1c-0.3,0.2-0.7,0.3-1.1,0.3
		c-0.8,0-1.3-0.5-1.3-1.5v-5.6h2.4v-1h-2.4v-3.7l-1.2,0.7v2.9h-1.6v1H341z M354.3-92.7c0-1.2-0.4-2.3-1.1-3
		c-0.7-0.8-1.7-1.2-2.9-1.2c-1.2,0-2.2,0.5-2.9,1.3s-1.1,2-1.1,3.3c0,1.4,0.4,2.5,1.1,3.4c0.7,0.9,1.7,1.3,2.9,1.3
		c1.7,0,2.9-0.7,3.8-2.5l-1-0.5c-0.7,1.4-1.4,1.9-2.8,1.9c-1.8,0-2.9-1.5-2.9-3.6h6.8V-92.7z M350.3-95.8c1.6,0,2.6,1,2.8,2.6h-5.6
		C347.8-94.7,348.8-95.8,350.3-95.8z M367.2-98.4c-0.5-0.9-0.7-1.3-1.6-1.7c-0.4-0.2-0.9-0.3-1.5-0.3c-0.8,0-1.5,0.3-2.1,0.9
		c-0.6,0.6-0.8,1.3-0.8,2.2c0,2.2,2,3,3.5,3.7c1.1,0.5,1.9,1.3,1.9,2.4c0,1.6-0.9,2.5-2.4,2.5c-1.6,0-2.3-1.1-2.8-2.9l-1,0.6
		c0.4,2,1.8,3.4,3.9,3.4c1,0,1.9-0.3,2.6-1c0.7-0.7,1-1.6,1-2.7c0-1.5-0.9-2.6-1.9-3.1c-0.5-0.3-1.1-0.5-1.6-0.8
		c-1.1-0.5-1.9-1.2-1.9-2.4c0-1,0.6-1.8,1.7-1.8c0.9,0,1.6,0.5,2.1,1.4L367.2-98.4z M372.9-89.4l-2.7-7.3H369l3.3,9L371-84h1.1
		l4.5-12.7h-1.2L372.9-89.4z M380.9-96.9c-1.5,0-2.5,1-2.5,2.4c0,1.7,1.5,2.2,2.8,2.7c0.8,0.3,1.5,0.8,1.5,1.6c0,1-0.6,1.6-1.6,1.6
		c-1.2,0-1.8-0.7-2.3-2l-1,0.5c0.4,1.4,1.5,2.5,3.3,2.5c1.7,0,2.8-1.1,2.8-2.8c0-1.5-1.6-2.1-2.8-2.6c-0.8-0.3-1.5-0.8-1.5-1.5
		c0-0.8,0.5-1.4,1.3-1.4c0.7,0,1.3,0.3,1.8,1l0.8-0.7C382.7-96.4,381.9-96.9,380.9-96.9z M386.7-95.7v5.5c0,1.8,0.9,2.7,2.3,2.7
		c0.7,0,1.2-0.1,1.6-0.3l-0.3-1c-0.3,0.2-0.7,0.3-1.1,0.3c-0.8,0-1.3-0.5-1.3-1.5v-5.6h2.4v-1h-2.4v-3.7l-1.2,0.7v2.9h-1.6v1H386.7z
		 M400-92.7c0-1.2-0.4-2.3-1.1-3c-0.7-0.8-1.7-1.2-2.9-1.2c-1.2,0-2.2,0.5-2.9,1.3s-1.1,2-1.1,3.3c0,1.4,0.4,2.5,1.1,3.4
		c0.7,0.9,1.7,1.3,2.9,1.3c1.7,0,2.9-0.7,3.8-2.5l-1-0.5c-0.7,1.4-1.4,1.9-2.8,1.9c-1.8,0-2.9-1.5-2.9-3.6h6.8V-92.7z M396-95.8
		c1.6,0,2.6,1,2.8,2.6h-5.6C393.5-94.7,394.5-95.8,396-95.8z M414.5-93.9c0-2-0.8-3-2.6-3c-1.2,0-2.3,0.8-3,2c-0.3-1.3-1.1-2-2.5-2
		c-1.3,0-2.3,0.8-2.9,2v-1.9h-1.1v9.1h1.1v-4c0-1.3,0.3-2.3,0.8-3c0.5-0.8,1.2-1.2,1.9-1.2c1.2,0,1.6,0.7,1.6,2.1v6.1h1.1v-4
		c0-1.3,0.3-2.3,0.8-3c0.5-0.8,1.2-1.2,1.9-1.2c1.2,0,1.6,0.7,1.6,2.1v6.1h1.1V-93.9z M425-92.7c0-1.2-0.4-2.3-1.1-3
		c-0.7-0.8-1.7-1.2-2.9-1.2c-1.2,0-2.2,0.5-2.9,1.3c-0.7,0.9-1.1,2-1.1,3.3c0,1.4,0.4,2.5,1.1,3.4c0.7,0.9,1.7,1.3,2.9,1.3
		c1.7,0,2.9-0.7,3.8-2.5l-1-0.5c-0.7,1.4-1.4,1.9-2.8,1.9c-1.8,0-2.9-1.5-2.9-3.6h6.8V-92.7z M421-95.8c1.6,0,2.6,1,2.8,2.6h-5.6
		C418.5-94.7,419.5-95.8,421-95.8z"/>
	<path class="st13" d="M-7.9-263.7l55.8-49.5l12.7,7l40.7-48.7L122-346l38.4-53"/>
	<path class="st14" d="M182.6-247H1v-167.3"/>
	<path class="st15" d="M169.3-263.4l-2.7,2.9l14.5,13.5l-14.5,13.5l2.7,2.9L187-247L169.3-263.4z"/>
	<path class="st15" d="M17.4-401l-2.9,2.7L1-412.8l-13.5,14.5l-2.9-2.7L1-418.6L17.4-401z"/>
	<path class="st12" d="M36-169.2c-32.6,0-61.9-16.5-77.1-29.6l36.6-42.6l-0.1-0.1c0.3,0.3,30.2,24.9,55.6,12.8
		c6.4-3.1,18.3-25.4,23.4-44.4c4.1-15,19.5-23.8,34.5-19.7c15,4.1,23.8,19.5,19.7,34.5c-0.4,1.5-4.3,15.4-11.6,31.2
		c-11.5,24.8-25.6,41.4-41.9,49.1C62.1-171.8,48.8-169.2,36-169.2z"/>
	<path class="st16" d="M95.7-292.1l9.5-32.3c1-3.4-1-7.1-4.4-8.1c-3.4-1-7.1,1-8.1,4.4l-11.2,37.8l-13.7-4.1c-3.4-1-7.1,1-8.1,4.4
		c-1,3.4,0.9,7.1,4.4,8.1l13.8,4.1L74.7-267l49.9,15l12.9-44.2"/>
	<path class="st17" d="M95.7-292.1l9.5-32.3c1-3.4-1-7.1-4.4-8.1c-3.4-1-7.1,1-8.1,4.4l-11.2,37.8l-13.7-4.1c-3.4-1-7.1,1-8.1,4.4
		c-1,3.4,0.9,7.1,4.4,8.1l13.8,4.1L74.7-267l49.9,15l12.9-44.2"/>
	<path class="st16" d="M112.6-303.5l-4.5,15.3c-1,3.4,0.9,7.1,4.4,8.1c3.4,1,7.1-0.9,8.1-4.4l4.5-15.3l-4.5,15.3
		c-1,3.4,0.9,7.1,4.4,8.1c3.4,1,7.1-1,8.1-4.4l4.5-15.3l-37.5-11.1L95.6-292c-1,3.4,0.9,7.1,4.4,8.1c3.4,1,7.1-0.9,8.1-4.4"/>
	<path class="st17" d="M112.6-303.5l-4.5,15.3c-1,3.4,0.9,7.1,4.4,8.1c3.4,1,7.1-0.9,8.1-4.4l4.5-15.3l-4.5,15.3
		c-1,3.4,0.9,7.1,4.4,8.1c3.4,1,7.1-1,8.1-4.4l4.5-15.3l-37.5-11.1L95.6-292c-1,3.4,0.9,7.1,4.4,8.1c3.4,1,7.1-0.9,8.1-4.4"/>
	<path class="st16" d="M-20-121.7c8-17.2,33.2-68.9,32.9-79.8c-0.6-21.7-17.6-39.3-39.3-39.3s-29.7,9.8-39.3,39.3l-10.8,41"/>
	<path class="st17" d="M-20-121.7c8-17.2,33.2-68.9,32.9-79.8c-0.6-21.7-17.6-39.3-39.3-39.3s-29.7,9.8-39.3,39.3l-10.8,41"/>
	<path class="st18" d="M-49.8-259.3c5.6,0,10.1-4.5,10.1-10c0-5.5-4.5-10-10.1-10c-5.6,0-10.1,4.5-10.1,10
		C-59.9-263.8-55.4-259.3-49.8-259.3z"/>
	<path class="st18" d="M-14.9-232.3c19.5,0,35.3-15.8,35.3-35.2c0-19.4-15.8-35.2-35.3-35.2s-35.3,15.8-35.3,35.2
		C-50.1-248.1-34.3-232.3-14.9-232.3z"/>
	<path class="st12" d="M-16.7-271.6c1.4,0,2.6-1.2,2.5-2.6c0-1.4-1.2-2.6-2.6-2.5c-1.4,0-2.6,1.2-2.5,2.6
		C-19.3-272.7-18.1-271.6-16.7-271.6z"/>
	<path class="st12" d="M-1.4-271.6c1.4,0,2.6-1.2,2.5-2.6c0-1.4-1.2-2.6-2.6-2.5c-1.4,0-2.6,1.2-2.5,2.6
		C-4-272.7-2.8-271.6-1.4-271.6z"/>
	<path class="st16" d="M-1.7-264.8c0,3.1-2.9,5.5-6.5,5.5c-3.6,0-6.5-2.5-6.5-5.5"/>
	<path class="st17" d="M-1.7-264.8c0,3.1-2.9,5.5-6.5,5.5c-3.6,0-6.5-2.5-6.5-5.5"/>
	<path class="st16" d="M6.7-179.4c-3.9,1.2-7.7,2.9-10.9,5.4c-11.6,8.9-11.9,20.2-10.6,28.8c1.4,8.5,7.1,20.5,22.6,29.5
		c2-0.3,11.7-1.9,11.7-1.9l-1.1-6.5c0,0,12-1.1,14.4-1.5c1.6,2.4,4.8,5,4.8,5l10.9-1.8l-1.6-9.7c0,0,6.4-6.4,8.4-9.7
		c4.7-0.3,9-4.8,9-15.9c-0.3-1.6-1.1-2-2-1.8c-0.9,0.1-4.3-0.2-5.1-0.8c-0.8-0.7-3.8-7.2-8.2-11.9c1.1-5.8,5.3-9.6,5.3-9.6
		c-4.9-1.6-9.8-2.4-18.8,0.1c-2.5-0.1-6.7-0.4-10.7-0.3"/>
	<path class="st17" d="M6.7-179.4c-3.9,1.2-7.7,2.9-10.9,5.4c-11.6,8.9-11.9,20.2-10.6,28.8c1.4,8.5,7.1,20.5,22.6,29.5
		c2-0.3,11.7-1.9,11.7-1.9l-1.1-6.5c0,0,12-1.1,14.4-1.5c1.6,2.4,4.8,5,4.8,5l10.9-1.8l-1.6-9.7c0,0,6.4-6.4,8.4-9.7
		c4.7-0.3,9-4.8,9-15.9c-0.3-1.6-1.1-2-2-1.8c-0.9,0.1-4.3-0.2-5.1-0.8c-0.8-0.7-3.8-7.2-8.2-11.9c1.1-5.8,5.3-9.6,5.3-9.6
		c-4.9-1.6-9.8-2.4-18.8,0.1c-2.5-0.1-6.7-0.4-10.7-0.3"/>
	<path class="st17" d="M-15.1-148c-3.3,0.2-11.6,0.2-11,4.1c0.5,2.9,2.7,3.5,4.8,2.3c2-1.2,3.9-7.1-6-9.1"/>
	<path class="st17" d="M7.3-170.4c3.1-1.6,6.5-2.8,10.2-3.4c3.5-0.6,7-0.6,10.3,0"/>
	<path class="st12" d="M37.6-155.5c1.2,0,2.2-1,2.2-2.2s-1-2.2-2.2-2.2c-1.2,0-2.2,1-2.2,2.2S36.3-155.5,37.6-155.5z"/>
	<path class="st12" d="M47.1-160c1.2,0,2.2-1,2.2-2.2c0-1.2-1-2.2-2.2-2.2c-1.2,0-2.2,1-2.2,2.2C44.8-161,45.8-160,47.1-160z"/>
	<path class="st12" d="M-11.8-73.7l-1.1-0.1c-25.7-2.1-46.9-14.2-59.4-34.3c-13.1-21-15-47.6-5-73.2l16.6-42.9
		c5.6-14.5,21.9-21.6,36.4-16c14.5,5.6,21.6,21.9,16,36.4l-16.6,42.9c-3.4,8.7-3.3,17.3,0.3,23c2.9,4.6,8,7.3,15.4,8.1l37.1,0h0
		c15.5,0,28.1,12.6,28.1,28.1c0,15.5-12.6,28.1-28.1,28.1L-11.8-73.7z"/>
	<path class="st16" d="M60.3-128.1c0-3.6-2.9-6.5-6.5-6.5l-12,0.1c-3.6,0-6.6,3-6.6,6.6l-7.1,0.1l0.1,52.1L74.2-76
		c3.6,0,6.5-2.9,6.5-6.5s-2.9-6.5-6.5-6.5"/>
	<path class="st17" d="M60.3-128.1c0-3.6-2.9-6.5-6.5-6.5l-12,0.1c-3.6,0-6.6,3-6.6,6.6l-7.1,0.1l0.1,52.1L74.2-76
		c3.6,0,6.5-2.9,6.5-6.5s-2.9-6.5-6.5-6.5"/>
	<path class="st16" d="M62.6-89l11.6,0c3.6,0,6.5-2.9,6.5-6.5c0-3.6-2.9-6.5-6.5-6.5l-11.7,0l11.6,0c3.6,0,6.5-2.9,6.5-6.5
		c0-3.6-2.9-6.5-6.5-6.5l-11.7,0l11.6,0c3.6,0,6.5-2.9,6.5-6.5s-2.9-6.5-6.5-6.5l-21.6,0"/>
	<path class="st17" d="M62.6-89l11.6,0c3.6,0,6.5-2.9,6.5-6.5c0-3.6-2.9-6.5-6.5-6.5l-11.7,0l11.6,0c3.6,0,6.5-2.9,6.5-6.5
		c0-3.6-2.9-6.5-6.5-6.5l-11.7,0l11.6,0c3.6,0,6.5-2.9,6.5-6.5s-2.9-6.5-6.5-6.5l-21.6,0"/>
</g>
<g id="Ebene_4">
	<path class="st5" d="M95.3,345.6l-30.2-0.1c-33.6-0.2-60.6-27.5-60.5-61C4.8,251,32.1,224,65.6,224.1c0.1,0,0.2,0,0.3,0l1.7-0.2
		c8.4-1.3,15.5-7.3,16.3-20.9c2.7-45.3,47.3-56.5,56.8-56.4l15.5,0l-0.2,5.3c0,0-1.4,29.8-37.9,23.2"/>
</g>
</svg>
