<svg width="230" height="127" viewBox="0 0 230 127" fill="none" xmlns="http://www.w3.org/2000/svg">
<rect opacity="0.3" width="230" height="127" rx="10" fill="#C4C4C4"/>
<g opacity="0.5">
<path fill-rule="evenodd" clip-rule="evenodd" d="M117 40H113V61H92V65H113V86H117V65H138V61H117V40Z" fill="black"/>
<path fill-rule="evenodd" clip-rule="evenodd" d="M117 40H113V61H92V65H113V86H117V65H138V61H117V40Z" fill="black"/>
<path fill-rule="evenodd" clip-rule="evenodd" d="M117 40H113V61H92V65H113V86H117V65H138V61H117V40Z" fill="black"/>
<path fill-rule="evenodd" clip-rule="evenodd" d="M117 40H113V61H92V65H113V86H117V65H138V61H117V40Z" fill="black"/>
</g>
</svg>
