<?xml version="1.0" encoding="UTF-8" standalone="no"?>
<svg
   width="568"
   height="532"
   viewBox="0 0 568 532"
   fill="none"
   version="1.1"
   id="svg326"
   sodipodi:docname="private-cloud-illustration.svg"
   inkscape:version="1.1 (c68e22c387, 2021-05-23)"
   xmlns:inkscape="http://www.inkscape.org/namespaces/inkscape"
   xmlns:sodipodi="http://sodipodi.sourceforge.net/DTD/sodipodi-0.dtd"
   xmlns="http://www.w3.org/2000/svg"
   xmlns:svg="http://www.w3.org/2000/svg">
  <defs
     id="defs330" />
  <sodipodi:namedview
     id="namedview328"
     pagecolor="#ffffff"
     bordercolor="#666666"
     borderopacity="1.0"
     inkscape:pageshadow="2"
     inkscape:pageopacity="0.0"
     inkscape:pagecheckerboard="0"
     showgrid="false"
     inkscape:zoom="1.5639098"
     inkscape:cx="240.74279"
     inkscape:cy="194.70433"
     inkscape:window-width="1920"
     inkscape:window-height="1017"
     inkscape:window-x="-8"
     inkscape:window-y="-8"
     inkscape:window-maximized="1"
     inkscape:current-layer="svg326" />
  <path
     d="M388.305 139.487C373.563 142.553 376.128 154.718 379.254 160.418C381.025 163.54 386.223 170.598 392.846 173.844L359 196L393.41 223.585C399.574 211.87 435.423 230.286 445.723 210.995C449.263 204.365 439.056 199.05 434.63 197.646C412.842 190.469 427.976 176.283 424.857 161.026C422.51 149.548 406.732 135.654 388.305 139.487Z"
     fill="black"
     id="path2" />
  <path
     d="M482.636 211.322H383.482V395.552H482.636V211.322Z"
     fill="#86EC16"
     id="path4" />
  <path
     d="M413.688 308.527L423.209 299.004L441.103 310.005L469.01 266.164"
     stroke="black"
     stroke-width="2"
     stroke-miterlimit="10"
     stroke-linecap="round"
     stroke-linejoin="round"
     id="path6" />
  <path
     d="M293.357 139.403H191.905V425.928H293.357V139.403Z"
     fill="#86EC16"
     id="path8" />
  <path
     d="M256.421 358.115L258.883 159.436H226.543L229.006 358.115H256.421Z"
     fill="white"
     id="path10" />
  <path
     d="M255.928 387.506H229.498"
     stroke="white"
     stroke-width="2"
     stroke-miterlimit="10"
     stroke-linecap="round"
     stroke-linejoin="round"
     id="path12" />
  <path
     d="M256.092 378.311L256.257 367.31H229.17L229.334 378.311H256.092Z"
     fill="white"
     id="path14" />
  <path
     d="M212.097 168.302H273.33L243.452 118.058L212.097 168.302Z"
     fill="white"
     id="path16" />
  <path
     d="M282.358 88.9951H191.905V96.384H282.358V88.9951Z"
     fill="white"
     id="path18" />
  <path
     d="M293.357 71.5898H191.905V78.9787H293.357V71.5898Z"
     fill="white"
     id="path20" />
  <path
     d="M340.636 366.654C345.561 382.088 354.097 407.375 354.097 407.375C354.097 407.375 344.576 411.315 346.71 420.346H382.497C382.825 419.689 368.051 370.102 362.141 358.115C356.888 360.578 340.636 366.654 340.636 366.654Z"
     fill="black"
     stroke="white"
     stroke-width="2"
     stroke-miterlimit="10"
     stroke-linecap="round"
     stroke-linejoin="round"
     id="path22" />
  <path
     d="M407.286 346.949C421.896 354.01 454.072 367.146 454.072 367.146C454.072 367.146 452.102 378.147 463.593 382.58L475.577 351.218C475.413 350.562 435.029 335.127 418.941 324.29C416.807 329.709 407.286 346.949 407.286 346.949Z"
     fill="white"
     id="path24" />
  <path
     d="M414.18 354.174C417.956 346.457 424.687 334.47 428.627 326.917C391.526 306.557 371.334 265.015 365.096 223.309C353.276 220.189 341.621 216.741 330.294 212.472C329.965 213.293 329.637 214.114 329.473 215.099C318.966 267.478 321.265 321.991 336.86 373.057C345.232 371.415 360.335 367.31 368.543 365.34C358.365 332.172 347.038 299.661 348.68 265.015C360.007 301.795 381.184 336.441 414.18 354.174Z"
     fill="white"
     id="path26" />
  <path
     d="M413.852 353.025C403.018 347.114 393.168 339.069 384.303 329.217V282.913C395.466 302.453 410.077 317.395 427.642 327.246C426 330.366 424.03 334.143 421.896 338.083C418.941 343.338 415.986 348.756 413.852 353.025Z"
     fill="black"
     id="path28" />
  <path
     d="M385.124 285.868C395.959 304.094 409.912 318.051 426.493 327.574C425.015 330.53 423.045 333.978 421.075 337.755C418.449 342.681 415.658 347.771 413.524 352.04C403.182 346.293 393.66 338.411 385.124 329.052V285.868ZM383.482 279.793V329.545C392.347 339.397 402.525 347.935 414.345 354.174C418.121 346.457 424.851 334.471 428.791 326.918C408.928 316.081 393.989 299.332 383.482 279.793Z"
     fill="white"
     id="path30" />
  <path
     d="M352.292 399.492H376.423"
     stroke="white"
     stroke-width="2"
     stroke-miterlimit="10"
     stroke-linecap="round"
     stroke-linejoin="round"
     id="path32" />
  <path
     d="M455.549 342.845L448.654 364.19"
     stroke="black"
     stroke-width="2"
     stroke-miterlimit="10"
     stroke-linecap="round"
     stroke-linejoin="round"
     id="path34" />
  <path
     d="M354.097 407.538H359.514"
     stroke="white"
     stroke-width="2"
     stroke-miterlimit="10"
     stroke-linecap="round"
     stroke-linejoin="round"
     id="path36" />
  <path
     d="M454.072 367.145L456.042 363.697"
     stroke="black"
     stroke-width="2"
     stroke-miterlimit="10"
     stroke-linecap="round"
     stroke-linejoin="round"
     id="path38" />
  <path
     d="M344.083 242.684C344.576 249.087 348.023 261.895 348.023 261.895"
     stroke="black"
     stroke-width="2"
     stroke-miterlimit="10"
     stroke-linecap="round"
     stroke-linejoin="round"
     id="path40" />
  <path
     d="M285.313 123.476C271.524 121.013 266.599 124.462 262.002 127.91C259.704 129.716 255.928 135.463 255.6 139.568"
     fill="black"
     id="path42" />
  <path
     d="M285.313 123.476C271.524 121.013 266.599 124.462 262.002 127.91C259.704 129.716 255.928 135.463 255.6 139.568"
     stroke="white"
     stroke-width="2"
     stroke-miterlimit="10"
     stroke-linecap="round"
     stroke-linejoin="round"
     id="path44" />
  <path
     d="M256.093 138.254C259.868 134.477 262.659 132.179 262.659 132.179L256.093 138.254Z"
     fill="black"
     id="path46" />
  <path
     d="M256.093 138.254C259.868 134.477 262.659 132.179 262.659 132.179"
     stroke="white"
     stroke-width="2"
     stroke-miterlimit="10"
     stroke-linecap="round"
     stroke-linejoin="round"
     id="path48" />
  <path
     d="M267.091 138.254L274.479 130.865L284.164 133.492L281.538 144.001L267.912 141.538L267.091 138.254Z"
     fill="black"
     id="path50" />
  <path
     d="M265.942 136.284C264.465 142.031 260.032 142.359 261.51 145.972C262.987 149.748 270.046 140.389 276.448 142.031"
     fill="black"
     id="path52" />
  <path
     d="M265.942 136.284C264.465 142.031 260.032 142.359 261.51 145.972C262.987 149.748 270.046 140.389 276.448 142.031"
     stroke="white"
     stroke-width="2"
     stroke-miterlimit="10"
     stroke-linecap="round"
     stroke-linejoin="round"
     id="path54" />
  <path
     d="M408.927 256.312C414.673 260.746 414.509 265.343 417.135 267.97C419.762 270.598 420.09 265.179 420.09 262.552C420.09 259.925 425.672 269.612 428.134 268.135C430.597 266.657 425.179 260.089 425.179 260.089C425.179 260.089 430.104 267.314 432.238 265.179C434.372 263.044 428.134 256.148 428.134 256.148C428.134 256.148 432.731 262.88 434.701 261.402C436.671 259.925 430.268 249.909 418.613 239.893"
     fill="black"
     id="path56" />
  <path
     d="M408.927 256.312C414.673 260.746 414.509 265.343 417.135 267.97C419.762 270.598 420.09 265.179 420.09 262.552C420.09 259.925 425.672 269.612 428.134 268.135C430.597 266.657 425.179 260.089 425.179 260.089C425.179 260.089 430.104 267.314 432.238 265.179C434.372 263.044 428.134 256.148 428.134 256.148C428.134 256.148 432.731 262.88 434.701 261.402C436.671 259.925 430.268 249.909 418.613 239.893"
     stroke="white"
     stroke-width="2"
     stroke-miterlimit="10"
     stroke-linecap="round"
     stroke-linejoin="round"
     id="path58" />
  <path
     d="M408.927 256.312C398.093 249.58 377.408 232.832 367.23 222.488C367.066 224.294 366.41 227.906 365.917 231.354C362.47 229.876 325.369 215.591 325.369 215.591L331.607 199.992C330.951 196.544 332.592 192.111 336.86 186.857C323.071 167.974 298.118 148.106 274.643 142.031L285.478 123.641C312.893 130.701 335.875 154.346 351.963 176.348C352.456 177.005 352.948 177.662 353.441 178.318C356.56 182.423 360.336 186.692 364.275 190.962C381.677 209.68 405.152 228.891 418.613 240.221L408.927 256.312Z"
     fill="black"
     stroke="white"
     stroke-width="2"
     stroke-miterlimit="10"
     stroke-linecap="round"
     stroke-linejoin="round"
     id="path60" />
  <path
     d="M418.449 240.057L408.763 256.148C402.361 252.208 392.511 244.654 383.318 236.937V211.158H384.959C397.436 222.652 409.912 232.832 418.449 240.057Z"
     fill="white"
     id="path62" />
  <circle
     cx="370.357"
     cy="173.149"
     r="23"
     transform="rotate(38.6398 370.357 173.149)"
     fill="black"
     stroke="white"
     stroke-width="2"
     id="circle64" />
  <path
     d="M387.431 190.001C384.963 192.977 380.722 193.532 377.959 191.24C375.196 188.948 384.133 178.172 386.896 180.464C389.659 182.756 389.899 187.026 387.431 190.001Z"
     fill="black"
     id="path66" />
  <path
     d="M377.959 191.24C380.722 193.532 384.963 192.977 387.431 190.001C389.899 187.026 389.659 182.756 386.896 180.464"
     stroke="white"
     stroke-width="2"
     id="path68" />
  <path
     d="M381.682 187.841C382.635 188.631 384.097 188.44 384.947 187.414C385.798 186.388 385.716 184.916 384.763 184.126"
     stroke="white"
     stroke-width="2"
     id="path70" />
  <circle
     r="1"
     transform="matrix(-0.989726 0.142977 0.142977 0.989726 366.927 175.719)"
     fill="white"
     id="circle72" />
  <circle
     r="1"
     transform="matrix(-0.989726 0.142977 0.142977 0.989726 362.968 176.291)"
     fill="white"
     id="circle74" />
  <circle
     r="1"
     transform="matrix(-0.989726 0.142977 0.142977 0.989726 362.396 172.332)"
     fill="white"
     id="circle76" />
  <circle
     r="1"
     transform="matrix(-0.989726 0.142977 0.142977 0.989726 359.01 176.862)"
     fill="white"
     id="circle78" />
  <circle
     r="1"
     transform="matrix(-0.989726 0.142977 0.142977 0.989726 358.437 172.903)"
     fill="white"
     id="circle80" />
  <path
     d="M353.303 168.581C352.586 169.073 350.7 168.247 349.836 166.986C348.971 165.726 349.132 163.863 349.756 163.082"
     stroke="white"
     stroke-width="2"
     stroke-miterlimit="10"
     stroke-linecap="round"
     stroke-linejoin="round"
     id="path82" />
  <circle
     cx="363.891"
     cy="165.42"
     r="3"
     transform="rotate(38.6398 363.891 165.42)"
     fill="white"
     id="circle84" />
  <circle
     cx="357.875"
     cy="156.129"
     r="2.5"
     transform="rotate(38.6398 357.875 156.129)"
     fill="white"
     id="circle86" />
  <path
     d="M393.41 223.585C399.574 211.87 435.423 230.286 445.723 210.995C449.263 204.365 439.056 199.05 434.63 197.646C412.842 190.469 427.976 176.283 424.857 161.026C422.51 149.548 406.732 135.654 388.305 139.487C373.563 142.553 376.128 154.718 379.254 160.418C381.025 163.54 386.223 170.598 392.846 173.844"
     stroke="white"
     stroke-width="2"
     id="path88" />
  <path
     d="M192.069 223.309H91.9307V425.272H192.069V223.309Z"
     stroke="white"
     stroke-width="2"
     stroke-miterlimit="10"
     stroke-linecap="round"
     stroke-linejoin="round"
     id="path90" />
  <rect
     x="97.8555"
     y="229.234"
     width="88.289"
     height="190.111"
     stroke="white"
     stroke-width="2"
     id="rect92" />
  <ellipse
     cx="105.063"
     cy="249.58"
     rx="1.64162"
     ry="1.64198"
     fill="white"
     id="ellipse94" />
  <ellipse
     cx="109.988"
     cy="249.58"
     rx="1.64162"
     ry="1.64198"
     fill="white"
     id="ellipse96" />
  <ellipse
     cx="114.913"
     cy="249.58"
     rx="1.64162"
     ry="1.64198"
     fill="white"
     id="ellipse98" />
  <ellipse
     cx="119.838"
     cy="249.58"
     rx="1.64162"
     ry="1.64198"
     fill="white"
     id="ellipse100" />
  <ellipse
     cx="124.763"
     cy="249.58"
     rx="1.64162"
     ry="1.64198"
     fill="white"
     id="ellipse102" />
  <ellipse
     cx="129.688"
     cy="249.58"
     rx="1.64162"
     ry="1.64198"
     fill="white"
     id="ellipse104" />
  <ellipse
     cx="134.613"
     cy="249.58"
     rx="1.64162"
     ry="1.64198"
     fill="white"
     id="ellipse106" />
  <ellipse
     cx="139.538"
     cy="249.58"
     rx="1.64162"
     ry="1.64198"
     fill="white"
     id="ellipse108" />
  <ellipse
     cx="144.462"
     cy="249.58"
     rx="1.64162"
     ry="1.64198"
     fill="white"
     id="ellipse110" />
  <ellipse
     cx="149.387"
     cy="249.58"
     rx="1.64162"
     ry="1.64198"
     fill="white"
     id="ellipse112" />
  <ellipse
     cx="154.312"
     cy="249.58"
     rx="1.64162"
     ry="1.64198"
     fill="white"
     id="ellipse114" />
  <ellipse
     cx="159.237"
     cy="249.58"
     rx="1.64162"
     ry="1.64198"
     fill="white"
     id="ellipse116" />
  <ellipse
     cx="164.162"
     cy="249.58"
     rx="1.64162"
     ry="1.64198"
     fill="white"
     id="ellipse118" />
  <ellipse
     cx="169.086"
     cy="249.58"
     rx="1.64162"
     ry="1.64198"
     fill="white"
     id="ellipse120" />
  <ellipse
     cx="174.011"
     cy="249.58"
     rx="1.64162"
     ry="1.64198"
     fill="white"
     id="ellipse122" />
  <ellipse
     cx="178.937"
     cy="249.58"
     rx="1.64162"
     ry="1.64198"
     fill="white"
     id="ellipse124" />
  <ellipse
     cx="105.063"
     cy="254.506"
     rx="1.64162"
     ry="1.64198"
     fill="white"
     id="ellipse126" />
  <ellipse
     cx="109.988"
     cy="254.506"
     rx="1.64162"
     ry="1.64198"
     fill="white"
     id="ellipse128" />
  <ellipse
     cx="114.913"
     cy="254.506"
     rx="1.64162"
     ry="1.64198"
     fill="white"
     id="ellipse130" />
  <ellipse
     cx="119.838"
     cy="254.506"
     rx="1.64162"
     ry="1.64198"
     fill="white"
     id="ellipse132" />
  <ellipse
     cx="129.688"
     cy="254.506"
     rx="1.64162"
     ry="1.64198"
     fill="white"
     id="ellipse134" />
  <ellipse
     cx="124.763"
     cy="254.506"
     rx="1.64162"
     ry="1.64198"
     fill="white"
     id="ellipse136" />
  <ellipse
     cx="134.613"
     cy="254.506"
     rx="1.64162"
     ry="1.64198"
     fill="white"
     id="ellipse138" />
  <ellipse
     cx="139.538"
     cy="254.506"
     rx="1.64162"
     ry="1.64198"
     fill="white"
     id="ellipse140" />
  <ellipse
     cx="144.462"
     cy="254.506"
     rx="1.64162"
     ry="1.64198"
     fill="white"
     id="ellipse142" />
  <ellipse
     cx="149.387"
     cy="254.506"
     rx="1.64162"
     ry="1.64198"
     fill="white"
     id="ellipse144" />
  <ellipse
     cx="159.237"
     cy="254.506"
     rx="1.64162"
     ry="1.64198"
     fill="white"
     id="ellipse146" />
  <ellipse
     cx="154.312"
     cy="254.506"
     rx="1.64162"
     ry="1.64198"
     fill="white"
     id="ellipse148" />
  <ellipse
     cx="164.162"
     cy="254.506"
     rx="1.64162"
     ry="1.64198"
     fill="white"
     id="ellipse150" />
  <ellipse
     cx="169.086"
     cy="254.506"
     rx="1.64162"
     ry="1.64198"
     fill="white"
     id="ellipse152" />
  <ellipse
     cx="174.011"
     cy="254.506"
     rx="1.64162"
     ry="1.64198"
     fill="white"
     id="ellipse154" />
  <ellipse
     cx="178.937"
     cy="254.506"
     rx="1.64162"
     ry="1.64198"
     fill="white"
     id="ellipse156" />
  <ellipse
     cx="105.063"
     cy="259.432"
     rx="1.64162"
     ry="1.64197"
     fill="white"
     id="ellipse158" />
  <ellipse
     cx="109.988"
     cy="259.432"
     rx="1.64162"
     ry="1.64197"
     fill="white"
     id="ellipse160" />
  <ellipse
     cx="114.913"
     cy="259.432"
     rx="1.64162"
     ry="1.64197"
     fill="white"
     id="ellipse162" />
  <ellipse
     cx="129.688"
     cy="259.432"
     rx="1.64162"
     ry="1.64197"
     fill="white"
     id="ellipse164" />
  <ellipse
     cx="119.838"
     cy="259.432"
     rx="1.64162"
     ry="1.64197"
     fill="white"
     id="ellipse166" />
  <ellipse
     cx="124.763"
     cy="259.432"
     rx="1.64162"
     ry="1.64197"
     fill="white"
     id="ellipse168" />
  <ellipse
     cx="134.613"
     cy="259.432"
     rx="1.64162"
     ry="1.64197"
     fill="white"
     id="ellipse170" />
  <ellipse
     cx="139.538"
     cy="259.432"
     rx="1.64162"
     ry="1.64197"
     fill="white"
     id="ellipse172" />
  <ellipse
     cx="144.462"
     cy="259.432"
     rx="1.64162"
     ry="1.64197"
     fill="white"
     id="ellipse174" />
  <ellipse
     cx="159.237"
     cy="259.432"
     rx="1.64162"
     ry="1.64197"
     fill="white"
     id="ellipse176" />
  <ellipse
     cx="149.387"
     cy="259.432"
     rx="1.64162"
     ry="1.64197"
     fill="white"
     id="ellipse178" />
  <ellipse
     cx="154.312"
     cy="259.432"
     rx="1.64162"
     ry="1.64197"
     fill="white"
     id="ellipse180" />
  <ellipse
     cx="164.162"
     cy="259.432"
     rx="1.64162"
     ry="1.64197"
     fill="white"
     id="ellipse182" />
  <ellipse
     cx="169.086"
     cy="259.432"
     rx="1.64162"
     ry="1.64197"
     fill="white"
     id="ellipse184" />
  <ellipse
     cx="174.011"
     cy="259.432"
     rx="1.64162"
     ry="1.64197"
     fill="white"
     id="ellipse186" />
  <ellipse
     cx="178.937"
     cy="259.432"
     rx="1.64162"
     ry="1.64197"
     fill="white"
     id="ellipse188" />
  <ellipse
     cx="105.063"
     cy="264.358"
     rx="1.64162"
     ry="1.64197"
     fill="white"
     id="ellipse190" />
  <ellipse
     cx="109.988"
     cy="264.358"
     rx="1.64162"
     ry="1.64197"
     fill="white"
     id="ellipse192" />
  <ellipse
     cx="129.688"
     cy="264.358"
     rx="1.64162"
     ry="1.64197"
     fill="white"
     id="ellipse194" />
  <ellipse
     cx="114.913"
     cy="264.358"
     rx="1.64162"
     ry="1.64197"
     fill="white"
     id="ellipse196" />
  <ellipse
     cx="119.838"
     cy="264.358"
     rx="1.64162"
     ry="1.64197"
     fill="white"
     id="ellipse198" />
  <ellipse
     cx="124.763"
     cy="264.358"
     rx="1.64162"
     ry="1.64197"
     fill="white"
     id="ellipse200" />
  <ellipse
     cx="134.613"
     cy="264.358"
     rx="1.64162"
     ry="1.64197"
     fill="white"
     id="ellipse202" />
  <ellipse
     cx="139.538"
     cy="264.358"
     rx="1.64162"
     ry="1.64197"
     fill="white"
     id="ellipse204" />
  <ellipse
     cx="159.237"
     cy="264.358"
     rx="1.64162"
     ry="1.64197"
     fill="white"
     id="ellipse206" />
  <ellipse
     cx="144.462"
     cy="264.358"
     rx="1.64162"
     ry="1.64197"
     fill="white"
     id="ellipse208" />
  <ellipse
     cx="149.387"
     cy="264.358"
     rx="1.64162"
     ry="1.64197"
     fill="white"
     id="ellipse210" />
  <ellipse
     cx="154.312"
     cy="264.358"
     rx="1.64162"
     ry="1.64197"
     fill="white"
     id="ellipse212" />
  <ellipse
     cx="164.162"
     cy="264.358"
     rx="1.64162"
     ry="1.64197"
     fill="white"
     id="ellipse214" />
  <ellipse
     cx="169.086"
     cy="264.358"
     rx="1.64162"
     ry="1.64197"
     fill="white"
     id="ellipse216" />
  <ellipse
     cx="174.011"
     cy="264.358"
     rx="1.64162"
     ry="1.64197"
     fill="white"
     id="ellipse218" />
  <ellipse
     cx="178.937"
     cy="264.358"
     rx="1.64162"
     ry="1.64197"
     fill="white"
     id="ellipse220" />
  <path
     fill-rule="evenodd"
     clip-rule="evenodd"
     d="M103.422 270.926H180.578V290.629H103.422V270.926ZM108.347 274.21H111.63V287.346H108.347V274.21ZM116.555 274.21H113.272V287.346H116.555V274.21ZM118.196 274.21H121.48V287.346H118.196V274.21ZM126.405 274.21H123.121V287.346H126.405V274.21ZM128.046 274.21H131.329V287.346H128.046V274.21ZM136.254 274.21H132.971V287.346H136.254V274.21ZM137.896 274.21H141.179V287.346H137.896V274.21ZM146.104 274.21H142.821V287.346H146.104V274.21ZM147.746 274.21H151.029V287.346H147.746V274.21ZM155.954 274.21H152.67V287.346H155.954V274.21ZM157.595 274.21H160.879V287.346H157.595V274.21ZM165.803 274.21H162.52V287.346H165.803V274.21ZM167.445 274.21H170.728V287.346H167.445V274.21ZM175.653 274.21H172.37V287.346H175.653V274.21Z"
     fill="white"
     id="path222" />
  <path
     fill-rule="evenodd"
     clip-rule="evenodd"
     d="M103.422 270.926H180.578V290.629H103.422V270.926ZM108.347 274.21H111.63V287.346H108.347V274.21ZM116.555 274.21H113.272V287.346H116.555V274.21ZM118.196 274.21H121.48V287.346H118.196V274.21ZM126.405 274.21H123.121V287.346H126.405V274.21ZM128.046 274.21H131.329V287.346H128.046V274.21ZM136.254 274.21H132.971V287.346H136.254V274.21ZM137.896 274.21H141.179V287.346H137.896V274.21ZM146.104 274.21H142.821V287.346H146.104V274.21ZM147.746 274.21H151.029V287.346H147.746V274.21ZM155.954 274.21H152.67V287.346H155.954V274.21ZM157.595 274.21H160.879V287.346H157.595V274.21ZM165.803 274.21H162.52V287.346H165.803V274.21ZM167.445 274.21H170.728V287.346H167.445V274.21ZM175.653 274.21H172.37V287.346H175.653V274.21Z"
     fill="white"
     id="path224" />
  <path
     fill-rule="evenodd"
     clip-rule="evenodd"
     d="M103.422 270.926H180.578V290.629H103.422V270.926ZM108.347 274.21H111.63V287.346H108.347V274.21ZM116.555 274.21H113.272V287.346H116.555V274.21ZM118.196 274.21H121.48V287.346H118.196V274.21ZM126.405 274.21H123.121V287.346H126.405V274.21ZM128.046 274.21H131.329V287.346H128.046V274.21ZM136.254 274.21H132.971V287.346H136.254V274.21ZM137.896 274.21H141.179V287.346H137.896V274.21ZM146.104 274.21H142.821V287.346H146.104V274.21ZM147.746 274.21H151.029V287.346H147.746V274.21ZM155.954 274.21H152.67V287.346H155.954V274.21ZM157.595 274.21H160.879V287.346H157.595V274.21ZM165.803 274.21H162.52V287.346H165.803V274.21ZM167.445 274.21H170.728V287.346H167.445V274.21ZM175.653 274.21H172.37V287.346H175.653V274.21Z"
     fill="white"
     id="path226" />
  <path
     fill-rule="evenodd"
     clip-rule="evenodd"
     d="M103.422 270.926H180.578V290.629H103.422V270.926ZM108.347 274.21H111.63V287.346H108.347V274.21ZM116.555 274.21H113.272V287.346H116.555V274.21ZM118.196 274.21H121.48V287.346H118.196V274.21ZM126.405 274.21H123.121V287.346H126.405V274.21ZM128.046 274.21H131.329V287.346H128.046V274.21ZM136.254 274.21H132.971V287.346H136.254V274.21ZM137.896 274.21H141.179V287.346H137.896V274.21ZM146.104 274.21H142.821V287.346H146.104V274.21ZM147.746 274.21H151.029V287.346H147.746V274.21ZM155.954 274.21H152.67V287.346H155.954V274.21ZM157.595 274.21H160.879V287.346H157.595V274.21ZM165.803 274.21H162.52V287.346H165.803V274.21ZM167.445 274.21H170.728V287.346H167.445V274.21ZM175.653 274.21H172.37V287.346H175.653V274.21Z"
     fill="white"
     id="path228" />
  <path
     fill-rule="evenodd"
     clip-rule="evenodd"
     d="M103.422 293.913H180.578V313.617H103.422V293.913ZM108.347 297.197H111.63V310.333H108.347V297.197ZM116.555 297.197H113.272V310.333H116.555V297.197ZM118.196 297.197H121.48V310.333H118.196V297.197ZM126.405 297.197H123.121V310.333H126.405V297.197ZM128.046 297.197H131.329V310.333H128.046V297.197ZM136.254 297.197H132.971V310.333H136.254V297.197ZM137.896 297.197H141.179V310.333H137.896V297.197ZM146.104 297.197H142.821V310.333H146.104V297.197ZM147.746 297.197H151.029V310.333H147.746V297.197ZM155.954 297.197H152.67V310.333H155.954V297.197ZM157.595 297.197H160.879V310.333H157.595V297.197ZM165.803 297.197H162.52V310.333H165.803V297.197ZM167.445 297.197H170.728V310.333H167.445V297.197ZM175.653 297.197H172.37V310.333H175.653V297.197Z"
     fill="white"
     id="path230" />
  <path
     fill-rule="evenodd"
     clip-rule="evenodd"
     d="M103.422 293.913H180.578V313.617H103.422V293.913ZM108.347 297.197H111.63V310.333H108.347V297.197ZM116.555 297.197H113.272V310.333H116.555V297.197ZM118.196 297.197H121.48V310.333H118.196V297.197ZM126.405 297.197H123.121V310.333H126.405V297.197ZM128.046 297.197H131.329V310.333H128.046V297.197ZM136.254 297.197H132.971V310.333H136.254V297.197ZM137.896 297.197H141.179V310.333H137.896V297.197ZM146.104 297.197H142.821V310.333H146.104V297.197ZM147.746 297.197H151.029V310.333H147.746V297.197ZM155.954 297.197H152.67V310.333H155.954V297.197ZM157.595 297.197H160.879V310.333H157.595V297.197ZM165.803 297.197H162.52V310.333H165.803V297.197ZM167.445 297.197H170.728V310.333H167.445V297.197ZM175.653 297.197H172.37V310.333H175.653V297.197Z"
     fill="white"
     id="path232" />
  <path
     fill-rule="evenodd"
     clip-rule="evenodd"
     d="M103.422 293.913H180.578V313.617H103.422V293.913ZM108.347 297.197H111.63V310.333H108.347V297.197ZM116.555 297.197H113.272V310.333H116.555V297.197ZM118.196 297.197H121.48V310.333H118.196V297.197ZM126.405 297.197H123.121V310.333H126.405V297.197ZM128.046 297.197H131.329V310.333H128.046V297.197ZM136.254 297.197H132.971V310.333H136.254V297.197ZM137.896 297.197H141.179V310.333H137.896V297.197ZM146.104 297.197H142.821V310.333H146.104V297.197ZM147.746 297.197H151.029V310.333H147.746V297.197ZM155.954 297.197H152.67V310.333H155.954V297.197ZM157.595 297.197H160.879V310.333H157.595V297.197ZM165.803 297.197H162.52V310.333H165.803V297.197ZM167.445 297.197H170.728V310.333H167.445V297.197ZM175.653 297.197H172.37V310.333H175.653V297.197Z"
     fill="white"
     id="path234" />
  <path
     fill-rule="evenodd"
     clip-rule="evenodd"
     d="M103.422 293.913H180.578V313.617H103.422V293.913ZM108.347 297.197H111.63V310.333H108.347V297.197ZM116.555 297.197H113.272V310.333H116.555V297.197ZM118.196 297.197H121.48V310.333H118.196V297.197ZM126.405 297.197H123.121V310.333H126.405V297.197ZM128.046 297.197H131.329V310.333H128.046V297.197ZM136.254 297.197H132.971V310.333H136.254V297.197ZM137.896 297.197H141.179V310.333H137.896V297.197ZM146.104 297.197H142.821V310.333H146.104V297.197ZM147.746 297.197H151.029V310.333H147.746V297.197ZM155.954 297.197H152.67V310.333H155.954V297.197ZM157.595 297.197H160.879V310.333H157.595V297.197ZM165.803 297.197H162.52V310.333H165.803V297.197ZM167.445 297.197H170.728V310.333H167.445V297.197ZM175.653 297.197H172.37V310.333H175.653V297.197Z"
     fill="white"
     id="path236" />
  <rect
     x="105.063"
     y="318.543"
     width="4.92487"
     height="93.5926"
     fill="white"
     id="rect238" />
  <rect
     x="114.913"
     y="318.543"
     width="4.92487"
     height="93.5926"
     fill="white"
     id="rect240" />
  <rect
     x="124.763"
     y="318.543"
     width="4.92487"
     height="93.5926"
     fill="white"
     id="rect242" />
  <rect
     x="134.613"
     y="318.543"
     width="4.92487"
     height="93.5926"
     fill="white"
     id="rect244" />
  <rect
     x="144.462"
     y="318.543"
     width="4.92487"
     height="93.5926"
     fill="white"
     id="rect246" />
  <rect
     x="154.312"
     y="318.543"
     width="4.92485"
     height="93.5926"
     fill="white"
     id="rect248" />
  <rect
     x="164.162"
     y="318.543"
     width="4.92485"
     height="93.5926"
     fill="white"
     id="rect250" />
  <rect
     x="174.012"
     y="318.543"
     width="4.92485"
     height="93.5926"
     fill="white"
     id="rect252" />
  <rect
     x="103.422"
     y="236.444"
     width="77.1561"
     height="6.5679"
     fill="white"
     id="rect254" />
  <rect
     x="79"
     y="246"
     width="14"
     height="168"
     fill="white"
     id="rect256" />
  <rect
     x="62.75"
     y="391.79"
     width="29.1908"
     height="27.5556"
     fill="black"
     stroke="white"
     stroke-width="2"
     id="rect258" />
  <rect
     x="62.75"
     y="352.383"
     width="29.1908"
     height="27.5555"
     fill="black"
     stroke="white"
     stroke-width="2"
     id="rect260" />
  <rect
     x="62.75"
     y="312.975"
     width="29.1908"
     height="27.5555"
     fill="black"
     stroke="white"
     stroke-width="2"
     id="rect262" />
  <rect
     x="62.75"
     y="273.567"
     width="29.1908"
     height="27.5556"
     fill="black"
     stroke="white"
     stroke-width="2"
     id="rect264" />
  <rect
     x="62.75"
     y="234.16"
     width="29.1908"
     height="27.5556"
     fill="black"
     stroke="white"
     stroke-width="2"
     id="rect266" />
  <rect
     x="68.9478"
     y="359.592"
     width="11.4913"
     height="4.92593"
     fill="white"
     id="rect268" />
  <rect
     x="68.9478"
     y="399"
     width="11.4913"
     height="4.92593"
     fill="white"
     id="rect270" />
  <rect
     x="83.7227"
     y="359.592"
     width="8.20808"
     height="4.92593"
     fill="white"
     id="rect272" />
  <rect
     x="68.9478"
     y="280.777"
     width="11.4913"
     height="4.92593"
     fill="white"
     id="rect274" />
  <rect
     x="68.9478"
     y="320.185"
     width="11.4913"
     height="4.9259"
     fill="white"
     id="rect276" />
  <rect
     x="68.9478"
     y="241.37"
     width="11.4913"
     height="4.92592"
     fill="white"
     id="rect278" />
  <rect
     x="68.9478"
     y="367.802"
     width="11.4913"
     height="4.92596"
     fill="white"
     id="rect280" />
  <rect
     x="83.7227"
     y="399"
     width="8.20808"
     height="4.92593"
     fill="white"
     id="rect282" />
  <rect
     x="83.7227"
     y="280.777"
     width="8.20808"
     height="4.92593"
     fill="white"
     id="rect284" />
  <rect
     x="83.7227"
     y="367.802"
     width="8.20808"
     height="4.92596"
     fill="white"
     id="rect286" />
  <rect
     x="83.7227"
     y="320.185"
     width="8.20808"
     height="4.9259"
     fill="white"
     id="rect288" />
  <rect
     x="68.9478"
     y="288.987"
     width="11.4913"
     height="4.92593"
     fill="white"
     id="rect290" />
  <rect
     x="83.7227"
     y="241.37"
     width="8.20808"
     height="4.92592"
     fill="white"
     id="rect292" />
  <rect
     x="68.9478"
     y="407.21"
     width="11.4913"
     height="4.9259"
     fill="white"
     id="rect294" />
  <rect
     x="83.7227"
     y="288.987"
     width="8.20808"
     height="4.92593"
     fill="white"
     id="rect296" />
  <rect
     x="68.9478"
     y="328.395"
     width="11.4913"
     height="4.92593"
     fill="white"
     id="rect298" />
  <rect
     x="68.9478"
     y="249.58"
     width="11.4913"
     height="4.92593"
     fill="white"
     id="rect300" />
  <rect
     x="83.7227"
     y="407.21"
     width="8.20808"
     height="4.9259"
     fill="white"
     id="rect302" />
  <rect
     x="83.7227"
     y="328.395"
     width="8.20808"
     height="4.92593"
     fill="white"
     id="rect304" />
  <rect
     x="83.7227"
     y="249.58"
     width="8.20808"
     height="4.92593"
     fill="white"
     id="rect306" />
  <path
     d="M62.3813 433.481L349.665 433.481"
     stroke="white"
     stroke-width="2"
     stroke-miterlimit="10"
     stroke-linecap="round"
     stroke-linejoin="round"
     id="path308" />
  <path
     d="M370.021 434.303H507.26"
     stroke="white"
     stroke-width="2"
     stroke-miterlimit="10"
     stroke-linecap="round"
     stroke-linejoin="round"
     id="path310" />
  <path
     d="M399.078 373.221L400.555 377.654"
     stroke="white"
     stroke-width="2"
     stroke-miterlimit="10"
     stroke-linecap="round"
     stroke-linejoin="round"
     id="path312" />
  <path
     d="M372.976 346.293L376.751 349.249"
     stroke="white"
     stroke-width="2"
     stroke-miterlimit="10"
     stroke-linecap="round"
     stroke-linejoin="round"
     id="path314" />
  <path
     d="M308.132 393.417L302.879 403.761"
     stroke="white"
     stroke-width="2"
     stroke-miterlimit="10"
     stroke-linecap="round"
     stroke-linejoin="round"
     id="path316" />
  <path
     d="M255.108 114.282L249.198 107.55"
     stroke="white"
     stroke-width="2"
     stroke-miterlimit="10"
     stroke-linecap="round"
     stroke-linejoin="round"
     id="path318" />
  <path
     d="M268.569 112.804L269.225 104.594"
     stroke="white"
     stroke-width="2"
     stroke-miterlimit="10"
     stroke-linecap="round"
     stroke-linejoin="round"
     id="path320" />
  <path
     d="M49.5769 385.864L44.3237 387.342"
     stroke="white"
     stroke-width="2"
     stroke-miterlimit="10"
     stroke-linecap="round"
     stroke-linejoin="round"
     id="path322" />
  <path
     fill-rule="evenodd"
     clip-rule="evenodd"
     d="M445.721 211H384V216.041L393.41 223.585C396.109 218.454 404.501 219.102 413.947 219.832C426.07 220.767 439.929 221.837 445.721 211Z"
     fill="white"
     id="path324" />
</svg>
