<svg width="325" height="227" viewBox="0 0 325 227" fill="none" xmlns="http://www.w3.org/2000/svg">
<path d="M220.814 79.4447C212.431 81.191 213.89 88.1196 215.668 91.3656C216.675 93.1442 219.63 97.1637 223.397 99.0125L204.15 111.632L223.717 127.342C227.223 120.67 247.609 131.159 253.466 120.172C255.479 116.396 249.675 113.368 247.158 112.569C234.768 108.481 243.374 100.402 241.6 91.7123C240.266 85.175 231.293 77.2618 220.814 79.4447Z" fill="white"/>
<path d="M274.457 120.358H218.072V225.286H274.457V120.358Z" fill="#86EC16"/>
<path d="M235.249 175.721L240.663 170.297L250.838 176.563L266.708 151.594" stroke="white" stroke-width="2" stroke-miterlimit="10" stroke-linecap="round" stroke-linejoin="round"/>
<path d="M166.821 79.3975H109.129V242.587H166.821V79.3975Z" fill="#86EC16"/>
<path d="M145.816 203.964L147.217 90.8066H128.826L130.226 203.964H145.816Z" fill="black"/>
<path d="M145.537 220.704H130.507" stroke="black" stroke-width="2" stroke-miterlimit="10" stroke-linecap="round" stroke-linejoin="round"/>
<path d="M145.63 215.467L145.723 209.201H130.32L130.413 215.467H145.63Z" fill="black"/>
<path d="M120.611 95.8569H155.432L138.442 67.2402L120.611 95.8569Z" fill="black"/>
<path d="M160.566 50.6875H109.129V54.8958H160.566V50.6875Z" fill="black"/>
<path d="M166.821 40.7744H109.129V44.9827H166.821V40.7744Z" fill="black"/>
<path d="M193.707 208.827C196.507 217.618 201.361 232.019 201.361 232.019C201.361 232.019 195.947 234.264 197.161 239.407H217.511C217.698 239.033 209.296 210.791 205.936 203.964C202.948 205.367 193.707 208.827 193.707 208.827Z" fill="white" stroke="black" stroke-width="2" stroke-miterlimit="10" stroke-linecap="round" stroke-linejoin="round"/>
<path d="M231.608 197.605C239.916 201.626 258.213 209.108 258.213 209.108C258.213 209.108 257.093 215.373 263.628 217.898L270.443 200.036C270.349 199.662 247.384 190.871 238.236 184.699C237.022 187.785 231.608 197.605 231.608 197.605Z" fill="black"/>
<path d="M235.529 201.719C237.676 197.324 241.503 190.497 243.744 186.195C222.646 174.599 211.164 150.939 207.616 127.185C200.895 125.408 194.267 123.444 187.825 121.013C187.639 121.48 187.452 121.948 187.359 122.509C181.384 152.341 182.691 183.39 191.56 212.474C196.321 211.539 204.909 209.201 209.577 208.078C203.789 189.188 197.347 170.671 198.281 150.939C204.722 171.887 216.765 191.619 235.529 201.719Z" fill="black"/>
<path d="M235.342 201.064C229.181 197.698 223.58 193.115 218.539 187.504V161.132C224.887 172.261 233.195 180.771 243.184 186.382C242.25 188.159 241.13 190.31 239.916 192.554C238.236 195.547 236.556 198.633 235.342 201.064Z" fill="white"/>
<path d="M219.005 162.816C225.167 173.196 233.102 181.145 242.53 186.569C241.69 188.253 240.57 190.217 239.45 192.367C237.956 195.173 236.369 198.072 235.155 200.504C229.274 197.23 223.86 192.742 219.005 187.411V162.816ZM218.072 159.355V187.692C223.113 193.303 228.901 198.166 235.622 201.719C237.769 197.324 241.597 190.497 243.837 186.195C232.541 180.023 224.046 170.484 218.072 159.355Z" fill="black"/>
<path d="M200.335 227.53H214.058" stroke="black" stroke-width="2" stroke-miterlimit="10" stroke-linecap="round" stroke-linejoin="round"/>
<path d="M259.054 195.267L255.133 207.424" stroke="white" stroke-width="2" stroke-miterlimit="10" stroke-linecap="round" stroke-linejoin="round"/>
<path d="M258.213 209.107L259.334 207.144" stroke="white" stroke-width="2" stroke-miterlimit="10" stroke-linecap="round" stroke-linejoin="round"/>
<path d="M195.667 138.221C195.947 141.868 197.907 149.162 197.907 149.162" stroke="white" stroke-width="2" stroke-miterlimit="10" stroke-linecap="round" stroke-linejoin="round"/>
<path d="M162.247 70.3255C154.405 68.9227 151.605 70.8866 148.991 72.8505C147.684 73.8792 145.537 77.1523 145.35 79.4903" fill="white"/>
<path d="M162.247 70.3255C154.405 68.9227 151.605 70.8866 148.991 72.8505C147.684 73.8792 145.537 77.1523 145.35 79.4903" stroke="black" stroke-width="2" stroke-miterlimit="10" stroke-linecap="round" stroke-linejoin="round"/>
<path d="M145.63 78.7424C147.777 76.5915 149.364 75.2822 149.364 75.2822Z" fill="white"/>
<path d="M145.63 78.7424C147.777 76.5915 149.364 75.2822 149.364 75.2822" stroke="black" stroke-width="2" stroke-miterlimit="10" stroke-linecap="round" stroke-linejoin="round"/>
<path d="M151.885 78.7425L156.086 74.5342L161.593 76.0305L160.1 82.0156L152.352 80.6129L151.885 78.7425Z" fill="white"/>
<path d="M151.232 77.6201C150.391 80.8933 147.871 81.0803 148.711 83.1377C149.551 85.2886 153.565 79.9581 157.206 80.8933" fill="white"/>
<path d="M151.232 77.6201C150.391 80.8933 147.871 81.0803 148.711 83.1377C149.551 85.2886 153.565 79.9581 157.206 80.8933" stroke="black" stroke-width="2" stroke-miterlimit="10" stroke-linecap="round" stroke-linejoin="round"/>
<path d="M232.542 145.982C235.809 148.507 235.715 151.125 237.209 152.622C238.703 154.118 238.889 151.032 238.889 149.535C238.889 148.039 242.063 153.557 243.464 152.715C244.864 151.873 241.783 148.133 241.783 148.133C241.783 148.133 244.584 152.248 245.798 151.032C247.011 149.816 243.464 145.888 243.464 145.888C243.464 145.888 246.078 149.722 247.198 148.881C248.318 148.039 244.677 142.335 238.049 136.63" fill="white"/>
<path d="M232.542 145.982C235.809 148.507 235.715 151.125 237.209 152.622C238.703 154.118 238.889 151.032 238.889 149.535C238.889 148.039 242.063 153.557 243.464 152.715C244.864 151.873 241.783 148.133 241.783 148.133C241.783 148.133 244.584 152.248 245.798 151.032C247.011 149.816 243.464 145.888 243.464 145.888C243.464 145.888 246.078 149.722 247.198 148.881C248.318 148.039 244.677 142.335 238.049 136.63" stroke="black" stroke-width="2" stroke-miterlimit="10" stroke-linecap="round" stroke-linejoin="round"/>
<path d="M232.542 145.982C226.38 142.148 214.618 132.609 208.83 126.717C208.737 127.746 208.363 129.803 208.083 131.767C206.123 130.925 185.025 122.789 185.025 122.789L188.573 113.905C188.199 111.941 189.133 109.416 191.56 106.424C183.718 95.6689 169.529 84.3532 156.179 80.893L162.34 70.4189C177.93 74.4402 191 87.9069 200.148 100.438C200.428 100.812 200.708 101.187 200.988 101.561C202.762 103.899 204.909 106.33 207.15 108.762C217.045 119.423 230.395 130.364 238.049 136.817L232.542 145.982Z" fill="white" stroke="black" stroke-width="2" stroke-miterlimit="10" stroke-linecap="round" stroke-linejoin="round"/>
<path d="M237.956 136.724L232.448 145.889C228.807 143.644 223.206 139.342 217.979 134.947V120.265H218.912C226.007 126.811 233.102 132.609 237.956 136.724Z" fill="black"/>
<path d="M220.487 106.527C216.125 111.992 208.166 112.88 202.71 108.512C197.254 104.143 196.366 96.1714 200.728 90.7061C205.091 85.2409 213.05 84.3526 218.506 88.7212C223.962 93.0897 224.85 101.062 220.487 106.527Z" fill="white" stroke="black" stroke-width="2"/>
<path d="M220.318 108.215C218.914 109.91 216.503 110.225 214.931 108.92C213.359 107.614 218.441 101.477 220.013 102.783C221.584 104.088 221.721 106.52 220.318 108.215Z" fill="white"/>
<path d="M214.931 108.92C216.503 110.225 218.914 109.91 220.318 108.215C221.721 106.52 221.584 104.088 220.013 102.783" stroke="black" stroke-width="2"/>
<path d="M217.048 106.984C217.59 107.434 218.422 107.326 218.905 106.741C219.389 106.157 219.342 105.319 218.8 104.869" stroke="black" stroke-width="2"/>
<ellipse rx="0.568796" ry="0.569414" transform="matrix(-0.989672 0.143355 0.1426 0.989781 208.657 100.08)" fill="black"/>
<ellipse rx="0.568789" ry="0.56941" transform="matrix(-0.989671 0.143355 0.142599 0.989781 206.406 100.405)" fill="black"/>
<ellipse rx="0.568796" ry="0.56941" transform="matrix(-0.989672 0.143354 0.142601 0.98978 206.081 98.151)" fill="black"/>
<ellipse rx="0.568809" ry="0.569407" transform="matrix(-0.989672 0.14335 0.142605 0.98978 204.155 100.731)" fill="black"/>
<ellipse rx="0.568789" ry="0.569404" transform="matrix(-0.989672 0.143354 0.142601 0.98978 203.83 98.4762)" fill="black"/>
<path d="M200.91 96.0147C200.502 96.2948 199.43 95.8245 198.938 95.1065C198.447 94.3885 198.538 93.3277 198.893 92.8828" stroke="black" stroke-width="2" stroke-miterlimit="10" stroke-linecap="round" stroke-linejoin="round"/>
<ellipse rx="1.70702" ry="1.7076" transform="matrix(0.780609 0.625019 -0.623825 0.781564 206.931 94.214)" fill="black"/>
<ellipse rx="1.42253" ry="1.42301" transform="matrix(0.780614 0.625014 -0.62383 0.78156 203.51 88.9231)" fill="black"/>
<path d="M223.717 127.342C227.223 120.67 247.609 131.159 253.466 120.172C255.479 116.396 249.675 113.368 247.158 112.569C234.768 108.481 243.374 100.402 241.6 91.7123C240.266 85.175 231.293 77.2618 220.814 79.4447C212.431 81.191 213.89 88.1196 215.668 91.3656C216.675 93.1442 219.63 97.1637 223.397 99.0125" stroke="black" stroke-width="2"/>
<path d="M109.222 127.186H52.2773V242.213H109.222V127.186Z" stroke="black" stroke-width="2" stroke-miterlimit="10" stroke-linecap="round" stroke-linejoin="round"/>
<rect x="56.0776" y="130.991" width="49.3439" height="107.417" stroke="black" stroke-width="2"/>
<ellipse cx="59.7451" cy="142.148" rx="0.933531" ry="0.935188" fill="black"/>
<ellipse cx="62.5458" cy="142.148" rx="0.933525" ry="0.935188" fill="black"/>
<ellipse cx="65.3461" cy="142.148" rx="0.933525" ry="0.935188" fill="black"/>
<ellipse cx="68.1469" cy="142.148" rx="0.933525" ry="0.935188" fill="black"/>
<ellipse cx="70.9477" cy="142.148" rx="0.933529" ry="0.935188" fill="black"/>
<ellipse cx="73.748" cy="142.148" rx="0.933525" ry="0.935188" fill="black"/>
<ellipse cx="76.5483" cy="142.148" rx="0.933525" ry="0.935188" fill="black"/>
<ellipse cx="79.3491" cy="142.148" rx="0.933525" ry="0.935188" fill="black"/>
<ellipse cx="82.1498" cy="142.148" rx="0.933525" ry="0.935188" fill="black"/>
<ellipse cx="84.9501" cy="142.148" rx="0.933517" ry="0.935188" fill="black"/>
<ellipse cx="87.7509" cy="142.148" rx="0.933525" ry="0.935188" fill="black"/>
<ellipse cx="90.5512" cy="142.148" rx="0.933533" ry="0.935188" fill="black"/>
<ellipse cx="93.352" cy="142.148" rx="0.933525" ry="0.935188" fill="black"/>
<ellipse cx="96.1528" cy="142.148" rx="0.933514" ry="0.935188" fill="black"/>
<ellipse cx="98.9531" cy="142.148" rx="0.933529" ry="0.935188" fill="black"/>
<ellipse cx="101.754" cy="142.148" rx="0.933525" ry="0.935188" fill="black"/>
<ellipse cx="59.7451" cy="144.954" rx="0.933531" ry="0.935188" fill="black"/>
<ellipse cx="62.5458" cy="144.954" rx="0.933525" ry="0.935188" fill="black"/>
<ellipse cx="65.3461" cy="144.954" rx="0.933525" ry="0.935188" fill="black"/>
<ellipse cx="68.1469" cy="144.954" rx="0.933525" ry="0.935188" fill="black"/>
<ellipse cx="73.748" cy="144.954" rx="0.933525" ry="0.935188" fill="black"/>
<ellipse cx="70.9477" cy="144.954" rx="0.933529" ry="0.935188" fill="black"/>
<ellipse cx="76.5483" cy="144.954" rx="0.933525" ry="0.935188" fill="black"/>
<ellipse cx="79.3491" cy="144.954" rx="0.933525" ry="0.935188" fill="black"/>
<ellipse cx="82.1498" cy="144.954" rx="0.933525" ry="0.935188" fill="black"/>
<ellipse cx="84.9501" cy="144.954" rx="0.933517" ry="0.935188" fill="black"/>
<ellipse cx="90.5512" cy="144.954" rx="0.933533" ry="0.935188" fill="black"/>
<ellipse cx="87.7509" cy="144.954" rx="0.933525" ry="0.935188" fill="black"/>
<ellipse cx="93.352" cy="144.954" rx="0.933525" ry="0.935188" fill="black"/>
<ellipse cx="96.1528" cy="144.954" rx="0.933514" ry="0.935188" fill="black"/>
<ellipse cx="98.9531" cy="144.954" rx="0.933529" ry="0.935188" fill="black"/>
<ellipse cx="101.754" cy="144.954" rx="0.933525" ry="0.935188" fill="black"/>
<ellipse cx="59.7451" cy="147.759" rx="0.933531" ry="0.935188" fill="black"/>
<ellipse cx="62.5458" cy="147.759" rx="0.933525" ry="0.935188" fill="black"/>
<ellipse cx="65.3461" cy="147.759" rx="0.933525" ry="0.935188" fill="black"/>
<ellipse cx="73.748" cy="147.759" rx="0.933525" ry="0.935188" fill="black"/>
<ellipse cx="68.1469" cy="147.759" rx="0.933525" ry="0.935188" fill="black"/>
<ellipse cx="70.9477" cy="147.759" rx="0.933529" ry="0.935188" fill="black"/>
<ellipse cx="76.5483" cy="147.759" rx="0.933525" ry="0.935188" fill="black"/>
<ellipse cx="79.3491" cy="147.759" rx="0.933525" ry="0.935188" fill="black"/>
<ellipse cx="82.1498" cy="147.759" rx="0.933525" ry="0.935188" fill="black"/>
<ellipse cx="90.5512" cy="147.759" rx="0.933533" ry="0.935188" fill="black"/>
<ellipse cx="84.9501" cy="147.759" rx="0.933517" ry="0.935188" fill="black"/>
<ellipse cx="87.7509" cy="147.759" rx="0.933525" ry="0.935188" fill="black"/>
<ellipse cx="93.352" cy="147.759" rx="0.933525" ry="0.935188" fill="black"/>
<ellipse cx="96.1528" cy="147.759" rx="0.933514" ry="0.935188" fill="black"/>
<ellipse cx="98.9531" cy="147.759" rx="0.933529" ry="0.935188" fill="black"/>
<ellipse cx="101.754" cy="147.759" rx="0.933525" ry="0.935188" fill="black"/>
<ellipse cx="59.7451" cy="150.565" rx="0.933531" ry="0.935181" fill="black"/>
<ellipse cx="62.5458" cy="150.565" rx="0.933525" ry="0.935181" fill="black"/>
<ellipse cx="73.748" cy="150.565" rx="0.933525" ry="0.935181" fill="black"/>
<ellipse cx="65.3461" cy="150.565" rx="0.933525" ry="0.935181" fill="black"/>
<ellipse cx="68.1469" cy="150.565" rx="0.933525" ry="0.935181" fill="black"/>
<ellipse cx="70.9477" cy="150.565" rx="0.933529" ry="0.935181" fill="black"/>
<ellipse cx="76.5483" cy="150.565" rx="0.933525" ry="0.935181" fill="black"/>
<ellipse cx="79.3491" cy="150.565" rx="0.933525" ry="0.935181" fill="black"/>
<ellipse cx="90.5512" cy="150.565" rx="0.933533" ry="0.935181" fill="black"/>
<ellipse cx="82.1498" cy="150.565" rx="0.933525" ry="0.935181" fill="black"/>
<ellipse cx="84.9501" cy="150.565" rx="0.933517" ry="0.935181" fill="black"/>
<ellipse cx="87.7509" cy="150.565" rx="0.933525" ry="0.935181" fill="black"/>
<ellipse cx="93.352" cy="150.565" rx="0.933525" ry="0.935181" fill="black"/>
<ellipse cx="96.1528" cy="150.565" rx="0.933514" ry="0.935181" fill="black"/>
<ellipse cx="98.9531" cy="150.565" rx="0.933529" ry="0.935181" fill="black"/>
<ellipse cx="101.754" cy="150.565" rx="0.933525" ry="0.935181" fill="black"/>
<path fill-rule="evenodd" clip-rule="evenodd" d="M58.8115 154.306H102.687V165.528H58.8115V154.306ZM61.6121 156.176H63.4792V163.657H61.6121V156.176ZM66.2798 156.176H64.4127V163.657H66.2798V156.176ZM67.2133 156.176H69.0804V163.657H67.2133V156.176ZM71.881 156.176H70.0139V163.657H71.881V156.176ZM72.8143 156.176H74.6814V163.657H72.8143V156.176ZM77.482 156.176H75.6149V163.657H77.482V156.176ZM78.4155 156.176H80.2826V163.657H78.4155V156.176ZM83.0832 156.176H81.2161V163.657H83.0832V156.176ZM84.0167 156.176H85.8838V163.657H84.0167V156.176ZM88.6844 156.176H86.8173V163.657H88.6844V156.176ZM89.6179 156.176H91.485V163.657H89.6179V156.176ZM94.2856 156.176H92.4185V163.657H94.2856V156.176ZM95.2191 156.176H97.0861V163.657H95.2191V156.176ZM99.8868 156.176H98.0197V163.657H99.8868V156.176Z" fill="black"/>
<path fill-rule="evenodd" clip-rule="evenodd" d="M58.8115 154.306H102.687V165.528H58.8115V154.306ZM61.6121 156.176H63.4792V163.657H61.6121V156.176ZM66.2798 156.176H64.4127V163.657H66.2798V156.176ZM67.2133 156.176H69.0804V163.657H67.2133V156.176ZM71.881 156.176H70.0139V163.657H71.881V156.176ZM72.8143 156.176H74.6814V163.657H72.8143V156.176ZM77.482 156.176H75.6149V163.657H77.482V156.176ZM78.4155 156.176H80.2826V163.657H78.4155V156.176ZM83.0832 156.176H81.2161V163.657H83.0832V156.176ZM84.0167 156.176H85.8838V163.657H84.0167V156.176ZM88.6844 156.176H86.8173V163.657H88.6844V156.176ZM89.6179 156.176H91.485V163.657H89.6179V156.176ZM94.2856 156.176H92.4185V163.657H94.2856V156.176ZM95.2191 156.176H97.0861V163.657H95.2191V156.176ZM99.8868 156.176H98.0197V163.657H99.8868V156.176Z" fill="black"/>
<path fill-rule="evenodd" clip-rule="evenodd" d="M58.8115 154.306H102.687V165.528H58.8115V154.306ZM61.6121 156.176H63.4792V163.657H61.6121V156.176ZM66.2798 156.176H64.4127V163.657H66.2798V156.176ZM67.2133 156.176H69.0804V163.657H67.2133V156.176ZM71.881 156.176H70.0139V163.657H71.881V156.176ZM72.8143 156.176H74.6814V163.657H72.8143V156.176ZM77.482 156.176H75.6149V163.657H77.482V156.176ZM78.4155 156.176H80.2826V163.657H78.4155V156.176ZM83.0832 156.176H81.2161V163.657H83.0832V156.176ZM84.0167 156.176H85.8838V163.657H84.0167V156.176ZM88.6844 156.176H86.8173V163.657H88.6844V156.176ZM89.6179 156.176H91.485V163.657H89.6179V156.176ZM94.2856 156.176H92.4185V163.657H94.2856V156.176ZM95.2191 156.176H97.0861V163.657H95.2191V156.176ZM99.8868 156.176H98.0197V163.657H99.8868V156.176Z" fill="black"/>
<path fill-rule="evenodd" clip-rule="evenodd" d="M58.8115 154.306H102.687V165.528H58.8115V154.306ZM61.6121 156.176H63.4792V163.657H61.6121V156.176ZM66.2798 156.176H64.4127V163.657H66.2798V156.176ZM67.2133 156.176H69.0804V163.657H67.2133V156.176ZM71.881 156.176H70.0139V163.657H71.881V156.176ZM72.8143 156.176H74.6814V163.657H72.8143V156.176ZM77.482 156.176H75.6149V163.657H77.482V156.176ZM78.4155 156.176H80.2826V163.657H78.4155V156.176ZM83.0832 156.176H81.2161V163.657H83.0832V156.176ZM84.0167 156.176H85.8838V163.657H84.0167V156.176ZM88.6844 156.176H86.8173V163.657H88.6844V156.176ZM89.6179 156.176H91.485V163.657H89.6179V156.176ZM94.2856 156.176H92.4185V163.657H94.2856V156.176ZM95.2191 156.176H97.0861V163.657H95.2191V156.176ZM99.8868 156.176H98.0197V163.657H99.8868V156.176Z" fill="black"/>
<path fill-rule="evenodd" clip-rule="evenodd" d="M58.8115 167.398H102.687V178.621H58.8115V167.398ZM61.6121 169.269H63.4792V176.75H61.6121V169.269ZM66.2798 169.269H64.4127V176.75H66.2798V169.269ZM67.2133 169.269H69.0804V176.75H67.2133V169.269ZM71.881 169.269H70.0139V176.75H71.881V169.269ZM72.8143 169.269H74.6814V176.75H72.8143V169.269ZM77.482 169.269H75.6149V176.75H77.482V169.269ZM78.4155 169.269H80.2826V176.75H78.4155V169.269ZM83.0832 169.269H81.2161V176.75H83.0832V169.269ZM84.0167 169.269H85.8838V176.75H84.0167V169.269ZM88.6844 169.269H86.8173V176.75H88.6844V169.269ZM89.6179 169.269H91.485V176.75H89.6179V169.269ZM94.2856 169.269H92.4185V176.75H94.2856V169.269ZM95.2191 169.269H97.0861V176.75H95.2191V169.269ZM99.8868 169.269H98.0197V176.75H99.8868V169.269Z" fill="black"/>
<path fill-rule="evenodd" clip-rule="evenodd" d="M58.8115 167.398H102.687V178.621H58.8115V167.398ZM61.6121 169.269H63.4792V176.75H61.6121V169.269ZM66.2798 169.269H64.4127V176.75H66.2798V169.269ZM67.2133 169.269H69.0804V176.75H67.2133V169.269ZM71.881 169.269H70.0139V176.75H71.881V169.269ZM72.8143 169.269H74.6814V176.75H72.8143V169.269ZM77.482 169.269H75.6149V176.75H77.482V169.269ZM78.4155 169.269H80.2826V176.75H78.4155V169.269ZM83.0832 169.269H81.2161V176.75H83.0832V169.269ZM84.0167 169.269H85.8838V176.75H84.0167V169.269ZM88.6844 169.269H86.8173V176.75H88.6844V169.269ZM89.6179 169.269H91.485V176.75H89.6179V169.269ZM94.2856 169.269H92.4185V176.75H94.2856V169.269ZM95.2191 169.269H97.0861V176.75H95.2191V169.269ZM99.8868 169.269H98.0197V176.75H99.8868V169.269Z" fill="black"/>
<path fill-rule="evenodd" clip-rule="evenodd" d="M58.8115 167.398H102.687V178.621H58.8115V167.398ZM61.6121 169.269H63.4792V176.75H61.6121V169.269ZM66.2798 169.269H64.4127V176.75H66.2798V169.269ZM67.2133 169.269H69.0804V176.75H67.2133V169.269ZM71.881 169.269H70.0139V176.75H71.881V169.269ZM72.8143 169.269H74.6814V176.75H72.8143V169.269ZM77.482 169.269H75.6149V176.75H77.482V169.269ZM78.4155 169.269H80.2826V176.75H78.4155V169.269ZM83.0832 169.269H81.2161V176.75H83.0832V169.269ZM84.0167 169.269H85.8838V176.75H84.0167V169.269ZM88.6844 169.269H86.8173V176.75H88.6844V169.269ZM89.6179 169.269H91.485V176.75H89.6179V169.269ZM94.2856 169.269H92.4185V176.75H94.2856V169.269ZM95.2191 169.269H97.0861V176.75H95.2191V169.269ZM99.8868 169.269H98.0197V176.75H99.8868V169.269Z" fill="black"/>
<path fill-rule="evenodd" clip-rule="evenodd" d="M58.8115 167.398H102.687V178.621H58.8115V167.398ZM61.6121 169.269H63.4792V176.75H61.6121V169.269ZM66.2798 169.269H64.4127V176.75H66.2798V169.269ZM67.2133 169.269H69.0804V176.75H67.2133V169.269ZM71.881 169.269H70.0139V176.75H71.881V169.269ZM72.8143 169.269H74.6814V176.75H72.8143V169.269ZM77.482 169.269H75.6149V176.75H77.482V169.269ZM78.4155 169.269H80.2826V176.75H78.4155V169.269ZM83.0832 169.269H81.2161V176.75H83.0832V169.269ZM84.0167 169.269H85.8838V176.75H84.0167V169.269ZM88.6844 169.269H86.8173V176.75H88.6844V169.269ZM89.6179 169.269H91.485V176.75H89.6179V169.269ZM94.2856 169.269H92.4185V176.75H94.2856V169.269ZM95.2191 169.269H97.0861V176.75H95.2191V169.269ZM99.8868 169.269H98.0197V176.75H99.8868V169.269Z" fill="black"/>
<rect x="59.7451" y="181.427" width="2.80058" height="53.3056" fill="black"/>
<rect x="65.3467" y="181.427" width="2.80058" height="53.3056" fill="black"/>
<rect x="70.9473" y="181.427" width="2.80058" height="53.3056" fill="black"/>
<rect x="76.5488" y="181.427" width="2.80058" height="53.3056" fill="black"/>
<rect x="82.1499" y="181.427" width="2.80058" height="53.3056" fill="black"/>
<rect x="87.751" y="181.427" width="2.80057" height="53.3056" fill="black"/>
<rect x="93.3521" y="181.427" width="2.80058" height="53.3056" fill="black"/>
<rect x="98.9531" y="181.427" width="2.80058" height="53.3056" fill="black"/>
<rect x="58.8115" y="134.667" width="43.8757" height="3.74074" fill="black"/>
<rect x="44.9238" y="140.109" width="7.96127" height="95.6842" fill="black"/>
<rect x="36.1147" y="223.574" width="15.737" height="14.8333" fill="white" stroke="black" stroke-width="2"/>
<rect x="36.1147" y="201.13" width="15.737" height="14.8333" fill="white" stroke="black" stroke-width="2"/>
<rect x="36.1147" y="178.686" width="15.737" height="14.8333" fill="white" stroke="black" stroke-width="2"/>
<rect x="36.1147" y="156.241" width="15.737" height="14.8333" fill="white" stroke="black" stroke-width="2"/>
<rect x="36.1147" y="133.797" width="15.737" height="14.8334" fill="white" stroke="black" stroke-width="2"/>
<rect x="39.208" y="204.807" width="6.53468" height="2.80556" fill="black"/>
<rect x="47.6094" y="204.807" width="4.66763" height="2.80556" fill="black"/>
<rect x="39.208" y="159.917" width="6.53468" height="2.80557" fill="black"/>
<rect x="39.208" y="182.362" width="6.53468" height="2.80554" fill="black"/>
<rect x="39.208" y="137.473" width="6.53468" height="2.80556" fill="black"/>
<rect x="39.208" y="209.482" width="6.53468" height="2.80559" fill="black"/>
<rect x="47.6094" y="159.917" width="4.66763" height="2.80557" fill="black"/>
<rect x="47.6094" y="209.482" width="4.66763" height="2.80559" fill="black"/>
<rect x="47.6094" y="182.362" width="4.66763" height="2.80554" fill="black"/>
<rect x="39.208" y="164.593" width="6.53468" height="2.80556" fill="black"/>
<rect x="47.6094" y="137.473" width="4.66763" height="2.80556" fill="black"/>
<rect x="47.6094" y="164.593" width="4.66763" height="2.80556" fill="black"/>
<rect x="39.208" y="187.038" width="6.53468" height="2.80556" fill="black"/>
<rect x="39.208" y="142.148" width="6.53468" height="2.80556" fill="black"/>
<rect x="47.6094" y="187.038" width="4.66763" height="2.80556" fill="black"/>
<rect x="47.6094" y="142.148" width="4.66763" height="2.80556" fill="black"/>
<path d="M226.94 212.567L227.78 215.092" stroke="black" stroke-width="2" stroke-miterlimit="10" stroke-linecap="round" stroke-linejoin="round"/>
<path d="M212.097 197.23L214.244 198.914" stroke="black" stroke-width="2" stroke-miterlimit="10" stroke-linecap="round" stroke-linejoin="round"/>
<path d="M175.223 224.07L172.235 229.962" stroke="black" stroke-width="2" stroke-miterlimit="10" stroke-linecap="round" stroke-linejoin="round"/>
<path d="M145.07 65.0891L141.709 61.2549" stroke="black" stroke-width="2" stroke-miterlimit="10" stroke-linecap="round" stroke-linejoin="round"/>
<path d="M152.725 64.2472L153.098 59.5713" stroke="black" stroke-width="2" stroke-miterlimit="10" stroke-linecap="round" stroke-linejoin="round"/>
<path d="M28.1924 219.769L25.2051 220.61" stroke="black" stroke-width="2" stroke-miterlimit="10" stroke-linecap="round" stroke-linejoin="round"/>
<rect y="185" width="325" height="42" fill="url(#paint0_linear)"/>
<defs>
<linearGradient id="paint0_linear" x1="209.02" y1="222" x2="209.02" y2="185" gradientUnits="userSpaceOnUse">
<stop stop-color="white"/>
<stop offset="1" stop-color="#EEEEEE" stop-opacity="0"/>
</linearGradient>
</defs>
</svg>
