<svg width="638" height="680" viewBox="0 0 638 680" fill="none" xmlns="http://www.w3.org/2000/svg">
<path d="M284.92 583.848L324.547 619.534L331.482 578.297L439.863 542.612L389.536 525.364L422.625 476.396L285.316 523.977L284.92 583.848Z" fill="#DB00C5"/>
<path d="M237.764 249.202L210.619 194.286L206.062 260.304L160.491 261.097L188.824 285.481L153.754 311.254L195.363 307.289L204.675 340.397L233.801 301.936L281.948 310.659L256.785 274.181L266.097 238.496L237.764 249.202Z" fill="#DB00C5"/>
<path d="M136.516 423.265L161.481 415.335L135.723 407.405L144.045 389.959L123.439 401.458L114.324 385.994L113.73 403.044L100.059 410.974L113.73 420.093L107.786 437.539L121.259 425.248L140.875 439.324L136.516 423.265Z" fill="#DB00C5"/>
<path d="M114.919 572.945C117.495 432.781 138.695 428.816 244.302 426.239C349.909 423.662 422.625 398.484 425.597 429.213" stroke="black" stroke-width="2" stroke-miterlimit="10" stroke-linecap="round" stroke-linejoin="round"/>
<path d="M335.445 442.099C349.711 442.099 374.676 442.694 398.849 435.16C436.099 423.662 457.299 434.169 445.411 456.968" stroke="black" stroke-width="2" stroke-miterlimit="10" stroke-linecap="round" stroke-linejoin="round"/>
<path d="M327.52 477.586C360.806 475.405 440.061 438.927 449.572 463.708C459.28 488.292 368.336 504.746 368.336 504.746" fill="white"/>
<path d="M327.52 477.586C360.806 475.405 440.061 438.927 449.572 463.708C459.28 488.292 368.336 504.746 368.336 504.746" stroke="black" stroke-width="2" stroke-miterlimit="10" stroke-linecap="round" stroke-linejoin="round"/>
<path d="M430.512 28C430.512 28 397.82 102.344 355.22 113.248C312.621 124.152 276.956 138.029 271.012 169.749C265.068 201.469 286.863 217.329 295.779 197.504C304.696 177.679 334.416 150.915 363.146 184.618C391.876 218.321 400.792 246.076 367.109 260.945C333.425 275.813 340.36 294.647 381.969 287.708C423.578 280.77 443.391 254.006 442.4 210.391" stroke="black" stroke-width="2" stroke-miterlimit="10" stroke-linecap="round" stroke-linejoin="round"/>
<path d="M464.196 208.408C461.224 250.041 464.196 287.114 398.811 283.347" stroke="black" stroke-width="2" stroke-miterlimit="10" stroke-linecap="round" stroke-linejoin="round"/>
<path d="M544.441 100.361C515.711 159.837 488.963 184.618 488.963 184.618C488.963 184.618 502.04 270.262 434.079 279.977" stroke="black" stroke-width="2" stroke-miterlimit="10" stroke-linecap="round" stroke-linejoin="round"/>
<path d="M438.438 186.601L437.447 197.504" stroke="black" stroke-width="2" stroke-miterlimit="10" stroke-linecap="round" stroke-linejoin="round"/>
<path d="M456.27 191.557L455.279 202.46" stroke="black" stroke-width="2" stroke-miterlimit="10" stroke-linecap="round" stroke-linejoin="round"/>
<path d="M472.121 191.557L471.13 202.46" stroke="black" stroke-width="2" stroke-miterlimit="10" stroke-linecap="round" stroke-linejoin="round"/>
<path d="M240.34 470.845C287.893 453.994 317.613 477.784 337.427 471.836C357.24 465.889 377.054 438.53 391.914 449.434C406.775 460.338 366.157 524.373 324.548 531.312C282.939 538.25 284.921 583.848 284.921 583.848" fill="white"/>
<path d="M240.34 470.845C287.893 453.994 317.613 477.784 337.427 471.836C357.24 465.889 377.054 438.53 391.914 449.434C406.775 460.338 366.157 524.373 324.548 531.312C282.939 538.25 284.921 583.848 284.921 583.848" stroke="black" stroke-width="2" stroke-miterlimit="10" stroke-linecap="round" stroke-linejoin="round"/>
<path d="M293.638 314.426C306.913 300.549 315.235 282.706 315.632 259.312C315.83 250.986 309.489 240.677 301.96 241.47C293.044 242.263 288.289 249.796 288.09 258.123C287.892 266.648 285.515 277.948 281.948 284.49C287.1 294.998 291.063 302.729 293.638 314.426Z" fill="white" stroke="black" stroke-width="2" stroke-miterlimit="10" stroke-linecap="round" stroke-linejoin="round"/>
<path d="M280.711 233.531L280.711 233.531C281.661 242.545 286.748 252.43 294.588 260.689C302.425 268.952 311.938 274.47 320.74 275.723C321.181 275.787 321.617 275.822 322.056 275.829C324.843 275.872 327.523 274.794 329.554 272.781L333.712 268.661C335.611 266.779 335.659 263.679 333.819 261.739L324.961 252.4C323.109 250.447 320.045 250.4 318.134 252.294L313.83 256.56L299.257 241.195L303.59 236.902C303.59 236.901 303.591 236.901 303.591 236.9C304.52 235.988 305.032 234.759 305.052 233.463C305.072 232.162 304.589 230.92 303.7 229.983L294.844 220.646C294.843 220.645 294.843 220.645 294.843 220.645C292.996 218.69 289.925 218.645 288.015 220.538L283.858 224.658C281.506 226.989 280.363 230.221 280.711 233.531Z" fill="white" stroke="black" stroke-width="2"/>
<path d="M287.497 272C287.1 271.604 286.506 271.207 286.11 270.811C276.599 303.125 250.247 330.286 205.468 324.933C197.344 323.942 193.976 337.423 196.552 344.56C199.722 352.886 208.242 355.464 216.167 353.481C252.823 344.163 286.506 344.956 302.951 315.615C298.196 300.945 293.044 286.472 287.497 272Z" fill="white" stroke="black" stroke-width="2" stroke-miterlimit="10" stroke-linecap="round" stroke-linejoin="round"/>
<path d="M334 202.86L336.972 187" stroke="black" stroke-width="2" stroke-miterlimit="10" stroke-linecap="round" stroke-linejoin="round"/>
<path d="M353.814 208.808L361.74 202.86" stroke="black" stroke-width="2" stroke-miterlimit="10" stroke-linecap="round" stroke-linejoin="round"/>
<path d="M320.783 456.175L370.516 453.202C369.723 439.919 355.655 438.333 355.655 438.333L354.665 422.076C354.665 422.076 354.466 422.076 354.268 421.878L319 425.645C319.991 438.927 320.783 456.175 320.783 456.175Z" fill="white" stroke="black" stroke-width="2" stroke-miterlimit="10" stroke-linecap="round" stroke-linejoin="round"/>
<path d="M314.641 435.953L358.231 430.601C358.231 416.327 357.636 407.207 356.051 392.933C354.466 378.857 353.277 363.988 348.522 350.706C343.965 337.621 335.841 326.122 322.963 320.175C308.499 313.434 291.261 315.417 277.589 323.545C254.209 337.621 239.349 366.367 229.64 390.95C227.461 396.501 225.876 402.251 223.102 407.604C223.102 407.802 222.111 409.19 221.12 410.577C222.507 404.63 223.696 398.484 225.677 392.536C234.395 365.773 192.39 354.274 183.672 381.038C180.899 389.761 173.766 416.128 180.7 434.764C185.059 446.659 199.722 454.192 209.43 455.977C225.281 458.752 241.132 453.399 252.03 442.297C262.729 431.195 266.295 416.128 272.24 402.449C276.995 391.149 290.27 359.627 301.762 360.618C314.641 361.609 315.037 408.793 314.641 435.953Z" fill="black"/>
<path d="M333.067 456.175L382.8 453.202C382.007 439.919 367.939 438.333 367.939 438.333L366.949 422.076C366.949 422.076 366.751 422.076 366.552 421.878L331.284 425.645C332.473 438.927 333.067 456.175 333.067 456.175Z" fill="white" stroke="black" stroke-width="2" stroke-miterlimit="10" stroke-linecap="round" stroke-linejoin="round"/>
<path d="M327.123 435.953L370.714 430.601C370.714 416.327 370.119 407.207 368.534 392.933C366.949 378.857 365.76 363.988 361.005 350.706C356.448 337.621 348.324 326.122 335.445 320.175C320.981 313.434 303.743 315.417 290.072 323.545C266.692 337.621 251.832 366.367 242.123 390.951C239.943 396.502 238.358 402.251 235.584 407.604C235.584 407.802 234.594 409.19 233.603 410.577C234.99 404.63 236.179 398.484 238.16 392.537C246.878 365.773 204.873 354.274 196.155 381.038C191.4 395.312 188.032 410.379 192.192 425.248C196.155 439.522 196.948 456.572 219.337 456.968C235.386 457.166 253.615 453.201 264.512 442.099C275.212 430.997 278.778 415.93 284.722 402.251C289.478 390.95 302.753 359.429 314.245 360.42C326.925 361.609 327.322 408.793 327.123 435.953Z" fill="black"/>
<path d="M367.345 433.971L358.23 436.548" stroke="black" stroke-width="2" stroke-miterlimit="10" stroke-linecap="round" stroke-linejoin="round"/>
<path d="M304.338 318.192C289.478 321.166 266.097 335.638 254.804 358.437" stroke="white" stroke-width="2" stroke-miterlimit="10" stroke-linecap="round" stroke-linejoin="round"/>
<path d="M308.696 362.799C317.612 358.239 330.491 366.764 327.519 425.248" stroke="white" stroke-width="2" stroke-miterlimit="10" stroke-linecap="round" stroke-linejoin="round"/>
<path d="M243.708 382.624L237.962 392.537" stroke="white" stroke-width="2" stroke-miterlimit="10" stroke-linecap="round" stroke-linejoin="round"/>
<path d="M368.138 438.134L359.816 440.513" stroke="black" stroke-width="2" stroke-miterlimit="10" stroke-linecap="round" stroke-linejoin="round"/>
<path d="M222.111 314.624C199.127 318.788 195.363 316.607 186.447 351.896C177.53 387.184 175.945 394.519 175.945 394.519L246.284 378.065C253.813 332.07 268.079 306.298 222.111 314.624Z" fill="white" stroke="black" stroke-width="2" stroke-miterlimit="10" stroke-linecap="round" stroke-linejoin="round"/>
<path d="M350.306 325.131C343.768 322.356 339.211 328.7 334.059 336.234C332.078 339.009 328.511 340.595 323.954 341.388C325.737 351.499 326.728 361.808 327.124 372.117C340.598 369.936 353.278 364.187 361.402 352.292C367.742 342.974 358.43 328.502 350.306 325.131Z" fill="white" stroke="black" stroke-width="2" stroke-miterlimit="10" stroke-linecap="round" stroke-linejoin="round"/>
<path d="M231.226 341.784C246.68 359.429 272.438 377.668 297.205 380.641C312.462 382.624 329.303 382.227 343.371 375.883C340.399 366.169 335.446 348.128 331.879 338.414C323.557 344.56 303.149 341.586 295.422 340C279.967 336.828 262.729 328.105 250.841 317.598" fill="white"/>
<path d="M231.226 341.784C246.68 359.429 272.438 377.668 297.205 380.641C312.462 382.624 329.303 382.227 343.371 375.883C340.399 366.169 335.446 348.128 331.879 338.414C323.557 344.56 303.149 341.586 295.422 340C279.967 336.828 262.729 328.105 250.841 317.598" stroke="black" stroke-width="2" stroke-miterlimit="10" stroke-linecap="round" stroke-linejoin="round"/>
<path d="M334.059 336.234C339.408 330.088 338.616 318.788 342.777 321.167C345.749 322.951 344.362 330.485 344.362 330.485" fill="white"/>
<path d="M334.059 336.234C339.408 330.088 338.616 318.788 342.777 321.167C345.749 322.951 344.362 330.485 344.362 330.485" stroke="black" stroke-width="2" stroke-miterlimit="10" stroke-linecap="round" stroke-linejoin="round"/>
<path d="M350.306 325.131C354.268 328.699 353.872 332.07 353.872 332.07L350.306 325.131Z" fill="white"/>
<path d="M350.306 325.131C354.268 328.699 353.872 332.07 353.872 332.07" stroke="black" stroke-width="2" stroke-miterlimit="10" stroke-linecap="round" stroke-linejoin="round"/>
<path d="M225.733 244.692C238.169 247.936 228.662 256.859 222.354 260.915L190.589 284.573C188.336 287.276 182.209 291.467 175.721 286.6C169.232 281.734 175.27 275.109 179.1 272.406C175.27 272.406 168.016 270.513 169.638 262.942C171.26 255.372 178.875 253.479 182.479 253.479C180.452 251.902 177.343 247.666 181.127 243.34C184.912 239.014 191.265 240.636 193.969 241.988C193.293 239.51 193.428 234.147 199.375 232.525C205.323 230.903 209.964 236.355 211.541 239.284C211.541 237.482 215.325 232.255 222.354 233.877C229.383 235.499 226.86 242.439 225.733 244.692Z" fill="white" stroke="black" stroke-width="2"/>
<path d="M258.525 286.6C258.525 305.46 243.238 320.749 224.381 320.749C205.524 320.749 190.237 305.46 190.237 286.6C190.237 267.74 205.524 252.451 224.381 252.451C243.238 252.451 258.525 267.74 258.525 286.6Z" fill="white" stroke="black" stroke-width="2"/>
<ellipse rx="1.35175" ry="1.35183" transform="matrix(0.965912 -0.258871 0.258768 0.96594 228.788 293.575)" fill="black"/>
<ellipse rx="1.35174" ry="1.35184" transform="matrix(0.965911 -0.258874 0.258764 0.96594 234.011 292.175)" fill="black"/>
<ellipse rx="1.35174" ry="1.35182" transform="matrix(0.965912 -0.258869 0.258769 0.965939 232.612 286.952)" fill="black"/>
<ellipse rx="1.35175" ry="1.35183" transform="matrix(0.965912 -0.258869 0.258769 0.965939 239.234 290.775)" fill="black"/>
<ellipse rx="1.35175" ry="1.35182" transform="matrix(0.965913 -0.258867 0.258771 0.965939 237.834 285.553)" fill="black"/>
<path d="M212.426 297.797C209.047 299.748 204.604 298.379 202.503 294.74C200.402 291.1 201.439 286.568 204.818 284.616" stroke="black" stroke-width="2"/>
<path d="M237.58 272.65C235.738 270.3 232.339 269.888 229.989 271.73C227.639 273.572 227.227 276.971 229.069 279.322" stroke="black" stroke-width="2"/>
<path d="M242.585 267.155C240.743 264.804 241.155 261.405 243.506 259.563" stroke="black" stroke-width="2"/>
<path d="M296.413 265.458C296.413 259.709 295.62 244.047 292.252 244.641C288.884 245.236 287.695 252.77 288.884 260.502C290.27 268.432 296.413 265.458 296.413 265.458Z" fill="white"/>
<path d="M288.091 258.915C287.893 247.02 289.676 241.865 293.441 246.227C296.611 249.795 296.611 262.88 296.611 262.88" stroke="black" stroke-width="2" stroke-miterlimit="10" stroke-linecap="round" stroke-linejoin="round"/>
<path d="M221.911 261.21C228.219 257.155 237.726 248.232 225.29 244.988C226.416 242.735 228.94 235.795 221.911 234.173C214.882 232.55 211.097 237.778 211.097 239.58C209.52 236.651 204.879 231.199 198.932 232.821C192.984 234.443 192.849 239.806 193.525 242.284C190.822 240.932 184.469 239.31 180.684 243.636C176.899 247.962 180.008 252.198 182.036 253.775C178.431 253.775 170.817 255.668 169.195 263.238C167.573 270.809 174.827 272.701 178.656 272.701C174.827 275.405 168.789 282.03 175.277 286.896C181.765 291.763 187.893 287.572 190.146 284.868" stroke="black" stroke-width="2"/>
<path d="M170.397 343.568L163.066 350.904" stroke="black" stroke-width="2" stroke-miterlimit="10" stroke-linecap="round" stroke-linejoin="round"/>
<path d="M152.565 321.761L158.51 323.743" stroke="black" stroke-width="2" stroke-miterlimit="10" stroke-linecap="round" stroke-linejoin="round"/>
<path d="M83.2178 449.435L87.1805 453.994" stroke="black" stroke-width="2" stroke-miterlimit="10" stroke-linecap="round" stroke-linejoin="round"/>
<path d="M413.313 374.693L409.351 385.994" stroke="black" stroke-width="2" stroke-miterlimit="10" stroke-linecap="round" stroke-linejoin="round"/>
<path d="M443.826 350.903L438.477 346.938" stroke="black" stroke-width="2" stroke-miterlimit="10" stroke-linecap="round" stroke-linejoin="round"/>
<path d="M405.388 323.148L404.199 331.079" stroke="black" stroke-width="2" stroke-miterlimit="10" stroke-linecap="round" stroke-linejoin="round"/>
</svg>
