<svg width="242" height="264" viewBox="0 0 242 264" fill="none" xmlns="http://www.w3.org/2000/svg">
<path d="M211.818 214.709L240.676 216.836L235.664 256.022C235.664 256.022 224.424 254.807 224.576 243.719L209.691 240.53L211.818 214.709Z" fill="black" stroke="black" stroke-width="2" stroke-miterlimit="10" stroke-linecap="round" stroke-linejoin="round"/>
<path d="M224.578 243.719L226.704 239.011" stroke="white" stroke-width="2" stroke-miterlimit="10" stroke-linecap="round" stroke-linejoin="round"/>
<path d="M220.477 242.504L222.603 237.795" stroke="white" stroke-width="2" stroke-miterlimit="10" stroke-linecap="round" stroke-linejoin="round"/>
<path d="M66.0089 286.55C54.7695 233.847 67.6796 158.664 101.55 116.592C106.258 110.669 107.321 102.467 101.55 96.5435C96.5375 91.5313 86.3613 90.62 81.501 96.5435C41.8594 146.058 25.6078 217.443 36.2397 289.74C45.8083 288.828 56.744 288.221 66.0089 286.55Z" fill="white" stroke="black" stroke-width="2" stroke-miterlimit="10" stroke-linecap="round" stroke-linejoin="round"/>
<path d="M218.197 213.798C166.556 210.76 132.23 147.728 113.701 101.556C110.815 94.417 104.284 89.5567 96.234 91.6831C89.5511 93.5057 83.4757 102.011 86.3615 109.15C99.4235 141.653 112.789 174.764 136.331 201.191C156.228 223.518 184.023 241.289 214.096 243.263C215.311 233.695 216.678 223.063 218.197 213.798Z" fill="white" stroke="black" stroke-width="2" stroke-miterlimit="10" stroke-linecap="round" stroke-linejoin="round"/>
<path d="M137.095 74.216C119.173 66.7737 99.7316 67.2294 80.7461 68.9001C81.2017 76.6462 81.6574 84.3922 82.113 92.1383C96.3901 90.6195 111.275 89.7082 124.792 94.4166C136.791 98.5174 148.486 107.934 150.157 121.148C150.157 121.148 150.157 121.148 150.309 121.148C157.903 119.326 165.497 117.503 172.94 115.832C169.294 96.8467 154.865 81.5065 137.095 74.216Z" fill="black" stroke="black" stroke-width="2" stroke-miterlimit="10" stroke-linecap="round" stroke-linejoin="round"/>
<path d="M150.309 121.147C149.853 127.83 148.79 134.513 152.131 135.273C155.473 136.032 155.321 122.97 158.511 130.716C161.7 138.462 159.27 140.892 162.915 141.348C166.712 141.804 164.13 130.26 164.13 130.26C164.13 130.26 166.257 140.892 168.839 140.133C171.421 139.374 169.598 128.438 169.598 128.438C169.598 128.438 171.269 138.918 173.547 137.551C175.825 136.032 174.458 124.337 172.94 115.832" fill="white"/>
<path d="M150.309 121.147C149.853 127.83 148.79 134.513 152.131 135.273C155.473 136.032 155.321 122.97 158.511 130.716C161.7 138.462 159.27 140.892 162.915 141.348C166.712 141.804 164.13 130.26 164.13 130.26C164.13 130.26 166.257 140.892 168.839 140.133C171.421 139.374 169.598 128.438 169.598 128.438C169.598 128.438 171.269 138.918 173.547 137.551C175.825 136.032 174.458 124.337 172.94 115.832" stroke="black" stroke-width="2" stroke-miterlimit="10" stroke-linecap="round" stroke-linejoin="round"/>
<path d="M74.8223 67.9887C53.2548 77.8611 57.2037 85.4553 65.5573 119.933L115.983 100.644C109.604 91.3788 102.161 55.5342 74.8223 67.9887Z" fill="black"/>
<path d="M77.5562 82.8731C73.6072 99.1246 69.6582 117.199 59.0263 130.565C51.1284 140.437 38.2183 148.335 25.3081 145.449C25.3081 145.449 25.3081 145.449 25.3081 145.601C24.3968 153.347 23.4855 161.093 22.5742 168.687C41.7116 171.725 60.8489 163.22 73.911 148.943C88.9475 132.387 95.0228 110.212 100.187 88.9484C103.68 74.3676 81.0495 68.1403 77.5562 82.8731Z" fill="black" stroke="black" stroke-width="2" stroke-miterlimit="10" stroke-linecap="round" stroke-linejoin="round"/>
<path d="M25.1557 145.449C19.536 143.93 13.1569 139.526 11.3343 142.411C9.51172 145.297 21.8143 149.55 13.4607 150.006C5.10708 150.461 3.28448 148.335 1.91753 150.613C0.094919 153.955 11.9419 155.473 11.9419 155.473C11.9419 155.473 1.30998 153.803 1.00621 156.537C0.702445 159.271 11.6381 161.245 11.6381 161.245C11.6381 161.245 1.1581 159.119 1.76563 161.853C2.37317 164.586 13.9164 167.168 22.4219 168.535" fill="white"/>
<path d="M25.1557 145.449C19.536 143.93 13.1569 139.526 11.3343 142.411C9.51172 145.297 21.8143 149.55 13.4607 150.006C5.10708 150.461 3.28448 148.335 1.91753 150.613C0.094919 153.955 11.9419 155.473 11.9419 155.473C11.9419 155.473 1.30998 153.803 1.00621 156.537C0.702445 159.271 11.6381 161.245 11.6381 161.245C11.6381 161.245 1.1581 159.119 1.76563 161.853C2.37317 164.586 13.9164 167.168 22.4219 168.535" stroke="black" stroke-width="2" stroke-miterlimit="10" stroke-linecap="round" stroke-linejoin="round"/>
<path d="M156.84 128.438C160.029 124.489 161.093 121.3 161.093 121.3Z" fill="black"/>
<path d="M156.84 128.438C160.029 124.489 161.093 121.3 161.093 121.3" stroke="black" stroke-width="2" stroke-miterlimit="10" stroke-linecap="round" stroke-linejoin="round"/>
<path d="M73.002 81.2021C69.6606 88.6445 73.9133 104.592 67.2305 116.591" stroke="white" stroke-width="2" stroke-miterlimit="10" stroke-linecap="round" stroke-linejoin="round"/>
<path d="M96.3888 91.3789C96.3888 100.036 95.7812 104.593 95.7812 104.593" stroke="white" stroke-width="2" stroke-miterlimit="10" stroke-linecap="round" stroke-linejoin="round"/>
<path d="M95.4766 69.811C100.033 73.76 109.602 91.3785 109.602 91.3785" stroke="white" stroke-width="2" stroke-miterlimit="10" stroke-linecap="round" stroke-linejoin="round"/>
<circle cx="71.1256" cy="50.4718" r="23.3014" fill="white" stroke="black" stroke-width="2"/>
<path d="M95.3053 53.0238C95.2473 56.9275 92.2396 60.0275 88.5873 59.9479C84.935 59.8683 85.1448 45.7319 88.7971 45.8114C92.4494 45.891 95.3632 49.1201 95.3053 53.0238Z" fill="white"/>
<path d="M88.5739 59.9473C92.2334 60.0269 95.247 56.9245 95.3051 53.0179C95.3631 49.1113 92.4435 45.8798 88.784 45.8001" stroke="black" stroke-width="2"/>
<path d="M89.3693 54.922C90.6311 54.9495 91.6703 53.8801 91.6903 52.5335C91.7103 51.1869 90.7036 50.0729 89.4417 50.0455" stroke="black" stroke-width="2"/>
<ellipse rx="1.02616" ry="1.03971" transform="matrix(-0.670244 0.715903 0.715353 0.670339 70.0404 54.6728)" fill="black"/>
<ellipse rx="1.02615" ry="1.0397" transform="matrix(-0.670258 0.715884 0.715366 0.670318 67.2708 57.6283)" fill="black"/>
<ellipse rx="1.02615" ry="1.0397" transform="matrix(-0.670258 0.715884 0.715366 0.670318 64.3138 54.8588)" fill="black"/>
<ellipse rx="1.02614" ry="1.03969" transform="matrix(-0.670256 0.715888 0.715363 0.670323 64.5013 60.5839)" fill="black"/>
<ellipse rx="1.02615" ry="1.0397" transform="matrix(-0.670258 0.715884 0.715366 0.670318 61.5443 57.8143)" fill="black"/>
<path d="M54.7466 57.6413C54.4904 58.4836 52.4772 59.0227 50.9962 58.5723C49.5153 58.1219 48.4649 56.5472 48.4648 55.5347" stroke="black" stroke-width="2" stroke-miterlimit="10" stroke-linecap="round" stroke-linejoin="round"/>
<circle cx="61.1236" cy="48.4469" r="3.03768" fill="black"/>
<circle cx="50.4923" cy="44.903" r="2.5314" fill="black"/>
<path d="M121.247 75.7858C118.716 62.6226 158.712 54.5221 154.662 32.7521C153.27 25.2708 141.836 27.5205 137.448 29.2081C115.678 37.3086 118.679 16.5199 106.565 6.42554C97.4523 -1.16862 76.1886 -2.18122 64.0379 12.5009C54.3173 24.2466 64.0379 32.2458 70.1132 34.7772C73.4884 36.1273 82.0614 38.4225 89.3518 36.8023" stroke="black" stroke-width="2"/>
</svg>
