<?xml version="1.0" encoding="UTF-8" standalone="no"?>
<svg
   width="592.534"
   height="592.534"
   viewBox="0 0 592.534 592.534"
   fill="none"
   version="1.1"
   id="svg114"
   sodipodi:docname="queue-header-illustration.svg"
   inkscape:version="1.1 (c68e22c387, 2021-05-23)"
   xmlns:inkscape="http://www.inkscape.org/namespaces/inkscape"
   xmlns:sodipodi="http://sodipodi.sourceforge.net/DTD/sodipodi-0.dtd"
   xmlns="http://www.w3.org/2000/svg"
   xmlns:svg="http://www.w3.org/2000/svg">
  <defs
     id="defs118" />
  <sodipodi:namedview
     id="namedview116"
     pagecolor="#ffffff"
     bordercolor="#666666"
     borderopacity="1.0"
     inkscape:pageshadow="2"
     inkscape:pageopacity="0.0"
     inkscape:pagecheckerboard="0"
     showgrid="false"
     inkscape:zoom="0.61176471"
     inkscape:cx="386.58654"
     inkscape:cy="442.16346"
     inkscape:window-width="1920"
     inkscape:window-height="1017"
     inkscape:window-x="-8"
     inkscape:window-y="-8"
     inkscape:window-maximized="1"
     inkscape:current-layer="svg114" />
  <path
     d="m 267.3576,556.848 39.627,35.686 6.935,-41.237 108.381,-35.685 -50.327,-17.248 33.089,-48.968 -137.309,47.581 z"
     fill="#db00c5"
     id="path2" />
  <path
     d="m 220.2016,222.202 -27.145,-54.916 -4.557,66.018 -45.571,0.793 28.333,24.384 -35.07,25.773 41.609,-3.965 9.312,33.108 29.126,-38.461 48.147,8.723 -25.163,-36.478 9.312,-35.685 z"
     fill="#db00c5"
     id="path4" />
  <path
     d="m 118.9536,396.265 24.965,-7.93 -25.758,-7.93 8.322,-17.446 -20.606,11.499 -9.115002,-15.464 -0.594,17.05 -13.671,7.93 13.671,9.119 -5.944,17.446 13.473002,-12.291 19.616,14.076 z"
     fill="#db00c5"
     id="path6" />
  <path
     d="m 97.356598,545.945 c 2.576,-140.164 23.776002,-144.129 129.383002,-146.706 105.607,-2.577 178.323,-27.755 181.295,2.974"
     stroke="#000000"
     stroke-width="2"
     stroke-miterlimit="10"
     stroke-linecap="round"
     stroke-linejoin="round"
     id="path8" />
  <path
     d="m 317.8826,415.099 c 14.266,0 39.231,0.595 63.404,-6.939 37.25,-11.498 58.45,-0.991 46.562,21.808"
     stroke="#000000"
     stroke-width="2"
     stroke-miterlimit="10"
     stroke-linecap="round"
     stroke-linejoin="round"
     id="path10" />
  <path
     d="m 309.9576,450.586 c 33.286,-2.181 112.541,-38.659 122.052,-13.878 9.708,24.584 -81.236,41.038 -81.236,41.038"
     fill="#ffffff"
     id="path12" />
  <path
     d="m 309.9576,450.586 c 33.286,-2.181 112.541,-38.659 122.052,-13.878 9.708,24.584 -81.236,41.038 -81.236,41.038"
     stroke="#000000"
     stroke-width="2"
     stroke-miterlimit="10"
     stroke-linecap="round"
     stroke-linejoin="round"
     id="path14" />
  <path
     d="m 412.9496,1 c 0,0 -32.692,74.344 -75.292,85.248 -42.599,10.904 -78.264,24.781 -84.208,56.501 -5.944,31.72 15.851,47.58 24.767,27.755 8.917,-19.825 38.637,-46.589 67.367,-12.886 28.73,33.703 37.646,61.458 3.963,76.327 -33.684,14.868 -26.749,33.702 14.86,26.763 41.609,-6.938 61.422,-33.702 60.431,-77.317"
     stroke="#000000"
     stroke-width="2"
     stroke-miterlimit="10"
     stroke-linecap="round"
     stroke-linejoin="round"
     id="path16" />
  <path
     d="m 446.6336,181.408 c -2.972,41.633 0,78.706 -65.385,74.939"
     stroke="#000000"
     stroke-width="2"
     stroke-miterlimit="10"
     stroke-linecap="round"
     stroke-linejoin="round"
     id="path18" />
  <path
     d="m 526.8786,73.361 c -28.73,59.476 -55.478,84.257 -55.478,84.257 0,0 13.077,85.644 -54.884,95.359"
     stroke="#000000"
     stroke-width="2"
     stroke-miterlimit="10"
     stroke-linecap="round"
     stroke-linejoin="round"
     id="path20" />
  <path
     d="m 420.8756,159.601 -0.991,10.903"
     stroke="#000000"
     stroke-width="2"
     stroke-miterlimit="10"
     stroke-linecap="round"
     stroke-linejoin="round"
     id="path22" />
  <path
     d="m 438.7076,164.557 -0.991,10.903"
     stroke="#000000"
     stroke-width="2"
     stroke-miterlimit="10"
     stroke-linecap="round"
     stroke-linejoin="round"
     id="path24" />
  <path
     d="m 454.5586,164.557 -0.991,10.903"
     stroke="#000000"
     stroke-width="2"
     stroke-miterlimit="10"
     stroke-linecap="round"
     stroke-linejoin="round"
     id="path26" />
  <path
     d="m 222.7776,443.845 c 47.553,-16.851 77.273,6.939 97.087,0.991 19.813,-5.947 39.627,-33.306 54.487,-22.402 14.861,10.904 -25.757,74.939 -67.366,81.878 -41.609,6.938 -39.627,52.536 -39.627,52.536"
     fill="#ffffff"
     id="path28" />
  <path
     d="m 222.7776,443.845 c 47.553,-16.851 77.273,6.939 97.087,0.991 19.813,-5.947 39.627,-33.306 54.487,-22.402 14.861,10.904 -25.757,74.939 -67.366,81.878 -41.609,6.938 -39.627,52.536 -39.627,52.536"
     stroke="#000000"
     stroke-width="2"
     stroke-miterlimit="10"
     stroke-linecap="round"
     stroke-linejoin="round"
     id="path30" />
  <path
     d="m 276.0756,287.426 c 13.275,-13.877 21.597,-31.72 21.994,-55.114 0.198,-8.326 -6.143,-18.635 -13.672,-17.842 -8.916,0.793 -13.671,8.326 -13.87,16.653 -0.198,8.525 -2.575,19.825 -6.142,26.367 5.152,10.508 9.115,18.239 11.69,29.936 z"
     fill="#ffffff"
     stroke="#000000"
     stroke-width="2"
     stroke-miterlimit="10"
     stroke-linecap="round"
     stroke-linejoin="round"
     id="path32" />
  <path
     d="m 263.1486,206.531 v 0 c 0.95,9.014 6.037,18.899 13.877,27.158 7.837,8.263 17.35,13.781 26.152,15.034 0.441,0.064 0.877,0.099 1.316,0.106 2.787,0.043 5.467,-1.035 7.498,-3.048 l 4.158,-4.12 c 1.899,-1.882 1.947,-4.982 0.107,-6.922 l -8.858,-9.339 c -1.852,-1.953 -4.916,-2 -6.827,-0.106 l -4.304,4.266 -14.573,-15.365 4.333,-4.293 c 0,-10e-4 10e-4,-10e-4 10e-4,-0.002 0.929,-0.912 1.441,-2.141 1.461,-3.437 0.02,-1.301 -0.463,-2.543 -1.352,-3.48 l -8.856,-9.337 c -0.001,-10e-4 -0.001,-10e-4 -0.001,-10e-4 -1.847,-1.955 -4.918,-2 -6.828,-0.107 l -4.157,4.12 c -2.352,2.331 -3.495,5.563 -3.147,8.873 z"
     fill="#ffffff"
     stroke="#000000"
     stroke-width="2"
     id="path34" />
  <path
     d="m 269.9346,245 c -0.397,-0.396 -0.991,-0.793 -1.387,-1.189 -9.511,32.314 -35.863,59.475 -80.642,54.122 -8.124,-0.991 -11.492,12.49 -8.916,19.627 3.17,8.326 11.69,10.904 19.615,8.921 36.656,-9.318 70.339,-8.525 86.784,-37.866 -4.755,-14.67 -9.907,-29.143 -15.454,-43.615 z"
     fill="#ffffff"
     stroke="#000000"
     stroke-width="2"
     stroke-miterlimit="10"
     stroke-linecap="round"
     stroke-linejoin="round"
     id="path36" />
  <path
     d="M 316.4376,175.86 319.4096,160"
     stroke="#000000"
     stroke-width="2"
     stroke-miterlimit="10"
     stroke-linecap="round"
     stroke-linejoin="round"
     id="path38" />
  <path
     d="m 336.2516,181.808 7.926,-5.948"
     stroke="#000000"
     stroke-width="2"
     stroke-miterlimit="10"
     stroke-linecap="round"
     stroke-linejoin="round"
     id="path40" />
  <path
     d="m 303.2206,429.175 49.733,-2.973 c -0.793,-13.283 -14.861,-14.869 -14.861,-14.869 l -0.99,-16.257 c 0,0 -0.199,0 -0.397,-0.198 l -35.268,3.767 c 0.991,13.282 1.783,30.53 1.783,30.53 z"
     fill="#ffffff"
     stroke="#000000"
     stroke-width="2"
     stroke-miterlimit="10"
     stroke-linecap="round"
     stroke-linejoin="round"
     id="path42" />
  <path
     d="m 297.0786,408.953 43.59,-5.352 c 0,-14.274 -0.595,-23.394 -2.18,-37.668 -1.585,-14.076 -2.774,-28.945 -7.529,-42.227 -4.557,-13.085 -12.681,-24.584 -25.559,-30.531 -14.464,-6.741 -31.702,-4.758 -45.374,3.37 -23.38,14.076 -38.24,42.822 -47.949,67.405 -2.179,5.551 -3.764,11.301 -6.538,16.654 0,0.198 -0.991,1.586 -1.982,2.973 1.387,-5.947 2.576,-12.093 4.557,-18.041 8.718,-26.763 -33.287,-38.262 -42.005,-11.498 -2.773,8.723 -9.906,35.09 -2.972,53.726 4.359,11.895 19.022,19.428 28.73,21.213 15.851,2.775 31.702,-2.578 42.6,-13.68 10.699,-11.102 14.265,-26.169 20.21,-39.848 4.755,-11.3 18.03,-42.822 29.522,-41.831 12.879,0.991 13.275,48.175 12.879,75.335 z"
     fill="#000000"
     id="path44" />
  <path
     d="m 315.5046,429.175 49.733,-2.973 c -0.793,-13.283 -14.861,-14.869 -14.861,-14.869 l -0.99,-16.257 c 0,0 -0.198,0 -0.397,-0.198 l -35.268,3.767 c 1.189,13.282 1.783,30.53 1.783,30.53 z"
     fill="#ffffff"
     stroke="#000000"
     stroke-width="2"
     stroke-miterlimit="10"
     stroke-linecap="round"
     stroke-linejoin="round"
     id="path46" />
  <path
     d="m 309.5606,408.953 43.591,-5.352 c 0,-14.274 -0.595,-23.394 -2.18,-37.668 -1.585,-14.076 -2.774,-28.945 -7.529,-42.227 -4.557,-13.085 -12.681,-24.584 -25.56,-30.531 -14.464,-6.741 -31.702,-4.758 -45.373,3.37 -23.38,14.076 -38.24,42.822 -47.949,67.406 -2.18,5.551 -3.765,11.3 -6.539,16.653 0,0.198 -0.99,1.586 -1.981,2.973 1.387,-5.947 2.576,-12.093 4.557,-18.04 8.718,-26.764 -33.287,-38.263 -42.005,-11.499 -4.755,14.274 -8.123,29.341 -3.963,44.21 3.963,14.274 4.756,31.324 27.145,31.72 16.049,0.198 34.278,-3.767 45.175,-14.869 10.7,-11.102 14.266,-26.169 20.21,-39.848 4.756,-11.301 18.031,-42.822 29.523,-41.831 12.68,1.189 13.077,48.373 12.878,75.533 z"
     fill="#000000"
     id="path48" />
  <path
     d="m 349.7826,406.971 -9.115,2.577"
     stroke="#000000"
     stroke-width="2"
     stroke-miterlimit="10"
     stroke-linecap="round"
     stroke-linejoin="round"
     id="path50" />
  <path
     d="m 286.7756,291.192 c -14.86,2.974 -38.241,17.446 -49.534,40.245"
     stroke="#ffffff"
     stroke-width="2"
     stroke-miterlimit="10"
     stroke-linecap="round"
     stroke-linejoin="round"
     id="path52" />
  <path
     d="m 291.1336,335.799 c 8.916,-4.56 21.795,3.965 18.823,62.449"
     stroke="#ffffff"
     stroke-width="2"
     stroke-miterlimit="10"
     stroke-linecap="round"
     stroke-linejoin="round"
     id="path54" />
  <path
     d="m 226.1456,355.624 -5.746,9.913"
     stroke="#ffffff"
     stroke-width="2"
     stroke-miterlimit="10"
     stroke-linecap="round"
     stroke-linejoin="round"
     id="path56" />
  <path
     d="m 350.5756,411.134 -8.322,2.379"
     stroke="#000000"
     stroke-width="2"
     stroke-miterlimit="10"
     stroke-linecap="round"
     stroke-linejoin="round"
     id="path58" />
  <path
     d="m 204.5486,287.624 c -22.984,4.164 -26.748,1.983 -35.664,37.272 -8.917,35.288 -10.502,42.623 -10.502,42.623 l 70.339,-16.454 c 7.529,-45.995 21.795,-71.767 -24.173,-63.441 z"
     fill="#ffffff"
     stroke="#000000"
     stroke-width="2"
     stroke-miterlimit="10"
     stroke-linecap="round"
     stroke-linejoin="round"
     id="path60" />
  <path
     d="m 332.7436,298.131 c -6.538,-2.775 -11.095,3.569 -16.247,11.103 -1.981,2.775 -5.548,4.361 -10.105,5.154 1.783,10.111 2.774,20.42 3.17,30.729 13.474,-2.181 26.154,-7.93 34.278,-19.825 6.34,-9.318 -2.972,-23.79 -11.096,-27.161 z"
     fill="#ffffff"
     stroke="#000000"
     stroke-width="2"
     stroke-miterlimit="10"
     stroke-linecap="round"
     stroke-linejoin="round"
     id="path62" />
  <path
     d="m 213.6636,314.784 c 15.454,17.645 41.212,35.884 65.979,38.857 15.257,1.983 32.098,1.586 46.166,-4.758 -2.972,-9.714 -7.925,-27.755 -11.492,-37.469 -8.322,6.146 -28.73,3.172 -36.457,1.586 -15.455,-3.172 -32.693,-11.895 -44.581,-22.402"
     fill="#ffffff"
     id="path64" />
  <path
     d="m 213.6636,314.784 c 15.454,17.645 41.212,35.884 65.979,38.857 15.257,1.983 32.098,1.586 46.166,-4.758 -2.972,-9.714 -7.925,-27.755 -11.492,-37.469 -8.322,6.146 -28.73,3.172 -36.457,1.586 -15.455,-3.172 -32.693,-11.895 -44.581,-22.402"
     stroke="#000000"
     stroke-width="2"
     stroke-miterlimit="10"
     stroke-linecap="round"
     stroke-linejoin="round"
     id="path66" />
  <path
     d="m 316.4966,309.234 c 5.349,-6.146 4.557,-17.446 8.718,-15.067 2.972,1.784 1.585,9.318 1.585,9.318"
     fill="#ffffff"
     id="path68" />
  <path
     d="m 316.4966,309.234 c 5.349,-6.146 4.557,-17.446 8.718,-15.067 2.972,1.784 1.585,9.318 1.585,9.318"
     stroke="#000000"
     stroke-width="2"
     stroke-miterlimit="10"
     stroke-linecap="round"
     stroke-linejoin="round"
     id="path70" />
  <path
     d="m 332.7436,298.131 c 3.962,3.568 3.566,6.939 3.566,6.939 z"
     fill="#ffffff"
     id="path72" />
  <path
     d="m 332.7436,298.131 c 3.962,3.568 3.566,6.939 3.566,6.939"
     stroke="#000000"
     stroke-width="2"
     stroke-miterlimit="10"
     stroke-linecap="round"
     stroke-linejoin="round"
     id="path74" />
  <path
     d="m 208.1706,217.692 c 12.436,3.244 2.929,12.167 -3.379,16.223 l -31.765,23.658 c -2.253,2.703 -8.38,6.894 -14.868,2.027 -6.489,-4.866 -0.451,-11.491 3.379,-14.194 -3.83,0 -11.084,-1.893 -9.462,-9.464 1.622,-7.57 9.237,-9.463 12.841,-9.463 -2.027,-1.577 -5.136,-5.813 -1.352,-10.139 3.785,-4.326 10.138,-2.704 12.842,-1.352 -0.676,-2.478 -0.541,-7.841 5.406,-9.463 5.948,-1.622 10.589,3.83 12.166,6.759 0,-1.802 3.784,-7.029 10.813,-5.407 7.029,1.622 4.506,8.562 3.379,10.815 z"
     fill="#ffffff"
     stroke="#000000"
     stroke-width="2"
     id="path76" />
  <path
     d="m 240.9626,259.6 c 0,18.86 -15.287,34.149 -34.144,34.149 -18.857,0 -34.144,-15.289 -34.144,-34.149 0,-18.86 15.287,-34.149 34.144,-34.149 18.857,0 34.144,15.289 34.144,34.149 z"
     fill="#ffffff"
     stroke="#000000"
     stroke-width="2"
     id="path78" />
  <ellipse
     rx="1.3517501"
     ry="1.3518306"
     transform="matrix(0.96591191,-0.25887098,0.25876788,0.96593953,0,0)"
     fill="#000000"
     id="ellipse80"
     cx="135.05011"
     cy="312.16812" />
  <ellipse
     rx="1.3517399"
     ry="1.3518393"
     transform="matrix(0.96591109,-0.25887402,0.25876414,0.96594054,0,0)"
     fill="#000000"
     id="ellipse82"
     cx="140.45869"
     cy="312.1684" />
  <ellipse
     rx="1.3517394"
     ry="1.3518196"
     transform="matrix(0.96591241,-0.25886911,0.25876906,0.96593922,0,0)"
     fill="#000000"
     id="ellipse84"
     cx="140.45731"
     cy="306.76056" />
  <ellipse
     rx="1.3517494"
     ry="1.3518296"
     transform="matrix(0.96591241,-0.25886911,0.25876906,0.96593922,0,0)"
     fill="#000000"
     id="ellipse86"
     cx="145.86449"
     cy="312.16748" />
  <ellipse
     rx="1.35175"
     ry="1.3518203"
     transform="matrix(0.96591298,-0.25886699,0.25877092,0.96593872,0,0)"
     fill="#000000"
     id="ellipse88"
     cx="145.86287"
     cy="306.76074" />
  <path
     d="m 194.8636,270.797 c -3.379,1.951 -7.822,0.582 -9.923,-3.057 -2.101,-3.64 -1.064,-8.172 2.315,-10.124"
     stroke="#000000"
     stroke-width="2"
     id="path90" />
  <path
     d="m 220.0176,245.65 c -1.842,-2.35 -5.241,-2.762 -7.591,-0.92 -2.35,1.842 -2.762,5.241 -0.92,7.592"
     stroke="#000000"
     stroke-width="2"
     id="path92" />
  <path
     d="m 225.0226,240.155 c -1.842,-2.351 -1.43,-5.75 0.921,-7.592"
     stroke="#000000"
     stroke-width="2"
     id="path94" />
  <path
     d="m 278.8506,238.458 c 0,-5.749 -0.793,-21.411 -4.161,-20.817 -3.368,0.595 -4.557,8.129 -3.368,15.861 1.386,7.93 7.529,4.956 7.529,4.956 z"
     fill="#ffffff"
     id="path96" />
  <path
     d="m 270.5286,231.915 c -0.198,-11.895 1.585,-17.05 5.35,-12.688 3.17,3.568 3.17,16.653 3.17,16.653"
     stroke="#000000"
     stroke-width="2"
     stroke-miterlimit="10"
     stroke-linecap="round"
     stroke-linejoin="round"
     id="path98" />
  <path
     d="m 204.3486,234.21 c 6.308,-4.055 15.815,-12.978 3.379,-16.222 1.126,-2.253 3.65,-9.193 -3.379,-10.815 -7.029,-1.623 -10.814,3.605 -10.814,5.407 -1.577,-2.929 -6.218,-8.381 -12.165,-6.759 -5.948,1.622 -6.083,6.985 -5.407,9.463 -2.703,-1.352 -9.056,-2.974 -12.841,1.352 -3.785,4.326 -0.676,8.562 1.352,10.139 -3.605,0 -11.219,1.893 -12.841,9.463 -1.622,7.571 5.632,9.463 9.461,9.463 -3.829,2.704 -9.867,9.329 -3.379,14.195 6.488,4.867 12.616,0.676 14.869,-2.028"
     stroke="#000000"
     stroke-width="2"
     id="path100" />
  <path
     d="m 152.8346,316.568 -7.331,7.336"
     stroke="#000000"
     stroke-width="2"
     stroke-miterlimit="10"
     stroke-linecap="round"
     stroke-linejoin="round"
     id="path102" />
  <path
     d="m 135.0026,294.761 5.945,1.982"
     stroke="#000000"
     stroke-width="2"
     stroke-miterlimit="10"
     stroke-linecap="round"
     stroke-linejoin="round"
     id="path104" />
  <path
     d="m 65.655398,422.435 3.9627,4.559"
     stroke="#000000"
     stroke-width="2"
     stroke-miterlimit="10"
     stroke-linecap="round"
     stroke-linejoin="round"
     id="path106" />
  <path
     d="m 395.7506,347.693 -3.962,11.301"
     stroke="#000000"
     stroke-width="2"
     stroke-miterlimit="10"
     stroke-linecap="round"
     stroke-linejoin="round"
     id="path108" />
  <path
     d="m 426.2636,323.903 -5.349,-3.965"
     stroke="#000000"
     stroke-width="2"
     stroke-miterlimit="10"
     stroke-linecap="round"
     stroke-linejoin="round"
     id="path110" />
  <path
     d="m 387.8256,296.148 -1.189,7.931"
     stroke="#000000"
     stroke-width="2"
     stroke-miterlimit="10"
     stroke-linecap="round"
     stroke-linejoin="round"
     id="path112" />
</svg>
