<svg width="472" height="386" viewBox="0 0 472 386" fill="none" xmlns="http://www.w3.org/2000/svg">
<circle cx="106" cy="281" r="27" stroke="black" stroke-width="2"/>
<path fill-rule="evenodd" clip-rule="evenodd" d="M87.6364 289C87.6087 288.509 87.5946 288.014 87.5946 287.516C87.5946 274.219 97.5888 263.439 109.917 263.439C112.561 263.439 115.098 263.935 117.452 264.846C114.124 261.822 109.826 260 105.134 260C94.5664 260 86 269.239 86 280.637C86 283.614 86.5845 286.444 87.6364 289Z" fill="black"/>
<path d="M107.105 294H104.562V277.143L99.4629 279.016V276.719L106.709 273.998H107.105V294Z" fill="black"/>
<circle cx="162" cy="281" r="27" stroke="black" stroke-width="2"/>
<path fill-rule="evenodd" clip-rule="evenodd" d="M143.636 289C143.609 288.509 143.595 288.014 143.595 287.516C143.595 274.219 153.589 263.439 165.917 263.439C168.561 263.439 171.098 263.935 173.452 264.846C170.124 261.822 165.826 260 161.134 260C150.566 260 142 269.239 142 280.637C142 283.614 142.584 286.444 143.636 289Z" fill="black"/>
<path d="M167.836 294H154.793V292.182L161.684 284.525C162.704 283.368 163.406 282.429 163.789 281.709C164.181 280.98 164.377 280.228 164.377 279.453C164.377 278.414 164.062 277.562 163.434 276.896C162.805 276.231 161.966 275.898 160.918 275.898C159.66 275.898 158.68 276.258 157.979 276.979C157.286 277.689 156.939 278.683 156.939 279.959H154.41C154.41 278.127 154.998 276.646 156.174 275.516C157.359 274.385 158.94 273.82 160.918 273.82C162.768 273.82 164.231 274.308 165.307 275.283C166.382 276.249 166.92 277.539 166.92 279.152C166.92 281.112 165.671 283.445 163.174 286.152L157.842 291.936H167.836V294Z" fill="black"/>
<circle cx="218" cy="281" r="27" stroke="black" stroke-width="2"/>
<path fill-rule="evenodd" clip-rule="evenodd" d="M199.636 289C199.609 288.509 199.595 288.014 199.595 287.516C199.595 274.219 209.589 263.439 221.917 263.439C224.561 263.439 227.098 263.935 229.452 264.846C226.124 261.822 221.826 260 217.134 260C206.566 260 198 269.239 198 280.637C198 283.614 198.584 286.444 199.636 289Z" fill="black"/>
<path d="M214.471 282.816H216.371C217.565 282.798 218.504 282.484 219.188 281.873C219.871 281.262 220.213 280.438 220.213 279.398C220.213 277.065 219.051 275.898 216.727 275.898C215.633 275.898 214.758 276.213 214.102 276.842C213.454 277.462 213.131 278.286 213.131 279.316H210.602C210.602 277.74 211.176 276.432 212.324 275.393C213.482 274.344 214.949 273.82 216.727 273.82C218.604 273.82 220.076 274.317 221.143 275.311C222.209 276.304 222.742 277.685 222.742 279.453C222.742 280.319 222.46 281.158 221.895 281.969C221.339 282.78 220.577 283.386 219.611 283.787C220.705 284.133 221.548 284.708 222.141 285.51C222.742 286.312 223.043 287.292 223.043 288.449C223.043 290.236 222.46 291.653 221.293 292.701C220.126 293.749 218.609 294.273 216.74 294.273C214.872 294.273 213.35 293.768 212.174 292.756C211.007 291.744 210.424 290.409 210.424 288.75H212.967C212.967 289.798 213.309 290.637 213.992 291.266C214.676 291.895 215.592 292.209 216.74 292.209C217.962 292.209 218.896 291.89 219.543 291.252C220.19 290.614 220.514 289.698 220.514 288.504C220.514 287.346 220.158 286.458 219.447 285.838C218.736 285.218 217.711 284.899 216.371 284.881H214.471V282.816Z" fill="black"/>
<path d="M104.082 253.604L99.5006 75.0002" stroke="black" stroke-width="2"/>
<path d="M105 253.5L110 75.0002" stroke="black" stroke-width="2"/>
<path d="M161.61 253.604L157.028 75.0002" stroke="black" stroke-width="2"/>
<path d="M162.527 253.5L167.528 75.0002" stroke="black" stroke-width="2"/>
<path d="M216.61 253.604L212.028 75.0002" stroke="black" stroke-width="2"/>
<path d="M217.527 253.5L222.528 75.0002" stroke="black" stroke-width="2"/>
<path d="M266.5 74.5L336.5 234.5L279 74.5" stroke="black" stroke-width="2" stroke-linecap="round"/>
<line x1="77" y1="75" x2="374" y2="75" stroke="black" stroke-width="4"/>
<circle cx="350.249" cy="255.249" r="28" transform="rotate(-30 350.249 255.249)" fill="#DB00C5"/>
<path fill-rule="evenodd" clip-rule="evenodd" d="M338.345 271.359C338.075 270.948 337.816 270.526 337.567 270.095C330.918 258.579 334.184 244.247 344.86 238.083C347.15 236.76 349.595 235.921 352.089 235.533C347.695 234.578 343.062 235.149 338.998 237.496C329.846 242.779 327.047 255.064 332.746 264.935C334.235 267.513 336.156 269.671 338.345 271.359Z" fill="white"/>
<path d="M356.411 258.982L358.803 257.601L359.835 259.389L357.444 260.77L359.754 264.772L357.552 266.043L355.241 262.041L347.391 266.574L346.646 265.283L347.468 248.879L349.801 247.533L356.411 258.982ZM348.845 263.35L354.209 260.254L349.328 251.8L349.341 252.424L348.845 263.35Z" fill="white"/>
</svg>
