<?xml version="1.0" encoding="UTF-8" standalone="no"?>
<svg
   width="233"
   height="204"
   viewBox="0 0 233 204"
   fill="none"
   version="1.1"
   id="svg62"
   sodipodi:docname="queue-illustration--dimmed.svg"
   inkscape:version="1.1 (c68e22c387, 2021-05-23)"
   xmlns:inkscape="http://www.inkscape.org/namespaces/inkscape"
   xmlns:sodipodi="http://sodipodi.sourceforge.net/DTD/sodipodi-0.dtd"
   xmlns="http://www.w3.org/2000/svg"
   xmlns:svg="http://www.w3.org/2000/svg">
  <defs
     id="defs66" />
  <sodipodi:namedview
     id="namedview64"
     pagecolor="#ffffff"
     bordercolor="#666666"
     borderopacity="1.0"
     inkscape:pageshadow="2"
     inkscape:pageopacity="0.0"
     inkscape:pagecheckerboard="0"
     showgrid="false"
     inkscape:zoom="0.50980392"
     inkscape:cx="-532.55769"
     inkscape:cy="422.71154"
     inkscape:window-width="1920"
     inkscape:window-height="1017"
     inkscape:window-x="-8"
     inkscape:window-y="-8"
     inkscape:window-maximized="1"
     inkscape:current-layer="svg62" />
  <path
     d="m 45.391062,93.9558 c 3.341,-6.0754 10.328,-7.2905 16.251,-4.7084 12.759,5.6197 27.947,10.0243 41.919998,6.3791 11.695,-3.0377 21.264,-11.2394 23.239,-23.3901 1.063,-6.3792 8.505,-10.1763 14.429,-8.8093 6.682,1.6707 9.872,8.0498 8.8088,14.429 -3.1898,19.593 -19.5928,34.6299 -37.9708,40.2489 -20.807998,6.228 -42.679998,0.608 -61.968998,-7.898 -6.075,-2.582 -7.746,-10.9353 -4.708,-16.2512 z"
     fill="#ffffff"
     stroke="#000000"
     stroke-opacity="0.15"
     stroke-width="2"
     stroke-miterlimit="10"
     stroke-linecap="round"
     stroke-linejoin="round"
     id="path2" />
  <path
     d="m 72.423062,261.483 -38.882,-0.759 c -1.975,-36.3 8.657,-77.765 28.858,-108.141 19.441,-29.162 46.931998,-51.033 78.978998,-64.551 7.291,-10.0243 27.1876,-7.4423 26.8838,8.3536 -0.7594,31.2884 -2.1263,64.2474 10.0244,93.8644 9.2649,22.631 32.5031,33.87 54.0706,44.958 -4.1009,8.961 -14.8846,22.934 -19.7449,31.591 -27.0353,-13.517 -48.6028,-35.389 -60.4497,-63.183 -11.0872,-25.972 -13.6692,-53.767 -13.6692,-81.714 -48.602998,25.972 -75.030998,78.372 -66.069998,139.581 z"
     fill="#000000"
     fill-opacity="0.15"
     id="path4" />
  <path
     d="m 142.59206,56.7439 c 13.0624,-0.3038 20.9604,2.1264 27.4914,48.4511 l -40.2494,4.556 c 0,0 -2.43,-13.973 -4.101,-25.8199 -4.404,-3.7971 -2.43,-26.7315 16.859,-27.1872 z"
     fill="#000000"
     fill-opacity="0.15"
     id="path6" />
  <path
     d="m 166.74356,105.955 -22.6305,2.126"
     stroke="#ffffff"
     stroke-width="2"
     stroke-miterlimit="10"
     stroke-linecap="round"
     stroke-linejoin="round"
     id="path8" />
  <path
     d="M 46.751062,130.712 H 113.73206 L 88.215062,61.3008 h -66.98 z"
     fill="#ffffff"
     stroke="#000000"
     stroke-opacity="0.15"
     stroke-width="2"
     stroke-miterlimit="10"
     stroke-linecap="round"
     stroke-linejoin="round"
     id="path10" />
  <path
     d="m 42.953062,88.7913 h 42.224 l -3.493,-9.4168 h -42.224 z"
     fill="#000000"
     fill-opacity="0.15"
     id="path12" />
  <path
     d="m 60.115062,70.4137 -3.19,-8.6574"
     stroke="#000000"
     stroke-opacity="0.15"
     stroke-width="2"
     stroke-miterlimit="10"
     stroke-linecap="round"
     stroke-linejoin="round"
     id="path14" />
  <path
     d="m 91.861062,70.7173 c -0.456,0 -67.133,0 -67.133,0 z"
     fill="#ffffff"
     id="path16" />
  <path
     d="m 91.861062,70.7173 c -0.456,0 -67.133,0 -67.133,0"
     stroke="#000000"
     stroke-opacity="0.15"
     stroke-width="2"
     stroke-miterlimit="10"
     stroke-linecap="round"
     stroke-linejoin="round"
     id="path18" />
  <path
     d="m 98.847062,137.547 c -3.859,0 -6.987,-3.129 -6.987,-6.987 0,-3.859 3.128,-6.987 6.987,-6.987 3.857998,0 6.985998,3.128 6.985998,6.987 0,3.858 -3.128,6.987 -6.985998,6.987 z"
     fill="#ffffff"
     stroke="#000000"
     stroke-opacity="0.15"
     stroke-width="2"
     stroke-miterlimit="10"
     stroke-linecap="round"
     stroke-linejoin="round"
     id="path20" />
  <path
     d="m 59.663062,137.547 c -3.858,0 -6.987,-3.129 -6.987,-6.987 0,-3.859 3.129,-6.987 6.987,-6.987 3.859,0 6.987,3.128 6.987,6.987 0,3.858 -3.128,6.987 -6.987,6.987 z"
     fill="#ffffff"
     stroke="#000000"
     stroke-opacity="0.15"
     stroke-width="2"
     stroke-miterlimit="10"
     stroke-linecap="round"
     stroke-linejoin="round"
     id="path22" />
  <path
     d="m 19.564062,143.774 c 3.494,-11.391 11.695,-20.96 22.479,-25.365 1.215,3.19 2.278,6.379 3.493,9.569 -10.48,4.556 -16.859,15.188 -17.618,26.883 -1.063,15.644 5.771,28.554 15.492,40.25 17.467,20.808 39.642,14.732 62.727998,26.579 -1.367,3.19 -2.582,6.379 -3.797,9.417 -27.794998,-15.188 -48.146998,-0.911 -74.574998,-40.401 -8.961,-13.214 -13.062,-30.984 -8.202,-46.932 z"
     fill="#ffffff"
     stroke="#000000"
     stroke-opacity="0.15"
     stroke-width="2"
     stroke-miterlimit="10"
     stroke-linecap="round"
     stroke-linejoin="round"
     id="path24" />
  <path
     d="m 55.408062,205.135 -6.531,9.417"
     stroke="#000000"
     stroke-opacity="0.15"
     stroke-width="2"
     stroke-miterlimit="10"
     stroke-linecap="round"
     stroke-linejoin="round"
     id="path26" />
  <path
     d="m 43.408062,197.084 -6.531,5.772"
     stroke="#000000"
     stroke-opacity="0.15"
     stroke-width="2"
     stroke-miterlimit="10"
     stroke-linecap="round"
     stroke-linejoin="round"
     id="path28" />
  <path
     d="m 36.119062,186.605 -8.354,4.253"
     stroke="#000000"
     stroke-opacity="0.15"
     stroke-width="2"
     stroke-miterlimit="10"
     stroke-linecap="round"
     stroke-linejoin="round"
     id="path30" />
  <path
     d="m 29.587062,173.847 -7.898,2.734"
     stroke="#000000"
     stroke-opacity="0.15"
     stroke-width="2"
     stroke-miterlimit="10"
     stroke-linecap="round"
     stroke-linejoin="round"
     id="path32" />
  <path
     d="m 27.767062,164.733 -9.721,1.823"
     stroke="#000000"
     stroke-opacity="0.15"
     stroke-width="2"
     stroke-miterlimit="10"
     stroke-linecap="round"
     stroke-linejoin="round"
     id="path34" />
  <path
     d="m 27.462062,153.494 -9.417,-1.063"
     stroke="#000000"
     stroke-opacity="0.15"
     stroke-width="2"
     stroke-miterlimit="10"
     stroke-linecap="round"
     stroke-linejoin="round"
     id="path36" />
  <path
     d="m 29.587062,143.774 -8.353,-4.101"
     stroke="#000000"
     stroke-opacity="0.15"
     stroke-width="2"
     stroke-miterlimit="10"
     stroke-linecap="round"
     stroke-linejoin="round"
     id="path38" />
  <path
     d="m 36.576062,133.142 -5.924,-6.835"
     stroke="#000000"
     stroke-opacity="0.15"
     stroke-width="2"
     stroke-miterlimit="10"
     stroke-linecap="round"
     stroke-linejoin="round"
     id="path40" />
  <path
     d="m 56.475062,105.043 c 2.126,-6.6827 8.657,-9.1129 15.036,-7.7459 13.67,3.0379 29.465998,4.4049 42.375998,-1.9745 10.784,-5.316 18.681,-15.1884 18.226,-27.491 -0.304,-6.531 6.379,-11.6951 12.454,-11.5432 6.8351,0.3038 11.2397,5.9235 11.5435,12.4545 0.7594,19.7449 -12.3025,37.8191 -29.3135,46.9321 -19.137,10.328 -41.767998,8.961 -62.423998,4.405 -6.38,-1.367 -9.721,-9.265 -7.898,-15.037 z"
     fill="#ffffff"
     stroke="#000000"
     stroke-opacity="0.15"
     stroke-width="2"
     stroke-miterlimit="10"
     stroke-linecap="round"
     stroke-linejoin="round"
     id="path42" />
  <path
     d="m 73.029062,97.6011 c -9.417,-2.2782 -18.226,-7.5942 -19.897,-5.0121 -1.975,3.1895 6.835,3.4933 4.708,6.3791 -2.126,2.8859 -13.517,-4.5565 -15.188,-0.7594 -1.671,3.7973 10.328,7.2903 10.328,7.2903 0,0 -10.024,-4.405 -10.936,-1.063 -0.911,3.189 10.48,6.835 10.48,6.835 0,0 -10.024,-4.405 -10.632,-1.671 -0.607,3.038 8.05,6.835 23.391,10.48"
     fill="#ffffff"
     id="path44" />
  <path
     d="m 73.029062,97.6011 c -9.417,-2.2782 -18.226,-7.5942 -19.897,-5.0121 -1.975,3.1895 6.835,3.4933 4.708,6.3791 -2.126,2.8859 -13.517,-4.5565 -15.188,-0.7594 -1.671,3.7973 10.328,7.2903 10.328,7.2903 0,0 -10.024,-4.405 -10.936,-1.063 -0.911,3.189 10.48,6.835 10.48,6.835 0,0 -10.024,-4.405 -10.632,-1.671 -0.607,3.038 8.05,6.835 23.391,10.48"
     stroke="#000000"
     stroke-opacity="0.15"
     stroke-width="2"
     stroke-miterlimit="10"
     stroke-linecap="round"
     stroke-linejoin="round"
     id="path46" />
  <path
     d="m 71.509062,97.2969 -4.708,23.2381"
     stroke="#000000"
     stroke-opacity="0.15"
     stroke-width="2"
     stroke-miterlimit="10"
     stroke-linecap="round"
     stroke-linejoin="round"
     id="path48" />
  <circle
     cx="-129.37807"
     cy="40.593498"
     r="22.795099"
     fill="#ffffff"
     stroke="#000000"
     stroke-opacity="0.15"
     stroke-width="2"
     id="circle50"
     transform="scale(-1,1)" />
  <path
     d="m 119.81306,32.3779 c 1.484,-1.8937 4.115,-2.3103 5.876,-0.9305 1.76,1.3798 1.984,4.0336 0.5,5.9273"
     stroke="#000000"
     stroke-opacity="0.15"
     stroke-width="2"
     id="path52" />
  <path
     d="m 114.56506,29.6908 c 1.38,-1.7606 1.072,-4.3064 -0.689,-5.6863"
     stroke="#000000"
     stroke-opacity="0.15"
     stroke-width="2"
     id="path54" />
  <path
     d="m 106.28506,37.2948 2.623,4.9372 c 1.899,3.575 7.105,3.3164 8.641,-0.4292 0.105,-0.2571 -0.006,-0.5521 -0.254,-0.6763 l -9.916,-4.9533 c -0.716,-0.3577 -1.47,0.4147 -1.094,1.1216 z"
     fill="#000000"
     fill-opacity="0.15"
     id="path56" />
  <path
     d="m 166.84446,3.63525 -0.8575,-0.51449 1.7277,-2.879492 0.1291,3.355552 z m -8.6067,17.21355 -0.8,0.6 -0.7531,-1.0041 1.1469,-0.5098 z m 8.6067,4.5565 0.0905,-0.9959 0.8601,0.0782 0.0479,0.8622 z m -27.9044,12.2688 c 0.494,0.247 0.694,0.8477 0.447,1.3417 -0.247,0.4939 -0.847,0.6942 -1.341,0.4472 z m -14.424,-14.219 c -0.918,-1.2852 -2.009,-3.462 -2.33,-5.8928 -0.325,-2.4621 0.139,-5.2485 2.436,-7.5462 l 1.415,1.4142 c -1.753,1.7524 -2.133,3.8601 -1.868,5.8701 0.27,2.0413 1.205,3.9148 1.974,4.9922 z m 0.106,-13.439 c 1.403,-1.4031 2.885,-2.13957 4.468,-2.4141 1.553,-0.26923 3.138,-0.08206 4.73,0.24281 3.27,0.6673 6.578,1.87835 10.748,1.87835 v 2.00004 c -4.437,0 -8.216,-1.3204 -11.148,-1.91878 -1.509,-0.30799 -2.804,-0.43724 -3.988,-0.23183 -1.154,0.2001 -2.267,0.72931 -3.395,1.85771 z m 19.946,-0.29294 c 4.36,0 8.6565,0.12096 12.4519,-0.67485 3.7408,-0.78436 6.8732,-2.43794 8.967,-5.92755 l 1.715,1.02899 c -2.4628,4.10458 -6.1651,5.99495 -10.2716,6.85595 -4.0519,0.8496 -8.6153,0.7175 -12.8623,0.7175 z m 23.2757,-6.12634 c 0.0886,2.30532 -0.2541,5.93442 -1.5696,9.42798 -1.3163,3.4952 -3.6541,6.9706 -7.6303,8.7378 l -0.8123,-1.8277 c 3.3142,-1.4729 5.3642,-4.4105 6.5709,-7.615 1.2074,-3.20622 1.5228,-6.56378 1.4427,-8.64621 z m -8.8061,16.65198 c 0.8897,1.1861 3.7933,3.7875 7.8973,4.1606 l -0.181,1.9918 c -4.8065,-0.437 -8.1807,-3.4384 -9.3162,-4.9524 z m 8.8053,5.101 c 0.1029,1.8536 -0.7302,4.4179 -3.3053,6.4368 -2.5701,2.015 -6.7956,3.4319 -13.4191,3.2249 l 0.0625,-1.999 c 6.3373,0.1981 10.0434,-1.1696 12.1226,-2.7998 2.0743,-1.6263 2.6081,-3.5679 2.5423,-4.752 z m -16.7244,9.6617 c -6.4085,-0.2002 -9.5685,0.8157 -10.9785,1.7662 -0.698,0.4708 -0.904,0.8802 -0.952,1.0621 -0.066,0.2509 0.101,0.0086 -0.248,-0.1657 l -0.894,1.7889 c -0.855,-0.4275 -0.98,-1.4165 -0.793,-2.1307 0.206,-0.7832 0.797,-1.5573 1.769,-2.2129 1.932,-1.3025 5.606,-2.3117 12.159,-2.1069 z"
     fill="#000000"
     fill-opacity="0.15"
     id="path58" />
  <path
     d="m 132.63306,49.1775 c 2.531,1.4615 5.859,0.4363 7.433,-2.2897 1.574,-2.7261 0.958,-6.8579 -1.574,-8.3194"
     stroke="#000000"
     stroke-opacity="0.15"
     stroke-width="2"
     id="path60" />
</svg>
