<svg width="233" height="204" viewBox="0 0 233 204" fill="none" xmlns="http://www.w3.org/2000/svg">
<path d="M203.458 93.9558C200.117 87.8804 193.13 86.6653 187.207 89.2474C174.448 94.8671 159.26 99.2717 145.287 95.6265C133.592 92.5888 124.023 84.3871 122.048 72.2364C120.985 65.8572 113.543 62.0601 107.619 63.4271C100.937 65.0978 97.747 71.4769 98.8102 77.8561C102 97.4491 118.403 112.486 136.781 118.105C157.589 124.333 179.461 118.713 198.75 110.207C204.825 107.625 206.496 99.2717 203.458 93.9558Z" fill="white" stroke="black" stroke-width="2" stroke-miterlimit="10" stroke-linecap="round" stroke-linejoin="round"/>
<path d="M176.426 261.483L215.308 260.724C217.283 224.424 206.651 182.959 186.45 152.583C167.009 123.421 139.518 101.55 107.471 88.032C100.18 78.0077 80.2834 80.5897 80.5872 96.3856C81.3466 127.674 82.7135 160.633 70.5628 190.25C61.2979 212.881 38.0597 224.12 16.4922 235.208C20.5931 244.169 31.3768 258.142 36.2371 266.799C63.2724 253.282 84.8399 231.41 96.6868 203.616C107.774 177.644 110.356 149.849 110.356 121.902C158.959 147.874 185.387 200.274 176.426 261.483Z" fill="black"/>
<path d="M106.257 56.7439C93.1946 56.4401 85.2966 58.8703 78.7656 105.195L119.015 109.751C119.015 109.751 121.445 95.778 123.116 83.9311C127.52 80.134 125.546 57.1996 106.257 56.7439Z" fill="black"/>
<path d="M82.1055 105.955L104.736 108.081" stroke="white" stroke-width="2" stroke-miterlimit="10" stroke-linecap="round" stroke-linejoin="round"/>
<path d="M202.098 130.712H135.117L160.634 61.3008H227.614L202.098 130.712Z" fill="white" stroke="black" stroke-width="2" stroke-miterlimit="10" stroke-linecap="round" stroke-linejoin="round"/>
<path d="M205.896 88.7913H163.672L167.165 79.3745H209.389L205.896 88.7913Z" fill="black"/>
<path d="M188.734 70.4137L191.924 61.7563" stroke="black" stroke-width="2" stroke-miterlimit="10" stroke-linecap="round" stroke-linejoin="round"/>
<path d="M156.988 70.7173C157.444 70.7173 224.121 70.7173 224.121 70.7173Z" fill="white"/>
<path d="M156.988 70.7173C157.444 70.7173 224.121 70.7173 224.121 70.7173" stroke="black" stroke-width="2" stroke-miterlimit="10" stroke-linecap="round" stroke-linejoin="round"/>
<path d="M150.002 137.547C153.861 137.547 156.989 134.418 156.989 130.56C156.989 126.701 153.861 123.573 150.002 123.573C146.144 123.573 143.016 126.701 143.016 130.56C143.016 134.418 146.144 137.547 150.002 137.547Z" fill="white" stroke="black" stroke-width="2" stroke-miterlimit="10" stroke-linecap="round" stroke-linejoin="round"/>
<path d="M189.186 137.547C193.044 137.547 196.173 134.418 196.173 130.56C196.173 126.701 193.044 123.573 189.186 123.573C185.327 123.573 182.199 126.701 182.199 130.56C182.199 134.418 185.327 137.547 189.186 137.547Z" fill="white" stroke="black" stroke-width="2" stroke-miterlimit="10" stroke-linecap="round" stroke-linejoin="round"/>
<path d="M229.285 143.774C225.791 132.383 217.59 122.814 206.806 118.409C205.591 121.599 204.528 124.788 203.313 127.978C213.793 132.534 220.172 143.166 220.931 154.861C221.994 170.505 215.16 183.415 205.439 195.111C187.972 215.919 165.797 209.843 142.711 221.69C144.078 224.88 145.293 228.069 146.508 231.107C174.303 215.919 194.655 230.196 221.083 190.706C230.044 177.492 234.145 159.722 229.285 143.774Z" fill="white" stroke="black" stroke-width="2" stroke-miterlimit="10" stroke-linecap="round" stroke-linejoin="round"/>
<path d="M193.441 205.135L199.972 214.552" stroke="black" stroke-width="2" stroke-miterlimit="10" stroke-linecap="round" stroke-linejoin="round"/>
<path d="M205.441 197.084L211.972 202.856" stroke="black" stroke-width="2" stroke-miterlimit="10" stroke-linecap="round" stroke-linejoin="round"/>
<path d="M212.73 186.605L221.084 190.858" stroke="black" stroke-width="2" stroke-miterlimit="10" stroke-linecap="round" stroke-linejoin="round"/>
<path d="M219.262 173.847L227.16 176.581" stroke="black" stroke-width="2" stroke-miterlimit="10" stroke-linecap="round" stroke-linejoin="round"/>
<path d="M221.082 164.733L230.803 166.556" stroke="black" stroke-width="2" stroke-miterlimit="10" stroke-linecap="round" stroke-linejoin="round"/>
<path d="M221.387 153.494L230.804 152.431" stroke="black" stroke-width="2" stroke-miterlimit="10" stroke-linecap="round" stroke-linejoin="round"/>
<path d="M219.262 143.774L227.615 139.673" stroke="black" stroke-width="2" stroke-miterlimit="10" stroke-linecap="round" stroke-linejoin="round"/>
<path d="M212.273 133.142L218.197 126.307" stroke="black" stroke-width="2" stroke-miterlimit="10" stroke-linecap="round" stroke-linejoin="round"/>
<path d="M192.374 105.043C190.248 98.3603 183.717 95.9301 177.338 97.2971C163.668 100.335 147.872 101.702 134.962 95.3226C124.178 90.0066 116.281 80.1342 116.736 67.8316C117.04 61.3006 110.357 56.1365 104.282 56.2884C97.4469 56.5922 93.0423 62.2119 92.7385 68.7429C91.9791 88.4878 105.041 106.562 122.052 115.675C141.189 126.003 163.82 124.636 184.476 120.08C190.856 118.713 194.197 110.815 192.374 105.043Z" fill="white" stroke="black" stroke-width="2" stroke-miterlimit="10" stroke-linecap="round" stroke-linejoin="round"/>
<path d="M175.82 97.6011C185.237 95.3229 194.046 90.0069 195.717 92.589C197.692 95.7785 188.882 96.0823 191.009 98.9681C193.135 101.854 204.526 94.4116 206.197 98.2087C207.868 102.006 195.869 105.499 195.869 105.499C195.869 105.499 205.893 101.094 206.805 104.436C207.716 107.625 196.325 111.271 196.325 111.271C196.325 111.271 206.349 106.866 206.957 109.6C207.564 112.638 198.907 116.435 183.566 120.08" fill="white"/>
<path d="M175.82 97.6011C185.237 95.3229 194.046 90.0069 195.717 92.589C197.692 95.7785 188.882 96.0823 191.009 98.9681C193.135 101.854 204.526 94.4116 206.197 98.2087C207.868 102.006 195.869 105.499 195.869 105.499C195.869 105.499 205.893 101.094 206.805 104.436C207.716 107.625 196.325 111.271 196.325 111.271C196.325 111.271 206.349 106.866 206.957 109.6C207.564 112.638 198.907 116.435 183.566 120.08" stroke="black" stroke-width="2" stroke-miterlimit="10" stroke-linecap="round" stroke-linejoin="round"/>
<path d="M177.34 97.2969L182.048 120.535" stroke="black" stroke-width="2" stroke-miterlimit="10" stroke-linecap="round" stroke-linejoin="round"/>
<circle cx="119.471" cy="40.5935" r="22.7951" fill="white" stroke="black" stroke-width="2"/>
<path d="M129.036 32.3779C127.552 30.4842 124.921 30.0676 123.16 31.4474C121.4 32.8272 121.176 35.481 122.66 37.3747" stroke="black" stroke-width="2"/>
<path d="M134.284 29.6908C132.904 27.9302 133.212 25.3844 134.973 24.0045" stroke="black" stroke-width="2"/>
<path d="M142.564 37.2948L139.941 42.232C138.042 45.807 132.836 45.5484 131.3 41.8028C131.195 41.5457 131.306 41.2507 131.554 41.1265L141.47 36.1732C142.186 35.8155 142.94 36.5879 142.564 37.2948Z" fill="black"/>
<path d="M82.0046 3.63525L82.8621 3.12076L81.1344 0.241268L81.0053 3.59682L82.0046 3.63525ZM90.6113 20.8488L91.4113 21.4488L92.1644 20.4447L91.0175 19.9349L90.6113 20.8488ZM82.0046 25.4053L81.9141 24.4094L81.054 24.4876L81.0061 25.3498L82.0046 25.4053ZM109.909 37.6741C109.415 37.9211 109.215 38.5218 109.462 39.0158C109.709 39.5097 110.309 39.71 110.803 39.463L109.909 37.6741ZM124.333 23.4551C125.251 22.1699 126.342 19.9931 126.663 17.5623C126.988 15.1002 126.524 12.3138 124.227 10.0161L122.812 11.4303C124.565 13.1827 124.945 15.2904 124.68 17.3004C124.41 19.3417 123.475 21.2152 122.706 22.2926L124.333 23.4551ZM124.227 10.0161C122.824 8.613 121.342 7.87653 119.759 7.602C118.206 7.33277 116.621 7.51994 115.029 7.84481C111.759 8.51211 108.451 9.72316 104.281 9.72316V11.7232C108.718 11.7232 112.497 10.4028 115.429 9.80442C116.938 9.49643 118.233 9.36718 119.417 9.57259C120.571 9.77269 121.684 10.3019 122.812 11.4303L124.227 10.0161ZM104.281 9.72316C99.921 9.72316 95.6245 9.84412 91.8291 9.04831C88.0883 8.26395 84.9559 6.61037 82.8621 3.12076L81.1471 4.14975C83.6099 8.25433 87.3122 10.1447 91.4187 11.0057C95.4706 11.8553 100.034 11.7232 104.281 11.7232V9.72316ZM81.0053 3.59682C80.9167 5.90214 81.2594 9.53124 82.5749 13.0248C83.8912 16.52 86.229 19.9954 90.2052 21.7626L91.0175 19.9349C87.7033 18.462 85.6533 15.5244 84.4466 12.3199C83.2392 9.11368 82.9238 5.75612 83.0039 3.67369L81.0053 3.59682ZM89.8114 20.2488C88.9217 21.4349 86.0181 24.0363 81.9141 24.4094L82.0951 26.4012C86.9016 25.9642 90.2758 22.9628 91.4113 21.4488L89.8114 20.2488ZM81.0061 25.3498C80.9032 27.2034 81.7363 29.7677 84.3114 31.7866C86.8815 33.8016 91.107 35.2185 97.7305 35.0115L97.668 33.0125C91.3307 33.2106 87.6246 31.8429 85.5454 30.2127C83.4711 28.5864 82.9373 26.6448 83.0031 25.4607L81.0061 25.3498ZM97.7305 35.0115C104.139 34.8113 107.299 35.8272 108.709 36.7777C109.407 37.2485 109.613 37.6579 109.661 37.8398C109.727 38.0907 109.56 37.8484 109.909 37.6741L110.803 39.463C111.658 39.0355 111.783 38.0465 111.596 37.3323C111.39 36.5491 110.799 35.775 109.827 35.1194C107.895 33.8169 104.221 32.8077 97.668 33.0125L97.7305 35.0115Z" fill="black"/>
<path d="M116.216 49.1775C113.685 50.639 110.357 49.6138 108.783 46.8878C107.209 44.1617 107.825 40.0299 110.357 38.5684" stroke="black" stroke-width="2"/>
</svg>
