<svg width="525" height="501" viewBox="0 0 525 501" fill="none" xmlns="http://www.w3.org/2000/svg">
<path d="M458.046 335.773C458.046 437.704 375.459 520.13 273.709 520.13C171.958 520.13 89.3711 437.704 89.3711 335.773C89.3711 233.842 171.958 151.415 273.709 151.415C375.459 151.415 458.046 214.846 458.046 335.773Z" fill="#DB00C5"/>
<path d="M220.458 54.4023V446.692" stroke="black" stroke-width="2" stroke-miterlimit="10" stroke-linecap="round" stroke-linejoin="round"/>
<path d="M232.33 85.4395H220.968" stroke="black" stroke-width="2" stroke-miterlimit="10" stroke-linecap="round" stroke-linejoin="round"/>
<path d="M280.491 85.4395H232.329V141.747H280.491V85.4395Z" stroke="black" stroke-width="2" stroke-miterlimit="10" stroke-linecap="round" stroke-linejoin="round"/>
<path d="M243.521 97.4814H263.532" stroke="black" stroke-width="2" stroke-miterlimit="10" stroke-linecap="round" stroke-linejoin="round"/>
<path d="M243.521 105.622C248.1 105.622 252.679 105.622 257.258 105.622" stroke="black" stroke-width="2" stroke-miterlimit="10" stroke-linecap="round" stroke-linejoin="round"/>
<path d="M250.135 119.19H243.521V132.759H250.135V119.19Z" fill="black"/>
<path d="M259.801 115.968H253.188V132.589H259.801V115.968Z" fill="black"/>
<path d="M269.468 120.378H262.854V132.759H269.468V120.378Z" fill="black"/>
<path d="M223.342 44.9047C228.768 58.9817 220.798 75.0939 220.798 75.0939C220.798 75.0939 204.348 68.3098 198.922 54.0632C193.495 39.9862 201.465 23.874 201.465 23.874C201.465 23.874 217.915 30.8277 223.342 44.9047Z" fill="white" stroke="black" stroke-width="2" stroke-miterlimit="10" stroke-linecap="round" stroke-linejoin="round"/>
<path d="M273.029 177.534C253.018 195.851 221.137 193.307 221.137 193.307C221.137 193.307 221.476 161.252 241.487 143.105C261.498 124.957 293.379 127.332 293.379 127.332C293.379 127.332 293.04 159.386 273.029 177.534Z" fill="white" stroke="black" stroke-width="2" stroke-miterlimit="10" stroke-linecap="round" stroke-linejoin="round"/>
<path d="M220.797 75.0943L211.131 49.4844" stroke="black" stroke-width="2" stroke-miterlimit="10" stroke-linecap="round" stroke-linejoin="round"/>
<path d="M221.307 193.477L264.72 151.585" stroke="black" stroke-width="2" stroke-miterlimit="10" stroke-linecap="round" stroke-linejoin="round"/>
<path d="M211.64 342.557C190.103 368.336 150.59 370.711 150.59 370.711C150.59 370.711 145.842 331.363 167.209 305.584C188.577 279.804 228.26 277.43 228.26 277.43C228.26 277.43 233.177 316.777 211.64 342.557Z" fill="white" stroke="black" stroke-width="2" stroke-miterlimit="10" stroke-linecap="round" stroke-linejoin="round"/>
<path d="M235.382 209.249H161.613V263.691H235.382V209.249Z" fill="white" stroke="black" stroke-width="2" stroke-miterlimit="10" stroke-linecap="round" stroke-linejoin="round"/>
<path d="M161.613 209.249H150.251" stroke="black" stroke-width="2" stroke-miterlimit="10" stroke-linecap="round" stroke-linejoin="round"/>
<path d="M176.367 251.65L185.864 237.404L195.869 240.287L216.389 219.935" stroke="black" stroke-width="2" stroke-miterlimit="10" stroke-linecap="round" stroke-linejoin="round"/>
<path d="M211.132 219.935L217.746 218.408V224.344" stroke="black" stroke-width="2" stroke-miterlimit="10" stroke-linecap="round" stroke-linejoin="round"/>
<path d="M187.56 218.408H176.367V224.344H187.56V218.408Z" stroke="black" stroke-width="2" stroke-miterlimit="10" stroke-linecap="round" stroke-linejoin="round"/>
<path d="M150.251 143.443V453.476" stroke="black" stroke-width="2" stroke-miterlimit="10" stroke-linecap="round" stroke-linejoin="round"/>
<path d="M137.363 243.339C152.625 260.469 150.082 287.605 150.082 287.605C150.082 287.605 122.948 286.757 107.855 269.628C92.5928 252.498 95.1365 225.361 95.1365 225.361C95.1365 225.361 122.1 226.04 137.363 243.339Z" fill="white" stroke="black" stroke-width="2" stroke-miterlimit="10" stroke-linecap="round" stroke-linejoin="round"/>
<path d="M173.993 129.536C168.058 143.783 150.93 150.228 150.93 150.228C150.93 150.228 143.468 133.437 149.403 119.19C155.339 104.944 172.467 98.499 172.467 98.499C172.467 98.499 179.929 115.29 173.993 129.536Z" fill="white" stroke="black" stroke-width="2" stroke-miterlimit="10" stroke-linecap="round" stroke-linejoin="round"/>
<path d="M132.954 143.274C127.357 135.472 129.562 124.278 129.562 124.278C129.562 124.278 140.754 125.805 146.351 133.606C151.947 141.408 149.742 152.602 149.742 152.602C149.742 152.602 138.55 151.075 132.954 143.274Z" fill="white" stroke="black" stroke-width="2" stroke-miterlimit="10" stroke-linecap="round" stroke-linejoin="round"/>
<path d="M150.591 370.541L187.56 322.713" stroke="black" stroke-width="2" stroke-miterlimit="10" stroke-linecap="round" stroke-linejoin="round"/>
<path d="M126.001 256.398L150.082 287.436" stroke="black" stroke-width="2" stroke-miterlimit="10" stroke-linecap="round" stroke-linejoin="round"/>
<path d="M139.567 138.525L149.742 152.602" stroke="black" stroke-width="2" stroke-miterlimit="10" stroke-linecap="round" stroke-linejoin="round"/>
<path d="M164.666 119.19L150.76 150.228" stroke="black" stroke-width="2" stroke-miterlimit="10" stroke-linecap="round" stroke-linejoin="round"/>
<path d="M235.382 77.468L240.13 71.8711" stroke="black" stroke-width="2" stroke-miterlimit="10" stroke-linecap="round" stroke-linejoin="round"/>
<path d="M259.633 74.5847L268.79 71.8711" stroke="black" stroke-width="2" stroke-miterlimit="10" stroke-linecap="round" stroke-linejoin="round"/>
<path d="M264.381 43.5479L266.246 49.4839" stroke="black" stroke-width="2" stroke-miterlimit="10" stroke-linecap="round" stroke-linejoin="round"/>
<path d="M351.547 199.752L353.243 205.518" stroke="black" stroke-width="2" stroke-miterlimit="10" stroke-linecap="round" stroke-linejoin="round"/>
<path d="M375.119 185.505L372.066 193.476" stroke="black" stroke-width="2" stroke-miterlimit="10" stroke-linecap="round" stroke-linejoin="round"/>
<path d="M373.593 150.228L367.488 152.602" stroke="black" stroke-width="2" stroke-miterlimit="10" stroke-linecap="round" stroke-linejoin="round"/>
<path d="M401.235 299.986L407.001 305.414" stroke="black" stroke-width="2" stroke-miterlimit="10" stroke-linecap="round" stroke-linejoin="round"/>
<path d="M407.001 322.544L404.118 327.971" stroke="black" stroke-width="2" stroke-miterlimit="10" stroke-linecap="round" stroke-linejoin="round"/>
<path d="M431.76 267.593L428.029 272.511" stroke="black" stroke-width="2" stroke-miterlimit="10" stroke-linecap="round" stroke-linejoin="round"/>
<path d="M169.076 284.044L166.362 290.998" stroke="black" stroke-width="2" stroke-miterlimit="10" stroke-linecap="round" stroke-linejoin="round"/>
<path d="M181.963 284.043L187.559 281.669" stroke="black" stroke-width="2" stroke-miterlimit="10" stroke-linecap="round" stroke-linejoin="round"/>
<path d="M165.344 152.433L160.596 158.538" stroke="black" stroke-width="2" stroke-miterlimit="10" stroke-linecap="round" stroke-linejoin="round"/>
<path d="M189.425 158.369L195.869 156.503" stroke="black" stroke-width="2" stroke-miterlimit="10" stroke-linecap="round" stroke-linejoin="round"/>
<path d="M193.495 450.254L196.378 458.395" stroke="black" stroke-width="2" stroke-miterlimit="10" stroke-linecap="round" stroke-linejoin="round"/>
<path d="M184.677 454.324L187.56 458.395" stroke="black" stroke-width="2" stroke-miterlimit="10" stroke-linecap="round" stroke-linejoin="round"/>
<path d="M268.79 446.862L264.381 458.395" stroke="black" stroke-width="2" stroke-miterlimit="10" stroke-linecap="round" stroke-linejoin="round"/>
<path d="M205.027 458.395L240.131 457.207C240.131 457.207 239.114 440.417 239.283 432.276C239.453 424.135 214.863 428.884 214.863 428.884L214.524 446.353C214.354 446.353 204.688 449.914 205.027 458.395Z" fill="white" stroke="black" stroke-width="2" stroke-miterlimit="10" stroke-linecap="round" stroke-linejoin="round"/>
<path d="M214.693 444.996H221.816" stroke="black" stroke-width="2" stroke-miterlimit="10" stroke-linecap="round" stroke-linejoin="round"/>
<path d="M389.874 455.342L409.885 426.51C409.885 426.51 395.979 417.351 389.365 412.263C382.921 407.345 372.067 429.902 372.067 429.902L385.804 440.587C385.804 440.587 382.921 450.424 389.874 455.342Z" fill="white" stroke="black" stroke-width="2" stroke-miterlimit="10" stroke-linecap="round" stroke-linejoin="round"/>
<path d="M384.956 439.569L389.196 433.803" stroke="black" stroke-width="2" stroke-miterlimit="10" stroke-linecap="round" stroke-linejoin="round"/>
<path d="M297.281 274.545C292.193 269.457 281.848 268.609 276.931 274.545C239.622 318.981 216.898 378.003 213.167 435.837C221.985 438.212 241.657 440.586 241.657 440.077C244.201 388.688 264.042 334.245 297.281 294.898C302.368 288.962 303.216 280.482 297.281 274.545Z" fill="black"/>
<path d="M374.441 436.007C381.055 429.054 387.839 420.913 394.283 413.789C350.53 373.085 325.262 321.526 323.566 261.656C323.058 243.17 294.228 243 294.737 261.656C296.772 328.988 324.923 390.215 374.441 436.007Z" fill="black"/>
<path d="M297.789 293.032L291.515 290.997" stroke="white" stroke-width="2" stroke-miterlimit="10" stroke-linecap="round" stroke-linejoin="round"/>
<path d="M357.823 299.647C351.718 300.326 345.443 301.174 339.338 302.022C339.338 302.192 339.338 302.361 339.168 302.531C338.829 305.244 339.508 307.788 340.695 310.163C341.373 311.35 342.39 311.859 343.408 311.859C347.478 310.332 351.718 309.824 355.957 309.824C357.483 306.601 357.992 303.209 357.823 299.647Z" fill="white"/>
<path d="M268.961 244.188C266.248 254.703 258.956 263.353 248.781 267.423C237.079 272.172 224.53 267.254 212.659 270.137C214.864 276.921 217.068 283.705 219.273 290.489C227.752 290.828 234.366 291.337 241.828 290.659C249.459 289.98 256.921 287.606 263.534 283.875C276.423 276.582 283.545 263.353 287.276 249.106C290.668 235.707 272.353 230.789 268.961 244.188Z" fill="black" stroke="black" stroke-width="2" stroke-miterlimit="10" stroke-linecap="round" stroke-linejoin="round"/>
<path d="M323.906 268.101L277.101 274.546C262.008 238.421 270.317 235.029 280.323 231.467C282.019 230.789 283.715 230.28 285.41 229.432C287.276 228.584 288.972 227.905 290.498 227.397C305.421 222.987 310.848 235.707 313.053 242.491C315.257 249.954 323.906 268.101 323.906 268.101Z" fill="white" stroke="black" stroke-width="2" stroke-miterlimit="10" stroke-linecap="round" stroke-linejoin="round"/>
<path d="M360.876 301.512C355.449 269.627 335.268 241.982 305.761 228.414C292.872 222.478 285.241 241.643 298.13 247.579C320.854 257.925 335.268 279.295 339.169 304.226C346.461 303.548 353.583 302.361 360.876 301.512Z" fill="black" stroke="black" stroke-width="2" stroke-miterlimit="10" stroke-linecap="round" stroke-linejoin="round"/>
<path d="M212.489 270.137C207.741 270.646 198.075 274.716 196.548 278.786C194.853 282.857 199.262 279.634 201.636 278.786C201.636 278.786 194.683 281.5 196.209 284.383C197.735 287.267 201.127 283.196 203.162 283.026C203.162 283.026 197.227 285.91 198.923 288.115C200.618 290.319 204.858 284.892 207.402 286.758C209.945 288.623 204.349 292.015 206.215 293.033C208.08 294.051 210.285 290.998 219.442 290.659" fill="white"/>
<path d="M212.489 270.137C207.741 270.646 198.075 274.716 196.548 278.786C194.853 282.857 199.262 279.634 201.636 278.786C201.636 278.786 194.683 281.5 196.209 284.383C197.735 287.267 201.127 283.196 203.162 283.026C203.162 283.026 197.227 285.91 198.923 288.115C200.618 290.319 204.858 284.892 207.402 286.758C209.945 288.623 204.349 292.015 206.215 293.033C208.08 294.051 210.285 290.998 219.442 290.659" stroke="black" stroke-width="2" stroke-miterlimit="10" stroke-linecap="round" stroke-linejoin="round"/>
<path d="M339.168 304.396C338.32 311.35 340.525 315.929 344.595 317.286Z" fill="white"/>
<path d="M339.168 304.396C338.32 311.35 340.525 315.929 344.595 317.286" stroke="black" stroke-width="2" stroke-miterlimit="10" stroke-linecap="round" stroke-linejoin="round"/>
<path d="M341.712 309.484C343.238 313.046 347.478 322.374 351.039 322.544C354.6 322.713 350.021 314.572 350.021 314.572C350.021 314.572 353.583 322.544 357.314 322.204C359.179 322.035 355.279 313.385 355.279 313.385C355.279 313.385 358.331 321.356 360.705 321.017C363.249 320.678 359.688 313.385 360.366 310.841C360.875 309.145 361.892 305.923 361.044 301.683" fill="white"/>
<path d="M341.712 309.484C343.238 313.046 347.478 322.374 351.039 322.544C354.6 322.713 350.021 314.572 350.021 314.572C350.021 314.572 353.583 322.544 357.314 322.204C359.179 322.035 355.279 313.385 355.279 313.385C355.279 313.385 358.331 321.356 360.705 321.017C363.249 320.678 359.688 313.385 360.366 310.841C360.875 309.145 361.892 305.923 361.044 301.683" stroke="black" stroke-width="2" stroke-miterlimit="10" stroke-linecap="round" stroke-linejoin="round"/>
<path d="M269.219 199.747C273.586 208.802 281.527 208.538 284.951 207.275L283.996 221.6L303.429 226.745C320.378 227.135 321.136 219.246 321.473 215.739C321.784 212.506 320.232 202.88 311.132 201.828C302.032 200.777 299.782 194.722 299.367 191.674C298.953 188.626 296.912 182.237 284.849 180.724C272.785 179.21 263.76 188.429 269.219 199.747Z" fill="white"/>
<path d="M264.493 212.365C262.68 210.943 262.086 208.54 263.063 206.649C264.041 204.758 266.346 203.854 268.554 204.512L264.493 212.365Z" fill="white" stroke="black" stroke-width="2"/>
<path d="M264.135 215.039C264.135 225.798 272.856 234.519 283.615 234.519C294.373 234.519 303.095 225.798 303.095 215.039C303.095 204.281 294.373 195.56 283.615 195.56C272.856 195.56 264.135 204.281 264.135 215.039Z" fill="white" stroke="black" stroke-width="2"/>
<path d="M275.148 225.142C274.215 226.303 273.291 227.048 271.528 227.21C268.474 227.49 267.356 225.403 266.943 224.593" stroke="black" stroke-width="2" stroke-miterlimit="10" stroke-linecap="round" stroke-linejoin="round"/>
<path d="M275.309 217.598C275.308 214.961 277.445 212.822 280.082 212.822C282.719 212.821 284.858 214.958 284.859 217.596" stroke="black" stroke-width="2"/>
<path d="M268.835 216.508C268.834 213.87 266.695 211.733 264.058 211.734" stroke="black" stroke-width="2"/>
<path d="M303.587 225.901C301.986 228.491 298.738 229.385 296.333 227.897C293.928 226.41 299.728 217.031 302.133 218.518C304.538 220.005 305.189 223.311 303.587 225.901Z" fill="white"/>
<path d="M293.844 227.345C296.937 229.012 301.115 228.01 303.175 225.107C305.235 222.205 304.398 218.5 301.304 216.834" stroke="black" stroke-width="2"/>
<path d="M297.105 223.919C298.171 224.494 299.611 224.149 300.322 223.148C301.032 222.147 300.743 220.87 299.676 220.296" stroke="black" stroke-width="2"/>
<path d="M284.879 206.956C281.404 208.072 273.459 207.996 269.483 198.763C264.512 187.222 273.922 178.397 285.91 180.424C297.899 182.451 299.664 188.922 299.948 191.985C300.233 195.048 302.221 201.193 311.268 202.632C320.315 204.072 321.454 213.755 321.006 216.972C320.52 220.461 319.425 228.311 302.508 227.197" stroke="black" stroke-width="2"/>
<path d="M309.151 421.762C282.187 395.643 283.035 351.038 283.035 351.038C283.035 351.038 327.466 349.002 354.43 375.291C381.394 401.579 380.546 446.015 380.546 446.015C380.546 446.015 336.115 447.88 309.151 421.762Z" fill="white" stroke="black" stroke-width="2" stroke-miterlimit="10" stroke-linecap="round" stroke-linejoin="round"/>
<path d="M363.248 335.773H380.546" stroke="black" stroke-width="2" stroke-miterlimit="10" stroke-linecap="round" stroke-linejoin="round"/>
<path d="M311.278 400.457H363.34V335.839H311.278V400.457Z" fill="white" stroke="black" stroke-width="2" stroke-miterlimit="10" stroke-linecap="round" stroke-linejoin="round"/>
<path d="M355.108 366.641C355.108 376.478 347.138 384.619 337.132 384.619C327.296 384.619 319.156 376.647 319.156 366.641C319.156 356.634 327.127 348.663 337.132 348.663C347.138 348.663 355.108 355.278 355.108 366.641Z" stroke="black" stroke-width="2" stroke-miterlimit="10" stroke-linecap="round" stroke-linejoin="round"/>
<path d="M350.021 353.412L337.302 366.641H355.108" stroke="black" stroke-width="2" stroke-miterlimit="10" stroke-linecap="round" stroke-linejoin="round"/>
<path d="M322.04 357.312L337.303 366.641" stroke="black" stroke-width="2" stroke-miterlimit="10" stroke-linecap="round" stroke-linejoin="round"/>
<path d="M346.29 387.841H353.921" stroke="black" stroke-width="2" stroke-miterlimit="10" stroke-linecap="round" stroke-linejoin="round"/>
<path d="M346.29 391.063H353.921" stroke="black" stroke-width="2" stroke-miterlimit="10" stroke-linecap="round" stroke-linejoin="round"/>
<path d="M380.546 458.396V237.404" stroke="black" stroke-width="2" stroke-miterlimit="10" stroke-linecap="round" stroke-linejoin="round"/>
<path d="M432.947 391.064C412.766 409.551 380.715 407.007 380.715 407.007C380.715 407.007 381.054 374.782 401.234 356.296C421.415 337.809 453.466 340.353 453.466 340.353C453.466 340.353 452.958 372.577 432.947 391.064Z" fill="white" stroke="black" stroke-width="2" stroke-miterlimit="10" stroke-linecap="round" stroke-linejoin="round"/>
<path d="M405.984 237.404C398.522 251.481 380.376 256.399 380.376 256.399C380.376 256.399 374.271 238.591 381.733 224.514C389.195 210.437 407.34 205.519 407.34 205.519C407.34 205.519 413.276 223.327 405.984 237.404Z" fill="white" stroke="black" stroke-width="2" stroke-miterlimit="10" stroke-linecap="round" stroke-linejoin="round"/>
<path d="M380.546 407.006L427.351 364.097" stroke="black" stroke-width="2" stroke-miterlimit="10" stroke-linecap="round" stroke-linejoin="round"/>
<path d="M346.29 409.55L380.546 446.014" stroke="black" stroke-width="2" stroke-miterlimit="10" stroke-linecap="round" stroke-linejoin="round"/>
<path d="M391.908 228.924L380.376 256.399" stroke="black" stroke-width="2" stroke-miterlimit="10" stroke-linecap="round" stroke-linejoin="round"/>
<path d="M375.119 335.773V341.879" stroke="black" stroke-width="2" stroke-miterlimit="10" stroke-linecap="round" stroke-linejoin="round"/>
</svg>
