<?xml version="1.0" encoding="utf-8"?>
<!-- Generator: Adobe Illustrator 23.0.3, SVG Export Plug-In . SVG Version: 6.00 Build 0)  -->
<svg version="1.1" id="Ebene_1" xmlns="http://www.w3.org/2000/svg" xmlns:xlink="http://www.w3.org/1999/xlink" x="0px" y="0px"
	 width="960px" height="279px" viewBox="0 0 960 279" style="enable-background:new 0 0 960 279;" xml:space="preserve">
<style type="text/css">
	.st0{fill:#FFFFFF;}
	.st1{fill:none;stroke:#000000;stroke-width:2;stroke-miterlimit:10;}
	.st2{fill:#FFFFFF;stroke:#000000;stroke-width:1.75;stroke-miterlimit:10;}
	.st3{fill:#FFFFFF;stroke:#000000;stroke-miterlimit:10;}
	.st4{fill:#FFFFFF;stroke:#000000;stroke-width:2;stroke-miterlimit:10;}
	.st5{stroke:#000000;stroke-width:2;stroke-miterlimit:10;}
	.st6{fill:none;stroke:#000000;stroke-width:2;stroke-linecap:round;stroke-linejoin:round;stroke-miterlimit:10;}
</style>
<path d="M658.2,194.5c-4.4,0-9-0.6-13.8-1.7c-11.8-2.8-27.6-11.8-36.4-38.3c-4.7-14.2-5.5-27.9-5.4-32c0.2-10.2,8.6-18.2,18.8-18
	c10.1,0.2,18.2,8.6,18,18.7c0,8.8,4.7,31.6,13.7,33.8c8.2,2,11.2-0.2,14.1-5c1.3-2.3,2-4.8,3.1-10c1-4.5,2.3-10.2,4.6-17.2
	c3.3-9.6,13.8-14.7,23.4-11.4c9.6,3.3,14.7,13.7,11.4,23.3c-1.7,5-2.6,9.1-3.5,13.2c-1.5,6.7-3,13.6-7.5,21
	C689.5,186.3,675.2,194.5,658.2,194.5z"/>
<path class="st0" d="M708.1,92.1l0.7-2.4c0.5-1.6-0.4-3.4-2.1-3.9c-1.6-0.5-3.4,0.4-3.9,2.1l-5.9,23.2"/>
<path class="st1" d="M708.1,92.1l0.7-2.4c0.5-1.6-0.4-3.4-2.1-3.9c-1.6-0.5-3.4,0.4-3.9,2.1l-5.9,23.2"/>
<path class="st0" d="M677.3,119l-1.9,7.4l34.4,8.9l9.5-37.2c0.5-1.6-0.4-3.4-2.1-3.9c-1.6-0.5-3.4,0.4-3.9,2.1l0.7-2.5
	c0.5-1.6-0.4-3.4-2.1-3.9c-1.6-0.5-3.4,0.4-3.9,2.1"/>
<path class="st1" d="M677.3,119l-1.9,7.4l34.4,8.9l9.5-37.2c0.5-1.6-0.4-3.4-2.1-3.9c-1.6-0.5-3.4,0.4-3.9,2.1l0.7-2.5
	c0.5-1.6-0.4-3.4-2.1-3.9c-1.6-0.5-3.4,0.4-3.9,2.1"/>
<path class="st0" d="M696.9,111l5.4-21.6c0.5-1.6-0.4-3.4-2.1-3.9c-1.6-0.5-3.4,0.4-3.9,2.1l-5.5,21.7c-0.6,2.4-2.8,4.2-5.5,4.1"/>
<path class="st1" d="M696.9,111l5.4-21.6c0.5-1.6-0.4-3.4-2.1-3.9c-1.6-0.5-3.4,0.4-3.9,2.1l-5.5,21.7c-0.6,2.4-2.8,4.2-5.5,4.1"/>
<path class="st0" d="M713.5,96.4l-4.6,17.7L713.5,96.4z"/>
<path class="st1" d="M713.5,96.4l-4.6,17.7"/>
<path class="st0" d="M702.8,112.5l5.3-20.4L702.8,112.5z"/>
<path class="st1" d="M702.8,112.5l5.3-20.4"/>
<path class="st2" d="M714.2,71.3l-25-6.4l-11.1,43.1l25,6.4L714.2,71.3z"/>
<path class="st2" d="M710.3,73.8l-18.9-4.9l-8.5,32.8l18.9,4.9L710.3,73.8z"/>
<path class="st3" d="M691.5,109.4c1,0,1.8-0.8,1.8-1.8c0-1-0.8-1.8-1.8-1.8c-1,0-1.8,0.8-1.8,1.8
	C689.7,108.6,690.5,109.4,691.5,109.4z"/>
<path class="st0" d="M685.5,113.5c-2.9-0.1-5.3-2.6-5.2-5.6c0.1-2.3,1.5-4.1,3.5-4.9l0.2-0.1c1.1-0.5,1.9-1.5,2-2.7
	c0.1-1.7-1.3-3.2-3-3.2c-0.7,0-1.1,0.1-1.5,0.3c-4.1,1.7-7.3,5.6-7.4,10.4c-0.1,3.6,1.4,6.9,3.9,9l-0.7,2.4"/>
<path class="st1" d="M685.5,113.5c-2.9-0.1-5.3-2.6-5.2-5.6c0.1-2.3,1.5-4.1,3.5-4.9l0.2-0.1c1.1-0.5,1.9-1.5,2-2.7
	c0.1-1.7-1.3-3.2-3-3.2c-0.7,0-1.1,0.1-1.5,0.3c-4.1,1.7-7.3,5.6-7.4,10.4c-0.1,3.6,1.4,6.9,3.9,9l-0.7,2.4"/>
<path class="st0" d="M458.7,199.7c-33.7-21.4-4.6-88.9-5.1-101.2s-14-21.3-17-28.7c-1.9-4.8-0.9-11.2,0-15.2c0.4-1.8,2.5-2.5,4-1.6
	l76.9,48.6c1.2,0.8,1.6,2.4,0.8,3.6l-28.6,45.1c-1.4,2.3,1.1,5,3.5,3.7c8.9-5,18.1-14.5,33.9-15.1c10.9-0.5,19.2,7,24.4,9.9
	c1.9,1,3.4,0.9,6.5-1.1c8.6-5.9,23.9-28.6,28.7-35.9c5.4-8.5,12.6-11.1,21.8-11.1c16.3,0,18.6,8.7,18.6,30.5
	c0,17.4-10.2,69.4-10.2,69.4"/>
<path class="st1" d="M458.7,199.7c-33.7-21.4-4.6-88.9-5.1-101.2s-14-21.3-17-28.7c-1.9-4.8-0.9-11.2,0-15.2c0.4-1.8,2.5-2.5,4-1.6
	l76.9,48.6c1.2,0.8,1.6,2.4,0.8,3.6l-28.6,45.1c-1.4,2.3,1.1,5,3.5,3.7c8.9-5,18.1-14.5,33.9-15.1c10.9-0.5,19.2,7,24.4,9.9
	c1.9,1,3.4,0.9,6.5-1.1c8.6-5.9,23.9-28.6,28.7-35.9c5.4-8.5,12.6-11.1,21.8-11.1c16.3,0,18.6,8.7,18.6,30.5
	c0,17.4-10.2,69.4-10.2,69.4"/>
<path class="st0" d="M460.2,154.1V85.9H363c0,0,2.8,11.6,9.2,16.3c6.4,4.7,22.6,5.1,29.6,15.2s18.6,82.7,58.5,82.7h44.2"/>
<path class="st1" d="M460.2,154.1V85.9H363c0,0,2.8,11.6,9.2,16.3c6.4,4.7,22.6,5.1,29.6,15.2s18.6,82.7,58.5,82.7h44.2"/>
<path class="st4" d="M598.8,95.9c4.2,0,7.6-3.4,7.6-7.6c0-4.2-3.4-7.6-7.6-7.6c-4.2,0-7.6,3.4-7.6,7.6
	C591.1,92.4,594.5,95.9,598.8,95.9z"/>
<path class="st4" d="M624.1,107C639,107,651,95,651,80.1c0-14.8-12-26.8-26.9-26.8c-14.8,0-26.9,12-26.9,26.8
	C597.2,95,609.3,107,624.1,107z"/>
<path class="st1" d="M596.8,91.1c-0.5-1.1-0.8-2.3-1.1-3.5"/>
<path class="st1" d="M634.6,62.4c0.8,2.6,3.5,4.4,6.4,4c2.6-0.5,4.7-2.8,4.8-5.5c0.1-2.3-1.2-4.2-3.1-5.2c-0.2-0.1-0.1-0.4,0.1-0.4
	c0.8,0,1.7-0.2,2.5-0.7c1.7-0.9,2.9-2.7,3-4.6c0.2-3.6-2.7-6.4-6.2-6.1c-2.1,0.2-3.9,1.4-4.7,3.2c-0.1,0.2-0.3,0.1-0.3-0.1
	c0-1.2-0.3-2.4-0.8-3.7c-1.4-3.1-4.5-5.2-7.8-5.2c-4.8-0.1-8.6,3.5-9,7.9c-7.2,1.7-11.5,7.2-12,13"/>
<path class="st1" d="M628.4,74.4c1,3-0.6,6.2-3.6,7.2c-3,1-6.2-0.6-7.3-3.6"/>
<path class="st1" d="M645.7,68.5c1,3-0.6,6.2-3.6,7.2c-3,1-6.2-0.6-7.3-3.6"/>
<path class="st5" d="M615.2,87.7c0.3,0,0.5-0.2,0.5-0.5c0-0.3-0.2-0.5-0.5-0.5c-0.3,0-0.5,0.2-0.5,0.5
	C614.7,87.5,614.9,87.7,615.2,87.7z"/>
<path class="st5" d="M618.2,89.1c0.3,0,0.5-0.2,0.5-0.5s-0.2-0.5-0.5-0.5c-0.3,0-0.5,0.2-0.5,0.5S617.9,89.1,618.2,89.1z"/>
<path class="st5" d="M610.6,89.2c0.3,0,0.5-0.2,0.5-0.5c0-0.3-0.2-0.5-0.5-0.5s-0.5,0.2-0.5,0.5C610.2,89,610.4,89.2,610.6,89.2z"/>
<path class="st5" d="M616.7,92.2c0.3,0,0.5-0.2,0.5-0.5c0-0.3-0.2-0.5-0.5-0.5c-0.3,0-0.5,0.2-0.5,0.5
	C616.2,92,616.4,92.2,616.7,92.2z"/>
<path class="st5" d="M612.2,93.8c0.3,0,0.5-0.2,0.5-0.5s-0.2-0.5-0.5-0.5c-0.3,0-0.5,0.2-0.5,0.5S612,93.8,612.2,93.8z"/>
<path class="st5" d="M613.7,90.7c0.3,0,0.5-0.2,0.5-0.5c0-0.3-0.2-0.5-0.5-0.5c-0.3,0-0.5,0.2-0.5,0.5
	C613.2,90.5,613.4,90.7,613.7,90.7z"/>
<path class="st5" d="M609,92.3c0.3,0,0.5-0.2,0.5-0.5c0-0.3-0.2-0.5-0.5-0.5c-0.3,0-0.5,0.2-0.5,0.5C608.6,92.1,608.8,92.3,609,92.3
	z"/>
<path d="M644,81l-9,3.7c0.6,1.4,0.6,4,0,5.6c-0.7,2-3.5,2-5,1.8c0.8,2.1,3,4.6,5,3.7l8-3.8C644.1,88.5,644.1,84.8,644,81z"/>
<path class="st6" d="M642,92c0,0-7,3-8,3s-3-1-3.6-3.5l-1-5.4L643,81"/>
<path d="M614.8,210c-19.7,0-36.2-2.2-46.1-14.2c-4.5-5.5-9.1-15.1-5.8-29.6c6.9-29.6,27.1-58.9,28-60.2c6.2-8.9,18.5-11.1,27.4-5
	c9,6.2,11.1,18.5,5,27.4c-0.2,0.2-14.4,21.1-20.6,41.7c7.2,0.8,18.9,0.4,27.3,0.2c8.1-0.2,16.5-0.5,25.3-0.3
	c10.9,0.2,19.6,9.1,19.4,20s-9.1,19.6-20.1,19.4c-7.9-0.1-15.8,0.1-23.6,0.3C625.3,209.9,620,210,614.8,210z"/>
<path class="st4" d="M671.8,180.3c2.6,0,4.8-2.2,4.8-4.8c0-2.6-2.2-4.8-4.8-4.8h-14.4V209h14.4c2.6,0,4.8-2.2,4.8-4.8
	c0-2.6-2.2-4.8-4.8-4.8c2.6,0,4.8-2.2,4.8-4.8s-2.2-4.8-4.8-4.8c2.6,0,4.8-2.2,4.8-4.8C676.5,182.5,674.5,180.3,671.8,180.3z"/>
</svg>
