<?xml version="1.0" encoding="utf-8"?>
<!-- Generator: Adobe Illustrator 23.0.6, SVG Export Plug-In . SVG Version: 6.00 Build 0)  -->
<!DOCTYPE svg PUBLIC "-//W3C//DTD SVG 1.1//EN" "http://www.w3.org/Graphics/SVG/1.1/DTD/svg11.dtd" [
	<!ENTITY ns_extend "http://ns.adobe.com/Extensibility/1.0/">
	<!ENTITY ns_ai "http://ns.adobe.com/AdobeIllustrator/10.0/">
	<!ENTITY ns_graphs "http://ns.adobe.com/Graphs/1.0/">
	<!ENTITY ns_vars "http://ns.adobe.com/Variables/1.0/">
	<!ENTITY ns_imrep "http://ns.adobe.com/ImageReplacement/1.0/">
	<!ENTITY ns_sfw "http://ns.adobe.com/SaveForWeb/1.0/">
	<!ENTITY ns_custom "http://ns.adobe.com/GenericCustomNamespace/1.0/">
	<!ENTITY ns_adobe_xpath "http://ns.adobe.com/XPath/1.0/">
]>
<svg version="1.1" xmlns:x="&ns_extend;" xmlns:i="&ns_ai;" xmlns:graph="&ns_graphs;"
	 xmlns="http://www.w3.org/2000/svg" xmlns:xlink="http://www.w3.org/1999/xlink" x="0px" y="0px" viewBox="0 0 960 279"
	 style="enable-background:new 0 0 960 279;" xml:space="preserve">
<style type="text/css">
	.st0{fill:#FFFFFF;}
	.st1{fill:none;stroke:#000000;stroke-width:2;stroke-miterlimit:10;}
	.st2{fill:#FFFFFF;stroke:#000000;stroke-width:1.75;stroke-miterlimit:10;}
	.st3{fill:#86ED18;stroke:#000000;stroke-miterlimit:10;}
	.st4{fill:#FFFFFF;stroke:#000000;stroke-miterlimit:10;}
	.st5{fill:#FFFFFF;stroke:#000000;stroke-width:2;stroke-miterlimit:10;}
	.st6{stroke:#000000;stroke-width:2;stroke-miterlimit:10;}
	.st7{display:none;}
	.st8{display:none;fill:none;stroke:#000000;stroke-width:2;stroke-linecap:round;stroke-linejoin:round;stroke-miterlimit:10;}
	.st9{display:inline;}
	.st10{display:inline;fill:#FFFFFF;}
	.st11{display:inline;fill:none;stroke:#000000;stroke-width:3;stroke-miterlimit:10;}
	.st12{fill:none;stroke:#000000;stroke-width:3;stroke-miterlimit:10;}
	.st13{fill:#FFFFFF;stroke:#000000;stroke-width:0.75;stroke-miterlimit:10;}
	.st14{fill:none;stroke:#000000;stroke-width:0.25;stroke-miterlimit:10;}
	.st15{fill:#FFFFFF;stroke:#000000;stroke-width:0.25;stroke-miterlimit:10;}
	.st16{stroke:#FFFFFF;stroke-width:0.25;stroke-miterlimit:10;}
	.st17{fill:none;stroke:#000000;stroke-width:0.75;stroke-miterlimit:10;}
	.st18{stroke:#000000;stroke-width:0.25;stroke-miterlimit:10;}
	.st19{fill:none;stroke:#86ED18;stroke-width:0.25;stroke-linejoin:round;stroke-miterlimit:10;}
</style>
<metadata>
	<sfw  xmlns="&ns_sfw;">
		<slices></slices>
		<sliceSourceBounds  bottomLeftOrigin="true" height="172.9" width="358.7" x="361.7" y="69"></sliceSourceBounds>
	</sfw>
</metadata>
<g id="Ebene_1">
	<path d="M658.2,194.5c-4.4,0-9-0.6-13.8-1.7c-11.8-2.8-27.6-11.8-36.4-38.3c-4.7-14.2-5.5-27.9-5.4-32c0.2-10.2,8.6-18.2,18.8-18
		c10.1,0.2,18.2,8.6,18,18.7c0,8.8,4.7,31.6,13.7,33.8c8.2,2,11.2-0.2,14.1-5c1.3-2.3,2-4.8,3.1-10c1-4.5,2.3-10.2,4.6-17.2
		c3.3-9.6,13.8-14.7,23.4-11.4c9.6,3.3,14.7,13.7,11.4,23.3c-1.7,5-2.6,9.1-3.5,13.2c-1.5,6.7-3,13.6-7.5,21
		C689.5,186.3,675.2,194.5,658.2,194.5z"/>
	<path class="st0" d="M708.1,92.1l0.7-2.4c0.5-1.6-0.4-3.4-2.1-3.9c-1.6-0.5-3.4,0.4-3.9,2.1l-5.9,23.2"/>
	<path class="st1" d="M708.1,92.1l0.7-2.4c0.5-1.6-0.4-3.4-2.1-3.9c-1.6-0.5-3.4,0.4-3.9,2.1l-5.9,23.2"/>
	<path class="st0" d="M677.3,119l-1.9,7.4l34.4,8.9l9.5-37.2c0.5-1.6-0.4-3.4-2.1-3.9c-1.6-0.5-3.4,0.4-3.9,2.1l0.7-2.5
		c0.5-1.6-0.4-3.4-2.1-3.9c-1.6-0.5-3.4,0.4-3.9,2.1"/>
	<path class="st1" d="M677.3,119l-1.9,7.4l34.4,8.9l9.5-37.2c0.5-1.6-0.4-3.4-2.1-3.9c-1.6-0.5-3.4,0.4-3.9,2.1l0.7-2.5
		c0.5-1.6-0.4-3.4-2.1-3.9c-1.6-0.5-3.4,0.4-3.9,2.1"/>
	<path class="st0" d="M696.9,111l5.4-21.6c0.5-1.6-0.4-3.4-2.1-3.9c-1.6-0.5-3.4,0.4-3.9,2.1l-5.5,21.7c-0.6,2.4-2.8,4.2-5.5,4.1"/>
	<path class="st1" d="M696.9,111l5.4-21.6c0.5-1.6-0.4-3.4-2.1-3.9c-1.6-0.5-3.4,0.4-3.9,2.1l-5.5,21.7c-0.6,2.4-2.8,4.2-5.5,4.1"/>
	<path class="st0" d="M713.5,96.4l-4.6,17.7L713.5,96.4z"/>
	<path class="st1" d="M713.5,96.4l-4.6,17.7"/>
	<path class="st0" d="M702.8,112.5l5.3-20.4L702.8,112.5z"/>
	<path class="st1" d="M702.8,112.5l5.3-20.4"/>
	<path class="st2" d="M714.2,71.3l-25-6.4L678.1,108l25,6.4L714.2,71.3z"/>
	<path class="st3" d="M710.3,73.8l-18.9-4.9l-8.5,32.8l18.9,4.9L710.3,73.8z"/>
	<path class="st4" d="M691.5,109.4c1,0,1.8-0.8,1.8-1.8s-0.8-1.8-1.8-1.8s-1.8,0.8-1.8,1.8S690.5,109.4,691.5,109.4z"/>
	<path class="st0" d="M685.5,113.5c-2.9-0.1-5.3-2.6-5.2-5.6c0.1-2.3,1.5-4.1,3.5-4.9l0.2-0.1c1.1-0.5,1.9-1.5,2-2.7
		c0.1-1.7-1.3-3.2-3-3.2c-0.7,0-1.1,0.1-1.5,0.3c-4.1,1.7-7.3,5.6-7.4,10.4c-0.1,3.6,1.4,6.9,3.9,9l-0.7,2.4"/>
	<path class="st1" d="M685.5,113.5c-2.9-0.1-5.3-2.6-5.2-5.6c0.1-2.3,1.5-4.1,3.5-4.9l0.2-0.1c1.1-0.5,1.9-1.5,2-2.7
		c0.1-1.7-1.3-3.2-3-3.2c-0.7,0-1.1,0.1-1.5,0.3c-4.1,1.7-7.3,5.6-7.4,10.4c-0.1,3.6,1.4,6.9,3.9,9l-0.7,2.4"/>
	<path class="st0" d="M458.7,199.7c-33.7-21.4-4.6-88.9-5.1-101.2s-14-21.3-17-28.7c-1.9-4.8-0.9-11.2,0-15.2c0.4-1.8,2.5-2.5,4-1.6
		l76.9,48.6c1.2,0.8,1.6,2.4,0.8,3.6l-28.6,45.1c-1.4,2.3,1.1,5,3.5,3.7c8.9-5,18.1-14.5,33.9-15.1c10.9-0.5,19.2,7,24.4,9.9
		c1.9,1,3.4,0.9,6.5-1.1c8.6-5.9,23.9-28.6,28.7-35.9c5.4-8.5,12.6-11.1,21.8-11.1c16.3,0,18.6,8.7,18.6,30.5
		c0,17.4-10.2,69.4-10.2,69.4"/>
	<path class="st1" d="M458.7,199.7c-33.7-21.4-4.6-88.9-5.1-101.2s-14-21.3-17-28.7c-1.9-4.8-0.9-11.2,0-15.2c0.4-1.8,2.5-2.5,4-1.6
		l76.9,48.6c1.2,0.8,1.6,2.4,0.8,3.6l-28.6,45.1c-1.4,2.3,1.1,5,3.5,3.7c8.9-5,18.1-14.5,33.9-15.1c10.9-0.5,19.2,7,24.4,9.9
		c1.9,1,3.4,0.9,6.5-1.1c8.6-5.9,23.9-28.6,28.7-35.9c5.4-8.5,12.6-11.1,21.8-11.1c16.3,0,18.6,8.7,18.6,30.5
		c0,17.4-10.2,69.4-10.2,69.4"/>
	<path class="st0" d="M460.2,154.1V85.9H363c0,0,2.8,11.6,9.2,16.3c6.4,4.7,22.6,5.1,29.6,15.2s18.6,82.7,58.5,82.7h44.2"/>
	<path class="st1" d="M460.2,154.1V85.9H363c0,0,2.8,11.6,9.2,16.3c6.4,4.7,22.6,5.1,29.6,15.2s18.6,82.7,58.5,82.7h44.2"/>
	<path class="st5" d="M598.8,95.9c4.2,0,7.6-3.4,7.6-7.6s-3.4-7.6-7.6-7.6c-4.2,0-7.6,3.4-7.6,7.6C591.1,92.4,594.5,95.9,598.8,95.9
		z"/>
	<path class="st5" d="M624.1,107C639,107,651,95,651,80.1c0-14.8-12-26.8-26.9-26.8c-14.8,0-26.9,12-26.9,26.8
		C597.2,95,609.3,107,624.1,107z"/>
	<path class="st1" d="M596.8,91.1c-0.5-1.1-0.8-2.3-1.1-3.5"/>
	<path class="st1" d="M634.6,62.4c0.8,2.6,3.5,4.4,6.4,4c2.6-0.5,4.7-2.8,4.8-5.5c0.1-2.3-1.2-4.2-3.1-5.2c-0.2-0.1-0.1-0.4,0.1-0.4
		c0.8,0,1.7-0.2,2.5-0.7c1.7-0.9,2.9-2.7,3-4.6c0.2-3.6-2.7-6.4-6.2-6.1c-2.1,0.2-3.9,1.4-4.7,3.2c-0.1,0.2-0.3,0.1-0.3-0.1
		c0-1.2-0.3-2.4-0.8-3.7c-1.4-3.1-4.5-5.2-7.8-5.2c-4.8-0.1-8.6,3.5-9,7.9c-7.2,1.7-11.5,7.2-12,13"/>
	<path class="st1" d="M628.4,74.4c1,3-0.6,6.2-3.6,7.2s-6.2-0.6-7.3-3.6"/>
	<path class="st1" d="M645.7,68.5c1,3-0.6,6.2-3.6,7.2s-6.2-0.6-7.3-3.6"/>
	<path class="st6" d="M615.2,87.7c0.3,0,0.5-0.2,0.5-0.5s-0.2-0.5-0.5-0.5s-0.5,0.2-0.5,0.5S614.9,87.7,615.2,87.7z"/>
	<path class="st6" d="M618.2,89.1c0.3,0,0.5-0.2,0.5-0.5s-0.2-0.5-0.5-0.5s-0.5,0.2-0.5,0.5S617.9,89.1,618.2,89.1z"/>
	<path class="st6" d="M610.6,89.2c0.3,0,0.5-0.2,0.5-0.5s-0.2-0.5-0.5-0.5s-0.5,0.2-0.5,0.5C610.2,89,610.4,89.2,610.6,89.2z"/>
	<path class="st6" d="M616.7,92.2c0.3,0,0.5-0.2,0.5-0.5s-0.2-0.5-0.5-0.5s-0.5,0.2-0.5,0.5S616.4,92.2,616.7,92.2z"/>
	<path class="st6" d="M612.2,93.8c0.3,0,0.5-0.2,0.5-0.5s-0.2-0.5-0.5-0.5s-0.5,0.2-0.5,0.5S612,93.8,612.2,93.8z"/>
	<path class="st6" d="M613.7,90.7c0.3,0,0.5-0.2,0.5-0.5s-0.2-0.5-0.5-0.5s-0.5,0.2-0.5,0.5S613.4,90.7,613.7,90.7z"/>
	<path class="st6" d="M609,92.3c0.3,0,0.5-0.2,0.5-0.5s-0.2-0.5-0.5-0.5s-0.5,0.2-0.5,0.5C608.6,92.1,608.8,92.3,609,92.3z"/>
	<path class="st7" d="M644,81l-9,3.7c0.6,1.4,0.6,4,0,5.6c-0.7,2-3.5,2-5,1.8c0.8,2.1,3,4.6,5,3.7l8-3.8
		C644.1,88.5,644.1,84.8,644,81z"/>
	<path class="st8" d="M642,92c0,0-7,3-8,3s-3-1-3.6-3.5l-1-5.4L643,81"/>
	<path d="M614.8,210c-19.7,0-36.2-2.2-46.1-14.2c-4.5-5.5-9.1-15.1-5.8-29.6c6.9-29.6,27.1-58.9,28-60.2c6.2-8.9,18.5-11.1,27.4-5
		c9,6.2,11.1,18.5,5,27.4c-0.2,0.2-14.4,21.1-20.6,41.7c7.2,0.8,18.9,0.4,27.3,0.2c8.1-0.2,16.5-0.5,25.3-0.3
		c10.9,0.2,19.6,9.1,19.4,20s-9.1,19.6-20.1,19.4c-7.9-0.1-15.8,0.1-23.6,0.3C625.3,209.9,620,210,614.8,210z"/>
	<path class="st5" d="M671.8,180.3c2.6,0,4.8-2.2,4.8-4.8s-2.2-4.8-4.8-4.8h-14.4V209h14.4c2.6,0,4.8-2.2,4.8-4.8s-2.2-4.8-4.8-4.8
		c2.6,0,4.8-2.2,4.8-4.8s-2.2-4.8-4.8-4.8c2.6,0,4.8-2.2,4.8-4.8C676.5,182.5,674.5,180.3,671.8,180.3z"/>
</g>
<g id="Ebene_2_Kopie_Kopie" class="st7">
	<path class="st9" d="M641.2,86.3l-1.1-3.2l-9.3,2.8l1,3.3c0.8,2.6,3.5,4.1,6.1,3.3C640.5,91.6,641.9,88.9,641.2,86.3L641.2,86.3z"
		/>
	<path class="st10" d="M635.6,91.1c-1.8,0.5-3.7-0.5-4.2-2.3c-0.5-1.8,0.5-3.7,2.3-4.2c1.8-0.5,3.7,0.5,4.2,2.3
		C638.4,88.6,637.4,90.5,635.6,91.1L635.6,91.1z"/>
	<path class="st11" d="M641.5,87.2l-1.2-3.5l-9.3,2.8l1.1,3.5c0.8,2.6,3.5,4.1,6.1,3.3C640.8,92.6,642.2,89.8,641.5,87.2L641.5,87.2
		z"/>
</g>
<g id="Ebene_2_Kopie_Kopie_Kopie" class="st7">
	<path class="st11" d="M640.5,87.2"/>
	<path class="st11" d="M632.2,90.3c1.2,1.7,3.3,2.6,5.4,2c2.1-0.6,3.4-2.6,3.4-4.7"/>
</g>
<g id="Ebene_2" class="st7">
	<path d="M641.2,86.3l-1.1-3.2l-9.3,2.8l1,3.3c0.8,2.6,3.5,4.1,6.1,3.3C640.5,91.6,641.9,88.9,641.2,86.3L641.2,86.3z"/>
	<g id="Ebene_8" class="st9">
		<circle cx="636.6" cy="88.3" r="6.7"/>
	</g>
	<path class="st10" d="M635.6,91.1c-1.8,0.5-3.7-0.5-4.2-2.3c-0.5-1.8,0.5-3.7,2.3-4.2c1.8-0.5,3.7,0.5,4.2,2.3
		C638.4,88.6,637.4,90.5,635.6,91.1L635.6,91.1z"/>
	<path class="st12" d="M641.5,87.2l-1.2-3.5l-9.3,2.8l1.1,3.5c0.8,2.6,3.5,4.1,6.1,3.3C640.8,92.6,642.2,89.8,641.5,87.2L641.5,87.2
		z"/>
</g>
<g id="Ebene_3">
	<g id="Ebene_2_Kopie" class="st7">
		<path class="st9" d="M641.2,86.3l-1.1-3.2l-9.3,2.8l1,3.3c0.8,2.6,3.5,4.1,6.1,3.3C640.5,91.6,641.9,88.9,641.2,86.3L641.2,86.3z"
			/>
		<path class="st10" d="M635.6,91.1c-1.8,0.5-3.7-0.5-4.2-2.3c-0.5-1.8,0.5-3.7,2.3-4.2c1.8-0.5,3.7,0.5,4.2,2.3
			C638.4,88.6,637.4,90.5,635.6,91.1L635.6,91.1z"/>
		<path class="st11" d="M641.5,87.2l-1.2-3.5l-9.3,2.8l1.1,3.5c0.8,2.6,3.5,4.1,6.1,3.3C640.8,92.6,642.2,89.8,641.5,87.2
			L641.5,87.2z"/>
	</g>
	<g id="Ebene_4_Kopie">
		<circle class="st13" cx="696.9" cy="86.6" r="7.4"/>
	</g>
	<path class="st14" d="M696.8,94l-3.7-1c-0.5-0.1-0.8-0.7-0.7-1.2l1.1-4.1c0.1-0.5,0.7-0.8,1.2-0.7l3.7,1c0.5,0.1,0.8,0.7,0.7,1.2
		l-1.1,4.1C697.9,93.8,697.3,94.1,696.8,94z"/>
	<path class="st15" d="M696.2,93.1l-2.1-0.6c-0.5-0.1-0.8-0.7-0.7-1.2L694,89c0.1-0.5,0.7-0.8,1.2-0.7l2.1,0.6
		c0.5,0.1,0.8,0.7,0.7,1.2l-0.6,2.3C697.3,92.9,696.7,93.3,696.2,93.1z"/>
	<circle cx="694.9" cy="87.8" r="0.1"/>
	<circle cx="695.2" cy="87.9" r="0.1"/>
	<circle cx="695.5" cy="88" r="0.1"/>
	<path class="st16" d="M696.1,92.9l-1.8-0.5c-0.5-0.1-0.8-0.7-0.7-1.2l0.6-2c0.1-0.5,0.7-0.8,1.2-0.7l1.8,0.5
		c0.5,0.1,0.8,0.7,0.7,1.2l-0.6,2C697.2,92.8,696.6,93.1,696.1,92.9z"/>
	<path class="st0" d="M694.6,90.4c-0.2,0.6,0.2,1.3,0.8,1.4c0.1,0,0.2,0,0.3,0l0.2-0.6c-0.1,0-0.2,0-0.3,0c-0.3-0.1-0.5-0.4-0.4-0.7
		c0.1-0.3,0.4-0.5,0.7-0.4c0.1,0,0.2,0.1,0.2,0.1l0.2-0.6c-0.1,0-0.2-0.1-0.3-0.1C695.4,89.4,694.8,89.8,694.6,90.4z M696.5,89.9
		l-0.5,2c0.4-0.1,0.8-0.4,0.9-0.8C697,90.6,696.9,90.1,696.5,89.9L696.5,89.9z"/>
	<g id="Ebene_4">
		<circle class="st17" cx="696.9" cy="86.6" r="7.4"/>
	</g>
	<polygon class="st15" points="698.4,81.1 698.2,81.1 697.9,82 698.2,82.1 	"/>
	
		<ellipse transform="matrix(0.2631 -0.9648 0.9648 0.2631 434.626 734.1461)" class="st15" cx="697.9" cy="82.6" rx="0.5" ry="0.9"/>
	
		<ellipse transform="matrix(0.2631 -0.9648 0.9648 0.2631 430.9134 731.9534)" class="st15" cx="694.6" cy="83.9" rx="0.9" ry="0.4"/>
	
		<ellipse transform="matrix(0.2631 -0.9648 0.9648 0.2631 433.5378 738.4111)" class="st15" cx="700.2" cy="85.4" rx="0.9" ry="0.4"/>
	<circle class="st15" cx="698.4" cy="80.8" r="0.4"/>
	<path class="st15" d="M698.6,87.4l-3.6-1c-0.5-0.1-0.8-0.7-0.7-1.2l0.7-2.6c0.1-0.5,0.7-0.8,1.2-0.7l3.6,1c0.5,0.1,0.8,0.7,0.7,1.2
		l-0.7,2.6C699.7,87.2,699.1,87.5,698.6,87.4z"/>
	<path class="st18" d="M698.7,85.1C698.8,85.1,698.8,85.1,698.7,85.1C698.8,85,698.8,85,698.7,85.1C698.7,85,698.7,85,698.7,85.1
		C698.7,85,698.7,85.1,698.7,85.1z"/>
	<path class="st18" d="M698.4,85.2C698.5,85.2,698.5,85.2,698.4,85.2C698.5,85.2,698.5,85.1,698.4,85.2
		C698.4,85.1,698.4,85.1,698.4,85.2C698.4,85.2,698.4,85.2,698.4,85.2z"/>
	<path class="st18" d="M699.2,85.2C699.2,85.2,699.2,85.2,699.2,85.2C699.3,85.1,699.2,85.1,699.2,85.2
		C699.2,85.1,699.2,85.1,699.2,85.2C699.1,85.2,699.2,85.2,699.2,85.2z"/>
	<path class="st18" d="M698.6,85.5C698.6,85.5,698.7,85.5,698.6,85.5C698.7,85.5,698.7,85.4,698.6,85.5
		C698.6,85.4,698.6,85.5,698.6,85.5C698.6,85.5,698.6,85.5,698.6,85.5z"/>
	<path class="st18" d="M699.1,85.7C699.1,85.7,699.1,85.7,699.1,85.7C699.1,85.6,699.1,85.6,699.1,85.7
		C699.1,85.6,699,85.6,699.1,85.7C699,85.6,699,85.7,699.1,85.7z"/>
	<path class="st18" d="M698.9,85.4C698.9,85.4,699,85.4,698.9,85.4C699,85.3,699,85.3,698.9,85.4C698.9,85.3,698.9,85.3,698.9,85.4
		C698.9,85.3,698.9,85.4,698.9,85.4z"/>
	<path class="st18" d="M699.4,85.5C699.4,85.5,699.4,85.5,699.4,85.5C699.5,85.4,699.4,85.4,699.4,85.5
		C699.4,85.4,699.4,85.4,699.4,85.5C699.3,85.5,699.4,85.5,699.4,85.5z"/>
	<path class="st18" d="M695.5,84.2C695.5,84.2,695.5,84.2,695.5,84.2C695.5,84.1,695.5,84.1,695.5,84.2
		C695.5,84.1,695.4,84.1,695.5,84.2C695.4,84.1,695.4,84.2,695.5,84.2z"/>
	<path class="st18" d="M695.2,84.3C695.2,84.4,695.2,84.3,695.2,84.3C695.3,84.3,695.2,84.3,695.2,84.3
		C695.2,84.2,695.2,84.3,695.2,84.3C695.1,84.3,695.2,84.3,695.2,84.3z"/>
	<path class="st18" d="M695.9,84.3C696,84.3,696,84.3,695.9,84.3C696,84.2,696,84.2,695.9,84.3C695.9,84.2,695.9,84.2,695.9,84.3
		C695.9,84.3,695.9,84.3,695.9,84.3z"/>
	<path class="st18" d="M695.3,84.7C695.4,84.7,695.4,84.6,695.3,84.7C695.4,84.6,695.4,84.6,695.3,84.7
		C695.3,84.5,695.3,84.6,695.3,84.7C695.3,84.6,695.3,84.6,695.3,84.7z"/>
	<path class="st18" d="M695.8,84.8C695.8,84.8,695.9,84.8,695.8,84.8C695.9,84.7,695.9,84.7,695.8,84.8
		C695.8,84.7,695.8,84.7,695.8,84.8C695.8,84.7,695.8,84.8,695.8,84.8z"/>
	<path class="st18" d="M695.6,84.5C695.7,84.5,695.7,84.5,695.6,84.5C695.7,84.4,695.7,84.4,695.6,84.5
		C695.6,84.4,695.6,84.4,695.6,84.5C695.6,84.4,695.6,84.5,695.6,84.5z"/>
	<path class="st18" d="M696.1,84.6C696.1,84.6,696.2,84.6,696.1,84.6C696.2,84.5,696.2,84.5,696.1,84.6
		C696.1,84.5,696.1,84.5,696.1,84.6C696.1,84.6,696.1,84.6,696.1,84.6z"/>
	<path class="st19" d="M696.7,84.7c-0.1,0.4,0.1,0.8,0.5,0.9c0.4,0.1,0.8-0.1,0.9-0.5"/>
	<path class="st14" d="M698.4,84.3c0.1,0,0.2,0,0.2-0.1c0-0.1,0-0.2-0.1-0.2c-0.1,0-0.2,0-0.2,0.1S698.3,84.3,698.4,84.3z"/>
	<path class="st14" d="M696.8,83.9c0.1,0,0.2,0,0.2-0.1c0-0.1,0-0.2-0.1-0.2c-0.1,0-0.2,0-0.2,0.1S696.7,83.9,696.8,83.9z"/>
	
		<rect id="Hals_1_" x="695.9" y="86.9" transform="matrix(0.9648 0.2631 -0.2631 0.9648 47.4899 -180.2401)" class="st15" width="1.5" height="0.6"/>
	<path class="st18" d="M693.5,87.7c0,0-1.8,0.3-2.3,2.1l0.6,0.2c0,0,0.3-1.1,1.4-1.5L693.5,87.7z"/>
	<path class="st15" d="M691.1,91.6L691.1,91.6c-0.2-0.1-0.4-0.3-0.3-0.6l0.2-0.8c0.1-0.2,0.3-0.4,0.6-0.3l0,0
		c0.2,0.1,0.4,0.3,0.3,0.6l-0.2,0.8C691.6,91.5,691.3,91.6,691.1,91.6z"/>
	<path class="st15" d="M691.3,90.9c-0.6-0.2-1.2,0.2-1.3,0.8c-0.1,0.5,0.1,1.1,0.6,1.3l0.1-0.5c-0.2-0.1-0.3-0.4-0.2-0.6
		c0.1-0.3,0.4-0.5,0.7-0.4c0.3,0.1,0.5,0.4,0.4,0.7c-0.1,0.2-0.3,0.4-0.5,0.4l-0.1,0.5c0.5,0.1,1-0.3,1.2-0.8
		C692.2,91.7,691.8,91.1,691.3,90.9z"/>
	<circle class="st15" cx="691.2" cy="91.1" r="0.6"/>
	<polygon points="691.3,90.8 691,90.8 690.9,91.1 691.1,91.4 691.4,91.3 691.5,91 	"/>
	<path class="st18" d="M699.1,89.2c0,0,1.4,1.2,0.9,3l-0.6-0.2c0,0,0.3-1.1-0.5-2L699.1,89.2z"/>
	<path class="st15" d="M699.2,93.8L699.2,93.8c0.2,0.1,0.5-0.1,0.6-0.3l0.2-0.8c0.1-0.2-0.1-0.5-0.3-0.6l0,0
		c-0.2-0.1-0.5,0.1-0.6,0.3l-0.2,0.8C698.8,93.5,699,93.7,699.2,93.8z"/>
	<path class="st15" d="M699.4,93.2c0.6,0.2,0.9,0.8,0.8,1.3c-0.1,0.5-0.7,0.9-1.2,0.8l0.1-0.5c0.2,0,0.4-0.2,0.5-0.4
		c0.1-0.3-0.1-0.6-0.4-0.7c-0.3-0.1-0.6,0.1-0.7,0.4c-0.1,0.2,0,0.5,0.2,0.6l-0.1,0.5c-0.5-0.2-0.8-0.8-0.6-1.3
		C698.2,93.3,698.8,93,699.4,93.2z"/>
	<circle class="st15" cx="699.4" cy="93.3" r="0.6"/>
	<polygon points="699.5,93 699.1,93.1 699.1,93.4 699.3,93.6 699.6,93.5 699.7,93.2 	"/>
</g>
</svg>
