<svg width="392" height="365" viewBox="0 0 392 365" fill="none" xmlns="http://www.w3.org/2000/svg">
<path d="M341.354 409.823H91.7617V107.657H178.334C268.396 107.657 341.528 180.624 341.528 270.872V409.823H341.354Z" fill="#9EE84C"/>
<path d="M269.267 220.598H256.352V228.278H269.267V220.598Z" fill="white"/>
<path d="M239.248 214.314L214.463 185.86H169.781L207.482 228.977H242.913" stroke="black" stroke-width="2" stroke-miterlimit="10" stroke-linecap="round" stroke-linejoin="round"/>
<path d="M305.922 232.643H246.579C243.786 232.643 241.691 230.374 241.691 227.755V224.613C241.691 221.82 243.96 219.726 246.579 219.726H305.922C308.715 219.726 310.809 221.995 310.809 224.613V227.755C310.984 230.374 308.715 232.643 305.922 232.643Z" stroke="black" stroke-width="2" stroke-miterlimit="10" stroke-linecap="round" stroke-linejoin="round"/>
<path d="M323.553 212.743H241.344C240.472 212.743 239.773 213.441 239.773 214.314V217.631C239.773 218.504 240.472 219.202 241.344 219.202H323.553C324.425 219.202 325.123 218.504 325.123 217.631V214.314C325.123 213.441 324.425 212.743 323.553 212.743Z" stroke="black" stroke-width="2" stroke-miterlimit="10" stroke-linecap="round" stroke-linejoin="round"/>
<path d="M311.855 197.905H250.766C249.893 197.905 249.195 198.604 249.195 199.476V207.157C249.195 208.03 249.893 208.728 250.766 208.728H311.855C312.728 208.728 313.426 208.03 313.426 207.157V199.476C313.426 198.604 312.728 197.905 311.855 197.905Z" stroke="black" stroke-width="2" stroke-miterlimit="10" stroke-linecap="round" stroke-linejoin="round"/>
<path d="M297.021 228.977H188.457V412.615H297.021V228.977Z" fill="white" stroke="black" stroke-width="2" stroke-miterlimit="10" stroke-linecap="round" stroke-linejoin="round"/>
<path d="M347.29 228.977H295.801V412.615H347.29V228.977Z" fill="white" stroke="black" stroke-width="2" stroke-miterlimit="10" stroke-linecap="round" stroke-linejoin="round"/>
<path d="M390.75 185.86H339.261L295.801 228.977H347.29L390.75 185.86Z" fill="white" stroke="black" stroke-width="2" stroke-miterlimit="10" stroke-linecap="round" stroke-linejoin="round"/>
<path d="M305.224 200.523H285.676V205.411H305.224V200.523Z" fill="white"/>
<path d="M323.201 261.445H306.969V280.473H323.201V261.445Z" fill="white" stroke="black" stroke-width="2" stroke-miterlimit="10" stroke-linecap="round" stroke-linejoin="round"/>
<path d="M312.011 274.992L302.488 280.49L309.819 293.189L319.341 287.69L312.011 274.992Z" fill="white" stroke="black" stroke-width="2" stroke-miterlimit="10" stroke-linecap="round" stroke-linejoin="round"/>
<path d="M257.227 252.543H279.917" stroke="black" stroke-width="2" stroke-miterlimit="10" stroke-linecap="round" stroke-linejoin="round"/>
<path d="M257.227 260.049H279.917" stroke="black" stroke-width="2" stroke-miterlimit="10" stroke-linecap="round" stroke-linejoin="round"/>
<path d="M313.367 150.424L320.174 152.693" stroke="black" stroke-width="2" stroke-miterlimit="10" stroke-linecap="round" stroke-linejoin="round"/>
<path d="M244.148 147.457L245.196 154.439" stroke="black" stroke-width="2" stroke-miterlimit="10" stroke-linecap="round" stroke-linejoin="round"/>
<path d="M270 175L274.189 178.317" stroke="black" stroke-width="2" stroke-miterlimit="10" stroke-linecap="round" stroke-linejoin="round"/>
<path d="M293.879 115.687L297.021 119.003" stroke="black" stroke-width="2" stroke-miterlimit="10" stroke-linecap="round" stroke-linejoin="round"/>
<path d="M68.7218 357.978L67.5 363.563" stroke="black" stroke-width="2" stroke-miterlimit="10" stroke-linecap="round" stroke-linejoin="round"/>
<path d="M7.1089 334.062L1 335.11" stroke="black" stroke-width="2" stroke-miterlimit="10" stroke-linecap="round" stroke-linejoin="round"/>
<path d="M249.895 182.02L242.215 185.162" stroke="black" stroke-width="2" stroke-miterlimit="10" stroke-linecap="round" stroke-linejoin="round"/>
<rect x="253" y="133" width="49" height="32" rx="7" fill="white" stroke="black" stroke-width="2"/>
<path d="M307.842 47.6076V67.8567H245.008V47.6076C245.008 30.326 259.146 16.1865 276.425 16.1865C278.869 16.1865 281.312 16.5356 283.756 17.0593C297.544 20.376 307.842 32.7699 307.842 47.6076Z" stroke="black" stroke-width="2" stroke-miterlimit="10" stroke-linecap="round" stroke-linejoin="round"/>
<path d="M245.008 67.8564L277.472 132.619L307.842 67.8564" stroke="black" stroke-width="2" stroke-miterlimit="10" stroke-linecap="round" stroke-linejoin="round"/>
<path d="M287.771 68.3804L277.473 132.619L261.59 68.3804C260.194 38.5304 261.067 16.1865 276.252 16.1865C288.644 16.1865 286.899 47.7821 287.771 68.3804Z" stroke="black" stroke-width="2" stroke-miterlimit="10" stroke-linecap="round" stroke-linejoin="round"/>
<path d="M287.772 67.5076C286.899 47.0839 288.644 16.1865 276.427 16.1865C261.416 16.1865 260.369 38.1813 261.765 67.5076H287.772Z" fill="black" stroke="black" stroke-width="2" stroke-miterlimit="10" stroke-linecap="round" stroke-linejoin="round"/>
<path d="M307.842 47.6078V67.6824L301.733 67.5078C301.733 67.5078 301.384 61.9219 302.082 47.2587C302.78 32.5955 291.784 21.249 280.613 17.2341L283.58 17.0596C297.544 20.3762 307.842 32.7701 307.842 47.6078Z" fill="black" stroke="black" stroke-width="2" stroke-miterlimit="10" stroke-linecap="round" stroke-linejoin="round"/>
<path d="M327.91 28.5811L344.841 62.2714L360.724 28.5811" stroke="black" stroke-width="2" stroke-miterlimit="10" stroke-linecap="round" stroke-linejoin="round"/>
<path d="M361.598 18.2816V29.4535H327.039V18.2816C327.039 8.6807 334.719 1 344.318 1C345.715 1 347.111 1.17456 348.333 1.52368C356.013 3.2693 361.598 10.0772 361.598 18.2816Z" fill="#9EE84C"/>
<path d="M350.252 29.4538C349.728 18.4564 350.601 1.87305 344.318 1.87305C336.463 1.87305 335.94 13.7432 336.638 29.4538H350.252Z" fill="white" stroke="black" stroke-width="2" stroke-miterlimit="10" stroke-linecap="round" stroke-linejoin="round"/>
<rect x="322" y="63" width="48" height="28" rx="3" fill="black" stroke="black" stroke-width="2"/>
<path d="M332.601 78.5342H328.752V76.9414H332.601V78.5342Z" fill="#9EE84C"/>
<path d="M339.601 76.1484H340.653C341.155 76.1484 341.526 76.0231 341.768 75.7725C342.009 75.5218 342.13 75.1891 342.13 74.7744C342.13 74.3734 342.009 74.0612 341.768 73.8379C341.531 73.6146 341.202 73.5029 340.783 73.5029C340.405 73.5029 340.088 73.6077 339.833 73.8174C339.578 74.0225 339.45 74.2913 339.45 74.624H337.475C337.475 74.1045 337.614 73.6396 337.892 73.2295C338.174 72.8148 338.566 72.4912 339.067 72.2588C339.573 72.0264 340.129 71.9102 340.735 71.9102C341.788 71.9102 342.613 72.1631 343.21 72.6689C343.807 73.1702 344.105 73.863 344.105 74.7471C344.105 75.2028 343.966 75.6221 343.688 76.0049C343.41 76.3877 343.046 76.6816 342.595 76.8867C343.155 77.0872 343.572 77.388 343.846 77.7891C344.124 78.1901 344.263 78.6641 344.263 79.2109C344.263 80.0951 343.939 80.8037 343.292 81.3369C342.649 81.8701 341.797 82.1367 340.735 82.1367C339.742 82.1367 338.928 81.8747 338.295 81.3506C337.666 80.8265 337.352 80.1338 337.352 79.2725H339.327C339.327 79.6462 339.466 79.9515 339.744 80.1885C340.027 80.4255 340.373 80.5439 340.783 80.5439C341.253 80.5439 341.619 80.4209 341.884 80.1748C342.153 79.9242 342.287 79.5938 342.287 79.1836C342.287 78.1901 341.74 77.6934 340.646 77.6934H339.601V76.1484ZM352.329 77.8848C352.329 79.2611 352.044 80.3138 351.475 81.043C350.905 81.7721 350.071 82.1367 348.973 82.1367C347.888 82.1367 347.059 81.779 346.484 81.0635C345.91 80.348 345.616 79.3226 345.603 77.9873V76.1553C345.603 74.7653 345.89 73.7103 346.464 72.9902C347.043 72.2702 347.874 71.9102 348.959 71.9102C350.044 71.9102 350.873 72.2679 351.447 72.9834C352.021 73.6943 352.315 74.7174 352.329 76.0527V77.8848ZM350.354 75.875C350.354 75.0501 350.24 74.4508 350.012 74.0771C349.788 73.6989 349.438 73.5098 348.959 73.5098C348.494 73.5098 348.15 73.6898 347.927 74.0498C347.708 74.4053 347.592 74.9635 347.578 75.7246V78.1445C347.578 78.9557 347.688 79.5596 347.906 79.9561C348.13 80.348 348.485 80.5439 348.973 80.5439C349.456 80.5439 349.804 80.3548 350.019 79.9766C350.233 79.5983 350.344 79.0195 350.354 78.2402V75.875ZM353.642 73.9609C353.642 73.3503 353.84 72.8558 354.236 72.4775C354.633 72.0947 355.152 71.9033 355.795 71.9033C356.447 71.9033 356.971 72.0924 357.367 72.4707C357.764 72.8444 357.962 73.3525 357.962 73.9951V74.4873C357.962 75.1025 357.764 75.597 357.367 75.9707C356.971 76.3444 356.451 76.5312 355.809 76.5312C355.161 76.5312 354.637 76.3444 354.236 75.9707C353.84 75.5924 353.642 75.0843 353.642 74.4463V73.9609ZM354.954 74.4873C354.954 74.7607 355.032 74.9818 355.187 75.1504C355.346 75.3145 355.553 75.3965 355.809 75.3965C356.064 75.3965 356.267 75.3122 356.417 75.1436C356.567 74.9749 356.643 74.7493 356.643 74.4668V73.9609C356.643 73.6875 356.567 73.4665 356.417 73.2979C356.267 73.1292 356.059 73.0449 355.795 73.0449C355.544 73.0449 355.341 73.1292 355.187 73.2979C355.032 73.4619 354.954 73.6921 354.954 73.9883V74.4873ZM358.399 79.5596C358.399 78.9443 358.6 78.4499 359.001 78.0762C359.402 77.6979 359.922 77.5088 360.56 77.5088C361.207 77.5088 361.729 77.6956 362.125 78.0693C362.526 78.4385 362.727 78.9489 362.727 79.6006V80.0928C362.727 80.7035 362.531 81.1979 362.139 81.5762C361.747 81.9499 361.225 82.1367 360.573 82.1367C359.917 82.1367 359.391 81.9476 358.994 81.5693C358.598 81.1911 358.399 80.6898 358.399 80.0654V79.5596ZM359.712 80.0928C359.712 80.3434 359.794 80.5576 359.958 80.7354C360.122 80.9131 360.327 81.002 360.573 81.002C361.129 81.002 361.407 80.6943 361.407 80.0791V79.5596C361.407 79.2861 361.33 79.0674 361.175 78.9033C361.02 78.7347 360.815 78.6504 360.56 78.6504C360.304 78.6504 360.099 78.7347 359.944 78.9033C359.789 79.0674 359.712 79.293 359.712 79.5801V80.0928ZM356.198 81.2549L355.234 80.7354L360.095 72.9561L361.059 73.4756L356.198 81.2549Z" fill="white"/>
<path d="M350.253 28.9295L344.842 62.2707L336.639 28.9295C335.941 13.3935 336.29 1.87246 344.318 1.87246C350.776 1.6979 349.729 18.2812 350.253 28.9295Z" stroke="black" stroke-width="2" stroke-miterlimit="10" stroke-linecap="round" stroke-linejoin="round"/>
<path d="M203.674 28.9473C198.474 43.7473 186.84 44.7806 181.674 43.4473L154.174 39.4473C150.84 38.1139 144.074 34.5473 143.674 30.9473C143.174 26.4473 149.174 21.4473 156.674 24.9473C162.674 27.7473 173.84 21.7806 178.674 19.4473C178.674 24.2473 178.007 27.4473 174.674 27.9473C187.074 27.9473 190.84 21.9473 194.174 19.4473C192.574 25.0473 190.507 29.7806 189.174 29.9473C199.574 31.5473 202.84 29.6139 203.674 28.9473Z" fill="#FFFEFE" stroke="black" stroke-width="2"/>
<path d="M132.955 386.955C149.187 322.367 158.961 256.209 162.103 189.701C171.354 199.476 177.812 212.219 183.746 223.915C193.346 242.767 200.502 262.842 205.563 283.44C213.941 317.305 215.861 352.567 211.498 387.13H252.515C256.878 347.853 254.26 308.053 244.311 269.65C238.202 245.735 229.126 222.518 217.607 200.698C206.087 178.703 191.775 156.01 168.91 144.14C162.278 140.649 154.249 140.824 148.14 144.315C136.62 141.522 122.308 147.981 121.959 163.517C120.388 239.276 109.741 314.163 90.3672 387.304H132.955V386.955Z" fill="white" stroke="black" stroke-width="2" stroke-miterlimit="10" stroke-linecap="round" stroke-linejoin="round"/>
<path d="M205.515 61.4131C205.896 65.2602 203.309 68.6661 199.737 69.0202C196.165 69.3744 194.784 55.4427 198.356 55.0885C201.928 54.7344 205.133 57.566 205.515 61.4131Z" fill="white"/>
<path d="M199.737 69.0202C203.309 68.6661 205.896 65.2602 205.515 61.4131C205.133 57.566 201.928 54.7344 198.356 55.0885" stroke="black" stroke-width="2"/>
<circle cx="172.176" cy="61.9473" r="28.5" fill="white" stroke="black" stroke-width="2"/>
<circle cx="152.481" cy="61.8959" r="1" transform="rotate(46.8599 152.481 61.8959)" fill="black"/>
<circle cx="155.216" cy="64.8148" r="1" transform="rotate(46.8599 155.216 64.8148)" fill="black"/>
<circle cx="158.134" cy="62.0795" r="1" transform="rotate(46.8599 158.134 62.0795)" fill="black"/>
<circle cx="157.95" cy="67.7328" r="1" transform="rotate(46.8599 157.95 67.7328)" fill="black"/>
<circle cx="160.868" cy="64.9984" r="1" transform="rotate(46.8599 160.868 64.9984)" fill="black"/>
<circle r="1" transform="matrix(-0.683784 0.729684 0.729684 0.683784 194.476 61.8959)" fill="black"/>
<circle r="1" transform="matrix(-0.683784 0.729684 0.729684 0.683784 191.741 64.8148)" fill="black"/>
<circle r="1" transform="matrix(-0.683784 0.729684 0.729684 0.683784 188.823 62.0795)" fill="black"/>
<circle r="1" transform="matrix(-0.683784 0.729684 0.729684 0.683784 189.007 67.7328)" fill="black"/>
<circle r="1" transform="matrix(-0.683784 0.729684 0.729684 0.683784 186.089 64.9984)" fill="black"/>
<path d="M141.368 59.4131C140.987 63.2602 143.573 66.6661 147.146 67.0202C150.718 67.3744 152.099 53.4427 148.527 53.0885C144.955 52.7344 141.749 55.566 141.368 59.4131Z" fill="white"/>
<path d="M147.146 67.0202C143.573 66.6661 140.987 63.2602 141.368 59.4131C141.749 55.566 144.955 52.7344 148.527 53.0885" stroke="black" stroke-width="2"/>
<path d="M146.945 61.9829C145.714 61.8608 144.822 60.6866 144.953 59.3604C145.085 58.0341 146.19 57.058 147.421 57.1801" stroke="black" stroke-width="2"/>
<path d="M168.676 57.4473C168.676 55.2381 166.885 53.4473 164.676 53.4473C162.467 53.4473 160.676 55.2381 160.676 57.4473" stroke="black" stroke-width="2"/>
<path d="M184.676 57.4473C184.676 55.2381 182.885 53.4473 180.676 53.4473C178.467 53.4473 176.676 55.2381 176.676 57.4473" stroke="black" stroke-width="2"/>
<path d="M125.797 160.898C127.019 141.696 130.509 105.388 130.509 105.388L186.711 108.53L195.787 165.611L125.797 160.898Z" fill="black"/>
<path d="M151.978 85.8372C113.754 84.4407 76.4023 90.8995 67.1517 127.034C58.2501 161.597 89.8419 190.923 123.703 183.592C140.284 179.926 133.302 154.44 116.721 158.106C99.9652 161.771 85.8274 143.442 95.2526 128.43C106.074 111.323 131.208 112.371 148.836 112.371C165.941 112.371 169.083 86.5355 151.978 85.8372Z" fill="white" stroke="black" stroke-width="2" stroke-miterlimit="10" stroke-linecap="round" stroke-linejoin="round"/>
<path d="M151.978 85.8369C132.605 85.1386 113.231 86.5351 97.8711 92.6448C100.489 101.198 103.631 109.577 106.947 117.782C119.339 111.497 136.095 112.021 148.837 112.196C165.942 112.37 169.083 86.5351 151.978 85.8369Z" fill="black"/>
<path d="M232.093 113.068C220.224 97.3577 202.072 92.1209 183.396 90.2007C183.745 86.7095 182.524 83.742 180.429 81.4727C177.986 81.9963 175.542 82.6946 173.098 83.2183C167.862 84.6148 165.244 92.2955 160.182 94.2156C159.484 96.4849 147.965 168.928 208.705 163.342C233.14 161.422 246.58 132.095 232.093 113.068ZM197.534 135.761C190.203 134.19 185.665 126.51 184.269 117.956C194.916 118.48 201.374 121.098 206.959 124.938C215.861 130.699 209.577 138.205 197.534 135.761Z" fill="white" stroke="black" stroke-width="2" stroke-miterlimit="10" stroke-linecap="round" stroke-linejoin="round"/>
<path d="M183.568 90.2007C183.743 88.8042 183.568 87.5823 183.219 86.3604C181.823 91.4226 179.903 96.3104 178.332 101.373C178.507 101.547 178.681 101.722 178.681 101.896C179.03 102.595 179.205 103.467 179.554 104.166C180.252 104.34 180.776 104.864 180.95 105.562C182.172 109.402 182.87 113.068 183.219 117.083C190.899 117.781 199.102 119.352 205.037 123.193C208.353 114.988 211.844 106.784 215.334 98.7542C205.909 93.6919 194.739 91.4226 183.568 90.2007Z" fill="black"/>
<path d="M160.357 95.0887C161.579 87.7572 163.15 80.251 161.055 74.4905C158.961 68.73 159.485 66.1116 166.292 75.5379C166.292 75.5379 162.103 67.3335 163.848 66.4607C165.768 65.5879 170.655 73.2686 170.655 73.2686C170.655 73.2686 165.244 65.0642 168.037 64.8896C170.655 64.7151 172.924 70.4756 176.939 71.3484C180.953 72.2212 182 64.7151 183.746 66.4607C186.538 69.4282 185.142 81.8221 183.571 90.201C182.873 94.5651 184.967 111.148 184.269 117.782" fill="white"/>
<path d="M160.357 95.0887C161.579 87.7572 163.15 80.251 161.055 74.4905C158.961 68.73 159.485 66.1116 166.292 75.5379C166.292 75.5379 162.103 67.3335 163.848 66.4607C165.768 65.5879 170.655 73.2686 170.655 73.2686C170.655 73.2686 165.244 65.0642 168.037 64.8896C170.655 64.7151 172.924 70.4756 176.939 71.3484C180.953 72.2212 182 64.7151 183.746 66.4607C186.538 69.4282 185.142 81.8221 183.571 90.201C182.873 94.5651 184.967 111.148 184.269 117.782" stroke="black" stroke-width="2" stroke-miterlimit="10" stroke-linecap="round" stroke-linejoin="round"/>
<path d="M116.199 158.106C124.054 156.709 121.61 153.218 127.021 149.028L126.672 154.963C126.672 154.963 135.748 147.806 138.191 150.076C140.635 152.17 132.606 159.502 132.606 159.502C132.606 159.502 140.286 151.821 142.38 154.789C144.475 157.756 136.271 166.31 136.271 166.31C136.271 166.31 143.602 156.534 145.522 161.422C147.616 166.31 139.064 180.799 123.006 183.766" fill="white"/>
<path d="M116.199 158.106C124.054 156.709 121.61 153.218 127.021 149.028L126.672 154.963C126.672 154.963 135.748 147.806 138.191 150.076C140.635 152.17 132.606 159.502 132.606 159.502C132.606 159.502 140.286 151.821 142.38 154.789C144.475 157.756 136.271 166.31 136.271 166.31C136.271 166.31 143.602 156.534 145.522 161.422C147.616 166.31 139.064 180.799 123.006 183.766" stroke="black" stroke-width="2" stroke-miterlimit="10" stroke-linecap="round" stroke-linejoin="round"/>
<path d="M181.674 43.4473C186.84 44.7806 198.474 43.7473 203.674 28.9473C202.84 29.6139 199.574 31.5473 189.174 29.9473C190.507 29.7806 192.574 25.0473 194.174 19.4473C190.84 21.9473 187.074 27.9473 174.674 27.9473C178.007 27.4473 178.674 24.2473 178.674 19.4473C173.84 21.7806 162.674 27.7473 156.674 24.9473C149.174 21.4473 143.174 26.4473 143.674 30.9473C144.074 34.5473 150.84 38.1139 154.174 39.4473" stroke="black" stroke-width="2"/>
<path d="M267.422 147.633H270.242V149.672H267.422V152.859H265.273V149.672H262.445V147.633H265.273V144.578H267.422V147.633Z" fill="#9EE84C"/>
<path d="M283.289 154H275.492V152.453L279.172 148.531C279.677 147.979 280.049 147.497 280.289 147.086C280.534 146.674 280.656 146.284 280.656 145.914C280.656 145.409 280.529 145.013 280.273 144.727C280.018 144.435 279.654 144.289 279.18 144.289C278.669 144.289 278.266 144.466 277.969 144.82C277.677 145.169 277.531 145.63 277.531 146.203H275.266C275.266 145.51 275.43 144.878 275.758 144.305C276.091 143.732 276.56 143.284 277.164 142.961C277.768 142.633 278.453 142.469 279.219 142.469C280.391 142.469 281.299 142.75 281.945 143.312C282.596 143.875 282.922 144.669 282.922 145.695C282.922 146.258 282.776 146.831 282.484 147.414C282.193 147.997 281.693 148.677 280.984 149.453L278.398 152.18H283.289V154ZM287.992 148.07L289.414 145.547H291.828L289.422 149.688L291.93 154H289.508L288 151.344L286.5 154H284.07L286.578 149.688L284.18 145.547H286.602L287.992 148.07Z" fill="black"/>
</svg>
