<svg width="472" height="386" viewBox="0 0 472 386" fill="none" xmlns="http://www.w3.org/2000/svg">
<path d="M176.667 106.428L176.667 106.429C177.054 117.462 182.397 129.929 191.245 140.664C200.091 151.405 211.201 158.926 221.786 161.197C222.31 161.311 222.831 161.391 223.357 161.436C226.697 161.722 230.004 160.654 232.613 158.407L238.046 153.729C240.435 151.672 240.747 148.028 238.743 145.594L228.72 133.424C226.705 130.977 223.11 130.669 220.708 132.738L214.909 137.731L198.134 117.363L203.962 112.344C203.963 112.343 203.964 112.343 203.964 112.342C205.131 111.346 205.835 109.944 205.965 108.419C206.096 106.889 205.63 105.389 204.662 104.213L194.64 92.0453C194.64 92.0451 194.64 92.0448 194.64 92.0446C192.631 89.596 189.028 89.2897 186.627 91.3571L181.194 96.0351C178.174 98.6359 176.528 102.422 176.667 106.428Z" fill="white" stroke="black" stroke-width="2"/>
<path d="M234.101 259.621L198.192 291.953L191.908 254.592L93.698 222.26L139.302 206.633L109.318 162.267L233.742 205.376L234.101 259.621Z" fill="#86EC16"/>
<path d="M288.45 236.982H306.672C315.073 236.982 322.806 241.563 326.843 248.93L338.246 269.742C342.283 277.109 350.016 281.69 358.417 281.69H382.763" stroke="#86EC16" stroke-width="6"/>
<path d="M292.999 238C293.551 238 293.999 237.552 293.999 237C293.999 236.448 293.551 236 292.999 236L292.999 238ZM301.398 236C300.846 236 300.398 236.448 300.398 237C300.398 237.552 300.846 238 301.398 238L301.398 236ZM305.598 238C306.15 238 306.598 237.552 306.598 237C306.598 236.448 306.15 236 305.598 236L305.598 238ZM313.997 236C313.444 236 312.997 236.448 312.997 237C312.997 237.552 313.444 238 313.997 238L313.997 236ZM318.196 238C318.748 238 319.196 237.552 319.196 237C319.196 236.448 318.748 236 318.196 236L318.196 238ZM326.595 236C326.043 236 325.595 236.448 325.595 237C325.595 237.552 326.043 238 326.595 238L326.595 236ZM330.795 238C331.347 238 331.795 237.552 331.795 237C331.795 236.448 331.347 236 330.795 236L330.795 238ZM339.194 236C338.641 236 338.194 236.448 338.194 237C338.194 237.552 338.641 238 339.194 238L339.194 236ZM343.393 238C343.945 238 344.393 237.552 344.393 237C344.393 236.448 343.945 236 343.393 236L343.393 238ZM351.792 236C351.24 236 350.792 236.448 350.792 237C350.792 237.552 351.24 238 351.792 238L351.792 236ZM355.992 238C356.544 238 356.992 237.552 356.992 237C356.992 236.448 356.544 236 355.992 236L355.992 238ZM364.391 236C363.838 236 363.391 236.448 363.391 237C363.391 237.552 363.838 238 364.391 238L364.391 236ZM368.59 238C369.142 238 369.59 237.552 369.59 237C369.59 236.448 369.142 236 368.59 236L368.59 238ZM376.989 236C376.437 236 375.989 236.448 375.989 237C375.989 237.552 376.437 238 376.989 238L376.989 236ZM290.899 238L292.999 238L292.999 236L290.899 236L290.899 238ZM301.398 238L305.598 238L305.598 236L301.398 236L301.398 238ZM313.997 238L318.196 238L318.196 236L313.997 236L313.997 238ZM326.595 238L330.795 238L330.795 236L326.595 236L326.595 238ZM339.194 238L343.393 238L343.393 236L339.194 236L339.194 238ZM351.792 238L355.992 238L355.992 236L351.792 236L351.792 238ZM364.391 238L368.59 238L368.59 236L364.391 236L364.391 238ZM376.989 238L379.089 238L379.089 236L376.989 236L376.989 238Z" fill="black"/>
<rect x="216.183" y="205.136" width="75.9408" height="63.6923" rx="4" fill="black"/>
<path d="M234.556 236.983C234.556 247.838 243.395 256.58 254.154 256.58C255.691 256.58 257.228 256.388 258.669 256.004V245.052C257.324 245.821 255.787 246.205 254.154 246.205C249.062 246.205 244.932 242.074 244.932 236.983C244.932 231.891 249.062 227.76 254.154 227.76C255.788 227.76 257.324 228.241 258.669 228.913V217.962C257.197 217.569 255.679 217.375 254.155 217.385C243.395 217.385 234.556 226.224 234.556 236.983ZM263.377 219.691V254.274C269.525 251.009 273.751 244.476 273.751 236.983C273.751 229.489 269.619 222.957 263.375 219.691H263.377Z" fill="white"/>
<path fill-rule="evenodd" clip-rule="evenodd" d="M115.761 236.003H79V238.003H115.914C115.836 237.344 115.785 236.677 115.761 236.003ZM162.122 238.003H195.528L186.052 248.275L187.522 249.631L198.546 237.681L199.171 237.003L198.546 236.325L187.522 224.374L186.052 225.73L195.528 236.003H162.274C162.25 236.677 162.199 237.344 162.122 238.003Z" fill="black"/>
<path d="M139.018 213.73V223.794" stroke="black" stroke-width="2"/>
<path d="M139.018 250.211V260.275" stroke="black" stroke-width="2"/>
<path d="M122.995 220.546L129.924 227.662" stroke="black" stroke-width="2"/>
<path d="M148.111 246.343L155.04 253.459" stroke="black" stroke-width="2"/>
<path d="M155.041 220.547L148.112 227.663" stroke="black" stroke-width="2"/>
<path d="M129.924 246.343L122.995 253.459" stroke="black" stroke-width="2"/>
<path d="M233.944 158.592L240.085 166.026C243.565 170.238 248.744 172.678 254.208 172.678H265.178C269.236 172.678 272.527 175.968 272.527 180.027V180.027C272.527 184.086 269.236 187.376 265.178 187.376H262.115C256.365 187.376 251.704 192.037 251.704 197.787V205.749" stroke="black" stroke-width="2"/>
<path d="M393.787 282.302L371.74 295.031L371.74 269.573L393.787 282.302Z" fill="#86EC16"/>
<rect x="376" y="236" width="6" height="2" rx="1" fill="black"/>
</svg>
