<svg width="472" height="386" viewBox="0 0 472 386" fill="none" xmlns="http://www.w3.org/2000/svg">
<path d="M237.5 224.5V300" stroke="#DB00C5" stroke-width="6"/>
<path d="M286.432 213L172 196.526L197.568 55L312 71.4743L286.432 213Z" fill="#DB00C5"/>
<path d="M237.5 306L224.943 285.75L250.057 285.75L237.5 306Z" fill="#DB00C5"/>
<rect x="198.184" y="161.136" width="75.9408" height="63.6923" rx="4" fill="black"/>
<path d="M264.667 94H208L219.93 129.193L208 162H264.667L252.737 129.193L264.667 94Z" fill="white" stroke="black" stroke-width="2"/>
<path fill-rule="evenodd" clip-rule="evenodd" d="M240.25 126.21H247.965L250.947 117.859H220.526L224.105 126.21H233.25V139.333H222.315L216.351 156.035H256.315L249.158 139.333H240.25V126.21Z" fill="#DB00C5"/>
<path d="M216.557 192.983C216.557 203.838 225.395 212.58 236.154 212.58C237.692 212.58 239.229 212.388 240.669 212.004V201.052C239.325 201.821 237.787 202.205 236.154 202.205C231.063 202.205 226.933 198.074 226.933 192.983C226.933 187.891 231.063 183.76 236.154 183.76C237.788 183.76 239.325 184.241 240.669 184.913V173.962C239.198 173.569 237.68 173.375 236.155 173.385C225.395 173.385 216.557 182.224 216.557 192.983ZM245.377 175.691V210.274C251.525 207.009 255.752 200.476 255.752 192.983C255.752 185.489 251.62 178.957 245.376 175.691H245.377Z" fill="white"/>
<path d="M207.5 222V235.25C207.5 248.091 197.091 258.5 184.25 258.5V258.5C171.409 258.5 161 248.091 161 235.25V228.25C161 211.543 147.457 198 130.75 198H93" stroke="black" stroke-width="2" stroke-dasharray="4 8"/>
<circle cx="103" cy="195" r="26" fill="white" stroke="black" stroke-width="2"/>
<path d="M109.836 205H96.793V203.182L103.684 195.525C104.704 194.368 105.406 193.429 105.789 192.709C106.181 191.98 106.377 191.228 106.377 190.453C106.377 189.414 106.062 188.562 105.434 187.896C104.805 187.231 103.966 186.898 102.918 186.898C101.66 186.898 100.68 187.258 99.9785 187.979C99.2858 188.689 98.9395 189.683 98.9395 190.959H96.4102C96.4102 189.127 96.998 187.646 98.1738 186.516C99.3587 185.385 100.94 184.82 102.918 184.82C104.768 184.82 106.231 185.308 107.307 186.283C108.382 187.249 108.92 188.539 108.92 190.152C108.92 192.112 107.671 194.445 105.174 197.152L99.8418 202.936H109.836V205Z" fill="black"/>
<circle cx="238" cy="306" r="27" fill="#DB00C5"/>
<path d="M241.412 316H237.461V300.77L232.744 302.232V299.02L240.988 296.066H241.412V316Z" fill="white"/>
<path d="M265 222V235.25C265 248.091 275.409 258.5 288.25 258.5V258.5C301.091 258.5 311.5 248.091 311.5 235.25V228.25C311.5 211.543 325.043 198 341.75 198H379.5" stroke="black" stroke-width="2" stroke-dasharray="4 8"/>
<circle cx="369" cy="195" r="26" fill="white" stroke="black" stroke-width="2"/>
<path d="M366.471 193.816H368.371C369.565 193.798 370.504 193.484 371.188 192.873C371.871 192.262 372.213 191.438 372.213 190.398C372.213 188.065 371.051 186.898 368.727 186.898C367.633 186.898 366.758 187.213 366.102 187.842C365.454 188.462 365.131 189.286 365.131 190.316H362.602C362.602 188.74 363.176 187.432 364.324 186.393C365.482 185.344 366.949 184.82 368.727 184.82C370.604 184.82 372.076 185.317 373.143 186.311C374.209 187.304 374.742 188.685 374.742 190.453C374.742 191.319 374.46 192.158 373.895 192.969C373.339 193.78 372.577 194.386 371.611 194.787C372.705 195.133 373.548 195.708 374.141 196.51C374.742 197.312 375.043 198.292 375.043 199.449C375.043 201.236 374.46 202.653 373.293 203.701C372.126 204.749 370.609 205.273 368.74 205.273C366.872 205.273 365.35 204.768 364.174 203.756C363.007 202.744 362.424 201.409 362.424 199.75H364.967C364.967 200.798 365.309 201.637 365.992 202.266C366.676 202.895 367.592 203.209 368.74 203.209C369.962 203.209 370.896 202.89 371.543 202.252C372.19 201.614 372.514 200.698 372.514 199.504C372.514 198.346 372.158 197.458 371.447 196.838C370.736 196.218 369.711 195.899 368.371 195.881H366.471V193.816Z" fill="black"/>
</svg>
