<svg width="568" height="602" viewBox="0 0 568 602" fill="none" xmlns="http://www.w3.org/2000/svg">
<path d="M300.582 334.303L393.543 333.953" stroke="black" stroke-width="2" stroke-miterlimit="10" stroke-linecap="round" stroke-linejoin="round"/>
<path d="M305.344 393.302L264.773 470.859L431.645 470.159L390.191 393.302H305.344Z" fill="#9EE84C"/>
<path d="M300.581 334.303H306.403L307.108 389.976L264.773 470.859L431.645 470.159L388.251 389.626L387.545 335.178V334.128L393.543 333.953L393.367 327.825L300.405 328L300.581 334.303Z" stroke="black" stroke-width="2" stroke-miterlimit="10" stroke-linecap="round" stroke-linejoin="round"/>
<path d="M379.431 421.139C383.62 421.139 387.016 417.768 387.016 413.611C387.016 409.453 383.62 406.082 379.431 406.082C375.242 406.082 371.846 409.453 371.846 413.611C371.846 417.768 375.242 421.139 379.431 421.139Z" fill="white"/>
<path d="M364.437 431.643C366.191 431.643 367.613 430.232 367.613 428.492C367.613 426.751 366.191 425.34 364.437 425.34C362.684 425.34 361.262 426.751 361.262 428.492C361.262 430.232 362.684 431.643 364.437 431.643Z" fill="white"/>
<path d="M292.291 355.136C308.696 349.884 322.278 354.611 321.749 364.415C321.22 374.394 300.052 380.697 300.052 380.697" fill="white"/>
<path d="M292.291 355.136C308.696 349.884 322.278 354.611 321.749 364.415C321.22 374.394 300.052 380.697 300.052 380.697" stroke="black" stroke-width="2" stroke-miterlimit="10" stroke-linecap="round" stroke-linejoin="round"/>
<path d="M289.998 380.347C306.403 375.095 319.985 379.822 319.456 389.626C318.927 399.605 297.759 405.907 297.759 405.907" fill="white"/>
<path d="M289.998 380.347C306.403 375.095 319.985 379.822 319.456 389.626C318.927 399.605 297.759 405.907 297.759 405.907" stroke="black" stroke-width="2" stroke-miterlimit="10" stroke-linecap="round" stroke-linejoin="round"/>
<path d="M499.029 343.582C458.104 351.81 400.599 337.804 364.614 340.606C328.805 343.582 328.805 370.368 356.323 366.341C383.841 362.314 403.95 395.578 437.466 398.379" fill="white"/>
<path d="M499.029 343.582C458.104 351.81 400.599 337.804 364.614 340.606C328.805 343.582 328.805 370.368 356.323 366.341C383.841 362.314 403.95 395.578 437.466 398.379" stroke="black" stroke-width="2" stroke-miterlimit="10" stroke-linecap="round" stroke-linejoin="round"/>
<path d="M428.117 462.631C455.635 461.93 481.389 460.18 498.676 452.652L428.117 462.631Z" fill="white"/>
<path d="M428.117 462.631C455.635 461.93 481.389 460.18 498.676 452.652" stroke="black" stroke-width="2" stroke-miterlimit="10" stroke-linecap="round" stroke-linejoin="round"/>
<path d="M183.1 196.696L194.743 201.248L254.894 227.859L273.239 236.088L274.651 236.788L272.534 241.34L280.472 244.841L300.405 198.797L183.1 196.696Z" fill="#9EE84C"/>
<path d="M304.638 170.261L302.522 174.812L246.074 149.777L223.672 139.798L207.267 132.445L145.528 65.7427L88.0222 193.02L172.517 194.245H179.22L194.743 201.248L254.894 227.859L273.24 236.088L274.651 236.788L272.534 241.34L280.472 244.841L312.576 173.937L304.638 170.261Z" stroke="black" stroke-width="2" stroke-miterlimit="10" stroke-linecap="round" stroke-linejoin="round"/>
<path d="M304.639 170.261L272.534 241.34" stroke="black" stroke-width="2" stroke-miterlimit="10" stroke-linecap="round" stroke-linejoin="round"/>
<path d="M406.244 226.284V173.237C396.189 174.287 387.369 180.94 383.665 190.919C378.549 204.575 383.135 219.106 400.246 225.058C402.186 225.583 404.127 226.108 406.244 226.284Z" fill="white" stroke="black" stroke-width="2" stroke-miterlimit="10" stroke-linecap="round" stroke-linejoin="round"/>
<path d="M409.771 173.062V226.634C420.532 226.459 430.234 220.156 434.467 208.601C439.583 194.771 431.998 179.364 417.886 174.462C415.24 173.587 412.417 173.062 409.771 173.062Z" fill="black"/>
<path d="M376.432 247.117H366.378V257.096H376.432V247.117Z" fill="black"/>
<path d="M383.488 252.019H437.642" stroke="black" stroke-width="2" stroke-miterlimit="10" stroke-linecap="round" stroke-linejoin="round"/>
<path d="M376.432 270.927H366.378V280.906H376.432V270.927Z" fill="black"/>
<path d="M400.246 276.004C412.594 276.004 425.118 276.004 437.466 276.004H400.246Z" fill="white"/>
<path d="M400.246 276.004C412.594 276.004 425.118 276.004 437.466 276.004" stroke="black" stroke-width="2" stroke-miterlimit="10" stroke-linecap="round" stroke-linejoin="round"/>
<path d="M383.488 276.004C386.311 276.004 389.133 276.004 391.955 276.004H383.488Z" fill="white"/>
<path d="M383.488 276.004C386.311 276.004 389.133 276.004 391.955 276.004" stroke="black" stroke-width="2" stroke-miterlimit="10" stroke-linecap="round" stroke-linejoin="round"/>
<path d="M348.385 502.547L303.051 504.998C303.051 504.998 302.345 483.464 301.287 473.135C300.228 462.631 334.273 477.337 334.273 477.337L334.979 490.467C335.155 490.467 347.856 491.693 348.385 502.547Z" fill="white" stroke="black" stroke-width="2" stroke-miterlimit="10" stroke-linecap="round" stroke-linejoin="round"/>
<path d="M118.539 507.799L97.5479 467.883C97.5479 467.883 116.952 458.429 126.124 453.177C135.297 447.925 135.826 484.865 135.826 484.865L124.007 490.992C124.184 490.817 128.241 502.722 118.539 507.799Z" fill="white" stroke="black" stroke-width="2" stroke-miterlimit="10" stroke-linecap="round" stroke-linejoin="round"/>
<path d="M120.303 455.628C163.344 435.144 178.867 307.692 178.867 283.707C178.867 264.449 183.277 274.253 193.684 277.054C197.036 275.654 200.74 275.129 204.621 275.654C282.765 284.232 331.274 404.682 335.684 477.162L300.581 482.939C296.7 427.791 260.363 331.677 208.855 309.968C200.917 400.13 187.863 462.981 135.12 487.141C130.358 476.636 125.771 465.957 120.303 455.628Z" fill="black"/>
<path d="M334.802 486.265L327.57 486.791" stroke="black" stroke-width="2" stroke-miterlimit="10" stroke-linecap="round" stroke-linejoin="round"/>
<path d="M130.534 487.491L126.477 479.963" stroke="black" stroke-width="2" stroke-miterlimit="10" stroke-linecap="round" stroke-linejoin="round"/>
<path d="M272.711 240.639C272.534 241.165 272.358 241.865 272.005 242.39C271.652 243.266 271.123 244.141 270.417 244.841C270.065 245.191 269.888 245.542 269.535 245.717C269.006 246.417 268.477 246.942 267.771 247.642C263.361 252.194 257.893 255.696 252.248 258.322C250.837 259.022 249.25 259.547 247.838 260.072C245.369 260.948 242.899 261.648 240.43 261.998L239.901 275.829V277.58L239.724 288.084L234.079 287.384L232.316 287.209L216.263 285.458L214.499 285.283L198.447 283.532L196.683 283.357L180.631 281.606L178.867 281.431L174.281 280.906L177.28 275.654L178.867 273.028L180.631 269.877L186.452 259.722L187.511 257.972L192.273 249.743C189.627 247.467 187.158 244.841 184.865 242.215C184.335 241.69 183.983 240.99 183.453 240.464C182.395 239.064 181.337 237.488 180.455 236.088C179.925 235.037 179.22 233.987 178.691 232.936C177.632 231.011 176.75 229.085 175.868 226.984C175.516 226.284 175.339 225.408 174.986 224.533C174.81 224.008 174.634 223.307 174.281 222.782C172.517 217.53 171.635 212.103 171.282 206.851C171.282 206.325 171.282 205.625 171.282 205.1C171.282 201.423 171.458 197.572 172.164 194.07C172.34 192.495 172.693 190.919 173.222 189.168C173.399 188.643 173.575 187.943 173.752 187.418C174.986 183.041 176.574 178.839 178.691 174.812C179.22 173.762 179.925 172.712 180.455 171.661C180.455 171.661 180.455 171.486 180.631 171.486C180.984 170.961 181.337 170.261 181.689 169.735C185.57 163.783 190.157 158.356 195.801 153.804C196.683 153.104 197.389 152.403 198.271 151.703C203.21 148.026 208.502 144.875 214.323 142.424C214.852 142.249 215.558 141.899 216.087 141.724C218.557 140.849 221.026 139.973 223.496 139.273C225.612 138.748 227.553 138.222 229.846 137.872C240.077 136.122 247.486 143.65 245.898 149.252C245.545 150.127 245.016 151.178 244.311 151.878C243.605 152.578 242.547 153.104 241.312 153.629C240.606 153.979 239.724 154.154 238.666 154.329C237.078 154.679 235.491 155.029 233.903 155.379C233.374 155.555 232.668 155.73 232.139 155.905C226.494 157.83 221.026 160.632 216.087 164.308C215.558 164.833 214.852 165.184 214.323 165.709C212.912 166.934 211.501 168.16 210.266 169.385C209.737 169.91 209.207 170.611 208.502 171.136C204.268 175.688 200.74 180.765 198.271 186.367C197.565 187.943 197.036 189.519 196.507 191.094C195.448 194.245 194.919 197.397 194.566 200.548C194.39 201.949 194.39 203.174 194.39 204.575C194.39 205.1 194.39 205.8 194.39 206.325C194.566 209.477 195.272 212.803 196.33 215.954C196.33 216.129 196.33 216.129 196.507 216.305C197.036 217.705 197.565 219.106 198.271 220.506C198.624 221.031 198.8 221.732 199.153 222.257C199.506 222.782 199.858 223.482 200.211 224.008C203.739 229.435 208.678 233.637 214.323 236.263C214.852 236.613 215.558 236.788 216.087 236.963C221.202 239.064 226.671 239.939 232.139 239.414C232.668 239.414 233.374 239.239 233.903 239.239C239.548 238.364 245.016 236.088 249.955 232.061C250.484 231.536 251.19 231.011 251.719 230.485C252.601 229.61 253.483 228.735 254.365 227.684C254.542 227.509 254.718 227.334 254.894 227.159L267.771 232.936L269.535 233.812L273.24 235.387C273.416 237.488 273.24 239.064 272.711 240.639Z" fill="white" stroke="black" stroke-width="2" stroke-miterlimit="10" stroke-linecap="round" stroke-linejoin="round"/>
<path d="M269.536 240.639V234.512L267.772 233.637V240.464H251.719V231.186C251.19 231.711 250.485 232.236 249.955 232.761V240.464H233.903V239.764C233.374 239.939 232.668 239.939 232.139 239.939V240.464H216.087V237.663C215.558 237.488 214.852 237.138 214.323 236.963V240.639H198.271V224.708H200.211C199.858 224.183 199.506 223.482 199.153 222.957H198.271V221.207C197.565 219.806 197.036 218.405 196.507 217.005V222.957H180.455V207.026H194.567C194.567 206.5 194.567 205.8 194.567 205.275H180.631V189.343H196.683V191.619C197.213 190.044 197.742 188.468 198.447 186.892V171.661H208.678C209.208 171.136 209.737 170.436 210.442 169.91H198.624V153.979H214.676V166.234C215.205 165.709 215.911 165.359 216.44 164.833V153.979H232.492V156.255C233.021 156.08 233.727 155.905 234.256 155.73V155.029C234.08 154.679 233.903 154.329 233.727 153.979C233.198 153.454 232.845 152.753 232.492 152.053V152.228H216.44V142.249C216.44 142.249 216.263 142.424 216.087 142.424C215.558 142.774 215.029 142.949 214.676 142.949V152.403H198.624V152.053C197.742 152.753 196.86 153.454 196.154 154.154H196.86V170.086H182.042C181.69 170.611 181.337 171.311 180.984 171.836H196.86V187.768H180.808V172.011C180.278 173.062 179.573 174.112 179.044 175.163V187.768H174.104C173.928 188.293 173.752 188.993 173.575 189.518H179.044V205.45H171.811C171.811 205.975 171.811 206.676 171.811 207.201H179.044V223.132H174.634C174.81 223.658 174.986 224.358 175.339 224.883H179.044V233.286C179.573 234.337 180.278 235.387 180.808 236.438V225.058H196.86V240.99H183.806C184.335 241.515 184.688 242.215 185.217 242.74H196.86V258.672H187.687L186.629 260.423H196.683V276.354H180.631V270.577L178.867 273.728V276.354H177.28L176.221 278.105H178.691V282.132L180.455 282.307V277.58H196.507V283.532L198.271 283.707V277.58H214.323V285.458L216.087 285.633V277.58H232.139V288.609C232.139 289.134 232.492 289.485 233.021 289.485C233.55 289.485 233.903 289.134 233.903 288.609V277.58H239.724V275.829H233.727V259.897H247.486C249.073 259.372 250.485 258.847 251.896 258.147H251.543V242.215H267.595V247.467C268.301 246.942 268.83 246.242 269.359 245.541V242.215H271.829C272.181 241.69 272.358 240.99 272.534 240.464H269.536V240.639ZM214.499 275.829H198.447V259.897H214.499V275.829ZM214.499 258.147H198.447V242.215H214.499V258.147ZM232.316 275.829H216.263V259.897H232.316V275.829ZM232.316 258.147H216.263V242.215H232.316V258.147ZM249.955 258.147H233.903V242.215H249.955V258.147Z" fill="black"/>
<path d="M229.846 138.397C241.488 138.397 244.487 142.249 248.897 144.875C253.307 147.501 255.071 153.629 255.071 153.629C255.071 153.629 255.6 151.178 238.666 154.679" fill="white"/>
<path d="M229.846 138.397C241.488 138.397 244.487 142.249 248.897 144.875C253.307 147.501 255.071 153.629 255.071 153.629C255.071 153.629 255.6 151.178 238.666 154.679" stroke="black" stroke-width="2" stroke-miterlimit="10" stroke-linecap="round" stroke-linejoin="round"/>
<path d="M253.307 150.127C251.014 147.851 245.369 146.451 245.369 146.451L253.307 150.127Z" fill="white"/>
<path d="M253.307 150.127C251.014 147.851 245.369 146.451 245.369 146.451" stroke="black" stroke-width="2" stroke-miterlimit="10" stroke-linecap="round" stroke-linejoin="round"/>
<path d="M223.672 139.798L234.079 155.905" stroke="black" stroke-width="2" stroke-miterlimit="10" stroke-linecap="round" stroke-linejoin="round"/>
<ellipse cx="230" cy="218.336" rx="27" ry="26.799" fill="white" stroke="black" stroke-width="2" stroke-miterlimit="10" stroke-linecap="round" stroke-linejoin="round"/>
<ellipse rx="2.89224" ry="2.87928" transform="matrix(0.896257 -0.443536 0.448868 0.893598 230.885 216.512)" fill="black"/>
<ellipse rx="2.89226" ry="2.87929" transform="matrix(0.896258 -0.443533 0.44887 0.893597 246.432 215.244)" fill="black"/>
<path d="M103.898 407.308L134.415 380.347C128.946 374.394 120.303 372.118 111.66 375.62C101.252 379.822 96.3129 391.727 100.546 402.056C101.428 403.982 102.663 405.907 103.898 407.308Z" fill="black"/>
<path d="M252.954 446.524L247.662 454.402" stroke="black" stroke-width="2" stroke-miterlimit="10" stroke-linecap="round" stroke-linejoin="round"/>
<path d="M104.78 418.863L111.836 417.637" stroke="black" stroke-width="2" stroke-miterlimit="10" stroke-linecap="round" stroke-linejoin="round"/>
<path d="M235.314 430.768L240.606 435.144" stroke="black" stroke-width="2" stroke-miterlimit="10" stroke-linecap="round" stroke-linejoin="round"/>
<path d="M304.991 232.936L312.929 234.687" stroke="black" stroke-width="2" stroke-miterlimit="10" stroke-linecap="round" stroke-linejoin="round"/>
<path d="M326.159 313.469L321.749 320.472" stroke="black" stroke-width="2" stroke-miterlimit="10" stroke-linecap="round" stroke-linejoin="round"/>
<path d="M320.867 274.954L326.159 278.455" stroke="black" stroke-width="2" stroke-miterlimit="10" stroke-linecap="round" stroke-linejoin="round"/>
<path d="M330.569 212.803L326.159 221.557" stroke="black" stroke-width="2" stroke-miterlimit="10" stroke-linecap="round" stroke-linejoin="round"/>
<path d="M287.175 288.259L291.056 294.036" stroke="black" stroke-width="2" stroke-miterlimit="10" stroke-linecap="round" stroke-linejoin="round"/>
<path d="M282.941 306.467L278.531 311.719" stroke="black" stroke-width="2" stroke-miterlimit="10" stroke-linecap="round" stroke-linejoin="round"/>
<path d="M304.109 244.316L304.991 251.319" stroke="black" stroke-width="2" stroke-miterlimit="10" stroke-linecap="round" stroke-linejoin="round"/>
<path d="M306.755 209.302L307.637 215.429" stroke="black" stroke-width="2" stroke-miterlimit="10" stroke-linecap="round" stroke-linejoin="round"/>
<path d="M349.62 244.316L349.443 251.319" stroke="black" stroke-width="2" stroke-miterlimit="10" stroke-linecap="round" stroke-linejoin="round"/>
<path d="M232 228.908L244.727 226.276L244.82 226.719C245.557 230.231 243.306 233.667 239.791 234.394C236.277 235.121 232.83 232.863 232.093 229.351L232 228.908Z" fill="black"/>
<path d="M237.716 231.584C238.939 231.004 239.216 230.25 239.261 229.434L235.345 230.244C235.612 231.321 236.715 232.058 237.716 231.584Z" fill="white"/>
<circle cx="216.806" cy="224.415" r="1" transform="rotate(46.8599 216.806 224.415)" fill="black"/>
<circle cx="219.541" cy="227.334" r="1" transform="rotate(46.8599 219.541 227.334)" fill="black"/>
<circle cx="222.459" cy="224.598" r="1" transform="rotate(46.8599 222.459 224.598)" fill="black"/>
<circle cx="222.276" cy="230.252" r="1" transform="rotate(46.8599 222.276 230.252)" fill="black"/>
<circle cx="225.195" cy="227.517" r="1" transform="rotate(46.8599 225.195 227.517)" fill="black"/>
<path d="M201.219 215.563C200.039 219.245 201.854 223.118 205.273 224.213C208.692 225.309 212.964 211.977 209.545 210.881C206.127 209.785 202.399 211.882 201.219 215.563Z" fill="white"/>
<path d="M205.273 224.213C201.854 223.118 200.039 219.245 201.219 215.563C202.399 211.882 206.127 209.785 209.545 210.881" stroke="black" stroke-width="2"/>
<path d="M206.134 219.246C204.955 218.868 204.33 217.533 204.736 216.264C205.143 214.995 206.428 214.272 207.607 214.65" stroke="black" stroke-width="2"/>
<path d="M244 204.966C247.833 203.799 255.5 199.966 255.5 193.966C255.5 187.966 248.833 188.133 245.5 188.966C245.667 186.466 244.3 181.166 237.5 179.966C230.7 178.766 228 183.799 227.5 186.466C226.667 185.133 224.2 182.866 221 184.466C217.8 186.066 218.333 189.133 219 190.466C216.833 190.299 212.2 192.066 211 200.466" stroke="black" stroke-width="2"/>
</svg>
