<svg width="696" height="641" viewBox="0 0 696 641" fill="none" xmlns="http://www.w3.org/2000/svg">
<g filter="url(#filter0_d)">
<rect x="147.265" y="16" width="427.103" height="346.441" rx="6" fill="white"/>
<rect x="144.265" y="13" width="433.103" height="352.441" rx="9" stroke="url(#paint0_linear)" stroke-width="6"/>
</g>
<mask id="mask0" mask-type="alpha" maskUnits="userSpaceOnUse" x="147" y="16" width="428" height="347">
<rect x="147.265" y="16" width="427.103" height="346.441" rx="6" fill="#C4C4C4"/>
</mask>
<g mask="url(#mask0)">
<rect x="147.265" y="16" width="427.103" height="55.709" fill="white"/>
<path fill-rule="evenodd" clip-rule="evenodd" d="M236.632 53.559H240.694H241.694V52.559V48.497H239.694V51.559H236.632V53.559ZM236.632 36.1499H239.694V39.2122H241.694V35.1499V34.1499H240.694H236.632V36.1499ZM227.347 34.1499V36.1499H224.285V39.2122H222.285V35.1499V34.1499H223.285H227.347ZM227.347 51.559V53.559H223.285H222.285V52.559V48.497H224.285V51.559H227.347Z" fill="black"/>
<path fill-rule="evenodd" clip-rule="evenodd" d="M231.989 47.9167C236.355 47.9167 237.792 43.8546 237.792 43.8546C237.792 43.8546 236.355 39.7925 231.989 39.7925C227.624 39.7925 226.186 43.8546 226.186 43.8546C226.186 43.8546 227.624 47.9167 231.989 47.9167ZM231.989 46.1758C233.271 46.1758 234.31 45.1366 234.31 43.8546C234.31 42.5726 233.271 41.5334 231.989 41.5334C230.707 41.5334 229.668 42.5726 229.668 43.8546C229.668 45.1366 230.707 46.1758 231.989 46.1758Z" fill="#86EC16"/>
<circle cx="232.055" cy="43.8471" r="1.32121" stroke="black" stroke-width="2"/>
<path fill-rule="evenodd" clip-rule="evenodd" d="M279.734 52.8497H281.735C281.639 49.1989 280.682 45.6775 277.076 44.1099L276.279 45.9441C278.753 47.0198 279.639 49.4446 279.734 52.8497ZM263.745 52.8497H261.745C261.842 49.2048 262.813 45.6849 266.401 44.1112L267.204 45.9427C264.739 47.0242 263.843 49.457 263.745 52.8497Z" fill="black"/>
<mask id="path-9-inside-1" fill="white">
<ellipse cx="269.707" cy="40.6629" rx="1.45217" ry="1.45076"/>
</mask>
<path d="M269.159 40.6629C269.159 40.3577 269.406 40.1137 269.707 40.1137V44.1137C271.612 44.1137 273.159 42.5705 273.159 40.6629H269.159ZM269.707 40.1137C270.008 40.1137 270.255 40.3577 270.255 40.6629H266.255C266.255 42.5705 267.802 44.1137 269.707 44.1137V40.1137ZM270.255 40.6629C270.255 40.9681 270.008 41.2122 269.707 41.2122V37.2122C267.802 37.2122 266.255 38.7553 266.255 40.6629H270.255ZM269.707 41.2122C269.406 41.2122 269.159 40.9681 269.159 40.6629H273.159C273.159 38.7553 271.612 37.2122 269.707 37.2122V41.2122Z" fill="black" mask="url(#path-9-inside-1)"/>
<mask id="path-11-inside-2" fill="white">
<ellipse cx="273.773" cy="40.6629" rx="1.45217" ry="1.45076"/>
</mask>
<path d="M273.225 40.6629C273.225 40.3577 273.472 40.1137 273.773 40.1137V44.1137C275.678 44.1137 277.225 42.5705 277.225 40.6629H273.225ZM273.773 40.1137C274.074 40.1137 274.321 40.3577 274.321 40.6629H270.321C270.321 42.5705 271.868 44.1137 273.773 44.1137V40.1137ZM274.321 40.6629C274.321 40.9681 274.074 41.2122 273.773 41.2122V37.2122C271.868 37.2122 270.321 38.7553 270.321 40.6629H274.321ZM273.773 41.2122C273.472 41.2122 273.225 40.9681 273.225 40.6629H277.225C277.225 38.7553 275.678 37.2122 273.773 37.2122V41.2122Z" fill="black" mask="url(#path-11-inside-2)"/>
<path d="M280.743 41.8236C280.743 43.4261 278.862 44.7251 277.258 44.7251L277.673 41.8236L277.258 38.9221C278.862 38.9221 280.743 40.2212 280.743 41.8236Z" fill="#C4C4C4"/>
<path d="M262.737 41.8236C262.737 43.4261 264.618 44.7251 266.222 44.7251L265.807 41.8236L266.222 38.9221C264.618 38.9221 262.737 40.2212 262.737 41.8236Z" fill="#C4C4C4"/>
<path d="M277.839 40.3727V40.3727C277.839 37.3281 275.371 34.8599 272.326 34.8599H271.154C268.109 34.8599 265.641 37.3281 265.641 40.3727V40.3727" stroke="#C4C4C4" stroke-width="4"/>
<path d="M276.839 41.8236C276.839 44.6356 274.557 46.9168 271.74 46.9168C268.923 46.9168 266.641 44.6356 266.641 41.8236C266.641 39.0117 268.923 36.7305 271.74 36.7305C274.557 36.7305 276.839 39.0117 276.839 41.8236Z" stroke="black" stroke-width="2"/>
<path d="M273.918 44.4349C275.371 44.4832 278.275 44.1447 278.275 42.4038" stroke="#C4C4C4" stroke-width="2"/>
<rect x="271.159" y="43.5642" width="3.48521" height="1.74091" rx="0.870454" fill="#C4C4C4"/>
<rect x="302.207" y="36.8909" width="17.4091" height="13.9273" stroke="black" stroke-width="2"/>
<circle cx="310.621" cy="44.1448" r="2.77197" stroke="black" stroke-width="2"/>
<path fill-rule="evenodd" clip-rule="evenodd" d="M314.964 44.4346H310.331V39.8018C310.427 39.7954 310.523 39.7922 310.621 39.7922C313.023 39.7922 314.97 41.7375 314.973 44.1383V44.1507C314.973 44.2461 314.97 44.3408 314.964 44.4346Z" fill="#C4C4C4"/>
<path d="M219.803 70.5485C219.803 68.6255 221.362 67.0667 223.285 67.0667H240.694C242.617 67.0667 244.176 68.6255 244.176 70.5485H219.803Z" fill="black"/>
<rect x="413.463" y="32.0879" width="148.298" height="23.5333" rx="11.7667" stroke="black" stroke-width="2"/>
<circle cx="425.81" cy="43.2743" r="3.64242" stroke="black" stroke-width="2"/>
<path d="M428.712 46.1758L432.194 49.6576" stroke="black" stroke-width="2"/>
<rect x="439.157" y="39.2122" width="47.5848" height="9.28484" fill="#C4C4C4"/>
<rect x="147.265" y="16" width="53.3878" height="54.5484" fill="black"/>
<path d="M161.773 43.2744C161.773 49.7034 167.007 54.8803 173.379 54.8803C174.289 54.8803 175.2 54.7663 176.053 54.539V48.0533C175.256 48.5086 174.346 48.736 173.379 48.736C170.363 48.736 167.918 46.2899 167.918 43.2744C167.918 40.2589 170.363 37.8127 173.379 37.8127C174.347 37.8127 175.256 38.0974 176.053 38.4954V32.0098C175.181 31.7775 174.282 31.6626 173.379 31.6684C167.007 31.6684 161.773 36.9027 161.773 43.2744ZM178.841 33.0338V53.5149C182.482 51.5808 184.985 47.7119 184.985 43.2744C184.985 38.8368 182.538 34.9679 178.84 33.0338H178.841Z" fill="#86EC16"/>
<line x1="147.265" y1="70.709" x2="574.368" y2="70.709" stroke="black" stroke-width="2"/>
<rect x="147.265" y="71.709" width="427.103" height="53.3878" fill="#6B6B6B"/>
<rect x="167.996" y="83.155" width="111.739" height="30.4969" fill="white" stroke="black" stroke-width="2"/>
<path d="M179.883 97.3661C180.692 98.648 182.019 99.9786 183.624 101.103C185.23 102.227 186.931 103.024 188.412 103.345C189.062 103.507 189.74 103.539 190.407 103.438C190.669 103.403 190.923 103.316 191.152 103.181C191.382 103.046 191.583 102.866 191.744 102.652L192.474 101.609C192.646 101.362 192.716 101.06 192.668 100.767C192.62 100.473 192.459 100.214 192.219 100.044C192.141 99.988 192.057 99.9425 191.967 99.9084L188.737 98.7572C188.507 98.6756 188.255 98.6732 188.02 98.7504C187.784 98.8276 187.579 98.98 187.436 99.1843L186.951 99.8778C186.915 99.9293 186.862 99.9661 186.802 99.981C186.741 99.996 186.678 99.988 186.625 99.9587C185.575 99.3809 184.592 98.6922 183.69 97.9038C183.644 97.8633 183.615 97.8067 183.608 97.745C183.602 97.6833 183.618 97.6209 183.654 97.5698L184.139 96.8778C184.282 96.6733 184.355 96.4285 184.347 96.1812C184.339 95.9338 184.251 95.6976 184.095 95.509L181.894 92.8549C181.785 92.7232 181.647 92.6192 181.49 92.551C181.334 92.4827 181.163 92.452 180.992 92.4611C180.82 92.4703 180.652 92.5192 180.5 92.604C180.349 92.6888 180.218 92.8071 180.118 92.95L179.388 93.9933C178.84 94.7919 179.013 95.9878 179.883 97.3661Z" fill="black"/>
<rect x="199.492" y="93.7607" width="47.5848" height="9.28484" fill="#C4C4C4"/>
<path d="M258.884 102.552C258.072 102.552 257.39 102.304 256.84 101.81C256.289 101.315 255.967 100.629 255.874 99.7517L256.742 99.6257C256.816 100.279 257.036 100.802 257.4 101.194C257.764 101.576 258.258 101.768 258.884 101.768C259.593 101.768 260.134 101.562 260.508 101.152C260.89 100.732 261.082 100.162 261.082 99.4437C261.082 98.6877 260.89 98.109 260.508 97.7077C260.125 97.3064 259.584 97.1057 258.884 97.1057C258.576 97.1057 258.286 97.1897 258.016 97.3577L257.596 96.8117L260.13 93.4237H256.364V92.6397H261.488V92.8777L258.842 96.3917C258.926 96.3637 259.047 96.3497 259.206 96.3497C259.691 96.3497 260.144 96.471 260.564 96.7137C260.993 96.9564 261.334 97.3157 261.586 97.7917C261.847 98.2584 261.978 98.809 261.978 99.4437C261.978 100.05 261.852 100.592 261.6 101.068C261.357 101.534 261.002 101.898 260.536 102.16C260.069 102.421 259.518 102.552 258.884 102.552ZM263.101 102.118L266.671 97.4977C267.119 96.9284 267.413 96.4897 267.553 96.1817C267.693 95.8737 267.763 95.5144 267.763 95.1037C267.763 94.553 267.609 94.119 267.301 93.8017C266.993 93.475 266.568 93.3117 266.027 93.3117C265.523 93.3117 265.098 93.4984 264.753 93.8717C264.417 94.2357 264.207 94.707 264.123 95.2857L263.311 95.1317C263.385 94.3664 263.67 93.741 264.165 93.2557C264.659 92.7704 265.28 92.5277 266.027 92.5277C266.801 92.5277 267.431 92.7564 267.917 93.2137C268.411 93.671 268.659 94.3104 268.659 95.1317C268.659 95.5704 268.556 95.995 268.351 96.4057C268.155 96.8164 267.861 97.2737 267.469 97.7777L264.473 101.656H268.897V102.44H263.101V102.118Z" fill="black"/>
<rect x="293.341" y="83.1545" width="262.618" height="30.4969" fill="white" stroke="black" stroke-width="2"/>
<circle cx="308.589" cy="98.4031" r="5.80303" stroke="#676767" stroke-width="4"/>
<path d="M308.589 92.6001C311.794 92.6001 314.392 95.1982 314.392 98.4031C314.392 101.608 311.794 104.206 308.589 104.206C305.384 104.206 302.786 101.608 302.786 98.4031C302.786 96.6083 303.601 95.0037 304.881 93.9393" stroke="#86EC16" stroke-width="4" stroke-linejoin="round"/>
<rect x="320.196" y="93.7605" width="70.2166" height="9.28484" fill="#C4C4C4"/>
<path d="M400.849 98.6735C400.756 98.7481 400.616 98.8088 400.429 98.8555C400.252 98.8928 400.088 98.9115 399.939 98.9115C399.342 98.9115 398.81 98.7715 398.343 98.4915C397.886 98.2115 397.526 97.8288 397.265 97.3435C397.013 96.8581 396.887 96.3168 396.887 95.7195C396.887 95.1221 397.013 94.5808 397.265 94.0955C397.526 93.6101 397.886 93.2275 398.343 92.9475C398.81 92.6675 399.342 92.5275 399.939 92.5275C400.536 92.5275 401.064 92.6675 401.521 92.9475C401.988 93.2275 402.347 93.6101 402.599 94.0955C402.86 94.5808 402.991 95.1221 402.991 95.7195C402.991 96.3075 402.818 96.9095 402.473 97.5255L399.575 102.551H398.665L400.849 98.6735ZM399.939 98.1275C400.574 98.1275 401.092 97.9128 401.493 97.4835C401.894 97.0448 402.095 96.4568 402.095 95.7195C402.095 95.2621 402.002 94.8515 401.815 94.4875C401.638 94.1141 401.381 93.8248 401.045 93.6195C400.718 93.4141 400.35 93.3115 399.939 93.3115C399.528 93.3115 399.155 93.4141 398.819 93.6195C398.492 93.8248 398.236 94.1141 398.049 94.4875C397.872 94.8515 397.783 95.2621 397.783 95.7195C397.783 96.4568 397.984 97.0448 398.385 97.4835C398.786 97.9128 399.304 98.1275 399.939 98.1275ZM407.824 102.551C406.723 102.551 405.883 102.103 405.304 101.207C404.735 100.302 404.45 99.0795 404.45 97.5395C404.45 95.9995 404.735 94.7815 405.304 93.8855C405.883 92.9801 406.723 92.5275 407.824 92.5275C408.926 92.5275 409.761 92.9801 410.33 93.8855C410.909 94.7815 411.198 95.9995 411.198 97.5395C411.198 99.0795 410.909 100.302 410.33 101.207C409.761 102.103 408.926 102.551 407.824 102.551ZM407.824 101.767C408.338 101.767 408.781 101.59 409.154 101.235C409.528 100.881 409.812 100.386 410.008 99.7515C410.204 99.1075 410.302 98.3701 410.302 97.5395C410.302 96.7088 410.204 95.9761 410.008 95.3415C409.812 94.6975 409.528 94.1981 409.154 93.8435C408.781 93.4888 408.338 93.3115 407.824 93.3115C407.311 93.3115 406.868 93.4888 406.494 93.8435C406.121 94.1981 405.836 94.6975 405.64 95.3415C405.444 95.9761 405.346 96.7088 405.346 97.5395C405.346 98.3701 405.444 99.1075 405.64 99.7515C405.836 100.386 406.121 100.881 406.494 101.235C406.868 101.59 407.311 101.767 407.824 101.767ZM413.799 102.313L421.387 92.3035L421.975 92.7655L414.387 102.775L413.799 102.313ZM415.045 97.0075C414.625 97.0075 414.247 96.9095 413.911 96.7135C413.584 96.5081 413.323 96.2375 413.127 95.9015C412.94 95.5561 412.847 95.1781 412.847 94.7675C412.847 94.3568 412.94 93.9835 413.127 93.6475C413.323 93.3021 413.584 93.0315 413.911 92.8355C414.247 92.6301 414.625 92.5275 415.045 92.5275C415.465 92.5275 415.838 92.6301 416.165 92.8355C416.501 93.0315 416.762 93.3021 416.949 93.6475C417.145 93.9835 417.243 94.3568 417.243 94.7675C417.243 95.1781 417.145 95.5561 416.949 95.9015C416.762 96.2375 416.501 96.5081 416.165 96.7135C415.838 96.9095 415.465 97.0075 415.045 97.0075ZM415.045 96.2515C415.483 96.2515 415.833 96.1115 416.095 95.8315C416.356 95.5515 416.487 95.1968 416.487 94.7675C416.487 94.3381 416.356 93.9835 416.095 93.7035C415.833 93.4235 415.483 93.2835 415.045 93.2835C414.606 93.2835 414.256 93.4235 413.995 93.7035C413.733 93.9835 413.603 94.3381 413.603 94.7675C413.603 95.1968 413.733 95.5515 413.995 95.8315C414.256 96.1115 414.606 96.2515 415.045 96.2515ZM420.729 102.551C420.309 102.551 419.931 102.453 419.595 102.257C419.268 102.052 419.007 101.781 418.811 101.445C418.624 101.1 418.531 100.722 418.531 100.311C418.531 99.9008 418.624 99.5275 418.811 99.1915C419.007 98.8461 419.268 98.5755 419.595 98.3795C419.931 98.1741 420.309 98.0715 420.729 98.0715C421.149 98.0715 421.522 98.1741 421.849 98.3795C422.185 98.5755 422.446 98.8461 422.633 99.1915C422.829 99.5275 422.927 99.9008 422.927 100.311C422.927 100.722 422.829 101.1 422.633 101.445C422.446 101.781 422.185 102.052 421.849 102.257C421.522 102.453 421.149 102.551 420.729 102.551ZM420.729 101.795C421.167 101.795 421.517 101.655 421.779 101.375C422.04 101.095 422.171 100.741 422.171 100.311C422.171 99.8821 422.04 99.5275 421.779 99.2475C421.517 98.9675 421.167 98.8275 420.729 98.8275C420.29 98.8275 419.94 98.9675 419.679 99.2475C419.417 99.5275 419.287 99.8821 419.287 100.311C419.287 100.741 419.417 101.095 419.679 101.375C419.94 101.655 420.29 101.795 420.729 101.795Z" fill="black"/>
<rect x="429.873" y="93.7605" width="18.5697" height="9.28484" fill="#C4C4C4"/>
<rect x="454.245" y="91.4395" width="24.3727" height="13.9273" rx="6.96363" fill="#646464"/>
<rect x="484.421" y="93.7605" width="8.70454" height="9.28484" fill="#C4C4C4"/>
<rect x="498.929" y="91.4395" width="21.4712" height="13.9273" rx="6.96363" fill="#FF6B6A"/>
<rect x="526.203" y="91.4395" width="20.3106" height="13.9273" rx="6.96363" fill="#B1FF5B"/>
<rect x="167.996" y="136.542" width="387.963" height="53.709" fill="white" stroke="black" stroke-width="2"/>
<rect x="203.555" y="144.827" width="30.1757" height="9.28484" fill="#636363"/>
<rect x="385.189" y="144.827" width="30.1757" height="9.28484" fill="#636363"/>
<rect x="252.3" y="144.827" width="70.7969" height="9.28484" fill="#C4C4C4"/>
<rect x="433.935" y="144.827" width="100.973" height="9.28484" fill="#C4C4C4"/>
<rect x="203.555" y="158.755" width="24.3727" height="9.28484" fill="#636363"/>
<rect x="385.189" y="158.755" width="36.5591" height="9.28484" fill="#636363"/>
<rect x="252.3" y="158.755" width="111.998" height="9.28484" fill="#C4C4C4"/>
<rect x="203.555" y="172.682" width="36.5591" height="9.28484" fill="#636363"/>
<rect x="385.189" y="172.682" width="36.5591" height="9.28484" fill="#636363"/>
<rect x="252.3" y="172.682" width="70.7969" height="9.28484" fill="#C4C4C4"/>
<rect x="433.935" y="172.682" width="82.9833" height="9.28484" fill="#C4C4C4"/>
<circle cx="185.565" cy="163.397" r="3.48182" fill="#86EC16"/>
<rect x="167.996" y="202.697" width="387.963" height="53.709" fill="white" stroke="black" stroke-width="2"/>
<rect x="203.555" y="210.982" width="30.1757" height="9.28484" fill="#636363"/>
<rect x="385.189" y="210.982" width="30.1757" height="9.28484" fill="#636363"/>
<rect x="252.3" y="210.982" width="70.7969" height="9.28484" fill="#C4C4C4"/>
<rect x="433.935" y="210.982" width="74.859" height="9.28484" fill="#C4C4C4"/>
<rect x="433.935" y="224.909" width="100.973" height="9.28484" fill="#C4C4C4"/>
<rect x="203.555" y="224.909" width="24.3727" height="9.28484" fill="#636363"/>
<rect x="385.189" y="224.909" width="36.5591" height="9.28484" fill="#636363"/>
<rect x="252.3" y="224.909" width="93.4287" height="9.28484" fill="#C4C4C4"/>
<rect x="203.555" y="238.836" width="36.5591" height="9.28484" fill="#636363"/>
<rect x="385.189" y="238.836" width="36.5591" height="9.28484" fill="#636363"/>
<rect x="252.3" y="238.836" width="91.1075" height="9.28484" fill="#C4C4C4"/>
<rect x="433.935" y="238.836" width="94.5893" height="9.28484" fill="#C4C4C4"/>
<circle cx="185.565" cy="229.551" r="3.48182" fill="#86EC16"/>
<rect x="166.835" y="268.851" width="387.963" height="53.709" fill="white" stroke="black" stroke-width="2"/>
<rect x="203.555" y="277.136" width="30.1757" height="9.28484" fill="#636363"/>
<rect x="385.189" y="277.136" width="30.1757" height="9.28484" fill="#636363"/>
<rect x="252.3" y="277.136" width="70.7969" height="9.28484" fill="#C4C4C4"/>
<rect x="433.935" y="277.136" width="100.973" height="9.28484" fill="#C4C4C4"/>
<rect x="433.935" y="291.063" width="59.7712" height="9.28484" fill="#C4C4C4"/>
<rect x="203.555" y="291.063" width="24.3727" height="9.28484" fill="#636363"/>
<rect x="385.189" y="291.063" width="36.5591" height="9.28484" fill="#636363"/>
<rect x="252.3" y="291.063" width="103.294" height="9.28484" fill="#C4C4C4"/>
<rect x="203.555" y="304.991" width="36.5591" height="9.28484" fill="#636363"/>
<rect x="385.189" y="304.991" width="36.5591" height="9.28484" fill="#636363"/>
<rect x="252.3" y="304.991" width="88.7863" height="9.28484" fill="#C4C4C4"/>
<rect x="433.935" y="304.991" width="102.133" height="9.28484" fill="#C4C4C4"/>
<circle cx="185.565" cy="295.706" r="3.48182" fill="#86EC16"/>
<rect x="167.996" y="335.006" width="387.963" height="53.709" fill="white" stroke="black" stroke-width="2"/>
<rect x="203.555" y="343.291" width="30.1757" height="9.28484" fill="#636363"/>
<rect x="385.189" y="343.291" width="30.1757" height="9.28484" fill="#636363"/>
<rect x="252.3" y="343.291" width="70.7969" height="9.28484" fill="#C4C4C4"/>
<rect x="433.935" y="343.291" width="100.973" height="9.28484" fill="#C4C4C4"/>
<rect x="203.555" y="357.218" width="24.3727" height="9.28484" fill="#636363"/>
<rect x="385.189" y="357.218" width="36.5591" height="9.28484" fill="#636363"/>
<rect x="252.3" y="357.218" width="111.998" height="9.28484" fill="#C4C4C4"/>
<circle cx="185.565" cy="361.86" r="3.48182" fill="#86EC16"/>
<g opacity="0.4" filter="url(#filter1_d)">
<rect x="147.265" y="16" width="427.103" height="346.441" rx="6" fill="white"/>
</g>
</g>
<g filter="url(#filter2_d)">
<rect x="113.885" y="117.122" width="494.33" height="400.971" rx="6" fill="white"/>
<rect x="110.885" y="114.122" width="500.33" height="406.971" rx="9" stroke="url(#paint1_linear)" stroke-width="6"/>
</g>
<mask id="mask1" mask-type="alpha" maskUnits="userSpaceOnUse" x="113" y="117" width="496" height="402">
<rect x="113.885" y="117.122" width="494.33" height="400.971" rx="6" fill="#C4C4C4"/>
</mask>
<g mask="url(#mask1)">
<rect x="113.885" y="117.122" width="494.33" height="64.4778" fill="white"/>
<path fill-rule="evenodd" clip-rule="evenodd" d="M217.318 160.436H222.019H223.019V159.436V154.734H221.019V158.436H217.318V160.436ZM217.318 140.286H221.019V143.988H223.019V139.286V138.286H222.019H217.318V140.286ZM206.572 138.286V140.286H202.87V143.988H200.87V139.286V138.286H201.87H206.572ZM206.572 158.436V160.436H201.87H200.87V159.436V154.734H202.87V158.436H206.572Z" fill="black"/>
<path fill-rule="evenodd" clip-rule="evenodd" d="M211.945 154.063C216.998 154.063 218.661 149.361 218.661 149.361C218.661 149.361 216.998 144.66 211.945 144.66C206.892 144.66 205.229 149.361 205.229 149.361C205.229 149.361 206.892 154.063 211.945 154.063ZM211.945 152.048C213.429 152.048 214.631 150.845 214.631 149.361C214.631 147.877 213.429 146.675 211.945 146.675C210.461 146.675 209.258 147.877 209.258 149.361C209.258 150.845 210.461 152.048 211.945 152.048Z" fill="#C4C4C4"/>
<circle cx="211.945" cy="149.361" r="1.68658" stroke="black" stroke-width="2"/>
<path fill-rule="evenodd" clip-rule="evenodd" d="M267.363 159.771H269.363C269.252 155.565 268.15 151.576 264.065 149.801L263.268 151.635C266.221 152.918 267.252 155.811 267.363 159.771ZM248.542 159.771H246.542C246.654 155.572 247.772 151.584 251.836 149.802L252.639 151.633C249.698 152.924 248.655 155.825 248.542 159.771Z" fill="black"/>
<mask id="path-104-inside-3" fill="white">
<ellipse cx="255.599" cy="145.667" rx="1.68074" ry="1.67911"/>
</mask>
<path d="M255.28 145.667C255.28 145.488 255.425 145.346 255.599 145.346V149.346C257.63 149.346 259.28 147.701 259.28 145.667H255.28ZM255.599 145.346C255.774 145.346 255.919 145.488 255.919 145.667H251.919C251.919 147.701 253.568 149.346 255.599 149.346V145.346ZM255.919 145.667C255.919 145.846 255.774 145.988 255.599 145.988V141.988C253.568 141.988 251.919 143.633 251.919 145.667H255.919ZM255.599 145.988C255.425 145.988 255.28 145.846 255.28 145.667H259.28C259.28 143.633 257.63 141.988 255.599 141.988V145.988Z" fill="black" mask="url(#path-104-inside-3)"/>
<mask id="path-106-inside-4" fill="white">
<ellipse cx="260.306" cy="145.667" rx="1.68074" ry="1.67911"/>
</mask>
<path d="M259.986 145.667C259.986 145.488 260.131 145.346 260.306 145.346V149.346C262.337 149.346 263.986 147.701 263.986 145.667H259.986ZM260.306 145.346C260.48 145.346 260.625 145.488 260.625 145.667H256.625C256.625 147.701 258.275 149.346 260.306 149.346V145.346ZM260.625 145.667C260.625 145.846 260.48 145.988 260.306 145.988V141.988C258.275 141.988 256.625 143.633 256.625 145.667H260.625ZM260.306 145.988C260.131 145.988 259.986 145.846 259.986 145.667H263.986C263.986 143.633 262.337 141.988 260.306 141.988V145.988Z" fill="black" mask="url(#path-106-inside-4)"/>
<path fill-rule="evenodd" clip-rule="evenodd" d="M249.55 145.331C249.55 141.065 253.008 137.607 257.274 137.607H258.631C262.897 137.607 266.355 141.065 266.355 145.331H263.668C263.668 142.549 261.413 140.294 258.631 140.294H257.274C254.492 140.294 252.237 142.549 252.237 145.331H249.55Z" fill="#86EC16"/>
<path d="M264.012 147.01C264.012 150.352 261.3 153.062 257.952 153.062C254.605 153.062 251.893 150.352 251.893 147.01C251.893 143.668 254.605 140.958 257.952 140.958C261.3 140.958 264.012 143.668 264.012 147.01Z" stroke="black" stroke-width="2"/>
<path fill-rule="evenodd" clip-rule="evenodd" d="M264.339 150.368C266.196 150.368 268.373 148.865 268.373 147.01C268.373 145.155 266.196 143.652 264.339 143.652L264.82 147.01L264.64 148.268C264.423 148.55 264.026 148.796 263.417 148.995C262.671 149.238 261.787 149.341 261.058 149.362C260.873 149.155 260.605 149.025 260.306 149.025H258.287C257.731 149.025 257.28 149.476 257.28 150.032C257.28 150.589 257.731 151.04 258.287 151.04H260.306C260.604 151.04 260.871 150.911 261.056 150.705C261.887 150.685 262.922 150.57 263.833 150.272C264.015 150.213 264.2 150.143 264.383 150.061L264.339 150.368ZM251.566 150.368C249.709 150.368 247.532 148.865 247.532 147.01C247.532 145.155 249.709 143.652 251.566 143.652L251.086 147.01L251.566 150.368Z" fill="#86EC16"/>
<rect x="293.214" y="141.301" width="20.1493" height="16.1195" stroke="black" stroke-width="2"/>
<circle cx="302.953" cy="149.696" r="3.36568" stroke="black" stroke-width="2"/>
<path fill-rule="evenodd" clip-rule="evenodd" d="M307.979 150.032H302.617V144.67C302.728 144.662 302.84 144.659 302.953 144.659C305.726 144.659 307.975 146.898 307.99 149.667V149.725C307.99 149.828 307.986 149.93 307.979 150.032Z" fill="#C4C4C4"/>
<path d="M244.184 180.256C244.184 178.031 245.988 176.227 248.214 176.227H268.363C270.589 176.227 272.393 178.031 272.393 180.256H244.184Z" fill="black"/>
<rect x="421.826" y="135.584" width="171.956" height="27.5523" rx="13.7762" stroke="black" stroke-width="2"/>
<circle cx="436.274" cy="148.689" r="4.37315" stroke="black" stroke-width="2"/>
<path d="M439.632 152.047L443.662 156.077" stroke="black" stroke-width="2"/>
<rect x="451.722" y="143.988" width="55.0748" height="10.7463" fill="#C4C4C4"/>
<rect x="113.885" y="117.122" width="61.7912" height="63.1345" fill="black"/>
<path d="M130.676 148.689C130.676 156.13 136.734 162.122 144.109 162.122C145.163 162.122 146.216 161.99 147.204 161.727V154.22C146.282 154.747 145.228 155.01 144.109 155.01C140.619 155.01 137.788 152.179 137.788 148.689C137.788 145.199 140.619 142.368 144.109 142.368C145.229 142.368 146.282 142.697 147.204 143.158V135.651C146.195 135.383 145.154 135.25 144.11 135.256C136.734 135.256 130.676 141.315 130.676 148.689ZM150.43 136.837V160.542C154.645 158.303 157.542 153.825 157.542 148.689C157.542 143.553 154.709 139.075 150.43 136.837H150.43Z" fill="#86EC16"/>
<line x1="113.885" y1="180.6" x2="608.215" y2="180.6" stroke="black" stroke-width="2"/>
<rect x="113.885" y="181.6" width="494.33" height="102.09" fill="#6B6B6B"/>
<rect opacity="0.5" x="130.004" y="199.734" width="66.0419" height="65.1495" rx="19" fill="black"/>
<path d="M143.281 247.216L147.871 241.276C148.447 240.544 148.825 239.98 149.005 239.584C149.185 239.188 149.275 238.726 149.275 238.198C149.275 237.49 149.077 236.932 148.681 236.524C148.285 236.104 147.739 235.894 147.043 235.894C146.395 235.894 145.849 236.134 145.405 236.614C144.973 237.082 144.703 237.688 144.595 238.432L143.551 238.234C143.647 237.25 144.013 236.446 144.649 235.822C145.285 235.198 146.083 234.886 147.043 234.886C148.039 234.886 148.849 235.18 149.473 235.768C150.109 236.356 150.427 237.178 150.427 238.234C150.427 238.798 150.295 239.344 150.031 239.872C149.779 240.4 149.401 240.988 148.897 241.636L145.045 246.622H150.733V247.63H143.281V247.216ZM156.19 247.774C155.146 247.774 154.288 247.486 153.616 246.91C152.956 246.322 152.554 245.458 152.41 244.318L153.508 244.12C153.748 245.884 154.642 246.766 156.19 246.766C157.042 246.766 157.696 246.478 158.152 245.902C158.608 245.326 158.836 244.534 158.836 243.526C158.836 242.47 158.608 241.666 158.152 241.114C157.696 240.562 157.072 240.286 156.28 240.286C155.656 240.286 155.11 240.442 154.642 240.754C154.174 241.066 153.796 241.474 153.508 241.978L152.716 241.798L153.364 235.03H159.25V236.038H154.372L153.94 240.196C154.552 239.584 155.368 239.278 156.388 239.278C157.096 239.278 157.72 239.452 158.26 239.8C158.812 240.136 159.238 240.628 159.538 241.276C159.838 241.912 159.988 242.662 159.988 243.526C159.988 244.354 159.832 245.092 159.52 245.74C159.208 246.376 158.764 246.874 158.188 247.234C157.624 247.594 156.958 247.774 156.19 247.774Z" fill="white"/>
<rect x="142.705" y="210.48" width="40.6412" height="10.7463" fill="#C4C4C4"/>
<rect opacity="0.5" x="209.214" y="199.734" width="66.0419" height="65.1495" rx="19" fill="black"/>
<path d="M226.703 247.774C225.935 247.774 225.251 247.594 224.651 247.234C224.063 246.874 223.601 246.382 223.265 245.758C222.941 245.134 222.779 244.438 222.779 243.67C222.779 242.806 223.049 241.912 223.589 240.988L227.171 234.886H228.341L225.533 239.872C225.653 239.776 225.827 239.704 226.055 239.656C226.295 239.596 226.511 239.566 226.703 239.566C227.471 239.566 228.149 239.746 228.737 240.106C229.337 240.466 229.799 240.958 230.123 241.582C230.459 242.206 230.627 242.902 230.627 243.67C230.627 244.438 230.459 245.134 230.123 245.758C229.799 246.382 229.337 246.874 228.737 247.234C228.149 247.594 227.471 247.774 226.703 247.774ZM226.703 246.766C227.231 246.766 227.705 246.634 228.125 246.37C228.557 246.106 228.887 245.74 229.115 245.272C229.355 244.792 229.475 244.258 229.475 243.67C229.475 242.722 229.217 241.972 228.701 241.42C228.185 240.856 227.519 240.574 226.703 240.574C225.887 240.574 225.221 240.856 224.705 241.42C224.189 241.972 223.931 242.722 223.931 243.67C223.931 244.258 224.045 244.792 224.273 245.272C224.513 245.74 224.843 246.106 225.263 246.37C225.695 246.634 226.175 246.766 226.703 246.766Z" fill="white"/>
<rect x="221.915" y="210.48" width="40.6412" height="10.7463" fill="#C4C4C4"/>
<rect opacity="0.5" x="288.424" y="199.734" width="66.0419" height="65.1495" rx="19" fill="black"/>
<path d="M305.859 247.774C304.815 247.774 303.939 247.456 303.231 246.82C302.523 246.184 302.109 245.302 301.989 244.174L303.105 244.012C303.201 244.852 303.483 245.524 303.951 246.028C304.419 246.52 305.055 246.766 305.859 246.766C306.771 246.766 307.467 246.502 307.947 245.974C308.439 245.434 308.685 244.702 308.685 243.778C308.685 242.806 308.439 242.062 307.947 241.546C307.455 241.03 306.759 240.772 305.859 240.772C305.463 240.772 305.091 240.88 304.743 241.096L304.203 240.394L307.461 236.038H302.619V235.03H309.207V235.336L305.805 239.854C305.913 239.818 306.069 239.8 306.273 239.8C306.897 239.8 307.479 239.956 308.019 240.268C308.571 240.58 309.009 241.042 309.333 241.654C309.669 242.254 309.837 242.962 309.837 243.778C309.837 244.558 309.675 245.254 309.351 245.866C309.039 246.466 308.583 246.934 307.983 247.27C307.383 247.606 306.675 247.774 305.859 247.774ZM317.059 244.732H311.497V244.426L316.807 235.03H318.175V243.724H319.849V244.732H318.175V247.63H317.059V244.732ZM317.059 243.724V236.614L313.081 243.724H317.059Z" fill="white"/>
<rect x="301.125" y="210.48" width="40.6412" height="10.7463" fill="#C4C4C4"/>
<rect opacity="0.5" x="367.634" y="199.734" width="66.0419" height="65.1495" rx="19" fill="black"/>
<path d="M385.068 247.774C384.024 247.774 383.148 247.456 382.44 246.82C381.732 246.184 381.318 245.302 381.198 244.174L382.314 244.012C382.41 244.852 382.692 245.524 383.16 246.028C383.628 246.52 384.264 246.766 385.068 246.766C385.98 246.766 386.676 246.502 387.156 245.974C387.648 245.434 387.894 244.702 387.894 243.778C387.894 242.806 387.648 242.062 387.156 241.546C386.664 241.03 385.968 240.772 385.068 240.772C384.672 240.772 384.3 240.88 383.952 241.096L383.412 240.394L386.67 236.038H381.828V235.03H388.416V235.336L385.014 239.854C385.122 239.818 385.278 239.8 385.482 239.8C386.106 239.8 386.688 239.956 387.228 240.268C387.78 240.58 388.218 241.042 388.542 241.654C388.878 242.254 389.046 242.962 389.046 243.778C389.046 244.558 388.884 245.254 388.56 245.866C388.248 246.466 387.792 246.934 387.192 247.27C386.592 247.606 385.884 247.774 385.068 247.774Z" fill="white"/>
<rect x="380.334" y="210.48" width="40.6412" height="10.7463" fill="#C4C4C4"/>
<rect opacity="0.5" x="446.843" y="199.734" width="66.0419" height="65.1495" rx="19" fill="black"/>
<path d="M464.89 247.774C463.474 247.774 462.394 247.198 461.65 246.046C460.918 244.882 460.552 243.31 460.552 241.33C460.552 239.35 460.918 237.784 461.65 236.632C462.394 235.468 463.474 234.886 464.89 234.886C466.306 234.886 467.38 235.468 468.112 236.632C468.856 237.784 469.228 239.35 469.228 241.33C469.228 243.31 468.856 244.882 468.112 246.046C467.38 247.198 466.306 247.774 464.89 247.774ZM464.89 246.766C465.55 246.766 466.12 246.538 466.6 246.082C467.08 245.626 467.446 244.99 467.698 244.174C467.95 243.346 468.076 242.398 468.076 241.33C468.076 240.262 467.95 239.32 467.698 238.504C467.446 237.676 467.08 237.034 466.6 236.578C466.12 236.122 465.55 235.894 464.89 235.894C464.23 235.894 463.66 236.122 463.18 236.578C462.7 237.034 462.334 237.676 462.082 238.504C461.83 239.32 461.704 240.262 461.704 241.33C461.704 242.398 461.83 243.346 462.082 244.174C462.334 244.99 462.7 245.626 463.18 246.082C463.66 246.538 464.23 246.766 464.89 246.766Z" fill="white"/>
<rect x="459.544" y="210.48" width="40.6412" height="10.7463" fill="#C4C4C4"/>
<rect opacity="0.5" x="526.053" y="199.734" width="66.0419" height="65.1495" rx="19" fill="black"/>
<path d="M544.1 247.774C542.684 247.774 541.604 247.198 540.86 246.046C540.128 244.882 539.762 243.31 539.762 241.33C539.762 239.35 540.128 237.784 540.86 236.632C541.604 235.468 542.684 234.886 544.1 234.886C545.516 234.886 546.59 235.468 547.322 236.632C548.066 237.784 548.438 239.35 548.438 241.33C548.438 243.31 548.066 244.882 547.322 246.046C546.59 247.198 545.516 247.774 544.1 247.774ZM544.1 246.766C544.76 246.766 545.33 246.538 545.81 246.082C546.29 245.626 546.656 244.99 546.908 244.174C547.16 243.346 547.286 242.398 547.286 241.33C547.286 240.262 547.16 239.32 546.908 238.504C546.656 237.676 546.29 237.034 545.81 236.578C545.33 236.122 544.76 235.894 544.1 235.894C543.44 235.894 542.87 236.122 542.39 236.578C541.91 237.034 541.544 237.676 541.292 238.504C541.04 239.32 540.914 240.262 540.914 241.33C540.914 242.398 541.04 243.346 541.292 244.174C541.544 244.99 541.91 245.626 542.39 246.082C542.87 246.538 543.44 246.766 544.1 246.766Z" fill="white"/>
<rect x="538.754" y="210.48" width="40.6412" height="10.7463" fill="#C4C4C4"/>
<rect x="113.885" y="283.689" width="494.33" height="36.9404" fill="black"/>
<rect x="129.333" y="332.719" width="18.3477" height="10.7463" fill="#636363"/>
<rect x="160.9" y="332.719" width="31.5673" height="10.7463" fill="#636363"/>
<rect x="214.632" y="332.719" width="46.3434" height="10.7463" fill="#636363"/>
<rect x="290.527" y="332.719" width="45.0001" height="10.7463" fill="#636363"/>
<rect x="371.125" y="332.719" width="71.8659" height="10.7463" fill="#636363"/>
<rect x="466.498" y="332.719" width="111.493" height="10.7463" fill="#636363"/>
<rect x="129.333" y="355.555" width="18.3477" height="10.7463" fill="#636363"/>
<rect x="160.9" y="355.555" width="26.1941" height="10.7463" fill="#636363"/>
<rect x="214.632" y="355.555" width="61.7912" height="10.7463" fill="#636363"/>
<rect x="290.527" y="355.555" width="38.9553" height="10.7463" fill="#636363"/>
<rect x="371.125" y="355.555" width="65.8211" height="10.7463" fill="#636363"/>
<rect x="466.498" y="355.555" width="129.627" height="10.7463" fill="#636363"/>
<rect x="129.333" y="378.391" width="18.3477" height="10.7463" fill="#636363"/>
<rect x="160.9" y="378.391" width="36.9404" height="10.7463" fill="#636363"/>
<rect x="214.632" y="378.391" width="55.7464" height="10.7463" fill="#636363"/>
<rect x="290.527" y="378.391" width="45.0001" height="10.7463" fill="#636363"/>
<rect x="371.125" y="378.391" width="69.1793" height="10.7463" fill="#636363"/>
<rect x="466.498" y="378.391" width="122.239" height="10.7463" fill="#636363"/>
<rect x="129.333" y="401.227" width="18.3477" height="10.7463" fill="#636363"/>
<rect x="160.9" y="401.227" width="38.9553" height="10.7463" fill="#636363"/>
<rect x="214.632" y="401.227" width="42.9852" height="10.7463" fill="#636363"/>
<rect x="290.527" y="401.227" width="41.6419" height="10.7463" fill="#636363"/>
<rect x="371.125" y="401.227" width="59.7763" height="10.7463" fill="#636363"/>
<rect x="466.498" y="401.227" width="111.493" height="10.7463" fill="#636363"/>
<rect x="129.333" y="424.063" width="18.3477" height="10.7463" fill="#636363"/>
<rect x="160.9" y="424.063" width="28.8807" height="10.7463" fill="#636363"/>
<rect x="214.632" y="424.063" width="59.1047" height="10.7463" fill="#636363"/>
<rect x="290.527" y="424.063" width="39.627" height="10.7463" fill="#636363"/>
<rect x="371.125" y="424.063" width="79.254" height="10.7463" fill="#636363"/>
<rect x="466.498" y="424.063" width="111.493" height="10.7463" fill="#636363"/>
<rect x="129.333" y="446.899" width="18.3477" height="10.7463" fill="#636363"/>
<rect x="160.9" y="446.899" width="36.2688" height="10.7463" fill="#636363"/>
<rect x="214.632" y="446.899" width="57.7614" height="10.7463" fill="#636363"/>
<rect x="290.527" y="446.899" width="45.0001" height="10.7463" fill="#636363"/>
<rect x="371.125" y="446.899" width="76.5674" height="10.7463" fill="#636363"/>
<rect x="466.498" y="446.899" width="123.582" height="10.7463" fill="#636363"/>
<rect x="129.333" y="469.735" width="18.3477" height="10.7463" fill="#636363"/>
<rect x="160.9" y="469.735" width="33.5822" height="10.7463" fill="#636363"/>
<rect x="214.632" y="469.735" width="61.1196" height="10.7463" fill="#636363"/>
<rect x="290.527" y="469.735" width="40.2986" height="10.7463" fill="#636363"/>
<rect x="371.125" y="469.735" width="81.9406" height="10.7463" fill="#636363"/>
<rect x="466.498" y="469.735" width="120.224" height="10.7463" fill="#636363"/>
<rect x="129.333" y="492.571" width="18.3477" height="10.7463" fill="#636363"/>
<rect x="160.9" y="492.571" width="22.8359" height="10.7463" fill="#636363"/>
<rect x="214.632" y="492.571" width="55.7464" height="10.7463" fill="#636363"/>
<rect x="290.527" y="492.571" width="42.9852" height="10.7463" fill="#636363"/>
<rect x="371.125" y="492.571" width="73.2092" height="10.7463" fill="#636363"/>
<rect x="466.498" y="492.571" width="111.493" height="10.7463" fill="#636363"/>
<rect x="129.333" y="515.407" width="18.3477" height="10.7463" fill="#636363"/>
<rect x="160.9" y="515.406" width="31.5673" height="10.7463" fill="#636363"/>
<rect x="214.632" y="515.406" width="50.3733" height="10.7463" fill="#636363"/>
<rect x="290.527" y="515.406" width="45.0001" height="10.7463" fill="#636363"/>
<rect x="371.125" y="515.406" width="71.8659" height="10.7463" fill="#636363"/>
<rect x="466.498" y="515.406" width="127.612" height="10.7463" fill="#636363"/>
<g clip-path="url(#clip0)">
<rect x="129.333" y="293.824" width="27.3176" height="16" fill="white"/>
<rect x="176.65" y="293.824" width="59.6941" height="16" fill="white"/>
<rect x="256.344" y="293.824" width="93.0824" height="16" fill="white"/>
<rect x="369.427" y="293.824" width="71.8353" height="16" fill="white"/>
<rect x="461.262" y="293.824" width="149.741" height="16" fill="white"/>
</g>
<circle cx="356.348" cy="338.093" r="4.02986" fill="#83EB13"/>
<circle cx="356.348" cy="360.929" r="4.02986" fill="#EBCB03"/>
<circle cx="356.348" cy="383.764" r="4.02986" fill="#83EB13"/>
<circle cx="356.348" cy="406.6" r="4.02986" fill="#EBCB03"/>
<circle cx="356.348" cy="429.436" r="4.02986" fill="#83EB13"/>
<circle cx="356.348" cy="452.272" r="4.02986" fill="#83EB13"/>
<circle cx="356.348" cy="475.108" r="4.02986" fill="#83EB13"/>
<circle cx="356.348" cy="497.944" r="4.02986" fill="#EBCB03"/>
<circle cx="356.348" cy="520.78" r="4.02986" fill="#EBCB03"/>
<g opacity="0.12" filter="url(#filter3_d)">
<rect x="113.885" y="117.122" width="494.33" height="400.971" rx="6" fill="white"/>
</g>
</g>
<g filter="url(#filter4_d)">
<rect x="73.6326" y="247.697" width="573.833" height="465.46" rx="6" fill="white"/>
<rect x="70.6326" y="244.697" width="579.833" height="471.46" rx="9" stroke="url(#paint2_linear)" stroke-width="6"/>
</g>
<mask id="mask2" mask-type="alpha" maskUnits="userSpaceOnUse" x="73" y="247" width="575" height="467">
<rect x="73.6326" y="247.697" width="573.833" height="465.46" rx="4" fill="#C4C4C4"/>
</mask>
<g mask="url(#mask2)">
<rect x="73.6326" y="247.697" width="573.833" height="74.8478" fill="white"/>
<path fill-rule="evenodd" clip-rule="evenodd" d="M193.701 297.816H199.158H200.158V296.816V291.358H198.158V295.816H193.701V297.816ZM193.701 274.426H198.158V278.884H200.158V273.426V272.426H199.158H193.701V274.426ZM181.226 272.426V274.426H176.769V278.884H174.769V273.426V272.426H175.769H181.226ZM181.226 295.816V297.816H175.769H174.769V296.816V291.358H176.769V295.816H181.226Z" fill="black"/>
<path fill-rule="evenodd" clip-rule="evenodd" d="M187.463 290.579C193.329 290.579 195.26 285.121 195.26 285.121C195.26 285.121 193.329 279.664 187.463 279.664C181.598 279.664 179.667 285.121 179.667 285.121C179.667 285.121 181.598 290.579 187.463 290.579ZM187.463 288.24C189.186 288.24 190.582 286.844 190.582 285.121C190.582 283.399 189.186 282.003 187.463 282.003C185.741 282.003 184.345 283.399 184.345 285.121C184.345 286.844 185.741 288.24 187.463 288.24Z" fill="#C4C4C4"/>
<circle cx="187.463" cy="285.122" r="2.11866" stroke="black" stroke-width="2"/>
<path fill-rule="evenodd" clip-rule="evenodd" d="M251.956 297.206H253.956C253.827 292.342 252.553 287.8 247.903 285.779L247.106 287.613C250.625 289.143 251.827 292.588 251.956 297.206ZM229.786 297.206H227.786C227.917 292.351 229.209 287.81 233.836 285.78L234.639 287.612C231.134 289.149 229.917 292.603 229.786 297.206Z" fill="black"/>
<mask id="path-219-inside-5" fill="white">
<ellipse cx="238.14" cy="280.832" rx="1.95106" ry="1.94916"/>
</mask>
<path d="M238.091 280.832C238.091 280.829 238.092 280.82 238.096 280.811C238.099 280.804 238.103 280.799 238.106 280.796C238.109 280.793 238.113 280.789 238.121 280.786C238.129 280.783 238.137 280.782 238.14 280.782V284.782C240.32 284.782 242.091 283.015 242.091 280.832H238.091ZM238.14 280.782C238.142 280.782 238.15 280.783 238.159 280.786C238.166 280.789 238.17 280.793 238.173 280.796C238.177 280.799 238.18 280.804 238.184 280.811C238.187 280.82 238.188 280.829 238.188 280.832H234.188C234.188 283.015 235.959 284.782 238.14 284.782V280.782ZM238.188 280.832C238.188 280.836 238.187 280.845 238.184 280.854C238.18 280.861 238.177 280.866 238.173 280.869C238.17 280.872 238.166 280.876 238.159 280.879C238.15 280.882 238.142 280.883 238.14 280.883V276.883C235.959 276.883 234.188 278.65 234.188 280.832H238.188ZM238.14 280.883C238.137 280.883 238.129 280.882 238.121 280.879C238.113 280.876 238.109 280.872 238.106 280.869C238.103 280.866 238.099 280.861 238.096 280.854C238.092 280.845 238.091 280.836 238.091 280.832H242.091C242.091 278.65 240.32 276.883 238.14 276.883V280.883Z" fill="black" mask="url(#path-219-inside-5)"/>
<mask id="path-221-inside-6" fill="white">
<ellipse cx="243.603" cy="280.832" rx="1.95106" ry="1.94916"/>
</mask>
<path d="M243.554 280.832C243.554 280.829 243.555 280.82 243.559 280.811C243.562 280.804 243.566 280.799 243.569 280.796C243.572 280.793 243.576 280.789 243.584 280.786C243.592 280.783 243.6 280.782 243.603 280.782V284.782C245.783 284.782 247.554 283.015 247.554 280.832H243.554ZM243.603 280.782C243.605 280.782 243.613 280.783 243.622 280.786C243.629 280.789 243.634 280.793 243.637 280.796C243.64 280.799 243.643 280.804 243.647 280.811C243.65 280.82 243.652 280.829 243.652 280.832H239.652C239.652 283.015 241.422 284.782 243.603 284.782V280.782ZM243.652 280.832C243.652 280.836 243.65 280.845 243.647 280.854C243.643 280.861 243.64 280.866 243.637 280.869C243.634 280.872 243.629 280.876 243.622 280.879C243.613 280.882 243.605 280.883 243.603 280.883V276.883C241.422 276.883 239.652 278.65 239.652 280.832H243.652ZM243.603 280.883C243.6 280.883 243.592 280.882 243.584 280.879C243.576 280.876 243.572 280.872 243.569 280.869C243.566 280.866 243.562 280.861 243.559 280.854C243.555 280.845 243.554 280.836 243.554 280.832H247.554C247.554 278.65 245.783 276.883 243.603 276.883V280.883Z" fill="black" mask="url(#path-221-inside-6)"/>
<path d="M252.968 282.392C252.968 284.545 250.44 286.29 248.285 286.29L248.842 282.392L248.285 278.494C250.44 278.494 252.968 280.239 252.968 282.392Z" fill="#C4C4C4"/>
<path d="M228.774 282.392C228.774 284.545 231.302 286.29 233.457 286.29L232.899 282.392L233.457 278.494C231.302 278.494 228.774 280.239 228.774 282.392Z" fill="#C4C4C4"/>
<path d="M249.066 280.443V280.443C249.066 276.352 245.75 273.036 241.659 273.036H240.084C235.993 273.036 232.677 276.352 232.677 280.443V280.443" stroke="#C4C4C4" stroke-width="4"/>
<path d="M248.066 282.392C248.066 286.36 244.846 289.578 240.871 289.578C236.897 289.578 233.677 286.36 233.677 282.392C233.677 278.424 236.897 275.205 240.871 275.205C244.846 275.205 248.066 278.424 248.066 282.392Z" stroke="black" stroke-width="2"/>
<path d="M243.798 285.9C245.749 285.965 249.651 285.511 249.651 283.172" stroke="#C4C4C4" stroke-width="2"/>
<rect x="240.091" y="284.731" width="4.68254" height="2.33899" rx="1.1695" fill="#C4C4C4"/>
<rect x="281.803" y="275.765" width="23.3899" height="18.7119" stroke="black" stroke-width="2"/>
<circle cx="293.109" cy="285.511" r="4.06782" stroke="black" stroke-width="2"/>
<path fill-rule="evenodd" clip-rule="evenodd" d="M298.943 285.9C298.952 285.772 298.956 285.641 298.956 285.51C298.956 282.294 296.358 279.683 293.146 279.663H293.071C292.953 279.664 292.835 279.668 292.719 279.676V285.9H298.943Z" fill="#86EC16"/>
<path d="M277.905 320.985C277.905 318.402 279.999 316.307 282.583 316.307H305.972C308.556 316.307 310.65 318.402 310.65 320.985H277.905Z" fill="black"/>
<rect x="430.939" y="268.968" width="199.933" height="32.3052" rx="16.1526" stroke="black" stroke-width="2"/>
<circle cx="447.872" cy="284.341" r="5.23731" stroke="black" stroke-width="2"/>
<path d="M451.77 288.24L456.448 292.918" stroke="black" stroke-width="2"/>
<rect x="465.804" y="278.884" width="63.9325" height="12.4746" fill="#C4C4C4"/>
<rect x="73.6326" y="247.697" width="71.7291" height="73.2884" fill="black"/>
<path d="M93.124 284.341C93.124 292.979 100.157 299.935 108.717 299.935C109.941 299.935 111.164 299.781 112.31 299.476V290.762C111.24 291.374 110.017 291.679 108.717 291.679C104.666 291.679 101.38 288.393 101.38 284.341C101.38 280.29 104.666 277.004 108.717 277.004C110.018 277.004 111.24 277.386 112.31 277.921V269.207C111.139 268.895 109.931 268.741 108.718 268.748C100.157 268.748 93.124 275.781 93.124 284.341ZM116.056 270.583V298.1C120.947 295.502 124.311 290.304 124.311 284.341C124.311 278.379 121.023 273.181 116.055 270.583H116.056Z" fill="#86EC16"/>
<line x1="73.6326" y1="321.545" x2="647.465" y2="321.545" stroke="black" stroke-width="2"/>
<rect x="73.6326" y="322.545" width="573.833" height="390.612" fill="#6B6B6B"/>
<rect opacity="0.5" x="92.3445" y="575.156" width="536.409" height="117.729" rx="19" fill="black"/>
<rect x="111.056" y="620.377" width="38.2035" height="28.0679" fill="white"/>
<path d="M120.988 640.2L125.578 634.26C126.154 633.528 126.532 632.964 126.712 632.568C126.892 632.172 126.982 631.71 126.982 631.182C126.982 630.474 126.784 629.916 126.388 629.508C125.992 629.088 125.446 628.878 124.75 628.878C124.102 628.878 123.556 629.118 123.112 629.598C122.68 630.066 122.41 630.672 122.302 631.416L121.258 631.218C121.354 630.234 121.72 629.43 122.356 628.806C122.992 628.182 123.79 627.87 124.75 627.87C125.746 627.87 126.556 628.164 127.18 628.752C127.816 629.34 128.134 630.162 128.134 631.218C128.134 631.782 128.002 632.328 127.738 632.856C127.486 633.384 127.108 633.972 126.604 634.62L122.752 639.606H128.44V640.614H120.988V640.2ZM133.897 640.758C132.853 640.758 131.995 640.47 131.323 639.894C130.663 639.306 130.261 638.442 130.117 637.302L131.215 637.104C131.455 638.868 132.349 639.75 133.897 639.75C134.749 639.75 135.403 639.462 135.859 638.886C136.315 638.31 136.543 637.518 136.543 636.51C136.543 635.454 136.315 634.65 135.859 634.098C135.403 633.546 134.779 633.27 133.987 633.27C133.363 633.27 132.817 633.426 132.349 633.738C131.881 634.05 131.503 634.458 131.215 634.962L130.423 634.782L131.071 628.014H136.957V629.022H132.079L131.647 633.18C132.259 632.568 133.075 632.262 134.095 632.262C134.803 632.262 135.427 632.436 135.967 632.784C136.519 633.12 136.945 633.612 137.245 634.26C137.545 634.896 137.695 635.646 137.695 636.51C137.695 637.338 137.539 638.076 137.227 638.724C136.915 639.36 136.471 639.858 135.895 640.218C135.331 640.578 134.665 640.758 133.897 640.758Z" fill="black"/>
<rect x="164.073" y="628.173" width="68.6105" height="12.4746" fill="#C4C4C4"/>
<rect x="256.854" y="593.088" width="77.7184" height="12.4746" fill="#C4C4C4"/>
<rect x="256.854" y="618.038" width="45.0413" height="6.23731" rx="3.11866" fill="#B1FF5B"/>
<rect x="402.575" y="593.088" width="22.0791" height="12.4746" fill="white"/>
<rect x="442.414" y="593.088" width="64.7121" height="12.4746" fill="#C4C4C4"/>
<rect x="442.414" y="618.038" width="135.662" height="6.23731" rx="3.11866" fill="#FF6B6A"/>
<rect x="575.737" y="593.088" width="34.3052" height="12.4746" fill="white"/>
<rect x="114.175" y="546.308" width="130.984" height="12.4746" fill="white"/>
<path d="M104.649 554.617L99.0255 559.89C98.7838 560.109 98.3884 560.109 98.1467 559.89L92.5228 554.617C92.1713 554.288 92.435 553.739 92.9622 553.739H104.21C104.737 553.739 105.023 554.288 104.649 554.617Z" fill="white"/>
<path d="M92.5143 550.186L98.1382 544.914C98.3798 544.694 98.7753 544.694 99.0169 544.914L104.641 550.186C104.992 550.516 104.729 551.065 104.201 551.065H92.9536C92.4264 551.065 92.1408 550.516 92.5143 550.186Z" fill="white"/>
<rect x="120.412" y="342.816" width="130.984" height="12.4746" fill="white"/>
<path d="M110.082 341.257C108.682 341.257 107.548 342.391 107.548 343.791C107.548 344.369 107.749 344.896 108.076 345.322L104.199 351.438C104.052 351.411 103.902 351.392 103.747 351.392C103.591 351.392 103.439 351.411 103.29 351.438L101.373 348.425C101.669 348.01 101.847 347.506 101.847 346.958C101.847 345.559 100.712 344.424 99.3127 344.424C97.9134 344.424 96.7788 345.559 96.7788 346.958C96.7788 347.506 96.9568 348.01 97.2527 348.425L95.3351 351.438C95.1863 351.411 95.0349 351.392 94.8784 351.392C93.479 351.392 92.3445 352.527 92.3445 353.926C92.3445 355.326 93.479 356.46 94.8784 356.46C96.2777 356.46 97.4123 355.326 97.4123 353.926C97.4123 353.378 97.2343 352.874 96.9385 352.46L98.856 349.446C99.0049 349.473 99.1563 349.492 99.3127 349.492C99.4692 349.492 99.6206 349.473 99.7695 349.446L101.687 352.46C101.391 352.874 101.213 353.378 101.213 353.926C101.213 355.326 102.348 356.46 103.747 356.46C105.146 356.46 106.281 355.326 106.281 353.926C106.281 353.377 106.102 352.872 105.804 352.457L109.714 346.288C109.835 346.306 109.956 346.325 110.082 346.325C111.481 346.325 112.616 345.19 112.616 343.791C112.616 342.391 111.481 341.257 110.082 341.257Z" fill="white"/>
<rect opacity="0.5" x="424.481" y="370.884" width="204.272" height="150.475" rx="19" fill="black"/>
<rect x="443.193" y="391.935" width="68.6105" height="12.4746" fill="#C4C4C4"/>
<rect x="443.193" y="416.884" width="54.5765" height="12.4746" fill="#C4C4C4"/>
<rect x="443.193" y="441.833" width="79.5258" height="12.4746" fill="#C4C4C4"/>
<rect x="443.193" y="466.782" width="58.4748" height="12.4746" fill="#C4C4C4"/>
<rect x="443.193" y="491.732" width="73.2884" height="12.4746" fill="#C4C4C4"/>
<rect x="565.601" y="391.935" width="43.6612" height="12.4746" fill="white"/>
<rect x="542.211" y="416.884" width="67.0511" height="12.4746" fill="white"/>
<rect x="573.397" y="441.833" width="35.8646" height="12.4746" fill="white"/>
<rect x="542.211" y="466.782" width="67.0511" height="12.4746" fill="white"/>
<rect x="560.923" y="491.732" width="48.3392" height="12.4746" fill="white"/>
<rect opacity="0.5" x="92.3445" y="370.884" width="313.425" height="150.475" rx="19" fill="black"/>
<rect x="248.277" y="393.494" width="86.5427" height="12.4746" fill="#C4C4C4"/>
<rect x="143.802" y="460.545" width="47.1775" height="12.4746" fill="#C4C4C4"/>
<path d="M144.378 441.325C144.218 441.453 143.978 441.557 143.658 441.637C143.354 441.701 143.074 441.733 142.818 441.733C141.794 441.733 140.882 441.493 140.082 441.013C139.298 440.533 138.682 439.877 138.234 439.045C137.802 438.213 137.586 437.285 137.586 436.261C137.586 435.237 137.802 434.309 138.234 433.477C138.682 432.645 139.298 431.989 140.082 431.509C140.882 431.029 141.794 430.789 142.818 430.789C143.842 430.789 144.746 431.029 145.53 431.509C146.33 431.989 146.946 432.645 147.378 433.477C147.826 434.309 148.05 435.237 148.05 436.261C148.05 437.269 147.754 438.301 147.162 439.357L142.194 447.973H140.634L144.378 441.325ZM142.818 440.389C143.906 440.389 144.794 440.021 145.482 439.285C146.17 438.533 146.514 437.525 146.514 436.261C146.514 435.477 146.354 434.773 146.034 434.149C145.73 433.509 145.29 433.013 144.714 432.661C144.154 432.309 143.522 432.133 142.818 432.133C142.114 432.133 141.474 432.309 140.898 432.661C140.338 433.013 139.898 433.509 139.578 434.149C139.274 434.773 139.122 435.477 139.122 436.261C139.122 437.525 139.466 438.533 140.154 439.285C140.842 440.021 141.73 440.389 142.818 440.389ZM149.975 447.229L156.095 439.309C156.863 438.333 157.367 437.581 157.607 437.053C157.847 436.525 157.967 435.909 157.967 435.205C157.967 434.261 157.703 433.517 157.175 432.973C156.647 432.413 155.919 432.133 154.991 432.133C154.127 432.133 153.399 432.453 152.807 433.093C152.231 433.717 151.871 434.525 151.727 435.517L150.335 435.253C150.463 433.941 150.951 432.869 151.799 432.037C152.647 431.205 153.711 430.789 154.991 430.789C156.319 430.789 157.399 431.181 158.231 431.965C159.079 432.749 159.503 433.845 159.503 435.253C159.503 436.005 159.327 436.733 158.975 437.437C158.639 438.141 158.135 438.925 157.463 439.789L152.327 446.437H159.911V447.781H149.975V447.229ZM162.963 445.669H165.171L162.867 449.629H161.763L162.963 445.669ZM172.507 447.973C171.115 447.973 169.971 447.589 169.075 446.821C168.195 446.037 167.659 444.885 167.467 443.365L168.931 443.101C169.251 445.453 170.443 446.629 172.507 446.629C173.643 446.629 174.515 446.245 175.123 445.477C175.731 444.709 176.035 443.653 176.035 442.309C176.035 440.901 175.731 439.829 175.123 439.093C174.515 438.357 173.683 437.989 172.627 437.989C171.795 437.989 171.067 438.197 170.443 438.613C169.819 439.029 169.315 439.573 168.931 440.245L167.875 440.005L168.739 430.981H176.587V432.325H170.083L169.507 437.869C170.323 437.053 171.411 436.645 172.771 436.645C173.715 436.645 174.547 436.877 175.267 437.341C176.003 437.789 176.571 438.445 176.971 439.309C177.371 440.157 177.571 441.157 177.571 442.309C177.571 443.413 177.363 444.397 176.947 445.261C176.531 446.109 175.939 446.773 175.171 447.253C174.419 447.733 173.531 447.973 172.507 447.973ZM181.6 447.565L194.608 430.405L195.616 431.197L182.608 448.357L181.6 447.565ZM183.736 438.469C183.016 438.469 182.368 438.301 181.792 437.965C181.232 437.613 180.784 437.149 180.448 436.573C180.128 435.981 179.968 435.333 179.968 434.629C179.968 433.925 180.128 433.285 180.448 432.709C180.784 432.117 181.232 431.653 181.792 431.317C182.368 430.965 183.016 430.789 183.736 430.789C184.456 430.789 185.096 430.965 185.656 431.317C186.232 431.653 186.68 432.117 187 432.709C187.336 433.285 187.504 433.925 187.504 434.629C187.504 435.333 187.336 435.981 187 436.573C186.68 437.149 186.232 437.613 185.656 437.965C185.096 438.301 184.456 438.469 183.736 438.469ZM183.736 437.173C184.488 437.173 185.088 436.933 185.536 436.453C185.984 435.973 186.208 435.365 186.208 434.629C186.208 433.893 185.984 433.285 185.536 432.805C185.088 432.325 184.488 432.085 183.736 432.085C182.984 432.085 182.384 432.325 181.936 432.805C181.488 433.285 181.264 433.893 181.264 434.629C181.264 435.365 181.488 435.973 181.936 436.453C182.384 436.933 182.984 437.173 183.736 437.173ZM193.48 447.973C192.76 447.973 192.112 447.805 191.536 447.469C190.976 447.117 190.528 446.653 190.192 446.077C189.872 445.485 189.712 444.837 189.712 444.133C189.712 443.429 189.872 442.789 190.192 442.213C190.528 441.621 190.976 441.157 191.536 440.821C192.112 440.469 192.76 440.293 193.48 440.293C194.2 440.293 194.84 440.469 195.4 440.821C195.976 441.157 196.424 441.621 196.744 442.213C197.08 442.789 197.248 443.429 197.248 444.133C197.248 444.837 197.08 445.485 196.744 446.077C196.424 446.653 195.976 447.117 195.4 447.469C194.84 447.805 194.2 447.973 193.48 447.973ZM193.48 446.677C194.232 446.677 194.832 446.437 195.28 445.957C195.728 445.477 195.952 444.869 195.952 444.133C195.952 443.397 195.728 442.789 195.28 442.309C194.832 441.829 194.232 441.589 193.48 441.589C192.728 441.589 192.128 441.829 191.68 442.309C191.232 442.789 191.008 443.397 191.008 444.133C191.008 444.869 191.232 445.477 191.68 445.957C192.128 446.437 192.728 446.677 193.48 446.677Z" fill="white"/>
<path d="M167.972 395.833C195.961 395.833 218.65 418.523 218.65 446.511C218.65 474.5 195.961 497.189 167.972 497.189C139.983 497.189 117.294 474.5 117.294 446.511C117.294 424.562 131.248 405.871 150.769 398.828" stroke="white" stroke-width="4" stroke-linecap="round"/>
<path fill-rule="evenodd" clip-rule="evenodd" d="M167.58 386.478C167.711 386.478 167.841 386.477 167.972 386.477C168.102 386.477 168.233 386.478 168.363 386.478C169.225 386.484 169.918 387.187 169.913 388.048C169.907 388.909 169.205 389.603 168.343 389.597C168.22 389.596 168.096 389.596 167.972 389.596C167.848 389.596 167.724 389.596 167.6 389.597C166.739 389.603 166.037 388.909 166.031 388.048C166.026 387.187 166.719 386.484 167.58 386.478ZM174.377 388.362C174.493 387.509 175.279 386.911 176.133 387.027C176.39 387.062 176.646 387.099 176.902 387.137C177.754 387.264 178.341 388.058 178.214 388.909C178.087 389.761 177.294 390.349 176.442 390.222C176.199 390.185 175.956 390.151 175.712 390.118C174.859 390.002 174.261 389.216 174.377 388.362ZM182.589 389.857C182.826 389.029 183.689 388.55 184.517 388.786C184.767 388.858 185.016 388.931 185.264 389.006C186.089 389.253 186.557 390.123 186.309 390.947C186.062 391.772 185.192 392.24 184.368 391.992C184.132 391.922 183.896 391.852 183.659 391.785C182.831 391.548 182.352 390.685 182.589 389.857ZM145.442 392.512C145.795 393.297 145.445 394.22 144.659 394.573C144.435 394.674 144.211 394.777 143.988 394.881C143.207 395.244 142.279 394.906 141.916 394.125C141.553 393.344 141.891 392.417 142.672 392.053C142.907 391.944 143.143 391.836 143.38 391.729C144.166 391.376 145.089 391.726 145.442 392.512ZM190.502 392.512C190.855 391.726 191.778 391.376 192.563 391.729C192.8 391.836 193.037 391.944 193.272 392.053C194.053 392.417 194.391 393.344 194.028 394.125C193.665 394.906 192.737 395.244 191.956 394.881C191.733 394.777 191.509 394.674 191.285 394.573C190.499 394.22 190.149 393.297 190.502 392.512ZM137.991 396.273C138.452 397 138.237 397.963 137.51 398.425C137.302 398.557 137.095 398.69 136.889 398.825C136.168 399.296 135.202 399.093 134.731 398.372C134.26 397.651 134.462 396.685 135.183 396.214C135.401 396.072 135.619 395.931 135.839 395.792C136.566 395.33 137.529 395.546 137.991 396.273ZM197.953 396.273C198.415 395.546 199.378 395.33 200.105 395.792C200.325 395.931 200.543 396.072 200.76 396.214C201.481 396.685 201.684 397.651 201.213 398.372C200.742 399.093 199.776 399.296 199.055 398.825C198.849 398.69 198.642 398.557 198.434 398.425C197.707 397.963 197.491 397 197.953 396.273ZM131.151 401.056C131.711 401.711 131.635 402.695 130.98 403.255C130.793 403.415 130.607 403.577 130.422 403.739C129.775 404.308 128.79 404.244 128.221 403.597C127.653 402.95 127.717 401.965 128.363 401.396C128.559 401.225 128.755 401.055 128.952 400.886C129.606 400.326 130.591 400.402 131.151 401.056ZM204.793 401.056C205.353 400.402 206.337 400.326 206.992 400.886C207.189 401.055 207.385 401.225 207.58 401.396C208.227 401.965 208.291 402.95 207.722 403.597C207.154 404.244 206.169 404.308 205.522 403.739C205.337 403.577 205.151 403.415 204.964 403.255C204.309 402.695 204.233 401.711 204.793 401.056ZM125.058 406.761C125.704 407.329 125.768 408.314 125.2 408.961C125.037 409.146 124.876 409.333 124.715 409.52C124.155 410.174 123.171 410.25 122.517 409.69C121.863 409.13 121.786 408.146 122.346 407.492C122.515 407.294 122.685 407.098 122.857 406.903C123.425 406.256 124.411 406.192 125.058 406.761ZM210.886 406.761C211.533 406.192 212.518 406.256 213.087 406.903C213.258 407.098 213.429 407.294 213.597 407.492C214.158 408.146 214.081 409.13 213.427 409.69C212.773 410.25 211.788 410.174 211.228 409.52C211.068 409.333 210.907 409.146 210.744 408.961C210.176 408.314 210.239 407.329 210.886 406.761ZM119.833 413.27C120.554 413.741 120.757 414.707 120.286 415.428C120.151 415.634 120.018 415.842 119.885 416.05C119.424 416.777 118.46 416.992 117.733 416.53C117.006 416.069 116.791 415.105 117.253 414.378C117.392 414.159 117.533 413.94 117.675 413.723C118.145 413.002 119.112 412.799 119.833 413.27ZM216.111 413.27C216.832 412.799 217.798 413.002 218.269 413.723C218.411 413.94 218.552 414.159 218.691 414.378C219.153 415.105 218.938 416.069 218.21 416.53C217.483 416.992 216.52 416.777 216.058 416.05C215.926 415.842 215.793 415.634 215.658 415.428C215.187 414.707 215.39 413.741 216.111 413.27ZM115.585 420.455C116.366 420.819 116.705 421.746 116.341 422.527C116.237 422.75 116.135 422.974 116.034 423.199C115.681 423.984 114.758 424.335 113.972 423.981C113.187 423.628 112.837 422.705 113.19 421.92C113.296 421.683 113.404 421.447 113.514 421.211C113.877 420.43 114.805 420.092 115.585 420.455ZM220.358 420.455C221.139 420.092 222.067 420.43 222.43 421.211C222.54 421.447 222.648 421.683 222.754 421.92C223.107 422.705 222.757 423.628 221.971 423.981C221.186 424.335 220.263 423.984 219.91 423.199C219.809 422.974 219.706 422.75 219.602 422.527C219.239 421.746 219.578 420.819 220.358 420.455ZM112.408 428.174C113.233 428.421 113.701 429.291 113.453 430.116C113.382 430.351 113.313 430.587 113.245 430.824C113.008 431.652 112.145 432.131 111.317 431.894C110.489 431.657 110.01 430.794 110.247 429.966C110.318 429.716 110.391 429.467 110.466 429.219C110.714 428.394 111.583 427.926 112.408 428.174ZM223.536 428.174C224.361 427.926 225.23 428.394 225.478 429.219C225.552 429.467 225.625 429.716 225.697 429.966C225.934 430.794 225.455 431.657 224.627 431.894C223.799 432.131 222.935 431.652 222.698 430.824C222.631 430.587 222.561 430.351 222.491 430.116C222.243 429.291 222.711 428.421 223.536 428.174ZM110.37 436.269C111.222 436.396 111.809 437.189 111.682 438.041C111.646 438.284 111.611 438.527 111.578 438.771C111.462 439.624 110.676 440.222 109.823 440.106C108.97 439.99 108.372 439.204 108.488 438.351C108.523 438.094 108.559 437.837 108.598 437.581C108.725 436.729 109.518 436.142 110.37 436.269ZM225.574 436.269C226.426 436.142 227.219 436.729 227.346 437.581C227.384 437.837 227.421 438.094 227.456 438.351C227.572 439.204 226.974 439.99 226.121 440.106C225.267 440.222 224.482 439.624 224.366 438.771C224.333 438.527 224.298 438.284 224.262 438.041C224.135 437.189 224.722 436.396 225.574 436.269ZM109.508 444.571C110.369 444.576 111.063 445.279 111.058 446.14C111.057 446.264 111.056 446.387 111.056 446.511C111.056 446.635 111.057 446.759 111.058 446.883C111.063 447.744 110.369 448.447 109.508 448.452C108.647 448.458 107.944 447.764 107.939 446.903C107.938 446.772 107.938 446.642 107.938 446.511C107.938 446.381 107.938 446.25 107.939 446.12C107.944 445.259 108.647 444.565 109.508 444.571ZM226.436 444.571C227.297 444.565 227.999 445.259 228.005 446.12C228.006 446.25 228.006 446.381 228.006 446.511C228.006 446.576 228.006 446.64 228.006 446.704C228.006 446.771 228.005 446.837 228.005 446.903C227.999 447.764 227.297 448.458 226.436 448.452C225.574 448.447 224.881 447.744 224.886 446.883C224.887 446.759 224.887 446.635 224.887 446.511C224.887 446.387 224.887 446.264 224.886 446.14C224.881 445.279 225.574 444.576 226.436 444.571ZM109.823 452.917C110.676 452.801 111.462 453.399 111.578 454.252C111.611 454.496 111.646 454.739 111.682 454.981C111.809 455.833 111.222 456.627 110.37 456.754C109.518 456.881 108.725 456.293 108.598 455.442C108.559 455.186 108.523 454.929 108.488 454.672C108.372 453.819 108.97 453.033 109.823 452.917ZM226.121 452.917C226.974 453.033 227.572 453.819 227.456 454.672C227.421 454.929 227.384 455.186 227.346 455.442C227.219 456.293 226.426 456.881 225.574 456.754C224.722 456.627 224.135 455.833 224.262 454.981C224.298 454.739 224.332 454.496 224.366 454.252C224.482 453.399 225.267 452.801 226.121 452.917ZM111.317 461.128C112.145 460.892 113.008 461.371 113.245 462.199C113.313 462.435 113.382 462.671 113.453 462.907C113.701 463.732 113.233 464.601 112.408 464.849C111.583 465.097 110.714 464.629 110.466 463.804C110.391 463.555 110.318 463.306 110.247 463.057C110.01 462.229 110.489 461.365 111.317 461.128ZM224.627 461.128C225.454 461.365 225.934 462.229 225.697 463.057C225.625 463.306 225.552 463.555 225.478 463.804C225.23 464.629 224.361 465.097 223.536 464.849C222.711 464.601 222.243 463.732 222.491 462.907C222.561 462.671 222.631 462.435 222.698 462.199C222.935 461.371 223.799 460.892 224.627 461.128ZM113.972 469.041C114.758 468.688 115.681 469.039 116.034 469.824C116.135 470.049 116.237 470.273 116.341 470.496C116.705 471.276 116.366 472.204 115.585 472.567C114.805 472.931 113.877 472.592 113.514 471.811C113.404 471.576 113.296 471.34 113.19 471.103C112.837 470.317 113.187 469.394 113.972 469.041ZM221.971 469.041C222.757 469.394 223.107 470.317 222.754 471.103C222.648 471.34 222.54 471.576 222.43 471.811C222.067 472.592 221.139 472.931 220.358 472.567C219.578 472.204 219.239 471.276 219.602 470.496C219.706 470.273 219.809 470.049 219.91 469.824C220.263 469.039 221.186 468.688 221.971 469.041ZM117.733 476.492C118.46 476.031 119.424 476.246 119.885 476.973C120.018 477.181 120.151 477.388 120.286 477.594C120.756 478.315 120.554 479.282 119.833 479.753C119.112 480.224 118.145 480.021 117.675 479.3C117.533 479.082 117.392 478.864 117.253 478.645C116.791 477.918 117.006 476.954 117.733 476.492ZM218.21 476.492C218.938 476.954 219.153 477.918 218.691 478.645C218.552 478.864 218.411 479.082 218.269 479.3C217.798 480.021 216.832 480.224 216.111 479.753C215.39 479.282 215.187 478.315 215.658 477.594C215.793 477.388 215.926 477.181 216.058 476.973C216.52 476.246 217.483 476.031 218.21 476.492ZM122.517 483.332C123.171 482.772 124.155 482.849 124.715 483.503C124.876 483.69 125.037 483.876 125.2 484.061C125.768 484.708 125.704 485.693 125.058 486.262C124.411 486.83 123.425 486.767 122.857 486.12C122.685 485.925 122.515 485.728 122.346 485.531C121.786 484.877 121.863 483.892 122.517 483.332ZM213.427 483.332C214.081 483.892 214.158 484.877 213.597 485.531C213.429 485.728 213.258 485.925 213.087 486.12C212.518 486.767 211.533 486.83 210.886 486.262C210.239 485.693 210.176 484.708 210.744 484.061C210.907 483.876 211.068 483.69 211.228 483.503C211.788 482.849 212.773 482.772 213.427 483.332ZM128.221 489.426C128.79 488.779 129.775 488.715 130.422 489.284C130.607 489.446 130.793 489.608 130.98 489.768C131.635 490.328 131.711 491.312 131.151 491.966C130.591 492.621 129.606 492.697 128.952 492.137C128.755 491.968 128.559 491.798 128.363 491.626C127.717 491.058 127.653 490.073 128.221 489.426ZM207.722 489.426C208.291 490.073 208.227 491.058 207.58 491.626C207.385 491.798 207.189 491.968 206.992 492.137C206.337 492.697 205.353 492.621 204.793 491.966C204.233 491.312 204.309 490.328 204.964 489.768C205.151 489.608 205.337 489.446 205.522 489.284C206.169 488.715 207.154 488.779 207.722 489.426ZM134.731 494.65C135.202 493.929 136.168 493.727 136.889 494.198C137.095 494.332 137.302 494.466 137.51 494.598C138.237 495.059 138.452 496.023 137.991 496.75C137.529 497.477 136.566 497.692 135.839 497.231C135.619 497.091 135.401 496.951 135.183 496.809C134.462 496.338 134.26 495.371 134.731 494.65ZM201.213 494.65C201.684 495.371 201.481 496.338 200.76 496.809C200.543 496.951 200.325 497.091 200.105 497.231C199.378 497.692 198.415 497.477 197.953 496.75C197.491 496.023 197.707 495.059 198.434 494.598C198.642 494.466 198.849 494.332 199.055 494.198C199.776 493.727 200.742 493.929 201.213 494.65ZM141.916 498.898C142.279 498.117 143.207 497.779 143.988 498.142C144.211 498.246 144.435 498.348 144.659 498.449C145.445 498.802 145.795 499.725 145.442 500.511C145.089 501.296 144.166 501.647 143.38 501.294C143.143 501.187 142.907 501.079 142.672 500.969C141.891 500.606 141.553 499.679 141.916 498.898ZM194.028 498.898C194.391 499.679 194.053 500.606 193.272 500.969C193.037 501.079 192.8 501.187 192.563 501.294C191.778 501.647 190.855 501.296 190.502 500.511C190.149 499.725 190.499 498.802 191.285 498.449C191.509 498.348 191.733 498.246 191.956 498.142C192.737 497.779 193.665 498.117 194.028 498.898ZM149.634 502.075C149.882 501.25 150.751 500.783 151.576 501.03C151.812 501.101 152.048 501.17 152.284 501.238C153.112 501.475 153.592 502.338 153.355 503.166C153.118 503.994 152.255 504.473 151.427 504.236C151.177 504.165 150.928 504.092 150.679 504.017C149.855 503.769 149.387 502.9 149.634 502.075ZM186.309 502.075C186.557 502.9 186.089 503.769 185.264 504.017C185.016 504.092 184.767 504.165 184.517 504.236C183.689 504.473 182.826 503.994 182.589 503.166C182.352 502.338 182.831 501.475 183.659 501.238C183.896 501.17 184.132 501.101 184.367 501.03C185.192 500.783 186.062 501.25 186.309 502.075ZM157.729 504.113C157.856 503.261 158.65 502.674 159.502 502.801C159.744 502.837 159.988 502.872 160.231 502.905C161.085 503.021 161.682 503.807 161.566 504.66C161.45 505.514 160.665 506.111 159.811 505.995C159.554 505.96 159.298 505.924 159.042 505.886C158.19 505.759 157.602 504.965 157.729 504.113ZM178.214 504.113C178.341 504.965 177.754 505.759 176.902 505.886C176.646 505.924 176.39 505.96 176.133 505.995C175.279 506.111 174.493 505.514 174.377 504.66C174.261 503.807 174.859 503.021 175.712 502.905C175.956 502.872 176.199 502.837 176.442 502.801C177.294 502.674 178.087 503.261 178.214 504.113ZM166.031 504.975C166.037 504.114 166.739 503.42 167.6 503.426C167.669 503.426 167.738 503.426 167.806 503.427C167.861 503.427 167.917 503.427 167.972 503.427C168.096 503.427 168.22 503.426 168.343 503.426C169.205 503.42 169.907 504.114 169.913 504.975C169.918 505.836 169.225 506.539 168.363 506.544C168.233 506.545 168.102 506.545 167.972 506.545C167.841 506.545 167.711 506.545 167.58 506.544C166.719 506.539 166.026 505.836 166.031 504.975Z" fill="#B1FF5B"/>
<path d="M161.567 388.362C161.683 389.216 161.085 390.001 160.232 390.117C159.988 390.151 159.745 390.185 159.502 390.221C158.65 390.349 157.857 389.761 157.73 388.909C157.603 388.057 158.19 387.264 159.042 387.137C159.298 387.099 159.555 387.062 159.812 387.027C160.665 386.911 161.451 387.509 161.567 388.362Z" fill="#FF6B6A"/>
<path d="M153.355 389.857C153.592 390.685 153.113 391.548 152.285 391.785C152.048 391.852 151.812 391.922 151.577 391.992C150.752 392.24 149.882 391.772 149.635 390.947C149.387 390.123 149.855 389.253 150.68 389.005C150.928 388.931 151.177 388.858 151.427 388.786C152.255 388.549 153.118 389.029 153.355 389.857Z" fill="#FF6B6A"/>
<rect x="248.277" y="423.121" width="61.5935" height="12.4746" fill="#C4C4C4"/>
<rect x="355.091" y="423.121" width="35.0849" height="12.4746" fill="white"/>
<rect x="248.277" y="448.071" width="133.323" height="6.23731" rx="3.11866" fill="#B1FF5B"/>
<rect x="248.277" y="472.24" width="48.3392" height="12.4746" fill="#C4C4C4"/>
<rect x="373.024" y="472.24" width="17.1526" height="12.4746" fill="white"/>
<rect x="248.277" y="497.189" width="28.8476" height="6.23731" rx="3.11866" fill="#FF6B6A"/>
</g>
<defs>
<filter id="filter0_d" x="129.265" y="0" width="467.103" height="386.441" filterUnits="userSpaceOnUse" color-interpolation-filters="sRGB">
<feFlood flood-opacity="0" result="BackgroundImageFix"/>
<feColorMatrix in="SourceAlpha" type="matrix" values="0 0 0 0 0 0 0 0 0 0 0 0 0 0 0 0 0 0 127 0"/>
<feMorphology radius="4" operator="dilate" in="SourceAlpha" result="effect1_dropShadow"/>
<feOffset dx="2" dy="4"/>
<feGaussianBlur stdDeviation="5"/>
<feColorMatrix type="matrix" values="0 0 0 0 0 0 0 0 0 0 0 0 0 0 0 0 0 0 0.05 0"/>
<feBlend mode="normal" in2="BackgroundImageFix" result="effect1_dropShadow"/>
<feBlend mode="normal" in="SourceGraphic" in2="effect1_dropShadow" result="shape"/>
</filter>
<filter id="filter1_d" x="135.265" y="6" width="455.103" height="374.441" filterUnits="userSpaceOnUse" color-interpolation-filters="sRGB">
<feFlood flood-opacity="0" result="BackgroundImageFix"/>
<feColorMatrix in="SourceAlpha" type="matrix" values="0 0 0 0 0 0 0 0 0 0 0 0 0 0 0 0 0 0 127 0"/>
<feMorphology radius="4" operator="dilate" in="SourceAlpha" result="effect1_dropShadow"/>
<feOffset dx="2" dy="4"/>
<feGaussianBlur stdDeviation="5"/>
<feColorMatrix type="matrix" values="0 0 0 0 0 0 0 0 0 0 0 0 0 0 0 0 0 0 0.05 0"/>
<feBlend mode="normal" in2="BackgroundImageFix" result="effect1_dropShadow"/>
<feBlend mode="normal" in="SourceGraphic" in2="effect1_dropShadow" result="shape"/>
</filter>
<filter id="filter2_d" x="95.885" y="101.122" width="534.33" height="440.971" filterUnits="userSpaceOnUse" color-interpolation-filters="sRGB">
<feFlood flood-opacity="0" result="BackgroundImageFix"/>
<feColorMatrix in="SourceAlpha" type="matrix" values="0 0 0 0 0 0 0 0 0 0 0 0 0 0 0 0 0 0 127 0"/>
<feMorphology radius="4" operator="dilate" in="SourceAlpha" result="effect1_dropShadow"/>
<feOffset dx="2" dy="4"/>
<feGaussianBlur stdDeviation="5"/>
<feColorMatrix type="matrix" values="0 0 0 0 0 0 0 0 0 0 0 0 0 0 0 0 0 0 0.05 0"/>
<feBlend mode="normal" in2="BackgroundImageFix" result="effect1_dropShadow"/>
<feBlend mode="normal" in="SourceGraphic" in2="effect1_dropShadow" result="shape"/>
</filter>
<filter id="filter3_d" x="101.885" y="107.122" width="522.33" height="428.971" filterUnits="userSpaceOnUse" color-interpolation-filters="sRGB">
<feFlood flood-opacity="0" result="BackgroundImageFix"/>
<feColorMatrix in="SourceAlpha" type="matrix" values="0 0 0 0 0 0 0 0 0 0 0 0 0 0 0 0 0 0 127 0"/>
<feMorphology radius="4" operator="dilate" in="SourceAlpha" result="effect1_dropShadow"/>
<feOffset dx="2" dy="4"/>
<feGaussianBlur stdDeviation="5"/>
<feColorMatrix type="matrix" values="0 0 0 0 0 0 0 0 0 0 0 0 0 0 0 0 0 0 0.05 0"/>
<feBlend mode="normal" in2="BackgroundImageFix" result="effect1_dropShadow"/>
<feBlend mode="normal" in="SourceGraphic" in2="effect1_dropShadow" result="shape"/>
</filter>
<filter id="filter4_d" x="55.6326" y="231.697" width="613.833" height="505.46" filterUnits="userSpaceOnUse" color-interpolation-filters="sRGB">
<feFlood flood-opacity="0" result="BackgroundImageFix"/>
<feColorMatrix in="SourceAlpha" type="matrix" values="0 0 0 0 0 0 0 0 0 0 0 0 0 0 0 0 0 0 127 0"/>
<feMorphology radius="4" operator="dilate" in="SourceAlpha" result="effect1_dropShadow"/>
<feOffset dx="2" dy="4"/>
<feGaussianBlur stdDeviation="5"/>
<feColorMatrix type="matrix" values="0 0 0 0 0 0 0 0 0 0 0 0 0 0 0 0 0 0 0.05 0"/>
<feBlend mode="normal" in2="BackgroundImageFix" result="effect1_dropShadow"/>
<feBlend mode="normal" in="SourceGraphic" in2="effect1_dropShadow" result="shape"/>
</filter>
<linearGradient id="paint0_linear" x1="360.816" y1="16" x2="360.816" y2="362.441" gradientUnits="userSpaceOnUse">
<stop stop-color="#9BA3A2"/>
<stop offset="1" stop-color="#626A69"/>
</linearGradient>
<linearGradient id="paint1_linear" x1="361.05" y1="117.122" x2="361.05" y2="518.093" gradientUnits="userSpaceOnUse">
<stop stop-color="#9BA3A2"/>
<stop offset="1" stop-color="#626A69"/>
</linearGradient>
<linearGradient id="paint2_linear" x1="360.549" y1="247.697" x2="360.549" y2="713.157" gradientUnits="userSpaceOnUse">
<stop stop-color="#9BA3A2"/>
<stop offset="1" stop-color="#626A69"/>
</linearGradient>
<clipPath id="clip0">
<rect width="687.835" height="10.7463" fill="white" transform="translate(129.333 296.451)"/>
</clipPath>
</defs>
</svg>
