<svg width="569" height="476" viewBox="0 0 569 476" fill="none" xmlns="http://www.w3.org/2000/svg">
<path d="M142.318 237.872C140.02 274.363 149.075 311.936 170.7 344.914C223.816 425.736 332.345 448.172 413.032 395.056C467.364 359.375 495.341 298.421 491.557 237.872H142.318Z" fill="#9EE84C"/>
<path d="M488.221 280.184L443.59 250.646L368.625 363.915L413.256 393.453L488.221 280.184Z" fill="black"/>
<path d="M317.649 251.089L219.758 270.914L247.418 407.485L345.309 387.659L317.649 251.089Z" stroke="black" stroke-width="2" stroke-miterlimit="10" stroke-linecap="round" stroke-linejoin="round"/>
<path d="M276.796 283.554L305.043 277.877" stroke="black" stroke-width="2" stroke-miterlimit="10" stroke-linecap="round" stroke-linejoin="round"/>
<path d="M293.15 296.394C298.151 295.312 303.151 294.366 308.287 293.285" stroke="black" stroke-width="2" stroke-miterlimit="10" stroke-linecap="round" stroke-linejoin="round"/>
<path d="M280.04 298.962C282.878 298.421 285.716 297.88 288.555 297.205" stroke="black" stroke-width="2" stroke-miterlimit="10" stroke-linecap="round" stroke-linejoin="round"/>
<path d="M283.148 314.504C289.771 313.153 296.258 311.801 302.881 310.45" stroke="black" stroke-width="2" stroke-miterlimit="10" stroke-linecap="round" stroke-linejoin="round"/>
<path d="M283.284 369.107L294.231 352.888L315.18 356.537L323.695 328.425" stroke="black" stroke-width="2" stroke-miterlimit="10" stroke-linecap="round" stroke-linejoin="round"/>
<path d="M187.73 257.334C171.106 257.334 157.59 270.849 157.59 287.473C157.59 304.097 171.106 317.613 187.73 317.613C204.354 317.613 217.869 304.097 217.869 287.473C217.869 267.741 204.354 257.334 187.73 257.334ZM187.73 297.61C182.053 297.61 177.458 293.015 177.458 287.338C177.458 281.662 182.053 277.067 187.73 277.067C193.406 277.067 197.866 280.581 197.866 287.338C197.866 293.15 193.271 297.61 187.73 297.61Z" fill="black"/>
<path d="M187.729 277.202V257.334" stroke="white" stroke-width="2" stroke-miterlimit="10" stroke-linecap="round" stroke-linejoin="round"/>
<path d="M177.458 287.473H157.59" stroke="white" stroke-width="2" stroke-miterlimit="10" stroke-linecap="round" stroke-linejoin="round"/>
<path d="M179.891 280.851L166.24 267.335" stroke="white" stroke-width="2" stroke-miterlimit="10" stroke-linecap="round" stroke-linejoin="round"/>
<path d="M266.3 268.048L174.28 301.716L201.448 375.967L293.468 342.299L266.3 268.048Z" fill="white" stroke="black" stroke-width="2" stroke-miterlimit="10" stroke-linecap="round" stroke-linejoin="round"/>
<path d="M236.926 293.015L256.253 285.852" stroke="black" stroke-width="2" stroke-miterlimit="10" stroke-linecap="round" stroke-linejoin="round"/>
<path d="M238.277 296.664L257.604 289.501" stroke="black" stroke-width="2" stroke-miterlimit="10" stroke-linecap="round" stroke-linejoin="round"/>
<path d="M259.767 322.073C262.231 322.073 264.227 320.077 264.227 317.613C264.227 315.149 262.231 313.153 259.767 313.153C257.304 313.153 255.307 315.149 255.307 317.613C255.307 320.077 257.304 322.073 259.767 322.073Z" stroke="black" stroke-width="2" stroke-miterlimit="10" stroke-linecap="round" stroke-linejoin="round"/>
<path d="M206.381 357.483L215.842 333.696L223.41 339.102L238.277 308.287" stroke="black" stroke-width="2" stroke-miterlimit="10" stroke-linecap="round" stroke-linejoin="round"/>
<path d="M233.952 308.287L239.629 305.584L242.332 310.72L233.952 308.287Z" fill="black"/>
<path d="M415.059 352.753C415.059 386.136 388.028 413.302 354.51 413.302C338.697 413.302 324.37 407.22 313.558 397.354L340.859 370.053C344.644 373.026 349.374 374.783 354.51 374.783C366.674 374.783 376.54 364.917 376.54 352.753C376.54 346.941 374.918 342.211 372.215 338.697L400.327 310.585C409.383 320.721 415.059 334.777 415.059 352.753Z" fill="white" stroke="black" stroke-width="2" stroke-miterlimit="10" stroke-linecap="round" stroke-linejoin="round"/>
<path d="M374.513 361.943L411.68 372.756" stroke="black" stroke-width="2" stroke-miterlimit="10" stroke-linecap="round" stroke-linejoin="round"/>
<path d="M376.54 352.753H415.059" stroke="black" stroke-width="2" stroke-miterlimit="10" stroke-linecap="round" stroke-linejoin="round"/>
<path d="M343.968 380.189L332.48 400.057L349.374 404.787L351.942 381.946L343.968 380.189Z" fill="black"/>
<path d="M430.196 287.473C430.196 313.558 408.977 334.777 382.892 334.777C356.808 334.777 335.588 313.558 335.588 287.473C335.588 261.389 356.808 240.169 382.892 240.169C409.112 240.169 430.196 256.388 430.196 287.473Z" fill="white" stroke="black" stroke-width="2" stroke-miterlimit="10" stroke-linecap="round" stroke-linejoin="round"/>
<path d="M411.004 247.873L382.892 287.473H430.196" stroke="black" stroke-width="2" stroke-miterlimit="10" stroke-linecap="round" stroke-linejoin="round"/>
<path d="M351.491 271.675L362.311 301.248L376.654 296.002L365.833 266.428L351.491 271.675Z" fill="white" stroke="black" stroke-width="2" stroke-miterlimit="10" stroke-linecap="round" stroke-linejoin="round"/>
<path d="M370.301 264.794L374.434 276.091L388.777 270.843L384.644 259.546L370.301 264.794Z" fill="white" stroke="black" stroke-width="2" stroke-miterlimit="10" stroke-linecap="round" stroke-linejoin="round"/>
<path d="M238.142 259.226C242.845 259.226 246.657 255.413 246.657 250.711C246.657 246.009 242.845 242.197 238.142 242.197C233.44 242.197 229.627 246.009 229.627 250.711C229.627 255.413 233.44 259.226 238.142 259.226Z" stroke="black" stroke-width="2" stroke-miterlimit="10" stroke-linecap="round" stroke-linejoin="round"/>
<path d="M286.015 394.727L280.908 413.786L299.967 418.892L305.075 399.833L286.015 394.727Z" fill="black"/>
<path d="M245.996 374.224L259.928 412.301L278.459 405.521L264.527 367.444L245.996 374.224Z" fill="white" stroke="black" stroke-width="2" stroke-miterlimit="10" stroke-linecap="round" stroke-linejoin="round"/>
<path d="M229.219 367.101L217.734 392.167L229.898 397.741L241.383 372.676L229.219 367.101Z" fill="white" stroke="black" stroke-width="2" stroke-miterlimit="10" stroke-linecap="round" stroke-linejoin="round"/>
<path d="M335.588 247.873L338.967 250.711" stroke="black" stroke-width="2" stroke-miterlimit="10" stroke-linecap="round" stroke-linejoin="round"/>
<path d="M351.942 345.049L349.374 352.753" stroke="black" stroke-width="2" stroke-miterlimit="10" stroke-linecap="round" stroke-linejoin="round"/>
<path d="M355.862 361.943L360.862 364.647" stroke="black" stroke-width="2" stroke-miterlimit="10" stroke-linecap="round" stroke-linejoin="round"/>
<path d="M464.255 247.873L460.876 254.09" stroke="black" stroke-width="2" stroke-miterlimit="10" stroke-linecap="round" stroke-linejoin="round"/>
<path d="M477.095 257.334L479.122 262.2" stroke="black" stroke-width="2" stroke-miterlimit="10" stroke-linecap="round" stroke-linejoin="round"/>
<path d="M214.625 254.09L217.869 257.334" stroke="black" stroke-width="2" stroke-miterlimit="10" stroke-linecap="round" stroke-linejoin="round"/>
<path d="M177.458 337.886L183.134 340.589" stroke="black" stroke-width="2" stroke-miterlimit="10" stroke-linecap="round" stroke-linejoin="round"/>
<path d="M238.277 345.049L236.926 348.834" stroke="black" stroke-width="2" stroke-miterlimit="10" stroke-linecap="round" stroke-linejoin="round"/>
<path d="M316.937 410.599L323.695 416.681" stroke="black" stroke-width="2" stroke-miterlimit="10" stroke-linecap="round" stroke-linejoin="round"/>
<path d="M460.876 343.292L454.119 346.941" stroke="black" stroke-width="2" stroke-miterlimit="10" stroke-linecap="round" stroke-linejoin="round"/>
<path d="M340.454 199.623C327.209 187.865 303.422 172.592 301.259 153.806C298.016 151.778 294.772 149.886 291.528 147.994C287.473 174.484 310.855 192.46 329.777 209.219C336.94 215.571 347.617 205.975 340.454 199.623Z" fill="white" stroke="black" stroke-width="2" stroke-miterlimit="10" stroke-linecap="round" stroke-linejoin="round"/>
<path d="M340.454 199.623C344.509 203.137 349.644 209.624 348.698 210.706C347.752 211.787 346.266 208.678 345.049 208.678C343.833 208.678 349.915 214.76 348.698 215.977C347.482 217.193 343.157 212.733 343.157 212.733C343.157 212.733 347.482 216.653 346.266 217.734C344.914 218.68 340.319 214.355 340.319 214.355C340.319 214.355 345.725 217.463 343.833 218.815C342.076 220.167 333.831 212.868 330.588 210.165" fill="white"/>
<path d="M340.454 199.623C344.509 203.137 349.644 209.624 348.698 210.706C347.752 211.787 346.266 208.678 345.049 208.678C343.833 208.678 349.915 214.76 348.698 215.977C347.482 217.193 343.157 212.733 343.157 212.733C343.157 212.733 347.482 216.653 346.266 217.734C344.914 218.68 340.319 214.355 340.319 214.355C340.319 214.355 345.725 217.463 343.833 218.815C342.076 220.167 333.831 212.868 330.588 210.165" stroke="black" stroke-width="2" stroke-miterlimit="10" stroke-linecap="round" stroke-linejoin="round"/>
<path d="M273.823 125.018C246.386 122.315 208.408 82.1739 200.164 55.6836C196.92 45.4119 180.566 48.9259 183.675 59.3328C194.217 93.1214 237.466 138.263 272.877 141.777C283.689 142.993 284.635 126.099 273.823 125.018Z" fill="white" stroke="black" stroke-width="2" stroke-miterlimit="10" stroke-linecap="round" stroke-linejoin="round"/>
<path d="M308.828 177.052C316.666 177.052 323.019 170.699 323.019 162.861C323.019 155.023 316.666 148.67 308.828 148.67C300.99 148.67 294.637 155.023 294.637 162.861C294.637 170.699 300.99 177.052 308.828 177.052Z" fill="white" stroke="black" stroke-width="2" stroke-miterlimit="10" stroke-linecap="round" stroke-linejoin="round"/>
<path d="M302.463 160.831C301.92 159.209 302.434 157.291 304.056 156.748C305.679 156.206 307.433 157.08 307.976 158.702" stroke="black" stroke-width="2"/>
<path d="M314.383 176.028C313.181 175.556 312.589 174.199 313.061 172.998" stroke="black" stroke-width="2" stroke-miterlimit="10" stroke-linecap="round" stroke-linejoin="round"/>
<path d="M314.91 167.592C315.656 167.592 316.261 166.986 316.261 166.24C316.261 165.494 315.656 164.888 314.91 164.888C314.163 164.888 313.558 165.494 313.558 166.24C313.558 166.986 314.163 167.592 314.91 167.592Z" fill="black"/>
<path d="M320.316 170.295C321.062 170.295 321.667 169.689 321.667 168.943C321.667 168.197 321.062 167.591 320.316 167.591C319.569 167.591 318.964 168.197 318.964 168.943C318.964 169.689 319.569 170.295 320.316 170.295Z" fill="black"/>
<path d="M261.929 143.939C263.686 135.154 268.417 120.963 279.77 126.369C284.635 129.343 304.638 146.642 297.475 153.806C295.312 155.968 292.88 162.05 289.501 163.266C282.337 165.97 271.525 161.509 274.499 157.32C266.389 148.399 261.929 143.939 261.929 143.939Z" fill="white" stroke="black" stroke-width="2" stroke-miterlimit="10" stroke-linecap="round" stroke-linejoin="round"/>
<path d="M266.795 127.991C230.438 125.423 192.73 91.4996 180.566 66.6311C175.836 57.0352 160.023 62.982 164.888 72.7131C180.431 104.474 217.734 146.237 267.2 146.778C278.013 147.048 281.797 129.072 266.795 127.991Z" fill="white" stroke="black" stroke-width="2" stroke-miterlimit="10" stroke-linecap="round" stroke-linejoin="round"/>
<path d="M330.317 206.381C313.828 194.758 292.474 178.944 295.312 155.968C296.529 146.372 281.662 144.075 280.445 153.671C276.931 182.729 299.232 201.921 320.721 217.058C328.56 222.599 338.291 211.922 330.317 206.381Z" fill="white" stroke="black" stroke-width="2" stroke-miterlimit="10" stroke-linecap="round" stroke-linejoin="round"/>
<path d="M330.317 206.381C334.777 209.489 340.589 215.301 339.778 216.382C338.967 217.463 337.075 214.625 335.994 214.76C334.777 214.895 341.535 220.166 340.454 221.653C339.373 223.005 334.642 219.085 334.642 219.085C334.642 219.085 339.373 222.599 338.156 223.681C336.94 224.762 331.939 220.977 331.939 220.977C331.939 220.977 337.616 223.545 335.994 225.032C334.372 226.519 325.317 220.166 321.938 217.869" fill="white"/>
<path d="M330.317 206.381C334.777 209.489 340.589 215.301 339.778 216.382C338.967 217.463 337.075 214.625 335.994 214.76C334.777 214.895 341.535 220.166 340.454 221.653C339.373 223.005 334.642 219.085 334.642 219.085C334.642 219.085 339.373 222.599 338.156 223.681C336.94 224.762 331.939 220.977 331.939 220.977C331.939 220.977 337.616 223.545 335.994 225.032C334.372 226.519 325.317 220.166 321.938 217.869" stroke="black" stroke-width="2" stroke-miterlimit="10" stroke-linecap="round" stroke-linejoin="round"/>
<path d="M344.914 208.543C341.265 207.732 338.562 205.57 338.562 205.57L344.914 208.543Z" fill="white"/>
<path d="M344.914 208.543C341.265 207.732 338.562 205.57 338.562 205.57" stroke="black" stroke-width="2" stroke-miterlimit="10" stroke-linecap="round" stroke-linejoin="round"/>
<path d="M180.566 66.6311C178.809 63.2522 176.782 58.5218 175.701 55.8187C175.16 54.4672 173.944 53.5211 172.457 53.1156C166.51 51.8993 151.103 49.061 149.751 49.8719C148.129 50.818 148.94 52.0344 148.94 52.0344C148.94 52.0344 148.67 52.0344 148.4 52.9805C148.129 53.9266 148.805 55.0078 148.805 55.0078C148.805 55.0078 147.589 54.7375 147.318 56.089C147.048 57.4406 147.994 58.1164 147.994 58.1164C147.994 58.1164 147.048 58.3867 147.048 59.6031C147.048 60.6843 151.373 62.3061 156.103 63.928C160.834 65.5499 162.05 67.8475 164.753 72.8482" fill="white"/>
<path d="M180.566 66.6311C178.809 63.2522 176.782 58.5218 175.701 55.8187C175.16 54.4672 173.944 53.5211 172.457 53.1156C166.51 51.8993 151.103 49.061 149.751 49.8719C148.129 50.818 148.94 52.0344 148.94 52.0344C148.94 52.0344 148.67 52.0344 148.4 52.9805C148.129 53.9266 148.805 55.0078 148.805 55.0078C148.805 55.0078 147.589 54.7375 147.318 56.089C147.048 57.4406 147.994 58.1164 147.994 58.1164C147.994 58.1164 147.048 58.3867 147.048 59.6031C147.048 60.6843 151.373 62.3061 156.103 63.928C160.834 65.5499 162.05 67.8475 164.753 72.8482" stroke="black" stroke-width="2" stroke-miterlimit="10" stroke-linecap="round" stroke-linejoin="round"/>
<path d="M149.481 52.3047C151.643 52.8453 152.049 52.8453 152.049 52.8453L149.481 52.3047Z" fill="white"/>
<path d="M149.481 52.3047C151.643 52.8453 152.049 52.8453 152.049 52.8453" stroke="black" stroke-width="2" stroke-miterlimit="10" stroke-linecap="round" stroke-linejoin="round"/>
<path d="M201.245 58.9273C200.028 55.2781 198.947 50.2774 198.271 47.4391C198.001 45.9524 196.92 44.8712 195.568 44.3306C189.892 42.033 175.16 36.762 173.808 37.3026C172.051 37.9783 172.592 39.3299 172.592 39.3299C172.592 39.3299 171.511 39.3299 171.105 40.276C170.7 41.222 171.241 42.3033 171.241 42.3033C171.241 42.3033 170.024 41.8978 169.619 43.1142C169.213 44.3306 169.889 44.6009 169.889 44.6009C169.889 44.6009 168.537 45.2767 168.673 46.3579C168.943 48.1149 173.268 49.6016 177.728 52.0344C182.188 54.4672 182.593 56.089 184.486 61.4952" fill="white"/>
<path d="M201.245 58.9273C200.028 55.2781 198.947 50.2774 198.271 47.4391C198.001 45.9524 196.92 44.8712 195.568 44.3306C189.892 42.033 175.16 36.762 173.808 37.3026C172.051 37.9783 172.592 39.3299 172.592 39.3299C172.592 39.3299 171.511 39.3299 171.105 40.276C170.7 41.222 171.241 42.3033 171.241 42.3033C171.241 42.3033 170.024 41.8978 169.619 43.1142C169.213 44.3306 169.889 44.6009 169.889 44.6009C169.889 44.6009 168.537 45.2767 168.673 46.3579C168.943 48.1149 173.268 49.6016 177.728 52.0344C182.188 54.4672 182.593 56.089 184.486 61.4952" stroke="black" stroke-width="2" stroke-miterlimit="10" stroke-linecap="round" stroke-linejoin="round"/>
<path d="M169.889 44.601C171.916 45.547 172.998 45.9525 172.998 45.9525L169.889 44.601Z" fill="white"/>
<path d="M169.889 44.601C171.916 45.547 172.998 45.9525 172.998 45.9525" stroke="black" stroke-width="2" stroke-miterlimit="10" stroke-linecap="round" stroke-linejoin="round"/>
<path d="M282.202 127.991L277.066 132.586" stroke="black" stroke-width="2" stroke-miterlimit="10" stroke-linecap="round" stroke-linejoin="round"/>
<path d="M286.663 131.776L268.281 150.292" stroke="black" stroke-width="2" stroke-miterlimit="10" stroke-linecap="round" stroke-linejoin="round"/>
<path d="M290.176 135.695L271.795 154.211" stroke="black" stroke-width="2" stroke-miterlimit="10" stroke-linecap="round" stroke-linejoin="round"/>
<path d="M280.04 154.617C278.148 156.509 276.391 158.266 274.499 160.158L280.04 154.617Z" fill="white"/>
<path d="M280.04 154.617C278.148 156.509 276.391 158.266 274.499 160.158" stroke="black" stroke-width="2" stroke-miterlimit="10" stroke-linecap="round" stroke-linejoin="round"/>
<path d="M294.096 140.425C291.798 142.723 289.501 145.021 287.338 147.318L294.096 140.425Z" fill="white"/>
<path d="M294.096 140.425C291.798 142.723 289.501 145.021 287.338 147.318" stroke="black" stroke-width="2" stroke-miterlimit="10" stroke-linecap="round" stroke-linejoin="round"/>
<path d="M277.742 125.694L273.823 128.937" stroke="black" stroke-width="2" stroke-miterlimit="10" stroke-linecap="round" stroke-linejoin="round"/>
<path d="M127.451 412.626V179.755C127.451 176.647 130.019 174.079 133.127 174.079C136.236 174.079 138.803 176.647 138.803 179.755V205.705" stroke="black" stroke-width="2" stroke-miterlimit="10" stroke-linecap="round" stroke-linejoin="round"/>
<path d="M86.7693 412.626V179.755C86.7693 176.647 89.3372 174.079 92.4458 174.079C95.5543 174.079 98.1223 176.647 98.1223 179.755V205.705" stroke="black" stroke-width="2" stroke-miterlimit="10" stroke-linecap="round" stroke-linejoin="round"/>
<path d="M86.7693 206.246H200.974" stroke="black" stroke-width="2" stroke-miterlimit="10" stroke-linecap="round" stroke-linejoin="round"/>
<path d="M86.7693 231.79H127.451" stroke="black" stroke-width="2" stroke-miterlimit="10" stroke-linecap="round" stroke-linejoin="round"/>
<path d="M86.7693 257.334H127.451" stroke="black" stroke-width="2" stroke-miterlimit="10" stroke-linecap="round" stroke-linejoin="round"/>
<path d="M86.7693 282.878H127.451" stroke="black" stroke-width="2" stroke-miterlimit="10" stroke-linecap="round" stroke-linejoin="round"/>
<path d="M86.7693 308.287H127.451" stroke="black" stroke-width="2" stroke-miterlimit="10" stroke-linecap="round" stroke-linejoin="round"/>
<path d="M455.834 225.324L447.641 230.054L452.371 238.247L460.564 233.517L455.834 225.324Z" fill="black"/>
<path d="M393.029 210.841L398.435 218.274" stroke="black" stroke-width="2" stroke-miterlimit="10" stroke-linecap="round" stroke-linejoin="round"/>
<path d="M469.391 174.079L464.255 183.54" stroke="black" stroke-width="2" stroke-miterlimit="10" stroke-linecap="round" stroke-linejoin="round"/>
<path d="M227.465 218.274L231.79 220.707" stroke="black" stroke-width="2" stroke-miterlimit="10" stroke-linecap="round" stroke-linejoin="round"/>
<path d="M276.796 202.056L274.364 206.651" stroke="black" stroke-width="2" stroke-miterlimit="10" stroke-linecap="round" stroke-linejoin="round"/>
<path d="M219.356 224.356L217.869 227.735" stroke="black" stroke-width="2" stroke-miterlimit="10" stroke-linecap="round" stroke-linejoin="round"/>
<path d="M162.185 218.274L166.24 222.329" stroke="black" stroke-width="2" stroke-miterlimit="10" stroke-linecap="round" stroke-linejoin="round"/>
<path d="M145.291 131.1L148.4 136.641" stroke="black" stroke-width="2" stroke-miterlimit="10" stroke-linecap="round" stroke-linejoin="round"/>
<path d="M125.018 139.615H130.829" stroke="black" stroke-width="2" stroke-miterlimit="10" stroke-linecap="round" stroke-linejoin="round"/>
<path d="M143.534 104.474L138.803 111.773" stroke="black" stroke-width="2" stroke-miterlimit="10" stroke-linecap="round" stroke-linejoin="round"/>
<path d="M204.19 145.756L189.157 156.095L214.049 192.285L229.081 181.945L204.19 145.756Z" fill="white" stroke="black" stroke-width="2" stroke-miterlimit="10" stroke-linecap="round" stroke-linejoin="round"/>
<path d="M444.362 82.992L429.763 72.0481L384.61 132.28L399.208 143.224L444.362 82.992Z" fill="black"/>
<path d="M443.489 116.68L439.569 109.892L374.376 147.532L378.296 154.321L443.489 116.68Z" fill="white" stroke="black" stroke-width="2" stroke-miterlimit="10" stroke-linecap="round" stroke-linejoin="round"/>
<path d="M167.592 176.512H157.59V206.246H167.592V176.512Z" fill="black"/>
<path d="M180.837 173.809H170.835V206.381H180.837V173.809Z" fill="black"/>
<path d="M194.082 183.54H184.08V206.246H194.082V183.54Z" fill="black"/>
<path d="M320.316 160.834C321.667 161.735 324.911 163.267 327.074 162.185C329.777 160.834 333.156 158.131 329.101 151.373C325.046 144.615 323.019 147.994 316.261 145.291C309.504 142.588 314.91 134.479 314.234 130.424C313.558 126.369 312.207 123.666 306.125 122.315C301.259 121.234 299.141 117.81 298.691 116.233C297.114 118.711 294.907 125.018 298.691 130.424C303.422 137.182 302.746 135.83 301.394 141.912C300.313 146.778 304.773 154.752 306.125 156.779" stroke="black" stroke-width="2"/>
</svg>
