<svg width="569" height="597" viewBox="0 0 569 597" fill="none" xmlns="http://www.w3.org/2000/svg">
<path d="M406.678 487.375H157.086V185.21H243.658C333.72 185.21 406.853 258.176 406.853 348.425V487.375H406.678Z" fill="#9EE84C"/>
<path d="M334.593 298.151H321.677V305.832H334.593V298.151Z" fill="white"/>
<path d="M304.572 291.867L279.787 263.413H235.105L272.806 306.53H308.237" stroke="black" stroke-width="2" stroke-miterlimit="10" stroke-linecap="round" stroke-linejoin="round"/>
<path d="M371.246 310.196H311.903C309.11 310.196 307.016 307.926 307.016 305.308V302.166C307.016 299.373 309.285 297.278 311.903 297.278H371.246C374.039 297.278 376.133 299.547 376.133 302.166V305.308C376.308 307.926 374.039 310.196 371.246 310.196Z" stroke="black" stroke-width="2" stroke-miterlimit="10" stroke-linecap="round" stroke-linejoin="round"/>
<path d="M388.875 290.296H306.667C305.794 290.296 305.096 290.994 305.096 291.867V295.183C305.096 296.056 305.794 296.754 306.667 296.754H388.875C389.748 296.754 390.446 296.056 390.446 295.183V291.867C390.446 290.994 389.748 290.296 388.875 290.296Z" stroke="black" stroke-width="2" stroke-miterlimit="10" stroke-linecap="round" stroke-linejoin="round"/>
<path d="M377.181 275.458H316.092C315.219 275.458 314.521 276.156 314.521 277.029V284.71C314.521 285.583 315.219 286.281 316.092 286.281H377.181C378.053 286.281 378.751 285.583 378.751 284.71V277.029C378.751 276.156 378.053 275.458 377.181 275.458Z" stroke="black" stroke-width="2" stroke-miterlimit="10" stroke-linecap="round" stroke-linejoin="round"/>
<path d="M362.345 306.53H253.781V490.168H362.345V306.53Z" fill="white" stroke="black" stroke-width="2" stroke-miterlimit="10" stroke-linecap="round" stroke-linejoin="round"/>
<path d="M412.612 306.53H361.123V490.168H412.612V306.53Z" fill="white" stroke="black" stroke-width="2" stroke-miterlimit="10" stroke-linecap="round" stroke-linejoin="round"/>
<path d="M456.073 263.413H404.583L361.123 306.53H412.612L456.073 263.413Z" fill="white" stroke="black" stroke-width="2" stroke-miterlimit="10" stroke-linecap="round" stroke-linejoin="round"/>
<path d="M370.548 278.076H351V282.964H370.548V278.076Z" fill="white"/>
<path d="M388.526 338.998H372.294V358.026H388.526V338.998Z" fill="white" stroke="black" stroke-width="2" stroke-miterlimit="10" stroke-linecap="round" stroke-linejoin="round"/>
<path d="M377.336 352.544L367.814 358.043L375.145 370.741L384.667 365.243L377.336 352.544Z" fill="white" stroke="black" stroke-width="2" stroke-miterlimit="10" stroke-linecap="round" stroke-linejoin="round"/>
<path d="M322.55 330.096H345.24" stroke="black" stroke-width="2" stroke-miterlimit="10" stroke-linecap="round" stroke-linejoin="round"/>
<path d="M322.55 337.602H345.24" stroke="black" stroke-width="2" stroke-miterlimit="10" stroke-linecap="round" stroke-linejoin="round"/>
<path d="M373.69 227.977L380.497 230.247" stroke="black" stroke-width="2" stroke-miterlimit="10" stroke-linecap="round" stroke-linejoin="round"/>
<path d="M313.474 225.01L314.521 231.992" stroke="black" stroke-width="2" stroke-miterlimit="10" stroke-linecap="round" stroke-linejoin="round"/>
<path d="M334.418 236.705L338.607 240.022" stroke="black" stroke-width="2" stroke-miterlimit="10" stroke-linecap="round" stroke-linejoin="round"/>
<path d="M359.203 193.24L362.345 196.556" stroke="black" stroke-width="2" stroke-miterlimit="10" stroke-linecap="round" stroke-linejoin="round"/>
<path d="M138.934 468.523L133.348 462.239" stroke="black" stroke-width="2" stroke-miterlimit="10" stroke-linecap="round" stroke-linejoin="round"/>
<path d="M134.047 435.531L132.825 441.117" stroke="black" stroke-width="2" stroke-miterlimit="10" stroke-linecap="round" stroke-linejoin="round"/>
<path d="M72.4341 411.616L66.3252 412.663" stroke="black" stroke-width="2" stroke-miterlimit="10" stroke-linecap="round" stroke-linejoin="round"/>
<path d="M315.219 259.573L307.539 262.715" stroke="black" stroke-width="2" stroke-miterlimit="10" stroke-linecap="round" stroke-linejoin="round"/>
<path d="M334.593 209.299H329.88V219.249H334.593V209.299Z" fill="black"/>
<path d="M362.345 209.299H324.644C323.772 209.299 323.073 209.997 323.073 210.87V218.202C323.073 219.075 323.772 219.773 324.644 219.773H362.345C363.218 219.773 363.916 219.075 363.916 218.202V210.87C364.09 209.997 363.392 209.299 362.345 209.299Z" stroke="black" stroke-width="2" stroke-miterlimit="10" stroke-linecap="round" stroke-linejoin="round"/>
<path d="M373.166 125.161V145.41H310.332V125.161C310.332 107.879 324.47 93.7395 341.749 93.7395C344.193 93.7395 346.636 94.0886 349.08 94.6123C362.869 97.929 373.166 110.323 373.166 125.161Z" stroke="black" stroke-width="2" stroke-miterlimit="10" stroke-linecap="round" stroke-linejoin="round"/>
<path d="M310.332 145.41L342.796 210.172L373.166 145.41" stroke="black" stroke-width="2" stroke-miterlimit="10" stroke-linecap="round" stroke-linejoin="round"/>
<path d="M353.094 145.933L342.796 210.172L326.913 145.933C325.517 116.083 326.39 93.7395 341.575 93.7395C353.967 93.7395 352.222 125.335 353.094 145.933Z" stroke="black" stroke-width="2" stroke-miterlimit="10" stroke-linecap="round" stroke-linejoin="round"/>
<path d="M353.094 145.061C352.222 124.637 353.967 93.7395 341.749 93.7395C326.739 93.7395 325.692 115.734 327.088 145.061H353.094Z" fill="black" stroke="black" stroke-width="2" stroke-miterlimit="10" stroke-linecap="round" stroke-linejoin="round"/>
<path d="M342.796 219.424V210.172L349.778 219.947" stroke="black" stroke-width="2" stroke-miterlimit="10" stroke-linecap="round" stroke-linejoin="round"/>
<path d="M373.166 125.161V145.235L367.057 145.061C367.057 145.061 366.708 139.475 367.406 124.811C368.105 110.148 357.109 98.8018 345.938 94.7869L348.905 94.6123C362.868 97.929 373.166 110.323 373.166 125.161Z" fill="black" stroke="black" stroke-width="2" stroke-miterlimit="10" stroke-linecap="round" stroke-linejoin="round"/>
<path d="M393.238 106.133L410.169 139.824L426.052 106.133" stroke="black" stroke-width="2" stroke-miterlimit="10" stroke-linecap="round" stroke-linejoin="round"/>
<path d="M426.925 95.8342V107.006H392.366V95.8342C392.366 86.2333 400.045 78.5526 409.645 78.5526C411.041 78.5526 412.438 78.7272 413.66 79.0763C421.339 80.8219 426.925 87.6298 426.925 95.8342Z" fill="#9EE84C"/>
<path d="M415.58 107.006C415.056 96.0087 415.929 79.4254 409.645 79.4254C401.791 79.4254 401.267 91.2956 401.965 107.006H415.58Z" fill="white" stroke="black" stroke-width="2" stroke-miterlimit="10" stroke-linecap="round" stroke-linejoin="round"/>
<path d="M419.594 139.475H401.616C400.744 139.475 400.045 140.173 400.045 141.046V150.996C400.045 151.868 400.744 152.567 401.616 152.567H419.594C420.467 152.567 421.165 151.868 421.165 150.996V141.046C421.339 140.173 420.467 139.475 419.594 139.475Z" stroke="black" stroke-width="2" stroke-miterlimit="10" stroke-linecap="round" stroke-linejoin="round"/>
<path d="M410.169 140.522V151.694" stroke="black" stroke-width="2" stroke-miterlimit="10" stroke-linecap="round" stroke-linejoin="round"/>
<path d="M415.579 106.482L410.169 139.824L401.965 106.482C401.267 90.9464 401.616 79.4254 409.645 79.4254C416.103 79.2508 415.056 95.8342 415.579 106.482Z" stroke="black" stroke-width="2" stroke-miterlimit="10" stroke-linecap="round" stroke-linejoin="round"/>
<path d="M278.042 461.889L273.853 492.612H326.215C326.215 492.612 329.706 479.52 316.441 476.553L317.139 461.889H278.042Z" fill="black"/>
<path d="M314.172 471.141L306.143 479.171" stroke="white" stroke-width="2" stroke-miterlimit="10" stroke-linecap="round" stroke-linejoin="round"/>
<path d="M314.172 479.171L306.143 471.141" stroke="white" stroke-width="2" stroke-miterlimit="10" stroke-linecap="round" stroke-linejoin="round"/>
<path d="M157.261 461.889L149.406 492.612H203.688C203.688 492.612 209.273 480.218 194.612 477.425L197.754 461.889H157.261Z" fill="black"/>
<path d="M198.277 464.508C214.51 399.92 224.284 333.761 227.426 267.254C236.676 277.029 243.134 289.772 249.069 301.468C258.668 320.32 265.824 340.395 270.886 360.993C279.264 394.858 281.184 430.119 276.82 464.682H317.837C322.201 425.406 319.583 385.606 309.634 347.203C303.525 323.288 294.449 300.071 282.929 278.251C271.41 256.256 257.097 233.563 234.233 221.693C227.6 218.202 219.571 218.376 213.462 221.868C201.943 219.075 187.631 225.533 187.281 241.069C185.711 316.829 175.064 391.716 155.69 464.857H198.277V464.508Z" fill="white" stroke="black" stroke-width="2" stroke-miterlimit="10" stroke-linecap="round" stroke-linejoin="round"/>
<path d="M193.39 471.141L185.362 479.171" stroke="white" stroke-width="2" stroke-miterlimit="10" stroke-linecap="round" stroke-linejoin="round"/>
<path d="M193.39 479.171L185.362 471.141" stroke="white" stroke-width="2" stroke-miterlimit="10" stroke-linecap="round" stroke-linejoin="round"/>
<path d="M270.838 138.966C271.22 142.813 268.633 146.219 265.061 146.573C261.488 146.927 260.107 132.995 263.679 132.641C267.252 132.287 270.457 135.119 270.838 138.966Z" fill="white"/>
<path d="M265.061 146.573C268.633 146.219 271.22 142.813 270.838 138.966C270.457 135.119 267.252 132.287 263.679 132.641" stroke="black" stroke-width="2"/>
<circle cx="237.5" cy="139.5" r="28.5" fill="white" stroke="black" stroke-width="2"/>
<circle cx="217.806" cy="139.449" r="1" transform="rotate(46.8599 217.806 139.449)" fill="black"/>
<circle cx="220.541" cy="142.368" r="1" transform="rotate(46.8599 220.541 142.368)" fill="black"/>
<circle cx="223.459" cy="139.632" r="1" transform="rotate(46.8599 223.459 139.632)" fill="black"/>
<circle cx="223.276" cy="145.286" r="1" transform="rotate(46.8599 223.276 145.286)" fill="black"/>
<circle cx="226.195" cy="142.551" r="1" transform="rotate(46.8599 226.195 142.551)" fill="black"/>
<circle r="1" transform="matrix(-0.683784 0.729684 0.729684 0.683784 259.802 139.449)" fill="black"/>
<circle r="1" transform="matrix(-0.683784 0.729684 0.729684 0.683784 257.067 142.368)" fill="black"/>
<circle r="1" transform="matrix(-0.683784 0.729684 0.729684 0.683784 254.148 139.632)" fill="black"/>
<circle r="1" transform="matrix(-0.683784 0.729684 0.729684 0.683784 254.332 145.286)" fill="black"/>
<circle r="1" transform="matrix(-0.683784 0.729684 0.729684 0.683784 251.413 142.551)" fill="black"/>
<path d="M206.691 136.966C206.309 140.813 208.896 144.219 212.468 144.573C216.041 144.927 217.422 130.995 213.849 130.641C210.277 130.287 207.072 133.119 206.691 136.966Z" fill="white"/>
<path d="M212.468 144.573C208.896 144.219 206.309 140.813 206.691 136.966C207.072 133.119 210.277 130.287 213.849 130.641" stroke="black" stroke-width="2"/>
<path d="M212.268 139.536C211.037 139.414 210.145 138.24 210.276 136.913C210.408 135.587 211.513 134.611 212.744 134.733" stroke="black" stroke-width="2"/>
<path d="M234 135C234 132.791 232.209 131 230 131C227.791 131 226 132.791 226 135" stroke="black" stroke-width="2"/>
<path d="M250 135C250 132.791 248.209 131 246 131C243.791 131 242 132.791 242 135" stroke="black" stroke-width="2"/>
<path d="M191.121 238.451C192.343 219.249 195.834 182.94 195.834 182.94L252.036 186.082L261.112 243.164L191.121 238.451Z" fill="black"/>
<path d="M217.302 163.389C179.078 161.993 141.727 168.452 132.476 204.586C123.574 239.149 155.166 268.475 189.027 261.144C205.608 257.478 198.627 231.992 182.045 235.658C165.289 239.324 151.152 220.995 160.577 205.982C171.398 188.875 196.532 189.923 214.161 189.923C231.265 189.923 234.407 164.088 217.302 163.389Z" fill="white" stroke="black" stroke-width="2" stroke-miterlimit="10" stroke-linecap="round" stroke-linejoin="round"/>
<path d="M217.302 163.389C197.928 162.691 178.554 164.088 163.195 170.197C165.813 178.751 168.955 187.13 172.271 195.334C184.663 189.05 201.419 189.574 214.16 189.748C231.265 189.923 234.407 164.088 217.302 163.389Z" fill="black"/>
<path d="M297.416 190.621C285.547 174.91 267.395 169.674 248.72 167.753C249.069 164.262 247.847 161.295 245.752 159.025C243.309 159.549 240.865 160.247 238.422 160.771C233.186 162.167 230.567 169.848 225.506 171.768C224.808 174.038 213.288 246.481 274.028 240.895C298.463 238.975 311.903 209.648 297.416 190.621ZM262.857 213.314C255.527 211.743 250.989 204.062 249.592 195.509C260.239 196.032 266.697 198.651 272.282 202.491C281.184 208.252 274.901 215.758 262.857 213.314Z" fill="white" stroke="black" stroke-width="2" stroke-miterlimit="10" stroke-linecap="round" stroke-linejoin="round"/>
<path d="M248.894 167.754C249.068 166.357 248.894 165.135 248.545 163.913C247.148 168.975 245.229 173.863 243.658 178.925C243.832 179.1 244.007 179.275 244.007 179.449C244.356 180.147 244.53 181.02 244.879 181.718C245.578 181.893 246.101 182.417 246.276 183.115C247.498 186.955 248.196 190.621 248.545 194.636C256.225 195.334 264.428 196.905 270.362 200.746C273.679 192.541 277.169 184.337 280.66 176.307C271.235 171.245 260.064 168.975 248.894 167.754Z" fill="black"/>
<path d="M225.68 172.641C226.902 165.31 228.473 157.804 226.378 152.043C224.284 146.282 224.807 143.664 231.614 153.09C231.614 153.09 227.425 144.886 229.171 144.013C231.091 143.14 235.978 150.821 235.978 150.821C235.978 150.821 230.567 142.617 233.36 142.442C235.978 142.268 238.247 148.028 242.261 148.901C246.276 149.774 247.323 142.268 249.068 144.013C251.861 146.981 250.465 159.375 248.894 167.754C248.196 172.118 250.29 188.701 249.592 195.334" fill="white"/>
<path d="M225.68 172.641C226.902 165.31 228.473 157.804 226.378 152.043C224.284 146.282 224.807 143.664 231.614 153.09C231.614 153.09 227.425 144.886 229.171 144.013C231.091 143.14 235.978 150.821 235.978 150.821C235.978 150.821 230.567 142.617 233.36 142.442C235.978 142.268 238.247 148.028 242.261 148.901C246.276 149.774 247.323 142.268 249.068 144.013C251.861 146.981 250.465 159.375 248.894 167.754C248.196 172.118 250.29 188.701 249.592 195.334" stroke="black" stroke-width="2" stroke-miterlimit="10" stroke-linecap="round" stroke-linejoin="round"/>
<path d="M181.521 235.658C189.376 234.261 186.932 230.77 192.343 226.581L191.994 232.516C191.994 232.516 201.07 225.359 203.514 227.628C205.957 229.723 197.928 237.054 197.928 237.054C197.928 237.054 205.608 229.374 207.702 232.341C209.797 235.309 201.594 243.862 201.594 243.862C201.594 243.862 208.924 234.087 210.844 238.975C212.939 243.862 204.386 258.351 188.329 261.318" fill="white"/>
<path d="M181.521 235.658C189.376 234.261 186.932 230.77 192.343 226.581L191.994 232.516C191.994 232.516 201.07 225.359 203.514 227.628C205.957 229.723 197.928 237.054 197.928 237.054C197.928 237.054 205.608 229.374 207.702 232.341C209.797 235.309 201.594 243.862 201.594 243.862C201.594 243.862 208.924 234.087 210.844 238.975C212.939 243.862 204.386 258.351 188.329 261.318" stroke="black" stroke-width="2" stroke-miterlimit="10" stroke-linecap="round" stroke-linejoin="round"/>
<path d="M247 121C252.167 122.333 263.8 121.3 269 106.5C268.167 107.167 264.9 109.1 254.5 107.5C255.833 107.333 257.9 102.6 259.5 97C256.167 99.5 252.4 105.5 240 105.5C243.333 105 244 101.8 244 97C239.167 99.3333 228 105.3 222 102.5C214.5 99 208.5 104 209 108.5C209.4 112.1 216.167 115.667 219.5 117" stroke="black" stroke-width="2"/>
</svg>
