<?xml version="1.0" encoding="utf-8"?>
<!-- Generator: Adobe Illustrator 23.0.2, SVG Export Plug-In . SVG Version: 6.00 Build 0)  -->
<svg version="1.1" xmlns="http://www.w3.org/2000/svg" xmlns:xlink="http://www.w3.org/1999/xlink" x="0px" y="0px"
	 viewBox="0 0 592.5 527.7" style="enable-background:new 0 0 592.5 527.7;" xml:space="preserve">
<style type="text/css">
	.st0{fill:none;}
	.st1{fill:none;stroke:#1D1D1B;stroke-width:0.3;}
	.st2{fill:url(#Schraffur_doppelt);}
	.st3{display:none;fill:none;stroke:#000000;stroke-width:45;stroke-miterlimit:10;}
	.st4{fill:#FFFFFF;}
	.st5{fill:none;stroke:#000000;stroke-width:3;stroke-miterlimit:10;}
	.st6{fill:#FFFFFF;stroke:#000000;stroke-width:3;stroke-miterlimit:10;}
	.st7{fill:#86ED18;}
	.st8{display:none;fill:#FFFFFF;}
	.st9{display:none;fill:none;stroke:#000000;stroke-width:3;stroke-miterlimit:10;}
	.st10{display:none;fill:#FFFFFF;stroke:#000000;stroke-width:3;stroke-miterlimit:10;}
	.st11{display:none;}
	.st12{display:none;fill:#86ED18;}
	.st13{fill:none;stroke:#000000;stroke-width:36;stroke-linecap:round;stroke-miterlimit:10;}
	.st14{stroke:#000000;stroke-width:1.5;stroke-miterlimit:10;}
	.st15{stroke:#000000;stroke-width:0.75;stroke-miterlimit:10;}
	.st16{display:none;fill:none;stroke:#86ED18;stroke-width:6;}
	.st17{fill:none;stroke:#202020;stroke-width:2;stroke-miterlimit:10;}
	.st18{fill:#FFFFFF;stroke:#202020;stroke-width:2;stroke-linecap:round;stroke-miterlimit:10;}
	.st19{fill:none;stroke:#202020;stroke-width:2;stroke-linecap:round;stroke-miterlimit:10;}
	.st20{fill:none;stroke:#86ED18;stroke-width:2;stroke-linecap:round;stroke-miterlimit:10;}
	.st21{display:none;fill:#FFFFFF;stroke:#000000;stroke-width:2;stroke-miterlimit:10;}
	.st22{display:none;fill:none;stroke:#000000;stroke-width:2;stroke-miterlimit:10;}
	.st23{fill:none;stroke:#202020;stroke-width:3;stroke-miterlimit:10;}
	.st24{fill:#202020;stroke:#FFFFFF;stroke-width:2;stroke-miterlimit:10;}
	.st25{fill:#FFFFFF;stroke:#202020;stroke-width:3;stroke-miterlimit:10;}
	.st26{fill:none;stroke:#86ED18;stroke-width:3;stroke-miterlimit:10;}
</style>
<pattern  x="-29.7" y="663.4" width="72" height="72" patternUnits="userSpaceOnUse" id="Schraffur_doppelt" viewBox="4.1 -78.2 72 72" style="overflow:visible;">
	<g>
		<rect x="4.1" y="-78.2" class="st0" width="72" height="72"/>
		<g>
			<line class="st1" x1="67.8" y1="-1.5" x2="71.3" y2="-7.6"/>
			<line class="st1" x1="69.6" y1="-8.6" x2="66.1" y2="-2.5"/>
			<line class="st1" x1="53.1" y1="-0.7" x2="50.8" y2="-7.3"/>
			<line class="st1" x1="48.9" y1="-6.6" x2="51.3" y2="-0.1"/>
			<line class="st1" x1="40.6" y1="-2.4" x2="42.3" y2="-9.2"/>
			<line class="st1" x1="40.4" y1="-9.7" x2="38.6" y2="-2.9"/>
			<line class="st1" x1="19" y1="-2.9" x2="20.9" y2="-9.7"/>
			<line class="st1" x1="19" y1="-10.2" x2="17.1" y2="-3.5"/>
			<line class="st1" x1="12.9" y1="-3.3" x2="10.9" y2="-10"/>
			<line class="st1" x1="9" y1="-9.4" x2="11" y2="-2.7"/>
			<line class="st1" x1="55.2" y1="-8.9" x2="59.6" y2="-3.5"/>
			<line class="st1" x1="61.1" y1="-4.8" x2="56.7" y2="-10.2"/>
		</g>
		<g>
			<line class="st1" x1="75.9" y1="-51.9" x2="82.4" y2="-54.5"/>
		</g>
		<g>
			<line class="st1" x1="3.9" y1="-51.9" x2="10.4" y2="-54.5"/>
			<line class="st1" x1="8.3" y1="-38.1" x2="5.8" y2="-31.6"/>
			<line class="st1" x1="7.6" y1="-30.8" x2="10.2" y2="-37.4"/>
			<line class="st1" x1="73.4" y1="-72.6" x2="79.5" y2="-69.3"/>
			<line class="st1" x1="80.5" y1="-71" x2="74.3" y2="-74.3"/>
			<line class="st1" x1="73.4" y1="-58.1" x2="78.7" y2="-62.7"/>
			<line class="st1" x1="77.4" y1="-64.2" x2="72.1" y2="-59.7"/>
			<line class="st1" x1="75.9" y1="-51.9" x2="82.4" y2="-54.5"/>
			<line class="st1" x1="81.7" y1="-56.3" x2="75.1" y2="-53.8"/>
			<line class="st1" x1="73.1" y1="-43.3" x2="79.9" y2="-41.8"/>
			<line class="st1" x1="80.3" y1="-43.7" x2="73.5" y2="-45.3"/>
			<line class="st1" x1="73.1" y1="-22" x2="79.9" y2="-20.2"/>
			<line class="st1" x1="80.4" y1="-22.2" x2="73.6" y2="-23.9"/>
			<line class="st1" x1="74.1" y1="-12" x2="80.8" y2="-14.2"/>
			<line class="st1" x1="80.2" y1="-16.1" x2="73.5" y2="-13.9"/>
			<line class="st1" x1="67.8" y1="-73.5" x2="71.3" y2="-79.6"/>
			<line class="st1" x1="69.6" y1="-80.6" x2="66.1" y2="-74.5"/>
			<line class="st1" x1="53.1" y1="-72.7" x2="50.8" y2="-79.3"/>
			<line class="st1" x1="48.9" y1="-78.6" x2="51.3" y2="-72.1"/>
			<line class="st1" x1="40.6" y1="-74.4" x2="42.3" y2="-81.2"/>
			<line class="st1" x1="40.4" y1="-81.7" x2="38.6" y2="-74.9"/>
			<line class="st1" x1="34.9" y1="-74.5" x2="28.5" y2="-77.3"/>
			<line class="st1" x1="27.7" y1="-75.4" x2="34.1" y2="-72.7"/>
			<line class="st1" x1="19" y1="-74.9" x2="20.9" y2="-81.7"/>
			<line class="st1" x1="19" y1="-82.2" x2="17.1" y2="-75.5"/>
			<line class="st1" x1="12.9" y1="-75.3" x2="10.9" y2="-82"/>
			<line class="st1" x1="9" y1="-81.4" x2="11" y2="-74.7"/>
			<line class="st1" x1="69.6" y1="-8.6" x2="66.1" y2="-2.5"/>
			<line class="st1" x1="67.8" y1="-1.5" x2="71.3" y2="-7.6"/>
			<line class="st1" x1="55.2" y1="-8.9" x2="59.6" y2="-3.5"/>
			<line class="st1" x1="61.1" y1="-4.8" x2="56.7" y2="-10.2"/>
			<line class="st1" x1="48.9" y1="-6.6" x2="51.3" y2="-0.1"/>
			<line class="st1" x1="53.1" y1="-0.7" x2="50.8" y2="-7.3"/>
			<line class="st1" x1="40.4" y1="-9.7" x2="38.6" y2="-2.9"/>
			<line class="st1" x1="40.6" y1="-2.4" x2="42.3" y2="-9.2"/>
			<line class="st1" x1="19" y1="-10.2" x2="17.1" y2="-3.5"/>
			<line class="st1" x1="19" y1="-2.9" x2="20.9" y2="-9.7"/>
			<line class="st1" x1="9" y1="-9.4" x2="11" y2="-2.7"/>
			<line class="st1" x1="12.9" y1="-3.3" x2="10.9" y2="-10"/>
			<line class="st1" x1="22.6" y1="-31.1" x2="19.1" y2="-25"/>
			<line class="st1" x1="20.8" y1="-24" x2="24.3" y2="-30.1"/>
			<line class="st1" x1="52.6" y1="-63.3" x2="48.2" y2="-68.7"/>
			<line class="st1" x1="46.7" y1="-67.4" x2="51.1" y2="-62"/>
			<line class="st1" x1="40.4" y1="-65.1" x2="42.8" y2="-58.6"/>
			<line class="st1" x1="44.6" y1="-59.2" x2="42.3" y2="-65.8"/>
			<line class="st1" x1="66.9" y1="-17" x2="60.5" y2="-19.8"/>
			<line class="st1" x1="59.7" y1="-17.9" x2="66.1" y2="-15.2"/>
			<line class="st1" x1="67.1" y1="-35" x2="65.2" y2="-28.3"/>
			<line class="st1" x1="67.1" y1="-27.7" x2="69" y2="-34.5"/>
			<line class="st1" x1="56.7" y1="-40.4" x2="58.7" y2="-33.7"/>
			<line class="st1" x1="60.6" y1="-34.2" x2="58.6" y2="-40.9"/>
			<line class="st1" x1="37.2" y1="-45.7" x2="40.6" y2="-51.7"/>
			<line class="st1" x1="38.9" y1="-52.7" x2="35.4" y2="-46.7"/>
			<line class="st1" x1="22.7" y1="-52.4" x2="27.1" y2="-47"/>
			<line class="st1" x1="28.6" y1="-48.3" x2="24.2" y2="-53.7"/>
			<line class="st1" x1="14.9" y1="-50.6" x2="17.3" y2="-44.1"/>
			<line class="st1" x1="19.1" y1="-44.7" x2="16.8" y2="-51.3"/>
			<line class="st1" x1="66.9" y1="-52.7" x2="65.1" y2="-45.9"/>
			<line class="st1" x1="67.1" y1="-45.4" x2="68.8" y2="-52.2"/>
			<line class="st1" x1="51" y1="-49" x2="57.5" y2="-46.3"/>
			<line class="st1" x1="58.3" y1="-48.1" x2="51.8" y2="-50.9"/>
			<line class="st1" x1="34.2" y1="-18.9" x2="36.2" y2="-12.2"/>
			<line class="st1" x1="38.1" y1="-12.7" x2="36.1" y2="-19.4"/>
			<line class="st1" x1="53.1" y1="-17.8" x2="46.2" y2="-16.8"/>
			<line class="st1" x1="46.5" y1="-14.8" x2="53.4" y2="-15.8"/>
			<line class="st1" x1="53.3" y1="-30" x2="51.7" y2="-23.2"/>
			<line class="st1" x1="53.6" y1="-22.7" x2="55.2" y2="-29.6"/>
			<line class="st1" x1="34.4" y1="-32.9" x2="30.6" y2="-27"/>
			<line class="st1" x1="32.3" y1="-25.9" x2="36.1" y2="-31.9"/>
			<line class="st1" x1="36" y1="-41.5" x2="29.6" y2="-38.7"/>
			<line class="st1" x1="30.4" y1="-36.9" x2="36.8" y2="-39.7"/>
			<line class="st1" x1="22.5" y1="-35.9" x2="24.4" y2="-42.7"/>
			<line class="st1" x1="22.5" y1="-43.2" x2="20.6" y2="-36.5"/>
			<line class="st1" x1="48.1" y1="-39.3" x2="46" y2="-46"/>
			<line class="st1" x1="44.1" y1="-45.4" x2="46.1" y2="-38.7"/>
			<line class="st1" x1="34.3" y1="-62.5" x2="28.8" y2="-58.3"/>
			<line class="st1" x1="30" y1="-56.7" x2="35.6" y2="-60.9"/>
			<line class="st1" x1="25.1" y1="-62.3" x2="23.1" y2="-69"/>
			<line class="st1" x1="21.2" y1="-68.5" x2="23.2" y2="-61.7"/>
			<line class="st1" x1="14.5" y1="-68.8" x2="14.1" y2="-61.8"/>
			<line class="st1" x1="16.1" y1="-61.7" x2="16.5" y2="-68.7"/>
			<line class="st1" x1="27.4" y1="-21" x2="23.1" y2="-15.4"/>
			<line class="st1" x1="24.7" y1="-14.2" x2="29" y2="-19.7"/>
			<line class="st1" x1="19.6" y1="-16.5" x2="14.8" y2="-21.6"/>
			<line class="st1" x1="13.3" y1="-20.2" x2="18.2" y2="-15.2"/>
			<line class="st1" x1="59.6" y1="-53.7" x2="64" y2="-59.2"/>
			<line class="st1" x1="62.5" y1="-60.4" x2="58.1" y2="-55"/>
			<line class="st1" x1="62.7" y1="-63.9" x2="63.5" y2="-70.9"/>
			<line class="st1" x1="61.5" y1="-71.1" x2="60.7" y2="-64.1"/>
			<line class="st1" x1="39.7" y1="-28.9" x2="46.1" y2="-26.2"/>
			<line class="st1" x1="46.9" y1="-28" x2="40.5" y2="-30.8"/>
			<line class="st1" x1="55.2" y1="-80.9" x2="59.6" y2="-75.5"/>
			<line class="st1" x1="61.1" y1="-76.8" x2="56.7" y2="-82.2"/>
		</g>
		<g>
			<line class="st1" x1="1.4" y1="-72.6" x2="7.5" y2="-69.3"/>
			<line class="st1" x1="8.5" y1="-71" x2="2.3" y2="-74.3"/>
			<line class="st1" x1="1.4" y1="-58.1" x2="6.7" y2="-62.7"/>
			<line class="st1" x1="5.4" y1="-64.2" x2="0.1" y2="-59.7"/>
			<line class="st1" x1="3.9" y1="-51.9" x2="10.4" y2="-54.5"/>
			<line class="st1" x1="9.7" y1="-56.3" x2="3.1" y2="-53.8"/>
			<line class="st1" x1="1.1" y1="-43.3" x2="7.9" y2="-41.8"/>
			<line class="st1" x1="8.3" y1="-43.7" x2="1.5" y2="-45.3"/>
			<line class="st1" x1="1.1" y1="-22" x2="7.9" y2="-20.2"/>
			<line class="st1" x1="8.4" y1="-22.2" x2="1.6" y2="-23.9"/>
			<line class="st1" x1="2.1" y1="-12" x2="8.8" y2="-14.2"/>
			<line class="st1" x1="8.2" y1="-16.1" x2="1.5" y2="-13.9"/>
		</g>
		<g>
			<line class="st1" x1="69.6" y1="-80.6" x2="66.1" y2="-74.5"/>
			<line class="st1" x1="67.8" y1="-73.5" x2="71.3" y2="-79.6"/>
			<line class="st1" x1="55.2" y1="-80.9" x2="59.6" y2="-75.5"/>
			<line class="st1" x1="61.1" y1="-76.8" x2="56.7" y2="-82.2"/>
			<line class="st1" x1="48.9" y1="-78.6" x2="51.3" y2="-72.1"/>
			<line class="st1" x1="53.1" y1="-72.7" x2="50.8" y2="-79.3"/>
			<line class="st1" x1="40.4" y1="-81.7" x2="38.6" y2="-74.9"/>
			<line class="st1" x1="40.6" y1="-74.4" x2="42.3" y2="-81.2"/>
			<line class="st1" x1="19" y1="-82.2" x2="17.1" y2="-75.5"/>
			<line class="st1" x1="19" y1="-74.9" x2="20.9" y2="-81.7"/>
			<line class="st1" x1="9" y1="-81.4" x2="11" y2="-74.7"/>
			<line class="st1" x1="12.9" y1="-75.3" x2="10.9" y2="-82"/>
		</g>
	</g>
</pattern>
<g id="Ebene_1">
	<path class="st2" d="M133.8,247.3C71.4,361.9,367,555.5,473.5,524.3s132-116.2,88.1-191.7c-35.6-61.3-91.3-89.3-173-85.3
		C306.8,251.4,186,151.6,133.8,247.3L133.8,247.3z"/>
	<path class="st3" d="M341.6,269.7l-20.5,6.1c-35.6,3.5-50.7-22.9-50.7-52v-21.6"/>
	<path d="M175.6,207c29.9,0,54.3-24.3,54.3-54.3v-6.2c0-9.9-8.1-18-18-18s-18,8.1-18,18v6.2c0,10.1-8.2,18.3-18.3,18.3
		c-10.1,0-18.3-8.2-18.3-18.3c0-9.9-8.1-18-18-18c-9.9,0-18,8.1-18,18C121.3,182.7,145.7,207,175.6,207L175.6,207z"/>
	<path class="st4" d="M195.4,138.6v4.3l-2.4-0.1"/>
	<path class="st5" d="M195.4,138.6v4.3l-2.4-0.1"/>
	<path class="st4" d="M195.4,136.6c0-2.2-1.6-4.1-3.7-4.3c-2.4-0.2-4.5,1.7-4.5,4.1v6.7c0,4.1,3.3,7.5,7.5,7.5h0.7v3.8h32.9v-23.7"
		/>
	<path class="st5" d="M195.4,136.6c0-2.2-1.6-4.1-3.7-4.3c-2.4-0.2-4.5,1.7-4.5,4.1v6.7c0,4.1,3.3,7.5,7.5,7.5h0.7v3.8h32.9v-23.7"
		/>
	<path class="st6" d="M203.7,125.8l-0.1,12.8c0,2.3-1.8,4.1-4.1,4.1c-2.3,0-4.1-1.8-4.1-4.1l0.1-12.8H203.7z"/>
	<path class="st6" d="M211.9,125.9l-0.1,12.8c0,2.3-1.8,4.1-4.1,4.1s-4.1-1.8-4.1-4.1l0.1-12.8H211.9z"/>
	<path class="st6" d="M220.1,125.9l-0.1,12.8c0,2.3-1.8,4.1-4.1,4.1c-2.3,0-4.1-1.8-4.1-4.1l0.1-12.8H220.1z"/>
	<path class="st6" d="M228.3,125.9l-0.1,12.8c0,2.3-1.8,4.1-4.1,4.1c-2.3,0-4.1-1.8-4.1-4.1l0.1-12.8H228.3z"/>
	<path class="st7" d="M184,122.1l-21.5-3.2v20.7l21.5-3.4V122.1L184,122.1z"/>
	<path class="st5" d="M165.7,122.5l-0.1,20.8l21.6-3.3v-14.2L165.7,122.5z"/>
	<path class="st6" d="M195.4,128.7l0,8.4l-8.2,0l0-8.4L195.4,128.7z"/>
	<path class="st8" d="M256.7,169.1h13.1c2.5-2.9,6-4.8,9.8-5.6c0.6-0.1,1.4-0.2,2.3,0c2.5,0.6,4.2,3.1,3.6,5.7
		c-0.4,1.9-1.9,3.2-3.7,3.6c0,0-0.3,0.1-0.4,0.1c-3.2,0.6-5.9,3-6.6,6.4c-1,4.4,1.8,8.8,6.3,9.8c4.4,1,8.8-1.8,9.8-6.3
		c0.8-3.3-0.6-6.6-3.3-8.5c-0.1,0-0.3-0.2-0.3-0.2c-1.4-1.1-2.2-2.9-1.8-4.8c0.6-2.5,3.1-4.2,5.7-3.6c0.9,0.2,1.6,0.6,2.1,1
		c5.6,4,8.6,11.1,7,18.2c-1.1,5.4-4.6,9.6-9.1,12v4.4l-25.9,0.1"/>
	<path class="st9" d="M256.7,169.1h13.1c2.5-2.9,6-4.8,9.8-5.6c0.6-0.1,1.4-0.2,2.3,0c2.5,0.6,4.2,3.1,3.6,5.7
		c-0.4,1.9-1.9,3.2-3.7,3.6c0,0-0.3,0.1-0.4,0.1c-3.2,0.6-5.9,3-6.6,6.4c-1,4.4,1.8,8.8,6.3,9.8c4.4,1,8.8-1.8,9.8-6.3
		c0.8-3.3-0.6-6.6-3.3-8.5c-0.1,0-0.3-0.2-0.3-0.2c-1.4-1.1-2.2-2.9-1.8-4.8c0.6-2.5,3.1-4.2,5.7-3.6c0.9,0.2,1.6,0.6,2.1,1
		c5.6,4,8.6,11.1,7,18.2c-1.1,5.4-4.6,9.6-9.1,12v4.4l-25.9,0.1"/>
	<path class="st8" d="M269.7,181.3v-27.6c-0.1-2.6-2.3-4.6-4.9-4.5s-4.6,2.3-4.5,4.9v3.7"/>
	<path class="st9" d="M269.7,181.3v-27.6c-0.1-2.6-2.3-4.6-4.9-4.5s-4.6,2.3-4.5,4.9v3.7"/>
	<path class="st8" d="M264.1,181.3v-23.4c-0.1-2.6-2.3-4.6-4.9-4.5c-2.6,0.1-4.6,2.3-4.5,4.9"/>
	<path class="st9" d="M264.1,181.3v-23.4c-0.1-2.6-2.3-4.6-4.9-4.5c-2.6,0.1-4.6,2.3-4.5,4.9"/>
	<path class="st10" d="M347.9,364c0,0,22.4-75.8,5.9-108c-3.5-6.8-8.5-10.5-16.6-11.8c-13.1-2.1-25.3,6.8-27.4,19.8L297.6,324
		L347.9,364L347.9,364z M359.7,238c0-0.1,0-0.1,0-0.2c0.1-5.1,4.2-9.2,9.3-9.1c5.1,0.1,9.2,4.2,9.1,9.3c0,5.1-4.1,9.2-9.2,9.2
		C363.8,247.2,359.7,243.1,359.7,238z"/>
	<path class="st10" d="M306.3,226.9c0-17.9,14.5-32.4,32.4-32.4c17.9,0,32.4,14.5,32.4,32.4c0,17.9-14.5,32.4-32.4,32.4
		C320.8,259.3,306.3,244.8,306.3,226.9z"/>
	<path class="st11" d="M335.4,213.6c0-1.1,0.8-1.9,1.9-1.9c0,0,0.1,0,0.1,0c1.1,0,1.9,0.9,1.9,1.9c0,1.1-0.9,1.9-1.9,1.9
		C336.3,215.4,335.5,214.6,335.4,213.6z M322.8,208.4c0-1,0.9-1.9,1.9-1.9s1.9,0.9,1.9,1.9s-0.9,1.9-1.9,1.9
		S322.8,209.5,322.8,208.4z M319.3,222l1.2-3.1L334,224l-1.2,3.1c-1.4,3.7-6.7,7.5-10.4,6.1S317.9,225.7,319.3,222L319.3,222z"/>
	<path class="st8" d="M326.2,224.6c0-2.8,2.2-5,5-5s5,2.2,5,5c0,2.8-2.2,5-5,5S326.2,227.3,326.2,224.6z"/>
	<path class="st9" d="M318.2,223.9l2.3-5L334,224l-2.3,5c-1.4,3.7-5.6,5.6-9.3,4.2C318.7,231.8,316.8,227.6,318.2,223.9L318.2,223.9
		z"/>
	<path class="st10" d="M277.3,386.8H328v145.5H155.3L277.3,386.8z"/>
	<path class="st11" d="M392.6,367.2c0.8,0,1.7,0,2.7,0.1c21.7-1.1,40.1-15.1,48-36.5c1.1-2.9,8.2-25,12.3-38
		c3.8-11.9-2.8-24.5-14.6-28.3c-11.9-3.8-24.5,2.8-28.3,14.6c-4.4,13.6-10.8,33.6-11.7,36.2c-2.2,5.8-6,6.9-8,7c-1.4,0-5-0.3-7-4.4
		c-7.2-14.9-10.5-40.1-11.2-48.5c-1-12.4-11.8-21.6-24.2-20.7c-12.4,1-21.7,11.8-20.7,24.2c0.3,3.9,3.3,39.4,15.6,64.7
		C354.4,355.8,372.7,367.2,392.6,367.2L392.6,367.2z"/>
	<path class="st8" d="M194.8,392.9c0,0-71.3,65.1-76.1,69c-13.2,10.6-54.3,26.8-64.5,30.5c-33.5,12-26.3,39.8-26.3,39.8h127.5
		l122-145.5"/>
	<path class="st9" d="M194.8,392.9c0,0-71.3,65.1-76.1,69c-13.2,10.6-54.3,26.8-64.5,30.5c-33.5,12-26.3,39.8-26.3,39.8h127.5
		l122-145.5 M439.2,265.2l-7.2-2.4"/>
	<path class="st8" d="M418.4,259.4l-1.7,5.3l-3-0.9"/>
	<path class="st9" d="M418.4,259.4l-1.7,5.3l-3-0.9"/>
	<path class="st8" d="M419.5,256.7c0.9-2.7-0.3-5.7-2.9-6.9c-3.1-1.3-6.4,0.3-7.4,3.3l-2.8,8.4c-1.7,5.3,1.1,10.9,6.4,12.6l3,1
		l-1.6,4.7l39.4,12.8l9.6-29.8"/>
	<path class="st8" d="M419.5,256.7c0.9-2.7-0.3-5.7-2.9-6.9c-3.1-1.3-6.4,0.3-7.4,3.3l-2.8,8.4c-1.7,5.3,1.1,10.9,6.4,12.6l3,1
		l-1.6,4.7l39.4,12.8l9.6-29.8"/>
	<path class="st9" d="M419.5,256.7c0.9-2.7-0.3-5.7-2.9-6.9c-3.1-1.3-6.4,0.3-7.4,3.3l-2.8,8.4c-1.7,5.3,1.1,10.9,6.4,12.6l3,1
		l-1.6,4.7l39.4,12.8l9.6-29.8"/>
	<path class="st10" d="M423.8,243.3l10.4,3.4l-5.3,16.1c-0.9,2.9-4,4.4-6.9,3.5c-2.9-0.9-4.4-4-3.5-6.9L423.8,243.3L423.8,243.3z"/>
	<path class="st10" d="M434.2,246.7l10.4,3.4l-5.3,16.1c-0.9,2.9-4,4.4-6.9,3.5c-2.9-0.9-4.4-4-3.5-6.9L434.2,246.7L434.2,246.7z"/>
	<path class="st10" d="M444.5,250.1l10.4,3.4l-5.3,16.1c-0.9,2.9-4,4.4-6.9,3.5c-2.9-0.9-4.4-4-3.5-6.9L444.5,250.1L444.5,250.1z"/>
	<path class="st10" d="M454.9,253.4l10.4,3.4l-5.3,16.1c-0.9,2.9-4,4.4-6.9,3.5c-2.9-0.9-4.4-4-3.5-6.9L454.9,253.4L454.9,253.4z"/>
	<path class="st12" d="M413.4,238.5l-25.8-12.8l-8.5,26.2l28.5,4.5L413.4,238.5L413.4,238.5z"/>
	<path class="st9" d="M412.5,242.1l-25.8-12.9l-8.6,26.1l28.5,4.7L412.5,242.1L412.5,242.1z"/>
	<path class="st10" d="M411.2,245.7l7.8,2.6l-3.5,10.6l-7.8-2.6L411.2,245.7L411.2,245.7z"/>
	<path class="st8" d="M277.5,386.7c0,0,34.1,0.3,39.9,0c5.8-0.3,11.4,0,17.8-4.3c10.4-7,12.8-18.3,12.8-18.3
		c-15.6-20-88.1-81.1-130.8-60c-45.5,22.4-20.6,95-20,97.1c3.6,13.2-11,29.6-11,54.3c0,19.3,11.2,26.2,11.2,26.2l80-95l-34-29.4"/>
	<path class="st9" d="M277.5,388.7c0,0,34.1,0.3,39.9,0c5.8-0.3,11.4,0,17.8-4.3c10.4-7,12.8-18.3,12.8-18.3
		c-15.6-20-88.1-81.1-130.8-60c-45.5,22.4-20.6,95-20,97.1c3.6,13.2-11,29.6-11,54.3c0,19.3,11.2,26.2,11.2,26.2l80-95l-34-29.4"/>
	<path class="st4" d="M258.7,181.4v-19c-0.1-2.6-2.3-4.6-4.9-4.5c-2.6,0.1-4.6,2.3-4.5,4.9v38.7l28.5-0.1"/>
	<path class="st9" d="M258.7,181.4v-19c-0.1-2.6-2.3-4.6-4.9-4.5c-2.6,0.1-4.6,2.3-4.5,4.9v38.7l28.5-0.1 M461.2,269.2l11.4,3.7
		c19.7,6.5,40-8.2,40-29c0-16.8-13.6-30.5-30.5-30.5h-72.9"/>
	<path class="st9" d="M467.4,81.1c-27.2-6.2-19.3-27.3-19.3-27.3l1.5-3.7h19.2c6.6,0,29.7,0,30,26.7c0.2,9,6.4,10.6,13,11
		c1.6,0.2,0.6,0.1,4.4,0.2c42.7,1.9,75.7,40.2,75.7,83.9c0,46.4-40.3,84-86.7,84c-30.9,0-59.3-16.8-73.9-41.7"/>
	<path class="st6" d="M89.4,198l25-50.3c3.8-10.1,15.2-15.2,25.3-11.4c6.3,2.4,9.7,6.2,11.4,12.3c4.9,17.7-5,46.5-13.2,65.7
		C120.1,213.6,103.4,207.6,89.4,198z"/>
	<path class="st13" d="M120.5,153c0,0-1.9,5.1-11.4,22.1s-32.5,8-32.5,0v-32.6"/>
	<path class="st5" d="M117.9,122.4c0,0.9-0.1,1.8,0,2.8"/>
	<path class="st14" d="M128.7,122.9c0-0.2,0.2-0.4,0.4-0.4l0,0c0.2,0,0.4,0.2,0.4,0.4c0,0.2-0.2,0.4-0.4,0.4
		S128.7,123.1,128.7,122.9z M130.5,124.9c0-0.2,0.2-0.4,0.4-0.4s0.4,0.2,0.4,0.4s-0.2,0.4-0.4,0.4S130.5,125.1,130.5,124.9z
		 M124.9,122.9c0-0.2,0.2-0.4,0.4-0.4l0,0c0.2,0,0.4,0.2,0.4,0.4c0,0.2-0.2,0.4-0.4,0.4S124.9,123.1,124.9,122.9z M128.7,126.8
		c0-0.2,0.2-0.4,0.4-0.4l0,0c0.2,0,0.4,0.2,0.4,0.4c0,0.2-0.2,0.4-0.4,0.4S128.7,127,128.7,126.8z M126.8,124.8
		c0-0.2,0.2-0.4,0.4-0.4s0.4,0.2,0.4,0.4c0,0.2-0.2,0.4-0.4,0.4S126.8,125,126.8,124.8z"/>
	<path d="M150.3,120.9l-9.1,2.3l0.6,2.3c0.7,2.9,3.3,4.6,5.8,4c2.5-0.6,4-3.4,3.3-6.2L150.3,120.9z"/>
	<path class="st4" d="M141.3,127.3c0-1.8,1.4-3.2,3.1-3.3c0,0,0.1,0,0.1,0c1.8,0,3.2,1.5,3.1,3.3s-1.5,3.2-3.3,3.1
		C142.7,130.4,141.4,129,141.3,127.3z"/>
	<path class="st5" d="M151.2,123.7l-0.9-2.8l-9.1,2.3l0.9,2.8c0.6,2.5,3.2,4,5.7,3.4C150.3,128.8,151.8,126.2,151.2,123.7
		L151.2,123.7z"/>
	<path class="st6" d="M108.9,120.4c0-3.4,2.8-6.2,6.2-6.2c3.4,0,6.2,2.8,6.2,6.2s-2.8,6.2-6.2,6.2
		C111.7,126.6,108.9,123.8,108.9,120.4z"/>
	<path class="st6" d="M115.1,120.9c0-12,9.8-21.8,21.8-21.8c12,0,21.8,9.8,21.8,21.8c0,12-9.8,21.8-21.8,21.8
		C124.8,142.7,115.1,132.9,115.1,120.9z"/>
	<path class="st5" d="M129.6,100.5c1.1-4.7,5.3-8.5,11.3-8.9c1-3.5,4.5-5.9,8.3-5.2c2.7,0.5,4.9,2.6,5.6,5.2c0.3,1,0.4,2.1,0.2,3
		c-0.1,0.1,0.1,0.2,0.2,0.1c0.9-1.3,2.5-2.1,4.2-2c2.8,0.2,4.8,2.8,4.2,5.7c-0.3,1.5-1.5,2.8-3,3.3c-0.7,0.2-1.4,0.3-2.1,0.2
		c-0.1,0-0.2,0.2-0.1,0.3c1.4,1,2.1,2.8,1.8,4.6c-0.4,2.2-2.4,3.8-4.6,3.8c-2.3,0-4.3-1.7-4.6-4"/>
	<path class="st15" d="M127.9,123c0-0.2,0.2-0.4,0.4-0.4s0.4,0.2,0.4,0.4c0,0.2-0.2,0.4-0.4,0.4S127.9,123.2,127.9,123z M129.9,125
		c0-0.2,0.2-0.4,0.4-0.4l0,0c0.2,0,0.4,0.2,0.4,0.4c0,0.2-0.2,0.4-0.4,0.4S129.9,125.2,129.9,125z M124,123c0-0.2,0.2-0.4,0.4-0.4
		l0,0c0.2,0,0.4,0.2,0.4,0.4c0,0.2-0.2,0.4-0.4,0.4S124,123.2,124,123z M127.9,127.1c0-0.2,0.2-0.4,0.4-0.4s0.4,0.2,0.4,0.4
		c0,0.2-0.2,0.4-0.4,0.4S127.9,127.3,127.9,127.1z M125.9,125c0-0.2,0.2-0.4,0.4-0.4s0.4,0.2,0.4,0.4c0,0.2-0.2,0.4-0.4,0.4
		S125.9,125.2,125.9,125z"/>
	<path class="st5" d="M139.9,115.8C139.9,115.8,139.9,115.8,139.9,115.8c0,1.5-1.2,2.7-2.7,2.7c0,0,0,0,0,0c-1.5,0-2.7-1.2-2.7-2.7
		 M153.4,115.8C153.4,115.8,153.4,115.8,153.4,115.8c0,1.5-1.2,2.7-2.7,2.7c0,0,0,0,0,0c-1.5,0-2.7-1.2-2.7-2.7"/>
	<path d="M149.6,127.9l-0.1-3.4h-9.7v3.4c0,2.7,2.2,4.9,4.9,4.9C147.4,132.8,149.6,130.6,149.6,127.9L149.6,127.9z"/>
	<path class="st4" d="M142.9,130.9c-1.9,0-3.4-1.5-3.4-3.4c0-1.9,1.5-3.4,3.4-3.4s3.4,1.5,3.4,3.4
		C146.3,129.4,144.7,130.9,142.9,130.9L142.9,130.9z"/>
	<path class="st5" d="M149.6,128.9l-0.1-3.7h-9.7v3.7c0,2.7,2.2,4.9,4.9,4.9C147.4,133.8,149.6,131.6,149.6,128.9L149.6,128.9z"/>
	<path class="st4" d="M60,112.6v29.2l33-0.3v-7.2l9.1-0.1c2.3,0,4.1-1.8,4.1-4.1c0-2.3-1.8-4.1-4.1-4.1l-9.1,0.1l-0.1-25
		c0-2.3-1.8-4.1-4.1-4.1c-2.3,0-4.1,1.8-4.1,4.1v21.3"/>
	<path class="st5" d="M60,112.6v29.2l33-0.3v-7.2l9.1-0.1c2.3,0,4.1-1.8,4.1-4.1c0-2.3-1.8-4.1-4.1-4.1l-9.1,0.1l-0.1-25
		c0-2.3-1.8-4.1-4.1-4.1c-2.3,0-4.1,1.8-4.1,4.1v21.3"/>
	<path class="st4" d="M76.6,122.5c0,2.3,1.8,4.1,4.1,4.1c2.3,0,4.1-1.8,4.1-4.1v-10.1L60,112.5v10.1c0,2.3,1.8,4.1,4.1,4.1
		c2.3,0,4.1-1.8,4.1-4.1v-10.1v10.1c0,2.3,1.8,4.1,4.1,4.1c2.3,0,4.1-1.8,4.1-4.1v-10.1"/>
	<path class="st5" d="M76.6,122.5c0,2.3,1.8,4.1,4.1,4.1c2.3,0,4.1-1.8,4.1-4.1v-10.1L60,112.5v10.1c0,2.3,1.8,4.1,4.1,4.1
		c2.3,0,4.1-1.8,4.1-4.1v-10.1v10.1c0,2.3,1.8,4.1,4.1,4.1c2.3,0,4.1-1.8,4.1-4.1v-10.1"/>
	<circle class="st16" cx="473.8" cy="10.7" r="64.2"/>
	<path class="st17" d="M185,58.5h21.1 M190.3,64.9h13.2 M195.6,70.8h5.3"/>
	<path class="st18" d="M243.9,60.7l-4.4-4.4c-0.3-0.3-0.3-0.7,0-1c0,0,0,0,0,0l1.7-1.7c0.3-0.3,0.7-0.3,1,0c0,0,0,0,0,0l4.4,4.4
		c0.3,0.3,0.3,0.8,0,1.1l-1.7,1.7C244.7,61,244.3,61,243.9,60.7z M238.5,61.7l3.2-3.3 M225,95.8c10.8,0,19.6-8.8,19.6-19.7
		c0-10.9-8.8-19.7-19.6-19.7c-10.8,0-19.6,8.8-19.6,19.7C205.4,86.9,214.2,95.8,225,95.8z"/>
	<path class="st19" d="M222.8,56.5v-4.7c0-0.4,0.4-0.8,0.8-0.8h3c0.5,0,0.8,0.4,0.8,0.8v4.7"/>
	<path class="st20" d="M225,60.9v12.9 M225,78.3c1.3,0,2.3-1,2.3-2.3c0,0,0,0,0,0c0-1.3-1-2.3-2.3-2.3c0,0,0,0,0,0
		c-1.3,0-2.3,1-2.3,2.3c0,0,0,0,0,0C222.8,77.3,223.8,78.3,225,78.3C225,78.3,225,78.3,225,78.3z M224.9,78.3v4.5"/>
	<path class="st21" d="M540.7,12.6l-93.8-0.1l0,55.6l93.8,0.1C540.7,68.2,540.7,12.6,540.7,12.6z"/>
	<path class="st22" d="M467.9,37.9c2.1,1.2,4.7,0.5,5.9-1.5c1.2-2.1,0.5-4.7-1.6-5.9c-2.1-1.2-4.7-0.5-5.9,1.5
		C465.2,34.1,465.9,36.7,467.9,37.9z M480.8,51.4c0-5.9-4.8-10.7-10.7-10.7c-5.9,0-10.7,4.8-10.6,10.6l0,5.1l21.3,0L480.8,51.4z
		 M488.1,31.2l40.6,0.1 M488.1,35.9l40.6,0 M488.1,40.4l20.3,0.1"/>
	<path class="st21" d="M536-56.2c-5.4-6.5-12.2-7.6-14.1-6.9c-2.6,0.9-2.7,3.2-2.9,4.7c-0.2,1.5-1.3,10.3-1.5,11.7
		c-0.2,1.4,0.3,4.2,3.8,4.9c3.4,0.7,15.8,3.2,10.6,16.3s-15.5,8.4-18.7,7c-3.2-1.4-5.4,0.6-6.1,1.8c-0.7,1.2-5.3,8.9-6.1,10.3
		c-0.7,1.3-2.1,3.3-0.6,5.5c1.1,1.6,7.3,4.5,15.6,2.5c8.3-1.9,18.4-6.5,24.6-24.2C546.7-40.2,539.2-52.3,536-56.2L536-56.2z"/>
</g>
<g id="Ebene_3">
	<path class="st6" d="M468.4,94.7c3.9,0,7-3.1,7-7c0-3.8-3.1-7-7-7c-3.9,0-7,3.1-7,7C461.5,91.6,464.6,94.7,468.4,94.7L468.4,94.7z"
		/>
	<path d="M311.6,133.8v-7.2c0-11,9-20,20-20c11.1,0,20,9,20,20v7.2c0,12.1,9.9,22.1,22.1,22.1c12.2,0,22.1-9.9,22.1-22.1
		c0-11,9-20,20-20c11.1,0,20,9,20,20c0,34.2-27.9,62.1-62.2,62.1C339.6,195.9,311.6,168.1,311.6,133.8z"/>
	<path class="st4" d="M385.8,212.6L432,238l-52.5,95.5c0,0-11.2-9.8-12.9-18.9c-1-5.1-0.1-13.7-0.4-22.6c-0.3-10-4.4-19.5-11.4-26.7
		c-16.6-17-55.2-62.5-26.8-89.3c33.5-31.5,72.1-2.4,75-8.9c1.6-3.6-0.2-37.4,1.6-44.3c3.6-13.4,15.6-23.4,30.1-23.4
		c17.1,0,30.9,13.8,30.9,30.9l2.9,5v66.1c0,20.1-16.3,36.4-36.5,36.4l-85.1,154.9l-95.6-52.4c0,0,9.8-11.2,18.9-12.9
		c9.1-1.8,29.5,2.4,42.5-4.9c4.1-2.3,35.2-37.8,47.1-50.7"/>
	<path class="st5" d="M385.8,212.6L432,238l-52.5,95.5c0,0-11.2-9.8-12.9-18.9c-1-5.1-0.1-13.7-0.4-22.6c-0.3-10-4.4-19.5-11.4-26.7
		c-16.6-17-55.2-62.5-26.8-89.3c33.5-31.5,72.1-2.4,75-8.9c1.6-3.6-0.2-37.4,1.6-44.3c3.6-13.4,15.6-23.4,30.1-23.4
		c17.1,0,30.9,13.8,30.9,30.9l2.9,5v66.1c0,20.1-16.3,36.4-36.5,36.4l-85.1,154.9l-95.6-52.4c0,0,9.8-11.2,18.9-12.9
		c9.1-1.8,29.5,2.4,42.5-4.9c4.1-2.3,35.2-37.8,47.1-50.7 M333.2,116.8l6.6-0.1 M465.8,83.4c0.1,1.1,0.1,2.2,0.1,3.3"/>
	<path class="st6" d="M467.7,81.8c0-13.5-10.9-24.4-24.4-24.4c-13.5,0-24.4,10.9-24.4,24.4s10.9,24.4,24.4,24.4
		C456.8,106.2,467.7,95.3,467.7,81.8z"/>
	<path class="st9" d="M462.2,66c2.5-5.8,1.1-13-4.9-18.2c1.8-4.4,0-9.7-4.6-12c-3.3-1.6-7.2-1.2-10.1,1c-1.2,0.8-2,2-2.6,3
		c-0.2,0.2-0.4,0.1-0.4-0.1c0.1-2.1-0.9-4.2-2.8-5.4c-3.1-2-7.3-0.9-8.9,2.7c-0.9,1.9-0.6,4.1,0.6,5.9c0.6,0.9,1.3,1.4,2.1,1.9
		c0.2,0.2,0.1,0.4-0.1,0.4c-2.3,0-4.5,1.3-5.5,3.4c-1.3,2.5-0.5,5.9,1.8,7.6c2.5,2,5.9,1.6,8-0.5"/>
	<path class="st14" d="M453.3,84.2c0-0.2-0.2-0.4-0.4-0.4c0,0,0,0,0,0c-0.2,0-0.4,0.2-0.4,0.4c0,0.2,0.2,0.4,0.4,0.4
		C453.1,84.6,453.3,84.5,453.3,84.2z M450.7,86.9c0.2,0,0.4-0.2,0.4-0.4c0-0.2-0.2-0.4-0.4-0.4c0,0,0,0,0,0c-0.2,0-0.4,0.2-0.4,0.4
		C450.3,86.7,450.5,86.9,450.7,86.9L450.7,86.9z M457.3,84.6c0.2,0,0.4-0.2,0.4-0.5c0-0.2-0.2-0.4-0.5-0.4c-0.2,0-0.4,0.2-0.4,0.4
		S457,84.6,457.3,84.6C457.3,84.6,457.3,84.6,457.3,84.6z M453.3,88.6c0-0.2-0.2-0.4-0.4-0.4c0,0,0,0,0,0c-0.2,0-0.4,0.2-0.4,0.4
		c0,0.2,0.2,0.4,0.4,0.4C453.1,89.1,453.3,88.9,453.3,88.6z M455.6,86.4c0-0.2-0.2-0.4-0.4-0.4c0,0,0,0,0,0c-0.2,0-0.4,0.2-0.4,0.4
		c0,0.2,0.2,0.4,0.4,0.4C455.4,86.8,455.6,86.6,455.6,86.4z"/>
	<path d="M427.5,84.5l0.6-2.7l10.6,2.7l-0.7,2.7c-0.8,3.3-3.9,5.3-6.8,4.6C428.4,91,426.7,87.8,427.5,84.5L427.5,84.5z"/>
	<path class="st4" d="M438.8,89.2c0-2.1-1.7-3.8-3.8-3.8c0,0,0,0,0,0c-2.1,0-3.8,1.7-3.8,3.8c0,0,0,0,0,0c0,2.1,1.7,3.8,3.8,3.8
		C437.1,92.9,438.8,91.3,438.8,89.2z"/>
	<path class="st5" d="M428.1,81.8l10.6,2.7l-1,3.3c-0.7,2.9-3.7,4.7-6.6,3.9c-2.9-0.7-4.7-3.7-3.9-6.6L428.1,81.8z"/>
	<path d="M436.8,209.6c-24.5,0-44.5-19.9-44.5-44.4v-27.4c0-11,9-20,20-20c11.1,0,20,9,20,20v27.4c0,2.4,2,4.4,4.4,4.4
		c2.4,0,4.4-1.9,4.4-4.4v-48.8c0-11,9-20,20-20c11.1,0,20,9,20,20v48.8C481.2,189.7,461.3,209.6,436.8,209.6L436.8,209.6z"/>
	<path class="st4" d="M402.9,104.6C402.9,104.6,402.9,104.6,402.9,104.6c0-2.6-2.1-4.8-4.8-4.7c0,0,0,0,0,0c-2.6,0-4.7,2.1-4.7,4.7
		l0.1,33.5l38-0.3v-8.2l10.5-0.1c2.7,0,4.8-2.1,4.8-4.7c0,0,0,0,0,0c0-2.6-2.1-4.7-4.7-4.7l-10.5,0.1l-0.1-25.6c0,0,0,0,0,0
		c0-2.6-2.1-4.7-4.7-4.7c0,0,0,0,0,0c-2.6,0-4.7,2.1-4.7,4.7l0.1,25.8l-0.1-25.9c0-2.7-2.1-4.7-4.8-4.7c0,0,0,0,0,0
		c-2.6,0-4.7,2.1-4.7,4.7l0.1,25.8l-0.1-25.9c0,0,0,0,0,0c0-2.6-2.1-4.7-4.7-4.7c0,0,0,0,0,0c-2.6,0-4.7,2.1-4.7,4.7l0.1,25.8"/>
	<path class="st5" d="M402.9,104.6C402.9,104.6,402.9,104.6,402.9,104.6c0-2.6-2.1-4.8-4.8-4.7c0,0,0,0,0,0c-2.6,0-4.7,2.1-4.7,4.7
		l0.1,33.5l38-0.3v-8.2l10.5-0.1c2.7,0,4.8-2.1,4.8-4.7c0,0,0,0,0,0c0-2.6-2.1-4.7-4.7-4.7l-10.5,0.1l-0.1-25.6c0,0,0,0,0,0
		c0-2.6-2.1-4.7-4.7-4.7c0,0,0,0,0,0c-2.6,0-4.7,2.1-4.7,4.7l0.1,25.8l-0.1-25.9c0-2.7-2.1-4.7-4.8-4.7c0,0,0,0,0,0
		c-2.6,0-4.7,2.1-4.7,4.7l0.1,25.8l-0.1-25.9c0,0,0,0,0,0c0-2.6-2.1-4.7-4.7-4.7c0,0,0,0,0,0c-2.6,0-4.7,2.1-4.7,4.7l0.1,25.8"/>
	<path class="st4" d="M350.8,117.5l0.1,4.9h2.7"/>
	<path class="st5" d="M350.8,117.5l0.1,4.9h2.7"/>
	<path class="st4" d="M350.8,115.3c-0.1-2.5,1.8-4.7,4.2-5c2.9-0.3,5.3,1.9,5.3,4.7l0.1,7.7c0,4.7-3.9,8.7-8.7,8.7h-0.9l0.1,4.3h-38
		v-27.3"/>
	<path class="st5" d="M350.8,115.3c-0.1-2.5,1.8-4.7,4.2-5c2.9-0.3,5.3,1.9,5.3,4.7l0.1,7.7c0,4.7-3.9,8.7-8.7,8.7h-0.9l0.1,4.3h-38
		v-27.3"/>
	<path class="st6" d="M341.3,102.7l0.1,14.8c0,0,0,0,0,0c0,2.6,2.1,4.7,4.7,4.7c0,0,0,0,0,0c2.6,0,4.7-2.1,4.7-4.7l-0.1-14.8H341.3z
		"/>
	<path class="st6" d="M331.8,102.8l0.1,14.8c0,0,0,0,0,0c0,2.6,2.1,4.7,4.7,4.7c0,0,0,0,0,0c2.6,0,4.7-2.1,4.7-4.7l-0.1-14.8H331.8z
		"/>
	<path class="st6" d="M322.3,102.8l0.1,14.8c0,2.7,2.1,4.7,4.8,4.7c0,0,0,0,0,0c2.6,0,4.7-2.1,4.7-4.7l-0.1-14.8H322.3z"/>
	<path class="st6" d="M312.8,102.8l0.1,14.8c0,0,0,0,0,0c0,2.6,2.1,4.7,4.7,4.7c0,0,0,0,0,0c2.6,0,4.7-2.1,4.7-4.7l-0.1-14.8H312.8z
		"/>
	<path class="st7" d="M389.1,96.6v24.1l-25-3.9v-16.4L389.1,96.6z"/>
	<path class="st5" d="M360.3,104.7l24.9-3.9l0.1,24.1l-25-3.8L360.3,104.7L360.3,104.7z"/>
	<path class="st6" d="M350.8,108.1l0,9.8l9.5,0l0-9.8C360.3,108,350.8,108.1,350.8,108.1z"/>
	<path class="st6" d="M432,238L293.5,490h183.9V238H432L432,238z"/>
	<path d="M442.6,77.8c1.1,0,2-0.9,2-2c0-1.1-0.9-2-2-2c-1.1,0-2,0.9-2,2C440.6,76.9,441.5,77.8,442.6,77.8L442.6,77.8z M433.6,72.9
		c0-1.1-0.8-2-1.9-2c0,0-0.1,0-0.1,0c-1.1,0-2,0.9-1.9,2c0,1.1,0.9,2,2,1.9C432.7,74.8,433.5,74,433.6,72.9z"/>
	<path class="st5" d="M467,80.5c-27.2-6.2-21.2-27.7-21.2-27.7l1.5-3.7h19.2c6.6,0,29.7,0,30,26.7c0.2,9,6.4,10.6,13,11
		c1.6,0.2,0.6,0.1,4.4,0.2c42.7,1.9,75.7,40.2,75.7,83.9c0,46.4-40.3,84-86.7,84c-8.4,0-16.7-1.3-24.6-3.6"/>
	<path class="st5" d="M312.8,113.9c0,0,0,0-14.4,0c-16.8,0-16.7,12-16.7,12s0,63.1,0,76.5c0,12.1-12.3,12.1-12.3,12.1H97.8
		c-64.5,0-113.9-65.2-85.6-133.4c8.6-20.7,25.2-37.3,45.9-45.9c68.1-28.3,133.4,21,133.4,85.6c0,4-0.2,8.1-0.6,12h-7.3"/>
</g>
<g id="Ebene_2">
	<path class="st4" d="M32.9,82.6V12.9h95v69.8"/>
	<path class="st23" d="M32.9,82.6V12.9h95v69.8"/>
	<path class="st24" d="M76.5,45.2H44v4h32.5C76.5,49.3,76.5,45.2,76.5,45.2z M76.5,51.7H44v4h32.5V51.7z M76.5,58.1H44v4h32.5V58.1z
		"/>
	<path class="st7" d="M40,48.6c0.7,0,1.3-0.6,1.3-1.3c0-0.7-0.6-1.3-1.3-1.3c-0.7,0-1.3,0.6-1.3,1.3c0,0,0,0,0,0
		C38.6,48,39.2,48.6,40,48.6L40,48.6z M40,55.1c0.7,0,1.3-0.6,1.3-1.3c0-0.7-0.6-1.3-1.3-1.3c0,0,0,0,0,0c-0.7,0-1.3,0.6-1.3,1.3
		c0,0,0,0,0,0C38.6,54.5,39.2,55.1,40,55.1L40,55.1z M40,61.4c0.7,0,1.3-0.6,1.3-1.3c0-0.7-0.6-1.3-1.3-1.3c-0.7,0-1.3,0.6-1.3,1.3
		c0,0,0,0,0,0C38.6,60.9,39.2,61.4,40,61.4L40,61.4z"/>
	<path class="st4" d="M113.8,82.6V49.1h5.2v33.5"/>
	<path class="st23" d="M113.8,82.6V49.1h5.2v33.5"/>
	<path class="st4" d="M103.3,82.6V57h5.2v25.5"/>
	<path class="st23" d="M103.3,82.6V57h5.2v25.5"/>
	<path class="st4" d="M92.9,82.6V65h5.2v17.5"/>
	<path class="st23" d="M92.9,82.6V65h5.2v17.5"/>
	<path class="st4" d="M82.5,82.6V73h5.2v9.6"/>
	<path class="st23" d="M82.5,82.6V73h5.2v9.6 M120.3,82.6H81.2"/>
	<path class="st7" d="M74.3,0v17.8H92C92,8,84.1,0,74.3,0L74.3,0z"/>
	<path class="st25" d="M68.8,5.5c-9.8,0-17.7,8-17.7,17.8S59,41.2,68.8,41.2c4.9,0,9.3-2,12.5-5.2L68.8,23.3V5.5L68.8,5.5z M77,23.3
		l11.3,10.9c2.4-3.1,3.7-7,3.7-10.9H77L77,23.3z"/>
	<path class="st26" d="M67.8,82.6L119.2,33"/>
	<path class="st7" d="M120,42.6l-1.8-0.1l0.5-8.9l-8.9,0.1l0-1.8l10.8-0.2C120.6,31.7,120,42.6,120,42.6z"/>
	<path class="st23" d="M31.4,82.6h98"/>
</g>
</svg>
