<?xml version="1.0" encoding="utf-8"?>
<!-- Generator: Adobe Illustrator 23.0.2, SVG Export Plug-In . SVG Version: 6.00 Build 0)  -->
<svg version="1.1" xmlns="http://www.w3.org/2000/svg" xmlns:xlink="http://www.w3.org/1999/xlink" x="0px" y="0px"
	 viewBox="0 0 544.9 576.9" style="enable-background:new 0 0 544.9 576.9;" xml:space="preserve">
<style type="text/css">
	.st0{fill:none;}
	.st1{fill:none;stroke:#1D1D1B;stroke-width:0.3;}
	.st2{fill:url(#Schraffur_doppelt);}
	.st3{fill:none;stroke:#000000;stroke-width:45;stroke-miterlimit:10;}
	.st4{fill:#FFFFFF;}
	.st5{fill:none;stroke:#000000;stroke-width:3;stroke-miterlimit:10;}
	.st6{fill:#FFFFFF;stroke:#000000;stroke-width:3;stroke-miterlimit:10;}
	.st7{fill:#86ED18;}
	.st8{fill:none;stroke:#000000;stroke-width:36;stroke-linecap:round;stroke-miterlimit:10;}
	.st9{stroke:#000000;stroke-width:1.5;stroke-miterlimit:10;}
	.st10{stroke:#000000;stroke-width:0.75;stroke-miterlimit:10;}
	.st11{display:none;fill:none;stroke:#86ED18;stroke-width:6;}
	.st12{fill:none;stroke:#202020;stroke-width:2;stroke-miterlimit:10;}
	.st13{fill:#FFFFFF;stroke:#202020;stroke-width:2;stroke-linecap:round;stroke-miterlimit:10;}
	.st14{fill:none;stroke:#202020;stroke-width:2;stroke-linecap:round;stroke-miterlimit:10;}
	.st15{fill:none;stroke:#86ED18;stroke-width:2;stroke-linecap:round;stroke-miterlimit:10;}
	.st16{display:none;fill:#FFFFFF;stroke:#000000;stroke-width:2;stroke-miterlimit:10;}
	.st17{display:none;fill:none;stroke:#000000;stroke-width:2;stroke-miterlimit:10;}
	.st18{fill:none;stroke:#202020;stroke-width:3;stroke-miterlimit:10;}
	.st19{fill:#202020;stroke:#FFFFFF;stroke-width:2;stroke-miterlimit:10;}
	.st20{fill:#FFFFFF;stroke:#202020;stroke-width:3;stroke-miterlimit:10;}
	.st21{fill:none;stroke:#86ED18;stroke-width:3;stroke-miterlimit:10;}
</style>
<pattern  x="-46.4" y="663.4" width="72" height="72" patternUnits="userSpaceOnUse" id="Schraffur_doppelt" viewBox="4.1 -78.2 72 72" style="overflow:visible;">
	<g>
		<rect x="4.1" y="-78.2" class="st0" width="72" height="72"/>
		<g>
			<line class="st1" x1="67.8" y1="-1.5" x2="71.3" y2="-7.6"/>
			<line class="st1" x1="69.6" y1="-8.6" x2="66.1" y2="-2.5"/>
			<line class="st1" x1="53.1" y1="-0.7" x2="50.8" y2="-7.3"/>
			<line class="st1" x1="48.9" y1="-6.6" x2="51.3" y2="-0.1"/>
			<line class="st1" x1="40.6" y1="-2.4" x2="42.3" y2="-9.2"/>
			<line class="st1" x1="40.4" y1="-9.7" x2="38.6" y2="-2.9"/>
			<line class="st1" x1="19" y1="-2.9" x2="20.9" y2="-9.7"/>
			<line class="st1" x1="19" y1="-10.2" x2="17.1" y2="-3.5"/>
			<line class="st1" x1="12.9" y1="-3.3" x2="10.9" y2="-10"/>
			<line class="st1" x1="9" y1="-9.4" x2="11" y2="-2.7"/>
			<line class="st1" x1="55.2" y1="-8.9" x2="59.6" y2="-3.5"/>
			<line class="st1" x1="61.1" y1="-4.8" x2="56.7" y2="-10.2"/>
		</g>
		<g>
			<line class="st1" x1="75.9" y1="-51.9" x2="82.4" y2="-54.5"/>
		</g>
		<g>
			<line class="st1" x1="3.9" y1="-51.9" x2="10.4" y2="-54.5"/>
			<line class="st1" x1="8.3" y1="-38.1" x2="5.8" y2="-31.6"/>
			<line class="st1" x1="7.6" y1="-30.8" x2="10.2" y2="-37.4"/>
			<line class="st1" x1="73.4" y1="-72.6" x2="79.5" y2="-69.3"/>
			<line class="st1" x1="80.5" y1="-71" x2="74.3" y2="-74.3"/>
			<line class="st1" x1="73.4" y1="-58.1" x2="78.7" y2="-62.7"/>
			<line class="st1" x1="77.4" y1="-64.2" x2="72.1" y2="-59.7"/>
			<line class="st1" x1="75.9" y1="-51.9" x2="82.4" y2="-54.5"/>
			<line class="st1" x1="81.7" y1="-56.3" x2="75.1" y2="-53.8"/>
			<line class="st1" x1="73.1" y1="-43.3" x2="79.9" y2="-41.8"/>
			<line class="st1" x1="80.3" y1="-43.7" x2="73.5" y2="-45.3"/>
			<line class="st1" x1="73.1" y1="-22" x2="79.9" y2="-20.2"/>
			<line class="st1" x1="80.4" y1="-22.2" x2="73.6" y2="-23.9"/>
			<line class="st1" x1="74.1" y1="-12" x2="80.8" y2="-14.2"/>
			<line class="st1" x1="80.2" y1="-16.1" x2="73.5" y2="-13.9"/>
			<line class="st1" x1="67.8" y1="-73.5" x2="71.3" y2="-79.6"/>
			<line class="st1" x1="69.6" y1="-80.6" x2="66.1" y2="-74.5"/>
			<line class="st1" x1="53.1" y1="-72.7" x2="50.8" y2="-79.3"/>
			<line class="st1" x1="48.9" y1="-78.6" x2="51.3" y2="-72.1"/>
			<line class="st1" x1="40.6" y1="-74.4" x2="42.3" y2="-81.2"/>
			<line class="st1" x1="40.4" y1="-81.7" x2="38.6" y2="-74.9"/>
			<line class="st1" x1="34.9" y1="-74.5" x2="28.5" y2="-77.3"/>
			<line class="st1" x1="27.7" y1="-75.4" x2="34.1" y2="-72.7"/>
			<line class="st1" x1="19" y1="-74.9" x2="20.9" y2="-81.7"/>
			<line class="st1" x1="19" y1="-82.2" x2="17.1" y2="-75.5"/>
			<line class="st1" x1="12.9" y1="-75.3" x2="10.9" y2="-82"/>
			<line class="st1" x1="9" y1="-81.4" x2="11" y2="-74.7"/>
			<line class="st1" x1="69.6" y1="-8.6" x2="66.1" y2="-2.5"/>
			<line class="st1" x1="67.8" y1="-1.5" x2="71.3" y2="-7.6"/>
			<line class="st1" x1="55.2" y1="-8.9" x2="59.6" y2="-3.5"/>
			<line class="st1" x1="61.1" y1="-4.8" x2="56.7" y2="-10.2"/>
			<line class="st1" x1="48.9" y1="-6.6" x2="51.3" y2="-0.1"/>
			<line class="st1" x1="53.1" y1="-0.7" x2="50.8" y2="-7.3"/>
			<line class="st1" x1="40.4" y1="-9.7" x2="38.6" y2="-2.9"/>
			<line class="st1" x1="40.6" y1="-2.4" x2="42.3" y2="-9.2"/>
			<line class="st1" x1="19" y1="-10.2" x2="17.1" y2="-3.5"/>
			<line class="st1" x1="19" y1="-2.9" x2="20.9" y2="-9.7"/>
			<line class="st1" x1="9" y1="-9.4" x2="11" y2="-2.7"/>
			<line class="st1" x1="12.9" y1="-3.3" x2="10.9" y2="-10"/>
			<line class="st1" x1="22.6" y1="-31.1" x2="19.1" y2="-25"/>
			<line class="st1" x1="20.8" y1="-24" x2="24.3" y2="-30.1"/>
			<line class="st1" x1="52.6" y1="-63.3" x2="48.2" y2="-68.7"/>
			<line class="st1" x1="46.7" y1="-67.4" x2="51.1" y2="-62"/>
			<line class="st1" x1="40.4" y1="-65.1" x2="42.8" y2="-58.6"/>
			<line class="st1" x1="44.6" y1="-59.2" x2="42.3" y2="-65.8"/>
			<line class="st1" x1="66.9" y1="-17" x2="60.5" y2="-19.8"/>
			<line class="st1" x1="59.7" y1="-17.9" x2="66.1" y2="-15.2"/>
			<line class="st1" x1="67.1" y1="-35" x2="65.2" y2="-28.3"/>
			<line class="st1" x1="67.1" y1="-27.7" x2="69" y2="-34.5"/>
			<line class="st1" x1="56.7" y1="-40.4" x2="58.7" y2="-33.7"/>
			<line class="st1" x1="60.6" y1="-34.2" x2="58.6" y2="-40.9"/>
			<line class="st1" x1="37.2" y1="-45.7" x2="40.6" y2="-51.7"/>
			<line class="st1" x1="38.9" y1="-52.7" x2="35.4" y2="-46.7"/>
			<line class="st1" x1="22.7" y1="-52.4" x2="27.1" y2="-47"/>
			<line class="st1" x1="28.6" y1="-48.3" x2="24.2" y2="-53.7"/>
			<line class="st1" x1="14.9" y1="-50.6" x2="17.3" y2="-44.1"/>
			<line class="st1" x1="19.1" y1="-44.7" x2="16.8" y2="-51.3"/>
			<line class="st1" x1="66.9" y1="-52.7" x2="65.1" y2="-45.9"/>
			<line class="st1" x1="67.1" y1="-45.4" x2="68.8" y2="-52.2"/>
			<line class="st1" x1="51" y1="-49" x2="57.5" y2="-46.3"/>
			<line class="st1" x1="58.3" y1="-48.1" x2="51.8" y2="-50.9"/>
			<line class="st1" x1="34.2" y1="-18.9" x2="36.2" y2="-12.2"/>
			<line class="st1" x1="38.1" y1="-12.7" x2="36.1" y2="-19.4"/>
			<line class="st1" x1="53.1" y1="-17.8" x2="46.2" y2="-16.8"/>
			<line class="st1" x1="46.5" y1="-14.8" x2="53.4" y2="-15.8"/>
			<line class="st1" x1="53.3" y1="-30" x2="51.7" y2="-23.2"/>
			<line class="st1" x1="53.6" y1="-22.7" x2="55.2" y2="-29.6"/>
			<line class="st1" x1="34.4" y1="-32.9" x2="30.6" y2="-27"/>
			<line class="st1" x1="32.3" y1="-25.9" x2="36.1" y2="-31.9"/>
			<line class="st1" x1="36" y1="-41.5" x2="29.6" y2="-38.7"/>
			<line class="st1" x1="30.4" y1="-36.9" x2="36.8" y2="-39.7"/>
			<line class="st1" x1="22.5" y1="-35.9" x2="24.4" y2="-42.7"/>
			<line class="st1" x1="22.5" y1="-43.2" x2="20.6" y2="-36.5"/>
			<line class="st1" x1="48.1" y1="-39.3" x2="46" y2="-46"/>
			<line class="st1" x1="44.1" y1="-45.4" x2="46.1" y2="-38.7"/>
			<line class="st1" x1="34.3" y1="-62.5" x2="28.8" y2="-58.3"/>
			<line class="st1" x1="30" y1="-56.7" x2="35.6" y2="-60.9"/>
			<line class="st1" x1="25.1" y1="-62.3" x2="23.1" y2="-69"/>
			<line class="st1" x1="21.2" y1="-68.5" x2="23.2" y2="-61.7"/>
			<line class="st1" x1="14.5" y1="-68.8" x2="14.1" y2="-61.8"/>
			<line class="st1" x1="16.1" y1="-61.7" x2="16.5" y2="-68.7"/>
			<line class="st1" x1="27.4" y1="-21" x2="23.1" y2="-15.4"/>
			<line class="st1" x1="24.7" y1="-14.2" x2="29" y2="-19.7"/>
			<line class="st1" x1="19.6" y1="-16.5" x2="14.8" y2="-21.6"/>
			<line class="st1" x1="13.3" y1="-20.2" x2="18.2" y2="-15.2"/>
			<line class="st1" x1="59.6" y1="-53.7" x2="64" y2="-59.2"/>
			<line class="st1" x1="62.5" y1="-60.4" x2="58.1" y2="-55"/>
			<line class="st1" x1="62.7" y1="-63.9" x2="63.5" y2="-70.9"/>
			<line class="st1" x1="61.5" y1="-71.1" x2="60.7" y2="-64.1"/>
			<line class="st1" x1="39.7" y1="-28.9" x2="46.1" y2="-26.2"/>
			<line class="st1" x1="46.9" y1="-28" x2="40.5" y2="-30.8"/>
			<line class="st1" x1="55.2" y1="-80.9" x2="59.6" y2="-75.5"/>
			<line class="st1" x1="61.1" y1="-76.8" x2="56.7" y2="-82.2"/>
		</g>
		<g>
			<line class="st1" x1="1.4" y1="-72.6" x2="7.5" y2="-69.3"/>
			<line class="st1" x1="8.5" y1="-71" x2="2.3" y2="-74.3"/>
			<line class="st1" x1="1.4" y1="-58.1" x2="6.7" y2="-62.7"/>
			<line class="st1" x1="5.4" y1="-64.2" x2="0.1" y2="-59.7"/>
			<line class="st1" x1="3.9" y1="-51.9" x2="10.4" y2="-54.5"/>
			<line class="st1" x1="9.7" y1="-56.3" x2="3.1" y2="-53.8"/>
			<line class="st1" x1="1.1" y1="-43.3" x2="7.9" y2="-41.8"/>
			<line class="st1" x1="8.3" y1="-43.7" x2="1.5" y2="-45.3"/>
			<line class="st1" x1="1.1" y1="-22" x2="7.9" y2="-20.2"/>
			<line class="st1" x1="8.4" y1="-22.2" x2="1.6" y2="-23.9"/>
			<line class="st1" x1="2.1" y1="-12" x2="8.8" y2="-14.2"/>
			<line class="st1" x1="8.2" y1="-16.1" x2="1.5" y2="-13.9"/>
		</g>
		<g>
			<line class="st1" x1="69.6" y1="-80.6" x2="66.1" y2="-74.5"/>
			<line class="st1" x1="67.8" y1="-73.5" x2="71.3" y2="-79.6"/>
			<line class="st1" x1="55.2" y1="-80.9" x2="59.6" y2="-75.5"/>
			<line class="st1" x1="61.1" y1="-76.8" x2="56.7" y2="-82.2"/>
			<line class="st1" x1="48.9" y1="-78.6" x2="51.3" y2="-72.1"/>
			<line class="st1" x1="53.1" y1="-72.7" x2="50.8" y2="-79.3"/>
			<line class="st1" x1="40.4" y1="-81.7" x2="38.6" y2="-74.9"/>
			<line class="st1" x1="40.6" y1="-74.4" x2="42.3" y2="-81.2"/>
			<line class="st1" x1="19" y1="-82.2" x2="17.1" y2="-75.5"/>
			<line class="st1" x1="19" y1="-74.9" x2="20.9" y2="-81.7"/>
			<line class="st1" x1="9" y1="-81.4" x2="11" y2="-74.7"/>
			<line class="st1" x1="12.9" y1="-75.3" x2="10.9" y2="-82"/>
		</g>
	</g>
</pattern>
<g id="Ebene_1">
	<path class="st2" d="M91.4,296.6C29,411.1,324.6,604.8,431.1,573.6s132-116.2,88.1-191.7c-35.6-61.3-91.3-89.3-173-85.3
		C264.4,300.6,143.6,200.8,91.4,296.6L91.4,296.6z"/>
	<path class="st3" d="M324.9,269.7l-20.5,6.1c-35.6,3.5-50.7-22.9-50.7-52v-21.6"/>
	<path d="M158.9,207c29.9,0,54.3-24.3,54.3-54.3v-6.2c0-9.9-8.1-18-18-18s-18,8.1-18,18v6.2c0,10.1-8.2,18.3-18.3,18.3
		c-10.1,0-18.3-8.2-18.3-18.3c0-9.9-8.1-18-18-18c-9.9,0-18,8.1-18,18C104.5,182.7,128.9,207,158.9,207L158.9,207z"/>
	<path class="st4" d="M178.7,138.6v4.3l-2.4-0.1"/>
	<path class="st5" d="M178.7,138.6v4.3l-2.4-0.1"/>
	<path class="st4" d="M178.7,136.6c0-2.2-1.6-4.1-3.7-4.3c-2.4-0.2-4.5,1.7-4.5,4.1v6.7c0,4.1,3.3,7.5,7.5,7.5h0.7v3.8h32.9v-23.7"
		/>
	<path class="st5" d="M178.7,136.6c0-2.2-1.6-4.1-3.7-4.3c-2.4-0.2-4.5,1.7-4.5,4.1v6.7c0,4.1,3.3,7.5,7.5,7.5h0.7v3.8h32.9v-23.7"
		/>
	<path class="st6" d="M187,125.8l-0.1,12.8c0,2.3-1.8,4.1-4.1,4.1c-2.3,0-4.1-1.8-4.1-4.1l0.1-12.8H187z"/>
	<path class="st6" d="M195.2,125.9l-0.1,12.8c0,2.3-1.8,4.1-4.1,4.1s-4.1-1.8-4.1-4.1l0.1-12.8H195.2z"/>
	<path class="st6" d="M203.4,125.9l-0.1,12.8c0,2.3-1.8,4.1-4.1,4.1c-2.3,0-4.1-1.8-4.1-4.1l0.1-12.8H203.4z"/>
	<path class="st6" d="M211.6,125.9l-0.1,12.8c0,2.3-1.8,4.1-4.1,4.1c-2.3,0-4.1-1.8-4.1-4.1l0.1-12.8H211.6z"/>
	<path class="st7" d="M167.3,122.1l-21.5-3.2v20.7l21.5-3.4V122.1L167.3,122.1z"/>
	<path class="st5" d="M148.9,122.5l-0.1,20.8l21.6-3.3v-14.2L148.9,122.5z"/>
	<path class="st6" d="M178.6,128.7l0,8.4l-8.2,0l0-8.4L178.6,128.7z"/>
	<path class="st4" d="M240,169.1h13.1c2.5-2.9,6-4.8,9.8-5.6c0.6-0.1,1.4-0.2,2.3,0c2.5,0.6,4.2,3.1,3.6,5.7
		c-0.4,1.9-1.9,3.2-3.7,3.6c0,0-0.3,0.1-0.4,0.1c-3.2,0.6-5.9,3-6.6,6.4c-1,4.4,1.8,8.8,6.3,9.8c4.4,1,8.8-1.8,9.8-6.3
		c0.8-3.3-0.6-6.6-3.3-8.5c-0.1,0-0.3-0.2-0.3-0.2c-1.4-1.1-2.2-2.9-1.8-4.8c0.6-2.5,3.1-4.2,5.7-3.6c0.9,0.2,1.6,0.6,2.1,1
		c5.6,4,8.6,11.1,7,18.2c-1.1,5.4-4.6,9.6-9.1,12v4.4l-25.9,0.1"/>
	<path class="st5" d="M240,169.1h13.1c2.5-2.9,6-4.8,9.8-5.6c0.6-0.1,1.4-0.2,2.3,0c2.5,0.6,4.2,3.1,3.6,5.7
		c-0.4,1.9-1.9,3.2-3.7,3.6c0,0-0.3,0.1-0.4,0.1c-3.2,0.6-5.9,3-6.6,6.4c-1,4.4,1.8,8.8,6.3,9.8c4.4,1,8.8-1.8,9.8-6.3
		c0.8-3.3-0.6-6.6-3.3-8.5c-0.1,0-0.3-0.2-0.3-0.2c-1.4-1.1-2.2-2.9-1.8-4.8c0.6-2.5,3.1-4.2,5.7-3.6c0.9,0.2,1.6,0.6,2.1,1
		c5.6,4,8.6,11.1,7,18.2c-1.1,5.4-4.6,9.6-9.1,12v4.4l-25.9,0.1"/>
	<path class="st4" d="M252.9,181.3v-27.6c-0.1-2.6-2.3-4.6-4.9-4.5s-4.6,2.3-4.5,4.9v3.7"/>
	<path class="st5" d="M252.9,181.3v-27.6c-0.1-2.6-2.3-4.6-4.9-4.5s-4.6,2.3-4.5,4.9v3.7"/>
	<path class="st4" d="M247.4,181.3v-23.4c-0.1-2.6-2.3-4.6-4.9-4.5c-2.6,0.1-4.6,2.3-4.5,4.9"/>
	<path class="st5" d="M247.4,181.3v-23.4c-0.1-2.6-2.3-4.6-4.9-4.5c-2.6,0.1-4.6,2.3-4.5,4.9"/>
	<path class="st6" d="M331.2,364c0,0,22.4-75.8,5.9-108c-3.5-6.8-8.5-10.5-16.6-11.8c-13.1-2.1-25.3,6.8-27.4,19.8L280.8,324
		L331.2,364L331.2,364z M343,238c0-0.1,0-0.1,0-0.2c0.1-5.1,4.2-9.2,9.3-9.1c5.1,0.1,9.2,4.2,9.1,9.3c0,5.1-4.1,9.2-9.2,9.2
		C347.1,247.2,343,243.1,343,238z"/>
	<path class="st6" d="M289.5,226.9c0-17.9,14.5-32.4,32.4-32.4c17.9,0,32.4,14.5,32.4,32.4c0,17.9-14.5,32.4-32.4,32.4
		C304.1,259.3,289.5,244.8,289.5,226.9z"/>
	<path d="M318.7,213.6c0-1.1,0.8-1.9,1.9-1.9c0,0,0.1,0,0.1,0c1.1,0,1.9,0.9,1.9,1.9c0,1.1-0.9,1.9-1.9,1.9
		C319.5,215.4,318.7,214.6,318.7,213.6z M306,208.4c0-1,0.9-1.9,1.9-1.9s1.9,0.9,1.9,1.9s-0.9,1.9-1.9,1.9S306,209.5,306,208.4z
		 M302.5,222l1.2-3.1l13.5,5.1l-1.2,3.1c-1.4,3.7-6.7,7.5-10.4,6.1S301.1,225.7,302.5,222L302.5,222z"/>
	<path class="st4" d="M309.4,224.6c0-2.8,2.2-5,5-5s5,2.2,5,5c0,2.8-2.2,5-5,5S309.4,227.3,309.4,224.6z"/>
	<path class="st5" d="M301.4,223.9l2.3-5l13.5,5.1l-2.3,5c-1.4,3.7-5.6,5.6-9.3,4.2C301.9,231.8,300,227.6,301.4,223.9L301.4,223.9z
		"/>
	<path class="st6" d="M260.5,386.8h50.7v145.5H138.5L260.5,386.8z"/>
	<path d="M375.9,367.2c0.8,0,1.7,0,2.7,0.1c21.7-1.1,40.1-15.1,48-36.5c1.1-2.9,8.2-25,12.3-38c3.8-11.9-2.8-24.5-14.6-28.3
		c-11.9-3.8-24.5,2.8-28.3,14.6c-4.4,13.6-10.8,33.6-11.7,36.2c-2.2,5.8-6,6.9-8,7c-1.4,0-5-0.3-7-4.4
		c-7.2-14.9-10.5-40.1-11.2-48.5c-1-12.4-11.8-21.6-24.2-20.7c-12.4,1-21.7,11.8-20.7,24.2c0.3,3.9,3.3,39.4,15.6,64.7
		C337.7,355.8,356,367.2,375.9,367.2L375.9,367.2z"/>
	<path class="st4" d="M178.1,392.9c0,0-71.3,65.1-76.1,69c-13.2,10.6-54.3,26.8-64.5,30.5c-33.5,12-26.3,39.8-26.3,39.8h127.5
		l122-145.5"/>
	<path class="st5" d="M178.1,392.9c0,0-71.3,65.1-76.1,69c-13.2,10.6-54.3,26.8-64.5,30.5c-33.5,12-26.3,39.8-26.3,39.8h127.5
		l122-145.5 M422.4,265.2l-7.2-2.4"/>
	<path class="st4" d="M401.7,259.4l-1.7,5.3l-3-0.9"/>
	<path class="st5" d="M401.7,259.4l-1.7,5.3l-3-0.9"/>
	<path class="st4" d="M402.8,256.7c0.9-2.7-0.3-5.7-2.9-6.9c-3.1-1.3-6.4,0.3-7.4,3.3l-2.8,8.4c-1.7,5.3,1.1,10.9,6.4,12.6l3,1
		l-1.6,4.7l39.4,12.8l9.6-29.8"/>
	<path class="st4" d="M402.8,256.7c0.9-2.7-0.3-5.7-2.9-6.9c-3.1-1.3-6.4,0.3-7.4,3.3l-2.8,8.4c-1.7,5.3,1.1,10.9,6.4,12.6l3,1
		l-1.6,4.7l39.4,12.8l9.6-29.8"/>
	<path class="st5" d="M402.8,256.7c0.9-2.7-0.3-5.7-2.9-6.9c-3.1-1.3-6.4,0.3-7.4,3.3l-2.8,8.4c-1.7,5.3,1.1,10.9,6.4,12.6l3,1
		l-1.6,4.7l39.4,12.8l9.6-29.8"/>
	<path class="st6" d="M407,243.3l10.4,3.4l-5.3,16.1c-0.9,2.9-4,4.4-6.9,3.5c-2.9-0.9-4.4-4-3.5-6.9L407,243.3L407,243.3z"/>
	<path class="st6" d="M417.4,246.7l10.4,3.4l-5.3,16.1c-0.9,2.9-4,4.4-6.9,3.5c-2.9-0.9-4.4-4-3.5-6.9L417.4,246.7L417.4,246.7z"/>
	<path class="st6" d="M427.7,250.1l10.4,3.4l-5.3,16.1c-0.9,2.9-4,4.4-6.9,3.5c-2.9-0.9-4.4-4-3.5-6.9L427.7,250.1L427.7,250.1z"/>
	<path class="st6" d="M438.1,253.4l10.4,3.4l-5.3,16.1c-0.9,2.9-4,4.4-6.9,3.5c-2.9-0.9-4.4-4-3.5-6.9L438.1,253.4L438.1,253.4z"/>
	<path class="st7" d="M396.7,238.5l-25.8-12.8l-8.5,26.2l28.5,4.5L396.7,238.5L396.7,238.5z"/>
	<path class="st5" d="M395.8,242.1L370,229.2l-8.6,26.1l28.5,4.7L395.8,242.1L395.8,242.1z"/>
	<path class="st6" d="M394.5,245.7l7.8,2.6l-3.5,10.6l-7.8-2.6L394.5,245.7L394.5,245.7z"/>
	<path class="st4" d="M260.7,386.7c0,0,34.1,0.3,39.9,0c5.8-0.3,11.4,0,17.8-4.3c10.4-7,12.8-18.3,12.8-18.3
		c-15.6-20-88.1-81.1-130.8-60c-45.5,22.4-20.6,95-20,97.1c3.6,13.2-11,29.6-11,54.3c0,19.3,11.2,26.2,11.2,26.2l80-95l-34-29.4"/>
	<path class="st5" d="M260.7,386.7c0,0,34.1,0.3,39.9,0c5.8-0.3,11.4,0,17.8-4.3c10.4-7,12.8-18.3,12.8-18.3
		c-15.6-20-88.1-81.1-130.8-60c-45.5,22.4-20.6,95-20,97.1c3.6,13.2-11,29.6-11,54.3c0,19.3,11.2,26.2,11.2,26.2l80-95l-34-29.4"/>
	<path class="st4" d="M242,181.4v-19c-0.1-2.6-2.3-4.6-4.9-4.5c-2.6,0.1-4.6,2.3-4.5,4.9v38.7l28.5-0.1"/>
	<path class="st5" d="M242,181.4v-19c-0.1-2.6-2.3-4.6-4.9-4.5c-2.6,0.1-4.6,2.3-4.5,4.9v38.7l28.5-0.1 M444.4,269.2l11.4,3.7
		c19.7,6.5,40-8.2,40-29c0-16.8-13.6-30.5-30.5-30.5h-72.9"/>
	<path class="st5" d="M355.5,229.4c-33.2-7.6-23.6-33.3-23.6-33.3l1.8-4.5h23.4c8.1,0,36.2,0,36.6,32.6c0.2,11,7.8,12.9,15.8,13.4
		c2,0.2,0.7,0.1,5.4,0.3c52.1,2.3,92.5,49.1,92.5,102.4c0,56.6-49.2,102.6-105.9,102.6c-37.7,0-72.4-20.5-90.3-50.9"/>
	<path class="st6" d="M72.7,198l25-50.3c3.8-10.1,15.2-15.2,25.3-11.4c6.3,2.4,9.7,6.2,11.4,12.3c4.9,17.7-5,46.5-13.2,65.7
		C103.3,213.6,86.7,207.6,72.7,198z"/>
	<path class="st5" d="M292,214.6H125.7c-64.5,0-113.9-65.2-85.6-133.4c8.6-20.7,25.2-37.3,45.9-45.9c68.1-28.3,133.4,21,133.4,85.6
		c0,4-0.2,8.1-0.6,12h-7.3"/>
	<path class="st8" d="M103.7,153c0,0-1.9,5.1-11.4,22.1s-32.5,8-32.5,0v-32.6"/>
	<path class="st5" d="M101.1,122.4c0,0.9-0.1,1.8,0,2.8"/>
	<path class="st9" d="M111.9,122.9c0-0.2,0.2-0.4,0.4-0.4l0,0c0.2,0,0.4,0.2,0.4,0.4c0,0.2-0.2,0.4-0.4,0.4S111.9,123.1,111.9,122.9
		z M113.7,124.9c0-0.2,0.2-0.4,0.4-0.4s0.4,0.2,0.4,0.4s-0.2,0.4-0.4,0.4S113.7,125.1,113.7,124.9z M108.1,122.9
		c0-0.2,0.2-0.4,0.4-0.4l0,0c0.2,0,0.4,0.2,0.4,0.4c0,0.2-0.2,0.4-0.4,0.4S108.1,123.1,108.1,122.9z M111.9,126.8
		c0-0.2,0.2-0.4,0.4-0.4l0,0c0.2,0,0.4,0.2,0.4,0.4c0,0.2-0.2,0.4-0.4,0.4S111.9,127,111.9,126.8z M110,124.8c0-0.2,0.2-0.4,0.4-0.4
		s0.4,0.2,0.4,0.4c0,0.2-0.2,0.4-0.4,0.4S110,125,110,124.8z"/>
	<path d="M133.5,120.9l-9.1,2.3l0.6,2.3c0.7,2.9,3.3,4.6,5.8,4c2.5-0.6,4-3.4,3.3-6.2L133.5,120.9z"/>
	<path class="st4" d="M124.6,127.3c0-1.8,1.4-3.2,3.1-3.3c0,0,0.1,0,0.1,0c1.8,0,3.2,1.5,3.1,3.3s-1.5,3.2-3.3,3.1
		C126,130.4,124.6,129,124.6,127.3z"/>
	<path class="st5" d="M134.4,123.7l-0.9-2.8l-9.1,2.3l0.9,2.8c0.6,2.5,3.2,4,5.7,3.4C133.5,128.8,135,126.2,134.4,123.7L134.4,123.7
		z"/>
	<path class="st6" d="M92.2,120.4c0-3.4,2.8-6.2,6.2-6.2c3.4,0,6.2,2.8,6.2,6.2s-2.8,6.2-6.2,6.2C95,126.6,92.2,123.8,92.2,120.4z"
		/>
	<path class="st6" d="M98.3,120.9c0-12,9.8-21.8,21.8-21.8c12,0,21.8,9.8,21.8,21.8c0,12-9.8,21.8-21.8,21.8
		C108.1,142.7,98.3,132.9,98.3,120.9z"/>
	<path class="st5" d="M112.8,100.5c1.1-4.7,5.3-8.5,11.3-8.9c1-3.5,4.5-5.9,8.3-5.2c2.7,0.5,4.9,2.6,5.6,5.2c0.3,1,0.4,2.1,0.2,3
		c-0.1,0.1,0.1,0.2,0.2,0.1c0.9-1.3,2.5-2.1,4.2-2c2.8,0.2,4.8,2.8,4.2,5.7c-0.3,1.5-1.5,2.8-3,3.3c-0.7,0.2-1.4,0.3-2.1,0.2
		c-0.1,0-0.2,0.2-0.1,0.3c1.4,1,2.1,2.8,1.8,4.6c-0.4,2.2-2.4,3.8-4.6,3.8c-2.3,0-4.3-1.7-4.6-4"/>
	<path class="st10" d="M111.1,123c0-0.2,0.2-0.4,0.4-0.4s0.4,0.2,0.4,0.4c0,0.2-0.2,0.4-0.4,0.4S111.1,123.2,111.1,123z M113.1,125
		c0-0.2,0.2-0.4,0.4-0.4l0,0c0.2,0,0.4,0.2,0.4,0.4c0,0.2-0.2,0.4-0.4,0.4S113.1,125.2,113.1,125z M107.2,123c0-0.2,0.2-0.4,0.4-0.4
		l0,0c0.2,0,0.4,0.2,0.4,0.4c0,0.2-0.2,0.4-0.4,0.4S107.2,123.2,107.2,123z M111.1,127.1c0-0.2,0.2-0.4,0.4-0.4s0.4,0.2,0.4,0.4
		c0,0.2-0.2,0.4-0.4,0.4S111.1,127.3,111.1,127.1z M109.1,125c0-0.2,0.2-0.4,0.4-0.4s0.4,0.2,0.4,0.4c0,0.2-0.2,0.4-0.4,0.4
		S109.1,125.2,109.1,125z"/>
	<path class="st5" d="M123.1,115.8C123.1,115.8,123.1,115.8,123.1,115.8c0,1.5-1.2,2.7-2.7,2.7c0,0,0,0,0,0c-1.5,0-2.7-1.2-2.7-2.7
		 M136.6,115.8C136.6,115.8,136.6,115.8,136.6,115.8c0,1.5-1.2,2.7-2.7,2.7c0,0,0,0,0,0c-1.5,0-2.7-1.2-2.7-2.7"/>
	<path d="M132.8,127.9l-0.1-3.4H123v3.4c0,2.7,2.2,4.9,4.9,4.9C130.6,132.8,132.8,130.6,132.8,127.9L132.8,127.9z"/>
	<path class="st4" d="M126.1,130.9c-1.9,0-3.4-1.5-3.4-3.4c0-1.9,1.5-3.4,3.4-3.4s3.4,1.5,3.4,3.4
		C129.5,129.4,128,130.9,126.1,130.9L126.1,130.9z"/>
	<path class="st5" d="M132.8,128.9l-0.1-3.7H123v3.7c0,2.7,2.2,4.9,4.9,4.9C130.6,133.8,132.8,131.6,132.8,128.9L132.8,128.9z"/>
	<path class="st4" d="M43.3,112.6v29.2l33-0.3v-7.2l9.1-0.1c2.3,0,4.1-1.8,4.1-4.1c0-2.3-1.8-4.1-4.1-4.1l-9.1,0.1l-0.1-25
		c0-2.3-1.8-4.1-4.1-4.1c-2.3,0-4.1,1.8-4.1,4.1v21.3"/>
	<path class="st5" d="M43.3,112.6v29.2l33-0.3v-7.2l9.1-0.1c2.3,0,4.1-1.8,4.1-4.1c0-2.3-1.8-4.1-4.1-4.1l-9.1,0.1l-0.1-25
		c0-2.3-1.8-4.1-4.1-4.1c-2.3,0-4.1,1.8-4.1,4.1v21.3"/>
	<path class="st4" d="M59.9,122.5c0,2.3,1.8,4.1,4.1,4.1c2.3,0,4.1-1.8,4.1-4.1v-10.1l-24.8,0.1v10.1c0,2.3,1.8,4.1,4.1,4.1
		c2.3,0,4.1-1.8,4.1-4.1v-10.1v10.1c0,2.3,1.8,4.1,4.1,4.1c2.3,0,4.1-1.8,4.1-4.1v-10.1"/>
	<path class="st5" d="M59.9,122.5c0,2.3,1.8,4.1,4.1,4.1c2.3,0,4.1-1.8,4.1-4.1v-10.1l-24.8,0.1v10.1c0,2.3,1.8,4.1,4.1,4.1
		c2.3,0,4.1-1.8,4.1-4.1v-10.1v10.1c0,2.3,1.8,4.1,4.1,4.1c2.3,0,4.1-1.8,4.1-4.1v-10.1"/>
	<circle class="st11" cx="457.1" cy="10.7" r="64.2"/>
	<path class="st12" d="M168.3,58.5h21.1 M173.6,64.9h13.2 M178.9,70.8h5.3"/>
	<path class="st13" d="M227.2,60.7l-4.4-4.4c-0.3-0.3-0.3-0.7,0-1c0,0,0,0,0,0l1.7-1.7c0.3-0.3,0.7-0.3,1,0c0,0,0,0,0,0l4.4,4.4
		c0.3,0.3,0.3,0.8,0,1.1l-1.7,1.7C228,61,227.5,61,227.2,60.7z M221.8,61.7l3.2-3.3 M208.3,95.8c10.8,0,19.6-8.8,19.6-19.7
		c0-10.9-8.8-19.7-19.6-19.7c-10.8,0-19.6,8.8-19.6,19.7C188.7,86.9,197.4,95.8,208.3,95.8z"/>
	<path class="st14" d="M206,56.5v-4.7c0-0.4,0.4-0.8,0.8-0.8h3c0.5,0,0.8,0.4,0.8,0.8v4.7"/>
	<path class="st15" d="M208.3,60.9v12.9 M208.3,78.3c1.3,0,2.3-1,2.3-2.3c0,0,0,0,0,0c0-1.3-1-2.3-2.3-2.3c0,0,0,0,0,0
		c-1.3,0-2.3,1-2.3,2.3c0,0,0,0,0,0C206,77.3,207,78.3,208.3,78.3C208.3,78.3,208.3,78.3,208.3,78.3z M208.2,78.3v4.5"/>
	<path class="st16" d="M523.9,12.6l-93.8-0.1l0,55.6l93.8,0.1C524,68.2,523.9,12.6,523.9,12.6z"/>
	<path class="st17" d="M451.2,37.9c2.1,1.2,4.7,0.5,5.9-1.5c1.2-2.1,0.5-4.7-1.6-5.9c-2.1-1.2-4.7-0.5-5.9,1.5
		C448.4,34.1,449.1,36.7,451.2,37.9z M464.1,51.4c0-5.9-4.8-10.7-10.7-10.7c-5.9,0-10.7,4.8-10.6,10.6l0,5.1l21.3,0L464.1,51.4z
		 M471.3,31.2l40.6,0.1 M471.4,35.9l40.6,0 M471.4,40.4l20.3,0.1"/>
	<path class="st16" d="M519.2-56.2c-5.4-6.5-12.2-7.6-14.1-6.9c-2.6,0.9-2.7,3.2-2.9,4.7c-0.2,1.5-1.3,10.3-1.5,11.7
		c-0.2,1.4,0.3,4.2,3.8,4.9c3.4,0.7,15.8,3.2,10.6,16.3c-5.1,13.1-15.5,8.4-18.7,7c-3.2-1.4-5.4,0.6-6.1,1.8
		c-0.7,1.2-5.3,8.9-6.1,10.3c-0.7,1.3-2.1,3.3-0.6,5.5c1.1,1.6,7.3,4.5,15.6,2.5c8.3-1.9,18.4-6.5,24.6-24.2
		C530-40.2,522.5-52.3,519.2-56.2L519.2-56.2z"/>
</g>
<g id="Ebene_2">
	<path class="st4" d="M16.2,82.6V12.9h95v69.8"/>
	<path class="st18" d="M16.2,82.6V12.9h95v69.8"/>
	<path class="st19" d="M59.7,45.2H27.2v4h32.5C59.7,49.3,59.7,45.2,59.7,45.2z M59.7,51.7H27.2v4h32.5V51.7z M59.7,58.1H27.2v4h32.5
		V58.1z"/>
	<path class="st7" d="M23.2,48.6c0.7,0,1.3-0.6,1.3-1.3c0-0.7-0.6-1.3-1.3-1.3c-0.7,0-1.3,0.6-1.3,1.3c0,0,0,0,0,0
		C21.9,48,22.5,48.6,23.2,48.6L23.2,48.6z M23.2,55.1c0.7,0,1.3-0.6,1.3-1.3c0-0.7-0.6-1.3-1.3-1.3c0,0,0,0,0,0
		c-0.7,0-1.3,0.6-1.3,1.3c0,0,0,0,0,0C21.9,54.5,22.5,55.1,23.2,55.1L23.2,55.1z M23.2,61.4c0.7,0,1.3-0.6,1.3-1.3
		c0-0.7-0.6-1.3-1.3-1.3c-0.7,0-1.3,0.6-1.3,1.3c0,0,0,0,0,0C21.9,60.9,22.5,61.4,23.2,61.4L23.2,61.4z"/>
	<path class="st4" d="M97,82.6V49.1h5.2v33.5"/>
	<path class="st18" d="M97,82.6V49.1h5.2v33.5"/>
	<path class="st4" d="M86.6,82.6V57h5.2v25.5"/>
	<path class="st18" d="M86.6,82.6V57h5.2v25.5"/>
	<path class="st4" d="M76.2,82.6V65h5.2v17.5"/>
	<path class="st18" d="M76.2,82.6V65h5.2v17.5"/>
	<path class="st4" d="M65.7,82.6V73H71v9.6"/>
	<path class="st18" d="M65.7,82.6V73H71v9.6 M103.5,82.6H64.4"/>
	<path class="st7" d="M57.5,0v17.8h17.7C75.3,8,67.3,0,57.5,0L57.5,0z"/>
	<path class="st20" d="M52.1,5.5c-9.8,0-17.7,8-17.7,17.8s7.9,17.8,17.7,17.8c4.9,0,9.3-2,12.5-5.2L52.1,23.3L52.1,5.5L52.1,5.5z
		 M60.3,23.3l11.3,10.9c2.4-3.1,3.7-7,3.7-10.9H60.3L60.3,23.3z"/>
	<path class="st21" d="M51.1,82.6L102.5,33"/>
	<path class="st7" d="M103.3,42.6l-1.8-0.1l0.5-8.9l-8.9,0.1l0-1.8l10.8-0.2C103.9,31.7,103.3,42.6,103.3,42.6z"/>
	<path class="st18" d="M14.7,82.6h98"/>
</g>
</svg>
