<svg width="569" height="526" fill="none" xmlns="http://www.w3.org/2000/svg" xmlns:xlink="http://www.w3.org/1999/xlink"><defs><path d="M201.37 105.667c0-15.7221-12.777-28.4668-28.539-28.4668-15.762 0-28.539 12.7447-28.539 28.4668" stroke="#D6D6D6" stroke-width="4" stroke-linecap="round" stroke-linejoin="round" id="reuse-0"/><path d="M125.632 124.826c0-1.209.983-2.189 2.195-2.189h203.615c1.212 0 2.195.98 2.195 2.189v94.706H125.632v-94.706Z" fill="#fff" id="reuse-1"/></defs><path d="M465.553 250.414v-53.035c-10.055 1.05-18.875 7.701-22.579 17.678-5.116 13.653-.529 28.18 16.581 34.131 1.941.526 3.881 1.051 5.998 1.226Z" fill="#fff" stroke="#000" stroke-width="2" stroke-miterlimit="10" stroke-linecap="round" stroke-linejoin="round"/><path d="M469.081 197.204v53.56c10.76-.175 20.462-6.476 24.696-18.028 5.115-13.828-2.47-29.231-16.582-34.132-2.646-.875-5.468-1.4-8.114-1.4Z" fill="#000"/><ellipse cx="271.298" cy="156.263" rx="156.298" ry="156.263" fill="#ECF9FF"/><path fill-rule="evenodd" clip-rule="evenodd" d="M569 437.151H285v-4h284v4Z" fill="#000"/><path d="M539.519 433.243h-53.26c-2.506 0-4.386-2.036-4.386-4.386v-2.819c0-2.506 2.036-4.386 4.386-4.386h53.26c2.506 0 4.386 2.037 4.386 4.386v2.819c.156 2.35-1.88 4.386-4.386 4.386ZM555.339 415.387h-73.78c-.783 0-1.41.626-1.41 1.409v2.976c0 .783.627 1.41 1.41 1.41h73.78c.783 0 1.41-.627 1.41-1.41v-2.976c0-.783-.627-1.409-1.41-1.409ZM544.844 405.662h-54.826c-.783 0-1.41.627-1.41 1.41v6.891c0 .784.627 1.41 1.41 1.41h54.826c.783 0 1.41-.626 1.41-1.41v-6.891c0-.783-.627-1.41-1.41-1.41Z" stroke="#000" stroke-width="2" stroke-miterlimit="10" stroke-linecap="round" stroke-linejoin="round"/><path fill-rule="evenodd" clip-rule="evenodd" d="M521.348 406.157h17.544v4.387h-17.544v-4.387Zm-26.317 16.278h11.592v6.892h-11.592v-6.892ZM259 437.151H0v-4h259v4Z" fill="#000"/><path d="m105.452 433.151-17.0516-39.602 25.1296-25.572 130.583 65.174H105.452Z" fill="#0088EA"/><path d="M257.126 482.379c-50.433 10.322-45.472-24.675-43.528-40.378l62.375-5.832c2.692 3.589 8.078 8.255 31.412 10.767 29.168 3.141 39.583 19.031 45.322 30.508 5.834 11.664 8.227 33.199 7.18 45.761-10.62 1.345-32.848 3.23-36.797 0-4.936-4.038-8.974-52.491-65.964-40.826Z" fill="#000"/><path d="M255.919 482.3c-5.136-2.93-6.42-8.197-6.42-10.465l55.644-1.569c-4.637 1.22-15.088 4.813-19.797 9.418-5.885 5.755-23.006 6.278-29.427 2.616Z" fill="#000"/><path d="M284.948 480.584c3.141-3.439 16.334-8.973 26.027-3.589 12.116 6.73 12.565 11.665 16.603 22.432 3.231 8.614 5.834 20.637 6.731 25.572" stroke="#fff"/><path d="m37.9169 380.149-.5013.501-.639-.307c-1.4743-.709-3.0879-1.128-4.8043-1.128-6.1897 0-11.2279 5.038-11.2279 11.227 0 6.188 5.0386 11.226 11.2281 11.226 1.7165 0 3.33-.419 4.8042-1.128l.639-.307.5014.502L63.6 426.414l1.7073 1.708H52.3524c-1.6978 0-3.076 1.378-3.076 3.075 0 1.697 1.3782 3.076 3.076 3.076h40.76c1.6978 0 3.0759-1.379 3.0759-3.076s-1.3781-3.075-3.0759-3.075H74.0056l-.2929-.293-31.4463-31.443-.5014-.502.3072-.639c.7088-1.474 1.1281-3.087 1.1281-4.803 0-1.717-.4191-3.33-1.128-4.804l-.3074-.639.5015-.501 20.8772-20.875.7031-.703.7071.699 6.9088 6.83.3688.365-.0856.512c-1.2502 7.472.9532 15.398 6.6948 21.139l2.9877 2.988.0018.002c.5978.6 1.3821.899 2.1729.899.7908 0 1.575-.299 2.1729-.9l.0018-.001 29.8893-29.886.001-.001c1.201-1.199 1.203-3.144-.001-4.348l-2.988-2.987c-5.741-5.741-13.6727-7.944-21.142-6.694l-.5114.085-.3646-.369-8.6857-8.782c-.0007-.001-.0015-.002-.0023-.002-5.3415-5.331-13.9958-5.328-19.31-.015-2.5767 2.58-3.9956 6.002-3.9956 9.649 0 1.86.3792 3.659 1.0864 5.328l.263.621-.4767.476-21.6232 21.621Z" stroke="#000" stroke-width="2"/><path d="M36.6945 390.857c0 2.668-2.1638 4.832-4.8336 4.832-2.6697 0-4.8336-2.164-4.8336-4.832 0-2.669 2.1639-4.833 4.8336-4.833 2.6698 0 4.8336 2.164 4.8336 4.833Z" stroke="#000" stroke-width="2"/><path d="m252.058 401.769-8.511 10.01a35.5771 35.5771 0 0 1-22.602 12.247c-1.596.204-3.206.28-4.815.228l-17.182-.561c-6.853-.223-12.872 4.521-14.255 11.238" stroke="#000" stroke-width="4"/><rect x="145" y="247.557" width="253.781" height="133.383" rx="13" fill="#fff" stroke="#000" stroke-width="2"/><rect x="149.787" y="252.343" width="244.206" height="123.81" rx="9" stroke="#000" stroke-width="2"/><path d="m248.379 429.486 4.975-47.914h37.072l4.976 47.914h-47.023Z" fill="#000" stroke="#000" stroke-width="2"/><rect x="229.12" y="430.118" width="84.856" height="4.1538" rx="2.0769" stroke="#000" stroke-width="2"/><rect x="158.463" y="261.304" width="124.544" height="107.467" rx="4" stroke="#000" stroke-width="2"/><path d="M157.463 265.304c0-2.762 2.238-5 5-5h116.544c2.761 0 5 2.238 5 5v9.356H157.463v-9.356Z" fill="#000"/><ellipse cx="164.643" cy="267.482" rx="2.6924" ry="2.6918" fill="#fff"/><ellipse cx="173.617" cy="267.482" rx="2.6924" ry="2.6918" fill="#fff"/><ellipse cx="182.592" cy="267.482" rx="2.6924" ry="2.6918" fill="#fff"/><path stroke="#000" stroke-width="2" d="M166.54 281.94h50.0536v38.3773H166.54zM223.979 281.94h50.0536v38.3773H223.979zM166.438 336.469h51.156M166.438 344.544H275.93M166.438 352.62h51.156M166.438 360.695h51.156"/><path fill="#000" d="M360.292 271.969h17.9495v11.6646H360.292z"/><path d="m360.863 283.133 1.662-12.459h13.484l1.661 12.459h-16.807Z" fill="#fff" stroke="#000"/><rect opacity=".5" x="358.497" y="286.324" width="21.5394" height="3.5899" rx="1.795" fill="#000"/><path fill="#000" d="M360.293 299.784h17.9495v11.6646H360.293z"/><path d="m360.865 310.948 1.662-12.459h13.484l1.661 12.459h-16.807Z" fill="#fff" stroke="#000"/><rect opacity=".5" x="355.805" y="314.14" width="26.9243" height="3.5899" rx="1.795" fill="#000"/><path fill="#000" d="M360.293 327.6h17.9495v11.6646H360.293z"/><path d="m360.864 338.764 1.662-12.459h13.484l1.661 12.459h-16.807Z" fill="#fff" stroke="#000"/><rect opacity=".5" x="363.883" y="341.955" width="10.7697" height="3.5899" rx="1.795" fill="#000"/><mask id="a" fill="#fff"><path fill-rule="evenodd" clip-rule="evenodd" d="M419.122 399.382H391.3v29.096c0 2.762 2.238 5 5 5h17.822c2.548 0 4.651-1.906 4.96-4.37 6.674-.55 11.918-6.139 11.918-12.953 0-6.8-5.224-12.381-11.878-12.949v-3.824Zm0 21.65v-9.753c2.219.509 3.878 2.496 3.878 4.876 0 2.38-1.659 4.368-3.878 4.877Z"/></mask><path d="M391.3 399.382v-2h-2v2h2Zm27.822 0h2v-2h-2v2Zm-.04 29.726-.164-1.993-1.618.133-.202 1.611 1.984.249Zm.04-25.902h-2v1.836l1.829.157.171-1.993Zm0 8.073.447-1.95-2.447-.561v2.511h2Zm0 9.753h-2v2.51l2.447-.561-.447-1.949Zm-27.822-19.65h27.822v-4H391.3v4Zm2 27.096v-29.096h-4v29.096h4Zm3 3c-1.657 0-3-1.343-3-3h-4c0 3.866 3.134 7 7 7v-4Zm17.822 0H396.3v4h17.822v-4Zm2.976-2.619c-.186 1.476-1.449 2.619-2.976 2.619v4c3.569 0 6.511-2.669 6.945-6.121l-3.969-.498Zm2.149 2.242c7.701-.635 13.753-7.082 13.753-14.946h-4c0 5.764-4.437 10.494-10.082 10.96l.329 3.986ZM433 416.155c0-7.848-6.028-14.286-13.708-14.942l-.341 3.986c5.629.48 10.049 5.204 10.049 10.956h4Zm-15.878-16.773v3.824h4v-3.824h-4Zm0 11.897v9.753h4v-9.753h-4Zm7.878 4.876c0-3.333-2.324-6.113-5.431-6.826l-.895 3.899c1.332.305 2.326 1.501 2.326 2.927h4Zm-5.431 6.826c3.107-.713 5.431-3.492 5.431-6.826h-4c0 1.427-.994 2.622-2.326 2.927l.895 3.899Z" fill="#000" mask="url(#a)"/><path d="M398.479 415.981c0 3.727 3.036 6.729 6.732 6.729.528 0 1.056-.066 1.55-.198v-3.76c-.462.264-.99.395-1.55.395-1.749 0-3.168-1.418-3.168-3.166 0-1.749 1.419-3.167 3.168-3.167.561 0 1.088.165 1.55.396v-3.761a5.8744 5.8744 0 0 0-1.55-.198c-3.696 0-6.732 3.035-6.732 6.73Zm9.899-5.938v11.875c2.112-1.121 3.564-3.364 3.564-5.937 0-2.573-1.42-4.817-3.564-5.938Z" fill="#000"/><path d="M241.321 350.635c.367.438.7 1.154.909 1.724 0 0 .123.146.088.424.664 1.433.733 3.115.522 4.784-.298 1.245-.597 2.49-1.333 3.853-.035.278-.193.41-.35.543-.193.41-.386.82-.736 1.363-1.788 2.991-3.015 6.009-3.84 9.187-.263.967-.683 2.065-.824 3.178-.193.41-.263.967-.176 1.391-.263.967-.246 1.947-.352 2.781-.124 2.093-.37 4.041-.056 6.015.069 1.683.418 3.379.645 4.93.052.702.384 1.418.436 2.121 1.066 3.831 2.85 7.557 5.264 10.755.367.437.857 1.021 1.224 1.459 2.449 2.92 5.494 5.589 9.046 7.583.525.305 1.331.625 1.856.931 3.71 1.862 8.086 2.917 12.69 3.283 1.4.069 2.801.138 4.359.075 2.398-.022 6.721 2.57 10.938 5.996.525.306 1.015.89 1.54 1.196 3.814 3.266 6.876 6.915 7.75 8.918.419 1.14-.334 1.523-1.857 1.308-1.68-.083-4.096-1.042-6.913-2.16 1.207.479 4.428 1.757 6.283 2.688.927.466 1.295.904 1.102 1.314-.386.821-2.101 1.016-3.782.934-1.961-.097-4.131-.764-5.216-1.097 1.085.333 2.975.986 4.585 1.625.806.32 1.331.626 1.856.931.525.306.77.598.612.73-.351.543-1.384.912-2.819 1.121-.718.105-1.716.195-2.556.154-3.957.085-8.683-.427-10.959-.26-2.399.022-4.797.044-7.038-.066-.84-.042-1.523-.215-2.363-.256-5.006-.527-9.785-1.742-14.371-3.367-.682-.173-1.207-.479-1.89-.653-.122-.146-.28-.013-.403-.159-.28-.014-.525-.306-.805-.32-3.465-1.57-6.773-3.272-9.73-5.517-.525-.306-1.172-.757-1.54-1.195-3.08-2.391-5.966-5.192-8.573-7.979-.368-.438-.857-1.022-1.225-1.46-2.571-3.065-4.548-6.381-6.209-9.962-.21-.57-.542-1.286-.909-1.724-1.451-3.01-2.587-6.285-3.286-9.678-.384-1.418-.611-2.969-.837-4.519-.803-4.798-.852-9.978-.342-15.131.106-.834.212-1.669.317-2.503.07-.557.141-1.113.334-1.523.105-.835.333-1.523.403-2.08 1.001-4.569 2.597-9.388 4.875-14.034.351-.542.579-1.231.772-1.641.385-.821.771-1.642 1.437-2.448l.157-.133c.193-.41.351-.542.543-.953.036-.278.351-.542.386-.82.315-.265.351-.543.508-.675.158-.132.351-.542.508-.675.666-.807 1.174-1.481 2.085-1.996l.157-.132c1.734-1.454 3.643-2.06 5.674-2.52 3.975-1.344 8.928.719 11.429 4.341Z" fill="#fff" stroke="#000" stroke-width="2" stroke-miterlimit="10" stroke-linecap="round" stroke-linejoin="round"/><path d="M256.062 271.604c8.262 8.474 3.511 16.385.103 19.281l-9.432 37.068c-24.257 14.452-41.459-5.263-34.993-29.247 6.466-23.984 33.995-37.694 44.322-27.102Z" fill="#fff"/><path d="M295.74 321.135c0 18.915-15.336 34.249-34.256 34.249s-34.256-15.334-34.256-34.249c0-18.914 15.336-34.248 34.256-34.248s34.256 15.334 34.256 34.248Z" fill="#fff" stroke="#000" stroke-width="2"/><ellipse rx="1.6163" ry="1.2939" transform="matrix(.97097 -.20306 .0375 .99703 274.044 332.59)" fill="#000"/><ellipse rx="1.6163" ry="1.2939" transform="matrix(.97097 -.20307 .0375 .99703 280.024 332.099)" fill="#000"/><ellipse rx="1.6163" ry="1.2939" transform="matrix(.97097 -.20306 .0375 .99703 279.533 326.12)" fill="#000"/><ellipse rx="1.6163" ry="1.2939" transform="matrix(.97097 -.20307 .0375 .99703 286.006 331.607)" fill="#000"/><ellipse rx="1.6163" ry="1.2939" transform="matrix(.97097 -.20306 .0375 .99703 285.514 325.628)" fill="#000"/><path d="M276.325 304.031c-3.534-.469-6.752 1.813-7.189 5.098-.436 3.284 2.075 6.328 5.608 6.797M277.884 294.857c-3.285-.437-5.595-3.453-5.158-6.738M261.469 335.71c-2.742 3.351-7.891 3.676-11.501.724-3.611-2.952-4.923-9-2.182-12.351" stroke="#000" stroke-width="2"/><path d="M285.571 375.307c.743-1.734 1.239-3.716 1.486-5.698.248-2.973-.247-5.698-2.477-7.928-1.735-2.725-4.956-5.45-9.664-8.175-1.487-.991-3.222-1.734-4.956-2.477-.744-.248-1.487-.743-2.478-.991-1.239-.248-2.478-.743-3.717-1.239-1.239-.495-5.452-1.982-6.195-2.23-4.212-1.486-7.929-2.229-11.894-2.229h-.248 0c-1.239 0-2.23 0-3.469.248-.248 0-.743.247-.991.247s-.496.248-.991.248c-.248 0-.744 0-.991.248-.496.248-.744.248-1.239.495h-.248 0c-.991.496-1.983.991-2.974 1.734-.743.496-1.486 1.239-2.23 1.735-3.469 2.725-6.938 6.688-10.655 12.139-.743.743-1.239 1.734-1.735 2.477-.991 1.487-1.734 2.973-2.725 4.459-.744 1.487-1.735 2.973-2.478 4.46-2.524 5.126-4.587 10.471-5.964 16.016-3.106 12.505-6.824 31.932-1.87 48.67 6.267 21.175 48.307 19.889 68.543 16.599l-2.23-48.832 1.982-5.945v-.001c.248-.247.248-.247.248-.495.248-.743.744-1.486.991-2.477 1.487-4.212 3.717-9.662 6.195-14.865.248 0 .248-.247.248-.247.496-.744.743-1.734 1.239-2.478.496-1.238.991-2.229 1.487-3.468Z" fill="#fff" stroke="#000" stroke-width="2" stroke-miterlimit="10" stroke-linecap="round" stroke-linejoin="round"/><path d="M336.455 441.29c-1.996-1.187-3.993-2.374-5.99-3.561l-1.997-1.187c-3.939-2.497-8.023-5.235-11.852-7.978-.599-.356-1.343-.954-1.887-1.433-3.975-2.984-7.749-5.849-11.414-8.961-.545-.479-1.289-1.076-1.833-1.555-3.81-3.353-7.42-6.587-10.921-10.066-.49-.602-1.234-1.2-1.723-1.802-1.234-1.199-2.213-2.403-3.446-3.602-2.413-2.522-4.77-5.166-6.928-7.692-.489-.602-1.179-1.323-1.668-1.924-2.303-2.768-4.351-5.539-6.4-8.311-.144-.241-.344-.36-.489-.602-.635-.843-1.214-1.809-1.849-2.652-.29-.484-.579-.967-1.069-1.568-.435-.725-1.069-1.568-1.504-2.293-1.649-2.534-3.243-5.191-4.638-7.729-.525-1.089-.905-1.937-1.23-2.907-.235-.606-.216-1.216-.251-1.703-.087-2.072.824-3.55 2.48-4.43 1.037-.627 2.419-.893 3.746-1.037.054-.123.254-.004.309-.127 1.018-.016 1.981.09 3.143.315 1.163.225 2.525.569 3.578 1.04.654.233 1.453.708 2.107.941 2.051 1.064 4.084 2.738 5.697 4.785.635.844 1.269 1.687 1.849 2.653.869 1.449 1.684 3.022 2.608 4.348.29.483.58.966.925 1.326.145.242.435.725.579.967 1.939 3.017 3.933 5.911 6.181 8.801.834.962 1.414 1.929 2.248 2.891.344.36.634.843 1.179 1.322.489.602 1.178 1.322 1.668 1.924 3.336 3.848 6.783 7.451 10.483 11.049.544.479 1.234 1.199 1.778 1.678 2.866 2.637 5.588 5.031 8.564 7.422 3.175 2.509 6.151 4.9 9.636 7.282 2.087 1.552 4.229 2.98 6.625 4.405.599.356 1.397.831 1.997 1.187 1.397.831 2.795 1.662 3.993 2.374-.641 2.571-1.282 5.143-2.068 7.472-.164.369-.183.979-.348 1.347-.296 2.932-1.082 5.262-1.868 7.591Z" fill="#fff" stroke="#000" stroke-width="2" stroke-miterlimit="10" stroke-linecap="round" stroke-linejoin="round"/><path d="M256.165 290.885c3.408-2.896 8.159-10.807-.103-19.281-10.327-10.592-37.856 3.118-44.322 27.102-6.466 23.984 10.736 43.699 34.993 29.247" stroke="#000" stroke-width="2"/><path d="M246.001 367.183h8.79c14.862 0 27.319 11.235 28.847 26.018l5.908 57.167c.548 5.309-3.616 9.926-8.953 9.926h-60.394c-5.336 0-9.501-4.617-8.952-9.926l5.908-57.167c1.528-14.783 13.984-26.018 28.846-26.018Z" fill="#fff" stroke="#000" stroke-width="2"/><path d="M265.55 425.85c0 7.624-6.182 13.805-13.808 13.805-7.626 0-13.808-6.181-13.808-13.805s6.182-13.805 13.808-13.805c7.626 0 13.808 6.181 13.808 13.805Z" fill="#000" stroke="#000" stroke-width="2"/><rect x="211.011" y="481.136" width="77.8754" height="18.6373" rx="9.3186" fill="#fff" stroke="#000" stroke-width="2"/><rect x="246.012" y="428.197" width="10.5647" height="60.8092" rx="5.2823" fill="#fff" stroke="#000" stroke-width="2"/><path d="M358.988 425.505h9.877c5.057 0 9.216 3.843 9.717 8.767h-29.311c.501-4.924 4.66-8.767 9.717-8.767Z" fill="#fff" stroke="#000" stroke-width="2"/><path d="M335.349 422.93c.746 0 2.609-4.706 8.572-4.706 4.488 0 4.929.854 4.552 1.358 1.58-.177 3.421-.187 5.509.09 8.199 1.086 11.18 7.241 10.808 8.327-.428-.326-1.014-.732-1.708-1.16 1.467 1.004 2.857 2.329 3.944 4.057 4.099 6.517-6.336-.724-9.69-1.449 2.112.725 6.41 2.535 6.708 3.983.373 1.81-2.608 1.448-6.708.724-4.099-.724-7.08-.724-11.179 0-4.1.724-7.454 4.707-12.298 4.707h-4.472l5.962-15.931Z" fill="#fff"/><path d="M335.349 422.93c.746 0 2.609-4.706 8.572-4.706 4.77 0 4.968.965 4.472 1.448-1.491.121-4.845.724-6.336 2.172 1.243-1.086 5.367-3.041 11.925-2.172 8.199 1.086 11.18 7.241 10.808 8.327-1.74-1.327-6.112-3.982-9.69-3.982 2.609.12 8.646 1.665 11.926 6.879 4.099 6.517-6.336-.724-9.69-1.449 2.112.725 6.41 2.535 6.708 3.983.373 1.81-2.608 1.448-6.708.724-4.099-.724-7.08-.724-11.179 0-4.1.724-7.454 4.707-12.298 4.707h-4.472l5.962-15.931Z" stroke="#000" stroke-width="2"/><rect x="93" y="38.2402" width="357" height="187.957" rx="10" fill="#fff" stroke="#000" stroke-width="2"/><rect x="98" y="43.2393" width="347" height="177.96" rx="5" fill="#C4C4C4" stroke="#000" stroke-width="2"/><mask id="b" style="mask-type:alpha" maskUnits="userSpaceOnUse" x="99" y="44" width="345" height="177"><rect x="99" y="44.2393" width="345" height="175.96" rx="4" fill="#C4C4C4"/></mask><g mask="url(#b)"><path d="M121 44.2393h322V214.812c0 2.423-1.962 4.388-4.381 4.388H121V44.2393Z" fill="#F8F9F9"/><path d="M217.835 50.376h-90.008c-1.212 0-2.195.9803-2.195 2.1897v62.4073c0 1.209.983 2.189 2.195 2.189h90.008c1.212 0 2.195-.98 2.195-2.189V52.5657c0-1.2094-.983-2.1897-2.195-2.1897ZM331.441 50.376H225.518c-1.213 0-2.196.9803-2.196 2.1897v62.4073c0 1.209.983 2.189 2.196 2.189h105.923c1.212 0 2.195-.98 2.195-2.189V52.5657c0-1.2094-.983-2.1897-2.195-2.1897Z" fill="#fff"/><path d="M155.201 57.2274h-1.307l-.294.8128h-.424l1.191-3.1142h.361l1.194 3.1142h-.422l-.299-.8128Zm-1.183-.338h1.061l-.531-1.4565-.53 1.4565Zm2.637-1.1635.013.2909c.177-.2225.409-.3337.694-.3337.491 0 .738.2759.742.8278v1.5293h-.397v-1.5315c-.001-.1668-.04-.2901-.115-.37-.074-.0798-.191-.1198-.349-.1198-.129 0-.242.0343-.34.1027-.097.0685-.172.1583-.227.2695v1.6491h-.396v-2.3143h.375Zm3.169.3551c-.061-.01-.125-.015-.196-.015-.26 0-.436.1105-.529.3315v1.6427h-.397v-2.3143h.386l.007.2674c.13-.2068.314-.3102.553-.3102.077 0 .136.01.176.03v.3679Zm1.798 1.7303c-.154.1811-.381.2716-.679.2716-.248 0-.436-.0712-.566-.2138-.129-.144-.194-.3565-.195-.6374v-1.5058h.396v1.4951c0 .3507.143.5261.429.5261.303 0 .504-.1126.605-.3379v-1.6833h.396v2.3143h-.377l-.009-.2289Zm1.186.2289v-2.0084h-.367v-.3059h.367v-.2374c0-.2481.066-.4399.199-.5753.133-.1355.321-.2032.564-.2032.092 0 .182.0121.272.0363l-.021.3208a1.148 1.148 0 0 0-.215-.0192c-.128 0-.227.0378-.298.1134-.069.0741-.105.181-.105.3208v.2438h.496v.3059h-.496v2.0084h-.396Zm2.242.0427c-.314 0-.57-.1026-.767-.308-.198-.2067-.296-.4826-.296-.8277v-.0727c0-.2296.043-.4342.131-.6139.088-.181.211-.3222.369-.4234.158-.1027.329-.1541.514-.1541.302 0 .536.0991.703.2973.167.1983.251.482.251.8513v.1647h-1.572c.006.2281.073.4128.2.554.129.1397.292.2096.489.2096.14 0 .259-.0285.356-.0856a.8966.8966 0 0 0 .255-.2267l.242.1882c-.194.2981-.486.447-.875.447Zm-.049-2.0746c-.16 0-.294.0584-.403.1753-.109.1155-.176.2781-.201.4877h1.161v-.03c-.011-.201-.065-.3564-.163-.4662-.097-.1113-.228-.1668-.394-.1668Zm2.536.0727a1.188 1.188 0 0 0-.195-.015c-.26 0-.437.1105-.53.3315v1.6427h-.396v-2.3143h.386l.006.2674c.13-.2068.315-.3102.553-.3102.078 0 .136.01.176.03v.3679Zm.74 1.6362h1.357v.323h-1.842v-.2909l1.28-1.6961h-1.261v-.3273h1.759v.2802l-1.293 1.7111Zm3.237.0941c-.155.1811-.381.2716-.68.2716-.247 0-.436-.0712-.566-.2138-.128-.144-.193-.3565-.194-.6374v-1.5058h.396v1.4951c0 .3507.143.5261.428.5261.304 0 .505-.1126.605-.3379v-1.6833h.397v2.3143h-.378l-.008-.2289Zm1.186.2289v-2.0084h-.367v-.3059h.367v-.2374c0-.2481.066-.4399.199-.5753.133-.1355.321-.2032.564-.2032.091 0 .182.0121.272.0363l-.022.3208a1.1371 1.1371 0 0 0-.214-.0192c-.129 0-.228.0378-.298.1134-.07.0741-.105.181-.105.3208v.2438h.496v.3059h-.496v2.0084h-.396Zm2.452-1.9592a1.188 1.188 0 0 0-.195-.015c-.26 0-.437.1105-.53.3315v1.6427h-.396v-2.3143h.386l.006.2674c.13-.2068.315-.3102.553-.3102.078 0 .136.01.176.03v.3679Zm.798 1.9592h-.397v-2.3143h.397v2.3143Zm-.429-2.9282c0-.0641.019-.1183.058-.1625.04-.0442.099-.0663.175-.0663.078 0 .137.0221.176.0663.04.0442.06.0984.06.1625 0 .0642-.02.1177-.06.1605-.039.0427-.098.0641-.176.0641-.076 0-.135-.0214-.175-.0641-.039-.0428-.058-.0963-.058-.1605Zm2.028 2.9709c-.314 0-.57-.1026-.768-.308-.197-.2067-.295-.4826-.295-.8277v-.0727c0-.2296.043-.4342.13-.6139.089-.181.212-.3222.369-.4234.159-.1027.33-.1541.515-.1541.301 0 .535.0991.703.2973.167.1983.251.482.251.8513v.1647h-1.572c.006.2281.072.4128.2.554.128.1397.291.2096.489.2096.139 0 .258-.0285.355-.0856a.8966.8966 0 0 0 .255-.2267l.242.1882c-.194.2981-.485.447-.874.447Zm-.049-2.0746c-.161 0-.295.0584-.404.1753-.108.1155-.175.2781-.201.4877h1.162v-.03c-.011-.201-.066-.3564-.163-.4662-.097-.1113-.229-.1668-.394-.1668Zm1.318.8555c0-.3551.085-.6402.253-.8555.169-.2168.39-.3252.662-.3252s.487.0927.646.2781v-1.2063h.397v3.2853h-.365l-.019-.2481c-.159.1939-.38.2908-.663.2908-.268 0-.488-.1097-.658-.3293-.168-.2196-.253-.5062-.253-.8599v-.0299Zm.397.0449c0 .2624.054.4677.163.616.108.1483.258.2224.45.2224.251 0 .435-.1126.551-.3379v-1.063c-.119-.2182-.301-.3273-.547-.3273-.194 0-.346.0749-.454.2247-.109.1497-.163.3714-.163.6651Zm3.14 1.1742c-.314 0-.57-.1026-.767-.308-.197-.2067-.296-.4826-.296-.8277v-.0727c0-.2296.043-.4342.131-.6139.089-.181.212-.3222.369-.4234.158-.1027.33-.1541.514-.1541.302 0 .536.0991.703.2973.168.1983.251.482.251.8513v.1647h-1.571c.005.2281.072.4128.199.554.129.1397.292.2096.489.2096.14 0 .259-.0285.356-.0856a.8966.8966 0 0 0 .255-.2267l.242.1882c-.194.2981-.486.447-.875.447Zm-.049-2.0746c-.16 0-.294.0584-.403.1753-.109.1155-.176.2781-.201.4877h1.161v-.03c-.011-.201-.065-.3564-.163-.4662-.097-.1113-.228-.1668-.394-.1668Zm1.79-.2824.013.2909c.178-.2225.409-.3337.695-.3337.49 0 .737.2759.742.8278v1.5293h-.397v-1.5315c-.001-.1668-.04-.2901-.116-.37-.074-.0798-.191-.1198-.349-.1198-.129 0-.242.0343-.339.1027-.097.0685-.173.1583-.228.2695v1.6491h-.396v-2.3143h.375Zm2.444.2802c.176-.2153.404-.323.686-.323.491 0 .738.2759.742.8278v1.5293h-.397v-1.5315c-.001-.1668-.04-.2901-.116-.37-.074-.0798-.19-.1198-.349-.1198-.129 0-.241.0343-.338.1027a.6905.6905 0 0 0-.228.2695v1.6491h-.396v-3.2853h.396v1.2512Zm2.985 2.0768c-.315 0-.571-.1026-.768-.308-.197-.2067-.296-.4826-.296-.8277v-.0727c0-.2296.044-.4342.131-.6139.088-.181.211-.3222.369-.4234.158-.1027.33-.1541.514-.1541.302 0 .536.0991.703.2973.168.1983.251.482.251.8513v.1647h-1.571c.006.2281.072.4128.199.554.129.1397.292.2096.489.2096.14 0 .258-.0285.356-.0856a.8966.8966 0 0 0 .255-.2267l.242.1882c-.194.2981-.486.447-.874.447Zm-.05-2.0746c-.16 0-.294.0584-.403.1753-.108.1155-.176.2781-.201.4877h1.162v-.03c-.012-.201-.066-.3564-.163-.4662-.097-.1113-.229-.1668-.395-.1668Zm1.846 2.0319h-.396v-2.3143h.396v2.3143Zm-.429-2.9282c0-.0641.019-.1183.058-.1625.04-.0442.099-.0663.176-.0663.077 0 .136.0221.176.0663.04.0442.06.0984.06.1625 0 .0642-.02.1177-.06.1605-.04.0427-.099.0641-.176.0641-.077 0-.136-.0214-.176-.0641-.039-.0428-.058-.0963-.058-.1605Zm1.604.0535v.5604h.433v.3059h-.433v1.4351c0 .0927.019.1626.058.2097.038.0456.104.0684.197.0684.046 0 .109-.0085.189-.0256v.3208a1.153 1.153 0 0 1-.305.0427c-.177 0-.31-.0534-.401-.1603-.09-.107-.135-.2589-.135-.4557v-1.4351h-.422v-.3059h.422v-.5604h.397ZM267.865 57.059l.061.4107.088-.3701.617-2.173h.347l.602 2.173.086.3765.067-.4192.484-2.1303h.414l-.757 3.1142h-.375l-.643-2.2694-.049-.2374-.05.2374-.667 2.2694h-.374l-.755-3.1142h.412l.492 2.1324Zm4.522.9818c-.023-.0456-.042-.127-.056-.2439-.184.1911-.404.2866-.66.2866-.229 0-.417-.0641-.564-.1924-.146-.1298-.219-.2938-.219-.492 0-.241.092-.4278.275-.5604.184-.134.443-.201.776-.201h.386v-.1818c0-.1383-.042-.2482-.124-.3294-.083-.0827-.206-.1241-.367-.1241-.142 0-.26.0356-.356.107-.096.0713-.144.1575-.144.2588h-.398c0-.1155.04-.2268.122-.3337.083-.1084.194-.1939.334-.2567.142-.0627.297-.0941.466-.0941.267 0 .476.067.627.2011.152.1326.23.3158.236.5497v1.0651c0 .2125.027.3814.082.5069v.0343h-.416Zm-.658-.3016c.124 0 .242-.0321.354-.0963.111-.0642.192-.1476.242-.2502v-.4749h-.311c-.486 0-.729.1419-.729.4257 0 .124.041.221.124.2909.083.0698.19.1048.32.1048Zm2.735-1.6576a1.177 1.177 0 0 0-.195-.015c-.26 0-.436.1105-.53.3315v1.6427h-.396v-2.3143h.386l.006.2673c.13-.2067.315-.3101.553-.3101.078 0 .136.01.176.03v.3679Zm1.012-.9155v.5604h.433v.3058h-.433v1.4352c0 .0927.019.1626.058.2096.039.0457.104.0685.197.0685.046 0 .109-.0086.189-.0256v.3208a1.153 1.153 0 0 1-.305.0427c-.177 0-.31-.0534-.4-.1603-.09-.107-.135-.2589-.135-.4557v-1.4352h-.423v-.3058h.423v-.5604h.396Zm1.861 2.9174c-.314 0-.57-.1026-.767-.308-.198-.2067-.297-.4826-.297-.8277v-.0727c0-.2296.044-.4342.132-.6139.088-.1811.211-.3222.368-.4235.159-.1026.33-.154.515-.154.302 0 .536.0991.703.2973.167.1982.251.482.251.8513v.1647h-1.572c.006.2281.073.4128.199.554.129.1397.292.2096.489.2096.14 0 .259-.0285.356-.0856a.8706.8706 0 0 0 .255-.2267l.243.1882c-.194.298-.486.447-.875.447Zm-.049-2.0747c-.161 0-.295.0585-.403.1754-.109.1155-.176.2781-.202.4877h1.162v-.03c-.011-.201-.066-.3564-.163-.4662-.097-.1113-.229-.1669-.394-.1669Zm1.788 1.709h1.357v.323h-1.842v-.2909l1.28-1.6962h-1.261v-.3272h1.758v.2802l-1.292 1.7111Zm2.733.3657c-.315 0-.57-.1026-.767-.308-.197-.2067-.296-.4826-.296-.8277v-.0727c0-.2296.043-.4342.13-.6139.089-.1811.212-.3222.369-.4235.159-.1026.331-.154.515-.154.301 0 .536.0991.703.2973.167.1982.251.482.251.8513v.1647h-1.571c.005.2281.071.4128.199.554.128.1397.291.2096.488.2096.141 0 .259-.0285.356-.0856a.887.887 0 0 0 .256-.2267l.242.1882c-.195.298-.486.447-.875.447Zm-.049-2.0747c-.16 0-.295.0585-.403.1754-.109.1155-.176.2781-.202.4877h1.162v-.03c-.011-.201-.066-.3564-.163-.4662-.097-.1113-.228-.1669-.394-.1669Zm1.846 2.032h-.397v-2.3143h.397v2.3143Zm-.429-2.9282c0-.0641.019-.1183.058-.1625.04-.0442.099-.0663.175-.0663.078 0 .136.0221.177.0663.04.0442.059.0984.059.1625 0 .0642-.019.1177-.059.1604-.041.0428-.099.0642-.177.0642-.076 0-.135-.0214-.175-.0642-.039-.0427-.058-.0962-.058-.1604Zm1.603.0535v.5604h.434v.3058h-.434v1.4352c0 .0927.02.1626.058.2096.039.0457.105.0685.197.0685.047 0 .109-.0086.189-.0256v.3208a1.1514 1.1514 0 0 1-.304.0427c-.178 0-.311-.0534-.401-.1603-.09-.107-.135-.2589-.135-.4557v-1.4352h-.423v-.3058h.423v-.5604h.396Zm1.861 2.9174c-.314 0-.57-.1026-.767-.308-.198-.2067-.296-.4826-.296-.8277v-.0727c0-.2296.044-.4342.131-.6139.088-.1811.211-.3222.369-.4235.158-.1026.329-.154.514-.154.302 0 .536.0991.703.2973.167.1982.251.482.251.8513v.1647h-1.572c.007.2281.073.4128.2.554.129.1397.292.2096.489.2096.14 0 .259-.0285.356-.0856a.8966.8966 0 0 0 .255-.2267l.242.1882c-.194.298-.486.447-.875.447Zm-.049-2.0747c-.16 0-.294.0585-.403.1754-.109.1155-.176.2781-.201.4877h1.161v-.03c-.011-.201-.065-.3564-.163-.4662-.097-.1113-.228-.1669-.394-.1669Zm1.79-.2823.013.2909c.177-.2225.409-.3337.695-.3337.49 0 .737.2759.742.8277v1.5294h-.397v-1.5315c-.002-.1668-.04-.2901-.116-.37-.074-.0799-.191-.1198-.35-.1198-.128 0-.241.0342-.338.1027a.6958.6958 0 0 0-.227.2695v1.6491h-.397v-2.3143h.375Z" fill="#959595"/><path opacity=".3" d="M188.197 62.4199h-30.734c-.606 0-1.098.4903-1.098 1.0951v.5476c0 .6048.492 1.0951 1.098 1.0951h30.734c.606 0 1.098-.4903 1.098-1.0951v-.5476c0-.6048-.492-1.0951-1.098-1.0951ZM286.986 62.4199h-17.562c-.606 0-1.098.4903-1.098 1.0951v.5476c0 .6048.492 1.0951 1.098 1.0951h17.562c.606 0 1.098-.4903 1.098-1.0951v-.5476c0-.6048-.492-1.0951-1.098-1.0951Z" fill="#000"/><use stroke-width="4" stroke-linecap="round" stroke-linejoin="round" xlink:href="#reuse-0"/><use stroke-width="4" stroke-linecap="round" stroke-linejoin="round" xlink:href="#reuse-0"/><path d="M144.292 105.667c0-15.7221 12.777-28.4668 28.539-28.4668 10.433 0 19.558 5.5838 24.536 13.9189" stroke="#99CFAF" stroke-width="4" stroke-linecap="round" stroke-linejoin="round"/><path d="m165.636 95.1971-5.171 11.5649h-1.663l5.153-11.1544h-6.757v-1.3001h8.438v.8896Zm9.631 6.2529c0 1.853-.318 3.23-.953 4.131-.634.901-1.626 1.351-2.975 1.351-1.332 0-2.319-.439-2.958-1.317-.641-.883-.972-2.201-.995-3.951v-2.1132c0-1.8306.317-3.1905.951-4.08.635-.8896 1.63-1.3341 2.985-1.3341 1.343 0 2.332.4303 2.967 1.2914.634.8551.96 2.1782.978 3.9688v2.0531Zm-1.587-2.1642c0-1.3401-.189-2.3151-.566-2.9255-.377-.6158-.975-.924-1.792-.924-.812 0-1.404.3054-1.775.9153-.372.6104-.563 1.5481-.575 2.8143v2.5321c0 1.345.194 2.341.583 2.985.395.639.989.958 1.784.958.783 0 1.364-.302 1.741-.907.383-.604.583-1.557.6-2.857v-2.5912Zm3.482-2.5833c0-.7472.237-1.3631.712-1.8476.479-.4845 1.094-.727 1.843-.727.76 0 1.375.2453 1.844.7358.474.4845.711 1.1145.711 1.8902v.6072c0 .7527-.239 1.3685-.72 1.8475-.474.4736-1.08.71-1.818.71-.743 0-1.358-.2364-1.843-.71-.487-.479-.729-1.1145-.729-1.9072v-.5989Zm1.183.6586c0 .445.126.8123.377 1.1036.252.2852.589.4275 1.012.4275.406 0 .732-.1396.978-.4193.251-.2792.377-.6613.377-1.1458v-.6246c0-.4451-.123-.8124-.369-1.1036-.246-.2907-.58-.4363-1.003-.4363-.423 0-.757.1456-1.003.4363-.246.2912-.369.67-.369 1.1381v.6241Zm4.897 6.3469c0-.747.237-1.36.711-1.839.481-.485 1.095-.727 1.844-.727.749 0 1.363.239 1.844.718.48.479.72 1.115.72 1.908v.607c0 .747-.24 1.363-.72 1.848-.475.479-1.084.718-1.827.718-.743 0-1.358-.236-1.843-.71-.487-.479-.729-1.115-.729-1.907v-.616Zm1.183.667c0 .451.126.821.377 1.112.252.285.589.428 1.012.428.412 0 .74-.14.986-.419.246-.285.369-.67.369-1.155v-.633c0-.451-.126-.818-.377-1.104-.246-.285-.578-.427-.995-.427-.406 0-.738.142-.995.427-.251.28-.377.659-.377 1.138v.633Zm-4.331 1.445-.9-.564 6.097-9.7338.901.5644-6.098 9.7334Z" fill="#99CFAF"/><path d="M443 44.2393H339V219.2h104V44.2393Z" fill="#E7E7E7"/><path d="M121 44.2393H99V219.2h22V44.2393Z" fill="#434F57"/><path d="M104.776 54.755c0 2.7292 2.228 4.9268 4.94 4.9268.387 0 .775-.0484 1.138-.1449v-2.7532c-.339.1933-.727.2898-1.138.2898-1.284 0-2.324-1.0384-2.324-2.3185 0-1.2801 1.04-2.3185 2.324-2.3185.412 0 .799.1209 1.138.2898v-2.7532a4.327 4.327 0 0 0-1.138-.1449c-2.712 0-4.94 2.222-4.94 4.9268Zm7.264-4.3472v8.6944c1.55-.821 2.615-2.4634 2.615-4.3472s-1.041-3.5261-2.615-4.3472Z" fill="#86EC16"/><path d="M436.816 50.376h-90.007c-1.213 0-2.196.9803-2.196 2.1897V81.032c0 1.2093.983 2.1897 2.196 2.1897h90.007c1.212 0 2.195-.9804 2.195-2.1897V52.5657c0-1.2094-.983-2.1897-2.195-2.1897ZM436.816 122.637h-90.007c-1.213 0-2.196.98-2.196 2.189v87.589c0 1.209.983 2.19 2.196 2.19h90.007c1.212 0 2.195-.981 2.195-2.19v-87.589c0-1.209-.983-2.189-2.195-2.189Z" fill="#fff"/><path opacity=".5" d="M426.937 129.206h-74.64c-.606 0-1.098.49-1.098 1.095v2.19c0 .605.492 1.095 1.098 1.095h74.64c.606 0 1.098-.49 1.098-1.095v-2.19c0-.605-.492-1.095-1.098-1.095Z" fill="#000"/><path d="M363.674 58.0406v-3.1142h.881c.272 0 .512.0599.72.1797.209.1198.37.2902.483.5111.114.2211.172.4749.174.7615v.1989c0 .2938-.057.5511-.172.7722-.113.2209-.275.3906-.486.509-.211.1183-.456.179-.736.1818h-.864Zm.411-2.7763v2.4405h.434c.317 0 .564-.0984.739-.2951.178-.1968.266-.477.266-.8406v-.1818c0-.3537-.084-.6282-.25-.8235-.167-.1968-.402-.2966-.708-.2995h-.481Zm3.841 2.5474c-.155.1812-.381.2717-.68.2717-.247 0-.436-.0713-.566-.2139-.129-.144-.194-.3565-.195-.6374v-1.5058h.396v1.4951c0 .3508.143.5262.429.5262.303 0 .505-.1127.605-.3379v-1.6834h.396v2.3143h-.377l-.008-.2289Zm2.111-1.7303a1.188 1.188 0 0 0-.195-.015c-.26 0-.437.1106-.53.3315v1.6427h-.396v-2.3143h.385l.007.2674c.13-.2068.315-.3101.553-.3101.078 0 .136.0099.176.0299v.3679Zm1.254 1.679c.142 0 .265-.0427.371-.1283.106-.0856.165-.1925.176-.3208h.375c-.007.1326-.053.2587-.137.3785-.085.1198-.197.2153-.339.2866a.9674.9674 0 0 1-.446.107c-.316 0-.567-.1048-.755-.3144-.185-.2111-.278-.4991-.278-.8641v-.0663c0-.2254.041-.4257.124-.6011.083-.1754.202-.3115.356-.4085.156-.0969.339-.1454.551-.1454.26 0 .476.0777.647.2331.173.1554.265.3572.277.6053h-.375c-.011-.1497-.069-.2723-.172-.3679-.101-.097-.227-.1454-.377-.1454-.202 0-.358.0727-.469.2181-.111.144-.166.3529-.166.6267v.0749c0 .2666.055.472.166.616.11.144.267.216.471.216Zm1.764-1.7538c.177-.2154.405-.323.686-.323.491 0 .738.2759.743.8277v1.5293h-.397v-1.5314c-.001-.1669-.04-.2902-.116-.3701-.074-.0798-.191-.1197-.35-.1197-.128 0-.241.0342-.338.1026-.097.0685-.173.1583-.228.2695v1.6491h-.396v-3.2853h.396v1.2513Zm3.373 1.4201c0-.1069-.041-.1896-.122-.2481-.081-.0599-.221-.1112-.422-.154-.201-.0427-.36-.0941-.479-.154-.117-.0599-.204-.1311-.261-.2138-.056-.0828-.084-.1812-.084-.2952 0-.1897.08-.3501.24-.4813.162-.1311.367-.1967.618-.1967.262 0 .475.0677.638.2031.165.1355.247.3088.247.5198h-.399c0-.1084-.046-.2018-.139-.2802-.092-.0784-.207-.1176-.347-.1176-.145 0-.258.0314-.339.0941-.082.0627-.122.1447-.122.246 0 .0955.037.1675.113.216.076.0484.213.0948.41.139.198.0442.359.097.482.1583.123.0613.214.1355.272.2224.061.0856.09.1904.09.3144 0 .2068-.083.3729-.248.4984-.166.124-.381.1861-.646.1861-.185 0-.35-.0328-.493-.0984-.142-.0656-.255-.1568-.336-.2738-.08-.1183-.12-.246-.12-.3829h.397c.007.1327.059.2382.158.3166.1.077.232.1155.394.1155.151 0 .271-.0299.361-.0898.091-.0614.137-.1426.137-.2439Zm1.844.3337c.141 0 .265-.0427.371-.1283.105-.0856.164-.1925.175-.3208h.376c-.008.1326-.054.2587-.138.3785-.084.1198-.197.2153-.338.2866a.9734.9734 0 0 1-.446.107c-.316 0-.568-.1048-.755-.3144-.186-.2111-.279-.4991-.279-.8641v-.0663c0-.2254.042-.4257.125-.6011.083-.1754.201-.3115.355-.4085.156-.0969.34-.1454.551-.1454.26 0 .476.0777.648.2331.173.1554.265.3572.277.6053h-.376c-.011-.1497-.068-.2723-.171-.3679-.102-.097-.227-.1454-.378-.1454-.201 0-.358.0727-.469.2181-.11.144-.165.3529-.165.6267v.0749c0 .2666.055.472.165.616.11.144.267.216.472.216Zm1.764-1.7538c.176-.2154.404-.323.686-.323.49 0 .738.2759.742.8277v1.5293h-.397v-1.5314c-.001-.1669-.04-.2902-.116-.3701-.074-.0798-.191-.1197-.349-.1197-.129 0-.242.0342-.339.1026a.6965.6965 0 0 0-.227.2695v1.6491h-.397v-3.2853h.397v1.2513Zm2.397-.2803.013.2909c.177-.2224.408-.3336.694-.3336.49 0 .738.2759.742.8277v1.5293h-.397v-1.5314c-.001-.1669-.04-.2902-.115-.3701-.075-.0798-.191-.1197-.35-.1197-.128 0-.242.0342-.339.1026a.6965.6965 0 0 0-.227.2695v1.6491h-.396v-2.3143h.375Zm2.478 2.3143h-.397v-2.3143h.397v2.3143Zm-.428-2.9281c0-.0642.019-.1184.057-.1626.04-.0442.099-.0663.176-.0663.077 0 .136.0221.176.0663.04.0442.06.0984.06.1626 0 .0641-.02.1176-.06.1604-.04.0428-.099.0642-.176.0642-.077 0-.136-.0214-.176-.0642-.038-.0428-.057-.0963-.057-.1604Zm1.603.0535v.5603h.433v.3059h-.433v1.4352c0 .0927.019.1625.058.2096.038.0456.104.0684.197.0684.046 0 .109-.0085.189-.0256v.3208a1.1589 1.1589 0 0 1-.305.0428c-.177 0-.311-.0535-.401-.1604-.09-.107-.135-.2588-.135-.4556v-1.4352h-.422v-.3059h.422v-.5603h.397Zm1.437 0v.5603h.433v.3059h-.433v1.4352c0 .0927.019.1625.057.2096.039.0456.104.0684.197.0684.046 0 .109-.0085.189-.0256v.3208a1.1517 1.1517 0 0 1-.304.0428c-.177 0-.311-.0535-.401-.1604-.09-.107-.135-.2588-.135-.4556v-1.4352h-.423v-.3059h.423v-.5603h.397Zm1.328 2.8746h-.396v-3.2853h.396v3.2853Zm1.068 0h-.397v-2.3143h.397v2.3143Zm-.428-2.9281c0-.0642.019-.1184.057-.1626.04-.0442.099-.0663.176-.0663.077 0 .136.0221.176.0663.04.0442.06.0984.06.1626 0 .0641-.02.1176-.06.1604-.04.0428-.099.0642-.176.0642-.077 0-.136-.0214-.176-.0642-.038-.0428-.057-.0963-.057-.1604Zm1.995 2.6479c.142 0 .265-.0427.371-.1283.106-.0856.165-.1925.176-.3208h.375c-.007.1326-.053.2587-.137.3785-.085.1198-.197.2153-.339.2866a.9674.9674 0 0 1-.446.107c-.315 0-.567-.1048-.754-.3144-.186-.2111-.279-.4991-.279-.8641v-.0663c0-.2254.041-.4257.124-.6011.083-.1754.202-.3115.356-.4085.156-.0969.34-.1454.551-.1454.26 0 .476.0777.648.2331.172.1554.265.3572.276.6053h-.375c-.011-.1497-.069-.2723-.171-.3679-.102-.097-.228-.1454-.378-.1454-.201 0-.358.0727-.469.2181-.111.144-.165.3529-.165.6267v.0749c0 .2666.054.472.165.616.109.144.267.216.471.216Zm1.765-1.7538c.175-.2154.404-.323.686-.323.49 0 .737.2759.742.8277v1.5293h-.397v-1.5314c-.002-.1669-.04-.2902-.116-.3701-.074-.0798-.191-.1197-.35-.1197-.128 0-.241.0342-.338.1026a.6965.6965 0 0 0-.227.2695v1.6491h-.397v-3.2853h.397v1.2513Zm2.984 2.0768c-.314 0-.57-.1027-.768-.308-.197-.2068-.295-.4827-.295-.8278v-.0727c0-.2296.043-.4342.13-.6138.089-.1811.212-.3223.369-.4235.159-.1027.33-.154.515-.154.301 0 .535.0991.703.2973.167.1982.251.4819.251.8513v.1647h-1.572c.006.2281.072.4128.2.5539.128.1398.291.2096.489.2096.14 0 .258-.0285.355-.0856a.8966.8966 0 0 0 .255-.2267l.242.1882c-.194.2981-.485.4471-.874.4471Zm-.049-2.0747c-.161 0-.295.0584-.404.1754-.108.1154-.175.278-.201.4876h1.162v-.0299c-.011-.2011-.066-.3565-.163-.4663-.097-.1112-.229-.1668-.394-.1668Zm3.485.6437c-.353-.1012-.61-.2252-.771-.3721-.161-.1483-.24-.3308-.24-.5475 0-.2453.098-.4478.294-.6075.197-.1611.452-.2417.767-.2417.214 0 .405.0414.572.1241.169.0827.299.1967.39.3422.093.1455.14.3044.14.4769h-.414c0-.1881-.06-.3357-.18-.4427-.12-.1084-.289-.1625-.508-.1625-.203 0-.362.0449-.476.1347-.113.0884-.17.2118-.17.37 0 .1269.054.2346.161.323.109.087.293.1669.551.2396.26.0727.463.1532.609.2417.147.0869.256.1889.326.3058.072.1169.107.2545.107.4128 0 .2524-.098.4549-.295.6075-.198.1511-.461.2267-.792.2267-.214 0-.414-.0407-.6-.1219-.186-.0828-.33-.1954-.431-.338-.1-.1426-.15-.3044-.15-.4855h.414c0 .1882.069.3372.208.447.14.1084.326.1626.559.1626.217 0 .384-.0442.5-.1326.115-.0884.174-.209.174-.3615 0-.1526-.054-.2702-.161-.3529-.107-.0842-.302-.1668-.584-.2482Zm2.556 1.108c.141 0 .265-.0427.371-.1283.106-.0856.164-.1925.176-.3208h.375c-.007.1326-.053.2587-.137.3785-.084.1198-.198.2153-.339.2866a.9704.9704 0 0 1-.446.107c-.316 0-.567-.1048-.754-.3144-.186-.2111-.279-.4991-.279-.8641v-.0663c0-.2254.041-.4257.124-.6011.083-.1754.202-.3115.356-.4085.156-.0969.339-.1454.551-.1454.26 0 .476.0777.647.2331.173.1554.265.3572.277.6053h-.375c-.012-.1497-.069-.2723-.172-.3679-.101-.097-.227-.1454-.377-.1454-.202 0-.358.0727-.47.2181-.11.144-.165.3529-.165.6267v.0749c0 .2666.055.472.165.616.111.144.268.216.472.216Zm1.764-1.7538c.176-.2154.405-.323.686-.323.491 0 .738.2759.742.8277v1.5293h-.397v-1.5314c-.001-.1669-.04-.2902-.115-.3701-.074-.0798-.191-.1197-.349-.1197-.129 0-.242.0342-.34.1026a.6965.6965 0 0 0-.227.2695v1.6491h-.396v-3.2853h.396v1.2513Zm2.453 2.034h-.396v-3.2853h.396v3.2853Zm1.067 0h-.396v-2.3143h.396v2.3143Zm-.428-2.9281c0-.0642.019-.1184.058-.1626.04-.0442.098-.0663.176-.0663.077 0 .135.0221.175.0663.04.0442.06.0984.06.1626 0 .0641-.02.1176-.06.1604-.04.0428-.098.0642-.175.0642-.078 0-.136-.0214-.176-.0642-.039-.0428-.058-.0963-.058-.1604Zm2.028 2.9709c-.314 0-.571-.1027-.768-.308-.197-.2068-.295-.4827-.295-.8278v-.0727c0-.2296.043-.4342.13-.6138.089-.1811.212-.3223.369-.4235.159-.1027.33-.154.515-.154.301 0 .535.0991.703.2973.167.1982.251.4819.251.8513v.1647h-1.572c.006.2281.072.4128.2.5539.128.1398.291.2096.489.2096.14 0 .258-.0285.355-.0856a.8966.8966 0 0 0 .255-.2267l.242.1882c-.194.2981-.485.4471-.874.4471Zm-.049-2.0747c-.16 0-.295.0584-.404.1754-.108.1154-.175.278-.201.4876h1.162v-.0299c-.012-.2011-.065-.3565-.163-.4663-.097-.1112-.228-.1668-.394-.1668Zm1.809 2.0319h-.397v-2.3763c0-.2966.074-.5283.221-.6951.149-.1683.356-.2524.622-.2524.257 0 .456.0642.596.1925.142.1269.212.3037.212.5304 0 .1783-.046.3401-.137.4855-.092.1441-.137.2653-.137.3637 0 .0727.026.1433.079.2117.054.067.149.1518.283.2545.135.1027.232.2025.294.2995.061.0969.092.1996.092.308 0 .2267-.073.4035-.218.5304-.145.1269-.347.1904-.607.1904-.116 0-.239-.0157-.369-.0471-.129-.0313-.22-.067-.275-.1069l.093-.3316c.07.0457.153.0842.248.1155.097.0314.184.0471.26.0471.153 0 .269-.0335.349-.1005.082-.067.122-.159.122-.2759 0-.0742-.026-.1455-.079-.2139-.053-.0684-.147-.1547-.283-.2588-.135-.1055-.233-.2075-.296-.3059a.598.598 0 0 1-.092-.3208c0-.1269.049-.2638.148-.4107.1-.1483.15-.2823.15-.4021 0-.134-.037-.2388-.111-.3144-.075-.077-.175-.1155-.301-.1155-.311 0-.467.2089-.467.6267v2.372Zm2.59-.3229h1.357v.3229h-1.842v-.2909l1.28-1.6961h-1.26v-.3273h1.758v.2803l-1.293 1.7111Zm2.733.3657c-.314 0-.57-.1027-.767-.308-.198-.2068-.296-.4827-.296-.8278v-.0727c0-.2296.044-.4342.131-.6138.088-.1811.211-.3223.368-.4235.159-.1027.331-.154.515-.154.301 0 .536.0991.703.2973.167.1982.251.4819.251.8513v.1647h-1.571c.005.2281.071.4128.199.5539.129.1398.291.2096.489.2096.14 0 .258-.0285.355-.0856a.9002.9002 0 0 0 .256-.2267l.242.1882c-.195.2981-.486.4471-.875.4471Zm-.049-2.0747c-.16 0-.295.0584-.403.1754-.109.1154-.176.278-.202.4876h1.163v-.0299c-.012-.2011-.066-.3565-.163-.4663-.098-.1112-.229-.1668-.395-.1668Zm1.846 2.0319h-.397v-2.3143h.397v2.3143Zm-.429-2.9281c0-.0642.019-.1184.058-.1626.04-.0442.098-.0663.176-.0663.077 0 .135.0221.175.0663.04.0442.06.0984.06.1626 0 .0641-.02.1176-.06.1604-.04.0428-.098.0642-.175.0642-.078 0-.136-.0214-.176-.0642-.039-.0428-.058-.0963-.058-.1604Zm1.604.0535v.5603h.433v.3059h-.433v1.4352c0 .0927.019.1625.057.2096.039.0456.105.0684.198.0684.045 0 .109-.0085.188-.0256v.3208a1.1517 1.1517 0 0 1-.304.0428c-.177 0-.311-.0535-.401-.1604-.09-.107-.135-.2588-.135-.4556v-1.4352h-.422v-.3059h.422v-.5603h.397Z" fill="#959595"/><path opacity=".3" d="M398.768 61.3252h-14.09c-.606 0-1.098.4903-1.098 1.0951v.5951c0 .6048.492 1.0951 1.098 1.0951h14.09c.606 0 1.097-.4903 1.097-1.0951v-.5951c0-.6048-.491-1.0951-1.097-1.0951Z" fill="#000"/><path d="M374.431 74.0959c0 1.2745-.218 2.221-.655 2.8407-.436.6191-1.118.9289-2.046.9289-.915 0-1.593-.3021-2.033-.9054-.441-.6077-.668-1.5136-.684-2.7169v-1.4529c0-1.258.218-2.193.654-2.805.436-.6115 1.12-.9169 2.052-.9169.924 0 1.604.2956 2.039.8879.437.5879.661 1.4972.673 2.7284v1.4112Zm-1.091-1.4879c0-.9213-.13-1.5913-.389-2.0107-.26-.4237-.67-.6355-1.232-.6355-.558 0-.965.2096-1.221.6295-.255.4193-.387 1.0642-.395 1.9346v1.7408c0 .9252.134 1.6089.401 2.0524.272.439.68.6585 1.226.6585.539 0 .938-.208 1.197-.6235.264-.4155.401-1.0702.413-1.9642V72.608Zm7.093 2.2642h1.191v.8879h-1.191v1.9877h-1.097v-1.9877h-3.909v-.641l3.844-5.9336h1.162v5.6867Zm-3.768 0h2.671v-4.1988l-.13.2354-2.541 3.9634Zm6.019 2.3052c0-.1883.055-.3449.166-.4702.114-.1259.283-.1883.507-.1883.224 0 .393.0624.507.1883.117.1253.177.2819.177.4702 0 .1801-.06.3312-.177.4527-.114.1216-.283.1823-.507.1823-.224 0-.393-.0607-.507-.1823-.111-.1215-.166-.2726-.166-.4527Zm.007-5.1923c0-.1884.054-.3455.165-.4708.113-.1254.282-.1878.506-.1878.225 0 .394.0624.507.1878.118.1253.178.2824.178.4708 0 .1801-.06.3312-.178.4527-.113.1215-.282.1823-.507.1823-.224 0-.393-.0608-.506-.1823-.111-.1215-.165-.2726-.165-.4527Zm6.426 5.7627h-1.097v-7.2507l-2.199.8059v-.9881l3.124-1.1704h.172v8.6033Zm7.375-3.7635a2.6453 2.6453 0 0 1-.82.6525c-.314.1648-.66.2474-1.037.2474-.495 0-.928-.1215-1.297-.3645-.366-.2431-.648-.5847-.849-1.0237-.201-.4429-.301-.9307-.301-1.4639 0-.5726.108-1.0882.324-1.547.22-.4582.531-.8091.932-1.0522.401-.243.868-.3645 1.403-.3645.849 0 1.517.3175 2.005.9525.491.6312.736 1.4934.736 2.5871v.3175c0 1.6664-.329 2.8839-.99 3.6519-.66.7648-1.657 1.1568-2.989 1.1765h-.212v-.9175h.23c.9-.0159 1.592-.2491 2.075-.6996.484-.455.747-1.1726.79-2.1525Zm-1.68 0c.365 0 .701-.1117 1.008-.3351.31-.2239.536-.4998.678-.8293v-.4352c0-.7133-.155-1.2936-.466-1.7408-.31-.4467-.703-.6701-1.179-.6701-.48 0-.865.1839-1.155.5529-.291.3646-.437.8463-.437 1.4463 0 .5841.14 1.0664.419 1.4469.283.3761.66.5644 1.132.5644Zm4.356 3.1931c0-.1883.056-.3449.166-.4702.114-.1259.283-.1883.507-.1883.224 0 .393.0624.507.1883.118.1253.177.2819.177.4702 0 .1801-.059.3312-.177.4527-.114.1216-.283.1823-.507.1823-.224 0-.393-.0607-.507-.1823-.11-.1215-.166-.2726-.166-.4527Zm.006-5.1923c0-.1884.055-.3455.166-.4708.114-.1254.282-.1878.507-.1878.224 0 .393.0624.506.1878.118.1253.178.2824.178.4708 0 .1801-.06.3312-.178.4527-.113.1215-.282.1823-.506.1823-.225 0-.393-.0608-.507-.1823-.111-.1215-.166-.2726-.166-.4527Zm8.467 5.7627h-5.625v-.7822l2.972-3.2928c.44-.4982.742-.9016.907-1.2115.169-.3137.254-.6372.254-.9706 0-.4467-.136-.8134-.407-1.0992-.271-.2863-.633-.4297-1.085-.4297-.542 0-.965.1549-1.267.4647-.299.306-.448.733-.448 1.2821h-1.091c0-.7883.254-1.4249.761-1.9111.511-.4861 1.192-.7291 2.045-.7291.798 0 1.429.2096 1.893.629.464.4155.695.97.695 1.6641 0 .8431-.538 1.8465-1.615 3.0109l-2.299 2.4875h4.31v.8879Zm6.538-3.6519c0 1.2745-.219 2.221-.654 2.8407-.437.6191-1.119.9289-2.046.9289-.916 0-1.594-.3021-2.034-.9054-.441-.6077-.669-1.5136-.684-2.7169v-1.4529c0-1.258.218-2.193.654-2.805.436-.6115 1.12-.9169 2.052-.9169.923 0 1.603.2956 2.04.8879.436.5879.66 1.4972.672 2.7284v1.4112Zm-1.091-1.4879c0-.9213-.13-1.5913-.389-2.0107-.259-.4237-.67-.6355-1.232-.6355-.558 0-.965.2096-1.221.6295-.255.4193-.387 1.0642-.395 1.9346v1.7408c0 .9252.134 1.6089.402 2.0524.271.439.68.6585 1.226.6585.538 0 .937-.208 1.197-.6235.262-.4155.4-1.0702.412-1.9642V72.608Z" fill="#6B6B6B"/><path d="M387.97 86.5068h-41.161c-1.213 0-2.196.9804-2.196 2.1898v28.4664c0 1.209.983 2.19 2.196 2.19h41.161c1.213 0 2.196-.981 2.196-2.19V88.6966c0-1.2094-.983-2.1898-2.196-2.1898Z" fill="#fff"/><path d="M365.537 112.783h-1.097v-7.251l-2.199.806v-.988l3.125-1.17h.171v8.603Zm7.475-8.568v.923h-.2c-.849.016-1.525.267-2.028.753-.503.486-.794 1.17-.872 2.052.451-.517 1.069-.776 1.851-.776.746 0 1.342.263 1.786.788.448.525.672 1.204.672 2.035 0 .882-.242 1.588-.725 2.117-.48.529-1.124.794-1.934.794-.821 0-1.487-.314-1.998-.941-.511-.631-.767-1.443-.767-2.435v-.417c0-1.576.336-2.78 1.008-3.611.676-.835 1.681-1.263 3.013-1.282h.194Zm-1.432 3.858c-.374 0-.717.112-1.032.335-.314.223-.532.504-.655.841v.399c0 .706.16 1.275.478 1.706.319.431.716.647 1.191.647.492 0 .877-.18 1.156-.541.283-.361.424-.833.424-1.417 0-.588-.143-1.063-.43-1.423-.283-.365-.661-.547-1.132-.547Z" fill="#47B444"/><path d="M361.434 92.7828c-.353-.1013-.611-.2256-.772-.3723-.16-.1484-.24-.3307-.24-.5476 0-.2453.098-.4479.294-.6072.197-.161.452-.242.767-.242.215 0 .405.0416.572.1243.169.0826.299.1965.391.3422a.876.876 0 0 1 .139.4769h-.414c0-.1884-.06-.3356-.18-.443-.12-.1078-.289-.162-.508-.162-.203 0-.362.0449-.476.1347-.113.0881-.17.2113-.17.3696 0 .127.054.2349.161.323.109.0871.293.167.551.2398.26.0729.464.1534.61.2415.147.0871.255.1889.325.3061.072.1166.108.2546.108.4128 0 .2525-.099.4545-.296.6073-.198.1511-.461.2267-.792.2267-.214 0-.414-.0406-.6-.1221-.186-.0827-.329-.195-.431-.3379-.1-.1423-.15-.3044-.15-.4851h.414c0 .1878.069.3367.208.4468.14.1084.327.1626.559.1626.218 0 .384-.0443.5-.1325.116-.0887.174-.2092.174-.3619 0-.1522-.054-.27-.161-.3526-.107-.0844-.302-.1671-.583-.2481Zm2-.9264.013.2912c.177-.2228.408-.3339.694-.3339.491 0 .738.2759.742.8278v1.5294h-.396v-1.5315c-.002-.167-.04-.2903-.116-.3702-.074-.0794-.191-.1194-.35-.1194-.128 0-.241.034-.338.1024-.098.0685-.173.1583-.228.2694v1.6493h-.396v-2.3145h.375Zm1.942 1.1361c0-.2267.045-.4309.133-.6121.09-.1807.215-.3204.373-.4189.161-.0986.343-.1478.547-.1478.316 0 .571.1095.766.3274.195.2179.293.5081.293.8706v.0279c0 .2251-.044.4276-.131.6072-.086.178-.209.3171-.37.4173-.161.0996-.345.1495-.554.1495-.314 0-.569-.109-.765-.3275-.195-.2179-.292-.5065-.292-.8662v-.0274Zm.399.0471c0 .2563.06.4627.178.6176.12.1556.28.2333.48.2333.202 0 .362-.0783.481-.2349.118-.1582.177-.3794.177-.6631 0-.254-.061-.4594-.182-.616-.12-.1582-.28-.2376-.48-.2376-.196 0-.354.0777-.474.2332-.12.1556-.18.3779-.18.6675Zm2.106-.0471c0-.2267.043-.4309.132-.6121.09-.1807.214-.3204.373-.4189.16-.0986.343-.1478.547-.1478.316 0 .571.1095.765.3274.196.2179.294.5081.294.8706v.0279c0 .2251-.043.4276-.131.6072-.085.178-.209.3171-.371.4173-.16.0996-.344.1495-.553.1495-.314 0-.569-.109-.765-.3275-.194-.2179-.291-.5065-.291-.8662v-.0274Zm.398.0471c0 .2563.059.4627.178.6176.12.1556.28.2333.48.2333.202 0 .362-.0783.48-.2349.119-.1582.179-.3794.179-.6631 0-.254-.061-.4594-.183-.616-.12-.1582-.28-.2376-.48-.2376-.196 0-.354.0777-.474.2332-.12.1556-.18.3779-.18.6675Zm2.549.8082h1.357v.3231h-1.841v-.2908l1.28-1.6963h-1.261v-.3274h1.758v.2803l-1.293 1.7111Zm2.733.3658c-.314 0-.57-.1024-.767-.3078-.197-.2069-.296-.4829-.296-.8279v-.0728c0-.2294.044-.4342.131-.6138.088-.1812.211-.3225.369-.4232.158-.103.33-.1544.514-.1544.302 0 .536.0991.704.2973.167.1982.25.4818.25.8514v.1648h-1.571c.006.2278.072.4129.199.5536.129.1402.292.2097.489.2097.14 0 .259-.0285.356-.0854a.895.895 0 0 0 .255-.2267l.242.1884c-.194.2978-.486.4468-.875.4468Zm-.049-2.0747c-.16 0-.294.0586-.403.1752-.108.1155-.175.2782-.201.4879h1.162v-.0301c-.012-.201-.066-.3565-.163-.466-.097-.1112-.229-.167-.395-.167Z" fill="#959595"/><path opacity=".3" d="M378.092 96.9082h-20.856c-.606 0-1.097.4903-1.097 1.0951v.5476c0 .6048.491 1.0951 1.097 1.0951h20.856c.606 0 1.097-.4903 1.097-1.0951v-.5476c0-.6048-.491-1.0951-1.097-1.0951Z" fill="#000"/><path d="M436.816 86.5068h-41.162c-1.212 0-2.195.9804-2.195 2.1898v28.4664c0 1.209.983 2.19 2.195 2.19h41.162c1.213 0 2.196-.981 2.196-2.19V88.6966c0-1.2094-.983-2.1898-2.196-2.1898Z" fill="#fff"/><path d="M414.383 112.783h-1.097v-7.251l-2.199.806v-.988l3.124-1.17h.172v8.603Zm7.475-8.568v.923h-.2c-.849.016-1.525.267-2.028.753-.503.486-.794 1.17-.873 2.052.452-.517 1.069-.776 1.852-.776.746 0 1.341.263 1.786.788.448.525.672 1.204.672 2.035 0 .882-.242 1.588-.725 2.117-.48.529-1.124.794-1.934.794-.821 0-1.488-.314-1.999-.941-.511-.631-.766-1.443-.766-2.435v-.417c0-1.576.336-2.78 1.008-3.611.676-.835 1.68-1.263 3.013-1.282h.194Zm-1.432 3.858c-.374 0-.718.112-1.032.335-.314.223-.532.504-.655.841v.399c0 .706.16 1.275.478 1.706.319.431.715.647 1.191.647.491 0 .877-.18 1.156-.541.283-.361.424-.833.424-1.417 0-.588-.143-1.063-.431-1.423-.282-.365-.66-.547-1.131-.547Z" fill="#F6A71C"/><path d="M401.723 94.1711h-.414l-1.572-2.4v2.4h-.413v-3.1145h.413l1.576 2.4108v-2.4108h.41v3.1145Zm1.099 0h-.396v-2.3146h.396v2.3146Zm-.428-2.9284c0-.064.019-.1182.058-.1626.04-.0438.098-.0662.176-.0662.077 0 .135.0224.175.0662a.235.235 0 0 1 .061.1626c0 .0647-.021.1178-.061.1605-.04.0427-.098.064-.175.064-.078 0-.136-.0213-.176-.064-.039-.0427-.058-.0958-.058-.1605Zm1.996 2.648c.141 0 .265-.0427.371-.1281.105-.0854.164-.1928.176-.3209h.375c-.007.1325-.053.259-.137.3784-.085.1199-.198.2157-.339.2869a.9715.9715 0 0 1-.446.1068c-.316 0-.568-.1046-.755-.3143-.186-.2114-.279-.4994-.279-.8641v-.0662c0-.2256.042-.426.125-.6012.083-.1753.201-.3116.356-.4085.156-.0969.339-.1457.551-.1457.26 0 .476.0778.647.2333.173.1555.265.357.277.6056h-.375c-.012-.15-.069-.2727-.172-.368-.101-.0969-.227-.1456-.377-.1456-.202 0-.358.0728-.47.2185-.11.144-.165.3526-.165.6264v.075c0 .2666.055.472.165.616.11.144.268.2157.472.2157Zm1.764-1.7538c.176-.2152.405-.3231.686-.3231.49 0 .738.276.742.8279v1.5294h-.396v-1.5315c-.002-.167-.04-.2903-.116-.3702-.075-.0794-.191-.1194-.35-.1194-.128 0-.241.034-.338.1024-.098.0685-.173.1583-.228.2694v1.6493h-.396v-3.2854h.396v1.2512Zm2.56-.8405v.5601h.433v.3061h-.433v1.4352c0 .0925.019.1626.058.2097.039.0454.104.0684.197.0684.046 0 .109-.0087.189-.0257v.3209a1.1628 1.1628 0 0 1-.305.0427c-.177 0-.311-.0537-.401-.1605-.09-.1067-.135-.259-.135-.4555v-1.4352h-.422v-.3061h.422v-.5601h.397Zm2.361 2.5516h1.356v.3231h-1.841v-.2908l1.28-1.6963h-1.261v-.3275h1.758v.2804l-1.292 1.7111Zm3.237.0942c-.155.1812-.381.2716-.68.2716-.247 0-.436-.0712-.566-.2136-.129-.1445-.193-.357-.195-.6379v-1.5058h.397v1.4954c0 .351.142.5262.428.5262.303 0 .505-.1128.605-.3378v-1.6838h.396v2.3146h-.377l-.008-.2289Zm.896-.9473c0-.3608.083-.6477.251-.8602.167-.2135.388-.3209.664-.3209.283 0 .504.1002.663.2996l.019-.2569h.362v2.2587c0 .2995-.089.5355-.268.708-.177.173-.416.259-.716.259-.167 0-.331-.0356-.491-.1068-.16-.0712-.282-.1692-.366-.2929l.206-.2377c.17.2097.378.3143.623.3143.193 0 .343-.0542.451-.1626.108-.1084.163-.2606.163-.4578V93.94c-.159.1823-.376.2738-.65.2738-.272 0-.492-.109-.66-.3275-.168-.2179-.251-.5152-.251-.8914Zm.398.0449c0 .2607.054.466.161.616.108.1479.257.2223.451.2223.249 0 .433-.1133.551-.34v-1.0568c-.122-.2212-.304-.3313-.547-.3313-.193 0-.344.0745-.453.2245-.108.1495-.163.3713-.163.6653Zm3.124 1.174c-.314 0-.57-.1024-.768-.3078-.197-.2069-.295-.4829-.295-.8279v-.0728c0-.2294.043-.4342.131-.6138.088-.1812.211-.3225.369-.4232.158-.103.329-.1545.514-.1545.302 0 .536.0992.703.2974.167.1982.251.4818.251.8514v.1648h-1.572c.006.2278.073.4129.2.5536.129.1402.292.2097.489.2097.14 0 .258-.0285.355-.0854a.895.895 0 0 0 .255-.2267l.243.1884c-.195.2978-.486.4468-.875.4468Zm-.049-2.0747c-.161 0-.294.0586-.403.1752-.109.1155-.176.2782-.202.4879h1.162v-.0301c-.011-.201-.065-.3565-.163-.466-.097-.1112-.229-.167-.394-.167Zm3.468 1.4866.447-1.7692h.396l-.675 2.3146h-.322l-.564-1.7539-.548 1.7539h-.322l-.673-2.3146h.394l.457 1.7331.54-1.7331h.319l.551 1.7692Zm1.679.5454h-.397v-2.3146h.397v2.3146Zm-.428-2.9284c0-.064.019-.1182.057-.1626.04-.0438.099-.0662.176-.0662.077 0 .136.0224.176.0662.04.0444.06.0986.06.1626 0 .0647-.02.1178-.06.1605-.04.0427-.099.064-.176.064-.077 0-.136-.0213-.176-.064-.038-.0427-.057-.0958-.057-.1605Zm2.027 2.9711c-.314 0-.57-.1024-.767-.3078-.197-.2069-.296-.4829-.296-.8279v-.0728c0-.2294.044-.4342.131-.6138.088-.1812.211-.3225.369-.4232.158-.103.33-.1545.514-.1545.302 0 .536.0992.703.2974.167.1982.251.4818.251.8514v.1648h-1.571c.006.2278.072.4129.199.5536.129.1402.292.2097.489.2097.14 0 .258-.0285.356-.0854a.895.895 0 0 0 .255-.2267l.242.1884c-.194.2978-.486.4468-.875.4468Zm-.049-2.0747c-.16 0-.294.0586-.403.1752-.108.1155-.176.2782-.201.4879h1.162v-.0301c-.012-.201-.066-.3565-.163-.466-.097-.1112-.229-.167-.395-.167Zm2.766 1.4181c0-.1067-.041-.1894-.122-.248-.08-.0602-.221-.1111-.423-.1539-.2-.0432-.359-.0941-.478-.1544-.117-.0596-.204-.1308-.262-.2135-.055-.0827-.083-.1812-.083-.2951 0-.19.08-.3505.24-.4813.162-.1315.367-.1972.618-.1972.263 0 .476.0679.639.2032.164.1358.246.3088.246.5202h-.399c0-.1085-.046-.2021-.139-.2804-.092-.0783-.207-.1177-.347-.1177-.145 0-.258.0312-.339.0942-.082.0629-.122.1445-.122.2458 0 .0958.038.1676.113.2163.076.0482.212.0947.41.1391.198.0438.359.0969.482.1582.123.0614.214.1353.272.2223.06.0854.09.1906.09.3143 0 .207-.082.3729-.248.4983-.166.1243-.381.1862-.646.1862-.186 0-.35-.0329-.492-.0986-.144-.0652-.256-.1566-.337-.2738-.081-.1182-.121-.2458-.121-.3827h.397c.007.1325.061.2382.159.3165.1.0772.231.1155.394.1155.15 0 .27-.0296.36-.0898.092-.0613.138-.1424.138-.2437Zm1.875.6566c-.314 0-.57-.1024-.767-.3078-.197-.2069-.296-.4829-.296-.8279v-.0728c0-.2294.044-.4342.131-.6138.088-.1812.211-.3225.369-.4232.158-.103.33-.1545.514-.1545.302 0 .536.0992.704.2974.167.1982.25.4818.25.8514v.1648h-1.571c.006.2278.072.4129.199.5536.129.1402.292.2097.489.2097.14 0 .259-.0285.356-.0854a.895.895 0 0 0 .255-.2267l.242.1884c-.194.2978-.485.4468-.875.4468Zm-.049-2.0747c-.16 0-.294.0586-.403.1752-.108.1155-.175.2782-.201.4879h1.162v-.0301c-.012-.201-.066-.3565-.163-.466-.097-.1112-.229-.167-.395-.167Zm1.79-.2826.013.2913c.177-.2228.409-.334.695-.334.49 0 .737.276.742.8279v1.5294h-.397v-1.5315c-.002-.167-.04-.2903-.116-.3702-.074-.0794-.191-.1194-.349-.1194-.129 0-.242.034-.339.1024a.697.697 0 0 0-.227.2694v1.6493h-.397v-2.3146h.375Z" fill="#959595"/><path opacity=".3" d="M430.23 96.9082h-27.441c-.606 0-1.098.4903-1.098 1.0951v.5476c0 .6048.492 1.0951 1.098 1.0951h27.441c.607 0 1.098-.4903 1.098-1.0951v-.5476c0-.6048-.491-1.0951-1.098-1.0951ZM379.738 136.869h-27.441c-.606 0-1.098.49-1.098 1.095v.548c0 .605.492 1.095 1.098 1.095h27.441c.606 0 1.098-.49 1.098-1.095v-.548c0-.605-.492-1.095-1.098-1.095Z" fill="#000"/><path opacity=".2" d="M358.883 150.556h-6.586c-.606 0-1.098.49-1.098 1.095v.547c0 .605.492 1.095 1.098 1.095h6.586c.606 0 1.097-.49 1.097-1.095v-.547c0-.605-.491-1.095-1.097-1.095ZM358.883 159.861h-6.586c-.606 0-1.098.491-1.098 1.095v.548c0 .605.492 1.095 1.098 1.095h6.586c.606 0 1.097-.49 1.097-1.095v-.548c0-.604-.491-1.095-1.097-1.095ZM358.883 169.168h-6.586c-.606 0-1.098.49-1.098 1.095v.548c0 .604.492 1.095 1.098 1.095h6.586c.606 0 1.097-.491 1.097-1.095v-.548c0-.605-.491-1.095-1.097-1.095ZM358.883 178.475h-6.586c-.606 0-1.098.49-1.098 1.095v.547c0 .605.492 1.095 1.098 1.095h6.586c.606 0 1.097-.49 1.097-1.095v-.547c0-.605-.491-1.095-1.097-1.095ZM358.883 187.781h-6.586c-.606 0-1.098.491-1.098 1.095v.548c0 .605.492 1.095 1.098 1.095h6.586c.606 0 1.097-.49 1.097-1.095v-.548c0-.604-.491-1.095-1.097-1.095ZM358.883 197.087h-6.586c-.606 0-1.098.49-1.098 1.095v.548c0 .604.492 1.095 1.098 1.095h6.586c.606 0 1.097-.491 1.097-1.095v-.548c0-.605-.491-1.095-1.097-1.095ZM358.883 206.394h-6.586c-.606 0-1.098.49-1.098 1.095v.547c0 .605.492 1.095 1.098 1.095h6.586c.606 0 1.097-.49 1.097-1.095v-.547c0-.605-.491-1.095-1.097-1.095Z" fill="#000"/><path d="M366.566 209.131c.607 0 1.098-.491 1.098-1.095 0-.605-.491-1.096-1.098-1.096-.606 0-1.097.491-1.097 1.096 0 .604.491 1.095 1.097 1.095Z" fill="#EFC93D"/><path d="M366.566 200.92c.607 0 1.098-.491 1.098-1.095 0-.605-.491-1.096-1.098-1.096-.606 0-1.097.491-1.097 1.096 0 .604.491 1.095 1.097 1.095Z" fill="#FF6224"/><path d="M366.566 192.708c.607 0 1.098-.49 1.098-1.095s-.491-1.095-1.098-1.095c-.606 0-1.097.49-1.097 1.095s.491 1.095 1.097 1.095Z" fill="#2CA8BA"/><path d="M366.566 180.665c.607 0 1.098-.49 1.098-1.095s-.491-1.095-1.098-1.095c-.606 0-1.097.49-1.097 1.095s.491 1.095 1.097 1.095Z" fill="#00A656"/><path d="M366.566 171.358c.607 0 1.098-.49 1.098-1.095s-.491-1.095-1.098-1.095c-.606 0-1.097.49-1.097 1.095s.491 1.095 1.097 1.095Z" fill="#14474B"/><path d="M366.566 162.599c.607 0 1.098-.49 1.098-1.095s-.491-1.095-1.098-1.095c-.606 0-1.097.49-1.097 1.095s.491 1.095 1.097 1.095Z" fill="#F79A3E"/><path d="M377.543 203.656c.606 0 1.098-.49 1.098-1.095s-.492-1.095-1.098-1.095c-.606 0-1.098.49-1.098 1.095s.492 1.095 1.098 1.095Z" fill="#EFC93D"/><path d="M377.543 198.182c.606 0 1.098-.49 1.098-1.095s-.492-1.095-1.098-1.095c-.606 0-1.098.49-1.098 1.095s.492 1.095 1.098 1.095Z" fill="#FF6224"/><path d="M377.543 190.518c.606 0 1.098-.49 1.098-1.095s-.492-1.095-1.098-1.095c-.606 0-1.098.49-1.098 1.095s.492 1.095 1.098 1.095Z" fill="#2CA8BA"/><path d="M377.543 180.665c.606 0 1.098-.49 1.098-1.095s-.492-1.095-1.098-1.095c-.606 0-1.098.49-1.098 1.095s.492 1.095 1.098 1.095Z" fill="#00A656"/><path d="M377.543 159.863c.606 0 1.098-.49 1.098-1.095s-.492-1.095-1.098-1.095c-.606 0-1.098.49-1.098 1.095s.492 1.095 1.098 1.095Z" fill="#F79A3E"/><path d="M377.543 154.936c.606 0 1.098-.49 1.098-1.095s-.492-1.095-1.098-1.095c-.606 0-1.098.49-1.098 1.095s.492 1.095 1.098 1.095Z" fill="#14474B"/><path d="M388.52 202.014c.606 0 1.097-.49 1.097-1.095 0-.604-.491-1.095-1.097-1.095-.607 0-1.098.491-1.098 1.095 0 .605.491 1.095 1.098 1.095Z" fill="#EFC93D"/><path d="M388.52 198.182c.606 0 1.097-.49 1.097-1.095s-.491-1.095-1.097-1.095c-.607 0-1.098.49-1.098 1.095s.491 1.095 1.098 1.095Z" fill="#FF6224"/><path d="M388.52 195.445c.606 0 1.097-.49 1.097-1.095s-.491-1.095-1.097-1.095c-.607 0-1.098.49-1.098 1.095s.491 1.095 1.098 1.095Z" fill="#2CA8BA"/><path d="M388.52 191.613c.606 0 1.097-.49 1.097-1.095s-.491-1.095-1.097-1.095c-.607 0-1.098.49-1.098 1.095s.491 1.095 1.098 1.095Z" fill="#00A656"/><path d="M388.52 165.885c.606 0 1.097-.491 1.097-1.096 0-.604-.491-1.095-1.097-1.095-.607 0-1.098.491-1.098 1.095 0 .605.491 1.096 1.098 1.096Z" fill="#F79A3E"/><path d="M388.52 158.221c.606 0 1.097-.491 1.097-1.096 0-.604-.491-1.095-1.097-1.095-.607 0-1.098.491-1.098 1.095 0 .605.491 1.096 1.098 1.096Z" fill="#14474B"/><path d="M399.496 204.751c.606 0 1.098-.491 1.098-1.095 0-.605-.492-1.095-1.098-1.095-.606 0-1.098.49-1.098 1.095 0 .604.492 1.095 1.098 1.095Z" fill="#EFC93D"/><path d="M399.496 195.445c.606 0 1.098-.49 1.098-1.095s-.492-1.095-1.098-1.095c-.606 0-1.098.49-1.098 1.095s.492 1.095 1.098 1.095Z" fill="#FF6224"/><path d="M399.496 189.971c.606 0 1.098-.49 1.098-1.095 0-.604-.492-1.095-1.098-1.095-.606 0-1.098.491-1.098 1.095 0 .605.492 1.095 1.098 1.095Z" fill="#2CA8BA"/><path d="M399.496 187.233c.606 0 1.098-.49 1.098-1.095s-.492-1.095-1.098-1.095c-.606 0-1.098.49-1.098 1.095s.492 1.095 1.098 1.095Z" fill="#00A656"/><path d="M410.472 198.182c.606 0 1.097-.49 1.097-1.095s-.491-1.095-1.097-1.095c-.607 0-1.098.49-1.098 1.095s.491 1.095 1.098 1.095Z" fill="#EFC93D"/><path d="M410.472 195.993c.606 0 1.097-.49 1.097-1.095s-.491-1.095-1.097-1.095c-.607 0-1.098.49-1.098 1.095s.491 1.095 1.098 1.095Z" fill="#FF6224"/><path d="M410.472 180.117c.606 0 1.097-.49 1.097-1.095s-.491-1.095-1.097-1.095c-.607 0-1.098.49-1.098 1.095s.491 1.095 1.098 1.095Z" fill="#2CA8BA"/><path d="M410.472 176.285c.606 0 1.097-.49 1.097-1.095s-.491-1.095-1.097-1.095c-.607 0-1.098.49-1.098 1.095s.491 1.095 1.098 1.095Z" fill="#00A656"/><path d="M421.448 195.445c.606 0 1.098-.49 1.098-1.095s-.492-1.095-1.098-1.095c-.606 0-1.097.49-1.097 1.095s.491 1.095 1.097 1.095Z" fill="#EFC93D"/><path d="M421.448 186.686c.606 0 1.098-.49 1.098-1.095s-.492-1.095-1.098-1.095c-.606 0-1.097.49-1.097 1.095s.491 1.095 1.097 1.095Z" fill="#2CA8BA"/><path d="M421.448 179.022c.606 0 1.098-.49 1.098-1.095s-.492-1.095-1.098-1.095c-.606 0-1.097.49-1.097 1.095s.491 1.095 1.097 1.095Z" fill="#00A656"/><path d="M421.448 199.277c.606 0 1.098-.49 1.098-1.095s-.492-1.095-1.098-1.095c-.606 0-1.097.49-1.097 1.095s.491 1.095 1.097 1.095Z" fill="#FF6224"/><path d="M432.426 199.277c.606 0 1.097-.49 1.097-1.095s-.491-1.095-1.097-1.095-1.098.49-1.098 1.095.492 1.095 1.098 1.095Z" fill="#EFC93D"/><path d="M432.426 188.329c.606 0 1.097-.49 1.097-1.095s-.491-1.095-1.097-1.095-1.098.49-1.098 1.095.492 1.095 1.098 1.095Z" fill="#FF6224"/><path d="M432.426 183.402c.606 0 1.097-.49 1.097-1.095s-.491-1.095-1.097-1.095-1.098.49-1.098 1.095.492 1.095 1.098 1.095Z" fill="#2CA8BA"/><path d="M432.426 167.527c.606 0 1.097-.49 1.097-1.095s-.491-1.095-1.097-1.095-1.098.49-1.098 1.095.492 1.095 1.098 1.095Z" fill="#00A656"/><path d="M432.426 165.337c.606 0 1.097-.491 1.097-1.095 0-.605-.491-1.096-1.097-1.096s-1.098.491-1.098 1.096c0 .604.492 1.095 1.098 1.095ZM421.448 165.337c.606 0 1.098-.491 1.098-1.095 0-.605-.492-1.096-1.098-1.096-.606 0-1.097.491-1.097 1.096 0 .604.491 1.095 1.097 1.095Z" fill="#14474B"/><path d="M421.448 162.599c.606 0 1.098-.49 1.098-1.095s-.492-1.095-1.098-1.095c-.606 0-1.097.49-1.097 1.095s.491 1.095 1.097 1.095ZM410.472 173.548c.606 0 1.097-.491 1.097-1.095 0-.605-.491-1.096-1.097-1.096-.607 0-1.098.491-1.098 1.096 0 .604.491 1.095 1.098 1.095Z" fill="#F79A3E"/><path d="M410.472 156.578c.606 0 1.097-.49 1.097-1.095s-.491-1.095-1.097-1.095c-.607 0-1.098.49-1.098 1.095s.491 1.095 1.098 1.095ZM399.496 162.052c.606 0 1.098-.491 1.098-1.096 0-.604-.492-1.095-1.098-1.095-.606 0-1.098.491-1.098 1.095 0 .605.492 1.096 1.098 1.096Z" fill="#14474B"/><path d="M399.496 171.906c.606 0 1.098-.49 1.098-1.095s-.492-1.095-1.098-1.095c-.606 0-1.098.49-1.098 1.095s.492 1.095 1.098 1.095ZM432.426 159.863c.606 0 1.097-.49 1.097-1.095s-.491-1.095-1.097-1.095-1.098.49-1.098 1.095.492 1.095 1.098 1.095Z" fill="#F79A3E"/><path d="m366.566 170.263 10.977-16.423 10.976 3.284 10.977 3.832 10.976-5.474 10.977 8.759h10.977" stroke="#14474B"/><path d="m366.566 161.504 10.977-2.737 10.976 6.021 10.977 6.022 10.976 1.642 10.977-10.948 10.977-2.737" stroke="#F79A3E"/><path d="m366.566 191.613 10.977-2.189 10.976 4.926 10.977-5.474 10.976-9.854 10.977 6.57 10.977-3.285" stroke="#2CA8BA"/><path d="M366.566 179.57h10.977l10.976 10.948 10.977-4.379 10.976-10.949 10.977 2.738 10.977-11.496" stroke="#00A656"/><path d="m366.566 199.824 10.977-2.737h10.976l10.977-2.737 10.976.547 10.977 3.285 10.977-10.949" stroke="#FF6224"/><path d="m366.566 208.035 10.977-5.474 10.976-1.642 10.977 2.737 10.976-6.569 10.977-2.737 10.977 3.832" stroke="#EFC93D"/><path d="M109.716 76.1053c1.818 0 3.293-1.4706 3.293-3.2846 0-1.814-1.475-3.2846-3.293-3.2846-1.819 0-3.293 1.4706-3.293 3.2846 0 1.814 1.474 3.2846 3.293 3.2846Z" stroke="#fff" stroke-width="2"/><path opacity=".5" d="M109.716 93.6228c1.818 0 3.293-1.4705 3.293-3.2845s-1.475-3.2846-3.293-3.2846c-1.819 0-3.293 1.4706-3.293 3.2846 0 1.814 1.474 3.2845 3.293 3.2845ZM109.716 111.14c1.818 0 3.293-1.47 3.293-3.284 0-1.814-1.475-3.285-3.293-3.285-1.819 0-3.293 1.471-3.293 3.285s1.474 3.284 3.293 3.284ZM109.716 128.658c1.818 0 3.293-1.471 3.293-3.285s-1.475-3.284-3.293-3.284c-1.819 0-3.293 1.47-3.293 3.284 0 1.814 1.474 3.285 3.293 3.285Z" stroke="#fff" stroke-width="2"/><path d="M100.098 66.7988H99v12.0435h1.098V66.7988Z" fill="#fff"/><mask id="c" style="mask-type:alpha" maskUnits="userSpaceOnUse" x="125" y="122" width="209" height="98"><use xlink:href="#reuse-1"/></mask><g mask="url(#c)"><use xlink:href="#reuse-1"/><path opacity=".3" d="M169.538 128.658h-20.855c-.607 0-1.098.49-1.098 1.095v2.191c0 .604.491 1.095 1.098 1.095h20.855c.606 0 1.098-.491 1.098-1.095v-2.191c0-.605-.492-1.095-1.098-1.095ZM327.051 129.753H313.33c-.606 0-1.098.49-1.098 1.095s.492 1.095 1.098 1.095h13.721c.606 0 1.097-.49 1.097-1.095s-.491-1.095-1.097-1.095ZM307.842 129.753h-7.135c-.606 0-1.098.49-1.098 1.095s.492 1.095 1.098 1.095h7.135c.606 0 1.097-.49 1.097-1.095s-.491-1.095-1.097-1.095Z" fill="#000"/><path opacity=".2" d="M333.637 139.06H125.632v16.422h208.005V139.06Z" fill="#C4C4C4"/><path opacity=".3" d="M169.538 145.08h-20.855c-.607 0-1.098.49-1.098 1.095v2.19c0 .605.491 1.096 1.098 1.096h20.855c.606 0 1.098-.491 1.098-1.096v-2.19c0-.605-.492-1.095-1.098-1.095ZM327.051 146.176H313.33c-.606 0-1.098.49-1.098 1.095s.492 1.095 1.098 1.095h13.721c.606 0 1.097-.49 1.097-1.095s-.491-1.095-1.097-1.095ZM307.842 146.176h-7.135c-.606 0-1.098.49-1.098 1.095s.492 1.095 1.098 1.095h7.135c.606 0 1.097-.49 1.097-1.095s-.491-1.095-1.097-1.095ZM169.538 161.504h-20.855c-.607 0-1.098.49-1.098 1.095v2.19c0 .605.491 1.095 1.098 1.095h20.855c.606 0 1.098-.49 1.098-1.095v-2.19c0-.605-.492-1.095-1.098-1.095ZM327.051 162.599H313.33c-.606 0-1.098.49-1.098 1.095s.492 1.095 1.098 1.095h13.721c.606 0 1.097-.49 1.097-1.095s-.491-1.095-1.097-1.095ZM307.842 162.599h-7.135c-.606 0-1.098.49-1.098 1.095s.492 1.095 1.098 1.095h7.135c.606 0 1.097-.49 1.097-1.095s-.491-1.095-1.097-1.095Z" fill="#000"/><path opacity=".2" d="M333.637 171.904H125.632v16.423h208.005v-16.423Z" fill="#C4C4C4"/><path opacity=".3" d="M169.538 177.927h-20.855c-.607 0-1.098.49-1.098 1.095v2.19c0 .605.491 1.095 1.098 1.095h20.855c.606 0 1.098-.49 1.098-1.095v-2.19c0-.605-.492-1.095-1.098-1.095ZM327.051 179.021H313.33c-.606 0-1.098.491-1.098 1.096 0 .604.492 1.095 1.098 1.095h13.721c.606 0 1.097-.491 1.097-1.095 0-.605-.491-1.096-1.097-1.096ZM307.842 179.021h-7.135c-.606 0-1.098.491-1.098 1.096 0 .604.492 1.095 1.098 1.095h7.135c.606 0 1.097-.491 1.097-1.095 0-.605-.491-1.096-1.097-1.096ZM169.538 194.35h-20.855c-.607 0-1.098.49-1.098 1.095v2.19c0 .605.491 1.095 1.098 1.095h20.855c.606 0 1.098-.49 1.098-1.095v-2.19c0-.605-.492-1.095-1.098-1.095ZM327.051 195.444H313.33c-.606 0-1.098.491-1.098 1.095 0 .605.492 1.096 1.098 1.096h13.721c.606 0 1.097-.491 1.097-1.096 0-.604-.491-1.095-1.097-1.095ZM307.842 195.444h-7.135c-.606 0-1.098.491-1.098 1.095 0 .605.492 1.096 1.098 1.096h7.135c.606 0 1.097-.491 1.097-1.096 0-.604-.491-1.095-1.097-1.095Z" fill="#000"/><path opacity=".2" d="M333.637 204.751H125.632v16.423h208.005v-16.423Z" fill="#C4C4C4"/><path opacity=".3" d="M169.538 210.772h-20.855c-.607 0-1.098.491-1.098 1.096v2.19c0 .605.491 1.095 1.098 1.095h20.855c.606 0 1.098-.49 1.098-1.095v-2.19c0-.605-.492-1.096-1.098-1.096ZM327.051 211.867H313.33c-.606 0-1.098.49-1.098 1.095s.492 1.095 1.098 1.095h13.721c.606 0 1.097-.49 1.097-1.095s-.491-1.095-1.097-1.095ZM307.842 211.867h-7.135c-.606 0-1.098.49-1.098 1.095s.492 1.095 1.098 1.095h7.135c.606 0 1.097-.49 1.097-1.095s-.491-1.095-1.097-1.095Z" fill="#000"/><circle cx="135.625" cy="131.2225" r="5.5101" fill="#b7b7b7"/><circle cx="135.625" cy="147.6397" r="5.5101" fill="#b7b7b7"/><circle cx="135.625" cy="163.8648" r="5.5101" fill="#b7b7b7"/><circle cx="135.625" cy="180.2819" r="5.5101" fill="#b7b7b7"/><circle cx="135.625" cy="196.622" r="5.5101" fill="#b7b7b7"/><circle cx="135.625" cy="213.0392" r="5.5101" fill="#b7b7b7"/></g><path opacity=".2" d="M237.592 73.3682h-6.586c-.606 0-1.098.4903-1.098 1.0951v.5475c0 .6048.492 1.0951 1.098 1.0951h6.586c.606 0 1.097-.4903 1.097-1.0951v-.5475c0-.6048-.491-1.0951-1.097-1.0951ZM237.592 84.8643h-6.586c-.606 0-1.098.4903-1.098 1.0951v.5475c0 .6048.492 1.0951 1.098 1.0951h6.586c.606 0 1.097-.4903 1.097-1.0951v-.5475c0-.6048-.491-1.0951-1.097-1.0951ZM237.592 96.3604h-6.586c-.606 0-1.098.4902-1.098 1.0951v.5475c0 .6048.492 1.0951 1.098 1.0951h6.586c.606 0 1.097-.4903 1.097-1.0951v-.5475c0-.6049-.491-1.0951-1.097-1.0951Z" fill="#000"/><path d="M250.215 75.5579c0-1.2094-.983-2.1897-2.195-2.1897-1.213 0-2.196.9803-2.196 2.1897v32.8461c0 1.209.983 2.189 2.196 2.189 1.212 0 2.195-.98 2.195-2.189V75.5579Z" fill="#C4C4C4"/><path d="M245.824 101.287h4.391v7.117c0 1.209-.983 2.189-2.195 2.189-1.213 0-2.196-.98-2.196-2.189v-7.117Z" fill="#FE4337"/><path d="M245.824 82.6744h4.391v-7.1165c0-1.2093-.983-2.1897-2.195-2.1897-1.213 0-2.196.9804-2.196 2.1897v7.1165Z" fill="#02A66F"/><path d="M265.033 82.6741c0-1.2094-.983-2.1897-2.195-2.1897-1.213 0-2.195.9803-2.195 2.1897v25.7289c0 1.21.982 2.19 2.195 2.19 1.212 0 2.195-.98 2.195-2.19V82.6741Z" fill="#C4C4C4"/><path d="M260.643 103.066h4.39v5.338c0 1.209-.983 2.19-2.195 2.19-1.212 0-2.195-.981-2.195-2.19v-5.338Z" fill="#FE4337"/><path d="M260.643 91.9804h4.39v-9.3063c0-1.2093-.983-2.1897-2.195-2.1897-1.212 0-2.195.9804-2.195 2.1897v9.3063Z" fill="#02A66F"/><path d="M309.488 79.9387c0-1.2093-.983-2.1897-2.195-2.1897-1.212 0-2.195.9804-2.195 2.1897v28.4663c0 1.209.983 2.19 2.195 2.19 1.212 0 2.195-.981 2.195-2.19V79.9387Z" fill="#C4C4C4"/><path d="M305.098 104.024h4.39v4.38c0 1.209-.983 2.19-2.195 2.19-1.212 0-2.195-.981-2.195-2.19v-4.38Z" fill="#FE4337"/><path d="M305.098 89.7925h4.39v-9.8538c0-1.2092-.983-2.1897-2.195-2.1897-1.212 0-2.195.9805-2.195 2.1897v9.8538Z" fill="#02A66F"/><path d="M279.852 79.9387c0-1.2093-.983-2.1897-2.196-2.1897-1.212 0-2.195.9804-2.195 2.1897v28.4663c0 1.209.983 2.19 2.195 2.19 1.213 0 2.196-.981 2.196-2.19V79.9387Z" fill="#C4C4C4"/><path d="M275.461 99.0977h4.391v9.3063c0 1.209-.983 2.19-2.196 2.19-1.212 0-2.195-.981-2.195-2.19v-9.3063Z" fill="#FE4337"/><path d="M275.461 87.6027h4.391v-7.664c0-1.2092-.983-2.1897-2.196-2.1897-1.212 0-2.195.9805-2.195 2.1897v7.664Z" fill="#02A66F"/><path d="M294.67 75.5579c0-1.2094-.983-2.1897-2.195-2.1897-1.213 0-2.196.9803-2.196 2.1897v32.8461c0 1.209.983 2.189 2.196 2.189 1.212 0 2.195-.98 2.195-2.189V75.5579Z" fill="#C4C4C4"/><path d="M290.279 101.287h4.391v7.117c0 1.209-.983 2.189-2.195 2.189-1.213 0-2.196-.98-2.196-2.189v-7.117Z" fill="#FE4337"/><path d="M290.279 80.4847h4.391v-4.9268c0-1.2093-.983-2.1897-2.195-2.1897-1.213 0-2.196.9804-2.196 2.1897v4.9268Z" fill="#02A66F"/><path d="M324.307 75.5579c0-1.2094-.983-2.1897-2.196-2.1897-1.212 0-2.195.9803-2.195 2.1897v32.8461c0 1.209.983 2.189 2.195 2.189 1.213 0 2.196-.98 2.196-2.189V75.5579Z" fill="#C4C4C4"/><path d="M319.916 102.929h4.391v5.474c0 1.209-.983 2.19-2.196 2.19-1.212 0-2.195-.981-2.195-2.19v-5.474Z" fill="#FE4337"/><path d="M319.916 82.6744h4.391v-7.1165c0-1.2093-.983-2.1897-2.196-2.1897-1.212 0-2.195.9804-2.195 2.1897v7.1165Z" fill="#02A66F"/><path opacity=".2" d="M237.592 107.856h-6.586c-.606 0-1.098.491-1.098 1.096v.547c0 .605.492 1.095 1.098 1.095h6.586c.606 0 1.097-.49 1.097-1.095v-.547c0-.605-.491-1.096-1.097-1.096Z" fill="#000"/></g><path d="M93.95 247.193 92 252.447M457 13.2461l-3 6.7552M411.59 15.2451l-.59 6.1265M463 144.217l5.7 1.201M121.435 256.191l-.435 6.441M479.4 52.2373l-5.4 2.5526M73.175 214.424l-4.1757 2.258M99 7.247l3.881 5.7761M72 52.2373l3.45 1.9519M70.0743 241.785l-5.074 4.613M423.092 269.173l3.107 5.532M513 247.193l5.292 4.377M62 152.44l7.0559-1.225M147.915 15.5244l-1.996-9.276" stroke="#000" stroke-width="2" stroke-miterlimit="10" stroke-linecap="round" stroke-linejoin="round"/></svg>