<svg width="293" height="225" viewBox="0 0 293 225" fill="none" xmlns="http://www.w3.org/2000/svg">
<path d="M118.308 113.251C116.573 111.83 114.68 110.567 112.629 109.304C109.159 106.621 105.688 103.779 102.06 101.253C103.322 99.8324 105.057 98.7273 107.265 98.0959C145.6 86.8875 182.83 107.252 196.555 144.192C189.613 146.876 184.408 149.402 177.151 150.191C168.79 128.406 144.496 113.567 122.094 114.987C119.728 113.724 120.517 114.83 118.308 113.251Z" fill="white" stroke="black" stroke-width="2" stroke-miterlimit="10" stroke-linecap="round" stroke-linejoin="round"/>
<path d="M120.199 96.3594L119.726 109.304" stroke="black" stroke-width="2" stroke-miterlimit="10" stroke-linecap="round" stroke-linejoin="round"/>
<path d="M17.1833 14.112C35.9562 -3.88462 65.6141 -3.25317 83.5981 15.3749C99.6891 32.1086 100.951 57.6827 87.542 75.8371C85.9644 77.8894 84.2291 79.9416 82.1783 81.836C80.1275 83.7304 78.0767 85.4669 76.0259 86.8877C57.4108 99.5169 32.17 97.1489 15.7635 80.5731C-4.1136 60.2085 -1.43175 32.1086 17.1833 14.112ZM20.9694 75.6793C36.4294 91.4658 61.6702 92.0972 77.6034 76.7843C93.5367 61.4714 94.0099 36.0552 78.7077 20.1108C63.4055 4.16648 38.007 3.69289 22.0737 19.0058C6.14047 34.4765 3.77415 58.3141 20.9694 75.6793Z" fill="white" stroke="black" stroke-width="2" stroke-miterlimit="10" stroke-linecap="round" stroke-linejoin="round"/>
<path d="M78.0788 57.5249C81.5494 47.1058 79.0253 35.2659 71.2954 27.2148" stroke="black" stroke-width="2" stroke-miterlimit="10" stroke-linecap="round" stroke-linejoin="round"/>
<path d="M70.5051 69.5224C71.6093 68.4173 72.7136 67.3122 73.6602 66.0493" stroke="black" stroke-width="2" stroke-miterlimit="10" stroke-linecap="round" stroke-linejoin="round"/>
<path d="M76.1837 86.8878L133.449 146.561L144.965 135.51L87.6998 75.9951C86.1223 78.0474 84.387 80.0996 82.3361 81.994C80.4431 83.7305 78.2345 85.467 76.1837 86.8878Z" fill="white" stroke="black" stroke-width="2" stroke-miterlimit="10" stroke-linecap="round" stroke-linejoin="round"/>
<path d="M84.3278 95.4437L95.8125 84.3911L102.921 91.7874L91.4359 102.84L84.3278 95.4437Z" stroke="black" stroke-width="2" stroke-miterlimit="10" stroke-linecap="round" stroke-linejoin="round"/>
<path d="M108.529 206.707C129.668 181.449 163.901 176.871 194.821 177.976C200.658 178.134 203.497 172.766 205.39 177.028C206.179 178.291 208.072 188.395 208.388 190.289C217.222 227.387 229.211 276.483 271.332 287.534C267.23 295.585 263.602 303.952 259.974 312.161C213.594 297.953 195.452 248.383 184.409 204.655C163.428 204.813 141.342 208.444 127.617 225.651C111.053 246.489 110.895 275.063 110.895 300.479H84.077C84.077 267.485 86.4433 233.228 108.529 206.707Z" fill="black"/>
<path d="M182.672 202.761L173.522 197.235" stroke="white" stroke-width="2" stroke-miterlimit="10" stroke-linecap="round" stroke-linejoin="round"/>
<path d="M111.836 97.3066C108.366 98.4117 105.21 99.3589 105.684 101.727C106.315 104.095 114.676 101.253 114.676 101.253" fill="white"/>
<path d="M111.836 97.3066C108.366 98.4117 105.21 99.3589 105.684 101.727C106.315 104.095 114.676 101.253 114.676 101.253" stroke="black" stroke-width="2" stroke-miterlimit="10" stroke-linecap="round" stroke-linejoin="round"/>
<path d="M190.402 140.246L190.245 135.667L175.258 136.299L176.52 141.824" fill="white"/>
<path d="M190.402 140.246L190.245 135.667L175.258 136.299L176.52 141.824" stroke="black" stroke-width="2" stroke-miterlimit="10" stroke-linecap="round" stroke-linejoin="round"/>
<path d="M186.458 140.719C204.6 140.088 206.809 147.191 209.648 182.395L167.055 181.922C167.055 181.922 165.319 171.661 164.688 161.084C164.057 149.875 162.006 141.666 186.458 140.719Z" fill="white" stroke="black" stroke-width="2" stroke-miterlimit="10" stroke-linecap="round" stroke-linejoin="round"/>
<path d="M207.91 174.661H166.105" stroke="black" stroke-width="2" stroke-miterlimit="10" stroke-linecap="round" stroke-linejoin="round"/>
<path d="M207.754 164.557H191.663" stroke="black" stroke-width="2" stroke-miterlimit="10" stroke-linecap="round" stroke-linejoin="round"/>
<path d="M206.18 154.454H194.033" stroke="black" stroke-width="2" stroke-miterlimit="10" stroke-linecap="round" stroke-linejoin="round"/>
<path d="M200.973 144.35H168.948" stroke="black" stroke-width="2" stroke-miterlimit="10" stroke-linecap="round" stroke-linejoin="round"/>
<path d="M202.234 182.396V145.613" stroke="black" stroke-width="2" stroke-miterlimit="10" stroke-linecap="round" stroke-linejoin="round"/>
<path d="M191.977 182.395V140.877" stroke="black" stroke-width="2" stroke-miterlimit="10" stroke-linecap="round" stroke-linejoin="round"/>
<path d="M181.883 182.238V141.035" stroke="black" stroke-width="2" stroke-miterlimit="10" stroke-linecap="round" stroke-linejoin="round"/>
<path d="M171.789 182.08V143.087" stroke="black" stroke-width="2" stroke-miterlimit="10" stroke-linecap="round" stroke-linejoin="round"/>
<circle r="25.8655" transform="matrix(-1 0 0 1 175.771 115.423)" fill="white" stroke="black" stroke-width="2"/>
<path d="M174.187 96.9859C172.782 95.0544 170.605 90.0325 173.133 85.3969C176.294 79.6023 186.303 79.0756 189.99 79.6023C193.677 80.1291 211.588 85.9237 209.481 103.834C208.251 101.902 205.056 97.8287 202.106 96.9859C199.156 96.1431 196.311 97.3371 195.258 98.0394" stroke="black" stroke-width="2"/>
<path d="M99.5314 109.62L110.574 116.724V124.302L100.478 125.407L97.3228 116.724L99.5314 109.62Z" fill="white"/>
<path d="M95.4308 109.62C94.011 112.462 98.5859 116.724 98.5859 116.724Z" fill="white"/>
<path d="M95.4308 109.62C94.011 112.462 98.5859 116.724 98.5859 116.724" stroke="black" stroke-width="2" stroke-miterlimit="10" stroke-linecap="round" stroke-linejoin="round"/>
<path d="M97.3242 121.145C94.8001 118.619 92.9071 115.146 95.2734 112.462Z" fill="white"/>
<path d="M97.3242 121.145C94.8001 118.619 92.9071 115.146 95.2734 112.462" stroke="black" stroke-width="2" stroke-miterlimit="10" stroke-linecap="round" stroke-linejoin="round"/>
<path d="M116.73 115.304C114.049 109.305 110.894 102.517 109.316 103.622C107.738 104.727 109.316 112.146 107.107 112.462C104.899 112.778 95.9069 103.78 95.2759 106.937C94.6448 110.094 101.271 112.936 101.271 112.936" fill="white"/>
<path d="M116.73 115.304C114.049 109.305 110.894 102.517 109.316 103.622C107.738 104.727 109.316 112.146 107.107 112.462C104.899 112.778 95.9069 103.78 95.2759 106.937C94.6448 110.094 101.271 112.936 101.271 112.936" stroke="black" stroke-width="2" stroke-miterlimit="10" stroke-linecap="round" stroke-linejoin="round"/>
<path d="M116.728 115.304C126.509 140.878 154.273 153.823 180.461 146.245C194.185 142.299 200.022 163.61 186.298 167.557C147.963 178.608 110.891 158.243 97.1662 121.145C103.634 120.04 111.522 118.619 116.728 115.304Z" fill="white" stroke="black" stroke-width="2" stroke-miterlimit="10" stroke-linecap="round" stroke-linejoin="round"/>
<path d="M182.453 126.221C185.087 127.742 188.55 126.675 190.187 123.839C191.825 121.002 191.017 117.47 188.383 115.95" stroke="black" stroke-width="2"/>
<path d="M162.849 106.624C164.284 104.792 166.933 104.471 168.765 105.906C170.597 107.342 170.918 109.991 169.482 111.823" stroke="black" stroke-width="2"/>
<path d="M158.947 102.341C160.383 100.509 160.062 97.8606 158.23 96.4249" stroke="black" stroke-width="2"/>
<path d="M156.379 120.164H160.283C161.801 120.164 162.766 118.539 162.039 117.206L159.573 112.685C158.73 111.139 156.445 111.359 155.911 113.036L154.473 117.557C154.063 118.847 155.025 120.164 156.379 120.164Z" fill="black"/>
<path d="M158.239 118.584H159.205C159.993 118.584 160.471 117.716 160.051 117.05L159.441 116.084C158.998 115.383 157.944 115.494 157.657 116.272L157.301 117.238C157.061 117.891 157.544 118.584 158.239 118.584Z" fill="white"/>
</svg>
