<?xml version="1.0" encoding="utf-8"?>
<!-- Generator: Adobe Illustrator 23.0.2, SVG Export Plug-In . SVG Version: 6.00 Build 0)  -->
<svg version="1.1" xmlns="http://www.w3.org/2000/svg" xmlns:xlink="http://www.w3.org/1999/xlink" x="0px" y="0px"
	 viewBox="0 0 544 605.4" style="enable-background:new 0 0 544 605.4;" xml:space="preserve">
<style type="text/css">
	.st0{fill:none;}
	.st1{fill:none;stroke:#1D1D1B;stroke-width:0.3;}
	.st2{fill:url(#SVGID_1_);}
	.st3{fill:#FFFFFF;}
	.st4{fill:none;stroke:#000000;stroke-width:3;stroke-miterlimit:10;}
	.st5{fill:#FFFFFF;stroke:#000000;stroke-width:3;stroke-miterlimit:10;}
	.st6{stroke:#000000;stroke-width:1.5;stroke-miterlimit:10;}
	.st7{fill:#86ED18;}
	.st8{fill:none;stroke:#86ED18;stroke-width:8;stroke-miterlimit:10;}
	.st9{fill:#86ED18;stroke:#000000;stroke-width:3;stroke-miterlimit:10;}
</style>
<pattern  x="16.1" y="588" width="72" height="72" patternUnits="userSpaceOnUse" id="Schraffur_doppelt" viewBox="4.1 -78.2 72 72" style="overflow:visible;">
	<g>
		<rect x="4.1" y="-78.2" class="st0" width="72" height="72"/>
		<g>
			<line class="st1" x1="67.8" y1="-1.5" x2="71.3" y2="-7.6"/>
			<line class="st1" x1="69.6" y1="-8.6" x2="66.1" y2="-2.5"/>
			<line class="st1" x1="53.1" y1="-0.7" x2="50.8" y2="-7.3"/>
			<line class="st1" x1="48.9" y1="-6.6" x2="51.3" y2="-0.1"/>
			<line class="st1" x1="40.6" y1="-2.4" x2="42.3" y2="-9.2"/>
			<line class="st1" x1="40.4" y1="-9.7" x2="38.6" y2="-2.9"/>
			<line class="st1" x1="19" y1="-2.9" x2="20.9" y2="-9.7"/>
			<line class="st1" x1="19" y1="-10.2" x2="17.1" y2="-3.5"/>
			<line class="st1" x1="12.9" y1="-3.3" x2="10.9" y2="-10"/>
			<line class="st1" x1="9" y1="-9.4" x2="11" y2="-2.7"/>
			<line class="st1" x1="55.2" y1="-8.9" x2="59.6" y2="-3.5"/>
			<line class="st1" x1="61.1" y1="-4.8" x2="56.7" y2="-10.2"/>
		</g>
		<g>
			<line class="st1" x1="75.9" y1="-51.9" x2="82.4" y2="-54.5"/>
		</g>
		<g>
			<line class="st1" x1="3.9" y1="-51.9" x2="10.4" y2="-54.5"/>
			<line class="st1" x1="8.3" y1="-38.1" x2="5.8" y2="-31.6"/>
			<line class="st1" x1="7.6" y1="-30.8" x2="10.2" y2="-37.4"/>
			<line class="st1" x1="73.4" y1="-72.6" x2="79.5" y2="-69.3"/>
			<line class="st1" x1="80.5" y1="-71" x2="74.3" y2="-74.3"/>
			<line class="st1" x1="73.4" y1="-58.1" x2="78.7" y2="-62.7"/>
			<line class="st1" x1="77.4" y1="-64.2" x2="72.1" y2="-59.7"/>
			<line class="st1" x1="75.9" y1="-51.9" x2="82.4" y2="-54.5"/>
			<line class="st1" x1="81.7" y1="-56.3" x2="75.1" y2="-53.8"/>
			<line class="st1" x1="73.1" y1="-43.3" x2="79.9" y2="-41.8"/>
			<line class="st1" x1="80.3" y1="-43.7" x2="73.5" y2="-45.3"/>
			<line class="st1" x1="73.1" y1="-22" x2="79.9" y2="-20.2"/>
			<line class="st1" x1="80.4" y1="-22.2" x2="73.6" y2="-23.9"/>
			<line class="st1" x1="74.1" y1="-12" x2="80.8" y2="-14.2"/>
			<line class="st1" x1="80.2" y1="-16.1" x2="73.5" y2="-13.9"/>
			<line class="st1" x1="67.8" y1="-73.5" x2="71.3" y2="-79.6"/>
			<line class="st1" x1="69.6" y1="-80.6" x2="66.1" y2="-74.5"/>
			<line class="st1" x1="53.1" y1="-72.7" x2="50.8" y2="-79.3"/>
			<line class="st1" x1="48.9" y1="-78.6" x2="51.3" y2="-72.1"/>
			<line class="st1" x1="40.6" y1="-74.4" x2="42.3" y2="-81.2"/>
			<line class="st1" x1="40.4" y1="-81.7" x2="38.6" y2="-74.9"/>
			<line class="st1" x1="34.9" y1="-74.5" x2="28.5" y2="-77.3"/>
			<line class="st1" x1="27.7" y1="-75.4" x2="34.1" y2="-72.7"/>
			<line class="st1" x1="19" y1="-74.9" x2="20.9" y2="-81.7"/>
			<line class="st1" x1="19" y1="-82.2" x2="17.1" y2="-75.5"/>
			<line class="st1" x1="12.9" y1="-75.3" x2="10.9" y2="-82"/>
			<line class="st1" x1="9" y1="-81.4" x2="11" y2="-74.7"/>
			<line class="st1" x1="69.6" y1="-8.6" x2="66.1" y2="-2.5"/>
			<line class="st1" x1="67.8" y1="-1.5" x2="71.3" y2="-7.6"/>
			<line class="st1" x1="55.2" y1="-8.9" x2="59.6" y2="-3.5"/>
			<line class="st1" x1="61.1" y1="-4.8" x2="56.7" y2="-10.2"/>
			<line class="st1" x1="48.9" y1="-6.6" x2="51.3" y2="-0.1"/>
			<line class="st1" x1="53.1" y1="-0.7" x2="50.8" y2="-7.3"/>
			<line class="st1" x1="40.4" y1="-9.7" x2="38.6" y2="-2.9"/>
			<line class="st1" x1="40.6" y1="-2.4" x2="42.3" y2="-9.2"/>
			<line class="st1" x1="19" y1="-10.2" x2="17.1" y2="-3.5"/>
			<line class="st1" x1="19" y1="-2.9" x2="20.9" y2="-9.7"/>
			<line class="st1" x1="9" y1="-9.4" x2="11" y2="-2.7"/>
			<line class="st1" x1="12.9" y1="-3.3" x2="10.9" y2="-10"/>
			<line class="st1" x1="22.6" y1="-31.1" x2="19.1" y2="-25"/>
			<line class="st1" x1="20.8" y1="-24" x2="24.3" y2="-30.1"/>
			<line class="st1" x1="52.6" y1="-63.3" x2="48.2" y2="-68.7"/>
			<line class="st1" x1="46.7" y1="-67.4" x2="51.1" y2="-62"/>
			<line class="st1" x1="40.4" y1="-65.1" x2="42.8" y2="-58.6"/>
			<line class="st1" x1="44.6" y1="-59.2" x2="42.3" y2="-65.8"/>
			<line class="st1" x1="66.9" y1="-17" x2="60.5" y2="-19.8"/>
			<line class="st1" x1="59.7" y1="-17.9" x2="66.1" y2="-15.2"/>
			<line class="st1" x1="67.1" y1="-35" x2="65.2" y2="-28.3"/>
			<line class="st1" x1="67.1" y1="-27.7" x2="69" y2="-34.5"/>
			<line class="st1" x1="56.7" y1="-40.4" x2="58.7" y2="-33.7"/>
			<line class="st1" x1="60.6" y1="-34.2" x2="58.6" y2="-40.9"/>
			<line class="st1" x1="37.2" y1="-45.7" x2="40.6" y2="-51.7"/>
			<line class="st1" x1="38.9" y1="-52.7" x2="35.4" y2="-46.7"/>
			<line class="st1" x1="22.7" y1="-52.4" x2="27.1" y2="-47"/>
			<line class="st1" x1="28.6" y1="-48.3" x2="24.2" y2="-53.7"/>
			<line class="st1" x1="14.9" y1="-50.6" x2="17.3" y2="-44.1"/>
			<line class="st1" x1="19.1" y1="-44.7" x2="16.8" y2="-51.3"/>
			<line class="st1" x1="66.9" y1="-52.7" x2="65.1" y2="-45.9"/>
			<line class="st1" x1="67.1" y1="-45.4" x2="68.8" y2="-52.2"/>
			<line class="st1" x1="51" y1="-49" x2="57.5" y2="-46.3"/>
			<line class="st1" x1="58.3" y1="-48.1" x2="51.8" y2="-50.9"/>
			<line class="st1" x1="34.2" y1="-18.9" x2="36.2" y2="-12.2"/>
			<line class="st1" x1="38.1" y1="-12.7" x2="36.1" y2="-19.4"/>
			<line class="st1" x1="53.1" y1="-17.8" x2="46.2" y2="-16.8"/>
			<line class="st1" x1="46.5" y1="-14.8" x2="53.4" y2="-15.8"/>
			<line class="st1" x1="53.3" y1="-30" x2="51.7" y2="-23.2"/>
			<line class="st1" x1="53.6" y1="-22.7" x2="55.2" y2="-29.6"/>
			<line class="st1" x1="34.4" y1="-32.9" x2="30.6" y2="-27"/>
			<line class="st1" x1="32.3" y1="-25.9" x2="36.1" y2="-31.9"/>
			<line class="st1" x1="36" y1="-41.5" x2="29.6" y2="-38.7"/>
			<line class="st1" x1="30.4" y1="-36.9" x2="36.8" y2="-39.7"/>
			<line class="st1" x1="22.5" y1="-35.9" x2="24.4" y2="-42.7"/>
			<line class="st1" x1="22.5" y1="-43.2" x2="20.6" y2="-36.5"/>
			<line class="st1" x1="48.1" y1="-39.3" x2="46" y2="-46"/>
			<line class="st1" x1="44.1" y1="-45.4" x2="46.1" y2="-38.7"/>
			<line class="st1" x1="34.3" y1="-62.5" x2="28.8" y2="-58.3"/>
			<line class="st1" x1="30" y1="-56.7" x2="35.6" y2="-60.9"/>
			<line class="st1" x1="25.1" y1="-62.3" x2="23.1" y2="-69"/>
			<line class="st1" x1="21.2" y1="-68.5" x2="23.2" y2="-61.7"/>
			<line class="st1" x1="14.5" y1="-68.8" x2="14.1" y2="-61.8"/>
			<line class="st1" x1="16.1" y1="-61.7" x2="16.5" y2="-68.7"/>
			<line class="st1" x1="27.4" y1="-21" x2="23.1" y2="-15.4"/>
			<line class="st1" x1="24.7" y1="-14.2" x2="29" y2="-19.7"/>
			<line class="st1" x1="19.6" y1="-16.5" x2="14.8" y2="-21.6"/>
			<line class="st1" x1="13.3" y1="-20.2" x2="18.2" y2="-15.2"/>
			<line class="st1" x1="59.6" y1="-53.7" x2="64" y2="-59.2"/>
			<line class="st1" x1="62.5" y1="-60.4" x2="58.1" y2="-55"/>
			<line class="st1" x1="62.7" y1="-63.9" x2="63.5" y2="-70.9"/>
			<line class="st1" x1="61.5" y1="-71.1" x2="60.7" y2="-64.1"/>
			<line class="st1" x1="39.7" y1="-28.9" x2="46.1" y2="-26.2"/>
			<line class="st1" x1="46.9" y1="-28" x2="40.5" y2="-30.8"/>
			<line class="st1" x1="55.2" y1="-80.9" x2="59.6" y2="-75.5"/>
			<line class="st1" x1="61.1" y1="-76.8" x2="56.7" y2="-82.2"/>
		</g>
		<g>
			<line class="st1" x1="1.4" y1="-72.6" x2="7.5" y2="-69.3"/>
			<line class="st1" x1="8.5" y1="-71" x2="2.3" y2="-74.3"/>
			<line class="st1" x1="1.4" y1="-58.1" x2="6.7" y2="-62.7"/>
			<line class="st1" x1="5.4" y1="-64.2" x2="0.1" y2="-59.7"/>
			<line class="st1" x1="3.9" y1="-51.9" x2="10.4" y2="-54.5"/>
			<line class="st1" x1="9.7" y1="-56.3" x2="3.1" y2="-53.8"/>
			<line class="st1" x1="1.1" y1="-43.3" x2="7.9" y2="-41.8"/>
			<line class="st1" x1="8.3" y1="-43.7" x2="1.5" y2="-45.3"/>
			<line class="st1" x1="1.1" y1="-22" x2="7.9" y2="-20.2"/>
			<line class="st1" x1="8.4" y1="-22.2" x2="1.6" y2="-23.9"/>
			<line class="st1" x1="2.1" y1="-12" x2="8.8" y2="-14.2"/>
			<line class="st1" x1="8.2" y1="-16.1" x2="1.5" y2="-13.9"/>
		</g>
		<g>
			<line class="st1" x1="69.6" y1="-80.6" x2="66.1" y2="-74.5"/>
			<line class="st1" x1="67.8" y1="-73.5" x2="71.3" y2="-79.6"/>
			<line class="st1" x1="55.2" y1="-80.9" x2="59.6" y2="-75.5"/>
			<line class="st1" x1="61.1" y1="-76.8" x2="56.7" y2="-82.2"/>
			<line class="st1" x1="48.9" y1="-78.6" x2="51.3" y2="-72.1"/>
			<line class="st1" x1="53.1" y1="-72.7" x2="50.8" y2="-79.3"/>
			<line class="st1" x1="40.4" y1="-81.7" x2="38.6" y2="-74.9"/>
			<line class="st1" x1="40.6" y1="-74.4" x2="42.3" y2="-81.2"/>
			<line class="st1" x1="19" y1="-82.2" x2="17.1" y2="-75.5"/>
			<line class="st1" x1="19" y1="-74.9" x2="20.9" y2="-81.7"/>
			<line class="st1" x1="9" y1="-81.4" x2="11" y2="-74.7"/>
			<line class="st1" x1="12.9" y1="-75.3" x2="10.9" y2="-82"/>
		</g>
	</g>
</pattern>
<g id="Ebene_3">
	<pattern  id="SVGID_1_" xlink:href="#Schraffur_doppelt" patternTransform="matrix(1 0 0 1 -47 44)">
	</pattern>
	<path class="st2" d="M88.2,559.6c52.2,95.7,173-4.1,254.7,0c81.7,4,137.4-24.1,173-85.3c43.9-75.5,18.4-160.5-88.1-191.7
		S25.7,445,88.2,559.6L88.2,559.6z"/>
</g>
<g id="Ebene_1">
	<path class="st3" d="M139.8,443.8l-30,137.3c0,0.8,0.7,1.5,1.5,1.5l116.4-0.1c1,0,1.7-1,1.4-1.9c-1.2-4-4.8-13.7-10.9-18.1
		c-7.9-5.8-29.7-15-38.4-27.5c-2.4-3.4-1.9-13.5-0.7-25.8"/>
	<path class="st4" d="M139.8,443.8l-30,137.3c0,0.8,0.7,1.5,1.5,1.5l116.4-0.1c1,0,1.7-1,1.4-1.9c-1.2-4-4.8-13.7-10.9-18.1
		c-7.9-5.8-29.7-15-38.4-27.5c-2.4-3.4-1.9-13.5-0.7-25.8"/>
	<path d="M361.7,315.9c-11.1,0-25.3-4.1-38.9-20c-10.4-12.2-17.7-28-22.9-40.5c-4.6-11,0.6-23.7,11.6-28.3
		c11-4.6,23.7,0.6,28.4,11.6c3.7,8.8,9.3,21.4,15.9,29.1c4.6,5.3,6.2,4.8,6.9,4.6c16.6-4.8,39.5-20.6,36.4-33.7
		c-2.8-11.6,4.3-23.3,15.9-26.1c11.6-2.8,23.3,4.3,26.1,15.9c5.1,20.6-2.1,41.6-19.9,58.9c-12.3,11.9-29.6,21.9-46.5,26.7
		C371.2,315,366.8,315.9,361.7,315.9L361.7,315.9z M287.1,355c-5,0-10-1.7-14.1-5.2c-10.1-8.6-20.6-15.9-31.9-23.6
		c-26.4-18.1-53.6-36.9-71.8-72.4c-5.4-10.6-1.2-23.7,9.4-29.1c10.6-5.4,23.7-1.2,29.2,9.4c13.3,25.8,33.9,40,57.9,56.5
		c11.6,8,23.6,16.3,35.5,26.4c9,7.8,10.1,21.4,2.4,30.5C299.3,352.4,293.2,355,287.1,355L287.1,355z"/>
	<path class="st4" d="M177.6,193C177.6,193,177.6,193,177.6,193c0-4.3-3.5-7.8-7.8-7.8c-4.3,0-7.8,3.5-7.8,7.8
		c0,4.3,3.5,7.8,7.8,7.8C174.1,200.8,177.6,197.3,177.6,193z"/>
	<path class="st5" d="M224.3,193.4c0-15.1-12.2-27.3-27.3-27.3c-15.1,0-27.3,12.2-27.3,27.3s12.2,27.3,27.3,27.3
		C212,220.7,224.3,208.5,224.3,193.4z"/>
	<path class="st4" d="M198.2,187.1c1.1,0,2-0.9,2-2s-0.9-2-2-2c-1.1,0-2,0.9-2,2S197.1,187.1,198.2,187.1
		C198.2,187.1,198.2,187.1,198.2,187.1z M215.1,185c0-1.1-0.9-2-2-2s-2,0.9-2,2s0.9,2,2,2S215.1,186.1,215.1,185z"/>
	<path class="st4" d="M128.8,408.1h-11.2c-51.2,0.3-92.9-41-93.1-92.2c-0.3-51.2,41.1-92.9,92.2-93.1h1.1c7.3-0.4,13.7-5,14.2-16.5
		c1.7-35,36.1-44.1,43.5-44.1l22.8-0.1v4.1c0,0-0.2,23.1-28.6,19.1"/>
	<path class="st3" d="M449,437.3l66.1,60.2c0.6,0.6,0.7,1.5,0.1,2.1l-78.4,86c-0.7,0.8-1.8,0.7-2.4-0.2c-2.2-3.7-7-12.8-6.2-20.3
		c1-9.8,8.9-32.2,5.4-47c-1-4-6.4-12.8-13.3-24.5"/>
	<path class="st4" d="M449,437.3l66.1,60.2c0.6,0.6,0.7,1.5,0.1,2.1l-78.4,86c-0.7,0.8-1.8,0.7-2.4-0.2c-2.2-3.7-7-12.8-6.2-20.3
		c1-9.8,8.9-32.2,5.4-47c-1-4-6.4-12.8-13.3-24.5"/>
	<path class="st3" d="M392.1,437.4c-8.1-21.5-10.6-40.7-1.2-56.9c8.8-15.1,34.8-49,36.6-52.4c0,0-16.7-54.3-27.8-69.4
		c-2.1-2.9-15.4-20.9-1.2-36.3c13.6-14.8,28.3-15.7,42.9-2c9,8.4,26,53.4,40,87.6c5.6,13.6,10,33,1.3,52.6l-96.7,220.2
		c-0.7,1.7-2.9,2.2-4.3,1.1l-90-69.3c-1.2-1-1.5-2.8-0.4-4c2.9-3.6,9.5-10.1,21.6-11.5c19.1-2.3,39.9,4,50.9-10.1
		c2.9-3.7,67.9-120.3,67.9-120.3"/>
	<path class="st4" d="M392.1,437.4c-8.1-21.5-10.6-40.7-1.2-56.9c8.8-15.1,34.8-49,36.6-52.4c0,0-16.7-54.3-27.8-69.4
		c-2.1-2.9-15.4-20.9-1.2-36.3c13.6-14.8,28.3-15.7,42.9-2c9,8.4,26,53.4,40,87.6c5.6,13.6,10,33,1.3,52.6l-96.7,220.2
		c-0.7,1.7-2.9,2.2-4.3,1.1l-90-69.3c-1.2-1-1.5-2.8-0.4-4c2.9-3.6,9.5-10.1,21.6-11.5c19.1-2.3,39.9,4,50.9-10.1
		c2.9-3.7,67.9-120.3,67.9-120.3"/>
	<path class="st3" d="M199.1,446.1c3.6-24.4,5.1-48.9-4.3-65.1c-8.8-15.1-28.8-43.2-30.6-46.5c0,0,28.4-54.2,39.5-69.2
		c2.1-2.9,15.4-20.9,1.2-36.3c-13.6-14.8-33.3-11.6-47.9,2.1c-9,8.4-32.6,50.6-49.4,82.2c-6.8,13-13.4,28.2-4.8,47.8l96.7,220.1
		c0.7,1.6,2.9,2.1,4.1,0.8l83.9-82.4c0,0-3.8-7.8-20.7-9.9c-19-2.4-34,11.8-45-2.3C219,483.7,154,367.1,154,367.1"/>
	<path class="st4" d="M199.1,446.1c3.6-24.4,5.1-48.9-4.3-65.1c-8.8-15.1-28.8-43.2-30.6-46.5c0,0,28.4-54.2,39.5-69.2
		c2.1-2.9,15.4-20.9,1.2-36.3c-13.6-14.8-33.3-11.6-47.9,2.1c-9,8.4-32.6,50.6-49.4,82.2c-6.8,13-13.4,28.2-4.8,47.8l96.7,220.1
		c0.7,1.6,2.9,2.1,4.1,0.8l83.9-82.4c0,0-3.8-7.8-20.7-9.9c-19-2.4-34,11.8-45-2.3C219,483.7,154,367.1,154,367.1"/>
	<path class="st5" d="M432.1,197.1L432.1,197.1c4.4,0,7.9-3.5,7.9-7.9l0,0c0-4.4-3.6-7.9-7.9-7.9c0,0,0,0,0,0
		c-4.4,0-7.9,3.5-7.9,7.9c0,0,0,0,0,0C424.2,193.6,427.7,197.1,432.1,197.1L432.1,197.1z"/>
	<path class="st4" d="M435.6,187.4c0.1,1.2,0.1,2.5,0.1,3.8 M430.2,191.8c0.1,1.2,0.1,2.5,0.1,3.7"/>
	<path class="st5" d="M432.3,189.9c0-15.4-12.5-27.8-27.8-27.8c-15.4,0-27.8,12.5-27.8,27.8s12.5,27.8,27.8,27.8
		C419.9,217.7,432.3,205.2,432.3,189.9z"/>
	<path class="st4" d="M413.5,163.5c-1.4-5.9-6.8-10.7-14.4-11.3c-1.2-4.5-5.7-7.5-10.6-6.6c-3.5,0.7-6.2,3.3-7.2,6.7
		c-0.4,1.4-0.4,2.7-0.2,3.9c0.1,0.2-0.1,0.3-0.3,0.1c-1.1-1.6-3.1-2.6-5.3-2.5c-3.6,0.2-6.2,3.6-5.4,7.3c0.4,2,2,3.6,3.9,4.3
		c1,0.4,1.8,0.4,2.7,0.3c0.2,0,0.3,0.2,0.1,0.4c-1.7,1.3-2.7,3.5-2.3,5.9c0.5,2.8,3,4.8,5.8,4.8c3.1,0,5.6-2.3,5.9-5.1"/>
	<path class="st6" d="M416,192.6c0-0.3-0.2-0.5-0.5-0.5c0,0,0,0,0,0c-0.3,0-0.5,0.2-0.5,0.5c0,0.3,0.2,0.5,0.5,0.5
		C415.7,193.1,416,192.9,416,192.6z M413.5,195.1c0-0.3-0.2-0.5-0.5-0.5c-0.3,0-0.5,0.2-0.5,0.5c0,0.3,0.2,0.5,0.5,0.5
		C413.2,195.6,413.5,195.4,413.5,195.1z M420.9,192.5c0-0.3-0.2-0.5-0.5-0.5c0,0,0,0,0,0c-0.3,0-0.5,0.2-0.5,0.5s0.2,0.5,0.5,0.5
		C420.7,193,420.9,192.8,420.9,192.5z M422.7,195.6c0.3,0,0.5-0.2,0.5-0.5c0-0.3-0.2-0.5-0.5-0.5c0,0,0,0,0,0
		c-0.3,0-0.5,0.2-0.5,0.5S422.4,195.6,422.7,195.6L422.7,195.6z M417.9,195.6c0.3,0,0.5-0.2,0.5-0.5c0-0.3-0.2-0.5-0.5-0.5
		c0,0,0,0,0,0c-0.3,0-0.5,0.2-0.5,0.5S417.7,195.6,417.9,195.6L417.9,195.6z"/>
	<path class="st4" d="M401.4,185L401.4,185z M390.1,183c0-1.1-0.9-2.1-2.1-2.1c0,0,0,0,0,0c-1.1,0-2.1,0.9-2.1,2.1
		c0,1.1,0.9,2.1,2.1,2.1C389.2,185,390.1,184.1,390.1,183z"/>
	<path d="M387.3,195.1v-3.2l12.4-0.1v3.2c0.1,3.8-2.7,7-6.2,7S387.3,198.9,387.3,195.1L387.3,195.1z"/>
	<path class="st3" d="M401,198.2c0.1-2.4-1.8-4.3-4.2-4.4c-0.1,0-0.1,0-0.2,0c-2.4,0.1-4.2,2-4.2,4.4c0.1,2.4,2,4.2,4.4,4.2
		C399.1,202.3,401,200.5,401,198.2z"/>
	<path class="st4" d="M387.1,195.8l0.2-3.9l12.4-0.1l-0.2,3.9c0.1,3.5-2.7,6.2-6.2,6.2C389.9,202.1,387.1,199.3,387.1,195.8
		L387.1,195.8z"/>
	<path d="M127.3,288.4c-8.9,0-17.8-1.8-26.5-5.5c-16-7-28.7-20.5-35.8-38c-6.6-16.7-7.4-35.2-2.3-52.3c3.5-11.5,15.6-17.9,27-14.5
		c11.5,3.5,17.9,15.6,14.5,27c-4.6,15,1.9,32.8,13.9,38c11.7,5.1,28.8-0.1,37.3-17.7c5.2-10.8,18.1-15.3,28.9-10.1
		c10.8,5.2,15.3,18.1,10.1,28.9C181.1,272,154.5,288.4,127.3,288.4L127.3,288.4z"/>
	<path class="st4" d="M91.3,177.4l7.3,2.1"/>
	<path class="st3" d="M111.5,184.4l-1.6,5.4l3,1"/>
	<path class="st4" d="M111.5,184.4l-1.6,5.4l3,1"/>
	<path class="st3" d="M112.3,181.8c0.8-2.7,3.5-4.6,6.3-4c3.2,0.7,5.1,3.8,4.2,6.9l-2.5,8.4c-1.6,5.3-7.2,8.3-12.5,6.7l-3-0.9
		l-1.4,4.8l-39.7-12l9.1-30"/>
	<path class="st4" d="M112.3,181.8c0.8-2.7,3.5-4.6,6.3-4c3.2,0.7,5.1,3.8,4.2,6.9l-2.5,8.4c-1.6,5.3-7.2,8.3-12.5,6.7l-3-0.9
		l-1.4,4.8l-39.7-12l9.1-30"/>
	<path class="st5" d="M105.9,165.1l-4.8,16.3c-0.9,2.9,0.8,5.9,3.7,6.8c2.9,0.9,5.9-0.8,6.8-3.7l4.8-16.3L105.9,165.1z M105.9,165
		l-10.4-3.1l-4.8,16.3c-0.9,2.9,0.8,5.9,3.7,6.8c2.9,0.9,5.9-0.8,6.8-3.7L105.9,165L105.9,165z"/>
	<path class="st5" d="M95.5,161.9l-10.4-3.1l-4.8,16.3c-0.9,2.9,0.8,5.9,3.7,6.8c2.9,0.9,5.9-0.8,6.8-3.7L95.5,161.9L95.5,161.9z
		 M74.7,155.7L69.8,172c-0.9,2.9,0.8,5.9,3.7,6.8c2.9,0.9,5.9-0.8,6.8-3.7l4.8-16.3L74.7,155.7z"/>
	<path class="st7" d="M127.6,170.1l28.5,4.2l-7.9,26.4l-26-12.6L127.6,170.1L127.6,170.1z"/>
	<path class="st4" d="M126.3,173.6l28.6,4.1L147,204l-26.1-12.4L126.3,173.6L126.3,173.6z"/>
	<path class="st5" d="M117.4,174.9l-3.2,10.7l7.9,2.3l3.2-10.7L117.4,174.9z"/>
	<path class="st4" d="M314.3,227l6.8-2.5"/>
	<path class="st3" d="M332.5,221.2l1.8,5l2.8-1"/>
	<path class="st4" d="M332.5,221.2l1.8,5l2.8-1"/>
	<path class="st3" d="M331.6,218.8c-1-2.5,0.1-5.4,2.5-6.6c2.8-1.3,6.1,0.1,7.1,2.9l2.9,7.9c1.8,4.9-0.7,10.4-5.7,12.1l-0.9,0.3
		l1.7,4.4l-38.8,14.2L290.3,226"/>
	<path class="st4" d="M331.6,218.8c-1-2.5,0.1-5.4,2.5-6.6c2.8-1.3,6.1,0.1,7.1,2.9l2.9,7.9c1.8,4.9-0.7,10.4-5.7,12.1l-0.9,0.3
		l1.7,4.4l-38.8,14.2L290.3,226"/>
	<path class="st5" d="M317.2,209.7l5.6,15.1c1,2.6,4,4,6.6,3c2.6-1,4-4,3-6.6l-5.6-15.1L317.2,209.7z"/>
	<path class="st5" d="M317.2,209.7l-9.6,3.6l5.6,15.1c1,2.6,4,4,6.6,3c2.6-1,4-4,3-6.6L317.2,209.7L317.2,209.7z M307.5,213.3
		l-9.6,3.6l5.6,15.1c1,2.6,4,4,6.6,3c2.6-1,4-4,3-6.6L307.5,213.3L307.5,213.3z M288.2,220.4l5.6,15.1c1,2.6,4,4,6.6,3
		c2.6-1,4-4,3-6.6l-5.6-15.1L288.2,220.4z"/>
	<path class="st7" d="M339.6,198.8l24-13.1l8.9,24.4l-26.8,5.3L339.6,198.8L339.6,198.8z"/>
	<path class="st4" d="M337.4,204.6l23.9-13.1l9,24.4l-26.7,5.4L337.4,204.6L337.4,204.6z"/>
	<path class="st5" d="M331.4,210.7l3.7,9.9l7.3-2.7l-3.7-9.9L331.4,210.7z"/>
	<path d="M211.8,196l-0.1-2.8l-12.2,0.1v2.8c0.1,3.4,3.1,7.9,6.5,7.9C209.4,203.9,211.8,199.3,211.8,196L211.8,196z"/>
	<path class="st3" d="M205.8,194.6c0-2.3-1.8-4.2-4.1-4.3c0,0-0.1,0-0.1,0c-2.3,0-4.2,1.9-4.1,4.3c0,2.3,1.9,4.2,4.3,4.1
		C204,198.7,205.8,196.8,205.8,194.6z"/>
	<path class="st4" d="M212.1,197.8v-4.6l-12.2,0.1l-0.1,4.6c0.1,3.4,2.8,6.1,6.2,6.1C209.4,203.9,212.1,201.2,212.1,197.8
		L212.1,197.8z"/>
	<path d="M323,355.4c-6.1,0-12.2-2.6-16.5-7.6c-7.8-9.1-6.8-22.8,2.4-30.5c33.7-28.9,96.8-97.5,97.5-98.2c8.1-8.8,21.8-9.4,30.6-1.3
		c8.8,8.1,9.4,21.8,1.3,30.6c-2.7,2.9-65.6,71.3-101.2,101.8C333,353.7,328,355.4,323,355.4L323,355.4z"/>
	<path class="st5" d="M316.8,307.9c2.2-2.2,2.1-5.7-0.1-7.9c-2.2-2.2-5.8-2.1-8,0.1L296.9,312l-30.6,30.5l7.9,7.9
		C274.2,350.4,316.7,307.9,316.8,307.9z"/>
	<path class="st3" d="M279.6,360.9c-2.1,2.1-5.6,2.1-7.7,0c0,0,0,0,0,0c-2.1-2.1-2.1-5.6,0-7.7c0-0.2,20.4-20.6,32.6-32.7
		l-10.6-10.6c-2.2-2.2-2.1-5.5,0.1-7.7c2.2-2.2,5.8-2,8,0.2l41.2,41l-40.5,40.5c-2.1,2.1-5.6,2.1-7.7,0c0,0,0,0,0,0
		c-2.1-2.1-2.1-5.6,0-7.7l2.5-2.5"/>
	<path class="st4" d="M279.6,360.9c-2.1,2.1-5.6,2.1-7.7,0c0,0,0,0,0,0c-2.1-2.1-2.1-5.6,0-7.7c0-0.2,20.4-20.6,32.6-32.7
		l-10.6-10.6c-2.2-2.2-2.1-5.5,0.1-7.7c2.2-2.2,5.8-2,8,0.2l41.2,41l-40.5,40.5c-2.1,2.1-5.6,2.1-7.7,0c0,0,0,0,0,0
		c-2.1-2.1-2.1-5.6,0-7.7l2.5-2.5"/>
	<path class="st3" d="M282,358.3l-2.5,2.5c0,0,0,0,0,0c-2.1,2.1-2.1,5.6,0,7.7c2.1,2.1,5.6,2.1,7.7,0"/>
	<path class="st4" d="M282,358.3l-2.5,2.5c0,0,0,0,0,0c-2.1,2.1-2.1,5.6,0,7.7c2.1,2.1,5.6,2.1,7.7,0"/>
	<path class="st3" d="M301.7,369.4l-6.8,6.8c-2.1,2.1-5.6,2.1-7.7,0c0,0,0,0,0,0c-2.1-2.1-2.1-5.6,0-7.7l2.5-2.5"/>
	<path class="st4" d="M301.7,369.4l-6.8,6.8c-2.1,2.1-5.6,2.1-7.7,0c0,0,0,0,0,0c-2.1-2.1-2.1-5.6,0-7.7l2.5-2.5"/>
	<path class="st5" d="M309.2,386.5l-12-12c-2-2.1-2-5.4,0-7.5c2.1-2.2,5.5-2.2,7.7-0.2l12,12L309.2,386.5z M332,363.7l-12-12
		c0,0,0,0,0,0c-2.1-2.1-2.1-5.6,0-7.7c2.1-2.1,5.6-2.1,7.7,0l12,12L332,363.7z"/>
	<path class="st5" d="M324.6,371.1l-12-12c0,0,0,0,0,0c-2.1-2.1-2.1-5.6,0-7.7c0,0,0,0,0,0c2.1-2.1,5.6-2.1,7.7,0l12,12L324.6,371.1
		z"/>
	<path class="st5" d="M316.9,378.8l-12-12c0,0,0,0,0,0c-2.1-2.1-2.1-5.6,0-7.7c2.1-2.1,5.6-2.1,7.7,0l12,12L316.9,378.8z"/>
	<path class="st4" d="M292.6,232.3c-10,4-16,5.1-24.2-5.1l-58.4-71.4c-20.9-26.1-19.5-63.4,3.3-87.9c26.2-28.2,70.7-28.7,97.5-1.1
		l2.4,2.5c22.5,23.1,25.4,58.9,7.1,85.3l-73.5,105.9c-40.9,61.8-120.1,84.3-173.1,52.3c-37-22.3-57.6-64.8-56.1-108.9
		c0.9-27.5,28.2-46.3,54.4-38"/>
	<path class="st4" d="M373.9,122c5-25.8-0.3-51.2-12.9-72C346.7,26.6,323,9.1,294.1,3.4c-18.7-3.7-37.2-1.9-53.8,4.1"/>
	<path class="st8" d="M179.5,92.4c-7.7,24.8-1.7,42.7,2.4,49.5"/>
</g>
<g id="Ebene_2">
	<path class="st9" d="M261.8,34.6c-18.8,0-36.4,3.4-45.1,11.2c-8.7,7.7-5.1,18.4-3.4,20.4c2.3,2.9,5.7,2.1,7.8,1.7
		c2.1-0.3,14.8-2.7,16.7-3.1c1.9-0.5,5.7-2.2,5.1-6.9c-0.6-4.6-2.5-11.2,18.9-11.2c21.4,0,19.5,6.5,18.9,11.2
		c-0.6,4.5,3.2,6.4,5.1,6.7c2.1,0.3,14.6,2.7,16.7,3.3c2.3,0.3,5.5,1,7.8-1.7c1.7-2.1,5.3-12.7-3.4-20.4
		C298.2,38,280.6,34.6,261.8,34.6"/>
	<path class="st4" d="M266.1,84.3v2c0,1.1-1.1,2-2.5,2h-5c-1.4,0-2.5-0.9-2.5-2v-2 M287.7,84.3v2c0,1.1-1.3,2-2.9,2h-5.8
		c-1.6,0-2.9-0.9-2.9-2v-2 M246,84.3v2c0,1.1-1.1,2-2.5,2h-5c-1.4,0-2.5-0.9-2.5-2v-2 M266.1,98.8v2c0,1.1-1.1,2-2.5,2h-5
		c-1.4,0-2.5-0.9-2.5-2v-2 M287.7,98.8v2c0,1.1-1.3,2-2.9,2h-5.8c-1.6,0-2.9-0.9-2.9-2v-2 M246,98.8v2c0,1.1-1.1,2-2.5,2h-5
		c-1.4,0-2.5-0.9-2.5-2v-2 M266.1,111.9v2.6c0,1.5-1.1,2.6-2.5,2.6h-5c-1.4,0-2.5-1.2-2.5-2.6v-2.6 M287.7,111.9v2.6
		c0,1.5-1.3,2.6-2.9,2.6h-5.8c-1.6,0-2.9-1.2-2.9-2.6v-2.6 M246,111.9v2.6c0,1.5-1.1,2.6-2.5,2.6h-5c-1.4,0-2.5-1.2-2.5-2.6v-2.6"/>
</g>
</svg>
