<svg width="472" height="386" viewBox="0 0 472 386" fill="none" xmlns="http://www.w3.org/2000/svg">
<path d="M126.667 273H70L81.9298 308.193L70 341H126.667L114.737 308.193L126.667 273Z" stroke="black" stroke-width="2"/>
<path fill-rule="evenodd" clip-rule="evenodd" d="M102.25 305.21H109.965L112.947 296.859H82.5264L86.1054 305.21H95.25V318.333H84.3155L78.3506 335.035H118.315L111.158 318.333H102.25V305.21Z" fill="#DB00C5"/>
<path d="M388.988 64.5V77.5L393.488 83" stroke="black" stroke-width="2"/>
<path fill-rule="evenodd" clip-rule="evenodd" d="M389.5 62C380.94 62 374 68.9396 374 77.5H372C372 67.835 379.835 60 389.5 60C399.165 60 407 67.835 407 77.5C407 84.0321 403.421 89.7264 398.12 92.7328L403.33 94.5561L402.67 96.4439L395.17 93.819L394.399 93.5495L394.509 92.7408L395.509 85.3656L397.491 85.6344L396.735 91.2118C401.652 88.6121 405 83.4461 405 77.5C405 68.9396 398.06 62 389.5 62Z" fill="black"/>
<rect x="87" y="85" width="298" height="204" rx="7" fill="white" stroke="black" stroke-width="2"/>
<path d="M180.458 209H177.28V187.928L170.905 190.27V187.398L179.963 183.998H180.458V209ZM191.174 196.524L192.438 184.117H205.188V187.04H195.122L194.37 193.824C195.589 193.106 196.973 192.748 198.522 192.748C200.79 192.748 202.59 193.5 203.923 195.003C205.256 196.496 205.922 198.518 205.922 201.07C205.922 203.634 205.227 205.656 203.837 207.137C202.459 208.607 200.528 209.342 198.044 209.342C195.845 209.342 194.051 208.732 192.661 207.513C191.271 206.294 190.479 204.608 190.285 202.455H193.276C193.47 203.879 193.977 204.955 194.797 205.685C195.617 206.402 196.7 206.761 198.044 206.761C199.514 206.761 200.664 206.26 201.496 205.257C202.339 204.255 202.761 202.87 202.761 201.104C202.761 199.441 202.305 198.108 201.394 197.105C200.493 196.091 199.292 195.584 197.788 195.584C196.409 195.584 195.327 195.886 194.541 196.49L193.703 197.174L191.174 196.524ZM209.597 207.342C209.597 206.795 209.756 206.34 210.075 205.975C210.406 205.611 210.896 205.428 211.545 205.428C212.194 205.428 212.684 205.611 213.015 205.975C213.356 206.34 213.527 206.795 213.527 207.342C213.527 207.866 213.356 208.305 213.015 208.658C212.684 209.011 212.194 209.188 211.545 209.188C210.896 209.188 210.406 209.011 210.075 208.658C209.756 208.305 209.597 207.866 209.597 207.342ZM209.614 192.252C209.614 191.705 209.773 191.249 210.092 190.885C210.423 190.52 210.913 190.338 211.562 190.338C212.211 190.338 212.701 190.52 213.032 190.885C213.374 191.249 213.544 191.705 213.544 192.252C213.544 192.776 213.374 193.215 213.032 193.568C212.701 193.921 212.211 194.098 211.562 194.098C210.913 194.098 210.423 193.921 210.092 193.568C209.773 193.215 209.614 192.776 209.614 192.252ZM233.454 198.387C233.454 202.09 232.822 204.841 231.557 206.642C230.292 208.442 228.316 209.342 225.627 209.342C222.972 209.342 221.007 208.465 219.731 206.71C218.455 204.944 217.794 202.312 217.749 198.814V194.593C217.749 190.936 218.381 188.219 219.646 186.441C220.91 184.664 222.893 183.775 225.593 183.775C228.27 183.775 230.241 184.636 231.506 186.356C232.771 188.065 233.42 190.708 233.454 194.286V198.387ZM230.292 194.063C230.292 191.386 229.917 189.438 229.165 188.219C228.413 186.988 227.222 186.373 225.593 186.373C223.975 186.373 222.796 186.983 222.055 188.202C221.315 189.421 220.933 191.295 220.91 193.824V198.883C220.91 201.572 221.298 203.56 222.072 204.847C222.858 206.123 224.043 206.761 225.627 206.761C227.188 206.761 228.344 206.157 229.096 204.95C229.86 203.742 230.258 201.839 230.292 199.242V194.063ZM253.569 185.895L243.264 209H239.948L250.219 186.715H236.752V184.117H253.569V185.895ZM257.38 207.342C257.38 206.795 257.539 206.34 257.858 205.975C258.189 205.611 258.679 205.428 259.328 205.428C259.978 205.428 260.467 205.611 260.798 205.975C261.14 206.34 261.311 206.795 261.311 207.342C261.311 207.866 261.14 208.305 260.798 208.658C260.467 209.011 259.978 209.188 259.328 209.188C258.679 209.188 258.189 209.011 257.858 208.658C257.539 208.305 257.38 207.866 257.38 207.342ZM257.397 192.252C257.397 191.705 257.556 191.249 257.875 190.885C258.206 190.52 258.696 190.338 259.345 190.338C259.995 190.338 260.485 190.52 260.815 190.885C261.157 191.249 261.328 191.705 261.328 192.252C261.328 192.776 261.157 193.215 260.815 193.568C260.485 193.921 259.995 194.098 259.345 194.098C258.696 194.098 258.206 193.921 257.875 193.568C257.556 193.215 257.397 192.776 257.397 192.252ZM281.237 198.387C281.237 202.09 280.605 204.841 279.34 206.642C278.076 208.442 276.099 209.342 273.41 209.342C270.756 209.342 268.79 208.465 267.514 206.71C266.238 204.944 265.577 202.312 265.532 198.814V194.593C265.532 190.936 266.164 188.219 267.429 186.441C268.693 184.664 270.676 183.775 273.376 183.775C276.053 183.775 278.024 184.636 279.289 186.356C280.554 188.065 281.203 190.708 281.237 194.286V198.387ZM278.076 194.063C278.076 191.386 277.7 189.438 276.948 188.219C276.196 186.988 275.005 186.373 273.376 186.373C271.758 186.373 270.579 186.983 269.838 188.202C269.098 189.421 268.716 191.295 268.693 193.824V198.883C268.693 201.572 269.081 203.56 269.855 204.847C270.642 206.123 271.826 206.761 273.41 206.761C274.971 206.761 276.127 206.157 276.879 204.95C277.643 203.742 278.042 201.839 278.076 199.242V194.063ZM301.591 209H285.288V206.727L293.901 197.157C295.177 195.71 296.054 194.536 296.533 193.636C297.023 192.725 297.268 191.785 297.268 190.816C297.268 189.518 296.875 188.452 296.088 187.621C295.302 186.789 294.254 186.373 292.944 186.373C291.372 186.373 290.147 186.823 289.27 187.723C288.404 188.612 287.971 189.854 287.971 191.449H284.809C284.809 189.159 285.544 187.307 287.014 185.895C288.495 184.482 290.472 183.775 292.944 183.775C295.257 183.775 297.085 184.385 298.43 185.604C299.774 186.812 300.446 188.424 300.446 190.44C300.446 192.89 298.885 195.807 295.764 199.19L289.099 206.419H301.591V209Z" fill="black"/>
<rect x="128" y="130" width="88" height="8" rx="4" fill="black"/>
<path d="M110.469 137.538C105.576 132.715 103.382 128.063 102.897 126.34L101.874 127.349C100.993 128.217 100.723 129.523 101.318 130.602C102.567 132.87 104.877 136.332 108.284 139.692C111.533 142.895 114.629 145.164 116.696 146.476C117.818 147.188 119.259 146.961 120.203 146.03L121.535 144.717C119.885 144.334 115.361 142.362 110.469 137.538Z" fill="black"/>
<path d="M103.653 125.595C104.6 124.661 106.185 124.853 106.875 125.986L109.496 130.293C109.982 131.092 109.854 132.114 109.186 132.773L107.383 134.551C106.435 135.485 104.85 135.293 104.161 134.16L101.54 129.853C101.053 129.054 101.181 128.032 101.849 127.373L103.653 125.595Z" fill="black"/>
<path d="M122.291 143.971C123.239 143.037 123.044 141.474 121.895 140.795L117.526 138.21C116.716 137.731 115.679 137.857 115.011 138.516L113.207 140.294C112.26 141.228 112.455 142.791 113.604 143.47L117.972 146.055C118.783 146.534 119.82 146.408 120.488 145.749L122.291 143.971Z" fill="black"/>
<line x1="86" y1="157" x2="386" y2="157" stroke="black" stroke-width="2"/>
<line x1="86" y1="111" x2="386" y2="111" stroke="black" stroke-width="2"/>
<circle cx="102" cy="98" r="5" stroke="black" stroke-width="2"/>
<circle cx="118" cy="98" r="5" stroke="black" stroke-width="2"/>
<circle cx="134" cy="98" r="5" stroke="black" stroke-width="2"/>
<rect x="185" y="263" width="104" height="26" rx="8" fill="white" stroke="black" stroke-width="2"/>
<rect x="169" y="250" width="136" height="26" rx="8" fill="white" stroke="black" stroke-width="2"/>
<rect x="155" y="234" width="164" height="26" rx="8" fill="white" stroke="black" stroke-width="2"/>
<path d="M179 259H238V266C238 267.657 236.657 269 235 269H182C180.343 269 179 267.657 179 266V259Z" fill="black"/>
<path d="M279 259H295V266C295 267.657 293.657 269 292 269H282C280.343 269 279 267.657 279 266V259Z" fill="black"/>
<path d="M266 275H282V281C282 282.657 280.657 284 279 284H269C267.343 284 266 282.657 266 281V275Z" fill="black"/>
<path d="M192 275H235V281C235 282.657 233.657 284 232 284H195C193.343 284 192 282.657 192 281V275Z" fill="black"/>
<rect x="165" y="242" width="80" height="10" rx="3" fill="black"/>
<rect x="283" y="242" width="24" height="10" rx="3" fill="#DB00C5"/>
</svg>
