<svg width="472" height="386" viewBox="0 0 472 386" fill="none" xmlns="http://www.w3.org/2000/svg">
<path d="M309 181.167C309 214.333 286.885 243 249.903 243C212.92 243 183 216.083 183 183C183 149.917 213.013 123 249.903 123C286.792 123 309 148.083 309 181.167Z" fill="#DB00C5"/>
<path d="M331.214 141.704L331.214 141.704C330.66 157.513 322.999 175.421 310.268 190.866C297.54 206.32 281.581 217.107 266.423 220.36C265.684 220.521 264.95 220.633 264.21 220.696C259.508 221.099 254.851 219.597 251.173 216.43L243.329 209.676C240.063 206.863 239.635 201.876 242.376 198.548L256.847 180.978C259.598 177.637 264.503 177.217 267.783 180.041L276.499 187.546L301.284 157.453L292.538 149.922C292.537 149.922 292.536 149.921 292.536 149.921C290.942 148.56 289.979 146.644 289.8 144.555C289.62 142.461 290.258 140.41 291.582 138.803L306.051 121.234C306.052 121.234 306.052 121.234 306.052 121.233C308.793 117.892 313.71 117.473 316.989 120.296L324.833 127.05C329.09 130.716 331.41 136.052 331.214 141.704Z" fill="white" stroke="black" stroke-width="2"/>
<path fill-rule="evenodd" clip-rule="evenodd" d="M236 81C241.523 81 246 85.4772 246 91V148C246 153.523 241.523 158 236 158H230V176L207.263 158H126C120.477 158 116 153.523 116 148V91C116 85.4772 120.477 81 126 81H236Z" fill="black"/>
<path d="M144.187 117H142.098V103.153L137.909 104.691V102.805L143.861 100.57H144.187V117ZM151.229 108.802L152.06 100.648H160.438V102.569H153.823L153.329 107.027C154.13 106.556 155.039 106.32 156.058 106.32C157.548 106.32 158.73 106.814 159.606 107.802C160.482 108.783 160.92 110.112 160.92 111.789C160.92 113.474 160.464 114.803 159.55 115.776C158.644 116.742 157.375 117.225 155.743 117.225C154.298 117.225 153.119 116.824 152.206 116.023C151.292 115.222 150.772 114.114 150.645 112.699H152.61C152.737 113.635 153.07 114.342 153.609 114.821C154.148 115.293 154.86 115.529 155.743 115.529C156.709 115.529 157.465 115.199 158.012 114.541C158.566 113.882 158.843 112.972 158.843 111.812C158.843 110.718 158.543 109.842 157.944 109.184C157.353 108.517 156.563 108.184 155.575 108.184C154.669 108.184 153.958 108.382 153.441 108.779L152.891 109.229L151.229 108.802ZM163.335 115.911C163.335 115.551 163.44 115.252 163.649 115.012C163.867 114.773 164.188 114.653 164.615 114.653C165.042 114.653 165.364 114.773 165.581 115.012C165.806 115.252 165.918 115.551 165.918 115.911C165.918 116.255 165.806 116.543 165.581 116.775C165.364 117.007 165.042 117.124 164.615 117.124C164.188 117.124 163.867 117.007 163.649 116.775C163.44 116.543 163.335 116.255 163.335 115.911ZM163.346 105.994C163.346 105.635 163.451 105.335 163.661 105.096C163.878 104.856 164.2 104.736 164.626 104.736C165.053 104.736 165.375 104.856 165.592 105.096C165.817 105.335 165.929 105.635 165.929 105.994C165.929 106.339 165.817 106.627 165.592 106.859C165.375 107.091 165.053 107.207 164.626 107.207C164.2 107.207 163.878 107.091 163.661 106.859C163.451 106.627 163.346 106.339 163.346 105.994ZM179.013 110.026C179.013 112.459 178.597 114.267 177.766 115.45C176.935 116.633 175.636 117.225 173.869 117.225C172.125 117.225 170.833 116.648 169.995 115.495C169.156 114.335 168.722 112.605 168.692 110.307V107.533C168.692 105.129 169.107 103.344 169.938 102.176C170.77 101.008 172.072 100.424 173.847 100.424C175.606 100.424 176.901 100.989 177.732 102.12C178.563 103.243 178.99 104.98 179.013 107.331V110.026ZM176.935 107.185C176.935 105.425 176.688 104.145 176.194 103.344C175.7 102.535 174.917 102.131 173.847 102.131C172.784 102.131 172.009 102.531 171.522 103.333C171.035 104.134 170.785 105.365 170.77 107.027V110.352C170.77 112.118 171.024 113.425 171.533 114.271C172.05 115.11 172.828 115.529 173.869 115.529C174.895 115.529 175.655 115.132 176.149 114.338C176.651 113.545 176.913 112.294 176.935 110.587V107.185ZM192.231 101.816L185.459 117H183.28L190.03 102.355H181.18V100.648H192.231V101.816ZM194.735 115.911C194.735 115.551 194.84 115.252 195.05 115.012C195.267 114.773 195.589 114.653 196.016 114.653C196.442 114.653 196.764 114.773 196.981 115.012C197.206 115.252 197.318 115.551 197.318 115.911C197.318 116.255 197.206 116.543 196.981 116.775C196.764 117.007 196.442 117.124 196.016 117.124C195.589 117.124 195.267 117.007 195.05 116.775C194.84 116.543 194.735 116.255 194.735 115.911ZM194.747 105.994C194.747 105.635 194.851 105.335 195.061 105.096C195.278 104.856 195.6 104.736 196.027 104.736C196.454 104.736 196.776 104.856 196.993 105.096C197.217 105.335 197.33 105.635 197.33 105.994C197.33 106.339 197.217 106.627 196.993 106.859C196.776 107.091 196.454 107.207 196.027 107.207C195.6 107.207 195.278 107.091 195.061 106.859C194.851 106.627 194.747 106.339 194.747 105.994ZM210.413 110.026C210.413 112.459 209.998 114.267 209.167 115.45C208.335 116.633 207.036 117.225 205.27 117.225C203.525 117.225 202.234 116.648 201.395 115.495C200.556 114.335 200.122 112.605 200.092 110.307V107.533C200.092 105.129 200.508 103.344 201.339 102.176C202.17 101.008 203.473 100.424 205.247 100.424C207.007 100.424 208.302 100.989 209.133 102.12C209.964 103.243 210.391 104.98 210.413 107.331V110.026ZM208.335 107.185C208.335 105.425 208.088 104.145 207.594 103.344C207.1 102.535 206.318 102.131 205.247 102.131C204.184 102.131 203.409 102.531 202.922 103.333C202.436 104.134 202.185 105.365 202.17 107.027V110.352C202.17 112.118 202.424 113.425 202.934 114.271C203.45 115.11 204.229 115.529 205.27 115.529C206.295 115.529 207.055 115.132 207.549 114.338C208.051 113.545 208.313 112.294 208.335 110.587V107.185ZM223.789 117H213.075V115.506L218.735 109.217C219.573 108.266 220.15 107.495 220.464 106.904C220.786 106.305 220.947 105.687 220.947 105.051C220.947 104.197 220.689 103.497 220.172 102.951C219.656 102.404 218.967 102.131 218.106 102.131C217.073 102.131 216.268 102.427 215.691 103.018C215.122 103.602 214.838 104.418 214.838 105.466H212.76C212.76 103.961 213.243 102.745 214.209 101.816C215.182 100.888 216.481 100.424 218.106 100.424C219.626 100.424 220.827 100.824 221.711 101.625C222.594 102.419 223.036 103.479 223.036 104.804C223.036 106.413 222.01 108.33 219.959 110.554L215.579 115.304H223.789V117Z" fill="white"/>
<path d="M248 214L237.403 226.77C231.575 233.795 223.968 239.126 215.377 242.209L171.189 258.064C158.912 262.47 146.481 251.9 148.857 239.074V239.074C151.149 226.698 164.85 220.161 175.911 226.166L249.656 266.199C266.106 275.129 285.938 275.212 302.462 266.419L313.222 260.694C324.567 254.657 337.221 251.5 350.072 251.5H470" stroke="black" stroke-width="2"/>
<path opacity="0.8" d="M167.31 137.245V140H165.698V132.18H168.749C169.336 132.18 169.852 132.287 170.296 132.502C170.743 132.717 171.087 133.023 171.327 133.42C171.567 133.814 171.687 134.264 171.687 134.769C171.687 135.535 171.424 136.14 170.897 136.584C170.375 137.024 169.65 137.245 168.722 137.245H167.31ZM167.31 135.939H168.749C169.175 135.939 169.499 135.839 169.721 135.639C169.947 135.438 170.06 135.152 170.06 134.779C170.06 134.396 169.947 134.086 169.721 133.85C169.496 133.614 169.184 133.492 168.787 133.485H167.31V135.939ZM172.38 137.041C172.38 136.464 172.491 135.95 172.713 135.499C172.935 135.048 173.254 134.699 173.669 134.452C174.088 134.205 174.573 134.081 175.125 134.081C175.909 134.081 176.548 134.321 177.042 134.801C177.54 135.281 177.817 135.932 177.875 136.756L177.885 137.153C177.885 138.045 177.636 138.761 177.139 139.302C176.641 139.839 175.973 140.107 175.135 140.107C174.297 140.107 173.628 139.839 173.126 139.302C172.629 138.765 172.38 138.034 172.38 137.11V137.041ZM173.932 137.153C173.932 137.705 174.036 138.127 174.244 138.421C174.451 138.711 174.749 138.856 175.135 138.856C175.511 138.856 175.805 138.713 176.016 138.426C176.227 138.136 176.333 137.674 176.333 137.041C176.333 136.5 176.227 136.081 176.016 135.784C175.805 135.486 175.508 135.338 175.125 135.338C174.745 135.338 174.451 135.486 174.244 135.784C174.036 136.077 173.932 136.534 173.932 137.153ZM181.989 138.394C181.989 138.204 181.894 138.056 181.704 137.948C181.518 137.837 181.217 137.739 180.802 137.653C179.42 137.363 178.729 136.776 178.729 135.891C178.729 135.375 178.942 134.946 179.368 134.602C179.797 134.255 180.358 134.081 181.049 134.081C181.786 134.081 182.375 134.255 182.816 134.602C183.26 134.949 183.482 135.401 183.482 135.956H181.93C181.93 135.734 181.858 135.551 181.715 135.408C181.572 135.261 181.348 135.188 181.043 135.188C180.782 135.188 180.58 135.247 180.437 135.365C180.293 135.483 180.222 135.633 180.222 135.816C180.222 135.988 180.302 136.127 180.463 136.235C180.628 136.339 180.904 136.43 181.291 136.509C181.677 136.584 182.003 136.67 182.268 136.767C183.088 137.067 183.498 137.588 183.498 138.33C183.498 138.86 183.271 139.289 182.816 139.619C182.361 139.944 181.774 140.107 181.054 140.107C180.567 140.107 180.134 140.021 179.754 139.85C179.378 139.674 179.083 139.436 178.868 139.135C178.653 138.831 178.546 138.503 178.546 138.152H180.018C180.032 138.428 180.134 138.639 180.324 138.786C180.514 138.933 180.768 139.006 181.086 139.006C181.384 139.006 181.607 138.951 181.758 138.84C181.912 138.725 181.989 138.577 181.989 138.394ZM186.141 140H184.583V134.188H186.141V140ZM184.492 132.685C184.492 132.452 184.569 132.26 184.723 132.11C184.88 131.959 185.093 131.884 185.362 131.884C185.627 131.884 185.838 131.959 185.996 132.11C186.153 132.26 186.232 132.452 186.232 132.685C186.232 132.921 186.151 133.114 185.99 133.265C185.833 133.415 185.623 133.49 185.362 133.49C185.1 133.49 184.889 133.415 184.728 133.265C184.57 133.114 184.492 132.921 184.492 132.685ZM189.283 132.76V134.188H190.276V135.327H189.283V138.228C189.283 138.442 189.324 138.596 189.406 138.689C189.489 138.783 189.646 138.829 189.879 138.829C190.051 138.829 190.203 138.817 190.335 138.792V139.968C190.031 140.061 189.718 140.107 189.396 140.107C188.307 140.107 187.752 139.558 187.73 138.458V135.327H186.882V134.188H187.73V132.76H189.283ZM192.779 140H191.222V134.188H192.779V140ZM191.13 132.685C191.13 132.452 191.207 132.26 191.361 132.11C191.519 131.959 191.732 131.884 192 131.884C192.265 131.884 192.477 131.959 192.634 132.11C192.792 132.26 192.871 132.452 192.871 132.685C192.871 132.921 192.79 133.114 192.629 133.265C192.471 133.415 192.262 133.49 192 133.49C191.739 133.49 191.528 133.415 191.367 133.265C191.209 133.114 191.13 132.921 191.13 132.685ZM193.821 137.041C193.821 136.464 193.932 135.95 194.154 135.499C194.376 135.048 194.695 134.699 195.11 134.452C195.529 134.205 196.014 134.081 196.566 134.081C197.35 134.081 197.989 134.321 198.483 134.801C198.981 135.281 199.259 135.932 199.316 136.756L199.327 137.153C199.327 138.045 199.078 138.761 198.58 139.302C198.082 139.839 197.415 140.107 196.577 140.107C195.739 140.107 195.069 139.839 194.568 139.302C194.07 138.765 193.821 138.034 193.821 137.11V137.041ZM195.374 137.153C195.374 137.705 195.477 138.127 195.685 138.421C195.893 138.711 196.19 138.856 196.577 138.856C196.953 138.856 197.246 138.713 197.458 138.426C197.669 138.136 197.774 137.674 197.774 137.041C197.774 136.5 197.669 136.081 197.458 135.784C197.246 135.486 196.949 135.338 196.566 135.338C196.186 135.338 195.893 135.486 195.685 135.784C195.477 136.077 195.374 136.534 195.374 137.153ZM201.711 134.188L201.76 134.86C202.175 134.341 202.732 134.081 203.43 134.081C204.046 134.081 204.504 134.262 204.805 134.624C205.106 134.985 205.26 135.526 205.267 136.246V140H203.715V136.283C203.715 135.954 203.643 135.716 203.5 135.569C203.357 135.418 203.119 135.343 202.786 135.343C202.349 135.343 202.021 135.529 201.803 135.902V140H200.25V134.188H201.711ZM206.524 139.237C206.524 138.99 206.606 138.79 206.771 138.636C206.939 138.482 207.149 138.405 207.399 138.405C207.654 138.405 207.863 138.482 208.028 138.636C208.196 138.79 208.28 138.99 208.28 139.237C208.28 139.481 208.198 139.68 208.033 139.833C207.868 139.984 207.657 140.059 207.399 140.059C207.145 140.059 206.936 139.984 206.771 139.833C206.606 139.68 206.524 139.481 206.524 139.237ZM206.524 134.838C206.524 134.591 206.606 134.391 206.771 134.237C206.939 134.083 207.149 134.006 207.399 134.006C207.654 134.006 207.863 134.083 208.028 134.237C208.196 134.391 208.28 134.591 208.28 134.838C208.28 135.082 208.198 135.281 208.033 135.435C207.868 135.585 207.657 135.66 207.399 135.66C207.145 135.66 206.936 135.585 206.771 135.435C206.606 135.281 206.524 135.082 206.524 134.838ZM216.53 137.374H217.615V138.185H216.53V140H215.531V138.185H211.97V137.599L215.472 132.18H216.53V137.374ZM213.098 137.374H215.531V133.539L215.413 133.753L213.098 137.374Z" fill="white"/>
<g opacity="0.8">
<path d="M148.867 137.667C150.929 137.667 152.6 135.995 152.6 133.934C152.6 131.872 150.929 130.2 148.867 130.2C146.805 130.2 145.134 131.872 145.134 133.934C145.134 135.995 146.805 137.667 148.867 137.667Z" fill="white"/>
<path d="M151 138.2H146.733C145.743 138.2 144.794 138.594 144.093 139.294C143.393 139.994 143 140.943 143 141.934C143 142.075 143.056 142.211 143.156 142.311C143.256 142.411 143.392 142.467 143.533 142.467C143.675 142.467 143.81 142.411 143.91 142.311C144.01 142.211 144.067 142.075 144.067 141.934C144.067 141.226 144.348 140.548 144.848 140.048C145.348 139.548 146.026 139.267 146.733 139.267H151C151.707 139.267 152.385 139.548 152.886 140.048C153.386 140.548 153.667 141.226 153.667 141.934C153.667 142.075 153.723 142.211 153.823 142.311C153.923 142.411 154.058 142.467 154.2 142.467C154.341 142.467 154.477 142.411 154.577 142.311C154.677 142.211 154.733 142.075 154.733 141.934C154.733 140.943 154.34 139.994 153.64 139.294C152.94 138.594 151.99 138.2 151 138.2Z" fill="white"/>
<path d="M153.666 135H153.549C153.463 135.369 153.334 135.727 153.165 136.067H153.666C154.232 136.067 154.775 136.291 155.175 136.691C155.575 137.092 155.8 137.634 155.8 138.2C155.8 138.341 155.856 138.477 155.956 138.577C156.056 138.677 156.192 138.733 156.333 138.733C156.474 138.733 156.61 138.677 156.71 138.577C156.81 138.477 156.866 138.341 156.866 138.2C156.866 137.351 156.529 136.537 155.929 135.937C155.329 135.337 154.515 135 153.666 135Z" fill="white"/>
<path d="M156.333 132.866H156.024V132.904C155.941 133.101 155.843 133.292 155.731 133.474L155.656 133.592C155.58 133.711 155.496 133.825 155.405 133.933H156.333C156.758 133.933 157.165 134.101 157.465 134.401C157.765 134.702 157.933 135.109 157.933 135.533C157.933 135.674 157.989 135.81 158.089 135.91C158.189 136.01 158.325 136.066 158.467 136.066C158.608 136.066 158.744 136.01 158.844 135.91C158.944 135.81 159 135.674 159 135.533C159 134.826 158.719 134.147 158.219 133.647C157.719 133.147 157.041 132.866 156.333 132.866Z" fill="white"/>
<path d="M153.666 133.934V134.04C153.758 133.987 153.847 133.928 153.933 133.864L153.986 133.827L154.029 133.79C154.154 133.692 154.271 133.585 154.381 133.47L154.456 133.39C154.561 133.271 154.657 133.144 154.744 133.011C154.763 132.984 154.781 132.955 154.797 132.926C154.883 132.786 154.958 132.64 155.021 132.488C155.021 132.488 155.021 132.44 155.048 132.419C155.11 132.26 155.16 132.096 155.197 131.928C155.244 131.711 155.267 131.489 155.266 131.267C155.265 131.108 155.252 130.95 155.229 130.792V130.718C155.203 130.561 155.165 130.405 155.117 130.254C155.011 129.941 154.857 129.648 154.658 129.384V129.352C154.562 129.224 154.457 129.103 154.344 128.99C154.241 128.889 154.13 128.796 154.013 128.712L153.949 128.664C153.83 128.582 153.705 128.509 153.576 128.446L153.485 128.398C153.345 128.332 153.201 128.276 153.053 128.232C152.931 128.195 152.806 128.167 152.68 128.147H152.562C152.253 128.094 151.938 128.094 151.629 128.147H151.549C151.395 128.175 151.243 128.216 151.096 128.27L150.984 128.307C150.849 128.362 150.717 128.424 150.589 128.494L150.466 128.568C150.36 128.638 150.258 128.707 150.157 128.787L149.933 128.888C149.851 128.958 149.775 129.032 149.704 129.112L149.629 129.192C150.756 129.374 151.781 129.951 152.521 130.819C153.261 131.688 153.667 132.792 153.666 133.934Z" fill="white"/>
<path d="M154.002 127.469C154.173 127.554 154.337 127.652 154.493 127.763L154.573 127.821C154.731 127.935 154.88 128.06 155.021 128.195C155.185 128.36 155.334 128.538 155.469 128.728L155.506 128.776C155.758 129.117 155.956 129.495 156.093 129.896V129.939C156.161 130.14 156.213 130.347 156.248 130.557V130.643C156.292 130.848 156.32 131.057 156.333 131.267C156.334 131.454 156.322 131.641 156.296 131.827C156.752 131.496 157.092 131.03 157.267 130.494C157.442 129.959 157.442 129.381 157.269 128.845C157.095 128.309 156.756 127.842 156.301 127.51C155.845 127.179 155.296 127 154.733 127C154.57 127.003 154.408 127.019 154.248 127.048H154.141C153.993 127.079 153.849 127.123 153.709 127.181C153.664 127.198 153.621 127.22 153.581 127.245C153.684 127.281 153.785 127.324 153.885 127.373L154.002 127.469Z" fill="white"/>
</g>
</svg>
