<?xml version="1.0" encoding="utf-8"?>
<!-- Generator: Adobe Illustrator 23.0.2, SVG Export Plug-In . SVG Version: 6.00 Build 0)  -->
<svg version="1.1" xmlns="http://www.w3.org/2000/svg" xmlns:xlink="http://www.w3.org/1999/xlink" x="0px" y="0px"
	 viewBox="0 0 594 537" style="enable-background:new 0 0 594 537;" xml:space="preserve">
<style type="text/css">
	.st0{fill:none;}
	.st1{fill:none;stroke:#1D1D1B;stroke-width:0.3;}
	.st2{display:none;}
	.st3{display:inline;}
	.st4{display:inline;fill:#FFFFFF;}
	.st5{display:inline;fill:none;stroke:#000000;stroke-width:3;stroke-miterlimit:10;}
	.st6{display:inline;fill:none;stroke:#202020;stroke-width:3;stroke-miterlimit:10;}
	.st7{display:inline;fill:#FFFFFF;stroke:#000000;stroke-width:3;stroke-miterlimit:10;}
	.st8{fill:none;stroke:#000000;stroke-width:3;stroke-miterlimit:10;}
	.st9{display:inline;fill:#202020;}
	.st10{fill:url(#Schraffur_doppelt);}
	.st11{fill:#FFFFFF;stroke:#000000;stroke-width:3;stroke-miterlimit:10;}
	.st12{fill:none;stroke:#000000;stroke-width:3;stroke-linecap:round;stroke-miterlimit:10;}
	.st13{fill:none;stroke:#86ED18;stroke-width:3;stroke-linecap:round;stroke-miterlimit:10;}
	.st14{fill:#FFFFFF;stroke:#000000;stroke-width:3;stroke-linecap:round;stroke-miterlimit:10;}
	.st15{fill:none;stroke:#86ED18;stroke-miterlimit:10;}
	.st16{clip-path:url(#SVGID_2_);}
	.st17{fill:none;stroke:#000000;stroke-width:45.34;stroke-linecap:round;stroke-miterlimit:10;}
	.st18{fill:#FFFFFF;}
</style>
<pattern  x="-333" y="-225" width="72" height="72" patternUnits="userSpaceOnUse" id="Schraffur_doppelt" viewBox="4.1 -78.2 72 72" style="overflow:visible;">
	<g>
		<rect x="4.1" y="-78.2" class="st0" width="72" height="72"/>
		<g>
			<line class="st1" x1="67.8" y1="-1.5" x2="71.3" y2="-7.6"/>
			<line class="st1" x1="69.6" y1="-8.6" x2="66.1" y2="-2.5"/>
			<line class="st1" x1="53.1" y1="-0.7" x2="50.8" y2="-7.3"/>
			<line class="st1" x1="48.9" y1="-6.6" x2="51.3" y2="-0.1"/>
			<line class="st1" x1="40.6" y1="-2.4" x2="42.3" y2="-9.2"/>
			<line class="st1" x1="40.4" y1="-9.7" x2="38.6" y2="-2.9"/>
			<line class="st1" x1="19" y1="-2.9" x2="20.9" y2="-9.7"/>
			<line class="st1" x1="19" y1="-10.2" x2="17.1" y2="-3.5"/>
			<line class="st1" x1="12.9" y1="-3.3" x2="10.9" y2="-10"/>
			<line class="st1" x1="9" y1="-9.4" x2="11" y2="-2.7"/>
			<line class="st1" x1="55.2" y1="-8.9" x2="59.6" y2="-3.5"/>
			<line class="st1" x1="61.1" y1="-4.8" x2="56.7" y2="-10.2"/>
		</g>
		<g>
			<line class="st1" x1="75.9" y1="-51.9" x2="82.4" y2="-54.5"/>
		</g>
		<g>
			<line class="st1" x1="3.9" y1="-51.9" x2="10.4" y2="-54.5"/>
			<line class="st1" x1="8.3" y1="-38.1" x2="5.8" y2="-31.6"/>
			<line class="st1" x1="7.6" y1="-30.8" x2="10.2" y2="-37.4"/>
			<line class="st1" x1="73.4" y1="-72.6" x2="79.5" y2="-69.3"/>
			<line class="st1" x1="80.5" y1="-71" x2="74.3" y2="-74.3"/>
			<line class="st1" x1="73.4" y1="-58.1" x2="78.7" y2="-62.7"/>
			<line class="st1" x1="77.4" y1="-64.2" x2="72.1" y2="-59.7"/>
			<line class="st1" x1="75.9" y1="-51.9" x2="82.4" y2="-54.5"/>
			<line class="st1" x1="81.7" y1="-56.3" x2="75.1" y2="-53.8"/>
			<line class="st1" x1="73.1" y1="-43.3" x2="79.9" y2="-41.8"/>
			<line class="st1" x1="80.3" y1="-43.7" x2="73.5" y2="-45.3"/>
			<line class="st1" x1="73.1" y1="-22" x2="79.9" y2="-20.2"/>
			<line class="st1" x1="80.4" y1="-22.2" x2="73.6" y2="-23.9"/>
			<line class="st1" x1="74.1" y1="-12" x2="80.8" y2="-14.2"/>
			<line class="st1" x1="80.2" y1="-16.1" x2="73.5" y2="-13.9"/>
			<line class="st1" x1="67.8" y1="-73.5" x2="71.3" y2="-79.6"/>
			<line class="st1" x1="69.6" y1="-80.6" x2="66.1" y2="-74.5"/>
			<line class="st1" x1="53.1" y1="-72.7" x2="50.8" y2="-79.3"/>
			<line class="st1" x1="48.9" y1="-78.6" x2="51.3" y2="-72.1"/>
			<line class="st1" x1="40.6" y1="-74.4" x2="42.3" y2="-81.2"/>
			<line class="st1" x1="40.4" y1="-81.7" x2="38.6" y2="-74.9"/>
			<line class="st1" x1="34.9" y1="-74.5" x2="28.5" y2="-77.3"/>
			<line class="st1" x1="27.7" y1="-75.4" x2="34.1" y2="-72.7"/>
			<line class="st1" x1="19" y1="-74.9" x2="20.9" y2="-81.7"/>
			<line class="st1" x1="19" y1="-82.2" x2="17.1" y2="-75.5"/>
			<line class="st1" x1="12.9" y1="-75.3" x2="10.9" y2="-82"/>
			<line class="st1" x1="9" y1="-81.4" x2="11" y2="-74.7"/>
			<line class="st1" x1="69.6" y1="-8.6" x2="66.1" y2="-2.5"/>
			<line class="st1" x1="67.8" y1="-1.5" x2="71.3" y2="-7.6"/>
			<line class="st1" x1="55.2" y1="-8.9" x2="59.6" y2="-3.5"/>
			<line class="st1" x1="61.1" y1="-4.8" x2="56.7" y2="-10.2"/>
			<line class="st1" x1="48.9" y1="-6.6" x2="51.3" y2="-0.1"/>
			<line class="st1" x1="53.1" y1="-0.7" x2="50.8" y2="-7.3"/>
			<line class="st1" x1="40.4" y1="-9.7" x2="38.6" y2="-2.9"/>
			<line class="st1" x1="40.6" y1="-2.4" x2="42.3" y2="-9.2"/>
			<line class="st1" x1="19" y1="-10.2" x2="17.1" y2="-3.5"/>
			<line class="st1" x1="19" y1="-2.9" x2="20.9" y2="-9.7"/>
			<line class="st1" x1="9" y1="-9.4" x2="11" y2="-2.7"/>
			<line class="st1" x1="12.9" y1="-3.3" x2="10.9" y2="-10"/>
			<line class="st1" x1="22.6" y1="-31.1" x2="19.1" y2="-25"/>
			<line class="st1" x1="20.8" y1="-24" x2="24.3" y2="-30.1"/>
			<line class="st1" x1="52.6" y1="-63.3" x2="48.2" y2="-68.7"/>
			<line class="st1" x1="46.7" y1="-67.4" x2="51.1" y2="-62"/>
			<line class="st1" x1="40.4" y1="-65.1" x2="42.8" y2="-58.6"/>
			<line class="st1" x1="44.6" y1="-59.2" x2="42.3" y2="-65.8"/>
			<line class="st1" x1="66.9" y1="-17" x2="60.5" y2="-19.8"/>
			<line class="st1" x1="59.7" y1="-17.9" x2="66.1" y2="-15.2"/>
			<line class="st1" x1="67.1" y1="-35" x2="65.2" y2="-28.3"/>
			<line class="st1" x1="67.1" y1="-27.7" x2="69" y2="-34.5"/>
			<line class="st1" x1="56.7" y1="-40.4" x2="58.7" y2="-33.7"/>
			<line class="st1" x1="60.6" y1="-34.2" x2="58.6" y2="-40.9"/>
			<line class="st1" x1="37.2" y1="-45.7" x2="40.6" y2="-51.7"/>
			<line class="st1" x1="38.9" y1="-52.7" x2="35.4" y2="-46.7"/>
			<line class="st1" x1="22.7" y1="-52.4" x2="27.1" y2="-47"/>
			<line class="st1" x1="28.6" y1="-48.3" x2="24.2" y2="-53.7"/>
			<line class="st1" x1="14.9" y1="-50.6" x2="17.3" y2="-44.1"/>
			<line class="st1" x1="19.1" y1="-44.7" x2="16.8" y2="-51.3"/>
			<line class="st1" x1="66.9" y1="-52.7" x2="65.1" y2="-45.9"/>
			<line class="st1" x1="67.1" y1="-45.4" x2="68.8" y2="-52.2"/>
			<line class="st1" x1="51" y1="-49" x2="57.5" y2="-46.3"/>
			<line class="st1" x1="58.3" y1="-48.1" x2="51.8" y2="-50.9"/>
			<line class="st1" x1="34.2" y1="-18.9" x2="36.2" y2="-12.2"/>
			<line class="st1" x1="38.1" y1="-12.7" x2="36.1" y2="-19.4"/>
			<line class="st1" x1="53.1" y1="-17.8" x2="46.2" y2="-16.8"/>
			<line class="st1" x1="46.5" y1="-14.8" x2="53.4" y2="-15.8"/>
			<line class="st1" x1="53.3" y1="-30" x2="51.7" y2="-23.2"/>
			<line class="st1" x1="53.6" y1="-22.7" x2="55.2" y2="-29.6"/>
			<line class="st1" x1="34.4" y1="-32.9" x2="30.6" y2="-27"/>
			<line class="st1" x1="32.3" y1="-25.9" x2="36.1" y2="-31.9"/>
			<line class="st1" x1="36" y1="-41.5" x2="29.6" y2="-38.7"/>
			<line class="st1" x1="30.4" y1="-36.9" x2="36.8" y2="-39.7"/>
			<line class="st1" x1="22.5" y1="-35.9" x2="24.4" y2="-42.7"/>
			<line class="st1" x1="22.5" y1="-43.2" x2="20.6" y2="-36.5"/>
			<line class="st1" x1="48.1" y1="-39.3" x2="46" y2="-46"/>
			<line class="st1" x1="44.1" y1="-45.4" x2="46.1" y2="-38.7"/>
			<line class="st1" x1="34.3" y1="-62.5" x2="28.8" y2="-58.3"/>
			<line class="st1" x1="30" y1="-56.7" x2="35.6" y2="-60.9"/>
			<line class="st1" x1="25.1" y1="-62.3" x2="23.1" y2="-69"/>
			<line class="st1" x1="21.2" y1="-68.5" x2="23.2" y2="-61.7"/>
			<line class="st1" x1="14.5" y1="-68.8" x2="14.1" y2="-61.8"/>
			<line class="st1" x1="16.1" y1="-61.7" x2="16.5" y2="-68.7"/>
			<line class="st1" x1="27.4" y1="-21" x2="23.1" y2="-15.4"/>
			<line class="st1" x1="24.7" y1="-14.2" x2="29" y2="-19.7"/>
			<line class="st1" x1="19.6" y1="-16.5" x2="14.8" y2="-21.6"/>
			<line class="st1" x1="13.3" y1="-20.2" x2="18.2" y2="-15.2"/>
			<line class="st1" x1="59.6" y1="-53.7" x2="64" y2="-59.2"/>
			<line class="st1" x1="62.5" y1="-60.4" x2="58.1" y2="-55"/>
			<line class="st1" x1="62.7" y1="-63.9" x2="63.5" y2="-70.9"/>
			<line class="st1" x1="61.5" y1="-71.1" x2="60.7" y2="-64.1"/>
			<line class="st1" x1="39.7" y1="-28.9" x2="46.1" y2="-26.2"/>
			<line class="st1" x1="46.9" y1="-28" x2="40.5" y2="-30.8"/>
			<line class="st1" x1="55.2" y1="-80.9" x2="59.6" y2="-75.5"/>
			<line class="st1" x1="61.1" y1="-76.8" x2="56.7" y2="-82.2"/>
		</g>
		<g>
			<line class="st1" x1="1.4" y1="-72.6" x2="7.5" y2="-69.3"/>
			<line class="st1" x1="8.5" y1="-71" x2="2.3" y2="-74.3"/>
			<line class="st1" x1="1.4" y1="-58.1" x2="6.7" y2="-62.7"/>
			<line class="st1" x1="5.4" y1="-64.2" x2="0.1" y2="-59.7"/>
			<line class="st1" x1="3.9" y1="-51.9" x2="10.4" y2="-54.5"/>
			<line class="st1" x1="9.7" y1="-56.3" x2="3.1" y2="-53.8"/>
			<line class="st1" x1="1.1" y1="-43.3" x2="7.9" y2="-41.8"/>
			<line class="st1" x1="8.3" y1="-43.7" x2="1.5" y2="-45.3"/>
			<line class="st1" x1="1.1" y1="-22" x2="7.9" y2="-20.2"/>
			<line class="st1" x1="8.4" y1="-22.2" x2="1.6" y2="-23.9"/>
			<line class="st1" x1="2.1" y1="-12" x2="8.8" y2="-14.2"/>
			<line class="st1" x1="8.2" y1="-16.1" x2="1.5" y2="-13.9"/>
		</g>
		<g>
			<line class="st1" x1="69.6" y1="-80.6" x2="66.1" y2="-74.5"/>
			<line class="st1" x1="67.8" y1="-73.5" x2="71.3" y2="-79.6"/>
			<line class="st1" x1="55.2" y1="-80.9" x2="59.6" y2="-75.5"/>
			<line class="st1" x1="61.1" y1="-76.8" x2="56.7" y2="-82.2"/>
			<line class="st1" x1="48.9" y1="-78.6" x2="51.3" y2="-72.1"/>
			<line class="st1" x1="53.1" y1="-72.7" x2="50.8" y2="-79.3"/>
			<line class="st1" x1="40.4" y1="-81.7" x2="38.6" y2="-74.9"/>
			<line class="st1" x1="40.6" y1="-74.4" x2="42.3" y2="-81.2"/>
			<line class="st1" x1="19" y1="-82.2" x2="17.1" y2="-75.5"/>
			<line class="st1" x1="19" y1="-74.9" x2="20.9" y2="-81.7"/>
			<line class="st1" x1="9" y1="-81.4" x2="11" y2="-74.7"/>
			<line class="st1" x1="12.9" y1="-75.3" x2="10.9" y2="-82"/>
		</g>
	</g>
</pattern>
<g id="Ebene_1" class="st2">
	<path class="st3" d="M304.5,438.2c8.9-22.6-2.3-48.1-24.8-57c-28.5-11.2-61.3-33.4-65-43.9c-14.5-41.6,28.8-84,29.2-84.4l-0.2,0.2
		l0,0c17.2-16.7,18-44.2,1.5-61.7c-16.4-17.5-43.8-18.5-61.5-2.4l0,0c-0.1,0.1-0.3,0.3-0.4,0.4c0,0-0.1,0-0.1,0.1
		c0,0-0.1,0.1-0.1,0.1c-22.8,21.7-52.9,64.1-58.3,114.4c-2.1,19.8-0.4,40.9,7.1,62.4c9.3,26.7,32.6,51.3,69.3,73.4
		c23.3,14,44.2,22.4,46.5,23.3C270.1,472,295.6,460.9,304.5,438.2z"/>
	<path class="st4" d="M305.7,417.3l48.6,20.2c5.2,2.2,11.1-0.3,13.3-5.5c2.2-5.2-0.3-11.2-5.5-13.3L305.2,395l8.7-20.7
		c2.2-5.2-0.3-11.2-5.5-13.3c-5.2-2.2-11.1,0.3-13.3,5.5l-8.7,20.8l-16.4-6.7l-31.6,75.2l66.5,27.5"/>
	<path class="st5" d="M305.7,417.3l48.6,20.2c5.2,2.2,11.1-0.3,13.3-5.5c2.2-5.2-0.3-11.2-5.5-13.3L305.2,395l8.7-20.7
		c2.2-5.2-0.3-11.2-5.5-13.3c-5.2-2.2-11.1,0.3-13.3,5.5l-8.7,20.8l-16.4-6.7l-31.6,75.2l66.5,27.5"/>
	<path class="st4" d="M320.4,445.6l-22.9-9.6c-5.2-2.2-11.1,0.3-13.3,5.5c-2.2,5.2,0.3,11.2,5.5,13.3l23,9.6l-22.9-9.6
		c-5.2-2.2-11.1,0.3-13.3,5.5c-2.2,5.2,0.3,11.2,5.5,13.3l23,9.6l23.5-56.4l-23-9.5c-5.2-2.2-11.1,0.3-13.3,5.5s0.3,11.2,5.5,13.3"
		/>
	<path class="st5" d="M320.4,445.6l-22.9-9.6c-5.2-2.2-11.1,0.3-13.3,5.5c-2.2,5.2,0.3,11.2,5.5,13.3l23,9.6l-22.9-9.6
		c-5.2-2.2-11.1,0.3-13.3,5.5c-2.2,5.2,0.3,11.2,5.5,13.3l23,9.6l23.5-56.4l-23-9.5c-5.2-2.2-11.1,0.3-13.3,5.5s0.3,11.2,5.5,13.3"
		/>
	<path class="st6" d="M243.8,102.8c0,0,171.2-20.8,208.4,166"/>
	<path class="st4" d="M210.5,373c12.5-27,51.9-107.8,51.5-124.9c-0.9-34-27.5-61.6-61.4-61.6c-33.9,0-46.5,15.3-61.4,61.6
		l-16.9,64.2"/>
	<path class="st5" d="M210.5,373c12.5-27,51.9-107.8,51.5-124.9c-0.9-34-27.5-61.6-61.4-61.6c-33.9,0-46.5,15.3-61.4,61.6
		l-16.9,64.2"/>
	<path class="st7" d="M163.9,157.7c8.7,0,15.7-7,15.7-15.7c0-8.7-7-15.7-15.7-15.7c-8.7,0-15.7,7-15.7,15.7
		C148.2,150.7,155.2,157.7,163.9,157.7z"/>
	<path class="st7" d="M218.6,200c30.4,0,55.1-24.7,55.1-55.1S249,89.8,218.6,89.8c-30.4,0-55.1,24.7-55.1,55.1S188.1,200,218.6,200z
		"/>
	<path class="st3" d="M215.7,138.5c2.2,0,4-1.9,4-4.1c0-2.2-1.9-4-4.1-4c-2.2,0-4,1.9-4,4.1C211.6,136.8,213.5,138.5,215.7,138.5z"
		/>
	<path class="st3" d="M239.6,138.5c2.2,0,4-1.9,4-4.1c0-2.2-1.9-4-4.1-4c-2.2,0-4,1.9-4,4.1C235.5,136.8,237.4,138.5,239.6,138.5z"
		/>
	<path class="st5" d="M128.7,393.2L81.5,393c-52.5-0.3-94.7-43-94.5-95.5c0.3-52.4,42.9-94.6,95.2-94.4c0.2,0,0.4,0,0.5,0l2.6-0.3
		c13.1-2,24.2-11.4,25.5-32.7c4.2-70.8,73.9-88.4,88.7-88.3l24.3,0.1l-0.3,8.3c0,0-2.2,46.6-59.2,36.3"/>
	<path class="st4" d="M282,288.2c-6.2,1.9-12,4.6-17,8.4c-18.2,13.9-18.7,31.7-16.5,45c2.2,13.4,11.1,32.1,35.4,46.2
		c3.1-0.5,18.3-3,18.3-3l-1.7-10.1c0,0,18.7-1.7,22.6-2.4c2.6,3.7,7.5,7.9,7.5,7.9l17-2.8l-2.5-15.2c0,0,10-10,13.1-15.1
		c7.4-0.5,14.1-7.5,14.1-24.9c-0.4-2.5-1.7-3.1-3.1-2.8c-1.4,0.2-6.8-0.3-8-1.3c-1.2-1-5.9-11.3-12.8-18.7c1.7-9,8.3-15,8.3-15
		c-7.7-2.5-15.3-3.8-29.4,0.2c-3.9-0.2-10.5-0.7-16.7-0.5"/>
	<path class="st3" d="M223.3,448.2l-1.8-0.1c-40.2-3.2-73.2-22.3-92.9-53.7c-20.5-32.8-23.4-74.6-7.9-114.6l26-67.1
		c8.8-22.6,34.2-33.9,56.8-25.1c22.6,8.8,33.8,34.3,25,56.9l-26,67.1c-5.3,13.7-5.1,27.1,0.4,36c4.5,7.2,12.6,11.4,24,12.6l58,0h0
		c24.2,0,43.9,19.7,43.9,43.9c0,24.3-19.6,44-43.9,44L223.3,448.2z"/>
	<path class="st4" d="M336,363.1c0-5.6-4.6-10.2-10.2-10.1l-18.8,0.1c-5.7,0-10.3,4.6-10.3,10.3l-11.1,0.1l0.1,81.6l72.2-0.6
		c5.6,0,10.1-4.6,10.1-10.2c0-5.6-4.6-10.2-10.2-10.1"/>
	<path class="st5" d="M336,363.1c0-5.6-4.6-10.2-10.2-10.1l-18.8,0.1c-5.7,0-10.3,4.6-10.3,10.3l-11.1,0.1l0.1,81.6l72.2-0.6
		c5.6,0,10.1-4.6,10.1-10.2c0-5.6-4.6-10.2-10.2-10.1"/>
	<path class="st4" d="M339.6,424.2l18.1-0.1c5.6,0,10.1-4.6,10.1-10.2c0-5.6-4.6-10.2-10.2-10.1l-18.2,0.1l18.1-0.1
		c5.6,0,10.1-4.6,10.1-10.2c0-5.6-4.6-10.2-10.2-10.1l-18.2,0.1l18.1-0.1c5.6,0,10.1-4.6,10.1-10.2c0-5.6-4.6-10.2-10.2-10.1
		l-33.7,0.1"/>
	<path class="st5" d="M339.6,424.2l18.1-0.1c5.6,0,10.1-4.6,10.1-10.2c0-5.6-4.6-10.2-10.2-10.1l-18.2,0.1l18.1-0.1
		c5.6,0,10.1-4.6,10.1-10.2c0-5.6-4.6-10.2-10.2-10.1l-18.2,0.1l18.1-0.1c5.6,0,10.1-4.6,10.1-10.2c0-5.6-4.6-10.2-10.2-10.1
		l-33.7,0.1"/>
	<path class="st8" d="M218.8,150.2H235"/>
	<path class="st7" d="M219.6,150c0,0,0,6,6.9,6c6.9,0,7.5-6,7.5-6"/>
</g>
<g id="Ebene_6" class="st2">
	<path class="st6" d="M663,42.3H424v-220.5"/>
	<path class="st9" d="M653.9,29.9l-2,2.2l10.8,10l-10.8,10l2,2.2L667,42.1L653.9,29.9z"/>
	<path class="st9" d="M437-166.1l-2.3,2.3l-10.7-12l-10.7,12l-2.3-2.3l13.1-14.6L437-166.1z"/>
</g>
<g id="Ebene_5">
	<path class="st10" d="M456.1,395.6c-11.2,187.7-327.4,156.7-410.8,74.7c-62.7-61.6-47.1-156.8-7.7-208.5
		c39.3-39.2,62.4-66.9,153-80.5C297.7,165.3,469.3,248.7,456.1,395.6z"/>
</g>
<g id="Ebene_4">
	<path class="st11" d="M285.1,232.7c-4.7,0.7-9.7,2-12.6,2.7c-11.2-1.1-16.8,0.9-22.3,3.9c0,0,5.8,3.6,8.4,10.2
		c-4.2,6.6-6.3,15-7.1,15.9c-0.8,1-4.8,2.1-5.9,2.1c-1.1,0-2,0.6-1.9,2.6c2.4,13.2,8.5,17.6,14.1,17c3,3.5,12,9.6,12,9.6l0.2,11.9
		l13.3-0.2c0,0,3.2-3.8,4.6-7c3-0.1,17.4-1.3,17.4-1.3l0.2,7.9c0,0,11.9-0.2,14.3-0.3c16.5-14,20.6-29.5,20.4-39.9
		c-0.2-10.4-3-23.8-18.7-31.8c-4.3-2.2-9.1-3.4-14.1-4"/>
	<path class="st8" d="M353.9,258.7c-11.2,4.5-7.7,11.1-5.1,12.1c2.7,1,5.3-0.1,5.2-3.7c-0.1-4.8-9.9-3-13.9-2.5"/>
	<path class="st8" d="M283.8,243.1c3.8-1.3,7.9-2.1,12.2-2.2c4.5-0.1,8.8,0.6,12.8,1.9"/>
	<path d="M278.3,263.8c-0.3-1.5-1.7-2.4-3.1-2.2c-1.5,0.3-2.4,1.7-2.2,3.1c0.3,1.5,1.7,2.4,3.1,2.2
		C277.6,266.7,278.5,265.3,278.3,263.8z"/>
	<path d="M266,260.6c-0.3-1.5-1.7-2.4-3.1-2.2c-1.5,0.3-2.4,1.7-2.2,3.1s1.7,2.4,3.1,2.2C265.3,263.5,266.3,262.1,266,260.6z"/>
</g>
<g id="Ebene_3">
	<g id="Ebene_2">
		<path class="st12" d="M226.1,78c0-33.2-28-60.1-62.5-60.1c-34.5,0-62.5,26.9-62.5,60.1c0,33.2,28,60.1,62.5,60.1
			C198.1,138.1,226.1,111.2,226.1,78z"/>
		<path class="st12" d="M236.1,78c0-38.5-32.5-69.7-72.5-69.7c-40,0-72.5,31.2-72.5,69.7c0,38.5,32.5,69.7,72.5,69.7
			C203.7,147.7,236.1,116.5,236.1,78z"/>
		<path class="st13" d="M162.5,86c3.5,0,6.2-2.7,6.2-6c0-3.3-2.8-6-6.2-6c-3.5,0-6.2,2.7-6.2,6C156.3,83.3,159.1,86,162.5,86z
			 M168.8,84.5l25.1,15.5 M162.6,35.9l0,38"/>
		<ellipse class="st14" cx="296.1" cy="224.5" rx="13.5" ry="13"/>
	</g>
	<g id="Ebene_7">
		<path class="st15" d="M291.1,223.7h7.2 M291.2,225.8h5 M299.1,218.6h-0.8c-3.2,0-5.8,2.6-5.8,5.8c0,3.2,2.6,5.8,5.8,5.8h0.8"/>
	</g>
	<g>
		<defs>
			<polyline id="SVGID_1_" points="588.1,-101 588.1,492 -47.9,492 -47.9,-101 			"/>
		</defs>
		<clipPath id="SVGID_2_">
			<use xlink:href="#SVGID_1_"  style="overflow:visible;"/>
		</clipPath>
		<g class="st16">
			<path class="st17" d="M386.6,219.7c-56.8,12.7-106.1-62.8-106.1-62.8"/>
			<path class="st18" d="M253.5,140.6c-1.8-2.4-5.2-2.8-7.6-0.9c-2.4,1.8-2.8,5.2-0.9,7.6l23.6,30.3l34.1-26.8l-5.8-7.4l9.4-7.4
				c2.4-1.8,2.8-5.2,0.9-7.6c-1.8-2.4-5.2-2.8-7.6-0.9l-9.4,7.4L272,111.6c-1.8-2.4-5.2-2.8-7.6-0.9s-2.8,5.2-0.9,7.6l13,16.6
				l-13-16.6c-1.8-2.4-5.2-2.8-7.6-0.9c-2.4,1.8-2.8,5.2-0.9,7.6l13,16.6l-13-16.6c-1.8-2.4-5.2-2.8-7.6-0.9s-2.8,5.2-0.9,7.6
				l13,16.6"/>
			<path class="st8" d="M253.5,140.6c-1.8-2.4-5.2-2.8-7.6-0.9c-2.4,1.8-2.8,5.2-0.9,7.6l23.6,30.3l34.1-26.8l-5.8-7.4l9.4-7.4
				c2.4-1.8,2.8-5.2,0.9-7.6c-1.8-2.4-5.2-2.8-7.6-0.9l-9.4,7.4L272,111.6c-1.8-2.4-5.2-2.8-7.6-0.9s-2.8,5.2-0.9,7.6l13,16.6
				l-13-16.6c-1.8-2.4-5.2-2.8-7.6-0.9c-2.4,1.8-2.8,5.2-0.9,7.6l13,16.6l-13-16.6c-1.8-2.4-5.2-2.8-7.6-0.9s-2.8,5.2-0.9,7.6
				l13,16.6"/>
			<path class="st18" d="M338,420.3v70l-145.2-0.1c0,0,4.3-19.3,13.8-27.1c5.3-4.4,16-8.9,26.1-14.9c11.5-6.8,20-17.6,23.9-30.3
				c9.4-30.2,23.5-109.2,79.9-109.8"/>
			<path class="st8" d="M338,420.3v70l-145.2-0.1c0,0,4.3-19.3,13.8-27.1c5.3-4.4,16-8.9,26.1-14.9c11.5-6.8,20-17.6,23.9-30.3
				c9.4-30.2,23.5-109.2,79.9-109.8"/>
			<path class="st11" d="M392.2,296.4c-7.8-16.7-21.6-47.7-22.8-70.7c-1.1-21.1,13.2-33.7,34.4-33.7s29,9.5,38.3,38.2l26.6,85.9
				c5.2,21.4-11,42.1-33.1,42.1h-54.2l51.3,132.2l-147.3-0.1c0,0-0.3-15,10.4-25.9c4.8-4.9,15.9-11.2,26-17.2
				c11.5-6.8,7.2-21.2,3.7-34c-8.8-32.1-16.3-117.2,47.4-117.2L392.2,296.4z"/>
			<path class="st17" d="M303.7,305.1l24.4-3c85.5-11.9,80.1-86.9,80.1-86.9"/>
			<path class="st11" d="M437.6,163.2c0-5-4.1-9.1-9.1-9.1c-5,0-9.1,4.1-9.1,9.1c0,5,4.1,9.1,9.1,9.1
				C433.5,172.3,437.6,168.3,437.6,163.2z"/>
			<path class="st11" d="M428.7,164.9c0-17.6-14.3-31.9-32-31.9s-32,14.3-32,31.9c0,17.6,14.3,31.9,32,31.9S428.7,182.5,428.7,164.9
				z"/>
			<path d="M392.2,153.3c0-1-0.8-1.9-1.9-1.9c-1,0-1.9,0.8-1.9,1.9c0,1,0.8,1.9,1.9,1.9C391.3,155.2,392.2,154.4,392.2,153.3z"/>
			<path d="M378.7,153.6c0-1-0.8-1.9-1.9-1.9c-1,0-1.9,0.8-1.9,1.9c0,1,0.8,1.9,1.9,1.9C377.9,155.4,378.7,154.6,378.7,153.6z"/>
			<path class="st8" d="M450.9,415.8l27.7-0.2c60.1-0.3,108.5-49.2,108.1-109.1c-0.3-59.9-49.3-108.2-109.3-107.8l-1.3,0
				c-8.5-0.4-16.1-5.7-16.9-19.2c-2.4-41-42.9-51.2-51.5-51.1l-14.1,0l0.2,4.8c0,0,1.3,27,34.4,21"/>
			<path d="M377,164.7l14.2-0.6l0.1,3.3c0.2,3.9-3.1,9.4-7,9.6c-3.9,0.2-7-5-7.2-9L377,164.7z"/>
			<path class="st18" d="M393.9,165.7c0-2.7-2.2-4.9-4.9-4.9c-2.7,0-4.9,2.2-4.9,4.9s2.2,4.9,4.9,4.9
				C391.7,170.5,393.9,168.4,393.9,165.7z"/>
			<path class="st8" d="M377,164.7l14.2-0.6l-0.1,5.4c0.2,3.9-2.9,7.2-6.8,7.4c-3.9,0.2-7.3-2.9-7.4-6.8L377,164.7z"/>
			<path class="st18" d="M277.9,318.9c-3,0.4-5.1,3.1-4.7,6c0.4,3,3.1,5,6.1,4.7l38.2-4.8l-5.7-42.9l-9.4,1.2l-1.5-11.9
				c-0.4-3-3.1-5.1-6.1-4.7c-3,0.4-5.1,3.1-4.7,6l1.6,11.8l-29.3,3.8c-3,0.4-5.1,3.1-4.7,6c0.4,3,3.1,5.1,6.1,4.7l20.9-2.7l-21,2.7
				c-3,0.4-5.1,3.1-4.7,6c0.4,3,3.1,5,6.1,4.7L286,307l-21,2.7c-3,0.4-5.1,3.1-4.7,6c0.4,3,3.1,5,6.1,4.7l20.9-2.7"/>
			<path class="st8" d="M277.9,318.9c-3,0.4-5.1,3.1-4.7,6c0.4,3,3.1,5,6.1,4.7l38.2-4.8l-5.7-42.9l-9.4,1.2l-1.5-11.9
				c-0.4-3-3.1-5.1-6.1-4.7c-3,0.4-5.1,3.1-4.7,6l1.6,11.8l-29.3,3.8c-3,0.4-5.1,3.1-4.7,6c0.4,3,3.1,5.1,6.1,4.7l20.9-2.7l-21,2.7
				c-3,0.4-5.1,3.1-4.7,6c0.4,3,3.1,5,6.1,4.7L286,307l-21,2.7c-3,0.4-5.1,3.1-4.7,6c0.4,3,3.1,5,6.1,4.7l20.9-2.7"/>
			<path class="st11" d="M432.5,490.4l-51.3-132.2h96.2l51.3,132.2H432.5z"/>
		</g>
	</g>
</g>
</svg>
