<svg xmlns="http://www.w3.org/2000/svg" width="200" height="40" fill="none" viewBox="0 0 200 40">
    <path fill="#000" d="M0 0h200v40H0z"/>
    <path fill="#86ED18" d="M33.394 24v-9.523h1.819V24h-1.819zm1.846-5.08l3.431-4.443h2.14l-3.568 4.444L41.009 24h-2.098l-3.671-5.08zm6.76.322c0-1.631.367-2.866 1.101-3.705.739-.843 1.784-1.264 3.138-1.264 1.353 0 2.4.421 3.138 1.264.738.839 1.107 2.074 1.107 3.705 0 1.632-.37 2.869-1.107 3.712-.739.839-1.785 1.258-3.138 1.258-1.354 0-2.4-.42-3.138-1.258-.733-.843-1.1-2.08-1.1-3.712zm1.956 1.47c0 .319.061.6.184.84.123.242.287.447.492.616.206.169.445.294.718.376.274.082.57.123.889.123.319 0 .615-.041.889-.123.278-.082.52-.207.724-.376a1.832 1.832 0 0 0 .67-1.456v-2.94a1.828 1.828 0 0 0-.67-1.456 2.033 2.033 0 0 0-.724-.376 2.928 2.928 0 0 0-.89-.13c-.318 0-.614.044-.888.13a2.04 2.04 0 0 0-.718.376 1.91 1.91 0 0 0-.492.616 1.83 1.83 0 0 0-.184.84v2.94zm7.895.444h1.819c.072.56.287.962.642 1.203.356.237.814.356 1.374.356.533 0 .982-.11 1.347-.328.364-.224.547-.545.547-.964 0-.337-.105-.606-.315-.807-.21-.2-.53-.355-.964-.465l-1.859-.492c-.784-.205-1.365-.54-1.743-1.005-.378-.47-.567-1.052-.567-1.75 0-.383.082-.736.245-1.06.165-.323.395-.6.691-.833.3-.233.665-.413 1.094-.54.428-.133.909-.198 1.442-.198.483 0 .932.056 1.347.17.42.11.781.28 1.087.513.31.232.563.531.759.896.196.364.316.793.362 1.285H57.34a1.548 1.548 0 0 0-.205-.657 1.269 1.269 0 0 0-.396-.423c-.16-.11-.34-.185-.54-.226a3.09 3.09 0 0 0-.622-.061c-.506 0-.905.1-1.197.3a.949.949 0 0 0-.43.82c0 .365.111.643.335.835.228.186.57.341 1.025.464l1.62.424c.812.215 1.424.538 1.84.971.418.433.628 1.041.628 1.825 0 .438-.089.83-.267 1.176-.177.346-.43.64-.758.882a3.521 3.521 0 0 1-1.17.553 5.464 5.464 0 0 1-1.49.192 6.025 6.025 0 0 1-1.476-.171 3.444 3.444 0 0 1-1.19-.526 2.785 2.785 0 0 1-.827-.95c-.21-.388-.332-.857-.369-1.409zm8.456-5.133v-1.546h7.362v1.546h-2.768V24h-1.825v-7.977h-2.769zM69.12 24v-9.523h6.549v1.546h-4.73v2.337h4.087v1.538h-4.088v2.564h4.73V24H69.12zm8.517 0v-9.523h2.728l2.844 7.253h.054v-7.253h1.812V24H82.34l-2.844-7.267h-.055V24h-1.805zm9.79 0v-9.523h1.818v7.985h4.033V24h-5.852zm6.856-4.758c0-1.631.367-2.866 1.1-3.705.739-.843 1.785-1.264 3.138-1.264 1.354 0 2.4.421 3.138 1.264.738.839 1.107 2.074 1.107 3.705 0 1.632-.369 2.869-1.107 3.712-.738.839-1.784 1.258-3.138 1.258-1.353 0-2.4-.42-3.138-1.258-.733-.843-1.1-2.08-1.1-3.712zm1.955 1.47c0 .319.061.6.184.84.123.242.288.447.493.616.205.169.444.294.718.376.273.082.57.123.888.123.32 0 .615-.041.889-.123.278-.082.52-.207.724-.376a1.84 1.84 0 0 0 .486-.615c.123-.246.184-.527.184-.841v-2.94a1.83 1.83 0 0 0-.67-1.456 2.027 2.027 0 0 0-.724-.376 2.929 2.929 0 0 0-.889-.13c-.319 0-.615.044-.888.13a2.04 2.04 0 0 0-.718.376c-.205.169-.37.374-.493.616a1.828 1.828 0 0 0-.184.84v2.94zm7.895.444h1.819c.073.56.287.962.642 1.203.356.237.814.356 1.374.356.534 0 .982-.11 1.347-.328.365-.224.547-.545.547-.964 0-.337-.105-.606-.315-.807-.209-.2-.53-.355-.963-.465l-1.86-.492c-.784-.205-1.365-.54-1.743-1.005-.378-.47-.567-1.052-.567-1.75 0-.383.082-.736.246-1.06.164-.323.394-.6.69-.833a3.326 3.326 0 0 1 1.094-.54 4.88 4.88 0 0 1 1.442-.198c.483 0 .932.056 1.347.17.419.11.782.28 1.087.513.31.232.563.531.759.896.196.364.316.793.362 1.285h-1.818a1.562 1.562 0 0 0-.205-.657 1.266 1.266 0 0 0-.397-.423 1.456 1.456 0 0 0-.54-.226 3.088 3.088 0 0 0-.622-.061c-.506 0-.905.1-1.196.3a.95.95 0 0 0-.431.82c0 .365.112.643.335.835.228.186.57.341 1.025.464l1.621.424c.811.215 1.424.538 1.838.971.42.433.629 1.041.629 1.825 0 .438-.089.83-.266 1.176-.178.346-.431.64-.759.882a3.522 3.522 0 0 1-1.169.553 5.464 5.464 0 0 1-1.49.192 6.028 6.028 0 0 1-1.477-.171 3.444 3.444 0 0 1-1.189-.526 2.775 2.775 0 0 1-.827-.95c-.21-.388-.333-.857-.37-1.409zm11.902-5.133v-1.546h7.362v1.546h-2.768V24h-1.826v-7.977h-2.768zM124.845 24v-9.523h6.549v1.546h-4.73v2.337h4.088v1.538h-4.088v2.564h4.73V24h-6.549zm7.944-2.844h1.818c.073.56.287.962.643 1.203.355.237.813.356 1.374.356.533 0 .982-.11 1.346-.328.365-.224.547-.545.547-.964 0-.337-.105-.606-.314-.807-.21-.2-.531-.355-.964-.465l-1.859-.492c-.784-.205-1.365-.54-1.744-1.005-.378-.47-.567-1.052-.567-1.75 0-.383.082-.736.246-1.06.164-.323.394-.6.69-.833a3.326 3.326 0 0 1 1.094-.54 4.886 4.886 0 0 1 1.443-.198c.483 0 .932.056 1.346.17.42.11.782.28 1.087.513.31.232.563.531.759.896.196.364.317.793.362 1.285h-1.818a1.548 1.548 0 0 0-.205-.657 1.266 1.266 0 0 0-.397-.423 1.456 1.456 0 0 0-.54-.226 3.088 3.088 0 0 0-.622-.061c-.506 0-.904.1-1.196.3a.95.95 0 0 0-.431.82c0 .365.112.643.335.835.228.186.57.341 1.026.464l1.62.424c.811.215 1.424.538 1.839.971.419.433.629 1.041.629 1.825 0 .438-.089.83-.267 1.176-.178.346-.431.64-.759.882a3.513 3.513 0 0 1-1.169.553 5.464 5.464 0 0 1-1.49.192 6.034 6.034 0 0 1-1.477-.171 3.444 3.444 0 0 1-1.189-.526 2.775 2.775 0 0 1-.827-.95c-.21-.388-.333-.857-.369-1.409zm8.456-5.133v-1.546h7.362v1.546h-2.769V24h-1.825v-7.977h-2.768zM150.056 24v-9.523h6.549v1.546h-4.73v2.337h4.088v1.538h-4.088v2.564h4.73V24h-6.549zm8.518 0v-9.523h2.727l2.844 7.253h.055v-7.253h1.811V24h-2.734l-2.844-7.267h-.054V24h-1.805z"/>
</svg>
