<svg xmlns="http://www.w3.org/2000/svg" width="194" height="40" fill="none" viewBox="0 0 194 40">
    <path fill="#fff" stroke="#000" stroke-width="2" d="M1 1h192v38H1z"/>
    <path fill="#000" d="M14.176 25v-9.523h6.549v1.546h-4.73v2.337h4.087v1.538h-4.088v2.564h4.73V25h-6.548zm7.635 0l2.954-4.86-2.817-4.663h2.147l1.777 3.138 1.777-3.137h2.099l-2.782 4.662L29.892 25h-2.12l-1.914-3.315L23.951 25h-2.14zm9.55 0v-9.523h3.876c1.017 0 1.768.247 2.256.739.488.487.732 1.26.732 2.317 0 1.007-.272 1.768-.814 2.283-.542.51-1.262.766-2.16.766H33.18V25H31.36zm1.819-4.956h2.255c.32 0 .547-.08.684-.24.141-.159.212-.396.212-.71v-1.176c0-.319-.066-.547-.198-.684-.128-.14-.36-.212-.698-.212H33.18v3.022zM39.92 25v-9.523h6.549v1.546h-4.73v2.337h4.087v1.538h-4.088v2.564h4.73V25H39.92zm8.517 0v-9.523h3.877c1.016 0 1.768.242 2.255.725.488.479.732 1.217.732 2.215 0 .756-.18 1.365-.54 1.825-.36.456-.862.773-1.504.95L55.437 25h-2.016l-2.003-3.657h-1.162V25h-1.819zm1.819-5.154h2.297c.57 0 .854-.317.854-.95v-.978c0-.319-.064-.547-.191-.684-.123-.14-.344-.212-.663-.212h-2.297v2.824zm6.145-2.823v-1.546h7.363v1.546h-2.769V25H59.17v-7.977H56.4zM65.213 25v-9.523h6.549v1.546h-4.73v2.337h4.087v1.538h-4.088v2.564h4.73V25h-6.548zm8.518 0v-9.523h2.727l2.844 7.253h.054v-7.253h1.812V25h-2.734l-2.844-7.267h-.055V25h-1.804zm9.788 0v-9.523h2.967l1.853 7.48h.055l1.818-7.48h2.98V25h-1.75v-7.547h-.054L89.439 25h-2.166l-1.949-7.547h-.055V25h-1.75zm11.628-4.758c0-1.631.367-2.866 1.101-3.705.738-.843 1.784-1.264 3.138-1.264 1.353 0 2.399.421 3.137 1.264.739.839 1.108 2.074 1.108 3.705 0 1.632-.369 2.869-1.108 3.712-.738.839-1.784 1.258-3.137 1.258-1.354 0-2.4-.42-3.138-1.258-.734-.843-1.1-2.08-1.1-3.712zm1.956 1.47c0 .319.061.6.184.84.123.242.287.447.492.616.205.169.445.294.718.376.273.082.57.123.889.123.319 0 .615-.041.888-.123.278-.082.52-.207.725-.376.205-.169.367-.374.485-.615.123-.246.185-.527.185-.841v-2.94a1.83 1.83 0 0 0-.67-1.456 2.034 2.034 0 0 0-.725-.376 2.924 2.924 0 0 0-.888-.13c-.32 0-.615.044-.889.13a2.04 2.04 0 0 0-.718.376c-.205.169-.369.374-.492.616a1.83 1.83 0 0 0-.184.84v2.94zM105.572 25v-9.523h3.22c1.504 0 2.584.395 3.24 1.183.661.789.991 1.983.991 3.582 0 1.595-.33 2.787-.991 3.575-.656.789-1.736 1.183-3.24 1.183h-3.22zm1.819-1.538h1.401c.757 0 1.335-.148 1.736-.444.401-.301.602-.77.602-1.409v-2.74c0-.634-.201-1.1-.602-1.395-.401-.301-.979-.451-1.736-.451h-1.401v6.439zm7.505-1.853v-6.132h1.819v6.208c0 .615.157 1.1.472 1.456.319.35.795.526 1.428.526.643 0 1.124-.173 1.443-.52.319-.35.478-.838.478-1.462v-6.207h1.805v6.131c0 .552-.087 1.05-.26 1.497-.173.442-.421.82-.745 1.135-.319.31-.709.55-1.169.718a4.453 4.453 0 0 1-1.552.253 4.453 4.453 0 0 1-1.552-.253 3.393 3.393 0 0 1-1.168-.711 3.114 3.114 0 0 1-.746-1.128 4.266 4.266 0 0 1-.253-1.51zm9.12.547h1.818c.073.56.287.962.643 1.203.355.237.813.356 1.374.356.533 0 .982-.11 1.346-.328.365-.224.547-.545.547-.964 0-.337-.105-.606-.314-.807-.21-.2-.531-.355-.964-.465l-1.86-.492c-.783-.205-1.364-.54-1.743-1.005-.378-.47-.567-1.052-.567-1.75 0-.383.082-.736.246-1.06.164-.323.394-.6.69-.833a3.326 3.326 0 0 1 1.094-.54 4.886 4.886 0 0 1 1.443-.198c.483 0 .932.056 1.346.17.42.11.782.28 1.087.513.31.233.563.531.759.896.196.364.317.793.362 1.285h-1.818a1.548 1.548 0 0 0-.205-.657 1.266 1.266 0 0 0-.397-.423 1.456 1.456 0 0 0-.54-.226 3.088 3.088 0 0 0-.622-.061c-.506 0-.904.1-1.196.3a.95.95 0 0 0-.431.82c0 .365.112.643.335.835.228.186.57.341 1.026.464l1.62.424c.811.215 1.424.538 1.839.971.419.433.628 1.041.628 1.825 0 .438-.088.83-.266 1.176-.178.346-.431.64-.759.882a3.513 3.513 0 0 1-1.169.553 5.464 5.464 0 0 1-1.49.192 6.034 6.034 0 0 1-1.477-.171 3.444 3.444 0 0 1-1.189-.526 2.775 2.775 0 0 1-.827-.95c-.21-.388-.333-.857-.369-1.409z"/>
    <path fill="#fff" stroke="#000" stroke-width="2" d="M144 9h39v22h-39z"/>
    <path fill="#000" d="M148 13h14v14h-14z"/>
</svg>
