<svg xmlns="http://www.w3.org/2000/svg" xmlns:xlink="http://www.w3.org/1999/xlink" width="70" height="60"><defs><path id="a" d="M0 49h56V0H0z"/></defs><g fill="none" fill-rule="evenodd" transform="translate(7 6)"><path fill="#E3F1D3" d="M40.51 17.457c0 6.982-5.6 12.641-12.51 12.641s-12.51-5.66-12.51-12.641c0-6.982 5.6-12.641 12.51-12.641s12.51 5.66 12.51 12.641"/><path stroke="#777" stroke-linecap="round" stroke-linejoin="round" stroke-width="2.16" d="M40.51 17.457c0 6.982-5.6 12.641-12.51 12.641s-12.51-5.66-12.51-12.641c0-6.982 5.6-12.641 12.51-12.641s12.51 5.66 12.51 12.641z"/><mask id="b" fill="#fff"><use xlink:href="#a"/></mask><path fill="#F2F2F2" mask="url(#b)" d="M1.072 39.971h53.856v-6.622H1.072z"/><path stroke="#777" stroke-linecap="round" stroke-linejoin="round" stroke-width="2.16" d="M18.945 47.916h18.11m16.443-8.066H2.502c-.786 0-1.43-.65-1.43-1.445V2.528c0-.794.644-1.444 1.43-1.444h50.996c.786 0 1.43.65 1.43 1.444v35.877c0 .795-.644 1.445-1.43 1.445zM1.19 33.47h53.737m-30.383 6.982l-1.311 6.862m8.34-6.862l1.311 6.862" mask="url(#b)"/><path fill="#777" d="M29.793 19.46h-3.428c.038 1.128.319 1.972.842 2.53.523.557 1.273.836 2.25.836.705 0 1.363-.107 1.974-.32l.27 1.984c-.771.189-1.568.283-2.39.283-1.643 0-2.937-.467-3.88-1.402-.945-.934-1.442-2.238-1.494-3.912h-1.656v-1.372h1.656v-1.246h-1.656V15.47h1.666c.083-1.654.607-2.94 1.57-3.858.963-.918 2.257-1.378 3.881-1.378.68 0 1.448.101 2.302.302l-.27 1.995a6.097 6.097 0 0 0-1.955-.33c-.97 0-1.714.278-2.234.836-.52.558-.81 1.37-.867 2.433h3.42v1.372h-3.43v1.246h3.43v1.372z" mask="url(#b)"/></g></svg>