<svg width="140" height="35" viewBox="0 0 140 35" fill="none" xmlns="http://www.w3.org/2000/svg">
<mask id="mask0" mask-type="alpha" maskUnits="userSpaceOnUse" x="0" y="0" width="22" height="23">
<path d="M0.0839844 0.667847H21.2604V22.9698H0.0839844V0.667847Z" fill="white"/>
</mask>
<g mask="url(#mask0)">
<path fill-rule="evenodd" clip-rule="evenodd" d="M8.6702 22.9698H8.6618C6.363 22.9698 3.9872 22.9138 2.4206 22.246C1.6114 21.903 1.0486 21.441 0.6496 20.7928C0.2128 20.0802 0 19.1604 0 17.9802C0 17.08 0.1274 16.0244 0.3808 14.8358C0.4382 14.5656 1.7962 8.22925 1.8872 7.89325C2.2456 6.57305 2.6978 5.48665 3.2718 4.57525C4.263 3.00445 5.5818 1.99085 7.4214 1.38885C8.9544 0.890447 10.906 0.667847 13.7466 0.667847H13.7704C15.2628 0.667847 16.4892 0.772847 17.5196 0.989847C18.7348 1.24465 19.663 1.66185 20.279 2.22885C20.7382 2.65305 21.035 3.17105 21.1638 3.76885C21.2282 4.06985 21.2604 4.40585 21.2604 4.77125C21.2604 5.61405 21.0882 6.49325 20.9496 7.20165C20.93 7.30385 20.9104 7.40465 20.8922 7.50125L20.8866 7.53065H15.393L15.3958 7.49145C15.3958 7.49145 15.4126 7.32485 15.4196 7.25205C15.4196 7.24785 15.4448 7.02525 15.4448 6.70605C15.4448 6.22865 15.2222 5.85485 14.7616 5.56085C14.399 5.35505 13.9356 5.28365 13.4918 5.22905C13.0172 5.17305 12.4866 5.16465 11.984 5.16465C11.06 5.16465 10.3614 5.23885 9.7888 5.39565C9.331 5.51885 8.9502 5.69945 8.6282 5.94585C8.1718 6.29165 7.8176 6.78865 7.5446 7.46345C7.2898 8.09345 7.1064 8.84105 6.9076 9.77065L6.1544 13.3126C5.9136 14.4536 5.7428 15.3188 5.7414 16.0636C5.7414 16.4934 5.8002 16.8322 5.9248 17.1332C6.1208 17.612 6.5366 17.9858 7.098 18.1846C7.6398 18.382 8.3244 18.4702 9.3184 18.4716C9.9834 18.4716 10.528 18.459 11.0236 18.3988C11.8832 18.2952 12.4978 18.0376 12.9598 17.5882C13.461 17.0996 13.7998 16.38 14.0252 15.3202L14.1022 14.959H19.5356L19.5342 14.9968C19.5314 15.0388 19.2276 16.4654 19.068 17.0366C18.9028 17.6316 18.7222 18.1398 18.5164 18.5878C17.9886 19.74 17.2536 20.6262 16.2008 21.3766C15.183 22.0878 14.0994 22.5274 12.789 22.757C11.662 22.9544 10.5112 22.9684 9.2302 22.9684H9.2148C9.1882 22.9684 8.736 22.9684 8.6702 22.9698Z" fill="black"/>
</g>
<path fill-rule="evenodd" clip-rule="evenodd" d="M69.5408 22.9698H69.5338C67.2336 22.9698 64.8578 22.9138 63.2926 22.246C62.482 21.903 61.9192 21.441 61.5216 20.7928C61.0834 20.0802 60.872 19.1604 60.8706 17.9802C60.8706 17.08 60.9994 16.0244 61.2528 14.8358C61.3088 14.5656 62.6668 8.22925 62.7578 7.89325C63.1162 6.57305 63.5684 5.48665 64.1424 4.57525C65.1336 3.00445 66.4524 1.99085 68.292 1.38885C69.8264 0.890447 71.7766 0.667847 74.6158 0.667847H74.6424C76.1334 0.667847 77.3598 0.772847 78.3916 0.989847C79.6068 1.24465 80.535 1.66185 81.1496 2.22885C81.6102 2.65305 81.9056 3.17105 82.033 3.76885C82.0974 4.06845 82.131 4.40585 82.131 4.77125C82.131 5.61405 81.9602 6.49465 81.8216 7.20165C81.8006 7.30525 81.7824 7.40465 81.7628 7.50125L81.7572 7.53065H76.2636L76.2678 7.49145C76.2678 7.49145 76.2846 7.32485 76.2916 7.25205C76.2916 7.24785 76.3154 7.02525 76.3154 6.70605C76.3154 6.22865 76.0914 5.85485 75.6336 5.56085C75.2696 5.35505 74.8062 5.28365 74.3624 5.22905C73.8892 5.17305 73.3572 5.16465 72.8546 5.16465C71.9306 5.16465 71.232 5.23885 70.6594 5.39565C70.2016 5.51885 69.8222 5.69945 69.4988 5.94585C69.0424 6.29165 68.6896 6.78865 68.4166 7.46345C68.1604 8.09345 67.977 8.84105 67.7796 9.77065L67.0264 13.3126C66.7842 14.4536 66.6134 15.3188 66.612 16.0636C66.612 16.4934 66.6708 16.8322 66.7954 17.1332C66.9914 17.612 67.4072 17.9858 67.9686 18.1846C68.5104 18.382 69.195 18.4702 70.189 18.4716C70.8554 18.4716 71.3986 18.459 71.8942 18.3988C72.7524 18.2952 73.3698 18.0376 73.8318 17.5882C74.3316 17.0996 74.6704 16.38 74.8972 15.3202L74.9728 14.959H80.4062L80.4048 14.9968C80.402 15.0388 80.0968 16.4654 79.9386 17.0366C79.7734 17.6316 79.5928 18.1398 79.3884 18.5878C78.8606 19.74 78.1242 20.6262 77.0714 21.3766C76.055 22.0878 74.97 22.5274 73.661 22.757C72.5326 22.9544 71.3818 22.9684 70.1022 22.9684H70.0854C70.0588 22.9684 69.6066 22.9684 69.5408 22.9698Z" fill="black"/>
<path fill-rule="evenodd" clip-rule="evenodd" d="M57.7513 22.7879H41.9453L41.9551 22.7445L46.3749 1.94611C46.4533 1.56391 46.5961 1.30071 46.8271 1.12151C47.0623 0.938111 47.3871 0.848511 47.8183 0.848511H61.1547C61.4837 0.849911 61.7217 0.924111 61.8645 1.06971C61.9723 1.18031 62.0297 1.34271 62.0311 1.54011V1.55691C62.0297 1.63671 62.0199 1.71931 62.0003 1.80191L61.3101 5.04851H50.9851L50.0905 9.34931H59.7799L58.8979 13.4051H49.2085L48.1053 18.5963H58.6417L57.7513 22.7879Z" fill="black"/>
<path fill-rule="evenodd" clip-rule="evenodd" d="M86.0958 22.7879H80.8262L80.8346 22.7445L85.2404 2.01751C85.3454 1.56811 85.5162 1.25731 85.7598 1.06971C85.9544 0.921311 86.2036 0.849911 86.5242 0.848511H89.6434C89.9794 0.849911 90.23 0.928311 90.3882 1.08091C90.5128 1.20131 90.5786 1.37491 90.58 1.58211C90.58 1.64511 90.5744 1.71091 90.5618 1.77811L86.0958 22.7879Z" fill="black"/>
<path fill-rule="evenodd" clip-rule="evenodd" d="M100.603 22.7865H93.9625L93.9527 22.7669L89.0359 11.3877L89.0527 11.3709L97.5577 2.13511C98.0813 1.56111 98.3935 1.26991 98.6679 1.10051C98.9661 0.917111 99.2223 0.851311 99.6507 0.848511H103.937C104.138 0.849911 104.264 0.915711 104.334 0.971711C104.377 1.00811 104.405 1.04171 104.423 1.07811C104.437 1.10191 104.446 1.13411 104.45 1.16631H104.46L104.451 1.23491C104.443 1.32451 104.397 1.47151 104.22 1.66891L95.0405 11.5389L100.603 22.7865Z" fill="black"/>
<path fill-rule="evenodd" clip-rule="evenodd" d="M33.9695 22.7879H33.9261L33.9359 22.7445L35.8133 13.8853H27.1249L25.2321 22.7879H19.9639L19.9737 22.7445C20.1515 21.9045 24.3389 2.14491 24.3641 2.03571C24.5195 1.38471 24.7771 1.16071 24.9843 1.03891C25.2083 0.908711 25.5219 0.848511 25.9685 0.848511H28.8175C28.9659 0.849911 29.2067 0.912911 29.3901 1.04451C29.4881 1.11311 29.5651 1.19571 29.6183 1.28811C29.6785 1.39311 29.7079 1.51211 29.7079 1.65071C29.7079 1.71091 29.7009 1.77531 29.6911 1.84251C29.6687 1.96851 28.2225 8.72071 28.0783 9.38851H36.7667C37.4737 6.05371 38.3151 2.08331 38.3263 2.03571C38.4817 1.38471 38.7393 1.16071 38.9465 1.03891C39.1705 0.908711 39.4841 0.848511 39.9307 0.848511H42.7797C42.9267 0.849911 43.1689 0.912911 43.3523 1.04451C43.4503 1.11311 43.5273 1.19571 43.5791 1.28811C43.6393 1.39311 43.6687 1.51211 43.6687 1.65071C43.6687 1.71091 43.6631 1.77531 43.6519 1.84251C43.6295 1.97271 39.3805 21.9101 39.2013 22.7599L39.1957 22.7879H33.9695Z" fill="black"/>
<mask id="mask1" mask-type="alpha" maskUnits="userSpaceOnUse" x="101" y="0" width="39" height="35">
<path d="M101.898 0.697266H139.999V34.9161H101.898V0.697266Z" fill="white"/>
</mask>
<g mask="url(#mask1)">
<path fill-rule="evenodd" clip-rule="evenodd" d="M116.143 5.13809C116.547 5.24169 116.871 5.44469 117.044 5.78209C117.159 6.00469 117.207 6.26929 117.207 6.57869C117.207 6.89789 117.156 7.26889 117.064 7.71129C116.941 8.28529 116.82 8.75709 116.638 9.16449C116.456 9.57049 116.207 9.91209 115.847 10.1935C115.123 10.7605 113.998 11.1077 112.004 11.5543C109.367 12.1409 107.545 12.6295 106.263 13.2665C104.982 13.9063 104.233 14.6721 103.671 15.8775C103.299 16.6839 103.015 17.6877 102.743 18.9659L102 22.7529H119.091L119.888 18.9155H107.996C107.996 18.9155 108.181 17.9929 108.331 17.6541C108.527 17.2173 108.78 16.8897 109.112 16.6461C109.442 16.4011 109.843 16.2429 110.33 16.1057C111.306 15.8355 112.654 15.6521 114.638 15.1453C117.083 14.5125 118.734 13.8223 119.897 12.6995C121.061 11.5795 121.772 10.0045 122.297 7.53629C122.492 6.62209 122.599 5.72469 122.599 5.04429C122.599 4.06569 122.412 3.31809 122.074 2.74269C121.738 2.16589 121.25 1.75289 120.614 1.44769C119.346 0.837286 117.484 0.695886 115.273 0.697276C112.462 0.695886 110.249 0.988486 108.604 1.99789C106.96 3.00589 105.813 4.84269 105.178 7.82889L104.997 8.67309H110.194L110.391 7.74069C110.596 6.84609 110.783 6.23709 111.122 5.80449C111.46 5.36769 111.947 5.16049 112.613 5.07649C113.06 5.01769 113.6 5.00509 114.274 5.00509C114.38 5.00369 114.482 5.00229 114.58 5.00229C115.221 5.00369 115.734 5.03169 116.143 5.13809Z" fill="black"/>
<path fill-rule="evenodd" clip-rule="evenodd" d="M130.479 3.02545C129.874 3.65265 124.802 8.96005 122.725 11.1357C122.311 11.5809 121.867 12.0737 121.67 12.4783C121.512 12.7737 121.303 13.5969 121.197 14.1849C120.975 15.4085 120.81 16.5271 120.708 16.9863C120.681 17.1053 120.67 17.2131 120.67 17.3139C120.672 17.6905 120.828 17.9425 121.038 18.1217C121.25 18.2995 121.53 18.3821 121.813 18.3821C122.066 18.3821 131.88 18.3821 131.88 18.3821L130.953 22.7599L136.254 22.2601L137.077 18.3821H138.968L139.793 14.5083H137.899C137.899 14.5083 139.791 5.66165 139.85 5.33405C140.501 1.75425 139.014 0.707053 135.668 0.707053C134.813 0.707053 132.88 0.530653 130.479 3.02545ZM132.703 14.5083H125.097L134.145 5.13105H134.695L132.703 14.5083Z" fill="black"/>
<path fill-rule="evenodd" clip-rule="evenodd" d="M118.615 35C115.195 34.9986 111.909 34.0872 109.115 32.3596C106.371 30.6642 104.769 28.665 104.012 27.5352L103.012 30.1112C102.921 30.3464 102.67 30.4948 102.407 30.4514C102.144 30.4052 101.954 30.1826 101.952 29.9194L101.898 24.8738V24.8696C101.899 24.7282 101.956 24.5938 102.057 24.4944C102.162 24.3908 102.299 24.3348 102.445 24.3348L107.58 24.332H107.586C107.839 24.3404 108.059 24.5266 108.108 24.773C108.114 24.8066 108.118 24.8416 108.118 24.8766C108.118 25.0992 107.978 25.3022 107.768 25.3834L105.26 26.355C107.458 28.3122 111.986 31.4622 118.343 31.4636C118.887 31.4636 119.438 31.4398 119.984 31.3936C122.665 31.1654 125.37 30.506 127.81 29.4896C129.944 28.5964 131.83 27.4568 133.269 26.1898L130.683 25.4268C130.452 25.361 130.288 25.1468 130.288 24.9046C130.288 24.8878 130.29 24.871 130.291 24.8514C130.318 24.5924 130.525 24.3866 130.787 24.3628L135.803 23.905C135.827 23.9022 135.846 23.9022 135.862 23.9022C135.988 23.9022 136.112 23.9484 136.21 24.0282C136.324 24.1248 136.394 24.2564 136.405 24.402C136.822 29.3314 136.822 29.3328 136.822 29.351C136.822 29.5974 136.657 29.8116 136.417 29.876C136.373 29.8886 136.326 29.8956 136.277 29.8956C136.066 29.8956 135.873 29.7766 135.782 29.5932L134.572 27.2706C133.598 28.5838 131.905 30.4402 129.256 32.0516C126.57 33.6854 123.565 34.6528 120.334 34.9258L120.009 34.9538V34.951C119.542 34.9832 119.073 35 118.615 35Z" fill="black"/>
</g>
</svg>
