<svg width="191" height="50" viewBox="0 0 191 50" fill="none" xmlns="http://www.w3.org/2000/svg">
<g clip-path="url(#clip0)">
<path d="M72.5939 35.135C71.6218 35.5976 69.4633 36.3149 66.7145 36.3149C60.5414 36.3149 56.5239 32.1397 56.5239 25.9003C56.5239 19.617 60.838 15.0231 67.5192 15.0231C69.7188 15.0231 71.6629 15.5707 72.6791 16.1182L71.8333 18.9436C70.9464 18.481 69.5514 17.9745 67.5192 17.9745C62.8262 17.9745 60.2889 21.4733 60.2889 25.6895C60.2889 30.4123 63.3343 33.3197 67.3929 33.3197C69.5074 33.3197 70.9023 32.8131 71.9596 32.3505L72.5939 35.135Z" fill="#77787A"/>
<path d="M76.9492 5.9173H80.6701V18.6918H80.7553C81.3485 17.6377 82.2765 16.6686 83.4189 16.0362C84.5173 15.4037 85.83 15.0231 87.225 15.0231C89.9738 15.0231 94.373 16.7096 94.373 23.7073V35.8494H90.6522V24.1319C90.6522 20.8438 89.4246 18.1033 85.9152 18.1033C83.5041 18.1033 81.6451 19.7898 80.9256 21.772C80.7142 22.3195 80.673 22.867 80.673 23.5433V35.8552H76.9522L76.9492 5.9173Z" fill="#77787A"/>
<path d="M100.42 21.813C100.42 19.4092 100.379 17.345 100.25 15.4477H103.506L103.677 19.4941H103.803C104.734 16.7535 107.016 15.0261 109.512 15.0261C109.894 15.0261 110.188 15.07 110.525 15.111V18.6098C110.143 18.5249 109.765 18.5249 109.257 18.5249C106.634 18.5249 104.772 20.4632 104.267 23.2476C104.182 23.7542 104.141 24.3866 104.141 24.9751V35.8523H100.42V21.813Z" fill="#77787A"/>
<path d="M132.348 25.4787C132.348 33.0269 127.062 36.3149 122.158 36.3149C116.66 36.3149 112.346 32.2686 112.346 25.8184C112.346 19.0315 116.872 15.0261 122.496 15.0261C128.372 15.0231 132.348 19.2833 132.348 25.4787ZM116.152 25.6895C116.152 30.1575 118.69 33.5305 122.325 33.5305C125.879 33.5305 128.542 30.1985 128.542 25.6046C128.542 22.1468 126.81 17.8047 122.41 17.8047C118.055 17.8047 116.152 21.854 116.152 25.6895Z" fill="#77787A"/>
<path d="M137.041 20.9668C137.041 18.8148 136.956 17.1312 136.871 15.4448H140.128L140.298 18.7767H140.425C141.567 16.8384 143.47 15.0231 146.894 15.0231C149.643 15.0231 151.758 16.7096 152.644 19.1134H152.73C153.364 17.9335 154.21 17.0902 155.056 16.4578C156.283 15.5297 157.593 15.0231 159.537 15.0231C162.286 15.0231 166.303 16.7945 166.303 23.8771V35.8523H162.668V24.3427C162.668 20.3783 161.187 18.0594 158.227 18.0594C156.072 18.0594 154.462 19.62 153.787 21.3913C153.617 21.9389 153.49 22.5713 153.49 23.2476V35.8552H149.855V23.6253C149.855 20.3783 148.416 18.0594 145.584 18.0594C143.3 18.0594 141.567 19.9157 140.974 21.769C140.762 22.2756 140.677 22.949 140.677 23.5814V35.8494H137.038V20.9668H137.041Z" fill="#77787A"/>
<path d="M174.385 26.322C174.47 31.3404 177.642 33.4046 181.404 33.4046C184.068 33.4046 185.718 32.942 187.072 32.3505L187.747 35.0061C186.437 35.5976 184.153 36.312 180.896 36.312C174.594 36.312 170.832 32.1368 170.832 25.9823C170.832 19.8278 174.467 15.0202 180.432 15.0202C187.157 15.0202 188.89 20.838 188.89 24.5916C188.89 25.3499 188.846 25.8974 188.763 26.319L174.385 26.322ZM185.295 23.6663C185.339 21.3474 184.323 17.6787 180.135 17.6787C176.329 17.6787 174.723 21.0927 174.426 23.6663H185.295Z" fill="#77787A"/>
<path d="M25.0534 49.634C38.6468 49.634 49.6665 38.6476 49.6665 25.0951C49.6665 11.5427 38.6468 0.556274 25.0534 0.556274C11.4601 0.556274 0.44043 11.5427 0.44043 25.0951C0.44043 38.6476 11.4601 49.634 25.0534 49.634Z" fill="white"/>
<path d="M40.7151 29.5573C40.7151 20.9346 33.7021 13.9427 25.0534 13.9427C16.4046 13.9427 9.3916 20.9346 9.3916 29.5573H13.8672C13.8672 23.397 18.8773 18.4049 25.0534 18.4049C31.2294 18.4049 36.2395 23.3999 36.2395 29.5573" fill="black" fill-opacity="0.1"/>
<path d="M26.1723 36.6955C30.8678 36.6955 34.6743 32.9006 34.6743 28.2192C34.6743 23.5379 30.8678 19.7429 26.1723 19.7429C21.4769 19.7429 17.6704 23.5379 17.6704 28.2192C17.6704 32.9006 21.4769 36.6955 26.1723 36.6955Z" fill="black" fill-opacity="0.1"/>
<path d="M25.0534 34.242C30.1203 34.242 34.2278 30.1468 34.2278 25.0952C34.2278 20.0435 30.1203 15.9484 25.0534 15.9484C19.9864 15.9484 15.8789 20.0435 15.8789 25.0952C15.8789 30.1468 19.9864 34.242 25.0534 34.242Z" fill="url(#paint0_linear)"/>
<path d="M47.4287 13.9427C41.2674 1.58694 26.2283 -3.452 13.8351 2.69077C9.97033 4.60563 6.66648 7.48377 4.24658 11.0441L14.3138 28.4418C12.4607 22.5655 15.7352 16.3026 21.6293 14.4551C22.666 14.1301 23.7438 13.9574 24.8304 13.9427" fill="url(#paint1_linear)"/>
<path d="M4.24627 11.0441C-3.4598 22.5039 -0.387945 38.0219 11.1065 45.7047C14.663 48.0822 18.7715 49.511 23.0386 49.8565L33.5552 32.0109C29.6228 36.7629 22.5717 37.4363 17.8053 33.5158C16.1872 32.1836 14.9772 30.4269 14.3106 28.4417" fill="url(#paint2_linear)"/>
<path d="M23.042 49.8565C36.8418 50.896 48.8738 40.5868 49.9192 26.8285C50.257 22.3898 49.3965 17.9423 47.4289 13.9427H24.8305C31.0094 13.972 35.9931 18.9875 35.9667 25.1479C35.9549 27.6395 35.1062 30.058 33.5556 32.0109" fill="url(#paint3_linear)"/>
<path d="M4.24658 11.0441L14.3138 28.4418C13.5679 25.9384 13.7265 23.2564 14.7602 20.8585L4.69297 10.3736" fill="url(#paint4_linear)"/>
<path d="M23.0416 49.8565L33.5581 32.0109C31.8989 33.9843 29.6053 35.3223 27.0708 35.8025L22.5952 49.8565" fill="url(#paint5_linear)"/>
<path d="M47.429 13.9427H24.8306C28.2343 13.9574 31.4471 15.518 33.5557 18.1824L47.8754 14.6132" fill="url(#paint6_linear)"/>
</g>
<defs>
<linearGradient id="paint0_linear" x1="25.0535" y1="15.9506" x2="25.0535" y2="34.2406" gradientUnits="userSpaceOnUse">
<stop stop-color="#81B4E0"/>
<stop offset="1" stop-color="#0C5A94"/>
</linearGradient>
<linearGradient id="paint1_linear" x1="25.8378" y1="0.112477" x2="25.8378" y2="20.4116" gradientUnits="userSpaceOnUse">
<stop stop-color="#F06B59"/>
<stop offset="1" stop-color="#DF2227"/>
</linearGradient>
<linearGradient id="paint2_linear" x1="6.09684" y1="42.8544" x2="16.3433" y2="25.8743" gradientUnits="userSpaceOnUse">
<stop stop-color="#388B41"/>
<stop offset="1" stop-color="#4CB749"/>
</linearGradient>
<linearGradient id="paint3_linear" x1="40.5751" y1="44.6577" x2="29.6683" y2="18.3128" gradientUnits="userSpaceOnUse">
<stop stop-color="#E4B022"/>
<stop offset="0.3" stop-color="#FCD209"/>
</linearGradient>
<linearGradient id="paint4_linear" x1="9.50471" y1="27.7729" x2="9.50471" y2="9.92785" gradientUnits="userSpaceOnUse">
<stop stop-opacity="0.15"/>
<stop offset="0.3" stop-opacity="0.06"/>
<stop offset="1" stop-opacity="0.03"/>
</linearGradient>
<linearGradient id="paint5_linear" x1="34.2104" y1="33.5356" x2="21.9427" y2="46.0642" gradientUnits="userSpaceOnUse">
<stop stop-opacity="0.15"/>
<stop offset="0.3" stop-opacity="0.06"/>
<stop offset="1" stop-opacity="0.03"/>
</linearGradient>
<linearGradient id="paint6_linear" x1="34.0325" y1="37.1294" x2="35.8117" y2="19.5069" gradientUnits="userSpaceOnUse">
<stop stop-opacity="0.15"/>
<stop offset="0.3" stop-opacity="0.06"/>
<stop offset="1" stop-opacity="0.03"/>
</linearGradient>
<clipPath id="clip0">
<rect width="190.411" height="50" fill="white"/>
</clipPath>
</defs>
</svg>
