<svg width="82" height="82" viewBox="0 0 82 82" fill="none" xmlns="http://www.w3.org/2000/svg">
<rect width="82" height="82" rx="8" fill="white"/>
<path d="M64.2143 39.5449C62.9831 37.4154 61.2511 35.7081 59.0858 34.4229C57.4676 33.4759 55.7897 32.8749 53.899 32.6168V25.8503C55.7897 25.0433 56.9632 23.257 56.9632 21.173C56.9632 18.3326 54.6972 16.0309 51.8739 16.0309C49.0483 16.0309 46.7427 18.3326 46.7427 21.173C46.7427 23.257 47.8484 25.0433 49.7392 25.8503V32.6199C48.2266 32.8396 46.658 33.3136 45.2255 34.042C42.2997 31.8083 32.7059 24.4803 27.0936 20.2003C27.2267 19.7179 27.3292 19.2206 27.3292 18.696C27.3292 15.55 24.7948 13 21.664 13C18.5333 13 16 15.55 16 18.696C16 21.8417 18.5359 24.3925 21.6667 24.3925C22.7346 24.3925 23.7224 24.0785 24.5747 23.5622L25.7591 24.4655L42.0335 36.2529C41.1732 37.047 40.3719 37.9502 39.7309 38.9637C38.4319 41.0297 37.6382 43.303 37.6382 45.7826V46.3C37.6382 48.0407 37.9672 49.684 38.5276 51.2278C39.0211 52.5758 39.7426 53.8014 40.6362 54.9095L35.235 60.3523C34.4522 60.0595 33.6021 59.9994 32.7863 60.1792C31.9704 60.3591 31.2233 60.7713 30.6343 61.3666C30.2265 61.7745 29.9033 62.2597 29.6833 62.7942C29.4634 63.3286 29.3512 63.9016 29.3531 64.4799C29.3535 65.6557 29.8092 66.7608 30.6366 67.5921C31.0421 68.0024 31.5246 68.3277 32.0562 68.5492C32.5877 68.7706 33.1576 68.8839 33.7329 68.8823C34.3085 68.8838 34.8786 68.7705 35.4102 68.5491C35.9419 68.3276 36.4246 68.0024 36.8304 67.5921C37.238 67.1842 37.5611 66.6991 37.7812 66.165C38.0012 65.6308 38.1138 65.0581 38.1124 64.4799C38.1124 64.0249 38.0424 63.5809 37.9108 63.1589L43.4936 57.5461C44.259 58.0776 45.0856 58.525 45.9743 58.9108C47.727 59.6726 49.6617 60.1368 51.779 60.1368H52.167C54.5078 60.1368 56.7158 59.5841 58.7916 58.4535C60.9788 57.2587 62.6907 55.6249 63.984 53.5391C65.2841 51.4475 66 49.1366 66 46.5943V46.4673C66 43.9663 65.4241 41.6589 64.2143 39.5449ZM57.3931 51.319C55.8779 53.0118 54.1361 54.0545 52.167 54.0545H51.8425C50.7179 54.0545 49.6178 53.7421 48.5408 53.1737C47.327 52.548 46.4042 51.6555 45.6491 50.5253C44.8685 49.416 44.445 48.2049 44.445 46.9208V46.5308C44.445 45.2683 44.6859 44.0713 45.2932 42.9407C45.9425 41.7049 46.8195 40.7439 47.9857 39.9798C49.1308 39.221 50.3537 38.8489 51.7158 38.8489H51.8425C53.0776 38.8489 54.2469 39.0937 55.3503 39.6612C56.4746 40.2664 57.3931 41.0932 58.1052 42.1808C58.7968 43.2688 59.2083 44.4423 59.3406 45.7207C59.3615 45.9864 59.372 46.2586 59.372 46.5186C59.372 48.2536 58.7125 49.8604 57.3931 51.319Z" fill="#F8761F"/>
</svg>
