<svg width="82" height="82" viewBox="0 0 82 82" fill="none" xmlns="http://www.w3.org/2000/svg">
<rect width="82" height="82" rx="8" fill="#00A1E0"/>
<path d="M9.02841 43.395L9.39358 42.4131C9.45997 42.2438 9.55957 42.3115 9.62596 42.3454C9.72555 42.4131 9.79195 42.447 9.92474 42.5485C10.9539 43.2257 11.9166 43.2257 12.2154 43.2257C12.9789 43.2257 13.4769 42.8194 13.4769 42.2438V42.2099C13.4769 41.6005 12.7465 41.3634 11.8834 41.0926L11.6842 41.0248C10.5223 40.6862 9.26079 40.1783 9.26079 38.6885V38.6546C9.26079 37.2325 10.3895 36.2167 12.0162 36.2167H12.1822C13.1449 36.2167 14.0412 36.4876 14.7052 36.9278C14.7715 36.9616 14.8379 37.0293 14.8047 37.1309C14.7715 37.2325 14.4728 38.0113 14.4396 38.1129C14.3732 38.2822 14.2072 38.1806 14.2072 38.1806C13.6096 37.842 12.7133 37.605 11.9498 37.605C11.2526 37.605 10.8211 37.9774 10.8211 38.4853V38.5192C10.8211 39.0948 11.5846 39.3657 12.4477 39.6366L12.6137 39.6704C13.7756 40.0429 15.0039 40.5508 15.0039 42.0068V42.0406C15.0039 43.5982 13.9084 44.5463 12.149 44.5463C11.2858 44.5463 10.4559 44.4108 9.55957 43.9368C9.39358 43.8352 9.22759 43.7675 9.06161 43.6321C9.02841 43.5643 8.96201 43.5305 9.02841 43.395ZM34.9223 43.395L35.2875 42.4131C35.3539 42.2438 35.4867 42.3115 35.5199 42.3454C35.6195 42.4131 35.6859 42.447 35.8186 42.5485C36.8478 43.2257 37.8105 43.2257 38.1093 43.2257C38.8728 43.2257 39.3708 42.8194 39.3708 42.2438V42.2099C39.3708 41.6005 38.6404 41.3634 37.7773 41.0926L37.5781 41.0248C36.4162 40.6862 35.1547 40.1783 35.1547 38.6885V38.6546C35.1547 37.2325 36.2834 36.2167 37.9101 36.2167H38.0761C39.0388 36.2167 39.9351 36.4876 40.5991 36.9278C40.6655 36.9616 40.7319 37.0293 40.6987 37.1309C40.6655 37.2325 40.3667 38.0113 40.3335 38.1129C40.2671 38.2822 40.1011 38.1806 40.1011 38.1806C39.5035 37.842 38.6072 37.605 37.8437 37.605C37.1465 37.605 36.715 37.9774 36.715 38.4853V38.5192C36.715 39.0948 37.4785 39.3657 38.3416 39.6366L38.5076 39.6704C39.6695 40.0429 40.8978 40.5508 40.8978 42.0068V42.0406C40.8978 43.5982 39.8023 44.5463 38.0429 44.5463C37.1797 44.5463 36.3498 44.4108 35.4535 43.9368C35.2875 43.8352 35.1215 43.7675 34.9555 43.6321C34.9555 43.5643 34.8891 43.5305 34.9223 43.395ZM54.1104 38.7562C54.2432 39.2641 54.3428 39.8059 54.3428 40.3815C54.3428 40.9571 54.2764 41.4989 54.1104 42.0068C53.9776 42.5147 53.7452 42.9549 53.4464 43.3273C53.1477 43.6998 52.7493 44.0045 52.3177 44.2077C51.853 44.4108 51.3218 44.5124 50.7242 44.5124C50.1267 44.5124 49.5955 44.4108 49.1308 44.2077C48.666 44.0045 48.3008 43.6998 48.0021 43.3273C47.7033 42.9549 47.4709 42.5147 47.3381 42.0068C47.2053 41.4989 47.1057 40.9571 47.1057 40.3815C47.1057 39.8059 47.1721 39.2641 47.3381 38.7562C47.4709 38.2483 47.7033 37.8081 48.0021 37.4357C48.3008 37.0632 48.6992 36.7585 49.1308 36.5553C49.5955 36.3521 50.1267 36.2167 50.7242 36.2167C51.3218 36.2167 51.853 36.3183 52.3177 36.5553C52.7825 36.7585 53.1477 37.0632 53.4464 37.4357C53.7452 37.8081 53.9776 38.2483 54.1104 38.7562ZM52.6165 40.3476C52.6165 39.4673 52.4505 38.7901 52.1517 38.316C51.853 37.842 51.355 37.605 50.7242 37.605C50.0603 37.605 49.5955 37.842 49.2968 38.316C48.998 38.7901 48.832 39.4673 48.832 40.3476C48.832 41.228 48.998 41.9052 49.2968 42.4131C49.5955 42.8871 50.0603 43.1242 50.7242 43.1242C51.3882 43.1242 51.853 42.8871 52.1517 42.4131C52.4837 41.9391 52.6165 41.228 52.6165 40.3476ZM66.2606 42.8871L66.6258 43.9029C66.659 44.0384 66.5594 44.0722 66.5594 44.0722C65.995 44.3093 65.2315 44.4447 64.4679 44.4447C63.1733 44.4447 62.2105 44.0722 61.5466 43.3273C60.8826 42.5824 60.5507 41.5666 60.5507 40.3138C60.5507 39.7382 60.6171 39.1964 60.783 38.6885C60.949 38.1806 61.1814 37.7404 61.5134 37.3679C61.8453 36.9955 62.2437 36.6907 62.7085 36.4876C63.1732 36.2844 63.7376 36.149 64.3683 36.149C64.7999 36.149 65.1651 36.1828 65.4639 36.2167C65.7958 36.2844 66.2606 36.386 66.4598 36.4876C66.493 36.4876 66.5926 36.5553 66.5594 36.6569C66.4266 37.0632 66.327 37.3341 66.1942 37.6727C66.1278 37.842 66.0282 37.7743 66.0282 37.7743C65.5303 37.605 65.0655 37.5372 64.4679 37.5372C63.7376 37.5372 63.1732 37.7743 62.8413 38.2822C62.4761 38.7562 62.2769 39.3995 62.2769 40.2799C62.2769 41.228 62.5093 41.9052 62.9077 42.3454C63.306 42.7856 63.8704 42.9887 64.6007 42.9887C64.8995 42.9887 65.1651 42.9549 65.3975 42.921C65.6298 42.8871 65.8622 42.8194 66.0946 42.7178C66.0614 42.7856 66.1942 42.7517 66.2606 42.8871ZM73.7964 38.4515C74.1284 39.6027 73.9624 40.5847 73.9292 40.6524C73.9292 40.7878 73.7964 40.7878 73.7964 40.7878H68.7836C68.8168 41.5666 68.9828 42.1084 69.3811 42.4808C69.7463 42.8533 70.3107 43.0903 71.1074 43.0903C72.3025 43.0903 72.8005 42.8533 73.1656 42.7178C73.1656 42.7178 73.2984 42.684 73.3648 42.8194L73.6968 43.7675C73.7632 43.9368 73.6968 43.9707 73.6636 44.0045C73.3648 44.1738 72.6013 44.5124 71.1406 44.5124C70.4435 44.5124 69.8127 44.4108 69.3148 44.2077C68.8168 44.0045 68.3852 43.7336 68.0532 43.3612C67.7213 42.9887 67.4889 42.5485 67.3229 42.0745C67.1569 41.5666 67.0905 41.0248 67.0905 40.4492C67.0905 39.8736 67.1569 39.3318 67.3229 38.8239C67.4557 38.316 67.6881 37.8758 67.9869 37.5034C68.2856 37.1309 68.684 36.8262 69.1488 36.623C69.6135 36.386 70.1779 36.2844 70.8086 36.2844C71.3398 36.2844 71.8377 36.386 72.2361 36.5892C72.5349 36.7246 72.8669 36.9616 73.1988 37.3341C73.3648 37.4695 73.6636 37.9774 73.7964 38.4515ZM68.8168 39.535H72.3689C72.3357 39.0609 72.2361 38.6546 72.0369 38.316C71.7382 37.842 71.3066 37.5711 70.6426 37.5711C69.9787 37.5711 69.5139 37.842 69.2152 38.316C69.016 38.6208 68.9164 39.0271 68.8168 39.535ZM33.7272 38.4515C34.0592 39.6027 33.8932 40.5847 33.8932 40.6524C33.8932 40.7878 33.7604 40.7878 33.7604 40.7878H28.7476C28.7808 41.5666 28.9468 42.1084 29.3452 42.4808C29.7103 42.8533 30.2747 43.0903 31.0714 43.0903C32.2665 43.0903 32.7645 42.8533 33.1297 42.7178C33.1297 42.7178 33.2625 42.684 33.3288 42.8194L33.6608 43.7675C33.7272 43.9368 33.6608 43.9707 33.6276 44.0045C33.3288 44.1738 32.5653 44.5124 31.1046 44.5124C30.4075 44.5124 29.7767 44.4108 29.2788 44.2077C28.7808 44.0045 28.3493 43.7336 28.0173 43.3612C27.6853 42.9887 27.4529 42.5485 27.2869 42.0745C27.1209 41.5666 27.0546 41.0248 27.0546 40.4492C27.0546 39.8736 27.1209 39.3318 27.2869 38.8239C27.4197 38.316 27.6521 37.8758 27.9509 37.5034C28.2497 37.1309 28.648 36.8262 29.1128 36.623C29.5776 36.386 30.1419 36.2844 30.7727 36.2844C31.3038 36.2844 31.8018 36.386 32.2001 36.5892C32.4989 36.7246 32.8309 36.9616 33.1629 37.3341C33.2957 37.4695 33.6276 37.9774 33.7272 38.4515ZM28.7476 39.535H32.3329C32.2997 39.0609 32.2001 38.6546 32.001 38.316C31.7022 37.842 31.2706 37.5711 30.6067 37.5711C29.9427 37.5711 29.478 37.842 29.1792 38.316C28.9468 38.6208 28.8472 39.0271 28.7476 39.535ZM19.9503 39.2641C19.9503 39.2641 20.3487 39.298 20.7803 39.3657V39.1625C20.7803 38.4853 20.6475 38.1467 20.3819 37.9436C20.1163 37.7404 19.6847 37.605 19.1536 37.605C19.1536 37.605 17.9253 37.605 16.9626 38.1129C16.9294 38.1467 16.8962 38.1467 16.8962 38.1467C16.8962 38.1467 16.7634 38.1806 16.7302 38.079L16.365 37.0971C16.2986 36.9616 16.3982 36.8939 16.3982 36.8939C16.863 36.5214 17.9253 36.3183 17.9253 36.3183C18.2905 36.2506 18.888 36.1828 19.2532 36.1828C20.2491 36.1828 21.0126 36.4199 21.5438 36.8939C22.075 37.3679 22.3405 38.1129 22.3405 39.1625V43.8352C22.3405 43.8352 22.3405 43.9707 22.2409 44.0045C22.2409 44.0045 22.0418 44.0722 21.8758 44.1061C21.7098 44.14 21.1122 44.2754 20.6143 44.3431C20.1163 44.4447 19.6184 44.4786 19.0872 44.4786C18.5892 44.4786 18.1577 44.4447 17.7593 44.3431C17.3609 44.2415 17.029 44.1061 16.7302 43.9029C16.4646 43.6998 16.2322 43.4289 16.0662 43.0903C15.9003 42.7856 15.8339 42.3792 15.8339 41.9391C15.8339 41.4989 15.9335 41.0926 16.0994 40.754C16.2654 40.4153 16.531 40.1445 16.8298 39.9074C17.1286 39.6704 17.4937 39.535 17.8589 39.3995C18.2573 39.298 18.6556 39.2302 19.0872 39.2302C19.4856 39.2641 19.7511 39.2641 19.9503 39.2641ZM17.9585 42.8533C17.9585 42.8533 18.4233 43.2257 19.4192 43.158C20.1495 43.1242 20.7803 42.9887 20.7803 42.9887V40.6524C20.7803 40.6524 20.1495 40.5508 19.4192 40.5508C18.3901 40.5508 17.9585 40.9233 17.9585 40.9233C17.6597 41.1264 17.5269 41.465 17.5269 41.9052C17.5269 42.1761 17.5933 42.4131 17.6929 42.5824C17.7261 42.6501 17.7593 42.7178 17.9585 42.8533ZM60.2851 36.6569C60.2519 36.7923 59.9863 37.5034 59.9199 37.7404C59.8867 37.842 59.8203 37.8758 59.7207 37.8758C59.7207 37.8758 59.422 37.8081 59.1564 37.8081C58.9904 37.8081 58.7248 37.842 58.4924 37.9097C58.26 37.9774 58.0609 38.1129 57.8617 38.2822C57.6625 38.4515 57.5297 38.7223 57.4301 39.0271C57.3305 39.3318 57.2641 39.8397 57.2641 40.3815V44.1738C57.2641 44.2754 57.1977 44.3431 57.0981 44.3431H55.7702C55.6707 44.3431 55.6043 44.2754 55.6043 44.1738V36.5553C55.6043 36.4537 55.6707 36.386 55.737 36.386H57.0317C57.1313 36.386 57.1645 36.4537 57.1645 36.5553V37.1648C57.3637 36.8939 57.6957 36.6569 57.9945 36.5214C58.2932 36.386 58.6584 36.2844 59.2892 36.3183C59.6211 36.3521 60.0527 36.4199 60.1191 36.4537C60.2519 36.4876 60.3183 36.5214 60.2851 36.6569ZM47.9689 33.1354C48.0021 33.1354 48.1017 33.2032 48.0685 33.3047L47.6701 34.3883C47.6369 34.456 47.6037 34.5237 47.4377 34.456C47.4045 34.456 47.3381 34.4221 47.1721 34.3883C47.0725 34.3544 46.9066 34.3544 46.7738 34.3544C46.5746 34.3544 46.4086 34.3883 46.2426 34.4221C46.0766 34.456 45.9438 34.5576 45.811 34.693C45.6783 34.8284 45.5455 34.9977 45.4459 35.2348C45.2467 35.7765 45.1803 36.3521 45.1803 36.386H46.7738C46.9066 36.386 46.9398 36.4537 46.9398 36.5553L46.7406 37.605C46.7074 37.7743 46.5746 37.7404 46.5746 37.7404H44.9147L43.8524 44.2754C43.7196 44.9526 43.5868 45.5282 43.4208 46.0023C43.2548 46.4763 43.0557 46.8149 42.7569 47.1535C42.4913 47.4582 42.1925 47.6953 41.8274 47.7968C41.4954 47.9323 41.0638 48 40.5991 48C40.3667 48 40.1343 48 39.8687 47.9323C39.6695 47.8984 39.57 47.8646 39.404 47.7968C39.3376 47.763 39.3044 47.6953 39.3376 47.5937C39.3708 47.4921 39.6695 46.6795 39.7027 46.544C39.7691 46.4086 39.8687 46.4763 39.8687 46.4763C39.9683 46.5102 40.0347 46.544 40.1343 46.5779C40.2671 46.6117 40.3999 46.6117 40.5327 46.6117C40.765 46.6117 40.9642 46.5779 41.1302 46.5102C41.3294 46.4424 41.4622 46.307 41.595 46.1377C41.7278 45.9684 41.8274 45.7314 41.9602 45.4266C42.0597 45.1219 42.1593 44.6817 42.2589 44.1738L43.3876 37.7743H42.2921C42.1593 37.7743 42.1261 37.7065 42.1261 37.605L42.3253 36.5553C42.3585 36.386 42.4913 36.4199 42.4913 36.4199H43.62L43.6864 36.0813C43.8524 35.0655 44.1844 34.2867 44.6823 33.7788C45.1803 33.2709 45.9106 33 46.807 33C47.0725 33 47.3049 33.0339 47.5041 33.0677C47.6369 33.0339 47.8029 33.0677 47.9689 33.1354ZM25.5939 44.14C25.5939 44.2415 25.5275 44.3093 25.4611 44.3093H24.1332C24.0336 44.3093 24.0004 44.2415 24.0004 44.14V33.2709C24.0004 33.2032 24.0668 33.1016 24.1332 33.1016H25.4611C25.5607 33.1016 25.5939 33.1693 25.5939 33.2709V44.14Z" fill="white"/>
</svg>
