<svg width="75" height="30" viewBox="0 0 75 30" fill="none" xmlns="http://www.w3.org/2000/svg">
<g clip-path="url(#clip0)">
<path d="M55.9754 12.1976L52.7161 16.7779L60.247 27.8026V12.1976H55.9754ZM33.4322 13.1359V27.2594L40.5433 16.6914L37.2099 12.3211C39.9383 11.605 42.4939 10.3581 44.7285 8.64207L46.8766 11.3705L50.9507 5.20997H74.1235V12.1976H68.9136V29.2593H50.9507L46.3581 22.4075L41.5803 29.2593H24.6914V24.568C23.4815 27.8643 19.642 29.9137 12.0494 29.9137C0.777833 29.9137 0.222278 25.926 0.0494385 21.3705H8.96302C8.98771 22.7285 9.22228 23.7161 9.79018 24.3705C10.4322 25.0618 11.3457 25.4198 12.2964 25.3581C14.1112 25.3581 16.0618 24.8519 16.0618 22.8766C16.0618 22.4692 15.926 22.0742 15.6914 21.7532C14.4939 20.1729 4.56796 19.0124 1.77783 16.1235C0.654377 14.9631 0.308698 13.2347 0.308698 11.8273C0.308698 6.46923 4.48154 4.02478 12.7902 4.02478C21.6173 4.02478 23.7161 7.1112 23.8272 12.1853H15.247C15.1852 10.8273 14.7778 9.75318 14.1852 9.25935C13.6544 8.77787 12.9383 8.53095 12.2223 8.58034C10.3828 8.61737 9.40746 9.4075 9.40746 10.6421C9.39512 11.0495 9.53092 11.4445 9.77783 11.7655C11.1235 13.3087 20.7285 14.4075 23.4939 17.3458C24.0248 17.889 24.4322 18.5433 24.6914 19.247V13.568C27.6173 13.7038 30.5433 13.5556 33.4322 13.1359Z" fill="black"/>
<path d="M24.6914 5.19762C33.5927 5.85194 38.605 3.32108 40.3211 0.0247803H49.3952C46.6668 7.92602 38.1482 12.8766 24.6791 12.21V5.19762H24.6914Z" fill="black"/>
</g>
<defs>
<clipPath id="clip0">
<rect width="74.1975" height="30" fill="white"/>
</clipPath>
</defs>
</svg>
