<svg width="99" height="35" viewBox="0 0 99 35" fill="none" xmlns="http://www.w3.org/2000/svg">
<g clip-path="url(#clip0)">
<path d="M44.4812 21.7395C44.4812 22.5611 44.7441 23.2019 45.2042 23.6127C45.6971 24.04 46.2887 24.27 46.9459 24.27C47.6361 24.27 48.2112 24.04 48.6877 23.5963C49.1807 23.1526 49.4107 22.5118 49.4107 21.7395V7.73949C49.4107 6.93433 49.1807 6.32635 48.6549 5.88268C48.1619 5.40616 47.5704 5.19254 46.9459 5.19254C46.2887 5.19254 45.6971 5.40616 45.2042 5.88268C44.7276 6.32635 44.4812 6.93433 44.4812 7.73949V21.7395ZM46.9788 0.230103C47.9319 0.230103 48.8356 0.394422 49.6572 0.755924C50.4788 1.10099 51.2347 1.62682 51.9412 2.30053C52.615 2.9578 53.1408 3.66437 53.4858 4.43668C53.8638 5.40616 54.0281 6.5071 54.0281 7.73949V21.7395C54.0281 23.8756 53.4037 25.6339 52.1384 27.047C51.6455 27.6221 51.0539 28.0329 50.4131 28.3616C49.4107 28.8545 48.2276 29.0681 46.8638 29.0024C45.8779 28.9038 45.1056 28.4601 44.4976 27.5893V34.9343H39.9131V7.34513C39.9131 5.38973 40.6197 3.7301 42.0492 2.31696C42.7065 1.65968 43.4131 1.16672 44.1854 0.80522C45.0563 0.410854 45.9929 0.230103 46.9788 0.230103Z" fill="black"/>
<path d="M37.399 7.83801H32.8145V28.5258H37.399V7.83801Z" fill="black"/>
<path d="M28.3121 2.48122C29.7417 3.8615 30.4483 5.50469 30.4483 7.41079V28.5258H25.8473V7.73943C25.8473 7.03286 25.6173 6.42488 25.1243 5.91549C24.6314 5.42253 24.0398 5.15962 23.3661 5.15962C22.676 5.15962 22.1173 5.42253 21.6243 5.88262C21.1314 6.37558 20.8684 6.98356 20.8684 7.73943V28.5258H16.2839V7.52582C16.2839 5.57042 16.9741 3.91079 18.4201 2.49765C19.8332 1.0845 21.4929 0.37793 23.3497 0.37793C25.2393 0.394362 26.899 1.0845 28.3121 2.48122Z" fill="black"/>
<path d="M98.6079 8.46246C98.6079 9.56339 97.6877 10.4836 96.5867 10.4836H90.244C89.1431 10.4836 88.2229 9.56339 88.2229 8.46246V2.1526C88.2229 1.03523 89.1431 0.13147 90.244 0.13147H96.5867C97.6877 0.13147 98.6079 1.01879 98.6079 2.1526V8.46246Z" fill="black"/>
<path d="M36.5938 0.312256C37.1196 0.312256 37.5304 0.706622 37.5304 1.23244V3.86155C37.5304 4.37094 37.1032 4.79817 36.5938 4.79817H33.7346C33.2088 4.79817 32.8145 4.37094 32.8145 3.86155V1.23244C32.8145 0.706622 33.2088 0.312256 33.7346 0.312256H36.5938Z" fill="black"/>
<path d="M84.4271 12.3569C83.0468 11.0916 81.3543 10.3851 79.3825 10.2865C78.643 10.1879 78.0515 9.90855 77.6078 9.44845C77.1641 8.9555 76.9341 8.36395 76.9341 7.69024C76.9341 7.03296 77.1477 6.42498 77.5914 5.89916C78.0022 5.3569 78.6266 5.09399 79.3989 5.09399C80.7792 5.09399 81.6008 5.75127 81.8637 7.06582H86.4646C86.4646 5.11043 85.7416 3.5001 84.312 2.23484C82.8825 0.969581 81.2393 0.328735 79.3989 0.328735C77.4599 0.328735 75.8167 1.03531 74.42 2.46489C73.0562 3.87803 72.3824 5.63625 72.3824 7.67381C72.3824 9.74423 73.0562 11.486 74.4036 12.8663C75.7674 14.2794 77.4106 15.0024 79.3989 15.0517C80.2205 15.0517 80.8285 15.2325 81.2886 15.594C81.7158 15.9719 81.9294 16.547 81.9294 17.3522V21.4273C81.9294 22.1339 81.7322 22.7419 81.3379 23.2841C80.9435 23.7935 80.3026 24.0564 79.4153 24.0564C78.2487 24.0564 77.4928 23.547 77.1148 22.479L76.9998 21.871V17.8123H72.3989V21.6409L72.4482 22.3968V22.479C72.7111 24.1222 73.4834 25.5846 74.7322 26.8006C76.0961 28.1316 77.6735 28.8053 79.4153 28.8053C81.535 28.8053 83.2604 28.148 84.5585 26.8006C85.8731 25.486 86.5303 23.81 86.5303 21.7888V17.2865C86.4975 15.2654 85.7909 13.6222 84.4271 12.3569Z" fill="black"/>
<path d="M12.0938 12.3569C10.7135 11.0916 9.02105 10.3851 7.04922 10.2865C6.30978 10.1879 5.71823 9.90855 5.25814 9.44845C4.81448 8.9555 4.58443 8.36395 4.58443 7.69024C4.58443 7.03296 4.79805 6.42498 5.24171 5.89916C5.66894 5.3569 6.27692 5.09399 7.04922 5.09399C8.4295 5.09399 9.2511 5.75127 9.51401 7.06582H14.1149C14.1149 5.11043 13.3919 3.5001 11.9459 2.23484C10.5164 0.969581 8.87316 0.328735 7.03279 0.328735C5.09382 0.328735 3.45063 1.03531 2.05392 2.46489C0.690066 3.87803 0.0163574 5.63625 0.0163574 7.67381C0.0163574 9.74423 0.706498 11.486 2.03748 12.8663C3.40133 14.2794 5.04453 15.0024 7.03279 15.0517C7.85438 15.0517 8.46237 15.2325 8.90603 15.594C9.33326 15.9719 9.54687 16.547 9.54687 17.3522V21.4273C9.54687 22.1339 9.36612 22.7419 8.95532 23.2841C8.56096 23.7935 7.92011 24.0564 7.03279 24.0564C5.86612 24.0564 5.11025 23.547 4.73232 22.479L4.6173 21.871V17.8123H0.0163574V21.6409L0.0656532 22.3968V22.479C0.328564 24.1222 1.10086 25.5846 2.33326 26.8006C3.69711 28.1316 5.27457 28.8053 7.03279 28.8053C9.15251 28.8053 10.8779 28.148 12.176 26.8006C13.4905 25.486 14.1478 23.81 14.1478 21.7888V17.2865C14.1478 15.2654 13.4412 13.6222 12.0938 12.3569Z" fill="black"/>
<path d="M60.7816 7.64085C60.7816 6.90141 61.0117 6.277 61.5046 5.78404C61.9976 5.30751 62.6055 5.06103 63.3121 5.06103C63.9694 5.06103 64.5774 5.30751 65.0703 5.78404C65.5962 6.277 65.8262 6.88498 65.8262 7.64085V10.3028H60.7816V7.64085ZM70.3778 14.5915V7.31221C70.3778 5.4061 69.6713 3.74648 68.2253 2.38263C66.7957 1.00235 65.1196 0.295776 63.2464 0.295776C61.2088 0.295776 59.5164 0.969485 58.2018 2.3169C56.8873 3.68075 56.23 5.37324 56.23 7.44366V21.6901C56.23 23.7277 56.8873 25.4531 58.2182 26.784C59.5656 28.1479 61.2417 28.8052 63.2628 28.8052C65.2018 28.8052 66.8614 28.1643 68.1595 26.9319C69.5069 25.6831 70.2299 24.0728 70.345 22.1009V17.9437H65.6947V21.9366L65.6783 22.1667C65.3825 23.4155 64.5445 24.0399 63.23 24.0399C62.5563 24.0399 61.9811 23.8099 61.4882 23.3169C60.9952 22.8239 60.7652 22.216 60.7652 21.4601V14.608H70.3778V14.5915Z" fill="black"/>
</g>
<defs>
<clipPath id="clip0">
<rect width="98.7559" height="35" fill="white"/>
</clipPath>
</defs>
</svg>
