<svg width="194" height="30" viewBox="0 0 194 30" fill="none" xmlns="http://www.w3.org/2000/svg">
<g clip-path="url(#clip0)">
<path d="M173.807 29.4745V16.1683C173.807 12.3444 176.416 9.77334 180.221 9.77334C183.493 9.77334 184.942 11.3021 184.942 14.8802V29.4745H186.797V14.6765C186.797 10.1932 184.655 8.01435 180.211 8.01435C177.278 8.01435 175.026 9.39989 173.655 12.0248L173.428 12.455L173.314 11.9848C172.645 9.4241 170.611 8.01435 167.567 8.01435C166.631 8.01435 165.767 8.16594 164.983 8.45267C161.769 9.52292 160.817 11.9471 160.817 11.9471V8.79754H158.699V29.4745H160.817V16.3286C160.817 12.4718 163.37 9.77334 167.141 9.77334C170.212 9.77334 171.687 11.574 171.687 15.1212V29.4745H173.807ZM129.673 9.66006C133.543 9.66006 136.072 12.6312 136.277 17.2426L122.872 17.2409C123.113 12.7001 125.785 9.66006 129.673 9.66006ZM136.045 23.1105C135.493 26.0271 132.912 27.8359 129.635 27.8359C125.358 27.8359 122.546 24.409 122.546 19.2681V19.1343H138.188V18.3394C138.188 11.7286 135.089 7.96662 129.615 7.96662C124.026 7.96662 120.729 12.0429 120.729 18.8318C120.729 25.5347 124.053 29.5861 129.619 29.5861C134.192 29.5861 137.489 27.087 138.081 23.1105H136.045ZM114.542 17.535C114.542 12.5791 116.775 10.1222 121.018 10.1222H121.169V8.2651H121.058C118.907 8.2651 117.26 8.82309 116.04 10.0658C115.183 10.8083 114.59 11.8278 114.276 12.4631V11.9229V8.79754H112.422V29.4745H114.542V17.535ZM30.5719 25.8785C26.7897 25.8785 24.6737 23.2732 24.6737 18.3905C24.6737 13.5112 26.7897 10.8688 30.5719 10.8688C34.3147 10.8688 36.4273 13.4712 36.4273 18.3905C36.4273 23.2732 34.3147 25.8785 30.5719 25.8785ZM30.5319 6.96191C23.9823 6.96191 20.0367 11.1912 20.0367 18.3905C20.0367 25.5925 24.024 29.7824 30.5719 29.7824C37.0804 29.7824 41.07 25.5518 41.07 18.3905C41.07 11.2328 37.0804 6.96191 30.5319 6.96191ZM143.015 20.6816C143.227 20.4856 143.471 20.3024 143.736 20.1317C144.058 19.9468 145.823 19.0211 148.716 18.8254C150.87 18.6735 152.572 18.4587 153.856 17.9619L154.108 17.8664L154.137 19.9599L154.13 19.9643C154.13 19.9643 154.132 19.9858 154.137 20.0268L154.143 20.5764L154.154 21.048C154.15 21.0631 154.15 21.0775 154.15 21.09C154.148 21.1764 154.141 21.2554 154.137 21.3377C154.107 21.8638 154.011 22.6056 153.743 23.3945C153.111 25.1159 151.621 26.9619 148.212 27.5549C147.708 27.6281 147.179 27.6678 146.626 27.6678C143.663 27.6678 141.747 26.0517 141.747 23.5501C141.747 22.8846 141.896 22.2819 142.188 21.7367C142.213 21.6896 142.237 21.6422 142.264 21.6016C142.284 21.568 142.308 21.5347 142.328 21.4997C142.47 21.2799 142.633 21.0738 142.808 20.8853C142.835 20.8584 142.862 20.8308 142.889 20.8033C142.929 20.7626 142.973 20.7226 143.015 20.6816V20.6816ZM139.638 23.5928C139.638 27.1844 142.184 29.418 146.285 29.418C149.2 29.418 151.763 28.2523 153.827 25.9518L154.191 25.5861V26.3985C154.191 27.9256 154.721 29.2355 156.045 29.4745V14.0466C156.045 10.0547 153.527 7.97166 148.684 7.97166C143.955 7.97166 140.861 10.6517 140.685 14.3646H142.679C142.906 11.447 144.893 9.71956 148.752 9.71956C152.558 9.71956 154.112 11.0614 154.112 14.4113C154.112 16.2295 153.52 16.5979 151.853 16.9639C150.628 17.2258 148.849 17.3945 148.235 17.448C148.175 17.4506 148.114 17.4557 148.058 17.4621C148.032 17.4634 148.015 17.4634 148.015 17.4634V17.4661C146.159 17.6211 144.411 17.8426 142.857 18.5495C140.75 19.5256 139.638 21.2675 139.638 23.5928V23.5928ZM52.9245 25.7955C49.468 25.7955 47.311 23.1501 47.311 18.5135C47.311 13.6332 49.468 10.9495 52.9245 10.9495C56.625 10.9495 58.6186 13.4305 58.6186 18.2285C58.6186 23.1918 56.5867 25.7955 52.9245 25.7955ZM58.6139 10.2984C57.024 8.05972 54.7927 6.96191 51.904 6.96191C46.6583 6.96191 42.7352 11.3549 42.7352 18.4732C42.7352 25.3878 46.5692 29.7824 51.9336 29.7824C54.7426 29.7824 56.7574 28.6816 58.6139 26.2812V29.4745H62.8566V0.0486336H58.6139V10.2984ZM11.6811 16.2762L8.95742 15.6668C6.63608 15.138 5.37557 14.4883 5.37557 12.9421C5.37557 11.6392 6.59608 10.731 8.99608 10.731C11.8025 10.731 13.3897 11.9774 13.51 14.0977H17.9453C17.9453 9.85569 14.6072 7.0725 9.15876 7.0725C3.87137 7.0725 0.781287 9.70275 0.781287 13.6903C0.781287 17.1885 2.97793 18.7058 7.45255 19.8036L10.665 20.6009C12.7789 21.132 13.9994 21.6533 13.9994 23.1969C13.9994 24.8658 12.4532 26.133 9.68717 26.133C6.51675 26.133 4.84818 24.967 4.64213 22.3152H0.170532C0.170532 27.087 3.42431 29.8718 9.28011 29.8718C15.222 29.8718 18.5547 27.1028 18.5547 22.6664C18.5547 18.7222 16.2374 17.3357 11.6811 16.2762ZM78.71 21.0345C78.71 24.0859 76.1672 26.1202 72.9107 26.1202C70.6744 26.1202 69.4445 24.9801 69.4445 23.0288C69.4445 21.2799 70.4156 20.2244 72.5315 19.8157C74.6451 19.4066 76.8552 19.329 78.71 18.3501V21.0345ZM74.6828 6.96191C69.1494 6.96191 65.9836 9.68594 65.9836 13.8769V14.3646H70.2267V14.0785C70.2267 11.9263 71.6996 10.7051 74.5057 10.7051C77.4764 10.7051 78.8838 11.6392 78.8838 13.7135C78.8838 15.7081 77.8989 15.7475 74.1188 16.2379C68.383 16.9659 65.0041 18.3501 65.0041 23.4359C65.0041 27.3394 67.5241 29.7824 71.9161 29.7824C74.7208 29.7824 77.2855 28.5182 79.0357 26.2429C79.0741 28.4406 80.3255 29.495 83.0919 29.495C83.1483 29.495 83.2156 29.4903 83.2156 29.4903V13.3081C83.2156 9.11788 80.3756 6.96191 74.6828 6.96191ZM109.77 27.4812C109.241 27.6483 108.318 27.8301 107.703 27.8301C106.172 27.8301 106.06 26.8654 106.06 25.3962V10.3861H109.77V8.79754H106.06V0.844599H103.94V25.3962C103.94 28.4029 104.657 29.418 107.015 29.418C107.846 29.418 108.709 29.2809 109.77 29.0194V27.4812ZM95.2872 18.0039C94.9083 17.9108 94.5457 17.8308 94.1957 17.7464C90.5618 16.897 88.3672 16.3901 88.3672 13.4601C88.3672 11.215 90.2657 9.78107 93.2078 9.78107C96.5356 9.78107 98.5608 11.447 98.7954 14.3646H100.903C100.553 10.3861 97.7746 8.03283 93.2475 8.03283C89.0657 8.03283 86.2559 10.3384 86.2559 13.8036C86.2559 17.2244 88.5268 18.3575 93.6119 19.5881L93.7265 19.6295C97.3655 20.498 99.3705 21.0039 99.3705 23.6913C99.3705 26.2053 97.106 27.8802 93.6099 27.8802C90.4794 27.8802 88.0764 25.7612 87.9332 23.1105H85.824C86.031 27.087 89.1137 29.6244 93.7295 29.6244C98.3638 29.6244 101.48 27.2369 101.48 23.7552C101.48 20.6688 99.8566 19.1246 95.2872 18.0039Z" fill="black"/>
<path d="M190.514 10.3552C190.943 10.3552 191.367 10.3404 191.367 9.85809C191.367 9.46314 191.036 9.37003 190.691 9.37003H190.051V10.3552H190.514ZM190.051 11.9119H189.703V9.07288H190.793C191.433 9.07288 191.715 9.34986 191.715 9.85809C191.715 10.361 191.388 10.5848 191.003 10.6517L191.849 11.9119H191.439L190.64 10.6517H190.051V11.9119ZM188.519 10.492C188.519 11.6685 189.405 12.5996 190.593 12.5996C191.782 12.5996 192.667 11.6685 192.667 10.492C192.667 9.31759 191.782 8.38751 190.593 8.38751C189.405 8.38751 188.519 9.31759 188.519 10.492ZM193.051 10.492C193.051 11.8739 191.982 12.9489 190.593 12.9489C189.205 12.9489 188.135 11.8739 188.135 10.492C188.135 9.11188 189.205 8.03557 190.593 8.03557C191.982 8.03557 193.051 9.11188 193.051 10.492Z" fill="black"/>
</g>
<defs>
<clipPath id="clip0">
<rect width="193.109" height="30" fill="white"/>
</clipPath>
</defs>
</svg>
