<svg width="82" height="82" viewBox="0 0 82 82" fill="none" xmlns="http://www.w3.org/2000/svg">
<rect width="82" height="82" rx="8" fill="white"/>
<path d="M51.0574 39.4658H42.4383V30.1058H39.0549V39.4658H30.4604V42.7752H39.0549V52.1352H42.4383V42.7752H51.0574V39.4658Z" fill="#E66F1C"/>
<path d="M33.7458 54.7284H26.0404V46.3562H23.1262V54.7284H15.4209V57.2721H23.1262V65.669H26.0404V57.2721H33.7458V54.7284Z" fill="#C61629"/>
<path d="M66.0981 24.7714H58.3928V16.3499H55.4786V24.7714H47.7485V27.3152H55.4786V35.6626H58.3928V27.3152H66.0981V24.7714Z" fill="#618CA2"/>
<path d="M47.2792 64.0142H42.0435V58.1858H39.5492V64.0142H34.3135V66.2863H39.5492V72.1147H42.0435V66.2863H47.2792V64.0142Z" fill="#5A5F8E"/>
<path d="M33.7458 24.7714H25.9417V16.3499H23.225V24.7714H15.4209V27.2411H23.225V35.6626H25.9417V27.2411H33.7458V24.7714Z" fill="#EB9118"/>
<path d="M72.0001 39.9844H66.7891V34.156H64.2948V39.9844H59.0591V42.2565H64.2948V48.0849H66.7891V42.2565H72.0001V39.9844Z" fill="#5A5F8E"/>
<path fill-rule="evenodd" clip-rule="evenodd" d="M66.0981 54.7284H58.3928V46.3562H55.4786V54.7284H47.7485V57.2721H55.4786V65.669H58.3928V57.2721H66.0981V54.7284Z" fill="#223A76"/>
<path d="M39.8701 10.398V16.1276H34.7085V17.8563H39.8701V23.586H41.7223V17.8563H46.9086V16.1276H41.7223V10.398H39.8701Z" fill="#749BA9"/>
<path d="M14.6306 34.6006V40.2067H9.44434V42.0095L14.6306 41.9848V47.6404H16.4335V41.9848L21.6445 41.9601V40.2067H16.4335V34.6006H14.6306Z" fill="#749BA9"/>
</svg>
