<?xml version="1.0" encoding="utf-8"?>
<!-- Generator: Adobe Illustrator 23.0.6, SVG Export Plug-In . SVG Version: 6.00 Build 0)  -->
<svg version="1.1" id="Ebene_1" xmlns="http://www.w3.org/2000/svg" xmlns:xlink="http://www.w3.org/1999/xlink" x="0px" y="0px"
	 viewBox="0 0 155 37" style="enable-background:new 0 0 155 37;" xml:space="preserve">
<style type="text/css">
	.st0{fill:#FFFFFF;}
</style>
<g>
	<path class="st0" d="M14.5,27.9H1.9v-5h2v-5.9h-2v-5h10.3v2.2c0.8-0.7,1.8-1.3,3.1-1.7c1.3-0.5,2.5-0.7,3.7-0.7
		c2.7,0,4.5,1,5.5,3.1c2.5-2.1,5-3.1,7.5-3.1c1.4,0,2.5,0.3,3.4,0.9c0.9,0.6,1.6,1.4,1.9,2.4c0.4,1,0.6,2.5,0.6,4.4v3.6H40v5H29.6
		V21c0-1.8-0.1-2.9-0.4-3.3S28.5,17,27.7,17c-0.9,0-1.8,0.3-2.7,1v4.8h2.3v5H16.7V21c0-1.8-0.1-2.9-0.4-3.3
		c-0.2-0.5-0.7-0.7-1.5-0.7c-0.8,0-1.7,0.3-2.7,1v4.8h2.2V27.9z"/>
	<path class="st0" d="M50.9,35.2h-7v-4.9h2.7l0.8-1.6l-6.1-11.8h-1.2v-5H51v5h-1.8l2.8,6.3l2.6-6.3H53v-5h8.3v5h-1.6L50.9,35.2z"/>
	<path class="st0" d="M81.6,17.8l6,2.1c-0.5,2.5-1.7,4.5-3.5,6c-1.8,1.6-4.4,2.4-7.6,2.4c-4.4,0-7.7-1.1-9.8-3.4
		c-2.1-2.3-3.2-5.1-3.2-8.4c0-3.3,1-6.1,3.1-8.5c2.1-2.3,4.8-3.5,8.1-3.5c2.7,0,4.9,0.7,6.6,2V4.9h5.5v8.4h-5.7
		c-0.3-1-0.8-1.9-1.5-2.5c-0.7-0.6-1.5-0.9-2.4-0.9c-2.5,0-3.7,2.1-3.7,6.4c0,4.3,1.3,6.4,3.9,6.4C79.6,22.8,81,21.1,81.6,17.8z"/>
	<path class="st0" d="M102.9,27.9H90.5v-5.5h1.9v-12h-1.9V4.9h12.5c1.1,0,2.2,0,3.1,0.1s1.8,0.1,2.5,0.2c0.7,0.1,1.3,0.2,1.9,0.3
		c1.6,0.3,2.9,1.1,3.9,2.2c1,1.2,1.5,2.5,1.5,4.1c0,1.2-0.3,2.3-0.9,3.2c-0.6,1-1.4,1.7-2.4,2.1l3.2,5.2h1.6v5.5H109l-5-9.4h-2.8
		v3.9h1.7V27.9z M101.2,10v4.4h1c1.3,0,2.2,0,2.6-0.1c0.5-0.1,0.9-0.3,1.3-0.7c0.3-0.3,0.5-0.8,0.5-1.4s-0.2-1.1-0.5-1.4
		c-0.3-0.4-0.8-0.6-1.3-0.7c-0.5-0.1-1.4-0.1-2.8-0.1H101.2z"/>
	<path class="st0" d="M128.2,27.9h-8.9v-5.5h1.8v-12h-1.8V4.9h13.8l3.4,8.9l3.5-8.9h13.8v5.5h-1.8v12h1.8v5.5h-12v-5.5h1.8V9.6
		l-6.9,18.3h-3.4l-6.9-18.1v12.7h1.8V27.9z"/>
</g>
<g>
</g>
<g>
</g>
<g>
</g>
<g>
</g>
<g>
</g>
<g>
</g>
<g>
</g>
<g>
</g>
<g>
</g>
<g>
</g>
<g>
</g>
<g>
</g>
<g>
</g>
<g>
</g>
<g>
</g>
</svg>
