<?xml version="1.0" encoding="utf-8"?>
<!-- Generator: Adobe Illustrator 23.0.3, SVG Export Plug-In . SVG Version: 6.00 Build 0)  -->
<svg version="1.1" xmlns="http://www.w3.org/2000/svg" xmlns:xlink="http://www.w3.org/1999/xlink" x="0px" y="0px"
	 viewBox="0 0 401 50" style="enable-background:new 0 0 401 50;" xml:space="preserve">
<style type="text/css">
	.st0{fill:#F7931E;}
	.st1{fill:#FBB03B;}
	.st2{fill:#FFFFFF;}
</style>
<g id="Ebene_1">
	<g>
		<path class="st0" d="M0,50l401.3,0.1v-50L0,0l0,24.8L0,50z"/>
	</g>
	<g>
		<path class="st1" d="M0,50h401V25L0,24.8C0,25.4,0,50,0,50z"/>
	</g>
</g>
<g id="Ebene_2">
	<circle class="st2" cx="38.2" cy="24.8" r="16.6"/>
	<g>
		
			<image style="overflow:visible;opacity:0.18;" width="26" height="26" xlink:href="E837D3FC.png"  transform="matrix(1 0 0 1 26 13)">
		</image>
		<g>
			<g>
				<path class="st0" d="M33.2,23c0.2,0.2,0.5,0.4,0.7,0.7L33.2,26l0,0c-0.1-0.1-0.2-0.2-0.4-0.2c-0.1,0-0.3,0.1-0.4,0.2L32,26.4
					c-0.1,0.1-0.2,0.2-0.2,0.4c0,0.1,0.1,0.3,0.2,0.4l0.6,0.6l-0.1,0.3c-0.1-0.1-0.2-0.1-0.3-0.1c-0.1,0-0.3,0.1-0.4,0.2l-0.4,0.4
					c-0.1,0.1-0.2,0.2-0.2,0.4c0,0.1,0.1,0.3,0.2,0.4L32,30l-0.7,2.4c0,0.1,0,0.1,0,0.2c0,0.2,0.1,0.3,0.2,0.4l0.8,0.8
					c0.1,0.1,0.2,0.1,0.3,0.1c0.2,0,0.3-0.1,0.4-0.3l2.8-5c0,0,0.1-0.1,0.1-0.1l1.4-1.4c1.4,1.3,2.8,2.5,4,3.5
					c0.1,0.1,0.2,0.2,0.3,0.2l-0.4,3.9c0,0,0,0,0,0c0,0.2,0.1,0.4,0.2,0.5l0.4,0.4c0.1,0.1,0.2,0.1,0.3,0.1h0c0.2,0,0.4-0.1,0.4-0.3
					l1.3-2.7c0,0,0.1-0.1,0.1-0.1l0.2-0.2c0.2,0.1,0.4,0.1,0.5,0.1c0.2,0,0.4-0.1,0.5-0.2l0,0l0,0c0.1-0.1,0.2-0.3,0.2-0.5
					c0-0.2,0-0.3-0.1-0.5l0.2-0.2c0,0,0.1-0.1,0.1-0.1l2.7-1.3c0.2-0.1,0.3-0.3,0.3-0.4c0-0.1-0.1-0.3-0.1-0.3l-0.4-0.4
					c-0.1-0.1-0.3-0.2-0.5-0.2c0,0,0,0-0.1,0l-3.9,0.4c-0.1-0.1-0.2-0.2-0.2-0.3c-0.9-1.2-2.1-2.6-3.5-4l1.4-1.4
					c0,0,0.1-0.1,0.1-0.1l5-2.8c0.2-0.1,0.3-0.3,0.3-0.4c0-0.1-0.1-0.3-0.1-0.3l-0.8-0.8c-0.1-0.1-0.3-0.2-0.4-0.2
					c-0.1,0-0.1,0-0.2,0L42.9,19l-0.6-0.6c-0.1-0.1-0.2-0.2-0.4-0.2c-0.1,0-0.3,0.1-0.4,0.2l-0.4,0.4C41.1,19,41,19.1,41,19.3
					c0,0.1,0,0.2,0.1,0.3l-0.3,0.1L40.2,19c-0.1-0.1-0.2-0.2-0.4-0.2c-0.1,0-0.3,0.1-0.4,0.2L39,19.5c-0.1,0.1-0.2,0.2-0.2,0.4
					c0,0.1,0.1,0.3,0.2,0.4l0,0l-2.4,0.7c-0.2-0.2-0.4-0.5-0.7-0.7c-1.2-1.3-2.1-2.2-3-2.9c-1.1-0.8-2.2-1.3-3-1.3
					c-0.3,0-0.5,0.1-0.6,0.2c0,0-0.1,0-0.1,0.1c-0.1,0-0.1,0.1-0.1,0.1C29.1,16.6,29,16.8,29,17c0,0.8,0.5,1.9,1.3,3
					C31,20.9,31.9,21.8,33.2,23z"/>
			</g>
		</g>
	</g>
</g>
</svg>
