<?xml version="1.0" encoding="utf-8"?>
<!-- Generator: Adobe Illustrator 23.0.3, SVG Export Plug-In . SVG Version: 6.00 Build 0)  -->
<svg version="1.1" id="Ebene_1" xmlns="http://www.w3.org/2000/svg" xmlns:xlink="http://www.w3.org/1999/xlink" x="0px" y="0px"
	 viewBox="0 0 136 136" style="enable-background:new 0 0 136 136;" xml:space="preserve">
<style type="text/css">
	.st0{fill:#FBB03B;}
</style>
<g>
	<polygon class="st0" points="109.5,122.3 99.5,121 95.8,130.4 86.4,126.8 80.7,135.1 72.3,129.5 64.9,136.3 58.1,128.8 49.2,133.7 
		44.3,124.9 34.6,127.6 31.8,117.9 21.7,118.3 21.3,108.2 11.4,106.3 13.3,96.3 4.1,92.2 8.2,82.9 0.2,76.8 6.4,68.8 0,60.9 
		7.9,54.5 3.5,45.4 12.6,41 10.5,31.2 20.3,29 20.5,18.9 30.6,19 33.1,9.2 42.9,11.7 47.6,2.8 56.6,7.5 63.2,-0.2 70.8,6.5 79,0.6 
		84.9,8.8 94.3,4.9 98.1,14.3 108.1,12.7 109.7,22.7 119.8,23.4 119.1,33.5 128.7,36.6 125.6,46.2 134.3,51.4 129.1,60.1 
		136.3,67.2 129.3,74.4 134.7,82.9 126.1,88.4 129.4,97.9 119.9,101.2 120.9,111.3 110.8,112.3 	"/>
</g>
</svg>
