<?xml version="1.0" encoding="utf-8"?>
<!-- Generator: Adobe Illustrator 23.0.3, SVG Export Plug-In . SVG Version: 6.00 Build 0)  -->
<svg version="1.1" id="Capa_1" xmlns="http://www.w3.org/2000/svg" xmlns:xlink="http://www.w3.org/1999/xlink" x="0px" y="0px"
	 viewBox="0 0 612 612" style="enable-background:new 0 0 612 612;" xml:space="preserve">
<style type="text/css">
	.st0{fill:#FFFFFF;}
</style>
<g>
	<path class="st0" d="M128.6,215.3c6.8,6.4,14,13.3,21.5,20.5l-21.8,72.9l-0.1-0.1c-3-3-7.2-4.8-11.6-4.8c-4.3,0-8.6,1.7-11.6,4.8
		l-13.2,13.2c-3.1,3.1-4.8,7.1-4.8,11.5c0,4.3,1.7,8.5,4.8,11.6l19.7,19.7l-3.1,10.4c-2.8-2.2-6.4-3.4-10-3.4
		c-4.3,0-8.5,1.7-11.5,4.8l-13.3,13.2c-3.1,3.1-4.7,7.2-4.7,11.5c0,4.3,1.7,8.5,4.8,11.5l18.1,18.1l-22.2,74.1
		c-0.5,1.6-0.7,3.3-0.7,5.1c0.1,5.3,2,10.1,5.4,13.7l26.2,26.2c2.9,3,6.8,4.6,10.8,4.6c5.7,0,10.8-3.1,13.4-8.1l86.9-155.6
		c0.5-0.9,2.2-3.1,2.9-3.8l44.5-44.5c43.7,41.5,86.1,78.6,123.1,107.5c3.4,2.7,6.8,5.2,10.1,7.7l-11,121c0,0.3-0.1,0.8-0.1,1.5
		c0.1,5.7,2.3,11,5.9,14.9l12.4,12.5c2.9,2.9,6.7,4.5,10.7,4.5h0.1c5.8,0,11.1-3.5,13.5-8.9l40.2-84.7c0.3-0.7,1.7-2.6,2.2-3.2
		l7.1-7.1c6.2,2.2,11.6,3.3,16.2,3.4c6.4,0,11.6-2,15.6-5.9l0.1-0.1l0.3-0.3c3.9-3.9,5.9-9.3,5.9-15.6c-0.1-4.7-1.2-10.1-3.4-16.3
		l7-7c0.6-0.6,2.5-2,3.3-2.3l84.8-40.3c5.3-2.4,8.9-7.8,8.8-13.6c0-3.8-1.7-7.8-4.7-10.7l-12.2-12.1c-4-3.9-9.4-6.1-14.9-6.2
		c-0.8,0-1.5,0.1-2.1,0.1l-120.6,11c-2.5-3.3-5.1-6.7-7.8-10.1c-28.9-36.9-65.9-79.3-107.5-123.1l44.4-44.4c0.8-0.8,3-2.4,3.8-2.9
		l155.9-87.1c5-2.7,8-7.8,8-13.4c0-3.8-1.6-7.8-4.6-10.8l-26.1-26.1c-3.6-3.5-8.4-5.5-13.7-5.5c-1.9,0-3.6,0.3-5.3,0.8l-74.1,22.2
		l-18.1-18.1c-3-3.1-7.1-4.8-11.5-4.8c-4.4,0-8.6,1.7-11.6,4.8l-13.2,13.2c-3.1,3.1-4.8,7.2-4.8,11.6c0,3.5,1.2,7.1,3.4,9.9
		l-10.4,3.1l-19.7-19.7c-3.1-3.1-7.2-4.8-11.5-4.8c-4.3,0-8.5,1.8-11.6,4.8L308.5,105c-3,3-4.8,7.2-4.8,11.6c0,4.1,1.7,8.3,4.7,11.4
		l0.2,0.2l-72.9,21.9c-7.1-7.4-13.8-14.5-20.2-21.2c-37.6-39.7-64.8-68.3-92-88.7C89.9,15.1,55,0,30.1,0C22,0,15.7,1.6,10.8,4.9
		c-0.3,0.2-1.7,1-3.3,2.5c-1.6,1.5-2.5,3-2.8,3.6C1.7,15.7,0,22,0,30.1C0.1,55,15.1,89.9,40.2,123.6
		C60.5,150.7,89.1,177.8,128.6,215.3z"/>
</g>
</svg>
