<svg xmlns="http://www.w3.org/2000/svg" width="160" height="139" fill="none" viewBox="0 0 160 139">
    <path stroke="#202020" stroke-miterlimit="10" stroke-width="3" d="M55.396 108.082l-19.948 19.803 9.067 9.001 19.948-19.802-9.067-9.002z"/>
    <path stroke="#202020" stroke-miterlimit="10" stroke-width="3" d="M38.905 124.458c-1.808-1.795-18.81-8.211-25.222-14.576-3.847-3.819-5.245-9.114-9.066-19.808-1.808-5.066-4.886-16.74-1.808-19.795 3.629-3.602 8.912 10.757 14.554 21.654"/>
    <path stroke="#202020" stroke-miterlimit="10" stroke-width="3" d="M26.43 108.138l-9.066-9c-2-1.986-2-5.206 0-7.205 2-1.986 5.244-1.986 7.258 0l3.629 3.603c10.835 10.756 12.656 1.756 25.35 14.359M103.755 108.08l-9.067 9.001 19.948 19.803 9.067-9.001-19.948-19.803z"/>
    <path stroke="#202020" stroke-miterlimit="10" stroke-width="3" d="M120.241 124.458c1.808-1.795 18.812-8.211 25.223-14.576 3.847-3.819 5.245-9.114 9.066-19.808 1.808-5.079 4.885-16.752 1.808-19.807-3.629-3.603-8.912 10.757-14.554 21.653"/>
    <path stroke="#202020" stroke-miterlimit="10" stroke-width="3" d="M132.731 108.138l9.066-9c2-1.986 2-5.206 0-7.205-2.001-1.986-5.245-1.986-7.258 0l-3.629 3.603c-10.835 10.756-12.656 1.756-25.351 14.359"/>
    <path stroke="#86ED18" stroke-miterlimit="10" stroke-width="3" d="M79.58 51.694L66.9 60.82l4.885-14.703-12.72-8.491h15.695l4.822-15.276 4.808 15.276h15.708l-12.72 8.49 4.886 14.704-12.682-9.127z"/>
    <path stroke="#202020" stroke-miterlimit="10" stroke-width="3" d="M46.241 9.621h66.679v27.993c0 15.276-8.988 38.19-33.352 48.12-24.466-10.095-33.327-32.844-33.327-48.12V9.621z"/>
    <path stroke="#86ED18" stroke-miterlimit="10" stroke-width="3" d="M38.02 1.5h83.119v34.893c0 19.044-11.195 47.61-41.572 59.983-30.493-12.59-41.546-40.94-41.546-59.983V1.5z"/>
</svg>
