<svg xmlns="http://www.w3.org/2000/svg" width="206" height="162" fill="none" viewBox="0 0 206 162">
    <path stroke="#86ED18" stroke-miterlimit="10" stroke-width="3" d="M5.82 95.546l68.03 40.523M97.532 28.936l59 34.748"/>
    <path fill="#fff" d="M94.522 27.012V11.034l-9.934-9.529H41.34v25.507"/>
    <path stroke="#000" stroke-miterlimit="10" stroke-width="3" d="M94.522 27.012V11.034l-9.934-9.529H41.34v25.507M11.44 1.505v12.802"/>
    <path fill="#fff" d="M26.49 97.181h68.032c3.712 0 6.622-2.887 6.622-6.352V33.366c0-3.562-3.01-6.353-6.622-6.353H31.507"/>
    <path stroke="#000" stroke-miterlimit="10" stroke-width="3" d="M26.49 97.181h68.032c3.712 0 6.622-2.887 6.622-6.352V33.366c0-3.562-3.01-6.353-6.622-6.353H31.507"/>
    <path fill="#fff" stroke="#000" stroke-miterlimit="10" stroke-width="3" d="M85.791 36.636H46.76v12.706H85.79V36.636zM50.371 63.011c1.109 0 2.007-.862 2.007-1.925 0-1.063-.898-1.925-2.007-1.925-1.108 0-2.006.862-2.006 1.925 0 1.063.898 1.925 2.006 1.925zM66.325 63.011c1.108 0 2.007-.862 2.007-1.925 0-1.063-.899-1.925-2.007-1.925s-2.007.862-2.007 1.925c0 1.063.899 1.925 2.007 1.925zM82.28 63.011c1.108 0 2.007-.862 2.007-1.925 0-1.063-.899-1.925-2.007-1.925-1.109 0-2.007.862-2.007 1.925 0 1.063.898 1.925 2.007 1.925zM50.371 75.14c1.109 0 2.007-.862 2.007-1.926 0-1.063-.898-1.925-2.007-1.925-1.108 0-2.006.862-2.006 1.925 0 1.064.898 1.925 2.006 1.925zM66.325 75.14c1.108 0 2.007-.862 2.007-1.926 0-1.063-.899-1.925-2.007-1.925s-2.007.862-2.007 1.925c0 1.064.899 1.925 2.007 1.925zM79.57 74.85c.942 0 1.706-.733 1.706-1.637s-.764-1.637-1.706-1.637-1.706.733-1.706 1.637.764 1.636 1.706 1.636zM50.371 87.94c1.109 0 2.007-.862 2.007-1.925 0-1.064-.898-1.925-2.007-1.925-1.108 0-2.006.861-2.006 1.925 0 1.063.898 1.925 2.006 1.925zM66.325 87.94c1.108 0 2.007-.862 2.007-1.925 0-1.064-.899-1.925-2.007-1.925s-2.007.861-2.007 1.925c0 1.063.899 1.925 2.007 1.925zM79.57 87.651c.942 0 1.706-.732 1.706-1.636 0-.904-.764-1.636-1.706-1.636s-1.706.732-1.706 1.636c0 .904.764 1.636 1.706 1.636zM31.407 90.828c0 3.561-3.01 6.352-6.623 6.352H8.128c-3.713 0-6.623-2.887-6.623-6.352v-70.17c0-3.561 3.01-6.353 6.623-6.353h16.656c3.713 0 6.623 2.888 6.623 6.353v70.17z"/>
    <path fill="#fff" stroke="#000" stroke-miterlimit="10" stroke-width="3" d="M204.495 62.338H73.851v74.404h130.644V62.338z"/>
    <path stroke="#000" stroke-miterlimit="10" stroke-width="3" d="M73.85 71.191h130.645"/>
    <path fill="#000" d="M78.767 68.593c1.053 0 1.907-.82 1.907-1.83 0-1.01-.854-1.828-1.907-1.828-1.052 0-1.906.819-1.906 1.829s.853 1.829 1.906 1.829zM85.892 68.593c1.053 0 1.907-.82 1.907-1.83 0-1.01-.854-1.828-1.907-1.828s-1.906.819-1.906 1.829.853 1.829 1.906 1.829zM92.916 68.593c1.053 0 1.907-.82 1.907-1.83 0-1.01-.854-1.828-1.907-1.828s-1.906.819-1.906 1.829.853 1.829 1.906 1.829z"/>
    <path fill="#fff" stroke="#000" stroke-width="3" d="M105.358 93.813c0 2.3-1.962 4.27-4.515 4.27s-4.516-1.97-4.516-4.27 1.963-4.27 4.516-4.27 4.515 1.97 4.515 4.27zM100.843 104.076c7.456 0 13.345 5.737 13.345 12.74v5.425h-26.69v-5.425c0-7.003 5.889-12.74 13.345-12.74z"/>
    <path stroke="#000" stroke-miterlimit="10" stroke-width="3" d="M125.928 89.77h56.492M125.928 95.93h56.492M125.928 102.185h28.196"/>
    <path fill="#fff" d="M164.058 115.181c.1 1.733-1.104 40.908-1.104 40.908l5.017-2.021 5.92-5.872 1.204.289 6.924 11.936 3.01-.385 1.906-1.54v-3.754l-1.204-1.252-3.01-5.871s-.602-2.984-.401-2.984c.2 0 10.937.385 10.937.385l-.602-2.214-28.597-28.202"/>
    <path fill="#000" d="M165.061 118.453h2.609v-2.502h-2.709v-2.503h-2.609v43.218h5.318v-2.502h-2.609v-35.711zM194.26 146.464v-5.102h-2.609v2.503h-10.636v5.101h2.609v-2.598c3.612.096 7.124.096 10.636.096zM181.015 161.671h5.318v-2.502h-5.318v2.502zM188.943 159.169v-5.101h-2.609v5.101h2.609zM178.306 154.068v5.101h2.609v-5.101h-2.609zM186.334 154.068v-5.102h-2.609v5.102h2.609zM175.697 148.966v5.102h2.609v-5.102h-2.609zM188.943 138.763v-2.503h-2.609v2.503h2.609zM191.551 141.361v-2.502h-2.609v2.502h2.609zM186.233 136.26v-2.503h-2.609v2.503h2.609zM172.988 146.464v2.502h2.609v-2.502h-2.609zM170.379 151.565h2.609v-2.503h-2.609v2.503zM183.624 133.661v-2.502h-2.609v2.502h2.609zM180.915 131.159v-2.503h-2.609v2.503h2.609zM178.306 128.656v-2.502h-2.609v2.502h2.609z"/>
    <path fill="#000" d="M167.77 154.067h2.609v-2.503h-2.609c-.1.867-.1 1.733 0 2.503zM175.697 126.057v-2.502h-2.609v2.502h2.609zM172.988 123.555v-2.503h-2.609v2.503h2.609zM170.379 120.956v-2.502h-2.608v2.502h2.608z"/>
    <path stroke="#000" stroke-miterlimit="10" stroke-width="3" d="M51.375 14.306h33.213"/>
</svg>
