<svg xmlns="http://www.w3.org/2000/svg" width="160" height="163" fill="none" viewBox="0 0 160 163">
    <path stroke="#86ED18" stroke-miterlimit="10" stroke-width="3" d="M83.732 156.608c32.713 0 59.232-26.449 59.232-59.076 0-32.626-26.519-59.076-59.232-59.076S24.5 64.906 24.5 97.532c0 32.627 26.52 59.076 59.232 59.076z"/>
    <path stroke="#000" stroke-miterlimit="10" stroke-width="3" d="M33.577 161.495c-17.71 0-32.072-14.325-32.072-31.988 0-17.662 14.363-31.987 32.072-31.987 17.71 0 32.072 14.325 32.072 31.987 0 2.954-.397 5.812-1.156 8.537M33.578 161.495c16.565 0 24.378-9.882 17.853-16.39"/>
    <path fill="#fff" stroke="#000" stroke-miterlimit="10" stroke-width="3" d="M51.9 138.069c.843.576 2.216 1.357 1.95 3.146-.192 1.333-2.9 6.424-8.667 6.424-5.767 0-12.834-4.527-19.034-10.723-6.2-6.183-10.75-13.244-10.75-18.983 0-5.752 5.104-8.453 6.44-8.645 1.806-.265 2.577 1.104 3.154 1.945.578.84 3.853 5.883 4.37 6.652.506.768 1.048 2.677-.818 4.178s-3.9 2.294 3.154 9.318c7.043 7.024 7.837 4.995 9.342 3.146 1.505-1.861 3.42-1.321 4.19-.817.77.505 5.827 3.783 6.67 4.359z"/>
    <path fill="#fff" d="M144.336 101.146l10.089 2.017-.939 10.062"/>
    <path stroke="#000" stroke-miterlimit="10" stroke-width="3" d="M144.336 101.146l10.089 2.017-.939 10.062"/>
    <path fill="#fff" d="M150.392 161.579V123.3h8.078v38.279"/>
    <path stroke="#000" stroke-miterlimit="10" stroke-width="3" d="M150.392 161.579V123.3h8.078v38.279"/>
    <path fill="#fff" d="M134.235 161.579v-28.193h8.079v28.193"/>
    <path stroke="#000" stroke-miterlimit="10" stroke-width="3" d="M134.235 161.579v-28.193h8.079v28.193"/>
    <path fill="#fff" d="M118.079 161.579V143.46h8.078v18.119"/>
    <path stroke="#000" stroke-miterlimit="10" stroke-width="3" d="M118.079 161.579V143.46h8.078v18.119"/>
    <path fill="#fff" d="M101.911 161.578v-8.045h8.078v8.045"/>
    <path stroke="#000" stroke-miterlimit="10" stroke-width="3" d="M101.911 161.578v-8.045h8.078v8.045M154.425 103.163l-48.469 38.267M111.098 58.016c4.634 0 8.391-3.747 8.391-8.369s-3.757-8.369-8.391-8.369c-4.635 0-8.392 3.747-8.392 8.37 0 4.621 3.757 8.368 8.392 8.368zM54.43 56.251a29.364 29.364 0 0 1 .048-3.986M59.161 61.69a.553.553 0 1 0 .002-1.106.553.553 0 0 0-.002 1.106z"/>
    <path fill="#fff" stroke="#000" stroke-miterlimit="10" stroke-width="3" d="M52.456 58.016c4.634 0 8.39-3.747 8.39-8.369s-3.756-8.369-8.39-8.369c-4.635 0-8.392 3.747-8.392 8.37 0 4.621 3.757 8.368 8.392 8.368z"/>
    <path fill="#fff" stroke="#000" stroke-miterlimit="10" stroke-width="3" d="M81.662 79.533c16.25 0 29.423-13.139 29.423-29.346S97.912 20.841 81.662 20.841 52.239 33.98 52.239 50.187s13.173 29.346 29.423 29.346z"/>
    <path stroke="#000" stroke-miterlimit="10" stroke-width="3" d="M91.221 26.185a6.318 6.318 0 0 0 7.825 2.702c2.757-1.105 4.407-4.13 3.817-7.037a6.258 6.258 0 0 0-4.539-4.839c-.205-.048-.193-.336.012-.384a6.244 6.244 0 0 0 2.576-1.333c1.638-1.393 2.48-3.578 2.143-5.703-.614-3.89-4.502-6.184-8.126-5.043a6.295 6.295 0 0 0-4.226 4.55c-.048.193-.325.193-.36-.011a9.58 9.58 0 0 0-1.734-3.699c-2.24-2.941-6.044-4.43-9.68-3.698a9.752 9.752 0 0 0-7.813 10.627c-7.296 3.554-10.63 10.386-9.703 16.738"/>
    <path fill="#000" d="M72.946 49.287c1.21 0 2.191-.979 2.191-2.186a2.188 2.188 0 0 0-2.191-2.185c-1.21 0-2.191.979-2.191 2.185 0 1.207.98 2.186 2.191 2.186zM93.412 49.287c1.21 0 2.191-.979 2.191-2.186a2.188 2.188 0 0 0-2.19-2.185c-1.21 0-2.192.979-2.192 2.185 0 1.207.981 2.186 2.191 2.186z"/>
    <path stroke="#000" stroke-miterlimit="10" stroke-width="3" d="M84.78 59.505c0 1.2-.975 2.185-2.191 2.185a2.18 2.18 0 0 1-2.191-2.185"/>
    <path fill="#000" d="M91.522 87.146c0-2.882-2.348-5.223-5.237-5.223h-5.237c-2.89 0-5.237 2.341-5.237 5.223 0 2.882 2.348 5.223 5.237 5.223h5.237c2.89 0 5.237-2.341 5.237-5.223z"/>
    <path stroke="#000" stroke-miterlimit="10" stroke-width="3" d="M81.084 12.388c20.695 0 37.477 16.738 37.477 37.379 0 20.64-16.782 37.378-37.477 37.378M44.027 49.767c0-20.64 16.361-37.379 37.068-37.379"/>
    <path fill="#000" d="M110.845 61.306h10.811a4.618 4.618 0 0 0 4.623-4.61V42.838a4.618 4.618 0 0 0-4.623-4.611h-10.811v23.078z"/>
</svg>
