<svg xmlns="http://www.w3.org/2000/svg" width="124" height="117" fill="none" viewBox="0 0 124 117">
    <path fill="#fff" stroke="#000" stroke-miterlimit="10" stroke-width="3" d="M14.932 81.195c7.414 0 13.424-5.942 13.424-13.272s-6.01-13.271-13.424-13.271S1.508 60.594 1.508 67.923c0 7.33 6.01 13.272 13.424 13.272z"/>
    <path stroke="#000" stroke-miterlimit="10" stroke-width="3" d="M9.954 64.494a43.398 43.398 0 0 0 0 6.263"/>
    <path fill="#fff" stroke="#000" stroke-miterlimit="10" stroke-width="3" d="M108.9 81.195c7.413 0 13.424-5.942 13.424-13.272s-6.011-13.271-13.424-13.271c-7.414 0-13.424 5.942-13.424 13.271 0 7.33 6.01 13.272 13.424 13.272z"/>
    <path fill="#fff" stroke="#000" stroke-miterlimit="10" stroke-width="3" d="M62.142 115.492c26.074 0 47.21-20.897 47.21-46.673 0-25.777-21.136-46.674-47.21-46.674-26.073 0-47.21 20.897-47.21 46.674 0 25.776 21.137 46.673 47.21 46.673z"/>
    <path stroke="#000" stroke-miterlimit="10" stroke-width="3" d="M113.878 71.502a43.349 43.349 0 0 0 0-6.262"/>
    <path fill="#000" stroke="#000" stroke-miterlimit="10" stroke-width=".75" d="M87.029 70.011a.9.9 0 0 0 .905-.894.9.9 0 0 0-.905-.895.9.9 0 0 0-.905.895.9.9 0 0 0 .905.894zM82.806 74.186a.9.9 0 0 0 .905-.894.9.9 0 0 0-.905-.895.9.9 0 0 0-.905.895.9.9 0 0 0 .905.894zM95.325 70.011a.9.9 0 0 0 .905-.894.9.9 0 0 0-.905-.895.9.9 0 0 0-.905.895.9.9 0 0 0 .905.894zM87.029 78.511a.9.9 0 0 0 .905-.895.9.9 0 0 0-.905-.894.9.9 0 0 0-.905.894.9.9 0 0 0 .905.895zM95.325 78.511a.9.9 0 0 0 .905-.895.9.9 0 0 0-.905-.894.9.9 0 0 0-.905.894.9.9 0 0 0 .905.895zM91.252 74.186a.9.9 0 0 0 .905-.894.9.9 0 0 0-.905-.895.9.9 0 0 0-.905.895.9.9 0 0 0 .905.894zM99.85 74.186a.9.9 0 0 0 .905-.894.9.9 0 0 0-.905-.895.9.9 0 0 0-.905.895.9.9 0 0 0 .905.894zM28.054 70.011a.9.9 0 0 0 .905-.894.9.9 0 0 0-.905-.895.9.9 0 0 0-.905.895.9.9 0 0 0 .905.894zM23.981 74.186a.9.9 0 0 0 .905-.894.9.9 0 0 0-.905-.895.9.9 0 0 0-.905.895.9.9 0 0 0 .905.894zM36.35 70.011a.9.9 0 0 0 .905-.894.9.9 0 0 0-.905-.895.9.9 0 0 0-.905.895.9.9 0 0 0 .905.894zM28.054 78.511a.9.9 0 0 0 .905-.895.9.9 0 0 0-.905-.894.9.9 0 0 0-.905.894.9.9 0 0 0 .905.895zM36.35 78.511a.9.9 0 0 0 .905-.895.9.9 0 0 0-.905-.894.9.9 0 0 0-.905.894.9.9 0 0 0 .905.895zM32.277 74.186a.9.9 0 0 0 .905-.894.9.9 0 0 0-.905-.895.9.9 0 0 0-.905.895.9.9 0 0 0 .905.894zM40.875 74.186a.9.9 0 0 0 .905-.894.9.9 0 0 0-.905-.895.9.9 0 0 0-.905.895.9.9 0 0 0 .905.894z"/>
    <path stroke="#000" stroke-miterlimit="10" stroke-width="3" d="M78.885 59.423c1.916 0 3.469-1.535 3.469-3.43 0-1.893-1.553-3.429-3.47-3.429-1.915 0-3.468 1.536-3.468 3.43 0 1.894 1.553 3.43 3.469 3.43zM78.885 52.564c-3.922 0-7.24 2.834-8.145 6.562M49.624 59.423c1.916 0 3.47-1.535 3.47-3.43 0-1.893-1.554-3.429-3.47-3.429-1.916 0-3.47 1.536-3.47 3.43 0 1.894 1.554 3.43 3.47 3.43zM49.624 52.564c-3.922 0-7.24 2.834-8.145 6.562"/>
    <path stroke="#86ED18" stroke-miterlimit="10" stroke-width="3" d="M88.085 45.705c-.15 4.772 3.319 9.245 8.447 10.14 4.676.746 9.502-1.938 11.161-6.412 1.358-3.728.453-7.754-2.111-10.289-.302-.298 0-.596.301-.447 1.358.447 2.866.596 4.676.298 3.469-.596 6.335-2.833 7.693-5.964 2.413-5.816-.905-12.079-6.788-13.57-3.62-.895-7.24.298-9.653 2.684-.302.298-.603 0-.453-.298.604-1.939.905-4.026.755-6.412-.604-5.816-4.525-11.035-10.106-12.973-7.843-2.833-16.29.895-19.608 7.903-12.972-1.193-23.228 5.22-27.3 14.613"/>
    <path stroke="#000" stroke-width="2.5" d="M39.568 27.652c2.01-1.173 9.25-4.122 12.066-4.524"/>
    <path fill="#000" d="M50.831 79.107v-6.114h24.887v6.114M75.718 79.107c0 6.86-5.58 12.227-12.368 12.227s-12.368-5.517-12.368-12.227"/>
    <path fill="#fff" d="M55.356 84.475c3.748 0 6.787-3.004 6.787-6.71s-3.038-6.71-6.787-6.71-6.788 3.004-6.788 6.71 3.04 6.71 6.788 6.71z"/>
    <path stroke="#000" stroke-linejoin="round" stroke-miterlimit="10" stroke-width="3" d="M75.718 79.108c0 6.86-5.58 12.227-12.368 12.227s-12.368-5.517-12.368-12.227v-6.263h24.887v6.263h-.15z"/>
</svg>
