<svg xmlns="http://www.w3.org/2000/svg" width="258" height="449" fill="none" viewBox="0 0 258 449">
    <path stroke="#000" stroke-width="3" d="M134.399 51.643v29.485M149.518 81.127h-30.239M155.585 89.954h-42.373M107.144 1.5v23.57c0 14.648 12.231 26.573 27.254 26.573 15.023 0 27.254-11.925 27.254-26.574V1.5"/>
    <path stroke="#000" stroke-width="3" d="M107.914 19.905C89.039 19.905 89.039 1.5 89.039 1.5h90.717s0 18.405-18.875 18.405"/>
    <path stroke="#86ED18" stroke-width="3" d="M111.479 203.525v-9.578h17.045v-32.771h-17.045v-9.578h17.045v-9.202h11.557v51.551h15.697v9.578h-44.299z"/>
    <path stroke="#000" stroke-width="3" d="M195.744 282.026v-9.672l25.328-23.851c1.926-1.69 3.37-3.474 4.429-5.164 1.06-1.784 1.638-3.662 1.638-5.728 0-2.629-.867-4.789-2.601-6.197-1.733-1.409-3.948-2.254-6.644-2.254-3.178 0-5.682.845-7.416 2.535-1.733 1.69-2.696 4.038-2.696 7.231h-11.846c0-2.911.578-5.541 1.638-7.982 1.059-2.441 2.696-4.413 4.718-6.103 2.023-1.691 4.334-3.005 7.031-3.944 2.696-.939 5.681-1.409 8.859-1.409s5.971.47 8.571 1.315c2.504.845 4.719 2.066 6.453 3.662 1.733 1.596 3.081 3.474 3.948 5.728.867 2.253 1.348 4.695 1.348 7.418 0 1.784-.289 3.474-.77 5.071a22.436 22.436 0 0 1-2.022 4.695 25.642 25.642 0 0 1-2.89 4.037c-1.059 1.221-2.214 2.442-3.37 3.475l-18.972 17.277v.188h29.084v9.578h-43.818v.094zM22.206 307.848h11.749c.096 3.38 1.252 5.822 3.37 7.324 2.119 1.502 4.72 2.254 7.8 2.254 3.179 0 5.683-.752 7.705-2.254 1.926-1.502 2.89-3.286 2.89-5.446v-5.446c0-3.569-1.927-5.353-5.875-5.353H36.844v-9.202H49.17c2.022 0 3.467-.469 4.237-1.408s1.156-2.254 1.156-3.756v-4.883c0-2.348-.867-4.038-2.6-5.165-1.734-1.127-3.949-1.69-6.55-1.69-2.888 0-5.2.657-7.03 1.878-1.83 1.221-2.792 3.193-2.985 6.01H23.65c0-2.723.482-5.165 1.541-7.325 1.06-2.159 2.504-4.037 4.43-5.446 1.926-1.502 4.237-2.629 6.934-3.474 2.696-.845 5.682-1.221 8.86-1.221 3.178 0 6.067.376 8.763 1.221 2.6.751 4.912 1.878 6.742 3.38 1.83 1.409 3.274 3.193 4.333 5.259 1.06 2.066 1.541 4.319 1.541 6.855 0 3.568-.77 6.573-2.215 8.92-1.54 2.348-3.756 4.226-6.837 5.54 3.37 1.315 5.874 3.193 7.608 5.446 1.733 2.254 2.503 5.353 2.503 9.203 0 2.817-.577 5.352-1.637 7.606-1.06 2.253-2.696 4.131-4.719 5.727-2.022 1.597-4.43 2.724-7.222 3.569-2.793.845-5.875 1.22-9.15 1.22-3.273 0-6.355-.375-9.052-1.22a21.139 21.139 0 0 1-7.319-3.569c-2.118-1.596-3.756-3.568-4.911-6.009-1.06-2.536-1.637-5.353-1.637-8.545z"/>
    <path stroke="#000" stroke-width="3" d="M257.57 180.005h-77.717v-78.876H88.366v115.873H1.5V449"/>
</svg>
