<svg xmlns="http://www.w3.org/2000/svg" width="161" height="161" fill="none" viewBox="0 0 161 161">
    <path fill="#000" d="M104.204 155.853c-2.75-6.525-12.087-48.359-12.215-48.935-2.174-12.538-14.133-20.917-26.667-18.742-12.534 2.174-20.911 14.136-18.737 26.674.32 1.919 20.272 15.8 36.58 26.866 2.877 1.983 10.295 16.056 13.365 16.056 2.813.063 7.674-1.919 7.674-1.919z"/>
    <path stroke="#86ED18" stroke-linejoin="round" stroke-miterlimit="10" stroke-width="3" d="M114.691 93.805h-3.645v36.141h28.969V93.805h-3.645M118.273 102.824h14.516M118.273 111.907h14.516M118.273 120.927h14.516"/>
    <path stroke="#86ED18" stroke-linejoin="round" stroke-miterlimit="10" stroke-width="3" d="M135.603 88.368h9.784c1.023 0 1.79.831 1.79 1.79v45.225a1.787 1.787 0 0 1-1.79 1.791H105.61a1.787 1.787 0 0 1-1.79-1.791V90.159c0-1.024.831-1.791 1.79-1.791h9.849"/>
    <path stroke="#86ED18" stroke-linejoin="round" stroke-miterlimit="10" stroke-width="3" d="M131.829 86.576h-1.918c-.448-2.046-2.238-3.646-4.413-3.646-2.174 0-4.028 1.536-4.412 3.646h-1.919c-2.685 0-4.54 1.792-4.54 4.542v2.687h21.679v-2.687c.064-2.75-1.855-4.541-4.477-4.541z"/>
    <path fill="#fff" d="M32.58 143.251l-2.11-25.331c-3.133-16.951 8.058-33.263 25.004-36.461 10.616-1.983 18.354.384 25.644 7.228 15.604 14.585 18.417 42.474 15.476 69.02"/>
    <path stroke="#000" stroke-miterlimit="10" stroke-width="3" d="M32.58 143.251l-2.11-25.331c-3.133-16.951 8.058-33.263 25.004-36.461 10.616-1.983 18.354.384 25.644 7.228 15.604 14.585 18.417 42.474 15.476 69.02"/>
    <path fill="#fff" stroke="#000" stroke-miterlimit="10" stroke-width="3" d="M46.841 59.07c0-5.18-4.22-9.402-9.4-9.402-5.18 0-9.4 4.221-9.4 9.403 0 5.181 4.22 9.403 9.4 9.403 5.243 0 9.4-4.222 9.4-9.403z"/>
    <path stroke="#000" stroke-miterlimit="10" stroke-width="3" d="M41.79 62.013c-.129 1.471-.129 2.942-.065 4.477"/>
    <path fill="#fff" stroke="#000" stroke-miterlimit="10" stroke-width="3" d="M102.861 65.34c3.517-17.847-8.122-35.182-25.964-38.7-17.905-3.519-35.236 8.06-38.753 25.906-3.517 17.847 8.122 35.182 25.964 38.7 17.841 3.518 35.172-8.06 38.753-25.907z"/>
    <path fill="#000" d="M68.264 53.634c.256-1.343-.575-2.623-1.918-2.879-1.343-.255-2.622.576-2.878 1.92-.256 1.343.575 2.622 1.918 2.878 1.343.256 2.622-.576 2.878-1.92zM88.025 53.634c.255-1.343-.576-2.623-1.919-2.879-1.343-.255-2.622.576-2.878 1.92-.255 1.343.576 2.622 1.919 2.878 1.343.256 2.622-.576 2.878-1.92zM17.105 139.157l2.302-31.919C20.43 92.589 33.156 81.523 47.8 82.61c14.645 1.024 25.708 13.753 24.62 28.402l-4.092 47.463s-52.31-4.67-51.223-19.318z"/>
    <path fill="#fff" d="M69.543 63.869c0 3.262 2.686 5.885 5.947 5.885 3.262 0 5.948-2.56 5.948-5.885"/>
    <path stroke="#000" stroke-miterlimit="10" stroke-width="3" d="M69.543 63.869c0 3.262 2.686 5.885 5.947 5.885 3.262 0 5.948-2.56 5.948-5.885"/>
    <path stroke="#000" stroke-linejoin="round" stroke-miterlimit="10" stroke-width="3" d="M8.791 41.736c4.988-2.111 10.424-3.327 16.18-3.327 3.836 0 7.737.256 11.254 1.28 5.82-10.49 16.627-17.4 28.65-17.847h1.279c7.162 0 13.877 1.983 19.504 5.501l-.256 1.024a10.251 10.251 0 0 1-12.406 7.676c-1.087-.256-2.11-.704-3.005-1.216l-.256.96a10.251 10.251 0 0 1-12.406 7.676c-1.087-.256-2.11-.704-3.006-1.216v-.064l-.256.96a10.251 10.251 0 0 1-12.406 7.676c-1.087-.256-2.11-.704-3.006-1.215"/>
    <path fill="#fff" d="M.542.285v159.917h159.873V.285H.542zm79.936 159.15c-43.677 0-79.169-35.438-79.169-79.191S36.801 1.117 80.48 1.117c43.677 0 79.169 35.438 79.169 79.127 0 43.689-35.492 79.191-79.17 79.191z"/>
    <path stroke="#86ED18" stroke-miterlimit="10" stroke-width="3" d="M104.204 155.853a78.65 78.65 0 0 1-23.726 3.646c-43.613 0-78.977-35.374-78.977-78.999 0-43.625 35.364-78.999 78.977-78.999 43.614 0 78.978 35.31 78.978 78.935 0 11.962-2.686 23.348-7.482 33.519M151.974 114.018c-4.349 9.339-10.488 17.655-17.97 24.563"/>
    <path fill="#fff" stroke="#86ED18" stroke-linejoin="round" stroke-miterlimit="10" stroke-width="3" d="M147.881 112.867l-15.987 23.028-2.175 11.386 9.976-5.949 15.988-23.092-7.802-5.373z"/>
    <path stroke="#86ED18" stroke-linejoin="round" stroke-miterlimit="10" stroke-width="3" d="M131.893 135.895l7.802 5.437"/>
</svg>
