<svg xmlns="http://www.w3.org/2000/svg" width="73" height="70" fill="none" viewBox="0 0 73 70">
    <path stroke="#86ED18" stroke-miterlimit="10" stroke-width="3" d="M36.5 61.387c-10.186 0-18.448-8.222-18.448-18.36 0-10.137 8.262-18.36 18.448-18.36S54.95 32.89 54.95 43.028c0 1.701-.23 3.335-.66 4.902M36.5 61.387c9.54 0 14.035-5.678 10.267-9.414"/>
    <path stroke="#86ED18" stroke-miterlimit="10" stroke-width="3" d="M47.05 47.942c.484.335 1.278.777 1.116 1.808-.107.763-1.668 3.683-4.992 3.683-3.31 0-7.387-2.598-10.953-6.16-3.566-3.55-6.19-7.607-6.19-10.901 0-3.294 2.933-4.848 3.7-4.968 1.036-.148 1.48.629 1.817 1.111.336.482 2.22 3.375 2.516 3.817.296.441.606 1.54-.47 2.397-1.077.857-2.248 1.312 1.816 5.356 4.05 4.031 4.508 2.866 5.382 1.808.862-1.071 1.965-.763 2.41-.468.457.308 3.363 2.182 3.848 2.517z"/>
    <path stroke="#202020" stroke-linecap="round" stroke-linejoin="round" stroke-miterlimit="10" stroke-width="3" d="M71.486 1.514H1.514v16.07h69.972V1.514z"/>
    <path stroke="#202020" stroke-linecap="round" stroke-linejoin="round" stroke-miterlimit="10" stroke-width="3" d="M1.514 17.583v50.888H71.486V17.583M9.588 10.888c.743 0 1.345-.6 1.345-1.34 0-.739-.602-1.338-1.345-1.338-.744 0-1.346.6-1.346 1.339 0 .74.602 1.339 1.346 1.339zM19.007 10.888c.743 0 1.346-.6 1.346-1.34 0-.739-.603-1.338-1.346-1.338-.743 0-1.346.6-1.346 1.339 0 .74.603 1.339 1.346 1.339zM28.426 10.888c.744 0 1.346-.6 1.346-1.34 0-.739-.602-1.338-1.346-1.338-.743 0-1.345.6-1.345 1.339 0 .74.602 1.339 1.345 1.339z"/>
</svg>
