<svg xmlns="http://www.w3.org/2000/svg" width="81" height="65" fill="none" viewBox="0 0 81 65">
    <path stroke="#000" stroke-miterlimit="10" stroke-width="3" d="M40.453 11.84v51.65M27.471 63.49h25.963M35.26 6.675H14.477L1.51 32.5M40.453 11.84c2.867 0 5.192-2.313 5.192-5.166 0-2.852-2.325-5.165-5.192-5.165-2.868 0-5.193 2.313-5.193 5.165 0 2.853 2.325 5.165 5.193 5.165zM14.477 6.675L27.472 32.5M45.645 6.675h20.77L79.397 32.5M66.415 6.675L53.435 32.5"/>
    <path stroke="#86ED18" stroke-miterlimit="10" stroke-width="3" d="M14.49 45.413c7.166 0 12.981-5.785 12.981-12.913H1.51c0 7.128 5.816 12.913 12.981 12.913zM66.415 45.413c-7.165 0-12.98-5.785-12.98-12.913h25.962c0 7.128-5.816 12.913-12.982 12.913z"/>
</svg>
