<svg xmlns="http://www.w3.org/2000/svg" width="81" height="78" fill="none" viewBox="0 0 81 78">
    <path stroke="#000" stroke-linecap="round" stroke-miterlimit="10" stroke-width="3" d="M40.5 76.455c21.53 0 38.982-16.775 38.982-37.468 0-20.694-17.453-37.47-38.982-37.47-21.53 0-38.982 16.776-38.982 37.47 0 20.693 17.453 37.468 38.982 37.468z"/>
    <path stroke="#86ED18" stroke-linecap="round" stroke-miterlimit="10" stroke-width="3" d="M40.5 42.733c2.153 0 3.898-1.677 3.898-3.747 0-2.069-1.745-3.746-3.898-3.746s-3.898 1.677-3.898 3.746c0 2.07 1.745 3.747 3.898 3.747zM44.398 41.796l15.632 9.692M40.526 11.51L40.5 35.24"/>
</svg>
