<svg xmlns="http://www.w3.org/2000/svg" width="77" height="63" fill="none" viewBox="0 0 77 63">
    <path stroke="#202020" stroke-miterlimit="10" stroke-width="3" d="M38.5 11.5a5 5 0 1 0 0-10 5 5 0 0 0 0 10zM38.5 11.5c-3.68 0-8 3.2-8 8.571V21.5h16v-1.429c0-5.371-4.32-8.571-8-8.571zM9.5 51.5a5 5 0 1 0 0-10 5 5 0 0 0 0 10zM9.5 51.5c-3.68 0-8 3.2-8 8.571V61.5h16v-1.429c0-5.371-4.32-8.571-8-8.571zM67.5 51.5a5 5 0 1 0 0-10 5 5 0 0 0 0 10zM67.5 51.5c-3.68 0-8 3.2-8 8.571V61.5h16v-1.429c0-5.371-4.32-8.571-8-8.571zM54 25.822l10.323 10.323M23.823 25.5L13.5 35.823M28.178 52.5h20.645"/>
    <path fill="#86ED18" d="M26.701 43.5v-9.523h6.549v1.546h-4.73v2.337h4.087v1.538H28.52v2.564h4.73V43.5h-6.549zM35.219 43.5v-9.523h3.876c1.016 0 1.768.242 2.256.725.487.479.731 1.217.731 2.215 0 .756-.18 1.365-.54 1.825-.36.456-.861.773-1.504.95l2.18 3.808h-2.016L38.2 39.843h-1.162V43.5H35.22zm1.818-5.154h2.297c.57 0 .854-.317.854-.95v-.978c0-.319-.063-.547-.19-.684-.124-.14-.345-.212-.664-.212h-2.297v2.824zM44.092 43.5v-9.523h3.876c1.016 0 1.768.247 2.256.739.487.487.731 1.26.731 2.317 0 1.007-.271 1.768-.813 2.283-.543.51-1.263.766-2.16.766H45.91V43.5h-1.818zm1.818-4.956h2.256c.319 0 .547-.08.684-.24.14-.159.212-.396.212-.71v-1.176c0-.319-.067-.547-.199-.684-.127-.14-.36-.212-.697-.212H45.91v3.022z"/>
</svg>
