<svg xmlns="http://www.w3.org/2000/svg" width="74" height="80" fill="none" viewBox="0 0 74 80">
    <path stroke="#000" stroke-linecap="round" stroke-linejoin="round" stroke-miterlimit="10" stroke-width="3" d="M36.99 9.108v-7.6M24.353 34.432v43.06M49.663 34.432v43.06M14.18 77.485h45.618M19.256 34.432h35.475M29.392 34.432V19.238M44.595 34.432V19.238M26.86 19.238h20.265M29.392 19.237v-2.536a7.6 7.6 0 0 1 7.598-7.6 7.6 7.6 0 0 1 7.605 7.6v2.494"/>
    <path stroke="#86ED18" stroke-linecap="round" stroke-linejoin="round" stroke-miterlimit="10" stroke-width="3" d="M16.712 19.238l-15.204-7.6M16.712 26.839l-15.204 7.6M57.262 26.839l15.203 7.6M57.262 19.238l15.203-7.6"/>
</svg>
