<svg xmlns="http://www.w3.org/2000/svg" width="77" height="78" fill="none" viewBox="0 0 77 78">
    <path stroke="#202020" stroke-linecap="round" stroke-linejoin="round" stroke-miterlimit="10" stroke-width="3" d="M2.042 62.614H74.25M47.45 27.792l27.044 21.717V76.35s-63.393-.183-67.234 0c-3.854.183-5.003-2.26-5.126-4.644-.11-2.383-.575-15.924-.575-20.268C.46 28.878 16.521 14.717 26.295 14.24c0 0 1.64-.06 4.318 1.48M1.56 50.392h72.69"/>
    <path stroke="#86ED18" stroke-linecap="round" stroke-linejoin="round" stroke-miterlimit="10" stroke-width="3" d="M49.783 21.06c0 5.402-4.38 9.777-9.787 9.777-5.407 0-9.786-4.375-9.786-9.777 0-5.402 4.38-9.777 9.786-9.777 5.408 0 9.787 4.387 9.787 9.777zM39.996 11.283c2.092-5.646-1.883-9.777-7.34-9.777"/>
</svg>
