<svg xmlns="http://www.w3.org/2000/svg" width="82" height="88" fill="none" viewBox="0 0 82 88">
    <path stroke="#000" stroke-miterlimit="10" stroke-width="3" d="M34.788 39.223c10.405 0 18.841-8.443 18.841-18.86 0-10.415-8.436-18.859-18.841-18.859-10.406 0-18.842 8.444-18.842 18.86 0 10.416 8.436 18.86 18.842 18.86z"/>
    <path stroke="#86ED18" stroke-miterlimit="10" stroke-width="3" d="M25.084 19.121h12.524M25.197 22.848h8.8M38.962 10.313h-1.354c-5.528 0-10.041 4.517-10.041 10.05 0 5.534 4.513 10.052 10.041 10.052h1.354"/>
    <path stroke="#000" stroke-miterlimit="10" stroke-width="3" d="M63.22 44.983a6.095 6.095 0 0 0 6.092-6.098 6.095 6.095 0 0 0-6.093-6.099 6.095 6.095 0 0 0-6.092 6.099 6.095 6.095 0 0 0 6.092 6.098zM14.705 54.875h-13.2V83.9h13.2V54.875zM14.705 78.816c2.594 0 19.63 7.68 28.883 7.68 5.528 0 10.492-2.823 21.098-7.905 4.964-2.485 15.795-8.696 15.795-13.213 0-5.308-14.329 1.355-26.4 5.307"/>
    <path stroke="#000" stroke-miterlimit="10" stroke-width="3" d="M35.69 75.88h13.2a5.3 5.3 0 0 0 5.303-5.307 5.299 5.299 0 0 0-5.303-5.308h-5.303c-15.682 0-10.492-7.905-28.882-7.905"/>
</svg>
