<svg xmlns="http://www.w3.org/2000/svg" width="97" height="98" fill="none" viewBox="0 0 97 98">
    <path stroke="#202020" stroke-linecap="round" stroke-linejoin="round" stroke-miterlimit="10" stroke-width="3" d="M45.058 65.098H4.155a2.656 2.656 0 0 1-2.647-2.65V4.158a2.656 2.656 0 0 1 2.647-2.65h63.54a2.656 2.656 0 0 1 2.647 2.65v32.59M59.752 33.302h-21.18M59.752 12.106h-21.18"/>
    <path stroke="#202020" stroke-linecap="round" stroke-linejoin="round" stroke-miterlimit="10" stroke-width="3" d="M13.421 13.431a1.324 1.324 0 1 0 0-2.649 1.324 1.324 0 0 0 0 2.649zM13.421 34.628a1.324 1.324 0 1 0 0-2.649 1.324 1.324 0 0 0 0 2.649zM13.421 55.824a1.324 1.324 0 1 0-.001-2.648 1.324 1.324 0 0 0 .001 2.648zM70.341 22.704H1.508M45.058 43.901H1.508"/>
    <path stroke="#202020" stroke-linecap="round" stroke-miterlimit="10" stroke-width="3" d="M45.852 43.769l24.225-5.564h.397l24.224 5.564c.397.132.794.53.794.927v14.838c0 11.658-6.75 29.145-25.15 36.697-18.4-7.684-25.151-25.039-25.151-36.697V44.696c-.133-.397.264-.795.661-.927z"/>
    <path stroke="#86ED18" stroke-linecap="round" stroke-miterlimit="10" stroke-width="3" d="M76.96 53.571c-2.912 0-5.824 1.988-6.75 4.637-.927-2.782-3.84-4.637-6.752-4.637-3.706 0-6.75 3.18-6.75 7.022 0 6.094 5.03 12.188 13.501 18.15 8.604-6.095 13.502-12.189 13.502-18.15.133-3.842-2.912-7.022-6.75-7.022z"/>
</svg>
