<svg xmlns="http://www.w3.org/2000/svg" width="61" height="82" fill="none" viewBox="0 0 61 82">
    <path stroke="#202020" stroke-linecap="round" stroke-linejoin="round" stroke-miterlimit="10" stroke-width="3" d="M59.335 4.144a2.638 2.638 0 0 0-2.629-2.633H4.14A2.638 2.638 0 0 0 1.51 4.144v7.898h57.824V4.144zM1.511 77.856A2.638 2.638 0 0 0 4.14 80.49h52.566a2.638 2.638 0 0 0 2.629-2.633V64.693H1.51v13.163zM59.334 64.692v-52.65M1.511 12.041v52.651"/>
    <path stroke="#86ED18" stroke-linecap="round" stroke-linejoin="round" stroke-miterlimit="10" stroke-width="3" d="M18.595 21.256H10.71v7.897h7.885v-7.897zM34.365 21.256H26.48v7.897h7.885v-7.897zM50.135 21.256H42.25v7.897h7.885v-7.897zM18.595 37.051H10.71v7.898h7.885V37.05zM34.365 37.051H26.48v7.898h7.885V37.05z"/>
    <path stroke="#202020" stroke-linecap="round" stroke-linejoin="round" stroke-miterlimit="10" stroke-width="3" d="M30.423 75.223a2.63 2.63 0 0 0 2.628-2.632 2.63 2.63 0 0 0-2.628-2.633 2.63 2.63 0 0 0-2.628 2.633 2.63 2.63 0 0 0 2.628 2.632z"/>
</svg>
