<svg xmlns="http://www.w3.org/2000/svg" width="83" height="82" fill="none" viewBox="0 0 83 82">
    <path stroke="#202020" stroke-linecap="round" stroke-linejoin="round" stroke-miterlimit="10" stroke-width="3" d="M75.753 20.54A38.7 38.7 0 0 1 81.5 40.893c0 21.758-17.907 39.393-40 39.393s-40-17.635-40-39.393S19.407 1.5 41.5 1.5c5.4 0 10.56 1.05 15.253 2.968"/>
    <path stroke="#86ED18" stroke-linecap="round" stroke-linejoin="round" stroke-miterlimit="10" stroke-width="3" d="M41.5 14.63c0 5.45 8 2.22 8 7.88 0 7.523-6.134 9.572-10.667 6.604-4.534-2.967-10.6-4.53-15.934 2.797-5.333 7.34-1.786 15.77 2.04 15.678 3.827-.105 7.307-3.663 8.96.788 1.36 3.677 2.054 4.491 3.76 5.476 1.707.985 1.774 2.941 1.174 5.423-.6 2.482 2.72 10.505 5.333 10.505s5.027-1.09 5.333-5.253c.307-4.162 3.534-4.385 5.04-5.58 1.507-1.195-1.146-5.62 1.747-8.496 2.893-2.876 8.8-8.22 3.773-9.56-5.026-1.339-4.626-2.324-5.333-4.411-.707-2.088-2.72-4.268 1.307-4.36 4.026-.105 8.253-1.287 11.573-4.753 3.32-3.467 5.12-6.815 8.147-6.815-4.4-7.17-11.054-12.842-19-16.073-8.987 4.281-15.254 4.701-15.254 10.15z"/>
</svg>
