<svg width="70" height="71" viewBox="0 0 70 71" fill="none" xmlns="http://www.w3.org/2000/svg">
<circle cx="35" cy="35.5" r="34" stroke="black" stroke-width="2"/>
<mask id="mask0" mask-type="alpha" maskUnits="userSpaceOnUse" x="1" y="1" width="68" height="69">
<circle cx="35" cy="35.5" r="34" fill="#C4C4C4"/>
</mask>
<g mask="url(#mask0)">
<circle cx="60" cy="11.5" r="7" stroke="black" stroke-width="2"/>
<circle cx="10" cy="11.5" r="7" stroke="black" stroke-width="2"/>
<circle cx="70" cy="35.5" r="7" stroke="black" stroke-width="2"/>
<circle cy="35.5" r="7" stroke="black" stroke-width="2"/>
<circle cx="60" cy="59.5" r="7" stroke="black" stroke-width="2"/>
<circle cx="10" cy="59.5" r="7" stroke="black" stroke-width="2"/>
<circle cx="35" cy="68.5" r="7" stroke="black" stroke-width="2"/>
<circle cx="35" cy="1.5" r="7" stroke="black" stroke-width="2"/>
<path d="M35 61.5V49.5" stroke="black" stroke-width="2"/>
<path d="M15 55.5L25 45.5" stroke="black" stroke-width="2"/>
<path d="M7 35.5L21 35.5" stroke="black" stroke-width="2"/>
<path d="M49 35.5L63 35.5" stroke="black" stroke-width="2"/>
<path d="M45 45.5L55 55.5" stroke="black" stroke-width="2"/>
<path d="M15 15.5L25 25.5" stroke="black" stroke-width="2"/>
<path d="M35 8.5L35 21.5" stroke="black" stroke-width="2"/>
<path d="M54 16.5L45 25.5" stroke="black" stroke-width="2"/>
<path fill-rule="evenodd" clip-rule="evenodd" d="M22.9659 28.5098L20.5142 26.0572C20.0919 25.6347 20.0919 24.9398 20.5142 24.5174L24.0284 21.0019C24.4506 20.5795 25.1453 20.5795 25.5675 21.0019L28.0193 23.4546C28.5505 23.1412 29.109 22.8687 29.681 22.637C30.2531 22.4054 30.8252 22.201 31.4245 22.0511V18.5901C31.4245 17.9905 31.9149 17.5 32.5142 17.5H37.4858C38.0851 17.5 38.5755 17.9905 38.5755 18.5901V22.0511C39.1748 22.2146 39.7605 22.4054 40.319 22.637C40.891 22.8687 41.4495 23.1548 41.9807 23.4546L44.4325 21.0019C44.8547 20.5795 45.5494 20.5795 45.9716 21.0019L49.4858 24.5174C49.9081 24.9398 49.9081 25.6347 49.4858 26.0572L47.0341 28.5098C47.3473 29.0413 47.6198 29.5999 47.8513 30.1722C48.0829 30.7445 48.2872 31.3168 48.4506 31.9164H51.9103C52.5096 31.9164 53 32.4069 53 33.0064V37.9799C53 38.5795 52.5096 39.07 51.9103 39.07H48.4506C48.2872 39.6696 48.0965 40.2555 47.8513 40.8278C47.6198 41.4001 47.3337 41.9587 47.0341 42.4902L49.4858 44.9428C49.9081 45.3653 49.9081 46.0602 49.4858 46.4826L45.9716 49.9981C45.5494 50.4205 44.8547 50.4205 44.4325 49.9981L41.9807 47.5454C41.4495 47.8588 40.891 48.1313 40.319 48.363C39.7469 48.5946 39.1748 48.799 38.5755 48.9489V52.4099C38.5755 53.0095 38.0851 53.5 37.4858 53.5H32.5142C31.9149 53.5 31.4245 53.0095 31.4245 52.4099V48.9489C30.8252 48.7854 30.2395 48.5946 29.6674 48.3494C29.0953 48.1177 28.5369 47.8316 28.0057 47.5318L25.5539 49.9845C25.1317 50.4069 24.437 50.4069 24.0148 49.9845L20.5006 46.469C20.0783 46.0466 20.0783 45.3516 20.5006 44.9292L22.9523 42.4765C22.639 41.9451 22.3666 41.3864 22.1351 40.8142C21.9035 40.2419 21.6992 39.6696 21.5494 39.07H18.0897C17.4904 39.07 17 38.5795 17 37.9799V33.0064C17 32.4069 17.4904 31.9164 18.0897 31.9164H21.5494C21.7128 31.3168 21.9035 30.7309 22.1487 30.1586C22.3803 29.5863 22.6663 29.0276 22.9659 28.4962V28.5098ZM35.0068 29.6544C33.3995 29.6544 31.9421 30.3085 30.8797 31.3577C29.8173 32.4205 29.1771 33.8785 29.1771 35.4864C29.1771 37.0942 29.8309 38.5522 30.8797 39.6151C31.9421 40.6779 33.3995 41.3183 35.0068 41.3183C36.6141 41.3183 38.0715 40.6643 39.1339 39.6151C40.1964 38.5522 40.8365 37.0942 40.8365 35.4864C40.8365 33.8785 40.1827 32.4205 39.1339 31.3577C38.0715 30.2949 36.6141 29.6544 35.0068 29.6544Z" fill="#86EC16"/>
</g>
</svg>
