<svg width="30" height="30" viewBox="0 0 30 30" fill="none" xmlns="http://www.w3.org/2000/svg">
<rect width="30" height="30" fill="white" fill-opacity="0.4"/>
<path fill-rule="evenodd" clip-rule="evenodd" d="M9 1C9 0.447715 8.55228 0 8 0C7.44772 0 7 0.447715 7 1V7C7 7.55228 7.44771 8 8 8C8.55228 8 9 7.55228 9 7V1ZM23 1C23 0.447715 22.5523 0 22 0C21.4477 0 21 0.447715 21 1V7C21 7.55228 21.4477 8 22 8C22.5523 8 23 7.55228 23 7V1ZM28 11V8C28 6.34315 26.6569 5 25 5V3C27.7614 3 30 5.23858 30 8V25C30 27.7614 27.7614 30 25 30H5C2.23858 30 0 27.7614 0 25V8C0 5.23858 2.23858 3 5 3V5C3.34315 5 2 6.34315 2 8V11H28ZM28 13H2V25C2 26.6569 3.34315 28 5 28H25C26.6569 28 28 26.6569 28 25V13ZM20.7071 17.7071C21.0976 17.3166 21.0976 16.6834 20.7071 16.2929C20.3166 15.9024 19.6834 15.9024 19.2929 16.2929L13 22.5858L10.7071 20.2929C10.3166 19.9024 9.68342 19.9024 9.29289 20.2929C8.90237 20.6834 8.90237 21.3166 9.29289 21.7071L12.2929 24.7071C12.6834 25.0976 13.3166 25.0976 13.7071 24.7071L20.7071 17.7071ZM11 3H19V5H11V3Z" fill="black"/>
</svg>
