<svg width="23" height="24" viewBox="0 0 23 24" fill="none" xmlns="http://www.w3.org/2000/svg">
<path d="M19.3585 16.4147H18.1085V17.6647H19.3585V16.4147ZM14.2615 20.1605V18.9105H13.1308L13.0177 20.0356L14.2615 20.1605ZM8.93705 20.1605L10.1808 20.0356L10.0678 18.9105H8.93705V20.1605ZM3.84007 16.4147V17.6647H5.09007V16.4147H3.84007ZM5.87352 5.95314L6.78329 6.81042L6.79031 6.80284L5.87352 5.95314ZM9.61934 3.78591L9.91711 4.99993L10.8693 4.76636V3.78591H9.61934ZM13.5792 3.78591L12.3665 3.48274L12.0634 4.69542L13.276 4.99859L13.5792 3.78591ZM15.3986 4.48156L16.1901 5.44901L17.5969 4.29804L16.0188 3.39626L15.3986 4.48156ZM19.3585 13.6856H20.6085V12.2696L19.2034 12.4452L19.3585 13.6856ZM20.6085 16.4147V15.8796H18.1085V16.4147H20.6085ZM22.4814 18.2876C22.4814 16.5422 21.0539 15.1647 19.3585 15.1647V17.6647C19.6965 17.6647 19.9814 17.946 19.9814 18.2876H22.4814ZM19.3585 21.4105C21.0655 21.4105 22.4814 19.9947 22.4814 18.2876H19.9814C19.9814 18.6139 19.6848 18.9105 19.3585 18.9105V21.4105ZM14.2615 21.4105H19.3585V18.9105H14.2615V21.4105ZM11.5993 23.8186C13.6305 23.8186 15.3065 22.2635 15.5052 20.2854L13.0177 20.0356C12.9458 20.7519 12.3307 21.3186 11.5993 21.3186V23.8186ZM7.69331 20.2854C7.892 22.2635 9.56808 23.8186 11.5993 23.8186V21.3186C10.8678 21.3186 10.2527 20.7519 10.1808 20.0356L7.69331 20.2854ZM3.84007 21.4105H8.93705V18.9105H3.84007V21.4105ZM0.717163 18.2876C0.717163 19.9947 2.133 21.4105 3.84007 21.4105V18.9105C3.5137 18.9105 3.21716 18.614 3.21716 18.2876H0.717163ZM3.84007 15.1647C2.14463 15.1647 0.717163 16.5422 0.717163 18.2876H3.21716C3.21716 17.946 3.50207 17.6647 3.84007 17.6647V15.1647ZM2.59007 15.8796V16.4147H5.09007V15.8796H2.59007ZM2.59007 11.117V15.8796H5.09007V11.117H2.59007ZM4.96378 5.09588C3.43018 6.72338 2.59007 8.87783 2.59007 11.117H5.09007C5.09007 9.50336 5.69479 7.9655 6.78325 6.81039L4.96378 5.09588ZM9.32156 2.5719C7.68806 2.97257 6.15452 3.81108 4.95673 5.10343L6.79031 6.80284C7.62596 5.90121 8.7145 5.29491 9.91711 4.99993L9.32156 2.5719ZM8.36361 3.75004C8.36535 3.76575 8.36659 3.77697 8.36769 3.78745C8.36875 3.79757 8.36937 3.80403 8.36972 3.80822C8.37008 3.81239 8.37002 3.81241 8.36986 3.80936C8.36971 3.80637 8.36934 3.79817 8.36934 3.78591H10.8693C10.8693 3.64964 10.853 3.5163 10.8483 3.47396L8.36361 3.75004ZM8.34258 3.43809C8.34258 3.57436 8.3589 3.7077 8.36361 3.75004L10.8483 3.47396C10.8466 3.45825 10.8453 3.44703 10.8442 3.43655C10.8432 3.42643 10.8426 3.41996 10.8422 3.41578C10.8418 3.41161 10.8419 3.41158 10.8421 3.41464C10.8422 3.41763 10.8426 3.42583 10.8426 3.43809H8.34258ZM11.5993 0.181396C9.81192 0.181396 8.34258 1.65074 8.34258 3.43809H10.8426C10.8426 3.03145 11.1926 2.6814 11.5993 2.6814V0.181396ZM14.856 3.43809C14.856 1.65074 13.3866 0.181396 11.5993 0.181396V2.6814C12.0059 2.6814 12.356 3.03145 12.356 3.43809H14.856ZM14.856 3.4381V3.43809H12.356V3.4381H14.856ZM14.7919 4.08909C14.8626 3.80602 14.856 3.53943 14.856 3.4381H12.356C12.356 3.47334 12.3559 3.4963 12.3557 3.51671C12.3554 3.53612 12.355 3.5453 12.3548 3.54863C12.3545 3.55366 12.3557 3.52598 12.3665 3.48274L14.7919 4.08909ZM16.0188 3.39626C15.325 2.99979 14.592 2.75064 13.8824 2.57323L13.276 4.99859C13.8507 5.14226 14.3485 5.32119 14.7784 5.56687L16.0188 3.39626ZM14.7222 8.5217C14.7222 7.28512 15.2867 6.18818 16.1901 5.44901L14.6071 3.51412C13.156 4.70137 12.2222 6.49406 12.2222 8.5217H14.7222ZM18.6896 12.4891C16.4903 12.4891 14.7222 10.721 14.7222 8.5217H12.2222C12.2222 12.1017 15.1096 14.9891 18.6896 14.9891V12.4891ZM19.2034 12.4452C18.9891 12.472 18.8176 12.4891 18.6896 12.4891V14.9891C18.9896 14.9891 19.2997 14.9527 19.5135 14.9259L19.2034 12.4452ZM20.6085 15.8796V13.6856H18.1085V15.8796H20.6085Z" fill="black"/>
<path d="M19.3585 10.9966C20.7992 10.9966 21.9671 9.82861 21.9671 8.38787C21.9671 6.94713 20.7992 5.77917 19.3585 5.77917C17.9177 5.77917 16.7498 6.94713 16.7498 8.38787C16.7498 9.82861 17.9177 10.9966 19.3585 10.9966Z" fill="black"/>
</svg>
