<svg width="25" height="24" viewBox="0 0 25 24" fill="none" xmlns="http://www.w3.org/2000/svg">
<path d="M6.02771 13.887C6.72887 14.6187 7.61293 15.1674 8.61894 15.5027V9.07039C8.61894 8.91796 8.497 8.79602 8.34457 8.79602H6.33256C6.18014 8.79602 6.05819 8.91796 6.05819 9.07039V13.887H6.02771Z" fill="black"/>
<path d="M9.47253 15.7466C9.89933 15.8381 10.3261 15.8686 10.7529 15.8686C11.1797 15.8686 11.637 15.8381 12.0333 15.7466V11.2653C12.0333 11.1129 11.9113 10.991 11.7589 10.991H9.7469C9.59447 10.991 9.47253 11.1129 9.47253 11.2653V15.7466Z" fill="black"/>
<path d="M12.9172 15.5028C13.9232 15.1674 14.8073 14.5882 15.5085 13.8871V6.81453C15.5085 6.6621 15.3865 6.54016 15.2341 6.54016H13.2221C13.0697 6.54016 12.9477 6.6621 12.9477 6.81453V15.5028H12.9172Z" fill="black"/>
<path d="M24.1053 19.5573L18.7095 15.2894C19.8679 13.7346 20.5691 11.8446 20.5691 9.77157C20.5691 4.55862 16.1792 0.351685 10.7834 0.351685C5.3875 0.351685 0.967163 4.58911 0.967163 9.80205C0.967163 15.015 5.35701 19.2219 10.7529 19.2219C12.8868 19.2219 14.8379 18.5817 16.4536 17.4538L20.9044 22.8192C20.9958 22.9411 21.1178 23.0631 21.2397 23.1545C22.2457 23.9471 23.6785 23.7642 24.4711 22.7582C25.2638 21.7522 25.0808 20.3499 24.1053 19.5573ZM15.5085 15.015C14.8379 15.5637 14.0453 16.021 13.1612 16.2954C12.3991 16.5392 11.6064 16.6917 10.7529 16.6917C9.99074 16.6917 9.2591 16.5697 8.58843 16.3868C7.61291 16.1125 6.75932 15.6247 5.9972 15.015C4.47294 13.7346 3.49742 11.875 3.49742 9.80205C3.49742 5.99142 6.75932 2.91243 10.7529 2.91243C14.7464 2.91243 18.0083 5.99142 18.0083 9.80205C18.0083 11.875 17.0328 13.7651 15.5085 15.015Z" fill="black"/>
</svg>
