<svg width="96" height="96" viewBox="0 0 96 96" fill="none" xmlns="http://www.w3.org/2000/svg">
<path d="M94 80H2C1.46957 80 0.960859 80.2107 0.585786 80.5858C0.210714 80.9609 0 81.4696 0 82L0 86C0 87.3132 0.258658 88.6136 0.761205 89.8268C1.26375 91.0401 2.00035 92.1425 2.92893 93.0711C3.85752 93.9997 4.95991 94.7362 6.17317 95.2388C7.38642 95.7413 8.68678 96 10 96H86C87.3132 96 88.6136 95.7413 89.8268 95.2388C91.0401 94.7362 92.1425 93.9997 93.0711 93.0711C93.9997 92.1425 94.7362 91.0401 95.2388 89.8268C95.7413 88.6136 96 87.3132 96 86V82C96 81.4696 95.7893 80.9609 95.4142 80.5858C95.0391 80.2107 94.5304 80 94 80ZM92 86C92 87.5913 91.3679 89.1174 90.2426 90.2426C89.1174 91.3679 87.5913 92 86 92H10C8.4087 92 6.88258 91.3679 5.75736 90.2426C4.63214 89.1174 4 87.5913 4 86V84H34C34 85.0609 34.4214 86.0783 35.1716 86.8284C35.9217 87.5786 36.9391 88 38 88H58C59.0609 88 60.0783 87.5786 60.8284 86.8284C61.5786 86.0783 62 85.0609 62 84H92V86Z" fill="url(#paint0_linear)"/>
<path d="M84 16C71.12 16 72.94 15.88 74 16.3V20H84C84.5304 20 85.0391 20.2107 85.4142 20.5858C85.7893 20.9609 86 21.4696 86 22V80H90V22C90 20.4087 89.3679 18.8826 88.2426 17.7574C87.1174 16.6322 85.5913 16 84 16ZM6 22V80H10V22C10 21.4696 10.2107 20.9609 10.5858 20.5858C10.9609 20.2107 11.4696 20 12 20H22V16.3C23.14 15.84 24.58 16 12 16C10.4087 16 8.88258 16.6322 7.75736 17.7574C6.63214 18.8826 6 20.4087 6 22V22Z" fill="url(#paint1_linear)"/>
<path d="M80 24H74V27.7C72.94 28.12 72.18 28 78 28V72H18V28C24 28 22.98 28.1 22 27.7V24H16C15.4696 24 14.9609 24.2107 14.5858 24.5858C14.2107 24.9609 14 25.4696 14 26V74C14 74.5304 14.2107 75.0391 14.5858 75.4142C14.9609 75.7893 15.4696 76 16 76H80C80.5304 76 81.0391 75.7893 81.4142 75.4142C81.7893 75.0391 82 74.5304 82 74V26C82 25.4696 81.7893 24.9609 81.4142 24.5858C81.0391 24.2107 80.5304 24 80 24Z" fill="url(#paint2_linear)"/>
<path d="M50 48H46C45.4696 48 44.9609 48.2107 44.5858 48.5858C44.2107 48.9609 44 49.4696 44 50V66C44 66.5304 44.2107 67.0391 44.5858 67.4142C44.9609 67.7893 45.4696 68 46 68C46.5304 68 47.0391 67.7893 47.4142 67.4142C47.7893 67.0391 48 66.5304 48 66V60H50C51.5913 60 53.1174 59.3679 54.2426 58.2426C55.3679 57.1174 56 55.5913 56 54C56 52.4087 55.3679 50.8826 54.2426 49.7574C53.1174 48.6321 51.5913 48 50 48V48ZM50 56H48V52H50C50.5304 52 51.0391 52.2107 51.4142 52.5858C51.7893 52.9609 52 53.4696 52 54C52 54.5304 51.7893 55.0391 51.4142 55.4142C51.0391 55.7893 50.5304 56 50 56Z" fill="url(#paint3_linear)"/>
<path d="M35.78 49.1C35.6122 48.7724 35.3572 48.4975 35.0431 48.3055C34.729 48.1135 34.3681 48.0119 34 48.0119C33.6319 48.0119 33.271 48.1135 32.9569 48.3055C32.6428 48.4975 32.3878 48.7724 32.22 49.1L28.22 57.1C28 57.68 28 57.38 28 66C28 66.5304 28.2107 67.0392 28.5858 67.4142C28.9609 67.7893 29.4696 68 30 68C30.5304 68 31.0391 67.7893 31.4142 67.4142C31.7893 67.0392 32 66.5304 32 66V62H36V66C36 66.5304 36.2107 67.0392 36.5858 67.4142C36.9609 67.7893 37.4696 68 38 68C38.5304 68 39.0391 67.7893 39.4142 67.4142C39.7893 67.0392 40 66.5304 40 66V58C40 57.32 40.1 57.74 35.78 49.1ZM34 54.48L35.76 58H32.24L34 54.48Z" fill="url(#paint4_linear)"/>
<path d="M66 64V52C66.5304 52 67.0391 51.7893 67.4142 51.4142C67.7893 51.0391 68 50.5304 68 50C68 49.4696 67.7893 48.9609 67.4142 48.5858C67.0391 48.2107 66.5304 48 66 48H62C61.4696 48 60.9609 48.2107 60.5858 48.5858C60.2107 48.9609 60 49.4696 60 50C60 50.5304 60.2107 51.0391 60.5858 51.4142C60.9609 51.7893 61.4696 52 62 52V64C61.4696 64 60.9609 64.2107 60.5858 64.5858C60.2107 64.9609 60 65.4696 60 66C60 66.5304 60.2107 67.0391 60.5858 67.4142C60.9609 67.7893 61.4696 68 62 68H66C66.5304 68 67.0391 67.7893 67.4142 67.4142C67.7893 67.0391 68 66.5304 68 66C68 65.4696 67.7893 64.9609 67.4142 64.5858C67.0391 64.2107 66.5304 64 66 64V64Z" fill="url(#paint5_linear)"/>
<path d="M70 25V19L65.32 17.12C64.9353 15.7289 64.3918 14.3867 63.7 13.12L65.7 8.48L61.44 4.32L56.8 6.32C55.5333 5.62825 54.1911 5.08467 52.8 4.7L51 0H45L43.12 4.68C41.7289 5.06467 40.3867 5.60825 39.12 6.3L34.48 4.3L30.32 8.56L32.32 13.2C31.6282 14.4667 31.0847 15.8089 30.7 17.2L26 19V25L30.68 26.88C31.0647 28.2711 31.6082 29.6133 32.3 30.88L30.3 35.52L34.54 39.76L39.18 37.76C40.4467 38.4518 41.7889 38.9953 43.18 39.38L45 44H51L52.88 39.32C54.2711 38.9353 55.6133 38.3918 56.88 37.7L61.52 39.7L65.76 35.46L63.76 30.82C64.4518 29.5533 64.9953 28.2111 65.38 26.82L70 25ZM41.42 24.58C41.7021 24.8597 41.8944 25.2171 41.9726 25.6066C42.0507 25.9961 42.0111 26.4001 41.8587 26.767C41.7064 27.1339 41.4483 27.4471 41.1172 27.6667C40.7862 27.8863 40.3972 28.0023 40 28C38.9 28 38.84 27.68 34.58 23.42C34.3925 23.2341 34.2438 23.0129 34.1422 22.7692C34.0407 22.5254 33.9884 22.264 33.9884 22C33.9884 21.736 34.0407 21.4746 34.1422 21.2308C34.2438 20.9871 34.3925 20.7659 34.58 20.58L38.58 16.58C38.7665 16.3935 38.9879 16.2456 39.2315 16.1447C39.4751 16.0438 39.7363 15.9918 40 15.9918C40.2637 15.9918 40.5249 16.0438 40.7685 16.1447C41.0121 16.2456 41.2335 16.3935 41.42 16.58C41.6065 16.7665 41.7544 16.9879 41.8553 17.2315C41.9562 17.4751 42.0082 17.7363 42.0082 18C42.0082 18.2637 41.9562 18.5249 41.8553 18.7685C41.7544 19.0121 41.6065 19.2335 41.42 19.42L38.82 22L41.42 24.58ZM51.9 16.58L47.9 28.58C47.7303 29.0839 47.3673 29.4998 46.891 29.7361C46.4146 29.9723 45.8639 30.0097 45.36 29.84C44.8561 29.6703 44.4402 29.3073 44.2039 28.831C43.9677 28.3546 43.9303 27.8039 44.1 27.3L48.1 15.3C48.2777 14.7828 48.6536 14.3574 49.1449 14.1174C49.6363 13.8773 50.2028 13.8423 50.72 14.02C51.2372 14.1977 51.6626 14.5736 51.9026 15.0649C52.1427 15.5562 52.1777 16.1228 52 16.64L51.9 16.58ZM61.42 23.36C57.18 27.66 57.1 28 56 28C55.6028 28.0023 55.2138 27.8863 54.8828 27.6667C54.5517 27.4471 54.2936 27.1339 54.1413 26.767C53.9889 26.4001 53.9493 25.9961 54.0274 25.6066C54.1056 25.2171 54.2979 24.8597 54.58 24.58L57.18 22L54.58 19.42C54.3935 19.2335 54.2456 19.0121 54.1447 18.7685C54.0438 18.5249 53.9918 18.2637 53.9918 18C53.9918 17.4674 54.2034 16.9566 54.58 16.58C54.9566 16.2034 55.4674 15.9918 56 15.9918C56.2637 15.9918 56.5249 16.0438 56.7685 16.1447C57.0121 16.2456 57.2335 16.3935 57.42 16.58L61.42 20.58C61.6075 20.7659 61.7562 20.9871 61.8578 21.2308C61.9593 21.4746 62.0116 21.736 62.0116 22C62.0116 22.264 61.9593 22.5254 61.8578 22.7692C61.7562 23.0129 61.6075 23.2341 61.42 23.42V23.36Z" fill="url(#paint6_linear)"/>
<defs>
<linearGradient id="paint0_linear" x1="48" y1="80" x2="48" y2="96" gradientUnits="userSpaceOnUse">
<stop stop-color="#9BA3A2"/>
<stop offset="1" stop-color="#626A69"/>
</linearGradient>
<linearGradient id="paint1_linear" x1="48" y1="15.9731" x2="48" y2="80" gradientUnits="userSpaceOnUse">
<stop stop-color="#9BA3A2"/>
<stop offset="1" stop-color="#626A69"/>
</linearGradient>
<linearGradient id="paint2_linear" x1="48" y1="24" x2="48" y2="76" gradientUnits="userSpaceOnUse">
<stop stop-color="#9BA3A2"/>
<stop offset="1" stop-color="#626A69"/>
</linearGradient>
<linearGradient id="paint3_linear" x1="50" y1="48" x2="50" y2="68" gradientUnits="userSpaceOnUse">
<stop stop-color="#9BA3A2"/>
<stop offset="1" stop-color="#626A69"/>
</linearGradient>
<linearGradient id="paint4_linear" x1="34.0001" y1="48.0119" x2="34.0001" y2="68" gradientUnits="userSpaceOnUse">
<stop stop-color="#9BA3A2"/>
<stop offset="1" stop-color="#626A69"/>
</linearGradient>
<linearGradient id="paint5_linear" x1="64" y1="48" x2="64" y2="68" gradientUnits="userSpaceOnUse">
<stop stop-color="#9BA3A2"/>
<stop offset="1" stop-color="#626A69"/>
</linearGradient>
<linearGradient id="paint6_linear" x1="48" y1="0" x2="48" y2="44" gradientUnits="userSpaceOnUse">
<stop stop-color="#AAEA39"/>
<stop offset="1" stop-color="#86EC16"/>
</linearGradient>
</defs>
</svg>
