<svg width="210" height="70" viewBox="0 0 210 70" fill="none" xmlns="http://www.w3.org/2000/svg">
<rect x="1" y="4" width="68" height="54" rx="4" stroke="black" stroke-width="2"/>
<line x1="1" y1="16" x2="69" y2="16" stroke="black" stroke-width="2"/>
<circle cx="7" cy="10" r="2" stroke="black" stroke-width="2"/>
<circle cx="15" cy="10" r="2" stroke="black" stroke-width="2"/>
<circle cx="23" cy="10" r="2" stroke="black" stroke-width="2"/>
<path d="M18 33C18 29.6863 20.6863 27 24 27H28V39H24C20.6863 39 18 36.3137 18 33V33Z" stroke="black" stroke-width="2"/>
<line x1="18" y1="33" x2="2" y2="33" stroke="black" stroke-width="2"/>
<path d="M51 33C51 29.6863 48.3137 27 45 27H41V39H45C48.3137 39 51 36.3137 51 33V33Z" stroke="black" stroke-width="2"/>
<line x1="69" y1="33" x2="51" y2="33" stroke="black" stroke-width="2"/>
<line x1="41" y1="36" x2="36" y2="36" stroke="black" stroke-width="2"/>
<line x1="41" y1="30" x2="36" y2="30" stroke="black" stroke-width="2"/>
<rect x="8" y="47" width="53" height="21" rx="4" fill="#86EC16"/>
<path d="M15.2076 63V53.4775H19.0836C20.0999 53.4775 20.8518 53.7236 21.3395 54.2158C21.8271 54.7035 22.0709 55.4759 22.0709 56.5332C22.0709 57.5404 21.7997 58.3014 21.2574 58.8164C20.7151 59.3268 19.9951 59.582 19.0973 59.582H17.026V63H15.2076ZM17.026 58.0439H19.2818C19.6008 58.0439 19.8287 57.9642 19.9654 57.8047C20.1067 57.6452 20.1773 57.4082 20.1773 57.0938V55.918C20.1773 55.599 20.1113 55.3711 19.9791 55.2344C19.8515 55.0931 19.6191 55.0225 19.2818 55.0225H17.026V58.0439ZM25.0705 59.6094V53.4775H26.8889V59.6846C26.8889 60.2998 27.0461 60.7852 27.3605 61.1406C27.6796 61.4915 28.1558 61.667 28.7893 61.667C29.4318 61.667 29.9126 61.4938 30.2316 61.1475C30.5507 60.7965 30.7102 60.3089 30.7102 59.6846V53.4775H32.5148V59.6094C32.5148 60.1608 32.4283 60.6598 32.2551 61.1064C32.0819 61.5485 31.8335 61.9268 31.51 62.2412C31.1909 62.5511 30.8013 62.7904 30.341 62.959C29.8853 63.1276 29.368 63.2119 28.7893 63.2119C28.2105 63.2119 27.6932 63.1276 27.2375 62.959C26.7818 62.7904 26.3921 62.5534 26.0686 62.248C25.745 61.9382 25.4966 61.5622 25.3234 61.1201C25.1548 60.6735 25.0705 60.1699 25.0705 59.6094ZM35.5896 60.1562H37.408C37.4809 60.7168 37.6951 61.1178 38.0506 61.3594C38.4061 61.5964 38.8641 61.7148 39.4246 61.7148C39.9578 61.7148 40.4067 61.6055 40.7713 61.3867C41.1359 61.1634 41.3182 60.8421 41.3182 60.4229C41.3182 60.0856 41.2133 59.8167 41.0037 59.6162C40.7941 59.4157 40.4728 59.2607 40.0398 59.1514L38.1805 58.6592C37.3966 58.4541 36.8156 58.1191 36.4373 57.6543C36.059 57.1849 35.8699 56.6016 35.8699 55.9043C35.8699 55.5215 35.952 55.1683 36.116 54.8447C36.2801 54.5212 36.5102 54.2432 36.8064 54.0107C37.1072 53.7783 37.4718 53.5983 37.9002 53.4707C38.3286 53.3385 38.8094 53.2725 39.3426 53.2725C39.8256 53.2725 40.2745 53.3294 40.6893 53.4434C41.1085 53.5527 41.4708 53.7236 41.7762 53.9561C42.0861 54.1885 42.339 54.487 42.535 54.8516C42.7309 55.2161 42.8517 55.6445 42.8973 56.1367H41.0789C41.0516 55.877 40.9832 55.6582 40.8738 55.4805C40.769 55.3027 40.6368 55.1615 40.4773 55.0566C40.3178 54.9473 40.1378 54.8721 39.9373 54.8311C39.7368 54.79 39.5294 54.7695 39.3152 54.7695C38.8094 54.7695 38.4106 54.8698 38.1189 55.0703C37.8318 55.2708 37.6883 55.5443 37.6883 55.8906C37.6883 56.2552 37.7999 56.5332 38.0232 56.7246C38.2511 56.9115 38.5929 57.0664 39.0486 57.1895L40.6687 57.6133C41.4799 57.8275 42.0929 58.151 42.5076 58.584C42.9269 59.0169 43.1365 59.6253 43.1365 60.4092C43.1365 60.8467 43.0477 61.2386 42.8699 61.585C42.6922 61.9313 42.4393 62.2253 42.1111 62.4668C41.7876 62.7083 41.3979 62.8929 40.9422 63.0205C40.491 63.1481 39.9943 63.2119 39.452 63.2119C38.9187 63.2119 38.4266 63.1549 37.9754 63.041C37.5242 62.9316 37.1277 62.7562 36.7859 62.5146C36.4441 62.2686 36.1684 61.9518 35.9588 61.5645C35.7492 61.1771 35.6261 60.7077 35.5896 60.1562ZM46.3549 63V53.4775H48.1732V57.3877H51.9672V53.4775H53.7924V63H51.9672V58.9258H48.1732V63H46.3549Z" fill="black"/>
<rect x="141" y="4" width="68" height="54" rx="4" stroke="black" stroke-width="2"/>
<line x1="141" y1="16" x2="209" y2="16" stroke="black" stroke-width="2"/>
<circle cx="147" cy="10" r="2" stroke="black" stroke-width="2"/>
<circle cx="155" cy="10" r="2" stroke="black" stroke-width="2"/>
<circle cx="163" cy="10" r="2" stroke="black" stroke-width="2"/>
<path d="M158 33C158 29.6863 160.686 27 164 27H168V39H164C160.686 39 158 36.3137 158 33V33Z" stroke="black" stroke-width="2"/>
<line x1="158" y1="33" x2="142" y2="33" stroke="black" stroke-width="2"/>
<path d="M191 33C191 29.6863 188.314 27 185 27H181V39H185C188.314 39 191 36.3137 191 33V33Z" stroke="black" stroke-width="2"/>
<line x1="209" y1="33" x2="191" y2="33" stroke="black" stroke-width="2"/>
<line x1="181" y1="36" x2="176" y2="36" stroke="black" stroke-width="2"/>
<line x1="181" y1="30" x2="176" y2="30" stroke="black" stroke-width="2"/>
<rect x="149" y="47" width="51" height="21" rx="4" fill="#86EC16"/>
<path d="M156.534 63V53.4775H160.41C161.426 53.4775 162.178 53.7191 162.666 54.2021C163.153 54.6807 163.397 55.4189 163.397 56.417C163.397 57.1735 163.217 57.7819 162.857 58.2422C162.497 58.6979 161.996 59.0146 161.353 59.1924L163.534 63H161.517L159.514 59.3428H158.352V63H156.534ZM158.352 57.8457H160.649C161.219 57.8457 161.504 57.529 161.504 56.8955V55.918C161.504 55.599 161.44 55.3711 161.312 55.2344C161.189 55.0931 160.968 55.0225 160.649 55.0225H158.352V57.8457ZM166.807 63V53.4775H173.356V55.0225H168.625V57.3604H172.713V58.8984H168.625V61.4619H173.356V63H166.807ZM176.15 60.1562H177.969C178.041 60.7168 178.256 61.1178 178.611 61.3594C178.967 61.5964 179.425 61.7148 179.985 61.7148C180.518 61.7148 180.967 61.6055 181.332 61.3867C181.696 61.1634 181.879 60.8421 181.879 60.4229C181.879 60.0856 181.774 59.8167 181.564 59.6162C181.355 59.4157 181.033 59.2607 180.6 59.1514L178.741 58.6592C177.957 58.4541 177.376 58.1191 176.998 57.6543C176.62 57.1849 176.43 56.6016 176.43 55.9043C176.43 55.5215 176.512 55.1683 176.677 54.8447C176.841 54.5212 177.071 54.2432 177.367 54.0107C177.668 53.7783 178.032 53.5983 178.461 53.4707C178.889 53.3385 179.37 53.2725 179.903 53.2725C180.386 53.2725 180.835 53.3294 181.25 53.4434C181.669 53.5527 182.031 53.7236 182.337 53.9561C182.647 54.1885 182.9 54.487 183.096 54.8516C183.291 55.2161 183.412 55.6445 183.458 56.1367H181.639C181.612 55.877 181.544 55.6582 181.434 55.4805C181.33 55.3027 181.197 55.1615 181.038 55.0566C180.878 54.9473 180.698 54.8721 180.498 54.8311C180.297 54.79 180.09 54.7695 179.876 54.7695C179.37 54.7695 178.971 54.8698 178.679 55.0703C178.392 55.2708 178.249 55.5443 178.249 55.8906C178.249 56.2552 178.36 56.5332 178.584 56.7246C178.812 56.9115 179.153 57.0664 179.609 57.1895L181.229 57.6133C182.04 57.8275 182.653 58.151 183.068 58.584C183.487 59.0169 183.697 59.6253 183.697 60.4092C183.697 60.8467 183.608 61.2386 183.43 61.585C183.253 61.9313 183 62.2253 182.672 62.4668C182.348 62.7083 181.958 62.8929 181.503 63.0205C181.052 63.1481 180.555 63.2119 180.012 63.2119C179.479 63.2119 178.987 63.1549 178.536 63.041C178.085 62.9316 177.688 62.7562 177.346 62.5146C177.005 62.2686 176.729 61.9518 176.519 61.5645C176.31 61.1771 176.187 60.7077 176.15 60.1562ZM186.006 55.0225V53.4775H193.369V55.0225H190.6V63H188.775V55.0225H186.006Z" fill="black"/>
</svg>
