<svg width="174" height="105" viewBox="0 0 174 105" fill="none" xmlns="http://www.w3.org/2000/svg">
<rect width="174" height="105" fill="white"/>
<g clip-path="url(#clip0)">
<path d="M116.708 70.6667H57.2917C56.9491 70.6667 56.6206 70.8028 56.3783 71.0451C56.1361 71.2873 56 71.6159 56 71.9584V74.5417C56 75.3899 56.167 76.2297 56.4916 77.0132C56.8162 77.7968 57.2919 78.5088 57.8916 79.1085C58.4913 79.7082 59.2033 80.1839 59.9868 80.5085C60.7704 80.833 61.6102 81.0001 62.4583 81.0001H111.542C112.39 81.0001 113.23 80.833 114.013 80.5085C114.797 80.1839 115.509 79.7082 116.108 79.1085C116.708 78.5088 117.184 77.7968 117.508 77.0132C117.833 76.2297 118 75.3899 118 74.5417V71.9584C118 71.6159 117.864 71.2873 117.622 71.0451C117.379 70.8028 117.051 70.6667 116.708 70.6667ZM115.417 74.5417C115.417 75.5695 115.008 76.5551 114.282 77.2818C113.555 78.0085 112.569 78.4167 111.542 78.4167H62.4583C61.4306 78.4167 60.445 78.0085 59.7183 77.2818C58.9916 76.5551 58.5833 75.5695 58.5833 74.5417V73.2501H77.9583C77.9583 73.9352 78.2305 74.5923 78.715 75.0768C79.1994 75.5613 79.8565 75.8334 80.5417 75.8334H93.4583C94.1435 75.8334 94.8006 75.5613 95.285 75.0768C95.7695 74.5923 96.0417 73.9352 96.0417 73.2501H115.417V74.5417Z" fill="url(#paint0_linear)"/>
<path d="M110.25 29.3333C101.932 29.3333 103.107 29.2558 103.792 29.5271V31.9166H110.25C110.593 31.9166 110.921 32.0527 111.163 32.295C111.406 32.5372 111.542 32.8658 111.542 33.2083V70.6666H114.125V33.2083C114.125 32.1806 113.717 31.195 112.99 30.4683C112.263 29.7416 111.278 29.3333 110.25 29.3333ZM59.875 33.2083V70.6666H62.4583V33.2083C62.4583 32.8658 62.5944 32.5372 62.8367 32.295C63.0789 32.0527 63.4074 31.9166 63.75 31.9166H70.2083V29.5271C70.9446 29.23 71.8746 29.3333 63.75 29.3333C62.7223 29.3333 61.7367 29.7416 61.01 30.4683C60.2833 31.195 59.875 32.1806 59.875 33.2083Z" fill="url(#paint1_linear)"/>
<path d="M107.668 34.5H103.793V36.8896C103.108 37.1608 102.618 37.0833 106.376 37.0833V65.5H67.6263V37.0833C71.5013 37.0833 70.8426 37.1479 70.2096 36.8896V34.5H66.3346C65.9921 34.5 65.6636 34.6361 65.4213 34.8783C65.179 35.1206 65.043 35.4491 65.043 35.7917V66.7917C65.043 67.1342 65.179 67.4628 65.4213 67.705C65.6636 67.9473 65.9921 68.0833 66.3346 68.0833H107.668C108.011 68.0833 108.339 67.9473 108.581 67.705C108.824 67.4628 108.96 67.1342 108.96 66.7917V35.7917C108.96 35.4491 108.824 35.1206 108.581 34.8783C108.339 34.6361 108.011 34.5 107.668 34.5Z" fill="url(#paint2_linear)"/>
<path d="M88.293 50H85.7096C85.3671 50 85.0385 50.1361 84.7963 50.3783C84.554 50.6206 84.418 50.9491 84.418 51.2917V61.625C84.418 61.9675 84.554 62.2961 84.7963 62.5383C85.0385 62.7806 85.3671 62.9167 85.7096 62.9167C86.0522 62.9167 86.3807 62.7806 86.623 62.5383C86.8652 62.2961 87.0013 61.9675 87.0013 61.625V57.75H88.293C89.3207 57.75 90.3063 57.3418 91.033 56.615C91.7597 55.8883 92.168 54.9027 92.168 53.875C92.168 52.8473 91.7597 51.8617 91.033 51.135C90.3063 50.4082 89.3207 50 88.293 50ZM88.293 55.1667H87.0013V52.5833H88.293C88.6355 52.5833 88.9641 52.7194 89.2063 52.9617C89.4486 53.2039 89.5846 53.5324 89.5846 53.875C89.5846 54.2175 89.4486 54.5461 89.2063 54.7883C88.9641 55.0306 88.6355 55.1667 88.293 55.1667Z" fill="url(#paint3_linear)"/>
<path d="M79.1066 50.7103C78.9982 50.4987 78.8336 50.3212 78.6307 50.1972C78.4278 50.0732 78.1948 50.0076 77.957 50.0076C77.7193 50.0076 77.4862 50.0732 77.2834 50.1972C77.0805 50.3212 76.9158 50.4987 76.8074 50.7103L74.2241 55.877C74.082 56.2515 74.082 56.0578 74.082 61.6249C74.082 61.9674 74.2181 62.296 74.4604 62.5382C74.7026 62.7805 75.0311 62.9165 75.3737 62.9165C75.7162 62.9165 76.0448 62.7805 76.287 62.5382C76.5293 62.296 76.6654 61.9674 76.6654 61.6249V59.0415H79.2487V61.6249C79.2487 61.9674 79.3848 62.296 79.627 62.5382C79.8693 62.7805 80.1978 62.9165 80.5404 62.9165C80.8829 62.9165 81.2114 62.7805 81.4537 62.5382C81.696 62.296 81.832 61.9674 81.832 61.6249V56.4582C81.832 56.019 81.8966 56.2903 79.1066 50.7103ZM77.957 54.1849L79.0937 56.4582H76.8204L77.957 54.1849Z" fill="url(#paint4_linear)"/>
<path d="M98.625 60.3333V52.5833C98.9675 52.5833 99.2961 52.4473 99.5383 52.205C99.7806 51.9628 99.9167 51.6342 99.9167 51.2917C99.9167 50.9491 99.7806 50.6206 99.5383 50.3783C99.2961 50.1361 98.9675 50 98.625 50H96.0417C95.6991 50 95.3706 50.1361 95.1283 50.3783C94.8861 50.6206 94.75 50.9491 94.75 51.2917C94.75 51.6342 94.8861 51.9628 95.1283 52.205C95.3706 52.4473 95.6991 52.5833 96.0417 52.5833V60.3333C95.6991 60.3333 95.3706 60.4694 95.1283 60.7117C94.8861 60.9539 94.75 61.2824 94.75 61.625C94.75 61.9675 94.8861 62.2961 95.1283 62.5383C95.3706 62.7806 95.6991 62.9167 96.0417 62.9167H98.625C98.9675 62.9167 99.2961 62.7806 99.5383 62.5383C99.7806 62.2961 99.9167 61.9675 99.9167 61.625C99.9167 61.2824 99.7806 60.9539 99.5383 60.7117C99.2961 60.4694 98.9675 60.3333 98.625 60.3333Z" fill="url(#paint5_linear)"/>
<path d="M101.21 35.1458V31.2708L98.1871 30.0567C97.9387 29.1582 97.5877 28.2914 97.1409 27.4733L98.4326 24.4767L95.6813 21.79L92.6846 23.0817C91.8666 22.6349 90.9997 22.2838 90.1013 22.0354L88.9388 19H85.0638L83.8496 22.0225C82.9512 22.2709 82.0844 22.622 81.2663 23.0688L78.2696 21.7771L75.583 24.5283L76.8746 27.525C76.4278 28.3431 76.0768 29.2099 75.8284 30.1083L72.793 31.2708V35.1458L75.8155 36.36C76.0639 37.2584 76.4149 38.1253 76.8617 38.9433L75.5701 41.94L78.3084 44.6783L81.3051 43.3867C82.1231 43.8335 82.99 44.1845 83.8884 44.4329L85.0638 47.4167H88.9388L90.153 44.3942C91.0514 44.1457 91.9182 43.7947 92.7363 43.3479L95.733 44.6396L98.4713 41.9013L97.1796 38.9046C97.6264 38.0865 97.9774 37.2197 98.2259 36.3213L101.21 35.1458ZM82.7517 34.8746C82.9339 35.0552 83.0581 35.286 83.1086 35.5376C83.159 35.7892 83.1335 36.0501 83.035 36.287C82.9367 36.524 82.77 36.7263 82.5562 36.8681C82.3424 37.0099 82.0912 37.0848 81.8346 37.0833C81.1242 37.0833 81.0855 36.8767 78.3342 34.1254C78.2131 34.0054 78.1171 33.8625 78.0515 33.7051C77.9859 33.5477 77.9521 33.3788 77.9521 33.2083C77.9521 33.0378 77.9859 32.869 78.0515 32.7116C78.1171 32.5542 78.2131 32.4113 78.3342 32.2913L80.9176 29.7079C81.038 29.5875 81.181 29.492 81.3383 29.4268C81.4956 29.3616 81.6643 29.328 81.8346 29.328C82.0049 29.328 82.1736 29.3616 82.331 29.4268C82.4883 29.492 82.6313 29.5875 82.7517 29.7079C82.8722 29.8284 82.9677 29.9714 83.0329 30.1287C83.098 30.286 83.1316 30.4547 83.1316 30.625C83.1316 30.7953 83.098 30.964 83.0329 31.1213C82.9677 31.2786 82.8722 31.4216 82.7517 31.5421L81.0726 33.2083L82.7517 34.8746ZM89.5201 29.7079L86.9367 37.4579C86.8271 37.7834 86.5927 38.052 86.2851 38.2046C85.9774 38.3571 85.6217 38.3813 85.2963 38.2717C84.9709 38.1621 84.7023 37.9276 84.5497 37.62C84.3971 37.3123 84.373 36.9567 84.4826 36.6313L87.0659 28.8813C87.1806 28.5472 87.4234 28.2725 87.7407 28.1175C88.0581 27.9624 88.4239 27.9398 88.758 28.0546C89.092 28.1693 89.3667 28.4121 89.5217 28.7294C89.6768 29.0467 89.6994 29.4126 89.5846 29.7467L89.5201 29.7079ZM95.6684 34.0867C92.9301 36.8638 92.8784 37.0833 92.168 37.0833C91.9114 37.0848 91.6602 37.0099 91.4464 36.8681C91.2326 36.7263 91.0659 36.524 90.9676 36.287C90.8691 36.0501 90.8436 35.7892 90.894 35.5376C90.9445 35.286 91.0687 35.0552 91.2509 34.8746L92.9301 33.2083L91.2509 31.5421C91.1304 31.4216 91.0349 31.2786 90.9698 31.1213C90.9046 30.964 90.871 30.7953 90.871 30.625C90.871 30.281 91.0077 29.9511 91.2509 29.7079C91.4941 29.4647 91.824 29.328 92.168 29.328C92.3383 29.328 92.507 29.3616 92.6643 29.4268C92.8216 29.492 92.9646 29.5875 93.0851 29.7079L95.6684 32.2913C95.7895 32.4113 95.8855 32.5542 95.9511 32.7116C96.0167 32.869 96.0505 33.0378 96.0505 33.2083C96.0505 33.3788 96.0167 33.5477 95.9511 33.7051C95.8855 33.8625 95.7895 34.0054 95.6684 34.1254V34.0867Z" fill="url(#paint6_linear)"/>
</g>
<defs>
<linearGradient id="paint0_linear" x1="87" y1="70.6667" x2="87" y2="81.0001" gradientUnits="userSpaceOnUse">
<stop stop-color="#9BA3A2"/>
<stop offset="1" stop-color="#626A69"/>
</linearGradient>
<linearGradient id="paint1_linear" x1="87" y1="29.3159" x2="87" y2="70.6666" gradientUnits="userSpaceOnUse">
<stop stop-color="#9BA3A2"/>
<stop offset="1" stop-color="#626A69"/>
</linearGradient>
<linearGradient id="paint2_linear" x1="87.0013" y1="34.5" x2="87.0013" y2="68.0833" gradientUnits="userSpaceOnUse">
<stop stop-color="#9BA3A2"/>
<stop offset="1" stop-color="#626A69"/>
</linearGradient>
<linearGradient id="paint3_linear" x1="88.293" y1="50" x2="88.293" y2="62.9167" gradientUnits="userSpaceOnUse">
<stop stop-color="#9BA3A2"/>
<stop offset="1" stop-color="#626A69"/>
</linearGradient>
<linearGradient id="paint4_linear" x1="77.9571" y1="50.0076" x2="77.9571" y2="62.9165" gradientUnits="userSpaceOnUse">
<stop stop-color="#9BA3A2"/>
<stop offset="1" stop-color="#626A69"/>
</linearGradient>
<linearGradient id="paint5_linear" x1="97.3333" y1="50" x2="97.3333" y2="62.9167" gradientUnits="userSpaceOnUse">
<stop stop-color="#9BA3A2"/>
<stop offset="1" stop-color="#626A69"/>
</linearGradient>
<linearGradient id="paint6_linear" x1="87.0013" y1="19" x2="87.0013" y2="47.4167" gradientUnits="userSpaceOnUse">
<stop stop-color="#AAEA39"/>
<stop offset="1" stop-color="#86EC16"/>
</linearGradient>
<clipPath id="clip0">
<rect width="62" height="62" fill="white" transform="translate(56 19)"/>
</clipPath>
</defs>
</svg>
