<svg width="50" height="50" viewBox="0 0 50 50" fill="none" xmlns="http://www.w3.org/2000/svg">
<path fill-rule="evenodd" clip-rule="evenodd" d="M17.3485 19H20.6662C21.1769 19 21.5913 19.414 21.5913 19.925V30.0667C21.5913 30.5777 21.1769 30.9917 20.6662 30.9917H17.3485C14.7547 30.9917 12.6444 28.8812 12.6444 26.2871H7V23.7047H12.6444C12.6444 21.1105 14.7547 19 17.3485 19ZM32.2873 19C34.8811 19 36.9914 21.1105 36.9914 23.7047H42.6358V26.2871H36.9914C36.9914 28.8812 34.8811 30.9917 32.2873 30.9917H28.9696C28.4589 30.9917 28.0445 30.5777 28.0445 30.0667V28.2052H24.3113V26.3551H28.0445V23.4575H24.3113V21.6074H28.0445V19.925C28.0445 19.414 28.4589 19 28.9696 19H32.2873Z" fill="#86EC16"/>
<mask id="path-2-inside-1" fill="white">
<path fill-rule="evenodd" clip-rule="evenodd" d="M16.0349 43.0902C16.0463 41.5441 14.374 40.5704 13.035 41.3434L9.96492 43.116C9.00834 43.6682 7.78515 43.3405 7.23287 42.3839L0.738051 31.1345C0.185766 30.178 0.513516 28.9548 1.4701 28.4025L4.53622 26.6323C5.87523 25.8592 5.86811 23.924 4.52344 23.1608L1.56826 21.4836C0.597655 20.9327 0.265709 19.694 0.830775 18.7316L7.5178 7.34223C8.07127 6.39956 9.27904 6.0759 10.2297 6.61548L13.3161 8.36722C14.6437 9.12073 16.292 8.16908 16.3033 6.64258L16.3294 3.09474C16.3374 2.00164 17.2216 1.11751 18.3147 1.10953L31.5217 1.01307C32.6377 1.00492 33.5445 1.91174 33.5363 3.02775L33.5112 6.42415C33.4999 7.97026 35.1722 8.94401 36.5112 8.17093L39.575 6.40206C40.5316 5.84978 41.7547 6.17753 42.307 7.13411L48.8018 18.3835C49.3541 19.3401 49.0264 20.5632 48.0698 21.1155L45.0015 22.887C43.6625 23.6601 43.6696 25.5952 45.0143 26.3584L47.9701 28.0361C48.9407 28.587 49.2727 29.8257 48.7076 30.7881L42.0206 42.1774C41.4671 43.1201 40.2594 43.4438 39.3087 42.9042L36.23 41.1568C34.9024 40.4033 33.2541 41.355 33.2429 42.8815L33.2168 46.4231C33.2087 47.5162 32.3245 48.4004 31.2314 48.4083L18.0245 48.5048C16.9084 48.5129 16.0017 47.6061 16.0099 46.4901L16.0349 43.0902Z"/>
</mask>
<path d="M18.0245 48.5048L18.0391 50.5047L18.0245 48.5048ZM33.2168 46.4231L35.2167 46.4379L33.2168 46.4231ZM31.2314 48.4083L31.2168 46.4084L31.2314 48.4083ZM36.23 41.1568L35.2428 42.8962L36.23 41.1568ZM42.0206 42.1774L43.7453 43.1901L42.0206 42.1774ZM39.3087 42.9042L38.3215 44.6436L39.3087 42.9042ZM47.9701 28.0361L46.9829 29.7755L47.9701 28.0361ZM45.0143 26.3584L44.0271 28.0978L45.0143 26.3584ZM48.8018 18.3835L50.5339 17.3835L48.8018 18.3835ZM48.0698 21.1155L49.0698 22.8476L48.0698 21.1155ZM33.5112 6.42415L31.5113 6.40942L33.5112 6.42415ZM36.5112 8.17093L35.5112 6.43888L36.5112 8.17093ZM31.5217 1.01307L31.5071 -0.986874L31.5217 1.01307ZM33.5363 3.02775L31.5363 3.01302L33.5363 3.02775ZM16.3294 3.09474L18.3293 3.10947L16.3294 3.09474ZM18.3147 1.10953L18.3293 3.10947L18.3147 1.10953ZM7.5178 7.34223L5.7931 6.3296L7.5178 7.34223ZM1.56826 21.4836L2.55548 19.7442L1.56826 21.4836ZM0.830775 18.7316L2.55548 19.7442L0.830775 18.7316ZM4.52344 23.1608L3.53622 24.9002L4.52344 23.1608ZM1.4701 28.4025L0.470102 26.6704L1.4701 28.4025ZM9.96492 43.116L10.9649 44.848L9.96492 43.116ZM10.9649 44.848L14.035 43.0755L12.035 39.6114L8.96492 41.3839L10.9649 44.848ZM-0.994001 32.1345L5.50082 43.3839L8.96492 41.3839L2.4701 30.1345L-0.994001 32.1345ZM3.53622 24.9002L0.470102 26.6704L2.4701 30.1345L5.53622 28.3643L3.53622 24.9002ZM5.51066 21.4215L2.55548 19.7442L0.581046 23.2229L3.53622 24.9002L5.51066 21.4215ZM2.55548 19.7442L9.2425 8.35485L5.7931 6.3296L-0.893927 17.719L2.55548 19.7442ZM9.2425 8.35485L12.3289 10.1066L14.3033 6.62785L11.2169 4.87611L9.2425 8.35485ZM14.3294 3.08001L14.3033 6.62785L18.3032 6.65731L18.3293 3.10947L14.3294 3.08001ZM31.5071 -0.986874L18.3001 -0.890419L18.3293 3.10947L31.5363 3.01302L31.5071 -0.986874ZM35.5112 6.43888L35.5362 3.04248L31.5363 3.01302L31.5113 6.40942L35.5112 6.43888ZM38.575 4.67001L35.5112 6.43888L37.5112 9.90298L40.575 8.13411L38.575 4.67001ZM50.5339 17.3835L44.0391 6.13411L40.575 8.13411L47.0698 19.3835L50.5339 17.3835ZM46.0015 24.6191L49.0698 22.8476L47.0698 19.3835L44.0015 21.155L46.0015 24.6191ZM48.9574 26.2967L46.0015 24.6191L44.0271 28.0978L46.9829 29.7755L48.9574 26.2967ZM43.7453 43.1901L50.4323 31.8007L46.9829 29.7755L40.2959 41.1648L43.7453 43.1901ZM35.2428 42.8962L38.3215 44.6436L40.2959 41.1648L37.2172 39.4175L35.2428 42.8962ZM35.2167 46.4379L35.2428 42.8962L31.2429 42.8667L31.2168 46.4084L35.2167 46.4379ZM18.0391 50.5047L31.246 50.4083L31.2168 46.4084L18.0099 46.5048L18.0391 50.5047ZM14.035 43.0755L14.01 46.4754L18.0099 46.5048L18.0349 43.105L14.035 43.0755ZM18.0099 46.5048L18.0099 46.5048L14.01 46.4754C13.9935 48.7074 15.807 50.521 18.0391 50.5047L18.0099 46.5048ZM31.2168 46.4084L31.2168 46.4084L31.246 50.4083C33.4322 50.3923 35.2006 48.6241 35.2167 46.4379L31.2168 46.4084ZM37.2172 39.4175C34.562 37.9104 31.2654 39.8137 31.2429 42.8667L35.2428 42.8962L35.2428 42.8962L37.2172 39.4175ZM40.2959 41.1648L40.2959 41.1648L38.3215 44.6436C40.2228 45.7227 42.6384 45.0754 43.7453 43.1901L40.2959 41.1648ZM46.9829 29.7755L46.9829 29.7755L50.4323 31.8007C51.5625 29.8759 50.8986 27.3985 48.9574 26.2967L46.9829 29.7755ZM44.0015 21.155C41.3235 22.7011 41.3377 26.5714 44.0271 28.0978L46.0015 24.6191L46.0015 24.6191L44.0015 21.155ZM47.0698 19.3835L49.0698 22.8476C50.983 21.743 51.6385 19.2966 50.5339 17.3835L47.0698 19.3835ZM40.575 8.13411L40.575 8.13411L44.0391 6.13411C42.9345 4.22095 40.4881 3.56544 38.575 4.67001L40.575 8.13411ZM31.5113 6.40942C31.4885 9.50164 34.8332 11.4491 37.5112 9.90298L35.5112 6.43888L31.5113 6.40942ZM31.5363 3.01302L35.5362 3.04248C35.5527 0.810453 33.7391 -1.00317 31.5071 -0.986874L31.5363 3.01302ZM18.3293 3.10947L18.3293 3.10947L18.3001 -0.890419C16.1139 -0.874452 14.3456 0.893817 14.3294 3.08001L18.3293 3.10947ZM12.3289 10.1066C14.9841 11.6136 18.2807 9.7103 18.3032 6.65731L14.3033 6.62785L12.3289 10.1066ZM9.2425 8.35485L11.2169 4.87611C9.31558 3.79695 6.90003 4.44428 5.7931 6.3296L9.2425 8.35485ZM2.55548 19.7442L-0.893927 17.719C-2.02406 19.6438 -1.36017 22.1212 0.581046 23.2229L2.55548 19.7442ZM5.53622 28.3643C8.21424 26.8182 8.19999 22.9479 5.51066 21.4215L3.53622 24.9002L5.53622 28.3643ZM2.4701 30.1345L2.4701 30.1345L0.470102 26.6704C-1.44307 27.775 -2.09857 30.2214 -0.994001 32.1345L2.4701 30.1345ZM14.035 43.0755L14.035 43.0755L18.0349 43.105C18.0577 40.0127 14.713 38.0652 12.035 39.6114L14.035 43.0755ZM8.96492 41.3839L8.96492 41.3839L5.50082 43.3839C6.60539 45.2971 9.05175 45.9526 10.9649 44.848L8.96492 41.3839Z" fill="black" mask="url(#path-2-inside-1)"/>
</svg>
