<svg width="70" height="70" viewBox="0 0 70 70" fill="none" xmlns="http://www.w3.org/2000/svg">
<rect width="70" height="70" fill="white" fill-opacity="0.4"/>
<path fill-rule="evenodd" clip-rule="evenodd" d="M38.2069 35.8415C38.7933 34.721 39.125 33.4461 39.125 32.0938C39.125 27.6237 35.5013 24 31.0312 24C26.5612 24 22.9375 27.6237 22.9375 32.0938C22.9375 33.4354 23.264 34.7009 23.8418 35.815C19.1705 38.3564 16 43.3079 16 49V55.7822C16 57.5593 17.4407 59 19.2178 59H42.7822C44.5593 59 46 57.5593 46 55.7822V49C46 43.3277 42.8515 38.3908 38.2069 35.8415Z" fill="#86EC16"/>
<path d="M31.8711 19.5C33.6513 15.1023 37.9628 12 42.9988 12C47.0139 12 50.5684 13.9719 52.7467 17M45.5 35.739C50.9269 34.5883 54.9988 29.7697 54.9988 24C54.9988 23.7071 54.9883 23.4167 54.9677 23.1291" stroke="black" stroke-width="2"/>
<path d="M48 18L53 17.5L54 12" stroke="black" stroke-width="2" stroke-linecap="square" stroke-linejoin="round"/>
<path d="M43 17V25L48 29" stroke="black" stroke-width="2"/>
</svg>
