<svg width="26" height="34" viewBox="0 0 26 34" fill="none" xmlns="http://www.w3.org/2000/svg">
<path fill-rule="evenodd" clip-rule="evenodd" d="M1 0H0V1V33V34H1H25H26V33V8V7.58579L25.7071 7.29289L18.7071 0.292893L18.4142 0H18H1ZM2 32V2H17V8V9H18H24V32H2ZM22.5858 7L19 3.41421V7H22.5858ZM10.4823 8.97004C10.7283 8.65837 10.8748 8.26702 10.8748 7.84205C10.8748 6.82471 10.0353 6 8.99979 6C7.96426 6 7.12479 6.82471 7.12479 7.84205C7.12479 8.26709 7.27132 8.6585 7.51746 8.9702C6.61114 9.48638 6 10.4613 6 11.5789V12.9998H12V11.5789C12 10.4611 11.3887 9.48618 10.4823 8.97004ZM6 18H20V16H6V18ZM20 23H6V21H20V23ZM6 28H15V26H6V28Z" fill="url(#paint0_linear)"/>
<defs>
<linearGradient id="paint0_linear" x1="13" y1="0" x2="13" y2="34" gradientUnits="userSpaceOnUse">
<stop stop-color="#9BA3A2"/>
<stop offset="1" stop-color="#626A69"/>
</linearGradient>
</defs>
</svg>
