<svg width="30" height="30" viewBox="0 0 30 30" fill="none" xmlns="http://www.w3.org/2000/svg">
<path fill-rule="evenodd" clip-rule="evenodd" d="M25 26.1805C28.0687 23.4339 30 19.4425 30 15C30 6.71573 23.2843 0 15 0C6.71573 0 0 6.71573 0 15C0 19.9075 2.35666 24.2645 6 27.0011V11.2C6 9.43543 7.35591 8 9.02273 8C10.6895 8 12.0455 9.43543 12.0455 11.2V19.2805C12.4384 19.0825 12.8776 18.9714 13.3409 18.9714C14.5504 18.9714 15.5959 19.7271 16.0791 20.816C16.539 20.5157 17.08 20.3429 17.6591 20.3429C18.8686 20.3429 19.9145 21.0985 20.3972 22.1874C20.8571 21.8871 21.3982 21.7143 21.9773 21.7143C23.6437 21.7143 25 23.1497 25 24.9143V26.1805ZM23.2727 27.5144V24.9143C23.2727 24.1582 22.6915 23.5429 21.9773 23.5429C21.263 23.5429 20.6818 24.1582 20.6818 24.9143C20.6818 25.419 20.2949 25.8286 19.8182 25.8286C19.3415 25.8286 18.9545 25.419 18.9545 24.9143V23.5429C18.9545 22.7867 18.3733 22.1714 17.6591 22.1714C16.9449 22.1714 16.3636 22.7867 16.3636 23.5429C16.3636 24.0475 15.9767 24.4571 15.5 24.4571C15.0233 24.4571 14.6364 24.0475 14.6364 23.5429V22.1714C14.6364 21.4153 14.0551 20.8 13.3409 20.8C12.6267 20.8 12.0455 21.4153 12.0455 22.1714C12.0455 22.6761 11.6585 23.0857 11.1818 23.0857C10.7051 23.0857 10.3182 22.6761 10.3182 22.1714V11.2C10.3182 10.4439 9.73695 9.82857 9.02273 9.82857C8.3085 9.82857 7.72727 10.4439 7.72727 11.2V28.1221C9.88145 29.3186 12.3612 30 15 30C18.0575 30 20.9013 29.0852 23.2727 27.5144Z" fill="white"/>
</svg>
