<svg width="51" height="51" viewBox="0 0 51 51" fill="none" xmlns="http://www.w3.org/2000/svg">
<path d="M50.3828 29.3794C50.3828 33.6941 46.3176 37.1919 41.9987 37.1919L43.1158 29.3794L41.9987 21.5669C46.3176 21.5669 50.3828 25.0647 50.3828 29.3794Z" fill="#FF7B1B"/>
<path d="M0 29.3794C0 33.6941 4.0652 37.1919 8.38413 37.1919L7.26697 29.3794L8.38413 21.5669C4.0652 21.5669 0 25.0647 0 29.3794Z" fill="#FF7B1B"/>
<rect x="8" y="13.0669" width="34" height="28" rx="3" stroke="black" stroke-width="2"/>
<path d="M45 25.0669V16.0669C45 12.7532 42.3137 10.0669 39 10.0669H11C7.68629 10.0669 5 12.7532 5 16.0669V25.0669" stroke="#FF7B1B" stroke-width="4"/>
<path d="M18 28.0669C18 32.053 21.1644 35.0669 25 35.0669C28.8356 35.0669 32 31.8586 32 28.0669" stroke="black" stroke-width="2" stroke-miterlimit="10" stroke-linejoin="round"/>
<circle cx="18" cy="22.0669" r="2" stroke="black" stroke-width="2"/>
<circle cx="32" cy="22.0669" r="2" stroke="black" stroke-width="2"/>
<path d="M31 34.0563C35.3333 34.1751 44 33.3435 44 29.0669" stroke="#FF7B1B" stroke-width="2"/>
<rect x="23" y="31.0669" width="10" height="6" rx="3" fill="#FF7B1B"/>
</svg>
