<svg width="52" height="52" viewBox="0 0 52 52" fill="none" xmlns="http://www.w3.org/2000/svg">
<path d="M46.8241 21.649C45.9459 21.6486 45.0881 21.9134 44.3629 22.4088C43.6378 22.9041 43.0791 23.6068 42.7601 24.425H41.6001C41.9824 23.315 42.0814 22.127 41.8881 20.969H46.0161C46.4404 20.969 46.8474 20.8004 47.1474 20.5004C47.4475 20.2003 47.6161 19.7934 47.6161 19.369V16.873C48.5648 16.5003 49.3537 15.8081 49.8465 14.9159C50.3394 14.0236 50.5053 12.9873 50.3157 11.9858C50.126 10.9843 49.5927 10.0804 48.8077 9.4301C48.0227 8.77984 47.0354 8.424 46.0161 8.424C44.9968 8.424 44.0094 8.77984 43.2244 9.4301C42.4395 10.0804 41.9061 10.9843 41.7165 11.9858C41.5268 12.9873 41.6927 14.0236 42.1856 14.9159C42.6785 15.8081 43.4673 16.5003 44.4161 16.873V17.769H40.5841C40.0076 16.9301 39.2641 16.2192 38.4001 15.681C38.33 14.9753 38.1603 14.2831 37.8961 13.625H38.1201C38.5444 13.625 38.9514 13.4564 39.2514 13.1564C39.5515 12.8563 39.7201 12.4494 39.7201 12.025V8.44901C40.6688 8.07631 41.4577 7.38411 41.9505 6.49186C42.4434 5.59961 42.6093 4.5633 42.4197 3.56178C42.23 2.56026 41.6967 1.65637 40.9117 1.0061C40.1267 0.355839 39.1394 0 38.1201 0C37.1008 0 36.1134 0.355839 35.3284 1.0061C34.5435 1.65637 34.0102 2.56026 33.8205 3.56178C33.6308 4.5633 33.7967 5.59961 34.2896 6.49186C34.7825 7.38411 35.5713 8.07631 36.5201 8.44901V10.425H35.4241C34.1051 9.4256 32.4949 8.88606 30.8401 8.889C30.511 7.95883 30.0006 7.10323 29.3384 6.37178C28.6762 5.64032 27.8754 5.04758 26.9825 4.62789C26.0895 4.2082 25.1221 3.96992 24.1364 3.92685C23.1507 3.88378 22.1662 4.03679 21.2401 4.37701C20.2973 3.94723 19.2753 3.71846 18.2392 3.70526C17.2032 3.69206 16.1757 3.89472 15.2223 4.30033C14.2688 4.70594 13.4102 5.30563 12.7012 6.06121C11.9922 6.81679 11.4483 7.71171 11.1041 8.689H11.0561C9.19021 8.69053 7.39184 9.38714 6.01182 10.6429C4.63179 11.8987 3.76911 13.6236 3.59207 15.481C2.49279 16.148 1.58446 17.0877 0.955136 18.209C0.325809 19.3303 -0.00317409 20.5952 7.29279e-05 21.881C-0.00671204 23.4064 0.460094 24.8962 1.33607 26.145C0.75882 26.9799 0.357345 27.9235 0.156043 28.9184C-0.0452591 29.9133 -0.0421856 30.9387 0.165077 31.9324C0.372339 32.926 0.779463 33.8672 1.36171 34.6986C1.94396 35.5301 2.68917 36.2345 3.55207 36.769C3.55207 36.873 3.55207 36.977 3.55207 37.081C3.54777 37.1423 3.54777 37.2037 3.55207 37.265C3.67785 39.1617 4.51953 40.9398 5.90677 42.2394C7.29401 43.5391 9.12318 44.2631 11.0241 44.265C11.6208 44.2738 12.2167 44.2148 12.8001 44.089C13.4995 45.0429 14.4136 45.8187 15.4684 46.3538C16.5233 46.8889 17.6893 47.1681 18.8721 47.169C19.4651 47.1657 20.0558 47.0932 20.6321 46.953C22.1419 47.4793 23.7808 47.5068 25.3075 47.0315C26.8341 46.5562 28.1678 45.6033 29.1121 44.313C30.4328 44.6379 31.8173 44.5958 33.1158 44.1912C34.4144 43.7865 35.5777 43.0347 36.4801 42.017V42.713C35.5313 43.0857 34.7425 43.7779 34.2496 44.6702C33.7567 45.5624 33.5908 46.5987 33.7805 47.6002C33.9701 48.6017 34.5035 49.5056 35.2884 50.1559C36.0734 50.8062 37.0608 51.162 38.0801 51.162C39.0994 51.162 40.0867 50.8062 40.8717 50.1559C41.6567 49.5056 42.19 48.6017 42.3797 47.6002C42.5693 46.5987 42.4034 45.5624 41.9105 44.6702C41.4177 43.7779 40.6288 43.0857 39.6801 42.713V39.225C39.6859 38.845 39.5563 38.4753 39.3145 38.1821C39.0726 37.889 38.7343 37.6915 38.3601 37.625C38.3601 37.409 38.3601 37.193 38.3601 36.977C39.2071 36.4585 39.9394 35.7725 40.5121 34.961H44.3521V35.857C43.4056 36.2296 42.6188 36.9208 42.1275 37.8115C41.6361 38.7021 41.471 39.7363 41.6606 40.7357C41.8503 41.735 42.3827 42.6369 43.1662 43.2856C43.9496 43.9344 44.9349 44.2894 45.9521 44.2894C46.9693 44.2894 47.9546 43.9344 48.738 43.2856C49.5214 42.6369 50.0539 41.735 50.2435 40.7357C50.4331 39.7363 50.268 38.7021 49.7767 37.8115C49.2853 36.9208 48.4986 36.2296 47.5521 35.857V33.369C47.5521 32.9447 47.3835 32.5377 47.0834 32.2376C46.7834 31.9376 46.3764 31.769 45.9521 31.769H41.8561C41.9168 31.3853 41.9489 30.9975 41.9521 30.609C41.9458 29.5809 41.728 28.5652 41.3121 27.625H42.7601C43.0512 28.3661 43.539 29.0137 44.171 29.4981C44.8029 29.9825 45.5551 30.2853 46.3464 30.3738C47.1377 30.4624 47.9381 30.3334 48.6615 30.0007C49.3849 29.668 50.0039 29.1442 50.4516 28.4858C50.8994 27.8274 51.159 27.0593 51.2025 26.2642C51.2461 25.4692 51.0718 24.6773 50.6986 23.974C50.3254 23.2706 49.7674 22.6824 49.0847 22.2727C48.4019 21.863 47.6203 21.6474 46.8241 21.649ZM19.3761 34.777C19.0469 34.7392 18.7291 34.6338 18.4428 34.4672C18.1564 34.3006 17.9076 34.0765 17.7121 33.809C17.3495 33.3018 17.2032 32.6714 17.3052 32.0564C17.4072 31.4414 17.7492 30.892 18.2561 30.529C18.4592 30.422 18.6368 30.2725 18.7771 30.0907C18.9173 29.909 19.0167 29.6991 19.0687 29.4755C19.1206 29.2519 19.1238 29.0197 19.0781 28.7948C19.0323 28.5698 18.9387 28.3573 18.8036 28.1717C18.6685 27.9861 18.495 27.8318 18.2949 27.7192C18.0949 27.6066 17.8729 27.5384 17.6442 27.5191C17.4154 27.4999 17.1852 27.5301 16.9691 27.6078C16.7531 27.6854 16.5563 27.8086 16.3921 27.969C15.1966 28.8292 14.3912 30.1285 14.1527 31.5819C13.9142 33.0353 14.2621 34.5239 15.1201 35.721C15.6128 36.3974 16.2509 36.9548 16.9875 37.3521C17.724 37.7494 18.5402 37.9766 19.3761 38.017V43.953C19.2083 43.9649 19.0399 43.9649 18.8721 43.953C18.0566 43.9508 17.2584 43.7174 16.5702 43.2798C15.8821 42.8423 15.3321 42.2185 14.9841 41.481C14.855 41.206 14.6502 40.9734 14.3938 40.8105C14.1374 40.6476 13.8399 40.5611 13.5361 40.561C13.3035 40.5607 13.0739 40.6126 12.8641 40.713C12.2965 40.9728 11.6803 41.1092 11.0561 41.113C9.97088 41.1076 8.92776 40.6925 8.1356 39.9508C7.34344 39.2091 6.86071 38.1955 6.78407 37.113C6.90271 36.525 7.23721 36.0028 7.7217 35.6491C8.20619 35.2955 8.80554 35.1361 9.4017 35.2023C9.99786 35.2686 10.5476 35.5557 10.9426 36.007C11.3377 36.4584 11.5494 37.0413 11.5361 37.641C11.5361 38.0653 11.7046 38.4723 12.0047 38.7724C12.3048 39.0724 12.7117 39.241 13.1361 39.241C13.5604 39.241 13.9674 39.0724 14.2674 38.7724C14.5675 38.4723 14.7361 38.0653 14.7361 37.641C14.7331 36.5119 14.389 35.4101 13.7487 34.4801C13.1085 33.5501 12.2021 32.8353 11.1484 32.4296C10.0947 32.0239 8.94302 31.9462 7.84438 32.2066C6.74575 32.467 5.7515 33.0535 4.99207 33.889C4.0815 33.2309 3.46681 32.2406 3.28114 31.1326C3.09547 30.0245 3.35376 28.888 4.00007 27.969C4.38069 28.0334 4.76606 28.0655 5.15207 28.065C6.94216 28.0629 8.65833 27.3508 9.92412 26.0851C11.1899 24.8193 11.902 23.1031 11.9041 21.313C11.9041 21.137 11.9041 20.961 11.9041 20.785C12.1488 20.7338 12.398 20.707 12.6481 20.705C13.5909 20.705 14.4951 21.079 15.1625 21.7449C15.8299 22.4108 16.206 23.3142 16.2081 24.257C16.2081 24.6814 16.3766 25.0883 16.6767 25.3884C16.9768 25.6884 17.3837 25.857 17.8081 25.857C18.2324 25.857 18.6394 25.6884 18.9394 25.3884C19.2395 25.0883 19.4081 24.6814 19.4081 24.257C19.4067 23.2207 19.1671 22.1985 18.7077 21.2695C18.2483 20.3406 17.5815 19.5296 16.7587 18.8995C15.936 18.2693 14.9794 17.8367 13.9629 17.6351C12.9463 17.4335 11.897 17.4684 10.8961 17.737C10.5357 17.1924 10.0993 16.7021 9.60007 16.281C9.28181 15.9978 8.86407 15.8525 8.43874 15.8773C8.0134 15.902 7.61532 16.0947 7.33207 16.413C7.04882 16.7313 6.9036 17.149 6.92836 17.5743C6.95311 17.9997 7.14581 18.3978 7.46407 18.681C8.00117 19.1636 8.37881 19.7981 8.5469 20.5003C8.71499 21.2025 8.66557 21.9393 8.40521 22.6128C8.14484 23.2862 7.68584 23.8646 7.0891 24.2712C6.49237 24.6777 5.78612 24.8932 5.06407 24.889C4.81404 24.887 4.56482 24.8602 4.32007 24.809C3.58709 24.0115 3.18645 22.9641 3.20007 21.881C3.19843 21.041 3.44309 20.2189 3.90378 19.5165C4.36447 18.8141 5.02097 18.2622 5.79207 17.929C6.10084 17.7975 6.36044 17.5723 6.53415 17.2851C6.70787 16.998 6.7869 16.6635 6.76007 16.329C6.7561 16.2811 6.7561 16.2329 6.76007 16.185C6.77521 15.1255 7.18138 14.109 7.90053 13.3308C8.61967 12.5525 9.60105 12.0676 10.6561 11.969C11.1393 12.5345 11.7391 12.9889 12.4143 13.301C13.0895 13.613 13.8242 13.7754 14.5681 13.777C15.0807 13.7744 15.5902 13.6962 16.0801 13.545C16.7326 13.3498 17.34 13.0273 17.8672 12.5961C18.3945 12.165 18.8311 11.6337 19.1521 11.033C19.2637 10.8473 19.3364 10.6409 19.3659 10.4263C19.3953 10.2117 19.3809 9.99329 19.3234 9.78442C19.266 9.57554 19.1667 9.3805 19.0316 9.21113C18.8965 9.04176 18.7285 8.90159 18.5376 8.79911C18.3467 8.69663 18.1371 8.63397 17.9213 8.61494C17.7055 8.59592 17.488 8.62091 17.2822 8.68841C17.0763 8.75591 16.8863 8.86451 16.7237 9.00763C16.5611 9.15075 16.4292 9.3254 16.3361 9.521C16.113 9.93768 15.7496 10.2619 15.3103 10.4362C14.8709 10.6104 14.3841 10.6235 13.9361 10.473C14.1187 9.48703 14.6399 8.59578 15.4096 7.95312C16.1794 7.31046 17.1493 6.95673 18.1521 6.953C18.561 6.95536 18.9675 7.0146 19.3601 7.129L19.3761 34.777ZM34.1681 13.625C34.8303 14.3956 35.1962 15.377 35.2001 16.393V16.537C35.1846 16.7629 35.2172 16.9896 35.2958 17.202C35.3744 17.4143 35.4972 17.6076 35.6561 17.769H30.6801V16.769C30.6801 16.3447 30.5115 15.9377 30.2114 15.6376C29.9114 15.3376 29.5044 15.169 29.0801 15.169H26.5441V13.625H34.1681ZM22.5761 7.289C22.9686 7.17459 23.3752 7.11536 23.7841 7.11301C24.749 7.11648 25.6845 7.44531 26.4394 8.04633C27.1943 8.64734 27.7245 9.4854 27.9441 10.425H24.9441C24.5197 10.425 24.1128 10.5936 23.8127 10.8936C23.5126 11.1937 23.3441 11.6007 23.3441 12.025V15.169H22.5441L22.5761 7.289ZM26.9681 41.689C26.5783 42.5006 25.9469 43.1716 25.1605 43.6099C24.3741 44.0482 23.4713 44.2323 22.5761 44.137V35.889H23.3761V39.225C23.3761 39.6493 23.5446 40.0563 23.8447 40.3564C24.1448 40.6564 24.5517 40.825 24.9761 40.825H28.0001C27.7771 40.8837 27.5695 40.9898 27.3914 41.1362C27.2132 41.2825 27.0688 41.4657 26.9681 41.673V41.689ZM30.8961 41.321C30.274 41.3211 29.6595 41.1845 29.0961 40.921L28.8641 40.841H32.8641C32.2545 41.1506 31.5797 41.3097 30.8961 41.305V41.321ZM35.1361 36.369C35.1766 36.5852 35.1954 36.805 35.1921 37.025C35.1861 37.2313 35.1674 37.437 35.1361 37.641H26.5441V35.889H29.0801C29.3825 35.8874 29.6783 35.8002 29.9332 35.6373C30.188 35.4745 30.3915 35.2428 30.5201 34.969H35.5441C35.3724 35.1516 35.2461 35.372 35.1752 35.6124C35.1043 35.8528 35.0909 36.1065 35.1361 36.353V36.369ZM38.5841 31.785H30.6801V27.625H37.5281C38.3103 28.4215 38.7496 29.4926 38.7521 30.609C38.7533 31.0018 38.6967 31.3927 38.5841 31.769V31.785ZM38.0321 24.441H30.6801V20.969H38.6001C38.6987 21.3315 38.7498 21.7053 38.7521 22.081C38.752 22.9168 38.5012 23.7333 38.0321 24.425V24.441Z" fill="url(#paint0_linear)"/>
<defs>
<linearGradient id="paint0_linear" x1="25.6045" y1="0" x2="25.6045" y2="51.162" gradientUnits="userSpaceOnUse">
<stop stop-color="#9BA3A2"/>
<stop offset="1" stop-color="#626A69"/>
</linearGradient>
</defs>
</svg>
