<svg width="25" height="26" viewBox="0 0 25 26" fill="none" xmlns="http://www.w3.org/2000/svg">
<path fill-rule="evenodd" clip-rule="evenodd" d="M22.9733 3.04465C23.5459 2.44599 23.5248 1.49648 22.9261 0.923852C22.3275 0.351224 21.378 0.372325 20.8053 0.970981L17.4823 4.44505C15.9259 4.12815 14.2089 3.97484 12.5124 3.97484C10.768 3.97484 9.00188 4.13694 7.41093 4.47232L4.06182 0.970981C3.48919 0.372325 2.53968 0.351224 1.94102 0.923852C1.34237 1.49648 1.32127 2.44599 1.89389 3.04465L4.24673 5.50443C3.54479 5.84539 2.91345 6.25946 2.40675 6.76147C1.47638 7.64422 0.907925 9.00238 0.558896 10.3381C0.194377 11.7332 0.0110066 13.3325 0.000481064 14.9008C-0.0100344 16.4676 0.151542 18.0657 0.514636 19.4543C0.863676 20.7892 1.45997 22.1685 2.49713 23.0227L2.50083 23.0257C3.63369 23.9526 5.2504 24.5498 6.93125 24.9245C8.64773 25.3071 10.5915 25.4923 12.5124 25.4923C14.4334 25.4923 16.3771 25.3071 18.0936 24.9245C19.7745 24.5498 21.3912 23.9526 22.524 23.0257L22.5277 23.0227C23.5677 22.1662 24.1536 20.7933 24.4907 19.4663C24.8409 18.0876 24.9862 16.5037 24.9652 14.9497C24.9441 13.3928 24.7554 11.8062 24.4021 10.4147C24.0601 9.06791 23.5186 7.71964 22.6685 6.81286C22.6574 6.8011 22.6462 6.78951 22.6348 6.77811C22.0996 6.24284 21.423 5.80696 20.6699 5.4527L22.9733 3.04465ZM4.51135 8.89943C5.01013 8.40066 6.02024 7.89336 7.52749 7.52234C8.98862 7.16268 10.7367 6.97484 12.5124 6.97484C14.2882 6.97484 16.0362 7.16268 17.4974 7.52234C18.9868 7.88898 19.9908 8.38869 20.4956 8.88176C20.8238 9.24277 21.2008 9.9968 21.4943 11.153C21.7813 12.283 21.9471 13.6316 21.9655 14.9902C21.9838 16.3518 21.8533 17.6636 21.583 18.7277C21.3001 19.8414 20.9216 20.458 20.6222 20.7056C20.0211 21.1964 18.9397 21.6622 17.4409 21.9964C15.9759 22.3229 14.2556 22.4923 12.5124 22.4923C10.7693 22.4923 9.04894 22.3229 7.58396 21.9964C6.08511 21.6622 5.00377 21.1964 4.40265 20.7056C4.10049 20.4556 3.71265 19.8259 3.41706 18.6954C3.13499 17.6166 2.99123 16.2894 3.00041 14.9209C3.00959 13.554 3.17096 12.2083 3.46144 11.0966C3.76517 9.93418 4.15691 9.23279 4.4766 8.93308C4.48837 8.92205 4.49995 8.91083 4.51135 8.89943ZM10.0696 16.7402C9.24118 16.7402 8.5696 17.4117 8.5696 18.2402C8.5696 19.0686 9.24118 19.7402 10.0696 19.7402H14.7975C15.6259 19.7402 16.2975 19.0686 16.2975 18.2402C16.2975 17.4117 15.6259 16.7402 14.7975 16.7402H10.0696Z" fill="black"/>
</svg>
