<svg width="70" height="70" viewBox="0 0 70 70" fill="none" xmlns="http://www.w3.org/2000/svg">
<path d="M42.5822 7.58363C47.0925 3.07238 54.4055 3.07238 58.9167 7.58363C62.7179 11.3838 63.3921 17.3125 60.5535 21.8577L69.2053 30.5086C71.6364 32.9396 67.9392 36.6358 65.5092 34.2057L56.8583 25.5549C52.312 28.3925 46.3843 27.7183 42.5822 23.9162C38.0729 19.4069 38.0729 12.093 42.5822 7.58363ZM46.2784 11.2798C43.8096 13.7487 43.8096 17.7521 46.2784 20.221C48.7482 22.6889 52.7508 22.6889 55.2196 20.221C57.6885 17.7521 57.6885 13.7487 55.2196 11.2798C52.7508 8.81001 48.7482 8.81001 46.2784 11.2798Z" fill="#86EC16"/>
<path d="M1.3999 14V68.6H69.9999" stroke="black" stroke-width="2"/>
<path d="M12.7495 62.7124V41.8359" stroke="black" stroke-width="2"/>
<path d="M35.1499 63.0002V25.2002" stroke="black" stroke-width="2"/>
<path d="M46.3496 63V42" stroke="black" stroke-width="2"/>
<path d="M57.5498 63.0004V50.4004" stroke="black" stroke-width="2"/>
<path d="M68.7495 63.0002V46.2002" stroke="black" stroke-width="2"/>
<path d="M23.9497 63.0004V36.4004" stroke="black" stroke-width="2"/>
</svg>
