<svg width="30" height="30" viewBox="0 0 30 30" fill="none" xmlns="http://www.w3.org/2000/svg">
<path fill-rule="evenodd" clip-rule="evenodd" d="M15 30C23.2843 30 30 23.2843 30 15C30 6.71573 23.2843 0 15 0C6.71573 0 0 6.71573 0 15C0 23.2843 6.71573 30 15 30ZM10 8C8.89543 8 8 8.89543 8 10C8 11.1046 8.89543 12 10 12C11.1046 12 12 11.1046 12 10C12 8.89543 11.1046 8 10 8ZM18 10C18 8.89543 18.8954 8 20 8C21.1046 8 22 8.89543 22 10C22 11.1046 21.1046 12 20 12C18.8954 12 18 11.1046 18 10ZM8 15C8 14.4477 7.55228 14 7 14C6.44772 14 6 14.4477 6 15C6 19.9706 10.0294 24 15 24C19.9706 24 24 19.9706 24 15C24 14.4477 23.5523 14 23 14C22.4477 14 22 14.4477 22 15C22 18.866 18.866 22 15 22C11.134 22 8 18.866 8 15Z" fill="#86EC16"/>
</svg>
