<?xml version="1.0" encoding="utf-8"?>
<!-- Generator: Adobe Illustrator 23.0.6, SVG Export Plug-In . SVG Version: 6.00 Build 0)  -->
<!DOCTYPE svg PUBLIC "-//W3C//DTD SVG 1.1//EN" "http://www.w3.org/Graphics/SVG/1.1/DTD/svg11.dtd" [
	<!ENTITY ns_extend "http://ns.adobe.com/Extensibility/1.0/">
	<!ENTITY ns_ai "http://ns.adobe.com/AdobeIllustrator/10.0/">
	<!ENTITY ns_graphs "http://ns.adobe.com/Graphs/1.0/">
	<!ENTITY ns_vars "http://ns.adobe.com/Variables/1.0/">
	<!ENTITY ns_imrep "http://ns.adobe.com/ImageReplacement/1.0/">
	<!ENTITY ns_sfw "http://ns.adobe.com/SaveForWeb/1.0/">
	<!ENTITY ns_custom "http://ns.adobe.com/GenericCustomNamespace/1.0/">
	<!ENTITY ns_adobe_xpath "http://ns.adobe.com/XPath/1.0/">
]>
<svg version="1.1" xmlns:x="&ns_extend;" xmlns:i="&ns_ai;" xmlns:graph="&ns_graphs;"
	 xmlns="http://www.w3.org/2000/svg" xmlns:xlink="http://www.w3.org/1999/xlink" x="0px" y="0px" viewBox="0 0 33.6 33.9"
	 style="enable-background:new 0 0 33.6 33.9;" xml:space="preserve">
<style type="text/css">
	.st0{fill:#FFFFFF;stroke:#000000;stroke-width:0.5;stroke-miterlimit:10;}
	.st1{fill:none;stroke:#000000;stroke-width:0.35;stroke-miterlimit:10;}
	.st2{fill:#FFFFFF;stroke:#000000;stroke-width:0.35;stroke-miterlimit:10;}
	.st3{stroke:#FFFFFF;stroke-width:0.35;stroke-miterlimit:10;}
	.st4{fill:#FFFFFF;}
	.st5{fill:none;stroke:#000000;stroke-miterlimit:10;}
	.st6{stroke:#000000;stroke-width:0.35;stroke-miterlimit:10;}
	.st7{fill:none;stroke:#86ED18;stroke-width:0.35;stroke-linejoin:round;stroke-miterlimit:10;}
	.st8{display:none;}
	.st9{display:inline;}
	.st10{display:inline;fill:#FFFFFF;}
	.st11{display:inline;fill:none;stroke:#000000;stroke-width:3;stroke-miterlimit:10;}
</style>
<metadata>
	<sfw  xmlns="&ns_sfw;">
		<slices></slices>
		<sliceSourceBounds  bottomLeftOrigin="true" height="32.6" width="63.2" x="622.5" y="-528.2"></sliceSourceBounds>
	</sfw>
</metadata>
<g id="Ebene_1">
	<circle class="st0" cx="16.6" cy="16.6" r="15.5"/>
	<path class="st1" d="M20.7,31.6l-8.2,0c0,0-1-0.1-2.2-0.8c-0.1,0,0-0.1,0-0.2l0-11.1c0-0.5,0.5-1,1-1l10.3,0c0.5,0,1,0.5,1,1
		l0,11.1c0,0.1,0,0.3-0.1,0.4C21.5,31.5,20.7,31.6,20.7,31.6z"/>
	<path class="st2" d="M19.9,30.1l-6.7,0c-0.5,0-1-0.5-1-1l0-7.3c0-0.5,0.5-1,1-1l6.7,0c0.5,0,1,0.5,1,1l0,7.3
		C20.9,29.7,20.4,30.1,19.9,30.1z"/>
	<circle cx="13.3" cy="20.1" r="0.2"/>
	<circle cx="14" cy="20.1" r="0.2"/>
	<circle cx="14.6" cy="20.1" r="0.2"/>
	<path class="st3" d="M19.5,29.8l-6,0c-0.5,0-1-0.5-1-1l0-6.6c0-0.5,0.5-1,1-1l6,0c0.5,0,1,0.5,1,1l0,6.6
		C20.5,29.4,20.1,29.8,19.5,29.8z"/>
	<path class="st4" d="M14.1,25.6c0,1.4,1.1,2.5,2.4,2.5c0.2,0,0.4,0,0.6-0.1l0-1.4c-0.2,0.1-0.4,0.1-0.6,0.1c-0.6,0-1.1-0.5-1.1-1.2
		c0-0.6,0.5-1.2,1.1-1.2c0.2,0,0.4,0.1,0.6,0.1l0-1.4c-0.2,0-0.4-0.1-0.6-0.1C15.2,23.1,14.1,24.2,14.1,25.6z M17.7,23.4l0,4.4
		c0.8-0.4,1.3-1.2,1.3-2.2C19,24.6,18.5,23.8,17.7,23.4L17.7,23.4z"/>
	<circle class="st5" cx="16.6" cy="16.6" r="15.5"/>
	<polygon class="st2" points="16.7,4.8 16.3,4.8 16.2,6.9 16.9,6.9 	"/>
	<ellipse transform="matrix(1.531030e-03 -1 1 1.531030e-03 8.5296 24.3435)" class="st2" cx="16.5" cy="7.9" rx="1.1" ry="1.8"/>
	<ellipse transform="matrix(1.531030e-03 -1 1 1.531030e-03 -1.8616 22.9175)" class="st2" cx="10.5" cy="12.4" rx="1.9" ry="0.9"/>
	<ellipse transform="matrix(1.531030e-03 -1 1 1.531030e-03 10.1007 34.9349)" class="st2" cx="22.5" cy="12.4" rx="1.9" ry="0.9"/>
	<circle class="st2" cx="16.5" cy="4.1" r="0.8"/>
	<path class="st2" d="M21.6,17.2l-10.1,0c-0.5,0-1-0.5-1-1l0-7.8c0-0.5,0.5-1,1-1l10.1,0c0.5,0,1,0.5,1,1l0,7.8
		C22.6,16.8,22.1,17.2,21.6,17.2z"/>
	<path class="st6" d="M19.5,12.5c0.1,0,0.1,0,0.1-0.1s0-0.1-0.1-0.1c-0.1,0-0.1,0-0.1,0.1S19.4,12.5,19.5,12.5z"/>
	<path class="st6" d="M19,13c0.1,0,0.1,0,0.1-0.1c0-0.1,0-0.1-0.1-0.1c-0.1,0-0.1,0-0.1,0.1C18.9,13,18.9,13,19,13z"/>
	<path class="st6" d="M20.5,12.5c0.1,0,0.1,0,0.1-0.1s0-0.1-0.1-0.1s-0.1,0-0.1,0.1S20.4,12.5,20.5,12.5z"/>
	<path class="st6" d="M19.5,13.5c0.1,0,0.1,0,0.1-0.1s0-0.1-0.1-0.1c-0.1,0-0.1,0-0.1,0.1S19.4,13.5,19.5,13.5z"/>
	<path class="st6" d="M20.5,13.5c0.1,0,0.1,0,0.1-0.1s0-0.1-0.1-0.1s-0.1,0-0.1,0.1C20.4,13.5,20.4,13.5,20.5,13.5z"/>
	<path class="st6" d="M20,13c0.1,0,0.1,0,0.1-0.1c0-0.1,0-0.1-0.1-0.1c-0.1,0-0.1,0-0.1,0.1C19.9,13,19.9,13,20,13z"/>
	<path class="st6" d="M21,13c0.1,0,0.1,0,0.1-0.1c0-0.1,0-0.1-0.1-0.1s-0.1,0-0.1,0.1C20.9,13,21,13,21,13z"/>
	<path class="st6" d="M12.4,12.5c0.1,0,0.1,0,0.1-0.1s0-0.1-0.1-0.1c-0.1,0-0.1,0-0.1,0.1C12.3,12.5,12.4,12.5,12.4,12.5z"/>
	<path class="st6" d="M11.9,13c0.1,0,0.1,0,0.1-0.1c0-0.1,0-0.1-0.1-0.1c-0.1,0-0.1,0-0.1,0.1C11.8,13,11.9,13,11.9,13z"/>
	<path class="st6" d="M13.4,12.5c0.1,0,0.1,0,0.1-0.1s0-0.1-0.1-0.1c-0.1,0-0.1,0-0.1,0.1S13.4,12.5,13.4,12.5z"/>
	<path class="st6" d="M12.4,13.5c0.1,0,0.1,0,0.1-0.1s0-0.1-0.1-0.1c-0.1,0-0.1,0-0.1,0.1S12.4,13.5,12.4,13.5z"/>
	<path class="st6" d="M13.4,13.5c0.1,0,0.1,0,0.1-0.1s0-0.1-0.1-0.1s-0.1,0-0.1,0.1C13.3,13.5,13.4,13.5,13.4,13.5z"/>
	<path class="st6" d="M12.9,13c0.1,0,0.1,0,0.1-0.1c0-0.1,0-0.1-0.1-0.1c-0.1,0-0.1,0-0.1,0.1C12.8,13,12.9,13,12.9,13z"/>
	<path class="st6" d="M14,13c0.1,0,0.1,0,0.1-0.1c0-0.1,0-0.1-0.1-0.1c-0.1,0-0.1,0-0.1,0.1C13.9,13,13.9,13,14,13z"/>
	<path class="st7" d="M15.2,13c0,0.8,0.7,1.5,1.5,1.5s1.5-0.7,1.5-1.5"/>
	<path class="st1" d="M18.4,11.2c0.2,0,0.4-0.2,0.4-0.4s-0.2-0.4-0.4-0.4c-0.2,0-0.4,0.2-0.4,0.4C18,11.1,18.2,11.2,18.4,11.2z"/>
	<path class="st1" d="M14.9,11.2c0.2,0,0.4-0.2,0.4-0.4c0-0.2-0.2-0.4-0.4-0.4c-0.2,0-0.4,0.2-0.4,0.4C14.5,11,14.7,11.2,14.9,11.2z
		"/>
	
		<rect id="Hals_1_" x="14.9" y="17.3" transform="matrix(1 1.531030e-03 -1.531030e-03 1 2.744892e-02 -2.522296e-02)" class="st2" width="3.2" height="1.3"/>
	<path class="st6" d="M10.3,20.7c0,0-3.4,1.6-3.4,5.5l1.4,0c0,0,0-2.4,2-3.9L10.3,20.7z"/>
	<path class="st2" d="M8.1,29.8l-1,0c-0.3,0-0.5-0.2-0.5-0.5l0-2.7c0-0.3,0.2-0.5,0.5-0.5l1,0c0.3,0,0.5,0.2,0.5,0.5l0,2.7
		C8.5,29.6,8.3,29.8,8.1,29.8z"/>
	<path class="st2" d="M7.6,28.4c-1.3,0-2.3,1-2.3,2.3c0,1.1,0.8,2.1,1.9,2.3l0-1.1c-0.4-0.1-0.8-0.6-0.8-1.1c0-0.6,0.5-1.1,1.1-1.1
		c0.6,0,1.1,0.5,1.1,1.1c0,0.5-0.3,0.9-0.8,1.1l0,1.1c1.1-0.2,1.9-1.1,1.9-2.2C9.9,29.5,8.9,28.5,7.6,28.4z"/>
	<circle class="st2" cx="7.6" cy="28.7" r="1.4"/>
	<polygon points="7.6,28.1 7,28.4 7,29.1 7.6,29.4 8.1,29.1 8.1,28.4 	"/>
	<path class="st6" d="M22.6,20.7c0,0,3.4,1.7,3.4,5.5l-1.4,0c0,0,0-2.4-2-3.9L22.6,20.7z"/>
	<path class="st2" d="M24.8,29.8l1,0c0.3,0,0.5-0.2,0.5-0.5l0-2.7c0-0.3-0.2-0.5-0.5-0.5l-1,0c-0.3,0-0.5,0.2-0.5,0.5l0,2.7
		C24.3,29.6,24.5,29.8,24.8,29.8z"/>
	<path class="st2" d="M25.2,28.5c1.3,0,2.3,1,2.3,2.3c0,1.1-0.8,2.1-1.9,2.2l0-1.1c0.4-0.1,0.8-0.6,0.8-1.1c0-0.6-0.5-1.1-1.1-1.1
		c-0.6,0-1.1,0.5-1.1,1.1c0,0.5,0.3,0.9,0.8,1.1l0,1.1c-1.1-0.2-1.9-1.1-1.9-2.3C23,29.5,24,28.5,25.2,28.5z"/>
	<circle class="st2" cx="25.3" cy="28.8" r="1.4"/>
	<polygon points="25.3,28.1 24.7,28.4 24.7,29.1 25.3,29.4 25.8,29.1 25.8,28.4 	"/>
</g>
<g id="Ebene_2" class="st8">
	<path class="st9" d="M-18.5,5.3l-1.1-3.2l-9.3,2.8l1,3.3c0.8,2.6,3.5,4.1,6.1,3.3C-19.2,10.7-17.7,7.9-18.5,5.3L-18.5,5.3z"/>
	<path class="st10" d="M-24.1,10.1c-1.8,0.5-3.7-0.5-4.2-2.3c-0.5-1.8,0.5-3.7,2.3-4.2c1.8-0.5,3.7,0.5,4.2,2.3
		C-21.2,7.7-22.3,9.6-24.1,10.1L-24.1,10.1z"/>
	<path class="st11" d="M-18.2,6.3l-1.2-3.5l-9.3,2.8l1.1,3.5c0.8,2.6,3.5,4.1,6.1,3.3C-18.9,11.6-17.4,8.9-18.2,6.3L-18.2,6.3z"/>
</g>
</svg>
