<svg xmlns="http://www.w3.org/2000/svg" width="160" height="144" fill="none" viewBox="0 0 160 144">
    <path fill="#fff" stroke="#000" stroke-miterlimit="10" stroke-width="3" d="M8.375 17.203c1.132 0 2.05-.92 2.05-2.054a2.052 2.052 0 0 0-2.05-2.053c-1.133 0-2.05.919-2.05 2.053s.917 2.054 2.05 2.054zM8.375 33.267c1.132 0 2.05-.92 2.05-2.053a2.052 2.052 0 0 0-2.05-2.054c-1.133 0-2.05.92-2.05 2.054s.917 2.053 2.05 2.053z"/>
    <path fill="#fff" stroke="#000" stroke-miterlimit="10" stroke-width="3" d="M158.5 1.5H1.5v93.37h157V1.5z"/>
    <path stroke="#000" stroke-miterlimit="10" stroke-width="3" d="M1.5 12.613h157"/>
    <path fill="#000" d="M7.407 9.352a2.293 2.293 0 0 0 2.29-2.295 2.293 2.293 0 0 0-2.29-2.295 2.293 2.293 0 0 0-2.291 2.295 2.293 2.293 0 0 0 2.29 2.295zM15.973 9.352a2.293 2.293 0 0 0 2.291-2.295 2.293 2.293 0 0 0-2.29-2.295 2.293 2.293 0 0 0-2.292 2.295 2.293 2.293 0 0 0 2.291 2.295zM24.414 9.352a2.293 2.293 0 0 0 2.29-2.295 2.293 2.293 0 0 0-2.29-2.295 2.293 2.293 0 0 0-2.291 2.295 2.293 2.293 0 0 0 2.29 2.295z"/>
    <path fill="#fff" stroke="#000" stroke-width="3" d="M35.378 35.256c0 2.47-1.975 4.444-4.378 4.444-2.402 0-4.378-1.974-4.378-4.444 0-2.47 1.976-4.444 4.378-4.444 2.403 0 4.378 1.974 4.378 4.444zM31 45.77c7.19 0 13 5.851 13 13.162v5.632H18v-5.632c0-7.31 5.81-13.162 13-13.162z"/>
    <path stroke="#000" stroke-miterlimit="10" stroke-width="3" d="M55.5 31.486h67.889M55.5 39.217h67.889M55.5 47.067h33.884"/>
    <path stroke="#86ED18" stroke-miterlimit="10" stroke-width="3" d="M84.5 141.556c-22.133 0-40-17.747-40-39.732s17.867-39.732 40-39.732c19.829 0 36.233 14.243 39.434 33.017M84.498 141.556c20.667 0 30.4-12.317 22.267-20.396"/>
    <path fill="#fff" stroke="#86ED18" stroke-miterlimit="10" stroke-width="3" d="M107.299 112.419c1.066.662 2.8 1.722 2.4 3.973-.267 1.589-3.6 7.946-10.8 7.946-7.2 0-16-5.562-23.734-13.376-7.733-7.681-13.333-16.422-13.333-23.574 0-7.152 6.4-10.463 8-10.728 2.267-.265 3.2 1.325 4 2.384.667 1.06 4.8 7.284 5.467 8.211.666.927 1.333 3.311-1.067 5.166-2.267 1.854-4.8 2.913 3.867 11.522 8.8 8.741 9.733 6.224 11.6 3.84 1.866-2.251 4.266-1.589 5.2-1.059 1.066.927 7.466 5.033 8.4 5.695z"/>
    <path stroke="#000" stroke-width="3" d="M111.5 94.428H143"/>
</svg>
