<?xml version="1.0" encoding="utf-8"?>
<!-- Generator: Adobe Illustrator 23.0.1, SVG Export Plug-In . SVG Version: 6.00 Build 0)  -->
<svg version="1.1" id="Ebene_1" xmlns="http://www.w3.org/2000/svg" xmlns:xlink="http://www.w3.org/1999/xlink" x="0px" y="0px"
	 viewBox="0 0 156 215" style="enable-background:new 0 0 156 215;" xml:space="preserve">
<style type="text/css">
	.st0{fill:#FFFFFF;stroke:#000000;stroke-width:3;stroke-miterlimit:10;}
	.st1{fill:none;stroke:#86ED18;stroke-width:3;stroke-miterlimit:10;}
	.st2{fill:#FFFFFF;}
	.st3{fill:none;stroke:#000000;stroke-width:3;stroke-miterlimit:10;}
	.st4{stroke:#000000;stroke-width:0.75;stroke-miterlimit:10;}
	.st5{fill:none;stroke:#86ED18;stroke-width:3;stroke-linejoin:round;stroke-miterlimit:10;}
</style>
<path class="st0" d="M26.5,76.4h-25v22.8h25V76.4z M73.5,101.1h-26v22.8h26V101.1z M26.5,122.1h-25v22.8h25V122.1z"/>
<path class="st1" d="M85.5,96.5l-21.2,19.2l-8.8-8"/>
<path class="st2" d="M74,168.7l-23.2-21.2c-2.5-2.2-2.5-5.9,0-8.2c2.5-2.3,6.4-2.3,8.9,0l27.1,24.7l9.8-9.1c2.4-2.3,6.4-2.3,8.9,0
	s2.5,5.9,0,8.2l-9.8,9.1l7.8,7.1l-35.5,33.1l-31.6-28.9"/>
<path class="st3" d="M74,168.7l-23.2-21.2c-2.5-2.2-2.5-5.9,0-8.2c2.5-2.3,6.4-2.3,8.9,0l27.1,24.7l9.8-9.1c2.4-2.3,6.4-2.3,8.9,0
	s2.5,5.9,0,8.2l-9.8,9.1l7.8,7.1l-35.5,33.1l-31.6-28.9"/>
<path class="st2" d="M54.1,167l10.8,10c2.5,2.2,2.5,5.9,0,8.3c-2.4,2.3-6.3,2.3-8.8,0l-10.8-10.2l10.8,10c2.5,2.2,2.5,5.9,0,8.2
	c-2.5,2.3-6.3,2.3-8.8,0l-10.8-10.2l26.3-24.6l10.8,10.2c2.5,2.2,2.5,5.9,0,8.2c-2.4,2.3-6.3,2.3-8.8,0"/>
<path class="st3" d="M54.1,167l10.8,10c2.5,2.2,2.5,5.9,0,8.3c-2.4,2.3-6.3,2.3-8.8,0l-10.8-10.2l10.8,10c2.5,2.2,2.5,5.9,0,8.2
	c-2.5,2.3-6.3,2.3-8.8,0l-10.8-10.2l26.3-24.6l10.8,10.2c2.5,2.2,2.5,5.9,0,8.2c-2.4,2.3-6.3,2.3-8.8,0"/>
<path class="st1" d="M39.5,70.9L17.6,91l-9.1-8.4"/>
<path class="st0" d="M70.9,64.1c5.8,0,10.4-4.7,10.4-10.4c0-5.7-4.7-10.4-10.4-10.4c-5.8,0-10.4,4.7-10.4,10.4
	C60.5,59.5,65.2,64.1,70.9,64.1z M144,64.1c5.8,0,10.4-4.7,10.4-10.4c0-5.7-4.7-10.4-10.4-10.4c-5.8,0-10.4,4.7-10.4,10.4
	C133.6,59.5,138.3,64.1,144,64.1z"/>
<path class="st0" d="M107.7,91c20.3,0,36.7-16.4,36.7-36.6S128,17.8,107.7,17.8S70.9,34.2,70.9,54.4C70.9,74.6,87.4,91,107.7,91
	L107.7,91z"/>
<path class="st4" d="M127,55.5c0.4,0,0.7-0.3,0.7-0.7v0c0-0.4-0.3-0.7-0.7-0.7c-0.4,0-0.7,0.3-0.7,0.7
	C126.3,55.2,126.6,55.5,127,55.5z M123.7,58.6c0.4,0,0.7-0.3,0.8-0.6c0-0.4-0.3-0.7-0.6-0.8c0,0-0.1,0-0.1,0c-0.4,0-0.7,0.4-0.7,0.7
	C123.1,58.3,123.4,58.6,123.7,58.6L123.7,58.6z M133.5,55.5c0.4,0,0.7-0.3,0.7-0.7c0,0,0,0,0,0c0-0.4-0.3-0.7-0.7-0.7
	c-0.4,0-0.7,0.3-0.7,0.7C132.8,55.2,133.1,55.5,133.5,55.5L133.5,55.5z M127,62c0.4,0,0.7-0.3,0.7-0.7c0-0.4-0.3-0.7-0.7-0.7l0,0
	c-0.4,0-0.7,0.3-0.7,0.7C126.3,61.7,126.6,62,127,62z M133.5,62c0.4,0,0.7-0.3,0.7-0.7c0-0.4-0.3-0.7-0.7-0.7l0,0
	c-0.4,0-0.7,0.3-0.7,0.7C132.8,61.7,133.1,62,133.5,62L133.5,62z M130.3,58.6c0.4,0,0.7-0.3,0.7-0.7v0c0-0.4-0.3-0.7-0.7-0.7
	c-0.4,0-0.7,0.3-0.7,0.7C129.6,58.3,129.9,58.6,130.3,58.6z M137,58.6c0.4,0,0.7-0.3,0.8-0.6c0-0.4-0.3-0.7-0.6-0.8c0,0-0.1,0-0.1,0
	c-0.4,0-0.7,0.3-0.7,0.7C136.2,58.3,136.5,58.6,137,58.6C136.9,58.6,137,58.6,137,58.6L137,58.6z M81.2,55.5c0.4,0,0.7-0.3,0.7-0.7
	l0,0c0-0.4-0.3-0.7-0.7-0.7c-0.4,0-0.7,0.3-0.7,0.7C80.5,55.2,80.8,55.5,81.2,55.5z M78,58.6c0.4,0,0.7-0.3,0.8-0.6
	c0-0.4-0.3-0.7-0.6-0.8c0,0-0.1,0-0.1,0c-0.4,0-0.7,0.4-0.7,0.7C77.4,58.3,77.6,58.6,78,58.6L78,58.6z M87.6,55.5
	c0.4,0,0.7-0.3,0.7-0.7c0,0,0,0,0,0c0-0.4-0.3-0.7-0.7-0.7c-0.4,0-0.7,0.3-0.7,0.7C86.9,55.2,87.2,55.5,87.6,55.5L87.6,55.5z
	 M81.2,62c0.4,0,0.7-0.3,0.7-0.7c0-0.4-0.3-0.7-0.7-0.7l0,0c-0.4,0-0.7,0.3-0.7,0.7C80.5,61.7,80.8,62,81.2,62z M87.6,62
	c0.4,0,0.7-0.3,0.7-0.7c0-0.4-0.3-0.7-0.7-0.7l0,0c-0.4,0-0.7,0.3-0.7,0.7C86.9,61.7,87.2,62,87.6,62L87.6,62z M84.4,58.6
	c0.4,0,0.7-0.3,0.8-0.6c0-0.4-0.3-0.7-0.6-0.8c0,0-0.1,0-0.1,0c-0.4,0-0.7,0.4-0.7,0.7C83.8,58.3,84.1,58.6,84.4,58.6L84.4,58.6z
	 M91.1,58.6c0.4,0,0.7-0.3,0.7-0.7c0-0.4-0.3-0.7-0.7-0.7c-0.4,0-0.7,0.3-0.7,0.7C90.4,58.3,90.7,58.6,91.1,58.6z"/>
<path class="st5" d="M98.9,58.4c0,5.4,4.3,9.6,9.6,9.6c5.3,0,9.6-4.3,9.6-9.6"/>
<path class="st3" d="M120,47.1c1.5,0,2.7-1.2,2.7-2.7c0-1.5-1.2-2.7-2.7-2.7c0,0,0,0,0,0c-1.5,0-2.7,1.2-2.7,2.7
	C117.3,45.9,118.5,47.1,120,47.1z M97.1,47.1c1.5,0,2.7-1.2,2.7-2.7c0,0,0,0,0,0c0-1.5-1.2-2.7-2.7-2.7c0,0,0,0,0,0
	c-1.5,0-2.7,1.2-2.7,2.7C94.4,45.9,95.6,47.1,97.1,47.1z M127.9,36.3c-0.1,3.7,2.6,7.2,6.6,7.9c3.6,0.6,7.4-1.5,8.7-5
	c1.1-2.9,0.4-6.1-1.6-8.1c-0.2-0.2,0-0.5,0.2-0.4c1.1,0.4,2.2,0.5,3.6,0.2c2.7-0.5,4.9-2.2,6-4.7c1.9-4.6-0.7-9.5-5.3-10.6
	c-2.8-0.7-5.6,0.2-7.5,2.1c-0.2,0.2-0.5,0-0.4-0.2c0.5-1.5,0.7-3.2,0.6-5c-0.5-4.6-3.5-8.6-7.9-10.2c-6.1-2.2-12.7,0.7-15.3,6.2
	c-10.2-1.1-18.2,4.1-21.4,11.5"/>
</svg>
