<svg xmlns="http://www.w3.org/2000/svg" width="160" height="123" fill="none" viewBox="0 0 160 123">
    <path fill="#fff" d="M10.666 120.675V18.772h138.66v101.903"/>
    <path stroke="#202020" stroke-miterlimit="10" stroke-width="3" d="M10.666 120.675V18.772h138.66v101.903"/>
    <path fill="#202020" stroke="#fff" stroke-miterlimit="10" stroke-width="2" d="M74.262 66.066H26.826v5.854h47.436v-5.854zM74.262 75.545H26.826v5.853h47.436v-5.853zM74.262 84.856H26.826v5.853h47.436v-5.853z"/>
    <path fill="#86ED18" d="M20.97 70.938a1.94 1.94 0 0 0 1.934-1.945 1.94 1.94 0 0 0-1.934-1.945 1.94 1.94 0 0 0-1.935 1.945 1.94 1.94 0 0 0 1.934 1.945zM20.97 80.417a1.94 1.94 0 0 0 1.934-1.945 1.94 1.94 0 0 0-1.934-1.946 1.94 1.94 0 0 0-1.935 1.946 1.94 1.94 0 0 0 1.934 1.945zM20.97 89.727a1.94 1.94 0 0 0 1.934-1.945 1.94 1.94 0 0 0-1.934-1.945 1.94 1.94 0 0 0-1.935 1.945 1.94 1.94 0 0 0 1.934 1.945z"/>
    <path fill="#fff" d="M128.725 120.585v-48.94h7.605v48.94"/>
    <path stroke="#202020" stroke-miterlimit="10" stroke-width="3" d="M128.725 120.585v-48.94h7.605v48.94"/>
    <path fill="#fff" d="M113.504 120.585V83.299h7.606v37.286"/>
    <path stroke="#202020" stroke-miterlimit="10" stroke-width="3" d="M113.504 120.585V83.299h7.606v37.286"/>
    <path fill="#fff" d="M98.284 120.585V94.961h7.606v25.624"/>
    <path stroke="#202020" stroke-miterlimit="10" stroke-width="3" d="M98.284 120.585V94.961h7.606v25.624"/>
    <path fill="#fff" d="M83.064 120.585v-13.97h7.606v13.97"/>
    <path stroke="#202020" stroke-miterlimit="10" stroke-width="3" d="M83.064 120.585v-13.97h7.606v13.97M138.238 120.585H81.156"/>
    <path fill="#86ED18" d="M71.08 0v26.048h25.903C96.983 11.662 85.385 0 71.079 0z"/>
    <path fill="#fff" stroke="#202020" stroke-miterlimit="10" stroke-width="3" d="M63.104 8.01C48.8 8.01 37.201 19.674 37.201 34.06S48.8 60.107 63.104 60.107c7.158 0 13.629-2.918 18.315-7.63l-18.315-18.41V8.012zM75.063 34.068l16.486 15.907a25.959 25.959 0 0 0 5.425-15.907H75.062z"/>
    <path stroke="#86ED18" stroke-miterlimit="10" stroke-width="3" d="M61.637 120.612l75.045-72.362"/>
    <path fill="#86ED18" d="M137.843 62.167l-2.638-.15.747-13.06-13.004.204-.035-2.653 15.835-.247-.905 15.906z"/>
    <path stroke="#202020" stroke-miterlimit="10" stroke-width="3" d="M0 120.675h160"/>
</svg>
