<svg xmlns="http://www.w3.org/2000/svg" width="161" height="131" fill="none" viewBox="0 0 161 131">
    <path stroke="#86ED18" stroke-miterlimit="10" stroke-width="3" d="M4.861 77.309l52.951 32.665M76.244 23.617l45.922 28.01"/>
    <path fill="#fff" d="M73.9 22.064V9.184l-7.73-7.68H32.508v20.56"/>
    <path stroke="#000" stroke-miterlimit="10" stroke-width="3" d="M73.9 22.064V9.184l-7.73-7.68H32.508v20.56M9.235 1.503v10.32"/>
    <path fill="#fff" d="M20.95 78.628H73.9a5.133 5.133 0 0 0 5.155-5.121V27.186c0-2.871-2.343-5.121-5.154-5.121H24.855"/>
    <path stroke="#000" stroke-miterlimit="10" stroke-width="3" d="M20.95 78.628H73.9a5.133 5.133 0 0 0 5.155-5.121V27.186c0-2.871-2.343-5.121-5.154-5.121H24.855"/>
    <path stroke="#000" stroke-miterlimit="10" stroke-width="3" d="M67.106 29.823h-30.38v10.242h30.38V29.823z"/>
    <path fill="#fff" stroke="#000" stroke-miterlimit="10" stroke-width="3" d="M39.537 51.083c.863 0 1.562-.695 1.562-1.552 0-.857-.699-1.551-1.562-1.551-.862 0-1.562.694-1.562 1.551s.7 1.552 1.562 1.552zM51.955 51.083c.863 0 1.562-.695 1.562-1.552 0-.857-.7-1.551-1.562-1.551-.863 0-1.562.694-1.562 1.551s.7 1.552 1.562 1.552zM64.373 51.083c.862 0 1.562-.695 1.562-1.552 0-.857-.7-1.551-1.562-1.551-.863 0-1.562.694-1.562 1.551s.7 1.552 1.562 1.552zM39.537 60.86c.863 0 1.562-.695 1.562-1.552 0-.857-.699-1.552-1.562-1.552-.862 0-1.562.695-1.562 1.552 0 .857.7 1.551 1.562 1.551zM51.955 60.86c.863 0 1.562-.695 1.562-1.552 0-.857-.7-1.552-1.562-1.552-.863 0-1.562.695-1.562 1.552 0 .857.7 1.551 1.562 1.551zM62.264 60.627c.733 0 1.328-.59 1.328-1.32 0-.728-.595-1.318-1.328-1.318-.733 0-1.328.59-1.328 1.319 0 .728.595 1.319 1.328 1.319zM39.537 71.179c.863 0 1.562-.695 1.562-1.552 0-.857-.699-1.552-1.562-1.552-.862 0-1.562.695-1.562 1.552 0 .857.7 1.552 1.562 1.552zM51.955 71.179c.863 0 1.562-.695 1.562-1.552 0-.857-.7-1.552-1.562-1.552-.863 0-1.562.695-1.562 1.552 0 .857.7 1.552 1.562 1.552zM62.264 70.946c.733 0 1.328-.59 1.328-1.319 0-.728-.595-1.319-1.328-1.319-.733 0-1.328.59-1.328 1.32 0 .728.595 1.318 1.328 1.318zM24.776 73.507c0 2.87-2.342 5.12-5.154 5.12H6.658a5.133 5.133 0 0 1-5.155-5.12V16.944c0-2.871 2.343-5.121 5.155-5.121h12.964a5.133 5.133 0 0 1 5.154 5.12v56.564z"/>
    <path fill="#fff" stroke="#000" stroke-miterlimit="10" stroke-width="3" d="M159.497 50.54H57.812v59.978h101.685V50.541z"/>
    <path stroke="#000" stroke-miterlimit="10" stroke-width="3" d="M57.813 57.679h101.684"/>
    <path fill="#000" d="M61.64 55.583c.819 0 1.483-.66 1.483-1.474a1.48 1.48 0 0 0-1.484-1.474c-.82 0-1.484.66-1.484 1.474a1.48 1.48 0 0 0 1.484 1.474zM67.184 55.583c.82 0 1.484-.66 1.484-1.474a1.48 1.48 0 0 0-1.484-1.474c-.82 0-1.484.66-1.484 1.474a1.48 1.48 0 0 0 1.484 1.474zM72.651 55.583c.82 0 1.484-.66 1.484-1.474a1.48 1.48 0 0 0-1.484-1.474c-.82 0-1.484.66-1.484 1.474a1.48 1.48 0 0 0 1.484 1.474z"/>
    <path fill="#fff" stroke="#86ED18" stroke-width="3" d="M82.004 75.912c0 1.732-1.416 3.153-3.183 3.153s-3.183-1.421-3.183-3.153c0-1.731 1.416-3.152 3.183-3.152s3.183 1.42 3.183 3.152zM78.821 84.476c5.583 0 10.055 4.457 10.055 9.98v4.084h-20.11v-4.084c0-5.523 4.472-9.98 10.055-9.98z"/>
    <path stroke="#86ED18" stroke-miterlimit="10" stroke-width="3" d="M98.346 72.653h43.969M98.346 77.619h43.969M98.346 82.663h21.945"/>
    <path stroke="#000" stroke-miterlimit="10" stroke-width="3" d="M40.319 11.823h25.85"/>
    <path fill="#fff" d="M128.023 93.138c.078 1.396-.859 32.975-.859 32.975l3.905-1.629 4.608-4.733.937.233 5.389 9.621 2.342-.311 1.484-1.241v-3.026l-.937-1.009-2.343-4.733s-.468-2.405-.312-2.405c.156 0 8.513.31 8.513.31l-.469-1.784-22.258-22.734"/>
    <path fill="#000" d="M128.804 95.775h2.03v-2.017h-2.108V91.74h-2.031v34.838h4.139v-2.017h-2.03V95.775zM151.531 118.354v-4.112H149.5v2.017h-8.278v4.112h2.03v-2.095c2.812.078 5.545.078 8.279.078zM141.222 130.613h4.139v-2.017h-4.139v2.017zM147.391 128.595v-4.112h-2.03v4.112h2.03zM139.113 124.483v4.112h2.031v-4.112h-2.031zM145.361 124.483v-4.112h-2.031v4.112h2.031zM137.083 120.371v4.112h2.03v-4.112h-2.03zM147.391 112.147v-2.017h-2.03v2.017h2.03zM149.422 114.241v-2.017h-2.031v2.017h2.031zM145.283 110.129v-2.017h-2.031v2.017h2.031zM134.974 118.354v2.017H137.004v-2.017h-2.03zM132.943 122.466h2.031v-2.017h-2.031v2.017zM143.252 108.035v-2.018h-2.03v2.018h2.03zM141.144 106.017v-2.018h-2.031v2.018h2.031zM139.113 104v-2.017h-2.03V104h2.03zM130.913 124.483h2.03v-2.017h-2.03a8.715 8.715 0 0 0 0 2.017zM137.082 101.905v-2.018h-2.03v2.018h2.03zM134.974 99.888V97.87h-2.031v2.018h2.031zM132.943 97.793v-2.018h-2.03v2.017h2.03z"/>
</svg>
