<svg xmlns="http://www.w3.org/2000/svg" width="156" height="215" fill="none" viewBox="0 0 156 215">
    <path fill="#fff" stroke="#000" stroke-miterlimit="10" stroke-width="3" d="M26.5 76.407h-25v22.838h25V76.407zM73.5 101.071h-26v22.838h26v-22.838zM26.5 122.082h-25v22.838h25v-22.838z"/>
    <path stroke="#86ED18" stroke-miterlimit="10" stroke-width="3" d="M85.5 96.504l-21.17 19.184-8.83-8.002"/>
    <path fill="#fff" d="M74.025 168.697L50.87 147.52c-2.51-2.202-2.51-5.871 0-8.178a6.585 6.585 0 0 1 8.896 0l27.146 24.742 9.809-9.121c2.395-2.306 6.387-2.306 8.896 0 2.509 2.306 2.509 5.871 0 8.177l-9.809 9.121 7.756 7.129-35.471 33.129L36.5 183.584"/>
    <path stroke="#000" stroke-miterlimit="10" stroke-width="3" d="M74.025 168.697L50.87 147.52c-2.51-2.202-2.51-5.871 0-8.178a6.585 6.585 0 0 1 8.896 0l27.146 24.742 9.809-9.121c2.395-2.306 6.387-2.306 8.896 0 2.509 2.306 2.509 5.871 0 8.177l-9.809 9.121 7.756 7.129-35.471 33.129L36.5 183.584"/>
    <path fill="#fff" d="M54.11 166.977l10.836 10.047c2.483 2.221 2.483 5.923 0 8.25-2.37 2.326-6.322 2.326-8.805 0l-10.836-10.153 10.836 10.047c2.483 2.221 2.483 5.922 0 8.249a6.425 6.425 0 0 1-8.804 0L36.5 183.264l26.301-24.642 10.837 10.153c2.483 2.221 2.483 5.923 0 8.249-2.371 2.327-6.322 2.327-8.805 0"/>
    <path stroke="#000" stroke-miterlimit="10" stroke-width="3" d="M54.11 166.977l10.836 10.047c2.483 2.221 2.483 5.923 0 8.25-2.37 2.326-6.322 2.326-8.805 0l-10.836-10.153 10.836 10.047c2.483 2.221 2.483 5.922 0 8.249a6.425 6.425 0 0 1-8.804 0L36.5 183.264l26.301-24.642 10.837 10.153c2.483 2.221 2.483 5.923 0 8.249-2.371 2.327-6.322 2.327-8.805 0M64.5 43.521v-6.968C64.5 17.232 79.432 1.5 100.133 1.5h3.734c20.701 0 35.633 15.626 35.633 35.053v6.968M117.5 98.787c0-3.84-3.485-6.85-7.667-6.85h-7.666c-4.298 0-7.667 3.113-7.667 6.85 0 3.84 3.485 6.85 7.667 6.85h7.666c4.182.103 7.667-3.01 7.667-6.85zM117.5 99.245s22 0 22-24.665"/>
    <path fill="#fff" stroke="#000" stroke-miterlimit="10" stroke-width="3" d="M71.5 74.58H56.133c-3.648 0-6.633-2.804-6.633-6.232V49.754c0-3.428 2.985-6.232 6.633-6.232H71.5V74.58zM132.5 74.58h15.367c3.648 0 6.633-2.804 6.633-6.232V49.754c0-3.428-2.985-6.232-6.633-6.232H132.5V74.58z"/>
    <path stroke="#86ED18" stroke-miterlimit="10" stroke-width="3" d="M39.5 70.926L17.625 91.023 8.5 82.64"/>
</svg>
