<?xml version="1.0" encoding="utf-8"?>
<!-- Generator: Adobe Illustrator 23.0.6, SVG Export Plug-In . SVG Version: 6.00 Build 0)  -->
<!DOCTYPE svg PUBLIC "-//W3C//DTD SVG 1.1//EN" "http://www.w3.org/Graphics/SVG/1.1/DTD/svg11.dtd" [
	<!ENTITY ns_extend "http://ns.adobe.com/Extensibility/1.0/">
	<!ENTITY ns_ai "http://ns.adobe.com/AdobeIllustrator/10.0/">
	<!ENTITY ns_graphs "http://ns.adobe.com/Graphs/1.0/">
	<!ENTITY ns_vars "http://ns.adobe.com/Variables/1.0/">
	<!ENTITY ns_imrep "http://ns.adobe.com/ImageReplacement/1.0/">
	<!ENTITY ns_sfw "http://ns.adobe.com/SaveForWeb/1.0/">
	<!ENTITY ns_custom "http://ns.adobe.com/GenericCustomNamespace/1.0/">
	<!ENTITY ns_adobe_xpath "http://ns.adobe.com/XPath/1.0/">
]>
<svg version="1.1" xmlns:x="&ns_extend;" xmlns:i="&ns_ai;" xmlns:graph="&ns_graphs;"
	 xmlns="http://www.w3.org/2000/svg" xmlns:xlink="http://www.w3.org/1999/xlink" x="0px" y="0px" viewBox="0 0 166 166"
	 style="enable-background:new 0 0 166 166;" xml:space="preserve">
<style type="text/css">
	.st0{display:none;}
	.st1{fill:none;stroke:#86ED18;stroke-width:4;stroke-miterlimit:10;}
	.st2{fill:#B6B9BB;}
	.st3{fill:#E4E6E7;}
	.st4{fill:#FFFFFF;}
	.st5{fill:#86ED18;}
	.st6{fill:none;stroke:#000000;stroke-width:0.5;stroke-miterlimit:10;}
	.st7{fill:#CCCCCC;}
</style>
<metadata>
	<sfw  xmlns="&ns_sfw;">
		<slices></slices>
		<sliceSourceBounds  bottomLeftOrigin="true" height="176" width="314" x="418" y="-615"></sliceSourceBounds>
	</sfw>
</metadata>
<g id="Ebene_1" class="st0">
	
		<image style="display:inline;overflow:visible;" width="160" height="160" xlink:href="A18E2266.jpg"  transform="matrix(1 0 0 1 -149 17)">
	</image>
</g>
<g id="Desktop">
	<g id="Ebene_2">
		<circle class="st1" cx="83" cy="83" r="80"/>
	</g>
	<g id="Ebene_5">
		<polygon points="97,107 70,107 67,125 100,125 		"/>
		<path class="st2" d="M106,127H61c-0.5,0-1-0.4-1-1l0,0c0-0.6,0.5-1,1-1h45c0.6,0,1,0.4,1,1l0,0C107,126.5,106.6,127,106,127z"/>
	</g>
	<path class="st3" d="M146,108H22c-1.6,0-3-1.3-3-3V20c0-1.6,1.4-3,3-3h124c1.6,0,3,1.4,3,3v85C149,106.7,147.6,108,146,108z"/>
	<g id="Ebene_4">
		<path d="M149,96H19V20c0-1.6,1.4-3,3-3h124c1.6,0,3,1.4,3,3V96z"/>
	</g>
	<g id="Ebene_3">
		<rect x="25" y="23" class="st4" width="118" height="67"/>
	</g>
	<rect x="72.5" y="41.5" class="st5" width="24.5" height="4"/>
	<rect x="72.5" y="27.5" class="st6" width="24.5" height="18"/>
	<path d="M92.6,32H76.9c-0.6,0-1-0.4-1-1v0c0-0.5,0.4-1,1-1h15.7c0.6,0,1,0.4,1,1v0C93.6,31.6,93.1,32,92.6,32z"/>
	<path d="M88.7,42.9h-7.8c-0.3,0-0.5,0.2-0.5,0.5v0c0,0.3,0.2,0.5,0.5,0.5h7.8c0.3,0,0.5-0.2,0.5-0.5v0
		C89.2,43.1,88.9,42.9,88.7,42.9z"/>
	<rect x="75.9" y="34" class="st7" width="17.7" height="1"/>
	<rect x="75.9" y="36" class="st7" width="17.7" height="1"/>
	<rect x="75.9" y="38" class="st7" width="12.3" height="1"/>
	<rect x="100.5" y="41.5" class="st5" width="24.5" height="4"/>
	<rect x="100.5" y="27.5" class="st6" width="24.5" height="18"/>
	<path d="M120.6,32h-15.7c-0.6,0-1-0.4-1-1v0c0-0.5,0.4-1,1-1h15.7c0.6,0,1,0.4,1,1v0C121.6,31.6,121.1,32,120.6,32z"/>
	<path d="M116.7,42.9h-7.8c-0.3,0-0.5,0.2-0.5,0.5v0c0,0.3,0.2,0.5,0.5,0.5h7.8c0.3,0,0.5-0.2,0.5-0.5v0
		C117.2,43.1,116.9,42.9,116.7,42.9z"/>
	<rect x="103.9" y="34" class="st7" width="17.7" height="1"/>
	<rect x="103.9" y="36" class="st7" width="17.7" height="1"/>
	<rect x="103.9" y="38" class="st7" width="12.3" height="1"/>
	<rect x="72.5" y="62.5" class="st4" width="24.5" height="4"/>
	<rect x="72.5" y="48.5" class="st6" width="24.5" height="18"/>
	<path d="M92.6,53H76.9c-0.6,0-1-0.5-1-1l0,0c0-0.5,0.4-1,1-1h15.7c0.6,0,1,0.5,1,1l0,0C93.6,52.5,93.1,53,92.6,53z"/>
	<path d="M88.7,63.9h-7.8c-0.3,0-0.5,0.2-0.5,0.5l0,0c0,0.3,0.2,0.5,0.5,0.5h7.8c0.3,0,0.5-0.2,0.5-0.5l0,0
		C89.2,64.1,88.9,63.9,88.7,63.9z"/>
	<rect x="75.9" y="55" class="st7" width="17.7" height="1"/>
	<rect x="75.9" y="57" class="st7" width="17.7" height="1"/>
	<rect x="75.9" y="59" class="st7" width="12.3" height="1"/>
	<rect x="100.5" y="62.5" class="st5" width="24.5" height="4"/>
	<rect x="100.5" y="48.5" class="st6" width="24.5" height="18"/>
	<path d="M120.6,53h-15.7c-0.6,0-1-0.5-1-1l0,0c0-0.5,0.4-1,1-1h15.7c0.6,0,1,0.5,1,1l0,0C121.6,52.5,121.1,53,120.6,53z"/>
	<path d="M116.7,63.9h-7.8c-0.3,0-0.5,0.2-0.5,0.5l0,0c0,0.3,0.2,0.5,0.5,0.5h7.8c0.3,0,0.5-0.2,0.5-0.5l0,0
		C117.2,64.1,116.9,63.9,116.7,63.9z"/>
	<rect x="103.9" y="55" class="st7" width="17.7" height="1"/>
	<rect x="103.9" y="57" class="st7" width="17.7" height="1"/>
	<rect x="103.9" y="59" class="st7" width="12.3" height="1"/>
	<rect x="72.5" y="83.5" class="st5" width="24.5" height="4"/>
	<rect x="72.5" y="69.5" class="st6" width="24.5" height="18"/>
	<path d="M92.6,74H76.9c-0.6,0-1-0.4-1-1l0,0c0-0.6,0.4-1,1-1h15.7c0.6,0,1,0.4,1,1l0,0C93.6,73.6,93.1,74,92.6,74z"/>
	<path d="M88.7,84.9h-7.8c-0.3,0-0.5,0.2-0.5,0.5l0,0c0,0.3,0.2,0.5,0.5,0.5h7.8c0.3,0,0.5-0.2,0.5-0.5l0,0
		C89.2,85.1,88.9,84.9,88.7,84.9z"/>
	<rect x="75.9" y="76" class="st7" width="17.7" height="1"/>
	<rect x="75.9" y="78" class="st7" width="17.7" height="1"/>
	<rect x="75.9" y="80" class="st7" width="12.3" height="1"/>
	<rect x="100.5" y="83.5" class="st4" width="24.5" height="4"/>
	<rect x="100.5" y="69.5" class="st6" width="24.5" height="18"/>
	<path d="M120.6,74h-15.7c-0.6,0-1-0.4-1-1l0,0c0-0.6,0.4-1,1-1h15.7c0.6,0,1,0.4,1,1l0,0C121.6,73.6,121.1,74,120.6,74z"/>
	<path d="M116.7,84.9h-7.8c-0.3,0-0.5,0.2-0.5,0.5l0,0c0,0.3,0.2,0.5,0.5,0.5h7.8c0.3,0,0.5-0.2,0.5-0.5l0,0
		C117.2,85.1,116.9,84.9,116.7,84.9z"/>
	<rect x="103.9" y="76" class="st7" width="17.7" height="1"/>
	<rect x="103.9" y="78" class="st7" width="17.7" height="1"/>
	<rect x="103.9" y="80" class="st7" width="12.3" height="1"/>
	<line class="st6" x1="67" y1="27" x2="67" y2="80"/>
	<path d="M61,36.5H42.5c-1.4,0-2.5-1.1-2.5-2.5v0c0-1.4,1.1-2.5,2.5-2.5H61c1.4,0,2.5,1.1,2.5,2.5v0C63.5,35.4,62.4,36.5,61,36.5z"
		/>
	<path class="st7" d="M61,47.5H42.5c-1.4,0-2.5-1.1-2.5-2.5v0c0-1.4,1.1-2.5,2.5-2.5H61c1.4,0,2.5,1.1,2.5,2.5v0
		C63.5,46.4,62.4,47.5,61,47.5z"/>
	<path class="st7" d="M61,58.5H42.5c-1.4,0-2.5-1.1-2.5-2.5v0c0-1.4,1.1-2.5,2.5-2.5H61c1.4,0,2.5,1.1,2.5,2.5v0
		C63.5,57.4,62.4,58.5,61,58.5z"/>
	<path class="st7" d="M61,70.5H42.5c-1.4,0-2.5-1.1-2.5-2.5l0,0c0-1.4,1.1-2.5,2.5-2.5H61c1.4,0,2.5,1.1,2.5,2.5l0,0
		C63.5,69.4,62.4,70.5,61,70.5z"/>
</g>
<g id="mobile">
	<g id="Ebene_6">
		<path d="M37,131H8c-0.6,0-1-0.4-1-1V72c0-0.6,0.4-1,1-1h29c0.5,0,1,0.4,1,1v58C38,130.6,37.5,131,37,131z"/>
	</g>
	<g id="Ebene_8">
	</g>
	<g id="Ebene_7">
		<rect x="9" y="77" class="st4" width="27" height="42"/>
	</g>
	<g id="Ebene_9">
		<circle class="st4" cx="22.5" cy="125.5" r="2.5"/>
	</g>
</g>
<g id="Ebene_12">
	<rect x="10" y="92.9" class="st5" width="25" height="4"/>
	<rect x="10" y="78.9" class="st6" width="25" height="18"/>
	<path d="M30.5,83.4H14.5c-0.5,0-1-0.4-1-1l0,0c0-0.5,0.4-1,1-1h16.1c0.5,0,1,0.5,1,1l0,0C31.5,83,31.1,83.4,30.5,83.4z"/>
	<path d="M26.5,94.3h-8c-0.3,0-0.5,0.2-0.5,0.5l0,0c0,0.3,0.2,0.5,0.5,0.5h8c0.3,0,0.5-0.2,0.5-0.5l0,0C27,94.5,26.8,94.3,26.5,94.3
		z"/>
	<rect x="13.5" y="85.4" class="st7" width="18.1" height="1"/>
	<rect x="13.5" y="87.4" class="st7" width="18.1" height="1"/>
	<rect x="13.5" y="89.4" class="st7" width="12.5" height="1"/>
	<rect x="10" y="113.9" class="st4" width="25" height="4"/>
	<rect x="10" y="99.9" class="st6" width="25" height="18"/>
	<path d="M30.5,104.4H14.5c-0.5,0-1-0.4-1-1l0,0c0-0.5,0.4-1,1-1h16.1c0.5,0,1,0.5,1,1l0,0C31.5,104,31.1,104.4,30.5,104.4z"/>
	<path d="M26.5,115.3h-8c-0.3,0-0.5,0.2-0.5,0.5l0,0c0,0.3,0.2,0.5,0.5,0.5h8c0.3,0,0.5-0.2,0.5-0.5l0,0
		C27,115.5,26.8,115.3,26.5,115.3z"/>
	<rect x="13.5" y="106.4" class="st7" width="18.1" height="1"/>
	<rect x="13.5" y="108.4" class="st7" width="18.1" height="1"/>
	<rect x="13.5" y="110.4" class="st7" width="12.5" height="1"/>
</g>
<g id="Ebene_13">
	<circle cx="143.5" cy="145.5" r="18.5"/>
	<g>
		<path class="st4" d="M137.7,153.6v-2.8h4.8v-9.5h-4.8v-2.8h4.8v-2.7h3.3v14.9h4.4v2.8H137.7z"/>
	</g>
	<g>
	</g>
	<g>
	</g>
	<g>
	</g>
	<g>
	</g>
	<g>
	</g>
	<g>
	</g>
	<g>
	</g>
	<g>
	</g>
	<g>
	</g>
	<g>
	</g>
	<g>
	</g>
	<g>
	</g>
	<g>
	</g>
	<g>
	</g>
	<g>
	</g>
</g>
</svg>
