<svg version="1.1" xmlns="http://www.w3.org/2000/svg" xmlns:xlink="http://www.w3.org/1999/xlink" x="0px" y="0px"
	 width="147.9" height="128.2" viewBox="0 0 147.9 128.2" style="enable-background:new 0 0 147.9 128.2;" xml:space="preserve">
<style type="text/css">
	.st0{fill:none;stroke:#000000;stroke-width:3;stroke-miterlimit:10;stroke-dasharray:5.74,5.74;}
	.st1{display:none;fill:#FFFFFF;stroke:#86ED18;stroke-width:3;stroke-miterlimit:10;}
	.st2{fill:none;stroke:#000000;stroke-width:3;stroke-miterlimit:10;}
	.st3{fill:#FFFFFF;}
	.st4{fill:none;stroke:#202020;stroke-width:3;stroke-linecap:round;stroke-linejoin:round;stroke-miterlimit:10;}
	.st5{fill:none;stroke:#86ED18;stroke-width:3;stroke-linecap:round;stroke-linejoin:round;stroke-miterlimit:10;}
</style>
<g id="Ebene_1">
	<path class="st0" d="M124.7,58.5l0.1-38.6"/>
	<path class="st1" d="M131.4,64.8c-1,1.5-2.1,5.2,1.5,8.1c3.6,2.9,9.5,6.4-4.3,20.2s-17.2,7.9-20.2,4.3c-2.9-3.6-6.6-2.6-8.1-1.5
		c-1.5,1-11.4,7.5-13,8.6c-1.6,1.1-4.3,2.7-3.8,6.2c0.4,2.6,5.6,12.5,16.7,12.4c11.2-0.1,25-9,37.1-21.2c12.1-12.2,21-26,21.1-37.2
		c0.1-11.2-9.8-16.4-12.4-16.8c-3.5-0.5-5,2.2-6.2,3.8C138.8,53.4,132.4,63.3,131.4,64.8z"/>
	<path class="st2" d="M1.5,101.4l0.2-81.5l124.4,0.3 M1.7,1.5l0,13.3l123,0.3l0-13.3L1.7,1.5L1.7,1.5z"/>
	<path d="M8.7,9.7c1,0,1.8-0.8,1.8-1.8c0-1-0.8-1.8-1.8-1.8c-1,0-1.8,0.8-1.8,1.8C6.9,8.9,7.7,9.7,8.7,9.7z M15.2,9.7
		c1,0,1.8-0.8,1.8-1.8c0-1-0.8-1.8-1.8-1.8c0,0,0,0,0,0c-1,0-1.8,0.8-1.8,1.8C13.5,8.9,14.3,9.7,15.2,9.7L15.2,9.7z M21.8,9.7
		c1,0,1.8-0.8,1.8-1.8c0-1-0.8-1.8-1.8-1.8c-1,0-1.8,0.8-1.8,1.8C20,8.9,20.8,9.7,21.8,9.7L21.8,9.7z"/>
	<path class="st3" d="M55.3,44l9.6,1.9L64,55.5"/>
	<path class="st2" d="M55.3,44l9.6,1.9L64,55.5"/>
	<path class="st3" d="M61.1,101.5V65.1h7.7v36.4"/>
	<path class="st2" d="M61.1,101.5V65.1h7.7v36.4"/>
	<path class="st3" d="M45.8,101.5V74.7h7.6v26.8"/>
	<path class="st2" d="M45.8,101.5V74.7h7.6v26.8"/>
	<path class="st3" d="M30.5,101.5V84.3h7.6v17.2"/>
	<path class="st2" d="M30.5,101.5V84.3h7.6v17.2"/>
	<path class="st3" d="M15.2,101.5v-7.7h7.6v7.7"/>
	<path class="st2" d="M15.2,101.5v-7.7h7.6v7.7 M64.9,45.9L19,82.3"/>
</g>
<g id="Ebene_2">
	<path class="st4" d="M140.8,77.7c2.9,4.7,4.5,10.2,4.5,16.1c0,17.2-14.2,31.2-31.7,31.2s-31.7-14-31.7-31.2s14.2-31.2,31.7-31.2
		c4.3,0,8.4,0.8,12.1,2.3"/>
	<path class="st5" d="M113.7,73.1c0,4.3,6.3,1.8,6.3,6.2c0,6-4.9,7.6-8.4,5.2s-8.4-3.6-12.6,2.2c-4.2,5.8-1.4,12.5,1.6,12.4
		c3-0.1,5.8-2.9,7.1,0.6c1.1,2.9,1.6,3.6,3,4.3c1.4,0.8,1.4,2.3,0.9,4.3c-0.5,2,2.2,8.3,4.2,8.3c2.1,0,4-0.9,4.2-4.2
		c0.2-3.3,2.8-3.5,4-4.4c1.2-0.9-0.9-4.4,1.4-6.7s7-6.5,3-7.6c-4-1.1-3.7-1.8-4.2-3.5c-0.6-1.7-2.2-3.4,1-3.5c3.2-0.1,6.5-1,9.2-3.8
		c2.6-2.7,4.1-5.4,6.4-5.4c-3.5-5.7-8.7-10.2-15-12.7C118.7,68.4,113.7,68.7,113.7,73.1z"/>
</g>
</svg>
