<?xml version="1.0" encoding="utf-8"?>
<!-- Generator: Adobe Illustrator 23.0.6, SVG Export Plug-In . SVG Version: 6.00 Build 0)  -->
<!DOCTYPE svg PUBLIC "-//W3C//DTD SVG 1.1//EN" "http://www.w3.org/Graphics/SVG/1.1/DTD/svg11.dtd" [
	<!ENTITY ns_extend "http://ns.adobe.com/Extensibility/1.0/">
	<!ENTITY ns_ai "http://ns.adobe.com/AdobeIllustrator/10.0/">
	<!ENTITY ns_graphs "http://ns.adobe.com/Graphs/1.0/">
	<!ENTITY ns_vars "http://ns.adobe.com/Variables/1.0/">
	<!ENTITY ns_imrep "http://ns.adobe.com/ImageReplacement/1.0/">
	<!ENTITY ns_sfw "http://ns.adobe.com/SaveForWeb/1.0/">
	<!ENTITY ns_custom "http://ns.adobe.com/GenericCustomNamespace/1.0/">
	<!ENTITY ns_adobe_xpath "http://ns.adobe.com/XPath/1.0/">
]>
<svg version="1.1" xmlns:x="&ns_extend;" xmlns:i="&ns_ai;" xmlns:graph="&ns_graphs;"
	 xmlns="http://www.w3.org/2000/svg" xmlns:xlink="http://www.w3.org/1999/xlink" x="0px" y="0px" viewBox="0 0 34 34"
	 style="enable-background:new 0 0 34 34;" xml:space="preserve">
<style type="text/css">
	.st0{fill:#FFFFFF;stroke:#000000;stroke-miterlimit:10;}
	.st1{fill:#FFFFFF;}
	.st2{fill:none;stroke:#000000;stroke-width:0.4;stroke-miterlimit:10;}
	.st3{fill:#FFFFFF;stroke:#000000;stroke-width:0.4;stroke-miterlimit:10;}
	.st4{stroke:#000000;stroke-width:0.4;stroke-miterlimit:10;}
	.st5{stroke:#000000;stroke-width:0.25;stroke-miterlimit:10;}
</style>
<metadata>
	<sfw  xmlns="&ns_sfw;">
		<slices></slices>
		<sliceSourceBounds  bottomLeftOrigin="true" height="32" width="32" x="624" y="-528.1"></sliceSourceBounds>
	</sfw>
</metadata>
<g id="Ebene_2">
	<circle class="st0" cx="17" cy="17.1" r="15.5"/>
</g>
<g id="Ebene_1">
	<path d="M19.4,32.4c-2.3-0.3-3.3-3.8-4.4-5.7c-1.3-2.1-0.8-4.8,1.2-6.3c2.1-1.6,5.1-1.1,6.6,0.9c0.2,0.3,0.3,0.5,0.4,0.7
		c1.1,2,3,3,5.5,3.1c0.6,0,1.1,0,1.7-0.2C31.9,24.7,24,33,19.4,32.4z M15.2,27C15.2,27,15.2,27,15.2,27C15.2,27,15.2,27,15.2,27z
		 M15.2,27C15.2,27,15.2,27,15.2,27C15.2,27,15.2,27,15.2,27z"/>
	<path class="st1" d="M24,31c-0.7-3.7-1.1-6.1-1.1-6.2c-0.6-3.1-2.5-5.6-5.7-5.6c-3.1,0-5.7,2.5-5.7,5.6c0,0.6,0.1,1.2,0.3,1.8
		c0,0-0.8,4.3-0.8,4.9"/>
	<path class="st1" d="M11.1,31.4c0,0,6,2.5,13-0.5"/>
	<path class="st2" d="M24,31c-0.7-3.7-1.1-6.1-1.1-6.2c-0.6-3.1-2.5-5.6-5.7-5.6c-3.1,0-5.7,2.5-5.7,5.6c0,0.6,0.1,1.2,0.3,1.8
		l-0.8,4.9"/>
	<path class="st3" d="M23.2,16c1,0,1.7-0.8,1.7-1.7c0-1-0.8-1.7-1.7-1.7s-1.7,0.8-1.7,1.7C21.5,15.2,22.3,16,23.2,16z"/>
	<path class="st2" d="M23.8,13.9c0,0.3,0,0.6,0,0.8"/>
	<path class="st2" d="M11.5,15.6c0-0.3,0-0.5,0-0.8"/>
	<path class="st4" d="M12.9,17.6c0.1,0,0.1-0.1,0.1-0.1c0-0.1-0.1-0.1-0.1-0.1c-0.1,0-0.1,0.1-0.1,0.1
		C12.8,17.6,12.8,17.6,12.9,17.6z"/>
	<path class="st4" d="M12.5,16.7c0.1,0,0.1-0.1,0.1-0.1c0-0.1-0.1-0.1-0.1-0.1c-0.1,0-0.1,0.1-0.1,0.1
		C12.4,16.7,12.5,16.7,12.5,16.7z"/>
	<path class="st3" d="M11.1,16c1,0,1.7-0.8,1.7-1.7c0-1-0.8-1.7-1.7-1.7s-1.7,0.8-1.7,1.7C9.4,15.2,10.2,16,11.1,16z"/>
	<path class="st3" d="M17.2,20.4c3.3,0,6.1-2.7,6.1-6s-2.7-6-6.1-6c-3.3,0-6.1,2.7-6.1,6S13.8,20.4,17.2,20.4z"/>
	<path class="st2" d="M19.1,9.4c0.3,0.5,1,0.8,1.6,0.6c0.6-0.2,0.9-0.8,0.8-1.4c-0.1-0.5-0.5-0.9-0.9-1c0,0,0-0.1,0-0.1
		c0.2,0,0.4-0.1,0.5-0.3c0.3-0.3,0.5-0.7,0.4-1.2c-0.1-0.8-0.9-1.3-1.7-1c-0.5,0.1-0.8,0.5-0.9,0.9c0,0-0.1,0-0.1,0
		c-0.1-0.3-0.2-0.5-0.4-0.8c-0.5-0.6-1.2-0.9-2-0.8c-1.1,0.2-1.7,1.2-1.6,2.2c-1.5,0.7-2.2,2.1-2,3.4"/>
	<path d="M12.3,15.2c0.1,0,0.2-0.1,0.2-0.2c0-0.1-0.1-0.2-0.2-0.2c-0.1,0-0.2,0.1-0.2,0.2C12.1,15.1,12.2,15.2,12.3,15.2z"/>
	<path d="M13.2,15.2c0.1,0,0.2-0.1,0.2-0.2c0-0.1-0.1-0.2-0.2-0.2c-0.1,0-0.2,0.1-0.2,0.2C12.9,15.1,13,15.2,13.2,15.2z"/>
	<path d="M12.7,15.8c0.1,0,0.2-0.1,0.2-0.2c0-0.1-0.1-0.2-0.2-0.2c-0.1,0-0.2,0.1-0.2,0.2C12.5,15.7,12.6,15.8,12.7,15.8z"/>
	<path d="M13.6,15.8c0.1,0,0.2-0.1,0.2-0.2c0-0.1-0.1-0.2-0.2-0.2c-0.1,0-0.2,0.1-0.2,0.2C13.4,15.7,13.5,15.8,13.6,15.8z"/>
	<path d="M13.2,16.4c0.1,0,0.2-0.1,0.2-0.2c0-0.1-0.1-0.2-0.2-0.2c-0.1,0-0.2,0.1-0.2,0.2C12.9,16.3,13,16.4,13.2,16.4z"/>
	<path d="M21.7,15.2c0.1,0,0.2-0.1,0.2-0.2c0-0.1-0.1-0.2-0.2-0.2c-0.1,0-0.2,0.1-0.2,0.2C21.5,15.1,21.6,15.2,21.7,15.2z"/>
	<path d="M20.9,15.2c0.1,0,0.2-0.1,0.2-0.2c0-0.1-0.1-0.2-0.2-0.2c-0.1,0-0.2,0.1-0.2,0.2C20.6,15.1,20.8,15.2,20.9,15.2z"/>
	<path d="M21.3,15.8c0.1,0,0.2-0.1,0.2-0.2c0-0.1-0.1-0.2-0.2-0.2c-0.1,0-0.2,0.1-0.2,0.2C21.1,15.7,21.2,15.8,21.3,15.8z"/>
	<path d="M20.5,15.8c0.1,0,0.2-0.1,0.2-0.2c0-0.1-0.1-0.2-0.2-0.2c-0.1,0-0.2,0.1-0.2,0.2C20.2,15.7,20.3,15.8,20.5,15.8z"/>
	<path d="M20.9,16.4c0.1,0,0.2-0.1,0.2-0.2c0-0.1-0.1-0.2-0.2-0.2c-0.1,0-0.2,0.1-0.2,0.2C20.6,16.3,20.8,16.4,20.9,16.4z"/>
	<path class="st2" d="M10.6,14.5c0-0.3,0-0.6,0-0.8"/>
	<path class="st2" d="M18.2,15.9c0,0.5-0.4,0.9-0.9,0.9c-0.5,0-0.9-0.4-0.9-0.9"/>
	<path class="st5" d="M6.7,28.7C7,27.8,7.5,27,7.8,26.3l1.8-4.8c0.9-2.4,3.7-3.7,6.1-2.8c2.5,0.9,3.7,3.6,2.8,6.1l-1.9,5
		c-0.4,0.9-0.4,1.9-0.2,2.8C16.5,33,6,30.3,6.7,28.7z"/>
	<path d="M15.6,13.5c0.2,0,0.4-0.2,0.4-0.4c0-0.2-0.2-0.4-0.4-0.4c-0.2,0-0.4,0.2-0.4,0.4C15.1,13.3,15.3,13.5,15.6,13.5z"/>
	<path d="M18.9,13.5c0.2,0,0.4-0.2,0.4-0.4c0-0.2-0.2-0.4-0.4-0.4c-0.2,0-0.4,0.2-0.4,0.4C18.4,13.3,18.6,13.5,18.9,13.5z"/>
</g>
</svg>
