<?xml version="1.0" encoding="utf-8"?>
<!-- Generator: Adobe Illustrator 23.0.6, SVG Export Plug-In . SVG Version: 6.00 Build 0)  -->
<!DOCTYPE svg PUBLIC "-//W3C//DTD SVG 1.1//EN" "http://www.w3.org/Graphics/SVG/1.1/DTD/svg11.dtd" [
	<!ENTITY ns_extend "http://ns.adobe.com/Extensibility/1.0/">
	<!ENTITY ns_ai "http://ns.adobe.com/AdobeIllustrator/10.0/">
	<!ENTITY ns_graphs "http://ns.adobe.com/Graphs/1.0/">
	<!ENTITY ns_vars "http://ns.adobe.com/Variables/1.0/">
	<!ENTITY ns_imrep "http://ns.adobe.com/ImageReplacement/1.0/">
	<!ENTITY ns_sfw "http://ns.adobe.com/SaveForWeb/1.0/">
	<!ENTITY ns_custom "http://ns.adobe.com/GenericCustomNamespace/1.0/">
	<!ENTITY ns_adobe_xpath "http://ns.adobe.com/XPath/1.0/">
]>
<svg version="1.1" xmlns:x="&ns_extend;" xmlns:i="&ns_ai;" xmlns:graph="&ns_graphs;"
	 xmlns="http://www.w3.org/2000/svg" xmlns:xlink="http://www.w3.org/1999/xlink" x="0px" y="0px" viewBox="0 0 199.9 157.5"
	 style="enable-background:new 0 0 199.9 157.5;" xml:space="preserve">
<style type="text/css">
	.st0{fill:#FFFFFF;stroke:#000000;stroke-width:3;stroke-miterlimit:10;}
	.st1{fill:none;stroke:#000000;stroke-width:3;stroke-miterlimit:10;}
	.st2{fill:none;stroke:#000000;stroke-width:3;}
	.st3{fill:#86ED18;}
	.st4{fill:#FFFFFF;stroke:#000000;stroke-width:0.5;stroke-miterlimit:10;}
	.st5{stroke:#000000;stroke-width:0.5;stroke-miterlimit:10;}
	.st6{fill:none;stroke:#86ED18;stroke-width:0.5;stroke-linejoin:round;stroke-miterlimit:10;}
	.st7{fill:none;stroke:#000000;stroke-width:0.5;stroke-miterlimit:10;}
	.st8{stroke:#FFFFFF;stroke-width:0.5;stroke-miterlimit:10;}
	.st9{fill:#FFFFFF;}
</style>
<metadata>
	<sfw  xmlns="&ns_sfw;">
		<slices></slices>
		<sliceSourceBounds  bottomLeftOrigin="true" height="130.5" width="183.1" x="12" y="5.5"></sliceSourceBounds>
	</sfw>
</metadata>
<g id="Ebene_1">
	<path class="st0" d="M16.2,31.1c1.1,0,2.1-0.9,2.1-2.1c0-1.1-0.9-2.1-2.1-2.1c-1.1,0-2,0.9-2,2.1S15.1,31.1,16.2,31.1z M16.2,47.2
		c1.1,0,2.1-0.9,2.1-2.1c0-1.1-0.9-2.1-2-2.1h0c-1.1,0-2,0.9-2,2.1S15.1,47.2,16.2,47.2z"/>
	<path class="st0" d="M166.4,15.4H9.4v93.4h157V15.4z"/>
	<path class="st1" d="M9.4,26.5h157"/>
	<path d="M15.3,23.3c1.3,0,2.3-1,2.3-2.3c0-1.3-1-2.3-2.3-2.3c-1.3,0-2.3,1-2.3,2.3c0,0,0,0,0,0C13,22.3,14,23.3,15.3,23.3
		L15.3,23.3z M23.8,23.3c1.3,0,2.3-1,2.3-2.3c0,0,0,0,0,0c0-1.3-1-2.3-2.3-2.3c-1.3,0-2.3,1-2.3,2.3c0,0,0,0,0,0
		C21.5,22.3,22.6,23.3,23.8,23.3L23.8,23.3z M32.3,23.3c1.3,0,2.3-1,2.3-2.3c0-1.3-1-2.3-2.3-2.3c-1.3,0-2.3,1-2.3,2.3c0,0,0,0,0,0
		C30,22.3,31,23.3,32.3,23.3L32.3,23.3z"/>
	<path class="st1" d="M63.4,45.4h67.9 M63.4,53.1h67.9 M63.4,61h33.9"/>
	<path class="st2" d="M119.4,108.4h31.5"/>
</g>
<g id="Ebene_1_Kopie">
	<path class="st0" d="M24.2,42.8c1.1,0,2.1-0.9,2.1-2.1c0-1.1-0.9-2.1-2.1-2.1c-1.1,0-2,0.9-2,2.1S23.1,42.8,24.2,42.8z M24.2,58.9
		c1.1,0,2.1-0.9,2.1-2.1c0-1.1-0.9-2.1-2-2.1h0c-1.1,0-2,0.9-2,2.1S23.1,58.9,24.2,58.9z"/>
	<path class="st0" d="M174.3,27.1h-157v93.4h157V27.1z"/>
	<path class="st1" d="M17.3,38.2h157"/>
	<path d="M23.3,35c1.3,0,2.3-1,2.3-2.3c0-1.3-1-2.3-2.3-2.3c-1.3,0-2.3,1-2.3,2.3c0,0,0,0,0,0C21,34,22,35,23.3,35L23.3,35z
		 M31.8,35c1.3,0,2.3-1,2.3-2.3c0,0,0,0,0,0c0-1.3-1-2.3-2.3-2.3c-1.3,0-2.3,1-2.3,2.3c0,0,0,0,0,0C29.5,34,30.6,35,31.8,35L31.8,35
		z M40.3,35c1.3,0,2.3-1,2.3-2.3c0-1.3-1-2.3-2.3-2.3c-1.3,0-2.3,1-2.3,2.3c0,0,0,0,0,0C38,34,39,35,40.3,35L40.3,35z"/>
	<path class="st1" d="M71.3,57.1h67.9 M71.3,64.8h67.9 M71.3,72.7h33.9"/>
	<path class="st2" d="M127.3,120.1h31.5"/>
</g>
<g id="Ebene_1_Kopie_Kopie">
	<path class="st0" d="M31.8,53.8c1.1,0,2-0.9,2-2.1c0-1.1-0.9-2.1-2-2.1c-1.1,0-2,0.9-2,2.1C29.7,52.9,30.6,53.8,31.8,53.8z
		 M31.8,69.9c1.1,0,2-0.9,2-2.1c0-1.1-0.9-2.1-2-2.1h0c-1.1,0-2,0.9-2,2.1C29.7,69,30.6,69.9,31.8,69.9z"/>
	<path class="st0" d="M181.9,38.1h-157v93.4h157V38.1z"/>
	<path class="st1" d="M24.9,49.3h157"/>
	<path d="M30.8,46c1.3,0,2.3-1,2.3-2.3c0-1.3-1-2.3-2.3-2.3c-1.3,0-2.3,1-2.3,2.3c0,0,0,0,0,0C28.5,45,29.5,46,30.8,46L30.8,46z
		 M39.4,46c1.3,0,2.3-1,2.3-2.3c0,0,0,0,0,0c0-1.3-1-2.3-2.3-2.3c-1.3,0-2.3,1-2.3,2.3c0,0,0,0,0,0C37.1,45,38.1,46,39.4,46L39.4,46
		z M47.8,46c1.3,0,2.3-1,2.3-2.3c0-1.3-1-2.3-2.3-2.3c-1.3,0-2.3,1-2.3,2.3c0,0,0,0,0,0C45.5,45,46.6,46,47.8,46L47.8,46z"/>
	<path class="st1" d="M78.9,68.1h67.9 M78.9,75.9h67.9 M78.9,83.7h33.9"/>
	<path class="st2" d="M134.9,131.1h31.5"/>
</g>
<g id="Ebene_1_Kopie_Kopie_Kopie">
	<path class="st0" d="M39.3,65.3c1.1,0,2-0.9,2-2.1c0-1.1-0.9-2.1-2-2.1c-1.1,0-2,0.9-2,2.1C37.3,64.4,38.2,65.3,39.3,65.3z
		 M39.3,81.3c1.1,0,2-0.9,2-2.1c0-1.1-0.9-2.1-2-2.1l0,0c-1.1,0-2,0.9-2,2.1C37.3,80.4,38.2,81.3,39.3,81.3z"/>
	<path class="st0" d="M189.5,49.6h-157V143h157V49.6z"/>
	<path class="st1" d="M32.5,60.7h157"/>
	<path d="M38.4,57.4c1.3,0,2.3-1,2.3-2.3c0-1.3-1-2.3-2.3-2.3c-1.3,0-2.3,1-2.3,2.3c0,0,0,0,0,0C36.1,56.4,37.1,57.4,38.4,57.4
		L38.4,57.4z M46.9,57.4c1.3,0,2.3-1,2.3-2.3c0,0,0,0,0,0c0-1.3-1-2.3-2.3-2.3c-1.3,0-2.3,1-2.3,2.3c0,0,0,0,0,0
		C44.6,56.4,45.7,57.4,46.9,57.4L46.9,57.4z M55.4,57.4c1.3,0,2.3-1,2.3-2.3c0-1.3-1-2.3-2.3-2.3c-1.3,0-2.3,1-2.3,2.3c0,0,0,0,0,0
		C53.1,56.4,54.1,57.4,55.4,57.4L55.4,57.4z"/>
	<path class="st1" d="M99.4,79.3h67.9 M99.4,87h67.9 M99.4,94.9h33.9"/>
	<g id="Ebene_5">
		<path class="st3" d="M165.6,125.5h-26.8c-2.9,0-5.3-2.4-5.3-5.3v0c0-2.9,2.4-5.3,5.3-5.3h26.8c2.9,0,5.3,2.4,5.3,5.3v0
			C170.8,123.1,168.5,125.5,165.6,125.5z"/>
	</g>
	<rect x="44.6" y="77.9" class="st0" width="43.6" height="47.6"/>
</g>
<g id="Ebene_6">
	<polygon class="st4" points="66.6,84.8 66,84.8 65.8,87.7 66.8,87.7 	"/>
	<ellipse class="st4" cx="66.2" cy="89.1" rx="2.4" ry="1.5"/>
	<ellipse class="st4" cx="58.3" cy="95.1" rx="1.2" ry="2.6"/>
	<ellipse class="st4" cx="74.4" cy="95.1" rx="1.2" ry="2.6"/>
	<circle class="st4" cx="66.3" cy="83.9" r="1.1"/>
	<path class="st4" d="M72.4,101.6H60.3c-1.1,0-2-0.9-2-2v-9.1c0-1.1,0.9-2,2-2h12.2c1.1,0,2,0.9,2,2v9.1
		C74.4,100.7,73.5,101.6,72.4,101.6z"/>
	<path class="st5" d="M70.3,95.3c0.1,0,0.1-0.1,0.1-0.1c0-0.1-0.1-0.1-0.1-0.1s-0.1,0.1-0.1,0.1C70.2,95.2,70.2,95.3,70.3,95.3z"/>
	<path class="st5" d="M69.6,95.9c0.1,0,0.1-0.1,0.1-0.1c0-0.1-0.1-0.1-0.1-0.1s-0.1,0.1-0.1,0.1C69.5,95.9,69.6,95.9,69.6,95.9z"/>
	<path class="st5" d="M71.7,95.3c0.1,0,0.1-0.1,0.1-0.1c0-0.1-0.1-0.1-0.1-0.1s-0.1,0.1-0.1,0.1C71.5,95.2,71.6,95.3,71.7,95.3z"/>
	<path class="st5" d="M70.3,96.6c0.1,0,0.1-0.1,0.1-0.1c0-0.1-0.1-0.1-0.1-0.1s-0.1,0.1-0.1,0.1C70.2,96.6,70.2,96.6,70.3,96.6z"/>
	<path class="st5" d="M71.7,96.6c0.1,0,0.1-0.1,0.1-0.1c0-0.1-0.1-0.1-0.1-0.1s-0.1,0.1-0.1,0.1C71.5,96.6,71.6,96.6,71.7,96.6z"/>
	<path class="st5" d="M71,95.9c0.1,0,0.1-0.1,0.1-0.1c0-0.1-0.1-0.1-0.1-0.1c-0.1,0-0.1,0.1-0.1,0.1C70.9,95.9,70.9,95.9,71,95.9z"
		/>
	<path class="st5" d="M72.4,95.9c0.1,0,0.1-0.1,0.1-0.1c0-0.1-0.1-0.1-0.1-0.1s-0.1,0.1-0.1,0.1C72.2,95.9,72.3,95.9,72.4,95.9z"/>
	<path class="st5" d="M60.9,95.3c0.1,0,0.1-0.1,0.1-0.1c0-0.1-0.1-0.1-0.1-0.1c-0.1,0-0.1,0.1-0.1,0.1
		C60.7,95.2,60.8,95.3,60.9,95.3z"/>
	<path class="st5" d="M60.2,95.9c0.1,0,0.1-0.1,0.1-0.1c0-0.1-0.1-0.1-0.1-0.1c-0.1,0-0.1,0.1-0.1,0.1
		C60.1,95.9,60.1,95.9,60.2,95.9z"/>
	<path class="st5" d="M62.2,95.3c0.1,0,0.1-0.1,0.1-0.1c0-0.1-0.1-0.1-0.1-0.1C62.1,95,62,95,62,95.1C62,95.2,62.1,95.3,62.2,95.3z"
		/>
	<path class="st5" d="M60.9,96.6c0.1,0,0.1-0.1,0.1-0.1c0-0.1-0.1-0.1-0.1-0.1c-0.1,0-0.1,0.1-0.1,0.1
		C60.7,96.6,60.8,96.6,60.9,96.6z"/>
	<path class="st5" d="M62.2,96.6c0.1,0,0.1-0.1,0.1-0.1c0-0.1-0.1-0.1-0.1-0.1c-0.1,0-0.1,0.1-0.1,0.1C62,96.6,62.1,96.6,62.2,96.6z
		"/>
	<path class="st5" d="M61.5,95.9c0.1,0,0.1-0.1,0.1-0.1c0-0.1-0.1-0.1-0.1-0.1s-0.1,0.1-0.1,0.1C61.4,95.9,61.4,95.9,61.5,95.9z"/>
	<path class="st5" d="M62.9,95.9c0.1,0,0.1-0.1,0.1-0.1c0-0.1-0.1-0.1-0.1-0.1c-0.1,0-0.1,0.1-0.1,0.1
		C62.8,95.9,62.8,95.9,62.9,95.9z"/>
	<path class="st6" d="M64.5,95.9c0,1.1,0.9,2,2,2c1.1,0,2-0.9,2-2"/>
	<path class="st7" d="M68.9,93.5c0.3,0,0.6-0.2,0.6-0.6s-0.2-0.6-0.6-0.6c-0.3,0-0.6,0.2-0.6,0.6S68.6,93.5,68.9,93.5z"/>
	<path class="st7" d="M64.1,93.5c0.3,0,0.6-0.2,0.6-0.6s-0.2-0.6-0.6-0.6c-0.3,0-0.6,0.2-0.6,0.6S63.8,93.5,64.1,93.5z"/>
	<rect id="Hals" x="64.2" y="101.6" class="st4" width="4.3" height="1.7"/>
	<path class="st4" d="M58,106.2c0,0-4.5,2.2-4.5,7.4h1.8c0,0,0-3.2,2.7-5.2V106.2z"/>
	<path class="st4" d="M55.2,118.4h-1.6c-0.3,0-0.5-0.2-0.5-0.5v-3.8c0-0.3,0.2-0.5,0.5-0.5h1.6c0.3,0,0.5,0.2,0.5,0.5v3.8
		C55.7,118.2,55.5,118.4,55.2,118.4z"/>
	<path class="st4" d="M54.4,116.6c-1.7,0-3,1.4-3,3c0,1.5,1.1,2.8,2.6,3v-1.5c-0.6-0.2-1-0.8-1-1.4c0-0.8,0.7-1.5,1.5-1.5
		s1.5,0.7,1.5,1.5c0,0.7-0.4,1.2-1,1.4v1.5c1.5-0.2,2.6-1.5,2.6-3C57.5,118,56.1,116.6,54.4,116.6z"/>
	<circle class="st4" cx="54.4" cy="117" r="1.8"/>
	<polygon points="54.4,116.1 53.6,116.6 53.6,117.4 54.4,117.9 55.1,117.4 55.1,116.6 	"/>
	<path class="st4" d="M74.5,106.2c0,0,4.5,2.2,4.5,7.4h-1.8c0,0,0-3.2-2.7-5.2V106.2z"/>
	<path class="st4" d="M77.3,118.4h1.6c0.3,0,0.5-0.2,0.5-0.5v-3.8c0-0.3-0.2-0.5-0.5-0.5h-1.6c-0.3,0-0.5,0.2-0.5,0.5v3.8
		C76.8,118.2,77,118.4,77.3,118.4z"/>
	<path class="st4" d="M78,116.6c1.7,0,3,1.4,3,3c0,1.5-1.1,2.8-2.6,3v-1.5c0.6-0.2,1-0.8,1-1.4c0-0.8-0.7-1.5-1.5-1.5
		c-0.8,0-1.5,0.7-1.5,1.5c0,0.7,0.4,1.2,1,1.4v1.5c-1.5-0.2-2.6-1.5-2.6-3C75,118,76.4,116.6,78,116.6z"/>
	<circle class="st4" cx="78.1" cy="117" r="1.8"/>
	<polygon points="78.1,116.1 77.3,116.6 77.3,117.4 78.1,117.9 78.9,117.4 78.9,116.6 	"/>
	<polygon class="st4" points="60.9,120.8 60.4,124.2 63.1,124.2 63.8,120.8 	"/>
	<polygon class="st4" points="71.7,120.8 72.2,124.2 69.5,124.2 68.8,120.8 	"/>
	<path class="st4" d="M72.5,120.8H60c-1.1,0-2-0.9-2-2v-13.5c0-1.1,0.9-2,2-2h12.5c1.1,0,2,0.9,2,2v13.5
		C74.5,119.9,73.6,120.8,72.5,120.8z"/>
	<path class="st4" d="M70.2,118.9h-7.7c-1.1,0-2-0.9-2-2v-8.4c0-1.1,0.9-2,2-2h7.7c1.1,0,2,0.9,2,2v8.4
		C72.2,118,71.3,118.9,70.2,118.9z"/>
	<circle cx="62" cy="105.5" r="0.3"/>
	<circle cx="62.9" cy="105.5" r="0.3"/>
	<circle cx="63.8" cy="105.5" r="0.3"/>
	<path class="st8" d="M69.8,118.4H63c-1.1,0-2-0.9-2-2v-7.5c0-1.1,0.9-2,2-2h6.8c1.1,0,2,0.9,2,2v7.5
		C71.8,117.5,70.9,118.4,69.8,118.4z"/>
	<path class="st9" d="M63.1,112.7c0,1.8,1.5,3.3,3.3,3.3c0.3,0,0.5,0,0.8-0.1v-1.8c-0.2,0.1-0.5,0.2-0.8,0.2c-0.8,0-1.5-0.7-1.5-1.6
		s0.7-1.6,1.5-1.6c0.3,0,0.5,0.1,0.8,0.2v-1.8c-0.2-0.1-0.5-0.1-0.8-0.1C64.6,109.4,63.1,110.9,63.1,112.7z M67.9,109.8v5.8
		c1-0.6,1.7-1.7,1.7-2.9C69.7,111.5,69,110.4,67.9,109.8L67.9,109.8z"/>
</g>
</svg>
