<?xml version="1.0" encoding="utf-8"?>
<!-- Generator: Adobe Illustrator 23.0.6, SVG Export Plug-In . SVG Version: 6.00 Build 0)  -->
<!DOCTYPE svg PUBLIC "-//W3C//DTD SVG 1.1//EN" "http://www.w3.org/Graphics/SVG/1.1/DTD/svg11.dtd" [
	<!ENTITY ns_extend "http://ns.adobe.com/Extensibility/1.0/">
	<!ENTITY ns_ai "http://ns.adobe.com/AdobeIllustrator/10.0/">
	<!ENTITY ns_graphs "http://ns.adobe.com/Graphs/1.0/">
	<!ENTITY ns_vars "http://ns.adobe.com/Variables/1.0/">
	<!ENTITY ns_imrep "http://ns.adobe.com/ImageReplacement/1.0/">
	<!ENTITY ns_sfw "http://ns.adobe.com/SaveForWeb/1.0/">
	<!ENTITY ns_custom "http://ns.adobe.com/GenericCustomNamespace/1.0/">
	<!ENTITY ns_adobe_xpath "http://ns.adobe.com/XPath/1.0/">
]>
<svg version="1.1" xmlns:x="&ns_extend;" xmlns:i="&ns_ai;" xmlns:graph="&ns_graphs;"
	 xmlns="http://www.w3.org/2000/svg" xmlns:xlink="http://www.w3.org/1999/xlink" x="0px" y="0px" viewBox="0 0 167.9 166.9"
	 style="enable-background:new 0 0 167.9 166.9;" xml:space="preserve">
<style type="text/css">
	.st0{display:none;}
	.st1{display:inline;}
	.st2{display:inline;fill:#B6B9BB;}
	.st3{display:none;fill:#E4E6E7;}
	.st4{display:inline;fill:#FFFFFF;}
	.st5{fill:none;stroke:#000000;stroke-width:21;stroke-linecap:round;stroke-miterlimit:10;}
	.st6{fill:#FFFFFF;}
	.st7{fill:none;stroke:#000000;stroke-width:1.5;stroke-miterlimit:10;}
	.st8{fill:#666666;}
	.st9{fill:#FFFFFF;stroke:#000000;stroke-width:1.5;stroke-miterlimit:10;}
	.st10{fill:none;stroke:#86ED18;stroke-width:4;stroke-miterlimit:10;}
	.st11{display:none;fill:#86ED18;}
	.st12{display:none;fill:none;stroke:#000000;stroke-width:0.5;stroke-miterlimit:10;}
	.st13{display:none;fill:#CCCCCC;}
	.st14{display:none;fill:#FFFFFF;}
	.st15{display:inline;fill:#86ED18;}
	.st16{display:inline;fill:none;stroke:#000000;stroke-width:0.5;stroke-miterlimit:10;}
	.st17{display:inline;fill:#CCCCCC;}
</style>
<metadata>
	<sfw  xmlns="&ns_sfw;">
		<slices></slices>
		<sliceSourceBounds  bottomLeftOrigin="true" height="176" width="314" x="418" y="-615"></sliceSourceBounds>
	</sfw>
</metadata>
<g id="Ebene_1">
	
		<image style="display:none;overflow:visible;" width="160" height="160" xlink:href="5B9C76AA.jpg"  transform="matrix(1 0 0 1 -148.5287 17.4713)">
	</image>
	<g id="Ebene_14">
	</g>
</g>
<g id="Desktop">
	<g id="Ebene_5" class="st0">
		<polygon class="st1" points="97.5,107.5 70.5,107.5 67.5,125.5 100.5,125.5 		"/>
		<path class="st2" d="M106.5,127.5h-45c-0.5,0-1-0.4-1-1l0,0c0-0.6,0.5-1,1-1h45c0.6,0,1,0.4,1,1l0,0
			C107.5,127,107,127.5,106.5,127.5z"/>
	</g>
	<path class="st3" d="M146.5,108.5h-124c-1.7,0-3-1.3-3-3v-85c0-1.7,1.3-3,3-3h124c1.6,0,3,1.3,3,3v85
		C149.5,107.1,148.1,108.5,146.5,108.5z"/>
	<g id="Ebene_4" class="st0">
		<path class="st1" d="M149.5,96.5h-130v-76c0-1.7,1.3-3,3-3h124c1.6,0,3,1.3,3,3V96.5z"/>
	</g>
	<g id="Ebene_3" class="st0">
		<rect x="25.5" y="23.5" class="st4" width="118" height="67"/>
	</g>
	<g id="Ebene_15">
		<g id="Ebene_17">
			<path class="st5" d="M103,67.5c-4.1,26.9-45.3,35.7-45.3,35.7"/>
			<path class="st6" d="M46,112.2c-1.3,0.4-2.1,1.8-1.7,3.2c0.4,1.3,1.8,2.1,3.1,1.7l17.2-5.2l-5.9-19.4l-4.2,1.3l-1.6-5.4
				c-0.4-1.3-1.8-2.1-3.1-1.7c-1.3,0.4-2.1,1.8-1.7,3.2l1.6,5.3l-13.2,4c-1.3,0.4-2.1,1.8-1.7,3.2c0.4,1.3,1.8,2.1,3.1,1.7l9.4-2.9
				l-9.4,2.9c-1.3,0.4-2.1,1.8-1.7,3.2c0.4,1.3,1.8,2.1,3.1,1.7l9.4-2.9l-9.4,2.9c-1.3,0.4-2.1,1.8-1.7,3.2c0.4,1.3,1.8,2.1,3.1,1.7
				l9.4-2.9"/>
			<path class="st7" d="M46,112.2c-1.3,0.4-2.1,1.8-1.7,3.2c0.4,1.3,1.8,2.1,3.1,1.7l17.2-5.2l-5.9-19.4l-4.2,1.3l-1.6-5.4
				c-0.4-1.3-1.8-2.1-3.1-1.7c-1.3,0.4-2.1,1.8-1.7,3.2l1.6,5.3l-13.2,4c-1.3,0.4-2.1,1.8-1.7,3.2c0.4,1.3,1.8,2.1,3.1,1.7l9.4-2.9
				l-9.4,2.9c-1.3,0.4-2.1,1.8-1.7,3.2c0.4,1.3,1.8,2.1,3.1,1.7l9.4-2.9l-9.4,2.9c-1.3,0.4-2.1,1.8-1.7,3.2c0.4,1.3,1.8,2.1,3.1,1.7
				l9.4-2.9"/>
		</g>
		<g id="Ebene_16">
			<rect x="39.2" y="115.2" transform="matrix(-1 -4.491975e-11 4.491975e-11 -1 132.3279 234.3151)" width="54" height="4"/>
			<polygon class="st8" points="39.2,115.4 93.2,115.4 92.5,113.8 39.2,113.8 			"/>
			<rect x="6.5" y="91.7" transform="matrix(-0.3432 -0.9393 0.9393 -0.3432 -44.5614 156.8075)" width="52.1" height="4.6"/>
			
				<rect x="4" y="94.5" transform="matrix(-0.3432 -0.9393 0.9393 -0.3432 -48.6504 155.4021)" class="st8" width="52.1" height="0.4"/>
			<rect x="84.5" y="114" transform="matrix(-1 -4.500412e-11 4.500412e-11 -1 175.5901 228.9366)" width="6.5" height="0.9"/>
			<rect x="75.2" y="114" transform="matrix(-1 -4.472612e-11 4.472612e-11 -1 153.1405 228.9366)" width="2.8" height="0.9"/>
			<rect x="71.9" y="114" transform="matrix(-1 -4.472612e-11 4.472612e-11 -1 146.5928 228.9366)" width="2.8" height="0.9"/>
			<rect x="68.6" y="114" transform="matrix(-1 -4.407820e-11 4.407820e-11 -1 140.045 228.9366)" width="2.8" height="0.9"/>
			<rect x="65.3" y="114" transform="matrix(-1 -4.537449e-11 4.537449e-11 -1 133.4972 228.9366)" width="2.8" height="0.9"/>
			<rect x="62.1" y="114" transform="matrix(-1 -4.472612e-11 4.472612e-11 -1 126.9494 228.9366)" width="2.8" height="0.9"/>
			<rect x="58.8" y="114" transform="matrix(-1 -4.472612e-11 4.472612e-11 -1 120.4016 228.9366)" width="2.8" height="0.9"/>
			<rect x="55.5" y="114" transform="matrix(-1 -4.537449e-11 4.537449e-11 -1 113.8538 228.9366)" width="2.8" height="0.9"/>
			<rect x="52.2" y="114" transform="matrix(-1 -4.407820e-11 4.407820e-11 -1 107.306 228.9366)" width="2.8" height="0.9"/>
			<rect x="49" y="114" transform="matrix(-1 -4.537449e-11 4.537449e-11 -1 100.7582 228.9366)" width="2.8" height="0.9"/>
		</g>
		<g>
			<g>
				<path class="st6" d="M41.2,160.4c4.4-14.1,11-51.1,37.4-51.4"/>
				<path class="st6" d="M79.3,161.5"/>
				<path class="st7" d="M42.9,154.7c4.5-16.5,12.4-45.4,35.7-45.7"/>
				<path class="st7" d="M79.3,161.5"/>
				<path class="st9" d="M74.9,165c-0.3-2.3-1-4.6-1.6-6.9c-4.1-15-7.6-54.8,22.2-54.8l9.1,0.2C101,95.7,94.5,81.2,94,70.5
					c-0.5-9.9,6.2-15.7,16.1-15.7s13.5,4.4,17.9,17.9l12.4,40.2c2.5,10-5.2,19.7-15.5,19.7H99.5"/>
				<path class="st5" d="M63.2,107.6l11.4-1.4c40-5.6,37.4-40.6,37.4-40.6"/>
				<path class="st9" d="M125.9,41.3c0-2.4-1.9-4.3-4.3-4.3c-2.4,0-4.3,1.9-4.3,4.3c0,2.4,1.9,4.3,4.3,4.3
					C124,45.5,125.9,43.6,125.9,41.3z"/>
				<path class="st9" d="M121.7,42c0-8.2-6.7-14.9-15-14.9s-15,6.7-15,14.9c0,8.2,6.7,14.9,15,14.9S121.7,50.3,121.7,42z"/>
				<path d="M104.2,42.2c0-0.5-0.4-0.9-0.9-0.9c-0.5,0-0.9,0.4-0.9,0.9c0,0.5,0.4,0.9,0.9,0.9C103.8,43.1,104.2,42.7,104.2,42.2z"/>
				<path d="M97.9,42.4c0-0.5-0.4-0.9-0.9-0.9c-0.5,0-0.9,0.4-0.9,0.9c0,0.5,0.4,0.9,0.9,0.9C97.5,43.2,97.9,42.8,97.9,42.4z"/>
				<path class="st7" d="M103.7,47c0.1,1.8-1.3,3.4-3.2,3.5c-1.8,0.1-3.4-1.3-3.5-3.2"/>
				<path class="st6" d="M51.2,114.1c-1.4,0.2-2.4,1.4-2.2,2.8c0.2,1.4,1.5,2.4,2.8,2.2l17.8-2.2L67,96.8l-4.4,0.5l-0.7-5.5
					c-0.2-1.4-1.5-2.4-2.8-2.2c-1.4,0.2-2.4,1.4-2.2,2.8l0.7,5.5l-13.7,1.8c-1.4,0.2-2.4,1.4-2.2,2.8c0.2,1.4,1.5,2.4,2.8,2.2
					l9.8-1.2l-9.8,1.2c-1.4,0.2-2.4,1.4-2.2,2.8c0.2,1.4,1.5,2.4,2.8,2.2l9.8-1.2l-9.8,1.2c-1.4,0.2-2.4,1.4-2.2,2.8
					c0.2,1.4,1.5,2.4,2.8,2.2l9.8-1.2"/>
				<path class="st7" d="M51.2,114.1c-1.4,0.2-2.4,1.4-2.2,2.8c0.2,1.4,1.5,2.4,2.8,2.2l17.8-2.2L67,96.8l-4.4,0.5l-0.7-5.5
					c-0.2-1.4-1.5-2.4-2.8-2.2c-1.4,0.2-2.4,1.4-2.2,2.8l0.7,5.5l-13.7,1.8c-1.4,0.2-2.4,1.4-2.2,2.8c0.2,1.4,1.5,2.4,2.8,2.2
					l9.8-1.2l-9.8,1.2c-1.4,0.2-2.4,1.4-2.2,2.8c0.2,1.4,1.5,2.4,2.8,2.2l9.8-1.2l-9.8,1.2c-1.4,0.2-2.4,1.4-2.2,2.8
					c0.2,1.4,1.5,2.4,2.8,2.2l9.8-1.2"/>
				<path class="st9" d="M110.5,160.9l-11-28.5h45l1.6,4"/>
			</g>
			<path class="st7" d="M117.5,31.6c0.2-3.6-2-7.3-6.2-8.9c0.1-2.7-1.9-5.2-4.8-5.6c-2.1-0.2-4.1,0.7-5.2,2.5
				c-0.5,0.7-0.7,1.5-0.8,2.1c0,0.1-0.2,0.1-0.2,0c-0.4-1.2-1.3-2.1-2.6-2.4c-2.1-0.5-4.1,1-4.3,3.2c-0.1,1.2,0.5,2.3,1.5,3.1
				c0.5,0.4,1,0.5,1.5,0.6c0.1,0,0.1,0.2,0,0.2C95,26.9,94.1,28,94,29.4c-0.2,1.6,0.9,3.3,2.5,3.7c1.7,0.6,3.5-0.3,4.2-1.8"/>
		</g>
	</g>
	<g id="Ebene_2">
		<circle class="st10" cx="83.5" cy="83.5" r="80"/>
	</g>
	<path class="st11" d="M165.5,83.5c0,20.2-7.3,38.7-19.4,53c-9.4,11-21.6,19.6-35.5,24.4c-8.5,3-17.6,4.6-27.1,4.6
		c-14.8,0-28.6-3.9-40.6-10.7C18.1,140.6,1.5,114,1.5,83.5c0-45.3,36.7-82,82-82S165.5,38.2,165.5,83.5z"/>
	<rect x="73" y="42" class="st11" width="24.5" height="4"/>
	<rect x="73" y="28" class="st12" width="24.5" height="18"/>
	<path class="st0" d="M93.1,32.5H77.4c-0.6,0-1-0.4-1-1v0c0-0.5,0.4-1,1-1h15.7c0.6,0,1,0.4,1,1v0C94.1,32,93.6,32.5,93.1,32.5z"/>
	<path class="st0" d="M89.1,43.4h-7.8c-0.3,0-0.5,0.2-0.5,0.5l0,0c0,0.3,0.2,0.5,0.5,0.5h7.8c0.3,0,0.5-0.2,0.5-0.5l0,0
		C89.6,43.6,89.4,43.4,89.1,43.4z"/>
	<rect x="76.4" y="34.5" class="st13" width="17.7" height="1"/>
	<rect x="76.4" y="36.5" class="st13" width="17.7" height="1"/>
	<rect x="76.4" y="38.5" class="st13" width="12.3" height="1"/>
	<rect x="101" y="42" class="st11" width="24.5" height="4"/>
	<rect x="101" y="28" class="st12" width="24.5" height="18"/>
	<path class="st0" d="M121.1,32.5h-15.7c-0.6,0-1-0.4-1-1v0c0-0.5,0.4-1,1-1h15.7c0.6,0,1,0.4,1,1v0C122.1,32,121.6,32.5,121.1,32.5
		z"/>
	<path class="st0" d="M117.1,43.4h-7.8c-0.3,0-0.5,0.2-0.5,0.5l0,0c0,0.3,0.2,0.5,0.5,0.5h7.8c0.3,0,0.5-0.2,0.5-0.5l0,0
		C117.6,43.6,117.4,43.4,117.1,43.4z"/>
	<rect x="104.4" y="34.5" class="st13" width="17.7" height="1"/>
	<rect x="104.4" y="36.5" class="st13" width="17.7" height="1"/>
	<rect x="104.4" y="38.5" class="st13" width="12.3" height="1"/>
	<rect x="73" y="63" class="st14" width="24.5" height="4"/>
	<rect x="73" y="49" class="st12" width="24.5" height="18"/>
	<path class="st0" d="M93.1,53.5H77.4c-0.6,0-1-0.4-1-1v0c0-0.5,0.4-1,1-1h15.7c0.6,0,1,0.5,1,1v0C94.1,53,93.6,53.5,93.1,53.5z"/>
	<path class="st0" d="M89.1,64.4h-7.8c-0.3,0-0.5,0.2-0.5,0.5l0,0c0,0.3,0.2,0.5,0.5,0.5h7.8c0.3,0,0.5-0.2,0.5-0.5l0,0
		C89.6,64.6,89.4,64.4,89.1,64.4z"/>
	<rect x="76.4" y="55.5" class="st13" width="17.7" height="1"/>
	<rect x="76.4" y="57.5" class="st13" width="17.7" height="1"/>
	<rect x="76.4" y="59.5" class="st13" width="12.3" height="1"/>
	<rect x="101" y="63" class="st11" width="24.5" height="4"/>
	<rect x="101" y="49" class="st12" width="24.5" height="18"/>
	<path class="st0" d="M121.1,53.5h-15.7c-0.6,0-1-0.4-1-1v0c0-0.5,0.4-1,1-1h15.7c0.6,0,1,0.5,1,1v0C122.1,53,121.6,53.5,121.1,53.5
		z"/>
	<path class="st0" d="M117.1,64.4h-7.8c-0.3,0-0.5,0.2-0.5,0.5l0,0c0,0.3,0.2,0.5,0.5,0.5h7.8c0.3,0,0.5-0.2,0.5-0.5l0,0
		C117.6,64.6,117.4,64.4,117.1,64.4z"/>
	<rect x="104.4" y="55.5" class="st13" width="17.7" height="1"/>
	<rect x="104.4" y="57.5" class="st13" width="17.7" height="1"/>
	<rect x="104.4" y="59.5" class="st13" width="12.3" height="1"/>
	<rect x="73" y="84" class="st11" width="24.5" height="4"/>
	<rect x="73" y="70" class="st12" width="24.5" height="18"/>
	<path class="st0" d="M93.1,74.5H77.4c-0.6,0-1-0.4-1-1l0,0c0-0.6,0.4-1,1-1h15.7c0.6,0,1,0.5,1,1l0,0C94.1,74,93.6,74.5,93.1,74.5z
		"/>
	<path class="st0" d="M89.1,85.4h-7.8c-0.3,0-0.5,0.2-0.5,0.5l0,0c0,0.3,0.2,0.5,0.5,0.5h7.8c0.3,0,0.5-0.2,0.5-0.5l0,0
		C89.6,85.6,89.4,85.4,89.1,85.4z"/>
	<rect x="76.4" y="76.5" class="st13" width="17.7" height="1"/>
	<rect x="76.4" y="78.5" class="st13" width="17.7" height="1"/>
	<rect x="76.4" y="80.5" class="st13" width="12.3" height="1"/>
	<rect x="101" y="84" class="st14" width="24.5" height="4"/>
	<rect x="101" y="70" class="st12" width="24.5" height="18"/>
	<path class="st0" d="M121.1,74.5h-15.7c-0.6,0-1-0.4-1-1l0,0c0-0.6,0.4-1,1-1h15.7c0.6,0,1,0.5,1,1l0,0
		C122.1,74,121.6,74.5,121.1,74.5z"/>
	<path class="st0" d="M117.1,85.4h-7.8c-0.3,0-0.5,0.2-0.5,0.5l0,0c0,0.3,0.2,0.5,0.5,0.5h7.8c0.3,0,0.5-0.2,0.5-0.5l0,0
		C117.6,85.6,117.4,85.4,117.1,85.4z"/>
	<rect x="104.4" y="76.5" class="st13" width="17.7" height="1"/>
	<rect x="104.4" y="78.5" class="st13" width="17.7" height="1"/>
	<rect x="104.4" y="80.5" class="st13" width="12.3" height="1"/>
	<line class="st12" x1="67.5" y1="27.5" x2="67.5" y2="80.5"/>
	<path class="st0" d="M61.5,37H43c-1.4,0-2.5-1.1-2.5-2.5v0c0-1.4,1.1-2.5,2.5-2.5h18.5c1.4,0,2.5,1.1,2.5,2.5v0
		C64,35.8,62.8,37,61.5,37z"/>
	<path class="st13" d="M61.5,48H43c-1.4,0-2.5-1.1-2.5-2.5v0c0-1.4,1.1-2.5,2.5-2.5h18.5c1.4,0,2.5,1.1,2.5,2.5v0
		C64,46.8,62.8,48,61.5,48z"/>
	<path class="st13" d="M61.5,59H43c-1.4,0-2.5-1.1-2.5-2.5v0c0-1.4,1.1-2.5,2.5-2.5h18.5c1.4,0,2.5,1.1,2.5,2.5v0
		C64,57.8,62.8,59,61.5,59z"/>
	<path class="st13" d="M61.5,71H43c-1.4,0-2.5-1.1-2.5-2.5l0,0c0-1.4,1.1-2.5,2.5-2.5h18.5c1.4,0,2.5,1.1,2.5,2.5l0,0
		C64,69.8,62.8,71,61.5,71z"/>
</g>
<g id="mobile" class="st0">
	<g id="Ebene_6" class="st1">
		<path d="M37.5,131.5h-29c-0.5,0-1-0.5-1-1v-58c0-0.5,0.4-1,1-1h29c0.6,0,1,0.5,1,1v58C38.5,131,38,131.5,37.5,131.5z"/>
	</g>
	<g id="Ebene_8" class="st1">
	</g>
	<g id="Ebene_7" class="st1">
		<rect x="9.5" y="77.5" class="st6" width="27" height="42"/>
	</g>
	<g id="Ebene_9" class="st1">
		<circle class="st6" cx="23" cy="126" r="2.5"/>
	</g>
</g>
<g id="Ebene_12" class="st0">
	<rect x="10.5" y="93.4" class="st15" width="25" height="4"/>
	<rect x="10.5" y="79.4" class="st16" width="25" height="18"/>
	<path class="st1" d="M31,83.9H14.9c-0.5,0-1-0.4-1-1v0c0-0.5,0.4-1,1-1H31c0.5,0,1,0.5,1,1v0C32,83.4,31.5,83.9,31,83.9z"/>
	<path class="st1" d="M27,94.8h-8c-0.3,0-0.5,0.2-0.5,0.5l0,0c0,0.3,0.2,0.5,0.5,0.5h8c0.3,0,0.5-0.2,0.5-0.5l0,0
		C27.5,95,27.3,94.8,27,94.8z"/>
	<rect x="13.9" y="85.9" class="st17" width="18.1" height="1"/>
	<rect x="13.9" y="87.9" class="st17" width="18.1" height="1"/>
	<rect x="13.9" y="89.9" class="st17" width="12.5" height="1"/>
	<rect x="10.5" y="114.4" class="st4" width="25" height="4"/>
	<rect x="10.5" y="100.4" class="st16" width="25" height="18"/>
	<path class="st1" d="M31,104.9H14.9c-0.5,0-1-0.4-1-1v0c0-0.5,0.4-1,1-1H31c0.5,0,1,0.5,1,1v0C32,104.4,31.5,104.9,31,104.9z"/>
	<path class="st1" d="M27,115.8h-8c-0.3,0-0.5,0.2-0.5,0.5l0,0c0,0.3,0.2,0.5,0.5,0.5h8c0.3,0,0.5-0.2,0.5-0.5l0,0
		C27.5,116,27.3,115.8,27,115.8z"/>
	<rect x="13.9" y="106.9" class="st17" width="18.1" height="1"/>
	<rect x="13.9" y="108.9" class="st17" width="18.1" height="1"/>
	<rect x="13.9" y="110.9" class="st17" width="12.5" height="1"/>
</g>
<g id="Ebene_13">
	<circle cx="144" cy="146" r="18.5"/>
	<g>
		<path class="st6" d="M137.8,154.1v-2.8l7.1-6.9c0.5-0.5,1-1,1.3-1.5c0.3-0.5,0.5-1.1,0.5-1.6c0-0.8-0.2-1.4-0.7-1.8
			c-0.5-0.4-1.1-0.6-1.9-0.6c-0.9,0-1.6,0.2-2.1,0.7c-0.5,0.5-0.8,1.2-0.8,2.1h-3.3c0-0.8,0.2-1.6,0.5-2.3c0.3-0.7,0.8-1.3,1.3-1.8
			c0.6-0.5,1.2-0.9,2-1.1c0.8-0.3,1.6-0.4,2.5-0.4c0.9,0,1.7,0.1,2.4,0.4c0.7,0.3,1.3,0.6,1.8,1.1c0.5,0.5,0.9,1,1.1,1.6
			c0.3,0.6,0.4,1.4,0.4,2.1c0,0.5-0.1,1-0.2,1.5s-0.3,0.9-0.6,1.3c-0.2,0.4-0.5,0.8-0.8,1.2c-0.3,0.4-0.6,0.7-1,1l-5.4,5v0.1h8.2
			v2.8H137.8z"/>
	</g>
	<g>
	</g>
	<g>
	</g>
	<g>
	</g>
	<g>
	</g>
	<g>
	</g>
	<g>
	</g>
	<g>
	</g>
	<g>
	</g>
	<g>
	</g>
	<g>
	</g>
	<g>
	</g>
	<g>
	</g>
	<g>
	</g>
	<g>
	</g>
	<g>
	</g>
</g>
</svg>
