<?xml version="1.0" encoding="utf-8"?>
<!-- Generator: Adobe Illustrator 23.0.1, SVG Export Plug-In . SVG Version: 6.00 Build 0)  -->
<svg version="1.1" id="Ebene_1" xmlns="http://www.w3.org/2000/svg" xmlns:xlink="http://www.w3.org/1999/xlink" x="0px" y="0px"
	 viewBox="0 0 160 144" style="enable-background:new 0 0 160 144;" xml:space="preserve">
<style type="text/css">
	.st0{fill:#FFFFFF;stroke:#000000;stroke-width:3;stroke-miterlimit:10;}
	.st1{fill:none;stroke:#000000;stroke-width:3;stroke-miterlimit:10;}
	.st2{fill:#FFFFFF;stroke:#000000;stroke-width:3;}
	.st3{display:none;fill:none;stroke:#86ED18;stroke-width:3;stroke-miterlimit:10;}
	.st4{display:none;fill:#FFFFFF;stroke:#86ED18;stroke-width:3;stroke-miterlimit:10;}
	.st5{fill:none;stroke:#000000;stroke-width:3;}
	.st6{fill:#FFFFFF;stroke:#86ED18;stroke-width:3;stroke-miterlimit:10;}
	.st7{fill:none;stroke:#86ED18;stroke-width:3;stroke-miterlimit:10;}
</style>
<path class="st0" d="M8.4,17.2c1.1,0,2.1-0.9,2.1-2.1c0-1.1-0.9-2.1-2.1-2.1c-1.1,0-2.1,0.9-2.1,2.1S7.2,17.2,8.4,17.2z M8.4,33.3
	c1.1,0,2.1-0.9,2.1-2.1c0-1.1-0.9-2.1-2-2.1h0c-1.1,0-2.1,0.9-2.1,2.1C6.3,32.3,7.2,33.3,8.4,33.3z"/>
<path class="st0" d="M158.5,1.5H1.5v93.4h157V1.5z"/>
<path class="st1" d="M1.5,12.6h157"/>
<path d="M7.4,9.4c1.3,0,2.3-1,2.3-2.3c0-1.3-1-2.3-2.3-2.3c-1.3,0-2.3,1-2.3,2.3c0,0,0,0,0,0C5.1,8.3,6.1,9.4,7.4,9.4L7.4,9.4z
	 M16,9.4c1.3,0,2.3-1,2.3-2.3c0,0,0,0,0,0c0-1.3-1-2.3-2.3-2.3c-1.3,0-2.3,1-2.3,2.3c0,0,0,0,0,0C13.7,8.3,14.7,9.4,16,9.4L16,9.4z
	 M24.4,9.4c1.3,0,2.3-1,2.3-2.3c0-1.3-1-2.3-2.3-2.3c-1.3,0-2.3,1-2.3,2.3c0,0,0,0,0,0C22.1,8.3,23.1,9.4,24.4,9.4L24.4,9.4z"/>
<path class="st2" d="M35.4,35.3c0,2.5-2,4.4-4.4,4.4c-2.4,0-4.4-2-4.4-4.4s2-4.4,4.4-4.4C33.4,30.8,35.4,32.8,35.4,35.3z M31,45.8
	c7.2,0,13,5.9,13,13.2v5.6H18v-5.6C18,51.6,23.8,45.8,31,45.8z"/>
<path class="st1" d="M55.5,31.5h67.9 M55.5,39.2h67.9 M55.5,47.1h33.9"/>
<path class="st3" d="M84.5,141.6c-22.1,0-40-17.7-40-39.7s17.9-39.7,40-39.7c19.8,0,36.2,14.2,39.4,33 M84.5,141.6
	c20.7,0,30.4-12.3,22.3-20.4"/>
<path class="st4" d="M107.3,112.4c1.1,0.7,2.8,1.7,2.4,4c-0.3,1.6-3.6,7.9-10.8,7.9c-7.2,0-16-5.6-23.7-13.4
	c-7.7-7.7-13.3-16.4-13.3-23.6c0-7.2,6.4-10.5,8-10.7c2.3-0.3,3.2,1.3,4,2.4c0.7,1.1,4.8,7.3,5.5,8.2c0.7,0.9,1.3,3.3-1.1,5.2
	c-2.3,1.9-4.8,2.9,3.9,11.5c8.8,8.7,9.7,6.2,11.6,3.8c1.9-2.3,4.3-1.6,5.2-1.1C100,107.7,106.4,111.8,107.3,112.4z"/>
<path class="st5" d="M111.5,94.4H143"/>
<circle class="st6" cx="80" cy="101.8" r="40.2"/>
<path class="st7" d="M96.5,92.8l-21.9,20.1l-9.1-8.4"/>
</svg>
