<svg version="1.1" xmlns="http://www.w3.org/2000/svg" xmlns:xlink="http://www.w3.org/1999/xlink" x="0px" y="0px"
	 width="775" height="407" viewBox="0 0 775 407" style="enable-background:new 0 0 775 407;" xml:space="preserve">
<style type="text/css">
	.st0{fill:none;stroke:#000000;stroke-width:3;}
	.st1{fill:none;stroke:#000000;stroke-width:3;stroke-miterlimit:10;}
	.st2{fill:#86ED18;}
	.st3{fill:none;stroke:#86ED18;stroke-width:11;stroke-miterlimit:10;}
	.st4{fill:#FFFFFF;}
	.st5{fill:#FFFFFF;stroke:#000000;stroke-width:3;stroke-miterlimit:10;}
	.st6{fill:#FFFFFF;stroke:#000000;stroke-width:3;stroke-linejoin:round;stroke-miterlimit:10;}
	.st7{fill:none;stroke:#000000;stroke-width:2;stroke-linejoin:round;stroke-miterlimit:10;}
	.st8{fill:none;stroke:#86ED18;stroke-width:3;stroke-miterlimit:10;}
	.st9{display:none;fill:none;stroke:#000000;stroke-width:3;stroke-miterlimit:10;}
	.st10{display:none;}
	.st11{display:inline;fill:#FFFFFF;}
	.st12{display:inline;}
	.st13{font-family:'ApercuPro-Medium';}
	.st14{font-size:31.083px;}
</style>
<g id="Ebene_1">
	<path class="st0" d="M320,256.4h378.6"/>
	<path class="st1" d="M472.9,202.5l-1.7,53.9H333.7c0,0,5.3-17.4,14.3-23.5c9.1-6.1,31.9-6.3,42-19.6c3.1-4.2,18.7-62.3,21.8-72.7
		c6.7-22.7,16.7-53.7,49.5-49.7c32.8,3.9,89.4,142.2,113.4,160.9"/>
	<path class="st2" d="M457.8,76.8V54.4l35.9-5.3v32.8L457.8,76.8z"/>
	<path class="st3" d="M68.8,18.7c-3.1,0-40.5,12.6-50.6,52.4"/>
	<path class="st4" d="M422.9,82.4l0.1-23.8c0-2.5,2.2-4.5,4.8-4.5c2.7,0,4.8,2,4.8,4.6l-0.2,23.9c0,0,0.6,5.9,2.9,10.9"/>
	<path class="st1" d="M422.9,82.4l0.1-23.8c0-2.5,2.2-4.5,4.8-4.5c2.7,0,4.8,2,4.8,4.6l-0.2,23.9c0,0,0.6,5.9,2.9,10.9"/>
	<path d="M484.2,153.4c-4.6,0-9.1-0.4-13.6-1.1c-46.4-7.2-73.5-49.9-74.5-51.7L432.7,83c0.2,0.3,17.1,28.4,44.5,32.5
		c18,2.7,38.1-5.5,59.7-24.4l26.7,27.4C537.1,141.7,510.5,153.4,484.2,153.4z"/>
	<path class="st1" d="M450.8,79.5l0.1-22.4l35.9-5.2l-0.2,32.8L450.8,79.5z"/>
	<path class="st1" d="M450.9,74.9l0.1-13.3l-10.3,0l-0.1,13.3L450.9,74.9z"/>
	<path class="st1" d="M440.6,68.9L423,68.8"/>
	<path class="st5" d="M419.7,88.9c2.7,0,4.8,2,4.8,4.6c0,2.5-2.2,4.5-4.8,4.5L399,97.9l0.2-36.4l20.6,0.1c2.7,0,4.8,2,4.8,4.6
		c0,2.5-2.2,4.5-4.8,4.5c2.7,0,4.8,2,4.8,4.6c0,2.5-2.2,4.5-4.8,4.5c2.7,0,4.8,2,4.8,4.6C424.5,86.9,422.3,88.9,419.7,88.9z"/>
	<path class="st1" d="M411.3,88.9l8.3,0"/>
	<path class="st1" d="M411.4,79.8l8.3,0"/>
	<path class="st1" d="M411.4,70.7l8.3,0"/>
	<path class="st4" d="M577,115.2c26.7,87.1,2.6,139.9,2.6,139.9l-61.3-19.9l-2.8-37.8l0.4-76.7c0.1-15.6,13.5-28.2,30-28.2
		c16.5,0.1,29.8,12.8,29.7,28.4"/>
	<path class="st1" d="M577,115.2c26.7,87.1,2.6,139.9,2.6,139.9l-61.3-19.9l-2.8-37.8l0.4-76.7c0.1-15.6,13.5-28.2,30-28.2
		c16.5,0.1,29.8,12.8,29.7,28.4"/>
	<path class="st6" d="M578.8,256.7c-18.4-23.8-68.8-67.9-99.5-79.5c-30.8-11.6-52-0.2-64.4,20.2c-5.7,9.4-73.6,134.9-77.8,138.2
		c-13.3,10.6-35.4,5.3-45.8,9.1c-10.4,3.8-18.6,17.7-18.6,17.7l131.8,34.1l40.3-139.8L578.8,256.7L578.8,256.7z"/>
	<path d="M604.1,249.6c0.1-1.6,0.1-3.8,0-4.9l-0.1-0.3l-1-0.8c-0.1-0.3-7.3-32.3-27.3-69.8c-8.7-16.2-29.7-47.8-29.9-48.1
		c-5.8-8.7-3.1-20.2,6.2-25.7c9.2-5.5,21.4-2.9,27.2,5.8c0.9,1.4,22.2,33.4,31.7,51.1c20.6,38.5,29.5,71.1,31,76.9
		c2.1,6.5,1.3,14.3,1.5,18.5C643.7,257.3,603.3,259.8,604.1,249.6z M604.5,245.5L604.5,245.5L604.5,245.5z"/>
	<path class="st5" d="M585.3,80.6c5.2,0,9.5-4,9.5-9c0-4.9-4.2-9-9.5-9c-5.2,0-9.5,4-9.5,9C575.8,76.6,580.1,80.6,585.3,80.6z"/>
	<path class="st5" d="M552.3,103.5c18.3,0,33.2-14.1,33.2-31.4c0-17.3-14.9-31.4-33.2-31.4c-18.3,0-33.2,14.1-33.2,31.4
		C519.2,89.4,534,103.5,552.3,103.5z"/>
	<path d="M540.3,80.4c3.2,0,5.7-2.4,5.7-5.4c0-3-2.6-5.4-5.7-5.4c-3.2,0-5.7,2.4-5.7,5.4C534.5,77.9,537.1,80.4,540.3,80.4z"/>
	<path class="st4" d="M542.5,77.9c1.7,0,3.1-1.3,3.1-3c0-1.6-1.4-3-3.1-3c-1.7,0-3.1,1.3-3.1,3C539.4,76.6,540.8,77.9,542.5,77.9z"
		/>
	<path class="st7" d="M540.3,80.4c3.2,0,5.7-2.4,5.7-5.4c0-3-2.6-5.4-5.7-5.4c-3.2,0-5.7,2.4-5.7,5.4
		C534.5,77.9,537.1,80.4,540.3,80.4z"/>
	<path d="M530.9,65.3c1.7,0,3.1-1.3,3.1-2.9c0-1.6-1.4-2.9-3.1-2.9c-1.7,0-3.1,1.3-3.1,2.9C527.8,64,529.2,65.3,530.9,65.3z"/>
	<path d="M550.6,65.3c1.7,0,3.1-1.3,3.1-2.9c0-1.6-1.4-2.9-3.1-2.9c-1.7,0-3.1,1.3-3.1,2.9C547.5,64,548.9,65.3,550.6,65.3z"/>
	<path class="st1" d="M648.8,319.4c62.3,0.3,113-47.3,113.2-106.2S712.1,106.3,649.9,106h-1.4c-8.8-0.5-16.6-5.7-17.3-19
		c-2.1-40.4-43.9-50.8-52.9-50.8L550.6,36v4.7c0,0,0.3,26.6,34.8,22"/>
	<path class="st1" d="M405.4,68.7l-41-0.2c-22.9-0.1-41.6,17.4-41.7,39.1l-0.4,82.3c-0.1,21.7-18.8,39.2-41.7,39.1l-22.1-0.1
		l-44-0.3l-11,0l-66.7-0.3c-59.2-0.3-108.6-43.9-108.3-99.9c0.3-56.1,45.8-100.3,105-100c53.7,0,106,43,105,96c0,0,7,72-95,71
		c-6-0.1-9-1-9-7V155"/>
	<path class="st5" d="M605.9,246.4l52.9,0.2c2.6,0,4.7,2,4.7,4.5c0,2.5-2.1,4.5-4.8,4.5c0,0-30.9-0.1-37.4-0.2c-6.6,0-6,5-6,5
		l-0.1,13.4c-0.5,2-2.4,3.5-4.7,3.5c-2.7,0-4.8-2-4.8-4.6L605.9,246.4z"/>
	<path class="st1" d="M125.6,153.6c-18.4-3.7-32.2-18.7-32.2-36.5c0-20.7,18.3-37.5,41-37.5c22.7,0,41,16.8,41,37.5
		c0,17-12.4,31.4-29.6,36C134.5,155.5,125.6,153.6,125.6,153.6z"/>
	<path class="st5" d="M120.6,91.1c1-0.2,3.1-1.2,2.8-3.6c-0.3-2.5-1.3-6.1,10.3-6.1c11.6,0,10.6,3.5,10.3,6.1
		c-0.3,2.5,1.8,3.5,2.8,3.7c1,0.2,7.9,1.5,9.1,1.7c1.1,0.2,3,0.7,4.2-0.9c0.9-1.1,2.9-6.9-1.9-11.1c-4.7-4.2-14.3-6.1-24.5-6.1
		c-10.2,0-19.8,1.9-24.5,6.1c-4.7,4.2-2.8,10-1.9,11.1c1.2,1.5,3,1.1,4.2,0.9C112.7,92.6,119.5,91.3,120.6,91.1L120.6,91.1z"/>
	<path class="st8" d="M137.2,99.5v1.4c0,0.8-0.8,1.4-1.8,1.4H132c-1,0-1.8-0.6-1.8-1.4v-1.4 M123.2,99.5v1.4c0,0.8-0.9,1.4-2,1.4h-4
		c-1.1,0-2-0.6-2-1.4v-1.4 M151.3,99.5v1.4c0,0.8-0.8,1.4-1.8,1.4H146c-1,0-1.8-0.6-1.8-1.4v-1.4 M137.2,109.6v1.4
		c0,0.8-0.8,1.4-1.8,1.4H132c-1,0-1.8-0.6-1.8-1.4v-1.4 M123.2,109.6v1.4c0,0.8-0.9,1.4-2,1.4h-4c-1.1,0-2-0.6-2-1.4v-1.4
		 M151.3,109.6v1.4c0,0.8-0.8,1.4-1.8,1.4H146c-1,0-1.8-0.6-1.8-1.4v-1.4 M137.2,118.7v1.8c0,1-0.8,1.8-1.8,1.8H132
		c-1,0-1.8-0.8-1.8-1.8v-1.8 M123.2,118.7v1.8c0,1-0.9,1.8-2,1.8h-4c-1.1,0-2-0.8-2-1.8v-1.8 M151.3,118.7v1.8c0,1-0.8,1.8-1.8,1.8
		H146c-1,0-1.8-0.8-1.8-1.8v-1.8"/>
	<path class="st1" d="M261.5,150.5"/>
	<ellipse class="st9" cx="133.5" cy="127.5" rx="105" ry="99"/>
</g>
<g id="Ebene_2" class="st10">
	<ellipse class="st11" cx="204.6" cy="228.7" rx="5.4" ry="4.2"/>
	<ellipse class="st11" cx="239.8" cy="228.7" rx="6.6" ry="4.8"/>
	<ellipse class="st11" cx="259" cy="228.7" rx="6.6" ry="4.8"/>
	<ellipse class="st11" cx="221.9" cy="232.9" rx="5.4" ry="4.2"/>
	<text transform="matrix(1 0 0 1 194.9473 239.4199)" class="st12 st13 st14">0800</text>
</g>
</svg>
