<svg version="1.1" xmlns="http://www.w3.org/2000/svg" xmlns:xlink="http://www.w3.org/1999/xlink" x="0px" y="0px"
	 width="160" height="163" viewBox="0 0 160 163" style="enable-background:new 0 0 160 163;" xml:space="preserve">
<style type="text/css">
	.st0{fill:#202020;}
	.st1{fill:none;stroke:#86ED18;stroke-width:3;stroke-miterlimit:10;}
	.st2{fill:none;stroke:#202020;stroke-width:3;stroke-miterlimit:10;}
	.st3{display:none;fill:#FFFFFF;}
	.st4{display:none;fill:none;stroke:#000000;stroke-width:3;stroke-miterlimit:10;}
	.st5{display:none;}
	.st6{display:inline;fill:#FFFFFF;stroke:#86ED18;stroke-miterlimit:10;}
	.st7{display:inline;fill:none;stroke:#86ED18;stroke-miterlimit:10;}
	.st8{display:inline;fill:#FFFFFF;stroke:#000000;stroke-miterlimit:10;}
	.st9{display:inline;stroke:#000000;stroke-miterlimit:10;}
	.st10{display:inline;fill:none;stroke:#000000;stroke-miterlimit:10;}
	.st11{display:inline;}
	.st12{display:inline;fill:#FFFFFF;}
	.st13{display:inline;fill:none;stroke:#000000;stroke-linejoin:round;stroke-miterlimit:10;}
	.st14{fill:#FFFFFF;stroke:#000000;stroke-width:1.5;stroke-miterlimit:10;}
	.st15{fill:none;stroke:#000000;stroke-width:1.5;stroke-miterlimit:10;}
	.st16{stroke:#000000;stroke-width:1.5;stroke-miterlimit:10;}
	.st17{fill:none;stroke:#86ED18;stroke-width:1.5;stroke-linejoin:round;stroke-miterlimit:10;}
</style>
<g id="Ebene_1">
	<path class="st0" d="M144.7,120l-2.4,2.3l12.6,10.6l-12.6,10.6l2.4,2.3l15.3-12.9L144.7,120L144.7,120z M28.5,13.9L26,16L14.3,4.6
		L2.6,16L0,13.9L14.3,0L28.5,13.9z"/>
	<path class="st1" d="M14.3,116.9l32.7-26.2l7.4,3.7l28.5-26.2l11.8,6.5l39.6-33.6"/>
	<path class="st2" d="M156.2,132.9h-142V4.2"/>
	<path class="st3" d="M51.2,120.6c-2.9,0.4-5.7,1.1-8.2,2.3c-9.2,4.4-10.7,11.6-10.7,17.1c0,5.6,2.6,13.7,12.5,21h8.4v-4.2
		c0,0,8.5,0.5,10.3,0.5c0.9,1.7,2.8,3.7,2.8,3.7h7.8v-6.3c0,0,5.2-3.4,7-5.3c3.3,0.3,6.9-2.1,8.1-9.2c0-1-0.5-1.3-1.2-1.3
		c-0.6,0-3-0.5-3.5-1.1c-0.5-0.5-1.8-5-4.4-8.4C81.7,126,85,124,85,124c-3.3-1.5-6.6-2.6-13.2-1.9c-1.7-0.3-4.7-1-7.5-1.3"/>
	<path class="st4" d="M51.2,120.6c-2.9,0.4-5.7,1.1-8.2,2.3c-9.2,4.4-10.7,11.6-10.7,17.1c0,5.6,2.6,13.7,12.5,21h8.4v-4.2
		c0,0,8.5,0.5,10.3,0.5c0.9,1.7,2.8,3.7,2.8,3.7h7.8v-6.3c0,0,5.2-3.4,7-5.3c3.3,0.3,6.9-2.1,8.1-9.2c0-1-0.5-1.3-1.2-1.3
		c-0.6,0-3-0.5-3.5-1.1c-0.5-0.5-1.8-5-4.4-8.4C81.7,126,85,124,85,124c-3.3-1.5-6.6-2.6-13.2-1.9c-1.7-0.3-4.7-1-7.5-1.3"/>
	<path class="st4" d="M48.6,114.8c0,4.6,4.2,8.4,9.3,8.4s9.3-3.8,9.3-8.4s-4.2-8.4-9.3-8.4S48.6,110.1,48.6,114.8z M32.3,140
		c-3.3-0.3-11.6-1.5-11.6,2.1c0,2.7,2.2,3.6,4.4,2.8c2.1-0.8,5-5.8-4.5-9.1 M50.5,126.4c2.4-0.7,5-1.1,7.5-1.1c2.5,0,4.9,0.4,7.2,1
		 M74.2,136.9c0.6,0,1.2-0.5,1.2-1.1c0-0.6-0.5-1.1-1.2-1.1c-0.6,0-1.2,0.5-1.2,1.1C73,136.4,73.5,136.9,74.2,136.9z"/>
</g>
<g id="Ebene_2" class="st5">
	<path class="st6" d="M38.7,140.2c3.1,0,5.5-2.4,5.5-5.3c0-2.9-2.5-5.3-5.5-5.3c-3.1,0-5.5,2.4-5.5,5.3
		C33.1,137.8,35.6,140.2,38.7,140.2z"/>
	<path class="st7" d="M36.6,133.6c-0.1,0.8-0.1,1.7,0,2.5"/>
	<path class="st6" d="M77.4,140.2c3.1,0,5.5-2.4,5.5-5.3c0-2.9-2.5-5.3-5.5-5.3c-3.1,0-5.5,2.4-5.5,5.3
		C71.9,137.8,74.4,140.2,77.4,140.2z"/>
	<path class="st8" d="M58.1,153.8c10.8,0,19.5-8.3,19.5-18.5c0-10.2-8.7-18.5-19.5-18.5s-19.5,8.3-19.5,18.5
		C38.7,145.5,47.4,153.8,58.1,153.8z"/>
	<path class="st7" d="M79.5,136.3c0.1-0.8,0.1-1.7,0-2.5"/>
	<path class="st9" d="M68.3,135.8c0.2,0,0.4-0.2,0.4-0.4c0-0.2-0.2-0.4-0.4-0.4c-0.2,0-0.4,0.2-0.4,0.4
		C68,135.6,68.1,135.8,68.3,135.8z"/>
	<path class="st9" d="M66.7,137.4c0.2,0,0.4-0.2,0.4-0.4s-0.2-0.4-0.4-0.4c-0.2,0-0.4,0.2-0.4,0.4S66.4,137.4,66.7,137.4z"/>
	<path class="st9" d="M71.8,135.8c0.2,0,0.4-0.2,0.4-0.4c0-0.2-0.2-0.4-0.4-0.4c-0.2,0-0.4,0.2-0.4,0.4
		C71.4,135.6,71.5,135.8,71.8,135.8z"/>
	<path class="st9" d="M68.3,139.1c0.2,0,0.4-0.2,0.4-0.4s-0.2-0.4-0.4-0.4c-0.2,0-0.4,0.2-0.4,0.4S68.1,139.1,68.3,139.1z"/>
	<path class="st9" d="M71.8,139.1c0.2,0,0.4-0.2,0.4-0.4s-0.2-0.4-0.4-0.4c-0.2,0-0.4,0.2-0.4,0.4S71.5,139.1,71.8,139.1z"/>
	<path class="st9" d="M70.1,137.4c0.2,0,0.4-0.2,0.4-0.4s-0.2-0.4-0.4-0.4s-0.4,0.2-0.4,0.4S69.9,137.4,70.1,137.4z"/>
	<path class="st9" d="M73.6,137.4c0.2,0,0.4-0.2,0.4-0.4s-0.2-0.4-0.4-0.4c-0.2,0-0.4,0.2-0.4,0.4S73.4,137.4,73.6,137.4z"/>
	<path class="st9" d="M44,135.8c0.2,0,0.4-0.2,0.4-0.4c0-0.2-0.2-0.4-0.4-0.4c-0.2,0-0.4,0.2-0.4,0.4
		C43.6,135.6,43.8,135.8,44,135.8z"/>
	<path class="st9" d="M42.3,137.4c0.2,0,0.4-0.2,0.4-0.4s-0.2-0.4-0.4-0.4c-0.2,0-0.4,0.2-0.4,0.4S42.1,137.4,42.3,137.4z"/>
	<path class="st9" d="M47.5,135.8c0.2,0,0.4-0.2,0.4-0.4c0-0.2-0.2-0.4-0.4-0.4c-0.2,0-0.4,0.2-0.4,0.4
		C47.1,135.6,47.3,135.8,47.5,135.8z"/>
	<path class="st9" d="M44,139.1c0.2,0,0.4-0.2,0.4-0.4s-0.2-0.4-0.4-0.4c-0.2,0-0.4,0.2-0.4,0.4S43.8,139.1,44,139.1z"/>
	<path class="st9" d="M47.5,139.1c0.2,0,0.4-0.2,0.4-0.4s-0.2-0.4-0.4-0.4c-0.2,0-0.4,0.2-0.4,0.4S47.3,139.1,47.5,139.1z"/>
	<path class="st9" d="M45.8,137.4c0.2,0,0.4-0.2,0.4-0.4s-0.2-0.4-0.4-0.4c-0.2,0-0.4,0.2-0.4,0.4S45.6,137.4,45.8,137.4z"/>
	<path class="st9" d="M49.3,137.4c0.2,0,0.4-0.2,0.4-0.4s-0.2-0.4-0.4-0.4c-0.2,0-0.4,0.2-0.4,0.4S49.1,137.4,49.3,137.4z"/>
	<path class="st10" d="M67.7,130.2c0-1.2-1.1-2.2-2.4-2.2c-1.3,0-2.4,1-2.4,2.2"/>
	<path class="st10" d="M55.6,130.2c0-1.2-1.1-2.2-2.4-2.2s-2.4,1-2.4,2.2"/>
	<path class="st10" d="M68.8,126.1c-0.1,1.9,1.4,3.7,3.5,4c1.9,0.3,3.9-0.8,4.6-2.5c0.6-1.5,0.2-3.1-0.9-4.1c-0.1-0.1,0-0.2,0.1-0.2
		c0.6,0.2,1.2,0.2,1.9,0.1c1.4-0.2,2.6-1.1,3.2-2.4c1-2.3-0.4-4.8-2.8-5.4c-1.5-0.4-3,0.1-4,1.1c-0.1,0.1-0.2,0-0.2-0.1
		c0.2-0.8,0.4-1.6,0.3-2.5c-0.2-2.3-1.9-4.4-4.2-5.1c-3.2-1.1-6.7,0.4-8.1,3.1c-5.3-0.5-9.6,2.1-11.3,5.8"/>
	<path class="st11" d="M53.4,139.4v-2.5h10.3v2.5"/>
	<path class="st11" d="M63.7,139.4c0,2.7-2.3,4.8-5.1,4.8c-2.8,0-5.1-2.2-5.1-4.8"/>
	<path class="st12" d="M55.3,141.5c1.5,0,2.8-1.2,2.8-2.7s-1.3-2.7-2.8-2.7c-1.5,0-2.8,1.2-2.8,2.7S53.8,141.5,55.3,141.5z"/>
	<path class="st13" d="M63.7,139.4c0,2.7-2.4,4.8-5.2,4.8c-2.8,0-5.1-2.2-5.1-4.8v-2.5h10.3V139.4z"/>
</g>
<g id="Ebene_3">
	<path class="st14" d="M28.6,141c3.6,0,6.5-2.9,6.5-6.5c0-3.6-2.9-6.5-6.5-6.5s-6.5,2.9-6.5,6.5C22.1,138.1,25,141,28.6,141z"/>
	<path class="st15" d="M26.2,132.9c-0.1,1-0.1,2,0,3.1"/>
	<path class="st14" d="M74.5,141c3.6,0,6.5-2.9,6.5-6.5c0-3.6-2.9-6.5-6.5-6.5c-3.6,0-6.5,2.9-6.5,6.5C67.9,138.1,70.8,141,74.5,141
		z"/>
	<path class="st14" d="M51.7,157.8c12.7,0,23-10.2,23-22.8c0-12.6-10.3-22.8-23-22.8s-23,10.2-23,22.8
		C28.6,147.6,38.9,157.8,51.7,157.8z"/>
	<path class="st15" d="M76.9,136.3c0.1-1,0.1-2,0-3.1"/>
	<path class="st16" d="M63.8,135.7c0.2,0,0.4-0.2,0.4-0.4c0-0.2-0.2-0.4-0.4-0.4c-0.2,0-0.4,0.2-0.4,0.4
		C63.3,135.5,63.5,135.7,63.8,135.7z"/>
	<path class="st16" d="M61.7,137.6c0.2,0,0.4-0.2,0.4-0.4c0-0.2-0.2-0.4-0.4-0.4c-0.2,0-0.4,0.2-0.4,0.4
		C61.3,137.4,61.5,137.6,61.7,137.6z"/>
	<path class="st16" d="M67.8,135.7c0.2,0,0.4-0.2,0.4-0.4c0-0.2-0.2-0.4-0.4-0.4c-0.2,0-0.4,0.2-0.4,0.4
		C67.4,135.5,67.6,135.7,67.8,135.7z"/>
	<path class="st16" d="M63.8,139.7c0.2,0,0.4-0.2,0.4-0.4c0-0.2-0.2-0.4-0.4-0.4c-0.2,0-0.4,0.2-0.4,0.4
		C63.3,139.5,63.5,139.7,63.8,139.7z"/>
	<path class="st16" d="M67.8,139.7c0.2,0,0.4-0.2,0.4-0.4c0-0.2-0.2-0.4-0.4-0.4c-0.2,0-0.4,0.2-0.4,0.4
		C67.4,139.5,67.6,139.7,67.8,139.7z"/>
	<path class="st16" d="M65.8,137.6c0.2,0,0.4-0.2,0.4-0.4s-0.2-0.4-0.4-0.4c-0.2,0-0.4,0.2-0.4,0.4S65.6,137.6,65.8,137.6z"/>
	<path class="st16" d="M70,137.6c0.2,0,0.4-0.2,0.4-0.4s-0.2-0.4-0.4-0.4c-0.2,0-0.4,0.2-0.4,0.4S69.8,137.6,70,137.6z"/>
	<path class="st16" d="M35,135.7c0.2,0,0.4-0.2,0.4-0.4c0-0.2-0.2-0.4-0.4-0.4c-0.2,0-0.4,0.2-0.4,0.4
		C34.6,135.5,34.8,135.7,35,135.7z"/>
	<path class="st16" d="M33,137.6c0.2,0,0.4-0.2,0.4-0.4c0-0.2-0.2-0.4-0.4-0.4s-0.4,0.2-0.4,0.4C32.6,137.4,32.8,137.6,33,137.6z"/>
	<path class="st16" d="M39.1,135.7c0.2,0,0.4-0.2,0.4-0.4c0-0.2-0.2-0.4-0.4-0.4c-0.2,0-0.4,0.2-0.4,0.4
		C38.6,135.5,38.8,135.7,39.1,135.7z"/>
	<path class="st16" d="M35,139.7c0.2,0,0.4-0.2,0.4-0.4c0-0.2-0.2-0.4-0.4-0.4c-0.2,0-0.4,0.2-0.4,0.4
		C34.6,139.5,34.8,139.7,35,139.7z"/>
	<path class="st16" d="M39.1,139.7c0.2,0,0.4-0.2,0.4-0.4c0-0.2-0.2-0.4-0.4-0.4c-0.2,0-0.4,0.2-0.4,0.4
		C38.6,139.5,38.8,139.7,39.1,139.7z"/>
	<path class="st16" d="M37.1,137.6c0.2,0,0.4-0.2,0.4-0.4c0-0.2-0.2-0.4-0.4-0.4c-0.2,0-0.4,0.2-0.4,0.4
		C36.6,137.4,36.8,137.6,37.1,137.6z"/>
	<path class="st16" d="M41.3,137.6c0.2,0,0.4-0.2,0.4-0.4s-0.2-0.4-0.4-0.4c-0.2,0-0.4,0.2-0.4,0.4S41,137.6,41.3,137.6z"/>
	<path class="st17" d="M46.1,137.5c0,3.3,2.7,6,6,6c3.3,0,6-2.7,6-6"/>
	<path class="st15" d="M59.4,130.4c0.9,0,1.7-0.7,1.7-1.7c0-0.9-0.8-1.7-1.7-1.7c-0.9,0-1.7,0.7-1.7,1.7
		C57.7,129.7,58.4,130.4,59.4,130.4z"/>
	<path class="st15" d="M45,130.4c0.9,0,1.7-0.7,1.7-1.7c0-0.9-0.8-1.7-1.7-1.7c-0.9,0-1.7,0.7-1.7,1.7
		C43.3,129.7,44.1,130.4,45,130.4z"/>
	<path class="st15" d="M64.3,123.7c-0.1,2.3,1.6,4.5,4.1,4.9c2.3,0.4,4.6-0.9,5.4-3.1c0.7-1.8,0.2-3.8-1-5c-0.1-0.1,0-0.3,0.1-0.2
		c0.7,0.2,1.4,0.3,2.3,0.1c1.7-0.3,3.1-1.4,3.8-2.9c1.2-2.8-0.4-5.9-3.3-6.6c-1.8-0.4-3.5,0.1-4.7,1.3c-0.1,0.1-0.3,0-0.2-0.1
		c0.3-0.9,0.4-2,0.4-3.1c-0.3-2.8-2.2-5.4-4.9-6.3c-3.8-1.4-7.9,0.4-9.6,3.9c-6.4-0.7-11.4,2.5-13.4,7.1"/>
</g>
</svg>
