<svg width="64" height="64" viewBox="0 0 64 64" fill="none" xmlns="http://www.w3.org/2000/svg">
<path d="M31.5938 8.90319C45.2438 8.90319 54.8854 12.3139 58 14.0193V11.2549C58 8.87522 56.5279 6.72007 54.1726 6.04427C49.2216 4.62371 41.101 3 31.5938 3C22.5291 3 15.002 4.0735 10.2606 5.06891C7.68829 5.60896 6 7.8682 6 10.4179V14.0193C8.84375 12.3139 17.9438 8.90319 31.5938 8.90319Z" fill="#86EC16"/>
<path d="M58 16.0626C58 18.6229 55.5162 20.5015 52.9522 19.8806L43.2022 17.5193C41.3937 17.0813 40.125 15.5072 40.125 13.7013V8.82749C40.125 6.26718 42.6088 4.38856 45.1728 5.00953L54.9228 7.37083C56.7313 7.80882 58 9.38293 58 11.1888V16.0626Z" fill="#86EC16"/>
<path d="M6 16.0626C6 18.6229 8.48377 20.5015 11.0478 19.8806L20.7978 17.5193C22.6063 17.0813 23.875 15.5072 23.875 13.7013V8.82749C23.875 6.26718 21.3912 4.38856 18.8272 5.00953L9.07718 7.37083C7.2687 7.80882 6 9.38293 6 11.1888V16.0626Z" fill="#86EC16"/>
<mask id="path-3-inside-1" fill="white">
<path fill-rule="evenodd" clip-rule="evenodd" d="M23.9067 21.003C21.1519 21.003 18.7511 22.8789 18.0849 25.5519L17.2254 29H8H6V31V59V61H8H56H58V59V31V29H56H48.7746L47.9151 25.5519C47.2489 22.8789 44.8481 21.003 42.0933 21.003H23.9067ZM46.7134 29L45.9745 26.0356C45.5304 24.2536 43.9298 23.003 42.0933 23.003H23.9067C22.0702 23.003 20.4696 24.2536 20.0255 26.0356L19.2866 29H46.7134ZM8 31H56V59H8V31Z"/>
</mask>
<path fill-rule="evenodd" clip-rule="evenodd" d="M23.9067 21.003C21.1519 21.003 18.7511 22.8789 18.0849 25.5519L17.2254 29H8H6V31V59V61H8H56H58V59V31V29H56H48.7746L47.9151 25.5519C47.2489 22.8789 44.8481 21.003 42.0933 21.003H23.9067ZM46.7134 29L45.9745 26.0356C45.5304 24.2536 43.9298 23.003 42.0933 23.003H23.9067C22.0702 23.003 20.4696 24.2536 20.0255 26.0356L19.2866 29H46.7134ZM8 31H56V59H8V31Z" fill="#DEDEDE"/>
<path d="M18.0849 25.5519L16.1442 25.0682V25.0682L18.0849 25.5519ZM17.2254 29V31H18.7881L19.1661 29.4837L17.2254 29ZM6 29V27H4V29H6ZM6 61H4V63H6V61ZM58 61V63H60V61H58ZM58 29H60V27H58V29ZM48.7746 29L46.8339 29.4837L47.2119 31H48.7746V29ZM47.9151 25.5519L45.9745 26.0356V26.0356L47.9151 25.5519ZM46.7134 29V31H49.273L48.654 28.5163L46.7134 29ZM45.9745 26.0356L47.9151 25.5519V25.5519L45.9745 26.0356ZM20.0255 26.0356L21.9661 26.5193V26.5193L20.0255 26.0356ZM19.2866 29L17.346 28.5163L16.7269 31H19.2866V29ZM56 31H58V29H56V31ZM8 31V29H6V31H8ZM56 59V61H58V59H56ZM8 59H6V61H8V59ZM20.0255 26.0356C20.4696 24.2536 22.0702 23.003 23.9067 23.003V19.003C20.2337 19.003 17.0325 21.5042 16.1442 25.0682L20.0255 26.0356ZM19.1661 29.4837L20.0255 26.0356L16.1442 25.0682L15.2848 28.5163L19.1661 29.4837ZM17.2254 27H8V31H17.2254V27ZM8 27H6V31H8V27ZM4 29V31H8V29H4ZM4 31V59H8V31H4ZM4 59V61H8V59H4ZM6 63H8V59H6V63ZM8 63H56V59H8V63ZM56 63H58V59H56V63ZM60 61V59H56V61H60ZM60 59V31H56V59H60ZM60 31V29H56V31H60ZM58 27H56V31H58V27ZM56 27H48.7746V31H56V27ZM45.9745 26.0356L46.8339 29.4837L50.7152 28.5163L49.8558 25.0682L45.9745 26.0356ZM42.0933 23.003C43.9298 23.003 45.5304 24.2536 45.9745 26.0356L49.8558 25.0682C48.9675 21.5042 45.7663 19.003 42.0933 19.003V23.003ZM23.9067 23.003H42.0933V19.003H23.9067V23.003ZM48.654 28.5163L47.9151 25.5519L44.0339 26.5193L44.7727 29.4837L48.654 28.5163ZM47.9151 25.5519C47.2489 22.8789 44.8481 21.003 42.0933 21.003V25.003C43.0115 25.003 43.8118 25.6283 44.0339 26.5193L47.9151 25.5519ZM42.0933 21.003H23.9067V25.003H42.0933V21.003ZM23.9067 21.003C21.1519 21.003 18.7511 22.8789 18.0849 25.5519L21.9661 26.5193C22.1882 25.6283 22.9885 25.003 23.9067 25.003V21.003ZM18.0849 25.5519L17.346 28.5163L21.2273 29.4837L21.9661 26.5193L18.0849 25.5519ZM46.7134 27H19.2866V31H46.7134V27ZM56 29H8V33H56V29ZM58 59V31H54V59H58ZM8 61H56V57H8V61ZM6 31V59H10V31H6Z" fill="black" mask="url(#path-3-inside-1)"/>
<path fill-rule="evenodd" clip-rule="evenodd" d="M8.27891 29H6L7.09244 31L12.4419 40.7937C14.1951 44.0034 17.5607 46 21.2181 46H28V49.9728V51.9728H30H36H38V49.9728V46H42.7819C46.4393 46 49.8049 44.0034 51.5581 40.7937L56.9076 31L58 29H55.7211H8.27891ZM38 44H42.7819C45.7078 44 48.4003 42.4027 49.8028 39.835L54.6287 31H9.37134L14.1972 39.8349C15.5997 42.4027 18.2922 44 21.2181 44H28V41.9364V39.9364H30H36H38V41.9364V44ZM30 46V49.9728H36V46V44V41.9364H30V44V46Z" fill="black"/>
</svg>
