<svg width="325" height="116" viewBox="0 0 325 116" fill="none" xmlns="http://www.w3.org/2000/svg">
<circle opacity="0.33" cx="162.5" cy="178.5" r="162.5" fill="url(#paint0_linear)"/>
<circle cx="121" cy="30" r="25" fill="white"/>
<circle cx="121" cy="30" r="26" stroke="black" stroke-opacity="0.1" stroke-width="2"/>
<path d="M109.16 24.8552V37.1019H120.818M129.367 28.6825V24.8552M129.368 20.2627H109.16V24.8555H129.368V20.2627Z" stroke="#202020" stroke-width="2" stroke-miterlimit="10" stroke-linecap="round" stroke-linejoin="round"/>
<path d="M111.49 22.9422C111.705 22.9422 111.879 22.7709 111.879 22.5595C111.879 22.5088 111.868 22.4588 111.848 22.4121C111.829 22.3655 111.8 22.3232 111.764 22.2876C111.728 22.2521 111.685 22.224 111.638 22.205C111.591 22.186 111.541 22.1764 111.49 22.1768C111.276 22.1768 111.102 22.3481 111.102 22.5595C111.102 22.7709 111.276 22.9422 111.49 22.9422ZM114.21 22.9422C114.425 22.9422 114.599 22.7709 114.599 22.5595C114.599 22.5088 114.588 22.4588 114.569 22.4121C114.549 22.3655 114.52 22.3232 114.484 22.2876C114.448 22.2521 114.405 22.224 114.358 22.205C114.311 22.186 114.261 22.1764 114.21 22.1768C113.996 22.1768 113.822 22.3481 113.822 22.5595C113.822 22.7709 113.996 22.9422 114.21 22.9422ZM116.931 22.9422C117.145 22.9422 117.319 22.7709 117.319 22.5595C117.319 22.5088 117.309 22.4588 117.289 22.4121C117.269 22.3655 117.24 22.3232 117.204 22.2876C117.168 22.2521 117.126 22.224 117.079 22.205C117.032 22.186 116.981 22.1764 116.931 22.1768C116.716 22.1768 116.542 22.3481 116.542 22.5595C116.542 22.7709 116.716 22.9422 116.931 22.9422Z" fill="black"/>
<path fill-rule="evenodd" clip-rule="evenodd" d="M127.053 40.7887C130.832 40.7887 133.895 37.7254 133.895 33.9466C133.895 30.1678 130.832 27.1045 127.053 27.1045C123.274 27.1045 120.211 30.1678 120.211 33.9466C120.211 37.7254 123.274 40.7887 127.053 40.7887ZM130.015 30.7245C129.677 30.4118 129.111 30.4762 128.864 30.8555L127.928 32.2975C127.755 32.565 127.8 32.9074 128.039 33.128L128.613 33.6585C128.314 34.0037 127.972 34.3622 127.581 34.7235C127.227 35.0506 126.879 35.3385 126.543 35.5907L125.959 35.0507C125.72 34.8302 125.35 34.788 125.06 34.9485L123.5 35.8138C123.09 36.0413 123.02 36.5646 123.358 36.8774L123.628 37.1269L124.002 37.4727L124.104 37.5668C124.441 37.8783 124.956 37.9544 125.357 37.716C126.095 37.2766 127.201 36.5171 128.361 35.4445C129.578 34.3196 130.403 33.1604 130.849 32.4011C131.05 32.0582 130.974 31.6467 130.697 31.3572C130.685 31.3444 130.672 31.3319 130.659 31.3198L130.651 31.3125L130.65 31.3118L130.285 30.9741L130.015 30.7245Z" fill="#86EC16"/>
<circle cx="43" cy="66" r="25" fill="white"/>
<circle cx="43" cy="66" r="26" stroke="black" stroke-opacity="0.1" stroke-width="2"/>
<path fill-rule="evenodd" clip-rule="evenodd" d="M39.2396 62.5781H40.9857C41.2545 62.5781 41.4726 62.796 41.4726 63.065V68.4027C41.4726 68.6717 41.2545 68.8896 40.9857 68.8896H39.2396C37.8744 68.8896 36.7637 67.7788 36.7637 66.4134H33.793V65.0543H36.7637C36.7637 63.6889 37.8744 62.5781 39.2396 62.5781ZM47.102 62.5781C48.4672 62.5781 49.5778 63.6889 49.5778 65.0543H52.5486V66.4134H49.5778C49.5778 67.7788 48.4672 68.8896 47.102 68.8896H45.3558C45.087 68.8896 44.869 68.6717 44.869 68.4027V67.423H42.9041V66.4492H44.869V64.9242H42.9041V63.9504H44.869V63.065C44.869 62.796 45.087 62.5781 45.3558 62.5781H47.102Z" fill="#86EC16"/>
<mask id="path-10-inside-1" fill="white">
<path fill-rule="evenodd" clip-rule="evenodd" d="M38.5393 76.3893C38.549 75.0746 37.1269 74.2465 35.9882 74.9039L35.9408 74.9313C35.1124 75.4096 34.053 75.1257 33.5747 74.2973L30.8354 69.5526C30.3573 68.7246 30.641 67.6659 31.469 67.1879L31.516 67.1607C32.6542 66.5036 32.6481 64.8587 31.5051 64.21C30.6801 63.7417 30.398 62.6889 30.8783 61.8708L33.7188 57.0328C34.2022 56.2095 35.2571 55.9268 36.0874 56.3981C37.2469 57.0562 38.6865 56.2248 38.6963 54.8916C38.7034 53.9368 39.4757 53.1644 40.4305 53.1574L46.0403 53.1164C46.989 53.1095 47.7598 53.8804 47.7528 54.8291C47.7431 56.1434 49.1647 56.9711 50.303 56.314L50.3494 56.2871C51.1773 55.8092 52.2358 56.0928 52.7138 56.9207L55.4534 61.6659C55.9316 62.4942 55.6478 63.5533 54.8195 64.0316L54.7717 64.0592C53.6334 64.7164 53.6395 66.3614 54.7826 67.0102C55.6077 67.4785 55.8899 68.5316 55.4095 69.3497L52.5682 74.189C52.0853 75.0115 51.0315 75.2939 50.2021 74.8231C49.0437 74.1657 47.6055 74.9966 47.5957 76.3285C47.5887 77.2826 46.817 78.0546 45.8629 78.0616L40.2524 78.1026C39.3034 78.1095 38.5323 77.3384 38.5393 76.3893Z"/>
</mask>
<path d="M40.2524 78.1026L40.267 80.1025L40.2524 78.1026ZM55.4534 61.6659L57.1855 60.6659L55.4534 61.6659ZM54.8195 64.0316L55.8195 65.7636L54.8195 64.0316ZM46.0403 53.1164L46.0549 55.1164L46.0403 53.1164ZM40.4305 53.1574L40.4159 51.1575L40.4305 53.1574ZM33.7188 57.0328L31.9941 56.0202L33.7188 57.0328ZM30.8783 61.8708L32.603 62.8834L30.8783 61.8708ZM31.516 67.1607L30.516 65.4287L31.516 67.1607ZM31.469 67.1879L32.469 68.9199L31.469 67.1879ZM35.9408 74.9313L36.9408 76.6633L35.9408 74.9313ZM36.9408 76.6633L36.9882 76.636L34.9882 73.1719L34.9408 73.1992L36.9408 76.6633ZM29.1033 70.5526L31.8427 75.2973L35.3068 73.2973L32.5674 68.5526L29.1033 70.5526ZM30.516 65.4287L30.469 65.4558L32.469 68.9199L32.516 68.8928L30.516 65.4287ZM32.603 62.8834L35.4435 58.0454L31.9941 56.0202L29.1536 60.8582L32.603 62.8834ZM46.0257 51.1165L40.4159 51.1575L40.4451 55.1574L46.0549 55.1164L46.0257 51.1165ZM49.3494 54.5551L49.303 54.5819L51.303 58.046L51.3494 58.0192L49.3494 54.5551ZM57.1855 60.6659L54.4458 55.9207L50.9817 57.9207L53.7214 62.6659L57.1855 60.6659ZM55.7717 65.7912L55.8195 65.7636L53.8195 62.2995L53.7717 62.3271L55.7717 65.7912ZM54.2929 75.2017L57.1342 70.3623L53.6848 68.3371L50.8435 73.1764L54.2929 75.2017ZM40.267 80.1025L45.8775 80.0615L45.8483 76.0616L40.2378 76.1026L40.267 80.1025ZM40.2378 76.1026C40.4048 76.1014 40.5405 76.2371 40.5392 76.4041L36.5393 76.3746C36.5241 78.4396 38.202 80.1176 40.267 80.1025L40.2378 76.1026ZM45.5958 76.3138C45.5968 76.1753 45.7087 76.0626 45.8483 76.0616L45.8775 80.0615C47.9252 80.0466 49.5806 78.3899 49.5957 76.3433L45.5958 76.3138ZM51.1893 73.0838C48.7023 71.6722 45.6168 73.4566 45.5958 76.3138L49.5957 76.3433C49.5942 76.5367 49.3852 76.6592 49.2148 76.5625L51.1893 73.0838ZM50.8435 73.1764C50.9141 73.0562 51.0681 73.015 51.1893 73.0838L49.2148 76.5625C50.995 77.5729 53.2566 76.9668 54.2929 75.2017L50.8435 73.1764ZM53.7954 68.7496C53.6499 68.667 53.6001 68.4814 53.6848 68.3371L57.1342 70.3623C58.1797 68.5818 57.5655 66.2901 55.7698 65.2709L53.7954 68.7496ZM53.7717 62.3271C51.2944 63.7574 51.3076 67.3376 53.7954 68.7496L55.7698 65.2709C55.9714 65.3853 55.9724 65.6753 55.7717 65.7912L53.7717 62.3271ZM53.7214 62.6659C53.6473 62.5376 53.6913 62.3736 53.8195 62.2995L55.8195 65.7636C57.6044 64.7331 58.216 62.4507 57.1855 60.6659L53.7214 62.6659ZM51.3494 58.0192C51.2207 58.0935 51.0561 58.0494 50.9817 57.9207L54.4458 55.9207C53.4156 54.1362 51.1338 53.5248 49.3494 54.5551L51.3494 58.0192ZM45.7528 54.8143C45.7318 57.6748 48.8257 59.4763 51.303 58.046L49.303 54.5819C49.5037 54.466 49.7544 54.612 49.7527 54.8438L45.7528 54.8143ZM46.0549 55.1164C45.8876 55.1176 45.7516 54.9817 45.7528 54.8143L49.7527 54.8438C49.7679 52.7791 48.0904 51.1014 46.0257 51.1165L46.0549 55.1164ZM40.6963 54.9063C40.6953 55.0444 40.5836 55.1563 40.4451 55.1574L40.4159 51.1575C38.3678 51.1724 36.7115 52.8291 36.6964 54.8769L40.6963 54.9063ZM35.1002 58.1374C37.5876 59.5493 40.6752 57.7656 40.6963 54.9063L36.6964 54.8769C36.6978 54.684 36.9062 54.5631 37.0746 54.6587L35.1002 58.1374ZM35.4435 58.0454C35.3734 58.1648 35.2205 58.2058 35.1002 58.1374L37.0746 54.6587C35.2936 53.6479 33.031 54.2542 31.9941 56.0202L35.4435 58.0454ZM32.4924 62.4706C32.638 62.5533 32.6877 62.7391 32.603 62.8834L29.1536 60.8582C28.1082 62.6387 28.7223 64.9302 30.5179 65.9494L32.4924 62.4706ZM32.516 68.8928C34.9932 67.4626 34.98 63.8825 32.4924 62.4706L30.5179 65.9494C30.3162 65.8349 30.3152 65.5446 30.516 65.4287L32.516 68.8928ZM32.5674 68.5526C32.6417 68.6812 32.5976 68.8457 32.469 68.9199L30.469 65.4558C28.6844 66.4861 28.073 68.768 29.1033 70.5526L32.5674 68.5526ZM36.9882 76.636C36.7879 76.7516 36.5376 76.6059 36.5393 76.3746L40.5392 76.4041C40.5603 73.5432 37.4659 71.7414 34.9882 73.1719L36.9882 76.636ZM34.9408 73.1992C35.0689 73.1253 35.2328 73.1692 35.3068 73.2973L31.8427 75.2973C32.8733 77.0823 35.1558 77.6939 36.9408 76.6633L34.9408 73.1992Z" fill="black" mask="url(#path-10-inside-1)"/>
<circle cx="282" cy="66" r="25" fill="white"/>
<circle cx="282" cy="66" r="26" stroke="black" stroke-opacity="0.1" stroke-width="2"/>
<path d="M291.721 59.7159L291.017 60.4256L291.018 60.4274L291.721 59.7159ZM292.146 59.999L291.759 60.921L291.764 60.9231L292.146 59.999ZM291.434 59.2961L290.514 59.686L290.517 59.6929L291.434 59.2961ZM291.434 58.2712L290.516 57.8768L290.514 57.8808L291.434 58.2712ZM292.146 57.5683L291.764 56.644L291.758 56.6465L292.146 57.5683ZM293.184 57.5683L293.57 56.6459L293.566 56.6443L293.184 57.5683ZM293.896 58.2712L294.816 57.8814L294.814 57.8753L293.896 58.2712ZM293.896 59.2961L294.814 59.6905L294.816 59.6866L293.896 59.2961ZM293.184 59.999L293.566 60.9233L293.572 60.9208L293.184 59.999ZM291.331 60.9386V59.9386H290.331V60.9386H291.331ZM291.331 64.908H290.331V65.908H291.331V64.908ZM294.009 60.9386H295.009V59.9386H294.009V60.9386ZM294.009 63.5399H293.009V63.56L293.01 63.58L294.009 63.5399ZM293.819 64.1983L294.627 64.7873L294.634 64.7766L294.642 64.7657L293.819 64.1983ZM293.335 64.6199L292.862 63.7384L292.862 63.7387L293.335 64.6199ZM292.686 64.8437L292.514 63.8584L292.503 63.8605L292.686 64.8437ZM292 64.908V65.908L292.006 65.9079L292 64.908ZM289.16 59.2745L289.167 58.2744L289.153 58.2745L289.16 59.2745ZM289.678 59.1713L289.291 58.2495L289.289 58.25L289.678 59.1713ZM288.643 59.1713L289.036 58.2518L289.032 58.2501L288.643 59.1713ZM288.5 59.0857L289.088 58.2767L289.088 58.2767L288.5 59.0857ZM288.316 58.9728H287.316V59.6005L287.881 59.8734L288.316 58.9728ZM288.316 56.939L287.883 56.0378L287.316 56.3103V56.939H288.316ZM288.5 56.8263L287.912 56.0175L287.912 56.0175L288.5 56.8263ZM288.643 56.7406L289.032 57.6617L289.034 57.6608L288.643 56.7406ZM289.158 56.6374L289.151 57.6374L289.165 57.6373L289.158 56.6374ZM289.677 56.7406L289.288 57.6619L289.291 57.663L289.677 56.7406ZM290.389 57.4435L291.309 57.0522L291.307 57.0476L290.389 57.4435ZM290.389 58.4684L291.308 58.8627L291.31 58.8588L290.389 58.4684ZM288.316 65.9576H287.316V66.7665L288.107 66.9355L288.316 65.9576ZM288.486 65.9991L288.228 66.9653L288.228 66.9653L288.486 65.9991ZM288.316 60.1115V59.1115H287.316V60.1115H288.316ZM290.828 60.1115H291.828V59.1115H290.828V60.1115ZM290.828 64.7046H289.828V64.7236L289.829 64.7425L290.828 64.7046ZM290.66 65.3623L291.504 65.8973L291.511 65.8869L291.517 65.8764L290.66 65.3623ZM290.233 65.7808L290.747 66.6387L290.751 66.636L290.233 65.7808ZM289.66 66.0015L289.465 65.0206L289.453 65.0232L289.66 66.0015ZM289.056 66.0658L289.051 67.0659L289.062 67.0658L289.056 66.0658ZM288.663 66.0374L288.804 65.0473L288.797 65.0464L288.663 66.0374ZM279.105 67.2236H278.105V68.0672L278.937 68.2094L279.105 67.2236ZM287.814 68.7122L287.645 69.6979L288.814 69.8977V68.7122H287.814ZM279.105 55.6458L278.937 54.6601L278.105 54.8022V55.6458H279.105ZM287.814 54.1572H288.814V52.9718L287.645 53.1715L287.814 54.1572ZM285.469 58.6229H286.469V57.5609L285.409 57.6247L285.469 58.6229ZM281.45 58.8646L281.39 57.8664L280.45 57.9229V58.8646H281.45ZM285.469 59.6151L285.513 60.6141L286.469 60.5721V59.6151H285.469ZM283.962 59.6812L283.918 58.6822L282.962 58.7241V59.6812H283.962ZM283.962 64.0233L283.904 65.0216L284.962 65.0828V64.0233H283.962ZM282.957 63.9652H281.957V64.909L282.9 64.9635L282.957 63.9652ZM282.957 59.7202H283.957V58.6796L282.918 58.721L282.957 59.7202ZM281.45 59.7801H280.45V60.8207L281.49 60.7793L281.45 59.7801ZM291.018 60.4274C291.232 60.6383 291.483 60.8053 291.759 60.921L292.533 59.077C292.491 59.0592 292.454 59.0345 292.424 59.0044L291.018 60.4274ZM290.517 59.6929C290.635 59.9673 290.806 60.216 291.017 60.4256L292.426 59.0062C292.394 58.9746 292.369 58.9378 292.352 58.8994L290.517 59.6929ZM290.514 57.8808C290.269 58.4582 290.269 59.1088 290.514 59.686L292.355 58.9063C292.322 58.827 292.322 58.7395 292.355 58.6616L290.514 57.8808ZM291.758 56.6465C291.203 56.8801 290.755 57.3186 290.516 57.8769L292.353 58.6655C292.385 58.5908 292.448 58.5261 292.534 58.4901L291.758 56.6465ZM293.566 56.6443C292.989 56.4057 292.341 56.406 291.764 56.644L292.528 58.4926C292.616 58.4562 292.715 58.4565 292.802 58.4924L293.566 56.6443ZM294.814 57.8753C294.575 57.3202 294.129 56.8797 293.57 56.6459L292.798 58.4908C292.88 58.5253 292.944 58.5892 292.977 58.6671L294.814 57.8753ZM294.816 59.6866C295.061 59.1092 295.061 58.4586 294.816 57.8814L292.975 58.661C293.008 58.7403 293.008 58.8278 292.975 58.9057L294.816 59.6866ZM293.572 60.9208C294.127 60.6873 294.575 60.2488 294.814 59.6905L292.977 58.9018C292.944 58.9765 292.882 59.0412 292.796 59.0772L293.572 60.9208ZM291.764 60.9231C292.341 61.1617 292.989 61.1614 293.566 60.9233L292.802 59.0747C292.714 59.1111 292.615 59.1108 292.528 59.075L291.764 60.9231ZM290.331 60.9386V64.908H292.331V60.9386H290.331ZM294.009 59.9386H291.331V61.9386H294.009V59.9386ZM295.009 63.5399V60.9386H293.009V63.5399H295.009ZM294.642 64.7657C294.897 64.3949 295.027 63.9513 295.009 63.4999L293.01 63.58C293.011 63.5971 293.006 63.6147 292.995 63.6309L294.642 64.7657ZM293.807 65.5013C294.132 65.3271 294.412 65.0821 294.627 64.7873L293.01 63.6093C292.971 63.6632 292.92 63.7074 292.862 63.7384L293.807 65.5013ZM292.857 65.8288C293.189 65.7711 293.51 65.6607 293.807 65.5011L292.862 63.7387C292.754 63.7966 292.637 63.8371 292.514 63.8585L292.857 65.8288ZM292.006 65.9079C292.293 65.9064 292.582 65.8801 292.869 65.8268L292.503 63.8605C292.337 63.8913 292.168 63.907 291.995 63.908L292.006 65.9079ZM291.331 65.908H292V63.908H291.331V65.908ZM289.153 60.2745C289.467 60.2767 289.778 60.2144 290.067 60.0925L289.289 58.25C289.25 58.2666 289.208 58.2748 289.167 58.2745L289.153 60.2745ZM288.25 60.0907C288.542 60.2158 288.855 60.2766 289.167 60.2745L289.153 58.2745C289.11 58.2748 289.07 58.2664 289.036 58.2518L288.25 60.0907ZM287.913 59.8947C287.958 59.9276 288.079 60.0184 288.254 60.0924L289.032 58.2501C289.044 58.2551 289.056 58.2609 289.068 58.2673C289.08 58.2736 289.09 58.2796 289.098 58.2841C289.105 58.2885 289.108 58.2911 289.107 58.2901C289.104 58.2883 289.101 58.2856 289.088 58.2767L287.913 59.8947ZM287.881 59.8734C287.883 59.8742 287.885 59.8749 287.885 59.8753C287.886 59.8756 287.886 59.8758 287.886 59.8758C287.886 59.8759 287.886 59.8758 287.886 59.8756C287.886 59.8755 287.886 59.8754 287.885 59.8753C287.885 59.8752 287.887 59.876 287.89 59.8786C287.895 59.8819 287.9 59.8857 287.913 59.8947L289.088 58.2767C289.03 58.2341 288.92 58.1537 288.751 58.0723L287.881 59.8734ZM287.316 56.939V58.9728H289.316V56.939H287.316ZM287.912 56.0175C287.9 56.0265 287.895 56.0303 287.89 56.0336C287.886 56.0362 287.885 56.0369 287.885 56.0367C287.886 56.0364 287.886 56.036 287.887 56.0358C287.887 56.0356 287.886 56.0363 287.883 56.0378L288.75 57.8402C288.919 57.7587 289.03 57.6777 289.088 57.6351L287.912 56.0175ZM288.254 55.8195C288.078 55.8936 287.957 55.9847 287.912 56.0175L289.088 57.6351C289.101 57.6262 289.104 57.6235 289.107 57.6217C289.109 57.6206 289.105 57.6232 289.098 57.6276C289.091 57.6321 289.081 57.638 289.069 57.6444C289.056 57.6508 289.044 57.6567 289.032 57.6617L288.254 55.8195ZM289.165 55.6374C288.851 55.6352 288.54 55.6978 288.251 55.8204L289.034 57.6608C289.072 57.645 289.111 57.6371 289.151 57.6373L289.165 55.6374ZM290.066 55.8193C289.777 55.6974 289.466 55.6352 289.151 55.6374L289.165 57.6373C289.207 57.637 289.249 57.6453 289.288 57.6618L290.066 55.8193ZM291.307 57.0476C291.068 56.4925 290.622 56.052 290.063 55.8181L289.291 57.663C289.373 57.6975 289.437 57.7614 289.47 57.8393L291.307 57.0476ZM291.31 58.8588C291.555 58.2814 291.555 57.6302 291.309 57.0522L289.468 57.8348C289.502 57.9133 289.502 58.0001 289.469 58.078L291.31 58.8588ZM290.066 60.0931C290.622 59.8592 291.069 59.4202 291.308 58.8627L289.47 58.0741C289.438 58.1496 289.375 58.2138 289.291 58.2495L290.066 60.0931ZM288.107 66.9355C288.153 66.9454 288.185 66.9539 288.228 66.9653L288.744 65.0329C288.696 65.02 288.623 65.0007 288.525 64.9797L288.107 66.9355ZM287.316 60.1115V65.9576H289.316V60.1115H287.316ZM290.828 59.1115H288.316V61.1115H290.828V59.1115ZM291.828 64.7046V60.1115H289.828V64.7046H291.828ZM291.517 65.8764C291.737 65.5107 291.843 65.09 291.827 64.6666L289.829 64.7425C289.83 64.7803 289.821 64.8171 289.802 64.8483L291.517 65.8764ZM290.751 66.636C291.057 66.4506 291.314 66.1975 291.504 65.8973L289.815 64.8273C289.79 64.8672 289.755 64.9009 289.714 64.9257L290.751 66.636ZM289.855 66.9823C290.17 66.9198 290.472 66.8034 290.747 66.6387L289.719 64.9229C289.641 64.9696 289.555 65.0029 289.465 65.0207L289.855 66.9823ZM289.062 67.0658C289.33 67.0642 289.6 67.0364 289.867 66.9798L289.453 65.0232C289.323 65.0507 289.188 65.065 289.05 65.0658L289.062 67.0658ZM288.522 67.0274C288.699 67.0526 288.876 67.065 289.051 67.0658L289.061 65.0658C288.973 65.0654 288.887 65.0592 288.804 65.0474L288.522 67.0274ZM288.228 66.9653C288.289 66.9816 288.392 67.0099 288.529 67.0284L288.797 65.0464C288.796 65.0462 288.796 65.0463 288.793 65.0457C288.791 65.0452 288.787 65.0441 288.778 65.042C288.77 65.0398 288.76 65.0371 288.744 65.0329L288.228 66.9653ZM278.937 68.2094L287.645 69.6979L287.982 67.7265L279.274 66.2379L278.937 68.2094ZM278.105 55.6458V67.2236H280.105V55.6458H278.105ZM287.645 53.1715L278.937 54.6601L279.274 56.6315L287.982 55.1429L287.645 53.1715ZM288.814 68.7122V54.1572H286.814V68.7122H288.814ZM285.409 57.6247L281.39 57.8664L281.51 59.8628L285.529 59.6211L285.409 57.6247ZM286.469 59.6151V58.6229H284.469V59.6151H286.469ZM284.006 60.6803L285.513 60.6141L285.425 58.616L283.918 58.6822L284.006 60.6803ZM284.962 64.0233V59.6812H282.962V64.0233H284.962ZM282.9 64.9635L283.904 65.0216L284.02 63.025L283.015 62.9669L282.9 64.9635ZM281.957 59.7202V63.9652H283.957V59.7202H281.957ZM281.49 60.7793L282.997 60.7194L282.918 58.721L281.411 58.7809L281.49 60.7793ZM280.45 58.8646V59.7801H282.45V58.8646H280.45Z" fill="black"/>
<path d="M276.078 71.4674C273.02 68.4525 271.649 65.5453 271.346 64.4685L270.706 65.0988C270.156 65.6414 269.987 66.4579 270.359 67.1322C271.139 68.5496 272.583 70.7134 274.713 72.8133C276.744 74.8154 278.678 76.2332 279.97 77.0534C280.672 77.4985 281.572 77.3562 282.162 76.7749L282.995 75.9538C281.963 75.7145 279.136 74.4822 276.078 71.4674Z" fill="#86EC16"/>
<path d="M271.818 64.0026C272.41 63.4189 273.401 63.5391 273.832 64.2471L275.47 66.9389C275.774 67.4382 275.694 68.0773 275.276 68.4891L274.149 69.6003C273.557 70.1841 272.566 70.0638 272.136 69.3559L270.497 66.664C270.194 66.1647 270.273 65.5256 270.691 65.1139L271.818 64.0026Z" fill="#86EC16"/>
<path d="M283.467 75.4879C284.059 74.9042 283.937 73.9272 283.219 73.5025L280.489 71.8874C279.983 71.5878 279.334 71.6665 278.917 72.0782L277.79 73.1895C277.198 73.7732 277.32 74.7501 278.038 75.1749L280.768 76.79C281.274 77.0896 281.923 77.0109 282.34 76.5992L283.467 75.4879Z" fill="#86EC16"/>
<circle cx="205" cy="27" r="25" fill="white"/>
<circle cx="205" cy="27" r="26" stroke="black" stroke-opacity="0.1" stroke-width="2"/>
<path d="M199.078 32.4674C196.02 29.4525 194.649 26.5453 194.346 25.4685L193.706 26.0988C193.156 26.6414 192.987 27.4579 193.359 28.1322C194.139 29.5496 195.583 31.7134 197.713 33.8133C199.744 35.8154 201.678 37.2332 202.97 38.0534C203.672 38.4985 204.572 38.3562 205.162 37.7749L205.995 36.9538C204.963 36.7145 202.136 35.4822 199.078 32.4674Z" fill="#86EC16"/>
<path d="M194.818 25.0026C195.41 24.4189 196.401 24.5391 196.832 25.2471L198.47 27.9389C198.774 28.4382 198.694 29.0773 198.276 29.4891L197.149 30.6003C196.557 31.1841 195.566 31.0638 195.136 30.3559L193.497 27.664C193.194 27.1647 193.273 26.5256 193.691 26.1139L194.818 25.0026Z" fill="#86EC16"/>
<path d="M206.467 36.4879C207.059 35.9042 206.937 34.9272 206.219 34.5025L203.489 32.8874C202.983 32.5878 202.334 32.6665 201.917 33.0782L200.79 34.1895C200.198 34.7732 200.32 35.7501 201.038 36.1749L203.768 37.79C204.274 38.0896 204.923 38.0109 205.34 37.5992L206.467 36.4879Z" fill="#86EC16"/>
<path fill-rule="evenodd" clip-rule="evenodd" d="M204.633 17.7889C204.633 17.847 204.68 17.8941 204.738 17.8941C204.796 17.8941 204.843 17.847 204.843 17.7889C204.843 17.7307 204.796 17.6836 204.738 17.6836C204.68 17.6836 204.633 17.7307 204.633 17.7889ZM204.738 15.6836C203.575 15.6836 202.633 16.6262 202.633 17.7889C202.633 18.9516 203.575 19.8941 204.738 19.8941C205.901 19.8941 206.843 18.9516 206.843 17.7889C206.843 16.6262 205.901 15.6836 204.738 15.6836ZM204.633 23.0523C204.633 23.1104 204.68 23.1575 204.738 23.1575C204.796 23.1575 204.843 23.1104 204.843 23.0523C204.843 22.9941 204.796 22.947 204.738 22.947C204.68 22.947 204.633 22.9941 204.633 23.0523ZM204.738 20.947C203.575 20.947 202.633 21.8896 202.633 23.0523C202.633 24.215 203.575 25.1575 204.738 25.1575C205.901 25.1575 206.843 24.215 206.843 23.0523C206.843 21.8896 205.901 20.947 204.738 20.947ZM204.738 28.4204C204.68 28.4204 204.633 28.3733 204.633 28.3151C204.633 28.257 204.68 28.2099 204.738 28.2099C204.796 28.2099 204.843 28.257 204.843 28.3151C204.843 28.3733 204.796 28.4204 204.738 28.4204ZM202.633 28.3151C202.633 27.1524 203.575 26.2099 204.738 26.2099C205.901 26.2099 206.843 27.1524 206.843 28.3151C206.843 29.4778 205.901 30.4204 204.738 30.4204C203.575 30.4204 202.633 29.4778 202.633 28.3151ZM209.896 17.7889C209.896 17.847 209.943 17.8941 210.001 17.8941C210.059 17.8941 210.106 17.847 210.106 17.7889C210.106 17.7307 210.059 17.6836 210.001 17.6836C209.943 17.6836 209.896 17.7307 209.896 17.7889ZM210.001 15.6836C208.838 15.6836 207.896 16.6262 207.896 17.7889C207.896 18.9516 208.838 19.8941 210.001 19.8941C211.164 19.8941 212.106 18.9516 212.106 17.7889C212.106 16.6262 211.164 15.6836 210.001 15.6836ZM210.001 23.1575C209.943 23.1575 209.896 23.1104 209.896 23.0523C209.896 22.9941 209.943 22.947 210.001 22.947C210.059 22.947 210.106 22.9941 210.106 23.0523C210.106 23.1104 210.059 23.1575 210.001 23.1575ZM207.896 23.0523C207.896 21.8896 208.838 20.947 210.001 20.947C211.164 20.947 212.106 21.8896 212.106 23.0523C212.106 24.215 211.164 25.1575 210.001 25.1575C208.838 25.1575 207.896 24.215 207.896 23.0523ZM209.896 28.3151C209.896 28.3733 209.943 28.4204 210.001 28.4204C210.059 28.4204 210.106 28.3733 210.106 28.3151C210.106 28.257 210.059 28.2099 210.001 28.2099C209.943 28.2099 209.896 28.257 209.896 28.3151ZM210.001 26.2099C208.838 26.2099 207.896 27.1524 207.896 28.3151C207.896 29.4778 208.838 30.4204 210.001 30.4204C211.164 30.4204 212.106 29.4778 212.106 28.3151C212.106 27.1524 211.164 26.2099 210.001 26.2099ZM215.264 17.8941C215.206 17.8941 215.159 17.847 215.159 17.7889C215.159 17.7307 215.206 17.6836 215.264 17.6836C215.322 17.6836 215.369 17.7307 215.369 17.7889C215.369 17.847 215.322 17.8941 215.264 17.8941ZM213.159 17.7889C213.159 16.6262 214.101 15.6836 215.264 15.6836C216.427 15.6836 217.369 16.6262 217.369 17.7889C217.369 18.9516 216.427 19.8941 215.264 19.8941C214.101 19.8941 213.159 18.9516 213.159 17.7889ZM215.159 23.0523C215.159 23.1104 215.206 23.1575 215.264 23.1575C215.322 23.1575 215.369 23.1104 215.369 23.0523C215.369 22.9941 215.322 22.947 215.264 22.947C215.206 22.947 215.159 22.9941 215.159 23.0523ZM215.264 20.947C214.101 20.947 213.159 21.8896 213.159 23.0523C213.159 24.215 214.101 25.1575 215.264 25.1575C216.427 25.1575 217.369 24.215 217.369 23.0523C217.369 21.8896 216.427 20.947 215.264 20.947ZM215.264 28.4204C215.206 28.4204 215.159 28.3733 215.159 28.3151C215.159 28.257 215.206 28.2099 215.264 28.2099C215.322 28.2099 215.369 28.257 215.369 28.3151C215.369 28.3733 215.322 28.4204 215.264 28.4204ZM213.159 28.3151C213.159 27.1524 214.101 26.2099 215.264 26.2099C216.427 26.2099 217.369 27.1524 217.369 28.3151C217.369 29.4778 216.427 30.4204 215.264 30.4204C214.101 30.4204 213.159 29.4778 213.159 28.3151Z" fill="black"/>
<rect y="74" width="325" height="42" fill="url(#paint1_linear)"/>
<defs>
<linearGradient id="paint0_linear" x1="162.5" y1="16" x2="162.5" y2="341" gradientUnits="userSpaceOnUse">
<stop stop-color="#9BA3A2"/>
<stop offset="1" stop-color="#626A69"/>
</linearGradient>
<linearGradient id="paint1_linear" x1="209.02" y1="111" x2="209.02" y2="74" gradientUnits="userSpaceOnUse">
<stop stop-color="white"/>
<stop offset="1" stop-color="#EEEEEE" stop-opacity="0"/>
</linearGradient>
</defs>
</svg>
