<svg xmlns="http://www.w3.org/2000/svg" width="31.891" height="36.447" viewBox="0 0 31.891 36.447">
  <path id="calender-monate" d="M1126.476,1165.556h10.26v-2.843a1.7,1.7,0,1,1,3.408,0v2.843h2.861a4.557,4.557,0,0,1,4.556,4.556v22.779a4.558,4.558,0,0,1-4.556,4.556h-22.779a4.557,4.557,0,0,1-4.556-4.556v-22.779a4.557,4.557,0,0,1,4.556-4.556h2.843v-2.843a1.7,1.7,0,1,1,3.408,0Zm-7.4,27.335a1.139,1.139,0,0,0,1.148,1.13h22.779a1.136,1.136,0,0,0,1.13-1.13v-18.223h-25.057Z" transform="translate(-1115.67 -1161)" fill="rgba(255,255,255,0.56)"/>
</svg>
