<svg width="79" height="51" viewBox="0 0 79 51" fill="none" xmlns="http://www.w3.org/2000/svg">
<g clip-path="url(#clip0_6_2)">
<rect width="79" height="51" fill="#141414"/>
<g clip-path="url(#clip1_6_2)">
<path d="M21.9998 9.4458C16.9876 9.52735 12.1984 11.5322 8.62284 15.0458C5.87371 17.6068 3.67826 20.7038 2.17184 24.1458C2.05842 24.4162 2 24.7065 2 24.9998C2 25.2931 2.05842 25.5834 2.17184 25.8538C3.67826 29.2958 5.87371 32.3928 8.62284 34.9538C12.1984 38.4674 16.9876 40.4723 21.9998 40.5538C27.0111 40.4715 31.7991 38.4666 35.3738 34.9538C38.1211 32.3895 40.3182 29.2935 41.8318 25.8538C41.9453 25.5834 42.0037 25.2931 42.0037 24.9998C42.0037 24.7065 41.9453 24.4162 41.8318 24.1458C40.3188 20.7048 38.12 17.6084 35.3698 15.0458C31.796 11.5339 27.0097 9.52913 21.9998 9.4458ZM31.9998 24.9998C31.9998 26.9776 31.4133 28.911 30.3145 30.5555C29.2157 32.2 27.6539 33.4817 25.8267 34.2386C23.9994 34.9955 21.9887 35.1935 20.0489 34.8077C18.1091 34.4218 16.3273 33.4694 14.9288 32.0709C13.5302 30.6723 12.5778 28.8905 12.192 26.9507C11.8061 25.0109 12.0042 23.0002 12.761 21.173C13.5179 19.3457 14.7996 17.7839 16.4441 16.6851C18.0886 15.5863 20.022 14.9998 21.9998 14.9998C24.652 14.9998 27.1955 16.0534 29.0709 17.9287C30.9463 19.8041 31.9998 22.3476 31.9998 24.9998Z" fill="#2C6AF9"/>
<path opacity="0.38" d="M12 24.9991L22 20.5551C21.9989 21.7334 21.5304 22.8631 20.6972 23.6963C19.864 24.5295 18.7343 24.998 17.556 24.9991C16.786 25.0022 16.0289 24.8011 15.362 24.4161C15.348 24.6101 15.334 24.7981 15.334 24.9991C15.334 26.3175 15.725 27.6063 16.4574 28.7025C17.1899 29.7987 18.231 30.6531 19.449 31.1577C20.6671 31.6622 22.0074 31.7942 23.3005 31.537C24.5935 31.2798 25.7813 30.6449 26.7136 29.7127C27.6458 28.7804 28.2807 27.5926 28.5379 26.2996C28.7951 25.0065 28.6631 23.6662 28.1586 22.4481C27.654 21.2301 26.7997 20.189 25.7034 19.4565C24.6072 18.724 23.3184 18.3331 22 18.3331C21.8053 18.332 21.6107 18.3414 21.417 18.3611C21.7989 19.0293 21.9998 19.7855 22 20.5551" fill="#2C6AF9"/>
</g>
</g>
<defs>
<clipPath id="clip0_6_2">
<rect width="79" height="51" fill="white"/>
</clipPath>
<clipPath id="clip1_6_2">
<rect width="48" height="48" fill="white" transform="translate(-2 1)"/>
</clipPath>
</defs>
</svg>
