<svg width="50" height="50" viewBox="0 0 50 50" fill="none" xmlns="http://www.w3.org/2000/svg">
<circle cx="5" cy="21" r="1" fill="black"/>
<circle cx="9" cy="21" r="1" fill="black"/>
<circle cx="13" cy="21" r="1" fill="black"/>
<rect x="1" y="17" width="48" height="32" rx="3" stroke="black" stroke-width="2"/>
<path d="M1 25H49" stroke="black" stroke-width="2"/>
<rect x="28" y="12" width="16" height="21" rx="8" fill="#86EC16"/>
<path d="M36 16V11C36 7.13401 32.866 4 29 4V4C25.134 4 22 7.13401 22 11V13.6" stroke="#86EC16" stroke-width="4"/>
<path fill-rule="evenodd" clip-rule="evenodd" d="M15.082 16H26.9161C26.44 13.1623 23.9721 11 20.9991 11C18.0261 11 15.5581 13.1623 15.082 16Z" fill="#86EC16"/>
<path d="M36.5 30V30C36.5 33.3083 34.4478 36.2696 31.3502 37.4312L28.5 38.5" stroke="#86EC16" stroke-width="2"/>
<rect x="20" y="38.374" width="9.17255" height="5.02774" rx="2.51387" transform="rotate(-15 20 38.374)" fill="#86EC16"/>
<path d="M15 31L15.5703 31.8214L18.1932 30.0002L15.0001 30L15 31ZM7.00043 30.9995L7.0005 29.9995L6.00054 29.9994L6.00043 30.9993L7.00043 30.9995ZM11.9246 33.1354L11.3542 32.314L10.2794 33.0604L11.2818 33.9015L11.9246 33.1354ZM16.0703 36.6141L16.8363 37.2569L17.4791 36.4908L16.713 35.848L16.0703 36.6141ZM13.4991 39.6783L12.8563 40.4443L13.6224 41.0871L14.2652 40.3211L13.4991 39.6783ZM9.17237 36.0477L9.81516 35.2817L8.99871 34.5966L8.36697 35.455L9.17237 36.0477ZM6.99959 39.0001L5.99959 39L5.99927 42.0464L7.80499 39.5928L6.99959 39.0001ZM15.0001 30L7.0005 29.9995L7.00036 31.9995L14.9999 32L15.0001 30ZM12.4949 33.9568L15.5703 31.8214L14.4297 30.1786L11.3542 32.314L12.4949 33.9568ZM11.2818 33.9015L15.4275 37.3801L16.713 35.848L12.5674 32.3694L11.2818 33.9015ZM15.3042 35.9713L12.7331 39.0355L14.2652 40.3211L16.8363 37.2569L15.3042 35.9713ZM14.1419 38.9122L9.81516 35.2817L8.52958 36.8137L12.8563 40.4443L14.1419 38.9122ZM7.80499 39.5928L9.97777 36.6404L8.36697 35.455L6.19419 38.4073L7.80499 39.5928ZM6.00043 30.9993L5.99959 39L7.99959 39.0002L8.00043 30.9996L6.00043 30.9993Z" fill="black"/>
</svg>
