<svg width="33" height="34" viewBox="0 0 33 34" fill="none" xmlns="http://www.w3.org/2000/svg">
<path d="M14.67 1C10.045 1 6.63496 2.6 4.42996 5.1C2.26163 7.71985 1.1238 11.0409 1.22996 14.44C1.22836 17.1539 2.05138 19.8043 3.58996 22.04C4.9467 23.9755 5.68578 26.2764 5.70996 28.64V33H6.98996V28.64C6.96197 26.0359 6.15384 23.5001 4.66996 21.36L4.62996 21.3C3.24296 19.2817 2.50349 16.8889 2.50996 14.44C2.40543 11.3509 3.42919 8.32936 5.38996 5.94C7.34496 3.722 10.33 2.28 14.67 2.28C19.023 2.28 21.848 3.542 23.71 5.48C25.5391 7.57342 26.6347 10.2069 26.83 12.98L26.85 13.12L26.91 13.22L29.93 18.4H29.91C29.9497 18.4589 29.9762 18.5257 29.9876 18.5958C29.9991 18.6659 29.9951 18.7377 29.9761 18.8062C29.9571 18.8746 29.9234 18.9381 29.8775 18.9923C29.8315 19.0465 29.7744 19.0901 29.71 19.12V19.14L26.83 20.58V24.42C26.8394 24.9808 26.7305 25.5373 26.5104 26.0532C26.2903 26.5691 25.9638 27.0327 25.5524 27.414C25.141 27.7952 24.6539 28.0854 24.1227 28.2656C23.5916 28.4459 23.0284 28.5121 22.47 28.46H22.45L20.47 28.32L19.79 28.28V33H21.07V29.64L22.35 29.74H22.37C23.1035 29.8002 23.8416 29.7071 24.5373 29.4667C25.233 29.2263 25.871 28.8437 26.4109 28.3434C26.9507 27.843 27.3806 27.2358 27.6731 26.5604C27.9656 25.885 28.1144 25.156 28.11 24.42V21.36L30.31 20.26H30.33L30.35 20.24C30.7655 20.0031 31.0703 19.6114 31.1977 19.1504C31.3252 18.6894 31.2648 18.1966 31.03 17.78V17.76L28.07 12.64C27.8219 9.65877 26.615 6.83805 24.63 4.6C22.507 2.392 19.277 1 14.67 1ZM15.31 7.66C14.6348 7.62562 13.9599 7.73468 13.33 7.98C12.7592 8.16104 12.248 8.49269 11.85 8.94C11.4532 9.39034 11.1476 9.91332 10.95 10.48C10.7688 11.0808 10.6416 11.6966 10.57 12.32H11.85C11.8493 11.8265 11.9166 11.3352 12.05 10.86C12.2113 10.4469 12.4265 10.0568 12.69 9.7C12.9593 9.36355 13.3105 9.10187 13.71 8.94C14.1794 8.74984 14.6838 8.66123 15.19 8.68C15.5788 8.67899 15.9647 8.74669 16.33 8.88C16.6897 8.98811 17.0187 9.18003 17.29 9.44C17.5533 9.70111 17.7698 10.0055 17.93 10.34C18.1071 10.7007 18.1962 11.0982 18.19 11.5C18.2008 12.0125 18.0693 12.5179 17.81 12.96C17.5468 13.4083 17.2238 13.8188 16.85 14.18C16.465 14.627 16.07 14.96 15.75 15.28C15.4583 15.5677 15.2031 15.8901 14.99 16.24C14.7879 16.5906 14.6586 16.9783 14.61 17.38C14.4914 17.9046 14.4443 18.4428 14.47 18.98H15.75C15.7343 18.4919 15.7611 18.0034 15.83 17.52C15.8721 17.2305 15.9528 16.948 16.07 16.68C16.224 16.4168 16.4199 16.1803 16.65 15.98L17.67 14.96C18.1523 14.4957 18.5816 13.9792 18.95 13.42C19.3017 12.8422 19.482 12.1763 19.47 11.5C19.4693 10.9508 19.3606 10.4072 19.15 9.9C18.9634 9.42072 18.6528 8.99967 18.25 8.68C17.8494 8.35286 17.3963 8.09589 16.91 7.92C16.3972 7.73533 15.8548 7.64718 15.31 7.66ZM14.29 20.4V22.56H16.01V20.4H14.29Z" fill="#86ED18" stroke="#86ED18" stroke-width="2"/>
</svg>
