<?xml version="1.0" encoding="utf-8"?>
<!-- Generator: Adobe Illustrator 23.0.3, SVG Export Plug-In . SVG Version: 6.00 Build 0)  -->
<svg version="1.1" xmlns="http://www.w3.org/2000/svg" xmlns:xlink="http://www.w3.org/1999/xlink" x="0px" y="0px"
	 viewBox="0 0 643 240" style="enable-background:new 0 0 643 240;" xml:space="preserve">
<style type="text/css">
	.st0{display:none;}
	.st1{display:inline;fill:#6100FE;}
	.st2{fill:#FFFFFF;}
	.st3{fill:none;stroke:#FFFFFF;stroke-width:4;stroke-miterlimit:10;}
</style>
<g id="Ebene_2" class="st0">
	<rect class="st1" width="643" height="240"/>
</g>
<g id="Ebene_1">
	<g>
		<path class="st2" d="M82.5,51c37.8,0,68.5,30.7,68.5,68.5S120.3,188,82.5,188S14,157.3,14,119.5S44.7,51,82.5,51 M82.5,47
			C42.5,47,10,79.5,10,119.5S42.5,192,82.5,192s72.5-32.5,72.5-72.5S122.5,47,82.5,47L82.5,47z"/>
	</g>
	<g>
		<path class="st2" d="M560.5,51c37.8,0,68.5,30.7,68.5,68.5S598.3,188,560.5,188S492,157.3,492,119.5S522.7,51,560.5,51 M560.5,47
			c-40,0-72.5,32.5-72.5,72.5s32.5,72.5,72.5,72.5s72.5-32.5,72.5-72.5S600.5,47,560.5,47L560.5,47z"/>
	</g>
	<g>
		<line class="st3" x1="161" y1="120" x2="243" y2="120"/>
	</g>
	<g>
		<line class="st3" x1="400" y1="120" x2="482" y2="120"/>
	</g>
	<g>
		<g>
			<path class="st2" d="M278.2,144.9c0,1.2,0.4,2.3,1.2,3.1c0.8,0.8,1.8,1.2,2.9,1.2h79c1.1,0,2.1-0.4,2.9-1.2
				c0.8-0.8,1.2-1.8,1.2-3.1v-7.6h-87.2V144.9z M319,140.5c0.7-0.8,1.7-1.2,2.8-1.2s2,0.4,2.8,1.2c0.7,0.8,1.1,1.7,1.1,2.7
				c0,1.1-0.4,2.1-1.1,2.9c-0.7,0.8-1.7,1.2-2.8,1.2s-2-0.4-2.8-1.2c-0.7-0.8-1.1-1.8-1.1-2.9C317.9,142.2,318.3,141.3,319,140.5z"
				/>
		</g>
		<g>
			<path class="st2" d="M361.3,82h-79c-1.1,0-2.1,0.4-2.9,1.2c-0.8,0.8-1.2,1.8-1.2,3.1v47.1h87.2V86.2c0-1.2-0.4-2.3-1.2-3.1
				C363.4,82.4,362.4,82,361.3,82z"/>
		</g>
		<g>
			<path class="st2" d="M321.5,47c-40,0-72.5,32.5-72.5,72.5s32.5,72.5,72.5,72.5s72.5-32.5,72.5-72.5S361.5,47,321.5,47z
				 M369.3,144.9c0,2.4-0.8,4.3-2.3,5.9c-1.5,1.6-3.4,2.4-5.7,2.4h-37.5v3.9h25.6c1.4,0,2,0.7,2,2c0,1.2-0.7,1.9-2,1.9h-55.3
				c-1.4,0-2-0.6-2-1.9c0-1.4,0.7-2,2-2h25.6v-3.9h-37.5c-2.2,0-4.1-0.8-5.7-2.4c-1.5-1.6-2.3-3.6-2.3-5.9V86.2
				c0-2.4,0.8-4.3,2.3-5.9c1.5-1.6,3.4-2.4,5.7-2.4h79c2.2,0,4.1,0.8,5.7,2.4c1.5,1.6,2.3,3.6,2.3,5.9V144.9z"/>
		</g>
	</g>
	<g transform="matrix(1 0 0 -1 0 480)">
		<path class="st2" d="M578.3,345.2c-1.8,1.8-3.8,2.7-6.1,2.7c-2.4,0-4.5-0.9-6.3-2.7l-1.3-1.3c-7.5,6.2-14.4,13.1-20.6,20.6
			l1.3,1.3c1.8,1.8,2.7,3.8,2.7,6.2c0,2.4-0.9,4.5-2.7,6.2l-7.5,7.6c-1.7,1.7-3.8,2.5-6.3,2.5c-2.4,0-4.5-0.8-6.1-2.5l-4.2-4.2
			c-2.1-2.1-3.3-4.6-3.6-7.6c-0.3-2.9,0.4-5.6,1.9-8.1c12.3-18.8,27.8-34.4,46.7-46.7c2-1.3,4.3-2,6.8-2c3.4,0,6.4,1.2,8.8,3.7
			l4.2,4.2c1.7,1.7,2.5,3.7,2.5,6.1c0,2.4-0.8,4.5-2.5,6.3L578.3,345.2z M583.3,327.8l-4-4.2c-1.8-1.8-3.9-2.7-6.3-2.7
			c-1.9,0-3.5,0.5-4.8,1.5c-18.5,12.3-33.7,27.5-45.7,45.7c-1.1,1.8-1.6,3.7-1.4,5.7c0.2,2,1,3.8,2.6,5.4l4.2,4
			c1.1,1.1,2.3,1.7,3.7,1.7c1.4,0,2.7-0.6,3.8-1.7l7.5-7.5c1.1-1,1.7-2.2,1.7-3.7c0-1.5-0.6-2.7-1.7-3.7l-2.5-2.5
			c-0.8-0.8-0.8-1.5-0.2-2.3c7.1-8.5,14.9-16.3,23.4-23.4c0.8-0.7,1.5-0.6,2.3,0.2l2.5,2.5c1,1,2.2,1.5,3.7,1.5s2.7-0.5,3.7-1.5
			l7.5-7.5c1.1-1,1.7-2.2,1.7-3.7S584.4,328.8,583.3,327.8z M602.6,401l-0.2,0.3c-0.1,0.6-0.4,0.9-1,1h-0.2
			c-0.1,0.1-0.3,0.2-0.5,0.2h-22.9c-1.2,0-1.8-0.6-1.8-1.8c0-1.1,0.6-1.7,1.8-1.7h18.8L564,366.5c-0.8-0.8-0.8-1.6,0-2.5
			c0.4-0.3,0.9-0.5,1.3-0.5s0.9,0.2,1.3,0.5l32.4,32.5v-18.8c0-1.2,0.6-1.8,1.7-1.8c1.2,0,1.8,0.6,1.8,1.8v22.9V401z"/>
	</g>
	<g transform="matrix(1 0 0 -1 0 480)">
		<path class="st2" d="M99.8,385.3c0,1.2-0.6,1.8-1.8,1.8c-7,0-11.5,1.6-13.4,4.8c-0.3,0.4-0.7,1-1.2,1.7c-0.9,0.9-1.8,0.9-2.7,0
			c-0.4-0.7-0.8-1.2-1.2-1.7c-2-3.2-6.5-4.8-13.4-4.8c-1.2,0-1.8-0.6-1.8-1.8s0.6-1.8,1.8-1.8c8.1,0,13.4,1.9,15.9,5.8
			c2.5-3.9,7.9-5.8,15.9-5.8C99.2,383.4,99.8,384,99.8,385.3z M114,347.1l-22.2,6.3h-0.5H91h-0.3l-0.2-0.2h-0.2
			c-3.1-2.2-5.9-3.3-8.3-3.3c-3,0-6.4,1.6-10.2,4.8s-5.7,6.9-5.7,11.1v1.7h-1.8c-1.8,0-2.9,1.2-3.3,3.7c-0.6,2-0.3,3.2,0.7,3.7
			l1.2,0.7l-2,11.8c-0.3,3.5,0.8,6.8,3.5,9.8c3.4,4,9.4,6,17.8,6c8.2,0,14.1-2,17.8-6c2.3-2.5,3.5-5.8,3.5-9.8l-1.7-6.8v-0.3
			l-0.2-0.2v-10.6c0-1.2,0.6-1.8,1.8-1.8h3.5V366c-0.4-2.5-2.2-3.8-5.3-3.8H90.3c-0.6,1.2-1.5,1.8-3,1.8h-7.1
			c-0.9,0-1.7-0.4-2.4-1.1s-1.1-1.5-1.1-2.4c0-1,0.4-1.9,1.1-2.6s1.5-1.1,2.4-1.1h7.1c1.3,0,2.3,0.6,3,1.8h11.1
			c2.2,0,4.2,0.6,5.8,1.9s2.7,2.9,3,4.9l0.2,3c2.3,1.5,3.5,3.6,3.5,6.1c0,2-0.7,3.7-2.1,5.1s-3.1,2.1-5.1,2.1h-1.2l1.2,4.8v0.3
			c0,5.1-1.4,9.2-4.3,12.5c-4.3,4.8-11.1,7.1-20.4,7.1s-16.1-2.4-20.4-7.1c-2.9-3.2-4.3-7.4-4.3-12.6l1.5-9.6
			c-1.5-1.5-2-3.8-1.3-6.8c0.7-3.2,2.4-5.3,5.1-6.1c0.4-4.3,2.6-8.2,6.5-11.6l-19.3-5.5c-3.1-1.2-5.6-3.2-7.5-5.9s-2.8-5.7-2.8-9
			v-10.6h85v10.6c0,3.3-1,6.4-2.9,9.1S117.1,346,114,347.1z M105.1,378.1h1.7c1,0,1.9-0.3,2.6-1s1.1-1.5,1.1-2.5s-0.4-1.8-1.1-2.5
			s-1.6-1-2.6-1h-1.7V378.1z M121,325H43v7.1c0,2.5,0.7,4.9,2.2,7.1s3.4,3.7,5.7,4.6l21.6,6c3.8-2.3,6.9-3.5,9.5-3.5
			c2.8,0,6,1.2,9.6,3.5l21.3-6c2.4-0.9,4.4-2.4,5.9-4.6s2.2-4.5,2.2-7.1V325z M71.4,372.8c1.2,0,1.8,0.6,1.8,1.8h1.2h0.5h0.5h1.3
			c0-1.2,0.6-1.8,1.8-1.8c1.1,0,1.7,0.6,1.7,1.8c0,0.9-0.3,1.7-0.8,2.5c-0.8,0.7-2.1,1-4,1h-0.5h-0.3c-2,0-3.3-0.3-4-1s-1-1.5-1-2.5
			C69.5,373.4,70.2,372.8,71.4,372.8z M89.1,378.1h-0.5c-1.9,0-3.2-0.3-4-1c-0.6-0.8-0.8-1.6-0.8-2.5c0-1.2,0.6-1.8,1.7-1.8
			c1.2,0,1.8,0.6,1.8,1.8h1.3h0.5h0.5h1.2c0-1.2,0.6-1.8,1.8-1.8s1.8,0.6,1.8,1.8c0,1-0.3,1.8-1,2.5s-2,1-4,1H89.1z"/>
	</g>
</g>
</svg>
