<svg xmlns="http://www.w3.org/2000/svg" width="25.543" height="32" viewBox="0 0 25.543 32">
  <g id="umfragen-icon" transform="translate(-43 -7441)">
    <path id="icons8-umfrage" d="M12.56,0a.64.64,0,0,0-.52.64v.64H6.86A1.863,1.863,0,0,0,5,3.14V30.08A1.9,1.9,0,0,0,6.86,32H28.68a1.872,1.872,0,0,0,1.86-1.86V3.2c0-.02,0-.04,0-.06a1.785,1.785,0,0,0-1.8-1.86H23.56V.64A.641.641,0,0,0,22.92,0H12.56Zm.76,1.28h8.96V5.12H13.32ZM6.86,2.56h5.18V3.84H7.56v25.6H28.04V3.84H23.56V2.56h5.18a.573.573,0,0,1,.52.52V30.14a.572.572,0,0,1-.58.58H6.86a.659.659,0,0,1-.58-.64V3.14A.69.69,0,0,1,6.86,2.56ZM8.84,5.12h3.2v.64a.641.641,0,0,0,.64.64H22.92a.641.641,0,0,0,.64-.64V5.12h3.2V28.16H8.84Zm2.56,5.76V16h5.12V10.88Zm1.28,1.28h2.56v2.56H12.68Zm5.76.64v1.28H24.2V12.8ZM11.4,19.2v5.12h5.12V19.2Zm1.28,1.28h2.56v2.56H12.68Zm.64.64V22.4H14.6V21.12Zm5.12,0V22.4H24.2V21.12Z" transform="translate(38 7441)" fill="#86ed18"/>
  </g>
</svg>
