<svg width="158" height="88" viewBox="0 0 158 88" fill="none" xmlns="http://www.w3.org/2000/svg">
<circle cx="44" cy="44" r="44" fill="url(#paint0_linear)"/>
<path d="M26 44.0002C26 53.971 34.1182 62 44 62C45.412 62 46.824 61.8232 48.147 61.4706V51.4119C46.9119 52.1181 45.4999 52.4707 44 52.4707C39.3234 52.4707 35.5302 48.6769 35.5302 44.0002C35.5302 39.3234 39.3234 35.5296 44 35.5296C45.501 35.5296 46.9119 35.9712 48.147 36.5885V26.5297C46.7955 26.1694 45.4009 25.9913 44.0011 26.0003C34.1182 26.0003 26 34.1182 26 44.0002ZM52.4709 28.118V59.8824C58.1178 56.8828 62 50.8825 62 44.0002C62 37.1179 58.2047 31.1176 52.4698 28.118H52.4709Z" fill="white"/>
<path fill-rule="evenodd" clip-rule="evenodd" d="M114 4C136.091 4 154 21.9086 154 44C154 66.0914 136.091 84 114 84C91.9086 84 74 66.0914 74 44C74 41.9242 74.158 39.8861 74.4624 37.8969C76.4852 37.4561 78 35.655 78 33.5C78 31.0147 75.9853 29 73.5 29C73.4101 29 73.3209 29.0026 73.2323 29.0078L72.6932 28.8095C72.6586 28.9035 72.6243 28.9977 72.5904 29.092C70.5411 29.5126 69 31.3263 69 33.5C69 34.8652 69.608 36.0885 70.5679 36.9137C70.1942 39.2214 70 41.5885 70 44C70 68.3005 89.6995 88 114 88C138.301 88 158 68.3005 158 44C158 19.6995 138.301 0 114 0V4Z" fill="url(#paint1_linear)"/>
<path fill-rule="evenodd" clip-rule="evenodd" d="M81.402 67.1867C80.6563 68.387 79.8544 69.5488 79 70.6684C87.0389 81.2027 99.7257 88 114 88C138.301 88 158 68.3005 158 44C158 19.6995 138.301 0 114 0C104.033 0 94.834 3.31671 87.4557 8.90576C84.271 11.3182 81.4244 14.1549 79.0002 17.3318C79.8544 18.4512 80.6562 19.6129 81.4018 20.813C83.7662 17.4951 86.6249 14.5532 89.871 12.0942C96.5783 7.01345 104.934 4 114 4C136.091 4 154 21.9086 154 44C154 66.0914 136.091 84 114 84C100.552 84 88.6536 77.3634 81.402 67.1867Z" fill="url(#paint2_linear)"/>
<path fill-rule="evenodd" clip-rule="evenodd" d="M126.165 42.897C129.934 42.897 133 46.0641 133 49.9558C133 53.8475 129.934 57.0146 126.165 57.0146H123.513C122.975 59.9215 121.23 62 119.092 62H110.252C108.907 62 107.645 61.1661 106.793 59.7078C106.059 58.4642 105.658 56.8323 105.658 55.1189C105.658 51.2637 107.678 48.2428 110.252 48.2428H119.092C120.441 48.2428 121.703 49.0763 122.556 50.5304C123.166 51.574 123.54 52.8819 123.649 54.2809H126.165C128.425 54.2809 130.266 52.3391 130.266 49.9563C130.266 47.5684 128.425 45.6316 126.165 45.6316H103.836C100.067 45.6316 97 42.4645 97 38.5728C97 34.6811 100.067 31.5144 103.836 31.5144H106.401C106.816 28.3336 108.643 26 110.908 26H119.749C121.093 26 122.355 26.8339 123.207 28.2922C123.941 29.5358 124.342 31.1677 124.342 32.8811C124.342 34.8083 123.836 36.5267 123.011 37.7662C122.182 39.0012 121.034 39.7572 119.749 39.7572H110.908C109.56 39.7572 108.297 38.9237 107.445 37.4696C106.912 36.5582 106.556 35.4467 106.401 34.2482H103.836C101.575 34.2482 99.7342 36.1895 99.7342 38.5724C99.7342 40.9557 101.575 42.897 103.836 42.897H126.165ZM119.749 37.0225C120.487 37.0225 121.608 35.3688 121.608 32.8806C121.608 31.6635 121.33 30.4928 120.851 29.6725C120.505 29.0842 120.095 28.7333 119.749 28.7333C119.006 28.7333 117.885 30.3875 117.885 32.8806C117.885 35.3692 119.006 37.0225 119.749 37.0225ZM119.092 59.2658C119.831 59.2658 120.952 57.6116 120.952 55.1184C120.952 53.9067 120.678 52.7356 120.195 51.9108C119.848 51.3275 119.439 50.9766 119.092 50.9766H113.938C114.513 52.1204 114.85 53.5467 114.85 55.1184C114.85 56.6911 114.513 58.1174 113.938 59.2658H119.092ZM116.062 28.7338H110.908C110.17 28.7338 109.049 30.388 109.049 32.8811C109.049 34.0928 109.322 35.264 109.805 36.0842C110.152 36.6721 110.561 37.023 110.908 37.023H116.062C115.487 35.8792 115.151 34.4487 115.151 32.8811C115.151 31.308 115.487 29.8776 116.062 28.7338ZM112.116 55.1184C112.116 52.6258 110.995 50.9766 110.252 50.9766C109.514 50.9766 108.393 52.6258 108.393 55.1184C108.393 56.3356 108.671 57.5063 109.149 58.3266C109.495 58.9149 109.905 59.2658 110.252 59.2658C110.995 59.2658 112.116 57.6116 112.116 55.1184ZM130.879 27.517C133.696 30.4699 133.691 35.2821 130.874 38.2396C130.605 38.5222 130.245 38.6634 129.885 38.6634C129.544 38.6634 129.207 38.54 128.943 38.2852C128.396 37.7657 128.373 36.8999 128.897 36.353C130.724 34.4345 130.724 31.3175 128.901 29.399C128.382 28.8522 128.4 27.9863 128.947 27.4668C129.494 26.9473 130.359 26.9701 130.879 27.517ZM127.586 36.3534C129.336 34.4622 129.323 31.3863 127.55 29.4951C127.03 28.9482 126.164 28.9209 125.618 29.4363C125.066 29.9553 125.039 30.8216 125.554 31.3685C126.351 32.2156 126.365 33.6511 125.581 34.4941C125.066 35.0501 125.098 35.9159 125.654 36.4263C125.914 36.6724 126.251 36.7909 126.584 36.7909C126.948 36.7909 127.317 36.6455 127.586 36.3534ZM104.446 56.6319C104.961 57.1788 104.934 58.045 104.382 58.5641C104.118 58.8102 103.785 58.9332 103.448 58.9332C103.084 58.9332 102.719 58.7878 102.45 58.5053C100.677 56.6141 100.664 53.5382 102.414 51.647C102.929 51.091 103.795 51.0591 104.346 51.5741C104.902 52.0845 104.934 52.9503 104.419 53.5063C103.636 54.3488 103.649 55.7843 104.446 56.6319ZM101.051 60.5328C101.598 60.0088 101.617 59.1429 101.097 58.6007C99.2744 56.6822 99.2789 53.5652 101.102 51.6462C101.626 51.0993 101.603 50.2335 101.056 49.714C100.509 49.19 99.6435 49.2127 99.124 49.7596C96.3078 52.7171 96.3028 57.5293 99.1194 60.4823C99.3883 60.7648 99.7483 60.9065 100.108 60.9065C100.446 60.9065 100.787 60.7835 101.051 60.5328Z" fill="url(#paint3_linear)"/>
<defs>
<linearGradient id="paint0_linear" x1="44" y1="0" x2="44" y2="88" gradientUnits="userSpaceOnUse">
<stop stop-color="#AAEA39"/>
<stop offset="1" stop-color="#86EC16"/>
</linearGradient>
<linearGradient id="paint1_linear" x1="113.5" y1="0" x2="113.5" y2="88" gradientUnits="userSpaceOnUse">
<stop stop-color="#9BA3A2"/>
<stop offset="1" stop-color="#626A69"/>
</linearGradient>
<linearGradient id="paint2_linear" x1="118.5" y1="0" x2="118.5" y2="88" gradientUnits="userSpaceOnUse">
<stop stop-color="#9BA3A2"/>
<stop offset="1" stop-color="#626A69"/>
</linearGradient>
<linearGradient id="paint3_linear" x1="115" y1="26" x2="115" y2="62" gradientUnits="userSpaceOnUse">
<stop stop-color="#9BA3A2"/>
<stop offset="1" stop-color="#626A69"/>
</linearGradient>
</defs>
</svg>
