<svg xmlns="http://www.w3.org/2000/svg" width="28.367" height="30.946" viewBox="0 0 28.367 30.946">
  <path id="cyber-security-icon" d="M18.183,3A65.977,65.977,0,0,0,6.078,4.337v0A2.578,2.578,0,0,0,4,6.868V14.6C4,28.012,16.922,33.616,16.922,33.616h.025a2.55,2.55,0,0,0,1.237.33V3Zm11.6,3.868a2.579,2.579,0,0,0-2.571,2.743L25.53,10.736H22.052a1.289,1.289,0,0,0,0,2.579H25.92a1.291,1.291,0,0,0,.715-.217l2.012-1.34a2.578,2.578,0,1,0,1.141-4.891Zm0,9.026a2.579,2.579,0,0,0-2.229,1.289H22.052a1.289,1.289,0,0,0,0,2.579h5.5a2.579,2.579,0,1,0,2.234-3.868ZM22,23.631a1.29,1.29,0,0,0,.053,2.579H25.53l1.687,1.126a2.585,2.585,0,1,0,1.43-2.146l-2.012-1.342a1.291,1.291,0,0,0-.715-.217H22Z" transform="translate(-4 -3)" fill="#86ed18"/>
</svg>
