<svg width="40" height="40" viewBox="0 0 40 40" fill="none" xmlns="http://www.w3.org/2000/svg">
<path d="M11.8718 28.2604C6.15109 22.6202 3.58587 17.1815 3.01834 15.1671L1.82239 16.3463C0.792882 17.3613 0.477443 18.8888 1.17219 20.1503C2.63259 22.8019 5.33345 26.8499 9.31789 30.7783C13.1169 34.5238 16.7359 37.1761 19.1536 38.7106C20.4653 39.5432 22.1503 39.2771 23.2533 38.1896L24.8114 36.6535C22.8818 36.2058 17.5924 33.9005 11.8718 28.2604Z" fill="#86EC16"/>
<path d="M3.90232 14.2956C5.00998 13.2035 6.86366 13.4285 7.66959 14.7528L10.7342 19.7887C11.3027 20.7228 11.1534 21.9184 10.3721 22.6887L8.26359 24.7676C7.15594 25.8596 5.30225 25.6346 4.49632 24.3103L1.43168 19.2744C0.863238 18.3404 1.01253 17.1447 1.79379 16.3745L3.90232 14.2956Z" fill="#86EC16"/>
<path d="M25.6954 35.7819C26.803 34.6899 26.5748 32.8623 25.2316 32.0677L20.1238 29.0462C19.1764 28.4857 17.9637 28.6329 17.1824 29.4032L15.0739 31.482C13.9663 32.5741 14.1945 34.4017 15.5377 35.1963L20.6454 38.2178C21.5929 38.7782 22.8056 38.631 23.5868 37.8608L25.6954 35.7819Z" fill="#86EC16"/>
<rect x="19.3984" y="13.8" width="6" height="9.2" stroke="black" stroke-width="2"/>
<rect x="25.8008" y="1.80005" width="6" height="21.2" stroke="black" stroke-width="2"/>
<rect x="32.1992" y="8.19995" width="6" height="14.8" stroke="black" stroke-width="2"/>
</svg>
