<svg width="33" height="33" viewBox="0 0 33 33" fill="none" xmlns="http://www.w3.org/2000/svg">
<path d="M26.87 14.2323C26.3046 14.4135 25.8339 14.811 25.5605 15.338C25.2872 15.865 25.2334 16.4788 25.411 17.0453L26.468 19.9713C26.6107 20.3297 26.8896 20.6169 27.2436 20.7702C27.5976 20.9235 27.9979 20.9304 28.357 20.7893C29.7175 20.3653 30.8645 19.4373 31.5631 18.1953C32.2617 16.9532 32.4592 15.4911 32.115 14.1083C31.0882 10.7198 29.8842 7.38752 28.508 4.12529C27.8898 2.84009 26.8036 1.83983 25.472 1.32932C24.1403 0.818819 22.6639 0.836695 21.345 1.37929C20.9783 1.49959 20.6744 1.76055 20.5 2.10481C20.3256 2.44908 20.295 2.84849 20.415 3.21529L21.473 6.14529C21.6971 6.69596 22.1305 7.1352 22.6782 7.36657C23.2259 7.59793 23.8429 7.60251 24.394 7.37929C24.439 7.36157 24.4888 7.35981 24.535 7.37429C25.5404 9.55457 26.3587 11.8164 26.981 14.1353C26.9709 14.1588 26.9558 14.1797 26.9365 14.1964C26.9173 14.2132 26.8946 14.2255 26.87 14.2323ZM25.775 6.80329C25.6583 6.55892 25.4736 6.35343 25.243 6.21151C25.0124 6.0696 24.7457 5.99729 24.475 6.00329C24.2882 6.00467 24.1031 6.0385 23.928 6.10329C23.717 6.20145 23.476 6.21308 23.2566 6.13569C23.0371 6.05831 22.8567 5.89807 22.754 5.68929L21.7 2.76029C21.7088 2.73608 21.7233 2.71435 21.7422 2.69694C21.7612 2.67953 21.7841 2.66696 21.809 2.66029C22.7998 2.23765 23.9146 2.20895 24.9258 2.58005C25.9371 2.95114 26.7687 3.69407 27.251 4.65729C27.63 5.55729 27.996 6.45729 28.351 7.37529L26.351 8.12029C26.162 7.67829 25.975 7.23529 25.775 6.80329ZM26.856 9.38829L28.828 8.65429C28.962 9.01429 29.335 10.0353 29.388 10.1863L27.422 10.9403C27.139 10.1103 27.399 10.7963 26.856 9.38829ZM27.333 15.5163C27.6815 15.4039 27.9747 15.1641 28.154 14.8448C28.3333 14.5256 28.3854 14.1504 28.3 13.7943C28.161 13.2743 28.008 12.7553 27.849 12.2383L29.833 11.4773C30.173 12.4843 30.503 13.4953 30.807 14.5043C31.0485 15.552 30.8815 16.6524 30.3401 17.5813C29.7987 18.5103 28.9236 19.198 27.893 19.5043C27.8474 19.5224 27.7966 19.5224 27.751 19.5043L26.694 16.5793C26.6413 16.3535 26.6786 16.1161 26.7981 15.9175C26.9176 15.7188 27.1098 15.5745 27.334 15.5153L27.333 15.5163ZM24.192 32.9373C24.3729 32.9373 24.5463 32.8654 24.6742 32.7375C24.8021 32.6096 24.874 32.4362 24.874 32.2553V22.0193C24.8727 20.8451 24.4056 19.7193 23.5753 18.889C22.745 18.0587 21.6192 17.5916 20.445 17.5903H17.445C17.3395 17.5903 17.2351 17.5694 17.1377 17.5289C17.0403 17.4884 16.9519 17.429 16.8775 17.3542C16.8032 17.2794 16.7443 17.1906 16.7044 17.093C16.6645 16.9953 16.6443 16.8908 16.645 16.7853V14.7983C17.5 13.7452 18.0057 12.452 18.092 11.0983C18.9716 9.11292 19.3524 6.94253 19.201 4.77629C19.101 3.31729 17.901 2.12829 15.909 1.51329C13.155 0.66429 9.31698 1.05129 7.39598 3.11329C6.83486 3.07351 6.28072 3.25679 5.85398 3.62329C5.57644 3.91837 5.37695 4.27805 5.27357 4.66973C5.1702 5.0614 5.16621 5.47269 5.26198 5.86629C5.57066 7.72924 6.24092 9.51377 7.23498 11.1193C7.3073 12.1712 7.63178 13.1902 8.18098 14.0903V16.7853C8.18019 16.9985 8.09512 17.2028 7.94432 17.3536C7.79353 17.5044 7.58923 17.5895 7.37598 17.5903H4.42898C3.25491 17.5919 2.1294 18.059 1.29931 18.8893C0.469213 19.7196 0.00229942 20.8452 0.000976562 22.0193V32.2553C0.000976563 32.4363 0.0728827 32.6099 0.200876 32.7379C0.32887 32.8659 0.502466 32.9378 0.683477 32.9378C0.864487 32.9378 1.03808 32.8659 1.16608 32.7379C1.29407 32.6099 1.36598 32.4363 1.36598 32.2553V22.0193C1.36677 21.2069 1.68984 20.428 2.26428 19.8536C2.83872 19.2792 3.6176 18.9561 4.42998 18.9553H5.65998L8.71798 23.1253C8.77611 23.2047 8.85076 23.2706 8.93678 23.3185C9.0228 23.3663 9.11815 23.395 9.2163 23.4025C9.31444 23.41 9.41305 23.3962 9.50535 23.3619C9.59764 23.3277 9.68144 23.274 9.75098 23.2043L9.84298 23.1133L10.243 25.0873C10.2677 25.2074 10.3246 25.3185 10.4076 25.4089C10.4905 25.4992 10.5964 25.5654 10.714 25.6003L10.294 32.2733C10.2883 32.3627 10.3003 32.4524 10.3293 32.5372C10.3582 32.622 10.4037 32.7003 10.4629 32.7675C10.5222 32.8348 10.5941 32.8897 10.6746 32.9291C10.7551 32.9685 10.8425 32.9917 10.932 32.9973C11.0216 33.0039 11.1117 32.9926 11.1969 32.964C11.2821 32.9354 11.3607 32.89 11.4282 32.8306C11.4956 32.7711 11.5505 32.6988 11.5896 32.6179C11.6287 32.537 11.6513 32.4491 11.656 32.3593L12.08 25.6343H12.95L13.374 32.3593C13.3854 32.5399 13.4681 32.7086 13.6038 32.8282C13.7396 32.9479 13.9174 33.0087 14.098 32.9973C14.2786 32.9859 14.4473 32.9032 14.5669 32.7674C14.6866 32.6316 14.7474 32.4539 14.736 32.2733L14.316 25.6053C14.4397 25.5748 14.5522 25.51 14.6407 25.4184C14.7291 25.3267 14.7899 25.212 14.816 25.0873L15.181 23.2453C15.2984 23.3429 15.4453 23.3979 15.598 23.4013H15.651C15.7493 23.3941 15.8449 23.3657 15.9312 23.3181C16.0175 23.2704 16.0925 23.2047 16.151 23.1253L19.215 18.9543H20.446C21.2584 18.9551 22.0372 19.2782 22.6117 19.8526C23.1861 20.427 23.5092 21.2059 23.51 22.0183V32.2553C23.51 32.4362 23.5818 32.6096 23.7097 32.7375C23.8376 32.8654 24.0111 32.9373 24.192 32.9373ZM15.456 14.0993C15.1113 14.5027 14.6845 14.8279 14.204 15.0531C13.7235 15.2783 13.2006 15.3984 12.67 15.4053C12.031 15.3905 11.4055 15.2185 10.8488 14.9046C10.2921 14.5906 9.82127 14.1444 9.47798 13.6053C8.91044 12.774 8.59513 11.7965 8.56998 10.7903C8.56998 10.7903 8.56998 10.7903 8.56998 10.7843C8.57598 10.7443 8.58198 10.7073 8.58798 10.6533L8.69598 9.77129C8.72021 9.13624 8.68674 8.50029 8.59598 7.87129C8.58025 7.70891 8.59859 7.54503 8.64983 7.39015C8.70108 7.23527 8.78409 7.09279 8.89356 6.97183C9.00304 6.85088 9.13656 6.75411 9.28558 6.68772C9.4346 6.62133 9.59584 6.58678 9.75898 6.58629C11.405 6.57729 13.703 6.56429 15.388 6.54929C15.5831 6.55044 15.7759 6.59098 15.955 6.66848C16.134 6.74598 16.2956 6.85884 16.43 7.00029C16.536 7.11455 16.6185 7.24864 16.6725 7.39485C16.7266 7.54107 16.7512 7.69652 16.745 7.85229C16.716 8.46829 16.707 9.06029 16.718 9.59829C16.715 11.0033 16.892 12.5033 15.456 14.0993ZM15.286 16.8633L12.434 18.7453L9.53998 16.8353C9.53998 16.8183 9.54698 16.8023 9.54698 16.7843V15.6543C10.4308 16.3697 11.5319 16.7629 12.669 16.7693C13.5927 16.7675 14.4973 16.5055 15.279 16.0133V16.7853C15.281 16.8113 15.281 16.8373 15.281 16.8633H15.286ZM7.88098 6.05529C7.64474 6.31698 7.4655 6.62494 7.35464 6.9596C7.24377 7.29426 7.2037 7.64832 7.23698 7.99929C7.23698 8.01229 7.23698 8.02529 7.23698 8.03829C6.94127 7.27747 6.73195 6.48584 6.61298 5.67829C6.56253 5.50185 6.55081 5.31659 6.57859 5.13519C6.60638 4.9538 6.67303 4.78054 6.77398 4.62729C6.92439 4.51528 7.10986 4.46067 7.29698 4.47329C7.3751 4.47261 7.45311 4.4793 7.52998 4.49329C7.65579 4.52099 7.78686 4.51269 7.90818 4.46937C8.0295 4.42604 8.13617 4.34942 8.21598 4.24829C9.65198 2.41829 13.116 2.08129 15.507 2.81729C16.181 3.02529 17.757 3.64129 17.839 4.86829C17.8785 5.46015 17.8739 6.05413 17.825 6.64529C17.7181 6.43864 17.5835 6.24754 17.425 6.07729C17.1641 5.79279 16.8461 5.56655 16.4919 5.41336C16.1376 5.26017 15.7549 5.18347 15.369 5.18829C13.686 5.20329 11.39 5.21629 9.74598 5.22529C9.39465 5.22736 9.04756 5.30217 8.72658 5.44502C8.40559 5.58787 8.11768 5.79566 7.88098 6.05529ZM9.34998 21.6763L7.34998 18.9543H7.38098C7.70277 18.9537 8.0204 18.8816 8.31094 18.7432C8.60147 18.6049 8.85765 18.4037 9.06098 18.1543L11.361 19.6713L9.34998 21.6763ZM13.581 24.2693H11.468L11.001 21.9563L11.094 21.8633L12.434 20.5263L13.311 21.4013L14.021 22.1113L13.581 24.2693ZM15.515 21.6793L13.511 19.6693L15.781 18.1693C15.792 18.1823 15.806 18.1913 15.817 18.2043C16.0196 18.4369 16.2694 18.6239 16.5497 18.7529C16.83 18.8818 17.1345 18.9498 17.443 18.9523H17.521L15.515 21.6793Z" fill="#86ED18"/>
</svg>
