<svg width="32" height="33" viewBox="0 0 32 33" fill="none" xmlns="http://www.w3.org/2000/svg">
<path d="M16.761 0.999597L16.326 1.3906L6.891 10.7386H0.5V32.9996H23.935C24.8899 32.9961 25.8151 32.6673 26.5581 32.0674C27.301 31.4675 27.8174 30.6323 28.022 29.6996L31.022 15.7866C31.1466 15.1785 31.1349 14.5503 30.9876 13.9473C30.8404 13.3442 30.5613 12.7813 30.1705 12.2991C29.7796 11.8168 29.2868 11.4272 28.7273 11.1582C28.1679 10.8893 27.5557 10.7477 26.935 10.7436H18.935L19.2 9.6996C19.5439 9.46906 19.8395 9.17352 20.07 8.8296C20.9341 7.62752 21.3898 6.17991 21.37 4.6996C21.3158 3.67574 20.8616 2.71415 20.1052 2.02205C19.3487 1.32995 18.3506 0.962757 17.326 0.999597H16.761ZM17.761 3.9126C18.348 4.0266 18.587 4.2656 18.587 4.6956C18.6249 5.59468 18.3651 6.48115 17.848 7.2176C17.6922 7.46286 17.4843 7.67079 17.239 7.8266L16.761 8.0876L16.587 8.6526L15.761 11.7826L15.326 13.5216H26.935C27.1449 13.5176 27.3529 13.5621 27.5428 13.6516C27.7327 13.7412 27.8994 13.8734 28.0299 14.0379C28.1603 14.2024 28.251 14.3948 28.2949 14.6001C28.3388 14.8054 28.3348 15.0181 28.283 15.2216L25.326 29.1296C25.2542 29.4429 25.0767 29.722 24.8234 29.92C24.5701 30.1179 24.2564 30.2227 23.935 30.2166H8.848V12.6996L17.761 3.9126ZM3.283 13.5216H6.066V30.2216H3.283V13.5216Z" fill="#86ED18"/>
</svg>
