<svg xmlns="http://www.w3.org/2000/svg" xmlns:xlink="http://www.w3.org/1999/xlink" width="47.996" height="48" viewBox="0 0 47.996 48"><defs><clipPath id="a"><rect width="47.996" height="48" fill="none"/></clipPath></defs><g clip-path="url(#a)"><path d="M24,48A24,24,0,1,0,0,24,24,24,0,0,0,24,48" transform="translate(0 0)" fill-rule="evenodd"/><path d="M16.468,48.854V15.5a20.324,20.324,0,0,0,0,33.358" transform="translate(-4.092 -8.175)" fill="#3d9348" fill-rule="evenodd"/><path d="M37.666,48.433h.292a20.2,20.2,0,0,0,11.461-3.641V11.429A20.212,20.212,0,0,0,37.928,7.788H37.7a20.237,20.237,0,0,0-11.5,3.641V44.788a20.217,20.217,0,0,0,11.469,3.645" transform="translate(-13.821 -4.109)" fill="#f4f4f4" fill-rule="evenodd"/><path d="M75.353,15.5V48.859a20.317,20.317,0,0,0,0-33.362" transform="translate(-39.755 -8.176)" fill="#d61e34" fill-rule="evenodd"/></g></svg>