<svg width="14" height="14" viewBox="0 0 14 14" fill="none" xmlns="http://www.w3.org/2000/svg">
<path d="M0 7.00006C0 10.8776 3.15707 14 7 14C7.54911 14 8.09822 13.9312 8.61272 13.7941V9.88239C8.13241 10.157 7.5833 10.2942 7 10.2942C5.18131 10.2942 3.70618 8.81881 3.70618 7.00006C3.70618 5.18131 5.18131 3.70597 7 3.70597C7.58372 3.70597 8.13241 3.87768 8.61272 4.11774V0.206006C8.08715 0.0658897 7.54479 -0.00336517 7.00042 0.000125662C3.15707 0.000125662 0 3.1571 0 7.00006ZM10.2942 0.823648V13.1765C12.4903 12.01 14 9.67651 14 7.00006C14 4.32362 12.524 1.99017 10.2938 0.823648H10.2942Z" fill="white"/>
</svg>
