<svg width="79" height="51" viewBox="0 0 79 51" fill="none" xmlns="http://www.w3.org/2000/svg">
<rect width="79" height="51" fill="#141414"/>
<g clip-path="url(#clip0_6_2)">
<path d="M19.6 32.1988C28.218 32.1988 35.2 26.2888 35.2 18.9988C35.2 11.7088 28.219 5.79883 19.6 5.79883C10.981 5.79883 4.00001 11.7088 4.00001 18.9988C4.02453 21.857 5.07904 24.6105 6.97001 26.7538C6.7125 27.4226 6.35327 28.0477 5.90501 28.6068C5.60284 28.9923 5.26829 29.3513 4.90501 29.6798C4.77001 29.7998 4.65701 29.8978 4.58201 29.9578C4.55593 29.9799 4.52818 30 4.49901 30.0178L4.48401 30.0328C4.28174 30.1824 4.13159 30.3918 4.05479 30.6313C3.97798 30.8709 3.97841 31.1285 4.05601 31.3678C4.1364 31.6082 4.28986 31.8175 4.49495 31.9665C4.70004 32.1155 4.94653 32.1967 5.20001 32.1988C6.7958 32.1629 8.37269 31.8453 9.85801 31.2608C10.5085 31.0157 11.1431 30.7302 11.758 30.4058C14.1994 31.5983 16.8829 32.2119 19.6 32.1988Z" fill="#2C6AF9"/>
<path opacity="0.38" d="M37.6 18.9991C37.6 27.4221 30.167 33.7671 21.362 34.5251C23.187 40.1051 29.232 44.1991 36.4 44.1991C39.1206 44.2118 41.8076 43.5983 44.253 42.4061C44.8645 42.7304 45.4957 43.0159 46.143 43.2611C47.628 43.8455 49.2046 44.163 50.8 44.1991C51.0545 44.2003 51.3028 44.1205 51.5089 43.9713C51.7151 43.8221 51.8685 43.6112 51.947 43.3691C52.0255 43.127 52.0249 42.8663 51.9455 42.6245C51.866 42.3827 51.7118 42.1725 51.505 42.0241L51.49 42.0091C51.475 41.9941 51.445 41.9791 51.407 41.9491C51.332 41.8891 51.219 41.7991 51.084 41.6711C50.7207 41.3426 50.3862 40.9836 50.084 40.5981C49.6373 40.0379 49.2782 39.4131 49.019 38.7451C50.9159 36.6053 51.9747 33.8515 52 30.9921C52 24.0321 45.632 18.3241 37.555 17.8291C37.585 18.2121 37.6 18.6021 37.6 18.9921V18.9991Z" fill="#2C6AF9"/>
</g>
<defs>
<clipPath id="clip0_6_2">
<rect width="48" height="48" fill="white" transform="translate(4 1)"/>
</clipPath>
</defs>
</svg>
