<svg xmlns="http://www.w3.org/2000/svg" width="30.946" height="28.367" viewBox="0 0 30.946 28.367">
  <path id="gesundheit-icon" d="M19.385,21.674a1.289,1.289,0,0,1-1.823,0l-6.447-6.447A1.289,1.289,0,0,1,12.937,13.4l5.535,5.535L31.194,6.218A8.4,8.4,0,0,0,25.507,4c-4.455,0-7.034,3.868-7.034,3.868S15.894,4,11.439,4A8.439,8.439,0,0,0,3,12.439c0,8.176,9.569,16,13.92,19.408l.005-.008a2.534,2.534,0,0,0,3.095,0l.005.008c4.352-3.412,13.92-11.232,13.92-19.408a8.4,8.4,0,0,0-1.126-4.2Z" transform="translate(-3 -4)" fill="#86ed18"/>
</svg>
