<svg width="50" height="51" viewBox="0 0 50 51" fill="none" xmlns="http://www.w3.org/2000/svg">
<path d="M19.411 43.7828C9.22369 43.7828 1 35.5953 1 25.452C1 15.3088 9.22369 7.12073 19.4115 7.12073C22.0076 7.12073 24.5046 7.66509 26.723 8.62073M37.3034 26.5503C37.299 28.0906 37.0579 29.6406 36.5 31.1207C36.1692 32.0347 35.7401 32.9086 35.2209 33.7274" stroke="#202020" stroke-width="2" stroke-miterlimit="10" stroke-linecap="round"/>
<path d="M19.4116 43.7825C28.9245 43.7825 33.4049 38.1002 29.6611 34.3729M29.9068 30.3398C30.3977 30.6457 31.1955 31.1341 31.0115 32.1731C30.8886 32.9062 29.3542 35.8392 26.0402 35.8392C22.7261 35.8392 18.6754 33.2728 15.1162 29.6679C11.5564 26.1237 8.97852 22.0911 8.97852 18.7916C8.97852 15.492 11.9245 13.9641 12.6611 13.8423C13.7041 13.7199 14.1344 14.4531 14.5024 14.942C14.8093 15.4309 16.7118 18.3026 17.0187 18.7304C17.3256 19.1581 17.6324 20.2578 16.5273 21.1132C15.4843 21.9687 14.3184 22.4576 18.3074 26.4296C22.3581 30.4622 22.7873 29.3013 23.6468 28.2012C24.5057 27.1627 25.6104 27.468 26.0402 27.7122C26.5316 28.14 29.4776 30.0339 29.9068 30.3398Z" stroke="#202020" stroke-width="2" stroke-miterlimit="10"/>
<path fill-rule="evenodd" clip-rule="evenodd" d="M38.3735 7.13451C38.4131 7.12664 38.4427 7.12073 38.4606 7.12073H39.2054C39.6845 7.12073 39.8971 7.12073 40.2697 7.22681C41.7597 7.43855 42.9302 8.07421 43.9415 9.08073C44.5797 9.76986 45.1119 10.5112 45.4315 11.359C45.6976 12.1007 45.8571 12.7894 45.8571 13.6372C45.8571 14.1142 45.8571 14.1672 45.9102 14.1672C45.9102 14.1672 46.0697 14.2203 46.1763 14.2203C47.5597 14.4851 48.7836 15.4916 49.3689 16.8159C49.9545 18.2994 49.7415 19.942 48.7306 21.2133C48.571 21.4786 48.1984 21.8494 47.9323 22.0081C47.4002 22.432 46.868 22.6442 46.1763 22.8029L45.9102 22.8559H38.4985V16.5596L40.2869 18.3738C40.6746 18.7671 41.3077 18.7717 41.701 18.3839C42.0944 17.9962 42.0989 17.3631 41.7112 16.9698L38.2107 13.4187C38.0227 13.228 37.7662 13.1207 37.4984 13.1207C37.2307 13.1207 36.9742 13.2281 36.7863 13.4188L33.2868 16.9699C32.8991 17.3632 32.9037 17.9964 33.2971 18.384C33.6905 18.7717 34.3236 18.7671 34.7113 18.3737L36.4985 16.5601V22.8559C29.2919 22.8557 28.8503 22.8513 28.434 22.7466C28.3761 22.732 28.3187 22.7155 28.2436 22.6968C26.8602 22.3259 25.6363 21.3194 25.051 19.9951C24.4123 18.5116 24.5189 16.7633 25.4232 15.3855C25.9554 14.5912 26.7006 13.9551 27.4984 13.5842L27.7115 13.4786V13.2133C28.031 12.2599 28.6693 11.4125 29.4676 10.882C30.0528 10.5116 30.5849 10.2994 31.2236 10.2994C31.7696 10.2488 32.3194 10.3402 32.8197 10.5646C32.9797 10.6172 33.0863 10.6703 33.0863 10.6703C33.1236 10.6703 33.1613 10.6172 33.237 10.5106C33.2681 10.4669 33.3055 10.4142 33.3519 10.3525C34.4163 8.65725 36.1723 7.4916 38.0345 7.17377C38.1764 7.17377 38.2946 7.15023 38.3735 7.13451Z" fill="#86EC16"/>
</svg>
