<svg width="78" height="48" viewBox="0 0 78 48" fill="none" xmlns="http://www.w3.org/2000/svg">
<g clip-path="url(#clip0_59_81)">
<mask id="mask0_59_81" style="mask-type:luminance" maskUnits="userSpaceOnUse" x="0" y="0" width="87" height="48">
<path d="M87 0H0V48H87V0Z" fill="white"/>
</mask>
<g mask="url(#mask0_59_81)">
<path opacity="0.38" d="M24 0C28.7468 0 33.3869 1.40758 37.3337 4.04473C41.2805 6.68188 44.3566 10.4302 46.1731 14.8156C47.9896 19.201 48.4649 24.0266 47.5388 28.6822C46.6128 33.3377 44.327 37.6141 40.9706 40.9706C37.6141 44.327 33.3377 46.6128 28.6822 47.5388C24.0266 48.4649 19.201 47.9896 14.8156 46.1731C10.4302 44.3566 6.68188 41.2805 4.04473 37.3337C1.40758 33.3869 0 28.7468 0 24C0 17.6348 2.52856 11.5303 7.02944 7.02944C11.5303 2.52856 17.6348 0 24 0ZM4.5 24C4.5 27.8567 5.64366 31.6269 7.78634 34.8336C9.92903 38.0404 12.9745 40.5397 16.5377 42.0157C20.1008 43.4916 24.0216 43.8777 27.8043 43.1253C31.5869 42.3729 35.0615 40.5157 37.7886 37.7886C40.5157 35.0615 42.3729 31.5869 43.1253 27.8043C43.8777 24.0216 43.4916 20.1008 42.0157 16.5377C40.5397 12.9745 38.0404 9.92903 34.8336 7.78634C31.6269 5.64366 27.8567 4.5 24 4.5C18.8283 4.5 13.8684 6.55446 10.2114 10.2114C6.55446 13.8684 4.5 18.8283 4.5 24Z" fill="#2C6AF9"/>
<path opacity="0.38" d="M21.75 11.25C21.75 10.6533 21.9871 10.081 22.409 9.65901C22.831 9.23705 23.4033 9 24 9C24.5967 9 25.169 9.23705 25.591 9.65901C26.0129 10.081 26.25 10.6533 26.25 11.25V22.8L34.25 28.125C34.4984 28.2878 34.7108 28.4999 34.874 28.7481C35.0372 28.9964 35.1477 29.2754 35.1987 29.5681C35.2497 29.8607 35.2401 30.1607 35.1705 30.4495C35.1009 30.7383 34.9727 31.0097 34.794 31.247C34.6417 31.4956 34.4385 31.7092 34.1977 31.8736C33.957 32.038 33.6841 32.1496 33.3971 32.201C33.1101 32.2524 32.8155 32.2424 32.5327 32.1717C32.2498 32.1011 31.9851 31.9713 31.756 31.791L22.756 25.791C22.4344 25.5992 22.1712 25.3232 21.995 24.9927C21.8187 24.6623 21.7361 24.29 21.756 23.916L21.75 11.25Z" fill="#2C6AF9"/>
<path d="M77 9H45C39.4772 9 35 13.4772 35 19V30C35 35.5228 39.4772 40 45 40H77C82.5228 40 87 35.5228 87 30V19C87 13.4772 82.5228 9 77 9Z" fill="#141414"/>
<path d="M48.4678 29.2333V28.3333L52.9678 22.5193C53.6158 21.6913 53.9398 20.9293 53.9398 20.2333C53.9398 19.7173 53.8078 19.3153 53.5438 19.0273C53.2798 18.7273 52.8958 18.5773 52.3918 18.5773C51.9358 18.5773 51.5638 18.7213 51.2758 19.0093C50.9998 19.2973 50.8258 19.7053 50.7538 20.2333L48.6658 19.8373C48.7258 18.8773 49.1098 18.0793 49.8178 17.4433C50.5378 16.8073 51.4138 16.4893 52.4458 16.4893C53.6098 16.4893 54.5278 16.8253 55.1998 17.4973C55.8718 18.1573 56.2078 19.0393 56.2078 20.1433C56.2078 21.1873 55.8478 22.1833 55.1278 23.1313L52.0498 27.1453H56.4778V29.2333H48.4678ZM62.6109 29.2333V26.8933H57.1929V25.7413L62.5029 16.6333H64.8789V24.8053H66.2829V26.8933H64.8789V29.2333H62.6109ZM59.9469 24.8053H62.6109V19.9993L59.9469 24.8053ZM68.0157 29.2333V16.4893H70.2477V21.6193C70.5477 21.1273 70.9497 20.7373 71.4537 20.4493C71.9577 20.1613 72.5157 20.0173 73.1277 20.0173C74.0157 20.0173 74.7057 20.2513 75.1977 20.7193C75.7017 21.1873 75.9537 21.8653 75.9537 22.7533V29.2333H73.7217V23.5453C73.7217 22.4653 73.2717 21.9253 72.3717 21.9253C71.7837 21.9253 71.2797 22.2313 70.8597 22.8433C70.4517 23.4433 70.2477 24.2953 70.2477 25.3993V29.2333H68.0157Z" fill="#2C6AF9"/>
</g>
</g>
<defs>
<clipPath id="clip0_59_81">
<rect width="78" height="48" fill="white"/>
</clipPath>
</defs>
</svg>
