<svg width="79" height="51" viewBox="0 0 79 51" fill="none" xmlns="http://www.w3.org/2000/svg">
<rect width="79" height="51" fill="#141414"/>
<g clip-path="url(#clip0_6_2)">
<path opacity="0.38" d="M49.351 32.025C49.6106 32.3773 49.7981 32.7772 49.903 33.202C50.0079 33.6268 50.0281 34.0681 49.9623 34.5007C49.8966 34.9333 49.7462 35.3487 49.5198 35.7232C49.2935 36.0976 48.9955 36.4238 48.643 36.683L38.093 44.458C36.1442 45.8925 33.7878 46.6662 31.368 46.666H4.667C4.31674 46.6664 3.96984 46.5977 3.64615 46.4639C3.32246 46.3301 3.02834 46.1337 2.78062 45.8861C2.5329 45.6385 2.33645 45.3444 2.2025 45.0208C2.06855 44.6971 1.99974 44.3503 2 44V38.667C1.99961 38.3167 2.06832 37.9697 2.20221 37.6459C2.3361 37.3222 2.53254 37.028 2.78027 36.7803C3.028 36.5325 3.32216 36.3361 3.64592 36.2022C3.96967 36.0683 4.31666 35.9996 4.667 36H7.733L11.475 33C13.367 31.4862 15.7189 30.6632 18.142 30.667H31.334C31.6885 30.6601 32.0408 30.724 32.3704 30.855C32.6999 30.9859 33 31.1812 33.2531 31.4295C33.5063 31.6778 33.7074 31.974 33.8447 32.301C33.9819 32.6279 34.0526 32.9789 34.0526 33.3335C34.0526 33.6881 33.9819 34.0391 33.8447 34.366C33.7074 34.693 33.5063 34.9892 33.2531 35.2375C33 35.4858 32.6999 35.6811 32.3704 35.8121C32.0408 35.943 31.6885 36.0069 31.334 36H24.667C24.3133 36 23.9742 36.1405 23.7241 36.3906C23.474 36.6407 23.3335 36.9798 23.3335 37.3335C23.3335 37.6872 23.474 38.0264 23.7241 38.2764C23.9742 38.5265 24.3133 38.667 24.667 38.667H34.717L44.692 31.317C45.0443 31.0574 45.4442 30.8699 45.869 30.765C46.2938 30.6601 46.7351 30.6399 47.1677 30.7057C47.6003 30.7714 48.0157 30.9218 48.3902 31.1482C48.7646 31.3745 49.0908 31.6725 49.35 32.025" fill="#2C6AF9"/>
<path d="M14.333 10.383C14.3329 9.12103 14.7069 7.88738 15.4078 6.83796C16.1087 5.78854 17.105 4.97046 18.2707 4.48713C19.4364 4.0038 20.7193 3.87692 21.9571 4.12253C23.1949 4.36813 24.3321 4.97519 25.225 5.86698L26 6.64198L26.775 5.86698C27.9761 4.69116 29.5926 4.03665 31.2734 4.04559C32.9543 4.05453 34.5637 4.72621 35.7522 5.91474C36.9408 7.10328 37.6125 8.71272 37.6214 10.3935C37.6303 12.0744 36.9758 13.6909 35.8 14.892L27.175 23.509C26.862 23.821 26.438 23.9962 25.996 23.9962C25.554 23.9962 25.13 23.821 24.817 23.509L16.2 14.892C15.0053 13.6958 14.3339 12.0736 14.333 10.383Z" fill="#2C6AF9"/>
</g>
<defs>
<clipPath id="clip0_6_2">
<rect width="48" height="42.667" fill="white" transform="translate(2 4)"/>
</clipPath>
</defs>
</svg>
