<svg width="70" height="70" viewBox="0 0 70 70" fill="none" xmlns="http://www.w3.org/2000/svg">
<path d="M26.2443 44.151C16.741 34.9537 12.4795 26.0849 11.5367 22.8002L9.54997 24.7229C7.83972 26.3781 7.3157 28.8689 8.46985 30.926C10.8959 35.25 15.3827 41.851 22.0018 48.2569C28.3127 54.3646 34.3248 58.6896 38.3412 61.1919C40.5202 62.5496 43.3193 62.1157 45.1518 60.3422L47.7401 57.8374C44.5346 57.1074 35.7477 53.3482 26.2443 44.151Z" fill="#86EC16"/>
<path d="M13.0052 21.3789C14.8453 19.5981 17.9247 19.965 19.2635 22.1246L24.3546 30.3364C25.2989 31.8596 25.0509 33.8093 23.7531 35.0654L20.2503 38.4553C18.4102 40.2361 15.3308 39.8692 13.992 37.7097L8.90092 29.4978C7.9566 27.9746 8.20461 26.0249 9.50246 24.7689L13.0052 21.3789Z" fill="#86EC16"/>
<path d="M49.2086 56.4162C51.0486 54.6354 50.6695 51.6551 48.4381 50.3594L39.9529 45.4323C38.3791 44.5184 36.3645 44.7585 35.0666 46.0145L31.5639 49.4044C29.7238 51.1852 30.1029 54.1655 32.3343 55.4612L40.8195 60.3883C42.3933 61.3022 44.4079 61.0621 45.7058 59.8061L49.2086 56.4162Z" fill="#86EC16"/>
<path d="M7.38086 41C9.26757 52.0295 17.9706 60.7326 29.0001 62.6194" stroke="white" stroke-width="2"/>
<path fill-rule="evenodd" clip-rule="evenodd" d="M64 21C64 24.723 62.6436 28.1293 60.3981 30.7515C60.7923 32.6055 60.9998 34.5285 60.9998 36.5C60.9998 40.5706 60.1147 44.4372 58.5256 47.9156L56.7064 47.0844C58.1788 43.8617 58.9998 40.2781 58.9998 36.5C58.9998 35.1245 58.8909 33.7744 58.6812 32.4579C56.0685 34.6677 52.6898 36 49 36C40.7157 36 34 29.2843 34 21C34 17.3101 35.3324 13.9313 37.5422 11.3186C36.2256 11.1089 34.8754 11 33.4998 11C29.2418 11 25.2302 12.0429 21.7039 13.8862L20.7773 12.1138C24.5829 10.1245 28.9115 9 33.4998 9C35.4714 9 37.3946 9.20749 39.2486 9.60181C41.8708 7.35633 45.277 6 49 6C57.2843 6 64 12.7157 64 21ZM48.999 32C42.9601 32 37.999 27.0934 37.999 21.0001C37.999 14.9612 42.9601 10.0002 48.9997 10.0002C49.8551 9.99471 50.7074 10.1035 51.5333 10.3237V16.4707C50.7785 16.0935 49.9163 15.8237 48.999 15.8237C46.1411 15.8237 43.823 18.1421 43.823 21.0001C43.823 23.8581 46.1411 26.1765 48.999 26.1765C49.9156 26.1765 50.7785 25.9611 51.5333 25.5295V31.6765C50.7248 31.8919 49.8619 32 48.999 32ZM54.1757 11.2946V11.2943H54.175C54.1752 11.2944 54.1755 11.2945 54.1757 11.2946ZM54.1757 30.7059L54.1757 11.2946C57.6799 13.1279 59.999 16.7945 59.999 21.0001C59.999 25.2059 57.6266 28.8728 54.1757 30.7059Z" fill="white"/>
</svg>
