<svg width="79" height="51" viewBox="0 0 79 51" fill="none" xmlns="http://www.w3.org/2000/svg">
<rect width="79" height="51" fill="#141414"/>
<g clip-path="url(#clip0_6_2)">
<path opacity="0.38" d="M28.249 1C34.0178 1.00053 39.5501 3.29245 43.6291 7.37166C47.7081 11.4509 49.9998 16.9833 50 22.752C50 23.3487 49.763 23.921 49.341 24.343C48.9191 24.7649 48.3468 25.002 47.75 25.002C47.1533 25.002 46.581 24.7649 46.159 24.343C45.7371 23.921 45.5 23.3487 45.5 22.752C45.5 18.1767 43.6825 13.7887 40.4474 10.5533C37.2122 7.318 32.8244 5.50027 28.249 5.5C27.6523 5.5 27.08 5.26295 26.658 4.84099C26.2361 4.41903 25.999 3.84674 25.999 3.25C25.999 2.65326 26.2361 2.08097 26.658 1.65901C27.08 1.23705 27.6523 1 28.249 1ZM29 19C29.5934 19 30.1734 19.1759 30.6667 19.5056C31.1601 19.8352 31.5446 20.3038 31.7717 20.8519C31.9987 21.4001 32.0581 22.0033 31.9424 22.5853C31.8266 23.1672 31.5409 23.7018 31.1213 24.1213C30.7018 24.5409 30.1672 24.8266 29.5853 24.9424C29.0034 25.0581 28.4002 24.9987 27.852 24.7716C27.3038 24.5446 26.8353 24.1601 26.5056 23.6667C26.176 23.1734 26 22.5933 26 22C26 21.2044 26.3161 20.4413 26.8787 19.8787C27.4413 19.3161 28.2044 19 29 19ZM26 12.25C25.9994 11.9544 26.0571 11.6616 26.1699 11.3884C26.2826 11.1152 26.4483 10.8669 26.6572 10.6579C26.8662 10.4488 27.1143 10.2831 27.3875 10.1702C27.6607 10.0573 27.9534 9.99947 28.249 10C29.9236 10 31.5818 10.3298 33.1289 10.9707C34.6759 11.6116 36.0816 12.5509 37.2657 13.735C38.4497 14.9192 39.389 16.325 40.0297 17.8721C40.6704 19.4192 41.0002 21.0774 41 22.752C41 23.3487 40.763 23.921 40.341 24.343C39.9191 24.7649 39.3468 25.002 38.75 25.002C38.1533 25.002 37.581 24.7649 37.159 24.343C36.7371 23.921 36.5 23.3487 36.5 22.752C36.5 20.564 35.6308 18.4655 34.0837 16.9184C32.5365 15.3712 30.4381 14.502 28.25 14.502C27.9544 14.5027 27.6615 14.4449 27.3882 14.3321C27.1149 14.2192 26.8666 14.0535 26.6576 13.8445C26.4485 13.6354 26.2828 13.3871 26.17 13.1138C26.0571 12.8405 25.9994 12.5477 26 12.252" fill="#2C6AF9"/>
<path d="M13.015 1.13401C13.8936 0.892677 14.83 0.980524 15.6483 1.38104C16.4667 1.78156 17.1106 2.46717 17.459 3.30901L21.209 12.309C21.5201 13.0529 21.5824 13.8774 21.3865 14.6596C21.1906 15.4418 20.747 16.1396 20.122 16.649L15.5 20.436C18.632 27.0456 23.9544 32.368 30.564 35.5L34.342 30.878C34.8517 30.2534 35.5495 29.8101 36.3316 29.6142C37.1136 29.4183 37.938 29.4804 38.682 29.791L47.682 33.541C48.5238 33.8894 49.2095 34.5333 49.61 35.3517C50.0105 36.17 50.0983 37.1065 49.857 37.985L47.607 46.235C47.3926 47.0279 46.9232 47.7281 46.2714 48.2278C45.6195 48.7275 44.8213 48.9989 44 49C32.8609 49 22.178 44.575 14.3015 36.6985C6.42499 28.822 2 18.1391 2 7.00001C2.0024 6.1778 2.27418 5.37902 2.77373 4.72596C3.27328 4.0729 3.97308 3.60153 4.766 3.38401L13.015 1.13401Z" fill="#2C6AF9"/>
</g>
<defs>
<clipPath id="clip0_6_2">
<rect width="47.998" height="48" fill="white" transform="translate(2 1)"/>
</clipPath>
</defs>
</svg>
