<svg xmlns="http://www.w3.org/2000/svg" width="28.367" height="30.946" viewBox="0 0 28.367 30.946">
  <path id="versich-icon" d="M18.183,3A66.043,66.043,0,0,0,6.078,4.337l-.005.005A2.579,2.579,0,0,0,4,6.868V14.6C4,28.012,16.922,33.616,16.922,33.616a2.568,2.568,0,0,0,2.518,0h.005s12.922-5.6,12.922-19.011V6.868a2.579,2.579,0,0,0-2.078-2.531A66.043,66.043,0,0,0,18.183,3Zm7.736,7.736a1.289,1.289,0,0,1,.912,2.2l-9.749,9.749a1.289,1.289,0,0,1-1.823,0l-4.452-4.452A1.289,1.289,0,1,1,12.63,16.41l3.541,3.541,8.837-8.837A1.285,1.285,0,0,1,25.92,10.736Z" transform="translate(-4 -3)" fill="#86ed18"/>
</svg>
