<?xml version="1.0" encoding="UTF-8" standalone="no"?>
<svg
   width="50"
   height="51"
   viewBox="0 0 50 51"
   fill="none"
   version="1.1"
   id="svg14"
   sodipodi:docname="calls-per-month-big-white.svg"
   inkscape:version="1.1 (c68e22c387, 2021-05-23)"
   xmlns:inkscape="http://www.inkscape.org/namespaces/inkscape"
   xmlns:sodipodi="http://sodipodi.sourceforge.net/DTD/sodipodi-0.dtd"
   xmlns="http://www.w3.org/2000/svg"
   xmlns:svg="http://www.w3.org/2000/svg">
  <defs
     id="defs18" />
  <sodipodi:namedview
     id="namedview16"
     pagecolor="#ffffff"
     bordercolor="#666666"
     borderopacity="1.0"
     inkscape:pageshadow="2"
     inkscape:pageopacity="0.0"
     inkscape:pagecheckerboard="0"
     showgrid="false"
     inkscape:zoom="16.313725"
     inkscape:cx="24.978966"
     inkscape:cy="20.626803"
     inkscape:window-width="1920"
     inkscape:window-height="1017"
     inkscape:window-x="-8"
     inkscape:window-y="-8"
     inkscape:window-maximized="1"
     inkscape:current-layer="svg14" />
  <path
     d="M14.8387 35.6413C7.68788 28.5911 4.48136 21.7927 3.77195 19.2747L2.27701 20.7486C0.990126 22.0174 0.595828 23.9268 1.46427 25.5036C3.28976 28.8182 6.66583 33.8782 11.6464 38.7887C16.3951 43.4706 20.9189 46.7859 23.941 48.7041C25.5806 49.7448 27.6868 49.4122 29.0657 48.0528L31.0132 46.1326C28.6012 45.5731 21.9896 42.6915 14.8387 35.6413Z"
     fill="#86EC16"
     id="path2" />
  <path
     d="M4.87693 18.1853C6.26149 16.8202 8.5786 17.1015 9.58601 18.7569L13.4168 25.0517C14.1274 26.2193 13.9407 27.7138 12.9642 28.6767L10.3285 31.2752C8.94394 32.6403 6.62684 32.3591 5.61942 30.7037L1.78863 24.4089C1.07807 23.2412 1.26469 21.7467 2.24126 20.7839L4.87693 18.1853Z"
     fill="#86EC16"
     id="path4" />
  <path
     d="M32.1182 45.0432C33.5028 43.6781 33.2175 41.3936 31.5385 40.4004L25.1538 36.6235C23.9695 35.9229 22.4536 36.1069 21.4771 37.0698L18.8414 39.6683C17.4568 41.0334 17.7421 43.3179 19.4211 44.3111L25.8058 48.088C26.9901 48.7886 28.506 48.6046 29.4825 47.6418L32.1182 45.0432Z"
     fill="#86EC16"
     id="path6" />
  <rect
     x="24"
     y="17.3159"
     width="8"
     height="12"
     stroke="white"
     stroke-width="2"
     id="rect8" />
  <rect
     x="32"
     y="2.31592"
     width="8"
     height="27"
     stroke="white"
     stroke-width="2"
     id="rect10" />
  <rect
     x="40"
     y="10.3159"
     width="8"
     height="19"
     stroke="white"
     stroke-width="2"
     id="rect12" />
</svg>
