<svg width="70" height="70" viewBox="0 0 70 70" fill="none" xmlns="http://www.w3.org/2000/svg">
<path d="M53.4845 42.087L63.248 35.9219L53.0272 30.549L53.4845 42.087ZM40.1462 13C49.535 13 57.1462 20.6112 57.1462 30H59.1462C59.1462 19.5066 50.6396 11 40.1462 11V13ZM57.1462 30C57.1462 31.3404 56.9913 32.6433 56.6988 33.8923L58.6461 34.3484C58.9733 32.9509 59.1462 31.495 59.1462 30H57.1462ZM27.9138 18.1945C31.0066 14.9906 35.3431 13 40.1462 13V11C34.7783 11 29.929 13.2273 26.4749 16.8055L27.9138 18.1945Z" fill="black"/>
<path d="M40.1465 17V30L48 36.5" stroke="black" stroke-width="2"/>
<path d="M28.8927 42.77C18.6133 32.8557 14.004 23.2954 12.9842 19.7546L10.8352 21.8272C8.98532 23.6115 8.41851 26.2965 9.66689 28.514C12.291 33.1751 17.1441 40.2907 24.3037 47.1961C31.13 53.7799 37.6329 58.4422 41.9772 61.1396C44.3342 62.6031 47.3618 62.1354 49.3439 60.2237L52.1435 57.5235C48.6763 56.7366 39.172 52.6843 28.8927 42.77Z" fill="#86EC16"/>
<path d="M14.5726 18.2226C16.5629 16.3029 19.8937 16.6984 21.3419 19.0263L26.8487 27.8784C27.8701 29.5204 27.6018 31.6221 26.198 32.9761L22.4092 36.6303C20.4189 38.5499 17.0881 38.1545 15.6399 35.8265L10.1332 26.9744C9.11174 25.3325 9.38 23.2308 10.7838 21.8768L14.5726 18.2226Z" fill="#86EC16"/>
<path d="M53.7319 55.9915C55.7223 54.0718 55.3122 50.8593 52.8986 49.4625L43.7206 44.1513C42.0182 43.1661 39.8391 43.4249 38.4353 44.7788L34.6465 48.4331C32.6562 50.3527 33.0663 53.5653 35.4799 54.962L44.6579 60.2733C46.3603 61.2584 48.5393 60.9997 49.9432 59.6457L53.7319 55.9915Z" fill="#86EC16"/>
</svg>
