<svg width="70" height="70" viewBox="0 0 70 70" fill="none" xmlns="http://www.w3.org/2000/svg">
<path d="M34.7323 11.1025C46.6568 11.018 55.0578 14.0341 57.7678 15.5527L57.7854 13.0598C57.8007 10.9138 56.5285 8.97946 54.4752 8.38461C50.1591 7.13423 43.0754 5.72026 34.7701 5.77912C26.8513 5.83524 20.2688 6.84991 16.1205 7.77691C13.8699 8.27984 12.3806 10.3276 12.3643 12.627L12.3413 15.8746C14.8364 14.3191 22.8079 11.187 34.7323 11.1025Z" fill="#86EC16"/>
<path d="M57.7547 17.3953C57.7384 19.7042 55.5566 21.4137 53.3206 20.8695L44.8182 18.8005C43.2412 18.4167 42.1429 17.0051 42.1545 15.3766L42.1856 10.9815C42.202 8.67261 44.3838 6.96311 46.6197 7.50722L55.1221 9.57625C56.6992 9.96002 57.7974 11.3717 57.7859 13.0002L57.7547 17.3953Z" fill="#86EC16"/>
<path d="M12.3282 17.7172C12.3119 20.0261 14.4696 21.7048 16.7135 21.129L25.2461 18.9392C26.8287 18.5331 27.9471 17.1057 27.9587 15.4772L27.9898 11.0821C28.0062 8.77321 25.8484 7.09447 23.6045 7.67032L15.072 9.86007C13.4893 10.2662 12.3709 11.6936 12.3594 13.3221L12.3282 17.7172Z" fill="#86EC16"/>
<path d="M49.0115 28H20L26.1077 46.253L20 63.2685H49.0115L42.9038 46.253L49.0115 28Z" stroke="black" stroke-width="2"/>
<path fill-rule="evenodd" clip-rule="evenodd" d="M35.575 44.7062H40.4612L41.9882 40.375H26.4136L28.2459 44.7062H33.7422V51.5123H27.3292L24.2754 60.1748H44.7361L41.0715 51.5123H35.575V44.7062Z" fill="#86EC16"/>
</svg>
