<svg xmlns="http://www.w3.org/2000/svg" xmlns:xlink="http://www.w3.org/1999/xlink" width="48.003" height="48" viewBox="0 0 48.003 48"><defs><clipPath id="a"><rect width="48.003" height="48" fill="none"/></clipPath></defs><g clip-path="url(#a)"><path d="M24,48A24,24,0,1,0,0,24,24,24,0,0,0,24,48" transform="translate(0 0)" fill-rule="evenodd"/><path d="M10.228,21.335H48.56a20.341,20.341,0,0,0-19.1-13.547h-.123a20.341,20.341,0,0,0-19.1,13.547" transform="translate(-5.396 -4.109)" fill="#000101" fill-rule="evenodd"/><path d="M8.933,50.015H47.265a20.371,20.371,0,0,0,0-13.551H8.933a20.371,20.371,0,0,0,0,13.551" transform="translate(-4.101 -19.238)" fill="#df1e26" fill-rule="evenodd"/><path d="M29.017,78.7h.754A20.334,20.334,0,0,0,48.56,65.149H10.228A20.334,20.334,0,0,0,29.017,78.7" transform="translate(-5.396 -34.371)" fill="#f6d92a" fill-rule="evenodd"/></g></svg>