<svg xmlns="http://www.w3.org/2000/svg" width="32" height="29.715" viewBox="0 0 32 29.715">
  <g id="proaktive-icon" transform="translate(-44.23 -7441)">
    <path id="icons8-messages" d="M20,6C11.258,6,4,11.877,4,19.286c0,4.7,3.052,9.066,7.847,11.429t0,0c.017.008.014-.006.006.018a15.033,15.033,0,0,1-1.624,3.025.762.762,0,0,0,.853,1.159,13.063,13.063,0,0,0,4.946-2.763h0a18.9,18.9,0,0,0,2.107.32,11.025,11.025,0,0,0,7.076,2.47,11.785,11.785,0,0,0,2.664-.308,9.121,9.121,0,0,0,2.464,1.037.762.762,0,0,0,.891-1.128,6.9,6.9,0,0,1-.586-.966A8.139,8.139,0,0,0,35.2,26.567a7.136,7.136,0,0,0-.381-2.272A11.324,11.324,0,0,0,36,19.286C36,11.877,28.742,6,20,6Zm0,1.524c8.063,0,14.476,5.359,14.476,11.762a9.644,9.644,0,0,1-.554,3.185,10.452,10.452,0,0,0-8.71-4.28c-5.427,0-9.985,3.677-9.985,8.376a7.312,7.312,0,0,0,1.3,4.131c-.062-.013-.126-.021-.187-.034h0a1.544,1.544,0,0,0-.312-.033,1.519,1.519,0,0,0-1.054.432h0a10.517,10.517,0,0,1-2.424,1.565A12.988,12.988,0,0,0,13.3,31.2a1.553,1.553,0,0,0-.784-1.851c-4.36-2.148-7-6.019-7-10.063C5.524,12.883,11.937,7.524,20,7.524Zm5.213,12.19c4.745,0,8.461,3.154,8.461,6.853a6.6,6.6,0,0,1-3.8,5.705h0a1.405,1.405,0,0,0-.674,1.3,4.323,4.323,0,0,1-.476-.192h0a1.444,1.444,0,0,0-1.17-.229,10.262,10.262,0,0,1-2.338.271c-4.745,0-8.461-3.156-8.461-6.854S20.468,19.714,25.213,19.714ZM21.3,25.091A1.505,1.505,0,1,0,22.8,26.6,1.505,1.505,0,0,0,21.3,25.091Zm4.216,0A1.505,1.505,0,1,0,27.019,26.6a1.505,1.505,0,0,0-1.506-1.505Zm4.216,0A1.505,1.505,0,1,0,31.235,26.6a1.505,1.505,0,0,0-1.506-1.505Z" transform="translate(40.23 7435)" fill="#86ed18"/>
  </g>
</svg>
