<svg width="79" height="51" viewBox="0 0 79 51" fill="none" xmlns="http://www.w3.org/2000/svg">
<rect width="79" height="51" fill="#141414"/>
<g clip-path="url(#clip0_6_2)">
<path d="M33.6 33C35.1822 33 36.7289 32.5308 38.0445 31.6518C39.3601 30.7727 40.3855 29.5233 40.991 28.0615C41.5965 26.5997 41.7549 24.9911 41.4463 23.4393C41.1376 21.8874 40.3757 20.462 39.2568 19.3431C38.138 18.2243 36.7125 17.4624 35.1607 17.1537C33.6088 16.845 32.0003 17.0035 30.5385 17.609C29.0767 18.2145 27.8273 19.2398 26.9482 20.5554C26.0692 21.871 25.6 23.4178 25.6 25C25.6 27.1217 26.4428 29.1566 27.9431 30.6569C29.4434 32.1571 31.4782 33 33.6 33Z" fill="#2C6AF9"/>
<path opacity="0.38" d="M34 14.333C35.4094 14.3194 36.8076 14.5852 38.1137 15.1151C39.4198 15.645 40.6079 16.4285 41.6094 17.4204C42.6109 18.4122 43.4059 19.5927 43.9484 20.8936C44.4909 22.1945 44.7703 23.59 44.7703 24.9995C44.7703 26.409 44.4909 27.8045 43.9484 29.1054C43.4059 30.4063 42.6109 31.5868 41.6094 32.5786C40.6079 33.5705 39.4198 34.354 38.1137 34.8839C36.8076 35.4138 35.4094 35.6796 34 35.666H18C15.189 35.6388 12.5023 34.503 10.5241 32.5056C8.54599 30.5082 7.43628 27.8107 7.43628 24.9995C7.43628 22.1883 8.54599 19.4908 10.5241 17.4934C12.5023 15.496 15.189 14.3602 18 14.333H34ZM50 25C50 20.7565 48.3143 16.6869 45.3137 13.6863C42.3131 10.6857 38.2435 9 34 9H18C13.7565 9 9.68687 10.6857 6.68629 13.6863C3.68571 16.6869 2 20.7565 2 25C2 29.2435 3.68571 33.3131 6.68629 36.3137C9.68687 39.3143 13.7565 41 18 41H34C38.2435 41 42.3131 39.3143 45.3137 36.3137C48.3143 33.3131 50 29.2435 50 25Z" fill="#2C6AF9"/>
</g>
<defs>
<clipPath id="clip0_6_2">
<rect width="48" height="48" fill="white" transform="translate(2 1)"/>
</clipPath>
</defs>
</svg>
