<svg xmlns="http://www.w3.org/2000/svg" xmlns:xlink="http://www.w3.org/1999/xlink" width="48.006" height="48" viewBox="0 0 48.006 48"><defs><clipPath id="a"><rect width="48.006" height="48" fill="none"/></clipPath></defs><g clip-path="url(#a)"><path d="M24,48A24,24,0,1,0,0,24,24,24,0,0,0,24,48" transform="translate(0 0)" fill-rule="evenodd"/><path d="M27.777,48.418h.638a20.324,20.324,0,1,0-.638,0" transform="translate(-4.1 -4.101)" fill="#d1202a" fill-rule="evenodd"/><path d="M13.58,29.286a10.159,10.159,0,1,1-3.419,19.727,20.329,20.329,0,0,1,.007-19.139,10.1,10.1,0,0,1,3.411-.588" transform="translate(-4.1 -15.45)" fill="#fff" fill-rule="evenodd"/><path d="M16.357,33.578a8.13,8.13,0,1,1-8.128,8.133,8.133,8.133,0,0,1,8.128-8.133" transform="translate(-4.341 -17.715)" fill="#d1202a" fill-rule="evenodd"/><path d="M38.246,49.844l4.825,1.57L43.854,49Z" transform="translate(-20.177 -25.848)" fill="#fff" fill-rule="evenodd"/><path d="M38.246,49.038l4.825-1.571.783,2.416Z" transform="translate(-20.177 -25.042)" fill="#fff" fill-rule="evenodd"/><path d="M45.677,40.564v5.078h2.535Z" transform="translate(-24.097 -21.4)" fill="#fff" fill-rule="evenodd"/><path d="M45.677,40.564l2.981,4.11-2.051,1.494Z" transform="translate(-24.097 -21.4)" fill="#fff" fill-rule="evenodd"/><path d="M45.677,54.762l2.981-4.11-2.051-1.494Z" transform="translate(-24.097 -25.934)" fill="#fff" fill-rule="evenodd"/><path d="M45.677,55.345V50.263h2.535Z" transform="translate(-24.097 -26.517)" fill="#fff" fill-rule="evenodd"/><path d="M52.3,44.466l-4.832,1.57.783,2.417Z" transform="translate(-25.042 -23.459)" fill="#fff" fill-rule="evenodd"/><path d="M52.066,44.466l-2.988,4.11-2.051-1.49Z" transform="translate(-24.809 -23.459)" fill="#fff" fill-rule="evenodd"/><path d="M52.066,52.52l-2.988-4.11L47.026,49.9Z" transform="translate(-24.809 -25.539)" fill="#fff" fill-rule="evenodd"/><path d="M52.3,52.66l-4.832-1.567.783-2.417Z" transform="translate(-25.042 -25.68)" fill="#fff" fill-rule="evenodd"/></g></svg>