<svg width="79" height="51" viewBox="0 0 79 51" fill="none" xmlns="http://www.w3.org/2000/svg">
<rect width="79" height="51" fill="#141414"/>
<g clip-path="url(#clip0_6_2)">
<path d="M35 25.5C35 24.9067 35.1759 24.3266 35.5056 23.8333C35.8352 23.3399 36.3038 22.9554 36.8519 22.7284C37.4001 22.5013 38.0033 22.4419 38.5853 22.5576C39.1672 22.6734 39.7018 22.9591 40.1213 23.3787C40.5409 23.7982 40.8266 24.3328 40.9424 24.9147C41.0581 25.4967 40.9987 26.0999 40.7716 26.6481C40.5446 27.1962 40.1601 27.6648 39.6667 27.9944C39.1734 28.3241 38.5933 28.5 38 28.5C37.2044 28.5 36.4413 28.1839 35.8787 27.6213C35.3161 27.0587 35 26.2957 35 25.5ZM38 18C36.5406 17.9985 35.1125 18.4236 33.8916 19.2231C32.6706 20.0226 31.71 21.1616 31.128 22.5H8C7.20435 22.5 6.44129 22.8161 5.87868 23.3787C5.31607 23.9413 5 24.7044 5 25.5C5 26.2957 5.31607 27.0587 5.87868 27.6213C6.44129 28.1839 7.20435 28.5 8 28.5H31.128C31.7122 29.8364 32.6735 30.9735 33.894 31.772C35.1146 32.5705 36.5415 32.9957 38 32.9957C39.4585 32.9957 40.8854 32.5705 42.106 31.772C43.3265 30.9735 44.2878 29.8364 44.872 28.5H50C50.7956 28.5 51.5587 28.1839 52.1213 27.6213C52.6839 27.0587 53 26.2957 53 25.5C53 24.7044 52.6839 23.9413 52.1213 23.3787C51.5587 22.8161 50.7956 22.5 50 22.5H44.872C44.29 21.1616 43.3294 20.0226 42.1084 19.2231C40.8875 18.4236 39.4594 17.9985 38 18Z" fill="#2C6AF9"/>
<path opacity="0.38" d="M5 40.4999C5 41.2955 5.31607 42.0586 5.87868 42.6212C6.44129 43.1838 7.20435 43.4999 8 43.4999H13.128C13.7122 44.8363 14.6735 45.9733 15.894 46.7718C17.1146 47.5703 18.5415 47.9956 20 47.9956C21.4585 47.9956 22.8854 47.5703 24.106 46.7718C25.3265 45.9733 26.2878 44.8363 26.872 43.4999H50C50.7956 43.4999 51.5587 43.1838 52.1213 42.6212C52.6839 42.0586 53 41.2955 53 40.4999C53 39.7042 52.6839 38.9412 52.1213 38.3786C51.5587 37.816 50.7956 37.4999 50 37.4999H26.872C26.2878 36.1635 25.3265 35.0264 24.106 34.2279C22.8854 33.4294 21.4585 33.0042 20 33.0042C18.5415 33.0042 17.1146 33.4294 15.894 34.2279C14.6735 35.0264 13.7122 36.1635 13.128 37.4999H8C7.20435 37.4999 6.44129 37.816 5.87868 38.3786C5.31607 38.9412 5 39.7042 5 40.4999ZM17 40.4999C17 39.9065 17.1759 39.3265 17.5056 38.8332C17.8352 38.3398 18.3038 37.9553 18.8519 37.7282C19.4001 37.5012 20.0033 37.4418 20.5853 37.5575C21.1672 37.6733 21.7018 37.959 22.1213 38.3786C22.5409 38.7981 22.8266 39.3327 22.9424 39.9146C23.0581 40.4966 22.9987 41.0998 22.7716 41.6479C22.5446 42.1961 22.1601 42.6646 21.6667 42.9943C21.1734 43.3239 20.5933 43.4999 20 43.4999C19.2044 43.4999 18.4413 43.1838 17.8787 42.6212C17.3161 42.0586 17 41.2955 17 40.4999ZM23 13.4999C22.4067 13.4999 21.8266 13.3239 21.3333 12.9943C20.8399 12.6646 20.4554 12.1961 20.2284 11.6479C20.0013 11.0998 19.9419 10.4966 20.0576 9.91461C20.1734 9.33267 20.4591 8.79812 20.8787 8.37856C21.2982 7.95901 21.8328 7.67328 22.4147 7.55753C22.9967 7.44177 23.5999 7.50118 24.1481 7.72825C24.6962 7.95531 25.1648 8.33983 25.4944 8.83317C25.8241 9.32652 26 9.90654 26 10.4999C26 11.2955 25.6839 12.0586 25.1213 12.6212C24.5587 13.1838 23.7956 13.4999 23 13.4999ZM29.872 7.49988C29.2878 6.16348 28.3265 5.02642 27.106 4.22793C25.8854 3.42943 24.4585 3.00415 23 3.00415C21.5415 3.00415 20.1146 3.42943 18.894 4.22793C17.6735 5.02642 16.7122 6.16348 16.128 7.49988H8C7.20435 7.49988 6.44129 7.81595 5.87868 8.37856C5.31607 8.94117 5 9.70423 5 10.4999C5 11.2955 5.31607 12.0586 5.87868 12.6212C6.44129 13.1838 7.20435 13.4999 8 13.4999H16.128C16.7122 14.8363 17.6735 15.9733 18.894 16.7718C20.1146 17.5703 21.5415 17.9956 23 17.9956C24.4585 17.9956 25.8854 17.5703 27.106 16.7718C28.3265 15.9733 29.2878 14.8363 29.872 13.4999H50C50.7956 13.4999 51.5587 13.1838 52.1213 12.6212C52.6839 12.0586 53 11.2955 53 10.4999C53 9.70423 52.6839 8.94117 52.1213 8.37856C51.5587 7.81595 50.7956 7.49988 50 7.49988H29.872Z" fill="#2C6AF9"/>
</g>
<defs>
<clipPath id="clip0_6_2">
<rect width="48" height="45" fill="white" transform="translate(5 3)"/>
</clipPath>
</defs>
</svg>
