<svg width="79" height="51" viewBox="0 0 79 51" fill="none" xmlns="http://www.w3.org/2000/svg">
<rect width="79" height="51" fill="#141414"/>
<g clip-path="url(#clip0_6_2)">
<path opacity="0.38" d="M43.342 5.66697C43.7398 5.5019 44.1776 5.45836 44.6001 5.54182C45.0226 5.62529 45.4109 5.83204 45.716 6.13597L50.069 10.489C50.2717 10.6904 50.4325 10.93 50.5423 11.1939C50.652 11.4577 50.7085 11.7407 50.7085 12.0265C50.7085 12.3122 50.652 12.5952 50.5423 12.8591C50.4325 13.1229 50.2717 13.3625 50.069 13.564L45.716 17.917C45.4106 18.2209 45.022 18.4275 44.5993 18.5109C44.1766 18.5943 43.7387 18.5507 43.3408 18.3856C42.9428 18.2204 42.6026 17.9412 42.3632 17.583C42.1237 17.2249 41.9956 16.8038 41.995 16.373V14.211H39.819C39.4809 14.2099 39.1473 14.2882 38.8449 14.4394C38.5426 14.5907 38.2799 14.8108 38.078 15.082L35.194 18.925L32.475 15.301L34.597 12.471C35.205 11.6596 35.9936 11.0011 36.9004 10.5477C37.8072 10.0943 38.8072 9.8585 39.821 9.85897H41.995V7.68097C41.9958 7.24982 42.1241 6.82854 42.3638 6.47016C42.6035 6.11178 42.9438 5.83232 43.342 5.66697ZM27.031 22.557L29.752 26.183L27.63 29.013C27.022 29.8244 26.2332 30.483 25.3262 30.9364C24.4192 31.3898 23.419 31.6256 22.405 31.625H18.052C17.4829 31.6128 16.9411 31.3781 16.5429 30.9713C16.1447 30.5644 15.9217 30.0178 15.9217 29.4485C15.9217 28.8792 16.1447 28.3325 16.5429 27.9257C16.9411 27.5188 17.4829 27.2842 18.052 27.272H22.405C22.7431 27.273 23.0767 27.1948 23.3791 27.0435C23.6815 26.8922 23.9441 26.6722 24.146 26.401L27.031 22.557ZM45.709 35.345C45.4035 35.6485 45.0151 35.8549 44.5925 35.9381C44.17 36.0213 43.7323 35.9776 43.3346 35.8125C42.9368 35.6474 42.5968 35.3683 42.3574 35.0104C42.1179 34.6524 41.9898 34.2316 41.989 33.801V31.625H39.819C38.8052 31.6254 37.8052 31.3896 36.8984 30.9362C35.9916 30.4828 35.203 29.8243 34.595 29.013L24.146 15.082C23.9441 14.8108 23.6815 14.5907 23.3791 14.4394C23.0767 14.2882 22.7431 14.2099 22.405 14.211H18.052C17.7623 14.2172 17.4742 14.1655 17.2047 14.0589C16.9352 13.9523 16.6897 13.793 16.4826 13.5902C16.2755 13.3875 16.1109 13.1455 15.9986 12.8783C15.8862 12.6112 15.8284 12.3243 15.8284 12.0345C15.8284 11.7447 15.8862 11.4578 15.9986 11.1906C16.1109 10.9234 16.2755 10.6814 16.4826 10.4787C16.6897 10.276 16.9352 10.1166 17.2047 10.0101C17.4742 9.90346 17.7623 9.85176 18.052 9.85797H22.405C23.4189 9.8575 24.4188 10.0933 25.3256 10.5467C26.2324 11.0001 27.0211 11.6586 27.629 12.47L38.075 26.401C38.2769 26.6722 38.5396 26.8922 38.8419 27.0435C39.1443 27.1948 39.4779 27.273 39.816 27.272H41.995V25.094C41.9956 24.6631 42.1237 24.2421 42.3632 23.8839C42.6026 23.5258 42.9428 23.2465 43.3408 23.0814C43.7387 22.9163 44.1766 22.8726 44.5993 22.956C45.022 23.0394 45.4106 23.2461 45.716 23.55L50.07 27.901C50.2727 28.1024 50.4335 28.342 50.5433 28.6059C50.653 28.8697 50.7095 29.1527 50.7095 29.4385C50.7095 29.7242 50.653 30.0072 50.5433 30.2711C50.4335 30.5349 50.2727 30.7745 50.07 30.976L45.717 35.329L45.709 35.345Z" fill="#2C6AF9"/>
<path d="M20.5 5.5C19.8369 5.5 19.201 5.76339 18.7322 6.23223C18.2634 6.70107 18 7.33696 18 8V9.5C15.1771 10.0774 12.6401 11.6118 10.8181 13.8438C8.99597 16.0759 8.00051 18.8687 7.99997 21.75V23.219C7.99718 26.8935 6.64897 30.4397 4.20997 33.188L3.63197 33.836C3.31083 34.1961 3.10074 34.6414 3.02706 35.1182C2.95339 35.5951 3.01926 36.083 3.21675 36.5233C3.41424 36.9635 3.7349 37.3372 4.14003 37.5992C4.54517 37.8612 5.01748 38.0004 5.49997 38H35.5C35.9824 38.0002 36.4546 37.8609 36.8595 37.5988C37.2645 37.3367 37.585 36.963 37.7824 36.5228C37.9798 36.0826 38.0456 35.5947 37.9718 35.118C37.8981 34.6413 37.6881 34.196 37.367 33.836L36.789 33.188C34.3491 30.4403 33.0011 26.8936 33 23.219V21.75C32.9994 18.8687 32.004 16.0759 30.1819 13.8438C28.3598 11.6118 25.8229 10.0774 23 9.5V8C23 7.33696 22.7366 6.70107 22.2677 6.23223C21.7989 5.76339 21.163 5.5 20.5 5.5ZM24.039 44.039C24.5031 43.574 24.8709 43.0221 25.1216 42.4149C25.3723 41.8076 25.5009 41.157 25.5 40.5H15.5C15.4986 41.4899 15.7911 42.458 16.3404 43.2815C16.8897 44.105 17.6711 44.7469 18.5856 45.1259C19.5001 45.505 20.5065 45.604 21.4773 45.4105C22.4482 45.217 23.3397 44.7397 24.039 44.039Z" fill="#2C6AF9"/>
</g>
<defs>
<clipPath id="clip0_6_2">
<rect width="48" height="48" fill="white" transform="translate(3 1.5)"/>
</clipPath>
</defs>
</svg>
