<svg width="158" height="88" viewBox="0 0 158 88" fill="none" xmlns="http://www.w3.org/2000/svg">
<circle cx="44" cy="44" r="44" fill="url(#paint0_linear)"/>
<path d="M26 44.0002C26 53.971 34.1182 62 44 62C45.412 62 46.824 61.8232 48.147 61.4706V51.4119C46.9119 52.1181 45.4999 52.4707 44 52.4707C39.3234 52.4707 35.5302 48.6769 35.5302 44.0002C35.5302 39.3234 39.3234 35.5296 44 35.5296C45.501 35.5296 46.9119 35.9712 48.147 36.5885V26.5297C46.7955 26.1694 45.4009 25.9913 44.0011 26.0003C34.1182 26.0003 26 34.1182 26 44.0002ZM52.4709 28.118V59.8824C58.1178 56.8828 62 50.8825 62 44.0002C62 37.1179 58.2047 31.1176 52.4698 28.118H52.4709Z" fill="white"/>
<path fill-rule="evenodd" clip-rule="evenodd" d="M114 4C136.091 4 154 21.9086 154 44C154 66.0914 136.091 84 114 84C91.9086 84 74 66.0914 74 44C74 41.9242 74.158 39.8861 74.4624 37.8969C76.4852 37.4561 78 35.655 78 33.5C78 31.0147 75.9853 29 73.5 29C73.4101 29 73.3209 29.0026 73.2323 29.0078L72.6932 28.8095C72.6586 28.9035 72.6243 28.9977 72.5904 29.092C70.5411 29.5126 69 31.3263 69 33.5C69 34.8652 69.608 36.0885 70.5679 36.9137C70.1942 39.2214 70 41.5885 70 44C70 68.3005 89.6995 88 114 88C138.301 88 158 68.3005 158 44C158 19.6995 138.301 0 114 0V4Z" fill="url(#paint1_linear)"/>
<path fill-rule="evenodd" clip-rule="evenodd" d="M81.402 67.1867C80.6563 68.387 79.8544 69.5488 79 70.6684C87.0389 81.2027 99.7257 88 114 88C138.301 88 158 68.3005 158 44C158 19.6995 138.301 0 114 0C104.033 0 94.834 3.31671 87.4557 8.90576C84.271 11.3182 81.4244 14.1549 79.0002 17.3318C79.8544 18.4512 80.6562 19.6129 81.4018 20.813C83.7662 17.4951 86.6249 14.5532 89.871 12.0942C96.5783 7.01345 104.934 4 114 4C136.091 4 154 21.9086 154 44C154 66.0914 136.091 84 114 84C100.552 84 88.6536 77.3634 81.402 67.1867Z" fill="url(#paint2_linear)"/>
<path fill-rule="evenodd" clip-rule="evenodd" d="M104.234 32.4427C104.751 29.3033 107.465 27 110.647 27H118.222C121.404 27 124.118 29.3033 124.635 32.4427L124.961 34.4203H128.431C131.192 34.4203 133.431 36.6589 133.431 39.4203V55.3777C133.431 58.1391 131.192 60.3777 128.431 60.3777H100C97.2386 60.3777 95 58.1391 95 55.3777V39.4203C95 36.6589 97.2386 34.4203 100 34.4203H103.908L104.234 32.4427ZM121.675 32.9307L121.921 34.4203H106.948L107.194 32.9307C107.472 31.2402 108.934 30 110.647 30H118.222C119.935 30 121.396 31.2402 121.675 32.9307ZM99.7096 37.4412L102.219 42.1244C103.698 44.8866 106.578 46.6106 109.711 46.6106H109.938V45.2402C109.938 43.8594 111.057 42.7402 112.438 42.7402H116.675C118.055 42.7402 119.175 43.8594 119.175 45.2402V46.5711C121.984 46.2997 124.499 44.6439 125.848 42.1244L128.368 37.4203H100C99.9014 37.4203 99.8044 37.4274 99.7096 37.4412ZM130.431 39.9234L128.493 43.5411C126.62 47.036 123.092 49.3025 119.175 49.5815V50.7468C119.175 52.1275 118.055 53.2468 116.675 53.2468H112.438C111.057 53.2468 109.938 52.1275 109.938 50.7468V49.6106H109.711C105.472 49.6106 101.576 47.2781 99.5741 43.5411L98 40.6028V55.3777C98 56.4822 98.8954 57.3777 100 57.3777H128.431C129.535 57.3777 130.431 56.4822 130.431 55.3777V39.9234ZM112.938 45.7402V50.2468H116.175V45.7402H112.938Z" fill="url(#paint3_linear)"/>
<defs>
<linearGradient id="paint0_linear" x1="44" y1="0" x2="44" y2="88" gradientUnits="userSpaceOnUse">
<stop stop-color="#AAEA39"/>
<stop offset="1" stop-color="#86EC16"/>
</linearGradient>
<linearGradient id="paint1_linear" x1="113.5" y1="0" x2="113.5" y2="88" gradientUnits="userSpaceOnUse">
<stop stop-color="#9BA3A2"/>
<stop offset="1" stop-color="#626A69"/>
</linearGradient>
<linearGradient id="paint2_linear" x1="118.5" y1="0" x2="118.5" y2="88" gradientUnits="userSpaceOnUse">
<stop stop-color="#9BA3A2"/>
<stop offset="1" stop-color="#626A69"/>
</linearGradient>
<linearGradient id="paint3_linear" x1="114.215" y1="27" x2="114.215" y2="60.3777" gradientUnits="userSpaceOnUse">
<stop stop-color="#9BA3A2"/>
<stop offset="1" stop-color="#626A69"/>
</linearGradient>
</defs>
</svg>
