<svg width="14" height="15" viewBox="0 0 14 15" fill="none" xmlns="http://www.w3.org/2000/svg">
<path d="M0 7.50006C0 11.3776 3.15707 14.5 7 14.5C7.54911 14.5 8.09822 14.4312 8.61272 14.2941V10.3824C8.13241 10.657 7.5833 10.7942 7 10.7942C5.18131 10.7942 3.70618 9.31881 3.70618 7.50006C3.70618 5.68131 5.18131 4.20597 7 4.20597C7.58372 4.20597 8.13241 4.37768 8.61272 4.61774V0.706006C8.08715 0.56589 7.54479 0.496635 7.00042 0.500126C3.15707 0.500126 0 3.6571 0 7.50006ZM10.2942 1.32365V13.6765C12.4903 12.51 14 10.1765 14 7.50006C14 4.82362 12.524 2.49017 10.2938 1.32365H10.2942Z" fill="black" fill-opacity="0.7"/>
</svg>
