<svg width="45" height="45" viewBox="0 0 45 45" fill="none" xmlns="http://www.w3.org/2000/svg">
<path d="M40.795 15.9601C39.3048 5.79428 29.8977 -1.29381 19.7455 0.198417C11.5493 1.41085 5.2158 7.75283 4.00499 15.9601C1.67651 16.2399 0 18.1984 0 20.5301V28.9238C0 31.5352 2.04906 33.5871 4.65696 33.5871H8.38254C9.40707 33.5871 10.2453 32.7477 10.2453 31.7218V17.7321C10.2453 16.7062 9.40707 15.8668 8.38254 15.8668H7.73056C9.31393 7.75283 17.1376 2.43676 25.1476 4.02226C31.1085 5.14143 35.8586 9.89791 36.9763 15.8668H36.3243C35.2998 15.8668 34.4615 16.7062 34.4615 17.7321V31.7218C34.4615 32.7477 35.2998 33.5871 36.3243 33.5871H37.2557C36.79 36.8513 33.9958 39.1829 30.736 39.1829H27.4761C26.4516 37.4109 24.1231 36.7581 22.3534 37.784C20.5838 38.8099 19.9318 41.1415 20.9563 42.9135C21.9809 44.6855 24.3094 45.3384 26.079 44.3125C26.6378 43.9394 27.1035 43.4731 27.4761 42.9135H30.736C36.0449 42.9135 40.5156 38.8099 41.0744 33.4938C43.2166 33.0275 44.8 31.1622 44.8 28.9238V20.5301C44.7069 18.2917 43.0304 16.3332 40.795 15.9601Z" fill="url(#paint0_linear)"/>
<defs>
<linearGradient id="paint0_linear" x1="22.4" y1="0" x2="22.4" y2="44.8" gradientUnits="userSpaceOnUse">
<stop stop-color="#9BA3A2"/>
<stop offset="1" stop-color="#626A69"/>
</linearGradient>
</defs>
</svg>
