<svg xmlns="http://www.w3.org/2000/svg" xmlns:xlink="http://www.w3.org/1999/xlink" width="48" height="48" viewBox="0 0 48 48"><defs><clipPath id="a"><rect width="48" height="48" fill="none"/></clipPath></defs><g clip-path="url(#a)"><path d="M24,48A24,24,0,1,0,0,24,24,24,0,0,0,24,48" transform="translate(0 0)" fill-rule="evenodd"/><path d="M16.484,48.862V15.505a20.321,20.321,0,0,0,0,33.357" transform="translate(-4.1 -8.18)" fill="#334094" fill-rule="evenodd"/><path d="M37.3,48.433h1.068A20.2,20.2,0,0,0,49.436,44.8V11.431a20.328,20.328,0,0,0-23.224,0V44.792A20.224,20.224,0,0,0,37.3,48.433" transform="translate(-13.828 -4.11)" fill="#f4f4f4" fill-rule="evenodd"/><path d="M75.368,15.5V48.862a20.318,20.318,0,0,0,0-33.365" transform="translate(-39.76 -8.175)" fill="#d61e34" fill-rule="evenodd"/></g></svg>