<svg xmlns="http://www.w3.org/2000/svg" width="25.788" height="30.946" viewBox="0 0 25.788 30.946">
  <path id="kmu-icon" d="M14.026,3a1.29,1.29,0,0,0-1.289,1.289H10.158a1.289,1.289,0,1,0,0,2.579H25.631a1.289,1.289,0,1,0,0-2.579H23.052A1.29,1.29,0,0,0,21.762,3ZM6.289,9.447a1.289,1.289,0,1,0,0,2.579V26.209A1.29,1.29,0,0,0,5,27.5v6.447h9.026V28.788h7.736v5.158h9.026V27.5A1.29,1.29,0,0,0,29.5,26.209V12.026a1.289,1.289,0,1,0,0-2.579Zm2.579,3.868h2.579v2.579H8.868Zm5.158,0H16.6v2.579H14.026Zm5.158,0h2.579v2.579H19.184Zm5.158,0H26.92v2.579H24.341ZM8.868,18.473h2.579v2.579H8.868Zm5.158,0H16.6v2.579H14.026Zm5.158,0h2.579v2.579H19.184Zm5.158,0H26.92v2.579H24.341ZM8.868,23.631h2.579v2.579H8.868Zm5.158,0H16.6v2.579H14.026Zm5.158,0h2.579v2.579H19.184Zm5.158,0H26.92v2.579H24.341ZM8.868,28.788h2.579v2.579H8.868Zm15.473,0H26.92v2.579H24.341Z" transform="translate(-5 -3)" fill="#86ed18"/>
</svg>
