<svg width="31" height="32" viewBox="0 0 31 32" fill="none" xmlns="http://www.w3.org/2000/svg">
<path d="M6.66694 0C6.31404 0.00235525 5.97625 0.143521 5.72662 0.39297C5.47698 0.642419 5.33556 0.980103 5.33294 1.333V2.667H1.33294C1.15665 2.66247 0.981286 2.69384 0.817508 2.75923C0.653731 2.82461 0.504969 2.92264 0.380273 3.04733C0.255577 3.17203 0.157555 3.32079 0.0921705 3.48457C0.0267862 3.64834 -0.00459316 3.82371 -5.83492e-05 4V30.667C-0.00399092 31.0232 0.132526 31.3667 0.379942 31.623C0.635882 31.8688 0.978129 32.0042 1.33294 32H29.3329C29.5095 32.0057 29.6854 31.9751 29.8497 31.9101C30.014 31.8452 30.1633 31.7472 30.2882 31.6223C30.4131 31.4973 30.5111 31.3481 30.5761 31.1838C30.6411 31.0195 30.6716 30.8436 30.6659 30.667V4C30.6705 3.82371 30.6391 3.64834 30.5737 3.48457C30.5083 3.32079 30.4103 3.17203 30.2856 3.04733C30.1609 2.92264 30.0122 2.82461 29.8484 2.75923C29.6846 2.69384 29.5092 2.66247 29.3329 2.667H25.3329V1.333C25.3303 0.980275 25.189 0.64274 24.9396 0.393319C24.6902 0.143898 24.3527 0.00261676 23.9999 0L22.6669 0C22.3142 0.00261676 21.9767 0.143898 21.7273 0.393319C21.4778 0.64274 21.3366 0.980275 21.3339 1.333V2.667H9.33394V1.333C9.33132 0.980103 9.1899 0.642419 8.94027 0.39297C8.69063 0.143521 8.35284 0.00235525 7.99994 0L6.66694 0ZM6.66694 1.333H7.99994V5.333H6.66694V1.333ZM22.6669 1.333H23.9999V5.333H22.6669V1.333ZM1.33294 4H5.33294V5.333C5.3353 5.68607 5.4766 6.02401 5.72627 6.27367C5.97593 6.52334 6.31387 6.66464 6.66694 6.667H7.99994C8.35267 6.66438 8.6902 6.5231 8.93962 6.27368C9.18904 6.02426 9.33033 5.68672 9.33294 5.334V4H21.3329V5.333C21.3356 5.68573 21.4768 6.02326 21.7263 6.27268C21.9757 6.5221 22.3132 6.66338 22.6659 6.666H23.9999C24.3527 6.66338 24.6902 6.5221 24.9396 6.27268C25.189 6.02326 25.3303 5.68573 25.3329 5.333V4H29.3329V8.667H1.33294V4ZM1.33294 10H29.3329V30.667H1.33294V10ZM5.33294 12.667V28H25.3329V12.667H5.33294ZM6.66694 14H9.99994V17.333H6.66694V14ZM11.3339 14H14.6669V17.333H11.3329L11.3339 14ZM15.9999 14H19.3329V17.333H15.9999V14ZM20.6669 14H23.9999V17.333H20.6669V14ZM6.66694 18.667H9.99994V22H6.66694V18.667ZM11.3339 18.667H14.6669V22H11.3329L11.3339 18.667ZM16.0009 18.667H19.3339V22H15.9999L16.0009 18.667ZM20.6679 18.667H23.9999V22H20.6669L20.6679 18.667ZM6.66794 23.334H9.99994V26.667H6.66694L6.66794 23.334ZM11.3349 23.334H14.6679V26.667H11.3329L11.3349 23.334ZM16.0019 23.334H19.3349V26.667H15.9999L16.0019 23.334ZM20.6689 23.334H23.9999V26.667H20.6669L20.6689 23.334Z" fill="#86ED18"/>
</svg>
