<svg width="210" height="42" viewBox="0 0 210 42" fill="none" xmlns="http://www.w3.org/2000/svg">
<g clip-path="url(#clip0_0_3)">
<mask id="mask0_0_3" style="mask-type:alpha" maskUnits="userSpaceOnUse" x="0" y="0" width="42" height="42">
<circle cx="21" cy="21" r="21" fill="#D9D9D9"/>
</mask>
<g mask="url(#mask0_0_3)">
<rect x="-20.9417" width="83.8834" height="14" fill="#000101"/>
<rect x="-20.9417" y="14" width="83.8834" height="14" fill="#DF1E26"/>
<rect x="-20.9417" y="28" width="83.8834" height="14" fill="#F6D92A"/>
</g>
<mask id="mask1_0_3" style="mask-type:alpha" maskUnits="userSpaceOnUse" x="56" y="0" width="42" height="42">
<circle cx="77" cy="21" r="21" transform="rotate(-90 77 21)" fill="#D9D9D9"/>
</mask>
<g mask="url(#mask1_0_3)">
<rect x="56" y="62.9417" width="83.8834" height="14" transform="rotate(-90 56 62.9417)" fill="#3D9348"/>
<rect x="70" y="62.9417" width="83.8834" height="14" transform="rotate(-90 70 62.9417)" fill="#F4F4F4"/>
<rect x="84" y="62.9417" width="83.8834" height="14" transform="rotate(-90 84 62.9417)" fill="#D61E34"/>
</g>
<mask id="mask2_0_3" style="mask-type:alpha" maskUnits="userSpaceOnUse" x="112" y="0" width="42" height="42">
<circle cx="133" cy="21" r="21" transform="rotate(-90 133 21)" fill="#D9D9D9"/>
</mask>
<g mask="url(#mask2_0_3)">
<rect x="112" y="62.9417" width="83.8834" height="14" transform="rotate(-90 112 62.9417)" fill="#334094"/>
<rect x="126" y="62.9417" width="83.8834" height="14" transform="rotate(-90 126 62.9417)" fill="#F4F4F4"/>
<rect x="140" y="62.9417" width="83.8834" height="14" transform="rotate(-90 140 62.9417)" fill="#D61E34"/>
</g>
<path d="M189 42C200.598 42 210 32.598 210 21C210 9.40202 200.598 0 189 0C177.402 0 168 9.40202 168 21C168 32.598 177.402 42 189 42Z" fill="#E53030"/>
<path d="M197.853 21.9896L199.823 19.4565L196.79 20.3122L195.013 17.5087L194.872 20.8517L191.912 21.6864L194.789 22.8244L194.65 26.1069L196.636 23.5541L199.583 24.7183L197.853 21.9896Z" fill="white"/>
<path d="M188.247 28.1859C187.339 28.166 186.444 27.9674 185.613 27.6015C184.782 27.2356 184.031 26.7096 183.403 26.0536C182.776 25.3975 182.283 24.6241 181.955 23.7778C181.626 22.9314 181.467 22.0285 181.487 21.1207C181.448 19.2879 182.138 17.5144 183.405 16.1899C184.672 14.8654 186.414 14.0982 188.247 14.0569C189.38 13.9847 190.51 14.2484 191.494 14.8149C192.479 15.3815 193.274 16.2259 193.781 17.2423C193.247 15.7518 192.251 14.4709 190.938 13.5862C189.625 12.7016 188.063 12.2595 186.481 12.3244C184.23 12.3746 182.091 13.3167 180.534 14.9434C178.976 16.5702 178.129 18.7486 178.177 21C178.128 23.2514 178.976 25.4301 180.533 27.0568C182.09 28.6835 184.23 29.6251 186.481 29.6743C187.807 29.7853 189.136 29.4979 190.298 28.8491C191.459 28.2002 192.401 27.2193 193.002 26.0321C192.485 26.7944 191.767 27.3989 190.928 27.779C190.089 28.159 189.161 28.2999 188.247 28.1859Z" fill="white"/>
</g>
<defs>
<clipPath id="clip0_0_3">
<rect width="210" height="42" fill="white"/>
</clipPath>
</defs>
</svg>
