<svg xmlns="http://www.w3.org/2000/svg" width="32" height="31.997" viewBox="0 0 32 31.997">
  <g id="auto-icon" transform="translate(-43.5 -7441)">
    <path id="icons8-faq" d="M14.08,0a2.559,2.559,0,0,0-2.56,2.56V12.8a2.559,2.559,0,0,0,2.56,2.56h10l4.94,4.32a.64.64,0,0,0,1.06-.48V15.24A2.53,2.53,0,0,0,32,12.8V2.56A2.559,2.559,0,0,0,29.44,0Zm0,1.28H29.44a1.215,1.215,0,0,1,1.28,1.28V12.8a1.215,1.215,0,0,1-1.28,1.28.641.641,0,0,0-.64.64V17.8l-4.06-3.56a.633.633,0,0,0-.42-.16H14.08A1.215,1.215,0,0,1,12.8,12.8V2.56A1.215,1.215,0,0,1,14.08,1.28ZM21.12,3.9l-1.6,7.36h1.16l.38-1.92h1.4l.38,1.92H24L22.46,3.9Zm.64,1.22h.06a13.112,13.112,0,0,0,.26,1.66l.32,1.66H21.18l.32-1.66C21.565,6.332,21.695,5.632,21.76,5.12ZM2.56,12.16A2.559,2.559,0,0,0,0,14.72V24.96A2.53,2.53,0,0,0,1.92,27.4v3.96a.64.64,0,0,0,1.06.48l4.94-4.32h10a2.559,2.559,0,0,0,2.56-2.56V16H19.2v8.96a1.215,1.215,0,0,1-1.28,1.28H7.68a.633.633,0,0,0-.42.16L3.2,29.96V26.88a.641.641,0,0,0-.64-.64,1.215,1.215,0,0,1-1.28-1.28V14.72a1.215,1.215,0,0,1,1.28-1.28h8.32V12.16ZM9.98,16c-1.472,0-2.3,1.545-2.3,3.72,0,2.495.835,3.76,2.18,3.76a1.148,1.148,0,0,1,.32.14c.448.255,1.205.645,1.78.9l.4-.9a12.5,12.5,0,0,1-1.42-.52v-.06c.7-.385,1.16-1.48,1.16-3.4C12.1,17.655,11.515,16,9.98,16Zm-.06.96c.705,0,.96,1.272.96,2.68,0,1.535-.255,2.82-.96,2.82-.767,0-1.02-1.285-1.02-2.82C8.9,18.3,9.152,16.96,9.92,16.96Z" transform="translate(43.5 7441)" fill="#86ed18"/>
  </g>
</svg>
