<svg width="70" height="71" viewBox="0 0 70 71" fill="none" xmlns="http://www.w3.org/2000/svg">
<circle cx="35" cy="35.5" r="34" stroke="black" stroke-width="2"/>
<path d="M40.6547 53.3611L39.9992 52.6059C40.6547 53.3611 40.6547 53.3611 40.6548 53.3611L40.6551 53.3608L40.6563 53.3597L40.6614 53.3553L40.6818 53.3376L40.7616 53.2685L41.0665 53.0046C41.3302 52.7766 41.7089 52.4498 42.1685 52.0545C43.0879 51.2638 44.3305 50.1998 45.6245 49.1058C46.9193 48.0112 48.2618 46.8896 49.382 45.9826C50.5324 45.051 51.3744 44.4072 51.7099 44.2104C53.1881 43.3432 54.6103 43.1956 55.7551 43.9744C55.8242 44.0265 55.8824 44.0941 55.9249 44.1731C55.9691 44.2555 55.9948 44.3477 55.9993 44.4428C56.0038 44.5379 55.987 44.6324 55.9506 44.7191C55.9142 44.8058 55.8594 44.8818 55.7914 44.942L55.7446 44.9835L55.7033 45.0304L43.2589 59.1851C42.0776 60.2312 40.5648 60.8074 39 60.8094H20.5628H20.1445L19.8508 61.1072L16.7753 64.2257C12.8276 61.6802 9.76189 58.5734 7.23897 54.5997L16.5119 45.3359L16.5119 45.3359L16.5176 45.3302C17.4128 44.4213 18.477 43.7034 19.6476 43.2178C20.8182 42.7322 22.072 42.4884 23.3358 42.5004L23.343 42.5005L23.3501 42.5005C24.8975 42.493 26.425 42.8591 27.8064 43.5691C29.1455 44.2903 30.7959 44.3605 32.1816 44.3605H36.3512C37.1818 44.3605 38.0279 44.6057 38.6404 45.0626C39.2225 45.4968 39.6161 46.1318 39.6161 47.0511C39.6161 47.8758 39.2349 48.5215 38.628 48.9891C38.0015 49.4718 37.154 49.7417 36.3512 49.7417H30.604H30.5928L30.5817 49.742C30.0799 49.7531 29.6044 49.9603 29.2537 50.316C28.9033 50.6713 28.704 51.1472 28.6933 51.6437L28.692 51.6995L28.697 51.755C28.7389 52.2205 28.9384 52.6592 29.2647 52.9962C29.5913 53.3334 30.0252 53.5478 30.4937 53.5998L30.5487 53.6059H30.604H39.9992H40.3726L40.6547 53.3611Z" stroke="black" stroke-width="2"/>
<path d="M47.7986 40.1504C40.6454 44.0355 36.0518 39.6108 34.6492 36.9128C30.8622 31.3012 34.4739 26.6606 36.7531 25.0418C46.8519 18.1349 58.2922 19.2804 62.5 20.1797C57.5 21.1797 56.7402 35.2941 47.7986 40.1504Z" fill="#86EC16"/>
<path d="M31.5 23C31.9287 27.2868 30.6667 29.3333 29 30C27 30.8 25.5999 30.3 23.9999 29.5C20.9999 28 19 24 20 19.5C20.8 15.9 19.1667 13 19 11.5C28 14.5 31 18 31.5 23Z" fill="#86EC16"/>
<path fill-rule="evenodd" clip-rule="evenodd" d="M26.8424 23.4611C26.5447 22.9959 25.9262 22.8601 25.4611 23.1579C24.9959 23.4556 24.8601 24.074 25.1579 24.5392C26.9514 27.3416 30.0189 34.0688 31.5675 43.1218C31.5565 43.1603 31.5458 43.1987 31.5354 43.237C31.5114 43.3249 31.4999 43.4133 31.4999 43.5002H33.6574C33.6447 43.421 33.6319 43.342 33.619 43.2631C34.2591 41.3913 35.665 39.2727 37.2858 37.2968C39.0336 35.1661 40.943 33.3062 42.1551 32.2558C42.5724 31.8941 42.6175 31.2625 42.2558 30.8452C41.8941 30.4278 41.2625 30.3827 40.8452 30.7444C39.5572 31.8607 37.5667 33.8008 35.7395 36.0284C34.7448 37.241 33.7713 38.5712 32.9871 39.9242C31.2917 32.0376 28.5731 26.1653 26.8424 23.4611ZM32.5168 53.5002C32.5043 52.4832 32.4682 51.4827 32.4112 50.5002H34.4144C34.4698 51.4836 34.5048 52.484 34.517 53.5002H32.5168Z" fill="black"/>
</svg>
