<svg width="27" height="27" viewBox="0 0 27 27" fill="none" xmlns="http://www.w3.org/2000/svg">
<path fill-rule="evenodd" clip-rule="evenodd" d="M24.6094 27H26.6099C26.4808 22.1269 25.2044 17.5769 20.5459 15.5519L19.7485 17.3861C23.2756 18.9193 24.4805 22.3727 24.6094 27ZM2.39106 27H0.390503C0.521898 22.1359 1.81607 17.5863 6.45134 15.5532L7.25469 17.3848C3.74175 18.9256 2.52218 22.3883 2.39106 27Z" fill="white"/>
<mask id="path-2-inside-1" fill="white">
<ellipse cx="10.7633" cy="10.5938" rx="1.95503" ry="1.95313"/>
</mask>
<path d="M10.7183 10.5938C10.7183 10.5907 10.7193 10.5828 10.7229 10.5742C10.726 10.5671 10.7294 10.5626 10.7321 10.5599C10.7348 10.5572 10.7391 10.5539 10.7458 10.5511C10.7538 10.5477 10.761 10.5469 10.7633 10.5469V14.5469C12.9457 14.5469 14.7183 12.7788 14.7183 10.5938H10.7183ZM10.7633 10.5469C10.7655 10.5469 10.7727 10.5477 10.7807 10.5511C10.7874 10.5539 10.7917 10.5572 10.7944 10.5599C10.7971 10.5626 10.8006 10.5671 10.8036 10.5742C10.8072 10.5828 10.8082 10.5907 10.8082 10.5938H6.80823C6.80823 12.7788 8.58079 14.5469 10.7633 14.5469V10.5469ZM10.8082 10.5938C10.8082 10.5968 10.8072 10.6047 10.8036 10.6133C10.8006 10.6204 10.7971 10.6249 10.7944 10.6276C10.7917 10.6303 10.7874 10.6336 10.7807 10.6364C10.7727 10.6398 10.7655 10.6406 10.7633 10.6406V6.64062C8.58079 6.64062 6.80823 8.40867 6.80823 10.5938H10.8082ZM10.7633 10.6406C10.761 10.6406 10.7538 10.6398 10.7458 10.6364C10.7391 10.6336 10.7348 10.6303 10.7321 10.6276C10.7294 10.6249 10.726 10.6204 10.7229 10.6133C10.7193 10.6047 10.7183 10.5968 10.7183 10.5938H14.7183C14.7183 8.40867 12.9457 6.64062 10.7633 6.64062V10.6406Z" fill="white" mask="url(#path-2-inside-1)"/>
<mask id="path-4-inside-2" fill="white">
<ellipse cx="16.2374" cy="10.5938" rx="1.95503" ry="1.95313"/>
</mask>
<path d="M16.1924 10.5938C16.1924 10.5907 16.1934 10.5828 16.197 10.5742C16.2001 10.5671 16.2036 10.5626 16.2063 10.5599C16.209 10.5572 16.2132 10.5539 16.2199 10.5511C16.2279 10.5477 16.2351 10.5469 16.2374 10.5469V14.5469C18.4198 14.5469 20.1924 12.7788 20.1924 10.5938H16.1924ZM16.2374 10.5469C16.2396 10.5469 16.2468 10.5477 16.2549 10.5511C16.2615 10.5539 16.2658 10.5572 16.2685 10.5599C16.2712 10.5626 16.2747 10.5671 16.2777 10.5742C16.2813 10.5828 16.2823 10.5907 16.2823 10.5938H12.2823C12.2823 12.7788 14.0549 14.5469 16.2374 14.5469V10.5469ZM16.2823 10.5938C16.2823 10.5968 16.2813 10.6047 16.2777 10.6133C16.2747 10.6204 16.2712 10.6249 16.2685 10.6276C16.2658 10.6303 16.2615 10.6336 16.2549 10.6364C16.2468 10.6398 16.2396 10.6406 16.2374 10.6406V6.64062C14.0549 6.64062 12.2823 8.40867 12.2823 10.5938H16.2823ZM16.2374 10.6406C16.2351 10.6406 16.2279 10.6398 16.2199 10.6364C16.2132 10.6336 16.209 10.6303 16.2063 10.6276C16.2036 10.6249 16.2001 10.6204 16.197 10.6133C16.1934 10.6047 16.1924 10.5968 16.1924 10.5938H20.1924C20.1924 8.40867 18.4198 6.64062 16.2374 6.64062V10.6406Z" fill="white" mask="url(#path-4-inside-2)"/>
<path d="M25.6215 12.1563C25.6215 14.3136 23.0889 16.0625 20.9294 16.0625L21.488 12.1563L20.9294 8.25C23.0889 8.25 25.6215 9.99889 25.6215 12.1563Z" fill="#86EC16"/>
<path d="M1.37903 12.1563C1.37903 14.3136 3.91163 16.0625 6.07109 16.0625L5.51251 12.1563L6.07109 8.25C3.91163 8.25 1.37903 9.99889 1.37903 12.1563Z" fill="#86EC16"/>
<path d="M21.7114 10.2031V10.2031C21.7114 6.10414 18.3885 2.78125 14.2895 2.78125H12.7111C8.61207 2.78125 5.28918 6.10414 5.28918 10.2031V10.2031" stroke="#86EC16" stroke-width="4"/>
<path d="M20.7114 12.1563C20.7114 16.1335 17.4838 19.3594 13.5003 19.3594C9.51679 19.3594 6.28918 16.1335 6.28918 12.1563C6.28918 8.17899 9.51679 4.95312 13.5003 4.95312C17.4838 4.95312 20.7114 8.17899 20.7114 12.1563Z" stroke="white" stroke-width="2"/>
<path d="M16.4329 15.6719C18.3879 15.737 22.2979 15.2813 22.2979 12.9375" stroke="#86EC16" stroke-width="2"/>
<rect x="12.7183" y="14.5" width="4.69206" height="2.34375" rx="1.17188" fill="#86EC16"/>
</svg>
