<svg width="15" height="16" viewBox="0 0 15 16" fill="none" xmlns="http://www.w3.org/2000/svg">
<path d="M14.8843 2.52082V10.7435C14.8843 11.8584 13.9815 12.7643 12.8704 12.7643H10.8333V15.0871C10.8333 15.4587 10.3935 15.6445 10.1389 15.3658L7.5463 12.7875C7.5463 12.7875 7.5463 12.7643 7.52315 12.7643H2.01389C0.902778 12.7643 0 11.8584 0 10.7435V2.52082C0 1.40588 0.902778 0.5 2.01389 0.5H12.8935C13.9815 0.5 14.8843 1.40588 14.8843 2.52082ZM5.20833 6.63214C5.20833 6.12113 4.79167 5.70303 4.28241 5.70303C3.77315 5.70303 3.35648 6.12113 3.35648 6.63214C3.35648 7.14315 3.77315 7.56125 4.28241 7.56125C4.81481 7.56125 5.20833 7.14315 5.20833 6.63214ZM8.35648 6.63214C8.35648 6.12113 7.93981 5.70303 7.43056 5.70303C6.9213 5.70303 6.50463 6.12113 6.50463 6.63214C6.50463 7.14315 6.9213 7.56125 7.43056 7.56125C7.96296 7.56125 8.35648 7.14315 8.35648 6.63214ZM11.5046 6.63214C11.5046 6.12113 11.088 5.70303 10.5787 5.70303C10.0694 5.70303 9.65278 6.12113 9.65278 6.63214C9.65278 7.14315 10.0694 7.56125 10.5787 7.56125C11.1111 7.56125 11.5046 7.14315 11.5046 6.63214Z" fill="black"/>
</svg>
