<?xml version="1.0" encoding="utf-8"?>
<!-- Generator: Adobe Illustrator 24.0.2, SVG Export Plug-In . SVG Version: 6.00 Build 0)  -->
<svg version="1.1" id="Ebene_1" xmlns="http://www.w3.org/2000/svg" xmlns:xlink="http://www.w3.org/1999/xlink" x="0px" y="0px"
	 viewBox="0 0 512 512" style="enable-background:new 0 0 512 512;" xml:space="preserve">
<style type="text/css">
	.st0{fill:#FFFFFF;}
	.st1{fill:#86ED18;}
	.st2{display:none;fill:#86ED18;}
	.st3{display:none;fill:#FFFFFF;}
</style>
<g id="Ebene_1_1_">
	<g transform="matrix(1 0 0 -1 0 480)">
		<path class="st0" d="M213,32H53c-8.7,0-16.2,3.2-22.5,9.5S21,55.3,21,64v331h64v-22H53c-6.7,0-10-3.3-10-10V64c0-7.3,3.3-11,10-11
			h150c6.7,0,10,3.7,10,11s-3.3,11-10,11H64v277h21v-11c0-6.7,3.7-10,11-10h171c6.7,0,10,3.3,10,10v11h22v-75c0-6.7,3.3-10,10-10
			c7.3,0,11,3.3,11,10v86c0,6.7-3.7,10-11,10h-32v22h64V277c0-6.7,3.7-10,11-10s11,3.3,11,10v128c0,7.3-3.7,11-11,11h-75v11
			c0,6.7-3.3,10-10,10h-33c-2,12-7.5,22.2-16.5,30.5S196.3,480,181,480c-14.7,0-26.5-4.2-35.5-12.5S131,449,129,437H96
			c-7.3,0-11-3.3-11-10v-11H11c-7.3,0-11-3.7-11-11V64c0-14.7,5.2-27.2,15.5-37.5S38.3,11,53,11h160c7.3,0,11,3.3,11,10
			C224,28.3,220.3,32,213,32z M107,416h32c6.7,0,10,3.7,10,11c0,2.7,0.3,6,1,10s3.7,8.7,9,14s12.7,8,22,8s16.7-2.7,22-8s8.3-10,9-14
			s1-7.3,1-10c0-7.3,3.7-11,11-11h32v-64H107V416z M224,288H117c-6.7,0-10-3.7-10-11c0-6.7,3.3-10,10-10h107c7.3,0,11,3.3,11,10
			C235,284.3,231.3,288,224,288z M224,245H117c-6.7,0-10-3.3-10-10c0-7.3,3.3-11,10-11h107c7.3,0,11,3.7,11,11
			C235,241.7,231.3,245,224,245z M224,203H117c-6.7,0-10-3.7-10-11s3.3-11,10-11h107c7.3,0,11,3.7,11,11S231.3,203,224,203z
			 M181,139c7.3,0,11,3.3,11,10c0,7.3-3.7,11-11,11h-64c-6.7,0-10-3.7-10-11c0-6.7,3.3-10,10-10H181z"/>
	</g>
</g>
<g id="Ebene_2_1_">
	<path class="st1" d="M461,271c-27-27-59.8-40.5-98.5-40.5c-38,0-70.5,13.5-97.5,40.5s-40.5,59.5-40.5,97.5
		c0,38.7,13.5,71.5,40.5,98.5s59.5,40.5,97.5,40.5c38.7,0,71.5-13.5,98.5-40.5s40.5-59.8,40.5-98.5C501.5,330.5,488,298,461,271z
		 M446,452c-23,23-50.8,34.5-83.5,34.5c-32,0-59.5-11.5-82.5-34.5s-34.5-50.8-34.5-83.5c0-32,11.5-59.5,34.5-82.5
		s50.5-34.5,82.5-34.5c32.7,0,60.5,11.5,83.5,34.5s34.5,50.5,34.5,82.5C480.5,401.2,469,429,446,452z"/>
	<path class="st2" d="M362.5,230.5c-38,0-70.5,13.5-97.5,40.5s-40.5,59.5-40.5,97.5c0,38.7,13.5,71.5,40.5,98.5s59.5,40.5,97.5,40.5
		c38.7,0,71.5-13.5,98.5-40.5s40.5-59.8,40.5-98.5c0-38-13.5-70.5-40.5-97.5S401.2,230.5,362.5,230.5z"/>
	<path class="st3" d="M362.5,486.5c-32,0-59.5-11.5-82.5-34.5s-34.5-50.8-34.5-83.5c0-32,11.5-59.5,34.5-82.5s50.5-34.5,82.5-34.5
		c32.7,0,60.5,11.5,83.5,34.5s34.5,50.5,34.5,82.5c0,32.7-11.5,60.5-34.5,83.5S395.2,486.5,362.5,486.5z"/>
	<path class="st1" d="M424.5,326.5l-74,81l-50-50c-4.7-5.3-9.7-5.3-15,0s-5.3,10.3,0,15l66,66l89-97c4.7-6,4.3-11-1-15
		C434.2,321.8,429.2,321.8,424.5,326.5z"/>
</g>
</svg>
