<?xml version="1.0" standalone="no"?>
<!DOCTYPE svg PUBLIC "-//W3C//DTD SVG 1.1//EN" "http://www.w3.org/Graphics/SVG/1.1/DTD/svg11.dtd" >
<svg xmlns="http://www.w3.org/2000/svg" xmlns:xlink="http://www.w3.org/1999/xlink" version="1.1" viewBox="0 -32 512 512">
  <g transform="matrix(1 0 0 -1 0 480)">
   <path fill="currentColor"
d="M373 277q-57 0 -97.5 -40.5t-40.5 -97.5q0 -58 40.5 -98.5t97.5 -40.5q58 0 98.5 40.5t40.5 98.5q0 57 -40.5 97.5t-98.5 40.5zM373 21q-48 0 -82.5 34.5t-34.5 83.5q0 48 34.5 82.5t82.5 34.5q49 0 83.5 -34.5t34.5 -82.5q0 -49 -34.5 -83.5t-83.5 -34.5zM435 181
l-74 -81l-50 50q-7 8 -15 0t0 -15l66 -66l89 97q7 9 -1 15q-8 7 -15 0zM213 64h-160q-13 0 -22.5 9.5t-9.5 22.5v331h64v-22h-32q-10 0 -10 -10v-299q0 -11 10 -11h150q10 0 10 11t-10 11h-139v277h21v-11q0 -10 11 -10h171q10 0 10 10v11h22v-75q0 -10 10 -10q11 0 11 10
v86q0 10 -11 10h-32v22h64v-118q0 -10 11 -10t11 10v128q0 11 -11 11h-75v11q0 10 -10 10h-33q-3 18 -16.5 30.5t-36.5 12.5q-22 0 -35.5 -12.5t-16.5 -30.5h-33q-11 0 -11 -10v-11h-74q-11 0 -11 -11v-341q0 -22 15.5 -37.5t37.5 -15.5h160q11 0 11 10q0 11 -11 11z
M107 448h32q10 0 10 11q0 4 1 10t9 14t22 8t22 -8t9 -14t1 -10q0 -11 11 -11h32v-64h-149v64zM224 320h-107q-10 0 -10 -11q0 -10 10 -10h107q11 0 11 10q0 11 -11 11zM224 277h-107q-10 0 -10 -10q0 -11 10 -11h107q11 0 11 11q0 10 -11 10zM224 235h-107q-10 0 -10 -11
t10 -11h107q11 0 11 11t-11 11zM181 171q11 0 11 10q0 11 -11 11h-64q-10 0 -10 -11q0 -10 10 -10h64z" />
  </g>

</svg>
