<svg width="325" height="117" viewBox="0 0 325 117" fill="none" xmlns="http://www.w3.org/2000/svg">
<circle opacity="0.33" cx="162.5" cy="181.047" r="162.5" fill="url(#paint0_linear)"/>
<circle cx="22.0704" cy="95.6173" r="25.0704" fill="white"/>
<circle cx="22.0704" cy="95.6173" r="26.0704" stroke="black" stroke-opacity="0.1" stroke-width="2"/>
<path d="M7.6527 90.4341V86.9648C7.6527 85.8603 8.54813 84.9648 9.6527 84.9648H29.7164C30.8209 84.9648 31.7164 85.8603 31.7164 86.9648V90.4341M7.6527 90.4341H31.7164M7.6527 90.4341L7.65239 103.018C7.65237 104.122 8.5478 105.018 9.65239 105.018H21.5356M31.7164 90.4341L31.716 94.9915" stroke="black" stroke-width="2" stroke-miterlimit="10" stroke-linecap="round" stroke-linejoin="round"/>
<path d="M10.8127 88.6004C11.2616 88.6004 11.6254 88.2422 11.6254 87.8002C11.6246 87.6943 11.6029 87.5896 11.5616 87.4921C11.5203 87.3945 11.4602 87.3061 11.3848 87.2318C11.3093 87.1575 11.2199 87.0988 11.1218 87.059C11.0236 87.0192 10.9186 86.9992 10.8127 87C10.3638 87 10 87.3582 10 87.8002C10 88.2422 10.3638 88.6004 10.8127 88.6004ZM13.4997 88.6004C13.9479 88.6004 14.3124 88.2422 14.3124 87.8002C14.3116 87.6943 14.2899 87.5896 14.2486 87.4921C14.2073 87.3945 14.1472 87.3061 14.0718 87.2318C13.9963 87.1575 13.9069 87.0988 13.8088 87.059C13.7106 87.0192 13.6056 86.9992 13.4997 87C13.0508 87 12.687 87.3582 12.687 87.8002C12.687 88.2422 13.0508 88.6004 13.4997 88.6004ZM16.1873 88.6004C16.6362 88.6004 17 88.2422 17 87.8002C16.9992 87.6943 16.9775 87.5896 16.9362 87.4921C16.8949 87.3945 16.8349 87.3061 16.7594 87.2318C16.6839 87.1575 16.5946 87.0988 16.4964 87.059C16.3982 87.0192 16.2932 86.9992 16.1873 87C15.7384 87 15.3746 87.3582 15.3746 87.8002C15.3746 88.2422 15.7384 88.6004 16.1873 88.6004Z" fill="black"/>
<path fill-rule="evenodd" clip-rule="evenodd" d="M28.9682 109.407C33.4681 109.407 37.1161 105.759 37.1161 101.259C37.1161 96.7593 33.4681 93.1113 28.9682 93.1113C24.4682 93.1113 20.8203 96.7593 20.8203 101.259C20.8203 105.759 24.4682 109.407 28.9682 109.407ZM32.4965 97.4225C32.0936 97.0501 31.4194 97.1269 31.1262 97.5785L30.0115 99.2958C29.8047 99.6143 29.859 100.022 30.1432 100.285L30.8267 100.916C30.4713 101.328 30.0632 101.754 29.5977 102.185C29.1763 102.574 28.7613 102.917 28.3617 103.217L27.666 102.574C27.3818 102.312 26.9407 102.262 26.596 102.453L24.7381 103.483C24.2495 103.754 24.1665 104.377 24.5694 104.75L24.891 105.047L25.3364 105.459L25.3369 105.459L25.4577 105.571C25.8589 105.942 26.4718 106.032 26.949 105.748C27.8284 105.225 29.1448 104.321 30.5266 103.043C31.976 101.704 32.9584 100.323 33.4896 99.419C33.7295 99.0107 33.6383 98.5207 33.3082 98.176C33.294 98.1607 33.2791 98.1459 33.2635 98.1315L33.2538 98.1225L33.2531 98.1218L32.8181 97.7197L32.4965 97.4225Z" fill="#86EC16"/>
<circle cx="82.0704" cy="41.6173" r="25.0704" fill="white"/>
<circle cx="82.0704" cy="41.6173" r="26.0704" stroke="black" stroke-opacity="0.1" stroke-width="2"/>
<line x1="67" y1="35" x2="97.0845" y2="35" stroke="black" stroke-width="2"/>
<path fill-rule="evenodd" clip-rule="evenodd" d="M87.709 38.9794L89.2755 37.0996L90.842 38.9794H91.3508C92.4554 38.9794 93.3508 39.8749 93.3508 40.9794V54.5287C93.3508 55.6333 92.4554 56.5287 91.3508 56.5287H80.3086C79.204 56.5287 78.3086 55.6333 78.3086 54.5287V40.9794C78.3086 39.8749 79.204 38.9794 80.3086 38.9794H87.709ZM83.7971 43.7617C83.5208 43.3078 82.8855 43.2306 82.5058 43.605L82.2028 43.9037L81.7929 44.3078L81.7925 44.3082L81.7831 44.3175C81.7684 44.332 81.7543 44.3469 81.7409 44.3623C81.4299 44.7088 81.344 45.2013 81.57 45.6117C82.0706 46.5206 82.9963 47.9081 84.3621 49.2546C85.6642 50.5384 86.9046 51.4475 87.7333 51.9735C88.1829 52.2588 88.7605 52.1676 89.1386 51.7948L89.2529 51.6822L89.6726 51.2683L89.9756 50.9696C90.3552 50.5953 90.277 49.9689 89.8166 49.6965L88.0659 48.6609C87.7412 48.4688 87.3255 48.5192 87.0577 48.7832L86.4021 49.4296C86.0255 49.1276 85.6345 48.783 85.2374 48.3915C84.7987 47.959 84.4142 47.53 84.0794 47.1168L84.7234 46.4818C84.9912 46.2178 85.0424 45.8079 84.8475 45.4878L83.7971 43.7617Z" fill="#86EC16"/>
<path fill-rule="evenodd" clip-rule="evenodd" d="M69.6484 27.9512C67.9916 27.9512 66.6484 29.2943 66.6484 30.9512V50.1413C66.6484 51.7982 67.9916 53.1413 69.6484 53.1413H78.3061V51.1413H69.6484C69.0962 51.1413 68.6484 50.6936 68.6484 50.1413V30.9512C68.6484 30.3989 69.0962 29.9512 69.6484 29.9512H94.4794C95.0317 29.9512 95.4794 30.3989 95.4794 30.9512V50.1413C95.4794 50.6936 95.0317 51.1413 94.4794 51.1413H93.3483V53.1413H94.4794C96.1363 53.1413 97.4794 51.7982 97.4794 50.1413V30.9512C97.4794 29.2943 96.1363 27.9512 94.4794 27.9512H69.6484Z" fill="black"/>
<circle cx="70.4714" cy="31.7712" r="0.94014" fill="black"/>
<circle cx="73.6042" cy="31.7712" r="0.94014" fill="black"/>
<circle cx="76.7409" cy="31.7712" r="0.94014" fill="black"/>
<rect x="87" y="30" width="4" height="4" fill="#86EC16"/>
<circle cx="162.07" cy="27.0704" r="25.0704" fill="white"/>
<circle cx="162.07" cy="27.0704" r="26.0704" stroke="black" stroke-opacity="0.1" stroke-width="2"/>
<path d="M154.696 33.8955C151.054 30.3053 149.421 26.8432 149.06 25.561L148.299 26.3116C147.643 26.9577 147.443 27.93 147.885 28.733C148.814 30.4209 150.534 32.9977 153.07 35.4983C155.488 37.8825 157.792 39.5709 159.331 40.5477C160.166 41.0776 161.239 40.9083 161.941 40.216L162.932 39.2382C161.704 38.9532 158.337 37.4858 154.696 33.8955Z" fill="#86EC16"/>
<path d="M149.623 25.0062C150.328 24.311 151.508 24.4543 152.021 25.2973L153.972 28.5029C154.333 29.0975 154.238 29.8585 153.741 30.3489L152.399 31.6722C151.694 32.3673 150.514 32.2241 150.001 31.3811L148.05 28.1755C147.688 27.5809 147.783 26.8198 148.281 26.3295L149.623 25.0062Z" fill="#86EC16"/>
<path d="M163.495 38.6834C164.2 37.9882 164.055 36.8249 163.2 36.3191L159.949 34.3957C159.346 34.039 158.574 34.1327 158.076 34.623L156.734 35.9463C156.029 36.6414 156.174 37.8048 157.029 38.3106L160.281 40.2339C160.884 40.5907 161.656 40.497 162.153 40.0067L163.495 38.6834Z" fill="#86EC16"/>
<path d="M173.953 20.6094L173.244 21.3147L173.246 21.3165L173.953 20.6094ZM174.459 20.9508L174.068 21.8711L174.073 21.8731L174.459 20.9508ZM173.612 20.1033L172.689 20.4891L172.692 20.4959L173.612 20.1033ZM173.612 18.8675L172.691 18.4773L172.689 18.4812L173.612 18.8675ZM174.459 18.0201L174.073 17.0974L174.067 17.1L174.459 18.0201ZM175.695 18.0201L176.085 17.0993L176.081 17.0977L175.695 18.0201ZM176.542 18.8675L177.465 18.4818L177.462 18.4758L176.542 18.8675ZM176.542 20.1033L177.463 20.4936L177.465 20.4897L176.542 20.1033ZM175.695 20.9508L176.081 21.8734L176.087 21.8709L175.695 20.9508ZM173.488 22.0837V21.0837H172.488V22.0837H173.488ZM173.488 26.8696H172.488V27.8696H173.488V26.8696ZM176.678 22.0837H177.678V21.0837H176.678V22.0837ZM176.678 25.2202H175.678V25.2399L175.679 25.2597L176.678 25.2202ZM176.451 26.014L177.262 26.5982L177.27 26.5875L177.277 26.5766L176.451 26.014ZM175.874 26.5223L175.398 25.6433L175.397 25.6436L175.874 26.5223ZM175.102 26.7921L174.928 25.8072L174.916 25.8094L175.102 26.7921ZM174.285 26.8696V27.8696L174.291 27.8696L174.285 26.8696ZM170.903 20.0772L170.91 19.0772L170.896 19.0773L170.903 20.0772ZM171.52 19.9528L171.128 19.0327L171.127 19.0333L171.52 19.9528ZM170.287 19.9528L170.685 19.0351L170.681 19.0334L170.287 19.9528ZM170.118 19.8496L170.71 19.0441L170.71 19.0441L170.118 19.8496ZM169.898 19.7135H168.898V20.3378L169.459 20.6119L169.898 19.7135ZM169.898 17.2613L169.461 16.3622L168.898 16.636V17.2613H169.898ZM170.118 17.1253L169.525 16.32L169.525 16.32L170.118 17.1253ZM170.287 17.022L170.681 17.9414L170.683 17.9405L170.287 17.022ZM170.901 16.8976L170.894 17.8976L170.908 17.8975L170.901 16.8976ZM171.519 17.022L171.126 17.9416L171.128 17.9428L171.519 17.022ZM172.366 17.8695L173.288 17.4823L173.286 17.4778L172.366 17.8695ZM172.367 19.1053L173.288 19.4955L173.289 19.4916L172.367 19.1053ZM169.898 28.1352H168.898V28.942L169.687 29.1126L169.898 28.1352ZM170.101 28.1852L170.361 27.2198L170.361 27.2198L170.101 28.1852ZM169.898 21.0864V20.0864H168.898V21.0864H169.898ZM172.889 21.0864H173.889V20.0864H172.889V21.0864ZM172.889 26.6244H171.889V26.6432L171.89 26.6619L172.889 26.6244ZM172.689 27.4175L173.537 27.9477L173.543 27.9374L173.549 27.9268L172.689 27.4175ZM172.181 27.9221L172.699 28.7771L172.704 28.7744L172.181 27.9221ZM171.499 28.1882L171.301 27.2077L171.289 27.2104L171.499 28.1882ZM170.779 28.2657L170.775 29.2657L170.785 29.2656L170.779 28.2657ZM170.311 28.2314L170.454 27.2416L170.447 27.2406L170.311 28.2314ZM158.93 29.6617H157.93V30.5035L158.759 30.6471L158.93 29.6617ZM169.3 31.4565L169.129 32.4419L170.3 32.6445V31.4565H169.3ZM158.93 15.702L158.759 14.7167L157.93 14.8602V15.702H158.93ZM169.3 13.9072H170.3V12.7193L169.129 12.9219L169.3 13.9072ZM166.508 19.2911H167.508V18.2284L166.447 18.293L166.508 19.2911ZM161.722 19.5826L161.662 18.5844L160.722 18.6416V19.5826H161.722ZM166.508 20.4874L166.553 21.4865L167.508 21.444V20.4874H166.508ZM164.713 20.5672L164.669 19.5682L163.713 19.6106V20.5672H164.713ZM164.713 25.8025L164.655 26.8008L165.713 26.8628V25.8025H164.713ZM163.517 25.7325H162.517V26.6756L163.459 26.7308L163.517 25.7325ZM163.517 20.6141H164.517V19.5731L163.477 19.615L163.517 20.6141ZM161.722 20.6864H160.722V21.7275L161.763 21.6856L161.722 20.6864ZM173.246 21.3165C173.482 21.5529 173.761 21.7406 174.068 21.8711L174.85 20.0305C174.779 20 174.714 19.9566 174.66 19.9023L173.246 21.3165ZM172.692 20.4959C172.822 20.8017 173.01 21.0798 173.244 21.3147L174.662 19.9041C174.606 19.8483 174.562 19.7821 174.531 19.7107L172.692 20.4959ZM172.689 18.4812C172.42 19.1236 172.42 19.8467 172.689 20.4891L174.534 19.7176C174.472 19.5684 174.472 19.4015 174.534 19.2539L172.689 18.4812ZM174.067 17.1C173.449 17.3633 172.954 17.8557 172.691 18.4773L174.532 19.2578C174.592 19.1161 174.706 19.0018 174.851 18.9401L174.067 17.1ZM176.081 17.0977C175.439 16.8286 174.716 16.8289 174.073 17.0975L174.845 18.9427C174.994 18.8803 175.161 18.8806 175.309 18.9424L176.081 17.0977ZM177.462 18.4758C177.199 17.8574 176.707 17.3628 176.085 17.0994L175.305 18.9408C175.446 19.0008 175.561 19.1144 175.622 19.2593L177.462 18.4758ZM177.465 20.4897C177.734 19.8472 177.733 19.1242 177.465 18.4818L175.62 19.2533C175.682 19.4025 175.682 19.5693 175.62 19.717L177.465 20.4897ZM176.087 21.8709C176.705 21.6076 177.2 21.1151 177.463 20.4936L175.622 19.7131C175.562 19.8548 175.448 19.969 175.303 20.0307L176.087 21.8709ZM174.073 21.8731C174.715 22.1422 175.438 22.142 176.081 21.8734L175.309 20.0282C175.16 20.0906 174.993 20.0903 174.845 20.0284L174.073 21.8731ZM172.488 22.0837V26.8696H174.488V22.0837H172.488ZM176.678 21.0837H173.488V23.0837H176.678V21.0837ZM177.678 25.2202V22.0837H175.678V25.2202H177.678ZM177.277 26.5766C177.557 26.1663 177.697 25.6772 177.677 25.1806L175.679 25.2597C175.681 25.3281 175.662 25.3951 175.624 25.4514L177.277 26.5766ZM176.351 27.4013C176.714 27.2047 177.024 26.9288 177.262 26.5982L175.639 25.4297C175.574 25.5195 175.492 25.5924 175.398 25.6433L176.351 27.4013ZM175.275 27.7769C175.652 27.7106 176.015 27.5839 176.352 27.401L175.397 25.6436C175.251 25.723 175.093 25.7783 174.928 25.8073L175.275 27.7769ZM174.291 27.8696C174.623 27.8678 174.956 27.8371 175.287 27.7748L174.916 25.8094C174.709 25.8485 174.496 25.8685 174.28 25.8696L174.291 27.8696ZM173.488 27.8696H174.285V25.8696H173.488V27.8696ZM170.896 21.0772C171.246 21.0797 171.592 21.0094 171.913 20.8723L171.127 19.0333C171.057 19.0631 170.983 19.0778 170.91 19.0773L170.896 21.0772ZM169.89 20.8705C170.215 21.011 170.562 21.0797 170.91 21.0772L170.896 19.0773C170.821 19.0778 170.749 19.063 170.685 19.0351L169.89 20.8705ZM169.525 20.6551C169.579 20.6944 169.707 20.7921 169.894 20.8722L170.681 19.0334C170.69 19.0373 170.7 19.042 170.709 19.0472C170.719 19.0524 170.727 19.0571 170.732 19.0604C170.737 19.0634 170.739 19.0647 170.735 19.0621C170.733 19.0609 170.73 19.0589 170.726 19.0559C170.722 19.0526 170.717 19.0492 170.71 19.0441L169.525 20.6551ZM169.459 20.6119C169.473 20.6186 169.479 20.6228 169.483 20.6252C169.49 20.6293 169.496 20.634 169.525 20.6551L170.71 19.0441C170.643 18.9945 170.523 18.9057 170.337 18.8151L169.459 20.6119ZM168.898 17.2613V19.7135H170.898V17.2613H168.898ZM169.525 16.32C169.496 16.3413 169.489 16.3458 169.483 16.3498C169.48 16.352 169.474 16.3559 169.461 16.3622L170.336 18.1604C170.522 18.0697 170.643 17.9803 170.71 17.9307L169.525 16.32ZM169.894 16.1027C169.707 16.1828 169.578 16.2808 169.525 16.32L170.71 17.9307C170.717 17.9256 170.722 17.9221 170.726 17.9189C170.731 17.9158 170.733 17.9139 170.735 17.9126C170.739 17.91 170.737 17.9112 170.732 17.9143C170.727 17.9175 170.72 17.9222 170.71 17.9275C170.7 17.9327 170.69 17.9374 170.681 17.9414L169.894 16.1027ZM170.908 15.8976C170.558 15.8951 170.212 15.9657 169.892 16.1036L170.683 17.9405C170.75 17.9115 170.822 17.897 170.894 17.8975L170.908 15.8976ZM171.912 16.1025C171.591 15.9653 171.244 15.8951 170.894 15.8976L170.908 17.8975C170.982 17.897 171.056 17.9119 171.126 17.9416L171.912 16.1025ZM173.286 17.4778C173.023 16.8594 172.53 16.3648 171.909 16.1013L171.128 17.9428C171.27 18.0028 171.384 18.1164 171.446 18.2613L173.286 17.4778ZM173.289 19.4916C173.558 18.8492 173.558 18.1255 173.288 17.4823L171.444 18.2567C171.506 18.4051 171.506 18.5714 171.445 18.719L173.289 19.4916ZM171.912 20.8728C172.531 20.6092 173.025 20.1163 173.288 19.4955L171.446 18.7151C171.386 18.8576 171.272 18.9714 171.128 19.0327L171.912 20.8728ZM169.687 29.1126C169.746 29.1255 169.788 29.1367 169.84 29.1507L170.361 27.2198C170.304 27.2045 170.222 27.1821 170.11 27.1579L169.687 29.1126ZM168.898 21.0864V28.1352H170.898V21.0864H168.898ZM172.889 20.0864H169.898V22.0864H172.889V20.0864ZM173.889 26.6244V21.0864H171.889V26.6244H173.889ZM173.549 27.9268C173.79 27.5209 173.906 27.0551 173.889 26.5869L171.89 26.6619C171.893 26.7498 171.871 26.8355 171.828 26.9081L173.549 27.9268ZM172.704 28.7744C173.043 28.5662 173.327 28.2826 173.537 27.9477L171.841 26.8872C171.794 26.9623 171.731 27.0245 171.657 27.0698L172.704 28.7744ZM171.696 29.1685C172.05 29.0972 172.39 28.9645 172.699 28.7771L171.662 27.067C171.551 27.1345 171.428 27.1823 171.301 27.2078L171.696 29.1685ZM170.785 29.2656C171.093 29.2638 171.402 29.2315 171.708 29.1659L171.289 27.2104C171.122 27.2461 170.949 27.2646 170.773 27.2657L170.785 29.2656ZM170.168 29.2211C170.371 29.2503 170.574 29.2647 170.775 29.2657L170.784 27.2657C170.672 27.2651 170.562 27.2571 170.454 27.2416L170.168 29.2211ZM169.84 29.1507C169.912 29.1702 170.025 29.2015 170.176 29.2221L170.447 27.2406C170.439 27.2396 170.434 27.2387 170.427 27.2369C170.415 27.2341 170.4 27.2304 170.361 27.2198L169.84 29.1507ZM158.759 30.6471L169.129 32.4419L169.47 30.4712L159.1 28.6764L158.759 30.6471ZM157.93 15.702V29.6617H159.93V15.702H157.93ZM169.129 12.9219L158.759 14.7167L159.1 16.6874L169.47 14.8926L169.129 12.9219ZM170.3 31.4565V13.9072H168.3V31.4565H170.3ZM166.447 18.293L161.662 18.5844L161.783 20.5807L166.569 20.2893L166.447 18.293ZM167.508 20.4874V19.2911H165.508V20.4874H167.508ZM164.758 21.5662L166.553 21.4865L166.464 19.4884L164.669 19.5682L164.758 21.5662ZM165.713 25.8025V20.5672H163.713V25.8025H165.713ZM163.459 26.7308L164.655 26.8008L164.772 24.8042L163.576 24.7342L163.459 26.7308ZM162.517 20.6141V25.7325H164.517V20.6141H162.517ZM161.763 21.6856L163.557 21.6133L163.477 19.615L161.682 19.6873L161.763 21.6856ZM160.722 19.5826V20.6864H162.722V19.5826H160.722Z" fill="black"/>
<circle cx="242.07" cy="41.6173" r="25.0704" fill="white"/>
<circle cx="242.07" cy="41.6173" r="26.0704" stroke="black" stroke-opacity="0.1" stroke-width="2"/>
<path d="M234.704 49.0684C231.062 45.4781 229.429 42.0161 229.068 40.7338L228.307 41.4844C227.651 42.1305 227.45 43.1029 227.893 43.9059C228.822 45.5938 230.542 48.1706 233.078 50.6712C235.496 53.0554 237.8 54.7437 239.339 55.7205C240.174 56.2505 241.246 56.0811 241.948 55.3888L242.94 54.411C241.712 54.1261 238.345 52.6586 234.704 49.0684Z" fill="#86EC16"/>
<path d="M229.631 40.1791C230.336 39.4839 231.516 39.6271 232.029 40.4701L233.979 43.6757C234.341 44.2703 234.246 45.0314 233.749 45.5217L232.407 46.845C231.702 47.5402 230.522 47.397 230.009 46.554L228.058 43.3484C227.696 42.7538 227.791 41.9927 228.288 41.5024L229.631 40.1791Z" fill="#86EC16"/>
<path d="M243.503 53.8562C244.208 53.1611 244.063 51.9977 243.208 51.4919L239.956 49.5686C239.353 49.2118 238.581 49.3055 238.084 49.7958L236.742 51.1191C236.037 51.8143 236.182 52.9777 237.037 53.4835L240.288 55.4068C240.892 55.7636 241.663 55.6699 242.161 55.1795L243.503 53.8562Z" fill="#86EC16"/>
<path fill-rule="evenodd" clip-rule="evenodd" d="M240.934 31.5891C240.934 31.8691 241.161 32.0961 241.441 32.0961C241.721 32.0961 241.948 31.8691 241.948 31.5891C241.948 31.309 241.721 31.082 241.441 31.082C241.161 31.082 240.934 31.309 240.934 31.5891ZM241.441 29.082C240.056 29.082 238.934 30.2045 238.934 31.5891C238.934 32.9737 240.056 34.0961 241.441 34.0961C242.825 34.0961 243.948 32.9737 243.948 31.5891C243.948 30.2045 242.825 29.082 241.441 29.082ZM240.934 37.8564C240.934 38.1364 241.161 38.3634 241.441 38.3634C241.721 38.3634 241.948 38.1364 241.948 37.8564C241.948 37.5764 241.721 37.3493 241.441 37.3493C241.161 37.3493 240.934 37.5764 240.934 37.8564ZM241.441 35.3493C240.056 35.3493 238.934 36.4718 238.934 37.8564C238.934 39.241 240.056 40.3634 241.441 40.3634C242.825 40.3634 243.948 39.241 243.948 37.8564C243.948 36.4718 242.825 35.3493 241.441 35.3493ZM241.441 44.6317C241.161 44.6317 240.934 44.4047 240.934 44.1246C240.934 43.8446 241.161 43.6176 241.441 43.6176C241.721 43.6176 241.948 43.8446 241.948 44.1246C241.948 44.4047 241.721 44.6317 241.441 44.6317ZM238.934 44.1246C238.934 42.74 240.056 41.6176 241.441 41.6176C242.825 41.6176 243.948 42.74 243.948 44.1246C243.948 45.5092 242.825 46.6317 241.441 46.6317C240.056 46.6317 238.934 45.5092 238.934 44.1246ZM247.199 31.5891C247.199 31.8691 247.426 32.0961 247.706 32.0961C247.986 32.0961 248.213 31.8691 248.213 31.5891C248.213 31.309 247.986 31.082 247.706 31.082C247.426 31.082 247.199 31.309 247.199 31.5891ZM247.706 29.082C246.321 29.082 245.199 30.2045 245.199 31.5891C245.199 32.9737 246.321 34.0961 247.706 34.0961C249.091 34.0961 250.213 32.9737 250.213 31.5891C250.213 30.2045 249.091 29.082 247.706 29.082ZM247.706 38.3634C247.426 38.3634 247.199 38.1364 247.199 37.8564C247.199 37.5764 247.426 37.3493 247.706 37.3493C247.986 37.3493 248.213 37.5764 248.213 37.8564C248.213 38.1364 247.986 38.3634 247.706 38.3634ZM245.199 37.8564C245.199 36.4718 246.321 35.3493 247.706 35.3493C249.091 35.3493 250.213 36.4718 250.213 37.8564C250.213 39.241 249.091 40.3634 247.706 40.3634C246.321 40.3634 245.199 39.241 245.199 37.8564ZM247.199 44.1246C247.199 44.4047 247.426 44.6317 247.706 44.6317C247.986 44.6317 248.213 44.4047 248.213 44.1246C248.213 43.8446 247.986 43.6176 247.706 43.6176C247.426 43.6176 247.199 43.8446 247.199 44.1246ZM247.706 41.6176C246.321 41.6176 245.199 42.74 245.199 44.1246C245.199 45.5092 246.321 46.6317 247.706 46.6317C249.091 46.6317 250.213 45.5092 250.213 44.1246C250.213 42.74 249.091 41.6176 247.706 41.6176ZM253.979 32.0961C253.699 32.0961 253.472 31.8691 253.472 31.5891C253.472 31.309 253.699 31.082 253.979 31.082C254.259 31.082 254.486 31.309 254.486 31.5891C254.486 31.8691 254.259 32.0961 253.979 32.0961ZM251.472 31.5891C251.472 30.2045 252.594 29.082 253.979 29.082C255.364 29.082 256.486 30.2045 256.486 31.5891C256.486 32.9737 255.364 34.0961 253.979 34.0961C252.594 34.0961 251.472 32.9737 251.472 31.5891ZM253.472 37.8564C253.472 38.1364 253.699 38.3634 253.979 38.3634C254.259 38.3634 254.486 38.1364 254.486 37.8564C254.486 37.5764 254.259 37.3493 253.979 37.3493C253.699 37.3493 253.472 37.5764 253.472 37.8564ZM253.979 35.3493C252.594 35.3493 251.472 36.4718 251.472 37.8564C251.472 39.241 252.594 40.3634 253.979 40.3634C255.364 40.3634 256.486 39.241 256.486 37.8564C256.486 36.4718 255.364 35.3493 253.979 35.3493ZM253.979 44.6317C253.699 44.6317 253.472 44.4047 253.472 44.1246C253.472 43.8446 253.699 43.6176 253.979 43.6176C254.259 43.6176 254.486 43.8446 254.486 44.1246C254.486 44.4047 254.259 44.6317 253.979 44.6317ZM251.472 44.1246C251.472 42.74 252.594 41.6176 253.979 41.6176C255.364 41.6176 256.486 42.74 256.486 44.1246C256.486 45.5092 255.364 46.6317 253.979 46.6317C252.594 46.6317 251.472 45.5092 251.472 44.1246Z" fill="black"/>
<circle cx="302.07" cy="95.6173" r="25.0704" fill="white"/>
<circle cx="302.07" cy="95.6173" r="26.0704" stroke="black" stroke-opacity="0.1" stroke-width="2"/>
<rect x="293.297" y="105.646" width="8.14788" height="3.76056" rx="1.88028" fill="#86EC16"/>
<rect x="303.635" y="106.587" width="6.2676" height="1.88028" rx="0.94014" stroke="black" stroke-width="1.88028"/>
<rect x="291.789" y="81.5752" width="20.5634" height="29.338" rx="3" stroke="black" stroke-width="2"/>
<line x1="293.297" y1="84.5898" x2="305.832" y2="84.5898" stroke="#86EC16" stroke-width="2"/>
<rect x="294.301" y="87.6299" width="3.01408" height="2.84221" rx="1.42111" stroke="black" stroke-width="2"/>
<rect x="294.301" y="93.6816" width="3.01408" height="2.84221" rx="1.42111" stroke="black" stroke-width="2"/>
<rect x="294.301" y="99.7344" width="3.01408" height="2.84221" rx="1.42111" stroke="black" stroke-width="2"/>
<rect x="300.566" y="87.6289" width="3.01408" height="2.84221" rx="1.42111" stroke="black" stroke-width="2"/>
<rect x="300.566" y="93.6816" width="3.01408" height="2.84221" rx="1.42111" stroke="black" stroke-width="2"/>
<rect x="300.566" y="99.7344" width="3.01408" height="2.84221" rx="1.42111" stroke="black" stroke-width="2"/>
<rect x="306.84" y="87.6289" width="3.01408" height="2.84221" rx="1.42111" stroke="black" stroke-width="2"/>
<rect x="306.84" y="93.6816" width="3.01408" height="2.84221" rx="1.42111" stroke="black" stroke-width="2"/>
<rect x="306.84" y="99.7344" width="3.01408" height="2.84221" rx="1.42111" stroke="black" stroke-width="2"/>
<rect y="76.5469" width="325" height="42" fill="url(#paint1_linear)"/>
<defs>
<linearGradient id="paint0_linear" x1="162.5" y1="18.5469" x2="162.5" y2="343.547" gradientUnits="userSpaceOnUse">
<stop stop-color="#9BA3A2"/>
<stop offset="1" stop-color="#626A69"/>
</linearGradient>
<linearGradient id="paint1_linear" x1="209.02" y1="113.547" x2="209.02" y2="76.5469" gradientUnits="userSpaceOnUse">
<stop stop-color="white"/>
<stop offset="1" stop-color="#EEEEEE" stop-opacity="0"/>
</linearGradient>
</defs>
</svg>
