<svg width="27" height="24" viewBox="0 0 27 24" fill="none" xmlns="http://www.w3.org/2000/svg">
<path d="M6.3212 6.99068C8.18053 6.99068 9.68782 5.48339 9.68782 3.62406C9.68782 1.76473 8.18053 0.257446 6.3212 0.257446C4.46187 0.257446 2.95459 1.76473 2.95459 3.62406C2.95459 5.48339 4.46187 6.99068 6.3212 6.99068Z" fill="black"/>
<path d="M14.1092 7.92366C15.9685 7.92366 17.4758 6.41637 17.4758 4.55704C17.4758 2.69771 15.9685 1.19043 14.1092 1.19043C12.2498 1.19043 10.7426 2.69771 10.7426 4.55704C10.7426 6.41637 12.2498 7.92366 14.1092 7.92366Z" fill="black"/>
<path d="M2.42738 18.1046C3.15749 18.1046 3.72535 17.5367 3.72535 16.8066V12.1826C3.72535 10.6413 5.06389 9.42442 6.64579 9.62723C7.94376 9.78948 8.87668 10.9658 8.87668 12.2637C8.87668 12.2637 8.87668 12.2637 8.87668 12.3043C8.87668 12.3449 8.87668 12.3854 8.87668 12.426C8.87668 12.426 8.87668 12.426 8.87668 12.4665C8.87668 12.9938 8.87668 15.1436 8.87668 22.4447C8.87668 23.1748 9.44454 23.7427 10.1747 23.7427C10.9048 23.7427 11.4726 23.1748 11.4726 22.4447V13.1155C11.4726 11.5742 12.8112 10.3573 14.3931 10.5601C15.691 10.7224 16.624 11.8987 16.624 13.1967V22.4041C16.624 23.1343 17.1918 23.7021 17.9219 23.7021C18.652 23.7021 19.2199 23.1343 19.2199 22.4041C19.2199 15.0625 19.2199 12.8722 19.2199 12.3449C19.2199 12.3449 19.2199 12.3449 19.2199 12.3043C19.2199 12.2637 19.2199 12.2232 19.2199 12.1826V12.1421C19.2199 10.6007 20.5584 9.38386 22.1403 9.58667C23.4383 9.74892 24.3712 10.9252 24.3712 12.2232V16.7661C24.3712 17.4962 24.9391 18.0641 25.6692 18.0641C26.3993 18.0641 26.9672 17.4962 26.9672 16.7661V12.1826C26.9672 10.763 26.3993 9.46499 25.4258 8.49151C24.9391 8.00477 24.3712 7.63971 23.7222 7.35578C23.1138 7.68027 22.4648 7.84252 21.7347 7.84252C21.0452 7.84252 20.3556 7.68027 19.7878 7.35578C18.8548 7.7614 18.0436 8.45095 17.4757 9.26218C17.0296 8.85656 16.5023 8.49151 15.9344 8.24814C15.326 8.57263 14.677 8.73488 13.9469 8.73488C13.2573 8.73488 12.5678 8.57263 11.9999 8.24814C11.4321 8.49151 10.9453 8.816 10.4991 9.22162C10.2963 8.93769 10.0935 8.65375 9.85016 8.41038C9.36342 7.92364 8.79556 7.55859 8.14657 7.27466C7.53815 7.59915 6.88916 7.7614 6.15905 7.7614C5.4695 7.7614 4.77996 7.59915 4.21209 7.27466C2.3057 8.08589 0.967163 10.0328 0.967163 12.2232V16.685C1.12941 17.4962 1.69727 18.1046 2.42738 18.1046ZM19.3416 12.3043V12.2637C19.3416 12.2637 19.3416 12.2637 19.3416 12.3043Z" fill="black"/>
<path d="M21.8969 6.99068C23.7562 6.99068 25.2635 5.48339 25.2635 3.62406C25.2635 1.76473 23.7562 0.257446 21.8969 0.257446C20.0376 0.257446 18.5303 1.76473 18.5303 3.62406C18.5303 5.48339 20.0376 6.99068 21.8969 6.99068Z" fill="black"/>
</svg>
