<svg width="70" height="70" viewBox="0 0 70 70" fill="none" xmlns="http://www.w3.org/2000/svg">
<path fill-rule="evenodd" clip-rule="evenodd" d="M68 13C68 10.7909 66.2091 9 64 9H26C23.7909 9 22 10.7909 22 13V31H32C35.3137 31 38 33.6863 38 37V39H54L62 47V39H64C66.2091 39 68 37.2091 68 35V13ZM36 39V37C36 34.7909 34.2091 33 32 33H22V35H34V39H36ZM45 32C40.0591 32 36 27.9855 36 23.0001C36 18.0591 40.0591 14.0002 45.0005 14.0002C45.7005 13.9957 46.3978 14.0847 47.0735 14.2649V19.2942C46.456 18.9856 45.7505 18.7648 45 18.7648C42.6617 18.7648 40.7651 20.6617 40.7651 23.0001C40.7651 25.3385 42.6617 27.2353 45 27.2353C45.75 27.2353 46.456 27.059 47.0735 26.7059V31.7353C46.412 31.9116 45.706 32 45 32ZM49.2355 15.0593V15.059H49.2349C49.2351 15.0591 49.2353 15.0592 49.2355 15.0593ZM49.2355 15.0593V30.9412C52.0589 29.4414 54 26.4412 54 23.0001C54 19.5592 52.1026 16.5592 49.2355 15.0593Z" fill="#86EC16"/>
<path fill-rule="evenodd" clip-rule="evenodd" d="M10 55V53H8H6C4.89543 53 4 52.1046 4 51V37C4 35.8954 4.89543 35 6 35H32C33.1046 35 34 35.8954 34 37V51C34 52.1046 33.1046 53 32 53H15H14.1716L13.5858 53.5858L10 57.1716V55ZM8 62L10 60L15 55H32C34.2091 55 36 53.2091 36 51V37C36 34.7909 34.2091 33 32 33H6C3.79086 33 2 34.7909 2 37V51C2 53.2091 3.79086 55 6 55H8V57V59.1716V62ZM13 46C14.1046 46 15 45.1046 15 44C15 42.8954 14.1046 42 13 42C11.8954 42 11 42.8954 11 44C11 45.1046 11.8954 46 13 46ZM21 44C21 45.1046 20.1046 46 19 46C17.8954 46 17 45.1046 17 44C17 42.8954 17.8954 42 19 42C20.1046 42 21 42.8954 21 44ZM25 46C26.1046 46 27 45.1046 27 44C27 42.8954 26.1046 42 25 42C23.8954 42 23 42.8954 23 44C23 45.1046 23.8954 46 25 46Z" fill="white"/>
</svg>
