<svg width="70" height="70" viewBox="0 0 70 70" fill="none" xmlns="http://www.w3.org/2000/svg">
<path d="M45 6H17C14.7909 6 13 7.79086 13 10V60C13 62.2091 14.7909 64 17 64H53C55.2091 64 57 62.2091 57 60V18M45 6L57 18M45 6V16C45 17.1046 45.8954 18 47 18H57" stroke="black" stroke-width="2"/>
<rect y="29" width="46" height="23" rx="4" fill="#86EC16"/>
<path d="M6.97031 40.5938C6.97031 39.7292 7.06406 38.9453 7.25156 38.2422C7.44427 37.5391 7.73333 36.9401 8.11875 36.4453C8.50417 35.9453 8.98854 35.5599 9.57187 35.2891C10.1604 35.0182 10.8505 34.8828 11.6422 34.8828C12.1943 34.8828 12.7099 34.9635 13.1891 35.125C13.6682 35.2812 14.0849 35.513 14.4391 35.8203C14.7932 36.1224 15.0771 36.4896 15.2906 36.9219C15.5042 37.3542 15.6266 37.8359 15.6578 38.3672H13.5719C13.5198 37.7891 13.3141 37.3568 12.9547 37.0703C12.6005 36.7839 12.1135 36.6406 11.4937 36.6406C11.1656 36.6406 10.8583 36.6953 10.5719 36.8047C10.2906 36.9089 10.0484 37.0573 9.84531 37.25C9.64219 37.4427 9.48333 37.6771 9.36875 37.9531C9.25937 38.2292 9.20469 38.5391 9.20469 38.8828V42.2109C9.20469 42.5391 9.26458 42.8438 9.38437 43.125C9.50937 43.401 9.67865 43.6406 9.89219 43.8438C10.1057 44.0417 10.3531 44.1979 10.6344 44.3125C10.9208 44.4219 11.2281 44.4766 11.5562 44.4766C12.2073 44.4766 12.7099 44.3359 13.0641 44.0547C13.4182 43.7734 13.6474 43.3125 13.7516 42.6719H15.8297C15.7464 43.3021 15.5823 43.8411 15.3375 44.2891C15.0927 44.737 14.7828 45.1042 14.4078 45.3906C14.0328 45.6771 13.6005 45.8906 13.1109 46.0312C12.6214 46.1719 12.0927 46.2422 11.525 46.2422C10.7333 46.2422 10.0536 46.1016 9.48594 45.8203C8.91823 45.5339 8.44687 45.1406 8.07187 44.6406C7.69687 44.1406 7.41823 43.5469 7.23594 42.8594C7.05885 42.1667 6.97031 41.4115 6.97031 40.5938ZM18.8125 42.75H20.8906C20.974 43.3906 21.2188 43.849 21.625 44.125C22.0312 44.3958 22.5547 44.5312 23.1953 44.5312C23.8047 44.5312 24.3177 44.4062 24.7344 44.1562C25.151 43.901 25.3594 43.5339 25.3594 43.0547C25.3594 42.6693 25.2396 42.362 25 42.1328C24.7604 41.9036 24.3932 41.7266 23.8984 41.6016L21.7734 41.0391C20.8776 40.8047 20.2135 40.4219 19.7812 39.8906C19.349 39.3542 19.1328 38.6875 19.1328 37.8906C19.1328 37.4531 19.2266 37.0495 19.4141 36.6797C19.6016 36.3099 19.8646 35.9922 20.2031 35.7266C20.5469 35.4609 20.9635 35.2552 21.4531 35.1094C21.9427 34.9583 22.4922 34.8828 23.1016 34.8828C23.6536 34.8828 24.1667 34.9479 24.6406 35.0781C25.1198 35.2031 25.5339 35.3984 25.8828 35.6641C26.237 35.9297 26.526 36.2708 26.75 36.6875C26.974 37.1042 27.112 37.5938 27.1641 38.1562H25.0859C25.0547 37.8594 24.9766 37.6094 24.8516 37.4062C24.7318 37.2031 24.5807 37.0417 24.3984 36.9219C24.2161 36.7969 24.0104 36.7109 23.7812 36.6641C23.5521 36.6172 23.3151 36.5938 23.0703 36.5938C22.4922 36.5938 22.0365 36.7083 21.7031 36.9375C21.375 37.1667 21.2109 37.4792 21.2109 37.875C21.2109 38.2917 21.3385 38.6094 21.5938 38.8281C21.8542 39.0417 22.2448 39.2188 22.7656 39.3594L24.6172 39.8438C25.5443 40.0885 26.2448 40.4583 26.7188 40.9531C27.1979 41.4479 27.4375 42.1432 27.4375 43.0391C27.4375 43.5391 27.3359 43.987 27.1328 44.3828C26.9297 44.7786 26.6406 45.1146 26.2656 45.3906C25.8958 45.6667 25.4505 45.8776 24.9297 46.0234C24.4141 46.1693 23.8464 46.2422 23.2266 46.2422C22.6172 46.2422 22.0547 46.1771 21.5391 46.0469C21.0234 45.9219 20.5703 45.7214 20.1797 45.4453C19.7891 45.1641 19.474 44.8021 19.2344 44.3594C18.9948 43.9167 18.8542 43.3802 18.8125 42.75ZM30.2484 35.1172H32.5063L34.8266 43.6172H34.8891L37.1625 35.1172H39.4516L35.9984 46H33.6938L30.2484 35.1172Z" fill="black"/>
</svg>
