<svg width="30" height="30" viewBox="0 0 30 30" fill="none" xmlns="http://www.w3.org/2000/svg">
<path fill-rule="evenodd" clip-rule="evenodd" d="M14 4V9H12V4H14ZM10 9L10 5L8 5L8 9H10ZM6 11H7H19H20V12V13H23H24V14V17C24 19.6946 21.8685 21.8913 19.1996 21.9961C18.1627 23.7916 16.2225 25 14 25H12C8.68629 25 6 22.3137 6 19V12V11ZM20 19.8293V19V15H22V17C22 18.3062 21.1652 19.4175 20 19.8293ZM8 13H18V14V19C18 21.2091 16.2091 23 14 23H12C9.79086 23 8 21.2091 8 19V13ZM18 9V5L16 5V9H18Z" fill="black"/>
</svg>
