<?xml version="1.0" encoding="UTF-8" standalone="no"?>
<svg
   width="64"
   height="64"
   viewBox="0 0 64 64"
   fill="none"
   version="1.1"
   id="svg20"
   sodipodi:docname="customer.svg"
   inkscape:version="1.1.2 (0a00cf5339, 2022-02-04)"
   xmlns:inkscape="http://www.inkscape.org/namespaces/inkscape"
   xmlns:sodipodi="http://sodipodi.sourceforge.net/DTD/sodipodi-0.dtd"
   xmlns="http://www.w3.org/2000/svg"
   xmlns:svg="http://www.w3.org/2000/svg">
  <defs
     id="defs24">
    <inkscape:path-effect
       effect="spiro"
       id="path-effect2325"
       is_visible="true"
       lpeversion="1" />
  </defs>
  <sodipodi:namedview
     id="namedview22"
     pagecolor="#ffffff"
     bordercolor="#666666"
     borderopacity="1.0"
     inkscape:pageshadow="2"
     inkscape:pageopacity="0.0"
     inkscape:pagecheckerboard="0"
     showgrid="false"
     inkscape:zoom="5.03125"
     inkscape:cx="8.6459627"
     inkscape:cy="58.236025"
     inkscape:window-width="1920"
     inkscape:window-height="1027"
     inkscape:window-x="0"
     inkscape:window-y="0"
     inkscape:window-maximized="1"
     inkscape:current-layer="svg20" />
  <path
     fill-rule="evenodd"
     clip-rule="evenodd"
     d="M62.0004 64H64.0009C63.6705 51.7146 60.4576 40.9236 49.4154 36.1236L48.6181 37.9578C58.5287 42.2659 61.6701 51.9603 62.0004 64ZM2.00056 64H0C0.336192 51.7427 3.59221 40.9452 14.5819 36.1249L15.3853 37.9565C5.51791 42.2845 2.33648 51.995 2.00056 64Z"
     fill="black"
     id="path2"
     style="fill:#99a1a0;fill-opacity:1" />
  <path
     d="M28.9985 22C28.9985 24.2082 27.2064 26 24.9936 26C22.7809 26 20.9888 24.2082 20.9888 22C20.9888 19.7918 22.7809 18 24.9936 18C27.2064 18 28.9985 19.7918 28.9985 22Z"
     stroke="black"
     stroke-width="2"
     id="path4"
     style="stroke:#99a1a0;stroke-opacity:1" />
  <path
     d="M43.0122 22C43.0122 24.2082 41.2201 26 39.0073 26C36.7946 26 35.0024 24.2082 35.0024 22C35.0024 19.7918 36.7946 18 39.0073 18C41.2201 18 43.0122 19.7918 43.0122 22Z"
     stroke="black"
     stroke-width="2"
     id="path6"
     style="stroke:#99a1a0;stroke-opacity:1" />
  <path
     d="M63.0308 26C63.0308 31.5229 56.5473 36 51.0191 36L52.449 26L51.0191 16C56.5473 16 63.0308 20.4772 63.0308 26Z"
     fill="#C4C4C4"
     id="path8"
     style="fill:#757d7c;fill-opacity:1" />
  <path
     d="M0.969727 26C0.969727 31.5229 7.45319 36 12.9814 36L11.5514 26L12.9814 16C7.45319 16 0.969727 20.4772 0.969727 26Z"
     fill="#C4C4C4"
     id="path10"
     style="fill:#757d7c;fill-opacity:1" />
  <path
     d="M53.0209 21V20C53.0209 10.0589 44.962 2 35.0209 2H28.98C19.0389 2 10.98 10.0589 10.98 20V21"
     stroke="#C4C4C4"
     stroke-width="4"
     id="path12"
     style="stroke:#757d7c;stroke-opacity:1" />
  <path
     d="M52.0209 26C52.0209 37.0448 43.0583 46 32.0004 46C20.9425 46 11.98 37.0448 11.98 26C11.98 14.9552 20.9425 6 32.0004 6C43.0583 6 52.0209 14.9552 52.0209 26Z"
     stroke="black"
     stroke-width="2"
     id="path14"
     style="stroke:#99a1a0;stroke-opacity:1" />
  <path
     d="m 39.5078,35 c 2.444333,0.08141 6.082425,-0.155218 9.165212,-1.117605 C 51.902393,32.874243 54.5224,31.069672 54.5224,28"
     stroke="#c4c4c4"
     stroke-width="2"
     id="path16"
     sodipodi:nodetypes="csc"
     style="stroke:#757d7c;stroke-opacity:1" />
  <path
     style="fill:#99a1a0;fill-opacity:1;stroke:#99a1a0;stroke-width:0.261;stroke-opacity:1"
     id="path1905"
     sodipodi:type="arc"
     sodipodi:cx="24.017963"
     sodipodi:cy="23.440241"
     sodipodi:rx="1.7704927"
     sodipodi:ry="1.5501019"
     sodipodi:start="0"
     sodipodi:end="0.093306174"
     sodipodi:open="true"
     sodipodi:arc-type="arc"
     d="m 25.788456,23.440241 a 1.7704927,1.5501019 0 0 1 -0.0077,0.144424" />
  <path
     style="fill:#99a1a0;fill-opacity:1;stroke:#99a1a0;stroke-width:0.261;stroke-opacity:1"
     id="path1931"
     sodipodi:type="arc"
     sodipodi:cx="25.475224"
     sodipodi:cy="22.471968"
     sodipodi:rx="1.1913152"
     sodipodi:ry="1.1126983"
     sodipodi:start="0"
     sodipodi:end="4.8217617"
     sodipodi:arc-type="slice"
     d="m 26.666539,22.471968 a 1.1913152,1.1126983 0 0 1 -0.76568,1.039256 1.1913152,1.1126983 0 0 1 -1.312807,-0.296642 1.1913152,1.1126983 0 0 1 -0.172404,-1.251225 1.1913152,1.1126983 0 0 1 1.189613,-0.597439 l -0.130037,1.10605 z" />
  <path
     style="fill:#99a1a0;fill-opacity:1;stroke:#99a1a0;stroke-width:0.261;stroke-opacity:1"
     id="path1931-7"
     sodipodi:type="arc"
     sodipodi:cx="39.24052"
     sodipodi:cy="22.32522"
     sodipodi:rx="1.1913152"
     sodipodi:ry="1.1126983"
     sodipodi:start="0"
     sodipodi:end="4.8217617"
     sodipodi:arc-type="slice"
     d="m 40.431836,22.32522 a 1.1913152,1.1126983 0 0 1 -0.76568,1.039257 1.1913152,1.1126983 0 0 1 -1.312807,-0.296642 1.1913152,1.1126983 0 0 1 -0.172404,-1.251226 1.1913152,1.1126983 0 0 1 1.189613,-0.597439 l -0.130038,1.10605 z" />
  <path
     style="fill:none;stroke:#99a1a0;stroke-width:1px;stroke-linecap:butt;stroke-linejoin:miter;stroke-opacity:1"
     d="m 24.263313,34.612835 c 1.467696,1.720282 3.520081,2.932408 5.735188,3.387165 1.70014,0.349035 3.488943,0.256729 5.144126,-0.265449 C 36.797811,37.212372 38.315743,36.261468 39.5078,35"
     id="path2323"
     inkscape:path-effect="#path-effect2325"
     inkscape:original-d="m 24.263313,34.612835 c 1.91273,1.130055 3.824459,2.25911 5.735188,3.387165 1.910729,1.128055 6.340533,-1.999 9.509299,-3" />
  <rect
     x="28.081106"
     y="32.080746"
     width="12.0117"
     height="6"
     rx="3"
     fill="#C4C4C4"
     id="rect18"
     style="fill:#757d7c;fill-opacity:1" />
</svg>
