<svg width="30" height="30" viewBox="0 0 30 30" fill="none" xmlns="http://www.w3.org/2000/svg">
<path d="M23.9593 18.5287L23.3766 17.716L22.8379 18.1023L22.9838 18.7489L23.9593 18.5287ZM19.7557 19.9712L20.6095 19.4506L20.2904 18.9273L19.6792 18.9741L19.7557 19.9712ZM26 23V24H27.9611L26.8094 22.4127L26 23ZM25.9524 22.9344L26.7618 22.3471L26.7618 22.3471L25.9524 22.9344ZM25 15C25 15.9716 24.4518 16.9451 23.3766 17.716L24.542 19.3414C25.989 18.3038 27 16.7829 27 15H25ZM19 11C20.7486 11 22.2899 11.5078 23.3685 12.2782C24.449 13.05 25 14.0261 25 15H27C27 13.2125 25.984 11.6886 24.531 10.6507C23.0761 9.61151 21.1174 9 19 9V11ZM13 15C13 14.0261 13.551 13.05 14.6315 12.2782C15.7101 11.5078 17.2514 11 19 11V9C16.8826 9 14.9239 9.61151 13.469 10.6507C12.016 11.6886 11 13.2125 11 15H13ZM19 19C17.2514 19 15.7101 18.4922 14.6315 17.7218C13.551 16.95 13 15.9739 13 15H11C11 16.7875 12.016 18.3114 13.469 19.3493C14.9239 20.3885 16.8826 21 19 21V19ZM19.6792 18.9741C19.4565 18.9912 19.2298 19 19 19V21C19.2808 21 19.5584 20.9893 19.8321 20.9683L19.6792 18.9741ZM25.15 22C23.2575 22 21.5549 21.0012 20.6095 19.4506L18.9019 20.4918C20.2019 22.6241 22.544 24 25.15 24V22ZM26 22H25.15V24H26V22ZM25.143 23.5217L25.1906 23.5873L26.8094 22.4127L26.7618 22.3471L25.143 23.5217ZM22.9838 18.7489C23.3711 20.465 24.104 22.0898 25.143 23.5217L26.7618 22.3471C25.8826 21.1355 25.2625 19.7607 24.9347 18.3086L22.9838 18.7489Z" fill="black"/>
<path fill-rule="evenodd" clip-rule="evenodd" d="M5 14C5 10.9056 8.33328 8 13 8C13.3256 8 13.6447 8.01414 13.9566 8.0415C15.1638 7.49804 16.5177 7.15684 17.9349 7.04267C16.4539 6.37329 14.7574 6 13 6C7.7256 6 3 9.3624 3 14C3 16.2094 4.10517 18.1559 5.80074 19.5612C5.36684 20.5642 4.82649 21.5225 4.18627 22.4188L3.05681 24H5H7.32917C9.49161 24 11.513 23.261 13.1215 21.9994C13.4046 21.9966 13.6861 21.9842 13.9652 21.9624C13.4089 21.7125 12.8837 21.4198 12.3977 21.0866C12.1652 20.9271 11.934 20.7521 11.7079 20.562C10.4721 21.4722 8.95151 22 7.32917 22H6.81995C7.25822 21.2223 7.6358 20.4133 7.94988 19.5802L8.22516 18.8501L7.58388 18.4056C5.93915 17.2655 5 15.6789 5 14Z" fill="black"/>
<circle cx="16" cy="15" r="1" fill="black"/>
<circle cx="19" cy="15" r="1" fill="black"/>
<circle cx="22" cy="15" r="1" fill="black"/>
</svg>
