<svg width="64" height="64" viewBox="0 0 64 64" fill="none" xmlns="http://www.w3.org/2000/svg">
<path fill-rule="evenodd" clip-rule="evenodd" d="M62.0004 64.0001H64.0009C63.6705 51.7146 60.4576 40.9236 49.4154 36.1237L48.6181 37.9579C58.5287 42.266 61.6701 51.9604 62.0004 64.0001ZM2.00056 64.0001H0C0.336192 51.7428 3.59221 40.9453 14.5819 36.125L15.3853 37.9565C5.51791 42.2846 2.33648 51.995 2.00056 64.0001Z" fill="black"/>
<path d="M28.9986 22C28.9986 24.2082 27.2065 26 24.9938 26C22.781 26 20.9889 24.2082 20.9889 22C20.9889 19.7918 22.781 18 24.9938 18C27.2065 18 28.9986 19.7918 28.9986 22Z" stroke="black" stroke-width="2"/>
<path d="M43.0123 22C43.0123 24.2082 41.2202 26 39.0074 26C36.7947 26 35.0026 24.2082 35.0026 22C35.0026 19.7918 36.7947 18 39.0074 18C41.2202 18 43.0123 19.7918 43.0123 22Z" stroke="black" stroke-width="2"/>
<path d="M63.0308 26C63.0308 31.5229 56.5473 36 51.0191 36L52.449 26L51.0191 16C56.5473 16 63.0308 20.4772 63.0308 26Z" fill="#86EC16"/>
<path d="M0.969971 26C0.969971 31.5229 7.45343 36 12.9817 36L11.5517 26L12.9817 16C7.45343 16 0.969971 20.4772 0.969971 26Z" fill="#86EC16"/>
<path d="M53.021 21V20C53.021 10.0589 44.9621 2 35.021 2H28.9801C19.039 2 10.9801 10.0589 10.9801 20V21" stroke="#86EC16" stroke-width="4"/>
<path d="M52.021 26C52.021 37.0448 43.0585 46 32.0006 46C20.9426 46 11.9801 37.0448 11.9801 26C11.9801 14.9552 20.9426 6 32.0006 6C43.0585 6 52.021 14.9552 52.021 26Z" stroke="black" stroke-width="2"/>
<path d="M39.5079 35C44.5128 35.1667 54.5225 34 54.5225 28" stroke="#86EC16" stroke-width="2"/>
<rect x="29.9985" y="32" width="12.0117" height="6" rx="3" fill="#86EC16"/>
</svg>
