<svg width="70" height="71" viewBox="0 0 70 71" fill="none" xmlns="http://www.w3.org/2000/svg">
<circle cx="35" cy="35.5" r="34" stroke="black" stroke-width="2"/>
<path fill-rule="evenodd" clip-rule="evenodd" d="M16 20.5C16 14.4249 20.9249 9.5 27 9.5H43C49.0751 9.5 54 14.4249 54 20.5C54 26.5751 49.0751 31.5 43 31.5H27C20.9249 31.5 16 26.5751 16 20.5ZM30.5858 20.5L26.2929 16.2071L27.7071 14.7929L32.7071 19.7929L33.4142 20.5L32.7071 21.2071L27.7071 26.2071L26.2929 24.7929L30.5858 20.5ZM36 25.5H44.5V23.5H36V25.5Z" fill="#86EC16"/>
<path d="M29.0909 69.5V65.8191C29.0909 63.5682 27.7443 61.5875 26.1053 60.0448C23.5784 57.6664 22 54.2866 22 50.537C22 43.3369 27.8203 37.5 35 37.5C42.1797 37.5 48 43.3369 48 50.537C48 54.2866 46.4216 57.6664 43.8947 60.0448C42.2557 61.5875 40.9091 63.5682 40.9091 65.8191V69.5" stroke="black" stroke-width="2"/>
<path d="M30.5 53.5C29.1193 53.5 28 52.3807 28 51C28 49.6193 29.1193 48.5 30.5 48.5C31.8807 48.5 33 49.6193 33 51V69" stroke="black" stroke-width="2"/>
<path d="M37 69V51C37 49.6193 38.1193 48.5 39.5 48.5C40.8807 48.5 42 49.6193 42 51C42 52.3807 40.8807 53.5 39.5 53.5H30.5" stroke="black" stroke-width="2"/>
</svg>
