<svg width="70" height="70" viewBox="0 0 70 70" fill="none" xmlns="http://www.w3.org/2000/svg">
<line x1="1.3999" y1="17.2002" x2="68.5999" y2="17.2002" stroke="black" stroke-width="2"/>
<rect x="1" y="4" width="68" height="62" rx="2" stroke="black" stroke-width="2"/>
<ellipse cx="7.7001" cy="10.5004" rx="2.1" ry="2.1" fill="black"/>
<ellipse cx="14.7001" cy="10.5004" rx="2.1" ry="2.1" fill="black"/>
<circle cx="21.7001" cy="10.5004" r="2.1" fill="black"/>
<path fill-rule="evenodd" clip-rule="evenodd" d="M42 28C33.7157 28 27 34.7157 27 43C27 51.2843 33.7157 58 42 58C50.2843 58 57 51.2843 57 43C57 42.9999 57 42.9998 57 42.9997H42L42 28Z" fill="#86EC16"/>
<path d="M60.4 37.5439H61.4V37.4621L61.3867 37.3814L60.4 37.5439ZM60.4 39.9996V40.9996H61.4V39.9996H60.4ZM45 39.9996H44V40.9996H45V39.9996ZM45 25.0118L44.9607 24.0126L44 24.0504V25.0118H45ZM59.4 37.5439V39.9996H61.4V37.5439H59.4ZM60.4 38.9996H45V40.9996H60.4V38.9996ZM46 39.9996V25.0118H44V39.9996H46ZM45.0393 26.011C45.2253 26.0037 45.4122 26 45.6001 26V24C45.386 24 45.1728 24.0042 44.9607 24.0126L45.0393 26.011ZM45.6001 26C52.5504 26 58.3195 31.0657 59.4133 37.7064L61.3867 37.3814C60.1364 29.7903 53.5454 24 45.6001 24V26Z" fill="black"/>
<line x1="7" y1="28" x2="23" y2="28" stroke="black" stroke-width="2"/>
<line x1="7" y1="34" x2="20" y2="34" stroke="black" stroke-width="2"/>
<line x1="7" y1="39" x2="18" y2="39" stroke="black" stroke-width="2"/>
<circle cx="12.5" cy="50.5" r="4.5" stroke="black" stroke-width="2"/>
</svg>
