<svg width="26" height="26" viewBox="0 0 26 26" fill="none" xmlns="http://www.w3.org/2000/svg">
<mask id="path-1-inside-1" fill="white">
<path fill-rule="evenodd" clip-rule="evenodd" d="M8.77182 24.0548C8.77182 22.7287 7.33588 21.9 6.18742 22.5631C5.36329 23.0389 4.30927 22.7567 3.83346 21.9325L1.05611 17.122C0.580526 16.2983 0.862758 15.245 1.68649 14.7694C2.83465 14.1065 2.83446 12.4492 1.6863 11.7863C0.862463 11.3106 0.580084 10.2572 1.05572 9.43332L3.83286 4.62317C4.30873 3.79894 5.3628 3.51661 6.18703 3.99248C7.33573 4.65568 8.77182 3.82681 8.77182 2.50042C8.77182 1.54881 9.54325 0.777378 10.4949 0.777377L16.0497 0.777378C17.0008 0.777379 17.7718 1.54865 17.7718 2.49977C17.7718 3.82518 19.2066 4.65399 20.3545 3.99128C21.178 3.51583 22.231 3.79799 22.7064 4.62149L25.4842 9.43276C25.9599 10.2567 25.6775 11.3103 24.8536 11.786C23.7053 12.449 23.7051 14.1066 24.8534 14.7695C25.6772 15.2452 25.9595 16.2986 25.4838 17.1225L22.7058 21.9341C22.2304 22.7575 21.1776 23.0396 20.3541 22.5642C19.2064 21.9016 17.7718 22.7302 17.7718 24.0555C17.7718 25.0064 17.0009 25.7775 16.05 25.7775L10.4945 25.7775C9.5431 25.7775 8.77182 25.0062 8.77182 24.0548Z"/>
</mask>
<path d="M16.05 25.7775L16.05 27.7775L16.05 25.7775ZM22.7058 21.9341L24.4379 22.9341L22.7058 21.9341ZM25.4838 17.1225L27.2159 18.1225L25.4838 17.1225ZM25.4842 9.43276L23.7522 10.4328L25.4842 9.43276ZM22.7064 4.62149L20.9744 5.62149L22.7064 4.62149ZM10.4949 0.777377L10.4949 2.77738L10.4949 0.777377ZM3.83286 4.62317L5.56492 5.62317L3.83286 4.62317ZM1.05572 9.43332L2.78778 10.4333L1.05572 9.43332ZM-0.675942 18.122L2.10141 22.9325L5.56551 20.9325L2.78816 16.122L-0.675942 18.122ZM2.78778 10.4333L5.56492 5.62317L2.10081 3.62317L-0.676327 8.43332L2.78778 10.4333ZM16.0497 -1.22262L10.4949 -1.22262L10.4949 2.77738L16.0497 2.77738L16.0497 -1.22262ZM27.2163 8.43276L24.4385 3.62149L20.9744 5.62149L23.7522 10.4328L27.2163 8.43276ZM24.4379 22.9341L27.2159 18.1225L23.7518 16.1225L20.9738 20.9341L24.4379 22.9341ZM10.4945 27.7775L16.05 27.7775L16.05 23.7775L10.4945 23.7775L10.4945 27.7775ZM10.4945 23.7775C10.6477 23.7775 10.7718 23.9016 10.7718 24.0548L6.77182 24.0548C6.77182 26.1108 8.43853 27.7775 10.4945 27.7775L10.4945 23.7775ZM15.7718 24.0555C15.7718 23.9021 15.8961 23.7775 16.05 23.7775L16.05 27.7775C18.1058 27.7775 19.7718 26.1107 19.7718 24.0555L15.7718 24.0555ZM21.3541 20.8322C18.8726 19.3994 15.7718 21.1913 15.7718 24.0555L19.7718 24.0555C19.7718 24.2692 19.5403 24.4038 19.3541 24.2963L21.3541 20.8322ZM20.9738 20.9341C21.0507 20.8009 21.221 20.7553 21.3541 20.8322L19.3541 24.2963C21.1341 25.324 23.4102 24.7141 24.4379 22.9341L20.9738 20.9341ZM23.8534 16.5016C23.7206 16.4249 23.6751 16.2552 23.7518 16.1225L27.2159 18.1225C28.2438 16.342 27.6338 14.0654 25.8534 13.0375L23.8534 16.5016ZM23.8536 10.054C21.3723 11.4865 21.3713 15.0686 23.8534 16.5016L25.8534 13.0375C26.0388 13.1445 26.0382 13.4115 25.8536 13.5181L23.8536 10.054ZM23.7522 10.4328C23.6755 10.2999 23.7211 10.1305 23.8536 10.054L25.8536 13.5181C27.6339 12.4902 28.2444 10.2135 27.2163 8.43276L23.7522 10.4328ZM21.3545 5.72334C21.2214 5.80017 21.0512 5.75457 20.9744 5.62149L24.4385 3.62149C23.4107 1.8414 21.1346 1.2315 19.3545 2.25923L21.3545 5.72334ZM15.7718 2.49977C15.7718 5.36394 18.8726 7.15626 21.3545 5.72334L19.3545 2.25923C19.5407 2.15172 19.7718 2.28642 19.7718 2.49977L15.7718 2.49977ZM16.0497 2.77738C15.8958 2.77738 15.7718 2.65285 15.7718 2.49977L19.7718 2.49977C19.7718 0.444454 18.1057 -1.22262 16.0497 -1.22262L16.0497 2.77738ZM10.7718 2.50042C10.7718 2.65338 10.6478 2.77738 10.4949 2.77738L10.4949 -1.22262C8.43868 -1.22262 6.77182 0.44424 6.77182 2.50042L10.7718 2.50042ZM5.18703 5.72454C7.66861 7.15727 10.7718 5.36693 10.7718 2.50042L6.77182 2.50042C6.77182 2.28669 7.00284 2.15409 7.18703 2.26043L5.18703 5.72454ZM5.56492 5.62317C5.48839 5.75572 5.31919 5.80084 5.18703 5.72454L7.18703 2.26043C5.40641 1.23239 3.12908 1.84216 2.10081 3.62317L5.56492 5.62317ZM2.6863 10.0542C2.81888 10.1308 2.86452 10.3004 2.78778 10.4333L-0.676327 8.43332C-1.70435 10.2139 -1.09395 12.4905 0.686295 13.5183L2.6863 10.0542ZM2.68649 16.5015C5.16838 15.0685 5.1674 11.4867 2.6863 10.0542L0.686295 13.5183C0.501514 13.4117 0.500925 13.1445 0.686493 13.0374L2.68649 16.5015ZM2.78816 16.122C2.86486 16.2549 2.81935 16.4248 2.68649 16.5015L0.686493 13.0374C-1.09383 14.0652 -1.70381 16.3417 -0.675942 18.122L2.78816 16.122ZM7.18742 24.2952C7.00325 24.4015 6.77182 24.2691 6.77182 24.0548L10.7718 24.0548C10.7718 21.1883 7.66851 19.3986 5.18742 20.8311L7.18742 24.2952ZM5.18742 20.8311C5.31956 20.7548 5.48886 20.7998 5.56551 20.9325L2.10141 22.9325C3.12968 24.7136 5.40701 25.3231 7.18742 24.2952L5.18742 20.8311Z" fill="white" mask="url(#path-1-inside-1)"/>
<path d="M10.5005 10.7772L7.5 13.2773L10.5005 15.7772" stroke="#86EC16" stroke-width="2"/>
<path d="M16.0698 10.7772L19.0703 13.2773L16.0698 15.7772" stroke="#86EC16" stroke-width="2"/>
<line x1="12.8099" y1="16.8586" x2="13.8099" y2="9.85858" stroke="#86EC16" stroke-width="2"/>
</svg>
