<svg width="354" height="98" viewBox="0 0 354 98" fill="none" xmlns="http://www.w3.org/2000/svg">
<path d="M207.627 17.7275C207.602 17.2503 207.386 16.8016 207.025 16.4777C206.663 16.1538 206.185 15.9807 205.694 15.9956C198.057 16.1232 182.953 14.8836 170.157 4.43764C169.817 4.15521 169.385 4 168.937 4C168.49 4 168.058 4.15521 167.718 4.43764C154.922 14.8836 139.818 16.1232 132.181 15.9956C131.69 15.9807 131.212 16.1538 130.85 16.4777C130.489 16.8016 130.273 17.2503 130.248 17.7275C129.517 36.0853 129.929 59.3653 138.148 70.3034C146.741 81.7884 164.735 91.5416 168.937 93C173.14 91.5234 191.134 81.7702 199.727 70.3034C207.946 59.3653 208.358 36.0853 207.627 17.7275Z" stroke="url(#paint0_linear)" stroke-width="8"/>
<mask id="mask0" style="mask-type:alpha" maskUnits="userSpaceOnUse" x="168" y="17" width="29" height="62">
<path d="M196.114 28.0508C184.841 28.0508 173.635 21.3405 168.938 17.9854V78.3782C173.97 75.023 182.201 72.7725 190.075 62.2734C196.114 54.2211 195.779 36.7742 196.114 28.0508Z" fill="#C4C4C4"/>
</mask>
<g mask="url(#mask0)">
<rect x="168.938" y="17.9854" width="28.1833" height="22.144" fill="black"/>
<rect x="168.938" y="40.1299" width="28.1833" height="16.1048" fill="#FA2929"/>
<rect x="168.938" y="56.2344" width="28.1833" height="22.144" fill="#FFCF24"/>
</g>
<path d="M235.218 26.2H236.66L239.376 33.172L242.092 26.2H243.52V36H242.316V28.622L239.782 35.104H238.956L236.436 28.622V36H235.218V26.2ZM247.438 36.112C246.803 36.112 246.281 35.9347 245.87 35.58C245.459 35.216 245.254 34.6793 245.254 33.97C245.254 33.2233 245.529 32.654 246.08 32.262C246.64 31.8607 247.405 31.66 248.376 31.66H249.608V31.352C249.608 30.8387 249.468 30.4653 249.188 30.232C248.917 29.9893 248.558 29.868 248.11 29.868C247.335 29.868 246.822 30.2507 246.57 31.016L245.534 30.778C245.627 30.19 245.912 29.7187 246.388 29.364C246.873 29.0093 247.447 28.832 248.11 28.832C248.903 28.832 249.543 29.0653 250.028 29.532C250.513 29.9893 250.756 30.638 250.756 31.478V36H249.846L249.636 34.978C249.151 35.734 248.418 36.112 247.438 36.112ZM247.648 35.076C247.965 35.076 248.273 35.0013 248.572 34.852C248.871 34.6933 249.118 34.4507 249.314 34.124C249.51 33.788 249.608 33.3727 249.608 32.878V32.654H248.418C247.765 32.654 247.275 32.766 246.948 32.99C246.621 33.214 246.458 33.536 246.458 33.956C246.458 34.3107 246.561 34.586 246.766 34.782C246.981 34.978 247.275 35.076 247.648 35.076ZM255.416 36.112C254.754 36.112 254.189 35.958 253.722 35.65C253.256 35.3327 252.901 34.8987 252.658 34.348C252.416 33.7973 252.294 33.172 252.294 32.472C252.294 31.772 252.416 31.1467 252.658 30.596C252.901 30.0453 253.256 29.616 253.722 29.308C254.189 28.9907 254.754 28.832 255.416 28.832C255.864 28.832 256.27 28.9207 256.634 29.098C256.998 29.2753 257.297 29.518 257.53 29.826V29.406V26.088H258.678V36H257.53V35.496V35.076C257.353 35.356 257.068 35.5987 256.676 35.804C256.284 36.0093 255.864 36.112 255.416 36.112ZM255.57 35.076C256.214 35.076 256.718 34.838 257.082 34.362C257.446 33.886 257.628 33.256 257.628 32.472C257.628 31.6973 257.446 31.072 257.082 30.596C256.718 30.1107 256.214 29.868 255.57 29.868C254.926 29.868 254.418 30.1107 254.044 30.596C253.68 31.072 253.498 31.6973 253.498 32.472C253.498 33.2467 253.68 33.8767 254.044 34.362C254.418 34.838 254.926 35.076 255.57 35.076ZM266.744 32.654H261.55C261.578 33.3727 261.774 33.956 262.138 34.404C262.502 34.852 262.997 35.076 263.622 35.076C264.108 35.076 264.504 34.9687 264.812 34.754C265.12 34.5393 265.396 34.1893 265.638 33.704L266.618 34.124C266.282 34.8147 265.872 35.3187 265.386 35.636C264.91 35.9533 264.313 36.112 263.594 36.112C262.932 36.112 262.358 35.9487 261.872 35.622C261.387 35.286 261.014 34.8427 260.752 34.292C260.5 33.732 260.374 33.1253 260.374 32.472C260.374 31.8093 260.5 31.2027 260.752 30.652C261.014 30.092 261.387 29.6487 261.872 29.322C262.358 28.9953 262.932 28.832 263.594 28.832C264.238 28.832 264.798 28.9813 265.274 29.28C265.75 29.5787 266.114 29.98 266.366 30.484C266.618 30.988 266.744 31.548 266.744 32.164V32.654ZM265.568 31.66C265.484 31.1093 265.274 30.6753 264.938 30.358C264.602 30.0313 264.154 29.868 263.594 29.868C263.109 29.868 262.689 30.022 262.334 30.33C261.98 30.638 261.742 31.0813 261.62 31.66H265.568ZM273.77 36.112C273.135 36.112 272.613 35.9347 272.202 35.58C271.791 35.216 271.586 34.6793 271.586 33.97C271.586 33.2233 271.861 32.654 272.412 32.262C272.972 31.8607 273.737 31.66 274.708 31.66H275.94V31.352C275.94 30.8387 275.8 30.4653 275.52 30.232C275.249 29.9893 274.89 29.868 274.442 29.868C273.667 29.868 273.154 30.2507 272.902 31.016L271.866 30.778C271.959 30.19 272.244 29.7187 272.72 29.364C273.205 29.0093 273.779 28.832 274.442 28.832C275.235 28.832 275.875 29.0653 276.36 29.532C276.845 29.9893 277.088 30.638 277.088 31.478V36H276.178L275.968 34.978C275.483 35.734 274.75 36.112 273.77 36.112ZM273.98 35.076C274.297 35.076 274.605 35.0013 274.904 34.852C275.203 34.6933 275.45 34.4507 275.646 34.124C275.842 33.788 275.94 33.3727 275.94 32.878V32.654H274.75C274.097 32.654 273.607 32.766 273.28 32.99C272.953 33.214 272.79 33.536 272.79 33.956C272.79 34.3107 272.893 34.586 273.098 34.782C273.313 34.978 273.607 35.076 273.98 35.076ZM279.019 28.944H280.181V30.302C280.433 29.854 280.764 29.4993 281.175 29.238C281.595 28.9673 282.043 28.832 282.519 28.832C283.181 28.832 283.709 29.028 284.101 29.42C284.493 29.812 284.689 30.3673 284.689 31.086V36H283.541V31.338C283.541 30.8527 283.429 30.4887 283.205 30.246C282.99 29.994 282.668 29.868 282.239 29.868C281.856 29.868 281.506 29.994 281.189 30.246C280.881 30.498 280.633 30.862 280.447 31.338C280.269 31.8047 280.181 32.3553 280.181 32.99V36H279.019V28.944ZM289.5 36.112C288.838 36.112 288.273 35.958 287.806 35.65C287.34 35.3327 286.985 34.8987 286.742 34.348C286.5 33.7973 286.378 33.172 286.378 32.472C286.378 31.772 286.5 31.1467 286.742 30.596C286.985 30.0453 287.34 29.616 287.806 29.308C288.273 28.9907 288.838 28.832 289.5 28.832C289.948 28.832 290.354 28.9207 290.718 29.098C291.082 29.2753 291.381 29.518 291.614 29.826V29.406V26.088H292.762V36H291.614V35.496V35.076C291.437 35.356 291.152 35.5987 290.76 35.804C290.368 36.0093 289.948 36.112 289.5 36.112ZM289.654 35.076C290.298 35.076 290.802 34.838 291.166 34.362C291.53 33.886 291.712 33.256 291.712 32.472C291.712 31.6973 291.53 31.072 291.166 30.596C290.802 30.1107 290.298 29.868 289.654 29.868C289.01 29.868 288.502 30.1107 288.128 30.596C287.764 31.072 287.582 31.6973 287.582 32.472C287.582 33.2467 287.764 33.8767 288.128 34.362C288.502 34.838 289.01 35.076 289.654 35.076ZM298.378 26.088H299.54V30.358C299.773 29.8727 300.109 29.4993 300.548 29.238C300.987 28.9673 301.458 28.832 301.962 28.832C302.653 28.832 303.189 29.028 303.572 29.42C303.964 29.8027 304.16 30.358 304.16 31.086V36H303.012V31.366C303.012 30.8807 302.9 30.512 302.676 30.26C302.452 29.9987 302.121 29.868 301.682 29.868C301.299 29.868 300.945 29.994 300.618 30.246C300.291 30.4887 300.03 30.848 299.834 31.324C299.638 31.8 299.54 32.36 299.54 33.004V36H298.378V26.088ZM309.263 36.112C308.581 36.112 307.979 35.9487 307.457 35.622C306.943 35.286 306.547 34.838 306.267 34.278C305.996 33.718 305.861 33.116 305.861 32.472C305.861 31.828 305.996 31.226 306.267 30.666C306.547 30.106 306.943 29.6627 307.457 29.336C307.979 29 308.581 28.832 309.263 28.832C309.944 28.832 310.541 29 311.055 29.336C311.568 29.6627 311.96 30.106 312.231 30.666C312.511 31.226 312.651 31.828 312.651 32.472C312.651 33.116 312.511 33.718 312.231 34.278C311.96 34.838 311.568 35.286 311.055 35.622C310.541 35.9487 309.944 36.112 309.263 36.112ZM309.263 35.076C309.72 35.076 310.112 34.9547 310.439 34.712C310.775 34.4693 311.027 34.152 311.195 33.76C311.363 33.3587 311.447 32.9293 311.447 32.472C311.447 32.0147 311.363 31.59 311.195 31.198C311.027 30.7967 310.775 30.4747 310.439 30.232C310.112 29.9893 309.72 29.868 309.263 29.868C308.805 29.868 308.409 29.9893 308.073 30.232C307.746 30.4747 307.494 30.7967 307.317 31.198C307.149 31.59 307.065 32.0147 307.065 32.472C307.065 32.9293 307.149 33.3587 307.317 33.76C307.494 34.152 307.746 34.4693 308.073 34.712C308.409 34.9547 308.805 35.076 309.263 35.076ZM316.353 36.112C315.634 36.112 315.051 35.9253 314.603 35.552C314.155 35.1787 313.861 34.726 313.721 34.194L314.687 33.676C314.827 34.124 315.027 34.4693 315.289 34.712C315.559 34.9547 315.914 35.076 316.353 35.076C316.698 35.076 316.969 34.9827 317.165 34.796C317.37 34.6093 317.473 34.348 317.473 34.012C317.473 33.7133 317.342 33.4707 317.081 33.284C316.829 33.0973 316.451 32.9107 315.947 32.724C315.387 32.5187 314.953 32.262 314.645 31.954C314.346 31.646 314.197 31.2353 314.197 30.722C314.197 30.162 314.388 29.7093 314.771 29.364C315.163 29.0093 315.657 28.832 316.255 28.832C317.16 28.832 317.841 29.2007 318.299 29.938L317.543 30.61C317.225 30.1153 316.791 29.868 316.241 29.868C315.979 29.868 315.76 29.9473 315.583 30.106C315.405 30.2553 315.317 30.4607 315.317 30.722C315.317 30.9833 315.429 31.2027 315.653 31.38C315.886 31.548 316.297 31.7393 316.885 31.954C318.033 32.374 318.607 33.046 318.607 33.97C318.607 34.6327 318.401 35.1553 317.991 35.538C317.58 35.9207 317.034 36.112 316.353 36.112ZM322.482 36.112C321.847 36.112 321.348 35.9253 320.984 35.552C320.62 35.1693 320.438 34.6 320.438 33.844V29.98H319.248V28.944H320.438V26.83L321.6 26.088V28.944H323.49V29.98H321.6V33.928C321.6 34.6933 321.926 35.076 322.58 35.076C322.897 35.076 323.168 35.0107 323.392 34.88L323.686 35.86C323.35 36.028 322.948 36.112 322.482 36.112ZM330.688 32.654H325.494C325.522 33.3727 325.718 33.956 326.082 34.404C326.446 34.852 326.94 35.076 327.566 35.076C328.051 35.076 328.448 34.9687 328.756 34.754C329.064 34.5393 329.339 34.1893 329.582 33.704L330.562 34.124C330.226 34.8147 329.815 35.3187 329.33 35.636C328.854 35.9533 328.256 36.112 327.538 36.112C326.875 36.112 326.301 35.9487 325.816 35.622C325.33 35.286 324.957 34.8427 324.696 34.292C324.444 33.732 324.318 33.1253 324.318 32.472C324.318 31.8093 324.444 31.2027 324.696 30.652C324.957 30.092 325.33 29.6487 325.816 29.322C326.301 28.9953 326.875 28.832 327.538 28.832C328.182 28.832 328.742 28.9813 329.218 29.28C329.694 29.5787 330.058 29.98 330.31 30.484C330.562 30.988 330.688 31.548 330.688 32.164V32.654ZM329.512 31.66C329.428 31.1093 329.218 30.6753 328.882 30.358C328.546 30.0313 328.098 29.868 327.538 29.868C327.052 29.868 326.632 30.022 326.278 30.33C325.923 30.638 325.685 31.0813 325.564 31.66H329.512ZM335.11 36.112C334.447 36.112 333.882 35.958 333.416 35.65C332.949 35.3327 332.594 34.8987 332.352 34.348C332.109 33.7973 331.988 33.172 331.988 32.472C331.988 31.772 332.109 31.1467 332.352 30.596C332.594 30.0453 332.949 29.616 333.416 29.308C333.882 28.9907 334.447 28.832 335.11 28.832C335.558 28.832 335.964 28.9207 336.328 29.098C336.692 29.2753 336.99 29.518 337.224 29.826V29.406V26.088H338.372V36H337.224V35.496V35.076C337.046 35.356 336.762 35.5987 336.37 35.804C335.978 36.0093 335.558 36.112 335.11 36.112ZM335.264 35.076C335.908 35.076 336.412 34.838 336.776 34.362C337.14 33.886 337.322 33.256 337.322 32.472C337.322 31.6973 337.14 31.072 336.776 30.596C336.412 30.1107 335.908 29.868 335.264 29.868C334.62 29.868 334.111 30.1107 333.738 30.596C333.374 31.072 333.192 31.6973 333.192 32.472C333.192 33.2467 333.374 33.8767 333.738 34.362C334.111 34.838 334.62 35.076 335.264 35.076ZM343.988 28.944H345.15V36H343.988V28.944ZM344.562 27.754C344.328 27.754 344.128 27.6747 343.96 27.516C343.801 27.348 343.722 27.1473 343.722 26.914C343.722 26.6713 343.801 26.4707 343.96 26.312C344.128 26.1533 344.328 26.074 344.562 26.074C344.804 26.074 345.005 26.1533 345.164 26.312C345.332 26.4707 345.416 26.6713 345.416 26.914C345.416 27.1567 345.332 27.3573 345.164 27.516C345.005 27.6747 344.804 27.754 344.562 27.754ZM347.241 28.944H348.403V30.302C348.655 29.854 348.987 29.4993 349.397 29.238C349.817 28.9673 350.265 28.832 350.741 28.832C351.404 28.832 351.931 29.028 352.323 29.42C352.715 29.812 352.911 30.3673 352.911 31.086V36H351.763V31.338C351.763 30.8527 351.651 30.4887 351.427 30.246C351.213 29.994 350.891 29.868 350.461 29.868C350.079 29.868 349.729 29.994 349.411 30.246C349.103 30.498 348.856 30.862 348.669 31.338C348.492 31.8047 348.403 32.3553 348.403 32.99V36H347.241V28.944Z" fill="white"/>
<path d="M235.545 58.5391C235.545 57.026 235.709 55.6543 236.037 54.4238C236.374 53.1934 236.885 52.1452 237.568 51.2793C238.252 50.4043 239.113 49.7298 240.152 49.2559C241.201 48.7819 242.436 48.5449 243.857 48.5449C244.869 48.5449 245.799 48.6862 246.646 48.9688C247.494 49.2422 248.228 49.6478 248.848 50.1855C249.477 50.7142 249.982 51.3568 250.365 52.1133C250.748 52.8698 250.967 53.7129 251.021 54.6426H247.385C247.175 52.6283 245.913 51.6211 243.598 51.6211C242.367 51.6211 241.369 51.9766 240.604 52.6875C239.838 53.3984 239.455 54.3509 239.455 55.5449V61.3691C239.455 61.9434 239.56 62.4766 239.77 62.9688C239.988 63.4518 240.285 63.8711 240.658 64.2266C241.032 64.5729 241.469 64.8464 241.971 65.0469C242.481 65.2383 243.037 65.334 243.639 65.334C244.869 65.334 245.849 65.0286 246.578 64.418C247.316 63.7982 247.686 62.8275 247.686 61.5059V60.6855H243.775V57.6094H251.336V68H247.945L247.863 66.2637C246.888 67.7038 245.366 68.4238 243.297 68.4238C242.012 68.4238 240.882 68.1777 239.906 67.6855C238.94 67.1842 238.133 66.4961 237.486 65.6211C236.839 64.7461 236.352 63.707 236.023 62.5039C235.704 61.2917 235.545 59.9701 235.545 58.5391ZM254.562 60.8359C254.562 59.7148 254.717 58.6986 255.027 57.7871C255.337 56.8665 255.77 56.0827 256.326 55.4355C256.891 54.7793 257.57 54.2734 258.363 53.918C259.156 53.5625 260.036 53.3848 261.002 53.3848C261.968 53.3848 262.843 53.5579 263.627 53.9043C264.42 54.2507 265.094 54.7292 265.65 55.3398C266.215 55.9414 266.644 56.6615 266.936 57.5C267.236 58.3385 267.387 59.2454 267.387 60.2207V61.9844H258.213V62.9277C258.213 63.7845 258.491 64.4499 259.047 64.9238C259.612 65.3887 260.277 65.6211 261.043 65.6211C261.809 65.6211 262.433 65.4206 262.916 65.0195C263.399 64.6185 263.686 64.0534 263.777 63.3242H267.277C267.049 64.9102 266.38 66.1452 265.268 67.0293C264.165 67.9043 262.743 68.3418 261.002 68.3418C259.99 68.3418 259.083 68.1595 258.281 67.7949C257.488 67.4303 256.814 66.9199 256.258 66.2637C255.711 65.6074 255.292 64.819 255 63.8984C254.708 62.9779 254.562 61.957 254.562 60.8359ZM258.213 59.2637H263.805V58.7578C263.805 57.974 263.54 57.3359 263.012 56.8438C262.483 56.3516 261.813 56.1055 261.002 56.1055C260.2 56.1055 259.535 56.3516 259.006 56.8438C258.477 57.3359 258.213 57.974 258.213 58.7578V59.2637ZM270.887 68V53.7266H278.857V56.4609H274.387V68H270.887ZM281.715 68V53.7266H285.215V55.791C285.625 55.0254 286.145 54.4329 286.773 54.0137C287.411 53.5944 288.204 53.3848 289.152 53.3848C290.182 53.3848 291.025 53.6172 291.682 54.082C292.347 54.5378 292.839 55.194 293.158 56.0508C294.088 54.2734 295.537 53.3848 297.506 53.3848C298.964 53.3848 300.058 53.8542 300.787 54.793C301.525 55.7227 301.895 57.0078 301.895 58.6484V68H298.395V58.8945C298.395 57.1263 297.725 56.2422 296.385 56.2422C296.376 56.2422 296.367 56.2422 296.357 56.2422C295.519 56.2422 294.84 56.5658 294.32 57.2129C293.81 57.8509 293.555 58.694 293.555 59.7422V68H290.055V58.8945C290.055 57.1263 289.38 56.2422 288.031 56.2422C288.022 56.2422 288.013 56.2422 288.004 56.2422C287.165 56.2422 286.491 56.5658 285.98 57.2129C285.47 57.8509 285.215 58.694 285.215 59.7422V68H281.715ZM305.23 63.9395C305.23 62.7819 305.632 61.7839 306.434 60.9453C307.236 60.1068 308.393 59.6191 309.906 59.4824L313.857 59.1543V58.2246C313.857 57.4772 313.657 56.9395 313.256 56.6113C312.855 56.2741 312.308 56.1055 311.615 56.1055C310.904 56.1055 310.326 56.2786 309.879 56.625C309.432 56.9622 309.209 57.459 309.209 58.1152H305.709C305.727 57.3314 305.896 56.6478 306.215 56.0645C306.534 55.472 306.958 54.9798 307.486 54.5879C308.015 54.196 308.644 53.8997 309.373 53.6992C310.102 53.4896 310.895 53.3848 311.752 53.3848C313.465 53.3848 314.819 53.7995 315.812 54.6289C316.806 55.4583 317.303 56.6751 317.303 58.2793V65.2793H319.709V68H314.199L314.172 65.7852H314.049C313.639 66.569 313.092 67.1934 312.408 67.6582C311.734 68.1139 310.845 68.3418 309.742 68.3418C309.086 68.3418 308.484 68.2324 307.938 68.0137C307.4 67.7949 306.926 67.4896 306.516 67.0977C306.105 66.7057 305.786 66.2454 305.559 65.7168C305.34 65.1882 305.23 64.5957 305.23 63.9395ZM308.867 64.3359C308.867 64.7643 309.063 65.0879 309.455 65.3066C309.847 65.5163 310.353 65.6211 310.973 65.6211C311.866 65.6211 312.568 65.3066 313.078 64.6777C313.598 64.0397 313.857 63.2695 313.857 62.3672V61.8066L309.66 62.1758C309.141 62.2305 308.876 62.5404 308.867 63.1055V64.3359ZM322.156 68V53.7266H325.656V55.791C326.085 55.0254 326.641 54.4329 327.324 54.0137C328.017 53.5944 328.869 53.3848 329.881 53.3848C331.485 53.3848 332.665 53.8542 333.422 54.793C334.178 55.7227 334.557 57.0078 334.557 58.6484V68H331.057V58.8945C331.057 58.056 330.879 57.4043 330.523 56.9395C330.168 56.4746 329.571 56.2422 328.732 56.2422C327.766 56.2422 327.01 56.5658 326.463 57.2129C325.925 57.8509 325.656 58.694 325.656 59.7422V68H322.156ZM337.291 53.7266H341.051L344.154 63.9121H344.264L347.463 53.7266H351.154L344.264 72.7578H338.166V70.0508H341.748L342.445 68L337.291 53.7266Z" fill="url(#paint1_linear)"/>
<path fill-rule="evenodd" clip-rule="evenodd" d="M41.6492 18.1362L42.5017 12.9188L38.9081 9.20638C38.6991 8.98839 38.5529 8.71779 38.4852 8.42335C38.4175 8.12891 38.4308 7.82162 38.5237 7.53413C38.6219 7.24232 38.7987 6.98329 39.0346 6.7856C39.2706 6.5879 39.5565 6.45922 39.8608 6.41373L44.7581 5.66122L46.9476 0.97892C47.0805 0.686966 47.2946 0.439438 47.5643 0.265865C47.834 0.0922914 48.1479 0 48.4686 0C48.7892 0 49.1031 0.0922914 49.3728 0.265865C49.6425 0.439438 49.8566 0.686966 49.9895 0.97892L52.1791 5.66122L57.0763 6.41373C57.3807 6.45922 57.6666 6.5879 57.9025 6.7856C58.1384 6.98329 58.3152 7.24232 58.4134 7.53413C58.5063 7.82162 58.5196 8.12891 58.4519 8.42335C58.3842 8.71779 58.2381 8.98839 58.029 9.20638L54.4355 12.8853L55.2879 18.1027C55.3458 18.4179 55.312 18.743 55.1905 19.0395C55.069 19.3359 54.865 19.5912 54.6026 19.775C54.3185 19.9734 53.9797 20.0786 53.6332 20.076C53.3532 20.0774 53.0773 20.0084 52.8309 19.8753L48.4686 17.4506L44.1062 19.8084C43.8365 19.9551 43.5316 20.0245 43.225 20.0092C42.9185 19.9939 42.622 19.8944 42.3682 19.7217C42.1144 19.549 41.913 19.3096 41.7862 19.0299C41.6594 18.7503 41.612 18.441 41.6492 18.1362ZM52.1788 82.5848L57.076 83.3373C57.3803 83.3828 57.6662 83.5115 57.9022 83.7091C58.1381 83.9068 58.3149 84.1659 58.4131 84.4577C58.506 84.7452 58.5193 85.0525 58.4516 85.3469C58.3839 85.6413 58.2377 85.9119 58.0286 86.1299L54.4351 89.8088L55.2876 95.0262C55.3455 95.3414 55.3117 95.6665 55.1902 95.963C55.0687 96.2594 54.8646 96.5147 54.6023 96.6985C54.3181 96.8969 53.9794 97.0021 53.6329 96.9995C53.3529 97.0009 53.077 96.9319 52.8306 96.7988L48.4682 94.3741L44.1059 96.6985C43.8362 96.8451 43.5313 96.9145 43.2247 96.8992C42.9181 96.8839 42.6217 96.7845 42.3679 96.6117C42.1141 96.439 41.9127 96.1996 41.7859 95.92C41.6591 95.6403 41.6117 95.3311 41.6489 95.0262L42.5014 89.8088L38.9078 86.1299C38.6988 85.9119 38.5526 85.6413 38.4849 85.3469C38.4172 85.0525 38.4305 84.7452 38.5234 84.4577C38.6216 84.1659 38.7984 83.9068 39.0343 83.7091C39.2703 83.5115 39.5562 83.3828 39.8605 83.3373L44.7577 82.5848L46.9473 77.9025C47.0802 77.6105 47.2943 77.363 47.564 77.1895C47.8337 77.0159 48.1476 76.9236 48.4682 76.9236C48.7889 76.9236 49.1028 77.0159 49.3725 77.1895C49.6422 77.363 49.8563 77.6105 49.9892 77.9025L52.1788 82.5848ZM15.1905 58.5376C15.537 58.5402 15.8758 58.435 16.1599 58.2365C16.4222 58.0528 16.6263 57.7975 16.7478 57.501C16.8693 57.2046 16.9031 56.8794 16.8452 56.5643L15.9928 51.347L19.5863 47.6681C19.7954 47.4501 19.9415 47.1795 20.0092 46.885C20.0769 46.5906 20.0636 46.2833 19.9707 45.9958C19.8725 45.704 19.6957 45.445 19.4598 45.2473C19.2238 45.0496 18.9379 44.9209 18.6336 44.8754L13.7364 44.1229L11.5468 39.4407C11.4139 39.1488 11.1998 38.9012 10.9301 38.7277C10.6604 38.5541 10.3465 38.4618 10.0259 38.4618C9.7052 38.4618 9.3913 38.5541 9.12161 38.7277C8.85193 38.9012 8.63784 39.1488 8.50489 39.4407L6.31536 44.1229L1.41816 44.8754C1.11379 44.9209 0.827881 45.0496 0.591948 45.2473C0.356015 45.445 0.179216 45.704 0.0810374 45.9958C-0.0118515 46.2833 -0.025159 46.5906 0.0425286 46.885C0.110216 47.1795 0.25637 47.4501 0.465459 47.6681L4.05897 51.347L3.20655 56.5643C3.16932 56.8692 3.21671 57.1784 3.34353 57.4581C3.47035 57.7377 3.67171 57.9771 3.92551 58.1498C4.17931 58.3225 4.47576 58.422 4.78234 58.4373C5.08892 58.4526 5.39379 58.3832 5.66351 58.2365L10.0259 55.9122L14.3882 58.3369C14.6346 58.47 14.9105 58.539 15.1905 58.5376ZM96.4276 45.2473C96.6635 45.445 96.8403 45.704 96.9385 45.9958C97.021 46.2907 97.021 46.6026 96.9384 46.8975C96.8559 47.1924 96.694 47.4589 96.4705 47.6681L92.877 51.347L93.7294 56.5643C93.7873 56.8794 93.7535 57.2046 93.632 57.501C93.5105 57.7975 93.3064 58.0528 93.0441 58.2365C92.76 58.435 92.4212 58.5402 92.0747 58.5376C91.7947 58.539 91.5188 58.47 91.2724 58.3369L86.9101 55.9122L82.6313 58.2365C82.3616 58.3832 82.0567 58.4526 81.7501 58.4373C81.4435 58.422 81.1471 58.3225 80.8933 58.1498C80.6395 57.9771 80.4381 57.7377 80.3113 57.4581C80.1845 57.1784 80.1371 56.8692 80.1743 56.5643L81.0267 51.347L77.4332 47.6681C77.2241 47.4501 77.078 47.1795 77.0103 46.885C76.9426 46.5906 76.9559 46.2833 77.0488 45.9958C77.147 45.704 77.3238 45.445 77.5597 45.2473C77.7957 45.0496 78.0816 44.9209 78.3859 44.8754L83.2831 44.1229L85.4727 39.4407C85.6056 39.1488 85.8197 38.9012 86.0894 38.7277C86.3591 38.5541 86.673 38.4618 86.9936 38.4618C87.3143 38.4618 87.6282 38.5541 87.8979 38.7277C88.1676 38.9012 88.3817 39.1488 88.5146 39.4407L90.7041 44.1229L95.6013 44.8754C95.9057 44.9209 96.1916 45.0496 96.4276 45.2473ZM69.2435 24.625L68.3911 29.8424C68.3539 30.1473 68.4013 30.4565 68.5281 30.7362C68.6549 31.0158 68.8563 31.2552 69.1101 31.4279C69.3639 31.6007 69.6603 31.7001 69.9669 31.7154C70.2735 31.7307 70.5784 31.6613 70.8481 31.5147L75.2104 29.1568L79.5728 31.5816C79.8192 31.7146 80.0951 31.7836 80.3751 31.7822C80.7216 31.7849 81.0603 31.6797 81.3445 31.4812C81.6068 31.2975 81.8109 31.0422 81.9324 30.7457C82.0538 30.4492 82.0876 30.1241 82.0297 29.809L81.1773 24.5916L84.7708 20.9126C84.9799 20.6946 85.1261 20.424 85.1938 20.1296C85.2615 19.8351 85.2481 19.5278 85.1553 19.2404C85.0571 18.9486 84.8803 18.6895 84.6443 18.4918C84.4084 18.2941 84.1225 18.1654 83.8181 18.12L78.9209 17.3674L76.7314 12.6852C76.5985 12.3932 76.3844 12.1457 76.1147 11.9721C75.845 11.7985 75.5311 11.7062 75.2104 11.7062C74.8898 11.7062 74.5759 11.7985 74.3062 11.9721C74.0365 12.1457 73.8224 12.3932 73.6895 12.6852L71.4999 17.3674L66.6027 18.12C66.2984 18.1654 66.0125 18.2941 65.7765 18.4918C65.5406 18.6895 65.3638 18.9486 65.2656 19.2404C65.1727 19.5278 65.1594 19.8351 65.2271 20.1296C65.2948 20.424 65.4409 20.6946 65.65 20.9126L69.2435 24.625ZM14.9067 29.8424L15.7592 24.625L12.1657 20.9126C11.9566 20.6946 11.8104 20.424 11.7427 20.1296C11.675 19.8351 11.6883 19.5278 11.7812 19.2404C11.8794 18.9486 12.0562 18.6895 12.2921 18.4918C12.5281 18.2941 12.814 18.1654 13.1184 18.12L18.0156 17.3674L20.2051 12.6852C20.338 12.3932 20.5521 12.1457 20.8218 11.9721C21.0915 11.7985 21.4054 11.7062 21.7261 11.7062C22.0467 11.7062 22.3606 11.7985 22.6303 11.9721C22.9 12.1457 23.1141 12.3932 23.247 12.6852L25.4366 17.3674L30.3338 18.12C30.6381 18.1654 30.924 18.2941 31.16 18.4918C31.3959 18.6895 31.5727 18.9486 31.6709 19.2404C31.7638 19.5278 31.7771 19.8351 31.7094 20.1296C31.6417 20.424 31.4956 20.6946 31.2865 20.9126L27.693 24.5916L28.5454 29.809C28.6033 30.1241 28.5695 30.4492 28.448 30.7457C28.3265 31.0422 28.1224 31.2975 27.8601 31.4812C27.576 31.6797 27.2372 31.7849 26.8907 31.7822C26.6107 31.7836 26.3348 31.7146 26.0884 31.5816L21.7261 29.1568L17.3637 31.5147C17.094 31.6613 16.7891 31.7307 16.4825 31.7154C16.176 31.7001 15.8795 31.6007 15.6257 31.4279C15.3719 31.2552 15.1705 31.0158 15.0437 30.7362C14.9169 30.4565 14.8695 30.1473 14.9067 29.8424ZM32.0047 69.9601L27.1075 69.2075L24.9179 64.5252C24.785 64.2333 24.5709 63.9857 24.3012 63.8122C24.0315 63.6386 23.7176 63.5463 23.397 63.5463C23.0763 63.5463 22.7624 63.6386 22.4927 63.8122C22.223 63.9857 22.0089 64.2333 21.876 64.5252L19.6865 69.2075L14.7893 69.9601C14.4849 70.0056 14.199 70.1342 13.963 70.3319C13.7271 70.5296 13.5503 70.7887 13.4521 71.0805C13.3592 71.368 13.3459 71.6752 13.4136 71.9697C13.4813 72.2641 13.6275 72.5347 13.8366 72.7527L17.4301 76.4317L16.5776 81.6491C16.5404 81.954 16.5878 82.2632 16.7146 82.5429C16.8414 82.8226 17.0428 83.0619 17.2966 83.2347C17.5504 83.4074 17.8469 83.5069 18.1534 83.5222C18.46 83.5375 18.7649 83.468 19.0346 83.3214L23.397 80.997L27.7593 83.4217C28.0057 83.5548 28.2816 83.6238 28.5616 83.6224C28.9081 83.625 29.2469 83.5199 29.531 83.3214C29.7933 83.1376 29.9974 82.8823 30.1189 82.5859C30.2404 82.2894 30.2742 81.9643 30.2163 81.6491L29.3639 76.4317L32.9574 72.7527C33.1665 72.5347 33.3126 72.2641 33.3803 71.9697C33.448 71.6752 33.4347 71.368 33.3418 71.0805C33.2436 70.7887 33.0668 70.5296 32.8309 70.3319C32.5949 70.1342 32.309 70.0056 32.0047 69.9601ZM78.9209 70.8795L83.8181 71.6321C84.1225 71.6776 84.4084 71.8062 84.6443 72.0039C84.8803 72.2016 85.0571 72.4606 85.1553 72.7525C85.2481 73.0399 85.2615 73.3472 85.1938 73.6417C85.1261 73.9361 84.9799 74.2067 84.7708 74.4247L81.1773 78.1037L82.0297 83.3211C82.0876 83.6362 82.0538 83.9613 81.9324 84.2578C81.8109 84.5543 81.6068 84.8096 81.3445 84.9933C81.0603 85.1918 80.7216 85.297 80.3751 85.2943C80.0951 85.2957 79.8192 85.2267 79.5728 85.0937L75.2104 82.6689L70.8481 84.9933C70.5784 85.1399 70.2735 85.2094 69.9669 85.1941C69.6603 85.1788 69.3639 85.0793 69.1101 84.9066C68.8563 84.7338 68.6549 84.4945 68.5281 84.2148C68.4013 83.9351 68.3539 83.6259 68.3911 83.3211L69.2435 78.1037L65.65 74.4247C65.4409 74.2067 65.2948 73.9361 65.2271 73.6417C65.1594 73.3472 65.1727 73.0399 65.2656 72.7525C65.3638 72.4606 65.5406 72.2016 65.7765 72.0039C66.0125 71.8062 66.2984 71.6776 66.6027 71.6321L71.4999 70.8795L73.6895 66.1973C73.8224 65.9053 74.0365 65.6578 74.3062 65.4842C74.5759 65.3106 74.8898 65.2183 75.2104 65.2183C75.5311 65.2183 75.845 65.3106 76.1147 65.4842C76.3844 65.6578 76.5985 65.9053 76.7314 66.1973L78.9209 70.8795Z" fill="url(#paint2_linear)"/>
<path d="M58.4958 41.8155V38.471C58.4958 35.81 57.4392 33.2579 55.5586 31.3762C53.6779 29.4946 51.1271 28.4375 48.4674 28.4375C45.8077 28.4375 43.2569 29.4946 41.3763 31.3762C39.4956 33.2579 38.439 35.81 38.439 38.471V41.8155C37.1092 41.8155 35.8338 42.3441 34.8934 43.2849C33.9531 44.2257 33.4248 45.5017 33.4248 46.8323V60.2103C33.4248 61.5408 33.9531 62.8168 34.8934 63.7576C35.8338 64.6985 37.1092 65.227 38.439 65.227H58.4958C59.8257 65.227 61.101 64.6985 62.0414 63.7576C62.9817 62.8168 63.51 61.5408 63.51 60.2103V46.8323C63.51 45.5017 62.9817 44.2257 62.0414 43.2849C61.101 42.3441 59.8257 41.8155 58.4958 41.8155ZM54.6683 51.3641L47.9827 58.0531C47.8273 58.2098 47.6425 58.3342 47.4388 58.4191C47.2351 58.504 47.0167 58.5477 46.796 58.5477C46.5754 58.5477 46.3569 58.504 46.1532 58.4191C45.9495 58.3342 45.7647 58.2098 45.6093 58.0531L42.2665 54.7086C41.9518 54.3937 41.775 53.9666 41.775 53.5213C41.775 53.0759 41.9518 52.6489 42.2665 52.334C42.5812 52.0191 43.0081 51.8422 43.4532 51.8422C43.8983 51.8422 44.3252 52.0191 44.6399 52.334L46.796 54.5079L52.2949 48.9895C52.6096 48.6746 53.0365 48.4977 53.4816 48.4977C53.9267 48.4977 54.3536 48.6746 54.6683 48.9895C54.983 49.3043 55.1599 49.7314 55.1599 50.1768C55.1599 50.6221 54.983 51.0492 54.6683 51.3641ZM41.7818 38.471C41.7818 36.697 42.4862 34.9956 43.74 33.7412C44.9938 32.4867 46.6943 31.782 48.4674 31.782C50.2405 31.782 51.941 32.4867 53.1948 33.7412C54.4486 34.9956 55.153 36.697 55.153 38.471V41.8155H41.7818V38.471Z" fill="url(#paint3_linear)"/>
<defs>
<linearGradient id="paint0_linear" x1="168.938" y1="4" x2="168.938" y2="93" gradientUnits="userSpaceOnUse">
<stop stop-color="#9BA3A2"/>
<stop offset="1" stop-color="#626A69"/>
</linearGradient>
<linearGradient id="paint1_linear" x1="293" y1="39" x2="293" y2="81" gradientUnits="userSpaceOnUse">
<stop stop-color="#9BA3A2"/>
<stop offset="1" stop-color="#626A69"/>
</linearGradient>
<linearGradient id="paint2_linear" x1="48.5002" y1="0" x2="48.5002" y2="96.9995" gradientUnits="userSpaceOnUse">
<stop stop-color="#9BA3A2"/>
<stop offset="1" stop-color="#626A69"/>
</linearGradient>
<linearGradient id="paint3_linear" x1="48.4674" y1="28.4375" x2="48.4674" y2="65.227" gradientUnits="userSpaceOnUse">
<stop stop-color="#AAEA39"/>
<stop offset="1" stop-color="#86EC16"/>
</linearGradient>
</defs>
</svg>
