<svg width="100" height="100" viewBox="0 0 100 100" fill="none" xmlns="http://www.w3.org/2000/svg">
<path fill-rule="evenodd" clip-rule="evenodd" d="M42.9381 18.6974L43.8169 13.3186L40.1122 9.49129C39.8967 9.26655 39.746 8.98758 39.6762 8.68403C39.6064 8.38047 39.6201 8.06367 39.7159 7.76729C39.8171 7.46645 39.9994 7.1994 40.2426 6.99559C40.4858 6.79178 40.7806 6.65911 41.0944 6.61221L46.143 5.83641L48.4003 1.00921C48.5373 0.708225 48.7581 0.453037 49.0361 0.274092C49.3141 0.0951475 49.6377 0 49.9683 0C50.2989 0 50.6225 0.0951475 50.9005 0.274092C51.1785 0.453037 51.3993 0.708225 51.5363 1.00921L53.7936 5.83641L58.8422 6.61221C59.156 6.65911 59.4508 6.79178 59.694 6.99559C59.9372 7.1994 60.1195 7.46645 60.2207 7.76729C60.3165 8.06367 60.3302 8.38047 60.2604 8.68403C60.1906 8.98758 60.0399 9.26655 59.8244 9.49129L56.1197 13.2841L56.9985 18.663C57.0582 18.9878 57.0234 19.323 56.8981 19.6287C56.7729 19.9343 56.5625 20.1975 56.292 20.387C55.9991 20.5916 55.6499 20.7 55.2927 20.6973C55.004 20.6987 54.7196 20.6276 54.4656 20.4904L49.9683 17.9906L45.471 20.4214C45.193 20.5726 44.8787 20.6442 44.5626 20.6284C44.2465 20.6127 43.9409 20.5101 43.6793 20.332C43.4176 20.1539 43.21 19.9072 43.0793 19.6189C42.9486 19.3305 42.8997 19.0117 42.9381 18.6974ZM53.7936 85.1391L58.8422 85.9149C59.156 85.9618 59.4508 86.0944 59.694 86.2982C59.9372 86.5021 60.1195 86.7691 60.2207 87.07C60.3165 87.3663 60.3302 87.6831 60.2604 87.9867C60.1906 88.2902 60.0399 88.5692 59.8244 88.794L56.1197 92.5868L56.9985 97.9656C57.0582 98.2905 57.0234 98.6257 56.8981 98.9314C56.7729 99.237 56.5625 99.5002 56.292 99.6896C55.9991 99.8942 55.6499 100.003 55.2927 100C55.004 100.001 54.7196 99.9303 54.4656 99.7931L49.9683 97.2933L45.471 99.6896C45.193 99.8408 44.8787 99.9124 44.5626 99.8966C44.2465 99.8808 43.9409 99.7783 43.6793 99.6002C43.4176 99.4221 43.21 99.1754 43.0793 98.887C42.9486 98.5987 42.8997 98.2799 42.9381 97.9656L43.8169 92.5868L40.1122 88.794C39.8967 88.5692 39.746 88.2902 39.6762 87.9867C39.6064 87.6831 39.6201 87.3663 39.7159 87.07C39.8171 86.7691 39.9994 86.5021 40.2426 86.2982C40.4858 86.0944 40.7806 85.9618 41.0944 85.9149L46.143 85.1391L48.4003 80.3119C48.5373 80.0109 48.7581 79.7557 49.0361 79.5768C49.3141 79.3978 49.6377 79.3027 49.9683 79.3027C50.2989 79.3027 50.6225 79.3978 50.9005 79.5768C51.1785 79.7557 51.3993 80.0109 51.5363 80.3119L53.7936 85.1391ZM15.6603 60.3492C16.0175 60.3519 16.3668 60.2435 16.6597 60.0389C16.9302 59.8495 17.1405 59.5863 17.2658 59.2806C17.391 58.975 17.4259 58.6398 17.3662 58.3149L16.4874 52.936L20.192 49.1432C20.4076 48.9185 20.5583 48.6395 20.628 48.336C20.6978 48.0324 20.6841 47.7156 20.5884 47.4192C20.4871 47.1184 20.3049 46.8514 20.0616 46.6475C19.8184 46.4437 19.5237 46.3111 19.2099 46.2642L14.1612 45.4884L11.904 40.6612C11.7669 40.3602 11.5462 40.105 11.2682 39.926C10.9901 39.7471 10.6665 39.652 10.3359 39.652C10.0054 39.652 9.68176 39.7471 9.40373 39.926C9.1257 40.105 8.905 40.3602 8.76793 40.6612L6.51068 45.4884L1.46202 46.2642C1.14824 46.3111 0.853486 46.4437 0.610256 46.6475C0.367026 46.8514 0.184759 47.1184 0.0835437 47.4192C-0.012218 47.7156 -0.0259371 48.0324 0.043844 48.336C0.113625 48.6395 0.264299 48.9185 0.479855 49.1432L4.1845 52.936L3.30573 58.3149C3.26734 58.6292 3.3162 58.948 3.44694 59.2363C3.57769 59.5247 3.78527 59.7714 4.04692 59.9495C4.30857 60.1276 4.61419 60.2301 4.93025 60.2459C5.24631 60.2617 5.56061 60.1901 5.83867 60.0389L10.3359 57.6426L14.8332 60.1424C15.0872 60.2795 15.3716 60.3507 15.6603 60.3492ZM99.4091 46.6475C99.6523 46.8514 99.8346 47.1184 99.9358 47.4192C100.021 47.7233 100.021 48.0448 99.9357 48.3488C99.8507 48.6528 99.6838 48.9276 99.4533 49.1432L95.7487 52.936L96.6274 58.3149C96.6871 58.6398 96.6523 58.975 96.527 59.2806C96.4018 59.5863 96.1914 59.8495 95.921 60.0389C95.628 60.2435 95.2788 60.3519 94.9216 60.3492C94.6329 60.3507 94.3485 60.2795 94.0945 60.1424L89.5972 57.6426L85.1861 60.0389C84.908 60.1901 84.5937 60.2617 84.2777 60.2459C83.9616 60.2301 83.656 60.1276 83.3943 59.9495C83.1327 59.7714 82.9251 59.5247 82.7944 59.2363C82.6636 58.948 82.6148 58.6292 82.6532 58.3149L83.5319 52.936L79.8273 49.1432C79.6117 48.9185 79.4611 48.6395 79.3913 48.336C79.3215 48.0324 79.3352 47.7156 79.431 47.4192C79.5322 47.1184 79.7145 46.8514 79.9577 46.6475C80.2009 46.4437 80.4957 46.3111 80.8094 46.2642L85.8581 45.4884L88.1154 40.6612C88.2524 40.3602 88.4731 40.105 88.7512 39.926C89.0292 39.7471 89.3528 39.652 89.6834 39.652C90.014 39.652 90.3376 39.7471 90.6156 39.926C90.8936 40.105 91.1143 40.3602 91.2514 40.6612L93.5086 45.4884L98.5573 46.2642C98.8711 46.3111 99.1658 46.4437 99.4091 46.6475ZM71.3876 25.3875L70.5089 30.7664C70.4705 31.0807 70.5193 31.3995 70.6501 31.6878C70.7808 31.9761 70.9884 32.2229 71.25 32.401C71.5117 32.579 71.8173 32.6816 72.1334 32.6974C72.4494 32.7132 72.7637 32.6415 73.0418 32.4904L77.5391 30.0595L82.0363 32.5593C82.2904 32.6965 82.5748 32.7677 82.8634 32.7662C83.2207 32.7689 83.5699 32.6605 83.8628 32.4559C84.1333 32.2665 84.3436 32.0033 84.4689 31.6976C84.5941 31.392 84.629 31.0568 84.5693 30.7319L83.6905 25.353L87.3952 21.5602C87.6107 21.3355 87.7614 21.0565 87.8312 20.753C87.901 20.4494 87.8872 20.1326 87.7915 19.8362C87.6903 19.5354 87.508 19.2683 87.2648 19.0645C87.0215 18.8607 86.7268 18.7281 86.413 18.6812L81.3643 17.9054L79.1071 13.0782C78.97 12.7772 78.7493 12.522 78.4713 12.343C78.1933 12.1641 77.8697 12.0689 77.5391 12.0689C77.2085 12.0689 76.8849 12.1641 76.6068 12.343C76.3288 12.522 76.1081 12.7772 75.9711 13.0782L73.7138 17.9054L68.6651 18.6812C68.3514 18.7281 68.0566 18.8607 67.8134 19.0645C67.5702 19.2683 67.3879 19.5354 67.2867 19.8362C67.1909 20.1326 67.1772 20.4494 67.247 20.753C67.3167 21.0565 67.4674 21.3355 67.683 21.5602L71.3876 25.3875ZM15.3691 30.7664L16.2479 25.3875L12.5433 21.5602C12.3277 21.3355 12.177 21.0565 12.1073 20.753C12.0375 20.4494 12.0512 20.1326 12.147 19.8362C12.2482 19.5354 12.4304 19.2684 12.6737 19.0645C12.9169 18.8607 13.2117 18.7281 13.5254 18.6812L18.5741 17.9054L20.8314 13.0782C20.9684 12.7772 21.1891 12.522 21.4671 12.343C21.7452 12.1641 22.0688 12.0689 22.3994 12.0689C22.7299 12.0689 23.0536 12.1641 23.3316 12.343C23.6096 12.522 23.8303 12.7772 23.9674 13.0782L26.2246 17.9054L31.2733 18.6812C31.5871 18.7281 31.8818 18.8607 32.1251 19.0645C32.3683 19.2684 32.5506 19.5354 32.6518 19.8362C32.7475 20.1326 32.7612 20.4494 32.6915 20.753C32.6217 21.0565 32.471 21.3355 32.2555 21.5602L28.5508 25.353L29.4296 30.7319C29.4893 31.0568 29.4544 31.392 29.3292 31.6976C29.2039 32.0033 28.9936 32.2665 28.7231 32.4559C28.4302 32.6605 28.081 32.769 27.7237 32.7662C27.4351 32.7677 27.1507 32.6965 26.8966 32.5594L22.3994 30.0596L17.9021 32.4904C17.624 32.6415 17.3097 32.7132 16.9937 32.6974C16.6776 32.6816 16.372 32.5791 16.1103 32.401C15.8487 32.2229 15.6411 31.9761 15.5104 31.6878C15.3796 31.3995 15.3308 31.0807 15.3691 30.7664ZM32.995 72.1234L27.9464 71.3476L25.6891 66.5204C25.5521 66.2194 25.3313 65.9642 25.0533 65.7853C24.7753 65.6063 24.4517 65.5112 24.1211 65.5112C23.7905 65.5112 23.4669 65.6063 23.1889 65.7853C22.9109 65.9642 22.6902 66.2194 22.5531 66.5204L20.2958 71.3476L15.2472 72.1234C14.9334 72.1703 14.6386 72.3029 14.3954 72.5068C14.1522 72.7106 13.9699 72.9776 13.8687 73.2785C13.7729 73.5748 13.7592 73.8916 13.829 74.1952C13.8988 74.4988 14.0495 74.7777 14.265 75.0025L17.9697 78.7953L17.0909 84.1741C17.0525 84.4884 17.1014 84.8072 17.2321 85.0956C17.3628 85.3839 17.5704 85.6306 17.8321 85.8087C18.0937 85.9868 18.3993 86.0894 18.7154 86.1051C19.0315 86.1209 19.3458 86.0493 19.6238 85.8981L24.1211 83.5018L28.6184 86.0016C28.8724 86.1388 29.1568 86.2099 29.4455 86.2085C29.8027 86.2112 30.1519 86.1027 30.4449 85.8981C30.7153 85.7087 30.9257 85.4455 31.0509 85.1399C31.1762 84.8342 31.211 84.499 31.1513 84.1741L30.2725 78.7953L33.9772 75.0025C34.1927 74.7777 34.3434 74.4988 34.4132 74.1952C34.483 73.8916 34.4693 73.5748 34.3735 73.2785C34.2723 72.9776 34.09 72.7106 33.8468 72.5068C33.6036 72.3029 33.3088 72.1703 32.995 72.1234ZM81.3643 73.0726L86.413 73.8484C86.7268 73.8953 87.0215 74.0279 87.2648 74.2318C87.508 74.4356 87.6903 74.7026 87.7915 75.0035C87.8872 75.2998 87.901 75.6166 87.8312 75.9202C87.7614 76.2238 87.6107 76.5027 87.3952 76.7275L83.6905 80.5203L84.5693 85.8991C84.629 86.224 84.5941 86.5592 84.4689 86.8649C84.3436 87.1705 84.1333 87.4337 83.8628 87.6231C83.5699 87.8277 83.2207 87.9362 82.8634 87.9335C82.5748 87.9349 82.2904 87.8638 82.0363 87.7266L77.5391 85.2268L73.0418 87.6231C72.7637 87.7743 72.4494 87.8459 72.1334 87.8301C71.8173 87.8144 71.5117 87.7118 71.25 87.5337C70.9884 87.3556 70.7808 87.1089 70.6501 86.8205C70.5193 86.5322 70.4705 86.2134 70.5089 85.8991L71.3876 80.5203L67.683 76.7275C67.4674 76.5027 67.3167 76.2238 67.247 75.9202C67.1772 75.6166 67.1909 75.2998 67.2867 75.0035C67.3879 74.7026 67.5702 74.4356 67.8134 74.2318C68.0566 74.0279 68.3514 73.8953 68.6651 73.8484L73.7138 73.0726L75.9711 68.2454C76.1081 67.9444 76.3288 67.6892 76.6068 67.5103C76.8849 67.3313 77.2085 67.2362 77.5391 67.2362C77.8697 67.2362 78.1933 67.3313 78.4713 67.5103C78.7493 67.6892 78.97 67.9444 79.1071 68.2454L81.3643 73.0726Z" fill="url(#paint0_linear)"/>
<path d="M60.3042 43.1084V39.6604C60.3042 36.917 59.2149 34.286 57.2761 32.3461C55.3372 30.4062 52.7076 29.3164 49.9656 29.3164C47.2236 29.3164 44.594 30.4062 42.6551 32.3461C40.7163 34.286 39.627 36.917 39.627 39.6604V43.1084C38.2561 43.1084 36.9412 43.6533 35.9718 44.6232C35.0024 45.5932 34.4578 46.9087 34.4578 48.2804V62.0724C34.4578 63.4441 35.0024 64.7596 35.9718 65.7295C36.9412 66.6995 38.2561 67.2444 39.627 67.2444H60.3042C61.6751 67.2444 62.99 66.6995 63.9594 65.7295C64.9288 64.7596 65.4734 63.4441 65.4734 62.0724V48.2804C65.4734 46.9087 64.9288 45.5932 63.9594 44.6232C62.99 43.6533 61.6751 43.1084 60.3042 43.1084ZM56.3583 52.9524L49.4659 59.8484C49.3057 60.01 49.1151 60.1383 48.9052 60.2258C48.6952 60.3133 48.47 60.3584 48.2425 60.3584C48.015 60.3584 47.7898 60.3133 47.5798 60.2258C47.3699 60.1383 47.1793 60.01 47.0191 59.8484L43.5729 56.4004C43.2485 56.0758 43.0662 55.6355 43.0662 55.1764C43.0662 54.7173 43.2485 54.277 43.5729 53.9524C43.8974 53.6277 44.3375 53.4453 44.7963 53.4453C45.2552 53.4453 45.6952 53.6277 46.0197 53.9524L48.2425 56.1936L53.9115 50.5044C54.2359 50.1797 54.676 49.9973 55.1349 49.9973C55.5937 49.9973 56.0338 50.1797 56.3583 50.5044C56.6827 50.829 56.865 51.2693 56.865 51.7284C56.865 52.1875 56.6827 52.6278 56.3583 52.9524ZM43.0732 39.6604C43.0732 37.8315 43.7994 36.0774 45.092 34.7842C46.3845 33.4909 48.1376 32.7644 49.9656 32.7644C51.7936 32.7644 53.5467 33.4909 54.8392 34.7842C56.1318 36.0774 56.858 37.8315 56.858 39.6604V43.1084H43.0732V39.6604Z" fill="url(#paint1_linear)"/>
<defs>
<linearGradient id="paint0_linear" x1="49.9998" y1="0" x2="49.9998" y2="100" gradientUnits="userSpaceOnUse">
<stop stop-color="#9BA3A2"/>
<stop offset="1" stop-color="#626A69"/>
</linearGradient>
<linearGradient id="paint1_linear" x1="49.9656" y1="29.3164" x2="49.9656" y2="67.2444" gradientUnits="userSpaceOnUse">
<stop stop-color="#AAEA39"/>
<stop offset="1" stop-color="#86EC16"/>
</linearGradient>
</defs>
</svg>
