<svg width="154" height="77" viewBox="0 0 154 77" fill="none" xmlns="http://www.w3.org/2000/svg">
<path d="M150.09 13.7969C150.071 13.4216 149.901 13.0686 149.616 12.8139C149.332 12.5592 148.956 12.423 148.57 12.4347C142.564 12.5351 130.684 11.5601 120.619 3.34421C120.352 3.12207 120.012 3 119.66 3C119.308 3 118.968 3.12207 118.701 3.34421C108.636 11.5601 96.7568 12.5351 90.7506 12.4347C90.364 12.423 89.9882 12.5592 89.704 12.8139C89.4197 13.0686 89.2497 13.4216 89.2306 13.7969C88.655 28.2356 88.9797 46.5457 95.4434 55.1487C102.202 64.1819 116.355 71.8529 119.66 73C122.966 71.8386 137.118 64.1676 143.877 55.1487C150.341 46.5457 150.665 28.2356 150.09 13.7969Z" stroke="url(#paint0_linear)" stroke-width="6"/>
<mask id="mask0" style="mask-type:alpha" maskUnits="userSpaceOnUse" x="119" y="14" width="23" height="48">
<path d="M141.035 21.9167C132.168 21.9167 123.355 16.6389 119.66 14V61.5C123.618 58.8611 130.092 57.091 136.285 48.8333C141.035 42.5 140.771 28.7778 141.035 21.9167Z" fill="#C4C4C4"/>
</mask>
<g mask="url(#mask0)">
<rect x="119.66" y="14" width="22.1667" height="17.4167" fill="black"/>
<rect x="119.66" y="31.417" width="22.1667" height="12.6667" fill="#FA2929"/>
<rect x="119.66" y="44.083" width="22.1667" height="17.4167" fill="#FFCF24"/>
</g>
<path fill-rule="evenodd" clip-rule="evenodd" d="M30.0714 17.0879L30.6869 13.3228L28.0923 10.6438C27.9414 10.4864 27.8358 10.2912 27.787 10.0787C27.7381 9.8662 27.7477 9.64445 27.8148 9.43699C27.8857 9.2264 28.0133 9.03947 28.1837 8.89681C28.354 8.75414 28.5604 8.66128 28.7802 8.62845L32.316 8.0854L33.8969 4.70644C33.9929 4.49575 34.1475 4.31712 34.3422 4.19186C34.5369 4.0666 34.7635 4 34.9951 4C35.2266 4 35.4532 4.0666 35.648 4.19186C35.8427 4.31712 35.9972 4.49575 36.0932 4.70644L37.6741 8.0854L41.21 8.62845C41.4297 8.66128 41.6361 8.75414 41.8065 8.89681C41.9768 9.03947 42.1045 9.2264 42.1754 9.43699C42.2424 9.64445 42.252 9.8662 42.2032 10.0787C42.1543 10.2912 42.0488 10.4864 41.8978 10.6438L39.3032 13.2987L39.9187 17.0638C39.9605 17.2912 39.9361 17.5258 39.8484 17.7398C39.7607 17.9537 39.6133 18.138 39.4239 18.2706C39.2188 18.4138 38.9742 18.4897 38.724 18.4878C38.5218 18.4888 38.3227 18.439 38.1447 18.343L34.9951 16.5932L31.8454 18.2947C31.6506 18.4005 31.4305 18.4506 31.2092 18.4396C30.9878 18.4285 30.7738 18.3568 30.5905 18.2321C30.4073 18.1074 30.2619 17.9347 30.1703 17.7329C30.0788 17.5311 30.0446 17.3079 30.0714 17.0879ZM37.6741 63.5979L41.21 64.141C41.4297 64.1738 41.6361 64.2667 41.8065 64.4093C41.9768 64.552 42.1045 64.7389 42.1754 64.9495C42.2424 65.157 42.252 65.3787 42.2032 65.5912C42.1543 65.8037 42.0488 65.999 41.8978 66.1563L39.3032 68.8112L39.9187 72.5763C39.9605 72.8037 39.9361 73.0384 39.8484 73.2523C39.7607 73.4662 39.6133 73.6505 39.4239 73.7831C39.2188 73.9263 38.9742 74.0022 38.724 74.0003C38.5218 74.0013 38.3227 73.9515 38.1447 73.8555L34.9951 72.1057L31.8454 73.7831C31.6506 73.8889 31.4305 73.939 31.2092 73.928C30.9878 73.9169 30.7738 73.8451 30.5905 73.7205C30.4073 73.5958 30.2619 73.4231 30.1703 73.2213C30.0788 73.0194 30.0446 72.7963 30.0714 72.5763L30.6869 68.8112L28.0923 66.1563C27.9414 65.999 27.8358 65.8037 27.787 65.5912C27.7381 65.3787 27.7477 65.157 27.8148 64.9495C27.8857 64.7389 28.0133 64.552 28.1837 64.4093C28.354 64.2667 28.5604 64.1738 28.7802 64.141L32.316 63.5979L33.8969 60.219C33.9929 60.0083 34.1475 59.8296 34.3422 59.7044C34.5369 59.5791 34.7635 59.5125 34.9951 59.5125C35.2266 59.5125 35.4532 59.5791 35.648 59.7044C35.8427 59.8296 35.9972 60.0083 36.0932 60.219L37.6741 63.5979ZM10.9677 46.2435C11.2179 46.2455 11.4625 46.1695 11.6677 46.0263C11.8571 45.8937 12.0044 45.7095 12.0921 45.4955C12.1798 45.2816 12.2042 45.047 12.1624 44.8196L11.547 41.0544L14.1416 38.3995C14.2925 38.2422 14.398 38.0469 14.4469 37.8345C14.4958 37.622 14.4862 37.4002 14.4191 37.1928C14.3482 36.9822 14.2206 36.7952 14.0502 36.6526C13.8799 36.5099 13.6734 36.417 13.4537 36.3842L9.91784 35.8412L8.33697 32.4622C8.24098 32.2515 8.08641 32.0729 7.89169 31.9476C7.69697 31.8224 7.47033 31.7558 7.23881 31.7558C7.00728 31.7558 6.78064 31.8224 6.58593 31.9476C6.39121 32.0729 6.23664 32.2515 6.14065 32.4622L4.55977 35.8412L1.02393 36.3842C0.80417 36.417 0.597742 36.5099 0.427395 36.6526C0.257048 36.7952 0.129397 36.9822 0.0585101 37.1928C-0.00855693 37.4002 -0.0181652 37.622 0.0307062 37.8345C0.0795776 38.0469 0.185103 38.2422 0.336068 38.3995L2.93063 41.0544L2.31518 44.8196C2.28829 45.0396 2.32251 45.2627 2.41407 45.4645C2.50564 45.6664 2.65102 45.8391 2.83427 45.9637C3.01752 46.0884 3.23156 46.1602 3.45291 46.1712C3.67427 46.1823 3.89439 46.1321 4.08913 46.0263L7.23881 44.3489L10.3885 46.0987C10.5664 46.1948 10.7656 46.2446 10.9677 46.2435ZM69.6217 36.6526C69.792 36.7952 69.9197 36.9822 69.9906 37.1928C70.0501 37.4056 70.0501 37.6306 69.9906 37.8434C69.931 38.0562 69.8141 38.2486 69.6527 38.3995L67.0581 41.0544L67.6736 44.8196C67.7154 45.047 67.691 45.2816 67.6033 45.4955C67.5155 45.7095 67.3682 45.8937 67.1788 46.0263C66.9736 46.1695 66.7291 46.2455 66.4789 46.2435C66.2767 46.2446 66.0775 46.1948 65.8996 46.0987L62.7499 44.3489L59.6606 46.0263C59.4659 46.1321 59.2457 46.1823 59.0244 46.1712C58.803 46.1602 58.589 46.0884 58.4057 45.9637C58.2225 45.8391 58.0771 45.6664 57.9855 45.4645C57.894 45.2627 57.8598 45.0396 57.8866 44.8196L58.5021 41.0544L55.9075 38.3995C55.7566 38.2422 55.651 38.0469 55.6022 37.8345C55.5533 37.622 55.5629 37.4002 55.63 37.1928C55.7009 36.9822 55.8285 36.7952 55.9989 36.6526C56.1692 36.5099 56.3756 36.417 56.5954 36.3842L60.1312 35.8412L61.7121 32.4622C61.8081 32.2515 61.9627 32.0729 62.1574 31.9476C62.3521 31.8224 62.5788 31.7558 62.8103 31.7558C63.0418 31.7558 63.2684 31.8224 63.4632 31.9476C63.6579 32.0729 63.8124 32.2515 63.9084 32.4622L65.4893 35.8412L69.0252 36.3842C69.2449 36.417 69.4513 36.5099 69.6217 36.6526ZM49.9949 21.7706L49.3794 25.5357C49.3525 25.7557 49.3867 25.9789 49.4783 26.1807C49.5699 26.3825 49.7153 26.5552 49.8985 26.6799C50.0818 26.8046 50.2958 26.8763 50.5171 26.8874C50.7385 26.8984 50.9586 26.8483 51.1534 26.7425L54.303 25.0409L57.4527 26.7908C57.6306 26.8868 57.8298 26.9366 58.032 26.9356C58.2822 26.9375 58.5267 26.8616 58.7319 26.7184C58.9213 26.5858 59.0686 26.4015 59.1564 26.1876C59.2441 25.9736 59.2685 25.739 59.2267 25.5116L58.6112 21.7465L61.2058 19.0916C61.3568 18.9342 61.4623 18.739 61.5111 18.5265C61.56 18.314 61.5504 18.0922 61.4833 17.8848C61.4125 17.6742 61.2848 17.4873 61.1145 17.3446C60.9441 17.2019 60.7377 17.1091 60.5179 17.0762L56.9821 16.5332L55.4012 13.1542C55.3052 12.9435 55.1506 12.7649 54.9559 12.6397C54.7612 12.5144 54.5346 12.4478 54.303 12.4478C54.0715 12.4478 53.8449 12.5144 53.6502 12.6397C53.4554 12.7649 53.3009 12.9435 53.2049 13.1542L51.624 16.5332L48.0882 17.0762C47.8684 17.1091 47.662 17.2019 47.4916 17.3446C47.3213 17.4873 47.1936 17.6742 47.1227 17.8848C47.0557 18.0922 47.0461 18.314 47.0949 18.5265C47.1438 18.739 47.2493 18.9342 47.4003 19.0916L49.9949 21.7706ZM10.763 25.5357L11.3784 21.7706L8.78386 19.0916C8.6329 18.9342 8.52737 18.739 8.4785 18.5265C8.42963 18.314 8.43924 18.0922 8.5063 17.8848C8.57719 17.6742 8.70484 17.4873 8.87519 17.3446C9.04554 17.2019 9.25197 17.1091 9.47172 17.0762L13.0076 16.5332L14.5884 13.1542C14.6844 12.9435 14.839 12.7649 15.0337 12.6397C15.2284 12.5144 15.4551 12.4478 15.6866 12.4478C15.9181 12.4478 16.1448 12.5144 16.3395 12.6397C16.5342 12.7649 16.6888 12.9435 16.7848 13.1542L18.3656 16.5332L21.9015 17.0762C22.1212 17.1091 22.3277 17.2019 22.498 17.3446C22.6684 17.4873 22.796 17.6742 22.8669 17.8848C22.934 18.0922 22.9436 18.314 22.8947 18.5265C22.8458 18.739 22.7403 18.9342 22.5893 19.0916L19.9948 21.7465L20.6102 25.5116C20.652 25.739 20.6276 25.9736 20.5399 26.1876C20.4522 26.4015 20.3049 26.5858 20.1155 26.7184C19.9103 26.8616 19.6657 26.9375 19.4155 26.9356C19.2134 26.9366 19.0142 26.8868 18.8363 26.7908L15.6866 25.0409L12.5369 26.7425C12.3422 26.8483 12.1221 26.8984 11.9007 26.8874C11.6794 26.8763 11.4653 26.8046 11.2821 26.6799C11.0988 26.5552 10.9534 26.3825 10.8619 26.1807C10.7703 25.9789 10.7361 25.7557 10.763 25.5357ZM23.1082 54.4865L19.5723 53.9434L17.9915 50.5645C17.8955 50.3538 17.7409 50.1752 17.5462 50.0499C17.3515 49.9246 17.1248 49.858 16.8933 49.858C16.6618 49.858 16.4351 49.9246 16.2404 50.0499C16.0457 50.1752 15.8911 50.3538 15.7951 50.5645L14.2143 53.9434L10.6784 54.4865C10.4587 54.5193 10.2522 54.6122 10.0819 54.7548C9.91153 54.8975 9.78388 55.0844 9.71299 55.295C9.64592 55.5025 9.63632 55.7242 9.68519 55.9367C9.73406 56.1492 9.83958 56.3445 9.99055 56.5018L12.5851 59.1567L11.9697 62.9218C11.9428 63.1418 11.977 63.365 12.0686 63.5668C12.1601 63.7686 12.3055 63.9413 12.4888 64.066C12.672 64.1907 12.886 64.2625 13.1074 64.2735C13.3287 64.2845 13.5489 64.2344 13.7436 64.1286L16.8933 62.4512L20.043 64.201C20.2209 64.297 20.4201 64.3468 20.6222 64.3458C20.8724 64.3477 21.117 64.2718 21.3221 64.1286C21.5116 63.996 21.6589 63.8118 21.7466 63.5978C21.8343 63.3839 21.8587 63.1492 21.8169 62.9218L21.2015 59.1567L23.796 56.5018C23.947 56.3445 24.0525 56.1492 24.1014 55.9367C24.1503 55.7242 24.1407 55.5025 24.0736 55.295C24.0027 55.0844 23.8751 54.8975 23.7047 54.7548C23.5344 54.6122 23.3279 54.5193 23.1082 54.4865ZM56.9821 55.1501L60.5179 55.6932C60.7377 55.726 60.9441 55.8189 61.1145 55.9615C61.2848 56.1042 61.4125 56.2911 61.4833 56.5017C61.5504 56.7092 61.56 56.9309 61.5111 57.1434C61.4623 57.3559 61.3568 57.5512 61.2058 57.7085L58.6112 60.3634L59.2267 64.1285C59.2685 64.3559 59.2441 64.5906 59.1564 64.8045C59.0686 65.0184 58.9213 65.2027 58.7319 65.3353C58.5267 65.4785 58.2822 65.5544 58.032 65.5525C57.8298 65.5535 57.6306 65.5037 57.4527 65.4077L54.303 63.6579L51.1534 65.3353C50.9586 65.4411 50.7385 65.4912 50.5171 65.4802C50.2958 65.4691 50.0818 65.3974 49.8985 65.2727C49.7153 65.148 49.5699 64.9753 49.4783 64.7735C49.3867 64.5717 49.3525 64.3485 49.3794 64.1285L49.9949 60.3634L47.4003 57.7085C47.2493 57.5512 47.1438 57.3559 47.0949 57.1434C47.0461 56.9309 47.0557 56.7092 47.1227 56.5017C47.1936 56.2911 47.3213 56.1042 47.4916 55.9615C47.662 55.8189 47.8684 55.726 48.0882 55.6932L51.624 55.1501L53.2049 51.7712C53.3009 51.5605 53.4554 51.3818 53.6502 51.2566C53.8449 51.1313 54.0715 51.0647 54.303 51.0647C54.5346 51.0647 54.7612 51.1313 54.9559 51.2566C55.1506 51.3818 55.3052 51.5605 55.4012 51.7712L56.9821 55.1501Z" fill="url(#paint1_linear)"/>
<path d="M42.2354 34.1757V31.7621C42.2354 29.8418 41.4725 28.0001 40.1147 26.6422C38.7568 25.2843 36.9151 24.5215 34.9947 24.5215C33.0744 24.5215 31.2327 25.2843 29.8748 26.6422C28.517 28.0001 27.7541 29.8418 27.7541 31.7621V34.1757C26.7939 34.1757 25.8731 34.5571 25.1942 35.236C24.5152 35.915 24.1338 36.8358 24.1338 37.796V47.4502C24.1338 48.4103 24.5152 49.3312 25.1942 50.0101C25.8731 50.6891 26.7939 51.0705 27.7541 51.0705H42.2354C43.1956 51.0705 44.1164 50.6891 44.7953 50.0101C45.4743 49.3312 45.8557 48.4103 45.8557 47.4502V37.796C45.8557 36.8358 45.4743 35.915 44.7953 35.236C44.1164 34.5571 43.1956 34.1757 42.2354 34.1757ZM39.4719 41.0663L34.6448 45.8934C34.5326 46.0065 34.3991 46.0963 34.2521 46.1576C34.105 46.2188 33.9473 46.2504 33.788 46.2504C33.6287 46.2504 33.4709 46.2188 33.3239 46.1576C33.1768 46.0963 33.0434 46.0065 32.9312 45.8934L30.5176 43.4799C30.2904 43.2526 30.1627 42.9444 30.1627 42.6231C30.1627 42.3017 30.2904 41.9935 30.5176 41.7663C30.7449 41.539 31.0531 41.4114 31.3744 41.4114C31.6958 41.4114 32.004 41.539 32.2312 41.7663L33.788 43.3351L37.7583 39.3527C37.9855 39.1255 38.2937 38.9978 38.6151 38.9978C38.9364 38.9978 39.2446 39.1255 39.4719 39.3527C39.6991 39.58 39.8268 39.8882 39.8268 40.2095C39.8268 40.5309 39.6991 40.8391 39.4719 41.0663ZM30.1677 31.7621C30.1677 30.4819 30.6762 29.2541 31.5815 28.3489C32.4867 27.4436 33.7145 26.935 34.9947 26.935C36.275 26.935 37.5028 27.4436 38.408 28.3489C39.3133 29.2541 39.8218 30.4819 39.8218 31.7621V34.1757H30.1677V31.7621Z" fill="url(#paint2_linear)"/>
<defs>
<linearGradient id="paint0_linear" x1="119.66" y1="3" x2="119.66" y2="73" gradientUnits="userSpaceOnUse">
<stop stop-color="#9BA3A2"/>
<stop offset="1" stop-color="#626A69"/>
</linearGradient>
<linearGradient id="paint1_linear" x1="35.0176" y1="4" x2="35.0176" y2="74.0003" gradientUnits="userSpaceOnUse">
<stop stop-color="#9BA3A2"/>
<stop offset="1" stop-color="#626A69"/>
</linearGradient>
<linearGradient id="paint2_linear" x1="34.9947" y1="24.5215" x2="34.9947" y2="51.0705" gradientUnits="userSpaceOnUse">
<stop stop-color="#AAEA39"/>
<stop offset="1" stop-color="#86EC16"/>
</linearGradient>
</defs>
</svg>
