<svg width="41" height="40" viewBox="0 0 41 40" fill="none" xmlns="http://www.w3.org/2000/svg">
<path d="M36.6005 29.7684C36.0672 30.0473 35.5173 30.293 34.9538 30.5043C33.1602 31.1754 31.2601 31.5173 29.345 31.5135C21.9521 31.5135 15.5122 26.4282 15.5122 19.9023C15.5217 19.0271 15.7646 18.1702 16.2158 17.4201C16.6671 16.6701 17.3103 16.054 18.0791 15.6356C11.3924 15.9168 9.67383 22.8848 9.67383 26.9672C9.67383 38.5096 20.3117 39.6798 22.6036 39.6798C23.8394 39.6798 25.7033 39.3204 26.8219 38.9674L27.0266 38.8986C31.3311 37.4105 35.0008 34.5012 37.4316 30.6495C37.5061 30.5322 37.5393 30.3935 37.5261 30.2552C37.5129 30.1169 37.4539 29.9869 37.3586 29.8859C37.2633 29.7848 37.137 29.7184 36.9997 29.6971C36.8624 29.6758 36.7219 29.7009 36.6005 29.7684Z" fill="url(#paint0_linear)"/>
<path opacity="0.35" d="M36.6005 29.7684C36.0672 30.0473 35.5173 30.293 34.9538 30.5043C33.1602 31.1754 31.2601 31.5173 29.345 31.5135C21.9521 31.5135 15.5122 26.4282 15.5122 19.9023C15.5217 19.0271 15.7646 18.1702 16.2158 17.4201C16.6671 16.6701 17.3103 16.054 18.0791 15.6356C11.3924 15.9168 9.67383 22.8848 9.67383 26.9672C9.67383 38.5096 20.3117 39.6798 22.6036 39.6798C23.8394 39.6798 25.7033 39.3204 26.8219 38.9674L27.0266 38.8986C31.3311 37.4105 35.0008 34.5012 37.4316 30.6495C37.5061 30.5322 37.5393 30.3935 37.5261 30.2552C37.5129 30.1169 37.4539 29.9869 37.3586 29.8859C37.2633 29.7848 37.137 29.7184 36.9997 29.6971C36.8624 29.6758 36.7219 29.7009 36.6005 29.7684Z" fill="url(#paint1_radial)"/>
<path d="M17.0177 37.7176C15.6242 36.8527 14.4166 35.7194 13.465 34.3836C12.3804 32.8976 11.634 31.1924 11.2783 29.3874C10.9225 27.5825 10.966 25.7216 11.4056 23.9352C11.8452 22.1488 12.6703 20.4803 13.823 19.0465C14.9758 17.6128 16.4282 16.4486 18.0785 15.6357C18.566 15.406 19.3987 14.9905 20.5064 15.0108C21.2868 15.0165 22.0552 15.2028 22.7516 15.5552C23.4479 15.9075 24.0532 16.4164 24.52 17.0418C25.1509 17.8842 25.4987 18.9048 25.5136 19.9571C25.5136 19.9243 29.3351 7.521 13.015 7.521C6.15643 7.521 0.516441 14.0296 0.516441 19.7399C0.489387 22.7606 1.1357 25.7493 2.40841 28.4889C4.48838 32.9268 8.12567 36.4464 12.6296 38.3792C17.1335 40.3121 22.1904 40.5236 26.84 38.9737C25.212 39.487 23.492 39.6411 21.7987 39.4253C20.1054 39.2095 18.479 38.629 17.0318 37.7238L17.0177 37.7176Z" fill="url(#paint2_linear)"/>
<path opacity="0.41" d="M17.0177 37.7176C15.6242 36.8527 14.4166 35.7194 13.465 34.3836C12.3804 32.8976 11.634 31.1924 11.2783 29.3874C10.9225 27.5825 10.966 25.7216 11.4056 23.9352C11.8452 22.1488 12.6703 20.4803 13.823 19.0465C14.9758 17.6128 16.4282 16.4486 18.0785 15.6357C18.566 15.406 19.3987 14.9905 20.5064 15.0108C21.2868 15.0165 22.0552 15.2028 22.7516 15.5552C23.4479 15.9075 24.0532 16.4164 24.52 17.0418C25.1509 17.8842 25.4987 18.9048 25.5136 19.9571C25.5136 19.9243 29.3351 7.521 13.015 7.521C6.15643 7.521 0.516441 14.0296 0.516441 19.7399C0.489387 22.7606 1.1357 25.7493 2.40841 28.4889C4.48838 32.9268 8.12567 36.4464 12.6296 38.3792C17.1335 40.3121 22.1904 40.5236 26.84 38.9737C25.212 39.487 23.492 39.6411 21.7987 39.4253C20.1054 39.2095 18.479 38.629 17.0318 37.7238L17.0177 37.7176Z" fill="url(#paint3_radial)"/>
<path d="M24.2989 23.2567C24.1723 23.4208 23.7833 23.6473 23.7833 24.141C23.7833 24.5488 24.0489 24.9409 24.5207 25.2706C26.7673 26.8329 31.0028 26.6267 31.0137 26.6267C32.6784 26.6227 34.3116 26.1722 35.7429 25.3221C37.1868 24.479 38.3852 23.2731 39.2191 21.8239C40.0531 20.3747 40.4936 18.7326 40.497 17.0606C40.5377 13.5594 39.2472 11.2315 38.7254 10.2004C35.4148 3.72458 28.2687 9.79018e-08 20.4977 9.79018e-08C15.2424 -0.000519562 10.198 2.06773 6.45571 5.75743C2.71338 9.44713 0.573904 14.4617 0.5 19.7165C0.574992 14.0078 6.24935 9.39738 12.9986 9.39738C13.5454 9.39738 16.6638 9.45049 19.5603 10.9706C22.1132 12.3111 23.4505 13.9297 24.3801 15.5342C25.3456 17.2012 25.5175 19.3072 25.5175 20.1462C25.5175 20.9851 25.0894 22.2287 24.2989 23.2567Z" fill="url(#paint4_radial)"/>
<path d="M24.2989 23.2567C24.1723 23.4208 23.7833 23.6473 23.7833 24.141C23.7833 24.5488 24.0489 24.9409 24.5207 25.2706C26.7673 26.8329 31.0028 26.6267 31.0137 26.6267C32.6784 26.6227 34.3116 26.1722 35.7429 25.3221C37.1868 24.479 38.3852 23.2731 39.2191 21.8239C40.0531 20.3747 40.4936 18.7326 40.497 17.0606C40.5377 13.5594 39.2472 11.2315 38.7254 10.2004C35.4148 3.72458 28.2687 9.79018e-08 20.4977 9.79018e-08C15.2424 -0.000519562 10.198 2.06773 6.45571 5.75743C2.71338 9.44713 0.573904 14.4617 0.5 19.7165C0.574992 14.0078 6.24935 9.39738 12.9986 9.39738C13.5454 9.39738 16.6638 9.45049 19.5603 10.9706C22.1132 12.3111 23.4505 13.9297 24.3801 15.5342C25.3456 17.2012 25.5175 19.3072 25.5175 20.1462C25.5175 20.9851 25.0894 22.2287 24.2989 23.2567Z" fill="url(#paint5_radial)"/>
<defs>
<linearGradient id="paint0_linear" x1="9.67383" y1="27.6608" x2="37.5363" y2="27.6608" gradientUnits="userSpaceOnUse">
<stop stop-color="#0C59A4"/>
<stop offset="1" stop-color="#114A8B"/>
</linearGradient>
<radialGradient id="paint1_radial" cx="0" cy="0" r="1" gradientUnits="userSpaceOnUse" gradientTransform="translate(25.0627 27.8804) scale(14.9014 14.1564)">
<stop offset="0.72" stop-opacity="0"/>
<stop offset="0.95" stop-opacity="0.53"/>
<stop offset="1"/>
</radialGradient>
<linearGradient id="paint2_linear" x1="24.3622" y1="15.5748" x2="6.95946" y2="34.5304" gradientUnits="userSpaceOnUse">
<stop stop-color="#1B9DE2"/>
<stop offset="0.16" stop-color="#1595DF"/>
<stop offset="0.67" stop-color="#0680D7"/>
<stop offset="1" stop-color="#0078D4"/>
</linearGradient>
<radialGradient id="paint3_radial" cx="0" cy="0" r="1" gradientUnits="userSpaceOnUse" gradientTransform="translate(11.5284 31.0915) rotate(-81.3844) scale(22.4078 18.1032)">
<stop offset="0.76" stop-opacity="0"/>
<stop offset="0.95" stop-opacity="0.5"/>
<stop offset="1"/>
</radialGradient>
<radialGradient id="paint4_radial" cx="0" cy="0" r="1" gradientUnits="userSpaceOnUse" gradientTransform="translate(4.54056 7.40179) rotate(92.2906) scale(31.6514 67.4109)">
<stop stop-color="#35C1F1"/>
<stop offset="0.11" stop-color="#34C1ED"/>
<stop offset="0.23" stop-color="#2FC2DF"/>
<stop offset="0.31" stop-color="#2BC3D2"/>
<stop offset="0.67" stop-color="#36C752"/>
</radialGradient>
<radialGradient id="paint5_radial" cx="0" cy="0" r="1" gradientUnits="userSpaceOnUse" gradientTransform="translate(38.007 12.0933) rotate(73.7398) scale(15.2077 12.3669)">
<stop stop-color="#66EB6E"/>
<stop offset="1" stop-color="#66EB6E" stop-opacity="0"/>
</radialGradient>
</defs>
</svg>
