<svg width="70" height="70" viewBox="0 0 70 70" fill="none" xmlns="http://www.w3.org/2000/svg">
<path d="M35.9115 16.9138C49.1349 16.6974 58.4193 19.9553 61.4087 21.6113L61.4539 18.8468C61.4929 16.4671 60.1021 14.3353 57.8314 13.6968C53.0584 12.3547 45.2182 10.8598 36.0081 11.0105C27.2268 11.1543 19.9174 12.3472 15.308 13.4178C12.8072 13.9986 11.1347 16.2846 11.0929 18.8344L11.034 22.4358C13.8168 20.6854 22.6882 17.1303 35.9115 16.9138Z" fill="#86EC16"/>
<path d="M61.3752 23.6546C61.3333 26.2149 58.8964 28.133 56.4227 27.5527L47.0161 25.3459C45.2713 24.9366 44.068 23.3826 44.0976 21.5767L44.1774 16.7028C44.2193 14.1425 46.6562 12.2244 49.1299 12.8048L58.5365 15.0115C60.2813 15.4208 61.4846 16.9748 61.455 18.7807L61.3752 23.6546Z" fill="#86EC16"/>
<path d="M11.0005 24.4792C10.9586 27.0395 13.334 28.8788 15.8281 28.2171L25.312 25.7012C27.0711 25.2345 28.3259 23.6403 28.3555 21.8344L28.4353 16.9605C28.4772 14.4002 26.1018 12.5609 23.6077 13.2225L14.1238 15.7385C12.3647 16.2051 11.1099 17.7994 11.0803 19.6053L11.0005 24.4792Z" fill="#86EC16"/>
<rect x="11" y="38.2173" width="8.50005" height="19.0001" rx="1" stroke="white" stroke-width="2"/>
<path d="M19.75 40.9756C23.85 40.8757 32.9872 41.6351 36.7358 45.4721H47.5025C49.158 45.4721 50.5001 46.8141 50.5001 48.4697V48.4697C50.5001 50.1252 49.158 51.4673 47.5025 51.4673H30.5858" stroke="white" stroke-width="2" stroke-linecap="round" stroke-linejoin="round"/>
<path d="M50.8118 48.6652C53.2309 47.5262 58.3903 45.6412 60.1013 46.3871C62.7139 47.5261 61.843 50.0889 60.1013 51.5127C58.3595 52.9365 45.5864 60.9096 38.329 61.1943C29.3298 61.5474 24.1045 57.7773 19.75 54.3602" stroke="white" stroke-width="2" stroke-linecap="round" stroke-linejoin="round"/>
</svg>
