<svg width="70" height="70" viewBox="0 0 70 70" fill="none" xmlns="http://www.w3.org/2000/svg">
<rect x="12.9998" y="54" width="44" height="11" stroke="black" stroke-width="2"/>
<path d="M19.9998 37C19.9998 28.7157 26.7155 22 34.9998 22C43.284 22 49.9998 28.7157 49.9998 37V54H19.9998V37Z" stroke="black" stroke-width="2"/>
<path d="M27.9998 38C27.9998 34.134 31.1338 31 34.9998 31C38.8657 31 41.9998 34.134 41.9998 38V53H27.9998V38Z" fill="#86EC16"/>
<line x1="34.9998" y1="7" x2="34.9998" y2="17" stroke="black" stroke-width="2"/>
<line x1="4.99976" y1="36" x2="14.6664" y2="36" stroke="black" stroke-width="2"/>
<line x1="53.3333" y1="36" x2="62.9999" y2="36" stroke="black" stroke-width="2"/>
<line x1="13.4935" y1="15.079" x2="20.5646" y2="22.1501" stroke="black" stroke-width="2"/>
<line x1="55.9202" y1="16.4932" x2="48.8492" y2="23.5643" stroke="black" stroke-width="2"/>
</svg>
