<svg width="30" height="30" viewBox="0 0 30 30" fill="none" xmlns="http://www.w3.org/2000/svg">
<path d="M8 16V12C8 10.8954 8.89543 10 10 10H20" stroke="black" stroke-width="2" stroke-linecap="round"/>
<path d="M22 14V18C22 19.1046 21.1046 20 20 20H10" stroke="black" stroke-width="2" stroke-linecap="round"/>
<path d="M13.7071 17.7071C14.0976 17.3166 14.0976 16.6834 13.7071 16.2929C13.3166 15.9024 12.6834 15.9024 12.2929 16.2929L13.7071 17.7071ZM10 20L9.29289 19.2929C8.90237 19.6834 8.90237 20.3166 9.29289 20.7071L10 20ZM12.2929 23.7071C12.6834 24.0976 13.3166 24.0976 13.7071 23.7071C14.0976 23.3166 14.0976 22.6834 13.7071 22.2929L12.2929 23.7071ZM12.2929 16.2929L9.29289 19.2929L10.7071 20.7071L13.7071 17.7071L12.2929 16.2929ZM9.29289 20.7071L12.2929 23.7071L13.7071 22.2929L10.7071 19.2929L9.29289 20.7071Z" fill="black"/>
<path d="M13.7071 17.7071C14.0976 17.3166 14.0976 16.6834 13.7071 16.2929C13.3166 15.9024 12.6834 15.9024 12.2929 16.2929L13.7071 17.7071ZM10 20L9.29289 19.2929C8.90237 19.6834 8.90237 20.3166 9.29289 20.7071L10 20ZM12.2929 23.7071C12.6834 24.0976 13.3166 24.0976 13.7071 23.7071C14.0976 23.3166 14.0976 22.6834 13.7071 22.2929L12.2929 23.7071ZM12.2929 16.2929L9.29289 19.2929L10.7071 20.7071L13.7071 17.7071L12.2929 16.2929ZM9.29289 20.7071L12.2929 23.7071L13.7071 22.2929L10.7071 19.2929L9.29289 20.7071Z" fill="black"/>
<path d="M16.2929 7.70711C15.9024 7.31658 15.9024 6.68342 16.2929 6.29289C16.6834 5.90237 17.3166 5.90237 17.7071 6.29289L16.2929 7.70711ZM20 10L20.7071 9.29289C21.0976 9.68342 21.0976 10.3166 20.7071 10.7071L20 10ZM17.7071 13.7071C17.3166 14.0976 16.6834 14.0976 16.2929 13.7071C15.9024 13.3166 15.9024 12.6834 16.2929 12.2929L17.7071 13.7071ZM17.7071 6.29289L20.7071 9.29289L19.2929 10.7071L16.2929 7.70711L17.7071 6.29289ZM20.7071 10.7071L17.7071 13.7071L16.2929 12.2929L19.2929 9.29289L20.7071 10.7071Z" fill="black"/>
</svg>
