<svg width="14" height="14" viewBox="0 0 14 14" fill="none" xmlns="http://www.w3.org/2000/svg">
<path fill-rule="evenodd" clip-rule="evenodd" d="M10.3399 1.20123V5.88075C10.3399 6.88081 9.33996 6.88081 9.33996 6.88081H4.66028C3.66022 6.88081 3.66022 5.88075 3.66022 5.88075V1.20123C3.66022 0.201172 4.66028 0.201172 4.66028 0.201172H9.33996C10.3399 0.201172 10.3399 1.20123 10.3399 1.20123ZM11.2909 12.2538C11.8437 12.2538 12.2911 11.8055 12.2911 11.2537C12.2911 10.7009 11.8437 10.2537 11.2909 10.2537C10.7383 10.2537 10.291 10.7009 10.291 11.2537C10.291 11.8055 10.7383 12.2538 11.2909 12.2538ZM14 4.79888V12.7987C14 13.7988 12.9999 13.7988 12.9998 13.7988H1.00006C0 13.7988 0 12.7987 0 12.7987V4.79888C0 3.79883 1.00006 3.79883 1.00006 3.79883H2.70913V6.97353C2.70913 6.97353 2.70913 7.97358 3.70918 7.97358H10.291C10.291 7.97358 11.2909 7.97358 11.2909 6.97353V3.79883H12.9998C14 3.79883 14 4.79888 14 4.79888Z" fill="black"/>
</svg>
