<svg width="70" height="70" viewBox="0 0 70 70" fill="none" xmlns="http://www.w3.org/2000/svg">
<path d="M20.4335 48.7613C11.9419 40.3892 8.13411 32.3161 7.29169 29.3261L5.51645 31.0763C3.98827 32.583 3.52005 34.8504 4.55132 36.7229C6.71908 40.659 10.7282 46.6677 16.6426 52.4989C22.2817 58.0586 27.6536 61.9956 31.2425 64.2735C33.1895 65.5093 35.6906 65.1143 37.328 63.5L39.6407 61.2198C36.7765 60.5554 28.9251 57.1334 20.4335 48.7613Z" fill="#86EC16"/>
<path d="M8.60385 28.0324C10.248 26.4114 12.9996 26.7453 14.1959 28.7111L18.745 36.1862C19.5887 37.5728 19.3671 39.3475 18.2075 40.4909L15.0776 43.5767C13.4334 45.1977 10.6819 44.8638 9.48556 42.898L4.9365 35.4229C4.09271 34.0363 4.31432 32.2616 5.474 31.1182L8.60385 28.0324Z" fill="#86EC16"/>
<path d="M40.9529 59.9261C42.597 58.3051 42.2583 55.5923 40.2645 54.4128L32.6826 49.9278C31.2763 49.0958 29.4762 49.3143 28.3165 50.4577L25.1867 53.5435C23.5425 55.1645 23.8812 57.8774 25.8751 59.0568L33.4569 63.5419C34.8632 64.3738 36.6633 64.1553 37.823 63.0119L40.9529 59.9261Z" fill="#86EC16"/>
<path fill-rule="evenodd" clip-rule="evenodd" d="M57 18C57 14.134 53.866 11 50 11C46.329 11 43.3181 13.8258 43.0236 17.4208C46.6758 18.4626 49.552 21.3445 50.5859 25H56C56.5523 25 57 24.5523 57 24V18ZM50 9C45.3505 9 41.5245 12.5257 41.0496 17.0494C40.7041 17.0167 40.354 17 40 17C33.9249 17 29 21.9249 29 28V36C29 37.6569 30.3431 39 32 39H40C46.0751 39 51 34.0751 51 28C51 27.6629 50.9848 27.3294 50.9552 27H56C57.6569 27 59 25.6569 59 24V18C59 13.0294 54.9706 9 50 9ZM40 19C35.0294 19 31 23.0294 31 28V36C31 36.5523 31.4477 37 32 37H40C44.9706 37 49 32.9706 49 28C49 23.0294 44.9706 19 40 19ZM36 29C36.5523 29 37 28.5523 37 28C37 27.4477 36.5523 27 36 27C35.4477 27 35 27.4477 35 28C35 28.5523 35.4477 29 36 29ZM41 28C41 28.5523 40.5523 29 40 29C39.4477 29 39 28.5523 39 28C39 27.4477 39.4477 27 40 27C40.5523 27 41 27.4477 41 28ZM44 29C44.5523 29 45 28.5523 45 28C45 27.4477 44.5523 27 44 27C43.4477 27 43 27.4477 43 28C43 28.5523 43.4477 29 44 29Z" fill="black"/>
</svg>
