<svg width="70" height="71" viewBox="0 0 70 71" fill="none" xmlns="http://www.w3.org/2000/svg">
<path d="M20.4335 49.6211C11.9419 41.249 8.13411 33.1759 7.29169 30.1858L5.51645 31.9361C3.98827 33.4427 3.52005 35.7101 4.55132 37.5826C6.71908 41.5187 10.7282 47.5275 16.6426 53.3586C22.2817 58.9184 27.6536 62.8554 31.2425 65.1332C33.1895 66.369 35.6906 65.9741 37.328 64.3597L39.6407 62.0796C36.7765 61.4151 28.9251 57.9932 20.4335 49.6211Z" fill="#86EC16"/>
<path d="M8.60385 28.8921C10.248 27.2711 12.9996 27.6051 14.1959 29.5709L18.745 37.046C19.5887 38.4325 19.3671 40.2073 18.2075 41.3506L15.0776 44.4364C13.4334 46.0575 10.6819 45.7235 9.48556 43.7577L4.9365 36.2826C4.09271 34.8961 4.31432 33.1213 5.474 31.9779L8.60385 28.8921Z" fill="#86EC16"/>
<path d="M40.9529 60.7859C42.597 59.1648 42.2583 56.452 40.2645 55.2725L32.6826 50.7875C31.2763 49.9556 29.4762 50.1741 28.3165 51.3174L25.1867 54.4032C23.5425 56.0243 23.8812 58.7371 25.8751 59.9166L33.4569 64.4016C34.8632 65.2335 36.6633 65.015 37.823 63.8717L40.9529 60.7859Z" fill="#86EC16"/>
<path fill-rule="evenodd" clip-rule="evenodd" d="M57 18.8597C57 14.9937 53.866 11.8597 50 11.8597C46.329 11.8597 43.3181 14.6855 43.0236 18.2805C46.6758 19.3224 49.552 22.2043 50.5859 25.8597H56C56.5523 25.8597 57 25.412 57 24.8597V18.8597ZM50 9.85974C45.3505 9.85974 41.5245 13.3854 41.0496 17.9092C40.7041 17.8765 40.354 17.8597 40 17.8597C33.9249 17.8597 29 22.7846 29 28.8597V36.8597C29 38.5166 30.3431 39.8597 32 39.8597H40C46.0751 39.8597 51 34.9349 51 28.8597C51 28.5227 50.9848 28.1891 50.9552 27.8597H56C57.6569 27.8597 59 26.5166 59 24.8597V18.8597C59 13.8892 54.9706 9.85974 50 9.85974ZM40 19.8597C35.0294 19.8597 31 23.8892 31 28.8597V36.8597C31 37.412 31.4477 37.8597 32 37.8597H40C44.9706 37.8597 49 33.8303 49 28.8597C49 23.8892 44.9706 19.8597 40 19.8597ZM36 29.8597C36.5523 29.8597 37 29.412 37 28.8597C37 28.3075 36.5523 27.8597 36 27.8597C35.4477 27.8597 35 28.3075 35 28.8597C35 29.412 35.4477 29.8597 36 29.8597ZM41 28.8597C41 29.412 40.5523 29.8597 40 29.8597C39.4477 29.8597 39 29.412 39 28.8597C39 28.3075 39.4477 27.8597 40 27.8597C40.5523 27.8597 41 28.3075 41 28.8597ZM44 29.8597C44.5523 29.8597 45 29.412 45 28.8597C45 28.3075 44.5523 27.8597 44 27.8597C43.4477 27.8597 43 28.3075 43 28.8597C43 29.412 43.4477 29.8597 44 29.8597Z" fill="black"/>
</svg>
