<svg width="70" height="70" viewBox="0 0 70 70" fill="none" xmlns="http://www.w3.org/2000/svg">
<line x1="35" y1="12" x2="35" y2="5" stroke="black" stroke-width="2"/>
<line x1="35" y1="65" x2="35" y2="58" stroke="black" stroke-width="2"/>
<line x1="65" y1="35" x2="58" y2="35" stroke="black" stroke-width="2"/>
<line x1="12" y1="35" x2="5" y2="35" stroke="black" stroke-width="2"/>
<path fill-rule="evenodd" clip-rule="evenodd" d="M53.9631 14.2085L53.4225 9.65172L59.0742 4L59.7263 9.49637L65.2226 10.1484L59.5709 15.8001L55.6634 15.3366L40.8668 30.1332L43.7262 32.9926L33.4961 36.2305L36.734 26.0004L39.4526 28.719L53.9631 14.2085Z" fill="black"/>
<path fill-rule="evenodd" clip-rule="evenodd" d="M43.0209 22.3224C40.7011 20.8516 37.95 20 35 20C26.7157 20 20 26.7157 20 35C20 43.2843 26.7157 50 35 50C43.2843 50 50 43.2843 50 35C50 31.8359 49.0203 28.9006 47.3477 26.4809L43.6953 30.1333L45.1405 31.5784C45.6344 32.0724 45.8349 32.7883 45.6692 33.4669C45.5035 34.1456 44.9958 34.6886 44.3298 34.8994L34.0997 38.1373C33.3879 38.3626 32.6099 38.1726 32.0819 37.6447C31.554 37.1168 31.3641 36.3388 31.5894 35.627L34.8273 25.3969C35.0381 24.7309 35.5811 24.2231 36.2597 24.0575C36.9384 23.8918 37.6543 24.0922 38.1483 24.5862L39.4527 25.8906L43.0209 22.3224Z" fill="#86EC16"/>
<path fill-rule="evenodd" clip-rule="evenodd" d="M49.4827 15.8606C45.4574 12.81 40.4401 11 35 11C21.7452 11 11 21.7452 11 35C11 48.2548 21.7452 59 35 59C48.2548 59 59 48.2548 59 35C59 29.3479 57.0462 24.1522 53.7772 20.0514L52.3531 21.4755C55.265 25.2063 57 29.9006 57 35C57 47.1503 47.1503 57 35 57C22.8497 57 13 47.1503 13 35C13 22.8497 22.8497 13 35 13C39.8872 13 44.4022 14.5936 48.0538 17.2895L49.4827 15.8606ZM51.0484 19.9517C50.5921 19.4653 50.1139 18.9996 49.6155 18.5562L51.0319 17.1398C51.5282 17.5855 52.0057 18.0516 52.4633 18.5368L51.0484 19.9517Z" fill="black"/>
</svg>
