<svg width="64" height="64" viewBox="0 0 64 64" fill="none" xmlns="http://www.w3.org/2000/svg">
<path d="M36 59H55C57.2091 59 59 57.2091 59 55V9C59 6.79086 57.2091 5 55 5H9C6.79086 5 5 6.79086 5 9V28" stroke="white" stroke-width="2"/>
<line x1="31.2929" y1="33.2929" x2="49.6777" y2="14.9081" stroke="white" stroke-width="2"/>
<path d="M34.6001 15H49.6001V30" stroke="white" stroke-width="2"/>
<path fill-rule="evenodd" clip-rule="evenodd" d="M4 42C4 39.7909 5.79086 38 8 38H22C24.2091 38 26 39.7909 26 42V56C26 58.2091 24.2091 60 22 60H8C5.79086 60 4 58.2091 4 56V42ZM8 42H10V44H8V42ZM10 46H8V48H10V46ZM8 50H10V52H8V50ZM10 54H8V56H10V54ZM12 42H14V44H12V42ZM14 46H12V48H14V46ZM12 50H14V52H12V50ZM14 54H12V56H14V54ZM16 42H18V44H16V42ZM18 46H16V48H18V46ZM16 50H18V52H16V50ZM18 54H16V56H18V54ZM20 42H22V44H20V42ZM22 46H20V48H22V46ZM20 50H22V52H20V50ZM22 54H20V56H22V54Z" fill="#86EC16"/>
</svg>
