<svg width="50" height="50" viewBox="0 0 50 50" fill="none" xmlns="http://www.w3.org/2000/svg">
<path d="M24.6094 6.55595C37.7344 6.55595 47.0052 9.76605 50 11.3711V8.76931C50 6.52962 48.5846 4.50124 46.3198 3.86519C41.5592 2.52819 33.7509 1 24.6094 1C15.8933 1 8.65574 2.01035 4.09676 2.94721C1.62335 3.45549 0 5.58183 0 7.9816V11.3711C2.73438 9.76605 11.4844 6.55595 24.6094 6.55595Z" fill="#86EC16"/>
<path d="M50 13.2942C50 15.7039 47.6118 17.472 45.1463 16.8876L35.7713 14.6652C34.0324 14.253 32.8125 12.7714 32.8125 11.0718V6.48469C32.8125 4.075 35.2007 2.30688 37.6662 2.89132L47.0412 5.11372C48.7801 5.52595 50 7.00746 50 8.70709V13.2942Z" fill="#86EC16"/>
<path d="M0 13.2942C0 15.7039 2.38824 17.472 4.85366 16.8876L14.2287 14.6652C15.9676 14.253 17.1875 12.7714 17.1875 11.0718V6.48469C17.1875 4.075 14.7993 2.30688 12.3338 2.89132L2.95883 5.11372C1.2199 5.52595 0 7.00746 0 8.70709V13.2942Z" fill="#86EC16"/>
<path fill-rule="evenodd" clip-rule="evenodd" d="M8 28L24 16L40 28V49H8V28Z" fill="white"/>
<path d="M24 16L24.6 15.2L24 14.75L23.4 15.2L24 16ZM8 28L7.4 27.2L7 27.5V28H8ZM40 28H41V27.5L40.6 27.2L40 28ZM40 49V50H41V49H40ZM8 49H7V50H8V49ZM23.4 15.2L7.4 27.2L8.6 28.8L24.6 16.8L23.4 15.2ZM40.6 27.2L24.6 15.2L23.4 16.8L39.4 28.8L40.6 27.2ZM39 28V49H41V28H39ZM40 48H8V50H40V48ZM9 49V28H7V49H9Z" fill="black"/>
<path d="M17 36C17 32.134 20.134 29 24 29V29C27.866 29 31 32.134 31 36V49H17V36Z" stroke="black" stroke-width="2"/>
</svg>
