<svg width="140" height="140" viewBox="0 0 140 140" fill="none" xmlns="http://www.w3.org/2000/svg">
<g clip-path="url(#clip0_129_4)">
<circle cx="69.5" cy="69.5" r="54.5" stroke="#C4C4C4" stroke-width="10"/>
<g clip-path="url(#clip1_129_4)">
<path d="M31.4151 77.6394L31.4064 77.6117L31.3973 77.584C29.8497 72.8995 29.0104 67.873 29.0104 62.625C29.0104 57.9179 25.1758 54.0833 20.4688 54.0833H4.57292C-0.134139 54.0833 -3.96875 57.9179 -3.96875 62.625C-3.96875 107.48 32.3842 143.833 77.2396 143.833C81.9466 143.833 85.7812 139.999 85.7812 135.292V119.441C85.7812 114.734 81.9466 110.9 77.2396 110.9C72.0416 110.9 66.9759 110.062 62.2979 108.518C59.2651 107.489 55.8613 108.276 53.5649 110.572L45.6809 118.456C35.5603 112.689 27.1351 104.29 21.4031 94.1888L29.2922 86.2997C31.6637 83.9282 32.3417 80.5875 31.4151 77.6394ZM80.7947 64.0455L83.6432 61.197L80.7745 58.3687L77.55 55.1895L74.7548 52.4337L71.9467 55.1764L49.4479 77.152V67.1667V63.1667H45.4479H40.9062H36.9062V67.1667V94.4167V98.4167H40.9062H68.1562H72.1562V94.4167V89.875V85.875H68.1562H58.9652L80.7947 64.0455Z" fill="#86EC16" stroke="white" stroke-width="8"/>
</g>
</g>
<defs>
<clipPath id="clip0_129_4">
<rect width="140" height="140" fill="white"/>
</clipPath>
<clipPath id="clip1_129_4">
<rect width="109" height="109" fill="white" transform="translate(-17 49)"/>
</clipPath>
</defs>
</svg>
