<svg width="35" height="35" viewBox="0 0 35 35" fill="none" xmlns="http://www.w3.org/2000/svg">
<g clip-path="url(#clip0_1_6)">
<path d="M17.4999 0C16.5299 0 15.7499 0.78 15.7499 1.75V3.5C15.7399 4.47 16.5099 5.26 17.4799 5.27C18.3899 5.27 19.1599 4.59 19.2399 3.68C26.8599 4.69 32.2099 11.69 31.1899 19.31C30.1799 26.93 23.1799 32.28 15.5599 31.26C7.9399 30.25 2.5899 23.25 3.6099 15.63C3.9999 12.68 5.3299 9.94 7.3899 7.8C8.0899 7.13 8.1099 6.02 7.4399 5.33C6.7699 4.64 5.6599 4.61 4.9699 5.28C4.9399 5.31 4.9099 5.34 4.8799 5.38C-1.8201 12.35 -1.5901 23.43 5.3799 30.12C12.3499 36.82 23.4299 36.59 30.1199 29.62C36.8199 22.65 36.5899 11.57 29.6199 4.88C26.3699 1.75 22.0199 0 17.4999 0ZM10.4799 8.73C9.5099 8.73 8.7299 9.52 8.7399 10.49C8.7399 10.96 8.9299 11.41 9.2699 11.73L14.8899 17.35C14.8099 18.8 15.9199 20.04 17.3599 20.12C18.8099 20.2 20.0499 19.09 20.1299 17.65C20.2099 16.2 19.0999 14.96 17.6599 14.88C17.6099 14.88 17.5599 14.88 17.5099 14.88C17.4599 14.88 17.4099 14.88 17.3699 14.88L11.7499 9.26C11.4199 8.92 10.9699 8.73 10.4899 8.73H10.4799Z" fill="#707070"/>
</g>
<defs>
<clipPath id="clip0_1_6">
<rect width="35" height="35" fill="white"/>
</clipPath>
</defs>
</svg>
