<svg id="Ebene_1" data-name="Ebene 1" xmlns="http://www.w3.org/2000/svg" viewBox="0 0 35 35">
  <path id="icons8-timer" d="m17.5,0c-.97,0-1.75.78-1.75,1.75v1.75c-.01.97.76,1.76,1.73,1.77.91,0,1.68-.68,1.76-1.59,7.62,1.01,12.97,8.01,11.95,15.63-1.01,7.62-8.01,12.97-15.63,11.95-7.62-1.01-12.97-8.01-11.95-15.63.39-2.95,1.72-5.69,3.78-7.83.7-.67.72-1.78.05-2.47s-1.78-.72-2.47-.05c-.03.03-.06.06-.09.1-6.7,6.97-6.47,18.05.5,24.74,6.97,6.7,18.05,6.47,24.74-.5,6.7-6.97,6.47-18.05-.5-24.74C26.37,1.75,22.02,0,17.5,0Zm-7.02,8.73c-.97,0-1.75.79-1.74,1.76,0,.47.19.92.53,1.24l5.62,5.62c-.08,1.45,1.03,2.69,2.47,2.77,1.45.08,2.69-1.03,2.77-2.47.08-1.45-1.03-2.69-2.47-2.77-.05,0-.1,0-.15,0-.05,0-.1,0-.14,0l-5.62-5.62c-.33-.34-.78-.53-1.26-.53Z"/>
</svg>