<svg width="140" height="140" viewBox="0 0 140 140" fill="none" xmlns="http://www.w3.org/2000/svg">
<mask id="mask0_117_2" style="mask-type:alpha" maskUnits="userSpaceOnUse" x="0" y="20" width="140" height="99">
<rect y="20" width="140" height="99" rx="10" fill="white"/>
</mask>
<g mask="url(#mask0_117_2)">
<line x1="-0.0663441" y1="67.1448" x2="46.9337" y2="54.1448" stroke="#C4C4C4" stroke-width="8"/>
<line y1="-4" x2="48.7647" y2="-4" transform="matrix(-0.963811 -0.266586 -0.266586 0.963811 139 71)" stroke="#C4C4C4" stroke-width="8"/>
<path d="M71.8139 65.5651C70.6741 66.145 69.3259 66.145 68.1861 65.5651L-1.09592 30.3151C-2.74466 29.4762 -3.60311 27.6162 -3.17179 25.8174C-2.74047 24.0185 -1.13191 22.75 0.717964 22.75H139.282C141.132 22.75 142.74 24.0185 143.172 25.8174C143.603 27.6162 142.745 29.4762 141.096 30.3151L71.8139 65.5651Z" stroke="#86EC16" stroke-width="8" stroke-linejoin="round"/>
<rect x="4" y="23" width="132" height="92" rx="6" stroke="#C4C4C4" stroke-width="8"/>
</g>
</svg>
