<svg width="40" height="40" viewBox="0 0 40 40" fill="none" xmlns="http://www.w3.org/2000/svg">
<path fill-rule="evenodd" clip-rule="evenodd" d="M20.658 3.51744C20.281 3.18755 19.718 3.18755 19.341 3.51744L15.341 7.01744C14.9254 7.38112 14.8833 8.01289 15.2469 8.42852C15.6106 8.84416 16.2424 8.88628 16.658 8.5226L18.9995 6.47379V21.1046C16.6911 15.6088 12.9474 10.7417 8.05185 7.07002L7.0431 6.31346L9.67178 5.94689C10.2188 5.87062 10.6004 5.36536 10.5241 4.81837C10.4478 4.27138 9.94255 3.88978 9.39556 3.96606L4.13142 4.70013C3.63524 4.76932 3.26683 5.19499 3.26955 5.69597L3.29834 11.011C3.30133 11.5632 3.75147 12.0085 4.30374 12.0055C4.85602 12.0025 5.3013 11.5524 5.29831 11.0001L5.2793 7.4906L6.85185 8.67002C13.1652 13.405 17.4431 20.2524 18.9995 27.8398V34.27H19.6519H20.9995H21.6519C21.6519 24.6642 25.6515 15.4921 32.6906 8.95582L34.03 7.71206L34.0122 11.0001C34.0092 11.5524 34.4545 12.0025 35.0068 12.0055C35.5591 12.0085 36.0092 11.5632 36.0122 11.011L36.041 5.69597C36.0437 5.19499 35.6753 4.76932 35.1791 4.70013L29.915 3.96606C29.368 3.88978 28.8627 4.27138 28.7865 4.81837C28.7102 5.36536 29.0918 5.87062 29.6388 5.94689L32.554 6.35341L31.3297 7.49024C26.3421 12.1215 22.797 18.0037 20.9995 24.4368V6.47379L23.341 8.5226C23.7566 8.88628 24.3884 8.84416 24.7521 8.42852C25.1158 8.01289 25.0737 7.38112 24.658 7.01744L20.658 3.51744Z" fill="black"/>
<circle cx="20" cy="27" r="10" fill="#86EC16"/>
</svg>
