<svg width="140" height="140" viewBox="0 0 140 140" fill="none" xmlns="http://www.w3.org/2000/svg">
<mask id="mask0_117_2" style="mask-type:alpha" maskUnits="userSpaceOnUse" x="0" y="20" width="140" height="99">
<rect y="20" width="140" height="99" rx="10" fill="white"/>
</mask>
<g mask="url(#mask0_117_2)">
<line x1="-0.33293" y1="66.1809" x2="46.6671" y2="53.1809" stroke="#C4C4C4" stroke-width="10"/>
<line y1="-5" x2="48.7647" y2="-5" transform="matrix(-0.963811 -0.266586 -0.266586 0.963811 139 71)" stroke="#C4C4C4" stroke-width="10"/>
<path d="M72.2673 63.4564C70.8427 64.1812 69.1573 64.1812 67.7327 63.4564L-1.54939 28.2064C-3.61031 27.1578 -4.68338 24.8328 -4.14423 22.5842C-3.60508 20.3356 -1.59438 18.75 0.717964 18.75H139.282C141.594 18.75 143.605 20.3356 144.144 22.5842C144.683 24.8328 143.61 27.1578 141.549 28.2064L72.2673 63.4564Z" stroke="#86EC16" stroke-width="10" stroke-linejoin="round"/>
<rect x="5" y="24" width="130" height="90" rx="5" stroke="#C4C4C4" stroke-width="10"/>
</g>
</svg>
