<svg width="40" height="40" viewBox="0 0 40 40" fill="none" xmlns="http://www.w3.org/2000/svg">
<path fill-rule="evenodd" clip-rule="evenodd" d="M5 12C5 11.7389 5.12007 11.3032 5.73106 10.7083C6.34837 10.1074 7.34564 9.47404 8.74068 8.89961C11.5214 7.75462 15.5011 7 20 7C24.4989 7 28.4786 7.75462 31.2593 8.89961C32.6544 9.47404 33.6516 10.1074 34.2689 10.7083C34.8799 11.3032 35 11.7389 35 12C35 12.2611 34.8799 12.6968 34.2689 13.2917C33.6516 13.8926 32.6544 14.526 31.2593 15.1004C29.0059 16.0283 25.9651 16.6998 22.4986 16.9211L25.3016 14.5185C26.1402 13.7997 26.2374 12.5371 25.5185 11.6984C24.7997 10.8598 23.5371 10.7626 22.6984 11.4815L15.6984 17.4815C15.2551 17.8615 15 18.4162 15 19C15 19.5839 15.2551 20.1385 15.6984 20.5185L22.6984 26.5185C23.5371 27.2374 24.7997 27.1402 25.5185 26.3016C26.2374 25.4629 26.1402 24.2003 25.3016 23.4815L22.3337 20.9376C26.318 20.723 29.954 19.9637 32.7823 18.7991C34.4637 18.1068 35.956 17.2317 37.0592 16.1578C38.1687 15.0776 39 13.6719 39 12C39 10.3281 38.1687 8.92235 37.0592 7.84223C35.956 6.76825 34.4637 5.89322 32.7823 5.2009C29.4102 3.81238 24.8899 3 20 3C15.1101 3 10.5898 3.81238 7.21769 5.2009C5.53634 5.89322 4.04401 6.76825 2.94083 7.84223C1.83133 8.92235 1 10.3281 1 12C1 13.766 1.92511 15.2309 3.12989 16.3364C4.33252 17.44 5.95872 18.3321 7.79216 19.0259C8.82523 19.4168 9.97962 18.8963 10.3706 17.8632C10.7615 16.8301 10.2409 15.6757 9.20784 15.2848C7.66026 14.6992 6.53645 14.0335 5.83434 13.3892C5.13438 12.7469 5 12.2738 5 12Z" fill="#86EC16"/>
<path fill-rule="evenodd" clip-rule="evenodd" d="M11.8156 23.1655C12.3397 22.9911 12.6232 22.425 12.4489 21.9009C12.2745 21.3769 11.7084 21.0934 11.1844 21.2677C9.73957 21.7483 8.48985 22.3652 7.58103 23.113C6.678 23.8561 6 24.8286 6 25.9998C6 27.0689 6.56715 27.9751 7.34883 28.6859C8.13023 29.3964 9.20514 29.9904 10.4486 30.4687C12.6255 31.3059 15.4756 31.8482 18.6131 31.9725L16.2929 34.2927C15.9024 34.6832 15.9024 35.3164 16.2929 35.7069C16.6834 36.0974 17.3166 36.0974 17.7071 35.7069L21.7071 31.7069C22.0976 31.3164 22.0976 30.6832 21.7071 30.2927L17.7071 26.2927C17.3166 25.9022 16.6834 25.9022 16.2929 26.2927C15.9024 26.6832 15.9024 27.3164 16.2929 27.7069L18.5543 29.9683C15.6445 29.8407 13.0685 29.3335 11.1666 28.602C10.0575 28.1755 9.22865 27.692 8.69438 27.2062C8.16039 26.7206 8 26.3115 8 25.9998C8 25.6595 8.19393 25.1988 8.85187 24.6574C9.50402 24.1207 10.5043 23.6017 11.8156 23.1655ZM32.3172 23.031C31.884 22.6884 31.2551 22.7619 30.9126 23.1952C30.57 23.6284 30.6436 24.2573 31.0768 24.5998C31.7906 25.1642 32 25.6473 32 25.9998C32 26.4177 31.6969 27.0216 30.6607 27.6977C29.657 28.3526 28.1577 28.9376 26.2828 29.3548C25.7437 29.4747 25.4039 30.009 25.5239 30.5481C25.6438 31.0872 26.1781 31.427 26.7172 31.307C28.728 30.8597 30.4787 30.2045 31.7536 29.3727C32.9959 28.5621 34 27.4327 34 25.9998C34 24.7858 33.2728 23.7865 32.3172 23.031Z" fill="black"/>
</svg>
