<svg width="55" height="54" viewBox="0 0 55 54" fill="none" xmlns="http://www.w3.org/2000/svg">
<path fill-rule="evenodd" clip-rule="evenodd" d="M26 54H24V4H26V54Z" fill="white"/>
<path fill-rule="evenodd" clip-rule="evenodd" d="M20 14H22V44H20V14Z" fill="white"/>
<path fill-rule="evenodd" clip-rule="evenodd" d="M30 44H28V15H30V44Z" fill="white"/>
<path fill-rule="evenodd" clip-rule="evenodd" d="M12 18H14V40H12V18Z" fill="white"/>
<path fill-rule="evenodd" clip-rule="evenodd" d="M34 20V38H32V20H34Z" fill="white"/>
<path fill-rule="evenodd" clip-rule="evenodd" d="M46 38H44V20H46V38Z" fill="white"/>
<path fill-rule="evenodd" clip-rule="evenodd" d="M10 36H8V22H10V36Z" fill="white"/>
<path fill-rule="evenodd" clip-rule="evenodd" d="M18 22V36H16V22H18Z" fill="white"/>
<path fill-rule="evenodd" clip-rule="evenodd" d="M38 36H36V22H38V36Z" fill="white"/>
<path fill-rule="evenodd" clip-rule="evenodd" d="M48 35V23H50V35H48Z" fill="white"/>
<path fill-rule="evenodd" clip-rule="evenodd" d="M6 34H4V24H6V34Z" fill="white"/>
<path fill-rule="evenodd" clip-rule="evenodd" d="M42 34H40V24H42V34Z" fill="white"/>
<path fill-rule="evenodd" clip-rule="evenodd" d="M0 26H2V32H0V26Z" fill="white"/>
<path fill-rule="evenodd" clip-rule="evenodd" d="M52 14.5C46.0112 11.7707 42.3445 7.27065 41 1C39.6555 7.27035 35.989 11.7703 30 14.5C35.9888 17.2293 39.6555 21.7293 41 28C42.3445 21.7293 46.0112 17.2293 52 14.5Z" fill="#86EC16" stroke="black" stroke-width="2"/>
</svg>
