<?xml version="1.0" encoding="UTF-8" standalone="no"?>
<!-- Generator: Adobe Illustrator 23.0.1, SVG Export Plug-In . SVG Version: 6.00 Build 0)  -->

<svg
   version="1.1"
   id="Ebene_1"
   x="0px"
   y="0px"
   viewBox="0 0 155.89999 146.33881"
   xml:space="preserve"
   sodipodi:docname="icon-echtzeit-coaching.svg"
   width="155.89999"
   height="155.89999"
   inkscape:version="1.1 (c68e22c387, 2021-05-23)"
   xmlns:inkscape="http://www.inkscape.org/namespaces/inkscape"
   xmlns:sodipodi="http://sodipodi.sourceforge.net/DTD/sodipodi-0.dtd"
   xmlns="http://www.w3.org/2000/svg"
   xmlns:svg="http://www.w3.org/2000/svg"><defs
   id="defs31" /><sodipodi:namedview
   id="namedview29"
   pagecolor="#ffffff"
   bordercolor="#666666"
   borderopacity="1.0"
   inkscape:pageshadow="2"
   inkscape:pageopacity="0.0"
   inkscape:pagecheckerboard="0"
   showgrid="false"
   inkscape:zoom="2.7100279"
   inkscape:cx="70.294481"
   inkscape:cy="93.172474"
   inkscape:window-width="1920"
   inkscape:window-height="1009"
   inkscape:window-x="-8"
   inkscape:window-y="-8"
   inkscape:window-maximized="1"
   inkscape:current-layer="Ebene_1" />
<style
   type="text/css"
   id="style2">
	.st0{fill:#FFFFFF;stroke:#000000;stroke-width:3;stroke-miterlimit:10;}
	.st1{fill:none;stroke:#86ED18;stroke-width:3;stroke-miterlimit:10;}
	.st2{fill:#FFFFFF;}
	.st3{fill:none;stroke:#000000;stroke-width:3;stroke-miterlimit:10;}
	.st4{stroke:#000000;stroke-width:0.75;stroke-miterlimit:10;}
	.st5{fill:none;stroke:#86ED18;stroke-width:3;stroke-linejoin:round;stroke-miterlimit:10;}
</style>
<path
   class="st0"
   d="m 26.5,76.338814 h -25 v 22.8 h 25 z m 47,24.699996 h -26 v 22.8 h 26 z m -47,21 h -25 v 22.8 h 25 z"
   id="path4" />
<path
   class="st1"
   d="m 85.5,96.438814 -21.2,19.199996 -8.8,-8"
   id="path6" />




<path
   class="st1"
   d="m 39.5,70.838814 -21.9,20.1 -9.1,-8.4"
   id="path16" />
<path
   class="st0"
   d="m 70.9,64.038814 c 5.8,0 10.4,-4.7 10.4,-10.4 0,-5.7 -4.7,-10.4 -10.4,-10.4 -5.8,0 -10.4,4.7 -10.4,10.4 0,5.8 4.7,10.4 10.4,10.4 z m 73.1,0 c 5.8,0 10.4,-4.7 10.4,-10.4 0,-5.7 -4.7,-10.4 -10.4,-10.4 -5.8,0 -10.4,4.7 -10.4,10.4 0,5.8 4.7,10.4 10.4,10.4 z"
   id="path18" />
<path
   class="st0"
   d="m 107.7,90.938814 c 20.3,0 36.7,-16.4 36.7,-36.6 0,-20.2 -16.4,-36.6 -36.7,-36.6 -20.3,0 -36.8,16.4 -36.8,36.6 0,20.2 16.5,36.6 36.8,36.6 z"
   id="path20" />
<path
   class="st4"
   d="m 127,55.438814 c 0.4,0 0.7,-0.3 0.7,-0.7 v 0 c 0,-0.4 -0.3,-0.7 -0.7,-0.7 -0.4,0 -0.7,0.3 -0.7,0.7 0,0.4 0.3,0.7 0.7,0.7 z m -3.3,3.1 c 0.4,0 0.7,-0.3 0.8,-0.6 0,-0.4 -0.3,-0.7 -0.6,-0.8 0,0 -0.1,0 -0.1,0 -0.4,0 -0.7,0.4 -0.7,0.7 0,0.4 0.3,0.7 0.6,0.7 z m 9.8,-3.1 c 0.4,0 0.7,-0.3 0.7,-0.7 0,0 0,0 0,0 0,-0.4 -0.3,-0.7 -0.7,-0.7 -0.4,0 -0.7,0.3 -0.7,0.7 0,0.4 0.3,0.7 0.7,0.7 z m -6.5,6.5 c 0.4,0 0.7,-0.3 0.7,-0.7 0,-0.4 -0.3,-0.7 -0.7,-0.7 v 0 c -0.4,0 -0.7,0.3 -0.7,0.7 0,0.4 0.3,0.7 0.7,0.7 z m 6.5,0 c 0.4,0 0.7,-0.3 0.7,-0.7 0,-0.4 -0.3,-0.7 -0.7,-0.7 v 0 c -0.4,0 -0.7,0.3 -0.7,0.7 0,0.4 0.3,0.7 0.7,0.7 z m -3.2,-3.4 c 0.4,0 0.7,-0.3 0.7,-0.7 v 0 c 0,-0.4 -0.3,-0.7 -0.7,-0.7 -0.4,0 -0.7,0.3 -0.7,0.7 0,0.4 0.3,0.7 0.7,0.7 z m 6.7,0 c 0.4,0 0.7,-0.3 0.8,-0.6 0,-0.4 -0.3,-0.7 -0.6,-0.8 0,0 -0.1,0 -0.1,0 -0.4,0 -0.7,0.3 -0.7,0.7 -0.2,0.4 0.1,0.7 0.6,0.7 -0.1,0 0,0 0,0 z m -55.8,-3.1 c 0.4,0 0.7,-0.3 0.7,-0.7 v 0 c 0,-0.4 -0.3,-0.7 -0.7,-0.7 -0.4,0 -0.7,0.3 -0.7,0.7 0,0.4 0.3,0.7 0.7,0.7 z m -3.2,3.1 c 0.4,0 0.7,-0.3 0.8,-0.6 0,-0.4 -0.3,-0.7 -0.6,-0.8 0,0 -0.1,0 -0.1,0 -0.4,0 -0.7,0.4 -0.7,0.7 0,0.4 0.2,0.7 0.6,0.7 z m 9.6,-3.1 c 0.4,0 0.7,-0.3 0.7,-0.7 0,0 0,0 0,0 0,-0.4 -0.3,-0.7 -0.7,-0.7 -0.4,0 -0.7,0.3 -0.7,0.7 0,0.4 0.3,0.7 0.7,0.7 z m -6.4,6.5 c 0.4,0 0.7,-0.3 0.7,-0.7 0,-0.4 -0.3,-0.7 -0.7,-0.7 v 0 c -0.4,0 -0.7,0.3 -0.7,0.7 0,0.4 0.3,0.7 0.7,0.7 z m 6.4,0 c 0.4,0 0.7,-0.3 0.7,-0.7 0,-0.4 -0.3,-0.7 -0.7,-0.7 v 0 c -0.4,0 -0.7,0.3 -0.7,0.7 0,0.4 0.3,0.7 0.7,0.7 z m -3.2,-3.4 c 0.4,0 0.7,-0.3 0.8,-0.6 0,-0.4 -0.3,-0.7 -0.6,-0.8 0,0 -0.1,0 -0.1,0 -0.4,0 -0.7,0.4 -0.7,0.7 0,0.4 0.3,0.7 0.6,0.7 z m 6.7,0 c 0.4,0 0.7,-0.3 0.7,-0.7 0,-0.4 -0.3,-0.7 -0.7,-0.7 -0.4,0 -0.7,0.3 -0.7,0.7 0,0.4 0.3,0.7 0.7,0.7 z"
   id="path22" />
<path
   class="st5"
   d="m 98.9,58.338814 c 0,5.4 4.3,9.6 9.6,9.6 5.3,0 9.6,-4.3 9.6,-9.6"
   id="path24" />
<path
   class="st3"
   d="m 120,47.038814 c 1.5,0 2.7,-1.2 2.7,-2.7 0,-1.5 -1.2,-2.7 -2.7,-2.7 0,0 0,0 0,0 -1.5,0 -2.7,1.2 -2.7,2.7 0,1.5 1.2,2.7 2.7,2.7 z m -22.9,0 c 1.5,0 2.7,-1.2 2.7,-2.7 0,0 0,0 0,0 0,-1.5 -1.2,-2.7 -2.7,-2.7 0,0 0,0 0,0 -1.5,0 -2.7,1.2 -2.7,2.7 0,1.5 1.2,2.7 2.7,2.7 z m 30.8,-10.8 c -0.1,3.7 2.6,7.2 6.6,7.9 3.6,0.6 7.4,-1.5 8.7,-5 1.1,-2.9 0.4,-6.1 -1.6,-8.1 -0.2,-0.2 0,-0.5 0.2,-0.4 1.1,0.4 2.2,0.5 3.6,0.2 2.7,-0.5 4.9,-2.2 6,-4.7 1.9,-4.6 -0.7,-9.5 -5.3,-10.6 -2.8,-0.7 -5.6,0.2 -7.5,2.1 -0.2,0.2 -0.5,0 -0.4,-0.2 0.5,-1.5 0.7,-3.2 0.6,-5 -0.5,-4.6000003 -3.5,-8.6000003 -7.9,-10.2000003 -6.1,-2.2 -12.7,0.7 -15.3,6.2 -10.2,-1.1 -18.2,4.1000003 -21.4,11.5000003"
   id="path26" />
</svg>
