<svg width="58" height="42" viewBox="0 0 58 42" fill="none" xmlns="http://www.w3.org/2000/svg">
<path d="M30 12H2C0.895431 12 0 12.8954 0 14L0 19.6774C0 20.7819 0.895432 21.6774 2 21.6774H3.72883C3.72634 21.6625 3.72389 21.6477 3.72149 21.6328C3.59556 20.8508 3.56171 19.7698 3.98541 18.6194C4.43657 17.3943 5.29427 16.4005 6.4276 15.7247C7.56029 15.0493 8.86816 14.7535 10.2047 14.9765C11.4557 15.1851 12.3919 15.7907 13.001 16.3083C14.0845 17.2289 14.7369 18.4078 14.9137 18.7273L14.9359 18.7673L15.4643 19.7126C16.1156 19.4158 16.849 19.1412 17.6368 18.962C19.0395 18.6432 20.7685 18.5952 22.5228 19.3851C23.0935 19.642 23.6168 19.9651 24.0962 20.3435C25.0393 21.0878 26.1389 21.6774 27.3404 21.6774H30V12Z" fill="#86EC16"/>
<rect x="31" y="1" width="26" height="40" rx="3" stroke="white" stroke-width="2"/>
<path fill-rule="evenodd" clip-rule="evenodd" d="M36 0C32.6863 0 30 2.68629 30 6V8H58V6C58 2.68629 55.3137 0 52 0H36ZM34 6C35.1046 6 36 5.10457 36 4C36 2.89543 35.1046 2 34 2C32.8954 2 32 2.89543 32 4C32 5.10457 32.8954 6 34 6ZM42 4C42 5.10457 41.1046 6 40 6C38.8954 6 38 5.10457 38 4C38 2.89543 38.8954 2 40 2C41.1046 2 42 2.89543 42 4ZM46 6C47.1046 6 48 5.10457 48 4C48 2.89543 47.1046 2 46 2C44.8954 2 44 2.89543 44 4C44 5.10457 44.8954 6 46 6Z" fill="white"/>
<path d="M39.0645 12H35V16.1219H39.0645V12Z" fill="#86EC16"/>
<path d="M35 18.8314H39.0645V22.9533H35V18.8314Z" fill="#86EC16"/>
<path d="M39.0645 25.6628H35V29.7847H39.0645V25.6628Z" fill="#86EC16"/>
<path d="M41.7742 12H45.8387V16.1219H41.7742V12Z" fill="#86EC16"/>
<path d="M45.8387 18.8314H41.7742V22.9533H45.8387V18.8314Z" fill="#86EC16"/>
<path d="M41.7742 25.6628H45.8387V29.7847H41.7742V25.6628Z" fill="#86EC16"/>
<path d="M45.8387 32.4943H41.7742V36.6162H45.8387V32.4943Z" fill="#86EC16"/>
<path d="M48.5484 12H52.6129V16.1219H48.5484V12Z" fill="#86EC16"/>
<path d="M52.6129 18.8314H48.5484V22.9533H52.6129V18.8314Z" fill="#86EC16"/>
<path d="M48.5484 25.6628H52.6129V29.7847H48.5484V25.6628Z" fill="#86EC16"/>
<path d="M8.56869 19.2373C6.91659 20.2225 8.02943 22.2135 8.34738 22.7823L13.1166 31.3147L10.3251 30.1352C9.1593 29.6928 7.94382 29.3938 7.13157 30.3332C6.31933 31.2727 7.01241 32.6796 7.97798 33.2414L15.4957 36.7218C16.8548 37.2501 17.7243 38.8057 20.2699 37.2877L23.6132 35.2939C26.9566 33.3001 25.6346 30.1067 24.513 27.9314L23.0058 25.235C20.3814 20.5398 16.4731 23.6248 14.0362 25.078L11.6516 20.8118C11.3337 20.243 10.2208 18.252 8.56869 19.2373Z" stroke="white" stroke-width="2"/>
</svg>
