<svg width="50" height="50" viewBox="0 0 50 50" fill="none" xmlns="http://www.w3.org/2000/svg">
<path d="M49.6593 23.8573L44.4834 19.5165L39.3074 15.1756C38.6863 14.6692 37.8582 15.3203 37.7202 16.3332L37.1681 21.2528L35.1667 19.5165L29.9908 15.1756C29.3696 14.6692 28.5415 15.3203 28.4035 16.3332L27.8514 21.2528L25.85 19.5165L20.6741 15.1756C20.0529 14.6692 19.2248 15.3203 19.0868 16.3332L18.0516 25.0149L17.0164 33.6966C16.8784 34.7095 17.6375 35.2883 18.3276 34.8542L24.5388 30.5133L26.9542 28.777L26.4021 33.6966C26.2641 34.7095 27.0232 35.2883 27.7133 34.8542L33.9245 30.5133L36.2709 28.8493L35.6498 33.6966C35.5118 34.7095 36.2709 35.2883 36.961 34.8542L43.1721 30.5133L49.3833 26.1725C50.0734 25.666 50.2114 24.3638 49.6593 23.8573Z" fill="#86EC16"/>
<line x1="12" y1="30" x2="1" y2="30" stroke="white" stroke-width="2" stroke-linecap="round" stroke-linejoin="round"/>
<line x1="13" y1="25" x2="5" y2="25" stroke="white" stroke-width="2" stroke-linecap="round" stroke-linejoin="round"/>
<line x1="14" y1="20" x2="9" y2="20" stroke="white" stroke-width="2" stroke-linecap="round" stroke-linejoin="round"/>
</svg>
