<svg id="Ebene_1" data-name="Ebene 1" xmlns="http://www.w3.org/2000/svg" viewBox="0 0 35 35">
  <path id="icons8-chat-nachrichten" d="m35,17.46c0,9.66-7.82,17.5-17.49,17.5-2.79,0-5.55-.67-8.03-1.95l-6.7,1.87c-.19.05-.39.08-.59.08-1.21,0-2.19-.98-2.19-2.18,0-.2.03-.4.08-.59l1.87-6.7C-2.48,16.89.88,6.34,9.47,1.9c8.59-4.44,19.14-1.07,23.58,7.51,1.28,2.49,1.95,5.24,1.95,8.04Zm-8.75-3.06c0-.72-.59-1.31-1.31-1.31h-14.88c-.72.02-1.3.62-1.28,1.35.02.7.58,1.26,1.28,1.28h14.88c.72,0,1.31-.59,1.31-1.31h0Zm-3.5,6.12c0-.72-.59-1.31-1.31-1.31h-11.38c-.72.02-1.3.62-1.28,1.35.02.7.58,1.26,1.28,1.28h11.38c.72,0,1.31-.59,1.31-1.31h0Z"/>
</svg>