<svg width="50" height="50" viewBox="0 0 50 50" fill="none" xmlns="http://www.w3.org/2000/svg">
<path d="M24.6826 6.95562C35.3467 6.95562 42.8792 9.62026 45.3125 10.9526V8.79288C45.3125 6.93376 44.1625 5.25005 42.3223 4.72208C38.4543 3.61227 32.1101 2.34375 24.6826 2.34375C17.6008 2.34375 11.7203 3.18242 8.01612 3.96009C6.00647 4.382 4.6875 6.14703 4.6875 8.13902V10.9526C6.90918 9.62026 14.0186 6.95562 24.6826 6.95562Z" fill="#86EC16"/>
<path d="M45.3125 12.5489C45.3125 14.5491 43.3721 16.0168 41.3689 15.5317L33.7517 13.6869C32.3388 13.3447 31.3477 12.115 31.3477 10.7041V6.89647C31.3477 4.89624 33.2881 3.42856 35.2913 3.91369L42.9085 5.75846C44.3213 6.10064 45.3125 7.33042 45.3125 8.74124V12.5489Z" fill="#86EC16"/>
<path d="M4.6875 12.5489C4.6875 14.5491 6.62795 16.0168 8.6311 15.5317L16.2483 13.6869C17.6612 13.3447 18.6523 12.115 18.6523 10.7041V6.89647C18.6523 4.89624 16.7119 3.42856 14.7087 3.91369L7.09155 5.75846C5.67867 6.10064 4.6875 7.33042 4.6875 8.74124V12.5489Z" fill="#86EC16"/>
<mask id="path-2-inside-1" fill="white">
<path fill-rule="evenodd" clip-rule="evenodd" d="M19.5317 16.1899C16.7769 16.1899 14.3761 18.0658 13.7099 20.7388L13.2319 22.6563H6.6875H4.6875V24.6563V45.6563V47.6563H6.6875H43.3125H45.3125V45.6563V24.6563V22.6563H43.3125H38.3306L37.8526 20.7388C37.1864 18.0658 34.7856 16.1899 32.0308 16.1899H19.5317ZM36.2694 22.6563L35.912 21.2225C35.4679 19.4405 33.8673 18.1899 32.0308 18.1899H19.5317C17.6952 18.1899 16.0946 19.4405 15.6505 21.2225L15.2931 22.6563H36.2694ZM6.6875 24.6563H43.3125V45.6563H6.6875V24.6563Z"/>
</mask>
<path fill-rule="evenodd" clip-rule="evenodd" d="M19.5317 16.1899C16.7769 16.1899 14.3761 18.0658 13.7099 20.7388L13.2319 22.6563H6.6875H4.6875V24.6563V45.6563V47.6563H6.6875H43.3125H45.3125V45.6563V24.6563V22.6563H43.3125H38.3306L37.8526 20.7388C37.1864 18.0658 34.7856 16.1899 32.0308 16.1899H19.5317ZM36.2694 22.6563L35.912 21.2225C35.4679 19.4405 33.8673 18.1899 32.0308 18.1899H19.5317C17.6952 18.1899 16.0946 19.4405 15.6505 21.2225L15.2931 22.6563H36.2694ZM6.6875 24.6563H43.3125V45.6563H6.6875V24.6563Z" fill="#DEDEDE"/>
<path d="M13.7099 20.7388L11.7692 20.2551L13.7099 20.7388ZM13.2319 22.6563V24.6563H14.7946L15.1726 23.1399L13.2319 22.6563ZM4.6875 22.6563V20.6563H2.6875V22.6563H4.6875ZM4.6875 47.6563H2.6875V49.6563H4.6875V47.6563ZM45.3125 47.6563V49.6563H47.3125V47.6563H45.3125ZM45.3125 22.6563H47.3125V20.6563H45.3125V22.6563ZM38.3306 22.6563L36.3899 23.1399L36.7679 24.6563H38.3306V22.6563ZM37.8526 20.7388L35.912 21.2225L35.912 21.2225L37.8526 20.7388ZM36.2694 22.6563V24.6563H38.8291L38.21 22.1726L36.2694 22.6563ZM35.912 21.2225L33.9714 21.7062V21.7062L35.912 21.2225ZM15.6505 21.2225L17.5911 21.7062V21.7062L15.6505 21.2225ZM15.2931 22.6563L13.3525 22.1726L12.7334 24.6563H15.2931V22.6563ZM43.3125 24.6563H45.3125V22.6563H43.3125V24.6563ZM6.6875 24.6563V22.6563H4.6875V24.6563H6.6875ZM43.3125 45.6563V47.6563H45.3125V45.6563H43.3125ZM6.6875 45.6563H4.6875V47.6563H6.6875V45.6563ZM15.6505 21.2225C16.0946 19.4405 17.6952 18.1899 19.5317 18.1899V14.1899C15.8587 14.1899 12.6575 16.6911 11.7692 20.2551L15.6505 21.2225ZM15.1726 23.1399L15.6505 21.2225L11.7692 20.2551L11.2913 22.1726L15.1726 23.1399ZM13.2319 20.6563H6.6875V24.6563H13.2319V20.6563ZM6.6875 20.6563H4.6875V24.6563H6.6875V20.6563ZM2.6875 22.6563V24.6563H6.6875V22.6563H2.6875ZM2.6875 24.6563V45.6563H6.6875V24.6563H2.6875ZM2.6875 45.6563V47.6563H6.6875V45.6563H2.6875ZM4.6875 49.6563H6.6875V45.6563H4.6875V49.6563ZM6.6875 49.6563H43.3125V45.6563H6.6875V49.6563ZM43.3125 49.6563H45.3125V45.6563H43.3125V49.6563ZM47.3125 47.6563V45.6563H43.3125V47.6563H47.3125ZM47.3125 45.6563V24.6563H43.3125V45.6563H47.3125ZM47.3125 24.6563V22.6563H43.3125V24.6563H47.3125ZM45.3125 20.6563H43.3125V24.6563H45.3125V20.6563ZM43.3125 20.6563H38.3306V24.6563H43.3125V20.6563ZM35.912 21.2225L36.3899 23.1399L40.2712 22.1726L39.7933 20.2551L35.912 21.2225ZM32.0308 18.1899C33.8673 18.1899 35.4679 19.4405 35.912 21.2225L39.7933 20.2551C38.905 16.6911 35.7038 14.1899 32.0308 14.1899V18.1899ZM19.5317 18.1899H32.0308V14.1899H19.5317V18.1899ZM38.21 22.1726L37.8526 20.7388L33.9714 21.7062L34.3288 23.1399L38.21 22.1726ZM37.8526 20.7388C37.1864 18.0658 34.7856 16.1899 32.0308 16.1899V20.1899C32.949 20.1899 33.7493 20.8152 33.9714 21.7062L37.8526 20.7388ZM32.0308 16.1899H19.5317V20.1899H32.0308V16.1899ZM19.5317 16.1899C16.7769 16.1899 14.3761 18.0658 13.7099 20.7388L17.5911 21.7062C17.8132 20.8152 18.6135 20.1899 19.5317 20.1899V16.1899ZM13.7099 20.7388L13.3525 22.1726L17.2337 23.1399L17.5911 21.7062L13.7099 20.7388ZM36.2694 20.6563H15.2931V24.6563H36.2694V20.6563ZM43.3125 22.6563H6.6875V26.6563H43.3125V22.6563ZM45.3125 45.6563V24.6563H41.3125V45.6563H45.3125ZM6.6875 47.6563H43.3125V43.6563H6.6875V47.6563ZM4.6875 24.6563V45.6563H8.6875V24.6563H4.6875Z" fill="white" mask="url(#path-2-inside-1)"/>
<path fill-rule="evenodd" clip-rule="evenodd" d="M4.6875 22.6562H6.96641H43.0336H45.3125L44.2201 24.6562L40.9018 30.7312C39.1486 33.9409 35.783 35.9375 32.1257 35.9375H29.6875V33.9375H32.1257C35.0515 33.9375 37.744 32.3402 39.1466 29.7724L41.9412 24.6562H8.05884L10.8534 29.7724C12.256 32.3402 14.9484 33.9375 17.8743 33.9375H21.875V35.9375H17.8743C14.217 35.9375 10.8514 33.9409 9.09818 30.7312L5.77994 24.6562L4.6875 22.6562Z" fill="white"/>
<rect x="22.875" y="32.2003" width="5.8125" height="7.40338" stroke="white" stroke-width="2"/>
</svg>
