<svg width="140" height="140" viewBox="0 0 140 140" fill="none" xmlns="http://www.w3.org/2000/svg">
<mask id="path-1-inside-1_229_40" fill="white">
<path d="M0 120C0 114.477 4.47715 110 10 110V110C15.5228 110 20 114.477 20 120V140H0V120Z"/>
</mask>
<path d="M-6 120C-6 111.163 1.16344 104 10 104C18.8366 104 26 111.163 26 120H14C14 117.791 12.2091 116 10 116C7.79086 116 6 117.791 6 120H-6ZM20 140H0H20ZM-6 140V120C-6 111.163 1.16344 104 10 104V116C7.79086 116 6 117.791 6 120V140H-6ZM10 104C18.8366 104 26 111.163 26 120V140H14V120C14 117.791 12.2091 116 10 116V104Z" fill="url(#paint0_linear_229_40)" mask="url(#path-1-inside-1_229_40)"/>
<mask id="path-3-inside-2_229_40" fill="white">
<path d="M40 100C40 94.4772 44.4772 90 50 90V90C55.5228 90 60 94.4772 60 100V140H40V100Z"/>
</mask>
<path d="M34 100C34 91.1634 41.1634 84 50 84C58.8366 84 66 91.1634 66 100H54C54 97.7909 52.2091 96 50 96C47.7909 96 46 97.7909 46 100H34ZM60 140H40H60ZM34 140V100C34 91.1634 41.1634 84 50 84V96C47.7909 96 46 97.7909 46 100V140H34ZM50 84C58.8366 84 66 91.1634 66 100V140H54V100C54 97.7909 52.2091 96 50 96V84Z" fill="url(#paint1_linear_229_40)" mask="url(#path-3-inside-2_229_40)"/>
<mask id="path-5-inside-3_229_40" fill="white">
<path d="M80 80C80 74.4772 84.4772 70 90 70V70C95.5228 70 100 74.4772 100 80V140H80V80Z"/>
</mask>
<path d="M74 80C74 71.1634 81.1634 64 90 64C98.8366 64 106 71.1634 106 80H94C94 77.7909 92.2091 76 90 76C87.7909 76 86 77.7909 86 80H74ZM100 140H80H100ZM74 140V80C74 71.1634 81.1634 64 90 64V76C87.7909 76 86 77.7909 86 80V140H74ZM90 64C98.8366 64 106 71.1634 106 80V140H94V80C94 77.7909 92.2091 76 90 76V64Z" fill="url(#paint2_linear_229_40)" mask="url(#path-5-inside-3_229_40)"/>
<mask id="path-7-inside-4_229_40" fill="white">
<path d="M120 60C120 54.4772 124.477 50 130 50V50C135.523 50 140 54.4772 140 60V140H120V60Z"/>
</mask>
<path d="M114 60C114 51.1634 121.163 44 130 44C138.837 44 146 51.1634 146 60H134C134 57.7909 132.209 56 130 56C127.791 56 126 57.7909 126 60H114ZM140 140H120H140ZM114 140V60C114 51.1634 121.163 44 130 44V56C127.791 56 126 57.7909 126 60V140H114ZM130 44C138.837 44 146 51.1634 146 60V140H134V60C134 57.7909 132.209 56 130 56V44Z" fill="url(#paint3_linear_229_40)" mask="url(#path-7-inside-4_229_40)"/>
<path d="M9.71677 60.008C6.95978 60.1645 4.8516 62.5262 5.00803 65.2832C5.16445 68.0402 7.52624 70.1484 10.2832 69.992L9.71677 60.008ZM130.364 8.1737C132.116 6.03987 131.808 2.88915 129.674 1.13637C127.54 -0.616416 124.389 -0.307522 122.636 1.8263L130.364 8.1737ZM10 65C10.2832 69.992 10.2853 69.9919 10.2877 69.9917C10.2889 69.9916 10.2915 69.9915 10.2938 69.9914C10.2984 69.9911 10.3041 69.9908 10.3109 69.9904C10.3244 69.9895 10.3422 69.9885 10.3642 69.9871C10.4083 69.9843 10.4693 69.9804 10.547 69.975C10.7022 69.9643 10.9238 69.9481 11.2089 69.9249C11.779 69.8785 12.6031 69.804 13.6581 69.6896C15.7676 69.4609 18.8023 69.0724 22.5751 68.4288C30.1162 67.1425 40.6329 64.8328 52.619 60.7306C76.5641 52.5355 106.597 37.1067 130.364 8.1737L122.636 1.8263C100.403 28.8933 72.1859 43.4645 49.381 51.2694C37.9921 55.1672 28.0088 57.3575 20.8936 58.5712C17.3383 59.1776 14.5058 59.5391 12.5802 59.7479C11.6176 59.8523 10.8822 59.9184 10.3971 59.9579C10.1546 59.9777 9.9747 59.9907 9.86033 59.9986C9.80315 60.0026 9.76235 60.0052 9.7383 60.0067C9.72628 60.0074 9.71844 60.0079 9.71484 60.0081C9.71303 60.0082 9.71229 60.0083 9.71261 60.0083C9.71277 60.0083 9.71381 60.0082 9.71389 60.0082C9.71519 60.0081 9.71677 60.008 10 65Z" fill="#86EC16"/>
<rect x="121.5" width="10" height="25" rx="5" fill="#86EC16"/>
<rect x="131.5" width="10" height="25" rx="5" transform="rotate(90 131.5 0)" fill="#86EC16"/>
<defs>
<linearGradient id="paint0_linear_229_40" x1="10" y1="110" x2="10" y2="140" gradientUnits="userSpaceOnUse">
<stop stop-color="#86EC16"/>
<stop offset="0.0001" stop-color="#86EC17"/>
<stop offset="0.9999" stop-color="#86EC16" stop-opacity="0"/>
<stop offset="1" stop-color="#C4C4C4"/>
</linearGradient>
<linearGradient id="paint1_linear_229_40" x1="50" y1="90" x2="50" y2="140" gradientUnits="userSpaceOnUse">
<stop offset="0.286458" stop-color="#86EC16"/>
<stop offset="1" stop-color="#86EC16" stop-opacity="0"/>
</linearGradient>
<linearGradient id="paint2_linear_229_40" x1="90" y1="70" x2="90" y2="140" gradientUnits="userSpaceOnUse">
<stop offset="0.416667" stop-color="#86EC16"/>
<stop offset="1" stop-color="#86EC16" stop-opacity="0"/>
</linearGradient>
<linearGradient id="paint3_linear_229_40" x1="130" y1="50" x2="130" y2="140" gradientUnits="userSpaceOnUse">
<stop offset="0.463542" stop-color="#86EC16"/>
<stop offset="1" stop-color="#86EC16" stop-opacity="0"/>
</linearGradient>
</defs>
</svg>
