<svg width="48" height="48" viewBox="0 0 48 48" fill="none" xmlns="http://www.w3.org/2000/svg">
<circle cx="24" cy="24" r="23" stroke="black" stroke-width="2"/>
<path d="M15.0114 39V36.4432L24.6136 25.9318C25.7405 24.7008 26.6686 23.6307 27.3977 22.7216C28.1269 21.803 28.6667 20.9413 29.017 20.1364C29.3769 19.322 29.5568 18.4697 29.5568 17.5795C29.5568 16.5568 29.3106 15.6714 28.8182 14.9233C28.3352 14.1752 27.6724 13.5975 26.8295 13.1903C25.9867 12.7831 25.0398 12.5796 23.9886 12.5796C22.8712 12.5796 21.8958 12.8116 21.0625 13.2756C20.2386 13.7301 19.5994 14.3693 19.1449 15.1932C18.6998 16.0171 18.4773 16.983 18.4773 18.0909H15.125C15.125 16.3864 15.518 14.8902 16.304 13.6023C17.09 12.3144 18.16 11.3106 19.5142 10.5909C20.8778 9.87122 22.4072 9.51137 24.1023 9.51137C25.8068 9.51137 27.3172 9.87122 28.6335 10.5909C29.9498 11.3106 30.982 12.2813 31.7301 13.5028C32.4782 14.7244 32.8523 16.0833 32.8523 17.5795C32.8523 18.6496 32.6581 19.696 32.2699 20.7188C31.8911 21.732 31.2282 22.8636 30.2813 24.1136C29.3438 25.3542 28.0417 26.8693 26.375 28.6591L19.8409 35.6477V35.875H33.3636V39H15.0114Z" fill="black"/>
</svg>
