<svg width="40" height="40" viewBox="0 0 40 40" fill="none" xmlns="http://www.w3.org/2000/svg">
<path d="M13.5297 33.9028C13.5434 31.9946 11.4953 30.7082 9.79883 31.7105L7.52472 33.0541C7.30799 33.1822 7.02002 33.1159 6.88062 32.8688L2.06968 24.3415C1.92293 24.0814 2.01893 23.7592 2.24966 23.6229L4.52084 22.281C6.17034 21.3064 6.16209 18.8864 4.50494 17.9239L2.31594 16.6525C2.08206 16.5166 1.98465 16.1904 2.13479 15.9288L7.08811 7.29535C7.22767 7.05209 7.51191 6.98643 7.72729 7.11153L10.0135 8.43939C11.695 9.41603 13.7148 8.15954 13.7284 6.27455L13.7478 3.5852C13.7499 3.28175 13.9839 3.07494 14.2259 3.07313L24.0087 3.00001C24.2553 2.99817 24.4958 3.2097 24.4936 3.52002L24.475 6.09457C24.4613 8.00271 26.5093 9.28917 28.2058 8.28683L30.4753 6.94599C30.692 6.81794 30.98 6.88423 31.1194 7.13132L35.9303 15.6586C36.0771 15.9187 35.9811 16.2409 35.7503 16.3772L33.4775 17.7201C31.828 18.6946 31.8363 21.1147 33.4934 22.0772L35.683 23.3489C35.9168 23.4847 36.0142 23.8109 35.8641 24.0726L30.9108 32.706C30.7712 32.9493 30.487 33.0149 30.2716 32.8898L27.9911 31.5653C26.3097 30.5887 24.2898 31.8451 24.2762 33.7301L24.2569 36.4148C24.2547 36.7182 24.0208 36.9251 23.7788 36.9269L13.9959 37C13.7493 37.0018 13.5089 36.7903 13.5111 36.48L13.5297 33.9028Z" stroke="black" stroke-width="2"/>
<path d="M24.9995 26.6099C24.9995 27.8459 23.976 28.8729 22.6184 28.998L22.5954 29L15.3812 28.998C14.0236 28.8724 13 27.8459 13 26.6099V26.4249C13 23.4337 15.6917 21 19 21C22.3083 21 25 23.4337 25 26.4249L24.9995 26.6099Z" fill="#86EC16"/>
<circle cx="19" cy="15" r="4" fill="#86EC16"/>
</svg>
