<svg width="48" height="48" viewBox="0 0 48 48" fill="none" xmlns="http://www.w3.org/2000/svg">
<circle cx="24" cy="24" r="23" stroke="black" stroke-width="2"/>
<path d="M24.8409 39.3977C22.9659 39.3977 21.2945 39.0758 19.8267 38.4318C18.3684 37.7879 17.2083 36.893 16.3466 35.7472C15.4943 34.5919 15.0303 33.2519 14.9546 31.7273H18.5341C18.6099 32.6648 18.9318 33.4744 19.5 34.1563C20.0682 34.8286 20.8116 35.3494 21.7301 35.7188C22.6487 36.0881 23.6667 36.2727 24.7841 36.2727C26.0341 36.2727 27.1421 36.0549 28.108 35.6193C29.0739 35.1837 29.8315 34.5777 30.3807 33.8011C30.9299 33.0246 31.2046 32.125 31.2046 31.1023C31.2046 30.0322 30.9394 29.09 30.4091 28.2756C29.8788 27.4517 29.1023 26.8078 28.0796 26.3438C27.0568 25.8797 25.8068 25.6477 24.3296 25.6477H22V22.5227H24.3296C25.4849 22.5227 26.4981 22.3144 27.3693 21.8977C28.25 21.4811 28.9366 20.8939 29.429 20.1364C29.9309 19.3788 30.1818 18.4886 30.1818 17.4659C30.1818 16.4811 29.964 15.6241 29.5284 14.8949C29.0928 14.1657 28.4773 13.5975 27.6818 13.1903C26.8958 12.7831 25.9678 12.5796 24.8977 12.5796C23.894 12.5796 22.947 12.7642 22.0568 13.1335C21.1762 13.4934 20.4565 14.0189 19.8977 14.7102C19.339 15.3921 19.036 16.2159 18.9887 17.1818H15.5796C15.6364 15.6572 16.0957 14.322 16.9574 13.1761C17.8191 12.0208 18.946 11.1212 20.3381 10.4773C21.7396 9.83334 23.2784 9.51137 24.9546 9.51137C26.7538 9.51137 28.2974 9.87595 29.5852 10.6051C30.8731 11.3248 31.8627 12.2765 32.554 13.4602C33.2453 14.6439 33.5909 15.9224 33.5909 17.2955C33.5909 18.9337 33.1601 20.3305 32.2983 21.4858C31.446 22.6411 30.286 23.4413 28.8182 23.8864V24.1136C30.6553 24.4167 32.09 25.1979 33.1222 26.4574C34.1544 27.7074 34.6705 29.2557 34.6705 31.1023C34.6705 32.6837 34.2396 34.1042 33.3779 35.3636C32.5256 36.6136 31.3608 37.5985 29.8835 38.3182C28.4063 39.0379 26.7254 39.3977 24.8409 39.3977Z" fill="black"/>
</svg>
