<svg width="224" height="224" viewBox="0 0 56 56" fill="none" xmlns="http://www.w3.org/2000/svg">
<path d="M39.826 10.3973C33.826 -1.10268 20.326 0.897318 16.826 6.39732C-9.67397 9.89732 4.32604 40.3973 20.326 30.8973C26.326 34.3973 30.826 33.8973 36.326 29.3973C53.826 40.8973 63.326 10.3973 39.826 10.3973Z" stroke="url(#paint0_linear_301_2)" stroke-width="4"/>
<rect x="26" y="5" width="16" height="8.33333" fill="black"/>
<rect x="26" y="13.3333" width="16" height="8.33333" fill="#FA2929"/>
<rect x="26" y="21.6667" width="16" height="8.33333" fill="#FFCF24"/>
<path d="M0.963068 43.0312V45H0.460227V40.6364H0.963068V42.2386H1.00568C1.08239 42.0696 1.19744 41.9354 1.35085 41.8359C1.50568 41.7351 1.71165 41.6847 1.96875 41.6847C2.19176 41.6847 2.38707 41.7294 2.55469 41.8189C2.7223 41.907 2.85227 42.0426 2.9446 42.2259C3.03835 42.4077 3.08523 42.6392 3.08523 42.9205V45H2.58239V42.9545C2.58239 42.6946 2.51491 42.4936 2.37997 42.3516C2.24645 42.2081 2.06108 42.1364 1.82386 42.1364C1.65909 42.1364 1.51136 42.1712 1.38068 42.2408C1.25142 42.3104 1.14915 42.4119 1.07386 42.5455C1 42.679 0.963068 42.8409 0.963068 43.0312ZM5.33469 45.0682C5.03924 45.0682 4.78001 44.9979 4.557 44.8572C4.3354 44.7166 4.16211 44.5199 4.03711 44.267C3.91353 44.0142 3.85174 43.7187 3.85174 43.3807C3.85174 43.0398 3.91353 42.7422 4.03711 42.4879C4.16211 42.2337 4.3354 42.0362 4.557 41.8956C4.78001 41.755 5.03924 41.6847 5.33469 41.6847C5.63015 41.6847 5.88867 41.755 6.11026 41.8956C6.33327 42.0362 6.50657 42.2337 6.63015 42.4879C6.75515 42.7422 6.81765 43.0398 6.81765 43.3807C6.81765 43.7187 6.75515 44.0142 6.63015 44.267C6.50657 44.5199 6.33327 44.7166 6.11026 44.8572C5.88867 44.9979 5.63015 45.0682 5.33469 45.0682ZM5.33469 44.6165C5.55913 44.6165 5.74379 44.5589 5.88867 44.4439C6.03356 44.3288 6.1408 44.1776 6.2104 43.9901C6.28001 43.8026 6.31481 43.5994 6.31481 43.3807C6.31481 43.1619 6.28001 42.9581 6.2104 42.7692C6.1408 42.5803 6.03356 42.4276 5.88867 42.3111C5.74379 42.1946 5.55913 42.1364 5.33469 42.1364C5.11026 42.1364 4.9256 42.1946 4.78072 42.3111C4.63583 42.4276 4.52859 42.5803 4.45898 42.7692C4.38938 42.9581 4.35458 43.1619 4.35458 43.3807C4.35458 43.5994 4.38938 43.8026 4.45898 43.9901C4.52859 44.1776 4.63583 44.3288 4.78072 44.4439C4.9256 44.5589 5.11026 44.6165 5.33469 44.6165ZM9.90341 42.4602L9.4517 42.5881C9.4233 42.5128 9.38139 42.4396 9.32599 42.3686C9.27202 42.2962 9.19815 42.2365 9.1044 42.1896C9.01065 42.1428 8.89062 42.1193 8.74432 42.1193C8.54403 42.1193 8.37713 42.1655 8.24361 42.2578C8.11151 42.3487 8.04545 42.4645 8.04545 42.6051C8.04545 42.7301 8.09091 42.8288 8.18182 42.9013C8.27273 42.9737 8.41477 43.0341 8.60795 43.0824L9.09375 43.2017C9.38636 43.2727 9.6044 43.3814 9.74787 43.5277C9.89134 43.6726 9.96307 43.8594 9.96307 44.0881C9.96307 44.2756 9.90909 44.4432 9.80114 44.5909C9.6946 44.7386 9.54545 44.8551 9.35369 44.9403C9.16193 45.0256 8.93892 45.0682 8.68466 45.0682C8.35085 45.0682 8.07457 44.9957 7.85582 44.8509C7.63707 44.706 7.49858 44.4943 7.44034 44.2159L7.91761 44.0966C7.96307 44.2727 8.04901 44.4048 8.17543 44.4929C8.30327 44.581 8.47017 44.625 8.67614 44.625C8.91051 44.625 9.09659 44.5753 9.23438 44.4759C9.37358 44.375 9.44318 44.2543 9.44318 44.1136C9.44318 44 9.40341 43.9048 9.32386 43.8281C9.24432 43.75 9.12216 43.6918 8.95739 43.6534L8.41193 43.5256C8.11222 43.4545 7.89205 43.3445 7.75142 43.1953C7.61222 43.0447 7.54261 42.8565 7.54261 42.6307C7.54261 42.446 7.59446 42.2827 7.69815 42.1406C7.80327 41.9986 7.94602 41.8871 8.12642 41.8061C8.30824 41.7251 8.5142 41.6847 8.74432 41.6847C9.06818 41.6847 9.32244 41.7557 9.5071 41.8977C9.69318 42.0398 9.82528 42.2273 9.90341 42.4602ZM12.1433 41.7273V42.1534H10.4473V41.7273H12.1433ZM10.9416 40.9432H11.4444V44.0625C11.4444 44.2045 11.465 44.3111 11.5062 44.3821C11.5488 44.4517 11.6028 44.4986 11.6681 44.5227C11.7349 44.5455 11.8052 44.5568 11.8791 44.5568C11.9345 44.5568 11.9799 44.554 12.0154 44.5483C12.051 44.5412 12.0794 44.5355 12.1007 44.5312L12.2029 44.983C12.1689 44.9957 12.1213 45.0085 12.0602 45.0213C11.9991 45.0355 11.9217 45.0426 11.8279 45.0426C11.6859 45.0426 11.5467 45.0121 11.4103 44.951C11.2754 44.8899 11.1632 44.7969 11.0737 44.6719C10.9856 44.5469 10.9416 44.3892 10.9416 44.1989V40.9432ZM14.2367 45.0682C13.9213 45.0682 13.6493 44.9986 13.4206 44.8594C13.1934 44.7188 13.0179 44.5227 12.8944 44.2713C12.7722 44.0185 12.7111 43.7244 12.7111 43.3892C12.7111 43.054 12.7722 42.7585 12.8944 42.5028C13.0179 42.2457 13.1898 42.0455 13.41 41.902C13.6316 41.7571 13.8901 41.6847 14.1855 41.6847C14.356 41.6847 14.5243 41.7131 14.6905 41.7699C14.8567 41.8267 15.008 41.919 15.1444 42.0469C15.2807 42.1733 15.3894 42.3409 15.4703 42.5497C15.5513 42.7585 15.5918 43.0156 15.5918 43.321V43.5341H13.0691V43.0994H15.0804C15.0804 42.9148 15.0435 42.75 14.9696 42.6051C14.8972 42.4602 14.7935 42.3459 14.6586 42.2621C14.525 42.1783 14.3674 42.1364 14.1855 42.1364C13.9853 42.1364 13.812 42.1861 13.6657 42.2855C13.5208 42.3835 13.4093 42.5114 13.3311 42.669C13.253 42.8267 13.214 42.9957 13.214 43.1761V43.4659C13.214 43.7131 13.2566 43.9226 13.3418 44.0945C13.4284 44.2649 13.5485 44.3949 13.7019 44.4844C13.8553 44.5724 14.0336 44.6165 14.2367 44.6165C14.3688 44.6165 14.4881 44.598 14.5946 44.5611C14.7026 44.5227 14.7956 44.4659 14.8738 44.3906C14.9519 44.3139 15.0123 44.2187 15.0549 44.1051L15.5407 44.2415C15.4895 44.4062 15.4036 44.5511 15.2828 44.6761C15.1621 44.7997 15.013 44.8963 14.8354 44.9659C14.6578 45.0341 14.4583 45.0682 14.2367 45.0682ZM17.5925 45.0682C17.3198 45.0682 17.079 44.9993 16.8702 44.8615C16.6614 44.7223 16.498 44.5263 16.3801 44.2734C16.2623 44.0192 16.2033 43.7188 16.2033 43.3722C16.2033 43.0284 16.2623 42.7301 16.3801 42.4773C16.498 42.2244 16.6621 42.0291 16.8723 41.8913C17.0826 41.7536 17.3255 41.6847 17.601 41.6847C17.8141 41.6847 17.9824 41.7202 18.106 41.7912C18.231 41.8608 18.3262 41.9403 18.3915 42.0298C18.4583 42.1179 18.5101 42.1903 18.5471 42.2472H18.5897V40.6364H19.0925V45H18.6067V44.4972H18.5471C18.5101 44.5568 18.4576 44.6321 18.3894 44.723C18.3212 44.8125 18.2239 44.8928 18.0975 44.9638C17.9711 45.0334 17.8027 45.0682 17.5925 45.0682ZM17.6607 44.6165C17.8624 44.6165 18.0328 44.5639 18.1721 44.4588C18.3113 44.3523 18.4171 44.2053 18.4895 44.0178C18.562 43.8288 18.5982 43.6108 18.5982 43.3636C18.5982 43.1193 18.5627 42.9055 18.4917 42.7223C18.4206 42.5376 18.3155 42.3942 18.1763 42.2919C18.0371 42.1882 17.8652 42.1364 17.6607 42.1364C17.4476 42.1364 17.2701 42.1911 17.128 42.3004C16.9874 42.4084 16.8816 42.5554 16.8105 42.7415C16.7409 42.9261 16.7061 43.1335 16.7061 43.3636C16.7061 43.5966 16.7417 43.8082 16.8127 43.9986C16.8851 44.1875 16.9917 44.3381 17.1323 44.4503C17.2743 44.5611 17.4505 44.6165 17.6607 44.6165ZM21.7708 45V41.7273H22.2736V45H21.7708ZM22.0265 41.1818C21.9284 41.1818 21.8439 41.1484 21.7729 41.0817C21.7033 41.0149 21.6685 40.9347 21.6685 40.8409C21.6685 40.7472 21.7033 40.6669 21.7729 40.6001C21.8439 40.5334 21.9284 40.5 22.0265 40.5C22.1245 40.5 22.2083 40.5334 22.2779 40.6001C22.3489 40.6669 22.3844 40.7472 22.3844 40.8409C22.3844 40.9347 22.3489 41.0149 22.2779 41.0817C22.2083 41.1484 22.1245 41.1818 22.0265 41.1818ZM23.6974 43.0312V45H23.1946V41.7273H23.6804V42.2386H23.723C23.7997 42.0724 23.9162 41.9389 24.0724 41.8381C24.2287 41.7358 24.4304 41.6847 24.6776 41.6847C24.8991 41.6847 25.093 41.7301 25.2592 41.821C25.4254 41.9105 25.5547 42.0469 25.647 42.2301C25.7393 42.4119 25.7855 42.642 25.7855 42.9205V45H25.2827V42.9545C25.2827 42.6974 25.2159 42.4972 25.0824 42.3537C24.9489 42.2088 24.7656 42.1364 24.5327 42.1364C24.3722 42.1364 24.2287 42.1712 24.1023 42.2408C23.9773 42.3104 23.8786 42.4119 23.8061 42.5455C23.7337 42.679 23.6974 42.8409 23.6974 43.0312Z" fill="#9BA3A2"/>
<path d="M5.45455 49.0781C5.40483 48.9053 5.33499 48.7526 5.24503 48.62C5.15507 48.4851 5.04498 48.3714 4.91477 48.2791C4.78693 48.1844 4.64015 48.1122 4.47443 48.0625C4.31108 48.0128 4.12997 47.9879 3.93111 47.9879C3.55942 47.9879 3.23272 48.0803 2.95099 48.2649C2.67164 48.4496 2.45384 48.7183 2.29759 49.071C2.14134 49.4214 2.06321 49.8499 2.06321 50.3565C2.06321 50.8632 2.14015 51.294 2.29403 51.6491C2.44792 52.0043 2.66572 52.2753 2.94744 52.4624C3.22917 52.647 3.56179 52.7393 3.94531 52.7393C4.29332 52.7393 4.59044 52.6778 4.83665 52.5547C5.08523 52.4292 5.27462 52.2528 5.40483 52.0256C5.53741 51.7983 5.60369 51.5296 5.60369 51.2195L5.91619 51.2656H4.04119V50.108H7.08452V51.0241C7.08452 51.6634 6.94957 52.2126 6.67969 52.6719C6.4098 53.1288 6.03812 53.4815 5.56463 53.7301C5.09115 53.9763 4.54901 54.0994 3.93821 54.0994C3.25639 54.0994 2.65743 53.9491 2.14134 53.6484C1.62524 53.3454 1.22277 52.9157 0.933949 52.3594C0.647491 51.8007 0.504261 51.1378 0.504261 50.3707C0.504261 49.7812 0.589489 49.2557 0.759943 48.794C0.932765 48.33 1.17424 47.937 1.48438 47.6151C1.79451 47.2931 2.15554 47.0481 2.56747 46.88C2.9794 46.7119 3.42566 46.6278 3.90625 46.6278C4.31818 46.6278 4.7017 46.6882 5.05682 46.8089C5.41193 46.9273 5.7268 47.0954 6.00142 47.3132C6.27841 47.531 6.5045 47.7902 6.67969 48.0909C6.85488 48.3892 6.96733 48.7183 7.01705 49.0781H5.45455ZM8.23952 54V46.7273H13.1401V47.995H9.77717V49.728H12.888V50.9957H9.77717V52.7322H13.1543V54H8.23952ZM14.3626 54V46.7273H17.2319C17.7811 46.7273 18.2499 46.8255 18.6381 47.022C19.0288 47.2161 19.3259 47.492 19.5295 47.8494C19.7354 48.2045 19.8384 48.6224 19.8384 49.103C19.8384 49.5859 19.7343 50.0014 19.5259 50.3494C19.3176 50.6951 19.0157 50.9602 18.6204 51.1449C18.2274 51.3295 17.7515 51.4219 17.1928 51.4219H15.2717V50.1861H16.9442C17.2378 50.1861 17.4817 50.1458 17.6758 50.0653C17.8699 49.9848 18.0143 49.8641 18.109 49.7031C18.2061 49.5421 18.2546 49.3421 18.2546 49.103C18.2546 48.8615 18.2061 48.6579 18.109 48.4922C18.0143 48.3265 17.8687 48.201 17.6722 48.1158C17.4781 48.0282 17.2331 47.9844 16.9371 47.9844H15.9002V54H14.3626ZM18.2901 50.6903L20.0977 54H18.4002L16.6317 50.6903H18.2901ZM20.9251 46.7273H22.8214L24.8242 51.6136H24.9094L26.9123 46.7273H28.8086V54H27.3171V49.2663H27.2567L25.3746 53.9645H24.359L22.4769 49.2486H22.4165V54H20.9251V46.7273ZM31.329 54H29.6813L32.1919 46.7273H34.1735L36.6806 54H35.0328L33.2111 48.3892H33.1543L31.329 54ZM31.226 51.1413H35.1181V52.3416H31.226V51.1413ZM43.639 46.7273V54H42.3109L39.1468 49.4226H39.0936V54H37.5559V46.7273H38.9054L42.0446 51.3011H42.1085V46.7273H43.639ZM44.4833 46.7273H46.2056L47.864 49.8594H47.935L49.5934 46.7273H51.3157L48.663 51.429V54H47.136V51.429L44.4833 46.7273Z" fill="#626A69"/>
<defs>
<linearGradient id="paint0_linear_301_2" x1="27.9129" y1="2" x2="27.9129" y2="33.1942" gradientUnits="userSpaceOnUse">
<stop stop-color="#9BA3A2"/>
<stop offset="1" stop-color="#626A69"/>
</linearGradient>
</defs>
</svg>
