<svg width="51" height="61" viewBox="0 0 51 61" fill="none" xmlns="http://www.w3.org/2000/svg">
<path d="M50.3592 32.0193V9.91408C50.3592 9.14215 50.0083 8.4404 49.3768 7.879C48.8154 7.38777 48.1838 7.17724 47.482 7.17724H47.2013C46.1487 7.31759 44.9557 7.38777 43.9031 7.38777C33.868 7.38777 27.3417 1.14215 27.2715 1.07198C26.7803 0.58075 26.0785 0.300049 25.3768 0.300049C24.675 0.300049 23.9732 0.58075 23.482 1.07198C23.482 1.14215 17.0259 7.38777 6.85044 7.38777C5.79781 7.38777 4.60483 7.31759 3.5522 7.17724H3.2715C2.56974 7.17724 1.93816 7.38777 1.37676 7.879C0.74518 8.4404 0.394303 9.07198 0.394303 9.91408V32.0193C0.324127 33.2825 0.253952 41.2825 7.8329 49.3527C11.4118 53.1422 16.675 56.9316 24.3943 60.0895C24.7452 60.2299 25.0961 60.3 25.4469 60.3C25.7978 60.3 26.1487 60.2299 26.4996 60.0895C35.6224 56.3702 41.2364 51.7386 44.7452 47.3176C50.5697 39.9492 50.4294 33.1422 50.3592 32.0193ZM30.9908 29.0018V42.7562C30.9908 45.9141 28.4645 48.3702 25.3768 48.3702C22.289 48.3702 19.7627 45.8439 19.7627 42.7562V29.0018C17.6575 27.3176 16.3241 24.7913 16.3241 21.9141C16.3241 16.9316 20.3943 12.8615 25.3768 12.8615C30.3592 12.8615 34.4294 16.9316 34.4294 21.9141C34.4294 24.7913 32.9557 27.2474 30.9908 29.0018Z" fill="white"/>
</svg>
