<svg width="35" height="35" viewBox="0 0 35 35" fill="none" xmlns="http://www.w3.org/2000/svg">
<g clip-path="url(#clip0_1_4)">
<path d="M35 17.46C35 27.12 27.18 34.96 17.51 34.96C14.72 34.96 11.96 34.29 9.48 33.01L2.78 34.88C2.59 34.93 2.39 34.96 2.19 34.96C0.98 34.96 4.56348e-08 33.98 4.56348e-08 32.78C4.56348e-08 32.58 0.03 32.38 0.08 32.19L1.95 25.49C-2.48 16.89 0.880001 6.34 9.47 1.9C18.06 -2.54 28.61 0.829997 33.05 9.41C34.33 11.9 35 14.65 35 17.45V17.46ZM26.25 14.4C26.25 13.68 25.66 13.09 24.94 13.09H10.06C9.34 13.11 8.76 13.71 8.78 14.44C8.8 15.14 9.36 15.7 10.06 15.72H24.94C25.66 15.72 26.25 15.13 26.25 14.41V14.4ZM22.75 20.52C22.75 19.8 22.16 19.21 21.44 19.21H10.06C9.34 19.23 8.76 19.83 8.78 20.56C8.8 21.26 9.36 21.82 10.06 21.84H21.44C22.16 21.84 22.75 21.25 22.75 20.53V20.52Z" fill="#707070"/>
</g>
<defs>
<clipPath id="clip0_1_4">
<rect width="35" height="35" fill="white"/>
</clipPath>
</defs>
</svg>
