<svg width="50" height="50" viewBox="0 0 50 50" fill="none" xmlns="http://www.w3.org/2000/svg">
<path fill-rule="evenodd" clip-rule="evenodd" d="M35.1415 21.0087C37.8645 21.0087 40.0789 18.7627 40.0789 16.0008C40.0789 13.239 37.8645 10.9913 35.1415 10.9913C32.4185 10.9913 30.2024 13.239 30.2024 16.0008C30.2024 18.7627 32.4185 21.0087 35.1415 21.0087ZM25.8899 12.5718C27.2711 8.74021 30.8848 6 35.1415 6C40.5858 6 45 10.4772 45 16.0008C45 21.5228 40.5858 26 35.1415 26C30.2221 26 26.1556 22.3414 25.4142 17.5631H18V20.6924H14V17.5631H9.92106V21.9937H5V12.5718H25.8899Z" fill="#86EC16"/>
<path d="M24.9631 33.049L24.1709 32.4387L23.4704 33.3479L24.467 33.9173L24.9631 33.049ZM17.0369 33.049L17.533 33.9173L18.5296 33.3479L17.8291 32.4387L17.0369 33.049ZM13 44H12V45H13V44ZM29 44V45H30V44H29ZM25 30C25 30.9193 24.6911 31.7635 24.1709 32.4387L25.7552 33.6594C26.5355 32.6467 27 31.3762 27 30H25ZM21 26C23.2091 26 25 27.7909 25 30H27C27 26.6863 24.3137 24 21 24V26ZM17 30C17 27.7909 18.7909 26 21 26V24C17.6863 24 15 26.6863 15 30H17ZM17.8291 32.4387C17.3089 31.7635 17 30.9193 17 30H15C15 31.3762 15.4645 32.6467 16.2448 33.6594L17.8291 32.4387ZM14 40C14 37.397 15.4203 35.1244 17.533 33.9173L16.5408 32.1808C13.8304 33.7294 12 36.6503 12 40H14ZM14 44V40H12V44H14ZM29 43H13V45H29V43ZM28 40V44H30V40H28ZM24.467 33.9173C26.5797 35.1244 28 37.397 28 40H30C30 36.6503 28.1696 33.7294 25.4592 32.1808L24.467 33.9173Z" fill="black"/>
</svg>
