<svg width="50" height="36" viewBox="0 0 50 36" fill="none" xmlns="http://www.w3.org/2000/svg">
<path d="M1 4C1 2.34315 2.34315 1 4 1H46C47.6569 1 49 2.34315 49 4V32C49 33.6569 47.6569 35 46 35H4C2.34314 35 1 33.6569 1 32V4Z" stroke="white" stroke-width="2"/>
<path fill-rule="evenodd" clip-rule="evenodd" d="M16.0625 34H31.9375C34.4287 31.8012 36 28.5841 36 25C36 18.3726 30.6274 13 24 13C17.3726 13 12 18.3726 12 25C12 28.5841 13.5713 31.8012 16.0625 34ZM25 26.865L29.3598 23.2318L30.6402 24.7682L24.6402 29.7682L24 30.3017L23.3598 29.7682L17.3598 24.7682L18.6402 23.2318L23 26.865V18H25V26.865Z" fill="#86EC16"/>
<line x1="1" y1="9" x2="49" y2="9" stroke="white" stroke-width="2"/>
<circle cx="5" cy="5" r="1" fill="white"/>
<circle cx="9" cy="5" r="1" fill="white"/>
<circle cx="13" cy="5" r="1" fill="white"/>
</svg>
