<svg id="Ebene_1" data-name="Ebene 1" xmlns="http://www.w3.org/2000/svg" viewBox="0 0 35 35">
  <path id="icons8-telefon-getrennt" d="m12.73,25.47c.33-.57.33-1.28-.01-1.84l-1.72-2.88c-.39-.64-.34-1.45.12-2.04,1.11-1.43,2.3-2.8,3.57-4.1,1.3-1.27,2.67-2.46,4.1-3.57.59-.46,1.4-.51,2.04-.12l2.88,1.72c.57.34,1.28.34,1.85,0l7.22-4.23c.7-.41,1.04-1.23.85-2.01-.29-1.07-.87-2.04-1.68-2.8C28.7.34,23.2-1.39,10.96,10.86-1.29,23.11.44,28.6,3.69,31.86c.76.81,1.73,1.39,2.8,1.68.78.19,1.59-.15,2-.85,1.02-1.73,3.22-5.49,4.24-7.23Z"/>
</svg>