<svg width="40" height="40" viewBox="0 0 40 40" fill="none" xmlns="http://www.w3.org/2000/svg">
<path d="M34.9043 8.2442C34.8949 8.06193 34.8117 7.89048 34.6724 7.76675C34.5332 7.64302 34.3491 7.57689 34.1598 7.58259C31.218 7.63134 25.3994 7.15776 20.4698 3.16719C20.3389 3.05929 20.1723 3 20 3C19.8277 3 19.6611 3.05929 19.5302 3.16719C14.6006 7.15776 8.78203 7.63134 5.8402 7.58259C5.65088 7.57689 5.46681 7.64302 5.32758 7.76675C5.18834 7.89048 5.10508 8.06193 5.09571 8.2442C4.81381 15.2573 4.97283 24.1508 8.13873 28.3294C11.4492 32.7169 18.3809 36.4429 20 37C21.6191 36.4359 28.5508 32.71 31.8613 28.3294C35.0272 24.1508 35.1862 15.2573 34.9043 8.2442Z" stroke="black" stroke-width="2"/>
<path d="M24.6046 17.6215V14.2185C24.6046 11.6488 22.5623 9.6001 20.0008 9.6001C17.4392 9.6001 15.3969 11.6488 15.3969 14.2185V17.6215C13.8046 18.941 12.8008 20.955 12.8008 23.1774C12.8008 27.1707 16.02 30.4001 20.0008 30.4001C23.9816 30.4001 27.2008 27.1707 27.2008 23.1774C27.2008 20.9897 26.1969 18.9757 24.6046 17.6215ZM21.3162 22.8301V26.0595C21.3162 26.7887 20.7277 27.3791 20.0008 27.3791C19.2739 27.3791 18.6854 26.7887 18.6854 26.0595V22.8301C18.2008 22.4135 17.8892 21.8579 17.8892 21.1634C17.8892 19.9827 18.8239 19.0452 20.0008 19.0452C21.1777 19.0452 22.1123 19.9827 22.1123 21.1634C22.1123 21.8579 21.7662 22.4135 21.3162 22.8301ZM23.1854 16.7186C22.2508 16.2325 21.1431 15.9894 20.0008 15.9894C18.8585 15.9894 17.7508 16.2672 16.8162 16.7186V14.2185C16.8162 12.4822 18.27 11.0238 20.0008 11.0238C21.7316 11.0238 23.1854 12.4822 23.1854 14.2185V16.7186Z" fill="#86EC16"/>
</svg>
