<svg width="57" height="61" viewBox="0 0 57 61" fill="none" xmlns="http://www.w3.org/2000/svg">
<path d="M31.5401 49.1467H24.5326C23.543 49.1467 22.714 48.3977 22.6139 47.4132L22.2921 44.2482C21.7633 43.9926 21.253 43.7018 20.7636 43.3775L17.7794 44.702C16.8828 45.1001 15.8304 44.7613 15.3338 43.9157L11.8301 37.9471C11.3229 37.083 11.5618 35.9745 12.3798 35.3961L15.0131 33.5342C14.9944 33.2533 14.985 32.9721 14.985 32.6919C14.985 32.4116 14.9944 32.1304 15.0131 31.8495L12.3798 29.9877C11.5618 29.4092 11.3227 28.3007 11.8301 27.4366L15.3338 21.468C15.8302 20.6222 16.8826 20.2835 17.7794 20.6817L20.7636 22.0062C21.253 21.682 21.7632 21.3911 22.2921 21.1355L22.6139 17.9706C22.714 16.986 23.543 16.2371 24.5326 16.2371H31.5401C32.5297 16.2371 33.3587 16.986 33.4588 17.9706L33.7806 21.1355C34.3094 21.3911 34.8197 21.682 35.3091 22.0062L38.2933 20.6817C39.1895 20.2834 40.2422 20.6222 40.7389 21.468L44.2426 27.4366C44.7498 28.3007 44.5109 29.4092 43.6929 29.9877L41.0596 31.8495C41.0783 32.1304 41.0877 32.4116 41.0877 32.6919C41.0877 32.9721 41.0783 33.2533 41.0596 33.5342L43.6929 35.3961C44.5109 35.9745 44.75 37.083 44.2426 37.9471L40.7389 43.9157C40.2425 44.7616 39.19 45.1002 38.2933 44.702L35.3091 43.3775C34.8197 43.7018 34.3095 43.9926 33.7806 44.2482L33.4588 47.4132C33.3586 48.3977 32.5297 49.1467 31.5401 49.1467ZM26.2751 45.2896H29.7976L30.058 42.7286C30.1322 41.998 30.6149 41.373 31.303 41.1165C32.2319 40.7704 33.0937 40.2803 33.8646 39.6602C34.4274 39.2075 35.196 39.1069 35.8558 39.4002L38.2842 40.478L40.0191 37.5226L37.9017 36.0254C37.299 35.5993 36.9923 34.8665 37.1119 34.1381C37.1903 33.6602 37.2302 33.1736 37.2302 32.6917C37.2302 32.2099 37.1903 31.7232 37.1119 31.2453C36.9922 30.517 37.2989 29.7843 37.9017 29.3581L40.0191 27.8609L38.2842 24.9055L35.8558 25.9832C35.196 26.2761 34.4274 26.176 33.8646 25.7233C33.0937 25.1032 32.2319 24.6131 31.303 24.267C30.6149 24.0105 30.1323 23.3855 30.058 22.6548L29.7976 20.0939H26.2751L26.0147 22.6548C25.9405 23.3855 25.4578 24.0105 24.7697 24.267C23.8408 24.6131 22.979 25.1032 22.2081 25.7233C21.6452 26.1758 20.8766 26.2763 20.2169 25.9832L17.7885 24.9055L16.0536 27.8609L18.171 29.3581C18.7737 29.7841 19.0803 30.517 18.9608 31.2453C18.8824 31.7232 18.8425 32.2099 18.8425 32.6917C18.8425 33.1736 18.8824 33.6602 18.9608 34.1381C19.0805 34.8665 18.7738 35.5992 18.171 36.0254L16.0536 37.5226L17.7885 40.478L20.2169 39.4002C20.8766 39.1071 21.6452 39.2074 22.2081 39.6602C22.979 40.2803 23.8408 40.7704 24.7697 41.1165C25.4578 41.373 25.9404 41.998 26.0147 42.7286L26.2751 45.2896Z" fill="white"/>
<path d="M31.961 33.1486V31.7981L30.9883 33.1486H31.961Z" fill="white"/>
<path d="M39.1598 32.6917C39.1598 32.0928 39.11 31.5055 39.0159 30.9327L42.5802 28.4128L39.0765 22.4442L35.0742 24.2206C34.1534 23.4798 33.1096 22.8817 31.9775 22.4598L31.5409 18.1653H24.5335L24.0969 22.4598C22.9648 22.8817 21.921 23.4797 21.0001 24.2206L16.9979 22.4442L13.4941 28.4128L17.0585 30.9327C16.9644 31.5054 16.9146 32.0928 16.9146 32.6917C16.9146 33.2905 16.9642 33.8779 17.0585 34.4506L13.4941 36.9706L16.9979 42.9392L21.0001 41.1627C21.921 41.9035 22.9648 42.5016 24.0969 42.9236L24.5335 47.2181H31.5409L31.9775 42.9236C33.1096 42.5016 34.1534 41.9037 35.0742 41.1627L39.0765 42.9392L42.5802 36.9706L39.0159 34.4506C39.11 33.8779 39.1598 33.2904 39.1598 32.6917ZM26.7158 36.7123H21.3225V35.4827L22.2059 34.6257C23.9458 32.9716 24.6731 32.1422 24.6818 31.2787C24.6818 30.4628 24.1465 30.3679 23.7437 30.3679C23.0646 30.3679 22.5719 30.8331 22.0846 31.2388L21.3941 29.7117C22.1339 29.0878 22.946 28.6708 23.9381 28.6708C25.7374 28.6708 26.5428 29.9233 26.5428 31.1647C26.5428 32.5869 25.5595 33.7225 24.2344 35.015H26.7156V36.7123H26.7158ZM34.752 34.8025H33.769V36.7123H31.9618V34.8025H28.6996V33.5788L32.0503 28.7896H33.769V33.1486H34.752V34.8025Z" fill="white"/>
<path d="M25.8931 12.4708L22.9217 10.0114L25.9666 6.3328L22.1133 2.86825L24.6923 0L29.9221 4.70229C30.6912 5.39399 30.7778 6.56924 30.1183 7.36611L25.8931 12.4708Z" fill="white"/>
<path d="M41.6209 56.6562L39.7522 53.282C40.8656 52.6654 41.9348 51.9594 42.93 51.1836L45.3012 54.2258C44.1478 55.1247 42.9096 55.9424 41.6209 56.6562ZM48.5584 51.2429L45.7359 48.6143C46.5982 47.6884 47.3936 46.6854 48.0997 45.6332L51.3023 47.7827C50.4828 49.0038 49.5596 50.1679 48.5584 51.2429ZM53.4654 43.9349L49.9648 42.3155C50.4966 41.166 50.9416 39.9648 51.2872 38.7452L54.9981 39.7974C54.5974 41.2107 54.0817 42.6027 53.4654 43.9349ZM55.865 35.4716L52.0353 35.0131C52.1491 34.0627 52.2067 33.0973 52.2066 32.1436C52.2066 31.8353 52.2005 31.5213 52.1884 31.2104L56.0428 31.0621C56.0566 31.4222 56.0636 31.786 56.0636 32.1433C56.0638 33.2495 55.9969 34.3694 55.865 35.4716ZM51.7399 27.4337C51.4915 26.1939 51.1414 24.963 50.6988 23.7754L54.3133 22.4289C54.8268 23.8077 55.2333 25.2366 55.5217 26.6763L51.7399 27.4337ZM49.0934 20.322C48.4691 19.2136 47.7551 18.1497 46.9714 17.16L49.9953 14.7657C50.9036 15.9129 51.731 17.1453 52.4541 18.4288L49.0934 20.322ZM44.3811 14.3748C43.4488 13.5198 42.4398 12.7322 41.3823 12.0337L43.5077 8.81521C44.735 9.62558 45.9059 10.5397 46.9881 11.5323L44.3811 14.3748ZM38.0508 10.1931C36.8977 9.66968 35.6931 9.23319 34.4707 8.8957L35.4969 5.17773C36.9133 5.56871 38.3086 6.07438 39.6448 6.68071L38.0508 10.1931Z" fill="white"/>
<path d="M28.0769 60.1791C25.4834 60.1791 22.8744 59.8157 20.3124 59.0817C13.1171 57.0204 7.15596 52.2829 3.52684 45.7418C-0.102542 39.2002 -0.964984 31.6381 1.09855 24.4484C3.16209 17.2591 7.9041 11.303 14.451 7.6772C18.8074 5.26473 23.7279 4.05309 28.6806 4.17009L28.5887 8.02614C24.3166 7.9247 20.0773 8.97048 16.3196 11.0514C10.6741 14.1779 6.58524 19.3136 4.8061 25.5126C3.02709 31.711 3.7706 38.2308 6.89959 43.8706C13.3601 55.5147 28.0976 59.7368 39.753 53.2818L41.6216 56.656C37.4062 58.9906 32.7671 60.1789 28.0769 60.1791Z" fill="white"/>
</svg>
