<svg width="56" height="62" viewBox="0 0 56 62" fill="none" xmlns="http://www.w3.org/2000/svg">
<path fill-rule="evenodd" clip-rule="evenodd" d="M29.5798 0.00302461C39.5186 -0.0267227 49.5072 6.93827 53.6975 16.4066C55.7927 21.1407 56.4115 26.5691 54.6943 31.965C53.0283 37.1996 49.1927 42.3554 42.6679 46.9167V59.6364C42.6679 59.8179 42.6291 60.0104 42.5596 60.1782C42.4901 60.3458 42.3846 60.5048 42.2562 60.6331C42.1279 60.7615 41.9688 60.8455 41.8012 60.9149C41.6335 60.9844 41.4626 61.0232 41.2811 61.0232H17.8785C17.697 61.0232 17.5044 60.9844 17.3368 60.9149C17.1691 60.8455 17.0317 60.7615 16.9034 60.6331C16.775 60.5048 16.6695 60.3458 16.6 60.1782C16.5305 60.0105 16.4917 59.8179 16.4917 59.6364V52.8323H11.031C8.56229 52.8323 6.52387 50.8015 6.52387 48.3251V42.5611L3.8369 41.8461C1.09324 41.1152 -0.560565 38.2382 0.174825 35.497C0.65373 33.7024 1.85934 31.1049 3.10015 28.4762C4.23983 26.0618 5.39898 23.6534 5.96048 22.2789C5.07861 17.0571 6.34533 11.5233 10.1209 7.28385C13.9944 2.93457 20.4508 0.0352474 29.5798 0.00302461ZM27.4129 5.16027C25.2619 5.14391 23.0159 5.40381 20.7171 6.00537C17.8999 6.6337 16.0137 8.81005 15.9716 11.1843C15.9505 12.3781 16.4885 13.6394 17.5318 14.4563C18.5751 15.2733 20.0194 15.6661 21.8006 15.6265C25.7068 15.5317 28.3918 17.5943 30.0565 20.4804C31.7212 23.3664 32.1482 27.0739 31.335 29.6247C30.6243 31.8022 30.9863 33.8835 32.0501 35.4103C33.1157 36.9398 34.7819 37.92 36.6006 38.4006C40.2379 39.3621 44.7709 38.3923 47.0884 34.7386C47.0967 34.7254 47.1022 34.7088 47.1101 34.6956C51.3801 27.4378 49.7073 18.8692 44.5098 12.8965C40.5305 8.32366 34.4514 5.21426 27.4129 5.16065V5.16027Z" fill="white"/>
</svg>
