<svg width="35" height="35" viewBox="0 0 35 35" fill="none" xmlns="http://www.w3.org/2000/svg">
<path d="M12.73 25.47C13.06 24.9 13.06 24.19 12.72 23.63L11 20.75C10.61 20.11 10.66 19.3 11.12 18.71C12.23 17.28 13.42 15.91 14.69 14.61C15.99 13.34 17.36 12.15 18.79 11.04C19.38 10.58 20.19 10.53 20.83 10.92L23.71 12.64C24.28 12.98 24.99 12.98 25.56 12.64L32.78 8.41C33.48 8 33.82 7.18 33.63 6.4C33.34 5.33 32.76 4.36 31.95 3.6C28.7 0.340002 23.2 -1.39 10.96 10.86C-1.29 23.11 0.439997 28.6 3.69 31.86C4.45 32.67 5.42 33.25 6.49 33.54C7.27 33.73 8.08 33.39 8.49 32.69C9.51 30.96 11.71 27.2 12.73 25.46V25.47Z" fill="#707070"/>
</svg>
