<svg xmlns="http://www.w3.org/2000/svg" width="124" height="117" fill="none" viewBox="0 0 124 117">
    <path fill="#fff" stroke="#000" stroke-miterlimit="10" stroke-width="3" d="M14.932 81.195c7.414 0 13.424-5.941 13.424-13.27 0-7.33-6.01-13.272-13.424-13.272S1.508 60.595 1.508 67.924c0 7.33 6.01 13.271 13.424 13.271z"/>
    <path stroke="#000" stroke-miterlimit="10" stroke-width="3" d="M9.954 64.494a43.4 43.4 0 0 0 0 6.263"/>
    <path fill="#fff" stroke="#000" stroke-miterlimit="10" stroke-width="3" d="M108.9 81.195c7.414 0 13.424-5.941 13.424-13.27 0-7.33-6.01-13.272-13.424-13.272s-13.424 5.942-13.424 13.271c0 7.33 6.01 13.271 13.424 13.271z"/>
    <path fill="#fff" stroke="#000" stroke-miterlimit="10" stroke-width="3" d="M62.142 115.492c26.074 0 47.211-20.897 47.211-46.673 0-25.777-21.137-46.673-47.21-46.673-26.074 0-47.211 20.896-47.211 46.673 0 25.776 21.137 46.673 47.21 46.673z"/>
    <path stroke="#000" stroke-miterlimit="10" stroke-width="3" d="M113.878 71.503a43.352 43.352 0 0 0 0-6.263"/>
    <path fill="#000" stroke="#000" stroke-miterlimit="10" stroke-width=".75" d="M87.03 70.16a.9.9 0 0 0 .904-.894.9.9 0 0 0-.905-.895.9.9 0 0 0-.905.895.9.9 0 0 0 .905.895zM82.806 74.188a.9.9 0 0 0 .905-.895.9.9 0 0 0-.905-.895.9.9 0 0 0-.905.895.9.9 0 0 0 .905.895zM95.325 70.16a.9.9 0 0 0 .905-.894.9.9 0 0 0-.905-.895.9.9 0 0 0-.905.895.9.9 0 0 0 .905.895zM87.03 78.511a.9.9 0 0 0 .904-.894.9.9 0 0 0-.905-.895.9.9 0 0 0-.905.895.9.9 0 0 0 .905.894zM95.325 78.511a.9.9 0 0 0 .905-.894.9.9 0 0 0-.905-.895.9.9 0 0 0-.905.895.9.9 0 0 0 .905.894zM91.252 74.187a.9.9 0 0 0 .905-.895.9.9 0 0 0-.905-.895.9.9 0 0 0-.905.895.9.9 0 0 0 .905.895zM99.85 74.187a.9.9 0 0 0 .905-.895.9.9 0 0 0-.905-.895.9.9 0 0 0-.905.895.9.9 0 0 0 .905.895zM28.054 70.16a.9.9 0 0 0 .905-.894.9.9 0 0 0-.905-.895.9.9 0 0 0-.905.895.9.9 0 0 0 .905.895zM23.982 74.188a.9.9 0 0 0 .905-.895.9.9 0 0 0-.905-.895.9.9 0 0 0-.905.895.9.9 0 0 0 .904.895zM36.35 70.16a.9.9 0 0 0 .905-.894.9.9 0 0 0-.905-.895.9.9 0 0 0-.905.895.9.9 0 0 0 .905.895zM28.054 78.511a.9.9 0 0 0 .905-.894.9.9 0 0 0-.905-.895.9.9 0 0 0-.905.895.9.9 0 0 0 .905.894zM36.35 78.511a.9.9 0 0 0 .905-.894.9.9 0 0 0-.905-.895.9.9 0 0 0-.905.895.9.9 0 0 0 .905.894zM32.277 74.188a.9.9 0 0 0 .905-.895.9.9 0 0 0-.905-.895.9.9 0 0 0-.905.895.9.9 0 0 0 .905.895zM40.875 74.187a.9.9 0 0 0 .905-.895.9.9 0 0 0-.905-.895.9.9 0 0 0-.905.895.9.9 0 0 0 .905.895z"/>
    <path stroke="#86ED18" stroke-linejoin="round" stroke-miterlimit="10" stroke-width="3" d="M50.831 73.888c0 6.86 5.58 12.228 12.368 12.228s12.368-5.518 12.368-12.228"/>
    <path stroke="#000" stroke-miterlimit="10" stroke-width="3" d="M77.98 59.424c1.916 0 3.469-1.536 3.469-3.43 0-1.894-1.553-3.43-3.47-3.43-1.915 0-3.469 1.536-3.469 3.43 0 1.894 1.554 3.43 3.47 3.43zM48.568 59.424c1.915 0 3.469-1.536 3.469-3.43 0-1.894-1.554-3.43-3.47-3.43-1.916 0-3.469 1.536-3.469 3.43 0 1.894 1.553 3.43 3.47 3.43zM88.085 45.706c-.15 4.771 3.318 9.245 8.447 10.14 4.675.745 9.502-1.94 11.161-6.413 1.358-3.727.453-7.754-2.112-10.289-.301-.298 0-.596.302-.447 1.358.447 2.866.596 4.676.298 3.469-.596 6.335-2.833 7.692-5.964 2.414-5.816-.905-12.079-6.787-13.57-3.62-.895-7.24.298-9.653 2.684-.302.298-.604 0-.453-.298.604-1.939.905-4.026.754-6.412-.603-5.816-4.525-11.035-10.105-12.973-7.844-2.833-16.29.895-19.609 7.903-13.122-1.342-23.378 5.22-27.45 14.613"/>
</svg>
