<svg xmlns="http://www.w3.org/2000/svg" width="124" height="117" fill="none" viewBox="0 0 124 117">
    <path fill="#fff" stroke="#86ED18" stroke-miterlimit="10" stroke-width="3" d="M14.932 81.195c7.414 0 13.425-5.942 13.425-13.271 0-7.33-6.01-13.272-13.425-13.272-7.413 0-13.424 5.942-13.424 13.272s6.01 13.271 13.424 13.271z"/>
    <path stroke="#86ED18" stroke-miterlimit="10" stroke-width="3" d="M9.955 64.494a43.402 43.402 0 0 0 0 6.263"/>
    <path fill="#fff" stroke="#86ED18" stroke-miterlimit="10" stroke-width="3" d="M108.903 81.195c7.414 0 13.424-5.942 13.424-13.271 0-7.33-6.01-13.272-13.424-13.272s-13.425 5.942-13.425 13.272 6.011 13.271 13.425 13.271z"/>
    <path fill="#fff" stroke="#000" stroke-miterlimit="10" stroke-width="3" d="M62.143 115.492c26.074 0 47.211-20.897 47.211-46.674S88.217 22.145 62.143 22.145c-26.074 0-47.21 20.896-47.21 46.673s21.136 46.674 47.21 46.674z"/>
    <path stroke="#86ED18" stroke-miterlimit="10" stroke-width="3" d="M113.879 71.502a43.349 43.349 0 0 0 0-6.263"/>
    <path fill="#000" stroke="#000" stroke-miterlimit="10" stroke-width=".75" d="M86.88 70.16a.9.9 0 0 0 .906-.894.9.9 0 0 0-.905-.895.9.9 0 0 0-.905.895.9.9 0 0 0 .905.894zM82.808 74.186a.9.9 0 0 0 .905-.894.9.9 0 0 0-.905-.895.9.9 0 0 0-.905.895.9.9 0 0 0 .905.894zM95.176 70.16a.9.9 0 0 0 .905-.894.9.9 0 0 0-.905-.895.9.9 0 0 0-.905.895.9.9 0 0 0 .905.894zM86.88 78.511a.9.9 0 0 0 .906-.895.9.9 0 0 0-.905-.894.9.9 0 0 0-.905.894.9.9 0 0 0 .905.895zM95.176 78.511a.9.9 0 0 0 .905-.895.9.9 0 0 0-.905-.894.9.9 0 0 0-.905.894.9.9 0 0 0 .905.895zM91.104 74.186a.9.9 0 0 0 .905-.894.9.9 0 0 0-.905-.895.9.9 0 0 0-.905.895.9.9 0 0 0 .905.894zM99.701 74.186a.9.9 0 0 0 .905-.894.9.9 0 0 0-.905-.895.9.9 0 0 0-.905.895.9.9 0 0 0 .905.894zM27.905 70.16a.9.9 0 0 0 .905-.894.9.9 0 0 0-.905-.895.9.9 0 0 0-.905.895.9.9 0 0 0 .905.894zM23.832 74.184a.9.9 0 0 0 .905-.894.9.9 0 0 0-.905-.895.9.9 0 0 0-.905.895.9.9 0 0 0 .905.894zM36.352 70.16a.9.9 0 0 0 .905-.894.9.9 0 0 0-.905-.895.9.9 0 0 0-.905.895.9.9 0 0 0 .904.894zM27.905 78.511a.9.9 0 0 0 .905-.895.9.9 0 0 0-.905-.894.9.9 0 0 0-.905.894.9.9 0 0 0 .905.895zM36.352 78.511a.9.9 0 0 0 .905-.895.9.9 0 0 0-.905-.894.9.9 0 0 0-.905.894.9.9 0 0 0 .904.895zM32.128 74.184a.9.9 0 0 0 .905-.894.9.9 0 0 0-.905-.895.9.9 0 0 0-.905.895.9.9 0 0 0 .905.894zM40.726 74.186a.9.9 0 0 0 .905-.894.9.9 0 0 0-.905-.895.9.9 0 0 0-.905.895.9.9 0 0 0 .905.894z"/>
    <path stroke="#000" stroke-miterlimit="10" stroke-width="3" d="M85.371 55.994c0-3.131-2.564-5.666-5.731-5.666-3.168 0-5.732 2.535-5.732 5.666M55.96 55.994c0-3.131-2.565-5.666-5.733-5.666-3.167 0-5.731 2.535-5.731 5.666M88.086 45.706c-.15 4.771 3.319 9.245 8.447 10.14 4.676.745 9.502-1.939 11.161-6.412 1.358-3.728.453-7.755-2.111-10.29-.302-.298 0-.596.301-.447 1.358.447 2.866.597 4.676.298 3.469-.596 6.335-2.833 7.693-5.964 2.413-5.816-.905-12.079-6.788-13.57-3.62-.894-7.24.298-9.653 2.684-.302.299-.603 0-.453-.298.604-1.939.905-4.026.755-6.412C101.51 9.62 97.589 4.4 92.008 2.462c-7.843-2.833-16.29.895-19.608 7.903-12.972-1.193-23.229 5.22-27.301 14.614"/>
    <path fill="#000" d="M50.68 79.256v-6.263h24.888v6.263M75.568 79.257c0 6.86-5.58 12.228-12.368 12.228S50.83 85.967 50.83 79.257"/>
    <path fill="#fff" d="M55.356 84.476c3.75 0 6.788-3.004 6.788-6.71s-3.039-6.71-6.788-6.71c-3.748 0-6.787 3.004-6.787 6.71s3.039 6.71 6.787 6.71z"/>
    <path stroke="#000" stroke-linejoin="round" stroke-miterlimit="10" stroke-width="3" d="M75.719 79.257c0 6.86-5.732 12.228-12.52 12.228-6.787 0-12.367-5.518-12.367-12.228v-6.263h24.887v6.263z"/>
</svg>
