<svg width="70" height="70" viewBox="0 0 70 70" fill="none" xmlns="http://www.w3.org/2000/svg">
<path d="M20 57.4534C19.3102 56.9916 18.6429 56.4989 18 55.9773C11.8991 51.027 8 43.4689 8 35C8 20.0883 20.0883 8 35 8C49.9117 8 62 20.0883 62 35C62 43.4689 58.1009 51.027 52 55.9773C51.3571 56.4989 50.6898 56.9916 50 57.4534" stroke="white" stroke-width="2"/>
<path d="M50 43.0071C51.2763 40.6211 52 37.8951 52 35C52 25.6112 44.3888 18 35 18C25.6112 18 18 25.6112 18 35C18 37.8951 18.7237 40.6211 20 43.0071" stroke="white" stroke-width="2"/>
<path fill-rule="evenodd" clip-rule="evenodd" d="M38.9225 40.7986C40.7796 39.5399 42 37.4125 42 35C42 31.134 38.866 28 35 28C31.134 28 28 31.134 28 35C28 37.4125 29.2204 39.5399 31.0775 40.7986C27.5044 42.3238 25 45.8694 25 50V61.7822C25 63.5593 26.4407 65 28.2178 65H41.7822C43.5593 65 45 63.5593 45 61.7822V50C45 45.8694 42.4956 42.3238 38.9225 40.7986Z" fill="#86EC16"/>
</svg>
