<svg width="272" height="51" viewBox="0 0 272 51" fill="none" xmlns="http://www.w3.org/2000/svg">
<rect x="1.71436" y="3.85742" width="48.5714" height="38.5714" rx="4" stroke="white" stroke-width="2"/>
<line x1="1.71436" y1="12.1436" x2="50.2858" y2="12.1436" stroke="white" stroke-width="2"/>
<ellipse cx="5.99986" cy="8.14342" rx="1.42857" ry="1.42857" fill="white"/>
<circle cx="11.7142" cy="8.14342" r="1.42857" fill="white"/>
<ellipse cx="17.4286" cy="8.14342" rx="1.42857" ry="1.42857" fill="white"/>
<path d="M13.8574 24.5718C13.8574 22.2049 15.7762 20.2861 18.1431 20.2861H21.0003V28.8576H18.1431C15.7762 28.8576 13.8574 26.9388 13.8574 24.5718V24.5718Z" stroke="white" stroke-width="2"/>
<line x1="13.8574" y1="24.8574" x2="2.42885" y2="24.8574" stroke="white" stroke-width="2"/>
<path d="M37.4287 24.5718C37.4287 22.2049 35.5099 20.2861 33.143 20.2861H30.2859V28.8576H33.143C35.5099 28.8576 37.4287 26.9388 37.4287 24.5718V24.5718Z" stroke="white" stroke-width="2"/>
<line x1="50.2856" y1="24.8574" x2="37.4285" y2="24.8574" stroke="white" stroke-width="2"/>
<line x1="30.2856" y1="27" x2="26.7142" y2="27" stroke="white" stroke-width="2"/>
<line x1="30.2856" y1="22.7148" x2="26.7142" y2="22.7148" stroke="white" stroke-width="2"/>
<rect x="6.71436" y="34.5713" width="37.8571" height="15" rx="4" fill="#86EC16"/>
<path d="M11.8628 46V39.1982H14.6313C15.3573 39.1982 15.8944 39.374 16.2427 39.7256C16.591 40.0739 16.7651 40.6257 16.7651 41.3809C16.7651 42.1003 16.5715 42.6439 16.1841 43.0117C15.7967 43.3763 15.2824 43.5586 14.6411 43.5586H13.1616V46H11.8628ZM13.1616 42.46H14.7729C15.0008 42.46 15.1636 42.403 15.2612 42.2891C15.3621 42.1751 15.4126 42.0059 15.4126 41.7812V40.9414C15.4126 40.7135 15.3654 40.5508 15.271 40.4531C15.1799 40.3522 15.0138 40.3018 14.7729 40.3018H13.1616V42.46Z" fill="black"/>
<path d="M18.9077 43.5781V39.1982H20.2065V43.6318C20.2065 44.0713 20.3188 44.418 20.5435 44.6719C20.7713 44.9225 21.1115 45.0479 21.564 45.0479C22.023 45.0479 22.3664 44.9242 22.5942 44.6768C22.8221 44.4261 22.936 44.0778 22.936 43.6318V39.1982H24.2251V43.5781C24.2251 43.972 24.1632 44.3285 24.0396 44.6475C23.9159 44.9632 23.7384 45.2334 23.5073 45.458C23.2795 45.6794 23.0011 45.8503 22.6724 45.9707C22.3468 46.0911 21.9774 46.1514 21.564 46.1514C21.1506 46.1514 20.7811 46.0911 20.4556 45.9707C20.13 45.8503 19.8517 45.681 19.6206 45.4629C19.3895 45.2415 19.2121 44.973 19.0884 44.6572C18.9679 44.3382 18.9077 43.9785 18.9077 43.5781Z" fill="black"/>
<path d="M26.4214 43.9688H27.7202C27.7723 44.3691 27.9253 44.6556 28.1792 44.8281C28.4331 44.9974 28.7603 45.082 29.1606 45.082C29.5415 45.082 29.8621 45.0039 30.1226 44.8477C30.383 44.6882 30.5132 44.4587 30.5132 44.1592C30.5132 43.9183 30.4383 43.7262 30.2886 43.583C30.1388 43.4398 29.9093 43.3291 29.6001 43.251L28.272 42.8994C27.7121 42.7529 27.297 42.5137 27.0269 42.1816C26.7567 41.8464 26.6216 41.4297 26.6216 40.9316C26.6216 40.6582 26.6802 40.4059 26.7974 40.1748C26.9146 39.9437 27.0789 39.7451 27.2905 39.5791C27.5054 39.4131 27.7658 39.2845 28.0718 39.1934C28.3778 39.099 28.7212 39.0518 29.1021 39.0518C29.4471 39.0518 29.7677 39.0924 30.064 39.1738C30.3634 39.252 30.6222 39.374 30.8403 39.54C31.0617 39.7061 31.2424 39.9193 31.3823 40.1797C31.5223 40.4401 31.6086 40.7461 31.6411 41.0977H30.3423C30.3228 40.9121 30.2739 40.7559 30.1958 40.6289C30.1209 40.502 30.0265 40.401 29.9126 40.3262C29.7987 40.248 29.6701 40.1943 29.5269 40.165C29.3836 40.1357 29.2355 40.1211 29.0825 40.1211C28.7212 40.1211 28.4364 40.1927 28.228 40.3359C28.023 40.4792 27.9204 40.6745 27.9204 40.9219C27.9204 41.1823 28.0002 41.3809 28.1597 41.5176C28.3224 41.651 28.5666 41.7617 28.8921 41.8496L30.0493 42.1523C30.6287 42.3053 31.0666 42.5365 31.3628 42.8457C31.6623 43.1549 31.812 43.5895 31.812 44.1494C31.812 44.4619 31.7485 44.7419 31.6216 44.9893C31.4946 45.2367 31.314 45.4466 31.0796 45.6191C30.8485 45.7917 30.5702 45.9235 30.2446 46.0146C29.9224 46.1058 29.5675 46.1514 29.1802 46.1514C28.7993 46.1514 28.4478 46.1107 28.1255 46.0293C27.8032 45.9512 27.52 45.8258 27.2759 45.6533C27.0317 45.4775 26.8348 45.2513 26.6851 44.9746C26.5353 44.6979 26.4474 44.3626 26.4214 43.9688Z" fill="black"/>
<path d="M34.1108 46V39.1982H35.4097V41.9912H38.1196V39.1982H39.4233V46H38.1196V43.0898H35.4097V46H34.1108Z" fill="black"/>
<rect x="72.7144" y="2.85742" width="48.5714" height="38.5714" rx="4" stroke="white" stroke-width="2"/>
<line x1="72.7144" y1="11.1436" x2="121.286" y2="11.1436" stroke="white" stroke-width="2"/>
<ellipse cx="76.9999" cy="7.14342" rx="1.42857" ry="1.42857" fill="white"/>
<circle cx="82.7142" cy="7.14342" r="1.42857" fill="white"/>
<ellipse cx="88.4286" cy="7.14342" rx="1.42857" ry="1.42857" fill="white"/>
<path d="M84.8574 23.5718C84.8574 21.2049 86.7762 19.2861 89.1431 19.2861H92.0003V27.8576H89.1431C86.7762 27.8576 84.8574 25.9388 84.8574 23.5718V23.5718Z" stroke="white" stroke-width="2"/>
<line x1="84.8574" y1="23.8574" x2="73.4288" y2="23.8574" stroke="white" stroke-width="2"/>
<path d="M108.429 23.5718C108.429 21.2049 106.51 19.2861 104.143 19.2861H101.286V27.8576H104.143C106.51 27.8576 108.429 25.9388 108.429 23.5718V23.5718Z" stroke="white" stroke-width="2"/>
<line x1="121.286" y1="23.8574" x2="108.428" y2="23.8574" stroke="white" stroke-width="2"/>
<line x1="101.286" y1="26" x2="97.7142" y2="26" stroke="white" stroke-width="2"/>
<line x1="101.286" y1="21.7148" x2="97.7142" y2="21.7148" stroke="white" stroke-width="2"/>
<rect x="78.4287" y="33.5713" width="36.4286" height="15" rx="4" fill="#86EC16"/>
<path d="M83.8101 45V38.1982H86.5786C87.3045 38.1982 87.8416 38.3708 88.1899 38.7158C88.5382 39.0576 88.7124 39.585 88.7124 40.2979C88.7124 40.8382 88.5838 41.2728 88.3267 41.6016C88.0695 41.9271 87.7114 42.1533 87.2524 42.2803L88.8101 45H87.3696L85.939 42.3877H85.1089V45H83.8101ZM85.1089 41.3184H86.7495C87.1564 41.3184 87.3599 41.0921 87.3599 40.6396V39.9414C87.3599 39.7135 87.3143 39.5508 87.2231 39.4531C87.1353 39.3522 86.9774 39.3018 86.7495 39.3018H85.1089V41.3184Z" fill="black"/>
<path d="M91.1479 45V38.1982H95.8257V39.3018H92.4468V40.9717H95.3667V42.0703H92.4468V43.9014H95.8257V45H91.1479Z" fill="black"/>
<path d="M97.8218 42.9688H99.1206C99.1727 43.3691 99.3257 43.6556 99.5796 43.8281C99.8335 43.9974 100.161 44.082 100.561 44.082C100.942 44.082 101.263 44.0039 101.523 43.8477C101.783 43.6882 101.914 43.4587 101.914 43.1592C101.914 42.9183 101.839 42.7262 101.689 42.583C101.539 42.4398 101.31 42.3291 101 42.251L99.6724 41.8994C99.1125 41.7529 98.6974 41.5137 98.4272 41.1816C98.1571 40.8464 98.022 40.4297 98.022 39.9316C98.022 39.6582 98.0806 39.4059 98.1978 39.1748C98.3149 38.9437 98.4793 38.7451 98.6909 38.5791C98.9058 38.4131 99.1662 38.2845 99.4722 38.1934C99.7782 38.099 100.122 38.0518 100.502 38.0518C100.847 38.0518 101.168 38.0924 101.464 38.1738C101.764 38.252 102.023 38.374 102.241 38.54C102.462 38.7061 102.643 38.9193 102.783 39.1797C102.923 39.4401 103.009 39.7461 103.042 40.0977H101.743C101.723 39.9121 101.674 39.7559 101.596 39.6289C101.521 39.502 101.427 39.401 101.313 39.3262C101.199 39.248 101.07 39.1943 100.927 39.165C100.784 39.1357 100.636 39.1211 100.483 39.1211C100.122 39.1211 99.8368 39.1927 99.6284 39.3359C99.4233 39.4792 99.3208 39.6745 99.3208 39.9219C99.3208 40.1823 99.4006 40.3809 99.5601 40.5176C99.7228 40.651 99.967 40.7617 100.292 40.8496L101.45 41.1523C102.029 41.3053 102.467 41.5365 102.763 41.8457C103.063 42.1549 103.212 42.5895 103.212 43.1494C103.212 43.4619 103.149 43.7419 103.022 43.9893C102.895 44.2367 102.714 44.4466 102.48 44.6191C102.249 44.7917 101.971 44.9235 101.645 45.0146C101.323 45.1058 100.968 45.1514 100.581 45.1514C100.2 45.1514 99.8481 45.1107 99.5259 45.0293C99.2036 44.9512 98.9204 44.8258 98.6763 44.6533C98.4321 44.4775 98.2352 44.2513 98.0854 43.9746C97.9357 43.6979 97.8478 43.3626 97.8218 42.9688Z" fill="black"/>
<path d="M104.862 39.3018V38.1982H110.121V39.3018H108.143V45H106.839V39.3018H104.862Z" fill="black"/>
<path d="M198.143 5.28613H179.286C177.077 5.28613 175.286 7.07699 175.286 9.28613V42.7147C175.286 44.9238 177.077 46.7147 179.286 46.7147H202.714C204.923 46.7147 206.714 44.9238 206.714 42.7147V13.8576M198.143 5.28613L206.714 13.8576M198.143 5.28613V11.8576C198.143 12.9621 199.038 13.8576 200.143 13.8576H206.714" stroke="white" stroke-width="2"/>
<rect x="166" y="21.7139" width="32.8571" height="15" rx="4" fill="#86EC16"/>
<path d="M171 29.3654C171 28.7478 171.067 28.1879 171.201 27.6857C171.339 27.1835 171.545 26.7556 171.82 26.4022C172.096 26.0451 172.442 25.7698 172.858 25.5763C173.279 25.3829 173.772 25.2861 174.337 25.2861C174.731 25.2861 175.1 25.3438 175.442 25.4591C175.784 25.5707 176.082 25.7363 176.335 25.9558C176.588 26.1715 176.791 26.4338 176.943 26.7426C177.096 27.0514 177.183 27.3955 177.205 27.775H175.715C175.678 27.362 175.531 27.0532 175.275 26.8486C175.022 26.644 174.674 26.5417 174.231 26.5417C173.997 26.5417 173.777 26.5808 173.573 26.6589C173.372 26.7333 173.199 26.8393 173.054 26.977C172.908 27.1146 172.795 27.282 172.713 27.4792C172.635 27.6764 172.596 27.8977 172.596 28.1433V30.5205C172.596 30.7549 172.639 30.9725 172.724 31.1734C172.814 31.3706 172.935 31.5417 173.087 31.6868C173.24 31.8282 173.416 31.9398 173.617 32.0216C173.822 32.0997 174.041 32.1388 174.276 32.1388C174.741 32.1388 175.1 32.0384 175.353 31.8375C175.606 31.6366 175.769 31.3073 175.844 30.8497H177.328C177.269 31.2999 177.151 31.6849 176.977 32.0049C176.802 32.3248 176.58 32.5871 176.312 32.7917C176.045 32.9963 175.736 33.1489 175.386 33.2493C175.036 33.3497 174.659 33.4 174.253 33.4C173.688 33.4 173.202 33.2995 172.797 33.0986C172.391 32.894 172.055 32.6131 171.787 32.256C171.519 31.8989 171.32 31.4747 171.19 30.9837C171.063 30.4889 171 29.9494 171 29.3654Z" fill="black"/>
<path d="M179.459 30.9056H180.943C181.003 31.3631 181.177 31.6905 181.468 31.8877C181.758 32.0811 182.132 32.1779 182.589 32.1779C183.025 32.1779 183.391 32.0886 183.689 31.91C183.986 31.7277 184.135 31.4654 184.135 31.1232C184.135 30.8479 184.049 30.6284 183.878 30.4647C183.707 30.301 183.445 30.1745 183.092 30.0852L181.574 29.6835C180.934 29.516 180.459 29.2426 180.151 28.8631C179.842 28.48 179.688 28.0038 179.688 27.4346C179.688 27.1221 179.754 26.8338 179.888 26.5696C180.022 26.3055 180.21 26.0785 180.452 25.8888C180.698 25.6991 180.995 25.5521 181.345 25.448C181.695 25.3401 182.087 25.2861 182.522 25.2861C182.917 25.2861 183.283 25.3326 183.622 25.4256C183.964 25.5149 184.26 25.6544 184.509 25.8442C184.762 26.0339 184.968 26.2776 185.128 26.5752C185.288 26.8728 185.387 27.2225 185.424 27.6243H183.94C183.917 27.4122 183.862 27.2337 183.772 27.0886C183.687 26.9435 183.579 26.8282 183.449 26.7426C183.318 26.6533 183.172 26.5919 183.008 26.5585C182.844 26.525 182.675 26.5082 182.5 26.5082C182.087 26.5082 181.762 26.5901 181.523 26.7538C181.289 26.9175 181.172 27.1407 181.172 27.4234C181.172 27.721 181.263 27.948 181.445 28.1042C181.631 28.2567 181.91 28.3832 182.282 28.4837L183.605 28.8297C184.267 29.0045 184.767 29.2686 185.106 29.6221C185.448 29.9755 185.619 30.4721 185.619 31.112C185.619 31.4692 185.547 31.7891 185.402 32.0718C185.257 32.3546 185.05 32.5945 184.782 32.7917C184.518 32.9889 184.2 33.1396 183.828 33.2437C183.46 33.3479 183.054 33.4 182.612 33.4C182.176 33.4 181.775 33.3535 181.406 33.2605C181.038 33.1712 180.714 33.0279 180.435 32.8308C180.156 32.6299 179.931 32.3713 179.76 32.0551C179.589 31.7389 179.488 31.3557 179.459 30.9056Z" fill="black"/>
<path d="M187.627 25.4535H189.24L190.897 31.525H190.942L192.566 25.4535H194.201L191.734 33.227H190.088L187.627 25.4535Z" fill="black"/>
<path fill-rule="evenodd" clip-rule="evenodd" d="M226.465 3.51367H227.465H253.326C257.192 3.51367 260.326 6.64768 260.326 10.5137V36.8234H265.862H266.862V37.8234V41.9013C266.862 45.3599 263.945 48.1023 260.493 47.89L238.034 46.5089L238.038 46.383C233.787 45.664 230.549 41.9648 230.549 37.5094V14.0555H223.38H222.38V13.0555V8.59958C222.38 6.13361 224.135 4.07763 226.465 3.61306V3.51367ZM232.549 14.0555H232.55V14.0547H232.55V13.0547V8.59874C232.55 7.43865 232.161 6.36929 231.507 5.51367H253.326C256.088 5.51367 258.326 7.75225 258.326 10.5137V36.8234H244.57H243.444L243.577 37.9419C243.606 38.1827 243.621 38.4283 243.621 38.6781C243.621 41.6916 241.472 44.113 238.769 44.4663C235.27 44.0782 232.549 41.1115 232.549 37.5094V14.0555ZM230.55 12.0547V8.59958C230.55 6.89587 229.168 5.51475 227.465 5.51475C225.761 5.51475 224.38 6.89587 224.38 8.59958V12.0555H230.549V12.0547H230.55ZM245.62 38.8234C245.577 41.2249 244.488 43.3836 242.791 44.7976L260.616 45.8938C262.917 46.0353 264.862 44.207 264.862 41.9013V38.8234H245.62Z" fill="white"/>
<rect x="247.889" y="9.37891" width="22.875" height="22.875" rx="4" fill="#86EC16"/>
<path d="M257.692 27.3537L260.96 14.2822" stroke="black" stroke-width="2"/>
<path d="M255.241 16.7324L251.973 20.8173L255.241 24.9021" stroke="black" stroke-width="2"/>
<path d="M263.41 16.7324L266.678 20.8173L263.41 24.9021" stroke="black" stroke-width="2"/>
</svg>
