<svg width="28" height="28" viewBox="0 0 28 28" fill="none" xmlns="http://www.w3.org/2000/svg">
<path d="M21.62 19.5868L22.7027 20.6443L20.6717 22.6753L19.6142 21.5926L19.6132 21.5916C19.2444 21.2228 18.7201 21.1635 18.2655 21.406L18.2655 21.4059L18.2608 21.4087C17.6705 21.7574 17.0273 22.0253 16.3581 22.1859L16.357 22.1862C15.8622 22.3099 15.5257 22.7712 15.5257 23.2623V24.7743H12.7201V23.2896C12.7201 22.7991 12.3844 22.3383 11.8906 22.2139C11.2191 22.0258 10.574 21.757 9.98229 21.4344C9.55518 21.191 9.00092 21.2487 8.65804 21.6207L7.60242 22.6763L5.59662 20.6705L6.65409 19.613C7.08485 19.1823 7.08485 18.4756 6.65408 18.0449C6.22398 17.6148 5.51884 17.6141 5.08789 18.0429L3.78029 19.2415L3.78012 19.2414L3.77465 19.247C3.04577 20.0051 3.0458 21.1742 3.80365 21.932L6.25905 24.3874C6.61004 24.7384 7.07842 24.9424 7.6297 24.9424C8.15269 24.9424 8.62257 24.739 8.94768 24.3856L9.67364 23.6596C9.95068 23.7944 10.228 23.9101 10.5058 24.0066V25.0084C10.5058 26.0608 11.3542 26.9067 12.4314 26.9067H15.9235C16.9747 26.9067 17.8219 26.0596 17.8219 25.0084V23.9793C18.0996 23.8828 18.3769 23.7671 18.654 23.6323L19.3818 24.3602L19.3818 24.3602L19.3836 24.3619C20.1153 25.0643 21.3376 25.062 22.0941 24.3346L22.0958 24.3329L24.5785 21.8502L24.5786 21.8502L24.5803 21.8484C25.2827 21.1168 25.2804 19.8944 24.553 19.1379L24.553 19.1379L24.5513 19.1362L23.8467 18.4316C23.8806 18.3512 23.9147 18.2715 23.9491 18.1914C24.0302 18.0021 24.1122 17.8107 24.1937 17.6035H25.1995C26.2494 17.6035 27.1251 16.7576 27.1251 15.6779V12.2676H27.1255L27.1247 12.2572C27.038 11.2174 26.1991 10.3419 25.1176 10.3419H24.116C24.0209 10.065 23.906 9.77087 23.7708 9.5079L24.4677 8.81102C24.847 8.45991 25.0517 7.99065 25.0517 7.4659C25.0517 6.94291 24.8484 6.44694 24.4967 6.09525L22.014 3.61256L22.014 3.61254L22.0122 3.61084C21.2542 2.88196 20.0851 2.882 19.3273 3.63984L18.5953 4.37183L17.7673 4.02685V3.01889C17.7673 1.96893 16.9214 1.09326 15.8417 1.09326H12.3768C11.3269 1.09326 10.4512 1.93918 10.4512 3.01889V4.01859C10.1546 4.11479 9.87644 4.23039 9.61694 4.36556L8.91851 3.66712C8.18764 2.93625 6.93536 2.93625 6.20449 3.66712L3.74908 6.12253L3.74906 6.12251L3.74737 6.12428C3.01878 6.88201 3.01878 8.07708 3.74737 8.83481L3.74735 8.83482L3.74908 8.83656L5.03135 10.1188C5.46212 10.5496 6.16875 10.5496 6.59952 10.1188C7.03029 9.68806 7.03029 8.98142 6.59952 8.55065L5.5426 7.49373L7.57459 5.48683L8.63261 6.54484C8.99994 6.91218 9.52536 6.97485 9.95615 6.72868C10.5205 6.40618 11.1391 6.13711 11.8667 5.92153L11.8667 5.9216L11.8707 5.92027C12.3266 5.76831 12.6655 5.34162 12.6655 4.8468V3.33487H15.5257V4.8468C15.5257 5.33753 15.8617 5.79855 16.3559 5.92267C17.0547 6.11092 17.6992 6.3796 18.2623 6.7014C18.6896 6.94555 19.2445 6.88807 19.5877 6.51571L20.6433 5.4601L22.6775 7.49422L21.6179 8.57898L21.6179 8.57893L21.6152 8.58185C21.2837 8.94346 21.1862 9.46579 21.4351 9.90147C21.7569 10.4646 22.0256 11.1091 22.2139 11.808C22.338 12.3022 22.799 12.6381 23.2897 12.6381H24.8017V15.4983H23.2897C22.799 15.4983 22.338 15.8342 22.2139 16.3284C22.0256 17.0273 21.7569 17.6718 21.4351 18.2349C21.1894 18.665 21.251 19.2178 21.619 19.5858L21.62 19.5868Z" fill="black" stroke="black" stroke-width="0.25"/>
<path d="M12.4793 17.0627C12.0485 17.4935 12.0485 18.2001 12.4793 18.6309C12.6921 18.8437 12.9689 18.9676 13.277 18.9676C13.5561 18.9676 13.8606 18.845 14.0747 18.6309L17.8943 14.8114C18.325 14.3806 18.325 13.6739 17.8943 13.2432L14.0747 9.42366C13.644 8.99289 12.9373 8.99289 12.5066 9.42366C12.0758 9.85443 12.0758 10.5611 12.5066 10.9918L14.4485 12.9337H1.98216C1.36748 12.9337 0.875 13.4262 0.875 14.0409C0.875 14.6556 1.36748 15.1481 1.98216 15.1481H14.3939L12.4793 17.0627Z" fill="black" stroke="black" stroke-width="0.25"/>
</svg>
