<?xml version="1.0" encoding="utf-8"?>
<!-- Generator: Adobe Illustrator 24.0.3, SVG Export Plug-In . SVG Version: 6.00 Build 0)  -->
<svg version="1.1" id="Ebene_1" xmlns="http://www.w3.org/2000/svg" xmlns:xlink="http://www.w3.org/1999/xlink" x="0px" y="0px"
	 viewBox="0 0 161 161" style="enable-background:new 0 0 161 161;" xml:space="preserve">
<style type="text/css">
	.st0{fill:none;stroke:#86ED18;stroke-width:3;stroke-linejoin:round;stroke-miterlimit:10;}
	.st1{fill:#FFFFFF;}
	.st2{fill:none;stroke:#000000;stroke-width:3;stroke-miterlimit:10;}
	.st3{fill:#FFFFFF;stroke:#000000;stroke-width:3;stroke-miterlimit:10;}
	.st4{fill:none;stroke:#000000;stroke-width:3;stroke-linejoin:round;stroke-miterlimit:10;}
	.st5{fill:none;stroke:#86ED18;stroke-width:3;stroke-miterlimit:10;}
	.st6{fill:#FFFFFF;stroke:#86ED18;stroke-width:3;stroke-linejoin:round;stroke-miterlimit:10;}
</style>
<path d="M104.2,155.9c-2.8-6.5-12.1-48.4-12.2-48.9C89.8,94.4,77.9,86,65.3,88.2c-12.5,2.2-20.9,14.1-18.7,26.7
	c0.3,1.9,20.3,15.8,36.6,26.9c2.9,2,10.3,16.1,13.4,16.1C99.3,157.8,104.2,155.9,104.2,155.9L104.2,155.9z"/>
<path class="st0" d="M114.7,93.8H111v36.1h29V93.8h-3.6 M118.3,102.8h14.5 M118.3,111.9h14.5 M118.3,120.9h14.5"/>
<path class="st0" d="M135.6,88.4h9.8c1,0,1.8,0.8,1.8,1.8v45.2c0,1-0.8,1.8-1.8,1.8c0,0,0,0,0,0h-39.8c-1,0-1.8-0.8-1.8-1.8
	c0,0,0,0,0,0V90.2c0-1,0.8-1.8,1.8-1.8h9.8"/>
<path class="st0" d="M131.8,86.6h-1.9c-0.4-2-2.2-3.6-4.4-3.6c-2.2,0-4,1.5-4.4,3.6h-1.9c-2.7,0-4.5,1.8-4.5,4.5v2.7h21.7v-2.7
	C136.4,88.4,134.5,86.6,131.8,86.6L131.8,86.6z"/>
<path class="st1" d="M32.6,143.3l-2.1-25.3c-3.1-17,8.1-33.3,25-36.5c10.6-2,18.4,0.4,25.6,7.2c15.6,14.6,18.4,42.5,15.5,69"/>
<path class="st2" d="M32.6,143.3l-2.1-25.3c-3.1-17,8.1-33.3,25-36.5c10.6-2,18.4,0.4,25.6,7.2c15.6,14.6,18.4,42.5,15.5,69"/>
<path class="st3" d="M46.8,59.1c0-5.2-4.2-9.4-9.4-9.4S28,53.9,28,59.1c0,5.2,4.2,9.4,9.4,9.4C42.7,68.5,46.8,64.3,46.8,59.1
	L46.8,59.1z"/>
<path class="st2" d="M41.8,62c-0.1,1.5-0.1,2.9-0.1,4.5"/>
<path class="st3" d="M102.9,65.3c3.5-17.8-8.1-35.2-26-38.7C59,23.1,41.7,34.7,38.1,52.5c-3.5,17.8,8.1,35.2,26,38.7
	C81.9,94.8,99.3,83.2,102.9,65.3L102.9,65.3z"/>
<path class="st1" d="M69.5,63.9c0,3.3,2.7,5.9,5.9,5.9c3.3,0,5.9-2.6,5.9-5.9"/>
<path class="st2" d="M69.5,63.9c0,3.3,2.7,5.9,5.9,5.9c3.3,0,5.9-2.6,5.9-5.9"/>
<path class="st4" d="M12.4,40.4c5-2.1,6.8-2,12.5-2c3.8,0,7.7,0.3,11.3,1.3C42,29.2,52.9,22.3,64.9,21.8h1.3c7.2,0,13.9,2,19.5,5.5
	l-0.3,1c-1.3,5.5-6.8,9-12.3,7.7c0,0-0.1,0-0.1,0c-1.1-0.3-2.1-0.7-3-1.2l-0.3,1c-1.3,5.5-6.8,9-12.3,7.7c0,0-0.1,0-0.1,0
	c-1.1-0.3-2.1-0.7-3-1.2v-0.1l-0.3,1c-1.3,5.5-6.8,9-12.3,7.7c0,0-0.1,0-0.1,0c-1.1-0.3-2.1-0.7-3-1.2"/>
<g>
	<path class="st1" d="M66.3,50.8c-1.3-0.3-2.6,0.6-2.9,1.9c-0.3,1.3,0.6,2.6,1.9,2.9c1.3,0.3,2.6-0.6,2.9-1.9v0
		C68.5,52.3,67.7,51,66.3,50.8z"/>
	<path class="st1" d="M86.1,50.8c-1.3-0.3-2.6,0.6-2.9,1.9c-0.3,1.3,0.6,2.6,1.9,2.9c1.3,0.3,2.6-0.6,2.9-1.9v0
		C88.3,52.3,87.4,51,86.1,50.8z"/>
	<path d="M72.4,111c1.1-14.6-10-27.4-24.6-28.4c-14.6-1.1-27.4,10-28.4,24.6l-1.5,21.4c12.1,15.6,29.8,26.6,50.1,29.8
		c0.2,0,0.3,0,0.3,0L72.4,111z"/>
</g>
<path class="st5" d="M104.2,155.9c-7.7,2.4-15.7,3.7-23.7,3.6c-43.6,0-79-35.4-79-79s35.4-79,79-79c43.6,0,79,35.3,79,78.9
	c0,12-2.7,23.3-7.5,33.5 M152,114c-4.3,9.3-10.5,17.7-18,24.6"/>
<path class="st6" d="M147.9,112.9l-16,23l-2.2,11.4l10-5.9l16-23.1C155.7,118.2,147.9,112.9,147.9,112.9z"/>
<path class="st0" d="M131.9,135.9l7.8,5.4"/>
<path d="M68.3,53.5c0.3-1.3-0.6-2.6-1.9-2.9c-1.3-0.3-2.6,0.6-2.9,1.9c-0.3,1.3,0.6,2.6,1.9,2.9C66.7,55.7,67.9,54.8,68.3,53.5
	L68.3,53.5z M88,53.5c0.3-1.3-0.6-2.6-1.9-2.9c-1.3-0.3-2.6,0.6-2.9,1.9c-0.3,1.3,0.6,2.6,1.9,2.9C86.5,55.7,87.8,54.8,88,53.5z"/>
</svg>
