<svg xmlns="http://www.w3.org/2000/svg" width="161" height="161" fill="none" viewBox="0 0 161 161">
    <path fill="#fff" d="M28.112 139.642l.128-24.57c-1.6-17.147 11.002-32.44 28.145-34.103 10.746-1.024 18.23 1.983 24.883 9.47 14.008 15.676 14.584 43.125 9.53 69.038"/>
    <path stroke="#000" stroke-miterlimit="10" stroke-width="3" d="M28.112 139.642l.128-24.57c-1.6-17.147 11.002-32.44 28.145-34.103 10.746-1.024 18.23 1.983 24.883 9.47 14.008 15.676 14.584 43.125 9.53 69.038"/>
    <path fill="#fff" stroke="#000" stroke-miterlimit="10" stroke-width="3" d="M36.747 45.139c-4.413 17.915 6.525 36.087 24.5 40.565 17.974 4.48 36.14-6.462 40.618-24.441 1.407-5.695 1.279-11.453-.192-16.764a22.552 22.552 0 0 0 3.134-7.038c2.943-11.901-4.349-23.994-16.31-26.938-9.532-2.367-19.127 1.792-24.116 9.598-13.05 1.855-24.307 11.453-27.634 25.018z"/>
    <path stroke="#000" stroke-miterlimit="10" stroke-width="3" d="M46.854 59.087c0-5.183-4.222-9.406-9.403-9.406-5.182 0-9.403 4.223-9.403 9.406 0 5.182 4.221 9.405 9.403 9.405a9.379 9.379 0 0 0 9.403-9.405z"/>
    <path fill="#fff" stroke="#000" stroke-miterlimit="10" stroke-width="3" d="M46.598 61.838c1.28-5.055-1.855-10.238-6.972-11.453-5.118-1.28-10.235 1.855-11.514 6.91-1.28 5.055 1.855 10.237 6.972 11.453 5.053 1.28 10.235-1.856 11.514-6.91z"/>
    <path fill="#fff" stroke="#000" stroke-miterlimit="10" stroke-width="3" d="M102.952 66.828c4.414-17.787-6.46-35.83-24.37-40.246-17.847-4.415-35.886 6.463-40.3 24.25-4.413 17.788 6.46 35.831 24.308 40.246 17.91 4.415 35.949-6.398 40.362-24.25z"/>
    <path fill="#000" d="M68.283 53.648c.256-1.343-.576-2.623-1.92-2.879-1.343-.256-2.622.576-2.878 1.92-.256 1.343.576 2.623 1.92 2.879 1.343.256 2.622-.576 2.878-1.92zM88.048 53.648c.256-1.343-.576-2.623-1.919-2.879-1.343-.256-2.622.576-2.878 1.92-.256 1.343.575 2.623 1.919 2.879 1.343.256 2.622-.576 2.878-1.92zM42.44 149.752c-1.28.192-19.83-13.948-21.3-17.148l-.768-23.482c.256-14.716 12.345-26.425 27.057-26.17 14.713.257 26.419 12.35 26.163 27.066v49.46s-18.998-3.519-31.152-9.726z"/>
    <path fill="#fff" d="M69.562 63.886c0 3.263 2.687 5.886 5.949 5.886s5.949-2.559 5.949-5.886"/>
    <path stroke="#000" stroke-miterlimit="10" stroke-width="3" d="M69.562 63.886c0 3.263 2.687 5.886 5.949 5.886s5.949-2.559 5.949-5.886M58.56 28.566c.767 2.752.895 5.695.128 8.702-2.239 9.086-11.45 14.588-20.597 12.285"/>
    <path fill="#fff" d="M.542.285v159.96h159.916V.285H.542zm90.513 158.489a81.961 81.961 0 0 1-10.555.704c-43.689 0-79.19-35.448-79.19-79.213C1.31 36.5 36.81 1.117 80.5 1.117s79.191 35.447 79.191 79.212a79.083 79.083 0 0 1-10.811 39.99"/>
    <path stroke="#86ED18" stroke-miterlimit="10" stroke-width="3" d="M92.014 158.646c-3.774.576-7.612.832-11.514.832-43.625 0-78.999-35.383-78.999-79.02C1.501 36.82 36.875 1.5 80.5 1.5c43.625 0 78.999 35.384 78.999 79.02 0 14.525-3.902 28.09-10.747 39.799"/>
    <path fill="#fff" d="M148.816 120.895v-33.08a2.157 2.157 0 0 0-2.175-2.175H98.155c-1.216 0-2.175.96-2.175 2.175v33.08"/>
    <path stroke="#86ED18" stroke-linejoin="round" stroke-miterlimit="10" stroke-width="3" d="M148.816 120.895v-33.08a2.157 2.157 0 0 0-2.175-2.175H98.155c-1.216 0-2.175.96-2.175 2.175v33.08"/>
    <path fill="#fff" stroke="#86ED18" stroke-linejoin="round" stroke-miterlimit="10" stroke-width="3" d="M148.816 120.895h-52.9l-6.589 19.835v4.415c0 1.216.96 2.175 2.175 2.175h61.728a2.157 2.157 0 0 0 2.175-2.175v-4.415l-6.589-19.835z"/>
    <path stroke="#86ED18" stroke-linejoin="round" stroke-miterlimit="10" stroke-width="3" d="M102.504 131.9h39.724M89.327 140.73h66.078M142.164 91.782h-39.66v23.355h39.66V91.782z"/>
</svg>
