<svg xmlns="http://www.w3.org/2000/svg" width="161" height="161" fill="none" viewBox="0 0 161 161">
    <path stroke="#000" stroke-miterlimit="10" stroke-width="3" d="M34.257 50.711c0-16.51 12.667-30.972 29.172-30.972 5.95 0 11.516 1.728 16.122 4.735M79.743 24.283c13.37 0 24.246 10.879 24.246 24.253a24.22 24.22 0 0 1-1.919 9.407"/>
    <path fill="#fff" stroke="#86ED18" stroke-linejoin="round" stroke-miterlimit="10" stroke-width="3" d="M152.226 130.125c0 1.408-1.087 2.496-2.495 2.496h-69.86c-1.407 0-2.495-1.088-2.495-2.496V85.203c0-1.408 1.088-2.496 2.495-2.496h69.86c1.408 0 2.495 1.088 2.495 2.496v44.922z"/>
    <path stroke="#86ED18" stroke-linejoin="round" stroke-miterlimit="10" stroke-width="3" d="M102.326 147.595h24.95M114.801 147.596v-14.975M144.741 90.194h-59.88v34.94h59.88v-34.94z"/>
    <path fill="#fff" d="M28.051 138.701l.128-23.677c-1.6-17.15 11.004-32.444 28.15-34.108 10.747-1.024 18.232 1.984 24.885 9.47 13.883 15.551 14.586 42.683 9.66 68.344"/>
    <path stroke="#000" stroke-miterlimit="10" stroke-width="3" d="M28.051 138.701l.128-23.677c-1.6-17.15 11.004-32.444 28.15-34.108 10.747-1.024 18.232 1.984 24.885 9.47 13.883 15.551 14.586 42.683 9.66 68.344M46.86 59.094c0-5.183-4.222-9.407-9.404-9.407-5.182 0-9.405 4.224-9.405 9.407 0 5.184 4.223 9.407 9.405 9.407 5.181 0 9.404-4.224 9.404-9.407z"/>
    <path fill="#fff" stroke="#000" stroke-miterlimit="10" stroke-width="3" d="M46.54 61.846c1.28-5.056-1.855-10.24-6.973-11.455-5.118-1.28-10.236 1.856-11.516 6.911-1.28 5.056 1.856 10.239 6.974 11.455 5.117 1.28 10.235-1.856 11.515-6.911z"/>
    <path fill="#fff" stroke="#000" stroke-miterlimit="10" stroke-width="3" d="M102.902 66.837C107.316 49.047 96.44 31 78.527 26.586c-17.849-4.416-35.89 6.463-40.304 24.253-4.414 17.79 6.462 35.835 24.31 40.25 17.913 4.416 35.954-6.398 40.369-24.252z"/>
    <path fill="#000" d="M68.227 53.655c.256-1.344-.575-2.623-1.919-2.88-1.343-.255-2.623.577-2.879 1.92-.256 1.344.576 2.624 1.92 2.88 1.343.256 2.623-.576 2.878-1.92zM88.06 53.655c.255-1.344-.576-2.623-1.92-2.88-1.343-.255-2.623.577-2.879 1.92-.255 1.344.576 2.624 1.92 2.88 1.28.256 2.559-.576 2.879-1.92zM37.328 146.7C20.31 133.709 15.32 125.134 15.32 125.134l3.583-20.733C21.462 89.939 35.281 80.276 49.739 82.9c14.458 2.56 24.118 16.381 21.495 30.844l-7.805 43.898c-.064 0-17.529-4.415-26.101-10.942z"/>
    <path fill="#fff" d="M69.571 63.894c0 3.264 2.687 5.887 5.95 5.887 3.262 0 5.95-2.56 5.95-5.887"/>
    <path stroke="#000" stroke-miterlimit="10" stroke-width="3" d="M69.571 63.894c0 3.264 2.687 5.887 5.95 5.887 3.262 0 5.95-2.56 5.95-5.887M80.063 24.283l-.704 2.816c-3.902 16.638-20.6 27.004-37.297 23.1a29.452 29.452 0 0 1-3.39-.96"/>
    <path stroke="#86ED18" stroke-miterlimit="10" stroke-width="3" d="M92.026 158.666c-3.775.576-7.613.832-11.516.832-43.63 0-79.008-35.387-79.008-79.03S36.816 1.502 80.446 1.502c43.631 0 79.009 35.387 79.009 79.03 0 11.775-2.559 22.973-7.229 33.02"/>
</svg>
