<?xml version="1.0" encoding="utf-8"?>
<!-- Generator: Adobe Illustrator 24.0.3, SVG Export Plug-In . SVG Version: 6.00 Build 0)  -->
<svg version="1.1" id="Ebene_1" xmlns="http://www.w3.org/2000/svg" xmlns:xlink="http://www.w3.org/1999/xlink" x="0px" y="0px"
	 viewBox="0 0 162 161" style="enable-background:new 0 0 162 161;" xml:space="preserve">
<style type="text/css">
	.st0{fill:#FFFFFF;}
	.st1{fill:none;stroke:#000000;stroke-width:3;stroke-miterlimit:10;}
	.st2{fill:#FFFFFF;stroke:#000000;stroke-width:3;stroke-miterlimit:10;}
	.st3{fill:none;stroke:#86ED18;stroke-width:3;stroke-miterlimit:10;}
	.st4{fill:none;stroke:#86ED18;stroke-width:3;stroke-linejoin:round;stroke-miterlimit:10;}
	.st5{fill:#FFFFFF;stroke:#86ED18;stroke-width:3;stroke-linejoin:round;stroke-miterlimit:10;}
</style>
<path d="M105,155.6c-6.4-26.7-7.6-47.9-7.6-48.2c-1.5-12.7-12.9-21.7-25.6-20.2c-12.7,1.5-23.6,34.3-22.1,47
	C50.1,137.4,107,165,105,155.6L105,155.6z"/>
<path class="st0" d="M90.6,159.2h-17l-13.6-2.5l-12-4.2L33.3,143l-2.8-25c-3.1-17,8.1-33.3,25-36.5c10.6-2,18.4,0.4,25.7,7.2
	c15.7,14.7,18.5,42.9,15.4,69.7L90.6,159.2z"/>
<path class="st1" d="M30.5,118c-3.1-17,8.1-33.3,25-36.5c10.6-2,18.4,0.4,25.7,7.2c15.7,14.7,18.5,42.9,15.4,69.7"/>
<path class="st2" d="M46.9,59.1c0-5.2-4.2-9.4-9.4-9.4c-5.2,0-9.4,4.2-9.4,9.4c0,5.2,4.2,9.4,9.4,9.4C42.6,68.5,46.9,64.3,46.9,59.1
	z"/>
<path class="st1" d="M41.8,62c-0.1,1.5-0.1,2.9-0.1,4.5"/>
<path class="st2" d="M102.8,65.4c3.5-17.9-8.1-35.2-26-38.7c-17.9-3.5-35.2,8.1-38.8,25.9c-3.5,17.9,8.1,35.2,26,38.7
	C81.9,94.8,99.3,83.2,102.8,65.4z"/>
<path class="st0" d="M69.6,63.9c0,3.3,2.7,5.9,5.9,5.9c3.3,0,5.9-2.6,5.9-5.9"/>
<path class="st1" d="M69.6,63.9c0,3.3,2.7,5.9,5.9,5.9c3.3,0,5.9-2.6,5.9-5.9 M2.5,64.3l36.6-34.1c6.2-6.1,14.7-9.9,24.1-9.9
	c6.6,0,12.7,1.8,17.9,5.1l-0.6,2.6c-3.6,15.3-18.9,24.8-34.2,21.2c-3-0.7-4.6-1.1-7.2-2.6"/>
<g>
	<path d="M72,113.2c2.2-14.5-7.9-28.1-22.4-30.3c-14.5-2.2-28.1,7.9-30.3,22.4l-3.2,21.1c10,13.9,24.3,24.4,41,29.6
		c4.4,1.1,7.4,1.9,7.4,1.9L72,113.2z"/>
	<path class="st0" d="M66.4,50.8c-1.3-0.3-2.6,0.6-2.9,1.9c-0.3,1.3,0.6,2.6,1.9,2.9c1.3,0.3,2.6-0.6,2.9-1.9h0
		C68.5,52.3,67.7,51,66.4,50.8z"/>
	<path class="st0" d="M86.1,50.8c-1.3-0.3-2.6,0.6-2.9,1.9c-0.3,1.3,0.6,2.6,1.9,2.9c1.3,0.3,2.6-0.6,2.9-1.9
		C88.3,52.3,87.5,51,86.1,50.8z"/>
</g>
<path class="st3" d="M105.1,155.6c-7.7,2.6-16.1,3.9-24.6,3.9c-43.6,0-79-35.4-79-79c0-43.6,35.4-79,79-79s79,35.4,79,79
	c0,7.2-1,14.2-2.8,20.9"/>
<path class="st4" d="M109.7,93.4v-4c0-10.9,7.8-19.7,18.7-19.7h2c10.9,0,18.7,8.8,18.7,19.7v4 M137.2,124.9c0-2.2-1.8-4-4-4h-4
	c-2.2,0-4,1.8-4,4s1.8,4,4,4h4C135.4,128.8,137.2,127,137.2,124.9z M137.2,124.9c0,0,11.8,0,11.8-13.8"/>
<path class="st4" d="M113.6,111.1h-8.3c-1.9,0-3.5-1.6-3.5-3.5c0,0,0,0,0,0V96.9c0-1.9,1.6-3.5,3.5-3.5c0,0,0,0,0,0h8.3V111.1z"/>
<path class="st5" d="M145.1,111.1h8.3c1.9,0,3.5-1.6,3.5-3.5c0,0,0,0,0,0V96.9c0-1.9-1.6-3.5-3.5-3.5c0,0,0,0,0,0h-8.3V111.1z"/>
<path d="M68,56.1c0.3-1.5-0.7-2.9-2.3-2.9c-1.1,0-2.2,0.7-2.5,1.8c-0.4,1.4,0.5,2.8,1.9,3.1C66.4,58.3,67.7,57.4,68,56.1L68,56.1z
	 M87.8,56.2c0.4-1.5-0.6-3-2.2-3.1c-1.1-0.1-2.2,0.7-2.5,1.8c-0.4,1.5,0.6,3,2.2,3.1C86.4,58.1,87.5,57.3,87.8,56.2z"/>
</svg>
