<?xml version="1.0" encoding="utf-8"?>
<!-- Generator: Adobe Illustrator 23.0.3, SVG Export Plug-In . SVG Version: 6.00 Build 0)  -->
<svg version="1.1" id="Ebene_1" xmlns="http://www.w3.org/2000/svg" xmlns:xlink="http://www.w3.org/1999/xlink" x="0px" y="0px"
	 viewBox="0 0 598 640.4" style="enable-background:new 0 0 598 640.4;" xml:space="preserve">
<style type="text/css">
	.st0{fill:none;stroke:#86ED18;stroke-width:3;stroke-linejoin:round;stroke-miterlimit:10;}
	.st1{fill:#FFFFFF;}
	.st2{fill:none;stroke:#000000;stroke-width:3;stroke-miterlimit:10;}
	.st3{fill:#FFFFFF;stroke:#000000;stroke-width:3;stroke-miterlimit:10;}
	.st4{fill:none;stroke:#000000;stroke-width:3;stroke-linejoin:round;stroke-miterlimit:10;}
	.st5{fill:none;stroke:#86ED18;stroke-width:3;stroke-miterlimit:10;}
	.st6{fill:#FFFFFF;stroke:#86ED18;stroke-width:3;stroke-linejoin:round;stroke-miterlimit:10;}
	.st7{display:none;}
	.st8{display:inline;}
	.st9{display:inline;fill:#FFFFFF;}
	.st10{display:inline;fill:none;stroke:#000000;stroke-width:3;stroke-miterlimit:10;}
	.st11{display:inline;fill:#FFFFFF;stroke:#000000;stroke-width:3;stroke-miterlimit:10;}
	.st12{display:inline;fill:none;stroke:#86ED18;stroke-width:3;stroke-miterlimit:10;}
	.st13{display:inline;fill:none;stroke:#86ED18;stroke-width:3;stroke-linejoin:round;stroke-miterlimit:10;}
	.st14{display:inline;fill:#FFFFFF;stroke:#86ED18;stroke-width:3;stroke-linejoin:round;stroke-miterlimit:10;}
	.st15{fill:none;stroke:#6100FE;stroke-width:7.451;stroke-miterlimit:10;}
	.st16{fill:none;stroke:#86ED18;stroke-width:7.451;stroke-miterlimit:10;}
	.st17{display:none;fill:none;stroke:#2DE9CD;stroke-width:7.451;stroke-miterlimit:10;}
	.st18{fill:none;stroke:#000000;stroke-width:45;stroke-miterlimit:10;}
	.st19{fill:#86ED18;}
</style>
<g>
	<path d="M444.3,189.3c0,0,7.6,0.1,10.9,0c3.6,0,12-17.5,15.4-19.8c19.3-13.1,42.9-29.5,43.3-31.8c2.6-14.8-7.3-29-22.2-31.6
		c-14.8-2.6-29,7.3-31.6,22.2c-0.2,0.7-11.2,50.2-14.5,57.9L444.3,189.3z"/>
	<path class="st0" d="M407.7,112.7h-4.3v42.8h34.3v-42.8h-4.3 M411.9,123.4h17.2 M411.9,134.2h17.2 M411.9,144.9h17.2"/>
	<path class="st0" d="M432.4,106.3h11.7c1.1,0,2.1,0.9,2.1,2.1V162l0,0c0,1.2-1,2.1-2.1,2.1h-43.2c0,0-6-7.9-6-9v-46.7
		c0-1.1,0.9-2.1,2.1-2.1h11.6"/>
	<path class="st0" d="M413,104.2c-3.1,0-5.4,2.1-5.3,5.4v3.2h25.7v-3.2c0-3.3-2.2-5.4-5.4-5.4h-2.3c-0.5-2.5-2.7-4.3-5.2-4.3
		c-2.6,0-4.7,1.9-5.2,4.3H413L413,104.2z"/>
	<path class="st1" d="M455.2,189.3c-3.5-31.4-0.2-64.5,18.3-81.7c8.6-8.1,17.8-10.9,30.4-8.6c20.1,3.8,33.3,23.1,29.6,43.2l-2.5,30"
		/>
	<path class="st2" d="M454.9,189.3c-3.5-31.4-0.3-65.4,18.2-82.6c8.6-8.1,17.8-10.9,30.4-8.6c20.1,3.8,33.3,23.1,29.6,43.2l-2.5,30"
		/>
	<path class="st3" d="M513.7,71.6c0,6.1,4.9,11.1,11.1,11.1c6.1,0,11.1-5,11.1-11.1s-5-11.1-11.1-11.1S513.7,65.5,513.7,71.6
		L513.7,71.6z"/>
	<path class="st2" d="M519.7,80.4c0.1-1.8,0.1-3.6-0.1-5.3"/>
	<path class="st3" d="M447.3,79c4.2,21.1,24.8,34.8,45.9,30.7c21.1-4.2,34.9-24.7,30.7-45.8S499.2,29.1,478,33.2
		C457,37.4,443.2,57.9,447.3,79L447.3,79z"/>
	<path d="M488.3,65.2c0.3,1.6,1.8,2.6,3.4,2.3c1.6-0.3,2.6-1.8,2.3-3.4c-0.3-1.6-1.8-2.6-3.4-2.3C489,62.1,488,63.6,488.3,65.2
		L488.3,65.2z M464.9,65.2c0.3,1.6,1.8,2.6,3.4,2.3c1.6-0.3,2.6-1.8,2.3-3.4c-0.3-1.6-1.8-2.6-3.4-2.3
		C465.6,62.1,464.6,63.6,464.9,65.2L464.9,65.2z M547.9,152c-20.8,32.4-59.7,37.4-59.7,37.4l-4.8-56.2
		c-1.3-17.3,11.8-32.4,29.2-33.6c17.3-1.3,32.4,11.8,33.6,29.2L547.9,152z"/>
	<path class="st1" d="M472.7,77.3c0,3.9,3.2,7,7,7c3.9,0,7-3.1,7-7"/>
	<path class="st2" d="M472.7,77.3c0,3.9,3.2,7,7,7c3.9,0,7-3.1,7-7"/>
	<path class="st4" d="M523.4,60.4c-1.1,0.6-2.3,1.1-3.6,1.4h-0.1c-6.5,1.5-13-2.6-14.5-9.1l-0.3-1.1v0.1c-1.1,0.6-2.3,1.1-3.6,1.4
		h-0.1c-6.5,1.5-13-2.6-14.5-9.1l-0.3-1.1c-1.1,0.6-2.3,1.1-3.6,1.4h-0.1c-6.5,1.5-13-2.6-14.5-9.1l-0.3-1.2
		c6.7-4.2,14.6-6.5,23.1-6.5h1.5c14.2,0.5,27,8.7,33.9,21.1c4.2-1.2,8.8-1.5,13.3-1.5c6.8,0,9.6,1.4,15.5,3.9"/>
	<path class="st5" d="M389.2,136.6c-5.7-12-8.9-25.5-8.9-39.7c0-51.7,41.9-93.5,93.5-93.5s93.5,41.9,93.5,93.5s-41.9,93.5-93.5,93.5
		c-9.1,0-96.3-0.1-106-0.1 M410.5,165.8c-8.9-8.2-16.1-18-21.3-29.1"/>
	<path class="st6" d="M384.8,141.7l18.9,27.3l11.8,7l-2.6-13.5L394,135.3L384.8,141.7z"/>
	<path class="st0" d="M403.7,169l9.2-6.4"/>
</g>
<g id="Ebene_3" class="st7">
	<path class="st8" d="M443.5,185.7c-4,16.5,65.5-21.7,65.9-25.6c1.8-15.1-11.3-54.2-26.4-56s-28.7,9-30.5,24.1
		C452.6,128.6,451.1,153.8,443.5,185.7L443.5,185.7z"/>
	<path class="st9" d="M453.6,189.1c-3.7-32-0.5-65.6,18.3-83.1c8.7-8.2,17.9-11,30.6-8.6c20.2,3.8,33.5,23.3,29.8,43.5l-3.4,49.5"/>
	<path class="st10" d="M453.6,189.1c-3.7-32-0.5-65.6,18.3-83.1c8.7-8.2,17.9-11,30.6-8.6c20.2,3.8,33.5,23.3,29.8,43.5l-3.4,49.5"
		/>
	<path class="st11" d="M524,81.9c6.2,0,11.2-5,11.2-11.2s-5-11.2-11.2-11.2s-11.2,5-11.2,11.2C512.8,76.8,517.8,81.9,524,81.9z"/>
	<path class="st10" d="M518.9,79.5c0.1-1.8,0.1-3.6-0.1-5.3"/>
	<path class="st11" d="M492.3,109c21.3-4.2,35.1-24.9,31-46.1C519.1,41.6,498.4,27.8,477,32c-21.3,4.2-35.1,24.9-31,46.1
		C450.3,99.4,471,113.2,492.3,109z"/>
	<path class="st8" d="M487.3,64.2c0.4,1.6,1.9,2.6,3.4,2.3c1.6-0.3,2.6-1.8,2.3-3.4c-0.3-1.6-1.8-2.6-3.4-2.3
		C487.9,61,487,62.6,487.3,64.2L487.3,64.2z M467.1,66.5c1.6-0.3,2.6-1.8,2.3-3.4c-0.3-1.6-1.8-2.6-3.4-2.3s-2.6,1.8-2.3,3.4
		C464,65.8,465.5,66.8,467.1,66.5z M535.5,180.5c-15.5,0-43.9,7.9-43.9,7.9l-8.8-53.2c-2.6-17.3,9.4-33.5,26.7-36.1
		s33.5,9.4,36.1,26.7l3.8,25.2c2.6,17.3,7.9,22.3-9.5,24.9C538.3,176,545.1,172.7,535.5,180.5L535.5,180.5z"/>
	<path class="st9" d="M471.6,76.4c0,4,3.2,7,7.1,7s7.1-3.1,7.1-7"/>
	<path class="st10" d="M471.6,76.4c0,4,3.2,7,7.1,7s7.1-3.1,7.1-7 M522,55.7c-3,1.8-5,2.3-8.5,3.1c-18.2,4.3-36.5-7.1-40.8-25.3
		l-0.8-3.1c6.2-3.9,13.5-6,21.3-6c11.3,0,21.4,4.6,28.7,11.8l43.6,40.6"/>
	<path class="st9" d="M377.4,0.6v190.6H568V0.6H377.4z M378.4,95.9c0-52.1,42.2-94.3,94.3-94.3s94.4,42.2,94.4,94.3
		s-42.3,94.4-94.4,94.4c-16.3,0-35.8,3.3-49.2-4C394.1,170.3,378.4,131.7,378.4,95.9z"/>
	<path class="st12" d="M381.9,121.1c-2.2-7.9-3.4-16.2-3.4-24.9c0-52,42.2-94.2,94.2-94.2s94.2,42.1,94.2,94.1s-42.2,94.2-94.2,94.2
		c-7.3,0-94.9,0.2-105.3,0.2"/>
	<path class="st13" d="M391.1,111.5v-4.7c0-13,9.3-23.5,22.3-23.5h2.4c13,0,22.3,10.5,22.3,23.5v4.7 M409.8,153.8h4.7
		c2.6,0,4.7-2.1,4.7-4.7s-2.1-4.7-4.7-4.7h-4.7c-2.6,0-4.7,2.1-4.7,4.7S407.2,153.8,409.8,153.8z M391,132.7
		c0,16.4,14.1,16.4,14.1,16.4"/>
	<path class="st13" d="M433.2,111.5h9.8l0,0c2.3,0,4.2,1.9,4.2,4.2v12.7l0,0c0,2.3-1.9,4.2-4.2,4.2h-9.8V111.5z"/>
	<path class="st14" d="M395.7,111.5h-9.8l0,0c-2.3,0-4.2,1.9-4.2,4.2v12.7l0,0c0,2.3,1.9,4.2,4.2,4.2h9.8V111.5z"/>
</g>
<g id="Ebene_4" class="st7">
	<path class="st9" d="M461.6,191.1c-6-30.7-5.3-63.2,11.3-81.7c7.9-8.9,16.7-12.4,29.5-11.2c20.3,2,35.2,20.1,33.3,40.4l0.2,29.1"/>
	<path class="st10" d="M461.6,191.1c-6-30.7-5.3-63.2,11.3-81.7c7.9-8.9,16.7-12.4,29.5-11.2c20.3,2,35.2,20.1,33.3,40.4l0.2,29.1"
		/>
	<path class="st11" d="M492.9,26.1c-5.9-9.2-17.3-14.2-28.5-11.4c-14.2,3.5-22.8,17.8-19.3,31.9c0.7,3,2,5.8,3.7,8.3
		c-1.7,6.3-1.9,13.1-0.2,19.8c5.3,21.3,26.8,34.2,48.1,28.9c21.3-5.3,34.2-26.8,29-48C521.7,39.7,508.4,28.3,492.9,26.1z"/>
	<path class="st10" d="M513.7,72.3c0,6.1,5,11.1,11.1,11.1s11.1-5,11.1-11.1s-5-11.1-11.1-11.1C518.7,61.1,513.7,66.1,513.7,72.3
		L513.7,72.3z"/>
	<path class="st11" d="M527.6,83.7c6.1-1.4,9.8-7.6,8.3-13.6s-7.6-9.7-13.6-8.2c-6.1,1.4-9.8,7.6-8.3,13.6S521.6,85.2,527.6,83.7z"
		/>
	<path class="st11" d="M495,110.1c21.1-5.2,34-26.6,28.8-47.6c-5.2-21.1-26.6-33.9-47.7-28.7C454.9,39,442,60.4,447.3,81.4
		C452.5,102.6,473.8,115.4,495,110.1z"/>
	<path class="st8" d="M491.7,68.1c1.6-0.3,2.6-1.8,2.3-3.4c-0.3-1.6-1.8-2.6-3.4-2.3s-2.6,1.8-2.3,3.4
		C488.6,67.4,490.1,68.4,491.7,68.1z M468.3,68.1c1.6-0.3,2.6-1.8,2.3-3.4c-0.3-1.6-1.8-2.6-3.4-2.3s-2.6,1.8-2.3,3.4
		C465.2,67.4,466.7,68.4,468.3,68.1z M482,191.1v-58.6c-0.3-17.4,13.6-31.7,31-32c17.4-0.3,31.7,13.6,32,31l-0.9,27.8
		c-1.7,3.8-23.7,20.5-25.2,20.3C504.5,186.9,482,191.1,482,191.1z"/>
	<path class="st9" d="M472.7,77.9c0,3.9,3.2,7,7,7s7-3.1,7-7"/>
	<path class="st10" d="M472.7,77.9c0,3.9,3.2,7,7,7s7-3.1,7-7 M524,61c-10.8,2.7-21.7-3.8-24.4-14.5c-0.9-3.6-0.8-7,0.2-10.3"/>
	<path class="st9" d="M379.2,2.6V192h189.3V2.6H379.2z M392.9,144.7c-8.4-14.4-12.8-30.7-12.8-47.3c0-51.8,42-93.8,93.7-93.8
		s93.7,41.9,93.7,93.7s-42,93.8-93.7,93.8c-4.2,0-8.4-0.3-12.5-0.8"/>
	<path class="st12" d="M393,144.7c-8.1-13.9-12.7-29.9-12.7-47.1c0-51.7,41.9-93.5,93.5-93.5s93.5,41.8,93.5,93.5
		s-41.9,93.5-93.5,93.5c-4.6,0-9.2-0.3-13.6-1"/>
	<path class="st9" d="M455.5,145.4v-39.2c0-1.4-1.1-2.6-2.6-2.6h-57.4l0,0c-1.4,0-2.5,1.2-2.5,2.6v39.2"/>
	<path class="st13" d="M455.5,145.4v-39.2c0-1.4-1.1-2.6-2.6-2.6h-57.4l0,0c-1.4,0-2.5,1.2-2.5,2.6v39.2"/>
	<path class="st14" d="M385.2,168.9v5.2l0,0c0,1.4,1.2,2.5,2.6,2.5h73.1c1.4,0,2.6-1.1,2.6-2.6v-5.2l-7.8-23.5H393L385.2,168.9z"/>
	<path class="st13" d="M400.8,158.5h47 M385.2,168.9h78.2 M400.8,138.6h47V111h-47V138.6z"/>
</g>
<g>
	<path class="st15" d="M583,274.9c-67.1-123.1-222.5,5.2-327.6,0c-105.1-5.1-176.8,31-222.6,109.8C-23.7,481.8-3.8,583.4,146,631.2
		C289.6,677.1,663.3,422.3,583,274.9L583,274.9z"/>
	<path class="st16" d="M583,274.9c-67.1-123.1-222.5,5.2-327.6,0c-105.1-5.1-176.8,31-222.6,109.8C-23.7,481.8-3.8,583.4,146,631.2
		C289.6,677.1,663.3,422.3,583,274.9L583,274.9z"/>
	<path class="st17" d="M583,274.9c-67.1-123.1-222.5,5.2-327.6,0c-105.1-5.1-176.8,31-222.6,109.8C-23.7,481.8-3.8,583.4,146,631.2
		C289.6,677.1,663.3,422.3,583,274.9L583,274.9z"/>
	<path class="st5" d="M366.6,190.5h-59.4"/>
	<path class="st18" d="M345.6,178.1v21.6c0,29.1-15.1,55.5-50.7,52l-20.5-6.1"/>
	<path class="st1" d="M350.6,177.4l-25.9-0.1v-4.4c-4.5-2.4-8-6.6-9.1-12c-1.6-7.1,1.4-14.2,7-18.2c0.6-0.5,1.3-0.8,2.1-1
		c2.6-0.6,5.1,1.1,5.7,3.6c0.4,1.9-0.4,3.7-1.8,4.8c0,0-0.2,0.2-0.3,0.2c-2.7,1.9-4.1,5.2-3.3,8.5c1,4.5,5.4,7.3,9.8,6.3
		c4.5-1,7.3-5.4,6.3-9.8c-0.7-3.4-3.4-5.8-6.6-6.4c-0.1,0-0.4-0.1-0.4-0.1c-1.8-0.4-3.3-1.7-3.7-3.6c-0.6-2.6,1.1-5.1,3.6-5.7
		c0.9-0.2,1.7-0.1,2.3,0c3.8,0.8,7.3,2.7,9.8,5.6h13.1"/>
	<path class="st2" d="M350.6,177.4l-25.9-0.1v-4.4c-4.5-2.4-8-6.6-9.1-12c-1.6-7.1,1.4-14.2,7-18.2c0.6-0.5,1.3-0.8,2.1-1
		c2.6-0.6,5.1,1.1,5.7,3.6c0.4,1.9-0.4,3.7-1.8,4.8c0,0-0.2,0.2-0.3,0.2c-2.7,1.9-4.1,5.2-3.3,8.5c1,4.5,5.4,7.3,9.8,6.3
		c4.5-1,7.3-5.4,6.3-9.8c-0.7-3.4-3.4-5.8-6.6-6.4c-0.1,0-0.4-0.1-0.4-0.1c-1.8-0.4-3.3-1.7-3.7-3.6c-0.6-2.6,1.1-5.1,3.6-5.7
		c0.9-0.2,1.7-0.1,2.3,0c3.8,0.8,7.3,2.7,9.8,5.6h13.1"/>
	<path class="st1" d="M355.7,133.8V130c0.1-2.6-1.9-4.8-4.5-4.9s-4.8,1.9-4.9,4.5v27.6"/>
	<path class="st2" d="M355.7,133.8V130c0.1-2.6-1.9-4.8-4.5-4.9s-4.8,1.9-4.9,4.5v27.6"/>
	<path class="st1" d="M361.2,134.3c0.1-2.6-1.9-4.8-4.5-4.9s-4.8,1.9-4.9,4.5v23.4"/>
	<path class="st2" d="M361.2,134.3c0.1-2.6-1.9-4.8-4.5-4.9s-4.8,1.9-4.9,4.5v23.4"/>
	<path class="st3" d="M268,340l50.3-40l-12.1-60c-2.1-13-14.3-21.9-27.4-19.8c-8.1,1.3-13.1,5-16.6,11.8
		C245.6,264.2,268,340,268,340L268,340z M247,223.1c-5.1,0-9.2-4.1-9.2-9.2l0,0c0-5.1,4.1-9.2,9.2-9.2l0,0c5.1,0,9.2,4.1,9.2,9.2
		S252.1,223.1,247,223.1L247,223.1L247,223.1z"/>
	<path class="st3" d="M277.2,235.2c-17.9,0-32.4-14.5-32.4-32.4s14.5-32.4,32.4-32.4s32.4,14.5,32.4,32.4
		C309.7,220.7,295.1,235.2,277.2,235.2z"/>
	<path d="M278.6,191.4c-1,0-1.9-0.9-1.9-1.9s0.9-1.9,1.9-1.9s1.9,0.9,1.9,1.9S279.7,191.4,278.6,191.4z M291.2,186.3
		c-1,0-1.9-0.9-1.9-1.9s0.9-1.9,1.9-1.9s1.9,0.9,1.9,1.9S292.3,186.3,291.2,186.3z M296.6,197.9c1.4,3.7,0.6,9.8-3.1,11.2
		s-9-2.4-10.4-6.1l-1.2-3.1l13.5-5.1L296.6,197.9z"/>
	<path class="st1" d="M284.7,205.5c-2.8,0-5-2.2-5-5s2.2-5,5-5l0,0c2.8,0,5,2.3,5,5C289.7,203.3,287.5,205.5,284.7,205.5z"/>
	<path class="st2" d="M297.7,199.8c1.4,3.7-0.5,7.9-4.2,9.3c-3.7,1.4-7.9-0.5-9.3-4.2l-2.3-5l13.5-5.1L297.7,199.8z"/>
	<path class="st3" d="M460.7,508.2H287.9V362.7h50.7L460.7,508.2L460.7,508.2z"/>
	<path d="M223.3,343.2c19.9,0,38.2-11.4,47.1-29.6c12.3-25.3,15.3-60.8,15.6-64.7c1-12.4-8.3-23.2-20.7-24.2
		c-12.4-0.9-23.2,8.3-24.2,20.7c-0.7,8.4-4,33.6-11.2,48.5c-2,4.1-5.6,4.4-7,4.4c-2-0.1-5.8-1.2-8-7c-0.9-2.6-7.3-22.6-11.7-36.2
		c-3.8-11.8-16.4-18.4-28.3-14.6c-11.8,3.8-18.4,16.4-14.6,28.3c4.1,13,11.2,35.1,12.3,38c7.9,21.4,26.3,35.4,48,36.5
		C221.6,343.2,222.5,343.2,223.3,343.2L223.3,343.2z"/>
	<path class="st1" d="M338.7,362.7l122,145.5h127.5c0,0,7.2-27.8-26.3-39.8c-10.2-3.7-51.3-19.9-64.5-30.5
		c-4.8-3.9-76.2-69.1-76.2-69.1"/>
	<path class="st2" d="M338.7,362.7l122,145.5h127.5c0,0,7.2-27.8-26.3-39.8c-10.2-3.7-51.3-19.9-64.5-30.5
		c-4.8-3.9-76.2-69.1-76.2-69.1 M184,238.7l-7.2,2.4"/>
	<path class="st1" d="M202.2,239.7l-3,0.9l-1.7-5.3"/>
	<path class="st2" d="M202.2,239.7l-3,0.9l-1.7-5.3"/>
	<path class="st1" d="M152.6,238.7l9.6,29.8l39.4-12.8L200,251l3-1c5.3-1.7,8.1-7.3,6.4-12.6l-2.8-8.4c-1-3-4.3-4.6-7.4-3.3
		c-2.6,1.2-3.8,4.2-2.9,6.9"/>
	<path class="st1" d="M152.6,238.7l9.6,29.8l39.4-12.8L200,251l3-1c5.3-1.7,8.1-7.3,6.4-12.6l-2.8-8.4c-1-3-4.3-4.6-7.4-3.3
		c-2.6,1.2-3.8,4.2-2.9,6.9"/>
	<path class="st2" d="M152.6,238.7l9.6,29.8l39.4-12.8L200,251l3-1c5.3-1.7,8.1-7.3,6.4-12.6l-2.8-8.4c-1-3-4.3-4.6-7.4-3.3
		c-2.6,1.2-3.8,4.2-2.9,6.9"/>
	<path class="st3" d="M192.2,219.2l5.3,16.1c0.9,2.9-0.6,6-3.5,6.9s-6-0.6-6.9-3.5l-5.3-16.1L192.2,219.2z"/>
	<path class="st3" d="M181.8,222.6l5.3,16.1c0.9,2.9-0.6,6-3.5,6.9s-6-0.6-6.9-3.5l-5.3-16.1L181.8,222.6z"/>
	<path class="st3" d="M171.5,226l5.3,16.1c0.9,2.9-0.6,6-3.5,6.9s-6-0.6-6.9-3.5l-5.3-16.1L171.5,226L171.5,226z"/>
	<path class="st3" d="M161,229.3l5.3,16.1c0.9,2.9-0.6,6-3.5,6.9s-6-0.6-6.9-3.5l-5.3-16.1L161,229.3L161,229.3z"/>
	<path class="st19" d="M202.5,214.4l5.8,17.9l28.5-4.5l-8.5-26.2L202.5,214.4L202.5,214.4z"/>
	<path class="st2" d="M203.4,218l5.9,17.9l28.5-4.7l-8.6-26.1L203.4,218L203.4,218z"/>
	<path class="st3" d="M204.7,221.6l3.5,10.6l-7.8,2.6l-3.5-10.6L204.7,221.6z"/>
	<path class="st1" d="M372.6,333.2l-34,29.4l80,95c0,0,11.2-6.9,11.2-26.2c0-24.7-14.6-41.1-11-54.3c0.6-2.1,25.5-74.7-20-97.1
		c-42.7-21-115.2,40-130.8,60c0,0,2.4,11.3,12.8,18.3c6.4,4.3,12,4,17.8,4.3s39.9,0,39.9,0"/>
	<path class="st2" d="M372.6,333.2l-34,29.4l80,95c0,0,11.2-6.9,11.2-26.2c0-24.7-14.6-41.1-11-54.3c0.6-2.1,25.5-74.7-20-97.1
		c-42.7-21-115.2,40-130.8,60c0,0,2.4,11.3,12.8,18.3c6.4,4.3,12,4,17.8,4.3s39.9,0,39.9,0"/>
	<path class="st1" d="M338.1,177.4l28.5,0.1v-38.7c0.1-2.6-1.9-4.8-4.5-4.9s-4.8,1.9-4.9,4.5v19"/>
	<path class="st5" d="M338.1,177.4l28.5,0.1v-38.7c0.1-2.6-1.9-4.8-4.5-4.9s-4.8,1.9-4.9,4.5v19 M206.6,190.5h-72.7
		c-16.9,0-30.5,12.5-30.5,29.3c0,20.8,20.3,35.5,40,29l11.4-3.7"/>
	<path class="st2" d="M287.9,367.8c-17.8,30.4-52.5,50.9-90.3,50.9c-56.6,0-105.9-45.9-105.9-102.6c0-53.2,40.3-100.1,92.5-102.4
		c4.7-0.2,3.4-0.1,5.4-0.3c8-0.5,15.6-2.4,15.8-13.4c0.4-32.6,28.5-32.6,36.6-32.6h23.4l1.8,4.5c0,0,9.6,25.7-23.6,33.3"/>
</g>
</svg>
