<svg xmlns="http://www.w3.org/2000/svg" width="161" height="161" fill="none" viewBox="0 0 161 161">
    <path fill="#000" d="M104.35 155.657c-.128-.257-.128-.513-.192-.769-6.208-26.375-7.424-47.117-7.424-47.501-1.472-12.675-12.928-21.702-25.6-20.23-12.672 1.473-21.696 12.932-20.224 25.608.192 1.6-17.728 45.132 8 45.132 1.408.064 48.768 3.905 45.44-2.24z"/>
    <path fill="#fff" d="M18.782 157.961l5.696-47.245c.384-17.22 14.656-30.92 31.936-30.6 10.752.192 17.856 4.097 23.616 12.291 11.776 16.709 9.6 42.956 2.176 67.475"/>
    <path stroke="#000" stroke-miterlimit="10" stroke-width="3" d="M18.782 157.961l5.696-47.245c.384-17.22 14.656-30.92 31.936-30.6 10.752.192 17.856 4.097 23.616 12.291 11.776 16.709 9.6 42.956 2.176 67.475"/>
    <path fill="#fff" stroke="#000" stroke-miterlimit="10" stroke-width="3" d="M46.814 59.118c0-5.186-4.224-9.41-9.408-9.41-5.184 0-9.408 4.224-9.408 9.41 0 5.185 4.224 9.41 9.408 9.41a9.384 9.384 0 0 0 9.408-9.41z"/>
    <path stroke="#000" stroke-miterlimit="10" stroke-width="3" d="M41.758 62.062c-.128 1.473-.128 2.945-.064 4.481"/>
    <path fill="#fff" stroke="#000" stroke-miterlimit="10" stroke-width="3" d="M102.878 65.391c3.52-17.86-8.128-35.21-25.984-38.73-17.92-3.521-35.264 8.066-38.784 25.927-3.52 17.86 8.128 35.21 25.984 38.73 17.856 3.522 35.2-8.066 38.784-25.927z"/>
    <path stroke="#000" stroke-miterlimit="10" stroke-width="3" d="M95.71 41.833a7.036 7.036 0 0 0 5.696 7.298c3.264.64 6.656-1.216 7.872-4.289a7.117 7.117 0 0 0-1.344-7.362c-.128-.192 0-.448.256-.384.96.32 2.048.448 3.264.32 2.368-.32 4.544-1.856 5.504-4.033a7.095 7.095 0 0 0-4.544-9.73c-2.496-.705-5.056.063-6.784 1.728-.192.192-.448 0-.32-.256.512-1.345.768-2.881.64-4.546-.32-4.16-3.008-7.874-6.848-9.41-5.504-2.177-11.392.32-13.888 5.25-9.024-1.089-16.384 3.264-19.392 9.858"/>
    <path fill="#000" stroke="#000" stroke-miterlimit="10" stroke-width="2" d="M54.878 63.087c0-.32-.256-.64-.64-.64s-.64.256-.64.64.256.64.64.64.64-.32.64-.64zM57.822 66.096c0-.32-.256-.64-.64-.64a.641.641 0 0 0 0 1.28c.32-.064.64-.32.64-.64zM48.926 63.023c0-.32-.256-.64-.64-.64a.641.641 0 0 0 0 1.28c.384 0 .64-.256.64-.64zM54.814 69.169c0-.32-.256-.64-.64-.64a.641.641 0 0 0 0 1.28c.384 0 .64-.32.64-.64zM51.87 66.031c0-.32-.256-.64-.64-.64-.32 0-.64.256-.64.64 0 .385.256.64.64.64s.64-.32.64-.64z"/>
    <path fill="#000" d="M68.254 53.677c.256-1.345-.576-2.625-1.92-2.881-1.344-.256-2.624.576-2.88 1.92-.256 1.345.576 2.625 1.92 2.881 1.344.256 2.624-.576 2.88-1.92zM88.03 53.677c.256-1.345-.576-2.625-1.92-2.881-1.344-.256-2.624.576-2.88 1.92-.256 1.345.576 2.625 1.92 2.881 1.344.256 2.624-.576 2.88-1.92zM15.07 141.893c-1.344 0 .64-2.945-.704-3.137-14.528-2.177-12.416 4.481-10.24-10.051l4.608-30.6c2.176-14.532 15.744-24.583 30.272-22.407 14.528 2.177 24.576 15.749 22.4 30.281l-7.36 49.037c-2.048 13.188-26.048-13.123-38.976-13.123z"/>
    <path fill="#fff" d="M69.534 63.92c0 3.264 2.688 5.889 5.952 5.889s5.952-2.56 5.952-5.89"/>
    <path stroke="#000" stroke-miterlimit="10" stroke-width="3" d="M69.534 63.92c0 3.264 2.688 5.889 5.952 5.889s5.952-2.56 5.952-5.89"/>
    <path fill="#fff" d="M.478.286V160.33h160V.286h-160zm80 159.276c-43.712 0-79.168-35.53-79.168-79.254 0-43.724 35.456-79.19 79.168-79.19s79.232 35.466 79.232 79.19-35.52 79.254-79.232 79.254z"/>
    <path stroke="#86ED18" stroke-miterlimit="10" stroke-width="3" d="M104.478 155.785c-7.552 2.432-15.616 3.713-24 3.713-43.648 0-78.976-35.338-78.976-78.998 0-43.66 35.328-78.998 78.976-78.998 43.648 0 78.976 35.338 78.976 78.998"/>
    <path stroke="#86ED18" stroke-linejoin="round" stroke-miterlimit="10" stroke-width="3" d="M134.878 100.538h-28.096M159.455 77.747v16.645a7.867 7.867 0 0 1-7.872 7.874 7.867 7.867 0 0 1-7.872-7.874V87.35c0-6.274-5.12-11.395-11.392-11.395-6.272 0-11.392 5.121-11.392 11.395v.896"/>
    <path stroke="#86ED18" stroke-linejoin="round" stroke-miterlimit="10" stroke-width="3" d="M110.302 88.246c-1.92 0-3.52 1.6-3.52 3.521v24.583c0 6.786 5.504 12.291 12.288 12.291h3.52c6.784 0 12.288-5.505 12.288-12.291V91.767c0-1.92-1.6-3.52-3.52-3.52h-21.056zM120.798 88.246v12.292"/>
</svg>
