<?xml version="1.0" encoding="utf-8"?>
<!-- Generator: Adobe Illustrator 24.0.3, SVG Export Plug-In . SVG Version: 6.00 Build 0)  -->
<svg version="1.1" id="Ebene_1" xmlns="http://www.w3.org/2000/svg" xmlns:xlink="http://www.w3.org/1999/xlink" x="0px" y="0px"
	 viewBox="0 0 161 161" style="enable-background:new 0 0 161 161;" xml:space="preserve">
<style type="text/css">
	.st0{fill:#FFFFFF;}
	.st1{fill:none;stroke:#000000;stroke-width:3;stroke-miterlimit:10;}
	.st2{fill:#FFFFFF;stroke:#000000;stroke-width:3;stroke-miterlimit:10;}
	.st3{fill:none;stroke:#86ED18;stroke-width:3;stroke-miterlimit:10;}
	.st4{fill:none;stroke:#86ED18;stroke-width:3;stroke-linejoin:round;stroke-miterlimit:10;}
	.st5{fill:#FFFFFF;stroke:#86ED18;stroke-width:3;stroke-linejoin:round;stroke-miterlimit:10;}
</style>
<path class="st0" d="M28.1,139.6l0.1-24.6c-1.6-17.1,11-32.4,28.1-34.1c10.7-1,18.2,2,24.9,9.5c14,15.7,14.6,43.1,9.5,69"/>
<path class="st1" d="M28.1,139.6l0.1-24.6c-1.6-17.1,11-32.4,28.1-34.1c10.7-1,18.2,2,24.9,9.5c14,15.7,14.6,43.1,9.5,69"/>
<path class="st2" d="M36.7,45.1c-4.4,17.9,6.5,36.1,24.5,40.6c18,4.5,36.1-6.5,40.6-24.4c1.4-5.7,1.3-11.5-0.2-16.8
	c1.4-2.1,2.5-4.5,3.1-7c2.9-11.9-4.3-24-16.3-26.9c-9.5-2.4-19.1,1.8-24.1,9.6C51.3,22,40.1,31.6,36.7,45.1z"/>
<path class="st1" d="M46.9,59.1c0-5.2-4.2-9.4-9.4-9.4c-5.2,0-9.4,4.2-9.4,9.4c0,5.2,4.2,9.4,9.4,9.4C42.6,68.5,46.8,64.3,46.9,59.1
	C46.9,59.1,46.9,59.1,46.9,59.1z"/>
<path class="st2" d="M46.6,61.8c1.3-5.1-1.9-10.2-7-11.5c-5.1-1.3-10.2,1.9-11.5,6.9c-1.3,5.1,1.9,10.2,7,11.5
	C40.1,70,45.3,66.9,46.6,61.8z"/>
<path class="st2" d="M103,66.8C107.4,49,96.5,31,78.6,26.6C60.7,22.2,42.7,33,38.3,50.8c-4.4,17.8,6.5,35.8,24.3,40.2
	C80.5,95.5,98.5,84.7,103,66.8z"/>
<path d="M68.3,53.6c0.3-1.3-0.6-2.6-1.9-2.9c-1.3-0.3-2.6,0.6-2.9,1.9c-0.3,1.3,0.6,2.6,1.9,2.9C66.7,55.8,68,55,68.3,53.6z
	 M88,53.6c0.3-1.3-0.6-2.6-1.9-2.9s-2.6,0.6-2.9,1.9c-0.3,1.3,0.6,2.6,1.9,2.9C86.5,55.8,87.8,55,88,53.6z M42.4,149.8
	c-1.3,0.2-19.8-13.9-21.3-17.1l-0.8-23.5C20.6,94.4,32.7,82.7,47.4,83c14.7,0.3,26.4,12.3,26.2,27.1v49.5
	C73.6,159.5,54.6,156,42.4,149.8z"/>
<path class="st0" d="M69.6,63.9c0,3.3,2.7,5.9,5.9,5.9s5.9-2.6,5.9-5.9"/>
<path class="st1" d="M69.6,63.9c0,3.3,2.7,5.9,5.9,5.9s5.9-2.6,5.9-5.9 M58.6,28.6c0.8,2.8,0.9,5.7,0.1,8.7
	c-2.2,9.1-11.5,14.6-20.6,12.3"/>
<path class="st3" d="M92,158.6c-3.8,0.6-7.6,0.8-11.5,0.8c-43.6,0-79-35.4-79-79c0-43.6,35.4-79,79-79s79,35.4,79,79
	c0,14.5-3.9,28.1-10.7,39.8"/>
<path class="st0" d="M148.8,120.9V87.8c0-1.2-0.9-2.2-2.1-2.2c0,0,0,0,0,0H98.2c-1.2,0-2.2,1-2.2,2.2v33.1"/>
<path class="st4" d="M148.8,120.9V87.8c0-1.2-0.9-2.2-2.1-2.2c0,0,0,0,0,0H98.2c-1.2,0-2.2,1-2.2,2.2v33.1"/>
<path class="st5" d="M148.8,120.9H95.9l-6.6,19.8v4.4c0,1.2,1,2.2,2.2,2.2h61.7c1.2,0,2.2-0.9,2.2-2.1c0,0,0,0,0,0v-4.4L148.8,120.9
	z"/>
<path class="st4" d="M102.5,131.9h39.7 M89.3,140.7h66.1 M142.2,91.8h-39.7v23.4h39.7V91.8z"/>
</svg>
