<svg width="20" height="20" viewBox="0 0 20 20" fill="none" xmlns="http://www.w3.org/2000/svg">
<path d="M9.99213 0.104736C3.33048 0.104736 0 3.40327 0 10.0001C0 16.597 3.33048 19.8953 9.99213 19.8953C16.664 19.8953 20 16.597 20 10.0001C20 3.40327 16.664 0.104736 9.99213 0.104736ZM15.8298 16.022C14.6058 17.2943 12.6602 17.9306 9.99213 17.9306C7.34515 17.9306 5.40691 17.2946 4.17785 16.022C2.9488 14.7499 2.33427 12.7425 2.33427 10.0001C2.33427 7.25755 2.9488 5.25009 4.17785 3.97799C5.40691 2.70565 7.34515 2.06937 9.99213 2.06937C12.6602 2.06937 14.6058 2.70565 15.8298 3.97799C17.0535 5.25009 17.6655 7.25755 17.6655 10.0001C17.6655 12.7425 17.0535 14.7497 15.8298 16.022Z" fill="black"/>
<path d="M13.3344 6.49602C12.8632 6.02476 12.0994 6.02476 11.6281 6.49602C11.1569 6.96727 11.1569 7.73109 11.6281 8.20234L12.1989 8.77312H4.78918C4.17743 8.77312 3.68164 9.31335 3.68164 9.97972C3.68164 10.6461 4.17743 11.1863 4.78918 11.1863H12.2396L11.6284 11.7976C11.1571 12.2689 11.1571 13.0327 11.6284 13.5039C12.0996 13.9752 12.8634 13.9752 13.3347 13.5039L15.9652 10.8734C16.2059 10.6327 16.3228 10.3158 16.3177 10.0003C16.3177 9.99338 16.3187 9.98667 16.3187 9.97972C16.3187 9.54666 16.1085 9.16776 15.7937 8.95505L13.3344 6.49602Z" fill="black"/>
</svg>
