<svg width="70" height="70" viewBox="0 0 70 70" fill="none" xmlns="http://www.w3.org/2000/svg">
<path fill-rule="evenodd" clip-rule="evenodd" d="M5 12H6H39C42.866 12 46 15.134 46 19V52.817H53H54V53.817V59.9998C54 63.4583 51.0838 66.2007 47.6317 65.9885L18.9386 64.224L18.94 64.1802C13.997 64.1479 10 60.131 10 55.1804V24.4997H1H0V23.4997V18.0454C0 15.0724 2.16229 12.6044 5 12.1284V12ZM12 18.0454V23.4543V23.4988V23.4997V24.4997V55.1804C12 59.0464 15.134 62.1804 19 62.1804H19.7792C23.2464 61.7741 26 58.6888 26 54.8624C26 54.548 25.9813 54.2387 25.9451 53.9355L25.8117 52.817H26.9381H44V19C44 16.2386 41.7614 14 39 14H10.4319C11.4059 15.0667 12 16.4862 12 18.0446V18.0454ZM10 18.0454C10 15.8363 8.20914 14.0454 6 14.0454C3.79086 14.0454 2 15.8363 2 18.0454V22.4997H10V18.0454ZM27.9999 54.817L28 54.8624C28 58.0213 26.4872 60.8409 24.1542 62.5409L47.7545 63.9922C50.0558 64.1338 52 62.3055 52 59.9998V54.817H27.9999Z" fill="white"/>
<path d="M34 37.6641C34 39.0705 33.2948 40.09 31.8844 40.7225C32.4076 41.0871 32.8057 41.5224 33.0787 42.0284C33.3517 42.5344 33.4882 43.1595 33.4882 43.9036C33.4882 45.1537 32.9953 46.1471 32.0095 46.8838C31.0237 47.6279 29.6664 48 27.9374 48C27.0882 48 26.2806 47.8958 25.5147 47.6875C24.7564 47.4791 24.1118 47.1629 23.581 46.7387C22.527 45.8979 22 44.7147 22 43.1892L24.1156 43.1669C24.1156 44.1343 24.4569 44.897 25.1393 45.4551C25.8218 46.0206 26.7545 46.3034 27.9374 46.3034C28.9687 46.3034 29.7991 46.0839 30.4284 45.6448C31.0578 45.2133 31.3725 44.6403 31.3725 43.9259C31.3725 43.2637 31.1033 42.739 30.5649 42.3521C30.0265 41.9577 28.9649 41.5298 27.3801 41.0685C26 40.7113 24.946 40.3281 24.218 39.9188C23.49 39.5021 22.9479 39.0073 22.5915 38.4343C22.2427 37.8539 22.0682 37.1507 22.0682 36.3247C22.0682 34.9406 22.7583 33.9212 24.1384 33.2664C23.6379 32.9017 23.2512 32.4664 22.9782 31.9604C22.7128 31.4544 22.5801 30.8294 22.5801 30.0852C22.5801 28.85 23.0844 27.8603 24.0929 27.1162C25.109 26.3721 26.4588 26 28.1422 26C29.9014 26 31.2739 26.4204 32.2597 27.2613C33.2455 28.1021 33.7384 29.2853 33.7384 30.8108H31.6341C31.6341 29.8806 31.3156 29.129 30.6787 28.5561C30.0417 27.9756 29.1962 27.6854 28.1422 27.6854C27.0654 27.6854 26.2199 27.9012 25.6057 28.3328C24.9991 28.757 24.6957 29.3337 24.6957 30.0629C24.6957 30.5764 24.8019 30.9819 25.0142 31.2796C25.2265 31.5772 25.5867 31.8488 26.0948 32.0944C26.6104 32.3325 27.4104 32.6004 28.4948 32.898C29.5867 33.1957 30.4512 33.4784 31.0882 33.7463C31.7327 34.0142 32.2673 34.3305 32.6919 34.6951C33.1242 35.0523 33.4502 35.4727 33.6701 35.9564C33.89 36.4326 34 37.0019 34 37.6641ZM27.8237 34.762C27.1412 34.5835 26.5156 34.3937 25.9469 34.1928C25.3403 34.3342 24.8929 34.5946 24.6047 34.9741C24.3242 35.3462 24.1839 35.7889 24.1839 36.3024C24.1839 36.8233 24.2863 37.2325 24.491 37.5302C24.6957 37.8278 25.0483 38.0994 25.5488 38.345C26.0569 38.5906 26.8493 38.8659 27.9261 39.171C29.0028 39.4761 29.7081 39.6919 30.0417 39.8184C30.6332 39.6695 31.0882 39.4091 31.4066 39.037C31.7251 38.6575 31.8844 38.2111 31.8844 37.6976C31.8844 37.0428 31.619 36.5145 31.0882 36.1126C30.5649 35.7034 29.4768 35.2532 27.8237 34.762Z" fill="white"/>
<path fill-rule="evenodd" clip-rule="evenodd" d="M42 3C37.5817 3 34 6.58172 34 11V21C34 25.0796 37.0537 28.446 41 28.9381V38.1053L50.1053 29H62C66.4183 29 70 25.4183 70 21V11C70 6.58172 66.4183 3 62 3H42Z" fill="#86EC16"/>
<path d="M54.6511 20.7534C55.457 20.0157 56.4095 19.3518 57.1421 18.4666C58.6074 17.065 60.2924 15.8109 60.3657 13.5979C60.4389 11.3111 58.7539 9.31932 56.4827 9.02425C54.7244 8.87671 52.7463 10.2045 51.7206 11.6061C50.6949 10.1308 48.7168 8.80294 46.8853 9.02425C44.6141 9.31932 42.929 11.3111 43.0023 13.5979C43.0756 15.8109 44.8339 16.9912 46.2259 18.3928C47.9109 20.0157 49.6692 21.5649 51.3543 23.1878C51.4276 23.3353 51.5741 23.4091 51.7206 23.4091C51.7206 23.4091 51.7939 23.4091 51.8671 23.3353L52.0137 23.1878L54.6511 20.7534Z" fill="black"/>
</svg>
