<svg width="16" height="11" viewBox="0 0 16 11" fill="none" xmlns="http://www.w3.org/2000/svg">
<path d="M1.23067 0C1.06731 0 0.911514 0.0324515 0.769133 0.0897442L7.63457 6.20518C7.87388 6.41858 8.13942 6.41835 8.37817 6.20518L15.2308 0.0897442C15.0884 0.0324515 14.9326 0 14.7692 0H1.23067V0ZM0.0127181 1.05769C0.00492317 1.11377 0 1.1725 0 1.23078V9.43597C0 9.6043 0.035508 9.76446 0.0961648 9.91033L4.83337 5.35902L0.0128206 1.05769H0.0127181ZM15.9872 1.05769L11.1795 5.35262L15.9103 9.90392C15.969 9.76004 16 9.60145 16 9.43597V1.23078C16 1.1725 15.9949 1.11377 15.9873 1.05769H15.9872ZM10.2564 6.17954L9.19869 7.12826C8.52627 7.72872 7.48639 7.72771 6.81405 7.12826L5.75634 6.18594L1.08965 10.6603C1.13525 10.6655 1.18368 10.6667 1.23067 10.6667H14.7692C14.814 10.6667 14.8603 10.6646 14.9038 10.6603L10.2564 6.17954V6.17954Z" fill="black"/>
</svg>
