<svg width="70" height="70" viewBox="0 0 70 70" fill="none" xmlns="http://www.w3.org/2000/svg">
<rect x="10" y="1" width="50" height="68" rx="4" stroke="black" stroke-width="2"/>
<circle cx="35" cy="57" r="3" stroke="black" stroke-width="2"/>
<circle cx="25" cy="57" r="1" stroke="black" stroke-width="2"/>
<circle cx="45" cy="57" r="1" stroke="black" stroke-width="2"/>
<path fill-rule="evenodd" clip-rule="evenodd" d="M35.5 46C45.165 46 53 38.165 53 28.5C53 18.835 45.165 11 35.5 11C25.835 11 18 18.835 18 28.5C18 38.165 25.835 46 35.5 46ZM45.8025 32.9872C44.8809 37.5581 40.8424 41 36 41C31.1576 41 27.1191 37.5581 26.1975 32.9872C25.9791 31.9045 26.8954 31 28 31H44C45.1046 31 46.0209 31.9045 45.8025 32.9872ZM30.5 25C31.3284 25 32 24.3284 32 23.5C32 22.6716 31.3284 22 30.5 22C29.6716 22 29 22.6716 29 23.5C29 24.3284 29.6716 25 30.5 25ZM30.5 27C32.433 27 34 25.433 34 23.5C34 21.567 32.433 20 30.5 20C28.567 20 27 21.567 27 23.5C27 25.433 28.567 27 30.5 27ZM42 23.5C42 24.3284 41.3284 25 40.5 25C39.6716 25 39 24.3284 39 23.5C39 22.6716 39.6716 22 40.5 22C41.3284 22 42 22.6716 42 23.5ZM44 23.5C44 25.433 42.433 27 40.5 27C38.567 27 37 25.433 37 23.5C37 21.567 38.567 20 40.5 20C42.433 20 44 21.567 44 23.5Z" fill="#86EC16"/>
</svg>
