<svg width="50" height="50" viewBox="0 0 50 50" fill="none" xmlns="http://www.w3.org/2000/svg">
<path d="M2 15.7257V38.9945H24.1508M40.3938 22.9975V15.7257M40.3943 7H2.00057V15.7262H40.3943V7Z" stroke="#202020" stroke-width="2" stroke-miterlimit="10" stroke-linecap="round" stroke-linejoin="round"/>
<path d="M6.42826 10.136C5.75243 10.137 5.19165 10.6788 5.19165 11.3632C5.19165 12.0483 5.7535 12.5904 6.4302 12.5904C7.1069 12.5904 7.66875 12.0483 7.66876 11.3632L7.66873 11.3593C7.66748 11.1974 7.63435 11.0374 7.57124 10.8883L7.11079 11.0832L7.57124 10.8883C7.50812 10.7392 7.41626 10.6039 7.30089 10.4904C7.18552 10.3768 7.0489 10.287 6.89884 10.2262C6.74938 10.1657 6.5895 10.135 6.42826 10.136ZM6.42826 10.136C6.42891 10.136 6.42955 10.136 6.4302 10.136V10.636L6.42631 10.136C6.42696 10.136 6.42761 10.136 6.42826 10.136ZM11.5964 10.136C10.9206 10.137 10.3598 10.6788 10.3598 11.3632C10.3598 12.0483 10.9216 12.5904 11.5983 12.5904C12.2742 12.5904 12.8369 12.0485 12.8369 11.3632L12.8369 11.3593C12.8356 11.1974 12.8025 11.0374 12.7394 10.8883C12.6763 10.7392 12.5844 10.604 12.469 10.4904C12.3537 10.3768 12.217 10.287 12.067 10.2262C11.9175 10.1657 11.7576 10.135 11.5964 10.136ZM11.5964 10.136C11.597 10.136 11.5977 10.136 11.5983 10.136V10.636L11.5944 10.136C11.5951 10.136 11.5958 10.136 11.5964 10.136ZM16.7651 10.136C16.0893 10.137 15.5285 10.6788 15.5285 11.3632C15.5285 12.0483 16.0903 12.5904 16.767 12.5904C17.4437 12.5904 18.0056 12.0483 18.0056 11.3632L18.0056 11.3593C18.0043 11.1974 17.9712 11.0374 17.9081 10.8883C17.845 10.7392 17.7531 10.6039 17.6377 10.4904L17.2869 10.8466L17.6377 10.4904C17.5224 10.3768 17.3857 10.287 17.2357 10.2262L17.0479 10.6896L17.2357 10.2262C17.0862 10.1657 16.9263 10.135 16.7651 10.136ZM16.7651 10.136C16.7658 10.136 16.7664 10.136 16.767 10.136V10.636L16.7632 10.136C16.7638 10.136 16.7645 10.136 16.7651 10.136Z" fill="black" stroke="black" stroke-miterlimit="10" stroke-linecap="round" stroke-linejoin="round"/>
<path fill-rule="evenodd" clip-rule="evenodd" d="M36 46C43.1797 46 49 40.1797 49 33C49 25.8203 43.1797 20 36 20C28.8203 20 23 25.8203 23 33C23 40.1797 28.8203 46 36 46ZM41.6285 26.8784C40.9856 26.2842 39.9098 26.4067 39.4421 27.1272L37.6635 29.8671C37.3336 30.3754 37.4203 31.0259 37.8737 31.445L38.9642 32.4529C38.3972 33.1088 37.7461 33.7899 37.0033 34.4764C36.331 35.0979 35.6689 35.6449 35.0313 36.1242L33.9213 35.0982C33.4678 34.6791 32.764 34.599 32.2142 34.904L29.2499 36.5479C28.4703 36.9802 28.3379 37.9746 28.9807 38.5688L29.4938 39.043L30.2044 39.6999L30.2049 39.7003L30.398 39.8788C31.0382 40.4705 32.016 40.6152 32.7773 40.1623C34.1804 39.3273 36.2807 37.8843 38.4855 35.8464C40.7979 33.709 42.3654 31.5066 43.2129 30.0638C43.5956 29.4124 43.4502 28.6306 42.9235 28.0806C42.9009 28.0562 42.8771 28.0325 42.8522 28.0095L42.8356 27.9941L42.1415 27.3526L41.6285 26.8784Z" fill="#86EC16"/>
</svg>
