<svg width="52" height="51" viewBox="0 0 52 51" fill="none" xmlns="http://www.w3.org/2000/svg">
<path fill-rule="evenodd" clip-rule="evenodd" d="M49.2191 51.0001H51.2196C50.9614 41.3754 48.4436 32.8248 39.693 29.021L38.8957 30.8552C46.5148 34.1671 48.9611 41.6211 49.2191 51.0001ZM2.78181 51.0001H0.78125C1.04393 41.3967 3.59574 32.8421 12.3043 29.0223L13.1077 30.8539C5.52145 34.1813 3.04421 41.6489 2.78181 51.0001Z" fill="black"/>
<path d="M23.4366 18.1875C23.4366 19.7917 22.1346 21.0938 20.5265 21.0938C18.9184 21.0938 17.6165 19.7917 17.6165 18.1875C17.6165 16.5833 18.9184 15.2812 20.5265 15.2812C22.1346 15.2812 23.4366 16.5833 23.4366 18.1875Z" stroke="black" stroke-width="2"/>
<path d="M34.3846 18.1875C34.3846 19.7917 33.0826 21.0938 31.4745 21.0938C29.8664 21.0938 28.5645 19.7917 28.5645 18.1875C28.5645 16.5833 29.8664 15.2812 31.4745 15.2812C33.0826 15.2812 34.3846 16.5833 34.3846 18.1875Z" stroke="black" stroke-width="2"/>
<path d="M50.2429 21.3125C50.2429 25.6272 45.1777 29.125 40.8588 29.125L41.9759 21.3125L40.8588 13.5C45.1777 13.5 50.2429 16.9978 50.2429 21.3125Z" fill="#86EC16"/>
<path d="M1.75781 21.3125C1.75781 25.6272 6.82302 29.125 11.1419 29.125L10.0248 21.3125L11.1419 13.5C6.82302 13.5 1.75781 16.9978 1.75781 21.3125Z" fill="#86EC16"/>
<path d="M42.4228 17.4063V17.4063C42.4228 9.20828 35.7771 2.5625 27.5791 2.5625H24.4221C16.2241 2.5625 9.57837 9.20828 9.57837 17.4063V17.4063" stroke="#86EC16" stroke-width="4"/>
<path d="M41.4228 21.3125C41.4228 29.8202 34.519 36.7188 26.0006 36.7188C17.4822 36.7188 10.5784 29.8202 10.5784 21.3125C10.5784 12.8048 17.4822 5.90625 26.0006 5.90625C34.519 5.90625 41.4228 12.8048 41.4228 21.3125Z" stroke="black" stroke-width="2"/>
<path d="M31.8657 28.3438C35.7758 28.474 43.5959 27.5625 43.5959 22.875" stroke="#86EC16" stroke-width="2"/>
<rect x="24.4365" y="26" width="9.38413" height="4.6875" rx="2.34375" fill="#86EC16"/>
</svg>
