<svg width="50" height="50" viewBox="0 0 50 50" fill="none" xmlns="http://www.w3.org/2000/svg">
<path d="M13.244 35.8893C7.43391 30.161 4.8286 24.6373 4.25221 22.5915L3.03757 23.7891C1.99198 24.82 1.67161 26.3713 2.37722 27.6525C3.86043 30.3456 6.60349 34.4569 10.6502 38.4466C14.5085 42.2506 18.1841 44.9444 20.6396 46.5029C21.9718 47.3484 23.6831 47.0782 24.8034 45.9737L26.3858 44.4136C24.426 43.9589 19.054 41.6176 13.244 35.8893Z" fill="#86EC16"/>
<path d="M5.15 21.7064C6.27496 20.5972 8.15761 20.8257 8.97613 22.1708L12.0887 27.2853C12.666 28.234 12.5144 29.4483 11.7209 30.2306L9.57941 32.342C8.45445 33.4511 6.57181 33.2226 5.75328 31.8776L2.64076 26.763C2.06343 25.8143 2.21506 24.6 3.00852 23.8177L5.15 21.7064Z" fill="#86EC16"/>
<path d="M27.2835 43.5284C28.4085 42.4193 28.1767 40.5631 26.8125 39.7561L21.625 36.6874C20.6627 36.1182 19.4311 36.2677 18.6376 37.05L16.4961 39.1613C15.3712 40.2705 15.603 42.1266 16.9672 42.9336L22.1547 46.0023C23.1169 46.5715 24.3486 46.422 25.1421 45.6398L27.2835 43.5284Z" fill="#86EC16"/>
<rect x="21" y="5" width="6" height="6" rx="3" stroke="black" stroke-width="2"/>
<rect x="21" y="15" width="6" height="6" rx="3" stroke="black" stroke-width="2"/>
<rect x="21" y="25" width="6" height="6" rx="3" stroke="black" stroke-width="2"/>
<rect x="31" y="5" width="6" height="6" rx="3" stroke="black" stroke-width="2"/>
<rect x="31" y="15" width="6" height="6" rx="3" stroke="black" stroke-width="2"/>
<rect x="31" y="25" width="6" height="6" rx="3" stroke="black" stroke-width="2"/>
<rect x="41" y="5" width="6" height="6" rx="3" stroke="black" stroke-width="2"/>
<rect x="41" y="15" width="6" height="6" rx="3" stroke="black" stroke-width="2"/>
<rect x="41" y="25" width="6" height="6" rx="3" stroke="black" stroke-width="2"/>
</svg>
