<svg width="50" height="50" viewBox="0 0 50 50" fill="none" xmlns="http://www.w3.org/2000/svg">
<path d="M19.411 43.6621C9.22369 43.6621 1 35.4745 1 25.3313C1 15.1881 9.22369 7 19.4115 7C22.0076 7 24.5046 7.54437 26.723 8.5M37.3034 26.4295C37.299 27.9699 37.0579 29.5199 36.5 31C36.1692 31.914 35.7401 32.7879 35.2209 33.6067" stroke="#202020" stroke-width="2" stroke-miterlimit="10" stroke-linecap="round"/>
<path d="M19.4108 43.6618C28.9237 43.6618 33.4041 37.9794 29.6604 34.2522M29.9061 30.2191C30.397 30.525 31.1948 31.0134 31.0108 32.0524C30.8879 32.7855 29.3535 35.7184 26.0394 35.7184C22.7254 35.7184 18.6747 33.152 15.1155 29.5472C11.5557 26.0029 8.97778 21.9703 8.97778 18.6708C8.97778 15.3713 11.9238 13.8434 12.6604 13.7216C13.7034 13.5992 14.1336 14.3323 14.5017 14.8212C14.8086 15.3101 16.7111 18.1819 17.0179 18.6096C17.3248 19.0374 17.6317 20.137 16.5265 20.9925C15.4835 21.848 14.3177 22.3369 18.3067 26.3088C22.3573 30.3414 22.7866 29.1806 23.646 28.0804C24.505 27.0419 25.6097 27.3473 26.0394 27.5915C26.5308 28.0193 29.4768 29.9132 29.9061 30.2191Z" stroke="#202020" stroke-width="2" stroke-miterlimit="10"/>
<path fill-rule="evenodd" clip-rule="evenodd" d="M38.3745 7.01378C38.4141 7.00591 38.4437 7 38.4616 7H39.2064C39.6855 7 39.8981 7 40.2707 7.10609C41.7607 7.31783 42.9311 7.95348 43.9424 8.96C44.5807 9.64913 45.1129 10.3904 45.4324 11.2383C45.6985 11.98 45.8581 12.6687 45.8581 13.5165C45.8581 13.9935 45.8581 14.0465 45.9111 14.0465C45.9111 14.0465 46.0707 14.0996 46.1772 14.0996C47.5607 14.3643 48.7846 15.3709 49.3698 16.6952C49.9555 18.1787 49.7424 19.8213 48.7316 21.0926C48.572 21.3578 48.1994 21.7287 47.9333 21.8874C47.4011 22.3113 46.869 22.5235 46.1772 22.6822L45.9111 22.7352H38.4995V16.4389L40.2878 18.2531C40.6756 18.6464 41.3087 18.6509 41.702 18.2632C42.0953 17.8755 42.0999 17.2424 41.7122 16.849L38.2117 13.298C38.0237 13.1073 37.7672 13 37.4994 13C37.2317 13 36.9752 13.1074 36.7872 13.2981L33.2877 16.8491C32.9001 17.2425 32.9047 17.8757 33.2981 18.2633C33.6915 18.651 34.3246 18.6463 34.7123 18.253L36.4995 16.4394V22.7352C29.2929 22.735 28.8513 22.7306 28.4349 22.6258C28.377 22.6113 28.3196 22.5948 28.2446 22.5761C26.8611 22.2052 25.6372 21.1987 25.052 19.8743C24.4133 18.3909 24.5198 16.6426 25.4242 15.2648C25.9564 14.4704 26.7016 13.8343 27.4994 13.4635L27.7124 13.3578V13.0926C28.032 12.1391 28.6703 11.2917 29.4685 10.7613C30.0537 10.3909 30.5859 10.1787 31.2246 10.1787C31.7706 10.1281 32.3204 10.2194 32.8207 10.4439C32.9807 10.4965 33.0872 10.5496 33.0872 10.5496C33.1245 10.5496 33.1623 10.4964 33.238 10.3898C33.269 10.3461 33.3065 10.2934 33.3529 10.2317C34.4172 8.53652 36.1733 7.37087 38.0355 7.05304C38.1774 7.05304 38.2956 7.0295 38.3745 7.01378Z" fill="#86EC16"/>
</svg>
