<svg width="50" height="50" viewBox="0 0 50 50" fill="none" xmlns="http://www.w3.org/2000/svg">
<circle cx="25" cy="25" r="13" stroke="black" stroke-width="2"/>
<line x1="25" y1="13" x2="25" y2="5" stroke="black" stroke-width="2"/>
<line x1="25" y1="45" x2="25" y2="37" stroke="black" stroke-width="2"/>
<line x1="13" y1="25" x2="5" y2="25" stroke="black" stroke-width="2"/>
<line x1="45" y1="25" x2="37" y2="25" stroke="black" stroke-width="2"/>
<path d="M23.8387 26.3253C16.6879 19.2751 13.4814 12.4767 12.7719 9.95881L11.277 11.4327C9.99013 12.7015 9.59583 14.6109 10.4643 16.1877C12.2898 19.5023 15.6658 24.5623 20.6464 29.4727C25.3951 34.1546 29.9189 37.47 32.941 39.3882C34.5806 40.4288 36.6868 40.0963 38.0657 38.7368L40.0132 36.8167C37.6012 36.2572 30.9896 33.3755 23.8387 26.3253Z" fill="#86EC16"/>
<path d="M13.8769 8.86938C15.2615 7.5043 17.5786 7.78554 18.586 9.44094L22.4168 15.7358C23.1274 16.9034 22.9407 18.3979 21.9642 19.3608L19.3285 21.9593C17.9439 23.3244 15.6268 23.0432 14.6194 21.3878L10.7886 15.0929C10.0781 13.9253 10.2647 12.4308 11.2413 11.468L13.8769 8.86938Z" fill="#86EC16"/>
<path d="M41.1182 35.7273C42.5028 34.3622 42.2175 32.0777 40.5385 31.0845L34.1538 27.3076C32.9695 26.607 31.4536 26.791 30.4771 27.7538L27.8414 30.3524C26.4568 31.7175 26.7421 34.002 28.4211 34.9952L34.8058 38.7721C35.9901 39.4727 37.506 39.2887 38.4825 38.3258L41.1182 35.7273Z" fill="#86EC16"/>
<path d="M26.5 17.1404L26.6864 16.1579L26.5 17.1404ZM32.9846 24.5L33.9827 24.4384L32.9846 24.5ZM25 18C25.4498 18 25.8889 18.0423 26.3136 18.1229L26.6864 16.1579C26.1394 16.0542 25.5755 16 25 16V18ZM26.3136 18.1229C29.4121 18.7106 31.7881 21.3432 31.9865 24.5616L33.9827 24.4384C33.7273 20.2958 30.6722 16.914 26.6864 16.1579L26.3136 18.1229ZM31.9865 24.5616C31.9955 24.7064 32 24.8526 32 25H34C34 24.8115 33.9942 24.6243 33.9827 24.4384L31.9865 24.5616Z" fill="black"/>
</svg>
