<svg width="50" height="50" viewBox="0 0 50 50" fill="none" xmlns="http://www.w3.org/2000/svg">
<rect x="3" y="29" width="18" height="18" rx="3" stroke="black" stroke-width="2"/>
<rect x="3" y="3" width="18" height="18" rx="3" stroke="black" stroke-width="2"/>
<rect x="29" y="3" width="18" height="18" rx="3" stroke="black" stroke-width="2"/>
<path fill-rule="evenodd" clip-rule="evenodd" d="M32 28C29.7909 28 28 29.7909 28 32V44C28 46.2091 29.7909 48 32 48H44C46.2091 48 48 46.2091 48 44V32C48 29.7909 46.2091 28 44 28H32ZM37 44V39H32V37H37V32H39V37H44V39H39V44H37Z" fill="#86EC16"/>
</svg>
