<svg width="50" height="50" viewBox="0 0 50 50" fill="none" xmlns="http://www.w3.org/2000/svg">
<path fill-rule="evenodd" clip-rule="evenodd" d="M17.3485 19H20.6662C21.1769 19 21.5913 19.414 21.5913 19.925V30.0667C21.5913 30.5777 21.1769 30.9917 20.6662 30.9917H17.3485C14.7547 30.9917 12.6444 28.8812 12.6444 26.2871H7V23.7047H12.6444C12.6444 21.1105 14.7547 19 17.3485 19ZM32.2873 19C34.8811 19 36.9914 21.1105 36.9914 23.7047H42.6358V26.2871H36.9914C36.9914 28.8812 34.8811 30.9917 32.2873 30.9917H28.9696C28.4589 30.9917 28.0445 30.5777 28.0445 30.0667V28.2052H24.3113V26.3551H28.0445V23.4575H24.3113V21.6074H28.0445V19.925C28.0445 19.414 28.4589 19 28.9696 19H32.2873Z" fill="#86EC16"/>
<mask id="path-2-inside-1" fill="white">
<path fill-rule="evenodd" clip-rule="evenodd" d="M16.0359 43.0903C16.0473 41.5442 14.375 40.5704 13.036 41.3435L9.9659 43.116C9.00931 43.6683 7.78613 43.3405 7.23385 42.384L0.739027 31.1346C0.186743 30.178 0.514493 28.9548 1.47108 28.4026L4.5372 26.6323C5.87621 25.8593 5.86908 23.9241 4.52442 23.1609L1.56924 21.4836C0.598632 20.9327 0.266686 19.6941 0.831751 18.7316L7.51878 7.34229C8.07224 6.39962 9.28002 6.07596 10.2307 6.61554L13.3171 8.36728C14.6447 9.12079 16.293 8.16914 16.3042 6.64264L16.3304 3.09481C16.3384 2.0017 17.2226 1.11757 18.3157 1.10959L31.5227 1.01313C32.6387 1.00498 33.5455 1.9118 33.5372 3.02781L33.5122 6.42421C33.5008 7.97032 35.1732 8.94407 36.5122 8.17099L39.5759 6.40212C40.5325 5.84984 41.7557 6.17759 42.308 7.13418L48.8028 18.3835C49.3551 19.3401 49.0273 20.5633 48.0708 21.1156L45.0025 22.8871C43.6635 23.6601 43.6706 25.5953 45.0152 26.3585L47.9711 28.0362C48.9417 28.587 49.2737 29.8257 48.7086 30.7881L42.0216 42.1775C41.4681 43.1202 40.2603 43.4438 39.3097 42.9043L36.231 41.1569C34.9034 40.4034 33.2551 41.355 33.2438 42.8815L33.2178 46.4232C33.2097 47.5163 32.3255 48.4004 31.2324 48.4084L18.0254 48.5049C16.9094 48.513 16.0027 47.6062 16.0109 46.4902L16.0359 43.0903Z"/>
</mask>
<path d="M33.2178 46.4232L35.2177 46.4379L33.2178 46.4232ZM36.231 41.1569L35.2438 42.8963L36.231 41.1569ZM42.0216 42.1775L43.7463 43.1901L42.0216 42.1775ZM39.3097 42.9043L40.2969 41.1649L39.3097 42.9043ZM47.9711 28.0362L46.9839 29.7755L47.9711 28.0362ZM48.8028 18.3835L47.0708 19.3835L48.8028 18.3835ZM48.0708 21.1156L49.0708 22.8476L48.0708 21.1156ZM39.5759 6.40212L38.5759 4.67007L39.5759 6.40212ZM42.308 7.13418L44.04 6.13417L42.308 7.13418ZM33.5122 6.42421L35.5122 6.43894L33.5122 6.42421ZM36.5122 8.17099L37.5122 9.90304L36.5122 8.17099ZM31.5227 1.01313L31.5373 3.01308L31.5227 1.01313ZM16.3304 3.09481L14.3304 3.08008L16.3304 3.09481ZM18.3157 1.10959L18.3303 3.10954L18.3157 1.10959ZM13.3171 8.36728L12.3299 10.1067L13.3171 8.36728ZM7.51878 7.34229L9.24348 8.35491L7.51878 7.34229ZM10.2307 6.61554L11.2179 4.87617L10.2307 6.61554ZM1.56924 21.4836L0.582022 23.223L1.56924 21.4836ZM0.831751 18.7316L2.55646 19.7443L0.831751 18.7316ZM4.5372 26.6323L5.5372 28.3644L4.5372 26.6323ZM4.52442 23.1609L5.51163 21.4215L4.52442 23.1609ZM1.47108 28.4026L0.471079 26.6705L1.47108 28.4026ZM16.0359 43.0903L18.0359 43.105L16.0359 43.0903ZM10.9659 44.8481L14.036 43.0756L12.036 39.6115L8.9659 41.384L10.9659 44.8481ZM-0.993024 32.1346L5.50179 43.384L8.9659 41.384L2.47108 30.1346L-0.993024 32.1346ZM3.5372 24.9003L0.471079 26.6705L2.47108 30.1346L5.5372 28.3644L3.5372 24.9003ZM5.51163 21.4215L2.55646 19.7443L0.582022 23.223L3.5372 24.9003L5.51163 21.4215ZM2.55646 19.7443L9.24348 8.35491L5.79408 6.32966L-0.89295 17.719L2.55646 19.7443ZM9.24348 8.35491L12.3299 10.1067L14.3043 6.62791L11.2179 4.87617L9.24348 8.35491ZM14.3304 3.08008L14.3043 6.62791L18.3042 6.65737L18.3303 3.10953L14.3304 3.08008ZM31.5081 -0.986813L18.3011 -0.890358L18.3303 3.10954L31.5373 3.01308L31.5081 -0.986813ZM35.5122 6.43894L35.5372 3.04254L31.5373 3.01308L31.5123 6.40948L35.5122 6.43894ZM38.5759 4.67007L35.5122 6.43894L37.5122 9.90304L40.5759 8.13417L38.5759 4.67007ZM50.5349 17.3835L44.04 6.13417L40.5759 8.13418L47.0708 19.3835L50.5349 17.3835ZM46.0025 24.6191L49.0708 22.8476L47.0708 19.3835L44.0025 21.155L46.0025 24.6191ZM48.9583 26.2968L46.0025 24.6191L44.028 28.0979L46.9839 29.7755L48.9583 26.2968ZM43.7463 43.1901L50.4333 31.8008L46.9839 29.7755L40.2969 41.1649L43.7463 43.1901ZM35.2438 42.8963L38.3224 44.6436L40.2969 41.1649L37.2182 39.4175L35.2438 42.8963ZM35.2177 46.4379L35.2438 42.8963L31.2439 42.8668L31.2178 46.4085L35.2177 46.4379ZM18.04 50.5048L31.247 50.4083L31.2178 46.4085L18.0108 46.5049L18.04 50.5048ZM14.036 43.0756L14.0109 46.4754L18.0108 46.5049L18.0359 43.105L14.036 43.0756ZM18.0108 46.5049L18.0108 46.5049L14.0109 46.4754C13.9945 48.7075 15.808 50.5211 18.04 50.5048L18.0108 46.5049ZM31.2178 46.4085L31.2178 46.4085L31.247 50.4083C33.4332 50.3924 35.2016 48.6241 35.2177 46.4379L31.2178 46.4085ZM37.2182 39.4175C34.563 37.9105 31.2664 39.8138 31.2439 42.8668L35.2438 42.8963L35.2438 42.8963L37.2182 39.4175ZM40.2969 41.1649L40.2969 41.1649L38.3224 44.6436C40.2238 45.7228 42.6394 45.0754 43.7463 43.1901L40.2969 41.1649ZM46.9839 29.7755L46.9839 29.7755L50.4333 31.8008C51.5634 29.8759 50.8995 27.3986 48.9583 26.2968L46.9839 29.7755ZM44.0025 21.155C41.3244 22.7012 41.3387 26.5715 44.028 28.0979L46.0025 24.6191L46.0025 24.6191L44.0025 21.155ZM47.0708 19.3835L49.0708 22.8476C50.9839 21.7431 51.6394 19.2967 50.5349 17.3835L47.0708 19.3835ZM40.5759 8.13417L40.5759 8.13418L44.04 6.13417C42.9355 4.22101 40.4891 3.5655 38.5759 4.67007L40.5759 8.13417ZM31.5123 6.40948C31.4895 9.5017 34.8341 11.4492 37.5122 9.90304L35.5122 6.43894L31.5123 6.40948ZM31.5373 3.01308L35.5372 3.04254C35.5536 0.810514 33.7401 -1.00311 31.5081 -0.986813L31.5373 3.01308ZM18.3303 3.10953L18.3303 3.10954L18.3011 -0.890358C16.1149 -0.874391 14.3465 0.893878 14.3304 3.08008L18.3303 3.10953ZM12.3299 10.1067C14.9851 11.6137 18.2817 9.71036 18.3042 6.65737L14.3043 6.62791L12.3299 10.1067ZM9.24348 8.35491L11.2179 4.87617C9.31655 3.79701 6.90101 4.44434 5.79408 6.32966L9.24348 8.35491ZM2.55646 19.7443L-0.89295 17.719C-2.02308 19.6439 -1.35919 22.1212 0.582022 23.223L2.55646 19.7443ZM5.5372 28.3644C8.21522 26.8182 8.20097 22.9479 5.51163 21.4215L3.5372 24.9003L5.5372 28.3644ZM2.47108 30.1346L2.47108 30.1346L0.471079 26.6705C-1.44209 27.7751 -2.0976 30.2214 -0.993024 32.1346L2.47108 30.1346ZM14.036 43.0756L14.036 43.0756L18.0359 43.105C18.0586 40.0128 14.714 38.0653 12.036 39.6115L14.036 43.0756ZM8.9659 41.384L8.9659 41.384L5.50179 43.384C6.60636 45.2971 9.05273 45.9526 10.9659 44.8481L8.9659 41.384Z" fill="white" mask="url(#path-2-inside-1)"/>
</svg>
