<svg width="52" height="52" viewBox="0 0 52 52" fill="none" xmlns="http://www.w3.org/2000/svg">
<path d="M30.091 50.0909H47.0001C49.2092 50.0909 51.0001 48.3001 51.0001 46.0909V5C51.0001 2.79086 49.2092 1 47.0001 1H5.90918C3.70004 1 1.90918 2.79086 1.90918 4.99999V21.9091" stroke="black" stroke-width="2"/>
<line x1="25.7475" y1="26.6564" x2="42.4609" y2="9.94299" stroke="black" stroke-width="2"/>
<path d="M28.8181 10.0908H42.4545V23.7272" stroke="black" stroke-width="2"/>
<path fill-rule="evenodd" clip-rule="evenodd" d="M1 35C1 32.7909 2.79086 31 5 31H17C19.2091 31 21 32.7909 21 35V47C21 49.2091 19.2091 51 17 51H5C2.79086 51 1 49.2091 1 47V35ZM4.63636 34.6364H6.45455V36.4545H4.63636V34.6364ZM6.45455 38.2727H4.63636V40.0909H6.45455V38.2727ZM4.63636 41.9091H6.45455V43.7273H4.63636V41.9091ZM6.45455 45.5455H4.63636V47.3636H6.45455V45.5455ZM8.27273 34.6364H10.0909V36.4545H8.27273V34.6364ZM10.0909 38.2727H8.27273V40.0909H10.0909V38.2727ZM8.27273 41.9091H10.0909V43.7273H8.27273V41.9091ZM10.0909 45.5455H8.27273V47.3636H10.0909V45.5455ZM11.9091 34.6364H13.7273V36.4545H11.9091V34.6364ZM13.7273 38.2727H11.9091V40.0909H13.7273V38.2727ZM11.9091 41.9091H13.7273V43.7273H11.9091V41.9091ZM13.7273 45.5455H11.9091V47.3636H13.7273V45.5455ZM15.5455 34.6364H17.3636V36.4545H15.5455V34.6364ZM17.3636 38.2727H15.5455V40.0909H17.3636V38.2727ZM15.5455 41.9091H17.3636V43.7273H15.5455V41.9091ZM17.3636 45.5455H15.5455V47.3636H17.3636V45.5455Z" fill="#86EC16"/>
</svg>
