<svg width="50" height="50" viewBox="0 0 50 50" fill="none" xmlns="http://www.w3.org/2000/svg">
<path fill-rule="evenodd" clip-rule="evenodd" d="M17.3485 19H20.6662C21.1769 19 21.5913 19.414 21.5913 19.925V30.0667C21.5913 30.5777 21.1769 30.9917 20.6662 30.9917H17.3485C14.7547 30.9917 12.6444 28.8812 12.6444 26.2871H7V23.7047H12.6444C12.6444 21.1105 14.7547 19 17.3485 19ZM32.2873 19C34.8811 19 36.9914 21.1105 36.9914 23.7047H42.6358V26.2871H36.9914C36.9914 28.8812 34.8811 30.9917 32.2873 30.9917H28.9696C28.4589 30.9917 28.0445 30.5777 28.0445 30.0667V28.2052H24.3113V26.3551H28.0445V23.4575H24.3113V21.6074H28.0445V19.925C28.0445 19.414 28.4589 19 28.9696 19H32.2873Z" fill="#86EC16"/>
<mask id="path-2-inside-1" fill="white">
<path fill-rule="evenodd" clip-rule="evenodd" d="M16.0349 43.0903C16.0463 41.5442 14.374 40.5704 13.035 41.3435L9.96492 43.116C9.00834 43.6683 7.78515 43.3405 7.23287 42.384L0.738051 31.1346C0.185766 30.178 0.513516 28.9548 1.4701 28.4026L4.53622 26.6323C5.87523 25.8593 5.86811 23.9241 4.52344 23.1609L1.56826 21.4836C0.597655 20.9327 0.265709 19.6941 0.830775 18.7316L7.5178 7.34229C8.07127 6.39962 9.27904 6.07596 10.2297 6.61554L13.3161 8.36728C14.6437 9.12079 16.292 8.16914 16.3033 6.64264L16.3294 3.09481C16.3374 2.0017 17.2216 1.11757 18.3147 1.10959L31.5217 1.01313C32.6377 1.00498 33.5445 1.9118 33.5363 3.02781L33.5112 6.42421C33.4999 7.97032 35.1722 8.94407 36.5112 8.17099L39.575 6.40212C40.5316 5.84984 41.7547 6.17759 42.307 7.13418L48.8018 18.3835C49.3541 19.3401 49.0264 20.5633 48.0698 21.1156L45.0015 22.8871C43.6625 23.6601 43.6696 25.5953 45.0143 26.3585L47.9701 28.0362C48.9407 28.587 49.2727 29.8257 48.7076 30.7881L42.0206 42.1775C41.4671 43.1202 40.2594 43.4438 39.3087 42.9043L36.23 41.1569C34.9024 40.4034 33.2541 41.355 33.2429 42.8815L33.2168 46.4232C33.2087 47.5163 32.3245 48.4004 31.2314 48.4084L18.0245 48.5049C16.9084 48.513 16.0017 47.6062 16.0099 46.4902L16.0349 43.0903Z"/>
</mask>
<path d="M16.0099 46.4902L14.01 46.4754L16.0099 46.4902ZM33.2168 46.4232L35.2167 46.4379L33.2168 46.4232ZM39.3087 42.9043L38.3215 44.6436L39.3087 42.9043ZM47.9701 28.0362L48.9574 26.2968L47.9701 28.0362ZM45.0015 22.8871L44.0015 21.155L45.0015 22.8871ZM45.0143 26.3585L44.0271 28.0979L45.0143 26.3585ZM48.8018 18.3835L47.0698 19.3835L48.8018 18.3835ZM48.0698 21.1156L49.0698 22.8476L48.0698 21.1156ZM39.575 6.40212L40.575 8.13417L39.575 6.40212ZM42.307 7.13418L44.0391 6.13417L42.307 7.13418ZM33.5112 6.42421L31.5113 6.40948L33.5112 6.42421ZM31.5217 1.01313L31.5363 3.01308L31.5217 1.01313ZM33.5363 3.02781L35.5362 3.04254L33.5363 3.02781ZM18.3147 1.10959L18.3293 3.10954L18.3147 1.10959ZM13.3161 8.36728L12.3289 10.1067L13.3161 8.36728ZM16.3033 6.64264L18.3032 6.65737L16.3033 6.64264ZM7.5178 7.34229L9.2425 8.35491L7.5178 7.34229ZM10.2297 6.61554L11.2169 4.87617L10.2297 6.61554ZM1.56826 21.4836L0.581046 23.223L1.56826 21.4836ZM0.830775 18.7316L-0.893927 17.719L0.830775 18.7316ZM4.53622 26.6323L5.53622 28.3644L4.53622 26.6323ZM1.4701 28.4026L0.470102 26.6705L1.4701 28.4026ZM13.035 41.3435L14.035 43.0756L13.035 41.3435ZM9.96492 43.116L10.9649 44.8481L9.96492 43.116ZM10.9649 44.8481L14.035 43.0756L12.035 39.6115L8.96492 41.384L10.9649 44.8481ZM-0.994001 32.1346L5.50082 43.384L8.96492 41.384L2.4701 30.1346L-0.994001 32.1346ZM3.53622 24.9003L0.470102 26.6705L2.4701 30.1346L5.53622 28.3644L3.53622 24.9003ZM5.51066 21.4215L2.55548 19.7443L0.581046 23.223L3.53622 24.9003L5.51066 21.4215ZM2.55548 19.7443L9.2425 8.35491L5.7931 6.32966L-0.893927 17.719L2.55548 19.7443ZM9.2425 8.35491L12.3289 10.1067L14.3033 6.62791L11.2169 4.87617L9.2425 8.35491ZM14.3294 3.08008L14.3033 6.62791L18.3032 6.65737L18.3293 3.10953L14.3294 3.08008ZM31.5071 -0.986813L18.3001 -0.890358L18.3293 3.10954L31.5363 3.01308L31.5071 -0.986813ZM35.5112 6.43894L35.5362 3.04254L31.5363 3.01308L31.5113 6.40948L35.5112 6.43894ZM38.575 4.67007L35.5112 6.43894L37.5112 9.90304L40.575 8.13417L38.575 4.67007ZM50.5339 17.3835L44.0391 6.13417L40.575 8.13418L47.0698 19.3835L50.5339 17.3835ZM46.0015 24.6191L49.0698 22.8476L47.0698 19.3835L44.0015 21.155L46.0015 24.6191ZM48.9574 26.2968L46.0015 24.6191L44.0271 28.0979L46.9829 29.7755L48.9574 26.2968ZM43.7453 43.1901L50.4323 31.8008L46.9829 29.7755L40.2959 41.1649L43.7453 43.1901ZM35.2428 42.8963L38.3215 44.6436L40.2959 41.1649L37.2172 39.4175L35.2428 42.8963ZM35.2167 46.4379L35.2428 42.8963L31.2429 42.8668L31.2168 46.4085L35.2167 46.4379ZM18.0391 50.5048L31.246 50.4083L31.2168 46.4085L18.0099 46.5049L18.0391 50.5048ZM14.035 43.0756L14.01 46.4754L18.0099 46.5049L18.0349 43.105L14.035 43.0756ZM18.0099 46.5049L18.0099 46.5049L14.01 46.4754C13.9935 48.7075 15.807 50.5211 18.0391 50.5048L18.0099 46.5049ZM31.2168 46.4085L31.2168 46.4085L31.246 50.4083C33.4322 50.3924 35.2006 48.6241 35.2167 46.4379L31.2168 46.4085ZM37.2172 39.4175C34.562 37.9105 31.2654 39.8138 31.2429 42.8668L35.2428 42.8963L35.2428 42.8963L37.2172 39.4175ZM40.2959 41.1649L40.2959 41.1649L38.3215 44.6436C40.2228 45.7228 42.6384 45.0754 43.7453 43.1901L40.2959 41.1649ZM46.9829 29.7755L46.9829 29.7755L50.4323 31.8008C51.5625 29.8759 50.8986 27.3986 48.9574 26.2968L46.9829 29.7755ZM44.0015 21.155C41.3235 22.7012 41.3377 26.5715 44.0271 28.0979L46.0015 24.6191L46.0015 24.6191L44.0015 21.155ZM47.0698 19.3835L49.0698 22.8476C50.983 21.7431 51.6385 19.2967 50.5339 17.3835L47.0698 19.3835ZM40.575 8.13417L40.575 8.13418L44.0391 6.13417C42.9345 4.22101 40.4881 3.5655 38.575 4.67007L40.575 8.13417ZM31.5113 6.40948C31.4885 9.5017 34.8332 11.4492 37.5112 9.90304L35.5112 6.43894L31.5113 6.40948ZM31.5363 3.01308L35.5362 3.04254C35.5527 0.810514 33.7391 -1.00311 31.5071 -0.986813L31.5363 3.01308ZM18.3293 3.10953L18.3293 3.10954L18.3001 -0.890358C16.1139 -0.874391 14.3456 0.893878 14.3294 3.08008L18.3293 3.10953ZM12.3289 10.1067C14.9841 11.6137 18.2807 9.71036 18.3032 6.65737L14.3033 6.62791L12.3289 10.1067ZM9.2425 8.35491L11.2169 4.87617C9.31558 3.79701 6.90003 4.44434 5.7931 6.32966L9.2425 8.35491ZM2.55548 19.7443L-0.893927 17.719C-2.02406 19.6439 -1.36017 22.1212 0.581046 23.223L2.55548 19.7443ZM5.53622 28.3644C8.21424 26.8182 8.19999 22.9479 5.51066 21.4215L3.53622 24.9003L5.53622 28.3644ZM2.4701 30.1346L2.4701 30.1346L0.470102 26.6705C-1.44307 27.7751 -2.09857 30.2214 -0.994001 32.1346L2.4701 30.1346ZM14.035 43.0756L14.035 43.0756L18.0349 43.105C18.0577 40.0128 14.713 38.0653 12.035 39.6115L14.035 43.0756ZM8.96492 41.384L8.96492 41.384L5.50082 43.384C6.60539 45.2971 9.05175 45.9526 10.9649 44.8481L8.96492 41.384Z" fill="black" mask="url(#path-2-inside-1)"/>
</svg>
