<svg width="51" height="50" viewBox="0 0 51 50" fill="none" xmlns="http://www.w3.org/2000/svg">
<path d="M50.3843 29.3125C50.3843 33.6272 46.3191 37.125 42.0001 37.125L43.1173 29.3125L42.0001 21.5C46.3191 21.5 50.3843 24.9978 50.3843 29.3125Z" fill="#86EC16"/>
<path d="M0 29.3125C0 33.6272 4.0652 37.125 8.38413 37.125L7.26697 29.3125L8.38413 21.5C4.0652 21.5 0 24.9978 0 29.3125Z" fill="#86EC16"/>
<rect x="8" y="13" width="34" height="28" rx="3" stroke="black" stroke-width="2"/>
<path d="M45 25V16C45 12.6863 42.3137 10 39 10H11C7.68629 10 5 12.6863 5 16V25" stroke="#86EC16" stroke-width="4"/>
<path d="M18 28C18 31.9861 21.1644 35 25 35C28.8356 35 32 31.7917 32 28" stroke="black" stroke-width="2" stroke-miterlimit="10" stroke-linejoin="round"/>
<circle cx="18" cy="22" r="2" stroke="black" stroke-width="2"/>
<circle cx="32" cy="22" r="2" stroke="black" stroke-width="2"/>
<path d="M31 33.9894C35.3333 34.1082 44 33.2766 44 29" stroke="#86EC16" stroke-width="2"/>
<rect x="23" y="31" width="10" height="6" rx="3" fill="#86EC16"/>
</svg>
