<svg width="50" height="50" viewBox="0 0 50 50" fill="none" xmlns="http://www.w3.org/2000/svg">
<path d="M38.4994 31.4283L37.6316 30.9314L37.2517 31.5948L37.7923 32.1354L38.4994 31.4283ZM31.4283 38.4994L32.1354 37.7923L31.5948 37.2517L30.9314 37.6316L31.4283 38.4994ZM39.8641 46.9351L39.157 47.6422L39.157 47.6422L39.8641 46.9351ZM40 22C40 25.2523 39.1384 28.3003 37.6316 30.9314L39.3672 31.9253C41.0426 28.9996 42 25.6101 42 22H40ZM22 4C31.9411 4 40 12.0589 40 22H42C42 10.9543 33.0457 2 22 2V4ZM4 22C4 12.0589 12.0589 4 22 4V2C10.9543 2 2 10.9543 2 22H4ZM22 40C12.0589 40 4 31.9411 4 22H2C2 33.0457 10.9543 42 22 42V40ZM30.9314 37.6316C28.3003 39.1384 25.2523 40 22 40V42C25.6101 42 28.9996 41.0426 31.9253 39.3672L30.9314 37.6316ZM40.5712 46.228L32.1354 37.7923L30.7212 39.2065L39.157 47.6422L40.5712 46.228ZM44.8138 46.228C43.6423 47.3996 41.7428 47.3996 40.5712 46.228L39.157 47.6422C41.1096 49.5949 44.2754 49.5949 46.228 47.6422L44.8138 46.228ZM46.228 44.8138L44.8138 46.228L46.228 47.6422L47.6423 46.228L46.228 44.8138ZM46.2281 40.5712C47.3996 41.7427 47.3996 43.6422 46.228 44.8138L47.6423 46.228C49.5949 44.2754 49.5949 41.1096 47.6423 39.157L46.2281 40.5712ZM37.7923 32.1354L46.2281 40.5712L47.6423 39.157L39.2065 30.7212L37.7923 32.1354Z" fill="black"/>
<circle cx="22" cy="22" r="13" fill="#86EC16"/>
<path d="M25.576 25.5332C25.4425 25.4152 25.2349 25.4152 25.1162 25.5479C24.419 26.2413 23.529 26.6101 22.6391 26.6101C21.3337 26.6101 20.0878 25.8135 19.3758 24.5005H22.7577C22.9506 24.5005 23.0989 24.353 23.0989 24.1612V23.0105C23.0989 22.8188 22.9506 22.6712 22.7577 22.6712H18.7824C18.7528 22.4499 18.7528 22.2287 18.7528 22.0221C18.7528 21.8156 18.7676 21.5943 18.7973 21.3583H22.7577C22.9506 21.3583 23.0989 21.2107 23.0989 21.019V19.8683C23.0989 19.6765 22.9506 19.529 22.7577 19.529H19.3758C20.0878 18.2308 21.3189 17.4194 22.6391 17.4194C23.5439 17.4194 24.419 17.803 25.1162 18.4963C25.2497 18.6291 25.4574 18.6291 25.576 18.5111L26.8665 17.3309C26.9407 17.2719 26.9703 17.1834 26.9852 17.0801C26.9852 16.9916 26.9555 16.9031 26.8962 16.8293C25.7244 15.6491 24.2262 15 22.6539 15C20.0581 15 17.6996 16.8145 16.7651 19.5142H15.3412C15.1483 19.5142 15 19.6617 15 19.8535V21.0042C15 21.196 15.1483 21.3435 15.3412 21.3435H16.3795C16.3646 21.5796 16.3498 21.8008 16.3498 22.0074C16.3498 22.2139 16.3646 22.4352 16.3795 22.6565H15.3412C15.1483 22.6565 15 22.804 15 22.9958V24.1465C15 24.3383 15.1483 24.4858 15.3412 24.4858H16.7651C17.6996 27.1855 20.0581 29 22.6539 29C24.2262 29 25.7392 28.3509 26.8962 27.1707C26.9555 27.1117 27 27.0232 27 26.9199C27 26.8314 26.9555 26.7429 26.8813 26.6691L25.576 25.5332Z" fill="black"/>
</svg>
