<svg width="50" height="50" viewBox="0 0 50 50" fill="none" xmlns="http://www.w3.org/2000/svg">
<path d="M27 18V8C27 6.89543 26.1046 6 25 6H21C19.8954 6 19 6.89543 19 8V18" stroke="black" stroke-width="2"/>
<path d="M37.5855 13.5541C37.3985 13.7405 37.25 13.962 37.1483 14.2059C37.0467 14.4499 36.994 14.7115 36.9932 14.9759C36.9924 15.2404 37.0435 15.5023 37.1436 15.7469C37.2437 15.9915 37.3909 16.2139 37.5767 16.4015C37.7625 16.589 37.9833 16.738 38.2265 16.84C38.4697 16.9419 38.7306 16.9948 38.9941 16.9956C39.5265 16.9972 40.0377 16.7867 40.4152 16.4103C40.5913 16.2144 40.7328 15.9899 40.8337 15.7463C40.9359 15.5044 40.99 15.2449 40.9932 14.9822C40.9856 14.4503 40.7794 13.9407 40.4152 13.5541C40.031 13.1952 39.5254 12.9956 39.0003 12.9956C38.4753 12.9956 37.9697 13.1952 37.5855 13.5541V13.5541Z" fill="#86EC16"/>
<path d="M37.584 7.55726C37.212 7.93985 37.0039 8.45243 37.0039 8.98604C37.0039 9.51965 37.212 10.0322 37.584 10.4148C37.9619 10.7888 38.4722 10.9985 39.0039 10.9985C39.5356 10.9985 40.0458 10.7888 40.4238 10.4148C40.6005 10.2189 40.7425 9.99422 40.8437 9.75056C40.9463 9.50855 41.0007 9.24887 41.0039 8.98605C40.9963 8.45396 40.7893 7.94409 40.4239 7.55726C40.0383 7.19817 39.5309 6.99854 39.0039 6.99854C38.477 6.99854 37.9696 7.19817 37.584 7.55726V7.55726Z" fill="#86EC16"/>
<path d="M45.0014 8C45.5314 7.99148 46.0387 7.78298 46.4215 7.41628C46.5982 7.2203 46.7402 6.99566 46.8415 6.752C46.944 6.50998 46.9983 6.2503 47.0015 5.98748C46.9939 5.45538 46.7869 4.9455 46.4215 4.55866C46.0358 4.19962 45.5284 4 45.0015 4C44.4746 4 43.9672 4.19962 43.5816 4.55866C43.2096 4.94126 43.0015 5.45385 43.0015 5.98747C43.0015 6.52109 43.2096 7.03368 43.5816 7.41628C43.9641 7.78326 44.4714 7.99181 45.0014 8V8Z" fill="#86EC16"/>
<path d="M43.583 10.5555C43.2054 10.932 42.9924 11.4434 42.9907 11.9774C42.9899 12.2418 43.041 12.5038 43.1411 12.7484C43.2413 12.993 43.3884 13.2154 43.5742 13.4029C43.76 13.5905 43.9809 13.7395 44.2241 13.8414C44.4673 13.9434 44.7281 13.9962 44.9917 13.9971C45.524 13.9987 46.0352 13.7882 46.4128 13.4117C46.5889 13.2159 46.7304 12.9913 46.8313 12.7478C46.9334 12.5059 46.9876 12.2463 46.9907 11.9836C46.9832 11.4518 46.7769 10.9422 46.4128 10.5555C46.0285 10.1966 45.523 9.99707 44.9979 9.99707C44.4728 9.99707 43.9673 10.1966 43.583 10.5555Z" fill="#86EC16"/>
<path d="M43.583 16.5528C43.2054 16.9293 42.9924 17.4407 42.9907 17.9747C42.9891 18.5087 43.199 19.0215 43.5742 19.4003C43.9495 19.779 44.4594 19.9927 44.9917 19.9944C45.524 19.996 46.0352 19.7855 46.4128 19.4091C46.5889 19.2132 46.7304 18.9887 46.8313 18.7451C46.9334 18.5032 46.9876 18.2436 46.9907 17.981C46.9832 17.4491 46.7769 16.9395 46.4128 16.5528C46.0285 16.1939 45.523 15.9944 44.9979 15.9944C44.4728 15.9944 43.9673 16.1939 43.583 16.5528V16.5528Z" fill="#86EC16"/>
<path d="M33.0031 13.9971C33.5311 13.9885 34.0364 13.78 34.4178 13.4133C34.5938 13.2174 34.7353 12.9927 34.8362 12.7491C34.9383 12.507 34.9925 12.2474 34.9956 11.9846C34.988 11.4525 34.7818 10.9426 34.4178 10.5557C34.0336 10.1967 33.5281 9.99707 33.0032 9.99707C32.4782 9.99707 31.9728 10.1967 31.5886 10.5557C31.3064 10.8367 31.1138 11.1955 31.0352 11.5866C30.9566 11.9776 30.9956 12.3833 31.1472 12.7521C31.2987 13.1209 31.5561 13.4361 31.8866 13.6578C32.217 13.8795 32.6056 13.9976 33.0031 13.9971V13.9971Z" fill="#86EC16"/>
<line x1="20" y1="12" x2="12" y2="12" stroke="black" stroke-width="2"/>
<circle cx="8" cy="12" r="4" stroke="black" stroke-width="2"/>
<path fill-rule="evenodd" clip-rule="evenodd" d="M10 24.0125C8.72789 26.363 8 29.0909 8 32C8 37.3551 10.4664 42.0958 14.2536 45H31.7464C35.5336 42.0958 38 37.3551 38 32C38 30.2539 37.7378 28.5731 37.253 27H10V24.0125Z" fill="#86EC16"/>
<mask id="path-11-inside-1" fill="white">
<path fill-rule="evenodd" clip-rule="evenodd" d="M31.7464 45C35.5336 42.0958 38 37.3551 38 32C38 23.1634 31.2843 16 23 16C14.7157 16 8 23.1634 8 32C8 37.3551 10.4664 42.0958 14.2536 45H31.7464Z"/>
</mask>
<path d="M31.7464 45V47H32.4249L32.9634 46.5871L31.7464 45ZM14.2536 45L13.0366 46.5871L13.5751 47H14.2536V45ZM36 32C36 36.7374 33.8196 40.8898 30.5293 43.4129L32.9634 46.5871C37.2476 43.3017 40 37.9728 40 32H36ZM23 18C30.0601 18 36 24.1445 36 32H40C40 22.1824 32.5085 14 23 14V18ZM10 32C10 24.1445 15.9399 18 23 18V14C13.4915 14 6 22.1824 6 32H10ZM15.4707 43.4129C12.1804 40.8898 10 36.7374 10 32H6C6 37.9728 8.75237 43.3017 13.0366 46.5871L15.4707 43.4129ZM14.2536 47H31.7464V43H14.2536V47Z" fill="black" mask="url(#path-11-inside-1)"/>
</svg>
