<svg width="52" height="50" viewBox="0 0 52 50" fill="none" xmlns="http://www.w3.org/2000/svg">
<path fill-rule="evenodd" clip-rule="evenodd" d="M51.0597 6.23716V5.25366L50.0435 5.25366H36.7163V7.22066H47.5238L32.9408 20.8292L28.7428 17.2373L28.0562 16.6498L27.4024 17.2736L11.8965 32.0683L13.2771 33.5153L28.1292 19.3444L32.3195 22.9298L32.9986 23.5108L33.6519 22.9011L49.0273 8.55323V19.1351L51.0597 19.1351V6.23716Z" fill="black"/>
<path d="M15.1957 30.6042C7.77123 23.4188 4.44199 16.4901 3.70543 13.9239L2.15327 15.426C0.817141 16.7191 0.407752 18.6651 1.30943 20.2722C3.20478 23.6503 6.71006 28.8073 11.8812 33.8119C16.8117 38.5836 21.5086 41.9625 24.6464 43.9174C26.3488 44.9781 28.5356 44.6391 29.9672 43.2536L31.9893 41.2967C29.485 40.7264 22.6203 37.7895 15.1957 30.6042Z" fill="#86EC16"/>
<path d="M4.8527 12.8135C6.29025 11.4223 8.69603 11.7089 9.742 13.3961L13.7194 19.8116C14.4572 21.0016 14.2634 22.5248 13.2495 23.5061L10.5129 26.1545C9.07536 27.5457 6.66958 27.2591 5.62361 25.5719L1.6462 19.1564C0.908452 17.9664 1.10221 16.4432 2.11616 15.4619L4.8527 12.8135Z" fill="#86EC16"/>
<path d="M33.1365 40.1864C34.5741 38.7951 34.2779 36.4668 32.5346 35.4545L25.9056 31.6052C24.676 30.8913 23.1021 31.0788 22.0882 32.0601L19.3516 34.7085C17.9141 36.0997 18.2102 38.428 19.9535 39.4403L26.5826 43.2896C27.8122 44.0036 29.3861 43.816 30.4 42.8348L33.1365 40.1864Z" fill="#86EC16"/>
</svg>
