<svg width="50" height="50" viewBox="0 0 50 50" fill="none" xmlns="http://www.w3.org/2000/svg">
<path d="M8.71429 31.286V37.0003L24.7143 45.0003L40.7143 37.0003V31.8574M8.71429 18.7146L24.7143 11.8574L40.7143 18.7146L47 27.8574L31.5714 36.4288L24.7143 27.8574L19 37.0003L3 27.8574L8.71429 18.7146Z" stroke="black" stroke-width="2"/>
<path fill-rule="evenodd" clip-rule="evenodd" d="M17.3364 5.65203C18.3748 4.62823 20.1127 4.83915 20.8682 6.0807L23.7413 10.8018C24.2742 11.6775 24.1343 12.7984 23.4018 13.5206L21.6403 15.2573C22.5561 16.3876 23.6079 17.5611 24.8078 18.744C25.8938 19.8148 26.9633 20.7574 27.9934 21.5832L29.7865 19.8154C30.5189 19.0933 31.6559 18.9553 32.5441 19.4807L35.5842 21.2791L27.2897 25.4263C25.7719 24.2205 24.1119 22.7791 22.4135 21.1046C18.6781 17.4217 16.146 13.6267 14.7769 11.1408C14.1587 10.0183 14.3937 8.67121 15.2444 7.72344C15.281 7.68148 15.3194 7.64062 15.3597 7.60096L15.3865 7.57453L16.5077 6.4691L17.3364 5.65203Z" fill="#86EC16"/>
<path d="M8.71436 18.7141L24.7144 26.7141L40.7144 18.7141" stroke="black" stroke-width="2"/>
<path d="M24.7139 26.7144V45.0001" stroke="black" stroke-width="2"/>
</svg>
