<svg width="51" height="50" viewBox="0 0 51 50" fill="none" xmlns="http://www.w3.org/2000/svg">
<path fill-rule="evenodd" clip-rule="evenodd" d="M19.7483 7.51024L19.7734 4.09452L32.7256 4L32.7016 7.26492C32.6789 10.3571 36.0235 12.3046 38.7015 10.7585L41.6496 9.0564L48.0187 20.0881L45.0664 21.7926C42.3884 23.3387 42.4027 27.209 45.092 28.7354L47.9327 30.3477L41.3747 41.5174L38.4107 39.8352C36.0616 38.5018 33.2104 39.8379 32.5687 42.2779V48.6934C33.5953 48.6133 34.4035 47.759 34.4112 46.7142L34.4363 43.2992C34.4476 41.7727 36.0959 40.821 37.4235 41.5745L40.3875 43.2568C41.3381 43.7964 42.5459 43.4727 43.0994 42.5301L49.6574 31.3603C50.2224 30.3979 49.8905 29.1592 48.9199 28.6084L46.0792 26.996C44.7346 26.2328 44.7274 24.2977 46.0664 23.5246L49.0187 21.8201C49.9753 21.2679 50.303 20.0447 49.7508 19.0881L43.3816 8.0564C42.8293 7.09982 41.6061 6.77207 40.6496 7.32435L37.7015 9.02641C36.3625 9.79949 34.6902 8.82575 34.7016 7.27964L34.7256 4.01472C34.7338 2.89872 33.8271 1.99191 32.7111 2.00005L19.7588 2.09458C18.6657 2.10255 17.7815 2.9867 17.7735 4.07981L17.7483 7.49553C17.7371 9.02203 16.0888 9.97369 14.7611 9.22017L11.7897 7.53367C10.8391 6.99408 9.63128 7.31775 9.07781 8.26042L4.09912 16.7402L6.41837 16.7402L10.8025 9.27303L13.7739 10.9595C16.4291 12.4666 19.7258 10.5632 19.7483 7.51024ZM22.0887 45.9385L22.0826 46.7683C22.0744 47.8865 22.9845 48.7942 24.1026 48.7829L24.7927 48.776L22.0887 45.9385Z" fill="black"/>
<rect y="36.9998" width="13" height="13" rx="4" fill="#86EC16"/>
<rect x="0.000854492" y="20.9998" width="13" height="13" rx="4" fill="#86EC16"/>
<rect x="16.0004" y="36.9998" width="13" height="13" rx="4" fill="#86EC16"/>
<path d="M17.9999 22L23.9999 27.5L17.9999 33" stroke="black" stroke-width="2"/>
<path d="M25.9999 32H33.9999" stroke="black" stroke-width="2"/>
</svg>
