<svg width="50" height="50" viewBox="0 0 50 50" fill="none" xmlns="http://www.w3.org/2000/svg">
<path d="M13.244 35.8893C7.43391 30.161 4.8286 24.6373 4.25221 22.5915L3.03757 23.7891C1.99198 24.82 1.67161 26.3713 2.37722 27.6525C3.86043 30.3456 6.60349 34.4569 10.6502 38.4466C14.5085 42.2506 18.1841 44.9444 20.6396 46.5029C21.9718 47.3484 23.6831 47.0782 24.8034 45.9737L26.3858 44.4136C24.426 43.9589 19.054 41.6176 13.244 35.8893Z" fill="#86EC16"/>
<path d="M5.15 21.7064C6.27496 20.5972 8.15761 20.8257 8.97613 22.1708L12.0887 27.2853C12.666 28.234 12.5144 29.4483 11.7209 30.2306L9.57941 32.342C8.45445 33.4511 6.57181 33.2226 5.75328 31.8776L2.64076 26.763C2.06343 25.8143 2.21506 24.6 3.00852 23.8177L5.15 21.7064Z" fill="#86EC16"/>
<path d="M27.2835 43.5284C28.4085 42.4193 28.1767 40.5631 26.8125 39.7561L21.625 36.6874C20.6627 36.1182 19.4311 36.2677 18.6376 37.05L16.4961 39.1613C15.3712 40.2705 15.603 42.1266 16.9672 42.9336L22.1547 46.0023C23.1169 46.5715 24.3486 46.422 25.1421 45.6398L27.2835 43.5284Z" fill="#86EC16"/>
<path d="M43.9698 14.6934L43.2608 15.3987L43.2627 15.4005L43.9698 14.6934ZM44.7772 15.2381L44.3859 16.1583L44.3909 16.1604L44.7772 15.2381ZM43.4251 13.8859L42.5025 14.2717L42.5054 14.2785L43.4251 13.8859ZM43.4251 11.9142L42.5044 11.524L42.5027 11.5279L43.4251 11.9142ZM44.7772 10.5621L44.3915 9.63944L44.3855 9.642L44.7772 10.5621ZM46.749 10.5621L47.1392 9.64135L47.1353 9.63972L46.749 10.5621ZM48.1011 11.9142L49.0237 11.5285L49.0212 11.5225L48.1011 11.9142ZM48.1011 13.8859L49.0218 14.2762L49.0234 14.2723L48.1011 13.8859ZM46.749 15.2381L47.1347 16.1607L47.1407 16.1581L46.749 15.2381ZM43.2277 17.0457V16.0457H42.2277V17.0457H43.2277ZM43.2277 24.6816H42.2277V25.6816H43.2277V24.6816ZM48.3175 17.0457H49.3175V16.0457H48.3175V17.0457ZM48.3175 22.0499H47.3175V22.0696L47.3183 22.0894L48.3175 22.0499ZM47.9548 23.3164L48.7664 23.9006L48.7741 23.8899L48.7815 23.879L47.9548 23.3164ZM47.0356 24.1274L46.5587 23.2484L46.5582 23.2487L47.0356 24.1274ZM45.8023 24.5579L45.6287 23.573L45.6172 23.5752L45.8023 24.5579ZM44.5002 24.6816V25.6816L44.5056 25.6816L44.5002 24.6816ZM39.1035 13.8443L39.1105 12.8442L39.0965 12.8443L39.1035 13.8443ZM40.0882 13.6457L39.6964 12.7256L39.6951 12.7262L40.0882 13.6457ZM38.1212 13.6457L38.5185 12.728L38.5146 12.7263L38.1212 13.6457ZM37.8505 13.4811L38.4431 12.6756L38.443 12.6756L37.8505 13.4811ZM37.5004 13.264H36.5004V13.8882L37.0613 14.1624L37.5004 13.264ZM37.5004 9.35146L37.0627 8.45236L36.5004 8.72611V9.35146H37.5004ZM37.8503 9.13454L38.4431 9.93986L38.4431 9.93985L37.8503 9.13454ZM38.1212 8.96972L38.5146 9.88911L38.5168 9.88813L38.1212 8.96972ZM39.0999 8.77112L39.0929 9.77119L39.107 9.77109L39.0999 8.77112ZM40.0858 8.96972L39.6927 9.88923L39.6956 9.89044L40.0858 8.96972ZM41.4379 10.3219L42.3599 9.93464L42.358 9.9301L41.4379 10.3219ZM41.4391 12.2936L42.3598 12.6838L42.3615 12.6799L41.4391 12.2936ZM37.5004 26.7009H36.5004V27.5076L37.2889 27.6782L37.5004 26.7009ZM37.8231 26.7807L38.0838 25.8153L38.0838 25.8153L37.8231 26.7807ZM37.5004 15.4545V14.4545H36.5004V15.4545H37.5004ZM42.2728 15.4545H43.2728V14.4545H42.2728V15.4545ZM42.2728 24.2903H41.2728V24.3091L41.2735 24.3278L42.2728 24.2903ZM41.9529 25.5557L42.8007 26.0859L42.8072 26.0756L42.8134 26.065L41.9529 25.5557ZM41.1418 26.3608L41.6603 27.2158L41.6649 27.2131L41.1418 26.3608ZM40.0537 26.7853L39.8564 25.8049L39.844 25.8075L40.0537 26.7853ZM38.9061 26.909L38.9013 27.909L38.9123 27.909L38.9061 26.909ZM38.1593 26.8543L38.302 25.8645L38.2948 25.8635L38.1593 26.8543ZM20 29.1364H19V29.9782L19.8295 30.1217L20 29.1364ZM36.5455 32L36.375 32.9854L37.5455 33.1879V32H36.5455ZM20 6.86362L19.8295 5.87827L19 6.02183V6.86362H20ZM36.5455 4H37.5455V2.81206L36.375 3.01465L36.5455 4ZM32.0918 12.5908H33.0918V11.5281L32.031 11.5927L32.0918 12.5908ZM24.4558 13.0558L24.3951 12.0577L23.4558 12.1149V13.0558H24.4558ZM32.0918 14.4995L32.1362 15.4985L33.0918 15.4561V14.4995H32.0918ZM29.2282 14.6268L29.1838 13.6278L28.2282 13.6702V14.6268H29.2282ZM29.2282 22.9798L29.1697 23.9781L30.2282 24.0401V22.9798H29.2282ZM27.3195 22.868H26.3195V23.8112L27.261 23.8663L27.3195 22.868ZM27.3195 14.7017H28.3195V13.6606L27.2792 13.7025L27.3195 14.7017ZM24.4558 14.817H23.4558V15.8581L24.4961 15.8162L24.4558 14.817ZM43.2627 15.4005C43.5856 15.7234 43.9664 15.9799 44.3859 16.1583L45.1685 14.3178C44.9839 14.2393 44.8177 14.1272 44.6769 13.9863L43.2627 15.4005ZM42.5054 14.2785C42.6838 14.6966 42.9411 15.0773 43.2608 15.3987L44.6787 13.9881C44.537 13.8457 44.4232 13.677 44.3448 13.4933L42.5054 14.2785ZM42.5027 11.5279C42.1351 12.4055 42.1354 13.3936 42.5025 14.2716L44.3477 13.5002C44.1868 13.1153 44.1871 12.6834 44.3475 12.3006L42.5027 11.5279ZM44.3855 9.642C43.5399 10.0021 42.8642 10.6751 42.5044 11.524L44.3458 12.3044C44.5022 11.9355 44.7969 11.6406 45.169 11.4821L44.3855 9.642ZM47.1353 9.63972C46.2576 9.27209 45.2696 9.27237 44.3915 9.63946L45.163 11.4847C45.5479 11.3238 45.9797 11.324 46.3626 11.4844L47.1353 9.63972ZM49.0212 11.5225C48.6611 10.6768 47.988 10.0011 47.1392 9.64135L46.3587 11.4828C46.7276 11.6391 47.0226 11.9338 47.181 12.306L49.0212 11.5225ZM49.0234 14.2723C49.3911 13.3946 49.3908 12.4065 49.0237 11.5285L47.1785 12.2999C47.3394 12.6848 47.3391 13.1167 47.1787 13.4996L49.0234 14.2723ZM47.1407 16.1581C47.9863 15.7981 48.662 15.125 49.0218 14.2761L47.1804 13.4957C47.024 13.8646 46.7293 14.1595 46.3572 14.318L47.1407 16.1581ZM44.3909 16.1604C45.2686 16.528 46.2566 16.5278 47.1347 16.1607L46.3632 14.3154C45.9783 14.4764 45.5465 14.4761 45.1636 14.3157L44.3909 16.1604ZM42.2277 17.0457V24.6816H44.2277V17.0457H42.2277ZM48.3175 16.0457H43.2277V18.0457H48.3175V16.0457ZM49.3175 22.0499V17.0457H47.3175V22.0499H49.3175ZM48.7815 23.879C49.1553 23.3297 49.3431 22.6751 49.3167 22.0103L47.3183 22.0894C47.3277 22.326 47.2609 22.5586 47.1281 22.7538L48.7815 23.879ZM47.5124 25.0064C48.0105 24.7362 48.4383 24.3564 48.7664 23.9006L47.1432 22.7321C46.9885 22.947 46.7884 23.1238 46.5587 23.2484L47.5124 25.0064ZM45.976 25.5427C46.5135 25.4479 47.0324 25.2672 47.5129 25.0061L46.5582 23.2487C46.2681 23.4063 45.9545 23.5157 45.6287 23.5731L45.976 25.5427ZM44.5056 25.6816C45.0013 25.6789 45.4968 25.6331 45.9874 25.5406L45.6172 23.5752C45.2493 23.6445 44.8743 23.6795 44.4947 23.6816L44.5056 25.6816ZM43.2277 25.6816H44.5002V23.6816H43.2277V25.6816ZM39.0965 14.8443C39.5726 14.8476 40.0441 14.7521 40.4812 14.5652L39.6951 12.7262C39.5091 12.8057 39.3099 12.8457 39.1105 12.8443L39.0965 14.8443ZM37.7239 14.5634C38.1644 14.7541 38.6365 14.8476 39.1105 14.8443L39.0965 12.8443C38.895 12.8457 38.6988 12.8061 38.5185 12.728L37.7239 14.5634ZM37.2579 14.2866C37.3426 14.3489 37.4988 14.4671 37.7279 14.5651L38.5146 12.7263C38.5141 12.7261 38.5151 12.7268 38.5115 12.7245C38.5082 12.7224 38.5021 12.7184 38.4909 12.7104C38.4786 12.7017 38.4652 12.6919 38.4431 12.6756L37.2579 14.2866ZM37.0613 14.1624C37.1056 14.184 37.1366 14.2024 37.1612 14.2183C37.1885 14.2359 37.2127 14.2534 37.2579 14.2866L38.443 12.6756C38.3427 12.6018 38.186 12.486 37.9396 12.3656L37.0613 14.1624ZM36.5004 9.35146V13.264H38.5004V9.35146H36.5004ZM37.2575 8.32922C37.2121 8.36261 37.1881 8.38001 37.161 8.39749C37.1367 8.41319 37.1062 8.4312 37.0627 8.45236L37.9382 10.2505C38.1853 10.1302 38.3428 10.0138 38.4431 9.93986L37.2575 8.32922ZM37.7279 8.05033C37.4987 8.14838 37.342 8.267 37.2575 8.32922L38.4431 9.93985C38.4653 9.92352 38.4787 9.91369 38.491 9.90495C38.5023 9.89695 38.5085 9.89289 38.5118 9.89079C38.5155 9.88841 38.5145 9.88914 38.5146 9.88911L37.7279 8.05033ZM39.107 7.77114C38.6313 7.76778 38.1613 7.86363 37.7256 8.05131L38.5168 9.88813C38.6995 9.80943 38.8955 9.7697 39.0929 9.77109L39.107 7.77114ZM40.4789 8.05021C40.0415 7.86323 39.57 7.7678 39.0929 7.77114L39.107 9.77109C39.3078 9.76969 39.507 9.80982 39.6927 9.88923L40.4789 8.05021ZM42.358 9.9301C41.9979 9.08447 41.3249 8.40876 40.476 8.049L39.6956 9.89044C40.0645 10.0468 40.3594 10.3415 40.5179 10.7136L42.358 9.9301ZM42.3615 12.6799C42.7291 11.8022 42.729 10.8135 42.3599 9.93465L40.5159 10.7091C40.6772 11.0931 40.6771 11.5244 40.5168 11.9072L42.3615 12.6799ZM40.4799 14.5658C41.3264 14.2054 42.0004 13.5318 42.3598 12.6838L40.5184 11.9033C40.3617 12.2731 40.0677 12.5676 39.6964 12.7256L40.4799 14.5658ZM37.2889 27.6782C37.3997 27.7022 37.4785 27.7234 37.5624 27.7461L38.0838 25.8153C37.9947 25.7912 37.8751 25.7588 37.712 25.7235L37.2889 27.6782ZM36.5004 15.4545V26.7009H38.5004V15.4545H36.5004ZM42.2728 14.4545H37.5004V16.4545H42.2728V14.4545ZM43.2728 24.2903V15.4545H41.2728V24.2903H43.2728ZM42.8134 26.065C43.138 25.5167 43.2958 24.8866 43.2721 24.2528L41.2735 24.3278C41.283 24.5812 41.2196 24.8312 41.0923 25.0463L42.8134 26.065ZM41.6649 27.2131C42.1271 26.9294 42.5149 26.5428 42.8007 26.0859L41.105 25.0254C40.9817 25.2225 40.8154 25.3878 40.6188 25.5085L41.6649 27.2131ZM40.251 27.7657C40.7489 27.6655 41.2262 27.4791 41.6603 27.2158L40.6233 25.5057C40.3867 25.6491 40.1267 25.7506 39.8564 25.805L40.251 27.7657ZM38.9123 27.909C39.3632 27.9062 39.8168 27.8589 40.2634 27.7631L39.844 25.8075C39.5366 25.8735 39.2196 25.907 38.8999 25.909L38.9123 27.909ZM38.0165 27.844C38.3113 27.8866 38.6072 27.9076 38.9013 27.909L38.9109 25.909C38.7055 25.908 38.5019 25.8934 38.302 25.8645L38.0165 27.844ZM37.5624 27.7461C37.6776 27.7772 37.8251 27.8179 38.0237 27.845L38.2948 25.8635C38.2358 25.8554 38.1982 25.8461 38.0838 25.8153L37.5624 27.7461ZM19.8295 30.1217L36.375 32.9854L36.7161 31.0147L20.1705 28.151L19.8295 30.1217ZM19 6.86362V29.1364H21V6.86362H19ZM36.375 3.01465L19.8295 5.87827L20.1705 7.84897L36.7161 4.98535L36.375 3.01465ZM37.5455 32V4H35.5455V32H37.5455ZM32.031 11.5927L24.3951 12.0577L24.5166 14.054L32.1526 13.589L32.031 11.5927ZM33.0918 14.4995V12.5908H31.0918V14.4995H33.0918ZM29.2725 15.6258L32.1362 15.4985L32.0474 13.5005L29.1838 13.6278L29.2725 15.6258ZM30.2282 22.9798V14.6268H28.2282V22.9798H30.2282ZM27.261 23.8663L29.1697 23.9781L29.2866 21.9815L27.3779 21.8697L27.261 23.8663ZM26.3195 14.7017V22.868H28.3195V14.7017H26.3195ZM24.4961 15.8162L27.3597 15.7009L27.2792 13.7025L24.4156 13.8179L24.4961 15.8162ZM23.4558 13.0558V14.817H25.4558V13.0558H23.4558Z" fill="white"/>
</svg>
