<svg width="50" height="50" viewBox="0 0 50 50" fill="none" xmlns="http://www.w3.org/2000/svg">
<rect x="11" y="40" width="13" height="6" rx="2" fill="#86EC16"/>
<rect x="27" y="41" width="11" height="4" rx="1" stroke="white" stroke-width="2"/>
<rect x="8" y="1" width="34" height="48" rx="3" stroke="white" stroke-width="2"/>
<line x1="11" y1="6" x2="31" y2="6" stroke="#86EC16" stroke-width="4"/>
<rect x="12" y="11" width="6" height="6" rx="3" stroke="white" stroke-width="2"/>
<rect x="12" y="21" width="6" height="6" rx="3" stroke="white" stroke-width="2"/>
<rect x="12" y="31" width="6" height="6" rx="3" stroke="white" stroke-width="2"/>
<rect x="22" y="11" width="6" height="6" rx="3" stroke="white" stroke-width="2"/>
<rect x="22" y="21" width="6" height="6" rx="3" stroke="white" stroke-width="2"/>
<rect x="22" y="31" width="6" height="6" rx="3" stroke="white" stroke-width="2"/>
<rect x="32" y="11" width="6" height="6" rx="3" stroke="white" stroke-width="2"/>
<rect x="32" y="21" width="6" height="6" rx="3" stroke="white" stroke-width="2"/>
<rect x="32" y="31" width="6" height="6" rx="3" stroke="white" stroke-width="2"/>
</svg>
