<svg width="70" height="70" viewBox="0 0 70 70" fill="none" xmlns="http://www.w3.org/2000/svg">
<mask id="path-1-inside-1_244712_11081" fill="white">
<path fill-rule="evenodd" clip-rule="evenodd" d="M37 9C37 6.79086 38.7909 5 41 5H61C63.2091 5 65 6.79086 65 9V29C65 31.2091 63.2091 33 61 33H57C57 36.3137 54.3137 39 51 39C47.6863 39 45 36.3137 45 33H41C38.7909 33 37 31.2091 37 29V25C40.3137 25 43 22.3137 43 19C43 15.6863 40.3137 13 37 13V9Z"/>
</mask>
<path d="M57 33V31H55V33H57ZM45 33H47V31H45V33ZM37 25V23H35V25H37ZM37 13H35V15H37V13ZM41 3C37.6863 3 35 5.68629 35 9H39C39 7.89543 39.8954 7 41 7V3ZM61 3H41V7H61V3ZM67 9C67 5.68629 64.3137 3 61 3V7C62.1046 7 63 7.89543 63 9H67ZM67 29V9H63V29H67ZM61 35C64.3137 35 67 32.3137 67 29H63C63 30.1046 62.1046 31 61 31V35ZM57 35H61V31H57V35ZM51 41C55.4183 41 59 37.4183 59 33H55C55 35.2091 53.2091 37 51 37V41ZM43 33C43 37.4183 46.5817 41 51 41V37C48.7909 37 47 35.2091 47 33H43ZM41 35H45V31H41V35ZM35 29C35 32.3137 37.6863 35 41 35V31C39.8954 31 39 30.1046 39 29H35ZM35 25V29H39V25H35ZM41 19C41 21.2091 39.2091 23 37 23V27C41.4183 27 45 23.4183 45 19H41ZM37 15C39.2091 15 41 16.7909 41 19H45C45 14.5817 41.4183 11 37 11V15ZM35 9V13H39V9H35Z" fill="black" mask="url(#path-1-inside-1_244712_11081)"/>
<mask id="path-3-inside-2_244712_11081" fill="white">
<path fill-rule="evenodd" clip-rule="evenodd" d="M37 41C37 38.7909 38.7909 37 41 37H45C45 40.3137 47.6863 43 51 43C54.3137 43 57 40.3137 57 37H61C63.2091 37 65 38.7909 65 41V61C65 63.2091 63.2091 65 61 65H41C38.7909 65 37 63.2091 37 61V57C33.6863 57 31 54.3137 31 51C31 47.6863 33.6863 45 37 45L37 41Z"/>
</mask>
<path d="M37 41H35V41L37 41ZM45 37H47V35H45V37ZM51 43V41V43ZM57 37V35H55V37H57ZM37 57H39V55H37V57ZM37 45L37 47H39L39 45L37 45ZM41 35C37.6863 35 35 37.6863 35 41H39C39 39.8954 39.8954 39 41 39V35ZM45 35H41V39H45V35ZM51 41C48.7909 41 47 39.2091 47 37H43C43 41.4183 46.5817 45 51 45V41ZM55 37C55 39.2091 53.2091 41 51 41V45C55.4183 45 59 41.4183 59 37H55ZM61 35H57V39H61V35ZM67 41C67 37.6863 64.3137 35 61 35V39C62.1046 39 63 39.8954 63 41H67ZM67 61V41H63V61H67ZM61 67C64.3137 67 67 64.3137 67 61H63C63 62.1046 62.1046 63 61 63V67ZM41 67H61V63H41V67ZM35 61C35 64.3137 37.6863 67 41 67V63C39.8954 63 39 62.1046 39 61H35ZM35 57V61H39V57H35ZM29 51C29 55.4183 32.5817 59 37 59V55C34.7909 55 33 53.2091 33 51H29ZM37 43C32.5817 43 29 46.5817 29 51H33C33 48.7909 34.7909 47 37 47L37 43ZM35 41L35 45L39 45L39 41L35 41Z" fill="black" mask="url(#path-3-inside-2_244712_11081)"/>
<mask id="path-5-inside-3_244712_11081" fill="white">
<path fill-rule="evenodd" clip-rule="evenodd" d="M13.3414 37H9C6.79086 37 5 38.7909 5 41V61C5 63.2091 6.79086 65 9 65H29C31.2091 65 33 63.2091 33 61V57C29.6863 57 27 54.3137 27 51C27 47.6863 29.6863 45 33 45L33 41C33 38.7909 31.2091 37 29 37H24.6586C23.8349 34.6696 21.6124 33 19 33C16.3876 33 14.1651 34.6696 13.3414 37Z"/>
</mask>
<path d="M13.3414 37V39H14.7558L15.2271 37.6665L13.3414 37ZM33 57H35V55H33V57ZM33 45V47H35L35 45L33 45ZM33 41H31V41L33 41ZM24.6586 37L22.7729 37.6665L23.2442 39H24.6586V37ZM13.3414 35H9V39H13.3414V35ZM9 35C5.68629 35 3 37.6863 3 41H7C7 39.8954 7.89543 39 9 39V35ZM3 41V61H7V41H3ZM3 61C3 64.3137 5.68629 67 9 67V63C7.89543 63 7 62.1046 7 61H3ZM9 67H29V63H9V67ZM29 67C32.3137 67 35 64.3137 35 61H31C31 62.1046 30.1046 63 29 63V67ZM35 61V57H31V61H35ZM33 55C30.7909 55 29 53.2091 29 51H25C25 55.4183 28.5817 59 33 59V55ZM29 51C29 48.7909 30.7909 47 33 47V43C28.5817 43 25 46.5817 25 51H29ZM35 45L35 41L31 41L31 45L35 45ZM35 41C35 37.6863 32.3137 35 29 35V39C30.1046 39 31 39.8954 31 41H35ZM29 35H24.6586V39H29V35ZM26.5443 36.3335C25.447 33.229 22.4864 31 19 31V35C20.7385 35 22.2228 36.1102 22.7729 37.6665L26.5443 36.3335ZM19 31C15.5136 31 12.553 33.229 11.4557 36.3335L15.2271 37.6665C15.7772 36.1102 17.2615 35 19 35V31Z" fill="black" mask="url(#path-5-inside-3_244712_11081)"/>
<path fill-rule="evenodd" clip-rule="evenodd" d="M5 9C5 6.79086 6.79086 5 9 5H29C31.2091 5 33 6.79086 33 9V13C36.3137 13 39 15.6863 39 19C39 22.3137 36.3137 25 33 25V29C33 31.2091 31.2091 33 29 33H25C25 29.6863 22.3137 27 19 27C15.6863 27 13 29.6863 13 33H9C6.79086 33 5 31.2091 5 29V9Z" fill="#86EC16"/>
</svg>
