<svg width="50" height="50" viewBox="0 0 50 50" fill="none" xmlns="http://www.w3.org/2000/svg">
<path d="M42.9698 13.5614L42.2652 14.2711L42.2671 14.2729L42.9698 13.5614ZM43.7772 14.0994L43.39 15.0214L43.395 15.0234L43.7772 14.0994ZM42.4251 12.7639L41.5042 13.1538L41.5072 13.1607L42.4251 12.7639ZM42.4251 10.8165L41.5061 10.4222L41.5045 10.4261L42.4251 10.8165ZM43.7772 9.4811L43.3956 8.55678L43.3896 8.55929L43.7772 9.4811ZM45.7489 9.4811L46.1351 8.55865L46.1312 8.55705L45.7489 9.4811ZM47.1011 10.8165L48.022 10.4267L48.0194 10.4207L47.1011 10.8165ZM47.1011 12.7639L48.0201 13.1583L48.0217 13.1544L47.1011 12.7639ZM45.7489 14.0994L46.1306 15.0237L46.1366 15.0212L45.7489 14.0994ZM42.2277 15.8847V14.8847H41.2277V15.8847H42.2277ZM42.2277 23.4264H41.2277V24.4264H42.2277V23.4264ZM47.3175 15.8847H48.3175V14.8847H47.3175V15.8847ZM47.3175 20.8271H46.3175V20.8472L46.3183 20.8672L47.3175 20.8271ZM46.9548 22.078L47.7629 22.667L47.7707 22.6563L47.7783 22.6454L46.9548 22.078ZM46.0355 22.879L45.5633 21.9976L45.5628 21.9979L46.0355 22.879ZM44.8023 23.3042L44.6308 22.319L44.6194 22.3211L44.8023 23.3042ZM43.5001 23.4264L43.5001 24.4264L43.5055 24.4264L43.5001 23.4264ZM38.1035 12.7228L38.1105 11.7227L38.0965 11.7228L38.1035 12.7228ZM39.0882 12.5267L38.7005 11.6049L38.6992 11.6054L39.0882 12.5267ZM37.1212 12.5267L37.5144 11.6072L37.5105 11.6055L37.1212 12.5267ZM36.8505 12.3641L37.4383 11.5551L37.4383 11.5551L36.8505 12.3641ZM36.5004 12.1496H35.5004V12.7773L36.0657 13.0502L36.5004 12.1496ZM36.5004 8.28542L36.0671 7.38421L35.5004 7.65669V8.28542H36.5004ZM36.8503 8.07118L37.4384 8.87999L37.4384 8.87999L36.8503 8.07118ZM37.1212 7.90839L37.5104 8.82953L37.5127 8.82857L37.1212 7.90839ZM38.0999 7.71224L38.093 8.71232L38.1069 8.71222L38.0999 7.71224ZM39.0858 7.90839L38.6968 8.82965L38.6997 8.83084L39.0858 7.90839ZM40.4379 9.24384L41.3582 8.85253L41.3562 8.84796L40.4379 9.24384ZM40.4391 11.1912L41.3581 11.5856L41.3597 11.5817L40.4391 11.1912ZM36.5004 25.4207H35.5004V26.2296L36.2914 26.3987L36.5004 25.4207ZM36.8231 25.4996L36.5654 26.4658L36.5654 26.4658L36.8231 25.4996ZM36.5004 14.3131V13.3131H35.5004V14.3131H36.5004ZM41.2728 14.3131H42.2728V13.3131H41.2728V14.3131ZM41.2728 23.04H40.2728V23.059L40.2735 23.0779L41.2728 23.04ZM40.9529 24.2897L41.7977 24.8247L41.8043 24.8143L41.8106 24.8037L40.9529 24.2897ZM40.1418 25.0848L40.6556 25.9427L40.6602 25.94L40.1418 25.0848ZM39.0537 25.5041L38.8587 24.5232L38.8464 24.5259L39.0537 25.5041ZM37.9061 25.6263L37.9014 26.6263L37.9122 26.6263L37.9061 25.6263ZM37.1593 25.5723L37.3003 24.5822L37.2932 24.5813L37.1593 25.5723ZM19 27.8262H18V28.6698L18.8315 28.8119L19 27.8262ZM35.5455 30.6545L35.377 31.6402L36.5455 31.8399V30.6545H35.5455ZM19 5.82829L18.8315 4.84258L18 4.98472V5.82829H19ZM35.5455 3H36.5455V1.81456L35.377 2.0143L35.5455 3ZM31.0917 11.4848H32.0917V10.4229L31.0317 10.4866L31.0917 11.4848ZM23.4558 11.9441L23.3958 10.9459L22.4558 11.0024V11.9441H23.4558ZM31.0917 13.3699L31.1356 14.369L32.0917 14.327V13.3699H31.0917ZM28.2281 13.4956L28.1843 12.4966L27.2281 12.5385V13.4956H28.2281ZM28.2281 21.7456L28.1704 22.7439L29.2281 22.8051V21.7456H28.2281ZM26.3194 21.6352H25.3194V22.579L26.2617 22.6335L26.3194 21.6352ZM26.3194 13.5696H27.3194V12.529L26.2797 12.5704L26.3194 13.5696ZM23.4558 13.6835H22.4558V14.7241L23.4956 14.6828L23.4558 13.6835ZM42.2671 14.2729C42.5905 14.5924 42.9714 14.8456 43.39 15.0214L44.1644 13.1774C43.979 13.0995 43.8128 12.9886 43.6725 12.85L42.2671 14.2729ZM41.5072 13.1607C41.6866 13.5758 41.9449 13.9531 42.2652 14.2711L43.6743 12.8518C43.5332 12.7117 43.4205 12.5464 43.343 12.3672L41.5072 13.1607ZM41.5045 10.4261C41.1345 11.2984 41.1348 12.2811 41.5042 13.1537L43.346 12.3741C43.1874 11.9994 43.1877 11.5797 43.3457 11.207L41.5045 10.4261ZM43.3896 8.55929C42.5458 8.91411 41.868 9.57905 41.5061 10.4222L43.3441 11.2109C43.4984 10.8513 43.7909 10.5602 44.1649 10.4029L43.3896 8.55929ZM46.1312 8.55705C45.2559 8.19494 44.2712 8.19521 43.3956 8.5568L44.1589 10.4054C44.5462 10.2455 44.9814 10.2458 45.3667 10.4051L46.1312 8.55705ZM48.0194 10.4207C47.6573 9.58072 46.9821 8.9132 46.1351 8.55865L45.3628 10.4035C45.7336 10.5587 46.0264 10.8496 46.1828 11.2124L48.0194 10.4207ZM48.0217 13.1544C48.3916 12.2821 48.3914 11.2993 48.022 10.4267L46.1802 11.2064C46.3388 11.5811 46.3385 12.0008 46.1805 12.3735L48.0217 13.1544ZM46.1366 15.0212C46.9804 14.6664 47.6582 14.0014 48.02 13.1583L46.1821 12.3696C46.0278 12.7292 45.7353 13.0203 45.3613 13.1776L46.1366 15.0212ZM43.395 15.0234C44.2703 15.3855 45.2549 15.3853 46.1306 15.0237L45.3673 13.1751C44.98 13.335 44.5448 13.3347 44.1595 13.1753L43.395 15.0234ZM41.2277 15.8847V23.4264H43.2277V15.8847H41.2277ZM47.3175 14.8847H42.2277V16.8847H47.3175V14.8847ZM48.3175 20.8271V15.8847H46.3175V20.8271H48.3175ZM47.7783 22.6454C48.1537 22.1004 48.3433 21.4494 48.3167 20.7871L46.3183 20.8672C46.3275 21.0952 46.2625 21.3203 46.1313 21.5106L47.7783 22.6454ZM46.5078 23.7605C47.0054 23.4939 47.4337 23.1187 47.7629 22.667L46.1467 21.489C45.9931 21.6998 45.7935 21.8742 45.5633 21.9976L46.5078 23.7605ZM44.9739 24.2894C45.5102 24.196 46.0282 24.0178 46.5083 23.7602L45.5628 21.9979C45.2723 22.1537 44.9578 22.2621 44.6308 22.3191L44.9739 24.2894ZM43.5055 24.4264C44.0005 24.4237 44.4952 24.3785 44.9852 24.2874L44.6194 22.3211C44.2508 22.3897 43.8751 22.4244 43.4948 22.4264L43.5055 24.4264ZM42.2277 24.4264H43.5001V22.4264H42.2277V24.4264ZM38.0965 13.7228C38.5709 13.7261 39.0409 13.6321 39.4771 13.4479L38.6992 11.6054C38.5123 11.6843 38.3116 11.7242 38.1105 11.7228L38.0965 13.7228ZM36.728 13.4461C37.1675 13.6341 37.6382 13.7261 38.1105 13.7228L38.0965 11.7228C37.8933 11.7243 37.6956 11.6847 37.5144 11.6072L36.728 13.4461ZM36.2626 13.1731C36.3476 13.2348 36.5036 13.3513 36.732 13.4478L37.5105 11.6055C37.5097 11.6052 37.5104 11.6057 37.5067 11.6034C37.5034 11.6014 37.4973 11.5974 37.4861 11.5895C37.4738 11.5809 37.4604 11.5712 37.4383 11.5551L36.2626 13.1731ZM36.0657 13.0502C36.1101 13.0717 36.1413 13.0898 36.166 13.1056C36.1933 13.123 36.2175 13.1403 36.2626 13.1731L37.4383 11.5551C37.3379 11.4822 37.1813 11.3679 36.9352 11.2491L36.0657 13.0502ZM35.5004 8.28542V12.1496H37.5004V8.28542H35.5004ZM36.2622 7.26236C36.2169 7.29534 36.1929 7.31253 36.1657 7.32981C36.1414 7.34535 36.1107 7.36321 36.0671 7.38421L36.9338 9.18663C37.1805 9.06799 37.3379 8.95305 37.4384 8.87999L36.2622 7.26236ZM36.732 6.98725C36.5034 7.08384 36.3469 7.20078 36.2622 7.26237L37.4384 8.87999C37.4606 8.86386 37.474 8.85415 37.4863 8.84552C37.4975 8.83762 37.5037 8.8336 37.507 8.83151C37.5108 8.82912 37.51 8.82972 37.5104 8.82953L36.732 6.98725ZM38.1069 6.71227C37.6331 6.70896 37.1645 6.80324 36.7297 6.98821L37.5127 8.82857C37.6963 8.75045 37.8937 8.71083 38.093 8.71222L38.1069 6.71227ZM39.4748 6.98714C39.0383 6.80286 38.5682 6.70897 38.093 6.71227L38.1069 8.71222C38.3095 8.71082 38.5102 8.75083 38.6968 8.82965L39.4748 6.98714ZM41.3562 8.84796C40.9941 8.00801 40.3189 7.34049 39.4719 6.98595L38.6997 8.83084C39.0704 8.98604 39.3632 9.27694 39.5196 9.63972L41.3562 8.84796ZM41.3597 11.5817C41.7297 10.7094 41.7296 9.72598 41.3582 8.85254L39.5177 9.63514C39.6767 10.0091 39.6765 10.4281 39.5185 10.8008L41.3597 11.5817ZM39.4758 13.4485C40.3204 13.0933 40.9966 12.4279 41.3581 11.5856L39.5202 10.7969C39.3655 11.1573 39.0737 11.448 38.7005 11.6049L39.4758 13.4485ZM36.2914 26.3987C36.4025 26.4224 36.4815 26.4434 36.5654 26.4658L37.0808 24.5333C36.9917 24.5096 36.8723 24.4776 36.7095 24.4428L36.2914 26.3987ZM35.5004 14.3131V25.4207H37.5004V14.3131H35.5004ZM41.2728 13.3131H36.5004V15.3131H41.2728V13.3131ZM42.2728 23.04V14.3131H40.2728V23.04H42.2728ZM41.8106 24.8037C42.1368 24.2594 42.296 23.6329 42.272 23.002L40.2735 23.0779C40.2828 23.3232 40.2208 23.5658 40.0951 23.7756L41.8106 24.8037ZM40.6602 25.94C41.122 25.66 41.5107 25.2778 41.7977 24.8247L40.108 23.7547C39.9859 23.9475 39.8204 24.1103 39.6235 24.2297L40.6602 25.94ZM39.2486 26.485C39.7452 26.3863 40.2217 26.2026 40.6556 25.9427L39.628 24.2269C39.3912 24.3688 39.1304 24.4693 38.8587 24.5233L39.2486 26.485ZM37.9122 26.6263C38.3623 26.6235 38.8151 26.5769 39.2609 26.4824L38.8464 24.5259C38.5383 24.5911 38.2205 24.6244 37.9 24.6263L37.9122 26.6263ZM37.0182 26.5623C37.3125 26.6042 37.6078 26.6249 37.9014 26.6263L37.9108 24.6263C37.7049 24.6253 37.5007 24.6108 37.3003 24.5823L37.0182 26.5623ZM36.5654 26.4658C36.6807 26.4965 36.8275 26.5365 37.0253 26.5633L37.2932 24.5813C37.2334 24.5732 37.1952 24.5638 37.0808 24.5333L36.5654 26.4658ZM18.8315 28.8119L35.377 31.6402L35.714 29.6688L19.1685 26.8405L18.8315 28.8119ZM18 5.82829V27.8262H20V5.82829H18ZM35.377 2.0143L18.8315 4.84258L19.1685 6.81399L35.714 3.9857L35.377 2.0143ZM36.5455 30.6545V3H34.5455V30.6545H36.5455ZM31.0317 10.4866L23.3958 10.9459L23.5158 12.9422L31.1518 12.483L31.0317 10.4866ZM32.0917 13.3699V11.4848H30.0917V13.3699H32.0917ZM28.272 14.4947L31.1356 14.369L31.0479 12.3709L28.1843 12.4966L28.272 14.4947ZM29.2281 21.7456V13.4956H27.2281V21.7456H29.2281ZM26.2617 22.6335L28.1704 22.7439L28.2859 20.7472L26.3772 20.6368L26.2617 22.6335ZM25.3194 13.5696V21.6352H27.3194V13.5696H25.3194ZM23.4956 14.6828L26.3592 14.5688L26.2797 12.5704L23.4161 12.6843L23.4956 14.6828ZM22.4558 11.9441V13.6835H24.4558V11.9441H22.4558Z" fill="black"/>
<path d="M13.244 35.8893C7.43391 30.1611 4.8286 24.6373 4.25221 22.5915L3.03757 23.7891C1.99198 24.82 1.67161 26.3713 2.37722 27.6525C3.86043 30.3456 6.60349 34.4569 10.6502 38.4466C14.5085 42.2506 18.1841 44.9444 20.6396 46.5029C21.9718 47.3484 23.6831 47.0782 24.8034 45.9737L26.3858 44.4136C24.426 43.9589 19.054 41.6176 13.244 35.8893Z" fill="#86EC16"/>
<path d="M5.15 21.7064C6.27496 20.5972 8.15761 20.8257 8.97613 22.1708L12.0887 27.2853C12.666 28.234 12.5144 29.4483 11.7209 30.2306L9.57941 32.342C8.45445 33.4511 6.57181 33.2226 5.75328 31.8776L2.64076 26.763C2.06343 25.8143 2.21506 24.6 3.00852 23.8177L5.15 21.7064Z" fill="#86EC16"/>
<path d="M27.2835 43.5284C28.4085 42.4193 28.1767 40.5631 26.8125 39.7561L21.625 36.6874C20.6627 36.1182 19.4311 36.2677 18.6376 37.05L16.4961 39.1613C15.3712 40.2705 15.603 42.1266 16.9672 42.9336L22.1547 46.0023C23.1169 46.5715 24.3486 46.422 25.1421 45.6398L27.2835 43.5284Z" fill="#86EC16"/>
</svg>
