<svg width="45" height="47" viewBox="0 0 45 47" fill="none" xmlns="http://www.w3.org/2000/svg">
<path fill-rule="evenodd" clip-rule="evenodd" d="M22.4023 0C19.4449 0 16.918 2.27433 16.918 5.19929C16.918 7.79903 18.8871 9.88455 21.3879 10.333V15.9095C19.3173 16.1666 17.4749 17.1895 16.2364 18.6978L10.768 15.7455C11.5256 13.4269 10.4797 10.779 8.21605 9.56211C7.31891 9.07979 6.3279 8.86056 5.36295 8.87324C3.52514 8.89738 1.76021 9.7831 0.750438 11.4319C0.749936 11.4329 0.735272 11.4308 0.734613 11.4319C0.733091 11.4345 0.736134 11.4456 0.734613 11.4483C-0.816242 13.9393 0.190662 17.2299 2.79519 18.6322C5.36964 19.9035 8.14946 19.1725 9.70603 17.5497L15.1744 20.4691C14.8193 21.3079 14.6038 22.2274 14.6038 23.1918C14.6038 24.1562 14.8193 25.0593 15.1744 25.8981L9.69016 28.834C8.64689 27.6843 7.17638 27.0511 5.64826 27.0298C4.68321 27.0161 3.69828 27.2465 2.79516 27.735C0.190642 29.1373 -0.816267 32.4443 0.734587 34.9353C0.735089 34.9353 0.749753 34.9353 0.750413 34.9353C2.29036 37.4498 5.61021 38.206 8.21603 36.8051C10.4845 35.5855 11.5381 32.9331 10.768 30.6217L16.2523 27.6859C17.4907 29.1866 19.3234 30.2179 21.3878 30.4741V36.0342C18.8871 36.4827 16.918 38.5682 16.918 41.1679C16.918 44.0928 19.4394 46.4 22.4023 46.4C25.3829 46.4 27.8866 44.0928 27.8866 41.1679C27.8866 38.5735 25.9232 36.4884 23.4167 36.0342V30.4741C25.4899 30.2145 27.319 29.1755 28.5523 27.6694L34.0366 30.6381C33.2566 32.9472 34.3082 35.5877 36.5727 36.8051C39.9077 38.384 42.6429 37.0875 44.07 34.9353C45.6 32.4484 44.6359 29.1403 42.0094 27.735C41.0573 27.2728 40.0392 27.0268 39.1563 27.0298C37.6254 27.0497 36.1359 27.6746 35.0986 28.834L29.6301 25.8981C29.9835 25.06 30.1849 24.1547 30.1849 23.1918C30.1849 22.229 29.9835 21.3073 29.6301 20.4691L35.0827 17.5333C36.7707 19.4247 39.6631 19.9175 41.9936 18.6486C41.9956 18.6475 41.9915 18.6333 41.9936 18.6322C41.9951 18.6311 42.0079 18.6332 42.0094 18.6322C44.6359 17.227 45.6 13.9352 44.07 11.4483V11.4319C43.049 9.78508 41.2677 8.89902 39.4258 8.87331C38.4609 8.85982 37.4907 9.08209 36.5885 9.56217H36.5727C34.3101 10.7786 33.2635 13.427 34.0366 15.7456L28.5523 18.6978C27.3191 17.1919 25.4896 16.1693 23.4167 15.9096V10.333C25.9232 9.87887 27.8866 7.79379 27.8866 5.19936C27.8866 2.2744 25.3775 6.40686e-05 22.4023 6.40686e-05L22.4023 0ZM22.4023 17.9269C25.6604 17.9269 28.1561 20.3486 28.1561 23.1918C28.1561 24.0803 27.9093 24.9247 27.4745 25.6684C27.451 25.7052 27.4298 25.7437 27.4111 25.7833C26.4352 27.3591 24.5905 28.4403 22.4023 28.4403C19.1694 28.4403 16.6327 26.0304 16.6327 23.1918C16.6327 20.3533 19.1694 17.9269 22.4023 17.9269Z" fill="url(#paint0_linear)"/>
<defs>
<linearGradient id="paint0_linear" x1="22.4" y1="0" x2="22.4" y2="46.4" gradientUnits="userSpaceOnUse">
<stop stop-color="#9BA3A2"/>
<stop offset="1" stop-color="#626A69"/>
</linearGradient>
</defs>
</svg>
