<svg width="70" height="70" viewBox="0 0 70 70" fill="none" xmlns="http://www.w3.org/2000/svg">
<path d="M59.9631 52.049L59.1709 51.4387L58.4704 52.3479L59.467 52.9173L59.9631 52.049ZM52.0369 52.049L52.533 52.9173L53.5296 52.3479L52.8291 51.4387L52.0369 52.049ZM60 49C60 49.9193 59.6911 50.7635 59.1709 51.4387L60.7552 52.6594C61.5355 51.6467 62 50.3762 62 49H60ZM56 45C58.2091 45 60 46.7909 60 49H62C62 45.6863 59.3137 43 56 43V45ZM52 49C52 46.7909 53.7909 45 56 45V43C52.6863 43 50 45.6863 50 49H52ZM52.8291 51.4387C52.3089 50.7635 52 49.9193 52 49H50C50 50.3762 50.4645 51.6467 51.2448 52.6594L52.8291 51.4387ZM49 59C49 56.397 50.4203 54.1244 52.533 52.9173L51.5408 51.1808C48.8304 52.7294 47 55.6503 47 59H49ZM49 64.9406V59H47V64.9406H49ZM50.0594 66C49.4743 66 49 65.5257 49 64.9406H47C47 66.6303 48.3697 68 50.0594 68V66ZM61.9406 66H50.0594V68H61.9406V66ZM63 64.9406C63 65.5257 62.5257 66 61.9406 66V68C63.6303 68 65 66.6303 65 64.9406H63ZM63 59V64.9406H65V59H63ZM59.467 52.9173C61.5797 54.1244 63 56.397 63 59H65C65 55.6503 63.1696 52.7294 60.4592 51.1808L59.467 52.9173Z" fill="white"/>
<path d="M17.9631 52.049L17.1709 51.4387L16.4704 52.3479L17.467 52.9173L17.9631 52.049ZM10.0369 52.049L10.533 52.9173L11.5296 52.3479L10.8291 51.4387L10.0369 52.049ZM18 49C18 49.9193 17.6911 50.7635 17.1709 51.4387L18.7552 52.6594C19.5355 51.6467 20 50.3762 20 49H18ZM14 45C16.2091 45 18 46.7909 18 49H20C20 45.6863 17.3137 43 14 43V45ZM10 49C10 46.7909 11.7909 45 14 45V43C10.6863 43 8 45.6863 8 49H10ZM10.8291 51.4387C10.3089 50.7635 10 49.9193 10 49H8C8 50.3762 8.46454 51.6467 9.2448 52.6594L10.8291 51.4387ZM7 59C7 56.397 8.42032 54.1244 10.533 52.9173L9.54083 51.1808C6.83043 52.7294 5 55.6503 5 59H7ZM7 64.9406V59H5V64.9406H7ZM8.05941 66C7.47431 66 7 65.5257 7 64.9406H5C5 66.6303 6.36974 68 8.05941 68V66ZM19.9406 66H8.05941V68H19.9406V66ZM21 64.9406C21 65.5257 20.5257 66 19.9406 66V68C21.6303 68 23 66.6303 23 64.9406H21ZM21 59V64.9406H23V59H21ZM17.467 52.9173C19.5797 54.1244 21 56.397 21 59H23C23 55.6503 21.1696 52.7294 18.4592 51.1808L17.467 52.9173Z" fill="white"/>
<path d="M40 33.5461C40 31.7613 41.0275 30.1761 42.2559 28.8813C43.9566 27.0886 45 24.6661 45 22C45 16.4772 40.5228 12 35 12C29.4772 12 25 16.4772 25 22C25 24.6661 26.0434 27.0886 27.7441 28.8813C28.9725 30.1761 30 31.7613 30 33.5461V35C30 37.2091 31.7909 39 34 39H36C38.2091 39 40 37.2091 40 35V33.5461Z" fill="#86EC16"/>
<path d="M15 22H21" stroke="#86EC16" stroke-width="2"/>
<path d="M55 22H49" stroke="#86EC16" stroke-width="2"/>
<path d="M52.3203 12L47.1242 15" stroke="#86EC16" stroke-width="2"/>
<path d="M45 4.67969L42 9.87584" stroke="#86EC16" stroke-width="2"/>
<path d="M35 2V8" stroke="#86EC16" stroke-width="2"/>
<path d="M25 4.67969L28 9.87584" stroke="#86EC16" stroke-width="2"/>
<path d="M17.6797 12L22.8758 15" stroke="#86EC16" stroke-width="2"/>
<circle cx="47.5" cy="31.5" r="2.5" stroke="white" stroke-width="2"/>
<circle r="2.5" transform="matrix(-1 0 0 1 22.5 31.5)" stroke="white" stroke-width="2"/>
<circle cx="53" cy="38" r="2" stroke="white" stroke-width="2"/>
<circle r="2" transform="matrix(-1 0 0 1 17 38)" stroke="white" stroke-width="2"/>
</svg>
