<svg width="48" height="48" viewBox="0 0 48 48" fill="none" xmlns="http://www.w3.org/2000/svg">
<line x1="8.74228e-08" y1="10" x2="48" y2="10" stroke="black" stroke-width="2"/>
<path fill-rule="evenodd" clip-rule="evenodd" d="M0 3C0 1.34315 1.34315 0 3 0H45C46.6569 0 48 1.34315 48 3V36C48 37.6569 46.6569 39 45 39H3C1.34315 39 0 37.6569 0 36V3ZM3 2C2.44772 2 2 2.44772 2 3V36C2 36.5523 2.44772 37 3 37H45C45.5523 37 46 36.5523 46 36V3C46 2.44771 45.5523 2 45 2H3Z" fill="black"/>
<circle cx="5.5" cy="5.5" r="1.5" fill="black"/>
<circle cx="10.5" cy="5.5" r="1.5" fill="black"/>
<circle cx="15.5" cy="5.5" r="1.5" fill="black"/>
<path d="M18.4999 17.3474C18.2326 17.0802 17.7579 17.1215 17.4396 17.4398C17.1213 17.7581 17.08 18.2328 17.3473 18.5001L21.7514 22.9043C22.0187 23.1716 22.4934 23.1302 22.8117 22.8119C23.13 22.4936 23.1714 22.0189 22.9041 21.7516L18.4999 17.3474Z" fill="black"/>
<path d="M14.6844 24.93C14.3064 24.93 14 25.2949 14 25.745C14 26.1951 14.3064 26.5601 14.6844 26.5601L20.9129 26.5601C21.2909 26.5601 21.5973 26.1951 21.5973 25.745C21.5973 25.2949 21.2909 24.93 20.9129 24.93L14.6844 24.93Z" fill="black"/>
<path d="M17.347 32.9898C17.0797 33.2571 17.121 33.7318 17.4393 34.0501C17.7576 34.3684 18.2323 34.4098 18.4996 34.1425L22.9038 29.7383C23.1711 29.471 23.1297 28.9963 22.8114 28.678C22.4931 28.3597 22.0184 28.3184 21.7511 28.5857L17.347 32.9898Z" fill="black"/>
<path d="M34.1452 18.4999C34.4125 18.2326 34.3712 17.7579 34.0529 17.4396C33.7346 17.1213 33.2599 17.08 32.9926 17.3473L28.5884 21.7514C28.3211 22.0187 28.3625 22.4934 28.6808 22.8117C28.9991 23.13 29.4738 23.1714 29.7411 22.9041L34.1452 18.4999Z" fill="black"/>
<path d="M25.7452 14H25.7444C25.2944 14 24.9297 14.3066 24.9297 14.6848V20.9129C24.9297 21.2911 25.2944 21.5977 25.7444 21.5977H25.7452C26.1951 21.5977 26.5599 21.2911 26.5599 20.9129V14.6848C26.5599 14.3066 26.1951 14 25.7452 14Z" fill="black"/>
<path fill-rule="evenodd" clip-rule="evenodd" d="M26.4923 26.0238L44.9942 32.9663C45.2554 33.0642 45.3148 33.4058 45.1017 33.5858L40.7768 37.2371L47.8932 44.3527C48.0356 44.4951 48.0356 44.7266 47.8932 44.8681L44.8684 47.8938C44.726 48.0354 44.4953 48.0354 44.3529 47.8938L37.2365 40.7774L33.5861 45.1014C33.4061 45.3146 33.0645 45.2561 32.9666 44.994L26.024 26.4921C25.9139 26.2011 26.2014 25.9145 26.4923 26.0238Z" fill="#86EC16"/>
</svg>
