<svg width="70" height="70" viewBox="0 0 70 70" fill="none" xmlns="http://www.w3.org/2000/svg">
<path d="M20.0031 35.3598L20.1367 35.4038C22.4014 36.3754 23.4026 36.352 23.8468 36.162L26.6087 34.9776C28.0892 34.3434 30.3333 34.3868 31.7194 35.0781C32.6276 35.5319 33.9525 35.9244 34.2878 36.0208L36.023 34.7951C37.3995 33.8263 39.6602 33.6445 41.1716 34.3785L45.2267 36.3513C46.1349 36.7941 47.6815 36.7122 48.5395 36.1771L48.6166 36.1337L49.5593 35.6593L47.9411 33.8098L53.8347 28.6509L67 43.9999L61.3114 49.0936L60.2744 47.9079L53.7362 53.6383C55.0129 54.9266 55.0666 57.0014 53.8237 58.3358L53.4002 58.7944C52.8569 59.3784 52.1539 59.7158 51.4212 59.8266M20.0031 35.3598L21.3589 33.8098L15.4653 28.6509L2.5 43.9999L7.98863 49.0936L9.29833 47.596M20.0031 35.3598L9.29833 47.596M9.29833 47.596L13.078 50.5286M31.5562 65.5866L33.8836 67.7529C34.5137 68.3396 35.3283 68.6577 36.1897 68.6577C36.2324 68.6577 36.2744 68.6564 36.3178 68.655C37.2246 68.6219 38.0633 68.2391 38.6775 67.5787L39.1072 67.1181C39.4557 66.7421 39.6967 66.298 39.8447 65.8215M39.8447 65.8215L40.8156 66.7221C41.4684 67.3267 42.2968 67.6262 43.1244 67.6262C44.0361 67.6262 44.9464 67.2627 45.613 66.5438L46.0378 66.0872C46.5109 65.5791 46.8042 64.9511 46.9027 64.2763M39.8447 65.8215L34.2878 60.2646M46.9027 64.2763C47.1554 64.3355 47.413 64.3761 47.6787 64.3761C47.7221 64.3761 47.7648 64.3754 47.8075 64.374C48.7144 64.3403 49.5531 63.9581 50.1714 63.2957L50.5949 62.8385C51.2112 62.1761 51.5314 61.3112 51.4983 60.403C51.4908 60.2067 51.4598 60.0153 51.4212 59.8266M46.9027 64.2763L37 54.4999M51.4212 59.8266L41.5 50.5286" stroke="black" stroke-width="2"/>
<path d="M12.9358 58.5872C12.4042 58.4398 11.9091 58.1782 11.5021 57.7898L11.0497 57.3587C10.3949 56.7356 10.0217 55.8914 10.001 54.9831C9.979 54.0756 10.3109 53.2155 10.9348 52.5607L12.3167 51.0458L13.6829 49.6624C14.2648 49.2376 14.9637 49 15.6853 49C16.5626 49 17.3944 49.3312 18.0272 49.9337L18.481 50.3682C18.7881 50.6983 19.4107 51.5009 19.4443 52.0711M12.9358 58.5872C12.263 59.8921 12.4793 61.533 13.5948 62.5989L14.0465 63.0265C14.6793 63.6304 15.5111 63.963 16.389 63.963C16.8242 63.963 17.2512 63.8714 17.6505 63.7116M12.9358 58.5872L19.4443 52.0711M17.6505 63.7116C17.8082 64.3135 18.1195 64.863 18.5787 65.2995L19.0346 65.7354C19.6674 66.3372 20.4985 66.6684 21.3751 66.6684C22.0237 66.6684 22.6517 66.4708 23.193 66.1265M17.6505 63.7116L24.1694 56.7741M23.193 66.1265C23.361 66.6416 23.6392 67.1277 24.0571 67.5271L24.5109 67.9595C25.1417 68.562 25.9728 68.8939 26.85 68.8939C27.7762 68.8939 28.672 68.5118 29.3303 67.8218L30.3632 66.665C30.5299 66.4901 30.6724 66.3014 30.795 66.1038C31.3034 65.467 31.3167 64.3695 31.2598 63.9003C31.1654 63.1511 30.8383 62.4254 30.2489 61.8635L29.7972 61.4372C29.1658 60.8334 28.3346 60.5008 27.4574 60.5008C27.4106 60.5008 27.3644 60.5138 27.3176 60.5152M23.193 66.1265L27.3176 60.5152M27.3176 60.5152C27.3148 59.6214 26.9685 58.7297 26.2723 58.0632L25.8206 57.6356C25.3572 57.1935 24.7864 56.9015 24.1694 56.7741M24.1694 56.7741C24.2906 56.4078 24.3601 56.0222 24.3512 55.6242C24.3291 54.7166 23.9573 53.8724 23.3059 53.2527L22.8507 52.8148C22.2186 52.2129 21.3875 51.8817 20.5102 51.8817C20.1439 51.8817 19.7872 51.9575 19.4443 52.0711" stroke="black" stroke-width="2"/>
<path d="M49.5593 35.6593L47.9411 33.8098L53.8347 28.6509L67 43.9999L61.3114 49.0936L60.2743 47.9079M49.5593 35.6593L48.6166 36.1337L48.5395 36.1771C47.6815 36.7122 46.1349 36.7941 45.2267 36.3513L41.1716 34.3785C39.6601 33.6445 37.3995 33.8263 36.023 34.7951L34.2878 36.0208L32.3226 37.4111L31.0445 38.3145C30.3029 38.8385 29.8154 39.6194 29.6729 40.5125C29.5303 41.4069 29.7507 42.3014 30.2905 43.0265L30.6638 43.5319C31.7497 44.9945 33.9042 45.418 35.466 44.476L37.1447 43.4596C37.9497 42.9755 40.5959 41.65 41.3775 42.1789C41.9462 42.7125 53.6205 53.5784 53.6205 53.5784L55.0211 52.2666L60.2743 47.9079M49.5593 35.6593L60.2743 47.9079" stroke="black" stroke-width="2"/>
<path d="M28.8201 19L35.0008 16.352L41.1799 19L40.5687 12.3107L45 7.25774L38.4394 5.77439L35.0008 0L31.5591 5.77439L25 7.25774L29.4298 12.3107L28.8201 19Z" fill="#86EC16"/>
<path d="M47.8648 22L52.5012 20.0488L57.136 22L56.6776 17.072L60 13.3482L55.081 12.2533L52.5012 8L49.9197 12.2533L45 13.3482L48.3224 17.072L47.8648 22Z" fill="#86EC16"/>
<path d="M12.864 22L17.5004 20.0488L22.1352 22L21.6776 17.072L25 13.3482L20.0803 12.2533L17.5004 8L14.919 12.2533L10 13.3482L13.3224 17.072L12.864 22Z" fill="#86EC16"/>
</svg>
