<svg xmlns="http://www.w3.org/2000/svg" xmlns:xlink="http://www.w3.org/1999/xlink" width="36" height="36" viewBox="0 0 36 36">
  <defs>
    <clipPath id="clip-path">
      <rect id="Rectangle_70" data-name="Rectangle 70" width="36" height="36" fill="#fff"/>
    </clipPath>
  </defs>
  <g id="phone-icon-spr" clip-path="url(#clip-path)">
    <path id="Path_74" data-name="Path 74" d="M1133.936,1262a16.519,16.519,0,0,1,16.51,16.51,1.713,1.713,0,0,1-3.426,0,13.089,13.089,0,0,0-13.084-13.1,1.7,1.7,0,1,1,0-3.408Zm.565,13.667a2.3,2.3,0,1,1-1.6.674A2.218,2.218,0,0,1,1134.5,1275.67Zm-2.278-5.121a1.711,1.711,0,0,1,1.713-1.713,9.683,9.683,0,0,1,9.677,9.677,1.7,1.7,0,1,1-3.408,0,6.269,6.269,0,0,0-6.269-6.269A1.7,1.7,0,0,1,1132.223,1270.549Zm-9.859-8.455a2.843,2.843,0,0,1,3.371,1.658l2.843,6.834a2.812,2.812,0,0,1-.82,3.3l-3.517,2.879a24.108,24.108,0,0,0,11.444,11.426l2.879-3.5a2.811,2.811,0,0,1,3.3-.82l6.834,2.843a2.832,2.832,0,0,1,1.64,3.371l-1.713,6.269a2.827,2.827,0,0,1-2.733,2.1A31.9,31.9,0,0,1,1114,1266.558a2.865,2.865,0,0,1,2.1-2.752Z" transform="translate(-1113.915 -1262.722)" fill="rgba(255,255,255,0.56)"/>
  </g>
</svg>
