<svg width="50" height="52" viewBox="0 0 50 52" fill="none" xmlns="http://www.w3.org/2000/svg">
<path d="M15.7408 9.40741C20.5556 9.40741 23.9198 14.3457 25 16.8148H18.9815C8.33335 16.8148 9.72224 9.40741 15.7408 9.40741Z" stroke="white" stroke-width="2"/>
<path d="M35.2834 9.40741C30.4686 9.40741 27.1044 14.3457 26.0242 16.8148H32.0427C42.6908 16.8148 41.3019 9.40741 35.2834 9.40741Z" stroke="white" stroke-width="2"/>
<rect x="8.40735" y="16.8889" width="33.1852" height="33.1852" stroke="white" stroke-width="2"/>
<rect x="24.0741" y="17.7408" width="1.85185" height="31.4815" fill="white"/>
<rect x="9.25928" y="34.4074" width="1.85185" height="31.4815" transform="rotate(-90 9.25928 34.4074)" fill="white"/>
<path fill-rule="evenodd" clip-rule="evenodd" d="M6.66257 15.8889H7.40741V30.7037H4C1.79086 30.7037 0 28.9128 0 26.7037V19.8889C0 18.1559 1.10204 16.6804 2.64353 16.1248C3.00547 7.15816 10.389 0 19.4444 0H30.5555C39.611 0 46.9945 7.15816 47.3565 16.1248C48.898 16.6804 50 18.1559 50 19.8889V26.7037C50 28.9128 48.2091 30.7037 46 30.7037H42.5926V15.8889H43.3374C42.863 9.24368 37.3216 4 30.5555 4H19.4444C12.6784 4 7.13704 9.24368 6.66257 15.8889Z" fill="#86EC16"/>
</svg>
