<svg width="70" height="71" viewBox="0 0 70 71" fill="none" xmlns="http://www.w3.org/2000/svg">
<path d="M43.9631 54.9088L43.1709 54.2984L42.4704 55.2076L43.467 55.777L43.9631 54.9088ZM36.0369 54.9088L36.533 55.777L37.5296 55.2076L36.8291 54.2984L36.0369 54.9088ZM32 65.8597H31V66.8597H32V65.8597ZM48 65.8597V66.8597H49V65.8597H48ZM44 51.8597C44 52.779 43.6911 53.6233 43.1709 54.2984L44.7552 55.5191C45.5355 54.5064 46 53.2359 46 51.8597H44ZM40 47.8597C42.2091 47.8597 44 49.6506 44 51.8597H46C46 48.546 43.3137 45.8597 40 45.8597V47.8597ZM36 51.8597C36 49.6506 37.7909 47.8597 40 47.8597V45.8597C36.6863 45.8597 34 48.546 34 51.8597H36ZM36.8291 54.2984C36.3089 53.6233 36 52.779 36 51.8597H34C34 53.2359 34.4645 54.5064 35.2448 55.5191L36.8291 54.2984ZM33 61.8597C33 59.2567 34.4203 56.9842 36.533 55.777L35.5408 54.0405C32.8304 55.5892 31 58.5101 31 61.8597H33ZM33 65.8597V61.8597H31V65.8597H33ZM48 64.8597H32V66.8597H48V64.8597ZM47 61.8597V65.8597H49V61.8597H47ZM43.467 55.777C45.5797 56.9842 47 59.2567 47 61.8597H49C49 58.5101 47.1696 55.5892 44.4592 54.0405L43.467 55.777Z" fill="black"/>
<path d="M22.9631 54.9088L22.1709 54.2984L21.4704 55.2076L22.467 55.777L22.9631 54.9088ZM15.0369 54.9088L15.533 55.777L16.5296 55.2076L15.8291 54.2984L15.0369 54.9088ZM11 65.8597H10V66.8597H11V65.8597ZM27 65.8597V66.8597H28V65.8597H27ZM23 51.8597C23 52.779 22.6911 53.6233 22.1709 54.2984L23.7552 55.5191C24.5355 54.5064 25 53.2359 25 51.8597H23ZM19 47.8597C21.2091 47.8597 23 49.6506 23 51.8597H25C25 48.546 22.3137 45.8597 19 45.8597V47.8597ZM15 51.8597C15 49.6506 16.7909 47.8597 19 47.8597V45.8597C15.6863 45.8597 13 48.546 13 51.8597H15ZM15.8291 54.2984C15.3089 53.6233 15 52.779 15 51.8597H13C13 53.2359 13.4645 54.5064 14.2448 55.5191L15.8291 54.2984ZM12 61.8597C12 59.2567 13.4203 56.9842 15.533 55.777L14.5408 54.0405C11.8304 55.5892 10 58.5101 10 61.8597H12ZM12 65.8597V61.8597H10V65.8597H12ZM27 64.8597H11V66.8597H27V64.8597ZM26 61.8597V65.8597H28V61.8597H26ZM22.467 55.777C24.5797 56.9842 26 59.2567 26 61.8597H28C28 58.5101 26.1696 55.5892 23.4592 54.0405L22.467 55.777Z" fill="black"/>
<path d="M64.9631 54.9088L64.1709 54.2984L63.4704 55.2076L64.467 55.777L64.9631 54.9088ZM57.0369 54.9088L57.533 55.777L58.5296 55.2076L57.8291 54.2984L57.0369 54.9088ZM53 65.8597H52V66.8597H53V65.8597ZM69 65.8597V66.8597H70V65.8597H69ZM65 51.8597C65 52.779 64.6911 53.6233 64.1709 54.2984L65.7552 55.5191C66.5355 54.5064 67 53.2359 67 51.8597H65ZM61 47.8597C63.2091 47.8597 65 49.6506 65 51.8597H67C67 48.546 64.3137 45.8597 61 45.8597V47.8597ZM57 51.8597C57 49.6506 58.7909 47.8597 61 47.8597V45.8597C57.6863 45.8597 55 48.546 55 51.8597H57ZM57.8291 54.2984C57.3089 53.6233 57 52.779 57 51.8597H55C55 53.2359 55.4645 54.5064 56.2448 55.5191L57.8291 54.2984ZM54 61.8597C54 59.2567 55.4203 56.9842 57.533 55.777L56.5408 54.0405C53.8304 55.5892 52 58.5101 52 61.8597H54ZM54 65.8597V61.8597H52V65.8597H54ZM69 64.8597H53V66.8597H69V64.8597ZM68 61.8597V65.8597H70V61.8597H68ZM64.467 55.777C66.5797 56.9842 68 59.2567 68 61.8597H70C70 58.5101 68.1696 55.5892 65.4592 54.0405L64.467 55.777Z" fill="black"/>
<path fill-rule="evenodd" clip-rule="evenodd" d="M19 10.8597C19 11.9853 18.6281 13.0241 18.0004 13.8597H32C33.1046 13.8597 34 14.7552 34 15.8597C34 16.9643 33.1046 17.8597 32 17.8597H19.917C19.9716 18.1849 20 18.519 20 18.8597V26.6528C20 26.6884 19.9992 26.7237 19.9975 26.7588C19.9992 26.7923 20 26.8259 20 26.8597V39.8597C20 40.9643 19.1046 41.8597 18 41.8597C16.8954 41.8597 16 40.9643 16 39.8597V28.8597H12V39.8597C12 40.9643 11.1046 41.8597 10 41.8597C8.89543 41.8597 8 40.9643 8 39.8597V26.8597C8 26.8259 8.00084 26.7923 8.0025 26.7588C8.00084 26.7237 8 26.6884 8 26.6528V18.8597C8 18.519 8.0284 18.1849 8.08296 17.8597H7C5.89543 17.8597 5 18.7552 5 19.8597V26.8597C5 27.9643 4.10457 28.8597 3 28.8597C1.89543 28.8597 1 27.9643 1 26.8597V19.8597C1 16.546 3.68629 13.8597 7 13.8597H9.99963C9.37194 13.0241 9 11.9853 9 10.8597C9 8.09832 11.2386 5.85974 14 5.85974C16.7614 5.85974 19 8.09832 19 10.8597Z" fill="#86EC16"/>
<path fill-rule="evenodd" clip-rule="evenodd" d="M25 7.85974H68V39.8597H25V19.8597H23V39.8597V41.8597H25H68H70V39.8597V7.85974V5.85974H68H25H23V7.85974V11.8597H25V7.85974Z" fill="black"/>
<path d="M39 21.8597L45.9282 33.8597H32.0718L39 21.8597Z" fill="#86EC16"/>
<circle cx="55" cy="20.8597" r="8" fill="#86EC16"/>
</svg>
