<svg width="79" height="51" viewBox="0 0 79 51" fill="none" xmlns="http://www.w3.org/2000/svg">
<rect width="79" height="51" fill="#141414"/>
<g clip-path="url(#clip0_6_2)">
<path opacity="0.38" d="M36.529 8.58789C36.827 8.58821 37.1215 8.65196 37.393 8.77489L49.531 13.9249C50.2605 14.2271 50.8842 14.7385 51.3236 15.3946C51.763 16.0508 51.9983 16.8222 52 17.6119C51.968 24.0069 49.338 35.7059 38.231 41.0239C37.7003 41.278 37.1194 41.4098 36.531 41.4098C35.9426 41.4098 35.3617 41.278 34.831 41.0239C23.721 35.7069 21.091 24.0069 21.058 17.6129C21.0594 16.8231 21.2947 16.0514 21.7341 15.3951C22.1735 14.7387 22.7973 14.2272 23.527 13.9249L35.672 8.77489C35.9408 8.65152 36.2332 8.58773 36.529 8.58789Z" fill="#2C6AF9"/>
<path d="M13.25 16.25V20H25.75V16.25C25.75 14.5924 25.0915 13.0027 23.9194 11.8306C22.7473 10.6585 21.1576 10 19.5 10C17.8424 10 16.2527 10.6585 15.0806 11.8306C13.9085 13.0027 13.25 14.5924 13.25 16.25ZM8.25 20V16.25C8.25 13.2663 9.43526 10.4048 11.545 8.29505C13.6548 6.18526 16.5163 5 19.5 5C22.4837 5 25.3452 6.18526 27.455 8.29505C29.5647 10.4048 30.75 13.2663 30.75 16.25V20H32C33.3261 20 34.5979 20.5268 35.5355 21.4645C36.4732 22.4021 37 23.6739 37 25V40C37 41.3261 36.4732 42.5979 35.5355 43.5355C34.5979 44.4732 33.3261 45 32 45H7C5.67392 45 4.40215 44.4732 3.46447 43.5355C2.52678 42.5979 2 41.3261 2 40V25C2 23.6739 2.52678 22.4021 3.46447 21.4645C4.40215 20.5268 5.67392 20 7 20H8.25Z" fill="#2C6AF9"/>
</g>
<defs>
<clipPath id="clip0_6_2">
<rect width="50" height="48" fill="white" transform="translate(2 1)"/>
</clipPath>
</defs>
</svg>
