<svg width="70" height="70" viewBox="0 0 70 70" fill="none" xmlns="http://www.w3.org/2000/svg">
<path d="M13.125 0H10.9375V2.1875H13.125V0Z" fill="url(#paint0_linear)"/>
<path d="M17.5 0H15.3125V2.1875H17.5V0Z" fill="url(#paint1_linear)"/>
<path d="M26.25 0H24.0625V2.1875H26.25V0Z" fill="url(#paint2_linear)"/>
<path d="M30.625 0H28.4375V2.1875H30.625V0Z" fill="url(#paint3_linear)"/>
<path d="M35 0H32.8125V2.1875H35V0Z" fill="url(#paint4_linear)"/>
<path d="M43.75 0H41.5625V2.1875H43.75V0Z" fill="url(#paint5_linear)"/>
<path d="M39.375 0H37.1875V2.1875H39.375V0Z" fill="url(#paint6_linear)"/>
<path d="M48.125 0H45.9375V2.1875H48.125V0Z" fill="url(#paint7_linear)"/>
<path d="M56.875 0H54.6875V2.1875H56.875V0Z" fill="url(#paint8_linear)"/>
<path d="M61.25 0H59.0625V2.1875H61.25V0Z" fill="url(#paint9_linear)"/>
<path d="M8.75 67.8125H6.5625V70H8.75V67.8125Z" fill="url(#paint10_linear)"/>
<path d="M13.125 67.8125H10.9375V70H13.125V67.8125Z" fill="url(#paint11_linear)"/>
<path d="M21.875 67.8125H19.6875V70H21.875V67.8125Z" fill="url(#paint12_linear)"/>
<path d="M26.25 67.8125H24.0625V70H26.25V67.8125Z" fill="url(#paint13_linear)"/>
<path d="M30.625 67.8125H28.4375V70H30.625V67.8125Z" fill="url(#paint14_linear)"/>
<path d="M35 67.8125H32.8125V70H35V67.8125Z" fill="url(#paint15_linear)"/>
<path d="M39.375 67.8125H37.1875V70H39.375V67.8125Z" fill="url(#paint16_linear)"/>
<path d="M48.125 67.8125H45.9375V70H48.125V67.8125Z" fill="url(#paint17_linear)"/>
<path d="M52.5 67.8125H50.3125V70H52.5V67.8125Z" fill="url(#paint18_linear)"/>
<path d="M56.875 67.8125H54.6875V70H56.875V67.8125Z" fill="url(#paint19_linear)"/>
<path d="M61.25 67.8125H59.0625V70H61.25V67.8125Z" fill="url(#paint20_linear)"/>
<path d="M65.625 67.8125H63.4375V70H65.625V67.8125Z" fill="url(#paint21_linear)"/>
<path d="M70 6.5625H67.8125V8.75H70V6.5625Z" fill="url(#paint22_linear)"/>
<path d="M70 10.9375H67.8125V13.125H70V10.9375Z" fill="url(#paint23_linear)"/>
<path d="M70 17.5H67.8125V19.6875H70V17.5Z" fill="url(#paint24_linear)"/>
<path d="M70 21.875H67.8125V24.0625H70V21.875Z" fill="url(#paint25_linear)"/>
<path d="M70 30.625H67.8125V32.8125H70V30.625Z" fill="url(#paint26_linear)"/>
<path d="M70 41.5625H67.8125V43.75H70V41.5625Z" fill="url(#paint27_linear)"/>
<path d="M70 37.1875H67.8125V39.375H70V37.1875Z" fill="url(#paint28_linear)"/>
<path d="M70 45.9375H67.8125V48.125H70V45.9375Z" fill="url(#paint29_linear)"/>
<path d="M70 50.3125H67.8125V52.5H70V50.3125Z" fill="url(#paint30_linear)"/>
<path d="M70 26.25H67.8125V28.4375H70V26.25Z" fill="url(#paint31_linear)"/>
<path d="M70 56.875H67.8125V59.0625H70V56.875Z" fill="url(#paint32_linear)"/>
<path d="M70 61.25H67.8125V63.4375H70V61.25Z" fill="url(#paint33_linear)"/>
<path d="M4.375 65.625H65.625V4.375H4.375V65.625ZM6.5625 6.5625H63.4375V63.4375H6.5625V6.5625Z" fill="url(#paint34_linear)"/>
<path d="M2.1875 8.75H0V10.9375H2.1875V8.75Z" fill="url(#paint35_linear)"/>
<path d="M2.1875 4.375H0V6.5625H2.1875V4.375Z" fill="url(#paint36_linear)"/>
<path d="M2.1875 17.5H0V19.6875H2.1875V17.5Z" fill="url(#paint37_linear)"/>
<path d="M2.1875 21.875H0V24.0625H2.1875V21.875Z" fill="url(#paint38_linear)"/>
<path d="M2.1875 30.625H0V32.8125H2.1875V30.625Z" fill="url(#paint39_linear)"/>
<path d="M2.1875 35H0V37.1875H2.1875V35Z" fill="url(#paint40_linear)"/>
<path d="M2.1875 39.375H0V41.5625H2.1875V39.375Z" fill="url(#paint41_linear)"/>
<path d="M2.1875 43.75H0V45.9375H2.1875V43.75Z" fill="url(#paint42_linear)"/>
<path d="M2.1875 48.125H0V50.3125H2.1875V48.125Z" fill="url(#paint43_linear)"/>
<path d="M2.1875 52.5H0V54.6875H2.1875V52.5Z" fill="url(#paint44_linear)"/>
<path d="M2.1875 56.875H0V59.0625H2.1875V56.875Z" fill="url(#paint45_linear)"/>
<path d="M2.1875 61.25H0V63.4375H2.1875V61.25Z" fill="url(#paint46_linear)"/>
<path d="M59.0625 54.25L54.25 59.0625H8.75V61.25H55.125L61.25 55.125V13.125H59.0625V54.25Z" fill="url(#paint47_linear)"/>
<path d="M8.75 14.875V56.875H10.9375V15.75L15.75 10.9375H61.25V8.75H14.875L8.75 14.875Z" fill="url(#paint48_linear)"/>
<path d="M61.25 59.0625H59.0625V61.25H61.25V59.0625Z" fill="url(#paint49_linear)"/>
<path d="M10.9375 8.75H8.75V10.9375H10.9375V8.75Z" fill="url(#paint50_linear)"/>
<path d="M16.0763 45.9375C16.9513 47.5781 19.5763 48.4531 23.1857 48.4531C24.4982 48.4531 26.0294 48.3438 27.4513 48.125C29.4201 53.375 32.3732 56.875 34.9982 56.875C37.6232 56.875 40.5763 53.375 42.5451 48.125C43.9669 48.3438 45.3888 48.4531 46.8107 48.4531C50.42 48.4531 53.045 47.5781 53.92 45.9375C55.0138 44.0781 54.1388 40.6875 51.6232 36.9688C51.1857 36.3125 50.6388 35.6562 50.0919 35C50.6388 34.3438 51.1857 33.6875 51.6232 33.0312C54.1388 29.3125 55.0138 25.9219 53.92 24.0625C53.045 22.4219 50.42 21.5469 46.8107 21.5469C45.4982 21.5469 43.9669 21.6562 42.5451 21.875C40.5763 16.625 37.6232 13.125 34.9982 13.125C32.3732 13.125 29.4201 16.625 27.4513 21.875C26.0294 21.6562 24.6076 21.5469 23.1857 21.5469C19.5763 21.5469 16.9513 22.4219 16.0763 24.0625C14.9825 25.9219 15.8575 29.3125 18.3732 33.0312C18.8107 33.6875 19.3576 34.3438 19.9044 35C19.3576 35.6562 18.8107 36.3125 18.3732 36.9688C15.8575 40.6875 14.9825 44.0781 16.0763 45.9375ZM34.9982 54.6875C33.6857 54.6875 31.3888 52.0625 29.6388 47.6875C31.3888 47.25 33.2482 46.7031 34.9982 45.9375C36.7482 46.7031 38.6076 47.25 40.3576 47.6875C38.6076 52.0625 36.3107 54.6875 34.9982 54.6875ZM27.3419 35C27.3419 33.4688 27.4513 32.0469 27.5607 30.7344C28.6544 29.9688 29.8575 29.0938 31.17 28.4375C32.3732 27.6719 33.6857 27.125 34.9982 26.4688C36.3107 27.0156 37.6232 27.6719 38.8263 28.4375C40.1388 29.2031 41.3419 29.9688 42.4357 30.7344C42.545 32.0469 42.6544 33.4688 42.6544 35C42.6544 36.5312 42.545 37.9531 42.4357 39.2656C41.3419 40.0313 40.1388 40.9062 38.8263 41.5625C37.6232 42.3281 36.3107 42.875 34.9982 43.5312C33.6857 42.9844 32.3732 42.3281 31.17 41.5625C29.8575 40.7969 28.6544 40.0313 27.5607 39.2656C27.4513 37.9531 27.3419 36.5312 27.3419 35ZM25.2638 37.4062C24.2794 36.5312 23.5138 35.7656 22.8575 35C23.5138 34.2344 24.3888 33.4688 25.2638 32.5938C25.2638 33.3594 25.1544 34.125 25.1544 35C25.1544 35.7656 25.1544 36.6406 25.2638 37.4062ZM28.1076 27.6719C28.3263 26.4687 28.6544 25.375 28.9825 24.3906C30.0763 24.6094 31.17 24.9375 32.2638 25.375C31.6075 25.7031 30.8419 26.1406 30.1857 26.4688C29.4201 26.9063 28.7638 27.3437 28.1076 27.6719ZM37.8419 25.375C38.9357 25.0469 40.0294 24.7187 41.1232 24.3906C41.4513 25.375 41.7794 26.5781 41.9982 27.6719C41.3419 27.2344 40.6857 26.7969 40.0294 26.4688C39.2638 26.0313 38.4982 25.7031 37.8419 25.375ZM44.7326 32.5938C45.7169 33.4688 46.4825 34.2344 47.1388 35C46.4825 35.7656 45.6076 36.5312 44.7326 37.4062C44.7326 36.6406 44.8419 35.875 44.8419 35C44.8419 34.2344 44.8419 33.3594 44.7326 32.5938ZM41.8888 42.3281C41.67 43.5312 41.3419 44.625 41.0138 45.6094C39.92 45.3906 38.8263 45.0625 37.7325 44.625C38.3888 44.2969 39.1544 43.8594 39.8107 43.5312C40.5763 43.0938 41.2325 42.6562 41.8888 42.3281ZM30.0763 43.5312C30.7325 43.9688 31.4982 44.2969 32.1544 44.625C31.0607 44.9531 29.9669 45.2812 28.8732 45.6094C28.545 44.625 28.2169 43.5312 27.9982 42.3281C28.7638 42.6562 29.42 43.0938 30.0763 43.5312ZM49.7638 38.1719C52.1701 41.6719 52.3888 44.0781 52.0607 44.8438C51.6232 45.5 49.8732 46.2656 46.8107 46.2656C45.7169 46.2656 44.5138 46.1562 43.3107 45.9375C43.8575 44.1875 44.1857 42.3281 44.5138 40.4688C46.0451 39.2656 47.4669 37.9531 48.6701 36.6406C49.1076 37.2969 49.5451 37.7344 49.7638 38.1719ZM46.8107 23.7344C49.8732 23.7344 51.7325 24.5 52.0607 25.1562C52.4982 25.9219 52.2794 28.2188 49.7638 31.8281C49.4357 32.2656 49.1076 32.8125 48.5607 33.3594C47.2482 32.0469 45.9357 30.7344 44.4044 29.5312C44.0763 27.5625 43.7482 25.7031 43.2013 24.0625C44.4044 23.8438 45.6075 23.7344 46.8107 23.7344ZM34.9982 15.3125C36.3107 15.3125 38.6076 17.9375 40.3576 22.3125C38.6076 22.75 36.7482 23.2969 34.9982 24.0625C33.2482 23.2969 31.3888 22.75 29.6388 22.3125C31.3888 17.9375 33.6857 15.3125 34.9982 15.3125ZM20.2325 31.8281C17.8263 28.3281 17.6075 25.9219 17.9357 25.1562C18.3732 24.5 20.1232 23.7344 23.1857 23.7344C24.2794 23.7344 25.4825 23.8438 26.6857 24.0625C26.1388 25.8125 25.8107 27.6719 25.4825 29.5312C23.9513 30.7344 22.5294 32.0469 21.3263 33.3594C20.8888 32.7031 20.4513 32.2656 20.2325 31.8281ZM25.5919 40.4688C25.92 42.4375 26.2482 44.2969 26.795 45.9375C25.5919 46.1562 24.3888 46.2656 23.295 46.2656C20.2325 46.2656 18.4825 45.5 18.045 44.8438C17.6075 44.0781 17.8263 41.7813 20.3419 38.1719C20.6701 37.7344 20.9982 37.1875 21.5451 36.6406C22.6388 37.9531 24.0607 39.2656 25.5919 40.4688Z" fill="url(#paint51_linear)"/>
<path d="M35 38.2812C36.8122 38.2812 38.2812 36.8122 38.2812 35C38.2812 33.1878 36.8122 31.7188 35 31.7188C33.1878 31.7188 31.7188 33.1878 31.7188 35C31.7188 36.8122 33.1878 38.2812 35 38.2812Z" fill="url(#paint52_linear)"/>
<defs>
<linearGradient id="paint0_linear" x1="12.0312" y1="0" x2="12.0312" y2="2.1875" gradientUnits="userSpaceOnUse">
<stop stop-color="#AAEA39"/>
<stop offset="1" stop-color="#86EC16"/>
</linearGradient>
<linearGradient id="paint1_linear" x1="16.4062" y1="0" x2="16.4062" y2="2.1875" gradientUnits="userSpaceOnUse">
<stop stop-color="#AAEA39"/>
<stop offset="1" stop-color="#86EC16"/>
</linearGradient>
<linearGradient id="paint2_linear" x1="25.1562" y1="0" x2="25.1562" y2="2.1875" gradientUnits="userSpaceOnUse">
<stop stop-color="#AAEA39"/>
<stop offset="1" stop-color="#86EC16"/>
</linearGradient>
<linearGradient id="paint3_linear" x1="29.5312" y1="0" x2="29.5312" y2="2.1875" gradientUnits="userSpaceOnUse">
<stop stop-color="#AAEA39"/>
<stop offset="1" stop-color="#86EC16"/>
</linearGradient>
<linearGradient id="paint4_linear" x1="33.9062" y1="0" x2="33.9062" y2="2.1875" gradientUnits="userSpaceOnUse">
<stop stop-color="#AAEA39"/>
<stop offset="1" stop-color="#86EC16"/>
</linearGradient>
<linearGradient id="paint5_linear" x1="42.6562" y1="0" x2="42.6562" y2="2.1875" gradientUnits="userSpaceOnUse">
<stop stop-color="#AAEA39"/>
<stop offset="1" stop-color="#86EC16"/>
</linearGradient>
<linearGradient id="paint6_linear" x1="38.2812" y1="0" x2="38.2812" y2="2.1875" gradientUnits="userSpaceOnUse">
<stop stop-color="#AAEA39"/>
<stop offset="1" stop-color="#86EC16"/>
</linearGradient>
<linearGradient id="paint7_linear" x1="47.0312" y1="0" x2="47.0312" y2="2.1875" gradientUnits="userSpaceOnUse">
<stop stop-color="#AAEA39"/>
<stop offset="1" stop-color="#86EC16"/>
</linearGradient>
<linearGradient id="paint8_linear" x1="55.7812" y1="0" x2="55.7812" y2="2.1875" gradientUnits="userSpaceOnUse">
<stop stop-color="#AAEA39"/>
<stop offset="1" stop-color="#86EC16"/>
</linearGradient>
<linearGradient id="paint9_linear" x1="60.1562" y1="0" x2="60.1562" y2="2.1875" gradientUnits="userSpaceOnUse">
<stop stop-color="#AAEA39"/>
<stop offset="1" stop-color="#86EC16"/>
</linearGradient>
<linearGradient id="paint10_linear" x1="7.65625" y1="67.8125" x2="7.65625" y2="70" gradientUnits="userSpaceOnUse">
<stop stop-color="#AAEA39"/>
<stop offset="1" stop-color="#86EC16"/>
</linearGradient>
<linearGradient id="paint11_linear" x1="12.0312" y1="67.8125" x2="12.0312" y2="70" gradientUnits="userSpaceOnUse">
<stop stop-color="#AAEA39"/>
<stop offset="1" stop-color="#86EC16"/>
</linearGradient>
<linearGradient id="paint12_linear" x1="20.7812" y1="67.8125" x2="20.7812" y2="70" gradientUnits="userSpaceOnUse">
<stop stop-color="#AAEA39"/>
<stop offset="1" stop-color="#86EC16"/>
</linearGradient>
<linearGradient id="paint13_linear" x1="25.1562" y1="67.8125" x2="25.1562" y2="70" gradientUnits="userSpaceOnUse">
<stop stop-color="#AAEA39"/>
<stop offset="1" stop-color="#86EC16"/>
</linearGradient>
<linearGradient id="paint14_linear" x1="29.5312" y1="67.8125" x2="29.5312" y2="70" gradientUnits="userSpaceOnUse">
<stop stop-color="#AAEA39"/>
<stop offset="1" stop-color="#86EC16"/>
</linearGradient>
<linearGradient id="paint15_linear" x1="33.9062" y1="67.8125" x2="33.9062" y2="70" gradientUnits="userSpaceOnUse">
<stop stop-color="#AAEA39"/>
<stop offset="1" stop-color="#86EC16"/>
</linearGradient>
<linearGradient id="paint16_linear" x1="38.2812" y1="67.8125" x2="38.2812" y2="70" gradientUnits="userSpaceOnUse">
<stop stop-color="#AAEA39"/>
<stop offset="1" stop-color="#86EC16"/>
</linearGradient>
<linearGradient id="paint17_linear" x1="47.0312" y1="67.8125" x2="47.0312" y2="70" gradientUnits="userSpaceOnUse">
<stop stop-color="#AAEA39"/>
<stop offset="1" stop-color="#86EC16"/>
</linearGradient>
<linearGradient id="paint18_linear" x1="51.4062" y1="67.8125" x2="51.4062" y2="70" gradientUnits="userSpaceOnUse">
<stop stop-color="#AAEA39"/>
<stop offset="1" stop-color="#86EC16"/>
</linearGradient>
<linearGradient id="paint19_linear" x1="55.7812" y1="67.8125" x2="55.7812" y2="70" gradientUnits="userSpaceOnUse">
<stop stop-color="#AAEA39"/>
<stop offset="1" stop-color="#86EC16"/>
</linearGradient>
<linearGradient id="paint20_linear" x1="60.1562" y1="67.8125" x2="60.1562" y2="70" gradientUnits="userSpaceOnUse">
<stop stop-color="#AAEA39"/>
<stop offset="1" stop-color="#86EC16"/>
</linearGradient>
<linearGradient id="paint21_linear" x1="64.5312" y1="67.8125" x2="64.5312" y2="70" gradientUnits="userSpaceOnUse">
<stop stop-color="#AAEA39"/>
<stop offset="1" stop-color="#86EC16"/>
</linearGradient>
<linearGradient id="paint22_linear" x1="68.9062" y1="6.5625" x2="68.9062" y2="8.75" gradientUnits="userSpaceOnUse">
<stop stop-color="#AAEA39"/>
<stop offset="1" stop-color="#86EC16"/>
</linearGradient>
<linearGradient id="paint23_linear" x1="68.9062" y1="10.9375" x2="68.9062" y2="13.125" gradientUnits="userSpaceOnUse">
<stop stop-color="#AAEA39"/>
<stop offset="1" stop-color="#86EC16"/>
</linearGradient>
<linearGradient id="paint24_linear" x1="68.9062" y1="17.5" x2="68.9062" y2="19.6875" gradientUnits="userSpaceOnUse">
<stop stop-color="#AAEA39"/>
<stop offset="1" stop-color="#86EC16"/>
</linearGradient>
<linearGradient id="paint25_linear" x1="68.9062" y1="21.875" x2="68.9062" y2="24.0625" gradientUnits="userSpaceOnUse">
<stop stop-color="#AAEA39"/>
<stop offset="1" stop-color="#86EC16"/>
</linearGradient>
<linearGradient id="paint26_linear" x1="68.9062" y1="30.625" x2="68.9062" y2="32.8125" gradientUnits="userSpaceOnUse">
<stop stop-color="#AAEA39"/>
<stop offset="1" stop-color="#86EC16"/>
</linearGradient>
<linearGradient id="paint27_linear" x1="68.9062" y1="41.5625" x2="68.9062" y2="43.75" gradientUnits="userSpaceOnUse">
<stop stop-color="#AAEA39"/>
<stop offset="1" stop-color="#86EC16"/>
</linearGradient>
<linearGradient id="paint28_linear" x1="68.9062" y1="37.1875" x2="68.9062" y2="39.375" gradientUnits="userSpaceOnUse">
<stop stop-color="#AAEA39"/>
<stop offset="1" stop-color="#86EC16"/>
</linearGradient>
<linearGradient id="paint29_linear" x1="68.9062" y1="45.9375" x2="68.9062" y2="48.125" gradientUnits="userSpaceOnUse">
<stop stop-color="#AAEA39"/>
<stop offset="1" stop-color="#86EC16"/>
</linearGradient>
<linearGradient id="paint30_linear" x1="68.9062" y1="50.3125" x2="68.9062" y2="52.5" gradientUnits="userSpaceOnUse">
<stop stop-color="#AAEA39"/>
<stop offset="1" stop-color="#86EC16"/>
</linearGradient>
<linearGradient id="paint31_linear" x1="68.9062" y1="26.25" x2="68.9062" y2="28.4375" gradientUnits="userSpaceOnUse">
<stop stop-color="#AAEA39"/>
<stop offset="1" stop-color="#86EC16"/>
</linearGradient>
<linearGradient id="paint32_linear" x1="68.9062" y1="56.875" x2="68.9062" y2="59.0625" gradientUnits="userSpaceOnUse">
<stop stop-color="#AAEA39"/>
<stop offset="1" stop-color="#86EC16"/>
</linearGradient>
<linearGradient id="paint33_linear" x1="68.9062" y1="61.25" x2="68.9062" y2="63.4375" gradientUnits="userSpaceOnUse">
<stop stop-color="#AAEA39"/>
<stop offset="1" stop-color="#86EC16"/>
</linearGradient>
<linearGradient id="paint34_linear" x1="35" y1="4.375" x2="35" y2="65.625" gradientUnits="userSpaceOnUse">
<stop stop-color="#AAEA39"/>
<stop offset="1" stop-color="#86EC16"/>
</linearGradient>
<linearGradient id="paint35_linear" x1="1.09375" y1="8.75" x2="1.09375" y2="10.9375" gradientUnits="userSpaceOnUse">
<stop stop-color="#AAEA39"/>
<stop offset="1" stop-color="#86EC16"/>
</linearGradient>
<linearGradient id="paint36_linear" x1="1.09375" y1="4.375" x2="1.09375" y2="6.5625" gradientUnits="userSpaceOnUse">
<stop stop-color="#AAEA39"/>
<stop offset="1" stop-color="#86EC16"/>
</linearGradient>
<linearGradient id="paint37_linear" x1="1.09375" y1="17.5" x2="1.09375" y2="19.6875" gradientUnits="userSpaceOnUse">
<stop stop-color="#AAEA39"/>
<stop offset="1" stop-color="#86EC16"/>
</linearGradient>
<linearGradient id="paint38_linear" x1="1.09375" y1="21.875" x2="1.09375" y2="24.0625" gradientUnits="userSpaceOnUse">
<stop stop-color="#AAEA39"/>
<stop offset="1" stop-color="#86EC16"/>
</linearGradient>
<linearGradient id="paint39_linear" x1="1.09375" y1="30.625" x2="1.09375" y2="32.8125" gradientUnits="userSpaceOnUse">
<stop stop-color="#AAEA39"/>
<stop offset="1" stop-color="#86EC16"/>
</linearGradient>
<linearGradient id="paint40_linear" x1="1.09375" y1="35" x2="1.09375" y2="37.1875" gradientUnits="userSpaceOnUse">
<stop stop-color="#AAEA39"/>
<stop offset="1" stop-color="#86EC16"/>
</linearGradient>
<linearGradient id="paint41_linear" x1="1.09375" y1="39.375" x2="1.09375" y2="41.5625" gradientUnits="userSpaceOnUse">
<stop stop-color="#AAEA39"/>
<stop offset="1" stop-color="#86EC16"/>
</linearGradient>
<linearGradient id="paint42_linear" x1="1.09375" y1="43.75" x2="1.09375" y2="45.9375" gradientUnits="userSpaceOnUse">
<stop stop-color="#AAEA39"/>
<stop offset="1" stop-color="#86EC16"/>
</linearGradient>
<linearGradient id="paint43_linear" x1="1.09375" y1="48.125" x2="1.09375" y2="50.3125" gradientUnits="userSpaceOnUse">
<stop stop-color="#AAEA39"/>
<stop offset="1" stop-color="#86EC16"/>
</linearGradient>
<linearGradient id="paint44_linear" x1="1.09375" y1="52.5" x2="1.09375" y2="54.6875" gradientUnits="userSpaceOnUse">
<stop stop-color="#AAEA39"/>
<stop offset="1" stop-color="#86EC16"/>
</linearGradient>
<linearGradient id="paint45_linear" x1="1.09375" y1="56.875" x2="1.09375" y2="59.0625" gradientUnits="userSpaceOnUse">
<stop stop-color="#AAEA39"/>
<stop offset="1" stop-color="#86EC16"/>
</linearGradient>
<linearGradient id="paint46_linear" x1="1.09375" y1="61.25" x2="1.09375" y2="63.4375" gradientUnits="userSpaceOnUse">
<stop stop-color="#AAEA39"/>
<stop offset="1" stop-color="#86EC16"/>
</linearGradient>
<linearGradient id="paint47_linear" x1="35" y1="13.125" x2="35" y2="61.25" gradientUnits="userSpaceOnUse">
<stop stop-color="#AAEA39"/>
<stop offset="1" stop-color="#86EC16"/>
</linearGradient>
<linearGradient id="paint48_linear" x1="35" y1="8.75" x2="35" y2="56.875" gradientUnits="userSpaceOnUse">
<stop stop-color="#AAEA39"/>
<stop offset="1" stop-color="#86EC16"/>
</linearGradient>
<linearGradient id="paint49_linear" x1="60.1562" y1="59.0625" x2="60.1562" y2="61.25" gradientUnits="userSpaceOnUse">
<stop stop-color="#AAEA39"/>
<stop offset="1" stop-color="#86EC16"/>
</linearGradient>
<linearGradient id="paint50_linear" x1="9.84375" y1="8.75" x2="9.84375" y2="10.9375" gradientUnits="userSpaceOnUse">
<stop stop-color="#AAEA39"/>
<stop offset="1" stop-color="#86EC16"/>
</linearGradient>
<linearGradient id="paint51_linear" x1="34.9982" y1="13.125" x2="34.9982" y2="56.875" gradientUnits="userSpaceOnUse">
<stop stop-color="#AAEA39"/>
<stop offset="1" stop-color="#86EC16"/>
</linearGradient>
<linearGradient id="paint52_linear" x1="35" y1="31.7188" x2="35" y2="38.2812" gradientUnits="userSpaceOnUse">
<stop stop-color="#AAEA39"/>
<stop offset="1" stop-color="#86EC16"/>
</linearGradient>
</defs>
</svg>
