<svg width="148" height="98" viewBox="0 0 148 98" fill="none" xmlns="http://www.w3.org/2000/svg">
<path d="M147.174 20.3719L134.626 10.3879L122.079 0.403916C120.573 -0.760881 118.565 0.736713 118.231 3.06631L116.892 14.3815L112.04 10.3879L99.4927 0.403916C97.987 -0.760881 95.9794 0.736713 95.6448 3.06631L94.3063 14.3815L89.4545 10.3879L76.9068 0.403916C75.4011 -0.760881 73.3934 0.736713 73.0588 3.06631L70.5493 23.0343L68.0397 43.0022C67.7051 45.3318 69.5455 46.663 71.2185 45.6646L86.2758 35.6806L92.1314 31.687L90.793 43.0022C90.4584 45.3318 92.2987 46.663 93.9717 45.6646L109.029 35.6806L114.717 31.8534L113.212 43.0022C112.877 45.3318 114.717 46.663 116.39 45.6646L131.448 35.6806L146.505 25.6967C148.178 24.5319 148.513 21.5367 147.174 20.3719Z" fill="url(#paint0_linear)"/>
<path fill-rule="evenodd" clip-rule="evenodd" d="M34 9C34 6.79086 35.7909 5 38 5H59C61.2091 5 63 6.79086 63 9C63 11.2091 61.2091 13 59 13H38C35.7909 13 34 11.2091 34 9ZM19 23C19 20.7909 20.7909 19 23 19H58C60.2091 19 62 20.7909 62 23C62 25.2091 60.2091 27 58 27H23C20.7909 27 19 25.2091 19 23ZM4 33C1.79086 33 0 34.7909 0 37C0 39.2091 1.79086 41 4 41H55C57.2091 41 59 39.2091 59 37C59 34.7909 57.2091 33 55 33H4Z" fill="url(#paint1_linear)"/>
<defs>
<linearGradient id="paint0_linear" x1="108" y1="0" x2="108" y2="46" gradientUnits="userSpaceOnUse">
<stop stop-color="#AAEA39"/>
<stop offset="1" stop-color="#86EC16"/>
</linearGradient>
<linearGradient id="paint1_linear" x1="49" y1="41" x2="58.5" y2="-18.5" gradientUnits="userSpaceOnUse">
<stop stop-color="#626A69"/>
<stop offset="0.869792" stop-color="#9BA3A2"/>
</linearGradient>
</defs>
</svg>
