<svg width="70" height="70" viewBox="0 0 70 70" fill="none" xmlns="http://www.w3.org/2000/svg">
<path d="M28.8201 19L35.0008 16.352L41.1799 19L40.5687 12.3107L45 7.25774L38.4394 5.77439L35.0008 0L31.5591 5.77439L25 7.25774L29.4298 12.3107L28.8201 19Z" fill="#86EC16"/>
<path d="M8.82011 24.25L15.0008 21.602L21.1799 24.25L20.5687 17.5607L25 12.5077L18.4394 11.0244L15.0008 5.25L11.5591 11.0244L5 12.5077L9.42976 17.5607L8.82011 24.25Z" fill="#86EC16"/>
<path d="M48.8201 24.25L55.0008 21.602L61.1799 24.25L60.5687 17.5607L65 12.5077L58.4394 11.0244L55.0008 5.25L51.5591 11.0244L45 12.5077L49.4298 17.5607L48.8201 24.25Z" fill="#86EC16"/>
<circle cx="35" cy="49" r="19" stroke="black" stroke-width="2"/>
<path d="M45.9529 52.8574C45.4496 58.1478 40.9939 62.286 35.5716 62.286C30.1494 62.286 25.6937 58.1478 25.1904 52.8574H45.9529Z" stroke="black" stroke-width="2"/>
<circle cx="29.2856" cy="43.2861" r="3" stroke="black" stroke-width="2"/>
<circle cx="40.7144" cy="43.2861" r="3" stroke="black" stroke-width="2"/>
</svg>
