<svg width="51" height="50" viewBox="0 0 51 50" fill="none" xmlns="http://www.w3.org/2000/svg">
<path d="M30.4157 5.41674C33.6374 2.19442 38.8609 2.19442 42.0832 5.41674C44.7983 8.13116 45.2799 12.3659 43.2524 15.6125L49.4322 21.7917C51.1687 23.5282 48.5279 26.1683 46.7921 24.4325L40.6129 18.2533C37.3656 20.2802 33.1315 19.7986 30.4157 17.0829C27.1948 13.8619 27.1948 8.63771 30.4157 5.41674ZM33.0559 8.05686C31.2924 9.82033 31.2924 12.68 33.0559 14.4434C34.82 16.2062 37.679 16.2062 39.4424 14.4434C41.2059 12.68 41.2059 9.82033 39.4424 8.05686C37.679 6.29273 34.82 6.29273 33.0559 8.05686Z" fill="#86EC16"/>
<path d="M1 10V49H50" stroke="black" stroke-width="2"/>
<path d="M9.10693 44.7941V29.8823" stroke="black" stroke-width="2"/>
<path d="M25.1069 45V18" stroke="black" stroke-width="2"/>
<path d="M33.1069 45V30" stroke="black" stroke-width="2"/>
<path d="M41.1069 45V36" stroke="black" stroke-width="2"/>
<path d="M49.1069 45V33" stroke="black" stroke-width="2"/>
<path d="M17.1069 45V26" stroke="black" stroke-width="2"/>
</svg>
