<svg width="39" height="23" viewBox="0 0 39 23" fill="none" xmlns="http://www.w3.org/2000/svg">
<path d="M27.6857 0H11.0498C4.97445 0 0 4.93368 0 11.0498C0 17.1659 4.97445 22.0996 11.0498 22.0996H27.6449C33.761 22.0996 38.6947 17.1252 38.6947 11.0498C38.6947 4.97445 33.761 0 27.6857 0ZM27.6857 19.8978H11.0498C6.1569 19.8978 2.20181 15.9427 2.20181 11.0498C2.20181 6.1569 6.1569 2.20181 11.0498 2.20181H27.6449C32.5378 2.20181 36.4929 6.1569 36.4929 11.0498C36.4929 15.9427 32.5786 19.8978 27.6857 19.8978Z" fill="black"/>
<path d="M30.6214 9.66395L28.9904 9.41931L28.2565 7.91066C28.1749 7.78834 28.0526 7.66602 27.8895 7.66602C27.7264 7.66602 27.6041 7.74756 27.5226 7.91066L26.7886 9.41931L25.0761 9.62318C24.913 9.66395 24.7907 9.7455 24.7499 9.9086C24.7091 10.0717 24.7499 10.2348 24.8722 10.3163L26.0547 11.4988L25.7693 13.1705C25.7285 13.3336 25.81 13.456 25.9324 13.5783C26.0547 13.6598 26.2178 13.7006 26.3401 13.619L27.808 12.8443L29.3166 13.619C29.3574 13.6598 29.4389 13.6598 29.5205 13.6598C29.602 13.6598 29.6836 13.619 29.7651 13.5783C29.8875 13.4967 29.969 13.3336 29.9282 13.1705L29.6428 11.5396L30.866 10.3571C30.9884 10.2348 31.0291 10.0717 30.9884 9.94937C30.9068 9.78627 30.7845 9.66395 30.6214 9.66395Z" fill="black"/>
<path d="M22.1404 9.66395L20.5095 9.41931L19.7755 7.91066C19.694 7.78834 19.5717 7.66602 19.4086 7.66602C19.2455 7.66602 19.1231 7.74756 19.0416 7.91066L18.3077 9.41931L16.6359 9.66395C16.4728 9.70472 16.3505 9.78627 16.3097 9.94937C16.2689 10.1125 16.3097 10.2756 16.432 10.3571L17.6145 11.5396L17.3291 13.2113C17.2883 13.3744 17.3699 13.4967 17.4922 13.619C17.6145 13.7006 17.7776 13.7414 17.8999 13.6598L19.3678 12.8851L20.8764 13.6598C20.9172 13.7006 20.9988 13.7006 21.0803 13.7006C21.1619 13.7006 21.2434 13.6598 21.3249 13.619C21.4473 13.5375 21.5288 13.3744 21.488 13.2113L21.2026 11.5803L22.4259 10.3979C22.5482 10.2756 22.5889 10.1125 22.5482 9.99014C22.4259 9.78627 22.3035 9.66395 22.1404 9.66395Z" fill="black"/>
<path d="M13.6592 9.66395L11.9875 9.41931L11.2536 7.91066C11.172 7.78834 11.0497 7.66602 10.8866 7.66602C10.7235 7.66602 10.6012 7.74756 10.5196 7.91066L9.78569 9.41931L8.11394 9.66395C7.95085 9.70472 7.82853 9.78627 7.78775 9.94937C7.74698 10.1125 7.78775 10.2756 7.91007 10.3571L9.09252 11.5396L8.76633 13.1705C8.72556 13.3336 8.80711 13.456 8.92943 13.5783C9.05175 13.6598 9.21485 13.7006 9.33717 13.619L10.805 12.8443L12.3137 13.619C12.3545 13.6598 12.436 13.6598 12.5176 13.6598C12.5991 13.6598 12.6807 13.619 12.7622 13.5783C12.8845 13.4967 12.9661 13.3336 12.9253 13.1705L12.6399 11.5396L13.8631 10.3571C13.9854 10.2348 14.0262 10.0717 13.9854 9.94937C13.9447 9.78627 13.8223 9.66395 13.6592 9.66395Z" fill="black"/>
</svg>
