<svg width="70" height="70" viewBox="0 0 70 70" fill="none" xmlns="http://www.w3.org/2000/svg">
<path d="M59.4441 17.618L59.4578 17.6234L59.4717 17.6283C59.783 17.74 60 18.0671 60 18.383C60 51.2206 36.3334 64.3951 35.4608 64.854L35.4386 64.8657L35.4171 64.8784C35.2402 64.983 35.1513 65 35 65C34.963 65 34.9007 64.9921 34.8094 64.9637C34.7191 64.9356 34.621 64.8939 34.516 64.8422C33.6093 64.3952 10 51.2259 10 18.383C10 18.0671 10.217 17.74 10.5283 17.6283L10.5431 17.623L10.5577 17.6173C27.3007 11.0141 33.8475 5.72649 34.4099 5.23326L34.4104 5.23387C34.7583 4.92204 35.2416 4.92204 35.5895 5.23387L35.5901 5.23327C36.1546 5.7288 42.761 11.0765 59.4441 17.618Z" stroke="black" stroke-width="2"/>
<path fill-rule="evenodd" clip-rule="evenodd" d="M35 47C42.732 47 49 40.732 49 33C49 30.7995 48.4923 28.7176 47.5877 26.865L35.896 38.556L34.4818 39.9701L33.0676 38.5559L27.5858 33.0741L30.4142 30.2457L34.4819 34.3133L45.2895 23.5064C42.7316 20.7354 39.0684 19 35 19C27.268 19 21 25.268 21 33C21 40.732 27.268 47 35 47Z" fill="#86EC16"/>
</svg>
