<svg width="22" height="26" viewBox="0 0 22 26" fill="none" xmlns="http://www.w3.org/2000/svg">
<path d="M17.8673 3.9H15.7873C15.5273 1.69 13.5773 0 11.3673 0C9.15729 0 7.20729 1.69 6.94729 3.9H4.86729C2.65729 3.9 0.967285 5.59 0.967285 7.8V22.1C0.967285 24.31 2.65729 26 4.86729 26H17.8673C20.0773 26 21.7673 24.31 21.7673 22.1V7.8C21.7673 5.59 20.0773 3.9 17.8673 3.9ZM9.67729 5.46C9.54729 5.2 9.41729 4.81 9.41729 4.55C9.41729 3.51 10.3273 2.6 11.3673 2.6C12.4073 2.6 13.3173 3.51 13.3173 4.55C13.3173 4.94 13.1873 5.2 13.0573 5.46C12.7973 5.98 12.9273 6.76 13.4473 7.15L15.2673 8.45V9.1H7.46729V8.45L9.28728 7.15C9.80729 6.76 9.93729 5.98 9.67729 5.46ZM19.1673 22.1C19.1673 22.88 18.6473 23.4 17.8673 23.4H4.86729C4.08729 23.4 3.56729 22.88 3.56729 22.1V7.8C3.56729 7.02 4.08729 6.5 4.86729 6.5H5.64729L5.25729 6.76C4.99729 7.02 4.73729 7.41 4.73729 7.8L4.86729 10.4C4.86729 11.05 5.51729 11.7 6.16729 11.7H16.5673C17.3473 11.7 17.8673 11.18 17.8673 10.4V7.8C17.8673 7.41 17.6073 7.02 17.3473 6.76L16.9573 6.5H17.8673C18.6473 6.5 19.1673 7.02 19.1673 7.8V22.1Z" fill="black"/>
<path d="M13.9673 14.2999H8.76729C7.98729 14.2999 7.46729 14.8199 7.46729 15.5999C7.46729 16.3799 7.98729 16.8999 8.76729 16.8999H13.9673C14.7473 16.8999 15.2673 16.3799 15.2673 15.5999C15.2673 14.8199 14.7473 14.2999 13.9673 14.2999Z" fill="black"/>
<path d="M13.9673 18.2001H8.76729C7.98729 18.2001 7.46729 18.7201 7.46729 19.5001C7.46729 20.2801 7.98729 20.8001 8.76729 20.8001H13.9673C14.7473 20.8001 15.2673 20.2801 15.2673 19.5001C15.2673 18.7201 14.7473 18.2001 13.9673 18.2001Z" fill="black"/>
</svg>
