<?xml version="1.0" encoding="UTF-8" standalone="no"?>
<!-- Generator: Adobe Illustrator 23.0.6, SVG Export Plug-In . SVG Version: 6.00 Build 0)  -->

<svg
   version="1.1"
   x="0px"
   y="0px"
   viewBox="0 0 69.650002 70.349998"
   xml:space="preserve"
   id="svg94"
   sodipodi:docname="robot-head.svg"
   width="69.650002"
   height="70.349998"
   inkscape:version="1.1 (c68e22c387, 2021-05-23)"
   xmlns:inkscape="http://www.inkscape.org/namespaces/inkscape"
   xmlns:sodipodi="http://sodipodi.sourceforge.net/DTD/sodipodi-0.dtd"
   xmlns="http://www.w3.org/2000/svg"
   xmlns:svg="http://www.w3.org/2000/svg"
   xmlns:ns="&amp;ns_sfw;"><defs
   id="defs98" /><sodipodi:namedview
   id="namedview96"
   pagecolor="#ffffff"
   bordercolor="#666666"
   borderopacity="1.0"
   inkscape:pageshadow="2"
   inkscape:pageopacity="0.0"
   inkscape:pagecheckerboard="0"
   showgrid="false"
   inkscape:zoom="5.4933333"
   inkscape:cx="33.768204"
   inkscape:cy="30.309466"
   inkscape:window-width="1920"
   inkscape:window-height="1009"
   inkscape:window-x="-8"
   inkscape:window-y="-8"
   inkscape:window-maximized="1"
   inkscape:current-layer="Ebene_2" />
<style
   type="text/css"
   id="style2">
	.st0{display:none;}
	.st1{display:inline;fill:none;stroke:#86ED18;stroke-width:3;stroke-linejoin:round;stroke-miterlimit:10;}
	.st2{fill:#FFFFFF;stroke:#000000;stroke-width:1.75;stroke-miterlimit:10;}
	.st3{stroke:#FFFFFF;stroke-width:1.75;stroke-miterlimit:10;}
	.st4{fill:#FFFFFF;}
	.st5{fill:none;stroke:#86ED18;stroke-width:4;stroke-linejoin:round;stroke-miterlimit:10;}
	.st6{stroke:#000000;stroke-width:1.75;stroke-miterlimit:10;}
	.st7{fill:none;stroke:#86ED18;stroke-width:1.75;stroke-linejoin:round;stroke-miterlimit:10;}
	.st8{fill:none;stroke:#000000;stroke-width:1.75;stroke-miterlimit:10;}
</style>
<metadata
   id="metadata4">
	<ns:sfw>
		<ns:slices />
		<ns:sliceSourceBounds
   bottomLeftOrigin="true"
   height="147.8"
   width="16383"
   x="-7439.9"
   y="-585.7" />
	</ns:sfw>
</metadata>
<g
   id="Ebene_1"
   class="st0"
   transform="translate(-47.625,-0.92500019)">
	<circle
   class="st1"
   cx="81.5"
   cy="77"
   r="69.5"
   id="circle6" />
</g>
<g
   id="Ebene_2"
   transform="translate(-47.625,-0.92500019)">
	
	
	
	
	
	
	
	
	<polygon
   class="st2"
   points="80.5,19.6 84,19.6 83.4,9.1 81.1,9.1 "
   id="polygon26" />
	<ellipse
   class="st2"
   cx="82"
   cy="24.6"
   rx="8.8000002"
   ry="5.5"
   id="ellipse28" />
	<ellipse
   class="st2"
   cx="53"
   cy="46.700001"
   rx="4.5"
   ry="9.5"
   id="ellipse30" />
	<ellipse
   class="st2"
   cx="111.9"
   cy="46.700001"
   rx="4.5"
   ry="9.5"
   id="ellipse32" />
	<circle
   class="st2"
   cx="82.199997"
   cy="5.8000002"
   r="4"
   id="circle34" />
	<path
   class="st2"
   d="M 104,70.4 H 60.8 c -4.4,0 -8,-3.6 -8,-8 v -32 c 0,-4.4 3.6,-8 8,-8 H 104 c 4.4,0 8,3.6 8,8 v 32 c 0,4.4 -3.6,8 -8,8 z"
   id="path36" />
	<path
   class="st6"
   d="m 97,47.3 c 0.3,0 0.5,-0.2 0.5,-0.5 0,-0.3 -0.2,-0.5 -0.5,-0.5 -0.3,0 -0.5,0.2 -0.5,0.5 0,0.3 0.2,0.5 0.5,0.5 z"
   id="path38" />
	<path
   class="st6"
   d="m 94.5,49.7 c 0.3,0 0.5,-0.2 0.5,-0.5 0,-0.3 -0.2,-0.5 -0.5,-0.5 -0.3,0 -0.5,0.2 -0.5,0.5 -0.1,0.3 0.2,0.5 0.5,0.5 z"
   id="path40" />
	<path
   class="st6"
   d="m 101.8,47.3 c 0.3,0 0.5,-0.2 0.5,-0.5 0,-0.3 -0.2,-0.5 -0.5,-0.5 -0.3,0 -0.5,0.2 -0.5,0.5 0,0.3 0.2,0.5 0.5,0.5 z"
   id="path42" />
	<path
   class="st6"
   d="m 97,52.3 c 0.3,0 0.5,-0.2 0.5,-0.5 0,-0.3 -0.2,-0.5 -0.5,-0.5 -0.3,0 -0.5,0.2 -0.5,0.5 0,0.3 0.2,0.5 0.5,0.5 z"
   id="path44" />
	<path
   class="st6"
   d="m 101.8,52.3 c 0.3,0 0.5,-0.2 0.5,-0.5 0,-0.3 -0.2,-0.5 -0.5,-0.5 -0.3,0 -0.5,0.2 -0.5,0.5 0,0.3 0.2,0.5 0.5,0.5 z"
   id="path46" />
	<path
   class="st6"
   d="m 99.4,49.7 c 0.3,0 0.5,-0.2 0.5,-0.5 0,-0.3 -0.2,-0.5 -0.5,-0.5 -0.3,0 -0.5,0.2 -0.5,0.5 0,0.3 0.2,0.5 0.5,0.5 z"
   id="path48" />
	<path
   class="st6"
   d="m 104.5,49.7 c 0.3,0 0.5,-0.2 0.5,-0.5 0,-0.3 -0.2,-0.5 -0.5,-0.5 -0.3,0 -0.5,0.2 -0.5,0.5 0,0.3 0.2,0.5 0.5,0.5 z"
   id="path50" />
	<path
   class="st6"
   d="m 62.3,47.3 c 0.3,0 0.5,-0.2 0.5,-0.5 0,-0.3 -0.2,-0.5 -0.5,-0.5 -0.3,0 -0.5,0.2 -0.5,0.5 0,0.3 0.2,0.5 0.5,0.5 z"
   id="path52" />
	<path
   class="st6"
   d="m 59.9,49.7 c 0.3,0 0.5,-0.2 0.5,-0.5 0,-0.3 -0.2,-0.5 -0.5,-0.5 -0.3,0 -0.5,0.2 -0.5,0.5 -0.1,0.3 0.2,0.5 0.5,0.5 z"
   id="path54" />
	<path
   class="st6"
   d="m 67.1,47.3 c 0.3,0 0.5,-0.2 0.5,-0.5 0,-0.3 -0.2,-0.5 -0.5,-0.5 -0.3,0 -0.5,0.2 -0.5,0.5 0,0.3 0.2,0.5 0.5,0.5 z"
   id="path56" />
	<path
   class="st6"
   d="m 62.3,52.3 c 0.3,0 0.5,-0.2 0.5,-0.5 0,-0.3 -0.2,-0.5 -0.5,-0.5 -0.3,0 -0.5,0.2 -0.5,0.5 0,0.3 0.2,0.5 0.5,0.5 z"
   id="path58" />
	<path
   class="st6"
   d="m 67.1,52.3 c 0.3,0 0.5,-0.2 0.5,-0.5 0,-0.3 -0.2,-0.5 -0.5,-0.5 -0.3,0 -0.5,0.2 -0.5,0.5 0,0.3 0.2,0.5 0.5,0.5 z"
   id="path60" />
	<path
   class="st6"
   d="m 64.7,49.7 c 0.3,0 0.5,-0.2 0.5,-0.5 0,-0.3 -0.2,-0.5 -0.5,-0.5 -0.3,0 -0.5,0.2 -0.5,0.5 0,0.3 0.3,0.5 0.5,0.5 z"
   id="path62" />
	<path
   class="st6"
   d="m 69.8,49.7 c 0.3,0 0.5,-0.2 0.5,-0.5 0,-0.3 -0.2,-0.5 -0.5,-0.5 -0.3,0 -0.5,0.2 -0.5,0.5 0,0.3 0.2,0.5 0.5,0.5 z"
   id="path64" />
	<path
   class="st7"
   d="m 75.7,49.5 c 0,4.1 3.3,7.2 7.3,7.2 4,0 7.3,-3.3 7.3,-7.2"
   id="path66" />
	<path
   class="st8"
   d="m 91.6,40.9 c 1.1,0 2,-0.9 2,-2 0,-1.1 -0.9,-2 -2,-2 -1.1,0 -2,0.9 -2,2 0,1.1 0.9,2 2,2 z"
   id="path68" />
	<path
   class="st8"
   d="m 74.3,40.9 c 1.1,0 2,-0.9 2,-2 0,-1.1 -0.9,-2 -2,-2 -1.1,0 -2,0.9 -2,2 0,1.1 0.9,2 2,2 z"
   id="path70" />
	
	
	
	
	
	
	
	
	
	
	
</g>
</svg>
