<svg width="29" height="31" viewBox="0 0 29 31" fill="none" xmlns="http://www.w3.org/2000/svg">
<path d="M28.3617 15.2864C28.4866 15.4126 28.5795 15.5666 28.6327 15.7357C28.6859 15.9048 28.698 16.0841 28.6678 16.2587L27.9056 20.8915C27.8673 21.1202 27.7582 21.3313 27.5935 21.4952C27.4289 21.6591 27.2169 21.7678 26.9872 21.8059C26.9282 21.8108 26.8688 21.8108 26.8097 21.8059C26.4984 21.8061 26.1994 21.6846 25.9771 21.4676L25.1016 20.5959L19.2428 26.4418C19.1064 26.5777 18.9444 26.6855 18.766 26.7591C18.5877 26.8327 18.3966 26.8705 18.2036 26.8705C18.0106 26.8705 17.8195 26.8327 17.6411 26.7591C17.4628 26.6855 17.3008 26.5777 17.1644 26.4418L14.1921 23.4822L7.91697 29.7213C7.64135 29.9958 7.26753 30.1499 6.87775 30.1499C6.48796 30.1499 6.11414 29.9958 5.83852 29.7213C5.56291 29.4469 5.40806 29.0747 5.40806 28.6866C5.40806 28.2984 5.56291 27.9262 5.83852 27.6518L13.1452 20.3795C13.2817 20.2435 13.4437 20.1357 13.622 20.0621C13.8003 19.9886 13.9914 19.9507 14.1844 19.9507C14.3775 19.9507 14.5686 19.9886 14.7469 20.0621C14.9252 20.1357 15.0872 20.2435 15.2237 20.3795L18.1959 23.339L23.0263 18.5294L22.1416 17.6546C22.0234 17.5408 21.9314 17.4029 21.8717 17.2503C21.812 17.0978 21.7861 16.9342 21.7957 16.7707C21.813 16.5195 21.9148 16.2815 22.0848 16.0951C22.2548 15.9087 22.483 15.7848 22.7324 15.7436L27.3852 14.9786C27.4459 14.9683 27.5073 14.9632 27.5688 14.9633C27.8656 14.9625 28.1506 15.0787 28.3617 15.2864ZM5.89668 23.9211L6.99866 22.8361L8.06084 21.7785C8.29689 21.5516 8.44031 21.2459 8.46348 20.9201C8.48665 20.5942 8.38793 20.2714 8.18634 20.0137C8.07203 19.8752 7.92988 19.7619 7.76903 19.6813C7.60817 19.6007 7.43216 19.5544 7.2523 19.5455C7.07243 19.5366 6.89269 19.5653 6.7246 19.6296C6.55651 19.694 6.4038 19.7926 6.27625 19.9192L5.16203 21.0073C3.88025 19.3948 3.0766 17.4576 2.84177 15.4144H4.48248C4.82508 15.4144 5.15364 15.2789 5.3959 15.0377C5.63815 14.7965 5.77424 14.4693 5.77424 14.1282C5.77424 13.7871 5.63815 13.4599 5.3959 13.2187C5.15364 12.9775 4.82508 12.842 4.48248 12.842H2.85707C3.0873 10.8003 3.8856 8.86324 5.16203 7.24905L6.26401 8.3463C6.39155 8.47289 6.54427 8.57153 6.71236 8.63588C6.88045 8.70023 7.06019 8.72888 7.24006 8.71998C7.41992 8.71109 7.59593 8.66484 7.75678 8.58422C7.91764 8.50359 8.05978 8.39036 8.1741 8.25181C8.37483 7.99435 8.47303 7.67217 8.44986 7.34705C8.4267 7.02194 8.28381 6.71678 8.04859 6.49012L6.99866 5.43249C8.61808 4.15606 10.5636 3.35584 12.6157 3.12217V4.67356C12.6157 5.01468 12.7518 5.34184 12.994 5.58305C13.2363 5.82427 13.5648 5.95978 13.9074 5.95978C14.25 5.95978 14.5786 5.82427 14.8208 5.58305C15.0631 5.34184 15.1992 5.01468 15.1992 4.67356V3.12217L15.6277 3.18008C17.9421 3.56002 20.0753 4.6626 21.7192 6.32858L21.7682 6.37734C23.233 7.80616 24.2669 9.61477 24.7527 11.5984L24.768 11.6655C24.8434 12.012 25.0489 12.3167 25.3425 12.5173C25.6362 12.7179 25.9957 12.7991 26.3475 12.7444C26.5376 12.7086 26.7184 12.6345 26.8788 12.5269C27.0393 12.4193 27.1761 12.2802 27.2809 12.1183C27.3857 11.9563 27.4563 11.7749 27.4884 11.5849C27.5206 11.3949 27.5136 11.2004 27.4678 11.0132C26.9829 8.92324 26.0172 6.97394 24.6468 5.31891C23.2763 3.66388 21.5386 2.34834 19.5706 1.47596C17.6025 0.603586 15.4579 0.198198 13.3057 0.291746C11.1535 0.385293 9.05248 0.975218 7.16826 2.01504C5.28404 3.05486 3.66807 4.51616 2.44769 6.2838C1.22731 8.05144 0.435859 10.0771 0.135704 12.2012C-0.16445 14.3253 0.0348917 16.4898 0.718022 18.5241C1.40115 20.5585 2.54941 22.407 4.07231 23.9242C4.31486 24.1643 4.64313 24.2987 4.98513 24.2982C5.32713 24.2976 5.65494 24.162 5.89668 23.9211ZM20.3356 7.76719C20.1217 7.55168 19.8348 7.42323 19.5309 7.40689C19.227 7.39055 18.9278 7.48749 18.6918 7.6788L14.3452 11.1443C13.7326 11.0611 13.1091 11.1661 12.5581 11.4452C12.0071 11.7244 11.5548 12.1643 11.2616 12.7062C10.9684 13.2482 10.8484 13.8663 10.9175 14.4781C10.9866 15.0898 11.2415 15.6659 11.6483 16.1295C12.0551 16.593 12.5942 16.9219 13.1938 17.0722C13.7933 17.2224 14.4246 17.1869 15.0033 16.9703C15.582 16.7538 16.0805 16.3665 16.4322 15.8602C16.7839 15.354 16.9721 14.7529 16.9715 14.1373C16.9707 14.0007 16.9604 13.8642 16.9409 13.7289L20.4244 9.42526C20.6187 9.18926 20.7172 8.88926 20.7002 8.58453C20.6832 8.27979 20.552 7.99249 20.3325 7.77938L20.3356 7.76719Z" fill="black"/>
</svg>
