<svg width="47" height="47" viewBox="0 0 47 47" fill="none" xmlns="http://www.w3.org/2000/svg">
<path fill-rule="evenodd" clip-rule="evenodd" d="M34.5756 15H28.9999V13H36.9999H37.9999V14V22H35.9999V16.4041L26.7074 25.7067L25.9174 26.4976L25.2191 25.6247L21.8529 21.417L9.28961 31.7717L8.01758 30.2283L21.3639 19.2283L22.1469 18.583L22.7808 19.3753L26.0825 23.5024L34.5756 15Z" fill="white"/>
<path fill-rule="evenodd" clip-rule="evenodd" d="M31.9044 23.7266C32.9479 23.2519 33.6722 22.2096 33.6722 21C33.6722 19.3431 32.3131 18 30.6364 18C28.9598 18 27.6006 19.3431 27.6006 21C27.6006 22.4075 28.5814 23.5885 29.9044 23.9122L29.9044 37H31.9044L31.9044 23.7266Z" fill="#86EC16"/>
<circle cx="23.5" cy="23.5" r="22.5" stroke="white" stroke-width="2"/>
</svg>
