<svg width="70" height="70" viewBox="0 0 70 70" fill="none" xmlns="http://www.w3.org/2000/svg">
<path d="M43 26.8799L43 18.18H59.3599V12.96" stroke="black" stroke-width="2"/>
<path d="M45.4404 40.7998H59.3604V55.2998" stroke="black" stroke-width="2"/>
<circle cx="59.3597" cy="59.3597" r="3.63999" stroke="black" stroke-width="2"/>
<path d="M14.28 59.3597C14.28 61.37 12.6503 62.9997 10.64 62.9997C8.62968 62.9997 7 61.37 7 59.3597C7 57.3494 8.62968 55.7197 10.64 55.7197C12.6503 55.7197 14.28 57.3494 14.28 59.3597Z" stroke="black" stroke-width="2"/>
<circle cx="10.64" cy="10.64" r="3.63999" stroke="black" stroke-width="2"/>
<path d="M62.9997 10.64C62.9997 12.6503 61.37 14.28 59.3597 14.28C57.3494 14.28 55.7197 12.6503 55.7197 10.64C55.7197 8.62968 57.3494 7 59.3597 7C61.37 7 62.9997 8.62968 62.9997 10.64Z" stroke="black" stroke-width="2"/>
<circle cx="35.0003" cy="10.64" r="3.63999" stroke="black" stroke-width="2"/>
<path d="M38.6403 59.3597C38.6403 61.37 37.0107 62.9997 35.0003 62.9997C32.99 62.9997 31.3604 61.37 31.3604 59.3597C31.3604 57.3494 32.99 55.7197 35.0003 55.7197C37.0107 55.7197 38.6403 57.3494 38.6403 59.3597Z" stroke="black" stroke-width="2"/>
<path d="M11.2197 56.4603V50.0803H19.9995V44.2803H27.4597" stroke="black" stroke-width="2"/>
<path d="M25.7196 32.6802H10.6396V14.7002" stroke="black" stroke-width="2"/>
<path d="M35 44.2803V55.3003" stroke="black" stroke-width="2"/>
<path d="M35 14.1201V25.1401" stroke="black" stroke-width="2"/>
<path fill-rule="evenodd" clip-rule="evenodd" d="M24 21H30V25H40V21H46V25H51V46H19V25H24V21Z" fill="#DB00C5"/>
</svg>
