<svg width="56" height="31" viewBox="0 0 56 31" fill="none" xmlns="http://www.w3.org/2000/svg">
<path d="M50.4776 0C47.4326 0 44.9554 2.45462 44.9554 5.47188C44.9554 7.08629 45.6651 8.53919 46.7911 9.54165L41.647 15.9087C40.6701 15.044 39.3825 14.5171 37.9727 14.5171C36.3506 14.5171 34.8898 15.2138 33.8786 16.3208L23.9362 11.619C23.9933 11.304 24.0247 10.9803 24.0247 10.6493C24.0247 7.63213 21.5475 5.17739 18.5024 5.17739C15.4574 5.17739 12.9801 7.63201 12.9801 10.6493C12.9801 11.678 13.2686 12.6411 13.7688 13.464L7.16129 19.7023C6.64321 19.5424 6.09271 19.4562 5.52238 19.4562C2.47727 19.4562 0 21.9109 0 24.9281C0 27.9453 2.47727 30.4 5.52238 30.4C8.56736 30.4 11.0446 27.9454 11.0446 24.9281C11.0446 23.3981 10.4068 22.0137 9.38189 21.0196L15.5034 15.2402C16.3677 15.7964 17.3972 16.121 18.5024 16.121C20.324 16.121 21.9418 15.2421 22.9482 13.8903L32.6639 18.4851C32.5258 18.9632 32.4502 19.4672 32.4502 19.9889C32.4502 23.006 34.9274 25.4607 37.9726 25.4607C41.0177 25.4607 43.4949 23.0061 43.4949 19.9889C43.4949 19.2989 43.3641 18.639 43.1278 18.0304L49.0126 10.7466C49.4795 10.8742 49.9704 10.9436 50.4776 10.9436C53.5227 10.9436 56 8.48901 56 5.47175C55.9999 2.45461 53.5226 0 50.4776 0Z" fill="url(#paint0_linear)"/>
<defs>
<linearGradient id="paint0_linear" x1="28" y1="0" x2="28" y2="30.4" gradientUnits="userSpaceOnUse">
<stop stop-color="#9BA3A2"/>
<stop offset="1" stop-color="#626A69"/>
</linearGradient>
</defs>
</svg>
