<svg width="65" height="64" viewBox="0 0 65 64" fill="none" xmlns="http://www.w3.org/2000/svg">
<path fill-rule="evenodd" clip-rule="evenodd" d="M64.7918 7.9835V7H63.7755H46.7167V8.967L61.2558 8.967L41.8921 27.0367L36.3286 22.2764L35.642 21.6889L34.9882 22.3127L15.1406 41.25L16.5213 42.697L35.715 24.3835L41.2709 29.1373L41.9499 29.7183L42.6033 29.1086L62.7593 10.2995V24.4929L64.7918 24.4929V7.9835Z" fill="white"/>
<path d="M19.1705 39.1732C9.66717 29.976 5.40573 21.1072 4.46294 17.8224L2.47618 19.7452C0.765931 21.4004 0.241913 23.8912 1.39606 25.9483C3.82211 30.2723 8.30887 36.8733 14.928 43.2792C21.2389 49.3869 27.251 53.7119 31.2674 56.2142C33.4464 57.5718 36.2455 57.138 38.078 55.3645L40.6663 52.8596C37.4608 52.1297 28.6739 48.3705 19.1705 39.1732Z" fill="#86EC16"/>
<path d="M5.93144 16.4012C7.77151 14.6204 10.8509 14.9873 12.1898 17.1469L17.2808 25.3587C18.2252 26.8819 17.9771 28.8316 16.6793 30.0877L13.1765 33.4776C11.3365 35.2584 8.25705 34.8915 6.91821 32.732L1.82713 24.5201C0.882808 22.9969 1.13082 21.0472 2.42867 19.7912L5.93144 16.4012Z" fill="#86EC16"/>
<path d="M42.1348 51.4384C43.9748 49.6576 43.5957 46.6774 41.3643 45.3817L32.8792 40.4546C31.3053 39.5407 29.2907 39.7807 27.9928 41.0368L24.4901 44.4267C22.65 46.2075 23.0291 49.1877 25.2605 50.4835L33.7457 55.4105C35.3196 56.3245 37.3341 56.0844 38.632 54.8284L42.1348 51.4384Z" fill="#86EC16"/>
</svg>
