<svg width="140" height="142" viewBox="0 0 140 142" fill="none" xmlns="http://www.w3.org/2000/svg">
<path d="M70 36H132C136.418 36 140 39.5817 140 44V98C140 102.418 136.418 106 132 106H70V36Z" fill="#86EC16"/>
<path d="M85 70.9177C85 82.5046 93.9082 91.835 104.752 91.835C106.301 91.835 107.85 91.6295 109.302 91.2197V79.5307C107.947 80.3514 106.397 80.7611 104.752 80.7611C99.6199 80.7611 95.4576 76.3525 95.4576 70.9177C95.4576 65.4829 99.6199 61.0742 104.752 61.0742C106.399 61.0742 107.947 61.5873 109.302 62.3047V50.6156C107.819 50.1969 106.289 49.9899 104.753 50.0004C93.9082 50.0004 85 59.4341 85 70.9177ZM114.047 52.4612V89.3741C120.243 85.8883 124.503 78.9155 124.503 70.9177C124.503 62.9199 120.339 55.947 114.046 52.4612H114.047Z" fill="white"/>
<circle cx="70" cy="71" r="9" fill="#254856"/>
<path d="M0 44C0 39.5817 3.58172 36 8 36H70V106H8C3.58172 106 0 102.418 0 98V44Z" fill="#254856"/>
<path d="M30.001 54.784C31.9229 52.7998 34.5998 51.5454 37.5512 51.5454C41.4864 51.5454 44.8954 53.7349 46.7258 56.9735C48.3045 56.2665 50.0662 55.8788 51.9194 55.8788C59.0119 55.8788 64.7318 61.6491 64.7318 68.765C64.7318 75.8809 58.9891 81.6511 51.9194 81.6511C51.05 81.6511 50.2034 81.5599 49.4027 81.4002C47.8011 84.2512 44.7353 86.1898 41.2119 86.1898C39.7476 86.1898 38.352 85.8477 37.1165 85.2547C35.4921 89.0635 31.6941 91.7548 27.2784 91.7548C22.6797 91.7548 18.7444 88.8583 17.2344 84.7757C16.5709 84.9126 15.8845 84.981 15.1982 84.981C9.70713 84.981 5.26855 80.5108 5.26855 74.9686C5.26855 71.2738 7.25905 68.0351 10.2334 66.3018C9.61562 64.9105 9.27243 63.3596 9.27243 61.7175C9.24955 55.3998 14.4431 50.2454 20.8036 50.2454C24.5558 50.2454 27.8961 52.0243 30.001 54.784Z" fill="#00A1E0"/>
<path d="M12.8709 72.7755L13.1226 72.1141C13.1683 72.0001 13.237 72.0457 13.2827 72.0685C13.3514 72.1141 13.3971 72.1369 13.4886 72.2054C14.1979 72.6615 14.8614 72.6615 15.0673 72.6615C15.5935 72.6615 15.9367 72.3878 15.9367 72.0001V71.9773C15.9367 71.5668 15.4334 71.4071 14.8385 71.2246L14.7012 71.179C13.9005 70.951 13.0311 70.6088 13.0311 69.6053V69.5825C13.0311 68.6246 13.8089 67.9404 14.93 67.9404H15.0444C15.7079 67.9404 16.3257 68.1228 16.7833 68.4193C16.829 68.4421 16.8748 68.4878 16.8519 68.5562C16.829 68.6246 16.6231 69.1492 16.6002 69.2176C16.5545 69.3316 16.4401 69.2632 16.4401 69.2632C16.0282 69.0351 15.4105 68.8755 14.8843 68.8755C14.4038 68.8755 14.1064 69.1264 14.1064 69.4685V69.4913C14.1064 69.879 14.6326 70.0615 15.2275 70.2439L15.3419 70.2667C16.1426 70.5176 16.9892 70.8597 16.9892 71.8404V71.8632C16.9892 72.9124 16.2341 73.551 15.0215 73.551C14.4267 73.551 13.8547 73.4598 13.237 73.1405C13.1226 73.072 13.0082 73.0264 12.8938 72.9352C12.8709 72.8896 12.8251 72.8668 12.8709 72.7755ZM30.7167 72.7755L30.9684 72.1141C31.0142 72.0001 31.1057 72.0457 31.1285 72.0685C31.1972 72.1141 31.2429 72.1369 31.3345 72.2054C32.0437 72.6615 32.7072 72.6615 32.9131 72.6615C33.4394 72.6615 33.7825 72.3878 33.7825 72.0001V71.9773C33.7825 71.5668 33.2792 71.4071 32.6843 71.2246L32.5471 71.179C31.7463 70.951 30.8769 70.6088 30.8769 69.6053V69.5825C30.8769 68.6246 31.6548 67.9404 32.7759 67.9404H32.8903C33.5537 67.9404 34.1715 68.1228 34.6291 68.4193C34.6748 68.4421 34.7206 68.4878 34.6977 68.5562C34.6748 68.6246 34.4689 69.1492 34.446 69.2176C34.4003 69.3316 34.2859 69.2632 34.2859 69.2632C33.8741 69.0351 33.2563 68.8755 32.7301 68.8755C32.2496 68.8755 31.9522 69.1264 31.9522 69.4685V69.4913C31.9522 69.879 32.4784 70.0615 33.0733 70.2439L33.1877 70.2667C33.9885 70.5176 34.835 70.8597 34.835 71.8404V71.8632C34.835 72.9124 34.08 73.551 32.8674 73.551C32.2725 73.551 31.7005 73.4598 31.0828 73.1405C30.9684 73.072 30.854 73.0264 30.7396 72.9352C30.7396 72.8896 30.6938 72.8668 30.7167 72.7755ZM43.9409 69.6509C44.0325 69.993 44.1011 70.358 44.1011 70.7457C44.1011 71.1334 44.0553 71.4983 43.9409 71.8404C43.8494 72.1826 43.6893 72.479 43.4834 72.7299C43.2774 72.9808 43.0029 73.1861 42.7055 73.3229C42.3851 73.4598 42.0191 73.5282 41.6073 73.5282C41.1954 73.5282 40.8294 73.4598 40.509 73.3229C40.1887 73.1861 39.9371 72.9808 39.7312 72.7299C39.5252 72.479 39.3651 72.1826 39.2736 71.8404C39.182 71.4983 39.1134 71.1334 39.1134 70.7457C39.1134 70.358 39.1592 69.993 39.2736 69.6509C39.3651 69.3088 39.5252 69.0123 39.7312 68.7614C39.9371 68.5106 40.2116 68.3053 40.509 68.1685C40.8294 68.0316 41.1954 67.9404 41.6073 67.9404C42.0191 67.9404 42.3851 68.0088 42.7055 68.1685C43.0258 68.3053 43.2774 68.5106 43.4834 68.7614C43.6893 69.0123 43.8494 69.3088 43.9409 69.6509ZM42.9114 70.7229C42.9114 70.1299 42.797 69.6737 42.5911 69.3544C42.3851 69.0351 42.042 68.8755 41.6073 68.8755C41.1497 68.8755 40.8294 69.0351 40.6234 69.3544C40.4175 69.6737 40.3031 70.1299 40.3031 70.7229C40.3031 71.3159 40.4175 71.772 40.6234 72.1141C40.8294 72.4334 41.1497 72.5931 41.6073 72.5931C42.0648 72.5931 42.3851 72.4334 42.5911 72.1141C42.8199 71.7948 42.9114 71.3159 42.9114 70.7229ZM52.3147 72.4334L52.5664 73.1177C52.5893 73.2089 52.5207 73.2317 52.5207 73.2317C52.1317 73.3913 51.6055 73.4826 51.0793 73.4826C50.187 73.4826 49.5235 73.2317 49.0659 72.7299C48.6083 72.2282 48.3795 71.5439 48.3795 70.7001C48.3795 70.3123 48.4253 69.9474 48.5397 69.6053C48.6541 69.2632 48.8142 68.9667 49.043 68.7158C49.2718 68.4649 49.5464 68.2597 49.8667 68.1228C50.187 67.986 50.5759 67.8948 51.0106 67.8948C51.3081 67.8948 51.5597 67.9176 51.7656 67.9404C51.9944 67.986 52.3147 68.0544 52.452 68.1228C52.4749 68.1228 52.5435 68.1685 52.5207 68.2369C52.4291 68.5106 52.3605 68.693 52.269 68.9211C52.2232 69.0351 52.1546 68.9895 52.1546 68.9895C51.8114 68.8755 51.4911 68.8299 51.0793 68.8299C50.5759 68.8299 50.187 68.9895 49.9582 69.3316C49.7065 69.6509 49.5692 70.0843 49.5692 70.6773C49.5692 71.3159 49.7294 71.772 50.0039 72.0685C50.2785 72.365 50.6674 72.5019 51.1708 72.5019C51.3767 72.5019 51.5597 72.479 51.7199 72.4562C51.88 72.4334 52.0402 72.3878 52.2004 72.3194C52.1775 72.365 52.269 72.3422 52.3147 72.4334ZM57.5083 69.4457C57.7371 70.2211 57.6227 70.8825 57.5999 70.9281C57.5999 71.0194 57.5083 71.0194 57.5083 71.0194H54.0536C54.0765 71.5439 54.1908 71.9089 54.4654 72.1597C54.7171 72.4106 55.106 72.5703 55.6551 72.5703C56.4788 72.5703 56.822 72.4106 57.0736 72.3194C57.0736 72.3194 57.1651 72.2966 57.2109 72.3878L57.4397 73.0264C57.4855 73.1405 57.4397 73.1633 57.4168 73.1861C57.2109 73.3001 56.6847 73.5282 55.678 73.5282C55.1975 73.5282 54.7628 73.4598 54.4196 73.3229C54.0765 73.1861 53.779 73.0036 53.5502 72.7527C53.3214 72.5019 53.1613 72.2054 53.0469 71.8861C52.9325 71.5439 52.8867 71.179 52.8867 70.7913C52.8867 70.4036 52.9325 70.0387 53.0469 69.6965C53.1384 69.3544 53.2986 69.0579 53.5045 68.8071C53.7104 68.5562 53.9849 68.3509 54.3052 68.2141C54.6256 68.0544 55.0145 67.986 55.4492 67.986C55.8153 67.986 56.1585 68.0544 56.433 68.1913C56.6389 68.2825 56.8677 68.4421 57.0965 68.693C57.2109 68.7843 57.4168 69.1264 57.5083 69.4457ZM54.0765 70.1755H56.5245C56.5017 69.8562 56.433 69.5825 56.2957 69.3544C56.0898 69.0351 55.7924 68.8527 55.3348 68.8527C54.8772 68.8527 54.5569 69.0351 54.351 69.3544C54.2137 69.5597 54.1451 69.8334 54.0765 70.1755ZM29.8931 69.4457C30.1219 70.2211 30.0075 70.8825 30.0075 70.9281C30.0075 71.0194 29.9159 71.0194 29.9159 71.0194H26.4612C26.4841 71.5439 26.5985 71.9089 26.873 72.1597C27.1247 72.4106 27.5136 72.5703 28.0627 72.5703C28.8864 72.5703 29.2296 72.4106 29.4812 72.3194C29.4812 72.3194 29.5728 72.2966 29.6185 72.3878L29.8473 73.0264C29.8931 73.1405 29.8473 73.1633 29.8244 73.1861C29.6185 73.3001 29.0923 73.5282 28.0856 73.5282C27.6051 73.5282 27.1704 73.4598 26.8272 73.3229C26.4841 73.1861 26.1866 73.0036 25.9578 72.7527C25.729 72.5019 25.5689 72.2054 25.4545 71.8861C25.3401 71.5439 25.2943 71.179 25.2943 70.7913C25.2943 70.4036 25.3401 70.0387 25.4545 69.6965C25.546 69.3544 25.7062 69.0579 25.9121 68.8071C26.118 68.5562 26.3925 68.3509 26.7129 68.2141C27.0332 68.0544 27.4221 67.986 27.8568 67.986C28.2229 67.986 28.5661 68.0544 28.8406 68.1913C29.0465 68.2825 29.2753 68.4421 29.5041 68.693C29.5956 68.7843 29.8244 69.1264 29.8931 69.4457ZM26.4612 70.1755H28.9321C28.9093 69.8562 28.8406 69.5825 28.7033 69.3544C28.4974 69.0351 28.2 68.8527 27.7424 68.8527C27.2848 68.8527 26.9645 69.0351 26.7586 69.3544C26.5985 69.5597 26.5298 69.8334 26.4612 70.1755ZM20.3982 69.993C20.3982 69.993 20.6727 70.0159 20.9702 70.0615V69.9246C20.9702 69.4685 20.8786 69.2404 20.6956 69.1036C20.5126 68.9667 20.2151 68.8755 19.8491 68.8755C19.8491 68.8755 19.0025 68.8755 18.339 69.2176C18.3162 69.2404 18.2933 69.2404 18.2933 69.2404C18.2933 69.2404 18.2018 69.2632 18.1789 69.1948L17.9272 68.5334C17.8815 68.4421 17.9501 68.3965 17.9501 68.3965C18.2704 68.1456 19.0025 68.0088 19.0025 68.0088C19.2542 67.9632 19.666 67.9176 19.9177 67.9176C20.6041 67.9176 21.1303 68.0772 21.4964 68.3965C21.8624 68.7158 22.0455 69.2176 22.0455 69.9246V73.072C22.0455 73.072 22.0455 73.1633 21.9768 73.1861C21.9768 73.1861 21.8396 73.2317 21.7252 73.2545C21.6108 73.2773 21.1989 73.3685 20.8558 73.4141C20.5126 73.4826 20.1694 73.5054 19.8033 73.5054C19.4601 73.5054 19.1627 73.4826 18.8881 73.4141C18.6136 73.3457 18.3848 73.2545 18.1789 73.1177C17.9959 72.9808 17.8357 72.7983 17.7213 72.5703C17.6069 72.365 17.5611 72.0913 17.5611 71.7948C17.5611 71.4983 17.6298 71.2246 17.7442 70.9966C17.8586 70.7685 18.0416 70.586 18.2475 70.4264C18.4534 70.2667 18.7051 70.1755 18.9568 70.0843C19.2313 70.0159 19.5059 69.9702 19.8033 69.9702C20.0779 69.993 20.2609 69.993 20.3982 69.993ZM19.0254 72.4106C19.0254 72.4106 19.3457 72.6615 20.0321 72.6159C20.5355 72.5931 20.9702 72.5019 20.9702 72.5019V70.9281C20.9702 70.9281 20.5355 70.8597 20.0321 70.8597C19.3229 70.8597 19.0254 71.1106 19.0254 71.1106C18.8195 71.2474 18.728 71.4755 18.728 71.772C18.728 71.9545 18.7737 72.1141 18.8424 72.2282C18.8653 72.2738 18.8881 72.3194 19.0254 72.4106ZM48.1965 68.2369C48.1736 68.3281 47.9906 68.8071 47.9448 68.9667C47.9219 69.0351 47.8762 69.0579 47.8075 69.0579C47.8075 69.0579 47.6016 69.0123 47.4186 69.0123C47.3042 69.0123 47.1212 69.0351 46.961 69.0807C46.8008 69.1264 46.6636 69.2176 46.5263 69.3316C46.389 69.4457 46.2975 69.6281 46.2289 69.8334C46.1602 70.0387 46.1145 70.3808 46.1145 70.7457V73.3001C46.1145 73.3685 46.0687 73.4141 46.0001 73.4141H45.0849C45.0163 73.4141 44.9705 73.3685 44.9705 73.3001V68.1685C44.9705 68.1 45.0163 68.0544 45.062 68.0544H45.9543C46.0229 68.0544 46.0458 68.1 46.0458 68.1685V68.579C46.1831 68.3965 46.4119 68.2369 46.6178 68.1456C46.8237 68.0544 47.0754 67.986 47.5101 68.0088C47.7389 68.0316 48.0363 68.0772 48.0821 68.1C48.1736 68.1228 48.2194 68.1456 48.1965 68.2369ZM39.7083 65.8649C39.7311 65.8649 39.7998 65.9105 39.7769 65.9789L39.5024 66.7088C39.4795 66.7544 39.4566 66.8 39.3422 66.7544C39.3193 66.7544 39.2736 66.7316 39.1592 66.7088C39.0905 66.686 38.9761 66.686 38.8846 66.686C38.7473 66.686 38.6329 66.7088 38.5185 66.7316C38.4042 66.7544 38.3126 66.8228 38.2211 66.914C38.1296 67.0053 38.0381 67.1193 37.9694 67.279C37.8322 67.6439 37.7864 68.0316 37.7864 68.0544H38.8846C38.9761 68.0544 38.999 68.1 38.999 68.1685L38.8617 68.8755C38.8389 68.9895 38.7473 68.9667 38.7473 68.9667H37.6034L36.8712 73.3685C36.7797 73.8247 36.6882 74.2124 36.5738 74.5317C36.4594 74.851 36.3221 75.0791 36.1162 75.3072C35.9332 75.5124 35.7273 75.6721 35.4756 75.7405C35.2468 75.8317 34.9494 75.8773 34.6291 75.8773C34.4689 75.8773 34.3088 75.8773 34.1257 75.8317C33.9885 75.8089 33.9198 75.7861 33.8054 75.7405C33.7597 75.7177 33.7368 75.6721 33.7597 75.6037C33.7825 75.5352 33.9885 74.9879 34.0113 74.8966C34.0571 74.8054 34.1257 74.851 34.1257 74.851C34.1944 74.8738 34.2401 74.8966 34.3088 74.9194C34.4003 74.9422 34.4918 74.9422 34.5833 74.9422C34.7435 74.9422 34.8807 74.9194 34.9951 74.8738C35.1324 74.8282 35.2239 74.737 35.3155 74.6229C35.407 74.5089 35.4756 74.3492 35.5671 74.144C35.6358 73.9387 35.7044 73.6422 35.773 73.3001L36.5509 68.9895H35.7959C35.7044 68.9895 35.6815 68.9439 35.6815 68.8755L35.8188 68.1685C35.8417 68.0544 35.9332 68.0772 35.9332 68.0772H36.7111L36.7568 67.8492C36.8712 67.1649 37.1 66.6404 37.4432 66.2983C37.7864 65.9561 38.2898 65.7737 38.9075 65.7737C39.0905 65.7737 39.2507 65.7965 39.388 65.8193C39.4795 65.7965 39.5939 65.8193 39.7083 65.8649ZM24.2876 73.2773C24.2876 73.3457 24.2419 73.3913 24.1961 73.3913H23.281C23.2123 73.3913 23.1894 73.3457 23.1894 73.2773V65.9561C23.1894 65.9105 23.2352 65.8421 23.281 65.8421H24.1961C24.2648 65.8421 24.2876 65.8877 24.2876 65.9561V73.2773Z" fill="white"/>
<path d="M115.391 22C115.944 21.0434 115.616 19.8202 114.659 19.2679C113.703 18.7156 112.48 19.0434 111.927 20L115.391 22ZM110.124 27.1237L109.124 28.8557C110.08 29.408 111.304 29.0803 111.856 28.1237L110.124 27.1237ZM105 21.8561C104.043 21.3038 102.82 21.6316 102.268 22.5882C101.716 23.5447 102.043 24.7679 103 25.3202L105 21.8561ZM111.927 20L108.392 26.1237L111.856 28.1237L115.391 22L111.927 20ZM111.124 25.3916L105 21.8561L103 25.3202L109.124 28.8557L111.124 25.3916Z" fill="#AFB1B3"/>
<path d="M32 36C32 17.2223 49.9086 2 72 2C90.2121 2 105.582 12.3456 110.418 26.5" stroke="#AFB1B3" stroke-width="4"/>
<path d="M31.487 125.639C31.1785 126.699 31.7882 127.809 32.8488 128.118C33.9094 128.426 35.0193 127.816 35.3278 126.756L31.487 125.639ZM35.3823 119.408L35.9409 117.487C34.8803 117.179 33.7704 117.788 33.4619 118.849L35.3823 119.408ZM41.6134 123.303C42.674 123.611 43.7839 123.002 44.0924 121.941C44.4009 120.881 43.7912 119.771 42.7306 119.462L41.6134 123.303ZM35.3278 126.756L37.3027 119.966L33.4619 118.849L31.487 125.639L35.3278 126.756ZM34.8237 121.328L41.6134 123.303L42.7306 119.462L35.9409 117.487L34.8237 121.328Z" fill="#AFB1B3"/>
<path d="M112 106C112 124.778 94.0913 140 71.9999 140C55.5519 140 41.4226 131.562 35.2771 119.5" stroke="#AFB1B3" stroke-width="4"/>
</svg>
