<svg width="54" height="52" viewBox="0 0 54 52" fill="none" xmlns="http://www.w3.org/2000/svg">
<path fill-rule="evenodd" clip-rule="evenodd" d="M19.3485 20H22.6662C23.1769 20 23.5913 20.414 23.5913 20.925V31.0667C23.5913 31.5777 23.1769 31.9917 22.6662 31.9917H19.3485C16.7547 31.9917 14.6444 29.8812 14.6444 27.2871H9V24.7047H14.6444C14.6444 22.1105 16.7547 20 19.3485 20ZM34.2873 20C36.8811 20 38.9914 22.1105 38.9914 24.7047H44.6358V27.2871H38.9914C38.9914 29.8812 36.8811 31.9917 34.2873 31.9917H30.9696C30.4589 31.9917 30.0445 31.5777 30.0445 31.0667V29.2052H26.3113V27.3551H30.0445V24.4575H26.3113V22.6074H30.0445V20.925C30.0445 20.414 30.4589 20 30.9696 20H34.2873Z" fill="#86EC16"/>
<mask id="path-2-inside-1" fill="white">
<path fill-rule="evenodd" clip-rule="evenodd" d="M18.0359 44.0903C18.0473 42.5442 16.375 41.5704 15.036 42.3435L11.9659 44.116C11.0093 44.6683 9.78613 44.3405 9.23385 43.384L2.73903 32.1346C2.18674 31.178 2.51449 29.9548 3.47108 29.4026L6.5372 27.6323C7.87621 26.8593 7.86908 24.9241 6.52442 24.1609L3.56924 22.4836C2.59863 21.9327 2.26669 20.6941 2.83175 19.7316L9.51878 8.34229C10.0722 7.39962 11.28 7.07596 12.2307 7.61554L15.3171 9.36728C16.6447 10.1208 18.293 9.16914 18.3042 7.64265L18.3304 4.09481C18.3384 3.0017 19.2226 2.11757 20.3157 2.10959L33.5227 2.01313C34.6387 2.00498 35.5455 2.9118 35.5372 4.02781L35.5122 7.42421C35.5008 8.97032 37.1732 9.94407 38.5122 9.17099L41.5759 7.40212C42.5325 6.84984 43.7557 7.17759 44.308 8.13418L50.8028 19.3835C51.3551 20.3401 51.0273 21.5633 50.0708 22.1156L47.0025 23.8871C45.6635 24.6601 45.6706 26.5953 47.0152 27.3585L49.9711 29.0362C50.9417 29.587 51.2737 30.8257 50.7086 31.7881L44.0216 43.1775C43.4681 44.1202 42.2603 44.4438 41.3097 43.9043L38.231 42.1569C36.9034 41.4034 35.2551 42.355 35.2438 43.8815L35.2178 47.4232C35.2097 48.5163 34.3255 49.4004 33.2324 49.4084L20.0254 49.5049C18.9094 49.513 18.0027 48.6062 18.0109 47.4902L18.0359 44.0903Z"/>
</mask>
<path d="M35.2178 47.4232L37.2177 47.4379L35.2178 47.4232ZM35.2438 43.8815L37.2438 43.8963L35.2438 43.8815ZM44.0216 43.1775L42.2969 42.1649L44.0216 43.1775ZM41.3097 43.9043L40.3224 45.6436L41.3097 43.9043ZM49.9711 29.0362L50.9583 27.2968L49.9711 29.0362ZM50.7086 31.7881L48.9839 30.7755L50.7086 31.7881ZM47.0152 27.3585L46.028 29.0979L47.0152 27.3585ZM50.8028 19.3835L52.5349 18.3835L50.8028 19.3835ZM50.0708 22.1156L51.0708 23.8476L50.0708 22.1156ZM41.5759 7.40212L42.5759 9.13417L41.5759 7.40212ZM35.5122 7.42421L37.5122 7.43894L35.5122 7.42421ZM38.5122 9.17099L37.5122 7.43894L38.5122 9.17099ZM35.5372 4.02781L33.5373 4.01308L35.5372 4.02781ZM18.3304 4.09481L20.3303 4.10954L18.3304 4.09481ZM20.3157 2.10959L20.3011 0.109641L20.3157 2.10959ZM18.3042 7.64265L20.3042 7.65738L18.3042 7.64265ZM9.51878 8.34229L7.79408 7.32966L9.51878 8.34229ZM12.2307 7.61554L11.2435 9.35491L12.2307 7.61554ZM3.56924 22.4836L2.58202 24.223L3.56924 22.4836ZM2.83175 19.7316L4.55645 20.7443L2.83175 19.7316ZM6.5372 27.6323L7.5372 29.3644L6.5372 27.6323ZM6.52442 24.1609L7.51163 22.4215L6.52442 24.1609ZM2.73903 32.1346L4.47108 31.1346L2.73903 32.1346ZM3.47108 29.4026L2.47108 27.6705L3.47108 29.4026ZM11.9659 44.116L12.9659 45.8481L11.9659 44.116ZM9.23385 43.384L7.50179 44.384L9.23385 43.384ZM12.9659 45.8481L16.036 44.0756L14.036 40.6115L10.9659 42.384L12.9659 45.8481ZM1.00698 33.1346L7.50179 44.384L10.9659 42.384L4.47108 31.1346L1.00698 33.1346ZM5.5372 25.9003L2.47108 27.6705L4.47108 31.1346L7.5372 29.3644L5.5372 25.9003ZM7.51163 22.4215L4.55645 20.7443L2.58202 24.223L5.5372 25.9003L7.51163 22.4215ZM4.55645 20.7443L11.2435 9.35491L7.79408 7.32966L1.10705 18.719L4.55645 20.7443ZM11.2435 9.35491L14.3299 11.1067L16.3043 7.62791L13.2179 5.87617L11.2435 9.35491ZM16.3304 4.08007L16.3043 7.62791L20.3042 7.65738L20.3303 4.10954L16.3304 4.08007ZM33.5081 0.0131868L20.3011 0.109641L20.3303 4.10954L33.5373 4.01308L33.5081 0.0131868ZM37.5122 7.43894L37.5372 4.04254L33.5373 4.01308L33.5123 7.40948L37.5122 7.43894ZM40.5759 5.67007L37.5122 7.43894L39.5122 10.903L42.5759 9.13417L40.5759 5.67007ZM52.5349 18.3835L46.04 7.13417L42.5759 9.13418L49.0708 20.3835L52.5349 18.3835ZM48.0025 25.6191L51.0708 23.8476L49.0708 20.3835L46.0025 22.155L48.0025 25.6191ZM50.9583 27.2968L48.0025 25.6191L46.028 29.0979L48.9839 30.7755L50.9583 27.2968ZM45.7463 44.1901L52.4333 32.8008L48.9839 30.7755L42.2969 42.1649L45.7463 44.1901ZM37.2438 43.8963L40.3224 45.6436L42.2969 42.1649L39.2182 40.4175L37.2438 43.8963ZM37.2177 47.4379L37.2438 43.8963L33.2439 43.8668L33.2178 47.4085L37.2177 47.4379ZM20.04 51.5048L33.247 51.4083L33.2178 47.4085L20.0108 47.5049L20.04 51.5048ZM16.036 44.0756L16.0109 47.4754L20.0108 47.5049L20.0359 44.105L16.036 44.0756ZM20.0108 47.5049L20.0108 47.5049L16.0109 47.4754C15.9945 49.7075 17.808 51.5211 20.04 51.5048L20.0108 47.5049ZM33.2178 47.4085L33.2178 47.4085L33.247 51.4083C35.4332 51.3924 37.2016 49.6241 37.2177 47.4379L33.2178 47.4085ZM39.2182 40.4175C36.563 38.9105 33.2664 40.8138 33.2439 43.8668L37.2438 43.8963L37.2438 43.8963L39.2182 40.4175ZM42.2969 42.1649L42.2969 42.1649L40.3224 45.6436C42.2238 46.7228 44.6394 46.0754 45.7463 44.1901L42.2969 42.1649ZM48.9839 30.7755L48.9839 30.7755L52.4333 32.8008C53.5634 30.8759 52.8995 28.3986 50.9583 27.2968L48.9839 30.7755ZM46.0025 22.155C43.3244 23.7012 43.3387 27.5715 46.028 29.0979L48.0025 25.6191L48.0025 25.6191L46.0025 22.155ZM49.0708 20.3835L49.0708 20.3835L51.0708 23.8476C52.9839 22.7431 53.6394 20.2967 52.5349 18.3835L49.0708 20.3835ZM42.5759 9.13417L42.5759 9.13418L46.04 7.13417C44.9355 5.22101 42.4891 4.5655 40.5759 5.67007L42.5759 9.13417ZM33.5123 7.40948C33.4895 10.5017 36.8341 12.4492 39.5122 10.903L37.5122 7.43894L37.5122 7.43894L33.5123 7.40948ZM33.5373 4.01308L33.5373 4.01308L37.5372 4.04254C37.5536 1.81051 35.7401 -0.00311436 33.5081 0.0131868L33.5373 4.01308ZM20.3303 4.10954L20.3303 4.10954L20.3011 0.109641C18.1149 0.125608 16.3465 1.89388 16.3304 4.08007L20.3303 4.10954ZM14.3299 11.1067C16.9851 12.6137 20.2817 10.7104 20.3042 7.65738L16.3043 7.62791L16.3043 7.62791L14.3299 11.1067ZM11.2435 9.35491L11.2435 9.35491L13.2179 5.87617C11.3166 4.79702 8.90101 5.44434 7.79408 7.32966L11.2435 9.35491ZM4.55645 20.7443L4.55645 20.7443L1.10705 18.719C-0.023082 20.6439 0.640809 23.1212 2.58202 24.223L4.55645 20.7443ZM7.5372 29.3644C10.2152 27.8182 10.201 23.9479 7.51163 22.4215L5.5372 25.9003L5.5372 25.9003L7.5372 29.3644ZM4.47108 31.1346L4.47108 31.1346L2.47108 27.6705C0.557907 28.7751 -0.0975943 31.2214 1.00698 33.1346L4.47108 31.1346ZM16.036 44.0756L16.036 44.0756L20.0359 44.105C20.0586 41.0128 16.714 39.0653 14.036 40.6115L16.036 44.0756ZM10.9659 42.384L10.9659 42.384L7.50179 44.384C8.60636 46.2971 11.0527 46.9526 12.9659 45.8481L10.9659 42.384Z" fill="black" mask="url(#path-2-inside-1)"/>
</svg>
