<svg width="70" height="70" viewBox="0 0 70 70" fill="none" xmlns="http://www.w3.org/2000/svg">
<path fill-rule="evenodd" clip-rule="evenodd" d="M11 9.04576V9.04492H44C47.866 9.04492 51 12.1789 51 16.0449V49.8174H58H59V50.8174V57.0001C59 60.4587 56.0838 63.2011 52.6317 62.9888L23.9535 61.2252C19.0043 61.2002 15 57.1804 15 52.2254V21.5H6H5V20.5V15.0458C5 11.7321 7.68629 9.04576 11 9.04576ZM17 15.0458V19.4992V20.4992V20.5V21.4992V21.5V52.2254C17 56.0914 20.134 59.2254 24 59.2254H24.1073C27.8838 59.1652 31 55.9333 31 51.8628C31 51.5484 30.9813 51.2391 30.9451 50.9358L30.8117 49.8174H31.9381H49V16.0449C49 13.2835 46.7614 11.0449 44 11.0449H15.4722C16.4223 12.1064 17 13.5082 17 15.0449V15.0458ZM15 15.0458C15 12.8366 13.2091 11.0458 11 11.0458C8.79086 11.0458 7 12.8366 7 15.0458V19.5H11V19.4992L15 19.4992V15.0458ZM32.9999 51.8174L33 51.8628C33 55.0217 31.4872 57.8413 29.1542 59.5413L52.7545 60.9926C55.0558 61.1341 57 59.3058 57 57.0001V51.8174H32.9999Z" fill="#050505"/>
<rect x="36" y="16" width="28" height="28" rx="4" fill="#86EC16"/>
<path d="M48 38L52 22" stroke="black" stroke-width="2"/>
<path d="M45 25L41 30L45 35" stroke="black" stroke-width="2"/>
<path d="M55 25L59 30L55 35" stroke="black" stroke-width="2"/>
</svg>
