<svg width="70" height="70" viewBox="0 0 70 70" fill="none" xmlns="http://www.w3.org/2000/svg">
<path d="M16.292 37.2892L35.9343 26.0655L24.7106 45.7077C24.5173 46.046 24.4221 46.4314 24.4355 46.8207C24.4489 47.2101 24.5704 47.588 24.7865 47.9122L33.5557 61.0658C33.7736 61.3926 34.0788 61.6516 34.4366 61.8135C34.7944 61.9754 35.1904 62.0336 35.5796 61.9814C35.9689 61.9293 36.3357 61.769 36.6383 61.5187C36.9409 61.2684 37.1672 60.9382 37.2914 60.5657L53.8923 10.7616C54.0155 10.3919 54.0334 9.99526 53.9439 9.61602C53.8544 9.23679 53.6611 8.88998 53.3855 8.61445C53.11 8.33893 52.7632 8.14558 52.384 8.05609C52.0047 7.96659 51.6081 7.98448 51.2384 8.10775L1.43452 24.7089C1.06192 24.833 0.731662 25.0593 0.481335 25.362C0.231009 25.6646 0.070665 26.0314 0.0185512 26.4207C-0.0335627 26.81 0.0246466 27.2061 0.186555 27.5639C0.348463 27.9217 0.607567 28.2269 0.934381 28.4447L14.0882 37.2139C14.4123 37.4297 14.7901 37.5511 15.1794 37.5644C15.5686 37.5777 15.9539 37.4824 16.292 37.2892Z" fill="#86EC16"/>
<path fill-rule="evenodd" clip-rule="evenodd" d="M45.749 41.5168C47.9991 45.3932 52.1952 48 57.0001 48C64.1798 48 70.0001 42.1797 70.0001 35C70.0001 27.8203 64.1798 22 57.0001 22C55.1934 22 53.4729 22.3685 51.9095 23.0345L50.9933 25.7834C52.7202 24.6556 54.7836 24 57.0001 24C60.3358 24 63.3247 25.4848 65.342 27.8295L55.5209 37.488L51.8617 33.7854L50.4392 35.1913L54.7996 39.6034L55.5008 40.3129L56.212 39.6134L66.5165 29.4795C67.4598 31.1021 68.0001 32.9879 68.0001 35C68.0001 41.0751 63.0752 46 57.0001 46C52.2501 46 48.2033 42.9893 46.6638 38.7721L45.749 41.5168Z" fill="white"/>
</svg>
