<svg width="325" height="101" viewBox="0 0 325 101" fill="none" xmlns="http://www.w3.org/2000/svg">
<circle opacity="0.33" cx="162.5" cy="163.5" r="162.5" fill="url(#paint0_linear)"/>
<ellipse cx="117.515" cy="54.0331" rx="51.5147" ry="51.2938" fill="white" stroke="url(#paint1_linear)" stroke-width="4"/>
<ellipse cx="208.515" cy="54.0331" rx="51.5147" ry="51.2938" fill="white" stroke="url(#paint2_linear)" stroke-width="4"/>
<path fill-rule="evenodd" clip-rule="evenodd" d="M163.112 35.052C165.632 40.9645 167.026 47.4675 167.026 54.2938C167.026 81.5099 144.866 103.588 117.512 103.588V107.588C147.059 107.588 171.026 83.7353 171.026 54.2938C171.026 45.7144 168.991 37.6095 165.376 30.4312C164.544 31.9257 163.787 33.4676 163.112 35.052ZM160.848 30.4312C161.545 29.0475 162.301 27.6982 163.112 26.3866C153.691 11.1528 136.789 1 117.512 1V5C136.167 5 152.406 15.268 160.848 30.4312Z" fill="url(#paint3_linear)"/>
<path fill-rule="evenodd" clip-rule="evenodd" d="M111.43 58.0254V67.1696L108.478 70.1212C107.885 69.7715 107.194 69.5708 106.456 69.5708C104.254 69.5708 102.469 71.3559 102.469 73.5579C102.469 75.7598 104.254 77.5449 106.456 77.5449C108.658 77.5449 110.443 75.7598 110.443 73.5579C110.443 72.8197 110.242 72.1283 109.892 71.5354L113.137 68.2909C113.324 68.1034 113.43 67.849 113.43 67.5838V58.0254H111.43ZM117.404 58.0254V69.6973C115.686 70.141 114.417 71.7012 114.417 73.5579C114.417 75.7598 116.202 77.5449 118.404 77.5449C120.606 77.5449 122.391 75.7598 122.391 73.5579C122.391 71.7012 121.122 70.141 119.404 69.6973V58.0254H117.404ZM123.378 67.5838V58.0254H125.378V67.1696L128.329 70.1212C128.922 69.7715 129.614 69.5708 130.352 69.5708C132.554 69.5708 134.339 71.3559 134.339 73.5579C134.339 75.7598 132.554 77.5449 130.352 77.5449C128.15 77.5449 126.365 75.7598 126.365 73.5579C126.365 72.8197 126.565 72.1283 126.915 71.5354L123.671 68.2909C123.483 68.1034 123.378 67.849 123.378 67.5838ZM104.469 73.5579C104.469 72.4605 105.358 71.5708 106.456 71.5708C107.553 71.5708 108.443 72.4605 108.443 73.5579C108.443 74.6553 107.553 75.5449 106.456 75.5449C105.358 75.5449 104.469 74.6553 104.469 73.5579ZM118.404 71.5708C117.306 71.5708 116.417 72.4605 116.417 73.5579C116.417 74.6553 117.306 75.5449 118.404 75.5449C119.501 75.5449 120.391 74.6553 120.391 73.5579C120.391 72.4605 119.501 71.5708 118.404 71.5708ZM128.365 73.5579C128.365 72.4605 129.254 71.5708 130.352 71.5708C131.449 71.5708 132.339 72.4605 132.339 73.5579C132.339 74.6553 131.449 75.5449 130.352 75.5449C129.254 75.5449 128.365 74.6553 128.365 73.5579Z" fill="black"/>
<path fill-rule="evenodd" clip-rule="evenodd" d="M121.39 31.7393C127.988 31.7393 133.338 37.0886 133.338 43.6873C137.462 43.6873 140.805 47.0306 140.805 51.1548C140.805 55.279 137.462 58.6224 133.338 58.6224C133.336 58.6224 133.334 58.6224 133.332 58.6224H101.979C101.977 58.6224 101.976 58.6224 101.974 58.6224C98.6747 58.6224 96 55.9477 96 52.6483C96 49.349 98.6747 46.6743 101.974 46.6743C102.024 46.6743 102.074 46.6749 102.123 46.6761C102.814 43.2667 105.828 40.7003 109.442 40.7003C109.567 40.7003 109.692 40.7034 109.816 40.7095C111.139 35.5516 115.819 31.7393 121.39 31.7393Z" fill="#86EC16"/>
<path d="M203.439 62.776L202.699 62.103L201.808 63.0829L202.995 63.6718L203.439 62.776ZM194.561 62.776L195.005 63.6718L196.192 63.0829L195.301 62.103L194.561 62.776ZM189 77.7393H188V78.7393H189V77.7393ZM209 77.7393V78.7393H210V77.7393H209ZM204 58.7393C204 60.0353 203.508 61.2141 202.699 62.103L204.179 63.449C205.309 62.2063 206 60.5523 206 58.7393H204ZM199 53.7393C201.761 53.7393 204 55.9778 204 58.7393H206C206 54.8733 202.866 51.7393 199 51.7393V53.7393ZM194 58.7393C194 55.9778 196.239 53.7393 199 53.7393V51.7393C195.134 51.7393 192 54.8733 192 58.7393H194ZM195.301 62.103C194.492 61.2141 194 60.0353 194 58.7393H192C192 60.5523 192.691 62.2063 193.821 63.449L195.301 62.103ZM190 71.7393C190 68.2051 192.037 65.1448 195.005 63.6718L194.116 61.8802C190.494 63.6779 188 67.4164 188 71.7393H190ZM190 77.7393V71.7393H188V77.7393H190ZM209 76.7393H189V78.7393H209V76.7393ZM208 71.7393V77.7393H210V71.7393H208ZM202.995 63.6718C205.963 65.1448 208 68.2051 208 71.7393H210C210 67.4164 207.506 63.6779 203.884 61.8802L202.995 63.6718Z" fill="black"/>
<path fill-rule="evenodd" clip-rule="evenodd" d="M208 28.7393C206.895 28.7393 206 29.6347 206 30.7393V46.7393C206 47.8438 206.895 48.7393 208 48.7393H211V54.7393L219 48.7393H228C229.105 48.7393 230 47.8438 230 46.7393V30.7393C230 29.6347 229.105 28.7393 228 28.7393H208ZM219.572 36.5761L218 31.7393L216.428 36.5761H211.343L215.457 39.5655L213.886 44.4024L218 41.413L222.114 44.4024L220.543 39.5655L224.657 36.5761H219.572Z" fill="#86EC16"/>
<rect y="59" width="325" height="42" fill="url(#paint4_linear)"/>
<defs>
<linearGradient id="paint0_linear" x1="162.5" y1="1" x2="162.5" y2="326" gradientUnits="userSpaceOnUse">
<stop stop-color="#9BA3A2"/>
<stop offset="1" stop-color="#626A69"/>
</linearGradient>
<linearGradient id="paint1_linear" x1="117.515" y1="2.73926" x2="117.515" y2="105.327" gradientUnits="userSpaceOnUse">
<stop stop-color="#AAEA39"/>
<stop offset="1" stop-color="#86EC16"/>
</linearGradient>
<linearGradient id="paint2_linear" x1="208.515" y1="2.73926" x2="208.515" y2="105.327" gradientUnits="userSpaceOnUse">
<stop stop-color="#9BA3A2"/>
<stop offset="1" stop-color="#626A69"/>
</linearGradient>
<linearGradient id="paint3_linear" x1="144.269" y1="1" x2="144.269" y2="107.588" gradientUnits="userSpaceOnUse">
<stop stop-color="#AAEA39"/>
<stop offset="1" stop-color="#86EC16"/>
</linearGradient>
<linearGradient id="paint4_linear" x1="209.02" y1="96" x2="209.02" y2="59" gradientUnits="userSpaceOnUse">
<stop stop-color="white"/>
<stop offset="1" stop-color="#EEEEEE" stop-opacity="0"/>
</linearGradient>
</defs>
</svg>
