<svg width="50" height="51" viewBox="0 0 50 51" fill="none" xmlns="http://www.w3.org/2000/svg">
<path d="M45.866 8.40358C45.8529 8.14625 45.7363 7.90421 45.5414 7.72953C45.3465 7.55485 45.0888 7.46149 44.8237 7.46954C40.7052 7.53836 32.5591 6.86978 25.6578 1.23603C25.4745 1.08371 25.2412 1 25 1C24.7588 1 24.5255 1.08371 24.3422 1.23603C17.4409 6.86978 9.29484 7.53836 5.17628 7.46954C4.91123 7.46149 4.65353 7.55485 4.45861 7.72953C4.26368 7.90421 4.14712 8.14625 4.13399 8.40358C3.73934 18.3044 3.96196 30.8599 8.39422 36.7591C13.0289 42.9533 22.7333 48.2134 25 49C27.2667 48.2036 36.9711 42.9435 41.6058 36.7591C46.038 30.8599 46.2607 18.3044 45.866 8.40358Z" stroke="black" stroke-width="2"/>
<path d="M30.7548 22.0267V17.773C30.7548 14.5609 28.2019 12 25 12C21.7981 12 19.2452 14.5609 19.2452 17.773V22.0267C17.2548 23.6761 16 26.1937 16 28.9716C16 33.9633 20.024 38 25 38C29.976 38 34 33.9633 34 28.9716C34 26.2371 32.7452 23.7195 30.7548 22.0267ZM26.6442 28.5376V32.5743C26.6442 33.4858 25.9087 34.2237 25 34.2237C24.0913 34.2237 23.3558 33.4858 23.3558 32.5743V28.5376C22.75 28.0167 22.3606 27.3222 22.3606 26.4541C22.3606 24.9783 23.5288 23.8063 25 23.8063C26.4712 23.8063 27.6394 24.9783 27.6394 26.4541C27.6394 27.3222 27.2067 28.0167 26.6442 28.5376ZM28.9808 20.8982C27.8125 20.2905 26.4279 19.9866 25 19.9866C23.5721 19.9866 22.1875 20.3339 21.0192 20.8982V17.773C21.0192 15.6027 22.8365 13.7796 25 13.7796C27.1635 13.7796 28.9808 15.6027 28.9808 17.773V20.8982Z" fill="#86EC16"/>
</svg>
