<svg width="50" height="50" viewBox="0 0 50 50" fill="none" xmlns="http://www.w3.org/2000/svg">
<path d="M13.244 35.8893C7.43391 30.161 4.8286 24.6373 4.25221 22.5915L3.03757 23.7891C1.99198 24.82 1.67161 26.3713 2.37722 27.6525C3.86043 30.3456 6.60349 34.4569 10.6502 38.4466C14.5085 42.2506 18.1841 44.9444 20.6396 46.5029C21.9718 47.3484 23.6831 47.0782 24.8034 45.9737L26.3858 44.4136C24.426 43.9589 19.054 41.6176 13.244 35.8893Z" fill="#86EC16"/>
<path d="M5.15 21.7064C6.27496 20.5972 8.15761 20.8257 8.97613 22.1708L12.0887 27.2853C12.666 28.234 12.5144 29.4483 11.7209 30.2306L9.57941 32.342C8.45445 33.4511 6.57181 33.2226 5.75328 31.8776L2.64076 26.763C2.06343 25.8143 2.21506 24.6 3.00852 23.8177L5.15 21.7064Z" fill="#86EC16"/>
<path d="M27.2835 43.5284C28.4085 42.4193 28.1767 40.5631 26.8125 39.7561L21.625 36.6874C20.6627 36.1182 19.4311 36.2677 18.6376 37.05L16.4961 39.1613C15.3712 40.2705 15.603 42.1266 16.9672 42.9336L22.1547 46.0023C23.1169 46.5715 24.3486 46.422 25.1421 45.6398L27.2835 43.5284Z" fill="#86EC16"/>
<path fill-rule="evenodd" clip-rule="evenodd" d="M22 8C22 9.10457 22.8954 10 24 10C25.1046 10 26 9.10457 26 8C26 6.89543 25.1046 6 24 6C22.8954 6 22 6.89543 22 8ZM24 4C21.7909 4 20 5.79086 20 8C20 10.2091 21.7909 12 24 12C26.2091 12 28 10.2091 28 8C28 5.79086 26.2091 4 24 4ZM22 18C22 19.1046 22.8954 20 24 20C25.1046 20 26 19.1046 26 18C26 16.8954 25.1046 16 24 16C22.8954 16 22 16.8954 22 18ZM24 14C21.7909 14 20 15.7909 20 18C20 20.2091 21.7909 22 24 22C26.2091 22 28 20.2091 28 18C28 15.7909 26.2091 14 24 14ZM24 30C22.8954 30 22 29.1046 22 28C22 26.8954 22.8954 26 24 26C25.1046 26 26 26.8954 26 28C26 29.1046 25.1046 30 24 30ZM20 28C20 25.7909 21.7909 24 24 24C26.2091 24 28 25.7909 28 28C28 30.2091 26.2091 32 24 32C21.7909 32 20 30.2091 20 28ZM32 8C32 9.10457 32.8954 10 34 10C35.1046 10 36 9.10457 36 8C36 6.89543 35.1046 6 34 6C32.8954 6 32 6.89543 32 8ZM34 4C31.7909 4 30 5.79086 30 8C30 10.2091 31.7909 12 34 12C36.2091 12 38 10.2091 38 8C38 5.79086 36.2091 4 34 4ZM34 20C32.8954 20 32 19.1046 32 18C32 16.8954 32.8954 16 34 16C35.1046 16 36 16.8954 36 18C36 19.1046 35.1046 20 34 20ZM30 18C30 15.7909 31.7909 14 34 14C36.2091 14 38 15.7909 38 18C38 20.2091 36.2091 22 34 22C31.7909 22 30 20.2091 30 18ZM32 28C32 29.1046 32.8954 30 34 30C35.1046 30 36 29.1046 36 28C36 26.8954 35.1046 26 34 26C32.8954 26 32 26.8954 32 28ZM34 24C31.7909 24 30 25.7909 30 28C30 30.2091 31.7909 32 34 32C36.2091 32 38 30.2091 38 28C38 25.7909 36.2091 24 34 24ZM44 10C42.8954 10 42 9.10457 42 8C42 6.89543 42.8954 6 44 6C45.1046 6 46 6.89543 46 8C46 9.10457 45.1046 10 44 10ZM40 8C40 5.79086 41.7909 4 44 4C46.2091 4 48 5.79086 48 8C48 10.2091 46.2091 12 44 12C41.7909 12 40 10.2091 40 8ZM42 18C42 19.1046 42.8954 20 44 20C45.1046 20 46 19.1046 46 18C46 16.8954 45.1046 16 44 16C42.8954 16 42 16.8954 42 18ZM44 14C41.7909 14 40 15.7909 40 18C40 20.2091 41.7909 22 44 22C46.2091 22 48 20.2091 48 18C48 15.7909 46.2091 14 44 14ZM44 30C42.8954 30 42 29.1046 42 28C42 26.8954 42.8954 26 44 26C45.1046 26 46 26.8954 46 28C46 29.1046 45.1046 30 44 30ZM40 28C40 25.7909 41.7909 24 44 24C46.2091 24 48 25.7909 48 28C48 30.2091 46.2091 32 44 32C41.7909 32 40 30.2091 40 28Z" fill="white"/>
</svg>
