<svg width="50" height="50" viewBox="0 0 50 50" fill="none" xmlns="http://www.w3.org/2000/svg">
<path d="M25 43V35" stroke="black" stroke-width="2"/>
<path d="M25 15V7" stroke="black" stroke-width="2"/>
<path d="M40.5884 34L33.6602 30" stroke="black" stroke-width="2"/>
<path d="M16.3398 20L9.41162 16" stroke="black" stroke-width="2"/>
<path d="M9.41164 34L16.3398 30" stroke="black" stroke-width="2"/>
<path d="M33.6602 20L40.5884 16" stroke="black" stroke-width="2"/>
<path fill-rule="evenodd" clip-rule="evenodd" d="M37 25C37 31.6274 31.6274 37 25 37C18.3726 37 13 31.6274 13 25C13 18.3726 18.3726 13 25 13C31.6274 13 37 18.3726 37 25ZM25 35C30.5228 35 35 30.5228 35 25C35 19.4772 30.5228 15 25 15C19.4772 15 15 19.4772 15 25C15 30.5228 19.4772 35 25 35Z" fill="black"/>
<path d="M23.7912 26.273C21.0054 23.5264 19.7562 20.8778 19.4798 19.8969L18.8974 20.4711C18.3961 20.9654 18.2424 21.7093 18.5808 22.3236C19.292 23.6149 20.6072 25.5862 22.5476 27.4992C24.3976 29.3232 26.16 30.6148 27.3373 31.3621C27.9761 31.7675 28.7966 31.638 29.3338 31.1083L30.0926 30.3603C29.1529 30.1423 26.5771 29.0197 23.7912 26.273Z" fill="#86EC16"/>
<path d="M19.9103 19.4725C20.4497 18.9407 21.3524 19.0502 21.7449 19.6952L23.2373 22.1475C23.5141 22.6024 23.4414 23.1846 23.0609 23.5598L22.0341 24.5721C21.4947 25.1039 20.592 24.9944 20.1996 24.3494L18.7071 21.8971C18.4303 21.4422 18.503 20.8599 18.8835 20.4848L19.9103 19.4725Z" fill="#86EC16"/>
<path d="M30.523 29.9359C31.0624 29.4041 30.9513 28.5141 30.2972 28.1271L27.8098 26.6557C27.3484 26.3828 26.7579 26.4545 26.3774 26.8296L25.3506 27.8419C24.8112 28.3737 24.9223 29.2637 25.5765 29.6507L28.0638 31.1221C28.5252 31.395 29.1158 31.3233 29.4962 30.9482L30.523 29.9359Z" fill="#86EC16"/>
<circle cx="25" cy="46" r="4" fill="#86EC16"/>
<circle cx="25" cy="4" r="4" fill="#86EC16"/>
<circle cx="43.1863" cy="35.4998" r="4" transform="rotate(-60 43.1863 35.4998)" fill="#86EC16"/>
<circle cx="6.81322" cy="14.4998" r="4" transform="rotate(-60 6.81322 14.4998)" fill="#86EC16"/>
<circle cx="6.81324" cy="35.5002" r="4" transform="rotate(60 6.81324 35.5002)" fill="#86EC16"/>
<circle cx="43.1863" cy="14.5002" r="4" transform="rotate(60 43.1863 14.5002)" fill="#86EC16"/>
</svg>
