<?xml version="1.0" encoding="utf-8"?>
<!-- Generator: Adobe Illustrator 23.0.3, SVG Export Plug-In . SVG Version: 6.00 Build 0)  -->
<svg version="1.1" xmlns="http://www.w3.org/2000/svg" xmlns:xlink="http://www.w3.org/1999/xlink" x="0px" y="0px"
	 viewBox="0 0 76.2 70" style="enable-background:new 0 0 76.2 70;" xml:space="preserve">
<style type="text/css">
	.st0{fill:none;stroke:#86ED18;stroke-width:2;stroke-miterlimit:10;}
	.st1{display:none;fill:#FFFFFF;stroke:#000000;stroke-miterlimit:10;}
	.st2{fill:#FFFFFF;stroke:#000000;stroke-width:1.5;stroke-miterlimit:10;}
	.st3{fill:none;stroke:#000000;stroke-width:1.5;stroke-miterlimit:10;}
	.st4{display:none;fill:none;stroke:#86ED18;stroke-width:2;stroke-linecap:round;stroke-linejoin:round;stroke-miterlimit:10;}
	.st5{fill:#FFFFFF;}
	.st6{display:none;fill:none;stroke:#86ED18;stroke-linecap:round;stroke-linejoin:round;stroke-miterlimit:10;}
	.st7{fill:none;stroke:#86ED18;stroke-width:1.5;stroke-linecap:round;stroke-linejoin:round;stroke-miterlimit:10;}
	.st8{fill:none;stroke:#202020;stroke-width:1.5;stroke-miterlimit:10;}
	.st9{fill:none;stroke:#202020;stroke-width:1.5;stroke-linecap:round;stroke-linejoin:round;stroke-miterlimit:10;}
</style>
<g id="Ebene_6">
	<path class="st0" d="M39.4,63c15.5,0,28.1-12.5,28.1-28c0-15.5-12.6-28-28.1-28S11.3,19.5,11.3,35C11.3,50.5,23.9,63,39.4,63z"/>
</g>
<g id="Ebene_4">
	<path class="st1" d="M25.4,4.5c0.3,0,0.6-0.3,0.6-0.6s-0.3-0.6-0.6-0.6c-0.3,0-0.6,0.3-0.6,0.6S25.1,4.5,25.4,4.5z"/>
	<path class="st1" d="M25.4,9.1c0.3,0,0.6-0.3,0.6-0.6c0-0.3-0.3-0.6-0.6-0.6c-0.3,0-0.6,0.3-0.6,0.6C24.8,8.8,25.1,9.1,25.4,9.1z"
		/>
	<path class="st2" d="M58.4,1H23.6v21.1h34.9V1z"/>
	<path class="st3" d="M23.6,3.5h34.9"/>
	<path d="M25.3,2.8c0.3,0,0.5-0.2,0.5-0.5c0-0.3-0.2-0.5-0.5-0.5c-0.3,0-0.5,0.2-0.5,0.5C24.8,2.6,25,2.8,25.3,2.8z"/>
	<path d="M27.1,2.8c0.3,0,0.5-0.2,0.5-0.5c0-0.3-0.2-0.5-0.5-0.5c-0.3,0-0.5,0.2-0.5,0.5C26.6,2.6,26.9,2.8,27.1,2.8z"/>
	<path d="M28.9,2.8c0.3,0,0.5-0.2,0.5-0.5c0-0.3-0.2-0.5-0.5-0.5c-0.3,0-0.5,0.2-0.5,0.5C28.4,2.6,28.7,2.8,28.9,2.8z"/>
	<path class="st3" d="M30.7,9.6h20"/>
	<path class="st3" d="M30.7,11.8h20"/>
	<path class="st3" d="M30.7,14h10"/>
	<line class="st4" x1="29.3" y1="24.7" x2="20" y2="34.1"/>
	<line class="st4" x1="53.7" y1="24.7" x2="63" y2="34.1"/>
	<line class="st4" x1="34.3" y1="56.6" x2="47.5" y2="56.6"/>
</g>
<g id="Ebene_3">
	<rect x="11.7" y="40.2" transform="matrix(0.9639 -0.2663 0.2663 0.9639 -11.1494 5.1966)" class="st5" width="3.9" height="6.9"/>
	<path class="st3" d="M23.6,58.2c1.5,0,2.7-1.2,2.7-2.7s-1.2-2.7-2.7-2.7c-1.5,0-2.7,1.2-2.7,2.7S22.1,58.2,23.6,58.2z"/>
	<path class="st3" d="M5.1,57.6c0-0.4,0-0.9,0-1.3"/>
	<path class="st3" d="M6.7,59.4c0.1,0,0.2-0.1,0.2-0.2c0-0.1-0.1-0.2-0.2-0.2c-0.1,0-0.2,0.1-0.2,0.2C6.5,59.3,6.6,59.4,6.7,59.4z"
		/>
	<path class="st2" d="M4.5,58.2c1.5,0,2.7-1.2,2.7-2.7S6,52.7,4.5,52.7S1.7,54,1.7,55.5S3,58.2,4.5,58.2z"/>
	<path class="st2" d="M14,65.2c5.3,0,9.6-4.3,9.6-9.6c0-5.3-4.3-9.6-9.6-9.6s-9.6,4.3-9.6,9.6C4.4,60.9,8.7,65.2,14,65.2z"/>
	<path class="st3" d="M17.1,47.8c0.5,0.9,1.6,1.3,2.6,0.9c0.9-0.4,1.4-1.3,1.2-2.3c-0.2-0.8-0.8-1.4-1.5-1.6c-0.1,0-0.1-0.1,0-0.1
		c0.3-0.1,0.6-0.2,0.8-0.4c0.5-0.5,0.8-1.2,0.7-1.9c-0.2-1.3-1.5-2-2.7-1.6c-0.7,0.2-1.2,0.8-1.4,1.5c0,0.1-0.1,0.1-0.1,0
		c-0.1-0.4-0.3-0.8-0.6-1.2c-0.7-1-2-1.4-3.2-1.2c-1.7,0.3-2.7,1.9-2.6,3.5c-2.4,1.2-3.5,3.4-3.2,5.5"/>
	<path d="M11.2,55.4c0.4,0,0.7-0.3,0.7-0.7c0-0.4-0.3-0.7-0.7-0.7c-0.4,0-0.7,0.3-0.7,0.7C10.4,55,10.8,55.4,11.2,55.4z"/>
	<path d="M17.8,55.4c0.4,0,0.7-0.3,0.7-0.7c0-0.4-0.3-0.7-0.7-0.7c-0.4,0-0.7,0.3-0.7,0.7C17.1,55,17.4,55.4,17.8,55.4z"/>
	<path class="st3" d="M15,58.7c0,0.4-0.3,0.7-0.7,0.7s-0.7-0.3-0.7-0.7"/>
	<path d="M17.2,67.7c0-0.9-0.8-1.7-1.7-1.7h-1.7c-0.9,0-1.7,0.8-1.7,1.7s0.8,1.7,1.7,1.7h1.7C16.5,69.4,17.2,68.6,17.2,67.7z"/>
	<path class="st3" d="M13.8,43.3c6.8,0,12.2,5.5,12.2,12.2c0,6.7-5.5,12.2-12.2,12.2"/>
	<path class="st3" d="M1.7,55.5c0-6.7,5.3-12.2,12.1-12.2"/>
	<path d="M23.5,59.3h3.5c0.8,0,1.5-0.7,1.5-1.5v-4.5c0-0.8-0.7-1.5-1.5-1.5h-3.5V59.3z"/>
</g>
<g id="Ebene_2">
	<rect x="54.6" y="39.3" class="st5" width="15" height="19.9"/>
	<g id="Ebene_1">
		<path class="st6" d="M65.1,58.7c3.1,0,5.5-2.4,5.5-5.5s-2.5-5.5-5.5-5.5c-3.1,0-5.5,2.4-5.5,5.5C59.6,56.3,62,58.7,65.1,58.7
			L65.1,58.7z"/>
		<path class="st7" d="M67.7,55.2c0.1,0.1,0.4,0.2,0.3,0.5c0,0.2-0.5,1.1-1.4,1.1c-1,0-2.1-0.7-3.2-1.8c-1-1-1.8-2.2-1.8-3.1
			c0-0.9,0.9-1.4,1.1-1.4c0.3,0,0.4,0.2,0.5,0.3c0.1,0.1,0.6,1,0.7,1.1c0.1,0.1,0.2,0.4-0.1,0.7c-0.3,0.2-0.6,0.4,0.5,1.5
			c1.2,1.2,1.3,0.8,1.6,0.5c0.2-0.3,0.6-0.2,0.7-0.1C66.8,54.6,67.6,55.1,67.7,55.2L67.7,55.2z"/>
	</g>
	<path class="st8" d="M74.9,40.2c0-0.5-0.4-1-0.9-1H55.5c-0.5,0-0.9,0.4-0.9,1v2.9h20.3L74.9,40.2L74.9,40.2z M54.6,67.6
		c0,0.5,0.4,1,0.9,1h18.4c0.5,0,0.9-0.4,0.9-1v-4.9H54.6L54.6,67.6L54.6,67.6z M74.9,62.7V43.2 M54.6,43.2v19.5"/>
	<path class="st9" d="M64.7,66.6c0.5,0,0.9-0.4,0.9-1c0-0.5-0.4-1-0.9-1c0,0,0,0,0,0c-0.5,0-0.9,0.4-0.9,1c0,0,0,0,0,0
		C63.8,66.2,64.2,66.6,64.7,66.6C64.7,66.6,64.7,66.6,64.7,66.6z"/>
</g>
</svg>
