<svg xmlns="http://www.w3.org/2000/svg" width="97" height="93" fill="none" viewBox="0 0 97 93">
    <path fill="#fff" stroke="#000" stroke-miterlimit="10" stroke-width="3" d="M11.949 63.975c5.767 0 10.443-4.658 10.443-10.403 0-5.746-4.676-10.404-10.443-10.404-5.768 0-10.444 4.658-10.444 10.404 0 5.745 4.676 10.403 10.444 10.403zM85.051 63.975c5.768 0 10.444-4.658 10.444-10.403 0-5.746-4.676-10.404-10.444-10.404-5.767 0-10.443 4.658-10.443 10.404 0 5.745 4.676 10.403 10.443 10.403z"/>
    <path fill="#fff" stroke="#000" stroke-miterlimit="10" stroke-width="3" d="M48.676 90.86c20.284 0 36.728-16.38 36.728-36.587 0-20.207-16.444-36.588-36.728-36.588-20.284 0-36.728 16.38-36.728 36.588 0 20.207 16.444 36.588 36.728 36.588z"/>
    <path fill="#000" stroke="#000" stroke-miterlimit="10" stroke-width=".75" d="M68.037 55.325a.703.703 0 0 0 .704-.702.703.703 0 0 0-.704-.701.703.703 0 0 0-.704.701c0 .388.315.702.704.702zM64.751 58.48a.703.703 0 1 0 0-1.402.703.703 0 0 0 0 1.403zM74.49 55.325a.703.703 0 0 0 .705-.702.703.703 0 0 0-.704-.701.703.703 0 0 0-.704.701c0 .388.315.702.704.702zM68.037 61.871a.703.703 0 0 0 .704-.7.703.703 0 0 0-.704-.702.703.703 0 0 0-.704.701c0 .387.315.701.704.701zM74.49 61.871a.703.703 0 0 0 .705-.7.703.703 0 0 0-.704-.702.703.703 0 0 0-.704.701c0 .387.315.701.704.701zM71.322 58.482a.703.703 0 0 0 .704-.702.703.703 0 0 0-.704-.701.703.703 0 0 0-.704.701c0 .388.315.702.704.702zM78.01 58.48a.703.703 0 1 0 0-1.402.703.703 0 1 0 0 1.403zM22.157 55.325a.703.703 0 0 0 .704-.702.703.703 0 0 0-.704-.701.703.703 0 0 0-.704.701c0 .388.315.702.704.702zM18.989 58.48a.703.703 0 1 0 0-1.402.703.703 0 0 0 0 1.403zM28.61 55.325a.703.703 0 0 0 .705-.702.703.703 0 0 0-.704-.701.703.703 0 0 0-.704.701c0 .388.315.702.704.702zM22.157 61.871a.703.703 0 0 0 .704-.7.703.703 0 0 0-.704-.702.703.703 0 0 0-.704.701c0 .387.315.701.704.701zM28.61 61.871a.703.703 0 0 0 .705-.7.703.703 0 0 0-.704-.702.703.703 0 0 0-.704.701c0 .387.315.701.704.701zM25.443 58.48a.703.703 0 1 0 0-1.402.703.703 0 0 0 0 1.403zM32.131 58.482a.703.703 0 0 0 .704-.702.703.703 0 0 0-.704-.701.703.703 0 0 0-.704.701c0 .388.315.702.704.702z"/>
    <path stroke="#86ED18" stroke-linejoin="round" stroke-miterlimit="10" stroke-width="3" d="M39.877 58.247c0 5.377 4.341 9.586 9.621 9.586s9.623-4.325 9.623-9.586"/>
    <path stroke="#000" stroke-miterlimit="10" stroke-width="3" d="M60.997 46.908a2.694 2.694 0 0 0 2.699-2.688 2.694 2.694 0 0 0-2.7-2.688 2.694 2.694 0 0 0-2.698 2.688 2.694 2.694 0 0 0 2.699 2.688zM38.115 46.908a2.694 2.694 0 0 0 2.7-2.688 2.694 2.694 0 0 0-2.7-2.688 2.694 2.694 0 0 0-2.698 2.688 2.694 2.694 0 0 0 2.698 2.688zM68.859 36.154c-.118 3.74 2.581 7.248 6.57 7.949 3.638.584 7.393-1.52 8.684-5.027 1.056-2.922.352-6.078-1.643-8.065-.235-.234 0-.468.235-.351 1.056.35 2.23.468 3.637.234 2.7-.468 4.928-2.221 5.985-4.676 1.877-4.56-.704-9.469-5.28-10.638-2.817-.701-5.633.234-7.51 2.104-.235.234-.47 0-.353-.233.47-1.52.704-3.157.587-5.027-.47-4.559-3.52-8.65-7.862-10.17-6.101-2.221-12.673.701-15.254 6.195-10.209-1.052-18.188 4.092-21.356 11.456"/>
</svg>
