<svg xmlns="http://www.w3.org/2000/svg" width="71" height="68" fill="none" viewBox="0 0 71 68">
    <path stroke="#202020" stroke-linecap="round" stroke-linejoin="round" stroke-miterlimit="10" stroke-width="3" d="M69.096 1.504H1.504v15.598h67.591V1.504zM1.504 17.102v49.394h67.591V17.102"/>
    <path stroke="#202020" stroke-linecap="round" stroke-linejoin="round" stroke-miterlimit="10" stroke-width="3" d="M9.303 10.603a1.3 1.3 0 1 0 0-2.6 1.3 1.3 0 0 0 0 2.6zM18.402 10.603a1.3 1.3 0 1 0 0-2.6 1.3 1.3 0 0 0 0 2.6zM27.5 10.603a1.3 1.3 0 1 0 0-2.6 1.3 1.3 0 0 0 0 2.6z"/>
    <path stroke="#86ED18" stroke-linecap="round" stroke-linejoin="round" stroke-miterlimit="10" stroke-width="3" d="M63.896 39.473h-5.2l-7.798-7.8-7.8 15.599L30.1 29.074 17.102 52.471l-5.2-12.998H6.704"/>
</svg>
