<?xml version="1.0" encoding="utf-8"?>
<!-- Generator: Adobe Illustrator 23.0.1, SVG Export Plug-In . SVG Version: 6.00 Build 0)  -->
<svg version="1.1" id="Ebene_1" xmlns="http://www.w3.org/2000/svg" xmlns:xlink="http://www.w3.org/1999/xlink" x="0px" y="0px"
	 viewBox="0 0 90.96 79.25" style="enable-background:new 0 0 90.96 79.25;" xml:space="preserve">
<style type="text/css">
	.st0{fill:none;stroke:#202020;stroke-width:3;stroke-linecap:round;stroke-linejoin:round;stroke-miterlimit:10;}
</style>
<path class="st0" d="M16.17,16.16H1.51v17.59h14.66 M1.51,33.75v43.96h76.26V63.06 M89.5,1.51H16.17v17.59H89.5V1.51z"/>
<path class="st0" d="M16.17,19.09v43.96H89.5V19.09 M24.97,11.77c0.81,0,1.47-0.66,1.47-1.47c0-0.81-0.66-1.47-1.47-1.47l0,0
	c-0.81,0.02-1.45,0.69-1.43,1.5C23.57,11.12,24.19,11.75,24.97,11.77L24.97,11.77z M35.24,11.77c0.81,0,1.47-0.66,1.47-1.47
	c0-0.81-0.66-1.47-1.47-1.47c-0.81,0.02-1.45,0.69-1.43,1.5C33.83,11.12,34.46,11.75,35.24,11.77L35.24,11.77z M45.5,11.77
	c0.81,0,1.47-0.66,1.47-1.47c0-0.81-0.66-1.47-1.47-1.47c-0.81,0.02-1.45,0.69-1.43,1.5C44.1,11.12,44.72,11.75,45.5,11.77
	L45.5,11.77z"/>
</svg>
