<?xml version="1.0" encoding="utf-8"?>
<!-- Generator: Adobe Illustrator 23.0.6, SVG Export Plug-In . SVG Version: 6.00 Build 0)  -->
<!DOCTYPE svg PUBLIC "-//W3C//DTD SVG 1.1//EN" "http://www.w3.org/Graphics/SVG/1.1/DTD/svg11.dtd" [
	<!ENTITY ns_extend "http://ns.adobe.com/Extensibility/1.0/">
	<!ENTITY ns_ai "http://ns.adobe.com/AdobeIllustrator/10.0/">
	<!ENTITY ns_graphs "http://ns.adobe.com/Graphs/1.0/">
	<!ENTITY ns_vars "http://ns.adobe.com/Variables/1.0/">
	<!ENTITY ns_imrep "http://ns.adobe.com/ImageReplacement/1.0/">
	<!ENTITY ns_sfw "http://ns.adobe.com/SaveForWeb/1.0/">
	<!ENTITY ns_custom "http://ns.adobe.com/GenericCustomNamespace/1.0/">
	<!ENTITY ns_adobe_xpath "http://ns.adobe.com/XPath/1.0/">
]>
<svg version="1.1" xmlns:x="&ns_extend;" xmlns:i="&ns_ai;" xmlns:graph="&ns_graphs;"
	 xmlns="http://www.w3.org/2000/svg" xmlns:xlink="http://www.w3.org/1999/xlink" x="0px" y="0px" viewBox="0 0 163 150"
	 style="enable-background:new 0 0 163 150;" xml:space="preserve">
<style type="text/css">
	.st0{display:none;}
	.st1{display:inline;fill:none;stroke:#86ED18;stroke-width:3;stroke-linejoin:round;stroke-miterlimit:10;}
	.st2{fill:#FFFFFF;stroke:#000000;stroke-width:1.75;stroke-miterlimit:10;}
	.st3{stroke:#FFFFFF;stroke-width:1.75;stroke-miterlimit:10;}
	.st4{fill:#FFFFFF;}
	.st5{fill:none;stroke:#86ED18;stroke-width:4;stroke-linejoin:round;stroke-miterlimit:10;}
	.st6{stroke:#000000;stroke-width:1.75;stroke-miterlimit:10;}
	.st7{fill:none;stroke:#86ED18;stroke-width:1.75;stroke-linejoin:round;stroke-miterlimit:10;}
	.st8{fill:none;stroke:#000000;stroke-width:1.75;stroke-miterlimit:10;}
</style>
<metadata>
	<sfw  xmlns="&ns_sfw;">
		<slices></slices>
		<sliceSourceBounds  bottomLeftOrigin="true" height="147.8" width="16383" x="-7439.9" y="-585.7"></sliceSourceBounds>
	</sfw>
</metadata>
<g id="Ebene_1" class="st0">
	<circle class="st1" cx="81.5" cy="77" r="69.5"/>
</g>
<g id="Ebene_2">
	<path class="st2" d="M93.8,140.7H70.2c-6.2-2-16.4-4.1-18.4-8.2V84.8c0-4.5,3.7-8.2,8.2-8.2h43.9c4.5,0,8.2,3.7,8.2,8.2v47.7
		C107.2,136.6,99,139.7,93.8,140.7z"/>
	<path class="st2" d="M95.8,133.7H69.1c-4.4,0-8-3.6-8-8V96.3c0-4.4,3.6-8,8-8h26.7c4.4,0,8,3.6,8,8v29.4
		C103.8,130.1,100.2,133.7,95.8,133.7z"/>
	<circle cx="66.6" cy="84.7" r="0.9"/>
	<circle cx="69.9" cy="84.7" r="0.9"/>
	<circle cx="73.2" cy="84.7" r="0.9"/>
	<path class="st3" d="M95.2,132.1H69.8c-3.8,0-7-3.1-7-7V96.9c0-3.8,3.2-7,7-7h25.4c3.9,0,7,3.2,7,7v28.3
		C102.2,129,99,132.1,95.2,132.1z"/>
	<path class="st4" d="M70.6,111.2c0,6.7,5.4,12.1,12,12.1c0.9,0,1.9-0.1,2.8-0.4v-6.8c-0.8,0.5-1.8,0.7-2.8,0.7
		c-3.1,0-5.6-2.6-5.6-5.7s2.5-5.7,5.6-5.7c1,0,1.9,0.3,2.8,0.7v-6.8c-0.9-0.2-1.8-0.4-2.8-0.4C76,99.1,70.6,104.6,70.6,111.2z
		 M88.2,100.5v21.4c3.8-2,6.3-6.1,6.3-10.7S92.1,102.6,88.2,100.5L88.2,100.5z"/>
	<g id="Ebene_1_Kopie">
		<circle class="st5" cx="81.5" cy="83.2" r="58"/>
	</g>
	<polygon class="st2" points="83.4,9.1 81.1,9.1 80.5,19.6 84,19.6 	"/>
	<ellipse class="st2" cx="82" cy="24.6" rx="8.8" ry="5.5"/>
	<ellipse class="st2" cx="53" cy="46.7" rx="4.5" ry="9.5"/>
	<ellipse class="st2" cx="111.9" cy="46.7" rx="4.5" ry="9.5"/>
	<circle class="st2" cx="82.2" cy="5.8" r="4"/>
	<path class="st2" d="M104,70.4H60.8c-4.4,0-8-3.6-8-8v-32c0-4.4,3.6-8,8-8H104c4.4,0,8,3.6,8,8v32C112,66.8,108.4,70.4,104,70.4z"
		/>
	<path class="st6" d="M97,47.3c0.3,0,0.5-0.2,0.5-0.5s-0.2-0.5-0.5-0.5c-0.3,0-0.5,0.2-0.5,0.5S96.7,47.3,97,47.3z"/>
	<path class="st6" d="M94.5,49.7c0.3,0,0.5-0.2,0.5-0.5c0-0.3-0.2-0.5-0.5-0.5c-0.3,0-0.5,0.2-0.5,0.5
		C93.9,49.5,94.2,49.7,94.5,49.7z"/>
	<path class="st6" d="M101.8,47.3c0.3,0,0.5-0.2,0.5-0.5s-0.2-0.5-0.5-0.5s-0.5,0.2-0.5,0.5S101.5,47.3,101.8,47.3z"/>
	<path class="st6" d="M97,52.3c0.3,0,0.5-0.2,0.5-0.5s-0.2-0.5-0.5-0.5c-0.3,0-0.5,0.2-0.5,0.5S96.7,52.3,97,52.3z"/>
	<path class="st6" d="M101.8,52.3c0.3,0,0.5-0.2,0.5-0.5s-0.2-0.5-0.5-0.5s-0.5,0.2-0.5,0.5S101.5,52.3,101.8,52.3z"/>
	<path class="st6" d="M99.4,49.7c0.3,0,0.5-0.2,0.5-0.5c0-0.3-0.2-0.5-0.5-0.5c-0.3,0-0.5,0.2-0.5,0.5
		C98.9,49.5,99.1,49.7,99.4,49.7z"/>
	<path class="st6" d="M104.5,49.7c0.3,0,0.5-0.2,0.5-0.5c0-0.3-0.2-0.5-0.5-0.5s-0.5,0.2-0.5,0.5C104,49.5,104.2,49.7,104.5,49.7z"
		/>
	<path class="st6" d="M62.3,47.3c0.3,0,0.5-0.2,0.5-0.5s-0.2-0.5-0.5-0.5s-0.5,0.2-0.5,0.5S62,47.3,62.3,47.3z"/>
	<path class="st6" d="M59.9,49.7c0.3,0,0.5-0.2,0.5-0.5c0-0.3-0.2-0.5-0.5-0.5c-0.3,0-0.5,0.2-0.5,0.5
		C59.3,49.5,59.6,49.7,59.9,49.7z"/>
	<path class="st6" d="M67.1,47.3c0.3,0,0.5-0.2,0.5-0.5s-0.2-0.5-0.5-0.5c-0.3,0-0.5,0.2-0.5,0.5S66.8,47.3,67.1,47.3z"/>
	<path class="st6" d="M62.3,52.3c0.3,0,0.5-0.2,0.5-0.5s-0.2-0.5-0.5-0.5s-0.5,0.2-0.5,0.5S62,52.3,62.3,52.3z"/>
	<path class="st6" d="M67.1,52.3c0.3,0,0.5-0.2,0.5-0.5s-0.2-0.5-0.5-0.5c-0.3,0-0.5,0.2-0.5,0.5S66.8,52.3,67.1,52.3z"/>
	<path class="st6" d="M64.7,49.7c0.3,0,0.5-0.2,0.5-0.5c0-0.3-0.2-0.5-0.5-0.5s-0.5,0.2-0.5,0.5C64.2,49.5,64.5,49.7,64.7,49.7z"/>
	<path class="st6" d="M69.8,49.7c0.3,0,0.5-0.2,0.5-0.5c0-0.3-0.2-0.5-0.5-0.5c-0.3,0-0.5,0.2-0.5,0.5
		C69.3,49.5,69.5,49.7,69.8,49.7z"/>
	<path class="st7" d="M75.7,49.5c0,4.1,3.3,7.2,7.3,7.2s7.3-3.3,7.3-7.2"/>
	<path class="st8" d="M91.6,40.9c1.1,0,2-0.9,2-2s-0.9-2-2-2c-1.1,0-2,0.9-2,2S90.5,40.9,91.6,40.9z"/>
	<path class="st8" d="M74.3,40.9c1.1,0,2-0.9,2-2s-0.9-2-2-2c-1.1,0-2,0.9-2,2S73.2,40.9,74.3,40.9z"/>
	<rect id="Hals_2_" x="74.4" y="70.6" class="st2" width="15.7" height="6.2"/>
	<path class="st6" d="M51.6,84.9c0,0-19.8,9.6-19.8,32.3h7.9c0,0,0-14.2,11.9-22.7V84.9z"/>
	<path class="st2" d="M36.4,132.1H35c-2.6,0-4.7-2.1-4.7-4.7v-8.1c0-2.6,2.1-4.7,4.7-4.7h1.4c2.6,0,4.7,2.1,4.7,4.7v8.1
		C41.2,130,39,132.1,36.4,132.1z"/>
	<path class="st2" d="M35.9,125.5c-6.2,0-11.2,5-11.2,11.2c0,5.6,4.1,10.2,9.5,11v-5.4c-2.2-0.7-3.8-2.8-3.8-5.2
		c0-3,2.4-5.5,5.5-5.5c3,0,5.5,2.4,5.5,5.5c0,2.4-1.6,4.5-3.8,5.2v5.4c5.4-0.8,9.5-5.4,9.5-11C47.1,130.5,42.1,125.5,35.9,125.5z"/>
	<circle class="st2" cx="35.7" cy="126.9" r="6.6"/>
	<polygon points="35.7,123.7 32.9,125.3 32.9,128.5 35.7,130.1 38.5,128.5 38.5,125.3 	"/>
	<path class="st6" d="M112.2,84.9c0,0,19.8,9.6,19.8,32.3h-7.9c0,0,0-14.2-11.9-22.7V84.9z"/>
	<path class="st2" d="M127.3,132.1h1.4c2.6,0,4.7-2.1,4.7-4.7v-8.1c0-2.6-2.1-4.7-4.7-4.7h-1.4c-2.6,0-4.7,2.1-4.7,4.7v8.1
		C122.6,130,124.7,132.1,127.3,132.1z"/>
	<path class="st2" d="M127.8,125.5c6.2,0,11.2,5,11.2,11.2c0,5.6-4.1,10.2-9.5,11v-5.4c2.2-0.7,3.8-2.8,3.8-5.2c0-3-2.4-5.5-5.5-5.5
		c-3,0-5.5,2.4-5.5,5.5c0,2.4,1.6,4.5,3.8,5.2v5.4c-5.4-0.8-9.5-5.4-9.5-11C116.7,130.5,121.7,125.5,127.8,125.5z"/>
	<circle class="st2" cx="128.1" cy="126.9" r="6.6"/>
	<polygon points="128.1,123.7 130.9,125.3 130.9,128.5 128.1,130.1 125.3,128.5 125.3,125.3 	"/>
</g>
</svg>
