<?xml version="1.0" encoding="utf-8"?>
<!-- Generator: Adobe Illustrator 24.0.1, SVG Export Plug-In . SVG Version: 6.00 Build 0)  -->
<svg version="1.1" id="Ebene_1" xmlns="http://www.w3.org/2000/svg" xmlns:xlink="http://www.w3.org/1999/xlink" x="0px" y="0px"
	 viewBox="0 0 115 84" style="enable-background:new 0 0 115 84;" xml:space="preserve">
<style type="text/css">
	.st0{fill:none;stroke:#86ED18;stroke-width:3;stroke-linecap:round;stroke-miterlimit:10;}
	.st1{fill:none;stroke:#FFFFFF;stroke-width:3;stroke-linecap:round;stroke-miterlimit:10;}
	.st2{fill:none;stroke:#FFFFFF;stroke-width:3;stroke-miterlimit:10;}
	.st3{fill:none;stroke:#86ED18;stroke-width:3;stroke-miterlimit:10;}
</style>
<path class="st0" d="M84.7,31.5V13.6 M77.8,20.6l7-7.1l7,7.1"/>
<path class="st1" d="M74.3,44c0.4,4,0,8.2-1.5,12.1c-1,2.6-2.3,5.1-4,7.3 M38.2,82.3C17.9,82.3,1.5,66,1.5,45.7S17.9,9.2,38.2,9.2
	c5.8,0,11.3,1.3,16,3.7"/>
<path class="st2" d="M38.2,82.3c19,0,27.9-11.3,20.4-18.8 M59.2,55.5c1,0.6,2.6,1.6,2.2,3.7c-0.2,1.5-3.3,7.3-9.9,7.3
	s-14.7-5.1-21.8-12.3C22.6,47.1,17.4,39,17.4,32.5s5.9-9.6,7.3-9.9c2.1-0.2,2.9,1.2,3.7,2.2c0.6,1,4.4,6.7,5,7.6s1.2,3-1,4.8
	c-2.1,1.7-4.4,2.7,3.5,10.6c8.1,8,8.9,5.7,10.6,3.5c1.7-2.1,3.9-1.5,4.8-1C52.4,51.1,58.3,54.9,59.2,55.5L59.2,55.5z"/>
<path class="st3" d="M87.7,1.5c-0.1,0-0.5,0.1-1,0.1C82.4,2.4,78.4,5,75.9,8.9c-0.4,0.5-0.5,0.7-0.6,0.7c0,0-0.2-0.1-0.6-0.2
	c-1.2-0.5-2.4-0.7-3.7-0.6c-1.5,0-2.7,0.5-4,1.3c-1.8,1.2-3.3,3.2-4,5.4v0.6l-0.5,0.2c-1.8,0.9-3.5,2.3-4.8,4.1
	c-2.1,3.2-2.3,7.2-0.9,10.6c1.3,3,4.2,5.4,7.3,6.2c1.5,0.4,0,0.4,21.3,0.4h19.3l0.6-0.1c1.6-0.4,2.8-0.9,4-1.8
	c0.6-0.4,1.5-1.2,1.8-1.8c2.3-2.9,2.8-6.7,1.5-10.1c-1.3-3-4.2-5.4-7.3-6c-0.2,0-0.6-0.1-0.6-0.1c-0.1,0-0.1-0.1-0.1-1.2
	c0-1.9-0.4-3.5-1-5.2c-0.7-1.9-2-3.7-3.4-5.2c-2.3-2.3-5-3.8-8.4-4.3c-0.9-0.2-1.3-0.2-2.4-0.2C89.4,1.5,87.7,1.5,87.7,1.5z"/>
</svg>
