<?xml version="1.0" encoding="utf-8"?>
<!-- Generator: Adobe Illustrator 24.0.2, SVG Export Plug-In . SVG Version: 6.00 Build 0)  -->
<svg version="1.1" id="Ebene_1" xmlns="http://www.w3.org/2000/svg" xmlns:xlink="http://www.w3.org/1999/xlink" x="0px" y="0px"
	 viewBox="0 0 92 68" style="enable-background:new 0 0 92 68;" xml:space="preserve">
<style type="text/css">
	.st0{fill:#202020;}
	.st1{fill:none;stroke:#86ED18;stroke-width:2;stroke-miterlimit:10;}
	.st2{fill:none;stroke:#202020;stroke-width:2;stroke-linecap:round;stroke-linejoin:round;stroke-miterlimit:10;}
</style>
<path class="st0" d="M46.4,42.8h-2.2l-0.9-2.7h-4.5L38,42.8h-1.9L40,31.4h2.6L46.4,42.8z M42.8,38.4L41,33.3l-1.7,5.1
	C39.3,38.4,42.8,38.4,42.8,38.4z M47.4,42.8V31.4h5c1.1,0,1.8,0.1,2.6,0.6c1.2,0.7,1.7,1.7,1.7,2.8c0,2.3-1.8,3.5-4,3.5h-3v4.4
	C49.7,42.8,47.4,42.8,47.4,42.8z M49.7,36.5h2.6c1.5,0,2.1-0.9,2.1-1.7c0-0.4-0.2-0.8-0.3-1c-0.3-0.4-0.9-0.7-2-0.7h-2.4
	C49.7,33.1,49.7,36.5,49.7,36.5z M58.8,42.8V31.4h2.1v11.4H58.8z"/>
<path class="st1" d="M17.5,22.8c3,0,5.5-2.5,5.5-5.5s-2.5-5.5-5.5-5.5S12,14.3,12,17.3S14.5,22.8,17.5,22.8z"/>
<path class="st1" d="M33,21.1l-3.5-2c0.1-0.7,0.1-1.4,0.1-2.1c0-0.8-0.1-1.6-0.3-2.4l3.1-1.8l-4.1-7.2l-3.2,1.8
	c-1.2-0.9-2.5-1.7-3.8-2.2V1.5h-8.2v3.8c-1.4,0.5-2.7,1.3-3.8,2.2l-3-1.8l-4.1,7.2l3.1,1.7C5.2,15.4,5,16.2,5,16.9
	c0,0.8,0.1,1.4,0.3,2.2l-3.4,2L6,28.3l3.2-2c1.1,1,2.5,1.8,3.9,2.4v3.8h8.2v-3.8c1.4-0.5,2.8-1.3,4-2.4l3.4,2L33,21.1z"/>
<path class="st2" d="M17.5,56.2l-5.2,7.7v2.6h77.4v-2.6l-5.2-7.7"/>
<path class="st2" d="M37.4,12.9h47.1v43.3h-68V37.1"/>
</svg>
