<?xml version="1.0" encoding="utf-8"?>
<!-- Generator: Adobe Illustrator 23.0.3, SVG Export Plug-In . SVG Version: 6.00 Build 0)  -->
<svg version="1.1" xmlns="http://www.w3.org/2000/svg" xmlns:xlink="http://www.w3.org/1999/xlink" x="0px" y="0px"
	 viewBox="0 0 234 226" style="enable-background:new 0 0 234 226;" xml:space="preserve">
<style type="text/css">
	.st0{display:none;fill:#86ED18;stroke:#000000;stroke-miterlimit:10;}
	.st1{fill:#FFFFFF;stroke:#000000;stroke-width:2;stroke-miterlimit:10;}
	.st2{fill:#FFFFFF;stroke:#00FF00;stroke-width:2;stroke-miterlimit:10;stroke-dasharray:10;}
	.st3{fill:none;stroke:#000000;stroke-width:2;stroke-miterlimit:10;}
	.st4{fill:none;stroke:#000000;stroke-width:3;stroke-miterlimit:10;}
	.st5{fill:#FFFFFF;stroke:#000000;stroke-width:3;stroke-miterlimit:10;}
	.st6{fill:none;stroke:#000000;stroke-miterlimit:10;}
</style>
<g id="Ebene_1">
	<circle class="st0" cx="117" cy="113" r="177.5"/>
	<rect x="17" y="13" class="st1" width="132.7" height="132.7"/>
	<polygon class="st2" points="216,212 83.3,212 83.3,145.3 149.3,79.3 216,79.3 	"/>
	<polyline class="st3" points="149.7,79.3 216,79.3 216,212 83.3,212 83.3,145.7 	"/>
</g>
<g id="Ebene_2">
	<path class="st4" d="M77.6,103.5c-17.7,0-32.1-14.3-32.1-32c0-17.7,14.4-32,32.1-32c17.7,0,32.1,14.3,32.1,32c0,3-0.4,5.8-1.2,8.5
		 M77.6,103.5c16.6,0,24.4-9.9,17.9-16.4"/>
	<path class="st5" d="M95.9,80.1c0.8,0.6,2.2,1.4,1.9,3.1c-0.2,1.3-2.9,6.4-8.7,6.4s-12.8-4.5-19-10.7c-6.2-6.2-10.8-13.2-10.8-19
		c0-5.8,5.1-8.5,6.4-8.6c1.8-0.3,2.6,1.1,3.2,1.9c0.6,0.8,3.9,5.9,4.4,6.7c0.5,0.8,1,2.7-0.8,4.2c-1.9,1.5-3.9,2.3,3.2,9.3
		c7,7,7.8,5,9.3,3.1c1.5-1.9,3.4-1.3,4.2-0.8C90,76.2,95.1,79.5,95.9,80.1L95.9,80.1z"/>
</g>
<g id="Ebene_3">
	<path class="st1" d="M189.3,142.7h-60.7c-1.7,0-3-1.4-3-3V127c0-1.7,1.4-3,3-3h60.7c1.7,0,3,1.4,3,3v12.7
		C192.3,141.4,190.9,142.7,189.3,142.7z"/>
	<path class="st1" d="M189.7,167.6h-60.7c-1.7,0-3-1.4-3-3v-12.7c0-1.7,1.4-3,3-3h60.7c1.7,0,3,1.4,3,3v12.7
		C192.7,166.2,191.3,167.6,189.7,167.6z"/>
	<path class="st1" d="M189.7,192h-60.7c-1.7,0-3-1.4-3-3v-12.7c0-1.7,1.4-3,3-3h60.7c1.7,0,3,1.4,3,3V189
		C192.7,190.6,191.3,192,189.7,192z"/>
	<line class="st6" x1="159.5" y1="142.7" x2="159.5" y2="148.6"/>
	<line class="st6" x1="159.5" y1="167.4" x2="159.5" y2="173.3"/>
	<circle cx="135.8" cy="133.9" r="5.9"/>
	<circle cx="135.8" cy="158.5" r="5.9"/>
	<circle cx="135.8" cy="183.1" r="5.9"/>
	<rect x="149.6" y="128.9" width="35.5" height="3.9"/>
	<rect x="149.6" y="134.8" width="17.7" height="3.9"/>
	<rect x="149.6" y="153.6" width="35.5" height="3.9"/>
	<rect x="149.6" y="159.5" width="28.6" height="3.9"/>
	<rect x="149.6" y="178.2" width="35.5" height="3.9"/>
	<rect x="149.6" y="184.1" width="22.7" height="3.9"/>
</g>
</svg>
