<?xml version="1.0" encoding="utf-8"?>
<!-- Generator: Adobe Illustrator 23.0.1, SVG Export Plug-In . SVG Version: 6.00 Build 0)  -->
<svg version="1.1" id="Ebene_1" xmlns="http://www.w3.org/2000/svg" xmlns:xlink="http://www.w3.org/1999/xlink" x="0px" y="0px"
	 viewBox="0 0 77 63" style="enable-background:new 0 0 77 63;" xml:space="preserve">
<style type="text/css">
	.st0{fill:none;stroke:#202020;stroke-width:3;stroke-miterlimit:10;}
</style>
<path class="st0" d="M38.5,11.5c2.76,0,5-2.24,5-5s-2.24-5-5-5s-5,2.24-5,5S35.74,11.5,38.5,11.5z M38.5,11.5c-3.68,0-8,3.2-8,8.57
	v1.43h16v-1.43C46.5,14.7,42.18,11.5,38.5,11.5z M9.5,51.5c2.76,0,5-2.24,5-5s-2.24-5-5-5s-5,2.24-5,5S6.74,51.5,9.5,51.5z
	 M9.5,51.5c-3.68,0-8,3.2-8,8.57v1.43h16v-1.43C17.5,54.7,13.18,51.5,9.5,51.5z M67.5,51.5c2.76,0,5-2.24,5-5s-2.24-5-5-5
	s-5,2.24-5,5S64.74,51.5,67.5,51.5z M67.5,51.5c-3.68,0-8,3.2-8,8.57v1.43h16v-1.43C75.5,54.7,71.18,51.5,67.5,51.5z M54,25.82
	l10.32,10.32 M23.82,25.5L13.5,35.82 M28.18,52.5h20.64"/>
</svg>
