<?xml version="1.0" encoding="utf-8"?>
<!-- Generator: Adobe Illustrator 23.0.1, SVG Export Plug-In . SVG Version: 6.00 Build 0)  -->
<svg version="1.1" id="Ebene_3" xmlns="http://www.w3.org/2000/svg" xmlns:xlink="http://www.w3.org/1999/xlink" x="0px" y="0px"
	 viewBox="0 0 60 82" style="enable-background:new 0 0 60 82;" xml:space="preserve">
<style type="text/css">
	.st0{fill:none;stroke:#202020;stroke-width:3;stroke-linecap:round;stroke-linejoin:round;}
	.st1{fill:none;stroke:#86ED18;stroke-width:3;stroke-linecap:round;stroke-linejoin:round;}
</style>
<title>location2</title>
<path class="st0" d="M45.6,20.9c1.8,2.8,2.7,6.1,2.7,9.5c0.2,10.3-8,18.7-18.3,18.9c-10.3,0.2-18.7-8-18.9-18.3
	c-0.2-10.3,8-18.7,18.3-18.9c0.1,0,0.2,0,0.3,0c2.4,0,4.8,0.5,7.1,1.4"/>
<path class="st0" d="M29.7,80.5c0,0-46.4-44.2-20.1-70.6c11.3-11.3,29.5-11.3,40.8,0C76.9,36.5,29.7,80.5,29.7,80.5"/>
<path class="st1" d="M29.7,18.1c0,2.5,3.7,1,3.7,3.7c0,3.5-2.8,4.5-5,3.1s-4.9-2.1-7.4,1.3s-0.8,7.3,1,7.3s3.4-1.7,4.2,0.4
	c0.6,1.7,1,2.1,1.8,2.5s0.8,1.4,0.5,2.5s1.3,4.9,2.5,4.9s2.3-0.5,2.5-2.5s1.7-2,2.3-2.6s-0.5-2.6,0.8-4s4.1-3.8,1.8-4.5
	s-2.2-1.1-2.5-2s-1.3-2,0.6-2c2,0,4-0.8,5.4-2.2c1.5-1.6,2.4-3.2,3.8-3.2c-2.1-3.4-5.2-6-8.8-7.5C32.6,15.4,29.7,15.6,29.7,18.1
	L29.7,18.1z"/>
</svg>
