<svg xmlns="http://www.w3.org/2000/svg" width="75" height="74" fill="none" viewBox="0 0 75 74">
    <path stroke="#86ED18" stroke-linecap="round" stroke-miterlimit="10" stroke-width="3" d="M27.892 46.464H1.507v26.028h26.385V46.464z"/>
    <path stroke="#000" stroke-linecap="round" stroke-miterlimit="10" stroke-width="3" d="M1.507 32.268V4.522a3.014 3.014 0 0 1 3.015-3.015H70.45a3.014 3.014 0 0 1 3.014 3.015v64.956a3.014 3.014 0 0 1-3.014 3.015H42.283"/>
    <path stroke="#86ED18" stroke-linecap="round" stroke-miterlimit="10" stroke-width="3" d="M35.477 39.512l25.12-24.116M42.284 14.342h19.188v18.93"/>
    <path fill="#000" stroke="#000" stroke-miterlimit="10" stroke-width=".75" d="M7.042 52.963a.7.7 0 0 0 .705-.697.7.7 0 0 0-.705-.696.7.7 0 0 0-.705.696.7.7 0 0 0 .705.697zM12.066 52.963a.7.7 0 0 0 .705-.697.7.7 0 0 0-.705-.696.7.7 0 0 0-.705.696.7.7 0 0 0 .705.697zM17.09 52.963a.7.7 0 0 0 .705-.697.7.7 0 0 0-.705-.696.7.7 0 0 0-.705.696.7.7 0 0 0 .705.697zM22.114 52.963a.7.7 0 0 0 .705-.697.7.7 0 0 0-.705-.696.7.7 0 0 0-.705.696.7.7 0 0 0 .705.697zM7.042 57.987a.7.7 0 0 0 .705-.697.7.7 0 0 0-.705-.696.7.7 0 0 0-.705.697.7.7 0 0 0 .705.696zM12.066 57.987a.7.7 0 0 0 .705-.697.7.7 0 0 0-.705-.696.7.7 0 0 0-.705.697.7.7 0 0 0 .705.696zM17.09 57.987a.7.7 0 0 0 .705-.697.7.7 0 0 0-.705-.696.7.7 0 0 0-.705.697.7.7 0 0 0 .705.696zM22.114 57.987a.7.7 0 0 0 .705-.697.7.7 0 0 0-.705-.696.7.7 0 0 0-.705.697.7.7 0 0 0 .705.696zM7.042 63.011a.7.7 0 0 0 .705-.696.7.7 0 0 0-.705-.697.7.7 0 0 0-.705.697.7.7 0 0 0 .705.697zM12.066 63.011a.7.7 0 0 0 .705-.696.7.7 0 0 0-.705-.697.7.7 0 0 0-.705.697.7.7 0 0 0 .705.697zM17.09 63.011a.7.7 0 0 0 .705-.696.7.7 0 0 0-.705-.697.7.7 0 0 0-.705.697.7.7 0 0 0 .705.697zM22.114 63.011a.7.7 0 0 0 .705-.696.7.7 0 0 0-.705-.697.7.7 0 0 0-.705.697.7.7 0 0 0 .705.697zM7.042 68.036a.7.7 0 0 0 .705-.697.7.7 0 0 0-.705-.697.7.7 0 0 0-.705.697.7.7 0 0 0 .705.697zM12.066 68.036a.7.7 0 0 0 .705-.697.7.7 0 0 0-.705-.697.7.7 0 0 0-.705.697.7.7 0 0 0 .705.697zM17.09 68.036a.7.7 0 0 0 .705-.697.7.7 0 0 0-.705-.697.7.7 0 0 0-.705.697.7.7 0 0 0 .705.697zM22.114 68.036a.7.7 0 0 0 .705-.697.7.7 0 0 0-.705-.697.7.7 0 0 0-.705.697.7.7 0 0 0 .705.697z"/>
</svg>
