<?xml version="1.0" encoding="utf-8"?>
<!-- Generator: Adobe Illustrator 24.1.1, SVG Export Plug-In . SVG Version: 6.00 Build 0)  -->
<svg version="1.1" id="Ebene_1" xmlns="http://www.w3.org/2000/svg" xmlns:xlink="http://www.w3.org/1999/xlink" x="0px" y="0px"
	 viewBox="0 0 63 85" style="enable-background:new 0 0 63 85;" xml:space="preserve">
<style type="text/css">
	.st0{fill:none;stroke:#FFFFFF;stroke-width:3;stroke-miterlimit:10;}
	.st1{fill:none;stroke:#86ED18;stroke-width:3;stroke-linecap:round;stroke-linejoin:round;stroke-miterlimit:10;}
	.st2{fill:none;stroke:#FFFFFF;stroke-width:3;stroke-linecap:round;stroke-linejoin:round;stroke-miterlimit:10;}
</style>
<path class="st0" d="M61.5,59h-10v21.7h10V59z M51.5,77c-2,0-14.9,5.7-22,5.7c-4.2,0-7.9-2.2-16-5.9c-3.8-1.8-12-6.5-12-9.9
	c0-4,10.9,1.1,20.1,4"/>
<path class="st0" d="M35.6,74.8h-10c-2.2,0-4-1.8-4-4c0-2.2,1.8-4,4-4h4c12,0,8-5.9,22-5.9"/>
<path class="st1" d="M28.5,21.3l-5,8.2h10C33.5,29.5,28.5,21.3,28.5,21.3z"/>
<path class="st2" d="M36.8,1.5H8.5V13h3.3v13.1H8.5v24.7h39.9V13L36.8,1.5z"/>
<path class="st1" d="M40.1,40.9c0,0.9-0.7,1.7-1.7,1.7H18.5c-0.9,0-1.7-0.7-1.7-1.7V14.6c0-0.9,0.7-1.7,1.7-1.7h20
	c0.9,0,1.7,0.7,1.7,1.7v26.3C40.2,40.9,40.1,40.9,40.1,40.9z"/>
</svg>
