<svg xmlns="http://www.w3.org/2000/svg" width="85" height="68" fill="none" viewBox="0 0 85 68">
    <path stroke="#000" stroke-linecap="round" stroke-linejoin="round" stroke-miterlimit="10" stroke-width="3" d="M74.084 33.903l1.801 1.801a5.396 5.396 0 1 1-7.635 7.63l-7.325-7.33M60.912 36.01l9.237 9.236a5.396 5.396 0 0 1-.005 7.63 5.396 5.396 0 0 1-7.63 0l-8.422-8.42"/>
    <path stroke="#000" stroke-linecap="round" stroke-linejoin="round" stroke-miterlimit="10" stroke-width="3" d="M54.097 44.455l6.509 6.514a5.402 5.402 0 0 1 0 7.636 5.39 5.39 0 0 1-7.626 0l-3.815-3.816"/>
    <path stroke="#000" stroke-linecap="round" stroke-linejoin="round" stroke-miterlimit="10" stroke-width="3" d="M49.576 55.197l1.873 1.879a5.396 5.396 0 0 1-7.63 7.63l-1.82-1.453M10.221 33.913L1.518 25.21l21.62-21.625s2.878 3.35 5.295 3.35c2.932 0 3.65-.952 5.393-2.694 2.864-2.869 7.179-2.786 10.79.83"/>
    <path stroke="#86ED18" stroke-linecap="round" stroke-linejoin="round" stroke-miterlimit="10" stroke-width="3" d="M19.876 39.519a5.392 5.392 0 0 0 .005-7.63 5.396 5.396 0 0 0-7.63 0l-3.815 3.815a5.392 5.392 0 0 0 .004 7.63 5.396 5.396 0 0 0 7.63 0l3.806-3.815z"/>
    <path stroke="#86ED18" stroke-linecap="round" stroke-linejoin="round" stroke-miterlimit="10" stroke-width="3" d="M27.506 47.155a5.396 5.396 0 0 0-7.63-7.63l-5.723 5.722a5.392 5.392 0 0 0 .005 7.63 5.396 5.396 0 0 0 7.63 0l5.718-5.722z"/>
    <path stroke="#86ED18" stroke-linecap="round" stroke-linejoin="round" stroke-miterlimit="10" stroke-width="3" d="M35.132 54.785a5.396 5.396 0 0 0-7.63-7.63l-3.816 3.814a5.398 5.398 0 0 0 .005 7.636 5.396 5.396 0 0 0 7.63 0l3.81-3.82zM42.349 62.833a5.392 5.392 0 0 0 .004-7.63 5.396 5.396 0 0 0-7.63 0l-1.878 1.878a5.396 5.396 0 0 0 7.63 7.63l1.873-1.878zM45.83 18.978l1.117-1.117c3.883-3.888 7.523-3.572 10.814-.281l16.324 16.328-.01.01 8.407-8.407L58.479 1.518h-5.858c-3.704 0-6.213 1.602-10.62 6.014l-3.816 3.815a5.396 5.396 0 1 0 7.635 7.63l1.117-1.116"/>
</svg>
