<svg xmlns="http://www.w3.org/2000/svg" width="66" height="96" fill="none" viewBox="0 0 66 96">
    <path stroke="#202020" stroke-miterlimit="10" stroke-width="3" d="M14.081 20.401c0-10.395 8.492-18.9 18.872-18.9 10.38 0 18.872 8.505 18.872 18.9v29.925c0 10.395-8.493 18.9-18.872 18.9-10.38 0-18.872-8.505-18.872-18.9V20.4z"/>
    <path stroke="#202020" stroke-miterlimit="10" stroke-width="3" d="M64.407 39.773v10.552c0 17.325-14.154 31.5-31.453 31.5S1.501 67.65 1.501 50.325V39.773M64.407 44.025H1.501M32.953 81.825V96"/>
    <path stroke="#86ED18" stroke-miterlimit="10" stroke-width="3" d="M55.828 29.85H43.246M55.513 17.25H43.246M22.66 17.25H10.393M22.66 29.85H10.077"/>
</svg>
