<?xml version="1.0" encoding="utf-8"?>
<!-- Generator: Adobe Illustrator 23.0.1, SVG Export Plug-In . SVG Version: 6.00 Build 0)  -->
<svg version="1.1" id="Ebene_1" xmlns="http://www.w3.org/2000/svg" xmlns:xlink="http://www.w3.org/1999/xlink" x="0px" y="0px"
	 viewBox="0 0 75 74" style="enable-background:new 0 0 75 74;" xml:space="preserve">
<style type="text/css">
	.st0{fill:none;stroke:#FFFFFF;stroke-width:3;stroke-linecap:round;stroke-miterlimit:10;}
	.st1{fill:#FFFFFF;stroke:#FFFFFF;stroke-width:0.75;stroke-miterlimit:10;}
</style>
<path class="st0" d="M27.9,46.5H1.5v26h26.4V46.5z"/>
<path class="st1" d="M7,53c0.4,0,0.7-0.3,0.7-0.7c0,0,0,0,0,0c0-0.4-0.3-0.7-0.7-0.7c0,0,0,0,0,0c-0.4,0-0.7,0.3-0.7,0.7
	c0,0,0,0,0,0C6.3,52.7,6.7,53,7,53C7,53,7,53,7,53z M12.1,53c0.4,0,0.7-0.3,0.7-0.7c0,0,0,0,0,0c0-0.4-0.3-0.7-0.7-0.7c0,0,0,0,0,0
	c-0.4,0-0.7,0.3-0.7,0.7c0,0,0,0,0,0C11.4,52.7,11.7,53,12.1,53C12.1,53,12.1,53,12.1,53z M17.1,53c0.4,0,0.7-0.3,0.7-0.7
	c0,0,0,0,0,0c0-0.4-0.3-0.7-0.7-0.7c0,0,0,0,0,0c-0.4,0-0.7,0.3-0.7,0.7c0,0,0,0,0,0C16.4,52.7,16.7,53,17.1,53
	C17.1,53,17.1,53,17.1,53z M22.1,53c0.4,0,0.7-0.3,0.7-0.7c0,0,0,0,0,0c0-0.4-0.3-0.7-0.7-0.7c0,0,0,0,0,0c-0.4,0-0.7,0.3-0.7,0.7
	c0,0,0,0,0,0C21.4,52.7,21.7,53,22.1,53C22.1,53,22.1,53,22.1,53z M7,58c0.4,0,0.7-0.3,0.7-0.7c0,0,0,0,0,0c0-0.4-0.3-0.7-0.7-0.7
	c0,0,0,0,0,0c-0.4,0-0.7,0.3-0.7,0.7c0,0,0,0,0,0C6.3,57.7,6.7,58,7,58C7,58,7,58,7,58z M12.1,58c0.4,0,0.7-0.3,0.7-0.7c0,0,0,0,0,0
	c0-0.4-0.3-0.7-0.7-0.7c0,0,0,0,0,0c-0.4,0-0.7,0.3-0.7,0.7c0,0,0,0,0,0C11.4,57.7,11.7,58,12.1,58C12.1,58,12.1,58,12.1,58z
	 M17.1,58c0.4,0,0.7-0.3,0.7-0.7c0,0,0,0,0,0c0-0.4-0.3-0.7-0.7-0.7c0,0,0,0,0,0c-0.4,0-0.7,0.3-0.7,0.7c0,0,0,0,0,0
	C16.4,57.7,16.7,58,17.1,58C17.1,58,17.1,58,17.1,58z M22.1,58c0.4,0,0.7-0.3,0.7-0.7c0,0,0,0,0,0c0-0.4-0.3-0.7-0.7-0.7
	c0,0,0,0,0,0c-0.4,0-0.7,0.3-0.7,0.7c0,0,0,0,0,0C21.4,57.7,21.7,58,22.1,58C22.1,58,22.1,58,22.1,58z M7,63c0.4,0,0.7-0.3,0.7-0.7
	c0,0,0,0,0,0c0-0.4-0.3-0.7-0.7-0.7c0,0,0,0,0,0c-0.4,0-0.7,0.3-0.7,0.7c0,0,0,0,0,0C6.3,62.7,6.7,63,7,63C7,63,7,63,7,63L7,63z
	 M12.1,63c0.4,0,0.7-0.3,0.7-0.7c0,0,0,0,0,0c0-0.4-0.3-0.7-0.7-0.7c0,0,0,0,0,0c-0.4,0-0.7,0.3-0.7,0.7c0,0,0,0,0,0
	C11.4,62.7,11.7,63,12.1,63C12.1,63,12.1,63,12.1,63L12.1,63z M17.1,63c0.4,0,0.7-0.3,0.7-0.7c0,0,0,0,0,0c0-0.4-0.3-0.7-0.7-0.7
	c0,0,0,0,0,0c-0.4,0-0.7,0.3-0.7,0.7c0,0,0,0,0,0C16.4,62.7,16.7,63,17.1,63C17.1,63,17.1,63,17.1,63L17.1,63z M22.1,63
	c0.4,0,0.7-0.3,0.7-0.7c0,0,0,0,0,0c0-0.4-0.3-0.7-0.7-0.7c0,0,0,0,0,0c-0.4,0-0.7,0.3-0.7,0.7c0,0,0,0,0,0
	C21.4,62.7,21.7,63,22.1,63C22.1,63,22.1,63,22.1,63L22.1,63z M7,68c0.4,0,0.7-0.3,0.7-0.7c0,0,0,0,0,0c0-0.4-0.3-0.7-0.7-0.7
	c0,0,0,0,0,0c-0.4,0-0.7,0.3-0.7,0.7c0,0,0,0,0,0C6.3,67.7,6.7,68,7,68C7,68,7,68,7,68z M12.1,68c0.4,0,0.7-0.3,0.7-0.7c0,0,0,0,0,0
	c0-0.4-0.3-0.7-0.7-0.7c0,0,0,0,0,0c-0.4,0-0.7,0.3-0.7,0.7c0,0,0,0,0,0C11.4,67.7,11.7,68,12.1,68C12.1,68,12.1,68,12.1,68z
	 M17.1,68c0.4,0,0.7-0.3,0.7-0.7c0,0,0,0,0,0c0-0.4-0.3-0.7-0.7-0.7c0,0,0,0,0,0c-0.4,0-0.7,0.3-0.7,0.7c0,0,0,0,0,0
	C16.4,67.7,16.7,68,17.1,68C17.1,68,17.1,68,17.1,68z M22.1,68c0.4,0,0.7-0.3,0.7-0.7c0,0,0,0,0,0c0-0.4-0.3-0.7-0.7-0.7
	c0,0,0,0,0,0c-0.4,0-0.7,0.3-0.7,0.7c0,0,0,0,0,0C21.4,67.7,21.7,68,22.1,68C22.1,68,22.1,68,22.1,68z"/>
<path class="st0" d="M1.5,32.3V4.5c0-1.7,1.3-3,3-3c0,0,0,0,0,0h65.9c1.7,0,3,1.3,3,3c0,0,0,0,0,0v65c0,1.7-1.3,3-3,3c0,0,0,0,0,0
	H42.3"/>
<path class="st0" d="M35.5,39.5l25.1-24.1 M42.3,14.3h19.2v18.9"/>
</svg>
