<?xml version="1.0" encoding="utf-8"?>
<!-- Generator: Adobe Illustrator 23.0.3, SVG Export Plug-In . SVG Version: 6.00 Build 0)  -->
<svg version="1.1" id="Ebene_1" xmlns="http://www.w3.org/2000/svg" xmlns:xlink="http://www.w3.org/1999/xlink" x="0px" y="0px"
	 viewBox="0 0 92 68" style="enable-background:new 0 0 92 68;" xml:space="preserve">
<style type="text/css">
	.st0{fill:none;stroke:#86ED18;stroke-width:3;stroke-miterlimit:10;}
	.st1{fill:none;stroke:#FFFFFF;stroke-width:3;stroke-linecap:round;stroke-linejoin:round;stroke-miterlimit:10;}
	.st2{fill:#FFFFFF;}
</style>
<path class="st0" d="M17.5,22.8c3,0,5.5-2.5,5.5-5.5s-2.5-5.5-5.5-5.5S12,14.3,12,17.3S14.5,22.8,17.5,22.8z"/>
<path class="st0" d="M33,21.1l-3.5-2c0.1-0.7,0.1-1.4,0.1-2.1c0-0.8-0.1-1.6-0.3-2.4l3.1-1.8l-4.1-7.2l-3.2,1.8
	c-1.2-0.9-2.5-1.7-3.8-2.2V1.5h-8.2v3.8c-1.4,0.5-2.7,1.3-3.8,2.2l-3-1.8l-4.1,7.2l3.1,1.7c-0.1,0.8-0.3,1.6-0.3,2.3
	c0,0.8,0.1,1.4,0.3,2.2l-3.4,2l4.1,7.2l3.2-2c1.1,1,2.5,1.8,3.9,2.4v3.8h8.2v-3.8c1.4-0.5,2.8-1.3,4-2.4l3.4,2L33,21.1L33,21.1z"/>
<path class="st1" d="M17.5,56.2l-5.2,7.7v2.6h77.4v-2.6l-5.2-7.7"/>
<path class="st1" d="M37.4,12.8h47.1v43.3H16.5V37.1"/>
<g>
	<path class="st2" d="M27.7,33.2h3.9v0.9h-2.9v1.7H31v0.9h-2.3v2.8h-1V33.2z"/>
	<path class="st2" d="M32.6,33.2h2.2c0.6,0,1.1,0.2,1.4,0.5c0.3,0.3,0.5,0.7,0.5,1.3c0,0.4-0.1,0.8-0.3,1.1s-0.5,0.5-0.9,0.6
		l1.8,2.9h-1.1l-1.8-2.8h-0.8v2.8h-1V33.2z M34.8,35.8c0.3,0,0.5-0.1,0.6-0.2c0.2-0.1,0.2-0.3,0.2-0.6c0-0.5-0.3-0.8-0.9-0.8h-1.2
		v1.6H34.8z"/>
	<path class="st2" d="M38,33.2h3.8v0.9H39v1.6h2.3v0.9H39v2h2.9v0.9H38V33.2z"/>
	<path class="st2" d="M43.7,39.4c-0.3-0.2-0.5-0.4-0.7-0.6c-0.2-0.3-0.3-0.6-0.4-0.9l0.8-0.5c0.1,0.4,0.3,0.7,0.5,1s0.5,0.4,0.8,0.4
		c0.3,0,0.5-0.1,0.7-0.2c0.2-0.1,0.3-0.4,0.3-0.7c0-0.2-0.1-0.3-0.2-0.5c-0.1-0.1-0.2-0.3-0.4-0.4c-0.2-0.1-0.4-0.2-0.7-0.4
		l-0.2-0.1c-0.4-0.2-0.7-0.4-0.9-0.7c-0.2-0.3-0.3-0.6-0.3-1c0-0.3,0.1-0.6,0.2-0.8s0.3-0.4,0.6-0.6c0.3-0.1,0.5-0.2,0.9-0.2
		c0.8,0,1.4,0.4,1.7,1.1l-0.8,0.5c-0.2-0.5-0.5-0.7-0.9-0.7c-0.2,0-0.4,0.1-0.5,0.2s-0.2,0.3-0.2,0.5s0.1,0.3,0.2,0.5
		c0.1,0.1,0.3,0.3,0.4,0.4c0.2,0.1,0.4,0.2,0.7,0.3c0.5,0.2,0.8,0.5,1.1,0.7c0.3,0.3,0.4,0.6,0.4,1.1c0,0.4-0.1,0.7-0.2,1
		c-0.2,0.3-0.4,0.5-0.7,0.7c-0.3,0.2-0.6,0.2-1,0.2C44.3,39.6,44,39.5,43.7,39.4z"/>
	<path class="st2" d="M47.7,33.2h1v2.5h2.7v-2.5h1v6.3h-1v-2.9h-2.7v2.9h-1V33.2z"/>
	<path class="st2" d="M53.9,33.2h1.9c0.5,0,1,0.1,1.4,0.4c0.4,0.2,0.8,0.6,1.1,1.1c0.3,0.5,0.4,1.1,0.4,1.7c0,0.7-0.1,1.3-0.4,1.7
		c-0.3,0.5-0.6,0.8-1.1,1.1c-0.4,0.2-0.9,0.4-1.4,0.4h-1.9V33.2z M55.5,38.6c0.6,0,1.1-0.2,1.5-0.5c0.4-0.3,0.6-0.9,0.6-1.7
		c0-0.8-0.2-1.4-0.6-1.7c-0.4-0.3-0.9-0.5-1.5-0.5h-0.6v4.4H55.5z"/>
	<path class="st2" d="M59.9,33.2h3.8v0.9h-2.8v1.6h2.3v0.9h-2.3v2h2.9v0.9h-3.9V33.2z"/>
	<path class="st2" d="M65.6,39.4c-0.3-0.2-0.5-0.4-0.7-0.6c-0.2-0.3-0.3-0.6-0.4-0.9l0.8-0.5c0.1,0.4,0.3,0.7,0.5,1s0.5,0.4,0.8,0.4
		c0.3,0,0.5-0.1,0.7-0.2c0.2-0.1,0.3-0.4,0.3-0.7c0-0.2-0.1-0.3-0.2-0.5c-0.1-0.1-0.2-0.3-0.4-0.4c-0.2-0.1-0.4-0.2-0.7-0.4
		l-0.2-0.1c-0.4-0.2-0.7-0.4-0.9-0.7c-0.2-0.3-0.3-0.6-0.3-1c0-0.3,0.1-0.6,0.2-0.8c0.1-0.2,0.3-0.4,0.6-0.6
		c0.3-0.1,0.5-0.2,0.9-0.2c0.8,0,1.4,0.4,1.7,1.1l-0.8,0.5c-0.2-0.5-0.5-0.7-0.9-0.7c-0.2,0-0.4,0.1-0.5,0.2
		c-0.1,0.1-0.2,0.3-0.2,0.5s0.1,0.3,0.2,0.5c0.1,0.1,0.3,0.3,0.4,0.4s0.4,0.2,0.7,0.3c0.5,0.2,0.8,0.5,1.1,0.7
		c0.3,0.3,0.4,0.6,0.4,1.1c0,0.4-0.1,0.7-0.2,1c-0.2,0.3-0.4,0.5-0.7,0.7c-0.3,0.2-0.6,0.2-1,0.2C66.2,39.6,65.9,39.5,65.6,39.4z"/>
	<path class="st2" d="M69.6,33.2h1v2.4l2.2-2.4h1.2L71.5,36l2.8,3.5H73l-2.4-3.1v3.1h-1V33.2z"/>
</g>
</svg>
