<svg version="1.1" id="Ebene_1" xmlns="http://www.w3.org/2000/svg" xmlns:xlink="http://www.w3.org/1999/xlink" x="0px" y="0px"
	 width="81" height="82.6" viewBox="0 0 81 82.6" style="enable-background:new 0 0 81 82.6;" xml:space="preserve">
<style type="text/css">
	.st0{display:none;fill:none;stroke:#86ED18;stroke-width:3;stroke-linecap:round;stroke-linejoin:round;stroke-miterlimit:10;}
	.st1{fill:none;stroke:#86ED18;stroke-width:3;stroke-linecap:round;stroke-linejoin:round;stroke-miterlimit:10;}
	.st2{fill:none;stroke:#FFFFFF;stroke-width:3;stroke-linecap:round;stroke-linejoin:round;stroke-miterlimit:10;}
</style>
<path class="st0" d="M79.2,48.8c-7.9,0-14.3-3.2-19.1-8c-4.7,4.8-11.1,8-19.1,8c0,0-1.8,28.5,19.1,39.7C81,77.3,79.2,48.8,79.2,48.8
	z"/>
<path class="st1" d="M70.5,58.3L59.3,69.5l-5.5-5.7"/>
<path class="st2" d="M37.9,62.4H4.1c-1.4,0-2.5-1.1-2.6-2.5V4c0-1.4,1.1-2.5,2.5-2.5h61.2c1.4,0,2.5,1.1,2.6,2.5v35.6 M57.6,31.9
	H37.2 M57.6,11.6H37.2"/>
<path class="st2" d="M13,12.9c0.7,0,1.3-0.6,1.3-1.3s-0.6-1.3-1.3-1.3c-0.7,0-1.3,0.6-1.3,1.3S12.3,12.9,13,12.9z M13,33.2
	c0.7,0,1.3-0.6,1.3-1.3c0-0.7-0.6-1.3-1.3-1.3c-0.7,0-1.3,0.6-1.3,1.3S12.3,33.2,13,33.2z M13,53.5c0.7,0,1.3-0.6,1.3-1.3
	S13.7,51,13,51c-0.7,0-1.3,0.6-1.3,1.3S12.3,53.5,13,53.5z M67.8,21.8H1.5 M44.1,42.1H1.5"/>
<circle class="st1" cx="61.6" cy="63.2" r="17.7"/>
</svg>
