<?xml version="1.0" encoding="utf-8"?>
<!-- Generator: Adobe Illustrator 23.0.3, SVG Export Plug-In . SVG Version: 6.00 Build 0)  -->
<svg version="1.1" id="Ebene_1" xmlns="http://www.w3.org/2000/svg" xmlns:xlink="http://www.w3.org/1999/xlink" x="0px" y="0px"
	 viewBox="0 0 71 68" style="enable-background:new 0 0 71 68;" xml:space="preserve">
<style type="text/css">
	.st0{fill:none;stroke:#FFFFFF;stroke-width:3;stroke-linecap:round;stroke-linejoin:round;stroke-miterlimit:10;}
	.st1{fill:none;stroke:#86ED18;stroke-width:3;stroke-linecap:round;stroke-linejoin:round;stroke-miterlimit:10;}
</style>
<path class="st0" d="M69.1,1.5H1.5v15.6h67.6L69.1,1.5L69.1,1.5z M1.5,17.1v49.4h67.6V17.1"/>
<path class="st0" d="M9.3,10.6c0.7,0,1.3-0.6,1.3-1.3S10,8,9.3,8c0,0,0,0,0,0C8.6,8,8,8.6,8,9.3S8.6,10.6,9.3,10.6z M18.4,10.6
	c0.7,0,1.3-0.6,1.3-1.3c0-0.7-0.6-1.3-1.3-1.3c0,0,0,0,0,0c-0.7,0-1.3,0.6-1.3,1.3S17.7,10.6,18.4,10.6z M27.5,10.6
	c0.7,0,1.3-0.6,1.3-1.3c0-0.7-0.6-1.3-1.3-1.3c0,0,0,0,0,0c-0.7,0-1.3,0.6-1.3,1.3S26.8,10.6,27.5,10.6z"/>
<path class="st1" d="M63.9,39.5h-5.2l-7.8-7.8l-7.8,15.6l-13-18.2l-13,23.4l-5.2-13H6.7"/>
</svg>
