<?xml version="1.0" encoding="utf-8"?>
<!-- Generator: Adobe Illustrator 23.0.3, SVG Export Plug-In . SVG Version: 6.00 Build 0)  -->
<svg version="1.1" xmlns="http://www.w3.org/2000/svg" xmlns:xlink="http://www.w3.org/1999/xlink" x="0px" y="0px"
	 viewBox="0 0 234 226" style="enable-background:new 0 0 234 226;" xml:space="preserve">
<style type="text/css">
	.st0{display:none;fill:#86ED18;stroke:#000000;stroke-miterlimit:10;}
	.st1{fill:#FFFFFF;stroke:#000000;stroke-width:2;stroke-miterlimit:10;}
	.st2{fill:#FFFFFF;stroke:#00FF00;stroke-width:2;stroke-miterlimit:10;stroke-dasharray:10;}
	.st3{fill:none;stroke:#000000;stroke-width:2;stroke-miterlimit:10;}
	.st4{fill:none;stroke:#000000;stroke-width:3;stroke-miterlimit:10;}
	.st5{fill:#FFFFFF;stroke:#000000;stroke-width:3;stroke-miterlimit:10;}
	.st6{display:none;}
	.st7{display:inline;fill:#FFFFFF;stroke:#000000;stroke-width:2;stroke-miterlimit:10;}
	.st8{display:inline;fill:none;stroke:#000000;stroke-miterlimit:10;}
	.st9{display:inline;}
	.st10{fill:none;stroke:#FFFFFF;stroke-width:3;stroke-miterlimit:10;}
	.st11{fill:none;stroke:#000000;stroke-width:2;stroke-linecap:square;stroke-miterlimit:10;stroke-dasharray:6;}
</style>
<g id="Ebene_1">
	<circle class="st0" cx="117" cy="113" r="177.5"/>
	<rect x="17" y="13" class="st1" width="132.7" height="132.7"/>
	<polygon class="st2" points="216,212 83.3,212 83.3,145.3 149.3,79.3 216,79.3 	"/>
	<polyline class="st3" points="149.7,79.3 216,79.3 216,212 83.3,212 83.3,145.7 	"/>
</g>
<g id="Ebene_2">
	<path class="st4" d="M77.6,103.5c-17.7,0-32.1-14.3-32.1-32c0-17.7,14.4-32,32.1-32c17.7,0,32.1,14.3,32.1,32c0,3-0.4,5.8-1.2,8.5
		 M77.6,103.5c16.6,0,24.4-9.9,17.9-16.4"/>
	<path class="st5" d="M95.9,80.1c0.8,0.6,2.2,1.4,1.9,3.1c-0.2,1.3-2.9,6.4-8.7,6.4s-12.8-4.5-19-10.7c-6.2-6.2-10.8-13.2-10.8-19
		c0-5.8,5.1-8.5,6.4-8.6c1.8-0.3,2.6,1.1,3.2,1.9c0.6,0.8,3.9,5.9,4.4,6.7c0.5,0.8,1,2.7-0.8,4.2c-1.9,1.5-3.9,2.3,3.2,9.3
		c7,7,7.8,5,9.3,3.1c1.5-1.9,3.4-1.3,4.2-0.8C90,76.2,95.1,79.5,95.9,80.1L95.9,80.1z"/>
</g>
<g id="Ebene_3" class="st6">
	<path class="st7" d="M189.3,142.7h-60.7c-1.7,0-3-1.4-3-3V127c0-1.7,1.4-3,3-3h60.7c1.7,0,3,1.4,3,3v12.7
		C192.3,141.4,190.9,142.7,189.3,142.7z"/>
	<path class="st7" d="M189.7,167.6h-60.7c-1.7,0-3-1.4-3-3v-12.7c0-1.7,1.4-3,3-3h60.7c1.7,0,3,1.4,3,3v12.7
		C192.7,166.2,191.3,167.6,189.7,167.6z"/>
	<path class="st7" d="M189.7,192h-60.7c-1.7,0-3-1.4-3-3v-12.7c0-1.7,1.4-3,3-3h60.7c1.7,0,3,1.4,3,3V189
		C192.7,190.6,191.3,192,189.7,192z"/>
	<line class="st8" x1="159.5" y1="142.7" x2="159.5" y2="148.6"/>
	<line class="st8" x1="159.5" y1="167.4" x2="159.5" y2="173.3"/>
	<circle class="st9" cx="135.8" cy="133.9" r="5.9"/>
	<circle class="st9" cx="135.8" cy="158.5" r="5.9"/>
	<circle class="st9" cx="135.8" cy="183.1" r="5.9"/>
	<rect x="149.6" y="128.9" class="st9" width="35.5" height="3.9"/>
	<rect x="149.6" y="134.8" class="st9" width="17.7" height="3.9"/>
	<rect x="149.6" y="153.6" class="st9" width="35.5" height="3.9"/>
	<rect x="149.6" y="159.5" class="st9" width="28.6" height="3.9"/>
	<rect x="149.6" y="178.2" class="st9" width="35.5" height="3.9"/>
	<rect x="149.6" y="184.1" class="st9" width="22.7" height="3.9"/>
</g>
<g id="Ebene_4">
	<path class="st5" d="M117,153.1l74-19.1c0,0,2.2-1.1,3,1.6c0.8,2.8,8.9,33.3,8.9,33.3s0.8,2.8-1.9,3.6
		c-2.8,0.8-71.2,19.2-71.2,19.2s-1.2,0.9-1.8-1c-0.5-1.8-0.8-2.8-0.8-2.8l-0.3-0.9c0,0,4.9-0.4,3.8-4.1c-1.1-3.7-5.4-1.4-5.4-1.4
		l-1.6-5.5c0,0,4.1-1.2,3.2-4.4c-1-3.2-5.1-2-5.1-2l-1.4-4.6c0,0,4-1.7,3.2-4.4c-0.8-2.8-5.1-2-5.1-2s-1.5-5-1.6-5.3
		C116.7,153.2,117,153.1,117,153.1z"/>
	<path class="st10" d="M101.5,161l67.3-43.5c0,0,1.8-1.9,3.5,0.6c1.7,2.5,20,30.2,20,30.2s1.7,2.5-0.7,4.2
		c-2.5,1.7-64.5,42.8-64.5,42.8s-0.9,1.3-2.1-0.4c-1.2-1.6-1.7-2.5-1.7-2.5l-0.6-0.8c0,0,4.7-2.1,2.4-5.4c-2.3-3.3-5.8,0.4-5.8,0.4
		l-3.5-4.9c0,0,3.7-2.6,1.7-5.5c-2-2.9-5.7-0.3-5.7-0.3l-2.9-4.1c0,0,3.4-3,1.7-5.5c-1.7-2.5-5.7-0.3-5.7-0.3s-3.2-4.5-3.3-4.7
		C101.2,161.1,101.5,161,101.5,161z"/>
	<path class="st5" d="M103.6,160.8l64.2-41.5c0,0,1.7-1.8,3.3,0.6s19,28.8,19,28.8s1.6,2.4-0.7,4c-2.4,1.6-61.5,40.8-61.5,40.8
		s-0.9,1.2-2-0.4c-1.1-1.6-1.6-2.4-1.6-2.4s3.2-2.7,1.3-5.5c-1.9-2.8-5.2,0-5.2,0l-3.3-4.7c0,0,3.5-2.5,1.6-5.2
		c-1.9-2.7-5.5-0.3-5.5-0.3l-2.7-3.9c0,0,3-2.6,1.2-5.3c-1.6-2.4-5-0.1-5-0.1s-3-4.3-3.2-4.5C103.4,160.9,103.6,160.8,103.6,160.8z"
		/>
	<line class="st11" x1="115.9" y1="152.3" x2="139" y2="185.7"/>
	<g>
		<path d="M133.6,162.1l-0.8-1.2l5.7-3.8l0.8,1.2l-2.1,1.4l4.1,6.2l-1.4,0.9l-4.1-6.2L133.6,162.1z"/>
		<path d="M145,163.4l-4.9-7.4l1.4-0.9l4.9,7.4L145,163.4z"/>
		<path d="M146,157.5c-0.4-0.6-0.7-1.2-0.9-1.7c-0.2-0.6-0.3-1.1-0.2-1.6c0-0.5,0.2-1,0.5-1.4c0.3-0.4,0.7-0.8,1.2-1.2
			c0.4-0.2,0.8-0.4,1.2-0.5c0.4-0.1,0.8-0.1,1.2-0.1c0.4,0,0.7,0.2,1.1,0.4c0.3,0.2,0.6,0.5,0.9,0.8l-1.4,0.9
			c-0.3-0.4-0.6-0.6-1-0.6c-0.4,0-0.8,0.1-1.2,0.4c-0.2,0.1-0.4,0.3-0.5,0.5c-0.1,0.2-0.2,0.4-0.3,0.6c-0.1,0.2-0.1,0.5,0,0.7
			c0,0.2,0.1,0.5,0.3,0.7l1.5,2.3c0.1,0.2,0.3,0.4,0.5,0.5c0.2,0.1,0.4,0.2,0.7,0.3c0.2,0,0.5,0,0.7,0c0.2-0.1,0.5-0.2,0.7-0.3
			c0.4-0.3,0.7-0.6,0.8-1c0.1-0.3,0.1-0.8-0.2-1.2l1.4-0.9c0.2,0.5,0.4,0.9,0.4,1.3c0,0.4,0,0.8-0.1,1.2c-0.1,0.4-0.3,0.7-0.6,1
			c-0.3,0.3-0.6,0.6-1,0.9c-0.5,0.4-1.1,0.6-1.6,0.6c-0.5,0.1-1,0-1.5-0.2c-0.5-0.2-0.9-0.4-1.4-0.8
			C146.8,158.5,146.4,158.1,146,157.5z"/>
		<path d="M156.4,155.9l-4.9-7.4l1.4-0.9l4.9,7.4L156.4,155.9z M155.2,151.1l0.4-5.2l1.7-1.1l-0.5,5.3l5.5,2l-1.6,1.1L155.2,151.1z"
			/>
		<path d="M163.9,151l-4.9-7.4l5.1-3.4l0.8,1.2l-3.7,2.4l1.2,1.8l3.2-2.1l0.8,1.2l-3.2,2.1l1.3,2l3.7-2.4l0.8,1.2L163.9,151z"/>
		<path d="M166.2,140.5l-0.8-1.2l5.7-3.8l0.8,1.2l-2.1,1.4l4.1,6.2l-1.4,0.9l-4.1-6.2L166.2,140.5z"/>
	</g>
</g>
</svg>
