<?xml version="1.0" encoding="utf-8"?>
<!-- Generator: Adobe Illustrator 24.1.1, SVG Export Plug-In . SVG Version: 6.00 Build 0)  -->
<svg version="1.1" id="Ebene_1" xmlns="http://www.w3.org/2000/svg" xmlns:xlink="http://www.w3.org/1999/xlink" x="0px" y="0px"
	 viewBox="0 0 100 81" style="enable-background:new 0 0 100 81;" xml:space="preserve">
<style type="text/css">
	.st0{fill:none;stroke:#FFFFFF;stroke-width:3;stroke-miterlimit:10;}
	.st1{fill:none;stroke:#FFFFFF;stroke-width:3;stroke-linecap:round;stroke-linejoin:round;stroke-miterlimit:10;}
	.st2{fill:none;stroke:#FFFFFF;stroke-width:3;stroke-linecap:round;stroke-miterlimit:10;}
	.st3{fill:none;stroke:#86ED18;stroke-width:3;stroke-linecap:round;stroke-miterlimit:10;}
</style>
<path class="st0" d="M0,12.8h32.1 M8,22.6h20.1 M16,31.6h8"/>
<path class="st1" d="M91.3,63.6c0.1,0.5,0.1,1,0.1,1.5c0,4.1-3.3,7.6-7.6,7.6c-0.5,0-0.8,0-1.1-0.1 M98.1,63.9v1.2
	c0,7.9-6.4,14.4-14.3,14.4H83"/>
<path class="st2" d="M89.5,16.1l-6.6-6.7c-0.4-0.4-0.5-1.1,0-1.6c0,0,0,0,0,0l2.5-2.5c0.4-0.4,1.1-0.5,1.6,0c0,0,0,0,0,0l6.6,6.7
	c0.5,0.5,0.5,1.2,0,1.6l-2.5,2.5C90.7,16.6,90,16.6,89.5,16.1z M81.3,17.7l4.9-5 M60.7,69.5c16.5,0,29.8-13.4,29.8-30
	c0-16.5-13.3-30-29.8-30c-16.5,0-29.8,13.4-29.8,30C30.9,56.1,44.3,69.5,60.7,69.5z"/>
<path class="st2" d="M57.3,9.8V2.7c0-0.6,0.6-1.2,1.1-1.2H63c0.7,0,1.1,0.6,1.1,1.2v7.1"/>
<path class="st3" d="M60.7,16.5v19.6 M60.7,43c1.9,0,3.4-1.6,3.4-3.5c0,0,0,0,0,0c0-1.9-1.5-3.5-3.4-3.5c0,0,0,0,0,0
	c-1.9,0-3.4,1.6-3.4,3.5c0,0,0,0,0,0C57.3,41.4,58.8,43,60.7,43C60.7,43,60.7,43,60.7,43z M60.6,43v6.9"/>
</svg>
