<svg width="96" height="96" viewBox="0 0 96 96" fill="none" xmlns="http://www.w3.org/2000/svg">
<path fill-rule="evenodd" clip-rule="evenodd" d="M48 96C21.6485 96 0 74.5894 0 48.0004C0 21.6487 21.6485 0.00086168 48.0029 0.00086168C51.7357 -0.0230755 55.4547 0.451815 59.0587 1.41261V28.2359C55.7651 26.5898 52.0026 25.4124 48 25.4124C35.529 25.4124 25.4138 35.529 25.4138 48.0004C25.4138 58.4776 32.5527 67.2929 42.2299 69.8442C42.0316 70.0483 41.8365 70.2611 41.6447 70.4828C37.7991 74.9307 37.9165 80.2912 39.2488 84.0255C40.5052 87.5473 43.0596 90.5794 46.2206 92.4187L46.6084 92.6443L53.2031 95.6974C51.4844 95.8991 49.7422 96 48 96ZM95.3466 55.9248C95.7762 53.3461 96 50.6987 96 48.0004C96 29.6488 85.8803 13.6489 70.5891 5.64937V5.64787H70.5862L70.5891 5.64937V50.0804C72.062 49.4403 73.6892 48.8597 75.4227 48.4656C78.901 47.6747 83.1884 47.5557 87.5388 49.5148C90.6941 50.9356 93.2663 53.1724 95.3466 55.9248Z" fill="#AAEA39"/>
<path d="M52.5431 48.682C48.3623 51.1752 51.1784 56.2136 51.983 57.653L64.0522 79.2452L56.988 76.2605C54.0377 75.1409 50.9618 74.3842 48.9063 76.7615C46.8508 79.1389 48.6047 82.6993 51.0482 84.1211L70.0727 92.9286C73.512 94.2654 75.7125 98.2021 82.1542 94.3606L90.615 89.3151C99.0759 84.2695 95.7303 76.1883 92.892 70.6835L89.0779 63.8599C82.4365 51.9783 72.546 59.7852 66.3793 63.4626L60.3448 52.6666C59.5402 51.2271 56.7239 46.1887 52.5431 48.682Z" fill="url(#paint0_linear)"/>
<defs>
<linearGradient id="paint0_linear" x1="72" y1="48" x2="72" y2="96" gradientUnits="userSpaceOnUse">
<stop stop-color="#9BA3A2"/>
<stop offset="1" stop-color="#626A69"/>
</linearGradient>
</defs>
</svg>
