<svg width="50" height="50" viewBox="0 0 50 50" fill="none" xmlns="http://www.w3.org/2000/svg">
<line x1="1" y1="12" x2="49" y2="12" stroke="white" stroke-width="2"/>
<path fill-rule="evenodd" clip-rule="evenodd" d="M34 19L36.5 16L39 19H41C42.1046 19 43 19.8954 43 21V45C43 46.1046 42.1046 47 41 47H21C19.8954 47 19 46.1046 19 45V21C19 19.8954 19.8954 19 21 19H34ZM27.7564 26.6304C27.3156 25.9062 26.3019 25.7831 25.6962 26.3804L25.2127 26.857L24.5587 27.5018L24.5581 27.5024L24.5431 27.5172C24.5196 27.5404 24.4972 27.5642 24.4758 27.5887C23.9796 28.1415 23.8425 28.9274 24.2031 29.5821C25.0018 31.0323 26.4788 33.246 28.6578 35.3943C30.7354 37.4427 32.7145 38.8931 34.0367 39.7323C34.754 40.1876 35.6755 40.0421 36.2787 39.4474L36.4603 39.2683L36.4611 39.2676L37.1308 38.6073L37.6142 38.1307C38.22 37.5335 38.0952 36.534 37.3606 36.0995L34.5673 34.4471C34.0492 34.1406 33.386 34.2211 32.9587 34.6423L31.9128 35.6736C31.3119 35.1918 30.688 34.642 30.0544 34.0173C29.3545 33.3273 28.741 32.6427 28.2067 31.9834L29.2343 30.9703C29.6616 30.5491 29.7432 29.8952 29.4324 29.3844L27.7564 26.6304Z" fill="#86EC16"/>
<path fill-rule="evenodd" clip-rule="evenodd" d="M4 2C2.34315 2 1 3.34315 1 5V38C1 39.6569 2.34315 41 4 41H19V39H4C3.44772 39 3 38.5523 3 38V5C3 4.44772 3.44772 4 4 4H46C46.5523 4 47 4.44771 47 5V38C47 38.5523 46.5523 39 46 39H43V41H46C47.6569 41 49 39.6569 49 38V5C49 3.34315 47.6569 2 46 2H4Z" fill="white"/>
<circle cx="6.5" cy="7.5" r="1.5" fill="white"/>
<circle cx="11.5" cy="7.5" r="1.5" fill="white"/>
<circle cx="16.5" cy="7.5" r="1.5" fill="white"/>
<rect x="33" y="4" width="7" height="7" fill="#86EC16"/>
</svg>
