<svg width="70" height="71" viewBox="0 0 70 71" fill="none" xmlns="http://www.w3.org/2000/svg">
<path d="M13.5325 27.6104V39.1429L34.6234 49.6883L55.7143 39.1429V28.3636M13.5325 11.039L34.6234 2L55.7143 11.039L64 23.0909L43.6623 34.3896L34.6234 23.0909L27.0909 35.1429L6 23.0909L13.5325 11.039Z" stroke="black" stroke-width="2"/>
<path d="M13.5312 11.0381L34.6222 21.5835L55.7131 11.0381" stroke="black" stroke-width="2"/>
<path d="M34.625 21.584V45.6879" stroke="black" stroke-width="2"/>
<rect x="21" y="39" width="28" height="30" rx="4" fill="#86EC16"/>
<path d="M26 45.6667L28.3333 48L32 44" stroke="black" stroke-width="2"/>
<line x1="35" y1="47" x2="45" y2="47" stroke="black" stroke-width="2"/>
<path d="M26 53.6667L28.3333 56L32 52" stroke="black" stroke-width="2"/>
<line x1="35" y1="55" x2="45" y2="55" stroke="black" stroke-width="2"/>
<path d="M26 61.6667L28.3333 64L32 60" stroke="black" stroke-width="2"/>
<line x1="35" y1="63" x2="45" y2="63" stroke="black" stroke-width="2"/>
</svg>
