<svg width="51" height="50" viewBox="0 0 51 50" fill="none" xmlns="http://www.w3.org/2000/svg">
<path d="M12.244 38.8893C6.43391 33.1611 3.8286 27.6373 3.25221 25.5915L2.03757 26.7891C0.991977 27.82 0.67161 29.3713 1.37722 30.6525C2.86043 33.3456 5.60349 37.4569 9.65019 41.4466C13.5085 45.2506 17.1841 47.9444 19.6396 49.5029C20.9718 50.3484 22.6831 50.0782 23.8034 48.9737L25.3858 47.4136C23.426 46.9589 18.054 44.6176 12.244 38.8893Z" fill="#86EC16"/>
<path d="M4.15 24.7064C5.27496 23.5972 7.15761 23.8257 7.97613 25.1708L11.0887 30.2853C11.666 31.234 11.5144 32.4483 10.7209 33.2306L8.57941 35.342C7.45445 36.4511 5.57181 36.2226 4.75328 34.8776L1.64076 29.763C1.06343 28.8143 1.21506 27.6 2.00853 26.8177L4.15 24.7064Z" fill="#86EC16"/>
<path d="M26.2836 46.5284C27.4085 45.4193 27.1767 43.5631 25.8125 42.7561L20.625 39.6874C19.6627 39.1182 18.4311 39.2677 17.6376 40.05L15.4961 42.1613C14.3712 43.2705 14.603 45.1266 15.9672 45.9336L21.1547 49.0023C22.1169 49.5715 23.3486 49.4221 24.1421 48.6398L26.2836 46.5284Z" fill="#86EC16"/>
<mask id="path-2-inside-1" fill="white">
<path fill-rule="evenodd" clip-rule="evenodd" d="M45 0C48.3137 0 51 2.68629 51 6V20C51 23.3137 48.3137 26 45 26H29.4711L21.0005 34V26H21V6C21 2.68629 23.6863 0 27 0H45Z"/>
</mask>
<path d="M29.4711 26L28.0978 24.546L28.6759 24H29.4711V26ZM21.0005 34L22.3738 35.454L19.0005 38.6399V34H21.0005ZM21.0005 26V24H23.0005V26H21.0005ZM21 26V28H19V26H21ZM49 6C49 3.79086 47.2091 2 45 2V-2C49.4183 -2 53 1.58172 53 6H49ZM49 20V6H53V20H49ZM45 24C47.2091 24 49 22.2091 49 20H53C53 24.4183 49.4183 28 45 28V24ZM29.4711 24H45V28H29.4711V24ZM19.6273 32.546L28.0978 24.546L30.8443 27.454L22.3738 35.454L19.6273 32.546ZM23.0005 26V34H19.0005V26H23.0005ZM21 24H21.0005V28H21V24ZM23 6V26H19V6H23ZM27 2C24.7909 2 23 3.79086 23 6H19C19 1.58172 22.5817 -2 27 -2V2ZM45 2H27V-2H45V2Z" fill="black" mask="url(#path-2-inside-1)"/>
<rect x="30" y="11" width="12" height="8" rx="2" stroke="black" stroke-width="2"/>
<path d="M33 9C33 7.89543 33.8954 7 35 7H37C38.1046 7 39 7.89543 39 9V11H33V9Z" stroke="black" stroke-width="2"/>
</svg>
