<svg width="84" height="84" viewBox="0 0 84 84" fill="none" xmlns="http://www.w3.org/2000/svg">
<circle cx="42" cy="42" r="40" fill="white"/>
<circle cx="42" cy="42" r="41" stroke="black" stroke-opacity="0.1" stroke-width="2"/>
<path fill-rule="evenodd" clip-rule="evenodd" d="M14.1914 70.7517C17.7446 58.7534 28.8508 50 42.0016 50C55.1517 50 66.2576 58.7526 69.8113 70.75C62.6132 77.7144 52.8073 82 42.0005 82C31.1945 82 21.3894 77.7151 14.1914 70.7517Z" fill="black"/>
<path d="M37.5469 73V70.9004H41.248V63.5762H37.5469V61.4766H41.248V59.3965H43.748V70.9004H47.1465V73H37.5469Z" fill="white"/>
<path d="M18.3201 44.25L24.5008 41.602L30.6799 44.25L30.0687 37.5607L34.5 32.5077L27.9394 31.0244L24.5008 25.25L21.0591 31.0244L14.5 32.5077L18.9298 37.5607L18.3201 44.25Z" fill="#86EC16"/>
<path d="M42.3884 33.8772L42.0005 33.7139L41.6125 33.8771L38.5143 35.181L38.8181 31.9146L38.8584 31.4811L38.5686 31.1562L36.3807 28.7041L39.6362 27.9795L40.0525 27.8868L40.2738 27.5222L42.0001 24.6778L43.7253 27.5219L43.9465 27.8868L44.363 27.9795L47.6192 28.7041L45.4314 31.1562L45.1416 31.481L45.1819 31.9144L45.4852 35.1809L42.3884 33.8772Z" stroke="black" stroke-width="2"/>
<path d="M59.8892 39.1272L59.5012 38.9639L59.1133 39.1271L56.0148 40.4311L56.3181 37.1644L56.3584 36.731L56.0686 36.4062L53.8808 33.9541L57.137 33.2295L57.5533 33.1368L57.7746 32.7722L59.5009 29.9278L61.226 32.7719L61.4473 33.1368L61.8638 33.2295L65.1193 33.9541L62.9314 36.4062L62.6416 36.7311L62.6819 37.1646L62.9857 40.4308L59.8892 39.1272Z" stroke="black" stroke-width="2"/>
</svg>
