<svg width="84" height="84" viewBox="0 0 84 84" fill="none" xmlns="http://www.w3.org/2000/svg">
<circle cx="42" cy="42" r="40" fill="white"/>
<circle cx="42" cy="42" r="41" stroke="black" stroke-opacity="0.1" stroke-width="2"/>
<path fill-rule="evenodd" clip-rule="evenodd" d="M14.1914 70.7517C17.7446 58.7534 28.8508 50 42.0016 50C55.1517 50 66.2576 58.7526 69.8113 70.75C62.6132 77.7144 52.8073 82 42.0005 82C31.1945 82 21.3894 77.7151 14.1914 70.7517Z" fill="black"/>
<path d="M37.2441 73V70.8809L42.7227 65.5391C43.1328 65.1549 43.4551 64.7676 43.6895 64.377C43.9238 63.9798 44.041 63.5534 44.041 63.0977C44.041 62.4987 43.8555 62.0332 43.4844 61.7012C43.1133 61.3691 42.6315 61.2031 42.0391 61.2031C41.349 61.2031 40.8086 61.3919 40.418 61.7695C40.0339 62.1471 39.8418 62.6908 39.8418 63.4004H37.3027C37.3027 62.7493 37.4232 62.1602 37.6641 61.6328C37.9049 61.1055 38.2402 60.6562 38.6699 60.2852C39.1061 59.9076 39.6172 59.6178 40.2031 59.416C40.7891 59.2077 41.4303 59.1035 42.127 59.1035C42.8171 59.1035 43.4388 59.2012 43.9922 59.3965C44.5456 59.5853 45.0111 59.8555 45.3887 60.207C45.7728 60.5521 46.0625 60.972 46.2578 61.4668C46.4596 61.9551 46.5605 62.4987 46.5605 63.0977C46.5605 63.4948 46.5052 63.8789 46.3945 64.25C46.2839 64.6146 46.1374 64.9629 45.9551 65.2949C45.7728 65.6204 45.5612 65.9232 45.3203 66.2031C45.0859 66.4831 44.8418 66.7435 44.5879 66.9844L40.4473 70.8613V70.9004H46.7656V73H37.2441Z" fill="white"/>
<path d="M35.8201 39L42.0008 36.352L48.1799 39L47.5687 32.3107L52 27.2577L45.4394 25.7744L42.0008 20L38.5591 25.7744L32 27.2577L36.4298 32.3107L35.8201 39Z" fill="#86EC16"/>
<path d="M59.8892 39.1272L59.5012 38.9639L59.1133 39.1271L56.0148 40.4311L56.3181 37.1644L56.3584 36.731L56.0686 36.4062L53.8808 33.9541L57.137 33.2295L57.5533 33.1368L57.7746 32.7722L59.5009 29.9278L61.226 32.7719L61.4473 33.1368L61.8638 33.2295L65.1193 33.9541L62.9314 36.4062L62.6416 36.7311L62.6819 37.1646L62.9857 40.4308L59.8892 39.1272Z" stroke="black" stroke-width="2"/>
<path d="M24.8884 39.1272L24.5005 38.9639L24.1125 39.1271L21.0143 40.431L21.3181 37.1646L21.3584 36.7311L21.0686 36.4062L18.8807 33.9541L22.1362 33.2295L22.5525 33.1368L22.7738 32.7722L24.5001 29.9278L26.2253 32.7719L26.4465 33.1368L26.863 33.2295L30.1192 33.9541L27.9314 36.4062L27.6416 36.731L27.6819 37.1644L27.9852 40.4309L24.8884 39.1272Z" stroke="black" stroke-width="2"/>
</svg>
