<svg width="84" height="84" viewBox="0 0 84 84" fill="none" xmlns="http://www.w3.org/2000/svg">
<circle cx="42" cy="42" r="40" fill="white"/>
<circle cx="42" cy="42" r="41" stroke="black" stroke-opacity="0.1" stroke-width="2"/>
<path fill-rule="evenodd" clip-rule="evenodd" d="M14.1914 70.7517C17.7446 58.7534 28.8508 50 42.0016 50C55.1517 50 66.2576 58.7526 69.8113 70.75C62.6132 77.7144 52.8073 82 42.0005 82C31.1945 82 21.3894 77.7151 14.1914 70.7517Z" fill="black"/>
<path d="M36.9609 69.0352H39.5C39.526 69.7969 39.7669 70.3503 40.2227 70.6953C40.6784 71.0339 41.2448 71.2031 41.9219 71.2031C42.612 71.2031 43.1686 71.0371 43.5918 70.7051C44.015 70.3665 44.2266 69.9596 44.2266 69.4844V68.2637C44.2266 67.4629 43.8001 67.0625 42.9473 67.0625H40.125V64.9824H42.8008C43.2435 64.9824 43.5495 64.875 43.7188 64.6602C43.8945 64.4453 43.9824 64.1654 43.9824 63.8203V62.7363C43.9824 62.2155 43.7904 61.8314 43.4062 61.584C43.0286 61.3301 42.5599 61.2031 42 61.2031C41.375 61.2031 40.8639 61.3431 40.4668 61.623C40.0762 61.903 39.8613 62.3555 39.8223 62.9805H37.2832C37.2832 62.3815 37.3971 61.8411 37.625 61.3594C37.8529 60.8776 38.1719 60.4707 38.582 60.1387C38.9987 59.8066 39.4967 59.5527 40.0762 59.377C40.6556 59.1947 41.2969 59.1035 42 59.1035C42.6901 59.1035 43.3216 59.1914 43.8945 59.3672C44.474 59.5365 44.9655 59.7806 45.3691 60.0996C45.7793 60.4186 46.0951 60.806 46.3164 61.2617C46.5378 61.7109 46.6484 62.209 46.6484 62.7559C46.6484 63.5566 46.4824 64.2207 46.1504 64.748C45.8249 65.2754 45.3301 65.6921 44.666 65.998C45.4017 66.304 45.9551 66.7109 46.3262 67.2188C46.6973 67.7266 46.8828 68.4199 46.8828 69.2988C46.8828 69.9238 46.7624 70.487 46.5215 70.9883C46.2806 71.4896 45.9388 71.9095 45.4961 72.248C45.0599 72.5866 44.5391 72.847 43.9336 73.0293C43.3281 73.2116 42.6641 73.3027 41.9414 73.3027C41.2318 73.3027 40.5775 73.2148 39.9785 73.0391C39.3796 72.8633 38.8522 72.5996 38.3965 72.248C37.9473 71.8965 37.5957 71.4538 37.3418 70.9199C37.0879 70.3861 36.9609 69.7578 36.9609 69.0352Z" fill="white"/>
<path d="M53.3201 44.25L59.5008 41.602L65.6799 44.25L65.0687 37.5607L69.5 32.5077L62.9394 31.0244L59.5008 25.25L56.0591 31.0244L49.5 32.5077L53.9298 37.5607L53.3201 44.25Z" fill="#86EC16"/>
<path d="M42.3884 33.8772L42.0005 33.7139L41.6125 33.8771L38.5143 35.181L38.8181 31.9146L38.8584 31.4811L38.5686 31.1562L36.3807 28.7041L39.6362 27.9795L40.0525 27.8868L40.2738 27.5222L42.0001 24.6778L43.7253 27.5219L43.9465 27.8868L44.363 27.9795L47.6192 28.7041L45.4314 31.1562L45.1416 31.481L45.1819 31.9144L45.4852 35.1809L42.3884 33.8772Z" stroke="black" stroke-width="2"/>
<path d="M24.8884 39.1272L24.5005 38.9639L24.1125 39.1271L21.0143 40.431L21.3181 37.1646L21.3584 36.7311L21.0686 36.4062L18.8807 33.9541L22.1362 33.2295L22.5525 33.1368L22.7738 32.7722L24.5001 29.9278L26.2253 32.7719L26.4465 33.1368L26.863 33.2295L30.1192 33.9541L27.9314 36.4062L27.6416 36.731L27.6819 37.1644L27.9852 40.4309L24.8884 39.1272Z" stroke="black" stroke-width="2"/>
</svg>
