<svg width="52" height="50" viewBox="0 0 52 50" fill="none" xmlns="http://www.w3.org/2000/svg">
<path fill-rule="evenodd" clip-rule="evenodd" d="M51.0617 6.23692V5.25342L50.0455 5.25342H36.7182V7.22042H47.5258L32.9427 20.8289L28.7448 17.237L28.0582 16.6495L27.4043 17.2733L11.8984 32.0681L13.2791 33.5151L28.1312 19.3442L32.3215 22.9296L33.0005 23.5105L33.6539 22.9008L49.0292 8.55299V19.1349L51.0617 19.1349V6.23692Z" fill="black"/>
<path d="M15.1965 30.6039C7.77196 23.4186 4.44272 16.4898 3.70616 13.9236L2.15401 15.4258C0.817873 16.7189 0.408484 18.6648 1.31016 20.2719C3.20551 23.6501 6.7108 28.8071 11.882 33.8117C16.8124 38.5833 21.5093 41.9623 24.6471 43.9172C26.3495 44.9778 28.5363 44.6389 29.9679 43.2534L31.99 41.2964C29.4857 40.7262 22.621 37.7893 15.1965 30.6039Z" fill="#0088EA"/>
<path d="M4.85343 12.8133C6.29098 11.422 8.69676 11.7087 9.74273 13.3958L13.7201 19.8113C14.4579 21.0013 14.2641 22.5245 13.2502 23.5058L10.5136 26.1542C9.07609 27.5455 6.67031 27.2588 5.62434 25.5717L1.64694 19.1562C0.909184 17.9662 1.10294 16.443 2.11689 15.4617L4.85343 12.8133Z" fill="#0088EA"/>
<path d="M33.1373 40.1861C34.5748 38.7949 34.2787 36.4666 32.5354 35.4543L25.9063 31.605C24.6767 30.891 23.1028 31.0785 22.0889 32.0598L19.3523 34.7082C17.9148 36.0995 18.211 38.4278 19.9543 39.44L26.5833 43.2893C27.8129 44.0033 29.3868 43.8158 30.4007 42.8345L33.1373 40.1861Z" fill="#0088EA"/>
</svg>
