<svg width="70" height="70" viewBox="0 0 70 70" fill="none" xmlns="http://www.w3.org/2000/svg">
<path fill-rule="evenodd" clip-rule="evenodd" d="M29.4225 26.66L26.7221 26.1841C26.2405 26.1012 25.8037 25.8511 25.4887 25.4779C25.1737 25.1046 25.0006 24.6322 25 24.1439V21.8561C25.0003 21.3687 25.1725 20.8971 25.4862 20.524C25.7999 20.1509 26.2352 19.9001 26.7155 19.8159L29.416 19.34C29.7351 18.1648 30.2065 17.0362 30.8184 15.9832L29.2464 13.7409C28.9649 13.3418 28.8334 12.8561 28.8752 12.3696C28.917 11.883 29.1293 11.4269 29.4747 11.0815L31.0924 9.46496C31.4372 9.11878 31.8933 8.9054 32.3802 8.86247C32.8672 8.81954 33.3536 8.94981 33.7538 9.23031L35.9911 10.8012C37.0457 10.1943 38.175 9.72759 39.3504 9.41282L39.8266 6.71429C39.9109 6.23429 40.1618 5.79935 40.5352 5.48584C40.9086 5.17234 41.3806 5.00032 41.8683 5H44.1904C44.6761 5.00157 45.1457 5.17336 45.5176 5.48543C45.8895 5.7975 46.1401 6.23007 46.2256 6.70777L46.7018 9.4063C47.8776 9.72299 49.0069 10.1919 50.0611 10.8012L52.2789 9.23031C52.679 8.94981 53.1655 8.81954 53.6524 8.86247C54.1393 8.9054 54.5954 9.11878 54.9402 9.46496L56.584 11.0815C56.9216 11.4333 57.1243 11.8928 57.1565 12.3792C57.1887 12.8655 57.0484 13.3477 56.7601 13.7409L55.1881 15.9832C55.7977 17.0366 56.2669 18.1651 56.584 19.34L59.2845 19.8159C59.7648 19.9001 60.2001 20.1509 60.5138 20.524C60.8275 20.8971 60.9997 21.3687 61 21.8561V24.1439C60.9997 24.6313 60.8275 25.1029 60.5138 25.476C60.2001 25.8491 59.7648 26.0999 59.2845 26.1841L56.584 26.66C56.2752 27.8336 55.8147 28.9621 55.2142 30.0168L56.8123 32.2591C57.0938 32.6582 57.2253 33.1439 57.1835 33.6304C57.1418 34.117 56.9294 34.5731 56.584 34.9185L54.9663 36.535C54.6207 36.8802 54.1641 37.0924 53.6773 37.1341C53.1904 37.1759 52.7044 37.0445 52.305 36.7632L50.0611 35.1923C49.0089 35.801 47.8818 36.2699 46.7083 36.5872L46.2321 39.2857C46.1478 39.7657 45.8969 40.2006 45.5235 40.5142C45.1501 40.8277 44.6781 40.9997 44.1904 41H41.8748C41.3871 40.9997 40.9151 40.8277 40.5417 40.5142C40.1684 40.2006 39.9175 39.7657 39.8331 39.2857L39.3569 36.5872C38.1812 36.2703 37.0519 35.8014 35.9976 35.1923L33.7538 36.7632C33.3543 37.0445 32.8683 37.1759 32.3814 37.1341C31.8946 37.0924 31.438 36.8802 31.0924 36.535L29.4747 34.9185C29.1293 34.5731 28.917 34.117 28.8752 33.6304C28.8334 33.1439 28.9649 32.6582 29.2464 32.2591L30.8184 30.0168C30.2087 28.9634 29.7395 27.8349 29.4225 26.66ZM43 32C38.0591 32 34 27.9855 34 23.0001C34 18.0591 38.0591 14.0002 43.0005 14.0002C43.7005 13.9957 44.3978 14.0847 45.0735 14.2649V19.2942C44.456 18.9856 43.7505 18.7648 43 18.7648C40.6617 18.7648 38.7651 20.6617 38.7651 23.0001C38.7651 25.3385 40.6617 27.2353 43 27.2353C43.75 27.2353 44.456 27.059 45.0735 26.7059V31.7353C44.412 31.9116 43.706 32 43 32ZM47.2355 15.0593V15.059H47.2349C47.2351 15.0591 47.2353 15.0592 47.2355 15.0593ZM47.2355 15.0593V30.9412C50.0589 29.4414 52 26.4412 52 23.0001C52 19.5592 50.1026 16.5592 47.2355 15.0593Z" fill="#86EC16"/>
<rect x="10" y="42.2168" width="8.50005" height="19.0001" rx="1" stroke="black" stroke-width="2"/>
<path d="M18.7497 44.9751C22.8497 44.8752 31.9869 45.6346 35.7355 49.4716H46.5022C48.1577 49.4716 49.4998 50.8137 49.4998 52.4692V52.4692C49.4998 54.1248 48.1577 55.4668 46.5022 55.4668H29.5855" stroke="black" stroke-width="2" stroke-linecap="round" stroke-linejoin="round"/>
<path d="M49.8114 52.6647C52.2306 51.5257 57.39 49.6407 59.1009 50.3866C61.7136 51.5257 60.8427 54.0884 59.1009 55.5122C57.3592 56.936 44.5861 64.9091 37.3287 65.1938C28.3295 65.5469 23.1041 61.7768 18.7497 58.3597" stroke="black" stroke-width="2" stroke-linecap="round" stroke-linejoin="round"/>
</svg>
