<svg width="70" height="70" viewBox="0 0 70 70" fill="none" xmlns="http://www.w3.org/2000/svg">
<path d="M68 27.7556C68 33.1538 61.9751 37.3399 57.2453 37.3399L58.9466 27.7556L57.7231 17.9814C62.4529 17.9814 68 22.3575 68 27.7556Z" fill="#86EC16"/>
<path d="M11 27.7556C11 33.1538 17.1325 37.3399 21.7547 37.3399L19.8476 27.7556L21.0432 17.9814C16.4209 17.9814 11 22.3575 11 27.7556Z" fill="#86EC16"/>
<path d="M59.8486 22.6176V22C59.8486 12.0589 51.7898 4 41.8486 4H36.6572C26.7161 4 18.6572 12.0589 18.6572 22V22.6176" stroke="#86EC16" stroke-width="4"/>
<path d="M60 27.5C60 38.8218 50.8218 48 39.5 48C28.1782 48 19 38.8218 19 27.5C19 16.1782 28.1782 7 39.5 7C50.8218 7 60 16.1782 60 27.5Z" fill="white" stroke="black" stroke-width="2"/>
<ellipse cx="32.1353" cy="23.9891" rx="3.13534" ry="3.13559" stroke="black" stroke-width="2"/>
<ellipse cx="46.4058" cy="23.9891" rx="3.13534" ry="3.13559" stroke="black" stroke-width="2"/>
<path d="M44.3867 36.0769C49.2905 36.2402 62.2424 35.097 62.2424 29.2178" stroke="#86EC16" stroke-width="2"/>
<rect x="35.0684" y="33.1357" width="11.769" height="5.87924" rx="2.93962" fill="#86EC16"/>
<path d="M31.7083 66.7775L17.8821 43.0742C17.0496 41.6419 14.9504 41.6419 14.1179 43.0742L0.291664 66.7775C-0.540805 68.2097 0.508831 70 2.17377 70H29.8262C31.4912 70 32.5408 68.2097 31.7083 66.7775ZM14.9504 50.7724C15.2399 50.5575 15.6381 50.4143 16.1448 50.4143C16.5429 50.4143 16.9049 50.5217 17.1944 50.7724C17.484 50.9872 17.5926 51.3095 17.5926 51.7033C17.5926 52.5269 17.5564 53.9591 17.5202 55.9642C17.484 57.9693 17.4478 59.3657 17.4478 60.1893C17.4478 60.4757 17.303 60.6905 17.0134 60.8696C16.7239 61.0128 16.4343 61.1202 16.1086 61.1202C15.2037 61.1202 14.7694 60.8338 14.7694 60.2251C14.7694 59.4015 14.7332 58.0051 14.6246 56C14.516 53.9949 14.4798 52.5627 14.4798 51.7391C14.4798 51.3095 14.6246 50.9872 14.9504 50.7724ZM17.2306 65.2379C16.9411 65.5601 16.5791 65.7033 16.1448 65.7033C15.6743 65.7033 15.2761 65.5601 14.9142 65.2379C14.5884 64.9156 14.4075 64.5575 14.4075 64.1279C14.4075 63.6982 14.5884 63.3043 14.9142 62.9821C15.2399 62.6598 15.6381 62.5166 16.1448 62.5166C16.5429 62.5166 16.9049 62.6598 17.2306 62.9821C17.5202 63.3043 17.7011 63.6624 17.7011 64.0921C17.6649 64.5575 17.5202 64.9156 17.2306 65.2379Z" fill="#86EC16"/>
</svg>
