<svg width="70" height="71" viewBox="0 0 70 71" fill="none" xmlns="http://www.w3.org/2000/svg">
<path d="M29 22.8597C29 19.546 31.6863 16.8597 35 16.8597C38.3137 16.8597 41 19.546 41 22.8597V27.3597H29L29 22.8597Z" fill="#86EC16"/>
<circle cx="35" cy="10.8597" r="4" fill="#86EC16"/>
<path d="M2 56.8597C2 53.546 4.68629 50.8597 8 50.8597C11.3137 50.8597 14 53.546 14 56.8597V61.6339C14 62.8632 13.0035 63.8597 11.7742 63.8597H4.22581C2.99653 63.8597 2 62.8632 2 61.6339V56.8597Z" stroke="black" stroke-width="2"/>
<path d="M56 56.8597C56 53.546 58.6863 50.8597 62 50.8597C65.3137 50.8597 68 53.546 68 56.8597V61.6339C68 62.8632 67.0035 63.8597 65.7742 63.8597H58.2258C56.9965 63.8597 56 62.8632 56 61.6339V56.8597Z" stroke="black" stroke-width="2"/>
<circle cx="8" cy="43.8597" r="3" stroke="black" stroke-width="2"/>
<path fill-rule="evenodd" clip-rule="evenodd" d="M20 35.8597V40.6339C20 41.3109 19.4512 41.8597 18.7742 41.8597H13.6586C13.8797 42.4853 14 43.1585 14 43.8597H18.7742C20.5558 43.8597 22 42.4155 22 40.6339V35.8597C22 31.9937 18.866 28.8597 15 28.8597C11.134 28.8597 8 31.9937 8 35.8597V37.8597C8.70127 37.8597 9.37444 37.9801 10 38.2012V35.8597C10 33.0983 12.2386 30.8597 15 30.8597C17.7614 30.8597 20 33.0983 20 35.8597Z" fill="black"/>
<circle cx="15" cy="22.8597" r="3" stroke="black" stroke-width="2"/>
<circle cx="55" cy="22.8597" r="3" stroke="black" stroke-width="2"/>
<circle cx="62" cy="43.8597" r="3" stroke="black" stroke-width="2"/>
<path fill-rule="evenodd" clip-rule="evenodd" d="M60 38.2012V35.8597C60 33.0983 57.7614 30.8597 55 30.8597C52.2386 30.8597 50 33.0983 50 35.8597V40.6339C50 41.3109 50.5488 41.8597 51.2258 41.8597H56.3414C56.1203 42.4853 56 43.1585 56 43.8597H51.2258C49.4442 43.8597 48 42.4155 48 40.6339V35.8597C48 31.9937 51.134 28.8597 55 28.8597C58.866 28.8597 62 31.9937 62 35.8597V37.8597C61.2987 37.8597 60.6256 37.9801 60 38.2012Z" fill="black"/>
<path d="M27.1455 27.7011C27.2234 27.2163 27.6418 26.8597 28.1328 26.8597H41.8672C42.3582 26.8597 42.7766 27.2163 42.8545 27.7011L48.6402 63.7011C48.7379 64.3089 48.2685 64.8597 47.6529 64.8597H22.3471C21.7315 64.8597 21.2621 64.3089 21.3598 63.7011L27.1455 27.7011Z" stroke="black" stroke-width="2"/>
</svg>
