<svg width="70" height="70" viewBox="0 0 70 70" fill="none" xmlns="http://www.w3.org/2000/svg">
<path d="M29 22C29 18.6863 31.6863 16 35 16C38.3137 16 41 18.6863 41 22V26.5H29L29 22Z" fill="#86EC16"/>
<circle cx="35" cy="10" r="4" fill="#86EC16"/>
<path d="M2 56C2 52.6863 4.68629 50 8 50C11.3137 50 14 52.6863 14 56V60.7742C14 62.0035 13.0035 63 11.7742 63H4.22581C2.99653 63 2 62.0035 2 60.7742V56Z" stroke="black" stroke-width="2"/>
<path d="M56 56C56 52.6863 58.6863 50 62 50C65.3137 50 68 52.6863 68 56V60.7742C68 62.0035 67.0035 63 65.7742 63H58.2258C56.9965 63 56 62.0035 56 60.7742V56Z" stroke="black" stroke-width="2"/>
<circle cx="8" cy="43" r="3" stroke="black" stroke-width="2"/>
<path fill-rule="evenodd" clip-rule="evenodd" d="M20 35V39.7742C20 40.4512 19.4512 41 18.7742 41H13.6586C13.8797 41.6256 14 42.2987 14 43H18.7742C20.5558 43 22 41.5558 22 39.7742V35C22 31.134 18.866 28 15 28C11.134 28 8 31.134 8 35V37C8.70127 37 9.37444 37.1203 10 37.3414V35C10 32.2386 12.2386 30 15 30C17.7614 30 20 32.2386 20 35Z" fill="black"/>
<circle cx="15" cy="22" r="3" stroke="black" stroke-width="2"/>
<circle cx="55" cy="22" r="3" stroke="black" stroke-width="2"/>
<circle cx="62" cy="43" r="3" stroke="black" stroke-width="2"/>
<path fill-rule="evenodd" clip-rule="evenodd" d="M60 37.3414V35C60 32.2386 57.7614 30 55 30C52.2386 30 50 32.2386 50 35V39.7742C50 40.4512 50.5488 41 51.2258 41H56.3414C56.1203 41.6256 56 42.2987 56 43H51.2258C49.4442 43 48 41.5558 48 39.7742V35C48 31.134 51.134 28 55 28C58.866 28 62 31.134 62 35V37C61.2987 37 60.6256 37.1203 60 37.3414Z" fill="black"/>
<path d="M27.1455 26.8413C27.2234 26.3565 27.6418 26 28.1328 26H41.8672C42.3582 26 42.7766 26.3565 42.8545 26.8413L48.6402 62.8413C48.7379 63.4491 48.2685 64 47.6529 64H22.3471C21.7315 64 21.2621 63.4491 21.3598 62.8413L27.1455 26.8413Z" stroke="black" stroke-width="2"/>
</svg>
