<svg width="199" height="108" viewBox="0 0 199 108" fill="none" xmlns="http://www.w3.org/2000/svg">
<path fill-rule="evenodd" clip-rule="evenodd" d="M47.4298 58.0254V67.1696L44.4782 70.1212C43.8853 69.7715 43.194 69.5708 42.4558 69.5708C40.2538 69.5708 38.4688 71.3559 38.4688 73.5579C38.4688 75.7598 40.2538 77.5449 42.4558 77.5449C44.6577 77.5449 46.4428 75.7598 46.4428 73.5579C46.4428 72.8197 46.2422 72.1283 45.8925 71.5354L49.1369 68.2909C49.3244 68.1034 49.4298 67.849 49.4298 67.5838V58.0254H47.4298ZM53.4038 58.0254V69.6973C51.6858 70.141 50.4168 71.7012 50.4168 73.5579C50.4168 75.7598 52.2018 77.5449 54.4038 77.5449C56.6058 77.5449 58.3908 75.7598 58.3908 73.5579C58.3908 71.7012 57.1218 70.141 55.4038 69.6973V58.0254H53.4038ZM59.3778 67.5838V58.0254H61.3778V67.1696L64.3294 70.1212C64.9223 69.7715 65.6137 69.5708 66.3519 69.5708C68.5538 69.5708 70.3389 71.3559 70.3389 73.5579C70.3389 75.7598 68.5538 77.5449 66.3519 77.5449C64.1499 77.5449 62.3649 75.7598 62.3649 73.5579C62.3649 72.8197 62.5655 72.1283 62.9152 71.5354L59.6707 68.2909C59.4832 68.1034 59.3778 67.849 59.3778 67.5838ZM40.4688 73.5579C40.4688 72.4605 41.3584 71.5708 42.4558 71.5708C43.5532 71.5708 44.4428 72.4605 44.4428 73.5579C44.4428 74.6553 43.5532 75.5449 42.4558 75.5449C41.3584 75.5449 40.4688 74.6553 40.4688 73.5579ZM54.4038 71.5708C53.3064 71.5708 52.4168 72.4605 52.4168 73.5579C52.4168 74.6553 53.3064 75.5449 54.4038 75.5449C55.5012 75.5449 56.3908 74.6553 56.3908 73.5579C56.3908 72.4605 55.5012 71.5708 54.4038 71.5708ZM64.3649 73.5579C64.3649 72.4605 65.2545 71.5708 66.3519 71.5708C67.4493 71.5708 68.3389 72.4605 68.3389 73.5579C68.3389 74.6553 67.4493 75.5449 66.3519 75.5449C65.2545 75.5449 64.3649 74.6553 64.3649 73.5579Z" fill="black"/>
<path fill-rule="evenodd" clip-rule="evenodd" d="M57.3896 31.7393C63.9883 31.7393 69.3377 37.0886 69.3377 43.6873C73.4619 43.6873 76.8052 47.0306 76.8052 51.1548C76.8052 55.279 73.4619 58.6224 69.3377 58.6224C69.3359 58.6224 69.3341 58.6224 69.3323 58.6224H37.9789C37.9772 58.6224 37.9756 58.6224 37.974 58.6224C34.6747 58.6224 32 55.9477 32 52.6483C32 49.349 34.6747 46.6743 37.974 46.6743C38.0238 46.6743 38.0735 46.6749 38.123 46.6761C38.8142 43.2667 41.8282 40.7003 45.4416 40.7003C45.567 40.7003 45.6917 40.7034 45.8156 40.7095C47.1388 35.5516 51.819 31.7393 57.3896 31.7393Z" fill="#86EC16"/>
<path d="M139.439 62.776L138.699 62.103L137.808 63.0829L138.995 63.6718L139.439 62.776ZM130.561 62.776L131.005 63.6718L132.192 63.0829L131.301 62.103L130.561 62.776ZM125 77.7393H124V78.7393H125V77.7393ZM145 77.7393V78.7393H146V77.7393H145ZM140 58.7393C140 60.0353 139.508 61.2141 138.699 62.103L140.179 63.449C141.309 62.2063 142 60.5523 142 58.7393H140ZM135 53.7393C137.761 53.7393 140 55.9778 140 58.7393H142C142 54.8733 138.866 51.7393 135 51.7393V53.7393ZM130 58.7393C130 55.9778 132.239 53.7393 135 53.7393V51.7393C131.134 51.7393 128 54.8733 128 58.7393H130ZM131.301 62.103C130.492 61.2141 130 60.0353 130 58.7393H128C128 60.5523 128.691 62.2063 129.821 63.449L131.301 62.103ZM126 71.7393C126 68.2051 128.037 65.1448 131.005 63.6718L130.116 61.8802C126.494 63.6779 124 67.4164 124 71.7393H126ZM126 77.7393V71.7393H124V77.7393H126ZM145 76.7393H125V78.7393H145V76.7393ZM144 71.7393V77.7393H146V71.7393H144ZM138.995 63.6718C141.963 65.1448 144 68.2051 144 71.7393H146C146 67.4164 143.506 63.6779 139.884 61.8802L138.995 63.6718Z" fill="black"/>
<path fill-rule="evenodd" clip-rule="evenodd" d="M144 28.7393C142.895 28.7393 142 29.6347 142 30.7393V46.7393C142 47.8438 142.895 48.7393 144 48.7393H147V54.7393L155 48.7393H164C165.105 48.7393 166 47.8438 166 46.7393V30.7393C166 29.6347 165.105 28.7393 164 28.7393H144ZM155.572 36.5761L154 31.7393L152.428 36.5761H147.343L151.457 39.5655L149.886 44.4024L154 41.413L158.114 44.4024L156.543 39.5655L160.657 36.5761H155.572Z" fill="#86EC16"/>
<ellipse cx="53.5147" cy="54.0331" rx="51.5147" ry="51.2938" stroke="url(#paint0_linear)" stroke-width="4"/>
<ellipse cx="144.515" cy="54.0331" rx="51.5147" ry="51.2938" stroke="url(#paint1_linear)" stroke-width="4"/>
<path fill-rule="evenodd" clip-rule="evenodd" d="M99.1118 35.052C101.632 40.9645 103.026 47.4675 103.026 54.2938C103.026 81.5099 80.866 103.588 53.5117 103.588V107.588C83.059 107.588 107.026 83.7353 107.026 54.2938C107.026 45.7144 104.991 37.6095 101.376 30.4312C100.544 31.9257 99.7873 33.4676 99.1118 35.052ZM96.8481 30.4312C97.545 29.0475 98.3007 27.6982 99.1118 26.3866C89.691 11.1528 72.7889 1 53.5117 1V5C72.1666 5 88.4058 15.268 96.8481 30.4312Z" fill="url(#paint2_linear)"/>
<defs>
<linearGradient id="paint0_linear" x1="53.5147" y1="2.73926" x2="53.5147" y2="105.327" gradientUnits="userSpaceOnUse">
<stop stop-color="#AAEA39"/>
<stop offset="1" stop-color="#86EC16"/>
</linearGradient>
<linearGradient id="paint1_linear" x1="144.515" y1="2.73926" x2="144.515" y2="105.327" gradientUnits="userSpaceOnUse">
<stop stop-color="#9BA3A2"/>
<stop offset="1" stop-color="#626A69"/>
</linearGradient>
<linearGradient id="paint2_linear" x1="80.2691" y1="1" x2="80.2691" y2="107.588" gradientUnits="userSpaceOnUse">
<stop stop-color="#AAEA39"/>
<stop offset="1" stop-color="#86EC16"/>
</linearGradient>
</defs>
</svg>
