<?xml version="1.0" encoding="utf-8"?>
<!-- Generator: Adobe Illustrator 24.0.0, SVG Export Plug-In . SVG Version: 6.00 Build 0)  -->
<svg version="1.1" xmlns="http://www.w3.org/2000/svg" xmlns:xlink="http://www.w3.org/1999/xlink" x="0px" y="0px"
	 viewBox="0 0 83 80" enable-background="new 0 0 83 80" xml:space="preserve">
<g id="Ebene_1">
	<path fill="none" stroke="#86ED18" stroke-width="3" stroke-linecap="round" stroke-miterlimit="10" d="M1.5,17.3V1.5h16 M1.5,1.5
		l16,15.8 M81.5,17.3V1.5h-16 M81.5,1.5l-16,15.8 M1.5,61.9v15.8h16 M1.5,77.7l16-15.8 M81.5,61.9v15.8h-16 M81.5,77.7l-16-15.8"/>
</g>
<g id="Ebene_2">
	<path fill="none" stroke="#202020" stroke-width="3" stroke-linecap="round" stroke-miterlimit="10" d="M41.7,64.7
		c-13.4,0-24.3-10.8-24.3-24.2s10.8-24.2,24.3-24.2c3.8,0,7.4,0.9,10.6,2.4c0,0,12.3,4.6,13.3,20.6c0.1,1.9,0,5.4-1,8
		c-0.6,1.7-1.5,3.4-2.7,4.8"/>
	<path fill="none" stroke="#202020" stroke-width="3" stroke-miterlimit="10" d="M41.7,64.7c12.5,0,18.4-7.5,13.5-12.4 M55.5,47
		c0.6,0.4,1.7,1,1.5,2.4c-0.2,1-2.2,4.8-6.6,4.8s-9.7-3.4-14.4-8.1c-4.7-4.7-8.1-10-8.1-14.3s3.9-6.4,4.9-6.5
		c1.4-0.2,1.9,0.8,2.4,1.4c0.4,0.6,2.9,4.4,3.3,5c0.4,0.6,0.8,2-0.6,3.1c-1.4,1.1-2.9,1.8,2.3,7c5.3,5.3,5.9,3.8,7,2.3
		c1.1-1.4,2.6-1,3.2-0.6C51.1,44.1,54.9,46.6,55.5,47L55.5,47z"/>
</g>
</svg>
