<svg width="12" height="16" viewBox="0 0 12 16" fill="none" xmlns="http://www.w3.org/2000/svg">
<path fill-rule="evenodd" clip-rule="evenodd" d="M1.34851 3.11801C1.52052 4.17033 2.12516 6.69201 3.68879 9.19434C5.25242 11.6967 7.25384 13.3455 8.12424 13.9615C8.99465 14.5774 10.959 13.0499 10.9178 12.2158C10.892 11.6928 9.99268 10.6834 8.21997 9.18769L8.21998 9.18768C8.01499 9.01473 7.72181 8.99382 7.49437 9.13595L6.82639 9.55335C6.24611 9.14274 5.78224 8.6594 5.43477 8.10333C5.0873 7.54726 4.85622 6.91845 4.74154 6.21691L5.40305 5.80354C5.63341 5.65959 5.74268 5.38204 5.67229 5.11969C5.03551 2.74651 4.52544 1.49741 4.14208 1.3724C3.53228 1.17354 1.1765 2.0657 1.34851 3.11801Z" fill="black"/>
</svg>
