<svg width="70" height="72" viewBox="0 0 70 72" fill="none" xmlns="http://www.w3.org/2000/svg">
<path d="M25.3318 28.8121L26.1493 29.0261L26.4966 28.2558C28.6186 23.5501 33.3589 20.4531 38.6418 20.4531C45.7952 20.4531 51.6392 26.0754 51.9369 33.0735L51.9737 33.9369L52.8333 34.0257C57.9321 34.5525 61 37.9657 61 41.9166C61 44.1662 60.2601 46.1294 58.8004 47.5324C57.3403 48.9358 55.0516 49.8819 51.7593 49.8819H51.719H45.8691H36.5061H30.6562H21.3131H15.4631H13.0873C10.4771 49.8819 8.71296 48.9246 7.60147 47.6732C6.46836 46.3974 5.96676 44.7628 6.0017 43.3666C6.048 41.5162 6.75441 39.9751 7.95805 38.8583C9.1692 37.7346 10.9447 36.9865 13.2039 36.8585L14.065 36.8097L14.1432 35.9508C14.5732 31.2282 19.1931 27.2051 25.3318 28.8121Z" stroke="black" stroke-width="2"/>
<path fill-rule="evenodd" clip-rule="evenodd" d="M43.7188 43.0455C45.0396 43.8962 46.8806 44.5669 48.7681 45.0152C51.1301 45.5763 53.8997 45.8685 56.508 45.6145C59.0759 45.3644 61.7728 44.5538 63.6433 42.6277C65.6162 40.596 66.3179 37.699 65.5741 34.1041C64.7751 30.242 62.0565 27.4165 58.6656 25.8578C55.9761 24.6215 52.802 24.1428 49.605 24.5332C50.5777 25.6825 51.3702 26.9862 51.9392 28.4012C53.768 28.4222 55.5059 28.8077 56.995 29.4922C59.475 30.6322 61.1656 32.5388 61.6571 34.9145C62.2039 37.5573 61.601 38.9891 60.7737 39.841C59.8439 40.7985 58.2447 41.4264 56.1202 41.6333C54.0359 41.8363 51.7165 41.6043 49.6925 41.1235C48.3415 40.8026 47.2536 40.4025 46.4969 40.027L43.7188 43.0455Z" fill="#86EC16"/>
<line x1="33.9609" y1="49.5664" x2="33.9609" y2="68.9249" stroke="black" stroke-width="2"/>
<path d="M27.582 63.5479L34.0349 70.0007L40.4877 63.5479" stroke="black" stroke-width="2"/>
<line x1="49.0195" y1="49.5664" x2="49.0195" y2="61.3966" stroke="black" stroke-width="2"/>
<path d="M42.6406 56.0195L49.0935 62.4724L55.5463 56.0195" stroke="black" stroke-width="2"/>
<line x1="16.7539" y1="49.5664" x2="16.7539" y2="61.3966" stroke="black" stroke-width="2"/>
<path d="M10.375 56.0195L16.8278 62.4724L23.2807 56.0195" stroke="black" stroke-width="2"/>
<path d="M26.4335 28.7613C17.9419 20.3892 14.1341 12.3161 13.2917 9.32608L11.5164 11.0763C9.98827 12.583 9.52005 14.8504 10.5513 16.7229C12.7191 20.659 16.7282 26.6677 22.6426 32.4989C28.2817 38.0586 33.6536 41.9956 37.2425 44.2735C39.1895 45.5093 41.6906 45.1143 43.328 43.5L45.6407 41.2198C42.7765 40.5554 34.9251 37.1334 26.4335 28.7613Z" fill="#86EC16"/>
<path d="M14.6039 8.03239C16.248 6.41136 18.9996 6.74532 20.1959 8.71111L24.745 16.1862C25.5887 17.5728 25.3671 19.3475 24.2075 20.4909L21.0776 23.5767C19.4334 25.1977 16.6819 24.8638 15.4856 22.898L10.9365 15.4229C10.0927 14.0363 10.3143 12.2616 11.474 11.1182L14.6039 8.03239Z" fill="#86EC16"/>
<path d="M46.9529 39.9261C48.597 38.3051 48.2583 35.5923 46.2645 34.4128L38.6826 29.9278C37.2763 29.0958 35.4762 29.3143 34.3165 30.4577L31.1867 33.5435C29.5425 35.1645 29.8812 37.8774 31.8751 39.0568L39.4569 43.5419C40.8632 44.3738 42.6633 44.1553 43.823 43.0119L46.9529 39.9261Z" fill="#86EC16"/>
</svg>
