<?xml version="1.0" encoding="utf-8"?>
<!-- Generator: Adobe Illustrator 24.0.2, SVG Export Plug-In . SVG Version: 6.00 Build 0)  -->
<svg version="1.1" xmlns="http://www.w3.org/2000/svg" xmlns:xlink="http://www.w3.org/1999/xlink" x="0px" y="0px"
	 viewBox="0 0 417 312" style="enable-background:new 0 0 417 312;" xml:space="preserve">
<style type="text/css">
	.st0{display:none;}
	.st1{display:inline;fill:#86ED18;}
	.st2{fill:none;stroke:#000000;stroke-width:6;stroke-miterlimit:10;}
</style>
<g id="Ebene_3" class="st0">
	<rect x="1" y="0" class="st1" width="416" height="312"/>
</g>
<g id="haufen_Kopie">
	<path d="M276.6,291c0,0,5-16,16-15c9-10,10-13,18-10c8-1,12-5,20,2s13-1,15,13c7,1,12,1,11,10C306.6,291,276.6,291,276.6,291z"/>
</g>
<g id="haufen">
	<path d="M196.8,291c0,0-3.1-10-10-9.4c-5.6-6.3-6.3-8.2-11.3-6.3c-5-0.6-7.5-3.1-12.5,1.3s-8.2-0.6-9.4,8.2
		c-4.4,0.6-7.5,0.6-6.9,6.3C178,291,196.8,291,196.8,291z"/>
</g>
<g id="tree1">
	<path d="M238,254.5l-37.4-54.8h24.6l-31.7-46.4H215l-42.9-62.8l-42.9,62.8h21.4l-31.7,46.4h24.6l-37.4,54.8
		C106.1,254.5,238,254.5,238,254.5z"/>
	<path class="st2" d="M181.2,252h-18.3v35.7h18.3L181.2,252L181.2,252z"/>
</g>
<g id="tree2">
	<path d="M348.3,156.4h31.6l-41.4-60.9h31.2l-53-78l-53,78h31.2l-41.4,60.9H285l-46.7,68.8H395L348.3,156.4z"/>
	<path class="st2" d="M325.8,223h-18.3v64.7h18.3L325.8,223L325.8,223z"/>
</g>
<g id="schaufel">
	<g>
		<path d="M58.1,170.4v4.3c0,3.3-2.6,5.9-5.9,5.9h-4.9c-3.3,0-5.9-2.6-5.9-5.9v-4.3H58.1 M61,165.4H38.6c-1.2,0-2.1,0.9-2.1,2.1v7.2
			c0,6,4.9,10.9,10.9,10.9h4.9c6,0,10.9-4.9,10.9-10.9v-7.2C63.1,166.3,62.2,165.4,61,165.4L61,165.4z"/>
	</g>
	<path d="M49.8,267.5L49.8,267.5c-0.9,0-1.6-0.7-1.6-1.6v-12.1c0-0.9,0.7-1.6,1.6-1.6h0c0.9,0,1.6,0.7,1.6,1.6v12.1
		C51.4,266.8,50.7,267.5,49.8,267.5z"/>
	<g>
		<path d="M49.8,185.1c1.8,0,3.3,1.5,3.3,3.3v53.3c0,2.2,1.8,4,4,4h11.3v22.2c0,9.6-12.4,18.2-18.2,18.2c-5.8,0-18.2-8.6-18.2-18.2
			v-22.3h10.5c2.2,0,4-1.8,4-4v-53.3C46.5,186.6,48,185.1,49.8,185.1 M49.8,181.1c-4,0-7.3,3.3-7.3,7.3v53.3H29.7
			c-0.9,0-1.7,0.8-1.7,1.7V268c0,12.2,14.5,22.2,22.2,22.2h0c7.6,0,22.2-10,22.2-22.2v-24.5c0-0.9-0.8-1.7-1.7-1.7H57.1v-53.3
			C57.1,184.4,53.8,181.1,49.8,181.1L49.8,181.1z"/>
	</g>
	<g>
		<path d="M49.8,186.1c1.2,0,2.3,1,2.3,2.3v59.7c0,1.2-1,2.3-2.3,2.3s-2.3-1-2.3-2.3v-59.7C47.5,187.2,48.6,186.1,49.8,186.1
			 M49.8,181.1c-4,0-7.3,3.3-7.3,7.3v59.7c0,4,3.3,7.3,7.3,7.3s7.3-3.3,7.3-7.3v-59.7C57.1,184.4,53.8,181.1,49.8,181.1L49.8,181.1z
			"/>
	</g>
</g>
<g id="Ebene_7">
	<path d="M35.5,291c0,0,2.2-9.5,7.2-8.9c4-5.9,4.5-7.7,8.1-5.9c3.6-0.6,5.4-3,9,1.2c3.6,4.1,5.8-0.6,6.7,7.7
		c3.1,0.6,5.4,0.6,4.9,5.9C49,291,35.5,291,35.5,291z"/>
</g>
</svg>
