<svg width="86" height="98" viewBox="0 0 86 98" fill="none" xmlns="http://www.w3.org/2000/svg">
<path d="M81.6266 17.7275C81.6022 17.2503 81.3861 16.8016 81.0247 16.4777C80.6632 16.1538 80.1854 15.9807 79.694 15.9956C72.0575 16.1232 56.9534 14.8836 44.1571 4.43764C43.8172 4.15521 43.3847 4 42.9375 4C42.4903 4 42.0578 4.15521 41.7179 4.43764C28.9216 14.8836 13.8175 16.1232 6.18101 15.9956C5.68958 15.9807 5.21175 16.1538 4.85033 16.4777C4.48891 16.8016 4.27278 17.2503 4.24844 17.7275C3.51669 36.0853 3.92947 59.3653 12.1476 70.3034C20.741 81.7884 38.7346 91.5416 42.9375 93C47.1404 91.5234 65.134 81.7702 73.7274 70.3034C81.9455 59.3653 82.3583 36.0853 81.6266 17.7275Z" stroke="url(#paint0_linear)" stroke-width="8"/>
<mask id="mask0" mask-type="alpha" maskUnits="userSpaceOnUse" x="42" y="17" width="29" height="62">
<path d="M70.1143 28.0512C58.841 28.0512 47.6347 21.3409 42.9375 17.9857V78.3786C47.9702 75.0234 56.2007 72.7728 64.075 62.2738C70.1143 54.2214 69.7788 36.7746 70.1143 28.0512Z" fill="#C4C4C4"/>
</mask>
<g mask="url(#mask0)">
<rect x="42.9375" y="17.9857" width="28.1833" height="22.144" fill="black"/>
<rect x="42.9375" y="40.1299" width="28.1833" height="16.1048" fill="#FA2929"/>
<rect x="42.9375" y="56.2344" width="28.1833" height="22.144" fill="#FFCF24"/>
</g>
<defs>
<linearGradient id="paint0_linear" x1="42.9375" y1="4" x2="42.9375" y2="93" gradientUnits="userSpaceOnUse">
<stop stop-color="#9BA3A2"/>
<stop offset="1" stop-color="#626A69"/>
</linearGradient>
</defs>
</svg>
