<?xml version="1.0" encoding="UTF-8" standalone="no"?>
<!-- Created with Inkscape (http://www.inkscape.org/) -->

<svg
   width="26mm"
   height="26mm"
   viewBox="0 0 26 26"
   version="1.1"
   id="svg5"
   inkscape:version="1.1 (c68e22c387, 2021-05-23)"
   sodipodi:docname="usp-speed-icon-square.svg"
   xmlns:inkscape="http://www.inkscape.org/namespaces/inkscape"
   xmlns:sodipodi="http://sodipodi.sourceforge.net/DTD/sodipodi-0.dtd"
   xmlns="http://www.w3.org/2000/svg"
   xmlns:svg="http://www.w3.org/2000/svg">
  <sodipodi:namedview
     id="namedview7"
     pagecolor="#ffffff"
     bordercolor="#666666"
     borderopacity="1.0"
     inkscape:pageshadow="2"
     inkscape:pageopacity="0.0"
     inkscape:pagecheckerboard="0"
     inkscape:document-units="px"
     showgrid="false"
     inkscape:zoom="1.4823793"
     inkscape:cx="-131.88257"
     inkscape:cy="116.36697"
     inkscape:window-width="1920"
     inkscape:window-height="1017"
     inkscape:window-x="-8"
     inkscape:window-y="-8"
     inkscape:window-maximized="1"
     inkscape:current-layer="g41" />
  <defs
     id="defs2">
    <linearGradient
       id="paint0_linear"
       x1="42.9375"
       y1="4"
       x2="42.9375"
       y2="93"
       gradientUnits="userSpaceOnUse">
      <stop
         stop-color="#9BA3A2"
         id="stop22" />
      <stop
         offset="1"
         stop-color="#626A69"
         id="stop24" />
    </linearGradient>
    <linearGradient
       id="paint0_linear-4"
       x1="108"
       y1="0"
       x2="108"
       y2="46"
       gradientUnits="userSpaceOnUse">
      <stop
         stop-color="#AAEA39"
         id="stop323" />
      <stop
         offset="1"
         stop-color="#86EC16"
         id="stop325" />
    </linearGradient>
    <linearGradient
       id="paint1_linear"
       x1="49"
       y1="41"
       x2="58.5"
       y2="-18.5"
       gradientUnits="userSpaceOnUse">
      <stop
         stop-color="#626A69"
         id="stop328" />
      <stop
         offset="0.869792"
         stop-color="#9BA3A2"
         id="stop330" />
    </linearGradient>
  </defs>
  <g
     inkscape:label="Ebene 1"
     inkscape:groupmode="layer"
     id="layer1"
     transform="translate(-95.373327,-127.06907)">
    <g
       style="fill:none"
       id="g41"
       transform="matrix(0.26458333,0,0,0.26458333,95.373827,127.06907)">
      <g
         style="fill:none"
         id="g347"
         transform="matrix(0.66397025,0,0,0.66397025,-0.00188966,33.862548)">
        <path
           d="m 147.174,20.3719 -12.548,-9.984 -12.547,-9.983984 c -1.506,-1.164797 -3.514,0.332797 -3.848,2.662394 L 116.892,14.3815 112.04,10.3879 99.4927,0.403916 C 97.987,-0.760881 95.9794,0.736713 95.6448,3.06631 L 94.3063,14.3815 89.4545,10.3879 76.9068,0.403916 C 75.4011,-0.760881 73.3934,0.736713 73.0588,3.06631 L 70.5493,23.0343 68.0397,43.0022 c -0.3346,2.3296 1.5058,3.6608 3.1788,2.6624 l 15.0573,-9.984 5.8556,-3.9936 -1.3384,11.3152 c -0.3346,2.3296 1.5057,3.6608 3.1787,2.6624 l 15.0573,-9.984 5.688,-3.8272 -1.505,11.1488 c -0.335,2.3296 1.505,3.6608 3.178,2.6624 l 15.058,-9.984 15.057,-9.9839 c 1.673,-1.1648 2.008,-4.16 0.669,-5.3248 z"
           fill="url(#paint0_linear)"
           id="path319"
           style="fill:url(#paint0_linear-4)" />
        <path
           fill-rule="evenodd"
           clip-rule="evenodd"
           d="m 34,9 c 0,-2.20914 1.7909,-4 4,-4 h 21 c 2.2091,0 4,1.79086 4,4 0,2.2091 -1.7909,4 -4,4 H 38 C 35.7909,13 34,11.2091 34,9 Z M 19,23 c 0,-2.2091 1.7909,-4 4,-4 h 35 c 2.2091,0 4,1.7909 4,4 0,2.2091 -1.7909,4 -4,4 H 23 c -2.2091,0 -4,-1.7909 -4,-4 z M 4,33 c -2.20914,0 -4,1.7909 -4,4 0,2.2091 1.79086,4 4,4 h 51 c 2.2091,0 4,-1.7909 4,-4 0,-2.2091 -1.7909,-4 -4,-4 z"
           fill="url(#paint1_linear)"
           id="path321"
           style="fill:url(#paint1_linear)" />
      </g>
    </g>
  </g>
</svg>
