<svg width="50" height="51" viewBox="0 0 50 51" fill="none" xmlns="http://www.w3.org/2000/svg">
<path d="M2 16.0875V39.3563H24.1508M40.3938 23.3594V16.0875M40.3943 7.36182H2.00057V16.0881H40.3943V7.36182Z" stroke="#202020" stroke-width="2" stroke-miterlimit="10" stroke-linecap="round" stroke-linejoin="round"/>
<path d="M6.42802 10.4978C5.75218 10.4989 5.19141 11.0406 5.19141 11.725C5.19141 12.4101 5.75325 12.9522 6.42995 12.9522C7.10666 12.9522 7.6685 12.4101 7.66852 11.725L7.66849 11.7212C7.66724 11.5592 7.63411 11.3992 7.571 11.2501L7.11055 11.445L7.571 11.2501C7.50788 11.101 7.41601 10.9658 7.30064 10.8522C7.18527 10.7386 7.04866 10.6488 6.8986 10.588C6.74914 10.5275 6.58926 10.4968 6.42802 10.4978ZM6.42802 10.4978C6.42866 10.4978 6.42931 10.4978 6.42995 10.4978V10.9978L6.42606 10.4978C6.42672 10.4978 6.42737 10.4978 6.42802 10.4978ZM11.5962 10.4978C10.9203 10.4989 10.3595 11.0406 10.3595 11.725C10.3595 12.4101 10.9214 12.9522 11.5981 12.9522C12.274 12.9522 12.8366 12.4104 12.8367 11.725L12.8366 11.7212C12.8354 11.5592 12.8022 11.3992 12.7391 11.2501C12.676 11.101 12.5842 10.9658 12.4688 10.8522C12.3534 10.7386 12.2168 10.6488 12.0667 10.588C11.9173 10.5275 11.7574 10.4968 11.5962 10.4978ZM11.5962 10.4978C11.5968 10.4978 11.5974 10.4978 11.5981 10.4978V10.9978L11.5942 10.4978C11.5949 10.4978 11.5955 10.4978 11.5962 10.4978ZM16.7649 10.4978C16.089 10.4989 15.5283 11.0406 15.5283 11.725C15.5283 12.4101 16.0901 12.9522 16.7668 12.9522C17.4435 12.9522 18.0053 12.4101 18.0054 11.725L18.0053 11.7212C18.0041 11.5593 17.971 11.3992 17.9078 11.2501C17.8447 11.101 17.7529 10.9658 17.6375 10.8522L17.2867 11.2085L17.6375 10.8522C17.5221 10.7386 17.3855 10.6488 17.2354 10.588L17.0477 11.0514L17.2354 10.588C17.086 10.5275 16.9261 10.4968 16.7649 10.4978ZM16.7649 10.4978C16.7655 10.4978 16.7662 10.4978 16.7668 10.4978V10.9978L16.7629 10.4978C16.7636 10.4978 16.7642 10.4978 16.7649 10.4978Z" fill="black" stroke="black" stroke-miterlimit="10" stroke-linecap="round" stroke-linejoin="round"/>
<path fill-rule="evenodd" clip-rule="evenodd" d="M36 46.3618C43.1797 46.3618 49 40.5415 49 33.3618C49 26.1821 43.1797 20.3618 36 20.3618C28.8203 20.3618 23 26.1821 23 33.3618C23 40.5415 28.8203 46.3618 36 46.3618ZM41.6285 27.2402C40.9856 26.6461 39.9098 26.7685 39.4421 27.489L37.6635 30.2289C37.3336 30.7372 37.4203 31.3877 37.8737 31.8068L38.9642 32.8147C38.3972 33.4707 37.7461 34.1517 37.0033 34.8382C36.331 35.4597 35.6689 36.0067 35.0313 36.486L33.9213 35.46C33.4678 35.0409 32.764 34.9609 32.2142 35.2658L29.2499 36.9097C28.4703 37.3421 28.3379 38.3364 28.9807 38.9306L29.4938 39.4048L30.2044 40.0617L30.2049 40.0621L30.398 40.2406C31.0382 40.8323 32.016 40.9771 32.7773 40.5241C34.1804 39.6892 36.2807 38.2461 38.4855 36.2082C40.7979 34.0708 42.3654 31.8684 43.2129 30.4257C43.5956 29.7742 43.4502 28.9924 42.9235 28.4424C42.9009 28.418 42.8771 28.3943 42.8522 28.3713L42.8356 28.356L42.1415 27.7144L41.6285 27.2402Z" fill="#86EC16"/>
</svg>
