<svg width="50" height="50" viewBox="0 0 50 50" fill="none" xmlns="http://www.w3.org/2000/svg">
<line x1="1" y1="22" x2="49" y2="22" stroke="black" stroke-width="2"/>
<rect x="1" y="13" width="48" height="32" rx="2" stroke="black" stroke-width="2"/>
<circle cx="5.5" cy="17.5" r="1.5" fill="black"/>
<circle cx="10.5" cy="17.5" r="1.5" fill="black"/>
<path d="M12.5114 33.5481L10.5345 34.5745C9.69506 35.0103 8.77576 34.1451 9.15994 33.2808L10.0646 31.2455C12.9066 24.852 13.1178 17.6734 15.2669 11.015C16.4158 7.45537 19.0357 5 25 5C30.9643 5 33.5842 7.45537 34.7331 11.015C36.8822 17.6734 37.0934 24.852 39.9354 31.2455L40.8401 33.2808C41.2242 34.1451 40.3049 35.0103 39.4655 34.5745L37.4886 33.5481C36.4743 33.0216 35.2259 33.4504 34.7493 34.489L32.5281 39.3295C31.8378 40.8338 29.7233 40.8964 28.9451 39.4356L26.7652 35.343C26.0126 33.93 23.9874 33.93 23.2348 35.343L21.0549 39.4356C20.2767 40.8964 18.1622 40.8338 17.4719 39.3295L15.2507 34.489C14.7741 33.4504 13.5257 33.0216 12.5114 33.5481Z" fill="#86EC16"/>
<circle cx="20.5" cy="17.5" r="2.5" stroke="black" stroke-width="2"/>
<circle cx="29.5" cy="17.5" r="2.5" stroke="black" stroke-width="2"/>
</svg>
