<svg width="70" height="70" viewBox="0 0 70 70" fill="none" xmlns="http://www.w3.org/2000/svg">
<path d="M43.9631 54.049L43.1709 53.4387L42.4704 54.3479L43.467 54.9173L43.9631 54.049ZM36.0369 54.049L36.533 54.9173L37.5296 54.3479L36.8291 53.4387L36.0369 54.049ZM32 65H31V66H32V65ZM48 65V66H49V65H48ZM44 51C44 51.9193 43.6911 52.7635 43.1709 53.4387L44.7552 54.6594C45.5355 53.6467 46 52.3762 46 51H44ZM40 47C42.2091 47 44 48.7909 44 51H46C46 47.6863 43.3137 45 40 45V47ZM36 51C36 48.7909 37.7909 47 40 47V45C36.6863 45 34 47.6863 34 51H36ZM36.8291 53.4387C36.3089 52.7635 36 51.9193 36 51H34C34 52.3762 34.4645 53.6467 35.2448 54.6594L36.8291 53.4387ZM33 61C33 58.397 34.4203 56.1244 36.533 54.9173L35.5408 53.1808C32.8304 54.7294 31 57.6503 31 61H33ZM33 65V61H31V65H33ZM48 64H32V66H48V64ZM47 61V65H49V61H47ZM43.467 54.9173C45.5797 56.1244 47 58.397 47 61H49C49 57.6503 47.1696 54.7294 44.4592 53.1808L43.467 54.9173Z" fill="white"/>
<path d="M22.9631 54.049L22.1709 53.4387L21.4704 54.3479L22.467 54.9173L22.9631 54.049ZM15.0369 54.049L15.533 54.9173L16.5296 54.3479L15.8291 53.4387L15.0369 54.049ZM11 65H10V66H11V65ZM27 65V66H28V65H27ZM23 51C23 51.9193 22.6911 52.7635 22.1709 53.4387L23.7552 54.6594C24.5355 53.6467 25 52.3762 25 51H23ZM19 47C21.2091 47 23 48.7909 23 51H25C25 47.6863 22.3137 45 19 45V47ZM15 51C15 48.7909 16.7909 47 19 47V45C15.6863 45 13 47.6863 13 51H15ZM15.8291 53.4387C15.3089 52.7635 15 51.9193 15 51H13C13 52.3762 13.4645 53.6467 14.2448 54.6594L15.8291 53.4387ZM12 61C12 58.397 13.4203 56.1244 15.533 54.9173L14.5408 53.1808C11.8304 54.7294 10 57.6503 10 61H12ZM12 65V61H10V65H12ZM27 64H11V66H27V64ZM26 61V65H28V61H26ZM22.467 54.9173C24.5797 56.1244 26 58.397 26 61H28C28 57.6503 26.1696 54.7294 23.4592 53.1808L22.467 54.9173Z" fill="white"/>
<path d="M64.9631 54.049L64.1709 53.4387L63.4704 54.3479L64.467 54.9173L64.9631 54.049ZM57.0369 54.049L57.533 54.9173L58.5296 54.3479L57.8291 53.4387L57.0369 54.049ZM53 65H52V66H53V65ZM69 65V66H70V65H69ZM65 51C65 51.9193 64.6911 52.7635 64.1709 53.4387L65.7552 54.6594C66.5355 53.6467 67 52.3762 67 51H65ZM61 47C63.2091 47 65 48.7909 65 51H67C67 47.6863 64.3137 45 61 45V47ZM57 51C57 48.7909 58.7909 47 61 47V45C57.6863 45 55 47.6863 55 51H57ZM57.8291 53.4387C57.3089 52.7635 57 51.9193 57 51H55C55 52.3762 55.4645 53.6467 56.2448 54.6594L57.8291 53.4387ZM54 61C54 58.397 55.4203 56.1244 57.533 54.9173L56.5408 53.1808C53.8304 54.7294 52 57.6503 52 61H54ZM54 65V61H52V65H54ZM69 64H53V66H69V64ZM68 61V65H70V61H68ZM64.467 54.9173C66.5797 56.1244 68 58.397 68 61H70C70 57.6503 68.1696 54.7294 65.4592 53.1808L64.467 54.9173Z" fill="white"/>
<path fill-rule="evenodd" clip-rule="evenodd" d="M19 10C19 11.1256 18.6281 12.1643 18.0004 13H32C33.1046 13 34 13.8954 34 15C34 16.1046 33.1046 17 32 17H19.917C19.9716 17.3252 20 17.6593 20 18V25.7931C20 25.8286 19.9992 25.864 19.9975 25.8991C19.9992 25.9325 20 25.9662 20 26V39C20 40.1046 19.1046 41 18 41C16.8954 41 16 40.1046 16 39V28H12V39C12 40.1046 11.1046 41 10 41C8.89543 41 8 40.1046 8 39V26C8 25.9662 8.00084 25.9325 8.0025 25.8991C8.00084 25.864 8 25.8286 8 25.7931V18C8 17.6593 8.0284 17.3252 8.08296 17H7C5.89543 17 5 17.8954 5 19V26C5 27.1046 4.10457 28 3 28C1.89543 28 1 27.1046 1 26V19C1 15.6863 3.68629 13 7 13H9.99963C9.37194 12.1643 9 11.1256 9 10C9 7.23858 11.2386 5 14 5C16.7614 5 19 7.23858 19 10Z" fill="#86EC16"/>
<path fill-rule="evenodd" clip-rule="evenodd" d="M25 7H68V39H25V19H23V39V41H25H68H70V39V7V5H68H25H23V7V11H25V7Z" fill="white"/>
<path d="M39 21L45.9282 33H32.0718L39 21Z" fill="#86EC16"/>
<circle cx="55" cy="20" r="8" fill="#86EC16"/>
</svg>
