<svg width="70" height="70" viewBox="0 0 70 70" fill="none" xmlns="http://www.w3.org/2000/svg">
<path d="M20.6359 35.1632V41.6958H31.0834C32.7961 41.6958 34.2519 43.1381 34.2519 44.8349V62.1421C34.2519 63.8389 32.7961 65.2812 31.0834 65.2812C29.3707 65.2812 27.9149 63.8389 27.9149 62.1421V47.9739H16.1829C16.1829 47.9739 16.0116 47.9739 15.926 47.9739C13.2713 47.8043 11.5586 45.6833 11.5586 43.4774V28.2912C11.5586 24.3886 16.0116 22.8615 18.2381 24.3038C19.0945 24.8976 23.1193 28.7154 26.4591 31.9393H32.111C33.8237 31.9393 35.2795 33.3816 35.2795 35.0784C35.2795 36.7751 33.8237 38.2174 32.111 38.2174H25.1746C24.4039 38.2174 23.6331 37.8781 23.0337 37.369L20.6359 35.1632Z" fill="#86EC16"/>
<path d="M21.0455 16.0599C21.0455 18.9787 18.6271 21.3971 15.7083 21.3971C12.7895 21.3971 10.3711 18.9787 10.3711 16.0599C10.3711 13.1411 12.7895 10.7227 15.7083 10.7227C18.6271 10.7227 21.0455 13.1411 21.0455 16.0599Z" fill="#86EC16"/>
<rect x="37.0579" y="40.9641" width="21.3488" height="1.18605" fill="#C4C4C4" stroke="white" stroke-width="1.18605"/>
<rect x="47.4706" y="11.3985" width="20.5349" height="2" transform="rotate(105 47.4706 11.3985)" fill="#C4C4C4" stroke="white" stroke-width="2"/>
<rect x="58.407" y="40.9641" width="24.907" height="1.18605" transform="rotate(90 58.407 40.9641)" fill="#C4C4C4" stroke="white" stroke-width="1.18605"/>
<rect x="50.1047" y="64.6868" width="8.30233" height="1.18605" fill="#C4C4C4" stroke="white" stroke-width="1.18605"/>
<path d="M8 24.9531V44.0461C8 47.9121 11.134 51.0461 15 51.0461H23.4186" stroke="white" stroke-width="2"/>
<path d="M13.9302 54.6055V60.5357M13.9302 60.5357L8 65.2799M13.9302 60.5357L19.8605 65.2799" stroke="white" stroke-width="2"/>
<path fill-rule="evenodd" clip-rule="evenodd" d="M45.7539 28.4319C48.56 27.9625 50.6985 25.5226 50.6985 22.5832C50.6985 20.7435 49.8608 19.0994 48.546 18.0117L45.7539 28.4319Z" fill="white"/>
<path d="M49.5117 22.582L49.5117 41.5588" stroke="white" stroke-width="2"/>
</svg>
