<svg width="70" height="70" viewBox="0 0 70 70" fill="none" xmlns="http://www.w3.org/2000/svg">
<rect y="42" width="70" height="6" fill="#86EC16"/>
<path d="M35 42L45.3923 60H24.6077L35 42Z" fill="#86EC16"/>
<path fill-rule="evenodd" clip-rule="evenodd" d="M47.598 17.5333C48.2643 14.8603 50.6651 12.9844 53.4199 12.9844H59.6198C62.3746 12.9844 64.7755 14.8603 65.4417 17.5333L65.4962 17.7521H67.7166H69.9955L69.9944 17.754H69.9995V19.754V33.0012V35.0012H67.9995H43.9728H41.9728V33.0012V19.754V17.7594L41.9688 17.7521H44.2477H47.5435L47.598 17.5333ZM43.9728 21.421V33.0012H67.9995V21.4063L67.8345 21.7083C66.1062 24.8725 62.8109 26.8577 59.2139 26.9135V28.1325V30.1325H57.2139H55.8242H53.8242V28.1325V26.9147H52.9059C49.2485 26.9147 45.8829 24.9181 44.1297 21.7083L43.9728 21.421ZM45.3411 19.754H66.6231L66.0793 20.7496C64.7016 23.2718 62.0794 24.8577 59.2139 24.9132V23.6453H57.2139H55.8242H53.8242V24.9147H52.9059C49.98 24.9147 47.2875 23.3174 45.885 20.7496L45.3411 19.754ZM59.6198 14.9844C61.3639 14.9844 62.8952 16.1123 63.4253 17.7521H49.6144C50.1445 16.1123 51.6758 14.9844 53.4199 14.9844H59.6198ZM55.8242 25.6453H57.2139V28.1325H55.8242V25.6453Z" fill="white"/>
<path d="M13.2721 32.5147C13.2049 32.5759 13.1374 32.6374 13.0697 32.6992L12 33.6574L10.9304 32.6992C10.8627 32.6375 10.7953 32.576 10.7282 32.5149C7.71135 29.7646 5.28317 27.5509 3.58599 25.4792C1.86323 23.3763 1 21.5433 1 19.594C1 16.4304 3.43131 14 6.6 14C8.3968 14 10.1008 14.8227 11.2369 16.1641L12 17.065L12.7631 16.1641C13.8992 14.8227 15.6031 14 17.4 14C20.5687 14 23 16.4304 23 19.594C23 21.5433 22.1368 23.3763 20.414 25.4792C18.7168 27.5509 16.2887 29.7645 13.2721 32.5147Z" stroke="white" stroke-width="2"/>
</svg>
