<?xml version="1.0" encoding="UTF-8"?>
<svg width="120px" height="120px" viewBox="0 0 120 120" version="1.1" xmlns="http://www.w3.org/2000/svg" xmlns:xlink="http://www.w3.org/1999/xlink">
    <!-- Generator: Sketch 48.1 (47250) - http://www.bohemiancoding.com/sketch -->
    <title>sales-inbox copy</title>
    <desc>Created with Sketch.</desc>
    <defs>
        <rect id="path-1" x="0" y="0.103662249" width="40.2024397" height="17.438861"></rect>
        <linearGradient x1="64.1998197%" y1="9.35777994%" x2="55.1743993%" y2="124.314644%" id="linearGradient-3">
            <stop stop-color="#79A9F0" offset="0%"></stop>
            <stop stop-color="#317AE2" offset="100%"></stop>
        </linearGradient>
        <polygon id="path-4" points="33.8510742 34.0031407 17 0.191617296 49.1630859 18.7519531 49.1630859 53.5620117 19.5 73.5 0.385742188 50.140836"></polygon>
        <path d="M31.539714,0.377752421 L42.9446494,6.57428409 L0,45 L28.9138985,1.03614209 C29.4850794,0.167656023 30.626342,-0.118500988 31.539714,0.377752421 Z" id="path-6"></path>
        <filter x="-15.1%" y="-12.3%" width="130.3%" height="129.0%" filterUnits="objectBoundingBox" id="filter-7">
            <feOffset dx="0" dy="1" in="SourceAlpha" result="shadowOffsetOuter1"></feOffset>
            <feGaussianBlur stdDeviation="2" in="shadowOffsetOuter1" result="shadowBlurOuter1"></feGaussianBlur>
            <feColorMatrix values="0 0 0 0 0   0 0 0 0 0   0 0 0 0 0  0 0 0 0.1 0" type="matrix" in="shadowBlurOuter1"></feColorMatrix>
        </filter>
        <path d="M51.755663,13 L66.1005066,21.6534747 C67.0463098,22.2240271 67.3505108,23.4532762 66.7799584,24.3990794 C66.5210522,24.8282677 66.1104291,25.1445946 65.6293884,25.2854307 L0,44.5 L51.755663,13 Z" id="path-8"></path>
        <filter x="-9.7%" y="-17.5%" width="119.4%" height="141.3%" filterUnits="objectBoundingBox" id="filter-9">
            <feOffset dx="0" dy="1" in="SourceAlpha" result="shadowOffsetOuter1"></feOffset>
            <feGaussianBlur stdDeviation="2" in="shadowOffsetOuter1" result="shadowBlurOuter1"></feGaussianBlur>
            <feColorMatrix values="0 0 0 0 0   0 0 0 0 0   0 0 0 0 0  0 0 0 0.1 0" type="matrix" in="shadowBlurOuter1"></feColorMatrix>
        </filter>
        <path d="M65.9962986,0.000854544489 L0.767767196,18.8023393 C0.23708771,18.9553025 -0.0691118718,19.5095043 0.083851288,20.0401838 C0.155757057,20.2896486 0.321864085,20.5013698 0.547048804,20.6305787 L11.4783233,26.9028431 L65.9962986,0.000854544489 Z" id="path-10"></path>
        <filter x="-9.9%" y="-20.4%" width="119.7%" height="148.3%" filterUnits="objectBoundingBox" id="filter-11">
            <feOffset dx="0" dy="1" in="SourceAlpha" result="shadowOffsetOuter1"></feOffset>
            <feGaussianBlur stdDeviation="2" in="shadowOffsetOuter1" result="shadowBlurOuter1"></feGaussianBlur>
            <feColorMatrix values="0 0 0 0 0   0 0 0 0 0   0 0 0 0 0  0 0 0 0.1 0" type="matrix" in="shadowBlurOuter1"></feColorMatrix>
        </filter>
        <path d="M65.9970253,0.0040025342 L19.5,32.4121492 L35.3006848,42.4515637 C36.2180189,43.034418 37.432915,42.7780188 38.0364887,41.8741827 L65.9970253,0.0040025342 Z" id="path-12"></path>
        <filter x="-14.0%" y="-12.9%" width="128.0%" height="130.4%" filterUnits="objectBoundingBox" id="filter-13">
            <feOffset dx="0" dy="1" in="SourceAlpha" result="shadowOffsetOuter1"></feOffset>
            <feGaussianBlur stdDeviation="2" in="shadowOffsetOuter1" result="shadowBlurOuter1"></feGaussianBlur>
            <feColorMatrix values="0 0 0 0 0   0 0 0 0 0   0 0 0 0 0  0 0 0 0.1 0" type="matrix" in="shadowBlurOuter1"></feColorMatrix>
        </filter>
    </defs>
    <g id="Welcome-to-Mail-Pages" stroke="none" stroke-width="1" fill="none" fill-rule="evenodd">
        <g id="sales-inbox-copy">
            <g id="Group-7-Copy" transform="translate(4.000000, -4.000000)">
                <g id="Group-Copy-12" transform="translate(10.500000, 34.500000)">
                    <g id="Box-Copy">
                        <polygon id="Path-6" fill="#CBCCCD" points="21.2128814 3.69611367 2.90146461 38.4507543 2.89607595 61.4352475 15.344637 61.3384854 27.1111484 22.0027376 27.4945127 2.76177839"></polygon>
                        <polygon id="Path-6-Copy" fill="#CBCCCD" transform="translate(70.769255, 32.098513) scale(-1, 1) translate(-70.769255, -32.098513) " points="76.7868422 3.69611367 58.4754254 38.4507543 58.4700367 61.4352475 70.9185978 61.3384854 82.6851092 22.0027376 83.0684734 2.76177839"></polygon>
                        <polygon id="Rectangle-5" fill="#DCDDDD" points="24.838729 3.87802651 61.905865 3.87802651 61.9058648 20.9205498 24.838729 20.9205498"></polygon>
                        <path d="M25.983535,19.7315366 L61.0380281,19.7315366 C61.5077335,19.7315366 61.9282656,20.0226386 62.0936523,20.4622639 L77.9540803,62.6219329 C78.1734063,63.204938 77.8785861,63.8553559 77.295581,64.0746819 C77.1686263,64.1224421 77.0340974,64.1469099 76.8984561,64.1469099 L9.2896228,64.1469099 C8.66672724,64.1469099 8.16177061,63.6419533 8.16177061,63.0190577 C8.16177061,62.8768931 8.18864805,62.7360101 8.24098699,62.6038307 L24.9348992,20.4441617 C25.1052145,20.0140385 25.5209193,19.7315366 25.983535,19.7315366 Z" id="Rectangle-1" fill="#EEEEEE"></path>
                        <circle id="Oval-5" fill="#3F4346" cx="43.5" cy="27.5" r="27.5"></circle>
                        <path d="M1.78687081,62.5126395 C1.78852701,62.5133211 1.78990905,62.5136619 1.79101694,62.5136619 C29.4748431,62.5136619 57.1586692,62.5136619 84.8424954,62.5136619 C84.8463469,62.5136619 84.851521,62.5120697 84.8580174,62.5088853 L84.8580022,62.5088543 C85.3675863,62.2590694 85.9831765,62.4696782 86.2329614,62.9792623 C86.3019694,63.120045 86.3378469,63.2747519 86.3378469,63.4315379 L86.3378469,63.4315379 C86.3378469,64.7943933 85.2330343,65.8992059 83.8701789,65.8992059 L2.88265359,65.8992059 C1.51979819,65.8992059 0.414985591,64.7943933 0.414985591,63.4315379 L0.414985591,63.4315379 C0.414985591,62.8827376 0.859876122,62.4378471 1.4086764,62.4378471 C1.53841548,62.4378471 1.66689893,62.4632535 1.78687388,62.512632 Z" id="Rectangle-2" fill="#E5E5E5"></path>
                        <path d="M27.7299724,39.1691972 C28.6898727,47.6559079 35.3290239,54.2264219 43.3764162,54.2264219 C51.4238086,54.2264219 58.0629598,47.6559079 59.0228601,39.1691972 L84.8424954,39.1691972 C85.6683566,39.1691972 86.3378494,39.83869 86.3378494,40.6645513 L86.3378469,63.1311049 C86.3378469,63.7843197 85.8083117,64.3138549 85.1550969,64.3138549 L1.59773559,64.3138549 C0.944520803,64.3138549 0.414985591,63.7843197 0.414985591,63.1311049 L0.41497728,40.3361336 C0.41497728,39.6829142 0.944516213,39.1533753 1.59773559,39.1533753 C1.66215059,39.1533753 1.72645793,39.1586375 1.79001602,39.1691094 C1.79037139,39.169168 1.79070503,39.1691972 1.79101694,39.1691972 L27.7299724,39.1691972 Z" id="Rectangle-2" fill="#DCDDDD"></path>
                        <path d="M38.2500121,54.1486511 C39.8571998,54.7040706 41.5817906,55.0055964 43.3764162,55.0055964 C48.112554,55.0055964 52.3609215,52.9055668 55.2508799,49.5809977 L86.3378469,41.2288069 L86.3378469,64.3138549 L0.414985591,64.3138549 L38.2500121,54.1486511 Z" id="Rectangle-2-Copy" fill="#E5E5E5"></path>
                        <path d="M59.2724087,41.1337751 C59.3014784,40.7630287 59.3162831,40.3884281 59.3162831,40.0104475 C59.3162831,39.3160001 59.2663098,38.6325381 59.1697094,37.9630731 L79.8145933,37.9630731 C79.9786158,37.9630731 80.1402678,37.9239107 80.2861041,37.848843 C80.7920077,37.5884348 80.991021,36.9672163 80.7306128,36.4613127 L64.4503454,4.83310304 C64.2737396,4.49000507 63.9202091,4.27436426 63.5343259,4.27436426 L23.1730288,4.27436426 C22.7871456,4.27436426 22.4336151,4.49000507 22.2570093,4.83310304 L5.97674196,36.4613127 C5.90167434,36.607149 5.86251189,36.768801 5.86251189,36.9328235 C5.86251189,37.5018146 6.32377035,37.9630731 6.89276149,37.9630731 L27.9632485,37.9630731 C27.8663947,38.6325381 27.8162831,39.3160001 27.8162831,40.0104475 C27.8162831,40.3884281 27.8311287,40.7630287 27.8602767,41.1337751 L1.4990331,41.1337751 C0.845818317,41.1337751 0.316283105,40.6042399 0.316283105,39.9510251 C0.316283105,39.7666769 0.359375172,39.5848808 0.442120142,39.4201461 L19.1616805,2.15187096 C19.3624124,1.75223928 19.7713813,1.5 20.2185935,1.5 L66.5381845,1.5 C66.9853967,1.5 67.3943657,1.75223928 67.5950975,2.15187096 L86.3146579,39.4201461 C86.6078543,40.003863 86.3723409,40.7147417 85.788624,41.0079381 C85.6238892,41.090683 85.4420932,41.1337751 85.2577449,41.1337751 L59.2724087,41.1337751 Z" id="Combined-Shape" fill="#E5E5E5"></path>
                        <path d="M16.0012692,27.7669903 C16.0004237,27.6780938 16,27.5890964 16,27.5 C16,12.3121694 28.3121694,0 43.5,0 C58.6878306,0 71,12.3121694 71,27.5 C71,27.5890964 70.9995763,27.6780938 70.9987308,27.7669903 L16.0012692,27.7669903 Z" id="Combined-Shape" fill="#3F4346"></path>
                        <g id="Group-2" transform="translate(23.669338, 39.048424)">
                            <mask id="mask-2" fill="white">
                                <use xlink:href="#path-1"></use>
                            </mask>
                            <g id="Mask"></g>
                            <path d="M19.7070783,15.9571723 C10.9999432,15.9571723 3.94141566,8.85931408 3.94141566,0.103662249 C3.94141566,-8.65198958 10.9999432,-15.7498478 19.7070783,-15.7498478 C28.4142133,-15.7498478 35.4727409,-8.65198958 35.4727409,0.103662249 C35.4727409,8.85931408 28.4142133,15.9571723 19.7070783,15.9571723 Z M19.7542922,13.9092982 C27.2699006,13.9092982 33.5405716,7.68575676 33.5405716,-0.0611794248 C33.5405716,-7.80811561 27.2699002,-14.0882482 19.7542917,-14.0882482 C12.2386833,-14.0882482 5.95066199,-7.80811561 5.95066199,-0.0611794248 C5.95066199,7.68575676 12.2386837,13.9092982 19.7542922,13.9092982 Z" id="Oval-1-Copy" fill="#E5E5E5" mask="url(#mask-2)"></path>
                        </g>
                        <path d="M58.7479373,41.1337751 C57.8772238,41.1337751 57.171371,40.4239893 57.171371,39.5484241 C57.171371,38.9162162 57.5393789,38.37044 58.0717347,38.1158902 C58.2766557,38.0179057 58.5059286,37.9630731 58.7479373,37.9630731 L59.8135437,37.9630731 C60.6842572,37.9630731 61.3901099,38.6728589 61.3901099,39.5484241 C61.3901099,40.4239893 60.6842572,41.1337751 59.8135437,41.1337751 L58.7479373,41.1337751 Z" id="Oval-2" fill="#E5E5E5"></path>
                        <path d="M27.0107847,41.146451 C26.1400712,41.146451 25.4342184,40.4366651 25.4342184,39.5611 C25.4342184,38.928892 25.8022263,38.3831158 26.3345821,38.128566 C26.5395031,38.0305816 26.768776,37.9757489 27.0107847,37.9757489 L28.0763911,37.9757489 C28.9471046,37.9757489 29.6529573,38.6855348 29.6529573,39.5611 C29.6529573,40.4366651 28.9471046,41.146451 28.0763911,41.146451 L27.0107847,41.146451 Z" id="Oval-2" fill="#E5E5E5"></path>
                    </g>
                </g>
                <g id="Group-6" transform="translate(0.000000, 25.500000)" fill="url(#linearGradient-3)">
                    <path d="M27.4220182,15.6107551 C16.5739591,22.9009928 7.81762267,31.3256429 14.1828303,41.9683025 L10.9421201,48.4201461 C10.922146,48.4599121 10.9044825,48.5006723 10.8891779,48.5422225 C9.57326484,47.5615992 8.33407716,46.5084579 7.17161488,45.3827988 C-8.17408825,30.5229355 5.68728771,10.2306286 21.2302565,2.6920544 C34.515449,-3.75146432 40.592154,3.14380902 34.0054181,10.5 L30.7185935,10.5 C30.2713813,10.5 29.8624124,10.7522393 29.6616805,11.151871 L27.4220182,15.6107551 Z M54.9411458,58.2534409 C55.1899745,58.2539455 55.4398119,58.2536432 55.6906578,58.2525342 C55.3367033,58.2737686 54.984271,58.2935642 54.6333609,58.3119211 L54.9411458,58.2534409 Z" id="Combined-Shape"></path>
                </g>
                <g id="Group-Copy-15" transform="translate(63.000000, 40.000000)">
                    <mask id="mask-5" fill="white">
                        <use xlink:href="#path-4"></use>
                    </mask>
                    <g id="Rectangle-4"></g>
                    <path d="M13.9003906,49.0703125 C32.4501953,37.6421963 44.0751953,32.1911058 32.7734375,19.1989183 C25.2389323,10.53746 12.1477865,6.54950423 -6.5,7.23505111 C15.6155599,5.90829917 31.7885742,10.198211 42.019043,20.1047865 C57.3647461,34.9646498 43.3408203,57.4536133 27.7978516,64.9921875 C12.2548828,72.5307617 -4.64941406,60.4984287 13.9003906,49.0703125 Z" id="Path-21-Copy-2" fill="url(#linearGradient-3)" mask="url(#mask-5)"></path>
                </g>
                <g id="Group-Copy-16" transform="translate(78.435031, 97.577319) rotate(12.000000) translate(-78.435031, -97.577319) translate(44.435031, 75.077319)">
                    <g id="Path-18">
                        <use fill="black" fill-opacity="1" filter="url(#filter-7)" xlink:href="#path-6"></use>
                        <use fill="#FFFFFF" fill-rule="evenodd" xlink:href="#path-6"></use>
                    </g>
                    <polygon id="Path-18" fill="#EEEEEE" points="42.9995837 6.5 47 18.9657642 0 44.5"></polygon>
                    <g id="Path-18">
                        <use fill="black" fill-opacity="1" filter="url(#filter-9)" xlink:href="#path-8"></use>
                        <use fill="#FFFFFF" fill-rule="evenodd" xlink:href="#path-8"></use>
                    </g>
                </g>
                <g id="Group-12-Copy-8" transform="translate(38.103135, 28.372341) rotate(13.000000) translate(-38.103135, -28.372341) translate(5.103135, 6.872341)">
                    <g id="Path-17">
                        <use fill="black" fill-opacity="1" filter="url(#filter-11)" xlink:href="#path-10"></use>
                        <use fill="#FFFFFF" fill-rule="evenodd" xlink:href="#path-10"></use>
                    </g>
                    <polygon id="Path-17" fill="#EEEEEE" points="66 -9.97424365e-13 11.5 26.8345996 16.0493187 41.5"></polygon>
                    <polygon id="Path-17" fill="#B9BABB" points="24.5 34.7678411 19.8176904 32.5 16 41.5"></polygon>
                    <g id="Path-17-Copy">
                        <use fill="black" fill-opacity="1" filter="url(#filter-13)" xlink:href="#path-12"></use>
                        <use fill="#FFFFFF" fill-rule="evenodd" xlink:href="#path-12"></use>
                    </g>
                </g>
                <path d="M50.7760973,52.21425 C50.6828403,51.4563223 50.1915804,50.4419266 48.2461844,50.4419266 L43.5,50.4421965 L43.5,54.716763 L45.7551498,54.716763 C46.0482858,54.716763 46.1584569,54.8540575 46.1584569,55.148204 L46.1539561,75.5 L51.4395817,75.5 L51.4395817,67.8955879 L51.4395817,67.3267187 C52.223847,68.0523398 53.5179657,69.050293 55.8626235,69.050293 C60.7862558,69.050293 64,65.1337187 64,59.5253789 C64,53.8280215 60.8931424,50 56.0342177,50 C53.2025989,50 51.5677729,51.3334375 50.7760973,52.21425 Z M55.0174657,54.5 C57.4000199,54.5 59,56.6238107 59,59.7855619 C59,63.3880677 56.9654664,65 54.9484316,65 C52.2359189,65 51,62.315833 51,59.8209867 C51,55.8977388 53.0754636,54.5 55.0174657,54.5 L55.0174657,54.5 Z" id="Fill-2-Copy-3" fill="#FFFFFF"></path>
                <g id="Group-Copy-21" transform="translate(86.378912, 31.620985) rotate(56.000000) translate(-86.378912, -31.620985) translate(74.378912, 22.370985)" fill="#FFCC00" fill-rule="nonzero">
                    <path d="M13.0310384,13.2304566 L11.5566592,9.2391098 C11.5060255,9.10203736 11.3979626,8.99397453 11.2608902,8.9433408 L7.26954344,7.46896162 C7.01050899,7.37327587 6.8780887,7.08571832 6.97377445,6.82668387 C7.02440299,6.68962546 7.13244922,6.58156998 7.26950329,6.53092971 L11.2609304,5.05613255 C11.3979792,5.00549419 11.5060228,4.89744485 11.5566537,4.76039323 L13.0310439,0.769405105 C13.1267378,0.510373676 13.4142995,0.377962482 13.673331,0.473656423 C13.8103774,0.524285471 13.918424,0.632322842 13.9690648,0.769364953 L15.4438729,4.76043338 C15.4945085,4.89746146 15.6025385,5.00549147 15.7395666,5.05612707 L19.730635,6.53093519 C19.9896583,6.62665131 20.1220449,6.91422437 20.0263287,7.17324761 C19.975688,7.31028972 19.8676413,7.41832709 19.7305949,7.46895614 L15.7396068,8.94334628 C15.6025551,8.99397724 15.4945058,9.10202075 15.4438674,9.23906965 L13.9690703,13.2304967 C13.8733624,13.489523 13.5857935,13.6219186 13.3267672,13.5262107 C13.1897132,13.4755704 13.0816669,13.367515 13.0310384,13.2304566 Z" id="Shape-Copy-4"></path>
                    <path d="M4.2813259,17.7300218 L3.41417432,15.3816705 C3.36354249,15.2445534 3.2554466,15.1364575 3.1183295,15.0858257 L0.769978236,14.2186741 C0.510932487,14.1230189 0.378478249,13.835477 0.474133415,13.5764313 C0.52475753,13.4393351 0.632828682,13.3312501 0.769918446,13.2806085 L3.11840267,12.4130676 C3.25547701,12.3624318 3.36354007,12.2543651 3.41417139,12.1172891 L4.28134221,9.76956613 C4.37702177,9.51052939 4.66457615,9.37810223 4.92361289,9.47378179 C5.06067347,9.52440742 5.16873203,9.6324522 5.21937513,9.76950633 L6.08693529,12.1173623 C6.13757067,12.2543955 6.24560449,12.3624293 6.38263773,12.4130647 L8.73049367,13.2806249 C8.98951821,13.3763375 9.1219087,13.6639087 9.02619611,13.9229333 C8.97555301,14.0599874 8.86749445,14.1680322 8.73043387,14.2186578 L6.38271092,15.0858286 C6.2456349,15.1364599 6.13756824,15.244523 6.08693235,15.3815973 L5.21939146,17.7300816 C5.12370327,17.9891151 4.83614448,18.1215327 4.57711093,18.0258445 C4.44002116,17.9752029 4.33195001,17.867118 4.2813259,17.7300218 Z" id="Shape-Copy-5"></path>
                    <path d="M20.2809726,16.2301885 L19.8182699,14.9774998 C19.7676305,14.8404022 19.6595417,14.7323242 19.522439,14.6816986 L18.2699008,14.2191943 C18.0108545,14.1235405 17.8783987,13.8359994 17.9740525,13.5769531 C18.0246734,13.4398633 18.132736,13.3317813 18.2698167,13.2811358 L19.5225042,12.8183213 C19.6595685,12.7676819 19.7676225,12.6596194 19.8182511,12.5225512 L20.2809726,11.2698115 C20.3766524,11.0107749 20.6642069,10.878348 20.9232436,10.9740277 C21.0603247,11.0246611 21.168394,11.1327304 21.2190274,11.2698115 L21.6817489,12.5225512 C21.7323775,12.6596194 21.8404315,12.7676819 21.9774958,12.8183213 L23.2301833,13.2811358 C23.4892124,13.376836 23.6216167,13.664401 23.5259165,13.9234301 C23.475271,14.0605108 23.367189,14.1685734 23.2300992,14.2191943 L21.977561,14.6816986 C21.8404583,14.7323242 21.7323695,14.8404022 21.6817301,14.9774998 L21.2190274,16.2301885 C21.1233476,16.4892251 20.8357931,16.621652 20.5767564,16.5259723 C20.4396753,16.4753389 20.331606,16.3672696 20.2809726,16.2301885 Z" id="Shape-Copy-6"></path>
                </g>
            </g>
        </g>
    </g>
</svg>