        <svg class="" id="Gruppe_10" data-name="Gruppe 10" xmlns="http://www.w3.org/2000/svg" xmlns:xlink="http://www.w3.org/1999/xlink" width="108" height="103.641" viewBox="0 0 108 103.641">
                <defs>
                    <clipPath id="clip-path">
                    <rect id="Rechteck_116" data-name="Rechteck 116" width="108" height="103.641" fill="none"/>
                    </clipPath>
                </defs>
                <g id="Gruppe_9" data-name="Gruppe 9" transform="translate(0 0)" clip-path="url(#clip-path)">
                    <path id="Pfad_35" data-name="Pfad 35" d="M37.89,11.9l.054-7.376,27.966-.2-.052,7.048a8.637,8.637,0,0,0,12.955,7.544l6.365-3.675L98.93,39.056l-6.374,3.679a8.637,8.637,0,0,0,.054,14.991l6.134,3.481L84.585,85.325l-6.4-3.632a8.645,8.645,0,0,0-12.614,5.273V100.82a4.319,4.319,0,0,0,3.979-4.273l.054-7.374a4.318,4.318,0,0,1,6.449-3.725l6.4,3.632a4.319,4.319,0,0,0,5.856-1.568l14.16-24.118a4.318,4.318,0,0,0-1.593-5.942l-6.132-3.481a4.319,4.319,0,0,1-.028-7.5l6.374-3.679a4.319,4.319,0,0,0,1.581-5.9L88.918,13.077a4.318,4.318,0,0,0-5.9-1.581l-6.365,3.675A4.319,4.319,0,0,1,70.176,11.4l.052-7.05A4.317,4.317,0,0,0,65.877,0L37.912.2A4.318,4.318,0,0,0,33.626,4.49l-.054,7.376A4.32,4.32,0,0,1,27.12,15.59l-6.415-3.643a4.319,4.319,0,0,0-5.856,1.57L4.1,31.827H9.108L18.574,15.7l6.415,3.64A8.638,8.638,0,0,0,37.89,11.9m5.052,82.973-.013,1.792a4.317,4.317,0,0,0,4.362,4.349l1.49-.013Z" transform="translate(4.751 0.002)" fill="#fff"/>
                    <path id="Pfad_36" data-name="Pfad 36" d="M8.637,35h10.8a8.637,8.637,0,0,1,8.637,8.637v10.8a8.637,8.637,0,0,1-8.637,8.637H8.637A8.637,8.637,0,0,1,0,54.433v-10.8A8.637,8.637,0,0,1,8.637,35" transform="translate(0 40.572)" fill="#86ec16"/>
                    <path id="Pfad_37" data-name="Pfad 37" d="M8.638,19h10.8a8.637,8.637,0,0,1,8.637,8.637v10.8a8.637,8.637,0,0,1-8.637,8.637H8.638A8.637,8.637,0,0,1,0,38.433v-10.8A8.637,8.637,0,0,1,8.638,19" transform="translate(0.001 22.025)" fill="#86ec16"/>
                    <path id="Pfad_38" data-name="Pfad 38" d="M24.637,35h10.8a8.637,8.637,0,0,1,8.637,8.637v10.8a8.637,8.637,0,0,1-8.637,8.637h-10.8A8.637,8.637,0,0,1,16,54.433v-10.8A8.637,8.637,0,0,1,24.637,35" transform="translate(18.547 40.572)" fill="#86ec16"/>
                    <path id="Pfad_39" data-name="Pfad 39" d="M20.242,46.2l-2.919-3.185L28.544,32.731,17.323,22.447l2.919-3.185L34.933,32.731Z" transform="translate(20.081 22.329)" fill="#fff"/>
                    <rect id="Rechteck_115" data-name="Rechteck 115" width="17" height="4" transform="translate(56 62.64)" fill="#fff"/>
                </g>
            </svg>
