  <svg id="Gruppe_8" class="feature_svg" data-name="Gruppe 8" xmlns="http://www.w3.org/2000/svg" xmlns:xlink="http://www.w3.org/1999/xlink" width="86.568" height="89.102" viewBox="0 0 86.568 89.102">
                    <defs>
                        <clipPath id="clip-path">
                        <rect id="Rechteck_114" data-name="Rechteck 114" width="86.568" height="89.102" fill="none"/>
                        </clipPath>
                    </defs>
                    <g id="Gruppe_7" data-name="Gruppe 7" transform="translate(0 0)" clip-path="url(#clip-path)">
                        <path id="Pfad_33" data-name="Pfad 33" d="M45.935.653a2.641,2.641,0,0,0-3.479,0L31.89,9.9a2.641,2.641,0,1,0,3.479,3.976L41.55,8.462v38.65A89.767,89.767,0,0,0,12.635,10.039l-2.665-2,6.945-.969a2.64,2.64,0,1,0-.729-5.23L2.274,3.778A2.639,2.639,0,0,0,0,6.409L.074,20.45a2.643,2.643,0,0,0,5.286-.029l-.05-9.272,4.155,3.117A84.514,84.514,0,0,1,41.55,64.9V81.891h7.008A91.255,91.255,0,0,1,77.722,15.018l3.534-3.284-.045,8.686a2.642,2.642,0,0,0,5.283.029l.074-14.04a2.639,2.639,0,0,0-2.274-2.631L70.389,1.839a2.641,2.641,0,1,0-.732,5.23l7.7,1.075-3.233,3A96.559,96.559,0,0,0,46.833,55.913V8.462l6.189,5.413A2.641,2.641,0,0,0,56.5,9.9Z" transform="translate(0 -0.001)" fill="#fff"/>
                        <path id="Pfad_34" data-name="Pfad 34" d="M33.146,13.73A26.416,26.416,0,1,1,6.73,40.146,26.416,26.416,0,0,1,33.146,13.73" transform="translate(11.048 22.539)" fill="#86ec16"/>
                    </g>
                </svg>