<svg width="63" height="63" viewBox="0 0 63 63" fill="none" xmlns="http://www.w3.org/2000/svg">
<path d="M31.354 0C25.1528 0 19.0908 1.83888 13.9347 5.2841C8.77853 8.72932 4.75981 13.6261 2.3867 19.3553C0.0135851 25.0845 -0.607329 31.3888 0.602472 37.4709C1.81227 43.5529 4.79845 49.1397 9.18339 53.5246C13.5683 57.9096 19.1551 60.8957 25.2372 62.1055C31.3192 63.3153 37.6235 62.6944 43.3527 60.3213C49.0819 57.9482 53.9787 53.9295 57.4239 48.7733C60.8691 43.6172 62.708 37.5552 62.708 31.354H56.437C56.4669 37.2874 54.403 43.0412 50.6087 47.6029C46.8143 52.1646 41.5325 55.2418 35.6929 56.2931C29.8533 57.3443 23.83 56.3022 18.683 53.35C13.5361 50.3979 9.59523 45.725 7.55405 40.1537C5.51288 34.5824 5.50216 28.4696 7.52379 22.8911C9.54542 17.3127 13.4698 12.626 18.6064 9.65584C23.743 6.68571 29.7626 5.62246 35.6059 6.65321C41.4492 7.68395 46.7417 10.7426 50.552 15.291L43.9 21.948H62.708V3.135L54.961 10.882C52.0411 7.47609 48.4203 4.74066 44.3461 2.86259C40.2719 0.984522 35.8402 0.00808662 31.354 0ZM28.219 12.542V30.056L19.731 38.544L24.165 42.978L34.49 32.652V12.542H28.219Z" fill="#86ED18"/>
</svg>
