<svg xmlns="http://www.w3.org/2000/svg" xmlns:xlink="http://www.w3.org/1999/xlink" width="99.815" height="99" viewBox="0 0 99.815 99">
  <defs>
    <clipPath id="clip-path">
      <rect id="Rectangle_300" data-name="Rectangle 300" width="99.815" height="99" fill="#9fea4d"/>
    </clipPath>
  </defs>
  <g id="baue-icon" transform="translate(0 0)">
    <g id="Group_140" data-name="Group 140" transform="translate(0 0)" clip-path="url(#clip-path)">
      <path id="Path_213" data-name="Path 213" d="M40.027,0C32.639.135,27.243,2.337,23.967,6.651c-3.883,5.121-4.589,12.9-2.134,23.087a6.522,6.522,0,0,0-1.317,5.019c.532,4.407,2.289,6.234,3.7,6.964a20.022,20.022,0,0,0,4.453,9.221v.942a60.746,60.746,0,0,1-.187,6.085c-1.233,2.825-5.326,4.479-10.038,6.336C10.6,67.389.855,71.2.124,83.379L0,85.511H52.761A12.5,12.5,0,0,1,49.876,81.5H4.391c1.522-7.968,8.659-10.775,15.561-13.489,5.5-2.164,10.7-4.2,12.421-8.845l.126-.5a64.357,64.357,0,0,0,.187-6.776V48.81l-1.066-.566c-.877-.594-3.192-4.658-3.576-8.279l-.189-1.632-1.694-.126c-.259-.022-1.255-.737-1.63-3.889-.2-1.616.556-2.2.564-2.2l1.317-.815-.375-1.443C23.6,20.483,23.967,13.316,27.165,9.1c2.493-3.286,6.862-5.035,12.925-5.145,3.772,0,6.571,1,7.464,2.572l.5.817L49,7.466a7.661,7.661,0,0,1,5.834,3.513c3.084,4.965,1.287,14.123-.251,18.759l-.438,1.506,1.317.877c.008.008.761.572.564,2.2-.375,3.152-1.371,3.875-1.63,3.889l-1.694.126-.126,1.632c-.391,3.638-2.7,7.715-3.513,8.279l-1.066.566v3.074a64.385,64.385,0,0,0,.189,6.776l.124.5a9.216,9.216,0,0,0,2.2,3.325,22.592,22.592,0,0,1,2.259-3.451,5.038,5.038,0,0,1-.626-1.066,59.431,59.431,0,0,1-.126-6.085v-.942c1.8-1.843,3.656-5.74,4.33-9.221,1.411-.731,3.176-2.558,3.7-6.964A6.514,6.514,0,0,0,58.784,29.8c1.16-3.975,3.553-14.328-.564-20.953A11.354,11.354,0,0,0,50.441,3.64C48.543,1.247,44.9,0,40.027,0M72.273,51.382A20.076,20.076,0,1,0,84.945,87.017L96.928,99l2.887-2.887L87.832,84.132a20.066,20.066,0,0,0-15.559-32.75m0,4.015A16.061,16.061,0,1,1,56.212,71.458,16.031,16.031,0,0,1,72.273,55.4" transform="translate(0 0.001)" fill="#9fea4d"/>
    </g>
  </g>
</svg>
