<svg xmlns="http://www.w3.org/2000/svg" xmlns:xlink="http://www.w3.org/1999/xlink" width="150" height="150" viewBox="0 0 150 150">
  <defs>
    <clipPath id="clip-path">
      <rect id="Rectangle_326" data-name="Rectangle 326" width="110" height="95" transform="translate(0 -0.316)" fill="#9fea4d"/>
    </clipPath>
  </defs>
  <g id="Group_225" data-name="Group 225" transform="translate(-65 -272)">
    <circle id="Ellipse_139" data-name="Ellipse 139" cx="75" cy="75" r="75" transform="translate(65 272)" fill="#161616"/>
    <g id="Group_155" data-name="Group 155" transform="translate(85 300.316)" clip-path="url(#clip-path)">
      <path id="Path_471" data-name="Path 471" d="M21.01.008a11.554,11.554,0,0,0-2,.1C13.85.8,9.721,4.7,6.8,7.53h0C2.4,11.806-.007,17.123,0,25.185,0,26.7.022,28.344.14,30.11A124.4,124.4,0,0,0,8.121,69.352v0c2.423,6.38,6.925,11.876,11.116,15.866a46.021,46.021,0,0,0,5.819,4.754,19.741,19.741,0,0,0,2.329,1.378,4.425,4.425,0,0,0,2.263.651c1.792,0,3.072-.684,4.651-1.207a16.366,16.366,0,0,1,5.127-.984c3.328,0,8.11,2.191,17.527,2.191,13.743,0,22.7-7.692,27.933-15.178a45.5,45.5,0,0,0,6.658-13.778,27.7,27.7,0,0,0,8.314-4.18,22.179,22.179,0,0,0,9.675-18.348,27.209,27.209,0,0,0-5.876-17.36,21.74,21.74,0,0,0-17.128-7.834c-8.319,0-14.746,2.988-18.964,7.547a24,24,0,0,0-6.047,15.5,15.394,15.394,0,0,0-5.661-1.141c-9.541,0-15.171,4.478-17.908,9.451a20.583,20.583,0,0,0-1.772,5.194,42.043,42.043,0,0,0-9.048-11.826,34.473,34.473,0,0,1-8.943-13.208v0c.118.3-.213-.76-.386-1.507-.088-.372-.169-.743-.223-1.023-.015-.074-.009.02-.018-.059a5.418,5.418,0,0,1,.712-.539c.175-.116.46-.449.675-.583a6.2,6.2,0,0,0,5.14,3.15,6.989,6.989,0,0,0,2.879-.629,4.832,4.832,0,0,0,1.61-1.082c.066-.07.064-.226.127-.3a5.594,5.594,0,0,0,2.379-1.141A5.148,5.148,0,0,0,32.54,21.3c.039-.079-.011-.208.022-.294a5.073,5.073,0,0,0,2.263-1.652,5.664,5.664,0,0,0,.988-2.456c.1-.079.256-.066.344-.156a3.762,3.762,0,0,0,.979-1.886A5.525,5.525,0,0,0,37,12.036c-.949-3.284-3.418-5.1-6.559-7.348A48.809,48.809,0,0,0,25.9,1.4,10.653,10.653,0,0,0,21.01.008m-.129,4.355a5.562,5.562,0,0,1,2.859.848c1.19.677,2.456,1.827,4.154,3.041,3.107,2.219,4.377,3.21,4.9,5a2.438,2.438,0,0,1,.028.333,2.191,2.191,0,0,0-1.258,2.6c-.094-.342-.077.311-.3.624-.1.145-.12.186-.118.2a2.191,2.191,0,0,0-2.618,1.658,2.136,2.136,0,0,0-.022.85.91.91,0,0,1-.188.206c-.324.263-.962.16-.318.351a2.192,2.192,0,0,0-2.723,1.479l-.015.057v0l-.046.022a5.3,5.3,0,0,1-1.126.261A2.054,2.054,0,0,1,21.9,19.708a2.191,2.191,0,0,0-4.031-1.19,9.767,9.767,0,0,1-2.011,1.531A7.86,7.86,0,0,0,14.205,21.4a4.183,4.183,0,0,0-1.069,2.688,3.213,3.213,0,0,0,.14,1.069c.07.348.158.756.254,1.163a12.825,12.825,0,0,0,.581,2.136,39.488,39.488,0,0,0,10.038,14.81c6.857,6.353,9.055,11.745,11.053,16.7a2.191,2.191,0,0,0,4.224-.822A22.633,22.633,0,0,1,41.792,48.8c2.123-3.858,5.806-7.184,14.065-7.184,4.281,0,6.3,1.711,6.3,1.711a2.191,2.191,0,0,0,3.56-1.711V39.426a19.941,19.941,0,0,1,5.065-13.572c3.383-3.656,8.454-6.145,15.748-6.145a17.043,17.043,0,0,1,13.747,6.246,22.972,22.972,0,0,1,4.875,14.567c0,7.436-3.836,11.9-7.852,14.788a26.482,26.482,0,0,1-8.014,3.9,2.19,2.19,0,0,0-1.6,1.606,45.292,45.292,0,0,1-6.393,13.509c-4.726,6.754-12.205,13.3-24.342,13.3-8.711,0-12.641-2.191-17.527-2.191a20.39,20.39,0,0,0-6.5,1.207c-1.667.55-2.94.916-3.153.944a2.275,2.275,0,0,1-.467-.167,15.947,15.947,0,0,1-1.8-1.074,42.108,42.108,0,0,1-5.249-4.3c-3.856-3.67-7.964-8.79-10.038-14.249C5.534,50.2,5,37.106,4.513,29.819v0c-.11-1.628-.131-3.164-.131-4.629C4.375,17.912,6.1,14.317,9.854,10.671c2.778-2.7,6.616-5.8,9.743-6.222a8.61,8.61,0,0,1,1.284-.085" transform="translate(0.468 0.486)" fill="#9fea4d"/>
    </g>
  </g>
</svg>
