<svg width="422" height="422" viewBox="0 0 422 422" fill="none" xmlns="http://www.w3.org/2000/svg">
<g clip-path="url(#clip0_1_3)">
<path opacity="0.06" d="M211 422C327.532 422 422 327.532 422 211C422 94.4679 327.532 0 211 0C94.4679 0 0 94.4679 0 211C0 327.532 94.4679 422 211 422Z" fill="#9FEA4D"/>
<path opacity="0.05" d="M211 373C300.47 373 373 300.47 373 211C373 121.53 300.47 49 211 49C121.53 49 49 121.53 49 211C49 300.47 121.53 373 211 373Z" fill="#9FEA4D"/>
<path opacity="0.05" d="M211 324C273.408 324 324 273.408 324 211C324 148.592 273.408 98 211 98C148.592 98 98 148.592 98 211C98 273.408 148.592 324 211 324Z" fill="#9FEA4D"/>
<path d="M211 269C243.033 269 269 243.033 269 211C269 178.967 243.033 153 211 153C178.967 153 153 178.967 153 211C153 243.033 178.967 269 211 269Z" fill="#9FEA4D"/>
<path d="M207.13 187V207.13H187V215.27H207.13V235.4H215.27V215.27H235.4V207.13H215.27V187H207.13Z" fill="black"/>
</g>
<defs>
<clipPath id="clip0_1_3">
<rect width="422" height="422" fill="white"/>
</clipPath>
</defs>
</svg>
