<svg xmlns="http://www.w3.org/2000/svg" xmlns:xlink="http://www.w3.org/1999/xlink" width="100" height="86.999" viewBox="0 0 100 86.999">
  <defs>
    <clipPath id="clip-path">
      <rect id="Rectangle_326" data-name="Rectangle 326" width="100" height="86.999" transform="translate(0 -1)" fill="#afe866"/>
    </clipPath>
  </defs>
  <g id="sei-icon" transform="translate(0 1)">
    <g id="Group_155" data-name="Group 155" transform="translate(0 0)" clip-path="url(#clip-path)">
      <path id="Path_471" data-name="Path 471" d="M19.182.008A10.549,10.549,0,0,0,17.359.1c-4.714.63-8.485,4.19-11.149,6.777h0C2.19,10.779-.006,15.633,0,22.994c0,1.386.02,2.884.128,4.5A113.573,113.573,0,0,0,7.415,63.317v0c2.212,5.824,6.323,10.843,10.149,14.485a42.016,42.016,0,0,0,5.312,4.34A18.023,18.023,0,0,0,25,83.4,4.04,4.04,0,0,0,27.068,84a12.638,12.638,0,0,0,4.246-1.1,14.942,14.942,0,0,1,4.68-.9c3.038,0,7.4,2,16,2,12.547,0,20.722-7.023,25.5-13.857a41.538,41.538,0,0,0,6.078-12.579,25.286,25.286,0,0,0,7.591-3.816A20.249,20.249,0,0,0,100,36.995a24.841,24.841,0,0,0-5.364-15.849A19.848,19.848,0,0,0,79,13.993c-7.595,0-13.463,2.728-17.313,6.891a21.915,21.915,0,0,0-5.52,14.153A14.054,14.054,0,0,0,51,33.994c-8.711,0-13.851,4.088-16.349,8.629a18.792,18.792,0,0,0-1.618,4.742,38.384,38.384,0,0,0-8.261-10.8A31.473,31.473,0,0,1,16.6,24.51v0c.108.272-.194-.694-.352-1.376-.08-.34-.154-.678-.2-.934-.014-.068-.008.018-.016-.054a4.947,4.947,0,0,1,.65-.492c.16-.106.42-.41.616-.532a5.66,5.66,0,0,0,4.692,2.876,6.381,6.381,0,0,0,2.628-.574,4.412,4.412,0,0,0,1.47-.988c.06-.064.058-.206.116-.278a5.107,5.107,0,0,0,2.172-1.042,4.7,4.7,0,0,0,1.332-1.662c.036-.072-.01-.19.02-.268a4.632,4.632,0,0,0,2.066-1.508,5.171,5.171,0,0,0,.9-2.242c.09-.072.234-.06.314-.142a3.434,3.434,0,0,0,.894-1.722,5.044,5.044,0,0,0-.126-2.578c-.866-3-3.12-4.66-5.988-6.709a44.561,44.561,0,0,0-4.14-3A9.726,9.726,0,0,0,19.182.008m-.118,3.976a5.078,5.078,0,0,1,2.61.774c1.086.618,2.242,1.668,3.792,2.776,2.836,2.026,4,2.93,4.47,4.564a2.227,2.227,0,0,1,.026.3,2,2,0,0,0-1.148,2.372c-.086-.312-.07.284-.274.57-.094.132-.11.17-.108.186a2,2,0,0,0-2.39,1.514,1.95,1.95,0,0,0-.02.776.831.831,0,0,1-.172.188c-.3.24-.878.146-.29.32a2,2,0,0,0-2.486,1.35l-.014.052v0l-.042.02a4.841,4.841,0,0,1-1.028.238,1.875,1.875,0,0,1-2-2,2,2,0,0,0-3.68-1.086,8.917,8.917,0,0,1-1.836,1.4,7.176,7.176,0,0,0-1.508,1.234,3.819,3.819,0,0,0-.976,2.454,2.933,2.933,0,0,0,.128.976c.064.318.144.69.232,1.062a11.709,11.709,0,0,0,.53,1.95A36.051,36.051,0,0,0,22.048,39.5c6.26,5.8,8.267,10.723,10.091,15.243A2,2,0,0,0,35.995,54a20.664,20.664,0,0,1,2.16-9.443c1.938-3.522,5.3-6.559,12.841-6.559,3.908,0,5.75,1.562,5.75,1.562A2,2,0,0,0,60,37.995v-2A18.2,18.2,0,0,1,64.621,23.6c3.088-3.338,7.719-5.61,14.377-5.61a15.559,15.559,0,0,1,12.551,5.7A20.973,20.973,0,0,1,96,36.995c0,6.789-3.5,10.867-7.169,13.5a24.178,24.178,0,0,1-7.317,3.558,2,2,0,0,0-1.458,1.466A41.35,41.35,0,0,1,74.22,67.853C69.906,74.02,63.077,80,52,80c-7.953,0-11.541-2-16-2a18.615,18.615,0,0,0-5.934,1.1c-1.522.5-2.684.836-2.878.862a2.076,2.076,0,0,1-.426-.152,14.559,14.559,0,0,1-1.646-.98,38.443,38.443,0,0,1-4.792-3.922c-3.52-3.35-7.271-8.025-9.165-13.009A108.914,108.914,0,0,1,4.12,27.224v0C4.02,25.734,4,24.332,4,22.994c-.006-6.641,1.568-9.923,5-13.251,2.536-2.462,6.04-5.3,8.895-5.68a7.861,7.861,0,0,1,1.172-.078" transform="translate(0 0)" fill="#afe866"/>
    </g>
  </g>
</svg>
