<svg xmlns="http://www.w3.org/2000/svg" xmlns:xlink="http://www.w3.org/1999/xlink" width="99" height="97.065" viewBox="0 0 99 97.065">
  <defs>
    <clipPath id="clip-path">
      <rect id="Rectangle_302" data-name="Rectangle 302" width="99" height="97.065" fill="#9fea4d"/>
    </clipPath>
  </defs>
  <g id="arbeite-icon" transform="translate(0 0)">
    <g id="Group_144" data-name="Group 144" transform="translate(0 0)" clip-path="url(#clip-path)">
      <path id="Path_215" data-name="Path 215" d="M51.878,0A15.748,15.748,0,0,0,36.161,15.717c0,3.644,1.843,7.2,4.36,10.682a69.12,69.12,0,0,0,9.026,9.884,132.779,132.779,0,0,0,13.016,10.5l1.1.8,1.106-.8a130.618,130.618,0,0,0,13.016-10.5A69.528,69.528,0,0,0,86.811,26.4c2.519-3.475,4.36-7.053,4.36-10.682A15.748,15.748,0,0,0,75.454,0,15.5,15.5,0,0,0,63.666,5.587,15.5,15.5,0,0,0,51.878,0m0,3.929A11.821,11.821,0,0,1,62.008,9.7l1.658,2.764L65.324,9.7a11.784,11.784,0,0,1,21.917,6.018c0,2.194-1.35,5.2-3.623,8.35A66.778,66.778,0,0,1,75.086,33.4a110.09,110.09,0,0,1-11.42,9.271A112.33,112.33,0,0,1,52.248,33.4a65.886,65.886,0,0,1-8.534-9.271c-2.271-3.147-3.623-6.185-3.623-8.411A11.762,11.762,0,0,1,51.878,3.929M91.171,49.177a8.206,8.206,0,0,0-5.218,2.395L66.737,70.727H48.809l-.8-.8,11.479-2.273a7.516,7.516,0,0,0,6.018-5.894,7.41,7.41,0,0,0-7.246-8.717H30.882A17.707,17.707,0,0,0,18.358,58.2L1.35,75.208,0,76.621l1.35,1.413,17.682,17.68,1.413,1.352,1.413-1.352,6.692-6.752a1.852,1.852,0,0,1,1.352-.552H66.306a9.822,9.822,0,0,0,6.937-2.886L96.819,61.947a7.572,7.572,0,0,0-.306-10.927,7.209,7.209,0,0,0-5.342-1.843m.185,3.929a3.475,3.475,0,0,1,2.578.859,3.56,3.56,0,0,1,.124,5.22L70.481,82.76a5.906,5.906,0,0,1-4.175,1.719H29.9A5.753,5.753,0,0,0,25.786,86.2l-5.342,5.279L5.587,76.621l15.593-15.6a13.73,13.73,0,0,1,9.7-4.051H58.263a3.4,3.4,0,0,1,3.377,4.112,3.625,3.625,0,0,1-2.947,2.7L43.652,66.859l-3.623.676,2.58,2.64L46.538,74.1l.613.552H68.393l.615-.552,19.707-19.77a4.3,4.3,0,0,1,2.64-1.228" transform="translate(0 0)" fill="#9fea4d"/>
    </g>
  </g>
</svg>
