<svg id="Ebene_1" data-name="Ebene 1" xmlns="http://www.w3.org/2000/svg" viewBox="0 0 140.15 34.05"><defs><style>.cls-1{fill:#e61657;}.cls-2{fill:#104080;}</style></defs><title>samedi-logo-simple-rounded-blue</title><path class="cls-1" d="M14.37.88.78,15.13a2.83,2.83,0,0,0-.43,3.31L8.09,32.58A2.82,2.82,0,0,0,11.3,34l18.53-5a2.84,2.84,0,0,0,2.05-2.22l3.24-17.5a2.83,2.83,0,0,0-1.8-3.17L17.4.18A2.81,2.81,0,0,0,14.37.88Z"/><path class="cls-2" d="M39.85,22.53a10.18,10.18,0,0,0,4.5,1.3c1.6,0,2.2-.5,2.2-1.4s-.5-1.3-2.5-1.9c-3.4-1.2-4.8-3-4.7-5,0-3.1,2.7-5.4,6.8-5.4a12.67,12.67,0,0,1,4.7.9l-1,3.5a7.4,7.4,0,0,0-3.6-.9c-1.3,0-2,.5-2,1.4s.6,1.2,2.7,1.9c3.2,1.1,4.5,2.7,4.5,5.1,0,3.1-2.4,5.4-7.2,5.4a12.53,12.53,0,0,1-5.4-1.2Z"/><path class="cls-2" d="M63.05,27l-.3-1.7h-.1a5.88,5.88,0,0,1-4.8,2,5.13,5.13,0,0,1-5.4-4.8v-.3c0-4.3,3.9-6.4,9.8-6.4v-.2c0-.9-.5-2.1-3-2.1a8.45,8.45,0,0,0-4.6,1.3l-1-3.3a14.43,14.43,0,0,1,6.5-1.5c5.5,0,7.3,3.3,7.3,7.2V23c0,1.4.1,2.7.2,4Zm-.6-7.9c-2.7,0-4.8.6-4.8,2.6a1.88,1.88,0,0,0,1.7,2h.3a2.93,2.93,0,0,0,2.7-1.9,2.77,2.77,0,0,0,.1-.9Z"/><path class="cls-2" d="M70.45,15.73c0-2.1-.1-3.8-.1-5.3h4.3l.2,2.3H75a5.64,5.64,0,0,1,5-2.6,4.72,4.72,0,0,1,4.6,2.8h.1a8,8,0,0,1,2.1-2,6.09,6.09,0,0,1,3.2-.8c3.2,0,5.6,2.2,5.6,7.2v9.8h-5v-9c0-2.4-.8-3.8-2.4-3.8a2.46,2.46,0,0,0-2.4,1.8,5.85,5.85,0,0,0-.2,1.3v9.7h-5v-9.4c0-2.1-.8-3.5-2.4-3.5a2.55,2.55,0,0,0-2.4,1.9,5.85,5.85,0,0,0-.2,1.3v9.7h-5Z"/><path class="cls-2" d="M102.65,20.33c.2,2.2,2.3,3.2,4.8,3.2a14.26,14.26,0,0,0,4.6-.7l.7,3.5a17.58,17.58,0,0,1-6,1c-5.7,0-8.9-3.3-8.9-8.5,0-4.2,2.6-8.9,8.4-8.9,5.4,0,7.4,4.2,7.4,8.3a13.55,13.55,0,0,1-.2,2Zm6-3.5c0-1.3-.6-3.4-2.9-3.4s-3.1,2-3.2,3.4Z"/><path class="cls-2" d="M131.75,2.83V22c0,1.9.1,3.8.1,5h-4.5l-.3-2.5H127a5.82,5.82,0,0,1-5.2,2.8c-4,0-7.1-3.4-7.1-8.5,0-5.6,3.5-8.8,7.4-8.8a5.11,5.11,0,0,1,4.4,1.9h.1v-9Zm-5.1,14.6a2.77,2.77,0,0,0-.1-.9,3.19,3.19,0,0,0-3-2.6c-2.3,0-3.6,2.1-3.6,4.7,0,2.8,1.4,4.6,3.5,4.6a3,3,0,0,0,3-2.5,2.46,2.46,0,0,0,.1-1.2Z"/><path class="cls-2" d="M140.15,5.73a2.65,2.65,0,0,1-2.6,2.6h-.2a2.56,2.56,0,0,1-2.7-2.4v-.2a2.42,2.42,0,0,1,2.4-2.6h.3a2.66,2.66,0,0,1,2.8,2.4ZM134.85,27V10.43h5.2V27Z"/></svg>