<svg xmlns="http://www.w3.org/2000/svg" xmlns:xlink="http://www.w3.org/1999/xlink" width="110" height="110" viewBox="0 0 110 110">
  <defs>
    <clipPath id="clip-path">
      <rect id="Rectangle_302" data-name="Rectangle 302" width="70.594" height="69.214" fill="#9fea4d"/>
    </clipPath>
  </defs>
  <g id="live-head" transform="translate(-1456 -237)">
    <g id="Group_204" data-name="Group 204" transform="translate(1456 237.188)">
      <circle id="Ellipse_142" data-name="Ellipse 142" cx="55" cy="55" r="55" transform="translate(0 -0.188)" fill="#161616"/>
    </g>
    <g id="Group_198" data-name="Group 198" transform="translate(1474.896 254.968)">
      <g id="Group_144" data-name="Group 144" transform="translate(0 0)" clip-path="url(#clip-path)">
        <path id="Path_215" data-name="Path 215" d="M36.993,0A11.229,11.229,0,0,0,25.785,11.207c0,2.6,1.314,5.133,3.109,7.617a49.287,49.287,0,0,0,6.436,7.048,94.681,94.681,0,0,0,9.281,7.487l.787.569.789-.569a93.14,93.14,0,0,0,9.281-7.487A49.578,49.578,0,0,0,61.9,18.824c1.8-2.478,3.109-5.029,3.109-7.617A11.229,11.229,0,0,0,53.8,0,11.051,11.051,0,0,0,45.4,3.984,11.051,11.051,0,0,0,36.993,0m0,2.8a8.429,8.429,0,0,1,7.223,4.115L45.4,8.887l1.182-1.971a8.4,8.4,0,0,1,15.629,4.291c0,1.565-.962,3.71-2.583,5.954a47.617,47.617,0,0,1-6.084,6.654A78.5,78.5,0,0,1,45.4,30.427a80.1,80.1,0,0,1-8.142-6.611A46.981,46.981,0,0,1,31.17,17.2c-1.619-2.244-2.583-4.41-2.583-6A8.387,8.387,0,0,1,36.993,2.8M65.011,35.066a5.851,5.851,0,0,0-3.721,1.708l-13.7,13.659H34.8l-.569-.569,8.186-1.621a5.36,5.36,0,0,0,4.291-4.2,5.284,5.284,0,0,0-5.167-6.216H22.021A12.626,12.626,0,0,0,13.09,41.5L.962,53.629,0,54.636l.962,1.007L13.571,68.25l1.007.964,1.007-.964,4.772-4.815a1.321,1.321,0,0,1,.964-.394h25.96a7,7,0,0,0,4.947-2.058L69.039,44.172a5.4,5.4,0,0,0-.219-7.792,5.14,5.14,0,0,0-3.809-1.314m.132,2.8a2.478,2.478,0,0,1,1.838.612,2.538,2.538,0,0,1,.088,3.722L50.258,59.014a4.211,4.211,0,0,1-2.977,1.226H21.321a4.1,4.1,0,0,0-2.934,1.226L14.578,65.23,3.984,54.636,15.1,43.515a9.79,9.79,0,0,1,6.918-2.889H41.546a2.427,2.427,0,0,1,2.408,2.932,2.585,2.585,0,0,1-2.1,1.926l-10.725,2.19-2.583.482,1.839,1.883,2.8,2.8.437.394H48.769l.438-.394,14.053-14.1a3.063,3.063,0,0,1,1.883-.876" transform="translate(0 0)" fill="#9fea4d"/>
      </g>
    </g>
  </g>
</svg>
