<?xml version="1.0" encoding="utf-8"?>
<!-- Generator: Adobe Illustrator 27.9.0, SVG Export Plug-In . SVG Version: 6.00 Build 0)  -->
<svg version="1.1" id="Ebene_1" xmlns="http://www.w3.org/2000/svg" xmlns:xlink="http://www.w3.org/1999/xlink" x="0px" y="0px"
	 viewBox="0 0 200.1 200" style="enable-background:new 0 0 200.1 200;" xml:space="preserve">
<style type="text/css">
	.st0{clip-path:url(#SVGID_00000028288615052576246550000013561576192607030699_);}
	.st1{clip-path:url(#SVGID_00000155131316366326697850000015460542888352070825_);}
	.st2{fill:#2C0A15;}
	.st3{fill:none;stroke:#E61757;stroke-opacity:0.38;}
	.st4{fill:#FFFFFF;filter:url(#Adobe_OpacityMaskFilter);}
	.st5{mask:url(#mask0_21_150_00000142860124950435479240000008678256778519121320_);}
	.st6{fill:#E61757;}
	.st7{fill:#FFFFFF;}
</style>
<g>
	<defs>
		<rect id="SVGID_1_" x="-63.4" y="-53.5" width="318" height="307"/>
	</defs>
	<clipPath id="SVGID_00000003064433755393983720000003731934395680846491_">
		<use xlink:href="#SVGID_1_"  style="overflow:visible;"/>
	</clipPath>
	<g style="clip-path:url(#SVGID_00000003064433755393983720000003731934395680846491_);">
		<g>
			<defs>
				<rect id="SVGID_00000068673643186521328350000016607836949456079790_" x="-63.4" y="-53.5" width="318" height="307"/>
			</defs>
			<clipPath id="SVGID_00000137093713954320251000000013333252430198753925_">
				<use xlink:href="#SVGID_00000068673643186521328350000016607836949456079790_"  style="overflow:visible;"/>
			</clipPath>
			<g style="clip-path:url(#SVGID_00000137093713954320251000000013333252430198753925_);">
				<g>
					<path class="st2" d="M100.1,200c55.2,0,100-44.8,100-100c0-55.2-44.8-100-100-100S0.1,44.8,0.1,100
						C0.1,155.2,44.8,200,100.1,200z"/>
					<path class="st3" d="M100.1,199.5c55,0,99.5-44.5,99.5-99.5c0-55-44.5-99.5-99.5-99.5S0.6,45,0.6,100
						C0.6,155,45.1,199.5,100.1,199.5z"/>
				</g>
				<defs>
					<filter id="Adobe_OpacityMaskFilter" filterUnits="userSpaceOnUse" x="20.1" y="81" width="160" height="38.9">
						<feColorMatrix  type="matrix" values="1 0 0 0 0  0 1 0 0 0  0 0 1 0 0  0 0 0 1 0"/>
					</filter>
				</defs>
				
					<mask maskUnits="userSpaceOnUse" x="20.1" y="81" width="160" height="38.9" id="mask0_21_150_00000142860124950435479240000008678256778519121320_">
					<path class="st4" d="M180.1,81h-160v38.9h160V81z"/>
				</mask>
				<g class="st5">
					<path class="st6" d="M36.5,82L21,98.3c-0.5,0.5-0.8,1.1-0.9,1.8c-0.1,0.7,0,1.4,0.4,2l8.8,16.1c0.3,0.6,0.9,1.2,1.5,1.4
						c0.7,0.3,1.4,0.4,2.1,0.2l21.2-5.7c0.6-0.2,1.1-0.5,1.5-0.9c0.4-0.4,0.7-1,0.8-1.6l3.7-20c0.1-0.7,0-1.5-0.4-2.2
						s-1-1.2-1.7-1.4l-18.2-6.8c-0.6-0.2-1.2-0.3-1.9-0.1C37.5,81.2,36.9,81.5,36.5,82z"/>
					<path class="st7" d="M65.6,106.7c1.6,0.9,3.3,1.4,5.1,1.5c1.8,0,2.5-0.6,2.5-1.6c0-1-0.6-1.5-2.9-2.2c-3.9-1.4-5.5-3.4-5.4-5.7
						c0-3.5,3.1-6.2,7.8-6.2c1.8,0,3.7,0.3,5.4,1l-1.1,4c-1.3-0.7-2.7-1-4.1-1c-1.5,0-2.3,0.6-2.3,1.6c0,1,0.7,1.4,3.1,2.2
						c3.7,1.3,5.1,3.1,5.1,5.8c0,3.5-2.7,6.2-8.2,6.2c-2.1,0-4.2-0.5-6.2-1.4L65.6,106.7z"/>
					<path class="st7" d="M92,111.8l-0.3-1.9h-0.1c-0.7,0.8-1.5,1.4-2.5,1.8c-0.9,0.4-2,0.6-3,0.5c-1.5,0.1-3.1-0.4-4.2-1.5
						c-1.2-1-1.9-2.5-2-4v-0.3c0-4.9,4.5-7.3,11.2-7.3v-0.2c0-1-0.6-2.4-3.4-2.4c-1.9,0-3.7,0.5-5.3,1.5l-1.1-3.8
						c2.3-1.1,4.8-1.7,7.4-1.7c6.3,0,8.3,3.8,8.3,8.2v6.6c0,1.6,0.1,3.1,0.2,4.6L92,111.8z M91.4,102.8c-3.1,0-5.5,0.7-5.5,3
						c0,0.6,0.1,1.1,0.5,1.5c0.4,0.4,0.9,0.7,1.4,0.7h0.3c0.7,0,1.3-0.2,1.9-0.6c0.6-0.4,1-0.9,1.2-1.6c0.1-0.3,0.1-0.7,0.1-1
						L91.4,102.8z"/>
					<path class="st7" d="M100.5,99c0-2.4-0.1-4.3-0.1-6.1h4.9l0.2,2.6h0.2c0.6-1,1.5-1.7,2.5-2.2s2.1-0.8,3.3-0.7
						c1.1-0.1,2.2,0.2,3.1,0.8c0.9,0.6,1.7,1.4,2.1,2.4h0.1c0.7-0.9,1.5-1.7,2.4-2.3c1.1-0.6,2.4-1,3.7-0.9c3.7,0,6.4,2.5,6.4,8.2
						V112h-5.7v-10.3c0-2.7-0.9-4.3-2.7-4.3c-0.6,0-1.2,0.2-1.7,0.6c-0.5,0.4-0.9,0.9-1,1.5c-0.1,0.5-0.2,1-0.2,1.5V112h-5.7v-10.7
						c0-2.4-0.9-4-2.7-4c-0.6,0-1.2,0.2-1.7,0.6c-0.5,0.4-0.8,0.9-1,1.5c-0.1,0.5-0.2,1-0.2,1.5V112h-5.7L100.5,99z"/>
					<path class="st7" d="M137.3,104.2c0.2,2.5,2.6,3.7,5.5,3.7c1.8,0,3.6-0.2,5.3-0.8l0.8,4c-2.2,0.8-4.5,1.2-6.8,1.1
						c-6.5,0-10.2-3.8-10.2-9.7c0-4.8,3-10.2,9.6-10.2c6.2,0,8.4,4.8,8.4,9.5c0,0.8-0.1,1.5-0.2,2.3L137.3,104.2z M144.1,100.2
						c0-1.5-0.7-3.9-3.3-3.9c-2.6,0-3.5,2.3-3.7,3.9H144.1z"/>
					<path class="st7" d="M170.5,84.2v21.9c0,2.2,0.1,4.3,0.1,5.7h-5.1l-0.3-2.9h-0.1c-0.6,1-1.5,1.8-2.5,2.4
						c-1,0.6-2.2,0.8-3.4,0.8c-4.6,0-8.1-3.9-8.1-9.7c0-6.4,4-10,8.4-10c1-0.1,1.9,0.1,2.8,0.5c0.9,0.4,1.6,1,2.2,1.7h0.1V84.3
						L170.5,84.2z M164.7,100.9c0-0.3,0-0.7-0.1-1c-0.2-0.8-0.6-1.5-1.2-2.1c-0.6-0.5-1.4-0.9-2.2-0.9c-2.6,0-4.1,2.4-4.1,5.4
						c0,3.2,1.6,5.3,4,5.3c0.8,0,1.6-0.3,2.2-0.8c0.6-0.5,1-1.3,1.2-2.1c0.2-0.4,0.2-0.9,0.1-1.4L164.7,100.9z"/>
					<path class="st7" d="M180.1,87.5c0,0.8-0.3,1.5-0.9,2.1c-0.6,0.6-1.3,0.9-2.1,0.9h-0.2c-0.8,0-1.5-0.2-2.1-0.7
						c-0.6-0.5-0.9-1.2-1-2v-0.2c0-0.4,0-0.7,0.1-1.1c0.1-0.3,0.3-0.7,0.5-0.9c0.2-0.3,0.5-0.5,0.9-0.7c0.3-0.2,0.7-0.3,1-0.3
						c0.1,0,0.1,0,0.2,0h0.3c0.8,0,1.6,0.2,2.2,0.7s1,1.2,1,2L180.1,87.5z M174,92.9h5.9v18.9H174V92.9z"/>
				</g>
			</g>
		</g>
	</g>
</g>
</svg>
