<svg xmlns="http://www.w3.org/2000/svg" xmlns:xlink="http://www.w3.org/1999/xlink" width="440" height="676" viewBox="0 0 440 676"><defs><linearGradient id="a" x1="0.492" y1="0.383" x2="0.49" y2="0.879" gradientUnits="objectBoundingBox"><stop offset="0" stop-opacity="0"/><stop offset="1"/></linearGradient></defs><g transform="translate(-378 -5177.401)"><path d="M.17,105.1s.005-45.137,0-46.958C.145,49.668-5.255,0,46.838,0h164" transform="translate(394.803 5388.238) rotate(-90)" fill="none" stroke="#2c6af9" stroke-width="4"/><path d="M.17,105.1s.005-45.137,0-46.958C.145,49.668-5.255,0,46.838,0h164" transform="translate(394.803 5483.238) rotate(-90)" fill="none" stroke="#2c6af9" stroke-width="4"/><path d="M.17,105.1s.005-45.137,0-46.958C.145,49.668-5.255,0,46.838,0h164" transform="translate(394.803 5577.238) rotate(-90)" fill="none" stroke="#2c6af9" stroke-width="4"/><path d="M.17,105.1s.005-45.137,0-46.958C.145,49.668-5.255,0,46.838,0h164" transform="translate(394.803 5788.074) rotate(-90)" fill="none" stroke="#2c6af9" stroke-width="4"/><path d="M.17,105.1s.005-45.137,0-46.958C.145,49.668-5.255,0,46.838,0h164" transform="translate(394.803 5676.738) rotate(-90)" fill="none" stroke="#2c6af9" stroke-width="4"/><g transform="translate(1955.012 7859.082) rotate(180)"><rect width="240.33" height="85.233" rx="16" transform="translate(1214.715 2431.447)" fill="#fff"/><rect width="240.33" height="83.836" rx="16" transform="translate(1214.715 2335.035)" fill="#fff"/><rect width="240.33" height="85.233" rx="16" transform="translate(1214.715 2237.226)" fill="#fff"/><rect width="240.461" height="84.636" rx="16" transform="translate(1214.649 2140.34)" fill="#fff"/><image width="181.04" height="36.329" transform="translate(1427.1 2491.529) rotate(180)" xlink:href="Group%208658-image.png"/><g transform="translate(1413.421 2396.621) rotate(180)"><g transform="translate(124.186 6.677)"><path d="M16.445,32.873A16.407,16.407,0,0,1,2.811,25.623a16.436,16.436,0,1,1,25.273,2.461,15.555,15.555,0,0,1-5.254,3.525A17.34,17.34,0,0,1,16.445,32.873ZM15.78,22.83h4.656a2.819,2.819,0,1,0,3.525-1.862,3.369,3.369,0,0,0-.865-.133H13.785l-.532-1.53h9.777a1,1,0,0,0,.931-.665l2.261-6.717a1.016,1.016,0,0,0-.6-1.264.6.6,0,0,0-.333-.066H10.26L9.328,7.865A1,1,0,0,0,8.4,7.2H6a1,1,0,0,0,0,2H7.666l4.124,11.972A2.826,2.826,0,1,0,15.78,22.83Zm7.382,1.729a.865.865,0,1,1,.865-.865h0a.88.88,0,0,1-.865.865Zm-10.109,0a.865.865,0,1,1,.865-.865.88.88,0,0,1-.865.865Zm9.311-7.183H12.587l-1.6-4.722H23.96l-1.6,4.722Z" transform="translate(0 0)" fill="#007a95"/></g><path d="M20.684,24.874V13.7c0-3.591-1.33-6.318-4.589-6.318-1.862,0-3.192.865-4.523,2.86a4.015,4.015,0,0,0-3.991-2.86c-1.862,0-3.126.931-4.39,2.66L2.926,7.848H0V24.874H3.725V12.969c1.2-1.729,1.929-2.461,2.926-2.461,1.463,0,1.862,1.463,1.862,3.991V24.874h3.658V12.969c1.2-1.729,1.929-2.461,2.926-2.461,1.463,0,1.862,1.463,1.862,3.924V24.808h3.725Zm15.5-9.644c0-4.922-1.663-7.848-5.986-7.848-4.456,0-6.85,3.458-6.85,9.045,0,5.919,2.261,8.846,6.85,8.846a17.486,17.486,0,0,0,5.52-.931l-.4-2.86a13.324,13.324,0,0,1-4.589.8c-2.66,0-3.525-1.929-3.525-5.188h8.912c0-.6.067-1.463.067-1.862M27.2,14.565c.067-2.261.8-4.456,2.86-4.456,1.663,0,2.527,1.663,2.461,4.456ZM51.411,24.874V0H47.687V7.848a9.714,9.714,0,0,0-2.394-.2c-4.855,0-6.983,4.19-6.983,9.378,0,4.589,1.53,8.314,5.454,8.314,1.862,0,3.126-.8,4.523-2.727l.266,2.261Zm-3.725-5.188c-1.4,2-2.062,2.461-2.993,2.461-2,0-2.461-2.594-2.461-5.587,0-3.858,1.064-6.052,3.192-6.052a5.3,5.3,0,0,1,2.261.466Zm18.556,5.188V13.1c0-3.458-1.729-5.653-5.919-5.653A12.247,12.247,0,0,0,55.2,8.58l.6,2.66a10.712,10.712,0,0,1,4.057-1c2.128,0,2.727,1,2.727,3.192V14.7H60.922c-4.124,0-6.784,1.663-6.784,5.52,0,3.259,1.929,5.055,4.722,5.055a5.328,5.328,0,0,0,4.323-2.261l.2,1.8Zm-3.658-4.39c-.8,1.131-1.663,2-2.793,2-1.33,0-2-1-2-2.461a2.613,2.613,0,0,1,2.926-2.86h1.862Zm14.366,1.663H75.82c-1.4,0-1.862-.4-1.862-2.86v-8.58h2.993V7.848H73.958V2.926H71.1l-.865,4.922H68.371v2.86h1.862v9.91c0,3.591,1.53,4.589,3.791,4.589a13.459,13.459,0,0,0,2.86-.333Zm6.983,2.727V7.848H78.281v2.86H80.21v14.1Zm15.9,0-4.057-8.912,3.591-8.114H95.507l-2.461,6.119L90.585,7.848H86.4l3.858,8.314-4.124,8.713h4.19l2.66-6.518,2.594,6.518Zm14.432,0-4.057-8.912L113.8,7.848h-3.858l-2.461,6.119-2.461-6.119h-4.19l3.858,8.314-4.124,8.713h4.19l2.66-6.518,2.594,6.518Z" fill="#161615"/><path d="M4.922,4.722C4.922,2.394,3.858.732,1.862.732H0V8.979H1.8c2,0,3.126-1.53,3.126-4.257m-.665.067c0,2.527-.8,3.658-2.461,3.658H.6V1.264H1.8c1.729,0,2.461,1.53,2.461,3.525m5.387,4.19V4.722c0-.865-.333-1.8-1.663-1.8a3.606,3.606,0,0,0-1.663.4l.133.466a3.574,3.574,0,0,1,1.4-.333c.865,0,1.2.532,1.2,1.53v.665H8.181c-1.264,0-2.195.6-2.195,1.8a1.537,1.537,0,0,0,1.33,1.663h.266a2.272,2.272,0,0,0,1.6-.865l.067.732Zm-.6-1.33c-.466.532-.865.931-1.4.931-.665,0-1-.466-1-1.131,0-.8.466-1.264,1.4-1.264h1Zm8.912,1.33V5.121c0-1.064-.333-2.195-1.463-2.195-.6,0-1.064.333-1.663,1.2a1.378,1.378,0,0,0-1.4-1.2c-.6,0-1.064.333-1.6,1.064l-.067-1h-.466V8.979h.6V4.656c.6-.865.931-1.264,1.463-1.264.732,0,.931.8.931,1.8V8.979h.6V4.656c.6-.865.931-1.264,1.463-1.264.732,0,.931.8.931,1.8V8.979Zm2.594-7.915a.5.5,0,0,0-1,.067.455.455,0,0,0,.466.466c.333-.067.532-.266.532-.532h0m-.133,7.915V2.993h-1.4v.466h.8V8.912Zm3.791-.466h-.466c-.532,0-.8-.067-.8-1V3.525h1.264V3.059H22.946V1.33H22.48l-.133,1.729h-.8v.466h.8V7.649c0,1.2.466,1.4,1.2,1.4a2.263,2.263,0,0,0,.665-.067Zm7.516.466V.133h-.6V3.059A6.553,6.553,0,0,0,30,2.926c-1.663,0-2.328,1.6-2.328,3.259,0,1.6.466,2.926,1.8,2.926a1.864,1.864,0,0,0,1.663-1.064l.067,1Zm-.6-1.663c-.732,1.064-1.064,1.264-1.6,1.264-1.064,0-1.2-1.33-1.2-2.394,0-1.729.466-2.727,1.6-2.727a2.609,2.609,0,0,1,1.2.266Zm3.192-6.252a.5.5,0,1,0-1,.067.455.455,0,0,0,.466.466c.333-.067.532-.266.532-.532h0m-.133,7.915V2.993h-1.4v.466h.8V8.912Zm5.454-3.525c0-1.463-.532-2.594-1.862-2.594-1.463,0-2.195,1.2-2.195,3.059,0,2,.665,3.059,2.195,3.059a5,5,0,0,0,1.729-.333l-.133-.532a2.446,2.446,0,0,1-1.463.4c-1.264,0-1.663-1-1.663-2.594h3.325c0-.133.067-.333.067-.466m-3.392,0c.067-.931.466-2.062,1.463-2.062.865,0,1.264.8,1.264,2.062ZM47.421,3.059a2.158,2.158,0,0,0-1.4-2.195A3.892,3.892,0,0,0,45.16.732H43.63V8.979h.6V5.587h.931c1.463,0,2.261-1,2.261-2.527m-.6.067c0,1.2-.532,1.929-1.463,1.929h-1V1.264h.8a2.494,2.494,0,0,1,.732.067,1.907,1.907,0,0,1,.931,1.8m4.523-.133a1.942,1.942,0,0,0-.6-.133c-.466,0-.8.333-1.33,1.264l-.067-1.2h-.466V8.912h.6V4.855c.665-1.064.931-1.463,1.33-1.463a1.233,1.233,0,0,1,.466.133Zm4.124,5.986V4.722a1.583,1.583,0,0,0-1.729-1.8,3.606,3.606,0,0,0-1.663.4l.133.466a3.574,3.574,0,0,1,1.4-.333c.865,0,1.2.532,1.2,1.53v.665h-.865c-1.264,0-2.195.6-2.195,1.8a1.537,1.537,0,0,0,1.33,1.663h.266a2.272,2.272,0,0,0,1.6-.865L55,8.979Zm-.6-1.33c-.466.532-.865.931-1.4.931-.665,0-1-.466-1-1.131,0-.8.466-1.264,1.4-1.264h1Zm5.786,1.33-1.8-3.126,1.663-2.86h-.665L58.594,5.454,57.331,2.993H56.6l1.663,2.926-1.8,2.993H57.2l1.33-2.594,1.4,2.594h.732Zm2.128-7.915a.5.5,0,1,0-1,.067.455.455,0,0,0,.466.466c.266-.067.532-.266.532-.532h0m-.133,7.915V2.993h-1.4v.466h.8V8.912Zm4.39-1.463c0-.732-.4-1.2-1.33-1.862-.8-.532-1-.8-1-1.33a.951.951,0,0,1,.931-.931h.067a2.124,2.124,0,0,1,.931.2l.067-.532a2.669,2.669,0,0,0-1-.2,1.59,1.59,0,0,0-1.663,1.33v.2a1.992,1.992,0,0,0,1.2,1.729c.865.6,1.131.931,1.131,1.463a.962.962,0,0,1-1.064,1,3.884,3.884,0,0,1-1.2-.266l-.067.532a3.889,3.889,0,0,0,1.264.266c1.064-.067,1.729-.6,1.729-1.6m5.321,1h-.4c-.333,0-.4-.266-.4-.732V.133h-.6V7.915c0,.8.4,1.064,1,1.064a1.132,1.132,0,0,0,.466-.067Zm4.39.466V4.722a1.583,1.583,0,0,0-1.729-1.8,3.606,3.606,0,0,0-1.663.4l.133.466a3.574,3.574,0,0,1,1.4-.333c.865,0,1.2.532,1.2,1.53v.665h-.865c-1.264,0-2.195.6-2.195,1.8a1.537,1.537,0,0,0,1.33,1.663h.266a2.272,2.272,0,0,0,1.6-.865l.067.732Zm-.6-1.33c-.466.532-.865.931-1.4.931-.665,0-1-.466-1-1.131,0-.8.466-1.264,1.4-1.264h1Zm.2-6.584c0-.266-.2-.4-.466-.4s-.4.2-.4.466a.434.434,0,1,0,.865-.067h0m-1.729,0c0-.266-.2-.4-.466-.4s-.4.2-.4.466a.434.434,0,0,0,.865-.067h0m7.649,7.915V2.993h-.6V7.316c-.6.865-1,1.264-1.6,1.264-.8,0-1.064-.8-1.064-1.8V2.993h-.6V6.85c0,1.064.4,2.195,1.6,2.195a2.082,2.082,0,0,0,1.663-1.064l.066,1ZM86.2.532V.067A1.464,1.464,0,0,0,85.664,0C84.466,0,84.2.931,84.2,2.328v.665h-.8v.466h.8V8.912h.6V3.458h1.264V2.993H84.8V2.328c0-.931,0-1.8,1-1.8Zm2.926,7.981h-.466c-.532,0-.8-.067-.8-1V3.525h1.264V3.059H87.858V1.33h-.466L87.26,3.059h-.8v.466h.8V7.649c0,1.2.466,1.4,1.2,1.4a2.263,2.263,0,0,0,.665-.067Zm2.195-.067a.566.566,0,1,0-1.131.067.572.572,0,0,0,.532.532.558.558,0,0,0,.6-.6h0" transform="translate(22.946 30.062)" fill="#007a95"/><path d="M4.789,2.394A2.394,2.394,0,1,0,2.394,4.789,2.384,2.384,0,0,0,4.789,2.394h0" transform="translate(79.545 0.333)" fill="#007a95"/></g><image width="143.446" height="75.453" transform="translate(1407.538 2316.87) rotate(180)" xlink:href="Group%208658-image2.png"/><g transform="translate(1402.114 2200.689) rotate(180)"><path d="M2.477,14.327V8.018a.278.278,0,0,0-.295-.295H.3A.278.278,0,0,1,0,7.429V5.012A.278.278,0,0,1,.3,4.717H2.182a.278.278,0,0,0,.295-.295V.3A.278.278,0,0,1,2.771,0H5.837A.278.278,0,0,1,6.132.3V4.422a.278.278,0,0,0,.295.295h3.3a.27.27,0,0,1,.295.295V7.429a.278.278,0,0,1-.295.295h-3.3a.281.281,0,0,0-.295.295v6.073a3.321,3.321,0,0,0,.413,1.887,1.527,1.527,0,0,0,1.356.649,3.222,3.222,0,0,0,1.415-.236c.236-.118.466-.254.767-.427a.3.3,0,0,1,.412.074l1.238,1.768a.293.293,0,0,1-.059.413,8.248,8.248,0,0,1-1.946,1.12,6.006,6.006,0,0,1-2.358.413c-1.768,0-3.066-.473-3.773-1.474a6.285,6.285,0,0,1-1.12-3.95" transform="translate(32.397 7.143)" fill="#383838"/><path d="M0,7.784A7.963,7.963,0,0,1,1,3.893a7.506,7.506,0,0,1,2.771-2.83A7.753,7.753,0,0,1,7.841,0a7.607,7.607,0,0,1,4.068,1.061,7.507,7.507,0,0,1,2.771,2.83,8.054,8.054,0,0,1,0,7.782,7.507,7.507,0,0,1-2.771,2.83,7.752,7.752,0,0,1-4.068,1.061,7.606,7.606,0,0,1-4.068-1.061A7.507,7.507,0,0,1,1,11.676,8.133,8.133,0,0,1,0,7.784m7.839,4.6a3.568,3.568,0,0,0,2.3-.708A4.456,4.456,0,0,0,11.493,9.9a5.011,5.011,0,0,0,0-4.245,4.456,4.456,0,0,0-1.356-1.768,4.09,4.09,0,0,0-4.6,0A4.456,4.456,0,0,0,4.185,5.659a5.011,5.011,0,0,0,0,4.245,4.456,4.456,0,0,0,1.356,1.768,3.568,3.568,0,0,0,2.3.708" transform="translate(43.601 11.386)" fill="#383838"/><path d="M.005,14.634V.6A.278.278,0,0,1,.3.308H3.248c.2,0,.288.094.295.295L3.6,1.959A5.765,5.765,0,0,1,5.134.662,5.006,5.006,0,0,1,7.846.013a4.9,4.9,0,0,1,4.363,2.123,8,8,0,0,1,2.3-1.651A6.181,6.181,0,0,1,17.218.012a5.383,5.383,0,0,1,4.245,1.651A6.172,6.172,0,0,1,22.94,6.087v7.366a1.46,1.46,0,0,1-1.474,1.474H19.579a.264.264,0,0,1-.295-.295V6.027A2.978,2.978,0,0,0,18.577,3.9a2.406,2.406,0,0,0-1.887-.766,2.885,2.885,0,0,0-2.417,1.12,4.37,4.37,0,0,0-.946,2.771v6.424a1.46,1.46,0,0,1-1.474,1.474H9.966c-.24,0-.291-.135-.295-.295V6.027A2.977,2.977,0,0,0,8.964,3.9a2.4,2.4,0,0,0-1.887-.766A2.885,2.885,0,0,0,4.66,4.258a4.369,4.369,0,0,0-.946,2.771v6.424A1.46,1.46,0,0,1,2.24,14.927H.353C.1,14.927,0,14.8,0,14.632" transform="translate(60.691 11.552)" fill="#383838"/><path d="M12.743,11.189a2.137,2.137,0,0,1-.18,2.906,4.877,4.877,0,0,1-1.887,1,8.769,8.769,0,0,1-2.948.53,8.316,8.316,0,0,1-4.068-1,6.981,6.981,0,0,1-2.712-2.83A8.527,8.527,0,0,1,0,7.668,7.919,7.919,0,0,1,.949,3.777,6.987,6.987,0,0,1,7.375,0a7.521,7.521,0,0,1,3.419.708A6.39,6.39,0,0,1,13.035,2.6,8.159,8.159,0,0,1,14.273,5.31a10.656,10.656,0,0,1,.353,3.066v.236c0,.2-.082.285-.295.295H3.721a2.833,2.833,0,0,0,.589,1.825,4.449,4.449,0,0,0,1.533,1.238,4.969,4.969,0,0,0,1.96.487,6.832,6.832,0,0,0,2.285-.31,5.732,5.732,0,0,0,1.474-.708,4.74,4.74,0,0,0,.589-.473.27.27,0,0,1,.405.007,2.724,2.724,0,0,1,.185.213M3.6,6.252h7.193a2.8,2.8,0,0,0-.413-1.474A3.7,3.7,0,0,0,9.259,3.54a3.571,3.571,0,0,0-1.887-.473,4.444,4.444,0,0,0-2.064.473A3.128,3.128,0,0,0,4.07,4.779,2.891,2.891,0,0,0,3.6,6.252" transform="translate(85.394 11.386)" fill="#383838"/><path d="M10.8,19.336a9.264,9.264,0,0,1-1.651,1.3,4.989,4.989,0,0,1-2.712.649A5.929,5.929,0,0,1,3.37,20.4,6.457,6.457,0,0,1,.952,17.8a8.068,8.068,0,0,1-.946-4.127A9.2,9.2,0,0,1,.479,10.67,7.479,7.479,0,0,1,1.717,8.488,7.162,7.162,0,0,1,3.587,6.852,7.352,7.352,0,0,1,7.318,5.776a4.921,4.921,0,0,1,3.419.8V.3A.27.27,0,0,1,11.032,0H14.1A.265.265,0,0,1,14.393.3v20.16a.266.266,0,0,1-.295.295H11.15a.291.291,0,0,1-.309-.307Zm-.059-5.011V9.844a4.585,4.585,0,0,0-3.006-.766,3.751,3.751,0,0,0-3.069,1.6,5.462,5.462,0,0,0-.94,3.114,5.065,5.065,0,0,0,.946,3.125,3.147,3.147,0,0,0,2.712,1.238,3.035,3.035,0,0,0,2-.589,3.438,3.438,0,0,0,1.061-1.474,4.557,4.557,0,0,0,.295-1.768" transform="translate(101.484 5.67)" fill="#383838"/><path d="M0,7.782A7.962,7.962,0,0,1,1,3.891a7.506,7.506,0,0,1,2.771-2.83,8.555,8.555,0,0,1,8.254,0A7.929,7.929,0,0,1,14.8,11.671a7.508,7.508,0,0,1-2.771,2.83,8.555,8.555,0,0,1-8.254,0A7.963,7.963,0,0,1,1,11.671,7.665,7.665,0,0,1,0,7.78m7.839,4.6a3.569,3.569,0,0,0,2.3-.708A4.458,4.458,0,0,0,11.493,9.9a5.01,5.01,0,0,0,0-4.245,4.459,4.459,0,0,0-1.355-1.769,4.09,4.09,0,0,0-4.6,0A4.459,4.459,0,0,0,4.185,5.66a5.011,5.011,0,0,0,0,4.245,4.46,4.46,0,0,0,1.356,1.769,3.568,3.568,0,0,0,2.3.707" transform="translate(117.116 11.388)" fill="#383838"/><path d="M4.951,9.666a5.189,5.189,0,0,1-2.535-.589A4.916,4.916,0,0,1,.648,7.367a5.279,5.279,0,0,1,0-5.068A4.49,4.49,0,0,1,2.416.589a5.744,5.744,0,0,1,5.068,0A5.436,5.436,0,0,1,9.253,2.3,4.523,4.523,0,0,1,9.9,4.834a5.061,5.061,0,0,1-.649,2.535,4.49,4.49,0,0,1-1.768,1.71,5.939,5.939,0,0,1-2.535.589m0-1.179a3.659,3.659,0,0,0,1.825-.473,2.934,2.934,0,0,0,1.238-1.3,4.066,4.066,0,0,0,.473-1.887,3.6,3.6,0,0,0-1-2.653,3.557,3.557,0,0,0-2.594-1,3.659,3.659,0,0,0-1.825.473,3.421,3.421,0,0,0-1.3,1.3,3.955,3.955,0,0,0-.473,1.946,3.723,3.723,0,0,0,.473,1.887,3.058,3.058,0,0,0,1.3,1.3,4.908,4.908,0,0,0,1.887.413M3.242,7.014V2.3H5.187a1.605,1.605,0,0,1,1.179.413,1.381,1.381,0,0,1,.473,1.061,1.629,1.629,0,0,1-.236.885,1.428,1.428,0,0,1-.648.531L7.135,7.01H5.955L4.895,5.3H4.305V7.01ZM4.3,4.48h.589A.931.931,0,0,0,5.541,4.3a.652.652,0,0,0,.236-.589.63.63,0,0,0-.649-.649H4.3Z" transform="translate(131.68 5.201)" fill="#383838"/><path d="M7.53,1.807,3.027.462C.4-.3,1.615-.308,1.564,1.866h0s-.293,9.357-.293,14.387v4.913a2.766,2.766,0,0,1-1.228,2.34L0,23.537l7.471-2.313a3.123,3.123,0,0,0,2.223-2.983V4.848A2.994,2.994,0,0,0,7.531,1.807" transform="translate(14.22 5.739)" fill="#ad153d" fill-rule="evenodd"/><path d="M14.738,21.542s-.27-18.363-.293-18.832a2.177,2.177,0,0,0-.468-1.284A3.514,3.514,0,0,0,10.407.08L2.223,2.594A3.123,3.123,0,0,0,0,5.577V18.97a3.071,3.071,0,0,0,2.223,2.983L11.054,24.7c1.52.468,3.743-1.111,3.684-3.158" transform="translate(0 4.95)" fill="#db1f3e" fill-rule="evenodd"/><path d="M.418,4.815S-.782,1.442.885.137A1.06,1.06,0,0,1,1.07.031.922.922,0,0,1,2.169.6S-.053,2.416.59,4.7c.023.068.013.207-.113.186a.108.108,0,0,1-.063-.068" transform="translate(14.028 0.801)" fill="#38af4f" fill-rule="evenodd"/><path d="M7.6,4.269c.068.011.092-.061.059-.117a8.7,8.7,0,0,0-1.637-1.93A23.708,23.708,0,0,0,2.106,0,12.039,12.039,0,0,0,4.328,2.807c.059.059.052.1-.059.117A17.037,17.037,0,0,0,0,5.087,20.345,20.345,0,0,1,5.088,3.976,10.007,10.007,0,0,1,7.6,4.268" transform="translate(5.848 0)" fill="#38af4f" fill-rule="evenodd"/><path d="M5.222,3.453A17.669,17.669,0,0,0,2.415,1.7a.03.03,0,0,1,0-.059A7.324,7.324,0,0,0,4.7,0S2.122.643,1.6.819A3.121,3.121,0,0,0,.016,1.93.072.072,0,0,0,0,2a.077.077,0,0,0,.068.045A12.569,12.569,0,0,1,2,2.4c1.52.526,3.217,1.053,3.217,1.053" transform="translate(15.072 2.572)" fill="#38af4f" fill-rule="evenodd"/><path d="M1.042,8.179V4.688c0-.1-.051-.162-.128-.159l-.793.026C.049,4.555,0,4.5,0,4.4V3.1c0-.095.048-.162.121-.168l.793-.068c.076-.006.128-.076.128-.174V.408A.169.169,0,0,1,1.17.224L2.566,0c.084-.014.14.046.14.149v2.4c0,.1.056.166.141.159L4.51,2.571c.093-.007.156.059.156.168V4.22a.167.167,0,0,1-.156.186l-1.663.055c-.085,0-.141.073-.141.176V8.17a2.386,2.386,0,0,0,.2,1.116.819.819,0,0,0,.667.453,1.362,1.362,0,0,0,.723-.062A4,4,0,0,1,4.7,9.467c.063-.068.157-.02.221.059l.676,1.18a.239.239,0,0,1-.033.255,3.61,3.61,0,0,1-1.055.541,2.507,2.507,0,0,1-1.2.055A2.254,2.254,0,0,1,1.533,10.44a4.522,4.522,0,0,1-.493-2.255" transform="translate(4.039 11.719)" fill="#fff"/></g></g><rect width="440" height="540" transform="translate(378 5313.402)" fill="url(#a)"/></g></svg>