<svg xmlns="http://www.w3.org/2000/svg" width="158.323" height="158.323" viewBox="0 0 158.323 158.323">
  <g id="calender-head" transform="translate(-1038.761 -412.007) rotate(16)">
    <circle id="Ellipse_141" data-name="Ellipse 141" cx="64" cy="64" r="64" transform="translate(1146 100)" fill="#161616"/>
    <path id="icons8-kalender" d="M16.494,0a2.919,2.919,0,0,0-2.9,2.9V5.8H4.9a2.924,2.924,0,0,0-2.072.827A2.924,2.924,0,0,0,2,8.7V66.673a2.946,2.946,0,0,0,.827,2.078,2.943,2.943,0,0,0,2.072.821H65.774a2.808,2.808,0,0,0,2.9-2.9V8.7a2.817,2.817,0,0,0-2.9-2.9h-8.7V2.9a2.919,2.919,0,0,0-2.9-2.9h-2.9a2.919,2.919,0,0,0-2.9,2.9V5.8H22.292V2.9a2.919,2.919,0,0,0-2.9-2.9Zm0,2.9h2.9v8.7h-2.9Zm34.786,0h2.9v8.7h-2.9ZM4.9,8.7h8.7v2.9a2.919,2.919,0,0,0,2.9,2.9h2.9a2.919,2.919,0,0,0,2.9-2.9V8.7h26.09v2.9a2.919,2.919,0,0,0,2.9,2.9h2.9a2.919,2.919,0,0,0,2.9-2.9V8.7h8.7V18.842H4.9Zm0,13.045H65.774V66.673H4.9Zm8.7,5.8V60.876H57.078V27.539Zm2.9,2.9h7.247v7.247H16.494Zm10.146,0h7.247v7.247H26.64Zm10.146,0h7.247v7.247H36.786Zm10.146,0h7.247v7.247H46.932ZM16.494,40.584h7.247v7.247H16.494Zm10.146,0h7.247v7.247H26.64Zm10.146,0h7.247v7.247H36.786Zm10.146,0h7.247v7.247H46.932ZM16.494,50.73h7.247v7.247H16.494Zm10.146,0h7.247v7.247H26.64Zm10.146,0h7.247v7.247H36.786Zm10.146,0h7.247v7.247H46.932Z" transform="translate(1175 129.428)" fill="#86ed18"/>
  </g>
</svg>
