<svg xmlns="http://www.w3.org/2000/svg" width="20.625" height="20" viewBox="0 0 20.625 20"><g transform="translate(0)" fill="none"><path d="M11.434.7a1.251,1.251,0,0,0-2.25,0L6.673,5.87,1.064,6.7a1.25,1.25,0,0,0-.7,2.125l4.07,4.027-.961,5.691A1.253,1.253,0,0,0,5.3,19.853l5.011-2.675,5.011,2.675a1.253,1.253,0,0,0,1.824-1.312l-.965-5.691,4.07-4.027a1.25,1.25,0,0,0-.7-2.125L13.946,5.87Z" stroke="none"/><path d="M 10.30919361114502 1 C 10.21257400512695 1 10.12551403045654 1.055078506469727 10.08372402191162 1.140169143676758 L 7.341413497924805 6.78257942199707 L 1.212472915649414 7.687409400939941 C 1.118564605712891 7.701489448547363 1.039983749389648 7.766219139099121 1.012292861938477 7.852298736572266 C 0.982513427734375 7.944859504699707 1.005893707275391 8.046798706054688 1.072254180908203 8.11237907409668 L 5.511263847351074 12.50453948974609 L 4.464323043823242 18.70529937744141 C 4.448623657226562 18.79948806762695 4.487974166870117 18.89584922790527 4.564603805541992 18.95080947875977 C 4.619832992553711 18.99041938781738 4.676623344421387 18.99873924255371 4.714533805847168 18.99873924255371 C 4.757033348083496 18.99873924255371 4.797623634338379 18.98868942260742 4.830964088439941 18.97110939025879 L 10.31310367584229 16.04416847229004 L 15.7910041809082 18.96885871887207 C 15.82961368560791 18.98922920227051 15.87244415283203 19 15.91487312316895 19 C 15.9509334564209 19 16.0047435760498 18.99213981628418 16.0562629699707 18.95465850830078 C 16.13723373413086 18.89577865600586 16.17770385742188 18.80022811889648 16.16234397888184 18.70802879333496 L 15.11074352264404 12.50483894348145 L 19.55043411254883 8.11199951171875 C 19.61699295043945 8.046209335327148 19.64133453369141 7.947209358215332 19.6124439239502 7.859779357910156 C 19.58200454711914 7.76762866973877 19.50436401367188 7.70158863067627 19.4122142791748 7.687759399414062 L 13.27700424194336 6.782639503479004 L 10.53319358825684 1.137109756469727 C 10.49306392669678 1.05381965637207 10.40513324737549 1 10.30919361114502 1 M 10.30919361114502 0 C 10.78961372375488 0 11.22706413269043 0.2734088897705078 11.43407344818115 0.7030487060546875 L 13.94551372528076 5.870439529418945 L 19.55816268920898 6.698469161987305 C 20.02686309814453 6.768769264221191 20.41353416442871 7.096858978271484 20.56195449829102 7.546029090881348 C 20.71037292480469 7.995199203491211 20.58929443359375 8.491239547729492 20.25339317321777 8.82322883605957 L 16.18354415893555 12.85012912750244 L 17.14827346801758 18.54088973999023 C 17.22639465332031 19.00958824157715 17.03110313415527 19.48219871520996 16.64442443847656 19.76340866088867 C 16.25775337219238 20.04463005065918 15.74609470367432 20.07587814331055 15.32426357269287 19.85324859619141 L 10.31310367584229 17.17776870727539 L 5.301943778991699 19.85324859619141 C 4.880121231079102 20.07588005065918 4.368452072143555 20.04072761535645 3.981782913208008 19.76340866088867 C 3.595104217529297 19.48609924316406 3.399814605712891 19.00958824157715 3.477933883666992 18.54088973999023 L 4.438764572143555 12.85012912750244 L 0.3689041137695312 8.82322883605957 C 0.03300285339355469 8.491239547729492 -0.08416557312011719 7.995199203491211 0.06034278869628906 7.546029090881348 C 0.204864501953125 7.096858978271484 0.5954437255859375 6.768769264221191 1.064144134521484 6.698469161987305 L 6.672883987426758 5.870439529418945 L 9.184323310852051 0.7030487060546875 C 9.395243644714355 0.2734088897705078 9.828783988952637 0 10.30919361114502 0 Z" stroke="none" fill="#ffce47"/></g></svg>