<svg xmlns="http://www.w3.org/2000/svg" width="50" height="48" viewBox="0 0 50 48"><g transform="translate(-739 -5740)"><rect width="48" height="48" transform="translate(741 5740)" fill="none"/><path d="M15.471,0a2.1,2.1,0,0,1,.864.187l12.138,5.15a4,4,0,0,1,2.469,3.687c-.032,6.395-2.662,18.094-13.769,23.412a3.937,3.937,0,0,1-3.4,0C2.663,27.119.033,15.419,0,9.025A4,4,0,0,1,2.469,5.337L14.614.187A2.052,2.052,0,0,1,15.471,0" transform="translate(758.058 5747.588)" fill="#2c6af9" opacity="0.38"/><path d="M11.25,11.25V15h12.5V11.25a6.25,6.25,0,1,0-12.5,0M6.25,15V11.25a11.25,11.25,0,1,1,22.5,0V15H30a5,5,0,0,1,5,5V35a5,5,0,0,1-5,5H5a5,5,0,0,1-5-5V20a5,5,0,0,1,5-5Z" transform="translate(739 5744)" fill="#2c6af9"/></g></svg>