<svg xmlns="http://www.w3.org/2000/svg" xmlns:xlink="http://www.w3.org/1999/xlink" width="1244.198" height="1228.836" viewBox="0 0 1244.198 1228.836"><defs><linearGradient id="a" x1="0.426" y1="0.222" x2="0.511" y2="1" gradientUnits="objectBoundingBox"><stop offset="0" stop-color="#2c6af9"/><stop offset="1" stop-color="#2c6af9" stop-opacity="0.161"/></linearGradient></defs><g transform="translate(-392.802 -4124.402)"><g transform="translate(2106.648 8224.242) rotate(180)"><path d="M-1893.49,5817.84a60.149,60.149,0,0,1-21.567-3.577,39.2,39.2,0,0,1-14.283-9.317c-5.989-6.2-9.958-14.582-11.795-24.92a95.3,95.3,0,0,1-1.08-20.187c.029-.866.054-1.614.056-2.146.017-5.843.012-249.536.006-464.541q0-4.512,0-9.012h-.005c0-37.725,0-71.95,0-102.489,0-51.958,0-98.154,0-133.382h.011c0-36.34,0-56.661-.011-60.281,0-.532-.026-1.281-.056-2.146a95.3,95.3,0,0,1,1.08-20.187c1.837-10.339,5.805-18.724,11.8-24.921a39.192,39.192,0,0,1,14.281-9.317,60.187,60.187,0,0,1,21.567-3.576h419.965v-.171c59.011,0,148.807,0,244.881,0,215.009-.006,458.705-.012,464.554,0,.594,0,1.334.028,2.27.059a91.522,91.522,0,0,0,19.351-1.022c9.542-1.7,17.226-5.306,22.842-10.732a35.26,35.26,0,0,0,8.363-12.841,56.233,56.233,0,0,0,3.31-20.132V4589h4v294a60.183,60.183,0,0,1-3.576,21.567,39.214,39.214,0,0,1-9.317,14.283c-6.2,5.989-14.582,9.958-24.921,11.794a95.208,95.208,0,0,1-20.187,1.081c-.866-.029-1.613-.054-2.146-.056-2.465-.007-47.261-.01-114.361-.011v.181H-1893.49a56.23,56.23,0,0,0-20.132,3.31,35.265,35.265,0,0,0-12.841,8.363c-5.426,5.614-9.036,13.3-10.732,22.842a91.507,91.507,0,0,0-1.022,19.351c.031.936.057,1.676.058,2.271.015,4.942.012,40.923.007,106.242,0,25.039,0,55.047-.005,89.749,0,34.417,0,71.315,0,109.183.006,215.009.013,458.705,0,464.554,0,.594-.026,1.334-.058,2.272a91.5,91.5,0,0,0,1.022,19.35c1.7,9.542,5.306,17.227,10.732,22.84a35.24,35.24,0,0,0,12.841,8.363,56.224,56.224,0,0,0,20.132,3.31h502.338v4Z" transform="translate(2417.802 -1718)" fill="url(#a)"/></g><circle cx="8" cy="8" r="8" transform="translate(1621 4473.402)" fill="#2c6af9"/></g></svg>