<svg xmlns="http://www.w3.org/2000/svg" width="132.064" height="132.064" viewBox="0 0 132.064 132.064">
  <g id="user-call-head" transform="translate(-1515.968 -700.968)">
    <circle id="Ellipse_144" data-name="Ellipse 144" cx="57" cy="57" r="57" transform="matrix(0.985, -0.174, 0.174, 0.985, 1515.968, 720.764)" fill="#161616"/>
    <path id="icons8-telecommunication_1_" data-name="icons8-telecommunication (1)" d="M61.237,31.823a4.889,4.889,0,0,0-3.172,6.122l2.3,6.361a3.173,3.173,0,0,0,4.107,1.778c6.346-2.292,9.935-8.672,8.17-14.525A219.869,219.869,0,0,0,64.8,9.85c-2.386-5.64-9.227-8.26-15.573-5.969A3.165,3.165,0,0,0,47.2,7.873l2.3,6.371a4.878,4.878,0,0,0,6.35,2.682.461.461,0,0,1,.307-.012,92.1,92.1,0,0,1,5.315,14.7A.37.37,0,0,1,61.237,31.823Zm-2.38-16.151a3.058,3.058,0,0,0-2.82-1.747,3.5,3.5,0,0,0-1.19.211,1.936,1.936,0,0,1-2.552-.9L50,6.883a.348.348,0,0,1,.236-.211h0c4.865-1.755,10.06.148,11.832,4.335.824,1.947,1.619,3.923,2.39,5.91L60.1,18.537C59.7,17.575,59.291,16.612,58.857,15.672Zm2.351,5.619,4.288-1.6c.291.782,1.1,3,1.217,3.33l-4.275,1.64C61.822,22.862,62.388,24.353,61.208,21.291Zm1.037,13.323a3.16,3.16,0,0,0,2.1-3.744c-.3-1.13-.635-2.259-.981-3.383l4.314-1.655c.739,2.19,1.456,4.388,2.117,6.582,1.311,4.344-1.473,9.121-6.336,10.878a.417.417,0,0,1-.309,0l-2.3-6.359A1.937,1.937,0,0,1,62.245,34.614Zm-6.83,37.878A1.484,1.484,0,0,0,56.9,71.009V48.754a9.64,9.64,0,0,0-9.629-9.629H40.742a1.74,1.74,0,0,1-1.736-1.75V33.056a14.2,14.2,0,0,0,3.145-8.042,28.949,28.949,0,0,0,2.412-13.747C44.35,8.1,41.741,5.509,37.407,4.172c-5.988-1.846-14.332-1-18.508,3.471a4.642,4.642,0,0,0-3.353,1.109c-1.153,1.061-1.587,2.7-1.288,4.877a31.467,31.467,0,0,0,4.289,11.422,14.282,14.282,0,0,0,2.062,6.465v5.859a1.757,1.757,0,0,1-1.75,1.75h-6.41A9.64,9.64,0,0,0,2.82,48.754V71.009a1.484,1.484,0,0,0,2.967,0V48.754a6.669,6.669,0,0,1,6.661-6.662h2.675l6.648,9.067a1.484,1.484,0,0,0,2.246.172l.2-.2.866,4.292a1.474,1.474,0,0,0,1.023,1.115l-.914,14.509a1.484,1.484,0,0,0,1.387,1.574,1.468,1.468,0,0,0,1.574-1.387l.921-14.62h1.891l.921,14.62a1.484,1.484,0,0,0,2.962-.187l-.913-14.5a1.469,1.469,0,0,0,1.088-1.126l.808-4a1.469,1.469,0,0,0,.906.339c.038,0,.077,0,.116,0a1.484,1.484,0,0,0,1.079-.6l6.662-9.069H47.27a6.669,6.669,0,0,1,6.661,6.662V71.009A1.484,1.484,0,0,0,55.415,72.492ZM36.421,31.534a8.1,8.1,0,0,1-6.058,2.839,8.46,8.46,0,0,1-6.94-3.911,11.358,11.358,0,0,1-1.973-6.119s0-.009,0-.014c.013-.087.027-.168.04-.285,0,0,0,0,0-.006l.235-1.917a22.834,22.834,0,0,0-.22-4.131A2.548,2.548,0,0,1,24.029,15.2c3.579-.019,8.575-.047,12.237-.08a3.149,3.149,0,0,1,2.265.981,2.572,2.572,0,0,1,.685,1.852c-.063,1.339-.083,2.626-.059,3.8C39.158,24.8,39.543,28.065,36.421,31.534Zm-.37,6.01-6.2,4.09-6.291-4.15c0-.038.015-.072.015-.11V34.917a10.885,10.885,0,0,0,6.788,2.424A10.687,10.687,0,0,0,36.039,35.7v1.678C36.039,37.432,36.049,37.487,36.051,37.545Zm-16.1-23.5a5.529,5.529,0,0,0-1.4,4.226c0,.028.006.057.008.084A23.7,23.7,0,0,1,17.2,13.226a2.771,2.771,0,0,1,.351-2.284,1.712,1.712,0,0,1,1.137-.335,2.7,2.7,0,0,1,.506.043,1.491,1.491,0,0,0,1.491-.532C23.8,6.14,31.342,5.408,36.532,7.008,38,7.46,41.423,8.8,41.6,11.467a25.912,25.912,0,0,1-.03,3.853,5.559,5.559,0,0,0-.864-1.236,5.964,5.964,0,0,0-4.47-1.933c-3.658.033-8.65.061-12.226.08A5.531,5.531,0,0,0,19.948,14.047ZM23.142,48.01,18.8,42.092h.055a4.725,4.725,0,0,0,3.652-1.745l5,3.3Zm9.212,5.637h-4.6l-1.015-5.028.2-.2,2.913-2.907,1.906,1.9L33.3,48.954Zm4.205-5.63-4.365-4.372,4.935-3.255c.023.028.054.048.077.075a4.74,4.74,0,0,0,3.536,1.627h.17Z" transform="matrix(0.985, -0.174, 0.174, 0.985, 1541.86, 735.654)" fill="#86ed18"/>
  </g>
</svg>
