<svg id="fordere-icon" xmlns="http://www.w3.org/2000/svg" xmlns:xlink="http://www.w3.org/1999/xlink" width="107.476" height="99" viewBox="0 0 107.476 99">
  <defs>
    <clipPath id="clip-path">
      <rect id="Rectangle_299" data-name="Rectangle 299" width="107.476" height="99" fill="#9fea4d"/>
    </clipPath>
  </defs>
  <g id="Group_138" data-name="Group 138" clip-path="url(#clip-path)">
    <path id="Path_212" data-name="Path 212" d="M53.738,0a2.515,2.515,0,0,0-2.56,2.56V37.552a2.56,2.56,0,0,0,5.121,0V22.19H79.342a2.573,2.573,0,0,0,2.39-1.623,2.488,2.488,0,0,0-.6-2.815A9.078,9.078,0,0,1,78.4,11.095a9.5,9.5,0,0,1,2.816-6.744,2.636,2.636,0,0,0,.512-2.729A2.571,2.571,0,0,0,79.342,0ZM56.3,5.121H74.562a14.58,14.58,0,0,0,0,11.948H56.3Zm-2.56,42.715a2.537,2.537,0,0,0-1.707.64L.824,94.562a2.537,2.537,0,1,0,3.414,3.753l49.5-44.548L70.3,68.7l-8.022,7.254-6.828-6.145-.085-.087c-.085-.085-.171-.084-.256-.169a.264.264,0,0,0-.171-.085c-.085,0-.171-.085-.256-.085s-.171-.087-.256-.087a.314.314,0,0,1-.256-.085H53.141a.314.314,0,0,0-.256.085c-.085,0-.171.087-.256.087s-.171.085-.256.085a.3.3,0,0,0-.171.085c-.085.085-.171.084-.256.169l-.085.087-6.828,6.145-2.56-2.3a2.537,2.537,0,1,0-3.414,3.753l4.267,3.841a3.627,3.627,0,0,0,1.878.684,2.713,2.713,0,0,0,1.707-.684L53.738,75.1l6.828,6.143a2.471,2.471,0,0,0,3.414,0l10.156-9.13,29.1,26.2a2.713,2.713,0,0,0,1.707.684,2.42,2.42,0,0,0,1.878-.853,2.553,2.553,0,0,0-.171-3.584L55.445,48.476a2.534,2.534,0,0,0-1.707-.64" transform="translate(0)" fill="#9fea4d"/>
  </g>
</svg>
