<svg xmlns="http://www.w3.org/2000/svg" width="124.536" height="124.536" viewBox="0 0 124.536 124.536">
  <g id="Group_202" data-name="Group 202" transform="matrix(0.978, -0.208, 0.208, 0.978, -418.325, -41.58)">
    <path id="Path_660" data-name="Path 660" d="M52.5,0A52.5,52.5,0,1,1,0,52.5,52.5,52.5,0,0,1,52.5,0Z" transform="translate(396 149)" fill="#161616"/>
    <path id="icons8-daumen-hoch" d="M40.353,3l-.945.851L18.9,24.174H5v48.4H55.95a9.124,9.124,0,0,0,8.886-7.184l6.522-30.249a9.142,9.142,0,0,0-8.886-10.965H45.08l.567-2.269a6.908,6.908,0,0,0,1.891-1.891,15.038,15.038,0,0,0,2.836-8.98c0-4.313-3.9-8.035-8.791-8.035Zm2.174,6.333c1.276.248,1.8.768,1.8,1.7a8.891,8.891,0,0,1-1.607,5.483,4.3,4.3,0,0,1-1.323,1.323l-1.04.567-.378,1.229-1.8,6.806-.945,3.781H62.473A2.966,2.966,0,0,1,65.4,33.91L58.975,64.159a3.045,3.045,0,0,1-3.025,2.363h-32.8V28.428ZM11.05,30.224H17.1v36.3H11.05Z" transform="translate(413.199 158.428)" fill="#86ed18"/>
  </g>
</svg>
