<svg width="444" height="126" viewBox="0 0 444 126" fill="none" xmlns="http://www.w3.org/2000/svg">
<g clip-path="url(#clip0_1_2)">
<path d="M140.91 17.58C142.751 17.548 144.578 17.8946 146.28 18.5981C147.981 19.3017 149.52 20.3472 150.8 21.67C152.122 22.9512 153.167 24.4899 153.87 26.191C154.574 27.8921 154.921 29.7194 154.89 31.56V34.43C154.89 38.143 153.415 41.704 150.789 44.3295C148.164 46.955 144.603 48.43 140.89 48.43H130.25C130.158 48.4288 130.066 48.4119 129.98 48.38L129.76 48.25C129.694 48.2037 129.636 48.1462 129.59 48.08C129.537 48.0125 129.494 47.9386 129.46 47.86C129.428 47.77 129.411 47.6754 129.41 47.58V18.37C129.406 18.2623 129.427 18.1552 129.47 18.0566C129.513 17.9579 129.578 17.8703 129.66 17.8C129.821 17.6538 130.032 17.5751 130.25 17.58H140.91ZM149.44 34.43V31.56C149.443 29.2941 148.546 27.1199 146.946 25.5148C145.347 23.9098 143.176 23.0053 140.91 23H134.91V42.91H140.91C142.026 42.9245 143.133 42.7121 144.165 42.2858C145.196 41.8595 146.13 41.2281 146.91 40.43C147.717 39.656 148.356 38.7235 148.787 37.6911C149.217 36.6586 149.429 35.5484 149.41 34.43H149.44Z" fill="white"/>
<path d="M178.29 35.87C180.84 39.267 182.417 43.2945 182.85 47.52C182.869 47.631 182.862 47.7449 182.829 47.8526C182.796 47.9603 182.738 48.0587 182.66 48.14C182.585 48.2263 182.493 48.2959 182.39 48.3441C182.287 48.3924 182.174 48.4182 182.06 48.42H178.19C178.084 48.4223 177.979 48.4031 177.881 48.3635C177.783 48.324 177.694 48.265 177.62 48.19C177.475 48.0512 177.38 47.8684 177.35 47.67C177.05 44.23 175.48 40.7933 172.64 37.36H167V47.57C167 47.7937 166.912 48.0084 166.755 48.1675C166.597 48.3267 166.384 48.4174 166.16 48.42H162.34C162.115 48.4184 161.9 48.3286 161.74 48.17C161.584 48.0094 161.498 47.7938 161.5 47.57V18.37C161.497 18.2634 161.517 18.1574 161.559 18.0591C161.6 17.9608 161.662 17.8725 161.74 17.8C161.905 17.6532 162.119 17.5746 162.34 17.58H173.1C174.361 17.5747 175.61 17.8183 176.776 18.2968C177.942 18.7752 179.003 19.4792 179.896 20.3682C180.79 21.2573 181.5 22.314 181.984 23.4777C182.469 24.6415 182.719 25.8894 182.72 27.15V27.79C182.728 29.4037 182.318 30.9919 181.53 32.4C180.752 33.8021 179.643 34.9932 178.3 35.87H178.29ZM177.29 27.79V27.15C177.298 26.6095 177.195 26.0731 176.987 25.5742C176.778 25.0753 176.47 24.6245 176.08 24.25C175.696 23.8446 175.232 23.5239 174.717 23.3086C174.202 23.0934 173.648 22.9882 173.09 23H167V31.88H173.1C173.833 31.8872 174.553 31.6898 175.18 31.31C175.801 30.9358 176.32 30.4136 176.69 29.79C177.061 29.1889 177.259 28.4966 177.26 27.79H177.29Z" fill="white"/>
<path d="M192.12 42.66C192.232 42.6597 192.342 42.6817 192.445 42.7246C192.548 42.7675 192.642 42.8306 192.72 42.91C192.879 43.0696 192.968 43.285 192.97 43.51V47.57C192.968 47.795 192.879 48.0104 192.72 48.17C192.642 48.2494 192.548 48.3125 192.445 48.3554C192.342 48.3983 192.232 48.4203 192.12 48.42H188.31C188.085 48.42 187.868 48.3305 187.709 48.171C187.55 48.0116 187.46 47.7954 187.46 47.57V43.51C187.46 43.2846 187.55 43.0684 187.709 42.909C187.868 42.7496 188.085 42.66 188.31 42.66H192.12Z" fill="white"/>
<path d="M224.3 31.81C229.22 33.63 231.683 36.2233 231.69 39.59C231.682 40.8433 231.397 42.0795 230.856 43.21C230.315 44.3406 229.531 45.3377 228.56 46.13C226.482 47.9792 223.781 48.9725 221 48.91C219.221 48.8557 217.462 48.5181 215.79 47.91C213.9 47.3034 212.137 46.3543 210.59 45.11C210.496 45.0548 210.419 44.9757 210.367 44.8808C210.314 44.7859 210.287 44.6786 210.29 44.57C210.293 44.3304 210.381 44.0997 210.54 43.92C211.63 42.73 212.54 41.81 213.16 41.15C213.215 41.0589 213.291 40.982 213.381 40.9255C213.471 40.869 213.574 40.8345 213.68 40.8247C213.786 40.815 213.893 40.8303 213.992 40.8694C214.091 40.9086 214.179 40.9704 214.25 41.05C214.776 41.4434 215.342 41.7787 215.94 42.05C216.535 42.3325 217.146 42.5796 217.77 42.79C218.338 42.9819 218.92 43.1323 219.51 43.24C220.001 43.3331 220.5 43.3833 221 43.39C221.676 43.3947 222.349 43.3038 223 43.12C223.59 42.9512 224.15 42.6914 224.66 42.35C225.126 42.0331 225.515 41.6164 225.8 41.13C226.08 40.6582 226.225 40.1186 226.22 39.57C226.22 39.07 225.84 38.57 225.08 38.13C223.469 37.3311 221.797 36.6623 220.08 36.13C217.888 35.4527 215.803 34.4661 213.89 33.2C212.763 32.4531 211.841 31.4358 211.209 30.2409C210.577 29.0461 210.254 27.7118 210.27 26.36C210.272 25.1309 210.56 23.9191 211.11 22.82C211.664 21.6842 212.431 20.6656 213.37 19.82C214.378 18.9498 215.537 18.2719 216.79 17.82C218.144 17.3055 219.581 17.0445 221.03 17.05C222.087 17.0676 223.139 17.1949 224.17 17.43C225.463 17.7077 226.721 18.1304 227.92 18.69C229.16 19.2337 230.326 19.9326 231.39 20.77C231.484 20.8293 231.561 20.9102 231.617 21.0059C231.673 21.1016 231.705 21.2094 231.71 21.32C231.717 21.4359 231.702 21.5521 231.664 21.662C231.626 21.7718 231.567 21.8731 231.49 21.96L228.76 24.79C228.704 24.8659 228.632 24.9292 228.55 24.9758C228.467 25.0224 228.376 25.0513 228.282 25.0608C228.188 25.0702 228.093 25.0598 228.003 25.0304C227.913 25.001 227.83 24.9532 227.76 24.89C225.792 23.4551 223.435 22.653 221 22.59C219.683 22.5569 218.389 22.9381 217.3 23.68C216.827 23.967 216.435 24.3704 216.162 24.8518C215.889 25.3332 215.743 25.8765 215.74 26.43C215.74 27.54 216.44 28.49 217.82 29.28C218.416 29.6242 219.038 29.9217 219.68 30.17C220.36 30.44 221.21 30.75 222.24 31.11C223.27 31.47 223.94 31.71 224.24 31.81H224.3Z" fill="white"/>
<path d="M264.16 47.28C264.209 47.4098 264.226 47.5497 264.208 47.6874C264.191 47.8251 264.14 47.9565 264.06 48.07C263.982 48.1821 263.877 48.2728 263.754 48.3339C263.632 48.395 263.497 48.4246 263.36 48.42H259.25C259.083 48.4256 258.918 48.3742 258.784 48.2743C258.649 48.1744 258.553 48.0319 258.51 47.87L255.88 41H243.88L241.25 47.84C241.207 48.0019 241.111 48.1444 240.976 48.2443C240.842 48.3442 240.677 48.3956 240.51 48.39H236.39C236.255 48.393 236.121 48.3626 236.001 48.3015C235.881 48.2404 235.777 48.1506 235.7 48.04C235.62 47.9265 235.569 47.7952 235.552 47.6574C235.534 47.5197 235.551 47.3798 235.6 47.25C236.227 45.63 238.12 40.6633 241.28 32.35C244.44 24.0367 246.267 19.27 246.76 18.05C246.809 17.8955 246.909 17.7621 247.043 17.6714C247.177 17.5807 247.338 17.5379 247.5 17.55H252.26C252.422 17.5379 252.583 17.5807 252.717 17.6714C252.851 17.7621 252.951 17.8955 253 18.05L258.41 32.17C261.577 40.47 263.493 45.4967 264.16 47.25V47.28ZM246 35.53H253.84L249.92 25.26L246 35.53Z" fill="white"/>
<path d="M291.77 17.58C291.875 17.5742 291.981 17.5907 292.079 17.6284C292.178 17.666 292.267 17.724 292.341 17.7985C292.416 17.8731 292.474 17.9625 292.512 18.061C292.549 18.1594 292.566 18.2647 292.56 18.37V47.57C292.565 47.7907 292.487 48.0052 292.34 48.17C292.268 48.2495 292.18 48.3129 292.082 48.356C291.984 48.3991 291.877 48.4209 291.77 48.42H286.47C286.315 48.4246 286.162 48.3847 286.029 48.3049C285.896 48.2252 285.789 48.1089 285.72 47.97L274.87 27.74V47.57C274.87 47.7954 274.78 48.0116 274.621 48.171C274.462 48.3304 274.245 48.42 274.02 48.42H270.21C270.098 48.4203 269.988 48.3983 269.885 48.3554C269.782 48.3125 269.688 48.2494 269.61 48.17C269.451 48.0104 269.362 47.795 269.36 47.57V18.37C269.359 18.2627 269.381 18.1565 269.424 18.0582C269.467 17.96 269.53 17.872 269.61 17.8C269.774 17.6523 269.989 17.5735 270.21 17.58H275.31C275.453 17.5692 275.596 17.6016 275.721 17.6728C275.846 17.7441 275.947 17.8511 276.01 17.98L287.11 38.3V18.37C287.104 18.2647 287.121 18.1594 287.158 18.061C287.196 17.9625 287.254 17.8731 287.329 17.7985C287.403 17.724 287.493 17.666 287.591 17.6284C287.689 17.5907 287.795 17.5742 287.9 17.58H291.77Z" fill="white"/>
<path d="M312 17.58C315.713 17.58 319.274 19.055 321.899 21.6805C324.525 24.306 326 27.867 326 31.58V34.45C326 38.163 324.525 41.724 321.899 44.3495C319.274 46.975 315.713 48.45 312 48.45H301.29C301.198 48.4499 301.106 48.4329 301.02 48.4C300.939 48.3649 300.862 48.3213 300.79 48.27L300.62 48.1C300.57 48.0324 300.53 47.9584 300.5 47.88C300.463 47.7914 300.446 47.6959 300.45 47.6V18.37C300.447 18.2634 300.467 18.1574 300.509 18.0591C300.55 17.9608 300.612 17.8725 300.69 17.8C300.855 17.6532 301.069 17.5746 301.29 17.58H312ZM320.52 34.43V31.56C320.523 29.2959 319.627 27.1231 318.03 25.5184C316.433 23.9136 314.264 23.0079 312 23H306V42.91H312C313.116 42.9251 314.223 42.713 315.255 42.2867C316.286 41.8603 317.22 41.2286 318 40.43C318.807 39.656 319.446 38.7236 319.877 37.6911C320.307 36.6586 320.519 35.5484 320.5 34.43H320.52Z" fill="white"/>
<path d="M349.33 35.87C351.872 39.2717 353.447 43.2968 353.89 47.52C353.907 47.6318 353.898 47.746 353.863 47.8535C353.828 47.9611 353.769 48.0592 353.69 48.14C353.618 48.2271 353.528 48.2973 353.426 48.3457C353.324 48.394 353.213 48.4194 353.1 48.42H349.23C349.124 48.4223 349.019 48.4031 348.921 48.3635C348.823 48.324 348.734 48.2649 348.66 48.19C348.515 48.0512 348.42 47.8684 348.39 47.67C348.09 44.23 346.52 40.7933 343.68 37.36H338V47.57C338.002 47.7938 337.916 48.0094 337.76 48.17C337.6 48.3286 337.385 48.4184 337.16 48.42H333.34C333.116 48.4174 332.903 48.3267 332.745 48.1675C332.588 48.0084 332.5 47.7937 332.5 47.57V18.37C332.496 18.2623 332.517 18.1552 332.56 18.0566C332.603 17.9579 332.668 17.8703 332.75 17.8C332.91 17.652 333.122 17.573 333.34 17.58H344.1C345.361 17.5721 346.612 17.8139 347.779 18.2914C348.947 18.7689 350.008 19.4727 350.902 20.3623C351.797 21.2519 352.506 22.3096 352.989 23.4746C353.473 24.6395 353.721 25.8887 353.72 27.15V27.79C353.728 29.4037 353.318 30.9919 352.53 32.4C351.755 33.8017 350.65 34.9929 349.31 35.87H349.33ZM348.33 27.79V27.15C348.333 26.6093 348.227 26.0735 348.017 25.575C347.807 25.0766 347.499 24.6258 347.11 24.25C346.726 23.8446 346.262 23.5239 345.747 23.3086C345.232 23.0934 344.678 22.9882 344.12 23H338V31.88H344.1C344.833 31.8882 345.554 31.6907 346.18 31.31C346.804 30.9361 347.326 30.414 347.7 29.79C348.071 29.1889 348.269 28.4966 348.27 27.79H348.33Z" fill="white"/>
<path d="M385.72 32.25V33.74C385.72 39.43 384.39 43.47 381.72 45.89C379.6 47.7967 376.6 48.7967 372.72 48.89H372.62C368.747 48.79 365.747 47.79 363.62 45.89C360.98 43.47 359.62 39.43 359.62 33.74V32.25C359.62 26.57 360.953 22.5233 363.62 20.11C365.74 18.1633 368.74 17.1633 372.62 17.11H372.72C376.58 17.1833 379.58 18.1833 381.72 20.11C384.387 22.5233 385.72 26.57 385.72 32.25ZM380.21 33.74V32.25C380.241 30.589 380.094 28.9294 379.77 27.3C379.514 26.1002 378.896 25.0078 378 24.17C376.913 23.1767 375.147 22.65 372.7 22.59C370.25 22.65 368.47 23.18 367.34 24.17C366.457 25.0091 365.859 26.1036 365.63 27.3C365.319 28.931 365.178 30.5899 365.21 32.25V33.74C365.21 35.06 365.21 36.17 365.34 37.06C365.419 37.9619 365.628 38.8477 365.96 39.69C366.254 40.4947 366.726 41.2227 367.34 41.82C368.47 42.82 370.25 43.34 372.7 43.41C375.15 43.48 376.91 42.81 378 41.82C378.621 41.226 379.096 40.4972 379.39 39.69C379.715 38.8442 379.93 37.9604 380.03 37.06C380.14 35.9569 380.19 34.8486 380.18 33.74H380.21Z" fill="white"/>
<path d="M414.72 41.82C414.83 41.8497 414.93 41.9065 415.012 41.9851C415.094 42.0637 415.156 42.1617 415.19 42.27C415.235 42.3708 415.258 42.4798 415.258 42.59C415.258 42.7002 415.235 42.8092 415.19 42.91C414.403 44.7104 413.093 46.2328 411.43 47.28C409.34 48.4431 406.97 49.0071 404.58 48.91C401.637 49.0255 398.745 48.1133 396.4 46.33C393.067 43.7233 391.417 39.27 391.45 32.97C391.483 26.67 393.133 22.2167 396.4 19.61C398.592 18.1331 401.14 17.2715 403.778 17.1149C406.417 16.9584 409.049 17.5127 411.4 18.72C413.045 19.7483 414.352 21.2364 415.16 23C415.204 23.1061 415.227 23.22 415.227 23.335C415.227 23.45 415.204 23.5639 415.16 23.67C415.119 23.7771 415.056 23.8744 414.975 23.9554C414.894 24.0364 414.797 24.0994 414.69 24.14L411.12 25.58C411.032 25.6269 410.936 25.655 410.836 25.6626C410.737 25.6703 410.637 25.6572 410.543 25.6243C410.449 25.5914 410.363 25.5394 410.29 25.4715C410.217 25.4037 410.159 25.3214 410.12 25.23C409.16 23.45 407.307 22.56 404.56 22.56C402.857 22.4585 401.168 22.9264 399.76 23.89C399.095 24.4214 398.544 25.0812 398.14 25.83C397.716 26.6272 397.425 27.4887 397.28 28.38C397.132 29.1431 397.032 29.9145 396.98 30.69C396.98 31.28 396.93 32.03 396.93 32.94C396.93 33.85 396.93 34.61 396.98 35.22C397.031 36.0022 397.132 36.7803 397.28 37.55C397.423 38.4356 397.714 39.2908 398.14 40.08C398.546 40.8188 399.093 41.471 399.75 42C401.143 43.0014 402.838 43.4923 404.55 43.39C407.303 43.39 409.157 42.4967 410.11 40.71C410.151 40.6196 410.209 40.5383 410.282 40.4713C410.355 40.4043 410.441 40.3528 410.535 40.32C410.628 40.2873 410.728 40.274 410.827 40.2808C410.925 40.2877 411.022 40.3146 411.11 40.36L414.68 41.8L414.72 41.82Z" fill="white"/>
<path d="M443.42 47.08C443.515 47.2063 443.572 47.3565 443.586 47.5136C443.601 47.6708 443.571 47.8289 443.5 47.97C443.432 48.1138 443.322 48.2338 443.185 48.3141C443.047 48.3943 442.889 48.4313 442.73 48.42H437.92C437.791 48.4208 437.664 48.3891 437.55 48.328C437.437 48.2668 437.34 48.1781 437.27 48.07L427.71 35.33L426.71 36.57V47.57C426.712 47.7938 426.626 48.0094 426.47 48.17C426.31 48.3286 426.095 48.4184 425.87 48.42H422.05C421.826 48.4174 421.613 48.3267 421.455 48.1675C421.298 48.0084 421.21 47.7937 421.21 47.57V18.37C421.206 18.2623 421.227 18.1552 421.27 18.0566C421.314 17.9579 421.378 17.8703 421.46 17.8C421.62 17.652 421.832 17.573 422.05 17.58H425.87C426.017 17.5726 426.162 17.6073 426.29 17.68C426.418 17.7476 426.522 17.8521 426.59 17.98C426.666 18.0962 426.707 18.2313 426.71 18.37V28C431.41 22.38 434.237 19.01 435.19 17.89C435.261 17.798 435.352 17.7232 435.456 17.6712C435.56 17.6193 435.674 17.5915 435.79 17.59H440.79C440.943 17.5865 441.094 17.6295 441.223 17.7134C441.351 17.7973 441.451 17.9181 441.51 18.06C441.586 18.1988 441.615 18.3582 441.593 18.5147C441.571 18.6713 441.5 18.8168 441.39 18.93L431.33 31C437.33 39.04 441.36 44.3967 443.42 47.07V47.08Z" fill="white"/>
<path d="M130.49 98.19C130.591 98.1914 130.687 98.2307 130.76 98.3C130.802 98.3356 130.835 98.3802 130.858 98.4303C130.88 98.4805 130.891 98.535 130.89 98.59V111.59C130.891 111.645 130.88 111.7 130.858 111.75C130.835 111.8 130.802 111.844 130.76 111.88C130.687 111.949 130.591 111.989 130.49 111.99H129.81C129.758 111.991 129.707 111.982 129.659 111.963C129.611 111.944 129.567 111.916 129.53 111.88C129.491 111.842 129.461 111.797 129.44 111.747C129.42 111.697 129.409 111.644 129.41 111.59V98.59C129.409 98.5361 129.42 98.4826 129.44 98.4327C129.461 98.3829 129.491 98.3378 129.53 98.3C129.567 98.264 129.611 98.2358 129.659 98.2169C129.707 98.198 129.758 98.1889 129.81 98.19H130.49Z" fill="white"/>
<path d="M140.28 101.79C140.739 101.795 141.187 101.922 141.58 102.16C141.972 102.397 142.293 102.736 142.51 103.14C143.084 104.253 143.353 105.499 143.29 106.75V111.58C143.293 111.633 143.285 111.687 143.265 111.736C143.246 111.786 143.217 111.832 143.179 111.869C143.142 111.907 143.096 111.936 143.046 111.955C142.997 111.975 142.943 111.983 142.89 111.98H142.22C142.113 111.982 142.009 111.942 141.93 111.87C141.893 111.832 141.864 111.786 141.845 111.736C141.826 111.687 141.818 111.633 141.82 111.58V106.12C141.82 105.98 141.82 105.79 141.82 105.56C141.808 105.375 141.785 105.192 141.75 105.01C141.75 104.88 141.69 104.73 141.64 104.57C141.594 104.418 141.526 104.273 141.44 104.14C141.298 103.881 141.09 103.664 140.837 103.512C140.584 103.359 140.295 103.276 140 103.27C139.52 103.257 139.045 103.367 138.62 103.59C138.228 103.783 137.886 104.063 137.62 104.41C137.353 104.76 137.147 105.152 137.01 105.57V111.57C137.009 111.625 136.997 111.678 136.974 111.728C136.952 111.778 136.92 111.823 136.88 111.86C136.802 111.928 136.703 111.967 136.6 111.97H135.93C135.878 111.971 135.827 111.962 135.779 111.943C135.731 111.924 135.687 111.896 135.65 111.86C135.611 111.822 135.581 111.777 135.56 111.727C135.54 111.677 135.529 111.624 135.53 111.57V98.23C135.533 98.1247 135.575 98.0244 135.65 97.95C135.724 97.8755 135.825 97.8325 135.93 97.83H136.6C136.654 97.8282 136.708 97.838 136.758 97.8587C136.808 97.8794 136.853 97.9105 136.89 97.95C136.929 97.9851 136.96 98.0283 136.981 98.0767C137.002 98.1251 137.012 98.1774 137.01 98.23V103.69L137.11 103.52C137.459 102.988 137.935 102.551 138.496 102.248C139.056 101.946 139.683 101.789 140.32 101.79H140.28Z" fill="white"/>
<path d="M152.6 101.82C152.695 101.828 152.784 101.871 152.85 101.94C152.886 101.977 152.915 102.021 152.934 102.069C152.953 102.117 152.962 102.168 152.96 102.22V102.93C152.961 102.994 152.947 103.057 152.919 103.114C152.891 103.171 152.85 103.221 152.8 103.26C152.751 103.298 152.694 103.324 152.633 103.336C152.572 103.348 152.51 103.346 152.45 103.33C152.32 103.29 152.186 103.27 152.05 103.27C151.569 103.268 151.102 103.434 150.73 103.74C150.319 104.045 149.952 104.405 149.64 104.81C149.363 105.169 149.147 105.571 149 106V111.61C149.001 111.664 148.99 111.717 148.97 111.767C148.949 111.817 148.919 111.862 148.88 111.9C148.802 111.968 148.703 112.007 148.6 112.01H148C147.947 112.013 147.893 112.005 147.844 111.985C147.794 111.966 147.748 111.937 147.711 111.899C147.673 111.862 147.644 111.816 147.625 111.766C147.605 111.717 147.597 111.663 147.6 111.61V102.46C147.597 102.407 147.605 102.353 147.625 102.304C147.644 102.254 147.673 102.208 147.711 102.171C147.748 102.133 147.794 102.104 147.844 102.085C147.893 102.065 147.947 102.057 148 102.06H148.67C148.723 102.057 148.777 102.065 148.826 102.085C148.876 102.104 148.922 102.133 148.959 102.171C148.997 102.208 149.026 102.254 149.045 102.304C149.065 102.353 149.073 102.407 149.07 102.46V103.72C149.102 103.661 149.139 103.604 149.18 103.55C149.526 103.017 150 102.579 150.56 102.277C151.119 101.975 151.744 101.818 152.38 101.82C152.466 101.809 152.554 101.809 152.64 101.82H152.6Z" fill="white"/>
<path d="M164 106.52V107.34C164.001 107.395 163.99 107.45 163.968 107.5C163.945 107.55 163.912 107.594 163.87 107.63C163.797 107.699 163.701 107.739 163.6 107.74H157.19C157.18 108.167 157.254 108.592 157.408 108.99C157.563 109.388 157.794 109.752 158.09 110.06C158.823 110.57 159.71 110.81 160.6 110.74C161.272 110.74 161.928 110.534 162.48 110.15C162.512 110.11 162.552 110.078 162.598 110.056C162.644 110.034 162.694 110.023 162.745 110.023C162.796 110.023 162.846 110.034 162.892 110.056C162.938 110.078 162.978 110.11 163.01 110.15C163.09 110.23 163.25 110.4 163.47 110.65C163.538 110.739 163.574 110.848 163.57 110.96C163.566 111.017 163.55 111.073 163.522 111.123C163.495 111.173 163.456 111.216 163.41 111.25C162.597 111.851 161.611 112.174 160.6 112.17C159.364 112.261 158.137 111.906 157.14 111.17C156.14 110.34 155.69 108.95 155.69 106.99C155.549 105.526 155.971 104.064 156.87 102.9C157.264 102.515 157.735 102.217 158.252 102.028C158.769 101.838 159.321 101.76 159.87 101.8C160.419 101.767 160.968 101.848 161.485 102.037C162.001 102.227 162.472 102.52 162.87 102.9C163.68 103.931 164.092 105.22 164.03 106.53L164 106.52ZM157.19 106.52H162.54C162.601 105.582 162.324 104.652 161.76 103.9C161.507 103.664 161.207 103.483 160.88 103.371C160.552 103.259 160.205 103.218 159.86 103.25C159.514 103.22 159.166 103.263 158.837 103.375C158.508 103.487 158.206 103.665 157.95 103.9C157.385 104.651 157.114 105.583 157.19 106.52Z" fill="white"/>
<path d="M286.16 98C286.255 98.0424 286.333 98.1166 286.38 98.21C286.403 98.2603 286.414 98.3148 286.414 98.37C286.414 98.4252 286.403 98.4797 286.38 98.53L286.15 99.14C286.105 99.2334 286.031 99.3103 285.94 99.36C285.893 99.3822 285.842 99.3938 285.79 99.3938C285.738 99.3938 285.687 99.3822 285.64 99.36C285.152 99.1523 284.63 99.037 284.1 99.02C283.29 99.09 282.88 99.4 282.88 99.95V101.85H285.26C285.314 101.849 285.367 101.86 285.417 101.88C285.467 101.901 285.512 101.931 285.55 101.97C285.586 102.007 285.614 102.051 285.633 102.099C285.652 102.147 285.661 102.198 285.66 102.25V102.9C285.662 103.007 285.622 103.111 285.55 103.19C285.512 103.227 285.466 103.256 285.416 103.275C285.367 103.294 285.313 103.302 285.26 103.3H282.88V111.55C282.881 111.604 282.87 111.657 282.85 111.707C282.829 111.757 282.799 111.802 282.76 111.84C282.684 111.911 282.584 111.95 282.48 111.95H281.82C281.716 111.95 281.616 111.911 281.54 111.84C281.501 111.802 281.471 111.757 281.45 111.707C281.43 111.657 281.419 111.604 281.42 111.55V103.3H280.64C280.588 103.302 280.537 103.294 280.488 103.275C280.44 103.256 280.396 103.227 280.36 103.19C280.32 103.153 280.289 103.108 280.269 103.058C280.248 103.008 280.238 102.954 280.24 102.9V102.25C280.238 102.197 280.248 102.145 280.269 102.097C280.29 102.048 280.321 102.005 280.36 101.97C280.396 101.932 280.439 101.901 280.487 101.881C280.536 101.86 280.588 101.85 280.64 101.85H281.42V100C281.407 99.6888 281.463 99.3786 281.584 99.0915C281.705 98.8045 281.888 98.5479 282.12 98.34C282.635 97.872 283.304 97.6088 284 97.6C284.747 97.5998 285.487 97.7424 286.18 98.02L286.16 98Z" fill="white"/>
<path d="M296.39 112H295.71C295.606 112 295.506 111.961 295.43 111.89C295.391 111.852 295.361 111.807 295.34 111.757C295.32 111.707 295.309 111.654 295.31 111.6V110.34L295.21 110.5C294.862 111.034 294.386 111.472 293.825 111.774C293.265 112.076 292.637 112.233 292 112.23C291.391 112.233 290.802 112.009 290.35 111.6C289.868 111.131 289.523 110.54 289.35 109.89C289.114 109.041 289.003 108.161 289.02 107.28V102.45C289.017 102.397 289.025 102.343 289.045 102.294C289.064 102.244 289.093 102.198 289.131 102.161C289.168 102.123 289.214 102.094 289.264 102.075C289.313 102.055 289.367 102.047 289.42 102.05H290.09C290.193 102.053 290.292 102.092 290.37 102.16C290.409 102.198 290.439 102.243 290.46 102.293C290.48 102.343 290.491 102.396 290.49 102.45V108.07C290.495 108.287 290.512 108.504 290.54 108.72C290.559 108.947 290.599 109.171 290.66 109.39C290.718 109.565 290.795 109.732 290.89 109.89C291.034 110.147 291.242 110.363 291.495 110.516C291.747 110.668 292.035 110.752 292.33 110.76C292.81 110.773 293.285 110.663 293.71 110.44C294.107 110.255 294.451 109.973 294.71 109.62C294.987 109.274 295.2 108.881 295.34 108.46V102.46C295.339 102.406 295.35 102.353 295.37 102.303C295.391 102.253 295.421 102.208 295.46 102.17C295.536 102.099 295.636 102.06 295.74 102.06H296.42C296.472 102.059 296.523 102.068 296.571 102.087C296.619 102.106 296.663 102.134 296.7 102.17C296.739 102.208 296.769 102.253 296.79 102.303C296.81 102.353 296.821 102.406 296.82 102.46V111.61C296.819 111.68 296.802 111.748 296.77 111.81C296.73 111.869 296.679 111.92 296.62 111.96C296.554 111.975 296.486 111.975 296.42 111.96L296.39 112ZM290.08 98.44C290.065 98.3877 290.065 98.3323 290.08 98.28C290.094 98.233 290.122 98.1913 290.16 98.16C290.197 98.1212 290.241 98.0906 290.29 98.07C290.34 98.0605 290.39 98.0605 290.44 98.07H291.1C291.205 98.0725 291.306 98.1155 291.38 98.19C291.454 98.2644 291.497 98.3647 291.5 98.47V99.82C291.501 99.8739 291.49 99.9274 291.47 99.9773C291.449 100.027 291.419 100.072 291.38 100.11C291.343 100.146 291.299 100.174 291.251 100.193C291.203 100.212 291.152 100.221 291.1 100.22H290.44C290.386 100.221 290.333 100.21 290.285 100.188C290.236 100.165 290.194 100.132 290.16 100.09C290.123 100.056 290.093 100.014 290.072 99.9675C290.051 99.9211 290.04 99.8708 290.04 99.82V98.42L290.08 98.44ZM294.22 98.44C294.219 98.3884 294.228 98.337 294.247 98.289C294.266 98.2409 294.294 98.1971 294.33 98.16C294.368 98.1215 294.413 98.091 294.463 98.0704C294.513 98.0498 294.566 98.0394 294.62 98.04H295.29C295.344 98.0382 295.398 98.048 295.448 98.0687C295.498 98.0894 295.543 98.1205 295.58 98.16C295.616 98.1971 295.644 98.2409 295.663 98.289C295.682 98.337 295.691 98.3884 295.69 98.44V99.79C295.69 99.8968 295.651 99.9999 295.58 100.08C295.501 100.152 295.397 100.192 295.29 100.19H294.62C294.517 100.187 294.418 100.148 294.34 100.08C294.301 100.042 294.271 99.9971 294.25 99.9473C294.23 99.8974 294.219 99.8439 294.22 99.79V98.42V98.44Z" fill="white"/>
<path d="M306.26 101.82C306.358 101.828 306.45 101.871 306.52 101.94C306.555 101.977 306.582 102.021 306.599 102.07C306.617 102.118 306.624 102.169 306.62 102.22V102.93C306.622 102.992 306.609 103.054 306.583 103.11C306.557 103.167 306.519 103.216 306.47 103.255C306.422 103.294 306.365 103.321 306.304 103.334C306.243 103.347 306.18 103.346 306.12 103.33C305.99 103.29 305.856 103.27 305.72 103.27C305.239 103.268 304.772 103.434 304.4 103.74C303.989 104.045 303.622 104.405 303.31 104.81C303.043 105.16 302.837 105.552 302.7 105.97V111.58C302.701 111.635 302.69 111.69 302.668 111.74C302.645 111.79 302.612 111.834 302.57 111.87C302.497 111.939 302.401 111.979 302.3 111.98H301.62C301.516 111.98 301.416 111.941 301.34 111.87C301.301 111.832 301.271 111.787 301.25 111.737C301.23 111.687 301.219 111.634 301.22 111.58V102.43C301.219 102.376 301.23 102.323 301.25 102.273C301.271 102.223 301.301 102.178 301.34 102.14C301.416 102.069 301.516 102.03 301.62 102.03H302.3C302.352 102.029 302.403 102.038 302.451 102.057C302.499 102.076 302.543 102.104 302.58 102.14C302.618 102.178 302.649 102.223 302.67 102.273C302.69 102.323 302.701 102.376 302.7 102.43V103.69C302.73 103.631 302.763 103.574 302.8 103.52C303.149 102.988 303.625 102.551 304.186 102.248C304.746 101.946 305.373 101.789 306.01 101.79C306.093 101.778 306.177 101.778 306.26 101.79V101.82Z" fill="white"/>
<path d="M325.46 98.19C325.512 98.1889 325.563 98.198 325.611 98.2169C325.659 98.2358 325.703 98.264 325.74 98.3C325.819 98.3772 325.869 98.4799 325.88 98.59V111.59C325.881 111.645 325.87 111.7 325.848 111.75C325.825 111.8 325.792 111.844 325.75 111.88C325.67 111.951 325.567 111.99 325.46 111.99H324.8C324.696 111.99 324.596 111.951 324.52 111.88C324.481 111.842 324.451 111.797 324.43 111.747C324.41 111.697 324.399 111.644 324.4 111.59V105.83H316.58V111.59C316.581 111.645 316.57 111.7 316.548 111.75C316.525 111.8 316.492 111.844 316.45 111.88C316.377 111.949 316.281 111.989 316.18 111.99H315.5C315.396 111.99 315.296 111.951 315.22 111.88C315.181 111.842 315.151 111.797 315.13 111.747C315.11 111.697 315.099 111.644 315.1 111.59V98.59C315.099 98.5361 315.11 98.4826 315.13 98.4327C315.151 98.3829 315.181 98.3378 315.22 98.3C315.296 98.2292 315.396 98.1899 315.5 98.19H316.18C316.281 98.1914 316.377 98.2307 316.45 98.3C316.492 98.3356 316.525 98.3802 316.548 98.4303C316.57 98.4805 316.581 98.535 316.58 98.59V104.35H324.4V98.59C324.399 98.5361 324.41 98.4826 324.43 98.4327C324.451 98.3829 324.481 98.3378 324.52 98.3C324.596 98.2292 324.696 98.1899 324.8 98.19H325.46Z" fill="white"/>
<path d="M338.41 106.52V107.34C338.411 107.394 338.4 107.447 338.38 107.497C338.359 107.547 338.329 107.592 338.29 107.63C338.212 107.698 338.113 107.737 338.01 107.74H331.6C331.589 108.168 331.664 108.594 331.82 108.992C331.976 109.391 332.211 109.754 332.51 110.06C333.242 110.572 334.13 110.812 335.02 110.74C335.689 110.74 336.342 110.534 336.89 110.15C336.922 110.11 336.962 110.078 337.008 110.056C337.054 110.034 337.104 110.023 337.155 110.023C337.206 110.023 337.256 110.034 337.302 110.056C337.348 110.078 337.388 110.11 337.42 110.15C337.51 110.23 337.66 110.4 337.89 110.65C337.925 110.693 337.951 110.743 337.966 110.796C337.981 110.849 337.986 110.905 337.98 110.96C337.976 111.017 337.96 111.073 337.932 111.123C337.905 111.173 337.866 111.216 337.82 111.25C337.01 111.851 336.028 112.174 335.02 112.17C333.784 112.265 332.555 111.91 331.56 111.17C330.56 110.34 330.1 108.95 330.1 106.99C329.964 105.527 330.385 104.066 331.28 102.9C331.674 102.515 332.145 102.217 332.662 102.028C333.179 101.838 333.731 101.76 334.28 101.8C334.829 101.767 335.378 101.848 335.895 102.037C336.411 102.227 336.882 102.52 337.28 102.9C338.098 103.927 338.511 105.219 338.44 106.53L338.41 106.52ZM331.6 106.52H337C337.052 105.583 336.776 104.657 336.22 103.9C335.966 103.665 335.666 103.486 335.339 103.374C335.012 103.262 334.665 103.22 334.32 103.25C333.973 103.221 333.623 103.264 333.293 103.376C332.962 103.488 332.659 103.666 332.4 103.9C331.839 104.653 331.569 105.584 331.64 106.52H331.6Z" fill="white"/>
<path d="M347.57 101.82C347.665 101.828 347.754 101.871 347.82 101.94C347.856 101.977 347.885 102.021 347.904 102.069C347.923 102.117 347.932 102.168 347.93 102.22V102.93C347.931 102.994 347.917 103.057 347.889 103.114C347.861 103.171 347.82 103.221 347.77 103.26C347.721 103.298 347.664 103.324 347.603 103.336C347.543 103.348 347.48 103.346 347.42 103.33C347.29 103.29 347.156 103.27 347.02 103.27C346.539 103.268 346.072 103.434 345.7 103.74C345.29 104.042 344.926 104.403 344.62 104.81C344.351 105.171 344.141 105.573 344 106V111.61C344.001 111.664 343.99 111.717 343.97 111.767C343.949 111.817 343.919 111.862 343.88 111.9C343.802 111.968 343.703 112.007 343.6 112.01H342.93C342.877 112.013 342.823 112.005 342.774 111.985C342.724 111.966 342.678 111.937 342.641 111.899C342.603 111.862 342.574 111.816 342.555 111.766C342.535 111.717 342.527 111.663 342.53 111.61V102.46C342.527 102.407 342.535 102.353 342.555 102.304C342.574 102.254 342.603 102.208 342.641 102.171C342.678 102.133 342.724 102.104 342.774 102.085C342.823 102.065 342.877 102.057 342.93 102.06H343.6C343.707 102.058 343.811 102.098 343.89 102.17C343.927 102.208 343.956 102.254 343.975 102.304C343.994 102.353 344.002 102.407 344 102.46V103.72C344.032 103.661 344.069 103.604 344.11 103.55C344.458 103.017 344.935 102.579 345.495 102.277C346.056 101.975 346.683 101.818 347.32 101.82C347.403 101.81 347.487 101.81 347.57 101.82Z" fill="white"/>
<path d="M358.48 103.33C358.479 103.43 358.448 103.528 358.39 103.61L352.53 110.5H358.08C358.133 110.501 358.185 110.514 358.233 110.536C358.282 110.558 358.325 110.59 358.36 110.63C358.434 110.704 358.477 110.805 358.48 110.91V111.58C358.481 111.634 358.47 111.687 358.45 111.737C358.429 111.787 358.399 111.832 358.36 111.87C358.284 111.941 358.184 111.98 358.08 111.98H351.16C351.107 111.983 351.053 111.975 351.004 111.955C350.954 111.936 350.909 111.907 350.871 111.869C350.833 111.832 350.804 111.786 350.785 111.736C350.766 111.687 350.757 111.633 350.76 111.58V110.65C350.758 110.604 350.766 110.557 350.783 110.514C350.801 110.471 350.827 110.432 350.86 110.4L356.68 103.48H351.16C351.107 103.483 351.053 103.475 351.004 103.455C350.954 103.436 350.909 103.407 350.871 103.369C350.833 103.332 350.804 103.286 350.785 103.236C350.766 103.187 350.757 103.133 350.76 103.08V102.43C350.757 102.377 350.766 102.323 350.785 102.274C350.804 102.224 350.833 102.178 350.871 102.141C350.909 102.103 350.954 102.074 351.004 102.055C351.053 102.035 351.107 102.027 351.16 102.03H358.08C358.184 102.03 358.284 102.069 358.36 102.14C358.399 102.178 358.429 102.223 358.45 102.273C358.47 102.323 358.481 102.376 358.48 102.43V103.33Z" fill="white"/>
<path d="M377.59 110.74C377.637 110.74 377.683 110.75 377.727 110.769C377.77 110.788 377.808 110.815 377.84 110.85C377.909 110.923 377.949 111.019 377.95 111.12V111.85C377.95 111.899 377.94 111.947 377.922 111.991C377.903 112.036 377.875 112.076 377.84 112.11C377.808 112.143 377.769 112.169 377.726 112.187C377.683 112.204 377.636 112.212 377.59 112.21C377.319 112.216 377.049 112.163 376.8 112.055C376.551 111.946 376.329 111.784 376.15 111.58C375.94 111.36 375.73 111.12 375.52 110.88L375.39 110.97C374.238 111.829 372.826 112.266 371.39 112.21C370.617 112.227 369.848 112.088 369.13 111.8C368.487 111.541 367.935 111.099 367.54 110.53C367.129 109.912 366.92 109.182 366.94 108.44C366.94 106.667 367.893 105.153 369.8 103.9C369.33 103.27 369 102.82 368.8 102.55C368.499 102.09 368.327 101.559 368.3 101.01C368.276 100.594 368.338 100.178 368.48 99.7864C368.623 99.3951 368.844 99.037 369.13 98.7341C369.416 98.4313 369.761 98.19 370.144 98.0251C370.526 97.8602 370.938 97.7751 371.355 97.7751C371.772 97.7751 372.184 97.8602 372.566 98.0251C372.949 98.19 373.294 98.4313 373.58 98.7341C373.866 99.037 374.087 99.3951 374.23 99.7864C374.372 100.178 374.434 100.594 374.41 101.01C374.384 101.877 374.026 102.7 373.41 103.31C373.02 103.762 372.565 104.153 372.06 104.47C372.93 105.6 374.06 106.98 375.5 108.63C375.808 108.044 375.966 107.392 375.96 106.73V106.39C375.958 106.337 375.968 106.285 375.989 106.237C376.01 106.188 376.041 106.145 376.08 106.11C376.116 106.072 376.159 106.041 376.207 106.021C376.256 106 376.308 105.99 376.36 105.99H377C377.105 105.993 377.206 106.035 377.28 106.11C377.354 106.184 377.397 106.285 377.4 106.39V106.73C377.406 107.821 377.082 108.887 376.47 109.79L377.19 110.59C377.237 110.638 377.292 110.677 377.354 110.702C377.416 110.728 377.483 110.741 377.55 110.74H377.59ZM369.76 101C369.821 101.392 369.991 101.759 370.25 102.06L371.18 103.28C371.606 103.008 371.988 102.67 372.31 102.28C372.692 101.955 372.939 101.498 373 101C372.997 100.58 372.831 100.177 372.536 99.8785C372.24 99.5795 371.84 99.4078 371.42 99.4C371.21 99.3975 371.001 99.4379 370.807 99.5188C370.612 99.5996 370.437 99.7191 370.29 99.87C370.135 100.014 370.012 100.189 369.929 100.384C369.846 100.578 369.806 100.788 369.81 101H369.76ZM374.51 109.8C372.85 107.9 371.557 106.33 370.63 105.09C370.01 105.483 369.456 105.972 368.99 106.54C368.556 107.092 368.33 107.778 368.35 108.48C368.335 108.814 368.404 109.147 368.551 109.447C368.698 109.747 368.917 110.006 369.19 110.2C369.828 110.605 370.575 110.804 371.33 110.77C372.451 110.821 373.557 110.494 374.47 109.84L374.51 109.8Z" fill="white"/>
<path d="M393.79 110.5C393.843 110.498 393.895 110.508 393.943 110.529C393.992 110.55 394.035 110.581 394.07 110.62C394.11 110.657 394.141 110.702 394.161 110.752C394.182 110.802 394.192 110.856 394.19 110.91V111.58C394.191 111.634 394.18 111.687 394.16 111.737C394.139 111.787 394.109 111.832 394.07 111.87C394.036 111.905 393.996 111.933 393.951 111.952C393.907 111.97 393.859 111.98 393.81 111.98H387.33C387.226 111.98 387.126 111.941 387.05 111.87C387.011 111.832 386.981 111.787 386.96 111.737C386.94 111.687 386.929 111.634 386.93 111.58V98.58C386.929 98.5261 386.94 98.4726 386.96 98.4227C386.981 98.3729 387.011 98.3277 387.05 98.29C387.126 98.2192 387.226 98.1799 387.33 98.18H388C388.101 98.1814 388.197 98.2207 388.27 98.29C388.312 98.3256 388.345 98.3702 388.368 98.4203C388.39 98.4705 388.401 98.525 388.4 98.58V110.5H393.79Z" fill="white"/>
<path d="M404.57 102C404.622 101.999 404.673 102.008 404.721 102.027C404.769 102.046 404.813 102.074 404.85 102.11C404.889 102.148 404.919 102.193 404.94 102.243C404.96 102.293 404.971 102.346 404.97 102.4V111.55C404.971 111.604 404.96 111.657 404.94 111.707C404.919 111.757 404.889 111.802 404.85 111.84C404.813 111.876 404.769 111.904 404.721 111.923C404.673 111.942 404.622 111.951 404.57 111.95H403.89C403.786 111.95 403.686 111.911 403.61 111.84C403.571 111.802 403.541 111.757 403.52 111.707C403.5 111.657 403.489 111.604 403.49 111.55V110.29C403.447 110.336 403.413 110.391 403.39 110.45C403.042 110.984 402.566 111.422 402.005 111.724C401.445 112.026 400.817 112.183 400.18 112.18C399.72 112.175 399.27 112.047 398.878 111.807C398.485 111.568 398.165 111.227 397.95 110.82C397.375 109.714 397.106 108.475 397.17 107.23V102.4C397.168 102.347 397.176 102.293 397.195 102.244C397.214 102.194 397.243 102.148 397.28 102.11C397.359 102.038 397.463 101.998 397.57 102H398.24C398.343 102.003 398.442 102.042 398.52 102.11C398.559 102.148 398.589 102.193 398.61 102.243C398.63 102.293 398.641 102.346 398.64 102.4V107.23C398.64 107.69 398.64 108.04 398.64 108.23C398.657 108.499 398.693 108.766 398.75 109.03C398.802 109.3 398.896 109.56 399.03 109.8C399.173 110.058 399.381 110.274 399.634 110.427C399.887 110.58 400.175 110.663 400.47 110.67C400.95 110.683 401.425 110.573 401.85 110.35C402.247 110.165 402.591 109.883 402.85 109.53C403.12 109.179 403.332 108.787 403.48 108.37V102.37C403.479 102.316 403.49 102.263 403.51 102.213C403.531 102.163 403.561 102.118 403.6 102.08C403.676 102.009 403.776 101.97 403.88 101.97L404.57 102Z" fill="white"/>
<path d="M414.19 101.79C414.649 101.795 415.097 101.922 415.49 102.16C415.882 102.397 416.203 102.736 416.42 103.14C417.002 104.251 417.275 105.498 417.21 106.75V111.58C417.211 111.634 417.2 111.687 417.18 111.737C417.159 111.787 417.129 111.832 417.09 111.87C417.011 111.942 416.907 111.982 416.8 111.98H416.13C416.078 111.981 416.027 111.972 415.979 111.953C415.931 111.934 415.887 111.906 415.85 111.87C415.811 111.832 415.781 111.787 415.76 111.737C415.74 111.687 415.729 111.634 415.73 111.58V106C415.743 105.784 415.743 105.566 415.73 105.35C415.709 105.123 415.665 104.899 415.6 104.68C415.546 104.504 415.469 104.336 415.37 104.18C415.228 103.921 415.021 103.703 414.768 103.55C414.515 103.398 414.226 103.315 413.93 103.31C413.59 103.298 413.251 103.349 412.93 103.46C412.631 103.559 412.349 103.701 412.09 103.88C411.863 104.036 411.664 104.228 411.5 104.45C411.244 104.807 411.039 105.197 410.89 105.61V111.61C410.891 111.665 410.88 111.72 410.858 111.77C410.835 111.82 410.802 111.864 410.76 111.9C410.687 111.969 410.591 112.009 410.49 112.01H409.81C409.706 112.01 409.606 111.971 409.53 111.9C409.491 111.862 409.461 111.817 409.44 111.767C409.42 111.717 409.409 111.664 409.41 111.61V102.46C409.409 102.406 409.42 102.353 409.44 102.303C409.461 102.253 409.491 102.208 409.53 102.17C409.606 102.099 409.706 102.06 409.81 102.06H410.49C410.542 102.059 410.593 102.068 410.641 102.087C410.689 102.106 410.733 102.134 410.77 102.17C410.809 102.208 410.839 102.253 410.86 102.303C410.88 102.353 410.891 102.406 410.89 102.46V103.72C410.915 103.659 410.948 103.601 410.99 103.55C411.339 103.018 411.815 102.581 412.376 102.278C412.936 101.976 413.563 101.819 414.2 101.82L414.19 101.79Z" fill="white"/>
<path d="M429.38 102.07C429.433 102.066 429.485 102.073 429.535 102.09C429.585 102.107 429.631 102.135 429.67 102.17C429.707 102.21 429.737 102.257 429.755 102.309C429.774 102.36 429.783 102.415 429.78 102.47V112.66C429.772 113.018 429.69 113.37 429.541 113.695C429.391 114.02 429.176 114.311 428.91 114.55C427.941 115.341 426.708 115.734 425.46 115.65C424.927 115.653 424.396 115.585 423.88 115.45C423.451 115.34 423.042 115.161 422.67 114.92C422.39 114.74 422.128 114.532 421.89 114.3C421.703 114.114 421.536 113.91 421.39 113.69C421.319 113.599 421.287 113.484 421.3 113.37L421.53 113.14L422.17 112.82C422.317 112.74 422.527 112.79 422.8 112.97C423.104 113.405 423.517 113.752 423.999 113.975C424.48 114.198 425.012 114.289 425.54 114.24C426.306 114.253 427.061 114.063 427.73 113.69C427.92 113.601 428.082 113.46 428.195 113.283C428.308 113.106 428.369 112.9 428.37 112.69V111.13C427.416 111.833 426.265 112.217 425.08 112.23C424.558 112.226 424.044 112.1 423.58 111.86C423.093 111.612 422.658 111.273 422.3 110.86C421.893 110.343 421.591 109.752 421.41 109.12C421.174 108.359 421.059 107.566 421.07 106.77C421.01 105.5 421.407 104.251 422.19 103.25C422.523 102.822 422.947 102.474 423.431 102.23C423.916 101.986 424.448 101.853 424.99 101.84C425.594 101.811 426.197 101.906 426.763 102.12C427.329 102.333 427.845 102.66 428.28 103.08V102.47C428.277 102.414 428.286 102.358 428.307 102.307C428.327 102.255 428.359 102.208 428.4 102.17C428.476 102.101 428.577 102.065 428.68 102.07H429.38ZM428.28 108.9H428.22V105.68C428.138 105.473 428.041 105.273 427.93 105.08C427.769 104.814 427.589 104.56 427.39 104.32C427.121 103.996 426.778 103.742 426.39 103.58C425.953 103.386 425.478 103.294 425 103.31C424.639 103.311 424.283 103.403 423.967 103.578C423.651 103.753 423.383 104.005 423.19 104.31C422.697 105.044 422.451 105.917 422.49 106.8C422.439 107.822 422.686 108.836 423.2 109.72C423.376 110.045 423.636 110.318 423.952 110.509C424.268 110.701 424.63 110.805 425 110.81C425.669 110.833 426.331 110.67 426.912 110.338C427.494 110.006 427.971 109.518 428.29 108.93L428.28 108.9Z" fill="white"/>
<path d="M442.16 106.52V107.34C442.161 107.394 442.15 107.447 442.13 107.497C442.109 107.547 442.079 107.592 442.04 107.63C441.962 107.698 441.863 107.737 441.76 107.74H435.35C435.339 108.168 435.414 108.594 435.57 108.992C435.726 109.391 435.961 109.754 436.26 110.06C436.992 110.572 437.88 110.812 438.77 110.74C439.439 110.74 440.092 110.534 440.64 110.15C440.672 110.11 440.712 110.078 440.758 110.056C440.804 110.034 440.854 110.023 440.905 110.023C440.956 110.023 441.006 110.034 441.052 110.056C441.098 110.078 441.138 110.11 441.17 110.15C441.26 110.23 441.41 110.4 441.64 110.65C441.675 110.693 441.701 110.743 441.716 110.796C441.731 110.849 441.736 110.905 441.73 110.96C441.726 111.017 441.71 111.073 441.682 111.123C441.655 111.173 441.616 111.216 441.57 111.25C440.76 111.851 439.778 112.174 438.77 112.17C437.534 112.265 436.305 111.91 435.31 111.17C434.31 110.34 433.85 108.95 433.85 106.99C433.712 105.525 434.137 104.062 435.04 102.9C435.433 102.513 435.903 102.215 436.421 102.025C436.938 101.835 437.49 101.759 438.04 101.8C438.589 101.767 439.138 101.848 439.655 102.037C440.171 102.227 440.642 102.52 441.04 102.9C441.858 103.927 442.271 105.219 442.2 106.53L442.16 106.52ZM435.35 106.52H440.71C440.761 105.583 440.486 104.657 439.93 103.9C439.676 103.665 439.376 103.486 439.049 103.374C438.722 103.262 438.375 103.22 438.03 103.25C437.683 103.221 437.333 103.264 437.003 103.376C436.672 103.488 436.369 103.666 436.11 103.9C435.549 104.653 435.279 105.584 435.35 106.52Z" fill="white"/>
<path d="M180.3 98.86C180.393 98.8626 180.481 98.898 180.55 98.96C180.584 98.9899 180.61 99.0271 180.627 99.0686C180.645 99.1101 180.652 99.1551 180.65 99.2V100.85C180.664 100.902 180.664 100.958 180.65 101.01C180.624 101.064 180.582 101.11 180.53 101.14C180.468 101.155 180.402 101.155 180.34 101.14H175.46V104.26H179.37C179.465 104.262 179.554 104.302 179.62 104.37C179.653 104.402 179.679 104.441 179.697 104.484C179.714 104.527 179.722 104.574 179.72 104.62V106.27C179.722 106.315 179.715 106.36 179.697 106.401C179.68 106.443 179.654 106.48 179.62 106.51C179.551 106.572 179.463 106.607 179.37 106.61H175.46V111.61C175.462 111.658 175.454 111.706 175.437 111.75C175.42 111.795 175.394 111.836 175.36 111.87C175.327 111.902 175.288 111.928 175.245 111.945C175.202 111.962 175.156 111.971 175.11 111.97H173.48C173.418 111.985 173.352 111.985 173.29 111.97C173.235 111.943 173.193 111.897 173.17 111.84C173.154 111.778 173.154 111.712 173.17 111.65V99.2C173.169 99.1543 173.178 99.1089 173.197 99.0673C173.216 99.0257 173.245 98.989 173.28 98.96C173.348 98.8965 173.437 98.8608 173.53 98.86H180.3Z" fill="white"/>
<path d="M191.25 111.43C191.25 111.43 191.25 111.5 191.25 111.58C191.265 111.626 191.268 111.676 191.257 111.723C191.247 111.771 191.223 111.815 191.19 111.85C191.159 111.892 191.118 111.926 191.071 111.949C191.024 111.971 190.972 111.982 190.92 111.98H189.29C189.249 111.984 189.208 111.98 189.168 111.967C189.129 111.955 189.093 111.934 189.062 111.907C189.031 111.88 189.006 111.846 188.988 111.809C188.971 111.772 188.961 111.731 188.96 111.69C188.944 111.602 188.92 111.515 188.89 111.43C188.849 111.098 188.829 110.764 188.83 110.43C188.701 110.815 188.473 111.16 188.17 111.43C187.899 111.692 187.58 111.899 187.23 112.04C186.941 112.16 186.633 112.225 186.32 112.23C185.505 112.261 184.708 111.991 184.08 111.47C183.744 111.171 183.48 110.799 183.306 110.384C183.133 109.969 183.056 109.519 183.08 109.07C183.03 108.423 183.239 107.783 183.66 107.29C184.159 106.833 184.753 106.491 185.4 106.29C186.511 105.937 187.675 105.782 188.84 105.83V104.97C188.84 104.6 188.51 104.42 187.84 104.42C187.468 104.377 187.092 104.425 186.743 104.561C186.394 104.697 186.084 104.916 185.84 105.2C185.82 105.236 185.792 105.268 185.759 105.292C185.725 105.317 185.687 105.335 185.647 105.344C185.607 105.354 185.565 105.355 185.524 105.347C185.483 105.339 185.444 105.323 185.41 105.3C185.2 105.22 184.7 105 183.9 104.65C183.856 104.631 183.817 104.602 183.786 104.565C183.755 104.529 183.732 104.486 183.72 104.44C183.695 104.394 183.683 104.342 183.683 104.29C183.683 104.238 183.695 104.186 183.72 104.14C184.108 103.496 184.674 102.978 185.35 102.65C186.098 102.265 186.929 102.069 187.77 102.08C188.636 102.036 189.486 102.322 190.15 102.88C190.453 103.135 190.694 103.456 190.855 103.818C191.016 104.18 191.093 104.574 191.08 104.97V110.51C191.08 110.845 191.107 111.179 191.16 111.51L191.25 111.43ZM188.85 108.65V107.72C188.155 107.704 187.46 107.767 186.78 107.91C186.427 107.967 186.088 108.089 185.78 108.27C185.658 108.353 185.56 108.467 185.497 108.601C185.433 108.735 185.407 108.883 185.42 109.03C185.408 109.142 185.418 109.256 185.451 109.364C185.483 109.473 185.538 109.573 185.61 109.66C185.822 109.803 186.075 109.87 186.33 109.85C186.799 109.842 187.26 109.729 187.68 109.52C188.125 109.317 188.521 109.02 188.84 108.65H188.85Z" fill="white"/>
<path d="M203.1 110.74C203.132 110.772 203.156 110.812 203.17 110.855C203.184 110.899 203.187 110.945 203.18 110.99C203.168 111.086 203.122 111.175 203.05 111.24C202.257 111.882 201.27 112.234 200.25 112.24C199.039 112.328 197.838 111.973 196.87 111.24C196.352 110.719 195.955 110.091 195.704 109.4C195.454 108.709 195.357 107.972 195.42 107.24C195.312 106.571 195.361 105.886 195.562 105.239C195.763 104.592 196.111 104.001 196.579 103.511C197.046 103.021 197.621 102.646 198.258 102.415C198.895 102.184 199.577 102.103 200.25 102.18C201.262 102.173 202.248 102.503 203.05 103.12C203.12 103.19 203.166 103.282 203.18 103.38C203.187 103.425 203.184 103.471 203.17 103.515C203.156 103.558 203.132 103.598 203.1 103.63L202 104.88C201.974 104.915 201.942 104.945 201.905 104.967C201.867 104.989 201.826 105.003 201.783 105.009C201.74 105.014 201.696 105.011 201.654 104.999C201.613 104.988 201.574 104.967 201.54 104.94C201.165 104.668 200.713 104.521 200.25 104.52C199.593 104.459 198.935 104.629 198.39 105C198.201 105.169 198.057 105.382 197.97 105.62C197.876 105.857 197.815 106.106 197.79 106.36C197.79 106.59 197.79 106.9 197.79 107.28C197.79 107.63 197.79 107.92 197.79 108.16C197.814 108.408 197.875 108.65 197.97 108.88C198.057 109.118 198.201 109.331 198.39 109.5C198.935 109.871 199.593 110.041 200.25 109.98C200.711 109.981 201.161 109.842 201.54 109.58C201.569 109.548 201.605 109.522 201.644 109.505C201.684 109.487 201.727 109.478 201.77 109.478C201.813 109.478 201.856 109.487 201.896 109.505C201.935 109.522 201.971 109.548 202 109.58C202.22 109.84 202.59 110.25 203.1 110.83V110.74Z" fill="white"/>
<path d="M212.77 102C214.77 102 215.72 103.68 215.72 106.87V111.61C215.722 111.658 215.714 111.706 215.697 111.75C215.68 111.795 215.654 111.836 215.62 111.87C215.59 111.904 215.553 111.93 215.511 111.947C215.47 111.965 215.425 111.972 215.38 111.97H213.74C213.692 111.973 213.644 111.966 213.599 111.949C213.554 111.931 213.513 111.905 213.479 111.871C213.445 111.837 213.418 111.796 213.401 111.751C213.384 111.706 213.377 111.658 213.38 111.61V106.87C213.386 106.433 213.325 105.998 213.2 105.58C213.103 105.235 212.913 104.923 212.65 104.68C212.408 104.47 212.101 104.35 211.78 104.34C211.471 104.333 211.165 104.391 210.88 104.51C210.62 104.607 210.387 104.765 210.2 104.97C210.054 105.136 209.917 105.309 209.79 105.49C209.694 105.629 209.616 105.78 209.56 105.94V111.61C209.563 111.658 209.556 111.706 209.539 111.751C209.521 111.796 209.495 111.837 209.461 111.871C209.427 111.905 209.386 111.931 209.341 111.949C209.296 111.966 209.248 111.973 209.2 111.97H207.58C207.518 111.986 207.452 111.986 207.39 111.97C207.333 111.943 207.287 111.897 207.26 111.84C207.244 111.778 207.244 111.712 207.26 111.65V98.88C207.268 98.7898 207.309 98.7058 207.375 98.6446C207.442 98.5835 207.529 98.5497 207.62 98.55H209.24C209.288 98.548 209.336 98.5558 209.38 98.573C209.425 98.5902 209.466 98.6164 209.5 98.65C209.531 98.6796 209.556 98.7153 209.573 98.7548C209.591 98.7943 209.6 98.8369 209.6 98.88V103.31C210.013 102.879 210.513 102.54 211.066 102.316C211.619 102.092 212.214 101.988 212.81 102.01L212.77 102Z" fill="white"/>
<path d="M221.36 101.08C221.314 101.081 221.269 101.072 221.227 101.053C221.186 101.034 221.149 101.005 221.12 100.97C221.056 100.902 221.021 100.813 221.02 100.72V99C221.021 98.9071 221.056 98.8178 221.12 98.75C221.149 98.7146 221.186 98.6862 221.227 98.6672C221.269 98.6481 221.314 98.6388 221.36 98.64H223C223.046 98.6402 223.09 98.6501 223.132 98.6691C223.173 98.6881 223.21 98.7156 223.24 98.75C223.3 98.8193 223.332 98.9084 223.33 99V100.73C223.332 100.822 223.3 100.911 223.24 100.98C223.21 101.014 223.173 101.042 223.132 101.061C223.09 101.08 223.046 101.09 223 101.09L221.36 101.08ZM227.88 110.44C227.88 110.775 227.907 111.109 227.96 111.44C227.96 111.44 227.96 111.44 227.96 111.52C227.964 111.543 227.964 111.567 227.96 111.59C227.975 111.636 227.978 111.686 227.967 111.733C227.957 111.781 227.933 111.825 227.9 111.86C227.869 111.902 227.828 111.936 227.781 111.959C227.734 111.981 227.682 111.992 227.63 111.99H226C225.958 111.994 225.917 111.99 225.877 111.977C225.837 111.965 225.8 111.944 225.768 111.917C225.737 111.89 225.711 111.857 225.692 111.82C225.673 111.782 225.662 111.742 225.66 111.7C225.651 111.611 225.63 111.524 225.6 111.44C225.56 111.108 225.54 110.774 225.54 110.44C225.44 110.725 225.283 110.987 225.08 111.21C224.892 111.431 224.669 111.621 224.42 111.77C224.192 111.905 223.951 112.015 223.7 112.1C223.483 112.168 223.257 112.205 223.03 112.21C222.215 112.241 221.418 111.971 220.79 111.45C220.454 111.151 220.19 110.779 220.016 110.364C219.843 109.949 219.766 109.499 219.79 109.05C219.74 108.403 219.949 107.763 220.37 107.27C220.869 106.813 221.463 106.471 222.11 106.27C223.221 105.917 224.385 105.762 225.55 105.81V104.95C225.55 104.58 225.22 104.4 224.55 104.4C224.178 104.357 223.802 104.405 223.453 104.541C223.104 104.677 222.794 104.896 222.55 105.18C222.531 105.214 222.506 105.244 222.475 105.268C222.445 105.291 222.41 105.308 222.372 105.318C222.334 105.327 222.295 105.329 222.257 105.322C222.219 105.316 222.182 105.301 222.15 105.28C221.92 105.2 221.41 104.98 220.61 104.63C220.566 104.611 220.527 104.582 220.496 104.545C220.465 104.509 220.442 104.466 220.43 104.42C220.405 104.374 220.393 104.322 220.393 104.27C220.393 104.218 220.405 104.166 220.43 104.12C220.818 103.476 221.384 102.958 222.06 102.63C222.808 102.245 223.639 102.049 224.48 102.06C225.346 102.016 226.196 102.302 226.86 102.86C227.163 103.115 227.404 103.436 227.565 103.798C227.726 104.16 227.803 104.554 227.79 104.95V110.49L227.88 110.44ZM225.56 108.65V107.72C224.865 107.704 224.17 107.767 223.49 107.91C223.137 107.967 222.798 108.089 222.49 108.27C222.368 108.353 222.27 108.467 222.207 108.601C222.143 108.735 222.117 108.883 222.13 109.03C222.118 109.142 222.128 109.256 222.161 109.364C222.193 109.473 222.248 109.573 222.32 109.66C222.532 109.803 222.785 109.87 223.04 109.85C223.339 109.847 223.637 109.797 223.92 109.7C224.234 109.599 224.533 109.458 224.81 109.28C225.085 109.106 225.334 108.894 225.55 108.65H225.56ZM227.65 98.65C227.745 98.6524 227.834 98.6919 227.9 98.76C227.933 98.7923 227.959 98.8313 227.977 98.8743C227.994 98.9174 228.002 98.9636 228 99.01V100.74C228.002 100.786 227.994 100.833 227.977 100.876C227.959 100.919 227.933 100.958 227.9 100.99C227.834 101.058 227.745 101.098 227.65 101.1H226C225.956 101.098 225.913 101.087 225.874 101.068C225.834 101.049 225.799 101.023 225.77 100.99C225.735 100.958 225.708 100.92 225.689 100.877C225.67 100.833 225.66 100.787 225.66 100.74V99C225.66 98.953 225.67 98.9065 225.689 98.8635C225.708 98.8204 225.735 98.7818 225.77 98.75C225.799 98.7173 225.834 98.6908 225.874 98.6719C225.913 98.653 225.956 98.6422 226 98.64L227.65 98.65Z" fill="white"/>
<path d="M238.08 102C238.161 102.014 238.236 102.049 238.3 102.1C238.328 102.127 238.351 102.16 238.367 102.196C238.382 102.232 238.39 102.271 238.39 102.31V104.53C238.391 104.587 238.378 104.643 238.352 104.694C238.326 104.745 238.287 104.788 238.24 104.82C238.194 104.849 238.14 104.865 238.085 104.865C238.03 104.865 237.976 104.849 237.93 104.82C237.657 104.721 237.37 104.667 237.08 104.66C236.788 104.644 236.496 104.692 236.225 104.801C235.954 104.91 235.71 105.077 235.51 105.29C235.364 105.453 235.227 105.623 235.1 105.8C235.006 105.944 234.928 106.098 234.87 106.26V111.57C234.872 111.618 234.864 111.666 234.847 111.71C234.83 111.755 234.804 111.796 234.77 111.83C234.7 111.896 234.606 111.932 234.51 111.93H232.89C232.844 111.932 232.797 111.924 232.754 111.907C232.711 111.889 232.672 111.863 232.64 111.83C232.604 111.797 232.575 111.757 232.556 111.712C232.537 111.667 232.528 111.619 232.53 111.57V102.57C232.528 102.521 232.537 102.473 232.556 102.428C232.575 102.383 232.604 102.342 232.64 102.31C232.672 102.277 232.711 102.251 232.754 102.233C232.797 102.216 232.844 102.208 232.89 102.21H234.51C234.606 102.208 234.7 102.244 234.77 102.31C234.804 102.344 234.83 102.385 234.847 102.43C234.864 102.474 234.872 102.522 234.87 102.57V103.3C235.283 102.869 235.783 102.53 236.336 102.306C236.889 102.082 237.484 101.978 238.08 102Z" fill="white"/>
<path d="M249.67 104.41C249.672 104.502 249.64 104.591 249.58 104.66L244.79 109.66H249.33C249.375 109.658 249.42 109.665 249.461 109.683C249.503 109.7 249.54 109.726 249.57 109.76C249.602 109.791 249.627 109.828 249.645 109.87C249.662 109.911 249.67 109.955 249.67 110V111.64C249.667 111.729 249.631 111.815 249.57 111.88C249.54 111.914 249.503 111.94 249.461 111.957C249.42 111.975 249.375 111.982 249.33 111.98H242.22C242.174 111.982 242.127 111.974 242.084 111.957C242.041 111.939 242.002 111.913 241.97 111.88C241.937 111.849 241.91 111.812 241.891 111.771C241.872 111.73 241.861 111.685 241.86 111.64V109.79C241.858 109.746 241.867 109.701 241.886 109.661C241.905 109.621 241.934 109.586 241.97 109.56L246.84 104.56H242.22C242.126 104.555 242.037 104.516 241.971 104.449C241.904 104.383 241.865 104.294 241.86 104.2V102.58C241.86 102.531 241.87 102.483 241.888 102.439C241.907 102.394 241.935 102.354 241.97 102.32C242.002 102.287 242.041 102.261 242.084 102.243C242.127 102.226 242.174 102.218 242.22 102.22H249.33C249.375 102.218 249.42 102.225 249.461 102.243C249.503 102.26 249.54 102.286 249.57 102.32C249.633 102.392 249.669 102.484 249.67 102.58V104.41Z" fill="white"/>
<path d="M260 111C260.03 111.038 260.05 111.081 260.061 111.128C260.071 111.175 260.071 111.223 260.06 111.27C260.037 111.364 259.98 111.446 259.9 111.5C259.093 111.975 258.176 112.23 257.24 112.24C256.85 112.259 256.46 112.192 256.099 112.043C255.738 111.894 255.414 111.668 255.15 111.38C254.574 110.66 254.289 109.75 254.35 108.83V104.46H253.7C253.605 104.463 253.513 104.431 253.44 104.37C253.407 104.338 253.381 104.299 253.363 104.256C253.346 104.213 253.338 104.166 253.34 104.12V102.48C253.326 102.424 253.326 102.366 253.34 102.31C253.367 102.253 253.413 102.207 253.47 102.18C253.532 102.164 253.598 102.164 253.66 102.18H254.31V99.52C254.31 99.473 254.32 99.4265 254.339 99.3835C254.358 99.3404 254.385 99.3018 254.42 99.27C254.483 99.2098 254.564 99.1713 254.65 99.16H256.31C256.377 99.1678 256.441 99.1882 256.5 99.22C256.532 99.2645 256.552 99.3159 256.56 99.37V101.98H259.28C259.369 101.985 259.452 102.022 259.515 102.085C259.578 102.148 259.615 102.231 259.62 102.32V103.96C259.622 104.008 259.614 104.056 259.597 104.1C259.58 104.145 259.554 104.186 259.52 104.22C259.49 104.254 259.453 104.28 259.411 104.297C259.37 104.315 259.325 104.322 259.28 104.32H256.56V109C256.557 109.132 256.588 109.262 256.651 109.378C256.715 109.494 256.807 109.591 256.92 109.66C257.028 109.739 257.154 109.789 257.287 109.807C257.42 109.824 257.555 109.808 257.68 109.76L258.13 109.58L258.48 109.44C258.553 109.404 258.638 109.397 258.716 109.421C258.794 109.446 258.86 109.499 258.9 109.57L259.9 110.94L260 111Z" fill="white"/>
<path d="M272 106.69V107.91C272.002 108.002 271.97 108.091 271.91 108.16C271.879 108.193 271.842 108.22 271.801 108.239C271.76 108.258 271.715 108.269 271.67 108.27H266.1C266.145 108.695 266.348 109.088 266.67 109.37C267.173 109.675 267.748 109.841 268.337 109.852C268.925 109.863 269.506 109.717 270.02 109.43C270.052 109.403 270.089 109.383 270.13 109.372C270.17 109.36 270.212 109.357 270.253 109.363C270.295 109.368 270.334 109.383 270.37 109.404C270.406 109.426 270.436 109.456 270.46 109.49L271.56 110.74C271.594 110.771 271.62 110.811 271.635 110.854C271.651 110.898 271.656 110.944 271.65 110.99C271.648 111.039 271.636 111.086 271.613 111.13C271.591 111.173 271.559 111.211 271.52 111.24C270.655 111.889 269.602 112.24 268.52 112.24C267.313 112.326 266.115 111.97 265.15 111.24C264.627 110.722 264.225 110.095 263.973 109.403C263.721 108.712 263.624 107.973 263.69 107.24C263.56 105.805 263.982 104.375 264.87 103.24C265.696 102.524 266.752 102.129 267.845 102.129C268.938 102.129 269.994 102.524 270.82 103.24C271.641 104.244 272.061 105.515 272 106.81V106.69ZM266 106.69H269.63C269.695 106 269.507 105.311 269.1 104.75C268.925 104.6 268.722 104.486 268.501 104.418C268.281 104.349 268.049 104.326 267.82 104.35C267.589 104.326 267.356 104.349 267.134 104.418C266.912 104.487 266.707 104.6 266.53 104.75C266.128 105.313 265.94 106.001 266 106.69Z" fill="white"/>
<path d="M151.71 86.42C151.81 86.419 151.91 86.44 152.002 86.4814C152.093 86.5229 152.174 86.5838 152.24 86.66C152.311 86.7326 152.367 86.8186 152.405 86.913C152.443 87.0074 152.461 87.1083 152.46 87.21V88.75C152.46 88.9489 152.381 89.1397 152.24 89.2803C152.1 89.421 151.909 89.5 151.71 89.5C151.144 89.5115 150.582 89.3994 150.064 89.1714C149.546 88.9434 149.084 88.6051 148.71 88.18C148.27 87.71 147.83 87.18 147.39 86.73L147.13 86.9C144.705 88.7071 141.732 89.6251 138.71 89.5C137.098 89.531 135.497 89.2386 134 88.64C132.606 88.0897 131.416 87.1214 130.595 85.8681C129.773 84.6148 129.359 83.1379 129.41 81.64C129.41 77.94 131.41 74.7833 135.41 72.17C134.41 70.85 133.73 69.91 133.41 69.35C132.771 68.3926 132.405 67.2796 132.35 66.13C132.35 64.4353 133.023 62.8099 134.222 61.6116C135.42 60.4132 137.045 59.74 138.74 59.74C140.435 59.74 142.06 60.4132 143.258 61.6116C144.457 62.8099 145.13 64.4353 145.13 66.13C145.052 67.9329 144.29 69.6385 143 70.9C142.173 71.836 141.22 72.6536 140.17 73.33C142.003 75.6833 144.4 78.5767 147.36 82.01C148.017 80.7789 148.36 79.4052 148.36 78.01V77.31C148.358 77.199 148.378 77.0887 148.419 76.9857C148.46 76.8826 148.522 76.7889 148.6 76.71C148.678 76.631 148.772 76.5689 148.875 76.5276C148.978 76.4863 149.089 76.4667 149.2 76.47H150.61C150.719 76.4681 150.828 76.4883 150.93 76.5296C151.031 76.5708 151.123 76.6322 151.2 76.71C151.278 76.7889 151.34 76.8826 151.381 76.9857C151.422 77.0887 151.442 77.199 151.44 77.31V78C151.458 80.2776 150.781 82.5066 149.5 84.39C149.907 84.8567 150.407 85.4167 151 86.07C151.099 86.1684 151.215 86.2464 151.344 86.2996C151.473 86.3528 151.611 86.3801 151.75 86.38L151.71 86.42ZM135.36 66.1C135.487 66.9108 135.832 67.6716 136.36 68.3C136.59 68.63 137.24 69.48 138.29 70.86C139.176 70.3126 139.978 69.6389 140.67 68.86C141.433 68.1312 141.905 67.1506 142 66.1C142.004 65.6562 141.917 65.2163 141.745 64.8071C141.573 64.398 141.319 64.0281 141 63.72C140.698 63.4036 140.335 63.1517 139.933 62.9799C139.53 62.808 139.097 62.7196 138.66 62.72C138.22 62.7203 137.784 62.809 137.379 62.9807C136.973 63.1525 136.606 63.4039 136.3 63.72C135.978 64.0259 135.722 64.3954 135.55 64.805C135.378 65.2147 135.293 65.6557 135.3 66.1H135.36ZM145.28 84.48C145.28 84.48 145.33 84.48 145.33 84.41C141.863 80.41 139.16 77.1333 137.22 74.58C135.92 75.3887 134.758 76.4017 133.78 77.58C132.88 78.7381 132.413 80.1742 132.46 81.64C132.417 82.3376 132.554 83.0345 132.859 83.6635C133.163 84.2924 133.625 84.832 134.2 85.23C135.535 86.0707 137.094 86.4857 138.67 86.42C141.015 86.5268 143.329 85.8437 145.24 84.48H145.28Z" fill="white"/>
<path d="M194.17 60.2C195.287 60.1987 196.393 60.4176 197.426 60.8442C198.458 61.2707 199.397 61.8966 200.187 62.6861C200.977 63.4755 201.604 64.413 202.032 65.4449C202.46 66.4768 202.68 67.5829 202.68 68.7V69.32C202.68 70.4371 202.46 71.5432 202.032 72.5751C201.604 73.607 200.977 74.5445 200.187 75.3339C199.397 76.1234 198.458 76.7493 197.426 77.1758C196.393 77.6024 195.287 77.8213 194.17 77.82H187.17V88.18C187.171 88.2911 187.148 88.4011 187.103 88.5027C187.058 88.6044 186.992 88.6955 186.91 88.77C186.835 88.8479 186.745 88.9102 186.645 88.9531C186.545 88.996 186.438 89.0187 186.33 89.02H184.92C184.81 89.0225 184.7 89.0015 184.598 88.9584C184.496 88.9153 184.405 88.8511 184.33 88.77C184.252 88.693 184.191 88.601 184.15 88.4996C184.108 88.3982 184.088 88.2895 184.09 88.18V61C184.089 60.8906 184.109 60.7821 184.15 60.6808C184.192 60.5795 184.253 60.4875 184.33 60.4101C184.407 60.3328 184.499 60.2717 184.601 60.2304C184.702 60.1892 184.811 60.1687 184.92 60.17L194.17 60.2ZM199.64 69.32V68.7C199.649 67.9751 199.508 67.2561 199.226 66.5883C198.944 65.9205 198.526 65.3184 198 64.82C197.496 64.3102 196.895 63.9075 196.231 63.636C195.568 63.3644 194.857 63.2298 194.14 63.24H187.14V74.74H194.14C194.858 74.7507 195.57 74.6152 196.233 74.3419C196.897 74.0685 197.498 73.663 198 73.15C198.518 72.6569 198.928 72.0622 199.205 71.4031C199.482 70.7441 199.62 70.0349 199.61 69.32H199.64Z" fill="white"/>
<path d="M243.42 87.87C243.464 87.9978 243.477 88.1344 243.458 88.2683C243.439 88.4022 243.388 88.5297 243.31 88.64C243.241 88.7581 243.141 88.8555 243.022 88.9223C242.902 88.9891 242.767 89.0228 242.63 89.02H241.13C240.958 89.0284 240.787 88.9816 240.643 88.8862C240.499 88.7909 240.389 88.6521 240.33 88.49L237.6 81.49H224C222.62 84.9767 221.71 87.31 221.27 88.49C221.214 88.6522 221.106 88.7916 220.964 88.8873C220.821 88.9829 220.651 89.0295 220.48 89.02H219C218.863 89.0228 218.728 88.9891 218.608 88.9223C218.489 88.8555 218.389 88.7581 218.32 88.64C218.242 88.5297 218.191 88.4022 218.172 88.2683C218.153 88.1344 218.166 87.9978 218.21 87.87C220.323 82.5367 223.907 73.4867 228.96 60.72C229.018 60.5597 229.126 60.4224 229.269 60.3287C229.411 60.235 229.58 60.1899 229.75 60.2H231.91C232.082 60.1893 232.252 60.234 232.396 60.3277C232.54 60.4213 232.65 60.5589 232.71 60.72C235.123 66.8133 238.707 75.8633 243.46 87.87H243.42ZM225.22 78.44H236.37L230.82 64.34L225.22 78.44Z" fill="white"/>
<path d="M282.84 69.32C282.861 70.9848 282.377 72.6168 281.45 74C280.563 75.3607 279.303 76.437 277.82 77.1C280.348 80.3105 282.064 84.0842 282.82 88.1C282.836 88.221 282.827 88.3441 282.792 88.4613C282.758 88.5784 282.699 88.687 282.62 88.78C282.539 88.8591 282.441 88.9196 282.334 88.9576C282.227 88.9956 282.113 89.01 282 89H280.59C280.395 89.0011 280.206 88.9299 280.06 88.8C279.916 88.6657 279.824 88.4852 279.8 88.29C279.495 86.6786 278.977 85.1149 278.26 83.64C277.697 82.3823 277.028 81.1746 276.26 80.03C275.67 79.22 275.08 78.48 274.5 77.8H266.92V88.18C266.921 88.2922 266.898 88.4033 266.851 88.5053C266.804 88.6073 266.736 88.6977 266.65 88.77C266.577 88.8476 266.488 88.9098 266.39 88.9527C266.292 88.9956 266.187 89.0185 266.08 89.02H264.67C264.447 89.02 264.234 88.9315 264.076 88.774C263.918 88.6164 263.83 88.4028 263.83 88.18V61C263.828 60.8905 263.848 60.7818 263.89 60.6804C263.931 60.579 263.992 60.487 264.07 60.41C264.149 60.3319 264.243 60.2704 264.346 60.2292C264.449 60.188 264.559 60.1679 264.67 60.17H274.36C275.477 60.1687 276.583 60.3876 277.616 60.8142C278.648 61.2407 279.587 61.8666 280.377 62.6561C281.167 63.4455 281.794 64.383 282.222 65.4149C282.65 66.4468 282.87 67.5529 282.87 68.67V69.29L282.84 69.32ZM279.84 69.32V68.7C279.83 67.2534 279.25 65.8692 278.226 64.8473C277.202 63.8253 275.817 63.2479 274.37 63.24H266.93V74.74H274.37C275.088 74.7507 275.8 74.6152 276.463 74.3419C277.127 74.0685 277.728 73.663 278.23 73.15C278.748 72.6569 279.158 72.0622 279.435 71.4031C279.712 70.7441 279.85 70.0349 279.84 69.32Z" fill="white"/>
<path d="M321 60.2C321.109 60.1987 321.218 60.2192 321.319 60.2604C321.421 60.3017 321.513 60.3628 321.59 60.4401C321.667 60.5175 321.728 60.6095 321.77 60.7108C321.811 60.8121 321.831 60.9206 321.83 61.03V62.4C321.832 62.5095 321.812 62.6182 321.77 62.7196C321.729 62.821 321.668 62.913 321.59 62.99C321.515 63.0711 321.424 63.1353 321.322 63.1784C321.22 63.2215 321.11 63.2425 321 63.24H313V88.18C313 88.4028 312.912 88.6164 312.754 88.774C312.596 88.9315 312.383 89.02 312.16 89.02H310.8C310.578 89.0174 310.366 88.9281 310.209 88.7711C310.052 88.6141 309.963 88.402 309.96 88.18V63.24H301.96C301.848 63.2433 301.737 63.2227 301.633 63.1796C301.53 63.1365 301.437 63.0718 301.36 62.99C301.282 62.913 301.221 62.821 301.18 62.7196C301.138 62.6182 301.118 62.5095 301.12 62.4V61C301.119 60.8898 301.139 60.7804 301.181 60.6784C301.223 60.5764 301.285 60.4839 301.364 60.4065C301.442 60.329 301.535 60.2681 301.638 60.2275C301.74 60.1869 301.85 60.1673 301.96 60.17L321 60.2Z" fill="white"/>
<path d="M362 60.68C362.109 60.6781 362.218 60.6983 362.32 60.7396C362.421 60.7808 362.513 60.8422 362.59 60.92C362.67 60.9977 362.734 61.091 362.777 61.1942C362.82 61.2974 362.841 61.4082 362.84 61.52V88.66C362.841 88.7718 362.82 88.8827 362.777 88.9858C362.734 89.089 362.67 89.1823 362.59 89.26C362.513 89.3378 362.421 89.3992 362.32 89.4404C362.218 89.4817 362.109 89.5019 362 89.5H359.62C359.478 89.502 359.338 89.4672 359.213 89.3988C359.089 89.3304 358.984 89.2309 358.91 89.11L344.91 65.75V88.66C344.911 88.7718 344.89 88.8827 344.847 88.9858C344.804 89.089 344.74 89.1823 344.66 89.26C344.583 89.3378 344.491 89.3992 344.39 89.4404C344.288 89.4817 344.179 89.5019 344.07 89.5H342.6C342.489 89.5027 342.378 89.4829 342.275 89.4417C342.172 89.4004 342.078 89.3386 342 89.2601C341.921 89.1815 341.86 89.0878 341.818 88.9847C341.777 88.8815 341.757 88.7711 341.76 88.66V61.52C341.757 61.4089 341.777 61.2985 341.818 61.1953C341.86 61.0922 341.921 60.9985 342 60.9199C342.078 60.8414 342.172 60.7796 342.275 60.7384C342.378 60.6971 342.489 60.6773 342.6 60.68H344.93C345.073 60.678 345.214 60.714 345.339 60.7842C345.464 60.8545 345.568 60.9565 345.64 61.08L359.78 84.43V61.52C359.782 61.4065 359.806 61.2945 359.85 61.19C359.892 61.0893 359.953 60.9976 360.03 60.92C360.104 60.8465 360.193 60.7887 360.29 60.75C360.393 60.7009 360.506 60.6769 360.62 60.68H362Z" fill="white"/>
<path d="M401.5 85.93C401.609 85.9281 401.718 85.9483 401.82 85.9896C401.921 86.0308 402.013 86.0922 402.09 86.17C402.168 86.2489 402.23 86.3426 402.271 86.4457C402.312 86.5487 402.332 86.659 402.33 86.77V88.18C402.332 88.2895 402.312 88.3982 402.27 88.4996C402.229 88.601 402.168 88.693 402.09 88.77C402.015 88.8511 401.924 88.9153 401.822 88.9584C401.72 89.0015 401.61 89.0225 401.5 89.02H386.42C386.31 89.0225 386.2 89.0015 386.098 88.9584C385.996 88.9153 385.905 88.8511 385.83 88.77C385.752 88.693 385.691 88.601 385.65 88.4996C385.608 88.3982 385.588 88.2895 385.59 88.18V61C385.589 60.8906 385.609 60.7821 385.65 60.6808C385.692 60.5795 385.753 60.4875 385.83 60.4101C385.907 60.3328 385.999 60.2717 386.101 60.2304C386.202 60.1892 386.311 60.1687 386.42 60.17H400.31C400.419 60.1687 400.528 60.1892 400.629 60.2304C400.731 60.2717 400.823 60.3328 400.9 60.4101C400.977 60.4875 401.038 60.5795 401.08 60.6808C401.121 60.7821 401.141 60.8906 401.14 61V62.4C401.142 62.5095 401.122 62.6182 401.08 62.7196C401.039 62.821 400.978 62.913 400.9 62.99C400.825 63.0711 400.734 63.1353 400.632 63.1784C400.53 63.2215 400.42 63.2425 400.31 63.24H388.67V72.76H398C398.109 72.7587 398.218 72.7792 398.319 72.8205C398.421 72.8617 398.513 72.9228 398.59 73.0001C398.667 73.0775 398.728 73.1695 398.77 73.2708C398.811 73.3721 398.831 73.4806 398.83 73.59V75C398.833 75.1102 398.813 75.2198 398.773 75.3223C398.732 75.4248 398.671 75.518 398.594 75.5964C398.516 75.6748 398.424 75.7368 398.322 75.7787C398.22 75.8205 398.11 75.8414 398 75.84H388.65V85.93H401.5Z" fill="white"/>
<path d="M442.15 69.32C442.171 70.9848 441.687 72.6168 440.76 74C439.873 75.3607 438.613 76.437 437.13 77.1C439.658 80.3105 441.374 84.0842 442.13 88.1C442.146 88.221 442.137 88.3441 442.102 88.4613C442.068 88.5784 442.009 88.687 441.93 88.78C441.853 88.8744 441.755 88.9498 441.644 89.0001C441.533 89.0504 441.412 89.0743 441.29 89.07H439.9C439.705 89.0711 439.516 88.9999 439.37 88.87C439.226 88.7357 439.134 88.5552 439.11 88.36C438.81 86.7474 438.292 85.1831 437.57 83.71C437.007 82.4523 436.338 81.2446 435.57 80.1C434.98 79.29 434.39 78.55 433.81 77.87H426.2V88.18C426.201 88.2922 426.178 88.4033 426.131 88.5053C426.084 88.6073 426.016 88.6977 425.93 88.77C425.857 88.8486 425.769 88.9113 425.671 88.9543C425.573 88.9973 425.467 89.0197 425.36 89.02H424C423.777 89.02 423.564 88.9315 423.406 88.774C423.249 88.6164 423.16 88.4028 423.16 88.18V61C423.158 60.8905 423.178 60.7818 423.22 60.6804C423.261 60.579 423.322 60.487 423.4 60.41C423.479 60.3319 423.573 60.2704 423.676 60.2292C423.779 60.188 423.889 60.1679 424 60.17H433.7C435.954 60.17 438.116 61.0655 439.71 62.6596C441.304 64.2537 442.2 66.4157 442.2 68.67V69.29L442.15 69.32ZM439.15 69.32V68.7C439.14 67.2552 438.561 65.8725 437.539 64.8508C436.518 63.8291 435.135 63.2505 433.69 63.24H426.2V74.74H433.65C434.366 74.7493 435.076 74.6132 435.738 74.3399C436.4 74.0666 436.999 73.6618 437.5 73.15C438.018 72.6569 438.428 72.0622 438.705 71.4031C438.982 70.7441 439.12 70.0349 439.11 69.32H439.15Z" fill="white"/>
<path fill-rule="evenodd" clip-rule="evenodd" d="M64.92 24C68.42 22.91 71.79 24 74.79 26.1C78.94 28.99 82.37 33.82 84.33 37.27C85.3696 39.0925 86.2915 40.9797 87.09 42.92C87.9503 44.9892 88.6915 47.106 89.31 49.26C90.2541 52.4541 90.9825 55.7081 91.49 59C92.01 62.3499 92.3074 65.7307 92.38 69.12C92.45 72.54 92.43 77.43 91.17 81.51C89.85 85.79 87.17 89.18 82.04 89.26C81.1491 89.2746 80.2587 89.2076 79.38 89.06L79.46 88.99L79.52 88.93L79.59 88.87L79.69 88.78L79.78 88.69L79.85 88.61C88.3 82.37 86.99 69.82 85.67 60.52C85.34 58.19 84.9 55.88 84.35 53.52C83.7491 50.9121 82.9775 48.3466 82.04 45.84C81.1291 43.3566 79.9452 40.982 78.51 38.76C76.8603 36.2055 74.9134 33.8557 72.71 31.76C70.37 29.66 67.71 28.17 65.17 28.87C60.72 30.11 61.3 37.32 60.17 41.87C59.52 36.33 57.53 26.2 64.72 23.98L64.92 24Z" fill="white"/>
<path fill-rule="evenodd" clip-rule="evenodd" d="M53.13 31.24C53.13 29.45 53.13 27.76 53.13 26.42V18.42C53.13 16.22 53.02 14.73 53.07 13.73C54.605 13.3814 56.1619 13.1375 57.73 13L57.6 38.21C57.5171 39.322 57.1181 40.3872 56.45 41.28C56.1555 41.6769 55.7748 42.0019 55.3366 42.2305C54.8984 42.4592 54.414 42.5855 53.92 42.6C49.92 42.73 49.17 38.8 48.64 35.75C48.64 35.56 48.24 33.46 48.23 33.45C47.98 32.06 47.63 30.08 46.69 29.26C46.4095 29.0129 46.061 28.8561 45.69 28.81C45.2599 28.7355 44.8201 28.7355 44.39 28.81C42.28 29.18 40.21 30.74 38.39 32.64C36.6586 34.4977 35.0958 36.5056 33.72 38.64C32.4 40.6788 31.291 42.8466 30.41 45.11C29.3651 47.8087 28.5162 50.5792 27.87 53.4C26.7083 58.6363 26.0818 63.977 26 69.34C26 73.52 26.37 77.45 27.57 80C28.016 80.9634 28.7053 81.7941 29.57 82.41C30.2718 82.9319 31.1254 83.2094 32 83.2C33.63 83.2 35.2 81.93 36.61 80.45C37.42 81.87 38.2 83.2 38.87 84.33C36.95 87.18 34.66 89.33 30.38 89.33C28.5914 89.3054 26.8506 88.7484 25.38 87.73C23.8713 86.6603 22.6849 85.1972 21.95 83.5C21.1787 81.5778 20.6741 79.559 20.45 77.5C20.0957 74.7348 19.9453 71.9473 20 69.16C20.0751 65.7572 20.3758 62.3631 20.9 59C21.4065 55.6858 22.1314 52.4086 23.07 49.19C23.68 47.13 24.39 45.07 25.21 43.06C26.0311 41.0483 26.9797 39.0909 28.05 37.2C29.2173 35.1289 30.5553 33.1587 32.05 31.31C33.5468 29.4316 35.2929 27.7662 37.24 26.36C38.5507 25.4227 39.993 24.6847 41.52 24.17C42.877 23.7129 44.3126 23.536 45.74 23.65C50.53 24.08 52.45 27.52 53.13 31.21V31.24Z" fill="white"/>
<path d="M91.63 85.24C99.07 73.99 102.33 60.41 100.63 47.96C98.39 30.77 84.39 14.88 68.32 11.17C54.65 8 41 13.74 32.12 24.84C37.72 15.32 47.27 8.52 57.9 7C93.68 2.73 116.48 38.06 109.49 70.6C103.803 75.7842 97.8415 80.658 91.63 85.2V85.24Z" fill="white"/>
<path d="M22.59 22.38C12.78 34.38 8.27 50.06 10.2 64.26C12.2 79.84 23.93 94.35 38.07 99.7C36.7567 100.894 35.524 102.173 34.38 103.53C16 97.88 2.09 80.66 0.200004 59.14C-2.17 31.72 16.68 5.54 42.2 0.880001C54.2499 -1.27462 66.6735 0.521218 77.62 6C58.35 -1.11 36.19 5.65 22.62 22.35L22.59 22.38Z" fill="white"/>
<path fill-rule="evenodd" clip-rule="evenodd" d="M26.75 125C26.75 125 27.75 115.2 31.33 109.45C35.4042 102.777 41.4044 97.4951 48.54 94.3C56.81 90.56 75.19 84.6 78.24 81.53C81.29 78.46 81.18 85.86 76.97 88.93C72.76 92 61.9 97 61.9 97C61.9 97 57.4 99 58.5 100.17C59.6 101.34 70.38 99.68 81.7 93.88C93.02 88.08 109.57 72.42 109.57 72.42C109.57 72.42 107.23 85 95.27 96.6C78.62 112.73 48.27 111.9 26.75 125.03V125Z" fill="white"/>
<path fill-rule="evenodd" clip-rule="evenodd" d="M42.33 86.29C42.33 86.29 36.87 77.29 33.47 70.73C26.22 56.73 31.66 41.12 43.39 42.25C53.31 43.25 56.88 52.73 57.64 56.7C57.83 57.7 57.83 58.25 57.88 58.34C57.93 58.43 57.88 58.34 57.94 58.34C63.65 52.78 71.83 50.27 78.81 53.96C80.3918 54.7697 81.7306 55.9843 82.69 57.48C87.34 64.84 82.91 71.61 77.43 76.7C77.43 76.7 79.81 69.41 78.66 65.9C77.66 62.9 75.46 60.68 72.44 60.41C65.44 59.78 55.52 65.48 55.52 65.48C55.52 65.48 53.91 57.28 49.34 54.42C44.77 51.56 39.59 52.32 37.83 56.63C34.83 63.92 39.83 78.86 42.33 86.3V86.29Z" fill="white"/>
<path fill-rule="evenodd" clip-rule="evenodd" d="M48.23 88.64C48.23 88.64 56.23 87.02 61.69 85.52C71.91 82.72 77.8 73.77 74.61 67.52C73.06 78.9 58.45 86 48.23 88.64Z" fill="white"/>
</g>
<defs>
<clipPath id="clip0_1_2">
<rect width="443.59" height="125.03" fill="white"/>
</clipPath>
</defs>
</svg>
