<svg xmlns="http://www.w3.org/2000/svg" xmlns:xlink="http://www.w3.org/1999/xlink" width="182.91" height="45.532" viewBox="0 0 182.91 45.532">
  <defs>
    <clipPath id="clip-path">
      <rect id="rect99" width="182.91" height="45.532" fill="#fff"/>
    </clipPath>
  </defs>
  <g id="g38" clip-path="url(#clip-path)">
    <g id="g15" transform="translate(0 0.872)">
      <path id="path13" d="M11.328,29.549h-.011c-3,0-6.107-.073-8.154-.942A4.716,4.716,0,0,1,.849,26.717,6.856,6.856,0,0,1,0,23.058a19.918,19.918,0,0,1,.5-4.091c.075-.351,1.849-8.594,1.968-9.032A15.719,15.719,0,0,1,4.275,5.619,9.584,9.584,0,0,1,9.7,1.474,27.123,27.123,0,0,1,17.96.536h.031a24.089,24.089,0,0,1,4.9.419,7.582,7.582,0,0,1,3.605,1.612,3.754,3.754,0,0,1,1.156,2,6.23,6.23,0,0,1,.126,1.3,16.789,16.789,0,0,1-.406,3.162c-.026.133-.051.264-.075.39l-.007.038H20.111l0-.051s.022-.217.031-.311c0-.005.033-.3.033-.71a1.691,1.691,0,0,0-.893-1.49,4.55,4.55,0,0,0-1.659-.432,17.443,17.443,0,0,0-1.97-.084,10.963,10.963,0,0,0-2.868.3,4.281,4.281,0,0,0-1.516.716A4.5,4.5,0,0,0,9.857,9.377a18.412,18.412,0,0,0-.832,3l-.984,4.608a18.578,18.578,0,0,0-.54,3.579,3.536,3.536,0,0,0,.24,1.391,2.493,2.493,0,0,0,1.533,1.368,8.575,8.575,0,0,0,2.9.373A18.81,18.81,0,0,0,14.4,23.6a4.158,4.158,0,0,0,2.53-1.054,5.564,5.564,0,0,0,1.392-2.95l.1-.47h7.1l0,.049c0,.055-.4,1.911-.609,2.654a13.356,13.356,0,0,1-.721,2.018,8.8,8.8,0,0,1-3.025,3.628,10.766,10.766,0,0,1-4.457,1.8,26.991,26.991,0,0,1-4.65.275h-.02c-.035,0-.626,0-.712,0Z" transform="translate(0 -0.536)" fill="#fff" fill-rule="evenodd"/>
    </g>
    <path id="path17" d="M60.234,29.549h-.009c-3.005,0-6.109-.073-8.154-.942a4.7,4.7,0,0,1-2.314-1.891,6.856,6.856,0,0,1-.851-3.659,19.932,19.932,0,0,1,.5-4.091c.073-.351,1.847-8.594,1.966-9.032a15.72,15.72,0,0,1,1.809-4.316A9.584,9.584,0,0,1,58.6,1.474,27.127,27.127,0,0,1,66.864.536H66.9a24.115,24.115,0,0,1,4.9.419,7.565,7.565,0,0,1,3.6,1.612,3.729,3.729,0,0,1,1.154,2,6.224,6.224,0,0,1,.128,1.3,16.774,16.774,0,0,1-.4,3.162c-.027.135-.051.264-.077.39l-.007.038H69.017l.006-.051s.022-.217.031-.311c0-.005.031-.3.031-.71a1.7,1.7,0,0,0-.891-1.49,4.57,4.57,0,0,0-1.661-.432,17.427,17.427,0,0,0-1.97-.084,10.964,10.964,0,0,0-2.868.3,4.3,4.3,0,0,0-1.516.716,4.493,4.493,0,0,0-1.414,1.974,18.059,18.059,0,0,0-.832,3l-.984,4.608a18.456,18.456,0,0,0-.541,3.579,3.536,3.536,0,0,0,.24,1.391,2.493,2.493,0,0,0,1.533,1.368,8.575,8.575,0,0,0,2.9.373,18.791,18.791,0,0,0,2.228-.095,4.169,4.169,0,0,0,2.532-1.054,5.592,5.592,0,0,0,1.392-2.95l.1-.47h7.1l0,.049c0,.055-.4,1.911-.609,2.654a13.583,13.583,0,0,1-.719,2.018,8.8,8.8,0,0,1-3.027,3.628,10.759,10.759,0,0,1-4.456,1.8,27.012,27.012,0,0,1-4.65.275h-.022c-.035,0-.626,0-.711,0Z" transform="translate(30.621 0.336)" fill="#fff" fill-rule="evenodd"/>
    <path id="path19" d="M54.35,29.22H33.7l.013-.056L39.487,2.107a1.7,1.7,0,0,1,.591-1.073A2.053,2.053,0,0,1,41.372.679H58.8a1.276,1.276,0,0,1,.927.288.861.861,0,0,1,.218.612V1.6a1.493,1.493,0,0,1-.04.319L59,6.142H45.51l-1.169,5.595H57l-1.152,5.276H43.189l-1.441,6.753H55.513Z" transform="translate(21.1 0.425)" fill="#fff" fill-rule="evenodd"/>
    <path id="path21" d="M71.822,29.22H64.938l.011-.056L70.7,2.2A2.081,2.081,0,0,1,71.383.966a1.6,1.6,0,0,1,1-.288h4.075a1.378,1.378,0,0,1,.973.3.886.886,0,0,1,.251.652,1.382,1.382,0,0,1-.024.255Z" transform="translate(40.659 0.425)" fill="#fff" fill-rule="evenodd"/>
    <path id="path23" d="M86.647,29.218H77.972l-.013-.026-6.424-14.8.022-.022L82.669,2.352a7.567,7.567,0,0,1,1.45-1.346A2.214,2.214,0,0,1,85.4.679H91a.82.82,0,0,1,.518.16.436.436,0,0,1,.117.138.315.315,0,0,1,.035.115h.013l-.011.089a1.024,1.024,0,0,1-.3.565L79.38,14.586Z" transform="translate(44.79 0.425)" fill="#fff" fill-rule="evenodd"/>
    <path id="path25" d="M34.337,29.22h-.057l.013-.056,2.453-11.525H25.395L22.922,29.22H16.039l.013-.056c.232-1.093,5.7-26.8,5.736-26.94a1.8,1.8,0,0,1,.81-1.3A2.571,2.571,0,0,1,23.884.679h3.722a1.446,1.446,0,0,1,.748.255,1,1,0,0,1,.3.317.921.921,0,0,1,.117.472,1.743,1.743,0,0,1-.022.25c-.029.164-1.919,8.948-2.107,9.817H37.992c.924-4.338,2.023-9.5,2.038-9.565a1.8,1.8,0,0,1,.81-1.3A2.572,2.572,0,0,1,42.126.679h3.722A1.452,1.452,0,0,1,46.6.934a.973.973,0,0,1,.3.317.923.923,0,0,1,.117.472,1.519,1.519,0,0,1-.022.25c-.029.169-5.581,26.106-5.815,27.211l-.007.036Z" transform="translate(10.042 0.425)" fill="#fff" fill-rule="evenodd"/>
    <g id="g36" transform="translate(133.126 0.91)">
      <path id="path30" d="M100.427,6.337a1.725,1.725,0,0,1,1.178.838,2.225,2.225,0,0,1,.212,1.036,7.345,7.345,0,0,1-.187,1.473,9.579,9.579,0,0,1-.556,1.89,3.423,3.423,0,0,1-1.034,1.339c-.946.738-2.416,1.189-5.021,1.77a35.183,35.183,0,0,0-7.5,2.227,6.687,6.687,0,0,0-3.386,3.4,19.22,19.22,0,0,0-1.213,4.018l-.971,4.927h22.33l1.041-4.992H89.783a12.156,12.156,0,0,1,.437-1.641,3.176,3.176,0,0,1,1.021-1.311,4.807,4.807,0,0,1,1.591-.7c1.275-.352,3.036-.59,5.628-1.249,3.2-.823,5.352-1.721,6.872-3.182s2.449-3.506,3.135-6.717a16.442,16.442,0,0,0,.4-3.242,5.8,5.8,0,0,0-.686-2.994,4.219,4.219,0,0,0-1.908-1.685c-1.657-.794-4.09-.978-6.978-.976-3.673,0-6.565.379-8.714,1.692s-3.645,3.7-4.476,7.586l-.236,1.1h6.79l.258-1.213A6.361,6.361,0,0,1,93.868,7.2a2.706,2.706,0,0,1,1.948-.947,17.474,17.474,0,0,1,2.169-.093c.139,0,.273,0,.4,0a8.558,8.558,0,0,1,2.041.177Z" transform="translate(-81.816 -0.56)" fill="#fff" fill-rule="evenodd"/>
      <path id="path32" d="M109.764,3.582c-.79.816-7.417,7.72-10.13,10.551a8.686,8.686,0,0,0-1.379,1.747,10.468,10.468,0,0,0-.618,2.22c-.289,1.592-.5,3.047-.638,3.644a1.93,1.93,0,0,0-.049.426,1.315,1.315,0,0,0,.481,1.051,1.57,1.57,0,0,0,1.012.339H111.6l-1.211,5.7,6.926-.65,1.075-5.045h2.472l1.077-5.04h-2.475s2.473-11.508,2.55-11.935c.85-4.657-1.091-6.019-5.464-6.019-1.117,0-3.643-.229-6.779,3.016ZM112.67,18.52h-9.937l11.822-12.2h.719Z" transform="translate(-72.424 -0.558)" fill="#fff" fill-rule="evenodd"/>
      <path id="path34" d="M103.708,33.558A23.651,23.651,0,0,1,91.3,30.123a21.865,21.865,0,0,1-6.667-6.276L83.323,27.2a.721.721,0,0,1-.79.443.709.709,0,0,1-.594-.692l-.071-6.564V20.38a.692.692,0,0,1,.208-.488.717.717,0,0,1,.507-.208l6.709,0H89.3a.725.725,0,0,1,.682.574.821.821,0,0,1,.013.135.712.712,0,0,1-.457.659l-3.276,1.264a25.947,25.947,0,0,0,17.093,6.646c.71,0,1.43-.031,2.144-.091a34.668,34.668,0,0,0,10.225-2.477,26.208,26.208,0,0,0,7.131-4.293l-3.377-.993a.711.711,0,0,1-.517-.679c0-.022,0-.044,0-.069a.714.714,0,0,1,.647-.636l6.553-.6a.634.634,0,0,1,.076,0,.725.725,0,0,1,.455.164.7.7,0,0,1,.255.486c.545,6.413.545,6.415.545,6.438a.708.708,0,0,1-.528.683.672.672,0,0,1-.184.026.724.724,0,0,1-.647-.393L124.556,23.5a24.373,24.373,0,0,1-6.945,6.22,26.6,26.6,0,0,1-11.656,3.739l-.424.036v0c-.611.042-1.224.064-1.822.064Z" transform="translate(-81.867 11.062)" fill="#fff" fill-rule="evenodd"/>
    </g>
  </g>
</svg>
