<svg width="66" height="71" viewBox="0 0 66 71" fill="none" xmlns="http://www.w3.org/2000/svg">
<path d="M0 0V60.857H20.286V71H35.5V65.929H40.571V60.857H44.137L44.929 60.144L47.069 58C47.8487 58.1849 48.6451 58.2911 49.446 58.317C53.7075 58.3235 57.8056 56.6775 60.8787 53.7251C63.9518 50.7727 65.7606 46.7438 65.9248 42.4855C66.089 38.2271 64.5958 34.0709 61.7592 30.8906C58.9225 27.7103 54.9634 25.7537 50.714 25.432V0H0ZM5.071 5.071H45.643V17.75H5.071V5.071ZM5.071 22.821H45.643V25.832C42.6889 26.5568 39.9898 28.0772 37.839 30.228C35.6882 32.3788 34.1678 35.0779 33.443 38.032H5.071V22.821ZM49.446 30.428C52.4537 30.4562 55.3287 31.6707 57.4457 33.8076C59.5626 35.9444 60.7502 38.8306 60.7502 41.8385C60.7502 44.8464 59.5626 47.7326 57.4457 49.8694C55.3287 52.0063 52.4537 53.2208 49.446 53.249C48.537 53.2048 47.6346 53.0708 46.752 52.849L45.405 52.449L44.375 53.479L42 55.786H35.5V60.857H30.429V65.928H25.357V59.428L37.8 46.911L38.83 45.881L38.43 44.534C38.1768 43.6579 38.0423 42.7518 38.03 41.84C38.0643 38.8234 39.2782 35.9401 41.4119 33.8074C43.5456 31.6747 46.4294 30.461 49.446 30.428ZM53.246 35.499C52.7444 35.499 52.2541 35.6477 51.8371 35.9264C51.42 36.2051 51.095 36.6011 50.903 37.0645C50.7111 37.5279 50.6609 38.0378 50.7587 38.5298C50.8566 39.0217 51.0981 39.4736 51.4528 39.8282C51.8074 40.1829 52.2593 40.4244 52.7513 40.5223C53.2432 40.6201 53.7531 40.5699 54.2165 40.378C54.6799 40.186 55.0759 39.861 55.3546 39.4439C55.6333 39.0269 55.782 38.5366 55.782 38.035C55.7804 37.3637 55.5132 36.7203 55.0388 36.2453C54.5644 35.7703 53.9213 35.5024 53.25 35.5L53.246 35.499ZM5.071 43.107H33.044C33.103 43.523 33.193 43.89 33.282 44.296L21.712 55.786H5.071V43.107Z" fill="#86ED18"/>
</svg>
