<svg xmlns="http://www.w3.org/2000/svg" width="80.052" height="49.113" viewBox="0 0 80.052 49.113">
  <path id="path88" d="M204.24,14.708c-2.408,0-4.89.237-8.414.237V39.559a11.386,11.386,0,0,0,6.749-1.927V20.915h2.584c4.515,0,9.2,2.025,9.2,10.691,0,7.789-3.561,10.782-10.589,10.782h-7.942v6.089c3.524,0,6.006.07,8.414.07,13.083,0,17.186-7.389,17.186-16.948s-4.1-16.89-17.186-16.89Zm68.091,27.643a70.737,70.737,0,0,1-5.622-7.968c4.781-2.216,5.981-5.829,5.981-9.129,0-10.344-9.723-10.548-14.632-10.546-2.98,0-6.264.257-9.189.237v6.2h10.275c4.145,0,6.328,1.618,6.328,4.762,0,3.423-2.157,4.92-5.69,4.92h-3.817V23.98s-4.7-.176-7.1,2.951V48.55h7.1V35.918c4.268-.819,5.534,3.28,7.381,6.218,2.559,4.061,4.1,6.977,9.247,6.977a18.9,18.9,0,0,0,3.184-.307l.1-5.332a3.156,3.156,0,0,1-3.547-1.123Zm-48.29,6.2H245.8V42.332H231.136v-8.48h12.68V28.2h-12.68V21.129H245.8V14.945H224.041Zm1.337-37.279c0-7.471,1.831-4.715,9.545-4.715s9.544-2.756,9.544,4.715v.778h5.2V10.068C249.669,3.026,246.647,0,234.923,0s-14.748,3.026-14.748,10.068v1.982h5.2Z" transform="translate(-195.826)" fill="#fff"/>
</svg>
