<svg xmlns="http://www.w3.org/2000/svg" width="151.597" height="45.533" viewBox="0 0 151.597 45.533">
  <g id="Enterprise-Kombi" transform="translate(-946.138)">
    <path id="path46" d="M616.082,21.915V19.257h-5.524c-1.252,0-1.68-.611-1.68-1.8V.154h-3.119V17.636a3.949,3.949,0,0,0,4.249,4.278Z" transform="translate(379.323 0.097)" fill="#fff"/>
    <path id="path48" d="M623.162,10.557h-6.968a4.928,4.928,0,0,1,.4-2.109,3.238,3.238,0,0,1,3.088-1.956,3.193,3.193,0,0,1,3.056,1.956,4.892,4.892,0,0,1,.428,2.109Zm3.088,2.17V11.351c0-4.4-2.415-7.457-6.571-7.457-3.973,0-6.571,2.9-6.571,7.916,0,5.9,3.086,7.947,6.968,7.947a7.271,7.271,0,0,0,5.807-2.414l-1.987-1.864a4.626,4.626,0,0,1-3.758,1.589c-2.537,0-3.943-1.682-3.943-4.34Z" transform="translate(383.924 2.438)" fill="#fff"/>
    <path id="path50" d="M626.338,4.007H623.22V19.5h3.117Z" transform="translate(390.256 2.509)" fill="#fff"/>
    <path id="path52" d="M637.209,11.809c0,2.751-.4,5.166-3.21,5.166s-3.239-2.414-3.239-5.166.428-5.135,3.239-5.135S637.209,9.058,637.209,11.809Zm3.117,0c0-2.353-.184-4.982-1.742-6.541a5.362,5.362,0,0,0-3.79-1.375A4.766,4.766,0,0,0,630.7,5.727V4.077h-3.057V25.838h3.117V17.983a4.821,4.821,0,0,0,4.065,1.773,5.288,5.288,0,0,0,3.76-1.375C640.142,16.821,640.326,14.163,640.326,11.809Z" transform="translate(393.024 2.438)" fill="#fff"/>
    <path id="path54" d="M648.411,19.5V16.721h-7.765l7.765-10.239V4.007H637.285V6.788h7.274l-7.7,10.239V19.5Z" transform="translate(398.794 2.509)" fill="#fff"/>
    <path id="path56" d="M649.178,4.007H646.06V19.5h3.117Z" transform="translate(404.556 2.509)" fill="#fff"/>
    <path id="path58" d="M659.312,11.535c0,2.445-.337,4.86-3.148,4.86s-3.177-2.414-3.177-4.86.366-4.86,3.177-4.86S659.312,9.09,659.312,11.535Zm3.117,7.947V4.078H659.4v1.65a4.749,4.749,0,0,0-4.065-1.834,5.189,5.189,0,0,0-3.729,1.346c-1.5,1.5-1.742,3.668-1.742,6.3s.244,4.8,1.742,6.3a5.127,5.127,0,0,0,3.7,1.376,4.776,4.776,0,0,0,4-1.773v1.987c0,2.078-1.008,3.942-3.636,3.942a4.36,4.36,0,0,1-3.363-1.375l-1.985,1.986a7.161,7.161,0,0,0,5.47,2.047,6.216,6.216,0,0,0,6.631-6.54Z" transform="translate(406.941 2.438)" fill="#fff"/>
    <path id="path60" d="M669.749,10.557h-6.968a4.88,4.88,0,0,1,.4-2.109,3.234,3.234,0,0,1,3.086-1.956,3.2,3.2,0,0,1,3.057,1.956,4.915,4.915,0,0,1,.428,2.109Zm3.086,2.17V11.351c0-4.4-2.415-7.457-6.571-7.457-3.974,0-6.571,2.9-6.571,7.916,0,5.9,3.088,7.947,6.968,7.947a7.271,7.271,0,0,0,5.807-2.414l-1.985-1.864a4.631,4.631,0,0,1-3.76,1.589c-2.538,0-3.942-1.682-3.942-4.34Z" transform="translate(413.092 2.438)" fill="#fff"/>
    <path id="path62" d="M678.318,4.007V6.666h-3.725c-1.254,0-1.681.611-1.681,1.8V19.5h-3.117V8.285a3.95,3.95,0,0,1,4.249-4.278h4.275Z" transform="translate(419.417 2.509)" fill="#fff"/>
    <path id="path64" d="M626.462.1h-3.3V3.4h3.3Z" transform="translate(390.219 0.061)" fill="#fff"/>
    <path id="path66" d="M649.306.1h-3.3V3.4h3.3Z" transform="translate(404.522 0.061)" fill="#fff"/>
    <path id="path68" d="M581.81,0h6.466V32.375a6.465,6.465,0,0,0,6.465,6.465h12.9V45.3h-12.9a12.93,12.93,0,0,1-12.931-12.93Z" transform="translate(364.328)" fill="#fff"/>
    <path id="path70" d="M609.381,32.26a4.617,4.617,0,0,1-3.621-1.437l.581-.581a3.822,3.822,0,0,0,3.088,1.284c1.725,0,2.8-.824,2.8-2.246a1.894,1.894,0,0,0-.6-1.527,2.625,2.625,0,0,0-1.572-.581l-1.268-.2a3.7,3.7,0,0,1-1.94-.795,2.471,2.471,0,0,1-.857-2c0-1.833,1.283-2.98,3.377-2.98a4.3,4.3,0,0,1,3.132,1.177l-.535.534a3.453,3.453,0,0,0-2.642-1.008c-1.589,0-2.521.856-2.521,2.246a1.744,1.744,0,0,0,.564,1.421,3.637,3.637,0,0,0,1.62.672l1.176.184a3.312,3.312,0,0,1,1.942.718,2.671,2.671,0,0,1,.946,2.109C613.048,31.1,611.657,32.26,609.381,32.26Z" transform="translate(379.323 13.272)" fill="#fff"/>
    <path id="path72" d="M612.206,29.761V24.9H611.2v-.581h1.008V21.968h.779v2.354h1.667V24.9h-1.667v4.874c0,.779.351,1.222,1.132,1.222h.535v.687h-.673a1.72,1.72,0,0,1-1.773-1.925Z" transform="translate(382.728 13.755)" fill="#fff"/>
    <path id="path74" d="M619.307,30.082a2.743,2.743,0,0,1-2.246.825,2.706,2.706,0,0,1-2.169-.672,2.038,2.038,0,0,1-.535-1.437c0-1.344.963-2.123,2.566-2.123h2.384v-.825c0-1.176-.564-1.8-2.077-1.8a2.116,2.116,0,0,0-2.033.932l-.566-.488a2.785,2.785,0,0,1,2.6-1.131c1.956,0,2.857.87,2.857,2.413v5.042h-.78Zm-2.291-2.78c-1.252,0-1.88.488-1.88,1.482,0,.977.581,1.437,1.925,1.437a2.446,2.446,0,0,0,1.834-.566,1.909,1.909,0,0,0,.411-1.406V27.3Z" transform="translate(384.706 14.626)" fill="#fff"/>
    <path id="path76" d="M624.164,31.186a2.445,2.445,0,0,1-2.185,1.038,2.545,2.545,0,0,1-1.8-.641,4.415,4.415,0,0,1-.948-3.133,4.413,4.413,0,0,1,.948-3.132,2.543,2.543,0,0,1,1.8-.642,2.443,2.443,0,0,1,2.185,1.038V21.254h.779V32.133h-.779Zm-2.078-5.822c-1.8,0-2.078,1.559-2.078,3.087s.275,3.087,2.078,3.087,2.078-1.559,2.078-3.087-.275-3.087-2.078-3.087Z" transform="translate(387.756 13.308)" fill="#fff"/>
    <path id="path78" d="M625.065,29.761V24.9h-1.008v-.581h1.008V21.968h.781v2.354h1.665V24.9h-1.665v4.874c0,.779.351,1.222,1.13,1.222h.535v.687h-.672a1.72,1.72,0,0,1-1.774-1.925Z" transform="translate(390.779 13.755)" fill="#fff"/>
    <path id="path80" d="M634.142,30.779l-2.078-6.142-2.078,6.142h-.794l-2.355-7.364h.857l1.88,6.448,2.107-6.448h.764l2.109,6.448,1.88-6.448h.854l-2.351,7.364Z" transform="translate(392.52 14.661)" fill="#fff"/>
    <path id="path82" d="M637.156,30.2a2.569,2.569,0,0,0,2.034-.886l.58.458a3.346,3.346,0,0,1-2.659,1.13c-2.033,0-3.134-1.314-3.134-3.774,0-2.383,1.1-3.773,2.95-3.773s2.948,1.329,2.948,3.591V27.3h-5.119c0,1.879.826,2.9,2.4,2.9Zm1.681-4.92a2.092,2.092,0,0,0-3.82,0,3.977,3.977,0,0,0-.26,1.39h4.34a3.382,3.382,0,0,0-.26-1.39Z" transform="translate(396.992 14.625)" fill="#fff"/>
    <path id="path84" d="M644.8,28.084l-1.68,1.94v2.109h-.781V21.254h.781v7.67l3.652-4.155h.994l-2.429,2.749,2.963,4.615h-.963Z" transform="translate(402.225 13.308)" fill="#fff"/>
    <path id="path86" d="M649.906,30.2a2.569,2.569,0,0,0,2.034-.886l.581.458a3.346,3.346,0,0,1-2.659,1.13c-2.033,0-3.134-1.314-3.134-3.774,0-2.383,1.1-3.773,2.95-3.773s2.948,1.329,2.948,3.591V27.3h-5.119c0,1.879.826,2.9,2.4,2.9Zm1.681-4.92a2.092,2.092,0,0,0-3.82,0,3.982,3.982,0,0,0-.26,1.39h4.34a3.358,3.358,0,0,0-.26-1.39Z" transform="translate(404.975 14.625)" fill="#fff"/>
    <path id="path88" d="M640.771,23.415h1.766V24.1h-1.629c-.87,0-1.13.4-1.13,1.237v5.44H639V25.324c0-1.16.566-1.909,1.772-1.909Z" transform="translate(400.135 14.661)" fill="#fff"/>
  </g>
</svg>
