<svg xmlns="http://www.w3.org/2000/svg" xmlns:xlink="http://www.w3.org/1999/xlink" width="184.286" height="45.532" viewBox="0 0 184.286 45.532">
  <defs>
    <clipPath id="clip-path">
      <rect id="rect96" width="184.286" height="45.532" transform="translate(0)" fill="#fff"/>
    </clipPath>
  </defs>
  <g id="g8" clip-path="url(#clip-path)">
    <path id="path2" d="M245.782,19.918a5.3,5.3,0,0,1,5.1,3.1l-10.6,2.834A5.584,5.584,0,0,1,245.782,19.918Zm11.677,4.89c0-.019,0-.033,0-.052-.008-.035-.019-.079-.028-.116a13.916,13.916,0,0,0-.9-2.911h0c-.093-.236-.184-.468-.272-.661a10.423,10.423,0,0,0-10.1-6.271c-7.324,0-12.165,5.869-12.165,12.58,0,7.564,4.978,12.587,12.824,12.587a18.05,18.05,0,0,0,8.106-1.9.826.826,0,0,0,.442-.5l1.192-5.7c.093-.313-.088-.539-.286-.437-2.125,1.353-4.856,2.971-8.191,2.946-3.373-.025-6.127-1.409-6.992-3.785l15.879-4.225c.465-.164.676-.425.62-.854-.031-.236-.08-.47-.122-.7Zm70.982,15.158a19.351,19.351,0,0,1-9.893-2.857c-.224-.126-.459-.377-.413-.609l1.05-5.062c.018-.114.1-.2.213-.131,3.041,1.995,5.73,3.4,9.459,3.4,2.067,0,3.335-.794,3.335-1.927,0-1.266-.938-1.827-5.257-2.955-4.882-1.268-8.36-2.909-8.36-7.419,0-4.32,3.756-7.463,10.1-7.463a17.637,17.637,0,0,1,7.957,1.832.792.792,0,0,1,.452.744l-.981,4.716c-.031.149-.161.238-.291.16a15.561,15.561,0,0,0-7.415-2.242c-2.114,0-3.242.754-3.242,1.786,0,1.216,1.078,1.732,5.116,2.766,5.451,1.361,8.5,3.05,8.5,7.7,0,4.415-3.991,7.562-10.331,7.562ZM295.658,27.579c0,3.775,2.586,6.6,6.062,6.6,3.615,0,6.108-2.973,6.108-6.7,0-3.773-2.586-6.557-6.061-6.557-3.615,0-6.109,2.921-6.109,6.651ZM301.712,14.8c8.171,0,12.96,6.054,12.96,12.58A12.648,12.648,0,0,1,301.667,40.1a12.47,12.47,0,0,1-12.959-12.628,12.637,12.637,0,0,1,13-12.676Zm-24.907.657h6.617a.235.235,0,0,1,.236.234V39.213a.238.238,0,0,1-.236.236H276.8a.239.239,0,0,1-.239-.236V15.69a.236.236,0,0,1,.239-.234Zm3.332-3.336a3.894,3.894,0,1,1,4.108-3.891A3.946,3.946,0,0,1,280.137,12.12ZM262.656,5.685l6.62-1.747a.236.236,0,0,1,.3.226V39.212a.237.237,0,0,1-.236.236h-6.622a.237.237,0,0,1-.236-.236V5.915a.238.238,0,0,1,.176-.23ZM222.271,26.256h-15.5V39.215a.236.236,0,0,1-.236.236H199.4a.236.236,0,0,1-.236-.236V6.813a.236.236,0,0,1,.236-.234h7.14a.236.236,0,0,1,.236.234V19.306h15.5V6.813a.236.236,0,0,1,.236-.234H229.6a.236.236,0,0,1,.236.234v32.4a.236.236,0,0,1-.236.236h-7.093a.236.236,0,0,1-.236-.236Z" transform="translate(-155.772 2.46)" fill="#fff"/>
    <path id="path4" d="M197.686,12.317c-.507-2.5-1.182-4.1-3.078-3.835-1.4.2-2,1.483-1.855,2.984.411,4.26.662,8.273-.418,12.526-.473,1.863-1.524,7.075-4.856,6.05-2.418-.742-1.912-3.963-1.774-5.636.5-3.51-.66-4.285-1.722-4.463-1.472-.247-2.589.477-3.07,3.336-.2.924-1.8,8.6-1.878,9.388a14.668,14.668,0,0,0,.753,5.3.52.52,0,0,0,.4.389c5.039,1.067,10.306.7,14.11-1.527a1.37,1.37,0,0,0,.42-.4c2.1-3.031,3.059-7.651,3.571-11.248a34.9,34.9,0,0,0-.6-12.866Z" transform="translate(-168.4 5.293)" fill="#fff"/>
    <path id="path6" d="M174.21,27.416c.509,2.5,1.185,4.1,3.082,3.835,1.394-.2,1.992-1.483,1.855-2.982-.413-4.26-.665-8.273.415-12.525.475-1.863,1.524-7.073,4.859-6.05,2.415.74,1.911,3.964,1.772,5.636-.5,3.508.659,4.287,1.722,4.463,1.473.249,2.587-.475,3.067-3.338.2-.922,1.8-8.6,1.881-9.388a14.693,14.693,0,0,0-.753-5.3.52.52,0,0,0-.4-.389C186.674.312,181.4.679,177.6,2.906a1.371,1.371,0,0,0-.421.4c-2.1,3.031-3.057,7.651-3.568,11.25a34.84,34.84,0,0,0,.6,12.862Z" transform="translate(-171.983 0.503)" fill="#fff"/>
  </g>
</svg>
