<svg xmlns="http://www.w3.org/2000/svg" xmlns:xlink="http://www.w3.org/1999/xlink" width="95.032" height="49.113" viewBox="0 0 95.032 49.113">
  <defs>
    <clipPath id="clip-path">
      <rect id="rect111" width="95.032" height="49.113" fill="#fff"/>
    </clipPath>
  </defs>
  <g id="g84" clip-path="url(#clip-path)">
    <path id="path76" d="M340.895,1.959a1.958,1.958,0,1,1,3.917,0,1.959,1.959,0,0,1-3.917,0Zm3.917,31.078v2.04h-3.917v-2.04Zm21.2,0a13.047,13.047,0,0,1-14.009,0Zm6.628,0V35c-.081,7.81-6.172,14.117-13.634,14.117-7.486,0-13.552-6.307-13.632-14.117h3.89c.081,5.663,4.429,10.225,9.742,10.225s9.663-4.562,9.77-10.225V33.037Zm21.174,0a13.047,13.047,0,0,1-14.009,0Zm6.628,0v2.04h-3.917v-2.04Zm19.457,0a16.147,16.147,0,0,1-8.025,1.906,13.122,13.122,0,0,1-7-1.906Z" transform="translate(-334.693)" fill="#fff"/>
    <path id="path78" d="M344.812,12.757V23.438h-3.917V12.757Zm4.536,0a9.672,9.672,0,0,0,19.27,0h4V23.438h-3.892V21.184a12.888,12.888,0,0,1-2.736,2.254H351.979a14.273,14.273,0,0,1-6.55-10.681Zm27.8,0a9.671,9.671,0,0,0,19.268,0h4V23.438H396.5V21.211a13.467,13.467,0,0,1-2.71,2.227H379.808A14.349,14.349,0,0,1,373.26,12.73Zm46.133,0a8.424,8.424,0,0,1,.644,3.382,7.989,7.989,0,0,1-4.025,7.327H404.875a8.121,8.121,0,0,1-4.08-7.408l3.892.242c-.135,2.281,2.147,5.18,7.192,5.18,4.966,0,8.133-1.691,8.133-5.287a3.112,3.112,0,0,0-2.47-3.408Z" transform="translate(-334.693 9.599)" fill="#fff"/>
    <path id="path80" d="M343.559,20.891v-.242h-6.2v-.805h6.2V5.03h3.89V19.817h.539v-.51c0-7.89,6.118-14.277,13.632-14.277a13.263,13.263,0,0,1,9.742,4.294V5.03h3.892V19.817h.537V5.03h3.89V19.79h19.485V5.03h3.917V19.79h6.174c-3.759-.778-5.341-3.3-5.341-7.515,0-3.247,3.81-7.3,10.6-7.3,4.643,0,11.166,2.737,10.682,7.971l-3.892-.349c.109-1.235-2.254-3.73-6.79-3.73-5.5,0-6.709,3.086-6.709,3.408,0,2.925.591,3.891,4.322,3.891,6.092,0,11,.563,13.176,3.65h7.086v.805h-6.576c.026.081.081.161.107.242H420.18a4.086,4.086,0,0,0-.912-.242H403.084v.242h-3.971c0-.081.026-.161.026-.242H379.79c0,.081.026.161.026.242H375.9c0-.081-.026-.161-.026-.242h-.591v.242h-4c0-.081.028-.161.028-.242H351.986c0,.081.028.161.028.242H348.1c0-.081-.028-.161-.028-.242h-.589v.242h-3.919Zm59.552-1.718v0Zm-23.4,0v0Zm-27.8.134v.51h19.485v-.51c0-5.743-4.376-10.413-9.77-10.413C356.253,8.894,351.905,13.564,351.905,19.307ZM424.151,4.09h.323l.563.912h.4l-.617-.966a.542.542,0,0,0,.563-.591c0-.429-.268-.617-.777-.617h-.833V5h.349V4.09Zm0-.3V3.151h.43c.216,0,.484.027.484.3,0,.322-.242.349-.51.349Zm2.282.107a1.919,1.919,0,1,0-3.838,0,1.919,1.919,0,1,0,3.838,0Zm-.4,0a1.511,1.511,0,0,1-1.5,1.61,1.5,1.5,0,0,1-1.5-1.61,1.527,1.527,0,0,1,1.5-1.61A1.5,1.5,0,0,1,426.03,3.9Z" transform="translate(-337.359 1.465)" fill="#fff"/>
    <path id="path82" d="M359.469,23.4h.589v.376a.917.917,0,0,1,.859-.456c.886,0,1.287.671,1.287,1.476,0,.752-.375,1.449-1.18,1.449a1.072,1.072,0,0,1-.912-.429v1.369H359.5V23.4Zm1.368.4c-.51,0-.779.4-.779.966s.3.966.779.966c.563,0,.752-.483.752-.966A.828.828,0,0,0,360.837,23.8Zm1.9-1.476h.617v3.838h-.617Zm3.6,3.22c0,.161.026.215.133.215h.161v.429a1.852,1.852,0,0,1-.375.081.424.424,0,0,1-.484-.349,1.425,1.425,0,0,1-.965.349c-.51,0-.94-.268-.94-.805,0-.7.537-.805,1.073-.859.43-.081.831-.027.831-.4,0-.322-.321-.376-.563-.376-.349,0-.589.134-.617.429h-.617c.054-.7.644-.912,1.261-.912.537,0,1.1.215,1.1.805Zm-.617-.778a2.072,2.072,0,0,1-.752.161c-.268.054-.482.134-.482.456,0,.268.349.349.563.349.268,0,.7-.134.7-.537v-.429h-.026Zm1.743.51c.028.349.3.483.617.483.242,0,.644-.054.617-.376s-.456-.349-.912-.456-.886-.268-.886-.832c0-.617.644-.805,1.154-.805a1.028,1.028,0,0,1,1.154.859h-.644c-.054-.3-.3-.376-.565-.376-.16,0-.509.054-.509.3,0,.3.456.349.912.429.456.108.886.268.886.805,0,.644-.672.913-1.235.913-.7,0-1.208-.322-1.235-.966h.644Zm2.04-1.879h.456v-.832h.617V23.4h.563v.456h-.563v1.476c0,.242.028.376.3.376a.993.993,0,0,0,.267-.027v.483c-.133,0-.268.027-.4.027-.644,0-.751-.241-.779-.7V23.853h-.456Zm2.066-1.073h.617v.59h-.617Zm0,1.073h.617v2.764h-.617Zm3.141.912a.6.6,0,0,0-.646-.51c-.321,0-.751.161-.751.993,0,.456.214.939.724.939a.693.693,0,0,0,.672-.644h.617a1.177,1.177,0,0,1-1.263,1.1,1.3,1.3,0,0,1-1.342-1.423,1.326,1.326,0,0,1,1.37-1.476,1.105,1.105,0,0,1,1.235.993h-.617v.027Zm1.556.966c.026.349.295.483.617.483.242,0,.644-.054.617-.376s-.456-.349-.912-.456-.886-.268-.886-.832c0-.617.644-.805,1.154-.805a1.028,1.028,0,0,1,1.154.859h-.646c-.053-.3-.295-.376-.563-.376-.188,0-.51.054-.51.3,0,.3.456.349.886.429.456.108.912.268.912.805,0,.644-.67.913-1.233.913-.7,0-1.208-.322-1.235-.966h.644v.027Zm3.543-1.879h.456v-.242c0-.7.375-.832.777-.832a1.9,1.9,0,0,1,.43.027v.483a.918.918,0,0,0-.295-.027c-.161,0-.295.054-.295.3v.3h.509v.456h-.509v2.308h-.617V23.853h-.456Zm1.824,1.369a1.4,1.4,0,1,1,2.791,0,1.4,1.4,0,1,1-2.791,0Zm2.2,0c0-.483-.242-.966-.779-.966s-.779.51-.779.966c0,.483.242.993.779.993S383.838,25.249,383.838,24.765Zm1.1-1.369h.563v.537a.906.906,0,0,1,.805-.618.521.521,0,0,1,.242.027v.59c-.081,0-.188-.027-.268-.027-.4,0-.751.349-.751.939v1.315h-.617V23.4Zm3.408-1.073h.617v3.838h-.617Zm1.128,2.442a1.4,1.4,0,1,1,2.791,0,1.4,1.4,0,1,1-2.791,0Zm2.2,0c0-.483-.24-.966-.777-.966s-.779.51-.779.966c0,.483.242.993.779.993C391.4,25.758,391.673,25.249,391.673,24.765Zm1.1-1.369h.589v.4a.993.993,0,0,1,.859-.483.869.869,0,0,1,.966.939v1.906h-.617V24.417c0-.43-.188-.617-.537-.617a.678.678,0,0,0-.672.724v1.637h-.617V23.4ZM398.41,26c0,.832-.482,1.235-1.368,1.235-.565,0-1.182-.215-1.235-.859h.617c.081.349.349.4.67.4a.613.613,0,0,0,.7-.7v-.43a.947.947,0,0,1-.831.483c-.886,0-1.235-.671-1.235-1.449a1.278,1.278,0,0,1,1.261-1.4.873.873,0,0,1,.831.456V23.37h.617V26Zm-.617-1.288c0-.483-.214-.912-.751-.912s-.724.51-.724.966.214.913.724.913c.537,0,.751-.51.751-.966Zm1.691.215a.754.754,0,0,0,.751.832.649.649,0,0,0,.672-.456h.589a1.2,1.2,0,0,1-1.261.939,1.332,1.332,0,0,1-1.368-1.449,1.344,1.344,0,1,1,2.657.161h-2.04Zm1.449-.4a.734.734,0,0,0-.7-.725.722.722,0,0,0-.724.725Zm1.073-1.127h.565v.537a.9.9,0,0,1,.805-.618.517.517,0,0,1,.24.027v.59c-.081,0-.188-.027-.268-.027-.43,0-.751.349-.751.939v1.315h-.617V23.4Zm3.382-1.073H406v3.838h-.617Zm1.287,0h.617v.59h-.617Zm0,1.073h.617v2.764h-.617Zm.995,0h.456v-.242c0-.7.375-.832.751-.832a1.912,1.912,0,0,1,.43.027v.483a.829.829,0,0,0-.268-.027c-.161,0-.295.054-.295.3v.3h.509v.456h-.509v2.308h-.617V23.853h-.456Zm2.442,1.53a.754.754,0,0,0,.751.832.649.649,0,0,0,.672-.456h.589a1.2,1.2,0,0,1-1.261.939,1.312,1.312,0,0,1-1.342-1.449,1.355,1.355,0,0,1,1.342-1.449,1.369,1.369,0,0,1,1.316,1.61h-2.066Zm1.423-.4a.734.734,0,0,0-.7-.725.721.721,0,0,0-.724.725Z" transform="translate(-320.688 16.832)" fill="#fff"/>
  </g>
</svg>
