<svg xmlns="http://www.w3.org/2000/svg" xmlns:xlink="http://www.w3.org/1999/xlink" width="140" height="40" viewBox="0 0 140 40">
  <defs>
    <clipPath id="clip-path">
      <rect id="Rectangle_343" data-name="Rectangle 343" width="27.5" height="40" fill="#fff"/>
    </clipPath>
  </defs>
  <g id="Group_221" data-name="Group 221" transform="translate(-918 -6191)">
    <g id="Group_191" data-name="Group 191" transform="translate(918 6191)" opacity="0.56">
      <g id="Group_190" data-name="Group 190" clip-path="url(#clip-path)">
        <path id="Path_224" data-name="Path 224" d="M13.75,0a7.5,7.5,0,0,0-7.5,7.5V20a7.5,7.5,0,0,0,15,0V7.5A7.5,7.5,0,0,0,13.75,0m-10,16.875a1.875,1.875,0,0,0-3.75,0V20A13.755,13.755,0,0,0,11.875,33.625V36.25H8.125a1.875,1.875,0,0,0,0,3.75h11.25a1.875,1.875,0,0,0,0-3.75h-3.75V33.625A13.755,13.755,0,0,0,27.5,20V16.875a1.875,1.875,0,0,0-3.75,0V20a10,10,0,0,1-20,0Z" fill="#fff"/>
      </g>
    </g>
    <g id="Group_189" data-name="Group 189" transform="translate(47 4)">
      <circle id="Ellipse_135" data-name="Ellipse 135" cx="12" cy="12" r="12" transform="translate(923 6195)" fill="#fff" opacity="0.56"/>
      <circle id="Ellipse_136" data-name="Ellipse 136" cx="12" cy="12" r="12" transform="translate(955 6195)" fill="#fff" opacity="0.16"/>
      <circle id="Ellipse_137" data-name="Ellipse 137" cx="12" cy="12" r="12" transform="translate(987 6195)" fill="#fff" opacity="0.08"/>
    </g>
  </g>
</svg>
