<svg xmlns="http://www.w3.org/2000/svg" width="50.374" height="49.112" viewBox="0 0 50.374 49.112">
  <path id="path86" d="M157.481,0h-50.36V17.916h50.36Zm0,31.2h-50.36V49.112h50.36ZM111.33,22.19h-.521v1.336h.521c.649,0,.982-.236.982-.668S111.979,22.19,111.33,22.19Zm1.012,7.288h-5.236V19.93h5.245c2.3,0,3.576,1.022,3.576,2.6a1.929,1.929,0,0,1-1.7,1.974c1.493.265,2.21,1.012,2.21,2.269,0,1.768-1.386,2.7-4.1,2.7Zm-.875-3.89h-.658V27.12h.658c.816,0,1.228-.285,1.228-.766S112.283,25.588,111.467,25.588Zm5.42-5.668h3.94v5.216c0,1,.167,1.591,1.089,1.591.9,0,1.1-.589,1.1-1.591V19.92h3.94v5.186a4.5,4.5,0,0,1-.649,2.78,6.165,6.165,0,0,1-8.8,0,4.589,4.589,0,0,1-.63-2.78V19.92Zm14.746,0h-3.861v9.557h3.8l.011-4.96,3.241,4.96h3.9V19.92h-3.8l-.011,5Zm11.819,2.849h-3.841V19.92h14.027v6.453h3.841v3.1h-7.79V19.962l-4.559,6.578h4.048v2.937H138.727Z" transform="translate(-107.107)" fill="#fff" fill-rule="evenodd"/>
</svg>
