<svg width="79" height="79" viewBox="0 0 79 79" fill="none" xmlns="http://www.w3.org/2000/svg">
<path d="M39.292 2.79965e-05C39.1104 -0.00137774 38.9324 0.0501825 38.7796 0.148399C38.6269 0.246615 38.5061 0.387227 38.432 0.553028L37.554 2.48403L34.878 2.90003C34.7058 2.9268 34.5444 3.00067 34.4115 3.11347C34.2787 3.22627 34.1797 3.3736 34.1253 3.53918C34.071 3.70476 34.0635 3.88214 34.1037 4.05171C34.1439 4.22128 34.2302 4.37644 34.353 4.50003L36.17 6.30603L35.792 8.56603C35.7633 8.7407 35.7842 8.91992 35.8523 9.08329C35.9205 9.24666 36.0332 9.3876 36.1775 9.49006C36.3219 9.59251 36.4921 9.65236 36.6688 9.66279C36.8455 9.67321 37.0216 9.6338 37.177 9.54903L39.297 8.39503L41.417 9.55303C41.5725 9.63763 41.7487 9.67679 41.9254 9.66605C42.1021 9.6553 42.2723 9.59508 42.4164 9.49225C42.5605 9.38943 42.6728 9.24815 42.7405 9.08455C42.8081 8.92094 42.8284 8.74161 42.799 8.56703L42.419 6.31003L44.231 4.50003C44.3539 4.37644 44.4402 4.22128 44.4803 4.05171C44.5205 3.88214 44.513 3.70476 44.4587 3.53918C44.4044 3.3736 44.3053 3.22627 44.1725 3.11347C44.0396 3.00067 43.8782 2.9268 43.706 2.90003L41.03 2.49103L40.152 0.557028C40.0788 0.390324 39.9583 0.248732 39.8054 0.149744C39.6526 0.0507556 39.4741 -0.00129289 39.292 2.79965e-05ZM22.399 5.32403C22.2178 5.32244 22.04 5.37396 21.8877 5.47224C21.7354 5.57051 21.6153 5.71123 21.542 5.87703L20.664 7.80803L17.988 8.22103C17.8158 8.2478 17.6544 8.32167 17.5215 8.43447C17.3887 8.54727 17.2897 8.6946 17.2353 8.86018C17.181 9.02576 17.1735 9.20314 17.2137 9.37271C17.2539 9.54228 17.3402 9.69744 17.463 9.82103L19.263 11.633L18.889 13.893C18.8603 14.0677 18.8812 14.2469 18.9493 14.4103C19.0175 14.5737 19.1302 14.7146 19.2745 14.8171C19.4189 14.9195 19.5891 14.9794 19.7658 14.9898C19.9425 15.0002 20.1186 14.9608 20.274 14.876L22.394 13.718L24.514 14.876C24.6694 14.9608 24.8455 15.0002 25.0222 14.9898C25.1989 14.9794 25.3691 14.9195 25.5135 14.8171C25.6579 14.7146 25.7705 14.5737 25.8387 14.4103C25.9068 14.2469 25.9277 14.0677 25.899 13.893L25.521 11.633L27.333 9.82103C27.4566 9.69774 27.5435 9.54257 27.5841 9.37279C27.6248 9.20301 27.6174 9.02529 27.563 8.85943C27.5086 8.69356 27.4092 8.54606 27.2759 8.43334C27.1426 8.32063 26.9806 8.24713 26.808 8.22103L24.137 7.81003L23.259 5.87603C23.185 5.71026 23.0642 5.56971 22.9114 5.47165C22.7586 5.37359 22.5805 5.32228 22.399 5.32403ZM56.187 5.32403C56.0049 5.32235 55.8262 5.37375 55.6727 5.47195C55.5193 5.57016 55.3978 5.71091 55.323 5.87703L54.444 7.81003L51.768 8.22303C51.5954 8.24913 51.4334 8.32263 51.3001 8.43534C51.1668 8.54806 51.0674 8.69556 51.013 8.86143C50.9586 9.02729 50.9513 9.20501 50.9919 9.37479C51.0325 9.54456 51.1194 9.69974 51.243 9.82303L53.055 11.635L52.677 13.895C52.6483 14.0697 52.6692 14.2489 52.7373 14.4123C52.8055 14.5757 52.9182 14.7166 53.0625 14.8191C53.2069 14.9215 53.3771 14.9814 53.5538 14.9918C53.7305 15.0022 53.9066 14.9628 54.062 14.878L56.182 13.72L58.302 14.878C58.4574 14.9628 58.6335 15.0022 58.8102 14.9918C58.9869 14.9814 59.1571 14.9215 59.3015 14.8191C59.4459 14.7166 59.5585 14.5757 59.6267 14.4123C59.6948 14.2489 59.7158 14.0697 59.687 13.895L59.313 11.635L61.121 9.82303C61.2446 9.69974 61.3315 9.54456 61.3721 9.37479C61.4128 9.20501 61.4054 9.02729 61.351 8.86143C61.2966 8.69556 61.1972 8.54806 61.0639 8.43534C60.9306 8.32263 60.7686 8.24913 60.596 8.22303L57.921 7.81003L57.043 5.87603C56.9697 5.71034 56.8495 5.56976 56.6972 5.47165C56.5449 5.37355 56.3682 5.32223 56.187 5.32403ZM10.034 17.691C9.8524 17.6895 9.67428 17.741 9.52152 17.8392C9.36875 17.9375 9.24798 18.0781 9.17401 18.244L8.29601 20.175L5.62001 20.588C5.44782 20.6148 5.28638 20.6887 5.15354 20.8015C5.02071 20.9143 4.92165 21.0616 4.86732 21.2272C4.81299 21.3928 4.8055 21.5701 4.84568 21.7397C4.88587 21.9093 4.97216 22.0644 5.09501 22.188L6.90401 24L6.52601 26.26C6.49701 26.4348 6.51769 26.6143 6.58568 26.7779C6.65368 26.9415 6.76627 27.0828 6.91062 27.1855C7.05497 27.2883 7.22528 27.3484 7.40214 27.3591C7.57901 27.3698 7.75533 27.3306 7.91101 27.246L10.031 26.088L12.154 27.246C12.3095 27.3306 12.4857 27.3698 12.6624 27.359C12.8391 27.3483 13.0093 27.2881 13.1534 27.1853C13.2975 27.0824 13.4098 26.9411 13.4775 26.7775C13.5451 26.6139 13.5654 26.4346 13.536 26.26L13.161 24L14.97 22.189C15.0929 22.0654 15.1792 21.9103 15.2193 21.7407C15.2595 21.5711 15.252 21.3938 15.1977 21.2282C15.1434 21.0626 15.0443 20.9153 14.9115 20.8025C14.7786 20.6897 14.6172 20.6158 14.445 20.589L11.77 20.175L10.892 18.244C10.8182 18.0785 10.6977 17.938 10.5453 17.8398C10.393 17.7416 10.2153 17.6899 10.034 17.691ZM68.551 17.691C68.3689 17.6895 68.1902 17.7409 68.0368 17.8391C67.8834 17.9373 67.7619 18.078 67.687 18.244L66.809 20.175L64.133 20.588C63.9608 20.6148 63.7994 20.6887 63.6665 20.8015C63.5337 20.9143 63.4346 21.0616 63.3803 21.2272C63.326 21.3928 63.3185 21.5701 63.3587 21.7397C63.3989 21.9093 63.4852 22.0644 63.608 22.188L65.42 24L65.046 26.26C65.0166 26.4346 65.0369 26.6139 65.1046 26.7775C65.1722 26.9411 65.2845 27.0824 65.4286 27.1853C65.5728 27.2881 65.7429 27.3483 65.9196 27.359C66.0963 27.3698 66.2725 27.3306 66.428 27.246L68.551 26.088L70.671 27.246C70.8267 27.3306 71.003 27.3698 71.1799 27.3591C71.3568 27.3484 71.5271 27.2883 71.6714 27.1855C71.8158 27.0828 71.9283 26.9415 71.9963 26.7779C72.0643 26.6143 72.085 26.4348 72.056 26.26L71.678 24L73.49 22.192C73.6129 22.0684 73.6992 21.9133 73.7393 21.7437C73.7795 21.5741 73.772 21.3968 73.7177 21.2312C73.6634 21.0656 73.5643 20.9183 73.4315 20.8055C73.2987 20.6927 73.1372 20.6188 72.965 20.592L70.289 20.179L69.411 18.248C69.3378 18.0813 69.2173 17.9397 69.0644 17.8407C68.9116 17.7418 68.7331 17.6897 68.551 17.691ZM39.293 17.908C36.4464 17.9186 33.7194 19.054 31.7064 21.0667C29.6935 23.0795 28.5578 25.8064 28.547 28.653V32.735C26.9842 33.2915 25.6304 34.3154 24.6694 35.6676C23.7083 37.0199 23.1866 38.6351 23.175 40.294V49.248C23.1858 51.3821 24.0383 53.4257 25.5473 54.9347C27.0564 56.4437 29.1 57.2963 31.234 57.307H47.351C49.4851 57.2963 51.5287 56.4437 53.0377 54.9347C54.5467 53.4257 55.3992 51.3821 55.41 49.248V40.294C55.3984 38.6351 54.8767 37.0199 53.9157 35.6676C52.9546 34.3154 51.6009 33.2915 50.038 32.735V28.653C50.0272 25.8064 48.8915 23.0795 46.8786 21.0667C44.8656 19.054 42.1396 17.9186 39.293 17.908ZM39.293 23.28C39.9999 23.2748 40.7008 23.4102 41.3549 23.6784C42.009 23.9465 42.6033 24.342 43.1032 24.8419C43.603 25.3418 43.9985 25.936 44.2667 26.5901C44.5348 27.2442 44.6702 27.9451 44.665 28.652V32.234H33.92V28.653C33.9148 27.9461 34.0502 27.2452 34.3184 26.5911C34.5865 25.937 34.982 25.3428 35.4819 24.8429C35.9817 24.343 36.576 23.9475 37.2301 23.6794C37.8842 23.4112 38.5851 23.2758 39.292 23.281L39.293 23.28ZM5.50801 34.582C5.32588 34.5805 5.14723 34.6319 4.99383 34.7301C4.84042 34.8283 4.71888 34.969 4.64401 35.135L3.77001 37.065L1.09801 37.478C0.925818 37.5048 0.764379 37.5787 0.631544 37.6915C0.498708 37.8043 0.39965 37.9516 0.345319 38.1172C0.290988 38.2828 0.283501 38.4601 0.323684 38.6297C0.363868 38.7993 0.450157 38.9544 0.573014 39.078L2.38101 40.886L2.00701 43.146C1.97761 43.3206 1.9979 43.4999 2.06556 43.6635C2.13322 43.8271 2.24552 43.9684 2.38964 44.0713C2.53376 44.1741 2.70389 44.2343 2.88061 44.245C3.05732 44.2558 3.2335 44.2166 3.38901 44.132L5.50901 42.974L7.62901 44.132C7.78441 44.2168 7.9605 44.2562 8.13721 44.2458C8.31392 44.2354 8.48415 44.1755 8.6285 44.0731C8.77285 43.9706 8.88553 43.8297 8.95369 43.6663C9.02185 43.5029 9.04275 43.3237 9.01401 43.149L8.64001 40.889L10.448 39.077C10.5716 38.9537 10.6585 38.7986 10.6991 38.6288C10.7398 38.459 10.7324 38.2813 10.678 38.1154C10.6236 37.9496 10.5242 37.8021 10.3909 37.6893C10.2576 37.5766 10.0956 37.5031 9.92301 37.477L7.24701 37.064L6.37001 35.134C6.2964 34.9675 6.1754 34.8264 6.02211 34.7283C5.86882 34.6301 5.69002 34.5792 5.50801 34.582ZM73.077 34.582C72.8954 34.5805 72.7173 34.632 72.5645 34.7302C72.4118 34.8285 72.291 34.9691 72.217 35.135L71.339 37.069L68.663 37.482C68.4904 37.5081 68.3284 37.5816 68.1951 37.6943C68.0618 37.8071 67.9624 37.9546 67.908 38.1204C67.8536 38.2863 67.8463 38.464 67.8869 38.6338C67.9275 38.8036 68.0144 38.9587 68.138 39.082L69.946 40.894L69.572 43.154C69.5433 43.3287 69.5642 43.5079 69.6323 43.6713C69.7005 43.8347 69.8132 43.9756 69.9575 44.0781C70.1019 44.1805 70.2721 44.2404 70.4488 44.2508C70.6255 44.2612 70.8016 44.2218 70.957 44.137L73.077 42.979L75.197 44.137C75.3524 44.2218 75.5285 44.2612 75.7052 44.2508C75.8819 44.2404 76.0521 44.1805 76.1965 44.0781C76.3409 43.9756 76.4535 43.8347 76.5217 43.6713C76.5898 43.5079 76.6108 43.3287 76.582 43.154L76.204 40.894L78.016 39.082C78.1396 38.9587 78.2265 38.8036 78.2671 38.6338C78.3078 38.464 78.3004 38.2863 78.246 38.1204C78.1916 37.9546 78.0922 37.8071 77.9589 37.6943C77.8256 37.5816 77.6636 37.5081 77.491 37.482L74.815 37.069L73.937 35.135C73.8632 34.9691 73.7424 34.8283 73.5896 34.7301C73.4368 34.6318 73.2587 34.5804 73.077 34.582ZM31.234 37.607H47.351C47.7052 37.6016 48.0569 37.6674 48.3853 37.8005C48.7136 37.9336 49.0118 38.1312 49.2623 38.3817C49.5128 38.6322 49.7105 38.9305 49.8435 39.2588C49.9766 39.5871 50.0424 39.9388 50.037 40.293V49.247C50.0424 49.6012 49.9766 49.9529 49.8435 50.2813C49.7105 50.6096 49.5128 50.9078 49.2623 51.1583C49.0118 51.4088 48.7136 51.6065 48.3853 51.7396C48.0569 51.8726 47.7052 51.9384 47.351 51.933H31.234C30.8798 51.9384 30.5281 51.8726 30.1998 51.7396C29.8715 51.6065 29.5732 51.4088 29.3227 51.1583C29.0722 50.9078 28.8746 50.6096 28.7415 50.2813C28.6084 49.9529 28.5426 49.6012 28.548 49.247V40.294C28.5425 39.9397 28.6082 39.5879 28.7412 39.2595C28.8742 38.931 29.0718 38.6327 29.3223 38.3821C29.5729 38.1315 29.8712 37.9337 30.1995 37.8006C30.5279 37.6674 30.8797 37.6016 31.234 37.607ZM39.293 41.189C38.5843 41.188 37.8913 41.3973 37.3016 41.7903C36.7119 42.1833 36.252 42.7423 35.9801 43.3968C35.7082 44.0512 35.6366 44.7716 35.7742 45.4668C35.9119 46.1619 36.2526 46.8007 36.7534 47.3021C37.2541 47.8036 37.8924 48.1452 38.5874 48.2838C39.2823 48.4224 40.0028 48.3518 40.6576 48.0808C41.3124 47.8099 41.8722 47.3508 42.266 46.7616C42.6598 46.1724 42.87 45.4797 42.87 44.771C42.87 43.8217 42.4932 42.9112 41.8223 42.2396C41.1514 41.5679 40.2423 41.1901 39.293 41.189ZM10.034 51.476C9.85186 51.4744 9.67315 51.5258 9.51972 51.624C9.36629 51.7222 9.24478 51.8629 9.17001 52.029L8.29201 53.963L5.61601 54.372C5.44382 54.3988 5.28238 54.4727 5.14954 54.5855C5.01671 54.6983 4.91765 54.8456 4.86332 55.0112C4.80899 55.1768 4.8015 55.3541 4.84168 55.5237C4.88187 55.6933 4.96816 55.8484 5.09101 55.972L6.90301 57.784L6.52501 60.04C6.49601 60.2148 6.51669 60.3943 6.58468 60.5579C6.65268 60.7215 6.76527 60.8628 6.90962 60.9655C7.05397 61.0683 7.22427 61.1284 7.40114 61.1391C7.57801 61.1498 7.75433 61.1106 7.91001 61.026L10.03 59.868L12.153 61.026C12.3085 61.1106 12.4847 61.1498 12.6614 61.139C12.8381 61.1283 13.0083 61.0681 13.1524 60.9653C13.2965 60.8624 13.4088 60.7211 13.4765 60.5575C13.5441 60.3939 13.5644 60.2146 13.535 60.04L13.161 57.784L14.97 55.974C15.0929 55.8504 15.1792 55.6953 15.2193 55.5257C15.2595 55.3561 15.252 55.1788 15.1977 55.0132C15.1434 54.8476 15.0443 54.7003 14.9115 54.5875C14.7786 54.4747 14.6172 54.4008 14.445 54.374L11.77 53.963L10.892 52.029C10.8182 51.8635 10.6977 51.723 10.5453 51.6248C10.393 51.5266 10.2153 51.4749 10.034 51.476ZM68.551 51.476C68.3689 51.4745 68.1902 51.5259 68.0368 51.6241C67.8834 51.7223 67.7619 51.863 67.687 52.029L66.809 53.963L64.133 54.372C63.9608 54.3988 63.7994 54.4727 63.6665 54.5855C63.5337 54.6983 63.4346 54.8456 63.3803 55.0112C63.326 55.1768 63.3185 55.3541 63.3587 55.5237C63.3989 55.6933 63.4852 55.8484 63.608 55.972L65.42 57.784L65.046 60.04C65.0166 60.2146 65.0369 60.3939 65.1046 60.5575C65.1722 60.7211 65.2845 60.8624 65.4286 60.9653C65.5728 61.0681 65.7429 61.1283 65.9196 61.139C66.0963 61.1498 66.2725 61.1106 66.428 61.026L68.551 59.868L70.671 61.026C70.8267 61.1106 71.003 61.1498 71.1799 61.1391C71.3568 61.1284 71.5271 61.0683 71.6714 60.9655C71.8158 60.8628 71.9283 60.7215 71.9963 60.5579C72.0643 60.3943 72.085 60.2148 72.056 60.04L71.678 57.784L73.49 55.972C73.6129 55.8484 73.6992 55.6933 73.7393 55.5237C73.7795 55.3541 73.772 55.1768 73.7177 55.0112C73.6634 54.8456 73.5643 54.6983 73.4315 54.5855C73.2987 54.4727 73.1372 54.3988 72.965 54.372L70.289 53.963L69.411 52.029C69.3372 51.8631 69.2164 51.7223 69.0636 51.6241C68.9108 51.5258 68.7327 51.4744 68.551 51.476ZM22.399 63.844C22.2174 63.8425 22.0393 63.894 21.8865 63.9922C21.7338 64.0905 21.613 64.2312 21.539 64.397L20.661 66.328L17.985 66.741C17.8128 66.7678 17.6514 66.8417 17.5185 66.9545C17.3857 67.0673 17.2866 67.2146 17.2323 67.3802C17.178 67.5458 17.1705 67.7231 17.2107 67.8927C17.2509 68.0623 17.3372 68.2174 17.46 68.341L19.27 70.153L18.896 72.409C18.867 72.5838 18.8877 72.7633 18.9557 72.9269C19.0237 73.0905 19.1363 73.2318 19.2806 73.3345C19.425 73.4373 19.5953 73.4974 19.7721 73.5081C19.949 73.5188 20.1253 73.4796 20.281 73.395L22.401 72.237L24.521 73.395C24.6767 73.4796 24.853 73.5188 25.0299 73.5081C25.2068 73.4974 25.3771 73.4373 25.5214 73.3345C25.6658 73.2318 25.7783 73.0905 25.8463 72.9269C25.9143 72.7633 25.935 72.5838 25.906 72.409L25.528 70.153L27.34 68.341C27.4629 68.2174 27.5492 68.0623 27.5893 67.8927C27.6295 67.7231 27.622 67.5458 27.5677 67.3802C27.5134 67.2146 27.4143 67.0673 27.2815 66.9545C27.1486 66.8417 26.9872 66.7678 26.815 66.741L24.139 66.328L23.259 64.4C23.1856 64.2335 23.065 64.0921 22.9122 63.9933C22.7594 63.8945 22.581 63.8426 22.399 63.844ZM56.187 63.844C56.0049 63.8424 55.8262 63.8938 55.6727 63.992C55.5193 64.0902 55.3978 64.2309 55.323 64.397L54.445 66.328L51.77 66.74C51.5978 66.7668 51.4364 66.8407 51.3035 66.9535C51.1707 67.0663 51.0716 67.2136 51.0173 67.3792C50.963 67.5448 50.9555 67.7221 50.9957 67.8917C51.0359 68.0613 51.1222 68.2164 51.245 68.34L53.057 70.152L52.679 72.408C52.65 72.5828 52.6707 72.7623 52.7387 72.9259C52.8067 73.0895 52.9193 73.2308 53.0636 73.3335C53.208 73.4363 53.3783 73.4964 53.5551 73.5071C53.732 73.5178 53.9083 73.4786 54.064 73.394L56.184 72.236L58.304 73.394C58.4597 73.4786 58.636 73.5178 58.8129 73.5071C58.9898 73.4964 59.1601 73.4363 59.3044 73.3335C59.4488 73.2308 59.5613 73.0895 59.6293 72.9259C59.6973 72.7623 59.718 72.5828 59.689 72.408L59.315 70.152L61.123 68.34C61.2459 68.2164 61.3322 68.0613 61.3723 67.8917C61.4125 67.7221 61.405 67.5448 61.3507 67.3792C61.2964 67.2136 61.1973 67.0663 61.0645 66.9535C60.9316 66.8407 60.7702 66.7668 60.598 66.74L57.922 66.327L57.043 64.4C56.9703 64.2336 56.8504 64.0922 56.698 63.9933C56.5457 63.8945 56.3686 63.8426 56.187 63.844ZM39.292 68.37C39.1108 68.3678 38.9328 68.4185 38.78 68.5161C38.6272 68.6136 38.5063 68.7537 38.432 68.919L37.554 70.853L34.878 71.266C34.7054 71.2921 34.5434 71.3656 34.4101 71.4783C34.2768 71.5911 34.1774 71.7386 34.123 71.9044C34.0686 72.0703 34.0613 72.248 34.1019 72.4178C34.1425 72.5876 34.2294 72.7427 34.353 72.866L36.17 74.676L35.792 76.936C35.7633 77.1107 35.7842 77.2899 35.8523 77.4533C35.9205 77.6167 36.0332 77.7576 36.1775 77.8601C36.3219 77.9625 36.4921 78.0224 36.6688 78.0328C36.8455 78.0432 37.0216 78.0038 37.177 77.919L39.297 76.761L41.417 77.922C41.5725 78.0066 41.7487 78.0458 41.9254 78.035C42.1021 78.0243 42.2723 77.9641 42.4164 77.8613C42.5605 77.7584 42.6728 77.6172 42.7405 77.4536C42.8081 77.2899 42.8284 77.1106 42.799 76.936L42.425 74.676L44.237 72.868C44.3599 72.7444 44.4462 72.5893 44.4863 72.4197C44.5265 72.2501 44.519 72.0728 44.4647 71.9072C44.4104 71.7416 44.3113 71.5943 44.1785 71.4815C44.0457 71.3687 43.8842 71.2948 43.712 71.268L41.036 70.855L40.158 68.924C40.0839 68.7569 39.9623 68.6153 39.8083 68.5168C39.6543 68.4183 39.4748 68.3673 39.292 68.37Z" fill="#86ED18"/>
</svg>
