<svg xmlns="http://www.w3.org/2000/svg" xmlns:xlink="http://www.w3.org/1999/xlink" width="139.172" height="49.113" viewBox="0 0 139.172 49.113">
  <defs>
    <clipPath id="clip-path">
      <rect id="rect114" width="139.173" height="49.113" fill="#fff"/>
    </clipPath>
  </defs>
  <g id="g106" clip-path="url(#clip-path)">
    <path id="path90" d="M627.851,30.367A3.39,3.39,0,0,0,628.87,33a3.686,3.686,0,0,0,2.456.922,3.474,3.474,0,0,0,2.454-.945,3.348,3.348,0,0,0,1.019-2.605V10.722a3.168,3.168,0,0,0-1.065-2.606,3.454,3.454,0,0,0-5.883,2.606ZM631.372.185a9.339,9.339,0,0,1,3.775.738,10.7,10.7,0,0,1,3.219,2.167,9.824,9.824,0,0,1,2.177,3,12.633,12.633,0,0,1,.765,4.635V30.367a10.686,10.686,0,0,1-2.664,7.448,7.8,7.8,0,0,1-2.431,1.845,10.12,10.12,0,0,1-5,.9,4.394,4.394,0,0,1-3.336-1.983V48.882h-6.46V10.168a9.522,9.522,0,0,1,3.01-7.056A10.519,10.519,0,0,1,627.436.992a9.468,9.468,0,0,1,3.936-.807Z" transform="translate(-565.17 0.139)" fill="#fff"/>
    <path id="path92" d="M622.171,6.271h-6.46V35.3h6.46Z" transform="translate(-569.47 4.728)" fill="#fff"/>
    <path id="path94" d="M619.381,3.255a9.261,9.261,0,0,1,3.01,6.917V39.8h-6.485V10.633a3.517,3.517,0,0,0-1.019-2.559,3.425,3.425,0,0,0-2.477-1.061,3.478,3.478,0,0,0-2.456,1.015,3.52,3.52,0,0,0-1.065,2.605V39.8h-6.46V10.334a9.432,9.432,0,0,1,3.01-7.056A9.585,9.585,0,0,1,612.388.3a9.774,9.774,0,0,1,6.993,2.951Z" transform="translate(-579.484 0.229)" fill="#fff"/>
    <path id="path96" d="M674.861,11.8a2.87,2.87,0,0,1-2.849,2.836h-8.938a2.87,2.87,0,0,1-2.847-2.836V2.942A2.854,2.854,0,0,1,663.074.105h8.938a2.84,2.84,0,0,1,2.849,2.836Z" transform="translate(-535.904 0.08)" fill="#fff"/>
    <path id="path98" d="M621.036.251a1.283,1.283,0,0,1,1.321,1.291V5.231a1.332,1.332,0,0,1-1.321,1.314h-4.029a1.3,1.3,0,0,1-1.3-1.314V1.542a1.264,1.264,0,0,1,1.3-1.291Z" transform="translate(-569.47 0.189)" fill="#fff"/>
    <path id="path100" d="M664.474,17.142a11.08,11.08,0,0,0-7.109-2.905,4.116,4.116,0,0,1-2.5-1.176,3.582,3.582,0,0,1-.949-2.467,3.8,3.8,0,0,1,.926-2.513,3.034,3.034,0,0,1,2.547-1.13,3.168,3.168,0,0,1,3.475,2.767h6.483a8.649,8.649,0,0,0-3.033-6.779A10.2,10.2,0,0,0,657.387.264a9.447,9.447,0,0,0-7.016,3A10.139,10.139,0,0,0,647.5,10.57a10.009,10.009,0,0,0,2.849,7.286,9.728,9.728,0,0,0,7.039,3.067,4.162,4.162,0,0,1,2.664.761,3.1,3.1,0,0,1,.9,2.467v5.718a4.271,4.271,0,0,1-.833,2.606,3.226,3.226,0,0,1-2.708,1.084,3.105,3.105,0,0,1-3.243-2.213l-.161-.853V24.8h-6.485v5.372l.07,1.061v.115a10.7,10.7,0,0,0,3.219,6.064,9.26,9.26,0,0,0,6.6,2.813,9.632,9.632,0,0,0,7.248-2.813,9.518,9.518,0,0,0,2.778-7.033V24.059a9.207,9.207,0,0,0-2.964-6.917Z" transform="translate(-545.5 0.199)" fill="#fff"/>
    <path id="path102" d="M606.38,17.142a11.08,11.08,0,0,0-7.109-2.905,4.242,4.242,0,0,1-2.524-1.176,3.574,3.574,0,0,1-.949-2.467,3.793,3.793,0,0,1,.926-2.513,3.061,3.061,0,0,1,2.547-1.13,3.165,3.165,0,0,1,3.473,2.767h6.485a8.594,8.594,0,0,0-3.057-6.779A10.2,10.2,0,0,0,599.248.264a9.453,9.453,0,0,0-7.018,3,10.146,10.146,0,0,0-2.871,7.309,10.109,10.109,0,0,0,2.849,7.286,9.729,9.729,0,0,0,7.041,3.067,4.045,4.045,0,0,1,2.64.761,3.1,3.1,0,0,1,.9,2.467v5.718a4.13,4.13,0,0,1-.835,2.606,3.224,3.224,0,0,1-2.708,1.084,3.105,3.105,0,0,1-3.243-2.213l-.161-.853V24.8h-6.485v5.372l.07,1.061v.115a10.8,10.8,0,0,0,3.2,6.064,9.272,9.272,0,0,0,6.623,2.813,9.632,9.632,0,0,0,7.248-2.813,9.518,9.518,0,0,0,2.778-7.033V24.059a9.07,9.07,0,0,0-2.894-6.917Z" transform="translate(-589.34 0.199)" fill="#fff"/>
    <path id="path104" d="M640.937,10.544a3.52,3.52,0,0,1,1.019-2.605,3.56,3.56,0,0,1,2.549-1.015,3.512,3.512,0,0,1,2.477,1.015,3.35,3.35,0,0,1,1.065,2.605v3.735h-7.109ZM654.461,20.3V10.083a9.16,9.16,0,0,0-3.033-6.917A9.878,9.878,0,0,0,644.412.237,9.546,9.546,0,0,0,637.3,3.073a9.894,9.894,0,0,0-2.78,7.194V30.258a9.714,9.714,0,0,0,2.8,7.148,9.565,9.565,0,0,0,7.109,2.836,9.739,9.739,0,0,0,6.9-2.629,9.6,9.6,0,0,0,3.08-6.779V25h-6.553v5.6l-.023.323a3.194,3.194,0,0,1-3.45,2.629,3.33,3.33,0,0,1-2.456-1.015,3.484,3.484,0,0,1-1.019-2.605V20.32h13.546Z" transform="translate(-555.285 0.179)" fill="#fff"/>
  </g>
</svg>
