<svg xmlns="http://www.w3.org/2000/svg" xmlns:xlink="http://www.w3.org/1999/xlink" width="294.347" height="45.532" viewBox="0 0 294.347 45.532">
  <defs>
    <clipPath id="clip-path">
      <rect id="rect105" width="294.347" height="45.532" transform="translate(0)" fill="#fff"/>
    </clipPath>
  </defs>
  <g id="g94" clip-path="url(#clip-path)">
    <path id="path90" d="M740.185,44.705V24.51c0-5.8,3.976-9.706,9.776-9.706,4.987,0,7.2,2.32,7.2,7.751v22.15h2.828V22.246c0-6.8-3.267-10.111-10.041-10.111a10.7,10.7,0,0,0-9.993,6.087l-.345.653-.174-.714c-1.02-3.886-4.121-6.026-8.76-6.026a11.452,11.452,0,0,0-3.938.665,10.278,10.278,0,0,0-6.35,5.3v-4.78h-3.23V44.705h3.23V24.753c0-5.854,3.891-9.949,9.64-9.949,4.68,0,6.929,2.733,6.929,8.117V44.705ZM672.914,14.632c5.9,0,9.753,4.509,10.066,11.508l-20.432,0C662.915,19.246,666.988,14.632,672.914,14.632Zm9.713,20.414c-.842,4.427-4.776,7.172-9.77,7.172-6.519,0-10.807-5.2-10.807-13v-.2h23.842V27.805c0-10.033-4.724-15.743-13.068-15.743-8.519,0-13.544,6.187-13.544,16.49,0,10.173,5.067,16.322,13.551,16.322,6.971,0,12-3.793,12.9-9.828ZM649.85,26.584c0-7.522,3.4-11.25,9.871-11.25h.229V12.515h-.168c-3.278,0-5.791.847-7.649,2.733a11.971,11.971,0,0,0-2.688,3.638V13.323h-2.826V44.705h3.231ZM521.858,39.247c-5.765,0-8.989-3.954-8.989-11.365s3.225-11.416,8.989-11.416c5.706,0,8.926,3.95,8.926,11.416,0,7.41-3.22,11.365-8.926,11.365Zm-.06-28.71c-9.983,0-16,6.419-16,17.345s6.078,17.29,16.058,17.29c9.921,0,16-6.421,16-17.29S531.779,10.537,521.8,10.537ZM693.25,31.36a7.976,7.976,0,0,1,1.1-.835,18.517,18.517,0,0,1,7.591-1.983,28.387,28.387,0,0,0,7.835-1.31l.384-.145.046,3.177-.011.007s0,.033.011.095l.008.834.016.716a.225.225,0,0,0-.007.064c0,.131-.013.251-.018.376a11.989,11.989,0,0,1-.6,3.122c-.963,2.613-3.234,5.414-8.431,6.314a16.843,16.843,0,0,1-2.416.171c-4.517,0-7.436-2.453-7.436-6.25a5.706,5.706,0,0,1,.672-2.752c.039-.071.075-.143.115-.205s.067-.1.1-.155a6.8,6.8,0,0,1,.732-.933c.042-.041.083-.083.124-.124.062-.062.127-.122.192-.185ZM688.1,35.778c0,5.451,3.882,8.841,10.134,8.841a15.035,15.035,0,0,0,11.495-5.261l.555-.555v1.233c0,2.318.808,4.306,2.826,4.668V21.29c0-6.059-3.839-9.22-11.22-9.22-7.207,0-11.924,4.067-12.191,9.7h3.038c.346-4.428,3.374-7.05,9.258-7.05,5.8,0,8.17,2.037,8.17,7.121,0,2.759-.9,3.319-3.444,3.874a53.281,53.281,0,0,1-5.514.735c-.091,0-.184.012-.27.021l-.065,0v0a23.68,23.68,0,0,0-7.862,1.644,7.949,7.949,0,0,0-4.908,7.654ZM555.93,39.121c-5.269,0-8.557-4.015-8.557-11.052,0-7.407,3.288-11.48,8.557-11.48,5.639,0,8.679,3.765,8.679,11.047C564.609,35.17,561.511,39.121,555.93,39.121ZM564.6,15.6a11.8,11.8,0,0,0-10.228-5.064c-8,0-13.975,6.667-13.975,17.471,0,10.495,5.843,17.164,14.02,17.164,4.282,0,7.352-1.671,10.183-5.314v4.847h6.465V.045H564.6Zm-71.538,9.073-4.151-.925c-3.538-.8-5.461-1.789-5.461-4.135,0-1.977,1.862-3.356,5.519-3.356,4.278,0,6.7,1.892,6.88,5.11h6.761c0-6.438-5.088-10.662-13.393-10.662-8.059,0-12.77,3.992-12.77,10.044,0,5.309,3.348,7.612,10.168,9.278l4.9,1.21c3.221.806,5.082,1.6,5.082,3.94,0,2.533-2.356,4.456-6.573,4.456-4.833,0-7.376-1.77-7.69-5.794H475.52c0,7.242,4.958,11.469,13.884,11.469,9.057,0,14.138-4.2,14.138-10.936,0-5.986-3.532-8.091-10.477-9.7ZM595.234,31.9c0,4.631-3.877,7.719-8.84,7.719-3.41,0-5.283-1.731-5.283-4.692,0-2.654,1.48-4.256,4.7-4.877s6.591-.739,9.419-2.224ZM589.1,10.537c-8.435,0-13.259,4.134-13.259,10.5v.74H582.3v-.434c0-3.267,2.244-5.12,6.522-5.12,4.527,0,6.674,1.418,6.674,4.566,0,3.027-1.5,3.087-7.264,3.831-8.742,1.1-13.894,3.206-13.894,10.924,0,5.924,3.842,9.632,10.536,9.632A13.551,13.551,0,0,0,595.73,39.8c.059,3.335,1.966,4.936,6.183,4.936.086,0,.189-.007.189-.007V20.169c0-6.36-4.329-9.632-13.006-9.632Zm53.48,31.143a12.542,12.542,0,0,1-3.15.529c-2.333,0-2.5-1.464-2.5-3.694V15.734h5.654V13.323h-5.654V1.253H633.69V38.515c0,4.563,1.093,6.1,4.688,6.1a17.44,17.44,0,0,0,4.2-.605ZM620.5,27.3c-.577-.141-1.13-.263-1.664-.391-5.539-1.289-8.884-2.059-8.884-6.506,0-3.407,2.893-5.584,7.378-5.584,5.073,0,8.16,2.528,8.518,6.957h3.213c-.533-6.038-4.769-9.61-11.671-9.61-6.373,0-10.656,3.5-10.656,8.758,0,5.192,3.462,6.912,11.212,8.779l.174.063c5.547,1.318,8.6,2.086,8.6,6.165,0,3.816-3.452,6.358-8.781,6.358-4.771,0-8.435-3.216-8.653-7.239h-3.215c.315,6.035,5.015,9.886,12.05,9.886,7.064,0,11.814-3.624,11.814-8.908,0-4.684-2.475-7.028-9.44-8.729Z" transform="translate(-475.258 0.028)" fill="#fff"/>
    <path id="path92" d="M655.333,11.021c.654,0,1.3-.022,1.3-.755,0-.6-.506-.741-1.031-.741h-.976v1.5Zm-.706,2.363h-.53V9.075h1.662c.976,0,1.4.42,1.4,1.192a1.161,1.161,0,0,1-1.086,1.2l1.29,1.913h-.624l-1.218-1.913h-.9Zm-2.335-2.155a3.162,3.162,0,1,0,6.324,0,3.162,3.162,0,1,0-6.324,0Zm6.908,0A3.747,3.747,0,1,1,655.455,7.5,3.684,3.684,0,0,1,659.2,11.228Z" transform="translate(-364.943 4.696)" fill="#fff"/>
  </g>
</svg>
