<svg xmlns="http://www.w3.org/2000/svg" width="146" height="34" fill="none" viewBox="0 0 146 34">
    <path fill="#FFFFFF" d="M72.752 14.083c-1.07-1.083-2.633-1.667-4.361-1.667-3.95 0-6.996 3.334-6.996 7.584s3.045 7.583 6.996 7.583c1.646 0 3.21-.666 4.361-1.833v1.416h3.786V12.75h-3.785v1.333zm-3.703 9.833c-2.14 0-3.786-1.75-3.786-4s1.646-4 3.786-4 3.786 1.75 3.786 4-1.646 4-3.786 4zM83.287 6.75h-3.868v20.417h3.868V6.75zM89.87 6.75h-3.867v20.417h3.868V6.75z"/>
    <path fill="#AAEA39" d="M102.956 6.417c-5.76 0-10.452 4.75-10.452 10.583s4.691 10.5 10.452 10.5 10.452-4.75 10.452-10.5c0-5.834-4.691-10.584-10.452-10.584zm0 17.166c-3.62 0-6.419-2.916-6.419-6.666 0-3.75 2.798-6.667 6.419-6.667 3.622 0 6.42 2.916 6.42 6.666 0 3.75-2.798 6.667-6.42 6.667zM123.779 12.334c-1.564 0-2.881.583-3.868 1.583v-1.25h-3.869v14.5h3.869v-7.584c0-2.166 1.152-3.583 2.88-3.583s2.716 1.084 2.716 3.167v8h3.868V18.5c0-3.75-2.14-6.166-5.596-6.166zM139.003 12.334c-4.115 0-7.243 3.25-7.243 7.583 0 4.416 3.045 7.583 7.407 7.583 2.798 0 5.185-1.333 6.419-3.75.33-.75.412-1.416.412-1.416h-3.703c-.741 1.083-1.564 1.75-3.128 1.75-1.81 0-3.292-1.25-3.621-2.917h10.452v-.417-.833c.082-4.334-2.88-7.584-6.995-7.584zm-.083 3.333c1.646 0 2.963 1.083 3.292 2.583h-6.584c.412-1.25 1.729-2.583 3.292-2.583z"/>
    <path fill="#FFFFFF" d="M50.78 6.333c-5.762 0-10.453 4.75-10.453 10.584 0 5.833 4.691 10.5 10.452 10.5 3.868 0 7.407-2.084 9.218-5.5l.246-.5H55.47l-.082.083c-1.235 1.25-2.798 2-4.609 2-3.621 0-6.42-2.916-6.42-6.666 0-3.75 2.799-6.667 6.42-6.667 2.304 0 4.362 1.25 5.514 3.25l.083.167h4.361l-.164-.417c-1.482-4-5.432-6.833-9.794-6.833z"/>
    <path fill="#AAEA39" d="M0 17c0 9.417 7.572 17 16.789 17 1.317 0 2.634-.167 3.868-.5V24c-1.152.667-2.469 1-3.868 1-4.362 0-7.9-3.583-7.9-8s3.538-8 7.9-8c1.4 0 2.716.417 3.868 1V.5A14.477 14.477 0 0 0 16.79 0C7.572 0 0 7.667 0 17zM24.69 2v30c5.267-2.833 8.888-8.5 8.888-15s-3.54-12.167-8.889-15z"/>
</svg>