<?xml version="1.0" encoding="utf-8"?>
<!-- Generator: Adobe Illustrator 27.8.1, SVG Export Plug-In . SVG Version: 6.00 Build 0)  -->
<svg version="1.1" id="Ebene_1" xmlns="http://www.w3.org/2000/svg" xmlns:xlink="http://www.w3.org/1999/xlink" x="0px" y="0px"
	 viewBox="0 0 50 50" style="enable-background:new 0 0 50 50;" xml:space="preserve">
<style type="text/css">
	.st0{fill:#90E438;}
</style>
<path class="st0" d="M12,2C9.2,2,7,4.2,7,7s2.2,5,5,5s5-2.2,5-5S14.8,2,12,2z M29,2v2H19v2h27v26H20v2h8.5L23,45h2l5-10l5,10h2
	l-5.5-11H47c0.6,0,1-0.4,1-1V5c0-0.6-0.4-1-1-1H31V2H29z M12,4c1.7,0,3,1.3,3,3s-1.3,3-3,3S9,8.7,9,7S10.3,4,12,4z M7.5,13
	c-3,0-5.5,2.5-5.5,5.5v12.3c0,0,0,0.1,0,0.1V31c0,0.1,0,0.2,0,0.3C2.2,32.8,3.5,34,5,34c0.4,0,0.7-0.1,1-0.2v10.7
	C6,46.4,7.6,48,9.5,48c1,0,1.9-0.4,2.5-1.1c0.6,0.7,1.5,1.1,2.5,1.1c1.9,0,3.5-1.6,3.5-3.5V19h11c1.6,0,3-1.4,3-3c0-1.6-1.3-3-2.9-3
	c0,0,0,0-0.1,0H15c-0.4,0-0.7,0.2-0.9,0.6L12,17.8l-2.1-4.2C9.7,13.2,9.4,13,9,13H7.5z M7.5,15h0.9l2.7,5.4c0.2,0.4,0.5,0.6,0.9,0.6
	s0.7-0.2,0.9-0.6l2.7-5.4H29c0,0,0.1,0,0.1,0c0.5,0,0.9,0.5,0.9,1c0,0.6-0.4,1-1,1H17c-0.6,0-1,0.4-1,1v26.5c0,0.8-0.7,1.5-1.5,1.5
	c-0.8,0-1.4-0.6-1.5-1.3v-0.2c0,0,0-0.1,0-0.1V34c0-0.3-0.1-0.6-0.3-0.8c-0.2-0.2-0.5-0.3-0.8-0.3c0,0-0.1,0-0.1,0
	c-0.5,0.1-0.8,0.5-0.8,1v10.3c0,0,0,0.1,0,0.1v0.2c-0.1,0.8-0.7,1.3-1.5,1.3C8.7,46,8,45.3,8,44.5V21c0-0.3-0.1-0.6-0.4-0.8
	C7.4,20,7.1,19.9,6.8,20C6.3,20.1,6,20.5,6,21v9.8c0,0,0,0.1,0,0.1V31c0,0.6-0.4,1-1,1c-0.5,0-1-0.4-1-0.9c0,0,0,0,0-0.1
	c0-0.1,0-0.1,0-0.2V18.5C4,16.6,5.6,15,7.5,15z"/>
</svg>
