<svg xmlns="http://www.w3.org/2000/svg" width="34.362" height="43.048" viewBox="0 0 34.362 43.048">
  <path id="einsatzbereiche-icon" d="M15.17,0a.861.861,0,0,0-.7.861v.861H7.5A2.506,2.506,0,0,0,5,4.224V40.465a2.552,2.552,0,0,0,2.5,2.583H36.856a2.519,2.519,0,0,0,2.5-2.5V4.3c0-.027,0-.054,0-.081a2.4,2.4,0,0,0-2.421-2.5H29.968V.861A.863.863,0,0,0,29.107,0H15.17Zm1.022,1.722H28.246V6.888H16.193ZM7.5,3.444h6.968V5.166H8.444V39.6H35.995V5.166H29.968V3.444h6.968a.771.771,0,0,1,.7.7v36.4a.77.77,0,0,1-.78.78H7.5a.887.887,0,0,1-.78-.861V4.224A.928.928,0,0,1,7.5,3.444Zm2.664,3.444h4.3v.861a.863.863,0,0,0,.861.861H29.107a.863.863,0,0,0,.861-.861V6.888h4.3V37.882H10.166Zm3.444,7.749v6.888H20.5V14.636Zm1.722,1.722h3.444V19.8H15.332Zm7.749.861v1.722h7.749V17.219Zm-9.471,8.61v6.888H20.5V25.829Zm1.722,1.722h3.444v3.444H15.332Zm.861.861v1.722h1.722V28.412Zm6.888,0v1.722h7.749V28.412Z" transform="translate(-5)" fill="#86ed18"/>
</svg>
