<svg xmlns="http://www.w3.org/2000/svg" width="39.977" height="39.385" viewBox="0 0 39.977 39.385">
  <path id="features-menu" d="M6.556.084,5.9,1.783l-.95,2.464L.5,4.486,3.96,7.3,2.813,11.608,6.556,9.185,10.3,11.606,9.153,7.3l3.462-2.812-4.453-.24Zm0,3.9L7.179,5.6,8.9,5.691,7.563,6.781l.445,1.67L6.556,7.513l-1.451.94L5.55,6.781,4.208,5.691,5.935,5.6Zm9.691.891V6.463H40.474V4.876ZM6.556,14.216l-.655,1.7-.95,2.464L.5,18.619,3.96,21.431,2.813,25.74l3.743-2.423L10.3,25.738,9.153,21.431l3.462-2.812-4.453-.24Zm0,3.9.623,1.614,1.726.093-1.342,1.09.445,1.67-1.451-.938-1.451.94.445-1.672-1.342-1.09,1.727-.093Zm9.691,1.295V21H40.474V19.412ZM6.556,27.945l-.655,1.7-.95,2.464L.5,32.347,3.96,35.16,2.813,39.469l3.743-2.423L10.3,39.467,9.153,35.16l3.462-2.812-4.453-.24Zm0,3.9.623,1.614,1.726.093-1.342,1.09.445,1.67-1.451-.938-1.451.94.445-1.672-1.342-1.09,1.727-.093Zm9.691,2.1v1.587H40.474V33.948Z" transform="translate(-0.498 -0.084)" fill="#90e438"/>
</svg>
