<svg xmlns="http://www.w3.org/2000/svg" width="41" height="38.073" viewBox="0 0 41 38.073">
  <path id="naturliche-icon" d="M24.5,6C13.3,6,4,13.53,4,23.022c0,6.027,3.91,11.616,10.054,14.643,0,0,0,0,0,0,.022.011.017-.008.008.023a19.261,19.261,0,0,1-2.08,3.876.976.976,0,0,0,1.093,1.485,16.736,16.736,0,0,0,6.338-3.541h0a24.214,24.214,0,0,0,2.7.41,14.126,14.126,0,0,0,9.066,3.165,15.1,15.1,0,0,0,3.413-.395,11.686,11.686,0,0,0,3.157,1.329.976.976,0,0,0,1.142-1.445,8.835,8.835,0,0,1-.751-1.237c3.589-1.959,5.832-5.312,5.832-8.986a9.143,9.143,0,0,0-.488-2.911A14.508,14.508,0,0,0,45,23.022C45,13.53,35.7,6,24.5,6Zm0,1.952c10.33,0,18.548,6.866,18.548,15.07a12.356,12.356,0,0,1-.709,4.08,13.392,13.392,0,0,0-11.16-5.483c-6.953,0-12.794,4.711-12.794,10.732a9.369,9.369,0,0,0,1.666,5.293c-.08-.016-.161-.027-.24-.044l-.006,0a1.979,1.979,0,0,0-.4-.042,1.947,1.947,0,0,0-1.35.553h0a13.475,13.475,0,0,1-3.106,2.006,16.641,16.641,0,0,0,.972-1.828,1.99,1.99,0,0,0-1-2.372C9.329,33.163,5.952,28.2,5.952,23.022,5.952,14.818,14.17,7.952,24.5,7.952Zm6.679,15.619c6.079,0,10.841,4.041,10.841,8.78,0,2.9-1.759,5.636-4.87,7.31l0,0a1.8,1.8,0,0,0-.864,1.664,5.538,5.538,0,0,1-.61-.246l0,0a1.85,1.85,0,0,0-1.5-.294,13.148,13.148,0,0,1-3,.347c-6.079,0-10.841-4.043-10.841-8.782S25.1,23.572,31.179,23.572ZM26.163,30.46a1.929,1.929,0,1,0,1.929,1.929,1.928,1.928,0,0,0-1.929-1.929Zm5.4,0a1.929,1.929,0,1,0,1.929,1.929,1.928,1.928,0,0,0-1.929-1.929Zm5.4,0a1.929,1.929,0,1,0,1.929,1.929,1.928,1.928,0,0,0-1.929-1.929Z" transform="translate(-4 -6)" fill="#86ed18"/>
</svg>
