<svg xmlns="http://www.w3.org/2000/svg" width="39.819" height="39.819" viewBox="0 0 39.819 39.819">
  <path id="offene-icon" d="M35.76,2a6.047,6.047,0,0,0-4.418,10.19L24.1,21.044H14.05a6.059,6.059,0,1,0,0,1.731H24.075l6.954,9.211A6.093,6.093,0,1,0,32.3,30.8l-6.693-8.864,7.084-8.66a6.006,6.006,0,0,0,3.069.847A6.059,6.059,0,0,0,35.76,2Zm0,1.731a4.328,4.328,0,1,1-4.328,4.328A4.315,4.315,0,0,1,35.76,3.731Zm-27.7,13.85A4.328,4.328,0,1,1,3.731,21.91,4.315,4.315,0,0,1,8.059,17.581Zm27.7,13.85a4.328,4.328,0,1,1-4.328,4.328A4.315,4.315,0,0,1,35.76,31.432Z" transform="translate(-2 -2)" fill="#86ed18"/>
</svg>
