<svg xmlns="http://www.w3.org/2000/svg" width="50.004" height="38" viewBox="0 0 50.004 38">
  <path id="uber-icon" d="M26.813,5C22.355,5,19.1,6.762,17.375,9.375a8.31,8.31,0,0,0-.844,1.688l-.25-.5A1,1,0,0,0,15.406,10C11.945,10,9.359,11.406,8,13.5a7.436,7.436,0,0,0-.531,6.563c-.062.1-.2.156-.25.281A2.969,2.969,0,0,0,7,21.906v.031A4.19,4.19,0,0,0,7.719,24c.16.211.414.211.625.344A8.933,8.933,0,0,0,9,26.438a6.807,6.807,0,0,0,.563.969c.066.1.18.164.25.25,0,.766-.027,1.453-.094,2.344a2.736,2.736,0,0,1-1.437,1.281c-.84.43-1.965.828-3.125,1.344a10.371,10.371,0,0,0-3.375,2.156A6.592,6.592,0,0,0,0,39.031a1,1,0,0,0,1,1.063H7.219a9.217,9.217,0,0,0-.312,1.844,1,1,0,0,0,1,1.063H42.094a1,1,0,0,0,1-1.062A9.229,9.229,0,0,0,42.75,40H49a1,1,0,0,0,1-1.062,6.641,6.641,0,0,0-1.781-4.25,10.163,10.163,0,0,0-3.312-2.156c-1.148-.516-2.262-.914-3.094-1.344a2.79,2.79,0,0,1-1.406-1.281c-.066-.809-.094-1.527-.094-2.344.066-.086.184-.156.25-.25a6.418,6.418,0,0,0,.531-.969,7.642,7.642,0,0,0,.594-2c.2-.129.441-.141.594-.344A4.19,4.19,0,0,0,43,21.938a3.131,3.131,0,0,0-.156-1.5c-.047-.121-.219-.2-.281-.312a5.3,5.3,0,0,0,.531-1.625,8.761,8.761,0,0,0-.25-3,5.929,5.929,0,0,0-1.531-2.812,4.625,4.625,0,0,0-2.594-1.156l-.406-.937A1,1,0,0,0,37.406,10a14.3,14.3,0,0,0-4.219.563,6.822,6.822,0,0,0-1.469-2.156,5.8,5.8,0,0,0-3.437-1.469l-.562-1.344A1,1,0,0,0,26.813,5Zm-.656,2.063.531,1.156a1,1,0,0,0,.906.594,3.726,3.726,0,0,1,2.75,1.031,5.465,5.465,0,0,1,1.406,2.563A8.93,8.93,0,0,1,32,15.469a4.3,4.3,0,0,1-.594,1.906,1,1,0,0,0,.375,1.531c-.016-.008,0-.008.031.063a1.959,1.959,0,0,1,.094.781c0,.031,0,.031,0,.063a3.673,3.673,0,0,1-.531,1.531.628.628,0,0,1-.156.156,1,1,0,0,0-.906.875,8.721,8.721,0,0,1-.719,2.469,5.683,5.683,0,0,1-.531.906c-.117.16-.234.25-.219.25a1,1,0,0,0-.531.906c0,1.3-.008,2.344.094,3.875a.98.98,0,0,0,.063.281,5.668,5.668,0,0,0,3.063,2.906c1.32.652,2.813,1.141,4.219,1.75a11.388,11.388,0,0,1,3.656,2.313A5.864,5.864,0,0,1,40.844,41H9.156a5.864,5.864,0,0,1,1.438-2.969,11.388,11.388,0,0,1,3.656-2.312c1.406-.609,2.9-1.1,4.219-1.75a5.668,5.668,0,0,0,3.063-2.906.98.98,0,0,0,.063-.281c.1-1.437.094-2.574.094-3.875A1,1,0,0,0,21.156,26a.174.174,0,0,0-.031-.031c-.008,0-.02,0-.031,0a1.554,1.554,0,0,1-.187-.219,6.018,6.018,0,0,1-.562-.906,7.594,7.594,0,0,1-.75-2.437,1,1,0,0,0-.812-.875c-.1-.02-.609,0-.781-1.719-.07-.77.293-1,.25-.969a1,1,0,0,0,.375-1.25A7.986,7.986,0,0,1,18,13.188a1,1,0,0,0,.219-.937,6.666,6.666,0,0,1,.813-1.75C20.277,8.613,22.621,7.23,26.156,7.063Zm10.625,5.031.313.688a1,1,0,0,0,.906.625,2.508,2.508,0,0,1,1.906.719,4.061,4.061,0,0,1,1,1.875,6.763,6.763,0,0,1,.188,2.281,3.524,3.524,0,0,1-.406,1.406,1,1,0,0,0,.281,1.469,1.209,1.209,0,0,1,.031.531,2.743,2.743,0,0,1-.312,1.125,1,1,0,0,0-.875.906,5.664,5.664,0,0,1-.531,1.781,4.638,4.638,0,0,1-.375.656,2.434,2.434,0,0,0-.156.219,1,1,0,0,0-.437.813,30.686,30.686,0,0,0,.094,3.094,1.116,1.116,0,0,0,.063.25,4.618,4.618,0,0,0,2.406,2.438c1.02.527,2.168.9,3.219,1.375a8.495,8.495,0,0,1,2.688,1.75,4.285,4.285,0,0,1,1,1.906H41.906a7.76,7.76,0,0,0-1.062-1.375,12.965,12.965,0,0,0-4.281-2.719c-1.508-.652-2.992-1.156-4.125-1.719a3.953,3.953,0,0,1-2.031-1.781c-.074-1.2-.094-2.1-.094-3.156.105-.121.277-.211.375-.344a7.486,7.486,0,0,0,.719-1.219A10.6,10.6,0,0,0,32.156,23c.273-.164.6-.156.813-.437a5.437,5.437,0,0,0,.906-2.5A.466.466,0,0,0,33.906,20a3.78,3.78,0,0,0-.25-1.812c-.055-.129-.238-.16-.312-.281a6.467,6.467,0,0,0,.625-2.25,10.693,10.693,0,0,0-.156-3.187A13.6,13.6,0,0,1,36.781,12.094Zm-21.937.031.375.719a1,1,0,0,0,.75.563,10.146,10.146,0,0,0,.625,4.406A3.076,3.076,0,0,0,16,20a3.648,3.648,0,0,0,1.719,3.031,9.96,9.96,0,0,0,.844,2.719,7.647,7.647,0,0,0,.75,1.219c.1.129.27.2.375.313,0,1.059-.02,2.008-.094,3.125a3.953,3.953,0,0,1-2.031,1.781c-1.133.563-2.617,1.066-4.125,1.719a12.965,12.965,0,0,0-4.281,2.719,7.7,7.7,0,0,0-1.125,1.469H2.25a4.285,4.285,0,0,1,1-1.906,8.607,8.607,0,0,1,2.719-1.75c1.063-.473,2.191-.848,3.219-1.375a4.589,4.589,0,0,0,2.438-2.406.98.98,0,0,0,.063-.281c.1-1.238.125-2.062.125-3.062a1,1,0,0,0-.469-.875,2.148,2.148,0,0,1-.156-.187,4.921,4.921,0,0,1-.406-.687,6.873,6.873,0,0,1-.594-1.906,1,1,0,0,0-.875-.844A2.743,2.743,0,0,1,9,21.688a.965.965,0,0,1,.063-.531,1,1,0,0,0,.344-1.25,5.541,5.541,0,0,1,.281-5.312C10.574,13.227,12.3,12.281,14.844,12.125Z" transform="translate(0.002 -5)" fill="#90e438"/>
</svg>
