<svg width="50" height="48" viewBox="0 0 50 48" fill="none" xmlns="http://www.w3.org/2000/svg">
<path d="M49.5135 16.8808C49.5135 13.1998 46.5188 10.205 42.8378 10.205C39.1568 10.205 36.162 13.1998 36.162 16.8808C36.162 20.2784 38.7146 23.0851 42.0019 23.4989V35.2289C42.0019 40.9928 37.3129 45.681 31.5491 45.681H24.503C18.7392 45.681 14.0502 40.992 14.0502 35.2289V30.9402H17.0357C20.7619 30.9402 22.94 27.1723 23.5042 24.5988C23.5912 24.0764 25.6565 11.7555 25.9624 7.46933C26.0786 5.85702 25.5077 4.28817 24.3576 3.05281C23.1014 1.70379 21.3252 0.929809 19.4847 0.929809H18.2962C18.2586 0.447535 17.8632 0.0605469 17.3709 0.0605469H15.685C15.1677 0.0605469 14.7447 0.483476 14.7447 1.00085V2.52958C14.7447 3.04696 15.1677 3.46989 15.685 3.46989H17.3701C17.8624 3.46989 18.2577 3.08374 18.2962 2.60063H19.4847C20.8622 2.60063 22.1928 3.18069 23.1339 4.19121C23.9648 5.08304 24.3768 6.20472 24.2958 7.34897C23.9949 11.5557 21.876 24.1934 21.8635 24.2795C21.4397 26.2078 19.7555 29.2669 17.0357 29.2669H9.39209C6.67231 29.2669 4.98728 26.2078 4.57187 24.3205C4.55181 24.1943 2.43382 11.5574 2.13209 7.34981C2.05018 6.20556 2.46308 5.08471 3.29389 4.19205C4.23503 3.18153 5.56567 2.60147 6.94312 2.60147H8.11495C8.1534 3.08374 8.54874 3.47073 9.04105 3.47073H10.7261C11.2435 3.47073 11.6664 3.0478 11.6664 2.53042V1.00085C11.6681 0.483476 11.2443 0.0605469 10.7269 0.0605469H9.04188C8.54958 0.0605469 8.15423 0.447535 8.11578 0.929809H6.94395C5.10346 0.929809 3.32816 1.70379 2.07107 3.05365C0.920973 4.289 0.350938 5.85702 0.466282 7.46933C0.772195 11.7546 2.83753 24.0764 2.93281 24.6389C3.48864 27.1715 5.66681 30.9402 9.39293 30.9402H12.3785V35.2281C12.3785 41.9139 17.8172 47.3518 24.503 47.3518H31.5491C38.2349 47.3518 43.6736 41.9131 43.6736 35.2281V23.498C46.9609 23.0851 49.5135 20.2784 49.5135 16.8808ZM42.8378 21.8849C40.0779 21.8849 37.8337 19.6398 37.8337 16.8808C37.8337 14.1217 40.0787 11.8767 42.8378 11.8767C45.5968 11.8767 47.8419 14.1217 47.8419 16.8808C47.8419 19.6398 45.5968 21.8849 42.8378 21.8849ZM42.8378 14.0456C41.2748 14.0456 40.0026 15.3169 40.0026 16.8808C40.0026 18.4446 41.2739 19.7159 42.8378 19.7159C44.4016 19.7159 45.6729 18.4446 45.6729 16.8808C45.6729 15.3169 44.4008 14.0456 42.8378 14.0456ZM42.8378 18.0434C42.1959 18.0434 41.6743 17.521 41.6743 16.8799C41.6743 16.2388 42.1959 15.7165 42.8378 15.7165C43.4797 15.7165 44.0012 16.2388 44.0012 16.8799C44.0012 17.521 43.4789 18.0434 42.8378 18.0434Z" fill="#2d6af9"/>
</svg>
